<svg width="89" height="24" viewBox="0 0 89 24" fill="none" xmlns="http://www.w3.org/2000/svg">
<path d="M17.1447 10.2721H9.68707C9.49465 10.2721 9.33863 10.4284 9.33863 10.6208V14.2669C9.33863 14.4593 9.49465 14.6159 9.68707 14.6159H12.5963V19.1459C12.5963 19.1459 11.943 19.3686 10.1371 19.3686C8.00643 19.3686 5.03006 18.5901 5.03006 12.045C5.03006 5.49856 8.12936 4.63718 11.0391 4.63718C13.5578 4.63718 14.643 5.08062 15.3334 5.29441C15.5503 5.36083 15.7509 5.1448 15.7509 4.95231L16.5829 1.42942C16.5829 1.33925 16.5524 1.23078 16.4497 1.15716C16.1693 0.957132 14.4587 0 10.1371 0C5.15857 0 0.0517578 2.11807 0.0517578 12.3003C0.0517578 22.4827 5.89863 24 10.8256 24C14.9051 24 17.38 22.2567 17.38 22.2567C17.4819 22.2004 17.493 22.0579 17.493 21.9925V10.6208C17.493 10.4284 17.3371 10.2721 17.1447 10.2721ZM36.8364 8.06293H33.6866C33.6866 8.06293 33.6819 3.90264 33.6819 3.90173C33.6819 3.74416 33.6007 3.66552 33.4186 3.66552H29.1264C28.9594 3.66552 28.8699 3.73899 28.8699 3.89935V8.1994C28.8699 8.1994 26.7188 8.71869 26.5733 8.7606C26.4286 8.80264 26.322 8.93618 26.322 9.09557V11.7977C26.322 11.992 26.4771 12.1488 26.6691 12.1488H28.8699C28.8699 12.1488 28.8699 14.975 28.8699 18.6496C28.8699 23.4781 32.2568 23.9524 34.5422 23.9524C35.5865 23.9524 36.8356 23.617 37.0419 23.5408C37.1666 23.495 37.2392 23.3658 37.2392 23.2258L37.2426 20.2532C37.2426 20.0594 37.0789 19.9024 36.8945 19.9024C36.7109 19.9024 36.2414 19.9771 35.7579 19.9771C34.2108 19.9771 33.6866 19.2578 33.6866 18.3266C33.6866 17.3961 33.6864 12.1488 33.6864 12.1488H36.8364C37.0284 12.1488 37.1839 11.992 37.1839 11.7977V8.41305C37.1839 8.21917 37.0284 8.06293 36.8364 8.06293ZM82.9246 7.60441C80.5579 7.60441 78.9482 8.6603 78.9482 8.6603V1.21995C78.9482 1.026 78.7932 0.869407 78.6017 0.869407H74.3908C74.1993 0.869407 74.0438 1.026 74.0438 1.21995V23.1926C74.0438 23.3864 74.1993 23.5441 74.3914 23.5441C74.3917 23.5441 77.312 23.5441 77.3129 23.5441C77.4444 23.5441 77.544 23.4762 77.6176 23.3575C77.6902 23.2395 77.7951 22.3444 77.7951 22.3444C77.7951 22.3444 79.5168 23.9762 82.7766 23.9762C86.6033 23.9762 88.7979 22.0351 88.7979 15.2623C88.7979 8.48946 85.2929 7.60441 82.9246 7.60441ZM81.2811 19.9844C79.8357 19.9403 78.8555 19.2845 78.8555 19.2845V12.3262C78.8555 12.3262 79.8225 11.7335 81.0091 11.6275C82.5096 11.4931 83.9555 11.9464 83.9555 15.5258C83.9555 19.3004 83.303 20.0453 81.2811 19.9844ZM71.5359 8.09799H67.369C67.1779 8.09799 67.0223 8.25549 67.0223 8.4493V19.2231C67.0223 19.2231 65.9637 19.9977 64.4612 19.9977C62.9589 19.9977 62.56 19.3159 62.56 17.8448C62.56 16.3718 62.56 8.4493 62.56 8.4493C62.56 8.25549 62.4049 8.09799 62.2136 8.09799H57.9845C57.7937 8.09799 57.6374 8.25549 57.6374 8.4493C57.6374 8.4493 57.6374 14.1868 57.6374 18.5561C57.6374 22.9259 60.0727 23.995 63.423 23.995C66.1714 23.995 68.3876 22.4765 68.3876 22.4765C68.3876 22.4765 68.4931 23.2767 68.5407 23.3716C68.5886 23.4662 68.7129 23.5618 68.8474 23.5618L71.5377 23.5499C71.7286 23.5499 71.8849 23.3922 71.8849 23.1991L71.8837 8.4493C71.8837 8.25549 71.7279 8.09799 71.5359 8.09799ZM25.0685 4.10323C25.0685 2.59133 23.8563 1.36949 22.3606 1.36949C20.8666 1.36949 19.6535 2.59133 19.6535 4.10323C19.6535 5.61373 20.8666 6.83885 22.3606 6.83885C23.8563 6.83885 25.0685 5.61373 25.0685 4.10323ZM24.7681 18.5576C24.7681 17.9945 24.7681 8.41494 24.7681 8.41494C24.7681 8.22238 24.6128 8.06495 24.4207 8.06495H20.235C20.0429 8.06495 19.8711 8.26303 19.8711 8.45552C19.8711 8.45552 19.8711 20.6603 19.8711 22.9869C19.8711 23.4138 20.1373 23.5408 20.4816 23.5408C20.4816 23.5408 22.2682 23.5408 24.253 23.5408C24.6667 23.5408 24.7681 23.3377 24.7681 22.98C24.7681 22.2011 24.7681 19.1499 24.7681 18.5576ZM55.5775 1.21995C55.5775 1.026 55.4238 0.869407 55.2314 0.869407H51.0324C50.8406 0.869407 50.6846 1.026 50.6846 1.21995C50.6846 1.22086 50.6858 9.33478 50.6858 9.33478H44.1406V1.21995C44.1406 1.026 43.9861 0.869407 43.7941 0.869407H39.5953C39.4042 0.869407 39.2484 1.026 39.2484 1.21995V23.1926C39.2484 23.3864 39.4042 23.5441 39.5953 23.5441H43.7941C43.9861 23.5441 44.1406 23.3864 44.1406 23.1926V13.7941H50.6858C50.6858 13.7941 50.6744 23.1919 50.6744 23.1926C50.6744 23.3864 50.8301 23.5441 51.0221 23.5441H55.231C55.4235 23.5441 55.5772 23.3864 55.5775 23.1926V1.21995Z" fill="#595959"/>
</svg>
