<svg width="68" height="24" viewBox="0 0 68 24" fill="none" xmlns="http://www.w3.org/2000/svg">
<path d="M33.3965 7.41226L36.585 7.21294C36.6546 7.72917 36.7953 8.12218 37.0071 8.39198C37.3532 8.82929 37.8464 9.04794 38.4868 9.04794C38.9646 9.04794 39.3333 8.9364 39.5929 8.71331C39.7117 8.62069 39.8083 8.50275 39.8754 8.36813C39.9426 8.23352 39.9786 8.08564 39.981 7.93534C39.979 7.79124 39.9454 7.64932 39.8825 7.51952C39.8197 7.38972 39.7291 7.27519 39.6171 7.18394C39.3745 6.96328 38.8025 6.75429 37.901 6.55697C36.431 6.22839 35.3827 5.79108 34.7561 5.24505C34.4511 4.99065 34.2076 4.6711 34.0437 4.31014C33.8797 3.94918 33.7994 3.55607 33.8089 3.15998C33.8112 2.60025 33.98 2.05376 34.294 1.58954C34.6526 1.06633 35.1591 0.661009 35.7494 0.424996C36.3962 0.142316 37.2856 0.000976562 38.4176 0.000976562C39.8035 0.000976562 40.8603 0.257885 41.588 0.771702C42.3157 1.28552 42.7486 2.10215 42.8869 3.22159L39.7275 3.40521C39.6466 2.922 39.4704 2.56845 39.1987 2.34456C38.927 2.12067 38.5551 2.00913 38.0829 2.00994C37.6936 2.00994 37.4001 2.09329 37.2036 2.25758C37.1108 2.32866 37.0358 2.42019 36.9844 2.52498C36.9331 2.62978 36.9068 2.745 36.9076 2.8616C36.9106 2.95209 36.9339 3.04075 36.9759 3.12105C37.0179 3.20134 37.0775 3.27121 37.1502 3.32548C37.3079 3.46803 37.6826 3.60092 38.2745 3.72414C39.7396 4.03822 40.7907 4.35634 41.4279 4.67848C42.065 5.00062 42.5259 5.39968 42.8105 5.87564C43.101 6.35847 43.2509 6.91225 43.2435 7.47508C43.247 8.15657 43.0464 8.82363 42.6674 9.39102C42.2729 9.98261 41.7117 10.4449 41.0543 10.7199C40.363 11.0219 39.4922 11.1729 38.4419 11.1729C36.5976 11.1729 35.32 10.8193 34.6093 10.1122C33.8986 9.40511 33.4943 8.50513 33.3965 7.41226Z" fill="#595959"/>
<path d="M0.760742 10.9909V0.182617H6.34706C7.38282 0.182617 8.17439 0.270804 8.72179 0.447176C9.26098 0.618714 9.72715 0.964828 10.0462 1.43052C10.3935 1.9474 10.5703 2.55928 10.552 3.18096C10.566 3.72346 10.4319 4.25959 10.1638 4.73207C9.90664 5.17007 9.54242 5.53618 9.10504 5.79635C8.73733 5.99837 8.34051 6.14262 7.92859 6.22399C8.2368 6.3144 8.53045 6.44823 8.80062 6.62144C9.0014 6.78767 9.18212 6.97659 9.33912 7.18438C9.51575 7.39089 9.67211 7.61379 9.80606 7.85001L11.4288 10.9909H7.64115L5.85101 7.6845C5.6238 7.25686 5.42166 6.97901 5.24459 6.85096C5.0033 6.6844 4.71584 6.59699 4.42229 6.6009H4.12393V10.9909H0.760742ZM4.12393 4.55932H5.54052C5.84032 4.53703 6.13747 4.4877 6.42832 4.41194C6.64566 4.37041 6.83951 4.2493 6.97167 4.07248C7.11142 3.89388 7.18586 3.67315 7.1827 3.44672C7.19182 3.2964 7.16654 3.14598 7.10876 3.00682C7.05098 2.86765 6.96222 2.74338 6.84917 2.64338C6.62763 2.45654 6.21081 2.36312 5.59874 2.36312H4.12393V4.55932Z" fill="#595959"/>
<path d="M0 20.2404L3.18854 20.0423C3.25808 20.5585 3.39877 20.9515 3.61061 21.2213C3.95263 21.6586 4.44706 21.8773 5.0939 21.8773C5.57176 21.8773 5.94046 21.7653 6.20001 21.5414C6.31887 21.4488 6.41542 21.3309 6.48257 21.1963C6.54973 21.0616 6.58579 20.9138 6.58812 20.7635C6.58598 20.6194 6.55232 20.4775 6.48948 20.3478C6.42664 20.218 6.33613 20.1034 6.22427 20.0121C5.9817 19.7914 5.40965 19.5828 4.50811 19.3863C3.03815 19.0561 1.98986 18.6188 1.36323 18.0744C1.05833 17.8197 0.814886 17.4999 0.650917 17.1388C0.486948 16.7776 0.40666 16.3844 0.416002 15.9881C0.418687 15.4284 0.587475 14.882 0.901136 14.4177C1.25974 13.8945 1.7663 13.4891 2.35654 13.2531C3.00338 12.9704 3.89279 12.8291 5.02477 12.8291C6.41064 12.8291 7.46742 13.086 8.19512 13.5998C8.92282 14.1136 9.3558 14.9303 9.49407 16.0497L6.3407 16.2345C6.25984 15.7513 6.08358 15.3974 5.8119 15.1727C5.54023 14.948 5.1687 14.8377 4.69731 14.8417C4.30839 14.8417 4.01529 14.9222 3.818 15.0833C3.7252 15.1544 3.65018 15.2459 3.59884 15.3507C3.5475 15.4555 3.52122 15.5707 3.52207 15.6873C3.52484 15.778 3.54808 15.8669 3.59007 15.9474C3.63206 16.0279 3.69173 16.098 3.76464 16.1524C3.92231 16.2949 4.29707 16.4274 4.88894 16.5498C6.35404 16.8639 7.40516 17.182 8.0423 17.5042C8.67945 17.8263 9.14032 18.2254 9.42494 18.7014C9.71522 19.1843 9.86512 19.738 9.85792 20.3008C9.86156 20.9823 9.66097 21.6494 9.28182 22.2167C8.88734 22.8083 8.32616 23.2706 7.66875 23.5456C6.97744 23.8476 6.10662 23.9986 5.05631 23.9986C3.21199 23.9986 1.93447 23.645 1.22375 22.9379C0.513029 22.2308 0.105112 21.3316 0 20.2404Z" fill="#595959"/>
<path d="M19.7689 19.3945L22.7064 20.2788C22.544 21.021 22.2262 21.7208 21.7738 22.3324C21.3615 22.8728 20.8193 23.3012 20.1971 23.5779C19.568 23.8574 18.7675 23.9971 17.7957 23.9971C16.6168 23.9971 15.6538 23.8268 14.9067 23.4861C14.1596 23.1454 13.5127 22.545 12.9662 21.6849C12.4228 20.8256 12.1515 19.7259 12.1523 18.3858C12.1523 16.5995 12.6294 15.226 13.5835 14.2652C14.5376 13.3044 15.8879 12.8244 17.6344 12.8252C19.0016 12.8252 20.0758 13.1006 20.8569 13.6515C21.6379 14.2024 22.2185 15.048 22.5985 16.1884L19.6392 16.8443C19.5697 16.5872 19.46 16.3426 19.3141 16.1195C19.1349 15.8716 18.8992 15.6696 18.6265 15.53C18.3438 15.3897 18.0314 15.3189 17.7156 15.3234C16.9564 15.3234 16.3746 15.6278 15.9703 16.2367C15.6631 16.6885 15.5099 17.3976 15.5107 18.364C15.5107 19.5608 15.6934 20.3814 16.0589 20.826C16.4244 21.2706 16.9374 21.4924 17.598 21.4916C18.2383 21.4916 18.7235 21.3124 19.0534 20.9541C19.3833 20.5957 19.6218 20.0758 19.7689 19.3945Z" fill="#595959"/>
<path d="M25.2891 13.0107H28.6401V16.7895H32.3029V13.0107H35.6685V23.8142H32.3029V19.4471H28.6401V23.8178H25.2891V13.0107Z" fill="#595959"/>
<path d="M37.7539 18.4203C37.7539 16.6582 38.2471 15.2851 39.2336 14.301C40.22 13.3168 41.5945 12.8255 43.3572 12.8272C45.1619 12.8272 46.5526 13.3104 47.5294 14.2768C48.5061 15.2432 48.9957 16.595 48.9981 18.3322C48.9981 19.5958 48.7846 20.6314 48.3577 21.4392C47.9423 22.2364 47.2985 22.8927 46.5081 23.325C45.6996 23.7743 44.6946 23.999 43.493 23.999C42.2705 23.999 41.2598 23.805 40.461 23.4168C39.6402 23.0117 38.961 22.3697 38.5119 21.5745C38.0058 20.7353 37.7531 19.6839 37.7539 18.4203ZM41.105 18.436C41.105 19.5273 41.3071 20.3109 41.7114 20.7869C42.1157 21.2628 42.6695 21.5008 43.373 21.5008C44.0934 21.5008 44.6509 21.2677 45.0455 20.8014C45.44 20.3351 45.6373 19.4975 45.6373 18.2887C45.6373 17.2715 45.4311 16.5282 45.0188 16.0586C44.6064 15.5891 44.0477 15.3548 43.3426 15.3556C43.0361 15.3446 42.731 15.4028 42.4502 15.5258C42.1694 15.6488 41.9202 15.8334 41.7211 16.0659C41.3111 16.5491 41.1058 17.3392 41.105 18.436Z" fill="#595959"/>
<path d="M47.5771 18.4203C47.5771 16.6582 48.0704 15.2851 49.0568 14.301C50.0432 13.3168 51.4178 12.8255 53.1804 12.8272C54.9868 12.8272 56.3779 13.3104 57.3538 14.2768C58.3297 15.2432 58.8177 16.5954 58.8177 18.3334C58.8177 19.597 58.6046 20.6327 58.1785 21.4404C57.7627 22.2373 57.1191 22.8935 56.329 23.3262C55.5204 23.7756 54.5154 24.0003 53.3139 24.0003C52.0905 24.0003 51.0798 23.8062 50.2818 23.418C49.4609 23.0126 48.7815 22.3707 48.3315 21.5757C47.8286 20.7357 47.5771 19.6839 47.5771 18.4203ZM50.9294 18.436C50.9294 19.5273 51.1316 20.3109 51.5358 20.7869C51.9401 21.2628 52.4948 21.5012 53.1999 21.502C53.9203 21.502 54.4778 21.2689 54.8723 20.8026C55.2669 20.3363 55.4642 19.4987 55.4642 18.2899C55.4642 17.2727 55.2584 16.5294 54.8469 16.0598C54.4353 15.5903 53.8766 15.356 53.1707 15.3568C52.8637 15.345 52.5579 15.4027 52.2764 15.5255C51.9949 15.6483 51.7451 15.8331 51.5455 16.0659C51.134 16.5491 50.9286 17.3392 50.9294 18.436Z" fill="#595959"/>
<path d="M58.4688 13.0107H61.821V21.1541H67.052V23.8118H58.4688V13.0107Z" fill="#595959"/>
</svg>
