<svg width="48" height="24" viewBox="0 0 48 24" fill="none" xmlns="http://www.w3.org/2000/svg">
<path fill-rule="evenodd" clip-rule="evenodd" d="M28.9622 19.4404H30.7466C31.4539 19.4404 32.3992 19.6708 32.3992 20.5391C32.3992 21.4075 31.6227 21.6365 30.8052 21.6365H28.9622V19.4404ZM0.765183 10.9904V0.1824H6.3864C7.42862 0.1824 8.22517 0.27061 8.77596 0.446983C9.31826 0.61815 9.78787 0.964824 10.1088 1.4303C10.4606 1.95133 10.6334 2.5551 10.6174 3.18069C10.6274 3.73095 10.5012 4.25089 10.2269 4.73165C9.96826 5.16914 9.60156 5.53576 9.16175 5.79587C8.79182 5.99772 8.39196 6.14204 7.97812 6.22335C8.28767 6.31394 8.58412 6.44794 8.85534 6.62093C9.05705 6.78703 9.23961 6.97683 9.39736 7.1842C9.57476 7.3903 9.73247 7.61379 9.86711 7.84974L11.5 10.9906L7.68858 10.9904L5.88728 7.68415C5.65863 7.25648 5.45522 6.97866 5.27703 6.85059C5.03976 6.68791 4.75747 6.60043 4.46863 6.60043C4.4624 6.60043 4.45562 6.60062 4.44958 6.60062L4.14939 6.60053V10.9904H0.765183ZM4.14939 4.55902H5.57482C5.87611 4.53711 6.17602 4.48752 6.46805 4.41192C6.68678 4.37014 6.88203 4.24883 7.01496 4.07214C7.15915 3.88915 7.22728 3.67744 7.22728 3.44646C7.24435 3.14056 7.12382 2.84717 6.89167 2.64317C6.66874 2.4563 6.24932 2.36288 5.6334 2.36288H4.14939V4.55902ZM17.8914 7.41112L21.0998 7.21178C21.1698 7.72802 21.3114 8.12104 21.5245 8.39083C21.8728 8.82813 22.3691 9.04678 23.0134 9.04678C23.4943 9.04678 23.8653 8.93524 24.1265 8.71216C24.3686 8.52451 24.5123 8.23842 24.517 7.93412C24.5129 7.64264 24.3788 7.36738 24.1509 7.18279C23.9068 6.96213 23.3312 6.75316 22.424 6.55583C20.9448 6.22728 19.89 5.78998 19.2595 5.24397C18.6551 4.74298 18.3056 4.00187 18.3056 3.22141C18.3056 2.62623 18.4554 2.08337 18.7946 1.5884C19.1534 1.06486 19.6653 0.659926 20.2589 0.424154C20.9098 0.141401 21.8048 0 22.9439 0C24.3384 0 25.4018 0.256915 26.134 0.770692C26.8663 1.28451 27.302 2.10113 27.4411 3.22055L24.2619 3.40418C24.1806 2.92095 24.0032 2.56742 23.7298 2.34352C23.4564 2.11967 23.0822 2.00813 22.607 2.0089C22.2153 2.0089 21.9199 2.09227 21.7222 2.25655C21.5346 2.39945 21.4245 2.62066 21.4245 2.85506C21.4245 3.03632 21.5231 3.21658 21.6686 3.32442C21.8272 3.46696 22.2043 3.59986 22.7999 3.72309C24.2741 4.03717 25.3318 4.35526 25.9729 4.67741C26.6141 4.99952 27.0778 5.39857 27.3642 5.87454C27.664 6.37037 27.7998 6.89807 27.7998 7.47385C27.8166 8.13227 27.5867 8.84369 27.22 9.3897C26.8232 9.98119 26.2583 10.444 25.597 10.7185C24.9014 11.0206 24.0252 11.1716 22.9683 11.1716C21.1125 11.1716 19.827 10.8181 19.1118 10.111C18.3967 9.4039 17.9899 8.50396 17.8914 7.41112ZM5.12574 21.8757C3.90852 21.8757 3.35866 21.1488 3.20847 20.0408L0 20.2389C0.287087 23.2009 2.35966 23.9914 5.08118 23.9975C8.19772 24.0044 10.4599 22.8637 10.4599 19.4762V13.0102H7.07566V19.2023C7.07566 20.5729 6.81722 21.8757 5.12574 21.8757ZM12.3635 18.4202C12.3635 16.6581 12.8598 15.2851 13.8524 14.3009C14.8451 13.3168 16.2282 12.8256 18.0019 12.8272C19.8195 12.8272 21.2193 13.3104 22.2013 14.2768C23.1833 15.2432 23.6743 16.5954 23.6743 18.3333C23.6743 19.5968 23.4599 20.6325 23.0312 21.4402C22.6132 22.2363 21.9645 22.894 21.1701 23.326C20.3565 23.7753 19.3451 24 18.1361 24C16.9051 24 15.8881 23.8059 15.0851 23.4177C14.2594 23.0125 13.5752 22.3698 13.1228 21.5753C12.6166 20.7355 12.3635 19.6838 12.3635 18.4202ZM15.7368 18.4359C15.7368 19.5272 15.9402 20.3108 16.347 20.7867C16.7537 21.2627 17.3119 21.5011 18.0214 21.5018C18.7463 21.5018 19.3073 21.2687 19.7043 20.8024C20.1014 20.3361 20.2999 19.4986 20.2999 18.2898C20.2999 17.2726 20.0928 16.5293 19.6787 16.0598C19.2646 15.5903 18.7024 15.3559 17.9921 15.3567C17.9661 15.3557 17.9396 15.3552 17.9134 15.3552C17.3145 15.3552 16.7455 15.6149 16.3567 16.0657C15.9426 16.549 15.7359 17.3391 15.7368 18.4359ZM37.4912 20.2389L40.6997 20.0395C40.7696 20.5558 40.9112 20.9488 41.1244 21.2186C41.4726 21.6559 41.9689 21.8745 42.6133 21.8745C43.0941 21.8745 43.4651 21.763 43.7263 21.5399C43.9685 21.3523 44.1121 21.0662 44.1168 20.7619C44.1128 20.4704 43.9786 20.1951 43.7507 20.0105C43.5066 19.7899 42.931 19.5809 42.0238 19.3836C40.5447 19.055 39.4899 18.6177 38.8593 18.0717C38.255 17.5707 37.9055 16.8296 37.9055 16.0492C37.9055 16.0285 37.9058 16.007 37.9061 15.9867C37.9083 15.427 38.0787 14.8801 38.3944 14.4162C38.7548 13.8937 39.2652 13.4877 39.8587 13.2519C40.5096 12.9692 41.4047 12.8278 42.5437 12.8278C43.9383 12.8278 45.0016 13.0847 45.7339 13.5984C46.4661 14.1123 46.9018 14.9289 47.041 16.0483L43.8618 16.2319C43.7804 15.7487 43.6031 15.3952 43.3297 15.1713C43.0563 14.9474 42.682 14.8359 42.2069 14.8367C41.8151 14.8367 41.5198 14.92 41.3221 15.0843C41.1344 15.2272 41.0243 15.4484 41.0243 15.6828C41.0243 15.6846 41.0243 15.6866 41.0243 15.6883C41.0303 15.8715 41.1202 16.0423 41.2684 16.1522C41.427 16.2947 41.8042 16.4276 42.3997 16.5508C43.874 16.8649 44.9317 17.183 45.5728 17.5052C46.2139 17.8273 46.6777 18.2263 46.9641 18.7023C47.2488 19.1732 47.4 19.713 47.4 20.262C47.4 20.2749 47.3996 20.289 47.3996 20.3016C47.3998 20.307 47.3998 20.3138 47.3998 20.3192C47.3998 20.9945 47.1973 21.6556 46.8198 22.2175C46.4231 22.8089 45.8582 23.2717 45.1968 23.5463C44.5012 23.8483 43.625 23.9994 42.5681 23.9994C40.7123 23.9994 39.4268 23.6458 38.7117 22.9388C37.9965 22.2317 37.5897 21.3317 37.4912 20.2389ZM25.5779 23.817V13.009H31.1992C33.5139 13.009 35.4302 13.686 35.4269 16.2247C35.4259 17.0205 35.0442 17.7469 34.4536 18.2762C35.325 18.8437 35.7892 19.699 35.7892 20.8187C35.7892 23.1766 33.6414 23.817 31.5582 23.817H25.5779ZM28.9622 17.2599H30.3876C31.0579 17.2599 32.0419 17.0089 32.0419 16.213C32.0419 15.4172 31.1637 15.1895 30.4462 15.1895H28.9622V17.2599Z" fill="#FFDB20"/>
</svg>
