<svg width="29" height="30" viewBox="0 0 29 30" fill="none" xmlns="http://www.w3.org/2000/svg">
<g clip-path="url(#clip0_135_1275)">
<path d="M27.8743 26.8426C27.5541 24.9926 27.0205 23.5428 26.3089 22.5111C26.2645 22.4489 26.2111 22.3777 26.1666 22.3066C25.9799 21.9864 25.8287 21.7373 25.6775 21.5061C25.6241 21.426 25.5618 21.3638 25.4907 21.3015C25.2594 21.0258 25.0371 20.7945 24.788 20.5989C24.788 20.4299 24.7969 20.252 24.7969 20.083C24.8236 19.8251 24.8414 19.4693 24.788 19.1669C24.7791 19.1402 24.7791 19.1135 24.7703 19.078C24.7436 18.4643 24.6902 17.8417 24.6102 17.2369V17.1746C24.5746 16.4275 24.539 15.6537 24.4145 15.0222C24.2544 14.1595 23.9698 13.359 23.6941 12.5852L23.6852 12.5586C22.6979 9.80136 21.3905 7.64008 19.6917 5.9413C19.3537 5.57664 18.9979 5.22977 18.6333 4.90068C18.3309 4.60717 18.0285 4.34035 17.735 4.1091C17.4948 3.91343 17.1924 3.71776 16.8189 3.51319C16.4631 3.28194 16.0984 3.06849 15.7249 2.87281C15.6982 2.85503 15.6715 2.83724 15.6448 2.82834C15.5292 2.76608 15.4136 2.71272 15.2713 2.65046C14.96 2.49926 14.6309 2.35695 14.3018 2.22354C14.2574 2.20575 14.2218 2.17907 14.1773 2.16128C13.2612 1.6721 11.7581 1.20961 10.922 0.978358C10.593 0.853839 10.4595 0.809369 10.2906 0.809369C10.1483 0.809369 10.0059 0.844945 9.87253 0.916098C9.72133 0.996146 9.60571 1.11177 9.51676 1.24518C9.44561 1.23629 9.37446 1.22739 9.3122 1.2185C8.73408 1.10288 8.36052 0.969463 8.18264 0.809369C8.11149 0.747109 7.97808 0.640379 7.87135 0.569226C7.75572 0.435814 7.56005 0.240142 7.27544 0.133412C7.25765 0.124518 7.23986 0.115624 7.22207 0.10673C7.09755 0.0355766 6.95525 0 6.80405 0C6.4127 0 6.17256 0.249036 6.08362 0.329084C5.90574 0.506967 5.85237 0.631485 5.81679 0.729321C5.76343 0.880522 5.72785 1.04951 5.71896 1.2185C5.32762 1.23629 5.043 1.3697 4.82065 1.48532C4.63387 1.5209 4.44709 1.55648 4.2781 1.60095C3.89566 1.69878 3.50431 1.84999 3.13965 2.03676C2.7572 2.17907 2.62379 2.49036 2.58821 2.62378C2.53485 2.81055 2.54374 3.01512 2.62379 3.193C2.20577 3.44204 1.99231 3.64661 1.85889 3.81559C1.83221 3.84228 1.81442 3.86007 1.78774 3.88675C1.44087 4.21583 1.44087 4.62496 1.5476 4.89179C1.56539 4.94515 1.60096 4.99852 1.63654 5.06078C1.10289 5.45212 0.844959 5.74563 0.844959 6.18144C0.844959 6.47495 0.987265 6.73288 1.20073 6.89297H0.844959C0.373568 6.89297 -0.00888062 7.27542 -0.00888062 7.74681C-0.00888062 8.2182 0.373568 8.60065 0.844959 8.60065H0.907218C-0.160081 11.3489 0.186791 14.7465 1.93005 18.74C1.98341 19.0068 2.04567 19.3092 2.24134 19.7361C2.32139 19.9051 2.41923 20.1897 2.48148 20.4299C2.48148 20.4655 2.49038 20.501 2.49038 20.5366C2.49927 20.6522 2.50817 20.7501 2.54374 20.8479C2.57043 20.9724 2.62379 21.0969 2.69494 21.1948C2.69494 21.2037 2.69494 21.2215 2.69494 21.2304C2.68605 21.3015 2.68605 21.3638 2.67716 21.426C2.66826 21.4438 2.65937 21.4794 2.65047 21.5061C2.58821 21.7106 2.48148 22.0842 2.7572 22.44C2.77499 22.4666 2.79278 22.4844 2.81057 22.5022L2.79278 23.276C2.6149 23.4628 2.49038 23.6763 2.40144 23.8452C2.04567 24.539 2.1524 25.0104 2.29471 25.2861L1.81442 26.6202L1.77885 26.7181C1.51202 27.3584 1.20073 28.0878 1.03174 28.8527C0.978371 29.0661 1.01395 29.2885 1.12068 29.4664C1.15625 29.5375 1.19183 29.6176 1.2452 29.6798C1.40529 29.8844 1.65433 30 1.91226 30C1.92115 30 1.92115 30 1.93005 30C2.10793 30 4.41152 29.9733 7.31991 29.9466C12.772 29.8933 20.9547 29.8132 24.957 29.7688C25.0371 29.7954 25.1171 29.8043 25.2061 29.8043C25.215 29.8043 25.2239 29.8043 25.2416 29.8043C25.8642 29.7776 26.6202 29.751 27.0916 29.7332C27.1806 29.7332 27.2428 29.7332 27.2873 29.7243C27.3051 29.7243 27.3229 29.7243 27.3407 29.7243H27.4385C27.6875 29.7154 27.9188 29.5998 28.0789 29.4041C28.239 29.2084 28.3012 28.9594 28.2568 28.7103C28.15 28.0611 28.0166 27.4296 27.8743 26.8426ZM1.73437 6.20812C1.72548 6.20812 1.72548 6.20812 1.72548 6.20812H1.73437ZM1.52981 9.46339C1.60096 9.24103 1.68101 9.00978 1.76995 8.79632C1.67212 9.00978 1.59207 9.23214 1.52981 9.46339ZM2.01899 6.14586C2.01009 6.14586 2.0012 6.14586 2.0012 6.14586C2.01009 6.14586 2.01899 6.14586 2.01899 6.14586C2.02788 6.14586 2.02788 6.14586 2.01899 6.14586ZM2.38365 4.50934C2.42812 4.46487 2.48148 4.4204 2.52596 4.38482C2.48148 4.4204 2.42812 4.46487 2.38365 4.50934ZM2.51706 4.60717C2.51706 4.60717 2.51706 4.60717 2.52596 4.60717C2.52596 4.60717 2.52595 4.60717 2.51706 4.60717ZM3.13076 6.43048C3.02403 6.58168 2.92619 6.73288 2.82836 6.89297C2.92619 6.74177 3.02403 6.58168 3.13076 6.43048C3.15744 6.37711 3.18412 6.33264 3.21081 6.27928C3.18412 6.33264 3.15744 6.37711 3.13076 6.43048ZM3.37979 25.5618C3.34422 25.6152 3.29975 25.6774 3.26417 25.7308C3.29975 25.6774 3.34422 25.6241 3.37979 25.5618C3.38869 25.5529 3.40648 25.5351 3.41537 25.5173C3.40648 25.5351 3.38869 25.5529 3.37979 25.5618ZM3.35311 20.3054C3.36201 20.332 3.36201 20.3587 3.3709 20.3854C3.36201 20.3587 3.36201 20.332 3.35311 20.3054ZM3.40648 20.6967C3.40648 20.6967 3.41537 20.6967 3.40648 20.6967C3.41537 20.6967 3.40648 20.6967 3.40648 20.6967ZM3.54878 21.5505C3.55768 21.4972 3.55768 21.4438 3.56657 21.3905C3.55768 21.4438 3.54878 21.4972 3.54878 21.5505ZM3.64662 23.7296C3.64662 23.7296 3.65551 23.7296 3.64662 23.7296C3.65551 23.7296 3.65551 23.7296 3.66441 23.7296C3.66441 23.7296 3.65551 23.7296 3.64662 23.7296ZM3.69998 23.7474C3.69109 23.7385 3.6822 23.7296 3.6733 23.7296C3.6822 23.7385 3.69109 23.7385 3.69998 23.7474C3.70888 23.6318 3.71777 23.5162 3.73556 23.3916C3.71777 23.5162 3.69998 23.6407 3.69998 23.7474ZM2.7661 5.31871C2.73941 5.3365 2.71273 5.34539 2.68605 5.36318C2.71273 5.35428 2.73941 5.3365 2.7661 5.31871L3.77114 4.58939L2.7661 5.31871ZM4.68724 3.21079C4.68724 3.21079 4.69613 3.21079 4.70502 3.21079C4.70502 3.21079 4.69613 3.21079 4.68724 3.21079ZM5.10526 2.31248C4.87401 2.34806 4.66945 2.39253 4.49156 2.437C4.66945 2.39253 4.88291 2.34806 5.10526 2.31248C5.13194 2.29469 5.15863 2.2858 5.18531 2.26801C5.16752 2.2858 5.13194 2.30359 5.10526 2.31248ZM5.78122 2.08123H5.79011C5.79011 2.08123 5.79011 2.08123 5.79901 2.08123C5.79901 2.08123 5.79011 2.08123 5.78122 2.08123ZM6.80405 0.862733C6.81294 0.862733 6.81294 0.862733 6.81294 0.862733H6.80405ZM7.59563 1.44975C7.58673 1.44085 7.55116 1.41417 7.51558 1.38749C7.56005 1.41417 7.58673 1.43196 7.59563 1.44975C7.69346 1.53869 7.80019 1.60984 7.91582 1.6721C7.80019 1.60984 7.69346 1.5298 7.59563 1.44975ZM8.11149 1.76104C8.23601 1.81441 8.37831 1.86777 8.52062 1.90335C8.36942 1.86777 8.23601 1.8233 8.11149 1.76104ZM17.6016 5.13193C17.7439 5.25645 17.8951 5.38986 18.0374 5.53217C17.8862 5.38986 17.7439 5.25645 17.6016 5.13193ZM22.858 12.8521C22.6534 12.2739 22.4222 11.7047 22.182 11.1711C22.4311 11.7047 22.6534 12.265 22.858 12.8521C22.9292 13.0477 22.9914 13.2345 23.0626 13.4302C23.0003 13.2345 22.9292 13.0388 22.858 12.8521ZM23.7474 17.3169C23.7385 17.1213 23.7296 16.9345 23.7207 16.7477C23.7296 16.9345 23.7385 17.1302 23.7474 17.3169C23.7652 17.477 23.783 17.6282 23.8008 17.7883C23.783 17.6282 23.7652 17.477 23.7474 17.3169ZM23.9075 21.0347C23.8808 21.0169 23.8542 20.9902 23.8275 20.9724C23.8542 20.9991 23.8808 21.0169 23.9075 21.0347C23.952 21.0703 24.0054 21.0969 24.0498 21.1325C24.0054 21.1058 23.9609 21.0703 23.9075 21.0347Z" fill="white"/>
<path d="M3.70888 5.57657C3.34422 5.57657 2.38365 7.57776 2.16129 7.98689C0.551452 11.0109 1.13847 14.533 2.41923 17.5481C2.74831 18.3219 2.59711 18.562 2.93509 19.2825C3.08629 19.6205 3.29975 20.2341 3.29975 20.5899C3.29975 20.67 3.39758 20.4476 3.39758 20.4476C3.39758 20.4476 3.39758 20.7322 3.28196 20.4743C3.24638 20.3942 3.2197 19.914 3.29975 19.914C3.34422 19.914 3.50431 21.4438 3.51321 21.4793C3.86897 22.431 3.60215 23.1425 3.58436 23.694C3.56657 24.2454 4.97185 24.7524 5.64781 24.9303C8.20043 25.6151 10.7797 24.8947 13.3324 24.8947C13.9727 24.8947 15.8138 25.1081 16.3475 24.5389C16.8011 24.0497 16.9434 23.4272 17.3081 22.8757C17.7972 22.1375 18.9446 21.2392 19.7362 20.9012C20.5544 20.5454 21.5772 20.7678 22.3866 20.9813C22.5912 21.0346 23.2138 21.3192 23.4183 21.0969C23.7563 20.7411 23.9075 19.6916 23.8186 19.238C23.5962 18.0284 23.6674 16.2585 23.4539 15.0933C23.3027 14.2929 23.027 13.528 22.7513 12.7631C21.6662 9.73015 20.1364 7.25757 17.7083 5.36311C17.1035 4.89172 16.0807 4.04678 15.3869 3.67322C14.7198 3.31746 14.3107 3.17515 13.6348 2.81049C12.7453 2.3391 11.1711 1.85882 10.2194 1.60088C9.97926 1.53863 10.5841 2.00112 10.5574 2.04559C10.5307 2.10785 9.94369 2.09896 9.85474 2.08117C9.06316 1.91218 8.26269 1.92997 7.49779 1.56531C7.37327 1.50305 7.00861 0.684786 6.64395 0.835987C6.32376 1.02276 7.0264 2.57924 7.0264 2.57924C7.0264 2.57924 6.96414 2.46362 6.91967 2.41915C6.70621 2.23237 6.20814 2.08117 5.92352 2.0278C5.32762 1.90329 5.06969 2.31242 4.56272 2.41915C4.49156 2.43694 3.59326 2.65929 3.59326 2.66818C3.59326 2.8016 4.85623 2.90833 4.85623 3.05063C4.85623 3.17515 4.64277 3.12179 4.59829 3.13068C4.31368 3.17515 2.29471 4.03788 2.41033 4.41144C2.4637 4.58043 3.72667 4.44702 3.89566 4.55375C3.94013 4.58043 4.04686 4.58932 4.04686 4.58932C4.04686 4.58932 3.12186 5.10518 2.80167 5.19413C2.39254 5.30086 1.60986 6.18138 1.99231 6.05686" fill="#CAA77A"/>
<path d="M21.4171 20.0919C21.3371 20.0919 21.257 20.1008 21.1681 20.1275C19.9051 20.5188 18.2241 21.1147 17.4148 22.271C17.1568 22.6356 16.7566 23.6051 16.4008 23.8541C16.2407 23.9698 16.0273 24.0409 15.8227 24.0765C14.8177 24.2899 14.0528 24.3967 13.0566 24.6101C10.9042 25.0726 9.01868 24.9125 6.86629 24.45C6.51942 24.3789 5.63001 24.2988 5.27424 24.2366C4.85622 24.1654 4.50045 24.1565 4.08242 24.0409C3.59324 23.9075 3.62882 23.7741 3.61993 23.7296C3.58435 23.3205 2.73051 24.4411 2.99734 24.8147C3.11296 24.9748 3.29974 25.0904 3.39757 25.2416C3.45094 25.3306 3.31753 25.4284 3.29084 25.4729C2.82835 26.1399 2.52595 26.8959 2.24133 27.643C2.06345 28.1233 1.93893 28.5769 1.84109 29.0394C2.47258 29.0305 25.802 28.8171 27.1717 28.7637C26.9849 26.6024 26.5046 24.3344 25.5085 22.9025C24.9303 22.0664 24.1299 20.9724 23.0892 20.6878C22.5645 20.5722 21.9953 20.0741 21.4171 20.0919Z" fill="#FFDB1F"/>
<path d="M1.95673 11.7136C2.26802 10.3617 2.77499 7.94248 3.89565 7.72012C4.54493 7.5956 5.03411 7.64007 5.75453 7.4533C6.51054 7.24873 6.4127 7.4444 7.81798 7.40883C9.22326 7.37325 8.58288 6.34153 8.63624 6.32374C8.68961 6.30595 9.6146 6.34153 12.2828 7.55113C15.0489 8.80521 17.2903 7.52445 18.8289 10.5218C19.1758 11.1977 19.7095 12.7364 19.3448 14.453C18.8201 16.9612 18.5443 18.0107 16.0095 19.8873C13.0033 22.1198 6.77736 23.2226 3.6733 19.0068C2.22355 17.0234 1.37861 14.2306 1.95673 11.7136Z" fill="#FFDBAF"/>
<path d="M8.81412 12.5853C7.76461 12.0249 6.83072 15.1912 6.91967 16.0095C7.21317 18.8112 9.54344 19.158 11.3134 18.2153C13.866 16.8456 11.6691 11.6158 9.84584 12.3985" fill="#9D7B51"/>
<path d="M1.41418 10.9132C1.13847 12.1317 2.03678 16.1607 2.47259 16.5076C2.80167 16.7744 5.03411 16.3831 6.65285 14.3285C8.19154 12.3807 8.17375 8.18266 7.85356 7.8269C7.66678 7.63123 3.53989 7.61344 3.16633 7.69349C2.63268 7.80911 1.78774 9.23217 1.41418 10.9132Z" fill="#9D7B51"/>
<path d="M11.6513 7.52448C10.3528 17.3792 17.9128 18.2064 18.651 17.0679C19.1224 16.3386 20.8657 10.9487 17.1301 7.24876C16.9878 7.10645 11.6513 7.4889 11.6513 7.52448Z" fill="#9D7B51"/>
<path d="M5.01631 21.7462L5.00742 22.6801" stroke="#9D7B51" stroke-width="0.5" stroke-miterlimit="10" stroke-linecap="round" stroke-linejoin="round"/>
<path d="M5.87016 22.2264L5.86127 23.1603" stroke="#9D7B51" stroke-width="0.5" stroke-miterlimit="10" stroke-linecap="round" stroke-linejoin="round"/>
<path opacity="0.23" d="M1.8233 5.85233C2.44589 5.85233 2.97065 5.66556 3.57545 5.52325C3.74444 5.47878 3.86007 5.16748 3.86007 5.35426C3.86007 5.39873 3.8067 5.39873 3.78002 5.42541C3.26416 5.76339 3.0507 6.33262 2.75719 6.91074C2.65046 7.10641 2.37474 7.65785 2.44589 7.52443C4.81174 2.93505 21.9686 1.21848 20.9813 19.834C20.9724 20.0029 20.7857 20.2787 20.928 20.332C21.2393 20.4388 21.7284 20.1186 22.1198 20.2787C22.2888 20.3498 23.5339 21.0969 23.6674 20.9991C23.8897 20.839 23.783 19.9496 23.7741 19.665C23.4806 11.5357 19.6027 6.71507 17.0946 4.69609C15.5737 3.47759 10.5574 1.83217 10.4595 1.80549C10.4417 1.7966 10.424 2.17015 10.2194 2.13457C9.47228 2.00116 8.16484 1.95669 7.51557 1.36078C7.42662 1.28073 6.71509 0.755979 6.68841 0.809344C6.60836 0.987227 6.555 1.99227 6.63504 2.14347C6.6973 2.2502 7.06196 2.0901 6.94634 2.0901C5.98577 2.0901 4.77616 2.41919 3.74444 2.64154C3.70887 2.65043 3.63771 2.65933 3.63771 2.69491C3.63771 3.0151 4.98073 2.80164 4.98073 3.02399C4.98073 3.11293 4.59828 3.17519 4.10021 3.33528C3.70887 3.4598 3.24637 3.65547 2.86392 3.96677C2.78387 4.02903 2.48147 4.27807 2.55262 4.35811C2.80166 4.62494 3.41536 4.29585 3.74444 4.46484" fill="#3F2719"/>
<path opacity="0.23" d="M21.6306 20.1987C20.8212 20.1809 19.9229 20.3943 18.909 20.8924C18.8023 20.9458 18.8023 21.2126 18.7044 21.2748C18.5443 21.3905 19.0869 21.2215 19.2737 21.2215C19.585 21.2215 23.7207 23.276 25.1171 28.8616C25.9265 28.8349 26.976 28.7904 27.314 28.7815C26.4779 24.0498 24.8236 20.2787 21.6306 20.1987Z" fill="#3F2719"/>
<path d="M3.94012 5.38098C3.23748 5.88795 2.81945 6.69732 2.34806 7.41774C0.0355793 10.9309 1.25408 15.3869 2.8995 18.909C3.04181 19.2203 3.24637 19.5761 3.29974 19.9229C3.32642 20.1008 3.22858 20.3943 3.29974 20.5455C3.32642 20.6078 3.47762 20.3765 3.48651 20.4477C3.52209 20.7679 3.48651 21.1414 3.45983 21.4616C3.45094 21.5861 3.31752 21.9063 3.39757 21.8263C3.42425 21.7996 3.5043 21.5239 3.61103 21.5595C3.67329 21.5861 3.61103 23.5606 3.57545 23.7385" stroke="#2D1F04" stroke-width="0.5" stroke-miterlimit="10" stroke-linecap="round" stroke-linejoin="round"/>
<path d="M3.72666 5.47879C3.38868 5.66557 3.15743 5.66557 2.81056 5.7723C2.63268 5.82566 2.49927 5.89682 2.32138 5.93239C2.16129 5.96797 1.9923 5.98576 1.8322 6.03023C1.76105 6.04802 1.61874 6.17254 1.61874 6.09249C1.61874 5.84345 3.46873 4.74058 3.8156 4.61606C3.86897 4.59827 3.94901 4.60716 3.9668 4.5538C3.99348 4.47375 3.8245 4.47375 3.75334 4.45596C3.40647 4.35813 2.01898 4.67832 2.28581 4.42039C3.74445 3.05069 4.82954 3.38866 4.82954 3.11295C4.82954 2.78386 3.44205 2.89949 3.33532 2.78386C3.31753 2.76607 3.37979 2.76607 3.39758 2.74828C3.71777 2.5793 4.06464 2.43699 4.40262 2.35694C5.0341 2.19685 6.16366 2.03675 6.78625 2.25911" stroke="#2D1F04" stroke-width="0.5" stroke-miterlimit="10" stroke-linecap="round" stroke-linejoin="round"/>
<path d="M6.87519 2.42809C6.69731 2.03674 6.36822 1.40526 6.53721 0.951657C6.54611 0.924974 6.68841 0.76488 6.72399 0.791562C6.84851 0.862715 7.6223 2.16126 10.2372 2.17016C10.3261 2.17016 10.5129 2.20573 10.5129 2.20573C10.5129 2.20573 9.97925 1.68987 10.1749 1.58314C10.2105 1.56535 11.7492 2.17905 11.8826 2.24131C12.9766 2.70381 14.0884 2.97953 15.129 3.51318" stroke="#2D1F04" stroke-width="0.5" stroke-miterlimit="10" stroke-linecap="round" stroke-linejoin="round"/>
<path d="M13.3946 2.74829C21.0614 5.48769 24.0676 14.0528 23.8185 20.8212" stroke="#2D1F04" stroke-width="0.5" stroke-miterlimit="10" stroke-linecap="round" stroke-linejoin="round"/>
<path d="M3.64661 23.783C9.62348 25.6329 15.7071 24.3166 16.383 23.9519" stroke="#2D1F04" stroke-width="0.5" stroke-miterlimit="10" stroke-linecap="round" stroke-linejoin="round"/>
<path d="M3.64662 23.7918C3.71777 23.3738 3.22859 24.1209 3.13965 24.3344C3.00624 24.6457 3.29974 24.9214 3.29085 25.0815C3.27306 25.2683 3.00624 25.6952 2.92619 25.9175C2.59711 26.8514 2.05456 27.8831 1.79663 28.9771" stroke="#2D1F04" stroke-width="0.5" stroke-miterlimit="10" stroke-linecap="round" stroke-linejoin="round"/>
<path d="M24.8592 21.9152C25.1438 22.3332 25.4017 22.7957 25.6419 23.2315C26.3 24.4233 26.9226 26.8247 27.2606 28.7103" stroke="#2D1F04" stroke-width="0.5" stroke-miterlimit="10" stroke-linecap="round" stroke-linejoin="round"/>
<path d="M16.134 26.6113C16.7833 27.2517 17.3614 27.9099 17.7261 28.8349" stroke="#2D1F04" stroke-width="0.5" stroke-miterlimit="10" stroke-linecap="round" stroke-linejoin="round"/>
<path d="M17.4504 28.2389C17.3703 27.6519 17.308 26.9048 17.0679 26.38" stroke="#2D1F04" stroke-width="0.5" stroke-miterlimit="10" stroke-linecap="round" stroke-linejoin="round"/>
<path d="M22.4666 20.341C18.5977 19.3893 16.1607 23.9431 16.3741 24.121" stroke="#2D1F04" stroke-width="0.5" stroke-miterlimit="10" stroke-linecap="round" stroke-linejoin="round"/>
<path d="M25.0015 22.1375C24.2722 21.1325 23.6763 20.7678 22.5022 20.3676" stroke="#2D1F04" stroke-width="0.5" stroke-miterlimit="10" stroke-linecap="round" stroke-linejoin="round"/>
<path d="M11.2066 7.62226L18.4376 7.3999" stroke="#2D1F04" stroke-width="0.5" stroke-miterlimit="10" stroke-linecap="round" stroke-linejoin="round"/>
<path d="M7.82685 7.60449L1.30743 7.75569" stroke="#2D1F04" stroke-width="0.5" stroke-miterlimit="10" stroke-linecap="round" stroke-linejoin="round"/>
<path d="M8.05812 12.8965C8.04033 12.4696 8.46725 12.0604 9.41893 12.0071C10.3706 11.9537 11.1533 12.2561 11.1711 12.683C11.1889 13.11 10.4329 13.4924 9.48119 13.5458C8.5384 13.5902 8.07591 13.3145 8.05812 12.8965Z" fill="#251707"/>
<path d="M13.7148 25.8553C12.016 26.4957 5.41653 26.4423 3.35309 24.9836" stroke="#2D1F04" stroke-width="0.5" stroke-miterlimit="10" stroke-linecap="round" stroke-linejoin="round"/>
<path d="M4.57161 24.1121C4.49156 24.3789 4.40262 24.5835 4.40262 24.877" stroke="#2D1F04" stroke-width="0.5" stroke-miterlimit="10" stroke-linecap="round" stroke-linejoin="round"/>
<path d="M6.1014 24.4412C5.98578 24.6813 5.96799 25.0104 5.96799 25.2772" stroke="#2D1F04" stroke-width="0.5" stroke-miterlimit="10" stroke-linecap="round" stroke-linejoin="round"/>
<path d="M7.92471 24.6902L7.82687 25.3484" stroke="#2D1F04" stroke-width="0.5" stroke-miterlimit="10" stroke-linecap="round" stroke-linejoin="round"/>
<path d="M9.21436 24.877V24.9837V25.0548V25.1616V25.2416V25.3128V25.3839" stroke="#2D1F04" stroke-width="0.5" stroke-miterlimit="10" stroke-linecap="round" stroke-linejoin="round"/>
<path d="M8.50281 24.9125V24.9836V25.0548V25.1259V25.206V25.2771" stroke="#2D1F04" stroke-width="0.5" stroke-miterlimit="10" stroke-linecap="round" stroke-linejoin="round"/>
<path d="M13.5547 24.6902V24.7613V24.8414V24.9837V25.0548" stroke="#2D1F04" stroke-width="0.5" stroke-miterlimit="10" stroke-linecap="round" stroke-linejoin="round"/>
<path d="M14.0617 24.6902V24.8058V24.9125V24.9837" stroke="#2D1F04" stroke-width="0.5" stroke-miterlimit="10" stroke-linecap="round" stroke-linejoin="round"/>
<path d="M14.5775 11.8914C14.5331 11.8826 14.4886 11.8826 14.4441 11.8737L14.5775 11.8914Z" fill="#2D1F04"/>
<path d="M8.44946 15.1467C8.88528 14.2662 9.32109 14.0616 9.74801 14.4707C9.917 14.6308 10.086 14.8799 10.255 15.2179" stroke="#2D1F04" stroke-width="0.5" stroke-miterlimit="10" stroke-linecap="round" stroke-linejoin="round"/>
<path opacity="0.8258" d="M15.4581 8.2627H15.4936C17.2369 8.2627 18.6422 9.88143 18.6422 11.8826C18.6422 13.8838 17.228 15.5025 15.4936 15.5025H15.4581C13.7148 15.5025 12.3095 13.8838 12.3095 11.8826C12.3006 9.88143 13.7148 8.2627 15.4581 8.2627Z" fill="#B2B2B2"/>
<path d="M15.458 8.2804H15.4936C17.1746 8.2804 18.5443 9.6501 18.5443 11.3311C18.5443 13.0121 17.1746 14.3818 15.4936 14.3818H15.458C13.777 14.3818 12.4073 13.0121 12.4073 11.3311C12.4073 9.6412 13.7682 8.2804 15.458 8.2804Z" fill="white"/>
<path d="M15.458 8.2804H15.4936C17.1746 8.2804 18.5443 9.6501 18.5443 11.3311C18.5443 13.0121 17.1746 14.3818 15.4936 14.3818H15.458C13.777 14.3818 12.4073 13.0121 12.4073 11.3311C12.4073 9.6501 13.7682 8.2804 15.458 8.2804Z" stroke="#2D1F04" stroke-width="0.5" stroke-miterlimit="10" stroke-linecap="round" stroke-linejoin="round"/>
<path d="M15.4136 11.26C15.5953 11.26 15.7427 11.0609 15.7427 10.8153C15.7427 10.5697 15.5953 10.3706 15.4136 10.3706C15.2318 10.3706 15.0845 10.5697 15.0845 10.8153C15.0845 11.0609 15.2318 11.26 15.4136 11.26Z" fill="#2D1F04"/>
<path opacity="0.8258" d="M4.23363 8.35156H4.26921C5.87016 8.35156 7.16871 9.9703 7.16871 11.9715C7.16871 13.9727 5.87016 15.5914 4.26921 15.5914H4.23363C2.63268 15.5914 1.33414 13.9727 1.33414 11.9715C1.33414 9.9703 2.63268 8.35156 4.23363 8.35156Z" fill="#B2B2B2"/>
<path d="M4.23362 8.36938H4.2692C5.81678 8.36938 7.07975 9.73909 7.07975 11.4201C7.07975 13.1011 5.82567 14.4708 4.2692 14.4708H4.23362C2.68604 14.4708 1.42307 13.1011 1.42307 11.4201C1.42307 9.73909 2.68604 8.36938 4.23362 8.36938Z" fill="white"/>
<path d="M4.23362 8.36938H4.2692C5.81678 8.36938 7.07975 9.73909 7.07975 11.4201C7.07975 13.1011 5.81678 14.4708 4.2692 14.4708H4.23362C2.68604 14.4708 1.42307 13.1011 1.42307 11.4201C1.42307 9.73909 2.68604 8.36938 4.23362 8.36938Z" stroke="#2D1F04" stroke-width="0.5" stroke-miterlimit="10" stroke-linecap="round" stroke-linejoin="round"/>
<path d="M4.19804 11.3489C4.36997 11.3489 4.50934 11.1498 4.50934 10.9042C4.50934 10.6586 4.36997 10.4595 4.19804 10.4595C4.02612 10.4595 3.88675 10.6586 3.88675 10.9042C3.88675 11.1498 4.02612 11.3489 4.19804 11.3489Z" fill="#2D1F04"/>
<g clip-path="url(#clip1_135_1275)">
<path d="M16.2124 15.0596L16.2124 15.0596L16.3779 15.2251C16.7196 15.0559 17.0768 14.914 17.4474 14.8021C17.5465 14.0604 18.1807 13.4805 18.9513 13.4805H20.0465C20.8171 13.4805 21.4514 14.0604 21.5504 14.8021C21.9211 14.914 22.2782 15.0559 22.62 15.2251L22.7855 15.0596L22.7855 15.0596C23.3778 14.4673 24.3466 14.4675 24.9391 15.0596L24.9392 15.0597C25.1672 15.288 25.4194 15.5402 25.6476 15.7681L25.6478 15.7683C26.2399 16.3607 26.2401 17.3277 25.6477 17.92L25.563 18.0047C25.8217 18.4548 26.0318 18.9355 26.1857 19.4421C26.9351 19.536 27.5174 20.1799 27.5174 20.9531V21.954C27.5174 22.7272 26.9351 23.3711 26.1858 23.465C26.0318 23.9719 25.8219 24.4522 25.563 24.9024L25.6477 24.9871C26.2401 25.5794 26.2399 26.5482 25.6478 27.1407L25.6476 27.1408C25.4194 27.3688 25.1672 27.621 24.9392 27.8492L24.9391 27.8494C24.3466 28.4415 23.3778 28.4417 22.7855 27.8493L22.9622 27.6725L16.2124 15.0596ZM16.2124 15.0596C15.62 14.4673 14.6513 14.4675 14.0588 15.0596L14.0586 15.0597M16.2124 15.0596L14.0586 15.0597M14.0586 15.0597C13.8307 15.288 13.5785 15.5402 13.3502 15.7681L13.3501 15.7683M14.0586 15.0597L13.3501 15.7683M13.3501 15.7683C12.758 16.3607 12.7578 17.3277 13.3501 17.92L13.5269 17.7433L13.3501 15.7683Z" fill="#AABFD0" stroke="black" stroke-width="0.5"/>
<path fill-rule="evenodd" clip-rule="evenodd" d="M18.9513 13.7305C18.2552 13.7305 17.6898 14.299 17.684 14.9939C17.2093 15.124 16.7563 15.3047 16.3296 15.5303C16.2628 15.4636 16.1951 15.3959 16.0354 15.2362C15.5407 14.7415 14.7304 14.7416 14.2355 15.2362C14.0075 15.4644 13.755 15.7169 13.5267 15.9449C13.0321 16.4398 13.0321 17.2487 13.5267 17.7433C13.6499 17.8665 13.6899 17.906 13.749 17.9651C13.7422 17.9761 13.736 17.9873 13.7294 17.9983C13.9657 17.9771 14.2029 17.966 14.4401 17.9651C15.5333 17.9651 16.6157 18.1805 17.6256 18.5988C18.6356 19.0172 19.5532 19.6303 20.3261 20.4033C21.0991 21.1763 21.7122 22.094 22.1305 23.1039C22.5488 24.1139 22.7641 25.1963 22.764 26.2894C22.7627 26.6597 22.7367 27.0294 22.6862 27.3962C22.7529 27.4629 22.8124 27.5224 22.9623 27.6723C23.4569 28.167 24.2672 28.1669 24.7621 27.6723C24.9902 27.444 25.2427 27.192 25.4709 26.964C25.9655 26.4691 25.9656 25.6583 25.4709 25.1636C25.3478 25.0405 25.3078 25.001 25.2487 24.9419C25.5728 24.4128 25.826 23.8389 25.9947 23.2267H25.9967C26.6964 23.2267 27.2674 22.6537 27.2674 21.954V20.953C27.2674 20.2533 26.6964 19.6803 25.9967 19.6803H25.9947C25.826 19.0686 25.5726 18.4938 25.2487 17.9651C25.3078 17.906 25.3478 17.8665 25.4709 17.7433C25.9656 17.2487 25.9655 16.4398 25.4709 15.9449C25.2427 15.7169 24.9902 15.4644 24.7621 15.2362C24.2672 14.7416 23.4569 14.7415 22.9623 15.2362C22.8026 15.3959 22.7349 15.4635 22.6681 15.5303C22.2414 15.3047 21.7883 15.124 21.3136 14.9939C21.3079 14.299 20.7424 13.7305 20.0463 13.7305H18.9513Z" fill="#87A4BA"/>
<path fill-rule="evenodd" clip-rule="evenodd" d="M19.4989 16.0375C16.5968 16.0375 14.2355 18.3988 14.2355 21.3009C14.2355 24.203 16.5968 26.5643 19.4989 26.5643C22.4011 26.5643 24.7624 24.203 24.7624 21.3009C24.7624 18.3988 22.4011 16.0375 19.4989 16.0375Z" fill="#526E82"/>
<path fill-rule="evenodd" clip-rule="evenodd" d="M21.4359 19.6469C21.2906 19.7431 21.2153 19.9196 21.2491 20.0909L21.2472 20.0833C21.34 20.6479 21.1681 21.2234 20.781 21.6448C20.5316 21.9167 20.2213 22.1937 19.9522 22.2757C19.9003 22.2915 19.8551 22.3237 19.8231 22.3674C19.7911 22.4112 19.7742 22.4641 19.7748 22.5183C19.7755 22.5724 19.7936 22.6249 19.8266 22.6679C19.8596 22.7109 19.9056 22.742 19.9577 22.7567C20.8816 23.0189 21.84 23.0286 22.7828 22.5772C22.816 22.5614 22.8453 22.5384 22.8687 22.51C22.892 22.4815 22.9088 22.4482 22.9178 22.4126C22.9683 22.2088 22.9955 21.9965 22.9955 21.778C22.9955 20.9106 22.5744 20.137 21.9262 19.656C21.9232 19.654 21.9201 19.6521 21.9169 19.6503C21.7729 19.5519 21.5819 19.5504 21.4359 19.6465L21.4359 19.6469Z" fill="#BDC3B2"/>
<path fill-rule="evenodd" clip-rule="evenodd" d="M22.9784 22.0771C22.9784 22.0771 21.7011 22.1768 20.633 22.2595C19.5297 22.3457 19.1368 22.0911 18.659 21.5842C18.2076 21.1052 17.9974 20.4473 18.0873 19.7952C18.088 19.7924 18.0887 19.7905 18.0892 19.7876C18.1155 19.541 18.1378 19.3239 18.1558 19.1623C18.1734 19.005 18.1882 18.8903 18.1891 18.883C18.2292 18.677 18.1404 18.4654 17.9653 18.3501L17.9652 18.3501C17.7901 18.235 17.5595 18.2368 17.3862 18.3557L17.3788 18.3614C16.4523 19.0487 15.8506 20.1536 15.8506 21.3937C15.8506 22.8777 16.7442 24.1234 17.9948 24.7386V27.5155C17.9948 27.8035 18.0535 28.2241 18.3112 28.5978C18.5689 28.9715 19.0436 29.2694 19.7487 29.2694C20.4538 29.2694 20.9304 28.9715 21.188 28.5978C21.4457 28.2241 21.5044 27.8035 21.5044 27.5155V24.5961C22.1973 24.1074 22.6828 23.2606 22.916 22.4205L22.9784 22.0771Z" fill="#F5F6E8"/>
<path fill-rule="evenodd" clip-rule="evenodd" d="M19.4993 16.0375C17.7932 16.0375 16.2741 16.8536 15.3116 18.1159C16.1965 17.4412 17.3008 17.0399 18.4968 17.0399C21.3989 17.0399 23.7598 19.4014 23.7598 22.3035C23.7598 23.4995 23.3586 24.6033 22.6839 25.4882C23.9462 24.5258 24.7623 23.0071 24.7623 21.301C24.7623 18.3989 22.4014 16.0375 19.4993 16.0375Z" fill="#3A4D5C"/>
<path fill-rule="evenodd" clip-rule="evenodd" d="M19.7487 23.5044C19.7158 23.5045 19.6832 23.5111 19.6528 23.5238C19.6224 23.5365 19.5949 23.5551 19.5717 23.5785C19.5485 23.6018 19.5301 23.6295 19.5176 23.66C19.5052 23.6905 19.4988 23.7231 19.4989 23.756V24.0058C19.4988 24.0387 19.5052 24.0713 19.5176 24.1018C19.5301 24.1322 19.5485 24.1599 19.5717 24.1833C19.5949 24.2067 19.6225 24.2252 19.6528 24.2379C19.6832 24.2507 19.7158 24.2573 19.7487 24.2574C19.7818 24.2575 19.8145 24.2511 19.8451 24.2385C19.8757 24.2259 19.9035 24.2074 19.9269 24.184C19.9503 24.1606 19.9688 24.1328 19.9814 24.1022C19.994 24.0716 20.0004 24.0388 20.0003 24.0058V23.756C20.0004 23.7229 19.994 23.6902 19.9814 23.6596C19.9688 23.629 19.9503 23.6012 19.9269 23.5778C19.9035 23.5544 19.8757 23.5359 19.8451 23.5233C19.8145 23.5107 19.7818 23.5043 19.7487 23.5044Z" fill="#3A4D5C"/>
<path fill-rule="evenodd" clip-rule="evenodd" d="M20.5016 23.5044C20.4686 23.5043 20.4358 23.5107 20.4052 23.5233C20.3746 23.5359 20.3468 23.5544 20.3234 23.5778C20.3 23.6012 20.2815 23.629 20.2689 23.6596C20.2563 23.6902 20.2499 23.7229 20.25 23.756V24.0058C20.2499 24.0388 20.2563 24.0716 20.2689 24.1022C20.2815 24.1328 20.3 24.1606 20.3234 24.184C20.3468 24.2074 20.3746 24.2259 20.4052 24.2385C20.4358 24.2511 20.4686 24.2575 20.5016 24.2574C20.5346 24.2573 20.5671 24.2507 20.5975 24.2379C20.6279 24.2252 20.6555 24.2067 20.6786 24.1833C20.7018 24.1599 20.7202 24.1322 20.7327 24.1018C20.7452 24.0713 20.7515 24.0387 20.7514 24.0058V23.756C20.7515 23.7231 20.7452 23.6905 20.7327 23.66C20.7202 23.6295 20.7018 23.6018 20.6787 23.5785C20.6555 23.5551 20.6279 23.5365 20.5975 23.5238C20.5671 23.5111 20.5346 23.5045 20.5016 23.5044Z" fill="#3A4D5C"/>
<path fill-rule="evenodd" clip-rule="evenodd" d="M18.9976 23.5044C18.9646 23.5045 18.9321 23.5111 18.9017 23.5238C18.8713 23.5365 18.8437 23.5551 18.8206 23.5785C18.7974 23.6018 18.779 23.6295 18.7665 23.66C18.754 23.6905 18.7477 23.7231 18.7478 23.756V24.0058C18.7477 24.0387 18.754 24.0713 18.7665 24.1018C18.779 24.1322 18.7974 24.1599 18.8206 24.1833C18.8438 24.2067 18.8713 24.2252 18.9017 24.2379C18.9321 24.2507 18.9646 24.2573 18.9976 24.2574C19.0306 24.2575 19.0634 24.2511 19.094 24.2385C19.1246 24.2259 19.1524 24.2074 19.1758 24.184C19.1992 24.1606 19.2177 24.1328 19.2303 24.1022C19.2429 24.0716 19.2493 24.0388 19.2492 24.0058V23.756C19.2493 23.7229 19.2429 23.6902 19.2303 23.6596C19.2177 23.629 19.1992 23.6012 19.1758 23.5778C19.1524 23.5544 19.1246 23.5359 19.094 23.5233C19.0634 23.5107 19.0306 23.5043 18.9976 23.5044Z" fill="#3A4D5C"/>
<path d="M19.7487 26.7623C19.3364 26.7623 18.9976 27.103 18.9976 27.5153C18.9976 27.9276 19.3364 28.2664 19.7487 28.2664C20.161 28.2664 20.5017 27.9276 20.5017 27.5153C20.5017 27.103 20.161 26.7623 19.7487 26.7623Z" fill="#3A4D5C"/>
<path d="M21.0532 24.8626C21.0532 24.8626 21.053 26.17 21.0532 26.5553C21.0533 28.5669 20.0699 28.7517 18.8568 28.7517C18.7 28.7514 18.5436 28.7343 18.3904 28.7008C18.6609 29.0246 19.1099 29.2695 19.7487 29.2695C20.4538 29.2695 20.9301 28.9717 21.1878 28.598C21.4455 28.2242 21.5045 27.8037 21.5045 27.5157V24.5961L21.0532 24.8626Z" fill="#BDC3B2"/>
</g>
</g>
<defs>
<clipPath id="clip0_135_1275">
<rect width="28.2745" height="30" fill="white"/>
</clipPath>
<clipPath id="clip1_135_1275">
<rect width="17" height="17" fill="white" transform="translate(11 13)"/>
</clipPath>
</defs>
</svg>
