<svg width="241" height="147" viewBox="0 0 241 147" fill="none" xmlns="http://www.w3.org/2000/svg">
<g clip-path="url(#clip0_252_342)">
<rect x="1" y="97" width="234" height="50" fill="#FDFDFF"/>
<path d="M19.392 126V114.72H23.2C25.024 114.72 26.432 115.205 27.424 116.176C28.416 117.136 28.912 118.528 28.912 120.352C28.912 122.176 28.416 123.573 27.424 124.544C26.432 125.515 25.024 126 23.2 126H19.392ZM20.704 124.88H23.104C26.048 124.88 27.52 123.371 27.52 120.352C27.52 117.344 26.048 115.84 23.104 115.84H20.704V124.88ZM34.323 126.144C33.5657 126.144 32.9097 125.979 32.355 125.648C31.8003 125.317 31.3683 124.853 31.059 124.256C30.7603 123.648 30.611 122.933 30.611 122.112C30.611 121.291 30.7603 120.581 31.059 119.984C31.3683 119.376 31.8003 118.907 32.355 118.576C32.9097 118.245 33.5657 118.08 34.323 118.08C35.0697 118.08 35.7203 118.245 36.275 118.576C36.8403 118.907 37.2723 119.376 37.571 119.984C37.8803 120.581 38.035 121.291 38.035 122.112C38.035 122.933 37.8803 123.648 37.571 124.256C37.2723 124.853 36.8403 125.317 36.275 125.648C35.7203 125.979 35.0697 126.144 34.323 126.144ZM34.323 125.104C35.0483 125.104 35.6297 124.848 36.067 124.336C36.5043 123.813 36.723 123.072 36.723 122.112C36.723 121.141 36.5043 120.4 36.067 119.888C35.6297 119.376 35.0483 119.12 34.323 119.12C33.587 119.12 33.0003 119.376 32.563 119.888C32.1363 120.4 31.923 121.141 31.923 122.112C31.923 123.072 32.1363 123.813 32.563 124.336C33.0003 124.848 33.587 125.104 34.323 125.104ZM41.9363 126L39.0403 118.224H40.4003L42.5923 124.48L44.8643 118.224H45.9683L48.2083 124.496L50.4323 118.224H51.7283L48.8163 126H47.5843L45.3923 119.968L43.1843 126H41.9363ZM53.3254 126V118.224H54.5894V119.552C54.8454 119.061 55.208 118.693 55.6774 118.448C56.1467 118.203 56.6747 118.08 57.2614 118.08C59.1067 118.08 60.0294 119.104 60.0294 121.152V126H58.7334V121.232C58.7334 120.507 58.5894 119.979 58.3014 119.648C58.024 119.307 57.576 119.136 56.9574 119.136C56.2427 119.136 55.672 119.36 55.2454 119.808C54.8294 120.245 54.6214 120.832 54.6214 121.568V126H53.3254ZM64.8031 126.144C64.0138 126.144 63.4165 125.915 63.0111 125.456C62.6165 124.987 62.4191 124.309 62.4191 123.424V114.72H63.7151V123.328C63.7151 124.469 64.1685 125.04 65.0751 125.04C65.3418 125.04 65.5818 125.008 65.7951 124.944L65.7631 126.032C65.4325 126.107 65.1125 126.144 64.8031 126.144ZM70.3074 126.144C69.55 126.144 68.894 125.979 68.3394 125.648C67.7847 125.317 67.3527 124.853 67.0434 124.256C66.7447 123.648 66.5954 122.933 66.5954 122.112C66.5954 121.291 66.7447 120.581 67.0434 119.984C67.3527 119.376 67.7847 118.907 68.3394 118.576C68.894 118.245 69.55 118.08 70.3074 118.08C71.054 118.08 71.7047 118.245 72.2594 118.576C72.8247 118.907 73.2567 119.376 73.5554 119.984C73.8647 120.581 74.0194 121.291 74.0194 122.112C74.0194 122.933 73.8647 123.648 73.5554 124.256C73.2567 124.853 72.8247 125.317 72.2594 125.648C71.7047 125.979 71.054 126.144 70.3074 126.144ZM70.3074 125.104C71.0327 125.104 71.614 124.848 72.0514 124.336C72.4887 123.813 72.7074 123.072 72.7074 122.112C72.7074 121.141 72.4887 120.4 72.0514 119.888C71.614 119.376 71.0327 119.12 70.3074 119.12C69.5714 119.12 68.9847 119.376 68.5474 119.888C68.1207 120.4 67.9074 121.141 67.9074 122.112C67.9074 123.072 68.1207 123.813 68.5474 124.336C68.9847 124.848 69.5714 125.104 70.3074 125.104ZM78.414 126.144C77.8807 126.144 77.4007 126.043 76.974 125.84C76.558 125.627 76.2273 125.339 75.982 124.976C75.7367 124.613 75.614 124.208 75.614 123.76C75.614 123.195 75.758 122.747 76.046 122.416C76.3447 122.085 76.83 121.851 77.502 121.712C78.1847 121.563 79.1127 121.488 80.286 121.488H80.798V120.992C80.798 120.331 80.6593 119.856 80.382 119.568C80.1153 119.269 79.6833 119.12 79.086 119.12C78.6167 119.12 78.1633 119.189 77.726 119.328C77.2887 119.456 76.8407 119.669 76.382 119.968L75.934 119.024C76.3393 118.736 76.83 118.507 77.406 118.336C77.9927 118.165 78.5527 118.08 79.086 118.08C80.0887 118.08 80.83 118.325 81.31 118.816C81.8007 119.307 82.046 120.069 82.046 121.104V126H80.83V124.656C80.6273 125.115 80.3127 125.477 79.886 125.744C79.47 126.011 78.9793 126.144 78.414 126.144ZM78.622 125.168C79.262 125.168 79.7847 124.949 80.19 124.512C80.5953 124.064 80.798 123.499 80.798 122.816V122.336H80.302C79.438 122.336 78.7553 122.379 78.254 122.464C77.7633 122.539 77.4167 122.677 77.214 122.88C77.022 123.072 76.926 123.339 76.926 123.68C76.926 124.117 77.0753 124.475 77.374 124.752C77.6833 125.029 78.0993 125.168 78.622 125.168ZM87.4104 126.144C86.717 126.144 86.109 125.979 85.5864 125.648C85.0744 125.317 84.6744 124.853 84.3864 124.256C84.109 123.648 83.9704 122.933 83.9704 122.112C83.9704 121.28 84.109 120.565 84.3864 119.968C84.6744 119.36 85.0744 118.896 85.5864 118.576C86.109 118.245 86.717 118.08 87.4104 118.08C88.0184 118.08 88.5517 118.213 89.0104 118.48C89.4797 118.747 89.8264 119.115 90.0504 119.584V114.72H91.3464V126H90.0824V124.576C89.8584 125.067 89.5117 125.451 89.0424 125.728C88.573 126.005 88.029 126.144 87.4104 126.144ZM87.6824 125.104C88.4077 125.104 88.989 124.848 89.4264 124.336C89.8637 123.813 90.0824 123.072 90.0824 122.112C90.0824 121.141 89.8637 120.4 89.4264 119.888C88.989 119.376 88.4077 119.12 87.6824 119.12C86.9464 119.12 86.3597 119.376 85.9224 119.888C85.4957 120.4 85.2824 121.141 85.2824 122.112C85.2824 123.072 85.4957 123.813 85.9224 124.336C86.3597 124.848 86.9464 125.104 87.6824 125.104Z" fill="#303032"/>
<path d="M147.663 23.406C147.663 23.406 140.942 30.2267 141.351 41.9492C141.829 55.5906 145.657 60.3378 149.713 67.545C152.051 71.7057 153.401 76.3119 153.319 79.4085C153.206 83.5737 150.314 93.0772 160.226 94.5777C170.139 96.0783 203.179 94.123 211.436 89.4713C219.694 84.8196 225.255 77.8216 225.255 77.8216C225.255 77.8216 222.549 42.8405 210.836 26.921C199.736 11.8381 188.141 10.2148 178.192 7.58658C173.518 6.62713 170.512 4.80828 169.707 2.9485C168.375 6.1315 168.73 5.27664 168.798 6.58621C165.615 6.41797 159.458 3.31682 158.08 2.00725C157.939 1.98552 157.795 2.01297 157.671 2.08499C157.548 2.15701 157.453 2.26923 157.403 2.40285C157.166 3.5942 157.125 3.31227 160.063 9.81467C160.063 9.81467 159.535 8.60968 150.027 9.31449C149.827 9.31449 149.704 9.86924 149.873 9.97837C150.928 10.7014 155.988 12.2201 155.02 13.8571C155.02 13.8571 150.85 12.5975 144.357 15.8942C144.323 15.913 144.295 15.942 144.278 15.9771C144.26 16.0123 144.254 16.0519 144.26 16.0906C144.266 16.1293 144.284 16.1653 144.311 16.1936C144.338 16.2219 144.373 16.2412 144.411 16.2489C146.158 16.4762 151.064 16.7581 150.377 17.9131C150.377 17.9131 147.608 18.9317 140.987 23.6061C140.565 23.9062 141.119 24.6383 141.297 24.5747C147.699 22.2238 147.663 23.406 147.663 23.406Z" fill="#CAA77A"/>
<g style="mix-blend-mode:multiply" opacity="0.23">
<path d="M147.744 23.0559C147.854 23.1832 147.976 23.3332 147.881 23.4742C146.758 25.1521 145.153 26.057 143.229 31.1634C142.511 33.0823 150.855 15.785 173.886 15.785C206.625 15.785 206.962 31.6363 210.718 44.1C214.724 57.3821 212.955 79.5221 212.418 87.9207C212.25 90.6126 216.347 86.4247 218.193 84.9378C220.905 82.772 223.399 80.3475 225.641 77.6987C225.661 77.6751 225.676 77.6475 225.685 77.6177C225.694 77.5879 225.696 77.5566 225.691 77.5259C225.528 75.4843 222.636 42.1493 211.286 26.7208C201.482 13.3977 185.613 10.4012 176.596 7.25912C175.233 7.11644 173.92 6.66927 172.754 5.95066C171.587 5.23206 170.597 4.26041 169.857 3.10759C168.911 3.6396 169.539 5.945 168.693 6.88171C161.672 5.83132 158.921 2.36186 157.562 2.18907C157.08 2.12541 158.667 8.55505 160.34 10.1693C160.324 10.2006 160.302 10.2285 160.275 10.2511C160.249 10.2737 160.217 10.2906 160.184 10.3008C160.15 10.311 160.115 10.3143 160.08 10.3105C160.045 10.3066 160.011 10.2957 159.981 10.2784C159.212 9.8237 157.939 9.05069 150.432 9.32351C150.337 9.32446 150.244 9.35517 150.168 9.41132C150.091 9.46747 150.034 9.54625 150.004 9.63658C149.975 9.7269 149.974 9.82423 150.003 9.91489C150.031 10.0055 150.087 10.085 150.164 10.142C151.218 10.9423 155.056 12.0382 155.238 14.3708C154.383 14.3345 149.832 13.2113 144.38 15.7986C144.302 15.8444 144.24 15.9121 144.201 15.9932C144.162 16.0743 144.148 16.1651 144.16 16.2542C144.173 16.3433 144.212 16.4267 144.272 16.4937C144.332 16.5607 144.411 16.6084 144.498 16.6308C146.562 16.9718 152.533 16.5262 150.696 18.2586C150.696 18.2586 147.031 19.1135 141.147 24.0017C140.883 24.2245 141.115 24.6928 141.442 24.57C145.43 23.0149 147.199 22.4283 147.744 23.0559Z" fill="#3F2719"/>
</g>
<path d="M146.157 34.5011C147.744 30.7679 151.918 26.3162 155.683 25.4068C160.117 24.3382 160.935 25.1567 165.232 24.9521C166.023 24.9112 168.415 24.2973 168.897 23.3879C169.379 22.4784 169.006 21.1598 169.025 21.1643C169.702 21.419 171.753 22.6149 172.585 22.9241C175.804 24.1336 176.555 24.2882 179.46 23.156C189.164 19.3273 197.471 25.575 200.759 29.9403C202.51 32.2639 206.729 38.8572 206.87 45.9962C207.011 53.3853 208.403 56.9548 199.904 64.6167C189.809 73.711 165.378 78.4764 151.705 65.0305C145.188 58.6008 143.542 40.667 146.157 34.5011Z" fill="#FFDBAF"/>
<path d="M147.885 23.2514C147.885 23.2514 141.451 30.4995 141.114 41.0398C140.659 55.727 145.661 60.3378 149.713 67.545C152.05 71.7056 153.401 76.3119 153.319 79.4085C153.205 83.5737 150.313 93.0771 160.226 94.5777C170.139 96.0783 203.178 94.123 211.436 89.4713C219.693 84.8196 225.254 77.8215 225.254 77.8215C225.254 77.8215 223.435 41.8992 210.703 25.957C199.454 11.829 190.373 11.6426 174.154 6.59072C170.516 5.45848 170.061 3.64418 169.725 3.11671C168.965 4.02614 168.688 5.75859 169.029 6.5407C168.861 6.57253 163.973 7.41829 158.08 2.19364C156.802 1.85261 157.798 6.90902 160.13 10.1784C160.13 10.1784 159.521 8.98706 150.036 9.45087C149.992 9.45192 149.949 9.46707 149.915 9.49406C149.88 9.52106 149.855 9.55847 149.843 9.60078C149.832 9.64309 149.834 9.68805 149.85 9.72901C149.865 9.76998 149.894 9.80478 149.931 9.82827C150.995 10.524 156.042 12.6884 155.088 14.3299C155.088 14.3299 150.768 12.6111 144.274 15.9078C144.237 15.9249 144.207 15.9538 144.188 15.9899C144.169 16.026 144.162 16.0674 144.169 16.1077C144.175 16.148 144.195 16.1849 144.225 16.2129C144.255 16.2409 144.293 16.2583 144.334 16.2625C146.08 16.4898 151.823 16.8354 150.395 18.1859C150.395 18.1859 147.253 18.9816 140.991 23.8562C140.755 24.0426 140.96 24.4609 141.237 24.3427C146.725 22.0055 147.885 23.2514 147.885 23.2514Z" stroke="#2D1F04" stroke-width="1.212" stroke-linecap="round" stroke-linejoin="round"/>
<path d="M171.294 48.6927C167.724 47.0512 163.659 53.5536 163.504 58.1462C163.159 67.5497 177.046 69.846 184.835 65.1488C192.952 60.2515 183.157 45.8553 176.955 48.138" fill="#9D7B51"/>
<path d="M145.771 37.9341C142.102 44.2273 145.435 55.8452 147.899 60.3514C148.089 60.7021 148.392 60.979 148.757 61.138C149.123 61.2971 149.532 61.3291 149.918 61.229C152.511 60.5713 154.988 59.5192 157.262 58.1097C172.267 48.7881 164.851 29.1308 163.987 28.0986C162.8 26.5117 159.781 30.6814 155.061 34.4919C153.629 35.6287 147.685 37.4748 145.771 37.9341Z" fill="#9D7B51"/>
<path d="M179.806 29.3311C179.938 60.87 204.588 59.7696 206.275 55.7044C207.357 53.108 209.353 43.6545 205.797 36.0199C202.982 29.5766 197.23 35.4106 192.761 33.5917C188.063 31.7001 179.778 23.0288 179.806 29.3311Z" fill="#9D7B51"/>
<path opacity="0.83" d="M191.742 37.1657H191.806C194.925 36.7109 197.899 39.2119 198.44 42.795C198.981 46.3781 196.894 49.6657 193.775 50.1386H193.711C190.592 50.5933 187.618 48.0924 187.077 44.5093C186.535 40.9261 188.623 37.6386 191.742 37.1657Z" fill="#B2B2B2"/>
<path opacity="0.83" d="M155.983 37.8887H156.052C159.489 37.8887 162.281 41.0717 162.281 45.0368C162.281 49.0019 159.489 52.1849 156.052 52.1849H155.983C152.541 52.1849 149.754 49.0019 149.754 45.0368C149.754 41.0717 152.541 37.8887 155.983 37.8887Z" fill="#B2B2B2"/>
<path d="M168.379 49.4338C168.315 48.2015 170.739 47.0784 173.79 46.9283C176.841 46.7783 179.365 47.6559 179.429 48.8927C179.492 50.1295 177.064 51.2526 174.013 51.3982C170.962 51.5437 168.438 50.6706 168.379 49.4338Z" fill="#251707"/>
<path d="M156.015 38.0978C157.468 38.0929 158.863 38.665 159.894 39.6881C160.924 40.7113 161.507 42.1019 161.513 43.5543V43.909C161.472 45.3391 160.875 46.6968 159.849 47.6937C158.823 48.6907 157.448 49.2484 156.018 49.2484C154.587 49.2484 153.213 48.6907 152.187 47.6937C151.161 46.6968 150.564 45.3391 150.522 43.909V43.5543C150.522 42.8347 150.665 42.1222 150.941 41.4578C151.218 40.7934 151.623 40.1902 152.133 39.683C152.644 39.1759 153.25 38.7747 153.916 38.5026C154.582 38.2306 155.296 38.093 156.015 38.0978Z" fill="white"/>
<path d="M192.483 36.038C193.203 36.0326 193.917 36.1697 194.584 36.4415C195.251 36.7133 195.857 37.1144 196.368 37.6216C196.879 38.1289 197.285 38.7322 197.561 39.3969C197.838 40.0616 197.981 40.7745 197.981 41.4946V41.8538C197.94 43.2838 197.343 44.6415 196.316 45.6385C195.29 46.6355 193.916 47.1932 192.485 47.1932C191.055 47.1932 189.681 46.6355 188.654 45.6385C187.628 44.6415 187.031 43.2838 186.99 41.8538V41.4946C186.99 40.7749 187.133 40.0624 187.409 39.398C187.686 38.7336 188.091 38.1304 188.601 37.6233C189.112 37.1161 189.718 36.7149 190.384 36.4429C191.05 36.1708 191.764 36.0332 192.483 36.038Z" fill="white"/>
<path d="M190.551 43.0634C190.557 42.8014 190.64 42.547 190.791 42.3321C190.941 42.1172 191.151 41.9514 191.395 41.8554C191.639 41.7595 191.906 41.7376 192.162 41.7925C192.418 41.8475 192.653 41.9768 192.836 42.1644C193.019 42.3519 193.143 42.5893 193.192 42.8468C193.241 43.1043 193.212 43.3706 193.111 43.6122C193.009 43.8538 192.838 44.06 192.62 44.205C192.402 44.3501 192.145 44.4275 191.883 44.4276C191.527 44.4192 191.188 44.2719 190.939 44.0169C190.69 43.762 190.551 43.4198 190.551 43.0634Z" fill="#2D1F04"/>
<path d="M154.082 45.0369C154.094 44.7762 154.182 44.5247 154.335 44.3135C154.488 44.1023 154.7 43.9408 154.944 43.8489C155.189 43.7571 155.454 43.739 155.709 43.7969C155.963 43.8548 156.195 43.9861 156.376 44.1746C156.556 44.363 156.677 44.6003 156.724 44.857C156.771 45.1137 156.741 45.3785 156.639 45.6186C156.537 45.8586 156.366 46.0633 156.148 46.2072C155.931 46.3512 155.676 46.428 155.415 46.4283C155.054 46.4199 154.711 46.2688 154.461 46.008C154.211 45.7471 154.075 45.3979 154.082 45.0369Z" fill="#2D1F04"/>
<path d="M192.483 36.038C193.203 36.0326 193.917 36.1697 194.584 36.4415C195.251 36.7133 195.857 37.1144 196.368 37.6216C196.879 38.1289 197.285 38.7322 197.561 39.3969C197.838 40.0616 197.981 40.7745 197.981 41.4946V41.8538C197.94 43.2838 197.343 44.6415 196.316 45.6385C195.29 46.6355 193.916 47.1932 192.485 47.1932C191.055 47.1932 189.681 46.6355 188.654 45.6385C187.628 44.6415 187.031 43.2838 186.99 41.8538V41.4946C186.99 40.7749 187.133 40.0624 187.409 39.398C187.686 38.7336 188.091 38.1304 188.601 37.6233C189.112 37.1161 189.718 36.7149 190.384 36.4429C191.05 36.1708 191.764 36.0332 192.483 36.038Z" stroke="#2D1F04" stroke-width="1.20275" stroke-linecap="round" stroke-linejoin="round"/>
<path d="M156.015 38.0978C157.468 38.0929 158.863 38.665 159.894 39.6881C160.924 40.7113 161.507 42.1019 161.513 43.5543V43.909C161.472 45.3391 160.875 46.6968 159.849 47.6937C158.823 48.6907 157.448 49.2484 156.018 49.2484C154.587 49.2484 153.213 48.6907 152.187 47.6937C151.161 46.6968 150.564 45.3391 150.522 43.909V43.5543C150.522 42.8347 150.665 42.1222 150.941 41.4578C151.218 40.7934 151.623 40.1902 152.133 39.683C152.644 39.1759 153.25 38.7747 153.916 38.5026C154.582 38.2306 155.296 38.093 156.015 38.0978Z" stroke="#2D1F04" stroke-width="1.20275" stroke-linecap="round" stroke-linejoin="round"/>
<path d="M144.666 38.8937C156.802 37.6205 163.496 27.2439 163.496 27.2439" stroke="#2D1F04" stroke-width="3.51574" stroke-linecap="round" stroke-linejoin="round"/>
<path d="M204.084 33.8144C189.31 35.3877 179.261 25.2431 180.243 26.3526" stroke="#2D1F04" stroke-width="3.51574" stroke-linecap="round" stroke-linejoin="round"/>
<path d="M167.338 52.917C167.338 52.917 173.745 58.8828 182.171 51.4846" stroke="#251707" stroke-width="1.38779" stroke-miterlimit="10" stroke-linecap="round"/>
<path d="M201.069 44.1138C200.951 43.9683 200.746 44.0865 200.773 44.2866C200.972 45.9545 200.83 47.6454 200.355 49.2566C200.032 50.3706 199.132 53.1444 201.287 53.6719C204.284 54.4085 204.902 51.0936 204.306 49.0792C203.529 46.4692 201.824 45.0414 201.069 44.1138Z" fill="#91D6E2"/>
<path d="M143.197 102.949C143.197 102.949 144.661 107.269 138.804 111.902C135.189 114.762 127.559 118.723 122.825 108.747C117.683 111.848 112.976 107.801 112.976 107.801C112.976 107.801 108.047 107.255 106.76 107.255C98.8029 114.162 100.604 126.235 104.864 132.046C118.474 136.466 136.121 136.616 137.249 134.288C137.035 119.382 149.635 104.854 149.635 104.854L143.197 102.949Z" fill="#CAA77A"/>
<path d="M134.843 149.443C147.157 153.181 155.928 157.387 184.348 158.183C213.681 159.011 232.479 155.027 240.205 146.933C243.17 140.363 235.735 105.468 234.807 103.59C235.496 103.346 236.127 102.964 236.663 102.467C236.972 83.8829 231.256 70.7963 219.083 68.9001C209.703 69.2594 206.019 74.4113 202.141 79.6587C190.486 88.8848 155.019 85.6654 152.686 79.063C152.686 78.6083 152.604 77.6989 152.568 77.1941C141.682 79.9224 141.05 100.034 141.578 101.999C142.692 103.522 146.884 104.19 146.884 104.19C146.884 104.19 148.357 104.677 146.857 106.682C136.376 120.697 133.543 127.936 134.843 149.443Z" fill="#FFDB1F"/>
<path d="M240.274 146.47C241.956 129.009 235.235 105.696 234.999 104.85" stroke="#2D1F04" stroke-width="1.212" stroke-linecap="round" stroke-linejoin="round"/>
<g style="mix-blend-mode:multiply" opacity="0.23">
<path d="M147.003 106.278C147.003 106.278 149.977 112.821 162.358 112.798C168.27 112.798 168.988 112.894 173.885 112.544C178.323 112.225 178.055 114.763 175.018 115.04C168.652 115.622 165.332 114.626 165.332 114.626C165.332 114.626 154.642 112.925 149.635 113.571C144.797 114.19 142.001 116.113 138.6 119.61C140.014 115.576 147.003 106.278 147.003 106.278Z" fill="#3F2719"/>
</g>
<g style="mix-blend-mode:multiply" opacity="0.23">
<path d="M235.149 104.622C235.149 104.622 241.997 125.012 240.265 146.856C238.446 148.793 234.808 151.403 232.489 152.103C233.881 146.915 231.034 124.389 231.034 124.389L235.149 104.622Z" fill="#3F2719"/>
</g>
<path d="M157.007 101.28C160.645 101.476 163.96 101.585 167.174 101.817C169.816 102.003 170.507 103.718 170.335 105.314C170.103 107.51 168.689 108.979 166.242 109.697C166.115 109.738 165.983 109.761 165.719 109.82C168.197 111.266 168.166 114.058 169.716 116.64L164.214 116.431C163.373 114.857 162.625 113.236 161.972 111.575C161.631 110.716 161.149 110.074 159.722 110.279C159.213 112.237 158.998 114.26 159.085 116.281C157.38 116.222 155.825 116.168 154.147 116.118C153.851 111.093 155.998 106.118 157.007 101.28ZM161.327 104.522C161.081 105.5 160.827 106.396 160.517 107.478C161.6 107.478 162.632 107.478 163.673 107.401C164.061 107.394 164.436 107.264 164.744 107.029C165.053 106.795 165.278 106.467 165.387 106.096C165.601 105.35 165.246 104.732 164.323 104.636C163.4 104.541 162.386 104.559 161.327 104.527V104.522Z" fill="#2D1F04"/>
<path d="M184.922 106.346C183.285 106.387 181.807 106.423 180.27 106.469C180.243 105.227 179.565 104.541 178.283 104.477C177.885 104.414 177.477 104.48 177.118 104.664C176.759 104.847 176.468 105.14 176.287 105.5C176.196 106.214 176.673 106.469 177.26 106.637C178.328 106.941 179.433 107.219 180.525 107.546C181.132 107.732 181.724 107.961 182.298 108.233C185.936 109.924 185.003 114.121 181.98 116.013C180.966 116.633 179.836 117.04 178.66 117.209C176.881 117.477 175.063 117.338 173.345 116.804C172.256 116.505 171.318 115.813 170.712 114.86C170.106 113.908 169.876 112.765 170.066 111.652L174.536 111.57C174.586 111.866 174.622 112.139 174.686 112.403C175.036 113.835 176.559 114.59 178.146 114.076C178.479 113.999 178.783 113.831 179.024 113.59C179.265 113.348 179.434 113.044 179.511 112.712C179.561 112.426 179.507 112.131 179.36 111.881C179.212 111.631 178.98 111.442 178.706 111.348C178.21 111.125 177.673 110.97 177.155 110.797C176.077 110.438 174.968 110.161 173.972 109.72C172.058 108.869 171.348 107.446 171.789 105.827C172.071 104.866 172.611 104.001 173.351 103.326C174.092 102.652 175.003 102.194 175.986 102.003C177.999 101.494 180.115 101.565 182.089 102.208C184.167 102.876 185.031 104.168 184.922 106.346Z" fill="#2D1F04"/>
<path d="M204.678 105.068C211.285 133.119 202.05 139.74 187.372 137.352C176.677 135.611 177.368 118.423 177.368 118.423C172.784 123.16 170.058 129.388 169.688 135.97C169.688 135.97 167.547 137.066 163.777 133.501C159.371 140.708 165.382 149.703 169.134 152.249C180.197 159.756 200.14 159.834 217.674 152.103C234.921 144.505 238.891 130.773 237.923 98.6155" fill="#CAA77A"/>
<path d="M120.507 90.4944C120.507 90.4944 121.193 107.469 122.844 108.747C124.495 110.024 113.254 111.889 112.768 107.082C112.918 100.848 120.507 90.4944 120.507 90.4944Z" fill="#B6B1AE"/>
<path d="M177.601 118.423C177.601 118.423 176.932 129.563 182.652 135.061C184.162 136.507 170.653 139.699 170.166 134.893C171.567 124.534 177.601 118.423 177.601 118.423Z" fill="#B6B1AE"/>
<path d="M128.473 122.206C125.986 125.739 112.768 131.187 108.211 131.66C106.393 129.309 103.946 116.731 110.403 110.993C113.518 115.076 123.317 120.333 128.473 122.206Z" fill="#B6B1AE"/>
<path d="M163.481 133.733C166.423 131.555 169.202 133.128 169.761 132.796C169.975 134.724 169.829 135.743 169.452 136.711C167.624 136.711 166.123 135.902 163.481 133.733Z" fill="#B6B1AE"/>
<path d="M202.828 79.0176C202.828 79.0176 195.921 84.9288 181.202 85.5245C166.483 86.1202 154.269 81.8232 152.969 79.7178C151.668 77.6125 149.713 86.2157 153.169 87.8299C156.465 89.3714 166.874 93.6503 182.225 91.5995" stroke="#2D1F04" stroke-width="1.212" stroke-linecap="round" stroke-linejoin="round"/>
<path d="M153.142 76.9941C142.169 78.9039 141.415 97.6563 141.651 102.39C141.678 102.867 142.956 103.54 142.956 103.54C142.956 103.54 144.32 107.569 138.072 112.525C131.825 117.482 124.431 113.803 123.067 109.447C121.703 105.091 119.311 94.3551 120.661 91.0493C122.012 87.7435 112.477 98.3247 113.004 107.801L106.702 106.669C106.702 106.669 95.1884 117.418 104.883 132.06C104.883 132.06 115.951 137.58 134.567 135.102" stroke="#2D1F04" stroke-width="1.212" stroke-linecap="round" stroke-linejoin="round"/>
<path d="M134.762 149.021C132.443 138.958 135.672 118.837 146.857 106.669C147.458 93.0772 153.142 87.6934 153.142 87.6934" stroke="#2D1F04" stroke-width="1.212" stroke-linecap="round" stroke-linejoin="round"/>
<path d="M106.76 107.255C106.76 107.255 120.352 121.147 127.486 121.447C134.621 121.747 108.302 133.556 104.864 132.046" stroke="#2D1F04" stroke-width="1.212" stroke-linecap="round" stroke-linejoin="round"/>
<path d="M109.84 110.993C109.84 110.993 102.933 121.083 108.294 131.832" stroke="#2D1F04" stroke-width="1.212" stroke-linecap="round" stroke-linejoin="round"/>
<path d="M106.692 120.56C107.738 121.16 116.787 125.739 128.705 122.138" stroke="#2D1F04" stroke-width="1.212" stroke-linecap="round" stroke-linejoin="round"/>
<path d="M112.977 107.255C112.977 107.255 112.977 112.034 123.058 109.433" stroke="#2D1F04" stroke-width="1.212" stroke-linecap="round" stroke-linejoin="round"/>
<path d="M205.224 108.128C209.535 128.363 205.729 137.266 192.701 137.544C175.504 137.907 177.696 118.523 177.696 118.523C173.06 123.192 170.298 129.4 169.934 135.97C169.934 135.97 167.569 137.007 163.818 133.442C162.849 135.561 160.635 141.195 166.019 148.793C173.117 158.797 198.426 160.347 214.305 153.795C237.04 144.392 238.859 125.871 238.191 101.958" stroke="#2D1F04" stroke-width="1.212" stroke-linecap="round" stroke-linejoin="round"/>
<path d="M164.219 133.124C164.219 133.124 166.424 131.505 169.739 132.519" stroke="#2D1F04" stroke-width="1.212" stroke-linecap="round" stroke-linejoin="round"/>
<path d="M170.211 136.175C170.361 136.175 176.077 140.131 182.77 135.238" stroke="#2D1F04" stroke-width="1.212" stroke-linecap="round" stroke-linejoin="round"/>
<path d="M220.266 102.594C224.618 101.608 227.251 101.271 238.096 101.685C243.27 100.562 239.064 69.7231 219.143 68.8137C204.674 70.7235 200.955 81.8913 200.777 88.4573C200.659 92.7998 203.365 107.505 203.365 107.505C203.365 107.505 203.778 109.147 205.802 107.992C210.949 105.073 216.501 103.454 220.266 102.594Z" fill="#FFDB1F"/>
<path d="M238.178 101.922C238.178 101.922 239.828 101.117 239.878 100.235C240.138 95.7374 240.183 81.3821 231.08 73.5383C217.979 62.2433 204.775 73.6611 201.873 81.4231C199.263 88.3893 203.024 105.928 203.238 107.128C203.451 108.328 205.238 108.128 205.238 108.128" stroke="#2D1F04" stroke-width="1.212" stroke-linecap="round" stroke-linejoin="round"/>
<path d="M208.317 101.107C208.13 101.216 219.83 94.5322 239.942 96.2328" stroke="#2D1F04" stroke-width="1.212" stroke-linecap="round" stroke-linejoin="round"/>
<path d="M155.302 81.3364C154.974 82.5052 154.974 83.7417 155.302 84.9105" stroke="#2D1F04" stroke-width="1.212" stroke-linecap="round" stroke-linejoin="round"/>
<path d="M157.87 82.5051C157.87 82.5051 157.415 84.7787 158.17 86.6567" stroke="#2D1F04" stroke-width="1.212" stroke-linecap="round" stroke-linejoin="round"/>
<path d="M179.196 85.8835C179.088 86.5011 179.176 87.1369 179.446 87.7024" stroke="#2D1F04" stroke-width="1.212" stroke-linecap="round" stroke-linejoin="round"/>
<path d="M181.502 85.8835C181.502 86.7583 181.671 87.6247 182.002 88.4345" stroke="#2D1F04" stroke-width="1.212" stroke-linecap="round" stroke-linejoin="round"/>
<path d="M169.083 85.156C169.038 86.0069 169.105 86.8601 169.283 87.6933" stroke="#2D1F04" stroke-width="1.212" stroke-linecap="round" stroke-linejoin="round"/>
<g style="mix-blend-mode:multiply" opacity="0.23">
<path d="M219.134 68.8228C227.773 72.2013 230.006 80.6453 231.02 83.7646C232.675 88.8028 235.653 100.612 232.648 119.05C229.642 137.489 220.743 151.944 200.286 153.75C190.073 154.659 168.647 153.622 162.931 135.793C160.562 146.015 170.32 156.064 181.311 156.878C194.929 157.887 196.553 159.561 214.277 153.777C242.442 139.362 237.049 125.184 237.923 101.676C243.043 100.475 238.868 69.9323 219.134 68.8228Z" fill="#3F2719"/>
</g>
<g style="mix-blend-mode:multiply" opacity="0.23">
<path d="M114.55 129.777C114.55 129.777 128.192 131.237 135.408 130C134.917 131.819 134.499 133.638 134.681 135.002C122.299 137.553 105.829 132.428 105.829 132.428L114.55 129.777Z" fill="#3F2719"/>
</g>
<path d="M172.727 50.3296L173.436 54.8676" stroke="#251707" stroke-width="1.38779" stroke-miterlimit="10" stroke-linecap="round"/>
<path d="M217.61 98.1199C217.61 98.1199 218.561 98.4427 218.342 100.948" stroke="#2D1F04" stroke-width="1.212" stroke-linecap="round" stroke-linejoin="round"/>
<path d="M219.743 97.6333C219.743 97.6333 220.694 97.9516 220.471 100.457" stroke="#2D1F04" stroke-width="1.212" stroke-linecap="round" stroke-linejoin="round"/>
<path d="M228.128 96.2192C228.128 96.2192 229.078 96.5421 228.855 99.043" stroke="#2D1F04" stroke-width="1.212" stroke-linecap="round" stroke-linejoin="round"/>
<g style="mix-blend-mode:multiply" opacity="0.23">
<path d="M223.549 114.04V119.073" stroke="#3F2719" stroke-width="1.85039" stroke-miterlimit="10" stroke-linecap="round"/>
</g>
<g style="mix-blend-mode:multiply" opacity="0.23">
<path d="M226.955 115.54L226.601 120.56" stroke="#3F2719" stroke-width="1.85039" stroke-miterlimit="10" stroke-linecap="round"/>
</g>
<g style="mix-blend-mode:multiply" opacity="0.23">
<path d="M158.839 74.3794L159.748 78.4718" stroke="#3F2719" stroke-width="1.85039" stroke-miterlimit="10" stroke-linecap="round"/>
</g>
<g style="mix-blend-mode:multiply" opacity="0.23">
<path d="M162.372 75.4116L163.3 79.5813" stroke="#3F2719" stroke-width="1.85039" stroke-miterlimit="10" stroke-linecap="round"/>
</g>
<g style="mix-blend-mode:multiply" opacity="0.23">
<path d="M166.005 76.4028L166.928 80.5362" stroke="#3F2719" stroke-width="1.85039" stroke-miterlimit="10" stroke-linecap="round"/>
</g>
</g>
<defs>
<clipPath id="clip0_252_342">
<rect width="240" height="146.364" fill="white" transform="translate(0.838867 0.0493164)"/>
</clipPath>
</defs>
</svg>
