<svg width="240" height="147" viewBox="0 0 240 147" fill="none" xmlns="http://www.w3.org/2000/svg">
<g clip-path="url(#clip0_252_1037)">
<rect y="97" width="230" height="50" fill="#303032"/>
<path d="M23.4331 126.095C22.3238 126.095 21.3745 125.86 20.5851 125.391C19.7958 124.921 19.1878 124.255 18.7611 123.391C18.3451 122.527 18.1371 121.497 18.1371 120.303C18.1371 119.119 18.3451 118.095 18.7611 117.231C19.1878 116.367 19.7958 115.7 20.5851 115.231C21.3745 114.761 22.3238 114.527 23.4331 114.527C24.2118 114.527 24.9265 114.649 25.5771 114.895C26.2385 115.14 26.7985 115.497 27.2571 115.967L26.7451 117.039C26.2545 116.58 25.7425 116.249 25.2091 116.047C24.6865 115.833 24.1051 115.727 23.4651 115.727C22.1958 115.727 21.2251 116.127 20.5531 116.927C19.8811 117.727 19.5451 118.852 19.5451 120.303C19.5451 121.764 19.8811 122.895 20.5531 123.695C21.2251 124.495 22.1958 124.895 23.4651 124.895C24.1051 124.895 24.6865 124.793 25.2091 124.591C25.7425 124.377 26.2545 124.041 26.7451 123.583L27.2571 124.655C26.7985 125.113 26.2385 125.471 25.5771 125.727C24.9265 125.972 24.2118 126.095 23.4331 126.095ZM29.2068 125.951V118.175H30.5028V121.423H31.9588L34.5028 118.175H35.9268L33.2228 121.679C33.5001 121.785 33.7508 121.961 33.9748 122.207C34.1988 122.452 34.4494 122.804 34.7268 123.263L36.3268 125.951H34.9348L33.5268 123.599C33.2601 123.14 33.0041 122.836 32.7588 122.687C32.5134 122.537 32.1668 122.463 31.7188 122.463H30.5028V125.951H29.2068ZM40.0926 126.095C39.5593 126.095 39.0793 125.993 38.6526 125.791C38.2366 125.577 37.906 125.289 37.6606 124.927C37.4153 124.564 37.2926 124.159 37.2926 123.711C37.2926 123.145 37.4366 122.697 37.7246 122.367C38.0233 122.036 38.5086 121.801 39.1806 121.663C39.8633 121.513 40.7913 121.439 41.9646 121.439H42.4766V120.943C42.4766 120.281 42.338 119.807 42.0606 119.519C41.794 119.22 41.362 119.071 40.7646 119.071C40.2953 119.071 39.842 119.14 39.4046 119.279C38.9673 119.407 38.5193 119.62 38.0606 119.919L37.6126 118.975C38.018 118.687 38.5086 118.457 39.0846 118.287C39.6713 118.116 40.2313 118.031 40.7646 118.031C41.7673 118.031 42.5086 118.276 42.9886 118.767C43.4793 119.257 43.7246 120.02 43.7246 121.055V125.951H42.5086V124.607C42.306 125.065 41.9913 125.428 41.5646 125.695C41.1486 125.961 40.658 126.095 40.0926 126.095ZM40.3006 125.119C40.9406 125.119 41.4633 124.9 41.8686 124.463C42.274 124.015 42.4766 123.449 42.4766 122.767V122.287H41.9806C41.1166 122.287 40.434 122.329 39.9326 122.415C39.442 122.489 39.0953 122.628 38.8926 122.831C38.7006 123.023 38.6046 123.289 38.6046 123.631C38.6046 124.068 38.754 124.425 39.0526 124.703C39.362 124.98 39.778 125.119 40.3006 125.119ZM51.2456 125.951V122.799C50.6483 123.161 49.9603 123.343 49.1816 123.343C48.0723 123.343 47.251 123.081 46.7176 122.559C46.1843 122.025 45.9176 121.22 45.9176 120.143V118.175H47.2136V120.047C47.2136 120.815 47.379 121.375 47.7096 121.727C48.051 122.079 48.595 122.255 49.3416 122.255C49.7256 122.255 50.0616 122.212 50.3496 122.127C50.6483 122.041 50.9416 121.903 51.2296 121.711V118.175H52.5256V125.951H51.2456ZM57.5458 126.095C57.0124 126.095 56.5324 125.993 56.1058 125.791C55.6898 125.577 55.3591 125.289 55.1138 124.927C54.8684 124.564 54.7458 124.159 54.7458 123.711C54.7458 123.145 54.8898 122.697 55.1778 122.367C55.4764 122.036 55.9618 121.801 56.6338 121.663C57.3164 121.513 58.2444 121.439 59.4178 121.439H59.9298V120.943C59.9298 120.281 59.7911 119.807 59.5138 119.519C59.2471 119.22 58.8151 119.071 58.2178 119.071C57.7484 119.071 57.2951 119.14 56.8578 119.279C56.4204 119.407 55.9724 119.62 55.5138 119.919L55.0658 118.975C55.4711 118.687 55.9618 118.457 56.5378 118.287C57.1244 118.116 57.6844 118.031 58.2178 118.031C59.2204 118.031 59.9618 118.276 60.4418 118.767C60.9324 119.257 61.1778 120.02 61.1778 121.055V125.951H59.9618V124.607C59.7591 125.065 59.4444 125.428 59.0178 125.695C58.6018 125.961 58.1111 126.095 57.5458 126.095ZM57.7538 125.119C58.3938 125.119 58.9164 124.9 59.3218 124.463C59.7271 124.015 59.9298 123.449 59.9298 122.767V122.287H59.4338C58.5698 122.287 57.8871 122.329 57.3858 122.415C56.8951 122.489 56.5484 122.628 56.3458 122.831C56.1538 123.023 56.0578 123.289 56.0578 123.631C56.0578 124.068 56.2071 124.425 56.5058 124.703C56.8151 124.98 57.2311 125.119 57.7538 125.119ZM65.3228 125.951V119.215H62.5068V118.175H69.4508V119.215H66.6188V125.951H65.3228ZM70.8161 125.951V118.175H72.1121V120.943H74.4641C75.4561 120.943 76.2081 121.161 76.7201 121.599C77.2321 122.025 77.4881 122.633 77.4881 123.423C77.4881 124.201 77.2215 124.82 76.6881 125.279C76.1655 125.727 75.4241 125.951 74.4641 125.951H70.8161ZM72.1121 125.023H74.3361C74.9335 125.023 75.3975 124.895 75.7281 124.639C76.0695 124.383 76.2401 123.983 76.2401 123.439C76.2401 122.905 76.0748 122.511 75.7441 122.255C75.4135 121.999 74.9441 121.871 74.3361 121.871H72.1121V125.023Z" fill="#FDFDFF"/>
<path d="M146.824 23.3567C146.824 23.3567 140.103 30.1774 140.512 41.8999C140.99 55.5413 144.819 60.2885 148.875 67.4957C151.212 71.6564 152.562 76.2626 152.48 79.3592C152.367 83.5244 149.475 93.0279 159.388 94.5284C169.3 96.029 202.34 94.0737 210.597 89.422C218.855 84.7703 224.416 77.7722 224.416 77.7722C224.416 77.7722 221.711 42.7912 209.997 26.8717C198.898 11.7888 187.302 10.1655 177.353 7.53726C172.679 6.57782 169.673 4.75896 168.868 2.89919C167.536 6.08218 167.891 5.22732 167.959 6.53689C164.776 6.36865 158.619 3.26751 157.241 1.95793C157.1 1.93621 156.956 1.96366 156.832 2.03568C156.709 2.1077 156.614 2.21992 156.564 2.35353C156.327 3.54488 156.286 3.26296 159.224 9.76535C159.224 9.76535 158.696 8.56037 149.188 9.26517C148.988 9.26517 148.865 9.81992 149.034 9.92905C150.089 10.652 155.15 12.1708 154.181 13.8078C154.181 13.8078 150.011 12.5482 143.518 15.8449C143.484 15.8637 143.456 15.8927 143.439 15.9278C143.421 15.963 143.415 16.0026 143.421 16.0413C143.427 16.08 143.445 16.116 143.472 16.1443C143.499 16.1726 143.534 16.1919 143.573 16.1995C145.319 16.4269 150.225 16.7088 149.538 17.8638C149.538 17.8638 146.769 18.8824 140.149 23.5568C139.726 23.8569 140.28 24.589 140.458 24.5253C146.86 22.1745 146.824 23.3567 146.824 23.3567Z" fill="#CAA77A"/>
<g style="mix-blend-mode:multiply" opacity="0.23">
<path d="M146.906 23.0067C147.015 23.134 147.137 23.284 147.042 23.425C145.919 25.1029 144.314 26.0078 142.39 31.1142C141.672 33.0331 150.016 15.7358 173.047 15.7358C205.786 15.7358 206.123 31.5871 209.879 44.0508C213.885 57.3329 212.116 79.4729 211.579 87.8715C211.411 90.5634 215.508 86.3755 217.354 84.8886C220.066 82.7228 222.56 80.2984 224.802 77.6495C224.823 77.6259 224.838 77.5983 224.846 77.5685C224.855 77.5387 224.857 77.5074 224.853 77.4767C224.689 75.4351 221.797 42.1001 210.447 26.6716C200.644 13.3486 184.774 10.352 175.757 7.20992C174.395 7.06725 173.081 6.62008 171.915 5.90147C170.749 5.18286 169.759 4.21121 169.018 3.05839C168.072 3.59041 168.7 5.8958 167.854 6.83251C160.833 5.78213 158.082 2.31266 156.723 2.13987C156.241 2.07621 157.828 8.50585 159.501 10.1201C159.485 10.1515 159.463 10.1793 159.437 10.2019C159.41 10.2245 159.379 10.2414 159.345 10.2516C159.311 10.2619 159.276 10.2651 159.241 10.2613C159.206 10.2574 159.172 10.2465 159.142 10.2292C158.373 9.77451 157.1 9.00149 149.593 9.27432C149.498 9.27526 149.406 9.30597 149.329 9.36213C149.252 9.41828 149.195 9.49706 149.165 9.58738C149.136 9.67771 149.135 9.77504 149.164 9.8657C149.192 9.95636 149.249 10.0358 149.325 10.0928C150.38 10.8931 154.217 11.989 154.399 14.3216C153.544 14.2853 148.993 13.1621 143.541 15.7494C143.463 15.7952 143.401 15.8629 143.362 15.944C143.323 16.0251 143.309 16.1159 143.322 16.205C143.334 16.2941 143.373 16.3775 143.433 16.4445C143.493 16.5115 143.572 16.5592 143.659 16.5816C145.723 16.9226 151.694 16.477 149.857 18.2094C149.857 18.2094 146.192 19.0643 140.308 23.9525C140.044 24.1753 140.276 24.6436 140.603 24.5209C144.591 22.9657 146.36 22.3792 146.906 23.0067Z" fill="#3F2719"/>
</g>
<path d="M145.318 34.4517C146.905 30.7185 151.079 26.2669 154.844 25.3575C159.278 24.2889 160.096 25.1074 164.393 24.9028C165.185 24.8618 167.576 24.248 168.058 23.3385C168.54 22.4291 168.167 21.1105 168.186 21.115C168.863 21.3696 170.914 22.5655 171.746 22.8747C174.965 24.0843 175.716 24.2389 178.621 23.1066C188.325 19.278 196.633 25.5257 199.92 29.891C201.671 32.2146 205.89 38.8079 206.031 45.9469C206.172 53.336 207.564 56.9055 199.065 64.5674C188.971 73.6616 164.539 78.427 150.866 64.9812C144.35 58.5515 142.704 40.6176 145.318 34.4517Z" fill="#FFDBAF"/>
<path d="M147.046 23.2021C147.046 23.2021 140.612 30.4502 140.275 40.9905C139.821 55.6777 144.822 60.2885 148.874 67.4957C151.211 71.6563 152.562 76.2626 152.48 79.3592C152.366 83.5243 149.474 93.0278 159.387 94.5284C169.3 96.0289 202.339 94.0737 210.597 89.422C218.854 84.7703 224.415 77.7722 224.415 77.7722C224.415 77.7722 222.597 41.8499 209.865 25.9076C198.615 11.7797 189.534 11.5933 173.315 6.5414C169.677 5.40917 169.222 3.59486 168.886 3.0674C168.126 3.97682 167.849 5.70928 168.19 6.49138C168.022 6.52321 163.134 7.36898 157.241 2.14432C155.963 1.80329 156.959 6.8597 159.291 10.1291C159.291 10.1291 158.682 8.93774 149.197 9.40155C149.153 9.40261 149.111 9.41775 149.076 9.44475C149.041 9.47174 149.016 9.50916 149.005 9.55147C148.993 9.59377 148.995 9.63873 149.011 9.6797C149.027 9.72066 149.055 9.75546 149.092 9.77896C150.156 10.4747 155.204 12.6391 154.249 14.2806C154.249 14.2806 149.929 12.5618 143.436 15.8585C143.398 15.8756 143.368 15.9045 143.349 15.9406C143.33 15.9767 143.323 16.0181 143.33 16.0583C143.337 16.0986 143.356 16.1356 143.386 16.1636C143.416 16.1915 143.454 16.209 143.495 16.2131C145.241 16.4405 150.984 16.7861 149.556 18.1366C149.556 18.1366 146.414 18.9323 140.153 23.8069C139.916 23.9933 140.121 24.4116 140.398 24.2934C145.886 21.9562 147.046 23.2021 147.046 23.2021Z" stroke="#2D1F04" stroke-width="1.212" stroke-linecap="round" stroke-linejoin="round"/>
<path d="M170.455 48.6434C166.885 47.0019 162.82 53.5043 162.666 58.0969C162.32 67.5004 176.207 69.7967 183.996 65.0995C192.113 60.2022 182.318 45.806 176.116 48.0887" fill="#9D7B51"/>
<path d="M144.932 37.8848C141.263 44.178 144.596 55.7959 147.06 60.3021C147.251 60.6528 147.553 60.9297 147.919 61.0887C148.284 61.2477 148.693 61.2798 149.079 61.1797C151.672 60.522 154.149 59.4699 156.423 58.0604C171.428 48.7388 164.012 29.0815 163.148 28.0493C161.961 26.4624 158.942 30.6321 154.222 34.4426C152.79 35.5794 146.847 37.4255 144.932 37.8848Z" fill="#9D7B51"/>
<path d="M178.967 29.2818C179.099 60.8207 203.749 59.7203 205.436 55.6551C206.518 53.0587 208.514 43.6052 204.958 35.9706C202.144 29.5273 196.391 35.3613 191.922 33.5424C187.224 31.6508 178.94 22.9794 178.967 29.2818Z" fill="#9D7B51"/>
<path opacity="0.83" d="M190.903 37.1163H190.967C194.086 36.6616 197.06 39.1626 197.601 42.7457C198.142 46.3288 196.055 49.6164 192.936 50.0893H192.872C189.753 50.544 186.779 48.0431 186.238 44.46C185.697 40.8768 187.784 37.5892 190.903 37.1163Z" fill="#B2B2B2"/>
<path opacity="0.83" d="M155.145 37.8394H155.213C158.65 37.8394 161.442 41.0223 161.442 44.9874C161.442 48.9525 158.65 52.1355 155.213 52.1355H155.145C151.702 52.1355 148.915 48.9525 148.915 44.9874C148.915 41.0223 151.702 37.8394 155.145 37.8394Z" fill="#B2B2B2"/>
<path d="M167.54 49.3845C167.477 48.1522 169.9 47.0291 172.951 46.879C176.002 46.729 178.526 47.6065 178.59 48.8434C178.653 50.0802 176.225 51.2033 173.174 51.3488C170.123 51.4943 167.599 50.6213 167.54 49.3845Z" fill="#251707"/>
<path d="M155.177 38.0485C156.629 38.0436 158.024 38.6157 159.055 39.6388C160.086 40.662 160.668 42.0526 160.674 43.505V43.8597C160.633 45.2898 160.036 46.6474 159.01 47.6444C157.984 48.6414 156.609 49.1991 155.179 49.1991C153.748 49.1991 152.374 48.6414 151.348 47.6444C150.322 46.6474 149.725 45.2898 149.684 43.8597V43.505C149.684 42.7854 149.826 42.0728 150.102 41.4084C150.379 40.744 150.784 40.1409 151.295 39.6337C151.805 39.1266 152.411 38.7254 153.077 38.4533C153.743 38.1813 154.457 38.0437 155.177 38.0485Z" fill="white"/>
<path d="M191.644 35.9887C192.364 35.9833 193.078 36.1204 193.745 36.3922C194.412 36.664 195.018 37.0651 195.529 37.5723C196.04 38.0796 196.446 38.6829 196.723 39.3476C196.999 40.0123 197.142 40.7252 197.142 41.4452V41.8045C197.101 43.2345 196.504 44.5922 195.478 45.5892C194.452 46.5861 193.077 47.1438 191.647 47.1438C190.216 47.1438 188.842 46.5861 187.816 45.5892C186.79 44.5922 186.193 43.2345 186.151 41.8045V41.4452C186.151 40.7256 186.294 40.0131 186.57 39.3487C186.847 38.6843 187.252 38.0811 187.762 37.5739C188.273 37.0668 188.879 36.6656 189.545 36.3935C190.211 36.1215 190.925 35.9839 191.644 35.9887Z" fill="white"/>
<path d="M189.712 43.0141C189.718 42.752 189.802 42.4977 189.952 42.2828C190.102 42.0679 190.312 41.9021 190.556 41.8061C190.8 41.7102 191.067 41.6883 191.323 41.7432C191.579 41.7982 191.814 41.9275 191.997 42.115C192.18 42.3026 192.304 42.54 192.353 42.7975C192.402 43.055 192.373 43.3213 192.272 43.5629C192.17 43.8045 191.999 44.0107 191.781 44.1557C191.563 44.3008 191.306 44.3782 191.044 44.3782C190.688 44.3699 190.349 44.2225 190.1 43.9676C189.851 43.7127 189.712 43.3704 189.712 43.0141Z" fill="#2D1F04"/>
<path d="M153.243 44.9876C153.255 44.7269 153.343 44.4753 153.496 44.2642C153.649 44.053 153.861 43.8914 154.106 43.7996C154.35 43.7078 154.616 43.6897 154.87 43.7476C155.124 43.8054 155.356 43.9368 155.537 44.1252C155.717 44.3137 155.838 44.551 155.885 44.8077C155.932 45.0644 155.902 45.3292 155.8 45.5692C155.698 45.8093 155.527 46.0139 155.309 46.1579C155.092 46.3018 154.837 46.3787 154.576 46.379C154.215 46.3706 153.872 46.2195 153.622 45.9586C153.372 45.6978 153.236 45.3486 153.243 44.9876V44.9876Z" fill="#2D1F04"/>
<path d="M191.644 35.9887C192.364 35.9833 193.078 36.1204 193.745 36.3922C194.412 36.664 195.018 37.0651 195.529 37.5723C196.04 38.0796 196.446 38.6829 196.723 39.3476C196.999 40.0123 197.142 40.7252 197.142 41.4452V41.8045C197.101 43.2345 196.504 44.5922 195.478 45.5892C194.452 46.5861 193.077 47.1438 191.647 47.1438C190.216 47.1438 188.842 46.5861 187.816 45.5892C186.79 44.5922 186.193 43.2345 186.151 41.8045V41.4452C186.151 40.7256 186.294 40.0131 186.57 39.3487C186.847 38.6843 187.252 38.0811 187.762 37.5739C188.273 37.0668 188.879 36.6656 189.545 36.3935C190.211 36.1215 190.925 35.9839 191.644 35.9887Z" stroke="#2D1F04" stroke-width="1.20275" stroke-linecap="round" stroke-linejoin="round"/>
<path d="M155.177 38.0485C156.629 38.0436 158.024 38.6157 159.055 39.6388C160.086 40.662 160.668 42.0526 160.674 43.505V43.8597C160.633 45.2898 160.036 46.6474 159.01 47.6444C157.984 48.6414 156.609 49.1991 155.179 49.1991C153.748 49.1991 152.374 48.6414 151.348 47.6444C150.322 46.6474 149.725 45.2898 149.684 43.8597V43.505C149.684 42.7854 149.826 42.0728 150.102 41.4084C150.379 40.744 150.784 40.1409 151.295 39.6337C151.805 39.1266 152.411 38.7254 153.077 38.4533C153.743 38.1813 154.457 38.0437 155.177 38.0485Z" stroke="#2D1F04" stroke-width="1.20275" stroke-linecap="round" stroke-linejoin="round"/>
<path d="M143.827 38.8443C155.963 37.5711 162.657 27.1946 162.657 27.1946" stroke="#2D1F04" stroke-width="3.51574" stroke-linecap="round" stroke-linejoin="round"/>
<path d="M203.245 33.7651C188.471 35.3384 178.422 25.1938 179.404 26.3033" stroke="#2D1F04" stroke-width="3.51574" stroke-linecap="round" stroke-linejoin="round"/>
<path d="M166.499 52.8676C166.499 52.8676 172.906 58.8335 181.332 51.4353" stroke="#251707" stroke-width="1.38779" stroke-miterlimit="10" stroke-linecap="round"/>
<path d="M200.23 44.0645C200.112 43.919 199.907 44.0372 199.934 44.2373C200.133 45.9052 199.991 47.5961 199.516 49.2073C199.193 50.3213 198.293 53.0951 200.448 53.6225C203.445 54.3592 204.063 51.0443 203.467 49.0299C202.69 46.4199 200.985 44.9921 200.23 44.0645Z" fill="#91D6E2"/>
<path d="M142.358 102.9C142.358 102.9 143.822 107.219 137.965 111.853C134.35 114.713 126.72 118.674 121.987 108.697C116.844 111.798 112.137 107.751 112.137 107.751C112.137 107.751 107.208 107.206 105.922 107.206C97.9641 114.113 99.7647 126.186 104.025 131.997C117.635 136.417 135.282 136.567 136.41 134.238C136.196 119.333 148.796 104.805 148.796 104.805L142.358 102.9Z" fill="#CAA77A"/>
<path d="M134.004 149.394C146.318 153.132 155.089 157.338 183.509 158.134C212.843 158.961 231.64 154.978 239.366 146.884C242.331 140.314 234.896 105.419 233.969 103.541C234.657 103.297 235.289 102.915 235.824 102.418C236.133 83.8336 230.417 70.747 218.245 68.8508C208.864 69.2101 205.181 74.362 201.302 79.6093C189.648 88.8355 154.18 85.6161 151.847 79.0137C151.847 78.559 151.765 77.6495 151.729 77.1448C140.843 79.8731 140.211 99.985 140.739 101.949C141.853 103.473 146.045 104.141 146.045 104.141C146.045 104.141 147.518 104.628 146.018 106.633C135.537 120.647 132.704 127.886 134.004 149.394Z" fill="#FFDB1F"/>
<path d="M239.435 146.42C241.117 128.959 234.397 105.646 234.16 104.801" stroke="#2D1F04" stroke-width="1.212" stroke-linecap="round" stroke-linejoin="round"/>
<g style="mix-blend-mode:multiply" opacity="0.23">
<path d="M146.164 106.228C146.164 106.228 149.138 112.772 161.52 112.749C167.431 112.749 168.149 112.844 173.046 112.494C177.484 112.176 177.216 114.713 174.179 114.991C167.813 115.573 164.493 114.577 164.493 114.577C164.493 114.577 153.803 112.876 148.797 113.522C143.958 114.14 141.162 116.064 137.761 119.56C139.175 115.527 146.164 106.228 146.164 106.228Z" fill="#3F2719"/>
</g>
<g style="mix-blend-mode:multiply" opacity="0.23">
<path d="M234.31 104.573C234.31 104.573 241.158 124.962 239.426 146.807C237.607 148.744 233.969 151.354 231.65 152.054C233.042 146.866 230.195 124.339 230.195 124.339L234.31 104.573Z" fill="#3F2719"/>
</g>
<path d="M156.168 101.231C159.806 101.426 163.121 101.536 166.335 101.768C168.977 101.954 169.669 103.668 169.496 105.264C169.264 107.461 167.85 108.929 165.403 109.648C165.276 109.689 165.144 109.711 164.88 109.77C167.359 111.216 167.327 114.008 168.877 116.591L163.375 116.382C162.534 114.808 161.786 113.187 161.134 111.526C160.793 110.666 160.311 110.025 158.883 110.23C158.374 112.188 158.159 114.211 158.246 116.232C156.541 116.173 154.986 116.118 153.308 116.068C153.012 111.044 155.159 106.069 156.168 101.231ZM160.488 104.473C160.242 105.451 159.988 106.346 159.678 107.429C160.761 107.429 161.793 107.429 162.834 107.351C163.222 107.345 163.597 107.215 163.905 106.98C164.214 106.745 164.439 106.418 164.548 106.046C164.762 105.301 164.408 104.682 163.484 104.587C162.561 104.491 161.547 104.509 160.488 104.478V104.473Z" fill="#2D1F04"/>
<path d="M184.083 106.296C182.446 106.337 180.968 106.374 179.431 106.419C179.404 105.178 178.726 104.491 177.444 104.428C177.046 104.365 176.638 104.43 176.279 104.614C175.921 104.798 175.629 105.091 175.448 105.451C175.357 106.165 175.834 106.419 176.421 106.587C177.489 106.892 178.594 107.169 179.686 107.497C180.293 107.683 180.885 107.912 181.459 108.183C185.097 109.875 184.165 114.072 181.141 115.964C180.127 116.584 178.998 116.99 177.821 117.16C176.042 117.427 174.224 117.289 172.506 116.755C171.417 116.456 170.479 115.763 169.873 114.811C169.267 113.859 169.037 112.715 169.227 111.603L173.697 111.521C173.747 111.817 173.783 112.089 173.847 112.353C174.197 113.786 175.721 114.54 177.308 114.027C177.64 113.95 177.944 113.781 178.185 113.54C178.427 113.299 178.595 112.995 178.672 112.662C178.722 112.376 178.669 112.082 178.521 111.832C178.374 111.582 178.141 111.392 177.867 111.298C177.371 111.075 176.835 110.921 176.316 110.748C175.239 110.389 174.129 110.111 173.133 109.67C171.219 108.82 170.51 107.397 170.951 105.778C171.232 104.817 171.772 103.952 172.513 103.277C173.253 102.603 174.164 102.145 175.148 101.954C177.16 101.445 179.276 101.516 181.25 102.159C183.328 102.827 184.192 104.118 184.083 106.296Z" fill="#2D1F04"/>
<path d="M203.84 105.019C210.447 133.07 201.211 139.69 186.533 137.303C175.838 135.562 176.529 118.373 176.529 118.373C171.945 123.11 169.219 129.339 168.849 135.921C168.849 135.921 166.708 137.017 162.938 133.452C158.532 140.659 164.543 149.653 168.295 152.2C179.358 159.707 199.302 159.784 216.835 152.054C234.083 144.456 238.052 130.723 237.084 98.5662" fill="#CAA77A"/>
<path d="M119.668 90.4451C119.668 90.4451 120.355 107.42 122.005 108.697C123.656 109.975 112.415 111.839 111.929 107.033C112.079 100.799 119.668 90.4451 119.668 90.4451Z" fill="#B6B1AE"/>
<path d="M176.762 118.374C176.762 118.374 176.093 129.514 181.814 135.011C183.323 136.457 169.814 139.65 169.327 134.843C170.728 124.485 176.762 118.374 176.762 118.374Z" fill="#B6B1AE"/>
<path d="M127.635 122.157C125.147 125.69 111.929 131.137 107.373 131.61C105.554 129.259 103.107 116.682 109.564 110.944C112.679 115.027 122.478 120.283 127.635 122.157Z" fill="#B6B1AE"/>
<path d="M162.643 133.684C165.585 131.506 168.363 133.079 168.922 132.747C169.136 134.675 168.99 135.694 168.613 136.662C166.785 136.662 165.284 135.853 162.643 133.684Z" fill="#B6B1AE"/>
<path d="M201.989 78.9683C201.989 78.9683 195.082 84.8795 180.363 85.4752C165.644 86.0709 153.43 81.7738 152.13 79.6685C150.829 77.5632 148.874 86.1664 152.33 87.7806C155.627 89.3221 166.035 93.6009 181.386 91.5502" stroke="#2D1F04" stroke-width="1.212" stroke-linecap="round" stroke-linejoin="round"/>
<path d="M152.303 76.9448C141.33 78.8546 140.576 97.607 140.812 102.341C140.839 102.818 142.117 103.491 142.117 103.491C142.117 103.491 143.481 107.52 137.234 112.476C130.986 117.432 123.592 113.754 122.228 109.398C120.864 105.042 118.472 94.3058 119.823 91C121.173 87.6942 111.638 98.2754 112.165 107.752L105.863 106.619C105.863 106.619 94.3495 117.369 104.044 132.011C104.044 132.011 115.112 137.531 133.728 135.053" stroke="#2D1F04" stroke-width="1.212" stroke-linecap="round" stroke-linejoin="round"/>
<path d="M133.923 148.971C131.604 138.908 134.833 118.787 146.019 106.619C146.619 93.0278 152.303 87.644 152.303 87.644" stroke="#2D1F04" stroke-width="1.212" stroke-linecap="round" stroke-linejoin="round"/>
<path d="M105.922 107.206C105.922 107.206 119.513 121.097 126.647 121.397C133.782 121.698 107.463 133.506 104.025 131.997" stroke="#2D1F04" stroke-width="1.212" stroke-linecap="round" stroke-linejoin="round"/>
<path d="M109.001 110.944C109.001 110.944 102.094 121.034 107.455 131.783" stroke="#2D1F04" stroke-width="1.212" stroke-linecap="round" stroke-linejoin="round"/>
<path d="M105.854 120.511C106.899 121.111 115.948 125.69 127.866 122.089" stroke="#2D1F04" stroke-width="1.212" stroke-linecap="round" stroke-linejoin="round"/>
<path d="M112.138 107.206C112.138 107.206 112.138 111.985 122.219 109.384" stroke="#2D1F04" stroke-width="1.212" stroke-linecap="round" stroke-linejoin="round"/>
<path d="M204.385 108.079C208.696 128.314 204.89 137.217 191.862 137.494C174.665 137.858 176.857 118.474 176.857 118.474C172.221 123.143 169.459 129.351 169.095 135.921C169.095 135.921 166.73 136.958 162.979 133.393C162.01 135.512 159.796 141.146 165.18 148.744C172.278 158.748 197.587 160.298 213.466 153.746C236.201 144.342 238.02 125.822 237.352 101.908" stroke="#2D1F04" stroke-width="1.212" stroke-linecap="round" stroke-linejoin="round"/>
<path d="M163.38 133.074C163.38 133.074 165.585 131.456 168.9 132.47" stroke="#2D1F04" stroke-width="1.212" stroke-linecap="round" stroke-linejoin="round"/>
<path d="M169.372 136.126C169.522 136.126 175.238 140.082 181.931 135.189" stroke="#2D1F04" stroke-width="1.212" stroke-linecap="round" stroke-linejoin="round"/>
<path d="M219.427 102.545C223.779 101.558 226.412 101.222 237.257 101.636C242.431 100.512 238.225 69.6738 218.304 68.7644C203.835 70.6742 200.116 81.842 199.938 88.408C199.82 92.7505 202.526 107.456 202.526 107.456C202.526 107.456 202.939 109.097 204.963 107.942C210.11 105.023 215.662 103.404 219.427 102.545Z" fill="#FFDB1F"/>
<path d="M237.339 101.872C237.339 101.872 238.99 101.067 239.04 100.185C239.299 95.6881 239.344 81.3328 230.241 73.489C217.141 62.1939 203.936 73.6118 201.035 81.3737C198.425 88.3399 202.185 105.878 202.399 107.079C202.612 108.279 204.399 108.079 204.399 108.079" stroke="#2D1F04" stroke-width="1.212" stroke-linecap="round" stroke-linejoin="round"/>
<path d="M207.478 101.058C207.291 101.167 218.991 94.4828 239.103 96.1835" stroke="#2D1F04" stroke-width="1.212" stroke-linecap="round" stroke-linejoin="round"/>
<path d="M154.463 81.2871C154.135 82.4559 154.135 83.6924 154.463 84.8611" stroke="#2D1F04" stroke-width="1.212" stroke-linecap="round" stroke-linejoin="round"/>
<path d="M157.031 82.4558C157.031 82.4558 156.577 84.7294 157.331 86.6073" stroke="#2D1F04" stroke-width="1.212" stroke-linecap="round" stroke-linejoin="round"/>
<path d="M178.357 85.8342C178.25 86.4518 178.337 87.0875 178.607 87.6531" stroke="#2D1F04" stroke-width="1.212" stroke-linecap="round" stroke-linejoin="round"/>
<path d="M180.663 85.8342C180.663 86.7089 180.833 87.5754 181.163 88.3852" stroke="#2D1F04" stroke-width="1.212" stroke-linecap="round" stroke-linejoin="round"/>
<path d="M168.244 85.1067C168.199 85.9576 168.266 86.8108 168.444 87.644" stroke="#2D1F04" stroke-width="1.212" stroke-linecap="round" stroke-linejoin="round"/>
<g style="mix-blend-mode:multiply" opacity="0.23">
<path d="M218.295 68.7734C226.934 72.152 229.167 80.596 230.181 83.7153C231.836 88.7535 234.815 100.562 231.809 119.001C228.803 137.44 219.905 151.895 199.447 153.7C189.234 154.61 167.808 153.573 162.092 135.744C159.723 145.966 169.481 156.015 180.472 156.829C194.091 157.838 195.714 159.511 213.439 153.727C241.603 139.313 236.211 125.135 237.084 101.626C242.204 100.426 238.029 69.8829 218.295 68.7734Z" fill="#3F2719"/>
</g>
<g style="mix-blend-mode:multiply" opacity="0.23">
<path d="M113.712 129.728C113.712 129.728 127.353 131.187 134.569 129.951C134.078 131.769 133.66 133.588 133.842 134.952C121.46 137.503 104.99 132.379 104.99 132.379L113.712 129.728Z" fill="#3F2719"/>
</g>
<path d="M171.888 50.2803L172.597 54.8183" stroke="#251707" stroke-width="1.38779" stroke-miterlimit="10" stroke-linecap="round"/>
<path d="M216.771 98.0706C216.771 98.0706 217.722 98.3934 217.504 100.899" stroke="#2D1F04" stroke-width="1.212" stroke-linecap="round" stroke-linejoin="round"/>
<path d="M218.904 97.584C218.904 97.584 219.855 97.9023 219.632 100.408" stroke="#2D1F04" stroke-width="1.212" stroke-linecap="round" stroke-linejoin="round"/>
<path d="M227.289 96.1699C227.289 96.1699 228.239 96.4928 228.017 98.9937" stroke="#2D1F04" stroke-width="1.212" stroke-linecap="round" stroke-linejoin="round"/>
<g style="mix-blend-mode:multiply" opacity="0.23">
<path d="M222.71 113.99V119.024" stroke="#3F2719" stroke-width="1.85039" stroke-miterlimit="10" stroke-linecap="round"/>
</g>
<g style="mix-blend-mode:multiply" opacity="0.23">
<path d="M226.116 115.491L225.762 120.511" stroke="#3F2719" stroke-width="1.85039" stroke-miterlimit="10" stroke-linecap="round"/>
</g>
<g style="mix-blend-mode:multiply" opacity="0.23">
<path d="M158 74.3301L158.909 78.4225" stroke="#3F2719" stroke-width="1.85039" stroke-miterlimit="10" stroke-linecap="round"/>
</g>
<g style="mix-blend-mode:multiply" opacity="0.23">
<path d="M161.533 75.3623L162.461 79.532" stroke="#3F2719" stroke-width="1.85039" stroke-miterlimit="10" stroke-linecap="round"/>
</g>
<g style="mix-blend-mode:multiply" opacity="0.23">
<path d="M165.166 76.3535L166.089 80.4869" stroke="#3F2719" stroke-width="1.85039" stroke-miterlimit="10" stroke-linecap="round"/>
</g>
</g>
<defs>
<clipPath id="clip0_252_1037">
<rect width="240" height="146.364" fill="white"/>
</clipPath>
</defs>
</svg>
