<svg width="55" height="50" viewBox="0 0 55 50" fill="none" xmlns="http://www.w3.org/2000/svg">
<g clip-path="url(#clip0_196_342)">
<path d="M35.807 1.91448C35.538 2.18347 35.5696 1.32904 35.6013 1.31321C35.8386 1.07587 36.7089 1.9303 36.8354 2.08853C38.038 3.57587 40.5854 5.50625 41.0601 7.40498C41.2184 8.02207 41.5506 8.60752 41.693 9.20878C42.1836 11.1392 42.0253 13.5759 41.5506 15.4904C41.4874 15.7594 40.981 18.4176 41.0601 18.4968C41.1551 18.5917 41.6614 18.5126 41.8038 18.56C42.3101 18.7816 42.6741 19.1297 43.1487 19.3828C43.4336 19.5252 44.0665 19.4461 44.3829 19.5252C46.9304 20.1581 50.712 22.943 52.0411 25.1581C53.4335 27.4841 54.731 30.079 54.1614 32.8797C54.1297 33.0537 53.75 35.079 53.6709 35.1107C53.5918 35.1581 53.4177 34.2879 53.3861 34.2246C53.1804 33.7341 52.9747 33.2278 52.7848 32.7373C52.231 31.3449 50.4905 29.2563 49.2722 28.3385C46.3133 26.1233 39.8418 26.5664 37.057 27.5949C35.9968 27.9904 34.6994 31.2025 34.5728 32.2309C34.4779 32.9746 34.2247 33.5442 34.0506 34.2721C33.6392 35.9335 33.576 34.7468 33.0538 35.1423C32.8323 35.3164 32.769 36.1392 32.7057 36.424C32.5633 36.9778 33.5443 37.8797 33.6551 38.4493C34.0032 40.174 33.8449 41.7404 33.6551 43.4809C33.5601 44.367 33.4336 46.3765 33.7975 47.2309C33.9874 47.674 34.1298 48.1328 34.3354 48.5442C34.3671 48.6233 34.7943 49.1455 34.6203 49.1455C33.5601 49.1455 31.9146 48.2752 31.1867 47.6423C29.4462 46.1392 29.5253 46.4556 27.057 40.8227C26.3449 39.2088 25.7279 38.4809 24.5095 37.1676C22.3101 34.7784 20.5063 34.5094 17.057 33.56C16.2658 33.3385 13.038 32.2784 12.2627 32.6898C11.7563 32.9746 10.2215 33.1961 9.82596 33.5917C9.00317 34.4145 8.44937 35.2056 7.5633 35.9809C6.88292 36.5664 6.29748 37.1676 5.44305 37.3575C4.38292 37.5949 3.76583 37.0727 2.67406 37.1202C2.42089 37.136 0.617095 36.4398 0.363931 36.5031C0.316463 36.5189 2.31013 35.9809 3.30697 35.3164C3.59178 35.1265 3.8133 34.9208 3.86077 34.6993C4.3038 32.9271 4.44621 34.2879 5.28482 31.2183C6.20254 27.8638 9.20887 28.6233 10.538 27.31C10.9336 26.9145 10.9494 25.617 11.1392 25.1107C11.4399 24.3354 11.9937 23.2911 12.5949 22.7056C13.3861 21.9145 14.8734 21.2183 15.1108 20.0157C15.4589 18.2911 10.8386 17.8638 9.82596 17.9588C8.89241 18.0379 8.11709 18.9714 7.31013 19.4145C7.0095 19.5727 6.88292 19.6993 6.56646 19.5885C6.09178 19.4303 6.48735 17.943 6.8038 17.6265C8.29115 16.1392 9.22469 14.4461 11.3766 13.8449C12.9114 13.4176 14.1139 13.3227 15.9652 13.6392C17.8165 13.9556 17.5633 14.4778 18.2595 14.4778C18.8924 14.4778 19.2405 13.6392 20 13.7657C20.6646 13.8765 21.6139 14.8575 22.2627 14.7151C23.8608 14.3987 23.5127 12.6107 23.7184 11.3765C24.0506 9.41448 24.6203 7.46828 25.8386 5.85435C26.25 5.30055 26.3924 4.636 26.8987 4.11385C27.7532 3.25942 28.5443 2.64233 30.1424 2.26258C30.2848 2.23093 30.3798 2.23093 30.269 2.136C30.1741 2.05688 29.462 1.50309 29.7785 1.39233C30.4272 1.17081 31.9462 1.83537 32.0886 1.75625C32.4209 1.5822 31.788 0.870175 31.8038 0.854352C31.9146 0.743593 33.9557 2.10435 34.0032 2.05688C34.3354 1.72461 33.576 0.743593 33.7184 0.537897C33.7975 0.427137 33.9715 0.632833 34.0665 0.711947C34.462 1.06005 34.8734 1.26574 35.2373 1.62967C35.7279 2.15182 35.8861 1.85119 35.807 1.91448Z" fill="#CAA77A"/>
<path d="M41.2975 18.3544C40.9177 18.4493 41.9779 18.3069 42.2627 18.3544C43.0538 18.4651 43.9715 18.4968 44.7152 18.8449C44.9051 18.9398 45.6488 19.7309 45.4747 19.9366C45.2848 20.174 44.2405 19.4461 43.9241 19.6518C43.5443 19.8892 43.0538 20.7752 42.7532 21.1392C41.9462 22.136 41.2975 23.6075 41.076 24.8892C41.0127 25.2056 41.2342 26.4398 41.0918 26.6139C40.6329 27.1676 39.4304 26.9936 38.8133 27.1518C37.7532 27.4208 36.5981 28.2436 36.0443 29.1771C35.6962 29.7784 35.3007 30.348 34.9367 30.9493C34.6361 31.4556 34.5728 32.0252 34.3988 32.6107C34.2247 33.1803 34.4146 34.8733 34.0665 35.3006C33.9557 35.443 33.2437 35.348 33.1488 35.2056C32.9589 34.905 33.3861 34.4778 33.2912 34.1455C33.1171 33.4335 32.4209 33.0537 31.9779 32.4683C31.5032 31.8512 30.5855 30.9968 30 30.5379C28.1329 29.0347 26.2025 27.2784 23.845 26.4556C22.3734 25.9493 20.9019 25.4113 19.3988 25.0158C18.6709 24.8259 17.9589 24.4145 17.1836 24.3512C15.7595 24.2246 14.3038 24.2404 12.8798 24.1613C12.4367 24.1297 11.7563 24.3037 11.3608 24.4936C11.25 24.5411 11.0285 24.6676 11.0285 24.6676C11.0285 24.6676 11.6772 24.6835 11.5981 24.8733C11.4241 25.3322 10.6013 27.3892 10.1108 26.1708C9.93673 25.7594 10.1899 25.2531 10.3639 24.8733C10.5222 24.5094 10.5063 24.0031 10.7595 23.6866C11.5981 22.6582 12.3101 22.0569 13.4652 21.3132C13.8133 21.0917 14.3355 20.7594 14.731 20.6645C14.7943 20.6487 15.1108 20.617 15.1424 20.5537C15.3798 19.9366 15.1266 19.1297 15.3798 18.4809C15.8861 17.136 17.1677 15.9968 18.0538 14.905C18.1804 14.7468 19.6203 13.4968 19.7943 13.6075C20.3639 13.9714 21.076 14.4936 21.6298 14.9366C21.9146 15.1582 22.1994 14.7626 22.4051 14.8575C22.8007 15.0474 23.1804 15.7752 23.481 16.1075C23.9715 16.6455 24.6044 17.0727 25.1582 17.5157C25.6646 17.9271 26.345 18.0537 26.9304 18.2752C28.5127 18.8607 29.9842 19.2879 31.6456 19.7151C33.3228 20.1423 37.3101 20.2531 38.9082 19.5252C39.6361 19.193 39.8418 19.1139 40.4905 18.6866C40.7595 18.4493 41.6614 18.2594 41.2975 18.3544Z" fill="#FFDB1F"/>
<path d="M30.5222 15.348C37.2785 17.1676 39.7785 10.9018 39.0665 8.06952C38.9873 7.75306 38.7658 5.75939 35.6962 5.07901C35.1899 4.96825 34.0823 5.01572 33.6076 4.82585C33.1329 4.63597 32.7373 4.50939 32.326 4.01888C32.326 4.55686 32.2152 4.62015 32.057 4.62015C31.2975 4.6518 30 3.32268 28.5918 3.27521C26.9778 3.21192 25.3165 6.0442 24.9684 7.10433C24.3196 9.05053 23.7658 13.5284 30.5222 15.348Z" fill="#FFDBAF"/>
<path d="M31.5823 8.6868C32.7215 9.39882 33.038 11.345 32.0412 12.2311C31.0443 13.1172 29.2563 12.3419 28.4969 11.8988C26.5981 10.807 28.4019 8.40199 29.2247 8.22794C29.4146 8.19629 29.7943 8.08553 29.9525 8.18047" fill="#9D7B51"/>
<path d="M31.5032 8.76583C31.5665 8.51266 31.1234 8.18039 30.5063 8.00634C29.8893 7.83228 29.3355 7.9114 29.2722 8.16456C29.2089 8.41773 29.6519 8.75001 30.269 8.92406C30.8861 9.08228 31.4399 9.01899 31.5032 8.76583Z" fill="#251707"/>
<path d="M33.9874 5.83869C30.6013 11.0444 37.5317 13.4495 37.6899 13.2912C39.0032 12.0096 39.2722 9.41464 39.2089 8.73426C39.1931 8.59186 34.0032 5.82287 33.9874 5.83869Z" fill="#9D7B51"/>
<path d="M30.0791 4.66772C30.2057 4.66772 28.8766 10.0316 24.5728 8.46519C24.3355 8.37026 24.7943 7.19937 24.8418 6.96203C25.3007 4.68355 26.0601 5.33228 27.8323 5.2057C28.5285 5.14241 29.8101 4.66772 30.0791 4.66772Z" fill="#9D7B51"/>
<path d="M53.9715 32.1519C54.4146 32.3576 54.1614 34.8735 53.5443 34.9684C53.4177 34.9842 53.4336 34.8102 53.4177 34.7627C53.3228 34.1456 52.4209 32.8165 52.6108 32.231C52.6424 32.1678 53.8291 32.0886 53.9715 32.1519Z" fill="#D2D2D2"/>
<path d="M6.15507 19.3037C6.55064 19.2246 6.39241 19.905 6.07595 20.0949C5.94937 20.174 5.77532 20.5063 5.7595 20.3797C5.68038 19.9525 5.77532 19.3828 6.15507 19.3037Z" fill="#D2D2D2"/>
<path d="M33.4494 46.2658C33.6867 46.7722 34.1614 47.7057 34.4462 48.307C34.4937 48.4019 34.7785 49.5253 34.731 49.5886C34.5728 49.7943 33.6867 49.2247 33.5127 49.1298C32.3892 48.576 31.4873 48.2279 30.6646 47.2468C30.5538 47.1044 29.7627 46.5981 29.9684 46.2975C30.3639 45.7595 31.8354 45.6487 32.3892 45.7437C32.6741 45.7912 32.9272 45.8544 33.1962 45.9336C33.2753 45.9652 33.4177 46.1709 33.4494 46.2658Z" fill="#D2D2D2"/>
<path d="M3.40193 35.3165C4.33547 35.2532 6.01269 37.0887 5.34813 37.3419C4.60446 37.6108 2.35762 37.1995 1.58231 37.057C1.31332 37.0096 0.854458 37.2153 0.775344 36.9463C0.743699 36.8514 0.854458 36.7722 0.917749 36.6931C1.50319 36.0444 2.08864 36.2817 2.64243 35.5539C2.72155 35.4431 3.30699 35.3165 3.40193 35.3165Z" fill="#D2D2D2"/>
<path d="M34.0665 34.8735C34.0665 35.6014 33.4336 35.2375 33.038 35.2375" stroke="#2D1F04" stroke-width="0.5" stroke-miterlimit="10" stroke-linecap="round" stroke-linejoin="round"/>
<path d="M18.4494 14.3987C18.4494 14.3987 9.11392 9.77843 5.61709 20.3639C5.58544 20.4588 5.53797 20.712 5.61709 20.6487C10.6329 16.4082 13.4177 18.212 15 19.6677" stroke="#2D1F04" stroke-width="0.5" stroke-miterlimit="10" stroke-linecap="round" stroke-linejoin="round"/>
<path d="M11.5506 24.8259C11.25 25.3164 10.9177 27.2152 9.55698 28.0063" stroke="#2D1F04" stroke-width="0.5" stroke-miterlimit="10" stroke-linecap="round" stroke-linejoin="round"/>
<path d="M53.4336 36.2975C56.1234 28.9715 50.9652 21.5506 44.3038 19.7627M17.0886 19.3354C15.9336 19.5728 11.1393 22.0728 10.0633 25.0158C9.68356 26.0759 10.4114 26.4557 10.7753 26.7089M3.84495 34.7468C3.24368 35.6171 0.221533 36.5348 0.284824 36.6297C0.37976 36.7563 4.85761 37.7215 6.13925 37.2943C7.61077 36.8038 8.62343 34.4462 9.88925 33.5918C12.1836 32.0253 15.0791 33.0696 18.9874 34.0348M9.68356 27.9272C7.67406 28.924 6.07596 28.2437 5.17406 31.25C4.68356 32.8956 4.63609 33.8291 3.6709 34.9051M30.2374 2.37341C26.8987 2.8481 24.3196 5.96519 23.75 11.5981C23.5127 13.8608 22.8006 14.5095 22.1836 14.7785M40.9969 18.2437C44.2405 7.76899 38.8291 4.36709 38.7658 4.20886M38.7817 4.20886C37.7848 3.29114 37.057 1.83544 35.7437 1.40822C35.7595 1.75633 35.7595 1.75633 35.7753 2.0886C34.9684 1.43987 34.2722 0.759491 33.3386 0.332275C33.9399 1.72468 33.75 1.15506 34.0032 1.97784C32.8481 1.5981 32.5317 0.743668 31.2184 0.632908C31.7405 0.996832 31.9462 1.28164 32.2943 1.83544C31.3133 1.50316 30.3323 1.12341 29.288 1.34493C29.7785 1.81962 29.7785 1.81962 30.2532 2.2943M33.2437 34.3513C33.0538 34.7468 32.8006 35.9968 32.6108 36.3924M27.6741 35.1108C29.9051 33.9873 32.4367 35.6013 33.2912 37.7373C33.8449 39.1456 33.7975 41.3133 33.6709 42.7848C33.5918 43.6551 33.5285 44.6202 33.6234 45.5063C33.7184 46.3608 33.9715 47.4209 34.3355 48.2278C34.3671 48.2911 35.0791 49.557 35 49.6044C34.6361 49.8576 33.7817 49.288 33.481 49.1297C32.2152 48.4968 30.6013 47.4683 29.7152 46.3608C27.6266 43.75 27.2943 40.0475 25.1899 37.6899C23.7817 36.1076 20.5063 34.4146 18.6709 33.9557M38.8291 27.0728C34.9842 27.9747 34.0506 34.0348 34.0823 34.8418M53.5443 36.0601C53.5443 34.5886 51.3924 24.0348 38.9399 27.057" stroke="#2D1F04" stroke-width="0.5" stroke-miterlimit="10" stroke-linecap="round" stroke-linejoin="round"/>
<path d="M31.8196 1.40811C31.8196 1.39229 31.8196 1.39229 31.8196 1.37646" stroke="#2D1F04" stroke-width="0.5" stroke-miterlimit="10" stroke-linecap="round" stroke-linejoin="round"/>
<path d="M33.5443 46.0285C32.5158 45.3007 30.6646 45.6646 29.7627 46.3292" stroke="#2D1F04" stroke-width="0.5" stroke-miterlimit="10" stroke-linecap="round" stroke-linejoin="round"/>
<path d="M5.60127 37.3101C5.49051 36.6297 4.08228 35.0316 3.41772 35.1582" stroke="#2D1F04" stroke-width="0.5" stroke-miterlimit="10" stroke-linecap="round" stroke-linejoin="round"/>
<path d="M4.74686 35.9651C4.55699 35.9967 3.49686 36.1233 2.4842 36.2657C1.4399 36.4081 0.712051 36.598 0.696228 36.6929" stroke="#2D1F04" stroke-width="0.5" stroke-miterlimit="10" stroke-linecap="round" stroke-linejoin="round"/>
<path d="M54.0348 31.7881C53.481 32.2786 53.0063 32.0887 52.3576 32.0413" stroke="#2D1F04" stroke-width="0.5" stroke-miterlimit="10" stroke-linecap="round" stroke-linejoin="round"/>
<path d="M53.3544 32.231C53.5601 33.3702 53.8608 34.636 53.5285 35.7436" stroke="#2D1F04" stroke-width="0.5" stroke-miterlimit="10" stroke-linecap="round" stroke-linejoin="round"/>
<path d="M6.3133 18.7183C6.21836 19.0664 6.39241 19.541 6.59811 19.81" stroke="#2D1F04" stroke-width="0.5" stroke-miterlimit="10" stroke-linecap="round" stroke-linejoin="round"/>
<path d="M33.212 34.3196C33.212 33.1171 29.3355 29.9525 28.3386 29.2563C27.1994 28.4652 26.0127 27.769 24.7943 27.1044C21.6614 25.3797 14.462 23.1171 10.8703 24.905" stroke="#2D1F04" stroke-width="0.5" stroke-miterlimit="10" stroke-linecap="round" stroke-linejoin="round"/>
<path d="M34.2405 9.1773C32.8639 9.8735 30.4747 9.98426 28.8766 8.90831C28.212 8.46528 27.6899 7.83236 27.4209 6.94629" stroke="#2D1F04" stroke-width="0.5" stroke-miterlimit="10" stroke-linecap="round" stroke-linejoin="round"/>
<path d="M39.4937 19.193C39.462 19.2088 39.4304 19.2246 39.3987 19.2404C38.5127 19.6835 37.2627 19.7626 36.2975 19.8892C32.769 20.3955 24.3671 18.5126 22.5316 14.8101" stroke="#2D1F04" stroke-width="0.5" stroke-miterlimit="10" stroke-linecap="round" stroke-linejoin="round"/>
<path d="M22.2943 14.8733C21.8038 14.8733 19.826 13.5759 19.7627 13.6075C17.3576 14.81 15.1424 17.3733 15.1424 20.174" stroke="#2D1F04" stroke-width="0.5" stroke-miterlimit="10" stroke-linecap="round" stroke-linejoin="round"/>
<path d="M40.9968 18.2121C40.9019 18.133 45.7912 18.133 45.3165 19.9684" stroke="#2D1F04" stroke-width="0.5" stroke-miterlimit="10" stroke-linecap="round" stroke-linejoin="round"/>
<path d="M44.4304 19.5095C43.8766 19.4936 43.1804 20.5538 42.8639 20.9493C41.5507 22.5791 41.0285 24.5569 40.9969 26.5981" stroke="#2D1F04" stroke-width="0.5" stroke-miterlimit="10" stroke-linecap="round" stroke-linejoin="round"/>
<path d="M39.1298 8.43352C37.0886 7.76896 35.1741 6.50314 34.1298 5.49048" stroke="#2D1F04" stroke-width="0.5" stroke-miterlimit="10" stroke-linecap="round" stroke-linejoin="round"/>
<path d="M33.576 8.18049C34.6361 7.80074 35.6804 8.27543 36.4399 9.00327" stroke="#2D1F04" stroke-width="0.5" stroke-miterlimit="10" stroke-linecap="round" stroke-linejoin="round"/>
<path d="M28.75 6.43976C28.1804 5.88596 27.0095 5.60115 26.25 5.88596" stroke="#2D1F04" stroke-width="0.5" stroke-miterlimit="10" stroke-linecap="round" stroke-linejoin="round"/>
<path d="M34.7627 49.2879C32.9272 47.9905 31.4082 45.8544 31.4241 45.8228" stroke="#2D1F04" stroke-width="0.5" stroke-miterlimit="10" stroke-linecap="round" stroke-linejoin="round"/>
<path d="M29.9842 4.35132C27.6583 5.15828 25.4589 4.55701 25.364 4.54119" stroke="#2D1F04" stroke-width="0.5" stroke-miterlimit="10" stroke-linecap="round" stroke-linejoin="round"/>
<path d="M20.6171 14.0664C18.9241 14.5727 17.4684 16.7563 16.4874 18.0854" stroke="#2D1F04" stroke-width="0.5" stroke-miterlimit="10" stroke-linecap="round" stroke-linejoin="round"/>
<path d="M44.019 18.4651C42.5633 18.6866 41.2025 21.2183 40.4431 22.2467" stroke="#2D1F04" stroke-width="0.5" stroke-miterlimit="10" stroke-linecap="round" stroke-linejoin="round"/>
<path d="M39.9051 26.5981C39.8101 25.9335 39.8734 25.3165 39.9842 24.6677" stroke="#2D1F04" stroke-width="0.5" stroke-miterlimit="10" stroke-linecap="round" stroke-linejoin="round"/>
<path d="M26.4715 18.1646L26.4082 18.2437L26.345 18.3544L26.2975 18.4335L26.1709 18.6709" stroke="#2D1F04" stroke-width="0.5" stroke-miterlimit="10" stroke-linecap="round" stroke-linejoin="round"/>
<path d="M27.2943 18.5601L27.1203 18.829L27.0886 18.9556L27.0411 19.0347" stroke="#2D1F04" stroke-width="0.5" stroke-miterlimit="10" stroke-linecap="round" stroke-linejoin="round"/>
<path d="M18.212 14.5728C18.2753 14.6044 18.3386 14.6519 18.4019 14.6835" stroke="#2D1F04" stroke-width="0.5" stroke-miterlimit="10" stroke-linecap="round" stroke-linejoin="round"/>
<path d="M17.4209 15.4431L17.943 15.7912" stroke="#2D1F04" stroke-width="0.5" stroke-miterlimit="10" stroke-linecap="round" stroke-linejoin="round"/>
<path d="M18.8766 14.114L19.4146 14.4621" stroke="#2D1F04" stroke-width="0.5" stroke-miterlimit="10" stroke-linecap="round" stroke-linejoin="round"/>
<path d="M18.2911 14.6519L18.8291 14.9841" stroke="#2D1F04" stroke-width="0.5" stroke-miterlimit="10" stroke-linecap="round" stroke-linejoin="round"/>
<path d="M16.2342 17.2942L16.7563 17.6423" stroke="#2D1F04" stroke-width="0.5" stroke-miterlimit="10" stroke-linecap="round" stroke-linejoin="round"/>
<path d="M41.962 20.0474L42.5158 20.4271" stroke="#2D1F04" stroke-width="0.5" stroke-miterlimit="10" stroke-linecap="round" stroke-linejoin="round"/>
<path d="M41.3924 20.8069L42.0095 21.1866" stroke="#2D1F04" stroke-width="0.5" stroke-miterlimit="10" stroke-linecap="round" stroke-linejoin="round"/>
<path d="M14.1298 14.7468C14.0032 14.9051 13.8291 15.1424 13.7025 15.3164" stroke="#9D7B51" stroke-width="0.5" stroke-miterlimit="10" stroke-linecap="round" stroke-linejoin="round"/>
<path d="M15.2848 14.9209C15.1582 15.0791 14.9842 15.3165 14.8576 15.4905" stroke="#9D7B51" stroke-width="0.5" stroke-miterlimit="10" stroke-linecap="round" stroke-linejoin="round"/>
<path d="M30.9336 38.1487C30.807 38.3069 30.6329 38.5442 30.5063 38.7183" stroke="#9D7B51" stroke-width="0.5" stroke-miterlimit="10" stroke-linecap="round" stroke-linejoin="round"/>
<path d="M44.7627 21.5981C44.6361 21.7564 44.462 21.9937 44.3354 22.1678" stroke="#9D7B51" stroke-width="0.5" stroke-miterlimit="10" stroke-linecap="round" stroke-linejoin="round"/>
<path d="M29.8893 37.9272C29.7627 38.0855 29.5886 38.3228 29.462 38.4969" stroke="#9D7B51" stroke-width="0.5" stroke-miterlimit="10" stroke-linecap="round" stroke-linejoin="round"/>
<path d="M38.1962 16.9463C38.0696 17.1045 37.8956 17.3419 37.769 17.5159" stroke="#9D7B51" stroke-width="0.5" stroke-miterlimit="10" stroke-linecap="round" stroke-linejoin="round"/>
<path d="M36.9146 16.9146C36.788 17.0728 36.6139 17.3101 36.4874 17.4842" stroke="#9D7B51" stroke-width="0.5" stroke-miterlimit="10" stroke-linecap="round" stroke-linejoin="round"/>
<path d="M35.3323 16.8037C35.2057 16.9619 35.0317 17.1993 34.9051 17.3733" stroke="#9D7B51" stroke-width="0.5" stroke-miterlimit="10" stroke-linecap="round" stroke-linejoin="round"/>
<path opacity="0.23" d="M29.2247 2.75326C29.193 2.75326 45.2057 1.3925 39.288 19.383C39.288 19.3988 40.9652 18.3229 40.9652 18.3229C40.9652 18.3229 43.5918 9.68364 40.0791 5.23744C39.6994 4.74693 39.0032 4.55706 38.6076 4.06655C37.943 3.24376 37.231 2.37351 36.4241 1.70895C35.6646 1.07604 35.9019 2.18364 35.6329 2.15199C35.4589 2.13617 33.8291 0.332372 33.5443 0.443132C33.307 0.522246 34.193 2.02541 34.0506 2.13617C34.019 2.15199 33.9715 2.13617 33.9399 2.12035C33.3861 1.91465 32.6582 1.5349 32.1835 1.13933C32.0253 1.01275 32.5475 1.69313 32.0728 1.80389C31.6139 1.91465 29.4462 0.854524 29.3829 1.42414C29.4146 1.43997 31.0443 2.4368 29.2247 2.75326Z" fill="#3F2719"/>
<path opacity="0.23" d="M27.5475 35.1583C27.7215 35 29.4146 33.6393 30.0633 33.0697C32.8481 30.6171 35.8544 26.345 32.1994 23.1329C29.462 20.7279 25.8861 19.5412 22.2785 19.1931C20.7279 19.0348 19.3829 19.731 17.8956 19.5412C16.9304 19.4146 16.9462 19.2564 17.0411 19.0823C17.326 18.5285 18.9874 17.7374 20.5222 18.038C21.8671 18.2912 23.2911 18.8133 24.557 19.2564C26.5506 19.9684 32.769 21.4716 35.9968 21.1709C39.6519 20.8386 41.5823 21.0918 42.2785 21.4557C42.5317 21.5823 50.269 21.8355 52.9114 27.4209C53.3228 28.307 53.8449 29.4304 53.8924 30.3956C53.9082 30.6013 53.9715 32.2469 53.7817 32.3102C53.5285 32.4051 52.8639 31.8355 52.6108 32.0253C52.4684 32.1519 52.9905 32.1203 53.1804 32.1203C53.307 32.1203 53.8291 31.8197 53.9399 31.8671C54.1614 31.9621 53.7025 34.2089 53.6709 34.557C53.6709 34.6045 53.6867 34.6519 53.6551 34.6836C53.6234 34.6994 52.8006 32.9114 52.6266 32.6424C52.3418 32.1994 52.2152 31.6772 51.9462 31.2184C51.4399 30.3798 50.5538 29.6519 49.826 28.9874C47.4842 26.8355 45.0158 26.2975 41.8671 26.4241C40.7437 26.4716 38.9557 26.8829 37.8798 27.3893C34.8892 28.7975 34.5886 31.25 34.1139 34.9367C34.0032 35.7753 33.3703 35 32.9747 35.3323C32.7374 35.5222 32.8006 36.0285 32.6424 36.1551C32.5633 36.2184 31.7563 35.5697 31.6456 35.4747C31.1234 35.0791 30.3323 34.826 29.7152 34.6678C29.0506 34.5095 27.2152 35.5064 27.5475 35.1583Z" fill="#3F2719"/>
<path opacity="0.23" d="M31.076 35.269C32.2785 35.3956 32.7057 36.8671 32.7532 37.864C32.8639 40.9969 31.7722 41.788 30.2532 43.7342C28.2278 46.345 31.5823 47.7374 32.8165 48.4336C33.2437 48.6709 33.8449 48.8133 34.3196 48.9874C34.4937 49.0507 34.8892 49.4146 34.826 49.2406C34.6994 48.8925 34.3038 48.576 34.1456 48.1804C33.6234 46.788 33.75 44.1298 33.7025 42.6425C33.6392 40.4273 34.2405 39.0982 32.8639 37.0728C32.5949 36.6773 32.3734 36.1393 31.962 35.8703" fill="#3F2719"/>
<path opacity="0.23" d="M25.1899 37.5792C24.4146 37.0887 24.2089 35.1583 17.8165 32.69C14.0981 31.2501 10.0791 30.9495 7.53165 35.1425C7.07279 35.8862 6.15506 37.0571 5.30063 37.3893C5.23734 37.4052 5.14241 37.3893 5.12658 37.4526C5.11076 37.5634 5.66456 37.5159 5.6962 37.5159C6.09177 37.421 6.48734 37.0571 6.78798 36.8039C8.03798 35.7912 9.12975 33.4811 10.8386 33.1014C14.0032 32.3893 17.3892 33.0856 20.269 34.5096C21.076 34.9052 21.7563 35.4431 22.5 35.902" fill="#3F2719"/>
<path d="M22.7374 18.2119C23.7658 18.6391 24.6361 18.9556 25.4431 19.2879C26.1076 19.5569 26.0918 20.0157 25.8228 20.2372C25.4431 20.5379 24.7943 20.5537 23.9241 20.4271C23.8766 20.4271 23.8291 20.4113 23.75 20.3955C24.2563 20.791 23.8291 21.1866 24.0032 22.2309C23.3703 21.9936 22.8006 21.8037 22.2152 21.598C22.1361 20.9967 22.1519 20.617 22.2627 20.3322C22.3101 20.1739 22.2943 20.0474 21.8196 19.9682C21.2975 20.1898 20.807 20.4746 20.5855 21.1075C20.0633 20.9493 19.5886 20.8227 19.0981 20.7119C19.9051 19.2404 21.6614 19.3986 22.7374 18.2119ZM23.4494 19.3195C23.212 19.4619 22.9431 19.5569 22.6266 19.6676C22.9431 19.7467 23.2437 19.8417 23.5601 19.9208C23.8449 19.9841 24.1139 19.9841 24.288 19.905C24.4779 19.8258 24.4779 19.6993 24.2405 19.6043C24.0348 19.5094 23.75 19.4303 23.4494 19.3195Z" fill="#2D1F04"/>
<path d="M29.731 21.8036C29.2722 21.6295 28.8608 21.4871 28.4177 21.3289C28.5285 21.139 28.4019 20.9491 28.0696 20.8226C27.8481 20.7434 27.6266 20.7118 27.4209 20.8067C27.3101 20.9017 27.4209 20.9808 27.5633 21.0599C27.8323 21.2023 28.1171 21.3605 28.3861 21.5188C28.5443 21.6137 28.6867 21.7086 28.8291 21.8036C29.7152 22.4365 29.0665 23.196 27.943 23.4966C27.5633 23.5915 27.1519 23.6074 26.788 23.5282C26.2025 23.4017 25.6487 23.101 25.1582 22.7055C24.5095 22.1833 24.3196 21.4238 24.7785 21.0599C25.2373 21.1865 25.6962 21.3289 26.1867 21.4871C26.1709 21.5504 26.1392 21.5979 26.1234 21.6612C26.0601 21.9776 26.4557 22.3732 26.9937 22.4207C27.2468 22.4365 27.4525 22.389 27.5633 22.2466C27.6741 22.12 27.6108 21.9934 27.4684 21.8827C27.3418 21.7877 27.1994 21.7086 27.057 21.6295C26.7722 21.4555 26.4715 21.3131 26.2342 21.1548C25.7753 20.8542 25.7753 20.6485 26.1234 20.4586C26.5032 20.2529 27.057 20.0472 27.6899 20.1105C28.2753 20.158 28.8133 20.3479 29.288 20.7118C29.8101 21.0599 29.9367 21.4713 29.731 21.8036Z" fill="#2D1F04"/>
</g>
<defs>
<clipPath id="clip0_196_342">
<rect width="54.4304" height="50" fill="white"/>
</clipPath>
</defs>
</svg>
