<svg width="150" height="200" viewBox="0 0 150 200" fill="none" xmlns="http://www.w3.org/2000/svg">
<g clip-path="url(#clip0_172_636)">
<rect width="150" height="200" fill="#FDFDFF"/>
<rect width="150" height="200" rx="15" fill="#C5C5C9"/>
<g clip-path="url(#clip1_172_636)">
<path d="M109.105 71.6352C96.5716 76.4234 79.6723 85.5771 68.7817 101.162C66.3876 101.209 63.9936 101.162 61.5526 100.974C58.1727 93.5104 50.7558 85.718 41.8837 82.5728C40.804 79.991 39.8652 77.2683 39.208 74.4987C38.8325 72.9966 38.5508 71.4944 38.363 69.9923C38.3161 69.7576 38.3161 69.5698 38.2692 69.3351C38.2692 69.2881 38.2692 69.2412 38.2692 69.1473C38.2692 68.9126 38.2222 68.7248 38.2222 68.4901C38.2222 68.2554 38.1753 68.0207 38.1753 67.786C38.1753 67.6921 38.1753 67.6451 38.1753 67.5982C38.1753 67.3635 38.1753 67.1757 38.1283 66.9879C38.1283 66.5655 38.0814 66.096 38.0814 65.6736C38.0814 65.4389 38.0814 65.1572 38.0814 64.9225C38.0814 64.6878 38.0814 64.4531 38.1283 64.1714C38.363 60.0874 39.4427 56.0034 41.696 52.2011C43.0573 49.9009 44.6533 48.1171 46.6718 46.6619C45.5452 47.2252 42.8695 45.6761 43.4798 43.9393C43.5267 43.7515 44.0431 44.4087 45.3575 44.4087C46.6249 44.4087 47.376 43.8454 47.4229 43.7515C47.5168 43.5168 47.0004 43.4698 46.7188 43.4698C43.3389 43.0943 41.6021 39.0103 45.3575 36.6632C45.4513 36.5693 45.8738 38.1653 46.8596 38.8695C48.174 39.8083 50.1456 39.9022 50.1456 39.4328C47.2821 37.5551 48.7842 32.8139 52.8213 32.0628C52.8682 32.0628 52.1172 36.006 56.6706 36.851C56.2011 34.1752 57.14 31.6873 59.0177 30.1851C62.6792 27.2747 67.5143 29.481 67.6081 29.5279C68.0306 29.7157 65.261 30.7484 65.1671 33.2833C65.0733 35.208 66.3876 36.2876 67.6551 36.5693C67.9367 36.6162 68.547 36.6632 68.547 36.6632C68.547 36.6632 67.1857 33.9405 70.2369 33.4711C70.2839 33.4711 69.9083 34.6447 70.4247 35.4427C70.941 36.1938 72.3493 36.5224 73.0065 36.804C76.5741 38.1184 80.1418 39.0103 83.5216 40.6533C94.2245 45.6761 101.454 53.5155 105.866 62.8101C107.134 65.6266 108.26 68.584 109.105 71.6352Z" fill="#C5C5C9"/>
<path d="M119.714 188.287C117.461 188.803 112.391 188.803 106.852 188.663C106.148 187.113 105.209 185.752 104.082 184.579C103.988 184.485 103.895 184.391 103.801 184.297C102.346 182.889 100.656 181.762 98.9187 180.917C98.8248 180.87 98.684 180.823 98.5432 180.729C106.289 180.495 113.565 179.79 118.963 178.335C119.151 178.945 119.386 179.603 119.573 180.213C120.277 182.278 123.235 187.442 119.714 188.287Z" fill="#C5C5C9"/>
<path d="M75.4006 186.973C72.9127 187.067 67.9368 187.207 68.2654 187.207C66.951 184.297 64.6039 181.997 62.2567 180.354C62.069 180.26 61.9281 180.119 61.7404 180.025C61.3179 179.603 60.8954 179.086 60.5199 178.476C65.7774 179.321 73.3351 180.119 81.4562 180.542C81.9256 181.856 82.4419 183.17 82.9583 184.344C84.0849 186.879 76.9497 186.926 75.4006 186.973Z" fill="#C5C5C9"/>
<path d="M63.6181 109.283C63.6181 109.189 63.6181 109.048 63.6181 108.908C63.6181 108.626 63.6181 108.344 63.5711 108.063C63.5711 108.063 63.5711 108.063 63.5711 108.016C63.4772 106.795 62.4445 102.805 61.5995 101.162C62.9139 101.209 66.7632 101.209 68.7817 101.162C67.6082 103.087 64.51 108.203 63.5242 110.269C63.5711 109.987 63.6181 109.612 63.6181 109.283Z" fill="#797979"/>
<path d="M106.852 188.662C105.631 188.616 104.364 188.569 103.097 188.569C102.533 188.569 101.923 188.522 101.36 188.522C99.9984 188.475 98.637 188.428 97.3227 188.381C97.1349 188.381 96.9471 188.381 96.7124 188.381C96.5716 188.381 96.4308 188.381 96.2899 188.381C95.5858 188.334 94.8817 188.334 94.2245 188.287C94.0836 188.287 93.8959 188.287 93.755 188.287C92.5345 188.24 91.314 188.193 90.2344 188.146C90.0935 188.146 89.9058 188.146 89.7649 188.146C89.5772 188.146 89.3894 188.146 89.2016 188.099C88.9669 188.099 88.7791 188.099 88.5444 188.052C88.3567 188.052 88.122 188.052 87.9342 188.005C87.6995 188.005 87.4648 187.958 87.277 187.958C87.0423 187.958 86.8076 187.911 86.6198 187.911C86.1973 187.864 85.8218 187.864 85.4462 187.818C85.2585 187.818 85.1176 187.771 84.9768 187.771H84.9299C84.789 187.771 84.6482 187.724 84.5543 187.724C84.4605 187.724 84.3666 187.724 84.3196 187.677C84.2727 187.677 84.2257 187.677 84.2257 187.677C84.038 187.63 83.8971 187.63 83.8033 187.583C83.7563 187.583 83.7563 187.583 83.7094 187.536C83.6624 187.536 83.6624 187.489 83.6155 187.489L83.5685 187.442V187.395C83.8502 187.02 84.1788 186.691 84.5074 186.315C84.6013 186.175 84.7421 186.081 84.8829 185.94C85.0238 185.799 85.1176 185.705 85.2585 185.564C85.3993 185.423 85.5401 185.33 85.6809 185.189C86.6667 184.344 87.8403 183.546 89.3894 182.795C89.6711 182.654 89.9527 182.513 90.2344 182.419C90.2813 182.419 90.2813 182.419 90.3282 182.372C90.4691 182.325 90.6099 182.231 90.7507 182.184C90.9385 182.091 91.1732 182.044 91.361 181.95C91.5487 181.856 91.7365 181.809 91.9243 181.762C92.0651 181.715 92.2059 181.668 92.3468 181.621C92.4876 181.574 92.6754 181.527 92.8162 181.48C92.9101 181.433 93.004 181.433 93.1448 181.386C93.2856 181.339 93.4264 181.293 93.5673 181.246C93.7081 181.199 93.8489 181.152 93.9897 181.152C94.4592 181.011 94.9286 180.917 95.445 180.776C95.6797 180.729 95.9613 180.682 96.196 180.635C96.5716 180.541 96.9941 180.495 97.4165 180.401C101.219 181.762 105.021 184.485 106.852 188.662Z" fill="#C5C5C9"/>
<path d="M68.2654 187.207C67.9368 187.207 67.6082 187.207 67.2796 187.207C61.0832 187.301 49.3476 187.912 47.8924 187.912C47.2821 187.912 46.8127 187.912 46.6249 187.724C46.3902 187.536 46.531 187.161 47.2821 186.409C47.3291 186.362 47.376 186.316 47.4229 186.269C47.4699 186.222 47.5168 186.175 47.5638 186.128C47.6577 186.034 47.7985 185.94 47.8924 185.799C48.4087 185.33 55.6848 179.744 61.7404 179.931C64.2752 181.668 66.904 184.109 68.2654 187.207Z" fill="#C5C5C9"/>
<path d="M40.851 65.2979C41.8368 61.2609 43.7145 57.7402 47.0004 56.0034C51.413 53.6562 54.2296 54.1257 58.2666 53.2338C59.9565 52.8582 61.2709 52.201 61.5526 50.5111C61.6934 49.76 61.4118 48.962 60.6607 47.8823C62.1628 47.8823 63.8058 48.4926 65.0263 49.4784C67.5143 51.4969 70.7063 51.9194 73.6168 51.8255C83.8971 51.4969 90.4221 52.7174 95.398 61.7303C96.5246 63.7488 98.2146 68.3961 97.0879 73.5598C95.398 81.1175 94.5061 84.2627 86.3382 89.8957C76.6211 96.6085 56.4828 99.9414 46.4371 87.267C41.696 81.3053 38.9733 72.9026 40.851 65.2979Z" fill="#C5C5C9"/>
<path d="M59.628 68.7719C56.2481 67.0819 53.4785 75.6255 53.7602 78.1134C54.699 86.563 67.0449 86.0936 72.7249 83.2301C80.9867 79.0992 70.8941 65.8145 64.9794 68.1616" fill="#797979"/>
<path d="M40.851 65.345C39.3019 71.6353 41.0857 78.7236 42.494 79.7563C43.5737 80.5543 49.3006 77.1275 53.103 71.4006C57.14 65.4389 57.4217 59.1486 56.342 58.1159C55.7317 57.5056 46.7188 56.6606 45.4983 56.9423C43.9961 57.3178 41.9307 61.0263 40.851 65.345Z" fill="#797979"/>
<path d="M72.4432 57.8342C71.5044 75.4845 92.4407 84.826 94.7878 81.3993C96.29 79.193 99.2473 69.9923 95.9144 62.7162C94.1775 58.9608 90.6099 54.689 88.7792 54.689C85.5402 54.6421 81.2684 55.6748 77.7947 56.4729C74.9312 57.13 72.5841 56.6606 72.4432 57.8342Z" fill="#797979"/>
<path d="M47.2352 46.2395C44.9819 47.7886 43.1512 49.7132 41.696 52.2012C35.124 63.3265 38.5978 76.3296 43.9023 86.9385C44.3717 87.8774 45.0289 88.9571 45.1697 89.9898C45.2636 90.5062 44.935 91.3981 45.1697 91.8675C45.2636 92.0553 45.733 91.3511 45.78 91.5858C45.9208 92.5716 45.78 93.6982 45.6861 94.6371C45.6391 95.0126 45.2167 95.9984 45.4983 95.7168C45.5922 95.6229 45.8269 94.8249 46.2024 94.9187C46.3902 94.9657 46.2024 100.223 46.1086 100.74" stroke="#797979" stroke-width="1.30528" stroke-miterlimit="10" stroke-linecap="round" stroke-linejoin="round"/>
<path d="M46.531 46.5681C45.4044 47.1314 42.8226 45.7232 43.3859 43.9863C43.4328 43.7985 43.9492 44.4557 45.2636 44.4557C46.531 44.4557 47.2821 43.8924 47.329 43.7985C47.4229 43.5638 46.9066 43.5169 46.6249 43.5169C43.2451 43.1413 41.5082 39.0573 45.2636 36.7102C45.3575 36.6633 45.7799 38.2124 46.7657 38.9165C48.0801 39.8554 50.0517 39.9492 50.0517 39.4798C47.1882 37.6021 48.6904 32.8609 52.7274 32.1099C52.8213 32.1099 51.8355 36.053 56.3889 36.898" stroke="#797979" stroke-width="1.30528" stroke-miterlimit="10" stroke-linecap="round" stroke-linejoin="round"/>
<path d="M111.593 91.7734C111.828 70.8372 104.223 50.3233 83.4277 40.6063C80.0479 38.9633 76.4802 38.0714 72.9126 36.757C72.2554 36.5223 70.8472 36.1468 70.3308 35.4426C69.7675 34.6446 70.143 33.471 70.143 33.471C67.1387 33.9874 68.4531 36.7101 68.4531 36.7101C68.4531 36.7101 67.8428 36.6631 67.5612 36.6162C66.2937 36.3345 64.9794 35.2548 65.0732 33.3302C65.2141 30.7953 67.9367 29.7626 67.5142 29.5748C67.4204 29.5279 62.6322 27.3216 58.9238 30.232C56.9053 31.8281 55.9664 34.5507 56.6706 37.4142" stroke="#797979" stroke-width="1.30528" stroke-miterlimit="10" stroke-linecap="round" stroke-linejoin="round"/>
<path d="M89.5302 64.7817C88.6853 69.4759 76.8558 69.8515 77.0905 63.6551C77.1844 61.1671 80.0479 60.2283 84.2727 60.2283C88.4975 60.2283 90.0466 62.059 89.5302 64.7817Z" fill="#C5C5C9"/>
<path d="M52.7274 66.1899C51.8825 70.8842 41.3674 71.4475 41.696 65.2511C41.8368 62.7631 44.3717 61.7773 48.1271 61.7304C51.8825 61.6835 53.1969 63.4673 52.7274 66.1899Z" fill="#C5C5C9"/>
<path d="M89.6241 63.8428C88.1689 61.9182 85.5871 61.6365 82.395 62.106C79.6254 62.5284 77.9824 63.3265 77.1375 64.3592C77.0905 64.1245 77.0905 63.8898 77.0905 63.6551C77.1844 61.1671 80.0479 60.2283 84.2258 60.2283C87.9812 60.2283 89.6241 61.6365 89.6241 63.8428Z" fill="#C5C5C9"/>
<path d="M52.7744 65.6739C51.6477 63.4207 49.4414 63.0451 46.578 63.5145C43.5736 64.0309 42.2123 65.2045 41.7898 66.7066C41.649 66.2842 41.6021 65.7678 41.649 65.2514C41.7898 62.7635 44.3247 61.7777 48.0801 61.7307C51.6008 61.6369 53.0091 63.2329 52.7744 65.6739Z" fill="#C5C5C9"/>
<path d="M57.6094 68.7717C57.5625 67.5043 60.0505 66.3307 63.1956 66.1899C66.3407 66.0491 68.9695 66.941 69.0164 68.2084C69.0634 69.4759 66.5754 70.6494 63.4303 70.7903C60.2852 70.978 57.6564 70.0392 57.6094 68.7717Z" fill="#C5C5C9"/>
<path d="M68.5001 58.3507C68.5001 58.3507 72.1146 58.0221 76.1517 57.271C81.1745 56.3321 84.038 54.032 86.2443 54.1258C88.5445 54.2197 94.9756 57.1301 94.9756 57.1301" stroke="#797979" stroke-width="3.78628" stroke-miterlimit="10" stroke-linecap="round" stroke-linejoin="round"/>
<path d="M57.5625 59.0546C57.5625 59.0546 53.9479 59.0077 50.3334 58.5852C47.0943 58.2097 43.6675 56.7075 41.8837 56.7075C39.9591 56.7545 34.6077 59.4771 34.6077 59.4771" stroke="#797979" stroke-width="3.78628" stroke-miterlimit="10" stroke-linecap="round" stroke-linejoin="round"/>
<path d="M89.5302 64.7817C88.6853 69.4759 76.8558 69.8515 77.0905 63.6551C77.1844 61.1671 80.0479 60.2283 84.2727 60.2283C88.4975 60.2283 90.0466 62.059 89.5302 64.7817Z" stroke="#797979" stroke-width="1.51948" stroke-miterlimit="10" stroke-linecap="round" stroke-linejoin="round"/>
<path d="M52.7274 66.1899C51.8825 70.8842 41.3674 71.4475 41.696 65.2511C41.8368 62.7631 44.3717 61.7773 48.1271 61.7304C51.8825 61.6835 53.1969 63.4673 52.7274 66.1899Z" stroke="#797979" stroke-width="1.51948" stroke-miterlimit="10" stroke-linecap="round" stroke-linejoin="round"/>
<path d="M81.5031 64.6411C81.5031 63.6084 82.348 62.7634 83.3808 62.7634C84.4135 62.7634 85.2585 63.6084 85.2585 64.6411C85.2585 65.6739 84.4135 66.5188 83.3808 66.5188C82.348 66.5188 81.5031 65.6739 81.5031 64.6411Z" fill="#797979"/>
<path d="M45.733 65.6738C45.733 64.6411 46.578 63.7961 47.6107 63.7961C48.6434 63.7961 49.4884 64.6411 49.4884 65.6738C49.4884 66.7066 48.6434 67.5515 47.6107 67.5515C46.578 67.5985 45.733 66.7535 45.733 65.6738Z" fill="#797979"/>
<path d="M53.2907 91.6328L51.46 96.2801" stroke="#797979" stroke-width="1.92802" stroke-miterlimit="10" stroke-linecap="round" stroke-linejoin="round"/>
<path d="M54.4643 97.6414V100.458" stroke="#797979" stroke-width="1.92802" stroke-miterlimit="10" stroke-linecap="round" stroke-linejoin="round"/>
<path d="M56.4359 156.46C55.497 166.224 54.5112 173.031 54.4173 177.35C49.3945 177.256 33.1994 175.988 33.4341 169.182C33.6219 164.44 33.9974 152.939 34.1852 147.306C26.3458 146.368 19.3983 144.725 16.6287 140.688C13.4836 136.087 12.9672 113.226 30.7115 93.886C37.0487 94.1676 41.8837 95.6229 45.3105 97.125C46.1085 97.4536 46.9066 97.8761 47.7515 98.2986C47.9393 98.3925 48.0801 98.4863 48.2679 98.5802C48.3148 98.6272 48.4087 98.6741 48.5026 98.7211C48.7373 98.8619 48.972 98.9558 49.1598 99.0966C49.2537 99.1435 49.3476 99.2374 49.4884 99.2844C52.3519 109.612 54.1826 116.888 55.5909 125.76C57.0931 135.054 56.7645 145.945 56.4359 156.46Z" fill="#C5C5C9"/>
<path d="M125.864 144.114C127.178 152.47 128.023 161.577 128.023 171.2C128.023 174.486 124.502 176.739 118.916 178.194C113.424 179.65 105.96 180.307 97.9799 180.495C97.9329 180.495 96.196 180.495 96.1491 180.542C91.2671 180.588 86.1973 180.448 81.3623 180.213C73.3351 179.79 65.8243 179.039 60.3321 178.194C58.6422 177.96 58.6422 178.147 57.3747 177.913C57.14 174.157 56.342 158.948 56.3889 156.507C56.3889 156.507 55.8726 146.414 56.4359 140.734C58.0788 135.665 59.581 133.599 62.069 129.75C62.1159 129.703 62.1159 129.656 62.1628 129.609C69.6267 112.193 94.7408 105.95 105.35 103.979C106.523 103.744 107.509 103.603 108.26 103.462L108.213 103.415H108.26C106.429 100.88 103.942 98.0638 101.594 95.7636C100.656 94.8717 99.7637 94.0267 98.9187 93.3695C102.252 91.4918 106.711 90.3183 111.499 89.5203C120.324 92.0552 123.141 97.3596 126.849 104.166C131.778 113.226 135.768 124.633 135.815 128.764C135.909 132.895 130.933 139.185 125.864 144.114Z" fill="#C5C5C9"/>
<path opacity="0.23" d="M121.404 169.087C120.935 169.932 120.184 170.637 119.245 170.965C113.987 172.984 108.401 174.016 102.58 174.016C100.28 174.016 98.3554 172.139 98.3554 169.839V152.188C99.0126 152.235 99.7167 152.282 100.421 152.282V167.961C100.421 170.261 102.299 172.139 104.646 172.139C110.467 172.139 116.006 171.106 121.31 169.087C121.31 169.087 121.357 169.087 121.404 169.087Z" fill="#797979"/>
<path d="M63.4303 110.41C61.6465 114.259 60.1913 118.437 59.2055 122.943C57.938 128.764 57.0461 134.773 56.4828 140.735C56.4828 133.693 55.8726 128.342 55.5909 125.807C54.3704 114.494 44.0431 107.781 38.0345 105.246C40.851 102.805 43.2451 101.35 46.0616 100.364C47.1413 99.9886 48.221 99.66 49.4884 99.3783C48.5026 98.7211 47.376 98.1578 46.2024 97.6415C39.4427 94.6372 29.9604 93.4636 22.966 94.9658C26.9561 86.0937 32.5422 79.4748 39.208 74.5928C39.8652 77.3154 40.8041 80.0381 41.8837 82.6199C54.746 87.1733 64.5569 101.538 63.4303 110.41Z" fill="#797979"/>
<path d="M111.593 89.3794C106.758 90.1775 102.346 91.351 98.9657 93.2287C101.923 95.6697 105.772 99.8006 108.354 103.321C100.515 104.589 71.3166 109.424 62.1629 129.703C60.2852 133.881 58.3605 138.716 55.9195 148.386C56.4828 142.424 57.985 128.764 59.2524 122.99C60.2382 118.484 61.6934 114.306 63.4772 110.457C73.3821 89.1917 94.3184 77.3622 109.152 71.6822C108.307 68.6309 107.181 65.6735 105.866 62.8101C121.263 65.9083 131.45 77.8786 135.909 87.5956C128.962 87.8773 119.761 88.0181 111.593 89.3794Z" fill="#797979"/>
<path d="M38.1283 64.2185C37.7997 70.4618 39.4427 76.7521 41.8837 82.6199" stroke="#797979" stroke-width="1.30528" stroke-miterlimit="10" stroke-linecap="round" stroke-linejoin="round"/>
<path d="M109.152 71.87C107.744 66.8941 105.772 62.1529 103.05 57.8342" stroke="#797979" stroke-width="1.30528" stroke-miterlimit="10" stroke-linecap="round" stroke-linejoin="round"/>
<path d="M117.414 151.015C122.625 147.87 135.909 136.463 135.862 128.67C135.862 124.492 131.825 113.132 126.896 104.073C123.235 97.2659 120.277 92.2431 111.546 89.4265" stroke="#797979" stroke-width="1.30528" stroke-miterlimit="10" stroke-linecap="round" stroke-linejoin="round"/>
<path d="M114.175 135.712C114.175 138.716 107.885 146.368 101.97 152.329" stroke="#797979" stroke-width="1.30528" stroke-miterlimit="10" stroke-linecap="round" stroke-linejoin="round"/>
<path d="M98.1676 119.094C99.5759 119.939 101.688 121.582 103.331 122.99C109.199 128.06 112.72 130.736 113.846 133.224C113.236 133.975 113.142 135.383 114.128 135.665" stroke="#797979" stroke-width="1.30528" stroke-miterlimit="10" stroke-linecap="round" stroke-linejoin="round"/>
<path d="M97.5105 57.5529C97.4635 57.5059 97.4635 57.5059 97.4166 57.459C96.8063 57.0365 96.243 56.8957 93.3795 56.8018C86.2443 56.4732 79.109 56.7079 75.8231 57.0834C70.1431 57.7406 68.2184 58.3509 67.0918 58.3509C65.3549 58.3509 63.8528 58.3509 63.0548 58.3039C62.2567 58.257 60.2382 57.6937 56.8584 57.3182C53.4785 56.9426 45.8738 56.2854 39.9122 56.661C33.9035 57.0365 33.0586 57.2243 32.8708 57.3651C32.3075 57.7406 32.1667 61.1674 32.5892 61.496C33.1055 61.9185 34.5607 61.9654 34.8424 62.294C35.124 62.6226 35.2649 67.3169 37.7528 70.8376C40.4285 74.6399 48.6434 74.7807 55.1684 72.1519C56.4359 71.6356 57.2808 71.1192 57.985 70.4151C58.8769 69.5232 59.4402 68.3496 60.0504 66.7066C60.8485 64.5942 61.4118 62.8574 63.0078 61.9654C63.6181 61.6368 64.3691 61.4491 65.308 61.4021C68.7817 61.2613 69.2511 67.9271 70.7064 69.9926C73.2882 73.701 83.5686 74.5929 87.4648 72.9969C94.5531 70.1334 94.7409 62.294 95.445 61.9185C96.1022 61.543 96.9471 61.7777 97.3696 61.496C97.7921 61.3552 98.0268 58.2101 97.5105 57.5529ZM58.5483 64.0779C58.4075 64.5473 58.2666 65.0167 58.0789 65.4392C57.5625 66.8944 56.9053 68.3027 55.8256 69.3354C55.3562 69.7579 54.8398 70.1334 54.2296 70.3681C53.6663 70.6028 53.0091 70.7906 52.3519 70.9784C47.9863 72.0581 41.6021 71.8233 39.9122 69.4293C39.3019 68.5843 38.6917 66.9883 38.2222 65.2984C38.1753 65.1106 38.1284 64.9228 38.0814 64.6881C37.8467 63.6084 37.612 62.6226 37.7059 61.7307C37.7998 60.698 38.3631 59.853 39.9122 59.2428C40.9449 58.8203 42.9165 58.6795 45.2167 58.6325C46.578 58.6325 47.9863 58.6795 49.4415 58.7264C53.7602 58.9611 57.5156 59.102 58.5483 60.5102C59.1116 61.4491 58.9708 62.7165 58.5483 64.0779ZM92.3937 63.7493C91.9243 65.58 90.7977 67.5516 89.5303 68.9599C88.8261 69.7579 88.075 70.3681 87.324 70.6498C87.1362 70.7437 86.9015 70.7906 86.7137 70.8845C81.7378 72.5275 74.3209 70.8845 72.5841 68.4904C71.8799 67.5046 71.4105 66.0025 71.1758 64.6412V64.5942C70.988 63.2798 70.8941 62.2002 71.2697 61.3552C71.5513 60.698 72.1146 60.1347 73.1004 59.7592C74.274 59.2897 77.0905 59.0081 80.1887 58.8672C81.0806 58.8203 81.9725 58.7734 82.8644 58.7734C87.0423 58.6325 91.0324 58.6795 92.0651 60.1816C92.7223 61.0266 92.7693 62.341 92.3937 63.7493Z" fill="#797979"/>
<path d="M97.5104 57.5529C97.088 57.0834 96.4308 56.9426 93.3795 56.8018C86.2443 56.4732 79.109 56.7079 75.87 57.0834C70.143 57.7406 68.2184 58.3509 67.1387 58.3509C65.4488 58.3509 63.8997 58.3509 63.1017 58.3039C62.3037 58.257 60.2851 57.7406 56.9053 57.3182C53.5254 56.9426 45.9208 56.2854 39.9591 56.661C33.9505 57.0365 33.1055 57.2712 32.9177 57.3651C32.3544 57.7406 32.2136 61.1674 32.6361 61.496C33.1525 61.9185 34.6077 61.9654 34.8893 62.294C35.171 62.6226 35.3118 67.3169 37.7998 70.8376C40.4755 74.6399 48.6904 74.7807 55.2154 72.1519C58.1258 70.9784 59.0646 69.6171 60.0974 66.7066C61.1771 63.7962 61.8812 61.543 65.3549 61.4491C68.8287 61.3083 69.345 68.021 70.7533 70.0395C73.3351 73.748 83.6155 74.6399 87.5117 73.0438C94.6 70.1804 94.7878 62.341 95.4919 61.9654C96.1491 61.5899 96.9941 61.8246 97.4166 61.543C97.839 61.2613 98.0268 58.2101 97.5104 57.5529Z" stroke="#797979" stroke-width="1.22989" stroke-miterlimit="10" stroke-linecap="round" stroke-linejoin="round"/>
<path opacity="0.8" d="M58.5483 64.0779C58.4075 64.5473 58.2666 65.0167 58.0789 65.4392C57.5625 66.8944 56.9053 68.3027 55.8256 69.3354C55.3562 69.7579 54.8399 70.1335 54.2296 70.3682C53.6663 70.6029 53.0091 70.7906 52.3519 70.9784C47.9863 72.0581 41.6021 71.8234 39.9122 69.4293C39.3019 68.5844 38.6917 66.9883 38.2223 65.2984C38.1753 65.1106 38.1284 64.9228 38.0814 64.6881C37.8467 63.6085 37.612 62.6227 37.7059 61.7308C37.7998 60.698 38.3631 59.8531 39.9122 59.2428C40.9449 58.8203 42.9165 58.6795 45.2167 58.6326C46.578 58.6326 47.9863 58.6795 49.4415 58.7265C53.7602 58.9612 57.5156 59.102 58.5483 60.5103C59.1116 61.4491 58.9708 62.7166 58.5483 64.0779Z" fill="#797979"/>
<path opacity="0.8" d="M92.3938 63.749C91.9243 65.5798 90.7977 67.5514 89.5303 68.9596C88.8261 69.7577 88.0751 70.3679 87.324 70.6496C87.1362 70.7435 86.9015 70.7904 86.7137 70.8843C81.7378 72.5273 74.3209 70.8843 72.5841 68.4902C71.8799 67.5044 71.4105 66.0023 71.1758 64.6409V64.594C70.988 63.2796 70.8941 62.1999 71.2697 61.355C71.5513 60.6978 72.1146 60.1345 73.1004 59.7589C74.274 59.2895 77.0905 59.0079 80.1887 58.867C81.0806 58.8201 81.9725 58.7731 82.8645 58.7731C87.0423 58.6323 91.0324 58.6793 92.0652 60.1814C92.7224 61.0264 92.7693 62.3408 92.3938 63.749Z" fill="#797979"/>
<path d="M91.5018 63.3734C91.5018 63.4204 91.4549 63.5143 91.4549 63.5612C91.0324 65.2511 89.9997 67.1288 88.7792 68.4902C88.7792 68.5371 88.7322 68.5371 88.7322 68.584L72.2085 61.6835C72.2085 61.6366 72.2554 61.5896 72.2554 61.5427C72.4902 61.0263 72.9126 60.6508 73.6168 60.3691C74.227 60.1344 75.9169 59.7589 80.3295 59.5711C80.799 59.5242 81.3153 59.5242 81.8786 59.5242L91.5018 63.3734Z" fill="#C5C5C9"/>
<path d="M85.5871 70.4149C81.1276 71.4946 74.8843 70.1333 73.476 68.1147C72.9596 67.4106 72.5371 66.284 72.3024 65.0635L85.5871 70.4149Z" fill="#C5C5C9"/>
<path d="M57.6564 63.7021C57.6564 63.749 57.6094 63.8429 57.6094 63.8898C57.4686 64.3593 57.2808 64.8756 57.187 65.2512C56.7175 66.4717 56.1542 67.8799 55.1215 68.8657C55.0745 68.9127 55.0276 68.9596 54.9807 68.9596L38.5978 62.106C38.5978 61.9652 38.5978 61.8713 38.5978 61.7774C38.6917 60.8855 39.208 60.3222 40.2877 59.8528C40.7571 59.665 41.9776 59.3834 45.1697 59.3364C45.733 59.3364 46.3433 59.3364 47.0005 59.3364L57.6564 63.7021Z" fill="#C5C5C9"/>
<path d="M51.0844 70.4619C47.0005 71.213 42.0246 70.8374 40.7571 69.0536C40.2877 68.3964 39.7244 67.129 39.3019 65.7207L51.0844 70.4619Z" fill="#C5C5C9"/>
<path d="M58.5483 64.0779C58.4075 64.5473 58.2666 65.0167 58.0789 65.4392C57.5625 66.8944 56.9053 68.3027 55.8256 69.3354C55.3562 69.7579 54.8399 70.1335 54.2296 70.3682C53.6663 70.6029 53.0091 70.7906 52.3519 70.9784C47.9863 72.0581 41.6021 71.8234 39.9122 69.4293C39.3019 68.5844 38.6917 66.9883 38.2223 65.2984C38.1753 65.1106 38.1284 64.9228 38.0814 64.6881C37.8467 63.6085 37.612 62.6227 37.7059 61.7308C37.7998 60.698 38.3631 59.8531 39.9122 59.2428C40.9449 58.8203 42.9165 58.6795 45.2167 58.6326C46.578 58.6326 47.9863 58.6795 49.4415 58.7265C53.7602 58.9612 57.5156 59.102 58.5483 60.5103C59.1116 61.4491 58.9708 62.7166 58.5483 64.0779ZM92.3937 63.7493C91.9243 65.58 90.7977 67.5516 89.5303 68.9599C88.8261 69.7579 88.075 70.3682 87.324 70.6498C87.1362 70.7437 86.9015 70.7906 86.7137 70.8845C81.7378 72.5275 74.3209 70.8845 72.5841 68.4905C71.8799 67.5047 71.4105 66.0025 71.1758 64.6412V64.5943C70.988 63.2799 70.8941 62.2002 71.2697 61.3552C71.5513 60.698 72.1146 60.1347 73.1004 59.7592C74.274 59.2898 77.0905 59.0081 80.1887 58.8673C81.0806 58.8203 81.9725 58.7734 82.8644 58.7734C87.0423 58.6326 91.0324 58.6795 92.0652 60.1817C92.7223 61.0266 92.7693 62.341 92.3937 63.7493Z" stroke="#797979" stroke-width="1.30528" stroke-miterlimit="10" stroke-linecap="round" stroke-linejoin="round"/>
<path d="M113.659 43.7048C113.799 52.2483 89.9527 67.6924 59.0646 66.0494C30.3828 64.5003 21.9802 55.8629 21.8863 49.1032C21.7454 44.2681 25.8294 37.6023 41.8368 32.7203C41.8837 31.1712 41.8837 29.3404 41.9307 27.1811C42.0245 19.2009 40.7102 11.0799 48.2679 10.939C59.1116 10.7513 66.2468 17.2763 71.8329 17.0885C79.8601 15.9149 86.8076 12.629 90.2344 13.6148C95.1164 15.023 97.1818 18.7784 94.9286 26.9933C94.5531 28.3547 94.2714 29.5282 94.0836 30.6079C105.913 33.6591 113.565 38.9636 113.659 43.7048Z" fill="#797979"/>
<path opacity="0.32" d="M113.659 43.7045C113.799 51.9195 91.7365 66.5655 62.5384 66.143C90.4691 65.6736 111.265 51.6847 111.124 43.7045C111.077 39.7144 105.631 35.3488 96.8532 32.2037C97.886 31.8751 98.8248 32.1098 100.656 32.6731H100.703C108.683 35.7713 113.565 39.9492 113.659 43.7045Z" fill="#C5C5C9"/>
<path d="M94.4592 40.325C90.8916 47.3663 78.8743 55.0179 64.4161 55.2057C48.9251 55.4404 40.2877 50.3237 40.1469 43.3293C44.7942 46.1927 54.746 48.0704 62.7262 47.9766C70.7064 47.8357 87.7464 44.9722 94.4592 40.325Z" fill="#797979"/>
<path opacity="0.23" d="M58.5013 19.7639C58.3136 21.1253 49.2537 31.124 48.5026 46.3802C45.1228 45.5822 42.1654 44.5495 40.1469 43.329C41.3674 39.5267 41.696 36.804 41.7899 32.72C41.8368 31.1709 41.8368 29.3402 41.8837 27.1808C41.9776 19.2006 40.6632 11.0796 48.221 10.9388C51.5539 10.8918 54.5582 11.4551 57.2339 12.3001C54.9807 11.8307 52.6336 11.6429 52.1641 12.7695C51.46 14.4125 58.6891 18.3557 58.5013 19.7639Z" fill="#C5C5C9"/>
<path opacity="0.23" d="M71.786 17.0884C71.7391 17.0884 71.7391 17.0884 71.786 17.0884C68.3123 17.6048 64.6508 17.6987 60.9423 16.9476C62.6322 16.9476 65.5427 17.0415 67.7959 16.3843C69.2042 16.8068 70.5186 17.1354 71.786 17.0884Z" fill="#797979"/>
<path opacity="0.23" d="M110.138 50.3705C102.439 58.4446 82.8175 67.3167 59.0177 66.0024C30.3359 64.4533 21.9332 55.8159 21.8393 49.0562C21.7924 46.2866 23.1537 42.8598 27.4255 39.5269C25.1253 42.1087 24.2803 44.6436 24.3273 46.8029C24.4212 53.5626 32.8238 62.2 61.5056 63.7491C83.0991 64.9227 101.219 57.7405 110.138 50.3705Z" fill="#C5C5C9"/>
<path opacity="0.23" d="M94.4592 40.3247C94.2245 37.3674 94.9756 33.0487 96.2899 32.4384C97.5574 31.8282 98.4962 32.0629 100.656 32.7201C98.4962 31.9221 96.0552 31.124 94.0367 30.6077C93.004 36.006 94.0367 38.1654 94.4592 40.3247Z" fill="#C5C5C9"/>
<path d="M60.8954 148.527C62.3472 148.527 63.5242 147.35 63.5242 145.898C63.5242 144.446 62.3472 143.269 60.8954 143.269C59.4436 143.269 58.2666 144.446 58.2666 145.898C58.2666 147.35 59.4436 148.527 60.8954 148.527Z" fill="#797979"/>
<path opacity="0.23" d="M128.07 171.2C128.07 171.622 128.023 172.045 127.882 172.467C127.835 172.561 127.835 172.608 127.788 172.702C127.741 172.843 127.647 173.031 127.601 173.172C127.554 173.265 127.507 173.312 127.46 173.406C127.366 173.547 127.272 173.735 127.178 173.876C127.131 173.923 127.084 174.016 127.037 174.11C126.99 174.157 126.943 174.251 126.849 174.298C126.145 175.096 125.206 175.753 124.033 176.364C123.939 176.411 123.798 176.457 123.704 176.504C123.61 176.551 123.517 176.598 123.423 176.645C123.329 176.692 123.235 176.739 123.141 176.786C123 176.833 122.859 176.927 122.719 176.974C122.578 177.021 122.437 177.115 122.249 177.162C122.108 177.209 121.967 177.255 121.827 177.302C121.545 177.396 121.216 177.537 120.888 177.631C120.747 177.678 120.559 177.725 120.418 177.772C119.949 177.913 119.433 178.054 118.916 178.194C118.635 178.288 118.353 178.335 118.024 178.429C117.79 178.476 117.555 178.523 117.32 178.617C117.273 178.617 117.179 178.664 117.085 178.664C116.804 178.711 116.475 178.805 116.194 178.852H116.147C115.818 178.898 115.489 178.992 115.161 179.039C110.232 179.931 104.27 180.354 97.9799 180.495C97.9799 180.495 96.1491 180.541 96.1022 180.541C91.2202 180.588 86.1504 180.448 81.3153 180.213C73.2882 179.79 65.7774 179.039 60.2851 178.194C58.5952 177.96 58.5952 178.147 57.3278 177.913C57.0931 174.157 56.295 158.948 56.342 156.507C56.342 156.507 55.8256 146.414 56.3889 140.734C58.0319 135.665 59.9096 133.083 58.2197 138.153C57.6564 143.879 58.1727 153.925 58.1727 153.925C58.1258 156.366 58.8769 175.096 62.1159 175.613C67.5612 176.504 75.072 177.209 83.1461 177.631C87.9811 177.866 93.0509 178.007 97.9329 177.96C97.9329 177.96 99.7637 177.913 99.8106 177.913C105.444 177.819 110.795 177.443 115.442 176.692C115.536 176.692 115.63 176.645 115.677 176.645C118.259 176.129 122.155 172.796 122.343 168.994C122.578 165.05 122.108 154.113 121.967 150.029C120.841 150.404 118.541 150.827 117.367 151.062C119.198 149.794 123.751 146.18 125.817 144.396C127.225 152.658 128.07 161.671 128.07 171.2Z" fill="#797979"/>
<path d="M54.6051 144.208C53.7132 144.912 52.6805 145.851 50.3334 145.992C50.0986 144.443 49.3945 140.594 49.8639 137.871C50.4272 140.171 51.413 144.021 54.6051 144.208Z" fill="#C5C5C9"/>
<path d="M63.9467 131.205C64.1344 131.487 64.0875 132.895 62.867 133.834C59.3932 136.51 58.2197 143.645 54.6051 144.208C51.3661 143.833 50.1456 140.077 49.9109 137.636C51.5069 136.134 52.3049 134.304 55.4031 132.285C60.2382 129.281 63.4303 130.454 63.9467 131.205Z" fill="#C5C5C9"/>
<path d="M44.8411 148.339C45.4115 148.339 45.8738 147.877 45.8738 147.306C45.8738 146.736 45.4115 146.274 44.8411 146.274C44.2707 146.274 43.8084 146.736 43.8084 147.306C43.8084 147.877 44.2707 148.339 44.8411 148.339Z" fill="#797979"/>
<path opacity="0.23" d="M135.909 128.67C135.909 132.942 130.933 139.185 125.911 144.114C125.911 144.208 125.958 144.255 125.958 144.349C122.765 147.353 119.526 149.841 117.461 151.062C112.438 152.001 106.711 152.423 101.97 152.376C102.533 151.813 103.097 151.203 103.66 150.639C108.072 150.921 112.579 150.968 114.457 150.358C116.851 149.56 119.714 147.635 123 144.067C126.709 140.077 131.356 133.083 132.107 129.797C133.374 124.446 126.521 113.696 121.874 104.354C118.916 98.3456 114.363 95.4351 108.636 95.529C107.134 95.576 105.96 95.6698 105.256 95.8576C109.809 100.505 112.673 105.809 114.128 110.457C92.1121 106.889 66.2468 122.99 62.6792 128.576C70.6125 111.865 95.0225 105.809 105.444 103.885C106.617 103.65 107.603 103.509 108.354 103.368L108.307 103.321H108.354C106.523 100.787 104.035 97.97 101.688 95.6698C100.749 94.7779 99.8576 93.933 99.0126 93.2758C101.829 91.7267 105.35 90.647 109.246 89.849C109.622 89.7551 110.044 89.7082 110.42 89.6143C110.795 89.5204 111.171 89.4735 111.546 89.4265C111.593 89.4265 111.64 89.4735 111.687 89.4735C117.508 91.3981 120.747 94.3555 123.376 98.1578C124.502 99.7538 125.488 101.538 126.568 103.462C126.662 103.65 126.802 103.885 126.896 104.073C128.023 106.138 129.103 108.344 130.088 110.551C130.323 111.067 130.558 111.583 130.746 112.053C130.886 112.334 131.027 112.663 131.121 112.945C131.356 113.461 131.544 113.977 131.731 114.447C131.778 114.635 131.872 114.775 131.919 114.963C132.248 115.761 132.529 116.559 132.858 117.31C134.736 122.239 135.862 126.464 135.909 128.67Z" fill="#797979"/>
<path opacity="0.23" d="M123.423 98.1577C120.794 94.3554 117.555 91.398 111.734 89.4734C116.1 90.7408 121.122 93.9799 123.423 98.1577Z" fill="#797979"/>
<path opacity="0.32" d="M59.6749 127.403C60.0974 121.77 61.9751 116.277 64.463 111.255C72.3963 95.4349 87.6525 80.695 109.575 73.2312C107.134 76.0947 104.927 78.1602 102.439 80.0848C87.9811 90.6468 68.0776 95.0125 59.6749 127.403Z" fill="#C5C5C9"/>
<path opacity="0.32" d="M39.9591 83.0891C48.7373 86.1873 61.4118 95.0594 62.4445 109.987C59.6749 93.9328 45.6861 91.4449 39.9591 83.0891Z" fill="#C5C5C9"/>
<path opacity="0.23" d="M42.2593 175.8C37.5181 174.627 33.3402 172.608 33.4811 169.135C33.6688 164.44 34.0444 153.033 34.2321 147.306C36.2037 147.494 37.7998 147.635 39.255 147.729C38.8794 156.085 38.5978 165.52 38.5039 168.477C38.41 172.749 39.255 174.721 42.2593 175.8Z" fill="#797979"/>
<path opacity="0.23" d="M34.9363 133.928V133.834C35.4526 133.693 35.7343 133.458 35.7343 133.13C35.7343 132.895 35.5935 132.613 35.3118 132.332C35.4526 131.628 35.4996 130.876 35.5465 130.125C35.5465 129.985 35.5465 129.797 35.5465 129.656C35.5935 128.201 35.5465 126.699 35.4996 125.103C35.4526 124.023 35.4526 122.896 35.4526 121.676C35.4996 119 35.8282 116.043 36.814 112.663V112.71C35.7812 124.962 39.0672 129.891 39.0672 134.82C37.612 134.35 36.767 134.209 34.9363 133.928Z" fill="#797979"/>
<path opacity="0.32" d="M85.2585 16.9004C81.8317 18.027 74.6964 20.2333 71.0819 20.5619C67.4673 20.8905 66.0121 24.8806 74.1331 23.754C82.3011 22.6274 89.0139 20.468 90.6099 19.2945C92.2059 18.1209 90.9385 15.0227 85.2585 16.9004Z" fill="#C5C5C9"/>
<path opacity="0.23" d="M111.734 89.4735C111.687 89.4735 111.64 89.4265 111.593 89.4265C111.64 89.4265 111.687 89.4735 111.734 89.4735Z" fill="#797979"/>
<path opacity="0.23" d="M49.5353 99.3782C48.7843 99.5659 48.0332 99.7537 47.329 99.9884C46.531 100.223 45.8269 100.505 45.0758 100.786C39.9591 95.2942 32.5422 98.2985 31.4156 98.721C29.7726 99.3312 24.4681 107.452 21.5107 117.545C18.6473 127.45 18.7881 137.448 21.9802 139.608C25.1722 141.767 34.0444 143.739 42.1184 144.302C42.1654 145.429 42.3532 146.602 42.6348 147.87C40.1938 147.87 37.612 147.729 34.1852 147.4C27.0969 146.555 20.7127 145.147 17.5206 141.861C17.4268 141.767 17.2859 141.626 17.192 141.532C17.0043 141.298 16.8165 141.063 16.6287 140.828C15.4552 139.091 14.6572 134.82 15.0327 129.093C15.0796 128.764 15.0796 128.436 15.1266 128.107C15.1735 127.778 15.1735 127.497 15.2205 127.168C15.2674 126.605 15.3613 126.088 15.4552 125.525C15.5021 125.15 15.5491 124.821 15.596 124.445C15.6429 124.258 15.6429 124.023 15.6899 123.835C15.7368 123.507 15.8307 123.131 15.8777 122.802C15.9246 122.615 15.9715 122.427 15.9715 122.239C16.0185 122.051 16.0654 121.864 16.1124 121.676C16.1593 121.488 16.2063 121.3 16.2532 121.112C16.3471 120.784 16.394 120.408 16.4879 120.08C16.5348 119.986 16.5348 119.892 16.5818 119.798C16.7226 119.282 16.8634 118.718 17.0043 118.202C17.192 117.592 17.3798 117.029 17.5676 116.418C17.8492 115.62 18.1309 114.775 18.4125 113.977C18.5064 113.789 18.5534 113.555 18.6473 113.367C19.5861 110.879 20.7597 108.344 22.2149 105.809C22.3088 105.622 22.4026 105.481 22.4965 105.293C22.8251 104.73 23.1537 104.213 23.4823 103.65C23.6231 103.415 23.764 103.227 23.9048 102.993C24.0456 102.758 24.1865 102.57 24.3273 102.336C24.4681 102.101 24.6089 101.913 24.7498 101.678C24.8906 101.491 24.9845 101.303 25.1253 101.115C25.2192 100.974 25.3131 100.833 25.407 100.693C25.5478 100.505 25.6886 100.27 25.8294 100.082C25.8764 99.9884 25.9703 99.8945 26.0642 99.8007C26.205 99.5659 26.3927 99.3782 26.5336 99.1435C26.6744 98.9087 26.8622 98.721 27.0499 98.4863C27.1908 98.2985 27.3785 98.0638 27.5194 97.876C27.6132 97.7821 27.7071 97.6413 27.801 97.5474C27.9888 97.3127 28.1296 97.1249 28.3174 96.9372C28.4582 96.7494 28.599 96.5616 28.7868 96.3739C29.3501 95.7167 29.8665 95.1064 30.4767 94.4492C36.0629 94.5431 42.0715 95.8105 46.6719 97.9699V97.923C46.9535 98.0638 47.2821 98.2046 47.5638 98.3924C47.6107 98.4393 47.6576 98.4393 47.7046 98.4863C47.7515 98.5332 47.7985 98.5332 47.8454 98.5801C47.8924 98.6271 47.9862 98.674 48.0801 98.674C48.0801 98.674 48.1271 98.674 48.1271 98.721C48.5965 98.8149 49.0659 99.0965 49.5353 99.3782Z" fill="#797979"/>
<path opacity="0.23" d="M50.3334 147.729C49.4884 147.729 48.7373 147.823 47.0004 147.869C46.8596 146.884 46.7188 145.71 46.6718 144.49C47.7046 144.49 48.7843 144.443 49.8639 144.396C50.0048 145.569 50.1456 146.743 50.3334 147.729Z" fill="#797979"/>
<path d="M55.6378 125.854L52.9621 117.592C54.3704 120.033 55.3562 122.756 55.6378 125.854Z" fill="#797979"/>
<path d="M73.0535 125.103C75.3067 125.244 77.513 125.291 79.7193 125.431C81.5031 125.525 82.1603 126.652 82.3011 127.732C82.4889 129.234 81.7378 130.266 80.2357 130.783C80.1418 130.83 80.0479 130.83 79.9071 130.877C81.7848 131.816 82.1603 133.693 83.193 135.242C81.8786 135.242 80.752 135.242 79.5315 135.242C78.9213 134.257 78.2641 133.224 77.6538 132.144C77.3252 131.581 76.8558 131.158 75.9639 131.346C75.9639 132.661 76.0578 133.975 76.1517 135.336C75.072 135.383 74.0862 135.383 73.0065 135.43C72.631 132.05 72.631 128.67 73.0535 125.103ZM76.0578 127.356C76.0109 128.013 76.0109 128.67 76.0109 129.421C76.715 129.375 77.4191 129.375 78.0763 129.328C78.6866 129.234 79.0152 128.905 79.0152 128.389C79.0152 127.872 78.7335 127.45 78.0763 127.403C77.4661 127.309 76.7619 127.356 76.0578 127.356Z" fill="#797979"/>
<path d="M92.2529 128.06C91.2202 128.154 90.2813 128.201 89.2486 128.295C89.0608 127.45 88.4975 127.027 87.6056 126.981C87.0423 126.981 86.5729 127.121 86.3851 127.732C86.4321 128.201 86.8076 128.389 87.2301 128.483C87.9812 128.67 88.7792 128.811 89.5303 129.046C89.9527 129.14 90.3752 129.281 90.7977 129.468C93.4265 130.548 93.0979 133.505 91.1732 134.726C90.563 135.148 89.765 135.383 89.0608 135.477C87.8873 135.665 86.7137 135.571 85.5871 135.289C84.0849 134.867 83.0992 133.693 83.0522 132.05C84.038 132.003 85.0238 131.956 86.0565 131.909C86.1035 132.097 86.1504 132.285 86.2443 132.473C86.6198 133.412 87.6526 133.881 88.6384 133.505C89.1078 133.365 89.4364 133.036 89.4364 132.567C89.4833 132.144 89.2017 131.816 88.7792 131.675C88.4506 131.534 88.075 131.44 87.6995 131.346C86.9484 131.111 86.1504 130.971 85.4463 130.689C84.038 130.173 83.3339 129.187 83.3808 128.107C83.4278 126.84 84.3197 125.854 85.7279 125.478C87.0423 125.103 88.4036 125.056 89.8119 125.431C91.2671 125.713 92.0182 126.558 92.2529 128.06Z" fill="#797979"/>
<path opacity="0.23" d="M119.714 188.287C117.461 188.803 112.391 188.803 106.852 188.663C106.148 187.113 105.209 185.752 104.082 184.579C103.988 184.485 103.895 184.391 103.801 184.297C102.346 182.889 100.656 181.762 98.9187 180.917C98.8248 180.87 98.684 180.823 98.5432 180.729C106.289 180.495 113.565 179.79 118.963 178.335C119.151 178.945 119.386 179.603 119.573 180.213C120.277 182.278 123.235 187.442 119.714 188.287Z" fill="#C5C5C9"/>
<path opacity="0.23" d="M75.4006 186.973C72.9127 187.067 67.9368 187.207 68.2654 187.207C66.951 184.297 64.6039 181.997 62.2567 180.354C62.069 180.26 61.9281 180.119 61.7404 180.025C61.3179 179.603 60.8954 179.086 60.5199 178.476C65.7774 179.321 73.3351 180.119 81.4562 180.542C81.9256 181.856 82.4419 183.17 82.9583 184.344C84.0849 186.879 76.9497 186.926 75.4006 186.973Z" fill="#C5C5C9"/>
<g opacity="0.23">
<path d="M106.852 188.662C105.631 188.616 104.364 188.569 103.097 188.569C102.533 188.569 101.923 188.522 101.36 188.522C99.9984 188.475 98.637 188.428 97.3227 188.381C97.1349 188.381 96.9471 188.381 96.7124 188.381C96.5716 188.381 96.4308 188.381 96.2899 188.381C95.5858 188.334 94.8817 188.334 94.2245 188.287C94.0836 188.287 93.8959 188.287 93.755 188.287C92.5345 188.24 91.314 188.193 90.2344 188.146C90.0935 188.146 89.9058 188.146 89.7649 188.146C89.5772 188.146 89.3894 188.146 89.2016 188.099C88.9669 188.099 88.7791 188.099 88.5444 188.052C88.3567 188.052 88.122 188.052 87.9342 188.005C87.6995 188.005 87.4648 187.958 87.277 187.958C87.0423 187.958 86.8076 187.911 86.6198 187.911C86.1973 187.864 85.8218 187.864 85.4462 187.818C85.2585 187.818 85.1176 187.771 84.9768 187.771H84.9299C84.789 187.771 84.6482 187.724 84.5543 187.724C84.4605 187.724 84.3666 187.724 84.3196 187.677C84.2727 187.677 84.2257 187.677 84.2257 187.677C84.038 187.63 83.8971 187.63 83.8033 187.583C83.7563 187.583 83.7563 187.583 83.7094 187.536C83.6624 187.536 83.6624 187.489 83.6155 187.489L83.5685 187.442V187.395C83.8502 187.02 84.1788 186.691 84.5074 186.315C84.6013 186.175 84.7421 186.081 84.8829 185.94C85.0238 185.799 85.1176 185.705 85.2585 185.564C85.3993 185.423 85.5401 185.33 85.6809 185.189C86.6667 184.344 87.8403 183.546 89.3894 182.795C89.6711 182.654 89.9527 182.513 90.2344 182.419C90.2813 182.419 90.2813 182.419 90.3282 182.372C90.4691 182.325 90.6099 182.231 90.7507 182.184C90.9385 182.091 91.1732 182.044 91.361 181.95C91.5487 181.856 91.7365 181.809 91.9243 181.762C92.0651 181.715 92.2059 181.668 92.3468 181.621C92.4876 181.574 92.6754 181.527 92.8162 181.48C92.9101 181.433 93.004 181.433 93.1448 181.386C93.2856 181.339 93.4264 181.293 93.5673 181.246C93.7081 181.199 93.8489 181.152 93.9897 181.152C94.4592 181.011 94.9286 180.917 95.445 180.776C95.6797 180.729 95.9613 180.682 96.196 180.635C96.5716 180.541 96.9941 180.495 97.4165 180.401C101.219 181.762 105.021 184.485 106.852 188.662Z" fill="#797979"/>
<path d="M68.2654 187.207C67.9368 187.207 67.6082 187.207 67.2796 187.207C61.0832 187.301 49.3476 187.912 47.8924 187.912C47.2821 187.912 46.8127 187.912 46.6249 187.724C46.3902 187.536 46.531 187.161 47.2821 186.409C47.3291 186.362 47.376 186.316 47.4229 186.269C47.4699 186.222 47.5168 186.175 47.5638 186.128C47.6577 186.034 47.7985 185.94 47.8924 185.799C48.4087 185.33 55.6848 179.744 61.7404 179.931C64.2752 181.668 66.904 184.109 68.2654 187.207Z" fill="#797979"/>
<path d="M106.852 188.662C105.631 188.616 104.364 188.569 103.097 188.569C102.533 188.569 101.923 188.522 101.36 188.522C99.9984 188.475 98.637 188.428 97.3227 188.381C97.1349 188.381 96.9471 188.381 96.7124 188.381C96.5716 188.381 96.4308 188.381 96.2899 188.381C95.5858 188.334 94.8817 188.334 94.2245 188.287C94.0836 188.287 93.8959 188.287 93.755 188.287C92.5345 188.24 91.314 188.193 90.2344 188.146C90.0935 188.146 89.9058 188.146 89.7649 188.146C89.5772 188.146 89.3894 188.146 89.2016 188.099C88.9669 188.099 88.7791 188.099 88.5444 188.052C88.3567 188.052 88.122 188.052 87.9342 188.005C87.6995 188.005 87.4648 187.958 87.277 187.958C87.0423 187.958 86.8076 187.911 86.6198 187.911C86.1973 187.864 85.8218 187.864 85.4462 187.818C85.2585 187.818 85.1176 187.771 84.9768 187.771H84.9299C84.789 187.771 84.6482 187.724 84.5543 187.724C84.4605 187.724 84.3666 187.724 84.3196 187.677C84.2727 187.677 84.2257 187.677 84.2257 187.677C84.038 187.63 83.8971 187.63 83.8033 187.583C83.7563 187.583 83.7563 187.583 83.7094 187.536C83.6624 187.536 83.6624 187.489 83.6155 187.489L83.5685 187.442V187.395C83.8502 187.02 84.1788 186.691 84.5074 186.315C84.6013 186.175 84.7421 186.081 84.8829 185.94C85.0238 185.799 85.1176 185.705 85.2585 185.564C85.3993 185.423 85.5401 185.33 85.6809 185.189C86.6667 184.344 87.8403 183.546 89.3894 182.795C89.6711 182.654 89.9527 182.513 90.2344 182.419C90.2813 182.419 90.2813 182.419 90.3282 182.372C90.4691 182.325 90.6099 182.231 90.7507 182.184C90.9385 182.091 91.1732 182.044 91.361 181.95C91.5487 181.856 91.7365 181.809 91.9243 181.762C92.0651 181.715 92.2059 181.668 92.3468 181.621C92.4876 181.574 92.6754 181.527 92.8162 181.48C92.9101 181.433 93.004 181.433 93.1448 181.386C93.2856 181.339 93.4264 181.293 93.5673 181.246C93.7081 181.199 93.8489 181.152 93.9897 181.152C94.4592 181.011 94.9286 180.917 95.445 180.776C95.6797 180.729 95.9613 180.682 96.196 180.635C96.5716 180.541 96.9941 180.495 97.4165 180.401C101.219 181.762 105.021 184.485 106.852 188.662Z" fill="#C5C5C9"/>
<path d="M68.2654 187.207C67.9368 187.207 67.6082 187.207 67.2796 187.207C61.0832 187.301 49.3476 187.912 47.8924 187.912C47.2821 187.912 46.8127 187.912 46.6249 187.724C46.3902 187.536 46.531 187.161 47.2821 186.409C47.3291 186.362 47.376 186.316 47.4229 186.269C47.4699 186.222 47.5168 186.175 47.5638 186.128C47.6577 186.034 47.7985 185.94 47.8924 185.799C48.4087 185.33 55.6848 179.744 61.7404 179.931C64.2752 181.668 66.904 184.109 68.2654 187.207Z" fill="#C5C5C9"/>
</g>
<path opacity="0.23" d="M62.867 133.834C59.3932 136.51 58.2197 143.645 54.6051 144.208C53.7132 144.912 52.6805 145.851 50.3334 145.992C50.2395 145.382 50.0987 144.443 49.9578 143.363C51.6947 143.081 52.6805 142.33 54.2765 139.983C56.9053 136.134 62.5853 132.332 61.9281 130.36C63.0078 130.501 63.7119 130.876 63.9467 131.205C64.1344 131.487 64.0875 132.895 62.867 133.834Z" fill="#797979"/>
<path d="M61.7873 179.979C64.3222 181.668 66.7162 183.687 68.0776 186.41" stroke="#797979" stroke-width="1.30528" stroke-miterlimit="10" stroke-linecap="round" stroke-linejoin="round"/>
<path d="M98.5901 180.729C102.205 182.372 105.256 185.142 106.852 188.334" stroke="#797979" stroke-width="1.30528" stroke-miterlimit="10" stroke-linecap="round" stroke-linejoin="round"/>
<path d="M47.5638 187.348C49.9109 185.424 60.426 181.481 64.3691 182.185" stroke="#797979" stroke-width="1.30528" stroke-miterlimit="10" stroke-linecap="round" stroke-linejoin="round"/>
<path d="M84.6013 187.301C88.2158 185.471 92.6753 184.156 97.041 183.64C98.9656 183.405 100.843 183.311 102.627 183.405" stroke="#797979" stroke-width="1.30528" stroke-miterlimit="10" stroke-linecap="round" stroke-linejoin="round"/>
<path d="M63.2895 69.3352C62.6792 71.5884 62.5384 76.846 63.4303 78.442C65.8244 78.442 68.2184 77.644 68.6878 76.4705" stroke="#797979" stroke-width="1.51948" stroke-miterlimit="10" stroke-linecap="round" stroke-linejoin="round"/>
<path d="M94.6469 180.823C88.2628 182.419 85.3523 185.095 83.5685 187.301C83.3338 187.818 89.9527 188.052 97.3226 188.334C105.866 188.663 116.193 189.085 119.714 188.287C123.235 187.489 120.277 182.278 119.573 180.213C119.386 179.603 119.151 178.992 118.963 178.335" stroke="#797979" stroke-width="1.30528" stroke-miterlimit="10" stroke-linecap="round" stroke-linejoin="round"/>
<path d="M60.5668 178.429C60.9423 179.039 61.3648 179.556 61.7873 179.978C55.7317 179.791 48.4087 185.377 47.9393 185.846C45.8269 187.771 46.4841 187.912 47.9393 187.912C49.3945 187.912 61.1301 187.301 67.3265 187.207C69.8614 187.16 72.9126 187.02 75.4006 186.926C76.9027 186.879 84.0849 186.832 82.9583 184.25C82.4889 183.077 81.9256 181.762 81.4561 180.448" stroke="#797979" stroke-width="1.30528" stroke-miterlimit="10" stroke-linecap="round" stroke-linejoin="round"/>
<path d="M63.4772 78.4419C62.0689 78.6766 61.3179 78.6766 60.426 78.5827" stroke="#797979" stroke-width="1.51948" stroke-miterlimit="10" stroke-linecap="round" stroke-linejoin="round"/>
<path d="M61.5526 100.974C63.9936 101.115 66.3876 101.162 68.7817 101.162" stroke="#797979" stroke-width="1.30528" stroke-miterlimit="10" stroke-linecap="round" stroke-linejoin="round"/>
<path d="M39.208 74.5928C32.5892 79.4748 26.9561 86.0937 22.966 94.9658C31.3217 93.0411 42.8695 95.1066 49.4884 99.3783C44.9819 100.458 41.9307 101.913 38.0345 105.293C44.0431 107.828 54.6521 114.541 55.5909 125.854" stroke="#797979" stroke-width="1.30528" stroke-miterlimit="10" stroke-linecap="round" stroke-linejoin="round"/>
<path d="M105.772 62.7634C121.404 65.7677 131.356 77.8319 135.862 87.6429C124.878 88.1123 107.979 88.3001 98.9657 93.3229C101.923 95.7639 105.772 99.8948 108.354 103.416C100.515 104.683 70.3308 110.269 62.1628 129.797" stroke="#797979" stroke-width="1.30528" stroke-miterlimit="10" stroke-linecap="round" stroke-linejoin="round"/>
<path d="M63.4772 110.457C64.6508 101.209 53.9479 86.0467 40.2877 82.1035" stroke="#797979" stroke-width="1.30528" stroke-miterlimit="10" stroke-linecap="round" stroke-linejoin="round"/>
<path d="M57.7972 131.017C58.1727 128.295 58.6422 125.619 59.2055 122.99C65.7305 93.2758 91.6427 78.442 109.152 71.8701" stroke="#797979" stroke-width="1.30528" stroke-miterlimit="10" stroke-linecap="round" stroke-linejoin="round"/>
<path d="M125.911 144.396C127.225 152.752 128.07 161.577 128.07 171.2C128.07 184.297 73.6168 181.293 57.4686 177.866C56.9522 168.853 56.0603 156.225 56.7645 143.082" stroke="#797979" stroke-width="1.30528" stroke-miterlimit="10" stroke-linecap="round" stroke-linejoin="round"/>
<path d="M121.92 149.982C114.973 152.001 104.833 152.658 98.3554 152.188" stroke="#797979" stroke-width="1.30528" stroke-miterlimit="10" stroke-linecap="round" stroke-linejoin="round"/>
<path d="M62.7731 144.021C63.8058 145.053 63.8058 146.743 62.7731 147.776C61.7404 148.809 60.0504 148.809 59.0177 147.776" stroke="#797979" stroke-width="1.30528" stroke-miterlimit="10" stroke-linecap="round" stroke-linejoin="round"/>
<path d="M98.5901 123.037C100.656 123.366 102.205 122.943 105.303 124.774" stroke="#797979" stroke-width="1.30528" stroke-miterlimit="10" stroke-linecap="round" stroke-linejoin="round"/>
<path d="M115.161 133.083C116.428 131.863 119.339 130.313 121.404 130.454" stroke="#797979" stroke-width="1.30528" stroke-miterlimit="10" stroke-linecap="round" stroke-linejoin="round"/>
<path d="M115.489 135.242C117.367 135.101 118.728 135.195 120.09 135.618" stroke="#797979" stroke-width="1.30528" stroke-miterlimit="10" stroke-linecap="round" stroke-linejoin="round"/>
<path d="M56.4359 156.46C55.497 166.224 54.5112 173.031 54.4174 177.35C49.3945 177.256 33.9505 176.458 33.4341 169.182C33.3872 168.337 33.9974 153.362 34.1852 147.306" stroke="#797979" stroke-width="1.30528" stroke-miterlimit="10" stroke-linecap="round" stroke-linejoin="round"/>
<path d="M37.0017 112.194C34.2321 121.16 36.2507 127.027 35.3118 132.379C36.0629 133.036 35.8282 133.693 34.9363 133.928C40.5224 134.867 44.5125 136.463 48.0801 137.355C48.7373 137.542 49.3006 137.636 49.864 137.636" stroke="#797979" stroke-width="1.30528" stroke-miterlimit="10" stroke-linecap="round" stroke-linejoin="round"/>
<path d="M63.9467 131.205C64.1344 131.487 64.0875 132.895 62.867 133.834C59.3932 136.51 58.2197 143.645 54.6051 144.208C51.3661 143.833 50.1456 140.077 49.9109 137.636C51.5069 136.134 52.3049 134.304 55.4031 132.285C60.2382 129.281 63.4303 130.454 63.9467 131.205Z" stroke="#797979" stroke-width="1.30528" stroke-miterlimit="10" stroke-linecap="round" stroke-linejoin="round"/>
<path d="M42.447 147.823C39.7713 147.823 37.2834 147.682 33.3402 147.259C26.2519 146.461 19.4453 144.771 16.6757 140.734C13.5775 136.181 13.0142 113.508 30.4298 94.2615" stroke="#797979" stroke-width="1.30528" stroke-miterlimit="10" stroke-linecap="round" stroke-linejoin="round"/>
<path d="M49.9109 137.636C49.4884 139.608 49.7701 144.443 50.3334 147.588C49.4884 147.588 48.7373 147.682 47.0005 147.729" stroke="#797979" stroke-width="1.30528" stroke-miterlimit="10" stroke-linecap="round" stroke-linejoin="round"/>
<path d="M50.3334 145.992C51.6008 145.945 53.2438 145.57 54.6051 144.208" stroke="#797979" stroke-width="1.30528" stroke-miterlimit="10" stroke-linecap="round" stroke-linejoin="round"/>
<path d="M42.8695 138.575C41.8837 141.532 41.696 145.147 43.2451 149.935C44.09 149.982 46.9535 149.935 47.4699 149.935C46.9066 148.198 46.1555 143.41 47.1882 139.467" stroke="#797979" stroke-width="1.30528" stroke-miterlimit="10" stroke-linecap="round" stroke-linejoin="round"/>
<path d="M35.3118 132.379C34.1383 131.252 31.9789 130.078 30.6645 129.844" stroke="#797979" stroke-width="1.30528" stroke-miterlimit="10" stroke-linecap="round" stroke-linejoin="round"/>
<path d="M27.8949 133.177C30.289 132.989 32.9178 133.458 34.9363 133.928" stroke="#797979" stroke-width="1.30528" stroke-miterlimit="10" stroke-linecap="round" stroke-linejoin="round"/>
<path d="M63.9467 131.205C59.581 132.144 55.5909 136.134 51.3192 141.955" stroke="#797979" stroke-width="1.30528" stroke-miterlimit="10" stroke-linecap="round" stroke-linejoin="round"/>
<path d="M40.1469 43.3293C42.2123 37.5554 41.8837 29.3404 41.8837 27.1811C41.9776 19.2009 40.6632 11.0799 48.221 10.939C59.0647 10.7513 66.1999 17.2763 71.786 17.0885C79.8132 15.9149 86.7607 12.629 90.1874 13.6148C95.0695 15.023 97.1349 18.7784 94.8817 26.9933C94.5061 28.3547 92.206 34.2225 94.5061 40.325" stroke="#797979" stroke-width="1.30528" stroke-miterlimit="10" stroke-linecap="round" stroke-linejoin="round"/>
<path d="M94.0367 30.5608C105.913 33.612 113.565 38.9635 113.659 43.6577C113.799 52.2012 89.9527 67.6453 59.0646 66.0023C30.3828 64.4532 21.9802 55.8158 21.8863 49.0561C21.7454 44.268 25.8294 37.6021 41.8368 32.7201" stroke="#797979" stroke-width="1.30528" stroke-miterlimit="10" stroke-linecap="round" stroke-linejoin="round"/>
<path d="M94.4592 40.325C90.8916 47.3663 78.8743 55.0179 64.4161 55.2057C48.9251 55.4404 40.2877 50.3237 40.1469 43.3293C44.7942 46.1927 54.746 48.0704 62.7262 47.9766C70.7064 47.8357 87.7464 44.9722 94.4592 40.325Z" stroke="#797979" stroke-width="1.30528" stroke-miterlimit="10" stroke-linecap="round" stroke-linejoin="round"/>
<path d="M60.9423 16.9006C64.2283 17.7456 68.8756 17.417 71.8799 17.0415" stroke="#797979" stroke-width="1.30528" stroke-miterlimit="10" stroke-linecap="round" stroke-linejoin="round"/>
<path d="M34.9363 133.928C32.9178 133.458 30.289 132.989 27.8949 133.177" stroke="#797979" stroke-width="1.30528" stroke-miterlimit="10" stroke-linecap="round" stroke-linejoin="round"/>
</g>
</g>
<defs>
<clipPath id="clip0_172_636">
<rect width="150" height="200" fill="white"/>
</clipPath>
<clipPath id="clip1_172_636">
<rect width="122.52" height="179.789" fill="white" transform="translate(14 10)"/>
</clipPath>
</defs>
</svg>
