<svg width="332" height="359" viewBox="0 0 332 359" fill="none" xmlns="http://www.w3.org/2000/svg">
<g clip-path="url(#clip0_202_1619)">
<path d="M310.2 331.4C310.4 327.7 310.3 323.7 309.8 319.4C298.8 312.1 286.2 311.1 275.3 315.7C273.4 316.5 271.5 317.5 269.6 318.6V318.7C271.7 325.2 273.1 329.4 273.6 330.8C276.3 338.6 255.5 345.2 231.7 338.5C217.2 304.6 181.1 167.8 181.1 167.8C181.1 167.8 210.7 130 228.1 125C242.5 120.8 251.2 128.4 255.7 144.1C272.3 202.1 288.7 231.4 307.5 267.6C318.9 289.6 327.8 300.3 329.9 307.2C332.5 315.6 323.7 326.3 310.2 331.4Z" fill="#FF0F0F"/>
<path opacity="0.23" d="M237 284.7C233.9 289.6 235.2 306.6 238.3 319.4C241.4 332.2 242.9 336.8 244 340.4C241.5 340 239.2 339.4 235.7 338.6C231.8 330.7 228.7 313.3 228.9 301.6C229.1 288.5 231.8 285.7 233.1 285.3C233.6 285.2 237 284.7 237 284.7Z" fill="#3F2719"/>
<path opacity="0.23" d="M237.9 263.7C243 261.8 253.7 254 253.1 250.5C252.5 247 243.7 244.9 239.1 241.1C238.9 247.6 238.4 257.5 237.9 263.7Z" fill="#3F2719"/>
<path opacity="0.2" d="M236.3 278.3C243.4 302.1 248.4 320.6 254.1 341.2C260.2 341.6 267 340 271.1 337.2C265.7 320.2 257.8 296.8 250.8 276.4C245.9 277.1 241.1 277.7 236.3 278.3Z" fill="white"/>
<path d="M200.6 342.7C185.4 336 156.4 330 138.6 336.3C135 322.4 108.4 248.4 93.1 179.2L142.4 180C142.4 179.9 186.8 309.1 200.6 342.7Z" fill="#FF0F0F"/>
<path d="M27 335.9C25.8 333 24.9 329.9 24.3 326.4C33.1 318.4 45 315 56.7 316.3C58.8 316.5 60.9 316.9 62.9 317.4V317.5C62.5 323 62.2 326.7 62.1 327.8C61.5 334.5 83.3 335.4 104.5 325.2C109.8 295.6 109.9 180.6 109.9 180.6L47.2 163.8C23.9 215.3 1.5 315.6 1.6 321.1C1.8 326.6 12.6 334.6 27 335.9Z" fill="#FF0F0F"/>
<path opacity="0.23" d="M52.6 238.3C50.8 258.8 52.4 272.2 55.8 278C59.2 283.8 58 307.8 51.8 315.9C55.3 315.9 58.4 316.4 62.9 317.5C64.4 304.8 65.4 274.2 66.6 256.9C66 253.1 64.9 244.9 64.5 238.3C64.1 231.7 52.6 238.3 52.6 238.3Z" fill="#3F2719"/>
<path opacity="0.2" d="M66.9 332.1L70.5 286.3L77.1 286.9L79.1 332.6C74.7 333.2 70.6 333.1 66.9 332.1Z" fill="white"/>
<path opacity="0.23" d="M80.5 288.2C84.7 297.2 88.6 309.1 88.8 315.9C88.9 322.7 88.9 327.5 88.8 330.9C91 330.3 97 328.6 100.5 327C98.5 320.5 96.8 315.7 97.6 308.3C94 304.7 87.6 299.3 80.5 288.2Z" fill="#3F2719"/>
<path opacity="0.23" d="M292.9 312.2C296.7 306.5 294.4 294.1 291.8 281.4C288.7 266.2 280.2 249.1 269.8 254.4C256.3 261.1 268.7 292.7 278 314C276.9 314.4 275.8 314.8 274.7 315.4C274.6 315.4 274.5 315.5 274.5 315.5C272.9 316.2 271.3 317.1 269.8 318C259.7 287.3 234 207.6 219.1 155.5L216 144.6L224.7 139L234 152.6C278.5 226.4 306 282.9 309.9 318.6C304.4 315 298.6 312.9 292.9 312.2Z" fill="#3F2719"/>
<path opacity="0.23" d="M200.6 342.7C185.4 336 156.4 330 138.6 336.3C135 322.4 108.4 248.4 93.1 179.2L142.4 180C142.4 179.9 186.8 309.1 200.6 342.7Z" fill="#3F2719"/>
<path opacity="0.23" d="M16.1 279C12.4 300.5 3.89998 324.3 13.7 332.7C6.49998 329.5 1.79998 324.8 1.69998 321.2C1.59998 315.7 24 215.4 47.3 163.9L49.9 164.6C35.3 204.9 19.6 258.5 16.1 279Z" fill="#3F2719"/>
<path opacity="0.23" d="M37.4 318.3C32.7 320 28.3 322.7 24.4 326.3C19.4 298.7 37.3 231.5 59.8 167.1L66.8 169C55.9 210.7 26.3 276.7 37.4 318.3Z" fill="#3F2719"/>
<path d="M269.8 318.7C282.2 310.6 296.7 310.4 309.9 319.3" stroke="#2D1F04" stroke-width="2.7806" stroke-miterlimit="10" stroke-linecap="round" stroke-linejoin="round"/>
<path d="M310 319.4C306.1 283.6 278.6 227.1 234.1 153.2" stroke="#2D1F04" stroke-width="2.7806" stroke-miterlimit="10" stroke-linecap="round" stroke-linejoin="round"/>
<path d="M94.4 179.1C109.7 248.3 136.3 322.3 139.9 336.2C155.7 330 186.7 335.9 201.9 342.6C188.1 309 143.7 179.9 143.7 179.9L94.4 179.1Z" stroke="#2D1F04" stroke-width="2.7806" stroke-miterlimit="10" stroke-linecap="round" stroke-linejoin="round"/>
<path d="M310 319.4C306.1 283.6 278.6 227.1 234.1 153.2" stroke="#2D1F04" stroke-width="2.7806" stroke-miterlimit="10" stroke-linecap="round" stroke-linejoin="round"/>
<path d="M218.6 155.3C233.5 207.4 259.7 288 269.8 318.7" stroke="#2D1F04" stroke-width="2.7806" stroke-miterlimit="10" stroke-linecap="round" stroke-linejoin="round"/>
<path d="M62.9 317.5C48.9 313.7 34.8 316.6 24.2 326.3" stroke="#2D1F04" stroke-width="2.7806" stroke-miterlimit="10" stroke-linecap="round" stroke-linejoin="round"/>
<path d="M24.3 326.4V326.3C19.3 298.7 37.2 231.5 59.7 167.1" stroke="#2D1F04" stroke-width="2.7806" stroke-miterlimit="10" stroke-linecap="round" stroke-linejoin="round"/>
<path d="M62.9 317.4C64.8 291.2 69.3 223.2 70.4 179.2" stroke="#2D1F04" stroke-width="2.7806" stroke-miterlimit="10" stroke-linecap="round" stroke-linejoin="round"/>
<path d="M27 335.9C25.8 333 24.9 329.9 24.3 326.4C33.1 318.4 45 315 56.7 316.3C58.8 316.5 60.9 316.9 62.9 317.4V317.5C62.5 323 62.2 326.7 62.1 327.8C61.5 334.5 83.3 335.4 104.5 325.2C109.8 295.6 109.9 180.6 109.9 180.6L47.2 163.8C23.9 215.3 1.5 315.6 1.6 321.1C1.8 326.6 12.6 334.6 27 335.9Z" stroke="#2D1F04" stroke-width="2.7806" stroke-miterlimit="10" stroke-linecap="round" stroke-linejoin="round"/>
<path d="M271.7 186.6C273.9 184.6 269.2 180.3 267.7 178.3C246.9 150.7 233.2 141.5 217.3 142.4C217.7 96 200.9 50.4 154.8 28.9C147.3 25.3 139.4 23.3 131.5 20.4C130 19.9 126.9 19.1 125.8 17.4C124.6 15.6 125.4 13 125.3 13C118.6 14.1 121.6 20.1 121.6 20.1C121.6 20.1 120.3 20 119.6 19.9C116.8 19.3 113.9 16.8 114.1 12.6C114.4 7.00002 120.4 4.70002 119.5 4.20002C119.3 4.10002 108.6 -0.799984 100.5 5.60002C96 9.10002 93.9 14 95.4 20.4C85.5 18.8 87 10 86.9 10.1C77.9 11.7 74.6 22.2 81 26.4C81 27.5 76.7 27.2 73.7 25.2C71.5 23.7 70.6 20.2 70.3 20.3C61.9 25.5 65.8 34.6 73.3 35.4C73.9 35.5 75 35.5 74.8 36.1C74.7 36.3 73.1 37.5 70.2 37.5C67.3 37.5 66.2 36.1 66.1 36.5C64.8 40.4 71.2 43.7 73.6 42.5C68.6 45.9 65.2 49.8 61.9 55.5C47.6 80.4 55.3 108.3 67.1 131.9C68.1 134 69.6 136.4 70 138.7C70.2 139.9 69.5 141.8 70 142.9C70.2 143.3 71.2 141.8 71.3 142.2C71.5 144.1 71.4 146.2 71.2 148.1C60.3 152.1 48.5 162.8 33.7 182.3C32.2 184.3 27.5 188.6 29.7 190.6C14.8 209.3 5.6 243.6 6.3 251.5C7.2 260.5 14.3 267.8 34.2 276.1C51.5 283.4 63 285.2 73.8 285.5C74.8 285.5 76.3 285.6 76.8 282.9C80.5 290.1 89.2 300.5 96.3 307.5C96.8 308 97.4 308.5 97.9 309C95.7 316.5 101.2 332.6 106.9 338.2C93.4 337.8 77.3 350.2 76.2 351.2C71.5 355.5 73 355.8 76.2 355.8C79.4 355.8 105.5 354.5 119.2 354.2C124.8 354.1 131.6 353.8 137.2 353.6C140.6 353.5 156.5 353.4 154 347.6C151.1 340.8 147.6 331.4 147.2 326.1C156 326.6 164.7 326.1 172.6 324.3C174.9 331 179.6 336.5 186.2 338.8C167.2 342.1 159.9 348.8 155.4 354.4C154.8 355.6 169.6 356 185.9 356.7C204.8 357.4 227.8 358.4 235.6 356.6C243.4 354.8 236.8 343.3 235.3 338.7C230.2 323.1 225.2 301.5 232.8 285.9C236 285.2 239.8 284.3 244.8 284C254.3 283.4 265.1 281.6 274.7 277.5C294.6 269.1 301.3 257.1 302.2 248C302.9 239.8 289.1 207.5 271.7 186.6ZM50.6 252.7C50.6 250.1 58.9 248.3 64.4 243.9C65.1 251.5 66.5 259.2 69.4 267.3C66.7 265.7 50.6 255.1 50.6 252.7ZM237.3 263.9C238.3 256.3 238.9 248.3 238.7 241.2C244.4 245.1 253.2 248.3 252.9 250.6C252.5 253.8 247.3 259.3 237.3 263.9Z" fill="#CAA77A"/>
<path d="M207 357.2C204.3 357.1 201.5 357 198.7 356.9C197.4 356.9 196.1 356.8 194.8 356.8C191.8 356.7 188.8 356.6 185.9 356.5C185.5 356.5 185 356.5 184.6 356.4C184.3 356.4 184 356.4 183.7 356.4C182.1 356.3 180.6 356.3 179.1 356.2C178.8 356.2 178.4 356.2 178.1 356.2C175.4 356.1 172.7 356 170.3 355.9C169.9 355.9 169.6 355.9 169.2 355.9C168.8 355.9 168.4 355.9 168 355.8C167.5 355.8 167 355.7 166.6 355.7C166.1 355.7 165.7 355.6 165.2 355.6C164.7 355.6 164.2 355.5 163.7 355.5C163.2 355.5 162.7 355.4 162.2 355.4C161.3 355.3 160.4 355.3 159.6 355.2C159.2 355.2 158.9 355.1 158.5 355.1H158.4C158.1 355.1 157.8 355 157.6 355C157.4 355 157.2 354.9 157.1 354.9C157 354.9 156.9 354.9 156.9 354.9C156.5 354.8 156.2 354.8 156 354.7C155.9 354.7 155.9 354.6 155.8 354.6C155.7 354.6 155.7 354.5 155.6 354.5L155.5 354.4C155.5 354.3 155.5 354.3 155.5 354.2C156.1 353.4 156.8 352.6 157.6 351.8C157.9 351.5 158.1 351.2 158.4 351C158.7 350.7 159 350.4 159.3 350.2C159.6 349.9 159.9 349.7 160.2 349.4C162.3 347.6 165 345.7 168.4 344.1C169 343.8 169.6 343.5 170.3 343.2C170.4 343.2 170.4 343.1 170.5 343.1C170.8 343 171.1 342.8 171.5 342.7C171.9 342.5 172.4 342.3 172.9 342.2C173.3 342 173.7 341.9 174.2 341.8C174.5 341.7 174.8 341.6 175.2 341.5C175.6 341.4 175.9 341.3 176.3 341.2C176.5 341.1 176.8 341.1 177 341C177.3 340.9 177.6 340.8 177.9 340.7C178.2 340.6 178.5 340.5 178.8 340.5C179.8 340.2 180.9 340 182 339.7C182.6 339.6 183.1 339.5 183.7 339.3C184.6 339.1 185.4 339 186.4 338.8C194.5 341.9 202.9 347.9 207 357.2Z" fill="#B6B1AE"/>
<path d="M121.4 354C120.7 354 119.9 354 119.2 354.1C105.5 354.3 79.4 355.7 76.2 355.7C74.9 355.7 73.8 355.6 73.4 355.3C72.9 354.9 73.2 354.1 74.8 352.4C74.9 352.3 75 352.2 75.1 352.1C75.2 352 75.3 351.9 75.4 351.8C75.6 351.6 75.9 351.3 76.1 351.1C77.2 350.1 93.4 337.6 106.8 338.1C112.6 341.7 118.4 347.1 121.4 354Z" fill="#B6B1AE"/>
<path d="M71.9 163.9C71 164.6 69.3 167.2 68.8 168.1C67.8 170.2 70 172 69.9 173.1C69.8 174.4 67.2 179 64.7 183.8C62.9 187.2 61.5 190.7 60.6 194.2C59.7 197.6 59.1 201 58.8 204.3C50.4 196.8 38.9 193.1 31.7 191.5C25.6 190.2 31.9 184.8 33.7 182.4C48.6 162.7 60.2 152.1 71.2 148.2C71.2 148.5 71.1 148.8 71.1 149.1C71 149.9 70.1 152.1 70.7 151.5C70.9 151.3 71.4 149.5 72.2 149.8C72.7 149.8 72.2 162.7 71.9 163.9Z" fill="#3399CC"/>
<path d="M270.1 187.4C244.4 199.4 237.2 213.7 228.5 224.2C228.4 224.3 228.3 224.4 228.3 224.5C229.8 230.3 232.2 235.4 237.3 239.7C237.9 240.2 238.5 240.7 239.2 241.1C239.4 248.4 239 256 238 263.7C236.5 264.4 234.9 265.1 233.1 265.7C225.1 268.7 215.7 259.1 203.3 266.2C196.7 270 194 278 193.7 280.6C193.4 283.3 202 274.4 220.3 284.5C224.9 287 228.4 286.5 233.2 285.4C232.7 286.5 232.1 287.9 231.7 289C221.6 300.8 197 307.7 178 310.9C144.3 316.6 114.7 313.9 93.3 303.4C80.3 289.7 73.2 277.2 69.3 265.4C68.6 263.2 67.9 261 67.4 258.8C64.9 248.8 64.4 239.3 64 230C60.7 228.1 54.2 204.2 65.2 183.3C67.7 178.6 70.2 173.9 70.4 172.6C70.5 171.5 68.4 169.7 69.3 167.6C70 166.2 73.4 161.1 72.9 163.9C115.8 176.2 158.8 167.4 164.1 166.2C171.9 164.5 180.3 162 188.7 159.2C192.7 152.4 198.9 146.2 208.5 143.6C215.3 141.8 221.5 141.3 227.6 142.8C239.7 145.7 251.8 156.1 268.2 177.9C269.9 180.6 275.7 184.7 270.1 187.4Z" fill="#3399CC"/>
<path d="M90.2 234L76.9 205.7L91.3 191.4L138.2 194.4L150.9 210.3L130.9 236.7L109.7 248.4L90.2 234Z" fill="#FF0F0F"/>
<path d="M94.6 229.7L84.3 206.9L93.5 197.8L135.3 200.4L143.5 210.6L126.9 231.9L110.2 241.2L94.6 229.7Z" fill="#FFDB1F"/>
<path d="M90.2 234L76.9 205.7L91.3 191.4L138.2 194.4L150.9 210.3L130.9 236.7L109.7 248.4L90.2 234Z" stroke="#2D1F04" stroke-width="2.7806" stroke-miterlimit="10" stroke-linecap="round" stroke-linejoin="round"/>
<path d="M94.2 199.4C99.8 199.9 104.8 200.1 109.7 200.6C113.7 201 114.7 203.9 114.4 206.6C114 210.3 111.8 212.7 108.1 213.9C107.9 214 107.7 214 107.3 214.1C111 216.6 110.9 221.4 113.2 225.8C110.2 225.6 107.6 225.4 104.8 225.3C103.5 222.5 102.4 219.7 101.5 217C101 215.5 100.3 214.4 98.1 214.7C97.4 217.9 96.9 221.2 97 224.8C94.4 224.6 92 224.5 89.5 224.4C89.1 215.9 92.5 207.6 94.2 199.4ZM100.7 205.1C100.3 206.7 99.9 208.3 99.4 210.1C101.1 210.1 102.6 210.2 104.2 210.1C105.6 210 106.5 209.1 106.8 207.9C107.1 206.6 106.6 205.6 105.2 205.4C103.8 205.1 102.3 205.1 100.7 205.1ZM132.5 201.8C129.5 200.6 126.4 200.5 123.2 201.3C119.8 202.1 117.5 204.6 116.7 207.6C116 210.4 117 212.8 119.9 214.3C121.4 215.1 123.1 215.6 124.7 216.2C125.5 216.5 126.3 216.8 127.1 217.2C128 217.7 128.5 218.5 128.3 219.6C128.1 220.8 127.3 221.5 126.2 221.9C123.8 222.7 121.5 221.4 121 218.9C120.9 218.4 120.9 218 120.8 217.5C118.4 217.5 116.2 217.5 114 217.5C113.4 221.6 115.5 225 118.9 226.3C121.5 227.3 124.2 227.6 127 227.2C128.7 227 130.6 226.3 132.1 225.3C136.8 222.2 138.3 215.1 132.8 212.1C131.9 211.6 131 211.2 130.1 210.9C128.4 210.3 126.8 209.8 125.1 209.2C124.2 208.9 123.5 208.5 123.6 207.2C124.3 205.8 125.4 205.4 126.7 205.5C128.7 205.7 129.7 206.8 129.7 208.9C132 208.9 134.3 208.9 136.8 208.8C136.9 205.2 135.6 203 132.5 201.8Z" fill="#FF0F0F"/>
<path opacity="0.23" d="M154.1 349.5C154 349.6 154 349.7 153.9 349.9C153.8 350.1 153.6 350.4 153.3 350.6C153.1 350.8 152.8 351 152.5 351.2C152.3 351.3 152.2 351.4 152 351.5C151.5 351.7 151 351.9 150.4 352.1C149.1 352.5 147.7 352.8 146.2 353C146 353 145.7 353.1 145.5 353.1C145.3 353.1 145 353.2 144.8 353.2C144.6 353.2 144.3 353.3 144.1 353.3C142.4 353.5 140.8 353.5 139.5 353.6C139.3 353.6 139.2 353.6 139 353.6C138.9 353.6 138.8 353.6 138.7 353.6C138.6 353.6 138.4 353.6 138.3 353.6C137.9 353.6 137.6 353.6 137.4 353.6C137.1 353.6 136.8 353.6 136.5 353.6C136.2 353.6 135.9 353.6 135.6 353.6C134.8 353.6 133.9 353.7 133.1 353.7C132.4 353.7 131.8 353.8 131.1 353.8C130.6 353.8 130.1 353.8 129.7 353.9C128.6 353.9 127.5 354 126.4 354C124.8 354.1 123.2 354.1 121.7 354.1C121 354.1 120.2 354.1 119.5 354.2C105.8 354.4 79.7 355.8 76.5 355.8C76.3 355.8 76.1 355.8 75.9 355.8C75.8 355.8 75.6 355.8 75.5 355.8C75.4 355.8 75.4 355.8 75.3 355.8C75.2 355.8 75.2 355.8 75.1 355.8C74.9 355.8 74.7 355.8 74.6 355.7C74.5 355.7 74.5 355.7 74.4 355.7C74.3 355.7 74.2 355.7 74.2 355.6C74.2 355.6 74.2 355.6 74.1 355.6H74C73.9 355.6 73.9 355.6 73.9 355.5C73.8 355.5 73.8 355.4 73.8 355.4L73.7 355.3C73.6 355.2 73.6 355 73.6 354.8V354.7C73.6 354.6 73.7 354.5 73.7 354.4C73.7 354.4 73.7 354.4 73.7 354.3C73.7 354.3 73.7 354.2 73.8 354.2C73.8 354.1 73.9 354.1 73.9 354C74 353.9 74 353.8 74.1 353.7L74.2 353.6C74.3 353.5 74.5 353.3 74.6 353.1C74.7 353 74.8 352.9 74.8 352.8C74.9 352.7 75 352.6 75.1 352.5C75.2 352.4 75.3 352.3 75.4 352.2C75.5 352.1 75.6 352 75.7 351.9C75.9 351.7 76.2 351.4 76.4 351.2C76.4 351.2 76.4 351.2 76.5 351.1C76.5 351.1 76.5 351.1 76.6 351L76.7 350.9L76.8 350.8C77 350.6 77.3 350.4 77.7 350.1L77.8 350L77.9 349.9C80.1 348.3 84.4 345.3 89.6 342.7C89.7 342.6 89.9 342.6 90 342.5C91 342 92.1 341.5 93.1 341.1C93.3 341 93.4 341 93.6 340.9C93.7 340.9 93.7 340.9 93.7 340.8C94.3 340.6 94.9 340.3 95.6 340.1C96.5 339.8 97.4 339.5 98.3 339.2C98.6 339.1 98.9 339 99.1 339C99.9 338.8 100.7 338.6 101.6 338.4C101.7 338.4 101.7 338.4 101.8 338.4C101.8 338.4 101.8 338.4 101.9 338.4C102.1 338.4 102.3 338.3 102.6 338.3C102.7 338.3 102.8 338.3 102.9 338.3C103 338.3 103 338.3 103.1 338.3C103.2 338.3 103.2 338.3 103.3 338.3C103.5 338.3 103.7 338.2 103.9 338.2C104 338.2 104.1 338.2 104.2 338.2C104.5 338.2 104.9 338.1 105.2 338.1C105.6 338.1 106 338.1 106.3 338.1C106.5 338.1 106.8 338.1 107 338.1C106.9 338 106.7 337.8 106.5 337.6C105.9 337 105.3 336.2 104.7 335.4C99.9 328.4 96 315.3 98 308.7C109 318.5 128.2 324.8 147.3 325.9V326C147.6 330.2 149.8 336.9 152.2 342.9C152.6 344.1 153.1 345.2 153.5 346.2C153.7 346.6 153.9 347.1 154 347.5C154.4 348.3 154.4 349 154.1 349.5Z" fill="#3F2719"/>
<path opacity="0.23" d="M238.5 354.4C238.3 354.7 238.1 354.9 237.9 355.1C237.3 355.7 236.5 356.1 235.5 356.3C230.5 357.5 219.3 357.5 206.9 357.1C206.7 357.1 206.6 357.1 206.4 357.1C205.3 357.1 204.1 357 202.9 357C200.6 356.9 198.3 356.8 196 356.8C195.4 356.8 194.9 356.8 194.3 356.7C193.7 356.7 193.1 356.7 192.4 356.6C191.6 356.6 190.8 356.5 190 356.5C188.6 356.4 187.2 356.4 185.8 356.3C184.7 356.3 183.7 356.2 182.7 356.2C182.3 356.2 181.8 356.2 181.4 356.1H181.3C181.1 356.1 180.9 356.1 180.7 356.1C180.2 356.1 179.7 356.1 179.3 356C177.8 355.9 176.4 355.9 175 355.8C174.7 355.8 174.4 355.8 174.1 355.8C174 355.8 173.9 355.8 173.8 355.8C173.6 355.8 173.4 355.8 173.1 355.8C172.4 355.8 171.8 355.7 171.2 355.7C170.9 355.7 170.6 355.7 170.4 355.7C170.1 355.7 169.7 355.7 169.4 355.7C168.3 355.7 167.3 355.6 166.4 355.6C166.2 355.6 166 355.6 165.8 355.6C165.6 355.6 165.5 355.6 165.3 355.6C165.2 355.6 157 354.8 156.9 354.8C169.5 349.8 191.4 348.4 201.8 349H201.9C206.5 349.3 210.2 349.7 212.2 349.8C219.2 350.1 221.8 348.5 218.8 338.5C216 329.1 212.5 312.8 212.8 301.5C220.4 298.3 227 294.4 231.3 289.6C226.2 304.8 230.8 324.1 235.5 338.3C236.5 342.2 241 350.4 238.5 354.4Z" fill="#3F2719"/>
<path opacity="0.23" d="M185.4 319.7C188.5 317.7 194.7 313.8 196.6 311.2C159.6 327.6 124.6 320.1 104.1 313C123 323.6 138.5 326.2 153.1 326.2C167.7 326.2 177.2 323 185.4 319.7Z" fill="#3F2719"/>
<path opacity="0.23" d="M64.1 237.1C79.7 240.6 108.3 235.8 108.8 235.9C109.3 236 114.6 237.1 127.8 240.6C141 244.1 156.5 247.3 164.5 247.3C167.5 247.3 171.3 244.6 175.4 240C179.7 235.2 183.3 229.5 186.8 223.2C179.4 234.3 170.3 239.2 167.7 239.9C164.5 240.8 163.4 240.8 158.8 240.4C144 239.3 113.1 230.4 109.7 229.9C107.3 229.6 73.1 235.5 63.6 228.6" fill="#3F2719"/>
<path opacity="0.23" d="M92.9 251.8C84 252.2 73.1 258.3 69.2 265.7C68.5 263.5 67.8 261.3 67.3 259.1C74 254 82.7 251.3 92.9 251.8Z" fill="#3F2719"/>
<path opacity="0.23" d="M233.1 285.5C232.6 286.6 232 288 231.6 289.1C221.5 300.9 196.9 307.8 177.9 311C144.2 316.7 114.6 314 93.2 303.5C90.6 300.8 88.2 298.1 86.1 295.5C89.1 296.9 93 298.9 96.1 300.4C104.9 304.5 113.9 305.2 115.9 302.1C116.9 300.5 118.3 297.2 117.5 293.3C116.4 287.9 112.9 277.4 115.6 267.3C114.2 278.8 121.3 287.6 121.7 296.1C121.7 305.5 130.3 307.2 139.8 307.8C147.2 308.3 154.3 308.3 167.9 306.8C182.1 305.3 184.6 301.2 184.7 292.5C184.8 286.1 183.2 275.2 180 269.8C176 263.2 162.4 258.7 147.7 255.5C157.6 255.3 177.3 256.8 186.7 265.2C189.8 267.9 193.1 270.9 196.2 273.5C194.5 276.4 193.7 279.3 193.6 280.7C193.4 282.4 196.8 279.5 203.8 279.6C206.2 279.6 209.1 280 212.4 281.1C214.8 281.9 217.3 283 220.2 284.5C224.7 287.1 228.3 286.6 233.1 285.5Z" fill="#3F2719"/>
<path opacity="0.23" d="M237.9 263.7C236.4 264.4 234.8 265.1 233 265.7C228.5 267.4 223.5 265 217.7 264C218.2 259.7 218.3 255.1 218 251C217.4 243.4 216 231.9 211.6 227.1C207.2 222.3 201.4 215.5 198.1 211.2C209.5 213.9 213.9 217.2 218.4 220.1C219.8 223.7 222.4 229.3 228.3 224.4C229.8 230.2 232.2 235.3 237.3 239.6C237.9 240.1 238.5 240.6 239.2 241C239.3 248.4 238.9 256 237.9 263.7Z" fill="#3F2719"/>
<path opacity="0.23" d="M270.1 187.4C267.2 188.8 264.4 190.2 261.9 191.6C257.6 193.9 255.2 181.7 241.9 166.4C229.1 151.7 209.1 142.3 197.6 149.2C200.6 146.9 204.2 145.1 208.4 144C215.2 142.2 221.4 141.7 227.5 143.2C239.6 146.1 251.7 156.5 268.1 178.3C269.9 180.6 275.7 184.7 270.1 187.4Z" fill="#3F2719"/>
<path opacity="0.23" d="M180.6 162.1C180.2 168.4 180.7 173 181.7 177.4C182.7 171.9 185.3 163.8 188.7 159.5C186.1 160.4 182.7 161.6 180.6 162.1Z" fill="#3F2719"/>
<path opacity="0.23" d="M154.9 29.0001C147.4 25.4001 139.5 23.4001 131.6 20.5001C130.1 20.0001 127 19.2001 125.9 17.5001C124.7 15.7001 125.5 13.1001 125.4 13.1001C118.7 14.2001 121.7 20.2001 121.7 20.2001C121.7 20.2001 120.4 20.1001 119.7 20.0001C116.9 19.4001 114 16.9001 114.2 12.7001C114.5 7.10011 120.5 4.80011 119.6 4.30011C119.4 4.20011 108.7 -0.699887 100.6 5.70011C96.1 9.20011 94 14.1001 95.5 20.5001C85.5 18.8001 87 10.0001 86.9 10.1001C77.9 11.7001 74.6 22.2001 81 26.4001C81 27.5001 76.7 27.2001 73.7 25.2001C71.5 23.7001 70.6 20.2001 70.3 20.3001C61.9 25.5001 65.8 34.6001 73.3 35.4001C73.9 35.5001 75 35.5001 74.8 36.1001C74.7 36.3001 73.1 37.5001 70.2 37.5001C67.3 37.5001 66.2 36.1001 66.1 36.5001C64.8 40.4001 71.2 43.7001 73.6 42.5001C68.8 45.7001 65.5 49.5001 62.4 54.7001C67 49.2001 74.8 43.9001 85.4 40.3001C84.1 39.2001 85.2 36.2001 87.3 35.7001C86.8 38.0001 91 38.9001 95.8 37.7001C94.5 36.4001 93.2 31.9001 98.9 30.4001C96.2 34.4001 102.5 37.4001 105.2 36.7001C108.2 36.0001 107.9 34.5001 106.8 33.3001C109 32.1001 111.2 34.8001 112.3 35.3001C114.5 36.4001 117 35.9001 123.1 36.9001C157.4 42.2001 176 56.8001 184.6 75.8001C191.8 91.8001 199.7 120.3 196.5 150.2C199.8 147.5 203.7 145.3 208.5 144C211.6 143.2 214.6 142.6 217.4 142.4C217.8 96.0001 200.9 50.5001 154.9 29.0001Z" fill="#3F2719"/>
<path opacity="0.23" d="M17.2 212.2C14.9 219.6 11.8 233.7 12.9 238.8C12.2 241.7 6.80001 246.6 7.10001 254.2C6.00001 252 6.20001 248.4 7.60001 241.2C9.00001 233.9 12.4 223.1 17.2 212.2Z" fill="#3F2719"/>
<path d="M226.8 286.4C224.6 286.4 222.4 286 219.9 284.6C201.6 274.6 193.1 283.4 193.3 280.7C193.6 278 196.2 270.1 202.9 266.3C213.1 260.4 221.2 265.8 228.2 266.3C224.6 270.9 221.1 277.7 226.8 286.4Z" fill="#B6B1AE"/>
<path opacity="0.23" d="M302.3 247.8C301.5 255.6 296.4 265.7 282.1 273.7C282 273.8 282 273.8 281.9 273.8C281.4 274.1 280.8 274.4 280.3 274.7C280.2 274.7 280.2 274.8 280.1 274.8C279.1 275.3 278 275.9 276.9 276.4C276.3 276.7 275.7 276.9 275.1 277.2C265.5 281.2 254.7 283 245.2 283.7C237.4 284.2 232.6 286.1 228.3 286.4C227.9 286.4 227.4 286.5 227 286.5C224.9 286.5 222.8 286 220.5 284.7C213.8 281 208.4 279.9 204.2 279.8C203.7 279.8 203.1 279.8 202.7 279.8C198.2 279.9 195.4 281.3 194.3 281.4C194 281.4 193.9 281.2 194 280.9C194 280.7 194 280.5 194.1 280.3C203.9 272.7 216.7 277.4 222.6 279.5C229.2 281.9 230.3 278 236.1 277.5C241.9 277 257.6 277.5 272.9 271.3C288.2 265.1 292.3 250.5 292.1 245C291.9 239.4 279.9 219 275.8 216C274.2 206.6 269.6 198.2 263.2 191.3C265.4 190 267.9 188.8 270.5 187.6C270.5 187.6 270.6 187.6 270.6 187.5C271.3 187.3 271.8 187.1 272.1 186.8C289.3 207.5 303.1 239.9 302.3 247.8Z" fill="#3F2719"/>
<path opacity="0.23" d="M229.4 228.8C232.5 236.1 243.5 242.4 248.6 243.9C253.7 245.5 255.3 246.4 255.8 247.2C256.3 248 253.9 251.3 251 254.2C252.6 252 253.4 251 253 249.8C252.6 248.6 250.2 247.3 246.1 245.1C242 243 232.6 238.6 229.4 228.8Z" fill="#3F2719"/>
<path d="M29.3 258.7V264.9" stroke="#9D7B51" stroke-width="4.1072" stroke-miterlimit="10" stroke-linecap="round" stroke-linejoin="round"/>
<path d="M34.8 263V269.2" stroke="#9D7B51" stroke-width="4.1072" stroke-miterlimit="10" stroke-linecap="round" stroke-linejoin="round"/>
<path d="M260.9 255.6V261.8" stroke="#9D7B51" stroke-width="4.1072" stroke-miterlimit="10" stroke-linecap="round" stroke-linejoin="round"/>
<path d="M254.5 260.5V266.7" stroke="#9D7B51" stroke-width="4.1072" stroke-miterlimit="10" stroke-linecap="round" stroke-linejoin="round"/>
<path d="M84.1 152.3V158.5" stroke="#9D7B51" stroke-width="4.1072" stroke-miterlimit="10" stroke-linecap="round" stroke-linejoin="round"/>
<path d="M90.8 155.4L90.7 161.6" stroke="#9D7B51" stroke-width="4.1072" stroke-miterlimit="10" stroke-linecap="round" stroke-linejoin="round"/>
<path d="M72.2 163.7C69.5 167.3 68.4 168.4 69.4 170.3C70.4 172.2 70.7 172.6 70 174.1C67.3 180.3 64.4 190.7 62.6 190.5C57.4 189.8 62.6 171.1 60.1 164.5C56.6 155.2 49.4 163.3 44.6 168.9C45.2 161.6 47.6 153.6 54.6 148C49.6 140.8 64.3 134.7 68.6 133.8C72.2 145.4 73.3 155.2 72.2 163.7Z" fill="#FF0F0F"/>
<path d="M64.5 243.7C59.1 248.2 50.8 249.9 50.8 252.5C50.8 255.1 69.3 267.2 69.9 267.3" stroke="#2D1F04" stroke-width="2.7806" stroke-miterlimit="10" stroke-linecap="round" stroke-linejoin="round"/>
<path d="M44.5 169C41.2 172.8 37.7 177.2 33.9 182.1C32.1 184.5 25.8 190.1 31.9 191.2" stroke="#2D1F04" stroke-width="2.7806" stroke-miterlimit="10" stroke-linecap="round" stroke-linejoin="round"/>
<path d="M238.9 241.1C239.1 248.4 238.7 256 237.6 263.8" stroke="#2D1F04" stroke-width="2.7806" stroke-miterlimit="10" stroke-linecap="round" stroke-linejoin="round"/>
<path d="M92.9 303.5C114.3 314.2 143.7 316.9 177.7 311.1C196.7 307.9 221.2 301 231.4 289.2" stroke="#2D1F04" stroke-width="2.7806" stroke-miterlimit="10" stroke-linecap="round" stroke-linejoin="round"/>
<path d="M185.4 319.7C160 332.4 114.8 325.2 96.6 307.3C66.5 277.7 64.8 253.6 63.7 230.3C60.7 228.6 55.3 209.5 61.9 190.5" stroke="#2D1F04" stroke-width="2.7806" stroke-miterlimit="10" stroke-linecap="round" stroke-linejoin="round"/>
<path d="M72.6 164.2C115.5 176.5 164 168.6 186.6 160.2" stroke="#2D1F04" stroke-width="2.7806" stroke-miterlimit="10" stroke-linecap="round" stroke-linejoin="round"/>
<path d="M144.9 178.1C132.7 182.4 85.4 182 70.6 172.3" stroke="#2D1F04" stroke-width="2.7806" stroke-miterlimit="10" stroke-linecap="round" stroke-linejoin="round"/>
<path d="M79.3 166.4C78.7 168.2 78.1 169.5 78.1 171.5" stroke="#2D1F04" stroke-width="2.7806" stroke-miterlimit="10" stroke-linecap="round" stroke-linejoin="round"/>
<path d="M90.3 168.6C89.5 170.2 89.3 172.4 89.3 174.2" stroke="#2D1F04" stroke-width="2.7806" stroke-miterlimit="10" stroke-linecap="round" stroke-linejoin="round"/>
<path d="M102.6 169.8V174.7" stroke="#2D1F04" stroke-width="2.7806" stroke-miterlimit="10" stroke-linecap="round" stroke-linejoin="round"/>
<path d="M112.6 171.5V172.2V172.7V173.5V173.9V174.4V174.9" stroke="#2D1F04" stroke-width="2.7806" stroke-miterlimit="10" stroke-linecap="round" stroke-linejoin="round"/>
<path d="M107.5 171.8V172.2V172.7V173.2V173.7V174.2" stroke="#2D1F04" stroke-width="2.7806" stroke-miterlimit="10" stroke-linecap="round" stroke-linejoin="round"/>
<path d="M143.7 170.3V170.8V171.3V172.2V172.7" stroke="#2D1F04" stroke-width="2.7806" stroke-miterlimit="10" stroke-linecap="round" stroke-linejoin="round"/>
<path d="M147.3 170.3V171V171.8V172.2" stroke="#2D1F04" stroke-width="2.7806" stroke-miterlimit="10" stroke-linecap="round" stroke-linejoin="round"/>
<path d="M157.7 354.2C165.8 350.1 175.6 347.2 185.3 346C189.5 345.5 193.7 345.3 197.7 345.5" stroke="#2D1F04" stroke-width="2.7806" stroke-miterlimit="10" stroke-linecap="round" stroke-linejoin="round"/>
<path d="M75.5 354.3C80.7 350 104.1 341.3 112.8 342.8" stroke="#2D1F04" stroke-width="2.7806" stroke-miterlimit="10" stroke-linecap="round" stroke-linejoin="round"/>
<path d="M186.2 338.6C194.7 342 202.9 348.4 206.9 356.5" stroke="#2D1F04" stroke-width="2.7806" stroke-miterlimit="10" stroke-linecap="round" stroke-linejoin="round"/>
<path d="M107 338C112.7 341.8 117.9 346.3 120.9 352.2" stroke="#2D1F04" stroke-width="2.7806" stroke-miterlimit="10" stroke-linecap="round" stroke-linejoin="round"/>
<path d="M217.5 142.4C218 95.9 201.2 50.5 155 28.9C147.5 25.3 139.6 23.3 131.7 20.4C130.2 19.9 127.1 19.1 126 17.4C124.8 15.6 125.6 13 125.5 13C118.8 14.1 121.8 20.1 121.8 20.1C121.8 20.1 120.5 20 119.8 19.9C117 19.3 114.1 16.8 114.3 12.6C114.6 7.00002 120.6 4.70002 119.7 4.20002C119.5 4.10002 108.8 -0.799984 100.7 5.60002C96.2 9.10002 94.2 15.2 95.7 21.6" stroke="#2D1F04" stroke-width="2.7806" stroke-miterlimit="10" stroke-linecap="round" stroke-linejoin="round"/>
<path d="M73.2 42.1C70.7 43.3 65 40.2 66.3 36.4C66.4 36 67.6 37.5 70.4 37.4C73.2 37.4 74.9 36.2 75 36C75.2 35.5 74 35.4 73.5 35.3C66 34.5 62.1 25.4 70.5 20.2C70.8 20 71.7 23.5 73.9 25.1C76.8 27.2 81.2 27.4 81.2 26.3C74.8 22.1 78.2 11.6 87.1 10C87.3 10 85.2 18.8 95.2 20.6" stroke="#2D1F04" stroke-width="2.7806" stroke-miterlimit="10" stroke-linecap="round" stroke-linejoin="round"/>
<path d="M74.8 41.3999C69.8 44.7999 65.8 49.0999 62.5 54.5999C47.9 79.2999 55.6 108.1 67.4 131.6C68.4 133.7 69.9 136.1 70.2 138.4C70.4 139.6 69.7 141.5 70.2 142.6C70.4 143 71.5 141.5 71.5 141.9C71.8 144.1 71.5 146.6 71.3 148.7C71.2 149.5 70.3 151.7 70.9 151.1C71.1 150.9 71.6 149.1 72.4 149.3C72.9 149.5 72.4 161.1 72.2 162.2" stroke="#2D1F04" stroke-width="2.7806" stroke-miterlimit="10" stroke-linecap="round" stroke-linejoin="round"/>
<path d="M227.9 224C229.4 230 231.8 235.3 237 239.7C242.4 244.2 253.4 247.9 253.1 250.6C252.6 254.2 246 260.9 232.8 265.8C224.8 268.8 215.4 259.2 203 266.3C196.4 270.1 193.7 278.1 193.4 280.7C193.1 283.4 201.7 274.5 220 284.6C227.6 288.8 232.4 284.5 245 283.6C254.5 283 265.3 281.2 274.9 277.1C294.7 268.7 301.5 256.7 302.4 247.6C303.2 239.7 289.5 207.5 272.1 186.6" stroke="#2D1F04" stroke-width="2.7806" stroke-miterlimit="10" stroke-linecap="round" stroke-linejoin="round"/>
<path d="M228.2 224.2C222.2 228.8 220.7 225.3 218 219.8" stroke="#2D1F04" stroke-width="2.7806" stroke-miterlimit="10" stroke-linecap="round" stroke-linejoin="round"/>
<path d="M196.8 211C200.4 211.8 206 213.8 210.3 215.8C214.1 217.5 216.8 219.3 218.2 220.2" stroke="#2D1F04" stroke-width="2.7806" stroke-miterlimit="10" stroke-linecap="round" stroke-linejoin="round"/>
<path d="M210.4 215.8C208 212.7 205.2 208.5 201.9 206.3" stroke="#2D1F04" stroke-width="2.7806" stroke-miterlimit="10" stroke-linecap="round" stroke-linejoin="round"/>
<path d="M182 175.8C184 164.7 191.1 148.6 208.2 144C228.4 138.6 243.2 145.5 267.9 178.3C269.7 180.7 276 186.3 269.9 187.4" stroke="#2D1F04" stroke-width="2.7806" stroke-miterlimit="10" stroke-linecap="round" stroke-linejoin="round"/>
<path d="M219 219.6C223.2 206.3 234.9 190.8 251 185" stroke="#2D1F04" stroke-width="2.7806" stroke-miterlimit="10" stroke-linecap="round" stroke-linejoin="round"/>
<path d="M223.5 211.1C224.8 212.3 226 213 227.6 213.8" stroke="#2D1F04" stroke-width="2.7806" stroke-miterlimit="10" stroke-linecap="round" stroke-linejoin="round"/>
<path d="M229.4 202.7L232.8 205.3" stroke="#2D1F04" stroke-width="2.7806" stroke-miterlimit="10" stroke-linecap="round" stroke-linejoin="round"/>
<path d="M235.7 195.5L238.3 198.8" stroke="#2D1F04" stroke-width="2.7806" stroke-miterlimit="10" stroke-linecap="round" stroke-linejoin="round"/>
<path d="M232.7 285.6C225.1 301.2 230.1 322.9 235.2 338.4C236.7 343 243.3 354.5 235.5 356.3C227.7 358.1 204.8 357.1 185.8 356.4C169.5 355.8 154.8 355.3 155.3 354.1C159.8 348.5 167.1 341.8 186.1 338.5C179.5 336.2 174.8 330.7 172.5 324" stroke="#2D1F04" stroke-width="2.7806" stroke-miterlimit="10" stroke-linecap="round" stroke-linejoin="round"/>
<path d="M98 308.8C95.8 316.3 101.3 332.4 107 338C93.5 337.6 77.4 350 76.3 351C71.6 355.3 73.1 355.6 76.3 355.6C79.5 355.6 105.6 354.3 119.3 354C124.9 353.9 131.7 353.6 137.3 353.4C140.7 353.3 156.6 353.2 154.1 347.4C151.2 340.6 147.7 331.2 147.3 325.9" stroke="#2D1F04" stroke-width="2.7806" stroke-miterlimit="10" stroke-linecap="round" stroke-linejoin="round"/>
<path d="M193.4 280.7C200.1 271.3 212 269.8 220 271.9" stroke="#2D1F04" stroke-width="2.7806" stroke-miterlimit="10" stroke-linecap="round" stroke-linejoin="round"/>
<path d="M228.2 266.3C224.6 270.9 221.1 277.8 226.8 286.4" stroke="#2D1F04" stroke-width="2.7806" stroke-miterlimit="10" stroke-linecap="round" stroke-linejoin="round"/>
<path d="M60.8 194C57.7 191.9 54.4 190.1 50.8 188.8" stroke="#2D1F04" stroke-width="2.7806" stroke-miterlimit="10" stroke-linecap="round" stroke-linejoin="round"/>
<path d="M53.3 189.8C52.1 190.8 51.2 192.6 50.8 193.9" stroke="#2D1F04" stroke-width="2.7806" stroke-miterlimit="10" stroke-linecap="round" stroke-linejoin="round"/>
<path d="M74.4 285.3C62.5 284.6 53.8 284.1 34.4 275.9C14.6 267.5 7.39999 260.3 6.49999 251.3C5.69999 243.4 14.7 209.3 29.7 190.6" stroke="#2D1F04" stroke-width="2.7806" stroke-miterlimit="10" stroke-linecap="round" stroke-linejoin="round"/>
<path opacity="0.23" d="M80.5 268.8C80.5 269 80.5 269.1 80.4 269.3C80.3 269.4 80.3 269.5 80.2 269.7C80.1 269.8 80 269.9 79.9 270.1C78.5 271.8 75.3 274.6 75.8 281.1C76.1 281.7 76.3 282.4 76.2 283C76.6 285.5 75.3 286.4 73.2 285.6L73.8 286.7C71.7 286.5 69.5 286.2 67.1 285.8C60.4 281.5 63.1 275.6 62.7 272.7C62.3 270.1 60.5 268.3 58 266.5C57.6 266.2 57.3 266 56.9 265.7C46 257.8 38.2 251 36.2 247.8C43.5 246.8 51.6 241.2 55.2 234.5C58.8 227.7 52.9 216.8 53.8 203.4C54.3 195.6 57 188.6 60.6 182.5C60.6 182.4 60.6 182.4 60.6 182.3C65.5 172.2 66.7 164.9 66.7 157C66.7 149.8 64.6 137.6 54 143C58.5 136.9 64.4 134.9 68.5 134C68.8 134.8 69.8 137.9 69.9 138.7C70.1 139.9 69.4 141.8 69.9 142.9C70 143 70.1 143 70.3 142.8C70.5 142.7 70.9 142.3 71.1 142.1C71.2 142 71.3 141.9 71.3 142.1C71.6 144.3 71.3 146.8 71.1 148.9C71 149.7 70.1 151.8 70.6 151.3C70.7 151.2 70.9 150.7 71.1 150.3L71.2 150.2C71.4 149.9 71.7 149.8 72 149.9C72.4 150.1 72 162.3 71.7 164C71.9 163.8 72.1 163.7 72.2 163.7C71.3 164.2 70 168.5 69.9 172.6C70 172.8 70 172.9 70 173C70 173.3 69.8 173.7 69.6 174.3C69.5 174.5 69.4 174.8 69.3 175.1C68.7 176.4 68.2 177.9 67.6 179.4C67.5 179.6 67.4 179.8 67.4 180C65.5 185.2 63.7 190.5 62.3 190.6C55.4 209.7 60.9 229 63.9 230.8C64.1 235.2 64.3 239.7 64.8 244.2C59.4 248.5 50.9 250.7 50.9 253.2C50.9 254.4 54.6 257.4 58.8 260.5L58.9 260.3C61.6 262.2 64.4 264.1 66.4 265.5C65.7 268.4 66 272.6 70.2 273.1C73.3 273.5 76.7 271.4 80 268.2C80.4 268.5 80.5 268.7 80.5 268.8Z" fill="#3F2719"/>
<path d="M75.9 281.1C75.2 272.8 80.6 270.7 80.6 268.9C80.6 267.4 72 262.6 68.5 264C64.8 265.4 64.7 272.5 66.7 274.6C66.4 277 68.3 282.6 71.9 284.9C75.5 287.2 77.4 285.7 75.9 281.1Z" fill="#B6B1AE"/>
<path d="M75.9 281.1C74.8 273 80.6 270.7 80.6 268.9C80.6 267.4 70.9 263.1 68.5 264C64.8 265.4 64.7 272.5 66.7 274.6C66.4 277 68.3 282.6 71.9 284.9C75.5 287.2 77.3 283.5 75.9 281.1Z" stroke="#2D1F04" stroke-width="2.7806" stroke-miterlimit="10" stroke-linecap="round" stroke-linejoin="round"/>
<path d="M66.6 274.5C69.2 270.2 74.9 268.9 80.6 268.9" stroke="#2D1F04" stroke-width="2.7806" stroke-miterlimit="10" stroke-linecap="round" stroke-linejoin="round"/>
<path d="M59.4 80.5C61.6 71.7 65.7 64 72.8 60.2C82.4 55.1 88.6 56.1 97.3 54.2C101 53.4 103.8 51.9 104.4 48.2C104.7 46.6 104.1 44.8 102.5 42.5C105.8 42.5 109.4 43.8 112 46C117.4 50.4 124.4 51.3 130.7 51.1C153.1 50.4 167.3 53 178.2 72.6C180.6 77 184.4 87.1 181.8 98.4C178.1 114.8 176.2 121.7 158.3 134C137.1 148.6 93.3 155.9 71.4 128.2C61.2 115.4 55.3 97 59.4 80.5Z" fill="#FFDBAF"/>
<path d="M100.3 88.1C92.9 84.4 86.9 103.1 87.5 108.4C89.5 126.8 116.4 125.8 128.8 119.6C146.8 110.6 124.8 81.7 111.9 86.8" fill="#9D7B51"/>
<path d="M57.2 80.7001C56 94.8001 59.1 105.6 62.1 112.4C68.3 113.6 80.9 107.6 88.6 94.8001C96.5 81.7001 99.2 64.9001 96.5 63.1001C88.5 57.6001 69.2 61.4001 66.8 62.7001C60.5 66.3001 58.1 70.3001 57.2 80.7001Z" fill="#9D7B51"/>
<path d="M127.7 61.1C122.2 107.5 171.8 123 176.9 115.6C180.2 110.8 186.2 92.1 180.3 75.6C177.3 67.3 171.7 60.7 166.5 58.5C160 55.7 148.6 56.4 140.4 56.4C133.9 56.4 131.2 60.6 127.7 61.1Z" fill="#9D7B51"/>
<path d="M94.4 87.9001C94.3 85.1001 99.7 82.6001 106.5 82.3001C113.3 82.0001 119 83.9001 119.1 86.7001C119.2 89.5001 113.8 92.0001 107 92.3001C100.2 92.7001 94.5 90.7001 94.4 87.9001Z" fill="#251707"/>
<path d="M106.8 89.2002C106.8 94.1002 107 101.5 107.5 104.9" stroke="#2D1F04" stroke-width="2.7806" stroke-miterlimit="10" stroke-linecap="round" stroke-linejoin="round"/>
<path d="M85.6 82.4005C84.7 87.1005 79.9 84.8005 74.5 85.1005C68.2 85.4005 61.2 87.3005 61.7 80.1005C62 74.7005 67.6 72.7005 75.7 72.6005C83.8 72.5005 86.7 76.5005 85.6 82.4005Z" fill="white"/>
<path d="M85.7 81.2002C83.3 76.2002 78.5 75.4002 72.3 76.4002C65.8 77.5002 62.8 80.0002 61.9 83.2002C61.6 82.2002 61.5 81.2002 61.6 80.1002C61.9 74.7002 67.5 72.7002 75.6 72.6002C83.3 72.5002 86.2 76.0002 85.7 81.2002Z" fill="#D3E5EA"/>
<path d="M85.6 82.4005C84.7 87.0005 79.8 84.8005 74.5 85.1005C68.1 85.5005 61.2 87.4005 61.7 80.1005C62 74.7005 67.6 72.7005 75.7 72.6005C83.8 72.5005 86.7 76.5005 85.6 82.4005Z" stroke="#2D1F04" stroke-width="2.7806" stroke-miterlimit="10" stroke-linecap="round" stroke-linejoin="round"/>
<path d="M70.4 79.9002C70.9 77.4002 73.4 75.7002 75.9 76.2002C78.4 76.7002 80.1 79.2002 79.6 81.7002C79.1 84.2002 76.6 85.9002 74.1 85.4002C71.5 84.9002 69.9 82.5002 70.4 79.9002Z" fill="#2D1F04"/>
<path d="M72 80.2C73.1598 80.2 74.1 79.2598 74.1 78.1C74.1 76.9402 73.1598 76 72 76C70.8402 76 69.9 76.9402 69.9 78.1C69.9 79.2598 70.8402 80.2 72 80.2Z" fill="white"/>
<path d="M72.1 82.4999C72.5419 82.4999 72.9 82.1417 72.9 81.6999C72.9 81.2581 72.5419 80.8999 72.1 80.8999C71.6582 80.8999 71.3 81.2581 71.3 81.6999C71.3 82.1417 71.6582 82.4999 72.1 82.4999Z" fill="white"/>
<path d="M138 80.1002C139 84.5002 144.4 82.2002 150 82.1002C157.4 82.0002 165.4 84.2002 164.9 76.7002C164.5 71.3002 158.2 69.5002 149.1 69.8002C139.9 70.1002 136.7 74.3002 138 80.1002Z" fill="white"/>
<path d="M137.7 78.1002C140.7 73.9002 146.3 73.0002 153.2 73.8002C159.2 74.5002 162.9 76.1002 164.8 78.3002C164.8 77.8002 164.8 77.3002 164.8 76.7002C164.4 71.3002 158.1 69.5002 149 69.8002C141 70.1002 137.6 73.3002 137.7 78.1002Z" fill="#D3E5EA"/>
<path d="M138 80.1002C139 84.5002 144.1 82.2002 150 82.1002C157.4 82.0002 165.4 84.2002 164.9 76.7002C164.5 71.3002 158.2 69.5002 149.1 69.8002C139.9 70.1002 136.7 74.3002 138 80.1002Z" stroke="#2D1F04" stroke-width="2.7806" stroke-miterlimit="10" stroke-linecap="round" stroke-linejoin="round"/>
<path d="M146.9 76.8003C147.4 74.2003 150 72.5003 152.6 73.0003C155.2 73.5003 156.9 76.1003 156.4 78.7003C155.9 81.3003 153.3 83.0003 150.7 82.5003C148 82.0003 146.3 79.4003 146.9 76.8003Z" fill="#2D1F04"/>
<path d="M148.5 77.1004C149.66 77.1004 150.6 76.1602 150.6 75.0004C150.6 73.8406 149.66 72.9004 148.5 72.9004C147.34 72.9004 146.4 73.8406 146.4 75.0004C146.4 76.1602 147.34 77.1004 148.5 77.1004Z" fill="white"/>
<path d="M148.6 79.5004C149.042 79.5004 149.4 79.1422 149.4 78.7004C149.4 78.2586 149.042 77.9004 148.6 77.9004C148.158 77.9004 147.8 78.2586 147.8 78.7004C147.8 79.1422 148.158 79.5004 148.6 79.5004Z" fill="white"/>
<path opacity="0.23" d="M46.4 159.5C48.5 155.1 53.3 152 57.1 153.9C60.8 155.8 64.3 163.6 63.4 174.2C62.5 184.8 60.1 190.1 61.9 190.5C63.7 190.8 65.5 178.1 66 172.3C66.4 166.4 67.8 158.4 63.8 152.7C59.8 147 54.5 147.9 53.6 148.5C52.7 149 49.4 151.2 46.4 159.5Z" fill="#3F2719"/>
<path d="M179.3 65.7C163 57 155 54.1 126.4 63.2" stroke="#2D1F04" stroke-width="8.0658" stroke-miterlimit="10" stroke-linecap="round" stroke-linejoin="round"/>
<path d="M53.3 68.7002C61.6 61.7002 72.4 56.4002 96.4 63.1002" stroke="#2D1F04" stroke-width="8.0658" stroke-miterlimit="10" stroke-linecap="round" stroke-linejoin="round"/>
<path d="M92.5 104.9C94.5 109.2 101.7 113.8 104.7 114.3C111.9 115.5 120.5 111.5 125.5 105.3C126.8 103.7 127.7 99.7 127 98.5C121.8 101.8 102.6 106.4 92.5 104.9Z" fill="white"/>
<path opacity="0.23" d="M117.5 102.1C118.8 101.7 120.9 103.3 121.2 104.9C121.4 106.5 118.9 110.6 116.4 112.4C120.2 111 124.9 107 126 104.5C127.1 102 127.5 99.9 127.1 98.5C125 99.9 121.2 101.2 117.5 102.1Z" fill="#2D1F04"/>
<path d="M92.5 104.9C94.5 109.2 101.7 113.8 104.7 114.3C111.5 115.5 121.5 111.1 125.5 105.3C126.7 103.6 127.7 99.7 127 98.5C121.8 101.8 102.6 106.4 92.5 104.9Z" stroke="#2D1F04" stroke-width="2.7806" stroke-miterlimit="10" stroke-linecap="round" stroke-linejoin="round"/>
<path d="M231 144.2C218.9 141 205.4 142.2 196.4 150.1C187.5 158 184.4 166.7 181.6 177.4C178.9 188.1 172.2 187.2 171.4 180.6C168.9 179.8 168.7 177.3 170.5 170.2C172.2 163.1 176.4 153.3 184.8 143.5C193.2 133.7 203.2 125.8 212.5 121.4C221.8 117 227.2 120.3 230.5 123.8C233.8 127.3 233.7 134 231 144.2Z" fill="#FF0F0F"/>
<path opacity="0.28" d="M177.1 163.9C182.5 157.1 190.7 146.6 203.3 139C219.5 129.3 230.1 128.6 233.6 129.3C240 130.6 246.3 136 249 134.9C251.6 133.8 250.4 129 242.9 125.7C235.3 122.3 227.3 124 214.3 129.4C201.3 134.8 187 145.3 177.1 163.9Z" fill="white"/>
<path d="M235.2 338.4C259 345.1 276.4 338.6 273.8 330.8C273.3 329.4 271.9 325.2 269.8 318.7V318.6C271.6 317.4 273.5 316.5 275.5 315.7C286.5 311.1 299 312.2 310 319.4C310.5 323.7 310.6 327.7 310.4 331.4C323.9 326.2 336.2 314 327.4 300.9C319.4 289 310 272.4 300.8 254.5" stroke="#2D1F04" stroke-width="2.7806" stroke-miterlimit="10" stroke-linecap="round" stroke-linejoin="round"/>
<path d="M54.4 148.1C66.1 148.1 70.1 159.5 62.4 190.6" stroke="#2D1F04" stroke-width="2.7806" stroke-miterlimit="10" stroke-linecap="round" stroke-linejoin="round"/>
<path opacity="0.23" d="M261.2 161C253.4 153.6 247.3 149.7 243.4 146.5C236.8 141 244.3 139 238.3 138.5C212.9 135.8 201.6 141.7 191.9 150C182.2 158.4 179.3 170.1 178 176.5C176.7 182.9 174.4 183.7 171.4 180.7C171.7 183.6 172.9 185.3 175.6 185.5C178.3 185.7 179.8 183.9 181.1 179.2C182.4 174.5 183.3 165.3 189.4 157.6C195.5 149.9 202 144.5 212.2 143.1C222.4 141.7 233.2 142.2 244.2 152.2C255.2 162.2 257.8 166.2 266.1 175.6C264.7 172.2 263.3 168.1 261.2 161Z" fill="#3F2719"/>
<path opacity="0.23" d="M169.8 179.4C173.5 163.5 178.4 152.5 189.4 141.7C200.4 130.9 211.3 123.6 226.8 120.8C228 121.6 229.2 122.7 230.5 123.9C217.2 126.8 202.7 133.1 191.1 144.7C179.4 156.3 173.8 168.1 171.7 181.3C170.8 181 170.3 180.6 169.8 179.4Z" fill="#3F2719"/>
<path d="M172 180.7C168.9 180.7 168.6 177.3 171 168.5C173.5 159 182.6 139.7 207.6 124.2C220.1 116.4 226.4 119.1 230.9 124.6" stroke="#2D1F04" stroke-width="2.7806" stroke-miterlimit="10" stroke-linecap="round" stroke-linejoin="round"/>
<path d="M241.8 150.1C235.1 143.5 212.4 136.4 195.4 150.9C178.5 165.2 184.5 186.1 175.7 185.5C168.7 185 173.6 171.9 176.2 166.1C184.6 147.1 203 130.3 229.5 124.9C253.6 120 255 143.9 265.8 175.2" stroke="#2D1F04" stroke-width="2.7806" stroke-miterlimit="10" stroke-linecap="round" stroke-linejoin="round"/>
<path opacity="0.23" d="M296.5 261.8C307 279.9 318.8 304.9 316.8 328.1C315.4 329 312 330.6 310.4 331.4C312 313.6 301.6 280.4 293.3 264.7C294.6 263.9 296.5 261.8 296.5 261.8Z" fill="#3F2719"/>
<path d="M68.5 133.9C64.3 134.8 49.5 140.9 54.5 148.1C47.5 153.7 45.1 161.7 44.5 169C49.3 163.4 56.5 155.3 60 164.6C62.5 171.2 57.3 189.9 62.5 190.6C64.3 190.8 67.2 180.5 69.9 174.2C70.6 172.6 70.1 172.4 70.2 170.3C70.3 168.9 71 166.8 72.1 163.7" stroke="#2D1F04" stroke-width="2.7806" stroke-miterlimit="10" stroke-linecap="round" stroke-linejoin="round"/>
</g>
<defs>
<clipPath id="clip0_202_1619">
<rect width="332" height="359" fill="white"/>
</clipPath>
</defs>
</svg>
