<svg xmlns="http://www.w3.org/2000/svg">
    <style>
        .img { display: none }
        .img:target { display: inline }
    </style>

    <svg fill="none">
        <g id="bg-home-dark" class="img">
            <path d="M222.183 964.365C246.228 974.105 269.663 970.757 290.36 988.41C294.012 991.453 305.274 1001.5 303.752 1006.67C301.013 1015.5 282.142 1013.06 275.142 1013.37C248.967 1013.98 221.879 1017.32 195.704 1017.93C190.834 1017.93 166.181 1020.67 165.572 1014.28C163.746 997.54 198.443 985.062 206.661 976.54" fill="#303032"/>
            <path d="M503.108 959.495C529.892 958.886 560.023 970.756 580.72 987.192C582.85 988.714 599.286 1004.24 597.459 1006.67C593.198 1012.76 572.806 1008.19 566.719 1008.8C540.544 1011.54 512.543 1006.67 485.759 1007.28C481.194 1007.28 463.845 1010.63 461.106 1005.15C457.149 997.54 478.15 984.757 482.107 982.626" fill="#303032"/>
            <path d="M534.761 897.406C537.805 890.101 554.241 901.971 560.328 905.623C563.371 907.45 583.155 907.754 581.937 911.102C575.85 931.19 559.11 952.495 541.762 961.626C540.24 962.539 507.673 964.365 507.369 962.539C506.76 959.495 516.5 948.234 518.022 945.495C526.848 931.798 528.979 912.319 534.761 897.406Z" fill="#303032"/>
            <path d="M377.711 686.18C378.016 685.571 378.624 684.962 378.929 684.049L377.711 686.18Z" fill="#303032"/>
            <path d="M393.234 579.349C398.103 602.176 395.973 593.046 395.06 616.786C394.451 632.004 385.016 713.268 387.451 725.442C389.886 737.617 405.712 743.704 399.93 765.922C394.755 786.01 343.319 815.229 325.97 823.751C301.621 835.621 247.749 793.619 220.661 793.923C200.878 794.228 166.485 799.706 149.137 792.706C137.571 788.141 135.136 803.663 122.657 804.88C104.091 806.707 77.6119 804.272 59.046 806.098C47.4803 807.315 14.9137 810.055 6.39166 799.706C0.608795 792.402 3.65237 768.661 4.26108 760.444C5.47855 742.486 2.73932 723.616 0.913147 705.963C-2.73917 668.527 6.08725 631.699 5.7829 593.959C5.7829 583.306 0.608765 555.305 8.21777 547.087C15.8268 538.261 58.4372 543.435 70.6117 542.826C129.049 540.391 180.79 542.522 239.227 541.913C276.664 541.609 319.578 538.869 356.71 540.391C371.624 541 390.799 526.086 389.886 547.696" fill="#303032"/>
            <path d="M554.849 98.7647C562.458 98.7647 582.85 137.723 587.111 145.941C620.895 204.986 608.416 273.772 581.632 332.513C574.632 347.731 577.98 352.297 570.98 366.297C567.632 372.689 556.37 387.907 556.37 394.907C556.37 396.429 556.37 399.473 556.37 399.473C556.37 399.473 558.501 388.211 560.936 383.342C561.849 381.82 564.893 378.776 563.371 378.776C562.458 378.776 561.24 381.211 560.936 381.82C553.631 400.386 561.849 424.126 556.979 443.605C553.631 456.997 528.065 473.128 513.76 476.78C460.193 490.172 406.321 475.867 352.753 475.867C339.361 475.867 300.708 480.128 289.446 468.867C280.011 459.432 276.968 447.257 269.359 436.605C259.01 422.3 234.966 404.647 218.53 397.951C201.486 390.951 179.877 395.212 163.137 399.473C158.876 400.69 145.788 406.169 141.527 401.908C134.527 394.907 131.179 374.515 133.005 365.689C137.571 342.253 136.049 307.556 140.614 284.729C143.658 269.206 149.441 254.293 155.223 239.379C178.051 180.029 210.008 131.94 260.837 94.808C273.62 85.6772 294.925 69.2417 309.534 61.9371C323.535 54.9368 339.362 55.2411 353.362 47.9365C371.928 38.8057 392.016 26.6313 412.104 21.7615C416.973 20.5441 409.973 29.3705 410.582 30.2836C411.191 31.501 423.669 31.501 425.191 31.1967C441.931 27.8487 458.671 28.1531 474.497 21.1528C477.237 19.9353 486.672 10.1958 490.02 11.1089C499.455 14.1525 485.454 40.3275 485.454 40.3275C485.454 40.3275 486.672 38.197 487.889 37.2839C492.455 33.6315 502.803 30.8923 508.586 29.6749C521.065 27.24 526.543 35.1534 537.196 37.2839C538.718 37.5882 551.196 40.9362 551.196 41.2406C551.196 43.9798 531.109 47.0234 531.109 49.7626C531.109 52.1975 535.37 51.2844 536.587 51.2844C542.37 52.1975 576.154 66.1981 573.719 73.5028C572.502 76.8507 554.849 76.8507 551.501 78.9812C550.588 79.59 548.457 79.8943 548.457 79.8943C548.457 79.8943 562.458 82.0248 569.154 83.851C577.676 85.9815 595.329 105.461 579.806 105.461" fill="#303032"/>
            <path d="M88.8733 809.142C91.9169 810.055 101.961 837.752 103.178 848.404C105.917 869.405 96.7867 894.971 94.0474 915.668C91.6125 936.06 78.8294 961.931 70.6117 980.801C67.5681 987.192 67.8724 1001.5 69.6986 1008.5C73.0466 1021.59 150.354 1021.28 160.702 1017.02C160.702 1017.02 184.747 987.192 192.356 981.41C199.052 976.54 194.182 975.627 209.096 969.235C218.531 965.278 230.096 965.279 238.619 956.452C246.836 948.234 251.402 929.364 260.533 923.277C269.359 917.19 276.359 921.755 305.274 927.842C334.188 933.929 355.189 932.712 383.19 925.712C388.06 924.494 387.146 933.929 384.712 944.582C381.972 956.452 377.103 969.844 375.276 972.583C373.755 974.714 360.363 990.236 364.015 993.888C371.32 1001.19 423.67 1008.5 432.496 1008.5C442.236 1008.5 451.366 1004.24 461.106 1006.06C463.237 1006.37 467.802 1006.06 467.802 1006.06C467.802 1006.06 462.628 1008.19 463.237 1006.67C464.15 1003.63 470.237 998.758 472.367 996.019C479.976 985.975 492.151 971.974 500.673 963.148C507.977 955.843 510.108 949.147 514.673 940.017C521.369 926.32 525.935 909.581 529.891 894.667C530.805 891.319 531.718 897.711 533.544 894.667C541.153 883.406 568.85 925.103 584.981 908.972C592.59 901.363 603.547 884.927 605.373 875.797C609.938 853.274 611.46 826.795 611.46 803.054C611.46 799.098 612.982 779.923 610.851 778.097C605.982 774.445 596.242 776.575 590.459 776.575C571.284 776.575 555.153 775.053 535.979 780.227C523.195 783.575 512.847 791.793 499.76 793.011C479.063 795.141 458.367 789.663 437.67 791.489C417.887 793.011 400.843 796.359 383.798 793.011C379.842 792.098 358.537 815.229 355.797 812.49C352.754 809.446 361.276 770.488 354.884 768.966C343.623 766.227 334.492 777.184 323.839 779.314C297.664 784.488 268.446 786.315 244.401 771.705C233.749 765.314 222.792 755.574 218.531 745.226C213.965 733.66 214.574 723.921 210.313 712.051C204.835 697.137 211.531 675.223 214.574 660.005C216.4 650.266 225.227 624.395 220.357 614.351C211.835 597.307 157.05 569.61 138.484 565.045C121.744 561.088 102.57 557.74 85.5254 562.001C64.5245 567.175 61.7853 584.828 58.1329 599.437C45.9586 648.135 48.3934 698.05 71.2204 748.878C77.3076 762.27 80.6556 773.227 92.5256 782.054C95.2649 784.184 108.352 800.011 108.961 801.228C110.179 803.359 92.83 802.446 92.2213 802.75C78.5251 807.316 90.3951 813.403 94.6562 827.403" fill="#303032"/>
            <path d="M556.675 453.04C557.284 445.127 575.241 467.041 569.763 474.345C567.328 477.389 563.371 479.519 561.545 482.563C560.328 484.085 563.067 486.215 563.676 487.128C573.415 500.216 579.807 514.825 585.589 529.435C591.981 545.261 595.938 559.262 598.373 576.306C599.894 586.959 591.372 597.916 593.807 607.351C600.199 632.917 617.547 633.221 624.852 683.745C627.591 701.398 635.505 722.399 635.505 740.661C635.505 743.704 637.026 755.879 633.983 758.009C594.112 787.228 535.674 790.576 481.803 790.576C470.846 790.576 460.497 799.402 449.845 796.663C434.018 792.706 418.191 793.924 402.365 789.967C400.234 789.358 389.277 792.098 389.277 789.967C389.277 789.358 401.451 775.053 402.365 771.705C408.147 748.574 398.712 740.356 387.147 723.312C382.885 716.921 388.364 694.702 389.277 687.702C394.451 656.962 391.103 631.091 395.669 600.046C396.582 594.568 399.321 562.914 392.625 561.088C386.233 559.566 393.842 544.348 387.451 542.522C362.493 536.13 334.492 543.131 308.622 538.565C304.361 537.957 271.49 534.304 267.533 538.261C264.185 541.609 260.837 553.479 258.706 558.653C254.141 569.61 250.489 581.785 245.315 592.437C240.445 602.177 245.619 632.917 226.14 619.221C128.44 551.957 60.5679 588.176 60.5679 586.959C60.8723 536.131 71.2205 472.519 98.3086 436.605C110.483 420.474 127.223 398.864 149.137 393.385C161.616 390.342 175.312 378.167 189.312 382.124C215.792 389.733 251.097 401.299 267.837 424.126C273.316 431.431 281.534 449.997 289.143 455.171C292.49 457.301 297.056 458.823 301.317 459.432C322.318 463.693 343.927 462.78 364.928 467.041C409.974 476.171 445.584 472.215 490.629 463.388C497.934 461.867 515.282 463.997 522.283 462.78C531.109 461.258 538.414 461.258 547.24 459.127C557.284 456.692 556.675 453.953 556.675 453.04Z" fill="#1F1F1F"/>
            <path d="M591.372 218.378C584.981 192.203 568.849 162.375 545.109 158.114C517.413 152.94 494.585 175.159 467.802 174.245C462.932 173.941 453.193 171.202 450.149 166.636C447.41 162.68 450.149 156.897 450.149 156.897C445.888 158.114 441.627 164.202 436.453 165.723C416.365 171.506 395.668 153.853 377.407 148.375C316.839 130.113 269.663 136.505 237.401 194.942C230.096 208.029 219.139 238.161 226.444 271.641C237.401 320.643 243.184 341.035 296.143 377.558C359.145 421.082 489.716 442.691 554.849 360.514C585.894 322.165 603.546 267.684 591.372 218.378Z" fill="#303032"/>
            <path d="M469.628 240.901C491.542 229.944 509.499 285.337 507.673 301.468C501.586 356.253 421.539 353.21 384.711 334.644C331.144 307.86 396.581 221.726 434.931 236.944" fill="#1F1F1F"/>
            <path d="M591.372 218.682C603.242 240.292 589.85 305.425 580.719 312.121C573.719 317.295 525.63 281.076 511.934 257.945C508.282 251.858 489.716 212.595 496.716 205.595C500.673 201.638 552.414 208.943 560.327 210.465C571.284 212.899 586.502 209.552 591.372 218.682Z" fill="#1F1F1F"/>
            <path d="M390.494 208.638C387.755 297.816 257.184 345.296 241.662 323.078C231.922 308.773 212.443 242.118 238.009 197.073C240.444 192.812 269.054 202.247 273.62 202.855C311.969 208.943 391.711 169.68 390.494 208.638Z" fill="#1F1F1F"/>
            <path d="M536.283 811.576L536.587 829.838" stroke="#1F1F1F" stroke-width="12.5007" stroke-miterlimit="10" stroke-linecap="round" stroke-linejoin="round"/>
            <path d="M516.5 822.533L516.804 840.49" stroke="#1F1F1F" stroke-width="12.5007" stroke-miterlimit="10" stroke-linecap="round" stroke-linejoin="round"/>
            <path d="M497.933 834.403V852.665" stroke="#1F1F1F" stroke-width="12.5007" stroke-miterlimit="10" stroke-linecap="round" stroke-linejoin="round"/>
            <path d="M142.441 621.655V639.917" stroke="#1F1F1F" stroke-width="12.5007" stroke-miterlimit="10" stroke-linecap="round" stroke-linejoin="round"/>
            <path d="M120.831 628.047L121.136 646.309" stroke="#1F1F1F" stroke-width="12.5007" stroke-miterlimit="10" stroke-linecap="round" stroke-linejoin="round"/>
            <path d="M527.457 414.386V432.343" stroke="#1F1F1F" stroke-width="12.5007" stroke-miterlimit="10" stroke-linecap="round" stroke-linejoin="round"/>
            <path d="M509.499 423.517V441.779" stroke="#1F1F1F" stroke-width="12.5007" stroke-miterlimit="10" stroke-linecap="round" stroke-linejoin="round"/>
            <path d="M349.71 212.291C349.71 220.508 348.188 225.987 345.449 229.639C337.231 240.292 318.665 234.509 300.099 231.161C280.011 227.813 275.446 215.334 271.794 207.725" fill="#303032"/>
            <path d="M588.633 207.725C605.677 252.162 535.065 247.596 521.978 213.812L588.633 207.725Z" fill="#303032"/>
            <path opacity="0.23" d="M594.416 104.243C581.329 104.243 570.372 100.59 557.588 97.8512C553.936 96.9381 546.631 93.2858 546.631 96.6338C546.631 97.5468 548.153 97.2425 548.762 97.8512C559.719 104.243 568.545 113.678 574.633 124.939C576.763 128.896 582.546 139.549 581.024 136.809C531.718 47.3274 171.964 13.8478 192.965 376.95C193.269 380.298 197.226 385.776 194.182 386.689C187.791 388.82 177.442 382.732 169.225 385.472C165.572 386.689 139.397 401.298 136.658 399.472C132.093 396.429 135.441 379.08 134.528 373.602C116.266 251.249 257.489 87.1986 269.664 80.5027C316.231 54.632 411.495 25.7178 413.626 25.4134C413.93 25.4134 422.452 30.5876 426.713 29.6745C442.236 26.9352 459.889 21.1524 475.411 16.587C477.846 15.9783 492.151 4.71694 492.76 5.63003C494.586 9.28235 495.499 28.7614 493.977 31.5007C492.76 33.6312 485.151 30.2832 487.586 30.2832C507.673 30.2832 532.935 36.6748 554.545 41.2402C555.458 41.5445 556.675 41.5445 556.675 42.4576C556.675 48.5448 528.674 44.5881 528.674 48.8492C528.674 51.8928 567.632 62.8498 573.111 67.1108C574.633 68.3283 581.024 73.198 579.502 74.7198C574.328 79.8939 561.545 73.5024 554.545 76.8503" fill="#1F1F1F"/>
            <path opacity="0.23" d="M141.528 824.968C177.442 838.664 119.614 992.366 128.136 991.453C228.271 983.539 289.447 1006.06 289.447 1009.71C289.447 1013.06 272.098 1012.15 268.751 1013.06C248.663 1018.24 198.443 1021.89 177.747 1020.67C139.702 1018.24 128.136 1017.32 90.091 1017.32C85.2213 1017.32 79.7427 1017.63 75.786 1014.89C59.9593 1004.24 90.3954 954.017 92.2215 938.19C95.2651 912.928 101.048 868.796 97.7 844.142C96.4826 836.229 83.3951 815.533 84.9169 807.924C87.9604 792.401 136.962 823.142 141.528 824.968Z" fill="#1F1F1F"/>
            <path opacity="0.23" d="M234.053 401.907C236.183 402.82 238.618 403.734 240.444 405.255C243.792 407.386 232.531 404.038 228.574 404.038C219.444 404.038 51.4367 481.65 106.83 718.746C123.874 792.097 196.008 822.838 246.227 823.751C291.577 824.664 334.492 809.141 352.753 797.271C353.362 796.967 352.449 814.316 351.84 814.62C347.579 816.142 308.621 838.056 267.228 842.621C254.445 844.143 242.575 840.186 229.792 841.099C195.095 843.534 185.66 841.099 152.789 831.055C140.919 827.403 128.44 814.011 118.396 807.924C98.0038 795.445 81.8727 777.184 70.9157 749.183C64.8285 733.051 57.8282 717.225 55.3933 701.398C49.3061 662.135 49.9149 626.525 59.35 589.089C64.2198 570.219 50.8279 604.611 54.7846 578.436C74.5681 449.388 120.831 350.166 234.053 401.907Z" fill="#1F1F1F"/>
            <path opacity="0.23" d="M523.804 883.405C528.978 878.536 530.804 905.319 530.804 907.754C529.283 928.451 520.152 946.104 507.673 962.539C507.064 963.148 510.108 957.669 510.412 958.278C511.325 960.713 524.717 966.191 527.152 966.8C534.761 968.322 606.286 995.106 596.546 1010.02C596.242 1010.32 522.587 1008.8 516.5 1008.8C476.324 1008.8 445.279 1008.8 405.104 1008.8C399.321 1008.8 370.102 1000.28 366.754 995.41C362.189 988.714 376.798 964.67 378.929 958.887C380.146 955.843 385.929 926.929 386.538 926.625C399.321 918.102 427.322 921.45 441.627 917.798C465.063 912.015 506.456 900.145 523.804 883.405Z" fill="#1F1F1F"/>
            <path opacity="0.23" d="M606.286 774.444C602.329 785.097 603.546 801.836 600.198 808.837C594.72 820.098 595.937 804.576 586.502 813.098C581.632 817.663 581.024 853.578 571.284 850.534C560.327 847.186 528.674 881.274 523.804 879.753C522.282 879.144 527.761 888.275 525.934 887.362C523.804 886.144 529.587 887.057 528.978 889.492C528.369 894.666 531.413 905.623 529.891 910.797C528.674 916.276 507.673 959.191 509.195 959.495C529.891 964.669 546.935 957.973 552.718 951.886C586.502 918.102 612.677 861.795 608.112 809.75C607.807 803.358 608.416 768.661 606.286 774.444Z" fill="#303032"/>
            <path opacity="0.23" d="M230.096 911.102C233.14 907.45 192.356 877.927 202.704 881.275C454.714 961.931 556.675 847.796 559.414 851.448C560.327 852.665 545.414 864.535 544.501 865.753C528.37 883.406 512.847 892.536 491.238 903.493C373.45 961.931 226.14 915.668 230.096 911.102Z" fill="#1F1F1F"/>
            <path d="M549.979 94.8079C564.588 104.547 573.415 120.678 583.154 134.679C631.548 203.16 605.981 290.207 571.589 358.993C568.545 365.08 564.284 372.08 563.371 378.776C562.762 382.124 564.893 387.907 563.371 390.95C562.762 392.168 559.719 387.603 559.414 389.124C558.501 395.516 559.414 402.821 560.023 408.908C560.327 411.343 563.067 417.734 561.24 415.908C560.632 415.299 559.11 410.125 556.675 410.734C555.458 411.038 556.675 445.127 557.284 448.475" stroke="#1F1F1F" stroke-width="8.46304" stroke-miterlimit="10" stroke-linecap="round" stroke-linejoin="round"/>
            <path d="M554.545 96.9378C561.849 100.59 566.415 100.59 573.72 102.721C577.372 103.634 580.415 105.156 584.068 106.069C587.416 106.677 591.068 106.982 594.416 107.895C595.938 108.199 598.981 110.634 598.981 109.112C598.981 104.242 560.328 82.6329 552.719 80.198C551.501 79.8936 549.979 79.8936 549.371 78.9806C548.762 77.4588 552.414 77.4588 553.936 77.1544C561.241 75.3282 578.589 81.1111 584.677 76.5457C586.198 75.3282 573.111 67.4149 572.502 66.8061C564.589 62.2407 556.371 56.4579 547.545 54.023C542.37 52.5012 531.413 56.1535 531.413 50.6751C531.413 44.2835 560.632 46.414 562.763 44.2835C563.067 43.9791 561.849 43.9791 561.545 43.6748C554.849 40.3268 547.545 37.5876 540.544 36.0658C527.152 33.0221 503.717 29.6742 490.629 34.2396" stroke="#1F1F1F" stroke-width="8.46304" stroke-miterlimit="10" stroke-linecap="round" stroke-linejoin="round"/>
            <path d="M488.499 37.2835C492.151 29.6745 499.151 17.1957 495.499 8.36929C495.195 7.76057 492.455 4.71697 491.542 5.02133C488.803 6.23877 486.977 11.1085 483.933 12.6303C471.15 19.3263 457.15 24.196 442.845 27.2396C434.627 29.0658 426.105 29.9789 417.887 31.805C416.061 32.1094 412.104 32.4138 412.104 32.4138C412.104 32.4138 423.366 22.3699 419.105 20.2393C418.496 19.935 386.234 31.805 383.19 33.0225C360.059 41.8489 336.927 47.3274 315.013 57.98" stroke="#1F1F1F" stroke-width="8.46304" stroke-miterlimit="10" stroke-linecap="round" stroke-linejoin="round"/>
            <path d="M605.373 777.487C605.982 800.01 594.112 822.228 594.112 822.228C594.112 822.228 589.242 807.619 586.807 811.576C584.068 816.141 573.415 855.708 566.415 853.578C566.11 853.578 566.415 842.925 565.806 843.534C563.371 844.751 549.066 863.926 544.196 867.578C526.848 880.666 506.151 891.623 486.064 900.449C411.495 933.016 300.708 946.103 226.444 908.971" stroke="#1F1F1F" stroke-width="8.46304" stroke-miterlimit="10" stroke-linecap="round" stroke-linejoin="round"/>
            <path d="M530.805 877.318C537.805 898.927 521.065 944.886 504.021 961.626" stroke="#1F1F1F" stroke-width="8.46304" stroke-miterlimit="10" stroke-linecap="round" stroke-linejoin="round"/>
            <path d="M385.625 929.364C385.016 944.582 378.929 977.148 366.45 989.323" stroke="#1F1F1F" stroke-width="8.46304" stroke-miterlimit="10" stroke-linecap="round" stroke-linejoin="round"/>
            <path d="M506.76 961.017C546.022 959.8 591.068 996.628 594.111 999.976" stroke="#1F1F1F" stroke-width="8.46304" stroke-miterlimit="10" stroke-linecap="round" stroke-linejoin="round"/>
            <path d="M468.106 1008.8C451.671 1008.8 431.888 1007.58 415.452 1006.98C405.713 1006.67 362.189 1005.15 364.624 992.061" stroke="#1F1F1F" stroke-width="8.46304" stroke-miterlimit="10" stroke-linecap="round" stroke-linejoin="round"/>
            <path d="M262.055 923.58C253.837 942.146 241.054 958.277 221.27 964.973" stroke="#1F1F1F" stroke-width="8.46304" stroke-miterlimit="10" stroke-linecap="round" stroke-linejoin="round"/>
            <path d="M87.9602 809.141C110.787 855.1 95.2649 917.494 80.3512 963.148C76.0902 976.54 56.3068 1009.41 79.4382 1015.5" stroke="#1F1F1F" stroke-width="8.46304" stroke-miterlimit="10" stroke-linecap="round" stroke-linejoin="round"/>
            <path d="M223.705 963.452C279.099 973.191 300.708 992.67 313.796 1009.11" stroke="#1F1F1F" stroke-width="8.46304" stroke-miterlimit="10" stroke-linecap="round" stroke-linejoin="round"/>
            <path d="M313.187 1010.02C307.404 1014.89 83.6989 1021.89 78.5247 1015.19" stroke="#1F1F1F" stroke-width="8.46304" stroke-miterlimit="10" stroke-linecap="round" stroke-linejoin="round"/>
            <path d="M381.059 724.225C388.059 753.139 342.101 779.923 317.448 783.88C246.227 795.141 201.486 760.748 212.139 681.006C214.574 663.353 217.313 634.439 226.748 618.916" stroke="#1F1F1F" stroke-width="8.46304" stroke-miterlimit="10" stroke-linecap="round" stroke-linejoin="round"/>
            <path d="M382.581 719.355C415.756 758.313 403.886 781.445 364.928 805.793" stroke="#1F1F1F" stroke-width="8.46304" stroke-miterlimit="10" stroke-linecap="round" stroke-linejoin="round"/>
            <path d="M372.842 800.923C356.406 813.707 189.312 905.928 85.5254 776.575C45.0455 726.051 46.2629 665.787 60.5678 587.567" stroke="#1F1F1F" stroke-width="8.46304" stroke-miterlimit="10" stroke-linecap="round" stroke-linejoin="round"/>
            <path d="M351.841 43.3705C191.139 96.6335 132.701 267.075 132.701 380.602" stroke="#1F1F1F" stroke-width="8.46304" stroke-miterlimit="10" stroke-linecap="round" stroke-linejoin="round"/>
            <path d="M607.503 776.879C607.503 836.534 612.373 877.622 575.545 928.755C566.414 941.538 546.935 964.061 528.978 964.061" stroke="#1F1F1F" stroke-width="8.46304" stroke-miterlimit="10" stroke-linecap="round" stroke-linejoin="round"/>
            <path d="M584.676 908.363C562.153 912.015 551.196 899.841 532.63 890.71" stroke="#1F1F1F" stroke-width="8.46304" stroke-miterlimit="10" stroke-linecap="round" stroke-linejoin="round"/>
            <path d="M560.936 906.232C560.936 922.667 529.587 956.147 511.326 956.147" stroke="#1F1F1F" stroke-width="8.46304" stroke-miterlimit="10" stroke-linecap="round" stroke-linejoin="round"/>
            <path d="M355.493 770.183C361.58 785.097 356.406 795.445 356.406 808.837" stroke="#1F1F1F" stroke-width="8.46304" stroke-miterlimit="10" stroke-linecap="round" stroke-linejoin="round"/>
            <path d="M398.712 745.53C398.712 768.965 378.016 783.27 360.058 792.097" stroke="#1F1F1F" stroke-width="8.46304" stroke-miterlimit="10" stroke-linecap="round" stroke-linejoin="round"/>
            <path d="M502.499 962.235C486.063 973.192 472.367 985.975 463.845 1003.63" stroke="#1F1F1F" stroke-width="8.46304" stroke-miterlimit="10" stroke-linecap="round" stroke-linejoin="round"/>
            <path d="M221.575 964.06C196.922 974.104 175.312 992.366 163.442 1016.11" stroke="#1F1F1F" stroke-width="8.46304" stroke-miterlimit="10" stroke-linecap="round" stroke-linejoin="round"/>
            <path d="M598.068 1010.02C582.546 1013.67 454.41 1006.98 447.105 1008.19L598.068 1010.02Z" fill="#1F1F1F"/>
            <path d="M598.068 1010.02C582.546 1013.67 454.41 1006.98 447.105 1008.19" stroke="#1F1F1F" stroke-width="8.46304" stroke-miterlimit="10" stroke-linejoin="round"/>
            <path d="M592.894 998.453L594.72 999.366L597.764 1003.63L598.981 1006.98L598.068 1010.02" fill="#1F1F1F"/>
            <path d="M592.894 998.453L594.72 999.366L597.764 1003.63L598.981 1006.98L598.068 1010.02" stroke="#1F1F1F" stroke-width="8.46304" stroke-miterlimit="10" stroke-linejoin="round"/>
            <path d="M596.85 1009.72C581.632 997.236 513.456 971.67 487.889 976.235" stroke="#1F1F1F" stroke-width="8.46304" stroke-miterlimit="10" stroke-linecap="round" stroke-linejoin="round"/>
            <path d="M307.709 1009.41C284.273 997.54 255.359 989.018 227.053 985.67C214.574 984.148 202.4 983.54 190.834 984.148" stroke="#1F1F1F" stroke-width="8.46304" stroke-miterlimit="10" stroke-linecap="round" stroke-linejoin="round"/>
            <path d="M556.066 453.953C430.67 489.868 303.143 464.301 289.142 457.301" stroke="#1F1F1F" stroke-width="8.46304" stroke-miterlimit="10" stroke-linecap="round" stroke-linejoin="round"/>
            <path d="M413.706 585.149C435.292 581.324 453.537 577.877 471.012 575.21C485.207 573.218 490.275 582.74 489.259 592.893C487.787 606.869 478.898 618.023 464.852 625.266C464.019 625.749 463.423 625.871 461.696 626.538C474.805 632.85 473.535 650.824 485.373 664.544C474.22 666.22 464.199 667.352 453.642 668.905C446.548 660.111 442.137 650.765 439.339 641.708C437.699 636.763 435.411 633.195 427.073 636.466C423.084 648.786 420.648 661.096 423.885 673.791C413.986 675.52 404.683 677.125 394.846 679.151C389.942 646.29 411.087 617.696 413.706 585.149ZM440.168 598.965C438.652 605.181 436.776 611.161 434.19 618.22C440.389 616.632 446.115 615.764 451.954 613.939C457.197 612.238 460.756 608.397 462.281 603.733C463.745 598.77 461.816 595.438 456.923 595.824C451.733 596.272 446.13 597.737 440.168 598.965Z" fill="#303032"/>
            <path d="M570.195 581.505C560.778 584.066 552.195 586.145 543.672 588.522C543.268 580.525 539.191 577.326 532.273 578.44C527.74 579.063 523.874 581.413 521.7 587.454C521.429 592.171 523.822 593.232 526.988 593.512C533.02 594.134 539.052 594.756 545.085 595.378C548.609 595.895 551.836 596.473 555.185 597.648C576.054 603.915 571.321 632.236 555.593 647.905C550.43 653.009 543.766 656.867 537.69 659.051C527.564 662.691 517.244 663.884 506.67 662.333C492.93 660.502 482.96 649.815 485.616 634.041C493.962 632.322 502.011 630.664 510.893 628.524C511.261 630.312 511.332 632.162 511.639 633.653C513.779 642.535 523.047 645.287 531.972 640.341C535.838 637.991 538.863 634.571 539.494 630.091C539.888 625.97 538.082 623.234 534.794 622.358C531.804 621.42 528.937 621.078 526.069 620.737C519.976 619.816 513.943 619.194 508.323 617.555C497.976 614.093 495.065 605.992 497.51 595.233C500.306 583.16 507.109 572.436 518.059 566.762C528.414 561.211 539.444 558.939 551.57 560.481C563.748 560.77 570.351 567.178 570.195 581.505Z" fill="#303032"/>
            <path opacity="0.23" d="M613.286 647.83C617.547 656.961 599.286 626.221 593.198 622.264C580.111 614.046 560.327 613.742 545.718 613.742C507.977 613.742 476.933 649.352 436.453 649.352C426.104 649.352 395.973 643.569 405.104 625.612C409.973 615.568 433.713 618.003 442.844 618.003C481.498 618.003 516.499 613.437 554.24 607.046C563.371 605.524 584.981 605.524 592.59 591.828C594.416 588.176 601.112 617.394 602.633 619.829C611.764 633.221 605.981 632.003 613.286 647.83Z" fill="#303032"/>
            <path d="M556.067 454.257C554.545 446.039 564.893 460.649 566.719 464.91C569.459 470.997 563.371 476.475 563.676 479.519C563.98 483.171 569.763 491.693 571.285 495.65C582.546 526.086 609.634 565.044 592.894 597.915" stroke="#1F1F1F" stroke-width="8.46304" stroke-miterlimit="10" stroke-linecap="round" stroke-linejoin="round"/>
            <path d="M634.287 762.269C580.719 793.923 463.236 800.923 385.929 791.792" stroke="#1F1F1F" stroke-width="8.46304" stroke-miterlimit="10" stroke-linecap="round" stroke-linejoin="round"/>
            <path d="M636.417 760.748C642.2 724.225 628.504 677.657 615.112 643.873C609.634 629.873 599.285 616.177 594.72 601.872" stroke="#1F1F1F" stroke-width="8.46304" stroke-miterlimit="10" stroke-linecap="round" stroke-linejoin="round"/>
            <path d="M133.31 376.95C132.701 380.298 133.614 385.167 133.919 389.733" stroke="#1F1F1F" stroke-width="8.46304" stroke-miterlimit="10" stroke-linecap="round" stroke-linejoin="round"/>
            <path d="M67.2642 586.045C49.9156 591.828 57.829 568.696 59.0464 559.87" stroke="#1F1F1F" stroke-width="8.46304" stroke-miterlimit="10" stroke-linecap="round" stroke-linejoin="round"/>
            <path d="M111.396 417.43C105.613 425.648 100.135 434.474 94.9608 442.996C77.9166 471.91 61.4811 540.087 56.9157 576.002" stroke="#1F1F1F" stroke-width="8.46304" stroke-miterlimit="10" stroke-linecap="round" stroke-linejoin="round"/>
            <path d="M226.14 619.829C248.054 622.873 246.836 611.916 245.923 593.959" stroke="#1F1F1F" stroke-width="8.46304" stroke-miterlimit="10" stroke-linecap="round" stroke-linejoin="round"/>
            <path d="M294.316 509.042C279.403 522.738 262.359 542.217 255.663 562C252.315 572.044 250.184 586.045 245.619 595.48" stroke="#1F1F1F" stroke-width="8.46304" stroke-miterlimit="10" stroke-linecap="round" stroke-linejoin="round"/>
            <path d="M266.924 541C268.446 529.434 269.968 514.825 274.838 504.781" stroke="#1F1F1F" stroke-width="8.46304" stroke-miterlimit="10" stroke-linecap="round" stroke-linejoin="round"/>
            <path d="M161.615 386.994C242.575 368.428 293.708 457.301 289.447 460.649" stroke="#1F1F1F" stroke-width="8.46304" stroke-miterlimit="10" stroke-linecap="round" stroke-linejoin="round"/>
            <path d="M108.656 421.69C123.874 402.211 136.353 394.907 161.006 387.298" stroke="#1F1F1F" stroke-width="8.46304" stroke-miterlimit="10" stroke-linecap="round" stroke-linejoin="round"/>
            <path d="M132.701 382.428C132.093 386.689 132.701 390.646 132.093 394.907" stroke="#1F1F1F" stroke-width="8.46304" stroke-miterlimit="10" stroke-linecap="round" stroke-linejoin="round"/>
            <path d="M398.407 201.943L226.444 198.899" stroke="#1F1F1F" stroke-width="24.5491" stroke-miterlimit="10" stroke-linecap="round" stroke-linejoin="round"/>
            <path d="M479.367 205.29L534.761 206.203L628.199 207.725" stroke="#1F1F1F" stroke-width="24.5491" stroke-miterlimit="10" stroke-linecap="round" stroke-linejoin="round"/>
            <path d="M356.102 213.813C343.318 252.162 276.664 239.988 275.446 208.943" stroke="#1F1F1F" stroke-width="9.85184" stroke-miterlimit="10" stroke-linecap="round" stroke-linejoin="round"/>
            <path d="M590.763 219.595C596.242 246.988 520.76 249.118 520.76 214.725" stroke="#1F1F1F" stroke-width="9.85184" stroke-miterlimit="10" stroke-linecap="round" stroke-linejoin="round"/>
            <path d="M482.715 240.901C483.02 232.683 466.889 225.074 446.496 224.161C426.104 223.248 409.06 229.03 408.756 237.248C408.451 245.466 424.582 253.075 444.975 253.988C465.367 255.205 482.411 249.118 482.715 240.901Z" fill="#303032"/>
            <path d="M308.317 207.725C307.709 207.116 306.796 206.812 306.187 206.203" stroke="#1F1F1F" stroke-width="9.85184" stroke-miterlimit="10" stroke-linecap="round" stroke-linejoin="round"/>
            <path d="M445.583 256.727C445.583 287.468 428.235 251.249 403.886 263.423" stroke="#303032" stroke-width="9.85184" stroke-miterlimit="10" stroke-linecap="round" stroke-linejoin="round"/>
            <path d="M242.88 594.872C213.053 567.175 161.007 544.348 111.701 552.87" stroke="#303032" stroke-width="8.46304" stroke-miterlimit="10" stroke-linecap="round" stroke-linejoin="round"/>
            <path d="M345.145 494.433C380.755 506.912 518.935 505.999 562.458 477.389" stroke="#303032" stroke-width="8.46304" stroke-miterlimit="10" stroke-linecap="round" stroke-linejoin="round"/>
            <path d="M536.587 460.344C538.414 465.518 540.24 469.475 540.24 475.258" stroke="#303032" stroke-width="8.46304" stroke-miterlimit="10" stroke-linecap="round" stroke-linejoin="round"/>
            <path d="M504.629 466.736C507.064 471.606 507.369 477.693 507.369 483.172" stroke="#303032" stroke-width="8.46304" stroke-miterlimit="10" stroke-linecap="round" stroke-linejoin="round"/>
            <path d="M466.28 471.605L468.41 484.389" stroke="#303032" stroke-width="8.46304" stroke-miterlimit="10" stroke-linecap="round" stroke-linejoin="round"/>
            <path d="M439.496 475.258V477.389V478.911V481.041V482.259V483.78V485.302" stroke="#303032" stroke-width="8.46304" stroke-miterlimit="10" stroke-linecap="round" stroke-linejoin="round"/>
            <path d="M219.14 579.653C217.618 584.523 215.487 587.871 212.748 592.436" stroke="#303032" stroke-width="8.46304" stroke-miterlimit="10" stroke-linecap="round" stroke-linejoin="round"/>
            <path d="M192.356 566.87L187.182 578.132" stroke="#303032" stroke-width="8.46304" stroke-miterlimit="10" stroke-linecap="round" stroke-linejoin="round"/>
            <path d="M165.876 557.74L163.746 569.61" stroke="#303032" stroke-width="8.46304" stroke-miterlimit="10" stroke-linecap="round" stroke-linejoin="round"/>
            <path d="M454.41 475.867V477.389V478.91V480.128V481.65V483.171" stroke="#303032" stroke-width="8.46304" stroke-miterlimit="10" stroke-linecap="round" stroke-linejoin="round"/>
            <path d="M348.493 471.605V473.127V474.649V477.388V478.91" stroke="#303032" stroke-width="8.46304" stroke-miterlimit="10" stroke-linecap="round" stroke-linejoin="round"/>
            <path d="M337.84 471.605V473.736V475.866V477.388" stroke="#303032" stroke-width="8.46304" stroke-miterlimit="10" stroke-linecap="round" stroke-linejoin="round"/>
            <path d="M556.066 215.639C556.066 208.943 550.588 203.464 543.892 203.464C537.196 203.464 531.717 208.943 531.717 215.639C531.717 222.335 537.196 227.813 543.892 227.813C550.588 227.813 556.066 222.335 556.066 215.639Z" fill="#1F1F1F"/>
            <path d="M310.143 208.638C310.143 201.942 304.665 196.464 297.969 196.464C291.273 196.464 285.794 201.942 285.794 208.638C285.794 215.334 291.273 220.813 297.969 220.813C304.665 220.813 310.143 215.334 310.143 208.638Z" fill="#1F1F1F"/>
            <path d="M390.494 729.094L394.147 560.174C394.147 548.304 382.885 538.869 369.189 538.869C369.189 538.869 322.318 540.087 266.924 541" stroke="#1F1F1F" stroke-width="7.65558" stroke-miterlimit="10" stroke-linecap="round" stroke-linejoin="round"/>
            <path d="M58.4371 540.086C39.2624 539.782 28.3055 539.478 28.3055 539.478C14.6093 539.478 3.34795 548.913 3.34795 560.783L-3.21727e-05 782.053C-3.21727e-05 793.923 11.2613 803.358 24.9575 803.358L111.7 803.663" stroke="#1F1F1F" stroke-width="7.65558" stroke-miterlimit="10" stroke-linecap="round" stroke-linejoin="round"/>
            <path d="M326.883 222.03C327.796 222.03 328.709 221.726 329.623 221.726L326.883 222.03Z" fill="#1F1F1F"/>
        </g>
    </svg>

    <svg fill="none">
        <g id="bg-home-light" class="img">
            <path d="M222.183 964.365C246.228 974.105 269.663 970.757 290.36 988.41C294.012 991.453 305.274 1001.5 303.752 1006.67C301.013 1015.5 282.142 1013.06 275.142 1013.37C248.967 1013.98 221.879 1017.32 195.704 1017.93C190.834 1017.93 166.181 1020.67 165.572 1014.28C163.746 997.54 198.443 985.062 206.661 976.54" fill="#FDFDFF"/>
            <path d="M503.108 959.495C529.892 958.886 560.023 970.756 580.72 987.192C582.85 988.714 599.286 1004.24 597.459 1006.67C593.198 1012.76 572.806 1008.19 566.719 1008.8C540.544 1011.54 512.543 1006.67 485.759 1007.28C481.194 1007.28 463.845 1010.63 461.106 1005.15C457.149 997.54 478.15 984.757 482.107 982.626" fill="#FDFDFF"/>
            <path d="M534.761 897.406C537.805 890.101 554.241 901.971 560.328 905.623C563.371 907.45 583.155 907.754 581.937 911.102C575.85 931.19 559.11 952.495 541.762 961.626C540.24 962.539 507.673 964.365 507.369 962.539C506.76 959.495 516.5 948.234 518.022 945.495C526.848 931.798 528.979 912.319 534.761 897.406Z" fill="#FDFDFF"/>
            <path d="M377.711 686.18C378.016 685.571 378.624 684.962 378.929 684.049L377.711 686.18Z" fill="#FDFDFF"/>
            <path d="M393.234 579.35C398.103 602.177 395.973 593.046 395.06 616.786C394.451 632.004 385.016 713.268 387.451 725.442C389.886 737.617 405.712 743.704 399.93 765.922C394.755 786.01 343.319 815.229 325.97 823.751C301.621 835.621 247.749 793.619 220.661 793.923C200.878 794.228 166.485 799.706 149.137 792.706C137.571 788.141 135.136 803.663 122.657 804.88C104.091 806.707 77.6119 804.272 59.046 806.098C47.4803 807.315 14.9137 810.055 6.39166 799.706C0.608795 792.402 3.65237 768.662 4.26108 760.444C5.47855 742.487 2.73932 723.616 0.913147 705.963C-2.73917 668.527 6.08725 631.699 5.7829 593.959C5.7829 583.306 0.608765 555.305 8.21777 547.087C15.8268 538.261 58.4372 543.435 70.6117 542.826C129.049 540.391 180.79 542.522 239.227 541.913C276.664 541.609 319.578 538.87 356.71 540.391C371.624 541 390.799 526.086 389.886 547.696" fill="#FDFDFF"/>
            <path d="M554.849 98.7647C562.458 98.7647 582.85 137.723 587.111 145.941C620.895 204.986 608.416 273.772 581.632 332.513C574.632 347.731 577.98 352.297 570.98 366.297C567.632 372.689 556.37 387.907 556.37 394.907C556.37 396.429 556.37 399.473 556.37 399.473C556.37 399.473 558.501 388.211 560.936 383.342C561.849 381.82 564.893 378.776 563.371 378.776C562.458 378.776 561.24 381.211 560.936 381.82C553.631 400.386 561.849 424.126 556.979 443.605C553.631 456.997 528.065 473.128 513.76 476.78C460.193 490.172 406.321 475.867 352.753 475.867C339.361 475.867 300.708 480.128 289.446 468.867C280.011 459.432 276.968 447.257 269.359 436.605C259.01 422.3 234.966 404.647 218.53 397.951C201.486 390.951 179.877 395.212 163.137 399.473C158.876 400.69 145.788 406.169 141.527 401.908C134.527 394.907 131.179 374.515 133.005 365.689C137.571 342.253 136.049 307.556 140.614 284.729C143.658 269.206 149.441 254.293 155.223 239.379C178.051 180.029 210.008 131.94 260.837 94.808C273.62 85.6772 294.925 69.2417 309.534 61.9371C323.535 54.9368 339.362 55.2411 353.362 47.9365C371.928 38.8057 392.016 26.6313 412.104 21.7615C416.973 20.5441 409.973 29.3705 410.582 30.2836C411.191 31.501 423.669 31.501 425.191 31.1967C441.931 27.8487 458.671 28.1531 474.497 21.1528C477.237 19.9353 486.672 10.1958 490.02 11.1089C499.455 14.1525 485.454 40.3275 485.454 40.3275C485.454 40.3275 486.672 38.197 487.889 37.2839C492.455 33.6315 502.803 30.8923 508.586 29.6749C521.065 27.24 526.543 35.1534 537.196 37.2839C538.718 37.5882 551.196 40.9362 551.196 41.2406C551.196 43.9798 531.109 47.0234 531.109 49.7626C531.109 52.1975 535.37 51.2844 536.587 51.2844C542.37 52.1975 576.154 66.1981 573.719 73.5028C572.502 76.8507 554.849 76.8507 551.501 78.9812C550.588 79.59 548.457 79.8943 548.457 79.8943C548.457 79.8943 562.458 82.0248 569.154 83.851C577.676 85.9815 595.329 105.461 579.806 105.461" fill="#FDFDFF"/>
            <path d="M88.8733 809.142C91.9169 810.055 101.961 837.752 103.178 848.404C105.917 869.405 96.7867 894.971 94.0474 915.668C91.6125 936.06 78.8294 961.931 70.6117 980.801C67.5681 987.193 67.8724 1001.5 69.6986 1008.5C73.0466 1021.59 150.354 1021.28 160.702 1017.02C160.702 1017.02 184.747 987.193 192.356 981.41C199.052 976.54 194.182 975.627 209.096 969.235C218.531 965.279 230.096 965.279 238.619 956.452C246.836 948.234 251.402 929.364 260.533 923.277C269.359 917.19 276.359 921.755 305.274 927.842C334.188 933.93 355.189 932.712 383.19 925.712C388.06 924.494 387.146 933.93 384.712 944.582C381.972 956.452 377.103 969.844 375.276 972.583C373.755 974.714 360.363 990.236 364.015 993.888C371.32 1001.19 423.67 1008.5 432.496 1008.5C442.236 1008.5 451.366 1004.24 461.106 1006.06C463.237 1006.37 467.802 1006.06 467.802 1006.06C467.802 1006.06 462.628 1008.19 463.237 1006.67C464.15 1003.63 470.237 998.758 472.367 996.019C479.976 985.975 492.151 971.975 500.673 963.148C507.977 955.843 510.108 949.148 514.673 940.017C521.369 926.32 525.935 909.581 529.891 894.667C530.805 891.319 531.718 897.711 533.544 894.667C541.153 883.406 568.85 925.103 584.981 908.972C592.59 901.363 603.547 884.928 605.373 875.797C609.938 853.274 611.46 826.795 611.46 803.055C611.46 799.098 612.982 779.923 610.851 778.097C605.982 774.445 596.242 776.575 590.459 776.575C571.284 776.575 555.153 775.053 535.979 780.228C523.195 783.576 512.847 791.793 499.76 793.011C479.063 795.141 458.367 789.663 437.67 791.489C417.887 793.011 400.843 796.359 383.798 793.011C379.842 792.098 358.537 815.229 355.797 812.49C352.754 809.446 361.276 770.488 354.884 768.966C343.623 766.227 334.492 777.184 323.839 779.314C297.664 784.489 268.446 786.315 244.401 771.705C233.749 765.314 222.792 755.574 218.531 745.226C213.965 733.66 214.574 723.921 210.313 712.051C204.835 697.137 211.531 675.223 214.574 660.005C216.4 650.266 225.227 624.395 220.357 614.351C211.835 597.307 157.05 569.61 138.484 565.045C121.744 561.088 102.57 557.74 85.5254 562.001C64.5245 567.175 61.7853 584.828 58.1329 599.438C45.9586 648.135 48.3934 698.05 71.2204 748.878C77.3076 762.27 80.6556 773.227 92.5256 782.054C95.2649 784.184 108.352 800.011 108.961 801.228C110.179 803.359 92.83 802.446 92.2213 802.75C78.5251 807.316 90.3951 813.403 94.6562 827.403" fill="#FDFDFF"/>
            <path d="M556.675 453.04C557.284 445.127 575.241 467.041 569.763 474.345C567.328 477.389 563.371 479.519 561.545 482.563C560.328 484.085 563.067 486.215 563.676 487.128C573.415 500.216 579.807 514.825 585.589 529.435C591.981 545.261 595.938 559.262 598.373 576.306C599.894 586.959 591.372 597.916 593.807 607.351C600.199 632.917 617.547 633.221 624.852 683.745C627.591 701.398 635.505 722.399 635.505 740.661C635.505 743.704 637.026 755.879 633.983 758.009C594.112 787.228 535.674 790.576 481.803 790.576C470.846 790.576 460.497 799.402 449.845 796.663C434.018 792.706 418.191 793.924 402.365 789.967C400.234 789.358 389.277 792.098 389.277 789.967C389.277 789.358 401.451 775.053 402.365 771.705C408.147 748.574 398.712 740.356 387.147 723.312C382.885 716.921 388.364 694.702 389.277 687.702C394.451 656.962 391.103 631.091 395.669 600.046C396.582 594.568 399.321 562.914 392.625 561.088C386.233 559.566 393.842 544.348 387.451 542.522C362.493 536.13 334.492 543.131 308.622 538.565C304.361 537.957 271.49 534.304 267.533 538.261C264.185 541.609 260.837 553.479 258.706 558.653C254.141 569.61 250.489 581.785 245.315 592.437C240.445 602.177 245.619 632.917 226.14 619.221C128.44 551.957 60.5679 588.176 60.5679 586.959C60.8723 536.131 71.2205 472.519 98.3086 436.605C110.483 420.474 127.223 398.864 149.137 393.385C161.616 390.342 175.312 378.167 189.312 382.124C215.792 389.733 251.097 401.299 267.837 424.126C273.316 431.431 281.534 449.997 289.143 455.171C292.49 457.301 297.056 458.823 301.317 459.432C322.318 463.693 343.927 462.78 364.928 467.041C409.974 476.171 445.584 472.215 490.629 463.388C497.934 461.867 515.282 463.997 522.283 462.78C531.109 461.258 538.414 461.258 547.24 459.127C557.284 456.692 556.675 453.953 556.675 453.04Z" fill="#DCDBE1"/>
            <path d="M591.372 218.378C584.981 192.203 568.849 162.375 545.109 158.114C517.413 152.94 494.585 175.158 467.802 174.245C462.932 173.941 453.193 171.202 450.149 166.636C447.41 162.68 450.149 156.897 450.149 156.897C445.888 158.114 441.627 164.201 436.453 165.723C416.365 171.506 395.668 153.853 377.407 148.375C316.839 130.113 269.663 136.505 237.401 194.942C230.096 208.029 219.139 238.161 226.444 271.641C237.401 320.643 243.184 341.035 296.143 377.558C359.145 421.082 489.716 442.691 554.849 360.514C585.894 322.164 603.546 267.684 591.372 218.378Z" fill="#FDFDFF"/>
            <path d="M469.628 240.901C491.542 229.944 509.499 285.337 507.673 301.469C501.586 356.253 421.539 353.21 384.711 334.644C331.144 307.86 396.581 221.726 434.931 236.944" fill="#DCDBE1"/>
            <path d="M591.372 218.682C603.242 240.292 589.85 305.425 580.719 312.121C573.719 317.295 525.63 281.076 511.934 257.945C508.282 251.858 489.716 212.595 496.716 205.595C500.673 201.638 552.414 208.943 560.327 210.465C571.284 212.899 586.502 209.552 591.372 218.682Z" fill="#DCDBE1"/>
            <path d="M390.494 208.638C387.755 297.816 257.184 345.296 241.662 323.078C231.922 308.773 212.443 242.118 238.009 197.072C240.444 192.811 269.054 202.247 273.62 202.855C311.969 208.942 391.711 169.68 390.494 208.638Z" fill="#DCDBE1"/>
            <path d="M536.283 811.576L536.587 829.838" stroke="#DCDBE1" stroke-width="12.5007" stroke-miterlimit="10" stroke-linecap="round" stroke-linejoin="round"/>
            <path d="M516.5 822.533L516.804 840.49" stroke="#DCDBE1" stroke-width="12.5007" stroke-miterlimit="10" stroke-linecap="round" stroke-linejoin="round"/>
            <path d="M497.933 834.403V852.665" stroke="#DCDBE1" stroke-width="12.5007" stroke-miterlimit="10" stroke-linecap="round" stroke-linejoin="round"/>
            <path d="M142.441 621.655V639.917" stroke="#DCDBE1" stroke-width="12.5007" stroke-miterlimit="10" stroke-linecap="round" stroke-linejoin="round"/>
            <path d="M120.831 628.047L121.136 646.308" stroke="#DCDBE1" stroke-width="12.5007" stroke-miterlimit="10" stroke-linecap="round" stroke-linejoin="round"/>
            <path d="M527.457 414.386V432.343" stroke="#DCDBE1" stroke-width="12.5007" stroke-miterlimit="10" stroke-linecap="round" stroke-linejoin="round"/>
            <path d="M509.499 423.517V441.779" stroke="#DCDBE1" stroke-width="12.5007" stroke-miterlimit="10" stroke-linecap="round" stroke-linejoin="round"/>
            <path d="M349.71 212.291C349.71 220.508 348.188 225.987 345.449 229.639C337.231 240.292 318.665 234.509 300.099 231.161C280.011 227.813 275.446 215.334 271.794 207.725" fill="#FDFDFF"/>
            <path d="M588.633 207.725C605.677 252.162 535.065 247.596 521.978 213.812L588.633 207.725Z" fill="#FDFDFF"/>
            <path opacity="0.23" d="M594.416 104.243C581.329 104.243 570.372 100.59 557.588 97.8512C553.936 96.9381 546.631 93.2858 546.631 96.6338C546.631 97.5468 548.153 97.2425 548.762 97.8512C559.719 104.243 568.545 113.678 574.633 124.939C576.763 128.896 582.546 139.549 581.024 136.809C531.718 47.3274 171.964 13.8478 192.965 376.95C193.269 380.298 197.226 385.776 194.182 386.689C187.791 388.82 177.442 382.732 169.225 385.472C165.572 386.689 139.397 401.298 136.658 399.472C132.093 396.429 135.441 379.08 134.528 373.602C116.266 251.249 257.489 87.1986 269.664 80.5027C316.231 54.632 411.495 25.7178 413.626 25.4134C413.93 25.4134 422.452 30.5876 426.713 29.6745C442.236 26.9352 459.889 21.1524 475.411 16.587C477.846 15.9783 492.151 4.71694 492.76 5.63003C494.586 9.28235 495.499 28.7614 493.977 31.5007C492.76 33.6312 485.151 30.2832 487.586 30.2832C507.673 30.2832 532.935 36.6748 554.545 41.2402C555.458 41.5445 556.675 41.5445 556.675 42.4576C556.675 48.5448 528.674 44.5881 528.674 48.8492C528.674 51.8928 567.632 62.8498 573.111 67.1108C574.633 68.3283 581.024 73.198 579.502 74.7198C574.328 79.8939 561.545 73.5024 554.545 76.8503" fill="#DCDBE1"/>
            <path opacity="0.23" d="M141.528 824.968C177.442 838.664 119.614 992.366 128.136 991.453C228.271 983.539 289.447 1006.06 289.447 1009.71C289.447 1013.06 272.098 1012.15 268.751 1013.06C248.663 1018.24 198.443 1021.89 177.747 1020.67C139.702 1018.24 128.136 1017.32 90.091 1017.32C85.2213 1017.32 79.7427 1017.63 75.786 1014.89C59.9593 1004.24 90.3954 954.016 92.2215 938.19C95.2651 912.928 101.048 868.795 97.7 844.142C96.4826 836.229 83.3951 815.532 84.9169 807.923C87.9604 792.401 136.962 823.141 141.528 824.968Z" fill="#DCDBE1"/>
            <path opacity="0.23" d="M234.053 401.907C236.183 402.82 238.618 403.734 240.444 405.255C243.792 407.386 232.531 404.038 228.574 404.038C219.444 404.038 51.4367 481.65 106.83 718.746C123.874 792.097 196.008 822.838 246.227 823.751C291.577 824.664 334.492 809.141 352.753 797.271C353.362 796.967 352.449 814.316 351.84 814.62C347.579 816.142 308.621 838.056 267.228 842.621C254.445 844.143 242.575 840.186 229.792 841.099C195.095 843.534 185.66 841.099 152.789 831.055C140.919 827.403 128.44 814.011 118.396 807.924C98.0038 795.445 81.8727 777.184 70.9157 749.183C64.8285 733.051 57.8282 717.225 55.3933 701.398C49.3061 662.135 49.9149 626.525 59.35 589.089C64.2198 570.219 50.8279 604.611 54.7846 578.436C74.5681 449.388 120.831 350.166 234.053 401.907Z" fill="#DCDBE1"/>
            <path opacity="0.23" d="M523.804 883.405C528.978 878.536 530.804 905.319 530.804 907.754C529.283 928.451 520.152 946.104 507.673 962.539C507.064 963.148 510.108 957.669 510.412 958.278C511.325 960.713 524.717 966.191 527.152 966.8C534.761 968.322 606.286 995.106 596.546 1010.02C596.242 1010.32 522.587 1008.8 516.5 1008.8C476.324 1008.8 445.279 1008.8 405.104 1008.8C399.321 1008.8 370.102 1000.28 366.754 995.41C362.189 988.714 376.798 964.67 378.929 958.887C380.146 955.843 385.929 926.929 386.538 926.624C399.321 918.102 427.322 921.45 441.627 917.798C465.063 912.015 506.456 900.145 523.804 883.405Z" fill="#DCDBE1"/>
            <path opacity="0.23" d="M606.286 774.444C602.329 785.097 603.546 801.836 600.198 808.837C594.72 820.098 595.937 804.576 586.502 813.098C581.632 817.663 581.024 853.578 571.284 850.534C560.327 847.186 528.674 881.274 523.804 879.753C522.282 879.144 527.761 888.275 525.934 887.362C523.804 886.144 529.587 887.057 528.978 889.492C528.369 894.666 531.413 905.623 529.891 910.797C528.674 916.276 507.673 959.191 509.195 959.495C529.891 964.669 546.935 957.973 552.718 951.886C586.502 918.102 612.677 861.795 608.112 809.75C607.807 803.358 608.416 768.661 606.286 774.444Z" fill="#FDFDFF"/>
            <path opacity="0.23" d="M230.096 911.102C233.14 907.45 192.356 877.927 202.704 881.275C454.714 961.931 556.675 847.796 559.414 851.448C560.327 852.665 545.414 864.535 544.501 865.753C528.37 883.406 512.847 892.536 491.238 903.493C373.45 961.931 226.14 915.668 230.096 911.102Z" fill="#DCDBE1"/>
            <path d="M549.979 94.8079C564.588 104.547 573.415 120.678 583.154 134.679C631.548 203.16 605.981 290.207 571.589 358.993C568.545 365.08 564.284 372.08 563.371 378.776C562.762 382.124 564.893 387.907 563.371 390.95C562.762 392.168 559.719 387.603 559.414 389.124C558.501 395.516 559.414 402.821 560.023 408.908C560.327 411.343 563.067 417.734 561.24 415.908C560.632 415.299 559.11 410.125 556.675 410.734C555.458 411.038 556.675 445.127 557.284 448.475" stroke="#DCDBE1" stroke-width="8.46304" stroke-miterlimit="10" stroke-linecap="round" stroke-linejoin="round"/>
            <path d="M554.545 96.9377C561.849 100.59 566.415 100.59 573.72 102.721C577.372 103.634 580.415 105.155 584.068 106.069C587.416 106.677 591.068 106.982 594.416 107.895C595.938 108.199 598.981 110.634 598.981 109.112C598.981 104.242 560.328 82.6328 552.719 80.1979C551.501 79.8935 549.979 79.8935 549.371 78.9804C548.762 77.4586 552.414 77.4586 553.936 77.1543C561.241 75.3281 578.589 81.111 584.677 76.5456C586.198 75.3281 573.111 67.4147 572.502 66.806C564.589 62.2406 556.371 56.4578 547.545 54.0229C542.37 52.5011 531.413 56.1534 531.413 50.6749C531.413 44.2834 560.632 46.4139 562.763 44.2834C563.067 43.979 561.849 43.979 561.545 43.6746C554.849 40.3267 547.545 37.5874 540.544 36.0656C527.152 33.022 503.717 29.6741 490.629 34.2395" stroke="#DCDBE1" stroke-width="8.46304" stroke-miterlimit="10" stroke-linecap="round" stroke-linejoin="round"/>
            <path d="M488.499 37.2835C492.151 29.6745 499.151 17.1957 495.499 8.36929C495.195 7.76057 492.455 4.71697 491.542 5.02133C488.803 6.23877 486.977 11.1085 483.933 12.6303C471.15 19.3263 457.15 24.196 442.845 27.2396C434.627 29.0658 426.105 29.9789 417.887 31.805C416.061 32.1094 412.104 32.4138 412.104 32.4138C412.104 32.4138 423.366 22.3699 419.105 20.2393C418.496 19.935 386.234 31.805 383.19 33.0225C360.059 41.8489 336.927 47.3274 315.013 57.98" stroke="#DCDBE1" stroke-width="8.46304" stroke-miterlimit="10" stroke-linecap="round" stroke-linejoin="round"/>
            <path d="M605.373 777.487C605.982 800.01 594.112 822.228 594.112 822.228C594.112 822.228 589.242 807.619 586.807 811.576C584.068 816.141 573.415 855.708 566.415 853.577C566.11 853.577 566.415 842.925 565.806 843.534C563.371 844.751 549.066 863.926 544.196 867.578C526.848 880.665 506.151 891.622 486.064 900.449C411.495 933.015 300.708 946.103 226.444 908.971" stroke="#DCDBE1" stroke-width="8.46304" stroke-miterlimit="10" stroke-linecap="round" stroke-linejoin="round"/>
            <path d="M530.805 877.318C537.805 898.927 521.065 944.886 504.021 961.626" stroke="#DCDBE1" stroke-width="8.46304" stroke-miterlimit="10" stroke-linecap="round" stroke-linejoin="round"/>
            <path d="M385.625 929.364C385.016 944.582 378.929 977.148 366.45 989.323" stroke="#DCDBE1" stroke-width="8.46304" stroke-miterlimit="10" stroke-linecap="round" stroke-linejoin="round"/>
            <path d="M506.76 961.017C546.022 959.8 591.068 996.628 594.111 999.976" stroke="#DCDBE1" stroke-width="8.46304" stroke-miterlimit="10" stroke-linecap="round" stroke-linejoin="round"/>
            <path d="M468.106 1008.8C451.671 1008.8 431.888 1007.58 415.452 1006.98C405.713 1006.67 362.189 1005.15 364.624 992.062" stroke="#DCDBE1" stroke-width="8.46304" stroke-miterlimit="10" stroke-linecap="round" stroke-linejoin="round"/>
            <path d="M262.055 923.58C253.837 942.146 241.054 958.277 221.27 964.973" stroke="#DCDBE1" stroke-width="8.46304" stroke-miterlimit="10" stroke-linecap="round" stroke-linejoin="round"/>
            <path d="M87.9602 809.141C110.787 855.1 95.2649 917.494 80.3512 963.148C76.0902 976.54 56.3068 1009.41 79.4382 1015.5" stroke="#DCDBE1" stroke-width="8.46304" stroke-miterlimit="10" stroke-linecap="round" stroke-linejoin="round"/>
            <path d="M223.705 963.452C279.099 973.191 300.708 992.67 313.796 1009.11" stroke="#DCDBE1" stroke-width="8.46304" stroke-miterlimit="10" stroke-linecap="round" stroke-linejoin="round"/>
            <path d="M313.187 1010.02C307.404 1014.89 83.6989 1021.89 78.5247 1015.19" stroke="#DCDBE1" stroke-width="8.46304" stroke-miterlimit="10" stroke-linecap="round" stroke-linejoin="round"/>
            <path d="M381.059 724.225C388.059 753.139 342.101 779.923 317.448 783.88C246.227 795.141 201.486 760.748 212.139 681.006C214.574 663.353 217.313 634.439 226.748 618.916" stroke="#DCDBE1" stroke-width="8.46304" stroke-miterlimit="10" stroke-linecap="round" stroke-linejoin="round"/>
            <path d="M382.581 719.355C415.756 758.313 403.886 781.445 364.928 805.793" stroke="#DCDBE1" stroke-width="8.46304" stroke-miterlimit="10" stroke-linecap="round" stroke-linejoin="round"/>
            <path d="M372.842 800.923C356.406 813.707 189.312 905.928 85.5254 776.575C45.0455 726.051 46.2629 665.787 60.5678 587.567" stroke="#DCDBE1" stroke-width="8.46304" stroke-miterlimit="10" stroke-linecap="round" stroke-linejoin="round"/>
            <path d="M351.841 43.3706C191.139 96.6337 132.701 267.075 132.701 380.602" stroke="#DCDBE1" stroke-width="8.46304" stroke-miterlimit="10" stroke-linecap="round" stroke-linejoin="round"/>
            <path d="M607.503 776.879C607.503 836.534 612.373 877.622 575.545 928.755C566.414 941.538 546.935 964.061 528.978 964.061" stroke="#DCDBE1" stroke-width="8.46304" stroke-miterlimit="10" stroke-linecap="round" stroke-linejoin="round"/>
            <path d="M584.676 908.363C562.153 912.015 551.196 899.841 532.63 890.71" stroke="#DCDBE1" stroke-width="8.46304" stroke-miterlimit="10" stroke-linecap="round" stroke-linejoin="round"/>
            <path d="M560.936 906.232C560.936 922.667 529.587 956.147 511.326 956.147" stroke="#DCDBE1" stroke-width="8.46304" stroke-miterlimit="10" stroke-linecap="round" stroke-linejoin="round"/>
            <path d="M355.493 770.183C361.58 785.097 356.406 795.445 356.406 808.837" stroke="#DCDBE1" stroke-width="8.46304" stroke-miterlimit="10" stroke-linecap="round" stroke-linejoin="round"/>
            <path d="M398.712 745.53C398.712 768.965 378.016 783.27 360.058 792.097" stroke="#DCDBE1" stroke-width="8.46304" stroke-miterlimit="10" stroke-linecap="round" stroke-linejoin="round"/>
            <path d="M502.499 962.235C486.063 973.192 472.367 985.975 463.845 1003.63" stroke="#DCDBE1" stroke-width="8.46304" stroke-miterlimit="10" stroke-linecap="round" stroke-linejoin="round"/>
            <path d="M221.575 964.061C196.922 974.104 175.312 992.366 163.442 1016.11" stroke="#DCDBE1" stroke-width="8.46304" stroke-miterlimit="10" stroke-linecap="round" stroke-linejoin="round"/>
            <path d="M598.068 1010.02C582.546 1013.67 454.41 1006.98 447.105 1008.19L598.068 1010.02Z" fill="#DCDBE1"/>
            <path d="M598.068 1010.02C582.546 1013.67 454.41 1006.98 447.105 1008.19" stroke="#DCDBE1" stroke-width="8.46304" stroke-miterlimit="10" stroke-linejoin="round"/>
            <path d="M592.894 998.453L594.72 999.366L597.764 1003.63L598.981 1006.98L598.068 1010.02" fill="#DCDBE1"/>
            <path d="M592.894 998.453L594.72 999.366L597.764 1003.63L598.981 1006.98L598.068 1010.02" stroke="#DCDBE1" stroke-width="8.46304" stroke-miterlimit="10" stroke-linejoin="round"/>
            <path d="M596.85 1009.72C581.632 997.236 513.456 971.67 487.889 976.235" stroke="#DCDBE1" stroke-width="8.46304" stroke-miterlimit="10" stroke-linecap="round" stroke-linejoin="round"/>
            <path d="M307.709 1009.41C284.273 997.54 255.359 989.018 227.053 985.67C214.574 984.149 202.4 983.54 190.834 984.149" stroke="#DCDBE1" stroke-width="8.46304" stroke-miterlimit="10" stroke-linecap="round" stroke-linejoin="round"/>
            <path d="M556.066 453.953C430.67 489.868 303.143 464.301 289.142 457.301" stroke="#DCDBE1" stroke-width="8.46304" stroke-miterlimit="10" stroke-linecap="round" stroke-linejoin="round"/>
            <path d="M413.706 585.149C435.292 581.324 453.537 577.877 471.012 575.21C485.207 573.218 490.275 582.74 489.259 592.893C487.787 606.869 478.898 618.023 464.852 625.266C464.019 625.749 463.423 625.871 461.696 626.538C474.805 632.85 473.535 650.824 485.373 664.544C474.22 666.22 464.199 667.352 453.642 668.905C446.548 660.111 442.137 650.765 439.339 641.708C437.699 636.763 435.411 633.195 427.073 636.466C423.084 648.786 420.648 661.096 423.885 673.791C413.986 675.52 404.683 677.125 394.846 679.151C389.942 646.29 411.087 617.696 413.706 585.149ZM440.168 598.965C438.652 605.181 436.776 611.161 434.19 618.22C440.389 616.632 446.115 615.764 451.954 613.939C457.197 612.238 460.756 608.397 462.281 603.733C463.745 598.77 461.816 595.438 456.923 595.824C451.733 596.272 446.13 597.737 440.168 598.965Z" fill="#FDFDFF"/>
            <path d="M570.195 581.505C560.778 584.066 552.195 586.145 543.672 588.522C543.268 580.525 539.191 577.325 532.273 578.44C527.74 579.063 523.874 581.413 521.7 587.454C521.429 592.171 523.822 593.232 526.988 593.512C533.02 594.134 539.052 594.756 545.085 595.378C548.609 595.895 551.836 596.473 555.185 597.648C576.054 603.915 571.321 632.236 555.593 647.905C550.43 653.009 543.766 656.867 537.69 659.051C527.564 662.691 517.244 663.884 506.67 662.333C492.93 660.502 482.96 649.815 485.616 634.041C493.962 632.322 502.011 630.664 510.893 628.524C511.261 630.312 511.332 632.162 511.639 633.653C513.779 642.534 523.047 645.287 531.972 640.341C535.838 637.991 538.863 634.571 539.494 630.09C539.888 625.97 538.082 623.234 534.794 622.358C531.804 621.42 528.937 621.078 526.069 620.736C519.976 619.816 513.943 619.194 508.323 617.555C497.976 614.093 495.065 605.992 497.51 595.233C500.306 583.16 507.109 572.436 518.059 566.762C528.414 561.211 539.444 558.939 551.57 560.481C563.748 560.769 570.351 567.178 570.195 581.505Z" fill="#FDFDFF"/>
            <path opacity="0.23" d="M613.286 647.83C617.547 656.961 599.286 626.221 593.198 622.264C580.111 614.046 560.327 613.742 545.718 613.742C507.977 613.742 476.933 649.352 436.453 649.352C426.104 649.352 395.973 643.569 405.104 625.612C409.973 615.568 433.713 618.003 442.844 618.003C481.498 618.003 516.499 613.437 554.24 607.046C563.371 605.524 584.981 605.524 592.59 591.828C594.416 588.176 601.112 617.394 602.633 619.829C611.764 633.221 605.981 632.003 613.286 647.83Z" fill="#FDFDFF"/>
            <path d="M556.067 454.257C554.545 446.039 564.893 460.649 566.719 464.91C569.459 470.997 563.371 476.475 563.676 479.519C563.98 483.171 569.763 491.693 571.285 495.65C582.546 526.086 609.634 565.044 592.894 597.915" stroke="#DCDBE1" stroke-width="8.46304" stroke-miterlimit="10" stroke-linecap="round" stroke-linejoin="round"/>
            <path d="M634.287 762.27C580.719 793.923 463.236 800.923 385.929 791.793" stroke="#DCDBE1" stroke-width="8.46304" stroke-miterlimit="10" stroke-linecap="round" stroke-linejoin="round"/>
            <path d="M636.417 760.748C642.2 724.224 628.504 677.657 615.112 643.873C609.634 629.873 599.285 616.177 594.72 601.872" stroke="#DCDBE1" stroke-width="8.46304" stroke-miterlimit="10" stroke-linecap="round" stroke-linejoin="round"/>
            <path d="M133.31 376.95C132.701 380.298 133.614 385.167 133.919 389.733" stroke="#DCDBE1" stroke-width="8.46304" stroke-miterlimit="10" stroke-linecap="round" stroke-linejoin="round"/>
            <path d="M67.2642 586.045C49.9156 591.828 57.829 568.696 59.0464 559.87" stroke="#DCDBE1" stroke-width="8.46304" stroke-miterlimit="10" stroke-linecap="round" stroke-linejoin="round"/>
            <path d="M111.396 417.43C105.613 425.647 100.135 434.474 94.9608 442.996C77.9166 471.91 61.4811 540.087 56.9157 576.001" stroke="#DCDBE1" stroke-width="8.46304" stroke-miterlimit="10" stroke-linecap="round" stroke-linejoin="round"/>
            <path d="M226.14 619.829C248.054 622.873 246.836 611.916 245.923 593.959" stroke="#DCDBE1" stroke-width="8.46304" stroke-miterlimit="10" stroke-linecap="round" stroke-linejoin="round"/>
            <path d="M294.316 509.042C279.403 522.738 262.359 542.217 255.663 562C252.315 572.044 250.184 586.045 245.619 595.48" stroke="#DCDBE1" stroke-width="8.46304" stroke-miterlimit="10" stroke-linecap="round" stroke-linejoin="round"/>
            <path d="M266.924 541C268.446 529.434 269.968 514.825 274.838 504.781" stroke="#DCDBE1" stroke-width="8.46304" stroke-miterlimit="10" stroke-linecap="round" stroke-linejoin="round"/>
            <path d="M161.615 386.994C242.575 368.428 293.708 457.301 289.447 460.649" stroke="#DCDBE1" stroke-width="8.46304" stroke-miterlimit="10" stroke-linecap="round" stroke-linejoin="round"/>
            <path d="M108.656 421.69C123.874 402.211 136.353 394.907 161.006 387.298" stroke="#DCDBE1" stroke-width="8.46304" stroke-miterlimit="10" stroke-linecap="round" stroke-linejoin="round"/>
            <path d="M132.701 382.428C132.093 386.689 132.701 390.646 132.093 394.907" stroke="#DCDBE1" stroke-width="8.46304" stroke-miterlimit="10" stroke-linecap="round" stroke-linejoin="round"/>
            <path d="M398.407 201.943L226.444 198.899" stroke="#DCDBE1" stroke-width="24.5491" stroke-miterlimit="10" stroke-linecap="round" stroke-linejoin="round"/>
            <path d="M479.367 205.29L534.761 206.203L628.199 207.725" stroke="#DCDBE1" stroke-width="24.5491" stroke-miterlimit="10" stroke-linecap="round" stroke-linejoin="round"/>
            <path d="M356.102 213.813C343.318 252.162 276.664 239.988 275.446 208.943" stroke="#DCDBE1" stroke-width="9.85184" stroke-miterlimit="10" stroke-linecap="round" stroke-linejoin="round"/>
            <path d="M590.763 219.595C596.242 246.988 520.76 249.118 520.76 214.726" stroke="#DCDBE1" stroke-width="9.85184" stroke-miterlimit="10" stroke-linecap="round" stroke-linejoin="round"/>
            <path d="M482.715 240.901C483.02 232.683 466.889 225.074 446.496 224.161C426.104 223.248 409.06 229.03 408.756 237.248C408.451 245.466 424.582 253.075 444.975 253.988C465.367 255.205 482.411 249.118 482.715 240.901Z" fill="#FDFDFF"/>
            <path d="M308.317 207.725C307.709 207.116 306.796 206.812 306.187 206.203" stroke="#DCDBE1" stroke-width="9.85184" stroke-miterlimit="10" stroke-linecap="round" stroke-linejoin="round"/>
            <path d="M445.583 256.727C445.583 287.468 428.235 251.249 403.886 263.423" stroke="#FDFDFF" stroke-width="9.85184" stroke-miterlimit="10" stroke-linecap="round" stroke-linejoin="round"/>
            <path d="M242.88 594.872C213.053 567.175 161.007 544.348 111.701 552.87" stroke="#FDFDFF" stroke-width="8.46304" stroke-miterlimit="10" stroke-linecap="round" stroke-linejoin="round"/>
            <path d="M345.145 494.433C380.755 506.912 518.935 505.999 562.458 477.389" stroke="#FDFDFF" stroke-width="8.46304" stroke-miterlimit="10" stroke-linecap="round" stroke-linejoin="round"/>
            <path d="M536.587 460.344C538.414 465.518 540.24 469.475 540.24 475.258" stroke="#FDFDFF" stroke-width="8.46304" stroke-miterlimit="10" stroke-linecap="round" stroke-linejoin="round"/>
            <path d="M504.629 466.736C507.064 471.606 507.369 477.693 507.369 483.172" stroke="#FDFDFF" stroke-width="8.46304" stroke-miterlimit="10" stroke-linecap="round" stroke-linejoin="round"/>
            <path d="M466.28 471.605L468.41 484.388" stroke="#FDFDFF" stroke-width="8.46304" stroke-miterlimit="10" stroke-linecap="round" stroke-linejoin="round"/>
            <path d="M439.496 475.258V477.389V478.911V481.041V482.259V483.78V485.302" stroke="#FDFDFF" stroke-width="8.46304" stroke-miterlimit="10" stroke-linecap="round" stroke-linejoin="round"/>
            <path d="M219.14 579.653C217.618 584.523 215.487 587.871 212.748 592.436" stroke="#FDFDFF" stroke-width="8.46304" stroke-miterlimit="10" stroke-linecap="round" stroke-linejoin="round"/>
            <path d="M192.356 566.87L187.182 578.131" stroke="#FDFDFF" stroke-width="8.46304" stroke-miterlimit="10" stroke-linecap="round" stroke-linejoin="round"/>
            <path d="M165.876 557.74L163.746 569.61" stroke="#FDFDFF" stroke-width="8.46304" stroke-miterlimit="10" stroke-linecap="round" stroke-linejoin="round"/>
            <path d="M454.41 475.867V477.389V478.91V480.128V481.65V483.171" stroke="#FDFDFF" stroke-width="8.46304" stroke-miterlimit="10" stroke-linecap="round" stroke-linejoin="round"/>
            <path d="M348.493 471.605V473.127V474.649V477.388V478.91" stroke="#FDFDFF" stroke-width="8.46304" stroke-miterlimit="10" stroke-linecap="round" stroke-linejoin="round"/>
            <path d="M337.84 471.605V473.736V475.866V477.388" stroke="#FDFDFF" stroke-width="8.46304" stroke-miterlimit="10" stroke-linecap="round" stroke-linejoin="round"/>
            <path d="M556.066 215.639C556.066 208.943 550.588 203.464 543.892 203.464C537.196 203.464 531.717 208.943 531.717 215.639C531.717 222.335 537.196 227.813 543.892 227.813C550.588 227.813 556.066 222.335 556.066 215.639Z" fill="#DCDBE1"/>
            <path d="M310.143 208.638C310.143 201.942 304.665 196.464 297.969 196.464C291.273 196.464 285.794 201.942 285.794 208.638C285.794 215.334 291.273 220.813 297.969 220.813C304.665 220.813 310.143 215.334 310.143 208.638Z" fill="#DCDBE1"/>
            <path d="M390.494 729.094L394.147 560.174C394.147 548.304 382.885 538.869 369.189 538.869C369.189 538.869 322.318 540.087 266.924 541" stroke="#DCDBE1" stroke-width="7.65558" stroke-miterlimit="10" stroke-linecap="round" stroke-linejoin="round"/>
            <path d="M58.4371 540.086C39.2624 539.782 28.3055 539.478 28.3055 539.478C14.6093 539.478 3.34795 548.913 3.34795 560.783L-3.21727e-05 782.053C-3.21727e-05 793.923 11.2613 803.358 24.9575 803.358L111.7 803.663" stroke="#DCDBE1" stroke-width="7.65558" stroke-miterlimit="10" stroke-linecap="round" stroke-linejoin="round"/>
            <path d="M326.883 222.03C327.796 222.03 328.709 221.726 329.623 221.726L326.883 222.03Z" fill="#DCDBE1"/>
        </g>
    </svg>

    


</svg>