<svg width="298" height="342" viewBox="0 0 298 342" fill="none" xmlns="http://www.w3.org/2000/svg">
<g clip-path="url(#clip0_202_487)">
<path d="M279.5 190C261.2 154.2 233.3 117.3 231.6 109.8C224.6 77.2999 218.4 43.1999 172.6 20.4999C159.8 14.0999 132.5 7.3999 132.2 7.4999C130.7 8.1999 134.7 11.7999 134.7 11.7999C134.7 11.7999 126.9 11.0999 121.3 10.5999C116.2 10.1999 108.3 8.3999 106.3 1.8999C101.8 5.6999 106.1 10.5999 107.4 13.2999C102 9.7999 95.5 9.4999 88.9 11.1999C83.3 12.6999 80.7 15.6999 80.8 15.7999C81.6 16.5999 92 15.7999 92 18.0999C88.5 17.7999 84.4 18.3999 79.5 20.2999C74.2 22.3999 71.7 26.9999 72 27.1999C72.9 27.8999 76 26.3999 78.8 26.3999C82.4 26.3999 85.7 27.7999 85.6 28.0999C85.5 28.4999 84.8 28.4999 84.4 28.5999C74.1 31.0999 67.9 36.4999 66.6 42.9999C72.7 37.0999 77.3 34.6999 85.3 33.7999C80 37.2999 76.3 42.5999 73.4 47.9999C63 67.6999 61.8 84.9999 70.4 111.2C71.3 114 71.4 119.9 70.6 124.2C73.1 124 73.6 119.6 74.7 121.7C75.8 123.8 75.2 128.5 74.1 132.9C77.3 133.5 77.8 127.3 78.8 129.5C79.8 131.7 78.5 136.5 77.8 138.1C80.1 138.4 80.9 135.1 81.1 136.9C81.2 137.7 81.2 138.5 81.2 139.2C64.7 153 61.1 168 43.6 194.3C26 220.8 29.3 234.7 38.8 241.7C43.2 244.9 48.1 247 53.3 248.2C31 248.2 21.7 268 27.6 282.9C29.1 286.6 32.3 290.7 36 292.7C17.9 301.6 0.400002 319.1 2.1 319.1C34.2 319.1 59.4 327.7 75.4 319.7C79.1 317.9 81.4 313.8 82.2 309.3C85.6 309.4 97.6 311.4 110.1 314C120.8 316.3 127.4 315.8 135.7 315C124.7 326.1 113.4 339.3 113.7 339.6C114.8 340.7 143.8 341.1 162.5 332C170.2 328.3 174.6 326.3 184.8 327.3C211.3 329.8 250.1 333.3 262.4 322C279.4 306.3 271.1 289 257.5 283.2C250.4 280.2 243.2 278.5 236.4 277.6C240.4 277.1 242.2 273.4 245.3 272.7C250.9 274.1 257.2 278.1 263 278.3C308.9 280.5 299.9 229.9 279.5 190Z" fill="#CAA77A"/>
<path d="M73.1 173.8C69.6 194.4 74 198.1 73.8 201.8C73.4 208.3 70.2 213 71.1 223.4C71.4 227.1 61.2 224.3 59.9 227.8C58.1 232.7 40.7 253.3 43.2 258.4C43.1 258.4 39.6 262 37 262.9C31.1 260.3 26.8 257.3 22.5 254.1C20 252.3 18.1 248.3 18.1 243C18 228 23.3 201.6 36.3 182C53.9 155.5 65.8 142.7 79.5 140.4C79.5 141.6 81.1 142 80.8 143.5C78.8 153.6 74.8 163.8 73.1 173.8Z" fill="#CAA77A"/>
<path d="M33.1 294.6C28.2 299.5 14.6 305.8 8.49998 311.2C6.79998 312.7 2.49998 316.4 2.69998 319C2.79998 319.8 3.39998 319.5 3.79998 319.4C8.59998 318.9 15.8 318.4 20.6 319.2C25.3 320 45 325.6 48.1 322.6C49.5 321.3 49 319.1 48.7 317.5C47.4 308.9 41.9 303.3 36.1 297.2C35.2 296.3 33.9 293.8 33.1 294.6Z" fill="#D2D2D2"/>
<path opacity="0.23" d="M93.4 286.7C92.3 283.4 91.8 270.9 88.7 269.8C78.8 266.4 60.8 284.7 46.6 281.6C40.3 280.2 32.1 276.4 29.9 269.8C29.4 268.4 28 265 28.1 263.4C25.3 270.4 25.2 279.9 29.2 286.8C32.2 292 36.3 292.4 36 292.4C27.2 296.8 6.09998 311.6 2.69998 318.8C8.99998 319.1 18.9 319.8 21.8 320C35.3 321.2 64.7 327.2 76.2 319.5C80.1 316.9 81.7 313.2 82.2 309.2C87.8 309.1 98.6 311.3 110.1 313.9C117.3 315.5 126.6 316.5 135.7 314.9C145.5 305 157.7 293.8 175.3 286.5C150.5 293.3 144.1 302.9 138.3 304.6C127.1 308.1 99.8 305.9 93.4 286.7Z" fill="#3F2719"/>
<path d="M166.2 330.4C165 330.9 163.8 331.5 162.5 332.1C143.8 341.1 114.8 340.8 113.7 339.7C113.3 339.3 134.5 315.1 146.1 305.2L146.5 305.9C149.6 311.4 155.6 324.4 166.2 330.4Z" fill="#B6B1AE"/>
<path d="M118.8 247.6C108.1 249.3 104.3 247.6 98 246.8C99.7 241.4 99.7 233.6 97.9 228.8C103.9 226.7 112.5 231 122.1 231C129.5 231 134.7 228.2 135.3 231.4C135.5 232.4 130.2 245.8 118.8 247.6Z" fill="#B6B1AE"/>
<path d="M275.4 182.2C263.6 160.6 249.3 139.3 240.3 125.2C239.1 129 239 129 240.2 125.2C241.7 120.5 240.7 117.7 239.3 115.8C236.1 111.1 232.2 106.5 231.5 109.8C223.1 153.7 175.4 165 139.8 165C108.7 165 92.2 157.5 80.1 146.4C80.3 145.5 80.5 144.5 80.7 143.6C80.9 142.3 81.1 141 81.1 139.7C66.5 140.8 49.3 155.5 39.7 172C38.5 171.4 36.2 173.8 35.2 175.2C34.4 176.3 32.9 178.9 34.5 180.6C38.9 185.3 62.8 199.9 70.8 210C70.6 209.1 70.6 208.2 70.6 207.1C70.6 208.3 70.6 209.1 70.8 210C70.9 210.2 71 210.3 71.2 210.5C71.2 210.5 71.2 210.4 71.3 210.4C71.3 210.4 71.4 210.3 71.4 210.2C71.5 210.1 71.5 210 71.5 210C71.6 209.8 71.7 209.6 71.8 209.3C71.9 209.1 72 209 72 208.8C72.1 208.6 72.2 208.5 72.2 208.3C72.3 208.1 72.4 207.9 72.4 207.8C72.5 207.6 72.5 207.5 72.6 207.3C72.7 207.2 72.7 207.1 72.7 206.9C72.8 206.7 73.2 205.2 73.2 205.1C73.3 204.8 73.4 204.8 73.3 205.1C73.3 205.2 72.8 206.7 72.8 206.9C72.8 207 72.7 207.1 72.7 207.3C72.6 207.5 72.6 207.6 72.5 207.8C72.4 208 72.4 208.1 72.3 208.3C72.2 208.5 72.2 208.6 72.1 208.8C72 209 72 209.1 71.9 209.3C71.8 209.5 71.7 209.8 71.5 210C71.5 210.1 71.4 210.2 71.4 210.2C71.4 210.3 71.3 210.3 71.3 210.4C71.3 210.4 71.3 210.5 71.2 210.5C71.1 210.6 71.1 210.8 71 210.9C71.1 211.3 71.3 211.7 71.5 212.1C71.3 211.7 71.1 211.3 71 210.9C70.8 211.2 70 218.5 71.6 224.1C70.5 232.9 62.2 238.4 59 249.6C71.1 250.1 82.1 256.7 88 263.7C97.4 274.3 103.6 287 125.2 288.9C146.5 290.8 157.1 289.7 170.1 285.1C182.9 280.6 199.5 273 234.8 277.7C255.8 280.5 250 258.8 246.4 248.5C242.1 236.2 236.8 229.5 233.4 222.2C233.1 222.8 232.7 223.1 232.3 223C232.7 223 233 222.7 233.3 222.2C244.1 199.8 274.8 192.5 279.8 191.2C284.2 189.8 279.1 182.5 275.4 182.2Z" fill="#FFDB1F"/>
<path d="M72.3 71.3C74.6 61.9 78.8 58.2 87.2 56.6C97.1 54.8 100.2 39.8 109.7 39.4C111.5 39.3 115.6 38.4 116.5 36.8C119.2 31.7 113 29.5 116.1 30.1C119.2 30.7 139 37.6 145.7 38.3C165.1 40.4 183.2 44.2 194.7 65C197.3 69.7 203.5 85.2 200.8 97.2C196.9 114.7 194.8 122 175.9 135C153.4 150.5 93.5 145.9 79.7 120.5C80.1 100.7 68 88.8 72.3 71.3Z" fill="#FFDBAF"/>
<path d="M126.3 95.4999C118.5 91.5999 109.5 107.1 109.2 118.1C108.4 140.6 139 146 156.1 134.8C174 123.1 152.4 88.6999 138.8 94.1999" fill="#9D7B51"/>
<path d="M72.2 66.9998C64.8 83.0998 74.3 115.5 80.7 121.8C88.2 119.4 94.3 116.3 99.1 112.6C130 89.0998 110.5 44.1998 108.4 42.0998C107 40.6998 81.6 56.3998 78.8 56.8998C74.8 57.6998 73.7 63.6998 72.2 66.9998Z" fill="#9D7B51"/>
<path d="M148.7 41.1998C134.6 109.1 190.1 123.4 195.6 115.4C199.1 110.3 206 86.4998 196.9 70.3998C196 68.7998 183.5 50.8998 181.8 51.1998C168.2 53.3998 151.5 27.5998 148.7 41.1998Z" fill="#9D7B51"/>
<path d="M93.6 143L93.5 149.5" stroke="#9D7B51" stroke-width="3.87" stroke-miterlimit="10" stroke-linecap="round" stroke-linejoin="round"/>
<path d="M100 146.4L99.9 152.9" stroke="#9D7B51" stroke-width="3.87" stroke-miterlimit="10" stroke-linecap="round" stroke-linejoin="round"/>
<path d="M85.5 33.9998C77.5 34.8998 72.9 37.1998 66.8 43.1998C68.1 36.5998 74.3 31.2998 84.6 28.7998C85 28.6998 85.6 28.6998 85.7 28.2998C85.8 27.9998 82.5 26.5998 78.9 26.5998C76.1 26.5998 73 28.0998 72.1 27.3998C71.8 27.1998 74.4 22.5998 79.6 20.4998C84.5 18.5998 88.6 17.9998 92.1 18.2998C92.1 15.9998 81.7 16.7998 80.9 15.9998C80.8 15.8998 83.4 12.7998 89 11.3998C95.6 9.69981 102.1 9.99981 107.5 13.4998" stroke="#2D1F04" stroke-width="2.62" stroke-miterlimit="10" stroke-linecap="round" stroke-linejoin="round"/>
<path d="M143.8 38C182.6 38.4 201.6 77.4 201.6 77.4" stroke="#2D1F04" stroke-width="7.6" stroke-miterlimit="10" stroke-linecap="round" stroke-linejoin="round"/>
<path d="M110.6 41.2998C70.3 45.5998 62.7 91.2998 62.7 91.2998" stroke="#2D1F04" stroke-width="7.6" stroke-miterlimit="10" stroke-linecap="round" stroke-linejoin="round"/>
<path d="M120.8 96.2C120.7 93.2 126.4 90.6 133.7 90.2C141 89.8 147 91.9 147.2 94.9C147.3 97.9 141.6 100.5 134.3 100.9C126.9 101.2 120.9 99.1 120.8 96.2Z" fill="#251707"/>
<path d="M165.1 79.3998C164.8 79.3998 164.4 79.2998 164.1 79.2998L165.1 79.3998Z" fill="#2D1F04"/>
<path d="M53.2 248.4C32 248.3 21.5 268.2 27.5 283.1C29 286.8 30.3 290.3 34.1 292.2" stroke="#2D1F04" stroke-width="2.62" stroke-miterlimit="10" stroke-linecap="round" stroke-linejoin="round"/>
<path d="M54.2 287.8C32.2 287.5 -0.200009 319.2 1.99999 319.2C34.1 319.2 59.3 327.8 75.3 319.8C81.9 316.5 84.2 306.1 80.6 299" stroke="#2D1F04" stroke-width="2.62" stroke-miterlimit="10" stroke-linecap="round" stroke-linejoin="round"/>
<path d="M175.6 286.5C165.6 291.5 157.6 296.4 148.6 303.2C137.8 311.3 113.3 339.3 113.7 339.7C114.8 340.8 143.8 341.2 162.5 332.1C170.2 328.4 174.6 326.4 184.9 327.4C211.4 329.9 250.2 333.5 262.5 322.1C279.5 306.4 271.2 289.1 257.6 283.3C230 271.5 200.5 279.6 200.2 280.1" stroke="#2D1F04" stroke-width="2.62" stroke-miterlimit="10" stroke-linecap="round" stroke-linejoin="round"/>
<path d="M58.1 249.3C72.5 251.3 83.6 257.2 89.4 265.3" stroke="#2D1F04" stroke-width="2.62" stroke-miterlimit="10" stroke-linecap="round" stroke-linejoin="round"/>
<path d="M33.8 295C40.2 301.1 48.6 310.6 47.6 321.8" stroke="#2D1F04" stroke-width="2.62" stroke-miterlimit="10" stroke-linecap="round" stroke-linejoin="round"/>
<path d="M4.5 318C12.7 311.2 29.4 302.3 40.5 303.3" stroke="#2D1F04" stroke-width="2.62" stroke-miterlimit="10" stroke-linecap="round" stroke-linejoin="round"/>
<path d="M6.69998 316.8C19.9 318 33.2 311.6 46.4 312.8" stroke="#2D1F04" stroke-width="2.62" stroke-miterlimit="10" stroke-linecap="round" stroke-linejoin="round"/>
<path d="M146.5 305.8C149.6 311.4 155.3 324.4 166.1 330.3" stroke="#2D1F04" stroke-width="2.62" stroke-miterlimit="10" stroke-linecap="round" stroke-linejoin="round"/>
<path d="M113.7 339.7C125.1 328.8 138.1 320.8 150.5 315.9" stroke="#2D1F04" stroke-width="2.62" stroke-miterlimit="10" stroke-linecap="round" stroke-linejoin="round"/>
<path opacity="0.23" d="M172.8 288.7C173.9 288.2 174.8 287.8 175.2 287.6C175.1 287.5 175.1 287.5 175 287.4C174.5 287.7 173.8 288.1 172.8 288.7Z" fill="#3F2719"/>
<path opacity="0.23" d="M175.2 287.6C175.3 287.5 175.4 287.5 175.4 287.4C175.4 287.3 175.5 287.2 175.5 287.1C175.4 287.2 175.2 287.3 175 287.4C175.1 287.5 175.1 287.5 175.2 287.6Z" fill="#3F2719"/>
<path d="M228.4 211.6C223.4 203.2 218.8 196.8 213.3 186.8" stroke="#2D1F04" stroke-width="2.62" stroke-miterlimit="10" stroke-linecap="round" stroke-linejoin="round"/>
<path d="M240.2 125.3C249.4 139.7 263.5 160.1 275.4 182.2" stroke="#2D1F04" stroke-width="2.62" stroke-miterlimit="10" stroke-linecap="round" stroke-linejoin="round"/>
<path d="M107.5 13.4C106.1 10.7 101.8 5.8 106.4 2C108.4 8.4 116.2 10.2 121.4 10.7C126.9 11.2 134.8 11.9 134.8 11.9C134.8 11.9 130.8 8.3 132.3 7.6C132.6 7.5 159.9 14.2 172.7 20.6C218.4 43.3 224.6 77.5 231.7 109.9" stroke="#2D1F04" stroke-width="2.62" stroke-miterlimit="10" stroke-linecap="round" stroke-linejoin="round"/>
<path opacity="0.23" d="M204.3 214.2C199.9 214.8 198.6 226.3 174.8 222.1C160.7 219.6 151.7 213.3 143.2 211.3C136.8 209.8 134.2 212.8 124 212.9C116.2 213 105.8 212 98.1 209.8C86.5 206.4 78.8 201.7 77.3 205C74.2 212.2 96.5 217 117.1 217.6C129.2 218 138.7 214.2 141.9 215.4C155.5 220.7 171.5 230.4 188.3 228.8C197.7 227.9 212.9 213 204.3 214.2Z" fill="#3F2719"/>
<path d="M113.7 339.7C125.1 337.8 148 332.5 158.5 324.4" stroke="#2D1F04" stroke-width="2.62" stroke-miterlimit="10" stroke-linecap="round" stroke-linejoin="round"/>
<path d="M134.9 117.4C127.6 117.4 117.7 123.4 121.7 127.2C125.6 130.9 128.9 121.7 135.9 121.7C142.9 121.7 143.8 129.7 148.6 126.3C153.4 122.9 145.5 117.4 134.9 117.4Z" fill="#2D1F04"/>
<path d="M134.2 100.9C133.5 109 133.7 113.9 135.3 119" stroke="#2D1F04" stroke-width="2.62" stroke-miterlimit="10" stroke-linecap="round" stroke-linejoin="round"/>
<path d="M172.4 72.7C179.1 72.7 184.5 78.1 184.5 84.7V85.5C184.5 92.1 179.1 97.5 172.4 97.5C165.7 97.5 160.3 92.1 160.3 85.5V84.7C160.3 78.1 165.7 72.7 172.4 72.7Z" fill="white"/>
<path d="M165.1 88.5C165.1 86.4 166.8 84.7 168.8 84.7C170.8 84.7 172.5 86.4 172.5 88.5C172.5 90.6 170.8 92.3 168.8 92.3C166.8 92.3 165.1 90.6 165.1 88.5Z" fill="#2D1F04"/>
<path d="M172.4 72.7C179.1 72.7 184.5 78.1 184.5 84.7V85.5C184.5 92.1 179.1 97.5 172.4 97.5C165.7 97.5 160.3 92.1 160.3 85.5V84.7C160.3 78.1 165.7 72.7 172.4 72.7Z" stroke="#2D1F04" stroke-width="2.6" stroke-miterlimit="10" stroke-linecap="round" stroke-linejoin="round"/>
<path d="M95.4 70.5999C88.7 70.5999 83.3 75.9999 83.3 82.5999V83.3999C83.3 89.9999 88.7 95.3999 95.4 95.3999C102.1 95.3999 107.5 89.9999 107.5 83.3999V82.5999C107.5 75.9999 102.1 70.5999 95.4 70.5999Z" fill="white"/>
<path d="M102.2 87C102.2 84.9 100.5 83.2 98.5 83.2C96.5 83.2 94.8 84.9 94.8 87C94.8 89.1 96.5 90.8 98.5 90.8C100.6 90.8 102.2 89.1 102.2 87Z" fill="#2D1F04"/>
<path d="M95.4 70.5999C88.7 70.5999 83.3 75.9999 83.3 82.5999V83.3999C83.3 89.9999 88.7 95.3999 95.4 95.3999C102.1 95.3999 107.5 89.9999 107.5 83.3999V82.5999C107.5 75.9999 102.1 70.5999 95.4 70.5999Z" stroke="#2D1F04" stroke-width="2.6" stroke-miterlimit="10" stroke-linecap="round" stroke-linejoin="round"/>
<path d="M80.2 146.4C80.4 145.5 80.6 144.5 80.8 143.6C81.2 141.4 81.3 139.2 81 137C80.8 135.1 80 138.5 77.7 138.2C78.3 136.6 79.6 131.8 78.7 129.6C77.7 127.4 77.3 133.6 74 133C75.1 128.6 75.7 124 74.6 121.8C73.5 119.7 73 124.1 70.5 124.3C71.3 120 71.2 114.1 70.3 111.3C61.8 85 63 67.7 73.7 48.2C76.6 42.8 80.3 37.5 85.6 34" stroke="#2D1F04" stroke-width="2.62" stroke-miterlimit="10" stroke-linecap="round" stroke-linejoin="round"/>
<path d="M190 169.3C176.9 173.4 160.5 176 139.8 176C107 176 76.2 152.4 76.4 150.9C76.9 147.3 79 145.1 80.2 146.3C92.3 157.4 108.8 164.9 139.9 164.9C175.5 164.9 223.3 153.6 231.6 109.7C232.3 106.3 236.2 111 239.4 115.7C240.7 117.7 241.8 120.5 240.3 125.2C239.6 127.4 236 140.7 221 153.2" stroke="#2D1F04" stroke-width="2.62" stroke-miterlimit="10" stroke-linecap="round" stroke-linejoin="round"/>
<path opacity="0.23" d="M67.8 191C69.3 195.2 68.6 201.2 66.3 204.5C67.5 205.9 69.3 207.9 71.2 210.2C71.7 207.5 68.9 192.1 67.8 191Z" fill="#3F2719"/>
<path d="M88 263.5C97.4 274.1 103.6 286.8 125.3 288.7C146.6 290.6 157.2 289.5 170.2 284.9C183.2 280.3 200.1 272.8 236.5 277.7" stroke="#2D1F04" stroke-width="2.62" stroke-miterlimit="10" stroke-linecap="round" stroke-linejoin="round"/>
<path d="M259 186.8C246.1 191.9 235 200.3 228.4 211.6C226.8 214.1 228.5 219 229.2 220.6C229.9 222.2 232.1 224.4 233.6 222C235.3 225.4 239.1 232.1 241.1 235.7M271.7 193.4C275.6 192.1 278.6 191.4 279.9 191C282.5 190.3 281.7 188.3 280.5 186.5C279.4 184.9 277.3 181.8 275.3 182.2" stroke="#2D1F04" stroke-width="2.62" stroke-miterlimit="10" stroke-linecap="round" stroke-linejoin="round"/>
<path d="M232.7 205.5C233 208.2 234.2 209.6 235.8 210.5" stroke="#2D1F04" stroke-width="2.62" stroke-miterlimit="10" stroke-linecap="round" stroke-linejoin="round"/>
<path d="M237.8 200C238.1 202 239.7 204 241.1 204.9" stroke="#2D1F04" stroke-width="2.62" stroke-miterlimit="10" stroke-linecap="round" stroke-linejoin="round"/>
<path d="M244.7 194.5C245.3 196.7 246.9 198.1 248.5 199.1" stroke="#2D1F04" stroke-width="2.62" stroke-miterlimit="10" stroke-linecap="round" stroke-linejoin="round"/>
<path d="M89.1 153.2C87.7 154.6 87 156.3 86.6 158.1" stroke="#2D1F04" stroke-width="2.62" stroke-miterlimit="10" stroke-linecap="round" stroke-linejoin="round"/>
<path d="M100 158.9C99.3 160.4 98.7 162.5 98.6 164.3" stroke="#2D1F04" stroke-width="2.62" stroke-miterlimit="10" stroke-linecap="round" stroke-linejoin="round"/>
<path d="M117.5 163.3C116.8 165.4 116.8 167.2 116.8 168.8" stroke="#2D1F04" stroke-width="2.62" stroke-miterlimit="10" stroke-linecap="round" stroke-linejoin="round"/>
<path d="M124.7 164.3C124.4 165.8 124.1 168.4 124.3 170.7" stroke="#2D1F04" stroke-width="2.62" stroke-miterlimit="10" stroke-linecap="round" stroke-linejoin="round"/>
<path d="M131.9 164.8C131.6 166.1 131.4 168.9 131.5 170.7" stroke="#2D1F04" stroke-width="2.62" stroke-miterlimit="10" stroke-linecap="round" stroke-linejoin="round"/>
<path d="M168.1 162.5C168.7 163.9 169.2 165.8 169.3 167.5" stroke="#2D1F04" stroke-width="2.62" stroke-miterlimit="10" stroke-linecap="round" stroke-linejoin="round"/>
<path d="M175.9 160.8C176.4 161.9 177 164 177.1 165.5" stroke="#2D1F04" stroke-width="2.62" stroke-miterlimit="10" stroke-linecap="round" stroke-linejoin="round"/>
<path d="M216 139.9C217.6 141.1 218.8 142.2 219.7 143.3" stroke="#2D1F04" stroke-width="2.62" stroke-miterlimit="10" stroke-linecap="round" stroke-linejoin="round"/>
<path d="M219.7 135.8C221 136.5 222.6 137.6 224 138.9" stroke="#2D1F04" stroke-width="2.62" stroke-miterlimit="10" stroke-linecap="round" stroke-linejoin="round"/>
<path d="M222.4 132C224 132.7 225.1 133.3 226.1 134.1" stroke="#2D1F04" stroke-width="2.62" stroke-miterlimit="10" stroke-linecap="round" stroke-linejoin="round"/>
<path d="M223 291.2L222.9 297.7" stroke="#9D7B51" stroke-width="3.87" stroke-miterlimit="10" stroke-linecap="round" stroke-linejoin="round"/>
<path d="M229.4 294.5L229.3 301" stroke="#9D7B51" stroke-width="3.87" stroke-miterlimit="10" stroke-linecap="round" stroke-linejoin="round"/>
<path d="M262 211.5V218" stroke="#9D7B51" stroke-width="3.87" stroke-miterlimit="10" stroke-linecap="round" stroke-linejoin="round"/>
<path d="M268.4 214.8V221.3" stroke="#9D7B51" stroke-width="3.87" stroke-miterlimit="10" stroke-linecap="round" stroke-linejoin="round"/>
<path opacity="0.23" d="M262.4 322.1C261.6 322.9 260.6 323.5 259.6 324.2C256 326.4 251 327.9 245.3 328.7C235.2 330.3 222.7 330.2 210.3 329.4C206.8 329.2 203.2 328.9 199.8 328.7C198.1 328.6 196.4 328.4 194.7 328.3C193 328.1 191.4 328 189.8 327.8C188.2 327.6 186.6 327.5 185 327.3C180.6 326.9 177.3 327 174.3 327.6C170.3 328.4 167 329.9 162.6 332C157.1 334.6 150.8 336.5 144.5 337.7C130.9 340.4 117.6 340.4 114.4 339.8C114.1 339.7 113.8 339.7 113.8 339.6C113.7 339.5 114.1 339 114.8 338.1C114.8 338.1 114.8 338.1 114.9 338C115 337.9 115.1 337.7 115.3 337.5C116 336.6 117 335.4 118.2 334.1C118.5 333.7 118.9 333.3 119.2 332.9C119.5 332.6 119.8 332.2 120.1 331.9C132.8 332.3 147.6 326.5 159.4 319.6C171.1 312.6 181.2 311.6 194 314.1C206.8 316.6 232.8 319.1 248.5 310.9C258.2 305.8 257.9 294.4 250.7 287.6C244.3 281.5 227.2 278.4 207.1 278.4C213.8 277.2 224.7 276.1 236.9 277.7C237.4 277.8 237.9 277.8 238.4 277.9C239.1 278 239.8 278.1 240.5 278.2C241.8 278.4 243.1 278.7 244.4 279C244.9 279.1 245.3 279.2 245.8 279.3C246.5 279.5 247.2 279.7 247.9 279.8C249.4 280.2 250.8 280.6 252.3 281.1C252.7 281.2 253 281.3 253.4 281.5C253.8 281.6 254.1 281.8 254.5 281.9C254.9 282 255.2 282.2 255.6 282.3C256.3 282.6 257 282.9 257.8 283.2C271.1 289 279.4 306.3 262.4 322.1Z" fill="#3F2719"/>
<path opacity="0.23" d="M231.6 109.7C231.6 109.7 231.6 109.8 231.6 109.7C228.9 123.7 222.3 134.3 213.4 142.4C219.7 93.6 201.4 57.7 180.1 41.3C165.9 30.4 151 25.8 137.6 24.9C136.1 24.8 130.7 24.1 131.4 22.3C129 22.3 128.4 24.7 126.1 24.9C123.8 25.1 121.3 20.6 116.4 22C118.6 22.8 116.8 25.5 114.2 26.7C112 27.7 108 27.1 108 24.9C106.3 26.6 107.8 28.4 106.6 28.7C105.1 29.2 100 24.9 97 28.3C100.8 28.5 99.7 31.3 98.5 31.8C89 36 81.4 41.6 73.7 48C76.6 42.6 80.3 37.3 85.6 33.9C77.6 34.8 73 37.1 66.9 43.1C68.2 36.5 74.4 31.2 84.7 28.7C85.1 28.6 85.7 28.6 85.8 28.2C85.9 27.9 82.6 26.5 79 26.5C76.2 26.5 73.1 28 72.2 27.3C71.9 27.1 74.5 22.5 79.7 20.4C84.6 18.5 88.7 17.9 92.2 18.2C92.2 15.9 81.8 16.7 81 15.9C80.9 15.8 83.5 12.7 89.1 11.3C95.7 9.6 102.2 9.9 107.6 13.4C106.2 10.7 101.9 5.8 106.5 2C108.5 8.4 116.3 10.2 121.5 10.7C127 11.2 134.9 11.9 134.9 11.9C134.9 11.9 130.9 8.3 132.4 7.6C132.7 7.5 160 14.2 172.8 20.6C218.3 43.2 224.6 77.3 231.6 109.7Z" fill="#3F2719"/>
<path opacity="0.23" d="M240.2 125.2C239.5 127.3 236.4 138.6 224.4 150C225.8 143.1 223.8 138.8 217.8 137.9C224.5 130.5 229.4 121.2 231.5 109.8C232.2 106.5 236.1 111.2 239.3 115.8C240.7 117.7 241.7 120.5 240.2 125.2Z" fill="#3F2719"/>
<path d="M135.7 315.1C125.5 316.4 117 315.6 110.1 314.1C98.4 311.6 88.1 309.5 82.6 309.5" stroke="#2D1F04" stroke-width="2.62" stroke-miterlimit="10" stroke-linecap="round" stroke-linejoin="round"/>
<path d="M269.1 278.4C256.2 279.6 244.4 273 236.2 268C217.6 256.6 207.6 251 201.3 247.8C199.6 241.2 199.8 236.5 202 229.8C225.8 238.1 253.5 233.3 271.8 245.2" fill="#CAA77A"/>
<path d="M201.2 247.8C207.5 251 215.3 255.6 234.2 266.8C242.2 271.6 256.2 279.3 269.1 278.4C280.9 277.6 289.6 273.3 293.8 261.8C298 250.4 297.4 226.2 279.9 191" stroke="#2D1F04" stroke-width="2.62" stroke-miterlimit="10" stroke-linecap="round" stroke-linejoin="round"/>
<path d="M271.7 245.1C250.3 232.5 228.6 238.8 201.9 229.7" stroke="#2D1F04" stroke-width="2.62" stroke-miterlimit="10" stroke-linecap="round" stroke-linejoin="round"/>
<path d="M246.4 273.6C245.5 275 242.5 277.9 241.1 278.4" stroke="#2D1F04" stroke-width="2.62" stroke-miterlimit="10" stroke-linecap="round" stroke-linejoin="round"/>
<path d="M186.2 38C194.1 47.8 198.4 64.9 187.8 64.9C177.2 64.9 181.5 47.8 186.2 38Z" fill="#9CDAF0"/>
<path d="M186.2 38C194.1 47.8 198.4 64.9 187.8 64.9C180.2 64.9 180.2 56.1 182.6 47.6" stroke="#2D1F04" stroke-width="2.62" stroke-miterlimit="10" stroke-linecap="round" stroke-linejoin="round"/>
<path d="M189.8 59.8001C190.739 59.8001 191.5 58.4569 191.5 56.8001C191.5 55.1432 190.739 53.8 189.8 53.8C188.861 53.8 188.1 55.1432 188.1 56.8001C188.1 58.4569 188.861 59.8001 189.8 59.8001Z" fill="white"/>
<path d="M74 298C70.4 301 68.1 303.2 64 304.2C57.9 305.6 46.5 299.4 36.4 286.7C25 272.5 19.6 259.8 18 242.1C22.9 235.3 29.5 249.3 33.8 247.8C41.9 253.4 59.7 284.4 74 298Z" fill="#CAA77A"/>
<path opacity="0.23" d="M135.7 282.1C147.1 283.2 161.6 277 173.5 273.6C185.4 270.1 191.9 269.5 194.2 269.4C184.8 268.9 173.9 270.9 166.2 272.7C158.5 274.5 146.1 278.4 138.7 277.7C137.9 279.8 135.7 282.1 135.7 282.1Z" fill="#3F2719"/>
<path d="M98.4 279.4C84.3 284.6 78.6 283.5 69.8 284.1C70.7 276.3 68.4 265.6 64.6 259.5C72.2 254.9 85.1 258.4 98.3 255.8C108.3 253.8 114.8 248.4 116.4 252.6C116.9 254.1 113.4 273.8 98.4 279.4Z" fill="#B6B1AE"/>
<path d="M92.4 308.5L30 268.2C18.1 260.5 14.8 244.7 22.4 232.9L62.7 170.5C70.4 158.6 86.2 155.3 98 162.9L160.4 203.2C172.3 210.9 175.6 226.7 168 238.5L127.7 300.9C120.1 312.8 104.3 316.2 92.4 308.5Z" fill="#3399CC"/>
<path d="M96.4 212.6L96.5 213.1L96 212.8C96.1 212.8 96.2 212.7 96.4 212.6Z" fill="#00342B"/>
<path d="M96.4 212.6L96.5 213.1L96 212.8C96.1 212.8 96.2 212.7 96.4 212.6Z" fill="#00342B"/>
<path opacity="0.23" d="M168.1 238.5L127.8 300.9C120.1 312.7 104.3 316.1 92.5 308.5L30 268.2C20 261.7 16 249.4 19.6 238.6C20.3 246.2 24.3 253.4 31.2 257.8L93.6 298.1C105.4 305.8 121.3 302.4 128.9 290.5L169.2 228.1C170.4 226.3 171.3 224.3 172 222.3C172.6 227.9 171.3 233.6 168.1 238.5Z" fill="#3F2719"/>
<path d="M121.2 221.5L108.7 215.9L115.6 224.7L108.8 221.2L113.9 227.4L98 216.9L105.1 251.8C110.9 253.4 115.7 258.1 117 264.5C118.8 273.5 113 282.3 104.1 284.1C95.1 285.9 86.3 280.1 84.5 271.2C83.2 264.7 85.9 258.2 90.9 254.5L83.4 217.6C77.3 216.2 72.3 211.3 71 204.8C70.6 202.8 70.6 200.8 70.9 198.9L52.9 187L60.7 175.1L78.9 187.1C80.4 186.2 82.1 185.5 84 185.2C93 183.4 101.8 189.2 103.6 198.2C104 200 104 201.8 103.8 203.6L122.7 216.7L114 214.1L121.2 221.5Z" fill="white"/>
<path d="M92.4 308.5L30 268.2C18.1 260.5 14.8 244.7 22.4 232.9L62.7 170.5C70.4 158.6 86.2 155.3 98 162.9L160.4 203.2C172.3 210.9 175.6 226.7 168 238.5L127.7 300.9C120.1 312.8 104.3 316.2 92.4 308.5Z" stroke="#2D1F04" stroke-width="2.62" stroke-miterlimit="10" stroke-linecap="round" stroke-linejoin="round"/>
<path d="M100.6 284.4C109.768 284.4 117.2 276.968 117.2 267.8C117.2 258.632 109.768 251.2 100.6 251.2C91.4321 251.2 84 258.632 84 267.8C84 276.968 91.4321 284.4 100.6 284.4Z" fill="#FF8A8A"/>
<path d="M100.6 284.4C109.768 284.4 117.2 276.968 117.2 267.8C117.2 258.632 109.768 251.2 100.6 251.2C91.4321 251.2 84 258.632 84 267.8C84 276.968 91.4321 284.4 100.6 284.4Z" stroke="#2D1F04" stroke-width="2.62" stroke-miterlimit="10" stroke-linecap="round" stroke-linejoin="round"/>
<path d="M87 217.9C96.1679 217.9 103.6 210.468 103.6 201.3C103.6 192.132 96.1679 184.7 87 184.7C77.8321 184.7 70.4 192.132 70.4 201.3C70.4 210.468 77.8321 217.9 87 217.9Z" fill="white"/>
<path d="M87 217.9C96.1679 217.9 103.6 210.468 103.6 201.3C103.6 192.132 96.1679 184.7 87 184.7C77.8321 184.7 70.4 192.132 70.4 201.3C70.4 210.468 77.8321 217.9 87 217.9Z" fill="#FF8A8A"/>
<path d="M60.5 175.1L78.7 187.1C80.2 186.2 81.9 185.5 83.8 185.2C92.8 183.4 101.6 189.2 103.4 198.2C103.8 200 103.8 201.8 103.6 203.6L122.5 216.7" stroke="#2D1F04" stroke-width="2.62" stroke-miterlimit="10" stroke-linecap="round" stroke-linejoin="round"/>
<path d="M113.8 227.4L97.9 216.9L105 251.8C110.8 253.4 115.6 258.1 116.9 264.5C118.7 273.5 112.9 282.3 104 284.1C95 285.9 86.2 280.1 84.4 271.2C83.1 264.7 85.8 258.2 90.8 254.5L83.3 217.6C77.2 216.2 72.2 211.3 70.9 204.8C70.5 202.8 70.5 200.8 70.8 198.9L52.8 187" stroke="#2D1F04" stroke-width="2.62" stroke-miterlimit="10" stroke-linecap="round" stroke-linejoin="round"/>
<path d="M184 214.6C191.2 220.3 192.4 230.8 186.7 237.9C181 245.1 170.6 246.3 163.4 240.6C161.9 239.4 160.6 238 159.6 236.4L148.9 237.5L141 236L148.4 233.9L137.5 231.6L150.7 227.8L140.3 226.8L148.6 223.2L158 222.3C158.6 220.6 159.5 218.9 160.7 217.3C166.4 210.1 176.9 208.9 184 214.6Z" fill="white"/>
<path d="M173.7 244.2C182.868 244.2 190.3 236.768 190.3 227.6C190.3 218.432 182.868 211 173.7 211C164.532 211 157.1 218.432 157.1 227.6C157.1 236.768 164.532 244.2 173.7 244.2Z" fill="#FF8A8A"/>
<path d="M173.7 244.2C182.868 244.2 190.3 236.768 190.3 227.6C190.3 218.432 182.868 211 173.7 211C164.532 211 157.1 218.432 157.1 227.6C157.1 236.768 164.532 244.2 173.7 244.2Z" stroke="#2D1F04" stroke-width="2.62" stroke-miterlimit="10" stroke-linecap="round" stroke-linejoin="round"/>
<path d="M159.6 236.4L148.9 237.5" stroke="#2D1F04" stroke-width="2.62" stroke-miterlimit="10" stroke-linecap="round" stroke-linejoin="round"/>
<path d="M158 222.3L148.6 223.2" stroke="#2D1F04" stroke-width="2.62" stroke-miterlimit="10" stroke-linecap="round" stroke-linejoin="round"/>
<path d="M87 217.9C96.1679 217.9 103.6 210.468 103.6 201.3C103.6 192.132 96.1679 184.7 87 184.7C77.8321 184.7 70.4 192.132 70.4 201.3C70.4 210.468 77.8321 217.9 87 217.9Z" stroke="#2D1F04" stroke-width="2.62" stroke-miterlimit="10" stroke-linecap="round" stroke-linejoin="round"/>
<path d="M123.1 228.5L127 235.7L132.5 236.1L123.1 228.5Z" fill="white"/>
<path d="M119.4 231.4L117 234.2L118.3 231.2L119.4 231.4Z" fill="white"/>
<path d="M126.8 220.7L126.1 218.3L122.8 220.2L126.8 220.7Z" fill="white"/>
<path d="M134.5 226.8L128.1 225.3L135.1 229.8L134.5 226.8Z" fill="white"/>
<path d="M201.2 247.8C199.2 241.2 200.2 235 201.9 229.8" stroke="#2D1F04" stroke-width="2.62" stroke-miterlimit="10" stroke-linecap="round" stroke-linejoin="round"/>
<path d="M201.9 229.8C200.2 235 199.2 241.2 201.2 247.8C194.9 248.5 191 250 180.4 248C169.1 245.9 164.2 232.4 164.5 231.2C165.2 228.1 170.3 231 177.7 231.3C187.3 231.5 196 227.2 201.9 229.8Z" fill="#B6B1AE"/>
<path d="M164.4 231.1C169.7 236.9 179.9 243.5 200.2 237.4" stroke="#2D1F04" stroke-width="2.62" stroke-miterlimit="10" stroke-linecap="round" stroke-linejoin="round"/>
<path d="M201.9 229.8C200.2 235 199.2 241.2 201.2 247.8C194.9 248.5 191 250 180.4 248C169.1 245.9 164.2 232.4 164.5 231.2C165.2 228.1 170.3 231 177.7 231.3C187.3 231.5 196 227.2 201.9 229.8Z" stroke="#2D1F04" stroke-width="2.62" stroke-miterlimit="10" stroke-linecap="round" stroke-linejoin="round"/>
<path d="M18.6 243.1C18.5 228.1 23.3 201.7 36.3 182.1" stroke="#2D1F04" stroke-width="2.62" stroke-miterlimit="10" stroke-linecap="round" stroke-linejoin="round"/>
<path d="M81.1 139.6C66.5 140.7 49.3 155.4 39.7 171.9C39.7 171.9 39.7 171.9 39.6 171.9C38.5 171.3 36.1 173.7 35.1 175.1C34.3 176.2 32.8 178.8 34.4 180.5C34.8 181 35.5 181.5 36.2 182.1C37.9 183.5 40.4 185.3 43.3 187.4" stroke="#2D1F04" stroke-width="2.62" stroke-miterlimit="10" stroke-linecap="round" stroke-linejoin="round"/>
<path d="M64 304.2C57.9 305.6 46.5 299.4 36.4 286.7C28.9 277.2 24 268.5 21.1 258.5" stroke="#2D1F04" stroke-width="2.62" stroke-miterlimit="10" stroke-linecap="round" stroke-linejoin="round"/>
<path d="M63.5 304.7C80.1 305 89 289.4 85.8 282.5C81.8 273.9 80.3 283.5 65.7 282.6C61.1 282.3 58.1 283 55.7 284.8C55 286.5 55 288.1 54.8 292.3C54.4 299.7 57.2 304.6 63.5 304.7Z" fill="#B6B1AE"/>
<path d="M63.5 304.7C80.1 305 89 289.4 85.8 282.5C81.8 273.9 80.3 283.7 65.7 282.6C61.4 282.3 58.1 283.4 55.7 284.8C55.3 286.1 55.1 287.4 54.8 292.3C54.4 299.7 57.2 304.6 63.5 304.7Z" stroke="#2D1F04" stroke-width="2.62" stroke-miterlimit="10" stroke-linecap="round" stroke-linejoin="round"/>
<path opacity="0.23" d="M294.6 259.8C294.5 260 294.5 260.2 294.4 260.5C294.3 260.9 294.1 261.4 294 261.8C293.9 262 293.8 262.3 293.7 262.5C293.6 262.7 293.5 263 293.4 263.2C293.2 263.7 293 264.1 292.8 264.6C292.3 265.6 291.8 266.5 291.2 267.4C291.1 267.4 291.1 267.3 291 267.3C291 267.3 291.1 267.3 291.1 267.4C286.9 273.8 279.8 277.9 269.1 278.5C267.4 278.6 265.6 278.6 263.7 278.6C262.6 278.5 261.6 278.4 260.5 278.3C254.9 277.5 249.6 275.4 245 273.1C241.8 271.5 238.8 269.8 236.2 268.2C217.6 256.8 207.6 251.2 201.3 248C195 248.7 191.1 250.2 180.5 248.2C169.2 246 164.3 232.5 164.6 231.4C165.1 229.3 167.5 229.9 171.2 230.6C168.9 232.7 168.5 236.2 174.6 240.1C182.2 244.9 192.9 242.4 200.3 242C201.7 241.9 203 241.9 204.1 242C215.3 243.4 225.2 248 241.3 258.7C246.6 262.2 258.3 270.8 269.8 272C275.9 272.6 282 271.1 286.9 265.6C288 264.4 288.8 262.9 289.2 261.1C293.1 240.3 274 197.8 259.2 198.7C260 198.3 260.6 197.8 261 197.2C265.3 190.8 253.2 173.3 246.9 161.8C240 149.3 232.8 143.1 228.9 146C235.5 138.5 238.5 131.6 239.8 127.9C239.6 128.8 239.9 128 240.7 125.5C240.7 125.5 240.7 125.5 240.7 125.4C249.7 139.5 264 160.7 275.8 182.4C279.5 182.7 284.5 190 280.4 191.2C296.5 224.3 298 247.6 294.6 259.8Z" fill="#3F2719"/>
<path opacity="0.23" d="M86.2 288.1C82.4 282.6 74.7 289.2 68 291.7C67.9 291.7 67.8 291.8 67.7 291.8C67.4 291.9 67.2 292 66.9 292C62.7 293.3 58.8 293.2 54.8 292.1C51.7 291.2 49.5 287.5 46.3 284.1C34.5 271.5 33.8 279.7 38.9 289.8C38 288.8 37.2 287.8 36.3 286.7C28.5 276.9 23.5 267.8 20.6 257.3C22.6 261.6 25.7 265.4 30 268.1L55.7 284.7C57.1 283.6 58.8 282.9 60.9 282.7C62.3 282.5 63.8 282.5 65.7 282.6C80.3 283.4 81.8 273.9 85.8 282.5C86.5 284 86.6 285.9 86.2 288.1Z" fill="#3F2719"/>
<path d="M55.2 296C66.1 297 77.3 294.4 84.9 281.4" stroke="#2D1F04" stroke-width="2.62" stroke-miterlimit="10" stroke-linecap="round" stroke-linejoin="round"/>
<path opacity="0.23" d="M49.1 191.5L22.4 232.8C19.7 237 18.4 241.6 18.3 246.2C18.1 245.2 18.1 244.2 18.1 243.1C18.1 238 18.7 231.5 20 224.4C22.8 228.3 26.1 224.8 28.5 220.4C35.4 207.9 39.9 197.7 44.5 188.1C45.9 189.2 46.6 189.7 49.1 191.5Z" fill="#3F2719"/>
<path opacity="0.23" d="M43.4 187.4C47.8 187.4 55.5 178 59.6 172.4C63.8 166.8 69.8 153.2 76.4 151.6C74.1 156.8 73.4 158.7 72.6 161.6C69.2 164.4 65.4 166.5 59.6 175.4C53.8 184.3 50.2 190 49.1 191.6C47.4 190.2 43.4 187.4 43.4 187.4Z" fill="#3F2719"/>
<path opacity="0.23" d="M247.6 274.1C245.4 276.8 241.4 278.3 235 277.4C223.3 275.8 213.6 275.6 205.5 276.2C211.2 274 213.3 271.7 214.3 269.8C216.5 265.8 215.2 261.5 210.1 258.8C205 256.1 198.4 253.4 192.9 252.7C188.6 252.1 184.4 250.7 181.2 248C191.3 249.8 195.1 248.4 201.3 247.7C207.6 250.9 217.6 256.5 236.2 267.9C239.4 270 243.3 272.2 247.6 274.1Z" fill="#3F2719"/>
<path opacity="0.23" d="M133.8 185.9C129.7 181.3 144.3 180.7 161.4 179.4C178.5 178.1 193.8 172.4 203 164.7C195.6 168.1 185.6 171.3 169.3 174C153 176.7 130 178 109.5 170.2C115 173.7 126 181 133.8 185.9Z" fill="#3F2719"/>
<path d="M39.7 171.9C42.9 173.9 47.3 177 49.1 178.5" stroke="#2D1F04" stroke-width="2.62" stroke-miterlimit="10" stroke-linecap="round" stroke-linejoin="round"/>
<path d="M42.7 173.8C42.1 174 40.8 175.3 40.2 176.4" stroke="#2D1F04" stroke-width="2.62" stroke-miterlimit="10" stroke-linecap="round" stroke-linejoin="round"/>
<path d="M48 177.6C47.2 178.1 46.6 179.1 46.3 179.6" stroke="#2D1F04" stroke-width="2.62" stroke-miterlimit="10" stroke-linecap="round" stroke-linejoin="round"/>
<path d="M227.8 163.6C231 160.6 233.9 158.5 236.7 156.8C239 155.4 240.6 156.3 241.5 157.5C242.7 159.2 242.5 160.9 241.1 162.4C241 162.5 240.9 162.6 240.8 162.7C243.6 162.6 245 164.7 247.5 166.1C246 166.8 244.6 167.5 243.2 168.3C241.8 167.4 240.4 166.5 239 165.7C238.2 165.3 237.5 165.1 236.5 166.1C237.4 167.6 238.3 169.2 239.5 171C238.3 172 237.2 173.1 236 174.3C232.9 169.9 231.1 166.6 227.8 163.6ZM233.7 162C234.2 162.7 234.6 163.3 235.2 164.1C236 163.4 236.9 162.9 237.6 162.2C238.3 161.7 238.4 161 238.1 160.5C237.8 159.9 237.1 159.7 236.3 160.2C235.4 160.7 234.6 161.3 233.7 162Z" fill="black"/>
<path d="M253 151.4C251.9 152.2 250.8 152.9 249.7 153.7C248.9 152.6 247.9 152.3 246.9 153C246.3 153.4 245.9 154 246.1 154.9C246.5 155.5 247 155.5 247.5 155.4C248.5 155.1 249.5 154.9 250.5 154.6C251.1 154.5 251.6 154.4 252.2 154.4C255.8 154.3 258.2 158.1 257 160.9C256.6 161.8 255.8 162.7 254.9 163.3C253.5 164.3 251.9 164.9 250.2 165.1C248 165.4 246 164.4 244.9 162.4C246 161.8 247.1 161.2 248.3 160.5C248.5 160.7 248.7 160.9 248.9 161.1C250 162.1 251.6 162.1 252.6 161C253 160.5 253.2 159.9 252.9 159.3C252.6 158.7 252 158.5 251.4 158.5C250.9 158.5 250.4 158.6 249.9 158.7C248.9 158.9 247.9 159.1 246.8 159.2C244.8 159.3 243.5 158.6 242.8 157.2C242 155.6 242.2 153.8 243.4 152.1C244.6 150.5 246 149.3 247.9 148.8C250.1 148.3 251.7 149.3 253 151.4Z" fill="black"/>
</g>
<defs>
<clipPath id="clip0_202_487">
<rect width="298" height="342" fill="white"/>
</clipPath>
</defs>
</svg>
