<svg width="338" height="310" viewBox="0 0 338 310" fill="none" xmlns="http://www.w3.org/2000/svg">
<g clip-path="url(#clip0_202_1473)">
<path d="M300.75 94.8501C300.39 94.8701 300.12 94.9201 299.94 95.0101C299.76 95.1001 299.6 95.2501 299.47 95.4601C299.34 95.6701 299.25 95.9301 299.19 96.2501C299.15 96.4901 299.13 96.9001 299.13 97.4801C299.13 98.4401 299.09 99.1101 299 99.4901C298.91 99.8701 298.76 100.17 298.52 100.4C298.29 100.63 297.95 100.81 297.5 100.94C297.2 101.03 296.73 101.07 296.08 101.07H295.69V99.2901C296.22 99.2901 296.56 99.2601 296.73 99.1901C296.89 99.1201 297.01 99.0301 297.09 98.9001C297.17 98.7701 297.21 98.5601 297.21 98.2601C297.21 97.9601 297.23 97.3801 297.27 96.5401C297.3 96.0301 297.36 95.6201 297.47 95.3101C297.58 95.0001 297.72 94.7401 297.9 94.5301C298.08 94.3201 298.31 94.1301 298.59 93.9601C298.23 93.7201 297.96 93.4901 297.79 93.2601C297.56 92.9301 297.4 92.5201 297.32 92.0201C297.27 91.6701 297.23 90.9201 297.2 89.7401C297.2 89.3701 297.16 89.1201 297.1 89.0001C297.04 88.8801 296.93 88.7801 296.77 88.7201C296.61 88.6501 296.25 88.6201 295.69 88.6201V86.8501H296.08C296.75 86.8501 297.26 86.9001 297.61 87.0101C297.97 87.1101 298.26 87.2901 298.51 87.5401C298.75 87.7901 298.92 88.0901 299 88.4601C299.09 88.8201 299.13 89.3901 299.13 90.1701C299.13 91.0701 299.17 91.6601 299.24 91.9401C299.35 92.3301 299.51 92.6201 299.74 92.7901C299.96 92.9601 300.3 93.0601 300.75 93.0801V94.8501Z" fill="white"/>
<path d="M335.89 205.68C333.21 223.63 332.19 229.76 330.7 237.59C330.34 239.55 329.44 242.21 328.11 244.09C326.49 246.37 324.23 247.53 321.47 244.88C317.55 261.92 309.11 290.35 290.24 302.2C285.12 305.42 279.22 307.41 272.45 307.62C265.65 307.83 259.5 305.75 254.01 302.26C237.06 291.5 226.3 267.35 221.67 255.74C222.12 255.39 222.57 255.05 223 254.73C223.14 254.63 223.27 254.52 223.38 254.4C223.5 254.3 223.61 254.17 223.71 254.05C224.34 253.27 224.62 252.34 224.6 251.42C224.65 249.59 223.45 247.76 221.32 247.36L218.07 246.88C218.42 246.93 218.69 247.05 218.91 247.23L210.45 245.99L172.93 240.48L162.87 239L163.7 208.28C169.44 204.77 174.28 200.07 177.43 194.05C177.41 193.97 177.38 193.9 177.37 193.82C177.41 193.77 177.43 193.73 177.45 193.67C177.88 195.26 179.05 196.36 180.68 196.75C180.8 196.77 180.9 196.8 181.01 196.81C181.09 196.83 181.16 196.85 181.23 196.85C181.51 196.89 181.73 196.87 181.94 196.85C182.65 196.78 183.06 196.44 183.76 196.35C183.85 196.33 183.96 196.33 184.06 196.33C184.07 196.33 184.07 196.33 184.08 196.33C184.2 196.33 184.3 196.34 184.41 196.35C184.5 196.37 184.58 196.4 184.67 196.41C184.96 196.5 185.22 196.63 185.54 196.75C185.62 196.79 185.7 196.81 185.8 196.84C185.88 196.86 185.97 196.89 186.07 196.91C186.14 196.93 186.21 196.94 186.28 196.94C186.29 196.95 186.3 196.95 186.32 196.95C186.45 196.97 186.58 197 186.73 197.01C186.89 197.03 187.07 197.05 187.27 197.05C187.46 197.05 187.63 197.04 187.79 197.03C188.83 196.94 189.46 196.54 190.06 196.42C190.13 196.41 190.21 196.4 190.28 196.4C190.41 196.4 190.52 196.41 190.64 196.42C190.73 196.43 190.82 196.46 190.9 196.47C190.98 196.49 191.05 196.52 191.12 196.54C191.2 196.56 191.28 196.6 191.35 196.62C191.56 196.7 191.78 196.78 192.03 196.85C192.04 196.85 192.05 196.86 192.06 196.86C192.14 196.88 192.24 196.91 192.33 196.92C192.42 196.94 192.52 196.96 192.62 196.97C192.81 196.99 193.02 196.99 193.26 196.98C193.32 196.97 193.39 196.97 193.46 196.97C193.52 196.97 193.58 196.96 193.65 196.95C195.4 196.71 196.65 195.25 197.16 193.62C197.18 193.66 197.2 193.69 197.22 193.72C197.21 193.78 197.2 193.85 197.17 193.91C204.27 207.72 220.06 214.55 235.52 216.26C235.75 215.56 235.99 214.86 236.2 214.15C236.4 213.57 236.57 212.97 236.75 212.39C237.06 211.34 237.36 210.29 237.64 209.24C237.8 208.65 237.95 208.05 238.09 207.47C238.23 206.9 238.37 206.33 238.5 205.76C238.5 205.73 238.51 205.68 238.52 205.64C238.61 205.21 238.71 204.79 238.8 204.36C238.81 204.31 238.82 204.26 238.84 204.21C238.85 204.16 238.86 204.12 238.88 204.07C238.89 204.01 238.9 203.97 238.92 203.92C238.95 203.78 238.99 203.63 239.01 203.48C239.09 203.1 239.17 202.71 239.24 202.33C239.58 200.59 239.87 198.86 240.09 197.12C240.15 196.74 240.19 196.35 240.23 195.97C240.32 195.21 240.4 194.44 240.46 193.69C240.51 193.19 240.55 192.69 240.58 192.19C240.63 191.46 240.66 190.72 240.7 189.99C240.74 189.19 240.75 188.37 240.75 187.57C240.75 183.55 240.39 179.55 239.61 175.66C238.98 172.5 238.07 169.4 236.82 166.38L236.75 166.21C235.81 163.66 234.23 160.47 232.9 158.71C232.89 158.7 232.87 158.67 232.87 158.66C232.8 158.54 232.73 158.44 232.66 158.32C232.64 158.32 232.62 158.33 232.6 158.33C232.59 158.33 232.59 158.32 232.59 158.32C224.61 160.06 217.75 164.34 211.82 168.73C211.35 169.07 210.9 169.41 210.44 169.76C209.99 170.11 209.53 170.46 209.06 170.82C208.69 171.1 208.33 171.38 207.98 171.66C207.68 171.89 207.39 172.11 207.09 172.34C207.05 172.39 207.01 172.42 206.96 172.45C201.67 176.51 198.82 178.46 197.13 179.23C196.75 177.46 195.57 175.85 193.66 175.58H193.61C193.6 175.58 193.6 175.58 193.59 175.58C193.48 175.57 193.37 175.54 193.28 175.54C193.04 175.53 192.83 175.53 192.64 175.55C192.54 175.56 192.44 175.57 192.35 175.6C192.26 175.61 192.16 175.64 192.08 175.66C192.07 175.66 192.06 175.67 192.05 175.67C191.8 175.74 191.58 175.82 191.37 175.9C191.3 175.92 191.22 175.96 191.14 175.98C191.07 176 191 176.03 190.92 176.05C190.84 176.06 190.76 176.09 190.66 176.1C190.54 176.11 190.43 176.12 190.3 176.12C190.23 176.12 190.15 176.11 190.08 176.1C189.47 175.98 188.84 175.59 187.81 175.49C187.65 175.48 187.47 175.47 187.29 175.47C187.09 175.47 186.92 175.48 186.75 175.51C186.6 175.52 186.46 175.55 186.34 175.57C186.33 175.57 186.32 175.57 186.3 175.58C186.23 175.58 186.16 175.59 186.09 175.62C186.04 175.63 186.01 175.64 185.97 175.64C185.84 175.68 185.74 175.71 185.63 175.76C185.27 175.88 185 176.03 184.69 176.12C184.61 176.13 184.53 176.16 184.43 176.18C184.32 176.19 184.22 176.2 184.1 176.2C184.09 176.2 184.09 176.2 184.08 176.2C183.97 176.2 183.87 176.2 183.78 176.18C183.08 176.09 182.67 175.75 181.96 175.68C181.75 175.66 181.53 175.64 181.25 175.68C181.09 175.69 180.9 175.73 180.7 175.77C178.93 176.19 177.94 177.82 177.62 179.54C176.65 178.99 175.65 178.34 174.6 177.6C174.25 177.36 173.89 177.11 173.53 176.84C173.52 176.84 173.52 176.84 173.51 176.83C173.49 176.82 173.45 176.79 173.43 176.77C173.03 176.48 172.61 176.18 172.17 175.84C171.84 175.58 171.51 175.33 171.17 175.07C170.79 174.77 170.39 174.46 169.99 174.16C167.89 172.54 165.67 170.78 163.29 169.03C162.72 168.61 162.15 168.19 161.56 167.78C161.02 167.4 160.49 167.01 159.93 166.64C159.29 166.2 158.64 165.77 157.97 165.35C155.79 163.95 153.51 162.65 151.12 161.51C148.24 160.13 145.2 159.03 141.99 158.33C141.99 158.33 141.99 158.34 141.98 158.34C141.96 158.34 141.93 158.33 141.91 158.33C141.29 159.29 140.72 160.25 140.2 161.23C140.27 159.59 140.5 157.63 139.92 157.12C139.89 156.97 139.85 156.89 139.82 156.88C138.92 156.58 138.32 158.63 138.11 158.84C137.46 159.48 138.49 157.04 138.6 156.14C138.67 155.51 138.74 154.86 138.8 154.19C138.82 153.98 138.85 153.77 138.86 153.56C139 151.87 139.05 150.12 138.85 148.54C138.78 147.99 137.63 149.76 137.38 149.27C136.81 148.13 137.57 145.91 137.38 144.61C137.01 141.99 135.34 139.32 134.19 137.01C129.43 127.49 125.12 117.06 122.43 106.4C117.09 85.3901 119.17 66.9501 130.5 50.0801C134.01 44.9901 137.26 39.4301 142.54 35.9201C139.45 35.5601 136.54 36.0301 133.06 37.6101C136.23 32.0001 138.76 30.7701 142.78 29.7801C142.88 29.1701 135.39 26.5001 129.28 28.8001C134.79 19.8601 149.64 21.0701 149.64 18.9801C149.64 16.5101 142.93 15.6801 137.62 16.5301C145.65 9.98007 156.96 10.0301 166.08 13.8301C162.27 9.79007 162.37 4.47007 164.86 1.57007C171.11 7.70007 181.93 11.9201 195.28 12.1201C192.48 11.2701 191.29 8.75007 192.44 6.36007C195.46 9.09007 206.52 12.2601 218.4 16.2301C281.17 37.2101 302.38 101.86 302.38 145.43C302.36 147.98 302.3 149.98 302.36 152.56C308.71 153.26 315.19 155.61 321.2 160.52C332.91 170.05 338.57 187.73 335.89 205.68Z" fill="#CAA77A"/>
<path d="M255.63 303.27C236.24 302.99 173.96 303.27 157.14 303.14C158.7 302.91 160.14 302.36 161.42 301.39C171.84 293.51 205.65 267.86 221.63 255.74C226.26 267.35 236.91 292.53 255.63 303.27Z" fill="#FFDB1F"/>
<path d="M316.73 262.18C316.04 274.98 314.04 288.16 308.78 303.13H288.62C303.32 294.95 311.71 277.63 316.73 262.18Z" fill="#FFDB1F"/>
<path d="M335.74 206.16C333.06 224.11 332.04 230.24 330.56 238.07C329.73 242.38 326.35 250.19 321.32 245.37C293.94 232.55 271.47 232.21 260.7 231.23C260 231.17 259.38 231.07 258.83 230.94C258.24 232.44 256.64 236.9 256.42 239.79C248.87 233.44 239.73 228.02 229.74 225.68C210.98 221.3 194.82 224.18 181.62 233.5C180.21 234.49 178.85 235.54 177.51 236.65C172.51 236.5 167.65 236.16 162.82 235.67L163.54 208.78V208.77C169.29 205.27 174.14 200.58 177.28 194.54C177.26 194.46 177.23 194.39 177.22 194.31C177.26 194.26 177.28 194.22 177.3 194.16C177.73 195.75 178.9 196.85 180.53 197.24C180.65 197.26 180.75 197.29 180.86 197.3C180.94 197.32 181.01 197.34 181.08 197.34C181.36 197.38 181.58 197.36 181.79 197.34C182.5 197.27 182.91 196.93 183.61 196.84C183.7 196.82 183.81 196.82 183.91 196.82C183.92 196.82 183.92 196.82 183.93 196.82C184.05 196.82 184.15 196.83 184.26 196.84C184.75 196.92 185.11 197.17 185.68 197.34C185.73 197.34 185.77 197.35 185.82 197.36C185.93 197.38 186.03 197.41 186.16 197.44C186.29 197.46 186.42 197.49 186.57 197.5C186.73 197.52 186.91 197.54 187.11 197.54C187.3 197.54 187.47 197.53 187.63 197.52C188.67 197.43 189.3 197.03 189.9 196.91C189.97 196.9 190.05 196.89 190.12 196.89C190.25 196.89 190.36 196.9 190.48 196.91C190.57 196.92 190.65 196.95 190.74 196.96C191.22 197.09 191.61 197.31 192.17 197.41C192.26 197.43 192.36 197.45 192.46 197.46C192.65 197.48 192.86 197.48 193.1 197.47C193.16 197.46 193.23 197.46 193.3 197.46C193.36 197.46 193.42 197.45 193.49 197.44C195.24 197.2 196.49 195.74 197 194.11C197.02 194.15 197.03 194.18 197.06 194.21C197.05 194.27 197.04 194.34 197.01 194.4C204.11 208.21 219.9 215.04 235.36 216.75C235.59 216.05 235.83 215.35 236.04 214.64C236.24 214.06 236.41 213.46 236.59 212.88C236.9 211.83 237.2 210.78 237.48 209.73C237.64 209.14 237.79 208.54 237.93 207.96C238.07 207.4 238.2 206.85 238.33 206.29C238.43 205.82 238.54 205.36 238.63 204.89C238.75 204.42 238.84 203.96 238.92 203.49C239.06 202.84 239.18 202.18 239.29 201.53C239.42 200.88 239.52 200.24 239.62 199.58C239.73 198.93 239.82 198.27 239.9 197.62C239.99 196.97 240.08 196.31 240.13 195.66C240.21 195.01 240.27 194.37 240.32 193.71C240.37 193.22 240.4 192.73 240.43 192.24C240.45 191.89 240.48 191.54 240.49 191.19C240.51 190.74 240.54 190.28 240.55 189.81C240.57 188.87 240.59 187.91 240.56 186.97C240.57 186.63 240.56 186.29 240.55 185.97C240.53 185.12 240.48 184.27 240.42 183.42C240.39 182.86 240.34 182.3 240.28 181.74C240.22 181.2 240.16 180.67 240.09 180.14C240.05 179.77 240 179.39 239.94 179.03C239.87 178.52 239.79 178.02 239.71 177.5C239.63 177.03 239.55 176.56 239.44 176.09C240.75 175.72 241.68 175.38 242.2 175.11C248.95 172.84 257.55 169.76 264.73 165.68C269.29 158.91 284.51 148.46 302.15 151.8C308.26 152.95 314.66 155.75 321 160.94C332.76 170.52 338.42 188.21 335.74 206.16Z" fill="#FFDB1F"/>
<path d="M140.11 161.53C136.39 167.49 134.58 177.3 134.09 181.65C128.45 180.73 115.17 179.45 109.42 178.75C116.87 163.9 125.24 157.74 138.76 153.48C138.69 155.18 137.54 158.55 137.79 158.98C137.99 159.3 139.56 156.82 139.83 157.05C140.47 157.59 140.15 159.82 140.11 161.53Z" fill="#FFDB1F"/>
<path d="M109.43 178.75C116.88 163.9 125.25 157.74 138.77 153.48" stroke="#2D1F04" stroke-width="2.7806" stroke-miterlimit="10" stroke-linecap="round" stroke-linejoin="round"/>
<path d="M208.45 262.25C208.28 262 208.11 261.74 207.94 261.49L208.45 262.25Z" fill="#B6B1AE"/>
<path d="M126.53 83.1701C129.01 73.1001 135.19 61.7401 144.2 60.0801C154.79 58.1201 163.6 66.6301 173.84 66.2201C175.74 66.1401 179.44 65.0001 180.58 63.3301C181.66 61.7601 180.55 59.5601 180.59 59.5801C182.21 60.0501 183.83 62.3901 185.79 62.9601C193.48 65.1801 201.42 58.4201 208.38 56.3201C231.57 49.3101 249.65 51.8201 262.01 74.2101C264.79 79.2401 269.05 90.7401 266.15 103.59C261.92 122.32 259.72 130.17 239.4 144.19C215.26 160.85 165.3 169.13 140.35 137.62C128.67 122.87 121.91 101.97 126.53 83.1701Z" fill="#FFDBAF"/>
<path d="M173.25 91.7499C164.83 87.5399 158.02 108.82 158.69 114.92C161.02 135.85 191.62 134.77 205.81 127.67C226.29 117.43 201.24 84.4499 186.6 90.3099" fill="#9D7B51"/>
<path d="M125.88 82.7499C122.52 96.1199 127.19 116.41 130.66 119.01C133.34 121.02 148.21 115.49 158.64 99.7299C165.62 89.1899 167.95 73.8499 165.43 71.1399C155.84 60.8199 142.37 60.4899 139.36 61.0999C135.11 61.9499 128.96 70.4999 125.88 82.7499Z" fill="#9D7B51"/>
<path d="M199.59 65.99C203.36 115.34 254.62 131.67 260.49 123.15C264.25 117.69 272.33 92.34 262.47 75.09C261.5 73.4 257.13 62.58 235.9 56.32C221.72 52.14 208.52 57.02 199.59 65.99Z" fill="#9D7B51"/>
<path d="M151.07 158.16L151.02 165.14" stroke="#9D7B51" stroke-width="4.1072" stroke-miterlimit="10" stroke-linecap="round" stroke-linejoin="round"/>
<path d="M157.93 161.73L157.88 168.71" stroke="#9D7B51" stroke-width="4.1072" stroke-miterlimit="10" stroke-linecap="round" stroke-linejoin="round"/>
<path opacity="0.23" d="M118.22 247.65C116.6 251.18 123.53 239.4 125.89 237.91C130.91 234.74 138.5 234.59 144.12 234.59C158.6 234.59 170.47 248.27 185.98 248.27C189.98 248.27 201.46 246.08 198 239.15C196.09 235.33 187.03 236.25 183.49 236.25C168.64 236.25 155.23 234.51 140.8 232.11C137.34 231.53 128.98 231.47 126.07 226.22C125.32 224.86 122.78 236.01 122.18 236.91C118.77 242.04 121.03 241.53 118.22 247.65Z" fill="#3F2719"/>
<path d="M258.18 218.56C272.99 213.8 295.73 215.18 311.44 226.07" stroke="#2D1F04" stroke-width="2.7806" stroke-miterlimit="10" stroke-linecap="round" stroke-linejoin="round"/>
<path d="M269.75 217.9C269.52 219.87 269.64 221.37 269.88 223.37" stroke="#2D1F04" stroke-width="2.7806" stroke-miterlimit="10" stroke-linecap="round" stroke-linejoin="round"/>
<path d="M281.18 217.86L281.06 222.61" stroke="#2D1F04" stroke-width="2.7806" stroke-miterlimit="10" stroke-linecap="round" stroke-linejoin="round"/>
<path d="M289.21 218.94L287.98 223.47" stroke="#2D1F04" stroke-width="2.7806" stroke-miterlimit="10" stroke-linecap="round" stroke-linejoin="round"/>
<path d="M259.77 196.4C261.08 192.17 262.8 187.18 262.71 182.79" stroke="#2D1F04" stroke-width="2.7806" stroke-miterlimit="10" stroke-linecap="round" stroke-linejoin="round"/>
<path d="M255.2 181.19C258.1 188.34 260.87 197.88 259.94 205.84C259.47 209.92 258.1 214.57 258.18 218.56" stroke="#2D1F04" stroke-width="2.7806" stroke-miterlimit="10" stroke-linecap="round" stroke-linejoin="round"/>
<path d="M258.18 218.56C254.91 224.57 252.72 228.23 260.81 230.75" stroke="#2D1F04" stroke-width="2.7806" stroke-miterlimit="10" stroke-linecap="round" stroke-linejoin="round"/>
<path d="M308.78 303.14C314.04 288.17 316.04 274.99 316.73 262.19" stroke="#2D1F04" stroke-width="2.7806" stroke-miterlimit="10" stroke-linecap="round" stroke-linejoin="round"/>
<path d="M140.06 173.38C188.05 187.18 236.9 177.38 242.31 174.62" stroke="#2D1F04" stroke-width="2.7806" stroke-miterlimit="10" stroke-linecap="round" stroke-linejoin="round"/>
<path d="M302.27 152.48C302.21 149.89 302.27 147.9 302.29 145.36C302.29 101.79 281.09 37.15 218.32 16.16C206.44 12.19 195.38 9.00999 192.35 6.27999C191.21 8.66999 192.4 11.19 195.2 12.04C181.83 11.84 171.02 7.61999 164.77 1.48999C162.28 4.39999 162.18 9.70999 166 13.76C156.88 9.95999 145.57 9.90999 137.54 16.46C142.84 15.61 149.56 16.43 149.56 18.91C149.56 20.99 134.71 19.78 129.19 28.72C135.3 26.42 142.79 29.09 142.69 29.7C138.67 30.68 136.15 31.92 132.97 37.53C136.44 35.94 139.36 35.48 142.44 35.84C136.8 39.6 133.46 45.69 129.68 51.05C111.13 77.32 120.92 110.58 134.1 136.93C135.26 139.24 136.92 141.92 137.29 144.54C137.48 145.84 136.72 148.06 137.29 149.2C137.54 149.69 138.69 147.92 138.76 148.46C139.06 150.88 138.78 153.68 138.51 156.07C138.41 156.98 137.37 159.42 138.02 158.77C138.23 158.56 138.84 156.51 139.74 156.81C140.26 156.98 139.76 169.98 139.49 171.29" stroke="#2D1F04" stroke-width="2.7806" stroke-miterlimit="10" stroke-linecap="round" stroke-linejoin="round"/>
<path d="M154.85 81.61C154.88 94.84 129.39 95.32 128.09 83.53C127.47 77.86 129.79 75.07 133.76 75.02C140.68 74.96 155.17 72.06 154.85 81.61Z" fill="white"/>
<path d="M154.85 81.61C154.88 94.84 129.39 95.32 128.09 83.53C127.47 77.86 129.79 75.19 133.76 75.02C140.68 74.73 155.17 72.06 154.85 81.61Z" stroke="#2D1F04" stroke-width="3.2369" stroke-miterlimit="10" stroke-linecap="round" stroke-linejoin="round"/>
<path d="M136.7 82.0899C136.7 79.4999 138.79 77.3999 141.37 77.3999C143.96 77.3999 146.06 79.4899 146.06 82.0699C146.06 84.6599 143.97 86.7599 141.39 86.7599C138.81 86.7699 136.7 84.6699 136.7 82.0899Z" fill="#2D1F04"/>
<path d="M247.57 80.1C246.16 91.88 216.85 94.36 216.61 78.94C216.51 72.79 226.08 72.06 236.76 70.97C247.14 69.91 248.52 72.13 247.57 80.1Z" fill="white"/>
<path d="M247.57 80.0999C246.7 91.9399 216.85 94.3599 216.61 78.9399C216.51 72.7899 225.78 72.1299 236.76 70.9699C245.63 70.0299 248.15 72.1999 247.57 80.0999Z" stroke="#2D1F04" stroke-width="3.2369" stroke-miterlimit="10" stroke-linecap="round" stroke-linejoin="round"/>
<path d="M227.41 78.99C227.66 76.42 229.96 74.53 232.53 74.79C235.1 75.04 236.98 77.34 236.73 79.91C236.48 82.48 234.18 84.36 231.61 84.11C229.04 83.86 227.16 81.56 227.41 78.99Z" fill="#2D1F04"/>
<path d="M182.38 97.8398C182.38 101.8 182.38 105.38 182.38 107.27C182.38 111.76 189.27 119.67 199.59 112.53" stroke="#2D1F04" stroke-width="3.2369" stroke-miterlimit="10" stroke-linecap="round" stroke-linejoin="round"/>
<path d="M179.09 113.37C176.35 115.8 172.08 116.75 166.97 111.64" stroke="#2D1F04" stroke-width="3.2369" stroke-miterlimit="10" stroke-linecap="round" stroke-linejoin="round"/>
<path d="M168.18 91.78C168.02 88.61 174.24 85.74 182.06 85.35C189.88 84.97 196.35 87.22 196.51 90.39C196.67 93.56 190.45 96.44 182.63 96.82C174.81 97.2 168.34 94.95 168.18 91.78Z" fill="#251707"/>
<path d="M201.03 69.75C219.4 51.27 243.11 53.04 267.17 72.47" stroke="#2D1F04" stroke-width="8.0658" stroke-miterlimit="10" stroke-linecap="round" stroke-linejoin="round"/>
<path d="M164.03 71.41C145.96 55.29 129.95 57.39 113.3 81.12" stroke="#2D1F04" stroke-width="8.0658" stroke-miterlimit="10" stroke-linecap="round" stroke-linejoin="round"/>
<path d="M165.26 79.4501C173.03 72.3001 189.86 70.7801 199.59 76.1001" stroke="#2D1F04" stroke-width="8.0658" stroke-miterlimit="10" stroke-linecap="round" stroke-linejoin="round"/>
<path opacity="0.34" d="M165.26 79.4401C165.26 95.9501 151.89 109.32 135.39 109.32C135.13 109.32 134.87 109.32 134.61 109.3C132.23 109.25 129.92 108.92 127.71 108.32C126.51 108.01 125.34 107.62 124.21 107.15C119.57 105.28 115.5 102.28 112.38 98.4801C108.09 93.3201 105.51 86.6801 105.51 79.4401C105.51 63.7401 117.63 50.8601 133.04 49.6701C133.81 49.6101 134.59 49.5801 135.38 49.5801C139.69 49.5801 143.8 50.5001 147.5 52.1401C148.63 52.6401 149.72 53.2001 150.76 53.8401C152.76 55.0401 154.62 56.4701 156.27 58.1101C161.83 63.5301 165.26 71.0901 165.26 79.4401Z" fill="white"/>
<path d="M147.52 52.1401L124.22 107.15C119.58 105.28 115.51 102.28 112.39 98.4801L133.06 49.6701C133.83 49.6101 134.61 49.5801 135.4 49.5801C139.71 49.5801 143.81 50.5001 147.52 52.1401Z" fill="url(#paint0_linear_202_1473)"/>
<path d="M156.29 58.1101L134.61 109.3C132.23 109.25 129.92 108.92 127.71 108.32L150.78 53.8501C152.78 55.0501 154.64 56.4801 156.29 58.1101Z" fill="url(#paint1_linear_202_1473)"/>
<path opacity="0.34" d="M259.34 76.1C259.34 92.61 245.96 105.98 229.46 105.98C228.25 105.98 227.05 105.91 225.87 105.76C223.56 105.49 221.35 104.96 219.24 104.19C218.09 103.77 216.97 103.28 215.88 102.72C211.31 100.4 207.43 96.93 204.61 92.69C201.44 87.95 199.59 82.23 199.59 76.1C199.59 61.45 210.14 49.27 224.07 46.74C225.82 46.4 227.63 46.24 229.47 46.24C232.85 46.24 236.1 46.8 239.12 47.85C240.3 48.23 241.43 48.7 242.52 49.24C244.58 50.24 246.51 51.48 248.27 52.91C255.03 58.37 259.34 66.73 259.34 76.1Z" fill="white"/>
<path d="M239.12 47.84L215.89 102.71C211.32 100.39 207.44 96.92 204.62 92.68L224.08 46.73C225.83 46.39 227.64 46.23 229.48 46.23C232.85 46.23 236.1 46.79 239.12 47.84Z" fill="url(#paint2_linear_202_1473)"/>
<path d="M248.27 52.9L225.88 105.75C223.57 105.48 221.36 104.95 219.25 104.18L242.53 49.23C244.58 50.23 246.51 51.47 248.27 52.9Z" fill="url(#paint3_linear_202_1473)"/>
<path d="M135.39 109.32C151.887 109.32 165.26 95.9468 165.26 79.4501C165.26 62.9533 151.887 49.5801 135.39 49.5801C118.893 49.5801 105.52 62.9533 105.52 79.4501C105.52 95.9468 118.893 109.32 135.39 109.32Z" stroke="#2D1F04" stroke-width="8.0658" stroke-miterlimit="10" stroke-linecap="round" stroke-linejoin="round"/>
<path d="M229.46 105.97C245.957 105.97 259.33 92.5967 259.33 76.1C259.33 59.6032 245.957 46.23 229.46 46.23C212.963 46.23 199.59 59.6032 199.59 76.1C199.59 92.5967 212.963 105.97 229.46 105.97Z" stroke="#2D1F04" stroke-width="8.0658" stroke-miterlimit="10" stroke-linecap="round" stroke-linejoin="round"/>
<path d="M290.65 245.6L290.61 252.58" stroke="#9D7B51" stroke-width="4.1072" stroke-miterlimit="10" stroke-linecap="round" stroke-linejoin="round"/>
<path d="M298.83 248.1L298.78 255.08" stroke="#9D7B51" stroke-width="4.1072" stroke-miterlimit="10" stroke-linecap="round" stroke-linejoin="round"/>
<path d="M197.15 193.52C196.65 195.19 195.39 196.69 193.61 196.94C191.92 197.17 191.48 196.39 190.31 196.39C189.52 196.39 188.79 197.04 187.29 197.04C185.48 197.04 185.14 196.32 184.1 196.32C182.77 196.32 182.5 197.17 180.72 196.75C179.05 196.37 177.89 195.21 177.47 193.59C177.29 192.91 177.26 192.16 177.36 191.33C177.78 188.15 177.88 185.63 177.55 181.13C177.51 180.61 177.54 180.06 177.64 179.52V179.51C177.94 177.78 178.93 176.14 180.72 175.71C182.5 175.29 182.77 176.14 184.1 176.14C185.15 176.14 185.49 175.42 187.29 175.42C188.79 175.42 189.52 176.07 190.31 176.07C191.48 176.07 191.92 175.29 193.61 175.52C195.64 175.8 196.84 177.59 197.15 179.48C197.24 179.99 197.27 180.52 197.22 181.02C196.91 184.46 196.74 187.45 197.34 191.28C197.44 191.99 197.37 192.77 197.15 193.52Z" fill="#FF0F0F"/>
<path d="M235.58 215.87C220.1 214.18 204.26 207.35 197.15 193.51C197.37 192.76 197.44 191.98 197.34 191.27C196.75 187.45 196.91 184.45 197.22 181.01C197.27 180.51 197.24 179.98 197.15 179.47C205.67 174.76 216.98 161.66 232.6 158.25C243.61 175.41 242.12 196.38 235.58 215.87Z" fill="#FF0F0F"/>
<path d="M177.46 193.59C170.33 207.36 154.39 214.19 138.94 215.88C132.4 196.39 130.91 175.42 141.92 158.27C157.46 161.66 169.13 174.74 177.63 179.51V179.52C177.52 180.06 177.5 180.6 177.54 181.13C177.88 185.63 177.77 188.15 177.35 191.33C177.25 192.15 177.28 192.91 177.46 193.59Z" fill="#FF0F0F"/>
<path opacity="0.23" d="M184.42 179.98C181.86 182.95 181.41 189.85 184.39 192.48C183.95 187.27 185.48 183.89 184.42 179.98Z" fill="#3F2719"/>
<path opacity="0.23" d="M189.09 179.98C191.65 182.95 192.1 189.85 189.12 192.48C189.57 187.27 188.03 183.89 189.09 179.98Z" fill="#3F2719"/>
<path opacity="0.32" d="M177.57 186.49C176.94 183.74 174.12 182.03 169.88 179.2C165.64 176.37 158.79 169.08 151.72 165.66C144.65 162.24 139.26 164.23 137.23 167.44C138.38 164.65 140.38 161.07 141.84 158.27C148.74 159.94 156.09 163.67 162.23 168.39C168.37 173.11 174.9 177.83 176.63 179.11C177.45 180.47 177.69 183.07 177.57 186.49Z" fill="white"/>
<path opacity="0.32" d="M197.12 184.71C197.18 183.3 203.28 180.83 206.56 178.69C209.04 177.07 216.65 170.64 223.7 167.45C229.91 164.64 235.68 164.73 237.14 167.45C236.25 164.62 234.16 160.18 232.52 158.27C223.37 160.6 216.36 165.05 208.99 170.76C201.62 176.48 198.3 178.77 196.51 179.4C197.22 181.02 196.91 183.22 197.12 184.71Z" fill="white"/>
<path opacity="0.23" d="M219.34 179.18C220.03 180.39 219.6 181.4 217.62 181.57C215.64 181.74 213.3 182.25 211.12 183.74C208.14 185.77 205.84 186.74 203.21 186.77C205.54 187.74 208.69 189.01 211.1 190.58C214.03 192.48 214.81 195.02 216.83 195.82C218.81 196.61 221.01 195.47 222.01 197.7C222.7 199.25 220.04 201.79 216.19 199.84C212.34 197.89 210.24 195.16 208.08 193.68C205.92 192.2 200.63 189.6 197.9 189.08C195.17 188.57 195.3 185.31 197.3 185.22C199.31 185.13 202.82 184.54 205.24 183.43C208.02 182.16 210 180.53 212.63 179.19C215.26 177.85 218.31 177.37 219.34 179.18Z" fill="#3F2719"/>
<path opacity="0.23" d="M154 177.71C153.17 179.97 155.69 179.17 157.92 179.97C160.15 180.77 162.46 182.51 165.64 184.52C168.82 186.53 169.42 186.57 172.65 186.95C175.87 187.33 175.43 186.47 172.65 185.06C169.87 183.65 168.23 183.37 165.31 180.56C162.38 177.75 159.11 175.85 156.63 176.33C154.15 176.82 154 177.71 154 177.71Z" fill="#3F2719"/>
<path opacity="0.23" d="M150.72 193.17C147.84 191.39 150.01 187.12 153.06 188.18C156.11 189.25 160.13 189.32 164.15 188.58C168.17 187.84 171.66 186.57 177.65 186.8C177.57 188.19 178.24 189.18 174.06 189.44C169.88 189.7 163.88 193.43 160.29 193.99C156.71 194.54 153.21 194.71 150.72 193.17Z" fill="#3F2719"/>
<path opacity="0.23" d="M235.47 216.24C220.01 214.54 204.22 207.71 197.12 193.89C197.34 193.14 197.41 192.36 197.31 191.65C197.25 191.31 197.22 190.99 197.17 190.66C202.63 195.43 209.19 200.09 217.22 204.02C226.55 208.59 233.3 210.27 235.67 204.02C238.04 197.8 239.85 193.31 240.47 184.35C241.06 194.86 238.99 205.76 235.47 216.24Z" fill="#3F2719"/>
<path opacity="0.23" d="M177.38 194.05C170.22 207.76 154.32 214.55 138.91 216.25V216.24C136.25 208.32 134.42 200.16 133.94 192.11C135.9 199.26 140.08 204.47 142.2 206.51C144.68 208.89 155.79 205.26 162.44 200.68C168 196.84 172.07 193.43 176 189.69C176.52 189.2 177.04 188.7 177.56 188.19C177.5 189.37 177.4 190.49 177.23 191.7C177.13 192.56 177.19 193.35 177.38 194.05Z" fill="#3F2719"/>
<path d="M197.14 181.02C196.83 184.46 196.66 187.46 197.25 191.29C197.61 193.59 196.1 196.59 193.52 196.94C191.83 197.17 191.39 196.39 190.22 196.39C189.43 196.39 188.7 197.04 187.2 197.04C185.39 197.04 185.05 196.32 184.01 196.32C182.68 196.32 182.41 197.17 180.63 196.75C178.28 196.2 176.9 194.14 177.27 191.33C177.69 188.16 177.79 185.64 177.46 181.14C177.3 178.97 178.28 176.28 180.63 175.72C182.41 175.3 182.68 176.15 184.01 176.15C185.06 176.15 185.4 175.43 187.2 175.43C188.7 175.43 189.43 176.08 190.22 176.08C191.39 176.08 191.83 175.3 193.52 175.53C196.1 175.87 197.35 178.7 197.14 181.02Z" stroke="#2D1F04" stroke-width="2.7806" stroke-miterlimit="10" stroke-linecap="round" stroke-linejoin="round"/>
<path d="M197.07 179.49C205.58 174.77 216.89 161.67 232.52 158.27C243.53 175.42 242.04 196.39 235.5 215.89C220.02 214.2 204.19 207.37 197.07 193.53" stroke="#2D1F04" stroke-width="2.7806" stroke-miterlimit="10" stroke-linecap="round" stroke-linejoin="round"/>
<path d="M177.3 179.49C168.79 174.77 157.48 161.67 141.85 158.27C130.84 175.42 132.33 196.39 138.87 215.89C154.35 214.2 170.18 207.37 177.3 193.53" stroke="#2D1F04" stroke-width="2.7806" stroke-miterlimit="10" stroke-linecap="round" stroke-linejoin="round"/>
<path d="M196.95 185.22C201.44 185.4 206 183.61 210.74 180.21C215.49 176.81 218.92 177.68 219.55 179.63" stroke="#2D1F04" stroke-width="2.7806" stroke-miterlimit="10" stroke-linecap="round" stroke-linejoin="round"/>
<path d="M197.07 189.09C201.74 189.39 207.26 192.39 211.06 196.33C216.52 201.98 221.77 200.7 221.77 198.02" stroke="#2D1F04" stroke-width="2.7806" stroke-miterlimit="10" stroke-linecap="round" stroke-linejoin="round"/>
<path d="M177.21 189.38C172.74 188.9 169 190.84 161.76 193.51C156.29 195.53 150.65 194.32 150.15 192.33" stroke="#2D1F04" stroke-width="2.7806" stroke-miterlimit="10" stroke-linecap="round" stroke-linejoin="round"/>
<path d="M177.3 185.91C172.63 185.61 168.4 184.32 164.95 180.8C159.45 175.19 154.01 175.54 154.01 178.22" stroke="#2D1F04" stroke-width="2.7806" stroke-miterlimit="10" stroke-linecap="round" stroke-linejoin="round"/>
<path d="M222.97 254.72C207.61 266.38 172.16 293.28 161.42 301.38C158.06 303.91 153.76 303.54 148.66 302.32C148.71 302.32 148.76 302.33 148.81 302.34C155.17 303.66 161.2 298.89 161.38 292.35C161.38 292.3 161.39 292.26 161.38 292.21C161.39 292.1 161.4 292 161.4 291.9L162.82 238.99L221.28 247.58C224.71 248.23 225.74 252.62 222.97 254.72Z" fill="#D2D2D2"/>
<path d="M157.81 281.37L148.9 279.76L154.73 275.33L163.63 276.94L157.81 281.37Z" fill="#222222"/>
<path d="M156.65 263.42L166.21 265.14L161.03 269.08L151.48 267.35L156.65 263.42Z" fill="#222222"/>
<path d="M158.1 282.6L166.25 284.09L153.22 294.06L145.27 292.35L158.1 282.6Z" fill="#222222"/>
<path d="M164.89 275.98L155.99 274.37L161.33 270.32L170.23 271.93L164.89 275.98Z" fill="#222222"/>
<path d="M167.47 264.19L157.91 262.46L163.45 258.25L173.01 259.98L167.47 264.19Z" fill="#222222"/>
<path d="M165.18 277.22L173.29 278.69L167.5 283.12L159.36 281.65L165.18 277.22Z" fill="#222222"/>
<path d="M171.49 270.97L162.59 269.36L167.76 265.42L176.67 267.03L171.49 270.97Z" fill="#222222"/>
<path d="M164.71 257.3L169.44 253.7L178.96 255.46L174.27 259.02L164.71 257.3Z" fill="#222222"/>
<path d="M153.92 255.24L158.65 251.63L168.17 253.39L163.48 256.96L153.92 255.24Z" fill="#222222"/>
<path d="M171.78 272.21L179.84 273.66L174.53 277.72L166.44 276.26L171.78 272.21Z" fill="#222222"/>
<path d="M177.93 266.08L169.02 264.47L174.56 260.26L183.46 261.87L177.93 266.08Z" fill="#222222"/>
<path d="M178.22 267.31L186.24 268.76L181.09 272.71L173.04 271.25L178.22 267.31Z" fill="#222222"/>
<path d="M175.82 259.3L180.51 255.74L189.39 257.37L184.72 260.91L175.82 259.3Z" fill="#222222"/>
<path d="M185.01 262.15L192.99 263.58L187.48 267.8L179.48 266.35L185.01 262.15Z" fill="#222222"/>
<path d="M198.83 259.1L194.23 262.62L186.27 261.19L190.92 257.65L198.83 259.1Z" fill="#222222"/>
<path d="M180.81 241.63L168.11 250.34L162.55 249.25L162.83 238.99L180.81 241.63Z" fill="#9B9B9B"/>
<path d="M9.69001 166.11L155.87 184.63C160.38 185.2 164.04 189.36 164.03 193.91L161.37 292.36C161.19 298.94 155.07 303.73 148.64 302.32L17.29 273.58C12.77 272.59 9.43001 268.76 9.08001 264.14L2.06001 173.3C1.76001 168.76 5.18001 165.54 9.69001 166.11Z" fill="#D2D2D2"/>
<path d="M162.82 239L161.4 291.91C161.4 292.01 161.39 292.12 161.38 292.22L162.82 239Z" stroke="#2D1F04" stroke-width="2.8223" stroke-miterlimit="10" stroke-linecap="round" stroke-linejoin="round"/>
<path opacity="0.23" d="M161.43 290.53C161.43 300.15 153.99 303.57 148.65 302.39L17.29 273.65C12.77 272.66 9.42999 268.82 9.06999 264.21L2.04999 173.37C1.81999 169.85 3.85999 164.15 14.24 166.7C6.88999 167.82 7.31999 174.27 7.31999 174.27L13.84 258.53C14.19 263.15 17.54 266.98 22.05 267.97L153.41 296.72C156.06 297.28 159.62 295.59 161.43 290.53Z" fill="#3F2719"/>
<path opacity="0.23" d="M222.97 254.5C207.61 266.16 172.16 293.06 161.42 301.16C158.06 303.69 153.76 303.32 148.66 302.1C148.71 302.1 148.77 302.11 148.81 302.12C154.17 303.23 159.3 300.02 160.88 295.07L218.56 251.57C219.71 250.64 220.32 247.21 218.04 246.88L221.29 247.36C224.71 248 225.74 252.4 222.97 254.5Z" fill="#3F2719"/>
<path opacity="0.32" d="M164.03 193.92L161.37 292.36C161.24 297.12 157.95 198.59 157.95 198.59C157.96 194.04 154.3 189.89 149.79 189.32C149.79 189.32 6.07999 165.66 9.67999 166.11L155.87 184.63C160.39 185.21 164.04 189.36 164.03 193.92Z" fill="white"/>
<path d="M9.69 166.11L155.87 184.63C160.38 185.2 164.04 189.36 164.03 193.91L161.39 291.91C161.21 298.72 154.87 303.69 148.21 302.23L17.56 273.64C12.88 272.62 9.42 268.64 9.05 263.86L2.05 173.3C1.76 168.76 5.18 165.54 9.69 166.11Z" stroke="#2D1F04" stroke-width="2.8223" stroke-miterlimit="10" stroke-linecap="round" stroke-linejoin="round"/>
<path d="M162.44 294.07L218.55 251.79" stroke="#2D1F04" stroke-width="2.37" stroke-miterlimit="10" stroke-linecap="round" stroke-linejoin="round"/>
<path d="M148.65 302.33C153.75 303.54 158.06 303.92 161.42 301.38C172.15 293.28 207.6 266.38 222.96 254.72C225.73 252.61 224.69 248.22 221.27 247.58L162.81 238.99" stroke="#2D1F04" stroke-width="2.37" stroke-miterlimit="10" stroke-linecap="round" stroke-linejoin="round"/>
<path d="M180.82 241.64L168.1 250.34L162.54 249.26" stroke="#2D1F04" stroke-width="2.37" stroke-miterlimit="10" stroke-linecap="round" stroke-linejoin="round"/>
<path d="M60.25 215.09C64.05 215.78 67.75 216.37 71.48 217.15C74.53 217.79 75.81 220.41 76.11 222.82C76.53 226.13 75.4 228.22 72.94 229.03C72.81 229.07 72.67 229.09 72.41 229.15C75.57 231.65 76.22 235.83 78.25 239.52C76.1 239.19 74.19 238.9 72.17 238.6C71.05 236.23 69.96 233.8 68.87 231.38C68.27 230.05 67.54 229.02 66.1 229.17C66.22 231.98 66.37 234.85 66.6 237.81C64.77 237.53 63.13 237.28 61.4 237.02C60.83 229.75 60.68 222.59 60.25 215.09ZM65.77 220.48C65.84 221.95 65.89 223.3 65.96 224.94C67.11 225.03 68.24 225.21 69.35 225.19C70.32 225.18 70.81 224.45 70.79 223.39C70.77 222.27 70.17 221.31 69.11 221.01C68.02 220.71 66.93 220.65 65.77 220.48Z" fill="black"/>
<path d="M92.46 226.17C90.77 226.05 89.21 225.94 87.55 225.83C87.22 223.96 86.31 222.85 84.86 222.59C83.92 222.42 83.16 222.65 82.9 223.87C82.99 224.94 83.59 225.38 84.28 225.71C85.55 226.31 86.82 226.86 88.07 227.49C88.76 227.84 89.45 228.26 90.11 228.73C94.3 231.7 94.1 237.83 91.35 240.09C90.44 240.84 89.24 241.24 88.08 241.33C86.19 241.46 84.21 241.08 82.25 240.14C79.67 238.91 77.87 235.98 77.67 232.42C79.26 232.55 80.86 232.69 82.53 232.83C82.65 233.27 82.75 233.68 82.88 234.08C83.57 236.23 85.35 237.46 86.94 236.91C87.65 236.66 88.13 236.09 88.12 235.1C88.11 234.18 87.65 233.43 86.98 232.98C86.4 232.59 85.8 232.3 85.2 231.98C83.96 231.32 82.68 230.77 81.48 229.98C79.15 228.46 77.93 226.2 77.93 223.77C77.94 221.06 79.28 219.08 81.64 218.64C83.87 218.22 86.17 218.54 88.49 219.74C90.9 220.97 92.12 222.91 92.46 226.17Z" fill="black"/>
<path d="M245.12 231.08C240.42 228.44 235.39 226.34 230.11 225.11C211.35 220.73 195.19 223.61 181.99 232.93C180.58 233.92 179.22 234.97 177.88 236.08C176.26 237.42 174.69 238.85 173.16 240.38L173.15 240.39C172.05 241.49 170.98 242.63 169.94 243.83C168.33 245.65 166.8 247.58 165.32 249.66C164.68 250.55 164.06 251.46 163.45 252.39C163.19 252.79 162.94 253.18 162.68 253.58L162.6 256.67L162.59 256.97L162.57 257.91L162.55 259.05L162.46 262.27L162.44 263.14L162.42 263.99L162.41 264.32L162.31 268.24V268.25L162.29 269.12L162.28 269.61L162.27 270.34L162.13 275.34V275.47C171.76 270.03 178.81 264.08 182.89 258.93C187.38 253.26 195.82 245.87 210.69 245.9L219.15 247.14L221.56 247.49C221.76 247.52 221.94 247.57 222.12 247.64C222.29 247.7 222.47 247.77 222.63 247.85C224.01 248.53 224.79 249.91 224.83 251.32C224.88 252.53 224.38 253.77 223.24 254.63C222.81 254.96 222.35 255.29 221.9 255.64C222.38 256.83 222.91 258.15 223.51 259.57C225.52 264.33 228.27 270.26 231.73 276.29C242.75 264.42 247.99 247.14 245.12 231.08Z" fill="#CAA77A"/>
<path d="M174.28 239.12C172.51 240.61 170.11 243.62 169.93 243.83C168.32 245.65 166.79 247.58 165.31 249.66C164.67 250.55 164.05 251.46 163.44 252.39C163.18 252.79 162.93 253.18 162.67 253.58L162.59 256.67L162.58 256.97L162.56 257.91L162.54 259.05L162.45 262.27L162.43 263.14L162.41 263.99L162.4 264.32L162.3 268.24V268.25L162.28 269.12L162.27 269.61L162.26 270.34L162.12 275.34V275.47C171.75 270.03 178.8 264.08 182.88 258.93C183.35 258.34 185.93 255.11 188.23 253.31C185.06 247.6 179.95 242.67 174.28 239.12Z" fill="#B6B1AE"/>
<path d="M174.28 239.42C178.65 241.87 185.27 247.59 188.21 253.31" stroke="#2D1F04" stroke-width="2.7806" stroke-miterlimit="10" stroke-linecap="round" stroke-linejoin="round"/>
<path d="M179.48 243.08C174.28 248.75 165.98 259.3 162.29 268.23" stroke="#2D1F04" stroke-width="2.7806" stroke-miterlimit="10" stroke-linecap="round" stroke-linejoin="round"/>
<path d="M148.65 302.33C153.75 303.54 158.06 303.92 161.42 301.38C172.15 293.28 207.6 266.38 222.96 254.72C225.73 252.61 224.69 248.22 221.27 247.58L210.44 245.99" stroke="#2D1F04" stroke-width="2.7806" stroke-miterlimit="10" stroke-linecap="round" stroke-linejoin="round"/>
<path d="M161.83 275.57C171.47 270.11 178.52 264.17 182.6 259.02C187.09 253.35 195.78 245.88 210.66 245.9" stroke="#2D1F04" stroke-width="2.7806" stroke-miterlimit="10" stroke-linecap="round" stroke-linejoin="round"/>
<path d="M162.43 253.66C167.99 244.88 174.39 238.2 181.73 233.02C194.93 223.69 211.09 220.82 229.85 225.2C251.53 230.27 269.24 249.89 275.38 261.87" stroke="#2D1F04" stroke-width="2.7806" stroke-miterlimit="10" stroke-linecap="round" stroke-linejoin="round"/>
<path d="M264.84 165.19C271.13 157.04 296.45 140.3 321.1 160.45C332.86 170.05 338.52 187.74 335.84 205.69C333.16 223.64 332.14 229.77 330.66 237.59C329.84 241.91 326.46 249.72 321.42 244.89C316.45 266.55 304.15 306.64 272.4 307.63C244.63 308.5 228.1 271.25 221.97 255.87" stroke="#2D1F04" stroke-width="2.7806" stroke-miterlimit="10" stroke-linecap="round" stroke-linejoin="round"/>
<path d="M259.08 230.13C258.6 231.24 256.5 236.2 256.5 239.27" stroke="#2D1F04" stroke-width="2.7806" stroke-miterlimit="10" stroke-linecap="round" stroke-linejoin="round"/>
<path opacity="0.23" d="M316.73 262.18C316.04 274.98 314.04 288.16 308.78 303.13H288.62C303.32 294.95 311.71 277.63 316.73 262.18Z" fill="#3F2719"/>
<path opacity="0.23" d="M223.49 259.58C226.59 276.42 228.72 284.06 233.19 291.95C236.31 297.46 237.5 301.95 231.85 303.28C238.23 303.28 247.96 303.28 255.63 303.28C243.95 297.05 231.63 281.42 223.49 259.58Z" fill="#3F2719"/>
<path opacity="0.23" d="M243.76 197.94C242.27 211.14 237.38 222.07 234.08 225.42C213.84 220.63 203.99 211.13 196.51 198.63C192.05 203.11 180.97 202.2 177.65 198.63C176.55 202.24 171.68 209.94 163.51 215.14L163.54 208.77V208.76C169.29 205.26 174.14 200.57 177.28 194.53C177.26 194.45 177.23 194.38 177.22 194.3C177.26 194.25 177.28 194.21 177.3 194.15C177.73 195.74 178.9 196.84 180.53 197.23C180.65 197.25 180.75 197.28 180.86 197.29C180.94 197.31 181.01 197.33 181.08 197.33C181.36 197.37 181.58 197.35 181.79 197.33C182.5 197.26 182.91 196.92 183.61 196.83C183.7 196.81 183.81 196.81 183.91 196.81C183.92 196.81 183.92 196.81 183.93 196.81C184.05 196.81 184.15 196.82 184.26 196.83C184.75 196.91 185.11 197.16 185.68 197.33C185.73 197.33 185.77 197.34 185.82 197.35C185.92 197.37 186.03 197.4 186.16 197.43C186.29 197.45 186.42 197.48 186.57 197.49C186.73 197.51 186.91 197.52 187.11 197.52C187.3 197.52 187.47 197.51 187.63 197.5C188.67 197.41 189.3 197.01 189.9 196.89C189.97 196.88 190.05 196.87 190.12 196.87C190.25 196.87 190.36 196.88 190.48 196.89C190.57 196.9 190.65 196.92 190.74 196.94C191.22 197.07 191.61 197.29 192.17 197.39C192.26 197.41 192.36 197.43 192.46 197.44C192.65 197.46 192.86 197.46 193.1 197.45C193.16 197.44 193.23 197.44 193.3 197.44C193.36 197.44 193.42 197.43 193.49 197.42C195.24 197.18 196.49 195.72 197 194.09C197.02 194.13 197.04 194.16 197.06 194.2C197.05 194.26 197.04 194.33 197.01 194.39C204.11 208.2 219.9 215.03 235.36 216.74C235.59 216.04 235.83 215.34 236.04 214.63C236.24 214.05 236.41 213.45 236.59 212.87C236.9 211.82 237.2 210.77 237.48 209.72C237.64 209.13 237.79 208.53 237.93 207.95C238.07 207.39 238.2 206.84 238.33 206.28C238.44 205.81 238.54 205.35 238.63 204.88C238.75 204.41 238.84 203.95 238.92 203.48C239.06 202.83 239.18 202.17 239.29 201.52C239.42 200.87 239.52 200.23 239.62 199.57C239.72 198.92 239.82 198.26 239.9 197.61C239.99 196.96 240.07 196.3 240.13 195.65C240.21 195 240.27 194.36 240.32 193.7C240.37 193.21 240.4 192.72 240.42 192.23C240.44 191.88 240.47 191.53 240.48 191.18C240.5 190.73 240.53 190.27 240.54 189.8C240.56 188.86 240.57 187.9 240.55 186.96C240.56 186.62 240.55 186.28 240.54 185.96C240.52 185.11 240.47 184.26 240.41 183.41C240.37 182.85 240.33 182.29 240.27 181.73C240.21 181.19 240.15 180.66 240.08 180.13C240.04 179.76 239.99 179.38 239.93 179.02C239.86 178.51 239.78 178.01 239.7 177.49C239.62 177.02 239.54 176.55 239.43 176.08C240.65 175.73 241.55 175.42 242.09 175.15C244.09 182.71 244.73 189.29 243.76 197.94Z" fill="#3F2719"/>
<path opacity="0.23" d="M302.29 151.44C294.71 150.1 287.58 151.35 281.54 153.68C281.38 126.13 277.94 99.78 267.19 79.93C254.21 55.97 234.1 37.74 205.69 33.4C204.24 33.18 201.09 31.87 201.98 29.49C198.46 29.49 198.12 32.58 196.5 32.51C195.39 32.46 191.02 30.29 194.29 23.69C184.57 26.02 186.45 32.48 183.32 32.67C182.04 32.75 181.4 26.66 173.77 25.91C176.41 28.51 177.07 33.2 175.88 33.35C174.31 33.54 172.77 30.04 168.6 30.49C170.31 32.39 167.53 34.7 165.74 35.1C147.36 39.27 134.97 47.88 125.78 58.1C127.11 55.36 128.66 52.67 130.44 50.01C133.95 44.92 137.2 39.36 142.48 35.85C139.39 35.49 136.48 35.96 133 37.54C136.17 31.93 138.7 30.7 142.72 29.71C142.83 29.1 135.33 26.43 129.22 28.73C134.73 19.79 149.58 21 149.58 18.91C149.58 16.44 142.87 15.61 137.56 16.46C145.59 9.91 156.9 9.96 166.01 13.76C162.2 9.72 162.3 4.4 164.79 1.5C171.04 7.63 181.86 11.85 195.22 12.05C192.42 11.2 191.23 8.68 192.38 6.29C195.4 9.02 206.46 12.19 218.34 16.16C281.11 37.14 302.32 101.79 302.32 145.36C302.3 147.55 302.26 149.33 302.29 151.44Z" fill="#3F2719"/>
<path opacity="0.23" d="M255.2 181.81C256.56 188.72 254.97 203.6 252.89 209.65C250.81 215.7 247.71 225.03 240.58 228.75C242.56 229.71 251.9 235.11 256.52 239.27C256.79 237.01 257.98 233.29 258.84 230.75C256.77 229.25 254.75 227.6 255.21 224.66C255.67 221.71 257.73 219.97 258.19 217.86C258.65 215.76 259.63 209.56 260.13 205.04C260.63 200.52 259.64 189.88 255.2 181.81Z" fill="#3F2719"/>
<path opacity="0.23" d="M335.74 206.16C333.06 224.11 332.04 230.24 330.56 238.07C329.73 242.38 326.35 250.19 321.32 245.37C316.46 243.09 311.74 241.21 307.23 239.66C307.19 239.64 307.15 239.61 307.11 239.6C310.04 239.48 312.29 236.97 313.1 234.81C313.93 232.65 314.44 228.04 313.18 226.7C314.3 223.73 316.28 217.7 318.66 204.6C321.04 191.51 319.83 172.19 312.76 162.94C305.36 153.25 292.08 150.02 280.56 154.07C286.76 151.59 294.21 150.29 302.15 151.8C308.26 152.95 314.66 155.75 321 160.94C332.75 170.52 338.42 188.21 335.74 206.16Z" fill="#3F2719"/>
<path opacity="0.23" d="M321.32 245.36C321.33 245.37 321.34 245.38 321.35 245.38C317.39 262.47 308.92 290.47 290.24 302.2C285.12 305.42 279.22 307.41 272.45 307.62C265.65 307.83 259.5 305.75 254.01 302.26C237.06 291.5 226.3 267.35 221.67 255.74C222.12 255.39 222.57 255.05 223 254.73C223.14 254.63 223.27 254.52 223.38 254.4C223.5 254.3 223.61 254.17 223.71 254.05C224.34 253.27 224.62 252.34 224.6 251.42C224.64 250.15 224.06 248.88 223 248.09C222.99 248.08 222.96 248.07 222.94 248.04C222.49 247.71 221.94 247.48 221.32 247.36L218.07 246.88C218.29 246.92 218.49 246.97 218.65 247.07C218.74 247.12 218.82 247.17 218.91 247.23L210.45 245.99L209.9 245.91C195.49 246.13 187.26 253.37 182.86 258.93C178.78 264.08 171.73 270.03 162.1 275.47V275.34L162.24 270.34L162.25 269.61L162.26 269.12L162.28 268.25V268.24C172.7 262.26 181.61 251.28 188.66 245.7C189.15 245.32 189.63 244.99 190.11 244.67C197.71 239.6 213.97 231.42 225.91 239.12C233.04 243.74 227.6 257.72 240.69 277.67C252.69 295.96 270.51 300.46 280.37 294.07C290.62 287.43 303.1 269.08 308.42 240.06C313.13 241.66 316.22 242.97 321.32 245.36Z" fill="#3F2719"/>
</g>
<defs>
<linearGradient id="paint0_linear_202_1473" x1="122.473" y1="73.9982" x2="135.172" y2="79.3555" gradientUnits="userSpaceOnUse">
<stop stop-color="white" stop-opacity="0.2"/>
<stop offset="1" stop-color="white" stop-opacity="0"/>
</linearGradient>
<linearGradient id="paint1_linear_202_1473" x1="139.282" y1="81.0978" x2="145.136" y2="83.578" gradientUnits="userSpaceOnUse">
<stop offset="0.00558659" stop-color="white" stop-opacity="0"/>
<stop offset="1" stop-color="white" stop-opacity="0.2"/>
</linearGradient>
<linearGradient id="paint2_linear_202_1473" x1="214.104" y1="69.6249" x2="226.803" y2="74.9823" gradientUnits="userSpaceOnUse">
<stop stop-color="white" stop-opacity="0.2"/>
<stop offset="1" stop-color="white" stop-opacity="0"/>
</linearGradient>
<linearGradient id="paint3_linear_202_1473" x1="230.921" y1="76.7217" x2="236.756" y2="79.194" gradientUnits="userSpaceOnUse">
<stop stop-color="white" stop-opacity="0"/>
<stop offset="1" stop-color="white" stop-opacity="0.2"/>
</linearGradient>
<clipPath id="clip0_202_1473">
<rect width="338" height="310" fill="white"/>
</clipPath>
</defs>
</svg>
