<svg width="288" height="345" viewBox="0 0 288 345" fill="none" xmlns="http://www.w3.org/2000/svg">
<g clip-path="url(#clip0_202_627)">
<path d="M217.67 120.23L212.87 112.32L208.08 115.93C208.83 106.2 206.56 101.72 200.2 87.6899C191.74 68.9999 169.55 47.8199 145.11 45.3599L146.11 35.4099C174.57 38.2799 199.45 61.7999 209.31 83.5599C215.37 96.9199 218.68 107.21 217.67 120.23Z" fill="#FFDB1F"/>
<path opacity="0.23" d="M217.67 120.22L212.87 112.31L208.46 114.65C209.22 104.92 206.56 101.71 200.2 87.6799C191.74 68.9899 169.55 47.8099 145.11 45.3499L146.12 35.3999C146.98 35.4899 147.84 35.5899 148.69 35.7199L148.09 41.6399C172.53 44.0999 193.98 65.5299 203.53 83.6899C208.64 93.4099 211.44 102.34 211.44 110.94L215.84 108.61L217.7 111.68C217.91 114.43 217.9 117.25 217.67 120.22Z" fill="#3F2719"/>
<path d="M217.67 120.23L212.87 112.32L208.46 114.65C209.21 104.92 206.55 101.71 200.2 87.6799C191.74 68.9899 169.55 47.8099 145.11 45.3499L146.11 35.3999C174.57 38.2699 199.45 61.7899 209.31 83.5499C215.37 96.9199 218.68 107.21 217.67 120.23Z" stroke="#2D1F04" stroke-width="2.7806" stroke-miterlimit="10" stroke-linecap="round" stroke-linejoin="round"/>
<path d="M250.29 132.91C231.97 119.92 225.86 109.05 218.78 96.45C215.83 91.21 212.78 85.79 208.55 79.74C194.34 59.42 169.43 44.92 147.98 44.48L148.19 34.48C173.02 34.99 200.57 50.87 216.75 74C221.26 80.45 224.58 86.35 227.5 91.54C234.25 103.56 239.59 113.05 256.08 124.74L247.26 124.99L250.29 132.91Z" fill="#FFDB1F"/>
<path opacity="0.23" d="M247.25 125L250.29 132.9C231.97 119.91 225.85 109.04 218.78 96.45C215.83 91.2 212.78 85.78 208.55 79.73C194.34 59.42 169.43 44.92 147.98 44.48L148.19 34.48C149.15 34.5 150.11 34.54 151.08 34.61L150.96 40.78C172.41 41.22 197.31 55.71 211.52 76.03C215.76 82.08 218.8 87.5 221.75 92.74C228.05 103.96 233.59 113.8 247.65 124.99L247.25 125Z" fill="#3F2719"/>
<path d="M250.29 132.91C231.97 119.92 225.86 109.05 218.78 96.45C215.83 91.21 212.78 85.79 208.55 79.74C194.34 59.42 169.43 44.92 147.98 44.48L148.19 34.48C173.02 34.99 200.57 50.87 216.75 74C221.26 80.45 224.58 86.35 227.5 91.54C234.25 103.56 239.59 113.05 256.08 124.74L247.26 124.99L250.29 132.91Z" stroke="#2D1F04" stroke-width="2.7806" stroke-miterlimit="10" stroke-linecap="round" stroke-linejoin="round"/>
<path d="M275.442 70.607L263.484 60.3728L215.701 116.203L227.659 126.437L275.442 70.607Z" fill="#2D1F04"/>
<path d="M260.9 75.42L258.35 68.76L265.34 70.27L267.92 76.95L260.9 75.42Z" fill="#D2D2D2"/>
<path d="M255.37 81.8802L252.82 75.2202L259.82 76.7302L262.39 83.4102L255.37 81.8802Z" fill="#D2D2D2"/>
<path d="M249.84 88.3402L247.29 81.6802L254.29 83.1902L256.86 89.8702L249.84 88.3402Z" fill="#D2D2D2"/>
<path d="M244.31 94.8001L241.76 88.1401L248.76 89.6501L251.33 96.3301L244.31 94.8001Z" fill="#D2D2D2"/>
<path d="M238.78 101.26L236.23 94.6001L243.23 96.1101L245.8 102.79L238.78 101.26Z" fill="#D2D2D2"/>
<path d="M233.25 107.72L230.7 101.06L237.7 102.57L240.27 109.25L233.25 107.72Z" fill="#D2D2D2"/>
<path d="M227.72 114.19L225.17 107.52L232.17 109.03L234.74 115.71L227.72 114.19Z" fill="#D2D2D2"/>
<path d="M221.64 121.29L218.45 112.96L227.19 114.85L230.4 123.2L221.64 121.29Z" fill="#D2D2D2"/>
<path d="M275.442 70.607L263.484 60.3728L215.701 116.203L227.659 126.437L275.442 70.607Z" stroke="#2D1F04" stroke-width="2.7806" stroke-miterlimit="10" stroke-linecap="round" stroke-linejoin="round"/>
<path d="M278.16 69.0102L273.64 74.2902C273.16 74.8602 270.96 73.5802 268.46 71.6802C267.62 71.0502 266.75 70.3402 265.9 69.6202C264.49 68.4102 263.14 67.1502 262.09 66.0102C260.61 64.4302 259.72 63.1402 260.1 62.7002L264.62 57.4202C264.94 57.0502 266.32 57.7702 268.09 59.0102C269.35 59.9002 270.81 61.0402 272.22 62.2502C273.07 62.9802 273.9 63.7302 274.67 64.4502C276.93 66.6002 278.57 68.5302 278.16 69.0102Z" fill="#D2D2D2"/>
<path opacity="0.57" d="M272.21 62.25L265.9 69.62C264.49 68.41 263.14 67.15 262.09 66.01L268.08 59.01C269.34 59.89 270.8 61.04 272.21 62.25Z" fill="white"/>
<path opacity="0.23" d="M278.16 69.0102L273.64 74.2902C273.16 74.8602 270.96 73.5802 268.46 71.6802L274.65 64.4502C276.93 66.6002 278.57 68.5302 278.16 69.0102Z" fill="#3F2719"/>
<path d="M278.16 69.0101L273.64 74.2901C272.35 75.8001 258.8 64.2001 260.09 62.7001L264.61 57.4201C265.71 56.1301 279.26 67.7201 278.16 69.0101Z" stroke="#2D1F04" stroke-width="2.7806" stroke-miterlimit="10" stroke-linecap="round" stroke-linejoin="round"/>
<path d="M59.95 300.34C56.03 302.46 36.86 295.98 40.49 293.4C110.13 243.88 214.53 115.92 214.53 115.92L228.08 127.51C228.08 127.52 123.57 265.88 59.95 300.34Z" fill="#3F2719"/>
<path opacity="0.32" d="M228.08 127.52C228.08 127.52 227.42 128.35 226.15 129.91L215.73 121C215.73 121 113.44 247.79 43.81 297.36C41.13 296.12 39.21 294.31 40.49 293.4C110.13 243.88 214.54 115.93 214.54 115.93L228.08 127.52Z" fill="white"/>
<path d="M59.95 300.34C56.03 302.46 36.86 295.98 40.49 293.4C110.13 243.88 214.53 115.92 214.53 115.92L228.08 127.51C228.08 127.52 123.57 265.88 59.95 300.34Z" stroke="#2D1F04" stroke-width="2.7806" stroke-miterlimit="10" stroke-linecap="round" stroke-linejoin="round"/>
<path d="M237.22 139.06C232.79 135.27 224.02 132.02 217.37 126.33C210.8 120.7 206.34 112.63 201.96 108.88C197.34 104.92 201.9 99.59 206.52 103.55C210.9 107.3 219.51 110.52 226.08 116.15C232.73 121.84 237.35 129.94 241.78 133.73C246.09 137.42 241.53 142.75 237.22 139.06Z" fill="#D2D2D2"/>
<path opacity="0.57" d="M223.48 119.18C216.91 113.56 200.64 103.11 201.57 102.58C202.82 101.87 204.66 101.96 206.51 103.54C210.89 107.29 219.51 110.52 226.08 116.14C232.73 121.83 237.34 129.93 241.78 133.72C243.28 135.01 243.7 136.49 243.43 137.73C243.16 138.98 230.13 124.87 223.48 119.18Z" fill="white"/>
<path opacity="0.23" d="M237.22 139.06C232.78 135.26 224.01 132.02 217.37 126.33C210.8 120.71 206.34 112.63 201.96 108.87C198.94 106.29 199.84 103.12 202.13 102.34C201.9 103.59 202.4 105.13 204 106.49C208.38 110.24 212.84 118.32 219.41 123.95C226.06 129.64 234.83 132.88 239.26 136.68C240.75 137.95 242.27 138.15 243.44 137.7C242.95 140.03 240.03 141.46 237.22 139.06Z" fill="#3F2719"/>
<path d="M237.22 139.06C232.79 135.27 224.02 132.02 217.37 126.33C210.8 120.7 206.34 112.63 201.96 108.88C197.34 104.92 201.9 99.59 206.52 103.55C210.9 107.3 219.51 110.52 226.08 116.15C232.73 121.84 237.35 129.94 241.78 133.73C246.09 137.42 241.53 142.75 237.22 139.06Z" stroke="#2D1F04" stroke-width="2.7806" stroke-miterlimit="10" stroke-linecap="round" stroke-linejoin="round"/>
<path d="M257.05 178.96C259.13 177.04 254.63 172.95 253.18 171.03C233.22 144.56 220.05 135.64 204.81 136.57C205.21 92 189.07 48.21 144.79 27.54C137.62 24.07 130.03 22.14 122.41 19.37C120.99 18.85 118 18.08 116.94 16.52C115.76 14.79 116.56 12.29 116.49 12.3C110.04 13.39 112.93 19.16 112.93 19.16C112.93 19.16 111.66 19.08 111.04 18.95C108.34 18.35 105.57 16.01 105.77 11.95C106.02 6.55996 111.84 4.35996 110.97 3.91996C110.74 3.80996 100.54 -0.900041 92.69 5.28996C88.39 8.68996 86.34 13.35 87.81 19.51C78.15 17.74 79.62 9.35996 79.47 9.38996C70.87 10.92 67.68 21.01 73.78 25.05C73.78 26.08 69.61 25.86 66.79 23.86C64.7 22.38 63.79 19.03 63.55 19.18C55.47 24.2 59.21 32.88 66.42 33.68C66.95 33.74 68.06 33.8 67.89 34.31C67.83 34.49 66.23 35.64 63.51 35.69C60.77 35.73 59.67 34.35 59.55 34.71C58.34 38.41 64.43 41.64 66.78 40.47C61.95 43.69 58.68 47.51 55.55 52.93C41.77 76.83 49.22 103.69 60.52 126.29C61.52 128.28 62.94 130.57 63.26 132.82C63.42 133.93 62.77 135.83 63.26 136.82C63.47 137.24 64.46 135.72 64.52 136.19C64.74 137.98 64.6 140.01 64.4 141.85C53.92 145.73 42.55 156.01 28.41 174.75C26.95 176.68 22.45 180.78 24.55 182.69C10.23 200.66 1.38 233.57 2.12 241.18C2.97 249.86 9.85 256.82 28.91 264.85C47.14 272.54 61.02 274.82 72.28 275.53C76.43 281.74 81.75 288.18 88.6 294.92C89.1 295.41 89.61 295.89 90.15 296.35C88.07 303.6 93.29 318.98 98.83 324.38C85.89 323.97 70.37 335.93 69.31 336.89C64.78 341.02 66.19 341.31 69.31 341.31C72.43 341.31 97.42 340.04 110.62 339.82C115.98 339.73 122.54 339.42 127.87 339.24C131.1 339.12 146.37 339.03 144.02 333.52C141.23 326.94 137.88 317.93 137.53 312.83C145.95 313.35 154.34 312.81 161.89 311.07C164.11 317.5 168.57 322.79 174.92 324.96C156.67 328.15 149.62 334.54 145.29 339.95C144.75 341.06 158.91 341.53 174.57 342.11C192.75 342.79 214.79 343.76 222.27 342.03C229.74 340.3 223.44 329.26 221.99 324.82C217.13 309.88 212.29 289.12 219.6 274.09C222.68 273.43 226.31 272.58 231.14 272.25C240.3 271.63 250.66 269.91 259.89 266.02C278.96 257.99 285.42 246.41 286.28 237.73C287.02 230.11 273.72 199.02 257.05 178.96ZM44.64 242.41C44.64 239.91 52.62 238.2 57.85 233.96C58.56 241.23 59.87 248.67 62.61 256.43C60.05 254.94 44.64 244.74 44.64 242.41ZM223.97 253.22C224.93 245.96 225.48 238.23 225.34 231.4C230.85 235.14 239.26 238.21 238.96 240.45C238.55 243.49 233.62 248.8 223.97 253.22Z" fill="#CAA77A"/>
<path d="M194.83 342.82C192.21 342.75 189.53 342.67 186.84 342.57C185.59 342.53 184.34 342.48 183.1 342.44C180.2 342.33 177.33 342.22 174.55 342.12C174.12 342.1 173.7 342.09 173.27 342.07C172.98 342.06 172.69 342.05 172.4 342.04C170.91 341.98 169.44 341.93 168.01 341.87C167.68 341.86 167.35 341.85 167.03 341.84C164.4 341.73 161.88 341.63 159.55 341.52C159.2 341.51 158.86 341.5 158.53 341.48C158.14 341.46 157.75 341.44 157.37 341.42C156.9 341.4 156.43 341.37 155.98 341.35C155.53 341.33 155.08 341.3 154.65 341.28C154.16 341.25 153.68 341.22 153.23 341.19C152.73 341.16 152.25 341.12 151.79 341.09C150.88 341.03 150.05 340.96 149.31 340.89C148.95 340.85 148.61 340.82 148.29 340.78C148.25 340.78 148.22 340.78 148.18 340.77C147.9 340.74 147.63 340.7 147.39 340.67C147.21 340.65 147.03 340.62 146.87 340.59C146.79 340.58 146.71 340.57 146.64 340.55C146.27 340.49 145.96 340.41 145.73 340.34C145.65 340.31 145.59 340.29 145.53 340.26C145.47 340.24 145.42 340.21 145.38 340.18C145.34 340.15 145.31 340.12 145.29 340.1C145.26 340.05 145.25 340 145.28 339.95C145.89 339.19 146.55 338.41 147.29 337.62C147.54 337.36 147.79 337.09 148.06 336.83C148.33 336.56 148.6 336.29 148.89 336.03C149.17 335.77 149.46 335.51 149.76 335.24C151.81 333.48 154.36 331.73 157.68 330.13C158.27 329.85 158.88 329.57 159.52 329.29C159.58 329.27 159.64 329.24 159.71 329.21C160.01 329.08 160.33 328.95 160.65 328.82C161.08 328.65 161.52 328.48 161.97 328.32C162.36 328.17 162.77 328.03 163.18 327.89C163.49 327.78 163.8 327.67 164.13 327.57C164.47 327.46 164.82 327.35 165.17 327.24C165.39 327.17 165.62 327.11 165.85 327.04C166.14 326.95 166.44 326.86 166.75 326.78C167.04 326.7 167.34 326.62 167.65 326.54C168.63 326.27 169.65 326.03 170.71 325.79C171.24 325.67 171.78 325.56 172.34 325.44C173.17 325.27 174.02 325.11 174.9 324.96C182.85 328.14 190.96 333.93 194.83 342.82Z" fill="#B6B1AE"/>
<path d="M112.68 339.77C111.97 339.79 111.28 339.81 110.6 339.82C97.4 340.04 72.41 341.31 69.29 341.31C68.01 341.31 67.03 341.26 66.61 340.92C66.14 340.51 66.45 339.72 67.98 338.16C68.07 338.06 68.17 337.96 68.27 337.87C68.37 337.77 68.47 337.66 68.58 337.56C68.8 337.34 69.04 337.12 69.29 336.89C70.35 335.93 85.87 323.97 98.81 324.38H98.82C104.18 327.96 109.72 333.18 112.68 339.77Z" fill="#B6B1AE"/>
<path d="M65.35 157.07C64.46 157.77 63.56 160.19 63.14 161.08C62.22 163.05 63.52 164.89 63.42 165.92C63.3 167.13 60.86 171.62 58.46 176.16C56.72 179.45 55.43 182.81 54.51 186.14C53.6 189.43 53.04 192.7 52.76 195.83C44.66 188.6 33.66 185.08 26.77 183.57C20.93 182.28 26.94 177.09 28.67 174.8C42.96 155.87 54.08 145.71 64.66 141.9C64.63 142.19 64.6 142.48 64.57 142.76C64.49 143.54 63.6 145.63 64.15 145.07C64.33 144.89 64.86 143.13 65.63 143.39C66.07 143.54 65.57 155.95 65.35 157.07Z" fill="#FF0F0F"/>
<path d="M255.45 179.71C230.77 191.23 223.8 204.96 215.46 215.09C215.39 215.18 215.31 215.27 215.24 215.35C216.7 220.9 219 225.86 223.87 229.94C224.43 230.41 225.05 230.86 225.71 231.31C225.87 238.29 225.51 245.65 224.51 253.05C223.06 253.73 221.49 254.38 219.82 255C212.14 257.86 203.14 248.63 191.16 255.51C184.79 259.17 182.22 266.83 181.97 269.38C181.71 271.94 189.93 263.46 207.5 273.11C211.9 275.52 215.29 274.99 219.92 274.01C219.41 275.08 218.84 276.45 218.46 277.5C208.73 288.85 185.14 295.49 166.91 298.57C134.58 304.06 106.13 301.44 85.59 291.39C73.06 278.27 66.27 266.26 62.5 254.91C61.78 252.77 61.18 250.66 60.67 248.57C58.3 239.01 57.78 229.87 57.37 220.87C54.18 219 47.95 196.1 58.57 176.02C60.97 171.48 63.42 166.99 63.53 165.78C63.63 164.75 61.6 162.96 62.52 160.99C63.15 159.66 66.48 154.77 66.01 157.47C107.18 169.31 148.5 160.81 153.59 159.68C161.12 158.01 169.18 155.69 177.22 152.97C181.03 146.39 187.01 140.48 196.22 138.01C202.75 136.26 208.68 135.84 214.57 137.27C226.24 140.06 237.78 150.02 253.56 170.94C255.29 173.23 260.88 177.18 255.45 179.71Z" fill="#FF0F0F"/>
<path d="M54.2 80.09C56.32 71.45 60.31 63.96 67.25 60.28C76.64 55.3 82.66 56.25 91.25 54.41C94.82 53.64 97.63 52.2 98.22 48.57C98.48 46.96 97.88 45.22 96.32 42.99C99.51 42.99 103.02 44.27 105.64 46.37C110.94 50.63 117.74 51.55 123.97 51.35C145.91 50.66 159.8 53.2 170.41 72.41C172.79 76.72 176.45 86.59 173.96 97.62C170.33 113.68 168.44 120.42 151.01 132.45C130.3 146.74 87.44 153.85 66.04 126.82C56.03 114.15 50.24 96.22 54.2 80.09Z" fill="#FFDBAF"/>
<path d="M94.27 87.4501C87.05 83.8401 81.2 102.09 81.78 107.33C83.77 125.28 110.03 124.36 122.2 118.27C139.77 109.49 118.28 81.1901 105.72 86.2201" fill="#9D7B51"/>
<path d="M54.23 80.1401C50.91 93.5501 54.77 108.61 57.74 110.84C60.04 112.56 72.22 105.22 80.37 93.0801C88.93 80.3501 89.54 67.0101 87.29 64.7601C86.02 63.4901 66.75 61.6601 64.2 62.2801C60.96 63.0801 56.49 71.0001 54.23 80.1401Z" fill="#9D7B51"/>
<path d="M121.51 64.1799C119.47 101.76 164.08 121.7 169.12 114.39C172.35 109.71 178.57 90.1299 171.51 74.6099C167.85 66.5599 160.25 57.5299 156.35 57.4899C149.44 57.4199 140.39 59.6099 133 61.2899C126.81 62.6999 121.86 61.6499 121.51 64.1799Z" fill="#9D7B51"/>
<path d="M67.85 39.48C63.01 42.71 59.16 46.83 55.99 52.19C41.95 75.93 49.39 103.6 60.69 126.2C61.68 128.19 63.11 130.48 63.43 132.73C63.59 133.85 62.94 135.75 63.43 136.73C63.64 137.15 64.63 135.63 64.69 136.1C64.95 138.17 64.71 140.57 64.48 142.62C64.39 143.4 63.5 145.49 64.06 144.94C64.24 144.76 64.76 143 65.53 143.26C65.98 143.41 65.54 154.56 65.32 155.68" stroke="#2D1F04" stroke-width="2.7806" stroke-miterlimit="10" stroke-linecap="round" stroke-linejoin="round"/>
<path d="M61.81 253.21C58.27 241.87 57.64 231.17 57.16 220.66C53.97 218.78 47.74 195.89 58.36 175.81C58.65 175.27 58.98 174.55 59.34 173.71C60.17 173.77 62.36 173.96 63.81 174.27C65.57 174.65 66.95 175.83 67.32 182.95C67.7 190.07 82.26 190.87 94.61 191.89C105.59 192.8 129.11 194.56 132.68 185.82C136.26 177.08 138.93 175.29 146.27 175.29C153.62 175.29 161.3 173.34 163.66 181.83C167.79 196.68 175.53 214.29 192.6 223.8C205.62 231.06 214.32 230.04 223.67 229.73C224.23 230.19 224.84 230.65 225.5 231.09C225.65 238.09 225.3 245.4 224.3 252.84C222.85 253.51 221.29 254.16 219.62 254.78C218.21 255.31 216.75 255.42 215.24 255.31C212.78 255.12 210.17 254.31 207.37 253.64C206.8 253.5 206.23 253.37 205.65 253.26C205.38 253.2 205.1 253.15 204.83 253.1C204.48 253.04 204.13 252.98 203.77 252.93C203.55 252.9 203.34 252.87 203.12 252.84C202.93 252.82 202.73 252.8 202.53 252.78C202.19 252.75 201.85 252.72 201.51 252.71C199.89 252.63 198.22 252.73 196.47 253.11C195.69 253.28 194.89 253.51 194.08 253.82C193.87 253.9 193.67 253.98 193.46 254.06C193.05 254.22 192.64 254.41 192.22 254.62C192.21 254.63 192.21 254.62 192.21 254.62C191.8 254.82 191.38 255.04 190.95 255.29C189.75 255.98 188.69 256.8 187.76 257.72C187.6 257.86 187.44 258.02 187.3 258.18C185.81 259.73 184.66 261.48 183.79 263.15C183.53 263.65 183.3 264.14 183.1 264.61C183.11 264.62 183.1 264.62 183.1 264.62C182.96 264.94 182.83 265.25 182.72 265.55C182.72 265.55 182.73 265.55 182.72 265.56C182.2 266.92 181.9 268.1 181.79 268.91C181.78 269 181.77 269.09 181.76 269.17C181.5 271.72 189.72 263.24 207.29 272.89C209.67 274.2 211.76 274.64 213.91 274.62C215.69 274.6 217.51 274.26 219.57 273.82C218.91 275.17 218.36 276.57 217.89 278.01C207.79 288.91 184.54 295.34 166.7 298.36C134.35 303.84 106.01 301.33 85.47 291.26C78.2 283.66 72.86 276.44 68.92 269.5L61.81 253.21Z" fill="#FFDB1F"/>
<path d="M213.92 274.84C211.77 274.86 209.68 274.42 207.3 273.11C189.73 263.46 181.51 271.94 181.77 269.38C182.02 266.83 184.59 259.17 190.96 255.51C200.74 249.89 208.54 255.02 215.25 255.53C211.76 259.96 208.42 266.52 213.92 274.84Z" fill="#B6B1AE"/>
<path opacity="0.32" d="M100.55 253.83C99.97 249.09 97.2 245.55 91.33 245.55C85.46 245.55 76.52 247.42 71.67 249.93C67.33 252.18 64.89 255.28 66.68 260.14C68.48 265 71.41 270.51 76.13 270.1C88.6 269.04 101.41 265.71 101.15 261.48C100.89 257.25 100.77 255.66 100.55 253.83Z" fill="white"/>
<path opacity="0.32" d="M81.2 272.45C84.65 271.61 93.14 269.9 95.98 269.56C98.82 269.22 102.48 270.05 103.41 273.29C104.35 276.53 104.6 282.41 104.43 284.87C104.26 287.34 100.46 288.87 95.98 288.19C91.5 287.51 84.78 285.3 82.39 283.85C80.01 282.4 78.75 280.74 76.65 277.98C74.99 275.8 76.96 273.47 81.2 272.45Z" fill="white"/>
<path opacity="0.32" d="M115.58 255.57C115.59 261.48 115.91 268.21 123.49 269.38C131.15 270.57 148.59 272.02 155.19 271.85C161.79 271.68 162.89 268.01 162.93 263.89C162.97 259.77 160.22 254.98 151.75 252.11C143.06 249.17 132.51 248.51 126.55 248.21C123.76 248.07 120.6 248.21 118.64 249.38C116.42 250.71 115.58 253.23 115.58 255.57Z" fill="white"/>
<path opacity="0.32" d="M122.98 272.53C128.32 271.8 149.21 273.75 154.7 274.83C160.13 275.91 164.21 277.07 164.34 283.08C164.43 287.68 164 290.4 158.3 291.51C152.52 292.63 130.39 293.34 125.66 291.94C120.94 290.54 119.66 287.87 119.15 282.44C118.64 277 118.52 273.14 122.98 272.53Z" fill="white"/>
<path opacity="0.32" d="M64.25 192.49C72.43 192.88 93.22 196.7 94.75 202.05C95.59 205 95.77 209.1 95.39 212.54C95.01 215.98 85.8 218.49 72.49 218.9C60.79 219.26 54.42 216.79 53.63 212.54C52.67 207.37 51.85 201.83 52.55 197.21C53.25 192.59 59.27 192.25 64.25 192.49Z" fill="white"/>
<path opacity="0.32" d="M107.67 205.09C107.86 201.56 109.97 199.51 115.58 198.74C121.2 197.97 140.86 196.83 148.64 196.89C156.42 196.95 161.53 198.66 162.43 205.08C163.32 211.5 163.07 221.2 161.41 223.5C159.75 225.8 147.62 227.2 132.69 223.5C117.76 219.8 107.8 217.2 107.55 212.39C107.45 210.36 107.57 206.92 107.67 205.09Z" fill="white"/>
<path d="M68.91 269.71C68.27 261.78 73.38 259.68 73.38 257.96C73.38 256.53 65.15 251.95 61.75 253.22C58.2 254.54 58.06 261.34 59.98 263.38C59.72 265.68 61.51 271.06 64.96 273.23C68.4 275.41 70.39 274.14 68.91 269.71Z" fill="#B6B1AE"/>
<path opacity="0.23" d="M57.57 227.32C72.57 230.7 100.02 226.05 100.52 226.18C101.02 226.31 106.07 227.33 118.8 230.65C131.53 233.97 146.34 237.08 154.01 237.08C156.9 237.08 160.51 234.51 164.48 230.06C168.57 225.49 172.05 219.98 175.42 213.89C168.27 224.53 159.54 229.22 157.04 229.89C153.93 230.72 152.95 230.74 148.53 230.4C134.33 229.33 104.65 220.78 101.41 220.31C99.15 219.99 66.28 225.67 57.12 219.08" fill="#3F2719"/>
<path opacity="0.23" d="M219.86 273.82C219.35 274.89 218.78 276.26 218.4 277.31C208.67 288.66 185.08 295.3 166.85 298.38C134.52 303.87 106.07 301.25 85.53 291.2C83.03 288.58 80.76 286 78.69 283.47C81.58 284.81 85.36 286.77 88.33 288.15C96.76 292.07 105.47 292.75 107.35 289.75C108.31 288.22 109.64 285.02 108.86 281.28C107.77 276.07 104.41 266.03 107.03 256.34C105.69 267.4 112.46 275.83 112.85 284C112.85 293.02 121.08 294.67 130.21 295.27C137.29 295.74 144.18 295.74 157.23 294.34C170.9 292.89 173.24 288.98 173.41 280.56C173.54 274.38 172.01 263.96 168.86 258.73C165.05 252.4 151.96 248.07 137.83 245.01C147.36 244.84 166.23 246.3 175.26 254.3C178.21 256.92 181.38 259.74 184.4 262.32C182.8 265.14 182.04 267.86 181.91 269.19C181.75 270.8 184.94 268.04 191.71 268.18C194.04 268.22 196.8 268.61 199.98 269.65C202.25 270.38 204.73 271.43 207.44 272.92C211.84 275.33 215.23 274.8 219.86 273.82Z" fill="#3F2719"/>
<path opacity="0.23" d="M224.45 252.86C223 253.54 221.43 254.19 219.76 254.81C215.39 256.44 210.6 254.15 205.08 253.15C205.56 248.98 205.68 244.62 205.37 240.68C204.79 233.36 203.41 222.34 199.2 217.75C194.98 213.15 189.37 206.64 186.19 202.49C197.12 205.04 201.4 208.29 205.66 211.07C206.98 214.56 209.46 219.9 215.18 215.16C216.64 220.71 218.94 225.67 223.81 229.75C224.37 230.22 224.99 230.67 225.65 231.12C225.81 238.1 225.45 245.46 224.45 252.86Z" fill="#3F2719"/>
<path opacity="0.23" d="M255.39 179.52C252.56 180.84 249.95 182.2 247.56 183.57C247.55 183.58 247.54 183.58 247.53 183.58C243.36 185.78 241.08 174.09 228.35 159.38C216.1 145.23 196.82 136.25 185.77 142.86C188.67 140.67 192.1 138.91 196.16 137.82C202.69 136.07 208.62 135.65 214.51 137.08C226.18 139.87 237.72 149.83 253.5 170.75C255.23 173.04 260.82 176.99 255.39 179.52Z" fill="#3F2719"/>
<path opacity="0.23" d="M144.04 335.29C143.99 335.41 143.93 335.53 143.86 335.65C143.72 335.88 143.53 336.09 143.3 336.29C143.07 336.48 142.81 336.67 142.52 336.84C142.37 336.93 142.21 337.01 142.05 337.09C141.58 337.31 141.05 337.52 140.48 337.7C139.27 338.08 137.86 338.35 136.42 338.55C136.18 338.58 135.95 338.61 135.71 338.64C135.48 338.67 135.24 338.7 135.01 338.72C134.77 338.75 134.54 338.77 134.3 338.79C132.66 338.95 131.09 339.03 129.84 339.07C129.68 339.08 129.52 339.08 129.37 339.09C129.26 339.09 129.17 339.1 129.07 339.1C128.94 339.1 128.82 339.11 128.7 339.11C128.34 339.12 128.04 339.13 127.8 339.14C127.51 339.15 127.21 339.16 126.92 339.17C126.62 339.18 126.32 339.19 126.01 339.2C125.23 339.23 124.42 339.26 123.61 339.29C122.98 339.32 122.34 339.34 121.69 339.37C121.23 339.39 120.77 339.4 120.3 339.42C119.23 339.46 118.16 339.5 117.1 339.54C115.57 339.59 114.07 339.64 112.62 339.67C111.92 339.69 111.22 339.71 110.55 339.72C97.35 339.94 72.36 341.21 69.24 341.21C69.03 341.21 68.82 341.21 68.63 341.2C68.49 341.2 68.35 341.2 68.22 341.19C68.15 341.19 68.09 341.19 68.03 341.18C67.97 341.18 67.91 341.17 67.85 341.17C67.67 341.16 67.51 341.14 67.36 341.11C67.31 341.1 67.26 341.09 67.21 341.08C67.12 341.07 67.05 341.05 66.98 341.02C66.96 341.02 66.94 341.01 66.92 341C66.88 340.99 66.84 340.98 66.81 340.96C66.76 340.94 66.72 340.92 66.69 340.9C66.63 340.88 66.59 340.85 66.55 340.82C66.52 340.79 66.49 340.76 66.47 340.73C66.38 340.59 66.34 340.44 66.37 340.24C66.38 340.2 66.39 340.16 66.4 340.12C66.43 340.03 66.47 339.93 66.52 339.82C66.52 339.8 66.53 339.78 66.55 339.76C66.56 339.72 66.58 339.69 66.61 339.65C66.65 339.58 66.7 339.51 66.75 339.43C66.8 339.35 66.86 339.26 66.94 339.16C66.97 339.13 66.99 339.09 67.03 339.05C67.15 338.91 67.28 338.75 67.43 338.59C67.5 338.5 67.58 338.42 67.67 338.33C67.75 338.24 67.84 338.15 67.93 338.06C68.02 337.96 68.12 337.86 68.22 337.77C68.32 337.67 68.42 337.56 68.53 337.46C68.75 337.24 68.99 337.02 69.24 336.79H69.25C69.26 336.78 69.28 336.76 69.3 336.74C69.3 336.74 69.3 336.73 69.31 336.74C69.33 336.72 69.35 336.7 69.38 336.67C69.41 336.65 69.44 336.62 69.48 336.59C69.48 336.59 69.48 336.58 69.49 336.59C69.52 336.56 69.56 336.53 69.59 336.49C69.81 336.32 70.09 336.1 70.45 335.82C70.46 335.83 70.46 335.83 70.46 335.82C70.5 335.8 70.53 335.77 70.57 335.74C70.61 335.72 70.64 335.69 70.68 335.65C72.79 334.09 76.95 331.24 81.93 328.78C82.07 328.72 82.21 328.65 82.35 328.58C83.33 328.11 84.33 327.65 85.36 327.23C85.51 327.16 85.65 327.1 85.8 327.04C85.85 327.02 85.89 327.01 85.93 326.98C85.94 326.99 85.94 326.99 85.94 326.98C86.53 326.75 87.13 326.52 87.72 326.3C87.73 326.31 87.73 326.31 87.73 326.3C88.6 325.99 89.48 325.71 90.36 325.46C90.64 325.38 90.9 325.3 91.17 325.24C91.96 325.03 92.75 324.86 93.54 324.71C93.61 324.7 93.67 324.69 93.74 324.68C93.75 324.67 93.75 324.67 93.76 324.67C93.78 324.67 93.8 324.66 93.82 324.66C94.04 324.62 94.25 324.59 94.45 324.56C94.56 324.54 94.66 324.53 94.76 324.52C94.81 324.51 94.87 324.5 94.92 324.49C94.97 324.48 95.02 324.48 95.07 324.47C95.27 324.45 95.48 324.42 95.68 324.4C95.78 324.39 95.88 324.38 95.99 324.37C96.32 324.34 96.65 324.32 96.98 324.3C97.34 324.28 97.71 324.27 98.07 324.27C98.3 324.27 98.53 324.27 98.76 324.28H98.77C98.63 324.14 98.48 323.99 98.33 323.84C97.76 323.22 97.19 322.5 96.63 321.69C92.03 314.99 88.28 302.39 90.16 296.08C100.76 305.45 119.21 311.5 137.47 312.63C137.48 312.66 137.48 312.69 137.48 312.73H137.47C137.75 316.75 139.88 323.19 142.14 328.95C142.57 330.06 143 331.13 143.42 332.15C143.42 332.16 143.43 332.16 143.43 332.16C143.6 332.59 143.78 333.01 143.95 333.42C144.25 334.13 144.26 334.75 144.04 335.29Z" fill="#3F2719"/>
<path opacity="0.23" d="M225.1 339.97C224.93 340.23 224.74 340.47 224.51 340.69C223.96 341.22 223.2 341.62 222.2 341.85C217.41 342.96 206.65 342.96 194.77 342.64C194.6 342.64 194.44 342.63 194.28 342.63C193.18 342.6 192.07 342.57 190.95 342.53C188.75 342.46 186.52 342.38 184.31 342.3C183.76 342.28 183.21 342.26 182.66 342.24C182.06 342.22 181.46 342.2 180.87 342.18C180.09 342.15 179.31 342.12 178.53 342.09C177.18 342.04 175.83 341.99 174.51 341.94H174.5C173.49 341.9 172.48 341.86 171.49 341.83C171.07 341.81 170.65 341.8 170.24 341.78C170.23 341.78 170.23 341.78 170.23 341.78C170.19 341.78 170.16 341.78 170.12 341.77C169.93 341.77 169.73 341.76 169.54 341.75C169.53 341.75 169.53 341.75 169.53 341.75C169.06 341.74 168.6 341.72 168.15 341.7C166.73 341.65 165.34 341.59 163.99 341.54C163.7 341.52 163.41 341.51 163.12 341.5C163.01 341.5 162.91 341.49 162.8 341.49C162.58 341.48 162.37 341.47 162.15 341.46C161.52 341.44 160.9 341.41 160.29 341.38C160.02 341.37 159.75 341.36 159.49 341.34C159.17 341.33 158.86 341.32 158.56 341.3C157.55 341.26 156.59 341.21 155.67 341.16C155.49 341.15 155.31 341.14 155.14 341.13C154.98 341.12 154.84 341.11 154.69 341.1C154.55 341.1 146.71 340.38 146.58 340.37C158.64 335.59 179.72 334.18 189.67 334.8H189.73C194.19 335.08 197.72 335.52 199.58 335.59C206.34 335.84 208.77 334.31 205.93 324.78C203.24 315.72 199.92 300.06 200.16 289.25C207.46 286.16 213.81 282.39 217.93 277.85C213.04 292.42 217.47 310.97 221.92 324.64C223.1 328.23 227.45 336.16 225.1 339.97Z" fill="#3F2719"/>
<path opacity="0.23" d="M174.02 306.6C176.99 304.73 182.96 300.94 184.82 298.39C149.27 314.13 115.66 306.9 95.92 300.09C114.05 310.3 128.98 312.75 143.03 312.75C157.07 312.75 166.2 309.78 174.02 306.6Z" fill="#3F2719"/>
<path opacity="0.23" d="M169.44 155.27C169.1 161.37 169.54 165.79 170.48 169.96C171.42 164.68 173.98 156.88 177.17 152.78C174.75 153.61 171.44 154.75 169.44 155.27Z" fill="#3F2719"/>
<path opacity="0.23" d="M144.73 27.35C137.56 23.88 129.97 21.95 122.35 19.18C120.93 18.66 117.94 17.89 116.88 16.33C115.7 14.6 116.5 12.1 116.43 12.11C109.98 13.2 112.87 18.97 112.87 18.97C112.87 18.97 111.6 18.89 110.98 18.76C108.28 18.16 105.51 15.82 105.71 11.76C105.96 6.37002 111.78 4.17002 110.91 3.73002C110.68 3.62002 100.48 -1.08998 92.63 5.10002C88.33 8.50002 86.28 13.16 87.75 19.32C78.09 17.55 79.56 9.17002 79.41 9.20002C70.81 10.73 67.62 20.82 73.72 24.86C73.72 25.89 69.55 25.67 66.73 23.67C64.64 22.19 63.73 18.84 63.49 18.99C55.41 24.01 59.15 32.69 66.36 33.49C66.89 33.55 68 33.61 67.83 34.12C67.77 34.3 66.17 35.45 63.45 35.5C60.71 35.54 59.61 34.16 59.49 34.52C58.28 38.22 64.37 41.45 66.72 40.28C62.11 43.35 58.93 46.97 55.93 52C60.33 46.76 67.88 41.6 77.99 38.21C76.77 37.2 77.78 34.24 79.77 33.75C79.29 35.95 83.34 36.78 87.94 35.65C86.7 34.36 85.45 30.08 90.94 28.61C88.35 32.44 94.35 35.32 96.97 34.71C99.83 34.04 99.61 32.58 98.51 31.49C100.64 30.34 102.71 32.89 103.79 33.4C105.93 34.42 108.34 34 114.17 34.89C147.16 39.98 165.03 53.97 173.24 72.22C180.15 87.57 187.75 114.96 184.65 143.73C187.78 141.13 191.56 139.05 196.16 137.81C199.13 137.02 201.98 136.49 204.75 136.31C205.14 91.77 188.99 48.01 144.73 27.35Z" fill="#3F2719"/>
<path opacity="0.23" d="M73.33 257.78C73.33 257.93 73.29 258.09 73.22 258.25C73.17 258.35 73.11 258.46 73.03 258.58C72.95 258.69 72.86 258.81 72.77 258.93C71.47 260.6 68.35 263.23 68.86 269.52C69.19 270.09 69.33 270.73 69.29 271.33C69.63 273.72 68.43 274.58 66.39 273.81L66.95 274.9C64.91 274.68 62.78 274.41 60.57 274.06C54.1 269.89 56.73 264.27 56.35 261.47C56.01 259.01 54.25 257.26 51.85 255.48C51.51 255.23 51.16 254.98 50.79 254.72C40.12 247.17 32.68 240.63 30.71 237.57C37.73 236.59 45.52 231.27 48.97 224.76C52.41 218.25 46.8 207.78 47.6 194.89C48.4 182.17 55.21 171.87 62.61 163.39C62.95 164.5 63.74 165.45 63.68 166.09C63.56 167.3 61.12 171.8 58.72 176.34C48.09 196.42 54.32 219.32 57.52 221.19C57.71 225.44 57.93 229.73 58.36 234.07C53.12 238.23 44.99 240.26 44.99 242.73C44.99 243.85 48.57 246.8 52.57 249.72L52.63 249.55C55.2 251.42 57.88 253.24 59.86 254.54C59.87 254.55 59.88 254.55 59.88 254.55C59.22 257.32 59.54 261.34 63.56 261.85C66.5 262.22 69.84 260.25 73.02 257.17C73.22 257.41 73.33 257.61 73.33 257.78Z" fill="#3F2719"/>
<path opacity="0.23" d="M65.8 155.39C54.51 169.39 40.22 190.74 30.85 210.42C26.96 218.58 24.23 225.18 15.54 223.63C14.27 223.4 13.09 223.1 12.02 222.73C10.26 224.21 8.88 226.01 7.29 228.49C5.74 230.9 2.45 236.43 2.75 243.7C1.71 241.63 1.88 238.12 3.24 231.19C3.89 227.86 4.98 223.73 6.45 219.17C11.59 205.69 17.49 185.61 28.95 170.42C40.53 155.05 50.62 146.13 64.75 139.36C64.66 140.15 64.6 140.94 64.86 141.46C65.07 141.88 66.07 140.37 66.13 140.83C66.39 142.91 66.14 145.31 65.92 147.36C65.83 148.14 64.94 150.23 65.49 149.67C65.68 149.48 65.89 152.27 65.8 155.39Z" fill="#3F2719"/>
<path opacity="0.23" d="M216.31 219.33C219.24 226.3 229.83 232.35 234.73 233.88C239.63 235.41 241.13 236.33 241.64 237.09C242.15 237.85 239.85 241.05 237.06 243.84C238.64 241.69 239.36 240.72 238.97 239.61C238.58 238.5 236.24 237.2 232.36 235.09C228.48 232.98 219.37 228.73 216.31 219.33Z" fill="#3F2719"/>
<path opacity="0.23" d="M286.39 237.54C285.64 245.07 280.69 254.77 266.95 262.45C266.89 262.5 266.82 262.54 266.75 262.57C266.25 262.85 265.74 263.12 265.21 263.39C265.16 263.42 265.1 263.45 265.04 263.48C264.05 263.99 263.01 264.49 261.93 264.98C261.36 265.23 260.78 265.49 260.18 265.74C250.94 269.63 240.59 271.35 231.42 271.97C223.91 272.48 219.3 274.27 215.14 274.6C214.71 274.63 214.29 274.65 213.86 274.65C211.84 274.62 209.86 274.15 207.61 272.92C201.15 269.37 195.95 268.27 191.97 268.18C191.45 268.17 190.96 268.17 190.49 268.19C186.14 268.31 183.46 269.6 182.4 269.69C182.15 269.67 182.05 269.52 182.08 269.19C182.1 269.02 182.12 268.83 182.16 268.62C191.53 261.32 203.86 265.79 209.54 267.83C215.92 270.13 216.94 266.39 222.5 265.87C228.06 265.36 243.15 265.87 257.88 259.95C272.6 254.03 276.52 240 276.35 234.64C276.22 230.62 272.61 220.93 264.65 219.65C259.95 222.08 254.92 225.05 250.63 227.48C242.12 232.3 237.87 224.7 224.5 204.45C211.14 184.19 185.78 165.13 181.1 161.81C176.41 158.48 175.21 153.21 178.63 149.75C190.38 137.87 202.63 129.38 223.91 140.15C245.19 150.92 272.05 200.7 279.04 214.39C283.91 224.95 286.74 233.91 286.39 237.54Z" fill="#3F2719"/>
<path opacity="0.23" d="M177.04 152.73C176.1 154.36 175.28 156.03 174.59 157.7C166.67 161.82 159.41 168.76 159.91 173.71C160.43 178.75 154.5 185.01 148.09 185.01C146.14 185.01 144.54 184.42 143.29 183.46C149.41 183.01 154.87 177.04 154.37 172.19C153.87 167.24 161.13 160.3 169.05 156.18C169.18 155.86 169.32 155.54 169.46 155.22C172.25 154.4 174.79 153.57 177.04 152.73Z" fill="#3F2719"/>
<path opacity="0.23" d="M65.48 172.19C64.28 173.59 65.32 176.36 65.06 178.73C64.81 180.91 63.35 183.2 60.5 182.75C59.31 182.56 58.35 182.09 57.68 181.45C57.87 181.51 58.08 181.55 58.29 181.59C61.14 182.04 61.24 179.34 61.49 177.16C61.75 174.79 61.08 172.13 62.28 170.73C64.35 168.34 66.06 161.35 65.59 157.52C65.75 157.17 65.81 157.13 65.76 157.47C66.4 157.66 67.04 157.84 67.69 158C68.35 161.57 67.68 169.65 65.48 172.19Z" fill="#3F2719"/>
<path d="M204.97 136.47C205.43 91.83 189.3 48.15 144.96 27.45C137.79 23.98 130.2 22.05 122.58 19.28C121.16 18.76 118.18 17.99 117.11 16.43C115.93 14.71 116.73 12.21 116.66 12.22C110.21 13.31 113.11 19.07 113.11 19.07C113.11 19.07 111.84 19 111.22 18.86C108.52 18.26 105.75 15.92 105.95 11.86C106.2 6.46996 112.02 4.26996 111.16 3.82996C110.93 3.70996 100.73 -1.00004 92.88 5.19996C88.58 8.59996 86.62 14.38 88.08 20.53" stroke="#2D1F04" stroke-width="2.7806" stroke-miterlimit="10" stroke-linecap="round" stroke-linejoin="round"/>
<path d="M157.96 78.97C156.18 88.99 130.99 89.77 131.49 76.55C131.69 71.27 137.79 69.26 146.74 69.25C155.69 69.24 158.98 73.18 157.96 78.97Z" fill="white"/>
<path d="M79.51 81.9301C77.76 91.9601 55.34 93.1601 56.01 79.9701C56.28 74.7001 61.73 72.5901 69.7 72.4301C77.67 72.2701 80.52 76.1401 79.51 81.9301Z" fill="white"/>
<path d="M51.76 59.96C65.32 62.76 92.61 62.48 116.74 58.17C141.03 53.83 158.27 47.9 160.04 36.19C160.38 31.18 145.91 23.26 145.91 28.11C146.39 37.11 125.85 41.07 98.76 44.05C83.82 45.69 67.56 46.11 61.17 44.64C57.85 43.88 46.93 59.13 51.76 59.96Z" fill="#FFDB1F"/>
<path d="M91.22 48.3801C93.41 48.2201 95.4 48.0401 97.34 47.9301C98.93 47.8401 99.47 48.8201 99.49 49.7801C99.52 51.1101 98.78 52.0901 97.38 52.7101C97.31 52.7401 97.23 52.7701 97.08 52.8201C98.67 53.5001 98.86 55.1701 99.98 56.6001C98.81 56.7001 97.78 56.7901 96.68 56.8901C96.02 55.9601 95.46 55.0501 94.97 54.1601C94.7 53.6701 94.36 53.3301 93.53 53.5601C93.41 54.7201 93.37 55.9101 93.61 57.1901C92.59 57.2801 91.65 57.3701 90.64 57.4601C90.08 54.4901 90.98 51.3501 91.22 48.3801ZM94.05 49.9901C93.98 50.5901 93.89 51.1501 93.79 51.8201C94.43 51.7301 95.05 51.6701 95.67 51.5401C96.21 51.4201 96.53 51.0701 96.6 50.6301C96.67 50.1701 96.41 49.8401 95.85 49.8401C95.28 49.8301 94.68 49.9301 94.05 49.9901Z" fill="#2D1F04"/>
<path d="M108.28 49.3C107.3 49.45 106.42 49.58 105.51 49.73C105.4 48.99 104.94 48.63 104.17 48.69C103.67 48.73 103.25 48.91 103.06 49.45C103.06 49.88 103.36 50 103.73 50.06C104.39 50.16 105.07 50.24 105.75 50.36C106.13 50.42 106.5 50.52 106.86 50.64C109.16 51.38 108.92 53.95 107.26 55.31C106.71 55.76 106.02 56.1 105.37 56.27C104.31 56.56 103.23 56.61 102.16 56.42C100.75 56.16 99.77 55.06 99.81 53.59C100.68 53.46 101.56 53.34 102.48 53.2C102.53 53.37 102.57 53.53 102.63 53.69C102.95 54.52 103.92 54.86 104.82 54.43C105.23 54.24 105.52 53.93 105.54 53.51C105.56 53.12 105.32 52.86 104.95 52.75C104.64 52.65 104.3 52.6 103.98 52.54C103.31 52.41 102.63 52.33 102 52.14C100.79 51.78 100.26 50.99 100.4 49.98C100.56 48.85 101.35 47.85 102.62 47.38C103.82 46.93 105.04 46.79 106.28 47.04C107.57 47.28 108.19 47.99 108.28 49.3Z" fill="#2D1F04"/>
<path opacity="0.23" d="M160.03 36.1799C158.26 47.8999 141.02 53.8299 116.73 58.1699C92.61 62.4799 65.32 62.7599 51.76 59.9599C50.08 59.6699 50.31 57.6299 51.46 55.1199C65.95 58.8199 90.76 58.1399 112.72 54.2199C137.01 49.8799 156.89 41.3699 155.76 30.6699C155.77 30.5099 155.77 30.3499 155.75 30.1799C158.22 32.0399 160.16 34.3099 160.03 36.1799Z" fill="#3F2719"/>
<path d="M51.76 59.96C65.32 62.76 92.61 62.48 116.74 58.17C141.03 53.83 158.27 47.9 160.04 36.19C160.38 31.18 145.91 23.26 145.91 28.11C146.39 37.11 125.85 41.07 98.76 44.05C83.82 45.69 67.56 46.11 61.17 44.64C57.85 43.88 46.93 59.13 51.76 59.96Z" stroke="#2D1F04" stroke-width="2.7806" stroke-miterlimit="10" stroke-linecap="round" stroke-linejoin="round"/>
<path d="M158.14 76.96C155.04 72.91 149.55 72.29 142.74 73.3C136.84 74.17 133.35 75.88 131.55 78.09C131.49 77.6 131.47 77.09 131.49 76.55C131.69 71.27 137.79 69.25 146.74 69.25C154.62 69.24 158.11 72.29 158.14 76.96Z" fill="#D3E5EA"/>
<path d="M79.66 80.81C77.29 75.97 72.52 75.19 66.49 76.23C60.12 77.35 57.19 79.86 56.33 83.04C56.07 82.11 55.95 81.09 56.01 79.96C56.28 74.7 61.74 72.58 69.7 72.42C77.14 72.28 80.12 75.65 79.66 80.81Z" fill="#D3E5EA"/>
<path d="M223.87 229.94C214.45 230.24 205.72 231.33 192.61 224.02C175.54 214.51 167.8 196.89 163.67 182.05C161.31 173.56 153.63 175.51 146.28 175.51C138.93 175.51 136.26 177.3 132.69 186.04C129.12 194.78 105.6 193.02 94.62 192.11C82.26 191.09 67.7 190.3 67.33 183.17C66.96 176.05 65.58 174.87 63.82 174.49C62.01 174.1 59.69 173.91 59.69 173.91" stroke="#2D1F04" stroke-width="2.7806" stroke-miterlimit="10" stroke-linecap="round" stroke-linejoin="round"/>
<path d="M177.05 152.73C176.11 154.36 175.29 156.03 174.6 157.7C166.68 161.82 159.42 168.76 159.92 173.71C160.44 178.75 154.51 185.01 148.1 185.01C141.54 185.01 138.9 178.29 140.27 173.27C141.63 168.25 140.25 166.69 141.29 164.59C142.13 162.92 143.41 161.33 145.6 160.46C158.41 158.45 169.39 155.57 177.05 152.73Z" fill="#FFDB1F"/>
<path d="M147.66 160.82C144.19 161.38 142.34 162.66 141.28 164.79C140.24 166.89 141.62 168.45 140.26 173.47C138.89 178.49 141.53 185.21 148.09 185.21C154.5 185.21 160.43 178.95 159.91 173.91C159.4 168.87 166.23 162.09 174.31 157.99" stroke="#2D1F04" stroke-width="2.7806" stroke-miterlimit="10" stroke-linecap="round" stroke-linejoin="round"/>
<path d="M65.49 172.2C64.29 173.6 65.33 176.37 65.07 178.74C64.82 180.92 63.36 183.21 60.51 182.76C58.34 182.41 56.96 181.16 56.63 179.59C57.13 178.4 57.7 177.21 58.32 176.03C60.71 171.53 66.14 155.1 65.77 157.48C66.41 157.67 67.05 157.85 67.7 158.01C68.36 161.58 67.69 169.66 65.49 172.2Z" fill="#FFDB1F"/>
<path d="M61.75 253.23C58.27 241.96 57.65 231.33 57.17 220.88C53.98 219.01 47.74 196.11 58.37 176.03C60.77 171.49 66.28 154.85 65.81 157.55" stroke="#2D1F04" stroke-width="2.7806" stroke-miterlimit="10" stroke-linecap="round" stroke-linejoin="round"/>
<path d="M174.07 306.79C149.67 318.99 106.26 312.03 88.77 294.84C79.72 285.94 73.44 277.51 68.91 269.5" stroke="#2D1F04" stroke-width="2.7806" stroke-miterlimit="10" stroke-linecap="round" stroke-linejoin="round"/>
<path d="M102.08 88.7C100.78 93.55 100.48 104.72 102.39 108.1C107.53 108.06 112.54 106.41 113.56 103.92" stroke="#2D1F04" stroke-width="3.2369" stroke-miterlimit="10" stroke-linecap="round" stroke-linejoin="round"/>
<path d="M89.93 87.4799C89.8 84.7599 95.13 82.2899 101.84 81.9599C108.55 81.6299 114.1 83.5699 114.23 86.2799C114.36 88.9999 109.03 91.4699 102.32 91.7999C95.61 92.1299 90.06 90.1899 89.93 87.4799Z" fill="#251707"/>
<path d="M113.15 65.2501C113.15 65.2501 120.82 64.6001 129.5 62.9601C140.2 60.9401 146.26 56.0501 151 56.2801C155.92 56.5201 169.64 62.6901 169.64 62.6901" stroke="#2D1F04" stroke-width="8.0658" stroke-miterlimit="10" stroke-linecap="round" stroke-linejoin="round"/>
<path d="M89.85 66.76C89.85 66.76 82.12 66.6299 74.44 65.7699C67.54 64.9999 60.21 61.7399 56.48 61.8099C52.39 61.8899 40.94 67.7099 40.94 67.7099" stroke="#2D1F04" stroke-width="8.0658" stroke-miterlimit="10" stroke-linecap="round" stroke-linejoin="round"/>
<path d="M157.96 78.97C156.18 88.99 130.99 89.77 131.49 76.55C131.69 71.27 137.79 69.26 146.74 69.25C155.69 69.24 158.98 73.18 157.96 78.97Z" stroke="#2D1F04" stroke-width="3.2369" stroke-miterlimit="10" stroke-linecap="round" stroke-linejoin="round"/>
<path d="M79.51 81.9301C77.76 91.9601 55.34 93.1601 56.01 79.9701C56.28 74.7001 61.73 72.5901 69.7 72.4301C77.67 72.2701 80.52 76.1401 79.51 81.9301Z" stroke="#2D1F04" stroke-width="3.2369" stroke-miterlimit="10" stroke-linecap="round" stroke-linejoin="round"/>
<path d="M140.79 77.3401C140.79 75.1201 142.59 73.3201 144.81 73.3201C147.03 73.3201 148.83 75.1201 148.83 77.3401C148.83 79.5601 147.03 81.3601 144.81 81.3601C142.59 81.3501 140.79 79.5601 140.79 77.3401Z" fill="#2D1F04"/>
<path d="M64.67 80.8901C64.67 78.6701 66.47 76.8701 68.69 76.8701C70.91 76.8701 72.71 78.6701 72.71 80.8901C72.71 83.1101 70.91 84.9101 68.69 84.9101C66.46 84.9101 64.67 83.1101 64.67 80.8901Z" fill="#2D1F04"/>
<path d="M181.76 269.38C188.23 260.34 197.32 256.94 211.52 262.37" stroke="#2D1F04" stroke-width="2.7806" stroke-miterlimit="10" stroke-linecap="round" stroke-linejoin="round"/>
<path d="M72.48 275.49C61.08 274.84 47.72 272.62 29.08 264.77C10.02 256.73 3.14 249.78 2.29 241.1C1.54 233.47 10.19 200.71 24.58 182.77" stroke="#2D1F04" stroke-width="2.7806" stroke-miterlimit="10" stroke-linecap="round" stroke-linejoin="round"/>
<path d="M58.02 233.86C52.81 238.22 44.82 239.79 44.82 242.32C44.82 244.18 54.65 251.06 59.91 254.52" stroke="#2D1F04" stroke-width="2.7806" stroke-miterlimit="10" stroke-linecap="round" stroke-linejoin="round"/>
<path d="M64.25 141.97C53.67 145.76 42.87 155.72 28.58 174.66C26.85 176.95 20.81 182.31 26.68 183.43" stroke="#2D1F04" stroke-width="2.7806" stroke-miterlimit="10" stroke-linecap="round" stroke-linejoin="round"/>
<path d="M54.41 186.03C51.43 184 48.22 182.3 44.81 181.07" stroke="#2D1F04" stroke-width="2.7806" stroke-miterlimit="10" stroke-linecap="round" stroke-linejoin="round"/>
<path d="M68.91 269.71C67.89 261.98 73.42 259.68 73.38 257.96C73.35 256.53 64.03 252.34 61.75 253.22C58.21 254.58 58.06 261.34 59.98 263.38C59.72 265.68 61.51 271.06 64.96 273.23C68.4 275.41 70.27 272.02 68.91 269.71Z" stroke="#2D1F04" stroke-width="2.7806" stroke-miterlimit="10" stroke-linecap="round" stroke-linejoin="round"/>
<path d="M59.98 263.38C62.45 259.25 67.98 257.96 73.38 257.96" stroke="#2D1F04" stroke-width="2.7806" stroke-miterlimit="10" stroke-linecap="round" stroke-linejoin="round"/>
<path d="M225.5 231.33C225.65 238.37 225.3 245.64 224.29 253.1" stroke="#2D1F04" stroke-width="2.7806" stroke-miterlimit="10" stroke-linecap="round" stroke-linejoin="round"/>
<path d="M85.25 291.26C105.84 301.56 134.05 304.11 166.7 298.58C184.93 295.49 208.52 288.85 218.26 277.51" stroke="#2D1F04" stroke-width="2.7806" stroke-miterlimit="10" stroke-linecap="round" stroke-linejoin="round"/>
<path d="M47.25 182.05C46.12 183.02 45.22 184.77 44.81 186.03" stroke="#2D1F04" stroke-width="2.7806" stroke-miterlimit="10" stroke-linecap="round" stroke-linejoin="round"/>
<path d="M215.25 255.51C211.76 259.94 208.4 266.51 213.91 274.84" stroke="#2D1F04" stroke-width="2.7806" stroke-miterlimit="10" stroke-linecap="round" stroke-linejoin="round"/>
<path d="M215.18 215.16C216.63 220.9 218.65 225.74 223.66 229.93C228.87 234.29 239.46 237.84 239.12 240.36C238.65 243.83 232.25 250.3 219.61 255C211.93 257.86 202.93 248.63 190.95 255.51C184.58 259.17 182.01 266.83 181.76 269.38C181.5 271.93 189.72 263.45 207.29 273.1C214.62 277.12 219.17 272.97 231.3 272.15C240.47 271.53 250.82 269.81 260.06 265.92C279.12 257.88 285.59 246.31 286.44 237.63C287.19 230 274.05 199.1 257.34 179.03" stroke="#2D1F04" stroke-width="2.7806" stroke-miterlimit="10" stroke-linecap="round" stroke-linejoin="round"/>
<path d="M205.42 210.89C208 216.16 210.41 220.52 215.25 215.1C217.15 212.97 220.48 208.5 222.38 206.09" stroke="#2D1F04" stroke-width="2.7806" stroke-miterlimit="10" stroke-linecap="round" stroke-linejoin="round"/>
<path d="M185.09 202.38C188.51 203.19 193.92 205.11 198.1 207.01C201.78 208.69 204.39 210.36 205.71 211.26" stroke="#2D1F04" stroke-width="2.7806" stroke-miterlimit="10" stroke-linecap="round" stroke-linejoin="round"/>
<path d="M198.1 207.01C195.79 203.99 193.06 200.03 189.94 197.91" stroke="#2D1F04" stroke-width="2.7806" stroke-miterlimit="10" stroke-linecap="round" stroke-linejoin="round"/>
<path d="M171.48 168.46C171.9 166.18 172.5 163.69 173.37 161.13C174.26 158.45 175.43 155.71 176.95 153.07C177 152.98 177.05 152.9 177.11 152.81C180.92 146.29 186.87 140.46 196.01 138.01C215.46 132.78 229.59 139.45 253.35 170.94C255.08 173.23 261.12 178.58 255.24 179.71" stroke="#2D1F04" stroke-width="2.7806" stroke-miterlimit="10" stroke-linecap="round" stroke-linejoin="round"/>
<path d="M206.39 210.62C210.41 197.89 221.7 182.94 237.12 177.36" stroke="#2D1F04" stroke-width="2.7806" stroke-miterlimit="10" stroke-linecap="round" stroke-linejoin="round"/>
<path d="M210.71 202.47C211.97 203.61 213.09 204.27 214.6 205.09" stroke="#2D1F04" stroke-width="2.7806" stroke-miterlimit="10" stroke-linecap="round" stroke-linejoin="round"/>
<path d="M216.36 194.45L219.62 196.89" stroke="#2D1F04" stroke-width="2.7806" stroke-miterlimit="10" stroke-linecap="round" stroke-linejoin="round"/>
<path d="M222.39 187.56L224.95 190.67" stroke="#2D1F04" stroke-width="2.7806" stroke-miterlimit="10" stroke-linecap="round" stroke-linejoin="round"/>
<path d="M161.88 311.07C164.1 317.5 168.56 322.79 174.91 324.96C156.66 328.15 149.61 334.54 145.28 339.95C144.74 341.06 158.9 341.53 174.56 342.11C192.74 342.79 214.78 343.76 222.26 342.03C229.73 340.3 223.43 329.26 221.98 324.82C217.12 309.88 212.28 289.12 219.59 274.09" stroke="#2D1F04" stroke-width="2.7806" stroke-miterlimit="10" stroke-linecap="round" stroke-linejoin="round"/>
<path d="M90.14 296.35C88.06 303.6 93.28 318.98 98.82 324.38C85.88 323.97 70.36 335.93 69.3 336.89C64.77 341.02 66.18 341.31 69.3 341.31C72.42 341.31 97.41 340.04 110.61 339.82C115.97 339.73 122.53 339.42 127.86 339.24C131.09 339.12 146.36 339.03 144.01 333.52C141.22 326.94 137.87 317.93 137.52 312.83" stroke="#2D1F04" stroke-width="2.7806" stroke-miterlimit="10" stroke-linecap="round" stroke-linejoin="round"/>
<path d="M76.84 146.01L76.81 152" stroke="#9D7B51" stroke-width="4.1072" stroke-miterlimit="10" stroke-linecap="round" stroke-linejoin="round"/>
<path d="M246.63 245.22L246.6 251.2" stroke="#9D7B51" stroke-width="4.1072" stroke-miterlimit="10" stroke-linecap="round" stroke-linejoin="round"/>
<path d="M24.19 248.21L24.15 254.2" stroke="#9D7B51" stroke-width="4.1072" stroke-miterlimit="10" stroke-linecap="round" stroke-linejoin="round"/>
<path d="M29.45 252.37L29.41 258.36" stroke="#9D7B51" stroke-width="4.1072" stroke-miterlimit="10" stroke-linecap="round" stroke-linejoin="round"/>
<path d="M240.49 249.91L240.46 255.9" stroke="#9D7B51" stroke-width="4.1072" stroke-miterlimit="10" stroke-linecap="round" stroke-linejoin="round"/>
<path d="M83.23 149L83.19 154.99" stroke="#9D7B51" stroke-width="4.1072" stroke-miterlimit="10" stroke-linecap="round" stroke-linejoin="round"/>
<path d="M102.39 108.1C99.37 108.55 97.78 108.55 95.86 108.36" stroke="#2D1F04" stroke-width="3.2369" stroke-miterlimit="10" stroke-linecap="round" stroke-linejoin="round"/>
<path d="M56.86 179.15C56.86 181.07 58.05 182.36 60.56 182.76C63.41 183.21 64.87 180.92 65.12 178.74C65.38 176.37 64.34 173.6 65.54 172.2C67.84 169.54 68.41 161.28 67.59 157.99" stroke="#2D1F04" stroke-width="2.7806" stroke-miterlimit="10" stroke-linecap="round" stroke-linejoin="round"/>
<path d="M65.8 157.47C99.87 167.26 138.06 164.12 163.28 157.49C168.43 156.14 173.03 154.64 176.95 153.07C177.04 153.04 177.13 153 177.21 152.97" stroke="#2D1F04" stroke-width="2.7806" stroke-miterlimit="10" stroke-linecap="round" stroke-linejoin="round"/>
<path d="M179.67 146.01C176.25 149.47 177.45 154.74 182.14 158.06C186.82 161.38 212.18 180.45 225.55 200.7C238.92 220.95 243.17 228.55 251.68 223.73C260.19 218.91 271.64 211.93 277.66 211.34C283.68 210.75 283.68 204.49 279.26 197.92C274.83 191.34 246.25 147.18 224.97 136.41C203.69 125.64 191.41 134.13 179.67 146.01Z" fill="#FFDB1F"/>
<path opacity="0.23" d="M277.65 211.34C275.99 211.51 273.92 212.15 271.61 213.11V213.1C267.45 201.47 261.82 191.21 255.23 185.21C255.69 185.05 256.76 184.71 257.72 184.41C252.42 176.67 245.14 172.15 237.12 166.13C237.22 166.1 238.56 165.6 239.85 165.15C235.68 159.68 228.71 153.25 220.86 149.55C220.86 149.55 222.27 148.94 222.96 148.66C214.23 140.24 203.31 133.76 192.44 135.52C201.01 130.55 211.06 129.37 224.95 136.4C227.71 137.8 231.56 139.48 234.5 141.85C235.69 142.81 235.92 144.11 237.13 145.19C241.83 149.42 247.55 154.04 252.11 159.38C252.8 160.18 252.52 161.45 253.19 162.26C258.1 168.15 263.3 172.83 267.26 178.3C267.84 179.09 267.82 181.28 268.37 182.05C273.82 189.68 277.81 195.78 279.24 197.91C283.67 204.49 283.67 210.74 277.65 211.34Z" fill="#3F2719"/>
<path d="M65.68 149.6C54.39 163.6 38.79 186 29.42 205.68C25.53 213.84 22.8 220.44 14.11 218.89C6.64 217.56 2.5 213.68 4.03 208.83C5.56 203.98 16.06 180.87 27.52 165.68C39.1 150.31 49.19 141.39 63.32 134.62C63.23 135.41 63.17 136.2 63.43 136.72C63.64 137.14 64.64 135.63 64.7 136.09C64.96 138.17 64.71 140.57 64.49 142.62C64.4 143.4 63.51 145.49 64.06 144.93C64.25 144.75 64.77 142.99 65.54 143.25C65.78 143.33 65.77 146.48 65.68 149.6Z" fill="#FFDB1F"/>
<path opacity="0.23" d="M46.67 149.5C47.34 150 47.34 149.97 47.63 150.21C42.91 153.59 36.69 159.35 30.71 166.86C31.2 167.18 32.4 167.92 32.4 167.92C27.89 172.81 20.25 183.25 17.13 189.75C17.85 190.1 18.48 190.38 18.48 190.38C15.69 194.24 8.37 206.22 6.6 215.97C3.98 214.59 2.81 212.69 4.02 208.84C4.87 206.15 8.47 197.86 13.46 188.42C13.68 188 13.14 186.8 13.37 186.37C17.25 179.12 22.68 172.09 27.51 165.69C28 165.04 27.6 163.76 28.08 163.13C32.98 156.81 38.53 152.26 43.39 147.88C43.86 147.45 43.73 146.12 44.2 145.71C49.83 140.86 56.39 137.95 63.31 134.63C63.22 135.42 63.16 136.21 63.42 136.73C63.63 137.15 64.63 135.64 64.69 136.1C64.78 136.86 64.81 137.66 64.79 138.47C58.66 140.02 52.94 142.89 46.67 149.5Z" fill="#3F2719"/>
<path d="M65.68 149.6C62.94 152.99 59.95 156.88 56.86 161.1C56.32 161.84 55.39 162.23 54.84 162.99C51.3 167.89 48.05 173.56 44.54 179.02C44.1 179.7 43.15 180.12 42.71 180.8C38.84 186.92 35.66 193.47 32.45 199.62C32.21 200.08 31.46 200.45 31.22 200.91C30.41 202.48 26.45 212.05 24.77 214.41C22.32 217.85 19.26 219.8 14.11 218.88C6.64 217.55 2.5 213.67 4.03 208.82C4.88 206.13 8.48 197.84 13.47 188.4C13.7 187.97 13.15 186.78 13.38 186.35C17.27 179.1 22.7 172.07 27.52 165.67C28.01 165.02 27.61 163.74 28.09 163.11C32.98 156.78 38.53 152.23 43.4 147.85C43.87 147.43 43.74 146.09 44.21 145.68C49.84 140.83 56.4 137.92 63.32 134.6C63.23 135.39 63.17 136.18 63.43 136.7C63.64 137.12 64.64 135.61 64.7 136.07C64.96 138.15 64.71 140.55 64.49 142.6C64.4 143.38 63.51 145.47 64.06 144.91C64.25 144.73 64.77 142.97 65.54 143.23C65.78 143.33 65.77 146.48 65.68 149.6Z" stroke="#2D1F04" stroke-width="2.7806" stroke-miterlimit="10" stroke-linecap="round" stroke-linejoin="round"/>
<path d="M179.67 146.01C176.25 149.47 177.45 154.74 182.14 158.06C183.86 159.28 188.36 162.62 194.03 167.36C194.86 168.06 196.18 168.12 197.05 168.88C201.26 172.49 205.48 177.41 210.05 182.06C210.8 182.82 212.48 183.12 213.22 183.91C218.1 189.05 221.82 195.07 225.54 200.72C226.17 201.68 227.52 202.16 228.11 203.06C240.05 221.22 243.56 228.35 251.67 223.75C260.18 218.93 271.63 211.95 277.65 211.36C283.67 210.77 283.67 204.51 279.25 197.94C277.81 195.8 273.83 189.71 268.37 182.07C267.82 181.31 267.84 179.11 267.27 178.32C263.3 172.85 258.11 168.18 253.2 162.28C252.53 161.47 252.81 160.2 252.12 159.4C247.56 154.06 241.83 149.44 237.13 145.21C235.93 144.13 235.69 142.82 234.5 141.87C231.56 139.5 227.72 137.82 224.95 136.43C203.67 125.64 191.41 134.13 179.67 146.01Z" stroke="#2D1F04" stroke-width="2.7806" stroke-miterlimit="10" stroke-linecap="round" stroke-linejoin="round"/>
<path d="M194.02 167.36C199.98 160.58 222.55 145.52 237.12 145.2" stroke="#2D1F04" stroke-width="2.7806" stroke-miterlimit="10" stroke-linecap="round" stroke-linejoin="round"/>
<path d="M210.04 182.05C222.58 172.06 238.6 163.43 253.18 162.26" stroke="#2D1F04" stroke-width="2.7806" stroke-miterlimit="10" stroke-linecap="round" stroke-linejoin="round"/>
<path d="M225.54 200.7C235.35 193 253.9 183.87 268.37 182.05" stroke="#2D1F04" stroke-width="2.7806" stroke-miterlimit="10" stroke-linecap="round" stroke-linejoin="round"/>
<path d="M43.4 147.88C47.68 149.09 54.02 155.52 56.85 161.11" stroke="#2D1F04" stroke-width="2.7806" stroke-miterlimit="10" stroke-linecap="round" stroke-linejoin="round"/>
<path d="M27.67 165.21C32.28 167.38 41.42 173.71 44.63 179.1" stroke="#2D1F04" stroke-width="2.7806" stroke-miterlimit="10" stroke-linecap="round" stroke-linejoin="round"/>
<path d="M13.37 188.37C19.78 190.24 29.2 195.95 32.41 199.61" stroke="#2D1F04" stroke-width="2.7806" stroke-miterlimit="10" stroke-linecap="round" stroke-linejoin="round"/>
<path opacity="0.32" d="M184.54 147.17C182.88 149.08 183.65 152.15 186.97 154.83C190.29 157.51 193.99 158.69 198.11 156.28C202.67 153.61 208.1 149.66 210.05 147.81C211.97 145.99 210.89 143.34 206.4 140.66C201.91 137.98 196.62 138.5 193.67 140.15C190.82 141.75 186.19 145.26 184.54 147.17Z" fill="white"/>
<path opacity="0.32" d="M206.08 163.64C204.46 165.34 204.23 167.13 206.52 169.94C208.82 172.75 210.5 173.6 212.34 172.75C214.18 171.9 222.62 166.88 225.38 165.09C228.14 163.3 228.56 161.43 226.44 159.05C224.32 156.67 222.38 154.76 218.61 155.77C215 156.73 208.44 161.17 206.08 163.64Z" fill="white"/>
<path opacity="0.32" d="M223.17 186.7C226.15 191.37 229.72 191.37 237.12 187.21C242.76 184.03 245.73 181.44 242.24 176.15C239.9 172.6 236.99 171.11 230.05 175C220.71 180.23 220.97 183.24 223.17 186.7Z" fill="white"/>
<path opacity="0.32" d="M237.58 206.94C238.41 208.77 239.75 210.62 241.59 212.4C244.37 215.09 246.92 214.96 250.92 212.66C254.92 210.36 261.81 206.55 261.32 202.89C260.87 199.51 258.84 195.63 255.21 192.83C252.22 190.52 247.68 193.37 243.73 195.67C239.79 197.97 235.26 201.83 237.58 206.94Z" fill="white"/>
<path opacity="0.32" d="M53.13 151C54.49 152.32 56.4 153.04 58.08 151.81C59.77 150.58 61.8 148.62 62.39 147.6C62.65 147.15 62.57 145.43 61.42 144.11C60.27 142.79 58.67 142.79 56.62 144.11C54.58 145.43 50.37 148.32 53.13 151Z" fill="white"/>
<path opacity="0.32" d="M40.28 168.87C42.53 170.54 44.21 170.36 46.03 168.15C47.85 165.94 48.8 164.63 49.61 162.7C50.33 160.99 50.75 159.19 48.7 157.24C46.65 155.29 44.73 155.99 42.67 157.98C40.61 159.97 38.74 162.32 38.06 163.57C37.38 164.82 37.81 167.04 40.28 168.87Z" fill="white"/>
<path opacity="0.32" d="M34.92 175.71C36.9 177.24 37.12 179.5 35.47 182.52C33.82 185.54 31.65 189.69 27.94 187.97C24.23 186.25 23.92 183.95 26.73 180.12C29.54 176.29 31.82 173.31 34.92 175.71Z" fill="white"/>
<path opacity="0.32" d="M21.47 197.77C24.35 198.78 24.62 201.86 22.07 206.96C19.52 212.06 17.9 213.77 15.43 212.83C12.96 211.89 12.37 209.09 14.32 205C16.28 200.92 18.32 196.66 21.47 197.77Z" fill="white"/>
<path d="M151.33 172.26C152.3 172.92 152.94 174.03 152.94 175.3C152.94 177.32 151.3 178.96 149.28 178.96C148.52 178.96 147.82 178.73 147.23 178.33" stroke="#2D1F04" stroke-width="2.7806" stroke-miterlimit="10" stroke-linecap="round" stroke-linejoin="round"/>
<path d="M162.45 311.75C165.2 317.84 169.39 323.16 175.8 325.35" stroke="#2D1F04" stroke-width="2.7806" stroke-miterlimit="10" stroke-linecap="round" stroke-linejoin="round"/>
<path d="M160.79 81.8801C159.5 84.8501 157.26 87.5401 152.71 89.3501" stroke="#2D1F04" stroke-miterlimit="10" stroke-linecap="round" stroke-linejoin="round"/>
<path d="M55.17 87.7402C56.32 89.5902 58.94 92.3402 63.21 93.1002" stroke="#2D1F04" stroke-miterlimit="10" stroke-linecap="round" stroke-linejoin="round"/>
<path d="M66.38 40.1101C64.02 41.2901 58.51 38.3201 59.73 34.6101C59.85 34.2501 60.94 35.6301 63.69 35.5901C66.41 35.5501 68.01 34.4001 68.07 34.2101C68.24 33.7001 67.13 33.6401 66.6 33.5801C59.39 32.7801 55.65 24.1001 63.74 19.0801C63.98 18.9301 64.89 22.2801 66.97 23.7601C69.8 25.7601 73.97 25.9801 73.97 24.9501C67.87 20.9101 71.06 10.8201 79.65 9.29012C79.8 9.26012 77.78 17.7201 87.44 19.4801" stroke="#2D1F04" stroke-width="2.7806" stroke-miterlimit="10" stroke-linecap="round" stroke-linejoin="round"/>
<path d="M98.83 324.38C104.27 328.01 109.34 332.31 112.21 338.06" stroke="#2D1F04" stroke-width="2.7806" stroke-miterlimit="10" stroke-linecap="round" stroke-linejoin="round"/>
<path d="M174.92 324.96C183.05 328.21 190.95 334.33 194.84 342.11" stroke="#2D1F04" stroke-width="2.7806" stroke-miterlimit="10" stroke-linecap="round" stroke-linejoin="round"/>
<path d="M68.54 340.06C73.53 335.93 95.97 327.6 104.34 329.05" stroke="#2D1F04" stroke-width="2.7806" stroke-miterlimit="10" stroke-linecap="round" stroke-linejoin="round"/>
<path d="M147.46 339.96C155.2 336.01 164.7 333.25 174 332.13C178.07 331.64 182.11 331.47 185.94 331.65" stroke="#2D1F04" stroke-width="2.7806" stroke-miterlimit="10" stroke-linecap="round" stroke-linejoin="round"/>
<g opacity="0.23">
<path d="M218.62 116.19C219.39 116.88 220.14 117.53 220.86 118.21C221.45 118.77 221.34 119.36 221.06 119.79C220.66 120.37 220.11 120.54 219.43 120.29C219.39 120.28 219.36 120.26 219.29 120.23C219.64 121.1 219.17 121.86 219.07 122.73C218.63 122.35 218.23 122.01 217.81 121.66C217.92 121.13 218.04 120.59 218.15 120.05C218.21 119.75 218.2 119.48 217.85 119.28C217.46 119.74 217.06 120.2 216.65 120.68C216.27 120.36 215.93 120.07 215.58 119.76C216.58 118.57 217.57 117.4 218.62 116.19ZM219.06 117.86C218.86 118.1 218.67 118.32 218.44 118.59C218.69 118.78 218.92 118.98 219.17 119.14C219.39 119.28 219.61 119.24 219.76 119.07C219.92 118.89 219.93 118.65 219.73 118.44C219.54 118.24 219.3 118.06 219.06 117.86Z" fill="#3F2719"/>
<path d="M224.26 122.77C223.89 122.49 223.55 122.24 223.2 121.97C223.4 121.62 223.36 121.31 223.07 121.05C222.88 120.88 222.67 120.8 222.44 120.96C222.3 121.14 222.37 121.3 222.48 121.46C222.68 121.75 222.89 122.03 223.08 122.31C223.19 122.47 223.28 122.64 223.36 122.82C223.88 123.93 222.96 124.89 221.98 124.81C221.66 124.78 221.32 124.66 221.04 124.5C220.58 124.23 220.19 123.87 219.88 123.42C219.48 122.84 219.52 122.12 219.99 121.53C220.33 121.79 220.68 122.06 221.04 122.33C221 122.42 220.97 122.5 220.94 122.58C220.78 123.02 221 123.49 221.45 123.64C221.65 123.71 221.84 123.69 221.99 123.54C222.12 123.39 222.13 123.2 222.04 123.03C221.97 122.88 221.87 122.74 221.78 122.6C221.59 122.31 221.38 122.03 221.22 121.72C220.91 121.13 220.96 120.58 221.32 120.2C221.72 119.77 222.32 119.67 222.93 119.96C223.5 120.23 223.97 120.63 224.32 121.16C224.68 121.72 224.66 122.2 224.26 122.77Z" fill="#3F2719"/>
<path d="M218.62 116.19C219.39 116.88 220.14 117.53 220.86 118.21C221.45 118.77 221.34 119.36 221.06 119.79C220.66 120.37 220.11 120.54 219.43 120.29C219.39 120.28 219.36 120.26 219.29 120.23C219.64 121.1 219.17 121.86 219.07 122.73C218.63 122.35 218.23 122.01 217.81 121.66C217.92 121.13 218.04 120.59 218.15 120.05C218.21 119.75 218.2 119.48 217.85 119.28C217.46 119.74 217.06 120.2 216.65 120.68C216.27 120.36 215.93 120.07 215.58 119.76C216.58 118.57 217.57 117.4 218.62 116.19ZM219.06 117.86C218.86 118.1 218.67 118.32 218.44 118.59C218.69 118.78 218.92 118.98 219.17 119.14C219.39 119.28 219.61 119.24 219.76 119.07C219.92 118.89 219.93 118.65 219.73 118.44C219.54 118.24 219.3 118.06 219.06 117.86Z" fill="black"/>
<path d="M224.26 122.77C223.89 122.49 223.55 122.24 223.2 121.97C223.4 121.62 223.36 121.31 223.07 121.05C222.88 120.88 222.67 120.8 222.44 120.96C222.3 121.14 222.37 121.3 222.48 121.46C222.68 121.75 222.89 122.03 223.08 122.31C223.19 122.47 223.28 122.64 223.36 122.82C223.88 123.93 222.96 124.89 221.98 124.81C221.66 124.78 221.32 124.66 221.04 124.5C220.58 124.23 220.19 123.87 219.88 123.42C219.48 122.84 219.52 122.12 219.99 121.53C220.33 121.79 220.68 122.06 221.04 122.33C221 122.42 220.97 122.5 220.94 122.58C220.78 123.02 221 123.49 221.45 123.64C221.65 123.71 221.84 123.69 221.99 123.54C222.12 123.39 222.13 123.2 222.04 123.03C221.97 122.88 221.87 122.74 221.78 122.6C221.59 122.31 221.38 122.03 221.22 121.72C220.91 121.13 220.96 120.58 221.32 120.2C221.72 119.77 222.32 119.67 222.93 119.96C223.5 120.23 223.97 120.63 224.32 121.16C224.68 121.72 224.66 122.2 224.26 122.77Z" fill="black"/>
</g>
</g>
<defs>
<clipPath id="clip0_202_627">
<rect width="288" height="345" fill="white"/>
</clipPath>
</defs>
</svg>
