<svg width="299" height="342" viewBox="0 0 299 342" fill="none" xmlns="http://www.w3.org/2000/svg">
<g clip-path="url(#clip0_202_1273)">
<path d="M278.99 190.23C260.68 154.4 232.77 117.52 231.14 110.03C224.1 77.57 217.89 43.46 172.16 20.72C159.35 14.34 132.02 7.63002 131.75 7.76002C130.26 8.51002 134.27 12.11 134.27 12.11C134.27 12.11 126.44 11.42 120.91 10.95C115.76 10.52 107.89 8.70002 105.91 2.27002C101.37 6.06002 105.7 11 107.05 13.71C101.67 10.2 95.16 9.89002 88.59 11.6C83.04 13.05 80.4 16.1 80.52 16.22C81.34 17.04 91.73 16.2 91.73 18.51C88.21 18.25 84.1 18.8 79.2 20.72C73.93 22.79 71.37 27.41 71.67 27.63C72.61 28.33 75.7 26.86 78.5 26.87C82.1 26.88 85.43 28.26 85.33 28.57C85.2 28.96 84.58 28.93 84.18 29.03C73.91 31.53 67.65 36.89 66.37 43.46C72.5 37.53 77.1 35.17 85.1 34.29C79.84 37.79 76.14 43.1 73.21 48.47C62.54 67.94 61.37 85.26 69.93 111.52C70.83 114.29 70.94 120.22 70.11 124.53C72.63 124.31 73.11 119.92 74.19 122.05C75.28 124.18 74.68 128.81 73.59 133.21C76.84 133.78 77.3 127.61 78.26 129.79C79.22 131.96 77.92 136.76 77.29 138.38C79.59 138.7 80.37 135.34 80.58 137.21C80.67 138 80.72 138.78 80.72 139.55C64.24 153.39 60.62 168.3 43.08 194.69C25.46 221.2 28.78 235.08 38.29 242.13C42.68 245.38 47.62 247.43 52.75 248.65C30.49 248.66 21.1 268.43 27.06 283.34C28.52 286.99 31.76 291.19 35.48 293.11C17.37 301.99 -0.08 319.5 1.58 319.5C33.66 319.5 58.86 328.13 74.86 320.13C78.57 318.28 80.91 314.18 81.62 309.69C84.99 309.76 97.05 311.77 109.56 314.4C120.28 316.65 126.84 316.15 135.21 315.36C124.25 326.44 112.94 339.64 113.23 339.94C114.34 341.04 143.33 341.4 162.06 332.35C169.72 328.65 174.17 326.64 184.41 327.61C210.86 330.12 249.74 333.66 261.98 322.32C278.96 306.6 270.63 289.28 257.03 283.5C249.96 280.49 242.77 278.78 235.98 277.91C313.15 287.28 303.84 238.85 278.99 190.23Z" fill="#CAA77A"/>
<path d="M72.6 174.09C69.09 194.7 73.54 198.41 73.33 202.13C72.97 208.63 68.86 213.45 65.01 218.6C62.81 221.54 60.69 224.58 59.39 228.09C57.58 233 56.48 241.28 58.94 246.4C58.82 246.4 55.07 247.72 52.47 248.6C47.43 247.38 42.57 245.34 38.26 242.14C28.75 235.09 25.43 221.21 43.05 194.7C60.67 168.2 63.62 153.85 80.27 139.96C80.36 140.14 80.58 140 80.82 139.78C80.79 141.02 80.63 142.36 80.34 143.83C78.34 153.83 74.3 164.06 72.6 174.09Z" fill="#CAA77A"/>
<path opacity="0.23" d="M92.95 287C91.87 283.73 91.34 271.19 88.27 270.11C78.41 266.68 60.36 285.04 46.18 281.95C39.84 280.57 31.65 276.71 29.43 270.18C28.96 268.81 27.51 265.42 27.61 263.78C24.83 270.77 24.69 280.26 28.69 287.21C31.72 292.46 35.84 292.8 35.47 292.86C26.69 297.25 5.57 312.06 2.2 319.23C8.5 319.53 18.44 320.2 21.26 320.46C34.75 321.68 64.17 327.7 75.65 319.98C79.54 317.36 81.16 313.73 81.6 309.7C87.2 309.65 98.01 311.81 109.54 314.41C116.75 316.04 126.07 316.98 135.19 315.37C144.99 305.45 157.16 294.23 174.77 286.98C149.97 293.8 143.55 303.34 137.72 305.08C126.64 308.4 99.31 306.2 92.95 287Z" fill="#3F2719"/>
<path d="M165.7 330.64C164.54 331.16 163.33 331.74 162.03 332.37C143.31 341.42 114.31 341.06 113.2 339.95C112.82 339.57 133.99 315.36 145.65 305.45L146.06 306.13C149.09 311.69 155.13 324.65 165.7 330.64Z" fill="#B6B1AE"/>
<path d="M118.33 247.83C107.68 249.49 103.86 247.87 97.54 246.99C99.27 241.62 99.21 233.8 97.42 228.96C103.45 226.83 111.98 231.16 121.61 231.17C128.96 231.18 134.23 228.36 134.8 231.53C135.01 232.7 129.71 246.04 118.33 247.83Z" fill="#B6B1AE"/>
<path d="M185.2 245.01C181.93 249.37 179.02 254.95 178.82 261.87C172.59 260.5 168.44 260.69 159.03 255.42C148.99 249.79 148.66 235.44 149.27 234.41C150.9 231.65 154.86 236.11 161.75 238.67C170.79 242.01 180.5 240.67 185.2 245.01Z" fill="#B6B1AE"/>
<path d="M274.92 182.47C263.13 160.82 248.79 139.59 239.8 125.5C238.58 129.29 238.46 129.29 239.68 125.5C239.68 125.49 239.68 125.49 239.69 125.48C241.19 120.83 240.17 118.03 238.83 116.05C235.67 111.39 231.77 106.71 231.08 110C231.08 110.01 231.07 110.03 231.07 110.04C222.71 153.92 174.97 165.24 139.34 165.22C108.29 165.21 91.77 157.73 79.68 146.65L79.67 146.64C79.9 145.7 80.1 144.76 80.29 143.83C80.53 142.5 80.65 141.19 80.65 139.88C80.46 140.04 80.29 140.11 80.22 139.96C79.97 140.17 79.72 140.38 79.47 140.59C79.35 140.69 79.24 140.79 79.13 140.89C67.35 151.35 62.34 162.59 52.75 179.05C52.73 179.04 52.72 179.03 52.7 179.02C51.55 178.4 49.18 180.84 48.23 182.2C47.46 183.3 45.97 185.94 47.49 187.57C51.91 192.32 63.08 200.43 70.62 210.53C70.64 210.5 70.66 210.46 70.68 210.43C70.71 210.38 70.74 210.33 70.77 210.27C70.82 210.19 70.86 210.11 70.9 210.02C71.03 209.8 71.15 209.58 71.25 209.35C71.34 209.18 71.42 209.01 71.5 208.84C71.59 208.67 71.67 208.49 71.74 208.32C71.83 208.14 71.9 207.97 71.97 207.79C72.04 207.61 72.11 207.44 72.17 207.26C72.22 207.13 72.27 207.01 72.31 206.88C72.4 206.65 72.48 206.41 72.55 206.17C72.63 205.91 72.71 205.65 72.77 205.38C72.8 205.27 72.83 205.17 72.85 205.06C72.92 204.78 72.98 204.49 73.03 204.2C73.09 203.92 73.13 203.63 73.17 203.33C73.18 203.26 73.19 203.18 73.2 203.1C73.23 202.78 73.26 202.46 73.28 202.13C73.32 201.37 73.17 200.62 72.94 199.72C72.93 199.7 72.93 199.69 72.92 199.67C72.85 199.4 72.77 199.12 72.69 198.82C72.61 198.53 72.52 198.22 72.43 197.9C72.42 197.84 72.4 197.78 72.38 197.71C72.3 197.39 72.21 197.04 72.12 196.67C72.07 196.49 72.03 196.29 71.99 196.1C71.99 196.08 71.99 196.06 71.98 196.04C71.93 195.82 71.89 195.6 71.84 195.36C71.71 194.66 71.58 193.9 71.48 193.04C71.41 192.47 71.35 191.87 71.31 191.22C71.27 190.72 71.25 190.19 71.23 189.64C71.22 189.38 71.21 189.12 71.21 188.85C71.19 188.15 71.2 187.4 71.22 186.61C71.22 186.19 71.24 185.75 71.26 185.3C71.28 185 71.29 184.69 71.31 184.38C71.34 183.86 71.38 183.32 71.43 182.76C71.51 181.79 71.63 181.79 71.55 182.76C71.5 183.32 71.47 183.86 71.43 184.38C71.41 184.69 71.4 185 71.38 185.3C71.36 185.75 71.35 186.18 71.34 186.61C71.32 187.4 71.31 188.15 71.33 188.85C71.33 189.12 71.34 189.38 71.35 189.64C71.37 190.19 71.39 190.72 71.43 191.22C71.48 191.86 71.53 192.47 71.6 193.04C71.7 193.9 71.83 194.66 71.96 195.36C72.01 195.6 72.05 195.82 72.1 196.04C72.11 196.06 72.11 196.08 72.11 196.1C72.16 196.3 72.2 196.48 72.24 196.67C72.33 197.04 72.42 197.39 72.5 197.71C72.52 197.78 72.54 197.84 72.55 197.9C72.64 198.22 72.73 198.53 72.81 198.82C72.89 199.12 72.97 199.4 73.04 199.67C73.05 199.69 73.05 199.7 73.06 199.72C73.29 200.62 73.44 201.37 73.4 202.13C73.38 202.46 73.35 202.78 73.32 203.1C73.31 203.18 73.3 203.26 73.29 203.33C73.25 203.63 73.21 203.92 73.15 204.2C73.1 204.49 73.04 204.78 72.97 205.06C72.95 205.17 72.92 205.27 72.89 205.38C72.83 205.65 72.75 205.91 72.67 206.17C72.6 206.41 72.52 206.65 72.43 206.88C72.39 207.01 72.35 207.13 72.29 207.26C72.23 207.44 72.16 207.61 72.09 207.79C72.02 207.97 71.95 208.14 71.86 208.32C71.79 208.49 71.71 208.67 71.62 208.84C71.55 209.01 71.47 209.18 71.37 209.35C71.27 209.58 71.15 209.8 71.02 210.02C70.98 210.11 70.94 210.19 70.89 210.27C70.86 210.33 70.83 210.38 70.8 210.43C70.78 210.47 70.77 210.5 70.75 210.53H70.74C70.67 210.68 70.58 210.83 70.49 210.97C70.32 211.27 70.14 211.56 69.95 211.86C69.54 212.52 69.1 213.17 68.64 213.81C68.42 214.13 68.19 214.45 67.95 214.77C67.5 215.4 67.02 216.02 66.55 216.65C66.06 217.3 65.57 217.95 65.08 218.6C71.56 225.64 86.64 232.78 97.42 228.97C103.45 226.84 111.98 231.17 121.61 231.18C128.96 231.19 134.23 228.37 134.8 231.54C135.01 232.71 129.71 246.05 118.33 247.84C107.68 249.5 103.86 247.88 97.54 247C93.53 246.45 75.83 251.88 58.54 249.69C71.45 251.67 81.66 256.76 87.55 263.79C87.56 263.8 87.56 263.8 87.57 263.81C97 274.43 103.21 287.1 124.82 288.98C146.13 290.84 156.74 289.73 169.76 285.13C182.59 280.61 199.16 273.24 234.46 277.73C207.24 274.12 184.29 263.1 178.82 261.88C172.59 260.51 168.44 260.7 159.03 255.43C148.99 249.8 148.66 235.45 149.27 234.42C150.9 231.66 154.86 236.12 161.75 238.68C170.79 242.02 180.5 240.68 185.2 245.02C198.1 256.94 229.55 249.93 235 240.48C237.71 235.78 236.41 229.56 233.1 222.3C232.78 222.93 232.4 223.17 231.99 223.15C232.36 223.12 232.7 222.87 232.98 222.3V222.29C243.73 199.87 274.48 192.62 279.46 191.32C279.47 191.32 279.47 191.32 279.48 191.31C283.68 190.09 278.64 182.75 274.92 182.47Z" fill="#FFDB1F"/>
<path d="M71.84 71.57C74.15 62.18 78.31 58.45 86.71 56.9C96.58 55.08 99.7 40.13 109.24 39.74C111.01 39.67 115.14 38.78 116.01 37.12C118.71 31.98 112.5 29.8 115.59 30.38C118.68 30.97 138.46 37.84 145.2 38.58C164.61 40.72 182.73 44.43 194.25 65.3C196.84 69.99 203.08 85.47 200.37 97.45C196.43 114.9 194.38 122.22 175.44 135.3C152.94 150.83 93.07 146.2 79.27 120.81C79.63 101.02 67.53 89.09 71.84 71.57Z" fill="#FFDBAF"/>
<path d="M125.81 95.79C117.96 91.87 109.05 107.4 108.68 118.35C107.92 140.81 138.46 146.29 155.59 135.07C173.44 123.38 151.9 88.9899 138.26 94.4499" fill="#9D7B51"/>
<path d="M71.72 67.2701C64.28 83.3601 73.83 115.72 80.22 122.05C87.74 119.66 93.78 116.52 98.59 112.85C129.5 89.3201 110 44.4201 107.89 42.3101C106.52 40.9401 90.03 43.4601 78.26 57.1301C75.62 60.2001 73.24 63.9801 71.72 67.2701Z" fill="#9D7B51"/>
<path d="M148.24 41.4599C134.17 109.38 189.61 123.62 195.09 115.68C198.6 110.59 205.53 86.7299 196.34 70.6499C195.44 69.0799 190.45 59.3499 181.28 51.4499C169.74 41.4999 149.44 34.2899 148.24 41.4599Z" fill="#9D7B51"/>
<path d="M93.1 143.31L93.06 149.82" stroke="#9D7B51" stroke-width="3.87" stroke-miterlimit="10" stroke-linecap="round" stroke-linejoin="round"/>
<path d="M99.5 146.64L99.46 153.15" stroke="#9D7B51" stroke-width="3.87" stroke-miterlimit="10" stroke-linecap="round" stroke-linejoin="round"/>
<path d="M143.33 38.25C182.09 38.64 201.17 77.65 201.17 77.65" stroke="#2D1F04" stroke-width="7.6" stroke-miterlimit="10" stroke-linecap="round" stroke-linejoin="round"/>
<path d="M110.12 41.5701C69.81 45.8801 62.22 91.5501 62.22 91.5501" stroke="#2D1F04" stroke-width="7.6" stroke-miterlimit="10" stroke-linecap="round" stroke-linejoin="round"/>
<path d="M120.27 96.4299C120.12 93.4799 125.92 90.7999 133.21 90.4399C140.5 90.0799 146.53 92.1899 146.68 95.1399C146.83 98.0899 141.03 100.77 133.74 101.13C126.45 101.49 120.42 99.3799 120.27 96.4299Z" fill="#251707"/>
<path d="M32.59 294.87C27.66 299.8 14.07 306.05 7.99 311.48C6.27 313.02 2 316.63 2.21 319.23C2.27 320.05 2.89 319.7 3.32 319.65C8.12 319.11 15.35 318.61 20.1 319.41C24.83 320.2 44.5 325.77 47.58 322.85C48.93 321.56 48.44 319.33 48.2 317.77C46.86 309.22 41.37 303.58 35.58 297.5C34.75 296.62 33.39 294.07 32.59 294.87Z" fill="#D2D2D2"/>
<path opacity="0.23" d="M203.85 214.43C199.45 215.03 198.14 226.53 174.35 222.33C160.29 219.85 151.27 213.53 142.79 211.49C136.41 209.96 133.81 213 123.6 213.12C115.78 213.22 105.36 212.18 97.69 209.97C86.05 206.61 78.35 201.91 76.92 205.2C73.81 212.39 96.17 217.19 116.75 217.8C128.82 218.15 138.38 214.38 141.51 215.59C155.15 220.87 171.14 230.58 187.89 229.04C197.25 228.18 212.42 213.25 203.85 214.43Z" fill="#3F2719"/>
<path d="M134.37 117.72C127.05 117.72 117.15 123.67 121.21 127.57C125.1 131.3 128.41 122.11 135.36 122.11C142.31 122.11 143.3 130.14 148.02 126.66C152.74 123.18 145.05 117.72 134.37 117.72Z" fill="#2D1F04"/>
<path d="M222.49 291.44L222.44 297.94" stroke="#9D7B51" stroke-width="3.87" stroke-miterlimit="10" stroke-linecap="round" stroke-linejoin="round"/>
<path d="M228.88 294.77L228.84 301.27" stroke="#9D7B51" stroke-width="3.87" stroke-miterlimit="10" stroke-linecap="round" stroke-linejoin="round"/>
<path d="M261.52 211.73L261.48 218.24" stroke="#9D7B51" stroke-width="3.87" stroke-miterlimit="10" stroke-linecap="round" stroke-linejoin="round"/>
<path d="M267.91 215.06L267.87 221.57" stroke="#9D7B51" stroke-width="3.87" stroke-miterlimit="10" stroke-linecap="round" stroke-linejoin="round"/>
<path opacity="0.23" d="M261.93 322.34C261.11 323.09 260.18 323.78 259.14 324.41C255.5 326.61 250.56 328.06 244.8 328.95C234.72 330.52 222.16 330.4 209.77 329.69C209.76 329.7 209.75 329.7 209.75 329.69C206.21 329.48 202.68 329.23 199.23 328.95C199.22 328.96 199.21 328.96 199.2 328.95C197.48 328.81 195.78 328.66 194.11 328.52H194.08C192.4 328.37 190.76 328.22 189.14 328.07C187.51 327.92 185.91 327.77 184.36 327.62C179.99 327.21 176.67 327.34 173.7 327.92C169.73 328.68 166.39 330.24 162 332.36C156.53 335 150.19 336.85 143.92 338.1C130.27 340.83 116.97 340.78 113.84 340.17C113.5 340.1 113.29 340.03 113.21 339.95C113.15 339.89 113.53 339.36 114.23 338.45C114.25 338.42 114.27 338.4 114.3 338.37C114.42 338.23 114.55 338.07 114.68 337.9C115.42 337 116.41 335.83 117.58 334.46C117.9 334.09 118.24 333.71 118.58 333.31C118.87 332.98 119.17 332.64 119.47 332.29H119.48C132.23 332.7 147.02 326.92 158.77 319.94C170.51 312.96 180.56 311.94 193.32 314.41C206.09 316.87 232.13 319.43 247.79 311.18C257.47 306.09 257.15 294.69 250 287.86C243.57 281.72 226.53 278.68 206.39 278.68C213.06 277.48 224 276.36 236.21 277.95C236.7 278.02 237.2 278.09 237.7 278.16C238.4 278.27 239.1 278.38 239.8 278.5C239.81 278.5 239.81 278.5 239.82 278.5C241.12 278.73 242.42 278.99 243.74 279.28C244.2 279.39 244.66 279.5 245.12 279.6C245.81 279.77 246.5 279.95 247.19 280.13C248.65 280.53 250.12 280.97 251.58 281.46C251.94 281.58 252.3 281.71 252.66 281.83C253.02 281.96 253.38 282.09 253.74 282.22C254.1 282.36 254.46 282.49 254.82 282.63C255.54 282.91 256.26 283.2 256.98 283.51C270.58 289.3 278.91 306.61 261.93 322.34Z" fill="#3F2719"/>
<path opacity="0.23" d="M280.37 191.01C280.36 191.01 280.35 191.02 280.34 191.02C280.33 191.03 280.33 191.03 280.32 191.03C278.29 191.56 271.98 193.08 264.48 196.21C272.15 194.74 276.23 201.55 282.96 223.94C286.63 236.14 287 245.02 284.96 250.66C282.11 258.54 270.36 263.79 257 265.3C239.98 267.23 223.81 265.9 210.11 263.5C199.84 261.71 194.6 260.68 179.3 256.19C164.01 251.7 152.11 241.85 150.13 234.13C149.52 235.16 149.85 249.51 159.89 255.14C169.3 260.41 173.45 260.22 179.68 261.59C185.15 262.81 208.1 273.83 235.32 277.44C235.68 277.49 236.14 277.55 236.83 277.64C313.44 286.93 304.82 239.27 280.37 191.01Z" fill="#3F2719"/>
<path opacity="0.23" d="M62.53 215.13C64.74 211.34 72.44 203.22 68.97 192.47C70 193.74 71.85 196.15 72.26 197.25C72.67 198.35 73.54 200.82 73.22 202.83C72.89 204.84 71.9 208.86 70.27 211.33C68.64 213.8 66.57 216.65 65.08 218.59C64.24 217.73 63.47 216.57 62.53 215.13Z" fill="#3F2719"/>
<path opacity="0.23" d="M118.26 247.83C107.61 249.49 103.79 247.87 97.46 246.99C91.81 246.21 58.83 257.38 38.26 242.13C29.4 235.56 25.91 223.06 39.74 199.93C33.73 212.74 30.47 222.06 39.06 230.36C45.31 236.4 54.37 241.21 69.52 241.46C84.66 241.72 95.01 239.81 108.54 239.42C121.76 239.05 129.41 235.62 134.38 230.71C134.55 230.92 134.66 231.19 134.72 231.53C134.93 232.7 129.63 246.04 118.26 247.83Z" fill="#3F2719"/>
<path opacity="0.23" d="M231.12 110C231.11 110.02 231.1 110.04 231.1 110.06C228.45 123.97 221.85 134.61 212.92 142.65C219.2 93.89 200.91 57.97 179.63 41.59C165.42 30.6501 150.58 26.12 137.1 25.19C135.63 25.09 130.23 24.4201 130.9 22.6301C128.46 22.6 127.92 25.0601 125.6 25.2401C123.25 25.4201 120.85 20.91 115.89 22.35C118.11 23.18 116.32 25.8801 113.67 27.0601C111.5 28.0301 107.51 27.47 107.47 25.3C105.81 27.03 107.27 28.7601 106.06 29.1501C104.53 29.6401 99.47 25.39 96.49 28.75C100.28 28.96 99.19 31.7001 98.03 32.2201C88.51 36.4501 80.98 42.06 73.22 48.46C76.15 43.1 79.84 37.8101 85.09 34.32C77.09 35.2001 72.49 37.5601 66.36 43.4901C67.64 36.9201 73.9 31.5601 84.17 29.0601C84.57 28.9601 85.19 28.99 85.32 28.6C85.42 28.29 82.09 26.9101 78.49 26.9001C75.69 26.8901 72.6 28.3601 71.66 27.66C71.36 27.4401 73.92 22.82 79.19 20.75C84.09 18.83 88.2 18.2801 91.72 18.5401C91.72 16.2301 81.33 17.07 80.51 16.25C80.39 16.13 83.03 13.08 88.58 11.63C95.15 9.92005 101.66 10.23 107.04 13.74C105.69 11.03 101.36 6.09005 105.9 2.30005C107.88 8.73005 115.75 10.55 120.9 10.98C126.43 11.45 134.26 12.14 134.26 12.14C134.26 12.14 130.25 8.54005 131.74 7.79005C132.01 7.66005 159.34 14.37 172.15 20.75C217.85 43.48 224.08 77.56 231.12 110Z" fill="#3F2719"/>
<path opacity="0.23" d="M239.7 125.47C239.69 125.48 239.69 125.48 239.69 125.49C239.03 127.55 235.94 138.86 223.93 150.28C225.32 143.34 223.36 139.12 217.34 138.17C224.01 130.77 228.89 121.52 231.08 110.03C231.08 110.02 231.09 110 231.09 109.99C231.78 106.7 235.68 111.38 238.84 116.04C240.18 118.02 241.2 120.82 239.7 125.47Z" fill="#3F2719"/>
<path opacity="0.23" d="M279.49 191.13C279.48 191.14 279.48 191.14 279.47 191.14C277.32 191.7 270.6 193.58 262.41 197.02C262.44 191.41 260.56 188.35 256.38 188C256.05 188.14 255.4 188.43 255.16 188.54C246.89 169.68 237.6 158.32 227.94 146.07C236.75 136.13 239.23 127.13 239.81 125.32C248.79 139.41 263.14 160.65 274.92 182.29C278.64 182.57 283.68 189.91 279.49 191.13Z" fill="#3F2719"/>
<path opacity="0.23" d="M212.89 187.11C215.07 195.94 223.81 220.08 227.27 230.36C230.92 241.23 224.56 250.03 209.76 251.11C218.54 250.15 224.06 248.65 227.95 246.26C231.83 243.87 235.43 241.66 235.95 238.03C236.47 234.4 236.61 232 235.68 229.2C234.75 226.4 233.66 223.27 233.25 222.6C232.84 221.93 232.58 223.49 231.31 223.31C230.03 223.13 228.77 222.16 228.06 219.05C227.35 215.94 227.23 214.69 227.52 212.85C227.81 211.01 227.2 210.64 226.02 208.76C224.84 206.88 217.02 194.25 212.89 187.11Z" fill="#3F2719"/>
<path opacity="0.23" d="M149.94 242.67C150.79 252.06 155.65 257.97 163.95 261.87C172.25 265.77 176.52 264.61 185.2 267.93C193.88 271.25 198.02 274.31 199.09 277.21C202.29 276.85 216.4 275.55 230.63 277.16C217.74 274.78 209.57 272.76 200.69 269.64C191.81 266.53 183.91 263.74 180.91 262.72C177.91 261.7 171.08 261.06 164.51 258.06C157.94 255.06 152.99 252.24 149.94 242.67Z" fill="#3F2719"/>
<path opacity="0.23" d="M138.19 279.09C132.56 280.05 122.32 281.98 114.59 279.49C102.45 275.58 102.45 263.78 86.29 252.3C81.56 253.45 77.42 255.25 80.42 257.54C71.91 252.35 64.42 250.84 59.64 249.55C64.56 250.02 65.51 249.89 75.72 249.55C85.93 249.21 93.34 246.76 97.05 246.95C100.76 247.15 102.66 249.06 113.2 248.59C123.75 248.13 127.04 244.02 131.52 238.46C126.67 249.11 119.25 251.17 112.54 251.71C105.83 252.25 98.96 250.4 94.1 250.93C92.38 251.12 89.55 251.54 86.83 252.17C97.1 256.8 103.12 267 116.05 273.63C121.71 276.54 129.49 277.4 138.19 279.09Z" fill="#3F2719"/>
<path opacity="0.23" d="M32.59 294.87C24.58 298.69 14.18 306.66 8.11 312.09C6.39 313.63 2.21 317.96 2.21 319.23C2.21 320.06 2.89 319.7 3.32 319.65C8.12 319.11 15.35 318.61 20.1 319.41C24.83 320.2 44.5 325.77 47.58 322.85C48.93 321.56 48.44 319.33 48.2 317.77C46.86 309.22 41.37 303.58 35.58 297.5C34.75 296.62 33.39 294.07 32.59 294.87Z" fill="#3F2719"/>
<path d="M258.52 187.11C245.61 192.25 234.56 200.62 227.95 211.9C226.33 214.45 228.03 219.26 228.73 220.85C229.43 222.45 231.67 224.62 233.11 222.29M271.24 193.67C275.18 192.38 278.18 191.65 279.47 191.31C279.48 191.31 279.48 191.31 279.49 191.3C282.1 190.62 281.32 188.64 280.11 186.83C279.05 185.23 276.91 182.18 274.88 182.49M70.62 210.52C70.64 210.49 70.66 210.45 70.68 210.42C70.71 210.37 70.74 210.32 70.77 210.26C70.82 210.18 70.86 210.1 70.9 210.01C71.03 209.79 71.15 209.57 71.25 209.34C71.34 209.17 71.42 209 71.5 208.83C71.59 208.66 71.67 208.48 71.74 208.31C71.83 208.13 71.9 207.96 71.97 207.78C72.04 207.6 72.11 207.43 72.17 207.25C72.22 207.12 72.27 207 72.31 206.87C72.4 206.64 72.48 206.4 72.55 206.16C72.63 205.9 72.71 205.64 72.77 205.37C72.8 205.26 72.83 205.16 72.85 205.05C72.92 204.77 72.98 204.48 73.03 204.19C73.09 203.91 73.13 203.62 73.17 203.32C73.18 203.25 73.19 203.17 73.2 203.09C73.23 202.77 73.26 202.45 73.28 202.12C73.32 201.36 73.17 200.61 72.94 199.71C72.93 199.69 72.93 199.68 72.92 199.66C72.85 199.39 72.77 199.11 72.69 198.81C72.61 198.52 72.52 198.21 72.43 197.89C72.42 197.83 72.4 197.77 72.38 197.7C72.3 197.38 72.21 197.03 72.12 196.66C72.07 196.48 72.03 196.28 71.99 196.09C71.99 196.07 71.99 196.05 71.98 196.03C71.93 195.81 71.89 195.59 71.84 195.35C71.71 194.65 71.58 193.89 71.48 193.03C71.41 192.46 71.35 191.86 71.31 191.21C71.27 190.71 71.25 190.18 71.23 189.63C71.22 189.37 71.21 189.11 71.21 188.84C71.19 188.14 71.2 187.39 71.22 186.6C71.22 186.18 71.24 185.74 71.26 185.29C71.28 184.99 71.29 184.68 71.31 184.37C71.34 183.85 71.38 183.31 71.43 182.75C71.51 181.78 75.36 162.2 77.09 156.25C77.12 156.28 71.63 181.78 71.55 182.75C71.5 183.31 71.47 183.85 71.43 184.37C71.41 184.68 71.4 184.99 71.38 185.29C71.36 185.74 71.35 186.17 71.34 186.6C71.32 187.39 71.31 188.14 71.33 188.84C71.33 189.11 71.34 189.37 71.35 189.63C71.37 190.18 71.39 190.71 71.43 191.21C71.48 191.85 71.53 192.46 71.6 193.03C71.7 193.89 71.83 194.65 71.96 195.35C72.01 195.59 72.05 195.81 72.1 196.03C72.11 196.05 72.11 196.07 72.11 196.09C72.16 196.29 72.2 196.47 72.24 196.66C72.33 197.03 72.42 197.38 72.5 197.7C72.52 197.77 72.54 197.83 72.55 197.89C72.64 198.21 72.73 198.52 72.81 198.81C72.89 199.11 72.97 199.39 73.04 199.66C73.05 199.68 73.05 199.69 73.06 199.71C73.29 200.61 73.44 201.36 73.4 202.12C73.38 202.45 73.35 202.77 73.32 203.09C73.31 203.17 73.3 203.25 73.29 203.32C73.25 203.62 73.21 203.91 73.15 204.19C73.1 204.48 73.04 204.77 72.97 205.05C72.95 205.16 72.92 205.26 72.89 205.37C72.83 205.64 72.75 205.9 72.67 206.16C72.6 206.4 72.52 206.64 72.43 206.87C72.39 207 72.35 207.12 72.29 207.25C72.23 207.43 72.16 207.6 72.09 207.78C72.02 207.96 71.95 208.13 71.86 208.31C71.79 208.48 71.71 208.66 71.62 208.83C71.55 209 71.47 209.17 71.37 209.34C71.27 209.57 71.15 209.79 71.02 210.01C70.98 210.1 70.94 210.18 70.89 210.26C70.86 210.32 70.83 210.37 70.8 210.42C70.78 210.46 70.77 210.49 70.75 210.52H70.74C70.67 210.67 70.58 210.82 70.49 210.96C70.32 211.26 70.14 211.55 69.95 211.85C69.54 212.51 69.1 213.16 68.64 213.8C68.42 214.12 68.19 214.44 67.95 214.76C67.5 215.39 67.02 216.01 66.55 216.64C66.06 217.29 65.57 217.94 65.08 218.59C71.56 225.63 86.64 232.77 97.42 228.96C103.45 226.83 111.98 231.16 121.61 231.17C128.96 231.18 134.23 228.36 134.8 231.53C135.01 232.7 129.71 246.04 118.33 247.83C107.68 249.49 103.86 247.87 97.54 246.99C93.53 246.44 75.83 251.87 58.54 249.68C71.45 251.66 81.66 256.75 87.55 263.78C87.56 263.79 87.56 263.79 87.57 263.8C97 274.42 103.21 287.09 124.82 288.97C146.13 290.83 156.74 289.72 169.76 285.12C182.59 280.6 199.16 273.23 234.46 277.72C207.24 274.11 184.29 263.09 178.82 261.87C172.59 260.5 168.44 260.69 159.03 255.42C148.99 249.79 148.66 235.44 149.27 234.41C150.9 231.65 154.86 236.11 161.75 238.67C170.79 242.01 180.5 240.67 185.2 245.01C198.1 256.93 229.55 249.92 235 240.47C237.71 235.77 236.41 229.55 233.1 222.29M52.75 179.04C52.73 179.03 52.72 179.02 52.7 179.01C51.55 178.39 49.18 180.83 48.23 182.19C47.46 183.29 45.97 185.93 47.49 187.56" stroke="#2D1F04" stroke-width="2.62" stroke-miterlimit="10" stroke-linecap="round" stroke-linejoin="round"/>
<path d="M232.17 205.79C232.42 208.53 233.7 209.94 235.23 210.77" stroke="#2D1F04" stroke-width="2.62" stroke-miterlimit="10" stroke-linecap="round" stroke-linejoin="round"/>
<path d="M237.28 200.31C237.6 202.35 239.2 204.32 240.6 205.21" stroke="#2D1F04" stroke-width="2.62" stroke-miterlimit="10" stroke-linecap="round" stroke-linejoin="round"/>
<path d="M244.19 194.74C244.82 196.92 246.41 198.3 247.94 199.37" stroke="#2D1F04" stroke-width="2.62" stroke-miterlimit="10" stroke-linecap="round" stroke-linejoin="round"/>
<path d="M88.58 153.47C87.13 154.92 86.49 156.53 86.11 158.32" stroke="#2D1F04" stroke-width="2.62" stroke-miterlimit="10" stroke-linecap="round" stroke-linejoin="round"/>
<path d="M99.5 159.15C98.76 160.69 98.25 162.74 98.08 164.52" stroke="#2D1F04" stroke-width="2.62" stroke-miterlimit="10" stroke-linecap="round" stroke-linejoin="round"/>
<path d="M117.04 163.62C116.32 165.77 116.32 167.56 116.32 169.09" stroke="#2D1F04" stroke-width="2.62" stroke-miterlimit="10" stroke-linecap="round" stroke-linejoin="round"/>
<path d="M124.23 164.53C123.92 166.02 123.6 168.64 123.79 170.94" stroke="#2D1F04" stroke-width="2.62" stroke-miterlimit="10" stroke-linecap="round" stroke-linejoin="round"/>
<path d="M131.37 165.03C131.06 166.34 130.87 169.08 131 170.93" stroke="#2D1F04" stroke-width="2.62" stroke-miterlimit="10" stroke-linecap="round" stroke-linejoin="round"/>
<path d="M167.62 162.76C168.24 164.11 168.75 166.09 168.83 167.74" stroke="#2D1F04" stroke-width="2.62" stroke-miterlimit="10" stroke-linecap="round" stroke-linejoin="round"/>
<path d="M175.44 161.1C175.98 162.24 176.58 164.28 176.66 165.81" stroke="#2D1F04" stroke-width="2.62" stroke-miterlimit="10" stroke-linecap="round" stroke-linejoin="round"/>
<path d="M215.47 140.19C217.07 141.36 218.3 142.45 219.21 143.63" stroke="#2D1F04" stroke-width="2.62" stroke-miterlimit="10" stroke-linecap="round" stroke-linejoin="round"/>
<path d="M219.21 136.03C220.5 136.77 222.12 137.84 223.54 139.15" stroke="#2D1F04" stroke-width="2.62" stroke-miterlimit="10" stroke-linecap="round" stroke-linejoin="round"/>
<path d="M221.96 132.26C223.56 132.96 224.7 133.6 225.66 134.37" stroke="#2D1F04" stroke-width="2.62" stroke-miterlimit="10" stroke-linecap="round" stroke-linejoin="round"/>
<path d="M66.91 190.12C68.83 192.18 70.62 194.39 72.13 196.66" stroke="#2D1F04" stroke-width="2.62" stroke-miterlimit="10" stroke-linecap="round" stroke-linejoin="round"/>
<path d="M135.2 315.37C124.97 316.68 116.51 315.91 109.55 314.41C97.81 311.88 87.52 309.76 82.06 309.76" stroke="#2D1F04" stroke-width="2.62" stroke-miterlimit="10" stroke-linecap="round" stroke-linejoin="round"/>
<path d="M87.48 263.79C96.92 274.41 103.12 287.09 124.75 288.98C146.06 290.84 156.66 289.73 169.69 285.13C182.71 280.53 199.57 273.01 235.95 277.92" stroke="#2D1F04" stroke-width="2.62" stroke-miterlimit="10" stroke-linecap="round" stroke-linejoin="round"/>
<path d="M189.48 169.62C176.4 173.71 159.96 176.36 139.3 176.36C106.53 176.36 75.7 152.77 75.92 151.27C76.44 147.65 78.54 145.46 79.73 146.63C91.82 157.71 108.35 165.19 139.39 165.2C175.02 165.22 222.76 153.9 231.12 110.02C231.8 106.65 235.71 111.35 238.88 116.03C240.22 118.01 241.24 120.82 239.73 125.49C239.01 127.73 235.38 141.02 220.4 153.44" stroke="#2D1F04" stroke-width="2.62" stroke-miterlimit="10" stroke-linecap="round" stroke-linejoin="round"/>
<path d="M79.72 146.65C79.94 145.71 80.15 144.76 80.33 143.82C80.72 141.59 80.79 139.42 80.54 137.21C80.33 135.34 79.55 138.7 77.25 138.38C77.88 136.76 79.18 131.96 78.22 129.79C77.26 127.62 76.8 133.79 73.55 133.21C74.64 128.81 75.24 124.18 74.16 122.05C73.08 119.92 72.6 124.3 70.08 124.53C70.91 120.22 70.8 114.29 69.9 111.52C61.34 85.26 62.51 67.94 73.18 48.47C76.12 43.11 79.82 37.8 85.07 34.29" stroke="#2D1F04" stroke-width="2.62" stroke-miterlimit="10" stroke-linecap="round" stroke-linejoin="round"/>
<path d="M133.74 101.13C133.09 109.21 133.22 114.15 134.86 119.26" stroke="#2D1F04" stroke-width="2.62" stroke-miterlimit="10" stroke-linecap="round" stroke-linejoin="round"/>
<path d="M113.2 339.95C124.59 338.01 147.5 332.71 157.95 324.62" stroke="#2D1F04" stroke-width="2.62" stroke-miterlimit="10" stroke-linecap="round" stroke-linejoin="round"/>
<path d="M107.02 13.71C105.67 11.01 101.34 6.06003 105.88 2.28003C107.86 8.71003 115.73 10.53 120.88 10.96C126.41 11.43 134.24 12.11 134.24 12.11C134.24 12.11 130.23 8.51003 131.72 7.76003C131.98 7.63003 159.32 14.34 172.13 20.72C217.85 43.47 224.06 77.58 231.11 110.03" stroke="#2D1F04" stroke-width="2.62" stroke-miterlimit="10" stroke-linecap="round" stroke-linejoin="round"/>
<path d="M239.75 125.53C248.92 139.91 263.01 160.37 274.92 182.47" stroke="#2D1F04" stroke-width="2.62" stroke-miterlimit="10" stroke-linecap="round" stroke-linejoin="round"/>
<path d="M279.5 191.3C303.94 239.56 312.56 287.22 235.94 277.92C208.04 274.53 184.31 263.11 178.74 261.88C172.51 260.5 168.36 260.7 158.95 255.43C148.91 249.8 148.58 235.45 149.19 234.42C150.82 231.65 154.78 236.12 161.67 238.68C170.7 242.03 180.42 240.68 185.12 245.02C198.02 256.94 229.47 249.94 234.92 240.48C237.62 235.79 236.33 229.58 233.03 222.33" stroke="#2D1F04" stroke-width="2.62" stroke-miterlimit="10" stroke-linecap="round" stroke-linejoin="round"/>
<path d="M227.94 211.9C222.9 203.53 218.29 197.08 212.89 187.11" stroke="#2D1F04" stroke-width="2.62" stroke-miterlimit="10" stroke-linecap="round" stroke-linejoin="round"/>
<path d="M113.2 339.95C124.58 329.04 137.62 321.01 149.98 316.16" stroke="#2D1F04" stroke-width="2.62" stroke-miterlimit="10" stroke-linecap="round" stroke-linejoin="round"/>
<path d="M146.05 306.12C149.12 311.75 154.81 324.77 165.63 330.66" stroke="#2D1F04" stroke-width="2.62" stroke-miterlimit="10" stroke-linecap="round" stroke-linejoin="round"/>
<path d="M6.19 317.07C19.37 318.25 32.68 311.85 45.94 313.04" stroke="#2D1F04" stroke-width="2.62" stroke-miterlimit="10" stroke-linecap="round" stroke-linejoin="round"/>
<path d="M4.01 318.25C12.19 311.42 28.86 302.58 40 303.57" stroke="#2D1F04" stroke-width="2.62" stroke-miterlimit="10" stroke-linecap="round" stroke-linejoin="round"/>
<path d="M33.36 295.32C39.72 301.42 48.2 310.95 47.19 322.13" stroke="#2D1F04" stroke-width="2.62" stroke-miterlimit="10" stroke-linecap="round" stroke-linejoin="round"/>
<path d="M57.57 249.55C71.95 251.56 83.09 257.42 88.83 265.52" stroke="#2D1F04" stroke-width="2.62" stroke-miterlimit="10" stroke-linecap="round" stroke-linejoin="round"/>
<path d="M62.22 214.4C65.16 222.27 84.37 233.54 97.35 228.96C103.38 226.83 111.9 231.17 121.54 231.17C128.89 231.17 134.16 228.36 134.72 231.52C134.93 232.7 129.63 246.04 118.26 247.82C107.61 249.49 103.79 247.86 97.46 246.98C91.81 246.2 58.82 257.37 38.25 242.12C28.74 235.07 25.42 221.19 43.04 194.68C45.03 191.68 45.83 190.25 47.49 187.55" stroke="#2D1F04" stroke-width="2.62" stroke-miterlimit="10" stroke-linecap="round" stroke-linejoin="round"/>
<path d="M52.73 179.03C62.58 161.98 67.22 150.82 80.26 139.95" stroke="#2D1F04" stroke-width="2.62" stroke-miterlimit="10" stroke-linecap="round" stroke-linejoin="round"/>
<path d="M175.15 286.8C165.12 291.81 157.12 296.71 148.1 303.47C137.29 311.58 112.78 339.54 113.19 339.95C114.3 341.06 143.3 341.41 162.02 332.36C169.68 328.66 174.14 326.65 184.37 327.62C210.82 330.13 249.7 333.67 261.94 322.33C278.92 306.61 270.59 289.29 256.99 283.5C229.35 271.74 199.89 279.83 199.63 280.34" stroke="#2D1F04" stroke-width="2.62" stroke-miterlimit="10" stroke-linecap="round" stroke-linejoin="round"/>
<path d="M53.76 288.06C31.75 287.75 -0.68 319.51 1.56 319.51C33.64 319.51 58.84 328.14 74.84 320.14C81.43 316.84 83.71 306.44 80.19 299.38" stroke="#2D1F04" stroke-width="2.62" stroke-miterlimit="10" stroke-linecap="round" stroke-linejoin="round"/>
<path d="M52.75 248.65C31.56 248.59 21.07 268.43 27.03 283.34C28.51 287.04 29.85 290.57 33.63 292.46" stroke="#2D1F04" stroke-width="2.62" stroke-miterlimit="10" stroke-linecap="round" stroke-linejoin="round"/>
<path d="M85.07 34.29C77.07 35.17 72.47 37.53 66.35 43.47C67.63 36.9 73.88 31.53 84.16 29.03C84.56 28.93 85.17 28.96 85.3 28.57C85.4 28.26 82.07 26.88 78.48 26.87C75.68 26.86 72.58 28.33 71.65 27.63C71.35 27.4 73.91 22.79 79.18 20.72C84.08 18.8 88.18 18.25 91.71 18.51C91.71 16.2 81.32 17.04 80.5 16.22C80.38 16.1 83.01 13.05 88.56 11.6C95.13 9.89 101.65 10.19 107.03 13.7" stroke="#2D1F04" stroke-width="2.62" stroke-miterlimit="10" stroke-linecap="round" stroke-linejoin="round"/>
<path d="M141.79 192.08L112.44 189.01C110.03 188.76 108.28 186.6 108.53 184.18L109.74 172.66C109.99 170.25 112.15 168.5 114.57 168.75L143.92 171.82C146.33 172.07 148.08 174.23 147.83 176.65L146.62 188.17C146.36 190.58 144.2 192.34 141.79 192.08Z" fill="#689BD4"/>
<path d="M114.45 174.16L114.66 172.15L116.45 172.34L116.24 174.35L114.45 174.16ZM113.47 183.51L114.33 175.28L116.12 175.47L115.26 183.7L113.47 183.51Z" fill="black"/>
<path d="M117.17 175.58L118.16 175.68L118.22 175.06C118.3 174.31 118.43 173.78 118.6 173.46C118.78 173.14 119.04 172.9 119.37 172.74C119.71 172.58 120.11 172.53 120.58 172.58C121.09 172.63 121.57 172.78 122.04 173.02L121.65 174.51C121.37 174.4 121.1 174.33 120.83 174.3C120.58 174.27 120.39 174.33 120.26 174.46C120.13 174.59 120.04 174.87 120 175.3L119.94 175.88L121.27 176.02L121.09 177.73L119.76 177.59L119.08 184.11L117.29 183.92L117.97 177.4L116.98 177.3L117.17 175.58Z" fill="black"/>
<path d="M127.64 188.37L126.42 188.24C125.9 187.01 125.53 185.73 125.32 184.39C125.11 183.05 125.07 181.78 125.2 180.56C125.34 179.24 125.65 177.98 126.12 176.76C126.6 175.54 127.22 174.41 127.99 173.35L129.21 173.48C128.45 175.03 127.9 176.34 127.58 177.4C127.26 178.46 127.03 179.6 126.91 180.81C126.78 182.06 126.79 183.4 126.94 184.82C127.05 185.82 127.28 187 127.64 188.37Z" fill="black"/>
<path d="M129.37 185.17L129.6 182.99L131.38 183.18L131.15 185.36L129.37 185.17Z" fill="black"/>
<path d="M132.99 185.55L133.22 183.37L135 183.56L134.77 185.74L132.99 185.55Z" fill="black"/>
<path d="M136.61 185.93L136.84 183.75L138.62 183.94L138.39 186.12L136.61 185.93Z" fill="black"/>
<path d="M139.38 189.6C140.02 188.35 140.49 187.25 140.79 186.31C141.24 184.94 141.53 183.62 141.66 182.35C141.79 181.14 141.8 179.98 141.71 178.88C141.61 177.77 141.35 176.38 140.93 174.71L142.15 174.84C142.69 176.08 143.07 177.33 143.28 178.61C143.49 179.89 143.53 181.14 143.4 182.37C143.27 183.61 142.97 184.87 142.49 186.14C142.02 187.41 141.39 188.61 140.6 189.73L139.38 189.6Z" fill="black"/>
<path d="M141.79 192.08L112.44 189.01C110.03 188.76 108.28 186.6 108.53 184.18L109.74 172.66C109.99 170.25 112.15 168.5 114.57 168.75L143.92 171.82C146.33 172.07 148.08 174.23 147.83 176.65L146.62 188.17C146.36 190.58 144.2 192.34 141.79 192.08Z" stroke="#2D1F04" stroke-width="2.62" stroke-miterlimit="10" stroke-linecap="round" stroke-linejoin="round"/>
<path d="M170.1 194.65L164.03 191.79C161.83 190.76 160.89 188.14 161.93 185.94L166.86 175.46C167.89 173.26 170.51 172.32 172.71 173.36L178.78 176.22C180.98 177.25 181.92 179.87 180.88 182.07L175.95 192.55C174.91 194.74 172.29 195.69 170.1 194.65Z" fill="#FAD3D6"/>
<path d="M167.71 184.04L168.51 182.35C168.85 182.49 169.14 182.53 169.37 182.47C169.6 182.41 169.84 182.25 170.08 181.97C170.32 181.7 170.62 181.19 170.97 180.44C171.41 179.51 171.74 178.89 171.98 178.57C172.22 178.25 172.46 178.03 172.72 177.91C172.98 177.79 173.28 177.73 173.62 177.74C173.96 177.75 174.41 177.89 174.95 178.14L175.26 178.29L174.46 179.98C174.05 179.79 173.77 179.69 173.62 179.68C173.47 179.67 173.33 179.71 173.21 179.81C173.09 179.9 172.95 180.11 172.79 180.45C172.52 181.02 172.19 181.66 171.81 182.38C171.55 182.87 171.23 183.26 170.87 183.54C170.61 183.75 170.25 183.9 169.8 184C170 184.34 170.1 184.72 170.12 185.14C170.14 185.56 170.04 186.04 169.83 186.56C169.55 187.28 169.26 187.94 168.97 188.56C168.82 188.88 168.75 189.12 168.76 189.28C168.77 189.44 168.82 189.57 168.92 189.69C169.02 189.81 169.27 189.96 169.67 190.15L168.87 191.84L168.56 191.69C168.01 191.43 167.64 191.19 167.42 190.96C167.21 190.73 167.06 190.47 166.98 190.17C166.9 189.87 166.9 189.54 166.98 189.16C167.06 188.78 167.29 188.19 167.67 187.38C168.09 186.49 168.33 185.87 168.4 185.51C168.47 185.15 168.45 184.86 168.35 184.64C168.25 184.42 168.04 184.22 167.71 184.04Z" fill="black"/>
<path d="M170.1 194.65L164.03 191.79C161.83 190.76 160.89 188.14 161.93 185.94L166.86 175.46C167.89 173.26 170.51 172.32 172.71 173.36L178.78 176.22C180.98 177.25 181.92 179.87 180.88 182.07L175.95 192.55C174.91 194.74 172.29 195.69 170.1 194.65Z" stroke="#2D1F04" stroke-width="2.62" stroke-miterlimit="10" stroke-linecap="round" stroke-linejoin="round"/>
<path d="M171.19 215.59L102.13 208.36C99.72 208.11 97.97 205.95 98.22 203.53L99.43 192.01C99.68 189.6 101.84 187.85 104.26 188.1L173.32 195.33C175.73 195.58 177.48 197.74 177.23 200.16L176.02 211.68C175.77 214.09 173.6 215.84 171.19 215.59Z" fill="#6AD36A"/>
<path d="M103.49 194.57L104.48 194.67L104.54 194.05C104.62 193.3 104.75 192.77 104.92 192.45C105.1 192.13 105.36 191.89 105.69 191.73C106.03 191.57 106.43 191.52 106.9 191.57C107.41 191.62 107.89 191.77 108.36 192.01L107.97 193.5C107.69 193.39 107.42 193.32 107.15 193.29C106.9 193.26 106.71 193.32 106.58 193.45C106.45 193.58 106.36 193.86 106.32 194.29L106.26 194.87L107.59 195.01L107.41 196.72L106.08 196.58L105.4 203.1L103.61 202.91L104.29 196.39L103.3 196.29L103.49 194.57Z" fill="black"/>
<path d="M112.16 203.79L112.29 202.56C112 202.98 111.63 203.3 111.21 203.5C110.78 203.71 110.35 203.79 109.91 203.75C109.47 203.7 109.08 203.55 108.76 203.28C108.43 203.01 108.21 202.65 108.08 202.2C107.95 201.75 107.93 201.12 108.02 200.3L108.57 195.09L110.36 195.28L109.96 199.06C109.85 200.14 109.8 200.83 109.83 201.13C109.85 201.43 109.95 201.67 110.12 201.85C110.29 202.03 110.5 202.13 110.77 202.16C111.07 202.19 111.36 202.12 111.63 201.93C111.91 201.75 112.1 201.5 112.21 201.18C112.32 200.86 112.44 200.14 112.56 199.03L112.92 195.56L114.71 195.75L113.85 203.98L112.16 203.79Z" fill="black"/>
<path d="M121.82 204.81L120.03 204.62L120.47 200.42C120.56 199.58 120.58 199.01 120.55 198.73C120.51 198.44 120.41 198.22 120.24 198.05C120.07 197.88 119.87 197.78 119.64 197.76C119.34 197.73 119.06 197.8 118.8 197.97C118.54 198.14 118.34 198.39 118.2 198.72C118.07 199.05 117.95 199.69 117.85 200.64L117.46 204.37L115.67 204.18L116.53 195.95L118.19 196.12L118.06 197.32C118.4 196.89 118.77 196.57 119.17 196.38C119.57 196.19 119.99 196.11 120.43 196.16C120.95 196.21 121.38 196.4 121.71 196.71C122.04 197.02 122.25 197.39 122.34 197.83C122.43 198.27 122.44 198.89 122.35 199.7L121.82 204.81Z" fill="black"/>
<path d="M130.13 199.81L128.33 200.01C128.29 199.13 127.93 198.66 127.24 198.59C126.8 198.54 126.42 198.69 126.11 199.04C125.8 199.38 125.6 200 125.51 200.89C125.41 201.87 125.47 202.58 125.7 203.01C125.93 203.44 126.27 203.68 126.72 203.73C127.06 203.77 127.35 203.68 127.59 203.47C127.83 203.26 128.03 202.87 128.18 202.3L129.9 202.85C129.33 204.8 128.19 205.68 126.47 205.5C125.37 205.38 124.6 204.88 124.15 203.99C123.71 203.1 123.55 202.06 123.67 200.88C123.82 199.47 124.23 198.42 124.91 197.75C125.59 197.08 126.42 196.79 127.4 196.89C128.19 196.97 128.81 197.25 129.27 197.72C129.72 198.18 130.01 198.88 130.13 199.81Z" fill="black"/>
<path d="M134.82 197.85L134.64 199.59L133.42 199.46L133.07 202.78C132.99 203.5 132.97 203.92 132.99 204.04C133.04 204.25 133.18 204.37 133.4 204.4C133.57 204.42 133.81 204.37 134.13 204.27L134.11 205.98C133.67 206.15 133.2 206.21 132.67 206.16C132.22 206.11 131.86 205.97 131.61 205.72C131.36 205.47 131.21 205.14 131.16 204.72C131.12 204.41 131.15 203.8 131.24 202.88L131.62 199.29L130.8 199.2L130.98 197.46L131.8 197.55L131.97 195.92L133.89 194.84L133.59 197.75L134.82 197.85Z" fill="black"/>
<path d="M136.18 196.86L136.39 194.85L138.18 195.04L137.97 197.05L136.18 196.86ZM135.2 206.21L136.06 197.98L137.85 198.17L136.99 206.4L135.2 206.21Z" fill="black"/>
<path d="M138.85 202.31C138.93 201.5 139.17 200.78 139.56 200.16C139.95 199.53 140.42 199.08 140.97 198.8C141.52 198.52 142.12 198.42 142.77 198.49C143.85 198.6 144.66 199.12 145.19 200.03C145.72 200.95 145.93 201.97 145.81 203.11C145.72 203.96 145.48 204.71 145.09 205.36C144.7 206.01 144.22 206.48 143.66 206.77C143.1 207.06 142.51 207.17 141.88 207.11C140.88 207.01 140.09 206.54 139.51 205.7C138.93 204.86 138.7 203.73 138.85 202.31ZM140.66 202.62C140.57 203.45 140.67 204.1 140.95 204.56C141.23 205.02 141.6 205.28 142.06 205.32C142.51 205.37 142.92 205.19 143.28 204.8C143.65 204.4 143.87 203.79 143.96 202.95C144.05 202.13 143.95 201.49 143.67 201.03C143.39 200.57 143.02 200.31 142.57 200.26C142.12 200.21 141.71 200.39 141.34 200.78C140.98 201.18 140.75 201.79 140.66 202.62Z" fill="black"/>
<path d="M152.91 208.06L151.12 207.87L151.56 203.67C151.65 202.83 151.67 202.26 151.64 201.98C151.6 201.69 151.5 201.47 151.33 201.3C151.16 201.13 150.96 201.03 150.73 201.01C150.43 200.98 150.15 201.05 149.89 201.22C149.63 201.39 149.43 201.64 149.29 201.97C149.16 202.3 149.04 202.94 148.94 203.89L148.55 207.62L146.76 207.43L147.62 199.2L149.28 199.37L149.15 200.57C149.49 200.14 149.86 199.82 150.26 199.63C150.66 199.44 151.08 199.36 151.52 199.41C152.04 199.46 152.47 199.65 152.8 199.96C153.13 200.27 153.34 200.64 153.43 201.08C153.52 201.52 153.53 202.14 153.44 202.95L152.91 208.06Z" fill="black"/>
<path d="M157.32 211.9L156.1 211.77C155.58 210.54 155.21 209.26 155 207.92C154.79 206.58 154.75 205.31 154.88 204.09C155.02 202.77 155.33 201.51 155.8 200.29C156.28 199.07 156.9 197.94 157.67 196.88L158.89 197.01C158.13 198.56 157.58 199.87 157.26 200.93C156.94 201.99 156.71 203.13 156.59 204.34C156.46 205.59 156.47 206.93 156.62 208.35C156.73 209.35 156.96 210.54 157.32 211.9Z" fill="black"/>
<path d="M159.05 208.7L159.28 206.52L161.06 206.71L160.83 208.89L159.05 208.7Z" fill="black"/>
<path d="M162.67 209.08L162.9 206.9L164.68 207.09L164.45 209.27L162.67 209.08Z" fill="black"/>
<path d="M166.29 209.46L166.52 207.28L168.3 207.47L168.07 209.65L166.29 209.46Z" fill="black"/>
<path d="M169.06 213.13C169.7 211.88 170.17 210.78 170.47 209.84C170.92 208.47 171.21 207.15 171.34 205.88C171.47 204.67 171.48 203.51 171.39 202.41C171.29 201.3 171.03 199.91 170.61 198.24L171.83 198.37C172.37 199.61 172.75 200.86 172.96 202.14C173.17 203.42 173.21 204.67 173.08 205.9C172.95 207.14 172.65 208.4 172.17 209.67C171.7 210.94 171.07 212.14 170.28 213.26L169.06 213.13Z" fill="black"/>
<path d="M171.19 215.59L102.13 208.36C99.72 208.11 97.97 205.95 98.22 203.53L99.43 192.01C99.68 189.6 101.84 187.85 104.26 188.1L173.32 195.33C175.73 195.58 177.48 197.74 177.23 200.16L176.02 211.68C175.77 214.09 173.6 215.84 171.19 215.59Z" stroke="#2D1F04" stroke-width="2.62" stroke-miterlimit="10" stroke-linecap="round" stroke-linejoin="round"/>
<path d="M145.73 172.09L130.86 169.61C128.47 169.21 126.85 166.95 127.25 164.55L129.16 153.13C129.56 150.74 131.82 149.12 134.22 149.52L149.09 152C151.48 152.4 153.1 154.66 152.7 157.06L150.79 168.48C150.39 170.87 148.12 172.49 145.73 172.09Z" fill="#6AD36A"/>
<path d="M132.37 164.59L134.25 153.32L136.03 153.62L134.15 164.89L132.37 164.59Z" fill="black"/>
<path d="M140.28 163.25L141.98 163.9C141.61 164.68 141.14 165.23 140.58 165.54C140.02 165.85 139.38 165.95 138.66 165.83C137.67 165.66 136.96 165.21 136.53 164.45C136.02 163.57 135.88 162.44 136.12 161.06C136.35 159.69 136.85 158.66 137.63 157.94C138.29 157.34 139.05 157.11 139.91 157.25C140.87 157.41 141.56 157.89 141.98 158.69C142.47 159.6 142.58 160.85 142.32 162.43L142.27 162.68L137.84 161.94C137.74 162.59 137.8 163.12 138.02 163.52C138.24 163.92 138.55 164.16 138.94 164.22C139.52 164.32 139.96 164 140.28 163.25ZM140.74 161.08C140.83 160.44 140.78 159.94 140.57 159.57C140.37 159.21 140.09 158.99 139.74 158.94C139.37 158.88 139.02 158.99 138.71 159.28C138.39 159.58 138.19 160.03 138.09 160.64L140.74 161.08Z" fill="black"/>
<path d="M147.56 158.74L147.27 160.46L146.06 160.26L145.51 163.55C145.39 164.26 145.34 164.68 145.36 164.8C145.4 165.02 145.53 165.14 145.75 165.18C145.91 165.21 146.16 165.18 146.49 165.09L146.36 166.79C145.91 166.94 145.43 166.97 144.92 166.88C144.47 166.8 144.13 166.64 143.89 166.38C143.65 166.12 143.52 165.78 143.5 165.36C143.48 165.05 143.54 164.44 143.7 163.53L144.29 159.97L143.48 159.83L143.77 158.11L144.58 158.25L144.85 156.63L146.84 155.67L146.36 158.55L147.56 158.74Z" fill="black"/>
<path d="M145.73 172.09L130.86 169.61C128.47 169.21 126.85 166.95 127.25 164.55L129.16 153.13C129.56 150.74 131.82 149.12 134.22 149.52L149.09 152C151.48 152.4 153.1 154.66 152.7 157.06L150.79 168.48C150.39 170.87 148.12 172.49 145.73 172.09Z" stroke="#2D1F04" stroke-width="2.62" stroke-miterlimit="10" stroke-linecap="round" stroke-linejoin="round"/>
<path d="M138.19 233.62L113.13 229.83C110.73 229.47 109.08 227.23 109.44 224.83L111.17 213.38C111.53 210.98 113.77 209.33 116.17 209.69L141.23 213.48C143.63 213.84 145.28 216.08 144.92 218.48L143.19 229.93C142.82 232.34 140.59 233.99 138.19 233.62Z" fill="#689BD4"/>
<path d="M117.51 214.4C119.97 214.83 122.36 215.2 124.73 215.67C126.67 216.05 127.21 217.42 127.16 218.66C127.09 220.37 126.16 221.42 124.45 221.79C124.36 221.81 124.27 221.82 124.08 221.84C125.92 223.18 125.94 225.34 126.83 227.26C125.42 227.05 124.18 226.86 122.86 226.67C122.41 225.44 121.96 224.18 121.49 222.91C121.24 222.22 120.86 221.67 119.88 221.72C119.66 223.16 119.44 224.63 119.22 226.15C118.03 225.97 116.96 225.81 115.82 225.64C116.38 221.93 116.93 218.25 117.51 214.4ZM120.58 217.27C120.47 218.02 120.36 218.72 120.24 219.56C120.99 219.63 121.72 219.74 122.46 219.75C123.1 219.76 123.5 219.4 123.6 218.85C123.7 218.27 123.41 217.77 122.74 217.6C122.05 217.43 121.33 217.38 120.58 217.27ZM135.67 217.31C134.27 216.65 132.78 216.45 131.26 216.62C129.65 216.8 128.53 217.79 128.26 219.18C128.01 220.43 128.61 221.61 130 222.44C130.72 222.87 131.52 223.17 132.28 223.54C132.65 223.72 133.02 223.88 133.37 224.09C133.77 224.34 134.01 224.73 133.93 225.2C133.84 225.71 133.46 225.99 132.96 226.11C131.85 226.36 130.79 225.69 130.54 224.58C130.49 224.37 130.47 224.16 130.43 223.93C129.34 223.83 128.29 223.73 127.24 223.63C127.01 225.46 127.86 226.99 129.44 227.67C130.64 228.19 131.92 228.42 133.21 228.39C134 228.37 134.86 228.19 135.55 227.83C137.65 226.73 138.33 223.58 135.82 221.97C135.43 221.72 135.01 221.49 134.58 221.29C133.81 220.94 133.02 220.63 132.24 220.3C131.82 220.12 131.46 219.88 131.51 219.33C131.8 218.71 132.33 218.6 132.93 218.71C133.86 218.87 134.34 219.45 134.38 220.42C135.46 220.51 136.49 220.6 137.6 220.69C137.7 219 137.12 217.99 135.67 217.31Z" fill="black"/>
<path d="M138.19 233.62L113.13 229.83C110.73 229.47 109.08 227.23 109.44 224.83L111.17 213.38C111.53 210.98 113.77 209.33 116.17 209.69L141.23 213.48C143.63 213.84 145.28 216.08 144.92 218.48L143.19 229.93C142.82 232.34 140.59 233.99 138.19 233.62Z" stroke="#2D1F04" stroke-width="2.62" stroke-miterlimit="10" stroke-linecap="round" stroke-linejoin="round"/>
<path d="M158.04 234.9L151.34 234.55C148.92 234.42 147.06 232.36 147.18 229.93L147.79 218.37C147.92 215.95 149.98 214.09 152.41 214.21L159.11 214.56C161.53 214.69 163.39 216.75 163.27 219.18L162.66 230.74C162.53 233.17 160.46 235.03 158.04 234.9Z" fill="#FAD3D6"/>
<path d="M151.81 225.98L151.91 224.11C152.28 224.11 152.56 224.04 152.75 223.9C152.94 223.76 153.1 223.52 153.22 223.17C153.34 222.83 153.42 222.24 153.47 221.42C153.52 220.39 153.6 219.69 153.7 219.31C153.8 218.93 153.94 218.63 154.13 218.42C154.32 218.21 154.58 218.04 154.9 217.92C155.22 217.8 155.68 217.76 156.29 217.79L156.63 217.81L156.53 219.68C156.08 219.66 155.78 219.67 155.64 219.72C155.5 219.77 155.39 219.86 155.31 219.99C155.23 220.12 155.18 220.37 155.17 220.74C155.14 221.37 155.08 222.09 154.99 222.9C154.93 223.45 154.79 223.93 154.56 224.33C154.39 224.62 154.12 224.9 153.74 225.16C154.05 225.4 154.29 225.71 154.47 226.1C154.64 226.48 154.74 226.96 154.74 227.53C154.75 228.3 154.74 229.03 154.7 229.7C154.68 230.06 154.71 230.31 154.77 230.45C154.84 230.59 154.94 230.7 155.08 230.77C155.22 230.84 155.51 230.89 155.95 230.91L155.85 232.78L155.51 232.76C154.91 232.73 154.47 232.65 154.18 232.51C153.89 232.37 153.66 232.19 153.48 231.95C153.3 231.71 153.17 231.4 153.1 231.02C153.03 230.64 153.02 230.01 153.07 229.11C153.12 228.13 153.11 227.46 153.04 227.11C152.97 226.76 152.84 226.49 152.66 226.32C152.46 226.13 152.19 226.02 151.81 225.98Z" fill="black"/>
<path d="M158.04 234.9L151.34 234.55C148.92 234.42 147.06 232.36 147.18 229.93L147.79 218.37C147.92 215.95 149.98 214.09 152.41 214.21L159.11 214.56C161.53 214.69 163.39 216.75 163.27 219.18L162.66 230.74C162.53 233.17 160.46 235.03 158.04 234.9Z" stroke="#2D1F04" stroke-width="2.62" stroke-miterlimit="10" stroke-linecap="round" stroke-linejoin="round"/>
<path d="M103.76 229.06H97.05C94.62 229.06 92.66 227.09 92.66 224.67V213.09C92.66 210.66 94.63 208.7 97.05 208.7H103.76C106.19 208.7 108.15 210.67 108.15 213.09V224.67C108.15 227.09 106.18 229.06 103.76 229.06Z" fill="#FAD3D6"/>
<path d="M103.16 220.47C102.8 220.49 102.53 220.58 102.34 220.73C102.16 220.88 102.02 221.13 101.91 221.48C101.81 221.83 101.76 222.42 101.76 223.24C101.76 224.27 101.72 224.98 101.64 225.36C101.56 225.74 101.43 226.05 101.25 226.28C101.07 226.51 100.82 226.69 100.5 226.82C100.18 226.96 99.72 227.02 99.12 227.02H98.78V225.15C99.22 225.15 99.51 225.12 99.65 225.06C99.79 225 99.9 224.9 99.98 224.76C100.06 224.62 100.09 224.38 100.09 224.03C100.09 223.44 100.11 222.73 100.16 221.9C100.2 221.31 100.31 220.83 100.51 220.45C100.71 220.07 100.97 219.77 101.29 219.54C100.92 219.26 100.67 218.97 100.51 218.67C100.31 218.27 100.19 217.78 100.15 217.21C100.1 216.46 100.07 215.74 100.07 215.06C100.07 214.69 100.04 214.44 99.97 214.31C99.9 214.18 99.8 214.08 99.66 214.02C99.52 213.96 99.22 213.93 98.77 213.93V212.06H99.11C99.71 212.06 100.16 212.12 100.45 212.23C100.74 212.34 100.99 212.52 101.18 212.75C101.38 212.98 101.52 213.29 101.61 213.66C101.7 214.03 101.74 214.67 101.74 215.56C101.74 216.55 101.79 217.22 101.88 217.57C101.97 217.92 102.11 218.18 102.3 218.34C102.49 218.5 102.77 218.59 103.14 218.61V220.47H103.16Z" fill="black"/>
<path d="M103.76 229.06H97.05C94.62 229.06 92.66 227.09 92.66 224.67V213.09C92.66 210.66 94.63 208.7 97.05 208.7H103.76C106.19 208.7 108.15 210.67 108.15 213.09V224.67C108.15 227.09 106.18 229.06 103.76 229.06Z" stroke="#2D1F04" stroke-width="2.62" stroke-miterlimit="10" stroke-linecap="round" stroke-linejoin="round"/>
<path d="M199.65 248.45L166.13 238.09C163.81 237.37 162.51 234.91 163.23 232.59L166.65 221.53C167.37 219.21 169.83 217.91 172.15 218.63L205.66 229C207.98 229.72 209.28 232.18 208.56 234.5L205.14 245.56C204.42 247.87 201.96 249.17 199.65 248.45Z" fill="#6AD36A"/>
<path d="M168.9 233.31L167.18 232.78L169.62 224.88L171.21 225.37L170.86 226.49C171.3 226.05 171.65 225.77 171.92 225.67C172.19 225.57 172.47 225.55 172.75 225.64C173.14 225.76 173.48 226.01 173.75 226.38L172.65 228.04C172.44 227.72 172.21 227.53 171.95 227.45C171.71 227.38 171.47 227.4 171.24 227.52C171 227.64 170.78 227.92 170.55 228.36C170.33 228.8 170.03 229.64 169.64 230.87L168.9 233.31Z" fill="black"/>
<path d="M176.66 232.96L178.26 233.84C177.79 234.56 177.25 235.04 176.65 235.28C176.05 235.52 175.4 235.53 174.71 235.31C173.75 235.01 173.11 234.46 172.79 233.66C172.4 232.72 172.42 231.58 172.83 230.24C173.24 228.92 173.88 227.95 174.74 227.35C175.47 226.84 176.26 226.72 177.09 226.97C178.02 227.26 178.64 227.82 178.95 228.67C179.31 229.64 179.26 230.89 178.78 232.42L178.7 232.66L174.41 231.33C174.23 231.96 174.22 232.49 174.38 232.92C174.55 233.35 174.82 233.62 175.2 233.74C175.76 233.92 176.24 233.66 176.66 232.96ZM177.4 230.87C177.58 230.25 177.59 229.74 177.44 229.35C177.29 228.96 177.04 228.71 176.7 228.61C176.34 228.5 175.98 228.57 175.63 228.81C175.28 229.06 175.01 229.48 174.83 230.07L177.4 230.87Z" fill="black"/>
<path d="M184.47 229.46L183.95 231.13L182.78 230.77L181.79 233.96C181.58 234.65 181.47 235.06 181.47 235.18C181.48 235.4 181.59 235.54 181.8 235.61C181.96 235.66 182.21 235.66 182.55 235.62L182.2 237.29C181.74 237.38 181.26 237.34 180.76 237.19C180.32 237.06 180.01 236.84 179.81 236.55C179.61 236.26 179.53 235.91 179.56 235.49C179.58 235.18 179.73 234.58 180 233.7L181.07 230.25L180.28 230.01L180.8 228.34L181.59 228.58L182.08 227.01L184.18 226.32L183.32 229.11L184.47 229.46Z" fill="black"/>
<path d="M187.48 239.05L187.85 237.87C187.48 238.22 187.06 238.46 186.6 238.59C186.14 238.71 185.7 238.71 185.28 238.58C184.85 238.45 184.51 238.22 184.24 237.89C183.97 237.56 183.82 237.17 183.78 236.7C183.74 236.24 183.84 235.61 184.09 234.83L185.64 229.82L187.36 230.35L186.24 233.98C185.92 235.02 185.74 235.68 185.71 235.98C185.68 236.28 185.72 236.53 185.85 236.74C185.98 236.95 186.17 237.09 186.42 237.17C186.71 237.26 187 237.24 187.31 237.11C187.62 236.98 187.85 236.78 188.03 236.48C188.2 236.19 188.46 235.51 188.79 234.44L189.82 231.11L191.54 231.64L189.1 239.54L187.48 239.05Z" fill="black"/>
<path d="M192.51 240.61L190.79 240.08L193.23 232.18L194.82 232.67L194.47 233.79C194.91 233.35 195.26 233.07 195.53 232.97C195.8 232.86 196.08 232.85 196.36 232.94C196.75 233.06 197.09 233.31 197.36 233.68L196.26 235.34C196.05 235.02 195.82 234.83 195.56 234.75C195.32 234.68 195.08 234.7 194.85 234.82C194.61 234.94 194.39 235.22 194.16 235.66C193.94 236.1 193.64 236.94 193.25 238.17L192.51 240.61Z" fill="black"/>
<path d="M201.62 243.43L199.9 242.9L201.15 238.86C201.4 238.05 201.53 237.5 201.55 237.21C201.57 236.92 201.51 236.68 201.38 236.48C201.25 236.28 201.07 236.15 200.85 236.08C200.56 235.99 200.27 236 199.98 236.12C199.69 236.23 199.45 236.44 199.25 236.74C199.05 237.04 198.82 237.64 198.54 238.55L197.43 242.13L195.71 241.6L198.15 233.7L199.74 234.19L199.38 235.34C199.8 234.98 200.22 234.74 200.65 234.63C201.08 234.52 201.5 234.53 201.93 234.66C202.43 234.81 202.81 235.08 203.08 235.44C203.34 235.81 203.48 236.22 203.48 236.67C203.48 237.12 203.37 237.73 203.13 238.51L201.62 243.43Z" fill="black"/>
<path d="M199.65 248.45L166.13 238.09C163.81 237.37 162.51 234.91 163.23 232.59L166.65 221.53C167.37 219.21 169.83 217.91 172.15 218.63L205.66 229C207.98 229.72 209.28 232.18 208.56 234.5L205.14 245.56C204.42 247.87 201.96 249.17 199.65 248.45Z" stroke="#2D1F04" stroke-width="2.62" stroke-miterlimit="10" stroke-linecap="round" stroke-linejoin="round"/>
<path d="M118.33 247.83C107.68 249.49 103.86 247.87 97.54 246.99C99.27 241.62 99.21 233.8 97.42 228.96C103.45 226.83 111.98 231.16 121.61 231.17C128.96 231.18 134.23 228.36 134.8 231.53C135.01 232.7 129.71 246.04 118.33 247.83Z" fill="#B6B1AE"/>
<path opacity="0.23" d="M118.25 247.83C116.17 248.16 114.35 248.36 112.71 248.46C110.69 248.59 108.97 248.57 107.41 248.46C107.19 248.44 106.96 248.43 106.74 248.41C103.46 248.11 100.85 247.45 97.54 246.99C98.21 244.9 98.61 242.45 98.74 239.95C101.89 239.72 105.11 239.52 108.53 239.42C121.75 239.05 129.4 235.62 134.37 230.71C134.54 230.92 134.65 231.19 134.71 231.53C134.92 232.7 129.62 246.04 118.25 247.83Z" fill="#3F2719"/>
<path d="M118.33 247.83C107.68 249.49 103.86 247.87 97.54 246.99C99.27 241.62 99.21 233.8 97.42 228.96C103.45 226.83 111.98 231.16 121.61 231.17C128.96 231.18 134.23 228.36 134.8 231.53C135.01 232.7 129.71 246.04 118.33 247.83Z" stroke="#2D1F04" stroke-width="2.62" stroke-miterlimit="10" stroke-linecap="round" stroke-linejoin="round"/>
<path d="M133.3 230.36C125.51 237.98 112.98 238.53 98.81 237.13" stroke="#2D1F04" stroke-width="2.62" stroke-miterlimit="10" stroke-linecap="round" stroke-linejoin="round"/>
<path d="M185.2 245.01C181.93 249.37 179.02 254.95 178.82 261.87C172.59 260.5 168.44 260.69 159.03 255.42C148.99 249.79 148.66 235.44 149.27 234.41C150.9 231.65 154.86 236.11 161.75 238.67C170.79 242.01 180.5 240.67 185.2 245.01Z" fill="#B6B1AE"/>
<path opacity="0.23" d="M179.6 256.29C179.19 257.9 178.92 259.61 178.85 261.41C173.06 260.23 168.88 260.17 159.89 255.14C149.85 249.51 149.52 235.16 150.13 234.13C152.11 241.86 164.01 251.71 179.3 256.2C179.4 256.23 179.5 256.26 179.6 256.29Z" fill="#3F2719"/>
<path d="M149.27 234.41C152.44 241.59 160.04 251.1 181.2 251.71" stroke="#2D1F04" stroke-width="2.62" stroke-miterlimit="10" stroke-linecap="round" stroke-linejoin="round"/>
<path d="M185.2 245.01C181.93 249.37 179.02 254.95 178.82 261.87C172.59 260.5 168.44 260.69 159.03 255.42C148.99 249.79 148.66 235.44 149.27 234.41C150.9 231.65 154.86 236.11 161.75 238.67C170.79 242.01 180.5 240.67 185.2 245.01Z" stroke="#2D1F04" stroke-width="2.62" stroke-miterlimit="10" stroke-linecap="round" stroke-linejoin="round"/>
<path opacity="0.23" d="M182.07 78.5C179.94 76.59 177.1 75.43 173.99 75.43C167.31 75.43 161.9 80.8 161.9 87.43V88.21C161.9 90.59 162.6 92.81 163.8 94.68C161.34 92.47 159.8 89.29 159.8 85.75V84.97C159.8 78.34 165.21 72.96 171.89 72.96C176.16 72.96 179.92 75.17 182.07 78.5Z" fill="#3F2719"/>
<path opacity="0.23" d="M105.08 76.4001C102.94 74.4901 100.1 73.3301 96.99 73.3301C90.32 73.3301 84.91 78.7001 84.91 85.3301V86.1201C84.91 88.4901 85.6 90.7001 86.8 92.5601C84.35 90.3701 82.81 87.1901 82.81 83.6501V82.8701C82.81 76.2401 88.22 70.8601 94.89 70.8601C99.17 70.8601 102.93 73.0701 105.08 76.4001Z" fill="#3F2719"/>
<path d="M171.89 72.96C178.56 72.96 183.97 78.33 183.97 84.97V85.75C183.97 92.38 178.56 97.75 171.89 97.75C165.22 97.75 159.81 92.38 159.81 85.75V84.97C159.8 78.33 165.21 72.96 171.89 72.96Z" fill="white"/>
<path d="M164.66 87.85C164.66 85.73 166.31 84 168.35 84C170.39 84 172.04 85.72 172.04 87.85C172.04 89.97 170.39 91.7 168.35 91.7C166.31 91.7 164.66 89.97 164.66 87.85Z" fill="#2D1F04"/>
<path d="M183.63 88.5899C182.41 94.6099 176.19 97.7499 171.89 97.7499C167.31 97.7499 161.77 95.0399 160.1 88.3499C165.21 91.3399 175.3 91.1699 183.63 88.5899Z" fill="#9D7B51"/>
<path d="M171.89 72.96C178.56 72.96 183.97 78.33 183.97 84.97V85.75C183.97 92.38 178.56 97.76 171.89 97.76C165.22 97.76 159.81 92.39 159.81 85.75V84.97C159.8 78.33 165.21 72.96 171.89 72.96Z" stroke="#2D1F04" stroke-width="2.6" stroke-miterlimit="10" stroke-linecap="round" stroke-linejoin="round"/>
<path d="M183.63 88.5899C182.41 94.6099 176.19 97.7499 171.89 97.7499C167.31 97.7499 161.77 95.0399 160.1 88.3499C165.21 91.3399 175.3 91.1699 183.63 88.5899Z" stroke="#2D1F04" stroke-width="2.6" stroke-miterlimit="10" stroke-linecap="round" stroke-linejoin="round"/>
<path d="M94.9 70.8601C88.23 70.8601 82.82 76.2301 82.82 82.8701V83.6501C82.82 90.2801 88.23 95.6501 94.9 95.6501C101.57 95.6501 106.98 90.2801 106.98 83.6501V82.8701C106.98 76.2301 101.57 70.8601 94.9 70.8601Z" fill="white"/>
<path d="M102.13 85.7501C102.13 83.6301 100.48 81.9001 98.44 81.9001C96.4 81.9001 94.75 83.6201 94.75 85.7501C94.75 87.8701 96.4 89.6001 98.44 89.6001C100.47 89.6001 102.13 87.8801 102.13 85.7501Z" fill="#2D1F04"/>
<path d="M83.16 86.5C84.38 92.52 90.6 95.66 94.9 95.66C99.48 95.66 105.02 92.95 106.69 86.26C101.57 89.24 91.48 89.07 83.16 86.5Z" fill="#9D7B51"/>
<path d="M94.9 70.8601C88.23 70.8601 82.82 76.2301 82.82 82.8701V83.6501C82.82 90.2801 88.23 95.6601 94.9 95.6601C101.57 95.6601 106.98 90.2901 106.98 83.6501V82.8701C106.98 76.2301 101.57 70.8601 94.9 70.8601Z" stroke="#2D1F04" stroke-width="2.6" stroke-miterlimit="10" stroke-linecap="round" stroke-linejoin="round"/>
<path d="M83.16 86.5C84.38 92.52 90.6 95.66 94.9 95.66C99.48 95.66 105.02 92.95 106.69 86.26C101.57 89.24 91.48 89.07 83.16 86.5Z" stroke="#2D1F04" stroke-width="2.6" stroke-miterlimit="10" stroke-linecap="round" stroke-linejoin="round"/>
</g>
<defs>
<clipPath id="clip0_202_1273">
<rect width="299" height="342" fill="white"/>
</clipPath>
</defs>
</svg>
