<svg width="278" height="297" viewBox="0 0 278 297" fill="none" xmlns="http://www.w3.org/2000/svg">
<g clip-path="url(#clip0_202_1176)">
<path d="M241.16 212.75C238.65 211.1 236.04 209.88 233.35 208.9C233.34 208.89 233.33 208.89 233.31 208.88C228.13 206.64 222.07 205.21 214.97 205.11C211.9 205.07 208.95 205.23 206.13 205.61C205.24 205.72 204.35 205.86 203.49 206.02C191.43 208.21 181.77 214.29 174.33 223.71C174.28 223.77 174.23 223.83 174.18 223.9C169.86 229.21 166.79 234.92 164.93 239.95C164.93 239.96 164.93 239.97 164.92 239.98C164.37 241.29 163.83 242.65 163.32 244.03C160.79 245.01 157.8 245.9 154.58 246.67C154.49 246.69 154.4 246.71 154.31 246.73C139.37 250.09 108.69 254.02 73.83 250.08C73.36 250.04 72.89 249.98 72.41 249.92C69.19 249.53 65.93 249.08 62.6 248.56C62.47 248.54 62.35 248.53 62.23 248.51C52.55 246.94 42.64 244.73 32.75 241.7C32.72 241.7 32.69 241.69 32.66 241.67C31.57 241.26 30.87 240.93 30.51 240.71C30.59 239.96 30.43 239.7 30.12 239.8C30.04 239.55 29.93 239.39 29.8 239.31C30.21 234.4 30.87 218.07 30.27 217.84C29.08 218.13 28.04 219.37 28 220.56C25.06 214.09 29.46 209.56 29.1 206.19C27.62 205.49 26.16 206.4 25.12 208.65C21.1 200.5 24.68 193.27 23.21 190.03C6.45997 153.08 -1.86003 109.66 17.58 70.3001C22.1 61.1201 28.08 54.1901 35.46 49.0201C29.64 48.9701 20.17 51.0901 11.16 56.3101C13.93 49.8501 21.66 43.2801 35.87 40.4501C33.32 38.0901 26.19 36.6201 18.34 38.9101C27.53 24.2501 44.92 28.3801 44.94 25.4701C44.97 22.0101 30.47 23.1301 29.35 21.8901C41.86 13.1501 56.22 13.1701 66.38 18.4901C61.03 13.3701 61.1 6.65009 64.95 1.34009C72.94 14.7601 103.39 17.8301 104.34 16.4601C99.15 14.8901 99.14 11.6501 100.9 9.92009C106.25 14.4501 122.99 17.8901 134.33 22.5101C217.89 56.6301 244.46 142.18 241.16 212.75Z" fill="#CAA77A"/>
<path d="M214.97 205.11C189.35 204.76 172.53 219 163.32 244.04C154.21 247.59 139.15 249.76 128.56 250.68C104.98 252.73 85.3 252.06 62.57 248.56C40.13 245.1 30.27 240.99 30.24 240.47C29.92 236.2 25.35 243.83 24.73 248.55C24.3 251.87 26.64 254.68 26.4 255.22C22.35 264.04 17.89 272.19 14.9 279.98C13 284.93 11.11 290.49 11.06 295.78C17.62 295.71 262.57 295.89 276.92 295.52C275.19 272.92 267.87 252.36 258.61 234.28C253.77 224.86 241.7 205.47 214.97 205.11Z" fill="#FFDB1F"/>
<path d="M10.62 110.1C16.28 73.4001 48.13 69.8301 75.75 70.5501C90.44 70.9301 83.8 59.4801 84.38 59.2801C84.97 59.0801 94.6 59.5801 122.33 72.4501C151.07 85.7901 174.56 72.7001 190.31 104.12C193.85 111.17 199.23 127.28 195.28 145.19C189.52 171.28 186.55 182.21 159.95 201.52C128.35 224.46 64.35 235.26 32.37 190.96C17.4 170.22 6.51002 136.71 10.62 110.1Z" fill="#FFDBAF"/>
<path d="M85.59 124.72C74.71 118.74 64.66 151.72 65.45 160.25C68.18 189.49 92.49 193.41 111.03 183.69C137.79 169.66 115.41 114.89 96.31 122.87" fill="#9D7B51"/>
<path d="M8.54 106.45C5.56 119.14 14.51 161.29 18.99 164.97C22.44 167.81 45.72 163.92 62.82 142.7C79.09 122.51 78.79 101.63 75.43 97.9402C73.53 95.8602 30 78.3702 26.08 79.1702C20.54 80.3102 12.65 89.0002 8.54 106.45Z" fill="#9D7B51"/>
<path d="M115.28 94.9802C112.96 166.68 179.9 184.24 187.65 172.42C192.62 164.85 212.05 108.42 171.32 82.9302C156.57 77.9402 137.64 93.7102 115.28 94.9802Z" fill="#9D7B51"/>
<path d="M44.97 219.88L44.82 229.63" stroke="#9D7B51" stroke-width="3.87" stroke-miterlimit="10" stroke-linecap="round" stroke-linejoin="round"/>
<path d="M53.83 224.96L53.68 234.7" stroke="#9D7B51" stroke-width="3.87" stroke-miterlimit="10" stroke-linecap="round" stroke-linejoin="round"/>
<path d="M241.16 212.75C244.46 142.18 217.89 56.6401 134.34 22.5201C123.01 17.8901 106.26 14.4601 100.91 9.9301C99.14 11.6601 99.15 14.9001 104.35 16.4701C103.4 17.8401 72.94 14.7601 64.96 1.3501C61.11 6.6401 61.04 13.3701 66.38 18.4901C56.23 13.1701 41.87 13.1501 29.35 21.8901C30.47 23.1201 44.97 22.0101 44.94 25.4701C44.91 28.3801 27.52 24.2501 18.34 38.9101C26.18 36.6201 33.32 38.0901 35.86 40.4501C21.64 43.2701 13.92 49.8301 11.15 56.3001C20.17 51.0701 29.63 48.9601 35.46 49.0101C28.08 54.1901 22.1 61.1301 17.57 70.3001C-1.84998 109.65 6.46002 153.07 23.21 190.02C24.68 193.27 21.1 200.49 25.13 208.64C26.17 206.39 27.63 205.47 29.11 206.18C29.47 209.56 25.07 214.09 28.01 220.56C28.05 219.36 29.08 218.13 30.27 217.84C30.95 218.09 30.03 238.73 29.67 240.55" stroke="#2D1F04" stroke-width="2.62" stroke-miterlimit="10" stroke-linecap="round" stroke-linejoin="round"/>
<path d="M30.46 240.98C92.64 260.86 156.25 247.82 163.32 244.03" stroke="#2D1F04" stroke-width="2.62" stroke-miterlimit="10" stroke-linecap="round" stroke-linejoin="round"/>
<path d="M30.45 241.09C31.2 236.7 26.08 244.49 25.11 246.66C23.68 249.85 26.73 252.79 26.56 254.46C26.37 256.43 14.16 275.87 10.63 294.9" stroke="#2D1F04" stroke-width="2.62" stroke-miterlimit="10" stroke-linecap="round" stroke-linejoin="round"/>
<path d="M160.48 271.75C167.15 278.52 173.15 285.43 176.85 295.13" stroke="#2D1F04" stroke-width="2.62" stroke-miterlimit="10" stroke-linecap="round" stroke-linejoin="round"/>
<path d="M174.02 288.87C173.29 282.74 172.71 274.93 170.23 269.41" stroke="#2D1F04" stroke-width="2.62" stroke-miterlimit="10" stroke-linecap="round" stroke-linejoin="round"/>
<path d="M163.24 245.83C166.47 229.58 186.86 197.12 227.19 207.06C236.4 209.33 244.72 212.99 251.99 223.66C267.56 246.5 272.96 275.11 276.33 294.81" stroke="#2D1F04" stroke-width="2.62" stroke-miterlimit="10" stroke-linecap="round" stroke-linejoin="round"/>
<path d="M77.66 127.84C77.51 123.42 82.03 119.14 91.95 118.7C101.87 118.26 110.03 121.49 110.19 125.92C110.34 130.34 102.43 134.28 92.51 134.72C82.59 135.16 77.81 132.27 77.66 127.84Z" fill="#251707"/>
<path d="M135.34 263.66C117.57 270.14 48.73 268.95 27.32 253.48" stroke="#2D1F04" stroke-width="2.62" stroke-miterlimit="10" stroke-linecap="round" stroke-linejoin="round"/>
<path d="M40.14 244.5C39.25 247.27 38.32 249.4 38.29 252.46" stroke="#2D1F04" stroke-width="2.62" stroke-miterlimit="10" stroke-linecap="round" stroke-linejoin="round"/>
<path d="M56.01 248.07C54.8 250.61 54.54 253.97 54.51 256.79" stroke="#2D1F04" stroke-width="2.62" stroke-miterlimit="10" stroke-linecap="round" stroke-linejoin="round"/>
<path d="M75.07 250.92L73.94 257.74" stroke="#2D1F04" stroke-width="2.62" stroke-miterlimit="10" stroke-linecap="round" stroke-linejoin="round"/>
<path d="M88.48 252.95L88.47 254.09V254.85L88.45 255.99V256.75L88.44 257.51L88.43 258.27" stroke="#2D1F04" stroke-width="2.62" stroke-miterlimit="10" stroke-linecap="round" stroke-linejoin="round"/>
<path d="M81.06 253.26L81.05 254.02L81.04 254.78V255.54L81.03 256.29L81.02 257.05" stroke="#2D1F04" stroke-width="2.62" stroke-miterlimit="10" stroke-linecap="round" stroke-linejoin="round"/>
<path d="M133.75 251.5L133.74 252.26L133.73 253.02L133.72 254.54L133.71 255.3" stroke="#2D1F04" stroke-width="2.62" stroke-miterlimit="10" stroke-linecap="round" stroke-linejoin="round"/>
<path d="M139.05 251.56L139.04 252.69L139.03 253.83L139.02 254.59" stroke="#2D1F04" stroke-width="2.62" stroke-miterlimit="10" stroke-linecap="round" stroke-linejoin="round"/>
<path d="M145.76 118.08C145.28 118.02 144.81 117.96 144.33 117.9L145.76 118.08Z" fill="#2D1F04"/>
<path d="M155.68 86.6501C173.26 86.8201 187.34 95.0301 187.16 112.61C186.99 130.19 172.59 144.3 155.01 144.12H154.65C137.07 143.95 122.96 129.55 123.14 111.97C123.32 94.4001 138.1 86.4801 155.68 86.6501Z" fill="white"/>
<path d="M123.63 117.86C129.38 128.35 176.76 127.55 186.88 108.17C188.48 129.57 174.29 144.31 155.01 144.12C135.74 143.94 126.84 130.57 123.63 117.86Z" fill="#9D7B51"/>
<path d="M155.68 86.6501C173.26 86.8201 187.34 95.0301 187.16 112.61C186.99 130.19 172.59 144.3 155.01 144.12H154.65C137.07 143.95 122.96 129.55 123.14 111.97C123.32 94.4001 138.1 86.4801 155.68 86.6501Z" stroke="#2D1F04" stroke-width="2.79" stroke-miterlimit="10" stroke-linecap="round" stroke-linejoin="round"/>
<path d="M158.05 106.921C158.076 104.358 156.538 102.265 154.616 102.246C152.694 102.227 151.116 104.289 151.09 106.852C151.065 109.414 152.602 111.507 154.524 111.526C156.446 111.545 158.025 109.484 158.05 106.921Z" fill="#2D1F04"/>
<path d="M38.33 86.5501C54.52 86.7101 67.73 94.7901 67.55 112.37C67.38 129.95 54.11 144.07 37.92 143.91H37.59C21.4 143.75 8.41997 129.37 8.58997 111.79C8.68997 102.12 12.78 95.4001 19.14 91.3401C24.34 88.0201 31.05 86.4801 38.33 86.5501Z" fill="white"/>
<path d="M9.52997 120.12C23.7 138.65 51.96 138.52 65.95 122.4C61.91 134.2 51.55 144.04 37.92 143.91C24.29 143.77 13.38 135.09 9.52997 120.12Z" fill="#9D7B51"/>
<path d="M38.33 86.55C54.52 86.71 67.73 94.79 67.55 112.37C67.38 129.95 54.11 144.07 37.92 143.91H37.59C21.4 143.75 8.41997 129.37 8.58997 111.79C8.76997 94.2 22.14 86.39 38.33 86.55Z" stroke="#2D1F04" stroke-width="2.79" stroke-miterlimit="10" stroke-linecap="round" stroke-linejoin="round"/>
<path d="M40.7481 106.701C40.7736 104.139 39.3616 102.047 37.5942 102.029C35.8269 102.012 34.3736 104.075 34.3481 106.638C34.3227 109.2 35.7347 111.292 37.502 111.309C39.2693 111.327 40.7227 109.264 40.7481 106.701Z" fill="#2D1F04"/>
<path d="M92.99 156.62C87.25 156.56 86.26 153.11 82.44 153.07C78.61 153.03 70.66 157.67 70.63 160.73C70.6 163.79 72.04 172.99 92.83 173.2C113.62 173.41 116.52 164.12 116.54 161.7C116.56 159.28 111.64 154 107.05 153.95C102.45 153.91 98.85 156.68 92.99 156.62Z" fill="#251707"/>
<path d="M90.68 130.44C88.92 135.87 89.1 150.85 94.38 160.27" stroke="#2D1F04" stroke-width="2.62" stroke-miterlimit="10" stroke-linecap="round" stroke-linejoin="round"/>
<path d="M9.52997 120.12C24.2 139.73 53.72 137.05 65.95 122.4" stroke="#2D1F04" stroke-width="2.79" stroke-miterlimit="10" stroke-linecap="round" stroke-linejoin="round"/>
<path d="M123.63 117.86C129.38 128.35 176.88 127.55 186.88 108.17" stroke="#2D1F04" stroke-width="2.79" stroke-miterlimit="10" stroke-linecap="round" stroke-linejoin="round"/>
<path d="M107 95.6302C118.98 105.81 134.41 90.1602 159.54 86.7202C175.79 84.5002 184.3 89.0002 184.3 89.0002" stroke="#2D1F04" stroke-width="10.65" stroke-miterlimit="10" stroke-linecap="round" stroke-linejoin="round"/>
<path d="M87.34 94.2401C71.48 105.81 50.18 86.9001 26.55 83.8701C17.6 82.7201 5.62 88.4801 5.62 88.4801" stroke="#2D1F04" stroke-width="10.65" stroke-miterlimit="10" stroke-linecap="round" stroke-linejoin="round"/>
<path opacity="0.23" d="M241.16 212.75C238.65 211.1 236.04 209.88 233.35 208.9C233.34 208.89 233.33 208.89 233.31 208.88C228.13 206.64 222.07 205.21 214.97 205.11C213.81 205.1 212.67 205.11 211.54 205.17C212.21 181.16 210.2 155.28 202.58 125.14C190.46 77.2501 160.07 52.6101 119.32 41.5301C112.86 39.7701 100.21 38.1101 100.41 34.3701C97.18 34.3401 97.03 37.9401 95.6 37.8801C93.75 37.8001 89.22 34.1901 94.39 27.9901C87.67 29.8401 87.17 37.8401 85.73 37.9101C84.29 37.9801 81.16 36.1601 81.57 33.1601C78 34.3401 79.11 38.4201 77.96 38.5501C76.56 38.7101 75.69 34.3401 70.74 31.7801C72.49 35.8001 71.73 39.4601 70.7 39.6401C69.6 39.8401 67.89 35.7901 63.67 36.1301C65.1 37.6301 63.59 41.1601 61.71 41.6601C47.12 45.5601 33.96 52.2001 23.58 60.5201C27.01 55.9601 30.97 52.1601 35.46 49.0201C29.64 48.9701 20.17 51.0901 11.16 56.3101C13.93 49.8501 21.66 43.2801 35.87 40.4501C33.32 38.0901 26.19 36.6201 18.34 38.9101C27.53 24.2501 44.92 28.3801 44.94 25.4701C44.97 22.0101 30.47 23.1301 29.35 21.8901C41.86 13.1501 56.22 13.1701 66.38 18.4901C61.03 13.3701 61.1 6.65009 64.95 1.34009C72.94 14.7601 103.39 17.8301 104.34 16.4601C99.15 14.8901 99.14 11.6501 100.9 9.92009C106.25 14.4501 122.99 17.8901 134.33 22.5101C217.89 56.6301 244.46 142.18 241.16 212.75Z" fill="#3F2719"/>
<path d="M208.98 232.61C213.81 231.37 218.49 230.39 223.24 229.88C227.14 229.47 229.39 231.77 230.45 234.08C231.92 237.28 231.19 239.63 228.41 241.12C228.26 241.2 228.1 241.26 227.79 241.4C232.4 242.97 234.44 247.05 237.86 250.39C235.1 250.46 232.64 250.61 230.05 250.85C228.09 248.79 226.08 246.71 224.06 244.7C222.96 243.6 221.76 242.84 220.02 243.54C220.96 246.22 221.92 248.96 222.91 251.79C220.56 252.16 218.47 252.55 216.26 253.02C213.85 246.2 211.46 239.52 208.98 232.61ZM217.18 235.26C217.67 236.65 218.13 237.93 218.67 239.49C220.1 239.13 221.54 238.88 222.89 238.48C224.08 238.13 224.46 237.27 224.13 236.23C223.78 235.14 222.78 234.39 221.4 234.49C219.99 234.6 218.64 234.95 217.18 235.26ZM244.75 228.6C241.6 227.63 238.69 227.69 236.06 228.57C233.28 229.51 232.16 231.85 232.95 234.56C233.66 237 235.85 238.96 239.16 240.1C240.88 240.69 242.61 241.07 244.34 241.61C245.17 241.87 246.01 242.11 246.83 242.46C247.79 242.87 248.58 243.62 248.87 244.58C249.18 245.62 248.75 246.24 247.94 246.55C246.15 247.24 243.61 246.17 242.13 244.07C241.86 243.68 241.61 243.28 241.33 242.84C239.24 242.95 237.23 243.1 235.23 243.31C236.52 246.85 239.49 249.44 243.01 250.37C245.68 251.07 248.22 251.3 250.52 251.07C251.93 250.93 253.31 250.48 254.24 249.68C257.02 247.34 255.37 240.69 249.34 237.8C248.39 237.35 247.43 236.97 246.47 236.67C244.75 236.13 243.03 235.72 241.3 235.3C240.36 235.07 239.49 234.71 239.06 233.65C239.01 232.36 239.89 231.99 241.08 232.02C242.92 232.07 244.34 233.1 245.31 235C247.36 234.95 249.3 234.94 251.4 235C250 231.6 248.01 229.62 244.75 228.6Z" fill="black"/>
<path d="M88.92 85.3101C89.48 80.5501 87.88 70.4901 81.8 65.1501" stroke="#2D1F04" stroke-width="2.79" stroke-miterlimit="10" stroke-linecap="round" stroke-linejoin="round"/>
<path d="M107.32 63.53C105.08 68.78 102.05 78.2 103.6 87.19" stroke="#2D1F04" stroke-width="2.79" stroke-miterlimit="10" stroke-linecap="round" stroke-linejoin="round"/>
</g>
<defs>
<clipPath id="clip0_202_1176">
<rect width="278" height="297" fill="white"/>
</clipPath>
</defs>
</svg>
