<svg width="274" height="341" viewBox="0 0 274 341" fill="none" xmlns="http://www.w3.org/2000/svg">
<g clip-path="url(#clip0_202_830)">
<path d="M230.74 108.67C223.7 76.2099 217.49 42.0999 171.76 19.3599C158.95 12.9799 131.62 6.26991 131.35 6.39991C129.86 7.14991 133.87 10.7499 133.87 10.7499C133.87 10.7499 126.04 10.0599 120.51 9.58991C115.36 9.15991 107.49 7.33991 105.51 0.909912C100.97 4.69991 105.3 9.63991 106.65 12.3499C101.27 8.83991 94.76 8.52991 88.19 10.2399C82.64 11.6899 80 14.7399 80.12 14.8599C80.94 15.6799 91.33 14.8399 91.33 17.1499C87.81 16.8899 83.7 17.4399 78.8 19.3599C73.53 21.4299 70.97 26.0499 71.27 26.2699C72.21 26.9699 75.3 25.4999 78.1 25.5099C81.7 25.5199 85.03 26.8999 84.93 27.2099C84.8 27.5999 84.18 27.5699 83.78 27.6699C73.51 30.1699 67.25 35.5299 65.97 42.0999C72.1 36.1699 76.7 33.8099 84.7 32.9299C79.44 36.4299 75.74 41.7399 72.81 47.1099C62.14 66.5799 60.97 83.8999 69.53 110.16C70.43 112.93 70.54 118.86 69.71 123.17C72.23 122.95 72.71 118.56 73.79 120.69C74.88 122.82 74.28 127.45 73.19 131.85C76.44 132.42 76.9 126.25 77.86 128.43C78.82 130.6 77.52 135.4 76.89 137.02C79.19 137.34 79.97 133.98 80.18 135.85C80.27 136.64 80.32 137.42 80.32 138.19C63.84 152.03 60.22 166.94 42.68 193.33C25.06 219.84 28.38 233.72 37.89 240.77C42.28 244.02 47.22 246.07 52.35 247.29C30.09 247.3 20.7 267.07 26.66 281.98C28.12 285.63 31.36 289.83 35.08 291.75C16.97 300.63 -0.480009 318.14 1.17999 318.14C33.26 318.14 58.46 326.77 74.46 318.77C78.17 316.92 80.51 312.82 81.22 308.33C84.59 308.4 96.65 310.41 109.16 313.04C119.88 315.29 126.44 314.79 134.81 314C123.85 325.08 112.54 338.28 112.83 338.58C113.94 339.68 142.93 340.04 161.66 330.99C169.32 327.29 173.77 325.28 184.01 326.25C210.46 328.76 249.34 332.3 261.58 320.96C278.56 305.24 270.23 287.92 256.63 282.14C249.56 279.13 242.37 277.42 235.58 276.55C245.85 218.55 232.37 116.16 230.74 108.67Z" fill="#CAA77A"/>
<path d="M72.92 173.18C69.41 193.79 73.86 197.5 73.65 201.22C73.29 207.72 69.18 212.54 65.33 217.69C63.13 220.63 61.01 223.67 59.71 227.18C57.9 232.09 56.8 240.37 59.26 245.49C59.14 245.49 51.41 250.19 48.81 251.07C44.77 247.75 41.96 245.77 38.58 241.23C31.51 231.74 25.75 220.3 43.37 193.79C60.99 167.29 63.94 152.94 80.59 139.05C80.68 139.23 80.9 139.09 81.14 138.87C81.11 140.11 80.95 141.45 80.66 142.92C78.66 152.92 74.62 163.15 72.92 173.18Z" fill="#CAA77A"/>
<path opacity="0.23" d="M93.28 286.09C92.2 282.82 91.67 270.28 88.6 269.2C78.74 265.77 60.69 284.13 46.51 281.04C40.17 279.66 31.98 275.8 29.76 269.27C29.29 267.9 27.84 264.51 27.94 262.87C25.16 269.86 25.02 279.35 29.02 286.3C32.05 291.55 36.17 291.89 35.8 291.95C27.02 296.34 5.9 311.15 2.53 318.32C8.83 318.62 18.77 319.29 21.59 319.55C35.08 320.77 64.5 326.79 75.98 319.07C79.87 316.45 81.49 312.82 81.93 308.79C87.53 308.74 98.34 310.9 109.87 313.5C117.08 315.13 126.4 316.07 135.52 314.46C145.32 304.54 157.49 293.32 175.1 286.07C150.3 292.89 143.88 302.43 138.05 304.17C126.96 307.49 99.64 305.29 93.28 286.09Z" fill="#3F2719"/>
<path d="M58.87 248.78C71.78 250.76 81.99 255.85 87.88 262.88C87.89 262.89 87.89 262.89 87.9 262.9C97.33 273.52 103.54 286.19 125.15 288.07C146.46 289.93 157.07 288.82 170.09 284.22C182.92 279.7 200.4 272.73 235.7 277.22C238.51 265.02 240.8 247.48 243.19 220.33C245.37 195.56 249.11 138.67 240.13 124.58C238.91 128.37 238.79 128.37 240.01 124.58C240.01 124.57 240.01 124.57 240.02 124.56C241.52 119.91 240.5 117.11 239.16 115.13C236 110.47 232.1 105.79 231.41 109.08C231.41 109.09 231.4 109.11 231.4 109.12C223.04 153 175.3 164.32 139.67 164.3C108.62 164.29 92.1 156.81 80.01 145.73H80C80.23 144.79 80.43 143.85 80.62 142.92C80.86 141.59 80.98 140.28 80.98 138.97C80.79 139.13 80.62 139.2 80.55 139.05C80.3 139.26 80.05 139.47 79.8 139.68C79.68 139.78 79.57 139.88 79.46 139.98C67.68 150.44 62.67 161.68 53.08 178.14C53.06 178.13 53.05 178.12 53.03 178.11C51.88 177.49 49.51 179.93 48.56 181.29C47.79 182.39 46.3 185.03 47.82 186.66C52.24 191.41 63.41 199.52 70.95 209.62C70.97 209.59 70.99 209.55 71.01 209.52C71.04 209.47 71.07 209.42 71.1 209.36C71.15 209.28 71.19 209.2 71.23 209.11C71.36 208.89 71.48 208.67 71.58 208.44C71.67 208.27 71.75 208.1 71.83 207.93C71.92 207.76 72 207.58 72.07 207.41C72.16 207.23 72.23 207.06 72.3 206.88C72.37 206.7 72.44 206.53 72.5 206.35C72.55 206.22 72.6 206.1 72.64 205.97C72.73 205.74 72.81 205.5 72.88 205.26C72.96 205 73.04 204.74 73.1 204.47C73.13 204.36 73.16 204.26 73.18 204.15C73.25 203.87 73.31 203.58 73.36 203.29C73.42 203.01 73.46 202.72 73.5 202.42C73.51 202.35 73.52 202.27 73.53 202.19C73.56 201.87 73.59 201.55 73.61 201.22C73.65 200.46 73.5 199.71 73.27 198.81C73.26 198.79 73.26 198.78 73.25 198.76C73.18 198.49 73.1 198.21 73.02 197.91C72.94 197.62 72.85 197.31 72.76 196.99C72.75 196.93 72.73 196.87 72.71 196.8C72.63 196.48 72.54 196.13 72.45 195.76C72.4 195.58 72.36 195.38 72.32 195.19C72.32 195.17 72.32 195.15 72.31 195.13C72.26 194.91 72.22 194.69 72.17 194.45C72.04 193.75 71.91 192.99 71.81 192.13C71.74 191.56 71.68 190.96 71.64 190.31C71.6 189.81 71.58 189.28 71.56 188.73C71.55 188.47 71.54 188.21 71.54 187.94C71.52 187.24 71.53 186.49 71.55 185.7C71.55 185.28 71.57 184.84 71.59 184.39C71.61 184.09 71.62 183.78 71.64 183.47C71.67 182.95 71.71 182.41 71.76 181.85C71.84 180.88 71.96 180.88 71.88 181.85C71.83 182.41 71.8 182.95 71.76 183.47C71.74 183.78 71.73 184.09 71.71 184.39C71.69 184.84 71.68 185.27 71.67 185.7C71.65 186.49 71.64 187.24 71.66 187.94C71.66 188.21 71.67 188.47 71.68 188.73C71.7 189.28 71.72 189.81 71.76 190.31C71.81 190.95 71.86 191.56 71.93 192.13C72.03 192.99 72.16 193.75 72.29 194.45C72.34 194.69 72.38 194.91 72.43 195.13C72.44 195.15 72.44 195.17 72.44 195.19C72.49 195.39 72.53 195.57 72.57 195.76C72.66 196.13 72.75 196.48 72.83 196.8C72.85 196.87 72.87 196.93 72.88 196.99C72.97 197.31 73.06 197.62 73.14 197.91C73.22 198.21 73.3 198.49 73.37 198.76C73.38 198.78 73.38 198.79 73.39 198.81C73.62 199.71 73.77 200.46 73.73 201.22C73.71 201.55 73.68 201.87 73.65 202.19C73.64 202.27 73.63 202.35 73.62 202.42C73.58 202.72 73.54 203.01 73.48 203.29C73.43 203.58 73.37 203.87 73.3 204.15C73.28 204.26 73.25 204.36 73.22 204.47C73.16 204.74 73.08 205 73 205.26C72.93 205.5 72.85 205.74 72.76 205.97C72.72 206.1 72.68 206.22 72.62 206.35C72.56 206.53 72.49 206.7 72.42 206.88C72.35 207.06 72.28 207.23 72.19 207.41C72.12 207.58 72.04 207.76 71.95 207.93C71.88 208.1 71.8 208.27 71.7 208.44C71.6 208.67 71.48 208.89 71.35 209.11C71.31 209.2 71.27 209.28 71.22 209.36C71.19 209.42 71.16 209.47 71.13 209.52C71.11 209.56 71.1 209.59 71.08 209.62H71.07C71 209.77 70.91 209.92 70.82 210.06C70.65 210.36 70.47 210.65 70.28 210.95C69.87 211.61 69.43 212.26 68.97 212.9C68.75 213.22 68.52 213.54 68.28 213.86C67.83 214.49 67.35 215.11 66.88 215.74C66.39 216.39 65.9 217.04 65.41 217.69" fill="#FFDB1F"/>
<path d="M72.17 70.6598C74.48 61.2698 78.64 57.5398 87.04 55.9898C96.91 54.1698 100.03 39.2198 109.57 38.8298C111.34 38.7598 115.47 37.8698 116.34 36.2098C119.04 31.0698 112.83 28.8898 115.92 29.4698C119.01 30.0598 138.79 36.9298 145.53 37.6698C164.94 39.8098 183.06 43.5198 194.58 64.3898C197.17 69.0798 203.41 84.5598 200.7 96.5398C196.76 113.99 194.71 121.31 175.77 134.39C153.27 149.92 93.4 145.29 79.6 119.9C79.96 100.11 67.86 88.1798 72.17 70.6598Z" fill="#FFDBAF"/>
<path d="M126.14 94.88C118.29 90.96 109.38 106.49 109.01 117.44C108.25 139.9 138.79 145.38 155.92 134.16C173.77 122.47 152.23 88.08 138.59 93.54" fill="#9D7B51"/>
<path d="M72.05 66.36C64.61 82.45 74.16 114.81 80.55 121.14C88.07 118.75 94.11 115.61 98.92 111.94C129.83 88.41 110.33 43.51 108.22 41.4C106.85 40.03 81.4 55.65 78.59 56.22C74.62 57.02 73.57 63.07 72.05 66.36Z" fill="#9D7B51"/>
<path d="M148.57 40.55C134.5 108.47 189.94 122.71 195.42 114.77C198.93 109.68 205.86 85.82 196.67 69.74C195.77 68.17 183.27 50.26 181.61 50.54C168.02 52.81 151.38 26.98 148.57 40.55Z" fill="#9D7B51"/>
<path d="M93.43 142.4L93.39 148.91" stroke="#9D7B51" stroke-width="3.87" stroke-miterlimit="10" stroke-linecap="round" stroke-linejoin="round"/>
<path d="M99.82 145.73L99.78 152.24" stroke="#9D7B51" stroke-width="3.87" stroke-miterlimit="10" stroke-linecap="round" stroke-linejoin="round"/>
<path d="M32.92 293.96C27.99 298.89 14.4 305.14 8.31998 310.57C6.59998 312.11 2.32998 315.72 2.53998 318.32C2.59998 319.14 3.21998 318.79 3.64998 318.74C8.44998 318.2 15.68 317.7 20.43 318.5C25.16 319.29 44.83 324.86 47.91 321.94C49.26 320.65 48.77 318.42 48.53 316.86C47.19 308.31 41.7 302.67 35.91 296.59C35.08 295.72 33.72 293.16 32.92 293.96Z" fill="#D2D2D2"/>
<path d="M260.06 187.51C258.46 187.5 255.8 187.52 252.44 187.63C232.93 188.26 221.31 194.64 212.31 201.06C210.49 199.97 208.69 198.86 206.92 197.73C194.99 190.2 183.89 181.92 172.34 172.79C178.7 171.69 184.47 170.28 189.7 168.64C201.75 164.55 208.97 161.15 220.62 152.48C235.54 140.1 239.19 126.87 239.94 124.55C248.59 142.64 254.23 159.61 258.11 177.58C259.77 177.77 261 177.66 262.4 181.7C264.13 186.67 263.46 187.45 260.06 187.51Z" fill="#FFDB1F"/>
<path opacity="0.23" d="M62.86 214.22C65.07 210.43 72.77 202.31 69.3 191.56C70.33 192.83 72.18 195.24 72.59 196.34C73 197.44 73.87 199.91 73.55 201.92C73.22 203.93 72.23 207.95 70.6 210.42C68.97 212.89 66.9 215.74 65.41 217.68C64.57 216.82 63.79 215.67 62.86 214.22Z" fill="#3F2719"/>
<path opacity="0.23" d="M231.45 109.09C231.44 109.11 231.43 109.13 231.43 109.15C228.78 123.06 222.18 133.7 213.25 141.74C219.53 92.9799 201.24 57.0599 179.96 40.6799C165.75 29.7399 150.91 25.2099 137.43 24.2799C135.96 24.1799 130.56 23.5099 131.23 21.7199C128.79 21.6899 128.25 24.1499 125.93 24.3299C123.58 24.5099 121.18 19.9999 116.22 21.4399C118.44 22.2699 116.65 24.9699 114 26.1499C111.83 27.1199 107.84 26.5599 107.8 24.3899C106.14 26.1199 107.6 27.8499 106.39 28.2399C104.86 28.7299 99.8 24.4799 96.82 27.8399C100.61 28.0499 99.52 30.7899 98.36 31.3099C88.84 35.5399 81.31 41.1499 73.55 47.5499C76.48 42.1899 80.17 36.8999 85.42 33.4099C77.42 34.2899 72.82 36.6499 66.69 42.5799C67.97 36.0099 74.23 30.6499 84.5 28.1499C84.9 28.0499 85.52 28.0799 85.65 27.6899C85.75 27.3799 82.42 25.9999 78.82 25.9899C76.02 25.9799 72.93 27.4499 71.99 26.7499C71.69 26.5299 74.25 21.9099 79.52 19.8399C84.42 17.9199 88.53 17.3699 92.05 17.6299C92.05 15.3199 81.66 16.1599 80.84 15.3399C80.72 15.2199 83.36 12.1699 88.91 10.7199C95.48 9.00989 101.99 9.31989 107.37 12.8299C106.02 10.1199 101.69 5.17989 106.23 1.38989C108.21 7.81989 116.08 9.63989 121.23 10.0699C126.76 10.5399 134.59 11.2299 134.59 11.2299C134.59 11.2299 130.58 7.62989 132.07 6.87989C132.34 6.74989 159.67 13.4599 172.48 19.8399C218.18 42.5699 224.41 76.6499 231.45 109.09Z" fill="#3F2719"/>
<path opacity="0.23" d="M240.03 124.57C240.02 124.58 240.02 124.58 240.02 124.59C239.36 126.65 236.27 137.96 224.26 149.38C225.65 142.44 223.69 138.22 217.67 137.27C224.34 129.87 229.22 120.62 231.41 109.13C231.41 109.12 231.42 109.1 231.42 109.09C232.11 105.8 236.01 110.48 239.17 115.14C240.51 117.12 241.53 119.92 240.03 124.57Z" fill="#3F2719"/>
<path opacity="0.23" d="M204.18 213.52C199.78 214.12 198.47 225.62 174.68 221.42C160.62 218.94 151.6 212.62 143.12 210.58C136.74 209.05 134.14 212.09 123.93 212.21C116.11 212.31 105.69 211.27 98.02 209.06C86.38 205.7 78.68 201 77.25 204.29C74.14 211.48 96.5 216.28 117.08 216.89C129.15 217.24 138.71 213.47 141.84 214.68C155.48 219.96 171.47 229.67 188.22 228.13C197.58 227.28 212.75 212.34 204.18 213.52Z" fill="#3F2719"/>
<path d="M88.9 152.56C87.45 154.01 86.81 155.62 86.43 157.41" stroke="#2D1F04" stroke-width="2.62" stroke-miterlimit="10" stroke-linecap="round" stroke-linejoin="round"/>
<path d="M99.82 158.25C99.08 159.79 98.57 161.84 98.4 163.62" stroke="#2D1F04" stroke-width="2.62" stroke-miterlimit="10" stroke-linecap="round" stroke-linejoin="round"/>
<path d="M117.37 162.71C116.65 164.86 116.65 166.65 116.65 168.18" stroke="#2D1F04" stroke-width="2.62" stroke-miterlimit="10" stroke-linecap="round" stroke-linejoin="round"/>
<path d="M124.55 163.62C124.24 165.11 123.92 167.73 124.11 170.03" stroke="#2D1F04" stroke-width="2.62" stroke-miterlimit="10" stroke-linecap="round" stroke-linejoin="round"/>
<path d="M131.7 164.12C131.39 165.43 131.2 168.17 131.33 170.02" stroke="#2D1F04" stroke-width="2.62" stroke-miterlimit="10" stroke-linecap="round" stroke-linejoin="round"/>
<path d="M167.95 161.85C168.57 163.2 169.08 165.18 169.16 166.83" stroke="#2D1F04" stroke-width="2.62" stroke-miterlimit="10" stroke-linecap="round" stroke-linejoin="round"/>
<path d="M175.77 160.19C176.31 161.33 176.91 163.37 176.99 164.9" stroke="#2D1F04" stroke-width="2.62" stroke-miterlimit="10" stroke-linecap="round" stroke-linejoin="round"/>
<path d="M215.8 139.29C217.4 140.46 218.63 141.55 219.54 142.73" stroke="#2D1F04" stroke-width="2.62" stroke-miterlimit="10" stroke-linecap="round" stroke-linejoin="round"/>
<path d="M219.54 135.13C220.83 135.87 222.45 136.94 223.87 138.25" stroke="#2D1F04" stroke-width="2.62" stroke-miterlimit="10" stroke-linecap="round" stroke-linejoin="round"/>
<path d="M222.29 131.35C223.89 132.05 225.03 132.69 225.99 133.46" stroke="#2D1F04" stroke-width="2.62" stroke-miterlimit="10" stroke-linecap="round" stroke-linejoin="round"/>
<path d="M67.23 189.22C69.15 191.28 70.94 193.49 72.45 195.76" stroke="#2D1F04" stroke-width="2.62" stroke-miterlimit="10" stroke-linecap="round" stroke-linejoin="round"/>
<path d="M70.95 209.62C70.97 209.59 70.99 209.55 71.01 209.52C71.04 209.47 71.07 209.42 71.1 209.36C71.15 209.28 71.19 209.2 71.23 209.11C71.36 208.89 71.48 208.67 71.58 208.44C71.67 208.27 71.75 208.1 71.83 207.93C71.92 207.76 72 207.58 72.07 207.41C72.16 207.23 72.23 207.06 72.3 206.88C72.37 206.7 72.44 206.53 72.5 206.35C72.55 206.22 72.6 206.1 72.64 205.97C72.73 205.74 72.81 205.5 72.88 205.26C72.96 205 73.04 204.74 73.1 204.47C73.13 204.36 73.16 204.26 73.18 204.15C73.25 203.87 73.31 203.58 73.36 203.29C73.42 203.01 73.46 202.72 73.5 202.42C73.51 202.35 73.52 202.27 73.53 202.19C73.56 201.87 73.59 201.55 73.61 201.22C73.65 200.46 73.5 199.71 73.27 198.81C73.26 198.79 73.26 198.78 73.25 198.76C73.18 198.49 73.1 198.21 73.02 197.91C72.94 197.62 72.85 197.31 72.76 196.99C72.75 196.93 72.73 196.87 72.71 196.8C72.63 196.48 72.54 196.13 72.45 195.76C72.4 195.58 72.36 195.38 72.32 195.19C72.32 195.17 72.32 195.15 72.31 195.13C72.26 194.91 72.22 194.69 72.17 194.45C72.04 193.75 71.91 192.99 71.81 192.13C71.74 191.56 71.68 190.96 71.64 190.31C71.6 189.81 71.58 189.28 71.56 188.73C71.55 188.47 71.54 188.21 71.54 187.94C71.52 187.24 71.53 186.49 71.55 185.7C71.55 185.28 71.57 184.84 71.59 184.39C71.61 184.09 71.62 183.78 71.64 183.47C71.67 182.95 71.71 182.41 71.76 181.85C71.84 180.88 75.69 161.3 77.42 155.35C77.45 155.38 71.96 180.88 71.88 181.85C71.83 182.41 71.8 182.95 71.76 183.47C71.74 183.78 71.73 184.09 71.71 184.39C71.69 184.84 71.68 185.27 71.67 185.7C71.65 186.49 71.64 187.24 71.66 187.94C71.66 188.21 71.67 188.47 71.68 188.73C71.7 189.28 71.72 189.81 71.76 190.31C71.81 190.95 71.86 191.56 71.93 192.13C72.03 192.99 72.16 193.75 72.29 194.45C72.34 194.69 72.38 194.91 72.43 195.13C72.44 195.15 72.44 195.17 72.44 195.19C72.49 195.39 72.53 195.57 72.57 195.76C72.66 196.13 72.75 196.48 72.83 196.8C72.85 196.87 72.87 196.93 72.88 196.99C72.97 197.31 73.06 197.62 73.14 197.91C73.22 198.21 73.3 198.49 73.37 198.76C73.38 198.78 73.38 198.79 73.39 198.81C73.62 199.71 73.77 200.46 73.73 201.22C73.71 201.55 73.68 201.87 73.65 202.19C73.64 202.27 73.63 202.35 73.62 202.42C73.58 202.72 73.54 203.01 73.48 203.29C73.43 203.58 73.37 203.87 73.3 204.15C73.28 204.26 73.25 204.36 73.22 204.47C73.16 204.74 73.08 205 73 205.26C72.93 205.5 72.85 205.74 72.76 205.97C72.72 206.1 72.68 206.22 72.62 206.35C72.56 206.53 72.49 206.7 72.42 206.88C72.35 207.06 72.28 207.23 72.19 207.41C72.12 207.58 72.04 207.76 71.95 207.93C71.88 208.1 71.8 208.27 71.7 208.44C71.6 208.67 71.48 208.89 71.35 209.11C71.31 209.2 71.27 209.28 71.22 209.36C71.19 209.42 71.16 209.47 71.13 209.52C71.11 209.56 71.1 209.59 71.08 209.62H71.07C71 209.77 70.91 209.92 70.82 210.06C70.65 210.36 70.47 210.65 70.28 210.95C69.87 211.61 69.43 212.26 68.97 212.9C68.75 213.22 68.52 213.54 68.28 213.86C67.83 214.49 67.35 215.11 66.88 215.74C66.39 216.39 65.9 217.04 65.41 217.69M53.08 178.14C53.06 178.13 53.05 178.12 53.03 178.11C51.88 177.49 49.51 179.93 48.56 181.29C47.79 182.39 46.3 185.03 47.82 186.66" stroke="#2D1F04" stroke-width="2.62" stroke-miterlimit="10" stroke-linecap="round" stroke-linejoin="round"/>
<path d="M87.81 262.88C97.25 273.5 103.45 286.18 125.08 288.07C146.39 289.93 156.99 288.82 170.02 284.22C183.04 279.62 199.9 272.1 236.28 277.01" stroke="#2D1F04" stroke-width="2.62" stroke-miterlimit="10" stroke-linecap="round" stroke-linejoin="round"/>
<path d="M189.81 168.71C176.73 172.8 160.29 175.45 139.63 175.45C106.86 175.45 76.03 151.86 76.25 150.36C76.77 146.74 78.87 144.55 80.06 145.72C92.15 156.8 108.68 164.28 139.72 164.29C175.35 164.31 223.09 152.99 231.45 109.11C232.13 105.74 236.04 110.44 239.21 115.12C240.55 117.1 241.57 119.91 240.06 124.58C239.34 126.82 235.71 140.1 220.73 152.53" stroke="#2D1F04" stroke-width="2.62" stroke-miterlimit="10" stroke-linecap="round" stroke-linejoin="round"/>
<path d="M80.05 145.75C80.27 144.81 80.48 143.86 80.66 142.92C81.05 140.69 81.12 138.52 80.87 136.31C80.66 134.44 79.88 137.8 77.58 137.48C78.21 135.86 79.51 131.06 78.55 128.89C77.59 126.72 77.13 132.89 73.88 132.31C74.97 127.91 75.57 123.28 74.49 121.15C73.41 119.02 72.93 123.4 70.41 123.63C71.24 119.32 71.13 113.39 70.23 110.62C61.67 84.3599 62.84 67.0399 73.51 47.5699C76.45 42.2099 80.15 36.8999 85.4 33.3899" stroke="#2D1F04" stroke-width="2.62" stroke-miterlimit="10" stroke-linecap="round" stroke-linejoin="round"/>
<path d="M135.53 314.46C125.3 315.77 116.84 315 109.88 313.5C98.14 310.97 87.85 308.85 82.39 308.85" stroke="#2D1F04" stroke-width="2.62" stroke-miterlimit="10" stroke-linecap="round" stroke-linejoin="round"/>
<path d="M107.35 12.7999C106 10.0999 101.67 5.14987 106.21 1.36987C108.19 7.79987 116.06 9.61987 121.21 10.0499C126.74 10.5199 134.57 11.1999 134.57 11.1999C134.57 11.1999 130.56 7.59987 132.05 6.84987C132.31 6.71987 159.65 13.4299 172.46 19.8099C218.18 42.5599 224.39 76.6699 231.44 109.12" stroke="#2D1F04" stroke-width="2.62" stroke-miterlimit="10" stroke-linecap="round" stroke-linejoin="round"/>
<path d="M6.50998 316.16C19.69 317.34 33 310.94 46.26 312.13" stroke="#2D1F04" stroke-width="2.62" stroke-miterlimit="10" stroke-linecap="round" stroke-linejoin="round"/>
<path d="M4.32999 317.34C12.51 310.51 29.18 301.67 40.32 302.66" stroke="#2D1F04" stroke-width="2.62" stroke-miterlimit="10" stroke-linecap="round" stroke-linejoin="round"/>
<path d="M33.69 294.41C40.05 300.51 48.53 310.04 47.52 321.22" stroke="#2D1F04" stroke-width="2.62" stroke-miterlimit="10" stroke-linecap="round" stroke-linejoin="round"/>
<path d="M57.9 248.65C72.28 250.66 83.42 256.52 89.16 264.62" stroke="#2D1F04" stroke-width="2.62" stroke-miterlimit="10" stroke-linecap="round" stroke-linejoin="round"/>
<path d="M53.06 178.13C62.91 161.08 67.55 149.92 80.59 139.05" stroke="#2D1F04" stroke-width="2.62" stroke-miterlimit="10" stroke-linecap="round" stroke-linejoin="round"/>
<path d="M54.08 287.15C32.07 286.84 -0.36002 318.6 1.87998 318.6C33.96 318.6 59.16 327.23 75.16 319.23C81.75 315.93 84.03 305.53 80.51 298.47" stroke="#2D1F04" stroke-width="2.62" stroke-miterlimit="10" stroke-linecap="round" stroke-linejoin="round"/>
<path d="M53.07 247.75C31.88 247.69 21.39 267.53 27.35 282.44C28.83 286.14 30.17 289.67 33.95 291.56" stroke="#2D1F04" stroke-width="2.62" stroke-miterlimit="10" stroke-linecap="round" stroke-linejoin="round"/>
<path d="M85.39 33.3899C77.39 34.2699 72.79 36.6299 66.67 42.5699C67.95 35.9999 74.2 30.6299 84.48 28.1299C84.88 28.0299 85.49 28.0599 85.62 27.6699C85.72 27.3599 82.39 25.9799 78.8 25.9699C76 25.9599 72.9 27.4299 71.97 26.7299C71.67 26.4999 74.23 21.8899 79.5 19.8199C84.4 17.8999 88.5 17.3499 92.03 17.6099C92.03 15.2999 81.64 16.1399 80.82 15.3199C80.7 15.1999 83.33 12.1499 88.88 10.6999C95.45 8.98986 101.97 9.28986 107.35 12.7999" stroke="#2D1F04" stroke-width="2.62" stroke-miterlimit="10" stroke-linecap="round" stroke-linejoin="round"/>
<path d="M119.57 110.84C117.83 123.18 123.71 126.02 130 126.51C136.3 127.01 143.14 121.43 143.66 114.37C143.39 113.24 143.09 111.09 143.25 109.65C141.7 111.78 138.63 113.63 133.74 111.73C129.45 112.84 123.66 112.57 119.57 110.84Z" fill="#251707"/>
<path d="M119.81 120.03C122.81 117.73 128.04 118.12 129.96 120.03C132.64 118.31 138.32 117.8 141.13 120.67C137.56 125.78 134.94 127.05 129.9 126.86C124.85 126.67 121.53 124.05 119.81 120.03Z" fill="#FF8A8A"/>
<path d="M148.04 98.9099C144.35 102.63 137.93 113.77 151.27 127.36" stroke="#2D1F04" stroke-width="2.62" stroke-miterlimit="10" stroke-linecap="round" stroke-linejoin="round"/>
<path d="M119.57 110.84C117.77 122.71 123.79 126.16 130.43 126.5C137.07 126.84 142.42 121.04 143.66 114.66" stroke="#2D1F04" stroke-width="2.62" stroke-miterlimit="10" stroke-linecap="round" stroke-linejoin="round"/>
<path d="M120.16 119.78C123.2 117.76 128.12 118.18 129.96 120.03C132.47 118.41 137.62 117.86 140.57 120.17" stroke="#2D1F04" stroke-width="2.62" stroke-miterlimit="10" stroke-linecap="round" stroke-linejoin="round"/>
<path d="M133.74 111.72C127.32 112.92 122.85 111.95 119.56 110.84" stroke="#2D1F04" stroke-width="2.62" stroke-miterlimit="10" stroke-linecap="round" stroke-linejoin="round"/>
<path d="M134.07 100.22C133.16 103.52 132.97 108.1 133.81 112C136.97 112.82 140.56 113.13 143.23 110.17" stroke="#2D1F04" stroke-width="2.62" stroke-miterlimit="10" stroke-linecap="round" stroke-linejoin="round"/>
<path d="M172.22 72.05C178.89 72.05 184.3 77.42 184.3 84.06V84.84C184.3 91.47 178.89 96.84 172.22 96.84C165.55 96.84 160.14 91.47 160.14 84.84V84.06C160.13 77.42 165.54 72.05 172.22 72.05Z" fill="white"/>
<path d="M167.81 84.4501C167.81 82.3301 169.46 80.6001 171.5 80.6001C173.54 80.6001 175.19 82.3201 175.19 84.4501C175.19 86.5701 173.54 88.3001 171.5 88.3001C169.46 88.2901 167.81 86.5701 167.81 84.4501Z" fill="#2D1F04"/>
<path d="M172.22 72.05C178.89 72.05 184.3 77.42 184.3 84.06V84.84C184.3 91.47 178.89 96.85 172.22 96.85C165.55 96.85 160.14 91.48 160.14 84.84V84.06C160.13 77.42 165.54 72.05 172.22 72.05Z" stroke="#2D1F04" stroke-width="2.6" stroke-miterlimit="10" stroke-linecap="round" stroke-linejoin="round"/>
<path d="M95.22 69.95C88.55 69.95 83.14 75.32 83.14 81.96V82.74C83.14 89.37 88.55 94.74 95.22 94.74C101.89 94.74 107.3 89.37 107.3 82.74V81.96C107.31 75.33 101.9 69.95 95.22 69.95Z" fill="white"/>
<path d="M99.1 83.1898C99.1 81.0698 97.45 79.3398 95.41 79.3398C93.37 79.3398 91.72 81.0598 91.72 83.1898C91.72 85.3098 93.37 87.0398 95.41 87.0398C97.45 87.0398 99.1 85.3198 99.1 83.1898Z" fill="#2D1F04"/>
<path d="M95.22 69.95C88.55 69.95 83.14 75.32 83.14 81.96V82.74C83.14 89.37 88.55 94.75 95.22 94.75C101.89 94.75 107.3 89.38 107.3 82.74V81.96C107.31 75.33 101.9 69.95 95.22 69.95Z" stroke="#2D1F04" stroke-width="2.6" stroke-miterlimit="10" stroke-linecap="round" stroke-linejoin="round"/>
<path d="M120.6 95.5298C120.45 92.5798 126.25 89.8998 133.54 89.5398C140.83 89.1798 146.86 91.2898 147.01 94.2398C147.16 97.1898 141.36 99.8698 134.07 100.23C126.77 100.58 120.75 98.4798 120.6 95.5298Z" fill="#251707"/>
<path d="M110.45 40.6599C70.14 44.9699 62.55 90.6399 62.55 90.6399" stroke="#2D1F04" stroke-width="7.6" stroke-miterlimit="10" stroke-linecap="round" stroke-linejoin="round"/>
<path d="M143.66 37.3398C182.42 37.7298 201.5 76.7398 201.5 76.7398" stroke="#2D1F04" stroke-width="7.6" stroke-miterlimit="10" stroke-linecap="round" stroke-linejoin="round"/>
<path d="M128.83 127.22C128.11 126.86 127.28 126.67 126.42 126.69C123.61 126.77 121.4 129.12 121.48 131.93C121.51 132.86 121.78 133.72 122.24 134.46C120.33 135.9 119.11 138.21 119.19 140.78C119.31 145 122.83 148.31 127.04 148.19C129.2 148.13 131.12 147.17 132.47 145.68C133.38 146.4 134.54 146.82 135.79 146.79C138.6 146.71 140.81 144.36 140.73 141.55C140.67 139.53 139.44 137.82 137.71 137.05C138.41 136.15 138.82 135.01 138.78 133.77C138.73 131.91 137.68 130.32 136.17 129.47C136.21 129.24 136.23 128.99 136.22 128.75C136.16 126.61 134.37 124.92 132.23 124.98C130.72 125.03 129.44 125.94 128.83 127.22Z" fill="#E8E0AF"/>
<path opacity="0.6" d="M136.9 136.7C135.85 137.97 136.5 138.17 137.34 138.88C137.9 139.35 138.8 140.33 139.04 141.09C139.6 142.91 137.07 144.89 135.34 144.38C134.44 144.12 134.25 142.99 133.26 143.03C132.19 143.07 131.77 144.42 131.19 145.04C129.67 146.65 127.56 146.27 126.18 144.8C125.55 144.13 125.28 143.29 124.75 142.62C124.03 141.71 123.55 142.18 122.43 141.67C121.52 141.26 120.49 140.06 120.79 138.94C121.17 137.47 122.95 137.53 124.06 137.03C125 136.61 126.76 135.51 126.28 134.19C125.9 133.14 124.33 133.05 124.66 131.43C124.92 130.17 126.52 130.04 127.57 129.67C128.83 129.22 129.62 128.95 130.58 128.21C131.91 127.17 132.78 126.93 134.02 128.08C135.57 129.52 134.82 130.05 133.94 131.77C133.27 133.08 132.95 134.33 134.05 135.52C135.01 136.56 135.87 135.78 136.91 136.43L136.9 136.7Z" fill="white"/>
<path d="M131.79 144.99C133.77 147.48 137.21 147.63 139.56 145.15C142.39 141.88 140.2 136.6 135.64 137.11" stroke="#DEB88E" stroke-width="2.62" stroke-miterlimit="10" stroke-linecap="round" stroke-linejoin="round"/>
<path d="M130.96 147.18C126.52 147.69 122.35 148.96 120.04 143.68C118.26 139.53 120.49 132.84 125.87 133.96" stroke="#DEB88E" stroke-width="2.62" stroke-miterlimit="10" stroke-linecap="round" stroke-linejoin="round"/>
<path d="M121.96 131.02C123.11 126.91 129.3 124.95 130.96 129.74" stroke="#DEB88E" stroke-width="2.62" stroke-miterlimit="10" stroke-linecap="round" stroke-linejoin="round"/>
<path d="M130.22 125.81C130.97 125.41 133.13 125.09 134.03 125.45C135.83 126.16 136.71 129.96 134.95 131.03" stroke="#DEB88E" stroke-width="2.62" stroke-miterlimit="10" stroke-linecap="round" stroke-linejoin="round"/>
<path d="M136.44 129.84C138.74 130.15 139.8 135.98 137.53 136.56" stroke="#DEB88E" stroke-width="2.62" stroke-miterlimit="10" stroke-linecap="round" stroke-linejoin="round"/>
<path d="M128.9 135.46C129.07 136.98 130.33 140.89 127.66 140.97" stroke="#DEB88E" stroke-width="2.62" stroke-miterlimit="10" stroke-linecap="round" stroke-linejoin="round"/>
<path d="M129.28 139.66C129.86 137.73 132.66 137.78 133.85 139.02" stroke="#DEB88E" stroke-width="2.62" stroke-miterlimit="10" stroke-linecap="round" stroke-linejoin="round"/>
<path d="M160.77 163.52C156.05 166.25 151.19 170.25 148.3 176.54C143.1 172.84 137.5 167.83 130.9 159.3C123.86 150.19 129.17 136.86 130.14 136.15C132.72 134.25 134.62 139.9 139.96 144.95C146.98 151.56 158.15 157.69 160.77 163.52Z" fill="#B6B1AE"/>
<path d="M237.56 262.47C217.29 260.94 194.04 248.65 178.51 221.99C164.57 198.08 154.69 187.55 148.14 176.43C148.34 176 148.55 175.57 148.76 175.16C151.7 169.6 156.22 165.96 160.61 163.41C164.58 166.62 168.45 169.73 172.28 172.75C183.83 181.88 194.93 190.16 206.86 197.69C208.63 198.82 210.43 199.93 212.25 201.02C221.25 194.6 232.87 188.22 252.38 187.59C255.74 187.48 258.4 187.46 260 187.47C260.93 192.66 261.73 197.96 262.43 203.41C266.77 236.97 257.83 264 237.56 262.47Z" fill="#CAA77A"/>
<path d="M160.77 163.52C184.89 183.01 205.45 198.96 232.89 212.17" stroke="#2D1F04" stroke-width="2.62" stroke-miterlimit="10" stroke-linecap="round" stroke-linejoin="round"/>
<path d="M160.77 163.52C156.05 166.25 151.19 170.25 148.3 176.54C143.1 172.84 137.5 167.83 130.9 159.3C123.86 150.19 129.17 136.86 130.14 136.15C132.72 134.25 134.62 139.9 139.96 144.95C146.98 151.56 158.15 157.69 160.77 163.52Z" stroke="#2D1F04" stroke-width="2.62" stroke-miterlimit="10" stroke-linecap="round" stroke-linejoin="round"/>
<path d="M130.74 135.84C131.74 146.07 133.96 152.48 154.68 167.91" stroke="#2D1F04" stroke-width="2.62" stroke-miterlimit="10" stroke-linecap="round" stroke-linejoin="round"/>
<path d="M148.31 176.54C154.69 186.72 165.63 198.75 178.02 221.28C191.37 245.56 217.46 261.04 237.73 262.57C258 264.1 266.94 237.07 262.6 203.51C261.89 198.05 261.09 192.75 260.17 187.56" stroke="#2D1F04" stroke-width="2.62" stroke-miterlimit="10" stroke-linecap="round" stroke-linejoin="round"/>
<path opacity="0.23" d="M238.43 262.64C237.74 266.89 236.72 272.97 235.7 277.22C217.58 274.07 201.32 274.07 181.29 280.29C192.38 274.76 202.34 272.33 210.38 271.44C214.73 270.95 217.48 269.95 219.08 268.62C198.14 267.71 181.34 271.28 170.74 277.25C178.39 270.19 200.68 263.06 220.37 263.47C218.23 261.79 210.72 262.06 201.58 256.36C190.72 249.61 180.86 240.55 173.84 228.06C173.61 219.41 176.51 219.02 179.49 223.63C182.47 228.25 192.44 242.96 206.71 251.39C220.98 259.82 230.48 261.89 238.43 262.64Z" fill="#3F2719"/>
<path opacity="0.23" d="M175.34 271.18C181.53 265.69 194.43 261.48 201.96 261.86C192.26 257.65 183.7 263.01 175.34 271.18Z" fill="#3F2719"/>
<path opacity="0.23" d="M260.06 187.51C258.46 187.5 255.8 187.52 252.44 187.63C250.35 187.7 248.36 187.83 246.45 188.03V187.98C248.24 187.75 248.17 186.48 247.6 183.16C247.02 179.84 245.36 178.37 243.19 178.42C241.02 168.13 235.41 151.82 229.91 143.32C230.14 143.05 230.34 142.72 230.52 142.35C237.32 133.67 239.4 126.23 239.94 124.55C248.59 142.64 254.23 159.61 258.11 177.58C259.77 177.77 261 177.66 262.4 181.69C264.13 186.67 263.46 187.45 260.06 187.51Z" fill="#3F2719"/>
<path opacity="0.23" d="M237.56 262.47C217.29 260.94 194.04 248.65 178.51 221.99C164.57 198.08 154.68 187.55 148.14 176.43V176.42C148.34 175.99 148.55 175.57 148.76 175.16C149.28 174.17 149.86 173.24 150.47 172.37C150.52 172.42 150.57 172.47 150.62 172.52C155.1 177.03 158.95 180.8 164.32 187.48C174.5 200.12 183.44 219.15 198.76 232.83C214.08 246.5 234 248.65 240.76 246.09C246.55 243.9 254.75 234.81 255.82 220.92C256.9 207.04 254.09 196.58 252.43 187.63C252.43 187.6 256.07 187.53 256.07 187.5C257.7 187.47 259.04 187.46 259.99 187.47C260.92 192.66 261.72 197.96 262.42 203.41C266.77 236.97 257.83 264 237.56 262.47Z" fill="#3F2719"/>
<path opacity="0.23" d="M150.62 172.52C149.76 173.74 148.98 175.08 148.31 176.54C148.25 176.5 148.2 176.46 148.14 176.42C142.99 172.74 137.44 167.75 130.91 159.31C123.87 150.2 129.18 136.86 130.15 136.15C131.35 135.27 132.4 136.01 133.72 137.57C132.59 142.96 131.93 152.51 140.45 161.85C144.09 165.84 147.25 169.14 150.47 172.37C150.52 172.42 150.57 172.47 150.62 172.52Z" fill="#3F2719"/>
<path d="M94.34 217.66C94.55 218.52 94.96 219.34 95.59 220.05C97.63 222.34 101.15 222.54 103.44 220.5C104.2 219.82 104.72 218.99 105.02 218.09C107.57 218.68 110.35 218.07 112.45 216.2C115.89 213.13 116.19 207.86 113.12 204.43C111.55 202.67 109.4 201.74 107.21 201.65C107.18 200.38 106.71 199.12 105.8 198.1C103.76 195.81 100.24 195.61 97.95 197.65C96.3 199.12 95.74 201.35 96.31 203.33C95.06 203.38 93.82 203.84 92.82 204.74C91.3 206.09 90.71 208.09 91.07 209.94C90.85 210.07 90.63 210.23 90.43 210.41C88.68 211.97 88.53 214.65 90.09 216.39C91.19 217.62 92.85 218.05 94.34 217.66Z" fill="#E8E0AF"/>
<path opacity="0.6" d="M96.59 204.25C98.4 204.24 98.1 203.55 98.1 202.35C98.1 201.55 98.28 200.11 98.76 199.38C99.89 197.63 103.31 198.36 104.11 200.16C104.52 201.1 103.72 202.04 104.44 202.85C105.22 203.72 106.65 203.11 107.58 203.17C109.99 203.31 111.16 205.34 110.9 207.53C110.78 208.53 110.27 209.34 110.08 210.26C109.83 211.5 110.55 211.57 110.92 212.87C111.22 213.92 110.94 215.62 109.8 216.16C108.3 216.87 107.1 215.34 105.91 214.77C104.9 214.28 102.74 213.58 101.98 214.91C101.37 215.96 102.39 217.34 100.81 218.2C99.58 218.87 98.34 217.63 97.29 217.01C96.03 216.27 95.25 215.8 93.95 215.52C92.15 215.14 91.33 214.58 91.43 212.74C91.55 210.43 92.51 210.69 94.57 210.22C96.14 209.86 97.4 209.25 97.63 207.49C97.83 205.96 96.57 205.79 96.38 204.46L96.59 204.25Z" fill="white"/>
<path d="M107.12 202.69C107.81 199.28 105.52 196.3 101.79 196.08C97.07 196.01 94.19 201.55 97.83 205.01" stroke="#DEB88E" stroke-width="2.62" stroke-miterlimit="10" stroke-linecap="round" stroke-linejoin="round"/>
<path d="M109.53 201.85C113.08 205.2 117.06 207.79 114.28 213.44C112.06 217.84 104.91 220.68 102.06 215.4" stroke="#DEB88E" stroke-width="2.62" stroke-miterlimit="10" stroke-linecap="round" stroke-linejoin="round"/>
<path d="M102.34 220.73C98.1 222.65 92.11 218.87 94.94 214.11" stroke="#DEB88E" stroke-width="2.62" stroke-miterlimit="10" stroke-linecap="round" stroke-linejoin="round"/>
<path d="M92.19 217.49C91.32 217.14 89.54 215.57 89.21 214.56C88.54 212.55 91.1 209.16 93.22 209.87" stroke="#DEB88E" stroke-width="2.62" stroke-miterlimit="10" stroke-linecap="round" stroke-linejoin="round"/>
<path d="M91.18 209.46C89.83 207.32 93.95 202.33 96.03 203.83" stroke="#DEB88E" stroke-width="2.62" stroke-miterlimit="10" stroke-linecap="round" stroke-linejoin="round"/>
<path d="M101.18 211.8C102.33 210.59 104.72 206.78 106.66 208.96" stroke="#DEB88E" stroke-width="2.62" stroke-miterlimit="10" stroke-linecap="round" stroke-linejoin="round"/>
<path d="M104.42 208.54C102.4 209.41 100.47 207.03 100.67 205.17" stroke="#DEB88E" stroke-width="2.62" stroke-miterlimit="10" stroke-linecap="round" stroke-linejoin="round"/>
<path d="M104.81 203.03C104.57 203.72 104.5 204.48 104.62 205.26C105.03 207.77 107.4 209.48 109.91 209.08C110.74 208.95 111.48 208.59 112.09 208.1C113.61 209.65 115.83 210.46 118.13 210.09C121.9 209.48 124.46 205.93 123.85 202.16C123.54 200.23 122.45 198.62 120.96 197.58C121.5 196.68 121.74 195.59 121.56 194.47C121.15 191.96 118.78 190.25 116.27 190.65C114.46 190.94 113.08 192.25 112.59 193.9C111.7 193.38 110.62 193.15 109.52 193.32C107.86 193.59 106.55 194.72 105.97 196.18C105.75 196.17 105.54 196.19 105.31 196.22C103.39 196.53 102.09 198.34 102.4 200.25C102.63 201.59 103.59 202.64 104.81 203.03Z" fill="#E8E0AF"/>
<path opacity="0.6" d="M112.37 194.66C113.64 195.46 113.74 194.85 114.28 194C114.63 193.44 115.41 192.51 116.07 192.21C117.64 191.49 119.71 193.53 119.46 195.14C119.33 195.98 118.35 196.28 118.49 197.16C118.65 198.11 119.92 198.33 120.54 198.78C122.16 199.96 122.07 201.89 120.92 203.31C120.39 203.96 119.67 204.3 119.13 204.85C118.4 205.61 118.88 205.98 118.55 207.05C118.29 207.92 117.34 208.98 116.3 208.85C114.94 208.68 114.78 207.08 114.2 206.15C113.71 205.36 112.51 203.91 111.39 204.5C110.49 204.97 110.59 206.39 109.11 206.28C107.95 206.2 107.64 204.78 107.18 203.88C106.63 202.8 106.29 202.12 105.51 201.35C104.42 200.28 104.1 199.52 104.99 198.28C106.1 196.72 106.66 197.33 108.31 197.91C109.57 198.36 110.73 198.49 111.67 197.37C112.49 196.39 111.69 195.71 112.15 194.69L112.37 194.66Z" fill="white"/>
<path d="M120.43 198.26C122.43 196.18 122.16 193.07 119.65 191.26C116.38 189.1 111.9 191.7 112.9 195.74" stroke="#DEB88E" stroke-width="2.62" stroke-miterlimit="10" stroke-linecap="round" stroke-linejoin="round"/>
<path d="M122.49 198.74C123.48 202.67 125.11 206.26 120.64 208.97C117.12 211.06 110.86 209.85 111.22 204.89" stroke="#DEB88E" stroke-width="2.62" stroke-miterlimit="10" stroke-linecap="round" stroke-linejoin="round"/>
<path d="M109.04 208.74C105.21 208.19 102.72 202.87 106.82 200.81" stroke="#DEB88E" stroke-width="2.62" stroke-miterlimit="10" stroke-linecap="round" stroke-linejoin="round"/>
<path d="M103.39 201.95C102.94 201.32 102.4 199.43 102.61 198.57C103.04 196.87 106.34 195.63 107.51 197.08" stroke="#DEB88E" stroke-width="2.62" stroke-miterlimit="10" stroke-linecap="round" stroke-linejoin="round"/>
<path d="M106.26 195.88C106.27 193.78 111.38 192.13 112.16 194.11" stroke="#DEB88E" stroke-width="2.62" stroke-miterlimit="10" stroke-linecap="round" stroke-linejoin="round"/>
<path d="M112.21 201.98C113.56 201.64 116.92 200.05 117.31 202.44" stroke="#DEB88E" stroke-width="2.62" stroke-miterlimit="10" stroke-linecap="round" stroke-linejoin="round"/>
<path d="M115.93 201.15C114.13 200.86 113.84 198.33 114.81 197.13" stroke="#DEB88E" stroke-width="2.62" stroke-miterlimit="10" stroke-linecap="round" stroke-linejoin="round"/>
<path d="M118.25 182.77C117.63 182.38 116.91 182.13 116.12 182.07C113.58 181.88 111.37 183.79 111.19 186.33C111.13 187.17 111.3 187.97 111.64 188.68C109.78 189.8 108.48 191.77 108.31 194.1C108.03 197.91 110.9 201.22 114.71 201.5C116.66 201.64 118.48 200.96 119.83 199.74C120.58 200.48 121.59 200.96 122.72 201.04C125.26 201.22 127.47 199.32 127.65 196.78C127.78 194.95 126.83 193.3 125.34 192.45C126.06 191.7 126.53 190.71 126.61 189.6C126.73 187.92 125.94 186.39 124.65 185.49C124.7 185.28 124.74 185.07 124.76 184.84C124.9 182.9 123.44 181.22 121.51 181.08C120.15 180.98 118.91 181.67 118.25 182.77Z" fill="#E8E0AF"/>
<path opacity="0.6" d="M124.64 192.05C123.57 193.1 124.14 193.34 124.84 194.06C125.3 194.53 126.03 195.5 126.17 196.21C126.51 197.9 124.05 199.45 122.53 198.84C121.74 198.52 121.68 197.49 120.78 197.43C119.82 197.37 119.31 198.55 118.73 199.05C117.21 200.36 115.35 199.83 114.23 198.37C113.72 197.71 113.56 196.92 113.14 196.27C112.57 195.39 112.1 195.76 111.14 195.2C110.36 194.75 109.54 193.57 109.91 192.59C110.39 191.3 111.99 191.52 113.03 191.17C113.91 190.88 115.6 190.05 115.29 188.82C115.04 187.84 113.64 187.61 114.09 186.19C114.44 185.08 115.89 185.11 116.87 184.87C118.04 184.58 118.79 184.41 119.72 183.83C121.01 183.02 121.82 182.88 122.83 184.03C124.09 185.47 123.37 185.88 122.42 187.35C121.69 188.47 121.29 189.57 122.17 190.74C122.94 191.77 123.78 191.14 124.66 191.82L124.64 192.05Z" fill="white"/>
<path d="M119.28 199.06C120.84 201.49 123.92 201.94 126.27 199.92C129.12 197.24 127.64 192.27 123.47 192.32" stroke="#DEB88E" stroke-width="2.62" stroke-miterlimit="10" stroke-linecap="round" stroke-linejoin="round"/>
<path d="M118.33 200.96C114.28 201.01 110.41 201.77 108.81 196.8C107.59 192.9 110.21 187.08 114.96 188.58" stroke="#DEB88E" stroke-width="2.62" stroke-miterlimit="10" stroke-linecap="round" stroke-linejoin="round"/>
<path d="M111.71 185.56C113.13 181.96 118.88 180.76 119.94 185.23" stroke="#DEB88E" stroke-width="2.62" stroke-miterlimit="10" stroke-linecap="round" stroke-linejoin="round"/>
<path d="M119.62 181.63C120.34 181.34 122.31 181.25 123.09 181.65C124.65 182.46 125.09 185.96 123.41 186.76" stroke="#DEB88E" stroke-width="2.62" stroke-miterlimit="10" stroke-linecap="round" stroke-linejoin="round"/>
<path d="M124.86 185.83C126.9 186.32 127.33 191.67 125.22 191.98" stroke="#DEB88E" stroke-width="2.62" stroke-miterlimit="10" stroke-linecap="round" stroke-linejoin="round"/>
<path d="M117.55 190.21C117.56 191.6 118.34 195.24 115.92 195.06" stroke="#DEB88E" stroke-width="2.62" stroke-miterlimit="10" stroke-linecap="round" stroke-linejoin="round"/>
<path d="M117.51 194.02C118.21 192.34 120.73 192.64 121.68 193.86" stroke="#DEB88E" stroke-width="2.62" stroke-miterlimit="10" stroke-linecap="round" stroke-linejoin="round"/>
<path d="M148.72 180.46C148.07 180.05 147.32 179.79 146.5 179.73C143.85 179.54 141.54 181.53 141.35 184.18C141.29 185.06 141.47 185.89 141.82 186.63C139.88 187.8 138.52 189.86 138.34 192.29C138.05 196.27 141.04 199.72 145.02 200.01C147.06 200.16 148.96 199.44 150.37 198.18C151.15 198.95 152.2 199.45 153.38 199.54C156.03 199.73 158.34 197.74 158.53 195.09C158.67 193.18 157.68 191.46 156.12 190.57C156.87 189.79 157.36 188.75 157.44 187.59C157.57 185.84 156.74 184.24 155.39 183.3C155.45 183.08 155.49 182.86 155.5 182.62C155.65 180.6 154.13 178.84 152.11 178.69C150.7 178.59 149.41 179.31 148.72 180.46Z" fill="#E8E0AF"/>
<path opacity="0.6" d="M155.39 190.15C154.28 191.25 154.87 191.5 155.6 192.24C156.08 192.73 156.84 193.74 156.98 194.48C157.33 196.25 154.77 197.86 153.18 197.22C152.36 196.89 152.29 195.81 151.36 195.75C150.35 195.68 149.83 196.92 149.22 197.44C147.64 198.81 145.69 198.25 144.53 196.73C144 196.03 143.83 195.22 143.4 194.54C142.81 193.62 142.31 194.01 141.31 193.43C140.49 192.96 139.64 191.73 140.02 190.71C140.52 189.37 142.19 189.59 143.27 189.23C144.19 188.92 145.95 188.06 145.63 186.77C145.37 185.75 143.91 185.51 144.37 184.02C144.73 182.86 146.25 182.89 147.27 182.64C148.5 182.34 149.27 182.16 150.24 181.55C151.59 180.7 152.44 180.56 153.49 181.76C154.81 183.27 154.05 183.69 153.06 185.22C152.3 186.39 151.89 187.53 152.8 188.76C153.6 189.83 154.48 189.18 155.4 189.89L155.39 190.15Z" fill="white"/>
<path d="M149.79 197.46C151.42 199.99 154.64 200.47 157.09 198.35C160.07 195.55 158.51 190.37 154.17 190.42" stroke="#DEB88E" stroke-width="2.62" stroke-miterlimit="10" stroke-linecap="round" stroke-linejoin="round"/>
<path d="M148.8 199.44C144.57 199.5 140.54 200.29 138.86 195.1C137.59 191.03 140.32 184.95 145.28 186.52" stroke="#DEB88E" stroke-width="2.62" stroke-miterlimit="10" stroke-linecap="round" stroke-linejoin="round"/>
<path d="M141.89 183.38C143.37 179.63 149.37 178.37 150.48 183.04" stroke="#DEB88E" stroke-width="2.62" stroke-miterlimit="10" stroke-linecap="round" stroke-linejoin="round"/>
<path d="M150.15 179.27C150.9 178.96 152.95 178.87 153.77 179.29C155.4 180.13 155.85 183.78 154.11 184.62" stroke="#DEB88E" stroke-width="2.62" stroke-miterlimit="10" stroke-linecap="round" stroke-linejoin="round"/>
<path d="M155.62 183.65C157.75 184.17 158.19 189.75 156 190.07" stroke="#DEB88E" stroke-width="2.62" stroke-miterlimit="10" stroke-linecap="round" stroke-linejoin="round"/>
<path d="M147.99 188.22C148 189.67 148.81 193.47 146.29 193.28" stroke="#DEB88E" stroke-width="2.62" stroke-miterlimit="10" stroke-linecap="round" stroke-linejoin="round"/>
<path d="M147.94 192.2C148.67 190.44 151.3 190.76 152.3 192.03" stroke="#DEB88E" stroke-width="2.62" stroke-miterlimit="10" stroke-linecap="round" stroke-linejoin="round"/>
<path d="M171.44 200.33C171.87 199.7 172.15 198.95 172.23 198.14C172.5 195.5 170.57 193.13 167.93 192.86C167.06 192.77 166.21 192.93 165.47 193.26C164.36 191.29 162.34 189.87 159.92 189.62C155.95 189.22 152.41 192.1 152 196.07C151.79 198.1 152.46 200.02 153.68 201.47C152.89 202.23 152.36 203.26 152.24 204.44C151.97 207.08 153.9 209.45 156.54 209.71C158.44 209.9 160.19 208.96 161.13 207.44C161.89 208.21 162.91 208.73 164.07 208.85C165.82 209.03 167.44 208.24 168.42 206.93C168.64 206.99 168.86 207.04 169.09 207.06C171.11 207.27 172.91 205.8 173.11 203.78C173.26 202.37 172.57 201.05 171.44 200.33Z" fill="#E8E0AF"/>
<path opacity="0.6" d="M161.56 206.72C160.49 205.58 160.23 206.16 159.46 206.87C158.95 207.34 157.92 208.06 157.18 208.19C155.4 208.49 153.86 205.88 154.55 204.32C154.91 203.51 155.98 203.47 156.07 202.54C156.17 201.54 154.95 200.97 154.44 200.35C153.12 198.73 153.73 196.8 155.28 195.68C155.99 195.17 156.81 195.03 157.5 194.61C158.44 194.05 158.06 193.54 158.67 192.55C159.17 191.75 160.41 190.93 161.43 191.34C162.76 191.88 162.49 193.54 162.82 194.64C163.1 195.57 163.92 197.36 165.21 197.07C166.24 196.84 166.52 195.38 167.99 195.89C169.14 196.29 169.07 197.8 169.29 198.83C169.55 200.06 169.71 200.85 170.29 201.83C171.1 203.2 171.22 204.05 169.99 205.07C168.44 206.34 168.04 205.58 166.54 204.54C165.39 203.75 164.26 203.3 163.01 204.18C161.92 204.95 162.54 205.85 161.81 206.75L161.56 206.72Z" fill="white"/>
<path d="M154.41 200.92C151.83 202.47 151.26 205.68 153.31 208.19C156.02 211.25 161.24 209.84 161.33 205.5" stroke="#DEB88E" stroke-width="2.62" stroke-miterlimit="10" stroke-linecap="round" stroke-linejoin="round"/>
<path d="M152.46 199.87C152.53 195.64 151.85 191.58 157.09 190.06C161.2 188.91 167.19 191.81 165.48 196.72" stroke="#DEB88E" stroke-width="2.62" stroke-miterlimit="10" stroke-linecap="round" stroke-linejoin="round"/>
<path d="M168.72 193.42C172.43 195.01 173.51 201.04 168.81 202.02" stroke="#DEB88E" stroke-width="2.62" stroke-miterlimit="10" stroke-linecap="round" stroke-linejoin="round"/>
<path d="M172.59 201.8C172.88 202.56 172.91 204.61 172.46 205.42C171.57 207.02 167.91 207.38 167.12 205.6" stroke="#DEB88E" stroke-width="2.62" stroke-miterlimit="10" stroke-linecap="round" stroke-linejoin="round"/>
<path d="M168.05 207.14C167.47 209.26 161.88 209.54 161.62 207.33" stroke="#DEB88E" stroke-width="2.62" stroke-miterlimit="10" stroke-linecap="round" stroke-linejoin="round"/>
<path d="M163.7 199.38C162.25 199.35 158.43 200.05 158.69 197.54" stroke="#DEB88E" stroke-width="2.62" stroke-miterlimit="10" stroke-linecap="round" stroke-linejoin="round"/>
<path d="M159.73 199.22C161.46 200 161.08 202.62 159.77 203.58" stroke="#DEB88E" stroke-width="2.62" stroke-miterlimit="10" stroke-linecap="round" stroke-linejoin="round"/>
<path d="M160.97 217.26C160.33 216.85 159.58 216.59 158.76 216.53C156.12 216.34 153.83 218.32 153.64 220.96C153.58 221.83 153.75 222.66 154.11 223.4C152.18 224.57 150.83 226.61 150.65 229.03C150.36 232.99 153.33 236.42 157.29 236.71C159.32 236.86 161.21 236.14 162.61 234.89C163.39 235.65 164.43 236.16 165.61 236.24C168.25 236.43 170.54 234.45 170.73 231.81C170.87 229.91 169.88 228.2 168.34 227.31C169.08 226.53 169.57 225.5 169.66 224.35C169.79 222.61 168.96 221.02 167.63 220.08C167.69 219.86 167.73 219.64 167.74 219.41C167.89 217.4 166.38 215.65 164.37 215.5C162.94 215.4 161.65 216.12 160.97 217.26Z" fill="#E8E0AF"/>
<path opacity="0.6" d="M167.61 226.9C166.5 227.99 167.09 228.24 167.82 228.98C168.3 229.47 169.05 230.48 169.2 231.21C169.55 232.97 167 234.57 165.42 233.93C164.6 233.6 164.53 232.53 163.61 232.47C162.61 232.4 162.09 233.63 161.48 234.15C159.9 235.51 157.97 234.96 156.81 233.45C156.28 232.76 156.11 231.95 155.68 231.28C155.09 230.36 154.6 230.75 153.6 230.17C152.79 229.7 151.94 228.48 152.32 227.46C152.82 226.12 154.48 226.35 155.56 225.99C156.48 225.68 158.23 224.82 157.91 223.55C157.65 222.53 156.2 222.3 156.66 220.82C157.02 219.67 158.53 219.7 159.55 219.45C160.77 219.15 161.54 218.98 162.51 218.37C163.85 217.53 164.69 217.38 165.74 218.58C167.05 220.08 166.3 220.5 165.31 222.02C164.55 223.19 164.14 224.32 165.05 225.54C165.85 226.6 166.72 225.95 167.64 226.66L167.61 226.9Z" fill="white"/>
<path d="M162.04 234.17C163.66 236.69 166.86 237.16 169.3 235.06C172.26 232.28 170.72 227.13 166.39 227.17" stroke="#DEB88E" stroke-width="2.62" stroke-miterlimit="10" stroke-linecap="round" stroke-linejoin="round"/>
<path d="M161.05 236.14C156.85 236.2 152.83 236.98 151.17 231.82C149.9 227.77 152.62 221.73 157.55 223.29" stroke="#DEB88E" stroke-width="2.62" stroke-miterlimit="10" stroke-linecap="round" stroke-linejoin="round"/>
<path d="M154.18 220.16C155.65 216.43 161.62 215.18 162.72 219.82" stroke="#DEB88E" stroke-width="2.62" stroke-miterlimit="10" stroke-linecap="round" stroke-linejoin="round"/>
<path d="M162.39 216.08C163.13 215.77 165.18 215.68 165.99 216.1C167.61 216.94 168.06 220.57 166.32 221.4" stroke="#DEB88E" stroke-width="2.62" stroke-miterlimit="10" stroke-linecap="round" stroke-linejoin="round"/>
<path d="M167.84 220.44C169.96 220.95 170.4 226.51 168.21 226.83" stroke="#DEB88E" stroke-width="2.62" stroke-miterlimit="10" stroke-linecap="round" stroke-linejoin="round"/>
<path d="M160.24 224.98C160.25 226.42 161.06 230.2 158.55 230.02" stroke="#DEB88E" stroke-width="2.62" stroke-miterlimit="10" stroke-linecap="round" stroke-linejoin="round"/>
<path d="M160.2 228.94C160.93 227.19 163.54 227.5 164.53 228.78" stroke="#DEB88E" stroke-width="2.62" stroke-miterlimit="10" stroke-linecap="round" stroke-linejoin="round"/>
<path d="M156.89 219.1C156.64 219.82 156.56 220.61 156.69 221.41C157.11 224.02 159.57 225.79 162.18 225.37C163.04 225.23 163.81 224.86 164.44 224.35C166.02 225.96 168.32 226.8 170.71 226.41C174.62 225.78 177.28 222.09 176.65 218.17C176.32 216.16 175.19 214.49 173.65 213.42C174.21 212.48 174.46 211.36 174.27 210.19C173.85 207.58 171.39 205.81 168.78 206.23C166.9 206.53 165.47 207.89 164.96 209.6C164.03 209.05 162.92 208.82 161.77 209C160.04 209.28 158.69 210.45 158.09 211.97C157.87 211.96 157.64 211.98 157.41 212.01C155.42 212.33 154.07 214.21 154.39 216.2C154.63 217.61 155.62 218.69 156.89 219.1Z" fill="#E8E0AF"/>
<path opacity="0.6" d="M164.73 210.41C166.05 211.23 166.15 210.6 166.71 209.73C167.08 209.15 167.88 208.19 168.56 207.87C170.19 207.13 172.34 209.24 172.08 210.92C171.95 211.79 170.92 212.11 171.08 213.02C171.25 214.01 172.56 214.24 173.21 214.7C174.9 215.92 174.8 217.93 173.6 219.4C173.05 220.07 172.3 220.42 171.75 221C170.99 221.78 171.48 222.17 171.15 223.28C170.88 224.18 169.89 225.28 168.81 225.15C167.4 224.97 167.23 223.31 166.63 222.34C166.12 221.52 164.88 220.01 163.71 220.62C162.78 221.1 162.89 222.58 161.34 222.47C160.14 222.38 159.81 220.91 159.34 219.98C158.77 218.86 158.42 218.15 157.61 217.35C156.48 216.24 156.15 215.45 157.07 214.16C158.23 212.54 158.81 213.17 160.52 213.78C161.83 214.24 163.03 214.38 164 213.22C164.85 212.2 164.02 211.49 164.49 210.44L164.73 210.41Z" fill="white"/>
<path d="M173.1 214.15C175.18 211.99 174.9 208.77 172.29 206.89C168.9 204.65 164.24 207.34 165.28 211.54" stroke="#DEB88E" stroke-width="2.62" stroke-miterlimit="10" stroke-linecap="round" stroke-linejoin="round"/>
<path d="M175.24 214.65C176.26 218.73 177.96 222.45 173.32 225.27C169.67 227.44 163.16 226.19 163.54 221.03" stroke="#DEB88E" stroke-width="2.62" stroke-miterlimit="10" stroke-linecap="round" stroke-linejoin="round"/>
<path d="M161.28 225.03C157.31 224.46 154.72 218.94 158.98 216.8" stroke="#DEB88E" stroke-width="2.62" stroke-miterlimit="10" stroke-linecap="round" stroke-linejoin="round"/>
<path d="M155.41 217.98C154.94 217.33 154.38 215.36 154.6 214.47C155.04 212.7 158.47 211.42 159.68 212.92" stroke="#DEB88E" stroke-width="2.62" stroke-miterlimit="10" stroke-linecap="round" stroke-linejoin="round"/>
<path d="M158.39 211.68C158.4 209.5 163.7 207.79 164.52 209.84" stroke="#DEB88E" stroke-width="2.62" stroke-miterlimit="10" stroke-linecap="round" stroke-linejoin="round"/>
<path d="M164.57 218.02C165.97 217.67 169.46 216.02 169.86 218.5" stroke="#DEB88E" stroke-width="2.62" stroke-miterlimit="10" stroke-linecap="round" stroke-linejoin="round"/>
<path d="M168.43 217.15C166.56 216.85 166.26 214.23 167.27 212.97" stroke="#DEB88E" stroke-width="2.62" stroke-miterlimit="10" stroke-linecap="round" stroke-linejoin="round"/>
<path d="M143.68 207.41C143.43 208.13 143.35 208.92 143.48 209.72C143.9 212.33 146.36 214.1 148.97 213.68C149.83 213.54 150.6 213.17 151.23 212.66C152.81 214.27 155.11 215.11 157.5 214.72C161.41 214.09 164.07 210.4 163.44 206.48C163.11 204.47 161.98 202.8 160.44 201.73C161 200.79 161.25 199.67 161.06 198.5C160.64 195.89 158.18 194.12 155.57 194.54C153.69 194.84 152.26 196.2 151.75 197.91C150.82 197.36 149.71 197.13 148.56 197.31C146.83 197.59 145.48 198.76 144.88 200.28C144.66 200.27 144.43 200.29 144.2 200.32C142.21 200.64 140.86 202.52 141.18 204.51C141.41 205.93 142.41 207.01 143.68 207.41Z" fill="#E8E0AF"/>
<path opacity="0.6" d="M151.52 198.73C152.84 199.55 152.94 198.92 153.5 198.05C153.87 197.47 154.67 196.51 155.35 196.19C156.98 195.45 159.13 197.56 158.87 199.24C158.74 200.11 157.71 200.43 157.87 201.34C158.04 202.33 159.35 202.56 160 203.02C161.69 204.24 161.59 206.25 160.39 207.72C159.84 208.39 159.09 208.74 158.54 209.32C157.78 210.1 158.27 210.49 157.94 211.6C157.67 212.5 156.68 213.6 155.6 213.47C154.19 213.29 154.02 211.63 153.42 210.66C152.91 209.84 151.67 208.33 150.5 208.94C149.57 209.42 149.68 210.9 148.13 210.79C146.93 210.7 146.6 209.23 146.13 208.3C145.56 207.18 145.21 206.47 144.4 205.67C143.27 204.56 142.94 203.77 143.86 202.48C145.02 200.86 145.6 201.49 147.31 202.1C148.62 202.56 149.82 202.7 150.79 201.54C151.64 200.52 150.81 199.81 151.28 198.76L151.52 198.73Z" fill="white"/>
<path d="M159.89 202.47C161.97 200.31 161.69 197.09 159.08 195.21C155.69 192.97 151.03 195.66 152.07 199.86" stroke="#DEB88E" stroke-width="2.62" stroke-miterlimit="10" stroke-linecap="round" stroke-linejoin="round"/>
<path d="M162.03 202.97C163.05 207.05 164.75 210.77 160.11 213.59C156.46 215.76 149.95 214.51 150.33 209.35" stroke="#DEB88E" stroke-width="2.62" stroke-miterlimit="10" stroke-linecap="round" stroke-linejoin="round"/>
<path d="M148.07 213.35C144.1 212.78 141.51 207.26 145.77 205.12" stroke="#DEB88E" stroke-width="2.62" stroke-miterlimit="10" stroke-linecap="round" stroke-linejoin="round"/>
<path d="M142.2 206.3C141.73 205.65 141.17 203.68 141.39 202.79C141.83 201.02 145.26 199.74 146.47 201.24" stroke="#DEB88E" stroke-width="2.62" stroke-miterlimit="10" stroke-linecap="round" stroke-linejoin="round"/>
<path d="M145.18 200C145.19 197.82 150.49 196.11 151.31 198.16" stroke="#DEB88E" stroke-width="2.62" stroke-miterlimit="10" stroke-linecap="round" stroke-linejoin="round"/>
<path d="M151.36 206.33C152.76 205.98 156.25 204.33 156.65 206.81" stroke="#DEB88E" stroke-width="2.62" stroke-miterlimit="10" stroke-linecap="round" stroke-linejoin="round"/>
<path d="M155.22 205.46C153.35 205.16 153.05 202.54 154.06 201.28" stroke="#DEB88E" stroke-width="2.62" stroke-miterlimit="10" stroke-linecap="round" stroke-linejoin="round"/>
<path d="M156.51 204.77C155.78 204.31 154.93 204.01 154 203.95C151 203.73 148.39 205.99 148.18 208.98C148.11 209.97 148.31 210.92 148.72 211.75C146.53 213.07 144.99 215.4 144.79 218.15C144.46 222.65 147.84 226.56 152.34 226.89C154.65 227.06 156.79 226.25 158.39 224.81C159.28 225.68 160.46 226.25 161.8 226.35C164.8 226.57 167.4 224.31 167.62 221.32C167.78 219.16 166.65 217.22 164.9 216.21C165.75 215.33 166.3 214.16 166.4 212.84C166.54 210.86 165.6 209.05 164.09 207.99C164.15 207.74 164.2 207.49 164.22 207.23C164.39 204.94 162.67 202.96 160.38 202.79C158.75 202.65 157.29 203.47 156.51 204.77Z" fill="#E8E0AF"/>
<path opacity="0.6" d="M164.06 215.72C162.8 216.96 163.47 217.24 164.3 218.09C164.84 218.65 165.7 219.79 165.86 220.63C166.26 222.63 163.36 224.45 161.57 223.73C160.64 223.35 160.56 222.14 159.51 222.07C158.37 221.99 157.78 223.39 157.09 223.98C155.3 225.53 153.1 224.9 151.78 223.18C151.18 222.39 150.99 221.47 150.5 220.71C149.83 219.67 149.27 220.11 148.13 219.45C147.21 218.91 146.24 217.53 146.68 216.37C147.25 214.85 149.13 215.1 150.36 214.69C151.4 214.34 153.4 213.36 153.03 211.91C152.74 210.76 151.08 210.48 151.61 208.8C152.02 207.49 153.73 207.52 154.89 207.24C156.28 206.9 157.15 206.7 158.25 206.01C159.78 205.05 160.73 204.89 161.92 206.25C163.41 207.95 162.56 208.43 161.43 210.16C160.57 211.49 160.1 212.78 161.14 214.16C162.05 215.37 163.04 214.63 164.08 215.44L164.06 215.72Z" fill="white"/>
<path d="M157.73 224C159.57 226.86 163.21 227.4 165.98 225.01C169.35 221.85 167.59 215.99 162.68 216.04" stroke="#DEB88E" stroke-width="2.62" stroke-miterlimit="10" stroke-linecap="round" stroke-linejoin="round"/>
<path d="M156.61 226.23C151.83 226.29 147.26 227.19 145.37 221.32C143.93 216.71 147.02 209.84 152.63 211.61" stroke="#DEB88E" stroke-width="2.62" stroke-miterlimit="10" stroke-linecap="round" stroke-linejoin="round"/>
<path d="M148.79 208.06C150.46 203.82 157.25 202.4 158.5 207.68" stroke="#DEB88E" stroke-width="2.62" stroke-miterlimit="10" stroke-linecap="round" stroke-linejoin="round"/>
<path d="M158.13 203.42C158.97 203.07 161.3 202.97 162.22 203.45C164.06 204.4 164.58 208.53 162.6 209.48" stroke="#DEB88E" stroke-width="2.62" stroke-miterlimit="10" stroke-linecap="round" stroke-linejoin="round"/>
<path d="M164.32 208.38C166.73 208.96 167.23 215.28 164.75 215.64" stroke="#DEB88E" stroke-width="2.62" stroke-miterlimit="10" stroke-linecap="round" stroke-linejoin="round"/>
<path d="M155.69 213.55C155.71 215.19 156.62 219.48 153.77 219.28" stroke="#DEB88E" stroke-width="2.62" stroke-miterlimit="10" stroke-linecap="round" stroke-linejoin="round"/>
<path d="M155.64 218.04C156.47 216.05 159.44 216.41 160.57 217.85" stroke="#DEB88E" stroke-width="2.62" stroke-miterlimit="10" stroke-linecap="round" stroke-linejoin="round"/>
<path d="M132.11 218.22C131.83 219.04 131.74 219.94 131.89 220.85C132.37 223.82 135.17 225.83 138.13 225.35C139.11 225.19 139.98 224.78 140.7 224.19C142.49 226.02 145.11 226.98 147.83 226.54C152.28 225.82 155.31 221.63 154.58 217.17C154.21 214.89 152.92 212.99 151.16 211.77C151.8 210.71 152.08 209.42 151.87 208.1C151.39 205.13 148.59 203.12 145.63 203.6C143.5 203.95 141.86 205.49 141.29 207.43C140.24 206.81 138.97 206.54 137.67 206.75C135.71 207.07 134.17 208.4 133.48 210.12C133.23 210.11 132.97 210.13 132.71 210.17C130.45 210.54 128.91 212.67 129.28 214.93C129.54 216.52 130.67 217.75 132.11 218.22Z" fill="#E8E0AF"/>
<path opacity="0.6" d="M141.03 208.34C142.53 209.28 142.65 208.56 143.28 207.56C143.7 206.9 144.61 205.8 145.39 205.45C147.24 204.6 149.69 207 149.4 208.91C149.25 209.9 148.08 210.26 148.26 211.3C148.45 212.43 149.95 212.68 150.68 213.21C152.6 214.6 152.49 216.88 151.13 218.56C150.51 219.33 149.65 219.72 149.02 220.38C148.16 221.27 148.72 221.71 148.34 222.97C148.03 223.99 146.91 225.25 145.68 225.09C144.07 224.89 143.88 223 143.2 221.9C142.62 220.96 141.21 219.25 139.88 219.95C138.82 220.5 138.94 222.18 137.19 222.05C135.82 221.95 135.45 220.28 134.91 219.22C134.26 217.95 133.86 217.14 132.94 216.23C131.65 214.97 131.27 214.07 132.32 212.6C133.63 210.76 134.3 211.48 136.24 212.17C137.73 212.7 139.09 212.86 140.2 211.53C141.17 210.37 140.22 209.57 140.76 208.37L141.03 208.34Z" fill="white"/>
<path d="M150.54 212.59C152.9 210.14 152.58 206.47 149.62 204.33C145.76 201.78 140.47 204.85 141.65 209.62" stroke="#DEB88E" stroke-width="2.62" stroke-miterlimit="10" stroke-linecap="round" stroke-linejoin="round"/>
<path d="M152.98 213.16C154.14 217.8 156.07 222.03 150.8 225.23C146.65 227.7 139.25 226.27 139.68 220.41" stroke="#DEB88E" stroke-width="2.62" stroke-miterlimit="10" stroke-linecap="round" stroke-linejoin="round"/>
<path d="M137.1 224.97C132.58 224.32 129.64 218.04 134.48 215.61" stroke="#DEB88E" stroke-width="2.62" stroke-miterlimit="10" stroke-linecap="round" stroke-linejoin="round"/>
<path d="M130.43 216.95C129.9 216.21 129.26 213.97 129.51 212.96C130.01 210.95 133.91 209.49 135.29 211.2" stroke="#DEB88E" stroke-width="2.62" stroke-miterlimit="10" stroke-linecap="round" stroke-linejoin="round"/>
<path d="M133.82 209.78C133.83 207.3 139.86 205.36 140.79 207.69" stroke="#DEB88E" stroke-width="2.62" stroke-miterlimit="10" stroke-linecap="round" stroke-linejoin="round"/>
<path d="M140.85 216.98C142.44 216.58 146.41 214.7 146.87 217.52" stroke="#DEB88E" stroke-width="2.62" stroke-miterlimit="10" stroke-linecap="round" stroke-linejoin="round"/>
<path d="M145.24 216C143.12 215.65 142.77 212.68 143.92 211.25" stroke="#DEB88E" stroke-width="2.62" stroke-miterlimit="10" stroke-linecap="round" stroke-linejoin="round"/>
<path d="M133.7 212.27C134.18 211.55 134.5 210.71 134.6 209.79C134.9 206.8 132.73 204.13 129.74 203.82C128.75 203.72 127.8 203.9 126.95 204.28C125.69 202.05 123.41 200.44 120.67 200.16C116.18 199.7 112.18 202.97 111.72 207.46C111.49 209.76 112.24 211.93 113.62 213.57C112.73 214.43 112.12 215.6 111.99 216.93C111.69 219.92 113.86 222.59 116.85 222.9C119 223.12 120.98 222.05 122.04 220.33C122.9 221.2 124.05 221.79 125.36 221.92C127.34 222.12 129.17 221.23 130.28 219.75C130.52 219.82 130.78 219.87 131.04 219.9C133.32 220.13 135.36 218.47 135.59 216.19C135.75 214.57 134.97 213.09 133.7 212.27Z" fill="#E8E0AF"/>
<path opacity="0.6" d="M122.53 219.5C121.32 218.21 121.03 218.87 120.16 219.67C119.59 220.2 118.42 221.02 117.58 221.16C115.57 221.5 113.83 218.55 114.61 216.78C115.01 215.86 116.23 215.82 116.33 214.77C116.44 213.63 115.06 213 114.49 212.29C113 210.45 113.69 208.27 115.44 207.01C116.24 206.43 117.17 206.27 117.95 205.8C119.01 205.16 118.59 204.59 119.28 203.47C119.84 202.56 121.25 201.64 122.4 202.1C123.9 202.71 123.6 204.59 123.97 205.83C124.29 206.88 125.21 208.9 126.67 208.58C127.83 208.32 128.15 206.67 129.81 207.25C131.11 207.7 131.03 209.41 131.28 210.57C131.58 211.97 131.75 212.85 132.41 213.97C133.32 215.52 133.46 216.48 132.07 217.63C130.32 219.07 129.87 218.2 128.17 217.03C126.87 216.13 125.59 215.62 124.18 216.62C122.94 217.49 123.65 218.51 122.82 219.53L122.53 219.5Z" fill="white"/>
<path d="M114.44 212.93C111.53 214.68 110.88 218.31 113.19 221.15C116.26 224.61 122.16 223.02 122.25 218.11" stroke="#DEB88E" stroke-width="2.62" stroke-miterlimit="10" stroke-linecap="round" stroke-linejoin="round"/>
<path d="M112.24 211.75C112.32 206.97 111.55 202.38 117.47 200.66C122.12 199.36 128.9 202.64 126.96 208.19" stroke="#DEB88E" stroke-width="2.62" stroke-miterlimit="10" stroke-linecap="round" stroke-linejoin="round"/>
<path d="M130.63 204.46C134.82 206.26 136.04 213.08 130.73 214.18" stroke="#DEB88E" stroke-width="2.62" stroke-miterlimit="10" stroke-linecap="round" stroke-linejoin="round"/>
<path d="M135 213.93C135.32 214.78 135.36 217.11 134.86 218.02C133.85 219.83 129.71 220.23 128.82 218.23" stroke="#DEB88E" stroke-width="2.62" stroke-miterlimit="10" stroke-linecap="round" stroke-linejoin="round"/>
<path d="M129.87 219.97C129.22 222.37 122.89 222.68 122.6 220.19" stroke="#DEB88E" stroke-width="2.62" stroke-miterlimit="10" stroke-linecap="round" stroke-linejoin="round"/>
<path d="M124.95 211.2C123.31 211.17 118.99 211.96 119.28 209.12" stroke="#DEB88E" stroke-width="2.62" stroke-miterlimit="10" stroke-linecap="round" stroke-linejoin="round"/>
<path d="M120.45 211.01C122.41 211.89 121.97 214.86 120.49 215.94" stroke="#DEB88E" stroke-width="2.62" stroke-miterlimit="10" stroke-linecap="round" stroke-linejoin="round"/>
<path d="M106.12 227.45C106.6 226.73 106.92 225.89 107.02 224.97C107.32 221.98 105.15 219.31 102.16 219C101.17 218.9 100.22 219.07 99.37 219.46C98.11 217.23 95.83 215.62 93.09 215.35C88.6 214.89 84.6 218.16 84.14 222.65C83.91 224.95 84.66 227.12 86.04 228.76C85.15 229.62 84.54 230.79 84.41 232.12C84.11 235.11 86.28 237.78 89.27 238.09C91.42 238.31 93.4 237.24 94.46 235.52C95.32 236.39 96.47 236.98 97.78 237.11C99.76 237.31 101.59 236.42 102.7 234.94C102.94 235.01 103.2 235.07 103.46 235.09C105.74 235.32 107.78 233.66 108.01 231.38C108.17 229.75 107.39 228.27 106.12 227.45Z" fill="#E8E0AF"/>
<path opacity="0.6" d="M94.95 234.68C93.74 233.39 93.45 234.05 92.58 234.85C92.01 235.38 90.84 236.2 90 236.34C87.99 236.68 86.25 233.73 87.03 231.96C87.43 231.04 88.65 231 88.75 229.95C88.86 228.81 87.48 228.18 86.91 227.47C85.42 225.63 86.11 223.45 87.86 222.19C88.66 221.61 89.59 221.45 90.37 220.98C91.43 220.34 91.01 219.77 91.7 218.65C92.26 217.74 93.67 216.82 94.82 217.29C96.32 217.9 96.02 219.78 96.39 221.02C96.71 222.07 97.63 224.09 99.09 223.77C100.25 223.51 100.57 221.86 102.24 222.44C103.54 222.89 103.46 224.6 103.71 225.77C104.01 227.16 104.18 228.05 104.84 229.17C105.75 230.72 105.89 231.68 104.5 232.83C102.75 234.27 102.3 233.4 100.6 232.23C99.3 231.33 98.02 230.83 96.61 231.82C95.37 232.69 96.08 233.71 95.25 234.72L94.95 234.68Z" fill="white"/>
<path d="M86.86 228.11C83.94 229.87 83.3 233.49 85.61 236.33C88.68 239.79 94.58 238.2 94.67 233.29" stroke="#DEB88E" stroke-width="2.62" stroke-miterlimit="10" stroke-linecap="round" stroke-linejoin="round"/>
<path d="M84.66 226.93C84.74 222.15 83.97 217.56 89.89 215.84C94.54 214.54 101.32 217.82 99.38 223.37" stroke="#DEB88E" stroke-width="2.62" stroke-miterlimit="10" stroke-linecap="round" stroke-linejoin="round"/>
<path d="M103.05 219.64C107.25 221.44 108.47 228.26 103.16 229.36" stroke="#DEB88E" stroke-width="2.62" stroke-miterlimit="10" stroke-linecap="round" stroke-linejoin="round"/>
<path d="M107.42 229.11C107.74 229.96 107.78 232.29 107.28 233.2C106.27 235.01 102.13 235.41 101.24 233.41" stroke="#DEB88E" stroke-width="2.62" stroke-miterlimit="10" stroke-linecap="round" stroke-linejoin="round"/>
<path d="M102.29 235.15C101.64 237.55 95.31 237.86 95.02 235.37" stroke="#DEB88E" stroke-width="2.62" stroke-miterlimit="10" stroke-linecap="round" stroke-linejoin="round"/>
<path d="M97.37 226.38C95.73 226.35 91.41 227.14 91.7 224.3" stroke="#DEB88E" stroke-width="2.62" stroke-miterlimit="10" stroke-linecap="round" stroke-linejoin="round"/>
<path d="M92.87 226.19C94.83 227.07 94.39 230.04 92.91 231.12" stroke="#DEB88E" stroke-width="2.62" stroke-miterlimit="10" stroke-linecap="round" stroke-linejoin="round"/>
<path d="M112.86 216.48C112.13 216.02 111.28 215.72 110.35 215.65C107.35 215.43 104.74 217.69 104.53 220.68C104.46 221.67 104.66 222.62 105.07 223.45C102.88 224.77 101.34 227.1 101.14 229.85C100.81 234.35 104.19 238.26 108.69 238.59C111 238.76 113.14 237.95 114.74 236.51C115.63 237.38 116.81 237.95 118.15 238.05C121.15 238.27 123.75 236.01 123.97 233.02C124.13 230.87 123 228.92 121.25 227.91C122.1 227.03 122.65 225.86 122.75 224.54C122.89 222.56 121.95 220.75 120.44 219.69C120.5 219.44 120.55 219.19 120.57 218.93C120.74 216.64 119.02 214.65 116.73 214.49C115.1 214.37 113.64 215.19 112.86 216.48Z" fill="#E8E0AF"/>
<path opacity="0.6" d="M120.41 227.44C119.15 228.68 119.82 228.96 120.65 229.81C121.19 230.37 122.05 231.51 122.22 232.35C122.61 234.35 119.72 236.17 117.92 235.45C116.99 235.07 116.91 233.86 115.86 233.79C114.72 233.71 114.13 235.11 113.44 235.7C111.65 237.25 109.45 236.62 108.13 234.9C107.53 234.12 107.34 233.19 106.85 232.43C106.18 231.39 105.62 231.83 104.48 231.17C103.56 230.63 102.59 229.25 103.03 228.09C103.6 226.57 105.48 226.82 106.71 226.41C107.75 226.06 109.75 225.08 109.38 223.63C109.09 222.47 107.43 222.2 107.96 220.53C108.37 219.22 110.08 219.25 111.24 218.97C112.63 218.63 113.5 218.43 114.6 217.74C116.13 216.78 117.08 216.62 118.27 217.98C119.76 219.68 118.91 220.16 117.78 221.89C116.92 223.22 116.45 224.51 117.49 225.89C118.4 227.1 119.39 226.36 120.43 227.17L120.41 227.44Z" fill="white"/>
<path d="M114.08 235.71C115.92 238.57 119.56 239.11 122.33 236.72C125.7 233.55 123.94 227.7 119.03 227.75" stroke="#DEB88E" stroke-width="2.62" stroke-miterlimit="10" stroke-linecap="round" stroke-linejoin="round"/>
<path d="M112.96 237.95C108.18 238.01 103.61 238.91 101.72 233.04C100.28 228.43 103.37 221.56 108.98 223.33" stroke="#DEB88E" stroke-width="2.62" stroke-miterlimit="10" stroke-linecap="round" stroke-linejoin="round"/>
<path d="M105.14 219.78C106.81 215.54 113.6 214.12 114.86 219.4" stroke="#DEB88E" stroke-width="2.62" stroke-miterlimit="10" stroke-linecap="round" stroke-linejoin="round"/>
<path d="M114.48 215.14C115.33 214.79 117.65 214.69 118.57 215.16C120.41 216.11 120.93 220.24 118.95 221.19" stroke="#DEB88E" stroke-width="2.62" stroke-miterlimit="10" stroke-linecap="round" stroke-linejoin="round"/>
<path d="M120.67 220.09C123.08 220.67 123.58 226.99 121.1 227.35" stroke="#DEB88E" stroke-width="2.62" stroke-miterlimit="10" stroke-linecap="round" stroke-linejoin="round"/>
<path d="M112.04 225.26C112.06 226.9 112.97 231.19 110.12 230.99" stroke="#DEB88E" stroke-width="2.62" stroke-miterlimit="10" stroke-linecap="round" stroke-linejoin="round"/>
<path d="M111.99 229.76C112.82 227.77 115.79 228.13 116.92 229.57" stroke="#DEB88E" stroke-width="2.62" stroke-miterlimit="10" stroke-linecap="round" stroke-linejoin="round"/>
<path d="M105.04 203.69C104.31 203.23 103.46 202.93 102.53 202.87C99.53 202.65 96.93 204.91 96.71 207.9C96.64 208.89 96.84 209.84 97.25 210.67C95.06 211.99 93.52 214.32 93.32 217.07C92.99 221.57 96.37 225.48 100.87 225.81C103.18 225.98 105.32 225.17 106.92 223.73C107.81 224.6 108.99 225.17 110.33 225.27C113.33 225.49 115.94 223.23 116.15 220.24C116.31 218.09 115.18 216.14 113.43 215.13C114.27 214.25 114.83 213.08 114.93 211.76C115.07 209.78 114.13 207.97 112.62 206.91C112.68 206.67 112.73 206.41 112.75 206.15C112.92 203.86 111.2 201.87 108.91 201.71C107.29 201.57 105.83 202.39 105.04 203.69Z" fill="#E8E0AF"/>
<path opacity="0.6" d="M112.6 214.65C111.34 215.89 112.01 216.17 112.84 217.02C113.38 217.58 114.24 218.72 114.41 219.56C114.81 221.56 111.91 223.38 110.12 222.66C109.19 222.28 109.11 221.07 108.06 221C106.92 220.92 106.33 222.32 105.64 222.91C103.85 224.46 101.65 223.83 100.33 222.11C99.73 221.33 99.54 220.4 99.05 219.64C98.38 218.6 97.82 219.04 96.69 218.38C95.77 217.84 94.8 216.46 95.24 215.3C95.81 213.78 97.69 214.03 98.92 213.62C99.96 213.27 101.95 212.29 101.59 210.84C101.3 209.68 99.64 209.41 100.17 207.73C100.58 206.42 102.29 206.45 103.45 206.17C104.84 205.83 105.71 205.63 106.81 204.94C108.34 203.98 109.29 203.82 110.48 205.18C111.97 206.88 111.12 207.36 109.99 209.09C109.13 210.42 108.66 211.71 109.7 213.09C110.61 214.3 111.6 213.56 112.64 214.37L112.6 214.65Z" fill="white"/>
<path d="M106.26 222.92C108.1 225.78 111.74 226.32 114.51 223.93C117.88 220.76 116.12 214.91 111.21 214.96" stroke="#DEB88E" stroke-width="2.62" stroke-miterlimit="10" stroke-linecap="round" stroke-linejoin="round"/>
<path d="M105.14 225.16C100.36 225.22 95.79 226.12 93.9 220.25C92.46 215.64 95.55 208.77 101.16 210.54" stroke="#DEB88E" stroke-width="2.62" stroke-miterlimit="10" stroke-linecap="round" stroke-linejoin="round"/>
<path d="M97.33 206.99C99 202.75 105.79 201.33 107.04 206.6" stroke="#DEB88E" stroke-width="2.62" stroke-miterlimit="10" stroke-linecap="round" stroke-linejoin="round"/>
<path d="M106.67 202.35C107.51 202 109.84 201.9 110.76 202.38C112.6 203.33 113.12 207.46 111.14 208.41" stroke="#DEB88E" stroke-width="2.62" stroke-miterlimit="10" stroke-linecap="round" stroke-linejoin="round"/>
<path d="M112.86 207.3C115.27 207.88 115.77 214.2 113.29 214.56" stroke="#DEB88E" stroke-width="2.62" stroke-miterlimit="10" stroke-linecap="round" stroke-linejoin="round"/>
<path d="M104.23 212.47C104.25 214.11 105.16 218.41 102.31 218.2" stroke="#DEB88E" stroke-width="2.62" stroke-miterlimit="10" stroke-linecap="round" stroke-linejoin="round"/>
<path d="M104.17 216.97C105 214.98 107.97 215.34 109.1 216.78" stroke="#DEB88E" stroke-width="2.62" stroke-miterlimit="10" stroke-linecap="round" stroke-linejoin="round"/>
<path d="M140.81 230.29C141.29 229.57 141.61 228.73 141.71 227.8C142.01 224.81 139.84 222.14 136.85 221.83C135.86 221.73 134.91 221.9 134.06 222.29C132.8 220.06 130.52 218.45 127.78 218.17C123.29 217.71 119.29 220.98 118.83 225.46C118.6 227.76 119.34 229.93 120.73 231.57C119.84 232.43 119.23 233.6 119.1 234.93C118.8 237.92 120.97 240.59 123.96 240.9C126.11 241.12 128.09 240.05 129.15 238.33C130.01 239.2 131.16 239.79 132.47 239.92C134.45 240.12 136.28 239.23 137.39 237.75C137.63 237.82 137.89 237.88 138.15 237.9C140.43 238.13 142.47 236.47 142.7 234.19C142.87 232.59 142.09 231.11 140.81 230.29Z" fill="#E8E0AF"/>
<path opacity="0.6" d="M129.64 237.52C128.43 236.23 128.13 236.89 127.27 237.69C126.7 238.22 125.53 239.04 124.69 239.18C122.68 239.52 120.94 236.57 121.72 234.8C122.12 233.88 123.34 233.84 123.44 232.79C123.55 231.65 122.17 231.02 121.6 230.31C120.11 228.47 120.8 226.29 122.55 225.03C123.35 224.45 124.28 224.29 125.06 223.82C126.12 223.18 125.7 222.61 126.39 221.49C126.95 220.58 128.36 219.66 129.51 220.13C131.01 220.74 130.71 222.62 131.08 223.86C131.4 224.92 132.32 226.93 133.78 226.61C134.94 226.35 135.26 224.7 136.92 225.28C138.22 225.73 138.14 227.44 138.39 228.61C138.69 230 138.86 230.89 139.52 232C140.43 233.55 140.57 234.51 139.18 235.66C137.43 237.1 136.98 236.23 135.28 235.06C133.98 234.16 132.7 233.66 131.29 234.65C130.05 235.52 130.76 236.54 129.93 237.55L129.64 237.52Z" fill="white"/>
<path d="M121.56 230.95C118.64 232.71 118 236.33 120.31 239.17C123.38 242.63 129.28 241.04 129.37 236.13" stroke="#DEB88E" stroke-width="2.62" stroke-miterlimit="10" stroke-linecap="round" stroke-linejoin="round"/>
<path d="M119.35 229.77C119.43 224.99 118.66 220.4 124.58 218.68C129.23 217.37 136.01 220.66 134.07 226.21" stroke="#DEB88E" stroke-width="2.62" stroke-miterlimit="10" stroke-linecap="round" stroke-linejoin="round"/>
<path d="M137.74 222.48C141.94 224.28 143.15 231.1 137.84 232.2" stroke="#DEB88E" stroke-width="2.62" stroke-miterlimit="10" stroke-linecap="round" stroke-linejoin="round"/>
<path d="M142.11 231.95C142.43 232.8 142.47 235.13 141.97 236.04C140.96 237.85 136.82 238.25 135.93 236.25" stroke="#DEB88E" stroke-width="2.62" stroke-miterlimit="10" stroke-linecap="round" stroke-linejoin="round"/>
<path d="M136.98 238C136.33 240.4 130 240.71 129.71 238.22" stroke="#DEB88E" stroke-width="2.62" stroke-miterlimit="10" stroke-linecap="round" stroke-linejoin="round"/>
<path d="M132.06 229.22C130.42 229.19 126.1 229.98 126.39 227.14" stroke="#DEB88E" stroke-width="2.62" stroke-miterlimit="10" stroke-linecap="round" stroke-linejoin="round"/>
<path d="M127.57 229.04C129.53 229.92 129.09 232.89 127.62 233.97" stroke="#DEB88E" stroke-width="2.62" stroke-miterlimit="10" stroke-linecap="round" stroke-linejoin="round"/>
<path d="M137.61 235.04C137.33 235.86 137.24 236.76 137.39 237.67C137.87 240.64 140.67 242.65 143.63 242.17C144.61 242.01 145.49 241.59 146.2 241.01C147.99 242.84 150.61 243.8 153.33 243.36C157.78 242.64 160.81 238.45 160.09 233.99C159.72 231.71 158.43 229.81 156.67 228.59C157.31 227.53 157.59 226.24 157.38 224.92C156.9 221.95 154.1 219.94 151.14 220.42C149.01 220.77 147.37 222.31 146.79 224.25C145.74 223.63 144.47 223.36 143.17 223.57C141.21 223.89 139.67 225.22 138.98 226.94C138.73 226.93 138.47 226.95 138.21 226.99C135.95 227.36 134.41 229.49 134.78 231.75C135.03 233.34 136.17 234.58 137.61 235.04Z" fill="#E8E0AF"/>
<path opacity="0.6" d="M146.53 225.16C148.03 226.1 148.15 225.38 148.78 224.38C149.2 223.72 150.11 222.63 150.89 222.27C152.74 221.42 155.19 223.82 154.9 225.73C154.75 226.72 153.58 227.08 153.76 228.12C153.95 229.25 155.45 229.5 156.18 230.03C158.1 231.42 157.99 233.7 156.63 235.38C156.01 236.15 155.15 236.54 154.52 237.2C153.66 238.09 154.22 238.53 153.84 239.79C153.53 240.81 152.41 242.07 151.18 241.91C149.57 241.71 149.38 239.82 148.7 238.72C148.12 237.78 146.71 236.07 145.38 236.77C144.32 237.32 144.44 239 142.69 238.87C141.32 238.77 140.95 237.1 140.41 236.04C139.76 234.77 139.36 233.96 138.44 233.05C137.15 231.79 136.77 230.89 137.82 229.42C139.14 227.58 139.8 228.3 141.74 228.99C143.23 229.52 144.59 229.68 145.7 228.35C146.67 227.19 145.72 226.39 146.26 225.19L146.53 225.16Z" fill="white"/>
<path d="M156.04 229.41C158.4 226.96 158.08 223.29 155.12 221.15C151.26 218.6 145.97 221.67 147.15 226.44" stroke="#DEB88E" stroke-width="2.62" stroke-miterlimit="10" stroke-linecap="round" stroke-linejoin="round"/>
<path d="M158.47 229.98C159.63 234.62 161.56 238.85 156.29 242.05C152.14 244.51 144.74 243.09 145.17 237.23" stroke="#DEB88E" stroke-width="2.62" stroke-miterlimit="10" stroke-linecap="round" stroke-linejoin="round"/>
<path d="M142.6 241.79C138.08 241.14 135.14 234.86 139.98 232.43" stroke="#DEB88E" stroke-width="2.62" stroke-miterlimit="10" stroke-linecap="round" stroke-linejoin="round"/>
<path d="M135.93 233.77C135.4 233.03 134.76 230.79 135.01 229.78C135.51 227.77 139.41 226.31 140.79 228.02" stroke="#DEB88E" stroke-width="2.62" stroke-miterlimit="10" stroke-linecap="round" stroke-linejoin="round"/>
<path d="M139.31 226.6C139.32 224.12 145.35 222.18 146.28 224.51" stroke="#DEB88E" stroke-width="2.62" stroke-miterlimit="10" stroke-linecap="round" stroke-linejoin="round"/>
<path d="M146.34 233.8C147.93 233.4 151.9 231.52 152.35 234.34" stroke="#DEB88E" stroke-width="2.62" stroke-miterlimit="10" stroke-linecap="round" stroke-linejoin="round"/>
<path d="M150.73 232.82C148.61 232.47 148.26 229.5 149.41 228.07" stroke="#DEB88E" stroke-width="2.62" stroke-miterlimit="10" stroke-linecap="round" stroke-linejoin="round"/>
<path d="M123.63 201.22C123.35 202.04 123.26 202.94 123.41 203.85C123.89 206.82 126.69 208.83 129.65 208.35C130.63 208.19 131.51 207.78 132.22 207.19C134.01 209.02 136.63 209.98 139.35 209.54C143.8 208.82 146.83 204.63 146.11 200.18C145.74 197.9 144.45 195.99 142.69 194.77C143.33 193.71 143.61 192.42 143.4 191.1C142.92 188.13 140.12 186.12 137.16 186.6C135.03 186.95 133.39 188.49 132.81 190.43C131.76 189.81 130.49 189.54 129.19 189.75C127.23 190.07 125.69 191.4 125 193.12C124.74 193.11 124.49 193.13 124.23 193.17C121.97 193.54 120.43 195.67 120.8 197.93C121.05 199.53 122.19 200.76 123.63 201.22Z" fill="#E8E0AF"/>
<path opacity="0.6" d="M132.55 191.34C134.05 192.28 134.17 191.56 134.8 190.56C135.22 189.9 136.13 188.8 136.91 188.45C138.76 187.6 141.21 190 140.92 191.91C140.77 192.9 139.61 193.26 139.78 194.3C139.97 195.43 141.47 195.68 142.2 196.21C144.12 197.6 144.01 199.88 142.65 201.56C142.03 202.33 141.17 202.72 140.54 203.38C139.68 204.27 140.24 204.71 139.86 205.97C139.55 206.99 138.43 208.25 137.2 208.09C135.59 207.89 135.4 206 134.72 204.9C134.14 203.97 132.73 202.26 131.4 202.95C130.34 203.5 130.46 205.18 128.71 205.05C127.34 204.95 126.97 203.28 126.43 202.22C125.78 200.95 125.38 200.14 124.46 199.23C123.18 197.97 122.79 197.07 123.84 195.6C125.15 193.76 125.82 194.48 127.76 195.17C129.25 195.7 130.61 195.86 131.72 194.53C132.69 193.37 131.74 192.57 132.28 191.37L132.55 191.34Z" fill="white"/>
<path d="M142.06 195.59C144.42 193.14 144.1 189.47 141.14 187.33C137.28 184.78 131.99 187.85 133.17 192.62" stroke="#DEB88E" stroke-width="2.62" stroke-miterlimit="10" stroke-linecap="round" stroke-linejoin="round"/>
<path d="M144.49 196.16C145.66 200.8 147.58 205.03 142.31 208.23C138.16 210.69 130.76 209.27 131.19 203.41" stroke="#DEB88E" stroke-width="2.62" stroke-miterlimit="10" stroke-linecap="round" stroke-linejoin="round"/>
<path d="M128.62 207.97C124.1 207.32 121.16 201.04 126 198.61" stroke="#DEB88E" stroke-width="2.62" stroke-miterlimit="10" stroke-linecap="round" stroke-linejoin="round"/>
<path d="M121.95 199.95C121.42 199.21 120.78 196.97 121.03 195.96C121.53 193.95 125.43 192.49 126.81 194.2" stroke="#DEB88E" stroke-width="2.62" stroke-miterlimit="10" stroke-linecap="round" stroke-linejoin="round"/>
<path d="M125.34 192.78C125.35 190.3 131.38 188.36 132.31 190.69" stroke="#DEB88E" stroke-width="2.62" stroke-miterlimit="10" stroke-linecap="round" stroke-linejoin="round"/>
<path d="M132.36 199.99C133.95 199.59 137.92 197.71 138.38 200.53" stroke="#DEB88E" stroke-width="2.62" stroke-miterlimit="10" stroke-linecap="round" stroke-linejoin="round"/>
<path d="M136.75 199C134.63 198.65 134.28 195.68 135.43 194.25" stroke="#DEB88E" stroke-width="2.62" stroke-miterlimit="10" stroke-linecap="round" stroke-linejoin="round"/>
<path d="M91.3 317.31L82.7 316.43L82.17 227.48C85.93 223.51 89.7 224.49 93.49 228.63L91.3 317.31Z" fill="#FF0F0F"/>
<path d="M99.91 318.18L91.31 317.3L93.49 228.62C97.71 224.82 101.44 225.54 104.81 229.77L99.91 318.18Z" fill="white"/>
<path d="M108.51 319.06L99.91 318.18L104.8 229.78C108.95 225.97 112.69 226.69 116.12 230.93L108.51 319.06Z" fill="#FF0F0F"/>
<path d="M127.43 232.09L117.11 319.94L108.51 319.06L116.12 230.94C120.3 227.3 124.07 227.69 127.43 232.09Z" fill="white"/>
<path d="M138.75 233.24L125.72 320.81L117.12 319.93L127.44 232.08C131.71 228.46 135.48 228.85 138.75 233.24Z" fill="#FF0F0F"/>
<path d="M150.07 234.39L134.32 321.68L125.72 320.8L138.75 233.23C143.09 229.57 146.84 230.06 150.07 234.39Z" fill="white"/>
<path d="M161.38 235.55L142.92 322.57L134.32 321.69L150.07 234.4C154.13 230.89 157.92 230.99 161.38 235.55Z" fill="#FF0F0F"/>
<path d="M179.32 223L157.6 312.24L152.71 315.68L173.33 227.2C175.72 221.89 177.7 220.65 179.32 223Z" fill="white"/>
<path d="M173.34 227.21L152.72 315.69L147.83 319.13L167.36 231.42C169.66 225.8 171.62 224.88 173.34 227.21Z" fill="#FF0F0F"/>
<path d="M167.36 231.42L147.83 319.13L142.93 322.57L161.37 235.63C163.26 230.31 165.28 229.63 167.36 231.42Z" fill="white"/>
<path d="M91.3 317.31L82.7 316.43L82.17 227.48C85.93 223.51 89.7 224.49 93.49 228.63L91.3 317.31Z" stroke="#2D1F04" stroke-width="2.62" stroke-miterlimit="10" stroke-linecap="round" stroke-linejoin="round"/>
<path d="M99.91 318.18L91.31 317.3L93.49 228.62C97.71 224.82 101.44 225.54 104.81 229.77L99.91 318.18Z" stroke="#2D1F04" stroke-width="2.62" stroke-miterlimit="10" stroke-linecap="round" stroke-linejoin="round"/>
<path d="M108.51 319.06L99.91 318.18L104.8 229.78C108.95 225.97 112.69 226.69 116.12 230.93L108.51 319.06Z" stroke="#2D1F04" stroke-width="2.62" stroke-miterlimit="10" stroke-linecap="round" stroke-linejoin="round"/>
<path d="M127.43 232.09L117.11 319.94L108.51 319.06L116.12 230.94C120.3 227.3 124.07 227.69 127.43 232.09Z" stroke="#2D1F04" stroke-width="2.62" stroke-miterlimit="10" stroke-linecap="round" stroke-linejoin="round"/>
<path d="M138.75 233.24L125.72 320.81L117.12 319.93L127.44 232.08C131.71 228.46 135.48 228.85 138.75 233.24Z" stroke="#2D1F04" stroke-width="2.62" stroke-miterlimit="10" stroke-linecap="round" stroke-linejoin="round"/>
<path d="M150.07 234.39L134.32 321.68L125.72 320.8L138.75 233.23C143.09 229.57 146.84 230.06 150.07 234.39Z" stroke="#2D1F04" stroke-width="2.62" stroke-miterlimit="10" stroke-linecap="round" stroke-linejoin="round"/>
<path d="M161.38 235.55L142.92 322.57L134.32 321.69L150.07 234.4C154.13 230.89 157.92 230.99 161.38 235.55Z" stroke="#2D1F04" stroke-width="2.62" stroke-miterlimit="10" stroke-linecap="round" stroke-linejoin="round"/>
<path d="M179.32 223L157.6 312.24L152.71 315.68L173.33 227.2C175.72 221.89 177.7 220.65 179.32 223Z" stroke="#2D1F04" stroke-width="2.62" stroke-miterlimit="10" stroke-linecap="round" stroke-linejoin="round"/>
<path d="M142.93 322.56L142.92 322.57" stroke="#2D1F04" stroke-width="2.62" stroke-miterlimit="10" stroke-linecap="round" stroke-linejoin="round"/>
<path d="M173.34 227.21L152.72 315.69L147.83 319.13L167.36 231.42C169.66 225.8 171.62 224.88 173.34 227.21Z" stroke="#2D1F04" stroke-width="2.62" stroke-miterlimit="10" stroke-linecap="round" stroke-linejoin="round"/>
<path d="M167.36 231.42L147.83 319.13L142.93 322.57L161.37 235.63C163.26 230.31 165.28 229.63 167.36 231.42Z" stroke="#2D1F04" stroke-width="2.62" stroke-miterlimit="10" stroke-linecap="round" stroke-linejoin="round"/>
<path d="M141.87 186.07C142.28 185.46 142.55 184.75 142.63 183.97C142.89 181.44 141.04 179.17 138.51 178.92C137.67 178.83 136.87 178.98 136.15 179.31C135.08 177.42 133.15 176.06 130.83 175.82C127.03 175.43 123.63 178.2 123.25 182C123.05 183.95 123.69 185.79 124.86 187.17C124.1 187.9 123.59 188.89 123.48 190.02C123.22 192.55 125.07 194.82 127.6 195.07C129.42 195.26 131.1 194.35 132 192.89C132.73 193.63 133.71 194.13 134.82 194.24C136.5 194.41 138.05 193.66 138.99 192.4C139.2 192.46 139.41 192.51 139.63 192.53C141.56 192.73 143.29 191.32 143.48 189.39C143.61 188.02 142.95 186.76 141.87 186.07Z" fill="#E8E0AF"/>
<path opacity="0.6" d="M132.41 192.19C131.39 191.09 131.14 191.66 130.4 192.33C129.91 192.78 128.93 193.47 128.21 193.59C126.51 193.88 125.03 191.38 125.69 189.88C126.03 189.1 127.06 189.06 127.15 188.17C127.24 187.21 126.07 186.67 125.59 186.07C124.33 184.51 124.91 182.67 126.4 181.59C127.08 181.1 127.86 180.96 128.53 180.56C129.43 180.02 129.07 179.54 129.65 178.59C130.13 177.82 131.32 177.04 132.29 177.43C133.56 177.95 133.3 179.54 133.62 180.59C133.89 181.48 134.67 183.19 135.91 182.92C136.9 182.7 137.17 181.3 138.57 181.79C139.67 182.17 139.6 183.62 139.81 184.61C140.06 185.79 140.21 186.54 140.77 187.49C141.54 188.81 141.66 189.62 140.48 190.59C139 191.81 138.62 191.08 137.18 190.08C136.08 189.32 135 188.89 133.8 189.73C132.75 190.47 133.35 191.33 132.65 192.19H132.41Z" fill="white"/>
<path d="M125.56 186.63C123.09 188.12 122.55 191.19 124.5 193.59C127.1 196.52 132.1 195.18 132.18 191.01" stroke="#DEB88E" stroke-width="2.62" stroke-miterlimit="10" stroke-linecap="round" stroke-linejoin="round"/>
<path d="M123.69 185.63C123.75 181.58 123.11 177.69 128.12 176.23C132.06 175.12 137.8 177.91 136.16 182.61" stroke="#DEB88E" stroke-width="2.62" stroke-miterlimit="10" stroke-linecap="round" stroke-linejoin="round"/>
<path d="M139.27 179.45C142.82 180.97 143.86 186.75 139.36 187.69" stroke="#DEB88E" stroke-width="2.62" stroke-miterlimit="10" stroke-linecap="round" stroke-linejoin="round"/>
<path d="M142.97 187.47C143.24 188.19 143.27 190.17 142.85 190.93C142 192.47 138.49 192.8 137.73 191.1" stroke="#DEB88E" stroke-width="2.62" stroke-miterlimit="10" stroke-linecap="round" stroke-linejoin="round"/>
<path d="M138.62 192.59C138.07 194.62 132.71 194.89 132.46 192.77" stroke="#DEB88E" stroke-width="2.62" stroke-miterlimit="10" stroke-linecap="round" stroke-linejoin="round"/>
<path d="M134.46 185.16C133.07 185.13 129.41 185.8 129.66 183.4" stroke="#DEB88E" stroke-width="2.62" stroke-miterlimit="10" stroke-linecap="round" stroke-linejoin="round"/>
<path d="M130.65 185C132.31 185.75 131.94 188.26 130.69 189.18" stroke="#DEB88E" stroke-width="2.62" stroke-miterlimit="10" stroke-linecap="round" stroke-linejoin="round"/>
<path d="M91.05 208.74C91.06 209.05 91.08 209.36 91.14 209.67C90.92 209.8 90.7 209.96 90.5 210.14C88.95 211.52 88.66 213.77 89.69 215.48C86.77 216.48 84.54 219.1 84.2 222.37C84.1 223.36 84.19 224.33 84.43 225.24" stroke="#2D1F04" stroke-width="2.62" stroke-miterlimit="10" stroke-linecap="round" stroke-linejoin="round"/>
<path d="M108.43 193.39C108.36 193.42 108.29 193.46 108.23 193.5C107.34 193.91 106.6 194.53 106.39 195.22C106.26 195.44 106.14 195.66 106.04 195.9C105.82 195.89 105.61 195.91 105.38 195.94C104.94 196.01 104.53 196.17 104.17 196.38C103.48 196.07 102.71 195.86 101.85 195.81C99.09 195.77 96.97 197.65 96.41 199.91C96.1 200.93 96.09 202.02 96.38 203.05C96.07 203.06 95.76 203.11 95.46 203.18" stroke="#2D1F04" stroke-width="2.62" stroke-miterlimit="10" stroke-linecap="round" stroke-linejoin="round"/>
<path d="M123.35 181.46C122.84 181.1 122.24 180.86 121.58 180.81C120.21 180.71 118.98 181.41 118.31 182.5C117.69 182.11 116.97 181.86 116.19 181.8C113.65 181.61 111.44 183.52 111.26 186.06C111.2 186.9 111.37 187.7 111.71 188.41C111.33 188.64 110.97 188.91 110.64 189.21" stroke="#2D1F04" stroke-width="2.62" stroke-miterlimit="10" stroke-linecap="round" stroke-linejoin="round"/>
<path d="M174.12 224.66C176.07 223.1 177.15 220.56 176.72 217.91C176.53 216.75 176.07 215.7 175.41 214.82C175.37 214.68 175.33 214.53 175.3 214.39L175.14 214.48C174.72 213.98 174.25 213.54 173.72 213.17C175.13 211.06 174.68 208.31 172.34 206.63C172.08 206.46 171.8 206.32 171.53 206.21C172.42 205.62 173.05 204.67 173.17 203.53C173.31 202.11 172.63 200.8 171.5 200.07C171.93 199.44 172.21 198.69 172.29 197.88C172.56 195.24 170.63 192.87 167.99 192.6C167.12 192.51 166.27 192.67 165.53 193C164.42 191.03 162.4 189.61 159.98 189.36C158.77 189.24 157.6 189.42 156.55 189.85C156.69 189.67 156.81 189.48 156.92 189.27C157.27 188.82 157.46 188.14 157.5 187.39C157.5 187.36 157.51 187.34 157.51 187.32C157.55 186.81 157.49 186.31 157.38 185.83C157.17 184.83 156.73 183.93 156.08 183.54C155.89 183.35 155.69 183.18 155.47 183.02C155.53 182.8 155.57 182.58 155.58 182.34C155.73 180.32 154.21 178.56 152.19 178.41C150.76 178.31 149.47 179.03 148.78 180.18C148.13 179.77 147.38 179.51 146.56 179.45C144.84 179.32 143.28 180.13 142.33 181.42C141.69 179.92 140.3 178.8 138.57 178.63C137.73 178.54 136.93 178.69 136.21 179.02C136.17 178.94 136.12 178.87 136.08 178.79" stroke="#2D1F04" stroke-width="2.62" stroke-miterlimit="10" stroke-linecap="round" stroke-linejoin="round"/>
<path d="M116.54 297.95C128.569 297.95 138.32 288.199 138.32 276.17C138.32 264.141 128.569 254.39 116.54 254.39C104.511 254.39 94.76 264.141 94.76 276.17C94.76 288.199 104.511 297.95 116.54 297.95Z" fill="white"/>
<path d="M102.76 265.66C106.22 266.08 109.6 266.43 112.98 266.93C115.75 267.34 116.55 269.45 116.47 271.43C116.36 274.15 114.98 275.92 112.56 276.68C112.43 276.72 112.3 276.74 112.04 276.8C114.62 278.74 114.6 282.16 115.94 285.13C113.97 284.94 112.22 284.78 110.38 284.6C109.69 282.69 109.04 280.73 108.38 278.77C108.02 277.7 107.49 276.87 106.11 277.06C105.8 279.38 105.5 281.73 105.27 284.17C103.6 284.01 102.09 283.87 100.51 283.72C101.08 277.72 102.02 271.83 102.76 265.66ZM107.12 269.89C106.96 271.1 106.81 272.21 106.62 273.56C107.68 273.59 108.72 273.69 109.76 273.64C110.68 273.59 111.24 272.97 111.38 272.1C111.53 271.18 111.12 270.41 110.16 270.21C109.2 270 108.18 269.99 107.12 269.89Z" fill="black"/>
<path d="M131.29 273.55C129.72 273.52 128.27 273.49 126.74 273.46C126.72 271.93 126.03 271.05 124.71 270.9C123.86 270.8 123.1 271.02 122.68 272.03C122.6 272.91 123.1 273.25 123.7 273.49C124.8 273.93 125.91 274.34 126.99 274.81C127.59 275.07 128.17 275.39 128.71 275.75C132.19 278.04 131.07 283.1 128.14 285.07C127.18 285.72 125.99 286.1 124.89 286.22C123.1 286.4 121.3 286.16 119.6 285.47C117.36 284.55 116.12 282.21 116.48 279.28C117.95 279.33 119.44 279.38 120.98 279.43C121.03 279.79 121.06 280.12 121.12 280.45C121.44 282.2 122.93 283.14 124.5 282.63C125.21 282.4 125.74 281.91 125.89 281.09C126.02 280.33 125.7 279.73 125.14 279.38C124.66 279.08 124.13 278.86 123.62 278.62C122.56 278.12 121.44 277.72 120.43 277.11C118.48 275.95 117.67 274.13 118.04 272.12C118.46 269.88 120.02 268.2 122.3 267.74C124.45 267.31 126.57 267.48 128.56 268.38C130.62 269.32 131.47 270.87 131.29 273.55Z" fill="black"/>
<path d="M116.54 297.95C128.569 297.95 138.32 288.199 138.32 276.17C138.32 264.141 128.569 254.39 116.54 254.39C104.511 254.39 94.76 264.141 94.76 276.17C94.76 288.199 104.511 297.95 116.54 297.95Z" stroke="#2D1F04" stroke-width="2.62" stroke-miterlimit="10" stroke-linecap="round" stroke-linejoin="round"/>
<path d="M262.26 321.43C261.45 322.18 260.51 322.87 259.47 323.5C259.21 323.66 258.95 323.81 258.67 323.96C258.14 324.25 257.57 324.53 256.99 324.8C256.98 324.8 256.97 324.8 256.96 324.81C255.77 325.34 254.49 325.82 253.12 326.25C236.22 331.5 206.31 328.76 184.69 326.71C180.32 326.3 177 326.43 174.03 327.01C170.06 327.77 166.72 329.33 162.33 331.45C156.86 334.09 150.52 335.94 144.25 337.19C130.6 339.92 117.31 339.87 114.17 339.26C113.83 339.19 113.62 339.12 113.54 339.04C113.48 338.98 113.86 338.45 114.56 337.54C114.58 337.51 114.6 337.49 114.63 337.46C114.75 337.32 114.88 337.16 115.01 336.99C115.56 336.32 116.24 335.51 117.02 334.58C117.31 334.26 117.61 333.91 117.91 333.55C122.2 328.6 129.01 321.08 135.51 314.46C140.36 309.52 145.05 305.08 148.41 302.56C157.43 295.8 165.41 290.85 175.46 285.89C180.79 283.26 189.07 279.75 198.79 277.77C207.84 275.93 220.41 275.25 236.29 277.01C242.24 277.67 248.48 279.18 254.69 281.53C254.86 281.59 255.03 281.66 255.2 281.73C255.9 282.01 256.6 282.3 257.31 282.6C270.91 288.39 279.24 305.7 262.26 321.43Z" fill="#CAA77A"/>
<path d="M166.03 329.73C164.87 330.25 163.66 330.83 162.36 331.46C143.64 340.51 114.64 340.15 113.53 339.04C113.15 338.66 134.32 314.45 145.98 304.54L146.39 305.22C149.42 310.78 155.46 323.74 166.03 329.73Z" fill="#B6B1AE"/>
<path d="M146.38 305.21C149.45 310.84 155.14 323.86 165.96 329.75" stroke="#2D1F04" stroke-width="2.62" stroke-miterlimit="10" stroke-linecap="round" stroke-linejoin="round"/>
<path d="M113.52 339.04C124.9 328.13 137.94 320.1 150.3 315.25" stroke="#2D1F04" stroke-width="2.62" stroke-miterlimit="10" stroke-linecap="round" stroke-linejoin="round"/>
<path d="M113.52 339.04C124.91 337.1 147.82 331.8 158.27 323.71" stroke="#2D1F04" stroke-width="2.62" stroke-miterlimit="10" stroke-linecap="round" stroke-linejoin="round"/>
<path d="M222.81 290.53L222.77 297.04" stroke="#9D7B51" stroke-width="3.87" stroke-miterlimit="10" stroke-linecap="round" stroke-linejoin="round"/>
<path d="M229.21 293.86L229.16 300.37" stroke="#9D7B51" stroke-width="3.87" stroke-miterlimit="10" stroke-linecap="round" stroke-linejoin="round"/>
<path opacity="0.23" d="M262.26 321.43C261.44 322.18 260.51 322.87 259.47 323.5C255.83 325.7 250.89 327.15 245.13 328.04C235.05 329.61 222.49 329.49 210.1 328.78C210.09 328.79 210.08 328.79 210.08 328.78C206.54 328.57 203.01 328.32 199.56 328.04C199.55 328.05 199.54 328.05 199.53 328.04C197.81 327.9 196.11 327.75 194.44 327.61H194.41C192.73 327.46 191.09 327.31 189.47 327.16C187.84 327.01 186.24 326.86 184.69 326.71C180.32 326.3 177 326.43 174.03 327.01C170.06 327.77 166.72 329.33 162.33 331.45C156.86 334.09 150.52 335.94 144.25 337.19C130.6 339.92 117.3 339.87 114.17 339.26C113.83 339.19 113.62 339.12 113.54 339.04C113.48 338.98 113.86 338.45 114.56 337.54C114.58 337.51 114.6 337.49 114.63 337.46C114.75 337.32 114.88 337.16 115.01 336.99C115.75 336.09 116.74 334.92 117.91 333.55C118.23 333.18 118.57 332.8 118.91 332.4C119.2 332.07 119.5 331.73 119.8 331.38H119.81C132.56 331.79 147.35 326.01 159.1 319.03C170.84 312.05 180.89 311.03 193.65 313.5C206.42 315.96 232.46 318.52 248.12 310.27C257.8 305.18 257.48 293.78 250.33 286.95C243.9 280.81 226.86 277.77 206.72 277.77C213.39 276.57 224.33 275.45 236.54 277.04C237.03 277.11 237.53 277.18 238.03 277.25C238.73 277.36 239.43 277.47 240.13 277.59C240.14 277.59 240.14 277.59 240.15 277.59C241.45 277.82 242.75 278.08 244.07 278.37C244.53 278.48 244.99 278.59 245.45 278.69C246.14 278.86 246.83 279.04 247.52 279.22C248.98 279.62 250.45 280.06 251.91 280.55C252.27 280.67 252.63 280.8 252.99 280.92C253.35 281.05 253.71 281.18 254.07 281.31C254.43 281.45 254.79 281.58 255.15 281.72C255.87 282 256.59 282.29 257.31 282.6C270.91 288.39 279.24 305.7 262.26 321.43Z" fill="#3F2719"/>
<path d="M175.48 285.89C165.45 290.9 157.45 295.8 148.43 302.56C137.62 310.67 113.11 338.63 113.52 339.04C114.63 340.15 143.63 340.5 162.35 331.45C170.01 327.75 174.47 325.74 184.7 326.71C211.15 329.22 250.03 332.76 262.27 321.42C279.25 305.7 270.92 288.38 257.32 282.59C229.68 270.83 200.22 278.92 199.96 279.43" stroke="#2D1F04" stroke-width="2.62" stroke-miterlimit="10" stroke-linecap="round" stroke-linejoin="round"/>
<path d="M62.55 213.5C65.49 221.37 78.98 242.92 92.18 246.8C98.45 248.65 106.29 250.42 115.92 250.43C123.27 250.43 136.52 250.57 137.09 253.73C137.3 254.91 124.62 266.27 113.24 268.05C102.59 269.72 98.77 268.09 92.44 267.21C86.79 266.43 51.07 267.74 33.68 246.08C26.27 236.85 25.75 220.29 43.37 193.78C45.36 190.78 46.16 189.35 47.82 186.65L62.55 213.5Z" fill="#CAA77A"/>
<path d="M137.09 253.73C137.3 254.91 124.62 266.27 113.24 268.05C102.59 269.72 98.77 268.1 92.45 267.22C92.18 267.18 91.85 267.15 91.46 267.12C90.19 260.9 90.53 253.15 94.57 247.48C100.4 249.06 107.47 250.43 115.92 250.44C123.27 250.44 136.52 250.57 137.09 253.73Z" fill="#B6B1AE"/>
<path d="M91.46 267.12C90.2 260.91 90.53 253.15 94.58 247.48" stroke="#2D1F04" stroke-width="2.62" stroke-miterlimit="10" stroke-linecap="round" stroke-linejoin="round"/>
<path d="M62.55 213.5C65.49 221.37 78.98 242.92 92.18 246.8C98.45 248.65 106.29 250.42 115.92 250.43C123.27 250.43 136.52 250.57 137.09 253.73C137.3 254.91 124.62 266.27 113.24 268.05C102.59 269.72 98.77 268.09 92.44 267.21C86.79 266.43 51.07 267.74 33.68 246.08C26.27 236.85 25.75 220.29 43.37 193.78C45.36 190.78 46.16 189.35 47.82 186.65" stroke="#2D1F04" stroke-width="2.62" stroke-miterlimit="10" stroke-linecap="round" stroke-linejoin="round"/>
<path d="M137.09 253.73C121.69 259.04 105.98 260.52 91.42 257.3" stroke="#2D1F04" stroke-width="2.62" stroke-miterlimit="10" stroke-linecap="round" stroke-linejoin="round"/>
<path opacity="0.23" d="M137.09 253.73C137.3 254.91 124.61 266.27 113.24 268.05C102.59 269.72 98.77 268.1 92.44 267.22C92.18 267.18 91.85 267.15 91.46 267.12C83.51 266.5 50.26 266.73 33.68 246.09C26.27 236.86 25.75 220.3 43.37 193.79C45.36 190.8 46.16 189.37 47.82 186.66C42.85 196.76 37.91 204.35 34.68 214.96C30.74 227.87 36.3 238.33 48.73 247.48C60.09 255.84 74.56 257.48 90.82 259.65C92.35 259.86 93.9 260.07 95.46 260.29C106.52 261.85 114.88 260.35 121.85 257.69C126.3 256 130.18 253.83 133.82 251.67C135.68 252.15 136.93 252.81 137.09 253.73Z" fill="#3F2719"/>
<path d="M209.41 221.84L209.36 228.35" stroke="#9D7B51" stroke-width="3.87" stroke-miterlimit="10" stroke-linecap="round" stroke-linejoin="round"/>
<path d="M215.8 225.17L215.76 231.68" stroke="#9D7B51" stroke-width="3.87" stroke-miterlimit="10" stroke-linecap="round" stroke-linejoin="round"/>
<path d="M57.62 195.59C60.59 198.31 66.97 204.56 71.09 209.62" stroke="#2D1F04" stroke-width="2.62" stroke-miterlimit="10" stroke-linecap="round" stroke-linejoin="round"/>
<path d="M238.43 262.64C237.9 265.87 236.59 272.75 235.78 276.8" stroke="#2D1F04" stroke-width="2.62" stroke-miterlimit="10" stroke-linecap="round" stroke-linejoin="round"/>
<path d="M234.01 179.37C234.06 180.48 234.45 183.53 235.34 185.16" stroke="#2D1F04" stroke-width="2.62" stroke-miterlimit="10" stroke-linecap="round" stroke-linejoin="round"/>
<path d="M226.25 181.59C226.28 183.34 226.85 186.04 227.87 187.69" stroke="#2D1F04" stroke-width="2.62" stroke-miterlimit="10" stroke-linecap="round" stroke-linejoin="round"/>
<path d="M218.09 185.16C218.43 187.82 218.87 189.92 220.28 192.22" stroke="#2D1F04" stroke-width="2.62" stroke-miterlimit="10" stroke-linecap="round" stroke-linejoin="round"/>
<path d="M242 178.02C228.2 179.59 215.33 184.77 205.99 193.92" stroke="#2D1F04" stroke-width="2.62" stroke-miterlimit="10" stroke-linecap="round" stroke-linejoin="round"/>
<path d="M252.55 187.7C256.69 187.49 259.78 187.57 261.11 187.59C261.12 187.59 261.12 187.59 261.13 187.59C263.83 187.62 263.59 185.5 262.9 183.44C262.3 181.62 261.62 177.59 258.11 177.59" stroke="#2D1F04" stroke-width="2.62" stroke-miterlimit="10" stroke-linecap="round" stroke-linejoin="round"/>
<path d="M201.87 184.42L205.54 193.92" stroke="#2D1F04" stroke-width="2.62" stroke-miterlimit="10" stroke-linecap="round" stroke-linejoin="round"/>
<path d="M258.2 177.59C254.32 159.62 248.67 142.66 240.02 124.57" stroke="#2D1F04" stroke-width="2.62" stroke-miterlimit="10" stroke-linecap="round" stroke-linejoin="round"/>
<path d="M129.96 120.03C128.95 120.68 127.96 121.62 127.32 122.56" stroke="#2D1F04" stroke-width="2.62" stroke-miterlimit="10" stroke-linecap="round" stroke-linejoin="round"/>
</g>
<defs>
<clipPath id="clip0_202_830">
<rect width="274" height="341" fill="white"/>
</clipPath>
</defs>
</svg>
