<svg width="215" height="339" viewBox="0 0 215 339" fill="none" xmlns="http://www.w3.org/2000/svg">
<g clip-path="url(#clip0_202_2090)">
<path d="M53.75 149.08C52.87 134.55 44.75 119.95 39.11 109.89C37.0904 106.293 35.4419 102.501 34.19 98.5701C33.4367 96.2103 32.8322 93.8056 32.38 91.3701C28.53 70.8601 35.28 49.4301 48.91 34.4201C41.59 33.4201 38.84 35.5201 38.84 35.5201C42.5011 31.4021 47.1657 28.3016 52.38 26.5201C51.45 23.7301 38.65 25.7801 38.65 25.7801C38.65 25.7801 49.3 18.0501 59.13 20.1601C53.44 14.8601 44.34 15.2101 44.34 15.2101C44.34 15.2101 64.77 12.6801 73.19 16.7001C67.93 12.3501 70.13 5.36014 71.67 1.39014C75.86 12.5401 85.67 13.3901 85.67 13.3901C85.67 13.3901 83.41 9.10014 87.26 6.95014C87.87 10.6101 94.89 13.5001 98.63 14.2201C111.63 16.7101 124.34 18.3501 141.17 31.8101C150.93 39.6001 159.82 54.6901 167.23 70.9001C167.99 72.5601 173.97 78.2201 179.23 79.7701C176.34 79.0401 174.75 79.7701 172.54 80.9001C173.32 82.9701 176.25 86.1501 180.82 89.4101C176.31 88.2601 175.34 90.1601 175.71 91.3401C180.007 105.221 183.036 119.462 184.76 133.89C184.76 133.89 164.7 159.99 120.44 165.54C73 171.51 53.75 149.08 53.75 149.08Z" fill="#CAA77A"/>
<g style="mix-blend-mode:multiply" opacity="0.23">
<path d="M33.9399 61.3601C35.6999 53.1201 44.5099 39.3601 48.9399 34.4201C41.6199 33.4201 38.8699 35.5201 38.8699 35.5201C42.5311 31.4021 47.1956 28.3016 52.4099 26.5201C51.4799 23.7301 38.6899 25.7801 38.6899 25.7801C38.6899 25.7801 49.3399 18.0501 59.1599 20.1601C53.4999 14.8601 44.3899 15.2101 44.3899 15.2101C44.3899 15.2101 64.8199 12.6801 73.2399 16.7001C67.9799 12.3501 70.2399 5.36014 71.7299 1.39014C75.9099 12.5401 85.7299 13.3901 85.7299 13.3901C85.7299 13.3901 83.4699 9.10014 87.3299 6.95014C87.9299 10.6101 94.9499 13.5001 98.6899 14.2201C111.69 16.7101 124.4 18.3501 141.24 31.8101C150.99 39.6001 159.88 54.6901 167.29 70.9001C168.06 72.5601 174.04 78.2201 179.29 79.7701C176.4 79.0401 174.81 79.7701 172.6 80.9001C173.39 82.9701 176.32 86.1501 180.89 89.4101C176.37 88.2601 175.43 90.1601 175.77 91.3401C179.771 105.186 182.914 119.267 185.18 133.5C185.18 133.5 185.92 137.38 172.69 143.57C161 16.4501 70.0499 10.9901 33.9399 61.3601Z" fill="#3F2719"/>
</g>
<path d="M35.1 73.5002C37.1 65.3502 45.41 55.7802 67.76 52.7202C80.71 50.9502 80.76 43.1802 80.76 43.1802C80.76 43.1802 87.07 52.7202 103.86 50.6802C122.37 45.0202 133.35 48.1502 143.21 66.2502C145.05 69.6202 155.79 100.83 143.33 121.3C140.586 125.803 136.795 129.577 132.28 132.3C112.21 144.55 68.7 148.49 48.79 123.02C39.51 111.09 31.41 88.7002 35.1 73.5002Z" fill="#FFDBAF"/>
<path d="M33.18 76.33C28.52 90.02 39.61 110.09 42.38 112.2C44.52 113.86 80 94.56 63.29 53.12C62.66 51.57 47.76 56.12 41.81 60.99C39.13 63.19 34.63 72.69 33.18 76.33Z" fill="#9D7B51"/>
<path d="M106.75 52.7202C84.28 105.15 143.16 117.86 148.08 108.66C152.4 100.59 150.99 80.6602 143.08 66.7602C142.31 65.4002 132.52 53.4402 131.08 53.6802C119.49 55.6502 110.2 52.8602 106.75 52.7202Z" fill="#9D7B51"/>
<path d="M104.25 50.6102C144 47.7302 149.76 79.8002 149.76 79.8002" stroke="#2D1F04" stroke-width="7.6" stroke-linecap="round" stroke-linejoin="round"/>
<path d="M63.29 53.1201C32.39 57.8401 29.29 84.0001 29.29 84.0001" stroke="#2D1F04" stroke-width="7.6" stroke-linecap="round" stroke-linejoin="round"/>
<path opacity="0.82" d="M39.13 83C44.3 86 49.97 91.39 63.29 83.41C64.42 89.23 61.06 100.02 51.48 99.74C40 99.41 37 86.59 39.13 83Z" fill="#B2B2B2"/>
<path d="M51.35 70.9302C52.8221 70.925 54.2808 71.2097 55.6429 71.7682C57.005 72.3267 58.2437 73.148 59.2884 74.1853C60.3331 75.2225 61.1632 76.4553 61.7314 77.8134C62.2996 79.1715 62.5947 80.6281 62.6 82.1002V82.8602C62.5128 85.7846 61.2898 88.5599 59.1905 90.5975C57.0911 92.6352 54.2806 93.7749 51.355 93.7749C48.4294 93.7749 45.6188 92.6352 43.5195 90.5975C41.4202 88.5599 40.1972 85.7846 40.11 82.8602V82.1302C40.11 80.6561 40.401 79.1964 40.9663 77.8349C41.5317 76.4735 42.3603 75.237 43.4045 74.1965C44.4488 73.1559 45.6882 72.3318 47.0516 71.7713C48.4151 71.2108 49.8758 70.925 51.35 70.9302Z" fill="white"/>
<path d="M124.82 69.65C126.295 69.6447 127.756 69.9308 129.121 70.492C130.485 71.0531 131.725 71.8781 132.769 72.9197C133.813 73.9613 134.642 75.199 135.206 76.5616C135.771 77.9242 136.061 79.385 136.06 80.86V81.59C136.06 84.571 134.876 87.4299 132.768 89.5379C130.66 91.6458 127.801 92.83 124.82 92.83C121.839 92.83 118.98 91.6458 116.872 89.5379C114.764 87.4299 113.58 84.571 113.58 81.59V80.86C113.579 79.385 113.869 77.9242 114.433 76.5616C114.998 75.199 115.827 73.9613 116.871 72.9197C117.915 71.8781 119.155 71.0531 120.519 70.492C121.883 69.9308 123.345 69.6447 124.82 69.65Z" fill="white"/>
<path d="M124.82 83.4501C126.074 83.4501 127.09 82.4338 127.09 81.1802C127.09 79.9265 126.074 78.9102 124.82 78.9102C123.566 78.9102 122.55 79.9265 122.55 81.1802C122.55 82.4338 123.566 83.4501 124.82 83.4501Z" fill="#2D1F04"/>
<path d="M51.35 87.8802C54.5643 87.8802 57.17 85.2745 57.17 82.0602C57.17 78.8459 54.5643 76.2402 51.35 76.2402C48.1357 76.2402 45.53 78.8459 45.53 82.0602C45.53 85.2745 48.1357 87.8802 51.35 87.8802Z" fill="#2D1F04"/>
<path d="M77.65 87.2303C70.92 83.8203 62.19 103.44 62.65 108.39C64.19 126.44 91.96 131.09 105.28 120.1C119.49 108.39 100.03 81.3303 88.35 86.1003" fill="#9D7B51"/>
<path d="M73 88.4502C72.87 85.8902 77.83 83.5602 84.08 83.2502C90.33 82.9402 95.49 84.7602 95.61 87.3202C95.73 89.8802 90.78 92.2102 84.53 92.5202C78.28 92.8302 73.12 91.0102 73 88.4502Z" fill="#251707"/>
<path d="M51.35 70.5303C52.8221 70.5251 54.2808 70.8098 55.6429 71.3683C57.005 71.9268 58.2437 72.7481 59.2884 73.7854C60.3331 74.8226 61.1632 76.0554 61.7314 77.4135C62.2996 78.7716 62.5947 80.2282 62.6 81.7003V82.4303C62.5128 85.3547 61.2898 88.13 59.1905 90.1676C57.0911 92.2053 54.2806 93.345 51.355 93.345C48.4294 93.345 45.6188 92.2053 43.5195 90.1676C41.4202 88.13 40.1972 85.3547 40.11 82.4303V81.7003C40.1139 80.2287 40.4078 78.7723 40.975 77.4143C41.5421 76.0563 42.3713 74.8233 43.4151 73.786C44.459 72.7486 45.6971 71.9271 47.0586 71.3685C48.4201 70.8099 49.8783 70.5251 51.35 70.5303V70.5303Z" stroke="#2D1F04" stroke-width="2.6" stroke-linecap="round" stroke-linejoin="round"/>
<path d="M124.82 69.65C126.295 69.6447 127.756 69.9308 129.121 70.492C130.485 71.0531 131.725 71.8781 132.769 72.9197C133.813 73.9613 134.642 75.199 135.206 76.5616C135.771 77.9242 136.061 79.385 136.06 80.86V81.59C136.06 84.571 134.876 87.4299 132.768 89.5379C130.66 91.6458 127.801 92.83 124.82 92.83C121.839 92.83 118.98 91.6458 116.872 89.5379C114.764 87.4299 113.58 84.571 113.58 81.59V80.86C113.579 79.385 113.869 77.9242 114.433 76.5616C114.998 75.199 115.827 73.9613 116.871 72.9197C117.915 71.8781 119.155 71.0531 120.519 70.492C121.883 69.9308 123.345 69.6447 124.82 69.65Z" stroke="#2D1F04" stroke-width="2.6" stroke-linecap="round" stroke-linejoin="round"/>
<path d="M83.59 90.8604C83.59 90.8604 81.5 101.43 83.59 103.63C85.68 105.83 94.87 105.95 100.59 101.21" stroke="#251707" stroke-width="2.62" stroke-linecap="round" stroke-linejoin="round"/>
<path d="M112.24 81.1802C116.43 87.5102 127.02 94.1802 137.37 82.1802C138.5 88.0002 134.37 96.9502 124.82 96.6802C113.32 96.3802 110.15 84.7702 112.24 81.1802Z" fill="#B2B2B2"/>
<path d="M53.75 149.08C52.87 134.55 44.75 119.95 39.11 109.89C37.0904 106.293 35.4419 102.501 34.19 98.5701C33.4367 96.2103 32.8322 93.8056 32.38 91.3701C28.53 70.8601 35.28 49.4301 48.91 34.4201C41.59 33.4201 38.84 35.5201 38.84 35.5201C42.5011 31.4021 47.1657 28.3016 52.38 26.5201C51.45 23.7301 38.65 25.7801 38.65 25.7801C38.65 25.7801 49.3 18.0501 59.13 20.1601C53.44 14.8601 44.34 15.2101 44.34 15.2101C44.34 15.2101 64.77 12.6801 73.19 16.7001C67.93 12.3501 70.13 5.36014 71.67 1.39014C75.86 12.5401 85.67 13.3901 85.67 13.3901C85.67 13.3901 83.41 9.10014 87.26 6.95014C87.87 10.6101 94.89 13.5001 98.63 14.2201C111.63 16.7101 124.34 18.3501 141.17 31.8101C150.93 39.6001 159.82 54.6901 167.23 70.9001C167.99 72.5601 173.97 78.2201 179.23 79.7701C176.34 79.0401 174.75 79.7701 172.54 80.9001C173.32 82.9701 176.25 86.1501 180.82 89.4101C176.31 88.2601 175.35 90.1601 175.71 91.3401C179.842 104.956 183.247 118.782 185.91 132.76" stroke="#2D1F04" stroke-width="2.62" stroke-linecap="round" stroke-linejoin="round"/>
<path d="M98.21 97.6104C98.21 97.6104 103.99 98.4804 103 105.11" stroke="#251707" stroke-width="2.62" stroke-linecap="round" stroke-linejoin="round"/>
<path d="M73.37 316.86C73.37 316.86 44.86 323.06 40.84 338H92.54C90.5742 333.33 88.2783 328.805 85.67 324.46C80.56 315.62 73.37 316.86 73.37 316.86Z" fill="#D2D2D2"/>
<g style="mix-blend-mode:multiply" opacity="0.23">
<path d="M73.73 316.34C73.73 316.34 45.22 322.53 41.2 337.48H92.8899C90.9229 332.803 88.6202 328.275 86 323.93C80.91 315.13 73.73 316.34 73.73 316.34Z" fill="#3F2719"/>
</g>
<path d="M150.47 319.96C150.47 319.96 132.97 323.96 126.97 337.15L171.97 337.6C171.97 337.6 173.79 333.89 168.91 325.5C163.76 316.7 150.47 319.96 150.47 319.96Z" fill="#D2D2D2"/>
<path d="M69.25 317.45C69.25 317.45 45.25 322.53 41.25 337.45H92.94" stroke="#2D1F04" stroke-width="2.62" stroke-linecap="round" stroke-linejoin="round"/>
<path d="M108.84 302.86C108.84 316.68 113.14 320.86 116.84 330.47C119.44 337.14 113.28 337.47 113.28 337.47H92.56C87.82 324.64 77.45 320.59 70.3 318.31C62.81 315.92 63.73 286.68 63.73 286.68" fill="#CAA77A"/>
<g style="mix-blend-mode:multiply" opacity="0.23">
<path d="M108.84 302.86C108.84 316.68 113.14 320.86 116.84 330.47C119.44 337.14 113.28 337.47 113.28 337.47H92.56C87.82 324.64 77.45 320.59 70.3 318.31C62.81 315.92 63.73 286.68 63.73 286.68" fill="#3F2719"/>
</g>
<path d="M108.84 302.86C108.84 316.68 113.14 320.86 116.84 330.47C119.44 337.14 113.28 337.47 113.28 337.47H92.56C87.82 324.64 77.05 320.01 69.9 317.72C62.4 315.33 63.78 285.17 63.78 285.17" stroke="#2D1F04" stroke-width="2.62" stroke-linecap="round" stroke-linejoin="round"/>
<path d="M81.3299 323.08C81.3299 323.08 53.7199 324.93 41.9399 337.15" stroke="#2D1F04" stroke-width="2.62" stroke-linecap="round" stroke-linejoin="round"/>
<path d="M43.54 251.27L47.08 267.61L49.08 264.03L51.51 277.53L54.23 274.74L62.69 284.86C62.69 284.86 82.93 302.26 103.83 302.02C117.61 304.02 135.43 301.72 143.41 300.33C143.41 306.89 147.08 315.51 150.31 319.43C163.85 320.93 172.8 337.49 172.8 337.49C172.8 337.49 192.54 337.49 199.65 337.03C201.299 336.194 202.683 334.916 203.65 333.34C196.86 316.16 185.15 293.81 194.8 268.64C198.478 258.548 200.001 247.797 199.27 237.08" fill="#CAA77A"/>
<g style="mix-blend-mode:multiply" opacity="0.23">
<path d="M62.69 284.86C62.69 284.86 107.21 310.73 155.13 285.19C156.68 288.57 154.62 298.38 154.62 298.38C154.62 298.38 92.54 314.77 62.69 284.86Z" fill="#3F2719"/>
</g>
<g style="mix-blend-mode:multiply" opacity="0.23">
<path d="M168.69 331.52C170.208 333.41 171.576 335.416 172.78 337.52C172.78 337.52 192.52 337.52 199.63 337.06C201.279 336.224 202.663 334.946 203.63 333.37C197.96 313.37 184.78 305.09 196.63 261.08C198.611 253.244 199.35 245.145 198.82 237.08L168 241.7C168 241.7 201.79 335.6 168.69 331.52Z" fill="#3F2719"/>
</g>
<path d="M44 254.79C44.8065 259.226 45.8378 263.619 47.09 267.95C47.45 266.02 47.71 266 48.89 264.78C48.69 266.83 50.78 276.01 51.89 278.1C52.09 276.16 52.74 275.74 54.24 274.74C65.79 294.65 98.43 310.88 152.92 298.63" stroke="#2D1F04" stroke-width="2.62" stroke-linecap="round" stroke-linejoin="round"/>
<path d="M35.51 244C35.51 244 -15.49 221.22 8.24996 189.8C27.25 178.23 18.03 196.2 41.37 199.24" fill="#CAA77A"/>
<g style="mix-blend-mode:multiply" opacity="0.23">
<path d="M34.86 244.05C34.86 244.05 3.99997 230.26 1.45997 209.35C0.729973 203.35 4.54997 217.59 15.61 210.94C34.61 199.5 17.38 196.24 40.72 199.28" fill="#3F2719"/>
</g>
<path d="M46.11 147.46C46.11 147.46 25.41 161.46 44.11 194.55C29.86 230.03 36.74 249.95 36.74 249.95C63.74 271.59 183.74 261.1 212.88 231.95C211.01 199.09 196.59 155.08 189.15 133.12C192.49 132.04 196.91 122.05 185.15 119.35C170.4 138.1 113.82 166.57 50.95 141.35C49.6022 141.728 48.4083 142.523 47.5391 143.62C46.6699 144.717 46.1697 146.061 46.11 147.46Z" fill="#FFDB1F"/>
<g style="mix-blend-mode:multiply" opacity="0.23">
<path d="M48.5 182.93C53.73 191.52 56.58 193 80.29 192.73C99.94 192.73 116.29 186.9 121.49 192.61C131.37 203.52 97.24 197.71 76.49 198.43C64.94 198.83 46.19 196.22 38.49 211.82C39.5 203.59 46.31 187.95 48.5 182.93Z" fill="#3F2719"/>
</g>
<g style="mix-blend-mode:multiply" opacity="0.23">
<path d="M175.08 252.27C181.36 249.18 209.08 236.27 212.81 232.56C210.94 199.7 196.51 155.69 189.08 133.73C192.41 132.66 196.83 122.67 185.08 119.96C182.49 123.26 164.46 137.38 156.72 139.66C204.2 134.13 184 217.5 175.08 252.27Z" fill="#3F2719"/>
</g>
<path d="M51 156.16C51 156.16 44.79 172.16 48.59 185.22C41.44 192.65 31.32 234.1 36.76 249.95C44.76 264.49 168.81 270.43 212.9 231.95C207.46 178.61 188.59 134.13 188.59 134.13" stroke="#2D1F04" stroke-width="2.62" stroke-linecap="round" stroke-linejoin="round"/>
<path d="M120.06 163.09C120.06 163.09 90.67 168.76 49.91 155.86C42.91 146.23 51 141.44 51 141.44C51 141.44 85.35 154.53 128.07 148.38C160.99 143.64 182.4 123.38 185.2 119.38C190.05 118.64 194.44 128.85 190.05 132.85C177.44 144.41 168.14 146.19 168.14 146.19" stroke="#2D1F04" stroke-width="2.62" stroke-linecap="round" stroke-linejoin="round"/>
<path d="M47.14 146.42C47.14 146.42 26.4 161.71 41.43 188.3" stroke="#2D1F04" stroke-width="2.62" stroke-linecap="round" stroke-linejoin="round"/>
<path d="M199.35 241.86C200.35 256.55 194.79 269.04 191.92 282.15C189 295.52 194.92 312.71 203.31 332.39C204.58 335.39 200.78 337.15 198.49 337.15H172.55C172.55 337.15 162.09 320.15 151.19 319.75C144.29 312.54 143.72 300.46 143.72 300.46" stroke="#2D1F04" stroke-width="2.62" stroke-linecap="round" stroke-linejoin="round"/>
<path d="M22.25 188.3C33.88 200.87 40.92 199.3 40.71 199.07" stroke="#2D1F04" stroke-width="2.62" stroke-linecap="round" stroke-linejoin="round"/>
<path d="M151.19 319.75C151.19 319.75 129.99 325.48 126.8 337.15H172.55" stroke="#2D1F04" stroke-width="2.62" stroke-linecap="round" stroke-linejoin="round"/>
<path d="M126.8 337.15C126.8 337.15 143.72 324.76 161.8 324.65" stroke="#2D1F04" stroke-width="2.62" stroke-linecap="round" stroke-linejoin="round"/>
<path d="M27 208.64C24.88 194.05 38.38 192.53 43.35 191.93C44.5 191.79 43.44 189.51 43.08 189.43C37.65 188.15 22.7 187.13 23.85 207.24C24.98 226.98 39.18 224.61 43.05 223.67C43.6 223.53 43.71 220.41 43.71 220.41C43.71 220.41 29 221.86 27 208.64Z" fill="#3178C6"/>
<path d="M45.37 190.12C45.37 190.12 21.83 184.24 23.12 206.78C24.41 229.32 44.54 222.78 44.54 222.78" stroke="#2D1F04" stroke-width="2.62" stroke-linecap="round" stroke-linejoin="round"/>
<path d="M50.48 192.86C50.48 192.86 27.24 188.09 27.93 206.32C28.7 226.68 49.56 219.32 49.64 219.25" stroke="#2D1F04" stroke-width="2.62" stroke-linecap="round" stroke-linejoin="round"/>
<path d="M41.37 182V228.4C41.37 228.4 47.98 235.5 63.5 235.59C79.02 235.68 85.63 227.93 85.63 227.93V181.37C78.5481 184.391 70.9192 185.92 63.22 185.86C49.46 185.86 41.37 182 41.37 182Z" fill="#3178C6"/>
<path d="M41.43 181.01C41.43 181.01 61.11 169.17 85.68 181.37C57.17 191.41 41.43 181.01 41.43 181.01Z" fill="#3178C6"/>
<g style="mix-blend-mode:multiply" opacity="0.23">
<path d="M42.46 181.01C42.46 181.01 62.14 169.17 86.72 181.37C58.2 191.41 42.46 181.01 42.46 181.01Z" fill="#3F2719"/>
</g>
<path d="M46.11 183.86C46.11 183.86 60.87 176.29 80.11 183.32C63.12 189.1 46.11 183.86 46.11 183.86Z" fill="#82603C"/>
<g style="mix-blend-mode:multiply" opacity="0.23">
<path d="M64.59 235.59C79.22 236 85.67 227.78 85.67 227.78V181.21C85.67 181.21 75.13 186.63 64.59 186.04V235.59Z" fill="#3F2719"/>
</g>
<path d="M41.43 182V228.4C41.43 228.4 48.03 235.5 63.56 235.59C79.09 235.68 85.68 227.93 85.68 227.93V181.37C78.6017 184.392 70.976 185.92 63.28 185.86C49.52 185.86 41.43 182 41.43 182Z" stroke="#2D1F04" stroke-width="2.62" stroke-linecap="round" stroke-linejoin="round"/>
<path d="M41.43 181.37C41.43 181.37 47.26 175.1 62.67 175.09C78.53 175.09 85.13 180.93 85.13 180.93" stroke="#2D1F04" stroke-width="2.62" stroke-linecap="round" stroke-linejoin="round"/>
<path d="M22.81 188.3C22.81 188.3 38 197.86 35.62 212.22C30 209.96 16 219.86 16 219.86C16 219.86 20.86 206.74 21.71 202.99C22.62 198.73 22.81 188.3 22.81 188.3Z" fill="#D2D2D2"/>
<path d="M14.89 220.86C14.89 220.86 28.62 192.48 21.07 186.97C20.6445 186.667 20.1713 186.437 19.67 186.29C5.42996 182.11 -7.48004 209.75 11.37 227.35C21.37 236.71 31.82 242.65 35.51 243.97" stroke="#2D1F04" stroke-width="2.62" stroke-linecap="round" stroke-linejoin="round"/>
<path d="M20.47 186.63C20.47 186.63 31.47 191.77 34.22 200.33C36.14 206.33 36.65 213.53 34.46 212.9C29.46 211.45 15.4 219.81 15.4 219.81" stroke="#2D1F04" stroke-width="2.62" stroke-linecap="round" stroke-linejoin="round"/>
<path d="M21.8199 202.62C30.0899 202.31 34.6099 210.94 34.6099 210.94" stroke="#2D1F04" stroke-width="2.62" stroke-linecap="round" stroke-linejoin="round"/>
<path d="M62 145.05C61.3536 147.258 61.4201 149.613 62.19 151.78" stroke="#2D1F04" stroke-width="2.62" stroke-linecap="round" stroke-linejoin="round"/>
<path d="M67.89 146.31C67.223 148.365 67.2902 150.589 68.08 152.6" stroke="#2D1F04" stroke-width="2.62" stroke-linecap="round" stroke-linejoin="round"/>
<path d="M97.2399 150.54C96.7064 152.552 96.8433 154.683 97.6299 156.61" stroke="#2D1F04" stroke-width="2.62" stroke-linecap="round" stroke-linejoin="round"/>
<path d="M124.12 149.22C123.785 151.29 124.017 153.411 124.79 155.36" stroke="#2D1F04" stroke-width="2.62" stroke-linecap="round" stroke-linejoin="round"/>
<path d="M129.37 148.4C129.036 150.345 129.272 152.346 130.05 154.16" stroke="#2D1F04" stroke-width="2.62" stroke-linecap="round" stroke-linejoin="round"/>
<path d="M134.77 147.29C134.435 149.244 134.668 151.254 135.44 153.08" stroke="#2D1F04" stroke-width="2.62" stroke-linecap="round" stroke-linejoin="round"/>
<path d="M69.25 273.51L69.9 278.42" stroke="#9D7B51" stroke-width="3.87" stroke-linecap="round" stroke-linejoin="round"/>
<path d="M75.35 276.15L75.99 281.06" stroke="#9D7B51" stroke-width="3.87" stroke-linecap="round" stroke-linejoin="round"/>
<path d="M81.76 278.42L82.4 283.33" stroke="#9D7B51" stroke-width="3.87" stroke-linecap="round" stroke-linejoin="round"/>
<path d="M183.21 309.08C183.21 309.08 194.93 316.7 210.62 298.37C210.37 309.68 197.05 321.27 197.05 321.27C197.05 321.27 185.33 317.91 183.21 309.08Z" fill="#D2D2D2"/>
<g style="mix-blend-mode:multiply" opacity="0.23">
<path d="M183.21 309.08C183.21 309.08 194.93 316.7 210.62 298.37C210.37 309.68 197.05 321.27 197.05 321.27C197.05 321.27 185.33 317.91 183.21 309.08Z" fill="#3F2719"/>
</g>
<path d="M210.62 298.37C210.62 298.37 201.16 315.57 190.37 316.48" stroke="#2D1F04" stroke-width="2.62" stroke-linecap="round" stroke-linejoin="round"/>
<path d="M183.21 309.08C183.21 309.08 194.93 316.7 210.62 298.37C210.37 309.68 197.05 321.27 197.05 321.27C197.05 321.27 185.33 317.91 183.21 309.08Z" stroke="#2D1F04" stroke-width="2.62" stroke-linecap="round" stroke-linejoin="round"/>
<path d="M138.85 197.63C138.85 197.63 124.26 343.29 196.2 321.76C155.36 302.58 185.74 203.49 185.74 203.49C185.74 203.49 186.26 193.91 163.2 190.88C139.42 187.75 138.85 197.63 138.85 197.63Z" fill="#CAA77A"/>
<path d="M134.25 193.45C133.75 189.45 132.62 131.28 172.72 135.81C205.86 139.56 193.59 195.43 191.22 202.03C182.9 204.24 190.39 200.03 161.69 196.23C139.34 193.31 139.18 201.27 134.25 193.45Z" fill="#FFDB1F"/>
<g style="mix-blend-mode:multiply" opacity="0.23">
<path d="M185.74 203.05C186.696 203.366 187.724 203.396 188.698 203.137C189.671 202.877 190.547 202.34 191.22 201.59C193.59 194.99 205.86 139.12 172.72 135.37C163.11 134.29 155.87 136.8 150.42 141.31C184.11 132.04 190.93 163.42 182.51 188.85C144.67 303.11 192.58 320.68 161 315.32C169.45 322.9 180.86 325.91 196.2 321.32C155.36 302.14 185.74 203.05 185.74 203.05Z" fill="#3F2719"/>
</g>
<path d="M138.85 197.63C138.85 197.63 124.26 343.29 196.2 321.76C155.36 302.58 185.74 203.49 185.74 203.49" stroke="#2D1F04" stroke-width="2.62" stroke-linecap="round" stroke-linejoin="round"/>
<path d="M138.85 197.55C138.85 197.55 134.55 196.64 134.06 192.68C133.57 188.72 132.43 130.52 172.53 135.05C205.67 138.79 193.4 194.66 191.03 201.27C190.458 202.109 189.651 202.761 188.709 203.142C187.768 203.522 186.735 203.616 185.74 203.41" stroke="#2D1F04" stroke-width="2.62" stroke-linecap="round" stroke-linejoin="round"/>
<path d="M133.93 188.39C133.93 188.39 154.09 183.65 174.24 189.39" stroke="#2D1F04" stroke-width="2.62" stroke-linecap="round" stroke-linejoin="round"/>
<path d="M149.48 187.75C149.243 189.137 149.243 190.553 149.48 191.94" stroke="#2D1F04" stroke-width="2.62" stroke-linecap="round" stroke-linejoin="round"/>
<path d="M164 187.99C163.445 189.507 163.184 191.116 163.23 192.73" stroke="#2D1F04" stroke-width="2.62" stroke-linecap="round" stroke-linejoin="round"/>
<path d="M169.64 188.24C168.9 189.887 168.502 191.666 168.47 193.47" stroke="#2D1F04" stroke-width="2.62" stroke-linecap="round" stroke-linejoin="round"/>
<path d="M168.95 223.74L168.3 228.65" stroke="#9D7B51" stroke-width="3.87" stroke-linecap="round" stroke-linejoin="round"/>
<path d="M163.2 225.29L162.56 230.21" stroke="#9D7B51" stroke-width="3.87" stroke-linecap="round" stroke-linejoin="round"/>
<path d="M102.47 178.75C105.92 178.75 109.1 178.75 112.11 178.75C114.61 178.75 115.23 180.17 115.11 181.62C115.046 182.61 114.675 183.555 114.047 184.322C113.419 185.09 112.567 185.642 111.61 185.9L111.13 186.05C113.63 187.33 113.9 190.05 115.43 192.34L110.24 192.46C109.4 190.97 108.57 189.46 107.86 187.94C107.711 187.484 107.389 187.103 106.962 186.881C106.536 186.659 106.04 186.612 105.58 186.75C105.41 188.69 105.41 190.641 105.58 192.58L100.99 192.7C100.491 187.998 100.996 183.243 102.47 178.75ZM106.47 181.27C106.27 182.13 106.1 182.98 105.93 184.03C106.934 184.054 107.937 183.991 108.93 183.84C109.292 183.819 109.636 183.681 109.912 183.446C110.188 183.212 110.38 182.894 110.46 182.54C110.6 181.85 110.23 181.35 109.35 181.25C108.4 181.203 107.449 181.21 106.5 181.27H106.47Z" fill="#2D1F04"/>
<path d="M129.11 182.05L124.7 182.34C124.696 182.106 124.646 181.874 124.552 181.659C124.458 181.444 124.323 181.249 124.154 181.087C123.985 180.924 123.785 180.797 123.567 180.711C123.348 180.626 123.115 180.585 122.88 180.59H122.7C122.327 180.543 121.949 180.614 121.618 180.793C121.288 180.973 121.023 181.252 120.86 181.59C120.86 182.25 121.28 182.46 121.86 182.59C122.86 182.83 123.97 183.04 125.04 183.31C125.628 183.461 126.206 183.648 126.77 183.87C130.35 185.32 129.71 189.17 126.97 191.02C126.042 191.641 125.003 192.076 123.91 192.3C122.257 192.641 120.549 192.61 118.91 192.21C117.866 191.983 116.941 191.382 116.309 190.52C115.677 189.658 115.382 188.595 115.48 187.53L119.68 187.23C119.76 187.51 119.82 187.76 119.89 188.01C119.998 188.317 120.165 188.6 120.382 188.843C120.599 189.085 120.862 189.282 121.156 189.422C121.45 189.563 121.768 189.643 122.093 189.66C122.418 189.677 122.743 189.63 123.05 189.52L123.26 189.44C123.565 189.353 123.839 189.181 124.05 188.943C124.261 188.706 124.399 188.414 124.45 188.1C124.46 187.834 124.381 187.573 124.225 187.357C124.07 187.141 123.846 186.984 123.59 186.91C123.098 186.735 122.597 186.585 122.09 186.46C121.09 186.17 119.97 185.96 118.99 185.59C117.1 184.86 116.29 183.59 116.61 182.02C116.858 181.121 117.353 180.309 118.039 179.677C118.725 179.044 119.574 178.616 120.49 178.44C122.367 177.901 124.352 177.86 126.25 178.32C127.112 178.461 127.888 178.925 128.419 179.618C128.951 180.312 129.198 181.181 129.11 182.05Z" fill="#2D1F04"/>
</g>
<defs>
<clipPath id="clip0_202_2090">
<rect width="215" height="339" fill="white"/>
</clipPath>
</defs>
</svg>
