<svg width="231" height="322" viewBox="0 0 231 322" fill="none" xmlns="http://www.w3.org/2000/svg">
<g clip-path="url(#clip0_202_1913)">
<path d="M54.9 143.9C52.8 142.4 -2.10001 256 67.7 309.3C82.1 313.5 78.4 307.6 91.1 308.4C93.4 308.5 106.9 309.6 104.7 306.1C101.5 301.1 96.1 307.8 91.3 304.5C79.8 296.6 70.6 276.3 69.3 262C68.1 249 70.4 234.5 76.3 222.6C79.8 215.5 84.6 204.6 83.8 196.5C82.3 181.6 72.7 163.1 64.6 150.9C62.3 147.3 58.3 146.2 54.9 143.9Z" fill="#CAA77A"/>
<path d="M54.9 143.9C52.8 142.4 -2.10001 256 67.7 309.3C82.1 313.5 78.4 307.6 91.1 308.4C93.4 308.5 106.9 309.6 104.7 306.1C101.5 301.1 96.1 307.8 91.3 304.5C79.8 296.6 70.6 276.3 69.3 262C68.1 249 70.4 234.5 76.3 222.6C79.8 215.5 84.6 204.6 83.8 196.5C82.3 181.6 72.7 163.1 64.6 150.9C62.3 147.3 58.3 146.2 54.9 143.9Z" stroke="#251707" stroke-width="2.6" stroke-miterlimit="10" stroke-linecap="round" stroke-linejoin="round"/>
<path opacity="0.23" d="M54.9 143.9C52.8 142.4 -2.10001 256 67.7 309.3C82.1 313.5 78.4 307.6 91.1 308.4C93.4 308.5 106.9 309.6 104.7 306.1C101.5 301.1 96.1 307.8 91.3 304.5C79.8 296.6 70.6 276.3 69.3 262C68.1 249 70.4 234.5 76.3 222.6C79.8 215.5 84.6 204.6 83.8 196.5C82.3 181.6 72.7 163.1 64.6 150.9C62.3 147.3 58.3 146.2 54.9 143.9Z" fill="#3F2719"/>
<path d="M55.7 139.7C40.2 148.2 33.4 183.5 35 185.6C36 186.9 59.9 193.4 62.3 193.1C67.9 192.3 66.3 190.2 67.2 186.1C69.7 174.9 70.3 164.1 66 153.4C64.7 150.2 62.5 145.4 58.8 144.7C56.8 144.3 68.8 132.5 55.7 139.7Z" fill="#FFDB1F"/>
<path d="M55.7 139.7C40.2 148.2 33.4 183.5 35 185.6C36 186.9 59.9 193.4 62.3 193.1C67.9 192.3 66.3 190.2 67.2 186.1C69.7 174.9 70.3 164.1 66 153.4C64.7 150.2 62.5 145.4 58.8 144.7C56.8 144.3 68.8 132.5 55.7 139.7Z" stroke="#251707" stroke-width="2.6" stroke-miterlimit="10" stroke-linecap="round" stroke-linejoin="round"/>
<path d="M175.9 300.7C168.5 303.7 161.2 302.7 154.7 308.2C153.6 309.1 150 312.3 150.5 313.9C151.3 316.6 157.2 315.9 159.3 316C167.4 316.2 175.8 317.2 183.9 317.4C185.4 317.4 193 318.3 193.3 316.2C193.9 311 183.1 307.2 180.6 304.5" fill="#B6B1AE"/>
<path d="M88.9 299.2C80.6 299 71.3 302.7 64.8 307.7C64.2 308.2 59.1 313 59.6 313.7C60.9 315.6 67.3 314.2 69.2 314.4C77.3 315.3 86 313.8 94.2 314C95.6 314 101 315 101.8 313.4C103 311.1 96.5 307.1 95.3 306.4" fill="#B6B1AE"/>
<path d="M26.8 31.1C24.4 31.1 18.2 43.2001 16.8 45.7001C6.4 63.9001 10.2 85.2 18.5 103.5C20.6 108.2 48.3 132.8 47.6 131.2C47.4 130.7 59.1 155.4 63.4 156.5C80 160.6 73.7 154 90.3 154C94.5 154 105.6 149.2 109 145.7C111.9 142.8 112.8 139 115.2 135.7C118.4 131.2 125.8 125.8 131 123.8C136.3 121.7 143 123 148.2 124.3C149.5 124.6 153.6 126.3 154.9 125C157.1 122.8 158.1 116.5 157.5 113.8C156 106.5 164 113.4 162.6 106.4C161.6 101.6 174.5 93.4 171.9 89.2C140.8 39.6 135.3 41.3 119.5 29.9001C115.6 27.0001 107.3 22.1 102.8 19.8C98.4 17.6 93.6 17.7 89.2 15.5C83.5 12.6 77.2 8.90005 71.1 7.40005C69.5 7.00005 71.7 9.70005 71.6 10C71.4 10.4 67.6 10.3001 67.1 10.2001C62 9.20005 56.7 9.30005 51.8 7.10005C51 6.70005 48 3.70005 47 4.00005C44.1 5.00005 48.4 13.1 48.4 13.1C48.4 13.1 48 12.4001 47.7 12.1C46.3 11.0001 43.1 10.1 41.3 9.70005C37.4 8.90005 35.8 11.4001 32.5 12.1C32.1 12.2001 28.2 13.2 28.2 13.3C28.2 14.1 34.4 15.1 34.4 15.9C34.4 16.6 33 16.3 32.7 16.4C30.9 16.7 20.5 21 21.2 23.3C21.5 24.3 27 24.3 28.1 25C28.4 25.2001 29.1 25.2001 29.1 25.2001C29.1 25.2001 24.8 25.9001 22.7 26.4001C19.8 27.0001 14.4 33 19.1 33" fill="#CAA77A"/>
<path d="M221.2 242.1C222 248.4 219.5 298.9 216.7 304.6C213.8 310.5 211.4 313.4 211 315.7C210.8 317.1 198.2 318.4 195 317.1C195 317.1 187.6 307.9 185.2 306.1C183.2 304.6 184.7 304.3 180 302.3C177.1 301.1 173.5 301.1 170.8 298.3C168.2 295.7 170.3 288.9 167.5 287C164.7 285.2 159.1 287.5 150.2 289.4C141.3 291.3 134.7 290.9 126.1 288.7C124.6 288.3 124.8 291.2 125.6 294.5C126.4 298.2 127.9 302.4 128.5 303.2C128.9 303.9 133.1 308.7 132 309.8C129.8 312.1 113.5 314.3 110.8 314.3C107.7 314.3 104.9 313 102 313.5C101.3 313.6 99.9 313.5 99.9 313.5C99.9 313.5 101.5 314.2 101.3 313.7C101 312.8 99.1 311.2 98.5 310.4C96.2 307.3 92.4 302.9 89.7 300.3C87.5 298.1 86.8 296 85.3 293.1C83.2 288.9 81.8 283.7 80.6 279C80.3 277.9 81 274 80 273.3C73.6 268.4 73 264.7 69.4 264.1C65.7 263.5 64 257 63.4 254.2C62 247.2 60.7 264.2 60.7 256.9C60.7 255.7 56.7 243.9 57.5 243.4C59 242.3 60.1 242.5 61.8 242.5C67.8 242.5 72.7 242.1 78.7 243.7C82.6 244.8 85.8 247.3 90 247.7C96.4 248.3 102.8 246.7 109.2 247.2C115.4 247.7 120.6 248.7 125.8 247.7C127 247.5 133.7 254.5 134.4 253.8C135.3 252.9 132.7 240.8 134.7 240.3C138.2 239.4 141 242.9 144.3 243.5C152.4 245.1 159 233.8 158.6 229.6C158.2 225.4 172.7 225.7 174 222.5C175.4 219 178.1 226.4 179.5 222.7C181.2 218.1 179.2 211.3 178.2 206.6C177.6 203.6 174.9 195.6 176.4 192.5C179.1 187.2 196 178.6 201.7 177.3C206.9 176.1 212.8 175 218.1 176.4C224.6 178 215.7 185.9 217.7 199.2C218.5 204.6 221.8 225.7 221.6 241.8" fill="#CAA77A"/>
<path d="M15.4 68.1999C17.4 60.0999 22.9 54.2999 26.7 51.9999C30.5 49.6999 35.3 49.0999 41.8 44.6999C45.4 42.2999 43.3 37.3999 43.3 37.3999C44.6 37.7999 56.5 42.1999 67.2 40.4999C94 36.2999 115 42.8999 125 60.9999C127.2 65.0999 130.7 74.3999 128.3 84.7999C124.9 99.8999 124.7 110.2 108.3 121.5C88.8 135 52.4 136.4 28.6 111.2C18.2 99.9999 11.7 83.3999 15.4 68.1999Z" fill="#FFDBAF"/>
<path d="M54.5 85.6C47.7 82.2 36.6 96.1 40.9 108.7C46.8 125.9 78.1 130.3 90.1 120.6C97.4 114.7 99 108.7 91.1 97.7C85.9 90.5 71.9 81.8 66.1 84.1" fill="#9D7B51"/>
<path d="M15.4 68.1999C11.7 74.8999 16.3 93.8999 20.3 99.0999C61.5 94.1999 46.8 53.5999 44.6 51.4999C43.4 50.2999 27.5 65.1999 25.1 65.5999C21.7 66.3999 16.9 65.4999 15.4 68.1999Z" fill="#9D7B51"/>
<path d="M75.5 53.7997C69 101.1 118.9 102.6 124.4 101C126.5 95.8997 133.2 75.1997 125.8 59.6997C125.1 58.2997 115.1 62.8997 113.7 63.1997C101.9 65.1997 76.1 49.1997 75.5 53.7997Z" fill="#9D7B51"/>
<path d="M109.2 193.4V199.1" stroke="#9D7B51" stroke-width="3.87" stroke-miterlimit="10" stroke-linecap="round" stroke-linejoin="round"/>
<path d="M194.6 237.7L194.5 243.4" stroke="#9D7B51" stroke-width="3.87" stroke-miterlimit="10" stroke-linecap="round" stroke-linejoin="round"/>
<path d="M200.7 234.5V240.1" stroke="#9D7B51" stroke-width="3.87" stroke-miterlimit="10" stroke-linecap="round" stroke-linejoin="round"/>
<path opacity="0.23" d="M14.5 32.8C18.5 32.8 22 31.7 25.9 30.8C27 30.5 29.2 29.3 29.2 30.5C29.2 30.7 28.7 30.7 28.5 30.8C25.1 32.8 22.4 35.7 20.5 39.2C19.8 40.4 18 43.7 18.5 42.9C33.8 15.2 132 -5.90004 151.5 120.2C151.7 121.2 137.5 120 138.5 120.3C140.5 121 141.8 141.5 144.3 142.4C145.4 142.8 155.4 124.9 156.3 124.3C157.7 123.3 181.7 119.1 174.9 97.5C163.5 61.6 118.9 27.6 115.1 25.5C100.7 17.5 71.2 8.59996 70.5 8.39996C70.4 8.39996 67.8 9.99996 66.5 9.69996C61.7 8.89996 56.3 7.09996 51.4 5.69996C50.6 5.49996 46.2 1.99996 46 2.29996C45.5 3.39996 45.1 9.49996 45.7 10.3C46.1 10.9 48.5 9.99996 47.7 9.99996C41.5 9.99996 33.6 12 26.9 13.3C26.7 13.3 26.2 13.4 26.2 13.6C26.2 15.5 34.9 14.3 34.9 15.6C34.9 16.6 22.8 20 21.2 21.3C20.7 21.7 18.7 23.2 19.2 23.6C20.8 25.2 24.8 23.2 26.9 24.3" fill="#3F2719"/>
<path opacity="0.23" d="M82.5 275.6C80.9 274.1 80.3 282.4 80.4 283.1C80.9 289.5 83.7 294.9 87.6 300C87.7 300.2 86.8 298.5 86.7 298.7C86.5 299.4 82.3 301.2 81.5 301.3C79.1 301.8 57 310.1 60.1 314.7C60.2 314.8 83 314.4 84.9 314.4C97.3 314.4 107 314.4 119.4 314.4C121.2 314.4 130.2 311.8 131.2 310.3C132.6 308.2 128.1 300.8 127.4 299C127 298 125.2 289.1 125 289C121.1 286.4 112.4 287.4 108 286.3C100.7 284.5 87.9 280.8 82.5 275.6Z" fill="#3F2719"/>
<path opacity="0.23" d="M173.4 284.2C172.4 283.1 185.1 273.9 181.9 274.9C103.9 299.9 72.3 264.5 71.5 265.7C71.2 266.1 75.8 269.7 76.1 270.1C81.1 275.6 85.9 278.4 92.6 281.8C129 300 174.7 285.6 173.4 284.2Z" fill="#3F2719"/>
<path d="M26.8 30.5C26.7 31.3 -11.5 77 32 118.1C34.9 120.8 46.9 131.9 48.1 133.7C48.7 134.6 48.9 136.5 49.7 137.1C50.1 137.4 50.3 135.7 50.5 136C51.6 137.7 52.4 139.8 53 141.6C53.2 142.3 53.4 144.4 53.6 143.7C53.7 143.5 53.4 141.8 54.2 141.7C54.6 141.6 58.5 150.7 58.8 151.7" stroke="#2D1F04" stroke-width="2.62" stroke-miterlimit="10" stroke-linecap="round" stroke-linejoin="round"/>
<path d="M26.9 30.4997C24.7 31.5997 13.2 34.6997 13.2 34.2997C13.2 32.7997 25.2 26.0997 27.5 25.3997C27.8 25.2997 28.4 25.2997 28.5 24.9997C28.7 24.4997 27.6 24.4997 27.1 24.3997C24.8 23.7997 19.4 25.5997 17.6 24.1997C17.1 23.7997 21.1 21.3997 21.4 21.1997C23.9 19.7997 26.4 17.9997 29.1 17.1997C30.7 16.6997 34.1 17.8997 34.1 16.1997C34.1 14.1997 25.1 14.8997 24.4 14.1997C24.3 14.0997 24.7 14.0997 24.8 13.9997C26.8 12.9997 29.1 12.0997 31.3 11.5997C35.4 10.5997 42.7 9.69972 46.8 10.9997" stroke="#2D1F04" stroke-width="2.62" stroke-miterlimit="10" stroke-linecap="round" stroke-linejoin="round"/>
<path d="M47.3 12.0999C46.1 9.79989 44 5.89989 45.1 3.19989C45.2 3.09989 46.1 2.09989 46.3 2.19989C47.1 2.59989 47.7 3.99989 48.7 4.59989C52.6 6.69989 57 8.19989 61.4 9.19989C64 9.79989 66.6 9.99989 69.1 10.5999C69.7 10.6999 70.9 10.7999 70.9 10.7999C70.9 10.7999 67.4 7.69989 68.7 6.99989C68.9 6.89989 78.9 10.5999 79.8 10.9999C86.9 13.7999 94.1 15.3999 100.9 18.6999" stroke="#2D1F04" stroke-width="2.62" stroke-miterlimit="10" stroke-linecap="round" stroke-linejoin="round"/>
<path d="M57.3 242.8C57.2 249.7 60.8 256.7 60.8 256.7C60.8 256.7 62.3 252.2 63 253.4C63.8 254.8 67.1 267.1 69.3 266.4C69.4 266.4 69.3 263.1 69.5 263.3C70.3 263.7 74.7 269.6 76.2 270.7C81.6 274.8 88 278.2 94.2 280.9C117.3 291 151.6 295 174.6 283.5" stroke="#2D1F04" stroke-width="2.62" stroke-miterlimit="10" stroke-linecap="round" stroke-linejoin="round"/>
<path d="M80.3 273.8C78.1 280.5 83.3 294.8 88.6 299.9" stroke="#2D1F04" stroke-width="2.62" stroke-miterlimit="10" stroke-linecap="round" stroke-linejoin="round"/>
<path d="M125.2 289.9C125.4 294.6 127.3 304.7 131.1 308.5" stroke="#2D1F04" stroke-width="2.62" stroke-miterlimit="10" stroke-linecap="round" stroke-linejoin="round"/>
<path d="M87.8 299.6C75.6 299.2 61.7 310.6 60.8 311.6" stroke="#2D1F04" stroke-width="2.62" stroke-miterlimit="10" stroke-linecap="round" stroke-linejoin="round"/>
<path d="M99.7 314.4C104.7 314.4 110.9 314 116 313.9C119 313.8 132.5 313.4 131.7 309.2" stroke="#2D1F04" stroke-width="2.62" stroke-miterlimit="10" stroke-linecap="round" stroke-linejoin="round"/>
<path d="M169 285.9C167.2 289.4 170 298.8 176.1 300.8" stroke="#2D1F04" stroke-width="2.62" stroke-miterlimit="10" stroke-linecap="round" stroke-linejoin="round"/>
<path d="M217.8 194.3C225.4 265.5 217.7 314 210.5 315.9" stroke="#2D1F04" stroke-width="2.62" stroke-miterlimit="10" stroke-linecap="round" stroke-linejoin="round"/>
<path d="M175.4 300.4C158.2 303.4 151.6 309.4 147.5 314.5" stroke="#2D1F04" stroke-width="2.62" stroke-miterlimit="10" stroke-linecap="round" stroke-linejoin="round"/>
<path d="M147.7 314.8C149.5 316.3 209.3 317.8 210.9 315.8" stroke="#2D1F04" stroke-width="2.62" stroke-miterlimit="10" stroke-linecap="round" stroke-linejoin="round"/>
<path d="M89.6 14C125.7 26 154.1 57.2 172.4 89.1" stroke="#2D1F04" stroke-width="2.62" stroke-miterlimit="10" stroke-linecap="round" stroke-linejoin="round"/>
<path d="M89.1 300C94.2 303.4 98.4 307.4 101.1 312.8" stroke="#2D1F04" stroke-width="2.62" stroke-miterlimit="10" stroke-linecap="round" stroke-linejoin="round"/>
<path d="M176.1 300.6C183.8 303.7 190.4 309.4 194.1 316.7" stroke="#2D1F04" stroke-width="2.62" stroke-miterlimit="10" stroke-linecap="round" stroke-linejoin="round"/>
<path d="M59.5 314.8C64.3 315.9 103.9 313.9 106.2 314.3L59.5 314.8Z" fill="black"/>
<path d="M59.5 314.8C64.3 315.9 103.9 313.9 106.2 314.3" stroke="#2D1F04" stroke-width="2.62" stroke-miterlimit="10" stroke-linejoin="round"/>
<path d="M61.1 311.2L60.6 311.5L59.6 312.8L59.2 313.9L59.5 314.8" fill="black"/>
<path d="M61.1 311.2L60.6 311.5L59.6 312.8L59.2 313.9L59.5 314.8" stroke="#2D1F04" stroke-width="2.62" stroke-miterlimit="10" stroke-linejoin="round"/>
<path d="M59.9 314.7C64.6 310.8 85.7 303 93.6 304.3" stroke="#2D1F04" stroke-width="2.62" stroke-miterlimit="10" stroke-linecap="round" stroke-linejoin="round"/>
<path d="M149.4 314.6C156.7 310.9 165.6 308.3 174.4 307.2C178.2 306.7 182 306.6 185.7 306.7" stroke="#2D1F04" stroke-width="2.62" stroke-miterlimit="10" stroke-linecap="round" stroke-linejoin="round"/>
<path d="M69.9 46.3999C87.9 69.3999 128.5 62.0999 128.5 62.0999" stroke="#2D1F04" stroke-width="7.6" stroke-miterlimit="10" stroke-linecap="round" stroke-linejoin="round"/>
<path d="M45.9 47C29.9 68 4.1 64.9 4.1 64.9" stroke="#2D1F04" stroke-width="7.6" stroke-miterlimit="10" stroke-linecap="round" stroke-linejoin="round"/>
<path d="M46.8 84.9997C46.7 82.3997 51.7 80.0997 58 79.7997C64.3 79.4997 69.6 81.2997 69.7 83.8997C69.8 86.4997 64.8 88.7997 58.5 89.0997C52.1 89.3997 46.9 87.4997 46.8 84.9997Z" fill="#251707"/>
<path d="M103.1 64.9C103.3 64.8 103.5 64.6 103.7 64.5" stroke="#2D1F04" stroke-width="3.05" stroke-miterlimit="10" stroke-linecap="round" stroke-linejoin="round"/>
<path d="M97.3 69.2997C97 69.2997 96.7 69.1997 96.4 69.1997L97.3 69.2997Z" fill="#2D1F04"/>
<path d="M58.1 153.1C59.2 152.4 55.1 154.4 55.9 157.8C57.5 164.2 57.1 172 58.9 178.6C59.3 180 61.4 184.9 61.1 186.1C60.6 188.1 57.5 190.6 56.6 192.9C53.8 199.8 50.7 208.5 49.8 215.8C49.3 219.7 50.4 224.3 49.4 228.2C48.7 231.1 47 237.8 49.8 239.7C51.4 240.8 52 239.5 53.6 239.9C55.7 240.4 58 244.3 60.6 244.9C68.6 246.9 88.9 253.7 96.8 248.5C98.5 247.4 99.2 242.4 97.2 242.4C95.4 242.4 95.9 246.5 97.2 247.8C98.1 248.7 103.6 248.6 104.9 248.3C111.4 247 118.6 245.8 125.3 245.3C128.5 245 132 246.4 135.2 245.3C144.8 242.1 154.5 239.6 164.1 235.8C169.6 233.6 174 229.2 179.2 226.3C193.7 218.2 205.4 207.2 214.5 193.5C218.9 186.9 227.5 180.5 229.2 172.2C230.5 165.6 221.5 157.5 217.9 152.7C208.9 140.7 201.9 127.2 192.8 115C190.4 111.9 186.6 108.1 185.6 104.1C185 101.9 174.7 83.5001 171.3 85.8001C170.5 86.3001 174.2 90.8001 173.1 91.4001C169.2 93.3001 165.5 100.3 161.8 104C160.2 105.6 157.4 105.9 155.5 107.4C151.8 110.3 147.8 116.1 142.9 117.3C140.6 117.9 138.7 116.1 136.4 116.4C132.7 116.9 123.1 119.4 120.4 122.1C116.9 125.6 111.4 131 108.7 135C106.8 137.9 105.9 141.9 103.3 144.5C96 151.8 81.7 148.4 72.6 152C68.1 153.8 62.4 151.4 57.9 152.5C57 152.7 55 155 58.1 153.1Z" fill="#FFDB1F"/>
<path d="M58 154C59.1 153.3 55 155.3 55.8 158.7C57.4 165.1 57 172.9 58.8 179.5C59.2 180.9 61.3 185.8 61 187C60.5 189 57.4 191.5 56.5 193.8C53.7 200.7 50.6 209.4 49.7 216.7C49.2 220.6 50.3 225.2 49.3 229.1C48.6 232 46.9 238.7 49.7 240.6C51.3 241.7 52.3 242.6 53.8 243C55.9 243.5 57.8 245.2 60.4 245.8C68.4 247.8 88.7 254.6 96.6 249.4C98.3 248.3 99 243.3 97 243.3C95.2 243.3 95.7 247.4 97 248.7C97.9 249.6 103.4 249.5 104.7 249.2C111.2 247.9 118.4 246.7 125.1 246.2C128.3 245.9 131.8 247.3 135 246.2C144.6 243 154.3 240.5 163.9 236.7C169.4 234.5 173.8 230.1 179 227.2C193.5 219.1 206.3 210 215.4 196.3C219.8 189.7 227.4 181.4 229 173.1C230.3 166.5 221.3 158.4 217.7 153.6C208.7 141.6 201.7 128.1 192.6 115.9C190.2 112.8 186.4 109 185.4 105C184.8 102.8 177.9 86.3 171.1 86.7C170.2 86.8 173.1 91.1 172 91.7C168.1 93.6 165.3 101.2 161.6 104.8C160 106.4 157.2 106.7 155.3 108.2C151.6 111.1 147.6 116.9 142.7 118.1C140.4 118.7 138.5 116.9 136.2 117.2C132.5 117.7 122.9 120.2 120.2 122.9C116.7 126.4 111.2 131.8 108.5 135.8C106.6 138.7 105.7 142.7 103.1 145.3C95.8 152.6 81.5 149.2 72.4 152.8C67.9 154.6 62.2 152.2 57.7 153.3C57 153.5 54.9 155.9 58 154Z" fill="#FFDB1F"/>
<path d="M56.2 94.7998C51.6 102.7 44.2 96.2998 43.9 96.0998C37.6 113.9 55 120.6 63.8 122C72.9 123.5 82.6 118.7 88.6 111.2C91.9 107 89.6 99.4998 84.7 96.1998C84.4 95.9998 79.5 100.4 78 100.9C70.8 103.3 58.6 101.6 56.2 94.7998Z" fill="#251707"/>
<path d="M149 189.3C150 190.4 148.9 188.7 146.6 199.6C143 216.5 139 243 144.7 273.2C147.4 287.2 154.2 293.8 161.7 305.2C164.4 309.2 169.3 311.2 174.3 312.3C176 312.7 183 314.6 181.5 315.3C173.4 319.3 165.1 322 156.4 320.3C152.1 319.4 146.9 319 142.5 318.1C137.8 317.2 132.3 313 128.5 310.3C124.5 307.5 122 305.2 118.8 301.5C109 290.3 107.4 277.6 103.4 264C101.7 258.2 100.5 256.1 99.5 246C98.5 235.9 96.8 216.9 96.8 216.9C96.8 216.9 97 200.6 98.3 194.1C99.3 188.9 95.8 181.3 100.2 178.2C108 172.9 135.9 174.1 149 189.3Z" fill="#CAA77A"/>
<path opacity="0.23" d="M32.1 70.7998C30.3 63.7998 17.5 64.7998 17.5 74.1998C17.5 85.6998 33.4 91.0998 33.2 91.1998C33 91.2998 48.7 83.2998 48.5 73.2998C48.4 65.3998 36.4 61.2998 33.8 70.7998C33.6 71.4998 33.7 72.8998 33.3 73.4998C32.8 74.0998 32.1 70.7998 32.1 70.7998Z" fill="#3F2719"/>
<path opacity="0.23" d="M98.4 68.3001C96.5 60.9001 83.4 62.0001 83.5 71.8001C83.5 84.0001 99.8 89.7001 99.6 89.7001C99.4 89.7001 115.5 81.4001 115.3 70.8001C115.2 62.5001 102.9 58.1001 100.2 68.2001C100 68.9001 100.1 70.4001 99.6 71.0001C99.1 71.8001 98.4 68.3001 98.4 68.3001Z" fill="#3F2719"/>
<path d="M154.7 122.9C129.3 104 108.6 130.7 102.1 147C99.9 152.5 96.4 167.2 95.7 173.1C95.3 176.4 95.1 179.3 100.8 178.1" stroke="#2D1F04" stroke-width="2.62" stroke-miterlimit="10" stroke-linecap="round" stroke-linejoin="round"/>
<path d="M95.9 172.4C99.3 168.7 126.6 160.3 147.7 178.3" stroke="#2D1F04" stroke-width="2.62" stroke-miterlimit="10" stroke-linecap="round" stroke-linejoin="round"/>
<path d="M149.6 189.3C150.3 189.4 152.5 190.1 154.8 188.1C159 184.3 162.3 151.8 162.1 144.6" stroke="#2D1F04" stroke-width="2.62" stroke-miterlimit="10" stroke-linecap="round" stroke-linejoin="round"/>
<path d="M143.4 116.5C148.9 113.7 168.9 96.2001 172.2 89.6001" stroke="#2D1F04" stroke-width="2.62" stroke-miterlimit="10" stroke-linecap="round" stroke-linejoin="round"/>
<path d="M59.2 152.1C54.8 152.6 55.4 157.1 56.8 160.1" stroke="#2D1F04" stroke-width="2.62" stroke-miterlimit="10" stroke-linecap="round" stroke-linejoin="round"/>
<path d="M57.1 160.4C58.4 170.9 58.8 182.5 62.6 192.5" stroke="#2D1F04" stroke-width="2.62" stroke-miterlimit="10" stroke-linecap="round" stroke-linejoin="round"/>
<path d="M60.5 185.7C57.4 189.6 54.7 196.7 53.6 200C51.1 207.4 50 215.1 49.6 222.9C49.5 224.7 49.5 226.5 49.4 228.3C49.3 229.3 49.6 240.8 50.8 240.2" stroke="#2D1F04" stroke-width="2.62" stroke-miterlimit="10" stroke-linecap="round" stroke-linejoin="round"/>
<path d="M51.2 239.8C55 245.2 76.6 253 99 249" stroke="#2D1F04" stroke-width="2.62" stroke-miterlimit="10" stroke-linecap="round" stroke-linejoin="round"/>
<path d="M229.6 171.4C219.6 197.2 190.7 229.1 142.5 243.9" stroke="#2D1F04" stroke-width="2.62" stroke-miterlimit="10" stroke-linecap="round" stroke-linejoin="round"/>
<path d="M171.4 85.9001C171.4 85.7001 179 84.2001 180.1 94.0001C180.6 98.9001 224.6 157.3 229.5 171" stroke="#2D1F04" stroke-width="2.62" stroke-miterlimit="10" stroke-linecap="round" stroke-linejoin="round"/>
<path d="M60 152.1C69.7 154.5 94.1 150 102.8 144.7" stroke="#2D1F04" stroke-width="2.62" stroke-miterlimit="10" stroke-linecap="round" stroke-linejoin="round"/>
<path d="M57.1 160.3C61.5 161.5 69 161.7 76.1 161.1C82.6 160.6 88.7 159.4 91.6 157.9" stroke="#2D1F04" stroke-width="2.62" stroke-miterlimit="10" stroke-linecap="round" stroke-linejoin="round"/>
<path d="M179.9 93.2998C177.4 100.7 163.3 112.4 160 114.4" stroke="#2D1F04" stroke-width="2.62" stroke-miterlimit="10" stroke-linecap="round" stroke-linejoin="round"/>
<path d="M29.8 70.7999C28.1 64.4999 16.1 65.3999 16.2 73.7999C16.2 84.2999 31.1 89.1999 30.9 89.1999C30.7 89.1999 45.4 82.0999 45.2 72.9999C45.1 65.8999 33.9 62.0999 31.4 70.7999C31.2 71.3999 31.3 72.6999 30.9 73.1999C30.5 73.7999 29.8 70.7999 29.8 70.7999Z" fill="#FC3701"/>
<path d="M29.8 70.7999C28.1 64.4999 16.1 65.3999 16.2 73.7999C16.2 84.2999 31.1 89.1999 30.9 89.1999C30.7 89.1999 45.4 82.0999 45.2 72.9999C45.1 65.8999 33.9 62.0999 31.4 70.7999C31.2 71.3999 31.3 72.6999 30.9 73.1999C30.5 73.7999 29.8 70.7999 29.8 70.7999Z" stroke="#2D1F04" stroke-width="2.3" stroke-miterlimit="10" stroke-linecap="round"/>
<path d="M95 67.6999C93.1 60.5999 79.6 61.5999 79.6 71.0999C79.6 82.7999 96.4 88.2999 96.2 88.2999C96 88.2999 112.6 80.2999 112.4 70.1999C112.2 62.1999 99.7 57.9999 96.8 67.6999C96.6 68.3999 96.7 69.7999 96.2 70.3999C95.7 70.9999 95 67.6999 95 67.6999Z" fill="#FC3701"/>
<path d="M95 67.6999C93.1 60.5999 79.6 61.5999 79.6 71.0999C79.6 82.7999 96.4 88.2999 96.2 88.2999C96 88.2999 112.6 80.2999 112.4 70.1999C112.2 62.1999 99.7 57.9999 96.8 67.6999C96.6 68.3999 96.7 69.7999 96.2 70.3999C95.7 70.9999 95 67.6999 95 67.6999Z" stroke="#2D1F04" stroke-width="2.3" stroke-miterlimit="10" stroke-linecap="round"/>
<path d="M88.6 112.9C88.8 113.2 85.9 111.4 78.5 110.2C71.2 109 51.6 108.2 56 129.1C57.3 135.3 63.2 141 69.1 139.9C76.2 138.5 76.8 134.8 75.7 132.2C74.4 128.9 71.4 122.6 80.1 119.7C86 117.8 88.9 113.7 88.6 112.9Z" fill="#FF8A8A"/>
<path d="M88.6 112.9C88.8 113.2 85.9 111.4 78.5 110.2C71.2 109 51.6 108.2 56 129.1C57.3 135.3 63.2 141 69.1 139.9C76.2 138.5 76.8 134.8 75.7 132.2C74.4 128.9 71.4 122.6 80.1 119.7C86 117.8 88.9 113.7 88.6 112.9Z" stroke="#251707" stroke-width="2.6" stroke-miterlimit="10" stroke-linecap="round" stroke-linejoin="round"/>
<path d="M81.3 109.8C75.4 108.8 57.8 108.5 65.6 127.5" stroke="#251707" stroke-width="2.6" stroke-miterlimit="10" stroke-linecap="round" stroke-linejoin="round"/>
<path d="M99.4 178.3C90.6 208.3 94.5 348.6 183.1 314.6" stroke="#251707" stroke-width="2.6" stroke-miterlimit="10" stroke-linecap="round" stroke-linejoin="round"/>
<path d="M164.7 307.7C177.1 305.9 184.5 304.9 191.6 296.6C190.7 310.7 185 312.7 182.9 314.6" fill="#B6B1AE"/>
<path d="M164.7 307.7C177.1 305.9 184.5 304.9 191.6 296.6C190.7 310.7 185 312.7 182.9 314.6" stroke="#251707" stroke-width="2.6" stroke-miterlimit="10" stroke-linecap="round" stroke-linejoin="round"/>
<path d="M149.4 188.9C126.3 288.9 161 313.3 183.3 314.3" stroke="#251707" stroke-width="2.6" stroke-miterlimit="10" stroke-linecap="round" stroke-linejoin="round"/>
<path d="M174 312.2C182.7 312.2 190 302.7 191.2 297.4" stroke="#251707" stroke-width="2.6" stroke-miterlimit="10" stroke-linecap="round" stroke-linejoin="round"/>
<path d="M56 87.7998C52.1 103 76.7 107.1 84.6 95.5998C90.7 104 90.6 109.7 88.6 113.4C86.7 117 83 118.8 81.3 119.4" stroke="#251707" stroke-width="2.6" stroke-miterlimit="10" stroke-linecap="round" stroke-linejoin="round"/>
<path d="M71.2 152.9L72 158.2" stroke="#2D1F04" stroke-width="2.62" stroke-miterlimit="10" stroke-linecap="round" stroke-linejoin="round"/>
<path d="M76.5 152.3L77.4 157.5" stroke="#2D1F04" stroke-width="2.62" stroke-miterlimit="10" stroke-linecap="round" stroke-linejoin="round"/>
<path d="M109.5 168.8L109 174.1" stroke="#2D1F04" stroke-width="2.62" stroke-miterlimit="10" stroke-linecap="round" stroke-linejoin="round"/>
<path d="M114.4 167.9L113.9 173.2" stroke="#2D1F04" stroke-width="2.62" stroke-miterlimit="10" stroke-linecap="round" stroke-linejoin="round"/>
<path d="M117.7 208.7V214.3" stroke="#9D7B51" stroke-width="3.87" stroke-miterlimit="10" stroke-linecap="round" stroke-linejoin="round"/>
<path d="M124.5 205.5L124.4 211.1" stroke="#9D7B51" stroke-width="3.87" stroke-miterlimit="10" stroke-linecap="round" stroke-linejoin="round"/>
<path opacity="0.23" d="M151.4 111.2C182.9 121.9 212.3 194.9 197 214.5C196.3 215.3 211.4 199.3 212 198.7C219.3 192.6 226.6 184.3 228.9 175C230.4 169.1 223.9 163.4 221.5 158.6C218.2 152.1 214 143.7 209.4 137.9C201.2 127.7 194.4 117.2 186.6 106.7C184.5 103.9 177.1 86.6001 175.4 86.2001C175 86.1001 170.5 86.1001 170.5 86.5001C170.5 88.4001 172.3 87.0001 171.4 90.3001C170.9 93.0001 149.7 110.6 151.4 111.2Z" fill="#3F2719"/>
<path opacity="0.23" d="M59.6 182.5C65 194.5 78.6 188.1 84.9 186.4C91.2 184.7 98.4 182.2 96.6 191.2C96.1 193.7 72.8 204.4 62.6 192.4C61.4 191 58.1 179.3 59.6 182.5Z" fill="#3F2719"/>
<path opacity="0.23" d="M129.9 309.5C129.2 308.9 136.8 312.7 140.3 312.5C144.7 312.3 149.3 309 148.6 304.1C147.2 293.5 118.6 281.5 133.8 204.1C136.4 190.9 137.6 189.2 140.8 181.9C144.1 174.6 154.6 163.6 161.6 145.5C161.5 146.9 166.7 140.7 159.3 173C158.3 177.4 159.3 185.3 155.4 188C153.8 189.1 150 187.4 148.1 188.6C147.5 189 144.9 208 144.8 210.3C144.3 220.8 140.7 232 140.8 242.3C140.8 249.2 141.8 255.2 142.4 261.6C142.9 268 143.5 270 144.4 273.1C147.5 284.4 148.4 296.3 158.7 302.9C161.4 304.6 164.4 308.2 164.7 307.6C165.4 306.3 179.8 304.4 181.8 303.6C184.6 302.4 187.6 300.8 189.9 298.7C190 298.6 191.4 297.2 191.5 297.2C196.7 301.2 182.9 315.3 179 316.4C157.3 323 140.3 318.4 129.9 309.5Z" fill="#3F2719"/>
<path opacity="0.23" d="M216.5 194C213.9 194.3 207.1 203.5 204.7 207.8C204.3 208.2 204.3 208.2 203.9 208.7C190.2 224.2 143.5 243.9 143.5 243.9L142.8 245.7C142.8 245.7 175.3 241.3 205.2 219.8C224.8 273.1 207 303.5 199.3 306.8C194.6 308.8 189.6 308.3 188.5 309.8C185.2 314 179.2 315.1 180.1 315.4C186.3 317 183.3 318.6 189.7 318.2C201.5 317.5 199.6 316.4 211.4 316.4C212.9 316.4 220.4 293.2 220.1 290.7C219.1 282.9 220.7 265.9 221.8 258.2C222.1 255.8 217.9 197.3 217.5 194.9C217.2 194.2 216.9 194 216.5 194Z" fill="#3F2719"/>
<path d="M56.4 106.1C55.9 106.1 56.2 106 55.8 106.5L56.4 106.1Z" fill="black"/>
<path d="M93.5 118.2C87.9 124.2 81.8 124.6 81.8 124.6" stroke="#251707" stroke-width="2" stroke-miterlimit="10" stroke-linecap="round" stroke-linejoin="round"/>
<path d="M62.5 182C69.3 182.2 73.9 182 77.9 182C81.2 182 81.6 185.1 80.6 188.1C79.2 192.2 76.3 195.2 72.6 196.7C72.4 196.8 72.2 196.8 71.8 197C74.1 199.5 72.4 204.8 74.4 209.5C71.8 209.5 69.6 209.4 67.1 209.4C65.9 206.4 65.5 203.4 65.5 200.5C65.5 198.9 65.3 197.8 62.9 198.3C61 201.8 59.4 205.4 59.6 209.4C56.9 209.4 54.2 209.4 51.1 209.3C51.5 199 59.7 191.7 62.5 182ZM69 187.7C68.1 189.5 67.2 191.2 66 193.2C67.7 193.1 69.2 193.1 70.7 192.8C72 192.6 73.2 191.6 73.9 190.2C74.7 188.8 74.5 187.7 73.3 187.6C72 187.4 70.6 187.6 69 187.7Z" fill="#2D1F04"/>
<path d="M101 188.6C98 188.8 95.6 189 93.2 189.2C93.7 186.8 92.8 185.5 91.1 185.6C90 185.6 89 186.1 88 187.8C87.6 189.2 88.1 189.6 88.8 189.9C90.1 190.4 91.6 190.8 93.1 191.4C94 191.7 94.8 192.1 95.7 192.6C101 195.7 98 204.1 92.5 207.8C90.7 209 88.7 209.9 87 210.2C84.2 210.8 81.6 210.6 79.3 209.7C76.2 208.5 74.6 204.8 76.4 200.2C78.3 200 80.3 199.9 82.4 199.7C82.3 200.3 82.2 200.8 82.2 201.3C82 204 84 205.4 86.6 204.3C87.8 203.8 88.7 202.9 89.2 201.6C89.6 200.4 89.3 199.4 88.5 199C87.8 198.6 87.1 198.3 86.5 198C85.1 197.4 83.7 196.9 82.7 196.2C80.7 194.7 80.8 192.1 82.2 189C83.8 185.5 85.8 182.5 88.6 181.3C91.2 180.1 94 179.9 97.1 181C100.2 182 101.9 184.4 101 188.6Z" fill="#2D1F04"/>
</g>
<defs>
<clipPath id="clip0_202_1913">
<rect width="231" height="322" fill="white"/>
</clipPath>
</defs>
</svg>
