<svg width="311" height="345" viewBox="0 0 311 345" fill="none" xmlns="http://www.w3.org/2000/svg">
<path d="M104.619 48.0759C104.619 48.0759 89.8391 63.0759 90.7391 88.8559C91.7891 118.856 100.209 129.296 109.129 145.146C114.269 154.296 117.239 164.426 117.059 171.236C116.809 180.396 110.449 201.296 132.249 204.596C154.049 207.896 226.709 203.596 244.869 193.366C263.029 183.136 275.259 167.746 275.259 167.746C275.259 167.746 269.309 90.8159 243.549 55.8059C219.139 22.6359 193.639 19.0659 171.759 13.2859C161.479 11.1759 154.869 7.17594 153.099 3.08594C150.169 10.0859 150.949 8.20594 151.099 11.0859C144.099 10.7159 130.559 3.89594 127.529 1.01594C127.219 0.968166 126.901 1.02853 126.63 1.18692C126.359 1.3453 126.15 1.59209 126.039 1.88594C125.519 4.50594 125.429 3.88594 131.889 18.1859C131.889 18.1859 130.729 15.5359 109.819 17.0859C109.379 17.0859 109.109 18.3059 109.479 18.5459C111.799 20.1359 122.929 23.4759 120.799 27.0759C120.799 27.0759 111.629 24.3059 97.3491 31.5559C97.2736 31.5974 97.2127 31.6611 97.1746 31.7384C97.1365 31.8157 97.1231 31.9028 97.1362 31.9879C97.1493 32.0731 97.1883 32.1521 97.2478 32.2144C97.3074 32.2766 97.3847 32.3191 97.4692 32.3359C101.309 32.8359 112.099 33.4559 110.589 35.9959C110.589 35.9959 104.499 38.2359 89.9391 48.5159C89.0091 49.1759 90.2292 50.7859 90.6192 50.6459C104.699 45.4759 104.619 48.0759 104.619 48.0759Z" fill="#CAA77A"/>
<g style="mix-blend-mode:multiply" opacity="0.23">
<path d="M104.799 47.3061C105.039 47.5861 105.309 47.9161 105.099 48.2261C102.629 51.9161 99.0992 53.9061 94.8692 65.1361C93.2892 69.3561 111.639 31.3161 162.289 31.3161C234.289 31.3161 235.029 66.1761 243.289 93.5861C252.099 122.796 248.209 171.486 247.029 189.956C246.659 195.876 255.669 186.666 259.729 183.396C265.692 178.633 271.178 173.301 276.109 167.476C276.153 167.424 276.186 167.363 276.205 167.298C276.224 167.232 276.229 167.164 276.219 167.096C275.859 162.606 269.499 89.2961 244.539 55.3661C222.979 26.0661 188.079 19.4761 168.249 12.5661C165.253 12.2523 162.365 11.2689 159.8 9.68853C157.234 8.10818 155.057 5.97134 153.429 3.43607C151.349 4.60607 152.729 9.67607 150.869 11.7361C135.429 9.42607 129.379 1.79607 126.389 1.41607C125.329 1.27607 128.819 15.4161 132.499 18.9661C132.464 19.035 132.416 19.0963 132.357 19.146C132.298 19.1957 132.229 19.233 132.156 19.2554C132.082 19.2778 132.004 19.285 131.927 19.2766C131.851 19.2681 131.776 19.2441 131.709 19.2061C130.019 18.2061 127.219 16.5061 110.709 17.1061C110.5 17.1081 110.297 17.1757 110.128 17.2992C109.96 17.4227 109.834 17.5959 109.769 17.7945C109.704 17.9932 109.703 18.2072 109.765 18.4066C109.828 18.606 109.952 18.7807 110.119 18.9061C112.439 20.6661 120.879 23.0761 121.279 28.2061C119.399 28.1261 109.389 25.6561 97.3992 31.3461C97.2287 31.4466 97.0919 31.5955 97.0061 31.7739C96.9203 31.9522 96.8894 32.1521 96.9172 32.348C96.9451 32.544 97.0304 32.7272 97.1625 32.8746C97.2946 33.0221 97.4674 33.127 97.6592 33.1761C102.199 33.9261 115.329 32.9461 111.289 36.7561C111.289 36.7561 103.229 38.6361 90.2892 49.3861C89.7092 49.8761 90.2192 50.9061 90.9392 50.6361C99.7092 47.2161 103.599 45.9261 104.799 47.3061Z" fill="#3F2719"/>
</g>
<path d="M101.309 72.476C104.799 64.266 113.979 54.476 122.259 52.476C132.009 50.126 133.809 51.926 143.259 51.476C144.999 51.386 150.259 50.036 151.319 48.036C152.379 46.036 151.559 43.136 151.599 43.146C153.089 43.706 157.599 46.336 159.429 47.016C166.509 49.676 168.159 50.016 174.549 47.526C195.889 39.106 214.159 52.846 221.389 62.446C225.239 67.556 234.519 82.056 234.829 97.756C235.139 114.006 238.199 121.856 219.509 138.706C197.309 158.706 143.579 169.186 113.509 139.616C99.1792 125.476 95.5592 86.036 101.309 72.476Z" fill="#FFDBAF"/>
<path d="M105.109 47.7357C105.109 47.7357 90.9592 63.6757 90.2192 86.8557C89.2192 119.156 100.219 129.296 109.129 145.146C114.269 154.296 117.239 164.426 117.059 171.236C116.809 180.396 110.449 201.296 132.249 204.596C154.049 207.896 226.709 203.596 244.869 193.366C263.029 183.136 275.259 167.746 275.259 167.746C275.259 167.746 271.259 88.7457 243.259 53.6857C218.519 22.6157 198.549 22.2057 162.879 11.0957C154.879 8.60571 153.879 4.61571 153.139 3.45571C151.469 5.45571 150.859 9.26571 151.609 10.9857C151.239 11.0557 140.489 12.9157 127.529 1.4257C124.719 0.675704 126.909 11.7957 132.039 18.9857C132.039 18.9857 130.699 16.3657 109.839 17.3857C109.743 17.388 109.649 17.4213 109.573 17.4807C109.497 17.5401 109.442 17.6224 109.416 17.7154C109.391 17.8085 109.395 17.9073 109.43 17.9974C109.465 18.0875 109.528 18.164 109.609 18.2157C111.949 19.7457 123.049 24.5057 120.949 28.1157C120.949 28.1157 111.449 24.3357 97.1692 31.5857C97.0876 31.6234 97.0207 31.6868 96.9787 31.7663C96.9367 31.8457 96.922 31.9367 96.9368 32.0253C96.9515 32.1139 96.995 32.1952 97.0605 32.2567C97.126 32.3182 97.2098 32.3565 97.2992 32.3657C101.139 32.8657 113.769 33.6257 110.629 36.5957C110.629 36.5957 103.719 38.3457 89.9492 49.0657C89.4292 49.4757 89.8792 50.3957 90.4892 50.1357C102.559 44.9957 105.109 47.7357 105.109 47.7357Z" stroke="#2D1F04" stroke-width="2.62" stroke-linecap="round" stroke-linejoin="round"/>
<path d="M156.589 103.686C148.739 100.076 139.799 114.376 139.459 124.476C138.699 145.156 169.239 150.206 186.369 139.876C204.219 129.106 182.679 97.4461 169.039 102.466" fill="#9D7B51"/>
<path d="M100.459 80.0261C92.3892 93.8661 99.7192 119.416 105.139 129.326C105.558 130.097 106.222 130.706 107.027 131.056C107.831 131.406 108.73 131.476 109.579 131.256C115.282 129.81 120.729 127.496 125.729 124.396C158.729 103.896 142.419 60.6661 140.519 58.3961C137.909 54.9061 131.269 64.0761 120.889 72.4561C117.739 74.9561 104.669 79.0161 100.459 80.0261Z" fill="#9D7B51"/>
<path d="M175.309 61.1058C175.599 130.466 229.809 128.046 233.519 119.106C235.899 113.396 240.289 92.6058 232.469 75.8158C226.279 61.6458 213.629 74.4758 203.799 70.4758C193.469 66.3158 175.249 47.2458 175.309 61.1058Z" fill="#9D7B51"/>
<path opacity="0.83" d="M201.559 78.3361H201.699C208.559 77.3361 215.099 82.8361 216.289 90.7161C217.479 98.5961 212.889 105.826 206.029 106.866H205.889C199.029 107.866 192.489 102.366 191.299 94.4861C190.109 86.6061 194.699 79.3761 201.559 78.3361Z" fill="#B2B2B2"/>
<path opacity="0.83" d="M122.919 79.9258H123.069C130.629 79.9258 136.769 86.9258 136.769 95.6458C136.769 104.366 130.629 111.366 123.069 111.366H122.919C115.349 111.366 109.219 104.366 109.219 95.6458C109.219 86.9258 115.349 79.9258 122.919 79.9258Z" fill="#B2B2B2"/>
<path d="M150.179 105.316C150.039 102.606 155.369 100.136 162.079 99.8058C168.789 99.4758 174.339 101.406 174.479 104.126C174.619 106.846 169.279 109.316 162.569 109.636C155.859 109.956 150.309 108.036 150.179 105.316Z" fill="#251707"/>
<path d="M122.989 80.386C126.183 80.3754 129.251 81.6334 131.518 83.8835C133.785 86.1337 135.066 89.1919 135.079 92.386V93.166C134.989 96.311 133.676 99.2968 131.419 101.489C129.163 103.682 126.14 104.908 122.994 104.908C119.848 104.908 116.826 103.682 114.569 101.489C112.313 99.2968 111 96.311 110.909 93.166V92.386C110.909 90.8034 111.222 89.2364 111.83 87.7752C112.438 86.3141 113.329 84.9877 114.452 83.8723C115.575 82.757 116.907 81.8747 118.372 81.2764C119.838 80.6781 121.407 80.3755 122.989 80.386Z" fill="white"/>
<path d="M203.189 75.8558C204.773 75.8439 206.343 76.1456 207.809 76.7433C209.275 77.341 210.609 78.2231 211.733 79.3385C212.857 80.454 213.748 81.7809 214.357 83.2427C214.966 84.7045 215.279 86.2723 215.279 87.8558V88.6458C215.189 91.7908 213.876 94.7766 211.619 96.9691C209.363 99.1616 206.34 100.388 203.194 100.388C200.048 100.388 197.026 99.1616 194.769 96.9691C192.513 94.7766 191.2 91.7908 191.109 88.6458V87.8558C191.109 86.2732 191.422 84.7062 192.03 83.245C192.638 81.7839 193.529 80.4575 194.652 79.3421C195.775 78.2267 197.107 77.3445 198.572 76.7462C200.038 76.1479 201.607 75.8453 203.189 75.8558Z" fill="white"/>
<path d="M198.939 91.3058C198.953 90.7295 199.136 90.17 199.467 89.6975C199.797 89.225 200.259 88.8603 200.796 88.6492C201.332 88.4382 201.919 88.3901 202.483 88.5109C203.046 88.6317 203.562 88.9162 203.964 89.3286C204.367 89.741 204.639 90.2631 204.747 90.8294C204.854 91.3958 204.792 91.9813 204.569 92.5126C204.345 93.044 203.97 93.4975 203.49 93.8165C203.009 94.1354 202.446 94.3056 201.869 94.3058C201.086 94.2875 200.341 93.9634 199.793 93.4028C199.245 92.8421 198.939 92.0895 198.939 91.3058Z" fill="#2D1F04"/>
<path d="M118.739 95.6457C118.765 95.0724 118.958 94.5193 119.295 94.0548C119.632 93.5904 120.098 93.2351 120.635 93.0332C121.172 92.8312 121.757 92.7914 122.316 92.9187C122.876 93.046 123.386 93.3348 123.783 93.7493C124.179 94.1638 124.446 94.6857 124.549 95.2502C124.652 95.8148 124.587 96.3971 124.361 96.9249C124.136 97.4528 123.761 97.9029 123.283 98.2195C122.804 98.5361 122.243 98.7051 121.669 98.7057C120.875 98.6873 120.121 98.3549 119.572 97.7813C119.022 97.2077 118.723 96.4397 118.739 95.6457Z" fill="#2D1F04"/>
<path d="M203.189 75.8558C204.773 75.8439 206.343 76.1456 207.809 76.7433C209.275 77.341 210.609 78.2231 211.733 79.3385C212.857 80.454 213.748 81.7809 214.357 83.2427C214.966 84.7045 215.279 86.2723 215.279 87.8558V88.6458C215.189 91.7908 213.876 94.7766 211.619 96.9691C209.363 99.1616 206.34 100.388 203.194 100.388C200.048 100.388 197.026 99.1616 194.769 96.9691C192.513 94.7766 191.2 91.7908 191.109 88.6458V87.8558C191.109 86.2732 191.422 84.7062 192.03 83.245C192.638 81.7839 193.529 80.4575 194.652 79.3421C195.775 78.2267 197.107 77.3445 198.572 76.7462C200.038 76.1479 201.607 75.8453 203.189 75.8558Z" stroke="#2D1F04" stroke-width="2.6" stroke-linecap="round" stroke-linejoin="round"/>
<path d="M122.989 80.386C126.183 80.3754 129.251 81.6334 131.518 83.8835C133.785 86.1337 135.066 89.1919 135.079 92.386V93.166C134.989 96.311 133.676 99.2968 131.419 101.489C129.163 103.682 126.14 104.908 122.994 104.908C119.848 104.908 116.826 103.682 114.569 101.489C112.313 99.2968 111 96.311 110.909 93.166V92.386C110.909 90.8034 111.222 89.2364 111.83 87.7752C112.438 86.3141 113.329 84.9877 114.452 83.8723C115.575 82.757 116.907 81.8747 118.372 81.2764C119.838 80.6781 121.407 80.3755 122.989 80.386Z" stroke="#2D1F04" stroke-width="2.6" stroke-linecap="round" stroke-linejoin="round"/>
<path d="M98.0292 82.1361C124.719 79.3361 139.439 56.5161 139.439 56.5161" stroke="#2D1F04" stroke-width="7.6" stroke-linecap="round" stroke-linejoin="round"/>
<path d="M228.699 70.9661C196.209 74.4261 174.109 52.1161 176.269 54.5561" stroke="#2D1F04" stroke-width="7.6" stroke-linecap="round" stroke-linejoin="round"/>
<path d="M147.889 112.976C147.889 112.976 161.979 126.096 180.509 109.826" stroke="#251707" stroke-width="3" stroke-miterlimit="10" stroke-linecap="round"/>
<path d="M222.069 93.6159C221.809 93.2959 221.359 93.5559 221.419 93.9959C221.857 97.664 221.544 101.383 220.499 104.926C219.789 107.376 217.809 113.476 222.549 114.636C229.139 116.256 230.499 108.966 229.189 104.536C227.479 98.7959 223.729 95.6559 222.069 93.6159Z" fill="#91D6E2"/>
<path d="M94.7992 223.006C94.7992 223.006 98.0191 232.506 85.1392 242.696C77.1892 248.986 60.4092 257.696 49.9992 235.756C38.6892 242.576 28.3392 233.676 28.3392 233.676C28.3392 233.676 17.4992 232.476 14.6692 232.476C-2.83085 247.666 1.12916 274.216 10.4992 286.996C40.4292 296.716 79.2392 297.046 81.7192 291.926C81.2492 259.146 108.959 227.196 108.959 227.196L94.7992 223.006Z" fill="#CAA77A"/>
<path d="M76.4292 325.256C103.509 333.476 122.799 342.726 185.299 344.476C249.809 346.296 291.149 337.536 308.139 319.736C314.659 305.286 298.309 228.546 296.269 224.416C297.784 223.88 299.172 223.039 300.349 221.946C301.029 181.076 288.459 152.296 261.689 148.126C241.059 148.916 232.959 160.246 224.429 171.786C198.799 192.076 120.799 184.996 115.669 170.476C115.669 169.476 115.489 167.476 115.409 166.366C91.4691 172.366 90.0792 216.596 91.2392 220.916C93.6892 224.266 102.909 225.736 102.909 225.736C102.909 225.736 106.149 226.806 102.849 231.216C79.7992 262.036 73.5692 277.956 76.4292 325.256Z" fill="#FFDB1F"/>
<path d="M308.289 318.716C311.989 280.316 297.209 229.046 296.689 227.186" stroke="#2D1F04" stroke-width="2.62" stroke-linecap="round" stroke-linejoin="round"/>
<g style="mix-blend-mode:multiply" opacity="0.23">
<path d="M103.169 230.326C103.169 230.326 109.709 244.716 136.939 244.666C149.939 244.666 151.519 244.876 162.289 244.106C172.049 243.406 171.459 248.986 164.779 249.596C150.779 250.876 143.479 248.686 143.479 248.686C143.479 248.686 119.969 244.946 108.959 246.366C98.3192 247.726 92.1691 251.956 84.6891 259.646C87.7991 250.776 103.169 230.326 103.169 230.326Z" fill="#3F2719"/>
</g>
<g style="mix-blend-mode:multiply" opacity="0.23">
<path d="M297.019 226.686C297.019 226.686 312.079 271.526 308.269 319.566C304.269 323.826 296.269 329.566 291.169 331.106C294.229 319.696 287.969 270.156 287.969 270.156L297.019 226.686Z" fill="#3F2719"/>
</g>
<path d="M125.169 219.336C133.169 219.766 140.459 220.006 147.529 220.516C153.339 220.926 154.859 224.696 154.479 228.206C153.969 233.036 150.859 236.266 145.479 237.846C145.199 237.936 144.909 237.986 144.329 238.116C149.779 241.296 149.709 247.436 153.119 253.116L141.019 252.656C139.17 249.195 137.524 245.629 136.089 241.976C135.339 240.086 134.279 238.676 131.139 239.126C130.02 243.432 129.548 247.881 129.739 252.326C125.989 252.196 122.569 252.076 118.879 251.966C118.229 240.916 122.949 229.976 125.169 219.336ZM134.669 226.466C134.129 228.616 133.569 230.586 132.889 232.966C135.269 232.966 137.539 232.966 139.829 232.796C140.681 232.782 141.507 232.495 142.185 231.979C142.863 231.463 143.358 230.744 143.599 229.926C144.069 228.286 143.289 226.926 141.259 226.716C139.229 226.506 136.999 226.546 134.669 226.476V226.466Z" fill="#2D1F04"/>
<path d="M186.559 230.476C182.959 230.566 179.709 230.646 176.329 230.746C176.269 228.016 174.779 226.506 171.959 226.366C171.083 226.228 170.187 226.372 169.398 226.776C168.609 227.181 167.969 227.825 167.569 228.616C167.369 230.186 168.419 230.746 169.709 231.116C172.059 231.786 174.489 232.396 176.889 233.116C178.224 233.524 179.527 234.029 180.789 234.626C188.789 238.346 186.739 247.576 180.089 251.736C177.86 253.099 175.376 253.994 172.789 254.366C168.875 254.955 164.879 254.651 161.099 253.476C158.706 252.819 156.642 251.295 155.309 249.201C153.977 247.107 153.471 244.592 153.889 242.146L163.719 241.966C163.829 242.616 163.909 243.216 164.049 243.796C164.819 246.946 168.169 248.606 171.659 247.476C172.39 247.307 173.059 246.937 173.59 246.406C174.12 245.876 174.491 245.207 174.659 244.476C174.77 243.847 174.652 243.199 174.328 242.649C174.003 242.099 173.493 241.683 172.889 241.476C171.799 240.986 170.619 240.646 169.479 240.266C167.109 239.476 164.669 238.866 162.479 237.896C158.269 236.026 156.709 232.896 157.679 229.336C158.298 227.222 159.486 225.319 161.114 223.836C162.742 222.352 164.747 221.346 166.909 220.926C171.335 219.806 175.988 219.962 180.329 221.376C184.899 222.846 186.799 225.686 186.559 230.476Z" fill="#2D1F04"/>
<path d="M230.009 227.666C244.539 289.356 224.229 303.916 191.949 298.666C168.429 294.836 169.949 257.036 169.949 257.036C159.867 267.453 153.871 281.152 153.059 295.626C153.059 295.626 148.349 298.036 140.059 290.196C130.369 306.046 143.589 325.826 151.839 331.426C176.169 347.936 220.029 348.106 258.589 331.106C296.519 314.396 305.249 284.196 303.119 213.476" fill="#CAA77A"/>
<path d="M44.8992 195.616C44.8992 195.616 46.4092 232.946 50.0392 235.756C53.6692 238.566 28.9492 242.666 27.8792 232.096C28.2092 218.386 44.8992 195.616 44.8992 195.616Z" fill="#B6B1AE"/>
<path d="M170.459 257.036C170.459 257.036 168.989 281.536 181.569 293.626C184.889 296.806 155.179 303.826 154.109 293.256C157.189 270.476 170.459 257.036 170.459 257.036Z" fill="#B6B1AE"/>
<path d="M62.4192 265.356C56.9492 273.126 27.8792 285.106 17.8592 286.146C13.8592 280.976 8.47918 253.316 22.6792 240.696C29.5292 249.676 51.0792 261.236 62.4192 265.356Z" fill="#B6B1AE"/>
<path d="M139.409 290.706C145.879 285.916 151.989 289.376 153.219 288.646C153.689 292.886 153.369 295.126 152.539 297.256C148.519 297.256 145.219 295.476 139.409 290.706Z" fill="#B6B1AE"/>
<path d="M225.939 170.376C225.939 170.376 210.749 183.376 178.379 184.686C146.009 185.996 119.149 176.546 116.289 171.916C113.429 167.286 109.129 186.206 116.729 189.756C123.979 193.146 146.869 202.556 180.629 198.046" stroke="#2D1F04" stroke-width="2.62" stroke-linecap="round" stroke-linejoin="round"/>
<path d="M116.669 165.926C92.5392 170.126 90.8792 211.366 91.3992 221.776C91.4592 222.826 94.2692 224.306 94.2692 224.306C94.2692 224.306 97.2692 233.166 83.5292 244.066C69.7892 254.966 53.5292 246.876 50.5292 237.296C47.5292 227.716 42.2692 204.106 45.2392 196.836C48.2092 189.566 27.2392 212.836 28.3992 233.676L14.5392 231.186C14.5392 231.186 -10.7808 254.826 10.5392 287.026C10.5392 287.026 34.8792 299.166 75.8192 293.716" stroke="#2D1F04" stroke-width="2.62" stroke-linecap="round" stroke-linejoin="round"/>
<path d="M76.2492 324.326C71.1492 302.196 78.2492 257.946 102.849 231.186C104.169 201.296 116.669 189.456 116.669 189.456" stroke="#2D1F04" stroke-width="2.62" stroke-linecap="round" stroke-linejoin="round"/>
<path d="M14.6691 232.476C14.6691 232.476 44.5591 263.026 60.2491 263.686C75.9391 264.346 18.0591 290.316 10.4991 286.996" stroke="#2D1F04" stroke-width="2.62" stroke-linecap="round" stroke-linejoin="round"/>
<path d="M21.4392 240.696C21.4392 240.696 6.24917 262.886 18.0392 286.526" stroke="#2D1F04" stroke-width="2.62" stroke-linecap="round" stroke-linejoin="round"/>
<path d="M14.5192 261.736C16.8192 263.056 36.7192 273.126 62.9292 265.206" stroke="#2D1F04" stroke-width="2.62" stroke-linecap="round" stroke-linejoin="round"/>
<path d="M28.3392 232.476C28.3392 232.476 28.3392 242.986 50.5092 237.266" stroke="#2D1F04" stroke-width="2.62" stroke-linecap="round" stroke-linejoin="round"/>
<path d="M231.209 234.396C240.689 278.896 232.319 298.476 203.669 299.086C165.849 299.886 170.669 257.256 170.669 257.256C160.474 267.525 154.4 281.178 153.599 295.626C153.599 295.626 148.399 297.906 140.149 290.066C138.019 294.726 133.149 307.116 144.989 323.826C160.599 345.826 216.259 349.236 251.179 334.826C301.179 314.146 305.179 273.416 303.709 220.826" stroke="#2D1F04" stroke-width="2.62" stroke-linecap="round" stroke-linejoin="round"/>
<path d="M141.029 289.366C141.029 289.366 145.879 285.806 153.169 288.036" stroke="#2D1F04" stroke-width="2.62" stroke-linecap="round" stroke-linejoin="round"/>
<path d="M154.209 296.076C154.539 296.076 167.109 304.776 181.829 294.016" stroke="#2D1F04" stroke-width="2.62" stroke-linecap="round" stroke-linejoin="round"/>
<path d="M264.289 222.226C273.859 220.056 279.649 219.316 303.499 220.226C314.879 217.756 305.629 149.936 261.819 147.936C229.999 152.136 221.819 176.696 221.429 191.136C221.169 200.686 227.119 233.026 227.119 233.026C227.119 233.026 228.029 236.636 232.479 234.096C243.799 227.676 256.009 224.116 264.289 222.226Z" fill="#FFDB1F"/>
<path d="M303.679 220.746C303.679 220.746 307.309 218.976 307.419 217.036C307.989 207.146 308.089 175.576 288.069 158.326C259.259 133.486 230.219 158.596 223.839 175.666C218.099 190.986 226.369 229.556 226.839 232.196C227.309 234.836 231.239 234.396 231.239 234.396" stroke="#2D1F04" stroke-width="2.62" stroke-linecap="round" stroke-linejoin="round"/>
<path d="M238.009 218.956C237.599 219.196 263.329 204.496 307.559 208.236" stroke="#2D1F04" stroke-width="2.62" stroke-linecap="round" stroke-linejoin="round"/>
<path d="M121.419 175.476C120.698 178.046 120.698 180.766 121.419 183.336" stroke="#2D1F04" stroke-width="2.62" stroke-linecap="round" stroke-linejoin="round"/>
<path d="M127.069 178.046C127.069 178.046 126.069 183.046 127.729 187.176" stroke="#2D1F04" stroke-width="2.62" stroke-linecap="round" stroke-linejoin="round"/>
<path d="M173.969 185.476C173.732 186.834 173.924 188.232 174.519 189.476" stroke="#2D1F04" stroke-width="2.62" stroke-linecap="round" stroke-linejoin="round"/>
<path d="M179.039 185.476C179.038 187.4 179.412 189.305 180.139 191.086" stroke="#2D1F04" stroke-width="2.62" stroke-linecap="round" stroke-linejoin="round"/>
<path d="M151.729 183.876C151.629 185.747 151.777 187.624 152.169 189.456" stroke="#2D1F04" stroke-width="2.62" stroke-linecap="round" stroke-linejoin="round"/>
<g style="mix-blend-mode:multiply" opacity="0.23">
<path d="M261.799 147.956C280.799 155.386 285.709 173.956 287.939 180.816C291.579 191.896 298.129 217.866 291.519 258.416C284.909 298.966 265.339 330.756 220.349 334.726C197.889 336.726 150.769 334.446 138.199 295.236C132.989 317.716 154.449 339.816 178.619 341.606C208.569 343.826 212.139 347.506 251.119 334.786C313.059 303.086 301.199 271.906 303.119 220.206C314.379 217.566 305.199 150.396 261.799 147.956Z" fill="#3F2719"/>
</g>
<g style="mix-blend-mode:multiply" opacity="0.23">
<path d="M31.7992 282.006C31.7992 282.006 61.7992 285.216 77.6692 282.496C76.5892 286.496 75.6692 290.496 76.0692 293.496C48.8392 299.106 12.6192 287.836 12.6192 287.836L31.7992 282.006Z" fill="#3F2719"/>
</g>
<path d="M159.739 107.286L161.299 117.266" stroke="#251707" stroke-width="3" stroke-miterlimit="10" stroke-linecap="round"/>
<path d="M258.449 212.386C258.449 212.386 260.539 213.096 260.059 218.606" stroke="#2D1F04" stroke-width="2.62" stroke-linecap="round" stroke-linejoin="round"/>
<path d="M263.139 211.316C263.139 211.316 265.229 212.016 264.739 217.526" stroke="#2D1F04" stroke-width="2.62" stroke-linecap="round" stroke-linejoin="round"/>
<path d="M281.579 208.206C281.579 208.206 283.669 208.916 283.179 214.416" stroke="#2D1F04" stroke-width="2.62" stroke-linecap="round" stroke-linejoin="round"/>
<g style="mix-blend-mode:multiply" opacity="0.23">
<path d="M271.509 247.396V258.466" stroke="#3F2719" stroke-width="4" stroke-miterlimit="10" stroke-linecap="round"/>
</g>
<g style="mix-blend-mode:multiply" opacity="0.23">
<path d="M278.999 250.696L278.219 261.736" stroke="#3F2719" stroke-width="4" stroke-miterlimit="10" stroke-linecap="round"/>
</g>
<g style="mix-blend-mode:multiply" opacity="0.23">
<path d="M129.199 160.176L131.199 169.176" stroke="#3F2719" stroke-width="4" stroke-miterlimit="10" stroke-linecap="round"/>
</g>
<g style="mix-blend-mode:multiply" opacity="0.23">
<path d="M136.969 162.446L139.009 171.616" stroke="#3F2719" stroke-width="4" stroke-miterlimit="10" stroke-linecap="round"/>
</g>
<g style="mix-blend-mode:multiply" opacity="0.23">
<path d="M144.959 164.626L146.989 173.716" stroke="#3F2719" stroke-width="4" stroke-miterlimit="10" stroke-linecap="round"/>
</g>
</svg>
