<svg width="40" height="40" viewBox="0 0 40 40" fill="none" xmlns="http://www.w3.org/2000/svg">
<path d="M1.66666 20C1.66525 16.7181 2.54486 13.4959 4.21368 10.6699C5.88249 7.84396 8.27931 5.51776 11.1539 3.93418C14.0286 2.3506 17.2756 1.56771 20.556 1.66725C23.8364 1.76678 27.03 2.74509 29.8033 4.50003L32.155 2.15003C32.3884 1.91671 32.6858 1.75793 33.0095 1.69381C33.3332 1.62969 33.6687 1.66311 33.9734 1.78985C34.2781 1.91659 34.5383 2.13093 34.7211 2.40572C34.9038 2.6805 35.0009 3.00335 35 3.33336V10C35 10.4421 34.8244 10.866 34.5118 11.1785C34.1993 11.4911 33.7754 11.6667 33.3333 11.6667H26.6667C26.3371 11.6666 26.0149 11.5688 25.7409 11.3857C25.4669 11.2026 25.2533 10.9423 25.1272 10.6378C25.0011 10.3333 24.9681 9.99823 25.0324 9.67498C25.0966 9.35172 25.2553 9.05478 25.4883 8.8217L27.3683 6.9417C25.087 5.65172 22.5074 4.98238 19.8867 5.00043C17.266 5.01849 14.6959 5.7233 12.4326 7.04459C10.1693 8.36587 8.29194 10.2574 6.98779 12.5307C5.68364 14.8039 4.99825 17.3793 4.99999 20C4.99999 20.4421 4.8244 20.866 4.51184 21.1785C4.19928 21.4911 3.77535 21.6667 3.33332 21.6667C2.8913 21.6667 2.46737 21.4911 2.15481 21.1785C1.84225 20.866 1.66666 20.4421 1.66666 20ZM36.6667 18.3334C36.2246 18.3334 35.8007 18.509 35.4881 18.8215C35.1756 19.1341 35 19.558 35 20C34.9956 23.9769 33.4138 27.7897 30.6017 30.6018C27.7896 33.4138 23.9769 34.9956 20 35C17.4171 35.0047 14.8778 34.3348 12.6333 33.0567L14.5117 31.1784C14.7447 30.9453 14.9034 30.6483 14.9676 30.3251C15.0319 30.0018 14.9989 29.6668 14.8728 29.3623C14.7467 29.0578 14.5331 28.7975 14.2591 28.6144C13.9851 28.4312 13.6629 28.3334 13.3333 28.3334H6.66666C6.22463 28.3334 5.80071 28.509 5.48815 28.8215C5.17559 29.1341 4.99999 29.558 4.99999 30V36.6667C4.99991 36.9963 5.09756 37.3185 5.2806 37.5927C5.46364 37.8668 5.72385 38.0805 6.02832 38.2067C6.23054 38.291 6.44757 38.3341 6.66666 38.3334C7.10865 38.3333 7.5325 38.1576 7.84499 37.845L10.1967 35.5C13.1263 37.3625 16.5285 38.3458 20 38.3334C24.8605 38.3276 29.5204 36.3942 32.9573 32.9573C36.3942 29.5204 38.3276 24.8606 38.3333 20C38.3333 19.558 38.1577 19.1341 37.8452 18.8215C37.5326 18.509 37.1087 18.3334 36.6667 18.3334Z" fill="#DCDBE1"/>
</svg>
