<?xml version="1.0" encoding="utf-8"?>
<!-- Generator: Adobe Illustrator 26.0.3, SVG Export Plug-In . SVG Version: 6.00 Build 0)  -->
<!DOCTYPE svg PUBLIC "-//W3C//DTD SVG 1.1//EN" "http://www.w3.org/Graphics/SVG/1.1/DTD/svg11.dtd" [
	<!ENTITY ns_extend "http://ns.adobe.com/Extensibility/1.0/">
	<!ENTITY ns_ai "http://ns.adobe.com/AdobeIllustrator/10.0/">
	<!ENTITY ns_graphs "http://ns.adobe.com/Graphs/1.0/">
	<!ENTITY ns_vars "http://ns.adobe.com/Variables/1.0/">
	<!ENTITY ns_imrep "http://ns.adobe.com/ImageReplacement/1.0/">
	<!ENTITY ns_sfw "http://ns.adobe.com/SaveForWeb/1.0/">
	<!ENTITY ns_custom "http://ns.adobe.com/GenericCustomNamespace/1.0/">
	<!ENTITY ns_adobe_xpath "http://ns.adobe.com/XPath/1.0/">
]>
<svg version="1.1" id="Слой_1" xmlns:x="&ns_extend;" xmlns:i="&ns_ai;" xmlns:graph="&ns_graphs;"
	 xmlns="http://www.w3.org/2000/svg" xmlns:xlink="http://www.w3.org/1999/xlink" x="0px" y="0px" width="415.7px" height="351.6px"
	 viewBox="0 0 415.7 351.6" style="enable-background:new 0 0 415.7 351.6;" xml:space="preserve">
<style type="text/css">
	.st0{fill:#FFFFFF;}
	.st1{fill:#CAA77A;}
	.st2{fill:#251707;}
	.st3{fill:#F4CAB1;}
	.st4{fill:none;stroke:#251707;stroke-width:2.62;stroke-linecap:round;stroke-linejoin:round;stroke-miterlimit:10;}
	.st5{opacity:0.23;fill:#3F2719;}
	.st6{fill:#AC5C51;}
	.st7{fill:none;stroke:#AC5C51;stroke-width:4;stroke-linecap:round;stroke-linejoin:round;stroke-miterlimit:10;}
	.st8{fill:#9CDAF0;}
	.st9{fill:#B6B1AE;}
	.st10{fill:#FFDB1F;}
	.st11{fill:none;}
	.st12{fill:none;stroke:#9D7B51;stroke-width:4.1072;stroke-linecap:round;stroke-linejoin:round;stroke-miterlimit:10;}
	.st13{fill:none;stroke:#251707;stroke-width:2.7806;stroke-linejoin:round;stroke-miterlimit:10;}
	.st14{fill:none;stroke:#251707;stroke-width:2.7806;stroke-linecap:round;stroke-linejoin:round;stroke-miterlimit:10;}
	.st15{fill:#FFDBAF;}
	.st16{fill:#9D7B51;}
	.st17{fill:#2D1F04;}
	.st18{fill:none;stroke:#2D1F04;stroke-width:7.6;stroke-linecap:round;stroke-linejoin:round;stroke-miterlimit:10;}
	.st19{fill:none;stroke:#251707;stroke-width:3.05;stroke-linecap:round;stroke-linejoin:round;stroke-miterlimit:10;}
</style>
<metadata>
	<sfw  xmlns="&ns_sfw;">
		<slices></slices>
		<sliceSourceBounds  bottomLeftOrigin="true" height="351.6" width="415.7" x="758.2" y="47.8"></sliceSourceBounds>
	</sfw>
</metadata>
<g>
	<path class="st0" d="M116.1,351.6c-8.4,0-14.9-5.8-14.9-13.1c0-0.4,0-0.9,0-1.3c-3.9,1.2-7.8,1.7-11.2,1.7c-16.2,0-17-10.7-17-12.8
		c0-8.6,8-12.3,12.3-14.3c0.5-0.2,1.5-2,1.5-4.1v-21.9c-1.8,0.1-3.7,0.2-5.6,0.2c-18.4,0-32.5-8.1-42.1-24l-1.2-2.1
		c-4.7-7.9-6.8-11.2-12-14.1c-5.5-3.1-13.1-7.4-13.1-15.5c0-6.2,5.3-12.8,16.8-12.8c18.4,0,28.2,14,34.7,23.3l0.6,0.9
		c4.2,6,11.3,7.6,14.5,7.6c3.7,0,6.6-0.5,9.8-1.8c0.8-2.4,1.8-4.6,2.9-6.8c-25.8-5.5-44.3-16.2-55.9-32.4c0,0-24.6,0.3-24.7,0.3
		c-5.3,0-9.7-4.1-10-9.4c-0.1-1.6,0.2-3.2,0.8-4.6c-1.5-1.8-2.4-4.1-2.3-6.6c0.1-5.3,4.3-9.7,9.7-9.9c2.9-0.1,5.8-0.1,8.7-0.1
		c1.7,0,3.5,0,5.2,0.1c-1.5-7.5-2.2-15.6-2.2-24.7c0-19.4,5.5-36,16.5-49.6C32,84.6,37,68.4,41.5,57.5c1.5-3.7,5.1-6.1,9.1-6.2
		c0.3,0,0.7,0,1,0c19.7,0,37,9.6,47.4,17.1c2.4-0.6,4.8-1.2,7.2-1.7c2.6-7.2,7.7-13.2,14.6-17.3c1.7-1,3.5-1.7,5.4-2.2
		c4-1.5,8.5-2.3,13.6-2.3c0.8,0,1.5,0,2.3,0l0.1,0c14.6,0,28.8,5.7,41.5,16.4c6.4-3.6,12.8-6.2,19.3-7.9c-1.2-2.3-1.4-5.1-0.6-7.6
		c0.2-0.5,0.4-1,0.6-1.5c0.1-0.3,0.5-1,0.5-1c0.1-0.1,0.2-0.4,0.2-0.5c0.2-0.3,0.3-0.6,0.5-0.9c0.1-0.1,0.3-0.5,0.3-0.6
		c0.2-0.3,0.4-0.6,0.7-1c-0.6-2.2-0.5-4.6,0.5-6.7c0.2-0.5,0.5-1.1,0.8-1.6c0.3-0.5,0.7-1,1-1.5c0.9-1.3,1.9-2.5,2.8-3.6
		c-0.2-2,0.3-4,1.2-5.7c0.6-1,1.3-2,2.3-2.8c3-2.5,6.8-4.6,11.4-6.1c0.1,0,0.2-0.1,0.3-0.1c1-0.3,2.1-0.6,3.2-0.9
		c0,0,0.3-0.1,0.4-0.1c0.5-0.1,1-0.2,1.5-0.3c0.2-1.4,0.6-2.7,1.2-4c0.2-0.6,0.5-1.2,0.9-1.7c0.1-0.2,0.3-0.4,0.4-0.7
		c1.5-2.3,3.9-3.9,6.6-4.4c0.6-0.1,1.1-0.1,1.7-0.1c1.8,0,3.5,0.5,5,1.3c0.3,0.2,0.5,0.3,0.8,0.5v0c0.9,0.6,4.7,2.2,10.6,3.1
		c0.1,0,0.2,0,0.4,0c1.9-2.1,4.6-3.4,7.5-3.4c0,0,0.2,0,0.3,0c6.3,0.1,14.6,1.6,25.4,4.6c1.7,0.5,3.4,1,5,1.5c0,0,0,0,0.1,0
		c1.6,0.5,3.3,1,4.9,1.6c0,0,0.1,0,0.1,0c1.6,0.5,3.2,1.1,4.8,1.7c0,0,0.1,0,0.1,0c1.6,0.6,3.2,1.2,4.7,1.9c1.6,0.7,3.1,1.3,4.7,2
		c0,0,0.1,0,0.1,0c1.5,0.7,3,1.4,4.5,2.1c0.1,0,0.1,0.1,0.2,0.1c1.4,0.7,2.8,1.5,4.3,2.3l0.2,0.1c1.3,0.7,2.8,1.6,4.2,2.4
		c0,0,0.1,0.1,0.1,0.1c1.4,0.8,2.8,1.7,4.1,2.6l0.1,0.1c1.4,0.9,2.7,1.8,4,2.8c0,0,0.1,0.1,0.1,0.1c1.3,0.9,2.6,1.9,3.9,2.9l0.1,0.1
		c1.3,1,2.5,2,3.8,3.1c0,0,0.1,0.1,0.1,0.1c1.2,1,2.4,2.1,3.6,3.3l0.1,0.1c1.2,1.1,2.3,2.3,3.5,3.4l0.1,0.1c1.2,1.2,2.3,2.4,3.4,3.7
		c0,0,0.1,0.1,0.1,0.1c1.1,1.3,2.2,2.5,3.3,3.8l0.2,0.2c1,1.2,2,2.5,3,3.9l0.1,0.2c1,1.3,2,2.7,2.9,4.1l0.1,0.1
		c1,1.4,1.9,2.9,2.8,4.4l0.1,0.1c0.9,1.5,1.8,3,2.7,4.6l0.1,0.2c0.8,1.4,1.6,3,2.4,4.6c0,0,0.1,0.1,0.1,0.1c0.8,1.6,1.6,3.2,2.3,4.9
		l0.1,0.1c0.7,1.6,1.5,3.3,2.1,5c0,0.1,0.1,0.1,0.1,0.2c0.7,1.7,1.4,3.5,2,5.3c0,0,0,0.1,0,0.1c0.6,1.8,1.3,3.6,1.9,5.5
		c0,0,0,0.1,0,0.1c3.8,11.9,6.4,25.2,7.9,39.5c20.6,10.4,24.1,30.4,24.7,36.8c0,0,0.1,0.5,0.1,0.5c0,0.1,0,0.2,0,0.3
		c0,0,0-0.1,0-0.2c0,0.2,0,0.4,0.1,0.6c0,0.6,0.1,1.1,0.1,1.6c0,0.5,0,1,0,1.5c0,1.3-0.1,2.6-0.2,4c0,0.4-0.1,0.7-0.1,1.1
		c-0.9,9.5-4.2,18.7-9.8,27.5c2.1,10.6,3.6,27.2,3.5,40.6c0,6.6-0.3,11.5-1.1,15c-0.5,2.2-1.7,4.2-3.5,5.6c-0.6,0.5-1.3,1-1.9,1.4
		c-0.9,0.7-1.9,1.4-3,2.1c0.1,1.9,0.2,3.9,0.2,5.9c0.5,13.6,1,29.1,6,44.2c0.1,0.4,0.5,1.3,0.8,2.1c1.9,4.5,4.8,11.3,2.5,18.1
		c-0.1,0.2-0.2,0.6-0.3,0.9c0,0.1,0,0.1-0.1,0.2c-0.1,0.3-0.3,0.6-0.4,0.9c-0.1,0.2-0.2,0.5-0.4,0.7c-0.1,0.2-0.2,0.4-0.4,0.6
		c-0.2,0.3-0.4,0.6-0.7,0.9c0,0-0.1,0.1-0.1,0.2c-0.2,0.3-0.5,0.6-0.7,0.9c-1.5,1.7-3.3,3.1-5.5,4.1c-2.4,1.1-6,2.1-22.8,2.1
		c-2.3,0-4.8,0-7.4-0.1c-0.1,0-0.3,0-0.4,0c-0.1,0-0.1,0-0.2,0c-19.3-0.3-44.9-1.7-52.6-3.5c-2.9-0.7-5.4-2.6-6.7-5.2
		c-0.2-0.4-0.4-0.9-0.6-1.3c-0.1-0.3-0.2-0.6-0.3-0.9c-3.6,4.3-9.4,5.7-14.3,6.4c-3.7,0.5-7.2,0.6-8.9,0.7c0,0-0.2,0-0.2,0
		c-0.2,0-0.4,0-0.6,0l-0.1,0c-0.1,0-0.4,0-0.5,0h-0.1c-0.2,0-0.3,0-0.5,0c-0.2,0-0.3,0-0.5,0c0,0-0.5,0-0.6,0c-0.5,0-1,0-1.5,0
		c0,0-2.2,0-2.3,0c-0.3,0-0.5,0-0.8,0l-1.8,0c-0.3,0-0.6,0-0.9,0c0,0-3,0.1-3.1,0.1c-0.4,0-0.8,0-1.3,0c-0.1,0-0.3,0-0.3,0
		c-0.2,0-0.4,0-0.6,0c-0.1,0-0.2,0-0.3,0c-0.9,0-1.8,0-2.7,0l-3.2,0c-1.5,0-3,0-4.6,0.1l-2.7,0c-1.3,0-2.7,0-4.1,0
		c-1.4,0-2.8,0-4.3,0.1c-0.9,0-1.9,0-2.8,0c-0.2,0-0.4,0-0.6,0l-7.8,0.1c-1.4,0-2.8,0-4.1,0.1l-7.2,0.1c-3.9,0-7.4-2.2-9-5.7
		c-0.6-1.3-1-2.7-1-4.1c0-1,0.1-2,0.4-3c0.2-0.6,0.4-1.2,0.7-1.8c0.3-0.7,0.7-1.3,1.2-1.9c4.8-5.9,11-11,17.5-14.4
		c1.4-0.7,2.6-1.3,3.8-1.8c0.1-0.1,0.3-0.1,0.4-0.2c-2.1-5.1-3.3-10.7-3.1-16.3c-0.1-0.1-0.2-0.2-0.3-0.3c-0.8-0.7-1.5-1.4-2.1-2
		c-5.2-0.6-8.2-4.5-10.4-9.4c-6.7,4.2-13.7,6.2-21.6,6.2c-10.8,0-21.4-5.7-27.7-11c-1.4-1.2-2.9-2.4-4.3-3.7
		c-0.5-0.4-0.9-0.8-1.4-1.2V320c0,3.5,0.4,4.9,0.6,5.3c0,0,0.1,0.1,0.1,0.1c4.6,3.6,6.9,7.8,6.9,12.3c0,6.6-5.2,13.5-14.9,13.5
		c-8.2,0-17-3.9-23-10.3C132.9,347.9,123.7,351.6,116.1,351.6z M311.3,322.7c0.8,2.5,1.3,5.2,1.5,8.2c0.2-0.3,0.5-0.5,0.7-0.8
		c0.7-0.9,1.6-1.9,2.8-2.9c1.9-1.8,4.1-3.5,6.4-5c-3.4,0.3-6.8,0.5-10.3,0.5C312,322.7,311.6,322.7,311.3,322.7z M192.6,241.8
		c1.7,2.1,3.3,4,5.2,5.9c2.1,2.1,4,3.7,5.6,4.8c0-0.4-0.1-0.7-0.1-1.1c-0.3-4.9,0.2-9.9,1.1-14.8c-4.1,1.4-8.4,2.6-13.1,3.7
		C191.7,240.8,192.2,241.3,192.6,241.8z"/>
	<g>
		<path class="st1" d="M118.5,64.4c8.7-9,15.7-11,32.5-8.4c14.8,2.4,29.6,14.3,40.5,28.3c-4.1,7.4-15.3,14.2-19.4,16.3
			C163.4,96,134.2,76.2,118.5,64.4z"/>
		<g>
			<g>
				<path class="st2" d="M243.2,147c0-0.2,0-0.4,0-0.6c0,0,0,0,0,0c0-0.5-0.1-0.9-0.1-1.4c-0.1-0.8-0.1-1.5-0.2-2.2
					c-0.1-0.5-0.1-1-0.2-1.5c0-0.1,0-0.2,0-0.3c-0.1-0.4-0.1-0.8-0.2-1.2c-0.1-0.4-0.1-0.7-0.2-1.1c-1.6-8.9-4.6-16.3-8.5-22.7
					c-0.5-0.8-1-1.6-1.5-2.3c-0.8-1.3-1.7-2.5-2.6-3.7c0,0,0,0,0,0c-1.8-2.3-3.6-4.5-5.6-6.5c0.3-1.1,0.6-2.2,0.9-3.3c0,0,0,0,0,0
					c2.2-9.6,1.7-20.2-0.6-29.3c0-0.1,0-0.2-0.1-0.3c-0.1-0.5-0.3-1.1-0.4-1.6c-0.8-2.7-1.7-5.2-2.7-7.5c-0.3,0-0.6,0-0.9,0
					c0,0,0,0,0,0c-13.9,0-26.1,5.1-35.6,11.1c0,0-0.1,0-0.1,0.1c-3.1,1.9-5.9,4-8.3,5.9c-11.4-3-19.3-4.3-30.6-4.6
					c-1.9-0.1-3.9-0.1-6.1-0.1c-1.5,0-2.9,0-4.2,0c-6.7,0.1-12.1,0.5-16.9,1.1c-0.1,0-0.2,0-0.3,0c-7.8,1-14,2.5-21.6,4.6
					c-10.2-8.1-27.2-18.3-46.1-18c-5.5,13.5-8.3,28.2-1.6,44.6c-11,11.5-17.8,26.7-17.8,47.4c0,13.1,1.7,24.9,5.7,35.3
					c1.1,2.8,2.4,5.6,3.9,8.2c11,19.6,32.7,32.7,71.2,36.8c4.2,0.5,8.6,0.8,13.3,1c4.6,0.2,9.5,0.3,14.5,0.3c10,0,19.1-0.4,27.3-1.1
					c18.8-1.7,33-5.4,43.8-10.8c0,0,0,0,0,0c0.1,0,0.1-0.1,0.2-0.1c0.9-0.4,1.8-0.9,2.6-1.4c0.1,0,0.2-0.1,0.3-0.1
					c0.9-0.5,1.8-1,2.7-1.6c0,0,0,0,0.1,0c1.8-1.1,3.5-2.3,5.1-3.6c0.3-0.3,0.6-0.5,0.9-0.8c0.3-0.2,0.6-0.5,0.9-0.8
					c1.5-1.3,2.9-2.7,4.2-4l0,0c0,0,0.1-0.1,0.1-0.1l0,0v0c0,0,0.1-0.1,0.1-0.1c0.2-0.2,0.4-0.4,0.6-0.7c0.2-0.3,0.5-0.6,0.7-0.9
					s0.5-0.6,0.7-0.9c0.5-0.7,1-1.3,1.5-2c0.2-0.2,0.4-0.5,0.5-0.8c0.2-0.3,0.4-0.6,0.6-0.9c0.2-0.3,0.4-0.6,0.6-0.9
					c0.1-0.1,0.1-0.2,0.1-0.2h0c0.3-0.6,0.7-1.1,1-1.7c0.2-0.3,0.4-0.7,0.5-1c0.7-1.3,1.4-2.7,2-4v0c1.1-2.6,2.1-5.4,2.9-8.2
					c2-7,3-14.6,3.5-22.8c0.2-3.3,0.3-6.8,0.3-10.3v-0.1c0-0.6,0-1.2,0-1.8C243.4,151.1,243.3,149,243.2,147z M139.5,227.5
					c-38.2,0-67.1-5.2-77.3-28.4c-1-2.2-1.8-4.5-2.4-7c-1-3.9-1.5-8.1-1.6-12.8c0-0.5,0-1.1,0-1.6c0-12.9,8.6-26.8,22.1-32.5
					c5.6-2.3,12.5-3,19.1-3.1c12.9-0.2,18.6,1.6,36.7,1.6c18,0,27.7-1.9,40.6-1.6c6.7,0.1,13.6,0.8,19.1,3.1
					c13.5,5.6,22.1,19.6,22.1,32.5c0,0.5,0,1,0,1.4v0c-0.1,3.7-0.3,7-0.8,10.2C212.5,220.8,187.6,227.5,139.5,227.5z"/>
				<path class="st3" d="M217.8,177.7c0,0.5,0,1,0,1.4c0,0,0,0,0,0c-0.1,3.7-0.3,7.1-0.8,10.2c-4.6,31.5-29.5,38.1-77.6,38.1
					c-38.2,0-67.1-5.2-77.3-28.4c-1-2.2-1.8-4.5-2.4-7c-1-3.9-1.5-8.1-1.6-12.8c0-0.5,0-1.1,0-1.6c0-12.9,8.6-26.8,22.1-32.5
					c5.6-2.3,12.5-3,19.1-3.1c12.9-0.2,18.7,1.6,36.7,1.6s27.7-1.9,40.6-1.6c6.7,0.1,13.6,0.8,19.1,3.1
					C209.3,150.8,217.8,164.8,217.8,177.7z"/>
				<path class="st4" d="M52.4,190.6c-12.6-2.2-27.4-3.1-42.8-2.5"/>
				<path class="st4" d="M11.2,198.5c15.9-1.8,32-2.4,44.9-0.5"/>
				<path class="st4" d="M223.4,188.9c20.1-1.1,64.2-2.1,93.5,5.1"/>
				<path class="st4" d="M222.2,196.7c22.7-0.9,65.5,1.4,93.8,11.3"/>
				<path class="st2" d="M159.3,259.1V320c0,8.9,2.3,11.5,4.6,13.3c2.2,1.8,3,3.2,3,4.5c0,1.3-0.9,3.5-4.9,3.5
					c-8.8,0-20.9-7.6-20.9-19.6v-64.1c0-2.3-0.9-3.6-2.2-3.6s-2.4,1.3-2.4,3.6v63.5c0,14-12.8,20.8-20.7,20.8
					c-2.7,0-4.9-1.5-4.9-3.1c0-1.6,0.2-3.2,3.2-5c3-1.8,4.4-5.3,4.4-10.2v-64.7c-3.5,0.8-5.3,8.6-5.3,16.4v34.2
					c0,17.4-18.4,19.9-23.5,19.9s-7-1.2-7-2.8c0-1.6,1.5-2.9,6.5-5.3s7.3-8.3,7.3-13.2v-45c0-0.5,0-0.9,0-1.4
					c0.1-1.3,0.1-2.5,0.3-3.7c0.1-1,0.3-2.1,0.5-3.1c2.1-10.1,8.1-17.3,14.4-20.8c4.2,0.5,8.6,0.8,13.3,1c4.6,0.2,9.5,0.3,14.5,0.3
					c10,0,19.1-0.4,27.3-1.1c10.5,7.2,14.6,16.8,14.6,27.3v14.1c-7.2-5.9-14.6-13.1-21.7-16C159.6,259.2,159.5,259.1,159.3,259.1z"
					/>
				<path class="st2" d="M97.2,254.5c-0.2,1-0.4,2-0.5,3.1c-0.2,1.2-0.3,2.4-0.3,3.7c0,0.5,0,0.9,0,1.4v11.3
					c-4.1,1.3-9.3,2.1-15.6,2.1c-8,0-22.8-1.3-33.5-19.1c-5.5-9.1-8.5-15-16.9-19.7c-6.7-3.8-8-5.4-8-6.8c0-1.4,2.6-2.8,6.8-2.8
					c13.6,0,21.2,11.4,27.2,20c6,8.5,15.9,11.8,22.6,11.8S90.8,257.9,97.2,254.5z"/>
			</g>
			<path class="st5" d="M217.8,177.7c0,0.5,0,1,0,1.4c-1.2-17.5-15.1-33.5-35.6-33.5c-11.8,0-29.4,2.6-44.2,2.6
				c-14.9,0-30.2-2.2-41.3-2.6c-21.1-0.7-34.9,12-38.5,33.7c0-0.5,0-1.1,0-1.6c0-12.9,8.6-26.8,22.1-32.5c5.6-2.3,12.5-3,19.1-3.1
				c12.9-0.2,18.7,1.6,36.7,1.6s27.7-1.9,40.6-1.6c6.7,0.1,13.6,0.8,19.1,3.1C209.3,150.8,217.8,164.8,217.8,177.7z"/>
			<g>
				<ellipse class="st0" cx="95.8" cy="178" rx="16.4" ry="23.7"/>
				<ellipse class="st6" cx="99.3" cy="173.9" rx="10.7" ry="15.9"/>
				<circle class="st0" cx="94.5" cy="166.9" r="3.3"/>
				<ellipse class="st0" cx="184.8" cy="178" rx="16.4" ry="23.7"/>
				<ellipse class="st6" cx="187.8" cy="173.9" rx="10.7" ry="15.9"/>
				<circle class="st0" cx="184.5" cy="166.9" r="3.3"/>
				<circle class="st6" cx="139.2" cy="199.6" r="4.3"/>
				<path class="st7" d="M130.8,209.4c1.4,7.7,14.7,8,16.7,0"/>
			</g>
			<g>
				
					<ellipse transform="matrix(0.4206 -0.9073 0.9073 0.4206 -189.3672 168.9369)" class="st8" cx="37.6" cy="232.7" rx="1.4" ry="2"/>
				
					<ellipse transform="matrix(0.6299 -0.7767 0.7767 0.6299 -168.1824 121.6382)" class="st8" cx="43.5" cy="237.3" rx="1.7" ry="2.4"/>
				
					<ellipse transform="matrix(0.7935 -0.6086 0.6086 0.7935 -138.4228 80.6097)" class="st8" cx="49.6" cy="244.3" rx="1.9" ry="2.7"/>
				
					<ellipse transform="matrix(0.739 -0.6737 0.6737 0.739 -155.3708 103.4999)" class="st8" cx="55.9" cy="252.3" rx="2" ry="2.9"/>
				
					<ellipse transform="matrix(0.4451 -0.8955 0.8955 0.4451 -196.8078 200.8969)" class="st8" cx="63.7" cy="259.2" rx="2" ry="2.9"/>
				
					<ellipse transform="matrix(0.1655 -0.9862 0.9862 0.1655 -197.2836 291.6372)" class="st8" cx="73.7" cy="262.4" rx="2.1" ry="3"/>
				<ellipse transform="matrix(0.994 -0.1095 0.1095 0.994 -28.2332 10.8256)" class="st8" cx="84.5" cy="262.5" rx="3" ry="2.1"/>
				<path class="st8" d="M96.7,257.5c-0.2,1.2-0.3,2.4-0.3,3.7c-0.2,0.1-0.4,0.3-0.7,0.4c-1.5,0.7-3.2,0.4-3.7-0.7
					c-0.5-1.1,0.3-2.5,1.9-3.2C94.9,257.2,96,257.2,96.7,257.5z"/>
			</g>
		</g>
		<path class="st1" d="M164.4,272C164.3,272,164.3,272,164.4,272c0.1,0.3,0.3,0.5,0.7,0.6C164.7,272.4,164.5,272.3,164.4,272z
			 M405.3,170.3c0-0.2,0-0.3,0-0.5c0-0.1,0-0.2,0-0.4c-0.8-8.7-5.7-24.1-23.6-30.7c-0.2-0.1-0.4-0.1-0.6-0.2h0
			c-5.9-73.6-40.8-108.3-92.4-122.7c-7.6-2.1-16.3-4.1-22.9-4.2c1.7,1.5,2.8,3.5,2.8,3.5c0,0-0.1,0-0.1,0c-3.9,0.4-8.1,0.2-12.1-0.3
			c-6.3-0.9-12.1-2.8-14.9-4.8c0,0,0,0,0,0c0,0,0,0.1-0.1,0.1c-0.2,0.3-0.3,0.5-0.4,0.8c-1.5,3.5,0.2,7.4,3,9.4c-0.1,0-0.2,0-0.2,0
			c-0.2,0-0.4-0.1-0.6-0.1c-0.1,0-0.3,0-0.4-0.1c-2-0.2-4.6-0.2-7.5,0.2c-0.7,0.1-1.3,0.2-2,0.3c-0.6,0.1-1.2,0.3-1.9,0.4
			c-0.1,0-0.2,0.1-0.4,0.1c-0.8,0.2-1.7,0.5-2.5,0.7c0,0,0,0-0.1,0c-3.2,1-6.1,2.4-8.2,4.3c0,0,0,0,0.1,0c0,0,0,0,0,0
			c1.4-0.3,2.6-0.5,3.7-0.7c1.2-0.1,2.3-0.1,3.3,0c1.4,0.2,2.5,0.6,3.4,1.3c0,0-0.1,0-0.1,0c-7.1,1.8-11.5,4.1-15.9,10.9
			c0,0,0,0,0,0s0,0,0,0c1.3-0.4,2.6-0.7,3.9-0.9c2.4-0.4,4.8-0.4,6.7-0.1c0.3,0,0.6,0.1,0.9,0.2c0,0-0.1,0-0.2,0.1
			c-5.6,2.3-9.5,4.6-12.3,8.5c-0.1,0.1-0.2,0.3-0.3,0.5c-0.1,0.1-0.1,0.2-0.2,0.2c-0.2,0.2-0.3,0.5-0.4,0.7c0,0,0,0.1-0.1,0.1
			c-0.2,0.3-0.4,0.6-0.6,1c0,0,0,0.1-0.1,0.1c-0.2,0.3-0.4,0.7-0.5,1c0,0,0,0,0.1,0c5.8-3.9,8.8-4.9,15.3-6.5c0,0-0.1,0.1-0.1,0.1
			c-2.5,2.2-4.6,4.9-6.3,7.8c-0.2,0.4-0.4,0.7-0.6,1.1c-0.2,0.3-0.4,0.7-0.5,1c-0.6,1.1-1.1,2.2-1.5,3.4c-0.1,0.3-0.2,0.6-0.4,0.9
			c-0.1,0.4-0.3,0.8-0.4,1.2c-0.4,1.1-0.7,2.2-1,3.3c-1.7,5.9-2.4,12-2.5,17.7v0.1c-0.1,5.6,0.5,10.7,1.4,14.4
			c3.3,12.8,10.2,25.1,17.7,35.8c1.3,1.8,3,3.9,3.7,6c0.3,1.1,0,3.1,0.6,4c0,0,0.1,0.1,0.1,0.1c0.3,0,0.8-1,1-1c0,0,0,0,0.1,0.1
			c0,0,0,0.1,0,0.1c0.4,1.3,0.5,2.7,0.6,4.1c0.1,0.8,0.1,1.5,0.1,2.2v0.1c0,0.8-0.4,2.4-0.2,2.3c0,0,0.1,0,0.1-0.1c0,0,0,0,0,0
			c0.1-0.1,0.2-0.5,0.3-0.9c0,0,0,0,0,0c0.1-0.1,0.1-0.3,0.2-0.4c0,0,0,0,0-0.1c0.1-0.3,0.4-0.5,0.6-0.5c0,0,0,0,0.1,0h0
			c0.2,0,0.3,0.8,0.4,2.1c0.1,2-0.1,5.1-0.7,8.1c0-0.1,0-0.2,0-0.3c0,0,0,0,0,0c0-0.1-0.1-0.2-0.2-0.2c0,0-0.1,0-0.1,0
			c-0.1,0-0.3,0.2-0.5,0.4c-0.1,0.1-0.1,0.1-0.2,0.2c-0.2,0.2-0.4,0.5-0.7,0.8c-0.8,1-1.6,2.3-1.9,2.9c-0.9,2,1.1,3.8,1,4.8
			c0,0,0,0,0,0c0,0,0,0.1,0,0.1c-0.2,1.3-1.8,3.9-2.5,5.2c-2.7,5.3-6.5,12.1-8.2,19c-0.6,2.7-0.9,5.3-0.8,7.9c0.1,2,0.6,4,1.5,5.9
			c0,0,0,0,0,0.1c0,0,0,0.1,0,0.1c0,0,0,0,0,0.1c-0.5,1.3-1.2,2.9-1.8,4.4c0,0,0,0.1,0,0.1c-0.1,0.3-0.2,0.5-0.4,0.8
			c-0.3,0.6-0.5,1.1-0.7,1.6c-0.2,0.3-0.3,0.7-0.5,1c-0.2,0.4-0.4,0.8-0.6,1.2c-0.9,1.9-1.6,3.4-2.1,4.8c-0.2,0.5-0.4,0.9-0.6,1.3
			c-0.1,0.2-0.1,0.3-0.2,0.5c-0.2,0.6-0.5,1.3-0.8,1.9c-2.7,6.8-5.4,15.1-6.3,23.1c0,0,0,0,0,0c-0.5,4.7-0.4,9.4,0.8,13.8
			c0.6,0.4,1.2,0.7,1.9,1.1c0.4,0.2,0.8,0.4,1.1,0.6c0.5,0.3,1.1,0.5,1.6,0.8c0.5,0.2,1.1,0.5,1.7,0.7c0.5,0.2,1,0.4,1.5,0.7
			c0.1,0,0.2,0.1,0.2,0.1c0.4,0.2,0.9,0.3,1.3,0.5v0.1c0,3.1,0.7,6.4,1.5,9.1c1.1,3.5,2.3,6,2.4,6.1c0,0,0,0,0,0s0,0,0,0
			c0-0.1,0.1-0.2,0.1-0.3c0-0.1,0.1-0.2,0.2-0.4c0.2-0.5,0.5-1.3,0.8-1.9c0.1-0.1,0.2-0.3,0.3-0.4c0.2-0.4,0.5-0.6,0.7-0.7
			c0,0,0,0,0.1,0c0,0,0,0,0.1,0c0.1,0,0.1,0.1,0.2,0.2c0.9,1.4,4.2,13.9,6.5,13.8c0.1,0,0.1,0,0.2,0h0c0.1,0,0-2.7,0.1-3.2h0
			c0-0.1,0-0.1,0.1-0.1c0,0,0,0,0,0c0.8,0.4,2.1,3.4,7.1,7.8c1.4,1.2,2.8,2.3,4.4,3.3c0,0,0,0,0,0c0,0,0,0.1,0,0.1
			c-2.9,10.6,3.3,22.2,8.9,27.6h-0.1c-1.8,0-3.6,0.1-5.4,0.3c-0.4,0.1-0.8,0.1-1.1,0.2c-1.6,0.3-3.1,0.7-4.6,1.2
			c-0.6,0.2-1.2,0.5-1.9,0.7c-1,0.4-2.1,0.9-3,1.4c-5.9,3.1-10.8,7.5-14.3,11.8h0.1c2.3,0,4.6-0.1,6.8-0.1c1.4,0,2.8,0,4.2-0.1
			c1.3,0,2.6,0,3.8,0c1.3,0,2.7,0,4-0.1c0.1,0,0.3,0,0.4,0c1,0,2,0,3,0c1.5,0,2.9,0,4.3-0.1c1.4,0,2.8,0,4.1-0.1c0.9,0,1.8,0,2.6,0
			c1.7,0,3.4,0,5-0.1c0.3,0,0.6,0,0.9,0c0.6,0,1.3,0,1.9,0c1,0,1.9,0,2.8,0c0.3,0,0.6,0,0.9,0h0.1c0.5,0,1,0,1.5,0c0.5,0,1,0,1.5,0
			h0.1c0.5,0,1,0,1.4,0c0.2,0,0.5,0,0.7,0c0.7,0,1.4,0,2,0c0.2,0,0.5,0,0.7,0c0.2,0,0.4,0,0.6,0c0.6,0,1.2,0,1.7,0c0.5,0,1,0,1.4,0
			c0.3,0,0.6,0,0.8,0c0.4,0,0.7,0,1.1,0h0.1c0.2,0,0.4,0,0.6,0c0.1,0,0.2,0,0.3,0c1.4,0,4.7-0.1,8.1-0.6c3.6-0.5,7.2-1.5,8.3-3.2
			c0.1-0.1,0.1-0.2,0.1-0.2c0.1-0.3,0.2-0.6,0.2-0.9c0.2-9.2-6.2-15.8-6.7-21c0,0,0-0.1,0-0.1h0c1.1,0.2,2.3,0.3,3.4,0.4
			c0.4,0,0.9,0.1,1.4,0.1c0.5,0.1,1.1,0.1,1.6,0.2c0.6,0,1.2,0.1,1.8,0.1c0.6,0,1.2,0.1,1.8,0.1h0.1c0.5,0,1,0,1.5,0.1
			c0.4,0,0.8,0,1.2,0c0.4,0,0.8,0,1.2,0c0.7,0,1.3,0,1.9,0h0.1c0.8,0,1.6,0,2.4,0c0.7,0,1.4,0,2.1-0.1c0.2,0,0.4,0,0.7,0
			c0.5,0,1,0,1.4-0.1c0.3,0,0.6,0,0.9-0.1c0.5,0,1-0.1,1.5-0.1c0.5,0,1-0.1,1.5-0.1c1-0.1,2-0.2,3-0.4c0.5-0.1,1-0.1,1.5-0.2
			c0.5-0.1,1-0.1,1.5-0.2c0.5-0.1,1-0.2,1.4-0.3c0.5-0.1,1-0.2,1.4-0.3c1-0.2,1.9-0.4,2.8-0.6c0.4-0.1,0.9-0.2,1.3-0.3
			c0,0,0,0,0.1,0v0c0,0,0,0,0,0.1c1.7,7.9,7.2,11.2,13.3,13.5c-0.1,0-0.1,0-0.2,0c-18.1,3.2-25.1,9.6-29.4,14.9c0,0,0,0,0,0
			c0.6,0.1,1.3,0.3,2.1,0.4c0.3,0.1,0.7,0.1,1.1,0.2c9.2,1.2,29.9,2.4,47.1,2.7c6.7,0.1,12.9,0.1,17.7-0.1c0.4,0,0.7,0,1.1,0
			c0.3,0,0.6,0,0.9-0.1c0.7,0,1.4-0.1,2-0.1c0.1,0,0.2,0,0.4,0c0.2,0,0.4,0,0.7,0c0.9-0.1,1.7-0.2,2.4-0.3c0.7-0.1,1.2-0.3,1.5-0.4
			c1.2-0.6,2.1-1.3,2.6-2.2c0.1-0.1,0.1-0.2,0.2-0.4c2.2-4.2-1.9-11.1-3.1-14.6c-7.1-21.9-5.8-43.3-7.1-60.5c0,0,0,0-0.1,0
			c-25.6,5.1-69.9,8.9-95.2,8.9c-21.3,0-44.9-2.1-63-7.4c0,0,0.1-0.1,0.1-0.1c18,5.3,41.7,7.4,62.9,7.4c25.3-0.1,69.6-3.8,95.2-8.9
			c3.3-0.7,6.3-3.2,8.9-3.9c2.2-10.1-0.2-41-3.3-55.2c5.7-7.8,9.7-16.8,10.7-26.7c0-0.3,0.1-0.6,0.1-0.9c0.1-1.1,0.2-2.2,0.2-3.3
			C405.4,171.9,405.4,171.1,405.3,170.3z M239.6,155.9L239.6,155.9c0-0.1,0-0.2,0-0.2C239.6,155.7,239.6,155.8,239.6,155.9z"/>
		<path class="st9" d="M271.2,338c-10.9,0.2-26.7,0.4-45,0.6c6.4-7.9,17.5-16.2,30.5-15.8c2.4,1.4,4.6,3,6.6,4.8h0
			C266.5,330.5,269.2,333.9,271.2,338z"/>
		<path class="st5" d="M302.4,332.9c0,0.3-0.1,0.6-0.2,0.9c0,0.1-0.1,0.2-0.1,0.2c-1.1,1.8-4.7,2.7-8.3,3.2
			c-3.3,0.5-6.6,0.6-8.1,0.6c-0.1,0-0.2,0-0.3,0c-0.2,0-0.4,0-0.6,0h-0.1c-0.3,0-0.7,0-1.1,0c-0.3,0-0.5,0-0.8,0c-0.4,0-0.9,0-1.4,0
			c-0.5,0-1.1,0-1.7,0c-0.2,0-0.4,0-0.6,0c-0.2,0-0.4,0-0.7,0c-0.6,0-1.3,0-2,0c-0.2,0-0.5,0-0.7,0c-0.5,0-0.9,0-1.4,0h-0.1
			c-0.5,0-1,0-1.5,0c-0.5,0-1,0-1.5,0h-0.1c-0.3,0-0.6,0-0.9,0c-0.9,0-1.8,0-2.8,0c-0.6,0-1.3,0-1.9,0c-0.3,0-0.6,0-0.8,0
			c-1.6,0-3.2,0-5,0.1c-0.9,0-1.7,0-2.6,0c-1.3,0-2.7,0-4.1,0.1c-1.4,0-2.8,0-4.3,0.1c-1,0-2,0-3,0c-0.2,0-0.3,0-0.4,0
			c-1.3,0-2.6,0-4,0.1c-1.3,0-2.5,0-3.8,0c-1.4,0-2.8,0-4.2,0.1c-2.2,0-4.5,0.1-6.8,0.1h-0.1c3.5-4.3,8.4-8.8,14.3-11.8
			c1-0.5,2-1,3-1.4c0.6-0.3,1.2-0.5,1.9-0.7c1.5-0.5,3-0.9,4.6-1.2c0.4-0.1,0.8-0.1,1.1-0.2c1.8-0.3,3.6-0.4,5.4-0.3h0.1
			c-5.5-5.4-11.7-17-8.8-27.6v0c4.5,3,9.8,5.3,14.7,7.5c9.7,4.2,21.3,7.5,33.2,9.1C296.2,317.1,302.6,323.7,302.4,332.9z"/>
		<path class="st5" d="M164.4,272C164.3,272,164.3,272,164.4,272c0.1,0.3,0.3,0.5,0.7,0.6C164.7,272.4,164.5,272.3,164.4,272z
			 M288.7,15.8c-7.6-2.1-16.3-4.1-22.9-4.2c1.7,1.5,2.8,3.5,2.8,3.5c0,0-0.1,0-0.1,0c-3.9,0.4-8.1,0.2-12.1-0.3
			c-6.3-0.9-12.1-2.8-14.9-4.8c0,0,0,0,0,0c0,0,0,0.1-0.1,0.1c-0.2,0.3-0.3,0.5-0.4,0.8c-1.5,3.5,0.2,7.4,3,9.4c-0.1,0-0.2,0-0.2,0
			c-0.2,0-0.4-0.1-0.6-0.1c-0.1,0-0.3,0-0.4-0.1c-2-0.2-4.6-0.2-7.5,0.2c-0.7,0.1-1.3,0.2-2,0.3c-0.6,0.1-1.2,0.3-1.9,0.4
			c-0.1,0-0.2,0.1-0.4,0.1c-0.8,0.2-1.7,0.5-2.5,0.7c0,0,0,0-0.1,0c-3.2,1-6.1,2.4-8.2,4.3c0,0,0,0,0.1,0c0,0,0,0,0,0
			c1.4-0.3,2.6-0.5,3.7-0.7c1.2-0.1,2.3-0.1,3.3,0c1.4,0.2,2.5,0.6,3.4,1.3c0,0-0.1,0-0.1,0c-7.1,1.8-11.5,4.1-15.9,10.9
			c0,0,0,0,0,0s0,0,0,0c1.3-0.4,2.6-0.7,3.9-0.9c2.4-0.4,4.8-0.4,6.7-0.1c0.3,0,0.6,0.1,0.9,0.2c0,0-0.1,0-0.2,0.1
			c-5.6,2.3-9.5,4.6-12.3,8.5c-0.1,0.1-0.2,0.3-0.3,0.5c-0.1,0.1-0.1,0.2-0.2,0.2c-0.2,0.2-0.3,0.5-0.4,0.7c0,0,0,0.1-0.1,0.1
			c-0.2,0.3-0.4,0.6-0.6,1c0,0,0,0.1-0.1,0.1c-0.2,0.3-0.4,0.7-0.5,1c0,0,0,0,0.1,0c5.8-3.9,8.8-4.9,15.3-6.5c0,0-0.1,0.1-0.1,0.1
			c-2.5,2.2-4.6,4.9-6.3,7.8c-0.2,0.4-0.4,0.7-0.6,1.1c-0.2,0.3-0.4,0.7-0.5,1c-0.6,1.1-1.1,2.2-1.5,3.4c-0.1,0.3-0.2,0.6-0.4,0.9
			c-0.1,0.4-0.3,0.8-0.4,1.2c-0.4,1.1-0.7,2.2-1,3.3c-0.9,3-1.4,6.1-1.9,9.1c5.1-10.7,11.9-19,19.8-25.3c1.5-1.2,2.7-3.2,0.8-4.1
			c2.6-1.5,6.6-1,8.1-1.9c1.4-0.8,1.1-2.7-2.7-4.8c6.2-2,10.4,1,12.2,0.4c1.5-0.6-0.2-5.7,3.5-8.3c-0.3,4.1,4.4,5.8,6.1,5.4
			c2.2-0.5,3.1-4.1,7.8-4.5c0.3,2,3.3,2.7,5.5,2.6c5.1-0.3,10.2-0.1,15.2,0.6c24.8,3.2,45.2,17.9,57,50.7
			c7.5,20.8,8.8,41.8,7.8,60.4c6.2-3.8,15.7-6.3,24.9-3.5l0.8-0.5C374.8,64.6,340,30.1,288.7,15.8z"/>
		<path class="st10" d="M405.3,170.3c0-0.2,0-0.3,0-0.5c0-0.1,0-0.2,0-0.4c-0.8-8.7-5.7-24.1-23.6-30.7c-0.2-0.1-0.4-0.1-0.6-0.2h0
			c-10.9-3.7-22.3,0.3-28.4,5.1c-9.4,7.5-17.5,10.8-25.3,13.3c-3.7,1.2-11.3,3-21.6,4.2c-0.1,0-0.1,0-0.2,0
			c-12.5,1.4-28.9,1.8-47-1.1c-0.2,0-0.4,0-0.6-0.1c-6-1-12.1-2.3-18.3-4.1h0c0,0,0,0,0,0h0c0-0.1,0-0.1,0-0.2v0c0-0.1,0-0.1,0-0.2
			c0,0,0,0,0-0.1c0-0.2-0.1-0.2-0.1-0.3c0,0-0.1,0-0.1,0c-0.7,0-2.8,3.2-3.3,4.3c-0.2,0.5-0.3,1-0.2,1.4c0,0.1,0,0.1,0,0.2
			c0.2,1.3,1.3,2.4,1.2,3.2c0,0,0,0,0,0s0,0,0,0c0,0,0,0.1,0,0.1c-0.2,1.3-1.8,3.9-2.5,5.2c-2.7,5.3-6.5,12.1-8.2,19
			c-0.4,1.6-0.7,3.2-0.8,4.8c-0.1,0.9-0.1,1.8,0,2.6c0,0.2,0,0.3,0,0.5c0.1,2.1,0.6,4.1,1.5,6c0,0,0,0,0,0.1
			c0.1,0.2,0.2,0.4,0.2,0.5c0,0,0,0,0,0c-0.7,1.2-1.4,2.5-2.1,3.9c0,0,0,0.1,0,0.1c-0.1,0.2-0.2,0.5-0.4,0.8
			c-0.5,0.9-0.9,1.9-1.4,2.8l0,0c-1.3,2.6-2.4,5.3-3.4,7.6c-3.7,9.3-8,21.5-7.3,32.5c0.1,1.1,0.2,2.1,0.3,3.1
			c0.2,1.1,0.4,2.1,0.7,3.2c0.6,0.4,1.3,0.7,1.9,1.1c0.4,0.2,0.8,0.4,1.1,0.6c0.5,0.3,1.1,0.5,1.6,0.8c1,0.5,2.1,1,3.2,1.4
			c0.1,0,0.2,0.1,0.2,0.1c0.4,0.2,0.9,0.3,1.3,0.5c0,0,0,0,0,0c2.3,0.9,4.8,1.7,7.4,2.5c18,5.3,40.6,9.6,61.9,10.3
			c34.4,1.1,85.2,0.3,105.2-15.8c2.2-10.1-0.2-41-3.3-55.2c0,0,0,0,0-0.1c5.7-7.8,9.7-16.8,10.7-26.6c0-0.3,0.1-0.6,0.1-0.9
			c0.1-1.1,0.2-2.2,0.2-3.3C405.4,171.9,405.4,171.1,405.3,170.3z M332.7,196.4C332.7,196.4,332.7,196.4,332.7,196.4
			c3.2,2.2,7.2,3.6,13.2,8c3,2.1,5.5,4.1,7.6,5.9c6.1,5.2,8.8,8.8,10.3,11.1c0,0,0,0,0,0c0.2,0.4,0.5,0.8,0.7,1.1
			c0.4,0.5,0.7,1,1.1,1.3c0,0,0,0-0.1,0c-0.9,0.7-1.9,1.3-2.8,2c0,0,0,0,0,0c-25.1,16.8-58.2,23.1-86.5,27.1
			c-1.1,0.2-2.2,0.3-3.3,0.4h0c-0.1,0-0.1,0-0.2,0c-10.1,1.3-18.2,2.1-26.2,2.9c-2.6,0.3-4.8,0.5-6.4,0.5c-0.2,0-0.5,0-0.7,0
			c-0.2,0-0.3,0-0.5,0c-0.1,0-0.2,0-0.3,0h0c-0.6,0-1.1-0.1-1.5-0.3c-0.4-0.1-0.7-0.4-0.7-0.7c0,0,0,0,0-0.1v0c0,0,0-0.1,0-0.1
			c0-0.8,0.9-2,2.9-3.9c1.8-1.7,3.8-3.3,6-4.9c2.1-1.4,4.1-2.7,5.9-3.8c5.4-3.3,9.4-5.4,12.8-6.8c0,0,0,0,0,0c0,0,0,0,0.1,0
			c0,0,0,0,0,0c2.9-1.4,5.5-2.5,7.3-3.2C288,226.4,318.9,213.6,332.7,196.4z"/>
		<path class="st5" d="M405.3,170.3c0-0.2,0-0.3,0-0.5c0-0.1,0-0.2,0-0.4c-0.8-8.7-5.7-24.1-23.6-30.7c-0.2-0.1-0.4-0.1-0.6-0.2h0
			c-4.4-1.5-8.9-1.7-13.1-1.2c11.2,1.9,23,10.5,23,28.9c0,12.7-7.1,27.5-18.2,38.6c-4,3.9-9.9,8.2-17.2,7.1c3.2,2.7,7.3,7.9,8.3,9.4
			c0,0,0,0,0,0c0.2,0.4,0.5,0.8,0.7,1.1c0.4,0.5,0.7,1,1.1,1.3c4.8,5.9,19.5-8.4,28.8-20.3c0,0,0,0,0-0.1
			c5.7-7.8,9.7-16.8,10.7-26.6c0-0.3,0.1-0.6,0.1-0.9c0.1-1.1,0.2-2.2,0.2-3.3C405.4,171.9,405.4,171.1,405.3,170.3z"/>
		<path class="st9" d="M369.8,341.6c-19.7-0.3-44.1-1.8-50.6-3.2c4.3-5.4,11.5-11.8,29.6-15c0,0,0,0,0.1,0
			C357.7,326.6,365.9,333.9,369.8,341.6z"/>
		<path class="st5" d="M399.2,337.5c-0.1,0.2-0.2,0.5-0.3,0.7c-0.6,0.9-1.4,1.6-2.6,2.2c-0.3,0.2-0.8,0.3-1.5,0.4
			c-0.6,0.1-1.4,0.2-2.4,0.3c-0.2,0-0.4,0-0.7,0c-0.1,0-0.2,0-0.4,0c-0.6,0.1-1.3,0.1-2,0.1c-0.3,0-0.6,0-0.9,0.1
			c-0.4,0-0.7,0-1.1,0c-4.8,0.2-11,0.2-17.7,0.1c-17.2-0.3-37.9-1.4-47.1-2.7c-0.4,0-0.8-0.1-1.1-0.2c-0.8-0.1-1.5-0.2-2.1-0.4
			c1.8-2.2,2.5-3.1,3.8-4c21.5-9.3,43.3-0.5,49.5,0c7.5,0.7,15.6-0.9,10.4-11.5c-6-12.3-8-22.3-8.8-33.6c-0.8-10-7-12.1-20.8-10.5
			c-13.8,1.5-48.9,3.9-74.4,0c-18.4-2.8-30-6.2-43.1-13c17.1,4.6,37.5,8.1,56.7,8.8c32.9,1.2,74.8-0.3,96.4-10.2
			c1.1,16.9,0.1,37.8,7,59C397.1,326.7,400.9,333.2,399.2,337.5z"/>
		<path class="st9" d="M272.7,253.5c-10.2,1.4-18.4,2.1-26.5,3c-6.2,0.6-10,0.9-10-0.7c0-0.8,0.9-2,2.9-3.9c1.8-1.7,3.8-3.3,6-4.9
			c8.6-5.7,14.3-8.7,18.7-10.6c1.6,1.9,2.6,3.4,4.1,5.4C270.2,245.3,272.3,249.5,272.7,253.5z"/>
		<path class="st5" d="M365.6,223.9c-25.4,18.4-59.9,25-89.4,29.2c-11.7,1.7-20.9,2.5-29.8,3.4c-6.2,0.6-10,0.9-10-0.7
			c3.3-1.6,6.1-3.1,8.8-4.4c16.2,0.4,55-9.2,72.4-14.6c20.2-6.3,37.2-15.7,39.5-23.4c2,2.2,6.2,7,6.7,8c0,0,0,0,0,0
			c0.2,0.4,0.5,0.8,0.7,1.2C364.9,223.1,365.2,223.5,365.6,223.9C365.6,223.9,365.6,223.9,365.6,223.9z"/>
		<path class="st11" d="M298.2,232.2c-0.1-0.2-0.3-0.4-0.4-0.7"/>
		<line class="st11" x1="246.1" y1="273.5" x2="246" y2="279.5"/>
		<line class="st11" x1="252.6" y1="277" x2="252.5" y2="283"/>
		<line class="st12" x1="252.6" y1="277" x2="252.5" y2="283"/>
		<line class="st11" x1="258.7" y1="281" x2="258.7" y2="286.9"/>
		<line class="st12" x1="258.7" y1="281" x2="258.7" y2="286.9"/>
		<g>
			<line class="st12" x1="326.4" y1="221.1" x2="326.4" y2="227.1"/>
			<line class="st12" x1="333.4" y1="223.2" x2="333.4" y2="229.2"/>
		</g>
		<line class="st11" x1="250.1" y1="145.4" x2="250.2" y2="151.4"/>
		<line class="st12" x1="343.4" y1="118" x2="343.5" y2="124"/>
		<line class="st12" x1="349.4" y1="121" x2="349.4" y2="127"/>
		<path class="st11" d="M280,309.8c0,0.2,0,0.5,0,0.7"/>
		<path class="st5" d="M218.1,224.1c3.6-4.3,8-10.1,10.1-11.3c4.3-2.7,10.4-2.3,15.2-2.3c12.4,0,22,10.2,35.2,11.5
			c8.1,0.8,22.4-6.9,20.2-10.8c-1.9-3.2-5-0.7-21.9-1.2c-12.7-0.4-24.2-1.5-36.6-3.6c-3-0.5-10.1-0.5-12.6-5c-0.5,2-2.7,6.8-3.7,8.9
			C221.5,214.9,219.5,220.6,218.1,224.1z"/>
		<path d="M225.8,338.6L225.8,338.6z"/>
		<path class="st13" d="M225.8,338.6"/>
		<path class="st14" d="M239.6,156c41.2,11.8,83.1,3.4,87.7,1.1"/>
		<path class="st14" d="M394.8,204.3c3.3,13.3,5.2,43.8,2.9,54.4c0,0,0,0,0,0.1c-16.5,14.7-66.9,17-105.2,15.7
			c-21.3-0.8-43.9-4.9-61.9-10.2c-2.6-0.8-5-1.6-7.3-2.5c0,0,0,0-0.1,0c-2.7-1.1-5.2-2.2-7.6-3.4c-0.6-0.3-1.2-0.7-1.8-1
			c-0.3-1.1-0.5-2.1-0.7-3.2c-0.2-1-0.3-2.1-0.3-3.1c-0.6-10.2,3.1-21.5,6.6-30.5c0.2-0.7,0.5-1.3,0.8-1.9c0.1-0.3,0.3-0.7,0.4-1
			c0.7-1.7,1.6-3.7,2.4-5.6c0.2-0.4,0.4-0.8,0.6-1.2l0,0v0c0.2-0.4,0.4-0.9,0.6-1.3c0.1-0.2,0.2-0.3,0.2-0.5
			c0.1-0.3,0.3-0.6,0.4-0.9c0.9-1.7,1.7-3.3,2.5-4.7c0,0,0,0,0,0c-0.1-0.2-0.2-0.4-0.2-0.5c0,0,0,0,0-0.1c-0.9-1.9-1.4-4-1.5-6.1
			c0-0.2,0-0.3,0-0.5c-0.1-0.9,0-1.8,0-2.6c0.1-1.6,0.4-3.2,0.8-4.8c1.7-6.9,5.5-13.7,8.2-19c0.7-1.3,2.3-4.1,2.5-5.3c0,0,0,0,0-0.1
			c0,0,0-0.1,0-0.1c0,0,0,0,0,0c0-0.8-1-1.9-1.2-3.2c0-0.1,0-0.1,0-0.2c0-0.4,0-0.9,0.2-1.3c0.3-0.6,1.1-1.9,1.9-3
			c0.2-0.3,0.4-0.6,0.7-0.8c0.1-0.1,0.2-0.2,0.2-0.2c0.2-0.2,0.4-0.3,0.5-0.3c0.1,0,0.2,0,0.2,0.2c0,0,0,0.1,0,0.1
			c0,0.1,0,0.2,0,0.3c0,0,0,0,0,0c0,0,0,0.1,0,0.1h0c0,0,0,0.1,0,0.1c0,0,0,0,0,0.1"/>
		<g>
			<path class="st15" d="M215.6,84.7c0-8.9,2.7-19.6,9.7-22.8c8.2-3.7,17.1,1.6,25.4-0.8c1.5-0.4,4.3-2.1,4.9-3.7
				c0.6-1.5-0.8-3.1-0.8-3.1c1.4,0.1,3.2,1.7,4.9,1.8c6.7,0.3,11.8-6.9,17-10c17.4-10.5,32.7-12,47.3,4.2c3.3,3.6,9.1,12.4,9.4,23.7
				c0.4,16.4,0.2,23.4-13.5,39.2c-16.2,18.7-55.2,35.5-81.9,14.2C225.5,117.4,215.7,101.3,215.6,84.7z"/>
			<path class="st16" d="M255.4,82.5c-7.7-1.8-9.9,12.6-7.1,22.2c2.3,8.1,8.2,12.7,14.9,13.7c12.3,1.9,26.9-3.1,31.4-12
				c4.3-8.4,0.8-17.8-5.8-23.1c-7.2-5.9-17.3-8.7-22.9-4.6L255.4,82.5z"/>
			<path class="st16" d="M215.7,84.7c0.2,8.1,2,17.9,10,29.5c6-2.8,14.7-9.3,18.9-22.1c4.3-13.1,2.5-28.7-0.2-30.4
				c-6.6-0.4-12.8-2.8-19.4,0.4C221.6,63.7,215.4,69.7,215.7,84.7z"/>
			<path class="st16" d="M269.5,51.8c11.5,41.5,60.3,47.8,63.3,39.6c1.9-5.3,3.6-27.4-8.3-40.6c-4.7-5.2-13.6-13.8-26.6-12.6
				C285.6,39.3,274.9,46.2,269.5,51.8z"/>
			<path class="st2" d="M251.3,83.6c-0.8-2.6,3.7-6.2,10-8.1c6.3-1.9,12-1.3,12.8,1.3c0.8,2.6-3.7,6.2-10,8.1
				C257.8,86.8,252.1,86.2,251.3,83.6z"/>
		</g>
		<path class="st14" d="M246,158.1c-0.6,1.7-1.2,3-1.2,4.9"/>
		<path class="st14" d="M256.5,160.2c-0.8,1.6-0.9,3.6-0.9,5.4"/>
		<line class="st14" x1="269.1" y1="161.8" x2="268.4" y2="166"/>
		<polyline class="st14" points="278,163 278,163.7 278,164.1 278,164.8 278,165.3 278,165.8 278,166.2 		"/>
		<polyline class="st14" points="273.1,163.2 273.1,163.7 273.1,164.1 273.1,164.6 273.1,165.1 273.1,165.5 		"/>
		<polyline class="st14" points="307.8,161.8 307.8,162.3 307.8,162.7 307.8,163.7 307.8,164.1 		"/>
		<polyline class="st14" points="311.3,161.8 311.3,162.5 311.3,163.2 311.3,163.7 		"/>
		<g>
			<g>
				<g>
					<path class="st17" d="M269,198.9c-0.5-1.7-2-3-4.8-3.1c-5.8-0.3-11.8-0.4-19.1-0.6c-0.2,0.6-0.4,1.1-0.6,1.7
						c-1.2,3.3-2.9,6.4-4.7,9.4c-0.4,0.8-0.9,1.5-1.3,2.3c-2.8,4.9-5.4,9.8-5.7,15.7c3.3,0,6.4,0.1,9.7,0.2
						c-0.2-4.2,1.4-8.1,3.5-11.8c2.9-0.4,3.4,0.8,3.6,2.5c0.3,3.1,1.1,6.3,2.8,9.7c3.5,0.2,6.8,0.4,10.5,0.7
						c-2.4-4.2-1.8-8.7-3.5-11.8c-0.4-0.8-0.9-1.4-1.7-2c0.5-0.1,0.8-0.2,1.1-0.2c1.8-0.5,3.4-1.2,4.8-2.1c2.5-1.6,4.3-3.9,5.2-6.7
						C269.3,201.4,269.4,200.1,269,198.9z M259.5,204.3c-0.8,1.4-2.2,2.5-4,2.6c-2,0.2-3.9,0.2-6,0.2c1.3-2.1,2.3-3.9,3.2-5.8
						c2,0,3.9-0.1,5.6,0.1C259.9,201.7,260.3,202.9,259.5,204.3z"/>
					<path class="st17" d="M295.7,204.3c-3.2,0.2-6.1,0.3-9,0.5c0.4-2.6-0.7-3.9-3-4c-1.5-0.1-2.9,0.4-4,2.2c-0.4,1.5,0.3,2,1.3,2.3
						c1.9,0.6,3.8,1.2,5.7,1.8c1.1,0.4,2.1,0.8,3.1,1.4c6.3,3.4,2.9,12.2-3.2,16.2c-2,1.3-4.4,2.1-6.5,2.4c-3.5,0.5-6.9,0.2-10.2-1
						c-4.3-1.5-6.8-5.6-4.9-10.5c2.8,0,5.5,0,8.5-0.1c0,0.6-0.1,1.2-0.1,1.7c0.1,3,2.9,4.5,6.1,3.5c1.4-0.5,2.6-1.4,3.1-2.8
						c0.4-1.3,0-2.3-1-2.8c-0.9-0.5-1.8-0.8-2.7-1.1c-1.9-0.7-3.8-1.3-5.5-2.2c-3.1-1.8-3.5-4.6-2-7.9c1.7-3.7,4.6-6.7,8.5-7.8
						c3.7-1.1,7.4-1.1,11.2,0.2C295,197.3,296.7,199.8,295.7,204.3z"/>
				</g>
			</g>
		</g>
		<g>
			<path class="st11" d="M269.2,59.6C269.2,59.6,269.1,59.6,269.2,59.6"/>
		</g>
		<path class="st18" d="M268.4,53.5c17.1-19.2,34.6-24.9,66.8-3.4"/>
		<path class="st18" d="M250,59.6c-20.3-2.7-34.1,2.6-42.2,37.4"/>
		<path class="st14" d="M381,138.6C381,138.6,381,138.6,381,138.6c-5.9-73.7-40.8-108.4-92.4-122.8c-7.6-2.1-16.3-4.1-22.9-4.2
			c0,0-0.1,0-0.1,0c1.6,1.3,2.6,3.1,2.8,3.5c0,0.1,0,0.1,0,0.1c-10.1,1.1-22.4-1.8-27.1-5.1c-0.2,0.3-0.3,0.5-0.4,0.8
			c-1.6,3.4,0,7.3,2.8,9.3c0.1,0.1,0.1,0.1,0.2,0.2c-5.1-1.2-17.5,0.6-23.7,5.8c0,0-0.1,0.1-0.1,0.1c5-1.2,8.3-1,10.4,0.5
			c0,0,0,0,0.1,0.1c-7.2,1.8-11.5,4-16,10.8c0,0-0.1,0.1-0.1,0.1c4.1-1.3,8.4-1.6,11.5-0.9c0,0,0.1,0,0.1,0
			c-5.7,2.4-9.6,4.6-12.4,8.5c-0.1,0.2-0.2,0.3-0.3,0.5c-0.1,0.1-0.1,0.1-0.1,0.2c-0.2,0.2-0.3,0.5-0.4,0.7c0,0,0,0.1-0.1,0.1
			c-0.2,0.3-0.4,0.6-0.6,1c0,0,0,0.1-0.1,0.1c-0.2,0.3-0.4,0.7-0.5,1c0,0,0,0.1-0.1,0.1c5.8-3.9,8.8-4.9,15.3-6.5c0,0,0,0,0.1,0
			c-2.5,2.2-4.6,4.9-6.3,7.8c-0.2,0.4-0.4,0.7-0.6,1.1c-0.2,0.3-0.4,0.7-0.5,1c-0.6,1.1-1.1,2.2-1.5,3.4c-0.1,0.3-0.3,0.6-0.4,0.9
			c-0.2,0.4-0.3,0.8-0.4,1.2c-0.4,1.1-0.7,2.2-1.1,3.3c-1.7,5.9-2.4,12.1-2.5,17.8c-0.1,5.7,0.5,10.8,1.4,14.5
			c3.3,12.8,10.2,25.1,17.7,35.8c1.3,1.8,3,3.9,3.7,6c0.3,1.1,0,3.1,0.6,4c0.3,0.4,1-1.3,1.2-0.8c0.1,0.4,0.2,0.7,0.2,1.1
			c0.1,0.4,0.1,0.8,0.2,1.2c0,0.1,0,0.2,0,0.3c0.2,1.3,0.2,2.6,0.3,3.8c0,0,0,0.1,0,0.1c0,0.8-0.5,2.9-0.1,2.3c0,0,0,0,0-0.1
			c0,0,0,0,0,0c0.1-0.2,0.2-0.6,0.3-1c0.1-0.1,0.1-0.3,0.2-0.4c0,0,0-0.1,0-0.1c0.2-0.2,0.4-0.4,0.6-0.4c0.4,0.1,0.6,5-0.3,9.9
			c0,0,0,0,0,0c0,0.1-0.1,0.3-0.1,0.4c0,0,0,0,0,0c0,0,0,0.1,0,0.1c0,0,0,0.1,0,0.1"/>
		<path class="st14" d="M223.3,261.6c-0.2,7.4,3.9,15.4,3.9,15.4s1.6-4.8,2.4-3.5c0.9,1.5,4.4,14.5,6.7,13.8c0.1,0,0-3.5,0.2-3.3
			c0.8,0.4,2,3.3,7.1,7.9c5.4,4.8,12.5,7.9,19.1,10.8c24.5,10.7,60.9,15,85.3,2.8"/>
		<path class="st14" d="M247.8,295.5c-3.2,10.8,3.3,21.9,8.9,27.3c-12.9-0.4-24.1,7.9-30.5,15.8"/>
		<path class="st14" d="M226.2,338.6c30.5-0.4,54.2-0.7,59.5-0.9c3.2-0.1,16.6-0.5,16.7-4.9c0.2-9.3-6.3-15.1-6.6-20.4"/>
		<path class="st14" d="M335.7,310.2c1.7,8.2,7,11,13.2,13.2"/>
		<path class="st14" d="M388.9,264.2c1.1,16.9,0.1,37.8,7,59c1.4,4.4,7.4,13.9,0.3,17.2c-6,2.7-66.3,0.3-77-2.1
			c4.3-5.4,11.4-11.8,29.6-15"/>
		<path class="st14" d="M256.7,322.8c6.2,3.7,11.2,8.5,14.5,15.1"/>
		<path class="st14" d="M348.9,323.4c9,3.3,16.9,10.4,20.8,18.2"/>
		<path class="st14" d="M226.2,338.6c8.1-5,22.8-12.7,37.1-10.9"/>
		<path class="st14" d="M321.2,338.5c7.7-3.9,17.2-6.7,26.5-7.8c4.1-0.5,8.1-0.7,11.9-0.5"/>
		<path class="st14" d="M237,164.3c7.6,5.6,39.4,12.4,80.6,5.9"/>
		<path class="st19" d="M265.9,96c-2.9-4.9-3.3-11.7-3.3-11.6"/>
		<g>
			<path class="st17" d="M286.7,62.6c1.9-8.7,10.7-11.8,18.6-9.2c2.4,0.7,4.5,1.8,6.5,3.1c0.6,0.4,0.8,1.2,0.4,1.8
				c-0.3,0.5-0.9,0.7-1.4,0.6c-4.1-0.9-8.4-2-12.5-1.5c-4.1,0.5-6.9,2.9-9.3,6.2C288.3,64.9,286.4,64,286.7,62.6L286.7,62.6z"/>
		</g>
		<g>
			<path class="st17" d="M222.7,87.5c0.5-6.8,6.3-12.1,13.3-11c2.1,0.3,4,0.9,5.7,1.8c0.6,0.3,0.9,1.1,0.6,1.8
				c-0.3,0.5-0.8,0.8-1.4,0.7c-3.2-0.5-6.7-0.9-9.6,0.5c-2.9,1.4-4.5,4.2-6.1,7C224.6,89.5,222.6,88.9,222.7,87.5L222.7,87.5z"/>
		</g>
		<path class="st19" d="M253.2,93c1.5,5.2,9.2,10.7,12.7,3c6.5,5.8,10.9-3.8,8.7-10.2"/>
		<g>
			<path class="st9" d="M125.5,58.1c-14.3,8.4-13.8,26.4-7.5,30.6c7.9,5.3,4.2-4.1,17.3-10.5c5.2-2.6,9.5-3.8,4-14
				C135.9,57.6,130.9,54.9,125.5,58.1z"/>
			<path class="st14" d="M125.5,58.1c-14.3,8.4-13.2,26.9-7.5,30.6c8.4,5.4,4.2-4.1,17.3-10.5c5.2-2.6,9.5-3.8,4-14
				C135.9,57.6,130.9,54.9,125.5,58.1z"/>
		</g>
		<path class="st14" d="M129,56.8c15.5-4.4,34.7-1.5,53.2,17.1"/>
		<g>
			<path class="st2" d="M236.7,196.5c1.1-2.6,2.1-5.4,2.9-8.2c2.9-10.3,4.1-21.4,1.6-35.1c-0.5-2.9-2.3-8.2-5.9-13.3
				c-14.4,21.2-9.3,55.5-24.7,83.3C223.8,216.6,231.9,207.6,236.7,196.5z"/>
		</g>
		<g>
			<path class="st14" d="M268.1,241.8c-10.8,3-17.9,7.1-32,14.1"/>
			<g>
				<g>
					<path class="st14" d="M340.7,154.4c0.6,6.6,0.4,15.1-2.3,21.4c-1.4,3.2-4,7.1-4.9,10.4c-4.2,4.1-6.7,6.2-0.6,10.3"/>
					<path class="st14" d="M340.3,168.2c2.1-3.1,5.1-7,6.1-10.6"/>
					<path class="st14" d="M345.2,203.9c11.1,7.4,17.2,15,18.6,17.4c0,0,0,0,0,0c0.2,0.4,0.5,0.8,0.7,1.2c0.3,0.5,0.7,0.9,1.1,1.3
						c0,0,0,0,0.1,0.1c3.2,3,7.5,0.1,11.4-2.9c6.5-5,12.5-10.9,17.4-17.5c5.7-7.9,9.7-16.8,10.7-26.7c0-0.3,0.1-0.6,0.1-0.9
						c0.1-1.1,0.2-2.2,0.2-3.3c0-0.7,0-1.4-0.1-2.3c0-0.2,0-0.3,0-0.5c0-0.1,0-0.2,0-0.4c-0.9-8.7-5.8-24-23.6-30.6
						c-0.2-0.1-0.4-0.1-0.6-0.2c-10.9-3.7-22.4,0.2-28.4,5.1"/>
				</g>
				<path class="st14" d="M332.7,196.5c-13.8,17.2-44.8,30-61.7,36.8c-6.6,2.6-22.2,9.8-31.8,18.6c-6.1,5.7-2.1,5.5,7.1,4.6
					c8.9-0.9,18.1-1.8,29.8-3.4c29.5-4.2,64.1-10.8,89.4-29.2"/>
			</g>
		</g>
		<path class="st2" d="M253.5,251.8c-4.3,0.9-7.9,2.7-11,5c0,0-0.1,0-0.1,0.1c0,0,0,0,0,0c-2.9,2.1-5.4,4.7-7.6,7.2
			c0,0-0.1,0-0.1,0.1c-1.8,2-3.4,4-5,5.7c-0.3,0.3-0.5,0.6-0.8,0.9l0,0c-9.8,10.7-18,13.1-26.1,13.1c-7.3,0-15.7-4-21.3-8.6
			c-7.2-5.9-14.6-13.1-21.7-16c-0.1-0.1-0.3-0.1-0.4-0.2l7.5-25.2c12.4,5.2,15.9,13.2,23.5,20.9c8.2,8.2,16.2,13,26.5,5.7
			c1-0.7,1.9-1.4,2.9-2.2c0,0,0,0,0.1-0.1c0,0,0,0,0,0c9.4-7.3,19.5-17.3,35.2-15.1c0,0,0.1,0,0.1,0c0,0,0.1,0,0.1,0
			c0.3,0,0.6,0.1,0.9,0.1c2.7,0.5,4.5,1.3,5.4,2.2C263.4,247.6,261.1,250.2,253.5,251.8z"/>
		<path class="st14" d="M263.9,236.7c3.4,3.2,8.4,9.8,9,16.6"/>
		<path class="st14" d="M333.4,186.2c12.2,5.3,23.2,10.8,36.3,27.2"/>
		<path class="st14" d="M141,67.5"/>
		<path class="st5" d="M397.9,258.7c-10.4,8.4-29.2,12.6-49.7,14.6c0.3-0.1,0.6-0.1,0.8-0.2c23.2-4,24.7-13.8,26.4-22.3
			c1.6-8.1,1.3-26.1-1.8-27.3c1.2-0.7,2.4-1.6,3.6-2.5c6.5-5,12.5-10.8,17.4-17.5C397.7,217.7,400.1,248.6,397.9,258.7z"/>
		<path class="st14" d="M341.5,189.9c-0.7,0.9-1.2,1.6-1.5,2.7"/>
		<path class="st14" d="M347.4,193.2c-0.6,0.6-1.5,1.7-2.1,2.7"/>
		<path class="st14" d="M358,200.9c-0.9,0.6-2,1.9-2.7,3"/>
	</g>
</g>
</svg>
