<svg width="329" height="382" viewBox="0 0 329 382" fill="none" xmlns="http://www.w3.org/2000/svg">
<g clip-path="url(#clip0_14_399)">
<path d="M8.90001 313.5L200.9 380.7C203.1 381.5 205.7 381.9 208.4 381.9C213.3 381.9 218.2 380.6 221.8 378.3L317.8 317C321.5 314.6 323.8 310.6 324.2 305.9V305.8C325.8 302.6 325.7 299.8 325.2 297.9C325 297.3 324.8 296.7 324.6 296.2L328.5 151.8C328.5 151.7 328.5 151.7 328.5 151.6C328.5 150.9 328.5 150.2 328.4 149.5C327.4 139.5 319.3 131.1 309.4 129.8L265.2 125.7C266.7 50 185.4 18.1 183.5 17.4C183 17.2 182.5 17.1 181.9 17C173 12.8 163.6 9.3 156.6 7.6C155.8 7.4 155 7.3 154.2 7.3C153.2 7 152.3 6.9 151.3 6.9C149.9 6.9 148.5 7.2 147.2 7.9C146.2 8.4 145.3 9.1 144.5 9.9C141.2 9 137.8 8 134.5 7C133.1 6.6 131.7 6.1 130.2 5.7C129.6 5.3 128.8 4.8 128.2 4.3C127.6 3.9 127 3.5 126.5 3.1C125.8 2.4 124.8 1.6 123.6 1C122.3 0.4 120.9 0 119.5 0C116.9 0 115 1 113.7 2C111.1 3.5 108.7 6.3 108.4 10.6C105.4 10.9 103 12 101.2 12.9C99.5 13.2 97.8 13.5 96.3 13.9C92.8 14.7 89.1 16 85.8 17.7C81.7 19.1 80.3 22.5 79.9 23.9C79.5 25.4 79.5 27 79.8 28.5C79.3 28.8 77.8 29.7 76.5 30.7C74.1 32.4 70.4 35 70.1 39.8C70 41.4 70.3 43 71 44.4C66.8 47.3 64 50.4 64 54.9C64 59.2 66.9 62.8 70.9 63.8C70.8 64 70.7 64.3 70.6 64.5C69.1 67.6 67.8 70.9 66.7 74.3C65 78.7 63.7 83.5 62.8 88.7H59.4C54.1 88.7 49.8 93 49.8 98.3C49.8 103.6 54.1 107.9 59.4 107.9H60.9C60.2 131.5 65.6 154.6 70.1 173.7C72.4 183.4 74.3 191.8 75.1 198.5L74.5 206.7C73.1 207.9 72 209.3 71.3 210.3C66.8 215 65.4 218.5 65.1 220.9C63.9 221.5 62.7 222.1 62.2 222.4C54.2 226.1 27.3 240.1 18.1 265.1C18 265.4 17.9 265.7 17.8 266C14.9 273.3 13.2 281.3 12.8 289.8L8.30001 291.7C7.40001 292.1 6.60001 292.5 5.80001 293C2.00001 295.4 -0.0999927 299 0.100007 303C0.100007 304.6 0.900007 310.7 8.90001 313.5ZM319.3 150.2C319.3 150.6 319.4 151 319.4 151.4C319.4 151 319.3 150.6 319.3 150.2C319.3 149.7 319.2 149.3 319.1 148.9C319.2 149.3 319.3 149.8 319.3 150.2ZM294.1 110.7L285.8 112.8L294.1 110.7ZM274.1 98.6C274 98.6 274 98.6 273.9 98.6H273.8C273.9 98.6 274 98.6 274.1 98.6ZM263.9 133C263.7 131.9 263.4 130.9 263.2 129.8C264.6 129.5 266 129.3 267.3 129C266 129.2 264.6 129.5 263.2 129.8C263.5 130.9 263.7 131.9 263.9 133ZM208.6 372.9C208.5 372.9 208.5 372.9 208.4 372.9C208.3 372.9 208.3 372.9 208.2 372.9C208.3 372.9 208.4 372.9 208.6 372.9ZM151.2 15.8C151.2 15.8 151.1 15.8 151.2 15.8C151.1 15.8 151.2 15.8 151.2 15.8ZM119.6 9C119.6 9 119.5 9 119.6 9C119.5 9 119.5 9 119.6 9ZM118.6 9.6C118.5 9.6 118.6 9.6 118.6 9.6V9.6ZM110.3 19.5C110.5 19.5 110.6 19.5 110.8 19.5C110.5 19.5 110.3 19.5 110 19.5C110.1 19.5 110.2 19.5 110.3 19.5ZM108.6 19.6C108 19.7 107.4 19.9 106.8 20.1C107.4 19.9 108 19.8 108.6 19.6ZM96.4 30.3C96.5 30.3 96.7 30.3 96.8 30.3C96.9 30.3 96.9 30.3 97 30.3C96.9 30.3 96.7 30.3 96.4 30.3ZM100.3 29.2H100.2H100.3ZM98.4 22.6C98.8 22.5 99.2 22.4 99.7 22.3C99.2 22.4 98.8 22.5 98.4 22.6C97.6 22.8 96.8 23 96 23.2C96.8 23 97.6 22.8 98.4 22.6ZM84.3 194.3C84.7 196.4 84.9 198.1 85.1 199.5C85 198.1 84.7 196.4 84.3 194.3ZM84.2 206.5C84.3 206.3 84.5 206 84.6 205.8C84.5 206 84.4 206.3 84.2 206.5ZM83.9 212.5C84.1 212.5 84.4 212.5 84.6 212.5C84.3 212.5 83.9 212.4 83.6 212.5C83.7 212.5 83.8 212.5 83.9 212.5ZM83.5 41.8C83.4 41.8 83.4 41.8 83.3 41.8H83.2C83.3 41.8 83.4 41.8 83.5 41.8ZM81.3 41.3C81.3 41.4 81.4 41.4 81.4 41.5C81.4 41.4 81.4 41.4 81.3 41.3C81.3 41.2 81.3 41.1 81.3 41.1C81.3 41.2 81.3 41.2 81.3 41.3ZM75 54.2C76.4 53.8 78 53.7 79.5 53.4C77.9 53.7 76.4 53.8 75 54.2Z" fill="white"/>
<path d="M77.1 225.3C76.2 224.5 74.3 223.3 74.1 221.9C73.8 219.5 80.4 212.6 82.8 212C87.4 210.8 93.9 216.8 98.5 218.5C99.7 219 103.3 218.4 104 219.4C106.5 222.7 105.9 236.2 106.4 240.8C106.6 242.4 108.6 257.9 108.3 258.2C107.1 259.8 90.8 265.1 89 264.5C87.1 263.8 84.9 261.1 83.1 260C78.6 257.4 71.7 257.7 66.7 256.8C62 256 56.3 253.3 51.7 256.3C47.9 258.7 44.3 259 40.3 261C36.2 263.1 32 268.9 29.7 272.8C28.4 275 25.8 294.8 23.4 294.3C22.3 294.1 23 288.3 23.1 287.6C24.2 281.2 24.5 273.3 26.7 267.2C32.8 250.5 50.3 236.9 66.1 229.6C67.7 228.9 74.5 225.5 75.2 224C76.2 222.1 72.6 220.8 76.5 219.7" fill="#FFDB1F"/>
<path d="M37.7 289.2C47.4 295.3 56.2 298.4 67.6 299.6" stroke="#2D1F04" stroke-width="2.8223" stroke-miterlimit="10" stroke-linecap="round" stroke-linejoin="round"/>
<path d="M35.6 290.6C48.3 298.7 64.1 304.2 79.1 298.6" stroke="#2D1F04" stroke-width="2.8223" stroke-miterlimit="10" stroke-linecap="round" stroke-linejoin="round"/>
<path d="M92.2 49.8C88.8 49.8 80.1 67 78.1 70.5C63.4 96.5 72 143.2 82 183C89.3 212.4 82.1 201.7 84.2 210.3C85.7 216.3 105.8 220.6 111.9 222.2C135.2 228.1 156.8 216 180.2 216C186 216 202.9 217.8 207.7 212.9C211.8 208.7 213.1 203.3 216.4 198.6C220.9 192.2 231.3 184.5 238.6 181.6C246.1 178.6 255.4 180.4 262.8 182.3C264.7 182.8 270.3 185.2 272.2 183.3C275.2 180.2 276.7 171.2 275.9 167.3C273.8 156.9 262.3 188.5 260.3 178.4C258.9 171.5 263.8 133.7 261.3 127.1C251.4 101 242.2 64.1 220.1 47.8C214.5 43.7 205.3 36.5 198.9 33.3C192.8 30.2 188.6 29.8 182.5 26.7C174.4 22.6 162.9 17.8 154.3 15.7C152.1 15.1 155.2 19 155 19.4C154.7 20 149.4 19.9 148.6 19.7C141.4 18.2 134 18.4 127.1 15.3C126 14.8 119.9 8.50001 118.6 9.00001C114.5 10.4 122.4 23.8 122.4 23.8C122.4 23.8 121.8 22.8 121.4 22.4C119.4 20.8 114.9 19.5 112.3 19C106.8 17.9 104.5 21.5 99.9 22.4C99.3 22.5 93.9 24 93.9 24.1C93.9 25.3 102.6 26.6 102.6 27.8C102.6 28.9 100.7 28.4 100.2 28.5C97.6 28.9 80.3 37.4 81.3 40.6C81.8 42 92.3 39.8 93.8 40.7C94.2 40.9 95.1 41 95.1 41C95.1 41 89 41.9 86 42.7C82.3 43.6 74.6 52.2 81.3 52.2" fill="#CAA77A"/>
<path d="M76.2 102.5C79 90.9 86.1 77.9 96.3 76C108.3 73.7 118.4 83.5 130 83.1C132.2 83 136.4 81.7 137.7 79.8C138.9 78 137.7 75.5 137.7 75.5C139.5 76 141.4 78.7 143.6 79.4C152.3 82 161.4 74.2 169.3 71.8C195.7 63.7 216.2 66.6 230.3 92.4C233.5 98.2 238.3 111.4 235 126.2C230.2 147.8 227.7 156.8 204.6 172.9C177.2 192.1 120.3 201.6 92 165.3C78.7 148.2 71 124.2 76.2 102.5Z" fill="#FFDBAF"/>
<path d="M129.3 112.4C119.7 107.6 112 132 112.7 139.1C115.3 163.2 150.1 161.9 166.3 153.8C189.6 142 161.1 104 144.5 110.8" fill="#9D7B51"/>
<path d="M76.8 100.4C71.6 110 74.4 137.8 81.5 146.4C82.1 146.2 120.5 136.5 117.5 96.9C117.3 94.5 93.3 98.3 89.8 99C85.1 100 78.9 96.5 76.8 100.4Z" fill="#9D7B51"/>
<path d="M163.8 98.2C161.3 142.3 224.6 162.3 231.3 152.5C235.6 146.2 241.3 112.9 230.1 93C229 91.1 216.6 95.2 214.6 95.6C198 98.3 164.2 90.1 163.8 98.2Z" fill="#9D7B51"/>
<path d="M104.1 188.9V196.9" stroke="#9D7B51" stroke-width="4.1689" stroke-miterlimit="10" stroke-linecap="round" stroke-linejoin="round"/>
<path d="M111.9 193V201" stroke="#9D7B51" stroke-width="4.1689" stroke-miterlimit="10" stroke-linecap="round" stroke-linejoin="round"/>
<path d="M181.6 99.8C181.6 103.4 182.3 105.9 183.5 107.5C187.1 112.2 195.2 109.6 203.3 108.2C212.1 106.7 214 101.2 215.6 97.9" fill="white"/>
<path d="M82.9 97.8C75.5 117.4 106.3 115.3 111.9 100.4L82.9 97.8Z" fill="white"/>
<path opacity="0.23" d="M75 52.2C80.7 52.2 85.5 50.6 91 49.3C92.5 48.9 95.7 47.2 95.7 48.8C95.7 49.2 95.1 49.1 94.8 49.3C90.1 52.2 86.2 56.3 83.5 61.2C82.6 62.9 80 67.6 80.7 66.4C102.3 27 258.9 12.2 249.9 172.3C249.8 173.7 248.1 176.1 249.4 176.6C252.2 177.6 256.7 174.8 260.2 176.1C261.8 176.7 273.1 183.1 274.3 182.3C276.3 180.9 265.3 174.7 265.6 172.3C273.6 118.4 234.9 62 216.7 46.3C193.4 26.3 154.6 17.4 153.7 17.2C153.5 17.2 149.9 19.4 148 19.1C141.2 18 133.6 15.3 126.8 13.4C125.8 13.1 119.5 8.19999 119.3 8.59999C118.5 10.2 118.1 18.8 118.8 20.1C119.3 21 122.7 19.6 121.6 19.6C112.9 19.6 101.8 22.5 92.4 24.4C92.1 24.5 91.5 24.5 91.5 24.9C91.5 27.6 103.8 25.8 103.8 27.8C103.8 29.2 86.8 34 84.5 35.9C83.8 36.5 81 38.6 81.7 39.2C84 41.5 89.6 38.6 92.5 40.2" fill="#3F2719"/>
<path d="M94.3 48C87.9 52.4 82 60.9 78.8 67.7C53.4 121.9 91.4 189.4 83.3 210.7" stroke="#2D1F04" stroke-width="2.8223" stroke-miterlimit="10" stroke-linecap="round" stroke-linejoin="round"/>
<path d="M92.4 48.9C89.3 50.5 87.2 50.5 84 51.4C82.4 51.9 81.1 52.5 79.5 52.8C78 53.1 76.5 53.2 75 53.6C74.3 53.8 73 54.9 73 54.2C73 52.1 89.9 42.6 93.1 41.5C93.6 41.3 94.3 41.4 94.5 40.9C94.7 40.2 93.2 40.2 92.5 40.1C89.3 39.3 81.7 41.8 79.1 39.8C78.4 39.3 84.1 35.7 84.4 35.6C87.9 33.6 91.4 31.1 95.3 30C97.6 29.3 102.3 31 102.3 28.6C102.3 25.7 89.6 26.8 88.6 25.8C88.5 25.7 89 25.6 89.2 25.5C92.1 24 95.3 22.9 98.4 22.1C104.2 20.7 114.5 19.3 120.2 21.3" stroke="#2D1F04" stroke-width="2.8223" stroke-miterlimit="10" stroke-linecap="round" stroke-linejoin="round"/>
<path d="M121.1 22.6C119.5 19.3 116.5 13.8 118 9.9C118.1 9.7 119.4 8.3 119.7 8.5C120.8 9.1 121.6 11.1 123 11.9C128.5 14.9 134.7 17 140.9 18.4C144.5 19.2 148.2 19.6 151.8 20.4C152.6 20.6 154.3 20.7 154.3 20.7C154.3 20.7 149.4 16.3 151.2 15.3C151.5 15.1 165.5 20.4 166.8 20.9C176.8 24.8 187 27.2 196.5 31.9" stroke="#2D1F04" stroke-width="2.8223" stroke-miterlimit="10" stroke-linecap="round" stroke-linejoin="round"/>
<path d="M180.6 25.4C250.6 48.9 267.7 135.6 267.7 185.7" stroke="#2D1F04" stroke-width="2.8223" stroke-miterlimit="10" stroke-linecap="round" stroke-linejoin="round"/>
<path d="M275.8 172.4C276 173.9 275.6 176 275.5 178" stroke="#2D1F04" stroke-width="2.8223" stroke-miterlimit="10" stroke-linecap="round" stroke-linejoin="round"/>
<path d="M276.1 174.9C276.4 176.8 276 178.6 276.3 180.4" stroke="#2D1F04" stroke-width="2.8223" stroke-miterlimit="10" stroke-linecap="round" stroke-linejoin="round"/>
<path d="M237.9 94.6L60.3 97.8" stroke="#2D1F04" stroke-width="8.187" stroke-miterlimit="10" stroke-linecap="round" stroke-linejoin="round"/>
<path d="M178.7 100.5C184.2 117.3 213.3 112 213.9 98.3" stroke="#2D1F04" stroke-width="3.2856" stroke-miterlimit="10" stroke-linecap="round" stroke-linejoin="round"/>
<path d="M81.9 102.9C79.5 115 112.3 116 112.3 100.7" stroke="#2D1F04" stroke-width="3.2856" stroke-miterlimit="10" stroke-linecap="round" stroke-linejoin="round"/>
<path d="M123.6 112.5C123.4 108.9 130.5 105.5 139.4 105.1C148.3 104.7 155.7 107.3 155.8 110.9C156 114.5 148.9 117.9 140 118.3C131.1 118.7 123.8 116.1 123.6 112.5Z" fill="#251707"/>
<path d="M199.6 97.8C199.9 97.6 200.2 97.4 200.5 97.2" stroke="#2D1F04" stroke-width="3.2856" stroke-miterlimit="10" stroke-linecap="round" stroke-linejoin="round"/>
<path d="M139.7 119.4C139.7 133 147.3 117 157.8 122.3" stroke="#2D1F04" stroke-width="3.2856" stroke-miterlimit="10" stroke-linecap="round" stroke-linejoin="round"/>
<path d="M98.4 100.2C98.4 97.2 100.8 94.8 103.7 94.8C106.6 94.8 109 97.2 109 100.2C109 103.2 106.6 105.6 103.7 105.6C100.8 105.6 98.4 103.2 98.4 100.2Z" fill="#2D1F04"/>
<path d="M198.7 98.2C198.7 95.2 201.1 92.8 204 92.8C206.9 92.8 209.3 95.2 209.3 98.2C209.3 101.2 206.9 103.6 204 103.6C201.1 103.6 198.7 101.2 198.7 98.2Z" fill="#2D1F04"/>
<path d="M191.4 104.1C191 104.1 190.6 104 190.1 104L191.4 104.1Z" fill="#2D1F04"/>
<path d="M122 256.9L312 298.8C315.9 299.6 316.4 306.6 313 308.8L217 370.1C213.6 372.3 207.8 372.9 204 371.6L12 304.5C8.19999 303.2 8.09999 300.8 11.8 299.3L98.2 262.7C102 261.1 118 256.1 122 256.9Z" fill="#E7E7E7"/>
<path d="M122 256.9L312 298.8C315.9 299.6 316.4 306.6 313 308.8L217 370.1C213.6 372.3 207.8 372.9 204 371.6L12 304.5C8.19999 303.2 8.09999 300.8 11.8 299.3L98.2 262.7C102 261.1 118 256.1 122 256.9Z" stroke="#2D1F04" stroke-width="2.8223" stroke-miterlimit="10" stroke-linecap="round" stroke-linejoin="round"/>
<path d="M124.8 256.4L314.8 298.3C318.7 299.1 314.9 303.5 311.6 305.6L213.5 367.3C210.1 369.5 203.9 367.8 200.1 366.5L16.3 302.7C12.5 301.4 10.7 301.5 14.4 300L94.9 264.9L101.1 262.2C104.8 260.6 120.9 255.6 124.8 256.4Z" fill="#D2D2D2"/>
<path d="M107 112.6L308.2 138.1C314.4 138.9 319.4 144.6 319.4 150.9L315.3 303.9L107 258.2L96.5 122.5C96.1 116.3 100.8 111.8 107 112.6Z" fill="#D2D2D2"/>
<path d="M107 112.6L308.2 138.1C314.4 138.9 319.4 144.6 319.4 150.9L315.3 303.9L107 258.2L96.5 122.5C96.1 116.3 100.8 111.8 107 112.6Z" stroke="#2D1F04" stroke-width="2.8223" stroke-miterlimit="10" stroke-linecap="round" stroke-linejoin="round"/>
<path d="M108.1 112.3L304.9 137.8C311 138.6 315.9 144.3 315.9 150.6L311.4 302.4L108.7 256.2L97.8 122.2C97.4 115.9 102 111.5 108.1 112.3Z" fill="#222222"/>
<path d="M108.1 112.3L304.9 137.8C311 138.6 315.9 144.3 315.9 150.6L311.4 302.4L108.7 256.2L97.8 122.2C97.4 115.9 102 111.5 108.1 112.3Z" stroke="#2D1F04" stroke-width="2.8223" stroke-miterlimit="10" stroke-linecap="round" stroke-linejoin="round"/>
<path d="M101.2 123.6L304.1 151.6L304.2 291.5L125.7 254.2L109.5 250.8L101.2 123.6Z" fill="#FAFAFA"/>
<path d="M101.2 123.6L304.1 151.6L304.2 291.5L125.7 254.2L109.5 250.8L101.2 123.6Z" stroke="#2D1F04" stroke-width="2.8223" stroke-miterlimit="10" stroke-linecap="round" stroke-linejoin="round"/>
<path d="M105.9 264.4L293.4 306.8L243.9 336.6L59.3 283.7L105.9 264.4Z" fill="#222222"/>
<path d="M66.2 279.7L262.8 333.1" stroke="#D2D2D2" stroke-width="1.6266" stroke-miterlimit="10" stroke-linecap="round" stroke-linejoin="round"/>
<path d="M78 274.5L272.5 327.5" stroke="#D2D2D2" stroke-width="1.6266" stroke-miterlimit="10" stroke-linecap="round" stroke-linejoin="round"/>
<path d="M87 269.3L280.7 319.6" stroke="#D2D2D2" stroke-width="1.6266" stroke-miterlimit="10" stroke-linecap="round" stroke-linejoin="round"/>
<path d="M98 265.8L280.1 309.7L288.8 311.8L292.3 312.7" stroke="#D2D2D2" stroke-width="1.6266" stroke-miterlimit="10" stroke-linecap="round" stroke-linejoin="round"/>
<path d="M227.4 336.7L281.1 301.9" stroke="#D2D2D2" stroke-width="1.6266" stroke-miterlimit="10" stroke-linecap="round" stroke-linejoin="round"/>
<path d="M213 332.7L264.6 298.5" stroke="#D2D2D2" stroke-width="1.6266" stroke-miterlimit="10" stroke-linecap="round" stroke-linejoin="round"/>
<path d="M197.2 327.7L250.2 293.6" stroke="#D2D2D2" stroke-width="1.6266" stroke-miterlimit="10" stroke-linecap="round" stroke-linejoin="round"/>
<path d="M184.3 322.6L236 290.7" stroke="#D2D2D2" stroke-width="1.6266" stroke-miterlimit="10" stroke-linecap="round" stroke-linejoin="round"/>
<path d="M182 311.1L221.4 286.5" stroke="#D2D2D2" stroke-width="1.6266" stroke-miterlimit="10" stroke-linecap="round" stroke-linejoin="round"/>
<path d="M168.5 307L192.5 292.4L206.4 283.9" stroke="#D2D2D2" stroke-width="1.6266" stroke-miterlimit="10" stroke-linecap="round" stroke-linejoin="round"/>
<path d="M155 303.6L189.4 281.3" stroke="#D2D2D2" stroke-width="1.6266" stroke-miterlimit="10" stroke-linecap="round" stroke-linejoin="round"/>
<path d="M139 299.4L174.2 277.4" stroke="#D2D2D2" stroke-width="1.6266" stroke-miterlimit="10" stroke-linecap="round" stroke-linejoin="round"/>
<path d="M123.6 295.4C123.6 295.4 160.2 274.1 160.7 274.7" stroke="#D2D2D2" stroke-width="1.6266" stroke-miterlimit="10" stroke-linecap="round" stroke-linejoin="round"/>
<path d="M88.9 302L94.4 298.9L146.9 271.5" stroke="#D2D2D2" stroke-width="1.6266" stroke-miterlimit="10" stroke-linecap="round" stroke-linejoin="round"/>
<path d="M72.8 300.4L134.6 267.6" stroke="#D2D2D2" stroke-width="1.6266" stroke-miterlimit="10" stroke-linecap="round" stroke-linejoin="round"/>
<path d="M52.8 297.9L121.9 264.9" stroke="#D2D2D2" stroke-width="1.6266" stroke-miterlimit="10" stroke-linecap="round" stroke-linejoin="round"/>
<path d="M83.7 211.9C80.4 211 78.1 216.1 75.9 219.2C72.9 223.5 77.7 223.4 72.4 226.5C54.6 237 21.1 250.9 21.8 294.3" stroke="#2D1F04" stroke-width="2.8223" stroke-miterlimit="10" stroke-linecap="round" stroke-linejoin="round"/>
<path d="M84 211.6C93.1 217.7 94.9 218.5 106.1 219.9" stroke="#2D1F04" stroke-width="2.8223" stroke-miterlimit="10" stroke-linecap="round" stroke-linejoin="round"/>
<path d="M75.3 224.6C82.8 230.5 89.1 232.8 98.7 234.8" stroke="#2D1F04" stroke-width="2.8223" stroke-miterlimit="10" stroke-linecap="round" stroke-linejoin="round"/>
<path d="M116.6 303.2L181.4 321.8C182.7 322.2 182.8 323 181.6 323.6L148.1 340.8C146.9 341.4 144.9 341.6 143.6 341.1L78.2 319.1C76.9 318.7 76.9 317.9 78.1 317.4L111.9 303.4C113.2 302.9 115.3 302.8 116.6 303.2Z" fill="#F0F0F0"/>
<path d="M237.9 163.8C237.4 163.2 237.7 162.1 237.2 161.5C236.9 161.1 236.5 160.7 236.1 160.3C233.1 157.6 234.8 165.2 237.8 164.3C239.1 163.9 241.1 160.5 243.9 161.3C244.8 161.6 238.7 164.9 237.9 163.8Z" fill="#FAFAFA"/>
<path d="M161 178.1C161.5 177.5 161.2 176.4 161.7 175.8C162 175.4 162.4 175 162.8 174.6C165.8 171.9 164.1 179.5 161.1 178.6C159.8 178.2 157.8 174.8 155 175.6C154 175.9 160.2 179.2 161 178.1Z" fill="#FAFAFA"/>
<path d="M180.4 153.4C180.9 152.9 180.9 151.8 181.4 151.2C181.7 150.8 182.1 150.5 182.5 150.2C185.3 148.1 182.5 155.2 180.4 153.8C179.5 153.2 178.6 149.6 176.3 149.9C175.4 150.2 179.5 154.4 180.4 153.4Z" fill="#FAFAFA"/>
<path d="M178.4 215.2C178.2 215.2 178.1 215.3 178.1 215.5C178.1 215.7 178.2 215.8 178.4 215.8C178.6 215.8 178.7 215.7 178.7 215.5C178.7 215.3 178.6 215.2 178.4 215.2Z" fill="#281D07"/>
<path d="M26.2 291.4C23.6 280.9 34.1 263.4 47.1 259C50.6 257.8 56.1 255.2 59.8 256C60.4 256.1 69.9 256.5 69.9 256.1C69.9 255.9 73 257.7 72.9 257.7C67.9 256.4 56.3 261.4 52.7 264.3C47.4 268.5 44.9 277.3 41.2 282.8C40.2 284.3 41.8 285.3 42.8 285C43.1 284.8 26.2 291.8 26.2 291.4Z" fill="#CAA77A"/>
<path d="M42 282.8C41.5 277 46.7 271 50.8 267.1C53.7 264.4 69.2 254 72.9 256.4C77.6 259.4 83.4 261.5 88.1 265C91.6 267.7 96 270.1 97.3 274.6C99.3 281.7 102.3 289.6 105.7 296.1C106.1 296.8 108.3 301.9 106.7 302.1C105 302.3 102.2 298.3 101.1 297.4C98.3 294.8 86 282.3 81.7 284.9C76.4 288.1 69.4 293.2 63 293.8C59.8 294.1 44.9 287.9 42.8 285.3C42.2 284.7 42.1 283.9 42 282.8Z" fill="#D2D2D2"/>
<path d="M25.6 293.1C24.6 289.5 26 282.1 27.2 278.8C33.3 262.5 51.2 253.6 67.8 255.6C73.3 256.3 78.7 258.2 83.4 261.4C92.5 267.6 106.8 288.5 106.6 301.3C106.6 301.8 107.2 302.6 103.7 299.7C99 295.8 89.7 287.8 87.1 286C81.3 281.9 72 293.2 64.6 293.2C57.2 293.2 46.5 290.3 41 286" stroke="#2D1F04" stroke-width="2.8223" stroke-miterlimit="10" stroke-linecap="round" stroke-linejoin="round"/>
<path d="M40.6 287C49 263.4 57.3 260.9 72.3 256.7" stroke="#2D1F04" stroke-width="2.8223" stroke-miterlimit="10" stroke-linecap="round" stroke-linejoin="round"/>
<path d="M53.9 264.8C56.7 264 90 286.5 106 301.7" stroke="#2D1F04" stroke-width="2.8223" stroke-miterlimit="10" stroke-linecap="round" stroke-linejoin="round"/>
<path d="M47.1 274.2C55.4 281.1 64.8 286.6 75.3 288.4" stroke="#2D1F04" stroke-width="2.8223" stroke-miterlimit="10" stroke-linecap="round" stroke-linejoin="round"/>
<path opacity="0.23" d="M35.5 290.4C34.3 291.2 49.5 299.8 53.6 300.8C65.5 303.8 75.5 295.7 86.9 298.8C89.1 299.4 107 305.1 108.2 303.2C109 302 102.7 299.3 101.9 298.5C97.6 294.3 90.9 287 84.8 285.1C77.8 282.9 72.2 293 65.2 293.1C61.6 293.2 57.9 293.4 54.4 292.5C49.9 291.4 46 287.3 41.4 286.8C39.8 286.7 37.1 289.3 35.5 290.4Z" fill="#3F2719"/>
<path opacity="0.23" d="M104.1 225.6C102.7 233.7 105.6 256.2 90 265.8C91.9 266.1 94.5 263.7 96.1 262.8C99.6 260.8 104.4 260.7 107.5 258.3C107.7 258.2 107.9 258 107.9 257.7C108.5 253.2 105.9 245.5 105.4 240.9C105.1 237.9 104.1 234.3 104.5 231.3C104.7 229.4 104.4 223.8 104.1 225.6Z" fill="#3F2719"/>
<path d="M88 215.5L84.2 222.5" stroke="#2D1F04" stroke-width="2.8008" stroke-miterlimit="10" stroke-linecap="round" stroke-linejoin="round"/>
<path d="M92.9 218L89.1 224.9" stroke="#2D1F04" stroke-width="2.8008" stroke-miterlimit="10" stroke-linecap="round" stroke-linejoin="round"/>
<path d="M100.6 56.2L100.7 63.6" stroke="#9D7B51" stroke-width="4.0719" stroke-miterlimit="10" stroke-linecap="round" stroke-linejoin="round"/>
<path d="M107.1 58.7V66" stroke="#9D7B51" stroke-width="4.0719" stroke-miterlimit="10" stroke-linecap="round" stroke-linejoin="round"/>
<path d="M93 197.8L93.1 205.2" stroke="#9D7B51" stroke-width="4.0719" stroke-miterlimit="10" stroke-linecap="round" stroke-linejoin="round"/>
<path d="M255.064 64L245 69.1388L254.323 87.3964L264.387 82.2576L255.064 64Z" fill="white"/>
<path d="M270.932 108L260 110.861L265.19 130.693L276.122 127.832L270.932 108Z" fill="white"/>
<path d="M276.7 97.3689L265.483 96L263 116.349L274.217 117.718L276.7 97.3689Z" fill="white"/>
<path d="M209.625 20L203 29.1545L219.608 41.1725L226.232 32.018L209.625 20Z" fill="white"/>
<path d="M198.16 6.99999L189.055 8.44522L192 27L201.105 25.5548L198.16 6.99999Z" fill="white"/>
<path d="M119.587 169.366C119.587 177.28 119.667 183.733 119.799 183.733C120.012 183.733 126.465 184.715 127.766 184.928L128.616 185.087V179.218C128.616 175.58 128.722 173.376 128.881 173.376C129.014 173.376 129.625 173.562 130.209 173.801C131.616 174.359 132.227 175.288 135.254 181.343C136.609 184.051 137.724 186.282 137.751 186.309C137.883 186.468 146.832 187.743 147.231 187.663C147.576 187.61 147.231 186.68 145.319 182.724C142.876 177.652 141.442 175.501 139.848 174.518L138.892 173.934L139.663 173.775C141.575 173.35 142.743 172.739 143.699 171.65C144.894 170.269 145.345 168.995 145.345 166.817C145.345 162.276 142.796 159.249 137.883 158.001C136.795 157.735 132.572 157.018 128.483 156.407C124.393 155.797 120.729 155.239 120.33 155.159L119.587 155V169.366ZM131.908 162.754C135.228 163.259 136.449 164.188 136.449 166.233C136.449 168.278 134.83 168.888 130.873 168.331L128.616 168.012V165.091V162.17L129.359 162.329C129.757 162.409 130.899 162.595 131.908 162.754Z" fill="black"/>
<path d="M195.402 166.844C193.516 167.322 192.534 167.879 191.445 169.18C189.188 171.809 189.453 176.058 192.082 179.032C193.331 180.466 196.464 182.299 200.368 183.892C204.192 185.459 205.387 186.229 205.891 187.45C206.608 189.15 205.201 190.796 203.103 190.743C200.474 190.69 198.243 189.123 197.632 186.866C197.473 186.229 197.287 185.592 197.261 185.432C197.181 185.114 189.241 184.37 188.949 184.636C188.657 184.954 189.4 187.822 190.224 189.469C191.711 192.522 194.791 194.753 198.987 195.789C206.422 197.621 211.547 196.479 213.725 192.469C214.336 191.327 214.522 190.637 214.601 188.911C214.734 186.229 214.097 184.343 212.344 182.405C210.751 180.626 208.361 179.245 203.368 177.227C201.085 176.297 198.987 175.341 198.695 175.076C197.978 174.438 198.031 173.004 198.774 172.473C199.996 171.597 202.705 172.128 204.006 173.482C204.457 173.934 204.988 174.784 205.174 175.368L205.546 176.43L209.609 176.749C211.866 176.935 213.725 177.041 213.778 177.014C213.99 176.802 213.061 173.828 212.397 172.633C210.698 169.473 207.458 167.693 201.988 166.87C198.907 166.392 197.208 166.392 195.402 166.844Z" fill="black"/>
<path d="M124.234 204.286C122.508 204.844 121.552 205.428 120.569 206.57C118.073 209.491 118.711 214.059 122.056 217.086C123.729 218.626 125.509 219.609 129.651 221.308C133.13 222.716 134.245 223.406 134.83 224.389C135.493 225.477 135.361 226.433 134.458 227.336C133.688 228.106 133.555 228.133 131.855 228.027C130.528 227.947 129.837 227.761 129.094 227.283C127.899 226.486 126.863 224.92 126.624 223.565L126.465 222.556L124.818 222.397C123.915 222.317 122.216 222.185 121.047 222.078C119.879 221.999 118.711 221.866 118.472 221.813C117.834 221.627 117.834 222.503 118.525 224.681C119.135 226.672 120.702 229.222 122.003 230.31C124.34 232.302 128.563 233.603 133.342 233.842C136.025 233.975 136.874 233.922 138.122 233.55C140.486 232.833 141.946 231.612 142.982 229.514C143.752 227.947 143.858 227.469 143.832 225.849C143.779 222.556 142.477 220.14 139.663 218.122C138.069 216.98 133.98 215.015 131.643 214.271C129.014 213.421 127.288 212.2 127.288 211.164C127.288 210.102 128.191 209.491 129.678 209.491C131.935 209.491 133.927 210.845 134.325 212.678C134.431 213.129 134.591 213.528 134.723 213.607C135.042 213.793 142.77 214.537 142.929 214.404C142.982 214.324 142.823 213.501 142.584 212.572C141.282 207.765 137.724 205.189 131.085 204.207C128.589 203.835 125.562 203.861 124.234 204.286Z" fill="black"/>
<path d="M148.266 221.414C148.266 229.328 148.346 235.781 148.479 235.781C148.585 235.781 153.498 236.498 159.393 237.374C165.288 238.25 170.281 238.967 170.493 238.967C170.759 238.967 170.838 238.197 170.838 235.436V231.93L164.545 231.027C161.066 230.523 158.012 230.045 157.747 229.939C157.295 229.806 157.269 229.142 157.295 219.237V208.695L156.711 208.456C156.366 208.349 154.666 208.031 152.914 207.792C151.161 207.553 149.408 207.287 149.01 207.207L148.266 207.048V221.414Z" fill="black"/>
<path d="M182.947 212.465C178.061 212.917 174.715 215.891 173.467 220.91C172.963 222.928 173.042 227.788 173.6 229.939C175.14 236.02 179.23 240.003 185.576 241.623C191.551 243.163 196.305 242.34 199.332 239.313C200.978 237.666 201.855 235.834 202.359 232.939C203.076 228.77 202.519 224.495 200.766 220.91C198.004 215.28 190.622 211.748 182.947 212.465ZM190.17 220.087C191.525 220.777 192.746 222.397 193.277 224.203C193.702 225.637 193.835 229.461 193.516 231.16C192.906 234.426 191.047 235.834 187.94 235.409C185.576 235.09 183.824 233.736 182.735 231.399C182.204 230.231 182.124 229.673 182.124 226.486C182.124 223.141 182.177 222.822 182.788 221.733C183.16 221.096 183.771 220.326 184.169 220.034C185.576 218.971 188.073 218.998 190.17 220.087Z" fill="black"/>
<path d="M204.298 218.892C204.298 220.883 204.377 222.503 204.51 222.503C204.723 222.503 211.176 223.486 212.477 223.698L213.327 223.858V234.586C213.327 240.508 213.406 245.341 213.486 245.341C213.672 245.341 220.337 246.35 221.373 246.536L222.09 246.642V235.914C222.09 228.478 222.169 225.159 222.382 225.159C222.647 225.159 228.968 226.088 230.402 226.354L231.119 226.46V222.902V219.343L230.269 219.184C229.791 219.104 224.081 218.254 217.575 217.325C211.069 216.369 205.44 215.519 205.041 215.44L204.298 215.28V218.892Z" fill="black"/>
<path d="M235.102 234.187C235.102 242.074 235.128 248.527 235.181 248.527C235.208 248.527 237.147 248.819 239.483 249.165C241.82 249.536 243.838 249.722 243.945 249.616C244.051 249.51 244.104 246.934 244.077 243.933C243.998 238.596 244.024 238.436 244.529 238.436C245.432 238.436 252.734 239.525 253.106 239.711C253.398 239.87 253.451 241.092 253.425 245.527L253.398 251.156L254.009 251.289C254.7 251.448 261.949 252.511 262.268 252.511C262.374 252.511 262.454 246.084 262.454 238.224V223.937L258.338 223.326C256.08 222.981 254.036 222.769 253.823 222.875C253.451 223.008 253.398 223.698 253.425 227.708C253.451 230.257 253.425 232.408 253.372 232.461C253.319 232.541 251.3 232.275 248.91 231.93C246.494 231.559 244.449 231.266 244.343 231.266C244.21 231.266 244.131 229.062 244.131 226.38C244.131 223.672 244.024 221.414 243.918 221.335C243.785 221.255 242.086 220.963 240.121 220.644C238.156 220.352 236.244 220.06 235.845 219.98L235.102 219.848V234.187Z" fill="black"/>
<path d="M274.138 225.929C272.279 226.194 270.022 227.416 269.119 228.637C267.632 230.682 267.393 233.789 268.561 236.153C269.862 238.888 272.757 240.932 278.652 243.322C282.768 244.995 283.963 245.978 283.963 247.598C283.963 249.324 282.37 250.333 280.166 250.014C277.776 249.643 276.023 248.049 275.413 245.686C275.227 244.863 274.988 244.517 274.563 244.411C273.554 244.199 266.915 243.721 266.782 243.854C266.49 244.119 267.34 247.067 268.19 248.766C270.447 253.254 275.545 255.724 282.768 255.803C286.645 255.83 288.132 255.405 290.018 253.706C292.939 251.077 293.47 246.456 291.266 242.977C289.699 240.481 286.008 238.197 280.007 236.02C276.262 234.665 275.2 233.364 276.661 231.93C277.378 231.187 278.095 231.107 279.9 231.559C281.387 231.957 282.662 233.178 283.114 234.639L283.432 235.701L287.097 235.993C292.169 236.418 291.744 236.498 291.531 235.329C290.761 231.16 288.132 228.398 283.565 226.911C282.184 226.46 277.139 225.69 275.997 225.743C275.625 225.743 274.802 225.849 274.138 225.929Z" fill="black"/>
<mask id="path-90-outside-1_14_399" maskUnits="userSpaceOnUse" x="175" y="0" width="108" height="132" fill="black">
<rect fill="white" x="175" width="108" height="132"/>
<path d="M181.623 4.2625C180.618 4.61432 179.739 5.41846 179.337 6.39851C178.834 7.55446 178.909 9.66534 179.462 10.8716C180.618 13.3342 184.161 15.5205 187.378 15.7215L189.162 15.8221L189.715 14.2389C190.017 13.3594 190.318 12.4547 190.419 12.2285C190.544 11.927 189.991 11.5752 187.906 10.6203C186.448 9.94176 185.217 9.4643 185.167 9.51456C185.116 9.56482 185.016 9.91663 184.94 10.2684C184.79 10.8464 184.915 10.9721 186.147 11.5752C187.579 12.2788 187.755 12.5804 187.202 13.3594C186.75 13.9876 184.89 13.6861 183.382 12.7311C182.277 12.0275 181.272 10.4946 181.246 9.48943C181.246 7.7555 182.528 5.97131 183.835 5.97131C185.795 5.97131 188.534 7.70524 188.534 8.91146C188.534 9.31353 188.785 9.48943 189.64 9.7156C191.097 10.0674 191.047 10.0674 191.047 9.48943C191.047 7.65498 188.333 5.34307 185.041 4.36302C183.483 3.91069 182.704 3.88556 181.623 4.2625Z"/>
<path d="M194.213 9.8915C194.113 10.2684 194.062 10.57 194.113 10.5951C194.163 10.6203 194.64 10.9218 195.193 11.2234C196.123 11.7762 196.198 11.7762 196.5 11.349C197.028 10.6203 196.877 10.2936 195.821 9.74072C194.54 9.08736 194.389 9.11249 194.213 9.8915Z"/>
<path d="M193.56 11.5752C193.56 11.6003 193.007 13.1081 192.303 14.8923C191.625 16.6765 191.072 18.1591 191.122 18.1842C191.147 18.2094 191.65 18.4607 192.228 18.7371L193.258 19.2648L194.54 16.1488C195.244 14.4399 195.821 12.9573 195.821 12.8317C195.821 12.7311 195.369 12.3793 194.816 12.0527C193.912 11.5249 193.56 11.3993 193.56 11.5752Z"/>
<path d="M197.405 14.7918C197.505 15.5456 197.581 17.4052 197.581 18.9632V21.7526L198.46 22.3055C198.963 22.607 199.49 22.8081 199.666 22.7327C199.817 22.6573 201.3 21.7024 202.933 20.5967L205.924 18.5612L204.868 17.9078C203.587 17.1037 203.436 17.1539 201.174 19.0135L199.616 20.27L199.465 14.641L197.254 13.4348L197.405 14.7918Z"/>
<path d="M205.999 21.627C204.014 23.6122 204.466 26.3513 207.105 28.1606C207.959 28.7386 208.587 28.9648 209.668 29.0402C210.497 29.1156 211.15 29.0402 211.251 28.8894C211.502 28.4622 209.668 27.2057 208.914 27.2811C208.009 27.3816 206.878 26.2759 206.878 25.2959C206.878 24.9189 206.954 24.542 207.079 24.4917C207.18 24.4163 208.411 25.1954 209.819 26.2257L212.407 28.0852L212.784 27.3314C212.985 26.9293 213.161 26.0498 213.161 25.3461C213.161 24.341 213.01 23.9138 212.357 23.0342C211.276 21.627 209.668 20.7977 208.06 20.7977C207.004 20.7977 206.703 20.9233 205.999 21.627ZM210.522 23.185C211.1 23.7378 211.377 25.0194 211 25.3964C210.924 25.4718 210.271 25.12 209.567 24.6425C207.758 23.3609 207.758 23.386 208.135 22.9337C208.612 22.3557 209.819 22.4562 210.522 23.185Z"/>
<path d="M219.192 30.8746C218.564 31.7039 217.86 32.7091 217.634 33.0609C216.453 34.8702 217.835 37.2072 220.398 37.7601C221.051 37.8857 221.177 38.0114 220.951 38.2627C220.75 38.514 220.926 38.7653 221.68 39.3684L222.66 40.1474L227.258 35.0461L225.449 33.2368L223.765 35.0712C221.856 37.1318 221.026 37.4083 219.971 36.2774C219.192 35.4482 219.368 34.8953 221.077 32.7593C221.83 31.8044 222.459 30.95 222.459 30.8495C222.459 30.6233 220.8 29.3417 220.524 29.3417C220.423 29.3417 219.82 30.0453 219.192 30.8746Z"/>
<path d="M227.661 37.8355C226.806 38.7653 227.133 39.9212 228.992 42.5598C229.545 43.3388 229.922 44.0927 229.847 44.1932C229.319 45.0476 227.233 43.3388 227.233 42.0572C227.233 41.429 227.032 41.1274 226.228 40.5746L225.248 39.871L225.072 40.4992C224.57 42.5096 228.063 46.4046 230.4 46.4298C230.701 46.4298 231.254 46.1785 231.631 45.8769C232.561 45.1482 232.385 44.1681 230.927 41.9567C229.394 39.6197 229.42 39.6699 229.872 39.494C230.45 39.2679 231.757 40.5746 231.757 41.3787C231.757 41.8311 232.083 42.2834 232.762 42.8362C233.692 43.6404 233.742 43.6404 233.893 43.1378C234.194 42.2331 233.792 41.0269 232.837 39.8961C230.978 37.735 228.615 36.78 227.661 37.8355Z"/>
<path d="M239.873 48.3145C238.567 48.8673 236.556 50.9028 236.28 51.9331C235.777 53.8681 237.235 56.2805 239.471 57.1349C240.502 57.537 240.728 57.537 241.658 57.2103C243.693 56.5067 244.02 54.1445 242.386 52.1844C242.009 51.7572 241.381 51.2546 240.954 51.0787L240.2 50.752L241.004 50.35C242.336 49.6715 243.392 49.9228 244.02 51.0787C244.171 51.3803 244.196 51.7572 244.07 51.9834C243.919 52.2347 244.12 52.6367 244.723 53.3404C245.553 54.3204 245.578 54.3204 245.955 53.8681C247.161 52.2849 245.402 49.0935 242.839 48.2391C241.733 47.8621 240.879 47.8621 239.873 48.3145ZM240.527 52.6116C241.381 53.3404 241.507 54.0691 240.879 54.7728C240.275 55.4512 239.17 55.3507 238.567 54.5717C237.888 53.6922 237.888 52.8378 238.592 52.3603C239.371 51.8075 239.622 51.8577 240.527 52.6116Z"/>
<path d="M247.362 56.2051C247.06 56.4061 247.111 56.6072 247.638 57.4364C248.191 58.2406 248.417 58.4165 248.945 58.316C249.825 58.1401 250.905 59.2458 250.805 60.2007C250.679 61.4069 249.8 61.4571 246.633 60.4017C243.97 59.5473 242.035 59.2709 241.356 59.6981C241.13 59.8489 241.356 60.3012 242.21 61.4069C242.839 62.211 243.944 63.6937 244.648 64.6988L245.904 66.5082L246.633 66.081C247.01 65.8548 247.337 65.5784 247.337 65.4527C247.337 65.3271 246.759 64.4476 246.08 63.4926C245.377 62.5377 244.924 61.7587 245.05 61.7587C245.176 61.7587 246.206 62.0854 247.337 62.5126C249.95 63.4675 251.634 63.5178 252.488 62.6382C253.267 61.8843 253.293 60.8289 252.614 59.5222C251.307 56.959 248.744 55.3256 247.362 56.2051Z"/>
<path d="M251.483 65.3774C248.066 66.9605 247.287 69.1719 249.247 71.7351C250.755 73.7204 253.016 73.9716 256.082 72.5141C257.916 71.6597 258.645 70.7048 258.645 69.1468C258.645 67.8903 257.514 66.0056 256.333 65.2769C255.177 64.5732 253.117 64.5984 251.483 65.3774ZM256.057 67.3375C256.735 67.9657 256.811 68.8452 256.208 69.4483C255.504 70.1268 252.815 71.3079 251.936 71.3079C251.006 71.3079 250.101 70.5792 250.101 69.8504C250.101 69.1719 251.006 68.4432 252.865 67.5636C254.8 66.6338 255.278 66.6087 256.057 67.3375Z"/>
<path d="M256.961 80.053C254.423 80.9828 252.363 81.8372 252.363 81.9879C252.363 82.1136 252.589 82.591 252.865 83.0434L253.343 83.8475L254.775 83.3701C255.554 83.0936 256.308 82.8675 256.434 82.8675C256.534 82.8675 256.635 83.2695 256.635 83.747C256.635 85.4307 257.942 87.039 259.776 87.6421C261.435 88.1949 263.922 87.3657 264.601 86.0589C265.355 84.6014 264.525 82.39 262.867 81.3597C262.289 81.0079 262.214 80.8822 262.515 80.7817C262.867 80.631 262.842 80.4802 262.364 79.475C262.063 78.8468 261.761 78.3442 261.686 78.3693C261.585 78.3693 259.474 79.1483 256.961 80.053ZM262.264 82.2392C263.571 83.4455 262.817 85.1291 260.756 85.5312C258.293 85.9835 256.911 83.4957 258.871 82.189C260.027 81.41 261.384 81.4351 262.264 82.2392Z"/>
<path d="M261.987 89.4011C260.932 90.0294 260.655 90.6073 260.655 92.1151C260.655 94.9547 263.118 97.6938 265.681 97.6938C267.34 97.6938 268.094 97.3672 268.697 96.3871C269.928 94.3767 268.722 90.934 266.284 89.5016C264.978 88.7477 263.143 88.6975 261.987 89.4011ZM266.712 91.8889C267.44 92.6177 267.692 93.8993 267.239 94.5778C266.913 95.0804 265.983 95.4322 264.978 95.4322C263.194 95.4322 261.837 93.7988 262.415 92.3915C262.766 91.5623 263.495 91.2104 264.877 91.1853C265.757 91.1602 266.109 91.311 266.712 91.8889Z"/>
<path d="M272.341 98.9252C272.265 99.076 272.316 99.654 272.491 100.207C272.743 101.061 272.894 101.212 273.497 101.212C274.426 101.212 274.527 100.961 274.125 99.8047C273.874 99.0508 273.647 98.7996 273.17 98.7493C272.793 98.699 272.441 98.7996 272.341 98.9252Z"/>
<path d="M267.315 99.6288C265.405 99.9555 263.772 100.257 263.746 100.307C263.646 100.408 264.199 102.041 264.425 102.293C264.5 102.393 266.134 102.242 268.044 101.966C269.928 101.689 271.587 101.463 271.712 101.463C271.939 101.463 271.285 99.2519 271.009 99.1263C270.908 99.076 269.25 99.3022 267.315 99.6288Z"/>
<path d="M268.194 104.403C266.611 104.604 265.279 104.805 265.254 104.831C265.204 104.881 265.33 105.333 265.531 105.886L265.857 106.866L268.722 106.766C271.461 106.69 271.612 106.715 272.115 107.268C272.793 108.022 273.019 108.776 272.743 109.228C272.466 109.655 270.682 109.982 268.521 109.982C266.812 110.007 266.712 110.133 267.164 111.766C267.34 112.369 267.365 112.369 269.828 112.294C273.823 112.194 274.728 111.791 274.728 110.108C274.728 109.203 273.798 107.293 273.195 106.967C272.642 106.665 272.567 106.238 273.069 106.238C273.396 106.238 273.396 106.062 273.12 105.157C272.843 104.202 272.743 104.102 271.964 104.052C271.486 104.052 269.777 104.177 268.194 104.403Z"/>
<path d="M274.075 114.154L274.225 114.782H271.913C270.531 114.782 269.325 114.933 268.948 115.109C268.194 115.486 268.018 116.415 268.446 117.973C268.722 118.928 268.848 119.054 269.476 119.054C270.129 119.054 270.154 119.004 270.029 118.2C269.878 117.194 270.205 117.044 272.894 117.044C274.678 117.044 274.728 117.069 274.879 117.722C275.13 118.979 275.205 119.054 275.884 119.054C276.512 119.054 276.537 119.004 276.412 118.049L276.286 117.044H279L278.07 115.762C277.266 114.631 277.09 114.505 276.462 114.631C275.859 114.757 275.708 114.681 275.582 114.154C275.457 113.651 275.256 113.525 274.678 113.525C273.999 113.525 273.924 113.576 274.075 114.154Z"/>
<path d="M270.18 120.285C269.551 120.939 269.451 121.215 269.451 122.497C269.451 124.582 269.878 125.814 270.959 126.894C271.687 127.623 272.115 127.849 272.768 127.849C274.075 127.849 274.452 127.246 274.728 124.834C275.004 122.446 275.231 122.019 275.834 122.848C276.336 123.577 276.361 124.984 275.859 125.261C275.557 125.437 275.557 125.663 275.783 126.593C276.135 128.025 276.11 128 276.839 127.523C277.744 126.919 278.07 125.663 277.769 123.979C277.316 121.466 276.16 120.059 274.602 120.059C273.371 120.059 272.919 120.738 272.768 122.874C272.642 124.909 272.391 125.638 271.863 125.437C270.959 125.085 270.657 122.823 271.461 122.245C271.939 121.919 271.939 121.843 271.562 120.738C271.336 120.084 271.109 119.556 271.034 119.556C270.984 119.556 270.582 119.883 270.18 120.285Z"/>
</mask>
<path d="M181.623 4.2625C180.618 4.61432 179.739 5.41846 179.337 6.39851C178.834 7.55446 178.909 9.66534 179.462 10.8716C180.618 13.3342 184.161 15.5205 187.378 15.7215L189.162 15.8221L189.715 14.2389C190.017 13.3594 190.318 12.4547 190.419 12.2285C190.544 11.927 189.991 11.5752 187.906 10.6203C186.448 9.94176 185.217 9.4643 185.167 9.51456C185.116 9.56482 185.016 9.91663 184.94 10.2684C184.79 10.8464 184.915 10.9721 186.147 11.5752C187.579 12.2788 187.755 12.5804 187.202 13.3594C186.75 13.9876 184.89 13.6861 183.382 12.7311C182.277 12.0275 181.272 10.4946 181.246 9.48943C181.246 7.7555 182.528 5.97131 183.835 5.97131C185.795 5.97131 188.534 7.70524 188.534 8.91146C188.534 9.31353 188.785 9.48943 189.64 9.7156C191.097 10.0674 191.047 10.0674 191.047 9.48943C191.047 7.65498 188.333 5.34307 185.041 4.36302C183.483 3.91069 182.704 3.88556 181.623 4.2625Z" fill="black"/>
<path d="M194.213 9.8915C194.113 10.2684 194.062 10.57 194.113 10.5951C194.163 10.6203 194.64 10.9218 195.193 11.2234C196.123 11.7762 196.198 11.7762 196.5 11.349C197.028 10.6203 196.877 10.2936 195.821 9.74072C194.54 9.08736 194.389 9.11249 194.213 9.8915Z" fill="black"/>
<path d="M193.56 11.5752C193.56 11.6003 193.007 13.1081 192.303 14.8923C191.625 16.6765 191.072 18.1591 191.122 18.1842C191.147 18.2094 191.65 18.4607 192.228 18.7371L193.258 19.2648L194.54 16.1488C195.244 14.4399 195.821 12.9573 195.821 12.8317C195.821 12.7311 195.369 12.3793 194.816 12.0527C193.912 11.5249 193.56 11.3993 193.56 11.5752Z" fill="black"/>
<path d="M197.405 14.7918C197.505 15.5456 197.581 17.4052 197.581 18.9632V21.7526L198.46 22.3055C198.963 22.607 199.49 22.8081 199.666 22.7327C199.817 22.6573 201.3 21.7024 202.933 20.5967L205.924 18.5612L204.868 17.9078C203.587 17.1037 203.436 17.1539 201.174 19.0135L199.616 20.27L199.465 14.641L197.254 13.4348L197.405 14.7918Z" fill="black"/>
<path d="M205.999 21.627C204.014 23.6122 204.466 26.3513 207.105 28.1606C207.959 28.7386 208.587 28.9648 209.668 29.0402C210.497 29.1156 211.15 29.0402 211.251 28.8894C211.502 28.4622 209.668 27.2057 208.914 27.2811C208.009 27.3816 206.878 26.2759 206.878 25.2959C206.878 24.9189 206.954 24.542 207.079 24.4917C207.18 24.4163 208.411 25.1954 209.819 26.2257L212.407 28.0852L212.784 27.3314C212.985 26.9293 213.161 26.0498 213.161 25.3461C213.161 24.341 213.01 23.9138 212.357 23.0342C211.276 21.627 209.668 20.7977 208.06 20.7977C207.004 20.7977 206.703 20.9233 205.999 21.627ZM210.522 23.185C211.1 23.7378 211.377 25.0194 211 25.3964C210.924 25.4718 210.271 25.12 209.567 24.6425C207.758 23.3609 207.758 23.386 208.135 22.9337C208.612 22.3557 209.819 22.4562 210.522 23.185Z" fill="black"/>
<path d="M219.192 30.8746C218.564 31.7039 217.86 32.7091 217.634 33.0609C216.453 34.8702 217.835 37.2072 220.398 37.7601C221.051 37.8857 221.177 38.0114 220.951 38.2627C220.75 38.514 220.926 38.7653 221.68 39.3684L222.66 40.1474L227.258 35.0461L225.449 33.2368L223.765 35.0712C221.856 37.1318 221.026 37.4083 219.971 36.2774C219.192 35.4482 219.368 34.8953 221.077 32.7593C221.83 31.8044 222.459 30.95 222.459 30.8495C222.459 30.6233 220.8 29.3417 220.524 29.3417C220.423 29.3417 219.82 30.0453 219.192 30.8746Z" fill="black"/>
<path d="M227.661 37.8355C226.806 38.7653 227.133 39.9212 228.992 42.5598C229.545 43.3388 229.922 44.0927 229.847 44.1932C229.319 45.0476 227.233 43.3388 227.233 42.0572C227.233 41.429 227.032 41.1274 226.228 40.5746L225.248 39.871L225.072 40.4992C224.57 42.5096 228.063 46.4046 230.4 46.4298C230.701 46.4298 231.254 46.1785 231.631 45.8769C232.561 45.1482 232.385 44.1681 230.927 41.9567C229.394 39.6197 229.42 39.6699 229.872 39.494C230.45 39.2679 231.757 40.5746 231.757 41.3787C231.757 41.8311 232.083 42.2834 232.762 42.8362C233.692 43.6404 233.742 43.6404 233.893 43.1378C234.194 42.2331 233.792 41.0269 232.837 39.8961C230.978 37.735 228.615 36.78 227.661 37.8355Z" fill="black"/>
<path d="M239.873 48.3145C238.567 48.8673 236.556 50.9028 236.28 51.9331C235.777 53.8681 237.235 56.2805 239.471 57.1349C240.502 57.537 240.728 57.537 241.658 57.2103C243.693 56.5067 244.02 54.1445 242.386 52.1844C242.009 51.7572 241.381 51.2546 240.954 51.0787L240.2 50.752L241.004 50.35C242.336 49.6715 243.392 49.9228 244.02 51.0787C244.171 51.3803 244.196 51.7572 244.07 51.9834C243.919 52.2347 244.12 52.6367 244.723 53.3404C245.553 54.3204 245.578 54.3204 245.955 53.8681C247.161 52.2849 245.402 49.0935 242.839 48.2391C241.733 47.8621 240.879 47.8621 239.873 48.3145ZM240.527 52.6116C241.381 53.3404 241.507 54.0691 240.879 54.7728C240.275 55.4512 239.17 55.3507 238.567 54.5717C237.888 53.6922 237.888 52.8378 238.592 52.3603C239.371 51.8075 239.622 51.8577 240.527 52.6116Z" fill="black"/>
<path d="M247.362 56.2051C247.06 56.4061 247.111 56.6072 247.638 57.4364C248.191 58.2406 248.417 58.4165 248.945 58.316C249.825 58.1401 250.905 59.2458 250.805 60.2007C250.679 61.4069 249.8 61.4571 246.633 60.4017C243.97 59.5473 242.035 59.2709 241.356 59.6981C241.13 59.8489 241.356 60.3012 242.21 61.4069C242.839 62.211 243.944 63.6937 244.648 64.6988L245.904 66.5082L246.633 66.081C247.01 65.8548 247.337 65.5784 247.337 65.4527C247.337 65.3271 246.759 64.4476 246.08 63.4926C245.377 62.5377 244.924 61.7587 245.05 61.7587C245.176 61.7587 246.206 62.0854 247.337 62.5126C249.95 63.4675 251.634 63.5178 252.488 62.6382C253.267 61.8843 253.293 60.8289 252.614 59.5222C251.307 56.959 248.744 55.3256 247.362 56.2051Z" fill="black"/>
<path d="M251.483 65.3774C248.066 66.9605 247.287 69.1719 249.247 71.7351C250.755 73.7204 253.016 73.9716 256.082 72.5141C257.916 71.6597 258.645 70.7048 258.645 69.1468C258.645 67.8903 257.514 66.0056 256.333 65.2769C255.177 64.5732 253.117 64.5984 251.483 65.3774ZM256.057 67.3375C256.735 67.9657 256.811 68.8452 256.208 69.4483C255.504 70.1268 252.815 71.3079 251.936 71.3079C251.006 71.3079 250.101 70.5792 250.101 69.8504C250.101 69.1719 251.006 68.4432 252.865 67.5636C254.8 66.6338 255.278 66.6087 256.057 67.3375Z" fill="black"/>
<path d="M256.961 80.053C254.423 80.9828 252.363 81.8372 252.363 81.9879C252.363 82.1136 252.589 82.591 252.865 83.0434L253.343 83.8475L254.775 83.3701C255.554 83.0936 256.308 82.8675 256.434 82.8675C256.534 82.8675 256.635 83.2695 256.635 83.747C256.635 85.4307 257.942 87.039 259.776 87.6421C261.435 88.1949 263.922 87.3657 264.601 86.0589C265.355 84.6014 264.525 82.39 262.867 81.3597C262.289 81.0079 262.214 80.8822 262.515 80.7817C262.867 80.631 262.842 80.4802 262.364 79.475C262.063 78.8468 261.761 78.3442 261.686 78.3693C261.585 78.3693 259.474 79.1483 256.961 80.053ZM262.264 82.2392C263.571 83.4455 262.817 85.1291 260.756 85.5312C258.293 85.9835 256.911 83.4957 258.871 82.189C260.027 81.41 261.384 81.4351 262.264 82.2392Z" fill="black"/>
<path d="M261.987 89.4011C260.932 90.0294 260.655 90.6073 260.655 92.1151C260.655 94.9547 263.118 97.6938 265.681 97.6938C267.34 97.6938 268.094 97.3672 268.697 96.3871C269.928 94.3767 268.722 90.934 266.284 89.5016C264.978 88.7477 263.143 88.6975 261.987 89.4011ZM266.712 91.8889C267.44 92.6177 267.692 93.8993 267.239 94.5778C266.913 95.0804 265.983 95.4322 264.978 95.4322C263.194 95.4322 261.837 93.7988 262.415 92.3915C262.766 91.5623 263.495 91.2104 264.877 91.1853C265.757 91.1602 266.109 91.311 266.712 91.8889Z" fill="black"/>
<path d="M272.341 98.9252C272.265 99.076 272.316 99.654 272.491 100.207C272.743 101.061 272.894 101.212 273.497 101.212C274.426 101.212 274.527 100.961 274.125 99.8047C273.874 99.0508 273.647 98.7996 273.17 98.7493C272.793 98.699 272.441 98.7996 272.341 98.9252Z" fill="black"/>
<path d="M267.315 99.6288C265.405 99.9555 263.772 100.257 263.746 100.307C263.646 100.408 264.199 102.041 264.425 102.293C264.5 102.393 266.134 102.242 268.044 101.966C269.928 101.689 271.587 101.463 271.712 101.463C271.939 101.463 271.285 99.2519 271.009 99.1263C270.908 99.076 269.25 99.3022 267.315 99.6288Z" fill="black"/>
<path d="M268.194 104.403C266.611 104.604 265.279 104.805 265.254 104.831C265.204 104.881 265.33 105.333 265.531 105.886L265.857 106.866L268.722 106.766C271.461 106.69 271.612 106.715 272.115 107.268C272.793 108.022 273.019 108.776 272.743 109.228C272.466 109.655 270.682 109.982 268.521 109.982C266.812 110.007 266.712 110.133 267.164 111.766C267.34 112.369 267.365 112.369 269.828 112.294C273.823 112.194 274.728 111.791 274.728 110.108C274.728 109.203 273.798 107.293 273.195 106.967C272.642 106.665 272.567 106.238 273.069 106.238C273.396 106.238 273.396 106.062 273.12 105.157C272.843 104.202 272.743 104.102 271.964 104.052C271.486 104.052 269.777 104.177 268.194 104.403Z" fill="black"/>
<path d="M274.075 114.154L274.225 114.782H271.913C270.531 114.782 269.325 114.933 268.948 115.109C268.194 115.486 268.018 116.415 268.446 117.973C268.722 118.928 268.848 119.054 269.476 119.054C270.129 119.054 270.154 119.004 270.029 118.2C269.878 117.194 270.205 117.044 272.894 117.044C274.678 117.044 274.728 117.069 274.879 117.722C275.13 118.979 275.205 119.054 275.884 119.054C276.512 119.054 276.537 119.004 276.412 118.049L276.286 117.044H279L278.07 115.762C277.266 114.631 277.09 114.505 276.462 114.631C275.859 114.757 275.708 114.681 275.582 114.154C275.457 113.651 275.256 113.525 274.678 113.525C273.999 113.525 273.924 113.576 274.075 114.154Z" fill="black"/>
<path d="M270.18 120.285C269.551 120.939 269.451 121.215 269.451 122.497C269.451 124.582 269.878 125.814 270.959 126.894C271.687 127.623 272.115 127.849 272.768 127.849C274.075 127.849 274.452 127.246 274.728 124.834C275.004 122.446 275.231 122.019 275.834 122.848C276.336 123.577 276.361 124.984 275.859 125.261C275.557 125.437 275.557 125.663 275.783 126.593C276.135 128.025 276.11 128 276.839 127.523C277.744 126.919 278.07 125.663 277.769 123.979C277.316 121.466 276.16 120.059 274.602 120.059C273.371 120.059 272.919 120.738 272.768 122.874C272.642 124.909 272.391 125.638 271.863 125.437C270.959 125.085 270.657 122.823 271.461 122.245C271.939 121.919 271.939 121.843 271.562 120.738C271.336 120.084 271.109 119.556 271.034 119.556C270.984 119.556 270.582 119.883 270.18 120.285Z" fill="black"/>
<path d="M181.623 4.2625C180.618 4.61432 179.739 5.41846 179.337 6.39851C178.834 7.55446 178.909 9.66534 179.462 10.8716C180.618 13.3342 184.161 15.5205 187.378 15.7215L189.162 15.8221L189.715 14.2389C190.017 13.3594 190.318 12.4547 190.419 12.2285C190.544 11.927 189.991 11.5752 187.906 10.6203C186.448 9.94176 185.217 9.4643 185.167 9.51456C185.116 9.56482 185.016 9.91663 184.94 10.2684C184.79 10.8464 184.915 10.9721 186.147 11.5752C187.579 12.2788 187.755 12.5804 187.202 13.3594C186.75 13.9876 184.89 13.6861 183.382 12.7311C182.277 12.0275 181.272 10.4946 181.246 9.48943C181.246 7.7555 182.528 5.97131 183.835 5.97131C185.795 5.97131 188.534 7.70524 188.534 8.91146C188.534 9.31353 188.785 9.48943 189.64 9.7156C191.097 10.0674 191.047 10.0674 191.047 9.48943C191.047 7.65498 188.333 5.34307 185.041 4.36302C183.483 3.91069 182.704 3.88556 181.623 4.2625Z" stroke="white" stroke-width="8" stroke-linejoin="round" style="mix-blend-mode:luminosity" mask="url(#path-90-outside-1_14_399)"/>
<path d="M194.213 9.8915C194.113 10.2684 194.062 10.57 194.113 10.5951C194.163 10.6203 194.64 10.9218 195.193 11.2234C196.123 11.7762 196.198 11.7762 196.5 11.349C197.028 10.6203 196.877 10.2936 195.821 9.74072C194.54 9.08736 194.389 9.11249 194.213 9.8915Z" stroke="white" stroke-width="8" stroke-linejoin="round" style="mix-blend-mode:luminosity" mask="url(#path-90-outside-1_14_399)"/>
<path d="M193.56 11.5752C193.56 11.6003 193.007 13.1081 192.303 14.8923C191.625 16.6765 191.072 18.1591 191.122 18.1842C191.147 18.2094 191.65 18.4607 192.228 18.7371L193.258 19.2648L194.54 16.1488C195.244 14.4399 195.821 12.9573 195.821 12.8317C195.821 12.7311 195.369 12.3793 194.816 12.0527C193.912 11.5249 193.56 11.3993 193.56 11.5752Z" stroke="white" stroke-width="8" stroke-linejoin="round" style="mix-blend-mode:luminosity" mask="url(#path-90-outside-1_14_399)"/>
<path d="M197.405 14.7918C197.505 15.5456 197.581 17.4052 197.581 18.9632V21.7526L198.46 22.3055C198.963 22.607 199.49 22.8081 199.666 22.7327C199.817 22.6573 201.3 21.7024 202.933 20.5967L205.924 18.5612L204.868 17.9078C203.587 17.1037 203.436 17.1539 201.174 19.0135L199.616 20.27L199.465 14.641L197.254 13.4348L197.405 14.7918Z" stroke="white" stroke-width="8" stroke-linejoin="round" style="mix-blend-mode:luminosity" mask="url(#path-90-outside-1_14_399)"/>
<path d="M205.999 21.627C204.014 23.6122 204.466 26.3513 207.105 28.1606C207.959 28.7386 208.587 28.9648 209.668 29.0402C210.497 29.1156 211.15 29.0402 211.251 28.8894C211.502 28.4622 209.668 27.2057 208.914 27.2811C208.009 27.3816 206.878 26.2759 206.878 25.2959C206.878 24.9189 206.954 24.542 207.079 24.4917C207.18 24.4163 208.411 25.1954 209.819 26.2257L212.407 28.0852L212.784 27.3314C212.985 26.9293 213.161 26.0498 213.161 25.3461C213.161 24.341 213.01 23.9138 212.357 23.0342C211.276 21.627 209.668 20.7977 208.06 20.7977C207.004 20.7977 206.703 20.9233 205.999 21.627ZM210.522 23.185C211.1 23.7378 211.377 25.0194 211 25.3964C210.924 25.4718 210.271 25.12 209.567 24.6425C207.758 23.3609 207.758 23.386 208.135 22.9337C208.612 22.3557 209.819 22.4562 210.522 23.185Z" stroke="white" stroke-width="8" stroke-linejoin="round" style="mix-blend-mode:luminosity" mask="url(#path-90-outside-1_14_399)"/>
<path d="M219.192 30.8746C218.564 31.7039 217.86 32.7091 217.634 33.0609C216.453 34.8702 217.835 37.2072 220.398 37.7601C221.051 37.8857 221.177 38.0114 220.951 38.2627C220.75 38.514 220.926 38.7653 221.68 39.3684L222.66 40.1474L227.258 35.0461L225.449 33.2368L223.765 35.0712C221.856 37.1318 221.026 37.4083 219.971 36.2774C219.192 35.4482 219.368 34.8953 221.077 32.7593C221.83 31.8044 222.459 30.95 222.459 30.8495C222.459 30.6233 220.8 29.3417 220.524 29.3417C220.423 29.3417 219.82 30.0453 219.192 30.8746Z" stroke="white" stroke-width="8" stroke-linejoin="round" style="mix-blend-mode:luminosity" mask="url(#path-90-outside-1_14_399)"/>
<path d="M227.661 37.8355C226.806 38.7653 227.133 39.9212 228.992 42.5598C229.545 43.3388 229.922 44.0927 229.847 44.1932C229.319 45.0476 227.233 43.3388 227.233 42.0572C227.233 41.429 227.032 41.1274 226.228 40.5746L225.248 39.871L225.072 40.4992C224.57 42.5096 228.063 46.4046 230.4 46.4298C230.701 46.4298 231.254 46.1785 231.631 45.8769C232.561 45.1482 232.385 44.1681 230.927 41.9567C229.394 39.6197 229.42 39.6699 229.872 39.494C230.45 39.2679 231.757 40.5746 231.757 41.3787C231.757 41.8311 232.083 42.2834 232.762 42.8362C233.692 43.6404 233.742 43.6404 233.893 43.1378C234.194 42.2331 233.792 41.0269 232.837 39.8961C230.978 37.735 228.615 36.78 227.661 37.8355Z" stroke="white" stroke-width="8" stroke-linejoin="round" style="mix-blend-mode:luminosity" mask="url(#path-90-outside-1_14_399)"/>
<path d="M239.873 48.3145C238.567 48.8673 236.556 50.9028 236.28 51.9331C235.777 53.8681 237.235 56.2805 239.471 57.1349C240.502 57.537 240.728 57.537 241.658 57.2103C243.693 56.5067 244.02 54.1445 242.386 52.1844C242.009 51.7572 241.381 51.2546 240.954 51.0787L240.2 50.752L241.004 50.35C242.336 49.6715 243.392 49.9228 244.02 51.0787C244.171 51.3803 244.196 51.7572 244.07 51.9834C243.919 52.2347 244.12 52.6367 244.723 53.3404C245.553 54.3204 245.578 54.3204 245.955 53.8681C247.161 52.2849 245.402 49.0935 242.839 48.2391C241.733 47.8621 240.879 47.8621 239.873 48.3145ZM240.527 52.6116C241.381 53.3404 241.507 54.0691 240.879 54.7728C240.275 55.4512 239.17 55.3507 238.567 54.5717C237.888 53.6922 237.888 52.8378 238.592 52.3603C239.371 51.8075 239.622 51.8577 240.527 52.6116Z" stroke="white" stroke-width="8" stroke-linejoin="round" style="mix-blend-mode:luminosity" mask="url(#path-90-outside-1_14_399)"/>
<path d="M247.362 56.2051C247.06 56.4061 247.111 56.6072 247.638 57.4364C248.191 58.2406 248.417 58.4165 248.945 58.316C249.825 58.1401 250.905 59.2458 250.805 60.2007C250.679 61.4069 249.8 61.4571 246.633 60.4017C243.97 59.5473 242.035 59.2709 241.356 59.6981C241.13 59.8489 241.356 60.3012 242.21 61.4069C242.839 62.211 243.944 63.6937 244.648 64.6988L245.904 66.5082L246.633 66.081C247.01 65.8548 247.337 65.5784 247.337 65.4527C247.337 65.3271 246.759 64.4476 246.08 63.4926C245.377 62.5377 244.924 61.7587 245.05 61.7587C245.176 61.7587 246.206 62.0854 247.337 62.5126C249.95 63.4675 251.634 63.5178 252.488 62.6382C253.267 61.8843 253.293 60.8289 252.614 59.5222C251.307 56.959 248.744 55.3256 247.362 56.2051Z" stroke="white" stroke-width="8" stroke-linejoin="round" style="mix-blend-mode:luminosity" mask="url(#path-90-outside-1_14_399)"/>
<path d="M251.483 65.3774C248.066 66.9605 247.287 69.1719 249.247 71.7351C250.755 73.7204 253.016 73.9716 256.082 72.5141C257.916 71.6597 258.645 70.7048 258.645 69.1468C258.645 67.8903 257.514 66.0056 256.333 65.2769C255.177 64.5732 253.117 64.5984 251.483 65.3774ZM256.057 67.3375C256.735 67.9657 256.811 68.8452 256.208 69.4483C255.504 70.1268 252.815 71.3079 251.936 71.3079C251.006 71.3079 250.101 70.5792 250.101 69.8504C250.101 69.1719 251.006 68.4432 252.865 67.5636C254.8 66.6338 255.278 66.6087 256.057 67.3375Z" stroke="white" stroke-width="8" stroke-linejoin="round" style="mix-blend-mode:luminosity" mask="url(#path-90-outside-1_14_399)"/>
<path d="M256.961 80.053C254.423 80.9828 252.363 81.8372 252.363 81.9879C252.363 82.1136 252.589 82.591 252.865 83.0434L253.343 83.8475L254.775 83.3701C255.554 83.0936 256.308 82.8675 256.434 82.8675C256.534 82.8675 256.635 83.2695 256.635 83.747C256.635 85.4307 257.942 87.039 259.776 87.6421C261.435 88.1949 263.922 87.3657 264.601 86.0589C265.355 84.6014 264.525 82.39 262.867 81.3597C262.289 81.0079 262.214 80.8822 262.515 80.7817C262.867 80.631 262.842 80.4802 262.364 79.475C262.063 78.8468 261.761 78.3442 261.686 78.3693C261.585 78.3693 259.474 79.1483 256.961 80.053ZM262.264 82.2392C263.571 83.4455 262.817 85.1291 260.756 85.5312C258.293 85.9835 256.911 83.4957 258.871 82.189C260.027 81.41 261.384 81.4351 262.264 82.2392Z" stroke="white" stroke-width="8" stroke-linejoin="round" style="mix-blend-mode:luminosity" mask="url(#path-90-outside-1_14_399)"/>
<path d="M261.987 89.4011C260.932 90.0294 260.655 90.6073 260.655 92.1151C260.655 94.9547 263.118 97.6938 265.681 97.6938C267.34 97.6938 268.094 97.3672 268.697 96.3871C269.928 94.3767 268.722 90.934 266.284 89.5016C264.978 88.7477 263.143 88.6975 261.987 89.4011ZM266.712 91.8889C267.44 92.6177 267.692 93.8993 267.239 94.5778C266.913 95.0804 265.983 95.4322 264.978 95.4322C263.194 95.4322 261.837 93.7988 262.415 92.3915C262.766 91.5623 263.495 91.2104 264.877 91.1853C265.757 91.1602 266.109 91.311 266.712 91.8889Z" stroke="white" stroke-width="8" stroke-linejoin="round" style="mix-blend-mode:luminosity" mask="url(#path-90-outside-1_14_399)"/>
<path d="M272.341 98.9252C272.265 99.076 272.316 99.654 272.491 100.207C272.743 101.061 272.894 101.212 273.497 101.212C274.426 101.212 274.527 100.961 274.125 99.8047C273.874 99.0508 273.647 98.7996 273.17 98.7493C272.793 98.699 272.441 98.7996 272.341 98.9252Z" stroke="white" stroke-width="8" stroke-linejoin="round" style="mix-blend-mode:luminosity" mask="url(#path-90-outside-1_14_399)"/>
<path d="M267.315 99.6288C265.405 99.9555 263.772 100.257 263.746 100.307C263.646 100.408 264.199 102.041 264.425 102.293C264.5 102.393 266.134 102.242 268.044 101.966C269.928 101.689 271.587 101.463 271.712 101.463C271.939 101.463 271.285 99.2519 271.009 99.1263C270.908 99.076 269.25 99.3022 267.315 99.6288Z" stroke="white" stroke-width="8" stroke-linejoin="round" style="mix-blend-mode:luminosity" mask="url(#path-90-outside-1_14_399)"/>
<path d="M268.194 104.403C266.611 104.604 265.279 104.805 265.254 104.831C265.204 104.881 265.33 105.333 265.531 105.886L265.857 106.866L268.722 106.766C271.461 106.69 271.612 106.715 272.115 107.268C272.793 108.022 273.019 108.776 272.743 109.228C272.466 109.655 270.682 109.982 268.521 109.982C266.812 110.007 266.712 110.133 267.164 111.766C267.34 112.369 267.365 112.369 269.828 112.294C273.823 112.194 274.728 111.791 274.728 110.108C274.728 109.203 273.798 107.293 273.195 106.967C272.642 106.665 272.567 106.238 273.069 106.238C273.396 106.238 273.396 106.062 273.12 105.157C272.843 104.202 272.743 104.102 271.964 104.052C271.486 104.052 269.777 104.177 268.194 104.403Z" stroke="white" stroke-width="8" stroke-linejoin="round" style="mix-blend-mode:luminosity" mask="url(#path-90-outside-1_14_399)"/>
<path d="M274.075 114.154L274.225 114.782H271.913C270.531 114.782 269.325 114.933 268.948 115.109C268.194 115.486 268.018 116.415 268.446 117.973C268.722 118.928 268.848 119.054 269.476 119.054C270.129 119.054 270.154 119.004 270.029 118.2C269.878 117.194 270.205 117.044 272.894 117.044C274.678 117.044 274.728 117.069 274.879 117.722C275.13 118.979 275.205 119.054 275.884 119.054C276.512 119.054 276.537 119.004 276.412 118.049L276.286 117.044H279L278.07 115.762C277.266 114.631 277.09 114.505 276.462 114.631C275.859 114.757 275.708 114.681 275.582 114.154C275.457 113.651 275.256 113.525 274.678 113.525C273.999 113.525 273.924 113.576 274.075 114.154Z" stroke="white" stroke-width="8" stroke-linejoin="round" style="mix-blend-mode:luminosity" mask="url(#path-90-outside-1_14_399)"/>
<path d="M270.18 120.285C269.551 120.939 269.451 121.215 269.451 122.497C269.451 124.582 269.878 125.814 270.959 126.894C271.687 127.623 272.115 127.849 272.768 127.849C274.075 127.849 274.452 127.246 274.728 124.834C275.004 122.446 275.231 122.019 275.834 122.848C276.336 123.577 276.361 124.984 275.859 125.261C275.557 125.437 275.557 125.663 275.783 126.593C276.135 128.025 276.11 128 276.839 127.523C277.744 126.919 278.07 125.663 277.769 123.979C277.316 121.466 276.16 120.059 274.602 120.059C273.371 120.059 272.919 120.738 272.768 122.874C272.642 124.909 272.391 125.638 271.863 125.437C270.959 125.085 270.657 122.823 271.461 122.245C271.939 121.919 271.939 121.843 271.562 120.738C271.336 120.084 271.109 119.556 271.034 119.556C270.984 119.556 270.582 119.883 270.18 120.285Z" stroke="white" stroke-width="8" stroke-linejoin="round" style="mix-blend-mode:luminosity" mask="url(#path-90-outside-1_14_399)"/>
</g>
<defs>
<clipPath id="clip0_14_399">
<rect width="328.4" height="381.9" fill="white"/>
</clipPath>
</defs>
</svg>
