<svg width="329" height="390" viewBox="0 0 329 390" fill="none" xmlns="http://www.w3.org/2000/svg">
<g clip-path="url(#clip0_334_5997)">
<path d="M8.92996 321.1L200.93 388.27C203.335 389.085 205.861 389.488 208.4 389.46C213.101 389.513 217.725 388.264 221.76 385.85L317.76 324.54C319.616 323.308 321.159 321.659 322.265 319.725C323.371 317.791 324.009 315.625 324.13 313.4C324.13 313.4 324.13 313.33 324.13 313.3C325.442 310.871 325.798 308.039 325.13 305.36C324.971 304.763 324.76 304.181 324.5 303.62L328.39 159.22C328.395 159.143 328.395 159.067 328.39 158.99C328.391 158.302 328.358 157.615 328.29 156.93C327.745 152.013 325.584 147.416 322.146 143.86C318.707 140.304 314.186 137.99 309.29 137.28L298.38 135.89C297.823 135.855 297.298 135.621 296.9 135.23C296.708 135.036 296.559 134.804 296.46 134.55C296.418 134.355 296.387 134.158 296.37 133.96C296.355 133.76 296.355 133.56 296.37 133.36C296.375 133.061 296.409 132.763 296.47 132.47C296.527 132.113 296.56 131.752 296.57 131.39C296.57 131.13 296.5 131.06 296.57 130.84C296.592 130.742 296.629 130.647 296.68 130.56C296.89 130.16 297.06 129.75 297.3 129.36C297.553 128.939 297.784 128.505 297.99 128.06C298.275 127.609 298.519 127.134 298.72 126.64C299.136 125.577 299.366 124.451 299.4 123.31C299.443 122.603 299.42 121.893 299.33 121.19C299.27 120.76 299.19 120.39 299.13 120.11C299.07 119.83 299 119.63 298.92 119.37C298.84 119.11 298.71 118.78 298.61 118.53L298.42 117.84C298.167 116.711 297.833 115.601 297.42 114.52C297.201 114.028 296.951 113.55 296.67 113.09C296.095 112.148 295.38 111.298 294.55 110.57C293.79 108.7 293.08 107.23 292.55 106.17C292.143 105.446 291.649 104.775 291.08 104.17C290.61 103.61 290.17 103.17 289.81 102.79C289.3 102.01 288.81 101.23 288.3 100.45C287.933 99.3567 287.636 98.2411 287.41 97.11C287.168 95.9222 287.05 94.7123 287.06 93.5C287.06 92.8887 287.094 92.2778 287.16 91.67C287.243 91.1946 287.26 90.71 287.21 90.23C287.13 89.6536 286.979 89.0894 286.76 88.55C286.641 88.1397 286.477 87.7439 286.27 87.37C286.076 87.0438 285.863 86.7298 285.63 86.43C285.35 86.05 285.3 86.03 285.13 85.78C284.907 85.4631 284.709 85.1286 284.54 84.78C284.193 84.1367 283.896 83.4681 283.65 82.78C283.47 82.22 283.55 82.31 283.25 81.2C283.02 80.32 282.94 80.14 282.71 79.32C282.48 78.5 282.35 77.88 282.26 77.49C282.04 76.49 282.03 76.22 281.67 74.12C281.5 73.12 281.44 72.72 281.28 72.05C281.103 71.1971 280.835 70.3657 280.48 69.57C279.969 68.5287 279.266 67.5925 278.41 66.81C277.597 66.0575 276.66 65.4519 275.64 65.02C273.299 64.218 271.157 62.922 269.36 61.22C268.2 59.16 267.047 57.1 265.9 55.04C265.267 52.4335 263.992 50.0269 262.19 48.04C261.294 47.2032 260.526 46.2396 259.91 45.18C259.421 44.1496 258.993 43.0911 258.63 42.01C258.134 40.857 257.538 39.7495 256.85 38.7C256.464 37.8218 255.906 37.0297 255.21 36.37C254.611 35.8324 253.937 35.3844 253.21 35.04C251.41 34.09 250.99 34.42 249.79 33.6C249.016 33.0497 248.34 32.3737 247.79 31.6C247.388 30.938 246.933 30.3093 246.43 29.72C245.918 29.2183 245.343 28.7847 244.72 28.43C243.83 27.8844 242.897 27.4128 241.93 27.02C239.99 26.21 239.58 26.37 238.19 25.66C237.5 25.31 236.39 24.73 235.03 23.98C232.89 22.8 232.03 22.24 229.36 20.72C226.69 19.2 226.92 19.41 225.83 18.72C222.93 16.94 221.48 16.05 220.59 14.57C219.701 12.9879 219.377 11.1507 219.67 9.36C219.635 8.08435 219.328 6.83081 218.771 5.68258C218.214 4.53434 217.42 3.51766 216.44 2.7C215.365 1.88091 214.104 1.34144 212.77 1.13C208.03 0.310004 204.23 3.52 203.57 4.13L192.29 24.67C189.373 25.4179 186.328 25.5135 183.37 24.95C182.82 24.84 182.3 24.72 181.8 24.58C173.652 20.6922 165.175 17.5332 156.47 15.14C155.68 14.9322 154.867 14.8214 154.05 14.81C153.113 14.5238 152.14 14.3756 151.16 14.37C149.741 14.3831 148.344 14.7255 147.08 15.37C146.069 15.8768 145.152 16.5533 144.37 17.37C141.18 16.56 137.82 15.54 134.53 14.54C133.13 14.12 131.69 13.68 130.28 13.27C129.72 12.89 128.91 12.32 128.28 11.9L126.53 10.69C125.685 9.8379 124.709 9.12567 123.64 8.58C122.36 7.92895 120.946 7.58648 119.51 7.58C117.418 7.60663 115.391 8.30811 113.73 9.58C112.201 10.4634 110.914 11.7105 109.982 13.2107C109.051 14.7109 108.504 16.4178 108.39 18.18C105.858 18.4848 103.403 19.2544 101.15 20.45C99.44 20.74 97.78 21.07 96.28 21.45C92.6494 22.3234 89.1251 23.5909 85.77 25.23C83.6092 25.9484 81.8011 27.4591 80.71 29.4576C79.6189 31.4561 79.3259 33.794 79.89 36C79.4 36.28 77.89 37.2 76.56 38.16C74.11 39.85 70.41 42.41 70.11 47.29C70.0082 48.8678 70.3147 50.4452 71 51.87C66.85 54.87 64 57.87 64 62.35C63.9997 64.3934 64.6768 66.3792 65.9252 67.9968C67.1737 69.6144 68.9232 70.7725 70.9 71.29C70.79 71.52 70.68 71.75 70.58 71.98C69.0866 75.1714 67.7712 78.4431 66.64 81.78C64.8342 86.5604 63.537 91.5178 62.77 96.57H59.37C58.1225 96.5012 56.8743 96.69 55.703 97.1246C54.5317 97.5593 53.4624 98.2305 52.5618 99.0964C51.6612 99.9622 50.9485 101.004 50.4682 102.158C49.9879 103.311 49.7502 104.551 49.77 105.8C49.7998 108.353 50.8157 110.795 52.6049 112.616C54.3941 114.437 56.8182 115.495 59.37 115.57H60.9C60.24 139.04 65.61 162.12 70.05 181.25C72.31 190.93 74.26 199.34 75.05 206.01L74.5 214.17C73.3082 215.222 72.2472 216.414 71.34 217.72C66.85 222.38 65.47 225.93 65.09 228.29C63.88 228.93 62.74 229.5 62.2 229.75C54.2 233.46 27.27 247.49 18.1 272.41C17.99 272.71 17.89 273.03 17.79 273.34C14.7993 280.936 13.109 288.982 12.79 297.14L8.23996 299.07C7.37708 299.433 6.54445 299.865 5.74996 300.36C3.98875 301.362 2.52887 302.819 1.52272 304.578C0.516567 306.337 0.00104388 308.334 0.0299616 310.36C0.0599616 312.16 0.879962 318.28 8.92996 321.1ZM319.31 157.81C319.35 158.195 319.37 158.583 319.37 158.97C319.37 158.583 319.35 158.195 319.31 157.81C319.271 157.356 319.201 156.905 319.1 156.46C319.201 156.905 319.271 157.356 319.31 157.81ZM294.13 118.27L285.82 120.4L294.13 118.27ZM275.13 105.67L287.34 93.11L275.13 105.67C275.048 105.763 274.954 105.844 274.85 105.91C274.968 105.834 275.072 105.739 275.16 105.63L275.13 105.67ZM274.08 106.18H273.9H273.81H274.08ZM263.91 140.62C263.68 139.57 263.45 138.52 263.2 137.47L267.31 136.72L263.2 137.47C263.48 138.48 263.71 139.53 263.94 140.58L263.91 140.62ZM267.15 61.42L262.1 68.5L267.15 61.42ZM242.1 28.57H242.25H241.65H242.1ZM235.34 30.87C235.58 30.64 235.83 30.43 236.08 30.22C235.83 30.43 235.58 30.64 235.34 30.87C235.1 31.1 234.88 31.35 234.67 31.6C234.88 31.35 235.1 31.11 235.34 30.87ZM233.34 28.26C233.726 27.7866 234.061 27.2738 234.34 26.73C234.061 27.2738 233.726 27.7866 233.34 28.26L229.13 33.53L233.34 28.26ZM225.19 10.61C225.097 10.6002 225.003 10.6002 224.91 10.61H225.19ZM214 8.91L219.05 17.12L214 8.91ZM119.55 16.58H119.61C119.567 16.5708 119.523 16.5708 119.48 16.58H119.55ZM118.55 17.23C118.55 17.23 118.55 17.23 118.49 17.23H118.55ZM110.28 27.05H110.75C110.497 27.0351 110.243 27.0351 109.99 27.05H110.28ZM108.63 27.21C108.012 27.3308 107.406 27.5082 106.82 27.74C107.409 27.5076 108.018 27.3302 108.64 27.21H108.63ZM96.44 37.59H96.89H97.1H96.44ZM98.41 30.15L99.66 29.87L98.41 30.15C97.62 30.34 96.83 30.55 96.05 30.79C96.83 30.55 97.62 30.34 98.41 30.15V30.15ZM84.34 201.89C84.73 203.97 84.98 205.66 85.13 207.05C84.98 205.66 84.73 203.97 84.34 201.89ZM84.23 214.06C84.37 213.84 84.53 213.61 84.68 213.32C84.53 213.61 84.37 213.84 84.23 214.06ZM83.87 220.06C84.1064 220.045 84.3435 220.045 84.58 220.06C84.2473 220.031 83.9127 220.031 83.58 220.06H83.87ZM81.34 48.88C81.3677 48.9443 81.4127 48.9997 81.47 49.04C81.4127 48.9997 81.3677 48.9443 81.34 48.88C81.3302 48.797 81.3302 48.7131 81.34 48.63C81.3277 48.7229 81.3277 48.8171 81.34 48.91V48.88ZM73.21 62.58C73.1802 62.5857 73.1497 62.5857 73.12 62.58C73.153 62.5858 73.1869 62.5858 73.22 62.58H73.21ZM75 61.79C76.43 61.38 78 61.27 79.46 60.94C77.93 61.27 76.4 61.38 75 61.79Z" fill="white"/>
<path d="M77.06 232.92C76.06 232.16 74.23 230.92 74.06 229.56C73.79 227.13 80.39 220.3 82.72 219.7C87.28 218.52 93.79 224.49 98.42 226.19C99.66 226.65 103.17 226.08 103.95 227.1C106.49 230.44 105.81 243.85 106.34 248.53C106.52 250.16 108.51 265.6 108.27 265.89C107.03 267.45 90.79 272.82 89.01 272.16C87.23 271.5 84.94 268.72 83.08 267.62C78.58 264.97 71.65 265.3 66.66 264.46C61.93 263.66 56.27 260.96 51.66 263.96C47.88 266.41 44.27 266.67 40.25 268.71C36.23 270.75 31.94 276.6 29.63 280.52C28.35 282.69 25.71 302.52 23.35 302.06C22.28 301.83 22.93 296.06 23.04 295.37C24.12 288.96 24.39 281.08 26.63 275C32.77 258.3 50.21 244.72 66.05 237.4C67.64 236.67 74.45 233.26 75.2 231.82C76.2 229.93 72.56 228.67 76.46 227.56" fill="#FFDB1F"/>
<path d="M37.6699 296.74C46.6181 302.636 56.8942 306.211 67.5699 307.14" stroke="#2D1F04" stroke-width="2.82" stroke-linecap="round" stroke-linejoin="round"/>
<path d="M35.62 298.16C48.32 306.22 64.14 311.8 79.08 306.16" stroke="#2D1F04" stroke-width="2.82" stroke-linecap="round" stroke-linejoin="round"/>
<path d="M92.24 57.34C88.89 57.34 80.11 74.58 78.14 78.08C63.47 104.08 72.07 150.76 82.02 190.59C89.37 219.98 82.09 209.33 84.2 217.86C85.67 223.86 105.77 228.16 111.94 229.72C135.24 235.62 156.86 223.57 180.21 223.57C186.06 223.57 202.9 225.42 207.75 220.57C211.87 216.39 213.15 211 216.48 206.29C220.97 199.92 231.41 192.22 238.64 189.29C246.11 186.29 255.46 188.11 262.82 189.97C264.7 190.45 270.36 192.87 272.22 190.97C275.22 187.88 276.67 178.86 275.91 174.97C273.86 164.58 262.34 196.17 260.35 186.12C258.99 179.23 263.9 141.47 261.35 134.86C251.43 108.75 242.29 71.86 220.13 55.54C214.62 51.44 205.35 44.23 199 41C192.88 37.91 188.69 37.48 182.55 34.37C174.47 30.28 162.99 25.52 154.34 23.37C152.15 22.81 155.21 26.7 155.01 27.11C154.81 27.52 149.37 27.6 148.63 27.45C141.42 26 134.08 26.12 127.16 23C126.02 22.48 120 16.24 118.63 16.7C114.55 18.08 122.46 31.5 122.46 31.5C122.19 31.0036 121.853 30.5461 121.46 30.14C119.46 28.53 114.95 27.25 112.4 26.74C106.94 25.63 104.63 29.19 99.97 30.14C99.35 30.26 93.97 31.69 93.97 31.84C93.97 33 102.7 34.37 102.7 35.57C102.7 36.77 100.79 36.19 100.35 36.25C97.77 36.63 80.42 45.13 81.49 48.38C81.96 49.82 92.49 47.57 93.97 48.49C94.3961 48.6728 94.8483 48.7875 95.31 48.83C95.31 48.83 89.23 49.78 86.25 50.53C82.52 51.53 74.88 60.05 81.55 60.05" fill="#CAA77A"/>
<path d="M76.22 110.12C79 98.52 86.0699 85.45 96.3099 83.54C108.31 81.28 118.37 91.08 130.02 90.6C132.17 90.51 136.38 89.19 137.68 87.28C138.98 85.37 137.68 82.94 137.68 82.95C139.52 83.49 141.37 86.19 143.59 86.84C152.34 89.4 161.37 81.62 169.28 79.2C195.65 71.14 216.21 74.02 230.28 99.8C233.44 105.59 238.28 118.8 234.99 133.63C230.18 155.18 227.68 164.22 204.57 180.37C177.12 199.55 120.3 209.08 91.94 172.81C78.65 155.83 71 131.76 76.22 110.12Z" fill="#FFDBAF"/>
<path d="M129.34 120C119.77 115.15 112.02 139.64 112.79 146.67C115.43 170.76 150.24 169.52 166.37 161.35C189.66 149.56 161.17 111.6 144.53 118.35" fill="#9D7B51"/>
<path d="M76.7999 108C71.6099 117.57 74.3999 145.41 81.5299 154C82.1199 153.79 120.53 144.13 117.53 104.49C117.35 102.11 93.2899 105.93 89.8699 106.62C85.0699 107.62 78.9299 104.07 76.7999 108Z" fill="#9D7B51"/>
<path d="M163.78 105.75C161.32 149.83 224.58 169.84 231.26 160.03C235.54 153.75 241.26 120.4 230.08 100.53C228.98 98.5901 216.58 102.75 214.55 103.1C198 105.89 164.23 97.7001 163.78 105.75Z" fill="#9D7B51"/>
<path d="M104.12 196.45L104.07 204.49" stroke="#9D7B51" stroke-width="4.17" stroke-linecap="round" stroke-linejoin="round"/>
<path d="M111.92 200.56L111.87 208.6" stroke="#9D7B51" stroke-width="4.17" stroke-linecap="round" stroke-linejoin="round"/>
<path d="M181.56 107.39C181.56 111.01 182.26 113.45 183.48 115.04C187.07 119.75 195.18 117.18 203.23 115.76C211.98 114.22 213.94 108.76 215.57 105.45" fill="white"/>
<path d="M82.8799 105.38C75.4899 124.99 106.25 122.92 111.88 108.02Z" fill="white"/>
<g style="mix-blend-mode:multiply" opacity="0.23">
<path d="M75 59.7299C80.7 59.7299 85.5 58.1599 91 56.8699C92.54 56.5099 95.71 54.7999 95.71 56.3899C95.71 56.7499 95.07 56.6899 94.77 56.8699C90.0294 59.7862 86.142 63.9013 83.5 68.7999C82.56 70.4999 80.04 75.1899 80.67 74.0499C102.24 34.63 258.89 19.8399 249.85 180C249.77 181.43 248.03 183.83 249.38 184.29C252.2 185.29 256.71 182.48 260.22 183.81C261.8 184.41 273.16 190.81 274.36 190.01C276.36 188.65 265.31 182.41 265.67 180.01C273.67 126.1 234.93 69.6799 216.73 54.0099C193.44 34.0099 154.65 25.1399 153.73 24.9099C153.57 24.8599 149.95 27.1299 148.08 26.8099C141.3 25.6699 133.69 23.0599 126.87 21.0899C125.87 20.7899 119.56 15.8599 119.33 16.3199C118.57 17.8699 118.12 26.5099 118.86 27.7699C119.4 28.6799 122.74 27.2899 121.69 27.2899C112.95 27.2899 101.92 30.1499 92.47 32.0599C92.13 32.1299 91.53 32.1799 91.53 32.5399C91.53 35.2799 103.78 33.4799 103.78 35.3999C103.78 36.7699 86.78 41.6299 84.46 43.5099C83.77 44.0699 81 46.2199 81.63 46.8499C83.89 49.1399 89.49 46.2999 92.47 47.8499" fill="#3F2719"/>
</g>
<path d="M94.3099 55.62C87.8999 60 81.9999 68.48 78.8399 75.29C53.4199 129.49 91.4499 196.99 83.2899 218.29" stroke="#2D1F04" stroke-width="2.82" stroke-linecap="round" stroke-linejoin="round"/>
<path d="M92.3599 56.47C89.2399 58.05 87.1799 58.09 83.9999 59C82.3899 59.47 81.1499 60.07 79.5399 60.42C77.9299 60.77 76.5399 60.85 75.0699 61.26C74.4199 61.45 73.0699 62.51 73.0699 61.83C73.0699 59.7 89.94 50.2 93.16 49.12C93.63 48.96 94.3899 49.03 94.5499 48.55C94.7799 47.87 93.2899 47.88 92.5499 47.7C89.3699 46.9 81.76 49.4 79.16 47.42C78.45 46.88 84.1599 43.42 84.4599 43.19C87.9699 41.19 91.4599 38.67 95.3399 37.54C97.6199 36.88 102.34 38.54 102.34 36.12C102.34 33.27 89.6699 34.3 88.6699 33.3C88.5299 33.15 89.0499 33.11 89.2299 33.02C92.1572 31.5346 95.2482 30.3969 98.4399 29.63C104.23 28.25 114.44 26.85 120.2 28.78" stroke="#2D1F04" stroke-width="2.82" stroke-linecap="round" stroke-linejoin="round"/>
<path d="M121.1 30.1999C119.45 26.8599 116.5 21.3699 118.03 17.4899C118.11 17.2799 119.39 15.9199 119.7 16.0799C120.85 16.6599 121.64 18.6999 123.05 19.4699C128.685 22.4348 134.692 24.631 140.91 25.9999C144.53 26.8499 148.21 27.1799 151.79 27.9999C152.62 28.145 153.458 28.2385 154.3 28.2799C154.3 28.2799 149.41 23.8399 151.23 22.9199C151.55 22.7499 165.57 28.0599 166.86 28.5699C176.86 32.5099 187.02 34.8799 196.52 39.5699" stroke="#2D1F04" stroke-width="2.82" stroke-linecap="round" stroke-linejoin="round"/>
<g style="mix-blend-mode:multiply">
<path d="M180.59 33C250.59 56.53 267.69 143.15 267.69 193.31" stroke="#2D1F04" stroke-width="2.82" stroke-linecap="round" stroke-linejoin="round"/>
</g>
<path d="M275.77 180C275.831 181.879 275.721 183.761 275.44 185.62" stroke="#2D1F04" stroke-width="2.82" stroke-linecap="round" stroke-linejoin="round"/>
<path d="M276.07 182.44C276.35 184.35 276.02 186.1 276.28 187.96" stroke="#2D1F04" stroke-width="2.82" stroke-linecap="round" stroke-linejoin="round"/>
<path d="M237.87 102.22L60.2799 105.42" stroke="#2D1F04" stroke-width="8.19" stroke-linecap="round" stroke-linejoin="round"/>
<path d="M178.74 108.08C184.28 124.93 213.37 119.56 213.9 105.91" stroke="#2D1F04" stroke-width="3.29" stroke-linecap="round" stroke-linejoin="round"/>
<path d="M81.89 110.51C79.51 122.59 112.32 123.58 112.32 108.35" stroke="#2D1F04" stroke-width="3.29" stroke-linecap="round" stroke-linejoin="round"/>
<path d="M123.58 120C123.4 116.36 130.47 113 139.36 112.6C148.25 112.2 155.61 114.76 155.79 118.4C155.97 122.04 148.9 125.4 140.01 125.8C131.12 126.2 123.76 123.68 123.58 120Z" fill="#251707"/>
<path d="M199.55 105.43L200.46 104.82" stroke="#2D1F04" stroke-width="3.29" stroke-linecap="round" stroke-linejoin="round"/>
<path d="M139.72 127C139.72 140.61 147.29 124.57 157.84 129.91" stroke="#2D1F04" stroke-width="3.29" stroke-linecap="round" stroke-linejoin="round"/>
<path d="M98.44 107.78C98.4519 106.728 98.7745 105.704 99.3673 104.835C99.9601 103.967 100.797 103.293 101.772 102.899C102.746 102.504 103.816 102.407 104.846 102.62C105.876 102.832 106.82 103.345 107.56 104.092C108.299 104.84 108.801 105.79 109.002 106.822C109.202 107.854 109.093 108.923 108.688 109.893C108.283 110.864 107.6 111.693 106.725 112.276C105.85 112.859 104.822 113.17 103.77 113.17C103.066 113.166 102.37 113.024 101.721 112.751C101.072 112.478 100.484 112.079 99.9887 111.579C99.4938 111.078 99.1022 110.485 98.8365 109.833C98.5708 109.182 98.4361 108.484 98.44 107.78V107.78Z" fill="#2D1F04"/>
<path d="M198.73 105.8C198.742 104.748 199.064 103.724 199.657 102.855C200.25 101.987 201.087 101.313 202.061 100.919C203.036 100.525 204.106 100.427 205.136 100.64C206.166 100.852 207.11 101.365 207.849 102.112C208.589 102.86 209.091 103.81 209.291 104.842C209.492 105.874 209.383 106.943 208.978 107.913C208.573 108.884 207.89 109.713 207.015 110.296C206.14 110.879 205.111 111.19 204.06 111.19C203.356 111.187 202.659 111.046 202.009 110.773C201.36 110.501 200.771 110.103 200.276 109.602C199.78 109.101 199.389 108.507 199.124 107.855C198.858 107.203 198.725 106.504 198.73 105.8V105.8Z" fill="#2D1F04"/>
<path d="M191.42 111.68L190.16 111.54Z" fill="#2D1F04"/>
<path d="M122 264.49L312 306.43C315.93 307.26 316.38 314.27 313 316.43L217 377.73C215.043 378.835 212.885 379.538 210.653 379.799C208.421 380.06 206.159 379.873 204 379.25L11.9999 312.09C8.1999 310.76 8.1299 308.41 11.8299 306.84L98.2599 270.25C102 268.68 118 263.66 122 264.49Z" fill="#E7E7E7"/>
<path d="M122 264.49L312 306.43C315.93 307.26 316.38 314.27 313 316.43L217 377.73C215.043 378.835 212.885 379.538 210.653 379.799C208.421 380.06 206.159 379.873 204 379.25L11.9999 312.09C8.1999 310.76 8.1299 308.41 11.8299 306.84L98.2599 270.25C102 268.68 118 263.66 122 264.49Z" stroke="#2D1F04" stroke-width="2.82" stroke-linecap="round" stroke-linejoin="round"/>
<path d="M124.82 264L314.82 305.93C318.76 306.76 314.97 311.1 311.58 313.26L213.55 375C210.16 377.16 203.97 375.51 200.17 374.18L16.3299 310.28C12.5399 308.95 10.7199 309.11 14.4199 307.55L94.9399 272.45L101.1 269.77C104.81 268.2 120.88 263.19 124.82 264Z" fill="#D2D2D2"/>
<path d="M107 120.19L308.22 145.69C311.299 146.148 314.117 147.682 316.172 150.019C318.228 152.357 319.389 155.348 319.45 158.46L315.32 311.46L107 265.82L96.49 130.08C96.09 123.83 100.8 119.4 107 120.19Z" fill="#D2D2D2"/>
<path d="M107 120.19L308.22 145.69C311.299 146.148 314.117 147.682 316.172 150.019C318.228 152.357 319.389 155.348 319.45 158.46L315.32 311.46L107 265.82L96.49 130.08C96.09 123.83 100.8 119.4 107 120.19Z" stroke="#2D1F04" stroke-width="2.82" stroke-linecap="round" stroke-linejoin="round"/>
<path d="M108.11 119.86L304.89 145.36C307.935 145.85 310.708 147.401 312.721 149.737C314.734 152.074 315.856 155.046 315.89 158.13L311.36 309.9L108.69 263.69L97.82 129.76C97.43 123.51 102 119.08 108.11 119.86Z" fill="#222222"/>
<path d="M108.11 119.86L304.89 145.36C307.935 145.85 310.708 147.401 312.721 149.737C314.734 152.074 315.856 155.046 315.89 158.13L311.36 309.9L108.69 263.69L97.82 129.76C97.43 123.51 102 119.08 108.11 119.86Z" stroke="#2D1F04" stroke-width="2.82" stroke-linecap="round" stroke-linejoin="round"/>
<path d="M101.17 131.15L304.08 159.19L304.17 299.13L125.65 261.81L109.45 258.43L101.17 131.15Z" fill="#FAFAFA"/>
<path d="M101.17 131.15L304.08 159.19L304.17 299.13L125.65 261.81L109.45 258.43L101.17 131.15Z" stroke="#2D1F04" stroke-width="2.82" stroke-linecap="round" stroke-linejoin="round"/>
<path d="M105.88 271.99L293.4 314.36L243.9 344.15L59.3099 291.29L105.88 271.99Z" fill="#222222"/>
<path d="M66.22 287.25L262.76 340.7" stroke="#D2D2D2" stroke-width="1.63" stroke-linecap="round" stroke-linejoin="round"/>
<path d="M78.02 282.12L272.51 335.04" stroke="#D2D2D2" stroke-width="1.63" stroke-linecap="round" stroke-linejoin="round"/>
<path d="M86.98 276.87L280.68 327.18" stroke="#D2D2D2" stroke-width="1.63" stroke-linecap="round" stroke-linejoin="round"/>
<path d="M97.98 273.41L280.06 317.31L288.77 319.41L292.32 320.26" stroke="#D2D2D2" stroke-width="1.63" stroke-linecap="round" stroke-linejoin="round"/>
<path d="M227.4 344.23L281.15 309.53" stroke="#D2D2D2" stroke-width="1.63" stroke-linecap="round" stroke-linejoin="round"/>
<path d="M212.99 340.29L264.63 306.04" stroke="#D2D2D2" stroke-width="1.63" stroke-linecap="round" stroke-linejoin="round"/>
<path d="M197.21 335.24L250.19 301.19" stroke="#D2D2D2" stroke-width="1.63" stroke-linecap="round" stroke-linejoin="round"/>
<path d="M184.33 330.17L235.96 298.25" stroke="#D2D2D2" stroke-width="1.63" stroke-linecap="round" stroke-linejoin="round"/>
<path d="M182 318.66L221.42 294.1" stroke="#D2D2D2" stroke-width="1.63" stroke-linecap="round" stroke-linejoin="round"/>
<path d="M168.49 314.57L192.48 300L206.43 291.53" stroke="#D2D2D2" stroke-width="1.63" stroke-linecap="round" stroke-linejoin="round"/>
<path d="M155 311.19L189.37 288.89" stroke="#D2D2D2" stroke-width="1.63" stroke-linecap="round" stroke-linejoin="round"/>
<path d="M138.96 307.02L174.17 284.94" stroke="#D2D2D2" stroke-width="1.63" stroke-linecap="round" stroke-linejoin="round"/>
<path d="M123.55 302.94C123.55 302.94 160.15 281.6 160.62 282.23" stroke="#D2D2D2" stroke-width="1.63" stroke-linecap="round" stroke-linejoin="round"/>
<path d="M88.86 309.57L94.41 306.44L146.88 279.1" stroke="#D2D2D2" stroke-width="1.63" stroke-linecap="round" stroke-linejoin="round"/>
<path d="M72.83 308L134.58 275.14" stroke="#D2D2D2" stroke-width="1.63" stroke-linecap="round" stroke-linejoin="round"/>
<path d="M52.84 305.5L121.88 272.44" stroke="#D2D2D2" stroke-width="1.63" stroke-linecap="round" stroke-linejoin="round"/>
<path d="M83.7199 219.48C80.3699 218.55 78.0899 223.66 75.8899 226.81C72.8899 231.08 77.7099 230.98 72.4199 234.09C54.6399 244.56 21.1599 258.49 21.7699 301.87" stroke="#2D1F04" stroke-width="2.82" stroke-linecap="round" stroke-linejoin="round"/>
<path d="M84 219.14C93.1 225.19 94.91 226.05 106.06 227.43" stroke="#2D1F04" stroke-width="2.82" stroke-linecap="round" stroke-linejoin="round"/>
<path d="M75.33 232.21C82.81 238.12 89.16 240.43 98.76 242.42" stroke="#2D1F04" stroke-width="2.82" stroke-linecap="round" stroke-linejoin="round"/>
<path d="M116.6 310.76L181.41 329.37C182.71 329.75 182.79 330.56 181.58 331.18L148.06 348.34C146.633 348.98 145.027 349.1 143.52 348.68L78.1699 326.68C76.8799 326.25 76.8499 325.48 78.1099 324.96L112 311C113.48 310.487 115.075 310.403 116.6 310.76V310.76Z" fill="#F0F0F0"/>
<path d="M237.88 171.38C237.41 170.77 237.63 169.68 237.17 169.05C236.833 168.608 236.455 168.199 236.04 167.83C233.04 165.15 234.7 172.7 237.69 171.83C239 171.44 240.97 168.03 243.74 168.88C244.85 169.18 238.74 172.52 237.88 171.38Z" fill="#FAFAFA"/>
<path d="M161 185.66C161.46 185.05 161.25 183.96 161.71 183.34C162.044 182.892 162.422 182.48 162.84 182.11C165.79 179.44 164.18 186.98 161.18 186.11C159.88 185.71 157.9 182.3 155.18 183.11C154.05 183.46 160.15 186.8 161 185.66Z" fill="#FAFAFA"/>
<path d="M180.36 161C180.84 160.47 180.9 159.37 181.36 158.83C181.702 158.464 182.077 158.129 182.48 157.83C185.3 155.68 182.53 162.83 180.4 161.45C179.47 160.86 178.64 157.2 176.33 157.59C175.43 157.75 179.46 162 180.36 161Z" fill="#FAFAFA"/>
<path d="M178.42 222.73C178.335 222.73 178.254 222.764 178.194 222.824C178.134 222.884 178.1 222.965 178.1 223.05C178.1 223.135 178.134 223.216 178.194 223.276C178.254 223.336 178.335 223.37 178.42 223.37C178.461 223.374 178.502 223.37 178.542 223.357C178.581 223.345 178.617 223.324 178.648 223.297C178.679 223.27 178.704 223.236 178.722 223.199C178.739 223.162 178.749 223.121 178.75 223.08C178.754 223.035 178.749 222.989 178.734 222.946C178.719 222.903 178.695 222.863 178.664 222.83C178.633 222.797 178.595 222.771 178.553 222.754C178.511 222.736 178.465 222.728 178.42 222.73Z" fill="#281D07"/>
<path d="M26.23 299C23.58 288.46 34.12 270.95 47.14 266.61C50.63 265.45 56.14 262.86 59.88 263.61C60.48 263.73 69.93 264.06 69.93 263.66C70.9604 264.094 71.948 264.623 72.88 265.24C67.88 263.98 56.31 268.91 52.64 271.85C47.33 276.09 44.83 284.8 41.15 290.32C40.9666 290.56 40.8657 290.852 40.8621 291.154C40.8585 291.456 40.9526 291.751 41.1302 291.995C41.3079 292.239 41.5596 292.419 41.8479 292.508C42.1361 292.597 42.4456 292.591 42.73 292.49C43.15 292.36 26.18 299.4 26.23 299Z" fill="#CAA77A"/>
<path d="M41.9999 290.4C41.4599 284.64 46.6899 278.56 50.7799 274.71C53.6299 272.03 69.1699 261.71 72.8799 264.05C77.5899 267.05 83.3699 269.13 88.0499 272.68C91.5699 275.34 95.9499 277.74 97.2099 282.26C99.3004 289.686 102.117 296.887 105.62 303.76C105.98 304.46 108.2 309.55 106.62 309.76C105.04 309.97 102.08 306.01 101.04 305.04C98.2099 302.4 85.9699 289.98 81.6399 292.55C76.3099 295.71 69.2999 300.87 62.9499 301.44C59.7699 301.72 44.8399 295.57 42.7499 292.98C42.2459 292.215 41.9845 291.316 41.9999 290.4V290.4Z" fill="#D2D2D2"/>
<path d="M25.6099 300.71C24.6099 297.08 25.9599 289.71 27.2199 286.38C33.3399 270.03 51.2199 261.16 67.8199 263.19C73.422 263.852 78.7845 265.844 83.4599 269C92.5199 275.17 106.88 296.08 106.66 308.9C106.66 309.4 107.3 310.18 103.8 307.29C99.1299 303.43 89.7999 295.34 87.2199 293.57C81.4299 289.52 72.0799 300.76 64.6799 300.8C57.2799 300.84 46.6299 297.85 41.1099 293.59" stroke="#2D1F04" stroke-width="2.82" stroke-linecap="round" stroke-linejoin="round"/>
<path d="M40.5699 294.59C48.9999 271 57.2999 268.45 72.2899 264.28" stroke="#2D1F04" stroke-width="2.82" stroke-linecap="round" stroke-linejoin="round"/>
<path d="M53.9199 272.43C56.7599 271.58 90.0299 294.14 105.99 309.37" stroke="#2D1F04" stroke-width="2.82" stroke-linecap="round" stroke-linejoin="round"/>
<path d="M47.08 281.83C55.43 288.77 64.74 294.21 75.24 296.06" stroke="#2D1F04" stroke-width="2.82" stroke-linecap="round" stroke-linejoin="round"/>
<g style="mix-blend-mode:multiply" opacity="0.23">
<path d="M35.4999 298C34.2799 298.85 49.4999 307.39 53.5899 308.42C65.5299 311.42 75.5299 303.28 86.9299 306.42C89.0899 307.01 106.99 312.71 108.22 310.77C108.98 309.58 102.76 306.89 101.91 306.05C97.6299 301.84 90.9099 294.51 84.8199 292.62C77.8199 290.45 72.2399 300.51 65.2499 300.67C61.6199 300.75 57.9899 300.98 54.4399 300.1C49.9599 298.99 46.0099 294.89 41.4399 294.42C39.7899 294.24 37.0899 296.91 35.4999 298Z" fill="#3F2719"/>
</g>
<g style="mix-blend-mode:multiply" opacity="0.23">
<path d="M104.11 233.22C102.66 241.33 105.6 263.81 90.02 273.37C91.96 273.63 94.55 271.26 96.13 270.37C99.61 268.42 104.41 268.24 107.52 265.86C107.72 265.724 107.859 265.516 107.91 265.28C108.5 260.83 105.91 253.1 105.4 248.45C105.06 245.45 104.06 241.83 104.47 238.81C104.72 237 104.43 231.38 104.11 233.22Z" fill="#3F2719"/>
</g>
<path d="M87.97 223.11L84.24 230.06" stroke="#2D1F04" stroke-width="2.8" stroke-linecap="round" stroke-linejoin="round"/>
<path d="M92.86 225.57L89.12 232.52" stroke="#2D1F04" stroke-width="2.8" stroke-linecap="round" stroke-linejoin="round"/>
<path d="M100.58 63.78L100.67 71.14" stroke="#9D7B51" stroke-width="4.07" stroke-linecap="round" stroke-linejoin="round"/>
<path d="M107.05 66.26L107.14 73.61" stroke="#9D7B51" stroke-width="4.07" stroke-linecap="round" stroke-linejoin="round"/>
<path d="M92.96 205.41L93.05 212.76" stroke="#9D7B51" stroke-width="4.07" stroke-linecap="round" stroke-linejoin="round"/>
<path d="M123.74 192L127.6 163.63L142.21 165.63C144.316 165.834 146.378 166.353 148.33 167.17C149.674 167.796 150.772 168.851 151.45 170.17C152.08 171.571 152.331 173.114 152.176 174.643C152.022 176.172 151.468 177.633 150.57 178.88C149.747 179.936 148.665 180.763 147.43 181.28C146.397 181.682 145.307 181.922 144.2 181.99C144.973 182.338 145.693 182.792 146.34 183.34C146.802 183.854 147.202 184.421 147.53 185.03C147.926 185.639 148.261 186.285 148.53 186.96L151.66 195.76L141.75 194.41L138.25 185.1C137.99 184.22 137.551 183.403 136.96 182.7C136.391 182.174 135.67 181.842 134.9 181.75L134.13 181.64L132.56 193.16L123.74 192ZM134.84 176.32L138.54 176.82C139.334 176.87 140.13 176.846 140.92 176.75C141.502 176.721 142.051 176.474 142.46 176.06C142.887 175.638 143.161 175.085 143.24 174.49C143.318 174.098 143.305 173.693 143.203 173.307C143.1 172.92 142.911 172.562 142.65 172.26C141.75 171.532 140.637 171.117 139.48 171.08L135.63 170.55L134.84 176.32Z" fill="black"/>
<path d="M193.86 191.94L202.27 192.55C202.21 193.674 202.444 194.794 202.95 195.8C203.335 196.437 203.865 196.973 204.498 197.364C205.131 197.756 205.848 197.991 206.59 198.05C207.616 198.258 208.683 198.084 209.59 197.56C209.932 197.371 210.226 197.105 210.449 196.784C210.672 196.463 210.818 196.094 210.876 195.708C210.934 195.321 210.902 194.926 210.783 194.554C210.664 194.182 210.461 193.841 210.19 193.56C209.623 192.893 208.2 192.14 205.92 191.3C202.187 189.92 199.6 188.4 198.16 186.74C197.455 185.963 196.933 185.038 196.633 184.032C196.334 183.026 196.264 181.966 196.43 180.93C196.628 179.444 197.265 178.051 198.26 176.93C199.387 175.683 200.859 174.799 202.49 174.39C204.832 173.858 207.257 173.803 209.62 174.23C213.24 174.72 215.92 175.77 217.62 177.38C219.32 178.99 220.18 181.28 220.14 184.27L211.81 183.63C211.855 183.099 211.791 182.564 211.622 182.058C211.453 181.552 211.182 181.086 210.826 180.689C210.47 180.292 210.036 179.972 209.552 179.749C209.068 179.525 208.543 179.403 208.01 179.39C207.199 179.217 206.353 179.334 205.62 179.72C205.35 179.872 205.119 180.085 204.946 180.342C204.772 180.599 204.661 180.893 204.62 181.2C204.597 181.438 204.627 181.678 204.708 181.903C204.79 182.128 204.92 182.332 205.09 182.5C205.905 183.184 206.861 183.679 207.89 183.95C210.654 184.848 213.305 186.062 215.79 187.57C217.17 188.465 218.274 189.725 218.98 191.21C219.564 192.584 219.758 194.093 219.54 195.57C219.302 197.36 218.536 199.037 217.34 200.39C216.1 201.806 214.468 202.822 212.65 203.31C210.36 203.879 207.976 203.968 205.65 203.57C200.83 202.903 197.617 201.52 196.01 199.42C194.406 197.272 193.641 194.612 193.86 191.94V191.94Z" fill="black"/>
<path d="M116.9 229.91L125.32 230.52C125.255 231.644 125.49 232.766 126 233.77C126.383 234.406 126.912 234.942 127.543 235.333C128.175 235.724 128.89 235.96 129.63 236.02C130.656 236.226 131.723 236.052 132.63 235.53C132.973 235.33 133.267 235.055 133.491 234.726C133.714 234.398 133.861 234.023 133.92 233.63C133.965 233.248 133.926 232.862 133.805 232.497C133.684 232.132 133.484 231.799 133.22 231.52C132.66 230.85 131.22 230.1 128.96 229.27C125.233 227.877 122.647 226.353 121.2 224.7C120.495 223.923 119.973 222.998 119.673 221.992C119.374 220.986 119.304 219.926 119.47 218.89C119.668 217.404 120.305 216.011 121.3 214.89C122.427 213.643 123.899 212.759 125.53 212.35C127.868 211.818 130.29 211.763 132.65 212.19C136.283 212.683 138.95 213.733 140.65 215.34C142.35 216.947 143.19 219.243 143.17 222.23L134.84 221.59C134.888 221.058 134.826 220.522 134.658 220.015C134.49 219.508 134.219 219.041 133.863 218.643C133.506 218.245 133.072 217.925 132.586 217.703C132.1 217.48 131.574 217.36 131.04 217.35C130.228 217.175 129.381 217.296 128.65 217.69C128.381 217.841 128.151 218.053 127.978 218.308C127.804 218.563 127.692 218.854 127.65 219.16C127.626 219.399 127.657 219.64 127.74 219.865C127.823 220.091 127.956 220.294 128.13 220.46C128.952 221.192 129.936 221.719 131 222C133.763 222.897 136.411 224.116 138.89 225.63C140.274 226.516 141.379 227.774 142.08 229.26C142.67 230.633 142.864 232.143 142.64 233.62C142.405 235.409 141.643 237.087 140.45 238.44C139.209 239.859 137.572 240.876 135.75 241.36C133.46 241.932 131.076 242.02 128.75 241.62C123.917 240.953 120.7 239.57 119.1 237.47C117.47 235.302 116.688 232.614 116.9 229.91V229.91Z" fill="black"/>
<path d="M149.64 215L158.41 216.19L155.5 237.58L169.18 239.44L168.18 246.44L145.73 243.44L149.64 215Z" fill="black"/>
<path d="M172.36 232.59C172.987 227.963 174.767 224.533 177.7 222.3C180.64 220.07 184.4 219.3 189.01 219.89C193.62 220.48 197.2 222.3 199.41 225.18C201.62 228.06 202.41 231.79 201.79 236.36C201.514 239.185 200.56 241.902 199.01 244.28C197.638 246.23 195.716 247.727 193.49 248.58C190.888 249.505 188.092 249.746 185.37 249.28C182.628 248.998 179.983 248.107 177.63 246.67C175.63 245.312 174.083 243.386 173.19 241.14C172.152 238.416 171.866 235.463 172.36 232.59V232.59ZM181.12 233.82C180.73 236.68 180.99 238.82 181.88 240.21C182.361 240.876 182.971 241.438 183.674 241.862C184.378 242.287 185.16 242.565 185.973 242.68C186.786 242.795 187.615 242.744 188.408 242.531C189.201 242.318 189.944 241.947 190.59 241.44C191.79 240.353 192.607 238.223 193.04 235.05C193.4 232.383 193.127 230.357 192.22 228.97C191.757 228.281 191.146 227.705 190.431 227.283C189.717 226.86 188.917 226.603 188.09 226.53C187.287 226.39 186.463 226.435 185.68 226.66C184.897 226.885 184.176 227.285 183.57 227.83C182.33 228.93 181.52 230.93 181.12 233.82Z" fill="black"/>
<path d="M205.39 222.61L232 226.24L231.05 233.24L222.15 232L219.24 253.37L210.48 252.17L213.38 230.81L204.44 229.59L205.39 222.61Z" fill="black"/>
<path d="M236.05 226.79L244.82 227.98L243.47 237.91L253.05 239.21L254.4 229.28L263.2 230.48L259.34 258.85L250.54 257.65L252.1 246.18L242.52 244.87L241 256.35L232.23 255.16L236.05 226.79Z" fill="black"/>
<path d="M264.91 250.05L273.33 250.66C273.265 251.784 273.5 252.906 274.01 253.91C274.395 254.547 274.925 255.083 275.558 255.474C276.191 255.866 276.908 256.101 277.65 256.16C278.676 256.368 279.743 256.194 280.65 255.67C280.991 255.48 281.284 255.213 281.506 254.892C281.728 254.57 281.873 254.202 281.93 253.815C281.987 253.429 281.955 253.034 281.835 252.662C281.715 252.29 281.512 251.951 281.24 251.67C280.68 251.003 279.26 250.253 276.98 249.42C273.247 248.033 270.66 246.51 269.22 244.85C268.511 244.068 267.987 243.135 267.69 242.122C267.392 241.109 267.327 240.042 267.5 239C267.698 237.514 268.335 236.121 269.33 235C270.457 233.753 271.929 232.869 273.56 232.46C275.902 231.927 278.327 231.873 280.69 232.3C284.31 232.793 286.977 233.843 288.69 235.45C290.403 237.057 291.243 239.353 291.21 242.34L282.88 241.7C282.928 241.169 282.866 240.633 282.699 240.127C282.531 239.621 282.262 239.154 281.906 238.757C281.551 238.359 281.117 238.039 280.633 237.816C280.148 237.593 279.623 237.472 279.09 237.46C278.275 237.286 277.424 237.406 276.69 237.8C276.421 237.951 276.191 238.163 276.018 238.418C275.844 238.673 275.732 238.964 275.69 239.27C275.662 239.508 275.689 239.75 275.771 239.976C275.853 240.201 275.986 240.405 276.16 240.57C276.974 241.256 277.93 241.751 278.96 242.02C281.723 242.917 284.371 244.136 286.85 245.65C288.234 246.536 289.339 247.794 290.04 249.28C290.63 250.653 290.824 252.163 290.6 253.64C290.37 255.43 289.607 257.109 288.41 258.46C287.166 259.876 285.53 260.892 283.71 261.38C281.42 261.952 279.036 262.04 276.71 261.64C271.89 260.973 268.677 259.59 267.07 257.49C265.479 255.35 264.712 252.709 264.91 250.05V250.05Z" fill="black"/>
<path d="M199.68 29.74C199.521 29.672 199.377 29.5708 199.26 29.4432C199.143 29.3156 199.054 29.1645 199 29C198.947 28.8358 198.927 28.6626 198.943 28.4908C198.958 28.3189 199.008 28.152 199.09 28L207.84 10.87C207.917 10.7136 208.025 10.5746 208.157 10.4611C208.29 10.3477 208.444 10.2623 208.61 10.21C208.773 10.1529 208.946 10.1306 209.118 10.1443C209.291 10.1581 209.458 10.2077 209.61 10.29C209.913 10.4407 210.144 10.7044 210.255 11.0242C210.365 11.3441 210.345 11.6945 210.2 12L202.02 28L211.35 32.76C211.654 32.9135 211.887 33.1787 212 33.5C212.061 33.6618 212.086 33.835 212.074 34.0076C212.062 34.1802 212.013 34.3482 211.93 34.5C211.854 34.6518 211.747 34.7861 211.616 34.8946C211.485 35.003 211.333 35.0831 211.17 35.13C211.006 35.1826 210.833 35.2017 210.661 35.1863C210.489 35.1708 210.322 35.1211 210.17 35.04L199.68 29.74Z" fill="black"/>
<path d="M219 41.44C217.833 40.6155 216.899 39.5027 216.29 38.21C215.736 37.0001 215.525 35.6615 215.68 34.34C215.858 32.9477 216.4 31.6268 217.25 30.51C218.066 29.3636 219.156 28.439 220.42 27.82C221.588 27.2685 222.885 27.0472 224.17 27.18C225.524 27.3369 226.81 27.8588 227.89 28.69C228.965 29.4398 229.805 30.4804 230.31 31.69C230.769 32.821 230.894 34.06 230.67 35.26C230.402 36.583 229.83 37.8257 229 38.89C228.915 39.0124 228.805 39.1157 228.677 39.1932C228.55 39.2707 228.408 39.3207 228.26 39.34C228.105 39.3627 227.946 39.3531 227.795 39.3118C227.643 39.2705 227.502 39.1984 227.38 39.1L218.13 32.26L219.36 30.59L228.64 37.45H227.23C227.77 36.7068 228.148 35.8585 228.34 34.96C228.519 34.1228 228.445 33.2511 228.126 32.4565C227.807 31.662 227.258 30.9807 226.55 30.5C225.778 29.9241 224.86 29.5775 223.9 29.5C222.996 29.4277 222.091 29.6151 221.29 30.04C220.42 30.5091 219.668 31.1689 219.09 31.97C218.508 32.739 218.132 33.6445 218 34.6C217.886 35.5391 218.024 36.4918 218.4 37.36C218.817 38.2825 219.473 39.0766 220.3 39.66C220.814 40.0361 221.389 40.3203 222 40.5C222.545 40.682 223.115 40.7765 223.69 40.78C223.998 40.7639 224.303 40.8481 224.56 41.02C224.8 41.1761 224.969 41.4204 225.03 41.7C225.106 42.0229 225.056 42.3628 224.89 42.65C224.799 42.7747 224.68 42.8766 224.543 42.9477C224.406 43.0188 224.254 43.0573 224.1 43.06C223.2 43.0753 222.303 42.9366 221.45 42.65C220.57 42.3888 219.742 41.9796 219 41.44V41.44Z" fill="black"/>
<path d="M230.58 51.3899C229.917 50.7719 229.446 49.9774 229.22 49.0999C228.98 48.2363 228.98 47.3236 229.22 46.4599C229.51 45.5293 230.026 44.6844 230.72 43.9999L240 34.2799C240.114 34.1517 240.252 34.0475 240.406 33.9737C240.561 33.8998 240.729 33.8577 240.9 33.8499C241.068 33.8447 241.234 33.875 241.389 33.9387C241.545 34.0025 241.684 34.0983 241.8 34.2199C241.925 34.336 242.025 34.4768 242.094 34.6334C242.162 34.79 242.198 34.959 242.198 35.1299C242.198 35.3008 242.162 35.4699 242.094 35.6265C242.025 35.7831 241.925 35.9239 241.8 36.0399L232.49 45.7699C231.941 46.2973 231.61 47.0106 231.56 47.7699C231.537 48.1048 231.589 48.4406 231.714 48.7523C231.839 49.0639 232.032 49.3435 232.28 49.5699L232.9 50.1699C233.014 50.2722 233.103 50.3993 233.16 50.5415C233.218 50.6837 233.241 50.8371 233.23 50.9899C233.211 51.328 233.065 51.6463 232.82 51.8799C232.705 52.0075 232.562 52.1071 232.403 52.1713C232.243 52.2354 232.071 52.2623 231.9 52.2499C231.518 52.2282 231.16 52.0598 230.9 51.7799L230.58 51.3899ZM234.58 37.8199C234.346 37.6168 234.202 37.3291 234.18 37.0199C234.168 36.8727 234.188 36.7246 234.24 36.5863C234.292 36.448 234.374 36.3229 234.48 36.2199C234.582 36.1066 234.707 36.0159 234.847 35.9539C234.986 35.8919 235.137 35.8599 235.29 35.8599C235.598 35.8746 235.89 36.0028 236.11 36.2199L241 40.8899C241.228 41.0968 241.367 41.3831 241.39 41.6899C241.404 41.8412 241.383 41.9936 241.33 42.1357C241.276 42.2778 241.19 42.4058 241.08 42.5099C240.979 42.6187 240.857 42.7051 240.721 42.7637C240.585 42.8222 240.438 42.8516 240.29 42.8499C239.981 42.8372 239.688 42.7087 239.47 42.4899L234.58 37.8199Z" fill="black"/>
<path d="M243.55 44.18C243.46 44.084 243.397 43.9659 243.367 43.8378C243.337 43.7097 243.342 43.5759 243.38 43.45C243.414 43.3112 243.486 43.1842 243.586 43.0822C243.686 42.9802 243.812 42.9069 243.95 42.87C244.548 42.6897 245.12 42.4308 245.65 42.1C245.989 41.8733 246.295 41.6007 246.56 41.29C246.769 41.028 246.962 40.7542 247.14 40.47C247.339 40.1693 247.578 39.8968 247.85 39.66C248.003 39.5048 248.187 39.3843 248.391 39.3067C248.595 39.229 248.812 39.1961 249.03 39.21C249.239 39.2219 249.443 39.2758 249.63 39.3686C249.817 39.4614 249.984 39.5912 250.12 39.75C250.296 39.9297 250.421 40.1537 250.481 40.3983C250.541 40.6429 250.534 40.8992 250.46 41.14C250.287 41.733 249.938 42.2596 249.46 42.65C249.042 43.0073 248.574 43.3005 248.07 43.52C247.486 43.7815 246.885 44.002 246.27 44.18C245.72 44.3415 245.153 44.4355 244.58 44.46C244.398 44.4864 244.213 44.4752 244.036 44.427C243.859 44.3788 243.693 44.2948 243.55 44.18V44.18Z" fill="black"/>
<path d="M240.52 63C239.781 62.0654 239.209 61.0098 238.83 59.88C238.472 58.9232 238.352 57.8936 238.48 56.88C238.494 56.7036 238.549 56.5327 238.639 56.3802C238.729 56.2278 238.852 56.0978 239 56C239.148 55.9101 239.314 55.8513 239.486 55.8273C239.657 55.8032 239.832 55.8143 240 55.86C240.172 55.8978 240.335 55.9694 240.479 56.0707C240.623 56.172 240.746 56.3009 240.84 56.45C240.927 56.5884 240.986 56.7427 241.014 56.904C241.041 57.0654 241.037 57.2305 241 57.39C240.915 58.0414 240.973 58.7034 241.17 59.33C241.384 60.1131 241.755 60.8445 242.26 61.48C242.782 62.2657 243.522 62.8811 244.39 63.25C244.674 63.3639 244.981 63.4053 245.285 63.3703C245.589 63.3354 245.879 63.2253 246.13 63.05C246.374 62.8566 246.566 62.6052 246.688 62.3188C246.81 62.0324 246.859 61.7201 246.83 61.41C246.686 60.3448 246.318 59.3223 245.75 58.41C244.984 57.1148 244.564 55.6444 244.53 54.14C244.543 53.6204 244.672 53.1102 244.908 52.6466C245.143 52.1831 245.478 51.7777 245.89 51.46C246.553 50.9122 247.39 50.6211 248.25 50.64C249.105 50.6911 249.93 50.9708 250.64 51.45C252.362 52.589 253.626 54.2996 254.21 56.28C254.46 57.1911 254.478 58.1506 254.26 59.07C254.24 59.2293 254.186 59.3824 254.102 59.5188C254.017 59.6552 253.904 59.7716 253.77 59.86C253.639 59.9392 253.493 59.9891 253.341 60.0063C253.189 60.0236 253.035 60.0078 252.89 59.96C252.58 59.8314 252.325 59.5977 252.17 59.3C251.996 58.9975 251.933 58.6441 251.99 58.3C252.091 57.6777 252.043 57.0403 251.85 56.44C251.614 55.8093 251.276 55.2215 250.85 54.7C250.399 54.0727 249.792 53.5731 249.09 53.25C248.832 53.119 248.543 53.0627 248.255 53.0875C247.967 53.1122 247.692 53.217 247.46 53.39C247.184 53.6004 246.978 53.8899 246.87 54.22C246.772 54.6682 246.796 55.1344 246.94 55.57C247.163 56.3418 247.472 57.0864 247.86 57.79C248.432 58.7929 248.853 59.8745 249.11 61C249.279 61.7668 249.237 62.5649 248.99 63.31C248.751 63.9773 248.328 64.5633 247.77 65C247.122 65.5161 246.327 65.8136 245.5 65.85C244.613 65.8776 243.737 65.6559 242.97 65.21C242.009 64.6516 241.174 63.8989 240.52 63Z" fill="black"/>
<path d="M254.64 86C253.954 84.713 253.548 83.2951 253.45 81.84C253.347 80.431 253.531 79.0159 253.99 77.68C254.974 74.8809 256.997 72.5677 259.64 71.22C260.957 70.5265 262.398 70.0983 263.88 69.96C266.736 69.6793 269.589 70.5263 271.83 72.32C272.97 73.2441 273.9 74.3996 274.56 75.71C275.155 76.8135 275.558 78.0108 275.75 79.25C275.893 80.4758 275.825 81.717 275.55 82.92C275.518 83.0843 275.453 83.2407 275.36 83.38C275.268 83.4938 275.152 83.586 275.02 83.65C274.892 83.6999 274.757 83.7302 274.62 83.74C274.502 83.7989 274.372 83.8296 274.24 83.8296C274.108 83.8296 273.978 83.7989 273.86 83.74C273.611 83.6263 273.407 83.4328 273.28 83.19C273.129 82.9194 273.082 82.6025 273.15 82.3C273.399 81.3822 273.463 80.4241 273.337 79.4815C273.212 78.5389 272.9 77.6307 272.42 76.81C271.917 75.824 271.203 74.9603 270.33 74.28C268.556 72.9229 266.334 72.287 264.11 72.5C261.768 72.744 259.604 73.8616 258.05 75.63C257.324 76.4792 256.761 77.4557 256.39 78.51C256.021 79.5414 255.861 80.6361 255.92 81.73C256.068 83.8009 256.998 85.7382 258.52 87.15C259.229 87.7916 260.031 88.3211 260.9 88.72C261.196 88.8518 261.434 89.0862 261.57 89.38C261.675 89.6501 261.675 89.9498 261.57 90.22C261.514 90.3703 261.429 90.508 261.319 90.6248C261.209 90.7416 261.077 90.8351 260.93 90.9C260.784 90.9782 260.624 91.029 260.46 91.05C260.28 91.0752 260.097 91.051 259.93 90.98C258.774 90.5209 257.717 89.8417 256.82 88.98C255.934 88.1136 255.197 87.1067 254.64 86V86Z" fill="black"/>
<path d="M260.05 97C259.981 96.8424 259.945 96.6721 259.945 96.5C259.945 96.3278 259.981 96.1575 260.05 96C260.121 95.8451 260.222 95.7059 260.347 95.5908C260.472 95.4757 260.62 95.387 260.78 95.33L272.72 90.79C272.877 90.7217 273.047 90.6871 273.219 90.6884C273.39 90.6896 273.56 90.7268 273.716 90.7974C273.872 90.868 274.012 90.9706 274.127 91.0985C274.241 91.2264 274.327 91.3767 274.38 91.54C274.453 91.6967 274.492 91.8674 274.493 92.0404C274.494 92.2135 274.458 92.3847 274.387 92.5424C274.315 92.7 274.211 92.8404 274.08 92.9539C273.95 93.0675 273.796 93.1514 273.63 93.2L261.7 97.74C261.543 97.8106 261.372 97.8471 261.2 97.8471C261.028 97.8471 260.857 97.8106 260.7 97.74C260.547 97.6676 260.41 97.5645 260.298 97.4373C260.187 97.31 260.102 97.1612 260.05 97ZM264.22 108C264.156 107.841 264.124 107.67 264.126 107.498C264.129 107.326 264.165 107.157 264.234 106.999C264.303 106.842 264.403 106.7 264.528 106.581C264.652 106.463 264.799 106.371 264.96 106.31L271.55 103.8C272.442 103.503 273.239 102.975 273.86 102.27C274.351 101.67 274.656 100.94 274.74 100.17C274.804 99.3488 274.678 98.5239 274.37 97.76C274.104 97.0204 273.665 96.3551 273.09 95.82C272.573 95.3439 271.949 95.0007 271.27 94.82C270.607 94.649 269.907 94.691 269.27 94.94L268.67 93.37C269.71 92.9764 270.838 92.8795 271.93 93.09C272.998 93.3022 273.991 93.7919 274.81 94.51C275.678 95.2789 276.341 96.2514 276.74 97.34C277.19 98.4726 277.352 99.6994 277.21 100.91C277.044 102.053 276.554 103.125 275.8 104C274.899 105.009 273.757 105.773 272.48 106.22L265.88 108.73C265.722 108.797 265.552 108.832 265.38 108.832C265.208 108.832 265.038 108.797 264.88 108.73C264.721 108.652 264.58 108.541 264.466 108.405C264.353 108.269 264.269 108.11 264.22 107.94V108ZM265.52 95C265.448 94.8431 265.411 94.6725 265.411 94.5C265.411 94.3274 265.448 94.1569 265.52 94C265.671 93.6833 265.94 93.4389 266.27 93.32L278.83 88.54C278.987 88.4701 279.157 88.4342 279.329 88.4347C279.501 88.4352 279.671 88.4721 279.828 88.5429C279.985 88.6137 280.125 88.7169 280.239 88.8457C280.353 88.9744 280.439 89.1258 280.49 89.29C280.557 89.4483 280.591 89.6183 280.591 89.79C280.591 89.9617 280.557 90.1317 280.49 90.29C280.415 90.444 280.31 90.5816 280.181 90.6949C280.052 90.8082 279.902 90.8949 279.74 90.95L267.2 95.63C266.879 95.7601 266.521 95.7601 266.2 95.63C266.043 95.5615 265.901 95.4613 265.784 95.3358C265.667 95.2102 265.577 95.0618 265.52 94.9V95Z" fill="black"/>
<path d="M266.44 115C266.331 114.67 266.356 114.311 266.51 114C266.591 113.849 266.702 113.716 266.836 113.61C266.97 113.503 267.125 113.425 267.29 113.38L279.47 109.65C279.633 109.592 279.806 109.569 279.978 109.582C280.151 109.596 280.318 109.646 280.47 109.73C280.621 109.816 280.754 109.93 280.86 110.068C280.967 110.205 281.045 110.362 281.09 110.53C281.148 110.692 281.172 110.865 281.16 111.037C281.147 111.209 281.1 111.377 281.02 111.53C280.94 111.684 280.829 111.819 280.692 111.926C280.556 112.033 280.398 112.109 280.23 112.15L268.05 115.88C267.889 115.937 267.717 115.96 267.547 115.947C267.376 115.934 267.21 115.887 267.059 115.807C266.908 115.727 266.775 115.617 266.668 115.483C266.562 115.349 266.484 115.195 266.44 115.03V115ZM283.62 109.71C283.555 109.493 283.534 109.266 283.558 109.041C283.581 108.816 283.648 108.598 283.756 108.399C283.864 108.201 284.01 108.025 284.185 107.883C284.361 107.74 284.563 107.634 284.78 107.57C284.997 107.497 285.227 107.472 285.455 107.497C285.683 107.521 285.903 107.594 286.1 107.71C286.296 107.814 286.47 107.956 286.611 108.127C286.751 108.299 286.857 108.497 286.92 108.71C287.048 109.142 287.002 109.608 286.791 110.006C286.579 110.404 286.22 110.704 285.79 110.84C285.573 110.911 285.344 110.936 285.118 110.916C284.891 110.895 284.67 110.828 284.47 110.72C284.266 110.614 284.086 110.468 283.94 110.291C283.794 110.114 283.685 109.91 283.62 109.69V109.71Z" fill="black"/>
<path d="M269.15 124.58C268.949 123.859 268.98 123.092 269.24 122.39C269.507 121.661 269.971 121.021 270.58 120.54C271.286 119.979 272.104 119.576 272.98 119.36L287.98 115.36C288.144 115.306 288.318 115.287 288.49 115.304C288.663 115.321 288.829 115.374 288.98 115.46C289.124 115.545 289.25 115.659 289.348 115.795C289.446 115.931 289.515 116.086 289.55 116.25C289.601 116.414 289.62 116.587 289.605 116.759C289.589 116.931 289.54 117.097 289.46 117.25C289.282 117.537 288.998 117.742 288.67 117.82L273.62 121.82C273.008 121.954 272.446 122.26 272 122.7C271.832 122.85 271.707 123.042 271.638 123.257C271.57 123.471 271.56 123.7 271.61 123.92L271.79 124.59C271.838 124.742 271.851 124.902 271.829 125.06C271.806 125.217 271.749 125.368 271.66 125.5C271.463 125.775 271.171 125.967 270.84 126.04C270.668 126.086 270.487 126.09 270.313 126.052C270.139 126.014 269.977 125.934 269.84 125.82C269.51 125.55 269.281 125.177 269.19 124.76L269.15 124.58Z" fill="black"/>
<path d="M271 132.4C270.826 131.671 270.882 130.906 271.16 130.21C271.46 129.494 271.947 128.872 272.57 128.41C273.294 127.872 274.127 127.5 275.01 127.32L290.18 123.84C290.347 123.79 290.523 123.776 290.695 123.801C290.868 123.825 291.033 123.886 291.18 123.98C291.325 124.067 291.449 124.185 291.544 124.325C291.639 124.464 291.702 124.623 291.73 124.79C291.777 124.957 291.79 125.131 291.768 125.303C291.745 125.475 291.688 125.641 291.6 125.79C291.508 125.93 291.389 126.05 291.25 126.143C291.111 126.236 290.954 126.299 290.79 126.33L275.6 129.8C274.984 129.919 274.413 130.206 273.95 130.63C273.775 130.772 273.642 130.958 273.563 131.169C273.483 131.38 273.462 131.608 273.5 131.83L273.66 132.52C273.703 132.67 273.711 132.828 273.685 132.982C273.66 133.136 273.6 133.282 273.51 133.41C273.304 133.684 272.999 133.867 272.66 133.92C272.487 133.967 272.304 133.97 272.129 133.928C271.954 133.886 271.793 133.801 271.66 133.68C271.346 133.396 271.135 133.016 271.06 132.6L271 132.4Z" fill="black"/>
</g>
<defs>
<clipPath id="clip0_334_5997">
<rect width="329" height="390" fill="white"/>
</clipPath>
</defs>
</svg>
