<svg width="278" height="298" viewBox="0 0 278 298" fill="none" xmlns="http://www.w3.org/2000/svg">
<g clip-path="url(#clip0_228_343)">
<path d="M30.7 52.2C26.9 52.2 16.7999 73.1 14.5999 77.3C-2.20005 108.8 3.99995 145.6 17.2999 177.1C20.6999 185.2 19.2 187.7 22.7 195.2C24.3 198.7 26.5 205.2 26.5 208.9C26.5 209.7 27.5999 207.4 27.5999 207.4C27.5999 207.4 27.6 210.4 26.4 207.7C26 206.9 25.6999 201.9 26.5999 201.9C26.9999 201.9 28.7 217.9 28.9 218.2C32.6 228.2 29.9 235.6 29.7 241.3C29.5 247 44.2 252.3 51.2 254.2C77.7999 261.4 104.7 253.8 131.4 253.8C138.1 253.8 157.3 256 162.9 250.1C167.6 245 169.1 238.5 172.9 232.8C178 225.1 190 215.7 198.2 212.2C206.7 208.5 217.4 210.8 225.8 213C228 213.6 234.4 216.5 236.5 214.2C240 210.5 241.6 199.5 240.7 194.8C238.4 182.2 239.1 163.7 236.9 151.5C235.3 143.1 232.5 135.2 229.6 127.2C218.3 95.5 202.3 69.8 177 50C170.7 45 160.1 36.3 152.8 32.4C145.8 28.6 141.6 27.2 134.6 23.4C125.4 18.4 108.9 13.5 98.9999 10.8C96.4999 10.1 102.8 15 102.6 15.5C102.3 16.2 96.2 16.1 95.2999 15.9C86.9999 14.1 78.5999 14.3 70.6999 10.5C69.3999 9.9 65.6 1.3 61.8 2.9C58 4.5 65.3 20.8 65.3 20.8C65.3 20.8 64.5999 19.6 64.0999 19.2C61.7999 17.3 56.7 15.7 53.7 15.1C47.5 13.8 44.7999 18.1 39.5 19.2C38.7999 19.4 29.4 21.7 29.4 21.8C29.4 23.2 42.5999 24.3 42.5999 25.8C42.5999 27.1 40.4 26.5 39.9 26.6C37 27.1 15.9 36 17.0999 40C17.5999 41.7 30.8999 40.3 32.5999 41.5C33.0999 41.8 34.0999 41.9 34.0999 41.9C34.0999 41.9 24.5 47.3 21.1 48.2C16.8 49.3 8.69995 58.5 12.7 57.2" fill="#2D1F04"/>
<path d="M215.4 203.6C214.5 203.6 213.7 203.7 212.8 204C199.6 208 182.1 214.3 173.6 226.4C170.9 230.2 166.7 240.3 163 243C161.3 244.2 159.1 244.9 157 245.4C146.5 247.6 138.5 248.7 128.1 250.9C105.7 255.7 86 254.1 63.5 249.2C59.9 248.4 50.6 247.6 46.9 246.9C42.6 246.1 38.7999 246 34.5 244.9C29.4 243.5 29.7 242.2 29.7 241.6C29.3 237.3 20.4 249.1 23.2 253C24.4 254.7 26.3 255.8 27.4 257.5C28 258.4 26.5999 259.4 26.2999 259.9C21.4 266.9 18.3 274.8 15.4 282.6C13.4999 287.6 12.3 292.3 11.2 297.2C17.8 297.1 261.2 294.9 275.5 294.4C273.5 271.8 268.5 248.2 258.1 233.3C252 224.6 243.7 213.1 232.8 210.2C227.4 208.6 221.5 203.5 215.4 203.6Z" fill="#2D1F04"/>
<path d="M12.4 116.2C15.6 102.1 20.9 76.9001 32.6 74.6001C39.3 73.3001 44.5 73.8001 52 71.8001C59.8 69.7001 58.9 71.7001 73.6 71.3001C88.3 70.9001 81.5 60.1001 82.1 59.9001C82.7 59.7001 92.3 60.1001 120.2 72.7001C149.1 85.8001 172.4 72.4001 188.5 103.7C192.1 110.7 197.7 126.8 193.9 144.7C188.4 170.8 185.5 181.8 159.1 201.4C127.7 224.7 62.8 236.2 30.4 192.2C15.2 171.6 6.39997 142.4 12.4 116.2Z" fill="#2D1F04"/>
<path d="M84 125.3C73 119.4 63.3 152.5 64.2 161C67.2 190.2 91.6 193.9 110 184C136.6 169.7 113.7 115.2 94.7 123.3" fill="#2D1F04"/>
<path d="M6.79994 107.8C3.89994 120.5 13.2999 162.6 17.7999 166.2C21.2999 169 44.4999 164.9 61.3999 143.5C77.4999 123.1 77.2999 79.3002 73.8999 75.7002C71.9999 73.6002 28.8999 73.4002 24.9999 74.3002C19.3999 75.4002 10.6999 90.3002 6.79994 107.8Z" fill="#2D1F04"/>
<path d="M113.5 72.5001C99.9 175.3 178.9 183.9 186.5 172C191.4 164.4 209.6 108.2 170.6 69.6001C169.2 68.2001 113.6 72.1001 113.5 72.5001Z" fill="#2D1F04"/>
<path d="M44.3 220.9V230.6" stroke="#2D1F04" stroke-width="3.87" stroke-miterlimit="10" stroke-linecap="round" stroke-linejoin="round"/>
<path d="M53.2 225.9V235.6" stroke="#2D1F04" stroke-width="3.87" stroke-miterlimit="10" stroke-linecap="round" stroke-linejoin="round"/>
<path opacity="0.23" d="M11.1 55.1C17.6 55.1 23.1 53.2 29.4 51.6C31.2 51.2 32.4 47.9 32.4 49.9C32.4 50.3 31.9 50.4 31.5 50.6C26.1 54.1 23.9 60.1 20.8 66.1C19.7 68.2 16.9 73.9 17.6 72.5C42.3 24.7 221.3 6.79997 211 200.9C210.9 202.6 208.9 205.6 210.5 206.1C213.7 207.3 218.9 203.9 222.9 205.5C224.7 206.2 237.7 214 239.1 213C241.4 211.3 240.3 202.1 240.2 199.1C236.9 114.3 196.5 64 170.3 43C154.4 30.3 102.1 13.1 101 12.8C100.8 12.7 100.6 16.6 98.5 16.2C90.8 14.8 77.1 14.3 70.3 8.19999C69.4 7.39999 61.9 1.89999 61.7 2.39999C60.8 4.29999 60.3 14.8 61.2 16.3C61.8 17.4 65.6 15.7 64.4 15.7C54.4 15.7 41.8 19.2 31 21.5C30.6 21.6 29.9 21.6 29.9 22.1C29.9 25.4 43.9 23.2 43.9 25.6C43.9 26.5 39.9 27.2 34.7 28.8C30.6 30.1 25.8 32.1 21.8 35.4C21 36.1 17.9 38.7 18.6 39.4C21.2 42.2 27.6 38.7 31 40.6" fill="#2D1F04"/>
<path opacity="0.23" d="M217.7 204.7C209.3 204.5 199.9 206.7 189.3 211.9C188.2 212.4 188.2 215.2 187.2 215.9C185.6 217.1 191.2 215.3 193.1 215.3C196.3 215.3 239.5 236.8 254.1 295C262.6 294.7 273.5 294.3 277 294.2C268.2 244.9 250.9 205.5 217.7 204.7Z" fill="#2D1F04"/>
<path d="M33.1 50.1001C25.8 55.3001 21.4 63.9001 16.5 71.3001C-7.60003 108 5.09997 154.5 22.3 191.2C23.8 194.4 26 198.2 26.4 201.8C26.6 203.6 25.7 206.7 26.4 208.3C26.7 209 28.2 206.5 28.3 207.3C28.7 210.7 28.3 214.6 28 217.9C27.9 219.2 26.5 222.6 27.4 221.7C27.7 221.4 28.5 218.5 29.6 219C30.3 219.2 29.6 239.9 29.2 241.7" stroke="#2D1F04" stroke-width="2.62" stroke-miterlimit="10" stroke-linecap="round" stroke-linejoin="round"/>
<path d="M30.9 51.1001C27.3 53.0001 25 53.1001 21.3 54.2001C19.5 54.8001 18 55.5001 16.2 55.9001C14.5 56.3001 12.7 56.4001 11.1 56.9001C10.4 57.1001 8.89996 58.4001 8.89996 57.6001C8.89996 55.0001 28.2 43.5001 31.9 42.2001C32.4 42.0001 33.3 42.1001 33.5 41.5001C33.8 40.7001 32.1 40.7001 31.3 40.5001C27.7 39.5001 13.2 42.8001 16 40.2001C31 25.9001 42.4 29.4001 42.4 26.5001C42.4 23.0001 27.9 24.3001 26.8 23.1001C26.6 22.9001 27.2 22.9001 27.4 22.8001C30.7 21.0001 34.3 19.6001 37.9 18.7001C44.5 17.0001 56.3 15.3001 62.8 17.7001" stroke="#2D1F04" stroke-width="2.62" stroke-miterlimit="10" stroke-linecap="round" stroke-linejoin="round"/>
<path d="M63.6999 19.3001C61.7999 15.2001 58.3999 8.6001 60.1999 3.9001C60.2999 3.6001 61.7999 2.0001 62.0999 2.2001C63.3999 2.9001 71.4999 16.5001 98.7999 16.6001C99.7999 16.6001 101.7 16.9001 101.7 16.9001C101.7 16.9001 96.0999 11.5001 98.1999 10.4001C98.5999 10.2001 114.6 16.6001 116.1 17.3001C127.6 22.1001 139.1 25.0001 150 30.6001" stroke="#2D1F04" stroke-width="2.62" stroke-miterlimit="10" stroke-linecap="round" stroke-linejoin="round"/>
<path d="M131.7 22.6001C211.7 51.1001 243 140.6 240.4 211.2" stroke="#2D1F04" stroke-width="2.62" stroke-miterlimit="10" stroke-linecap="round" stroke-linejoin="round"/>
<path d="M30 242.1C92.4 261.4 155.9 247.7 162.9 243.8" stroke="#2D1F04" stroke-width="2.62" stroke-miterlimit="10" stroke-linecap="round" stroke-linejoin="round"/>
<path d="M30 242.2C30.7 237.8 25.7 245.6 24.7 247.8C23.3 251 26.4 253.9 26.2 255.6C26 257.6 23.2 262 22.4 264.3C18.9999 274.1 13.3 284.8 10.7 296.2" stroke="#2D1F04" stroke-width="2.62" stroke-miterlimit="10" stroke-linecap="round" stroke-linejoin="round"/>
<path d="M251.4 222.6C254.3 226.9 257 231.8 259.6 236.3C266.4 248.7 272.9 273.8 276.5 293.5" stroke="#2D1F04" stroke-width="2.62" stroke-miterlimit="10" stroke-linecap="round" stroke-linejoin="round"/>
<path d="M160.3 271.6C167 278.3 173.1 285.2 176.9 294.8" stroke="#2D1F04" stroke-width="2.62" stroke-miterlimit="10" stroke-linecap="round" stroke-linejoin="round"/>
<path d="M174 288.6C173.2 282.5 172.6 274.7 170 269.2" stroke="#2D1F04" stroke-width="2.62" stroke-miterlimit="10" stroke-linecap="round" stroke-linejoin="round"/>
<path d="M226.4 206.3C186.1 196.3 160.6 243.9 162.8 245.7" stroke="#2D1F04" stroke-width="2.62" stroke-miterlimit="10" stroke-linecap="round" stroke-linejoin="round"/>
<path d="M252.8 224.9C245.2 214.4 239 210.6 226.7 206.4" stroke="#2D1F04" stroke-width="2.62" stroke-miterlimit="10" stroke-linecap="round" stroke-linejoin="round"/>
<path d="M108.9 73.5002L184.4 71.2002" stroke="#2D1F04" stroke-width="10.65" stroke-miterlimit="10" stroke-linecap="round" stroke-linejoin="round"/>
<path d="M73.7 73.3L5.59998 74.9" stroke="#2D1F04" stroke-width="10.65" stroke-miterlimit="10" stroke-linecap="round" stroke-linejoin="round"/>
<path d="M76.0999 128.5C75.8999 124.1 80.3999 119.8 90.2999 119.2C100.2 118.7 108.4 121.8 108.6 126.2C108.8 130.6 100.9 134.6 90.9999 135.2C81.0999 135.8 76.2999 132.9 76.0999 128.5Z" fill="#2D1F04"/>
<path d="M135.1 263.8C117.4 270.5 48.5 270 27 254.7" stroke="#2D1F04" stroke-width="2.62" stroke-miterlimit="10" stroke-linecap="round" stroke-linejoin="round"/>
<path d="M39.7 245.5C38.8 248.3 37.9 250.4 37.9 253.5" stroke="#2D1F04" stroke-width="2.62" stroke-miterlimit="10" stroke-linecap="round" stroke-linejoin="round"/>
<path d="M55.5999 249C54.3999 251.5 54.2 254.9 54.2 257.7" stroke="#2D1F04" stroke-width="2.62" stroke-miterlimit="10" stroke-linecap="round" stroke-linejoin="round"/>
<path d="M74.7 251.6L73.7 258.5" stroke="#2D1F04" stroke-width="2.62" stroke-miterlimit="10" stroke-linecap="round" stroke-linejoin="round"/>
<path d="M88.2 253.5V254.7V255.4V256.6V257.3V258.1V258.8" stroke="#2D1F04" stroke-width="2.62" stroke-miterlimit="10" stroke-linecap="round" stroke-linejoin="round"/>
<path d="M80.7 253.9V254.7V255.4V256.2V256.9V257.7" stroke="#2D1F04" stroke-width="2.62" stroke-miterlimit="10" stroke-linecap="round" stroke-linejoin="round"/>
<path d="M133.4 251.6V252.4V253.1V254.7V255.4" stroke="#2D1F04" stroke-width="2.62" stroke-miterlimit="10" stroke-linecap="round" stroke-linejoin="round"/>
<path d="M138.7 251.6V252.8V253.9V254.7" stroke="#2D1F04" stroke-width="2.62" stroke-miterlimit="10" stroke-linecap="round" stroke-linejoin="round"/>
<path d="M144.1 118.1C143.6 118 143.1 118 142.7 117.9L144.1 118.1Z" fill="#2D1F04"/>
<path d="M80.2 152C84.8 142.8 89.2 140.7 93.8 144.9C95.6 146.6 97.3 149.2 99.1 152.7" stroke="#2D1F04" stroke-width="3.05" stroke-miterlimit="10" stroke-linecap="round" stroke-linejoin="round"/>
<path opacity="0.8258" d="M153.2 80.2002H153.6C171.8 80.2002 186.5 97.1002 186.5 118C186.5 138.9 171.8 155.8 153.6 155.8H153.2C135 155.8 120.3 138.9 120.3 118C120.3 97.1002 135.1 80.2002 153.2 80.2002Z" fill="#2D1F04"/>
<path d="M153.2 80.4001H153.6C171.2 80.4001 185.4 94.7001 185.4 112.2C185.4 129.8 171.1 144 153.6 144H153.2C135.6 144 121.4 129.7 121.4 112.2C121.4 94.6001 135.7 80.4001 153.2 80.4001Z" fill="#2D1F04"/>
<path d="M153.2 80.4001H153.6C171.2 80.4001 185.4 94.7001 185.4 112.2C185.4 129.7 171.2 144 153.6 144H153.2C135.6 144 121.4 129.7 121.4 112.2C121.4 94.7001 135.7 80.4001 153.2 80.4001Z" stroke="#2D1F04" stroke-width="2.79" stroke-miterlimit="10" stroke-linecap="round" stroke-linejoin="round"/>
<path d="M152.8 111.4C154.733 111.4 156.3 109.341 156.3 106.8C156.3 104.26 154.733 102.2 152.8 102.2C150.867 102.2 149.3 104.26 149.3 106.8C149.3 109.341 150.867 111.4 152.8 111.4Z" fill="#2D1F04"/>
<path opacity="0.8258" d="M36.2 81.1001H36.5C53.2 81.1001 66.8 98.0001 66.8 118.9C66.8 139.8 53.2 156.7 36.5 156.7H36.2C19.5 156.7 5.89996 139.8 5.89996 118.9C5.89996 98.1001 19.4 81.1001 36.2 81.1001Z" fill="#2D1F04"/>
<path d="M36.2 81.3H36.5C52.7 81.3 65.8 95.6 65.8 113.1C65.8 130.7 52.7 144.9 36.5 144.9H36.2C20 144.9 6.89996 130.6 6.89996 113.1C6.89996 95.6 20 81.3 36.2 81.3Z" fill="#2D1F04"/>
<path d="M36.2 81.3H36.5C52.7 81.3 65.8 95.6 65.8 113.1C65.8 130.6 52.7 145 36.5 145H36.2C20 145 6.89996 130.7 6.89996 113.2C6.89996 95.7 20 81.3 36.2 81.3Z" stroke="#2D1F04" stroke-width="2.79" stroke-miterlimit="10" stroke-linecap="round" stroke-linejoin="round"/>
<path d="M35.8 112.3C37.5673 112.3 39 110.241 39 107.7C39 105.16 37.5673 103.1 35.8 103.1C34.0327 103.1 32.6 105.16 32.6 107.7C32.6 110.241 34.0327 112.3 35.8 112.3Z" fill="#2D1F04"/>
<path d="M148.6 56.1001H37.7V96.3001H148.6V56.1001Z" fill="#2D1F04" stroke="#2D1F04" stroke-width="1.5" stroke-miterlimit="10"/>
<path d="M148.6 46.1001H37.7V56.2001H148.6V46.1001Z" fill="#2D1F04" stroke="#2D1F04" stroke-width="1.5" stroke-miterlimit="10"/>
<path d="M142.1 53.9001C143.646 53.9001 144.9 52.6464 144.9 51.1C144.9 49.5537 143.646 48.3 142.1 48.3C140.554 48.3 139.3 49.5537 139.3 51.1C139.3 52.6464 140.554 53.9001 142.1 53.9001Z" fill="#2D1F04"/>
<path d="M139.5 48.4001L145.4 54.3001" stroke="#2D1F04" stroke-width="0.6603" stroke-miterlimit="10"/>
<path d="M139.1 54.0001L145 48.1001" stroke="#2D1F04" stroke-width="0.6603" stroke-miterlimit="10"/>
<path d="M70.8999 84.4002C75.3734 84.4002 78.9999 80.7737 78.9999 76.3002C78.9999 71.8267 75.3734 68.2002 70.8999 68.2002C66.4264 68.2002 62.7999 71.8267 62.7999 76.3002C62.7999 80.7737 66.4264 84.4002 70.8999 84.4002Z" fill="#2D1F04"/>
<path d="M66.7999 72.2002L75.1999 80.6002" stroke="#2D1F04" stroke-width="1.5248" stroke-miterlimit="10" stroke-linecap="round"/>
<path d="M66.7999 80.6002L75.1999 72.2002" stroke="#2D1F04" stroke-width="1.5248" stroke-miterlimit="10" stroke-linecap="round"/>
<path d="M84.0952 80.989V69.75H90.8781V70.9573H85.4562V74.7549H90.5269V75.9622H85.4562V79.7817H90.9659V80.989H84.0952ZM93.1556 80.989V72.5598H94.4068V73.8329H94.4946C94.6482 73.4159 94.9263 73.0775 95.3287 72.8177C95.7312 72.5579 96.1848 72.4281 96.6897 72.4281C96.7848 72.4281 96.9037 72.4299 97.0464 72.4336C97.1891 72.4372 97.297 72.4427 97.3702 72.45V73.7671C97.3263 73.7561 97.2257 73.7397 97.0683 73.7177C96.9147 73.6921 96.7519 73.6793 96.5799 73.6793C96.1702 73.6793 95.8043 73.7653 95.4824 73.9372C95.1641 74.1055 94.9116 74.3396 94.7251 74.6396C94.5421 74.936 94.4507 75.2744 94.4507 75.6549V80.989H93.1556ZM98.9054 80.989V72.5598H100.157V73.8329H100.244C100.398 73.4159 100.676 73.0775 101.079 72.8177C101.481 72.5579 101.935 72.4281 102.44 72.4281C102.535 72.4281 102.654 72.4299 102.796 72.4336C102.939 72.4372 103.047 72.4427 103.12 72.45V73.7671C103.076 73.7561 102.975 73.7397 102.818 73.7177C102.665 73.6921 102.502 73.6793 102.33 73.6793C101.92 73.6793 101.554 73.7653 101.232 73.9372C100.914 74.1055 100.661 74.3396 100.475 74.6396C100.292 74.936 100.2 75.2744 100.2 75.6549V80.989H98.9054ZM107.823 81.1646C107.062 81.1646 106.394 80.9835 105.82 80.6213C105.249 80.2591 104.803 79.7524 104.481 79.1012C104.163 78.45 104.004 77.689 104.004 76.8183C104.004 75.9403 104.163 75.1738 104.481 74.5189C104.803 73.864 105.249 73.3555 105.82 72.9933C106.394 72.6311 107.062 72.45 107.823 72.45C108.584 72.45 109.25 72.6311 109.821 72.9933C110.395 73.3555 110.841 73.864 111.16 74.5189C111.482 75.1738 111.643 75.9403 111.643 76.8183C111.643 77.689 111.482 78.45 111.16 79.1012C110.841 79.7524 110.395 80.2591 109.821 80.6213C109.25 80.9835 108.584 81.1646 107.823 81.1646ZM107.823 80.0012C108.401 80.0012 108.877 79.853 109.25 79.5567C109.623 79.2604 109.899 78.8707 110.079 78.3878C110.258 77.9049 110.347 77.3817 110.347 76.8183C110.347 76.2549 110.258 75.7299 110.079 75.2433C109.899 74.7567 109.623 74.3634 109.25 74.0634C108.877 73.7634 108.401 73.6134 107.823 73.6134C107.245 73.6134 106.769 73.7634 106.396 74.0634C106.023 74.3634 105.747 74.7567 105.568 75.2433C105.388 75.7299 105.299 76.2549 105.299 76.8183C105.299 77.3817 105.388 77.9049 105.568 78.3878C105.747 78.8707 106.023 79.2604 106.396 79.5567C106.769 79.853 107.245 80.0012 107.823 80.0012ZM113.62 80.989V72.5598H114.871V73.8329H114.959C115.112 73.4159 115.39 73.0775 115.793 72.8177C116.195 72.5579 116.649 72.4281 117.154 72.4281C117.249 72.4281 117.368 72.4299 117.51 72.4336C117.653 72.4372 117.761 72.4427 117.834 72.45V73.7671C117.79 73.7561 117.69 73.7397 117.532 73.7177C117.379 73.6921 117.216 73.6793 117.044 73.6793C116.634 73.6793 116.268 73.7653 115.946 73.9372C115.628 74.1055 115.376 74.3396 115.189 74.6396C115.006 74.936 114.915 75.2744 114.915 75.6549V80.989H113.62Z" fill="#2D1F04"/>
<path d="M42.1195 53.1431V48.732H44.7816V49.2059H42.6536V50.6963H44.6438V51.1702H42.6536V52.6692H44.8161V53.1431H42.1195ZM45.6755 53.1431V49.8348H46.1665V50.3345H46.201C46.2613 50.1708 46.3704 50.038 46.5284 49.936C46.6863 49.8341 46.8644 49.7831 47.0625 49.7831C47.0999 49.7831 47.1465 49.7838 47.2025 49.7852C47.2585 49.7867 47.3009 49.7888 47.3296 49.7917V50.3086C47.3124 50.3043 47.2729 50.2979 47.2111 50.2892C47.1508 50.2792 47.0869 50.2742 47.0195 50.2742C46.8586 50.2742 46.715 50.3079 46.5887 50.3754C46.4638 50.4414 46.3647 50.5333 46.2915 50.6511C46.2197 50.7674 46.1838 50.9002 46.1838 51.0495V53.1431H45.6755ZM47.9321 53.1431V49.8348H48.4232V50.3345H48.4577C48.518 50.1708 48.6271 50.038 48.7851 49.936C48.943 49.8341 49.1211 49.7831 49.3192 49.7831C49.3565 49.7831 49.4032 49.7838 49.4592 49.7852C49.5152 49.7867 49.5576 49.7888 49.5863 49.7917V50.3086C49.5691 50.3043 49.5296 50.2979 49.4678 50.2892C49.4075 50.2792 49.3436 50.2742 49.2761 50.2742C49.1153 50.2742 48.9717 50.3079 48.8454 50.3754C48.7204 50.4414 48.6214 50.5333 48.5481 50.6511C48.4763 50.7674 48.4404 50.9002 48.4404 51.0495V53.1431H47.9321ZM51.4321 53.212C51.1335 53.212 50.8714 53.1409 50.646 52.9988C50.422 52.8566 50.2468 52.6577 50.1204 52.4021C49.9955 52.1466 49.9331 51.8479 49.9331 51.5062C49.9331 51.1615 49.9955 50.8607 50.1204 50.6037C50.2468 50.3467 50.422 50.1471 50.646 50.0049C50.8714 49.8628 51.1335 49.7917 51.4321 49.7917C51.7308 49.7917 51.9921 49.8628 52.2161 50.0049C52.4416 50.1471 52.6167 50.3467 52.7417 50.6037C52.868 50.8607 52.9312 51.1615 52.9312 51.5062C52.9312 51.8479 52.868 52.1466 52.7417 52.4021C52.6167 52.6577 52.4416 52.8566 52.2161 52.9988C51.9921 53.1409 51.7308 53.212 51.4321 53.212ZM51.4321 52.7554C51.659 52.7554 51.8457 52.6972 51.9921 52.5809C52.1386 52.4646 52.247 52.3117 52.3173 52.1221C52.3877 51.9326 52.4229 51.7273 52.4229 51.5062C52.4229 51.285 52.3877 51.079 52.3173 50.888C52.247 50.697 52.1386 50.5427 51.9921 50.4249C51.8457 50.3072 51.659 50.2483 51.4321 50.2483C51.2053 50.2483 51.0186 50.3072 50.8721 50.4249C50.7257 50.5427 50.6173 50.697 50.5469 50.888C50.4765 51.079 50.4414 51.285 50.4414 51.5062C50.4414 51.7273 50.4765 51.9326 50.5469 52.1221C50.6173 52.3117 50.7257 52.4646 50.8721 52.5809C51.0186 52.6972 51.2053 52.7554 51.4321 52.7554ZM53.7071 53.1431V49.8348H54.1982V50.3345H54.2326C54.293 50.1708 54.4021 50.038 54.56 49.936C54.718 49.8341 54.896 49.7831 55.0942 49.7831C55.1315 49.7831 55.1782 49.7838 55.2342 49.7852C55.2902 49.7867 55.3325 49.7888 55.3613 49.7917V50.3086C55.344 50.3043 55.3045 50.2979 55.2428 50.2892C55.1825 50.2792 55.1186 50.2742 55.0511 50.2742C54.8903 50.2742 54.7467 50.3079 54.6203 50.3754C54.4954 50.4414 54.3963 50.5333 54.3231 50.6511C54.2513 50.7674 54.2154 50.9002 54.2154 51.0495V53.1431H53.7071Z" fill="#2D1F04"/>
<path d="M101.636 196.636V195.545C101.758 183.97 102.97 174.758 105.273 167.909C107.576 161.061 110.848 155.515 115.091 151.273C119.333 147.03 124.424 143.121 130.364 139.545C133.939 137.364 137.152 134.788 140 131.818C142.848 128.788 145.091 125.303 146.727 121.364C148.424 117.424 149.273 113.061 149.273 108.273C149.273 102.333 147.879 97.1818 145.091 92.8182C142.303 88.4545 138.576 85.0909 133.909 82.7273C129.242 80.3636 124.061 79.1818 118.364 79.1818C113.394 79.1818 108.606 80.2121 104 82.2727C99.3939 84.3333 95.5455 87.5758 92.4545 92C89.3636 96.4242 87.5758 102.212 87.0909 109.364H64.1818C64.6667 99.0606 67.3333 90.2424 72.1818 82.9091C77.0909 75.5758 83.5455 69.9697 91.5455 66.0909C99.6061 62.2121 108.545 60.2727 118.364 60.2727C129.03 60.2727 138.303 62.3939 146.182 66.6364C154.121 70.8788 160.242 76.697 164.545 84.0909C168.909 91.4848 171.091 99.9091 171.091 109.364C171.091 116.03 170.061 122.061 168 127.455C166 132.848 163.091 137.667 159.273 141.909C155.515 146.152 150.97 149.909 145.636 153.182C140.303 156.515 136.03 160.03 132.818 163.727C129.606 167.364 127.273 171.697 125.818 176.727C124.364 181.758 123.576 188.03 123.455 195.545V196.636H101.636ZM113.273 250.455C108.788 250.455 104.939 248.848 101.727 245.636C98.5152 242.424 96.9091 238.576 96.9091 234.091C96.9091 229.606 98.5152 225.758 101.727 222.545C104.939 219.333 108.788 217.727 113.273 217.727C117.758 217.727 121.606 219.333 124.818 222.545C128.03 225.758 129.636 229.606 129.636 234.091C129.636 237.061 128.879 239.788 127.364 242.273C125.909 244.758 123.939 246.758 121.455 248.273C119.03 249.727 116.303 250.455 113.273 250.455Z" fill="white"/>
</g>
<defs>
<clipPath id="clip0_228_343">
<rect width="278" height="298" fill="white"/>
</clipPath>
</defs>
</svg>
