<svg width="424" height="390" viewBox="0 0 424 390" fill="none" xmlns="http://www.w3.org/2000/svg">
<g clip-path="url(#clip0_228_408)">
<path d="M135 333.6C130.4 326.7 150.4 366.3 156.6 370C167.3 376.5 225.9 389.8 226.9 388.9C227.8 388.1 206.8 361.5 200.9 356.8C190.4 348.5 202.9 330 200 318.9" fill="#2D1F04"/>
<path d="M219.5 168.2C214.1 149.2 205.5 115.1 199.1 96.5001C195.1 84.8001 189.7 73.0001 186.3 61.0001C184.6 39.8001 167.7 32.3001 166.3 30.9001C166.3 30.9001 166.1 44.3001 173.3 56.9001C172 56.5001 162.6 30.0001 144.3 24.0001C113.8 14.1001 112.5 1.90012 112 2.00012C111.4 2.10012 108.6 18.7001 113.8 24.1001C103.2 18.2001 85.9 18.2001 75.3 27.6001C92.5 29.5001 98.7 39.6001 102.5 42.5001C98.5 45.2001 99.3 46.4001 95.8 49.7001C81.5 63.1001 55.8 80.7001 57.1 103C58.5 127 84 160 71.3 196" fill="#2D1F04"/>
<path d="M219.5 168.2C214.1 149.2 205.5 115.1 199.1 96.5001C195.1 84.8001 189.7 73.0001 186.3 61.0001C184.6 39.8001 167.7 32.3001 166.3 30.9001C166.3 30.9001 166.1 44.3001 173.3 56.9001C172 56.5001 162.6 30.0001 144.3 24.0001C113.8 14.1001 112.5 1.90012 112 2.00012C111.4 2.10012 108.6 18.7001 113.8 24.1001C103.2 18.2001 85.9 18.1001 75.3 27.6001C92.5 29.5001 98.7 39.6001 102.5 42.5001C98.5 45.2001 99.3 46.4001 95.8 49.7001C81.5 63.1001 55.8 80.7001 57.1 103C58.5 127 84 160 71.3 196" stroke="#2D1F04" stroke-width="2.62" stroke-miterlimit="10" stroke-linecap="round" stroke-linejoin="round"/>
<path d="M233.9 131.6C249.2 139.8 250.6 132.4 256.4 121.5C238.4 124.2 224.8 116.6 221.8 117.5" fill="#2D1F04"/>
<path d="M233.9 131.6C249.2 139.8 250.6 132.4 256.4 121.5C238.4 124.2 224.8 116.6 221.8 117.5" stroke="#2D1F04" stroke-width="2.62" stroke-miterlimit="10" stroke-linecap="round" stroke-linejoin="round"/>
<path d="M199.5 89.5001C239.2 88.5001 206.2 122.9 214.9 129.1C218.5 131.7 245 135 245 135C245 135 230.5 132.6 230.4 124.2C230.3 115.1 233.7 97.9001 223.6 92.8001" fill="#2D1F04"/>
<path d="M199.5 89.5001C239.2 88.5001 206.2 122.9 214.9 129.1C218.5 131.7 245 135 245 135C245 135 230.5 132.6 230.4 124.2C230.3 115.1 233.7 97.9001 223.6 92.8001" stroke="#2D1F04" stroke-width="2.62" stroke-miterlimit="10" stroke-linecap="round" stroke-linejoin="round"/>
<path d="M214.3 168.1C216.7 169.6 228.2 170.1 230.7 170.4C238.3 171.4 245.2 173.7 251.9 177.5C260 182.1 265.4 190.8 272.7 196.6C290.8 211.1 304 231.3 321.7 246.6C330.4 254.1 338.6 261.3 348.9 266.7C351.4 268 357.9 269.7 359.3 272.4C359.7 273.1 357.7 272.8 356.9 273.1C353.1 274.6 349.3 276.8 345.3 277.8C340.8 278.9 338.8 285.4 335.7 289.3C331.1 295.1 329.5 305.6 328.1 312.6C325.1 327.7 309.6 341.2 293.1 337.9C288.2 336.9 284.9 333.7 280.3 332.2C271.3 329.2 261.8 327 252.3 327.9C250.2 328.1 247.5 329.5 246 330.8C236.8 338.2 244.9 345.3 241 354.2C239.5 357.6 233.5 357.9 230.6 359.4C228.1 360.6 224.1 362.1 221.2 361.4C220.2 361.2 218.5 361.1 216.5 361.2C212.7 361.3 208.1 361.6 206.5 361.1C196.9 357.9 194.4 342.1 199.1 334.3C203.8 326.4 199.1 330.5 199.1 328.6C199.1 325.4 199.4 322.4 199.4 319.2C199.4 318.6 199.4 314.8 199.4 314.8C200.8 314.8 204.7 320.5 206.5 321.5C211.3 324.4 217.5 326.9 223 327.5C223.3 327.5 229 329.6 229.4 328.8C229.7 328.2 228.6 327.9 228.4 327.8C225.4 326 213.9 322.2 216.7 318.5C219.6 314.6 232.8 310.4 237.1 308.6C242.2 306.6 260 304.1 253.9 304.6C247.9 305 281 296.4 282.7 281.6C283.5 274.8 282.7 270 281.5 263.9C276.6 239.2 255.3 220.5 242.9 199.8C238.1 191.7 231.5 183.7 225.4 176.6C224.5 175.7 213.2 167.4 214.3 168.1Z" fill="#2D1F04"/>
<path d="M101.1 85.6001C104.5 87.4001 127.6 90.1001 117 82.4001C111 78.0001 92.3999 81.0001 101.1 85.6001Z" fill="#2D1F04"/>
<path d="M101.1 85.6001C104.5 87.4001 127.6 90.1001 117 82.4001C111 78.0001 92.3999 81.0001 101.1 85.6001Z" stroke="#2D1F04" stroke-width="2.62" stroke-miterlimit="10" stroke-linecap="round" stroke-linejoin="round"/>
<path d="M106 87.9001C107.3 92.3001 103.1 95.4001 104.2 99.3001C105.5 103.4 110.9 103.2 114 104.2C121.7 106.5 134.4 105.6 139.9 99.0001C141.8 96.7001 142.7 93.7001 144.6 91.5001C145.5 90.4001 148 92.3001 148.9 92.8001" stroke="#2D1F04" stroke-width="2.62" stroke-miterlimit="10" stroke-linecap="round" stroke-linejoin="round"/>
<path d="M48.7 313.8C51.7 320.4 77.2 357 72.3 363C67.4 369 48 379.6 48 381.3C48.1 384.5 118.9 373.1 122.9 368.8C127.6 363.7 112.5 342.1 111.5 336.8" fill="#2D1F04"/>
<path d="M78.3 74.9002C81.4 69.2002 90.7 70.1002 92.4 76.3002" stroke="#2D1F04" stroke-width="2.62" stroke-miterlimit="10" stroke-linecap="round" stroke-linejoin="round"/>
<path d="M140.8 82.4002C146 75.5002 156.6 78.6002 158.7 86.0002" stroke="#2D1F04" stroke-width="2.62" stroke-miterlimit="10" stroke-linecap="round" stroke-linejoin="round"/>
<path d="M30.7 260.5C31.3 262.7 31.3 262.8 33.3 263.7C37.6 265.7 38.3 267.7 42.2 270.3C53.1 277.5 74.3 276.9 86.5 279.3C113.9 284.6 159.1 284.8 186.5 280.9C190 280.4 215.4 266.2 215.7 267.4C216.4 269.9 220.3 272.7 218.4 274.4C207.5 284.4 190.1 294.7 174.8 299.2C136.3 310.5 106.1 316 66.8 306.9C57.4 304.7 36.9 293.3 30.4 285.1C28.3 282.4 30 258.1 30.7 260.5Z" fill="#2D1F04"/>
<path d="M72 191.8C63.8 211.5 51.3 223.2 47.3 231.9C43.3 240.6 27.7 252.9 27.6 259.7C27.4 269.3 54.3 279.1 65.4 282.3C115.7 297.1 195.3 287.2 216.9 268.1C220.6 264.8 210.2 261.7 208.5 257.9C202.2 244.2 191.4 233 187 218.2C184 208 180.6 201.2 182.7 190.3C183.3 187.1 185.5 180.8 187.7 178.7C189.1 177.4 192.4 173.4 190.6 173.8C161.5 181.2 132.7 199.9 102.4 201.3C91.7 201.8 84.7 192 73.6 190.6" fill="#2D1F04"/>
<path d="M266 80.4001C266 80.4001 260.2 104.8 256.1 107.3C251.9 109.8 268.9 104.5 271.6 99.9001C274.2 95.4001 266 80.4001 266 80.4001Z" fill="#2D1F04"/>
<path d="M266 80.4001C266 80.4001 260.2 104.8 256.1 107.3C251.9 109.8 268.9 104.5 271.6 99.9001C274.2 95.4001 266 80.4001 266 80.4001Z" stroke="#2D1F04" stroke-width="2.62" stroke-miterlimit="10" stroke-linecap="round" stroke-linejoin="round"/>
<path d="M69.7 350.1C65.5 348.3 73.4 360.5 71.6 364C71.2 364.8 52.6 376.3 49.2 381.2C47.4 383.8 53.2 382 60.7 381.5C67.6 381 76.7 379.2 83.5 378.4C97.1 376.9 107.3 372.8 120.5 370.6C130.1 369 120.8 352.6 118.9 352.6C117.5 352.6 114.4 355 112.6 355.2C98 357.4 84 356.1 69.7 350.1Z" fill="#2D1F04"/>
<path d="M232.7 178.9C234.6 180.5 245.6 195.7 261.9 220.5C265.1 225.4 272.9 244.4 275.6 249.3C282.4 262 283.1 271.5 283.6 277.4C284.6 290 273.1 295.5 267.4 298.4C262.5 300.8 255.2 303.1 247.5 305.8C237.7 309.2 227.3 313.5 220 320C216.9 322.8 229.6 326 230.8 328.3C217.2 328.3 204.4 325.3 196.3 313.2C193.6 309.2 187 300.7 189.2 295.6C192.2 288.5 219.4 275 218.7 272C217.1 265.7 210.3 259.3 206.6 254.2C195.4 238.5 178.8 210.2 182.4 190.3C183.2 185.8 184.9 179.8 188.4 176.6C193.9 171.6 208.7 164.8 219 168.5C222.4 169.7 230.5 176.3 230.5 176.3" fill="#2D1F04"/>
<path d="M56.4 191.7C53.8 191.9 59.6 191.3 60.3 191.1C64.9 190.3 72.4 188.6 71 195.5C65.8 221.6 51.4 224.7 38.8 245.7C35.7 250.9 27.5 260.9 28.7 267C28.9 268 27.9 280.7 27.3 281C26.7 281.3 16.9 271.1 15.1 270.3C-0.900014 262.3 -3.60001 251.4 8.09999 235.9C16.4 224.8 28.2 211.2 39.2 202.9C43 200 47.9 196.5 52.2 194.4C53.7 193.7 57.7 191.6 56.4 191.7Z" fill="#2D1F04"/>
<path d="M141.3 344.2C142.8 352.8 154.7 368.1 159.4 375.1C160.5 376.8 213.9 386.5 217.2 387.4C220.5 388.3 227.9 391.1 227.4 388.4C226.4 383.2 204 361.1 199.6 355.9C197.4 353.2 198.4 345.6 198.3 345.5C197.7 344.9 197.6 344.5 197.3 345.3C196.5 347.4 194.3 349.1 192.7 350.7C189.2 354.2 181.2 351.8 175.8 353.3C170.5 354.8 159.4 354.4 153.1 351.9C149.6 350.5 148.4 351.2 145.1 350.1C142 349 140.7 340.9 141.3 344.2Z" fill="#2D1F04"/>
<path d="M48.3 313.4C51.3 320 76.8 356.6 71.9 362.6C67 368.6 47.6 379.2 47.6 380.9C47.7 384.1 118.5 372.7 122.5 368.4C127.2 363.3 112.1 341.7 111.1 336.4" stroke="#2D1F04" stroke-width="2.62" stroke-miterlimit="10" stroke-linecap="round" stroke-linejoin="round"/>
<path d="M29.7 285.1C38.3 312.5 53 320.1 70.9 329C84.4 335.8 97.0999 335.2 111.9 337.7C131.1 340.9 157 338.2 173.9 329.7C179.4 326.9 184.3 327.9 189.5 324.3C192.7 322.1 201.6 318.6 204.2 316C204.3 315.9 200 316.9 199.9 316.5C199.3 314.5 198.3 315 197.3 313.9C193.9 310 188.8 302.1 189.4 297C190.2 290.3 201.1 290.5 203.1 285.3C203.2 285.1 196.5 288.4 196 288.7C192.8 290.6 189.2 291.9 185.7 293.2C179.4 295.4 172.9 296.8 166.7 299.3C162.5 301 154.2 302.8 149.7 303.7C137.9 306.1 116.7 310.5 105 309.1C73.7 305.3 79.2 304.6 53.7 295.8C48.9 294.2 32.3 283.4 30.4 279.6" fill="#2D1F04"/>
<path d="M135.8 337.6C135.8 337.6 153.2 369.5 159.4 373.3C170.1 379.8 226.7 389.5 227.7 388.6C228.6 387.8 210.5 363.1 199.8 355.6C193.1 350.9 203.1 329.7 200.2 318.6" stroke="#2D1F04" stroke-width="2.62" stroke-miterlimit="10" stroke-linecap="round" stroke-linejoin="round"/>
<path d="M72.0999 190C71.2999 194.3 62.0999 204.7 57.4999 213.9C52.8999 223.1 53.6999 226.9 53.6999 226.9C53.6999 226.9 36.9999 242.1 29.9999 262.3C25.2999 275.9 32.5999 311.7 68.9999 327.5C135.7 356.4 206.1 319.1 216.9 309.3" stroke="#2D1F04" stroke-width="2.62" stroke-miterlimit="10" stroke-linecap="round" stroke-linejoin="round"/>
<path d="M214.8 86.9001C226.6 89.3001 244.2 107 260.9 101.9C277.6 96.9001 265.2 79.5001 266 80.3001C269.9 84.2001 280.6 108 270.7 113.8C255.2 122.8 213.8 87.2001 213.8 87.2001" fill="#2D1F04"/>
<path d="M214.8 86.9001C226.6 89.3001 244.2 107 260.9 101.9C277.6 96.9001 265.2 79.5001 266 80.3001C269.9 84.2001 280.6 108 270.7 113.8C255.2 122.8 213.8 87.2001 213.8 87.2001" stroke="#2D1F04" stroke-width="2.62" stroke-miterlimit="10" stroke-linecap="round" stroke-linejoin="round"/>
<path d="M213.5 278.1C211.4 279.2 209.3 280.3 207.3 281.5C198.5 286.8 189 289.8 189.6 299C190.4 312.8 210.2 325.8 210.7 326C213.5 327 226.8 329.1 230 328C230.5 327.8 220.9 323.9 219.6 321.7C217.3 317.7 234.8 311.8 238.1 309.7C239.8 308.6 241.6 307.9 243.4 307.1C244.2 306.7 246.8 306.6 246 306C243.3 304.2 237.5 305.9 233.8 304.7C230.7 303.7 224.8 302.1 223 299.7C217.5 292.4 214.2 287.5 213.5 278.1Z" fill="#2D1F04"/>
<path d="M67.7 181.5C66.7 179.4 61.7 168.7 64.5 166C65 165.5 71.5 174.6 71.7 174.8C76.1 180.1 81 184.5 87.8 185.4C91.9 186 93.5 181.2 96 179.1C101.4 174.8 102.5 179.9 103.6 179.5C105.3 178.9 105.2 174.7 108 173.9C112.2 172.7 110.8 181.5 115.5 182.7C123.2 184.6 145.3 178.4 152.5 174.7C176 162.9 194 152.9 218.8 159.5C239.3 165 264.2 176.4 289.1 196.9C295.4 202.1 313.6 216.1 322.2 216.1C324.6 216.1 331.4 219.1 336.1 218.5C350.6 216.4 355.5 212.6 358.5 214.3C361.5 216 356.2 213.7 357.8 214.3C367 217.8 373.4 225.5 375 235.7C377.2 249.7 400.5 264.1 412.1 269.9C416.4 272 417.6 273.5 421.8 275.3C424.2 276.3 391 282.8 372.6 277.5C329.3 264.9 304.1 233.2 272.9 198C262.9 186.7 254.7 176.8 222.7 169.1C194.8 162.4 147.6 197.2 107.5 201.9C97.3 203.1 84.5 192 74.4 191C72.2 190.8 50.1 191.2 50.1 189.4C50.1 185.6 64.6 169.7 66 175.5C66.1 175.8 61.6 165.7 64.8 163.5C68.5 161 78.8 177.3 80.2 179.6C82.5 183.4 86 184.7 89.7 186.5" fill="#2D1F04"/>
<path d="M103.9 178.5C97.4 169 84.8 192 90.6 193.1" stroke="#2D1F04" stroke-width="2.62" stroke-miterlimit="10" stroke-linecap="round" stroke-linejoin="round"/>
<path d="M90.1 185.4C81.6 188.5 68.3 159.3 65.1 164.4C61.9 169.5 68.7 178.5 68 182.5" stroke="#2D1F04" stroke-width="2.62" stroke-miterlimit="10" stroke-linecap="round" stroke-linejoin="round"/>
<path d="M64.8 175.3C62.5 176.3 46.9 186.5 51.8 189.7C55.5 192.1 67.2 189.6 71.3 189.8C79.9 190.1 82.4 196 90.7 197.6" stroke="#2D1F04" stroke-width="2.62" stroke-miterlimit="10" stroke-linecap="round" stroke-linejoin="round"/>
<path d="M114.8 183.2C125.1 185.2 137 180.6 146.5 176.5C163 169.5 179.3 157.4 197.6 157.3C261.1 156.9 299.4 222 359.9 232.3" stroke="#2D1F04" stroke-width="2.62" stroke-miterlimit="10" stroke-linecap="round" stroke-linejoin="round"/>
<path d="M363.3 273.2C327.6 272.7 336.6 313.8 317.2 331C296.6 349.2 273.3 321.1 250.4 327.6C226.9 334.3 266.3 365 206.5 361.2" stroke="#2D1F04" stroke-width="2.62" stroke-miterlimit="10" stroke-linecap="round" stroke-linejoin="round"/>
<path d="M30.2999 263.9C48.1999 285.5 150.9 308.7 215.5 268.2" stroke="#2D1F04" stroke-width="2.62" stroke-miterlimit="10" stroke-linecap="round" stroke-linejoin="round"/>
<path d="M97.7 84.1001C91.4 87.0001 81.3 98.4001 81.6 102.8C83.2 128.7 118.9 141.5 137.5 123.4C162.7 99.0001 109.6 78.5001 97.7 84.1001Z" stroke="#2D1F04" stroke-width="2.62" stroke-miterlimit="10" stroke-linecap="round" stroke-linejoin="round"/>
<path d="M200.1 97.4002C197.3 92.7002 191.8 88.8002 196.1 86.1002C210.8 76.9002 231.3 100.1 229.9 99.6002C217.6 94.4002 211.8 96.6002 199.1 97.4002" fill="#2D1F04"/>
<path d="M200.1 97.4002C197.3 92.7002 191.8 88.8002 196.1 86.1002C210.8 76.9002 231.3 100.2 229.9 99.6002C217.6 94.4002 211.8 96.6002 199.1 97.4002" stroke="#2D1F04" stroke-width="2.62" stroke-miterlimit="10" stroke-linecap="round" stroke-linejoin="round"/>
<path d="M186 81.3002C194.5 98.2002 187.5 119.1 177.3 131.4C154.3 159.4 99.5 153.9 85.5 138.2C63.2 113.4 59.9 77.1002 85.7 69.5002C97.1 66.1002 132.2 64.2002 143.7 66.3002C161.9 69.5002 166.6 79.2002 179 88.5002" fill="#2D1F04"/>
<path d="M214.1 276.3C210.7 295.3 229.9 308.5 247.7 305.9" stroke="#2D1F04" stroke-width="2.62" stroke-miterlimit="10" stroke-linecap="round" stroke-linejoin="round"/>
<path d="M116.5 72C113 68.1 80.9999 78 84.5999 102.2C87.6999 123.3 115.7 126.8 127.1 122.4C155.5 111.4 150.8 69.4 114.8 77.2" fill="#2D1F04"/>
<path d="M106 80.4002C94.8999 77.5002 77.7999 86.3002 65.6999 81.2002C64.0999 80.5002 64.7999 80.3002 64.8999 81.7002C64.9999 82.7002 65.0999 80.0002 65.0999 79.8002C69.6999 70.4002 77.1999 55.1002 88.2999 52.8002C105.6 49.2002 163.6 55.6002 177.4 69.8002C179.1 71.6002 180.7 73.2002 182.2 74.8002C189 82.1002 193.5 87.5002 195.8 91.5002C199.2 97.3002 201.5 106.4 205.2 116.7C205.5 117.4 197.4 109.4 196.7 108.6C192.7 104.4 184.8 99.8002 178.9 98.9002C164.4 96.7002 158.6 99.2002 139.8 91.2002C134.4 88.9002 112.9 77.2002 105.7 80.0002" fill="#2D1F04"/>
<path d="M106 80.4002C94.8999 77.5002 77.7999 86.3002 65.6999 81.2002C64.0999 80.5002 64.7999 80.3002 64.8999 81.7002C64.9999 82.7002 65.0999 80.0002 65.0999 79.8002C69.6999 70.4002 77.1999 55.1002 88.2999 52.8002C105.6 49.2002 163.6 55.6002 177.4 69.8002C179.1 71.6002 180.7 73.2002 182.2 74.8002C189 82.1002 193.5 87.5002 195.8 91.5002C199.2 97.3002 201.5 106.4 205.2 116.7C205.5 117.4 197.4 109.4 196.7 108.6C192.7 104.4 184.8 99.8002 178.9 98.9002C164.4 96.7002 158.6 99.2002 139.8 91.2002C134.4 88.9002 112.9 77.2002 105.7 80.0002" stroke="#2D1F04" stroke-width="2.62" stroke-miterlimit="10" stroke-linecap="round" stroke-linejoin="round"/>
<path d="M70.3 351.6C69.8 351.2 96 363.6 118.6 352.1" stroke="#2D1F04" stroke-width="2.62" stroke-miterlimit="10" stroke-linecap="round" stroke-linejoin="round"/>
<path d="M142.8 349.2C156.5 355 187.3 358.9 197.2 345.7" stroke="#2D1F04" stroke-width="2.62" stroke-miterlimit="10" stroke-linecap="round" stroke-linejoin="round"/>
<path d="M135.9 321.2C135.2 320.9 135.4 320.7 135.4 321.5L135.9 321.2Z" fill="#2D1F04"/>
<path d="M102.1 80.0002C103 86.1002 124.7 90.1002 122.5 81.8002C120.7 75.3002 100.9 70.7002 102.1 80.0002Z" fill="#2D1F04"/>
<path d="M114.3 182.8C115.2 182.1 108.5 174.4 107.9 174.7C106.1 175.5 89.1 194.6 91 197.3C92.8 200 107.8 204.1 108.8 202C110.7 198 106.7 196.6 105.4 194C101.6 186.3 111 185.5 114.3 182.8Z" stroke="#2D1F04" stroke-width="2.62" stroke-miterlimit="10" stroke-linecap="round" stroke-linejoin="round"/>
<path d="M80.4 73.3C84.7 66.6 91.9 69.8 92.7 74.6" stroke="#2D1F04" stroke-width="2.62" stroke-miterlimit="10" stroke-linecap="round" stroke-linejoin="round"/>
<path d="M320.5 217.2C343.9 220 357.5 214.4 357.5 214.4C357.5 214.4 373.9 217.9 374.5 232.6C375.5 259.8 420 272.4 422.5 275.1C424.9 277.8 384 286.6 351.2 267.7C334.8 258.3 319.2 247.6 305.9 233.9C281.5 208.8 257.5 171.3 219.2 167.7C195.1 165.4 170.6 181 149.7 190.4C129.3 199.5 116.1 198.5 110.4 200.1" stroke="#2D1F04" stroke-width="2.62" stroke-miterlimit="10" stroke-linecap="round" stroke-linejoin="round"/>
<path d="M142.6 82.1C147.5 75.3 157.3 77.5 159.6 84.8" stroke="#2D1F04" stroke-width="2.62" stroke-miterlimit="10" stroke-linecap="round" stroke-linejoin="round"/>
<path d="M75.5 56.8C83 47 99.4 45.8 112.6 49.5" stroke="#2D1F04" stroke-width="9.9025" stroke-miterlimit="10" stroke-linecap="round" stroke-linejoin="round"/>
<path d="M142.1 52.6001C165.6 53.8001 176.4 62.1001 181.4 75.8001" stroke="#2D1F04" stroke-width="9.9025" stroke-miterlimit="10" stroke-linecap="round" stroke-linejoin="round"/>
<path d="M56.6 191C48.1 199.5 9.50004 224 2.80004 247C-3.99996 270 25.6 274.9 29.6 282.9" stroke="#2D1F04" stroke-width="2.62" stroke-miterlimit="10" stroke-linecap="round" stroke-linejoin="round"/>
<path d="M28.4 277.9C34.2 287.8 59.2 299.9 84 304.8C93.9 306.7 104.1 307.9 114.4 308.2C142 308.8 171 302.7 200 285.8" stroke="#2D1F04" stroke-width="2.62" stroke-miterlimit="10" stroke-linecap="round" stroke-linejoin="round"/>
<path d="M218.1 274.3C218.1 274.3 215.4 280.7 227.1 286.6" stroke="#2D1F04" stroke-width="2.62" stroke-miterlimit="10" stroke-linecap="round" stroke-linejoin="round"/>
<path d="M172.7 143.1L172.8 152.9" stroke="#2D1F04" stroke-width="3.5445" stroke-miterlimit="10" stroke-linecap="round" stroke-linejoin="round"/>
<path d="M178.6 138.4L178.7 148.2" stroke="#2D1F04" stroke-width="3.5445" stroke-miterlimit="10" stroke-linecap="round" stroke-linejoin="round"/>
<path d="M111.6 5.40015C111.6 5.40015 105.6 29.6001 130.6 35.7001C155.6 41.8001 168.5 44.4001 175.4 60.9001" stroke="#2D1F04" stroke-width="2.62" stroke-miterlimit="10" stroke-linecap="round" stroke-linejoin="round"/>
<path d="M100.8 41C100.8 41 104.7 46.2 122 43.7C139.3 41.2 150.7 39.3 159.6 44.1" stroke="#2D1F04" stroke-width="2.62" stroke-miterlimit="10" stroke-linecap="round" stroke-linejoin="round"/>
<path d="M219.1 273.6C220.8 277.6 225.7 280.9 233.8 280.1" stroke="#2D1F04" stroke-width="2.62" stroke-miterlimit="10" stroke-linecap="round" stroke-linejoin="round"/>
<path opacity="0.2307" d="M192.5 292.8C200.9 272.4 185.7 244.7 165.3 247C150 248.7 121.5 242.9 134.1 242.6C146.5 242.3 167.8 240 175 230.6C185.3 217.3 177.4 186.8 164.8 184.8C162.5 184.4 186.1 174.5 190.4 172.3C194.8 170.1 171 189.8 192.1 231.8C203.1 253.8 220.3 273.2 220.3 273.2C220.3 273.2 193.2 285 188.3 298C183.3 311 206.9 317.7 201.6 319.9C195.1 322.6 142 336.3 149.1 334.6C182.9 326.8 187.5 304.8 192.5 292.8Z" fill="#2D1F04"/>
<path opacity="0.2307" d="M259.9 220.5C235.1 172.4 215.7 161.1 202.8 169.2C228.6 168.7 277.3 242.6 242.1 259.1C210.1 274.1 185 211.2 185 211.2C185 211.2 207.9 258.6 225.9 281.7C228.9 285.6 210.7 288.9 196.8 311.3C191.6 319.7 217.2 327.1 217.2 327.1L228.2 327.9L220.3 320C220.3 320 215.9 320.1 232 313C248.1 305.9 265 299.2 273.9 294.7C291.8 285.7 278.9 252.2 259.9 220.5Z" fill="#2D1F04"/>
<path opacity="0.2307" d="M58.9 210.7C58.9 210.7 42.7999 235.5 73.0999 238.5C82.5999 239.4 80.6999 241 79.6999 242.2C78.1999 244 74.7999 240.3 65.6999 239.1C56.5999 238 43.2 237.6 43.2 237.6C43.2 237.6 48.9 234.6 52.9 227.9C56.7 221.2 58.9 210.7 58.9 210.7Z" fill="#2D1F04"/>
<path opacity="0.2307" d="M91.8 48.9001C155.5 31.4001 164.4 39.3001 178 86.4001C191.6 133.5 178.9 161.8 178.9 161.8C178.9 161.8 204.7 154.5 215.7 160.5C226.6 166.5 187.4 69.6001 187.4 69.6001L178.1 62.6001C177.9 62.6001 113 52.1001 91.8 48.9001Z" fill="#2D1F04"/>
<path opacity="0.2307" d="M77.1 28.6002C77.1 28.6002 83.8 24.2002 96.9 29.6002C109.9 35.0002 112.5 40.2002 126.8 39.9002C141.1 39.6002 145.3 39.4002 145.3 39.4002L107.9 44.6002C107.9 44.6002 83.4 27.4002 77.1 28.6002Z" fill="#2D1F04"/>
<path opacity="0.2307" d="M111 4.80005C111 4.80005 110.1 27.6001 120.9 31.9001C131.7 36.1001 154.7 41.8 161.7 45.7001C168.7 49.6001 156.3 41.2001 138.5 31.5C120.6 21.9 112.4 21.5 111 4.80005Z" fill="#2D1F04"/>
<path opacity="0.2307" d="M167.6 33.7002C167.6 33.7002 179.2 42.4002 182.5 54.7002C185.9 66.9002 186.8 69.0002 186.8 69.0002L175.3 62.2002C175.3 62.1002 167.2 42.1002 167.6 33.7002Z" fill="#2D1F04"/>
<path opacity="0.2307" d="M56.8 321.6C56.8 321.6 77.9999 333 101.6 342.1C114.8 347.2 115.2 360.3 116.8 366.1C117.6 368.9 55 377.1 48.7 382C48.7 382 71.9 381.7 92.5 377.7C113.1 373.7 125 373 124.4 366.1C123.8 359.2 114.9 339.1 113.5 339.2C109.7 339.5 56.8 321.6 56.8 321.6Z" fill="#2D1F04"/>
<path opacity="0.2307" d="M157.9 333.9C158 334.2 158.1 334.4 158.2 334.7L157.9 333.9Z" fill="#2D1F04"/>
<path opacity="0.2307" d="M137 337.3C137 337.3 162.2 339 189.9 331.7C201.4 328.7 189.4 360.1 192 361.1C204 365.9 229.1 389.5 225.7 382.3C222.3 375.1 197.8 355.8 196.8 348.1C195.8 340.4 200.5 320.2 200.5 320.2C200.5 320.2 207.5 318 191.6 322.3C175.8 326.6 137 337.3 137 337.3Z" fill="#2D1F04"/>
<path opacity="0.2307" d="M4.19993 258.4C4.19993 258.4 17.1999 285.3 41.2999 240.1C25.3999 265.8 30.2999 281.7 30.2999 281.7C30.2999 281.7 2.99993 267.7 4.19993 258.4Z" fill="#2D1F04"/>
<path opacity="0.2307" d="M48.2 198.8C48.2 198.8 60.9999 195.4 74.5999 197.8C88.2999 200.2 95.1999 201.1 95.1999 201.1C95.1999 201.1 104.8 213.5 115.3 209.2C125.8 204.9 119.7 201.1 119.7 201.1C119.7 201.1 121 209.8 140 199.4C201.3 165.9 222.7 169.1 222.3 169.1C214.6 167.4 205.4 163 160.4 186.5C132 201.4 111.3 200 111.3 200C111.3 200 109.6 204.8 104.1 203C98.5999 201.2 91.4 197.1 91.4 197.1C91.4 197.1 87 197.3 81 193.9C74.9 190.4 72.2999 190.1 66 190.2C59.8 190.3 56.5 191.1 56.5 191.1L48.2 198.8Z" fill="#2D1F04"/>
<path opacity="0.2307" d="M322.3 217.8C322.3 217.8 346.8 219.4 357.4 215.3C368 211.1 375.2 231 375.2 231C375.2 231 373.9 221.9 375 230.1C376.1 238.3 347.3 229.4 347.3 229.4L322.3 217.8Z" fill="#2D1F04"/>
<path opacity="0.2307" d="M234.3 311.9C234.3 311.9 235.4 323.9 239.4 335.7C243 346.2 243.4 357.4 233.1 358.5C222.7 359.6 210.2 361 210.2 361C210.2 361 202.9 361 199.5 353.7C195 344 200.9 320.7 200.9 320.7L231.1 328C231.1 328 215.7 321.6 219.3 319.5C222.9 317.3 234.3 311.9 234.3 311.9Z" fill="#2D1F04"/>
<path opacity="0.2307" d="M277.1 291.6C277.1 291.6 286.5 327.4 290.8 332.3C291.9 333.5 294.4 338.4 303.2 337.4C334.3 334 330.2 265.7 360.2 275.6C311.2 253 251.8 165.2 219.5 167.6C224.9 174.7 303.6 258.7 277.1 291.6Z" fill="#2D1F04"/>
<path d="M202.2 169.1C202.2 169.1 172.7 176.4 183.9 210.3C195.2 244.2 219.7 273 219.7 273C219.7 273 191.1 288 188.9 299.9C186.4 313.2 208.9 324.8 208.9 324.8C208.9 324.8 219 329.6 229.3 328.9C235.6 328.5 213.1 322.1 221.4 317.8C229.7 313.5 258.1 302.2 258.1 302.2C258.1 302.2 285.8 291.7 283.5 274.1C281.2 256.4 234.4 150.5 202.2 169.1Z" stroke="#2D1F04" stroke-width="2.62" stroke-miterlimit="10" stroke-linecap="round" stroke-linejoin="round"/>
<path d="M116.8 202.1V202.5V203V203.8L116.9 206.9L116.8 204.2" stroke="#2D1F04" stroke-width="2.62" stroke-miterlimit="10" stroke-linecap="round" stroke-linejoin="round"/>
<path d="M158.1 190.4L158.3 190.8L158.5 191.2L158.8 192L159 192.4" stroke="#2D1F04" stroke-width="2.62" stroke-miterlimit="10" stroke-linecap="round" stroke-linejoin="round"/>
<path d="M187.4 332.9V335.4V335.9V336.7V337.2" stroke="#2D1F04" stroke-width="2.62" stroke-miterlimit="10" stroke-linecap="round" stroke-linejoin="round"/>
<path d="M72 337.8V340.4V340.8V341.6V342.1" stroke="#2D1F04" stroke-width="2.62" stroke-miterlimit="10" stroke-linecap="round" stroke-linejoin="round"/>
<path d="M120.5 202.1V202.7V203.4L120.4 206.6L120.5 203.8" stroke="#2D1F04" stroke-width="2.62" stroke-miterlimit="10" stroke-linecap="round" stroke-linejoin="round"/>
<path d="M161.5 189L161.8 189.6L162 190.1L162.2 190.5" stroke="#2D1F04" stroke-width="2.62" stroke-miterlimit="10" stroke-linecap="round" stroke-linejoin="round"/>
<path d="M191.2 332.5L191.1 335.7V336.3V336.7" stroke="#2D1F04" stroke-width="2.62" stroke-miterlimit="10" stroke-linecap="round" stroke-linejoin="round"/>
<path d="M191.2 332.5L191.1 335.7V336.3V336.7" stroke="#2D1F04" stroke-width="2.62" stroke-miterlimit="10" stroke-linecap="round" stroke-linejoin="round"/>
<path d="M75.8 337.4L75.7 340.6V341.2V341.7" stroke="#2D1F04" stroke-width="2.62" stroke-miterlimit="10" stroke-linecap="round" stroke-linejoin="round"/>
<path d="M191.6 174.1C191.6 174.1 180.2 179.7 161.8 191.1C143.4 202.5 125.9 209.3 105.1 206.9C90 205.1 76.9 196.2 76.9 196.2" stroke="#2D1F04" stroke-width="2.62" stroke-miterlimit="10" stroke-linecap="round" stroke-linejoin="round"/>
<path d="M74 278.2C71.1 277.9 68.5 279.9 70.1 284.3C73.8 294.2 87.6 311.4 91.4 311.7C98.1 312.2 128 283.4 119.8 282.6C98.4 280.4 86.8 279.4 74 278.2Z" fill="#2D1F04"/>
<path d="M74 278.2C71.1 277.9 68.5 279.9 70.1 284.3C73.8 294.2 87.6 311.4 91.4 311.7C98.1 312.2 128 283.4 119.8 282.6C98.4 280.4 86.8 279.4 74 278.2Z" stroke="#2D1F04" stroke-width="2.62" stroke-miterlimit="10" stroke-linecap="round" stroke-linejoin="round"/>
<path d="M72.3999 279.1C62.8999 277.6 83.0999 309.8 88.6999 310.1C95.3999 310.6 125.7 284.8 117.5 284C96.0999 281.8 85.8999 281.2 72.3999 279.1Z" fill="#2D1F04"/>
<path d="M72.3999 279.1C62.8999 277.6 83.0999 309.8 88.6999 310.1C95.3999 310.6 125.7 284.8 117.5 284C96.0999 281.8 85.8999 281.2 72.3999 279.1Z" stroke="#2D1F04" stroke-width="2.62" stroke-miterlimit="10" stroke-linecap="round" stroke-linejoin="round"/>
<path d="M78.9 299.6L82.9 279.5" stroke="#2D1F04" stroke-width="2.62" stroke-miterlimit="10" stroke-linecap="round" stroke-linejoin="round"/>
<path d="M103.1 303.3L107.1 283.2" stroke="#2D1F04" stroke-width="2.62" stroke-miterlimit="10" stroke-linecap="round" stroke-linejoin="round"/>
<path d="M86.5 284.8L102 286.4L99.9 298.8C99.9 298.8 92.6 304.7 90.2 304.7C88.2 304.8 84.1 297.6 84.1 297.5C84.3 295.4 86.5 284.8 86.5 284.8Z" fill="#2D1F04"/>
<path d="M101.9 287.1L87 285.7L84.4 297.8L89.9 304.4" stroke="#2D1F04" stroke-width="1.9293" stroke-miterlimit="10" stroke-linecap="round" stroke-linejoin="round"/>
<path d="M102 286.9L100 298.8C100 298.8 92.2 304.2 90 305" stroke="#2D1F04" stroke-width="1.9293" stroke-miterlimit="10" stroke-linecap="round" stroke-linejoin="round"/>
<path d="M96.1 85.9002C95.7 85.2002 99.4 90.7002 103.4 95.5002C106 98.6002 108.6 101.5 110.2 102.3C114.3 104.3 133.2 106.4 146.6 96.8002C154.9 90.9002 150.7 88.0002 150.7 88.0002C150.7 88.0002 103.3 96.9002 96.1 85.9002Z" fill="#2D1F04"/>
<path d="M148 97.5001C141.4 101.2 133.8 102.8 127.1 103.5C120.4 104.2 114.7 104 111.7 104C105.8 104 96.5 87.7001 96.5 87.7001C96.5 87.7001 134.7 96.3001 151.7 87.1001C153.8 89.8001 151.5 94.8001 148 97.5001Z" stroke="#2D1F04" stroke-width="2.62" stroke-miterlimit="10" stroke-linecap="round" stroke-linejoin="round"/>
<path d="M92.6 275.6C86.5 287 91.9 286.3 98 288.9C90.3 286.2 87.9 287.4 82.2 295.7C87.6 286.6 83.8 284 76.1 281.4C85.3 284.8 87.4 284.7 92.6 275.6Z" fill="#2D1F04"/>
<path opacity="0.2289" d="M105.9 191.6C109.5 192.7 120.1 191.6 128.8 188C131.9 186.7 139.9 180.9 143.3 184.8C146 187.9 137.3 192.3 135.5 192.8C130.7 194 124.5 195.7 119.5 195.5C115.2 195.3 107.9 194.4 106.6 193.3C106.3 193 105.5 191.5 105.9 191.6Z" fill="#2D1F04"/>
<path opacity="0.2327" d="M88.6 189.2C88.6 189.2 87.6 191.1 81.6 187C75.6 182.9 73 179.4 73 182.5C72.9 185.6 86.9 192.4 88.6 191.6" fill="#2D1F04"/>
<path opacity="0.2327" d="M98.6 176.6C103.4 177.3 109.3 173.9 102.2 182.6C95.7 190.6 109.7 181.4 110.9 179.1C112.1 176.8 118.4 182.1 104.9 189.7C102.2 191.2 112.6 200.9 107.6 202.7C103.9 204 89.9 200.6 90.8 197.1C91.8 193.6 89.3 191.5 89.3 191.5C89.3 191.5 93.8 175.9 98.6 176.6Z" fill="#2D1F04"/>
<path d="M79.4 223.2C87.3 223.4 94.5 223.5 101.5 223.8C107.2 224.1 108.8 227.7 108.6 231.2C108.2 236 105.2 239.2 100 240.9C99.7 241 99.4 241 98.9 241.2C104.4 244.2 104.4 250.3 108 255.8C103.8 255.7 100 255.7 96.1 255.7C94.1 252.1 92.4 248.7 91 245.3C90.2 243.5 89.1 242.1 86 242.6C85.1 246.7 84.6 251 85 255.7C81.3 255.7 77.9 255.6 74.3 255.6C73.1 244.7 77.5 233.8 79.4 223.2ZM89 230C88.5 232.1 88 234.1 87.4 236.5C89.7 236.4 92 236.4 94.2 236.2C96.2 236 97.5 234.8 97.8 233.3C98.2 231.7 97.4 230.4 95.4 230.2C93.4 229.9 91.3 230 89 230Z" fill="#2D1F04"/>
<path d="M140.3 232.6C136.8 232.8 133.5 233 130.2 233.1C130.1 230.4 128.6 229 125.8 228.9C124 228.9 122.4 229.4 121.5 231.2C121.3 232.8 122.4 233.3 123.7 233.6C126 234.2 128.4 234.7 130.8 235.4C132.1 235.8 133.4 236.2 134.7 236.8C142.7 240.3 140.9 249.4 134.5 253.7C132.4 255.1 129.8 256.1 127.4 256.5C123.5 257.2 119.6 257 115.9 255.9C111 254.5 107.8 250.2 108.5 244.9C111.7 244.8 114.8 244.6 118.2 244.5C118.3 245.1 118.4 245.7 118.6 246.3C119.4 249.4 122.8 250.9 126.2 249.7C127.7 249.2 128.9 248.2 129.1 246.7C129.3 245.3 128.5 244.3 127.3 243.8C126.2 243.3 125 243 123.9 242.7C121.5 242 119.1 241.4 116.9 240.5C112.7 238.8 111.1 235.8 111.9 232.2C112.9 228.2 116.1 224.9 120.8 223.7C125.3 222.5 129.7 222.5 134 223.8C138.4 225.1 140.4 227.9 140.3 232.6Z" fill="#2D1F04"/>
<path d="M121.636 239.636V238.545C121.758 226.97 122.97 217.758 125.273 210.909C127.576 204.061 130.848 198.515 135.091 194.273C139.333 190.03 144.424 186.121 150.364 182.545C153.939 180.364 157.152 177.788 160 174.818C162.848 171.788 165.091 168.303 166.727 164.364C168.424 160.424 169.273 156.061 169.273 151.273C169.273 145.333 167.879 140.182 165.091 135.818C162.303 131.455 158.576 128.091 153.909 125.727C149.242 123.364 144.061 122.182 138.364 122.182C133.394 122.182 128.606 123.212 124 125.273C119.394 127.333 115.545 130.576 112.455 135C109.364 139.424 107.576 145.212 107.091 152.364H84.1818C84.6667 142.061 87.3333 133.242 92.1818 125.909C97.0909 118.576 103.545 112.97 111.545 109.091C119.606 105.212 128.545 103.273 138.364 103.273C149.03 103.273 158.303 105.394 166.182 109.636C174.121 113.879 180.242 119.697 184.545 127.091C188.909 134.485 191.091 142.909 191.091 152.364C191.091 159.03 190.061 165.061 188 170.455C186 175.848 183.091 180.667 179.273 184.909C175.515 189.152 170.97 192.909 165.636 196.182C160.303 199.515 156.03 203.03 152.818 206.727C149.606 210.364 147.273 214.697 145.818 219.727C144.364 224.758 143.576 231.03 143.455 238.545V239.636H121.636ZM133.273 293.455C128.788 293.455 124.939 291.848 121.727 288.636C118.515 285.424 116.909 281.576 116.909 277.091C116.909 272.606 118.515 268.758 121.727 265.545C124.939 262.333 128.788 260.727 133.273 260.727C137.758 260.727 141.606 262.333 144.818 265.545C148.03 268.758 149.636 272.606 149.636 277.091C149.636 280.061 148.879 282.788 147.364 285.273C145.909 287.758 143.939 289.758 141.455 291.273C139.03 292.727 136.303 293.455 133.273 293.455Z" fill="white"/>
</g>
<defs>
<clipPath id="clip0_228_408">
<rect width="424" height="390" fill="white"/>
</clipPath>
</defs>
</svg>
