<svg width="346" height="379" viewBox="0 0 346 379" fill="none" xmlns="http://www.w3.org/2000/svg">
<g clip-path="url(#clip0_228_525)">
<path d="M84.8 124.9C60.4 177.1 46.4 136 45.8 136C35.4 152.1 23 187.8 23.9 201.5C42.8 195.3 43.8 228.5 31.2 234.8C6.59995 247 11.2 218 8.49995 218.3C5.79995 218.6 -27 336.8 69.2 339.3C77.7 339.5 117.2 333.5 125.4 335.6C140.3 339.3 128.9 334.3 144.2 331.7C149.3 330.8 154.8 337 159.2 318.9C163.6 300.7 154.5 324.4 164.3 327.5C192.1 336.1 302.1 335.1 308.2 330.5C317.2 323.7 340.3 311.2 344.6 275.3C346.4 260 327.1 215.9 326.4 225.6C325.4 239.7 302.7 249.2 295.8 222.6C287.3 189.8 320.5 195.2 320.9 194.2C335.6 161.8 303.8 124.8 301.7 124.8C301.1 124.8 283.4 155 279.1 121.1C276.6 101.5 265.6 80.4999 254.4 64.4999C252.5 61.6999 238.8 44.7999 236 44.7999C234.3 44.7999 238.8 71.2999 225.5 70.4999C204.9 69.1999 181.7 18.4999 138.9 0.899913C138.6 0.799913 150.8 30.0999 124.9 53.7999C121.7 56.6999 92.4 108.7 92.4 115.9" fill="#2D1F04"/>
<path d="M256.6 334.3C317.7 322.3 290.6 274.8 289.9 274.8C289.4 274.8 263.4 304 256.9 274.9C254.9 266 273.5 235.4 277.1 226.4C284.6 207.7 285.4 201.8 277 184.1C276.2 182.3 260.8 158.7 260.3 158.7C260 158.7 260.3 185.8 244.4 188C241.7 188.4 241.9 178.5 241.9 176.3C241.9 164.7 241.9 151.9 240.6 140.3C239.5 130.4 238.7 120.1 235.2 110.6C228.6 92.8999 205.2 75.1999 189.2 66.2999C184.9 63.8999 176.7 55.3999 171.6 55.3999C170.3 55.3999 171 55.9999 170.8 56.6999C168.9 63.3999 164.8 69.5999 161.2 75.4999C147.3 98.0999 130.8 119.5 116 141.6C101.2 163.8 86.3 187.2 75 211.4C70.8 220.4 82.4 262.7 73 265.7C45.2 274.9 39.9 248.2 39.7 248.3C36.7 249.3 21.9 339.1 77 339.1C77.5 339 251.3 335.3 256.6 334.3Z" fill="#2D1F04"/>
<path d="M345.5 175.5C345.6 175.7 345.7 175.9 345.8 176.1L345.5 175.5Z" fill="#2D1F04"/>
<path d="M251.8 60.4999C253.8 62.0999 270.5 58.0999 272.7 61.5999C275.2 65.4999 271 74.5999 270.6 78.8999C269.3 93.3999 257.4 146.7 255.3 159.2C254.8 161.9 253.5 164.4 253.4 167.2C253.4 167.5 253.5 170.3 253.1 170.3C251.9 170.4 248.8 164.5 248.3 163.4C247.8 162.1 242.8 157.4 242.9 156.8C243.7 153.2 244.9 149.8 245.1 146C246.3 124.2 245.4 102.3 249 80.5999C249.4 78.2999 251.3 60.0999 251.8 60.4999Z" fill="#2D1F04"/>
<path d="M178 270.4C179.4 270.9 177.5 268.8 177.4 270.5C177.2 272.9 178.1 293.6 177.6 294C177.5 294.1 154 294 151.2 293.7C141.1 292.7 130.7 292.9 120.6 293C111.6 293.1 81.6999 295.2 75.8999 293.1C75.0999 292.8 72.4999 264.7 73.3999 263.3C73.4999 263.2 75.8999 263.5 76.1999 263.6C84.2999 264.4 91.3999 263.3 99.4999 262.6C110.2 261.7 120.3 264.3 130.9 264.3C147.3 264.4 162.6 264.6 178 270.4Z" fill="#2D1F04"/>
<path d="M78.5999 294.2C77.0999 305.7 82.3999 316.7 84.5999 327.8C86.0999 335.2 86.6999 342.7 88.3999 350C89.9999 357 88.9999 367.7 92.6999 373.9C93.4999 375.2 99.1999 374.9 100.2 373.9C101.9 372.2 100.7 362 101 359.7C102.9 344.6 103.5 312.5 99.6999 297.6C98.3999 292.5 103.7 296.7 100.4 292.4C99.5999 291.3 78.7999 292.7 78.5999 294.2Z" fill="#2D1F04"/>
<path d="M158.3 294.4C157.4 294.7 159.7 306.5 160 307.8C160.4 309.7 160.8 311.6 161.2 313.5C164.3 329.7 164.4 346.6 168.1 362.6C168.4 363.9 170 376.5 170.6 377.1C171.4 377.9 175.8 375.9 176.8 375.9C177.5 375.9 179 376.2 179.6 375.6C181.2 374 179.9 369.8 179.7 367.8C179.3 360.7 179.3 353.4 178.7 346.4C177.5 333.5 178.8 320.5 178.8 307.6C178.8 305.6 180.1 295.8 179.2 294.6C178.7 293.8 176.1 294.4 175.2 294.3C170.4 293.5 162.9 292.7 158.3 294.4Z" fill="#2D1F04"/>
<path d="M216.7 286.1C216.6 283.7 224.4 283.5 226.2 283C227.4 282.7 229.7 281.2 229.7 282.4C229.7 287.4 228.9 293.1 228.1 298.3C227.6 301.2 227.3 305.3 227.7 308.2C228.1 311.5 227.4 314.8 227.1 318C226.6 324.6 227 331.1 226.2 337.6C225.7 341.9 226.1 346.4 226.1 350.8C226.1 351.4 226.7 354.9 226 355C225 355.2 220.5 355.5 219.7 355C218.1 353.9 219 339.7 219 337.4C219 334.8 218.2 332.3 217.8 329.8C216.5 320.8 217.9 311.4 216.6 302.4C215.8 297.4 216.9 291.2 216.7 286.1Z" fill="#2D1F04"/>
<path d="M208.8 76.1C211.3 73.9 224.5 76 227.7 76.1C231.7 76.2 235.6 76.1 239.6 75.8C241.6 75.7 248 75.1 249.5 76.2C251.1 77.3 248.3 82.8 248 83.9C247.8 84.8 248.2 89.4 247.6 89.6C245.2 90.3 240.7 89.5 238.2 89.4C233.5 89.1 228.4 89.3 223.7 89.7C222.2 89.8 217 90.4 215.7 89.4C213.5 87.8 212.5 83.7 211.5 81.3C211.1 80.2 208.4 76.5 208.8 76.1Z" fill="#2D1F04"/>
<path d="M221.7 111C225.2 108.3 236.2 111 241.2 110.9C242.3 110.9 245.5 109.9 246.5 110.9C248.2 112.8 245.9 127.8 245.3 130C245.1 130.9 245.3 134.6 244.6 135.1C243.1 136 239.7 135 238 135.2C236.9 135.3 226.4 134.5 225.6 133.7C223.7 131.6 224.1 125.6 223.4 122.9C222.7 119.8 219 113.1 221.7 111Z" fill="#2D1F04"/>
<path d="M274.9 61.6999C275.6 59.1999 278.4 65.3999 278.9 67.3999C280.3 72.7999 275.9 82.9999 274.8 88.4999C271.6 104.5 268.3 120.4 266 136.5C264.7 145.4 263.5 154.8 261.3 163.4C261 164.5 259.2 178.5 256.9 175.4C252.5 169.6 258.1 150.4 258.9 143.8C261.3 124.8 266.7 105.9 269.7 86.9999C272 73.7999 272.6 69.9999 274.9 61.6999Z" fill="#2D1F04"/>
<path d="M228.9 281.1C232.7 279.1 236.8 279.9 240.4 277.3C240.6 277.2 240.7 276.9 240.9 277C241.7 277.2 240.8 280.9 240.7 281.4C239.6 285.8 239.9 290.4 239.1 294.9C236.8 307.6 236.6 321.2 236.2 334.1C236.2 335.2 234.5 349.7 234.4 349.9C233.7 350.5 232.4 351.2 231.5 351.8C230.6 352.4 229.2 352.2 228.2 352.8C228 352.9 227.1 353.7 226.9 353.6C226.5 353.4 226.9 352.4 226.9 352.1C227.1 348.5 226.9 344.9 226.9 341.3C227 327.7 225.6 313.6 227.7 300.2C228.3 296.3 226.1 282.6 228.9 281.1Z" fill="#2D1F04"/>
<path d="M179.5 294.9C179.9 293.9 184.3 293.6 185.8 293.4C187.2 293.2 191.9 291.2 193.2 291.8C193.2 291.8 192.3 296.7 192.3 296.9C191.3 302.2 190.5 307.3 190.1 312.7C189.4 321.3 190.8 330.2 189.8 338.7C189.1 345.4 187.5 352 186.8 358.6C186.6 360.8 188.8 369.2 187.6 370C186.9 370.5 182.6 374.9 181.7 375.1C179.9 375.6 180 369.1 180 368C180 360.4 178.4 352.2 179.6 344.8C180.2 341.4 178.7 337.7 178.7 334.2C178.7 325.3 179 315.8 179.8 306.9C179.8 304 178.5 297.5 179.5 294.9Z" fill="#2D1F04"/>
<path d="M176.4 271.6C176.3 271.6 178.2 293.1 177.7 293.9C177.3 294.6 184.2 292.6 185.2 292.5C193.9 291.5 201.9 287.2 210.5 285.9C210.8 285.9 211 285.9 211.3 285.8C216 284.6 220.4 283.2 225.1 281.8C225.3 281.7 226.9 281.4 227 281.3C227.1 281 221.9 280.2 221.4 280.2C218 279.6 214.6 278.3 211.4 277.1C206.7 275.3 202.3 273.2 197.7 271.2C195 270 192.9 266.2 189.6 266.3C186.1 266.4 183 270.1 179.6 270.4C178.4 270.3 176.9 271.7 176.4 271.6Z" fill="#2D1F04"/>
<path d="M251.2 60.0999L243 164.8L251.2 60.0999Z" stroke="#2D1F04" stroke-width="2.62" stroke-miterlimit="10" stroke-linecap="round" stroke-linejoin="round"/>
<path d="M191 75.7998L219.8 75.6998L249.4 75.2998" stroke="#2D1F04" stroke-width="2.62" stroke-miterlimit="10" stroke-linecap="round" stroke-linejoin="round"/>
<path d="M199.7 89.3999L248.4 89.5999" stroke="#2D1F04" stroke-width="2.62" stroke-miterlimit="10" stroke-linecap="round" stroke-linejoin="round"/>
<path d="M208.4 110.6L247 110.7" stroke="#2D1F04" stroke-width="2.62" stroke-miterlimit="10" stroke-linecap="round" stroke-linejoin="round"/>
<path d="M211.9 134.5H245.2" stroke="#2D1F04" stroke-width="2.62" stroke-miterlimit="10" stroke-linecap="round" stroke-linejoin="round"/>
<path d="M275.1 61.0999L279.2 66.5999L276.3 80.7999L273.4 94.5999L257.7 175.5L255.7 185.9" stroke="#2D1F04" stroke-width="2.62" stroke-miterlimit="10" stroke-linecap="round" stroke-linejoin="round"/>
<path d="M100.6 374.1L105.8 369.5L106.9 325.7L102.4 319.2" fill="#2D1F04"/>
<path d="M100.6 374.1L105.8 369.5L106.9 325.7L102.4 319.2" stroke="#2D1F04" stroke-width="2.62" stroke-miterlimit="10" stroke-linecap="round" stroke-linejoin="round"/>
<path opacity="0.23" d="M210.9 207.6C218 204.9 224.3 199.8 231.6 197.2C237.7 195 243.5 196.1 249.5 194.7" fill="#2D1F04"/>
<path opacity="0.23" d="M210.4 206.4C217.8 200.3 238.1 191.9 248.4 192.9L210.4 206.4Z" fill="#2D1F04"/>
<path opacity="0.23" d="M213.1 206C218.8 203.8 222.3 197 228 194.4C235.8 191 244.2 188.8 252 185.8" stroke="#2D1F04" stroke-width="2.62" stroke-miterlimit="10" stroke-linecap="round" stroke-linejoin="round"/>
<path opacity="0.23" d="M210.8 208.2C211.1 205.3 231.8 194.6 235.7 193.5C238.5 192.7 246.5 191.2 246.2 191.2" stroke="#2D1F04" stroke-width="2.62" stroke-miterlimit="10" stroke-linecap="round" stroke-linejoin="round"/>
<path opacity="0.23" d="M206.1 208.9C210.9 204.9 217.1 203.1 222.7 200.7C226.8 199 230.4 197.7 234.8 197.1C251.1 195 257.2 204.2 248 219.5C240.6 231.7 205.7 250 196.1 231.4C191.9 223.3 200.7 215.1 207 211.8C219.8 205.3 235.1 204.9 242.2 219.2C249.8 234.4 240.7 248.3 226.8 255.1C221 258 213.5 256.8 207.3 256.2" stroke="#2D1F04" stroke-width="2.62" stroke-miterlimit="10" stroke-linecap="round" stroke-linejoin="round"/>
<path d="M95.8 51.9998C93.4 51.9998 87.3 64.0998 85.9 66.5998C75.6 84.8998 79.4 106.2 87.6 124.4C89.7 129.1 88.7 130.5 90.9 134.9C91.9 136.9 95.4 141.6 95.4 143.7C95.4 144.2 95.4 145.1 95.4 145.1C95.4 145.1 94.8 141.6 94 140.1C93.8 139.6 92.8 138.7 93.3 138.7C93.6 138.7 93.9 139.5 94 139.7C96.3 145.5 93.7 152.8 95.2 158.8C96.2 163 104.1 168 108.4 169.1C124.8 173.2 141.3 168.9 157.7 168.9C161.8 168.9 173.6 170.2 177 166.8C179.9 163.9 180.8 160.1 183.1 156.8C186.3 152.3 194.5 155.1 199.6 153.1C204.8 151 210.5 144.1 215.6 145.4C216.9 145.7 220.9 147.4 222.2 146.1C224.3 143.9 225.3 137.6 224.8 134.9C223.4 127.6 223.8 116.9 222.4 109.8C221.4 105 219.7 100.4 217.9 95.6998C210.9 77.3998 201.2 62.3998 185.6 50.9998C181.7 48.0998 175.2 43.0998 170.8 40.7998C166.5 38.5998 161.7 38.6998 157.4 36.4998C151.7 33.5998 145.6 29.8998 139.5 28.3998C138 27.9998 140.1 30.6998 140 30.9998C139.8 31.3998 136 31.2998 135.5 31.1998C130.4 30.1998 125.3 30.2998 120.4 28.0998C119.6 27.6998 116.6 24.6998 115.7 24.9998C112.8 25.9998 117.1 34.0998 117.1 34.0998C117.1 34.0998 116.7 33.3998 116.4 33.0998C115 31.9998 111.8 31.0998 110 30.6998C106.2 29.8998 104.5 32.3998 101.3 33.0998C100.9 33.1998 97.1 34.1998 97.1 34.2998C97.1 35.0998 103.2 36.0998 103.2 36.8998C103.2 37.5998 101.9 37.2998 101.5 37.3998C99.7 37.6998 89.4 41.9998 90.2 44.2998C90.5 45.2998 96 45.2998 97 45.9998C97.3 46.1998 97.9 46.1998 97.9 46.1998C97.9 46.1998 93.6 46.8998 91.5 47.3998C88.9 48.0998 84.2 53.0998 88.8 53.0998" fill="#2D1F04"/>
<path d="M70.0999 183C70.2999 182.4 70.4999 180.8 70.9999 181.2C82.1999 190.9 94.4999 191.3 94.4999 191.4C95.4999 194.7 95.3999 197.2 97.2999 199.1C97.8999 199.7 99.7999 199.8 100.1 200.9C100.4 201.9 96.3999 207.4 95.8999 209.3C94.5999 214.3 95 220.1 96.2999 225.1C99.3999 237.7 111.1 236.7 118.7 244.4C120.9 246.6 121.5 251.2 122.2 253.9C122.3 254.4 121.9 258.5 122.6 258.5C124.5 258.5 126.2 251.1 127.5 249.7C134.8 242.4 138.5 232.6 149.9 229.7C160.7 227 172.5 232.5 182.9 234.6C189.5 235.9 197.1 240.7 204.6 238.8C214.2 236.4 214.4 230.5 214.4 221.3C214.4 218.8 213.4 212.4 213.6 212.4C242.3 213.1 260.6 192.6 259.7 193.6C258 195.3 263.1 205 263.6 207.3C265.3 215.8 265 223.5 262.9 231.8C262 235.5 263.8 240 262.9 243.7C258.7 260.6 243.4 285.1 222.3 279.9C215 278.1 209.5 274.3 201.9 272.8C200.2 272.5 195.4 270 194 268.9C188.9 265.1 176.9 267.7 172.4 272.1C164.7 279.8 159 287.7 153.5 297C151.8 299.8 149.4 303.1 148.6 306.5C148.4 307.3 149.1 309.1 148.2 309.7C147.3 310.3 126.1 309.2 125.8 309C122.5 306.8 126.7 281 121.9 281C120.9 281 121.9 287.8 121.9 288.4C121.9 291.4 123 309.4 121.9 310.5C121.1 311.3 116.8 310.4 115.6 310.9C112.6 312.1 103.6 315.4 100.9 312.7C98.4999 310.3 97.2 305.5 96.2999 302.2C94.8999 296.7 89.5999 293.2 88.1999 287.8C86.4999 281.1 83.8999 274.8 82.1999 268.2C81.0999 264 79.7999 255.8 81.7999 251.7C81.9 251.5 82.4999 250.6 82.1999 250.3C80.1999 248.3 77.5999 257 66.7999 253.8C52.9999 249.8 55.9999 233.6 56.8999 229.1C59.3999 216.5 62.8999 201 68.5999 189.7C69.2999 187.7 69.9999 183.4 70.0999 183Z" fill="#2D1F04"/>
<path d="M110.4 253.8C110.9 252.9 121 247.7 121.4 250.3C122.1 254.7 121 259.5 121 264C121 264.6 121.2 270.4 121.4 270.3C122.3 269.8 125.7 251.6 128.4 250.7C131 249.8 139.8 254.3 142.4 255.6C142.6 255.7 143.7 256.1 143.5 256.7C141 261.7 134.3 267.1 131.6 272.5C131.2 273.3 126.3 281.4 126 281.3C125.7 281.1 118.7 266.8 117.2 264.8C115.8 262.8 109.5 255.7 110.4 253.8Z" fill="#2D1F04"/>
<path d="M125.7 310.8C125.8 310.5 146.2 311.1 146.7 311.7C146.8 311.8 145.8 313.9 145.6 314.2C143.1 319.1 140.9 324.4 137.5 328.9C134.5 332.9 133.3 337.6 131.2 341.9C131 342.3 130.9 343.1 130.1 342.6C125.4 339.4 127.2 330 126.2 325.1C125.5 320.8 124.5 315.1 125.7 310.8Z" fill="#2D1F04"/>
<path d="M102.4 316.1C102.8 315.4 120.2 310.1 121.5 312.8C123.2 316.2 122.9 338.4 120.8 341.5C119.9 342.8 115.8 338.3 115.2 337.6C112 334.4 105.2 322.8 102.9 318.3C102.7 317.9 102.2 316.4 102.4 316.1Z" fill="#2D1F04"/>
<path d="M67.9 178.1C65.7 173.7 68.3 167.9 68.9 165.7C71.3 156.3 80.1 149.7 88.9 147.5C90.7 147 94.1 147.6 95.2 149.3C96 150.5 92.2 150.2 96.4 152.8C100.6 155.4 101.6 155.3 106.9 156.6C112.2 157.9 114.9 158.3 119.5 159.5C129.6 162.1 148.2 162.9 157.6 161C173.1 157.9 180.4 157.1 195.6 153.3C202.3 151.6 209 141.5 216.6 143.4C218.1 143.8 226.1 143.9 229.4 145.5C232.7 147.1 236.1 150.5 241.5 154.5C245.1 157.2 247.4 163.1 250.3 166.1C252.8 168.6 252.3 170.4 254.3 173.1C256.7 176.3 262.7 187.5 260.4 192C259.2 194.4 242.8 214.7 212 211.6C211.4 211.5 212.2 210.9 211.4 211.3C210.7 211.7 212.4 213.3 212.5 213.4C213.9 215.3 214.8 218.4 214.3 220.8C212.8 226.7 212.4 233.8 206.5 236.2C194.4 241 171 228.3 156.8 230.3C147.7 231.6 140.9 234.8 133.7 240.6C130.5 243.1 128.9 250.3 126.1 253.1C125.9 253.3 125.6 253.5 125.4 253.5C124.7 253.3 124.1 250.5 124 250C123.3 247.3 119.7 244.5 117.8 242.6C113 237.8 103.2 235.9 99.1 230.4C95.7 225.9 97.5 206.6 99.9 200.5C96.8 198.8 96.2 195.5 94.9 192C85 191.5 69.3 181 67.9 178.1Z" fill="#2D1F04"/>
<path d="M212.4 204.1C233.9 203.7 242.7 199.5 251.2 190.5" stroke="#2D1F04" stroke-width="2.62" stroke-miterlimit="10" stroke-linecap="round" stroke-linejoin="round"/>
<path d="M68.7 170.7C72.5 175.9 80.8 180.5 87.3 181.6" stroke="#2D1F04" stroke-width="2.62" stroke-miterlimit="10" stroke-linecap="round" stroke-linejoin="round"/>
<path opacity="0.23" d="M99.8999 202C116.7 198.6 143.3 197.2 160.4 200.1C165.6 201 185.7 211.2 187.9 206.6C191.4 199.5 175.5 199.4 172.4 198.4C156.2 193 135 192.6 118.2 195.4C115.4 195.8 97.6999 202.4 99.8999 202Z" fill="#2D1F04"/>
<path opacity="0.23" d="M212.2 214C215.8 231.8 189.1 235 183.6 233.6C179.7 232.6 176.6 231.4 172.4 231.4C171.8 231.4 170.7 230.8 170.7 231.4C170.7 231.7 171.2 231.8 171.6 231.8C176.6 233 181.7 233.4 186.7 234.4C192.6 235.6 196.2 239.7 204.2 237.7C209.3 236.5 221 223 212.2 214Z" fill="#2D1F04"/>
<path opacity="0.23" d="M152.7 231.7C129.1 242.3 104.4 238.7 96.6 225.5C100.2 232.8 111.9 241.4 117.7 245.7C121.1 248.3 122.5 252.9 123.3 256.9C123.6 258.3 122.7 262.5 123.3 261.2C128 251.9 129.7 242.2 140.2 235.9C142.3 234.6 154.7 230.8 152.7 231.7Z" fill="#2D1F04"/>
<path opacity="0.23" d="M173.9 259.2C174.9 258.5 169.8 260.4 168.5 261.1C165.3 263.1 162.6 266.3 160.3 269.3C156.1 275 143.3 301 133.6 298.6C128.2 297.3 125 294.1 123.7 288.7C123.5 287.8 123.1 281 121.5 281C120.9 281 120.8 288.4 120.6 289.2C119.8 293.4 117.4 294.6 114.6 297.4C110.2 301.8 103.1 299.5 98.2 298.3C97.5 298.1 92.3 294.3 92.2 294.4C91.7 294.9 97.6 304.8 98.2 306C104.4 318.4 109 331 118.9 340.9C123.4 345.4 122.7 333.8 122.3 331.4C121.6 327.2 118.5 299 123.2 297.8C124.7 297.4 123.9 305.1 124.1 306.6C125.4 315.5 125.3 325.7 127.5 334.4C127.8 335.4 129.4 345.4 131.8 342.6C134.5 339.4 139.9 323.9 143.7 316.4C150.3 303.5 158.2 294.5 164.5 281.9C167.8 275.3 175 269.9 182.1 268.1C184.6 267.5 186.8 267.2 189.4 267.2C189.7 267.2 190.3 267.5 190.3 267.2C190.5 265.4 171.8 260.8 173.9 259.2Z" fill="#2D1F04"/>
<path opacity="0.23" d="M210.4 235.3C258.4 259.4 260 153.6 212.9 144.1C212.2 144 214.3 143.7 215.1 143.7C219.8 143.7 223.6 144.1 228 146.3C239.7 152.2 247.3 163.8 255.1 174.3C257.9 178 261 187 259.8 191.5C259.4 193.1 257.2 193.7 257.6 195.4C259.1 201.6 262.9 207.1 263.6 213.9C264 218.2 262.8 223 263.6 227.2C264.2 230.2 265.5 233.4 264.9 236.7C263.2 245.4 257.8 252.3 254.6 260.4C250.7 270.1 244.2 278.1 233.9 280.6C229.5 281.7 223.9 278.7 219.7 278C197.8 274.4 179 260.5 157.7 255.2C145.4 252.1 138.4 262 131 269.4C130.2 270.2 124.7 281.6 124.1 281C119.9 276.8 121.5 261.7 123.3 257.3C125 253.1 132.1 242.8 134.6 242.2C128.6 258.2 187.1 247.2 179.9 233.7C187.5 232.7 204.4 241.7 210.4 235.3Z" fill="#2D1F04"/>
<path opacity="0.2255" d="M60.9 213.4C63.3 206 58.1 223.3 57.9 224.6C57.4 228.3 57.6 232.1 57 235.8C51.5 268.5 83.8 250.2 96 246.2C102.9 243.9 113 259.7 116.1 265.8C116.5 266.6 120.6 273 120.9 273C121.9 273 128.3 256 125.1 259.1C121.9 262.2 122.5 245.2 116.1 241.4C109.8 237.6 97.6 229.8 97.2 230.2C69.1 255.7 55 232 60.9 213.4Z" fill="#2D1F04"/>
<path d="M84.6 88.9999C86.6 80.8999 91.5 71.6999 98.7 70.2999C107.2 68.6999 115.1 64.5999 123.3 63.9999C129.3 63.4999 128.7 58.5999 128.7 58.5999C128.7 58.5999 133.4 61.8999 137.8 64.4999C143.3 67.7999 147.9 67.7999 153.5 66.0999C172 60.3999 183 63.5999 192.9 81.6999C194.7 85.0999 205.5 116.3 193 136.7C190.4 140.9 186.8 144.7 182 147.7C161.9 160 118.4 163.9 98.5 138.4C89 126.6 80.9 104.2 84.6 88.9999Z" fill="#2D1F04"/>
<path d="M125.2 102.4C118.5 98.9998 109.7 118.6 110.2 123.6C111.7 141.7 139.5 146.3 152.8 135.3C167 123.6 147.5 96.4998 135.9 101.3" fill="#2D1F04"/>
<path d="M82.6 91.8998C79 98.5998 89 125.7 91.8 127.8C93.9 129.4 126.9 105.7 112.7 68.6998C112.1 67.0998 93.6 76.0998 91.2 76.5998C87.9 77.1998 84.1 89.0998 82.6 91.8998Z" fill="#2D1F04"/>
<path d="M156.2 68.2998C133.7 120.7 192.6 133.4 197.5 124.2C201.8 116.1 200.4 96.2998 192.5 82.2998C191.7 80.8998 181.9 68.9998 180.5 69.1998C169 71.1998 159.7 68.3998 156.2 68.2998Z" fill="#2D1F04"/>
<path d="M67.7 209.2V214.8" stroke="#2D1F04" stroke-width="3.87" stroke-miterlimit="10" stroke-linecap="round" stroke-linejoin="round"/>
<path d="M73.2 205.8V211.5" stroke="#2D1F04" stroke-width="3.87" stroke-miterlimit="10" stroke-linecap="round" stroke-linejoin="round"/>
<path d="M249.9 246.2V251.9" stroke="#2D1F04" stroke-width="3.87" stroke-miterlimit="10" stroke-linecap="round" stroke-linejoin="round"/>
<path d="M242.6 242.4V248.1" stroke="#2D1F04" stroke-width="3.87" stroke-miterlimit="10" stroke-linecap="round" stroke-linejoin="round"/>
<path d="M208.8 131.9V137.5" stroke="#2D1F04" stroke-width="3.87" stroke-miterlimit="10" stroke-linecap="round" stroke-linejoin="round"/>
<path d="M214.7 128.4L214.6 134" stroke="#2D1F04" stroke-width="3.87" stroke-miterlimit="10" stroke-linecap="round" stroke-linejoin="round"/>
<path d="M150.2 279L150.1 284.6" stroke="#2D1F04" stroke-width="3.87" stroke-miterlimit="10" stroke-linecap="round" stroke-linejoin="round"/>
<path d="M143.7 282.8V288.4" stroke="#2D1F04" stroke-width="3.87" stroke-miterlimit="10" stroke-linecap="round" stroke-linejoin="round"/>
<path d="M89.2999 267.9V273.5" stroke="#2D1F04" stroke-width="3.87" stroke-miterlimit="10" stroke-linecap="round" stroke-linejoin="round"/>
<path opacity="0.23" d="M83.8999 54.4C87.8999 54.4 91.0999 52.6 94.9999 51.7C96.0999 51.4 98.2999 50.2 98.2999 51.4C98.2999 51.6 97.7999 51.6 97.5999 51.7C94.2999 53.7 91.5999 56.6 89.6999 60.1C88.9999 61.3 87.2999 64.6 87.6999 63.8C96.8999 47 140.8 36.6 172.6 56C174.1 56.9 175.5 57.8 176.9 58.9C195.5 72.3 208.8 97 206.4 138.3C206.3 139.3 204.6 146.9 205.5 147.2C207.5 147.9 215.3 142.1 217.7 143.1C218.8 143.5 222.7 145.9 223.5 145.3C224.9 144.3 224 139 224.2 137.3C229.3 95.6 186.6 48.6 182.8 46.5C168.6 38.5 139.5 29.6 138.8 29.4C138.7 29.4 136.1 31 134.8 30.7C130 29.9 124.7 28.1 119.9 26.7C119.2 26.5 114.8 23 114.6 23.3C114.1 24.4 113.7 30.5 114.3 31.3C114.7 31.9 117 31 116.3 31C110.2 31 102.4 33 95.7999 34.4C95.5999 34.4 95.0999 34.5 95.0999 34.7C95.0999 36.6 103.7 35.4 103.7 36.7C103.7 37.7 91.7999 41.1 90.0999 42.4C89.5999 42.8 87.6999 44.3 88.0999 44.7C89.6999 46.3 93.5999 44.3 95.6999 45.4" fill="#2D1F04"/>
<path d="M97.2999 50.7998C92.7999 53.7998 90.0999 58.7998 87.0999 63.0998C72.2999 84.2998 80.0999 111.2 90.5999 132.5C91.4999 134.4 92.7999 136.5 93.0999 138.6C93.1999 139.7 92.5999 141.4 93.0999 142.4C93.2999 142.8 94.1999 141.4 94.2999 141.8C94.4999 143.8 94.2999 146 94.0999 147.9C93.9999 148.6 93.1999 150.6 93.6999 150.1C93.8999 149.9 94.3999 148.3 95.0999 148.5C95.4999 148.6 95.6999 151.9 95.4999 153" stroke="#2D1F04" stroke-width="2.62" stroke-miterlimit="10" stroke-linecap="round" stroke-linejoin="round"/>
<path d="M95.8999 51.3999C93.6999 52.4999 92.2999 52.4999 89.9999 53.1999C88.8999 53.4999 87.9999 53.8999 86.8999 54.1999C85.7999 54.3999 84.7999 54.4999 83.7999 54.7999C83.2999 54.8999 82.3999 55.6999 82.3999 55.1999C82.3999 53.6999 94.1999 46.9999 96.4999 46.2999C96.7999 46.1999 97.3999 46.1999 97.4999 45.8999C97.6999 45.3999 96.5999 45.3999 96.0999 45.2999C93.8999 44.6999 88.4999 46.4999 86.6999 45.0999C86.1999 44.6999 90.1999 42.2999 90.3999 42.0999C92.8999 40.6999 95.2999 38.8999 97.9999 38.0999C99.5999 37.5999 102.9 38.7999 102.9 37.0999C102.9 35.0999 93.9999 35.7999 93.2999 35.0999C93.1999 34.9999 93.5999 34.9999 93.6999 34.8999C95.6999 33.8999 97.9999 32.9999 100.2 32.4999C104.3 31.4999 111.5 30.5999 115.5 31.8999" stroke="#2D1F04" stroke-width="2.62" stroke-miterlimit="10" stroke-linecap="round" stroke-linejoin="round"/>
<path d="M153.7 66.1999C193.5 63.2999 199.2 95.3999 199.2 95.3999" stroke="#2D1F04" stroke-width="7.6" stroke-miterlimit="10" stroke-linecap="round" stroke-linejoin="round"/>
<path opacity="0.948" d="M115.8 68.0999C105.5 68.4999 98 71.9999 92.5 76.4999C81.2 85.7999 78.7 99.5999 78.7 99.5999" stroke="#2D1F04" stroke-width="7.6" stroke-miterlimit="10" stroke-linecap="round" stroke-linejoin="round"/>
<path d="M120.5 103.6C120.4 101 125.3 98.6998 131.6 98.3998C137.8 98.0998 143 99.8998 143.1 102.5C143.2 105.1 138.3 107.4 132 107.7C125.8 108 120.6 106.2 120.5 103.6Z" fill="#2D1F04"/>
<path d="M116 160.5V161V161.5V161.9V162.4V162.9" stroke="#2D1F04" stroke-width="2.62" stroke-miterlimit="10" stroke-linecap="round" stroke-linejoin="round"/>
<path d="M80.7999 180.7L80.6999 181.1L80.4999 181.6L80.2999 182L80.0999 182.4L79.8999 182.9" stroke="#2D1F04" stroke-width="2.62" stroke-miterlimit="10" stroke-linecap="round" stroke-linejoin="round"/>
<path d="M222.7 204.9L222.8 205.4L222.9 205.9L223.1 206.3L223.2 206.8L223.3 207.2" stroke="#2D1F04" stroke-width="2.62" stroke-miterlimit="10" stroke-linecap="round" stroke-linejoin="round"/>
<path d="M228.8 203.4L229 203.8L229.1 204.3L229.2 204.7L229.3 205.2L229.5 205.7" stroke="#2D1F04" stroke-width="2.62" stroke-miterlimit="10" stroke-linecap="round" stroke-linejoin="round"/>
<path d="M176.9 158.4V158.9V159.4V159.8V160.3V160.8" stroke="#2D1F04" stroke-width="2.62" stroke-miterlimit="10" stroke-linecap="round" stroke-linejoin="round"/>
<path d="M167.8 160.1V160.6V161.1V161.5V162V162.5" stroke="#2D1F04" stroke-width="2.62" stroke-miterlimit="10" stroke-linecap="round" stroke-linejoin="round"/>
<path d="M123.9 161.5V161.9V162.4V162.9V163.4V163.8" stroke="#2D1F04" stroke-width="2.62" stroke-miterlimit="10" stroke-linecap="round" stroke-linejoin="round"/>
<path d="M128.2 161.8V162.3V162.8V163.3V163.7V164.2" stroke="#2D1F04" stroke-width="2.62" stroke-miterlimit="10" stroke-linecap="round" stroke-linejoin="round"/>
<path d="M165.4 90.1C165.1 90.1 164.8 90 164.5 90L165.4 90.1Z" fill="#2D1F04"/>
<path d="M100.8 86.5C107 86.5 112 91.5 112 97.7V98.4C112 104.6 107 109.6 100.8 109.6C94.6 109.6 89.6 104.6 89.6 98.4V97.7C89.6 91.5 94.6 86.5 100.8 86.5Z" fill="#2D1F04"/>
<path d="M100.8 86.5C107 86.5 112 91.5 112 97.7V98.4C112 104.6 107 109.6 100.8 109.6C94.6 109.6 89.6 104.6 89.6 98.4V97.7C89.6 91.5 94.6 86.5 100.8 86.5Z" stroke="#2D1F04" stroke-width="2.6" stroke-miterlimit="10" stroke-linecap="round" stroke-linejoin="round"/>
<path d="M174.3 85.2C180.5 85.2 185.5 90.2 185.5 96.4V97.1C185.5 103.3 180.5 108.3 174.3 108.3C168.1 108.3 163.1 103.3 163.1 97.1V96.4C163 90.2 168.1 85.2 174.3 85.2Z" fill="#2D1F04"/>
<path d="M174.3 85.2C180.5 85.2 185.5 90.2 185.5 96.4V97.1C185.5 103.3 180.5 108.3 174.3 108.3C168.1 108.3 163.1 103.3 163.1 97.1V96.4C163 90.2 168.1 85.2 174.3 85.2Z" stroke="#2D1F04" stroke-width="2.6" stroke-miterlimit="10" stroke-linecap="round" stroke-linejoin="round"/>
<path d="M127.5 112C128 116.8 136.1 115.5 136.1 111.7" stroke="#2D1F04" stroke-width="2.6" stroke-miterlimit="10" stroke-linecap="round" stroke-linejoin="round"/>
<path d="M93.5 147.8C86.6 147.8 72.3999 151.6 67.6999 173.8C66.2999 180.6 70.3 180.6 70.3 180.6" stroke="#2D1F04" stroke-width="2.62" stroke-miterlimit="10" stroke-linecap="round" stroke-linejoin="round"/>
<path d="M95.3999 151.4C146.9 176.1 203.8 148.1 203.8 148.1" stroke="#2D1F04" stroke-width="2.62" stroke-miterlimit="10" stroke-linecap="round" stroke-linejoin="round"/>
<path d="M123 287.1C119.9 280.9 120.9 264.1 126.7 252.1C145.3 213.1 193.4 239.3 202.4 238.3C218.6 236.5 213.9 213.2 213.9 213.2" stroke="#2D1F04" stroke-width="2.62" stroke-miterlimit="10" stroke-linecap="round" stroke-linejoin="round"/>
<path d="M203.4 179C206.1 187.1 210.3 195.4 211.5 203.8C212.1 208.2 208.4 211.7 213.8 213.5" stroke="#2D1F04" stroke-width="2.62" stroke-miterlimit="10" stroke-linecap="round" stroke-linejoin="round"/>
<path d="M96.1999 152.7C97.2999 157.3 93.9999 159.5 98.7999 161.8C115.8 170 150 174.1 176.6 165.9" stroke="#2D1F04" stroke-width="2.62" stroke-miterlimit="10" stroke-linecap="round" stroke-linejoin="round"/>
<path d="M99.6 200.8C83.6 253.7 130 225 122 264.3" stroke="#2D1F04" stroke-width="2.62" stroke-miterlimit="10" stroke-linecap="round" stroke-linejoin="round"/>
<path d="M82.4999 250.9C76.4999 268.9 109.1 336.6 119.7 343.1C124.9 346.3 121.2 318 121.2 278.7" stroke="#2D1F04" stroke-width="2.62" stroke-miterlimit="10" stroke-linecap="round" stroke-linejoin="round"/>
<path d="M227.8 354.7L235.1 349.5L241.1 276.6" stroke="#2D1F04" stroke-width="2.62" stroke-miterlimit="10" stroke-linecap="round" stroke-linejoin="round"/>
<path d="M181.1 375.7L186.9 371C186.9 371 192.6 290 192 291.4" stroke="#2D1F04" stroke-width="2.62" stroke-miterlimit="10" stroke-linecap="round" stroke-linejoin="round"/>
<path d="M97.4999 169C97.4999 177.1 89.5999 195.7 99.7999 200.8" stroke="#2D1F04" stroke-width="2.62" stroke-miterlimit="10" stroke-linecap="round" stroke-linejoin="round"/>
<path d="M129.1 249.5C136.7 251.2 139 252.5 144.4 256.9" stroke="#2D1F04" stroke-width="2.62" stroke-miterlimit="10" stroke-linecap="round" stroke-linejoin="round"/>
<path d="M135.4 252.3C127.7 261.7 125.1 271.4 122.5 282.9" stroke="#2D1F04" stroke-width="2.62" stroke-miterlimit="10" stroke-linecap="round" stroke-linejoin="round"/>
<path d="M110.4 254.1C112.6 250.9 117.3 249.4 121.1 249.1" stroke="#2D1F04" stroke-width="2.62" stroke-miterlimit="10" stroke-linecap="round" stroke-linejoin="round"/>
<path d="M115.6 250.4C120.2 257.7 119.7 267 121.7 275" stroke="#2D1F04" stroke-width="2.62" stroke-miterlimit="10" stroke-linecap="round" stroke-linejoin="round"/>
<path d="M127.4 310.5C133.6 310.5 140 309.9 146.1 311.2" stroke="#2D1F04" stroke-width="2.62" stroke-miterlimit="10" stroke-linecap="round" stroke-linejoin="round"/>
<path d="M135.3 311.2C134.9 312.5 127.2 338.3 129.2 340.3" stroke="#2D1F04" stroke-width="2.62" stroke-miterlimit="10" stroke-linecap="round" stroke-linejoin="round"/>
<path d="M102.9 314.5C108.7 313.6 115.6 309.5 121.6 311.4" stroke="#2D1F04" stroke-width="2.62" stroke-miterlimit="10" stroke-linecap="round" stroke-linejoin="round"/>
<path d="M111.3 312.4C112.4 319.2 115.5 337.6 120.9 342.8" stroke="#2D1F04" stroke-width="2.62" stroke-miterlimit="10" stroke-linecap="round" stroke-linejoin="round"/>
<path d="M124.1 201.8H124.7C133 201.8 139.7 203.3 139.7 205.3C139.7 207.2 133 208.8 124.7 208.8H124.1C115.8 208.8 109.1 207.3 109.1 205.3C109.1 203.3 115.8 201.8 124.1 201.8Z" fill="#2D1F04"/>
<path d="M155.7 34.8999C157.9 36.6999 223.4 60.2999 219.9 142.7C219.9 143.3 224.8 144.3 224.8 143.1C224.8 135.9 223.1 117.6 222.1 112.2C216.8 83.9999 199.6 50.7999 155.7 34.8999Z" fill="#2D1F04"/>
<path d="M225.4 144.2C273.4 180.7 272.1 281.1 220.4 278.7C228.2 281.4 230.3 279.7 231.1 279.6C266.9 272.4 267.6 221.2 258.6 194.3C258 192.6 262.4 192.7 261.5 189.9C260.1 185.2 253.9 171.5 251.8 167.2C243.1 148.7 228.6 144.9 225.4 144.2Z" fill="#2D1F04"/>
<path d="M183.4 263.6C183.4 263.6 157.5 265.4 135 334C135 334.1 134.9 334.2 134.9 334.3C134 337.1 133.1 340 132.2 342.9C169.4 257.1 188.5 266.8 188.5 266.8L183.4 263.6Z" fill="#2D1F04"/>
<path d="M66.3 193C61.9 216.7 58 226 59.9 239.2C60.7 245 62.9 253.1 68.7 255C69.2 255.2 70.2 255.3 70.2 255.3C70.2 255.3 67.9 255 67 254.4C63.2 252.1 58.2 246.6 57.3 242.1C54.6 229.2 59 210.2 66.3 193Z" fill="#2D1F04"/>
<path d="M267.8 62C268.5 71.7 253.3 162.5 252 167.3C251.1 170.8 251.1 170.6 253.9 169.2C254.2 169.1 254.1 163.7 254.2 163C255 156.6 274.1 63 273.8 62.3C273.7 61.6 267.8 61.3 267.8 62Z" fill="#2D1F04"/>
<path d="M175.1 294.9L178.6 375.8L179.2 295.1L178.9 271.2L173.1 273.3L175.1 294.9Z" fill="#2D1F04"/>
<path d="M224.1 283L225.5 357.8L228.2 282.4L228.1 281.5L224.1 283.4V283Z" fill="#2D1F04"/>
<path d="M75.2999 264.1L77.0999 293.1L81.3999 294L93.4999 373.5L78.0999 295.4L74.0999 293.5L72.3999 263.6" fill="#2D1F04"/>
<path d="M123.3 288.9C123.3 285.7 134.7 249.3 161.7 254.7C182.6 258.9 218.4 290.4 238.7 277.7C242.5 275.3 277.3 252.6 259.6 194.4" stroke="#2D1F04" stroke-width="2.62" stroke-miterlimit="10" stroke-linecap="round" stroke-linejoin="round"/>
<path d="M197.7 156C200.6 147.2 211 144.2 216.9 143.5C235 141.4 252.9 163.2 260.8 188.2C262 192 258.2 195 258.5 195.2" stroke="#2D1F04" stroke-width="2.62" stroke-miterlimit="10" stroke-linecap="round" stroke-linejoin="round"/>
<path d="M157.8 34.8999C206.9 51.3999 225.2 102.6 224.8 142.9" stroke="#2D1F04" stroke-width="2.62" stroke-miterlimit="10" stroke-linecap="round" stroke-linejoin="round"/>
<path d="M116.1 32.8999C114.9 30.5999 112.9 26.6999 113.9 23.9999C114 23.8999 114.9 22.8999 115.1 22.9999C115.9 23.3999 116.5 24.7999 117.5 25.3999C121.4 27.4999 125.7 28.9999 130 29.9999C132.5 30.5999 135.1 30.7999 137.6 31.3999C138.2 31.4999 139.4 31.5999 139.4 31.5999C139.4 31.5999 136 28.4999 137.2 27.7999C137.4 27.6999 147.3 31.3999 148.2 31.7999C155.2 34.5999 162.4 36.1999 169 39.4999" stroke="#2D1F04" stroke-width="2.62" stroke-miterlimit="10" stroke-linecap="round" stroke-linejoin="round"/>
<path d="M69.8 181.6C67.3 190.3 40.7 254.5 70.7 255.6C83.1 256 101.5 224.6 120.9 276.8" stroke="#2D1F04" stroke-width="2.62" stroke-miterlimit="10" stroke-linecap="round" stroke-linejoin="round"/>
<path d="M252.7 60.3999L274.6 60.9999C274.6 60.9999 261.4 127 254.2 172.1" stroke="#2D1F04" stroke-width="2.62" stroke-miterlimit="10" stroke-linecap="round" stroke-linejoin="round"/>
<path d="M156.6 294.2L179.7 294.1L228.3 281.8L226.9 355.5H219.3L216.6 285.6" stroke="#2D1F04" stroke-width="2.62" stroke-miterlimit="10" stroke-linecap="round" stroke-linejoin="round"/>
<path d="M189.3 267.3C160.4 267.3 147.5 315.3 130.8 343.1C128.5 346.9 124.4 323.4 124.4 285.5" stroke="#2D1F04" stroke-width="2.62" stroke-miterlimit="10" stroke-linecap="round" stroke-linejoin="round"/>
<path d="M157.9 295.8L170.3 376.7L180.3 376.5L178.7 294.7" stroke="#2D1F04" stroke-width="2.62" stroke-miterlimit="10" stroke-linecap="round" stroke-linejoin="round"/>
<path d="M91.0999 293.9L77.8999 293.6L91.5999 374.1L100.1 374.4L100.3 368.1L101.9 315.9" stroke="#2D1F04" stroke-width="2.62" stroke-miterlimit="10" stroke-linecap="round" stroke-linejoin="round"/>
<path d="M81.4 262.5L72.5 263.1L74.6 293.9L79.5 293.6" stroke="#2D1F04" stroke-width="2.62" stroke-miterlimit="10" stroke-linecap="round" stroke-linejoin="round"/>
<path d="M120.2 188.8C127.5 189 134.1 189 140.6 189.3C145.9 189.5 147.4 192.9 147.1 196.1C146.7 200.5 144 203.5 139.1 205.1C138.8 205.2 138.6 205.2 138.1 205.4C143.1 208.2 143.2 213.8 146.5 218.9C142.6 218.9 139.1 218.8 135.5 218.8C133.6 215.5 132.1 212.3 130.7 209.2C130 207.5 129 206.2 126.1 206.7C125.3 210.5 124.8 214.4 125.1 218.8C121.7 218.8 118.6 218.7 115.2 218.7C114.4 208.6 118.4 198.5 120.2 188.8ZM129 195C128.6 197 128.1 198.8 127.5 201C129.7 200.9 131.7 200.9 133.8 200.7C135.6 200.5 136.8 199.4 137.2 198C137.6 196.5 136.8 195.3 135 195.1C133.1 194.9 131.1 195 129 195Z" fill="#2D1F04"/>
<path d="M176.4 197.4C173.1 197.6 170.2 197.7 167.1 197.9C167 195.4 165.6 194.1 163 194C161.3 194 159.9 194.4 159.1 196.2C159 197.6 159.9 198.1 161.1 198.4C163.3 199 165.5 199.5 167.7 200.1C168.9 200.4 170.1 200.9 171.3 201.4C178.7 204.6 177 213.1 171.1 217C169.1 218.3 166.7 219.2 164.5 219.6C160.9 220.2 157.3 220 153.8 219C149.2 217.7 146.3 213.7 147 208.8C149.9 208.7 152.9 208.5 156 208.4C156.1 209 156.2 209.5 156.3 210.1C157.1 213 160.2 214.4 163.3 213.3C164.7 212.8 165.8 211.9 166 210.5C166.2 209.2 165.5 208.3 164.3 207.8C163.3 207.4 162.2 207.1 161.2 206.8C159 206.1 156.8 205.6 154.8 204.8C150.9 203.2 149.4 200.4 150.2 197.1C151.1 193.4 154 190.4 158.4 189.2C162.5 188.1 166.6 188.1 170.6 189.3C174.7 190.5 176.5 193.1 176.4 197.4Z" fill="#2D1F04"/>
<path d="M174.3 98.9999C175.57 98.9999 176.6 97.9702 176.6 96.6999C176.6 95.4296 175.57 94.3999 174.3 94.3999C173.03 94.3999 172 95.4296 172 96.6999C172 97.9702 173.03 98.9999 174.3 98.9999Z" fill="#2D1F04"/>
<path d="M100.8 99.8998C102.07 99.8998 103.1 98.8701 103.1 97.5998C103.1 96.3295 102.07 95.2998 100.8 95.2998C99.5297 95.2998 98.5 96.3295 98.5 97.5998C98.5 98.8701 99.5297 99.8998 100.8 99.8998Z" fill="#2D1F04"/>
<path d="M150.636 229.636V228.545C150.758 216.97 151.97 207.758 154.273 200.909C156.576 194.061 159.848 188.515 164.091 184.273C168.333 180.03 173.424 176.121 179.364 172.545C182.939 170.364 186.152 167.788 189 164.818C191.848 161.788 194.091 158.303 195.727 154.364C197.424 150.424 198.273 146.061 198.273 141.273C198.273 135.333 196.879 130.182 194.091 125.818C191.303 121.455 187.576 118.091 182.909 115.727C178.242 113.364 173.061 112.182 167.364 112.182C162.394 112.182 157.606 113.212 153 115.273C148.394 117.333 144.545 120.576 141.455 125C138.364 129.424 136.576 135.212 136.091 142.364H113.182C113.667 132.061 116.333 123.242 121.182 115.909C126.091 108.576 132.545 102.97 140.545 99.0909C148.606 95.2121 157.545 93.2727 167.364 93.2727C178.03 93.2727 187.303 95.3939 195.182 99.6364C203.121 103.879 209.242 109.697 213.545 117.091C217.909 124.485 220.091 132.909 220.091 142.364C220.091 149.03 219.061 155.061 217 160.455C215 165.848 212.091 170.667 208.273 174.909C204.515 179.152 199.97 182.909 194.636 186.182C189.303 189.515 185.03 193.03 181.818 196.727C178.606 200.364 176.273 204.697 174.818 209.727C173.364 214.758 172.576 221.03 172.455 228.545V229.636H150.636ZM162.273 283.455C157.788 283.455 153.939 281.848 150.727 278.636C147.515 275.424 145.909 271.576 145.909 267.091C145.909 262.606 147.515 258.758 150.727 255.545C153.939 252.333 157.788 250.727 162.273 250.727C166.758 250.727 170.606 252.333 173.818 255.545C177.03 258.758 178.636 262.606 178.636 267.091C178.636 270.061 177.879 272.788 176.364 275.273C174.909 277.758 172.939 279.758 170.455 281.273C168.03 282.727 165.303 283.455 162.273 283.455Z" fill="white"/>
</g>
<defs>
<clipPath id="clip0_228_525">
<rect width="346" height="379" fill="white"/>
</clipPath>
</defs>
</svg>
