<svg width="249" height="346" viewBox="0 0 249 346" fill="none" xmlns="http://www.w3.org/2000/svg">
<g clip-path="url(#clip0_228_659)">
<path d="M154.9 327.9C147.5 330.9 140.2 329.9 133.7 335.4C132.6 336.3 129 339.5 129.5 341.1C130.3 343.8 136.2 343.1 138.3 343.2C146.4 343.4 154.8 344.4 162.9 344.6C164.4 344.6 172 345.5 172.3 343.4C172.9 338.2 162.1 334.4 159.6 331.7" fill="#2D1F04"/>
<path d="M67.9 326.4C59.6 326.2 50.3 329.9 43.8 334.9C43.2 335.4 38.1 340.2 38.6 340.9C39.9 342.8 46.3 341.4 48.2 341.6C56.3 342.5 65 341 73.2 341.2C74.6 341.2 80 342.2 80.8 340.6C82 338.3 75.5 334.3 74.3 333.6" fill="#2D1F04"/>
<path d="M106.8 241.7C106.7 241.5 106.5 241.3 106.4 241.1L106.8 241.7Z" fill="#2D1F04"/>
<path d="M52 59.8998C49.6 59.8998 43.4 71.9998 42 74.4998C31.6 92.6998 35.4 114 43.7 132.3C45.8 137 44.9 138.4 47 142.8C48 144.8 51.5 149.5 51.5 151.6C51.5 152.1 51.5 153 51.5 153C51.5 153 50.8 149.5 50.1 148C49.9 147.5 48.9 146.6 49.4 146.6C49.7 146.6 50 147.4 50.1 147.6C52.4 153.4 49.8 160.7 51.3 166.7C52.3 170.9 60.3 175.9 64.7 177C81.3 181.1 98 176.8 114.6 176.8C118.8 176.8 130.7 178.1 134.2 174.7C137.1 171.8 138 168 140.4 164.7C143.6 160.2 151 154.8 156.2 152.8C161.5 150.7 168.2 152 173.4 153.3C174.7 153.6 178.8 155.3 180.1 154C182.3 151.8 183.3 145.5 182.7 142.8C181.2 135.5 181.7 124.8 180.3 117.7C179.3 112.9 177.5 108.3 175.8 103.6C168.7 85.2998 158.8 70.2998 143.1 58.8998C139.2 55.9998 132.6 50.9998 128.1 48.6998C123.7 46.4998 118.9 46.5998 114.5 44.3998C108.8 41.4998 102.5 37.7998 96.4 36.2998C94.8 35.8998 97 38.5998 96.9 38.8998C96.7 39.2998 92.9 39.1998 92.4 39.0998C87.3 38.0998 82 38.1998 77.1 35.9998C76 35.4998 73 32.3998 72 32.6998C69.1 33.6998 73.4 41.7998 73.4 41.7998C73.4 41.7998 73 41.0998 72.7 40.7998C71.3 39.6998 68.1 38.7998 66.3 38.3998C62.4 37.5998 60.8 40.0998 57.5 40.7998C57.1 40.8998 53.2 41.8998 53.2 41.9998C53.2 42.7998 59.4 43.7998 59.4 44.5998C59.4 45.2998 58 44.9998 57.7 45.0998C55.9 45.3998 45.5 49.6998 46.2 51.9998C46.5 52.9998 52 52.9998 53.1 53.6998C53.4 53.8998 54.1 53.8998 54.1 53.8998C54.1 53.8998 49.8 54.5998 47.7 55.0998C45 55.7998 39.6 61.7998 44.4 61.7998" fill="#2D1F04"/>
<path d="M196.2 279.8C195.3 280.1 192.2 288.7 191.8 292C191 298.5 196 307.1 196.8 313.5C197.6 319.8 197.8 325.9 200.4 331.7C201.3 333.7 200.4 340.4 199.8 342.6C198.8 346.6 177.3 345.5 174 344.2C174 344.2 166.6 335 164.2 333.2C162.2 331.7 163.7 331.4 159 329.4C156.1 328.2 152.5 328.2 149.8 325.4C147.2 322.8 145.8 317 143 315.1C140.2 313.3 138.1 314.6 129.2 316.5C120.3 318.4 113.7 318 105.1 315.8C103.6 315.4 103.8 318.3 104.6 321.6C105.4 325.3 106.9 329.5 107.5 330.3C107.9 331 112.1 335.8 111 336.9C108.8 339.2 92.5 341.4 89.8 341.4C86.7 341.4 83.9 340.1 81 340.6C80.3 340.7 78.9 340.6 78.9 340.6C78.9 340.6 80.5 341.3 80.3 340.8C80 339.9 78.1 338.3 77.5 337.5C75.2 334.4 71.4 330 68.7 327.4C66.5 325.2 65.8 323.1 64.3 320.2C62.2 316 60.8 310.8 59.6 306.1C59.3 305 59.1 307.1 58.4 306.1C56.1 302.6 63.6 293.8 58.6 288.8C56.2 286.4 51.7 284 51.7 284C51.7 284 45 286 45 278.7C45 277.5 34.7 265.1 43.8 265.6C52.9 266 39 269.8 40.8 269.8C46.8 269.8 51.7 269.4 57.7 271C61.6 272.1 64.8 274.6 69 275C75.4 275.6 81.8 274 88.2 274.5C94.4 275 99.6 276 104.8 275C106 274.8 112.7 281.8 113.4 281.1C114.3 280.2 111.7 268.1 113.7 267.6C117.2 266.7 120 270.2 123.3 270.8C131.4 272.4 140.4 273 147.9 268.5C151.2 266.5 154.6 263.5 155.9 260.3C157.3 256.8 157.1 253.7 158.5 250C160.2 245.4 158.2 238.6 157.2 233.9C156.6 230.9 153.9 222.9 155.4 219.8C158.1 214.5 175 205.9 180.7 204.6C185.9 203.4 191.8 202.3 197.1 203.7C203.6 205.3 204.4 210.8 205.6 215.3C209.4 230.4 208.6 245.8 201.6 261.6C199.8 265.8 198.7 269.2 195 271.9C194.1 272.6 190.1 277.5 189.9 277.9C189.6 278.6 194.9 278.3 195 278.3C199.2 279.7 195.6 281.6 194.3 286" fill="#2D1F04"/>
<path d="M40.6 96.9998C42.6 88.8998 47.6 79.6998 54.9 78.2998C63.5 76.6998 70.6 83.5998 78.9 83.2998C80.4 83.1998 83.4 82.2998 84.3 80.9998C85.2 79.6998 84.3 77.9998 84.3 77.9998C85.6 78.3998 86.9 80.2998 88.5 80.6998C94.7 82.4998 101.1 76.9998 106.8 75.2998C125.5 69.5998 140.2 71.6998 150.1 89.7998C152.3 93.8998 155.8 103.2 153.4 113.6C150 128.7 148.2 135.1 131.8 146.4C112.3 159.9 71.9 166.6 51.7 141.1C42.3 129.1 36.9 112.2 40.6 96.9998Z" fill="#2D1F04"/>
<path d="M78.3 103.9C71.5 100.5 66 117.7 66.5 122.6C68.4 139.5 93.1 138.6 104.6 132.9C121.2 124.6 100.9 97.9999 89.1 102.7" fill="#2D1F04"/>
<path d="M40.6 96.9999C36.9 103.7 41.1 123.8 43.9 125.9C46.1 127.5 60.9 116.3 65.2 109.2C66.3 107.3 72 95.0999 69.9 92.9999C68.7 91.7999 52.7 93.9999 50.2 94.4999C46.9 95.1999 42.1 94.2999 40.6 96.9999Z" fill="#2D1F04"/>
<path d="M102.8 93.8999C103.6 121.5 144.1 136.2 148.8 129.3C151.8 124.9 158.4 103.6 150.5 89.6999C149.7 88.2999 140.3 91.7999 138.9 92.0999C127.1 93.9999 102.5 81.8999 102.8 93.8999Z" fill="#2D1F04"/>
<path d="M57.7 280.6L57.6 286.3" stroke="#2D1F04" stroke-width="3.87" stroke-miterlimit="10" stroke-linecap="round" stroke-linejoin="round"/>
<path d="M63.8 284L63.7 289.6" stroke="#2D1F04" stroke-width="3.87" stroke-miterlimit="10" stroke-linecap="round" stroke-linejoin="round"/>
<path d="M69.5 287.7V293.3" stroke="#2D1F04" stroke-width="3.87" stroke-miterlimit="10" stroke-linecap="round" stroke-linejoin="round"/>
<path d="M60.4 157.6V163.2" stroke="#2D1F04" stroke-width="3.87" stroke-miterlimit="10" stroke-linecap="round" stroke-linejoin="round"/>
<path d="M66 160.5L65.9 166.1" stroke="#2D1F04" stroke-width="3.87" stroke-miterlimit="10" stroke-linecap="round" stroke-linejoin="round"/>
<path d="M115.5 95.1C115.5 97.6 116 99.3 116.9 100.5C119.5 103.8 125.2 102 130.9 101C137.1 99.9 138.5 96.1 139.7 93.8" fill="#2D1F04"/>
<path d="M41.5 93.7C36.2 107.5 58.1 106 62.1 95.6L41.5 93.7Z" fill="#2D1F04"/>
<path opacity="0.23" d="M39.7 61.6C43.7 61.6 47.2 60.5 51.1 59.6C52.2 59.3 54.4 58.1 54.4 59.3C54.4 59.5 53.9 59.5 53.7 59.6C50.3 61.6 47.6 64.5 45.7 68C45 69.2 43.2 72.5 43.7 71.7C59.1 44 170.4 33.6 164 146C163.9 147 162.7 148.7 163.7 149C165.7 149.7 168.9 147.7 171.4 148.7C172.5 149.1 180.6 153.6 181.4 153.1C182.8 152.1 181.8 146.8 182.1 145.1C187.8 107.2 144 56.4 140.2 54.3C125.8 46.3 96.3 37.4 95.6 37.2C95.5 37.2 92.9 38.8 91.6 38.5C86.8 37.7 81.4 35.9 76.5 34.5C75.8 34.3 71.3 30.8 71.1 31.2C70.6 32.3 70.2 38.4 70.8 39.2C71.2 39.8 73.6 38.9 72.8 38.9C66.6 38.9 58.7 40.9 52 42.2C51.8 42.2 51.3 42.3 51.3 42.5C51.3 44.4 60 43.2 60 44.5C60 45.5 47.9 48.9 46.3 50.2C45.8 50.6 43.8 52.1 44.3 52.5C45.9 54.1 49.9 52.1 52 53.2" fill="#2D1F04"/>
<path opacity="0.23" d="M179.9 284.7C176.6 286 175.9 290.9 176.4 297.3C177.6 312.7 186 336.4 184.1 336.2C153.1 333.8 134.2 340.7 134.2 341.9C134.2 343 139.6 342.7 140.6 342.9C146.8 344.5 162.4 345.6 168.7 345.2C180.5 344.5 184 344.2 195.8 344.2C197.3 344.2 196.2 344.7 197.5 343.9C202.4 340.6 198.2 325.1 197.6 320.2C196.6 312.4 192.4 298.3 193.5 290.6C193.8 288.2 198 281.8 197.5 279.4C196.5 274.6 181.3 284.2 179.9 284.7Z" fill="#2D1F04"/>
<path opacity="0.23" d="M62.4 304.1C60.2 304.1 59.4 309.5 59.4 310.3C59.9 316.7 62.7 322.1 66.6 327.2C66.7 327.4 65.8 325.7 65.7 325.9C65.5 326.6 61.3 328.4 60.5 328.5C58.1 329 36 337.3 39.1 341.9C39.2 342 62 341.6 63.9 341.6C76.3 341.6 86 341.6 98.4 341.6C100.2 341.6 109.2 339 110.2 337.5C111.6 335.4 107.1 328 106.4 326.2C106 325.2 104.3 315.6 104.1 315.5C100.2 312.9 88 305.7 83.5 305C68.3 302.6 71.3 304.1 62.4 304.1Z" fill="#2D1F04"/>
<path d="M53.5 58.7C48.9 61.7 46.2 66.7 43.2 71C28.2 92.2 37.8 123 48.5 144.3" stroke="#2D1F04" stroke-width="2.62" stroke-miterlimit="10" stroke-linecap="round" stroke-linejoin="round"/>
<path d="M52.1 59.3C49.9 60.4 48.4 60.4 46.2 61.1C45.1 61.4 44.2 61.8 43 62.1C41.9 62.3 40.8 62.4 39.8 62.7C39.3 62.8 38.4 63.6 38.4 63.1C38.4 61.6 50.4 54.9 52.7 54.2C53 54.1 53.6 54.1 53.7 53.8C53.9 53.3 52.8 53.3 52.3 53.2C50 52.6 44.6 54.4 42.8 53C42.3 52.6 46.3 50.2 46.6 50C49.1 48.6 51.6 46.8 54.3 46C55.9 45.5 59.3 46.7 59.3 45C59.3 43 50.3 43.7 49.6 43C49.5 42.9 49.9 42.9 50 42.8C52 41.8 54.3 40.9 56.5 40.4C60.6 39.4 67.9 38.5 72 39.8" stroke="#2D1F04" stroke-width="2.62" stroke-miterlimit="10" stroke-linecap="round" stroke-linejoin="round"/>
<path d="M66.8 326.8C54.6 326.4 40.7 337.8 39.8 338.8" stroke="#2D1F04" stroke-width="2.62" stroke-miterlimit="10" stroke-linecap="round" stroke-linejoin="round"/>
<path d="M78.8 341.6C83.8 341.6 90 341.2 95.1 341.1C98.1 341 111.6 340.6 110.8 336.4" stroke="#2D1F04" stroke-width="2.62" stroke-miterlimit="10" stroke-linecap="round" stroke-linejoin="round"/>
<path d="M126.7 342.1C128.5 343.6 197.7 345.7 199.3 343.7" stroke="#2D1F04" stroke-width="2.62" stroke-miterlimit="10" stroke-linecap="round" stroke-linejoin="round"/>
<path d="M68.1 327.2C73.2 330.6 77.4 334.6 80.1 340" stroke="#2D1F04" stroke-width="2.62" stroke-miterlimit="10" stroke-linecap="round" stroke-linejoin="round"/>
<path d="M38.6 342C43.4 343.1 83 341.1 85.3 341.5L38.6 342Z" fill="#2D1F04"/>
<path d="M38.6 342C43.4 343.1 83 341.1 85.3 341.5" stroke="#2D1F04" stroke-width="2.62" stroke-miterlimit="10" stroke-linejoin="round"/>
<path d="M40.2 338.4L39.6 338.7L38.7 340L38.2 341.1L38.6 342" fill="#2D1F04"/>
<path d="M40.2 338.4L39.6 338.7L38.7 340L38.2 341.1L38.6 342" stroke="#2D1F04" stroke-width="2.62" stroke-miterlimit="10" stroke-linejoin="round"/>
<path d="M39 341.9C43.7 338 64.8 330.2 72.7 331.5" stroke="#2D1F04" stroke-width="2.62" stroke-miterlimit="10" stroke-linecap="round" stroke-linejoin="round"/>
<path d="M128.5 341.9C135.8 338.2 144.7 335.6 153.5 334.5C157.3 334 161.1 333.9 164.8 334" stroke="#2D1F04" stroke-width="2.62" stroke-miterlimit="10" stroke-linecap="round" stroke-linejoin="round"/>
<path d="M100.4 91.8999L153.7 90.8999" stroke="#2D1F04" stroke-width="7.6" stroke-miterlimit="10" stroke-linecap="round" stroke-linejoin="round"/>
<path d="M75.4 92.8999L58.2 93.1999L29.3 93.6999" stroke="#2D1F04" stroke-width="7.6" stroke-miterlimit="10" stroke-linecap="round" stroke-linejoin="round"/>
<path d="M113.5 95.5999C117.4 107.4 138.1 103.7 138.5 94.0999" stroke="#2D1F04" stroke-width="3.05" stroke-miterlimit="10" stroke-linecap="round" stroke-linejoin="round"/>
<path d="M40.8 97.3C39.1 105.8 62.4 106.5 62.4 95.8" stroke="#2D1F04" stroke-width="3.05" stroke-miterlimit="10" stroke-linecap="round" stroke-linejoin="round"/>
<path d="M74.3 103.9C74.2 101.3 79.2 98.9999 85.5 98.6999C91.8 98.3999 97.1 100.2 97.2 102.8C97.3 105.4 92.3 107.7 86 108C79.6 108.3 74.4 106.5 74.3 103.9Z" fill="#2D1F04"/>
<path d="M128.3 93.7C128.5 93.6 128.7 93.4 128.9 93.3" stroke="#2D1F04" stroke-width="3.05" stroke-miterlimit="10" stroke-linecap="round" stroke-linejoin="round"/>
<path d="M85.7 108.8C85.7 118.4 91.1 107.1 98.6 110.8" stroke="#2D1F04" stroke-width="3.05" stroke-miterlimit="10" stroke-linecap="round" stroke-linejoin="round"/>
<path d="M51.6 96.1C51.6 94 53.3 92.3 55.4 92.3C57.5 92.3 59.2 94 59.2 96.1C59.2 98.2 57.5 99.9 55.4 99.9C53.3 99.9 51.6 98.2 51.6 96.1Z" fill="#2D1F04"/>
<path d="M127.7 94C127.7 91.9 129.4 90.2 131.5 90.2C133.6 90.2 135.3 91.9 135.3 94C135.3 96.1 133.6 97.8 131.5 97.8C129.4 97.7 127.7 96 127.7 94Z" fill="#2D1F04"/>
<path d="M118.4 35.9001C118.4 35.8001 118.5 35.8 118.6 35.8C118.7 35.8 118.8 35.8001 118.8 35.9001C118.8 36.0001 118.7 36 118.6 36C118.5 36.1 118.4 36.0001 118.4 35.9001Z" fill="#2D1F04"/>
<path d="M122.5 98.1C122.2 98.1 121.9 98 121.6 98L122.5 98.1Z" fill="#2D1F04"/>
<path d="M104.5 316.9C104.3 316.3 105.6 320.4 105.6 321.2C105.6 323.8 108.1 325.7 110.6 326.5C113.3 327.4 116.2 327.4 118.8 328.3C123 329.7 130.4 332.4 134.9 332C137.3 331.8 140.3 331 142.5 330.2C144.3 329.5 146.8 329.5 148.6 328.7C148.9 328.6 151 326.9 153.5 328.3C156.1 329.6 153.8 328.5 153.7 328.3C152.2 326.9 146.3 322.9 144.5 321.7C144.4 321.6 144.3 321.5 144.2 321.5C143.2 321.4 141.5 322.2 140.5 322.4C138.6 322.8 136.4 322.5 134.4 322.7C127.7 323.3 121.4 321.8 115.1 320.2C113 319.5 105.2 319.2 104.5 316.9Z" fill="#2D1F04"/>
<path d="M161.5 63C163.5 66.9 167 70.8 169.4 74.8C171.3 78 171.5 82.1 173.3 85.2C180.8 97.7 192.2 107.9 198.8 121.1C211.6 146.8 217.5 182.9 217.5 211.6" fill="#2D1F04"/>
<path d="M140 46.8C153.5 60.3 171.9 82.9 176.6 101.7C180 115.2 181.3 129.4 181.3 143.3" fill="#2D1F04"/>
<path d="M124.6 42.8999C129.9 42.8999 135.6 48.2999 139.7 51.1999C153.8 61.2999 166.9 73.3999 173.1 90.2999C174.7 94.6999 175.9 99.3999 177 103.9C178 108.1 177.8 113.5 180.2 117.2" stroke="#2D1F04" stroke-miterlimit="10" stroke-linecap="round" stroke-linejoin="round"/>
<path d="M49.6 144.9C48.4 144.7 47.6 165.4 48.8 167.9C50.9 172.2 53.3 174.4 52.4 180.4C51.7 185 51.1 189.4 49.6 195.9C48.1 202.5 46 203.2 46.2 206C46.7 213.2 46 208.1 48.8 208.1C49.6 208.1 45.6 209 52.5 209.8C59.5 210.6 60.8 218.5 65.8 212.9C73.2 204.4 83.9 208.3 94.1 206.6C100.6 205.5 106.3 204.7 112.1 207.6C114.9 209 119.8 208.1 122.5 209.4C125.2 210.8 130.7 203.5 132.7 206.1C134.7 208.8 146.2 206.3 146.6 206.3C147.2 206.3 148 206.7 148.4 206.3C149 205.7 147.5 204.7 147.2 203.9C145.5 199.9 142.4 195.6 141.7 191.1C140.4 181.7 137.9 172.9 142.2 164.3C143 162.7 144.4 158.1 145.8 156.9C152.3 151.2 171.2 146.8 182 152.8C183.7 153.8 218.7 219.8 219.9 217.5C221.1 215.1 216.7 147 215.6 144.7C189.6 87.2998 184.4 83.3998 161.3 63.0998C147.8 51.2998 131.4 44.5998 116.3 40.7998C115 40.4998 102.1 36.1998 101 37.9998C100.8 38.2998 101.1 38.6998 101.3 38.8998C103.3 41.3998 112.1 43.0998 115 43.7998C123.3 45.5998 133.8 52.3998 140.5 57.4998C146.7 62.1998 150.7 69.8998 153.5 76.5998C155 80.0998 157.3 86.4998 158.7 90.2998C161.9 98.8998 161.5 104 160.5 112.3C160 116.2 159.1 121 158.4 125C156.7 135 148.1 149.8 139.9 155.7C135.9 158.6 131.1 160.2 126.8 162.7C124 164.4 119.4 166 116.1 166.4C104.3 167.9 95.7 166.6 84.8 165.1C79.7 164.4 73.7 164 68.7 162.1C60.9 158.8 53.6 150.4 49.6 144.9Z" fill="#2D1F04"/>
<path d="M104.9 316.4C104.5 315.6 105.4 318.2 105.5 319.1C105.7 320 105.2 322.7 105.7 323.5C106.5 324.7 104.7 320.2 105.6 317.4C106.4 314.9 111.5 319.1 118.1 319.6C122.1 319.9 129.2 321.3 132.5 321.3C136.7 321.3 142.1 322.5 146.6 320.6C148.2 319.9 151.4 328.4 152.5 327.4C152.8 327.1 147.7 322.9 147.2 322.4C145.2 319.9 142.4 316.8 142.4 313.7C142.4 311.7 150.4 307.2 151.9 305.9C162 297.6 170.5 294.8 182.7 293.5C185.6 293.2 186.3 293.7 189.1 294.3C196 295.7 193.7 299.8 192.8 302.6C192.5 303.4 194.1 307.7 194.3 308.9C194.6 311.3 196.2 313.7 197.1 315.9C199.3 321.7 199.7 326.6 199.7 332.7C199.7 334.8 199.5 344.5 200.3 341.4C201.2 338.3 200.4 339.6 200.8 339.3C201.5 338.8 200 337.3 201.3 336.9C203.7 336.3 197.7 328.7 200.1 328.1C205.4 326.8 196 318.2 196.5 314.9C198.2 302.8 190 316.4 198.7 307.2C214.5 290.4 221.1 253.7 221.9 247.3C226.9 210.2 214.3 159.2 212.1 153.7C212 153.4 210 190 195.1 149.5C193.1 144.1 204.6 184.6 204.5 184.6C204.1 184.6 206.9 243.2 206.9 243.3C205.9 246.7 204.9 250.3 203.5 253.5C200.7 260.1 196.6 265.2 189.9 268.1C179.7 272.5 167.6 267.8 164 265.8C160.4 263.9 158.5 261.6 156.9 260C156.2 259.3 153.8 257.4 153 257.4C152.1 257.4 138 247.3 129.2 242.1C123 238.5 112.6 230.8 105.4 231.2C89.8 232 86.7 231.6 58.3 240.2C55 241.2 38 242.5 38.3 247.4C39.9 272.8 45.5 291.8 50.4 299.5C55.2 307.2 59.9 305 61.4 304.8C86.1 301.5 105.7 318.1 104.9 316.4Z" fill="#2D1F04"/>
<path d="M104.3 317.1C104.5 321.8 106.4 331.9 110.2 335.7" stroke="#2D1F04" stroke-width="2.62" stroke-miterlimit="10" stroke-linecap="round" stroke-linejoin="round"/>
<path d="M142.6 315.3C145.2 321 149.1 326 155.2 328.1" stroke="#2D1F04" stroke-width="2.62" stroke-miterlimit="10" stroke-linecap="round" stroke-linejoin="round"/>
<path d="M153.8 327.9C136.6 330.9 130.6 336.7 126.6 341.8" stroke="#2D1F04" stroke-width="2.62" stroke-miterlimit="10" stroke-linecap="round" stroke-linejoin="round"/>
<path d="M173.1 74.9001C173 74.6001 181.2 86.1001 182.1 87.1001C188.9 94.5001 195.4 102.4 200.5 111C202.4 114.2 203.5 118.2 205.1 121.5C206.9 125.4 209.3 128.9 211.1 132.8C220.3 152.1 273.9 280.2 231.7 338.3C229.8 340.9 200.9 323.6 198.1 324.3C196.4 324.7 196.2 314.5 196.2 308.6C196.2 306.1 199.1 306.2 200.8 304.5C203.5 301.8 204.2 301.6 207.6 295C211 288.3 210.1 286.5 212.3 281.5C216.7 271.2 216.7 265.5 218 254.4C218.7 248.4 219.2 244.2 219.2 238.2C219.2 234.4 219.7 229 219.9 220.5C220.2 212 219.4 213.2 219.2 203.8C218.9 194.4 218.3 194.1 217.2 185.1C216.1 176.1 214.9 171.2 212.8 161.5C212.1 158.3 212.2 155.4 210.3 149.9C208.5 144.4 207.2 138.7 204.4 131.7C201.3 124 197.8 116.8 194.1 109.4C192.6 106.4 192 102.2 190 99.6001C184.2 91.8001 178 83.3001 173.1 74.9001Z" fill="#2D1F04"/>
<path opacity="0.51" d="M175.2 79.7C261.6 177.2 228.4 369.1 201.6 335.5C199.4 332.8 200.2 325.1 198.5 320.4C198 319.1 194.9 307.7 195.8 307.4C205.7 303.8 213.5 284.1 217.6 259.9C221.3 237.5 221.4 215.9 218.5 193.5C217.2 183.7 217.1 178.7 216 173.6C212.8 158.9 210.6 145.1 204.7 131.7C199.4 119.5 192.7 101.1 184 90.4" fill="#2D1F04"/>
<path d="M175.2 79.7C261.6 177.2 228.4 369.1 201.6 335.5C199.4 332.8 200.2 325.1 198.5 320.4C198 319.1 194.9 307.7 195.8 307.4C205.7 303.8 213.5 284.1 217.6 259.9C221.3 237.5 221.4 215.9 218.5 193.5C217.2 183.7 217.1 178.7 216 173.6C212.8 158.9 210.6 145.1 204.7 131.7C199.4 119.5 192.7 101.1 184 90.4" stroke="#2D1F04" stroke-miterlimit="10" stroke-linecap="round" stroke-linejoin="round"/>
<path d="M157.9 10.3C161.8 10.3 164.9 13.4001 164.9 17.2001V18.2001C164.9 22.0001 161.8 25.1 157.9 25.1C154 25.1 150.9 22.0001 150.9 18.2001V17.2001C150.8 13.4001 154 10.3 157.9 10.3Z" fill="#2D1F04"/>
<path d="M157.9 10.3C161.8 10.3 164.9 13.4001 164.9 17.2001V18.2001C164.9 22.0001 161.8 25.1 157.9 25.1C154 25.1 150.9 22.0001 150.9 18.2001V17.2001C150.8 13.4001 154 10.3 157.9 10.3Z" stroke="#2D1F04" stroke-width="2.62" stroke-miterlimit="10" stroke-linecap="round" stroke-linejoin="round"/>
<path d="M52.1 11.5999C56 11.5999 59.1 14.6999 59.1 18.4999V19.4999C59.1 23.2999 56 26.3999 52.1 26.3999C48.2 26.3999 45.1 23.2999 45.1 19.4999V18.4999C45 14.6999 48.2 11.5999 52.1 11.5999Z" fill="#2D1F04"/>
<path d="M52.1 11.5999C56 11.5999 59.1 14.6999 59.1 18.4999V19.4999C59.1 23.2999 56 26.3999 52.1 26.3999C48.2 26.3999 45.1 23.2999 45.1 19.4999V18.4999C45 14.6999 48.2 11.5999 52.1 11.5999Z" stroke="#2D1F04" stroke-width="2.62" stroke-miterlimit="10" stroke-linecap="round" stroke-linejoin="round"/>
<path d="M153.1 209.1C154.4 206.6 155.4 200.2 149.3 193.6" stroke="#2D1F04" stroke-width="2.62" stroke-miterlimit="10" stroke-linecap="round" stroke-linejoin="round"/>
<path d="M48.4 143.3C59.7 165.9 93.8 170.3 117.3 166.1C134.7 163 167.5 143.6 159 92.5999C156.4 77.0999 143.4 53.6 120.8 45.7" stroke="#2D1F04" stroke-width="2.62" stroke-miterlimit="10" stroke-linecap="round" stroke-linejoin="round"/>
<path d="M48.6 145.5C48.6 145.2 50 167.7 50 167.7" stroke="#2D1F04" stroke-width="2.62" stroke-miterlimit="10" stroke-linecap="round" stroke-linejoin="round"/>
<path d="M142.9 315.5C142.9 313.1 145.2 310.4 148.8 307.6C163.8 296.1 201.6 284.7 193.4 301.3" stroke="#2D1F04" stroke-width="2.62" stroke-miterlimit="10" stroke-linecap="round" stroke-linejoin="round"/>
<path d="M191.7 294C191.7 300.1 204.2 338.2 199.9 342.5" stroke="#2D1F04" stroke-width="2.62" stroke-miterlimit="10" stroke-linecap="round" stroke-linejoin="round"/>
<path d="M104.6 316.6C111.7 320.2 138.2 323.4 145.1 319.9" stroke="#2D1F04" stroke-width="2.62" stroke-miterlimit="10" stroke-linecap="round" stroke-linejoin="round"/>
<path d="M105.3 323.7C113.8 328.6 130.6 332 138.7 332" stroke="#2D1F04" stroke-width="2.62" stroke-miterlimit="10" stroke-linecap="round" stroke-linejoin="round"/>
<path d="M102.7 38C130.8 40.7 153.6 53 172.5 73.1C241.9 146.5 266.7 307.2 231.1 338.6C229.8 339.8 200.9 326.5 199.6 326.2" stroke="#2D1F04" stroke-width="2.62" stroke-miterlimit="10" stroke-linecap="round" stroke-linejoin="round"/>
<path d="M39.5 246.6C37.9 258.9 46.9 300.5 57.9 306.6" stroke="#2D1F04" stroke-width="2.62" stroke-miterlimit="10" stroke-linecap="round" stroke-linejoin="round"/>
<path d="M122.4 41.6998C104.9 20.3998 128.3 -13.1002 153.1 11.2998" stroke="#2D1F04" stroke-width="2.62" stroke-miterlimit="10" stroke-linecap="round" stroke-linejoin="round"/>
<path d="M89.8 37.7C99.2 2.09996 68.3 -7.50004 56.2 12.1" stroke="#2D1F04" stroke-width="2.62" stroke-miterlimit="10" stroke-linecap="round" stroke-linejoin="round"/>
<path d="M154.8 327.9C162.7 331.8 170.1 335.9 174.1 344" stroke="#2D1F04" stroke-width="2.62" stroke-miterlimit="10" stroke-linecap="round" stroke-linejoin="round"/>
<path d="M72.5 40.8999C71.3 38.5999 69.2 34.6999 70.3 31.9999C70.4 31.8999 71.3 30.8999 71.5 30.9999C72.3 31.3999 72.9 32.7999 73.9 33.3999C77.8 35.4999 82.2 36.9999 86.6 37.9999C89.2 38.5999 91.8 38.7999 94.3 39.3999C94.9 39.4999 96.1 39.5999 96.1 39.5999C96.1 39.5999 92.6 36.4999 93.9 35.7999C94.1 35.6999 104.1 39.3999 105 39.7999C112.1 42.5999 120.5 45.2999 127.3 48.5999" stroke="#2D1F04" stroke-width="2.62" stroke-miterlimit="10" stroke-linecap="round" stroke-linejoin="round"/>
<path d="M123.7 209.4C122.7 208.7 126.1 208.4 127.2 208C129.7 207.1 132 206.4 134.5 205.6C138 204.5 150.7 203.1 152.4 207.5C154.5 212.7 151.7 224.4 149.4 228.8C149.3 229.1 149.2 229.3 149.1 229.6C148.2 231.6 147.2 233.5 146.3 235.4C146.3 235.4 146.4 235.9 146.1 235.7C145.4 235.2 143.4 227.5 142.7 226.2C142.4 225.5 141.5 225.1 141.1 224.5C140.2 223.2 139.8 221.5 138.8 220.3C137 218 134.3 216.4 131.9 214.7C128.9 212.9 126.8 211.5 123.7 209.4Z" fill="#2D1F04"/>
<path d="M180.2 152.2C193.6 159.5 199.6 172.3 202.8 185.2C211 217.9 214.4 240.1 192.9 266.5C175.8 287.6 127.5 231.4 107.7 230.6C77.3 229.4 6.60002 266.7 3.50002 243.8C-1.59998 217.3 18 175.5 49.5 167C50.8 171.5 51.4 175.4 51.5 178.7C52.1 192.2 48.8 203.8 44.7 206.6C45.3 207.1 65.7 213.5 66.1 212.9C67.7 210.7 127.3 189.4 146.2 230.9C152.9 222.7 155.6 207.3 148 205.7C142.4 191.3 131.8 176.1 145.4 159.4C152.9 150.2 169.9 146.6 180.2 152.2Z" fill="#2D1F04"/>
<path d="M49.7 167.5C10.6 174.6 -20.2 259.4 22.9 251.7C41 248.5 92.7 225 111.2 231.2" stroke="#2D1F04" stroke-width="2.62" stroke-miterlimit="10" stroke-linecap="round" stroke-linejoin="round"/>
<path d="M44.2 186.3C43.4 186.3 36.6 203.5 42.9 207.3C49.3 211.1 93.7 212.5 160.5 262.3C193.9 287.3 204.6 250.6 206.6 242.5C213 216.7 206.5 166.5 181.7 152.4" stroke="#2D1F04" stroke-width="2.62" stroke-miterlimit="10" stroke-linecap="round" stroke-linejoin="round"/>
<path d="M122.6 209.4C139.1 211.7 145.9 234.8 145.9 234.8C145.9 234.8 161.4 205.8 146.7 205C132 204.3 119.7 209 122.6 209.4Z" stroke="#2D1F04" stroke-width="2.62" stroke-miterlimit="10" stroke-linecap="round" stroke-linejoin="round"/>
<path d="M123.6 209.6C108.1 205.5 77.8 202.8 66.2 213.2" stroke="#2D1F04" stroke-width="2.62" stroke-miterlimit="10" stroke-linecap="round" stroke-linejoin="round"/>
<path d="M134.5 205.8C146 207.9 144 226.8 146.1 233.9" stroke="#2D1F04" stroke-width="2.62" stroke-miterlimit="10" stroke-linecap="round" stroke-linejoin="round"/>
<path d="M181.6 152.3C150 136.8 126 171.5 147.8 204.5" stroke="#2D1F04" stroke-width="2.62" stroke-miterlimit="10" stroke-linecap="round" stroke-linejoin="round"/>
<path d="M49.9 167.4C52.2 171.9 52.6 180.3 51.2 188.9C50.1 195.5 47.9 202.3 44.6 207.7" stroke="#2D1F04" stroke-width="2.62" stroke-miterlimit="10" stroke-linecap="round" stroke-linejoin="round"/>
<path d="M196.6 307.4C231.9 289.1 242.7 71.6999 110.6 40.0999" stroke="#2D1F04" stroke-width="2.62" stroke-miterlimit="10" stroke-linecap="round" stroke-linejoin="round"/>
<path d="M58.6 305.3C59.7 313.2 62.4 321.9 67.6 327.1" stroke="#2D1F04" stroke-width="2.62" stroke-miterlimit="10" stroke-linecap="round" stroke-linejoin="round"/>
<path opacity="0.23" d="M140.4 174.3C139.4 163.6 157.5 154.3 166.6 157.8C179.8 162.9 187.1 175.7 191.8 188.4C198.1 205.3 202.3 281.9 73.2 210.6C72.6 210.3 66.2 212.5 66.7 212.7C109.6 225.5 153.5 256.9 156 259.4C159.3 262.6 164.6 265 168.6 267.1C174.9 270.5 184.9 271.6 191.1 268.5C193 267.5 194.2 265.4 195.5 263.8C202.4 255.4 205.4 246.8 206.6 235.6C206.9 232.5 208.4 229.4 208.6 226.3C209 220.8 207.6 215.4 207 209.9C206.4 203.3 206.6 196.2 204.9 189.9C202.8 181.9 198.8 170.1 192.8 162.3C190.1 158.8 187 156.5 184.3 154C180.8 150.7 179.1 151 172.5 149.2C158.8 145.3 145.3 156.1 141 167.3" fill="#2D1F04"/>
<path opacity="0.23" d="M45.1 208.5C88.4 227.9 -2.99998 258.7 4.60002 222.1C4.70002 221.5 2.50002 227.3 2.40002 227.8C1.30002 233.1 2.80002 241.5 5.10002 246.4C8.50002 253.6 18.7 252.7 25.3 251.2C31.1 249.9 36.1 248.2 41.5 246.5C54.1 242.6 68.7 238.3 76.2 235.3C83.7 232.3 92 230.7 98.3 229.4C99.9 229.1 104.4 229.9 105.5 229.1C106.1 228.6 101.7 226 101.4 225.8C96.8 223.6 92.1 222.7 87.3 221C75 216.6 63.4 213.3 51.1 209" fill="#2D1F04"/>
<path opacity="0.23" d="M143.7 315.3C171.3 293.3 193.1 297.1 193.2 302.4C193.2 305 195.1 292.3 190.1 292.4C187.7 292.4 170.7 294.1 177.2 293.4C184.2 292.6 169.5 296.2 163.2 299.7C159.5 301.8 155.5 302.7 152.4 305.7C150.7 307.2 141.6 316.9 143.7 315.3Z" fill="#2D1F04"/>
<path opacity="0.23" d="M150.9 69.7C150.9 76.2 158.4 86.4 160.7 92.8C164.2 102.5 168.1 168.9 111.8 170.9C108.5 171 88.4 168.8 85.8 166.2C85.3 165.7 102.9 167.5 103.7 167.6C106.9 168 131 162 140.6 154.8C161 139.5 165.5 101.5 154.9 80.2" fill="#2D1F04"/>
<path opacity="0.23" d="M153.4 207.9C153 207 156.4 212.4 156.6 215.2C156.7 217.9 155.8 227 147.4 235.8C147.2 236 150 228.4 150.3 227.7C152.1 221.9 156.2 213.8 153.4 207.9Z" fill="#2D1F04"/>
<path d="M237.7 305.5C232 305.5 227.3 310.2 227.3 315.9V316.1C227.3 321.8 231.9 326.5 237.7 326.5C238.3 326.5 238.9 326.2 239.5 326.1C241.2 319.5 242.7 313 243.9 307.7C242.1 306.4 240 305.5 237.7 305.5Z" fill="#2D1F04"/>
<path d="M219 234.9L217.5 257.6C218.9 257.9 220.3 258 221.8 257.7C228.2 256.6 232.4 250.6 231.3 244.4V244.1C230.2 238.3 224.9 234.5 219 234.9Z" fill="#2D1F04"/>
<path d="M201 304.3L195.5 309.8C195.5 309.8 197.1 319.1 200.1 325.2C207.5 324.7 210 319 210 314.7V314.5C210.1 309.1 206.1 304.9 201 304.3Z" fill="#2D1F04"/>
<path d="M124.6 320.4C125.6 325 129.6 328.6 134.5 328.6C139.4 328.6 143.4 325.1 144.4 320.4H124.6Z" fill="#2D1F04"/>
<path d="M239.5 214.2C235.8 214.9 233 218 233 222C233 226.5 236.6 230.1 241.1 230.1H241.6C241.8 230.1 242 230 242.3 230L239.5 214.2Z" fill="#2D1F04"/>
<path d="M245.2 253.7C241.5 254.4 238.7 257.5 238.7 261.5C238.7 266 242.3 269.6 246.8 269.6H247.3C247.5 269.6 247.7 269.5 248 269.5L245.2 253.7Z" fill="#2D1F04"/>
<path d="M224.3 165.2C221.8 166.2 220.3 168.8 220.9 171.5C221.5 174.6 224.6 176.6 227.7 175.9L228 175.8C228.2 175.8 228.3 175.7 228.4 175.6L224.3 165.2Z" fill="#2D1F04"/>
<path d="M212.3 159.7C214.9 159 216.7 156.6 216.5 153.9C216.2 150.8 213.5 148.4 210.4 148.7H210C209.8 148.7 209.7 148.8 209.5 148.8L212.3 159.7Z" fill="#2D1F04"/>
<path d="M220.2 187.1C219.7 187.1 219.2 187.3 218.7 187.3L220 206.5C224.7 206.1 228.7 202.6 229.1 197.8C229.6 192.4 225.6 187.6 220.2 187.1Z" fill="#2D1F04"/>
<path d="M58.2 305.6C58.2 305.6 80.7 297 104.5 316.4" stroke="#2D1F04" stroke-width="2.62" stroke-miterlimit="10" stroke-linecap="round" stroke-linejoin="round"/>
<path opacity="0.23" d="M103.4 38.2999C176.6 60.7999 194 125.8 197.4 170C213.1 204.4 213.1 259 186.3 270.3C165.5 304.3 67.2 309.5 55.2 270.8C45.7 234.7 88.4 236.5 98.8 238.7C113.2 241.8 154 261.2 165.5 265.8C161.7 263.5 155.6 259.9 155.2 259.5C150.1 254.6 144.2 249.8 138.5 245.6C130.4 239.8 118.4 231.1 108.5 229.3C106.8 229 105 228.8 103.3 228.8C91 228.8 77.3 235.3 66.1 238.6C63.5 239.4 40.2 247.3 40.1 247.4C39.9 247.9 39.2 249.5 38.9 252.2V252.3C38.8 253.1 38.9 254 38.9 255C39 254.7 39 254.4 39.1 254C39.4 257.4 41.4 275.9 43.8 281.1C46.4 286.8 47.8 296.3 50.2 298.9C51.2 299.9 54.7 305.1 56.2 305.3C57.2 305.4 60.7 305.3 62 305C66.7 303.8 76.5 302.3 81 304.2C85.7 306.1 89.9 306.9 94.2 309.7C98.4 312.4 103 316.9 107.8 318.6C109.9 319.3 114.1 319.6 116.1 319.5C120.7 319.3 122.3 321.3 126.9 321.8C128 321.9 143.2 321.8 143.5 321.6C144.2 321.1 143.2 314.4 143.7 312.8C145.2 307.8 172.9 294.1 183.4 293.9C187.4 293.4 193 292.7 193.3 292.8C197 294.9 192.6 299.1 192.8 301.6C192.9 302.6 194.5 308.6 195.8 308.4C200.6 307.9 208.8 289.7 210.9 283.4C215.9 268.2 220.2 238.2 219.8 222.3C219.3 201.5 217.5 176.3 212.5 155.8C207 133.4 199.4 119 187.8 99.3999C180.2 86.6999 172 69.6999 160.2 60.1999C153.3 54.5999 139.3 48.0999 131.2 45.2999C128.4 44.3999 100.7 37.3999 103.4 38.2999Z" fill="#2D1F04"/>
<path opacity="0.23" d="M39 255.1C38.9 255.7 38.8 256.3 39.2 257.5C39.1 256.6 39.1 255.9 39 255.1Z" fill="#2D1F04"/>
<path opacity="0.23" d="M165.6 265.9C166.9 266.7 169.2 268 169.2 268.1C169.2 268.1 170.4 267.8 170.2 267.8C169.8 267.7 167 266.5 165.6 265.9Z" fill="#2D1F04"/>
<path opacity="0.23" d="M163.5 299.7C165.1 299 167.3 298.1 168.3 297.6C169.1 297.2 169.1 297.1 169 297.1C167.9 297.7 166.9 298.4 165.3 298.9C163.4 299.5 163.5 299.6 163.5 299.7Z" fill="#2D1F04"/>
<path opacity="0.23" d="M169 297C169.7 296.6 170.4 296.1 171.6 295.9C172.7 295.7 170 296.3 169.5 296.5C168.2 297.1 168.9 297 169 297Z" fill="#2D1F04"/>
<path opacity="0.23" d="M50.5 194.3C50.6 194.4 50.8 194.4 50.9 194.5L50.5 194.3Z" fill="#2D1F04"/>
<path opacity="0.23" d="M52.3 149.3C56.3 152.4 60.6 155.3 64.2 158.9C65.2 159.9 63.8 158.6 63.4 159.9C41.4 228.4 82.7 206.2 82.6 206.4C81 211.3 58.3 212.7 55.4 211.2C50.3 208.7 45.5 208.7 41.4 204.5C36.9 200 40.7 188.8 45.3 184.4C46.7 182 48.4 179.8 50 177.7C50 177.7 50.9 175.7 51.3 174.6C50.9 171.2 50.5 167.8 50.5 167.7C49.9 165.9 49.7 163.8 49.4 161.8C48.9 157.3 48.1 152.9 48.2 148.3C48.2 147.8 47.9 144.9 48.4 144.8C48.6 144.7 51.7 148.9 52.3 149.3Z" fill="#2D1F04"/>
<path d="M169.2 187.8L169.1 193.5" stroke="#2D1F04" stroke-width="3.87" stroke-miterlimit="10" stroke-linecap="round" stroke-linejoin="round"/>
<path d="M175.4 190.7L175.3 196.4" stroke="#2D1F04" stroke-width="3.87" stroke-miterlimit="10" stroke-linecap="round" stroke-linejoin="round"/>
<path d="M182.1 187V192.7" stroke="#2D1F04" stroke-width="3.87" stroke-miterlimit="10" stroke-linecap="round" stroke-linejoin="round"/>
<path d="M171 316.4V322.1" stroke="#2D1F04" stroke-width="3.87" stroke-miterlimit="10" stroke-linecap="round" stroke-linejoin="round"/>
<path d="M176.1 319.9V325.5" stroke="#2D1F04" stroke-width="3.87" stroke-miterlimit="10" stroke-linecap="round" stroke-linejoin="round"/>
<path d="M12.8 220.1V225.7" stroke="#2D1F04" stroke-width="3.87" stroke-miterlimit="10" stroke-linecap="round" stroke-linejoin="round"/>
<path d="M227.7 275.3C233.1 275.3 237.5 279.7 237.5 285V285.5C237.5 290.9 233.1 295.2 227.7 295.2C222.3 295.2 217.9 290.8 217.9 285.5V285C217.9 279.6 222.3 275.3 227.7 275.3Z" fill="#2D1F04"/>
<path d="M103.2 183.8C107 183.9 110.4 183.9 113.7 184.1C116.4 184.2 117.2 186 117.1 187.6C116.9 189.9 115.5 191.4 113 192.3C112.9 192.3 112.7 192.4 112.5 192.4C115.1 193.8 115.1 196.7 116.8 199.4C114.8 199.4 113 199.4 111.1 199.3C110.1 197.6 109.3 195.9 108.6 194.3C108.2 193.4 107.7 192.8 106.2 193C105.8 195 105.5 197 105.7 199.2C103.9 199.2 102.3 199.2 100.6 199.2C100 193.8 102.7 189.1 103.2 183.8ZM107.8 187C107.6 188 107.3 189 107 190.1C108.1 190 109.2 190.1 110.3 189.9C111.2 189.8 111.9 189.2 112 188.5C112.2 187.7 111.8 187.1 110.9 187C109.9 186.9 108.9 187 107.8 187Z" fill="#2D1F04"/>
<path d="M132.3 188.3C130.6 188.4 129.1 188.5 127.5 188.6C127.4 187.3 126.7 186.6 125.4 186.6C124.5 186.6 123.8 186.8 123.4 187.7C123.3 188.4 123.8 188.7 124.4 188.8C125.5 189.1 126.7 189.3 127.8 189.7C128.4 189.9 129.1 190.1 129.7 190.4C133.5 192.1 132.7 196.4 129.6 198.5C128.6 199.2 127.3 199.6 126.2 199.8C124.3 200.1 122.5 200 120.7 199.5C118.3 198.8 116.8 196.8 117.2 194.3C118.7 194.2 120.2 194.2 121.8 194.1C121.9 194.4 121.9 194.7 122 195C122.4 196.5 124 197.2 125.6 196.6C126.3 196.3 126.9 195.9 127 195.2C127.1 194.5 126.7 194.1 126.1 193.8C125.6 193.6 125 193.4 124.5 193.3C123.4 193 122.2 192.7 121.2 192.3C119.2 191.5 118.4 190 118.8 188.3C119.3 186.4 120.8 184.8 123 184.2C125.1 183.6 127.2 183.6 129.3 184.2C131.4 184.7 132.3 186 132.3 188.3Z" fill="#2D1F04"/>
<path d="M107.636 231.636V230.545C107.758 218.97 108.97 209.758 111.273 202.909C113.576 196.061 116.848 190.515 121.091 186.273C125.333 182.03 130.424 178.121 136.364 174.545C139.939 172.364 143.152 169.788 146 166.818C148.848 163.788 151.091 160.303 152.727 156.364C154.424 152.424 155.273 148.061 155.273 143.273C155.273 137.333 153.879 132.182 151.091 127.818C148.303 123.455 144.576 120.091 139.909 117.727C135.242 115.364 130.061 114.182 124.364 114.182C119.394 114.182 114.606 115.212 110 117.273C105.394 119.333 101.545 122.576 98.4545 127C95.3636 131.424 93.5758 137.212 93.0909 144.364H70.1818C70.6667 134.061 73.3333 125.242 78.1818 117.909C83.0909 110.576 89.5455 104.97 97.5455 101.091C105.606 97.2121 114.545 95.2727 124.364 95.2727C135.03 95.2727 144.303 97.3939 152.182 101.636C160.121 105.879 166.242 111.697 170.545 119.091C174.909 126.485 177.091 134.909 177.091 144.364C177.091 151.03 176.061 157.061 174 162.455C172 167.848 169.091 172.667 165.273 176.909C161.515 181.152 156.97 184.909 151.636 188.182C146.303 191.515 142.03 195.03 138.818 198.727C135.606 202.364 133.273 206.697 131.818 211.727C130.364 216.758 129.576 223.03 129.455 230.545V231.636H107.636ZM119.273 285.455C114.788 285.455 110.939 283.848 107.727 280.636C104.515 277.424 102.909 273.576 102.909 269.091C102.909 264.606 104.515 260.758 107.727 257.545C110.939 254.333 114.788 252.727 119.273 252.727C123.758 252.727 127.606 254.333 130.818 257.545C134.03 260.758 135.636 264.606 135.636 269.091C135.636 272.061 134.879 274.788 133.364 277.273C131.909 279.758 129.939 281.758 127.455 283.273C125.03 284.727 122.303 285.455 119.273 285.455Z" fill="white"/>
</g>
<defs>
<clipPath id="clip0_228_659">
<rect width="249" height="346" fill="white"/>
</clipPath>
</defs>
</svg>
