<svg width="320" height="409" viewBox="0 0 320 409" fill="none" xmlns="http://www.w3.org/2000/svg">
<g clip-path="url(#clip0_228_807)">
<path d="M30.6 20.0002C29.1 20.0002 33.1 17.5002 34 16.9002C36.4 15.3002 36 17.1002 38.7 16.1002C46.9 13.1002 60.8 10.5002 69.5 9.60019C85.6 7.90019 139.2 -0.799812 152 8.60019C163.5 17.0002 153.7 34.8002 170.7 39.5002C198.2 47.1002 248.7 33.4002 271.2 49.8002C276.2 53.5002 280.3 62.2002 281.1 67.6002C286.5 104.5 287.8 125.9 294.2 156.1C297 169.5 303.3 180.2 309.4 191.6C310.8 194.2 318.7 199.3 318.4 202.1C318.3 202.7 317.5 202.5 317.2 202.5C306.1 203.4 294.4 202.5 283.8 198.9C268.9 193.9 255 185 239.9 180.8C229 177.8 216.6 180.1 205.3 178.3C188.5 175.6 174.6 168.3 159.3 161.2C152.6 158.1 137.6 151.9 130.4 155.7C111.2 166 110 189 84.6 167.5C78.1 162 75.3 153.6 71.2 146.4C54.4 116.8 42.6 86.7002 31 54.9002C27.7 45.8002 27.4 24.1002 20.5 17.6002" fill="#2D1F04"/>
<path d="M54.5001 75.7001C76.7001 85.0001 122.2 47.7001 154.6 60.5001C161.3 63.1001 163 76.9001 171.1 79.4001C216.8 93.6001 253.7 64.1001 283.5 97.5001C284.6 98.7001 292.7 148.9 292.5 148.7C266.6 117.5 224.6 136 185.4 132.7C153.3 130 166 121.4 133.9 118.4C121 117.2 86.0001 130.9 74.3001 130.5C64.0001 130 48.4001 95.1001 47.0001 85.4001C46.5001 82.0001 47.5001 72.8001 54.5001 75.7001Z" fill="#2D1F04"/>
<path d="M259.7 337.1C258.9 343.6 264.1 352.5 269.5 358.8C275 365.1 277.8 362.1 280.4 367.9C281.3 369.9 268.5 386.5 268 388.8C267 392.8 222.4 403.9 219.1 402.6C219.1 402.6 227.4 391.7 231.7 385.4C233.1 383.3 225.6 385.4 220.9 383.4C218 382.2 211.8 376.1 213.6 375.4C215.7 374.6 197.7 374.9 194.8 375.8C191.9 376.7 189.9 376.1 181 378C172.1 379.9 142.7 377.5 124.8 370.4C124.1 370.1 109 374 98.6 389.4C95.2 394.5 74.2 374.9 73.6 375.5C71.4 377.8 74.3 352.4 71.4 352.9C70.7 353 88.6 339.2 88 338.2C85.7 334.7 102.5 353.2 99.9 354.5C97 356.1 94.6 345.2 94 342.4C92.6 335.4 91.4 351.6 91.4 344.2C91.4 343 87.5 331.8 88.2 331.3C89.7 330.2 90.8 331.1 92.6 331.1C98.6 331.1 103.5 330.7 109.5 332.3C113.4 333.4 116.6 335.9 120.8 336.3C127.2 336.9 133.6 335.3 140 335.8C146.2 336.3 139.1 324.4 144.4 323.3C145.6 323.1 151.9 325.4 152.6 324.7C153.5 323.8 159.7 327.6 161.8 327.1C165.3 326.2 173.9 327.4 177.1 328C185.2 329.6 192.5 328 200 323.5C203.3 321.5 206.2 322.2 207.5 319C208.9 315.5 209 315 210.3 311.3C212 306.7 210 299.9 209 295.2C208.4 292.2 205.7 284.2 207.2 281.1C209.9 275.8 225.9 255.4 231.6 254.1C236.8 252.9 248.9 232.8 254.2 234.2C256.8 234.9 265.9 250.1 260.1 249.2C259.8 249.1 269 263.3 272.8 282.7C276.6 302.5 272.4 312.1 265.9 328.2C263.4 334.5 263.4 334.9 259.7 337.6C258.8 338.3 254.5 341.7 254.3 342.1C254 342.8 254 343 251.4 344.6C248.8 346.1 249 345.4 247.6 347.6" fill="#2D1F04"/>
<path d="M88.1001 130.5C82.9001 132.7 88.5001 133.8 87.1001 136.3C76.7001 154.5 87.2001 175.5 95.5001 193.7C97.6001 198.4 96.7001 199.8 98.8001 204.2C99.8001 206.2 103.3 210.9 103.3 213C103.3 213.5 103.3 214.4 103.3 214.4C103.3 214.4 102.6 210.9 101.9 209.4C101.7 208.9 100.7 208 101.2 208C101.5 208 101.8 208.8 101.9 209C104.2 214.8 101.6 222.1 103.1 228.1C104.1 232.3 112.1 237.3 116.5 238.4C133.1 242.5 149.8 238.2 166.4 238.2C170.6 238.2 182.5 239.5 186 236.1C188.9 233.2 189.8 229.4 192.2 226.1C195.4 221.6 202.8 216.2 208 214.2C213.3 212.1 220 213.4 225.2 214.7C226.5 215 230.6 216.7 231.9 215.4C234.1 213.2 235.1 206.9 234.5 204.2C233 196.9 232.7 188.8 231.3 181.7C230.3 176.9 227.9 171.4 226.2 166.8C219.1 148.5 210.7 131.8 194.9 120.4C191 117.5 187.1 112.5 182.6 110.3C178.2 108.1 179.4 105 167.5 101.9C155.6 98.8001 148.9 91.9001 142.8 90.3001C141.2 89.9001 140.2 93.7001 140.1 94.0001C139.9 94.4001 134.5 87.0001 134 86.9001C128.9 85.9001 133 94.9001 128.1 92.7001C127.3 92.3001 130 82.3001 129.1 82.6001C126.2 83.6001 115 97.1001 115 97.1001C115 97.1001 116.9 97.1001 113.6 97.7001C113.2 97.8001 109.7 90.9001 109.4 94.0001C109.1 97.1001 109.6 100.7 109.6 101.6C109.6 102.3 111.4 101.6 109.6 101.9C107.8 102.2 93.7001 105.2 94.5001 107.5C94.8001 108.5 98.7001 110.1 99.8001 110.7C100.1 110.9 90.3001 120.8 87.8001 131.6" fill="#2D1F04"/>
<path opacity="0.23" d="M146.9 339.8C146 340.7 167.4 371.9 162.9 372.1C133.3 374 103 353.6 102.5 354.3C102.2 354.7 106.8 358.3 107.2 358.7C112.2 364.2 109.2 362.3 123.8 369.8C153.1 384.9 183.5 377.1 196.2 375.4C197.2 374.9 209.3 375.2 212.9 373.5C226.5 367 233.4 361.9 242.4 365.9C259.5 373.5 238.6 379 216.4 378.8C214.8 378.8 223.3 386.1 231.5 385.9C233 385.9 213.9 402.7 220.2 402.3C232 401.6 253.2 390.4 265 390.4C266.5 390.4 278.8 375.3 280.1 368C281.2 362.2 261.3 358.1 259.8 337.3C259.6 334.9 247.7 349.6 248.1 347.1C248.1 346.9 232.5 354.7 231.4 355.8C231.2 356 231 356.3 230.9 356.6C196.5 369.5 162.1 351.8 147.6 339.9C147.2 339.8 147 339.8 146.9 339.8Z" fill="#2D1F04"/>
<path d="M256.7 58.9001L255.9 58.6001L255.5 58.4001V60.0001" fill="#2D1F04"/>
<path d="M172.6 88.2001C172.6 88.1001 172.7 88.1001 172.8 88.1001C172.9 88.1001 173 88.1001 173 88.2001C173 88.3001 172.9 88.3001 172.8 88.3001C172.7 88.3001 172.6 88.2001 172.6 88.2001Z" fill="#2D1F04"/>
<path d="M238.3 379.9C231.8 385 228.3 386.4 223.5 393.5C222.7 394.7 220.1 398.8 221 400.2C222.7 402.6 228.3 400.1 230.5 399.5C238.7 397.3 247.4 395.7 255.6 393.5C257.2 393.1 265 391.6 264.6 389.6C263.6 384.5 253.8 382.2 250.5 380.4" fill="#2D1F04"/>
<path d="M72.3 355.3C65.8 350.1 56.2 347.4 48 347.5C47.2 347.5 40.3 348.2 40.2 349.1C40.1 351.4 46 354.1 47.4 355.4C53.3 361 61.1 365.1 67.6 370.2C68.7 371.1 72.4 375.1 74 374.3C76.4 373.2 73.6 366.1 73 364.8" fill="#2D1F04"/>
<path d="M158.8 303.1C158.7 302.9 158.5 302.7 158.4 302.5L158.8 303.1Z" fill="#2D1F04"/>
<path d="M103.3 231C103.1 228.5 99.5001 232.9 101.2 235.2C101.9 236.2 95.4001 244.3 101.8 240.2C106 237.5 104.3 238.9 104.1 239.2C101.1 243.2 96.3001 217.7 92.5001 220.7C85.4001 226.5 67.9001 241.8 67.1001 247.1C66.8001 249.3 83.8001 259.3 89.6001 273.9C91.6001 278.9 92.1001 276.3 91.8001 277.3C89.8001 285.2 84.2001 286.8 81.9001 302.5C81.1001 308 78.6001 314.5 78.6001 320.1C78.6001 321 78.2001 324.8 79.1001 325.5C91.5001 334.6 109.5 335.6 126.2 335.6C129.6 335.6 132.8 338.3 136.1 337.5C141 336.3 145.9 336.6 150.8 335.4C151.4 335.2 154.8 336 154.8 335.4C154.8 335.2 151 330.8 150.8 329.8C149 322.7 149.2 327 156.4 328.4C187.3 334.3 203.6 320 207.7 318.4C212.5 316.6 217.5 303.6 217.3 295.3C217.1 287.2 215.6 283.6 214 277.7C226.4 261.3 240.1 248.3 260 248.5C267.4 248.6 263.9 248.2 262.9 245.7C258 233.8 237.6 213.6 230.8 211.9C226.9 210.9 218.7 206.7 214.4 208C206.2 210.3 197.9 215.4 192.6 222.4C190.9 224.6 188.3 230.4 186 232C185 232.7 183.6 233.1 182.3 233.4C175.8 234.7 169.1 234.5 162.6 235.7C148.6 238.5 137.7 237.3 123.7 234.5C121.4 234 116.1 234.6 113.9 234.3C111.2 233.9 108.9 233.8 106.2 233.1C103.2 232.1 103.4 231.3 103.3 231Z" fill="#2D1F04"/>
<path d="M87.0001 141.8C89.0001 133.7 94.0001 124.5 101.3 123.1C109.9 121.5 117.8 115 152.3 114.9C186.7 114.8 165.1 117.2 170.3 117.3C181.1 117.5 189.9 122.4 196.6 134.6C198.8 138.7 211.6 172.5 180.5 192.5C160.6 205.3 118.5 211.3 98.3001 185.8C88.7001 173.9 83.3001 157 87.0001 141.8Z" fill="#2D1F04"/>
<path d="M124.5 139.9C117.7 136.5 111.3 153.5 111.9 158.5C113.8 175.4 135.4 180.8 149.2 170.8C165.4 159 144.8 134.6 132.9 139.3" fill="#2D1F04"/>
<path d="M84.1 145.4C80.4 152.1 84.5 161.3 85.4 168.2C85.7 170.9 126.5 155.1 111.7 119C111.1 117.4 89.7 135.5 87.3 136C83.9 136.7 85.6 142.7 84.1 145.4Z" fill="#2D1F04"/>
<path d="M151.7 115.7C139.9 171.6 199.6 167.8 199.6 167.8C199.6 167.8 204.8 146 195 132.3C194.1 131 174.3 117.8 172.8 118C161.1 120 154.2 104 151.7 115.7Z" fill="#2D1F04"/>
<path d="M248.8 82.3001C248.6 82.0001 248.3 81.7001 248.1 81.4001L248.8 82.3001Z" fill="#2D1F04"/>
<path d="M109.6 342V347.6" stroke="#2D1F04" stroke-width="3.87" stroke-miterlimit="10" stroke-linecap="round" stroke-linejoin="round"/>
<path d="M115.7 345.4V351" stroke="#2D1F04" stroke-width="3.87" stroke-miterlimit="10" stroke-linecap="round" stroke-linejoin="round"/>
<path d="M121.5 349.1V354.7" stroke="#2D1F04" stroke-width="3.87" stroke-miterlimit="10" stroke-linecap="round" stroke-linejoin="round"/>
<path d="M231.6 283.2V288.8" stroke="#2D1F04" stroke-width="3.87" stroke-miterlimit="10" stroke-linecap="round" stroke-linejoin="round"/>
<path d="M238.2 285.2V290.8" stroke="#2D1F04" stroke-width="3.87" stroke-miterlimit="10" stroke-linecap="round" stroke-linejoin="round"/>
<path d="M180.2 214.3V220" stroke="#2D1F04" stroke-width="3.87" stroke-miterlimit="10" stroke-linecap="round" stroke-linejoin="round"/>
<path d="M174.5 217.3V222.9" stroke="#2D1F04" stroke-width="3.87" stroke-miterlimit="10" stroke-linecap="round" stroke-linejoin="round"/>
<path opacity="0.23" d="M164.1 100.3C191.1 111.7 222.3 152.6 216 207.4C215.9 208.4 214.7 210.1 215.7 210.4C217.7 211.1 220.9 209.1 223.4 210.1C224.5 210.5 232.6 215 233.5 214.5C234.9 213.5 233.9 208.2 234.2 206.5C239.9 168.6 208.4 133.1 197.3 121.5C194.9 119 185.4 111.1 181.7 109" fill="#2D1F04"/>
<path opacity="0.23" d="M94.2 107C94.1 107.1 94 107.1 93.9 107.2C93.9 107.2 93.8 107.3 93.8 107.4" fill="#2D1F04"/>
<path opacity="0.23" d="M93.8 342.2C93.7 341.3 92.7 345.1 91.7 344.3C90.3 343 88.7 337.4 88.4 337.8C84.9 343.2 73.5 346.1 72.4 353.3C71.3 360.5 72.9 357.5 72.8 357.3C72.1 355.4 65.8 353 65.1 352.6C62.9 351.5 40.3 344.7 39.9 350.2C39.9 350.3 58.3 363.8 59.8 365C69.7 372.6 77.3 378.4 87.2 386C88.6 387.1 97.4 390.5 99.1 389.9C101.4 389.1 107.9 381.7 108.4 379.8C108.7 378.8 122.9 369.9 122.8 369.6C121.3 365.1 103 357.1 100.2 353.5C95.7 347.7 94.9 349.7 93.8 342.2Z" fill="#2D1F04"/>
<path opacity="0.23" d="M85.8 291.3C84.5 294.2 90.1 284.6 92 283.4C96.1 280.8 102.2 280.7 106.7 280.7C118.4 280.7 140.9 291.1 153.4 292.8C176.1 295.8 195.8 287.4 193.5 284C191.5 281.2 157.6 289.7 144.9 285.2C133.6 281.3 115.8 280.6 104.1 278.6C101.3 278.1 94.5 278.1 92.2 273.8C91.6 272.7 89.5 281.7 89.1 282.4C86.3 286.8 88.1 286.4 85.8 291.3Z" fill="#2D1F04"/>
<path d="M98.7 111.8C70.6 140.4 88 180.6 98.7 201.9C99.6 203.8 101 205.9 101.3 208C101.5 209.1 100.8 210.8 101.3 211.8C101.5 212.2 102.4 210.8 102.5 211.2C102.7 213.2 102.5 215.4 102.3 217.3C102.2 218 101.4 220 101.9 219.5C102.1 219.3 102.6 217.7 103.3 217.9C103.7 218 103.3 228.5 103.1 229.6" stroke="#2D1F04" stroke-width="2.62" stroke-miterlimit="10" stroke-linecap="round" stroke-linejoin="round"/>
<path d="M88.3 331.4C88.2 338.3 91.8 345.3 91.8 345.3C91.8 345.3 93.3 340.8 94 342C94.8 343.4 98.1 355.7 100.3 355C100.4 355 100.3 351.7 100.5 351.9C101.3 352.3 105.7 358.2 107.2 359.3C112.6 363.4 119 366.8 125.2 369.5C148.3 379.6 174.7 380.2 212.1 374.3" stroke="#2D1F04" stroke-width="2.62" stroke-miterlimit="10" stroke-linecap="round" stroke-linejoin="round"/>
<path d="M88.6001 338.1C82.8001 342.1 74.3001 348.7 71.7001 355.7" stroke="#2D1F04" stroke-width="2.62" stroke-miterlimit="10" stroke-linecap="round" stroke-linejoin="round"/>
<path d="M125.1 369.5C115.8 370.6 103.5 384.9 100.5 388.7" stroke="#2D1F04" stroke-width="2.62" stroke-miterlimit="10" stroke-linecap="round" stroke-linejoin="round"/>
<path d="M71.2 355C61.7 347.3 43.8 347.9 42.4 348.2" stroke="#2D1F04" stroke-width="2.62" stroke-miterlimit="10" stroke-linecap="round" stroke-linejoin="round"/>
<path d="M71.7001 374C75.7001 377.1 80.9001 380.5 84.9001 383.4C87.4001 385.2 98.5001 392.4 100.4 388.7" stroke="#2D1F04" stroke-width="2.62" stroke-miterlimit="10" stroke-linecap="round" stroke-linejoin="round"/>
<path d="M212.3 368.9C217.8 387.4 222.9 383.3 231.6 385.8" stroke="#2D1F04" stroke-width="2.62" stroke-miterlimit="10" stroke-linecap="round" stroke-linejoin="round"/>
<path d="M259.7 336.5C259.5 360.7 282.3 364.5 280.5 368.1" stroke="#2D1F04" stroke-width="2.62" stroke-miterlimit="10" stroke-linecap="round" stroke-linejoin="round"/>
<path d="M238.1 380.4C232.6 384.5 220.8 396.7 219.3 403.1" stroke="#2D1F04" stroke-width="2.62" stroke-miterlimit="10" stroke-linecap="round" stroke-linejoin="round"/>
<path d="M219.8 403.4C220.8 403.8 253.8 393.3 265.7 390.1C272.6 388.3 279.9 369.2 280.5 367.8" stroke="#2D1F04" stroke-width="2.62" stroke-miterlimit="10" stroke-linecap="round" stroke-linejoin="round"/>
<path d="M157.5 98.1001C215.3 117.3 234.6 173.4 234.6 208.6" stroke="#2D1F04" stroke-width="2.62" stroke-miterlimit="10" stroke-linecap="round" stroke-linejoin="round"/>
<path d="M72 356.1C74 361.9 74.9 367.6 73.8 373.6" stroke="#2D1F04" stroke-width="2.62" stroke-miterlimit="10" stroke-linecap="round" stroke-linejoin="round"/>
<path d="M238.5 380.2C251.1 377.8 259.6 383.8 265.4 389.7" stroke="#2D1F04" stroke-width="2.62" stroke-miterlimit="10" stroke-linecap="round" stroke-linejoin="round"/>
<path d="M39.5 349.9C42.6 353.7 75.4 376.1 77 377.8L39.5 349.9Z" fill="#2D1F04"/>
<path d="M39.5 349.9C42.6 353.7 75.4 376.1 77 377.8" stroke="#2D1F04" stroke-width="2.62" stroke-miterlimit="10" stroke-linejoin="round"/>
<path d="M43 348L42.4 347.9L40.8 348.4L39.8 349L39.5 349.9" fill="#2D1F04"/>
<path d="M43 348L42.4 347.9L40.8 348.4L39.8 349L39.5 349.9" stroke="#2D1F04" stroke-width="2.62" stroke-miterlimit="10" stroke-linejoin="round"/>
<path d="M39.9 350.1C46 349.9 67.6 356.5 73 362.3" stroke="#2D1F04" stroke-width="2.62" stroke-miterlimit="10" stroke-linecap="round" stroke-linejoin="round"/>
<path d="M220 402.5C224.9 395.7 246.6 382.9 250 381.3" stroke="#2D1F04" stroke-width="2.62" stroke-miterlimit="10" stroke-linecap="round" stroke-linejoin="round"/>
<path d="M103.5 231.3C142.3 242.5 181.8 234.5 186.1 232.3" stroke="#2D1F04" stroke-width="2.62" stroke-miterlimit="10" stroke-linecap="round" stroke-linejoin="round"/>
<path d="M103.5 231.4C103.9 228.9 100.8 233.4 100.2 234.7C99.3001 236.6 101.2 238.2 101.2 239.2C101.1 240.3 99.3001 242.9 98.8001 244.2C95.3001 253.6 86.9001 265.7 92.1001 275.8" stroke="#2D1F04" stroke-width="2.62" stroke-miterlimit="10" stroke-linecap="round" stroke-linejoin="round"/>
<path d="M79.2001 326.7C95.8001 336.5 119.3 337 143.5 337" stroke="#2D1F04" stroke-width="2.62" stroke-miterlimit="10" stroke-linecap="round" stroke-linejoin="round"/>
<path d="M78.6001 326.3C76.8001 315 81.0001 300.6 85.2001 290.1C86.9001 285.7 90.1001 281.5 91.5001 277.1" stroke="#2D1F04" stroke-width="2.62" stroke-miterlimit="10" stroke-linecap="round" stroke-linejoin="round"/>
<path d="M234.4 207.4C234.5 208.5 234.3 209.9 234.2 211.3" stroke="#2D1F04" stroke-width="2.62" stroke-miterlimit="10" stroke-linecap="round" stroke-linejoin="round"/>
<path d="M234.6 209.2C234.8 210.5 234.6 211.8 234.8 213.1" stroke="#2D1F04" stroke-width="2.62" stroke-miterlimit="10" stroke-linecap="round" stroke-linejoin="round"/>
<path d="M147.8 113.2C182.6 112.9 195.8 131.6 195.8 131.6" stroke="#2D1F04" stroke-width="7.6" stroke-miterlimit="10" stroke-linecap="round" stroke-linejoin="round"/>
<path d="M119.1 116.4C94.1001 120.2 82.1001 141.2 82.1001 141.2" stroke="#2D1F04" stroke-width="7.6" stroke-miterlimit="10" stroke-linecap="round" stroke-linejoin="round"/>
<path d="M119.6 140.3C119.5 138 123.7 135.9 128.9 135.6C134.1 135.3 138.5 137 138.6 139.2C138.7 141.4 134.5 143.6 129.3 143.9C124.1 144.2 119.7 142.6 119.6 140.3Z" fill="#2D1F04"/>
<path d="M168.8 243.8C157.8 247.7 115 247.4 101.6 238.5" stroke="#2D1F04" stroke-width="2.62" stroke-miterlimit="10" stroke-linecap="round" stroke-linejoin="round"/>
<path d="M109.5 233.3C109 234.9 108.4 236.1 108.4 237.9" stroke="#2D1F04" stroke-width="2.62" stroke-miterlimit="10" stroke-linecap="round" stroke-linejoin="round"/>
<path d="M119.4 235.3C118.7 236.8 118.5 238.7 118.5 240.4" stroke="#2D1F04" stroke-width="2.62" stroke-miterlimit="10" stroke-linecap="round" stroke-linejoin="round"/>
<path d="M131.3 236.8L130.6 240.8" stroke="#2D1F04" stroke-width="2.62" stroke-miterlimit="10" stroke-linecap="round" stroke-linejoin="round"/>
<path d="M139.6 237.9V238.6V239V239.7V240.1V240.5V241" stroke="#2D1F04" stroke-width="2.62" stroke-miterlimit="10" stroke-linecap="round" stroke-linejoin="round"/>
<path d="M234.3 249.2L236.4 252.4" stroke="#2D1F04" stroke-width="2.62" stroke-miterlimit="10" stroke-linecap="round" stroke-linejoin="round"/>
<path d="M135 238.1V238.6V239V239.4V239.9V240.3" stroke="#2D1F04" stroke-width="2.62" stroke-miterlimit="10" stroke-linecap="round" stroke-linejoin="round"/>
<path d="M167.8 236.8V237.2V237.7V238.6V239" stroke="#2D1F04" stroke-width="2.62" stroke-miterlimit="10" stroke-linecap="round" stroke-linejoin="round"/>
<path d="M171.1 236.8V237.5V238.1V238.6" stroke="#2D1F04" stroke-width="2.62" stroke-miterlimit="10" stroke-linecap="round" stroke-linejoin="round"/>
<path d="M174.4 159.5C174.1 159.5 173.8 159.4 173.5 159.4L174.4 159.5Z" fill="#2D1F04"/>
<path d="M99.7 110.1C98.6 109 93.3 108.8 93.3 108.8C93.3 104.6 108.9 101.8 109.4 101.1C109.7 100.6 106.3 97.3001 109.7 92.7001C110.2 92.1001 113.4 99.3001 114.1 97.6001C118.7 87.2001 130.6 81.4001 130.4 81.7001C127.8 84.0001 127.9 89.2001 127.9 93.4001C127.9 93.5001 133.2 85.3001 133.7 86.3001C133.9 86.6001 137.8 93.3001 139.5 93.7001C140.8 94.0001 141 89.2001 142.1 89.6001C143.7 90.1001 144 92.2001 157.6 98.1001" stroke="#2D1F04" stroke-width="2.62" stroke-miterlimit="10" stroke-linecap="round" stroke-linejoin="round"/>
<path d="M191.9 326C189.5 325.6 184.7 326.9 182.2 327.4C176.7 328.6 170.4 329.6 165.1 327.8C159 325.7 152.6 324.4 146.4 322.6C145.9 322.4 145.2 321.2 144.7 321.6C144.7 321.6 143 323.1 143 323.5C143 324.8 142.5 326.3 142.4 327.6C142.3 329 141.1 331.9 142 333.1C143 334.5 143.7 336.8 145 337.8C152.3 343.4 160.1 348.5 167.9 352.8C168.3 353 169.9 350.3 169.9 350.3C171.2 348 172.1 345.4 173.2 343.1C174.6 340.1 184.5 326.5 188.2 327.2" fill="#2D1F04"/>
<path d="M68.8 250.1C67.8 249.3 65 256.8 64.2 258.2C61.2 263.6 57 268.4 54.9 274.4C53 280 48.5 287.3 48.6 293.3C48.7 301.5 54 312.7 59.2 318.8C60.9 320.8 66.2 325.3 68.7 326.2C73.3 327.9 75.2 328.7 79.9 330.3C87.1 332.8 99.8 332.5 106.9 330.7C114.8 328.7 124.4 325.3 131 320.8C136.1 317.3 139.7 313.1 143.3 307.7C146.5 302.9 138.3 298.3 134.2 296.9C128 294.8 119 298.5 113.2 300.2C107.8 301.7 102.3 300.5 97.3 298.7C89.1 295.7 87.7 284.7 88 277.6C88.1 275.3 90.5 272.6 89.7 270.5C83.6 256.1 71.2 252.1 68.8 250.1Z" fill="#2D1F04"/>
<path opacity="0.23" d="M60.0001 306.7C80.8001 335.7 141.2 301.4 141.8 283.8C141.8 282.6 146.7 294 146.7 294C146.7 294 145.4 302 145.3 302.4C144.9 303.9 144.1 305.2 143.4 306.6C141.7 309.8 139 312.9 136.5 315.4C134.1 317.7 133.4 317.7 131.1 320.1C128 323.3 122.4 327.3 118.4 328.9C114.1 330.6 106 331.6 101.1 331.9C73.1001 333.9 47.1001 320.2 49.8001 288.6C50.6001 279.2 60.9001 261.8 67.7001 254.3C70.1001 251.6 40.1001 279 60.0001 306.7Z" fill="#2D1F04"/>
<path d="M131.4 321.2C130.8 320.3 133 319.8 133.7 319.1C134.5 318.3 136.3 316.3 137.5 316.6C137.9 316.7 137.6 316.7 137.9 317C138.4 317.5 145.3 322.4 145.3 322.4C145.6 323.5 142.9 327.5 142.6 328.9C142.5 329.1 141.7 333.2 141.4 333.1C136.7 331.4 133.7 324.8 131.4 321.2Z" fill="#2D1F04"/>
<path opacity="0.23" d="M202.1 212.9C201.4 213.2 197.2 215.2 197.6 216C198 216.8 225.5 226.8 242 252.4L244.2 251.5C244.2 251.5 266.4 280.2 254.4 313.1C249.4 326.9 221.9 361.6 171.3 328.3C162.4 330.1 146.3 325 136.5 317.1C135.7 316.5 131.6 321.7 131.6 321.7C132.9 322.1 146.9 349.5 183.6 359.1C187.4 360.1 194.9 360.7 198.9 361C209.6 361.7 204.7 363.3 214.9 360.2C218.6 359.1 231.4 356.6 234.5 354.7C240.8 350.9 250.2 347.2 258.2 338C261.7 334 268.4 325.3 269.2 320.4C271.1 308.3 273.2 294.8 271.9 282.9C269.8 262.8 265.5 263.2 260.2 248.8C262.4 248.2 262.8 244.1 262.8 244.1C262.8 244.1 252 229.3 242.6 218.8C233.9 209.2 218.8 205.2 202.1 212.9Z" fill="#2D1F04"/>
<path d="M133.9 297.1C134.7 296.9 136.4 297.6 137.1 297.8C138.7 298.3 140.3 299 141.6 299.9C142.4 300.5 144.5 304.6 145.4 304.7C145.7 304.7 146.4 298.9 146.5 298.4C147 294.4 146.1 283.9 141.7 282.2C141.1 282 141.2 289.6 140.6 291.2C139.9 293 138.1 294.6 136.5 295.6C136 295.9 135.3 296.2 134.9 296.6C134.4 296.7 133.5 297.1 133.9 297.1Z" fill="#2D1F04"/>
<path opacity="0.23" d="M90.1 338.2C108.3 338.3 131.5 321.5 130.9 321.5C130.1 321.5 121.5 327 120.3 327.8C116.7 330.4 108.9 332 104.5 332.4C102 332.6 90.9 331.9 89.4 333C88.9 333.4 90.7 342.8 91.6 343.5C92.7 344.3 89.3 338.1 90.1 338.2Z" fill="#2D1F04"/>
<path d="M147.2 341C147.3 339.9 149 345.9 149.3 346.6C150.7 350.1 152.5 353.3 153.8 356.8C155 359.9 156.4 362.8 157.7 365.8C158.9 368.7 160.2 371.5 161.7 374.2C164.6 379.7 167.6 385.4 170 391.1C170.2 391.7 172.3 396.4 172.6 396.4C173.7 396.6 177.7 395.8 178.7 395.1C179.7 394.3 184.1 391 184.6 389.8C185.1 388.5 179.7 378 179 376.2C175.9 369 173.1 359.7 167.6 354.2C165.5 352.1 162 351.6 159.7 349.5C157.6 347.8 146.9 343.8 147.2 341Z" fill="#2D1F04"/>
<path d="M137.2 315.9C137.8 311.3 144.1 308.6 145.5 303.8C145.6 303.6 145.9 302.1 146.3 302.1C147.1 302 148.4 306.6 148.7 307.2C149.4 308.7 157 324.6 156.8 324.8C156.4 325.5 153.1 324.4 152.5 324.3C148.8 324 136.6 319.8 137.2 315.9Z" fill="#2D1F04"/>
<path d="M2.6001 11.9C2.6001 11.9 11.8001 -0.299978 13.5001 3.10002C15.2001 6.50002 16.6001 11.1 16.6001 11.1L20.0001 4.60002L140.2 286.4C140.2 286.4 133.9 306.8 127 294.2C115.4 273 2.6001 11.9 2.6001 11.9Z" fill="#2D1F04"/>
<path d="M93.2 220.1C90.7 222 88.3 224 85.9 226.2C77.9 233.5 71.2 241.8 68.2 245.8C66.4 248.2 66.5 250 70.2 251.8" stroke="#2D1F04" stroke-width="2.62" stroke-miterlimit="10" stroke-linecap="round" stroke-linejoin="round"/>
<path d="M90.2 269.4C77.6 299.7 111.6 310 126.3 295.1" stroke="#2D1F04" stroke-width="2.62" stroke-miterlimit="10" stroke-linecap="round" stroke-linejoin="round"/>
<path d="M119.4 299.9C128.9 296.7 136.3 294.9 143.8 303.7" stroke="#2D1F04" stroke-width="2.62" stroke-miterlimit="10" stroke-linecap="round" stroke-linejoin="round"/>
<path d="M137.6 281.5C143 283.3 140.5 301.3 126.5 295.4" stroke="#2D1F04" stroke-width="2.62" stroke-miterlimit="10" stroke-linecap="round" stroke-linejoin="round"/>
<path d="M140.8 283C146.3 287.4 145 294.2 142.1 300.2" stroke="#2D1F04" stroke-width="2.62" stroke-miterlimit="10" stroke-linecap="round" stroke-linejoin="round"/>
<path d="M136.7 316.6C163.8 337.6 235.1 333.2 213.7 277.3" stroke="#2D1F04" stroke-width="2.62" stroke-miterlimit="10" stroke-linecap="round" stroke-linejoin="round"/>
<path d="M131.1 321.4C132.5 323.1 144.8 347.5 178.9 357.7C216 368.7 246.9 351.8 260.7 335.2C278.6 313.7 276.4 269.9 259.8 248.2" stroke="#2D1F04" stroke-width="2.62" stroke-miterlimit="10" stroke-linecap="round" stroke-linejoin="round"/>
<path d="M144.9 321.9C142.9 322.9 140.4 335 142.5 336.1" stroke="#2D1F04" stroke-width="2.62" stroke-miterlimit="10" stroke-linecap="round" stroke-linejoin="round"/>
<path d="M147 340.6C147 340.6 149.7 346.9 153.3 355.4C160.8 373 172.4 399.9 172.8 398.8C175 391.6 186.1 389.9 186.8 392.2C183.5 384.7 168.7 354 168.7 354" stroke="#2D1F04" stroke-width="2.62" stroke-miterlimit="10" stroke-linecap="round" stroke-linejoin="round"/>
<path d="M146.3 302.3C146.2 302.2 150.5 310.9 153.8 317.7C155.9 321.9 157.6 325.4 157.6 325.4" stroke="#2D1F04" stroke-width="2.62" stroke-miterlimit="10" stroke-linecap="round" stroke-linejoin="round"/>
<path d="M27.1001 20.2001C50.1001 9.30014 136.7 -0.499862 147.7 6.30014C169.8 20.0001 148.4 39.1001 184.1 41.8001C200.3 43.1001 262.3 29.4001 277.9 57.8001C288.2 76.6001 285.4 177.2 318 201.8C276.2 206.4 262.1 180.7 232.4 181.1" stroke="#2D1F04" stroke-width="2.62" stroke-miterlimit="10" stroke-linecap="round" stroke-linejoin="round"/>
<path d="M2.70004 11.5C2.40004 9.30005 10.6 2.30005 13 2.30005C15.3 2.30005 14.6 11.6 16.3 11.9C18.6 12.3 20.2 3.40005 20.2 3.40005L139.5 287" stroke="#2D1F04" stroke-width="2.62" stroke-miterlimit="10" stroke-linecap="round" stroke-linejoin="round"/>
<path d="M2.30005 12.2002L126 295.1" stroke="#2D1F04" stroke-width="2.62" stroke-miterlimit="10" stroke-linecap="round" stroke-linejoin="round"/>
<path d="M260.5 248.1C261.9 247.9 263.7 246.9 261.9 243C255.5 228.4 227.9 195.7 200.2 213.7C186.9 222.3 186.1 236.2 190.2 249.1C193.8 260.4 201.1 270.9 206.9 276C210.5 279.2 211.5 279.4 213.2 277.6" stroke="#2D1F04" stroke-width="2.62" stroke-miterlimit="10" stroke-linecap="round" stroke-linejoin="round"/>
<path d="M68.8001 251.8C65.9001 253.3 28.8001 300.2 67.1001 325.7C84.7001 337.4 122 335.6 141.8 309.7C148.6 300.7 149.7 281.7 138.8 281.7" stroke="#2D1F04" stroke-width="2.62" stroke-miterlimit="10" stroke-linecap="round" stroke-linejoin="round"/>
<path d="M260.7 241.4C237.1 239.9 220.3 259.1 220.3 259.1" stroke="#2D1F04" stroke-width="2.62" stroke-miterlimit="10" stroke-linecap="round" stroke-linejoin="round"/>
<path d="M120.7 146.1C123.7 151.7 137 151.3 140.8 144.9" stroke="#2D1F04" stroke-width="3.05" stroke-miterlimit="10" stroke-linecap="round" stroke-linejoin="round"/>
<path d="M128.5 143.6C128.5 143.6 127.5 147.5 129.7 149.4" stroke="#2D1F04" stroke-width="3.05" stroke-miterlimit="10" stroke-linecap="round" stroke-linejoin="round"/>
<path d="M158 136.4C162.9 132.8 175 132.2 182.1 136.9" stroke="#2D1F04" stroke-width="2.6" stroke-miterlimit="10" stroke-linecap="round" stroke-linejoin="round"/>
<path d="M90.6001 144.1C96.9001 136.8 107.7 139.3 109.5 140.2" stroke="#2D1F04" stroke-width="2.6" stroke-miterlimit="10" stroke-linecap="round" stroke-linejoin="round"/>
<path opacity="0.23" d="M136.3 296.7C136.1 296.6 136 296.5 135.8 296.5L136.3 296.7Z" fill="#2D1F04"/>
<path opacity="0.23" d="M134.2 297C137.6 294.4 139.6 292 140.2 287.9C140.4 286.7 139.6 283.1 140.2 282.3C140.4 282.1 141.9 282.7 142.1 282.8C146.6 285 147.7 295.7 145.9 299.8C145.5 300.7 145.3 303.5 144.3 303.9C142.2 304.7 139.1 300.1 137.7 299.2C136.6 298.4 134 297.2 134.2 297Z" fill="#2D1F04"/>
<path d="M230.9 408.8C230.9 408.7 230.8 408.6 230.8 408.5L230.9 408.8Z" fill="#2D1F04"/>
<path d="M225.1 386.3C225 386.2 225 386.2 224.9 386.1L225.1 386.3Z" fill="#2D1F04"/>
<path opacity="0.23" d="M16.4001 12.2001L12.5001 2.1001L10.1001 4.4001L135.7 293C137.8 296.9 140.9 287 140.9 287L26.9001 19.8001L20.5001 4.7001L16.4001 12.2001Z" fill="#2D1F04"/>
<path opacity="0.23" d="M137.1 316C135.2 320.9 151.9 324 151.9 324L157.6 325.5L146.4 303.7C146.5 303.7 138.3 312.9 137.1 316Z" fill="#2D1F04"/>
<path opacity="0.23" d="M147.9 343.2L161.5 357.3L178 394.5L185 390.6L167.9 354.4L147.9 343.2Z" fill="#2D1F04"/>
<path opacity="0.2662" d="M8.80006 6.50002C4.80006 12.1 35.5001 90.9 46.8001 87C49.7001 86.1 13.2001 0.400021 8.80006 6.50002Z" stroke="#2D1F04" stroke-width="1.14" stroke-miterlimit="10" stroke-linecap="round" stroke-linejoin="round"/>
<path opacity="0.2662" d="M79.4001 158.3C75.4001 163.9 101.6 238.7 112.9 234.8C115.8 233.8 83.8001 152.2 79.4001 158.3Z" stroke="#2D1F04" stroke-width="1.14" stroke-miterlimit="10" stroke-linecap="round" stroke-linejoin="round"/>
<path opacity="0.2662" d="M67.2 128.2C61.2 136.5 108.7 270.3 125.6 264.5C129.9 263 73.8 119.1 67.2 128.2Z" stroke="#2D1F04" stroke-width="1.14" stroke-miterlimit="10" stroke-linecap="round" stroke-linejoin="round"/>
<path opacity="0.2662" d="M91.4 181.5C86.8 179.8 99.4 218.7 109.2 223.8C113.3 225.9 95.9 183.2 91.4 181.5Z" stroke="#2D1F04" stroke-width="1.14" stroke-miterlimit="10" stroke-linecap="round" stroke-linejoin="round"/>
<path opacity="0.2662" d="M96.2 187.3C92.6 184 99.4 213.9 109.3 218.9C113.4 221 99.9 190.8 96.2 187.3Z" stroke="#2D1F04" stroke-width="1.14" stroke-miterlimit="10" stroke-linecap="round" stroke-linejoin="round"/>
<path opacity="0.2662" d="M161.7 354.8C157.1 353.1 169.7 392 179.5 397.1C183.5 399.2 166.2 356.6 161.7 354.8Z" stroke="#2D1F04" stroke-width="1.14" stroke-miterlimit="10" stroke-linecap="round" stroke-linejoin="round"/>
<path opacity="0.2662" d="M15.0001 24.0001C12.6001 27.4001 31.9001 77.0001 38.8001 74.6001C40.5001 74.0001 17.6001 20.3001 15.0001 24.0001Z" stroke="#2D1F04" stroke-width="1.14" stroke-miterlimit="10" stroke-linecap="round" stroke-linejoin="round"/>
<path opacity="0.2662" d="M17.3 31.2001C15.9 33.3001 27.1 64.6001 31.1 63.1001C32.1 62.8001 18.9 28.9001 17.3 31.2001Z" stroke="#2D1F04" stroke-width="1.14" stroke-miterlimit="10" stroke-linecap="round" stroke-linejoin="round"/>
<path opacity="0.2662" d="M75.2 135.4C75.2 135.4 62 97.2001 54.6 99.0001C41.5 102.2 113.9 280.1 131.7 287.3C142.1 291.5 131.7 268.2 131.7 268.2" stroke="#2D1F04" stroke-width="1.14" stroke-miterlimit="10" stroke-linecap="round" stroke-linejoin="round"/>
<path d="M172.3 400.2C167 399.5 184 388.4 187.5 392.7C188.2 393.5 180.3 401.2 172.3 400.2Z" fill="#2D1F04"/>
<path opacity="0.0566" d="M146.7 8.10002C153.8 7.30002 161.7 91.5 169.9 102.5C176 110.7 216.5 126.8 232.1 181.9C265.4 182.2 268.4 205.9 317.2 201.5C289.1 183.5 287.7 84.8 278.7 60.2C270.6 38 228.6 41.3 209.2 41.3C194.6 41.3 195.3 44.6 179.3 41.9C168.1 40 169.7 42.9 163.4 33.5C161.8 31 153.3 2.10002 146.7 8.10002Z" fill="#2D1F04"/>
<path d="M142.636 254.636V253.545C142.758 241.97 143.97 232.758 146.273 225.909C148.576 219.061 151.848 213.515 156.091 209.273C160.333 205.03 165.424 201.121 171.364 197.545C174.939 195.364 178.152 192.788 181 189.818C183.848 186.788 186.091 183.303 187.727 179.364C189.424 175.424 190.273 171.061 190.273 166.273C190.273 160.333 188.879 155.182 186.091 150.818C183.303 146.455 179.576 143.091 174.909 140.727C170.242 138.364 165.061 137.182 159.364 137.182C154.394 137.182 149.606 138.212 145 140.273C140.394 142.333 136.545 145.576 133.455 150C130.364 154.424 128.576 160.212 128.091 167.364H105.182C105.667 157.061 108.333 148.242 113.182 140.909C118.091 133.576 124.545 127.97 132.545 124.091C140.606 120.212 149.545 118.273 159.364 118.273C170.03 118.273 179.303 120.394 187.182 124.636C195.121 128.879 201.242 134.697 205.545 142.091C209.909 149.485 212.091 157.909 212.091 167.364C212.091 174.03 211.061 180.061 209 185.455C207 190.848 204.091 195.667 200.273 199.909C196.515 204.152 191.97 207.909 186.636 211.182C181.303 214.515 177.03 218.03 173.818 221.727C170.606 225.364 168.273 229.697 166.818 234.727C165.364 239.758 164.576 246.03 164.455 253.545V254.636H142.636ZM154.273 308.455C149.788 308.455 145.939 306.848 142.727 303.636C139.515 300.424 137.909 296.576 137.909 292.091C137.909 287.606 139.515 283.758 142.727 280.545C145.939 277.333 149.788 275.727 154.273 275.727C158.758 275.727 162.606 277.333 165.818 280.545C169.03 283.758 170.636 287.606 170.636 292.091C170.636 295.061 169.879 297.788 168.364 300.273C166.909 302.758 164.939 304.758 162.455 306.273C160.03 307.727 157.303 308.455 154.273 308.455Z" fill="white"/>
</g>
<defs>
<clipPath id="clip0_228_807">
<rect width="320" height="409" fill="white"/>
</clipPath>
</defs>
</svg>
