<svg width="314" height="367" viewBox="0 0 314 367" fill="none" xmlns="http://www.w3.org/2000/svg">
<g clip-path="url(#clip0_228_940)">
<path d="M275 268.5C222 258 169.2 246.9 116.4 236C113 201.5 110.7 167 108.6 132.4C164.6 139.6 220.6 147.3 276.7 154.2C276.4 192.3 275.2 230.4 275 268.5Z" fill="#2D1F04"/>
<path d="M163.6 173.4C163.7 168.7 167.7 165.4 172.2 165.9C174.7 166.2 176.4 167.5 177.7 169C177 169.6 176.7 169.9 176.1 170.5C175.2 169.4 173.9 168.5 172.1 168.3C168.8 167.9 166.1 170.3 166 173.7C165.9 177.2 168.4 180.3 171.6 180.8C173.7 181.1 174.9 180.4 175.7 179.7C176.4 179.1 176.8 178.2 177 176.9C174.9 176.6 173.8 176.5 171.7 176.1C171.7 175.2 171.7 174.7 171.8 173.7C174.8 174.1 176.3 174.3 179.2 174.7C179.3 175.1 179.3 175.6 179.3 176.2C179.2 178 178.7 180.1 177.2 181.5C175.7 182.9 173.9 183.5 171.5 183.1C167.2 182.6 163.5 178.1 163.6 173.4Z" fill="#2D1F04"/>
<path d="M185.5 173.9C182.7 173.5 180.2 175.5 180.1 178.8C180 182.1 182.2 184.8 185 185.2C187.8 185.6 190.2 183.5 190.4 180.3C190.6 177 188.4 174.3 185.5 173.9ZM185.1 183C183.6 182.8 182.3 181.2 182.4 179.1C182.5 177.1 183.9 175.9 185.5 176.1C187 176.3 188.3 177.9 188.2 179.9C188.1 182 186.6 183.3 185.1 183Z" fill="#2D1F04"/>
<path d="M196.7 175.5C193.9 175.1 191.5 177.2 191.3 180.5C191.1 183.8 193.3 186.6 196.1 187C198.9 187.4 201.3 185.3 201.5 182C201.7 178.6 199.5 175.9 196.7 175.5ZM196.2 184.7C194.7 184.5 193.4 182.8 193.5 180.8C193.6 178.7 195 177.5 196.6 177.7C198.1 177.9 199.4 179.5 199.3 181.6C199.1 183.7 197.7 184.9 196.2 184.7Z" fill="#2D1F04"/>
<path d="M210.3 177.7C210.3 178.1 210.3 178.3 210.2 178.6C210.2 178.6 210.2 178.6 210.1 178.6C209.6 177.8 208.7 177.1 207.5 176.9C205 176.6 202.5 178.7 202.3 182C202.1 185.2 204.3 188.1 206.8 188.5C208 188.7 209 188.2 209.5 187.6C209.5 187.6 209.5 187.6 209.6 187.6C209.6 187.9 209.6 188.1 209.5 188.5C209.4 190.7 208.3 191.8 206.6 191.5C205.2 191.3 204.5 190 204.2 189C203.4 189.3 203 189.4 202.2 189.6C202.7 191.2 204 193.4 206.5 193.8C209.1 194.2 211.4 192.8 211.7 188.4C212 184.2 212.1 182 212.3 177.9C211.6 177.9 211.1 177.8 210.3 177.7ZM207.2 186.3C205.7 186.1 204.5 184.4 204.6 182.4C204.7 180.4 206.1 179.1 207.6 179.3C209.1 179.5 210.2 181.2 210.1 183.2C210 185.2 208.7 186.5 207.2 186.3Z" fill="#2D1F04"/>
<path d="M214.3 172.1C215.2 172.2 215.6 172.3 216.5 172.4C216.1 179.1 215.9 182.6 215.5 189.6C214.6 189.5 214.2 189.4 213.3 189.3C213.7 182.3 213.9 178.8 214.3 172.1Z" fill="#2D1F04"/>
<path d="M221.7 188.5C220.6 188.3 219.8 187.6 219.3 186.3C222.1 185.4 223.5 184.9 226.3 184C226.2 183.7 226.2 183.6 226.1 183.3C225.8 181.9 224.6 179.3 222 178.9C219.4 178.5 217.1 180.6 216.8 184.1C216.6 187.4 218.6 190.4 221.5 190.8C223.8 191.2 225.3 189.7 225.9 188.8C225.2 188.1 224.9 187.8 224.2 187.2C223.7 188.1 222.9 188.7 221.7 188.5ZM222 181.2C222.9 181.3 223.6 181.9 223.8 182.7C221.9 183.3 221 183.6 219.1 184.2C219.2 182 220.9 181.1 222 181.2Z" fill="#2D1F04"/>
<path d="M236.6 217.7C208 212.4 179.5 207 150.9 201.7C148.3 201.2 146.1 198.6 146 195.9C146 195.6 146 195.4 146 195.1C146 192.4 148.2 190.5 150.9 191C179.7 195.9 208.4 200.8 237.2 205.6C239.9 206 241.9 209 241.8 212.1C241.8 212.4 241.8 212.6 241.8 213C241.6 216 239.3 218.1 236.6 217.7Z" stroke="#2D1F04" stroke-width="0.5386" stroke-miterlimit="10"/>
<path d="M203.1 228.6C194.9 226.9 190.9 226.1 182.8 224.4C180.9 224 179.3 221.9 179.4 219.7C179.4 219.5 179.4 219.3 179.4 219.1C179.5 216.9 181.1 215.4 183.1 215.8C191.3 217.4 195.3 218.2 203.5 219.9C205.5 220.3 207 222.5 206.8 224.8C206.8 225.1 206.8 225.2 206.8 225.4C206.7 227.5 205 229 203.1 228.6Z" fill="#2D1F04"/>
<path d="M203.1 228.6C194.9 226.9 190.9 226.1 182.8 224.4C180.9 224 179.3 221.9 179.4 219.7C179.4 219.5 179.4 219.3 179.4 219.1C179.5 216.9 181.1 215.4 183.1 215.8C191.3 217.4 195.3 218.2 203.5 219.9C205.5 220.3 207 222.5 206.8 224.8C206.8 225.1 206.8 225.2 206.8 225.4C206.7 227.5 205 229 203.1 228.6Z" stroke="#2D1F04" stroke-width="0.2693" stroke-miterlimit="10"/>
<path d="M188.8 219.3C188.7 220.8 188.7 221.5 188.6 222.9C188.4 222.9 188.3 222.8 188 222.8C188 221.6 188.1 221 188.1 219.7C187.4 219.6 187.1 219.5 186.5 219.4C186.5 220.6 186.4 221.2 186.4 222.5C186.2 222.5 186.1 222.4 185.8 222.4C185.9 221 185.9 220.2 185.9 218.8C187.1 219 187.7 219.1 188.8 219.3Z" fill="#2D1F04"/>
<path d="M189.9 223.1C189.7 222.9 189.6 222.7 189.5 222.5C189.4 222.3 189.4 222 189.4 221.7C189.4 221.4 189.5 221.2 189.6 221C189.7 220.8 189.9 220.7 190.1 220.6C190.3 220.5 190.5 220.5 190.8 220.6C191 220.7 191.3 220.8 191.5 220.9C191.7 221.1 191.8 221.3 191.9 221.5C192 221.7 192 222 192 222.3C192 222.6 191.9 222.8 191.8 223C191.7 223.2 191.5 223.3 191.3 223.4C191.1 223.5 190.9 223.5 190.6 223.4C190.3 223.3 190.1 223.2 189.9 223.1ZM191.1 222.7C191.2 222.6 191.3 222.4 191.3 222.1C191.3 221.8 191.3 221.6 191.1 221.4C191 221.2 190.8 221.1 190.6 221.1C190.4 221.1 190.2 221.1 190.1 221.2C190 221.3 189.9 221.5 189.9 221.8C189.9 222.1 189.9 222.3 190.1 222.5C190.2 222.7 190.4 222.8 190.6 222.8C190.8 222.9 191 222.8 191.1 222.7Z" fill="#2D1F04"/>
<path d="M192.5 221C192.7 221 192.8 221.1 193.1 221.1C193.1 221.8 193 222.2 193 222.9C193.6 222.3 193.8 222 194.4 221.3C194.6 221.3 194.7 221.4 194.9 221.4C194.8 222.5 194.8 223.1 194.8 224.2C194.6 224.2 194.5 224.1 194.2 224.1C194.2 223.4 194.3 223 194.3 222.3C193.7 222.9 193.5 223.2 192.9 223.9C192.7 223.9 192.6 223.8 192.4 223.8C192.4 222.6 192.5 222.1 192.5 221Z" fill="#2D1F04"/>
<path d="M196 224.3C195.8 224.1 195.7 223.9 195.6 223.7C195.5 223.5 195.5 223.2 195.5 222.9C195.5 222.6 195.6 222.4 195.7 222.2C195.8 222 196 221.9 196.2 221.8C196.4 221.7 196.6 221.7 196.9 221.8C197.1 221.8 197.3 221.9 197.5 222.1C197.7 222.2 197.8 222.4 197.9 222.7C197.7 222.8 197.6 222.8 197.5 222.9C197.4 222.8 197.4 222.6 197.3 222.6C197.2 222.6 197.1 222.5 197 222.4C196.8 222.4 196.6 222.4 196.5 222.5C196.4 222.6 196.3 222.8 196.3 223.1C196.3 223.4 196.3 223.6 196.5 223.8C196.6 224 196.8 224.1 197 224.1C197.1 224.1 197.2 224.1 197.3 224.1C197.4 224.1 197.5 224 197.6 223.9C197.8 224.1 197.9 224.1 198 224.3C197.9 224.5 197.8 224.6 197.6 224.7C197.4 224.8 197.2 224.8 197 224.7C196.4 224.6 196.2 224.5 196 224.3Z" fill="#2D1F04"/>
<path d="M199.2 224C199 224 198.9 223.9 198.8 223.9C198.8 224.3 198.8 224.6 198.7 225C198.5 225 198.4 224.9 198.1 224.9C198.2 223.8 198.2 223.2 198.2 222.1C198.4 222.1 198.5 222.2 198.8 222.2C198.8 222.7 198.8 222.9 198.7 223.3C198.9 223.3 199 223.4 199.2 223.4C199.5 223 199.7 222.8 200 222.4C200.2 222.4 200.4 222.5 200.6 222.5C200.2 223 200 223.2 199.7 223.7C200 224.4 200.2 224.7 200.6 225.3C200.3 225.2 200.2 225.2 199.9 225.2C199.7 224.8 199.5 224.5 199.2 224Z" fill="#2D1F04"/>
<path d="M70.1001 218.3C69.2001 217.5 67.3001 216.3 67.1001 214.9C66.8001 212.5 73.4001 205.6 75.8001 205C80.4001 203.8 86.9001 209.8 91.5001 211.5C92.7001 212 96.3001 211.4 97.0001 212.4C99.5001 215.7 98.9001 229.2 99.4001 233.8C99.6001 235.4 101.6 250.9 101.3 251.2C100.1 252.8 83.8001 258.1 82.0001 257.5C80.1001 256.8 77.9001 254.1 76.1001 253C71.6001 250.4 64.7001 250.7 59.7001 249.8C55.0001 249 49.3001 246.3 44.7001 249.3C40.9001 251.7 37.3001 252 33.3001 254C29.2001 256.1 25.0001 261.9 22.7001 265.8C21.4001 268 18.8001 287.8 16.4001 287.3C15.3001 287.1 16.0001 281.3 16.1001 280.6C17.2001 274.2 17.5001 266.3 19.7001 260.2C25.8001 243.5 43.3001 229.9 59.1001 222.6C60.7001 221.9 67.5001 218.5 68.2001 217C69.2001 215.1 65.6001 213.8 69.5001 212.7" fill="#2D1F04"/>
<path d="M30.7001 282.2C40.4001 288.3 49.2001 291.4 60.6001 292.6" stroke="#2D1F04" stroke-width="2.8223" stroke-miterlimit="10" stroke-linecap="round" stroke-linejoin="round"/>
<path d="M28.6001 283.6C41.3001 291.7 57.1001 297.2 72.1001 291.6" stroke="#2D1F04" stroke-width="2.8223" stroke-miterlimit="10" stroke-linecap="round" stroke-linejoin="round"/>
<path d="M85.2 42.7999C81.8 42.7999 73.1 59.9999 71.1 63.4999C56.4 89.4999 65 136.2 75 176C82.3 205.4 75.1 194.7 77.2 203.3C78.7 209.3 98.8 213.6 104.9 215.2C128.2 221.1 149.8 209 173.2 209C179 209 195.9 210.8 200.7 205.9C204.8 201.7 206.1 196.3 209.4 191.6C213.9 185.2 224.3 177.5 231.6 174.6C239.1 171.6 248.4 173.4 255.8 175.3C257.7 175.8 263.3 178.2 265.2 176.3C268.2 173.2 269.7 164.2 268.9 160.3C266.8 149.9 255.3 181.5 253.3 171.4C251.9 164.5 256.8 126.7 254.3 120.1C244.4 93.9999 235.2 57.0999 213.1 40.7999C207.5 36.6999 198.3 29.4999 191.9 26.2999C185.8 23.1999 181.6 22.7999 175.5 19.6999C167.4 15.5999 155.9 10.7999 147.3 8.69991C145.1 8.09991 148.2 11.9999 148 12.3999C147.7 12.9999 142.4 12.8999 141.6 12.6999C134.4 11.1999 127 11.3999 120.1 8.29991C119 7.79991 112.9 1.49991 111.6 1.99991C107.5 3.39991 115.4 16.7999 115.4 16.7999C115.4 16.7999 114.8 15.7999 114.4 15.3999C112.4 13.7999 107.9 12.4999 105.3 11.9999C99.8 10.8999 97.5 14.4999 92.9 15.3999C92.3 15.4999 86.9 16.9999 86.9 17.0999C86.9 18.2999 95.6 19.5999 95.6 20.7999C95.6 21.8999 93.7 21.3999 93.2 21.4999C90.6 21.8999 73.3 30.3999 74.3 33.5999C74.8 34.9999 85.3 32.7999 86.8 33.6999C87.2 33.8999 88.1 33.9999 88.1 33.9999C88.1 33.9999 82 34.8999 79 35.6999C75.3 36.5999 67.6 45.1999 74.3 45.1999" fill="#2D1F04"/>
<path d="M69.2 95.4999C72 83.8999 79.1 70.8999 89.3 68.9999C101.3 66.6999 111.4 76.4999 123 76.0999C125.2 75.9999 129.4 74.6999 130.7 72.7999C131.9 70.9999 130.7 68.4999 130.7 68.4999C132.5 68.9999 134.4 71.6999 136.6 72.3999C145.3 74.9999 154.4 67.1999 162.3 64.7999C188.7 56.6999 209.2 59.5999 223.3 85.3999C226.5 91.1999 231.3 104.4 228 119.2C223.2 140.8 220.7 149.8 197.6 165.9C170.2 185.1 113.3 194.6 85 158.3C71.7 141.2 64 117.2 69.2 95.4999Z" fill="#2D1F04"/>
<path d="M122.3 105.4C112.7 100.6 105 125 105.7 132.1C108.3 156.2 143.1 154.9 159.3 146.8C182.6 135 154.1 97 137.5 103.8" fill="#2D1F04"/>
<path d="M69.8 93.4C64.6 103 67.4 130.8 74.5 139.4C75.1 139.2 113.5 129.5 110.5 89.9C110.3 87.5 86.3 91.3 82.8 92C78.1 93 71.9 89.5 69.8 93.4Z" fill="#2D1F04"/>
<path d="M156.8 91.1999C154.3 135.3 217.6 155.3 224.3 145.5C228.6 139.2 234.3 105.9 223.1 85.9999C222 84.0999 209.6 88.1999 207.6 88.5999C191 91.2999 157.2 83.0999 156.8 91.1999Z" fill="#2D1F04"/>
<path d="M97.1001 181.9V189.9" stroke="#2D1F04" stroke-width="4.1689" stroke-miterlimit="10" stroke-linecap="round" stroke-linejoin="round"/>
<path d="M104.9 186V194" stroke="#2D1F04" stroke-width="4.1689" stroke-miterlimit="10" stroke-linecap="round" stroke-linejoin="round"/>
<path d="M174.6 92.7999C174.6 96.3999 175.3 98.8999 176.5 100.5C180.1 105.2 188.2 102.6 196.3 101.2C205.1 99.6999 207 94.1999 208.6 90.8999" fill="#2D1F04"/>
<path d="M75.9001 90.8C68.5001 110.4 99.3001 108.3 104.9 93.4L75.9001 90.8Z" fill="#2D1F04"/>
<path opacity="0.23" d="M68 45.1999C73.7 45.1999 78.5 43.5999 84 42.2999C85.5 41.8999 88.7 40.1999 88.7 41.7999C88.7 42.1999 88.1 42.0999 87.8 42.2999C83.1 45.1999 79.2 49.2999 76.5 54.1999C75.6 55.8999 73 60.5999 73.7 59.3999C95.3 19.9999 251.9 5.19986 242.9 165.3C242.8 166.7 241.1 169.1 242.4 169.6C245.2 170.6 249.7 167.8 253.2 169.1C254.8 169.7 266.1 176.1 267.3 175.3C269.3 173.9 258.3 167.7 258.6 165.3C266.6 111.4 227.9 54.9999 209.7 39.2999C186.4 19.2999 147.6 10.3999 146.7 10.1999C146.5 10.1999 142.9 12.3999 141 12.0999C134.2 10.9999 126.6 8.29986 119.8 6.39986C118.8 6.09986 112.5 1.19986 112.3 1.59986C111.5 3.19986 111.1 11.7999 111.8 13.0999C112.3 13.9999 115.7 12.5999 114.6 12.5999C105.9 12.5999 94.8 15.4999 85.4 17.3999C85.1 17.4999 84.5 17.4999 84.5 17.8999C84.5 20.5999 96.8 18.7999 96.8 20.7999C96.8 22.1999 79.8 26.9999 77.5 28.8999C76.8 29.4999 74 31.5999 74.7 32.1999C77 34.4999 82.6 31.5999 85.5 33.1999" fill="#2D1F04"/>
<path d="M87.3001 41C80.9001 45.4 75.0001 53.9 71.8001 60.7C46.4001 114.9 84.4001 182.4 76.3001 203.7" stroke="#2D1F04" stroke-width="2.8223" stroke-miterlimit="10" stroke-linecap="round" stroke-linejoin="round"/>
<path d="M85.4 41.9C82.3 43.5 80.2 43.5 77 44.4C75.4 44.9 74.1 45.4999 72.5 45.7999C71 46.0999 69.5 46.1999 68 46.5999C67.3 46.7999 66 47.9 66 47.2C66 45.1 82.9 35.6 86.1 34.5C86.6 34.3 87.3 34.4 87.5 33.9C87.7 33.2 86.2 33.2 85.5 33.1C82.3 32.3 74.7 34.8 72.1 32.8C71.4 32.3 77.1 28.7 77.4 28.6C80.9 26.6 84.4 24.1 88.3 23C90.6 22.3 95.3 24 95.3 21.6C95.3 18.7 82.6 19.8 81.6 18.8C81.5 18.7 82 18.6 82.2 18.5C85.1 17 88.3 15.9 91.4 15.1C97.2 13.7 107.5 12.3 113.2 14.3" stroke="#2D1F04" stroke-width="2.8223" stroke-miterlimit="10" stroke-linecap="round" stroke-linejoin="round"/>
<path d="M114.1 15.6C112.5 12.3 109.5 6.79997 111 2.89997C111.1 2.69997 112.4 1.29997 112.7 1.49997C113.8 2.09997 114.6 4.09997 116 4.89997C121.5 7.89997 127.7 9.99997 133.9 11.4C137.5 12.2 141.2 12.6 144.8 13.4C145.6 13.6 147.3 13.7 147.3 13.7C147.3 13.7 142.4 9.29997 144.2 8.29997C144.5 8.09997 158.5 13.4 159.8 13.9C169.8 17.8 180 20.2 189.5 24.9" stroke="#2D1F04" stroke-width="2.8223" stroke-miterlimit="10" stroke-linecap="round" stroke-linejoin="round"/>
<path d="M173.6 18.3999C243.6 41.8999 260.7 128.6 260.7 178.7" stroke="#2D1F04" stroke-width="2.8223" stroke-miterlimit="10" stroke-linecap="round" stroke-linejoin="round"/>
<path d="M268.8 165.4C269 166.9 268.6 169 268.5 171" stroke="#2D1F04" stroke-width="2.8223" stroke-miterlimit="10" stroke-linecap="round" stroke-linejoin="round"/>
<path d="M269.1 167.9C269.4 169.8 269 171.6 269.3 173.4" stroke="#2D1F04" stroke-width="2.8223" stroke-miterlimit="10" stroke-linecap="round" stroke-linejoin="round"/>
<path d="M230.9 87.5999L53.3 90.7999" stroke="#2D1F04" stroke-width="8.187" stroke-miterlimit="10" stroke-linecap="round" stroke-linejoin="round"/>
<path d="M171.7 93.5C177.2 110.3 206.3 105 206.9 91.3" stroke="#2D1F04" stroke-width="3.2856" stroke-miterlimit="10" stroke-linecap="round" stroke-linejoin="round"/>
<path d="M74.9001 95.9C72.5001 108 105.3 109 105.3 93.7" stroke="#2D1F04" stroke-width="3.2856" stroke-miterlimit="10" stroke-linecap="round" stroke-linejoin="round"/>
<path d="M116.6 105.5C116.4 101.9 123.5 98.4999 132.4 98.0999C141.3 97.6999 148.7 100.3 148.8 103.9C149 107.5 141.9 110.9 133 111.3C124.1 111.7 116.8 109.1 116.6 105.5Z" fill="#2D1F04"/>
<path d="M192.6 90.8C192.9 90.6 193.2 90.4 193.5 90.2" stroke="#2D1F04" stroke-width="3.2856" stroke-miterlimit="10" stroke-linecap="round" stroke-linejoin="round"/>
<path d="M132.7 112.4C132.7 126 140.3 110 150.8 115.3" stroke="#2D1F04" stroke-width="3.2856" stroke-miterlimit="10" stroke-linecap="round" stroke-linejoin="round"/>
<path d="M91.4 93.2C91.4 90.2 93.8 87.8 96.7 87.8C99.6 87.8 102 90.2 102 93.2C102 96.2 99.6 98.6 96.7 98.6C93.8 98.6 91.4 96.2 91.4 93.2Z" fill="#2D1F04"/>
<path d="M191.7 91.2C191.7 88.2 194.1 85.8 197 85.8C199.9 85.8 202.3 88.2 202.3 91.2C202.3 94.2 199.9 96.6 197 96.6C194.1 96.6 191.7 94.2 191.7 91.2Z" fill="#2D1F04"/>
<path d="M184.4 97.1C184 97.1 183.6 97 183.1 97L184.4 97.1Z" fill="#2D1F04"/>
<path d="M115 249.9L305 291.8C308.9 292.6 309.4 299.6 306 301.8L210 363.1C206.6 365.3 200.8 365.9 197 364.6L5.00005 297.5C1.20005 296.2 1.10005 293.8 4.80005 292.3L91.2001 255.7C95.0001 254.1 111 249.1 115 249.9Z" fill="#2D1F04"/>
<path d="M115 249.9L305 291.8C308.9 292.6 309.4 299.6 306 301.8L210 363.1C206.6 365.3 200.8 365.9 197 364.6L5.00005 297.5C1.20005 296.2 1.10005 293.8 4.80005 292.3L91.2001 255.7C95.0001 254.1 111 249.1 115 249.9Z" stroke="#2D1F04" stroke-width="2.8223" stroke-miterlimit="10" stroke-linecap="round" stroke-linejoin="round"/>
<path d="M117.8 249.4L307.8 291.3C311.7 292.1 307.9 296.5 304.6 298.6L206.5 360.3C203.1 362.5 196.9 360.8 193.1 359.5L9.3 295.7C5.5 294.4 3.7 294.5 7.4 293L87.9 257.9L94.1 255.2C97.8 253.6 113.9 248.6 117.8 249.4Z" fill="#2D1F04"/>
<path d="M100 105.6L301.2 131.1C307.4 131.9 312.4 137.6 312.4 143.9L308.3 296.9L100 251.2L89.5001 115.5C89.1001 109.3 93.8001 104.8 100 105.6Z" fill="#2D1F04"/>
<path d="M100 105.6L301.2 131.1C307.4 131.9 312.4 137.6 312.4 143.9L308.3 296.9L100 251.2L89.5001 115.5C89.1001 109.3 93.8001 104.8 100 105.6Z" stroke="#2D1F04" stroke-width="2.8223" stroke-miterlimit="10" stroke-linecap="round" stroke-linejoin="round"/>
<path d="M101.1 105.3L297.9 130.8C304 131.6 308.9 137.3 308.9 143.6L304.4 295.4L101.7 249.2L90.8001 115.2C90.4001 108.9 95.0001 104.5 101.1 105.3Z" fill="#2D1F04"/>
<path d="M101.1 105.3L297.9 130.8C304 131.6 308.9 137.3 308.9 143.6L304.4 295.4L101.7 249.2L90.8001 115.2C90.4001 108.9 95.0001 104.5 101.1 105.3Z" stroke="#2D1F04" stroke-width="2.8223" stroke-miterlimit="10" stroke-linecap="round" stroke-linejoin="round"/>
<path d="M94.2001 116.6L297.1 144.6L297.2 284.5L118.7 247.2L102.5 243.8L94.2001 116.6Z" fill="#2D1F04"/>
<path d="M94.2001 116.6L297.1 144.6L297.2 284.5L118.7 247.2L102.5 243.8L94.2001 116.6Z" stroke="#2D1F04" stroke-width="2.8223" stroke-miterlimit="10" stroke-linecap="round" stroke-linejoin="round"/>
<path d="M98.9001 257.4L286.4 299.8L236.9 329.6L52.3 276.7L98.9001 257.4Z" fill="#2D1F04"/>
<path d="M59.2001 272.7L255.8 326.1" stroke="#2D1F04" stroke-width="1.6266" stroke-miterlimit="10" stroke-linecap="round" stroke-linejoin="round"/>
<path d="M71 267.5L265.5 320.5" stroke="#2D1F04" stroke-width="1.6266" stroke-miterlimit="10" stroke-linecap="round" stroke-linejoin="round"/>
<path d="M80 262.3L273.7 312.6" stroke="#2D1F04" stroke-width="1.6266" stroke-miterlimit="10" stroke-linecap="round" stroke-linejoin="round"/>
<path d="M91 258.8L273.1 302.7L281.8 304.8L285.3 305.7" stroke="#2D1F04" stroke-width="1.6266" stroke-miterlimit="10" stroke-linecap="round" stroke-linejoin="round"/>
<path d="M220.4 329.7L274.1 294.9" stroke="#2D1F04" stroke-width="1.6266" stroke-miterlimit="10" stroke-linecap="round" stroke-linejoin="round"/>
<path d="M206 325.7L257.6 291.5" stroke="#2D1F04" stroke-width="1.6266" stroke-miterlimit="10" stroke-linecap="round" stroke-linejoin="round"/>
<path d="M190.2 320.7L243.2 286.6" stroke="#2D1F04" stroke-width="1.6266" stroke-miterlimit="10" stroke-linecap="round" stroke-linejoin="round"/>
<path d="M177.3 315.6L229 283.7" stroke="#2D1F04" stroke-width="1.6266" stroke-miterlimit="10" stroke-linecap="round" stroke-linejoin="round"/>
<path d="M175 304.1L214.4 279.5" stroke="#2D1F04" stroke-width="1.6266" stroke-miterlimit="10" stroke-linecap="round" stroke-linejoin="round"/>
<path d="M161.5 300L185.5 285.4L199.4 276.9" stroke="#2D1F04" stroke-width="1.6266" stroke-miterlimit="10" stroke-linecap="round" stroke-linejoin="round"/>
<path d="M148 296.6L182.4 274.3" stroke="#2D1F04" stroke-width="1.6266" stroke-miterlimit="10" stroke-linecap="round" stroke-linejoin="round"/>
<path d="M132 292.4L167.2 270.4" stroke="#2D1F04" stroke-width="1.6266" stroke-miterlimit="10" stroke-linecap="round" stroke-linejoin="round"/>
<path d="M116.6 288.4C116.6 288.4 153.2 267.1 153.7 267.7" stroke="#2D1F04" stroke-width="1.6266" stroke-miterlimit="10" stroke-linecap="round" stroke-linejoin="round"/>
<path d="M81.9 295L87.4 291.9L139.9 264.5" stroke="#2D1F04" stroke-width="1.6266" stroke-miterlimit="10" stroke-linecap="round" stroke-linejoin="round"/>
<path d="M65.8 293.4L127.6 260.6" stroke="#2D1F04" stroke-width="1.6266" stroke-miterlimit="10" stroke-linecap="round" stroke-linejoin="round"/>
<path d="M45.8 290.9L114.9 257.9" stroke="#2D1F04" stroke-width="1.6266" stroke-miterlimit="10" stroke-linecap="round" stroke-linejoin="round"/>
<path d="M76.7001 204.9C73.4001 204 71.1001 209.1 68.9001 212.2C65.9001 216.5 70.7001 216.4 65.4001 219.5C47.6001 230 14.1001 243.9 14.8001 287.3" stroke="#2D1F04" stroke-width="2.8223" stroke-miterlimit="10" stroke-linecap="round" stroke-linejoin="round"/>
<path d="M77 204.6C86.1 210.7 87.9 211.5 99.1 212.9" stroke="#2D1F04" stroke-width="2.8223" stroke-miterlimit="10" stroke-linecap="round" stroke-linejoin="round"/>
<path d="M68.3 217.6C75.8 223.5 82.1 225.8 91.7 227.8" stroke="#2D1F04" stroke-width="2.8223" stroke-miterlimit="10" stroke-linecap="round" stroke-linejoin="round"/>
<path d="M109.6 296.2L174.4 314.8C175.7 315.2 175.8 316 174.6 316.6L141.1 333.8C139.9 334.4 137.9 334.6 136.6 334.1L71.2 312.1C69.9 311.7 69.9 310.9 71.1 310.4L104.9 296.4C106.2 295.9 108.3 295.8 109.6 296.2Z" fill="#2D1F04"/>
<path d="M230.9 156.8C230.4 156.2 230.7 155.1 230.2 154.5C229.9 154.1 229.5 153.7 229.1 153.3C226.1 150.6 227.8 158.2 230.8 157.3C232.1 156.9 234.1 153.5 236.9 154.3C237.8 154.6 231.7 157.9 230.9 156.8Z" fill="#2D1F04"/>
<path d="M154 171.1C154.5 170.5 154.2 169.4 154.7 168.8C155 168.4 155.4 168 155.8 167.6C158.8 164.9 157.1 172.5 154.1 171.6C152.8 171.2 150.8 167.8 148 168.6C147 168.9 153.2 172.2 154 171.1Z" fill="#2D1F04"/>
<path d="M173.4 146.4C173.9 145.9 173.9 144.8 174.4 144.2C174.7 143.8 175.1 143.5 175.5 143.2C178.3 141.1 175.5 148.2 173.4 146.8C172.5 146.2 171.6 142.6 169.3 142.9C168.4 143.2 172.5 147.4 173.4 146.4Z" fill="#2D1F04"/>
<path d="M171.4 208.2C171.2 208.2 171.1 208.3 171.1 208.5C171.1 208.7 171.2 208.8 171.4 208.8C171.6 208.8 171.7 208.7 171.7 208.5C171.7 208.3 171.6 208.2 171.4 208.2Z" fill="#2D1F04"/>
<path d="M19.2001 284.4C16.6001 273.9 27.1001 256.4 40.1001 252C43.6001 250.8 49.1001 248.2 52.8001 249C53.4001 249.1 62.9001 249.5 62.9001 249.1C62.9001 248.9 66.0001 250.7 65.9001 250.7C60.9001 249.4 49.3001 254.4 45.7001 257.3C40.4001 261.5 37.9001 270.3 34.2001 275.8C33.2001 277.3 34.8001 278.3 35.8001 278C36.1001 277.8 19.2001 284.8 19.2001 284.4Z" fill="#2D1F04"/>
<path d="M35 275.8C34.5 270 39.7 264 43.8 260.1C46.7 257.4 62.2 247 65.9 249.4C70.6 252.4 76.4 254.5 81.1 258C84.6 260.7 89 263.1 90.3 267.6C92.3 274.7 95.3 282.6 98.7 289.1C99.1 289.8 101.3 294.9 99.7 295.1C98 295.3 95.2 291.3 94.1 290.4C91.3 287.8 79 275.3 74.7 277.9C69.4 281.1 62.4 286.2 56 286.8C52.8 287.1 37.9 280.9 35.8 278.3C35.2 277.7 35.1 276.9 35 275.8Z" fill="#2D1F04"/>
<path d="M18.6 286.1C17.6 282.5 19 275.1 20.2 271.8C26.3 255.5 44.2 246.6 60.8 248.6C66.3 249.3 71.7 251.2 76.4 254.4C85.5 260.6 99.8 281.5 99.6 294.3C99.6 294.8 100.2 295.6 96.7 292.7C92 288.8 82.7 280.8 80.1 279C74.3 274.9 65 286.2 57.6 286.2C50.2 286.2 39.5 283.3 34 279" stroke="#2D1F04" stroke-width="2.8223" stroke-miterlimit="10" stroke-linecap="round" stroke-linejoin="round"/>
<path d="M33.6001 280C42.0001 256.4 50.3001 253.9 65.3001 249.7" stroke="#2D1F04" stroke-width="2.8223" stroke-miterlimit="10" stroke-linecap="round" stroke-linejoin="round"/>
<path d="M46.9 257.8C49.7 257 83 279.5 99 294.7" stroke="#2D1F04" stroke-width="2.8223" stroke-miterlimit="10" stroke-linecap="round" stroke-linejoin="round"/>
<path d="M40.1001 267.2C48.4001 274.1 57.8001 279.6 68.3001 281.4" stroke="#2D1F04" stroke-width="2.8223" stroke-miterlimit="10" stroke-linecap="round" stroke-linejoin="round"/>
<path opacity="0.23" d="M28.5 283.4C27.3 284.2 42.5 292.8 46.6 293.8C58.5 296.8 68.5 288.7 79.9 291.8C82.1 292.4 100 298.1 101.2 296.2C102 295 95.7 292.3 94.9 291.5C90.6 287.3 83.9 280 77.8 278.1C70.8 275.9 65.2 286 58.2 286.1C54.6 286.2 50.9 286.4 47.4 285.5C42.9 284.4 39 280.3 34.4 279.8C32.8 279.7 30.1 282.3 28.5 283.4Z" fill="#2D1F04"/>
<path opacity="0.23" d="M97.1 218.6C95.7 226.7 98.6 249.2 83 258.8C84.9 259.1 87.5 256.7 89.1 255.8C92.6 253.8 97.4 253.7 100.5 251.3C100.7 251.2 100.9 251 100.9 250.7C101.5 246.2 98.9 238.5 98.4 233.9C98.1 230.9 97.1 227.3 97.5 224.3C97.7 222.4 97.4 216.8 97.1 218.6Z" fill="#2D1F04"/>
<path d="M81.0001 208.5L77.2001 215.5" stroke="#2D1F04" stroke-width="2.8008" stroke-miterlimit="10" stroke-linecap="round" stroke-linejoin="round"/>
<path d="M85.9001 211L82.1001 217.9" stroke="#2D1F04" stroke-width="2.8008" stroke-miterlimit="10" stroke-linecap="round" stroke-linejoin="round"/>
<path d="M93.6001 49.2L93.7001 56.5999" stroke="#2D1F04" stroke-width="4.0719" stroke-miterlimit="10" stroke-linecap="round" stroke-linejoin="round"/>
<path d="M100.1 51.7V59" stroke="#2D1F04" stroke-width="4.0719" stroke-miterlimit="10" stroke-linecap="round" stroke-linejoin="round"/>
<path d="M86 190.8L86.1 198.2" stroke="#2D1F04" stroke-width="4.0719" stroke-miterlimit="10" stroke-linecap="round" stroke-linejoin="round"/>
<path d="M142.636 222.636V221.545C142.758 209.97 143.97 200.758 146.273 193.909C148.576 187.061 151.848 181.515 156.091 177.273C160.333 173.03 165.424 169.121 171.364 165.545C174.939 163.364 178.152 160.788 181 157.818C183.848 154.788 186.091 151.303 187.727 147.364C189.424 143.424 190.273 139.061 190.273 134.273C190.273 128.333 188.879 123.182 186.091 118.818C183.303 114.455 179.576 111.091 174.909 108.727C170.242 106.364 165.061 105.182 159.364 105.182C154.394 105.182 149.606 106.212 145 108.273C140.394 110.333 136.545 113.576 133.455 118C130.364 122.424 128.576 128.212 128.091 135.364H105.182C105.667 125.061 108.333 116.242 113.182 108.909C118.091 101.576 124.545 95.9697 132.545 92.0909C140.606 88.2121 149.545 86.2727 159.364 86.2727C170.03 86.2727 179.303 88.3939 187.182 92.6364C195.121 96.8788 201.242 102.697 205.545 110.091C209.909 117.485 212.091 125.909 212.091 135.364C212.091 142.03 211.061 148.061 209 153.455C207 158.848 204.091 163.667 200.273 167.909C196.515 172.152 191.97 175.909 186.636 179.182C181.303 182.515 177.03 186.03 173.818 189.727C170.606 193.364 168.273 197.697 166.818 202.727C165.364 207.758 164.576 214.03 164.455 221.545V222.636H142.636ZM154.273 276.455C149.788 276.455 145.939 274.848 142.727 271.636C139.515 268.424 137.909 264.576 137.909 260.091C137.909 255.606 139.515 251.758 142.727 248.545C145.939 245.333 149.788 243.727 154.273 243.727C158.758 243.727 162.606 245.333 165.818 248.545C169.03 251.758 170.636 255.606 170.636 260.091C170.636 263.061 169.879 265.788 168.364 268.273C166.909 270.758 164.939 272.758 162.455 274.273C160.03 275.727 157.303 276.455 154.273 276.455Z" fill="white"/>
</g>
<defs>
<clipPath id="clip0_228_940">
<rect width="314" height="367" fill="white"/>
</clipPath>
</defs>
</svg>
