<svg width="299" height="377" viewBox="0 0 299 377" fill="none" xmlns="http://www.w3.org/2000/svg">
<g clip-path="url(#clip0_228_1060)">
<path d="M75.9001 182.2C85.1001 163.7 53.6001 161.8 51.0001 145.1C50.1001 139.3 52.9001 137 54.2001 132.4C54.9001 130 54.4001 123.6 54.0001 121.2C52.9001 115.9 41.4001 116.9 43.0001 105.3C44.2001 97.1001 51.6001 94.1001 52.5001 88.0001C53.5001 81.0001 48.7001 75.9001 50.5001 68.5001C52.2001 61.8001 57.5001 64.3001 60.5001 60.2001C64.5001 54.9001 62.8001 47.0001 66.8001 41.7001C69.6001 38.0001 73.5001 39.9001 76.1001 37.3001C79.9001 33.5001 80.0001 26.6001 83.9001 22.7001C88.0001 18.6001 94.3001 22.5001 97.6001 19.3001C105.1 11.8001 112.8 2.2001 124.9 3.4001C128.7 3.8001 131.8 8.7001 136.4 8.0001C143.3 6.9001 148.4 0.800096 155.9 2.4001C160.9 3.5001 162.3 10.0001 166.6 10.5001C171.9 11.1001 177.5 7.7001 182.7 9.8001C190.5 12.9001 192.8 21.9001 200.3 25.2001C206.9 28.1001 215.4 26.0001 221.5 31.3001C227.1 36.1001 226.6 43.5001 231.5 48.4001C234.5 51.4001 240.3 50.7001 242.7 54.7001C246.8 61.6001 241.6 71.6001 243.2 79.3001C244.3 84.9001 248.8 87.2001 250.3 92.5001C251.7 97.5001 247.1 100.4 247.9 105.2C248.8 110.4 254.4 111.6 255.5 116.2C256.8 122 252.6 127.1 252.1 132.5C251.8 135.8 253 138.6 251.9 142C249.9 147.9 242.8 150.8 239.9 156.4" fill="#2D1F04"/>
<path d="M75.9001 182.2C85.1001 163.7 53.6001 161.8 51.0001 145.1C50.1001 139.3 52.9001 137 54.2001 132.4C54.9001 130 54.4001 123.6 54.0001 121.2C52.9001 115.9 41.4001 116.9 43.0001 105.3C44.2001 97.1001 51.6001 94.1001 52.5001 88.0001C53.5001 81.0001 48.7001 75.9001 50.5001 68.5001C52.2001 61.8001 57.5001 64.3001 60.5001 60.2001C64.5001 54.9001 62.8001 47.0001 66.8001 41.7001C69.6001 38.0001 73.5001 39.9001 76.1001 37.3001C79.9001 33.5001 80.0001 26.6001 83.9001 22.7001C88.0001 18.6001 94.3001 22.5001 97.6001 19.3001C105.1 11.8001 112.8 2.2001 124.9 3.4001C128.7 3.8001 131.8 8.7001 136.4 8.0001C143.3 6.9001 148.4 0.800096 155.9 2.4001C160.9 3.5001 162.3 10.0001 166.6 10.5001C171.9 11.1001 177.5 7.7001 182.7 9.8001C190.5 12.9001 192.8 21.9001 200.3 25.2001C206.9 28.1001 215.4 26.0001 221.5 31.3001C227.1 36.1001 226.6 43.5001 231.5 48.4001C234.5 51.4001 240.3 50.7001 242.7 54.7001C246.8 61.6001 241.6 71.6001 243.2 79.3001C244.3 84.9001 248.8 87.2001 250.3 92.5001C251.7 97.5001 247.1 100.4 247.9 105.2C248.8 110.4 254.4 111.6 255.5 116.2C256.8 122 252.6 127.1 252.1 132.5C251.8 135.8 253 138.6 251.9 142C249.9 147.9 242.8 150.8 239.9 156.4" stroke="#2D1F04" stroke-width="2.62" stroke-miterlimit="10" stroke-linecap="round" stroke-linejoin="round"/>
<path d="M79.1 263.3C76.6 268.2 69.4 277.8 64.5 280.5C63.4 281.1 56.9 284.4 57.1 285.8C57.2 286.6 67.8 287.4 69.1 287.8C75.9 290 80.2 293.1 85.9 297.1" fill="#2D1F04"/>
<path d="M215.5 172.5C217.2 177.7 223.3 180.1 226.7 184.1C234.3 193.3 242.1 201.9 249.4 211.4C252.3 215.1 256.3 224.2 260.6 226.3" fill="#2D1F04"/>
<path d="M116.3 44.4001C111.7 44.4001 110.5 39.7001 107.1 38.9001C106.7 38.8001 106.1 38.9001 106 39.3001C105.3 40.9001 107.8 51.8001 109 51.8001C109.1 51.8001 106.8 47.4001 106.4 47.3001C104.6 46.9001 101.3 47.8001 99.4 47.5001C94.5 46.8001 92.6 49.0001 87.9 49.9001C87.5 50.0001 82.8 50.6001 82.7 50.6001C82.3 51.4001 84.4 51.3001 85.3 51.3001C86.6 51.4001 92.9 51.6001 93.4 53.5001C93.7 54.6001 89.7 55.2001 89 55.3001C87.2 55.7001 73.2 61.1001 74.2 63.0001C74.4 63.4001 83.9 63.4001 85.6 63.4001C86 63.4001 86.7 63.4001 86.7 63.4001C86.7 63.4001 83.9 64.0001 82.6 64.5001C79.7 65.7001 77.4 66.4001 75.2 68.6001C74.3 69.5001 73.8 70.7001 73 71.6001C72.8 71.8001 72.1 71.8001 72.3 72.0001C73.2 72.9001 85.2 68.7001 86.3 69.8001C86.9 70.4001 84.6 70.6001 84.1 71.3001C83.4 72.2001 82.7 73.0001 81.9 73.9001C79.1 76.7001 76.9 79.8001 74.9 83.1001C69.1 92.8001 66.8 99.4001 64.9 110.4C64.5 113.1 63.6 116.8 64.2 119.6C65.5 126 65.5 132.2 67.5 138.4C68.8 142.2 71.7 152.1 73.6 155.7C78 164.6 82.9 168.8 80.8 179C78.8 189 74.7 199.2 73.1 209.3C71.6 218.5 74.9 228 73.8 237.3C72.7 247.5 70 257.5 66.4 267.2C64.6 272.1 61.2 272.9 59 277.2C58.6 278.1 56.4 280.9 57.5 282C57.9 282.4 59.8 282.1 59.3 281.6C59.3 281.6 51.4 284.4 50.4 284.6C41.9 286.3 33.8 287.8 29.7 296C29.1 297.2 26.3 300.7 25.9 302.5C25.5 304.4 25.6 315.6 28.4 322.5C29 324 37.9 328.8 37.9 328.9C37.8 329.4 33.1 329.7 33.3 330.4C34.1 335.4 42.2 339.1 45 342.5C47.3 345.4 46.9 356.8 47.6 357.3C52.9 360.5 73.9 359.3 77.5 354.5C78.8 352.7 81.9 342.1 82.6 341.5C83 341.1 82 344.6 82.4 344.9C84.1 345.7 88.1 344.1 90 344.5C93.9 345.3 99.7 345.4 103.4 346C105.3 346.3 104.6 345.7 106.6 346C115.2 347.4 117.8 348.7 126.4 350.2C127.3 350.3 138.7 350.1 139.5 349.3C140.7 348.1 145.2 339 146.5 338.6C146.8 338.5 147.9 338.6 147.6 339.3C146.4 342.8 153.5 355.9 156.1 358.5C157.2 359.6 160.6 361 162 361.5C170.8 364.4 179.4 360.4 188.2 361.5C195.7 362.4 203 364.8 210.3 366.3C214.3 367.1 218.8 365.5 222.8 366.3C235.9 368.9 253 364.4 263.8 356.3C268.1 353.1 276.9 335.6 262.4 322.4C350.1 296 254.7 191.3 234.6 151.9C231.2 145.2 229.9 138.6 228.7 131.6C227.7 125.4 224.9 118.2 222.4 112.4C217.2 100.4 209.6 90.2001 201.4 79.9001C196.3 73.1001 190 68.0001 183.3 63.0001C173.8 55.8001 162 51.4001 150.3 48.3001C146.4 47.3001 142.6 46.4001 138.8 45.6001C137.5 45.3001 136.1 45.0001 134.8 44.8001C130.2 43.9001 134.2 47.6001 133.3 48.5001C132.4 49.4001 129.2 46.3001 126.4 46.0001C123.6 45.7001 124.5 45.6001 117 43.6001" fill="#2D1F04"/>
<path d="M72.4 106.8C74.7 97.4002 78.9 93.7002 87.3 92.1002C97.2 90.3002 100.3 75.3002 109.8 74.9002C111.6 74.8002 115.7 73.9002 116.6 72.3002C119.3 67.2002 113.1 65.0002 116.2 65.6002C119.3 66.2002 139.1 73.1002 145.8 73.8002C165.2 75.9002 183.3 79.7002 194.8 100.5C197.4 105.2 203.6 120.7 200.9 132.7C197 150.2 194.9 157.5 176 170.5C153.5 186 93.6 181.4 79.8 156C80.2 136.2 68.1 124.3 72.4 106.8Z" fill="#2D1F04"/>
<path d="M126.4 131C118.6 127.1 109.6 142.6 109.3 153.6C108.5 176.1 139.1 181.5 156.2 170.3C174.1 158.6 152.5 124.2 138.9 129.7" fill="#2D1F04"/>
<path d="M72.3 102.5C64.9 118.6 74.4 151 80.8 157.3C88.3 154.9 94.4 151.8 99.2 148.1C130.1 124.6 110.6 79.7 108.5 77.6C107.1 76.2 81.7 91.9 78.9 92.4C74.9 93.1 73.8 99.2 72.3 102.5Z" fill="#2D1F04"/>
<path d="M148.8 76.7C134.7 144.6 190.2 158.9 195.7 150.9C199.2 145.8 206.1 122 197 105.9C196.1 104.3 183.6 86.4 181.9 86.7C168.3 88.9 151.6 63.1 148.8 76.7Z" fill="#2D1F04"/>
<path d="M265.9 58.8001C265.6 58.5001 265.4 58.1 265.1 57.8L265.9 58.8001Z" fill="#2D1F04"/>
<path d="M93.7001 183.5L93.6001 190" stroke="#2D1F04" stroke-width="3.87" stroke-miterlimit="10" stroke-linecap="round" stroke-linejoin="round"/>
<path d="M100.1 186.8L100 193.3" stroke="#2D1F04" stroke-width="3.87" stroke-miterlimit="10" stroke-linecap="round" stroke-linejoin="round"/>
<path opacity="0.23" d="M69.8 72.8001C74.5 72.8001 78.4 71.5001 82.9 70.5001C84.2 70.2001 86.8 68.8001 86.8 70.1001C86.8 70.4001 86.3 70.3001 86 70.5001C82.1 72.8001 79 76.1001 76.7 80.2001C75.9 81.6001 73.9 85.4001 74.4 84.4001C92.1 52.5001 220.5 40.5001 213.1 170.2C213 171.4 211.6 173.3 212.7 173.7C215 174.5 218.1 162 221 163.1C222.3 163.6 231.1 147.5 232.1 146.8C233.8 145.7 231.6 149.1 231.5 147.2C229.3 112.8 211 86.4001 185.7 64.4001C164.8 46.2001 135.1 44.9001 134.3 44.7001C134.2 44.7001 131.2 46.5001 129.7 46.2001C124.1 45.3001 117.9 43.2001 112.3 41.6001C111.4 41.4001 106.3 37.4001 106.1 37.7001C105.5 39.0001 105.1 46.0001 105.7 47.0001C106.1 47.7001 108.9 46.6001 108 46.6001C100.8 46.6001 91.8 48.9001 84.1 50.5001C83.8 50.6001 83.3 50.6001 83.3 50.9001C83.3 53.1001 93.3 51.7001 93.3 53.2001C93.3 54.3001 79.4 58.2001 77.5 59.8001C76.9 60.3001 74.7 62.0001 75.2 62.5001C77.1 64.4001 81.6 62.0001 84.1 63.3001" fill="#2D1F04"/>
<path d="M85.7001 69.5C80.4001 73 76.7002 78.3 73.8002 83.7C63.1002 103.2 62.8002 120.2 70.5002 146.8C72.2002 152.8 75.2002 158.4 77.9002 163.8C79.0002 166 80.5002 168.4 80.9002 170.9C81.1002 172.1 80.4002 174.2 80.9002 175.2C81.1002 175.7 82.2002 174 82.3002 174.5C82.6002 176.8 82.3002 179.4 82.1002 181.6C82.0002 182.4 81.0002 184.7 81.6002 184.1C81.8002 183.9 82.4001 182 83.2001 182.3C83.7001 182.5 83.2002 194.6 83.0002 195.8" stroke="#2D1F04" stroke-width="2.62" stroke-miterlimit="10" stroke-linecap="round" stroke-linejoin="round"/>
<path d="M84.1 70.2002C81.5 71.5002 79.9 71.5002 77.2 72.3002C75.9 72.7002 74.9 73.2002 73.5 73.4002C72.3 73.7002 71 73.8002 69.8 74.1002C69.3 74.3002 68.2 75.1002 68.2 74.6002C68.2 72.9002 82 65.2002 84.7 64.3002C85.1 64.2002 85.7 64.2002 85.8 63.8002C86 63.2002 84.8 63.3002 84.2 63.1002C81.6 62.4002 75.4 64.5002 73.2 62.9002C72.6 62.5002 77.3 59.6002 77.5 59.5002C80.4 57.9002 83.2 55.8002 86.4 54.9002C88.3 54.4002 92.1 55.7002 92.1 53.8002C92.1 51.5002 81.7 52.3002 80.9 51.5002C80.8 51.4002 81.2 51.3002 81.4 51.3002C83.8 50.1002 86.4 49.2002 88.9 48.6002C93.6 47.5002 102.1 46.4002 106.7 47.9002" stroke="#2D1F04" stroke-width="2.62" stroke-miterlimit="10" stroke-linecap="round" stroke-linejoin="round"/>
<path d="M107.6 48.9C106.2 46.2 103.8 41.7 105.1 38.6C105.2 38.4 106.2 37.3 106.5 37.5C107.4 38 108.1 39.6 109.2 40.2C113.7 42.6 118.8 44.3 123.8 45.5C126.8 46.2 129.8 46.4 132.7 47.1C133.4 47.2 134.8 47.3 134.8 47.3C134.8 47.3 130.8 43.7 132.3 43C132.6 42.9 160.3 48.8 172.7 56" stroke="#2D1F04" stroke-width="2.62" stroke-miterlimit="10" stroke-linecap="round" stroke-linejoin="round"/>
<path d="M143.9 73.4001C189.5 77.9001 201.7 112.8 201.7 112.8" stroke="#2D1F04" stroke-width="7.6" stroke-miterlimit="10" stroke-linecap="round" stroke-linejoin="round"/>
<path d="M110.7 76.8C70.4 81.1 62.8 126.8 62.8 126.8" stroke="#2D1F04" stroke-width="7.6" stroke-miterlimit="10" stroke-linecap="round" stroke-linejoin="round"/>
<path d="M120.9 131.6C120.8 128.6 126.5 126 133.8 125.6C141.1 125.2 147.1 127.3 147.3 130.3C147.4 133.3 141.7 135.9 134.4 136.3C127 136.7 121 134.6 120.9 131.6Z" fill="#2D1F04"/>
<path d="M163.2 32.6C163.2 32.5 163.3 32.5 163.4 32.5C163.5 32.5 163.6 32.6 163.6 32.6C163.6 32.7 163.5 32.7 163.4 32.7C163.3 32.8 163.2 32.7 163.2 32.6Z" fill="#2D1F04"/>
<path d="M165.2 114.9C164.9 114.9 164.5 114.8 164.2 114.8L165.2 114.9Z" fill="#2D1F04"/>
<path d="M182.2 60.6002C180.6 56.5002 185.2 46.7002 187.9 44.2002" stroke="#2D1F04" stroke-width="2.62" stroke-miterlimit="10" stroke-linecap="round" stroke-linejoin="round"/>
<path d="M200.8 76.7C199.2 72.6 201.7 60.9 209.9 57" stroke="#2D1F04" stroke-width="2.62" stroke-miterlimit="10" stroke-linecap="round" stroke-linejoin="round"/>
<path d="M216.7 97.3002C221.3 97.7002 223.7 96.0002 228.1 92.7002L216.7 97.3002Z" fill="#2D1F04"/>
<path d="M216.7 97.3002C221.3 97.7002 223.7 96.0002 228.1 92.7002" stroke="#2D1F04" stroke-width="2.62" stroke-miterlimit="10" stroke-linecap="round" stroke-linejoin="round"/>
<path d="M226.1 117.5C228.4 117.7 232 117.6 235 116.4L226.1 117.5Z" fill="#2D1F04"/>
<path d="M226.1 117.5C228.4 117.7 232 117.6 235 116.4" stroke="#2D1F04" stroke-width="2.62" stroke-miterlimit="10" stroke-linecap="round" stroke-linejoin="round"/>
<path d="M163.8 51.7001C158.2 48.2001 159.5 34.9 164.1 28.3" stroke="#2D1F04" stroke-width="2.62" stroke-miterlimit="10" stroke-linecap="round" stroke-linejoin="round"/>
<path d="M134.4 42.7002C129.4 36.7002 123.6 34.6002 125.8 16.7002" stroke="#2D1F04" stroke-width="2.62" stroke-miterlimit="10" stroke-linecap="round" stroke-linejoin="round"/>
<path d="M72.6 85.2C69.7 84.9 63.3 84.6 58.7 82L72.6 85.2Z" fill="#2D1F04"/>
<path d="M72.6 85.2C69.7 84.9 63.3 84.6 58.7 82" stroke="#2D1F04" stroke-width="2.62" stroke-miterlimit="10" stroke-linecap="round" stroke-linejoin="round"/>
<path d="M64.9 131C64.7 133.2 63 136 58.2 137.2L64.9 131Z" fill="#2D1F04"/>
<path d="M64.9 131C64.7 133.2 63 136 58.2 137.2" stroke="#2D1F04" stroke-width="2.62" stroke-miterlimit="10" stroke-linecap="round" stroke-linejoin="round"/>
<path d="M68.9001 143.4C67.8001 145.1 67.9001 148.7 62.1001 150.9L68.9001 143.4Z" fill="#2D1F04"/>
<path d="M68.9001 143.4C67.8001 145.1 67.9001 148.7 62.1001 150.9" stroke="#2D1F04" stroke-width="2.62" stroke-miterlimit="10" stroke-linecap="round" stroke-linejoin="round"/>
<path d="M114.7 23.5C114.5 31.1 115.6 39.7 124.9 45.5" stroke="#2D1F04" stroke-width="2.62" stroke-miterlimit="10" stroke-linecap="round" stroke-linejoin="round"/>
<path d="M174 44.4001C172.6 48.4001 170.8 54.3001 176 57.6001" stroke="#2D1F04" stroke-width="2.62" stroke-miterlimit="10" stroke-linecap="round" stroke-linejoin="round"/>
<path d="M207.9 86.0001C207.2 72.2001 215.7 66.2001 222.5 62.9001" stroke="#2D1F04" stroke-width="2.62" stroke-miterlimit="10" stroke-linecap="round" stroke-linejoin="round"/>
<path d="M231.7 136.2C231.7 136 235.8 138.2 239.2 137.4L231.7 136.2Z" fill="#2D1F04"/>
<path d="M231.7 136.2C231.7 136 235.8 138.2 239.2 137.4" stroke="#2D1F04" stroke-width="2.62" stroke-miterlimit="10" stroke-linecap="round" stroke-linejoin="round"/>
<path d="M133.5 136.6C132.5 151.7 146.3 142.1 147.2 157.8" stroke="#2D1F04" stroke-width="3.05" stroke-miterlimit="10" stroke-linecap="round" stroke-linejoin="round"/>
<path d="M151.5 43.8C151.2 43.5 151 43.1 150.7 42.8L151.5 43.8Z" fill="#2D1F04"/>
<path d="M95.5001 106.1C102.2 106.1 107.6 111.5 107.6 118.1V118.9C107.6 125.5 102.2 130.9 95.5001 130.9C88.8001 130.9 83.4001 125.5 83.4001 118.9V118.1C83.4001 111.4 88.8001 106.1 95.5001 106.1Z" fill="#2D1F04"/>
<path d="M95.5001 106.1C102.2 106.1 107.6 111.5 107.6 118.1V118.9C107.6 125.5 102.2 130.9 95.5001 130.9C88.8001 130.9 83.4001 125.5 83.4001 118.9V118.1C83.4001 111.4 88.8001 106.1 95.5001 106.1Z" stroke="#2D1F04" stroke-width="2.6" stroke-miterlimit="10" stroke-linecap="round" stroke-linejoin="round"/>
<path d="M172.5 108.2C179.2 108.2 184.6 113.6 184.6 120.2V121C184.6 127.6 179.2 133 172.5 133C165.8 133 160.4 127.6 160.4 121V120.2C160.4 113.5 165.8 108.2 172.5 108.2Z" fill="#2D1F04"/>
<path d="M172.5 108.2C179.2 108.2 184.6 113.6 184.6 120.2V121C184.6 127.6 179.2 133 172.5 133C165.8 133 160.4 127.6 160.4 121V120.2C160.4 113.5 165.8 108.2 172.5 108.2Z" stroke="#2D1F04" stroke-width="2.6" stroke-miterlimit="10" stroke-linecap="round" stroke-linejoin="round"/>
<path d="M92.9001 118.3C92.9001 116.6 94.2001 115.2 95.8001 115.2C97.4001 115.2 98.7001 116.6 98.7001 118.3C98.7001 120 97.4001 121.4 95.8001 121.4C94.2001 121.3 92.9001 119.9 92.9001 118.3Z" fill="#2D1F04"/>
<path d="M116.8 12.7001C116.8 11.0001 118.1 9.6001 119.7 9.6001C121.3 9.6001 122.6 11.0001 122.6 12.7001C122.6 14.4001 121.3 15.8001 119.7 15.8001C118.1 15.8001 116.8 14.4001 116.8 12.7001Z" fill="#2D1F04"/>
<path d="M149.5 12.5001C149.5 10.8001 150.8 9.40015 152.4 9.40015C154 9.40015 155.3 10.8001 155.3 12.5001C155.3 14.2001 154 15.6001 152.4 15.6001C150.8 15.6001 149.5 14.2001 149.5 12.5001Z" fill="#2D1F04"/>
<path d="M179.4 19.3002C179.4 17.6002 180.7 16.2002 182.3 16.2002C183.9 16.2002 185.2 17.6002 185.2 19.3002C185.2 21.0002 183.9 22.4002 182.3 22.4002C180.7 22.3002 179.4 20.9002 179.4 19.3002Z" fill="#2D1F04"/>
<path d="M212 37.9001C212 36.2001 213.3 34.8 214.9 34.8C216.5 34.8 217.8 36.2001 217.8 37.9001C217.8 39.6001 216.5 41 214.9 41C213.4 41 212 39.6001 212 37.9001Z" fill="#2D1F04"/>
<path d="M231.3 61.5001C231.3 59.8001 232.6 58.4001 234.2 58.4001C235.8 58.4001 237.1 59.8001 237.1 61.5001C237.1 63.2001 235.8 64.6001 234.2 64.6001C232.6 64.6001 231.3 63.2001 231.3 61.5001Z" fill="#2D1F04"/>
<path d="M238.7 92.7001C238.7 91.0001 240 89.6001 241.6 89.6001C243.2 89.6001 244.5 91.0001 244.5 92.7001C244.5 94.4001 243.2 95.8001 241.6 95.8001C240 95.7001 238.7 94.4001 238.7 92.7001Z" fill="#2D1F04"/>
<path d="M244.7 119.3C244.7 117.6 246 116.2 247.6 116.2C249.2 116.2 250.5 117.6 250.5 119.3C250.5 121 249.2 122.4 247.6 122.4C246 122.4 244.7 121 244.7 119.3Z" fill="#2D1F04"/>
<path d="M85.8 31.2001C85.8 29.5001 87.1 28.1001 88.7 28.1001C90.3 28.1001 91.6 29.5001 91.6 31.2001C91.6 32.9001 90.3 34.3001 88.7 34.3001C87.1 34.3001 85.8 32.9001 85.8 31.2001Z" fill="#2D1F04"/>
<path d="M68.6001 48.4001C68.6001 46.7001 69.9001 45.3 71.5001 45.3C73.1001 45.3 74.4001 46.7001 74.4001 48.4001C74.4001 50.1001 73.1001 51.5 71.5001 51.5C69.9001 51.5 68.6001 50.1001 68.6001 48.4001Z" fill="#2D1F04"/>
<path d="M56.6001 73.8002C56.6001 72.1002 57.9001 70.7002 59.5001 70.7002C61.1001 70.7002 62.4001 72.1002 62.4001 73.8002C62.4001 75.5002 61.1001 76.9002 59.5001 76.9002C57.9001 76.9002 56.6001 75.5002 56.6001 73.8002Z" fill="#2D1F04"/>
<path d="M48.8 107.2C48.8 105.5 50.1001 104.1 51.7001 104.1C53.3001 104.1 54.6 105.5 54.6 107.2C54.6 108.9 53.3001 110.3 51.7001 110.3C50.1001 110.3 48.8 108.9 48.8 107.2Z" fill="#2D1F04"/>
<path d="M56.5 144.6C56.5 142.9 57.8 141.5 59.4 141.5C61 141.5 62.3 142.9 62.3 144.6C62.3 146.3 61 147.7 59.4 147.7C57.8 147.6 56.5 146.2 56.5 144.6Z" fill="#2D1F04"/>
<path d="M169.8 119.9C169.8 118.2 171.1 116.8 172.7 116.8C174.3 116.8 175.6 118.2 175.6 119.9C175.6 121.6 174.3 123 172.7 123C171.2 122.9 169.8 121.5 169.8 119.9Z" fill="#2D1F04"/>
<path d="M180.5 244.4C180.5 242.7 181.8 241.3 183.4 241.3C185 241.3 186.3 242.7 186.3 244.4C186.3 246.1 185 247.5 183.4 247.5C181.9 247.5 180.5 246.1 180.5 244.4Z" fill="#2D1F04"/>
<path d="M108.8 237.9C108.8 236.2 110.1 234.8 111.7 234.8C113.3 234.8 114.6 236.2 114.6 237.9C114.6 239.6 113.3 241 111.7 241C110.1 240.9 108.8 239.6 108.8 237.9Z" fill="#2D1F04"/>
<path d="M33.2 330.1C28.3 335 14.7 341.3 8.59996 346.7C6.89996 348.2 2.59996 351.9 2.79996 354.5C2.89996 355.3 3.49996 355 3.89996 354.9C8.69996 354.4 15.9 353.9 20.7 354.7C25.4 355.5 45.1 361.1 48.2 358.1C49.6 356.8 49.1 354.6 48.8 353C47.5 344.4 42 338.8 36.2 332.7C35.3 331.8 34 329.3 33.2 330.1Z" fill="#2D1F04"/>
<path d="M145.3 341.2L121.3 366.1L116.6 375.5C116.7 375.6 118.7 374.3 118.7 374.3C123 371.5 131.5 367.7 136.7 366.6C143 365.3 150.1 363.6 156.1 361.6C156.5 361.5 158.7 361.5 158.5 360.7C156.7 354 145.3 341.2 145.3 341.2Z" fill="#2D1F04"/>
<path d="M179 311.6C178.7 312 179.8 311.2 180.2 311C182 310.2 183.9 310.4 185.8 310.4C189.1 310.4 200.1 313.2 201.1 317.2C201.4 318.5 193 329.8 191.7 331.6C188.9 335.4 191.2 344.8 188.5 347.5C188.4 347.6 183 342.1 182.6 341.6C178.3 335.9 175.1 330.2 176.4 322.5C176.8 320 176.5 317.3 177 314.8C177.1 313.8 179.8 310.5 179 311.6Z" fill="#2D1F04"/>
<path d="M230.1 137.7C193.2 210.9 141 213.4 141.6 214.2C142.9 215.9 192.8 211.2 231.1 149.7C233.4 145.9 232.9 132 230.1 137.7Z" fill="#2D1F04"/>
<path d="M44.1001 284.7C26.6001 277.1 27.4001 245.9 32.6001 233.7C46.6001 200.9 74.5001 179.1 106 164C121.9 156.4 143.4 152.3 143.4 152.7C143.4 153.3 137.3 156.4 136.5 156.9C131.7 159.3 124.7 164.1 123.6 169.8C122.9 173.1 125.7 177.8 124.8 181.8C123.3 188 116.5 190.6 113 195.2C109.9 199.3 107.2 204.2 104.9 208.8C92.6001 233.1 68.6001 295.4 44.1001 284.7Z" fill="#2D1F04"/>
<path d="M107.4 165.1C106 166.2 111.2 168.2 112.6 169.8C114.7 172.2 116.1 177 117.2 180.1C118.1 182.7 118.5 185.6 119 188.2C119.1 188.7 118.5 191.3 119.2 191.2C120.8 190.9 121.4 189.3 122.6 188.4C131.3 181.9 121.6 170.3 127.6 164.4C129.2 162.8 142.3 155.3 142.3 154.9C142.3 153.6 134.9 155 134.2 155.3C125.4 158.7 114.8 159.4 107.4 165.1Z" fill="#2D1F04"/>
<path d="M78.2 263C79.8 263 75.4 269.8 74.2 271.8C70.7 277.7 64.9 279.8 60.3 284.3C60.1 284.5 58.7 285.3 58.7 285.7C58.9 287 67.7 286.3 69 286.8C75.9 289.3 83 293.9 87.3 299.8C90.3 303.9 89.4 308.5 89.7 313.1C89.8 315.2 92.8 318.7 93.5 321C94.1 322.7 92.4 324.3 92.8 325.9C94.4 332.5 103 344.1 109.2 347.2C112.5 348.9 134.3 351 134.9 350.5C143.3 344.3 150.9 337.3 159.2 331.1C160.7 330 175.2 323.3 175.4 323C178.2 318.2 175.7 311.2 183.3 308C187.3 306.3 194.2 308.2 198.6 308C211.7 307.3 222.4 299 229.7 288.7C232.6 284.5 236.4 281.7 236.1 276C235.9 271.3 234.1 266.2 234.8 261.5C234.9 260.9 235.1 260.8 234.5 260.5C232.7 259.9 230.7 263.2 229.6 264.3C228 265.9 225.1 266.6 223 267.4C213.4 271.1 202.1 275 191.8 275.5C189 275.6 186.1 278 183.2 278.1C177.7 278.4 171.2 278.6 165.9 276.7C162.9 275.6 164.4 272.1 162.1 271.4C152.3 268.2 140.9 267.1 130.6 265.6C124.5 264.7 117.9 264.1 111.9 265.6C108 266.5 103.3 267.3 99.7 269.3C99.5 269.4 98.4 270.1 98.2 270C97.2999 269.2 96.5 268.8 95 268.4C91.2 267.4 85.7 266.9 82.3 264.9C80.9 264.1 79.2 264 77.7 263.8C77.2 263.7 76 263.6 76.4 263.4C77 263.1 77.6 263 78.2 263Z" fill="#2D1F04"/>
<path d="M106.6 164.8C106.6 166.8 118.9 173.1 118.9 190.8" stroke="#2D1F04" stroke-width="2.62" stroke-miterlimit="10" stroke-linecap="round" stroke-linejoin="round"/>
<path d="M142.2 154.7C137.5 157.1 117.9 170.5 115.6 175.2L142.2 154.7Z" fill="#2D1F04"/>
<path d="M142.2 154.7C137.5 157.1 117.9 170.5 115.6 175.2" stroke="#2D1F04" stroke-width="2.62" stroke-miterlimit="10" stroke-linecap="round" stroke-linejoin="round"/>
<path d="M125.3 175.5C124.9 175.3 118.1 181.9 118.1 181.9L125.3 175.5Z" fill="#2D1F04"/>
<path d="M125.3 175.5C124.9 175.3 118.1 181.9 118.1 181.9" stroke="#2D1F04" stroke-width="2.62" stroke-miterlimit="10" stroke-linecap="round" stroke-linejoin="round"/>
<path d="M45.5 285.1C28 277.5 28.8 246.3 34 234.1C48 201.3 75.9 179.5 107.4 164.4C123.3 156.8 144.8 152.7 144.8 153.1C144.8 153.7 138.7 156.8 137.9 157.3C133.1 159.7 126.1 164.5 125 170.2C124.4 173.5 127.1 178.2 126.2 182.2C124.7 188.4 117.9 191 114.4 195.6C111.3 199.7 108.6 204.6 106.3 209.2C94.1 233.5 70.1 295.7 45.5 285.1Z" stroke="#2D1F04" stroke-width="2.62" stroke-miterlimit="10" stroke-linecap="round" stroke-linejoin="round"/>
<path d="M48.4001 286.1C31.5001 286.1 21.7001 303.6 27.6001 318.5C29.1001 322.2 30.4001 325.7 34.2001 327.6" stroke="#2D1F04" stroke-width="2.62" stroke-miterlimit="10" stroke-linecap="round" stroke-linejoin="round"/>
<path d="M54.3001 323.3C32.3001 323 -0.0999416 354.7 2.10006 354.7C34.2001 354.7 59.4001 363.3 75.4001 355.3C82.0001 352 84.3001 341.6 80.7001 334.5" stroke="#2D1F04" stroke-width="2.62" stroke-miterlimit="10" stroke-linecap="round" stroke-linejoin="round"/>
<path d="M82.6001 345C88.1001 345 106.5 345.2 111.7 347.9" stroke="#2D1F04" stroke-width="2.62" stroke-miterlimit="10" stroke-linecap="round" stroke-linejoin="round"/>
<path d="M175.7 322C165.7 327 157.7 331.9 148.7 338.7C137.9 346.8 113.4 374.8 113.8 375.2C114.9 376.3 142.1 362 162.9 360.7C178.1 359.8 245.6 373.3 262.6 357.6C279.6 341.9 269.3 324.8 258.8 321.1C230.5 311 201.8 317.8 201.6 318.3" stroke="#2D1F04" stroke-width="2.62" stroke-miterlimit="10" stroke-linecap="round" stroke-linejoin="round"/>
<path d="M231.7 145.5C234 168.7 354.9 292 263 321.4" stroke="#2D1F04" stroke-width="2.62" stroke-miterlimit="10" stroke-linecap="round" stroke-linejoin="round"/>
<path d="M213.5 222.3C229.2 238 245.4 267.2 229.9 289C223.6 297.9 215.7 306.3 204.7 308.5C195.7 310.3 186.9 303.6 178.9 311.6C172.8 317.7 177.5 331.3 181.1 337.4C182.2 339.2 188.6 346.8 188.6 346.8C188.6 346.8 192.2 322.2 201.2 318.5" stroke="#2D1F04" stroke-width="2.62" stroke-miterlimit="10" stroke-linecap="round" stroke-linejoin="round"/>
<path d="M112.6 198.1C115.1 201.8 123.6 211 137.4 214.7" stroke="#2D1F04" stroke-width="2.62" stroke-miterlimit="10" stroke-linecap="round" stroke-linejoin="round"/>
<path d="M114.3 195.9C116.8 199.6 125.5 211.2 139.3 214.8" stroke="#2D1F04" stroke-width="2.62" stroke-miterlimit="10" stroke-linecap="round" stroke-linejoin="round"/>
<path d="M141.1 215.3C140.9 215.3 140.7 215.3 140.5 215.3" stroke="#2D1F04" stroke-width="2.62" stroke-miterlimit="10" stroke-linecap="round" stroke-linejoin="round"/>
<path d="M140.2 215.9C134.7 213.6 119.8 229.8 126.2 232.6C130.5 234.4 137 223 138.1 219.2C138.3 218.4 139.2 215.9 140.6 216.7C142 217.4 141.9 219.7 141.9 220.9C141.9 225.9 141.3 231.8 145.1 235.5C147.6 238 151.2 233.5 150.8 231C150 225.2 145.6 218.1 140.2 215.9Z" stroke="#2D1F04" stroke-width="2.62" stroke-miterlimit="10" stroke-linecap="round" stroke-linejoin="round"/>
<path d="M141.5 215.5C137.7 221.6 133.8 246.9 136.2 254.1" stroke="#2D1F04" stroke-width="2.62" stroke-miterlimit="10" stroke-linecap="round" stroke-linejoin="round"/>
<path d="M140.9 216.8C136 226.5 144.4 247.5 151.5 254.6" stroke="#2D1F04" stroke-width="2.62" stroke-miterlimit="10" stroke-linecap="round" stroke-linejoin="round"/>
<path d="M158.3 275.3C195.8 282.7 231.7 263.5 234.9 260.3" stroke="#2D1F04" stroke-width="2.62" stroke-miterlimit="10" stroke-linecap="round" stroke-linejoin="round"/>
<path d="M78.3 263.3C80.6 265.1 96.7 268.7 100.8 268.7" stroke="#2D1F04" stroke-width="2.62" stroke-miterlimit="10" stroke-linecap="round" stroke-linejoin="round"/>
<path d="M163.5 274.4C163.5 275.9 163.9 272.8 163.5 272.2C162.8 271.1 160.9 270.3 159.7 270C154.6 268.5 106.5 256.8 96.8001 273.8C84.4001 295.4 90.4001 332.4 104.4 344.1C111.9 350.3 125.5 350.6 134.7 350.6" stroke="#2D1F04" stroke-width="2.62" stroke-miterlimit="10" stroke-linecap="round" stroke-linejoin="round"/>
<path d="M157.4 275.5C142.1 285.7 142.8 318 155.4 333.2" stroke="#2D1F04" stroke-width="2.62" stroke-miterlimit="10" stroke-linecap="round" stroke-linejoin="round"/>
<path d="M155.4 268.7C109.1 264.9 98.3001 346.9 120.1 349.6" stroke="#2D1F04" stroke-width="2.62" stroke-miterlimit="10" stroke-linecap="round" stroke-linejoin="round"/>
<path d="M153.3 281.7C179 286.5 201.4 283.5 214.6 279.6" stroke="#2D1F04" stroke-width="2.62" stroke-miterlimit="10" stroke-linecap="round" stroke-linejoin="round"/>
<path d="M75.2001 269.3C75.1001 268.8 83.1002 272.3 88.9002 273.1" stroke="#2D1F04" stroke-width="2.62" stroke-miterlimit="10" stroke-linecap="round" stroke-linejoin="round"/>
<path d="M58.2 284.7C72.6 286.7 83.7 292.6 89.5 300.7" stroke="#2D1F04" stroke-width="2.62" stroke-miterlimit="10" stroke-linecap="round" stroke-linejoin="round"/>
<path d="M180 310.9C186.5 308.7 197.9 311.2 201.2 317.8" stroke="#2D1F04" stroke-width="2.62" stroke-miterlimit="10" stroke-linecap="round" stroke-linejoin="round"/>
<path d="M190.2 310.6C177.7 314.8 182.9 337.2 186.9 345.1" stroke="#2D1F04" stroke-width="2.62" stroke-miterlimit="10" stroke-linecap="round" stroke-linejoin="round"/>
<path d="M33.9001 330.5C40.3001 336.6 48.7001 346.1 47.7001 357.3" stroke="#2D1F04" stroke-width="2.62" stroke-miterlimit="10" stroke-linecap="round" stroke-linejoin="round"/>
<path d="M4.6001 353.4C12.8001 346.6 29.5001 337.7 40.6001 338.7" stroke="#2D1F04" stroke-width="2.62" stroke-miterlimit="10" stroke-linecap="round" stroke-linejoin="round"/>
<path d="M6.80005 352.3C20 353.5 33.3 347.1 46.5 348.3" stroke="#2D1F04" stroke-width="2.62" stroke-miterlimit="10" stroke-linecap="round" stroke-linejoin="round"/>
<path d="M146.6 341.3C149.7 346.9 151.7 355.8 160 361.2" stroke="#2D1F04" stroke-width="2.62" stroke-miterlimit="10" stroke-linecap="round" stroke-linejoin="round"/>
<path d="M118 371.9C128.1 363.5 138.2 356.2 150.6 351.3" stroke="#2D1F04" stroke-width="2.62" stroke-miterlimit="10" stroke-linecap="round" stroke-linejoin="round"/>
<path opacity="0.23" d="M215.4 171.7C317.6 262.4 282 304.5 265.6 310.6C246.5 317.8 242.4 313.5 233.5 315C231.1 315.4 226.3 315.7 226.3 315.7C226.3 315.7 239.2 314 242.4 318.4C256.9 339 229.8 350.2 213.7 329.3C210 324.5 204.3 316.8 199.7 319.8C191.4 325.2 191.8 345.5 187.9 345.6C183.9 345.7 177.1 330.5 175.8 320.6C161.7 325.7 145.1 338.5 125.1 361.1C124.7 361.6 114.9 373.2 116.2 374.1C119.4 376.2 129.9 369.2 132.9 367.9C145.4 362.6 159 357.1 172.2 359.7C176.2 360.5 194.2 362 198.5 363.1C215 367.2 262.8 369.6 267.9 349.4C269.8 341.8 275.1 337.1 262.1 322.1C260.9 320.7 262.8 322.6 262.8 320.7C262.8 319.9 279.1 313.7 280.9 312.2C292.1 302.6 293.9 292.7 296.6 279C302.8 248.2 263.9 196.3 246.4 174.4C240.2 166.6 237.8 159.2 233.4 150.5C233.2 150 230.1 148.8 229.6 148.8C225.8 149 217.5 172.2 215.4 171.7Z" fill="#2D1F04"/>
<path opacity="0.23" d="M32.1001 294.4C32.5001 293.3 30.7001 296.3 30.2001 297.3C29.1001 299.6 29.2001 303 30.0001 305.4C32.2001 311.9 40.4001 315.8 46.7001 317.2C60.9001 320.3 78.9001 301.9 88.8001 305.4C91.9001 306.5 92.4001 319 93.5001 322.3C99.9001 341.5 127.2 343.7 138.3 340.4C149.1 337.2 175 323.5 175.8 322.5C179 318.5 175.4 311.9 181.7 311.4C207 309.6 248.1 302.3 213.8 225C212.1 221.2 233.7 249.8 234.2 256C235.7 276.6 237.9 286.6 221.6 300.2C218.4 302.8 213.8 307.2 209.3 307.7C199.3 308.8 198.7 308.6 178.2 311.4C173.1 312.1 176.8 319.3 175.5 323C175.3 323.6 166.5 326.6 165.1 327.7C162.6 329.8 136.2 350.3 135.5 350.4C123.4 351.7 91.9001 342.3 83.2001 347C78.3001 349.7 83.4001 352.5 76.2001 355.3C63.3001 360.3 35.7001 356.2 22.3001 355C19.5001 354.7 8.80009 354.8 7.40009 352.3C5.30009 348.4 30.5001 329 36.0001 328.2C36.4001 328.1 33.0001 328.7 33.0001 328.2C33.3001 325.1 31.5001 324.6 29.5001 322.2C22.8001 313.9 28.9001 302 32.1001 294.4Z" fill="#2D1F04"/>
<path opacity="0.23" d="M160.7 275.2C162.8 276 157.3 278.3 156.5 280.3C154.8 284.2 154.9 290.3 155.2 294.5C155.9 303.8 161.3 313.3 168.1 319.4C168.6 319.9 171.8 322.9 171.5 323.5C170.6 325.7 158.1 332.9 155.6 332C138 326 142.4 268.4 160.7 275.2Z" fill="#2D1F04"/>
<path opacity="0.23" d="M78.4001 264C84.1001 263.6 88.5001 267.4 94.3001 269.1C96.8001 269.8 102.5 270.1 99.9001 269.9C96.0001 269.5 89.8001 286.3 89.5001 288.9C89.2001 291.8 91.3001 297.7 88.5001 297.4C87.0001 297.3 68.6001 286.2 62.9001 284.6C62.2001 284.4 61.2001 284.4 60.8001 283.9C59.5001 282.4 67.1001 277.8 67.9001 277C71.8001 273.1 73.2001 264.4 78.4001 264Z" fill="#2D1F04"/>
<path opacity="0.23" d="M151.6 268.1C112.6 272.9 111.7 337.4 110.9 336.5C110.7 336.2 110.3 329.6 109.8 325.1C108 308 119.2 280.6 145.5 270" fill="#2D1F04"/>
<path opacity="0.23" d="M106.1 207.8C73.7001 285.8 40.1001 275.5 32.2001 252.4C30.8001 252.3 33.4001 265.9 33.5001 267.4C35.0001 281.1 59.0001 307.8 88.3001 246.7" fill="#2D1F04"/>
<path opacity="0.23" d="M141.5 155.6C139.2 154.6 137.5 158.6 136.1 160.4C133.6 163.5 131.3 168 132 172.4C132.6 175.8 135.1 181.8 133.1 185.1C130.3 189.8 124.6 193.4 120.8 197.1C115.2 202.7 111.4 210.6 108.5 217.8C107.7 219.7 105.8 226.4 103.6 233.7C101.1 242 98.1 251.1 95.8 255.3C94.1 258.4 91.4 264.1 88.1 265.7C86.8 266.3 80 262.4 80.4 261.4C82.4 256 86.7 251.9 88.8 246.6C92 238.5 94.9 231 98.8 223.2C102.3 216.1 105.8 209.6 109.9 202.8C111.1 200.7 111.5 198.1 113.1 196.2C115.8 192.8 125.9 186.7 126.7 183.5C128 178.3 122.7 172.3 124.7 167.4C126.6 162.6 131.4 160.4 135.8 158.5C136.8 158.2 142.5 156.1 141.5 155.6Z" fill="#2D1F04"/>
<path opacity="0.23" d="M230.7 139.8C231.4 99.3001 217 35.6001 149.4 29.7001C41.2 20.1001 69.8 151.9 72.8 156.3C74.5 158.8 76.4 161.3 78.1 163.8C78.4 164.3 79.2 165.1 79.2 165.1C79.2 165.1 78.6 164.1 78.4 163.5C77 160.6 75.5 158 74.2 155.1C71.3 148.8 71.3 141.4 69.5 134.8C67.3 126.9 64.7 117.2 65.3 109C65.7 103 69.6 95.9001 71.5 90.3001C72.8 86.5001 80.5 76.2001 82 72.5001C83.2 69.4001 79.1 71.9001 81.7 70.1001C82.1 69.8001 86.2 68.4001 85.8 67.8001C85 66.6001 75.2 70.4001 73.6 71.0001C73.2 71.1001 72.6 71.7001 72.4 71.3001C71.1 69.3001 82.2 64.8001 83.9 64.3001C84.5 64.1001 85.5 64.1001 85.5 63.5001C85.3 61.9001 76.9 63.0001 76.8 61.8001C76.7 58.9001 83.8 54.8001 85.7 53.7001C86.9 53.1001 88.4 52.8001 89.6 52.5001C90.1 52.4001 91.4 52.4001 91.1 52.0001C90.7 51.4001 84.2 51.2001 84.4 50.4001C84.5 49.7001 89.3 49.0001 89.8 48.9001C94.2 47.9001 99.1 47.1001 103.5 47.9001C104.1 48.0001 107.8 49.4001 108.1 48.8001C108.7 47.5001 103.7 38.9001 106.3 37.8001C106.3 37.8001 111.3 41.2001 111.8 41.4001C117.8 44.4001 124.1 48.1001 131 48.3001C131.6 48.3001 132.1 48.1001 132.7 48.1001C136.9 47.9001 133.2 47.1001 133.3 43.7001C133.3 43.5001 132.9 43.2001 133.1 43.1001C133.7 42.9001 143.8 46.1001 145.1 46.6001C150.5 48.8001 156.2 51.4001 162.9 51.8001C164 51.9001 165.9 52.4001 171.9 55.8001C178 59.2001 177.3 58.5001 183 62.5001C188.7 66.4001 190.9 66.7001 195.9 72.6001C198.3 75.4001 202.7 81.0001 205.1 83.1001C211.2 88.6001 214 95.7001 216.9 103.9C218 106.9 219.3 107.4 220.6 110C221.3 111.4 223.3 112.7 224.3 113.8C226.6 116.3 228.7 121.6 229.1 124.9C229.3 126.5 228.5 128 228.5 129.6C228.3 133.4 231.1 139.1 230.7 139.8Z" fill="#2D1F04"/>
<path d="M231.6 147.3C224.4 160.9 193.5 209 139.4 214.7" stroke="#2D1F04" stroke-width="2.62" stroke-miterlimit="10" stroke-linecap="round" stroke-linejoin="round"/>
<path d="M230.5 138.6C223.3 152.2 195.8 200.8 149.9 212.8" stroke="#2D1F04" stroke-width="2.62" stroke-miterlimit="10" stroke-linecap="round" stroke-linejoin="round"/>
<path d="M156.1 49C160.9 50.6 165.4 52.5 169.7 54.6C216.2 77.5 230.6 127.5 231.7 145.2" stroke="#2D1F04" stroke-width="2.62" stroke-miterlimit="10" stroke-linecap="round" stroke-linejoin="round"/>
<path opacity="0.23" d="M204.4 249.6C200 250.2 198.7 261.7 174.9 257.5C160.8 255 158 250.5 149.4 248.8C139 246.7 134.5 248.3 124 249.6C104.5 252.1 102.4 242.6 101.2 248.5C100 254.3 136.7 247.7 145.2 251C158.8 256.3 171.6 265.8 188.4 264.2C197.8 263.4 213 248.4 204.4 249.6Z" fill="#2D1F04"/>
<path d="M153.7 289.8C156.7 289.9 159.6 289.9 162.5 290C164.9 290.1 165.8 291.6 165.9 293.1C166.1 295.1 165.2 296.6 163.2 297.3C163.1 297.3 163 297.4 162.8 297.4C165.2 298.7 165.6 301.2 167 303.4C165.3 303.4 163.8 303.4 162.2 303.4C161.5 302 160.7 300.6 159.9 299.2C159.5 298.4 158.9 297.8 157.8 298.1C157.8 299.9 157.8 301.6 157.8 303.5C156.3 303.5 155 303.5 153.7 303.5C153.7 299 153.7 294.5 153.7 289.8ZM157.9 292.7C157.9 293.6 157.9 294.5 157.9 295.5C158.8 295.4 159.7 295.5 160.6 295.3C161.4 295.2 161.8 294.7 161.8 294C161.8 293.3 161.4 292.8 160.6 292.7C159.7 292.6 158.8 292.7 157.9 292.7Z" fill="#2D1F04"/>
<path d="M178.7 293.7C177.4 293.8 176.1 293.9 174.8 294C174.6 292.9 173.9 292.2 172.8 292.2C172.1 292.2 171.5 292.4 171.2 293.2C171.2 293.9 171.7 294.1 172.2 294.2C173.2 294.5 174.2 294.7 175.2 295C175.7 295.2 176.3 295.4 176.8 295.6C180.1 297.1 179.8 300.9 177.5 302.6C176.7 303.2 175.8 303.5 174.8 303.7C173.3 304 171.7 303.9 170.2 303.5C168.2 303 166.9 301.3 166.9 299.1C168.2 299 169.4 299 170.7 298.9C170.8 299.2 170.9 299.4 170.9 299.7C171.4 301 172.8 301.6 174 301.1C174.6 300.9 175 300.5 175 299.8C175 299.2 174.7 298.8 174.1 298.6C173.7 298.4 173.2 298.3 172.7 298.1C171.7 297.8 170.7 297.6 169.8 297.2C168 296.5 167.1 295.2 167.1 293.6C167.2 291.9 168.3 290.5 170.2 290C172 289.5 173.8 289.5 175.6 290C177.7 290.6 178.6 291.7 178.7 293.7Z" fill="#2D1F04"/>
<path d="M131.636 226.636V225.545C131.758 213.97 132.97 204.758 135.273 197.909C137.576 191.061 140.848 185.515 145.091 181.273C149.333 177.03 154.424 173.121 160.364 169.545C163.939 167.364 167.152 164.788 170 161.818C172.848 158.788 175.091 155.303 176.727 151.364C178.424 147.424 179.273 143.061 179.273 138.273C179.273 132.333 177.879 127.182 175.091 122.818C172.303 118.455 168.576 115.091 163.909 112.727C159.242 110.364 154.061 109.182 148.364 109.182C143.394 109.182 138.606 110.212 134 112.273C129.394 114.333 125.545 117.576 122.455 122C119.364 126.424 117.576 132.212 117.091 139.364H94.1818C94.6667 129.061 97.3333 120.242 102.182 112.909C107.091 105.576 113.545 99.9697 121.545 96.0909C129.606 92.2121 138.545 90.2727 148.364 90.2727C159.03 90.2727 168.303 92.3939 176.182 96.6364C184.121 100.879 190.242 106.697 194.545 114.091C198.909 121.485 201.091 129.909 201.091 139.364C201.091 146.03 200.061 152.061 198 157.455C196 162.848 193.091 167.667 189.273 171.909C185.515 176.152 180.97 179.909 175.636 183.182C170.303 186.515 166.03 190.03 162.818 193.727C159.606 197.364 157.273 201.697 155.818 206.727C154.364 211.758 153.576 218.03 153.455 225.545V226.636H131.636ZM143.273 280.455C138.788 280.455 134.939 278.848 131.727 275.636C128.515 272.424 126.909 268.576 126.909 264.091C126.909 259.606 128.515 255.758 131.727 252.545C134.939 249.333 138.788 247.727 143.273 247.727C147.758 247.727 151.606 249.333 154.818 252.545C158.03 255.758 159.636 259.606 159.636 264.091C159.636 267.061 158.879 269.788 157.364 272.273C155.909 274.758 153.939 276.758 151.455 278.273C149.03 279.727 146.303 280.455 143.273 280.455Z" fill="white"/>
</g>
<defs>
<clipPath id="clip0_228_1060">
<rect width="299" height="377" fill="white"/>
</clipPath>
</defs>
</svg>
