<svg width="245" height="319" viewBox="0 0 245 319" fill="none" xmlns="http://www.w3.org/2000/svg">
<g clip-path="url(#clip0_228_1209)">
<path d="M76.3 276C77.9 279.2 82.2 298.6 82.1 298.4C74.6 291 56.4 289.4 51.4 289.4C48.4 289.4 28.4 290.8 31.1 297.6C33.4 303.4 58.2 295.3 58.2 295.7C58.2 296.5 41.7 302.2 43.2 309.7C44.4 315.6 67.6 300.3 67.3 300.9C65 305.5 55 309 56.7 316C57.5 319.2 63.8 316.8 65.4 316C68.1 314.6 83.6 309.1 89.1 306.2C94.4 303.5 87.7 284.6 87.4 283.1" fill="#2D1F04"/>
<path d="M76.3 276C77.9 279.2 82.2 298.6 82.1 298.4C74.6 291 56.4 289.4 51.4 289.4C48.4 289.4 28.4 290.8 31.1 297.6C33.4 303.4 58.2 295.3 58.2 295.7C58.2 296.5 41.7 302.2 43.2 309.7C44.4 315.6 67.6 300.3 67.3 300.9C65 305.5 55 309 56.7 316C57.5 319.2 63.8 316.8 65.4 316C68.1 314.6 83.6 309.1 89.1 306.2C94.4 303.5 87.7 284.6 87.4 283.1" stroke="#2D1F04" stroke-width="2.62" stroke-miterlimit="10" stroke-linecap="round" stroke-linejoin="round"/>
<path d="M160.1 299.1C152.7 302.1 145.4 301.1 138.9 306.6C137.8 307.5 134.2 310.7 134.7 312.3C135.5 315 141.4 314.3 143.5 314.4C151.6 314.6 160.2 314.4 168.3 314.6C169.8 314.6 177.3 316.7 177.5 314.6C178.1 309.4 169.4 305.3 166.8 302.6" fill="#2D1F04"/>
<path d="M112 212.9C111.9 212.7 111.7 212.5 111.6 212.3L112 212.9Z" fill="#2D1F04"/>
<path d="M57.2001 31.0998C54.8001 31.0998 48.6002 43.1998 47.2002 45.6998C36.8002 63.8998 40.6002 85.1998 48.9002 103.5C51.0002 108.2 50.1001 109.6 52.2001 114C53.2001 116 56.7001 120.7 56.7001 122.8C56.7001 123.3 56.7001 124.2 56.7001 124.2C56.7001 124.2 56.0002 120.7 55.3002 119.2C55.1002 118.7 54.1001 117.8 54.6001 117.8C54.9001 117.8 55.2002 118.6 55.3002 118.8C57.6002 124.6 55.0002 131.9 56.5002 137.9C57.5002 142.1 65.5002 147.1 69.9002 148.2C86.5002 152.3 103.2 148 119.8 148C124 148 135.9 149.3 139.4 145.9C142.3 143 147.3 154 149.7 150.7C152.9 146.2 156.9 139.3 162 137.2C167.3 135.1 170.8 129.9 176.1 131.2C177.4 131.5 186.7 126 188 124.7C190.2 122.5 188.4 116.6 187.9 113.9C186.4 106.6 186.9 95.8998 185.5 88.7998C184.5 83.9998 182.7 79.3998 181 74.6998C173.9 56.3998 164 41.3998 148.3 29.9998C144.4 27.0998 137.8 22.0998 133.3 19.7998C128.9 17.5998 124.1 17.6998 119.7 15.4998C114 12.5998 107.7 8.89981 101.6 7.3998C100 6.9998 102.2 9.69981 102.1 9.99981C101.9 10.3998 98.1001 10.2998 97.6001 10.1998C92.5001 9.19981 87.2002 9.29981 82.3002 7.09981C81.5002 6.69981 78.5001 3.69981 77.5001 3.99981C74.6001 4.99981 78.9002 13.0998 78.9002 13.0998C78.9002 13.0998 78.5001 12.3998 78.2001 12.0998C76.8001 10.9998 73.6002 10.0998 71.8002 9.69981C67.9002 8.89981 66.3001 11.3998 63.0002 12.0998C62.6002 12.1998 58.7001 13.1998 58.7001 13.2998C58.7001 14.0998 64.9002 15.0998 64.9002 15.8998C64.9002 16.5998 63.5001 16.2998 63.2001 16.3998C61.4001 16.6998 51.0001 20.9998 51.7001 23.2998C52.0001 24.2998 57.5001 24.2998 58.6001 24.9998C58.9001 25.1998 59.6001 25.1998 59.6001 25.1998C59.6001 25.1998 55.3001 25.8998 53.2001 26.3998C50.2001 26.9998 44.8001 32.9998 49.6001 32.9998" fill="#2D1F04"/>
<path d="M209 235.7C208.1 236 197.3 259.9 196.9 263.2C196.1 269.7 198.9 277.7 199.7 284.1C200.5 290.4 204.4 298.4 207 304.3C207.9 306.3 207.8 310.7 207.3 312.9C206.3 316.9 182.4 316.8 179.1 315.5C179.1 315.5 171.7 306.3 169.3 304.5C167.3 303 168.8 302.7 164.1 300.7C161.2 299.5 157.6 299.5 154.9 296.7C152.3 294.1 150.9 288.3 148.1 286.4C145.3 284.6 143.2 285.9 134.3 287.8C125.4 289.7 118.8 289.3 110.2 287.1C108.7 286.7 74.8001 283.7 63.2001 270.6C61.0001 268.1 52.2001 261.4 52.8001 264C53.4001 266.6 47.9001 260.4 47.9001 253C47.9001 251.8 43.4001 255 44.1001 254.4C45.6001 253.3 39.4001 240.5 41.2001 240.5C47.2001 240.5 56.9001 240.4 62.8001 242.1C66.7001 243.2 73.7001 215.8 77.8001 216.2C84.2001 216.8 93.7001 225.2 100.1 225.7C106.3 226.2 114.4 240.1 115 232.4C115.6 224.7 117.9 234.2 118.7 233.4C119 233.1 131.2 220.4 131.1 218.9" fill="#2D1F04"/>
<path d="M195.1 248.7C194.8 249.4 200.1 249.1 200.2 249.1C204.4 250.5 200.8 252.4 199.5 256.8" fill="#2D1F04"/>
<path d="M56.6 140.8C56.4 138.3 50.9 145.1 52.6 147.4C53.3 148.4 54.5 149 55.2 150C55.5 150.5 54.7 151.1 54.5 151.4C51.5 155.4 49.5 160 47.7 164.5C45.7 169.4 44.5 173.8 43.7 179C43.2 182.3 45.8 185.7 45.1 188.6C43.1 196.5 40.9 194.7 33.3 210.7C30.9 215.7 26.9 221.1 25.3 224.4C23.7 227.7 22.5 234.3 23.5 234.7C36.2 239 66.7 249.5 95.1 252.4C136.6 256.7 191.7 256.3 219.3 247.1C228 244.2 214.6 207.8 208.3 181.8C204.6 166.5 200 156.7 195.2 139.3C193.5 133.2 191.9 122.4 185.9 125.9C163 139.2 166.5 130.5 161.3 137.5C159.6 139.7 144.4 140.6 142.1 142.1C141.1 142.8 137.1 142.6 135.8 142.8C129.3 144.1 120.8 145.4 114.3 146.7C100.3 149.5 91.1 146.8 77.2 144C74.9 143.5 69.6 144.1 67.4 143.8C64.7 143.4 62.4 143.3 59.7 142.6C56.4 141.9 56.6 141.1 56.6 140.8Z" fill="#2D1F04"/>
<path d="M45.8 68.1998C47.8 60.0998 52.8 50.8998 60.1 49.4998C68.7 47.8998 75.8 54.7998 84.1 54.4998C85.6 54.3998 88.6 53.4998 89.5 52.1998C90.4001 50.8998 89.5 49.1998 89.5 49.1998C90.8 49.5998 92.1 51.4998 93.7 51.8998C99.9 53.6998 106.3 48.1998 112 46.4998C130.7 40.7998 145.4 42.8998 155.3 60.9998C157.5 65.0998 161 74.3998 158.6 84.7998C155.2 99.8998 153.4 106.3 137 117.6C117.5 131.1 77.1001 137.8 56.9 112.3C47.5 100.3 42.1 83.3998 45.8 68.1998Z" fill="#2D1F04"/>
<path d="M62.9 251.8L62.8 257.4" stroke="#2D1F04" stroke-width="3.87" stroke-miterlimit="10" stroke-linecap="round" stroke-linejoin="round"/>
<path d="M69.0001 255.2L68.9001 260.8" stroke="#2D1F04" stroke-width="3.87" stroke-miterlimit="10" stroke-linecap="round" stroke-linejoin="round"/>
<path d="M74.8 258.8L74.7 264.5" stroke="#2D1F04" stroke-width="3.87" stroke-miterlimit="10" stroke-linecap="round" stroke-linejoin="round"/>
<path d="M65.6001 128.8V134.4" stroke="#2D1F04" stroke-width="3.87" stroke-miterlimit="10" stroke-linecap="round" stroke-linejoin="round"/>
<path d="M71.2001 131.7L71.1001 137.3" stroke="#2D1F04" stroke-width="3.87" stroke-miterlimit="10" stroke-linecap="round" stroke-linejoin="round"/>
<path opacity="0.23" d="M44.9001 32.7998C48.9001 32.7998 52.4001 31.6998 56.3001 30.7998C57.4001 30.4998 59.6001 29.2998 59.6001 30.4998C59.6001 30.6998 59.1001 30.6998 58.9001 30.7998C55.5001 32.7998 52.8001 35.6998 50.9001 39.1998C50.2001 40.3998 48.4001 43.6998 48.9001 42.8998C64.2001 15.1998 175.6 4.79984 169.2 117.3C169.1 118.3 168.7 130.6 167.4 134.5C166.7 136.5 173.3 130.1 175.8 131.1C176.9 131.5 185.8 124.9 186.6 124.4C188 123.4 187 118.1 187.3 116.4C193 78.4998 149.2 27.6998 145.4 25.5998C131 17.5998 101.5 8.69983 100.8 8.49983C100.7 8.49983 98.1001 10.0998 96.8001 9.79983C92.0001 8.99983 86.6001 7.19983 81.7001 5.79983C81.0001 5.59983 76.5001 2.09983 76.3001 2.49983C75.8001 3.59983 75.4001 9.69983 76.0001 10.4998C76.4001 11.0998 78.8001 10.1998 78.0001 10.1998C71.8001 10.1998 63.9001 12.1998 57.2001 13.4998C57.0001 13.4998 56.5001 13.5998 56.5001 13.7998C56.5001 15.6998 65.2001 14.4998 65.2001 15.7998C65.2001 16.7998 53.1001 20.1998 51.5001 21.4998C51.0001 21.8998 49.0001 23.3998 49.5001 23.7998C51.1001 25.3998 55.1001 23.3998 57.2001 24.4998" fill="#2D1F04"/>
<path opacity="0.23" d="M160.7 256.2C182.7 256.3 191.9 307.7 189.3 307.5C158.3 305.1 139.4 312 139.4 313.2C139.4 314.2 144.8 314 145.8 314.2C152 315.8 168 315.5 174.3 315.1C186.1 314.4 189.3 315.5 201.1 315.5C202.6 315.5 204.3 315.6 205.5 314.8C210.4 311.5 201 296 200.4 291.1C199.4 283.3 197.6 269.7 198.7 262C199 259.6 201.5 256.2 201.1 253.8C200.1 248.8 159.2 256.2 160.7 256.2Z" fill="#2D1F04"/>
<path opacity="0.23" d="M39.0999 201.1C37.7999 204 43.3999 194.4 45.2999 193.2C49.3999 190.6 78.7999 194.9 83.2999 194.9C94.9999 194.9 129.7 203.6 141 200.2C144.1 199.3 155.5 196.4 152.8 187.6C151.3 182.7 142.2 182.4 139.3 182.4C127.3 182.4 80.5999 192.6 68.9999 190.6C66.1999 190.1 47.7999 188 45.4999 183.7C44.8999 182.6 42.7999 191.6 42.3999 192.3C39.4999 196.6 41.3999 196.2 39.0999 201.1Z" fill="#2D1F04"/>
<path opacity="0.23" d="M157.7 282.6C156.7 281.5 169.4 272.3 166.2 273.3C88.1999 298.3 56.5999 262.9 55.7999 264.1C55.4999 264.5 60.0999 268.1 60.3999 268.5C65.3999 274 70.1999 276.8 76.8999 280.2C113.3 298.4 158.9 284 157.7 282.6Z" fill="#2D1F04"/>
<path d="M58.6999 29.8999C54.0999 32.8999 51.3999 37.8999 48.3999 42.1999C33.3999 63.3999 41.2999 90.2999 51.9999 111.6C52.8999 113.5 54.2999 115.6 54.5999 117.7C54.6999 118.8 54.0999 120.5 54.5999 121.5C54.7999 121.9 55.6999 120.5 55.7999 120.9C55.9999 122.9 55.7999 125.1 55.5999 127C55.4999 127.7 54.6999 129.7 55.1999 129.2C55.3999 129 55.8999 127.4 56.5999 127.6C56.9999 127.7 56.5999 138.2 56.3999 139.3" stroke="#2D1F04" stroke-width="2.62" stroke-miterlimit="10" stroke-linecap="round" stroke-linejoin="round"/>
<path d="M57.3001 30.5C55.1001 31.6 53.6001 31.6 51.4001 32.3C50.3001 32.6 49.4001 33 48.2001 33.3C47.1001 33.5 46.0001 33.6 45.0001 33.9C44.5001 34 43.6001 34.8 43.6001 34.3C43.6001 32.8 55.6001 26.1 57.9001 25.4C58.2001 25.3 58.8001 25.3 58.9001 25C59.1001 24.5 58.0001 24.5 57.5001 24.4C55.2001 23.8 49.8001 25.6 48.0001 24.2C47.5001 23.8 51.5001 21.4 51.8001 21.2C54.3001 19.8 56.8001 18 59.5001 17.2C61.1001 16.7 64.5001 17.9 64.5001 16.2C64.5001 14.2 55.5001 14.9 54.8001 14.2C54.7001 14.1 55.1001 14.1 55.2001 14C57.2001 13 59.5001 12.1 61.7001 11.6C65.8001 10.6 73.1001 9.69996 77.2001 11" stroke="#2D1F04" stroke-width="2.62" stroke-miterlimit="10" stroke-linecap="round" stroke-linejoin="round"/>
<path d="M77.7 12.0999C76.5 9.79989 74.4 5.89989 75.5 3.19989C75.6 3.09989 76.5 2.09989 76.7 2.19989C77.5 2.59989 78.1 3.99989 79.1 4.59989C83 6.69989 87.4 8.19989 91.8 9.19989C94.4 9.79989 97 9.99989 99.5 10.5999C100.1 10.6999 101.3 10.7999 101.3 10.7999C101.3 10.7999 97.8 7.69989 99.1 6.99989C99.3 6.89989 109.3 10.5999 110.2 10.9999C117.3 13.7999 124.5 15.3999 131.3 18.6999" stroke="#2D1F04" stroke-width="2.62" stroke-miterlimit="10" stroke-linecap="round" stroke-linejoin="round"/>
<path d="M41.4001 241.7C40.4001 247.5 45.1001 255.1 45.1001 255.1C45.1001 255.1 46.6001 250.6 47.3001 251.8C48.1001 253.2 51.4001 265.5 53.6001 264.8C53.7001 264.8 53.6001 261.5 53.8001 261.7C54.6001 262.1 59.0001 268 60.5001 269.1C65.9001 273.2 72.3001 276.6 78.5001 279.3C101.6 289.4 135.9 293.4 158.9 281.9" stroke="#2D1F04" stroke-width="2.62" stroke-miterlimit="10" stroke-linecap="round" stroke-linejoin="round"/>
<path d="M147.8 286.5C150.4 292.2 154.3 297.3 160.4 299.3" stroke="#2D1F04" stroke-width="2.62" stroke-miterlimit="10" stroke-linecap="round" stroke-linejoin="round"/>
<path d="M202.3 251.7C191.7 271.1 199.5 284.6 204.1 298.7C205.5 302.9 211.5 313 204.4 314.9" stroke="#2D1F04" stroke-width="2.62" stroke-miterlimit="10" stroke-linecap="round" stroke-linejoin="round"/>
<path d="M159.7 298.8C142.5 301.8 135.9 307.8 131.8 312.9" stroke="#2D1F04" stroke-width="2.62" stroke-miterlimit="10" stroke-linecap="round" stroke-linejoin="round"/>
<path d="M120 14C169.8 30.5 189.5 85.3 188.6 123.6" stroke="#2D1F04" stroke-width="2.62" stroke-miterlimit="10" stroke-linecap="round" stroke-linejoin="round"/>
<path d="M158.6 298.4C166.3 301.5 174.3 307.1 178 314.4" stroke="#2D1F04" stroke-width="2.62" stroke-miterlimit="10" stroke-linecap="round" stroke-linejoin="round"/>
<path d="M133.7 313C141 309.3 149.9 306.7 158.7 305.6C162.5 305.1 166.3 305 170 305.1" stroke="#2D1F04" stroke-width="2.62" stroke-miterlimit="10" stroke-linecap="round" stroke-linejoin="round"/>
<path d="M56.7 141.1C95.5 152.3 147.3 148.6 187.6 124.6" stroke="#2D1F04" stroke-width="2.62" stroke-miterlimit="10" stroke-linecap="round" stroke-linejoin="round"/>
<path d="M56.7 141.2C57.1 138.7 54 143.2 53.4 144.5C52.5 146.4 54.4 148 54.4 149C54.3 150.1 52.5 152.7 52 154C48.5 163.4 40.1 175.5 45.3 185.6" stroke="#2D1F04" stroke-width="2.62" stroke-miterlimit="10" stroke-linecap="round" stroke-linejoin="round"/>
<path d="M24.4001 235.1C86.0001 262.9 203.2 257 220.6 246.5" stroke="#2D1F04" stroke-width="2.62" stroke-miterlimit="10" stroke-linecap="round" stroke-linejoin="round"/>
<path d="M24.2001 235C18.4001 230.2 44.2001 190.4 45.6001 186" stroke="#2D1F04" stroke-width="2.62" stroke-miterlimit="10" stroke-linecap="round" stroke-linejoin="round"/>
<path d="M188.7 124.2C189.3 125.3 193 129.1 192.4 133C196.1 144.6 222.5 222 222.6 240.3C222.6 244.2 222.4 245.6 220 246.9" stroke="#2D1F04" stroke-width="2.62" stroke-miterlimit="10" stroke-linecap="round" stroke-linejoin="round"/>
<path d="M67.2 70.0998C60.4 66.6998 54.9 83.8999 55.4 88.7999C57.3 105.7 82 104.8 93.5 99.0998C110.1 90.7998 89.8 64.1999 78 68.8998" fill="#2D1F04"/>
<path d="M63.1001 70.0998C63.0001 67.4998 68.0001 65.1998 74.3001 64.8998C80.6001 64.5998 85.9001 66.3998 86.0001 68.9998C86.1001 71.5998 81.1001 73.8998 74.8001 74.1998C68.5001 74.4998 63.3001 72.6998 63.1001 70.0998Z" fill="#2D1F04"/>
<path d="M74.6001 75C74.6001 84.6 80.0001 73.3 87.5001 77" stroke="#2D1F04" stroke-width="3.05" stroke-miterlimit="10" stroke-linecap="round" stroke-linejoin="round"/>
<path d="M133.4 152.9C97.3001 158.7 63.9001 154.3 54.9001 148.3" stroke="#2D1F04" stroke-width="2.62" stroke-miterlimit="10" stroke-linecap="round" stroke-linejoin="round"/>
<path d="M192.5 132C189.6 134.5 173.8 144 160.8 146.5" stroke="#2D1F04" stroke-width="2.62" stroke-miterlimit="10" stroke-linecap="round" stroke-linejoin="round"/>
<path d="M62.8 143.1C62.3 144.7 61.7 145.9 61.7 147.7" stroke="#2D1F04" stroke-width="2.62" stroke-miterlimit="10" stroke-linecap="round" stroke-linejoin="round"/>
<path d="M72.7 145.1C72 146.6 71.8 148.5 71.8 150.2" stroke="#2D1F04" stroke-width="2.62" stroke-miterlimit="10" stroke-linecap="round" stroke-linejoin="round"/>
<path d="M167.3 134.8C168 136.3 168.2 138.2 168.2 139.9" stroke="#2D1F04" stroke-width="2.62" stroke-miterlimit="10" stroke-linecap="round" stroke-linejoin="round"/>
<path d="M171.4 132.8C172.1 134.3 172.3 136.2 172.3 137.9" stroke="#2D1F04" stroke-width="2.62" stroke-miterlimit="10" stroke-linecap="round" stroke-linejoin="round"/>
<path d="M84.5001 146.6L83.9001 150.5" stroke="#2D1F04" stroke-width="2.62" stroke-miterlimit="10" stroke-linecap="round" stroke-linejoin="round"/>
<path d="M92.9001 147.7V148.4V148.8V149.4V149.9V150.3V150.8" stroke="#2D1F04" stroke-width="2.62" stroke-miterlimit="10" stroke-linecap="round" stroke-linejoin="round"/>
<path d="M88.3 147.9V148.4V148.8V149.2V149.7V150.1" stroke="#2D1F04" stroke-width="2.62" stroke-miterlimit="10" stroke-linecap="round" stroke-linejoin="round"/>
<path d="M121 146.6V147V147.5V148.4V148.8" stroke="#2D1F04" stroke-width="2.62" stroke-miterlimit="10" stroke-linecap="round" stroke-linejoin="round"/>
<path d="M124.3 146.6V147.3V147.9V148.4" stroke="#2D1F04" stroke-width="2.62" stroke-miterlimit="10" stroke-linecap="round" stroke-linejoin="round"/>
<path d="M32.6001 53.1C28.9001 59.8 33.1001 79.9 35.9001 82C38.1001 83.6 52.9001 72.4 57.2001 65.3C58.3001 63.4 64.0001 51.2 61.9001 49.1C60.7001 47.9 44.7001 50.1 42.2001 50.6C38.8001 51.3 34.1001 50.4 32.6001 53.1Z" fill="#2D1F04"/>
<path d="M33.5 49.7998C28.2 63.5998 50.1 62.0998 54.1 51.6998L33.5 49.7998Z" fill="#2D1F04"/>
<path d="M67.3 49L50.0999 49.3L21.2 49.8" stroke="#2D1F04" stroke-width="7.6" stroke-miterlimit="10" stroke-linecap="round" stroke-linejoin="round"/>
<path d="M32.8001 53.3999C31.1001 61.8999 54.4001 62.5999 54.4001 51.8999" stroke="#2D1F04" stroke-width="3.05" stroke-miterlimit="10" stroke-linecap="round" stroke-linejoin="round"/>
<path d="M43.5 52.1999C43.5 50.0999 45.2 48.3999 47.3 48.3999C49.4 48.3999 51.1 50.0999 51.1 52.1999C51.1 54.2999 49.4 55.9999 47.3 55.9999C45.2 55.9999 43.5 54.2999 43.5 52.1999Z" fill="#2D1F04"/>
<path d="M112.1 92.5998C112.9 120.2 153.4 134.9 158.1 128C161.1 123.6 167.2 102.9 159.2 88.9998C158.4 87.5998 149.6 90.5998 148.2 90.7998C136.4 92.6998 111.7 80.5998 112.1 92.5998Z" fill="#2D1F04"/>
<path d="M124.7 93.6999C124.7 96.1999 125.2 97.8999 126.1 99.0999C128.7 102.4 134.4 100.6 140.1 99.5999C146.3 98.4999 147.7 94.6999 148.9 92.3999" fill="#2D1F04"/>
<path d="M109.6 90.5999L162.9 89.5999" stroke="#2D1F04" stroke-width="7.6" stroke-miterlimit="10" stroke-linecap="round" stroke-linejoin="round"/>
<path d="M122.7 94.2C126.6 106 147.3 102.3 147.7 92.7" stroke="#2D1F04" stroke-width="3.05" stroke-miterlimit="10" stroke-linecap="round" stroke-linejoin="round"/>
<path d="M136.9 92.5998C136.9 90.4998 138.6 88.7998 140.7 88.7998C142.8 88.7998 144.5 90.4998 144.5 92.5998C144.5 94.6998 142.8 96.3998 140.7 96.3998C138.6 96.3998 136.9 94.6998 136.9 92.5998Z" fill="#2D1F04"/>
<path d="M131.7 96.6999C131.4 96.6999 131.1 96.5999 130.8 96.5999L131.7 96.6999Z" fill="#2D1F04"/>
<path d="M26.2 235.9C25.7 236.7 24.1 240.6 23 240.5C21.8 240.5 19.4 239.1 18.3 238.6C13.7 236.6 9.00003 236.8 4.40003 238.4C3.10003 238.9 2.00003 239.5 1.90003 241.1C1.40003 248 18.3 240.6 21.1 244.4C21.5 245 16.9 246.2 16.6 246.3C14.3 247.2 5.10003 252.2 7.40003 256.3C9.20003 259.6 14.7 256.2 16.7 254.8C16.9 254.7 19.3 252.6 19.4 252.7C19.5 252.8 12.2 262.9 18.6 265.7C20.7 266.6 23.8 266.2 24.9 263.8C25.8 261.8 26.2 259.3 26.5 257.2C26.6 256.8 26.7 255.9 26.7 255.9C26.7 255.9 27.4 257 27.7 257.6C29.3 259.9 33.3 262.3 36.1 260.8C41.5 257.9 27.4 248.9 33.9 242.9C34.4 242.4 35.5 240.8 36.2 240.7" fill="#2D1F04"/>
<path d="M26.2 235.9C25.7 236.7 24.1 240.6 23 240.5C21.8 240.5 19.4 239.1 18.3 238.6C13.7 236.6 9.00003 236.8 4.40003 238.4C3.10003 238.9 2.00003 239.5 1.90003 241.1C1.40003 248 18.3 240.6 21.1 244.4C21.5 245 16.9 246.2 16.6 246.3C14.3 247.2 5.10003 252.2 7.40003 256.3C9.20003 259.6 14.7 256.2 16.7 254.8C16.9 254.7 19.3 252.6 19.4 252.7C19.5 252.9 12.2 262.9 18.6 265.7C20.7 266.6 23.8 266.2 24.9 263.8C25.8 261.8 26.2 259.3 26.5 257.1C26.6 256.7 26.7 255.8 26.7 255.8C26.7 255.8 27.4 256.9 27.7 257.5C29.3 259.8 33.3 262.2 36.1 260.7C41.5 257.8 27.4 248.8 33.9 242.8C34.4 242.3 35.5 240.7 36.2 240.6" stroke="#2D1F04" stroke-width="2.62" stroke-miterlimit="10" stroke-linecap="round" stroke-linejoin="round"/>
<path d="M219.5 247.5C220.4 249.3 220.9 252.6 223.3 253.2C225.4 253.7 240.3 243.6 242.7 252.9C245.3 263.4 228.7 256.8 226.3 258.4C224.9 259.3 228.5 262.2 229 263.3C230.2 265.8 230.7 269.4 229.8 272C228.9 274.6 226.5 274.1 224.9 272.5C223 270.5 223.7 267.3 223.5 267.3C223.5 267.3 222.5 271 221.9 273C220.3 277.9 217.2 284.9 211.5 281.5C209.4 280.2 210.9 274.6 211.2 272.8C212.6 265.4 212.5 249.6 212.5 249.6" fill="#2D1F04"/>
<path d="M219.5 247.5C220.4 249.3 220.9 252.6 223.3 253.2C225.4 253.7 240.3 243.6 242.7 252.9C245.3 263.4 228.7 256.8 226.3 258.4C224.9 259.3 228.5 262.2 229 263.3C230.2 265.8 230.7 269.4 229.8 272C228.9 274.6 226.5 274.1 224.9 272.5C223 270.6 223.7 267.3 223.5 267.3C223.5 267.3 222.5 271 221.9 273C220.3 277.9 217.2 284.9 211.5 281.5C209.4 280.2 210.9 274.6 211.2 272.8C212.6 265.4 212.5 249.6 212.5 249.6" stroke="#2D1F04" stroke-width="2.62" stroke-miterlimit="10" stroke-linecap="round" stroke-linejoin="round"/>
<path opacity="0.23" d="M168.2 134.2C176.4 163.5 194.8 245.7 156.1 255.3C153 256.1 167.7 253.7 170.6 254.2C179.1 255.6 186.9 253.6 195.4 252C199.6 251.2 204.5 251.4 208.5 250.1C210.4 249.5 221.7 247.3 222.1 245.7C224.4 236.6 219.9 223.5 217.7 214.9C215.9 207.6 214.7 202.7 212 195.8C210 190.8 207 184.1 206 178.9C204.7 172.5 201.4 166.6 200.3 160.1C198.8 151.3 195.1 143 192.9 134.5C192.2 131.5 193.6 128.1 191 125.5C187.5 121.9 167.8 132.9 168.2 134.2Z" fill="#2D1F04"/>
<path d="M131.7 313.5C151 314.7 187.7 315.2 203.8 315.2" stroke="#2D1F04" stroke-width="2.62" stroke-miterlimit="10" stroke-linecap="round" stroke-linejoin="round"/>
<path d="M68.3001 177.5C75.1001 177.7 81.5001 177.7 87.9001 177.9C93.1001 178.1 95.3001 181.5 94.7001 184.7C93.9001 189.2 89.9001 192.2 84.2001 193.6C83.9001 193.7 83.6001 193.7 83.0001 193.8C87.5001 196.8 85.9001 202.4 90.7001 207.5C86.0001 207.2 81.7001 207 77.4001 206.8C75.1001 203.6 74.2001 200.4 73.8001 197.3C73.6001 195.6 73.1001 194.3 70.0001 194.7C67.6001 198.5 65.6001 202.3 65.6001 206.4C61.9001 206.3 58.7001 206.2 55.6001 206.2C58.0001 195.2 67.2001 188.6 68.3001 177.5ZM76.8001 183.3C76.1001 185.2 75.1001 186.9 73.8001 189.1C76.0001 189.1 78.0001 189.1 80.2001 189C82.1001 188.9 83.7001 187.8 84.4001 186.4C85.1001 184.9 84.5001 183.7 82.7001 183.5C80.9001 183.2 78.9001 183.3 76.8001 183.3Z" fill="#2D1F04"/>
<path d="M123.5 186.8C120.5 186.9 117.7 187 114.6 187.1C114.7 184.4 113.2 183 110.6 182.9C109 182.8 107.6 183.3 106.7 185.1C106.5 186.6 107.4 187.1 108.5 187.5C110.6 188.1 112.8 188.7 114.8 189.4C116 189.8 117.1 190.3 118.1 190.8C124.7 194.4 122.4 202.8 117.6 206.5C116 207.7 113.9 208.5 111.6 208.8C107.9 209.3 103.6 209 99.2001 207.8C93.4001 206.3 89.7002 202.4 91.4002 197.5C94.7002 197.5 97.9002 197.5 101.3 197.5C101.3 198.1 101.4 198.7 101.5 199.2C102.1 202.1 105.7 203.6 109 202.6C110.5 202.2 111.5 201.3 111.8 199.9C112 198.6 111.4 197.6 110.3 197.1C109.3 196.6 108.2 196.3 107.2 196C105 195.2 102.8 194.6 100.8 193.7C97.0002 191.9 96.3002 189 97.5002 185.6C98.8002 181.8 101.1 178.7 105 177.5C108.7 176.3 112.6 176.2 116.8 177.5C121.4 179.1 123.9 182 123.5 186.8Z" fill="#2D1F04"/>
<path d="M103.636 195.636V194.545C103.758 182.97 104.97 173.758 107.273 166.909C109.576 160.061 112.848 154.515 117.091 150.273C121.333 146.03 126.424 142.121 132.364 138.545C135.939 136.364 139.152 133.788 142 130.818C144.848 127.788 147.091 124.303 148.727 120.364C150.424 116.424 151.273 112.061 151.273 107.273C151.273 101.333 149.879 96.1818 147.091 91.8182C144.303 87.4545 140.576 84.0909 135.909 81.7273C131.242 79.3636 126.061 78.1818 120.364 78.1818C115.394 78.1818 110.606 79.2121 106 81.2727C101.394 83.3333 97.5455 86.5758 94.4545 91C91.3636 95.4242 89.5758 101.212 89.0909 108.364H66.1818C66.6667 98.0606 69.3333 89.2424 74.1818 81.9091C79.0909 74.5758 85.5455 68.9697 93.5455 65.0909C101.606 61.2121 110.545 59.2727 120.364 59.2727C131.03 59.2727 140.303 61.3939 148.182 65.6364C156.121 69.8788 162.242 75.697 166.545 83.0909C170.909 90.4848 173.091 98.9091 173.091 108.364C173.091 115.03 172.061 121.061 170 126.455C168 131.848 165.091 136.667 161.273 140.909C157.515 145.152 152.97 148.909 147.636 152.182C142.303 155.515 138.03 159.03 134.818 162.727C131.606 166.364 129.273 170.697 127.818 175.727C126.364 180.758 125.576 187.03 125.455 194.545V195.636H103.636ZM115.273 249.455C110.788 249.455 106.939 247.848 103.727 244.636C100.515 241.424 98.9091 237.576 98.9091 233.091C98.9091 228.606 100.515 224.758 103.727 221.545C106.939 218.333 110.788 216.727 115.273 216.727C119.758 216.727 123.606 218.333 126.818 221.545C130.03 224.758 131.636 228.606 131.636 233.091C131.636 236.061 130.879 238.788 129.364 241.273C127.909 243.758 125.939 245.758 123.455 247.273C121.03 248.727 118.303 249.455 115.273 249.455Z" fill="white"/>
</g>
<defs>
<clipPath id="clip0_228_1209">
<rect width="245" height="319" fill="white"/>
</clipPath>
</defs>
</svg>
