<svg width="232" height="325" viewBox="0 0 232 325" fill="none" xmlns="http://www.w3.org/2000/svg">
<g clip-path="url(#clip0_228_1407)">
<path d="M55.0001 146.9C52.9001 145.4 -1.99985 259 67.8002 312.3C82.2001 316.5 78.5001 310.6 91.2001 311.4C93.5001 311.5 107 312.6 104.8 309.1C101.6 304.1 96.2001 310.8 91.4002 307.5C79.9002 299.6 70.7001 279.3 69.4002 265C68.2001 252 70.5001 237.5 76.4002 225.6C79.9002 218.5 84.7001 207.6 83.9002 199.5C82.6002 184.7 73.0002 166.2 64.8002 154C62.4002 150.3 58.4001 149.2 55.0001 146.9Z" fill="#2D1F04"/>
<path d="M55.0001 146.9C52.9001 145.4 -1.99985 259 67.8002 312.3C82.2002 316.5 78.5001 310.6 91.2001 311.4C93.5001 311.5 107 312.6 104.8 309.1C101.6 304.1 96.2002 310.8 91.4002 307.5C79.9002 299.6 70.7002 279.3 69.4002 265C68.2002 252 70.5002 237.5 76.4002 225.6C79.9002 218.5 84.7002 207.6 83.9002 199.5C82.6002 184.7 73.0002 166.2 64.8002 154C62.4002 150.3 58.4001 149.2 55.0001 146.9Z" stroke="#2D1F04" stroke-width="2.6" stroke-miterlimit="10" stroke-linecap="round" stroke-linejoin="round"/>
<path opacity="0.23" d="M55.0001 146.9C52.9001 145.4 -1.99985 259 67.8002 312.3C82.2001 316.5 78.5001 310.6 91.2001 311.4C93.5001 311.5 107 312.6 104.8 309.1C101.6 304.1 96.2001 310.8 91.4002 307.5C79.9002 299.6 70.7001 279.3 69.4002 265C68.2001 252 70.5001 237.5 76.4002 225.6C79.9002 218.5 84.7001 207.6 83.9002 199.5C82.6002 184.7 73.0002 166.2 64.8002 154C62.4002 150.3 58.4001 149.2 55.0001 146.9Z" fill="#2D1F04"/>
<path d="M55.8001 142.7C40.3001 151.2 33.5001 186.5 35.1001 188.6C36.1001 189.9 60.0001 196.4 62.4001 196.1C68.0001 195.3 66.4001 193.2 67.3001 189.1C69.8001 177.9 70.4001 167.1 66.1001 156.4C64.8001 153.2 62.6001 148.4 58.9001 147.7C56.9001 147.3 68.9001 135.5 55.8001 142.7Z" fill="#2D1F04"/>
<path d="M55.8001 142.7C40.3001 151.2 33.5001 186.5 35.1001 188.6C36.1001 189.9 60.0001 196.4 62.4001 196.1C68.0001 195.3 66.4001 193.2 67.3001 189.1C69.8001 177.9 70.4001 167.1 66.1001 156.4C64.8001 153.2 62.6001 148.4 58.9001 147.7C56.9001 147.3 68.9001 135.5 55.8001 142.7Z" stroke="#2D1F04" stroke-width="2.6" stroke-miterlimit="10" stroke-linecap="round" stroke-linejoin="round"/>
<path d="M175.9 303.7C168.5 306.7 161.2 305.7 154.7 311.2C153.6 312.1 150 315.3 150.5 316.9C151.3 319.6 157.2 318.9 159.3 319C167.4 319.2 175.8 320.2 183.9 320.4C185.4 320.4 193 321.3 193.3 319.2C193.9 314 183.1 310.2 180.6 307.5" fill="#2D1F04"/>
<path d="M89.0002 302.2C80.7002 302 71.4002 305.7 64.9002 310.7C64.3002 311.2 59.2002 316 59.7002 316.7C61.0002 318.6 67.4002 317.2 69.3002 317.4C77.4002 318.3 86.1002 316.8 94.3002 317C95.7002 317 101.1 318 101.9 316.4C103.1 314.1 96.6002 310.1 95.4002 309.4" fill="#2D1F04"/>
<path d="M26.9001 34.0998C24.5001 34.0998 18.3001 46.1998 16.9001 48.6998C6.5001 66.8998 10.3001 88.1998 18.6001 106.5C20.7001 111.2 48.4001 135.8 47.7001 134.2C47.5001 133.7 59.2001 158.4 63.5001 159.5C80.1001 163.6 73.8001 157 90.4001 157C94.6001 157 105.7 152.2 109.1 148.7C112 145.8 112.9 142 115.3 138.7C118.5 134.2 125.9 128.8 131.1 126.8C136.4 124.7 143.1 126 148.3 127.3C149.6 127.6 153.7 129.3 155 128C157.2 125.8 158.2 119.5 157.6 116.8C156.1 109.5 164.1 116.4 162.7 109.4C161.7 104.6 174.6 96.3998 172 92.1998C140.9 42.5998 135.4 44.2998 119.6 32.8998C115.7 29.9998 107.4 25.0998 102.9 22.7998C98.5001 20.5998 93.7001 20.6998 89.3001 18.4998C83.6001 15.5998 77.3001 11.8998 71.2001 10.3998C69.6001 9.9998 71.8001 12.6998 71.7001 12.9998C71.5001 13.3998 67.7001 13.2998 67.2001 13.1998C62.1001 12.1998 56.8001 12.2998 51.9001 10.0998C51.1001 9.69981 48.1001 6.69981 47.1001 6.99981C44.2001 7.99981 48.5001 16.0998 48.5001 16.0998C48.5001 16.0998 48.1001 15.3998 47.8001 15.0998C46.4001 13.9998 43.2001 13.0998 41.4001 12.6998C37.5001 11.8998 35.9001 14.3998 32.6001 15.0998C32.2001 15.1998 28.3001 16.1998 28.3001 16.2998C28.3001 17.0998 34.5001 18.0998 34.5001 18.8998C34.5001 19.5998 33.1001 19.2998 32.8001 19.3998C31.0001 19.6998 20.6001 23.9998 21.3001 26.2998C21.6001 27.2998 27.1001 27.2998 28.2001 27.9998C28.5001 28.1998 29.2001 28.1998 29.2001 28.1998C29.2001 28.1998 24.9001 28.8998 22.8001 29.3998C19.9001 29.9998 14.5001 35.9998 19.2001 35.9998" fill="#2D1F04"/>
<path d="M221.2 245.1C222 251.4 219.5 301.9 216.7 307.6C213.8 313.5 211.4 316.4 211 318.7C210.8 320.1 198.2 321.4 195 320.1C195 320.1 187.6 310.9 185.2 309.1C183.2 307.6 184.7 307.3 180 305.3C177.1 304.1 173.5 304.1 170.8 301.3C168.2 298.7 170.3 291.9 167.5 290C164.7 288.2 159.1 290.5 150.2 292.4C141.3 294.3 134.7 293.9 126.1 291.7C124.6 291.3 124.8 294.2 125.6 297.5C126.4 301.2 127.9 305.4 128.5 306.2C128.9 306.9 133.1 311.7 132 312.8C129.8 315.1 113.5 317.3 110.8 317.3C107.7 317.3 104.9 316 102 316.5C101.3 316.6 99.9001 316.5 99.9001 316.5C99.9001 316.5 101.5 317.2 101.3 316.7C101 315.8 99.1001 314.2 98.5001 313.4C96.2001 310.3 92.4001 305.9 89.7001 303.3C87.5001 301.1 86.8001 299 85.3001 296.1C83.2001 291.9 81.8001 286.7 80.6001 282C80.3001 280.9 81.0001 277 80.0001 276.3C73.6001 271.4 73.0001 267.7 69.4001 267.1C65.7001 266.5 64.0001 260 63.4001 257.2C62.0001 250.2 60.7001 267.2 60.7001 259.9C60.7001 258.7 56.7001 246.9 57.5001 246.4C59.0001 245.3 60.1001 245.5 61.8001 245.5C67.8001 245.5 72.7001 245.1 78.7001 246.7C82.6001 247.8 85.8001 250.3 90.0001 250.7C96.4001 251.3 102.8 249.7 109.2 250.2C115.4 250.7 120.6 251.7 125.8 250.7C127 250.5 133.7 257.5 134.4 256.8C135.3 255.9 132.7 243.8 134.7 243.3C138.2 242.4 141 245.9 144.3 246.5C152.4 248.1 159 236.8 158.6 232.6C158.2 228.4 172.7 228.7 174 225.5C175.4 222 178.1 229.4 179.5 225.7C181.2 221.1 179.2 214.3 178.2 209.6C177.6 206.6 174.9 198.6 176.4 195.5C179.1 190.2 196 181.6 201.7 180.3C206.9 179.1 212.8 178 218.1 179.4C224.6 181 215.7 188.9 217.7 202.2C218.5 207.6 221.8 228.7 221.6 244.8" fill="#2D1F04"/>
<path d="M15.5001 71.1999C17.5001 63.0999 23.0001 57.2999 26.8001 54.9999C30.6001 52.6999 35.4001 52.0999 41.9001 47.6999C45.5001 45.2999 43.4001 40.3999 43.4001 40.3999C44.7001 40.7999 56.6001 45.1999 67.3001 43.4999C94.1001 39.2999 115.1 45.8999 125.1 63.9999C127.3 68.0999 130.8 77.3999 128.4 87.7999C125 102.9 124.8 113.2 108.4 124.5C88.9001 138 52.5001 139.4 28.7001 114.2C18.2001 103 11.7001 86.3999 15.5001 71.1999Z" fill="#2D1F04"/>
<path d="M54.6 88.6C47.8 85.2 36.7 99.1 41 111.7C46.9 128.9 78.2 133.3 90.2 123.6C97.5 117.7 99.1 111.7 91.2 100.7C86 93.4 72 84.7 66.2 87.1" fill="#2D1F04"/>
<path d="M15.5001 71.1999C11.8001 77.8999 16.4001 96.8999 20.4001 102.1C61.6001 97.1999 46.9001 56.5999 44.7001 54.4999C43.5001 53.2999 27.6001 68.1999 25.2001 68.5999C21.8001 69.3999 17.0001 68.4999 15.5001 71.1999Z" fill="#2D1F04"/>
<path d="M75.6001 56.8C69.1001 104.1 119 105.6 124.5 104C126.6 98.9 133.3 78.2 125.9 62.7C125.2 61.3 115.2 65.9 113.8 66.2C102 68.2 76.2001 52.2 75.6001 56.8Z" fill="#2D1F04"/>
<path d="M109.3 196.4L109.2 202.1" stroke="#2D1F04" stroke-width="3.87" stroke-miterlimit="10" stroke-linecap="round" stroke-linejoin="round"/>
<path d="M194.6 240.7V246.4" stroke="#2D1F04" stroke-width="3.87" stroke-miterlimit="10" stroke-linecap="round" stroke-linejoin="round"/>
<path d="M200.8 237.5V243.1" stroke="#2D1F04" stroke-width="3.87" stroke-miterlimit="10" stroke-linecap="round" stroke-linejoin="round"/>
<path opacity="0.23" d="M14.6001 35.8C18.6001 35.8 22.1001 34.7 26.0001 33.8C27.1001 33.5 29.3001 32.3 29.3001 33.5C29.3001 33.7 28.8001 33.7 28.6001 33.8C25.2001 35.8 22.5001 38.7 20.6001 42.2C19.9001 43.4 18.1001 46.7 18.6001 45.9C33.9001 18.2 132.1 -2.90002 151.6 123.2C151.8 124.2 137.6 123 138.6 123.3C140.6 124 141.9 144.5 144.4 145.4C145.5 145.8 155.5 127.9 156.4 127.3C157.8 126.3 181.8 122.1 175 100.5C163.6 64.6 119 30.6 115.2 28.5C100.8 20.5 71.3001 11.6 70.6001 11.4C70.5001 11.4 67.9001 13 66.6001 12.7C61.8001 11.9 56.4001 10.1 51.5001 8.69998C50.8001 8.49998 46.3001 4.99998 46.1001 5.39998C45.6001 6.49998 45.2001 12.6 45.8001 13.4C46.2001 14 48.6001 13.1 47.8001 13.1C41.6001 13.1 33.7001 15.1 27.0001 16.4C26.8001 16.4 26.3001 16.5 26.3001 16.7C26.3001 18.6 35.0001 17.4 35.0001 18.7C35.0001 19.7 22.9001 23.1 21.3001 24.4C20.8001 24.8 18.8001 26.3 19.3001 26.7C20.9001 28.3 24.9001 26.3 27.0001 27.4" fill="#2D1F04"/>
<path opacity="0.23" d="M82.5002 278.6C80.9002 277.1 80.3002 285.4 80.4002 286.1C80.9002 292.5 83.7002 297.9 87.6002 303C87.7002 303.2 86.8002 301.5 86.7002 301.7C86.5002 302.4 82.3002 304.2 81.5002 304.3C79.1002 304.8 57.0002 313.1 60.1002 317.7C60.2002 317.8 83.0002 317.4 84.9002 317.4C97.3002 317.4 107 317.4 119.4 317.4C121.2 317.4 130.2 314.8 131.2 313.3C132.6 311.2 128.1 303.8 127.4 302C127 301 125.2 292.1 125 292C121.1 289.4 112.4 290.4 108 289.3C100.8 287.5 87.9002 283.8 82.5002 278.6Z" fill="#2D1F04"/>
<path opacity="0.23" d="M173.5 287.2C172.5 286.1 185.2 276.9 182 277.9C104 302.9 72.4 267.5 71.6 268.7C71.3 269.1 75.9 272.7 76.2 273.1C81.2 278.6 86 281.4 92.7 284.8C129.1 303 174.7 288.6 173.5 287.2Z" fill="#2D1F04"/>
<path d="M26.9001 33.5C26.8001 34.3 -11.3999 80 32.1001 121.1C35.0001 123.8 47.0001 134.9 48.2001 136.7C48.8001 137.6 49.0001 139.5 49.8001 140.1C50.2001 140.4 50.4001 138.7 50.6001 139C51.7001 140.7 52.5001 142.8 53.1001 144.6C53.3001 145.3 53.5001 147.4 53.7001 146.7C53.8001 146.5 53.5002 144.8 54.3002 144.7C54.7002 144.6 58.6002 153.7 58.9002 154.7" stroke="#2D1F04" stroke-width="2.62" stroke-miterlimit="10" stroke-linecap="round" stroke-linejoin="round"/>
<path d="M26.9002 33.5C24.7002 34.6 13.2002 37.7 13.2002 37.3C13.2002 35.8 25.2002 29.1 27.5002 28.4C27.8002 28.3 28.4002 28.3 28.5002 28C28.7002 27.5 27.6002 27.5 27.1002 27.4C24.8002 26.8 19.4002 28.6 17.6002 27.2C17.1002 26.8 21.1002 24.4 21.4002 24.2C23.9002 22.8 26.4002 21 29.1002 20.2C30.7002 19.7 34.1002 20.9 34.1002 19.2C34.1002 17.2 25.1002 17.9 24.4002 17.2C24.3002 17.1 24.7002 17.1 24.8002 17C26.8002 16 29.1002 15.1 31.3002 14.6C35.4002 13.6 42.7002 12.7 46.8002 14" stroke="#2D1F04" stroke-width="2.62" stroke-miterlimit="10" stroke-linecap="round" stroke-linejoin="round"/>
<path d="M47.4 15.0999C46.2 12.7999 44.1 8.89989 45.2 6.19989C45.3 6.09989 46.2 5.09989 46.4 5.19989C47.2 5.59989 47.8 6.99989 48.8 7.59989C52.7 9.69989 57.1 11.1999 61.5 12.1999C64.1 12.7999 66.7 12.9999 69.2 13.5999C69.8 13.6999 71 13.7999 71 13.7999C71 13.7999 67.5 10.6999 68.8 9.99989C69 9.89989 79 13.5999 79.9 13.9999C87 16.7999 94.2 18.3999 101 21.6999" stroke="#2D1F04" stroke-width="2.62" stroke-miterlimit="10" stroke-linecap="round" stroke-linejoin="round"/>
<path d="M57.3001 245.8C57.2001 252.7 60.8001 259.7 60.8001 259.7C60.8001 259.7 62.3001 255.2 63.0001 256.4C63.8001 257.8 67.1001 270.1 69.3001 269.4C69.4001 269.4 69.3001 266.1 69.5001 266.3C70.3001 266.7 74.7001 272.6 76.2001 273.7C81.6001 277.8 88.0001 281.2 94.2001 283.9C117.3 294 151.6 298 174.6 286.5" stroke="#2D1F04" stroke-width="2.62" stroke-miterlimit="10" stroke-linecap="round" stroke-linejoin="round"/>
<path d="M80.4002 276.7C78.2002 283.4 83.4002 297.7 88.7002 302.8" stroke="#2D1F04" stroke-width="2.62" stroke-miterlimit="10" stroke-linecap="round" stroke-linejoin="round"/>
<path d="M125.3 292.9C125.5 297.6 127.4 307.7 131.2 311.5" stroke="#2D1F04" stroke-width="2.62" stroke-miterlimit="10" stroke-linecap="round" stroke-linejoin="round"/>
<path d="M87.9001 302.6C75.7001 302.2 61.8001 313.6 60.9001 314.6" stroke="#2D1F04" stroke-width="2.62" stroke-miterlimit="10" stroke-linecap="round" stroke-linejoin="round"/>
<path d="M99.8 317.4C104.8 317.4 111 317 116.1 316.9C119.1 316.8 132.6 316.4 131.8 312.2" stroke="#2D1F04" stroke-width="2.62" stroke-miterlimit="10" stroke-linecap="round" stroke-linejoin="round"/>
<path d="M169.1 288.9C167.3 292.4 170.1 301.8 176.2 303.8" stroke="#2D1F04" stroke-width="2.62" stroke-miterlimit="10" stroke-linecap="round" stroke-linejoin="round"/>
<path d="M217.9 197.3C225.5 268.5 217.8 317 210.6 318.9" stroke="#2D1F04" stroke-width="2.62" stroke-miterlimit="10" stroke-linecap="round" stroke-linejoin="round"/>
<path d="M175.5 303.4C158.3 306.4 151.7 312.4 147.6 317.5" stroke="#2D1F04" stroke-width="2.62" stroke-miterlimit="10" stroke-linecap="round" stroke-linejoin="round"/>
<path d="M147.7 317.8C149.5 319.3 209.3 320.8 210.9 318.8" stroke="#2D1F04" stroke-width="2.62" stroke-miterlimit="10" stroke-linecap="round" stroke-linejoin="round"/>
<path d="M89.7002 17C125.8 29 154.2 60.2 172.5 92.1" stroke="#2D1F04" stroke-width="2.62" stroke-miterlimit="10" stroke-linecap="round" stroke-linejoin="round"/>
<path d="M89.1001 303C94.2001 306.4 98.4001 310.4 101.1 315.8" stroke="#2D1F04" stroke-width="2.62" stroke-miterlimit="10" stroke-linecap="round" stroke-linejoin="round"/>
<path d="M176.1 303.6C183.8 306.7 190.4 312.4 194.1 319.7" stroke="#2D1F04" stroke-width="2.62" stroke-miterlimit="10" stroke-linecap="round" stroke-linejoin="round"/>
<path d="M59.6001 317.8C64.4001 318.9 104 316.9 106.3 317.3L59.6001 317.8Z" fill="#2D1F04"/>
<path d="M59.6001 317.8C64.4001 318.9 104 316.9 106.3 317.3" stroke="#2D1F04" stroke-width="2.62" stroke-miterlimit="10" stroke-linejoin="round"/>
<path d="M61.2 314.2L60.7 314.5L59.7 315.8L59.3 316.9L59.6 317.8" fill="#2D1F04"/>
<path d="M61.2 314.2L60.7 314.5L59.7 315.8L59.3 316.9L59.6 317.8" stroke="#2D1F04" stroke-width="2.62" stroke-miterlimit="10" stroke-linejoin="round"/>
<path d="M60 317.7C64.7 313.8 85.8 306 93.7 307.3" stroke="#2D1F04" stroke-width="2.62" stroke-miterlimit="10" stroke-linecap="round" stroke-linejoin="round"/>
<path d="M149.5 317.6C156.8 313.9 165.7 311.3 174.5 310.2C178.3 309.7 182.1 309.6 185.8 309.7" stroke="#2D1F04" stroke-width="2.62" stroke-miterlimit="10" stroke-linecap="round" stroke-linejoin="round"/>
<path d="M70 49.3999C88 72.3999 128.6 65.0999 128.6 65.0999" stroke="#2D1F04" stroke-width="7.6" stroke-miterlimit="10" stroke-linecap="round" stroke-linejoin="round"/>
<path d="M46.0001 50C30.0001 71 4.1001 67.9 4.1001 67.9" stroke="#2D1F04" stroke-width="7.6" stroke-miterlimit="10" stroke-linecap="round" stroke-linejoin="round"/>
<path d="M46.8001 88C46.7001 85.4 51.7001 83.1 58.0001 82.8C64.3001 82.5 69.6001 84.3 69.7001 86.9C69.8001 89.5 64.8001 91.8 58.5001 92.1C52.2001 92.4 47.0001 90.5 46.8001 88Z" fill="#2D1F04"/>
<path d="M103.1 67.9C103.3 67.8 103.5 67.6 103.7 67.5" stroke="#2D1F04" stroke-width="3.05" stroke-miterlimit="10" stroke-linecap="round" stroke-linejoin="round"/>
<path d="M95.6001 0.999902C95.6001 0.899902 95.7001 0.899902 95.8001 0.899902C95.9001 0.899902 96.0001 0.899902 96.0001 0.999902C96.0001 1.0999 95.9001 1.0999 95.8001 1.0999C95.6001 1.0999 95.6001 0.999902 95.6001 0.999902Z" fill="#2D1F04"/>
<path d="M97.4 72.3C97.1 72.3 96.8 72.2 96.5 72.2L97.4 72.3Z" fill="#2D1F04"/>
<path d="M58.1002 156.1C59.2002 155.4 55.1002 157.4 55.9002 160.8C57.5002 167.2 57.1002 175 58.9002 181.6C59.3002 183 61.4002 187.9 61.1002 189.1C60.6002 191.1 57.5002 193.6 56.6002 195.9C53.8002 202.8 50.7002 211.5 49.8002 218.8C49.3002 222.7 50.4002 227.3 49.4002 231.2C48.7002 234.1 47.0002 240.8 49.8002 242.7C51.4002 243.8 52.0002 242.5 53.6002 242.9C55.7002 243.4 58.0002 247.3 60.6002 247.9C68.6002 249.9 88.9002 256.7 96.8002 251.5C98.5002 250.4 99.2002 245.4 97.2002 245.4C95.4002 245.4 95.9002 249.5 97.2002 250.8C98.1002 251.7 103.6 251.6 104.9 251.3C111.4 250 118.6 248.8 125.3 248.3C128.5 248 132 249.4 135.2 248.3C144.8 245.1 154.5 242.6 164.1 238.8C169.6 236.6 174 232.2 179.2 229.3C193.7 221.2 205.4 210.2 214.5 196.5C218.9 189.9 227.5 183.5 229.2 175.2C230.5 168.6 221.5 160.5 217.9 155.7C208.9 143.7 201.9 130.2 192.8 118C190.4 114.9 186.6 111.1 185.6 107.1C185 104.9 174.7 86.4998 171.3 88.7998C170.5 89.2998 174.2 93.7998 173.1 94.3998C169.2 96.2998 165.5 103.3 161.8 107C160.2 108.6 157.4 108.9 155.5 110.4C151.8 113.3 147.8 119.1 142.9 120.3C140.6 120.9 138.7 119.1 136.4 119.4C132.7 119.9 123.1 122.4 120.4 125.1C116.9 128.6 111.4 134 108.7 138C106.8 140.9 105.9 144.9 103.3 147.5C96.0002 154.8 81.7002 151.4 72.6002 155C68.1002 156.8 62.4002 154.4 57.9002 155.5C57.1002 155.7 55.0002 158 58.1002 156.1Z" fill="#2D1F04"/>
<path d="M58.1002 157C59.2002 156.3 55.1002 158.3 55.9002 161.7C57.5002 168.1 57.1002 175.9 58.9002 182.5C59.3002 183.9 61.4002 188.8 61.1002 190C60.6002 192 57.5002 194.5 56.6002 196.8C53.8002 203.7 50.7002 212.4 49.8002 219.7C49.3002 223.6 50.4002 228.2 49.4002 232.1C48.7002 235 47.0002 241.7 49.8002 243.6C51.4002 244.7 52.4002 245.6 53.9002 246C56.0002 246.5 57.9002 248.2 60.5002 248.8C68.5002 250.8 88.8002 257.6 96.7002 252.4C98.4002 251.3 99.1002 246.3 97.1002 246.3C95.3002 246.3 95.8002 250.4 97.1002 251.7C98.0002 252.6 103.5 252.5 104.8 252.2C111.3 250.9 118.5 249.7 125.2 249.2C128.4 248.9 131.9 250.3 135.1 249.2C144.7 246 154.4 243.5 164 239.7C169.5 237.5 173.9 233.1 179.1 230.2C193.6 222.1 206.4 213 215.5 199.3C219.9 192.7 227.5 184.4 229.1 176.1C230.4 169.5 221.4 161.4 217.8 156.6C208.8 144.6 201.8 131.1 192.7 118.9C190.3 115.8 186.5 112 185.5 108C184.9 105.8 178 89.2998 171.2 89.6998C170.3 89.7998 173.2 94.0998 172.1 94.6998C168.2 96.5998 165.4 104.2 161.7 107.8C160.1 109.4 157.3 109.7 155.4 111.2C151.7 114.1 147.7 119.9 142.8 121.1C140.5 121.7 138.6 119.9 136.3 120.2C132.6 120.7 123 123.2 120.3 125.9C116.8 129.4 111.3 134.8 108.6 138.8C106.7 141.7 105.8 145.7 103.2 148.3C95.9002 155.6 81.6002 152.2 72.5002 155.8C68.0002 157.6 62.3002 155.2 57.8002 156.3C57.0002 156.5 54.9002 158.9 58.1002 157Z" fill="#2D1F04"/>
<path d="M56.3001 97.7998C51.7001 105.7 44.3001 99.2998 44.0001 99.0998C37.7001 116.9 55.1001 123.6 63.9001 125C73.0001 126.5 82.7001 121.7 88.7001 114.2C92.0001 110 89.7001 102.5 84.8001 99.1998C84.5001 98.9998 79.6001 103.4 78.1001 103.9C70.9001 106.3 58.7001 104.6 56.3001 97.7998Z" fill="#2D1F04"/>
<path d="M149.1 192.3C150.1 193.4 149 191.7 146.7 202.6C143.1 219.5 139.1 246 144.8 276.2C147.5 290.2 154.3 296.8 161.8 308.2C164.5 312.2 169.4 314.2 174.4 315.3C176.1 315.7 183.1 317.6 181.6 318.3C173.5 322.3 165.2 325 156.5 323.3C152.2 322.4 147 322 142.6 321.1C137.9 320.2 132.4 316 128.6 313.3C124.6 310.5 122.1 308.2 118.9 304.5C109.1 293.3 107.5 280.6 103.5 267C101.8 261.2 100.6 259.1 99.6001 249C98.6001 238.9 96.9001 219.9 96.9001 219.9C96.9001 219.9 97.1001 203.6 98.4001 197.1C99.4001 191.9 95.9001 184.3 100.3 181.2C108 175.9 136 177.1 149.1 192.3Z" fill="#2D1F04"/>
<path opacity="0.23" d="M32.2001 73.7998C30.4001 66.7998 17.6001 67.7998 17.6001 77.1998C17.6001 88.6998 33.5001 94.0998 33.3001 94.1998C33.1001 94.2998 48.8001 86.2998 48.6001 76.2998C48.5001 68.3998 36.5001 64.2998 33.9001 73.7998C33.7001 74.4998 33.8001 75.8998 33.4001 76.4998C32.9001 77.0998 32.2001 73.7998 32.2001 73.7998Z" fill="#2D1F04"/>
<path opacity="0.23" d="M98.5002 71.2999C96.6002 63.8999 83.5002 64.9999 83.6002 74.7999C83.6002 86.9999 99.9002 92.6999 99.7002 92.6999C99.5002 92.6999 115.6 84.3999 115.4 73.7999C115.3 65.4999 103 61.0999 100.3 71.1999C100.1 71.8999 100.2 73.3999 99.7002 73.9999C99.1002 74.7999 98.5002 71.2999 98.5002 71.2999Z" fill="#2D1F04"/>
<path d="M154.8 125.9C129.4 107 108.7 133.7 102.2 150C100 155.5 96.5002 170.2 95.8002 176.1C95.4002 179.4 95.2002 182.3 100.9 181.1" stroke="#2D1F04" stroke-width="2.62" stroke-miterlimit="10" stroke-linecap="round" stroke-linejoin="round"/>
<path d="M96 175.4C99.4 171.7 126.7 163.3 147.8 181.3" stroke="#2D1F04" stroke-width="2.62" stroke-miterlimit="10" stroke-linecap="round" stroke-linejoin="round"/>
<path d="M149.7 192.3C150.4 192.4 152.6 193.1 154.9 191.1C159.1 187.3 162.4 154.8 162.2 147.6" stroke="#2D1F04" stroke-width="2.62" stroke-miterlimit="10" stroke-linecap="round" stroke-linejoin="round"/>
<path d="M143.4 119.5C148.9 116.7 168.9 99.1999 172.2 92.5999" stroke="#2D1F04" stroke-width="2.62" stroke-miterlimit="10" stroke-linecap="round" stroke-linejoin="round"/>
<path d="M59.3001 155.1C54.9001 155.6 55.5001 160.1 56.9001 163.1" stroke="#2D1F04" stroke-width="2.62" stroke-miterlimit="10" stroke-linecap="round" stroke-linejoin="round"/>
<path d="M57.1001 163.4C58.4001 173.9 58.8001 185.5 62.6001 195.5" stroke="#2D1F04" stroke-width="2.62" stroke-miterlimit="10" stroke-linecap="round" stroke-linejoin="round"/>
<path d="M60.6 188.7C57.5 192.6 54.8 199.7 53.7 203C51.2 210.4 50.1001 218.1 49.7001 225.9C49.6001 227.7 49.6001 229.5 49.5001 231.3C49.4001 232.3 49.7001 243.8 50.9001 243.2" stroke="#2D1F04" stroke-width="2.62" stroke-miterlimit="10" stroke-linecap="round" stroke-linejoin="round"/>
<path d="M51.3 242.8C55.1 248.2 76.7 256 99.1 252" stroke="#2D1F04" stroke-width="2.62" stroke-miterlimit="10" stroke-linecap="round" stroke-linejoin="round"/>
<path d="M229.7 174.4C219.7 200.2 190.8 232.1 142.6 246.9" stroke="#2D1F04" stroke-width="2.62" stroke-miterlimit="10" stroke-linecap="round" stroke-linejoin="round"/>
<path d="M171.5 88.8998C171.5 88.6998 179.1 87.1998 180.2 96.9998C180.7 101.9 224.7 160.3 229.6 174" stroke="#2D1F04" stroke-width="2.62" stroke-miterlimit="10" stroke-linecap="round" stroke-linejoin="round"/>
<path d="M60.1001 155.1C69.8001 157.5 94.2001 153 102.9 147.7" stroke="#2D1F04" stroke-width="2.62" stroke-miterlimit="10" stroke-linecap="round" stroke-linejoin="round"/>
<path d="M57.2002 163.3C61.6002 164.5 69.1002 164.7 76.2002 164.1C82.7002 163.6 88.8002 162.4 91.7002 160.9" stroke="#2D1F04" stroke-width="2.62" stroke-miterlimit="10" stroke-linecap="round" stroke-linejoin="round"/>
<path d="M179.9 96.2C177.4 103.6 163.3 115.3 160 117.3" stroke="#2D1F04" stroke-width="2.62" stroke-miterlimit="10" stroke-linecap="round" stroke-linejoin="round"/>
<path d="M29.9002 73.7999C28.2002 67.4999 16.2002 68.3999 16.3002 76.7999C16.3002 87.2999 31.2002 92.1999 31.0002 92.1999C30.8002 92.1999 45.5002 85.0999 45.3002 75.9999C45.2002 68.8999 34.0002 65.0999 31.5002 73.7999C31.3002 74.3999 31.4002 75.6999 31.0002 76.1999C30.5002 76.7999 29.9002 73.7999 29.9002 73.7999Z" fill="#2D1F04"/>
<path d="M29.9002 73.7999C28.2002 67.4999 16.2002 68.3999 16.3002 76.7999C16.3002 87.2999 31.2002 92.1999 31.0002 92.1999C30.8002 92.1999 45.5002 85.0999 45.3002 75.9999C45.2002 68.8999 34.0002 65.0999 31.5002 73.7999C31.3002 74.3999 31.4002 75.6999 31.0002 76.1999C30.5002 76.7999 29.9002 73.7999 29.9002 73.7999Z" stroke="#2D1F04" stroke-width="2.3" stroke-miterlimit="10" stroke-linecap="round"/>
<path d="M95.0001 70.6999C93.1001 63.5999 79.6001 64.5999 79.6001 74.0999C79.6001 85.7999 96.4001 91.2999 96.2001 91.2999C96.0001 91.2999 112.6 83.2999 112.4 73.1999C112.2 65.1999 99.7001 60.9999 96.8001 70.6999C96.6001 71.3999 96.7001 72.7999 96.2001 73.3999C95.7001 73.9999 95.0001 70.6999 95.0001 70.6999Z" fill="#2D1F04"/>
<path d="M95.0001 70.6999C93.1001 63.5999 79.6001 64.5999 79.6001 74.0999C79.6001 85.7999 96.4001 91.2999 96.2001 91.2999C96.0001 91.2999 112.6 83.2999 112.4 73.1999C112.2 65.1999 99.7001 60.9999 96.8001 70.6999C96.6001 71.3999 96.7001 72.7999 96.2001 73.3999C95.7001 73.9999 95.0001 70.6999 95.0001 70.6999Z" stroke="#2D1F04" stroke-width="2.3" stroke-miterlimit="10" stroke-linecap="round"/>
<path d="M88.7002 115.9C88.9002 116.2 86.0002 114.4 78.6002 113.2C71.3002 112 51.7002 111.2 56.1002 132.1C57.4002 138.3 63.3002 144 69.2002 142.9C76.3002 141.5 76.9002 137.8 75.8002 135.2C74.5002 131.9 71.5002 125.6 80.2002 122.7C86.1002 120.8 88.9002 116.6 88.7002 115.9Z" fill="#2D1F04"/>
<path d="M88.7002 115.9C88.9002 116.2 86.0002 114.4 78.6002 113.2C71.3002 112 51.7002 111.2 56.1002 132.1C57.4002 138.3 63.3002 144 69.2002 142.9C76.3002 141.5 76.9002 137.8 75.8002 135.2C74.5002 131.9 71.5002 125.6 80.2002 122.7C86.1002 120.8 88.9002 116.6 88.7002 115.9Z" stroke="#2D1F04" stroke-width="2.6" stroke-miterlimit="10" stroke-linecap="round" stroke-linejoin="round"/>
<path d="M81.4 112.8C75.5 111.8 57.9 111.5 65.7 130.5" stroke="#2D1F04" stroke-width="2.6" stroke-miterlimit="10" stroke-linecap="round" stroke-linejoin="round"/>
<path d="M99.5 181.3C90.7 211.3 94.6 351.6 183.2 317.6" stroke="#2D1F04" stroke-width="2.6" stroke-miterlimit="10" stroke-linecap="round" stroke-linejoin="round"/>
<path d="M164.8 310.7C177.2 308.9 184.6 307.9 191.7 299.6C190.8 313.7 185.1 315.7 183 317.6" fill="#2D1F04"/>
<path d="M164.8 310.7C177.2 308.9 184.6 307.9 191.7 299.6C190.8 313.7 185.1 315.7 183 317.6" stroke="#2D1F04" stroke-width="2.6" stroke-miterlimit="10" stroke-linecap="round" stroke-linejoin="round"/>
<path d="M149.5 191.9C126.4 291.9 161.1 316.3 183.4 317.3" stroke="#2D1F04" stroke-width="2.6" stroke-miterlimit="10" stroke-linecap="round" stroke-linejoin="round"/>
<path d="M174.1 315.2C182.8 315.2 190.1 305.7 191.3 300.4" stroke="#2D1F04" stroke-width="2.6" stroke-miterlimit="10" stroke-linecap="round" stroke-linejoin="round"/>
<path d="M56.1001 90.7998C52.2001 106 76.8001 110.1 84.7001 98.5998C90.8001 107 90.7001 112.7 88.7001 116.4C86.8001 120 83.1002 121.8 81.4002 122.4" stroke="#2D1F04" stroke-width="2.6" stroke-miterlimit="10" stroke-linecap="round" stroke-linejoin="round"/>
<path d="M71.3 155.9L72.1 161.2" stroke="#2D1F04" stroke-width="2.62" stroke-miterlimit="10" stroke-linecap="round" stroke-linejoin="round"/>
<path d="M76.6001 155.3L77.4001 160.5" stroke="#2D1F04" stroke-width="2.62" stroke-miterlimit="10" stroke-linecap="round" stroke-linejoin="round"/>
<path d="M109.6 171.8L109.1 177.1" stroke="#2D1F04" stroke-width="2.62" stroke-miterlimit="10" stroke-linecap="round" stroke-linejoin="round"/>
<path d="M114.4 170.9L114 176.2" stroke="#2D1F04" stroke-width="2.62" stroke-miterlimit="10" stroke-linecap="round" stroke-linejoin="round"/>
<path d="M117.8 211.7V217.3" stroke="#2D1F04" stroke-width="3.87" stroke-miterlimit="10" stroke-linecap="round" stroke-linejoin="round"/>
<path d="M124.5 208.5V214.1" stroke="#2D1F04" stroke-width="3.87" stroke-miterlimit="10" stroke-linecap="round" stroke-linejoin="round"/>
<path opacity="0.23" d="M151.5 114.2C183 124.9 212.4 197.9 197.1 217.5C196.4 218.3 211.5 202.3 212.1 201.7C219.4 195.6 226.7 187.3 229 178C230.5 172.1 224 166.4 221.6 161.6C218.3 155.1 214.1 146.7 209.5 140.9C201.3 130.7 194.5 120.2 186.7 109.7C184.6 106.9 177.2 89.5998 175.5 89.1998C175.1 89.0998 170.6 89.0998 170.6 89.4998C170.6 91.3998 172.4 89.9998 171.5 93.2998C171 95.9998 149.8 113.6 151.5 114.2Z" fill="#2D1F04"/>
<path opacity="0.23" d="M59.7001 185.5C65.1001 197.5 78.7001 191.1 85.0001 189.4C91.3001 187.7 98.5001 185.2 96.7001 194.2C96.2001 196.7 72.9001 207.4 62.7001 195.4C61.5001 194 58.2001 182.3 59.7001 185.5Z" fill="#2D1F04"/>
<path opacity="0.23" d="M130 312.5C129.3 311.9 136.9 315.7 140.4 315.5C144.8 315.3 149.4 312 148.7 307.1C147.3 296.5 118.7 284.5 133.9 207.1C136.5 193.9 137.7 192.2 140.9 184.9C144.2 177.6 154.7 166.6 161.7 148.5C161.6 149.9 166.8 143.7 159.4 176C158.4 180.4 159.4 188.3 155.5 191C153.9 192.1 150.1 190.4 148.2 191.6C147.6 192 145 211 144.9 213.3C144.4 223.8 140.8 235 140.9 245.3C140.9 252.2 141.9 258.2 142.5 264.6C143 271 143.6 273 144.5 276.1C147.6 287.4 148.5 299.3 158.8 305.9C161.5 307.6 164.5 311.2 164.8 310.6C165.5 309.3 179.9 307.4 181.9 306.6C184.7 305.4 187.7 303.8 190 301.7C190.1 301.6 191.5 300.2 191.6 300.2C196.8 304.2 183 318.3 179.1 319.4C157.3 326 140.4 321.4 130 312.5Z" fill="#2D1F04"/>
<path opacity="0.23" d="M216.6 197C214 197.3 207.2 206.5 204.8 210.8C204.4 211.2 204.4 211.2 204 211.7C190.3 227.2 143.6 246.9 143.6 246.9L142.9 248.7C142.9 248.7 175.4 244.3 205.3 222.8C224.9 276.1 207.1 306.5 199.4 309.8C194.7 311.8 189.7 311.3 188.6 312.8C185.3 317 179.3 318.1 180.2 318.4C186.4 320 183.4 321.6 189.8 321.2C201.6 320.5 199.7 319.4 211.5 319.4C213 319.4 220.5 296.2 220.2 293.7C219.2 285.9 220.8 268.9 221.9 261.2C222.2 258.8 218 200.3 217.6 197.9C217.3 197.2 217 197 216.6 197Z" fill="#2D1F04"/>
<path d="M56.5001 109.1C56.0001 109.1 56.3001 109 55.9001 109.5L56.5001 109.1Z" fill="#2D1F04"/>
<path d="M93.6001 121.2C88.0001 127.2 81.9001 127.6 81.9001 127.6" stroke="#2D1F04" stroke-width="2" stroke-miterlimit="10" stroke-linecap="round" stroke-linejoin="round"/>
<path d="M62.6002 185C69.4002 185.2 74.0002 185 78.0002 185C81.3002 185 81.7002 188.1 80.7002 191.1C79.3002 195.2 76.4002 198.2 72.7002 199.7C72.5002 199.8 72.3002 199.8 71.9002 200C74.2002 202.5 72.5002 207.8 74.5002 212.5C71.9002 212.5 69.7002 212.4 67.2002 212.4C66.0002 209.4 65.6002 206.4 65.6002 203.5C65.6002 201.9 65.4002 200.8 63.0002 201.3C61.1002 204.8 59.5002 208.4 59.7002 212.4C57.0002 212.4 54.3002 212.4 51.2002 212.3C51.6002 202 59.7002 194.7 62.6002 185ZM69.1002 190.6C68.2002 192.4 67.3002 194.1 66.1002 196.1C67.8002 196 69.3002 196 70.8002 195.7C72.1002 195.5 73.3002 194.5 74.0002 193.1C74.8002 191.7 74.6002 190.6 73.4002 190.5C72.1002 190.4 70.7002 190.6 69.1002 190.6Z" fill="#2D1F04"/>
<path d="M101 191.6C98.0003 191.8 95.6003 192 93.2003 192.2C93.7003 189.8 92.8003 188.5 91.1003 188.6C90.0003 188.6 89.0003 189.1 88.0003 190.8C87.6003 192.2 88.1003 192.6 88.8003 192.9C90.1003 193.4 91.6003 193.8 93.1003 194.4C94.0003 194.7 94.8003 195.1 95.7003 195.6C101 198.7 98.0003 207.1 92.5003 210.8C90.7003 212 88.7003 212.9 87.0003 213.2C84.2003 213.8 81.6003 213.6 79.3003 212.7C76.2003 211.5 74.6003 207.8 76.4003 203.2C78.3003 203 80.3003 202.9 82.4003 202.7C82.3003 203.3 82.2003 203.8 82.2003 204.3C82.0003 207 84.0003 208.4 86.6003 207.3C87.8003 206.8 88.7003 205.9 89.2003 204.6C89.6003 203.4 89.3003 202.4 88.5003 202C87.8003 201.6 87.1003 201.3 86.5003 201C85.1003 200.4 83.7003 199.9 82.7003 199.2C80.7003 197.7 80.8003 195.1 82.2003 192C83.8003 188.5 85.8003 185.5 88.6003 184.3C91.2003 183.1 94.0003 182.9 97.1003 184C100.3 185 102 187.4 101 191.6Z" fill="#2D1F04"/>
<path d="M98.6364 208.636V207.545C98.7576 195.97 99.9697 186.758 102.273 179.909C104.576 173.061 107.848 167.515 112.091 163.273C116.333 159.03 121.424 155.121 127.364 151.545C130.939 149.364 134.152 146.788 137 143.818C139.848 140.788 142.091 137.303 143.727 133.364C145.424 129.424 146.273 125.061 146.273 120.273C146.273 114.333 144.879 109.182 142.091 104.818C139.303 100.455 135.576 97.0909 130.909 94.7273C126.242 92.3636 121.061 91.1818 115.364 91.1818C110.394 91.1818 105.606 92.2121 101 94.2727C96.3939 96.3333 92.5455 99.5758 89.4545 104C86.3636 108.424 84.5758 114.212 84.0909 121.364H61.1818C61.6667 111.061 64.3333 102.242 69.1818 94.9091C74.0909 87.5758 80.5455 81.9697 88.5455 78.0909C96.6061 74.2121 105.545 72.2727 115.364 72.2727C126.03 72.2727 135.303 74.3939 143.182 78.6364C151.121 82.8788 157.242 88.697 161.545 96.0909C165.909 103.485 168.091 111.909 168.091 121.364C168.091 128.03 167.061 134.061 165 139.455C163 144.848 160.091 149.667 156.273 153.909C152.515 158.152 147.97 161.909 142.636 165.182C137.303 168.515 133.03 172.03 129.818 175.727C126.606 179.364 124.273 183.697 122.818 188.727C121.364 193.758 120.576 200.03 120.455 207.545V208.636H98.6364ZM110.273 262.455C105.788 262.455 101.939 260.848 98.7273 257.636C95.5152 254.424 93.9091 250.576 93.9091 246.091C93.9091 241.606 95.5152 237.758 98.7273 234.545C101.939 231.333 105.788 229.727 110.273 229.727C114.758 229.727 118.606 231.333 121.818 234.545C125.03 237.758 126.636 241.606 126.636 246.091C126.636 249.061 125.879 251.788 124.364 254.273C122.909 256.758 120.939 258.758 118.455 260.273C116.03 261.727 113.303 262.455 110.273 262.455Z" fill="white"/>
</g>
<defs>
<clipPath id="clip0_228_1407">
<rect width="232" height="325" fill="white"/>
</clipPath>
</defs>
</svg>
