<svg width="459" height="326" viewBox="0 0 459 326" fill="none" xmlns="http://www.w3.org/2000/svg">
<g clip-path="url(#clip0_228_1956)">
<path d="M380.7 184.9C381.1 198.5 415.7 225.3 451.1 243.9C439.3 269.5 394.4 268.2 388.9 274C380.7 282.5 380.7 297.6 376.1 312.9C335 312.9 184.2 312.9 173.2 312.9C171.1 308.5 169.3 302.5 170.4 292.3C170.5 291.5 170.6 290.7 170.7 289.9C172.8 276.4 177.3 261.8 186.2 244.7C186.4 244.3 186.6 243.9 186.8 243.5C186.9 243.3 187 243.1 187.1 242.9C187.5 242.2 187.8 241.5 188.2 240.8C188.4 240.5 188.5 240.2 188.7 239.9C188.8 239.8 188.8 239.6 188.9 239.5C189 239.4 189.1 239.2 189.1 239.1C189.1 239 189.3 238.8 189.3 238.7C189.4 238.5 189.5 238.4 189.6 238.2C189.4 237.7 189.3 237.2 189.2 236.7C189.2 236.5 189.1 236.4 189.1 236.2C189 235.4 188.9 234.6 188.8 233.8C188.7 232.7 188.7 231.6 188.8 230.4C189.4 216.1 198 196.8 198.2 195.7C198.4 194.6 196.3 192.4 197.5 190.3C198.1 189.2 200.7 186 201.5 185.9C201.6 186 201.6 186.2 201.5 186.7C201.6 186.7 201.6 186.7 201.7 186.8C202.7 187.2 203.8 187.6 204.9 187.9C204.7 188.6 204.5 189.2 204.4 189.8C204.6 189.2 204.7 188.6 204.9 187.9C205.8 188.2 206.7 188.5 207.6 188.8C208 188.9 208.5 189.1 208.9 189.2C209.3 189.3 209.7 189.5 210.2 189.6C216.6 191.6 224.5 193.6 233.7 195.2C233.9 195.2 234.2 195.3 234.5 195.3C234.9 195.4 235.3 195.4 235.7 195.5C241.7 196.6 246.5 197.2 251.8 197.5C251.9 197.5 252 197.5 252.1 197.5C255.3 197.7 258.6 197.9 262.6 198C282 198.6 296.2 196 299.2 195.4C299.6 195.3 300.1 195.2 300.5 195.1C310.5 192 318 188.8 325.3 185.2C329.4 183.2 334.1 180 338.5 177.6C338.7 177.5 338.9 177.4 339.1 177.3C346.2 173.5 353.8 172.8 359.2 173.5C373.1 176.2 380.7 184.9 380.7 184.9Z" fill="#2D1F04"/>
<path d="M159 218.3C146.6 236.9 108.7 250.2 107.1 279.5C129.2 294.7 174.4 295.4 174.4 295.4C180.4 261.3 208.8 240.6 200.7 226C192.6 211.4 170.6 208.6 159 218.3Z" fill="#2D1F04"/>
<path d="M206.7 180.8C206 183.9 205 187.5 204.4 189.8C203.6 189.8 200.6 192.6 199.8 193.6C198.3 195.5 200.1 198 199.7 199.1C199.4 200 194.1 223.7 190.3 236.9C182.2 232.7 163.5 223.4 159.9 219.2C159.6 218.9 159.4 218.6 159.1 218.4C158.3 217.5 157.4 212.4 161.2 210.2C161.7 209 162.3 207.8 162.9 206.4C174.1 182.1 190.3 175.5 206.7 180.8Z" fill="#2D1F04"/>
<path opacity="0.23" d="M206.7 180.8C206 183.9 205 187.5 204.4 189.8C203.6 189.8 200.6 192.6 199.8 193.6C198.3 195.5 200.1 198 199.7 199.1C199.4 200 194.1 223.7 190.3 236.9C186.9 235.2 181.7 232.5 176.5 229.7C179.4 230.6 182.4 230.5 183.1 228.4C184 225.6 184.2 222.8 182.3 221.9C184.9 221.8 187.9 210.5 189.9 204.8C191.7 199.6 197.6 183.3 205.1 180.4C205.5 180.4 206.1 180.6 206.7 180.8Z" fill="#2D1F04"/>
<path d="M363.3 185C356.4 186.8 350.1 188.9 341.4 191C327.7 194.3 315.1 198.6 301.3 199.8C298.3 200.1 284.1 199 264.7 198.2C252.1 197.7 243.2 196.7 232.4 195C218.7 192.9 211.3 190 201.8 186.8C202 186.2 205.6 178.9 205.4 178.9C206 176.6 206.8 172.9 207.5 169.8C208.1 166.9 208.5 164.2 208.3 164.1C207.5 164.1 206.8 164.8 206.3 165.6C204.9 161.1 208.7 158.4 208.9 156C208.9 155.5 207.5 155.9 206.4 157.5C206.7 154 208.2 153.3 208.3 152C208.4 149.5 207.4 146.6 206.7 144.3C199.2 117.1 185.5 64.3003 228.9 37.8003C227.1 33.9003 221.8 34.8003 221.8 34.8003C222.8 29.9003 231.7 26.2003 242.3 29.5003C242.8 29.0003 239.5 24.4003 244.6 19.8003C244.5 23.9003 247.4 28.3003 248.6 26.6003C253.1 16.4003 261 11.8003 271.2 11.8003C267.6 13.9003 265.2 19.4003 265.7 24.8003C265.7 24.8003 270.1 18.7003 274 17.9003C269.5 23.5003 272 27.5003 273.8 28.3003C275.3 29.0003 282.5 26.8003 282.9 23.6003C284.7 24.6003 283.5 28.4003 298.9 37.1003C364.1 73.9003 371.3 144 363.3 185Z" fill="#2D1F04"/>
<path d="M267.4 277.3C267.3 277 267.1 276.8 267 276.5L267.4 277.3Z" fill="#2D1F04"/>
<path d="M204.7 71.2003C208.9 62.2003 222 57.4003 230.1 54.0003C239.5 49.9003 270.7 50.0003 266.5 40.3003C276.6 43.7003 282.3 54.4003 291.3 56.2003C300.7 58.1003 320.6 67.8003 331.8 92.8003C334 97.8003 340.2 138.7 306.3 152.9C280.4 163.7 225.9 158 208.3 123.7C199.9 107.6 198.1 88.3003 204.7 71.2003Z" fill="#2D1F04"/>
<path d="M253.3 78.8003C246.2 73.3003 236.2 91.9003 234.4 97.5003C229.9 111.8 233.3 120.3 241.3 124.5C249.3 128.8 260.4 129.5 269.8 125.8C293.5 116.5 278 77.2003 263.1 80.0003" fill="#2D1F04"/>
<path d="M201.3 102.8C215.5 104.4 251.8 95.1 242.8 49.6C233.1 49 223.6 50.5 210.9 58C200.7 72.2 199.7 89.2 201.3 102.8Z" fill="#2D1F04"/>
<path d="M287.2 58.4004C260.6 120.7 329.6 129.3 329.6 129.3C329.6 129.3 339.9 106.1 329.3 85.1004C322.8 72.2004 306.1 60.8004 287.2 58.4004Z" fill="#2D1F04"/>
<path d="M226.9 168.7L226.4 175.3" stroke="#2D1F04" stroke-width="3.87" stroke-miterlimit="10" stroke-linecap="round" stroke-linejoin="round"/>
<path d="M219.9 171.6L219.4 178.3" stroke="#2D1F04" stroke-width="3.87" stroke-miterlimit="10" stroke-linecap="round" stroke-linejoin="round"/>
<path opacity="0.23" d="M223.2 33.1001C223.1 33.1001 222.9 33.2001 222.8 33.2001C222.7 33.2001 222.7 33.3001 222.7 33.4001" fill="#2D1F04"/>
<path d="M247.5 78.1002C247.9 75.4002 253.2 73.9002 259.4 74.8002C265.6 75.7002 270.2 78.6002 269.8 81.3002C269.4 84.0002 264.1 85.5002 257.9 84.6002C251.8 83.7002 247.1 80.8002 247.5 78.1002Z" fill="#2D1F04"/>
<path d="M201.5 185.9C204.4 179.1 208.7 164.4 208.3 164.1C207.5 164.1 206.8 164.8 206.3 165.6C204.9 161.1 208.7 158.4 208.9 156C208.9 155.5 207.5 155.9 206.4 157.5C206.7 154 208.2 153.3 208.3 152C208.4 149.5 207.4 146.6 206.7 144.3C199.2 117.1 185.5 64.3003 228.9 37.8003C227.1 33.9003 221.7 34.8003 221.7 34.8003C222.7 29.9003 231.6 26.2003 242.2 29.5003C242.7 29.0003 239.4 24.4003 244.5 19.8003C244.4 23.9003 247.3 28.3003 248.5 26.6003C253 16.4003 260.9 11.8003 271.1 11.8003C267.5 13.9003 265.1 19.4003 265.6 24.8003C265.6 24.9003 270 18.8003 273.9 17.9003C269.1 22.8003 271.7 27.4003 273.6 28.2003C275.1 28.9003 282.5 26.8003 282.9 23.6003C284.7 24.6003 283.5 28.4003 298.9 37.1003C364.4 74.0003 371.4 144.1 363.3 185" stroke="#2D1F04" stroke-width="2.62" stroke-miterlimit="10" stroke-linecap="round" stroke-linejoin="round"/>
<path d="M257.1 84C255.7 88.4 255.4 94.6 256.5 101.3" stroke="#2D1F04" stroke-width="2.62" stroke-miterlimit="10" stroke-linecap="round" stroke-linejoin="round"/>
<path opacity="0.23" d="M241.5 267.6C241.3 267.5 241.1 267.4 241 267.3L241.5 267.6Z" fill="#2D1F04"/>
<path opacity="0.23" d="M363.3 185C357.2 186.7 347.2 189.5 341.4 191C348.8 160.2 350.2 112.1 332 80.3004C319.2 57.9004 300.3 46.5004 283.2 41.5004C281.7 41.1004 279.5 38.2004 277.2 38.0004C277.3 39.1004 276.4 39.8004 275.2 39.6004C273.6 39.3004 270.5 37.9004 271.6 35.1004C268.4 34.9004 266.9 38.4004 265.1 38.3004C263.3 38.2004 261.4 33.8004 257.4 33.4004C258.9 36.8004 255.5 38.7004 253.2 39.2004C250.4 39.7004 249 38.1004 249.9 36.6004C247.1 36.4004 245.7 38.8004 239.6 40.4004C230.2 42.8004 220.7 46.5004 212.3 52.0004C216.5 46.8004 221.9 42.0004 228.7 37.9004C226.9 34.0004 221.6 34.9004 221.6 34.9004C222.6 30.0004 231.5 26.3004 242.1 29.6004C242.6 29.1004 239.3 24.5004 244.4 19.9004C244.3 24.0004 247.2 28.4004 248.4 26.7004C252.9 16.5004 260.8 11.9004 271 11.9004C267.4 14.0004 265 19.5004 265.5 24.9004C265.5 24.9004 269.9 18.8004 273.8 18.0004C269.3 23.4004 271.8 27.6004 273.6 28.4004C275.1 29.1004 282.3 26.9004 282.8 23.7004C284.6 24.7004 283.4 28.5004 298.8 37.2004C364.1 73.9004 371.3 144 363.3 185Z" fill="#2D1F04"/>
<path d="M250.4 56.5003C221.8 47.6003 198.1 63.8003 198.1 63.8003" stroke="#2D1F04" stroke-width="7.6" stroke-miterlimit="10" stroke-linecap="round" stroke-linejoin="round"/>
<path d="M278.1 62.3003C319.4 61.9003 335 84.1003 335 84.1003" stroke="#2D1F04" stroke-width="7.6" stroke-miterlimit="10" stroke-linecap="round" stroke-linejoin="round"/>
<path d="M242.7 113.8C244.1 110.1 245.9 104 243.8 98.3001C247.9 100.5 255.8 100.6 256.5 98.8001C258.4 100.1 264.6 99.1001 267.9 96.1001C273.4 121.8 251.2 120.3 242.7 113.8Z" fill="#2D1F04"/>
<path d="M242.6 114.1C243.4 111.8 243.8 110.5 244.3 108.5C249 110.6 257.6 112.3 264.7 107.2C265.5 108.2 266.2 110.1 265 114.6C259.7 119.5 249.7 118.9 242.6 114.1Z" fill="#2D1F04"/>
<path d="M264.6 107.1C259 111.8 249.7 111.1 244.2 108.4C244.5 105.9 244.8 101.3 243.8 98.7002C248.2 99.8002 253.8 100 256.5 99.2002C259.8 99.2002 263.6 98.0002 265.7 97.2002C266.4 99.8002 265.8 105.2 264.6 107.1Z" fill="#2D1F04"/>
<path d="M264.9 114.4C262.8 116.5 259.8 117.6 256.5 117.8V116.7C260.5 116.1 261.4 113 261.5 111.4C261.6 109.9 259.7 109.7 255.5 110.3C261.2 109.2 262.2 105.9 262.6 104.3C263.1 102.6 263.3 100.5 261.9 101C260.6 101.5 257.1 102.2 252.7 102.1C250.2 102.1 246 101.3 245.7 102.5C245.4 103.9 245.2 105.4 245.1 107C245.1 108.6 247.2 109.7 249.7 110C249.5 110 245.2 109.1 244.5 110.2C244.1 110.9 242.6 113 247.7 115L247.4 116.3C245.7 115.7 244 114.8 242.5 113.8C243.3 111.5 243.7 110.2 244.2 108.2C244.5 105.7 244.8 101.1 243.8 98.5C248.2 99.6 253.8 99.8 256.5 99C259.8 99 263.6 97.8 265.7 97C266.3 99.6 265.6 105 264.4 106.9C265.4 108.1 266.1 109.9 264.9 114.4Z" fill="#2D1F04"/>
<path d="M243.8 98.3001C251.6 101.3 260.9 100 268 96.1001C273.7 122 251.3 120.2 242.7 113.8" stroke="#2D1F04" stroke-width="2.62" stroke-miterlimit="10" stroke-linecap="round" stroke-linejoin="round"/>
<path d="M233.8 82.9004C231.8 88.1004 226 84.1004 219.7 83.0004C212.4 81.7004 204.9 83.4004 207 75.2004C208.5 69.1004 215.4 67.9004 224.7 69.6004C233.9 71.2004 236.3 76.4004 233.8 82.9004Z" fill="#2D1F04"/>
<path d="M234.2 81.6002C232.6 75.4002 227.2 73.4002 220 73.2002C212.3 73.0002 208.3 75.3002 206.6 78.8002C206.5 77.7002 206.6 76.4002 206.9 75.1002C208.4 69.0002 215.3 67.9002 224.6 69.5002C233.3 71.1002 236 75.7002 234.2 81.6002Z" fill="#2D1F04"/>
<path d="M214.8 76.6002C215.5 73.2002 218.7 71.1002 222.1 71.7002C225.5 72.4002 227.6 75.6002 227 79.0002C226.3 82.4002 223.1 84.5002 219.7 83.9002C216.3 83.2002 214.2 80.0002 214.8 76.6002Z" fill="#2D1F04"/>
<path d="M233.8 82.9004C231.8 88.0004 226 84.3004 219.7 83.0004C212.4 81.4004 204.9 83.5004 207 75.2004C208.5 69.1004 215.4 67.9004 224.7 69.6004C233.9 71.2004 236.3 76.4004 233.8 82.9004Z" stroke="#2D1F04" stroke-width="2.62" stroke-miterlimit="10" stroke-linecap="round" stroke-linejoin="round"/>
<path d="M216.9 77.0001C218.391 77.0001 219.6 75.7913 219.6 74.3001C219.6 72.8089 218.391 71.6001 216.9 71.6001C215.409 71.6001 214.2 72.8089 214.2 74.3001C214.2 75.7913 215.409 77.0001 216.9 77.0001Z" fill="#2D1F04"/>
<path d="M217.1 80C217.652 80 218.1 79.5523 218.1 79C218.1 78.4477 217.652 78 217.1 78C216.548 78 216.1 78.4477 216.1 79C216.1 79.5523 216.548 80 217.1 80Z" fill="#2D1F04"/>
<path d="M380.7 184.9C380.7 184.9 373.2 176.2 359 173.6C353.7 172.9 346 173.6 338.9 177.4C338.7 177.5 338.5 177.6 338.3 177.7C334 180.1 329.2 183.2 325.1 185.3C317.9 188.9 310.3 192.1 300.3 195.2C299.9 195.3 299.4 195.4 299 195.5C296 196.1 281.9 198.8 262.4 198.1C258.4 198 255.1 197.8 251.9 197.6C251.8 197.6 251.7 197.6 251.6 197.6C246.3 197.2 241.5 196.6 235.5 195.6C235.1 195.5 234.7 195.5 234.3 195.4C234 195.4 233.8 195.3 233.5 195.3C224.3 193.7 216.5 191.7 210 189.7C209.6 189.6 209.1 189.4 208.7 189.3C208.2 189.2 207.8 189 207.4 188.9C206.5 188.6 205.6 188.3 204.7 188C204.5 188.7 204.3 189.3 204.2 189.9C204.4 189.3 204.5 188.7 204.7 188C203.6 187.6 202.5 187.2 201.5 186.9C201.4 186.9 201.4 186.9 201.3 186.8C201.4 186.4 201.4 186.1 201.3 186C200.5 186.1 197.9 189.3 197.3 190.4C196.1 192.5 198.2 194.7 198 195.8C197.8 196.9 189.1 216.2 188.6 230.5C188.6 231.7 188.6 232.8 188.6 233.9C188.6 234.7 188.7 235.5 188.9 236.3C188.9 236.5 189 236.6 189 236.8C189.1 237.3 189.2 237.8 189.4 238.3C189.3 238.5 189.2 238.6 189.1 238.8C189 238.9 188.9 239.1 188.9 239.2C188.8 239.3 188.7 239.5 188.7 239.6C188.6 239.7 188.6 239.9 188.5 240C188.3 240.3 188.2 240.6 188 240.9C187.6 241.6 187.3 242.3 186.9 243C186.8 243.2 186.7 243.4 186.6 243.6C186.4 244 186.2 244.4 186 244.8C177.1 261.9 172.6 276.5 170.5 290C170.4 290.8 170.3 291.6 170.2 292.4C169.2 302.6 171 308.6 173 313C184 313 334.8 313 375.9 313C380.5 297.7 380.5 282.6 388.7 274.1C391.2 271.5 397.6 273.9 409.2 271.1C413.9 270 403.9 266.1 398.5 251C392.3 233.8 388.8 214.2 386.8 197.4C383 192.6 380.8 188.3 380.7 184.9Z" fill="#2D1F04"/>
<path d="M253.9 110.5C254.4 110.5 254.9 110.5 255.3 110.4C254.9 110.5 254.4 110.5 253.9 110.5Z" fill="#2D1F04"/>
<path d="M253.9 110.5C254.4 110.5 254.9 110.5 255.3 110.4C254.9 110.5 254.4 110.5 253.9 110.5Z" fill="#2D1F04"/>
<path d="M253.9 110.5C254.4 110.5 254.9 110.5 255.3 110.4C254.9 110.5 254.4 110.5 253.9 110.5Z" fill="#2D1F04"/>
<path d="M212.3 229.7C220.4 230.6 227.9 231.1 235.4 232C241.6 232.7 243.8 236.9 242.8 240.7C241.4 245.9 236.4 249.1 229.6 250.2C229.2 250.3 228.9 250.3 228.2 250.4C233.2 254.3 230.8 260.9 236 267.3C230.4 266.6 225.5 265.9 220.3 265.2C217.9 261.2 217.1 257.3 217 253.6C217 251.6 216.4 250 212.8 250.2C209.7 254.4 206.8 258.8 206.6 263.6C202.2 263.1 198.5 262.7 194.8 262.4C198.4 249.7 209.9 242.7 212.3 229.7ZM221.8 237.3C220.8 239.5 219.5 241.4 217.7 243.8C220.3 244 222.7 244.2 225.3 244.2C227.6 244.2 229.5 243.1 230.5 241.5C231.5 239.8 230.9 238.4 228.8 237.9C226.6 237.6 224.2 237.5 221.8 237.3Z" fill="#2D1F04"/>
<path d="M276.7 245.8C273.1 245.7 269.8 245.5 266.2 245.4C266.5 242.3 264.9 240.4 261.9 240C260 239.8 258.3 240.2 257.1 242.3C256.7 244.1 257.7 244.8 259.1 245.3C261.5 246.3 264 247.2 266.4 248.2C267.7 248.8 269 249.5 270.2 250.2C277.6 255 274.1 264.8 268.2 268.8C266.2 270.1 263.6 270.9 260.9 271C256.5 271.2 251.4 270.4 246.4 268.7C239.7 266.4 235.6 261.4 238.1 255.8C242 256.1 245.8 256.4 249.8 256.7C249.8 257.4 249.8 258.1 249.8 258.7C250.2 262.2 254.4 264.3 258.3 263.5C260.1 263.1 261.4 262.2 261.8 260.6C262.2 259.1 261.6 257.9 260.3 257.2C259.2 256.6 257.9 256.1 256.7 255.6C254.2 254.5 251.6 253.6 249.3 252.3C245 249.8 244.4 246.3 246.1 242.4C248 238.1 251 234.6 255.7 233.5C260.1 232.5 264.8 232.7 269.7 234.6C274.9 236.5 277.5 240.2 276.7 245.8Z" fill="#2D1F04"/>
<path opacity="0.23" d="M180.5 257.4C184.6 253.2 189.3 250.8 191.7 249.5C196.7 246.8 202.7 247 207.9 248.2C222.1 251.4 247.6 261.6 262.1 264.7C288.7 270.3 312.7 262.3 310.3 258C308.3 254.5 267.4 261.4 252.7 255C239.7 249.3 218.7 246.8 205.1 243.5C201.8 242.7 191.2 239.1 188.8 233.8C188.7 236 189.1 236.7 189.7 238C188.3 240.6 185.4 245.3 180.5 257.4Z" fill="#2D1F04"/>
<path d="M201.7 186.8C201.9 186.1 201.8 185.8 201.5 185.9C200.7 186 198.1 189.3 197.5 190.3C196.3 192.4 198.4 194.6 198.2 195.7C198 197 185.3 225.1 189.7 238.6" stroke="#2D1F04" stroke-width="2.62" stroke-miterlimit="10" stroke-linecap="round" stroke-linejoin="round"/>
<path d="M198.8 195.1C205 199.9 217.3 203.2 230.4 205.8C248.3 209.3 274.1 211.8 302.6 207" stroke="#2D1F04" stroke-width="2.62" stroke-miterlimit="10" stroke-linecap="round" stroke-linejoin="round"/>
<path d="M208.6 189.6C207.8 191.5 207 192.9 206.9 195" stroke="#2D1F04" stroke-width="2.62" stroke-miterlimit="10" stroke-linecap="round" stroke-linejoin="round"/>
<path d="M220.1 192.9C219.1 194.6 218.7 196.9 218.6 198.8" stroke="#2D1F04" stroke-width="2.62" stroke-miterlimit="10" stroke-linecap="round" stroke-linejoin="round"/>
<path d="M277.2 199.2L277.1 199.7V200.2L277 201.3V201.8" stroke="#2D1F04" stroke-width="2.62" stroke-miterlimit="10" stroke-linecap="round" stroke-linejoin="round"/>
<path d="M281.1 199.5L281 200.3L280.9 201.1V201.6" stroke="#2D1F04" stroke-width="2.62" stroke-miterlimit="10" stroke-linecap="round" stroke-linejoin="round"/>
<path d="M165.1 223.2C162.6 221.6 160.7 220.2 159.8 219.1C159.5 218.8 159.3 218.5 159 218.3C158.2 217.4 157.3 212.5 161.1 210.1C161.6 208.9 162.2 207.7 162.8 206.3C173 184.4 187.3 176.8 202 179.5" stroke="#2D1F04" stroke-width="2.62" stroke-miterlimit="10" stroke-linecap="round" stroke-linejoin="round"/>
<path d="M161.1 210.1C166.1 213.5 175.3 218.9 184.9 223" stroke="#2D1F04" stroke-width="2.62" stroke-miterlimit="10" stroke-linecap="round" stroke-linejoin="round"/>
<path d="M168.5 214.7C167.3 215.3 166.3 217.6 166.1 218.7" stroke="#2D1F04" stroke-width="2.62" stroke-miterlimit="10" stroke-linecap="round" stroke-linejoin="round"/>
<path d="M175.2 218.4C174.4 219 173.7 220.8 173.6 221.5" stroke="#2D1F04" stroke-width="2.62" stroke-miterlimit="10" stroke-linecap="round" stroke-linejoin="round"/>
<path d="M173.2 312.9C171 308.2 168.9 301.3 170.6 289.9C172.9 274.6 178.4 258 189.7 238" stroke="#2D1F04" stroke-width="2.7806" stroke-miterlimit="10" stroke-linecap="round" stroke-linejoin="round"/>
<path d="M201.7 186.7C212.5 190.7 230.5 195.9 254 197.8C273.4 199.3 291.7 197.9 299.3 195.6C309.8 192.4 317.7 189 325.2 185.3C329.4 183.2 334.5 179.8 338.9 177.4C346 173.6 360.8 167.4 380.7 184.9" stroke="#2D1F04" stroke-width="2.62" stroke-miterlimit="10" stroke-linecap="round" stroke-linejoin="round"/>
<path d="M333.8 110.7C332.9 118.5 321.5 123.5 308.3 122C295.1 120.5 285.2 112.9 286.1 105.2C287 97.4004 298.4 92.4004 311.6 93.9004C324.8 95.4004 334.7 102.9 333.8 110.7Z" fill="#2D1F04"/>
<path opacity="0.23" d="M409.4 271C397.8 273.8 391.4 271.4 388.9 274C380.7 282.5 380.7 297.6 376.1 312.9H352.2C361.4 285 370.7 244 369.1 227.1C374.3 238.1 386.7 241.2 395.5 241.2C396.5 244.5 397.5 247.8 398.7 250.9C404.1 266 414.1 269.9 409.4 271Z" fill="#2D1F04"/>
<path d="M347.2 60.5003C346.1 60.9003 341.6 58.7003 339.9 59.3003C338.1 59.9003 330.4 81.2003 312.8 84.1003C303.1 85.7003 282.5 76.0003 280.5 64.1003C279.4 57.6003 284.6 38.9003 277.2 36.8003C275.2 36.2003 273.5 36.2003 271.9 36.7003C267.8 37.9003 264.8 42.3003 261.2 47.5003C258.4 51.6003 256.1 54.3003 253.4 56.2003C251.3 57.6003 249 58.4003 245.9 59.0003C229.7 61.7003 212.6 55.5003 210.6 43.2003C208.7 31.7003 212.8 18.8003 212.5 17.7003C212.2 16.6003 207.1 14.7003 206.4 13.2003C205.8 12.0003 209.4 2.70026 210.9 2.10026C211.4 1.90026 215.6 2.60026 228.5 5.80026C241.4 9.00026 256.7 16.0003 263.5 19.5003C270.3 23.0003 274 25.8003 275.6 26.6003C277.2 27.3003 280.4 28.4003 284 29.6003C286.3 30.3003 290.9 30.1003 303.5 32.2003C310.7 33.4003 325.8 37.8003 340.5 43.7003C346.3 46.0003 350.4 47.8003 351.2 49.3003C351.3 49.4003 351.3 49.5003 351.3 49.6003C351.8 51.6003 348.3 60.1003 347.2 60.5003Z" fill="#2D1F04"/>
<path d="M272.1 36.5C271.4 47.2 262.9 52.3 253.6 56C256.3 54.2 258.6 51.4 261.4 47.3C265 42.1 267.9 37.7 272.1 36.5Z" fill="#2D1F04"/>
<path d="M368.5 84.4003C367.5 92.0003 361.6 86.3003 361.6 83.0003C361.7 78.5003 360.3 72.8003 359.8 72.0003C357 68.0003 351.3 62.0003 347.2 60.5003C348.3 60.1003 351.8 51.6003 351.3 49.6003C351.3 49.5003 351.2 49.4003 351.2 49.3003C358.8 55.1003 366 64.4003 367.4 67.0003C368.7 69.5003 369.7 75.1003 368.5 84.4003Z" fill="#2D1F04"/>
<path d="M351.3 49.6002C350.9 48.0002 346.7 46.1002 340.4 43.6002C325.7 37.7002 310.6 33.3002 303.4 32.1002C290.8 30.0002 286.2 30.2002 283.9 29.5002C280.3 28.3002 277.1 27.2002 275.5 26.5002C273.9 25.8002 270.1 22.9002 263.4 19.4002C256.7 15.9002 241.4 8.90016 228.5 5.70016C215.6 2.50016 211.5 1.80016 210.9 2.00016C209.4 2.60016 205.9 11.9002 206.4 13.1002C207.1 14.6002 212.2 16.5002 212.5 17.6002C212.8 18.7002 208.7 31.6002 210.6 43.1002C212.6 55.3002 229.7 61.6002 245.9 58.9002C253.1 57.7002 256.3 54.6002 261.3 47.5002C266.3 40.3002 269.9 34.7002 277.3 36.7002C284.7 38.8002 279.5 57.4002 280.6 64.0002C282.6 75.9002 303.2 85.7002 312.9 84.0002C330.5 81.1002 338.2 59.8002 340 59.2002C341.8 58.6002 346.2 60.8002 347.3 60.4002C348.3 60.1002 351.8 51.6002 351.3 49.6002Z" stroke="#2D1F04" stroke-width="2.62" stroke-miterlimit="10" stroke-linecap="round" stroke-linejoin="round"/>
<path d="M346.296 53.8475C346.664 52.8649 345.747 51.6126 344.247 51.0504C342.747 50.4882 341.233 50.8291 340.865 51.8117C340.496 52.7943 341.414 54.0466 342.913 54.6087C344.413 55.1709 345.927 54.8301 346.296 53.8475Z" fill="#2D1F04"/>
<path d="M217.409 10.7381C217.777 9.75549 216.86 8.50319 215.361 7.94102C213.861 7.37885 212.346 7.71969 211.978 8.70229C211.61 9.68489 212.527 10.9372 214.027 11.4993C215.526 12.0615 217.041 11.7207 217.409 10.7381Z" fill="#2D1F04"/>
<path d="M216.6 40.5001C217.9 48.3001 231.1 53.4001 241.2 53.5001C242.8 53.5001 244.3 53.4001 245.7 53.2001C247.3 52.9001 248.7 52.3001 250 51.5001C253.2 49.5001 255.9 46.0001 258.4 42.5001C259.2 41.4001 260 40.2001 260.7 39.0001C262.8 35.6001 264.3 32.2001 263.8 29.3001C263 24.7001 255.3 21.6001 246.4 18.0001C243.5 16.8001 240.5 15.7001 237.7 14.8001C232.9 13.2001 228.6 12.3001 226 12.7001C222.2 13.3001 220.2 15.3001 219.1 18.0001C218.1 20.3001 217.7 23.2001 217.2 26.3001C217.1 26.9001 217 27.5001 217 28.0001C216.3 33.0001 216.1 37.8001 216.6 40.5001Z" fill="#2D1F04"/>
<path d="M286.1 60.9C287.4 68.7 301.5 78.4 313.4 77.4C313.9 77.4 314.4 77.3 314.9 77.2C316.7 76.9 318.8 75.8 321.1 74.1C325.1 71.2 329.2 66.5 331.9 61.8C334 58.2 335.2 54.6 334.7 51.7C333.9 46.8 325.5 43.9 316.7 41.3C314.8 40.8 312.9 40.2 311 39.7C304.4 37.9 298.2 36.7 295.3 37.2C292.9 37.6 291.2 38.7 290 40.3C288.4 42.4 287.6 45.4 286.8 49.1C286.8 49.2 286.8 49.2 286.8 49.3C285.9 53.3 285.5 57.7 286.1 60.9Z" fill="#2D1F04"/>
<path d="M321.8 96.4C313.5 87.5 304.8 87.6 294.8 95.1C305.8 93.1 310.9 96.1 313.8 99.9" stroke="#2D1F04" stroke-width="2.62" stroke-miterlimit="10" stroke-linecap="round" stroke-linejoin="round"/>
<path d="M394.6 235.6C382.1 219.6 381.9 201.3 380.6 188C377.4 154.8 369.6 132.9 356.8 107.4C352.7 102.8 350.1 92.0003 347.2 81.0003C343.5 66.9003 333.4 54.8003 336 52.4003C340.8 48.1003 361.2 59.3003 377.2 93.2003C390.7 115.5 406.2 129.3 418.9 144.1C439.8 168.4 452.1 186 456 204.5C465.5 250 429.1 279.8 394.6 235.6Z" fill="#2D1F04"/>
<path d="M357.3 107C363.3 105.7 371.4 102 376 95.0001C376.5 94.2001 377 93.4001 377.5 92.6001C361 58.8001 340.6 47.9001 335.9 52.3001C333.3 54.7001 343.5 66.8001 347.3 80.8001C350.5 93.2001 353.1 102.5 357.3 107Z" fill="#2D1F04"/>
<path d="M356.8 107.3C369.6 132.8 377.4 154.7 380.6 187.9C381.9 201.2 384.6 216.6 394.6 235.5" stroke="#2D1F04" stroke-width="2.62" stroke-miterlimit="10" stroke-linecap="round" stroke-linejoin="round"/>
<path d="M338.2 52.5C348.3 57.8 362.8 74.5 370.2 99.1" stroke="#2D1F04" stroke-width="2.62" stroke-miterlimit="10" stroke-linecap="round" stroke-linejoin="round"/>
<path d="M376.1 312.9C380.7 297.6 380.7 282.5 388.9 274C391.2 271.6 399 273.7 409.4 271C412.1 270.3 409.2 268.4 409.6 268.3C424.5 264.9 443.1 259.1 450.7 244.8C456 234.8 459.3 220.3 456.1 204.5C452.3 185.9 440 168.4 419 144.1C406.3 129.3 390.7 115.4 377.3 93.2003C372.6 101.3 363.9 104.9 356.9 107.4C352.8 102.8 350.2 92.0003 347.3 81.0003C343.6 66.9003 333.5 54.7003 336.1 52.4003C340.9 48.1003 361.3 59.3003 377.3 93.2003" stroke="#2D1F04" stroke-width="2.62" stroke-miterlimit="10" stroke-linecap="round" stroke-linejoin="round"/>
<path opacity="0.23" d="M381.6 198.5C373.8 183.3 357.6 171.4 338.4 177.7C338.6 177.6 338.7 177.5 338.9 177.4C346 173.6 353.6 172.9 359 173.6C371.2 175.9 378.4 182.6 380.2 184.4C380.3 185.6 380.4 186.7 380.6 187.9C380.9 191.2 381.2 194.8 381.6 198.5Z" fill="#2D1F04"/>
<path d="M403.1 260C404.8 262.7 406.9 265.5 409.6 268.3" stroke="#2D1F04" stroke-width="2.62" stroke-miterlimit="10" stroke-linecap="round" stroke-linejoin="round"/>
<path d="M403.1 272.2C393.9 262.4 388.3 249.2 384.6 233.8" stroke="#2D1F04" stroke-width="2.62" stroke-miterlimit="10" stroke-linecap="round" stroke-linejoin="round"/>
<path opacity="0.23" d="M450.7 244.8C443.3 259.6 424.5 265.1 409.5 268.4C402.4 260.9 399.5 252.9 397.8 248.5C423.2 255.4 440.9 246 445.5 238.8C454.9 223.9 448.6 209.8 430.7 185C413.9 161.8 400.4 142.4 384.7 115.2C370.1 90.0003 358.2 68.9003 338.9 61.6003C336.4 56.9003 334.8 53.5003 336.1 52.4003C340.9 48.1003 361.3 59.3003 377.3 93.2003C390.8 115.5 406.3 129.3 419 144.1C439.9 168.4 452.2 186 456.1 204.5C459.4 220.9 456.9 235.2 450.7 244.8Z" fill="#2D1F04"/>
<path opacity="0.23" d="M323 204.3C322.3 199.9 320.3 198.5 314.9 197.6C307.3 196.4 297.4 197.2 288 197.2C293.8 196.6 297.7 195.8 299.2 195.5C299.6 195.4 300.1 195.3 300.5 195.2C310.5 192.1 318 188.9 325.3 185.3C328.8 183.6 332.8 181 336.6 178.8C328.6 184.7 324.4 190.3 323 204.3Z" fill="#2D1F04"/>
<path d="M160.9 50.6002C155.1 51.8002 154.8 56.6002 154.4 64.5002C154 56.6002 153.5 51.7002 147.9 50.6002C153.7 49.6002 154.1 44.3002 154.4 36.7002C154.8 44.3002 155.1 49.2002 160.9 50.6002Z" fill="#2D1F04"/>
<path d="M408 65.6003C399.9 67.3003 399.5 74.0003 398.9 84.9003C398.3 73.9003 397.6 67.0003 389.8 65.6003C397.9 64.2003 398.4 56.8003 398.9 46.3003C399.5 56.8003 399.9 63.6003 408 65.6003Z" fill="#2D1F04"/>
<path d="M130.1 87.5001C125.9 88.9001 125.3 92.3001 124.9 98.4001C124.6 92.2001 123.6 88.7001 119.7 87.5001C123.5 86.3001 124.6 82.5001 124.9 76.6001C125.2 82.6001 125.8 86.1001 130.1 87.5001Z" fill="#2D1F04"/>
<path d="M424 97.7004C419.2 99.3004 418.4 103.3 418 110.5C417.6 103.2 416.5 99.0004 412 97.7004C416.6 96.2004 417.7 91.9004 418 84.9004C418.4 91.9004 419.1 95.9004 424 97.7004Z" fill="#2D1F04"/>
<path d="M176.4 110.9C166.6 113 166.1 121.1 165.4 134.2C164.7 121 163.9 112.6 154.4 110.9C164.2 109.2 164.8 100.3 165.4 87.6001C166.1 100.3 166.6 108.5 176.4 110.9Z" fill="#2D1F04"/>
<path d="M127.7 292.6C141.2 294 149.9 295.5 160.8 299.5" stroke="#2D1F04" stroke-width="2.62" stroke-miterlimit="10" stroke-linecap="round" stroke-linejoin="round"/>
<path d="M255.5 307L82.3 324.9C77.1 325.4 71.8 324.4 67.3 321.8L9.00002 289.6C6.90002 288.4 5.90002 286.4 5.90002 283.4L184.7 271.8C189.2 271.5 193.7 272.3 197.8 274.3L259.2 300.1C259.2 304.1 257.9 306.7 255.5 307Z" fill="#2D1F04"/>
<path d="M183.8 267.5L10.8 280.7C5.90005 281.1 1.80005 277.2 1.80005 272.3V168.5C1.80005 164 5.30005 160.4 9.70005 160.1L182.7 151.1C187.5 150.9 191.5 154.7 191.5 159.5V259.2C191.6 263.6 188.2 267.2 183.8 267.5Z" fill="#2D1F04"/>
<path d="M186.4 152.8C186.1 152.8 185.7 152.8 185.3 152.8L12.3 161.8C7.30002 162 4.40002 164.4 4.40002 168.8V274C4.40002 276.4 5.40002 278.5 7.00002 280.1C4.00002 278.8 1.90002 275.9 1.90002 272.4V168.5C1.90002 165.7 3.30002 163.1 5.50002 161.6C6.50002 161.1 7.70002 160.8 8.90002 160.7L181.9 151.7C183.5 151.6 185 152 186.4 152.8Z" fill="#2D1F04"/>
<path d="M184 159.5V259.2C184 259.6 183.7 259.9 183.3 260L84.3 267.6L66.7 269L50.6 270.2L19 272.5L12.4 273H12.3C11.9 273 11.5 272.7 11.5 272.2V168.4C11.5 168 11.8 167.7 12.2 167.6L86.9 163.7L118 162.1L133.8 161.3L151.1 160.4L183.1 158.7C183.6 158.7 184 159.1 184 159.5Z" fill="#2D1F04"/>
<path d="M255.5 302.7L82.3001 320.7C77.1001 321.2 71.8001 320.2 67.3001 317.6L9.00011 285.4C6.90011 284.2 7.60011 281 10.0001 280.8L184.8 267.5C189.3 267.2 193.8 268 197.9 270L256.4 298.2C258.5 299.2 257.9 302.5 255.5 302.7Z" fill="#2D1F04"/>
<path d="M183.8 267.5L10.8 280.7C5.90005 281.1 1.80005 277.2 1.80005 272.3V168.5C1.80005 164 5.30005 160.4 9.70005 160.1L182.7 151.1C187.5 150.9 191.5 154.7 191.5 159.5V259.2C191.6 263.6 188.2 267.2 183.8 267.5Z" stroke="#2D1F04" stroke-width="2.8223" stroke-miterlimit="10" stroke-linecap="round" stroke-linejoin="round"/>
<path d="M255.5 302.7L82.3001 320.7C77.1001 321.2 71.8001 320.2 67.3001 317.6L9.00011 285.4C6.90011 284.2 7.60011 281 10.0001 280.8L184.8 267.5C189.3 267.2 193.8 268 197.9 270L256.4 298.2C258.5 299.2 257.9 302.5 255.5 302.7Z" stroke="#2D1F04" stroke-width="2.8223" stroke-miterlimit="10" stroke-linecap="round" stroke-linejoin="round"/>
<path d="M16.1001 284.3L70.8001 313.8C74.0001 315.5 77.7001 316.3 81.3001 315.9L92.3001 314.8" stroke="#2D1F04" stroke-width="2.8223" stroke-miterlimit="10" stroke-linecap="round" stroke-linejoin="round"/>
<path d="M228.4 291.6L69.5 307.6L25.5 284.6L187.2 272.1L228.4 291.6Z" fill="#2D1F04"/>
<path d="M224.6 296.8C224.5 296.8 224.4 296.8 224.3 296.7L174.7 271.8C174.4 271.6 174.3 271.3 174.4 271C174.6 270.7 174.9 270.6 175.2 270.7L224.8 295.6C225.1 295.8 225.2 296.1 225.1 296.4C225 296.6 224.8 296.8 224.6 296.8Z" fill="#2D1F04"/>
<path d="M211.7 297.9C211.6 297.9 211.5 297.9 211.4 297.8L161.8 272.7C161.5 272.5 161.4 272.2 161.5 271.9C161.7 271.6 162 271.5 162.3 271.6L211.9 296.7C212.2 296.9 212.3 297.2 212.2 297.5C212.1 297.7 211.9 297.9 211.7 297.9Z" fill="#2D1F04"/>
<path d="M198.8 299C198.7 299 198.6 299 198.5 298.9L148.9 273.7C148.6 273.5 148.5 273.2 148.6 272.9C148.8 272.6 149.1 272.5 149.4 272.6L199 297.8C199.3 298 199.4 298.3 199.3 298.6C199.3 298.8 199 299 198.8 299Z" fill="#2D1F04"/>
<path d="M185.9 300.1C185.8 300.1 185.7 300.1 185.6 300L136 274.7C135.7 274.5 135.6 274.2 135.7 273.9C135.9 273.6 136.2 273.5 136.5 273.6L186.1 298.9C186.4 299.1 186.5 299.4 186.4 299.7C186.4 299.9 186.2 300.1 185.9 300.1Z" fill="#2D1F04"/>
<path d="M161.5 295.3C161.4 295.3 161.3 295.3 161.2 295.2L123.2 275.7C122.9 275.5 122.8 275.2 122.9 274.9C123.1 274.6 123.4 274.5 123.7 274.6L161.7 294.1C162 294.3 162.1 294.6 162 294.9C162 295.1 161.7 295.3 161.5 295.3Z" fill="#2D1F04"/>
<path d="M148.9 296.5C148.8 296.5 148.7 296.5 148.6 296.4L110.3 276.7C110 276.5 109.9 276.2 110 275.9C110.2 275.6 110.5 275.5 110.8 275.6L149.1 295.3C149.4 295.5 149.5 295.8 149.4 296.1C149.4 296.4 149.2 296.5 148.9 296.5Z" fill="#2D1F04"/>
<path d="M136.3 297.7C136.2 297.7 136.1 297.7 136 297.6L97.4001 277.7C97.1001 277.5 97.0001 277.2 97.1001 276.9C97.3001 276.6 97.6001 276.5 97.9001 276.6L136.5 296.5C136.8 296.7 136.9 297 136.8 297.3C136.8 297.6 136.6 297.7 136.3 297.7Z" fill="#2D1F04"/>
<path d="M123.7 298.9C123.6 298.9 123.5 298.9 123.4 298.8L84.5001 278.6C84.2001 278.4 84.1001 278.1 84.2001 277.8C84.4001 277.5 84.7001 277.4 85.0001 277.5L123.9 297.7C124.2 297.9 124.3 298.2 124.2 298.5C124.2 298.8 124 298.9 123.7 298.9Z" fill="#2D1F04"/>
<path d="M121.6 305.6C121.5 305.6 121.4 305.6 121.3 305.5L71.7 279.6C71.4 279.4 71.3 279.1 71.4 278.8C71.6 278.5 71.9 278.4 72.2 278.5L121.8 304.4C122.1 304.6 122.2 304.9 122.1 305.2C122 305.5 121.8 305.6 121.6 305.6Z" fill="#2D1F04"/>
<path d="M108.7 306.7C108.6 306.7 108.5 306.7 108.4 306.6L58.8001 280.6C58.5001 280.4 58.4001 280.1 58.5001 279.8C58.7001 279.5 59.0001 279.4 59.3001 279.5L108.9 305.5C109.2 305.7 109.3 306 109.2 306.3C109.1 306.6 108.9 306.7 108.7 306.7Z" fill="#2D1F04"/>
<path d="M95.8001 307.8C95.7001 307.8 95.6001 307.8 95.5001 307.7L45.9001 281.6C45.6001 281.4 45.5001 281.1 45.6001 280.8C45.8001 280.5 46.1001 280.4 46.4001 280.5L96.0001 306.6C96.3001 306.8 96.4001 307.1 96.3001 307.4C96.3001 307.7 96.0001 307.8 95.8001 307.8Z" fill="#2D1F04"/>
<path d="M82.9001 308.9C82.8001 308.9 82.7001 308.9 82.6001 308.8L33.0001 282.6C32.7001 282.4 32.6001 282.1 32.7001 281.8C32.9001 281.5 33.2001 281.4 33.5001 281.5L83.1001 307.7C83.4001 307.9 83.5001 308.2 83.4001 308.5C83.4001 308.8 83.2001 308.9 82.9001 308.9Z" fill="#2D1F04"/>
<path d="M29.6 288C29.3 288 29 287.8 29 287.4C29 287.1 29.2 286.8 29.6 286.7L199.8 273.6C200.1 273.6 200.4 273.8 200.5 274.2C200.5 274.5 200.3 274.8 199.9 274.9L29.6 288Z" fill="#2D1F04"/>
<path d="M37.4001 292.3C37.1001 292.3 36.8 292.1 36.8 291.7C36.8 291.4 37.0001 291.1 37.4001 291L206.6 277.1C206.9 277.1 207.2 277.3 207.3 277.7C207.3 278 207.1 278.3 206.7 278.4L37.4001 292.3C37.5001 292.3 37.4001 292.3 37.4001 292.3Z" fill="#2D1F04"/>
<path d="M45.2 296.5C44.9 296.5 44.6 296.3 44.6 295.9C44.6 295.6 44.8 295.3 45.2 295.2L213.5 280.6C213.8 280.6 214.1 280.8 214.2 281.2C214.2 281.5 214 281.8 213.6 281.9L45.2 296.5C45.3 296.5 45.3 296.5 45.2 296.5Z" fill="#2D1F04"/>
<path d="M53.1 300.8C52.8 300.8 52.5 300.6 52.5 300.2C52.5 299.9 52.7 299.6 53.1 299.5L220.5 284.1C220.8 284.1 221.1 284.3 221.2 284.7C221.2 285 221 285.3 220.6 285.4L53.1 300.8Z" fill="#2D1F04"/>
<path d="M60.9 305C60.6 305 60.3 304.8 60.3 304.4C60.3 304.1 60.5 303.8 60.9 303.7L227.3 287.6C227.6 287.6 227.9 287.8 228 288.2C228 288.5 227.8 288.8 227.4 288.9L60.9 305Z" fill="#2D1F04"/>
<path d="M122.3 305.5L132.7 311.9C133.5 312.4 134.4 312.6 135.3 312.5L195.8 306.3C196.5 306.2 196.7 305.3 196.1 304.9L183.9 298.4C183.2 298 182.3 297.8 181.5 297.9L122.7 304.1C121.9 304.2 121.7 305.2 122.3 305.5Z" fill="#2D1F04"/>
<path d="M17.3 259.4L23.4001 258.6C23.5001 259.6 23.8001 260.4 24.2001 260.9C24.9001 261.7 25.8 262.1 27 262C27.9 261.9 28.6 261.7 29.1 261.2C29.6 260.7 29.8 260.2 29.8 259.6C29.8 259 29.6 258.6 29.1 258.2C28.6 257.8 27.5 257.5 25.8 257.2C23 256.8 21.0001 256 19.7001 255.1C18.5001 254.1 17.9 252.8 17.9 251.1C17.9 250 18.2 249 18.8 247.9C19.4 246.9 20.4 246 21.6 245.4C22.8 244.8 24.6001 244.3 26.7001 244.2C29.4001 244 31.4 244.4 32.8 245.3C34.2 246.2 35 247.8 35.3 249.9L29.2001 250.7C29.0001 249.8 28.7001 249.1 28.2001 248.7C27.7001 248.3 27 248.1 26.1 248.2C25.3 248.3 24.8001 248.5 24.4001 248.8C24.0001 249.2 23.8 249.6 23.8 250C23.8 250.3 24 250.6 24.3 250.9C24.6 251.2 25.3 251.4 26.5 251.5C29.3 251.9 31.3 252.4 32.6 252.9C33.8 253.4 34.7 254.2 35.3 255.1C35.9 256 36.1 257 36.1 258.2C36.1 259.6 35.7001 260.8 35 262.1C34.3 263.3 33.2001 264.3 31.9001 264.9C30.6001 265.6 28.9001 266 26.9001 266.2C23.3001 266.5 20.9 265.9 19.5 264.7C18.3 263.2 17.5 261.5 17.3 259.4Z" fill="#2D1F04"/>
<path d="M55.1001 263.6L49.7001 264V261.5C48.9001 262.6 48.1001 263.4 47.3001 263.9C46.5001 264.4 45.5001 264.7 44.3001 264.8C42.7001 264.9 41.5001 264.5 40.5001 263.6C39.6001 262.7 39.1001 261.2 39.1001 259.2V249.4L44.9001 249V257.5C44.9001 258.5 45.1001 259.1 45.4001 259.5C45.8001 259.9 46.2001 260 46.9001 260C47.6001 259.9 48.2001 259.6 48.6001 259.1C49.0001 258.5 49.3001 257.5 49.3001 256.1V248.7L55.1001 248.3V263.6Z" fill="#2D1F04"/>
<path d="M58.6001 242.1L64.5001 241.7V249.1C65.1001 248.4 65.7001 247.9 66.5001 247.6C67.2001 247.2 68.1001 247 68.9001 247C70.7001 246.9 72.3001 247.4 73.5001 248.7C74.7001 250 75.3001 251.9 75.3001 254.4C75.3001 256.1 75.0001 257.6 74.5001 258.9C73.9001 260.2 73.2001 261.2 72.2001 261.9C71.2001 262.6 70.1001 263 69.0001 263.1C68.0001 263.2 67.1001 263 66.2001 262.6C65.6001 262.3 64.9001 261.7 64.1001 260.8V263.1L58.7001 263.5V242.1H58.6001ZM64.4001 255.2C64.4001 256.5 64.6001 257.5 65.1001 258C65.6001 258.6 66.2001 258.8 67.0001 258.8C67.7001 258.7 68.3001 258.4 68.7001 257.8C69.1001 257.2 69.4001 256.2 69.4001 254.8C69.4001 253.6 69.2001 252.7 68.7001 252.2C68.2001 251.7 67.7001 251.4 67.0001 251.5C66.2001 251.6 65.6001 251.9 65.1001 252.5C64.7001 253.1 64.4001 254 64.4001 255.2Z" fill="#2D1F04"/>
<path d="M78.1001 246.5L83.5001 246.1V248.3C84.3001 247.3 85.1001 246.6 85.9001 246.1C86.7001 245.6 87.7001 245.4 88.8001 245.3C90.0001 245.2 91.0001 245.4 91.7001 245.7C92.4001 246.1 93.0001 246.7 93.4001 247.5C94.3001 246.4 95.1001 245.7 95.9001 245.3C96.6001 244.9 97.6001 244.6 98.7001 244.6C100.3 244.5 101.6 244.9 102.5 245.8C103.4 246.7 103.9 248.2 103.9 250.3V260L98.1001 260.4V251.6C98.1001 250.9 98.0001 250.4 97.7001 250.1C97.3001 249.6 96.8001 249.4 96.3001 249.4C95.6001 249.4 95.1001 249.7 94.7001 250.3C94.3001 250.8 94.1001 251.7 94.1001 252.8V260.8L88.3001 261.2V252.7C88.3001 252 88.3001 251.6 88.2001 251.3C88.1001 250.9 87.9001 250.6 87.6001 250.4C87.3001 250.2 86.9001 250.1 86.5001 250.1C85.8001 250.1 85.3001 250.4 84.9001 251C84.5001 251.5 84.3001 252.4 84.3001 253.6V261.5L78.5001 261.9V246.5H78.1001Z" fill="#2D1F04"/>
<path d="M107.5 238.5L113.3 238.1V242.1L107.5 242.5V238.5ZM107.5 244.4L113.3 244V259.4L107.5 259.8V244.4Z" fill="#2D1F04"/>
<path d="M124 237.3V243.2L127.2 243V247.3L124 247.5V253C124 253.7 124.1 254.1 124.2 254.3C124.4 254.6 124.7 254.8 125.2 254.7C125.6 254.7 126.2 254.5 127 254.2L127.4 258.2C126 258.6 124.6 258.9 123.4 259C122 259.1 120.9 259 120.2 258.7C119.5 258.4 119 257.8 118.7 257.1C118.4 256.4 118.2 255.1 118.2 253.4V248L116.1 248.2V243.9L118.2 243.7V240.9L124 237.3Z" fill="#2D1F04"/>
<path d="M136.9 236.4V242.3L140.1 242.1V246.4L136.9 246.6V252.1C136.9 252.8 137 253.2 137.1 253.4C137.3 253.7 137.6 253.9 138.1 253.8C138.5 253.8 139.1 253.6 139.9 253.3L140.3 257.3C138.9 257.7 137.5 258 136.3 258.1C134.9 258.2 133.8 258.1 133.1 257.8C132.4 257.5 131.9 256.9 131.6 256.2C131.3 255.5 131.1 254.2 131.1 252.5V247L129 247.2V242.9L131.1 242.7V239.9L136.9 236.4Z" fill="#2D1F04"/>
<path d="M159.7 249.7L148.1 250.6C148.2 251.5 148.5 252.2 148.9 252.7C149.5 253.3 150.2 253.6 151.1 253.5C151.7 253.5 152.2 253.3 152.7 252.9C153 252.7 153.4 252.3 153.7 251.9L159.4 252C158.5 253.6 157.5 254.8 156.2 255.6C155 256.4 153.2 256.8 150.9 257C148.9 257.1 147.3 257 146.2 256.5C145.1 256 144.1 255.2 143.3 254C142.5 252.8 142.2 251.4 142.2 249.7C142.2 247.3 143 245.3 144.5 243.7C146 242.1 148.1 241.2 150.8 241C153 240.8 154.7 241.1 155.9 241.6C157.2 242.2 158.1 243.1 158.8 244.3C159.5 245.5 159.8 247.1 159.8 249.2V249.7H159.7ZM153.8 247.3C153.7 246.2 153.4 245.4 152.9 244.9C152.4 244.4 151.8 244.2 151 244.3C150.1 244.4 149.3 244.8 148.8 245.6C148.4 246.1 148.2 246.8 148.1 247.7L153.8 247.3Z" fill="#2D1F04"/>
<path d="M178.3 233.3V254.6L172.9 255V252.7C172.1 253.7 171.4 254.4 170.8 254.8C170 255.3 169 255.6 168 255.7C165.9 255.9 164.4 255.2 163.3 253.7C162.2 252.2 161.7 250.3 161.7 248C161.7 245.4 162.3 243.4 163.5 242C164.7 240.6 166.2 239.8 168.1 239.6C169 239.5 169.8 239.6 170.6 239.9C171.3 240.2 172 240.6 172.6 241.1V233.7L178.3 233.3ZM172.4 247.3C172.4 246.1 172.1 245.2 171.6 244.6C171.1 244 170.5 243.8 169.7 243.8C169 243.8 168.5 244.2 168 244.8C167.5 245.4 167.3 246.4 167.3 247.7C167.3 249 167.5 249.9 168 250.4C168.5 251 169.1 251.2 169.7 251.1C170.4 251 171.1 250.7 171.6 250.1C172.2 249.6 172.4 248.6 172.4 247.3Z" fill="#2D1F04"/>
<path d="M124.145 221.605C135.775 208.37 135.315 188.952 123.117 178.234C110.92 167.516 91.6042 169.556 79.9747 182.791C68.3451 196.025 68.8054 215.443 81.0028 226.161C93.2001 236.879 112.516 234.839 124.145 221.605Z" fill="#2D1F04"/>
<path d="M99.7 218.401C98.6 218.501 97.5 218.101 96.8 217.301L87.9 207.401C86.5 205.901 86.7 203.401 88.4 201.901C90 200.401 92.4 200.401 93.8 201.901L99.1 207.801L110 187.501C111 185.601 113.4 184.701 115.2 185.601C117 186.501 117.7 188.801 116.7 190.801L103 216.201C102.4 217.401 101.3 218.201 100 218.401C99.9 218.401 99.8 218.401 99.7 218.401Z" fill="#2D1F04"/>
<path opacity="0.17" d="M118.1 162.101L50.6 270.101L19 272.501L87 163.801L118.1 162.101Z" fill="#2D1F04"/>
<path opacity="0.17" d="M151.2 160.4L84.3 267.5L66.7 268.9L133.9 161.3L151.2 160.4Z" fill="#2D1F04"/>
<path d="M265.636 218.636V217.545C265.758 205.97 266.97 196.758 269.273 189.909C271.576 183.061 274.848 177.515 279.091 173.273C283.333 169.03 288.424 165.121 294.364 161.545C297.939 159.364 301.152 156.788 304 153.818C306.848 150.788 309.091 147.303 310.727 143.364C312.424 139.424 313.273 135.061 313.273 130.273C313.273 124.333 311.879 119.182 309.091 114.818C306.303 110.455 302.576 107.091 297.909 104.727C293.242 102.364 288.061 101.182 282.364 101.182C277.394 101.182 272.606 102.212 268 104.273C263.394 106.333 259.545 109.576 256.455 114C253.364 118.424 251.576 124.212 251.091 131.364H228.182C228.667 121.061 231.333 112.242 236.182 104.909C241.091 97.5758 247.545 91.9697 255.545 88.0909C263.606 84.2121 272.545 82.2727 282.364 82.2727C293.03 82.2727 302.303 84.3939 310.182 88.6364C318.121 92.8788 324.242 98.697 328.545 106.091C332.909 113.485 335.091 121.909 335.091 131.364C335.091 138.03 334.061 144.061 332 149.455C330 154.848 327.091 159.667 323.273 163.909C319.515 168.152 314.97 171.909 309.636 175.182C304.303 178.515 300.03 182.03 296.818 185.727C293.606 189.364 291.273 193.697 289.818 198.727C288.364 203.758 287.576 210.03 287.455 217.545V218.636H265.636ZM277.273 272.455C272.788 272.455 268.939 270.848 265.727 267.636C262.515 264.424 260.909 260.576 260.909 256.091C260.909 251.606 262.515 247.758 265.727 244.545C268.939 241.333 272.788 239.727 277.273 239.727C281.758 239.727 285.606 241.333 288.818 244.545C292.03 247.758 293.636 251.606 293.636 256.091C293.636 259.061 292.879 261.788 291.364 264.273C289.909 266.758 287.939 268.758 285.455 270.273C283.03 271.727 280.303 272.455 277.273 272.455Z" fill="white"/>
</g>
<defs>
<clipPath id="clip0_228_1956">
<rect width="459" height="326" fill="white"/>
</clipPath>
</defs>
</svg>
