<svg width="399" height="335" viewBox="0 0 399 335" fill="none" xmlns="http://www.w3.org/2000/svg">
<g clip-path="url(#clip0_228_2261)">
<path d="M110.5 56.4C119.2 47.4 126.2 45.4 143 48C157.8 50.4 172.6 62.3 183.5 76.3C179.4 83.7 168.2 90.5 164.1 92.6C155.4 88 126.2 68.2 110.5 56.4Z" fill="#2D1F04"/>
<path d="M235.2 139C235.2 138.8 235.2 138.6 235.2 138.4C235.2 137.9 235.1 137.5 235.1 137C235 136.2 235 135.5 234.9 134.8C234.8 134.3 234.8 133.8 234.7 133.3C234.7 133.2 234.7 133.1 234.7 133C234.6 132.6 234.6 132.2 234.5 131.8C234.4 131.4 234.4 131.1 234.3 130.7C232.7 121.8 229.7 114.4 225.8 108C225.3 107.2 224.8 106.4 224.3 105.7C223.5 104.4 222.6 103.2 221.7 102C219.9 99.7 218.1 97.5 216.1 95.5C216.4 94.4 216.7 93.3 217 92.2C219.2 82.6 218.7 72 216.4 62.9C216.4 62.8 216.4 62.7 216.3 62.6C216.2 62.1 216 61.5 215.9 61C215.1 58.3 214.2 55.8 213.2 53.5C212.9 53.5 212.6 53.5 212.3 53.5C198.4 53.5 186.2 58.6 176.7 64.6C176.7 64.6 176.6 64.6 176.6 64.7C173.5 66.6 170.7 68.7 168.3 70.6C156.9 67.6 149 66.3 137.7 66C135.8 65.9 133.8 65.9 131.6 65.9C130.1 65.9 128.7 65.9 127.4 65.9C120.7 66 115.3 66.4 110.5 67C110.4 67 110.3 67 110.2 67C102.4 68 96.2 69.5 88.6 71.6C78.4 63.5 61.4 53.3 42.5 53.6C37 67.1 34.2 81.8 40.9 98.2C29.9 109.7 23.1 124.9 23.1 145.6C23.1 158.7 24.8 170.5 28.8 180.9C29.9 183.7 31.2 186.5 32.7 189.1C43.7 208.7 65.4 221.8 103.9 225.9C108.1 226.4 112.5 226.7 117.2 226.9C121.8 227.1 126.7 227.2 131.7 227.2C141.7 227.2 150.8 226.8 159 226.1C177.8 224.4 192 220.7 202.8 215.3C202.9 215.3 202.9 215.2 203 215.2C203.9 214.8 204.8 214.3 205.6 213.8C205.7 213.8 205.8 213.7 205.9 213.7C206.8 213.2 207.7 212.7 208.6 212.1C208.6 212.1 208.6 212.1 208.7 212.1C210.5 211 212.2 209.8 213.8 208.5C214.1 208.2 214.4 208 214.7 207.7C215 207.5 215.3 207.2 215.6 206.9C217.1 205.6 218.5 204.2 219.8 202.9L219.9 202.8L220 202.7C220.2 202.5 220.4 202.3 220.6 202C220.8 201.7 221.1 201.4 221.3 201.1C221.5 200.8 221.8 200.5 222 200.2C222.5 199.5 223 198.9 223.5 198.2C223.7 198 223.9 197.7 224 197.4C224.2 197.1 224.4 196.8 224.6 196.5C224.8 196.2 225 195.9 225.2 195.6C225.3 195.5 225.3 195.4 225.3 195.4C225.6 194.8 226 194.3 226.3 193.7C226.5 193.4 226.7 193 226.8 192.7C227.5 191.4 228.2 190 228.8 188.7C229.9 186.1 230.9 183.3 231.7 180.5C233.7 173.5 234.7 165.9 235.2 157.7C235.4 154.4 235.5 150.9 235.5 147.4V147.3C235.5 146.7 235.5 146.1 235.5 145.5C235.4 143.1 235.3 141 235.2 139ZM131.5 219.5C93.3 219.5 64.4 214.3 54.2 191.1C53.2 188.9 52.4 186.6 51.8 184.1C50.8 180.2 50.3 176 50.2 171.3C50.2 170.8 50.2 170.2 50.2 169.7C50.2 156.8 58.8 142.9 72.3 137.2C77.9 134.9 84.8 134.2 91.4 134.1C104.3 133.9 110 135.7 128.1 135.7C146.1 135.7 155.8 133.8 168.7 134.1C175.4 134.2 182.3 134.9 187.8 137.2C201.3 142.8 209.9 156.8 209.9 169.7C209.9 170.2 209.9 170.7 209.9 171.1C209.8 174.8 209.6 178.1 209.1 181.3C204.5 212.8 179.6 219.5 131.5 219.5Z" fill="#2D1F04"/>
<path d="M209.8 169.7C209.8 170.2 209.8 170.7 209.8 171.1C209.7 174.8 209.5 178.2 209 181.3C204.4 212.8 179.5 219.4 131.4 219.4C93.2 219.4 64.3 214.2 54.1 191C53.1 188.8 52.3 186.5 51.7 184C50.7 180.1 50.2 175.9 50.1 171.2C50.1 170.7 50.1 170.1 50.1 169.6C50.1 156.7 58.7 142.8 72.2 137.1C77.8 134.8 84.7 134.1 91.3 134C104.2 133.8 110 135.6 128 135.6C146 135.6 155.7 133.7 168.6 134C175.3 134.1 182.2 134.8 187.7 137.1C201.3 142.8 209.8 156.8 209.8 169.7Z" fill="#2D1F04"/>
<path d="M44.4 182.6C31.8 180.4 17 179.5 1.59998 180.1" stroke="#2D1F04" stroke-width="2.62" stroke-miterlimit="10" stroke-linecap="round" stroke-linejoin="round"/>
<path d="M3.19995 190.5C19.1 188.7 35.1999 188.1 48.0999 190" stroke="#2D1F04" stroke-width="2.62" stroke-miterlimit="10" stroke-linecap="round" stroke-linejoin="round"/>
<path d="M215.4 180.9C235.5 179.8 279.6 178.8 308.9 186" stroke="#2D1F04" stroke-width="2.62" stroke-miterlimit="10" stroke-linecap="round" stroke-linejoin="round"/>
<path d="M214.2 188.7C236.9 187.8 279.7 190.1 308 200" stroke="#2D1F04" stroke-width="2.62" stroke-miterlimit="10" stroke-linecap="round" stroke-linejoin="round"/>
<path d="M151.3 251.1V312C151.3 320.9 153.6 323.5 155.9 325.3C158.1 327.1 158.9 328.5 158.9 329.8C158.9 331.1 158 333.3 154 333.3C145.2 333.3 133.1 325.7 133.1 313.7V249.6C133.1 247.3 132.2 246 130.9 246C129.6 246 128.5 247.3 128.5 249.6V313.1C128.5 327.1 115.7 333.9 107.8 333.9C105.1 333.9 102.9 332.4 102.9 330.8C102.9 329.2 103.1 327.6 106.1 325.8C109.1 324 110.5 320.5 110.5 315.6V250.9C107 251.7 105.2 259.5 105.2 267.3V301.5C105.2 318.9 86.8 321.4 81.7 321.4C76.6 321.4 74.7 320.2 74.7 318.6C74.7 317 76.2 315.7 81.2 313.3C86.2 310.9 88.5 305 88.5 300.1V255.1C88.5 254.6 88.5 254.2 88.5 253.7C88.6 252.4 88.6 251.2 88.8 250C88.9 249 89.1 247.9 89.3 246.9C91.4 236.8 97.4 229.6 103.7 226.1C107.9 226.6 112.3 226.9 117 227.1C121.6 227.3 126.5 227.4 131.5 227.4C141.5 227.4 150.6 227 158.8 226.3C169.3 233.5 173.4 243.1 173.4 253.6V267.7C166.2 261.8 158.8 254.6 151.7 251.7C151.6 251.2 151.5 251.1 151.3 251.1Z" fill="#2D1F04"/>
<path d="M89.2 246.5C89 247.5 88.8 248.5 88.7 249.6C88.5 250.8 88.4 252 88.4 253.3C88.4 253.8 88.4 254.2 88.4 254.7V266C84.3 267.3 79.1 268.1 72.8 268.1C64.8 268.1 50 266.8 39.3 249C33.8 239.9 30.8 234 22.4 229.3C15.7 225.5 14.4 223.9 14.4 222.5C14.4 221.1 17 219.7 21.2 219.7C34.8 219.7 42.4 231.1 48.4 239.7C54.4 248.2 64.3 251.5 71 251.5C77.7 251.5 82.8 249.9 89.2 246.5Z" fill="#2D1F04"/>
<path opacity="0.23" d="M209.8 169.7C209.8 170.2 209.8 170.7 209.8 171.1C208.6 153.6 194.7 137.6 174.2 137.6C162.4 137.6 144.8 140.2 130 140.2C115.1 140.2 99.7999 138 88.6999 137.6C67.5999 136.9 53.8 149.6 50.2 171.3C50.2 170.8 50.2 170.2 50.2 169.7C50.2 156.8 58.8 142.9 72.3 137.2C77.9 134.9 84.8 134.2 91.4 134.1C104.3 133.9 110.1 135.7 128.1 135.7C146.1 135.7 155.8 133.8 168.7 134.1C175.4 134.2 182.3 134.9 187.8 137.2C201.3 142.8 209.8 156.8 209.8 169.7Z" fill="#2D1F04"/>
<path d="M87.8 193.7C96.8574 193.7 104.2 183.089 104.2 170C104.2 156.911 96.8574 146.3 87.8 146.3C78.7425 146.3 71.4 156.911 71.4 170C71.4 183.089 78.7425 193.7 87.8 193.7Z" fill="#2D1F04"/>
<path d="M91.3 181.8C97.2094 181.8 102 174.681 102 165.9C102 157.119 97.2094 150 91.3 150C85.3905 150 80.6 157.119 80.6 165.9C80.6 174.681 85.3905 181.8 91.3 181.8Z" fill="#2D1F04"/>
<path d="M86.5 162.2C88.3225 162.2 89.8 160.722 89.8 158.9C89.8 157.077 88.3225 155.6 86.5 155.6C84.6774 155.6 83.2 157.077 83.2 158.9C83.2 160.722 84.6774 162.2 86.5 162.2Z" fill="#2D1F04"/>
<path d="M176.8 193.7C185.857 193.7 193.2 183.089 193.2 170C193.2 156.911 185.857 146.3 176.8 146.3C167.742 146.3 160.4 156.911 160.4 170C160.4 183.089 167.742 193.7 176.8 193.7Z" fill="#2D1F04"/>
<path d="M179.8 181.8C185.709 181.8 190.5 174.681 190.5 165.9C190.5 157.119 185.709 150 179.8 150C173.891 150 169.1 157.119 169.1 165.9C169.1 174.681 173.891 181.8 179.8 181.8Z" fill="#2D1F04"/>
<path d="M176.5 162.2C178.322 162.2 179.8 160.722 179.8 158.9C179.8 157.077 178.322 155.6 176.5 155.6C174.677 155.6 173.2 157.077 173.2 158.9C173.2 160.722 174.677 162.2 176.5 162.2Z" fill="#2D1F04"/>
<path d="M131.2 195.9C133.575 195.9 135.5 193.975 135.5 191.6C135.5 189.225 133.575 187.3 131.2 187.3C128.825 187.3 126.9 189.225 126.9 191.6C126.9 193.975 128.825 195.9 131.2 195.9Z" fill="#2D1F04"/>
<path d="M122.8 201.4C124.2 209.1 137.5 209.4 139.5 201.4" stroke="#2D1F04" stroke-width="4" stroke-miterlimit="10" stroke-linecap="round" stroke-linejoin="round"/>
<path d="M31.3906 225.537C31.7159 224.836 31.1671 223.89 30.1649 223.426C29.1627 222.961 28.0867 223.153 27.7614 223.855C27.4362 224.556 27.985 225.502 28.9872 225.966C29.9894 226.431 31.0654 226.239 31.3906 225.537Z" fill="#2D1F04"/>
<path d="M37.3932 230.839C37.9846 230.11 37.6295 228.842 36.6 228.007C35.5705 227.172 34.2565 227.086 33.6651 227.815C33.0737 228.545 33.4288 229.813 34.4583 230.648C35.4878 231.482 36.8018 231.568 37.3932 230.839Z" fill="#2D1F04"/>
<path d="M43.259 238.418C44.0916 237.779 44.0309 236.302 43.1234 235.119C42.2159 233.936 40.8052 233.494 39.9726 234.133C39.1399 234.771 39.2006 236.248 40.1081 237.432C41.0156 238.615 42.4263 239.056 43.259 238.418Z" fill="#2D1F04"/>
<path d="M49.8675 246.433C50.6838 245.689 50.4708 244.126 49.3918 242.942C48.3128 241.759 46.7763 241.403 45.9601 242.147C45.1438 242.891 45.3568 244.454 46.4358 245.637C47.5148 246.821 49.0512 247.177 49.8675 246.433Z" fill="#2D1F04"/>
<path d="M58.2556 252.514C58.7473 251.525 57.9831 250.145 56.5489 249.432C55.1146 248.72 53.5534 248.943 53.0617 249.933C52.5701 250.922 53.3342 252.302 54.7685 253.014C56.2027 253.727 57.764 253.503 58.2556 252.514Z" fill="#2D1F04"/>
<path d="M68.6512 254.878C68.8432 253.734 67.6742 252.585 66.0402 252.311C64.4062 252.036 62.926 252.741 62.734 253.885C62.5421 255.029 63.7111 256.178 65.3451 256.453C66.9791 256.727 68.4593 256.022 68.6512 254.878Z" fill="#2D1F04"/>
<path d="M76.7335 256.585C78.3804 256.404 79.6125 255.322 79.4855 254.169C79.3585 253.016 77.9205 252.229 76.2736 252.41C74.6267 252.592 73.3945 253.673 73.5215 254.826C73.6485 255.979 75.0866 256.767 76.7335 256.585Z" fill="#2D1F04"/>
<path d="M88.7 249.5C88.5 250.7 88.4 251.9 88.4 253.2C88.2 253.3 88 253.5 87.7 253.6C86.2 254.3 84.5 254 84 252.9C83.5 251.8 84.3 250.4 85.9 249.7C86.9 249.2 88 249.2 88.7 249.5Z" fill="#2D1F04"/>
<path d="M156.4 264C156.3 264 156.3 264 156.4 264C156.5 264.3 156.7 264.5 157.1 264.6C156.7 264.4 156.5 264.3 156.4 264ZM397.3 162.3C397.3 162.1 397.3 162 397.3 161.8C397.3 161.7 397.3 161.6 397.3 161.4C396.5 152.7 391.6 137.3 373.7 130.7C373.5 130.6 373.3 130.6 373.1 130.5C367.2 56.9 332.3 22.2 280.7 7.8C273.1 5.7 264.4 3.7 257.8 3.6C259.5 5.1 260.6 7.1 260.6 7.1H260.5C256.6 7.5 252.4 7.3 248.4 6.8C242.1 5.9 236.3 4 233.5 2C233.5 2 233.5 2.1 233.4 2.1C233.2 2.4 233.1 2.6 233 2.9C231.5 6.4 233.2 10.3 236 12.3C235.9 12.3 235.8 12.3 235.8 12.3C235.6 12.3 235.4 12.2 235.2 12.2C235.1 12.2 234.9 12.2 234.8 12.1C232.8 11.9 230.2 11.9 227.3 12.3C226.6 12.4 226 12.5 225.3 12.6C224.7 12.7 224.1 12.9 223.4 13C223.3 13 223.2 13.1 223 13.1C222.2 13.3 221.3 13.6 220.5 13.8C220.5 13.8 220.5 13.8 220.4 13.8C217.2 14.8 214.3 16.2 212.2 18.1C212.2 18.1 212.2 18.1 212.3 18.1C213.7 17.8 214.9 17.6 216 17.4C217.2 17.3 218.3 17.3 219.3 17.4C220.7 17.6 221.8 18 222.7 18.7H222.6C215.5 20.5 211.1 22.8 206.7 29.6C208 29.2 209.3 28.9 210.6 28.7C213 28.3 215.4 28.3 217.3 28.6C217.6 28.6 217.9 28.7 218.2 28.8C218.2 28.8 218.1 28.8 218 28.9C212.4 31.2 208.5 33.5 205.7 37.4C205.6 37.5 205.5 37.7 205.4 37.9C205.3 38 205.3 38.1 205.2 38.1C205 38.3 204.9 38.6 204.8 38.8C204.8 38.8 204.8 38.9 204.7 38.9C204.5 39.2 204.3 39.5 204.1 39.9C204.1 39.9 204.1 40 204 40C203.8 40.3 203.6 40.7 203.5 41C203.5 41 203.5 41 203.6 41C209.4 37.1 212.4 36.1 218.9 34.5L218.8 34.6C216.3 36.8 214.2 39.5 212.5 42.4C212.3 42.8 212.1 43.1 211.9 43.5C211.7 43.8 211.5 44.2 211.4 44.5C210.8 45.6 210.3 46.7 209.9 47.9C209.8 48.2 209.7 48.5 209.5 48.8C209.4 49.2 209.2 49.6 209.1 50C208.7 51.1 208.4 52.2 208.1 53.3C206.4 59.2 205.7 65.3 205.6 71V71.1C205.5 76.7 206.1 81.8 207 85.5C210.3 98.3 217.2 110.6 224.7 121.3C226 123.1 227.7 125.2 228.4 127.3C228.7 128.4 228.4 130.4 229 131.3L229.1 131.4C229.4 131.4 229.9 130.4 230.1 130.4C230.1 130.4 230.1 130.4 230.2 130.5V130.6C230.6 131.9 230.7 133.3 230.8 134.7C230.9 135.5 230.9 136.2 230.9 136.9V137C230.9 137.8 230.5 139.4 230.7 139.3C230.7 139.3 230.8 139.3 230.8 139.2C230.9 139.1 231 138.7 231.1 138.3C231.2 138.2 231.2 138 231.3 137.9C231.3 137.9 231.3 137.9 231.3 137.8C231.4 137.5 231.7 137.3 231.9 137.3C231.9 137.3 231.9 137.3 232 137.3C232.2 137.3 232.3 138.1 232.4 139.4C232.5 141.4 232.3 144.5 231.7 147.5C231.7 147.4 231.7 147.3 231.7 147.2C231.7 147.1 231.6 147 231.5 147H231.4C231.3 147 231.1 147.2 230.9 147.4C230.8 147.5 230.8 147.5 230.7 147.6C230.5 147.8 230.3 148.1 230 148.4C229.2 149.4 228.4 150.7 228.1 151.3C227.2 153.3 229.2 155.1 229.1 156.1V156.2C228.9 157.5 227.3 160.1 226.6 161.4C223.9 166.7 220.1 173.5 218.4 180.4C217.8 183.1 217.5 185.7 217.6 188.3C217.7 190.3 218.2 192.3 219.1 194.2C219.1 194.2 219.1 194.2 219.1 194.3V194.4C219.1 194.4 219.1 194.4 219.1 194.5C218.6 195.8 217.9 197.4 217.3 198.9V199C217.2 199.3 217.1 199.5 216.9 199.8C216.6 200.4 216.4 200.9 216.2 201.4C216 201.7 215.9 202.1 215.7 202.4C215.5 202.8 215.3 203.2 215.1 203.6C214.2 205.5 213.5 207 213 208.4C212.8 208.9 212.6 209.3 212.4 209.7C212.3 209.9 212.3 210 212.2 210.2C212 210.8 211.7 211.5 211.4 212.1C208.7 218.9 206 227.2 205.1 235.2C204.6 239.9 204.7 244.6 205.9 249C206.5 249.4 207.1 249.7 207.8 250.1C208.2 250.3 208.6 250.5 208.9 250.7C209.4 251 210 251.2 210.5 251.5C211 251.7 211.6 252 212.2 252.2C212.7 252.4 213.2 252.6 213.7 252.9C213.8 252.9 213.9 253 213.9 253C214.3 253.2 214.8 253.3 215.2 253.5V253.6C215.2 256.7 215.9 260 216.7 262.7C217.8 266.2 219 268.7 219.1 268.8C219.1 268.7 219.2 268.6 219.2 268.5C219.2 268.4 219.3 268.3 219.4 268.1C219.6 267.6 219.9 266.8 220.2 266.2C220.3 266.1 220.4 265.9 220.5 265.8C220.7 265.4 221 265.2 221.2 265.1C221.2 265.1 221.2 265.1 221.3 265.1C221.3 265.1 221.3 265.1 221.4 265.1C221.5 265.1 221.5 265.2 221.6 265.3C222.5 266.7 225.8 279.2 228.1 279.1C228.2 279.1 228.2 279.1 228.3 279.1C228.4 279.1 228.3 276.4 228.4 275.9C228.4 275.8 228.4 275.8 228.5 275.8C229.3 276.2 230.6 279.2 235.6 283.6C237 284.8 238.4 285.9 240 286.9V287C237.1 297.6 243.3 309.2 248.9 314.6H248.8C247 314.6 245.2 314.7 243.4 314.9C243 315 242.6 315 242.3 315.1C240.7 315.4 239.2 315.8 237.7 316.3C237.1 316.5 236.5 316.8 235.8 317C234.8 317.4 233.7 317.9 232.8 318.4C226.9 321.5 222 325.9 218.5 330.2H218.6C220.9 330.2 223.2 330.1 225.4 330.1C226.8 330.1 228.2 330.1 229.6 330C230.9 330 232.2 330 233.4 330C234.7 330 236.1 330 237.4 329.9C237.5 329.9 237.7 329.9 237.8 329.9C238.8 329.9 239.8 329.9 240.8 329.9C242.3 329.9 243.7 329.9 245.1 329.8C246.5 329.8 247.9 329.8 249.2 329.7C250.1 329.7 251 329.7 251.8 329.7C253.5 329.7 255.2 329.7 256.8 329.6C257.1 329.6 257.4 329.6 257.7 329.6C258.3 329.6 259 329.6 259.6 329.6C260.6 329.6 261.5 329.6 262.4 329.6C262.7 329.6 263 329.6 263.3 329.6H263.4C263.9 329.6 264.4 329.6 264.9 329.6C265.4 329.6 265.9 329.6 266.4 329.6H266.5C267 329.6 267.5 329.6 267.9 329.6C268.1 329.6 268.4 329.6 268.6 329.6C269.3 329.6 270 329.6 270.6 329.6C270.8 329.6 271.1 329.6 271.3 329.6C271.5 329.6 271.7 329.6 271.9 329.6C272.5 329.6 273.1 329.6 273.6 329.6C274.1 329.6 274.6 329.6 275 329.6C275.3 329.6 275.6 329.6 275.8 329.6C276.2 329.6 276.5 329.6 276.9 329.6H277C277.2 329.6 277.4 329.6 277.6 329.6C277.7 329.6 277.8 329.6 277.9 329.6C279.3 329.6 282.6 329.5 286 329C289.6 328.5 293.2 327.5 294.3 325.8C294.4 325.7 294.4 325.6 294.4 325.6C294.5 325.3 294.6 325 294.6 324.7C294.8 315.5 288.4 308.9 287.9 303.7V303.6C289 303.8 290.2 303.9 291.3 304C291.7 304 292.2 304.1 292.7 304.1C293.2 304.2 293.8 304.2 294.3 304.3C294.9 304.3 295.5 304.4 296.1 304.4C296.7 304.4 297.3 304.5 297.9 304.5H298C298.5 304.5 299 304.5 299.5 304.6C299.9 304.6 300.3 304.6 300.7 304.6C301.1 304.6 301.5 304.6 301.9 304.6C302.6 304.6 303.2 304.6 303.8 304.6H303.9C304.7 304.6 305.5 304.6 306.3 304.6C307 304.6 307.7 304.6 308.4 304.5C308.6 304.5 308.8 304.5 309.1 304.5C309.6 304.5 310.1 304.5 310.5 304.4C310.8 304.4 311.1 304.4 311.4 304.3C311.9 304.3 312.4 304.2 312.9 304.2C313.4 304.2 313.9 304.1 314.4 304.1C315.4 304 316.4 303.9 317.4 303.7C317.9 303.6 318.4 303.6 318.9 303.5C319.4 303.4 319.9 303.4 320.4 303.3C320.9 303.2 321.4 303.1 321.8 303C322.3 302.9 322.8 302.8 323.2 302.7C324.2 302.5 325.1 302.3 326 302.1C326.4 302 326.9 301.9 327.3 301.8C327.3 301.8 327.3 301.8 327.4 301.8C327.4 301.8 327.4 301.8 327.4 301.9C329.1 309.8 334.6 313.1 340.7 315.4C340.6 315.4 340.6 315.4 340.5 315.4C322.4 318.6 315.4 325 311.1 330.3C311.7 330.4 312.4 330.6 313.2 330.7C313.5 330.8 313.9 330.8 314.3 330.9C323.5 332.1 344.2 333.3 361.4 333.6C368.1 333.7 374.3 333.7 379.1 333.5C379.5 333.5 379.8 333.5 380.2 333.5C380.5 333.5 380.8 333.5 381.1 333.4C381.8 333.4 382.5 333.3 383.1 333.3C383.2 333.3 383.3 333.3 383.5 333.3C383.7 333.3 383.9 333.3 384.2 333.3C385.1 333.2 385.9 333.1 386.6 333C387.3 332.9 387.8 332.7 388.1 332.6C389.3 332 390.2 331.3 390.7 330.4C390.8 330.3 390.8 330.2 390.9 330C393.1 325.8 389 318.9 387.8 315.4C380.7 293.5 382 272.1 380.7 254.9C380.7 254.9 380.7 254.9 380.6 254.9C355 260 310.7 263.8 285.4 263.8C264.1 263.8 240.5 261.7 222.4 256.4L222.5 256.3C240.5 261.6 264.2 263.7 285.4 263.7C310.7 263.6 355 259.9 380.6 254.8C383.9 254.1 386.9 251.6 389.5 250.9C391.7 240.8 389.3 209.9 386.2 195.7C391.9 187.9 395.9 178.9 396.9 169C396.9 168.7 397 168.4 397 168.1C397.1 167 397.2 165.9 397.2 164.8C397.4 163.9 397.4 163.1 397.3 162.3ZM231.6 147.9C231.6 147.8 231.6 147.7 231.6 147.7C231.6 147.7 231.6 147.8 231.6 147.9Z" fill="#2D1F04"/>
<path d="M263.2 330C252.3 330.2 236.5 330.4 218.2 330.6C224.6 322.7 235.7 314.4 248.7 314.8C251.1 316.2 253.3 317.8 255.3 319.6C258.5 322.5 261.2 325.9 263.2 330Z" fill="#2D1F04"/>
<path opacity="0.23" d="M294.4 324.9C294.4 325.2 294.3 325.5 294.2 325.8C294.2 325.9 294.1 326 294.1 326C293 327.8 289.4 328.7 285.8 329.2C282.5 329.7 279.2 329.8 277.7 329.8C277.6 329.8 277.5 329.8 277.4 329.8C277.2 329.8 277 329.8 276.8 329.8H276.7C276.4 329.8 276 329.8 275.6 329.8C275.3 329.8 275.1 329.8 274.8 329.8C274.4 329.8 273.9 329.8 273.4 329.8C272.9 329.8 272.3 329.8 271.7 329.8C271.5 329.8 271.3 329.8 271.1 329.8C270.9 329.8 270.7 329.8 270.4 329.8C269.8 329.8 269.1 329.8 268.4 329.8C268.2 329.8 267.9 329.8 267.7 329.8C267.2 329.8 266.8 329.8 266.3 329.8H266.2C265.7 329.8 265.2 329.8 264.7 329.8C264.2 329.8 263.7 329.8 263.2 329.8H263.1C262.8 329.8 262.5 329.8 262.2 329.8C261.3 329.8 260.4 329.8 259.4 329.8C258.8 329.8 258.1 329.8 257.5 329.8C257.2 329.8 256.9 329.8 256.7 329.8C255.1 329.8 253.5 329.8 251.7 329.9C250.8 329.9 250 329.9 249.1 329.9C247.8 329.9 246.4 329.9 245 330C243.6 330 242.2 330 240.7 330.1C239.7 330.1 238.7 330.1 237.7 330.1C237.5 330.1 237.4 330.1 237.3 330.1C236 330.1 234.7 330.1 233.3 330.2C232 330.2 230.8 330.2 229.5 330.2C228.1 330.2 226.7 330.2 225.3 330.3C223.1 330.3 220.8 330.4 218.5 330.4H218.4C221.9 326.1 226.8 321.6 232.7 318.6C233.7 318.1 234.7 317.6 235.7 317.2C236.3 316.9 236.9 316.7 237.6 316.5C239.1 316 240.6 315.6 242.2 315.3C242.6 315.2 243 315.2 243.3 315.1C245.1 314.8 246.9 314.7 248.7 314.8H248.8C243.3 309.4 237.1 297.8 240 287.2C244.5 290.2 249.8 292.5 254.7 294.7C264.4 298.9 276 302.2 287.9 303.8C288.2 309.1 294.6 315.7 294.4 324.9Z" fill="#2D1F04"/>
<path opacity="0.23" d="M156.4 264C156.3 264 156.3 264 156.4 264C156.5 264.3 156.7 264.5 157.1 264.6C156.7 264.4 156.5 264.3 156.4 264ZM280.7 7.8C273.1 5.7 264.4 3.7 257.8 3.6C259.5 5.1 260.6 7.1 260.6 7.1H260.5C256.6 7.5 252.4 7.3 248.4 6.8C242.1 5.9 236.3 4 233.5 2C233.5 2 233.5 2.1 233.4 2.1C233.2 2.4 233.1 2.6 233 2.9C231.5 6.4 233.2 10.3 236 12.3C235.9 12.3 235.8 12.3 235.8 12.3C235.6 12.3 235.4 12.2 235.2 12.2C235.1 12.2 234.9 12.2 234.8 12.1C232.8 11.9 230.2 11.9 227.3 12.3C226.6 12.4 226 12.5 225.3 12.6C224.7 12.7 224.1 12.9 223.4 13C223.3 13 223.2 13.1 223 13.1C222.2 13.3 221.3 13.6 220.5 13.8C220.5 13.8 220.5 13.8 220.4 13.8C217.2 14.8 214.3 16.2 212.2 18.1C212.2 18.1 212.2 18.1 212.3 18.1C213.7 17.8 214.9 17.6 216 17.4C217.2 17.3 218.3 17.3 219.3 17.4C220.7 17.6 221.8 18 222.7 18.7H222.6C215.5 20.5 211.1 22.8 206.7 29.6C208 29.2 209.3 28.9 210.6 28.7C213 28.3 215.4 28.3 217.3 28.6C217.6 28.6 217.9 28.7 218.2 28.8C218.2 28.8 218.1 28.8 218 28.9C212.4 31.2 208.5 33.5 205.7 37.4C205.6 37.5 205.5 37.7 205.4 37.9C205.3 38 205.3 38.1 205.2 38.1C205 38.3 204.9 38.6 204.8 38.8C204.8 38.8 204.8 38.9 204.7 38.9C204.5 39.2 204.3 39.5 204.1 39.9C204.1 39.9 204.1 40 204 40C203.8 40.3 203.6 40.7 203.5 41C203.5 41 203.5 41 203.6 41C209.4 37.1 212.4 36.1 218.9 34.5L218.8 34.6C216.3 36.8 214.2 39.5 212.5 42.4C212.3 42.8 212.1 43.1 211.9 43.5C211.7 43.8 211.5 44.2 211.4 44.5C210.8 45.6 210.3 46.7 209.9 47.9C209.8 48.2 209.7 48.5 209.5 48.8C209.4 49.2 209.2 49.6 209.1 50C208.7 51.1 208.4 52.2 208.1 53.3C207.2 56.3 206.7 59.4 206.2 62.4C211.3 51.7 218.1 43.4 226 37.1C227.5 35.9 228.7 33.9 226.8 33C229.4 31.5 233.4 32 234.9 31.1C236.3 30.3 236 28.4 232.2 26.3C238.4 24.3 242.6 27.3 244.4 26.7C245.9 26.1 244.2 21 247.9 18.4C247.6 22.5 252.3 24.2 254 23.8C256.2 23.3 257.1 19.7 261.8 19.3C262.1 21.3 265.1 22 267.3 21.9C272.4 21.6 277.5 21.8 282.5 22.5C307.3 25.7 327.7 40.4 339.5 73.2C347 94 348.3 115 347.3 133.6C353.5 129.8 363 127.3 372.2 130.1L373 129.6C366.8 56.6 332 22.1 280.7 7.8Z" fill="#2D1F04"/>
<path d="M397.3 162.3C397.3 162.1 397.3 162 397.3 161.8C397.3 161.7 397.3 161.6 397.3 161.4C396.5 152.7 391.6 137.3 373.7 130.7C373.5 130.6 373.3 130.6 373.1 130.5C362.2 126.8 350.8 130.8 344.7 135.6C335.3 143.1 327.2 146.4 319.4 148.9C315.7 150.1 308.1 151.9 297.8 153.1C297.7 153.1 297.7 153.1 297.6 153.1C285.1 154.5 268.7 154.9 250.6 152C250.4 152 250.2 152 250 151.9C244 150.9 237.9 149.6 231.7 147.8C231.7 147.7 231.7 147.7 231.7 147.6C231.7 147.5 231.7 147.5 231.7 147.4C231.7 147.4 231.7 147.4 231.7 147.3C231.7 147.1 231.6 147.1 231.6 147H231.5C230.8 147 228.7 150.2 228.2 151.3C228 151.8 227.9 152.3 228 152.7C228 152.8 228 152.8 228 152.9C228.2 154.2 229.3 155.3 229.2 156.1V156.2C229 157.5 227.4 160.1 226.7 161.4C224 166.7 220.2 173.5 218.5 180.4C218.1 182 217.8 183.6 217.7 185.2C217.6 186.1 217.6 187 217.7 187.8C217.7 188 217.7 188.1 217.7 188.3C217.8 190.4 218.3 192.4 219.2 194.3C219.2 194.3 219.2 194.3 219.2 194.4C219.3 194.6 219.4 194.8 219.4 194.9C218.7 196.1 218 197.4 217.3 198.8V198.9C217.2 199.1 217.1 199.4 216.9 199.7C216.4 200.6 216 201.6 215.5 202.5C214.2 205.1 213.1 207.8 212.1 210.1C208.4 219.4 204.1 231.6 204.8 242.6C204.9 243.7 205 244.7 205.1 245.7C205.3 246.8 205.5 247.8 205.8 248.9C206.4 249.3 207.1 249.6 207.7 250C208.1 250.2 208.5 250.4 208.8 250.6C209.3 250.9 209.9 251.1 210.4 251.4C211.4 251.9 212.5 252.4 213.6 252.8C213.7 252.8 213.8 252.9 213.8 252.9C214.2 253.1 214.7 253.2 215.1 253.4C217.4 254.3 219.9 255.1 222.5 255.9C240.5 261.2 263.1 265.5 284.4 266.2C318.8 267.3 369.6 266.5 389.6 250.4C391.8 240.3 389.4 209.4 386.3 195.2C386.3 195.2 386.3 195.2 386.3 195.1C392 187.3 396 178.3 397 168.5C397 168.2 397.1 167.9 397.1 167.6C397.2 166.5 397.3 165.4 397.3 164.3C397.4 163.9 397.4 163.1 397.3 162.3ZM324.7 188.4C327.9 190.6 331.9 192 337.9 196.4C340.9 198.5 343.4 200.5 345.5 202.3C351.6 207.5 354.3 211.1 355.8 213.4C356 213.8 356.3 214.2 356.5 214.5C356.9 215 357.2 215.5 357.6 215.8C357.6 215.8 357.6 215.8 357.5 215.8C356.6 216.5 355.6 217.1 354.7 217.8C329.6 234.6 296.5 240.9 268.2 244.9C267.1 245.1 266 245.2 264.9 245.3C264.8 245.3 264.8 245.3 264.7 245.3C254.6 246.6 246.5 247.4 238.5 248.2C235.9 248.5 233.7 248.7 232.1 248.7C231.9 248.7 231.6 248.7 231.4 248.7C231.2 248.7 231.1 248.7 230.9 248.7C230.8 248.7 230.7 248.7 230.6 248.7C230 248.7 229.5 248.6 229.1 248.4C228.7 248.3 228.4 248 228.4 247.7C228.4 247.7 228.4 247.7 228.4 247.6V247.5C228.4 246.7 229.3 245.5 231.3 243.6C233.1 241.9 235.1 240.3 237.3 238.7C239.4 237.3 241.4 236 243.2 234.9C248.6 231.6 252.6 229.5 256 228.1C256 228.1 256 228.1 256.1 228.1C259 226.7 261.6 225.6 263.4 224.9C280 218.4 310.9 205.6 324.7 188.4Z" fill="#2D1F04"/>
<path opacity="0.23" d="M397.3 162.3C397.3 162.1 397.3 162 397.3 161.8C397.3 161.7 397.3 161.6 397.3 161.4C396.5 152.7 391.6 137.3 373.7 130.7C373.5 130.6 373.3 130.6 373.1 130.5C368.7 129 364.2 128.8 360 129.3C371.2 131.2 383 139.8 383 158.2C383 170.9 375.9 185.7 364.8 196.8C360.8 200.7 354.9 205 347.6 203.9C350.8 206.6 354.9 211.8 355.9 213.3C356.1 213.7 356.4 214.1 356.6 214.4C357 214.9 357.3 215.4 357.7 215.7C362.5 221.6 377.2 207.3 386.5 195.4C386.5 195.4 386.5 195.4 386.5 195.3C392.2 187.5 396.2 178.5 397.2 168.7C397.2 168.4 397.3 168.1 397.3 167.8C397.4 166.7 397.5 165.6 397.5 164.5C397.4 163.9 397.4 163.1 397.3 162.3Z" fill="#2D1F04"/>
<path d="M361.8 333.6C342.1 333.3 317.7 331.8 311.2 330.4C315.5 325 322.7 318.6 340.8 315.4C340.8 315.4 340.8 315.4 340.9 315.4C349.7 318.6 357.9 325.9 361.8 333.6Z" fill="#2D1F04"/>
<path opacity="0.23" d="M391.2 329.5C391.1 329.7 391 330 390.9 330.2C390.3 331.1 389.5 331.8 388.3 332.4C388 332.6 387.5 332.7 386.8 332.8C386.2 332.9 385.4 333 384.4 333.1C384.2 333.1 384 333.1 383.7 333.1C383.6 333.1 383.5 333.1 383.3 333.1C382.7 333.2 382 333.2 381.3 333.2C381 333.2 380.7 333.2 380.4 333.3C380 333.3 379.7 333.3 379.3 333.3C374.5 333.5 368.3 333.5 361.6 333.4C344.4 333.1 323.7 332 314.5 330.7C314.1 330.7 313.7 330.6 313.4 330.5C312.6 330.4 311.9 330.3 311.3 330.1C313.1 327.9 313.8 327 315.1 326.1C336.6 316.8 358.4 325.6 364.6 326.1C372.1 326.8 380.2 325.2 375 314.6C369 302.3 367 292.3 366.2 281C365.4 271 359.2 268.9 345.4 270.5C331.6 272 296.5 274.4 271 270.5C252.6 267.7 241 264.3 227.9 257.5C245 262.1 265.4 265.6 284.6 266.3C317.5 267.5 359.4 266 381 256.1C382.1 273 381.1 293.9 388 315.1C389.1 318.7 392.9 325.2 391.2 329.5Z" fill="#2D1F04"/>
<path d="M264.7 245.5C254.5 246.9 246.3 247.6 238.2 248.5C232 249.1 228.2 249.4 228.2 247.8C228.2 247 229.1 245.8 231.1 243.9C232.9 242.2 234.9 240.6 237.1 239C245.7 233.3 251.4 230.3 255.8 228.4C257.4 230.3 258.4 231.8 259.9 233.8C262.2 237.3 264.3 241.5 264.7 245.5Z" fill="#2D1F04"/>
<path opacity="0.23" d="M357.6 215.9C332.2 234.3 297.7 240.9 268.2 245.1C256.5 246.8 247.3 247.6 238.4 248.5C232.2 249.1 228.4 249.4 228.4 247.8C231.7 246.2 234.5 244.7 237.2 243.4C253.4 243.8 292.2 234.2 309.6 228.8C329.8 222.5 346.8 213.1 349.1 205.4C351.1 207.6 355.3 212.4 355.8 213.4C356 213.8 356.3 214.2 356.5 214.6C356.9 215.1 357.2 215.5 357.6 215.9Z" fill="#2D1F04"/>
<path d="M244.6 269L244.5 275" stroke="#2D1F04" stroke-width="4.1072" stroke-miterlimit="10" stroke-linecap="round" stroke-linejoin="round"/>
<path d="M250.7 273V278.9" stroke="#2D1F04" stroke-width="4.1072" stroke-miterlimit="10" stroke-linecap="round" stroke-linejoin="round"/>
<path d="M318.4 213.1V219.1" stroke="#2D1F04" stroke-width="4.1072" stroke-miterlimit="10" stroke-linecap="round" stroke-linejoin="round"/>
<path d="M325.4 215.2V221.2" stroke="#2D1F04" stroke-width="4.1072" stroke-miterlimit="10" stroke-linecap="round" stroke-linejoin="round"/>
<path d="M335.4 110L335.5 116" stroke="#2D1F04" stroke-width="4.1072" stroke-miterlimit="10" stroke-linecap="round" stroke-linejoin="round"/>
<path d="M341.4 113V119" stroke="#2D1F04" stroke-width="4.1072" stroke-miterlimit="10" stroke-linecap="round" stroke-linejoin="round"/>
<path opacity="0.23" d="M210.1 216.1C213.7 211.8 218.1 206 220.2 204.8C224.5 202.1 230.6 202.5 235.4 202.5C247.8 202.5 257.4 212.7 270.6 214C278.7 214.8 293 207.1 290.8 203.2C288.9 200 285.8 202.5 268.9 202C256.2 201.6 244.7 200.5 232.3 198.4C229.3 197.9 222.2 197.9 219.7 193.4C219.2 195.4 217 200.2 216 202.3C213.5 206.9 211.5 212.6 210.1 216.1Z" fill="#2D1F04"/>
<path d="M231.6 148C272.8 159.8 314.7 151.4 319.3 149.1" stroke="#2D1F04" stroke-width="2.7806" stroke-miterlimit="10" stroke-linecap="round" stroke-linejoin="round"/>
<path d="M386.8 196.3C390.1 209.6 392 240.1 389.7 250.7C389.7 250.7 389.7 250.7 389.7 250.8C373.2 265.5 322.8 267.8 284.5 266.5C263.2 265.7 240.6 261.6 222.6 256.3C220 255.5 217.6 254.7 215.3 253.8C215.3 253.8 215.3 253.8 215.2 253.8C212.5 252.7 210 251.6 207.6 250.4C207 250.1 206.4 249.7 205.8 249.4C205.5 248.3 205.3 247.3 205.1 246.2C204.9 245.2 204.8 244.1 204.8 243.1C204.2 232.9 207.9 221.6 211.4 212.6C211.6 211.9 211.9 211.3 212.2 210.7C212.3 210.4 212.5 210 212.6 209.7C213.3 208 214.2 206 215 204.1C215.2 203.7 215.4 203.3 215.6 202.9C215.8 202.5 216 202 216.2 201.6C216.3 201.4 216.4 201.3 216.4 201.1C216.5 200.8 216.7 200.5 216.8 200.2C217.7 198.5 218.5 196.9 219.3 195.5C219.2 195.3 219.1 195.1 219.1 195C219.1 195 219.1 195 219.1 194.9C218.2 193 217.7 190.9 217.6 188.8C217.6 188.6 217.6 188.5 217.6 188.3C217.5 187.4 217.6 186.5 217.6 185.7C217.7 184.1 218 182.5 218.4 180.9C220.1 174 223.9 167.2 226.6 161.9C227.3 160.6 228.9 157.8 229.1 156.6C229.1 156.6 229.1 156.6 229.1 156.5V156.4C229.1 155.6 228.1 154.5 227.9 153.2C227.9 153.1 227.9 153.1 227.9 153C227.9 152.6 227.9 152.1 228.1 151.7C228.4 151.1 229.2 149.8 230 148.7C230.2 148.4 230.4 148.1 230.7 147.9C230.8 147.8 230.9 147.7 230.9 147.7C231.1 147.5 231.3 147.4 231.4 147.4C231.5 147.4 231.6 147.4 231.6 147.6V147.7C231.6 147.8 231.6 147.9 231.6 148V148.1V148.2C231.6 148.2 231.6 148.2 231.6 148.3" stroke="#2D1F04" stroke-width="2.7806" stroke-miterlimit="10" stroke-linecap="round" stroke-linejoin="round"/>
<path d="M207.6 76.6999C207.6 67.7999 210.3 57.0999 217.3 53.8999C225.5 50.1999 234.4 55.4999 242.7 53.0999C244.2 52.6999 247 50.9999 247.6 49.3999C248.2 47.8999 246.8 46.2999 246.8 46.2999C248.2 46.3999 250 47.9999 251.7 48.0999C258.4 48.3999 263.5 41.1999 268.7 38.0999C286.1 27.5999 301.4 26.0999 316 42.2999C319.3 45.8999 325.1 54.6999 325.4 65.9999C325.8 82.3999 325.6 89.3999 311.9 105.2C295.7 123.9 256.7 140.7 230 119.4C217.5 109.4 207.7 93.2999 207.6 76.6999Z" fill="#2D1F04"/>
<path d="M247.4 74.4998C239.7 72.6998 237.5 87.0998 240.3 96.6998C242.6 104.8 248.5 109.4 255.2 110.4C267.5 112.3 282.1 107.3 286.6 98.3998C290.9 89.9998 287.4 80.5998 280.8 75.2998C273.6 69.3998 263.5 66.5998 257.9 70.6998L247.4 74.4998Z" fill="#2D1F04"/>
<path d="M207.7 76.7C207.9 84.8 209.7 94.6 217.7 106.2C223.7 103.4 232.4 96.9 236.6 84.1C240.9 71 239.1 55.4 236.4 53.7C229.8 53.3 223.6 50.9 217 54.1C213.6 55.7 207.4 61.7 207.7 76.7Z" fill="#2D1F04"/>
<path d="M261.5 43.7999C273 85.2999 321.8 91.5999 324.8 83.3999C326.7 78.0999 328.4 55.9999 316.5 42.7999C311.8 37.5999 302.9 28.9999 289.9 30.1999C277.6 31.2999 266.9 38.1999 261.5 43.7999Z" fill="#2D1F04"/>
<path d="M243.3 75.5998C242.5 72.9998 247 69.3998 253.3 67.4998C259.6 65.5998 265.3 66.1998 266.1 68.7998C266.9 71.3998 262.4 74.9998 256.1 76.8998C249.8 78.7998 244.1 78.1998 243.3 75.5998Z" fill="#2D1F04"/>
<path d="M238 150.1C237.4 151.8 236.8 153.1 236.8 155" stroke="#2D1F04" stroke-width="2.7806" stroke-miterlimit="10" stroke-linecap="round" stroke-linejoin="round"/>
<path d="M248.5 152.2C247.7 153.8 247.6 155.8 247.6 157.6" stroke="#2D1F04" stroke-width="2.7806" stroke-miterlimit="10" stroke-linecap="round" stroke-linejoin="round"/>
<path d="M261.1 153.8L260.4 158" stroke="#2D1F04" stroke-width="2.7806" stroke-miterlimit="10" stroke-linecap="round" stroke-linejoin="round"/>
<path d="M270 155V155.7V156.1V156.8V157.3V157.8V158.2" stroke="#2D1F04" stroke-width="2.7806" stroke-miterlimit="10" stroke-linecap="round" stroke-linejoin="round"/>
<path d="M265.1 155.2V155.7V156.1V156.6V157.1V157.5" stroke="#2D1F04" stroke-width="2.7806" stroke-miterlimit="10" stroke-linecap="round" stroke-linejoin="round"/>
<path d="M299.8 153.8V154.3V154.7V155.7V156.1" stroke="#2D1F04" stroke-width="2.7806" stroke-miterlimit="10" stroke-linecap="round" stroke-linejoin="round"/>
<path d="M303.3 153.8V154.5V155.2V155.7" stroke="#2D1F04" stroke-width="2.7806" stroke-miterlimit="10" stroke-linecap="round" stroke-linejoin="round"/>
<path d="M261 190.9C260.5 189.2 259 187.9 256.2 187.8C250.4 187.5 244.4 187.4 237.1 187.2C236.9 187.8 236.7 188.3 236.5 188.9C235.3 192.2 233.6 195.3 231.8 198.3C231.4 199.1 230.9 199.8 230.5 200.6C227.7 205.5 225.1 210.4 224.8 216.3C228.1 216.3 231.2 216.4 234.5 216.5C234.3 212.3 235.9 208.4 238 204.7C240.9 204.3 241.4 205.5 241.6 207.2C241.9 210.3 242.7 213.5 244.4 216.9C247.9 217.1 251.2 217.3 254.9 217.6C252.5 213.4 253.1 208.9 251.4 205.8C251 205 250.5 204.4 249.7 203.8C250.2 203.7 250.5 203.6 250.8 203.6C252.6 203.1 254.2 202.4 255.6 201.5C258.1 199.9 259.9 197.6 260.8 194.8C261.3 193.4 261.4 192.1 261 190.9ZM251.5 196.3C250.7 197.7 249.3 198.8 247.5 198.9C245.5 199.1 243.6 199.1 241.5 199.1C242.8 197 243.8 195.2 244.7 193.3C246.7 193.3 248.6 193.2 250.3 193.4C251.9 193.7 252.3 194.9 251.5 196.3Z" fill="#2D1F04"/>
<path d="M287.7 196.3C284.5 196.5 281.6 196.6 278.7 196.8C279.1 194.2 278 192.9 275.7 192.8C274.2 192.7 272.8 193.2 271.7 195C271.3 196.5 272 197 273 197.3C274.9 197.9 276.8 198.5 278.7 199.1C279.8 199.5 280.8 199.9 281.8 200.5C288.1 203.9 284.7 212.7 278.6 216.7C276.6 218 274.2 218.8 272.1 219.1C268.6 219.6 265.2 219.3 261.9 218.1C257.6 216.6 255.1 212.5 257 207.6C259.8 207.6 262.5 207.6 265.5 207.5C265.5 208.1 265.4 208.7 265.4 209.2C265.5 212.2 268.3 213.7 271.5 212.7C272.9 212.2 274.1 211.3 274.6 209.9C275 208.6 274.6 207.6 273.6 207.1C272.7 206.6 271.8 206.3 270.9 206C269 205.3 267.1 204.7 265.4 203.8C262.3 202 261.9 199.2 263.4 195.9C265.1 192.2 268 189.2 271.9 188.1C275.6 187 279.3 187 283.1 188.3C287 189.3 288.7 191.8 287.7 196.3Z" fill="#2D1F04"/>
<path d="M260.4 45.5C277.5 26.3 295 20.6 327.2 42.1" stroke="#2D1F04" stroke-width="7.6" stroke-miterlimit="10" stroke-linecap="round" stroke-linejoin="round"/>
<path d="M242 51.5998C221.7 48.8998 207.9 54.1998 199.8 88.9998" stroke="#2D1F04" stroke-width="7.6" stroke-miterlimit="10" stroke-linecap="round" stroke-linejoin="round"/>
<path d="M373 130.6C367.1 56.9001 332.2 22.2001 280.6 7.8001C273 5.7001 264.3 3.7001 257.7 3.6001H257.6C259.2 4.9001 260.2 6.7001 260.4 7.1001C260.4 7.2001 260.4 7.2001 260.4 7.2001C250.3 8.3001 238 5.4001 233.3 2.1001C233.1 2.4001 233 2.6001 232.9 2.9001C231.3 6.3001 232.9 10.2001 235.7 12.2001C235.8 12.3001 235.8 12.3001 235.9 12.4001C230.8 11.2001 218.4 13.0001 212.2 18.2001L212.1 18.3001C217.1 17.1001 220.4 17.3001 222.5 18.8001C222.5 18.8001 222.5 18.8001 222.6 18.9001C215.4 20.7001 211.1 22.9001 206.6 29.7001L206.5 29.8001C210.6 28.5001 214.9 28.2001 218 28.9001H218.1C212.4 31.3001 208.5 33.5001 205.7 37.4001C205.6 37.6001 205.5 37.7001 205.4 37.9001C205.3 38.0001 205.3 38.0001 205.3 38.1001C205.1 38.3001 205 38.6001 204.9 38.8001C204.9 38.8001 204.9 38.9001 204.8 38.9001C204.6 39.2001 204.4 39.5001 204.2 39.9001C204.2 39.9001 204.2 40.0001 204.1 40.0001C203.9 40.3001 203.7 40.7001 203.6 41.0001C203.6 41.0001 203.6 41.1001 203.5 41.1001C209.3 37.2001 212.3 36.2001 218.8 34.6001C218.8 34.6001 218.8 34.6001 218.9 34.6001C216.4 36.8001 214.3 39.5001 212.6 42.4001C212.4 42.8001 212.2 43.1001 212 43.5001C211.8 43.8001 211.6 44.2001 211.5 44.5001C210.9 45.6001 210.4 46.7001 210 47.9001C209.9 48.2001 209.7 48.5001 209.6 48.8001C209.4 49.2001 209.3 49.6001 209.2 50.0001C208.8 51.1001 208.5 52.2001 208.1 53.3001C206.4 59.2001 205.7 65.4001 205.6 71.1001C205.5 76.8001 206.1 81.9001 207 85.6001C210.3 98.4001 217.2 110.7 224.7 121.4C226 123.2 227.7 125.3 228.4 127.4C228.7 128.5 228.4 130.5 229 131.4C229.3 131.8 230 130.1 230.2 130.6C230.3 131 230.4 131.3 230.4 131.7C230.5 132.1 230.5 132.5 230.6 132.9C230.6 133 230.6 133.1 230.6 133.2C230.8 134.5 230.8 135.8 230.9 137V137.1C230.9 137.9 230.4 140 230.8 139.4C230.8 139.4 230.8 139.4 230.8 139.3C230.9 139.1 231 138.7 231.1 138.3C231.2 138.2 231.2 138 231.3 137.9V137.8C231.5 137.6 231.7 137.4 231.9 137.4C232.3 137.5 232.5 142.4 231.6 147.3C231.6 147.4 231.5 147.6 231.5 147.7V147.8V147.9" stroke="#2D1F04" stroke-width="2.7806" stroke-miterlimit="10" stroke-linecap="round" stroke-linejoin="round"/>
<path d="M215.3 253.6C215.1 261 219.2 269 219.2 269C219.2 269 220.8 264.2 221.6 265.5C222.5 267 226 280 228.3 279.3C228.4 279.3 228.3 275.8 228.5 276C229.3 276.4 230.5 279.3 235.6 283.9C241 288.7 248.1 291.8 254.7 294.7C279.2 305.4 315.6 309.7 340 297.5" stroke="#2D1F04" stroke-width="2.7806" stroke-miterlimit="10" stroke-linecap="round" stroke-linejoin="round"/>
<path d="M239.8 287.5C236.6 298.3 243.1 309.4 248.7 314.8C235.8 314.4 224.6 322.7 218.2 330.6" stroke="#2D1F04" stroke-width="2.7806" stroke-miterlimit="10" stroke-linecap="round" stroke-linejoin="round"/>
<path d="M218.2 330.6C248.7 330.2 272.4 329.9 277.7 329.7C280.9 329.6 294.3 329.2 294.4 324.8C294.6 315.5 288.1 309.7 287.8 304.4" stroke="#2D1F04" stroke-width="2.7806" stroke-miterlimit="10" stroke-linecap="round" stroke-linejoin="round"/>
<path d="M327.7 302.2C329.4 310.4 334.7 313.2 340.9 315.4" stroke="#2D1F04" stroke-width="2.7806" stroke-miterlimit="10" stroke-linecap="round" stroke-linejoin="round"/>
<path d="M380.9 256.2C382 273.1 381 294 387.9 315.2C389.3 319.6 395.3 329.1 388.2 332.4C382.2 335.1 321.9 332.7 311.2 330.3C315.5 324.9 322.6 318.5 340.8 315.3" stroke="#2D1F04" stroke-width="2.7806" stroke-miterlimit="10" stroke-linecap="round" stroke-linejoin="round"/>
<path d="M248.7 314.8C254.9 318.5 259.9 323.3 263.2 329.9" stroke="#2D1F04" stroke-width="2.7806" stroke-miterlimit="10" stroke-linecap="round" stroke-linejoin="round"/>
<path d="M340.9 315.4C349.9 318.7 357.8 325.8 361.7 333.6" stroke="#2D1F04" stroke-width="2.7806" stroke-miterlimit="10" stroke-linecap="round" stroke-linejoin="round"/>
<path d="M218.2 330.6C226.3 325.6 241 317.9 255.3 319.7" stroke="#2D1F04" stroke-width="2.7806" stroke-miterlimit="10" stroke-linecap="round" stroke-linejoin="round"/>
<path d="M313.2 330.5C320.9 326.6 330.4 323.8 339.7 322.7C343.8 322.2 347.8 322 351.6 322.2" stroke="#2D1F04" stroke-width="2.7806" stroke-miterlimit="10" stroke-linecap="round" stroke-linejoin="round"/>
<path d="M229 156.3C236.6 161.9 268.4 168.7 309.6 162.2" stroke="#2D1F04" stroke-width="2.7806" stroke-miterlimit="10" stroke-linecap="round" stroke-linejoin="round"/>
<path d="M257.9 88C255 83.1 254.6 76.3 254.6 76.4" stroke="#2D1F04" stroke-width="3.05" stroke-miterlimit="10" stroke-linecap="round" stroke-linejoin="round"/>
<path d="M278.7 54.5999C280.6 45.8999 289.4 42.7999 297.3 45.3999C299.7 46.0999 301.8 47.1999 303.8 48.4999C304.4 48.8999 304.6 49.6999 304.2 50.2999C303.9 50.7999 303.3 50.9999 302.8 50.8999C298.7 49.9999 294.4 48.8999 290.3 49.3999C286.2 49.8999 283.4 52.2999 281 55.5999C280.3 56.8999 278.4 55.9999 278.7 54.5999Z" fill="#2D1F04"/>
<path d="M214.7 79.5001C215.2 72.7001 221 67.4001 228 68.5001C230.1 68.8001 232 69.4001 233.7 70.3001C234.3 70.6001 234.6 71.4001 234.3 72.1001C234 72.6 233.5 72.9001 232.9 72.8001C229.7 72.3001 226.2 71.9001 223.3 73.3001C220.4 74.7001 218.8 77.5001 217.2 80.3001C216.6 81.5001 214.6 80.9001 214.7 79.5001Z" fill="#2D1F04"/>
<path d="M245.2 84.9998C246.7 90.1998 254.4 95.6998 257.9 87.9998C264.4 93.7998 268.8 84.1998 266.6 77.7998" stroke="#2D1F04" stroke-width="3.05" stroke-miterlimit="10" stroke-linecap="round" stroke-linejoin="round"/>
<path d="M117.5 50.1C103.2 58.5 103.7 76.5 110 80.7C117.9 86 114.2 76.6 127.3 70.2C132.5 67.6 136.8 66.4 131.3 56.2C127.9 49.6 122.9 46.9 117.5 50.1Z" fill="#2D1F04"/>
<path d="M117.5 50.1C103.2 58.5 104.3 77 110 80.7C118.4 86.1 114.2 76.6 127.3 70.2C132.5 67.6 136.8 66.4 131.3 56.2C127.9 49.6 122.9 46.9 117.5 50.1Z" stroke="#2D1F04" stroke-width="2.7806" stroke-miterlimit="10" stroke-linecap="round" stroke-linejoin="round"/>
<path d="M121 48.8001C136.5 44.4001 155.7 47.3001 174.2 65.9001" stroke="#2D1F04" stroke-width="2.7806" stroke-miterlimit="10" stroke-linecap="round" stroke-linejoin="round"/>
<path d="M228.7 188.5C229.8 185.9 230.8 183.1 231.6 180.3C234.5 170 235.7 158.9 233.2 145.2C232.7 142.3 230.9 137 227.3 131.9C212.9 153.1 218 187.4 202.6 215.2C215.8 208.6 223.9 199.6 228.7 188.5Z" fill="#2D1F04"/>
<path d="M260.1 233.8C249.3 236.8 242.2 240.9 228.1 247.9" stroke="#2D1F04" stroke-width="2.7806" stroke-miterlimit="10" stroke-linecap="round" stroke-linejoin="round"/>
<path d="M332.7 146.4C333.3 153 333.1 161.5 330.4 167.8C329 171 326.4 174.9 325.5 178.2C321.3 182.3 318.8 184.4 324.9 188.5" stroke="#2D1F04" stroke-width="2.7806" stroke-miterlimit="10" stroke-linecap="round" stroke-linejoin="round"/>
<path d="M332.3 160.2C334.4 157.1 337.4 153.2 338.4 149.6" stroke="#2D1F04" stroke-width="2.7806" stroke-miterlimit="10" stroke-linecap="round" stroke-linejoin="round"/>
<path d="M337.2 195.9C348.3 203.3 354.4 210.9 355.8 213.3C356 213.7 356.3 214.1 356.5 214.5C356.8 215 357.2 215.4 357.6 215.8C357.6 215.8 357.6 215.8 357.7 215.9C360.9 218.9 365.2 216 369.1 213C375.6 208 381.6 202.1 386.5 195.5C392.2 187.6 396.2 178.7 397.2 168.8C397.2 168.5 397.3 168.2 397.3 167.9C397.4 166.8 397.5 165.7 397.5 164.6C397.5 163.9 397.5 163.2 397.4 162.3C397.4 162.1 397.4 162 397.4 161.8C397.4 161.7 397.4 161.6 397.4 161.4C396.5 152.7 391.6 137.4 373.8 130.8C373.6 130.7 373.4 130.7 373.2 130.6C362.3 126.9 350.8 130.8 344.8 135.7" stroke="#2D1F04" stroke-width="2.7806" stroke-miterlimit="10" stroke-linecap="round" stroke-linejoin="round"/>
<path d="M324.7 188.5C310.9 205.7 279.9 218.5 263 225.3C256.4 227.9 240.8 235.1 231.2 243.9C225.1 249.6 229.1 249.4 238.3 248.5C247.2 247.6 256.4 246.7 268.1 245.1C297.6 240.9 332.2 234.3 357.5 215.9" stroke="#2D1F04" stroke-width="2.7806" stroke-miterlimit="10" stroke-linecap="round" stroke-linejoin="round"/>
<path d="M245.5 243.8C241.2 244.7 237.6 246.5 234.5 248.8C234.5 248.8 234.4 248.8 234.4 248.9C231.5 251 229 253.6 226.8 256.1C226.8 256.1 226.7 256.1 226.7 256.2C224.9 258.2 223.3 260.2 221.7 261.9C221.4 262.2 221.2 262.5 220.9 262.8C211.1 273.5 202.9 275.9 194.8 275.9C187.5 275.9 179.1 271.9 173.5 267.3C166.3 261.4 158.9 254.2 151.8 251.3C151.7 251.2 151.5 251.2 151.4 251.1L158.9 225.9C171.3 231.1 174.8 239.1 182.4 246.8C190.6 255 198.6 259.8 208.9 252.5C209.9 251.8 210.8 251.1 211.8 250.3C211.8 250.3 211.8 250.3 211.9 250.2C221.3 242.9 231.4 232.9 247.1 235.1H247.2H247.3C247.6 235.1 247.9 235.2 248.2 235.2C250.9 235.7 252.7 236.5 253.6 237.4C255.4 239.6 253.1 242.2 245.5 243.8Z" fill="#2D1F04"/>
<path d="M255.9 228.7C259.3 231.9 264.3 238.5 264.9 245.3" stroke="#2D1F04" stroke-width="2.7806" stroke-miterlimit="10" stroke-linecap="round" stroke-linejoin="round"/>
<path d="M325.4 178.2C337.6 183.5 348.6 189 361.7 205.4" stroke="#2D1F04" stroke-width="2.7806" stroke-miterlimit="10" stroke-linecap="round" stroke-linejoin="round"/>
<path opacity="0.23" d="M389.9 250.7C379.5 259.1 360.7 263.3 340.2 265.3C340.5 265.2 340.8 265.2 341 265.1C364.2 261.1 365.7 251.3 367.4 242.8C369 234.7 368.7 216.7 365.6 215.5C366.8 214.8 368 213.9 369.2 213C375.7 208 381.7 202.2 386.6 195.5C389.7 209.7 392.1 240.6 389.9 250.7Z" fill="#2D1F04"/>
<path d="M333.5 181.9C332.8 182.8 332.3 183.5 332 184.6" stroke="#2D1F04" stroke-width="2.7806" stroke-miterlimit="10" stroke-linecap="round" stroke-linejoin="round"/>
<path d="M339.4 185.2C338.8 185.8 337.9 186.9 337.3 187.9" stroke="#2D1F04" stroke-width="2.7806" stroke-miterlimit="10" stroke-linecap="round" stroke-linejoin="round"/>
<path d="M350 192.9C349.1 193.5 348 194.8 347.3 195.9" stroke="#2D1F04" stroke-width="2.7806" stroke-miterlimit="10" stroke-linecap="round" stroke-linejoin="round"/>
<path d="M267.636 200.636V199.545C267.758 187.97 268.97 178.758 271.273 171.909C273.576 165.061 276.848 159.515 281.091 155.273C285.333 151.03 290.424 147.121 296.364 143.545C299.939 141.364 303.152 138.788 306 135.818C308.848 132.788 311.091 129.303 312.727 125.364C314.424 121.424 315.273 117.061 315.273 112.273C315.273 106.333 313.879 101.182 311.091 96.8182C308.303 92.4545 304.576 89.0909 299.909 86.7273C295.242 84.3636 290.061 83.1818 284.364 83.1818C279.394 83.1818 274.606 84.2121 270 86.2727C265.394 88.3333 261.545 91.5758 258.455 96C255.364 100.424 253.576 106.212 253.091 113.364H230.182C230.667 103.061 233.333 94.2424 238.182 86.9091C243.091 79.5758 249.545 73.9697 257.545 70.0909C265.606 66.2121 274.545 64.2727 284.364 64.2727C295.03 64.2727 304.303 66.3939 312.182 70.6364C320.121 74.8788 326.242 80.697 330.545 88.0909C334.909 95.4848 337.091 103.909 337.091 113.364C337.091 120.03 336.061 126.061 334 131.455C332 136.848 329.091 141.667 325.273 145.909C321.515 150.152 316.97 153.909 311.636 157.182C306.303 160.515 302.03 164.03 298.818 167.727C295.606 171.364 293.273 175.697 291.818 180.727C290.364 185.758 289.576 192.03 289.455 199.545V200.636H267.636ZM279.273 254.455C274.788 254.455 270.939 252.848 267.727 249.636C264.515 246.424 262.909 242.576 262.909 238.091C262.909 233.606 264.515 229.758 267.727 226.545C270.939 223.333 274.788 221.727 279.273 221.727C283.758 221.727 287.606 223.333 290.818 226.545C294.03 229.758 295.636 233.606 295.636 238.091C295.636 241.061 294.879 243.788 293.364 246.273C291.909 248.758 289.939 250.758 287.455 252.273C285.03 253.727 282.303 254.455 279.273 254.455Z" fill="white"/>
</g>
<defs>
<clipPath id="clip0_228_2261">
<rect width="399" height="335" fill="white"/>
</clipPath>
</defs>
</svg>
