<svg width="530" height="411" viewBox="0 0 530 411" fill="none" xmlns="http://www.w3.org/2000/svg">
<g clip-path="url(#clip0_228_2381)">
<path d="M17.7 305.6C19.6 306.9 23.4 304.7 25.8 299.2C37 273.4 37.5 239.3 56.7 218.8C62.6 212.5 60.3 219.9 59.9 222.6C56.2 250.9 64.6 265 63.9 290.1C63.8 295 58.9 309.5 58.3 315.4C57.2 325.2 57.7 334.8 55.7 344.4C55.8 344.5 55.8 344.5 55.9 344.6C56.9 345.5 57.9 346.2 59 346.9C60.4 344.8 62.2 341.6 64.7 336.3C68.8 327.7 75.1 328.1 74.6 330.1C74.4 331.6 74.1 333.2 73.8 334.7C73.1 339.6 73 342.8 73.7 347.8C75.5 347.6 83.9 348.9 86 349.3C87.5 349.5 93.5 355 98.3 359.7C106.5 362 114.7 364.3 122.9 366.6C121.8 332.9 116.6 299.5 107 267.1C97.5 235.4 79.3 201.5 84.3 157.1C68.9 171.7 40.7 204 28 224.7C12.6 250 3.99998 278.5 1.59998 307.9C1.39998 309.8 2.99998 311.5 4.69998 312C6.39998 308.7 8.39998 305.7 10.1 303.9C11.9 302.1 14.8 303.7 17.7 305.6Z" fill="#2D1F04"/>
<path d="M85.7999 349.3C83.7999 349 75.2999 347.6 73.4999 347.8C72.7999 342.9 72.9999 339.6 73.5999 334.7C73.8999 333.2 74.1999 331.6 74.3999 330.1C74.8999 328.1 68.4999 327.7 64.4999 336.3C61.9999 341.5 60.2999 344.8 58.7999 346.9C66.1999 351.7 75.5999 353.5 83.9999 355.8C88.5999 357.1 93.2999 358.4 97.8999 359.7C93.3999 355 87.3999 349.6 85.7999 349.3Z" fill="#2D1F04"/>
<path d="M37.0999 322.9C45.7999 328 48.4 338 55.7 344.4C57.7 334.8 57.1 325.2 58.3 315.4C59 309.5 63.8 295 63.9 290.1C64.5 264.9 56.2 250.8 59.9 222.6C60.3 219.9 62.6 212.5 56.7 218.8C37.6 239.3 37.0999 273.4 25.7999 299.2C23.3999 304.7 19.6 306.9 17.7 305.6C14.8 303.7 12 302.1 10.1 304C8.39995 305.8 6.39995 308.7 4.69995 312.1C4.69995 312.1 4.69995 312.1 4.79995 312.1C15.2 315.3 27.5999 317.4 37.0999 322.9Z" fill="#2D1F04"/>
<path d="M158.7 258.5C164.9 254 171.5 250.2 178.4 247C186.8 243 198.5 236.3 204.9 228.2C204.7 227.9 204.5 227.6 204.2 227.3C179.3 206.9 149.3 186.6 133 176.7C120.2 169 99.9999 155.5 84.4999 156.8C84.3999 156.9 84.1999 157.1 84.0999 157.2C79.0999 201.7 97.2999 235.6 106.8 267.2C111.6 283.3 115.3 299.6 117.9 316.1C123.7 303.8 131.1 290.3 135 284.2C141.2 274.2 149.2 265.4 158.7 258.5Z" fill="#2D1F04"/>
<path d="M156 213.9C150.8 210.1 142.8 211 137.7 214.4C136.5 213.6 128.8 209.6 127.1 209.6C122.3 209.4 104.4 214.2 99.4 207.5C95.7 202.7 94.6 203.6 95.5 209.5C97.3 222.1 101.1 231.1 110 240.3C112 242.4 115.3 239.7 118 238.5C129.4 233 143.1 222.8 156.8 223.4C161 219.7 157.6 215.1 156 213.9Z" fill="#2D1F04"/>
<path d="M234.3 282.1C226.5 264.2 217.4 243.3 204.9 228.1C203.4 229.9 201.7 231.7 199.8 233.4C200.1 233.6 200.4 233.9 200.5 234.2C203.5 241.4 208.8 247 208.6 255.2C208.4 263.2 204.4 270.6 201.9 278C200.3 282.7 200.6 287.6 199.6 292.4C198.6 297.5 196.7 300.9 197.7 306.4C199.2 314.1 201.9 325.8 205.5 334.5C216 330.8 226.3 326.2 234.1 318.6C245.3 307.5 239.8 294.7 234.3 282.1Z" fill="#2D1F04"/>
<path d="M165.6 256.2C164.8 256.2 164.1 255.4 164.3 254.6C162.4 255.8 160.5 257.1 158.7 258.4C149.2 265.3 141.2 274.2 135 284.1C131.1 290.3 123.7 303.7 117.9 316C120.6 332.7 122.2 349.6 122.7 366.5C134.7 359.3 154.7 351.7 172.2 345.6C169.1 334.1 169.4 322 169.1 309.9C168.7 292.6 162.8 273.6 165.6 256.2Z" fill="#2D1F04"/>
<path d="M199.7 233.4C199.2 233.1 198.6 233 198.1 233.6C193.7 238.7 186.1 240.5 180.3 243.6C174.7 246.6 169.6 250.2 164.7 254.1C164.5 254.3 164.4 254.5 164.3 254.7C168.8 251.8 173.5 249.3 178.3 247C184.9 243.9 193.3 239.1 199.7 233.4Z" fill="#2D1F04"/>
<path d="M199.6 292.4C200.5 287.6 200.3 282.7 201.9 278C204.4 270.6 208.4 263.2 208.6 255.2C208.8 247 203.6 241.4 200.5 234.2C200.4 233.9 200.1 233.6 199.8 233.4C193.3 239.1 184.9 243.9 178.4 246.9C173.6 249.2 168.9 251.8 164.4 254.6C164.2 255.3 164.9 256.1 165.7 256.2C162.9 273.6 168.8 292.5 169.2 310C169.5 322.1 169.2 334.2 172.3 345.7C178.2 343.6 183.9 341.7 188.8 340C194.2 338.2 199.9 336.4 205.5 334.4C201.9 325.7 199.2 314 197.7 306.3C196.6 301 198.6 297.5 199.6 292.4Z" fill="#2D1F04"/>
<path d="M190.9 216.7C184 216.7 177.2 215.8 170.3 216.4C161.7 217.2 153.3 219.8 145.2 222.7C138.2 225.2 132.8 229.9 126.1 232.6C116.9 236.3 107.8 231.4 102.9 225.7C97.5 217.8 95.3999 199.8 93.1999 189.2C92.0999 184 83.2 165.9 84.5 156.7C80.2 156.6 51.6 188.5 46.2 199.4C54.8 195.3 65.7 174.5 74.8 187.8C80.3 195.9 83.2999 211.5 85.0999 219.7C87.8999 232.9 93 255 103.8 270.2C108.6 277.1 113 293.8 112.4 299C111.2 310.4 111.3 319.2 120.4 333.7C122 324.7 126 321.1 129.1 307.1C132 294.3 141.6 283.7 148.7 273.3C158.9 258.4 181.2 248.5 193.9 241.3C197.4 239.3 204.6 236.7 208.8 232.8C202.8 222.8 195.4 220.2 190.9 216.7Z" fill="#2D1F04"/>
<path d="M202 223.9C197.2 220.2 128 169.1 116.2 164.3C112 162.6 95.2 152.2 82 157.1C74.8 159.8 66.2 172.2 61.1 179.4C65.5 175.7 75.8 169.8 81.1 170.6C86.3 171.4 88.7 181.1 90.9 186C94.9 198.7 96.7 212.4 101.5 224.8C105.1 234 113 241.8 119 246.6C120.4 247.8 125.9 252.4 124.3 258.9C123.1 263.9 123.2 268.9 124.6 274.1C125 275.5 125.8 274.7 126.3 273.3C129 265.8 129.3 258.2 133.5 250.9C134 250.1 133.7 248.9 132.9 248.5C128.5 246.3 133.1 242.7 135.6 240.3C138.8 237.3 139.7 232.8 143.3 230.3C147.7 227.2 160.2 221.4 172.2 223.7C178.6 224.9 182.8 222.5 188.6 224.3C196.4 226.7 205 232 208.5 232.8C209.6 232.1 203.3 224.9 202 223.9ZM157.4 217.8C150.6 219.5 131.9 229.2 129.1 230.7C119.4 235.5 110.2 232.1 106.3 225.7C100.3 209.9 98.4 195.4 92 179.9C91.5 178.4 90.2 174.5 89.6 172.2C89.1 170.3 90 164.4 92 163.4C99.7 159.5 120.1 169.7 125.2 172.8C137.9 180.5 171.2 206.8 175.7 210.7C176.7 211.6 176.6 214.2 174.4 214.7C169.7 215.7 162.8 216.9 157.4 217.8Z" fill="#2D1F04"/>
<path d="M157.4 291.3C160.1 290.9 161.5 289.1 161.3 286.7C160.3 277.9 155.2 269.9 158.7 261.3C161.1 255.4 166.7 251.8 165.8 244.1C165.8 243.7 165.3 242.5 164.7 241.1C158.1 242.5 152.5 247.2 146.7 251.2C144.5 252.7 132.3 262.4 129 273C126.8 280 126.8 287.6 127.7 294.6C132.8 300.7 151.4 292.1 157.4 291.3Z" fill="#2D1F04"/>
<path d="M190.2 257C187.2 266.5 193.4 268.7 189.4 275.4C188 278.6 187.4 282.7 188.9 284.3C192 287.5 204.1 288.9 209.3 286.1C214.9 283 217.1 276.2 220.5 270.7C223.3 266.3 225.2 262 229.2 258.5C230.3 257.6 234 255.8 238.1 253.9H238C241.6 251.1 247 247.6 248.4 243C243.6 240.1 221.5 239.3 208.9 242.6C202 244.4 195.3 247.8 188 246.7C190.1 249.9 191.1 253.9 190.2 257Z" fill="#2D1F04"/>
<path d="M256.4 269.7C255 267.4 249.6 267.8 247 267.4C244.3 266.7 241.6 266.3 238.8 266C236.9 265.8 236.7 263.5 237.9 262.3C241.9 258.5 246.7 256.7 251.8 256.3C247.3 255.4 242.8 254.6 238.1 253.9C234 255.8 230.3 257.6 229.2 258.5C225.2 262 223.2 266.3 220.5 270.7C217.1 276.1 215.6 283.7 209.9 286.8C204.7 289.6 192.1 287.4 188.9 284.3C187.3 282.7 187.9 278.7 189.4 275.4C193.5 268.7 187.3 266.5 190.2 257C191.2 253.9 190.2 250 188.1 246.7C187.8 246.6 187.4 246.6 187.1 246.5C182.1 245.5 177.8 242.5 172.9 241.3C170 240.6 167.3 240.6 164.8 241.1C165.4 242.5 165.9 243.7 165.9 244.1C166.8 251.9 161.2 255.5 158.8 261.3C155.3 269.9 160.4 277.9 161.4 286.7C161.7 289 160.2 290.9 157.5 291.3C151.5 292.1 132.9 300.7 127.8 294.5C128.9 302.5 131.3 309.6 133.5 313.9C133.7 318.2 133.8 322.4 134 326.7C134.5 337.7 134.8 349.2 139.7 359.4C147.8 376.3 165.7 384.1 182.2 390.5C184.2 391.3 186.4 390.3 187.1 388.4C187.9 388.3 188.7 388.1 189.5 387.5C194.1 384.3 201.7 390.2 209.5 395.6C234 391.3 260 380.2 281.2 367.1C289.6 361.9 310.5 341.6 310.3 339.4C310.3 339.4 308.2 318.4 307.9 316.4C305.9 300.5 303.5 290.9 296.6 281.9C302.3 292.3 299.2 301.1 291 308.5C288.3 311 287.5 315.4 283.8 316.5C278.4 318.2 273.4 320.2 270.1 327.5C269.1 329.9 265.2 329.2 263.2 331.6C260.3 335.3 255.4 339.1 251.5 341.6C237.4 350.6 198.5 370.2 180.6 360.3C179.7 359.8 171.6 352.4 172.9 352.2C175.4 351.8 177.9 351.2 180.3 350.4" fill="#2D1F04"/>
<path d="M237.8 262.3C236.6 263.4 236.8 265.7 238.7 266C241.5 266.3 244.2 266.6 246.9 267.4C249.5 267.8 254.9 267.4 256.3 269.7C258.6 273.6 256.8 279.3 256.2 283.8C255.6 289 244.5 292 240.1 294.3C234.4 297.3 227.6 298.8 226.2 305.5C224.8 311.8 232.8 313.2 218.3 320.7C214.5 322.7 210.3 328.5 207.4 331.7C198.4 341.6 186.6 350.1 172.8 352.3C171.6 352.5 179.6 359.9 180.5 360.4C198.5 370.3 237.3 350.7 251.4 341.7C255.3 339.2 260.2 335.4 263.1 331.7C265 329.3 269 330 270 327.6C273.2 320.3 278.2 318.3 283.7 316.6C287.4 315.5 288.1 311.1 290.9 308.6C299.1 301.2 302.2 292.4 296.5 282C293.9 278.7 290.7 275.4 286.6 272C276.2 263.2 264.3 259 251.7 256.4C246.6 256.7 241.8 258.5 237.8 262.3Z" fill="#2D1F04"/>
<path d="M180.2 350.4C190.9 346.8 200.1 339.7 207.4 331.6C210.3 328.4 214.4 322.5 218.3 320.6C232.9 313.1 224.9 311.7 226.2 305.4C227.7 298.7 234.5 297.2 240.1 294.2C244.5 291.9 255.6 289 256.2 283.7C256.7 279.2 258.6 273.5 256.3 269.6" fill="#2D1F04"/>
<path d="M204.2 375.6C197.6 364.4 184.6 357.4 174.3 350.2C153.8 335.9 134.2 308.6 132.6 292.8C132 287.4 129.3 280.7 129 272.9C125.7 282.8 126.8 296.1 127.1 300.7C128 312.3 130.4 324.2 132.4 335.2C134.5 346.7 135.7 359.7 144.3 368.5C152.9 377.4 164.6 386 176 390.9C186.7 395.5 209.4 395.5 209.4 395.5C209.4 395.5 207 380.4 204.2 375.6Z" fill="#2D1F04"/>
<path d="M265.6 316C260.1 320.2 254.9 323.8 253.2 325.7C251.3 327.9 245.8 329.9 243.4 331.6C236.7 336.6 229.6 341 222 344.5C209.3 350.3 189.4 359.5 176.2 351.6C182.5 361.7 200.2 378.7 204 394C204 394 204 394.1 204.1 394.1C199.3 392.8 191.1 389.6 186.7 385.1C181.9 380.3 171.8 372.9 166.7 371.5C165.2 371.1 160 370.2 158.2 368.6C151.4 362.2 150.1 363.9 147.5 362.6C140.6 359 135.9 351.7 133.8 343.9C137.2 360.1 142.1 367.2 145.3 370.4C160.6 385.7 171.9 391.6 185.9 394C198.8 396.2 209.4 396.5 209.4 396.5C209.4 396.5 227.5 393.4 239.2 388.6C247.1 385.3 281.8 368.7 288.6 364.2C299.7 356.8 319.6 345.3 320.7 343.1C321.2 336.8 319.2 325.9 318.3 321.5C317.5 317.7 316.2 313.7 314.6 309.7C305 312.8 290 317.8 283.1 324.4C276.7 321.8 268.5 317.8 265.6 316Z" fill="#2D1F04"/>
<path d="M280.1 302.9C277 307.1 271.1 311.8 265.5 316C268.5 317.9 276.7 321.8 283 324.3C289.9 317.6 304.8 312.6 314.5 309.6C309.7 297.6 301.2 282.7 294.2 277.3C293 288.4 285.9 295.1 280.1 302.9Z" fill="#2D1F04"/>
<path d="M262.9 317.4C260.2 316.9 255.1 316.2 251 316.4C251.3 317.4 253.2 321.7 254.5 326.8C257.8 339.4 263.8 359.2 264.3 360.2C265 361.7 271.1 358.7 271.4 355.3C271.7 351.6 265.1 326.2 262.9 317.4Z" fill="#2D1F04"/>
<path d="M387.7 338C369.4 324 341.7 301.8 316.9 307.4C304.1 310.3 290.5 316.5 279.9 323.8C267 332.8 253.2 348 244.9 358.7C243.7 360.2 248.9 361.7 250.2 361.8C296.9 367.3 343.8 360.6 387.1 342.4C388.8 341.6 389.3 339.1 387.7 338Z" fill="#2D1F04"/>
<path d="M354.5 354.3C352.2 352.4 348.5 353.8 346.1 354.3C339.5 355.6 332.8 356.8 326.1 357.7C311.7 359.6 296.6 362.1 282 361.6C270.2 361.2 250.6 359.7 244.8 358.8C245 366 244.7 372.6 245.4 379.7C245.7 382.4 248 390.7 248 390.7C248 390.7 257 393.8 260.2 394.6C261.8 395 263.5 395.4 265.1 395.8C267.5 392.5 268.8 391.5 274.1 391.5C283.3 391.4 290 393.9 292.1 383.6C293.4 377.2 291.8 369.2 290.1 363C289.9 362.4 290.4 361.9 291 362.1C297.2 364.4 298.8 361.4 303.6 364.8C307.8 367.8 309.5 371 311.4 375.6C312.7 378.6 314.5 383.8 316.4 386.6C316.7 387 316.9 387.3 317.2 387.6C325.1 390.3 333.3 383.5 340.8 389.7C341.3 389.6 341.8 389.5 342.3 389.4C342.5 389.4 342.6 389.7 342.4 389.8C342 389.9 341.6 390 341.2 390.1C341.3 390.2 341.3 390.4 341.4 390.5C342.9 390 344.4 389.6 345.9 389.1C346.9 388.8 356.6 377.8 356.5 376.8C355.7 369.7 357.4 368.7 356.5 361.6C356.3 359.5 356.4 355.8 354.5 354.3Z" fill="#2D1F04"/>
<path d="M342.5 389.7C342.7 389.6 342.6 389.2 342.4 389.3C341.9 389.4 341.4 389.5 340.9 389.6C333.5 383.4 325.3 390.2 317.3 387.5C317 387.2 316.7 386.9 316.5 386.5C314.6 383.7 312.8 378.5 311.5 375.5C309.6 371 310.2 363.7 308.4 361.4C304.8 356.8 297.3 364.3 291.1 362C290.5 361.8 290.1 362.3 290.2 362.9C291.9 369.1 293.5 377 292.2 383.5C290.1 393.8 283.5 391.3 274.2 391.4C268.9 391.5 267.6 392.5 265.2 395.7C270.5 396.9 275.9 398 281.3 398.6C305.8 401.2 319.5 397.5 341.4 390.5C341.3 390.3 341.3 390.2 341.2 390.1C341.7 389.9 342.1 389.8 342.5 389.7Z" fill="#2D1F04"/>
<path d="M255.3 257.1C254.9 256.4 250.5 244.8 248.3 243C245.9 246.2 236.4 248.8 234.1 251C225.7 259.2 223.1 265.4 215.4 274.1C212.5 277.4 211.5 285.4 205.4 284.8C199.6 284.2 189.3 282.2 186 288.6C194.4 289.9 198.7 291.7 206.9 291.7C210.3 291.7 217.5 289.2 219.3 286.4C223.7 279.7 226.8 274.7 233.4 269.5C240 264.5 251.4 265.9 255.3 257.1Z" fill="#2D1F04"/>
<path d="M390.5 338.6C388.6 338.5 385.6 338.1 384.2 338.6C374.3 341.7 367.2 344.6 357.3 347.6C357 347.7 356.6 347.8 356.3 347.9C353.8 346.7 351.3 345.7 348.8 344.6C348 344.3 347.1 344.6 346.7 345.4C344.8 349.3 344.7 353.8 346.7 357.5C346.6 358.1 346.4 358.7 346.3 359.3C346.3 359.5 346.2 359.7 346.1 360C345.5 360.6 345.3 361.4 345.5 362.1C343.1 370.7 350.9 382.4 350.8 381.2C356.9 381.8 361.7 386.8 367 385C373.8 382.5 385.7 376 392.4 372.2C393.5 362.2 392.2 346.2 390.5 338.6Z" fill="#2D1F04"/>
<path d="M381.8 337.3C378.8 331.3 374.6 328.1 371 328.2C362.7 330.1 351.8 335.3 343.2 334.8C338 334.5 331.7 333.1 326.6 334.5C324.2 335.1 322.9 336 321.3 337.7C320.6 338.5 320.9 339.8 320.5 340.6C318.1 344.8 315.1 346.6 310.8 348.5C297.5 354.6 280.4 358.9 266 360.2C265.4 360.3 312.5 363 326.5 360.1C334.9 358.4 343 355.4 345.3 346.9C357.8 350.2 370.2 347.8 380.9 340.3C381.8 339.7 382.3 338.3 381.8 337.3Z" fill="#2D1F04"/>
<path d="M390.5 338.6C379.1 329.4 366.3 321.6 353.5 314.7C352.7 318.9 368.1 325.6 377.4 335.4C378.8 336.9 378.4 339.9 372.6 341.4C370.6 341.9 361.5 345.8 354.5 342.6C349.8 340.5 347.3 341.2 342.1 340.3C342.3 344.7 342.4 351 339 353.8C336.4 355.9 333.2 356.4 329.9 356.1C320.9 357.4 311.9 358.5 302.8 358.9C287.1 359.5 269 359.9 253.4 359.5C272.9 362.4 292.9 364.6 313.2 363.5C319.8 363.1 338 358.2 338.8 364.5C339.3 368.7 338 379.1 343.7 385.6C349 385.1 343.8 371 344.7 364.1C345 363.2 345.3 362.3 345.6 361.4C345.7 361.1 345.7 360.8 345.7 360.6C346 360.3 346.4 360 346.7 359.7C347.8 359.1 347.8 357.6 346.6 357.2C346.6 357.2 346.6 357.2 346.6 357.1C347.3 357 348 356.5 348 355.6C348 352.8 347.6 350.3 347.1 347.8C348.2 348.5 349.4 349.1 350.8 349.6C351 349.7 351.3 349.7 351.5 349.7C352.5 350.2 352.3 351 353.3 351.4C354.1 351.7 387.1 342.4 390.5 338.6Z" fill="#2D1F04"/>
<path d="M280.7 267.5C285.8 270.6 291.8 279.4 288.7 287.4C284.7 297.7 271.1 308.5 269.1 310.4C263.1 309.8 260.1 308.9 260 310.7C260 311.1 262 312.8 262.3 313.2C262.7 313.7 261.4 314.8 260.3 314.4C257.1 313.3 252.4 311.3 249.8 310.1C249.3 309.9 244.8 307.8 244.4 310.7C243.7 316.6 245.7 319.5 242.2 324.6C238.5 329.8 233 334 227.8 337.7C222.6 341.4 203.7 353.1 191.4 353C185.9 352.9 178.2 350 174.2 347.8C166.3 343.4 154.2 331.5 147.8 323.2C141 314.6 137.1 307 133.9 297.8C136.3 299 156.2 297.3 161.1 288.2C154 291.6 144.2 294.8 137.7 290.2C136 289 135.3 287.1 135.3 285.4C135.1 280 139.2 274.1 141.2 270.3C143.8 265.3 146.1 259.1 149.4 254C154.1 250.8 161.5 245.7 164 241C141.3 245.8 133.8 264.2 128.3 272.8C125.6 287.4 131.1 305.2 139.2 318.6C145 328.1 152.8 335.9 161.3 343C164.2 345.4 183.8 364.4 188 367.8C189.9 369.8 198.3 381.8 198.9 382.1C198.4 377.8 195.6 366.9 199.2 358.5C214.3 351.6 228.8 343.1 243.1 334.6C246.7 332.5 250.9 328.7 254.2 325C254.7 322.2 252 317.3 252 317C255.4 318.1 262.3 319.7 263.4 319C264.2 318.5 297.2 293.9 296.8 283C296.5 277 286.1 268.8 280.7 267.5Z" fill="#2D1F04"/>
<path d="M248.4 243C236.7 234.7 214.7 239.8 202.2 244.7C210.4 244.5 224 241 234.2 242.6C238.3 243.2 239.2 246 234.7 248.9C232.2 250.5 230 254.5 228.1 256.6C225 260.1 217.6 270.6 217.4 270.9C214 274.9 212.8 278.2 208 280.4C207.2 280.8 203.7 281.6 202.6 281.9C198.1 282.8 193.2 283.1 190 285.2C195 285 203.6 288.9 211.2 285.6C214.8 284 218.2 280.2 220.9 274.6C222.6 271 226.4 264.2 228.9 260.9C231 258 241.3 250.5 242.1 250.1C244.2 249.1 246.1 247.9 248.1 246.6C248.8 245.9 249.2 243.5 248.4 243Z" fill="#2D1F04"/>
<path d="M353.3 348.5C352.8 347.1 344.7 344.7 345 346.3C345.3 348.3 345.2 353.4 345.4 357.4C343.1 361.3 342.3 368.9 342.2 371.2C341.9 376.7 342.7 384.7 344.9 389.5C344.9 389.5 351 387.6 355 385.1C358.2 385.7 362.1 386.9 365.6 386C363.4 376.9 356.8 357.5 353.3 348.5Z" fill="#2D1F04"/>
<path d="M390.6 338.4C380.5 330.3 369.3 323.2 358 316.9C356.6 316.1 355.2 315.3 353.8 314.6C353.7 314.6 353.6 314.5 353.6 314.5C341.7 308.3 329 304.5 317.1 307.2C316.1 307.4 315.1 307.7 314.1 307.9C309.2 296.2 301.1 282.3 294.4 277.2C290.9 272.6 284.7 268.3 280.9 267.4C281.3 267.6 281.7 267.9 282.1 268.2C273.9 262.5 264.9 259.2 255.5 257C255.1 256.3 250.9 245.2 248.7 243C248.7 242.9 248.6 242.9 248.6 242.9C240.1 236.9 226 238 214.2 240.9C212.5 238.1 210.7 235.4 208.8 232.9C209.8 232.1 203.5 224.9 202.2 223.9C197.4 220.2 128.2 169.1 116.4 164.3C112.2 162.6 95.4 152.2 82.2 157.1C75 159.8 66.4 172.2 61.3 179.4C54.6 187.2 48.6 195.1 46.5 199.5C39.3 208.5 32.8 217.4 28.3 224.8C12.9 250 4.30003 278.6 1.90003 308C1.70003 309.9 3.30003 311.6 5.00003 312.1C5.00003 312.1 5.00003 312.1 5.10003 312.1C15.5 315.3 27.9 317.4 37.4 323C46.1 328.1 48.7 338.1 56 344.5C56.1 344.6 56.1 344.6 56.2 344.7C57.2 345.6 58.2 346.3 59.3 347C66.7 351.8 76.1 353.6 84.5 355.9C89.1 357.2 93.8 358.5 98.4 359.8C106.6 362.1 114.8 364.4 123 366.7C127.2 364.1 132.5 361.5 138.3 359C139.3 361.3 140.5 363.4 141.9 365.5C143.3 367.7 144.6 369.3 145.7 370.4C161 385.7 172.3 391.6 186.3 394C199.2 396.2 209.8 396.5 209.8 396.5C209.8 396.5 227.9 393.4 239.6 388.6C241.2 387.9 243.8 386.8 247.1 385.2C247.8 388 248.6 390.7 248.6 390.7C248.6 390.7 257.6 393.8 260.8 394.6C262.4 395 264.1 395.4 265.7 395.8C271 397 276.4 398.1 281.8 398.7C306.3 401.3 320 397.6 341.9 390.6C343.4 390.1 344.9 389.7 346.4 389.2C346.4 389.2 346.5 389.2 346.5 389.1C348.5 388.4 352.5 386.9 355.4 385.1C358.6 385.7 362.5 386.9 366 386C366 385.8 365.9 385.7 365.9 385.5C366.4 385.4 366.9 385.3 367.4 385.2C374.2 382.7 386.1 376.2 392.8 372.4C393.6 361.9 392.4 346 390.6 338.4Z" stroke="#2D1F04" stroke-width="2.7" stroke-miterlimit="10" stroke-linecap="round" stroke-linejoin="round"/>
<path d="M353.3 348.2C352.8 346.8 344.7 344.4 345 346C345.3 348 345.2 353.1 345.4 357.1C343.1 361 342.3 368.6 342.2 370.9C341.9 376.4 342.7 384.4 344.9 389.2C344.9 389.2 351 387.3 355 384.8C358.2 385.4 362.1 386.6 365.6 385.7C363.4 376.7 356.8 357.3 353.3 348.2Z" stroke="#2D1F04" stroke-width="2.7" stroke-miterlimit="10" stroke-linecap="round" stroke-linejoin="round"/>
<path d="M252.7 267.9C254.3 268.2 255.7 268.6 256.4 269.7C258.7 273.6 256.9 279.3 256.3 283.8C255.7 289 244.6 292 240.2 294.3C234.5 297.3 227.7 298.8 226.3 305.5C224.9 311.8 232.9 313.2 218.4 320.7C214.6 322.7 210.4 328.5 207.5 331.7C200.1 339.8 190.9 346.9 180.3 350.5" stroke="#2D1F04" stroke-width="2.7" stroke-miterlimit="10" stroke-linecap="round" stroke-linejoin="round"/>
<path d="M190 285.1C195 284.9 203.6 288.8 211.2 285.5C214.8 283.9 218.2 280.1 220.9 274.5C222.6 270.9 226.4 264.1 228.9 260.8C231 257.9 241.3 250.4 242.1 250" stroke="#2D1F04" stroke-width="2.7" stroke-miterlimit="10" stroke-linecap="round" stroke-linejoin="round"/>
<path d="M164 241.2C141.3 246 133.8 264.4 128.3 273C128 274.5 127.8 276.1 127.7 277.7C125.9 286.7 126.8 296.8 127.1 300.8C128 312.4 130.4 324.3 132.4 335.3C133.5 341.6 135.3 351.5 138.2 358.7" stroke="#2D1F04" stroke-width="2.7" stroke-miterlimit="10" stroke-linecap="round" stroke-linejoin="round"/>
<path d="M164.7 241.1C165.3 242.5 165.8 243.7 165.8 244.1C166.7 251.9 161.1 255.5 158.7 261.3C155.2 269.9 160.3 277.9 161.3 286.7C161.6 289 156.8 298.3 134 297.9" stroke="#2D1F04" stroke-width="2.7" stroke-miterlimit="10" stroke-linecap="round" stroke-linejoin="round"/>
<path d="M188 246.7C187.7 246.6 187.3 246.6 187 246.5C182 245.5 177.7 242.5 172.8 241.3C169.9 240.6 167.2 240.6 164.7 241.1" stroke="#2D1F04" stroke-width="2.7" stroke-miterlimit="10" stroke-linecap="round" stroke-linejoin="round"/>
<path d="M199 382.3C198.5 378 195.7 367.1 199.3 358.7C214.4 351.8 228.9 343.3 243.2 334.8C246.8 332.7 251 328.9 254.3 325.2C254.8 322.4 252.1 317.5 252.1 317.2C255.5 318.3 262.4 319.9 263.5 319.2C264.3 318.7 297.3 294.1 296.9 283.2C296.8 281.3 295.8 279.3 294.4 277.3" stroke="#2D1F04" stroke-width="2.7" stroke-miterlimit="10" stroke-linecap="round" stroke-linejoin="round"/>
<path d="M128.1 267.3C129.5 261.8 130.4 256.3 133.5 250.9C134 250.1 133.7 248.9 132.9 248.5C128.5 246.3 133.1 242.7 135.6 240.3C138.8 237.3 139.7 232.8 143.3 230.3C147.7 227.2 160.2 221.4 172.2 223.7M92.2 190.6C95.3 202 97.2 213.9 101.5 224.8C105.1 234 113 241.8 119 246.6C120.4 247.8 125.9 252.4 124.3 258.9C123.1 263.9 123.2 268.9 124.6 274.1M61 179.4C65.4 175.7 75.7 169.8 81 170.6C82.2 170.8 83.2 171.4 84.1 172.4M168 215.9C164.5 216.6 160.7 217.2 157.4 217.7C150.6 219.4 131.9 229.1 129.1 230.6C119.4 235.4 110.2 232 106.3 225.6C102.1 214.4 99.9 203.8 96.7 193.1" stroke="#2D1F04" stroke-width="2.7" stroke-miterlimit="10" stroke-linecap="round" stroke-linejoin="round"/>
<path d="M85 219.8C87.8 233 92.9 255.1 103.7 270.3C108.5 277.2 112.9 293.9 112.3 299.1C111.1 310.5 111.2 319.3 120.3 333.8C121.2 328.7 122.8 325.4 124.6 320.9" stroke="#2D1F04" stroke-width="2.7" stroke-miterlimit="10" stroke-linecap="round" stroke-linejoin="round"/>
<path d="M338.9 334.4C334.8 334 330.3 333.5 326.6 334.4C324.2 335 322.9 335.9 321.3 337.6C320.6 338.4 320.9 339.7 320.5 340.5C318.1 344.7 315.1 346.5 310.8 348.4C300.8 353 288.6 356.6 277 358.6" stroke="#2D1F04" stroke-width="2.7" stroke-miterlimit="10" stroke-linecap="round" stroke-linejoin="round"/>
<path d="M55.8999 344.2C57.4999 335.2 57.1999 324.6 58.2999 315.5C58.9999 309.6 63.7999 295.1 63.8999 290.2C64.4999 265 56.1999 250.9 59.8999 222.7C60.2999 220 62.5999 212.6 56.6999 218.9C41.1999 235.5 37.8999 260.9 31.2999 283.7" stroke="#2D1F04" stroke-width="2.7" stroke-miterlimit="10" stroke-linecap="round" stroke-linejoin="round"/>
<path opacity="0.23" d="M216.7 260C211.2 263.2 198.7 256.3 183 245.3C182.7 245.1 172.2 240.9 171.9 240.7C164.8 236.2 158.8 232 151.9 226.1C151.7 225.9 147.4 228.3 147.1 228.2C145 227.3 142.5 225.9 140.4 225C140.2 224.9 148.6 221.2 148.4 221.1C134.1 215.1 111.3 213.7 100.5 207.3C100.3 207.2 98.2 201 98 200.9C96.7 200.1 95.1 197.9 93.9 197.1C93.7 197 95.2 201.8 95 201.7C89.5 197.8 86.4 193.3 84.2 188.7C78.6 177.3 85.4 161.3 100.4 157.3C107.8 159.5 114 163.2 116.3 164.1C128.1 168.9 197.3 220 202.1 223.7C203.4 224.7 209.8 232 208.7 232.7C210.6 235.3 212.4 237.9 214.1 240.7C218.9 239.5 221.8 252.1 216.7 260Z" fill="#2D1F04"/>
<path opacity="0.23" d="M392.5 372L392.4 372.1C392.4 372.2 392.4 372.2 392.4 372.3C387.9 374.9 381.1 378.7 375 381.6C369.9 373.2 367 357.1 360.1 350.4C350.6 341.2 318.8 333.9 324 324.3C327 318.7 338.6 314.1 355.3 315.4C356.2 315.9 357.1 316.4 358.1 316.9C369.4 323.2 380.7 330.3 390.7 338.4C392.4 346 393.6 361.9 392.5 372Z" fill="#2D1F04"/>
<path d="M251.7 124.4C249.8 127.1 247.8 129.9 245.6 132.8C245.4 132.4 245.2 132.1 244.9 131.7C240 133.8 235.1 136.7 232.1 138.7C221.1 146.1 220.2 151.2 219.1 153.4C218.8 153.9 218.5 154.4 218.2 154.7C219.9 156.9 221.7 158.8 223.8 160.4C218.9 167.7 218.7 173.9 217 179.7C206.4 180.6 185.6 179.7 159.8 160.4C135 141.9 125.4 126.6 121.7 118C121 116.4 120.5 115 120.2 113.8C122.2 111.2 124 109.1 125.8 107.1C128.8 103.8 131.5 101.2 134.3 98.4999C139.6 93.4999 144.6 89.5999 149.3 85.0999C147.9 76.0999 143.8 72.3999 144.6 71.0999C145.8 69.2999 147.7 68.3999 149.3 68.2999C154 65.3999 161 57.0999 169.9 55.8999C169.1 57.1999 168.3 58.5999 167.6 59.9999C186.8 77.6999 201.9 75.8999 215 80.8999C229.3 86.2999 231.9 93.9999 233.9 100.8C234.6 103 235 105.5 235.6 108C239.8 115.2 243.5 119.2 251.7 124.4Z" fill="#2D1F04"/>
<path d="M524.3 241C521.9 241.5 516.9 241.4 506.9 250.1C503.1 253.4 499.1 258.2 497 260.8C492.5 263.9 491.7 261.7 489.9 257.6C488.1 256.3 486.4 254 484.7 252.2C485.7 266.4 481.4 290 478.3 297.5C476.3 297.9 474.2 298.3 472 298.6C455.2 300.9 432.6 299.4 404 293C386 289 367.2 282.2 354.6 274.1C352.2 272.6 350 271 348.2 269.4C347.4 260.2 352.6 250.1 357.2 242.5C357.3 242.4 357.4 242.2 357.4 242.1C357.6 241.8 357.7 241.6 357.9 241.3C358 241.2 358 241.1 358.1 240.9C358.2 240.7 358.3 240.6 358.4 240.4C358.6 240.1 358.8 239.8 358.9 239.5C359.6 238.5 360.3 237.4 361.1 236.3C361.3 236.1 361.4 235.8 361.6 235.6C361.8 235.3 362.1 235 362.3 234.6C362.4 234.5 362.4 234.4 362.5 234.4C363.5 233 364.6 231.6 365.5 230.5C365.4 230.3 365.4 230.2 365.4 230C364.8 227.8 364.9 225.5 365.4 223.3C364.8 223.4 364.2 223.5 363.7 223.5C361.3 223.8 358.4 224.1 357.6 222.8C357.4 222.4 357.3 222.1 357.1 221.6C353.1 211.6 353.1 185 354.2 184C355.8 182.5 360 181.4 361.5 181.7C366.6 180 380.3 178.3 387.9 181.3C387.7 181.9 387.4 182.5 387.2 183C387 183.5 385.8 184.8 386.3 184.6C386.5 184.5 387.3 183.4 387.8 183.7C388.1 183.9 385.8 190.7 380.9 196.8C388.5 200.5 395.6 203.2 402.2 205.2C421.1 210.8 436 210.3 446.3 209.5C454.9 208.9 464.2 207.6 477.9 203.8C480 202.8 482.5 202 485.2 201.5C488.3 201 490.9 200.7 493.7 201.1C495.7 201.3 497.6 201.8 499.8 202.7C514.1 208.4 521.9 220.8 526.6 231.7C528.3 235.6 528.8 240 524.3 241Z" fill="#2D1F04"/>
<path opacity="0.23" d="M251.6 124.2C249.7 126.9 247.7 129.7 245.5 132.5C245.3 132.1 245.1 131.8 244.8 131.4C248.9 127.7 246.9 126.4 243.4 123.7C242.4 121.3 240.1 118.6 238.7 116.3C237.3 113.9 236.4 110.9 235.7 107.9C239.8 115.1 243.6 119.1 251.6 124.2Z" fill="#2D1F04"/>
<path opacity="0.23" d="M223.8 160.5C218.9 167.8 218.7 174 217 179.8C211.5 180.3 203.4 180.2 193.2 177.5C203.6 177.8 204.7 161.9 203.1 157C201.8 152.8 197.7 146.3 194.3 137.6C198.5 144.1 204.1 149.3 209.5 153.4C212.4 155.7 216 157.1 218.2 154.8C218.2 154.8 218.2 154.8 218.2 154.9C218.2 154.9 218.2 154.9 218.2 155C219.9 156.9 221.8 158.8 223.8 160.5Z" fill="#2D1F04"/>
<path opacity="0.23" d="M526 240.5C525.9 240.5 525.9 240.6 525.8 240.6C525.4 240.8 525 240.9 524.5 241C523.6 241.2 522.3 241.3 520.5 241.8C520.5 241.8 520.5 241.8 520.4 241.8C519.4 242.1 518.1 242.5 516.7 243.1C519.5 238.5 516.1 226.9 504.2 217.1C491.8 206.9 475.1 205.1 466 215.9C468.8 209.3 474.7 203.4 485 201.6C490.2 200.7 494.4 200.7 499.6 202.8C513.9 208.4 521.7 220.9 526.4 231.8C528.1 235.1 528.6 238.8 526 240.5Z" fill="#2D1F04"/>
<path d="M286.1 171.2C265.4 170.8 239.1 172.6 223.6 160.3C221.5 158.7 219.7 156.8 218 154.6C218.3 154.3 218.6 153.8 218.9 153.3C220 151.1 220.9 146 231.9 138.6C234.9 136.6 239.8 133.7 244.7 131.6C244.9 132 245.1 132.4 245.4 132.7C255.7 149.9 275.1 152.3 288.2 155.8C289.2 156.1 290.5 156.3 292.1 156.5C291.8 156.8 291.5 157.2 291.2 157.7L291.1 157.8C290.4 158.8 289.5 160.1 288.8 161.6C287.5 164.2 286.4 167.4 286.3 170.3C286.3 170.5 286.3 170.6 286.3 170.8C286.3 170.8 286.2 171 286.1 171.2Z" fill="#2D1F04"/>
<path d="M493.5 201.3C490.7 201 488.1 201.2 485 201.7C481.7 202.3 478.8 203.3 476.4 204.6C467.3 207.6 456.8 209 445.2 209.7C441.2 209.9 410 211.2 380.7 197C385.6 190.9 387.9 184.1 387.6 183.9C387.1 183.5 386.3 184.7 386.1 184.8C385.6 185.1 386.7 183.8 387 183.2C387.6 181.8 388.4 180.1 388.7 178.5C388.8 178.2 387.7 179 387.6 178.7C387.5 177.9 388.4 176.7 388.6 175.8C388.9 174.1 388.4 172.1 388.2 170.4C386.8 160.6 386.3 149.9 388.5 140.1C389.9 133.6 393.9 121.7 405.1 114.4C406.7 113.3 401.5 111.9 402.6 108.5C405.9 111.6 411.8 110.2 414.2 109.6C409.2 108.5 402.4 105.5 404.7 98.9001C406.7 102.9 410.2 105.3 415.6 105.5C413.8 104 408.6 98.3001 412.9 93.5001C413 98.5001 416.5 100.7 422 100.3C419.8 98.4001 419.2 94.2001 423.8 92.1001C422.3 95.9001 429.4 99.5001 433.2 100.5C461 107.4 481.7 120.4 491 150.8C495.9 166.7 496.6 183.7 493.5 201.3Z" fill="#2D1F04"/>
<path d="M356.8 221.7C315.9 218.2 308.4 205 298.8 176.7C303 177.8 309.2 176.7 313.6 173.2C323.5 184.8 334.4 188.3 353.6 185.4C352.9 190.7 353.3 212.7 356.8 221.7Z" fill="#2D1F04"/>
<path d="M313.6 173.2C309.1 176.7 303 177.9 298.8 176.7C298.8 176.7 298.8 176.6 298.7 176.6C298.2 175.3 297.6 173.4 296.8 171.3C295.4 167.3 294.4 160.6 295.2 156.9C296 152.9 298.7 152.5 303.5 154.6C305.7 155.6 307 157.3 307.7 159.5C309 163.2 309.8 167.2 311.8 170.9C312.3 171.6 312.9 172.4 313.6 173.2C313.6 173.2 313.6 173.1 313.6 173.2Z" fill="#2D1F04"/>
<path opacity="0.23" d="M356.8 221.7C316 218.2 308.4 205 298.8 176.8C298.8 176.8 298.8 176.7 298.7 176.7C298.2 175.4 297.6 173.5 296.8 171.4C295.4 167.4 294.4 160.7 295.2 157C295.9 153.7 297.8 152.8 301.1 153.8C301.8 170.7 306.7 191.2 318.6 202.5C327.1 210.5 340.7 212.6 354.6 212.6C355.2 216.1 355.9 219.3 356.8 221.7Z" fill="#2D1F04"/>
<path d="M472 298.5C469.3 318.3 462.4 330.8 461 347.7C460.1 358.6 460 364.3 457.1 370.1C453.9 376.7 449 381.8 443.4 386.2C435.3 392.6 427.3 399.9 420.8 408.9C415.7 381.1 431.8 368.1 426.2 356.4C421 348 419.4 339.7 422.2 328.1C411.1 327.3 400.3 324.4 390.9 319.8C382 323.8 386.9 335.2 383.6 340.6C381.8 343.5 369.7 342.5 356.8 337.9C353 336.5 338.6 331 325.8 325C333 322.3 344.8 317.1 353.1 322.3C351.5 316.6 354.6 302.5 364 296.1C362.5 293.6 361.9 292.3 361.4 292C361.2 291.9 360.9 294.5 360.8 294.5C359 294.8 358.1 284.5 357.6 283.3C357.2 282.3 355.4 285.6 355.4 285.6C355.4 285.6 353.5 279.3 354.5 273.8C367.2 282.2 386 289 404 293C432.6 299.3 455.2 300.8 472 298.5Z" fill="#2D1F04"/>
<path d="M309.1 45.8C306 41.5 304.1 40 299.8 37.1C306.6 49.6 300.4 68.9 295.1 76.7C289.4 85 281.3 92 273.2 97.6C271.8 98.6 270 99.6 269 101C268.5 101.7 268.2 103.2 267.5 103.7C267.2 103.9 267.1 102.5 266.9 102.8C266 104.1 265.3 105.8 264.7 107.2C264.5 107.7 264.3 109.5 264.2 108.9C264.1 108.7 264.4 107.3 263.8 107.2C263.4 107.1 259.5 111.5 257.1 115.6C255.5 118.4 253.7 121.2 251.7 124.1C243.6 118.9 239.8 114.9 235.7 107.7C235.1 105.2 234.6 102.7 234 100.5C232 93.7 229.4 86 215.1 80.6C202 75.6 186.9 77.4 167.7 59.7C189.9 19.5 217.4 -1.5 262.8 2C268.8 2.5 275.6 3.3 280.3 5C278.6 5.6 277.3 6.8 277.3 6.8C284.2 10.2 293.8 11.4 298 10.2C298.7 13.4 296.2 16.1 293.5 16.8C297.5 17.2 306 21.9 309 27.2C305.7 25 303.3 24.3 301.3 24.9C306 28 308.5 30.8 309.9 36.9C307.3 34.9 304.2 33.5 301.9 33.3C306.3 37.4 308.7 40.5 309.1 45.8Z" fill="#2D1F04"/>
<path d="M217.4 261.8C206.8 255.8 195.4 248.8 189.7 243.7C184 238.7 175.8 230 175.9 226.6C176 216.4 175.5 208.6 169.6 203.9C166.2 201.2 155.5 196.5 148.3 192.3C145.3 190.6 142.5 188.7 139.7 186.7C137.6 189.2 134.1 190.4 128.8 190.7C139.7 199.7 141.9 206.6 142.7 211.8C140 211 133.8 208.1 126.4 204.5C111.7 197.2 92.9 186.9 91 184.2C87.5 179.3 94.4 174.2 97.7 172.9C108.4 168.7 114 163.2 116.4 157.7V157.6C112 144 115.6 127.3 121.6 118.2C125.3 126.9 134.9 142.1 159.7 160.6C183.3 178.1 202.6 180.4 213.9 180C211.3 188.6 211.6 196.2 213.1 203.5C215.5 214.8 216.5 224.5 210.1 236.3C216.6 242.8 217.8 254.8 217.4 261.8Z" fill="#2D1F04"/>
<path opacity="0.23" d="M441.1 327.4C437.6 329 434.8 330.3 425.4 331.2C423.2 331.4 422.1 335.5 420.9 337.5C421 334.6 421.4 331.5 422.3 328.2C421.3 328.1 420.3 328 419.3 327.9C423.2 328.3 434.5 328.7 441.1 327.4Z" fill="#2D1F04"/>
<path d="M443.5 386.2C434.4 393.5 426.8 400.8 420.9 409C418.4 394.5 421 384.2 424.4 375.1C435.1 374.1 440.2 380.2 443.5 386.2Z" fill="#2D1F04"/>
<path opacity="0.23" d="M472 298.5C469.3 318.3 462.4 330.8 461 347.7C460.1 358.6 460 364.3 457.1 370.1C453.9 376.6 449 381.8 443.4 386.2C435.3 392.6 427.2 399.9 420.8 408.9C420.5 407.3 420.3 405.8 420.1 404.3C427 389.8 439.2 381.2 444.1 375.1C449.8 368 451.5 357.6 449.4 344.6C447.3 331.5 450.7 321.3 452.1 314.1C453.5 306.9 450.8 304.9 427.1 301.4C401.1 297.6 382.8 291.6 366.1 284.5C361 282.3 356.7 280.6 354.6 282.6C354.2 280.3 353.9 277.1 354.4 274.2C367.2 282.2 386 289 404 293C432.6 299.3 455.2 300.8 472 298.5Z" fill="#2D1F04"/>
<path d="M522.6 314.7C520.6 323.5 518.7 330.2 517 336.8C515.2 343.6 514.2 346.5 511.8 340.6C508.1 331.4 507.2 318.4 507.2 313C507 299.2 505.4 275.6 497 261.1C499.8 256.9 503.7 252.9 506.6 250.2C515.6 241.7 521.9 241.8 524.3 241.3C524.4 241.3 524.5 241.2 524.6 241.2C531.7 264.7 527.7 291.9 522.6 314.7Z" fill="#2D1F04"/>
<path d="M149.3 85.1998C144.6 89.6998 139.6 93.5998 134.2 98.5998C131.3 101.3 128.6 103.9 125.6 107.2C124 81.6998 130.2 80.1998 144.5 72.2998C145.3 74.2998 148.1 78.1998 149.3 85.1998Z" fill="#2D1F04"/>
<path opacity="0.23" d="M170 55.7998C169.2 57.0998 168.5 58.3998 167.7 59.7998C167.1 59.1998 164.9 61.6998 163.7 64.0998C158.1 66.5998 148.5 72.6998 147.1 77.3998C139.6 79.3998 128.1 83.5998 132.6 99.9998C130.3 102.2 128.1 104.4 125.7 107.1C124.2 81.7998 130.5 80.0998 144.6 72.2998C144.4 71.7998 144.4 71.3998 144.6 71.1998C145.8 69.3998 147.7 68.4998 149.3 68.3998C154 65.3998 161.1 57.0998 170 55.7998Z" fill="#2D1F04"/>
<path d="M217.7 261.6C207.1 255.6 195.7 248.6 190 243.5C196.6 238.2 204.9 236.3 210.4 236C217 242.7 218.2 254.6 217.7 261.6Z" fill="#2D1F04"/>
<path d="M311.7 170.7C310.9 170.8 310 170.9 308.9 170.9C305 171 301.1 171.1 296.7 171.1C293.5 171.1 290.1 171.1 286.3 171.1C286.2 165.9 289.9 159.3 292.1 156.6C293.1 156.7 293.9 156.6 295.1 156.7C299.1 157.3 303.8 158.1 307.6 159.3C310.6 160.3 313 161.5 313.9 163.2C316.6 167.8 316.2 170 311.7 170.7Z" fill="#2D1F04"/>
<path opacity="0.23" d="M311.9 170.7C311.1 170.8 310.2 170.9 309.1 170.9C305.2 171 301.3 171.1 296.9 171.1C293.7 171.1 290.3 171.1 286.5 171.1C286.5 171.1 286.4 171.2 286.3 171.2C265.6 170.8 239.3 172.6 223.8 160.3C221.7 158.7 219.9 156.8 218.2 154.6C218.5 154.3 218.8 153.8 219.1 153.3C219.8 151.9 220.4 149.3 223.7 145.6C223.4 147.8 225.4 152.5 230 155.7C235.3 159.4 244.8 162.9 261.5 165.1C277.6 167.2 317.4 170.2 312.8 161.6C313.4 162.1 313.8 162.6 314.1 163.1C316.8 167.8 316.4 170 311.9 170.7Z" fill="#2D1F04"/>
<path d="M522.2 316.1C520.3 324.2 518.6 330.5 516.9 336.7C515.1 343.5 514.1 346.4 511.7 340.5C508.6 333 507.5 322.8 507.2 316.4C511 318.2 518.5 317.6 522.2 316.1Z" fill="#2D1F04"/>
<path opacity="0.23" d="M522.5 314.7C520.5 323.5 518.6 330.2 516.9 336.8C515.6 341.7 514.7 344.6 513.5 343.6C513.3 328.2 520 302 521.2 287.8C522.3 275.2 522 263.6 520.6 252.5C520.2 249.2 519 245.7 516.1 243.5C520.2 241.7 523.1 241.6 524.2 241.3C524.3 241.3 524.4 241.2 524.5 241.2C531.6 264.7 527.7 291.9 522.5 314.7Z" fill="#2D1F04"/>
<path opacity="0.23" d="M217.4 261.8C206.8 255.8 195.4 248.8 189.7 243.7C184 238.7 175.8 230 175.9 226.6C176 216.4 175.5 208.6 169.6 203.9C166.2 201.2 155.5 196.5 148.3 192.3C145.3 190.6 142.5 188.7 139.7 186.7C128.9 178.6 119.3 167.5 116.5 157.6V157.5C113 146.6 114.6 133.8 118.4 124.5C112.8 144.5 117.5 161.6 131.2 174.1C146.6 188.3 163.2 190.4 173.6 197C184 203.6 187.9 207.7 186.1 214.5C184.3 221.2 182.8 230.1 194.4 239.9C204.4 248.4 213.5 256.8 217.1 252.2C217.5 255.7 217.5 259.1 217.4 261.8Z" fill="#2D1F04"/>
<path d="M433.8 311.4L433.3 315.9" stroke="#2D1F04" stroke-width="4.1072" stroke-miterlimit="10" stroke-linecap="round" stroke-linejoin="round"/>
<path d="M428.3 312.4L427.8 316.9" stroke="#2D1F04" stroke-width="4.1072" stroke-miterlimit="10" stroke-linecap="round" stroke-linejoin="round"/>
<path d="M449.7 193.6L449.2 198.1" stroke="#2D1F04" stroke-width="4.1072" stroke-miterlimit="10" stroke-linecap="round" stroke-linejoin="round"/>
<path d="M444.3 194.6L443.8 199.1" stroke="#2D1F04" stroke-width="4.1072" stroke-miterlimit="10" stroke-linecap="round" stroke-linejoin="round"/>
<path d="M211 63.8999L209.4 68.0999" stroke="#2D1F04" stroke-width="4.1072" stroke-miterlimit="10" stroke-linecap="round" stroke-linejoin="round"/>
<path d="M206 64.5L204.4 68.7" stroke="#2D1F04" stroke-width="4.1072" stroke-miterlimit="10" stroke-linecap="round" stroke-linejoin="round"/>
<path d="M296.7 70.4001C299.6 64.4001 301.5 56.6001 298.6 53.3001C296.8 51.2001 294.1 50.8001 291.4 50.4001C289 50.1001 287.8 48.5001 288.4 47.1001C288.9 45.8001 290.1 45.5001 291.8 45.6001C289.2 44.5001 287.8 44.9001 285.5 44.4001C281.6 43.5001 279.8 42.5001 279.1 41.8001C277.3 39.6001 276.6 35.8001 275.2 33.5001C268.9 23.4001 260.9 19.7001 247.6 28.2001C244.6 30.1001 238.6 35.0001 234.9 42.7001C229.4 53.8001 228.8 61.5001 229.9 71.7001C231.6 87.4001 249.2 105.5 270.8 95.6001C280.8 90.9001 291.4 81.7001 296.7 70.4001Z" fill="#2D1F04"/>
<path d="M281.8 67.5004C284.5 70.0004 284.3 77.1004 276.5 82.3004C270.8 86.1004 265.7 86.9004 261 86.8004C253.3 86.6004 248.7 81.9004 248.8 74.9004C249 67.5004 253.5 61.8004 258.6 58.9004C264 55.8004 271.9 57.5004 275.6 61.5004L281.8 67.5004Z" fill="#2D1F04"/>
<path d="M296.7 70.4003C295.1 73.6003 292.9 78.0003 288.7 82.2003C271.9 68.5003 289.5 51.0003 291.5 50.3003C294.9 50.7003 297.1 51.1003 298.8 53.4003C300 55.1003 301.8 60.3003 296.7 70.4003Z" fill="#2D1F04"/>
<path d="M279 41.7002C262.9 61.0002 245.5 53.6002 234.6 43.2002C237.8 36.4002 242.8 31.2002 247.2 28.4002C251.5 25.7002 259.1 21.4002 266 24.5002C269.7 26.2002 273 29.8002 275.2 33.5002C276.9 36.3002 277.5 39.2002 279 41.7002Z" fill="#2D1F04"/>
<path d="M169.9 55.7998C161 56.9998 153.9 65.3998 149.3 68.1998C147.7 68.2998 145.8 69.1998 144.6 70.9998C143.8 72.2998 147.9 75.9998 149.3 85.0998" stroke="#2D1F04" stroke-width="2.7" stroke-miterlimit="10" stroke-linecap="round" stroke-linejoin="round"/>
<path d="M151 70.8998C150.5 70.0998 149.9 69.1998 149.3 68.2998" stroke="#2D1F04" stroke-width="2.7" stroke-miterlimit="10" stroke-linecap="round" stroke-linejoin="round"/>
<path opacity="0.23" d="M357.1 242.5C360.4 239.7 363.4 237.5 365 236.9C368.6 235.4 372.7 236.1 376.3 236.8C385.6 238.4 391.7 248.6 401.6 250.3C404.2 250.8 411.8 250.6 410.4 245.8C409.6 243.1 403.7 242.7 401.4 242.3C391.9 240.6 383.4 238 374.4 234.8C372.2 234 366.9 233.1 365.6 229.4C364.9 230.8 362.7 234.2 361.6 235.5C359.4 238.7 358.6 240.1 357.1 242.5Z" fill="#2D1F04"/>
<path d="M380.7 196.9C410 211.2 442.5 210.4 446.3 209.3" stroke="#2D1F04" stroke-width="2.7" stroke-miterlimit="10" stroke-linecap="round" stroke-linejoin="round"/>
<path d="M380.7 197C381.4 195 378.3 198.2 377.6 199.1C376.7 200.5 377.9 202.1 377.7 202.8C377.5 203.7 375.8 205.6 375.1 206.5C370.4 212.7 362.6 221.9 365.3 230.7C362.9 233.6 359.8 237.9 357.8 241.1C353 248.8 347.1 259.6 347.9 269.3C359.7 279.4 382.3 288.2 403.7 293C436.1 300.2 460.8 301.2 478 297.5C481.1 290 485.4 266.4 484.3 252.2" stroke="#2D1F04" stroke-width="2.7" stroke-miterlimit="10" stroke-linecap="round" stroke-linejoin="round"/>
<path d="M385.2 199.3C384.5 200.5 383.9 201.4 383.7 202.8" stroke="#2D1F04" stroke-width="2.7" stroke-miterlimit="10" stroke-linecap="round" stroke-linejoin="round"/>
<path d="M392.8 202.3C392 203.4 391.6 204.9 391.4 206.2" stroke="#2D1F04" stroke-width="2.7" stroke-miterlimit="10" stroke-linecap="round" stroke-linejoin="round"/>
<path d="M402 205.2L401 208.2" stroke="#2D1F04" stroke-width="2.7" stroke-miterlimit="10" stroke-linecap="round" stroke-linejoin="round"/>
<path d="M408.5 207.2L408.4 207.7V208.1L408.3 208.6L408.2 209V209.3L408.1 209.7" stroke="#2D1F04" stroke-width="2.7" stroke-miterlimit="10" stroke-linecap="round" stroke-linejoin="round"/>
<path d="M404.8 206.7V207.1L404.7 207.4L404.6 207.8V208.1L404.5 208.5" stroke="#2D1F04" stroke-width="2.7" stroke-miterlimit="10" stroke-linecap="round" stroke-linejoin="round"/>
<path d="M431 210.3V210.6L430.9 211L430.8 211.7L430.7 212" stroke="#2D1F04" stroke-width="2.7" stroke-miterlimit="10" stroke-linecap="round" stroke-linejoin="round"/>
<path d="M433.7 210.7L433.6 211.3L433.5 211.8L433.4 212.1" stroke="#2D1F04" stroke-width="2.7" stroke-miterlimit="10" stroke-linecap="round" stroke-linejoin="round"/>
<path d="M379.7 227C385.1 228.1 389.6 229 393.9 230C397.4 230.8 397.7 233.5 396.5 235.8C394.9 238.9 391.8 240.7 387.8 241.1C387.6 241.1 387.4 241.1 387 241.1C389.4 243.8 387.5 247.8 389 252.1C386.3 251.4 383.8 250.8 381.2 250.2C380.4 247.5 380.2 245 380.4 242.6C380.5 241.3 380.3 240.3 378.1 240.2C376.1 242.7 374.3 245.4 373.9 248.6C371.4 248.1 369.2 247.6 366.7 247.2C368.6 239 376.1 234.3 379.7 227ZM384.6 232.6C383.7 233.9 382.7 235.1 381.4 236.5C383 236.7 384.4 237 385.9 237.1C387.2 237.2 388.5 236.6 389.2 235.7C390 234.7 389.9 233.8 388.7 233.4C387.5 233.1 386.1 232.9 384.6 232.6Z" fill="#2D1F04"/>
<path d="M416.4 240.5C413.9 240.2 411.8 239.9 409.6 239.7C410.3 237.8 409.6 236.7 407.9 236.3C406.8 236.1 405.7 236.2 404.6 237.4C404.1 238.4 404.6 238.9 405.3 239.3C406.6 240 408 240.7 409.4 241.4C410.2 241.8 410.9 242.3 411.6 242.8C415.9 246.2 412.1 252.4 407 254.5C405.3 255.2 403.4 255.5 401.8 255.5C399.1 255.4 396.6 254.7 394.3 253.4C391.3 251.7 390 248.3 392 244.9C394.1 245.2 396.2 245.6 398.4 246C398.3 246.4 398.2 246.9 398.1 247.3C397.8 249.5 399.7 251.1 402.2 250.7C403.3 250.5 404.3 250 404.9 249C405.4 248.1 405.2 247.3 404.5 246.7C403.9 246.2 403.2 245.9 402.6 245.5C401.3 244.7 399.9 244 398.8 243.1C396.7 241.4 396.8 239.2 398.4 236.9C400.2 234.4 402.7 232.5 405.8 232.2C408.7 231.9 411.5 232.4 414.2 233.8C416.7 235.1 417.7 237.3 416.4 240.5Z" fill="#2D1F04"/>
<path d="M380.7 196.9C385.6 190.8 387.9 184 387.6 183.8C387.1 183.4 386.3 184.6 386.1 184.7C385.6 185 386.7 183.7 387 183.1C387.7 181.7 388.4 180 388.7 178.4C388.8 178.1 387.7 178.9 387.6 178.6C387.5 177.8 388.4 176.6 388.6 175.7C388.9 174 388.4 172 388.2 170.3C386.8 160.5 386.3 149.8 388.5 140C389.9 133.5 393.9 121.6 405.1 114.3C406.7 113.2 401.5 111.8 402.6 108.4C405.9 111.5 411.8 110.1 414.2 109.5C409.2 108.4 402.4 105.4 404.7 98.8C406.7 102.8 410.2 105.2 415.6 105.4C413.8 103.9 408.7 98.2 412.9 93.4C413 98.4 416.5 100.6 422 100.2C419.8 98.3 419.2 94.1 423.8 92C422.3 95.8 429.3 99.4 433.2 100.4C461 107.3 481.7 120.3 491 150.7C495.9 166.9 496.7 183.9 493.5 201.4" stroke="#2D1F04" stroke-width="2.7" stroke-miterlimit="10" stroke-linecap="round" stroke-linejoin="round"/>
<path d="M354.6 274.2C353.5 279.7 355.5 286 355.5 286C355.5 286 357.3 282.7 357.7 283.7C358.2 284.9 359.1 295.2 360.9 294.9C361 294.9 361.3 292.3 361.5 292.4C362.1 292.8 362.9 294.9 365.8 299.2C379.2 319.7 411.9 332.5 441.7 327.4" stroke="#2D1F04" stroke-width="2.7" stroke-miterlimit="10" stroke-linecap="round" stroke-linejoin="round"/>
<path d="M426.2 356.5C421 348.1 419.4 339.8 422.2 328.2" stroke="#2D1F04" stroke-width="2.7" stroke-miterlimit="10" stroke-linecap="round" stroke-linejoin="round"/>
<path d="M312 170.9C312.5 171.7 313 172.4 313.6 173.1C323.1 184 334 188.6 353.4 185.5" stroke="#2D1F04" stroke-width="2.7" stroke-miterlimit="10" stroke-linecap="round" stroke-linejoin="round"/>
<path d="M356.9 221.8C315.6 218.4 308.5 205.1 298.8 176.6C298.3 175.3 297.7 173.6 297 171.4" stroke="#2D1F04" stroke-width="2.7" stroke-miterlimit="10" stroke-linecap="round" stroke-linejoin="round"/>
<path d="M365.3 223.5C364.7 223.6 364.1 223.6 363.6 223.7C361.2 224 358.3 224.3 357.5 223C353 214 353 185.3 354.1 184.2C355.7 182.7 359.9 181.6 361.4 181.9C366.6 180.2 379.8 178.2 387.4 181.3" stroke="#2D1F04" stroke-width="2.7" stroke-miterlimit="10" stroke-linecap="round" stroke-linejoin="round"/>
<path d="M362.3 217.2C358.5 199.5 361.7 182.9 361.3 181.9" stroke="#2D1F04" stroke-width="2.7" stroke-miterlimit="10" stroke-linecap="round" stroke-linejoin="round"/>
<path d="M313.6 173.1C309 176.8 303.1 177.9 298.8 176.6" stroke="#2D1F04" stroke-width="2.7" stroke-miterlimit="10" stroke-linecap="round" stroke-linejoin="round"/>
<path d="M377.7 202.8C382.6 208 405.6 217.3 437.3 217.8" stroke="#2D1F04" stroke-width="2.7" stroke-miterlimit="10" stroke-linecap="round" stroke-linejoin="round"/>
<path d="M167.6 59.8C190 19.5 217.5 -1.50004 262.8 1.99996C268.8 2.49996 275.6 3.29996 280.3 4.99996C278.6 5.59996 277.3 6.79996 277.3 6.79996C284.2 10.2 293.8 11.4 298 10.2C298.7 13.4 296.2 16.1 293.5 16.8C297.5 17.2 306 21.9 309 27.2C305.7 25 303.3 24.3 301.3 24.9C306 28 308.5 30.8 309.9 36.9C307.3 34.9 304.2 33.5 301.9 33.3C306.3 37.4 308.7 40.5 309.1 45.8C306 41.5 304.1 40 299.8 37.1C306.6 49.6 300.4 68.9 295.1 76.7C289.4 85 281.3 92 273.1 97.6C271.7 98.6 269.9 99.6 268.9 101C268.4 101.7 268.1 103.2 267.5 103.7C267.2 103.9 267.1 102.5 266.9 102.8C266 104.1 265.3 105.8 264.7 107.2C264.5 107.7 264.3 109.5 264.1 108.9C264 108.7 264.3 107.3 263.7 107.2C263.3 107.1 259.4 111.5 257 115.6C253.8 121.1 249.9 126.6 245.4 132.5" stroke="#2D1F04" stroke-width="2.7" stroke-miterlimit="10" stroke-linecap="round" stroke-linejoin="round"/>
<path d="M163.2 67.8999C154.2 82.8999 145.1 88.3999 134.3 98.4999C129.7 102.8 125.5 106.9 120.2 113.8C122.3 121 130.3 138.5 159.8 160.4C185.7 179.7 206.5 180.5 217 179.7C218.8 173.9 218.8 167.8 223.8 160.4" stroke="#2D1F04" stroke-width="2.7" stroke-miterlimit="10" stroke-linecap="round" stroke-linejoin="round"/>
<path d="M125.7 107.1C124.3 82.2 129.7 80.5 144.3 72.5" stroke="#2D1F04" stroke-width="2.7" stroke-miterlimit="10" stroke-linecap="round" stroke-linejoin="round"/>
<path d="M395 128C398.3 122.2 403.6 116.2 408 116.6C410.7 116.9 412.6 118.8 414.5 120.8C416.1 122.6 418.1 122.7 418.9 121.4C419.7 120.2 419.3 119.1 418.2 117.8C420.6 119.3 421 120.7 422.8 122.3C425.8 125 427.6 125.9 428.6 126C431.4 126.3 434.9 124.6 437.6 124.5C449.5 123.9 457.1 128.3 457.7 144.1C457.8 147.6 457.2 155.4 453.1 162.8C447.1 173.6 441.1 178.6 432.2 183.5C418.3 191.1 393.5 187 389.2 163.6C387.2 152.7 388.8 138.8 395 128Z" fill="#2D1F04"/>
<path d="M405.9 138.5C402.3 137.7 396.6 141.9 396.8 151.3C396.9 158.1 399.2 162.8 402 166.6C406.6 172.8 413.1 173.9 418.7 169.8C424.7 165.4 426.7 158.4 426.2 152.6C425.7 146.3 420.7 141.1 415.3 140.3L405.9 138.5Z" fill="#2D1F04"/>
<path d="M395 128C393.3 131.1 390.7 136 389.3 144C405.2 144.2 415 122.9 414.4 120.8C412.1 118.3 410.5 116.7 407.7 116.6C405.6 116.5 400.3 118 395 128Z" fill="#2D1F04"/>
<path d="M428.7 126.1C422 150.3 438.1 160.4 452.8 163.4C456.6 156.9 457.9 149.8 457.7 144.6C457.5 139.6 456.6 130.8 450.2 127C444.1 123.4 433.2 124.4 428.7 126.1Z" fill="#2D1F04"/>
<path d="M402.3 138.7C402.6 136.7 405.9 135.4 409.6 135.9C413.3 136.4 416 138.5 415.7 140.5C415.4 142.5 412.1 143.8 408.4 143.3C404.7 142.8 402 140.7 402.3 138.7Z" fill="#2D1F04"/>
<path d="M278.5 68.5999C274.8 72.7999 270.7 75.6999 266.1 77.0999C260.2 74.9999 257.4 70.1999 259.3 64.3999" stroke="#2D1F04" stroke-width="2.7" stroke-miterlimit="10" stroke-linecap="round" stroke-linejoin="round"/>
<path d="M266.1 77.1001C266.2 77.9001 266.5 79.0001 267.6 79.8001" stroke="#2D1F04" stroke-width="2.7" stroke-miterlimit="10" stroke-linecap="round" stroke-linejoin="round"/>
<path d="M407.5 141.6C405.5 145.5 404.3 152.3 404.7 156.2C407.2 157.4 410.3 157.2 412.1 156.2" stroke="#2D1F04" stroke-width="2.7" stroke-miterlimit="10" stroke-linecap="round" stroke-linejoin="round"/>
<path d="M404.4 123.7C407.4 125.7 408 130.3 405.6 133.9L405.3 134.3C402.9 137.9 398.5 139.3 395.5 137.3C392.5 135.3 391.9 130.7 394.3 127.1L394.6 126.7C397 123 401.4 121.7 404.4 123.7Z" fill="#2D1F04"/>
<path d="M404.4 123.7C407.4 125.7 408 130.3 405.6 133.9L405.3 134.3C402.9 137.9 398.5 139.3 395.5 137.3C392.5 135.3 391.9 130.7 394.3 127.1L394.6 126.7C397 123 401.4 121.7 404.4 123.7Z" stroke="#2D1F04" stroke-width="2.7" stroke-miterlimit="10" stroke-linecap="round" stroke-linejoin="round"/>
<path d="M398.1 131.2C398.984 131.2 399.7 130.484 399.7 129.6C399.7 128.716 398.984 128 398.1 128C397.216 128 396.5 128.716 396.5 129.6C396.5 130.484 397.216 131.2 398.1 131.2Z" fill="#2D1F04"/>
<path d="M440.5 133.7C445.2 134.3 448.5 138.5 447.9 143.2L447.8 143.7C447.2 148.4 442.9 151.6 438.2 151.1C433.5 150.5 430.2 146.3 430.8 141.6L430.9 141.1C431.5 136.4 435.8 133.1 440.5 133.7Z" fill="#2D1F04"/>
<path d="M440.5 133.7C445.2 134.3 448.5 138.5 447.9 143.2L447.8 143.7C447.2 148.4 442.9 151.6 438.2 151.1C433.5 150.5 430.2 146.3 430.8 141.6L430.9 141.1C431.5 136.4 435.8 133.1 440.5 133.7Z" stroke="#2D1F04" stroke-width="2.7" stroke-miterlimit="10" stroke-linecap="round" stroke-linejoin="round"/>
<path d="M436.3 142.7C437.239 142.7 438 141.939 438 141C438 140.061 437.239 139.3 436.3 139.3C435.361 139.3 434.6 140.061 434.6 141C434.6 141.939 435.361 142.7 436.3 142.7Z" fill="#2D1F04"/>
<path d="M415.7 121.9C412.2 117.5 407.5 112.2 391.4 122.7" stroke="#2D1F04" stroke-width="7.6" stroke-miterlimit="10" stroke-linecap="round" stroke-linejoin="round"/>
<path d="M427.1 125.6C440.2 123.5 451.9 123.8 463.8 147.1" stroke="#2D1F04" stroke-width="7.6" stroke-miterlimit="10" stroke-linecap="round" stroke-linejoin="round"/>
<path d="M295.1 73.9999C292.6 76.4999 290.4 74.8999 287.5 72.7999C284.1 70.2999 282.2 65.7999 284.5 63.1999C287.1 60.1999 290.8 61.3999 294.6 65.1999C297.6 68.2999 297.9 71.1999 295.1 73.9999Z" fill="#2D1F04"/>
<path d="M295.4 73.5998C296.3 70.1998 294.6 68.1998 291.2 65.9998C288 63.8998 286.1 63.3998 283.8 64.0998C286.3 59.6998 290.5 61.5998 294.5 65.1998C297.5 67.7998 297.9 70.7998 295.4 73.5998Z" fill="#2D1F04"/>
<path d="M289.6 68.6999C290.9 67.1999 293.1 66.9999 294.7 68.1999C296.2 69.4999 296.4 71.6999 295.2 73.2999C293.9 74.7999 291.7 74.9999 290.1 73.7999C288.5 72.4999 288.3 70.2999 289.6 68.6999Z" fill="#2D1F04"/>
<path d="M295.1 74C292.5 76.3 290.3 74.9 287.5 72.8C284 70.3 282.2 65.8999 284.5 63.1999C287 60.0999 290.7 61.4999 294.6 65.1999C297.6 68.0999 298.4 71 295.1 74Z" stroke="#2D1F04" stroke-width="2.7" stroke-miterlimit="10" stroke-linecap="round" stroke-linejoin="round"/>
<path d="M291.3 69.7C292.184 69.7 292.9 68.9837 292.9 68.1C292.9 67.2163 292.184 66.5 291.3 66.5C290.416 66.5 289.7 67.2163 289.7 68.1C289.7 68.9837 290.416 69.7 291.3 69.7Z" fill="#2D1F04"/>
<path d="M290 71.2C290.331 71.2 290.6 70.9314 290.6 70.6C290.6 70.2686 290.331 70 290 70C289.669 70 289.4 70.2686 289.4 70.6C289.4 70.9314 289.669 71.2 290 71.2Z" fill="#2D1F04"/>
<path d="M265.8 48.8998C263 50.6998 260 47.2998 256.8 44.3998C252.7 40.6998 249.1 36.5998 253.4 32.8998C256.4 30.2998 260.7 32.5998 265.4 37.5998C270 42.5998 269.6 46.3998 265.8 48.8998Z" fill="#2D1F04"/>
<path d="M267 47.8998C267.6 44.0998 265.1 40.6998 261 37.3998C257.5 34.5998 254.7 33.4998 252.5 33.6998C252.7 33.3998 253 33.0998 253.3 32.8998C256.3 30.2998 260.6 32.5998 265.3 37.5998C269.5 41.9998 269.6 45.4998 267 47.8998Z" fill="#2D1F04"/>
<path d="M265.8 48.8998C263 50.6998 260 47.2998 256.8 44.3998C252.7 40.6998 249.1 36.5998 253.4 32.8998C256.4 30.2998 260.7 32.5998 265.4 37.5998C270 42.5998 269.6 46.3998 265.8 48.8998Z" stroke="#2D1F04" stroke-width="2.7" stroke-miterlimit="10" stroke-linecap="round" stroke-linejoin="round"/>
<path d="M260 40.5999C261.7 39.0999 264.4 39.2999 265.9 40.9999C267.4 42.6999 267.2 45.3999 265.5 46.8999C263.8 48.3999 261.1 48.1999 259.6 46.4999C258.1 44.7999 258.2 42.0999 260 40.5999Z" fill="#2D1F04"/>
<path d="M262.1 41.9999C263.094 41.9999 263.9 41.194 263.9 40.1999C263.9 39.2058 263.094 38.3999 262.1 38.3999C261.106 38.3999 260.3 39.2058 260.3 40.1999C260.3 41.194 261.106 41.9999 262.1 41.9999Z" fill="#2D1F04"/>
<path d="M260.2 43.4996C260.587 43.4996 260.9 43.1862 260.9 42.7996C260.9 42.413 260.587 42.0996 260.2 42.0996C259.813 42.0996 259.5 42.413 259.5 42.7996C259.5 43.1862 259.813 43.4996 260.2 43.4996Z" fill="#2D1F04"/>
<path d="M284.6 71.2002C286.1 69.8002 285.2 66.4002 282.7 63.6002C280.2 60.9002 276.9 59.8002 275.4 61.2002C273.9 62.6002 274.8 66.0002 277.3 68.8002C279.8 71.6002 283.1 72.7002 284.6 71.2002Z" fill="#2D1F04"/>
<path d="M279 41.7C273.4 27.2 263.9 20.1 243 23.5" stroke="#2D1F04" stroke-width="7.6" stroke-miterlimit="10" stroke-linecap="round" stroke-linejoin="round"/>
<path d="M290 50C298.1 50.8 302.4 55 302.5 68.3" stroke="#2D1F04" stroke-width="7.6" stroke-miterlimit="10" stroke-linecap="round" stroke-linejoin="round"/>
<path d="M235.7 107.9C239.8 115.1 243.6 119.1 251.7 124.3" stroke="#2D1F04" stroke-width="2.7" stroke-miterlimit="10" stroke-linecap="round" stroke-linejoin="round"/>
<path d="M292.1 156.9C289.9 159.6 286.4 165.9 286.5 171.2" stroke="#2D1F04" stroke-width="2.7" stroke-miterlimit="10" stroke-linecap="round" stroke-linejoin="round"/>
<path d="M244.9 131.5C249 127.8 247 126.5 243.5 123.8C242.5 121.4 240.2 118.7 238.8 116.4C236.1 111.9 235.4 105.4 234 100.6C232 93.8002 229.4 86.1002 215.1 80.7002C202 75.7002 186.9 77.5002 167.7 59.8002C166.7 58.9002 161.7 65.9002 163.3 67.8002C166.5 71.7002 175.7 77.0002 190.3 78.4002" stroke="#2D1F04" stroke-width="2.7" stroke-miterlimit="10" stroke-linecap="round" stroke-linejoin="round"/>
<path d="M187.9 120.3C190 135.5 200.2 146 209.6 153.3C213 155.9 217.2 157.4 219.2 153.3C220.3 151.1 221.2 145.9 232.2 138.6" stroke="#2D1F04" stroke-width="2.7" stroke-miterlimit="10" stroke-linecap="round" stroke-linejoin="round"/>
<path d="M242.9 124.3C232.8 125.4 220 131.6 213.5 142.3" stroke="#2D1F04" stroke-width="2.7" stroke-miterlimit="10" stroke-linecap="round" stroke-linejoin="round"/>
<path d="M236.1 126.3C236.8 127.4 237.1 128.3 237.5 129.6" stroke="#2D1F04" stroke-width="2.7" stroke-miterlimit="10" stroke-linecap="round" stroke-linejoin="round"/>
<path d="M229.3 129.3L230.7 132.1" stroke="#2D1F04" stroke-width="2.7" stroke-miterlimit="10" stroke-linecap="round" stroke-linejoin="round"/>
<path d="M223.3 132.8L225.2 135.2" stroke="#2D1F04" stroke-width="2.7" stroke-miterlimit="10" stroke-linecap="round" stroke-linejoin="round"/>
<path d="M244.9 131.5C255 149.8 275 152.2 288.4 155.8C293.6 157.2 311.2 158.1 314.2 163.3C317.3 168.8 316.2 170.9 309.2 171C302.4 171.1 295.4 171.3 286.4 171.2C262.9 170.8 232.2 173.1 218.3 154.6" stroke="#2D1F04" stroke-width="2.7" stroke-miterlimit="10" stroke-linecap="round" stroke-linejoin="round"/>
<path d="M184.3 125.2C187.1 127.7 188.8 129 191.8 132.8" stroke="#2D1F04" stroke-width="2.7" stroke-miterlimit="10" stroke-linecap="round" stroke-linejoin="round"/>
<path d="M507.2 316.5C511 318.5 518.5 317.6 522.2 316.1" stroke="#2D1F04" stroke-width="2.7" stroke-miterlimit="10" stroke-linecap="round" stroke-linejoin="round"/>
<path d="M482.4 250.2C482.9 250.6 483.3 251 483.7 251.4C485.6 253.3 487.7 256.2 489.7 257.7C491.5 261.8 492.3 264.1 496.8 260.9" stroke="#2D1F04" stroke-width="2.7" stroke-miterlimit="10" stroke-linecap="round" stroke-linejoin="round"/>
<path d="M464.8 232.5C461.7 223.4 465.5 205.1 485 201.7C490.2 200.8 494.4 200.8 499.6 202.9C513.9 208.5 521.6 221 526.4 231.9C528.1 235.8 528.6 240.2 524.1 241.2C521.6 241.8 516.5 241.4 506.7 250.3" stroke="#2D1F04" stroke-width="2.7" stroke-miterlimit="10" stroke-linecap="round" stroke-linejoin="round"/>
<path d="M490.3 257.2C493.8 247.7 502.9 236.7 514.8 233" stroke="#2D1F04" stroke-width="2.7" stroke-miterlimit="10" stroke-linecap="round" stroke-linejoin="round"/>
<path d="M493.9 251.2C494.8 252.1 495.6 252.6 496.8 253.3" stroke="#2D1F04" stroke-width="2.7" stroke-miterlimit="10" stroke-linecap="round" stroke-linejoin="round"/>
<path d="M498.4 245.3L500.8 247.2" stroke="#2D1F04" stroke-width="2.7" stroke-miterlimit="10" stroke-linecap="round" stroke-linejoin="round"/>
<path d="M503.3 240.2L505.1 242.7" stroke="#2D1F04" stroke-width="2.7" stroke-miterlimit="10" stroke-linecap="round" stroke-linejoin="round"/>
<path d="M496.9 260.9C505.4 275.4 506.8 298.9 507.1 312.8C507.2 318.2 508 331.3 511.7 340.4C514.1 346.3 515 343.4 516.9 336.6C518.7 330 520.5 323.3 522.5 314.5C527.7 291.6 531.8 266 524.5 242.4" stroke="#2D1F04" stroke-width="2.7" stroke-miterlimit="10" stroke-linecap="round" stroke-linejoin="round"/>
<path d="M514.7 317.8C513.6 324.7 512.7 334.1 514.2 343.6" stroke="#2D1F04" stroke-width="2.7" stroke-miterlimit="10" stroke-linecap="round" stroke-linejoin="round"/>
<path d="M289.1 161.6C297.2 160.9 306.8 162 315.2 165.2" stroke="#2D1F04" stroke-width="2.7" stroke-miterlimit="10" stroke-linecap="round" stroke-linejoin="round"/>
<path d="M295.5 152.9C294 154.1 294.2 156 296.5 160.1C300.1 166.5 306.2 169.8 307.6 168.7C309 167.6 309.9 161.5 309.6 159.1C309.3 156.7 306.2 155.2 303.5 154.2C300.8 153.1 296.8 151.9 295.5 152.9Z" fill="#2D1F04"/>
<path opacity="0.23" d="M308.5 167.2C308.2 167.9 307.9 168.4 307.6 168.7C306.1 169.8 300.1 166.5 296.5 160.1C294.2 156 294 154.1 295.5 152.9C296.8 151.8 300.8 153.1 303.5 154.1C300.9 155.5 299.1 156.5 300.5 160.6C301.2 162.7 303.6 165.2 308.5 167.2Z" fill="#2D1F04"/>
<path d="M295.4 152.9C293.9 154.1 294 155.9 296.4 160.1C299.9 166.3 306.1 169.8 307.5 168.7C308.9 167.6 309.8 161.5 309.5 159.1C309.2 156.7 306.1 155.2 303.4 154.2C300.7 153.1 296.4 152.1 295.4 152.9Z" stroke="#2D1F04" stroke-width="2.7" stroke-miterlimit="10" stroke-linecap="round" stroke-linejoin="round"/>
<path d="M301.6 153.5C301.7 156.9 303.7 162.8 307.1 168.8" stroke="#2D1F04" stroke-width="2.7" stroke-miterlimit="10" stroke-linecap="round" stroke-linejoin="round"/>
<path d="M142.8 211.3C140.1 210.5 133.9 207.6 126.5 204C127.6 201.6 128.4 199 128.8 196.7C129.2 194.2 129.2 191.9 128.9 190.2C139.7 199.3 142 206.1 142.8 211.3Z" fill="#2D1F04"/>
<path d="M356.5 337.5C352.7 336.1 338.3 330.6 325.5 324.6C332.7 321.9 344.5 316.7 352.8 321.9C355.5 326.7 356.9 331.8 356.5 337.5Z" fill="#2D1F04"/>
<path d="M426.2 356.5C431.8 368.2 416.3 378.7 420.8 409C426.9 400.4 435.8 392.4 443.4 386.2C449.1 381.6 453.8 376.8 457 370.2C459.9 364.4 460 358.7 460.9 347.8C462.3 330.8 469.2 318.5 471.9 298.6" stroke="#2D1F04" stroke-width="2.7" stroke-miterlimit="10" stroke-linecap="round" stroke-linejoin="round"/>
<path d="M424.4 375.1C431.1 374.7 438 375.7 443.5 386.2" stroke="#2D1F04" stroke-width="2.7" stroke-miterlimit="10" stroke-linecap="round" stroke-linejoin="round"/>
<path d="M433.9 376.4C429.5 381.9 422.7 396.1 420.8 408.9" stroke="#2D1F04" stroke-width="2.7" stroke-miterlimit="10" stroke-linecap="round" stroke-linejoin="round"/>
<path d="M210.2 236.1C204.7 236.3 196.4 238.3 189.8 243.6" stroke="#2D1F04" stroke-width="2.7" stroke-miterlimit="10" stroke-linecap="round" stroke-linejoin="round"/>
<path d="M217.5 261.6C213.5 253.8 209.4 242.2 201.2 237.6" stroke="#2D1F04" stroke-width="2.7" stroke-miterlimit="10" stroke-linecap="round" stroke-linejoin="round"/>
<path d="M213.9 179.8C211.2 188.5 211.5 195.9 213.1 203.3C215.5 214.6 216.5 224.3 210.1 236.1C216.6 242.7 218.2 254.8 217.7 261.8" stroke="#2D1F04" stroke-width="2.7" stroke-miterlimit="10" stroke-linecap="round" stroke-linejoin="round"/>
<path d="M217.5 261.6C206.9 255.6 195.5 248.6 189.8 243.5C184.1 238.5 175.9 229.8 175.9 226.4C176 216.2 175.5 208.4 169.6 203.7C166.2 201 155.5 196.3 148.3 192.1C133.6 183.5 121 171.4 116.5 157.3C112 143.4 115.4 126.8 121.6 117.8" stroke="#2D1F04" stroke-width="2.7" stroke-miterlimit="10" stroke-linecap="round" stroke-linejoin="round"/>
<path opacity="0.23" d="M493.5 201.3C490.7 201 488.1 201.2 485 201.7C481.7 202.3 478.8 203.3 476.4 204.6C474.2 205.3 472 205.9 469.7 206.5C482.2 156.6 461.2 127.5 444.6 118.7C442.6 117.6 437.5 115.3 437.7 112.5C435.5 112.8 434.2 114.3 431.9 113.9C430.5 113.6 428.7 112.2 427.8 107.5C426.1 110.1 426.8 112.7 425.4 112.6C423.2 112.3 419.3 107.4 417.1 107.4C419.5 111.2 414.6 113.2 412.4 113.4C410.1 113.6 407.9 113.2 407.5 112.1C406.7 112.8 406.3 113.4 405.5 114C405.4 113 401.7 111.5 402.6 108.6C405.9 111.7 411.8 110.3 414.2 109.7C409.2 108.6 402.4 105.6 404.7 99.0002C406.7 103 410.2 105.4 415.6 105.6C413.8 104.1 408.6 98.4002 412.9 93.6002C413 98.6002 416.5 100.8 422 100.4C419.8 98.5002 419.2 94.3002 423.8 92.2002C422.3 96.0002 429.4 99.6002 433.2 100.6C461 107.5 481.7 120.5 491 150.9C495.9 166.7 496.6 183.7 493.5 201.3Z" fill="#2D1F04"/>
<path opacity="0.23" d="M390.8 320C390.7 320 390.6 320.1 390.5 320.1C390.4 320.2 390.2 320.2 390.1 320.3C390 320.4 389.9 320.4 389.7 320.5C389.6 320.6 389.5 320.6 389.4 320.7C382.4 325.2 386.7 335.6 383.5 340.8L383.4 340.9C381.2 343.5 369.3 342.5 356.8 338C352.9 336.6 338.7 331.1 326 325.2C326.3 325.2 326.6 325.2 326.9 325.2C326.7 325.1 326.6 325 326.4 325C330.4 323.5 335.6 321.3 340.8 320.6C345.1 320 349.4 320.4 353 322.6V322.5C351.6 317.4 353.9 305.6 361.1 298.6C361.1 298.6 361.1 298.6 361.2 298.5C362 297.7 362.9 297 363.9 296.3C364.4 297.1 364.9 298 365.6 299C371.2 307.7 380.1 314.9 390.8 320Z" fill="#2D1F04"/>
<path opacity="0.23" d="M139.7 186.8C139.5 187.1 139.3 187.3 139 187.5C138.9 187.6 138.8 187.6 138.8 187.7C138.1 188.4 137.2 188.9 136.2 189.3C136 189.4 135.9 189.4 135.7 189.5C134 190.1 131.9 190.4 129.3 190.6C129.2 190.5 129.1 190.4 129 190.4C129 190.5 129 190.6 129 190.7V190.8C128.9 190.8 128.9 190.8 128.8 190.8C128.9 190.9 128.9 190.9 129 191C129 191 129 191 129.1 191C139.4 199.6 141.8 206.3 142.7 211.4C139.9 210.5 133.8 207.7 126.8 204.2C126.8 204.3 126.7 204.3 126.7 204.4C112 197.1 93.2 186.8 91.3 184.1C89.2 181.2 90.8 178.2 93.1 176C93.3 175.9 93.4 175.7 93.6 175.6C95 174.4 96.6 173.4 97.8 173C101.9 171.4 105.3 169.6 108 167.6C108.4 167.3 108.7 167.1 109.1 166.8C111.8 164.7 113.8 162.6 115.2 160.3C115.4 160 115.6 159.7 115.7 159.4C115.9 159.1 116 158.8 116.1 158.5C116.2 158.2 116.4 158 116.5 157.7C116.5 157.6 116.6 157.5 116.6 157.5C120.2 168.7 128.9 178.7 139.8 186.7C139.8 186.7 139.8 186.8 139.7 186.8Z" fill="#2D1F04"/>
<path d="M139.7 186.5C137.6 189.2 134.4 190.2 128.9 190.5" stroke="#2D1F04" stroke-width="2.7" stroke-miterlimit="10" stroke-linecap="round" stroke-linejoin="round"/>
<path d="M126.6 204.3C127.7 201.9 128.5 199.3 128.9 197C129.3 194.5 129.3 192.2 129 190.5C139.9 199.5 142.1 206.4 142.9 211.6C140.2 210.8 133.9 207.9 126.6 204.3ZM126.6 204.3C111.9 197 93.1 186.7 91.2 184C87.7 179.1 94.6 174 97.9 172.7C108.8 168.4 114.3 163 116.6 157.4" stroke="#2D1F04" stroke-width="2.7" stroke-miterlimit="10" stroke-linecap="round" stroke-linejoin="round"/>
<path d="M128.8 197C133.9 201 138.6 206 141.9 211" stroke="#2D1F04" stroke-width="2.7" stroke-miterlimit="10" stroke-linecap="round" stroke-linejoin="round"/>
<path d="M129.2 190.5C125.2 190.8 120.2 189.9 116.2 188.1" stroke="#2D1F04" stroke-width="2.7" stroke-miterlimit="10" stroke-linecap="round" stroke-linejoin="round"/>
<path d="M325.8 325.3C338.6 331.2 353 336.8 356.8 338.2C369.6 342.8 381.8 343.8 383.6 340.9C387 335.4 381.9 324 390.9 320" stroke="#2D1F04" stroke-width="2.7" stroke-miterlimit="10" stroke-linecap="round" stroke-linejoin="round"/>
<path d="M363.9 296.5C354.5 302.9 351.6 316.8 353.2 322.6C344.9 317.3 332.8 322.4 325.6 325.1" stroke="#2D1F04" stroke-width="2.7" stroke-miterlimit="10" stroke-linecap="round" stroke-linejoin="round"/>
<path d="M353.2 322.6C355.9 327.4 357.2 332.5 356.9 338.1" stroke="#2D1F04" stroke-width="2.7" stroke-miterlimit="10" stroke-linecap="round" stroke-linejoin="round"/>
<path d="M325.8 325.2C333.1 325.1 346.9 321.6 355.6 328.3" stroke="#2D1F04" stroke-width="2.7" stroke-miterlimit="10" stroke-linecap="round" stroke-linejoin="round"/>
<path opacity="0.23" d="M309.1 45.8C306 41.5 304.1 40 299.8 37.1C302.7 42.4 303.2 49 302.5 55.4C301.3 51.6 300.4 48.4 300 44.7C298.6 44.9 295.6 43.5 294.5 41.6C292.9 38.8 293.5 35.7 295.4 33.8C292.7 32.1 290.7 33.4 289.6 32.1C288.8 31.2 291.7 29.6 294.8 30.8C290.8 27.9 285.2 27.9 284.3 27.1C283.2 26.2 283.8 23.9 288.1 23.8C282.3 20.3 276.8 21.9 274.7 20.8C273.2 20 273.7 18.9 275.7 18.6C272 17.3 268 18 266.9 17.7C248.8 12.4 227.4 18.4 213.5 29.9C200.1 41 190.8 55.4 183.4 71C178.4 68.5 173.2 65 167.5 59.8C189.9 19.5 217.4 -1.50004 262.8 1.99996C268.8 2.49996 275.6 3.29996 280.3 4.99996C278.6 5.59996 277.3 6.79996 277.3 6.79996C284.2 10.2 293.8 11.4 298 10.2C298.7 13.4 296.2 16.1 293.5 16.8C297.5 17.2 306 21.9 309 27.2C305.7 25 303.3 24.3 301.3 24.9C306 28 308.5 30.8 309.9 36.9C307.3 34.9 304.2 33.5 301.9 33.3C306.3 37.4 308.7 40.5 309.1 45.8Z" fill="#2D1F04"/>
<path opacity="0.23" d="M478.2 297.4C476.2 297.8 474.1 298.2 471.9 298.5C469.3 298.9 466.5 299.1 463.5 299.3C470.9 283.7 473.3 265.4 473.9 253.5C474.1 249.4 479.1 247.3 482.1 250.1L482.2 250.2C482.6 250.6 483.1 251 483.5 251.4C483.9 251.7 484.2 252.1 484.6 252.5C485.5 266.7 481.3 290 478.2 297.4Z" fill="#2D1F04"/>
<path opacity="0.23" d="M374.4 207.6C371.1 212 366.6 217.7 365.2 223.6C364.7 223.7 364.1 223.7 363.6 223.8C361.2 224.1 358.3 224.4 357.5 223.1C357.3 222.7 357.2 222.4 357 221.9C355.7 218.7 354.9 213.7 354.3 208.5C356.2 210.9 364.3 210.8 374.4 207.6Z" fill="#2D1F04"/>
<path opacity="0.23" d="M212.6 201.2C208.9 194.2 208.9 190.6 208 187.5C206.9 183.7 200 183.2 182.6 176.2C167.9 170.3 156.3 162.5 145.1 148.5C149.3 152.3 154.1 156.3 159.7 160.5C183.3 178 202.6 180.3 213.9 179.9C211.4 187.7 211.4 194.6 212.6 201.2Z" fill="#2D1F04"/>
<path opacity="0.23" d="M220.8 149.7C219.9 151.3 219.6 152.5 219.2 153.3C218.9 153.8 218.6 154.3 218.3 154.6C216.1 156.9 212.5 155.5 209.6 153.2C203 148.1 196.1 141.5 191.8 132.7C190.1 129.2 188.7 125.3 188.1 121C194.5 140 217 154.5 220.8 149.7Z" fill="#2D1F04"/>
<path d="M138.4 154.9L136.9 159.2" stroke="#2D1F04" stroke-width="4.1072" stroke-miterlimit="10" stroke-linecap="round" stroke-linejoin="round"/>
<path d="M133.4 155.5L131.9 159.8" stroke="#2D1F04" stroke-width="4.1072" stroke-miterlimit="10" stroke-linecap="round" stroke-linejoin="round"/>
<path d="M160.1 76.6001C162.6 79.3001 165.1 81.3001 167.4 83.4001C169.3 85.1001 168.9 87.1001 167.9 88.6001C166.5 90.7001 164.6 91.5001 162.3 90.9001C162.2 90.9001 162.1 90.8001 161.8 90.7001C162.9 93.5001 161.2 96.3001 160.7 99.2001C159.2 98.0001 157.9 97.0001 156.6 95.8001C157 94.1001 157.5 92.2001 158 90.3001C158.2 89.3001 158.2 88.3001 157.1 87.6001C155.7 89.2001 154.3 90.8001 152.9 92.1001C151.7 90.8001 150.5 89.5001 149.4 88.1001C152.9 85.6001 156.4 81.0001 160.1 76.6001ZM161.4 82.6001C160.7 83.5001 160 84.3001 159.2 85.3001C160 85.9001 160.8 86.6001 161.6 87.1001C162.3 87.5001 163.1 87.3001 163.6 86.7001C164.2 86.0001 164.2 85.2001 163.6 84.6001C163 83.8001 162.2 83.3001 161.4 82.6001Z" fill="#2D1F04"/>
<path d="M178.4 99.4001C177.2 98.2001 176.1 97.1001 174.9 96.0001C175.6 94.9001 175.5 93.8001 174.6 92.8001C174 92.2001 173.3 91.8001 172.5 92.4001C172 93.0001 172.2 93.6001 172.6 94.1001C173.2 95.1001 173.9 96.1001 174.5 97.2001C174.8 97.8001 175.1 98.4001 175.4 99.1001C177 103.2 173.8 106.6 170.5 106.3C169.4 106.2 168.3 105.7 167.3 105C165.8 104 164.5 102.8 163.5 101.4C162.2 99.5001 162.4 97.2001 164.1 95.0001C165.2 95.8001 166.4 96.5001 167.6 97.4001C167.5 97.7001 167.3 98.0001 167.2 98.3001C166.6 99.9001 167.3 101.5 168.8 102C169.5 102.2 170.1 102.2 170.6 101.6C171.1 101.1 171.1 100.4 170.8 99.7001C170.6 99.2001 170.3 98.7001 170 98.2001C169.4 97.2001 168.7 96.2001 168.2 95.2001C167.2 93.2001 167.5 91.4001 168.7 89.9001C170.1 88.3001 172.2 87.9001 174.2 89.0001C176.1 90.1001 177.7 91.8001 178.8 94.0001C180 96.3001 179.8 97.8001 178.4 99.4001Z" fill="#2D1F04"/>
<path d="M357.7 185.8C358.8 185.5 360 185.2 361.1 185.3" stroke="#2D1F04" stroke-width="2.7" stroke-miterlimit="10" stroke-linecap="round" stroke-linejoin="round"/>
<path d="M357.7 194.1C358.4 193.9 359.5 193.7 360.6 193.9" stroke="#2D1F04" stroke-width="2.7" stroke-miterlimit="10" stroke-linecap="round" stroke-linejoin="round"/>
<path d="M357.7 197.2C358.5 197 359.6 196.8 360.6 197.2" stroke="#2D1F04" stroke-width="2.7" stroke-miterlimit="10" stroke-linecap="round" stroke-linejoin="round"/>
<path d="M141.636 290.636V289.545C141.758 277.97 142.97 268.758 145.273 261.909C147.576 255.061 150.848 249.515 155.091 245.273C159.333 241.03 164.424 237.121 170.364 233.545C173.939 231.364 177.152 228.788 180 225.818C182.848 222.788 185.091 219.303 186.727 215.364C188.424 211.424 189.273 207.061 189.273 202.273C189.273 196.333 187.879 191.182 185.091 186.818C182.303 182.455 178.576 179.091 173.909 176.727C169.242 174.364 164.061 173.182 158.364 173.182C153.394 173.182 148.606 174.212 144 176.273C139.394 178.333 135.545 181.576 132.455 186C129.364 190.424 127.576 196.212 127.091 203.364H104.182C104.667 193.061 107.333 184.242 112.182 176.909C117.091 169.576 123.545 163.97 131.545 160.091C139.606 156.212 148.545 154.273 158.364 154.273C169.03 154.273 178.303 156.394 186.182 160.636C194.121 164.879 200.242 170.697 204.545 178.091C208.909 185.485 211.091 193.909 211.091 203.364C211.091 210.03 210.061 216.061 208 221.455C206 226.848 203.091 231.667 199.273 235.909C195.515 240.152 190.97 243.909 185.636 247.182C180.303 250.515 176.03 254.03 172.818 257.727C169.606 261.364 167.273 265.697 165.818 270.727C164.364 275.758 163.576 282.03 163.455 289.545V290.636H141.636ZM153.273 344.455C148.788 344.455 144.939 342.848 141.727 339.636C138.515 336.424 136.909 332.576 136.909 328.091C136.909 323.606 138.515 319.758 141.727 316.545C144.939 313.333 148.788 311.727 153.273 311.727C157.758 311.727 161.606 313.333 164.818 316.545C168.03 319.758 169.636 323.606 169.636 328.091C169.636 331.061 168.879 333.788 167.364 336.273C165.909 338.758 163.939 340.758 161.455 342.273C159.03 343.727 156.303 344.455 153.273 344.455Z" fill="white"/>
</g>
<defs>
<clipPath id="clip0_228_2381">
<rect width="530" height="411" fill="white"/>
</clipPath>
</defs>
</svg>
