<svg width="585" height="367" viewBox="0 0 585 367" fill="none" xmlns="http://www.w3.org/2000/svg">
<g clip-path="url(#clip0_228_2755)">
<path d="M368.9 101.6C353.7 101 333.8 99.3003 317 99.8003C329.3 92.4003 341 88.6003 347.7 88.9003C352.5 89.1003 354.4 91.6003 368.9 101.6Z" fill="#2D1F04"/>
<path d="M500.9 147C498.7 153.3 500.3 162.3 506.6 171.6C516.7 186.3 520.8 198.2 507.2 207.2C505.2 208.5 481.6 207 433 193.2C418.4 190.9 408 198.2 404.8 206.3C409 207.6 413.1 208.8 416.9 209.8C430.7 213.4 441.6 225 438.3 237.4C437.8 239.4 436.1 244 432.5 243.4C427.4 242.6 422.2 241.6 416.8 240.3C409.3 240.4 404.1 243.7 400.6 248.8C420.5 253.2 443.8 255.8 470.6 254.8C456.3 265.6 439.6 278.9 419.7 278.9C410.1 278.9 393.3 272.4 375.2 263.1C375.2 263 375.2 262.9 375.2 262.8C375.2 262.3 375.2 261.9 375.1 261.5C375.1 261.2 375.1 260.8 375 260.5C375 260.2 375 259.8 374.9 259.5C374.6 256.1 374.1 252.9 373.4 250.1C372.5 246.7 371.5 243.6 370.3 240.7C370.2 240.4 370.1 240.2 370 239.9C367.4 233.8 364.2 228.6 361.1 222.7C360.9 222.2 360.6 221.8 360.4 221.3C359.3 219.3 358.3 217.1 357.3 214.8C357 214.2 356.8 213.5 356.5 212.9C356.2 212.2 356 211.6 355.7 210.9C355.4 210.2 355.2 209.5 354.9 208.8C354.7 208.1 354.4 207.4 354.2 206.6C354 205.8 353.8 204.9 353.7 203.9C353.7 203.7 353.7 203.4 353.6 203.1C353.6 203 353.6 202.8 353.6 202.6C353.6 202.5 353.6 202.3 353.6 202.1C353.6 202 353.6 201.8 353.6 201.7C353.6 201.5 353.6 201.4 353.6 201.2C353.6 200.9 353.6 200.6 353.6 200.2V199.9C353.6 199 353.7 198 353.7 197C353.8 196 353.8 195 353.9 193.9C354 192.8 354 191.8 354.1 190.7C354.2 189.6 354.2 188.5 354.3 187.3C354.3 186.9 354.3 186.5 354.4 186C354.4 185.6 354.4 185.2 354.4 184.8C354.4 184.2 354.5 183.6 354.5 183C354.5 182.3 354.5 181.6 354.5 181V180.6C354.5 180.1 354.5 179.6 354.5 179.2C354.5 178.7 354.5 178.2 354.4 177.7V177.6C354.4 177.5 354.4 177.3 354.4 177.2V177.1C354.4 176.3 354.3 175.6 354.3 174.9C354.3 174.5 354.2 174.1 354.2 173.7C354.2 173.6 354.2 173.5 354.2 173.4C354.1 172.7 354 172.1 353.9 171.4C353.7 170.3 353.5 169.2 353.2 168.2C354.2 167.9 355.2 167.6 356.2 167.3C365.5 164.5 374.3 161.8 381.8 159.9C398.9 155.7 403.6 149.3 413.5 139.4C415.5 137.4 418.5 133.8 422.1 129.5C402.5 121.8 387.9 113.5 377.9 107.2C374.9 105.3 372.3 103.5 370.1 102.1C369.8 101.9 369.5 101.7 369.2 101.4C354.7 91.4001 352.8 89.0001 348.1 88.7001C341.3 88.4001 329.7 92.2001 317.4 99.6001C303.7 107.8 289.2 120.2 279.5 135.8C271.5 148.7 264.6 150.3 264.2 146.2C264.1 145.7 264.2 145.2 264.4 144.5C268.4 128.6 281.9 106.6 297.8 88.4001C307 78.0001 316.9 68.9001 326.4 62.9001C330.6 60.3001 334.6 58.2001 338.5 56.9001C357.2 50.7001 356.3 76.0001 390.5 88.5001C393.2 89.5001 396.1 90.4001 399.3 91.2001C417 95.7001 433.4 97.4001 448.5 98.0001C514.9 100.3 556.9 79.3001 583.5 167.3C552.5 138.3 533.8 147.2 500.9 147Z" fill="#2D1F04"/>
<path d="M326.1 63.1003C316.6 69.1003 306.6 78.2003 297.5 88.6003C281.5 106.8 268.1 128.8 264.1 144.7C263.9 145.3 263.9 145.9 263.9 146.4C262.4 155.5 249.6 162.4 253 151C253.4 149.6 253.9 148.2 254.3 146.8C264 116.7 280.1 89.5003 291.9 75.1003C295.8 70.3003 299.3 66.9003 301.8 65.4003C308.7 61.2003 319.3 62.2003 326.1 63.1003Z" fill="#2D1F04"/>
<path opacity="0.32" d="M559.1 118.6C529.9 104.1 494.5 112.4 460.5 111.3C432.2 110.4 406 100.4 387.1 87.5C388.1 87.9 389.1 88.3 390.2 88.7C392.9 89.7 395.8 90.6 399 91.4C416.7 95.9 433.1 97.6 448.2 98.2C497.3 99.9 533 88.9 559.1 118.6Z" fill="#2D1F04"/>
<path opacity="0.5" d="M433.1 193.3H433C432.7 193.2 432.3 193.2 432 193.2C431.7 193.2 431.3 193.1 431 193.1C430.8 193.1 430.5 193 430.3 193C429.9 193 429.5 192.9 429.1 192.9C427.9 192.9 426.7 192.9 425.6 192.9C425.3 192.9 424.9 192.9 424.6 193C414.4 194 407.3 199.9 404.8 206.4C408.3 207.5 411.8 208.6 415 209.5C395.1 204.6 373.4 204.9 353.7 196.6V196.5C353.7 196.1 353.8 195.6 353.8 195.2C353.8 195.1 353.8 194.9 353.8 194.8C353.9 194.2 353.9 193.5 353.9 192.8C353.9 192.4 354 192 354 191.5C354 191.1 354.1 190.7 354.1 190.2C354.1 189.8 354.2 189.3 354.2 188.9C354.3 186.9 354.4 185 354.4 183C354.5 180.7 354.4 178.3 354.3 176C354.2 175.3 354.2 174.6 354.1 173.9C354.1 173.7 354.1 173.4 354 173.2C354 173 354 172.9 353.9 172.7C353.9 172.7 353.9 172.7 353.9 172.6C353.9 172.5 353.9 172.4 353.8 172.3V172.2C353.8 172 353.8 171.8 353.7 171.6C353.7 171.4 353.6 171.2 353.6 171C353.6 170.8 353.5 170.7 353.5 170.6V170.5C353.5 170.4 353.5 170.3 353.4 170.2C353.4 170 353.3 169.8 353.3 169.6C353.3 169.5 353.3 169.4 353.2 169.3C353.2 169.1 353.1 168.9 353.1 168.8C353.1 168.7 353.1 168.6 353 168.5C354 168.2 355 167.9 356 167.6C386.6 179.1 412.2 187.4 433.1 193.3Z" fill="#2D1F04"/>
<path opacity="0.5" d="M413.7 240.6C410.6 241 408 242.1 405.8 243.6C403.8 244.8 402.1 246.6 400.6 248.9C397.7 248.3 394.8 247.6 392.1 246.9C384.2 244.9 376.9 242.5 370.2 240.1C368.4 235.9 366.4 232.2 364.3 228.3C382.3 235 398.2 238.1 413.7 240.6Z" fill="#2D1F04"/>
<path opacity="0.5" d="M368.8 101.6C367.7 101.6 366.6 101.5 365.5 101.5C365.4 101.5 365.4 101.5 365.3 101.5C365.2 101.5 365.1 101.5 365 101.5C363.3 101.4 361.5 101.3 359.7 101.2C359.1 101.2 358.6 101.1 358 101.1C357.4 101.1 356.9 101 356.3 101C355.6 101 354.9 100.9 354.1 100.9C353.6 100.9 353.2 100.8 352.7 100.8C352.1 100.8 351.6 100.7 351 100.7C349.7 100.6 348.3 100.5 346.9 100.5C346.4 100.5 346 100.4 345.5 100.4H345.4C344.9 100.4 344.4 100.4 344 100.3C342.5 100.2 341.1 100.2 339.6 100.1C339.2 100.1 338.7 100.1 338.2 100C336.9 100 335.7 99.9003 334.4 99.9003C333.8 99.9003 333.1 99.9003 332.4 99.8003C332.1 99.8003 331.7 99.8003 331.4 99.8003C331.2 99.8003 330.9 99.8003 330.7 99.8003C330.2 99.8003 329.7 99.8003 329.2 99.8003H329C328.4 99.8003 327.8 99.8003 327.2 99.8003H327.1C326.6 99.8003 326.1 99.8003 325.6 99.8003C325.3 99.8003 325.1 99.8003 324.8 99.8003H324.1C322.9 99.8003 321.8 99.8003 320.7 99.8003C319.8 99.8003 318.8 99.8003 317.9 99.8003C317.7 99.8003 317.4 99.8003 317.2 99.8003C329.5 92.4003 341.1 88.6003 347.9 88.9003C348 88.9003 348.1 88.9003 348.2 88.9003H348.3C348.5 88.9003 348.6 88.9003 348.7 89.0003C348.8 89.0003 348.8 89.0003 348.8 89.0003C348.9 89.0003 349 89.0003 349.1 89.1003C349.3 89.1003 349.5 89.2003 349.7 89.2003C349.8 89.2003 349.9 89.3003 350 89.3003C350 89.3003 350 89.3003 350.1 89.3003H350.2C350.5 89.4003 350.8 89.5003 351.2 89.7003C351.4 89.8003 351.5 89.8003 351.7 89.9003C351.8 89.9003 351.8 90.0003 351.9 90.0003C351.9 90.0003 352 90.0003 352 90.1003C352.1 90.1003 352.1 90.2003 352.2 90.2003C352.4 90.3003 352.5 90.4003 352.7 90.5003C352.8 90.5003 352.8 90.6003 352.9 90.6003C353 90.7003 353.1 90.7003 353.3 90.8003C353.4 90.8003 353.4 90.9003 353.5 90.9003H353.6C353.8 91.0003 354 91.2003 354.3 91.3003C354.4 91.4003 354.5 91.4003 354.6 91.5003C355 91.7003 355.3 92.0003 355.7 92.3003L355.8 92.4003C356 92.5003 356.1 92.6003 356.3 92.7003C356.4 92.8003 356.5 92.8003 356.6 92.9003C356.8 93.0003 357 93.2003 357.2 93.3003C357.5 93.5003 357.8 93.7003 358.1 94.0003C360.2 95.5003 362.8 97.3003 366.2 99.7003C366.6 100 367 100.3 367.4 100.6C367.7 100.8 368.1 101.1 368.4 101.3C368.6 101.4 368.7 101.5 368.8 101.6Z" fill="#2D1F04"/>
<path opacity="0.38" d="M514.6 186.8C505.1 169.3 497.2 167.4 473.6 161.6C449.9 155.7 434.9 151.9 418.5 146.9C415 145.8 410.8 145.7 406.5 146.1C406.7 145.9 406.9 145.7 407.1 145.5C408.7 143.9 410.3 142.2 412.1 140.4C412.4 140.1 412.7 139.8 413 139.5C413.2 139.3 413.4 139 413.7 138.8C413.9 138.6 414.2 138.3 414.4 138C414.5 137.8 414.7 137.7 414.8 137.6C415.1 137.3 415.3 137 415.6 136.7C415.9 136.4 416.2 136 416.5 135.7C416.8 135.4 417.1 135 417.4 134.6C417.9 134 418.4 133.4 418.9 132.8C419.4 132.2 419.9 131.6 420.5 130.9C420.8 130.5 421.2 130.1 421.5 129.6C435 134.9 450.8 139.8 469.1 143.6C481.1 146.1 491.4 146.8 500.5 146.9C498.3 153.2 499.9 162.2 506.2 171.5C510.2 177.1 513.1 182.1 514.6 186.8Z" fill="#2D1F04"/>
<path opacity="0.23" d="M513 201.6C511.6 203.6 509.6 205.4 507 207.2C506.6 207.5 505.1 207.6 502.7 207.5C502.3 207.5 501.9 207.5 501.4 207.5C501.1 207.5 500.7 207.5 500.3 207.4C500.2 207.4 500.1 207.4 500 207.4C499.8 207.4 499.6 207.4 499.3 207.3C499.2 207.3 499.1 207.3 498.9 207.3C498.5 207.3 498.2 207.2 497.8 207.2C495.9 207 493.6 206.7 491.1 206.4C490.9 206.4 490.6 206.3 490.4 206.3C489.5 206.2 488.5 206 487.5 205.9C487.2 205.9 486.9 205.8 486.6 205.8C485.9 205.7 485.2 205.6 484.5 205.5C483.8 205.4 483.2 205.3 482.5 205.2C481.4 205 480.3 204.8 479.1 204.6C478 204.4 476.9 204.2 475.7 203.9C474.9 203.7 474 203.6 473.2 203.4C471.6 203.1 469.9 202.7 468.1 202.3C467.6 202.2 467.1 202.1 466.6 202C464.8 201.6 463 201.2 461.1 200.7H461C455.7 199.4 449.9 198 443.6 196.3C440.1 195.4 436.5 194.4 432.8 193.3C411.9 187.4 386.3 179.1 355.7 167.6C356 167.5 356.3 167.4 356.5 167.3C357.8 166.9 359.2 166.5 360.5 166.1C361.5 165.8 362.5 165.5 363.5 165.2C363.7 165.1 363.9 165.1 364.1 165C365.2 164.7 366.2 164.4 367.3 164C369.3 163.4 371.2 162.9 373 162.3C374.1 162 375.2 161.7 376.2 161.4C377.9 160.9 379.6 160.5 381.2 160.1C382.2 159.9 383.1 159.6 384 159.3C384.1 161.8 386.1 164.5 391 166.9C411 176.8 478.7 199.5 513 201.6Z" fill="#2D1F04"/>
<path opacity="0.23" d="M583.2 167.2C566.4 151.2 553.1 146.7 539.2 145.9C538.8 145.9 538.3 145.9 537.8 145.8C537.1 145.8 536.4 145.7 535.6 145.7C534.8 145.7 534 145.7 533.2 145.7C532.5 145.7 531.8 145.7 531.1 145.7C530.7 145.7 530.2 145.7 529.7 145.7C529.3 145.7 528.8 145.7 528.3 145.7C527.7 145.7 527.1 145.7 526.6 145.8C525.8 145.8 525 145.9 524.2 145.9C523 146 521.7 146 520.4 146.1C519.7 146.1 519.1 146.2 518.4 146.2C517.1 146.3 515.8 146.3 514.5 146.4C513.8 146.4 513.2 146.5 512.5 146.5C511.9 146.5 511.2 146.6 510.6 146.6C510.1 146.6 509.7 146.6 509.2 146.6C508.7 146.6 508.2 146.6 507.7 146.6C506.7 146.6 505.7 146.7 504.7 146.7C503.8 146.7 502.9 146.7 502.1 146.7H501C491.8 146.7 481.5 145.9 469.5 143.4C451.7 139.7 435.1 134.5 421.8 129.4C421.4 129.2 421 129.1 420.7 128.9C401.6 121.3 387.4 113.2 377.7 107C374.7 105.1 372.1 103.3 369.9 101.9C369.6 101.7 369.3 101.5 369.1 101.3C372.1 101.4 375 101.5 377.6 101.5C381.8 104.1 386.5 106.8 391.2 109.3C412.9 120.7 438.2 130.1 469.5 135.6C500.7 141.1 522.5 131.9 544.7 134.5C558.2 136 569.4 143.4 579 154.3C580.4 158.5 581.8 162.7 583.2 167.2Z" fill="#2D1F04"/>
<path opacity="0.31" d="M470.7 255C456.4 265.8 439.8 279.1 419.8 279.1C419.2 279.1 418.7 279.1 418.1 279C413.9 278.7 408.5 277.4 402.4 275.2C402.3 275.2 402.3 275.1 402.2 275.1C394.4 272.3 385.3 268.1 375.4 262.9C375.4 262.8 375.4 262.7 375.4 262.6C375.4 262.2 375.4 261.9 375.4 261.6C375.2 257.8 373.5 246.3 370.1 239.9C374.9 241.7 379.5 243 385.8 245C379.1 266 422.2 270.9 434.7 268.1C445.9 265.6 456.4 260.9 465.6 255.1C467.2 255.2 468.9 255.1 470.7 255Z" fill="#2D1F04"/>
<path opacity="0.23" d="M438.3 238C437.7 240 436.2 243.3 433.5 243.6C433.4 243.6 433.2 243.6 433 243.6C432.9 243.6 432.8 243.6 432.7 243.6C432 243.5 431.4 243.4 430.7 243.3C430.6 243.3 430.6 243.3 430.5 243.3C426.1 242.6 421.6 241.6 416.9 240.5C415.8 240.5 414.8 240.6 413.9 240.7C413.4 240.6 412.9 240.5 412.3 240.5C409.9 240.1 407.5 239.7 405 239.3C404.6 239.2 404.3 239.2 403.9 239.1C402.6 238.9 401.2 238.6 399.8 238.3C398.9 238.1 398.1 238 397.2 237.8C396.7 237.7 396.1 237.6 395.6 237.5C394.2 237.2 392.8 236.9 391.3 236.5C389.1 236 387 235.5 384.8 234.9C382.4 234.3 379.9 233.6 377.4 232.8C376.3 232.5 375.3 232.1 374.2 231.8C372.4 231.2 370.5 230.6 368.7 230C368 229.8 367.3 229.5 366.7 229.3C365.9 229 365.1 228.7 364.3 228.4C363.2 226.4 362.1 224.4 361 222.3C360.9 222 360.7 221.8 360.6 221.5C360.4 221.1 360.1 220.6 359.9 220.2C359.7 219.7 359.4 219.2 359.2 218.7C358.6 217.5 358.1 216.3 357.5 215.1C357.4 215 357.4 214.8 357.3 214.7C357.2 214.5 357.1 214.4 357.1 214.2C357 213.9 356.8 213.6 356.7 213.3C356.4 212.5 356.1 211.7 355.8 210.9C355.6 210.3 355.4 209.8 355.2 209.2C354.9 208.5 354.7 207.8 354.5 207C353.7 204.7 353.7 201 354 196.8C356.7 197.9 359.5 198.9 362.3 199.8C362.7 199.9 363 200 363.4 200.1C372.8 203 382.3 204.3 391.8 205.6C392 205.6 392.2 205.6 392.4 205.7C400.2 206.8 407.9 207.9 415.3 209.8C414.5 209.6 413.7 209.3 412.9 209.1C413.8 209.3 414.8 209.5 415.8 209.8C415.9 209.8 415.9 209.8 416 209.8C416.4 209.9 416.8 210 417.2 210.1C425.7 212.3 433.1 217.6 436.8 224.1C429.9 219.6 416.7 216.9 402.6 214.9C384.3 212.4 371.6 207.4 371.5 214.9C371.5 219.3 373.6 225.1 385.4 228.5C402.2 233.2 428.9 239.3 438.3 238Z" fill="#2D1F04"/>
<path d="M302 102.2C301.8 102.2 301.6 102.3 301.5 102.4C301.4 102.4 301.3 102.4 301.3 102.5C294.3 104.8 288.7 108.5 284.1 113.3C279.3 118.3 275.5 124.5 272.1 131.3C269.3 134 264.3 138.8 262.1 140.9C244.4 158 202 170.4 170.9 169.7C170.1 162.7 169.1 156.5 168.2 152.2C167.4 148.4 166.8 146 166.6 146C165.8 145.8 165.4 147.6 165.2 147.8C164.7 148.4 165.4 146.3 165.5 145.5C165.6 143.4 165.7 141 165.3 139C165.2 138.5 164.3 140.1 164.1 139.7C163.5 138.7 164.1 136.8 163.8 135.7C163.3 133.5 161.7 131.3 160.6 129.4C148.4 108.5 139.3 83 149 59.4C149.5 58.2 150.1 56.9 150.7 55.7C150.9 55.4 151 55.1 151.2 54.8C153.6 50.3 156.4 46.6 160 43.5C160 43.5 160 43.5 160.1 43.5C160.3 43.4 160.4 43.2 160.6 43.1C158.3 44.4 152.3 41.7 153.3 37.9C153.4 37.5 154.6 38.8 157.3 38.6C160 38.4 161.5 37.1 161.6 36.9C161.7 36.4 160.6 36.4 160.1 36.4C152.9 36.1 148.5 27.7 156.2 22.1C156.4 21.9 157.6 25.2 159.8 26.5C162.8 28.3 166.9 28.2 166.9 27.2C160.5 23.6 163 13.3 171.5 11.2C171.7 11.2 170.7 19.7 180.4 20.8C179 15.1 180.6 9.70001 184.4 6.20001C191.8 -0.499987 202.3 3.40001 202.5 3.50001C203.4 3.90001 197.7 6.50001 197.9 11.9C198 16 200.9 18.1 203.7 18.5C204.3 18.6 205.6 18.6 205.6 18.6C205.6 18.6 202.3 13 208.7 11.5C208.8 11.5 208.1 14 209.4 15.7C210.6 17.2 213.6 17.7 215.1 18.2C222.9 20.4 230.6 21.8 238 24.8C273.5 38.5 293.9 68.8 302 102.2Z" fill="#2D1F04"/>
<path d="M463.9 82.3001C461.7 84.5001 456.9 89.3001 451.1 95.2001C442.2 92.1001 436 82.5001 435.5 75.3001C437.6 72.1001 434.1 68.8001 431 63.6001C427.9 58.4001 426.5 49.8001 426.9 43.1001C426.8 39.3001 434.1 35.3001 436.1 36.9001C436.7 33.1001 455 25.0001 458.5 27.6001C460 28.7001 463.4 32.8001 466.7 37.9001C469.3 41.9001 471.9 46.7001 473.7 51.1001C474.9 54.0001 475.6 56.9001 475.8 59.4001C476.8 70.8001 471 75.1001 463.9 82.3001Z" fill="#2D1F04"/>
<path d="M57.4002 258.2C46.6002 263.4 36.3002 265.8 27.5002 268.3C20.5002 270.3 2.90018 280.3 2.10018 279C1.70018 278.3 3.10018 274.7 5.40018 270.3C9.50018 262.3 16.2002 251.5 18.9002 249.6C23.1002 246.6 38.2002 240.5 43.1002 237.5C49.0002 240.7 57.0002 251.8 57.4002 258.2Z" fill="#2D1F04"/>
<path d="M451.1 95.2003C438.2 108.4 420.2 132.7 413.3 139.6C403.4 149.5 398.7 155.9 381.6 160.1C373.3 162.1 363.4 165.3 353 168.4C356.7 180.8 351.9 199.6 354.2 206.8C356.1 212.7 358.4 217.7 360.8 222.2C358.7 245.3 332.2 264.9 306.5 277.1C282.4 288.5 258.9 293.3 258.9 293.3C252.2 294.2 245.7 294.4 239.5 293.9C230 289.5 222.5 284.7 216.2 279.8C198.5 265.9 191.5 248.6 187.2 239C185.2 238.2 181.4 236.3 180 234.6C179.1 233.4 177.6 230.6 176.2 226.1C174.2 219.9 172.2 210.3 171.6 196.9C171 184.1 171.1 174.3 171.6 177C171.4 174.4 171.2 171.9 170.9 169.5C202 170.2 244.4 157.8 262.1 140.7C264.2 138.7 269.3 133.8 272.1 131.1C275.4 124.3 279.2 118.1 284.1 113.1C288.7 108.3 294.3 104.6 301.3 102.3C301.4 102.3 301.4 102.3 301.5 102.2C305.8 100.8 310.6 100 316.1 99.8003C337.7 99.0003 364.7 102 380.4 101.7C383.1 96.4003 386.5 91.4003 390.5 88.6003C397.1 83.9003 414.2 82.2003 427.9 78.0003C430.9 77.1003 433.5 76.2003 435.6 75.3003C436.1 82.4003 442.2 92.1003 451.1 95.2003Z" fill="#2D1F04"/>
<path d="M176.2 226.1C157.6 233.2 138.9 235.2 124.5 237.6C117.8 238.7 112.2 242 102.3 244.9C88.4002 249 68.3002 253.6 57.4002 258.3C57.0002 251.8 49.0002 240.8 43.2002 237.5C48.2002 234.5 69.3002 213.8 85.8002 203.3C97.5002 195.9 105.5 196.1 108.3 194.6C110.3 193.6 123.5 178.9 135.2 168.4C146.8 158 156.7 153.2 168.2 151.9C169.1 156.2 170.1 162.4 170.9 169.4C171.2 171.8 171.4 174.4 171.6 176.9C171 174.2 171 184.1 171.6 196.8C172.2 210.3 174.2 219.8 176.2 226.1Z" fill="#2D1F04"/>
<path d="M515.9 361.8C515.4 364.5 499.2 364.8 486.3 361.3C470 356.9 456.5 349.4 453 348.5C400.9 335.5 357.4 342.6 336.9 324.5C346.1 321.5 354.2 316 359.4 309.4C368.2 299.7 372.7 288 374.5 277C392.1 286.5 401.8 296.5 419.6 299.5C440 303 446.1 308.1 455.4 323.4C457.2 326.4 461.4 317.4 467.1 320.4C477.4 325.7 475.4 332.8 490.6 344C498.1 349.7 516.5 358.1 515.9 361.8Z" fill="#2D1F04"/>
<path opacity="0.23" d="M174.7 220.8C174.6 220.4 174.5 220 174.4 219.5C174.2 218.4 173.9 217.2 173.7 215.9C173.6 215.4 173.5 214.8 173.4 214.2C173.3 213.4 171.1 199.9 171.1 184.1C159.6 191.6 137.3 186 124.8 178.2C130.4 194.5 167 190.3 167.6 195.8C167.7 196.5 168.3 203 167.5 205.3C164.2 214 154.9 216.8 148.2 219C132.5 224.2 119.5 226.1 112.9 225.8C93.9 224.9 81.5 237.7 68.9 242C63.7 243.8 58.9 246.2 54 249C54.1 249.2 54.2 249.4 54.4 249.6C54.3 249.4 54.2 249.2 54 249C47.1 252.9 39.9 257.2 31.3 260.7C21.7 264.6 13.4 264.9 9.6 262.8C8.6 264.6 7.6 266.3 6.7 268C6.6 268.2 6.5 268.5 6.3 268.7C5.9 269.4 5.6 270.1 5.2 270.8C5.1 271 5 271.2 4.9 271.3C3.6 273.8 2.7 276 2.3 277.4C2.2 277.6 2.2 277.8 2.2 277.9C2.1 278.4 2.1 278.8 2.2 278.9C2.3 279.1 2.8 279 3.6 278.8C3.8 278.8 3.9 278.7 4.1 278.6C4.2 278.6 4.3 278.5 4.4 278.5C5.4 278.1 6.7 277.6 8.2 276.9C8.7 276.7 9.3 276.4 9.9 276.1C11 275.6 12.1 275.1 13.3 274.5C13.5 274.4 13.7 274.3 13.9 274.2C14.4 273.9 15 273.7 15.5 273.4C16.5 272.9 17.5 272.5 18.4 272C19 271.7 19.7 271.4 20.3 271.1C21.6 270.5 22.8 270 23.9 269.5C24.5 269.3 25 269 25.5 268.9C26.3 268.6 27 268.4 27.6 268.2C33.7 266.4 40.4 264.7 47.5 262.2C50.7 261 54.1 259.7 57.5 258.1C57.5 257.9 57.5 257.6 57.4 257.4C57.4 257.2 57.3 257.1 57.3 256.9C57.2 256.2 57 255.6 56.8 254.9C57.2 256.1 57.5 257.2 57.5 258.2C68.4 253.5 88.5 248.9 102.4 244.8C104.6 244.2 106.5 243.5 108.3 242.9C109.3 242.5 110.3 242.2 111.2 241.8C116.2 239.9 120.1 238.2 124.5 237.5C125.1 237.4 125.7 237.3 126.3 237.2C127.1 237.1 127.9 237 128.6 236.8C130 236.6 131.5 236.3 133 236.1C145.9 234.1 160.8 231.7 176.1 225.8C175.7 224.4 175.2 222.7 174.7 220.8ZM56.5 254.2C56.2 253.5 55.9 252.7 55.5 252C55.9 252.7 56.2 253.5 56.5 254.2Z" fill="#2D1F04"/>
<path opacity="0.23" d="M364.2 101.3C323.3 104.4 297.5 125.1 280.4 144.6C276.2 149.4 273.1 151.7 268.3 152.8C267.1 154.2 265.3 156.3 262.3 158.1C259.3 159.9 255.9 158.6 253.6 156.7C253.9 156.9 254.3 157 254.6 157C254.7 157 254.9 157 255 157C258 156.8 263.1 152.2 264.1 146.8C264.2 147.3 264.4 147.7 264.7 148C265.1 148.4 265.6 148.5 266.2 148.5C266.3 148.5 266.3 148.5 266.4 148.5C269.1 148.4 274.1 144.8 279.5 136.1C289.2 120.5 303.7 108 317.4 99.8999C317.9 99.8999 318.4 99.8999 318.9 99.8999C319.3 99.8999 319.7 99.8999 320.1 99.8999C320.7 99.8999 321.2 99.8999 321.8 99.8999C321.9 99.8999 322 99.8999 322.1 99.8999C322.5 99.8999 322.9 99.8999 323.4 99.8999C323.7 99.8999 324.1 99.8999 324.4 99.8999C324.8 99.8999 325.3 99.8999 325.7 99.8999C326 99.8999 326.3 99.8999 326.6 99.8999C326.7 99.8999 326.8 99.8999 326.9 99.8999C327.3 99.8999 327.6 99.8999 328 99.8999C328.4 99.8999 328.8 99.8999 329.2 99.8999C329.8 99.8999 330.4 99.8999 330.9 99.8999H331C331.4 99.8999 331.9 99.8999 332.3 99.8999C332.5 99.8999 332.6 99.8999 332.8 99.8999C333 99.8999 333.2 99.8999 333.4 99.8999C333.8 99.8999 334.1 99.8999 334.5 99.8999C336.6 99.9999 338.7 99.9999 340.7 100.1C341.8 100.1 342.9 100.2 343.9 100.2C346.1 100.4 362.1 101.2 364.2 101.3Z" fill="#2D1F04"/>
<path d="M258.5 292.8C256.5 294.5 254.6 296.3 252.9 298C249.7 297.4 246.3 296.6 243.7 295.5C242.1 294.8 240.6 294.2 239.1 293.5C245.3 294 251.8 293.7 258.5 292.8Z" fill="#2D1F04"/>
<path d="M359.3 309.7C365.7 301.5 367.9 291.5 362.6 281.5C355.9 269 343.1 265.2 321.4 268.2C336.2 258.5 352 244.4 357.6 231.9C359 228.8 359.9 225.9 360.7 222.4C365.5 231.6 370.6 239.2 373.4 250.5C377.3 265.5 376.2 291.2 359.3 309.7Z" fill="#2D1F04"/>
<path opacity="0.23" d="M445.8 61.7C445.1 60.8 444.7 60.4 443 59.2C439.4 60.2 430.2 50.9 427.1 43C426.7 45.8 427.1 51.5 427.8 53.7C428.4 55.4 448.1 71.4 447.6 73.1C446.6 76.5 446.6 78.7 446.5 81.3C446.2 85.1 444.7 89.6 439.6 93.5C434.5 97.4 409.7 103.7 402.3 116.4C394.9 129.2 387.5 142.2 367.1 144C346.7 145.8 333.8 147 321.7 150.5C309.7 154 308.5 158.7 306.4 167.4C304.4 176.1 304.3 176.7 302.9 179.7C322.5 177.3 346.3 170.4 369.3 163.5C392.3 156.6 398.3 155.1 406.1 146.9C413.9 138.7 435 113.4 441.6 105.7C448.2 98.1 459.6 86.8 465.3 80.8C468.8 77.1 472.8 73.7 474.9 69.3C475.7 67.6 472.8 64.9 469.5 65.6C465.7 66.4 465.7 68.7 458.5 72C455.9 73 449.5 66.5 445.8 61.7Z" fill="#2D1F04"/>
<path opacity="0.23" d="M475.8 64.7002C471.1 48.0002 460.6 34.9002 456.4 31.4002C453.7 29.1002 446.4 32.5002 441.7 31.9002C447.6 28.6002 456.3 25.7002 458.6 27.4002C460.1 28.5002 463.5 32.6002 466.8 37.7002C469.4 41.7002 472 46.5002 473.8 50.9002C475 53.8002 475.7 56.7002 475.9 59.2002C476.1 61.3002 476.1 63.1002 475.8 64.7002Z" fill="#2D1F04"/>
<path d="M161.6 42.1001C157 45.7001 153.5 50.0001 150.7 55.6001C138.4 80.3001 147.7 107.3 160.6 129.1C161.7 131 163.3 133.2 163.8 135.4C164 136.5 163.5 138.4 164.1 139.4C164.3 139.8 165.2 138.2 165.3 138.7C165.7 140.8 165.6 143.2 165.5 145.2C165.5 146 164.7 148.1 165.2 147.5C165.4 147.3 165.8 145.5 166.6 145.7C167.1 145.8 170.4 160.6 171.6 177" stroke="#2D1F04" stroke-width="2.7806" stroke-miterlimit="10" stroke-linecap="round" stroke-linejoin="round"/>
<path opacity="0.23" d="M189.9 244.8C205.1 242.4 228.8 227.8 229.3 227.8C229.8 227.8 234.9 226.8 247.9 225.1C260.9 223.4 275.9 220.8 283 218C285.7 216.9 288.1 213.2 290.1 207.6C292.2 201.8 294.8 183.5 295.6 176.6C292.9 189.1 285.2 208.7 283.1 210.3C280.5 212.2 279.6 212.6 275.4 213.9C261.8 218.2 231.1 221.3 227.9 222.1C225.7 222.6 197.3 240.1 186.3 237.4" fill="#2D1F04"/>
<path opacity="0.23" d="M237.5 24.5001C230.1 21.5001 222.4 20.1001 214.6 17.9001C213.1 17.5001 210.1 16.9001 208.9 15.4001C207.6 13.8001 208.2 11.2001 208.1 11.2001C201.7 12.7001 205 18.3001 205 18.3001C205 18.3001 203.7 18.3001 203.1 18.2001C200.4 17.8001 197.4 15.7001 197.3 11.6001C197.2 6.20011 202.8 3.60011 201.9 3.20011C201.7 3.10011 191.1 -0.899892 183.8 5.80011C179.7 9.50011 178 14.3001 179.9 20.3001C170.2 19.2001 171 10.8001 170.9 10.8001C162.4 12.9001 160 23.2001 166.3 26.8001C166.4 27.8001 162.2 27.9001 159.2 26.1001C157 24.8001 155.9 21.5001 155.6 21.7001C147.9 27.3001 152.2 35.7001 159.5 36.0001C160 36.0001 161.2 36.0001 161 36.5001C161 36.7001 159.4 37.9001 156.7 38.2001C154 38.4001 152.8 37.1001 152.7 37.5001C151.8 41.3001 158.1 44.1001 160.3 42.7001C155.9 46.1001 153 49.9001 150.4 55.1001C154.4 49.6001 161.6 43.9001 171.4 39.8001C170.1 38.9001 170.9 35.9001 172.9 35.2001C172.6 37.4001 176.7 38.0001 181.2 36.5001C179.9 35.3001 178.3 31.1001 183.7 29.3001C181.4 33.3001 187.6 35.8001 190.1 35.0001C192.9 34.1001 192.6 32.7001 191.4 31.7001C193.4 30.4001 195.7 32.8001 196.8 33.2001C199 34.1001 201.4 33.5001 207.2 34.0001C240.5 36.8001 259.3 49.5001 268.8 67.1001C274.4 77.6001 280.8 94.0001 283.7 112.9C288.3 108.1 293.9 104.4 300.9 102.1C293.4 68.3001 273.8 38.5001 237.5 24.5001Z" fill="#2D1F04"/>
<path d="M180.5 21.6999C178.6 15.6999 180.2 9.79992 184.2 6.09992C191.6 -0.600084 202.1 3.29991 202.3 3.39991C203.2 3.79991 197.5 6.39991 197.7 11.7999C197.8 15.8999 200.7 17.9999 203.5 18.3999C204.1 18.4999 205.4 18.4999 205.4 18.4999C205.4 18.4999 202.1 12.9999 208.5 11.3999C208.6 11.3999 207.9 13.8999 209.2 15.5999C210.4 17.0999 213.4 17.5999 214.9 18.0999C222.7 20.2999 230.4 21.6999 237.8 24.6999C274.1 38.5999 293.7 68.2999 301.5 102.3" stroke="#2D1F04" stroke-width="2.7806" stroke-miterlimit="10" stroke-linecap="round" stroke-linejoin="round"/>
<path d="M171.6 177C171 174.3 171 184.2 171.6 196.9C172.7 219.8 177.8 231.6 180 234.6C181.3 236.3 185.2 238.2 187.2 239C191.5 248.5 198.4 265.9 216.2 279.8C223.4 285.5 232.3 291 244.1 295.9C246.9 297.1 249.9 297.9 253.2 298.5" stroke="#2D1F04" stroke-width="2.7806" stroke-miterlimit="10" stroke-linecap="round" stroke-linejoin="round"/>
<path d="M353 168.4C356.7 180.8 351.9 199.6 354.2 206.8C360 224.7 369.3 233.3 373.5 250.3C377.2 265.3 376.1 291 359.3 309.5" stroke="#2D1F04" stroke-width="2.7806" stroke-miterlimit="10" stroke-linecap="round" stroke-linejoin="round"/>
<path d="M169.8 169.4C200.9 170.4 244.2 158 262.1 140.7" stroke="#2D1F04" stroke-width="2.7806" stroke-miterlimit="10" stroke-linecap="round" stroke-linejoin="round"/>
<path d="M160.2 42.8001C157.9 44.1001 152.2 41.6001 153.2 37.8001C153.3 37.4001 154.5 38.7001 157.2 38.5001C159.9 38.3001 161.4 37.0001 161.5 36.8001C161.6 36.3001 160.5 36.3001 160 36.3001C152.8 36.0001 148.4 27.6001 156.1 22.0001C156.3 21.8001 157.5 25.1001 159.7 26.4001C162.7 28.2001 166.8 28.1001 166.8 27.1001C160.4 23.5001 162.9 13.2001 171.4 11.1001C171.6 11.1001 170.1 19.6001 179.9 20.7001" stroke="#2D1F04" stroke-width="2.7806" stroke-miterlimit="10" stroke-linecap="round" stroke-linejoin="round"/>
<path d="M148.2 79.5002C148.6 70.7002 153.6 60.5002 159 58.4002C162.4 57.1002 165.7 58.3002 169.1 59.5002C172.1 60.6002 174.4 59.6002 174.7 57.6002C174.9 55.8002 173.8 54.7002 171.7 53.8002C175.4 54.1002 176.7 55.5002 179.8 56.3002C184.9 57.7002 187.6 57.6002 188.8 57.2002C192.3 55.8002 195.4 51.8002 198.5 50.0002C212.1 42.2002 223.6 42.9002 233.8 60.9002C236.1 65.0002 240 74.4002 239.6 85.6002C239 101.9 235 111.2 227.5 122.3C222 130.4 206.2 138.7 189.9 141.6C177.6 143.7 171.5 139.1 163.1 124.2C155.7 111.5 149.5 96.5002 148.2 79.5002Z" fill="#2D1F04"/>
<path d="M169.5 85.3004C164.8 86.5004 160.7 94.8004 166.5 105.8C170.7 113.7 170.8 119.4 176.3 122.2C185.4 126.7 197.4 120 202.5 112.4C208.6 103.2 207.6 100.8 203.9 90.6004C199.9 79.5004 187.2 79.9004 180.4 82.2004L169.5 85.3004Z" fill="#2D1F04"/>
<path d="M148.2 79.9002C148.1 84.6002 149.4 90.7002 151.6 98.2002C179.5 92.7002 170.9 61.5002 169 59.5002C164.8 57.9002 162 57.0002 158.6 58.6002C156.1 59.7002 148.5 65.0002 148.2 79.9002Z" fill="#2D1F04"/>
<path d="M188.8 57.1003C195.5 89.4003 220.3 91.7003 239.4 86.4003C240 76.5003 237.3 67.4003 234 61.5003C230.7 55.7003 224.5 46.0003 214.7 45.3003C209.4 44.9003 203.3 47.0003 198.4 50.0003C194.6 52.3003 192.1 55.2003 188.8 57.1003Z" fill="#2D1F04"/>
<path d="M172.8 88.7002C174.5 95.8002 177.4 101.7 181.8 106.3C187.4 106.3 192 105.7 193.3 104.7C194.6 103.7 196.9 99.7002 197.5 95.8002" stroke="#2D1F04" stroke-width="2.7806" stroke-miterlimit="10" stroke-linecap="round" stroke-linejoin="round"/>
<path d="M181.8 106.2C181.1 107.1 180.2 108.2 178.4 108.4C177.5 108.3 176.4 107.9 175.4 107.6" stroke="#2D1F04" stroke-width="2.7806" stroke-miterlimit="10" stroke-linecap="round" stroke-linejoin="round"/>
<path d="M150.2 84.6004C151.6 89.0004 155.1 88.6004 159.8 88.0004C165.3 87.2004 170.3 83.2004 169.3 78.7004C168.1 73.6004 163.1 72.7004 156.3 74.8004C150.7 76.4004 148.6 79.6004 150.2 84.6004Z" fill="#2D1F04"/>
<path d="M150 84.0003C151 79.5003 154.2 78.3003 159.5 77.8003C164.5 77.3003 167 78.0003 169.3 80.2003C169.1 73.6003 163.1 73.2003 156.2 74.9003C151.2 76.0003 148.9 79.2003 150 84.0003Z" fill="#2D1F04"/>
<path d="M159.7 81.2004C159.4 78.6004 157.1 76.7004 154.5 77.0004C151.9 77.3004 150 79.6004 150.3 82.2004C150.6 84.8004 152.9 86.7004 155.5 86.4004C158 86.1004 159.9 83.8004 159.7 81.2004Z" fill="#2D1F04"/>
<path d="M150.2 84.6004C151.8 88.9004 155.2 88.6004 159.8 88.0004C165.3 87.3004 170.2 83.3004 169.3 78.7004C168.3 73.5004 163.1 72.9004 156.3 74.8004C150.9 76.3004 148.2 79.1004 150.2 84.6004Z" stroke="#2D1F04" stroke-width="2.62" stroke-miterlimit="10" stroke-linecap="round" stroke-linejoin="round"/>
<path d="M158.3 81.3006C159.46 81.3006 160.4 80.3604 160.4 79.2006C160.4 78.0408 159.46 77.1006 158.3 77.1006C157.14 77.1006 156.2 78.0408 156.2 79.2006C156.2 80.3604 157.14 81.3006 158.3 81.3006Z" fill="#2D1F04"/>
<path d="M157.8 83.6005C158.242 83.6005 158.6 83.2423 158.6 82.8005C158.6 82.3587 158.242 82.0005 157.8 82.0005C157.358 82.0005 157 82.3587 157 82.8005C157 83.2423 157.358 83.6005 157.8 83.6005Z" fill="#2D1F04"/>
<path d="M199.7 73.7004C201.8 77.6004 207.4 75.5004 212.9 74.1004C219.9 72.3004 226.6 69.8004 224 62.9004C222.1 58.0004 215.7 58.0004 207.2 60.9004C198.7 63.8004 196.8 68.5004 199.7 73.7004Z" fill="#2D1F04"/>
<path d="M198.8 71.8003C200.4 67.0003 205.4 64.6003 212.2 63.4003C218.1 62.3003 221.9 62.8003 224.3 64.3003C224.2 63.8003 224.1 63.3003 223.9 62.8003C222 57.9003 215.6 57.9003 207.1 60.8003C199.7 63.4003 197.4 67.4003 198.8 71.8003Z" fill="#2D1F04"/>
<path d="M199.7 73.7004C201.8 77.6004 207.4 75.5004 212.9 74.1004C219.9 72.3004 226.6 69.8004 224 62.9004C222.1 58.0004 215.7 58.0004 207.2 60.9004C198.7 63.8004 196.8 68.5004 199.7 73.7004Z" stroke="#2D1F04" stroke-width="2.7806" stroke-miterlimit="10" stroke-linecap="round" stroke-linejoin="round"/>
<path d="M209.5 67.1002C208.7 64.2002 205.6 62.5002 202.7 63.3002C199.8 64.1002 198.1 67.2002 198.9 70.1002C199.7 73.0002 202.8 74.7002 205.7 73.9002C208.6 73.0002 210.3 70.0002 209.5 67.1002Z" fill="#2D1F04"/>
<path d="M207.5 67.5002C208.825 67.5002 209.9 66.4257 209.9 65.1002C209.9 63.7747 208.825 62.7002 207.5 62.7002C206.174 62.7002 205.1 63.7747 205.1 65.1002C205.1 66.4257 206.174 67.5002 207.5 67.5002Z" fill="#2D1F04"/>
<path d="M207.7 70.3005C208.197 70.3005 208.6 69.8975 208.6 69.4005C208.6 68.9034 208.197 68.5005 207.7 68.5005C207.203 68.5005 206.8 68.9034 206.8 69.4005C206.8 69.8975 207.203 70.3005 207.7 70.3005Z" fill="#2D1F04"/>
<path d="M164 88.0004C163.2 85.4004 166.3 82.0004 170.9 80.4004C175.5 78.8004 180 79.6004 180.8 82.2004C181.6 84.8004 178.5 88.2004 173.9 89.8004C169.3 91.4004 164.9 90.6004 164 88.0004Z" fill="#2D1F04"/>
<path d="M188.8 57.1002C206.9 51.1002 218.4 44.3002 224.5 45.3002C229.2 46.1002 236.7 49.4002 241.6 52.2002" stroke="#2D1F04" stroke-width="7.6" stroke-miterlimit="10" stroke-linecap="round" stroke-linejoin="round"/>
<path d="M170.9 60.0004C159.5 60.0004 150.5 58.5004 147.2 59.6004C144.9 60.4004 142.5 63.2004 138.5 67.0004" stroke="#2D1F04" stroke-width="7.6" stroke-miterlimit="10" stroke-linecap="round" stroke-linejoin="round"/>
<path d="M272 131.1C275.3 124.3 279.1 118.1 284 113.1C288.6 108.3 294.2 104.6 301.2 102.3C305.5 100.9 310.4 100 316 99.8002C337.6 99.0002 364.6 102 380.3 101.7" stroke="#2D1F04" stroke-width="2.7806" stroke-miterlimit="10" stroke-linecap="round" stroke-linejoin="round"/>
<path d="M463.9 82.3002C461.7 84.5002 456.9 89.3002 451.1 95.2002C442.2 92.1002 436 82.5002 435.5 75.3002C437.6 72.0002 434.1 68.8002 431 63.6002C427.9 58.4002 426.5 49.8002 426.9 43.2002C427 47.0002 439.5 61.5002 442.8 59.4002C443.1 59.2002 443.2 58.9002 443.3 58.6002C443.6 56.6002 441.7 52.0002 440.4 48.2002C438.7 42.8002 437.6 38.4002 436 37.1002C436.6 33.3002 454.9 25.3002 458.4 27.8002C461.9 30.3002 474.9 48.4002 475.7 59.7002C476.8 70.8002 471 75.1002 463.9 82.3002Z" stroke="#2D1F04" stroke-width="2.7806" stroke-miterlimit="10" stroke-linecap="round" stroke-linejoin="round"/>
<path d="M319.4 176.8C340.6 173.2 364.5 164.3 381.6 160.1C398.7 155.9 403.4 149.5 413.3 139.6C420.2 132.7 438.2 108.4 451.1 95.2002" stroke="#2D1F04" stroke-width="2.7806" stroke-miterlimit="10" stroke-linecap="round" stroke-linejoin="round"/>
<path d="M375.9 111.9C379.1 103.6 383.9 93.3003 390.5 88.6003C397.1 83.9003 414.2 82.3003 427.9 78.0003C430.9 77.1003 433.5 76.2003 435.5 75.3003" stroke="#2D1F04" stroke-width="2.7806" stroke-miterlimit="10" stroke-linecap="round" stroke-linejoin="round"/>
<path d="M443.4 58.5C444.1 59.7 444.9 60.8 445.8 61.9C452.6 70.6 456.7 74.5 461.7 70.5C466.8 66.5 468 65.7 469.5 65.7" stroke="#2D1F04" stroke-width="2.7806" stroke-miterlimit="10" stroke-linecap="round" stroke-linejoin="round"/>
<path d="M443.4 58.5001C443.3 58.9001 443.2 59.2001 442.9 59.3001C439.5 61.4001 427.1 46.9001 427 43.1001C426.9 39.3001 434.1 35.3001 436.2 36.9001C437.8 38.2001 438.8 42.6001 440.6 48.0001C441.8 51.9001 443.7 56.5001 443.4 58.5001Z" stroke="#2D1F04" stroke-width="2.7806" stroke-miterlimit="10" stroke-linecap="round" stroke-linejoin="round"/>
<path opacity="0.23" d="M360.8 222.1C360.2 229.3 357 235.5 351.6 242.3C343.1 253.1 330.1 263.2 317.9 270.7C289.9 287.8 262.4 295.4 239.6 293.7C236.3 292.2 233.2 290.7 230.4 289.1C233.6 289.3 237.8 289.6 241.1 289.9C247.8 290.4 251.9 289 252.5 285.5C252.8 283.7 252.9 280.3 250.7 277.1C247.8 272.7 240.6 261.6 239.4 251.6C242.3 262.4 252 270.7 255.4 278.1C258.8 286.5 273.8 283.8 282.5 280.9C289.3 278.7 295.6 276.1 307.2 270C319.3 263.6 320.1 259.1 317.1 251.2C314.9 245.4 309.7 234.8 304.9 231.7C300.5 228.8 285.4 228.2 270.1 228C287.1 226.3 301.3 222.9 309.1 226.2C316.6 229.3 320.3 235 323.8 239C329.8 245.8 333.9 249.6 345.6 241.1C347.9 239.4 350 237.6 350.8 234.7C351.7 231.7 339.9 222.4 340.5 193.4C340.7 182.8 337.6 172.8 330.8 174.5C338.2 172.8 345.7 170.6 353 168.4C356.7 180.8 351.9 199.6 354.2 206.8C356.2 212.7 358.5 217.6 360.8 222.1Z" fill="#2D1F04"/>
<path d="M383.9 361.7C383 365.4 362.6 366.4 341.3 364.1C320.7 361.9 299.4 356.4 290.2 355C278.2 353.3 255.2 349.3 249.3 346C240.6 341 228.3 331.8 238.2 317.2C248.1 302.6 264.3 281.1 303.4 271.6C310 270 316.1 268.8 321.6 268C343.3 265 356 268.8 362.8 281.3C368.1 291.2 365.9 301.3 359.5 309.5C351.7 319.3 337.8 326.4 323.2 327.3C325.3 328.4 327.4 329.8 329.1 331.1C352.5 348.7 384.1 360.5 383.9 361.7Z" fill="#2D1F04"/>
<path d="M57.4001 258.2C68.2001 253.5 88.4001 248.8 102.3 244.8C112.1 241.9 117.7 238.6 124.5 237.5C139.1 235.1 157.4 233.1 176.2 225.9" stroke="#2D1F04" stroke-width="2.7806" stroke-miterlimit="10" stroke-linecap="round" stroke-linejoin="round"/>
<path d="M43.2002 237.5C49.0002 240.7 57.0002 251.8 57.4002 258.3" stroke="#2D1F04" stroke-width="2.7806" stroke-miterlimit="10" stroke-linecap="round" stroke-linejoin="round"/>
<path d="M168.2 151.9C156.5 153.1 146.9 158 135.2 168.4C123.5 178.9 110.3 193.5 108.3 194.6C105.5 196.1 97.5001 195.8 85.8001 203.2C69.3001 213.7 48.1001 234.4 43.2001 237.4C38.2001 240.4 23.2001 246.5 18.9001 249.5C14.7001 252.5 0.800094 277 2.10009 279C2.90009 280.3 20.5001 270.4 27.5001 268.3C36.3001 265.7 46.6001 263.3 57.4001 258.2" stroke="#2D1F04" stroke-width="2.7806" stroke-miterlimit="10" stroke-linecap="round" stroke-linejoin="round"/>
<path d="M2.1001 279.1C8.2001 273.7 20.8001 263.6 24.9001 261C28.0001 259.1 34.7001 256.5 41.6001 254.1" stroke="#2D1F04" stroke-width="2.7806" stroke-miterlimit="10" stroke-linecap="round" stroke-linejoin="round"/>
<path d="M440.5 48.1C447 40.6 456 36.4 466.8 38" stroke="#2D1F04" stroke-width="2.7806" stroke-miterlimit="10" stroke-linecap="round" stroke-linejoin="round"/>
<path d="M447.2 63.6999C453.8 55.9999 464 49.4999 473.8 51.1999" stroke="#2D1F04" stroke-width="2.7806" stroke-miterlimit="10" stroke-linecap="round" stroke-linejoin="round"/>
<path d="M5.40015 270.4C11.7001 263.2 18.6001 256.3 21.5001 254.3C23.5001 252.9 30.7001 249.8 38.4001 246.9" stroke="#2D1F04" stroke-width="2.7806" stroke-miterlimit="10" stroke-linecap="round" stroke-linejoin="round"/>
<path d="M515.9 361.8C515.8 362.2 515.4 362.6 514.6 362.9C514.5 363 514.3 363 514.1 363.1C514 363.1 513.9 363.2 513.8 363.2C513.4 363.3 513 363.4 512.6 363.5C512.5 363.5 512.4 363.5 512.3 363.6C512.1 363.6 511.8 363.7 511.6 363.7C511 363.8 510.3 363.9 509.5 363.9C507.6 364 505.3 364 502.8 363.9C502.7 363.9 502.6 363.9 502.6 363.9C501.5 363.8 500.4 363.8 499.3 363.7C499.2 363.7 499 363.7 498.9 363.7C498.2 363.6 497.5 363.5 496.8 363.5C496.2 363.4 495.6 363.3 495 363.3C493.8 363.1 492.7 363 491.5 362.7C490.6 362.5 489.8 362.4 489 362.2C488.2 362 487.3 361.8 486.5 361.6C485 361.2 483.5 360.7 482 360.3C481 360 480 359.7 479.1 359.4C478.6 359.2 478.2 359.1 477.7 358.9C476.8 358.6 475.8 358.2 474.9 357.9C473.5 357.4 472.2 356.9 471 356.4C466.8 354.7 463.1 353.1 460.1 351.7C457.7 350.6 455.8 349.8 454.5 349.2C454 349 453.6 348.9 453.3 348.8C438.5 345.1 424.4 343 411.4 341.6C415.2 341.1 420.6 338.8 420.6 338.8L414.3 329.6C420.2 324.9 433.8 318.5 436.8 304.4C445 308.1 449.6 313.7 455.6 323.7C457.4 326.7 461.6 317.7 467.3 320.7C475.5 324.9 476 330.3 483.4 337.9C485.3 339.9 487.7 342 490.8 344.2C491 344.4 491.3 344.6 491.5 344.7C491.7 344.9 492 345.1 492.3 345.2C493.4 345.9 494.6 346.7 495.9 347.5C496.9 348.1 497.9 348.7 498.9 349.3C499.2 349.5 499.6 349.7 500 349.9C500.7 350.3 501.4 350.7 502.1 351.1C502.5 351.3 502.8 351.5 503.2 351.7C504.1 352.2 505 352.7 505.8 353.2C506.1 353.4 506.5 353.6 506.8 353.8C507 353.9 507.1 354 507.3 354.1C507.6 354.3 508 354.5 508.3 354.7C512.6 357.5 516.2 360.1 515.9 361.8Z" fill="#2D1F04"/>
<path d="M383.9 361.7C383.8 361.9 383.7 362.1 383.5 362.3C383.1 362.8 382.3 363.2 381.1 363.5C381 363.5 380.9 363.6 380.8 363.6C380.7 363.6 380.6 363.7 380.5 363.7C380 363.8 379.5 364 378.9 364.1C378.4 364.2 378 364.3 377.4 364.4C376.3 364.6 375.2 364.7 373.9 364.9C373.8 364.9 373.7 364.9 373.6 364.9C365.5 365.7 353.5 365.4 341.2 364.1C339.9 364 338.6 363.8 337.3 363.6C336 363.4 334.7 363.3 333.4 363.1C315.4 360.5 298.1 356.2 290.1 355C284.8 354.2 277.2 353 270 351.6C273.7 351.4 279.9 348.7 279.9 348.7L273.6 339.5C279.5 334.8 291.9 331.7 294.7 318.6C305.1 327.8 309 338.9 310.8 329.7C312.1 323.1 317.7 324.3 323 327.2C323.3 327.3 323.5 327.5 323.8 327.6C324.1 327.7 324.3 327.9 324.6 328.1C325.1 328.4 325.6 328.7 326.1 329.1C326.3 329.3 326.6 329.4 326.8 329.6C327 329.8 327.3 329.9 327.5 330.1C328 330.4 328.4 330.8 328.8 331.1C330.3 332.2 331.8 333.3 333.3 334.3C334.1 334.8 334.8 335.4 335.6 335.9C336.4 336.4 337.1 336.9 337.9 337.4C338.3 337.6 338.7 337.9 339.1 338.2C339.9 338.7 340.7 339.2 341.4 339.7C342.6 340.4 343.8 341.1 344.9 341.8C346.5 342.7 348 343.6 349.6 344.5C350 344.7 350.4 344.9 350.8 345.1C352 345.8 353.1 346.4 354.2 347C355 347.4 355.7 347.8 356.4 348.2C356.8 348.4 357.2 348.6 357.5 348.8C359 349.6 360.4 350.3 361.8 351C362.5 351.4 363.2 351.7 363.9 352C365.3 352.7 366.6 353.3 367.9 353.9C368.9 354.4 369.8 354.8 370.7 355.2C371.3 355.5 371.9 355.8 372.4 356C374.7 357.1 376.6 358 378.3 358.8C378.7 359 379.1 359.2 379.5 359.4C379.9 359.6 380.2 359.7 380.6 359.9C380.8 360 380.9 360 381.1 360.1C381.4 360.3 381.7 360.4 381.9 360.5C383.3 361.1 383.9 361.5 383.9 361.7Z" fill="#2D1F04"/>
<path d="M374.4 277C391.9 286.6 401.7 296.5 419.5 299.5C439.9 303 446 308.1 455.2 323.4C457 326.4 461.2 317.4 466.9 320.4C477.3 325.7 475.2 332.8 490.4 344C498 349.6 516.4 358.101 515.8 361.701C515.3 364.401 499.1 364.701 486.2 361.201C469.9 356.801 456.4 349.3 452.9 348.4C400.8 335.4 357.3 342.5 336.8 324.4" stroke="#2D1F04" stroke-width="2.7806" stroke-miterlimit="10" stroke-linecap="round" stroke-linejoin="round"/>
<path d="M323.1 327.2C349.7 325.7 374.4 303.2 362.7 281.3C354.3 265.6 336.4 263.6 303.4 271.6C264.3 281.1 248.1 302.6 238.2 317.2C228.3 331.8 240.6 341 249.3 346C255.2 349.4 278.2 353.3 290.2 355C299.4 356.3 320.7 361.8 341.3 364.1C362.6 366.4 383.1 365.4 383.9 361.7C384.2 360.5 352.5 348.7 329 331.1C322.9 326.5 312.7 320.6 310.9 329.8C307.9 345.2 299.2 303.6 263.4 309.7" stroke="#2D1F04" stroke-width="2.7806" stroke-miterlimit="10" stroke-linecap="round" stroke-linejoin="round"/>
<path d="M270.1 351.7C273.8 351.5 280 348.8 280 348.8L273.7 339.6C279.6 334.9 292 331.8 294.8 318.7" stroke="#2D1F04" stroke-width="2.7806" stroke-miterlimit="10" stroke-linecap="round" stroke-linejoin="round"/>
<path d="M411 341.3C415.1 340.2 420.1 338.5 420.1 338.5L413.8 329.3C419.7 324.6 433.3 318.2 436.3 304.1" stroke="#2D1F04" stroke-width="2.7806" stroke-miterlimit="10" stroke-linecap="round" stroke-linejoin="round"/>
<path d="M300.5 324.5C297.7 332.1 286.4 340.2 282.5 342.4C284.2 345.2 287.7 351.1 287.7 351.1L280.3 353.5" stroke="#2D1F04" stroke-width="2.7806" stroke-miterlimit="10" stroke-linecap="round" stroke-linejoin="round"/>
<path d="M442.5 307.6C439.7 316.5 433.7 325.3 421.6 331.3C424 335.2 427.7 340.1 427.7 340.1L422 342.6" stroke="#2D1F04" stroke-width="2.7806" stroke-miterlimit="10" stroke-linecap="round" stroke-linejoin="round"/>
<path d="M182.4 177.4C181.3 179.3 177.9 180.6 173.4 180.7C172.7 184.3 168 187.8 155.6 187.7C139.4 187.7 123.8 179.4 123 176.1C122.2 172.9 133.1 163.5 140.4 160.6C140.2 160.3 140 159.9 139.7 159.6C138 157 149 150.6 155.4 148.6C163.1 146.2 166.9 147.9 168.9 154.4C173.6 169.3 184.8 173.5 182.4 177.4Z" fill="#2D1F04"/>
<path opacity="0.32" d="M125.9 170.9C126.3 175.3 132.9 182.2 148.2 187.1C136.9 185 124.3 180 123 176C122.5 174.6 123.5 172.7 125.9 170.9Z" fill="#2D1F04"/>
<path opacity="0.32" d="M146.7 152.6C148.9 159.1 153.4 173.2 175 180.6C165.5 181.1 156.4 177.1 147.8 169.5C139.2 161.9 139.4 159.5 140.1 157.6C140.8 155.7 143 154.2 146.7 152.6Z" fill="#2D1F04"/>
<path d="M182.4 177.4C179 183.1 155.4 183.7 139.7 159.6C138 157 149 150.5 155.4 148.6C162.9 146.3 166.9 147.9 168.9 154.4C173.6 169.3 184.8 173.5 182.4 177.4Z" stroke="#2D1F04" stroke-width="2.7806" stroke-miterlimit="10" stroke-linecap="round" stroke-linejoin="round"/>
<path d="M140.5 160.7C133.5 163.5 122.2 172.7 123 176.1C123.8 179.4 139.4 187.7 155.6 187.7C168.3 187.7 172.9 184.3 173.5 180.7" stroke="#2D1F04" stroke-width="2.7806" stroke-miterlimit="10" stroke-linecap="round" stroke-linejoin="round"/>
<path d="M421.8 129.6C435.3 134.9 451.1 139.9 469.4 143.7C481.4 146.2 491.7 146.9 500.9 147" stroke="#2D1F04" stroke-width="2.7806" stroke-miterlimit="10" stroke-linecap="round" stroke-linejoin="round"/>
<path d="M500.9 147C533.9 147.2 552.6 138.3 583.2 167.5C556.6 79.5002 514.9 100.6 448.4 98.2001" stroke="#2D1F04" stroke-width="2.7806" stroke-miterlimit="10" stroke-linecap="round" stroke-linejoin="round"/>
<path d="M326.1 63.1003C316.6 69.1003 306.6 78.2003 297.5 88.6003C281.5 106.8 268.1 128.8 264.1 144.7C263.9 145.3 263.9 145.9 263.9 146.4C262.4 155.5 249.6 162.4 253 151C253.4 149.6 253.9 148.2 254.3 146.8C264 116.7 280.1 89.5003 291.9 75.1003C295.8 70.3003 299.3 66.9003 301.8 65.4003C308.7 61.2003 319.3 62.2003 326.1 63.1003Z" fill="#2D1F04"/>
<path d="M338.2 57.1C334.3 58.4 330.2 60.4 326.1 63.1C316.6 69.1 306.6 78.2 297.5 88.6C281.5 106.8 268.1 128.8 264.1 144.7C263.9 145.3 263.9 145.9 263.9 146.4C264.2 150.5 271.2 148.9 279.2 136C288.9 120.4 303.4 108 317.1 99.8C329.4 92.4 341.1 88.6 347.8 88.9C350.7 89 352.5 90 356.8 93C357 84.4 358 75.8 359.7 67.4C352.6 59.5 348.2 53.9 338.2 57.1Z" fill="#2D1F04"/>
<path opacity="0.32" d="M270.3 128.3C285.7 107.6 299.7 91.3999 311 82.5999C322.3 73.7999 332.2 65.4999 341.4 67.3999C350.6 69.2999 359.8 66.7999 353.4 60.5999C347 54.3999 340.6 55.2999 334.8 58.0999C329 60.8999 293.8 80.0999 270.3 128.3Z" fill="#2D1F04"/>
<path d="M370 240C376.8 242.5 384.1 244.8 392.1 246.8C413.8 252.4 439.9 256.1 470.7 254.9C456.4 265.7 439.7 279 419.8 279C409.9 279 394 272.8 375.3 262.9" stroke="#2D1F04" stroke-width="2.7806" stroke-miterlimit="10" stroke-linecap="round" stroke-linejoin="round"/>
<path d="M354.3 196.7C374.8 205.6 396.3 204.4 417 209.9C430.7 213.5 441.7 225.1 438.5 237.5C438 239.6 436.2 244.1 432.7 243.5C410.9 240.1 389.7 237.7 364.2 228.3" stroke="#2D1F04" stroke-width="2.7806" stroke-miterlimit="10" stroke-linecap="round" stroke-linejoin="round"/>
<path d="M356 167.5C386.6 179 412.2 187.3 433.1 193.2C418.5 190.9 408 198.2 404.9 206.3" stroke="#2D1F04" stroke-width="2.7806" stroke-miterlimit="10" stroke-linecap="round" stroke-linejoin="round"/>
<path d="M500.9 147.3C498.8 153.6 500.5 162.5 506.8 171.6C516.9 186.3 521 198.2 507.4 207.2C505.4 208.5 481.8 207 433.2 193.2C412.3 187.3 386.7 179 356.1 167.5" stroke="#2D1F04" stroke-width="2.7806" stroke-miterlimit="10" stroke-linecap="round" stroke-linejoin="round"/>
<path d="M326.2 63.1003C319.4 62.2003 308.8 61.2003 302 65.4003C291.4 71.9003 265.8 109.2 253.2 151C249.7 162.6 262.9 155.3 264.1 146C264.1 146 264.1 146 264.1 145.9" stroke="#2D1F04" stroke-width="2.7806" stroke-miterlimit="10" stroke-linecap="round" stroke-linejoin="round"/>
<path d="M420.1 241.6C410.3 240.6 404.5 242.6 400.6 248.9" stroke="#2D1F04" stroke-width="2.7806" stroke-miterlimit="10" stroke-linecap="round" stroke-linejoin="round"/>
<path d="M390.2 88.7003C356.1 76.2003 357 51.0003 338.3 57.1003C310.1 66.4003 271.4 115.7 264.1 144.7C262.6 150.7 270.3 150.4 279.2 136C297.7 106.2 333.5 88.2003 347.8 88.9003C352.6 89.1003 354.5 91.6003 368.9 101.5" stroke="#2D1F04" stroke-width="2.7806" stroke-miterlimit="10" stroke-linecap="round" stroke-linejoin="round"/>
<path d="M196.5 228.3C195.5 228.3 194.6 228 193.7 227.6C192.4 226.8 191.4 225.6 191 224.1C187.1 209.3 185 197.7 184.3 186.5C184.1 183.8 185.9 181.3 188.6 180.6L192.5 179.6C198 178.2 203.3 176.9 208.6 175.9C209.6 175.7 210.5 175.6 211.5 175.6C214.1 175.6 216.4 176.4 218.4 177.8C219.7 175.6 221.6 173.7 223.9 172.2C227.7 169.8 231.7 168.6 235.7 168.6C236.8 168.6 237.9 168.7 239 168.9C245.4 169.9 249.8 174.3 252 181.8C252.4 183.3 252.3 184.9 251.5 186.2C251.3 186.6 251.1 186.9 250.8 187.2C253.1 189.3 254.8 192.1 255.6 195.4C257.1 201.3 255.6 207.9 251.7 212.1C249.7 214.4 246.9 216.4 243.9 217.5C240.7 218.8 237.3 219.5 234 219.5C233 219.5 232 219.4 231 219.3C230.3 219.2 229.7 219.1 229 218.9C228.2 219.8 227.2 220.4 226 220.7C222.5 221.5 219.2 222.3 215.8 223.1C215.3 223.2 214.9 223.3 214.4 223.3C212.9 223.3 211.5 222.7 210.5 221.7C210 223.5 208.5 225.1 206.5 225.6C203.5 226.4 200.8 227.2 197.9 228C197.6 228.3 197.1 228.3 196.5 228.3Z" fill="#2D1F04"/>
<path d="M213.2 201.4C213.7 201.1 213.9 201 214.1 200.8C218.2 197.7 219.7 193.4 218.3 188C217.3 184.1 214.9 180.5 209.7 181.5C203.3 182.8 196.8 184.5 190 186.1C190.8 198.4 193.3 210.4 196.6 222.6C199.5 221.8 202.2 221 205.2 220.2C204.1 215.3 203.1 210.4 202.3 205.7C204.8 204.4 206.3 205.7 207.6 207.5C210 210.9 212.4 214.3 214.6 217.6C218 216.7 221.3 216 225 215.1C221.2 210.2 219.2 203.5 213.2 201.4ZM207.1 196.8C205.2 197.6 203.2 198.1 201.1 198.8C200.7 196.1 200.4 193.8 200.1 191.4C202.2 190.9 204.1 190.2 206 189.9C207.9 189.6 209.1 190.9 209.3 192.8C209.5 194.5 208.8 196 207.1 196.8ZM238.1 174.6C234.1 174 230.4 174.9 226.8 177.1C223 179.4 221.1 183.8 221.6 188.4C222.1 192.6 224.7 195.6 229 196.7C231.3 197.3 233.6 197.4 235.8 197.8C236.9 198 238 198.1 239.1 198.5C240.3 198.9 241.3 199.9 241.4 201.5C241.6 203.2 240.8 204.5 239.6 205.3C236.9 207.2 233.7 206.1 232.2 202.9C231.9 202.3 231.7 201.7 231.4 201C228.5 201.8 225.7 202.6 222.9 203.4C223.9 209.4 227.3 213.3 231.7 213.8C235.1 214.2 238.5 213.7 241.7 212.4C243.7 211.6 245.8 210.2 247.4 208.4C252.3 203 251.4 192.1 243.4 189.3C242.2 188.9 240.9 188.5 239.6 188.3C237.3 188 235 187.8 232.7 187.6C231.4 187.5 230.3 187.1 229.9 185.3C230 183 231.2 182.1 232.8 181.8C235.2 181.3 237.1 182.7 238.2 185.7C241 184.9 243.6 184.2 246.4 183.4C244.9 178 242.3 175.3 238.1 174.6Z" fill="#2D1F04"/>
<path opacity="0.23" d="M357.1 274.1C363.7 280.9 367.9 290.4 364.3 300.7C364.2 301 364.1 301.2 364 301.5C363.9 301.8 363.7 302.2 363.6 302.5C363.5 302.8 363.3 303.2 363.1 303.5C362.9 303.8 362.8 304.2 362.6 304.5C362.4 304.8 362.2 305.2 362 305.5C361.8 305.8 361.6 306.2 361.4 306.5C361.2 306.8 361 307.2 360.8 307.5C360.8 307.5 360.8 307.6 360.7 307.6C360.3 308.2 359.8 308.8 359.3 309.4C357.8 311.2 356.2 313 354.3 314.6C354 314.9 353.7 315.1 353.4 315.4L353.3 315.5C353 315.7 352.7 316 352.4 316.2C352.1 316.5 351.7 316.7 351.4 317C351.1 317.2 350.7 317.5 350.4 317.7C350.1 317.9 349.7 318.2 349.4 318.4C348.7 318.9 348 319.3 347.2 319.8L347.1 319.9C346.4 320.3 345.7 320.7 345 321.1C344.6 321.3 344.2 321.5 343.8 321.7C343.7 321.7 343.7 321.8 343.6 321.8C343.3 322 342.9 322.1 342.6 322.3C342.2 322.5 341.8 322.7 341.4 322.8C341 323 340.6 323.1 340.2 323.3C339.4 323.6 338.6 323.9 337.8 324.2C337.5 324.3 337.2 324.4 336.9 324.5C336.3 324.7 335.7 324.9 335.1 325C334.7 325.1 334.2 325.2 333.8 325.4C333.4 325.5 332.9 325.6 332.5 325.7C332.1 325.8 331.7 325.9 331.2 326C330.8 326.1 330.3 326.2 329.9 326.3C329.5 326.4 329 326.5 328.6 326.5C327.7 326.7 326.7 326.8 325.8 326.9C325.4 326.9 325 327 324.6 327C324.1 327 323.7 327.1 323.2 327.1C317.9 324.2 312.3 323.1 311 329.7C309.2 338.9 305.4 327.8 294.9 318.6C293.4 317.3 291.7 315.9 289.9 314.8C289.8 314.7 289.6 314.6 289.5 314.5C277.8 306.4 293 293.9 321.7 295.4C333.2 296 342.2 296.2 349.6 294.1C355.1 292.6 362.2 287.1 357.1 274.1Z" fill="#2D1F04"/>
<path opacity="0.23" d="M515.5 361.8C515 364.5 498.8 364.8 485.9 361.3C469.6 356.9 456.1 349.4 452.6 348.5C400.5 335.5 357 342.6 336.5 324.5C345.7 321.5 353.8 316 359 309.4C367.8 299.7 372.3 288 374.1 277C378.7 279.5 382.7 282 386.5 284.4C382 281.7 378 286.8 373.3 297C367.2 310.3 359.8 319.6 366.7 323C373.6 326.4 386.7 322.9 405.8 326.3C419 328.6 446.6 339.2 456.3 343.8C465.2 348 500.3 357.9 509.6 355.9C513.2 358.3 515.8 360.4 515.5 361.8Z" fill="#2D1F04"/>
<path opacity="0.23" d="M383.5 361.7C382.7 365.4 362.2 366.4 340.9 364.1C320.3 361.9 299 356.4 289.8 355.1C284.5 354.3 277 353.1 269.8 351.7C260.8 349.9 252.2 347.9 248.9 346C243.8 343.1 237.4 338.7 235.1 332.6C237.6 338.5 267.5 330.3 285.4 338.5C297.3 343.9 329.8 356.4 350.7 358.9C362.7 360.3 373.2 360.3 377.4 358.5C381.3 360.2 383.6 361.4 383.5 361.7Z" fill="#2D1F04"/>
<path opacity="0.43" d="M326.1 63.1003C316.6 69.1003 306.6 78.2003 297.5 88.6003C281.5 106.8 268.1 128.8 264.1 144.7C264 145.3 263.9 145.9 263.9 146.4C262.8 153.1 255.7 158.6 253.2 156.5C256.2 154.4 258.8 149.8 261.1 142.7C264 133.5 269.4 120.7 275.9 109.6C285 94.2003 297 76.8003 317.3 62.3003C320.5 62.4003 323.6 62.7003 326.1 63.1003Z" fill="#2D1F04"/>
<path opacity="0.23" d="M377.6 101.8C375 101.8 372.1 101.7 369.1 101.6C369 101.6 369 101.5 369 101.5C354.5 91.5001 352.6 89.1001 347.9 88.8001C341.1 88.4001 329.5 92.3001 317.2 99.7001C317.1 99.7001 317.1 99.8001 317 99.8001C303.4 107.9 288.9 120.3 279.3 135.9C274.5 143.6 270.1 147.3 267.2 148.1C270.6 143.2 274.1 132.8 280.7 123.4C285.9 116 291.3 109.5 297.2 103.8C312.3 89.5001 330.8 81.1001 359.8 79.1001C354.1 83.4001 356 86.0001 361.7 90.7001C365.1 93.6001 370.9 97.6001 377.6 101.8Z" fill="#2D1F04"/>
<path opacity="0.35" d="M182.4 177.4C181.6 178.7 179.9 179.7 177.5 180.2C180.1 176.4 165.8 171.8 161.1 159.2C159.1 153.8 155.6 150.5 152.3 149.7C153.4 149.2 154.4 148.9 155.4 148.6C163.2 146.2 166.9 147.9 168.9 154.4C173.6 169.3 184.8 173.5 182.4 177.4Z" fill="#2D1F04"/>
<path opacity="0.23" d="M173.4 180.7C173.2 181.9 172.4 183.1 171.1 184.2C169.7 185.4 167.5 186.3 164.5 187C155.8 185.6 149 181.1 144.1 177C140.4 173.9 137.7 170.5 135.6 168.1C134.3 166.7 133.3 165.7 132.3 165.4C135.1 163.4 138 161.7 140.4 160.7C140.9 161.4 141.4 162.2 141.9 162.8C141.4 163.2 141.4 163.2 141.9 162.8C151.2 175.2 162.6 179.9 171 180.5C171.9 180.7 172.7 180.7 173.4 180.7Z" fill="#2D1F04"/>
<path opacity="0.32" d="M462.2 324.2C460.3 325.4 464.9 327.8 467.8 328.7C470.7 329.7 466.2 321.8 462.2 324.2Z" fill="#2D1F04"/>
<path opacity="0.32" d="M314.8 329.9C313.8 331.8 320.9 334.8 322.1 332.6C323.3 330.4 316.4 327.2 314.8 329.9Z" fill="#2D1F04"/>
<path opacity="0.32" d="M211.2 193.5C211 191.8 210 190.6 208.4 190.6C208.8 191.1 209.1 191.8 209.2 192.6C209.4 194.4 208.7 196 207 196.7C205.6 197.3 202.5 198.2 201 198.7C201.1 199.2 201.1 199.6 201.2 200.1C203.2 199.4 207 198.4 208.9 197.6C210.7 196.9 211.4 195.3 211.2 193.5ZM209.7 181.6C203.3 182.9 196.8 184.6 189.9 186.2C190.7 198.5 193.2 210.5 196.5 222.7C197 222.5 197.6 222.4 198.1 222.2C195 210.5 192.6 198.9 191.9 187C198.7 185.3 205.2 183.6 211.6 182.4C212.8 182.2 213.9 182.2 214.8 182.4C213.6 181.5 211.9 181.1 209.7 181.6ZM209.5 208.5C208.6 207.2 206.5 205.2 204.3 205.3C206 205.4 207.1 207.1 207.5 207.6C209.9 211 212.3 214.4 214.5 217.7C214.9 217.6 215.3 217.5 215.7 217.4C213.7 214.5 211.6 211.5 209.5 208.5ZM243.5 189.4C242.3 189 241 188.6 239.7 188.4C237.4 188.1 235.1 187.9 232.8 187.6C232.7 187.6 231.4 187.5 230.7 186.7C231.4 188.1 233.9 188.3 234.8 188.4C237.1 188.6 239.4 188.8 241.7 189.2C242.9 189.4 244 189.7 245.2 190.1C244.6 189.8 244.1 189.6 243.5 189.4ZM243.5 202.4C243.3 200.8 242.4 199.8 241.2 199.4C240.9 199.3 240.7 199.2 240.4 199.2C241 199.7 241.5 200.5 241.6 201.6C241.8 203.3 241 204.6 239.8 205.4C238.7 206.2 237.4 206.5 236.3 206.3C237.9 207.5 240 207.6 241.8 206.3C242.9 205.4 243.6 204.1 243.5 202.4ZM238.1 174.6C234.1 174 230.4 174.9 226.8 177.1C223 179.5 221.1 183.8 221.6 188.4C222 192.3 224.4 195.2 228.2 196.5C225.5 195 223.9 192.5 223.5 189.3C223 184.7 224.9 180.3 228.7 178C232.3 175.8 235.9 174.8 240 175.5C240.5 175.6 241 175.7 241.4 175.8C240.5 175.2 239.3 174.8 238.1 174.6ZM236.3 182.7C237.1 183.4 237.8 184.4 238.3 185.8C238.8 185.7 239.2 185.5 239.7 185.4C238.9 183.8 237.8 182.8 236.3 182.7ZM224.9 204.3C227.2 203.6 229.6 202.9 232 202.3C231.8 201.9 231.7 201.5 231.5 201.1C228.6 201.9 225.8 202.7 223 203.5C223.9 208.9 226.7 212.5 230.5 213.6C227.7 211.9 225.7 208.7 224.9 204.3Z" fill="#2D1F04"/>
<path d="M183.7 151.9L186 158" stroke="#2D1F04" stroke-width="3.87" stroke-miterlimit="10" stroke-linecap="round" stroke-linejoin="round"/>
<path d="M190.9 152.7L193.2 158.8" stroke="#2D1F04" stroke-width="3.87" stroke-miterlimit="10" stroke-linecap="round" stroke-linejoin="round"/>
<path d="M284.636 240.636V239.545C284.758 227.97 285.97 218.758 288.273 211.909C290.576 205.061 293.848 199.515 298.091 195.273C302.333 191.03 307.424 187.121 313.364 183.545C316.939 181.364 320.152 178.788 323 175.818C325.848 172.788 328.091 169.303 329.727 165.364C331.424 161.424 332.273 157.061 332.273 152.273C332.273 146.333 330.879 141.182 328.091 136.818C325.303 132.455 321.576 129.091 316.909 126.727C312.242 124.364 307.061 123.182 301.364 123.182C296.394 123.182 291.606 124.212 287 126.273C282.394 128.333 278.545 131.576 275.455 136C272.364 140.424 270.576 146.212 270.091 153.364H247.182C247.667 143.061 250.333 134.242 255.182 126.909C260.091 119.576 266.545 113.97 274.545 110.091C282.606 106.212 291.545 104.273 301.364 104.273C312.03 104.273 321.303 106.394 329.182 110.636C337.121 114.879 343.242 120.697 347.545 128.091C351.909 135.485 354.091 143.909 354.091 153.364C354.091 160.03 353.061 166.061 351 171.455C349 176.848 346.091 181.667 342.273 185.909C338.515 190.152 333.97 193.909 328.636 197.182C323.303 200.515 319.03 204.03 315.818 207.727C312.606 211.364 310.273 215.697 308.818 220.727C307.364 225.758 306.576 232.03 306.455 239.545V240.636H284.636ZM296.273 294.455C291.788 294.455 287.939 292.848 284.727 289.636C281.515 286.424 279.909 282.576 279.909 278.091C279.909 273.606 281.515 269.758 284.727 266.545C287.939 263.333 291.788 261.727 296.273 261.727C300.758 261.727 304.606 263.333 307.818 266.545C311.03 269.758 312.636 273.606 312.636 278.091C312.636 281.061 311.879 283.788 310.364 286.273C308.909 288.758 306.939 290.758 304.455 292.273C302.03 293.727 299.303 294.455 296.273 294.455Z" fill="white"/>
</g>
<defs>
<clipPath id="clip0_228_2755">
<rect width="585" height="367" fill="white"/>
</clipPath>
</defs>
</svg>
