<svg width="413" height="345" viewBox="0 0 413 345" fill="none" xmlns="http://www.w3.org/2000/svg">
<path d="M402.5 125.5C402.5 183.1 355.8 229.7 298.3 229.7C263.3 229.7 232.3 212.4 213.4 186C201.2 168.9 194.1 148 194.1 125.5C194.1 75.8998 228.7 34.3998 275.1 23.8998C282.5 22.1998 290.3 21.2998 298.3 21.2998C355.8 21.2998 402.5 67.9998 402.5 125.5Z" fill="#2D1F04"/>
<path opacity="0.23" d="M309.9 74.1999C309.6 76.5999 309 78.8999 308.2 81.0999C308.4 82.6999 308.4 84.2999 308.4 85.7999C308.4 94.1999 304.6 102.1 298.2 107.5C295.5 144.4 274.3 168.8 263.5 181.3C256.8 189 246.6 192.5 236.6 190.5C228.9 189 221 187.4 213.4 185.9C201.2 168.8 194.1 147.9 194.1 125.4C194.1 75.7999 228.7 34.2999 275.1 23.7999C280.8 22.6999 285.1 21.8999 291.1 21.3999C291.1 21.6999 290.9 24.8999 290.9 25.1999C300.2 32.8999 302.7 36.5999 303.7 38.1999C303.7 38.1999 303.8 38.2999 303.8 38.3999C305.5 40.8999 310.1 49.0999 308.4 59.3999C309.9 63.9999 310.5 68.8999 309.9 74.1999Z" fill="#2D1F04"/>
<path d="M298.2 229.7C355.748 229.7 402.4 183.048 402.4 125.5C402.4 67.9517 355.748 21.2998 298.2 21.2998C240.652 21.2998 194 67.9517 194 125.5C194 183.048 240.652 229.7 298.2 229.7Z" stroke="#2D1F04" stroke-width="8.0658" stroke-miterlimit="10" stroke-linecap="round" stroke-linejoin="round"/>
<path d="M298.2 220.2C350.501 220.2 392.9 177.801 392.9 125.5C392.9 73.1984 350.501 30.7998 298.2 30.7998C245.899 30.7998 203.5 73.1984 203.5 125.5C203.5 177.801 245.899 220.2 298.2 220.2Z" stroke="#2D1F04" stroke-width="2.62" stroke-miterlimit="10" stroke-linecap="round" stroke-linejoin="round"/>
<path d="M298.2 130.7C301.072 130.7 303.4 128.372 303.4 125.5C303.4 122.628 301.072 120.3 298.2 120.3C295.328 120.3 293 122.628 293 125.5C293 128.372 295.328 130.7 298.2 130.7Z" fill="#2D1F04"/>
<path d="M373.4 125.5H298.3L361.2 84.3999C368.9 96.1999 373.4 110.3 373.4 125.5Z" fill="#2D1F04"/>
<path d="M291.3 50.4997V40.1997C289.4 41.6997 288.1 42.3997 287.4 42.3997C287.1 42.3997 286.8 42.2997 286.6 41.9997C286.4 41.6997 286.2 41.4997 286.2 41.0997C286.2 40.6997 286.3 40.3997 286.6 40.1997C286.8 39.9997 287.3 39.7997 287.9 39.4997C288.8 39.0997 289.5 38.5997 290.1 38.0997C290.6 37.5997 291.1 37.0997 291.6 36.4997C292 35.8997 292.3 35.4997 292.4 35.3997C292.5 35.2997 292.8 35.1997 293.1 35.1997C293.5 35.1997 293.8 35.3997 294.1 35.6997C294.3 35.9997 294.5 36.3997 294.5 36.9997V49.9997C294.5 51.4997 294 52.2997 292.9 52.2997C292.4 52.2997 292.1 52.0997 291.8 51.7997C291.4 51.5997 291.3 51.0997 291.3 50.4997Z" fill="#2D1F04"/>
<path d="M302.5 49.3998H308.4C309 49.3998 309.4 49.4998 309.7 49.7998C310 49.9998 310.2 50.3998 310.2 50.7998C310.2 51.1998 310.1 51.4998 309.8 51.6998C309.6 51.9998 309.2 52.0998 308.7 52.0998H300.4C299.8 52.0998 299.4 51.8998 299.1 51.5998C298.8 51.2998 298.6 50.8998 298.6 50.4998C298.6 50.1998 298.7 49.8998 298.9 49.3998C299.1 48.8998 299.3 48.5998 299.6 48.2998C300.6 47.2998 301.5 46.3998 302.3 45.5998C303.1 44.8998 303.7 44.3998 304 44.0998C304.6 43.6998 305.1 43.1998 305.5 42.7998C305.9 42.3998 306.2 41.8998 306.4 41.3998C306.6 40.8998 306.7 40.4998 306.7 39.9998C306.7 39.4998 306.6 39.0998 306.4 38.6998C306.2 38.2998 305.9 37.9998 305.5 37.7998C305.1 37.5998 304.7 37.4998 304.2 37.4998C303.2 37.4998 302.4 37.8998 301.9 38.7998C301.8 38.8998 301.7 39.1998 301.5 39.6998C301.3 40.1998 301.1 40.5998 300.9 40.8998C300.7 41.1998 300.4 41.2998 299.9 41.2998C299.5 41.2998 299.2 41.1998 299 40.8998C298.8 40.6998 298.6 40.2998 298.6 39.8998C298.6 39.3998 298.7 38.7998 299 38.2998C299.3 37.7998 299.6 37.1998 300 36.7998C300.4 36.3998 301.1 35.9998 301.8 35.6998C302.5 35.3998 303.4 35.2998 304.3 35.2998C305.5 35.2998 306.4 35.4998 307.3 35.7998C307.8 35.9998 308.3 36.3998 308.7 36.7998C309.1 37.1998 309.4 37.6998 309.6 38.2998C309.8 38.8998 309.9 39.3998 309.9 39.9998C309.9 40.8998 309.7 41.7998 309.2 42.5998C308.7 43.3998 308.3 43.9998 307.8 44.3998C307.3 44.7998 306.5 45.4998 305.4 46.3998C304.3 47.2998 303.5 48.0998 303.1 48.5998C302.9 48.8998 302.7 49.0998 302.5 49.3998Z" fill="#2D1F04"/>
<path d="M381.5 123.7C382.2 123.7 382.8 123.5 383.3 123.1C383.8 122.7 384.1 122.1 384.1 121.3C384.1 120.7 383.9 120.2 383.5 119.8C383.1 119.4 382.6 119.2 381.9 119.2C381.4 119.2 381.1 119.3 380.8 119.4C380.5 119.5 380.3 119.7 380.1 119.9C379.9 120.1 379.8 120.4 379.6 120.7C379.4 121 379.3 121.3 379.2 121.6C379.1 121.8 379 121.9 378.8 122C378.6 122.1 378.4 122.1 378.1 122.1C377.8 122.1 377.5 122 377.3 121.7C377 121.5 376.9 121.1 376.9 120.7C376.9 120.3 377 119.9 377.3 119.5C377.5 119.1 377.9 118.7 378.3 118.3C378.8 117.9 379.3 117.6 380 117.4C380.7 117.2 381.4 117 382.3 117C383 117 383.7 117.1 384.3 117.3C384.9 117.5 385.4 117.8 385.9 118.2C386.3 118.6 386.7 119 386.9 119.5C387.1 120 387.2 120.5 387.2 121.1C387.2 121.9 387 122.5 386.7 123C386.4 123.5 385.9 124.1 385.3 124.6C385.9 124.9 386.4 125.3 386.8 125.7C387.2 126.1 387.5 126.6 387.7 127.1C387.9 127.6 388 128.1 388 128.7C388 129.4 387.9 130.1 387.6 130.7C387.3 131.3 386.9 131.9 386.4 132.4C385.9 132.9 385.2 133.3 384.5 133.6C383.8 133.9 382.9 134 382.1 134C381.2 134 380.4 133.8 379.7 133.5C379 133.2 378.4 132.8 377.9 132.3C377.4 131.8 377.1 131.3 376.8 130.8C376.6 130.3 376.4 129.8 376.4 129.5C376.4 129.1 376.5 128.7 376.8 128.4C377.1 128.1 377.4 128 377.9 128C378.1 128 378.3 128.1 378.5 128.2C378.7 128.3 378.8 128.5 378.9 128.6C379.3 129.7 379.7 130.4 380.2 130.9C380.7 131.4 381.3 131.7 382.1 131.7C382.6 131.7 383 131.6 383.5 131.4C384 131.2 384.3 130.8 384.6 130.4C384.9 129.9 385 129.4 385 128.8C385 127.9 384.8 127.2 384.3 126.7C383.8 126.2 383.1 125.9 382.3 125.9C382.1 125.9 381.9 125.9 381.6 125.9C381.3 125.9 381.1 125.9 381 125.9C380.6 125.9 380.3 125.8 380 125.6C379.8 125.4 379.7 125.1 379.7 124.7C379.7 124.3 379.8 124 380.1 123.8C380.4 123.6 380.8 123.5 381.3 123.5H381.5V123.7Z" fill="#2D1F04"/>
<path d="M295.4 206.6C295.9 206 296.5 205.5 297.1 205.2C297.7 204.9 298.4 204.8 299.1 204.8C299.8 204.8 300.5 204.9 301.1 205.2C301.7 205.5 302.2 205.8 302.7 206.3C303.2 206.8 303.5 207.4 303.8 208.1C304 208.8 304.2 209.5 304.2 210.2C304.2 211.3 304 212.2 303.5 213.1C303 214 302.3 214.6 301.5 215.1C300.6 215.6 299.6 215.8 298.5 215.8C297.2 215.8 296.1 215.5 295.2 214.9C294.3 214.3 293.6 213.4 293.1 212.2C292.6 211 292.4 209.5 292.4 207.8C292.4 206.4 292.5 205.1 292.8 204C293.1 202.9 293.5 201.9 294.1 201.2C294.7 200.5 295.3 199.9 296.1 199.5C296.9 199.1 297.8 198.9 298.8 198.9C299.8 198.9 300.6 199.1 301.4 199.5C302.1 199.9 302.7 200.3 303.1 200.9C303.5 201.5 303.7 202 303.7 202.5C303.7 202.8 303.6 203.1 303.3 203.3C303.1 203.6 302.8 203.7 302.4 203.7C302.1 203.7 301.8 203.6 301.5 203.4C301.2 203.2 301 202.9 300.9 202.6C300.7 202.1 300.4 201.8 300.1 201.5C299.8 201.2 299.3 201.1 298.8 201.1C298.4 201.1 298 201.2 297.6 201.4C297.2 201.6 296.9 201.9 296.6 202.3C295.9 203.1 295.5 204.6 295.4 206.6ZM298.5 213.7C299.3 213.7 299.9 213.4 300.4 212.8C300.9 212.2 301.1 211.4 301.1 210.3C301.1 209.6 301 209 300.7 208.5C300.5 208 300.1 207.6 299.7 207.4C299.3 207.2 298.8 207 298.4 207C297.9 207 297.5 207.1 297.1 207.4C296.7 207.6 296.3 208 296.1 208.5C295.9 209 295.7 209.5 295.7 210.2C295.7 211.2 296 212.1 296.5 212.8C297 213.3 297.7 213.7 298.5 213.7Z" fill="#2D1F04"/>
<path d="M298.2 125.5C305.3 122.8 314.1 122.4 322.9 122.4C327.3 122.4 331.6 119.7 335.8 120.4C340 121.1 344 124.1 347.5 125.5C343.9 126.9 340 129.9 335.8 130.6C331.6 131.3 327.3 128.6 322.9 128.6C314.1 128.6 305.3 128.3 298.2 125.5Z" fill="#2D1F04"/>
<path d="M368 80.4996C354.3 90.0996 346.8 98.4996 335.2 106.2C323.5 113.8 311.5 120.7 298.3 125.6C308 115.4 319.2 107.2 330.8 99.4996C342.5 91.9996 353.5 88.6996 367.7 80.0996L368 80.4996Z" fill="#2D1F04"/>
<path d="M290.6 83.9997C290.7 84.5997 279.1 79.3997 273.4 72.5997C278 78.4997 280.3 86.7997 282.3 93.7997C291.2 125.6 278.4 150.1 268.8 167.1C226.3 167.3 179 167.6 179 167.6C171.4 167.6 165.3 173.5 165.3 180.7L163.2 225.7C143.9 222.7 128.4 217.2 118 212.5C106.6 191.1 87 186 68.5 189.6C73.2 125.8 90.5 96.3997 108.2 73.1997C126.7 48.8997 153.9 29.5997 189.7 26.5997C199.9 25.6997 203.9 26.4997 214.3 25.8997C215.6 25.7997 230.1 25.1997 230.4 25.4997C231.8 26.8997 226 29.3997 226 29.3997C226 29.3997 247.1 35.6997 261.5 28.7997C261.8 28.6997 259.7 37.5997 257.2 40.1997C263 40.1997 282.2 50.5997 284.4 52.7997C284.5 52.8997 285.1 53.6997 284.9 53.7997C283.7 54.3997 271.9 51.6997 271.4 51.5997C271.9 51.9997 288.7 61.9997 289.3 68.9997C289.5 71.9997 274.9 65.2997 274.9 65.9997C274.9 66.4997 288.3 72.3997 290.6 83.9997Z" fill="#2D1F04"/>
<path d="M172.5 333.8C165.9 334.5 159.5 335.2 154.9 331.6C151.7 329 112.6 296.1 93.5 280C89.8 276.9 91.9 270.8 96.7 270.6L161.3 267.8L158.8 320.7C158.8 324.7 160.7 328.3 163.6 330.8C166 332.6 169.1 333.8 172.5 333.8Z" fill="#2D1F04"/>
<path opacity="0.23" d="M290.6 83.9997C290.7 84.6997 279.1 79.3997 273.4 72.5997C278 78.4997 280.3 86.7997 282.3 93.7997C283.4 97.6997 284.1 101.4 284.6 105.1C272.6 79.5997 247.4 58.3997 214.9 52.0997C178.6 45.1997 143.2 54.8997 118 95.6997C97.6001 128.8 95.9001 163.5 99.5001 193.4C89.9001 188.4 79.0001 187.6 68.4001 189.6C73.1001 125.8 90.4001 96.3997 108.1 73.1997C126.7 48.8997 153.8 29.5997 189.6 26.5997C199.8 25.6997 203.8 26.4997 214.2 25.8997C215.5 25.7997 230 25.1997 230.3 25.4997C231.7 26.8997 225.9 29.3997 225.9 29.3997C225.9 29.3997 247 35.6997 261.4 28.7997C261.7 28.6997 259.6 37.5997 257.1 40.1997C262.9 40.1997 282.1 50.5997 284.3 52.7997C284.4 52.8997 284.9 53.6997 284.8 53.7997C283.6 54.3997 271.8 51.6997 271.3 51.5997C271.9 51.9997 288.7 61.9997 289.3 68.9997C289.5 71.9997 274.9 65.2997 274.9 65.9997C274.9 66.4997 288.3 72.3997 290.6 83.9997Z" fill="#2D1F04"/>
<path d="M116.8 126.7C116.6 114.5 121 89.2998 140 74.5998C149.7 67.9998 176 76.7998 198.1 76.4998C203.3 78.7998 205 77.9998 210.7 77.8998C215.9 77.7998 226 76.0998 232.4 79.1998C225.4 79.5998 227.4 83.9998 229.4 86.6998C234.5 93.2998 251 98.6998 263.7 107.5C278.2 117.6 275 132.7 272 145.3C261.2 190.2 223 196.6 197.8 196.2C159.5 195.6 117.5 171.6 116.8 126.7Z" fill="#2D1F04"/>
<path d="M197.7 115.6C182.2 113.7 163.3 129.6 166.5 142C169.7 154.4 188.3 162.4 198.5 163.7C235.9 168.6 229.4 133.2 222.9 126.9C221.4 125.5 218.7 122.4 216.5 122.1" fill="#2D1F04"/>
<path d="M186 103.2C158.3 138.3 116.8 128.7 116.8 126.7C117 99.8001 128.2 84.0001 140 74.6001C155.7 69.1001 176.3 76.2001 198.1 76.5001C200.6 78.3001 197.8 88.2001 186 103.2Z" fill="#2D1F04"/>
<path d="M234.2 93.5996C222.9 117.8 221 158.5 263 166.8C270.1 154.9 275.5 138.8 274.7 122.2C273.6 117.3 269.2 111.6 261.2 105.9C251.5 98.9996 242.6 95.0996 234.2 93.5996Z" fill="#2D1F04"/>
<path d="M292.3 62.7996C293.1 62.8996 292.7 62.8996 293.5 62.5996L292.3 62.7996Z" fill="#2D1F04"/>
<path d="M51.1001 213.7C51.2001 213.5 51.3001 213.2 51.5001 213L51.1001 213.7Z" fill="#2D1F04"/>
<path d="M260.3 202.2C260.3 202 260.3 202 260.5 202.1L260.3 202.2Z" fill="#2D1F04"/>
<path d="M68.5 189.6C73.2 125.8 90.5 96.3997 108.2 73.1997C126.8 48.8997 153.9 29.5997 189.7 26.5997C199.9 25.6997 203.9 26.4997 214.3 25.8997C215.6 25.7997 230.1 25.1997 230.4 25.4997C231.8 26.8997 226 29.4997 226 29.4997C226 29.4997 247.1 35.7997 261.5 28.8997C261.8 28.7997 259.7 37.7997 257.2 40.2997C263 40.2997 282.2 50.6997 284.4 52.8997C284.5 52.9997 285 53.7997 284.9 53.8997C283.7 54.4997 271.4 51.6997 271.4 51.6997C271.4 51.6997 288.8 61.8997 289.3 68.9997C289.5 71.9997 274.9 65.2997 274.9 65.9997C274.9 66.4997 288.3 72.3997 290.7 83.9997C290.8 84.5997 279.2 79.3997 273.5 72.5997C278.1 78.4997 280.4 86.7997 282.4 93.7997C296.6 144.6 255.6 176.7 260.4 189.5" stroke="#2D1F04" stroke-width="2.62" stroke-miterlimit="10" stroke-linecap="round" stroke-linejoin="round"/>
<path d="M222.8 124.7C223.7 121.3 217.7 116.8 209.4 114.5C201.1 112.3 193.6 113.2 192.7 116.5C191.8 119.9 197.8 124.4 206.1 126.7C214.4 129 221.9 128.1 222.8 124.7Z" fill="#2D1F04"/>
<path opacity="0.23" d="M172.5 333.8C170.8 334 169.1 334.2 167.5 334.3L93.1001 272.2C94.0001 271.3 95.2001 270.6 96.8001 270.5L161.4 267.7L158.9 320.6C158.9 324.6 160.8 328.2 163.7 330.6C166 332.6 169.1 333.8 172.5 333.8Z" fill="#2D1F04"/>
<path d="M163.3 225.5L162.9 233.5L161.3 267.6L156.6 267.8C156.6 267.7 156.5 267.6 156.5 267.6C156.4 267.5 156.4 267.4 156.4 267.3C156.2 266.8 156 266.3 155.7 265.9C155.4 265.2 155.1 264.6 154.7 264C154.3 263.1 153.8 262.3 153.3 261.4C153.1 261 152.8 260.6 152.6 260.2C152.6 260.1 152.5 260 152.4 259.9C152.1 259.4 151.9 259 151.6 258.6C151.3 258.2 151 257.7 150.7 257.3C150.4 256.9 150.1 256.4 149.8 256C148.9 254.7 147.9 253.5 146.9 252.3C146.6 252 146.4 251.7 146.1 251.3C146 251.2 145.9 251.1 145.8 251C145.5 250.7 145.3 250.4 145 250.1C144.9 250 144.9 249.9 144.8 249.9C144.5 249.6 144.2 249.3 144 249.1C143.9 249 143.8 248.9 143.8 248.9C143.5 248.6 143.2 248.3 142.9 248C142.2 247.3 141.5 246.7 140.7 246C140.3 245.7 140 245.4 139.6 245.1C139.2 244.8 138.9 244.5 138.5 244.2C138.5 244.2 138.4 244.2 138.4 244.1C138 243.8 137.7 243.5 137.3 243.3C136.2 242.4 135 241.6 133.8 240.9C133.4 240.6 133 240.4 132.6 240.2C131.8 239.7 131 239.2 130.2 238.8C128.2 237.7 126.1 236.7 124 235.8C123.6 235.6 123.2 235.4 122.7 235.3C122.3 235.1 121.8 235 121.4 234.8C120.1 234.3 118.8 233.9 117.5 233.5C117.1 233.3 116.6 233.2 116.2 233.1C115.8 233 115.3 232.8 114.9 232.7C113.6 232.3 112.3 232 111 231.7C110.2 231.5 109.3 231.3 108.5 231.1C108 231 107.6 230.9 107.1 230.8C106.7 230.7 106.2 230.6 105.8 230.6C104.1 230.3 102.4 230 100.7 229.8C100.3 229.7 99.9 229.7 99.4 229.6C99 229.5 98.6 229.5 98.1 229.4C97.3 229.3 96.4 229.2 95.6 229.1C93.8 228.9 92.1 228.8 90.4 228.7C90.1 228.7 89.8 228.6 89.5 228.6C88.3 228.5 87.1 228.5 85.9 228.4C85.8 228.3 72.2 228.2 72 228.1C59.1 220.8 44.9 220.3 35.3 218.7C20.8 216.3 37.7 204.7 39 203.6C47.1 196.9 57.5 191.8 68.4 189.7C86.8 186.1 106.5 191.2 117.9 212.5C128.6 217.4 143.8 222.5 163.3 225.5Z" fill="#2D1F04"/>
<g opacity="0.35">
<path d="M149.9 281C140.5 249.6 119.6 237.4 105.2 231.7C75.7001 236 51.3001 252 44.9001 273.5C76.6001 278.7 125.3 268.9 137.4 295.8C143 308.2 147.8 316 151.1 315.1C156 313.8 154.1 295.1 149.9 281Z" fill="#2D1F04"/>
<path d="M151 315.4C147.7 316.3 142.8 308.5 137.3 296.1C136.7 294.9 136.1 293.7 135.4 292.6C140.2 291.1 147.1 285.7 149.6 280.2C149.7 280.5 149.8 280.8 149.9 281.2C154 295.3 155.9 314 151 315.4Z" fill="#2D1F04"/>
<path d="M105.2 231.7C123.2 238.8 141.6 253.2 149.9 281C154.1 295.1 156 313.8 151.1 315.2C147.8 316.1 142.9 308.3 137.4 295.9C125.3 269 76.6001 278.8 44.9001 273.6" stroke="#2D1F04" stroke-width="2.62" stroke-miterlimit="10" stroke-linecap="round" stroke-linejoin="round"/>
<path d="M135.4 292.3C140.6 291.1 147.4 285.8 149.5 279.6" stroke="#2D1F04" stroke-width="2.62" stroke-miterlimit="10" stroke-linecap="round" stroke-linejoin="round"/>
<path d="M144 287.5C146.4 291.3 150.7 301.199 151.9 314.799" stroke="#2D1F04" stroke-width="2.62" stroke-miterlimit="10" stroke-linecap="round" stroke-linejoin="round"/>
</g>
<g opacity="0.26">
<path d="M138.6 284.1C130.9 251.2 107.8 235.4 93.3001 230.9C84.1001 246.3 64.4001 257.4 59.1001 274C86.9001 276.3 117.2 277.3 125.2 298.2C130 310.9 134.5 319 137.8 318.2C142.8 317.2 141.9 298.4 138.6 284.1Z" fill="#2D1F04"/>
<path d="M137.7 318.5C134.3 319.2 129.9 311.1 125.1 298.5C124.6 297.2 124 296 123.4 294.9C128.3 293.6 135.5 288.7 138.2 283.3C138.3 283.6 138.4 283.9 138.4 284.3C141.9 298.6 142.7 317.4 137.7 318.5Z" fill="#2D1F04"/>
<path d="M93.3002 230.9C112 238.6 131.4 254.1 138.6 284.1C142 298.4 142.9 317.2 137.9 318.3C134.5 319 130.1 310.9 125.3 298.3C116.3 274.9 79.7002 276.4 49.7002 273.2" stroke="#2D1F04" stroke-width="2.62" stroke-miterlimit="10" stroke-linecap="round" stroke-linejoin="round"/>
<path d="M123.4 294.6C128.6 293.7 135.7 288.8 138.2 282.7" stroke="#2D1F04" stroke-width="2.62" stroke-miterlimit="10" stroke-linecap="round" stroke-linejoin="round"/>
<path d="M132.3 290.2C134.5 294.1 138.2 304.3 138.7 317.9" stroke="#2D1F04" stroke-width="2.62" stroke-miterlimit="10" stroke-linecap="round" stroke-linejoin="round"/>
</g>
<g opacity="0.15">
<path d="M158.4 226.6C137.4 201 106.4 204 81.5999 214.5C84.0999 227.3 89.6999 239.2 96.7999 249.9C118.6 240.2 139 234.2 151.3 245.6C161.6 255.1 169.4 260.6 172.4 258.4C176.9 255.1 167.9 238.2 158.4 226.6Z" fill="#2D1F04"/>
<path d="M172.4 258.7C169.4 260.9 161.5 255.4 151.3 245.9C150.3 245 149.2 244.1 148.1 243.4C152.4 240 157.3 232.3 157.7 226.1C157.9 226.4 158.1 226.6 158.4 226.9C167.9 238.5 176.9 255.4 172.4 258.7Z" fill="#2D1F04"/>
<path d="M81.5 214.4C104.9 204.4 137.3 200.8 158.4 226.5C167.9 238.2 176.9 255.1 172.4 258.3C169.4 260.5 161.5 255 151.3 245.5C135.2 230.6 105.4 245.4 76.7 259.2" stroke="#2D1F04" stroke-width="2.62" stroke-miterlimit="10" stroke-linecap="round" stroke-linejoin="round"/>
<path d="M148 242.999C152.8 239.899 157.7 232.099 157.5 225.399" stroke="#2D1F04" stroke-width="2.62" stroke-miterlimit="10" stroke-linecap="round" stroke-linejoin="round"/>
<path d="M154.9 235C158.7 237.7 166.8 245.4 173.1 257.7" stroke="#2D1F04" stroke-width="2.62" stroke-miterlimit="10" stroke-linecap="round" stroke-linejoin="round"/>
</g>
<g opacity="0.24">
<path d="M156.9 240.8C138.9 213.9 109.6 212.7 83.2002 220.2C84.6002 233.2 87.9002 246.2 93.0002 258.4C115.8 250.7 136.9 246.5 148.1 259.1C157.4 269.5 164.7 275.8 167.9 273.9C172.6 271 165.3 253.3 156.9 240.8Z" fill="#2D1F04"/>
<path d="M167.9 274.1C164.7 276 157.4 269.8 148.1 259.3C147.2 258.3 146.2 257.3 145.1 256.5C149.7 253.6 155.3 246.3 156.3 240.2C156.5 240.5 156.7 240.8 156.9 241.1C165.3 253.5 172.6 271.2 167.9 274.1Z" fill="#2D1F04"/>
<path d="M82.9001 220.2C108.1 212.9 138.6 213.5 156.9 240.8C165.3 253.3 172.6 271 167.9 273.8C164.7 275.7 157.4 269.5 148.1 259C133.8 243 103.9 254 74.6001 264.9" stroke="#2D1F04" stroke-width="2.62" stroke-miterlimit="10" stroke-linecap="round" stroke-linejoin="round"/>
<path d="M145 256.2C150.1 253.5 155.7 246.3 156.1 239.6" stroke="#2D1F04" stroke-width="2.62" stroke-miterlimit="10" stroke-linecap="round" stroke-linejoin="round"/>
<path d="M152.6 248.8C156.2 251.8 163.5 260.2 168.6 273.1" stroke="#2D1F04" stroke-width="2.62" stroke-miterlimit="10" stroke-linecap="round" stroke-linejoin="round"/>
</g>
<g opacity="0.35">
<path d="M157.3 256.2C143.7 225.3 113.4 220.2 84.5001 223.2C80.0001 236.7 77.0001 249.4 74.6001 265C104.5 259.6 134.5 254.9 145.4 272.6C152.7 284.5 158.8 291.9 162.3 290.6C167.4 288.7 163.3 270 157.3 256.2Z" fill="#2D1F04"/>
<path d="M162.2 290.9C158.7 292.2 152.6 284.8 145.3 272.9C144.6 271.7 143.7 270.6 142.9 269.6C148 267.5 154.8 261.3 156.8 255.5C156.9 255.8 157.1 256.1 157.2 256.4C163.2 270.3 167.3 289 162.2 290.9Z" fill="#2D1F04"/>
<path d="M84.4 223.3C109.9 220 143 223.9 157.2 256.3C163.2 270.1 167.3 288.8 162.2 290.7C158.7 292 152.6 284.6 145.3 272.7C134.4 255 104.4 259.7 74.5 265.1" stroke="#2D1F04" stroke-width="2.62" stroke-miterlimit="10" stroke-linecap="round" stroke-linejoin="round"/>
<path d="M142.8 269.3C148.2 267.6 155 261.4 156.6 254.9" stroke="#2D1F04" stroke-width="2.62" stroke-miterlimit="10" stroke-linecap="round" stroke-linejoin="round"/>
<path d="M151.6 263.4C154.6 267 160.3 276.6 163.1 290.1" stroke="#2D1F04" stroke-width="2.62" stroke-miterlimit="10" stroke-linecap="round" stroke-linejoin="round"/>
</g>
<path d="M161.4 307C157.9 308.1 152.2 300.3 145.6 288C126.1 251.6 33.8 295.8 13.6 265.6C4.89998 252.6 14 235.6 31.5 217.1C30 216 29 214.3 31 211.8C32.3 210.1 33.8 208.5 35.4 206.9C46.7 206 70.3 207.7 86 228.3C110.8 229.3 144.9 235.4 158.5 272.4C163.7 286.5 166.6 305.4 161.4 307Z" fill="#2D1F04"/>
<path d="M161.3 307.3C157.8 308.4 152.1 300.6 145.5 288.3C144.8 287.1 144.1 285.9 143.3 284.9C148.5 283.1 155.7 277.4 158.1 271.7C158.2 272 158.3 272.3 158.5 272.7C163.6 286.7 166.6 305.7 161.3 307.3Z" fill="#2D1F04"/>
<path opacity="0.23" d="M163.8 303.3C163.4 305.3 162.6 306.7 161.4 307.1C157.9 308.2 152.2 300.4 145.6 288.1C126.1 251.7 33.8001 295.9 13.6001 265.7C4.90009 252.7 14.0001 235.7 31.4001 217.2C29.9001 216.1 28.9001 214.4 30.9001 211.9C32.2001 210.2 33.7001 208.6 35.3001 207C41.2001 206.5 50.4001 206.8 60.1001 210C54.3001 213.5 46.7001 218.4 45.6001 220.3C42.4001 220 34.0001 228.8 29.5001 239.7C25.0001 250.6 22.3001 269.1 39.1001 269.3C56.0001 269.5 113.4 257.1 130.7 265.9C144.3 272.8 151.1 291 163.8 303.3Z" fill="#2D1F04"/>
<path d="M32.9001 208.9C31.4001 210.7 27.1001 215 31.4001 217.1C35.7001 219.2 44.4001 219.8 50.1001 220.8C55.8001 221.7 66.2001 225.6 72.6001 228.2C76.2001 228.1 82.8001 228.1 86.5001 228.3C82.0001 222.5 76.2001 216.3 64.5001 211.3C52.8001 206.4 40.4001 206.1 35.2001 206.6C34.5001 207.4 32.9001 208.9 32.9001 208.9Z" fill="#2D1F04"/>
<path opacity="0.23" d="M112.1 203.6C88.5001 193.1 57.9001 206.1 57.3001 208.9C49.0001 208.9 45.2001 218.1 47.5001 220.4C43.1001 219.7 38.9001 219.3 35.4001 218.7C20.9001 216.3 37.8001 204.7 39.1001 203.6C47.2001 196.9 57.6001 191.8 68.5001 189.7C84.1001 186.7 100.5 189.8 112.1 203.6Z" fill="#2D1F04"/>
<path d="M72.2 228.1C96 228.1 142.1 227.8 158.5 272.4C163.7 286.5 166.7 305.5 161.4 307.1C157.9 308.2 152.2 300.4 145.6 288.1C126.1 251.7 33.8 295.9 13.6 265.7C4.89998 252.7 14 235.7 31.5 217.2" stroke="#2D1F04" stroke-width="2.62" stroke-miterlimit="10" stroke-linecap="round" stroke-linejoin="round"/>
<path d="M123.9 227.2C108.1 170.6 51.5002 185.8 30.9002 211.8C29.3002 213.9 29.2002 215.9 31.4002 217.1C34.0002 218.6 41.7002 219.2 50.7002 220.9" stroke="#2D1F04" stroke-width="2.62" stroke-miterlimit="10" stroke-linecap="round" stroke-linejoin="round"/>
<path d="M51.9001 208.1L49.6001 212.7" stroke="#2D1F04" stroke-width="2.62" stroke-miterlimit="10" stroke-linecap="round" stroke-linejoin="round"/>
<path d="M62.9 211.4L60.5 216" stroke="#2D1F04" stroke-width="2.62" stroke-miterlimit="10" stroke-linecap="round" stroke-linejoin="round"/>
<path d="M35.3 206.9C46.3 205.9 68.9 207.4 85.6 227.8" stroke="#2D1F04" stroke-width="2.62" stroke-miterlimit="10" stroke-linecap="round" stroke-linejoin="round"/>
<path d="M165.1 49.1997L162.8 56.4997" stroke="#2D1F04" stroke-width="3.87" stroke-miterlimit="10" stroke-linecap="round" stroke-linejoin="round"/>
<path d="M41 249.1L43.4 256.4" stroke="#2D1F04" stroke-width="3.87" stroke-miterlimit="10" stroke-linecap="round" stroke-linejoin="round"/>
<path d="M46.4001 244L48.7001 251.3" stroke="#2D1F04" stroke-width="3.87" stroke-miterlimit="10" stroke-linecap="round" stroke-linejoin="round"/>
<path d="M173.7 50.0996L171.4 57.3996" stroke="#2D1F04" stroke-width="3.87" stroke-miterlimit="10" stroke-linecap="round" stroke-linejoin="round"/>
<path d="M375.6 179.7L369.9 314C369.9 321.3 363.8 327.2 356.2 327.2L201 332.8L172.5 333.8C169.1 333.8 166.1 332.6 163.7 330.7C160.7 328.3 158.9 324.7 158.9 320.6L161.4 267.7L165.5 180.6C165.5 173.4 171.6 167.5 179.2 167.5C179.2 167.5 240.4 167.2 286.1 166.9C331.8 166.6 362.1 166.5 362.1 166.5C369.5 166.5 375.6 172.4 375.6 179.7Z" fill="#2D1F04"/>
<path opacity="0.32" d="M187.7 175C180.1 175.3 174.9 180.9 174 188.1C169.4 225.4 164.5 267.6 158.8 320.7L161.3 267.8L165.4 180.7C165.4 173.5 171.5 167.6 179.1 167.6C179.1 167.6 240.3 167.3 286 167C331.7 166.7 362 166.6 362 166.6C282.4 170.7 235.6 172.9 187.7 175Z" fill="#2D1F04"/>
<path opacity="0.23" d="M375.6 179.7L369.9 314C369.9 321.3 363.8 327.2 356.2 327.2L201 332.8L172.5 333.8C169.1 333.8 166 332.7 163.7 330.7C158 325.6 158.9 321.9 159.1 314.7C160.4 321.6 165.9 326.2 172.5 326.4L194.3 325.6L349.5 319.9C357.1 319.9 363.2 314 363.2 306.7C363.2 306.7 367.7 192 368 184.1C368.3 176.2 364.2 169 353.4 166.4C360.4 166.4 366.5 165.7 370 168.9C373.6 172.5 375.6 176.9 375.6 179.7Z" fill="#2D1F04"/>
<path d="M153.7 322.7L102.9 280.3" stroke="#2D1F04" stroke-width="2.37" stroke-miterlimit="10" stroke-linecap="round" stroke-linejoin="round"/>
<path d="M361.9 166.5C369.5 166.5 375.6 172.4 375.6 179.7L369.9 314C369.9 321.3 363.8 327.2 356.2 327.2L201 332.8L172.5 333.8C169.1 333.8 166 332.6 163.7 330.7C160.7 328.3 158.9 324.7 158.9 320.7L165.4 180.7C165.4 173.4 171.5 167.6 179.1 167.6C179.1 167.6 240.3 167.3 286 167C331.6 166.7 361.9 166.5 361.9 166.5Z" stroke="#2D1F04" stroke-width="2.37" stroke-miterlimit="10" stroke-linecap="round" stroke-linejoin="round"/>
<path d="M92.1 273.6C91.2 275.6 91.5 278.2 93.5 279.9C112.6 296 151.7 329 154.9 331.5C159.5 335.1 165.9 334.5 172.5 333.7" stroke="#2D1F04" stroke-width="2.37" stroke-miterlimit="10" stroke-linecap="round" stroke-linejoin="round"/>
<path d="M257.4 230.2C262.2 230.3 267 230.4 271.7 230.6C275.6 230.8 277 233.6 277.1 236.4C277.3 240.2 275.6 242.8 272.4 244.2C272.2 244.3 272 244.3 271.7 244.4C275.5 246.8 276 251.5 278.2 255.4C275.4 255.4 273 255.4 270.4 255.4C269.2 252.8 268 250.2 266.9 247.6C266.3 246.2 265.4 245.1 263.5 245.5C263.4 248.8 263.3 252.1 263.3 255.5C261 255.5 258.9 255.5 256.6 255.5C256.7 247.1 257.2 238.8 257.4 230.2ZM264 235.5C263.9 237.2 263.9 238.8 263.8 240.7C265.3 240.6 266.7 240.6 268.2 240.4C269.5 240.2 270.2 239.3 270.2 238C270.3 236.7 269.6 235.7 268.3 235.5C266.9 235.4 265.5 235.5 264 235.5Z" fill="#2D1F04"/>
<path d="M298 237.4C295.8 237.6 293.8 237.7 291.7 237.9C291.5 235.8 290.4 234.7 288.5 234.6C287.3 234.6 286.3 235 285.8 236.4C285.8 237.6 286.5 238 287.4 238.3C289 238.8 290.6 239.2 292.1 239.7C293 240 293.8 240.4 294.6 240.8C299.7 243.5 298.8 250.7 295 253.8C293.7 254.8 292.2 255.5 290.6 255.8C288.1 256.3 285.6 256.2 283.2 255.5C280 254.5 278 251.4 278.1 247.3C280.2 247.2 282.2 247 284.4 246.9C284.5 247.4 284.6 247.9 284.7 248.3C285.4 250.7 287.6 251.8 289.7 250.9C290.6 250.5 291.3 249.7 291.4 248.6C291.5 247.5 291 246.7 290.1 246.3C289.4 245.9 288.6 245.7 287.9 245.5C286.4 244.9 284.8 244.5 283.3 243.8C280.4 242.4 279.1 240 279.3 237.2C279.6 234 281.5 231.5 284.6 230.6C287.5 229.7 290.5 229.7 293.4 230.7C296.5 231.6 297.9 233.7 298 237.4Z" fill="#2D1F04"/>
<path d="M173.945 113.26C178.824 101.233 174.605 88.1672 164.523 84.0774C154.44 79.9876 142.312 86.4222 137.433 98.4496C132.555 110.477 136.773 123.542 146.856 127.632C156.938 131.722 169.067 125.287 173.945 113.26Z" fill="#2D1F04"/>
<path d="M269.307 146.22C274.186 134.192 269.967 121.127 259.885 117.037C249.802 112.947 237.674 119.382 232.795 131.409C227.916 143.436 232.135 156.502 242.217 160.592C252.3 164.682 264.428 158.247 269.307 146.22Z" fill="#2D1F04"/>
<path d="M259.8 114.9C268.3 118 272.6 127.3 269.6 135.7L269.2 136.7C266.1 145.1 256.8 149.4 248.3 146.3C239.8 143.2 235.5 133.9 238.5 125.5L238.9 124.5C242 116.2 251.4 111.8 259.8 114.9Z" fill="#2D1F04"/>
<path opacity="0.23" d="M269.6 135.7L269.2 136.7C266.1 145.1 256.8 149.4 248.3 146.3C241.9 144 237.8 138.1 237.5 131.7C238.8 136.7 242.5 140.9 247.7 142.8C256.2 145.9 265.5 141.6 268.6 133.2L269 132.2C269.8 130.1 270.1 128 270 126C270.8 129.1 270.8 132.5 269.6 135.7Z" fill="#2D1F04"/>
<path d="M259.8 114.9C268.3 118 272.6 127.3 269.6 135.7L269.2 136.7C266.1 145.1 256.8 149.4 248.3 146.3C239.8 143.2 235.5 133.9 238.5 125.5L238.9 124.5C242 116.2 251.4 111.8 259.8 114.9Z" stroke="#2D1F04" stroke-width="2.6" stroke-miterlimit="10" stroke-linecap="round" stroke-linejoin="round"/>
<path d="M256.7 138.8C258.522 138.8 260 137.322 260 135.5C260 133.677 258.522 132.2 256.7 132.2C254.877 132.2 253.4 133.677 253.4 135.5C253.4 137.322 254.877 138.8 256.7 138.8Z" fill="#2D1F04"/>
<path d="M164.2 83.0999C172.7 86.1999 177 95.4999 174 103.9L173.6 104.9C170.5 113.3 161.2 117.6 152.7 114.5C144.2 111.4 139.9 102.1 142.9 93.6999L143.3 92.6999C146.4 84.2999 155.7 79.9999 164.2 83.0999Z" fill="#2D1F04"/>
<path opacity="0.23" d="M174 103.9L173.6 104.9C170.5 113.3 161.2 117.6 152.7 114.5C146.3 112.2 142.2 106.3 141.9 99.8997C143.2 104.9 146.9 109.1 152.1 111C160.6 114.1 169.9 109.8 173 101.4L173.4 100.4C174.1 98.3997 174.5 96.2997 174.4 94.1997C175.2 97.2997 175.1 100.6 174 103.9Z" fill="#2D1F04"/>
<path d="M164.2 83.0999C172.7 86.1999 177 95.4999 174 103.9L173.6 104.9C170.5 113.3 161.2 117.6 152.7 114.5C144.2 111.4 139.9 102.1 142.9 93.6999L143.3 92.6999C146.4 84.2999 155.7 79.9999 164.2 83.0999Z" stroke="#2D1F04" stroke-width="2.6" stroke-miterlimit="10" stroke-linecap="round" stroke-linejoin="round"/>
<path d="M160.3 106.5C162.123 106.5 163.6 105.022 163.6 103.2C163.6 101.377 162.123 99.8999 160.3 99.8999C158.478 99.8999 157 101.377 157 103.2C157 105.022 158.478 106.5 160.3 106.5Z" fill="#2D1F04"/>
<path d="M118.1 212.4C128.7 217.3 142.9 222.4 162.6 225.5" stroke="#2D1F04" stroke-width="2.62" stroke-miterlimit="10" stroke-linecap="round" stroke-linejoin="round"/>
<path d="M203.5 76.2996C165.1 79.1996 145.2 60.6996 118.4 87.4996" stroke="#2D1F04" stroke-width="8.0658" stroke-miterlimit="10" stroke-linecap="round" stroke-linejoin="round"/>
<path d="M230.3 87.5C242.6 105.9 276.9 97.3 280.5 139.9" stroke="#2D1F04" stroke-width="8.0658" stroke-miterlimit="10" stroke-linecap="round" stroke-linejoin="round"/>
<path d="M197 136.8C189.2 140.2 186.3 148 182.7 144.7C179.1 141.4 180.3 134.1 187.9 131.3C192.6 132.5 195.2 134.8 197 136.8Z" fill="#2D1F04"/>
<path d="M206.2 124.3C203.3 131.4 202.1 140.3 200.1 139.9C198.1 139.5 196.2 132.7 186.5 131" stroke="#2D1F04" stroke-width="3.2369" stroke-miterlimit="10" stroke-linecap="round" stroke-linejoin="round"/>
<path d="M187.9 131.3C180.3 134.1 179.1 141.4 182.7 144.7C186.3 148 189.1 140.2 197 136.8" stroke="#2D1F04" stroke-width="2.62" stroke-miterlimit="10" stroke-linecap="round" stroke-linejoin="round"/>
<path d="M193.6 133.8C189.6 134.1 186.8 135.5 185 139.1" stroke="#2D1F04" stroke-width="2" stroke-miterlimit="10" stroke-linecap="round" stroke-linejoin="round"/>
<path d="M143.3 284.5C148.8 283.1 156 277.4 158 271" stroke="#2D1F04" stroke-width="2.62" stroke-miterlimit="10" stroke-linecap="round" stroke-linejoin="round"/>
<path d="M152.4 279.2C155.2 283 157.6 286.9 160 291.1" stroke="#2D1F04" stroke-width="2.62" stroke-miterlimit="10" stroke-linecap="round" stroke-linejoin="round"/>
<path d="M138.7 103.8C139.7 110.8 145.7 119 157.5 119.3" stroke="#2D1F04" stroke-width="2.79" stroke-miterlimit="10" stroke-linecap="round" stroke-linejoin="round"/>
<path d="M135.4 106.5C135.8 120.7 151.9 130.8 166.1 122" stroke="#2D1F04" stroke-width="2.79" stroke-miterlimit="10" stroke-linecap="round" stroke-linejoin="round"/>
<path d="M239.6 146.8C244.3 153.4 256.7 154.9 264.5 148.5" stroke="#2D1F04" stroke-width="2.79" stroke-miterlimit="10" stroke-linecap="round" stroke-linejoin="round"/>
<path d="M233.6 145.5C235 157.3 251.1 164.3 266.2 152" stroke="#2D1F04" stroke-width="2.79" stroke-miterlimit="10" stroke-linecap="round" stroke-linejoin="round"/>
<path d="M211.4 76.2C220.2 77.3 230.4 64.8 227.9 48.5" stroke="#2D1F04" stroke-width="2.62" stroke-miterlimit="10" stroke-linecap="round" stroke-linejoin="round"/>
<path d="M230.3 77.4998C232 72.8998 233.9 69.2998 238.5 66.7998" stroke="#2D1F04" stroke-width="2.62" stroke-miterlimit="10" stroke-linecap="round" stroke-linejoin="round"/>
<path d="M148.1 54.1001C143.2 62.0001 140.5 76.2001 148.7 76.2001C156.9 76.2001 154.6 62.1001 148.1 54.1001Z" fill="#2D1F04"/>
<path d="M144.3 63.2001C142.6 69.8001 143.2 76.2001 148.7 76.2001C156.9 76.2001 154.7 62.0001 148.1 54.1001" stroke="#2D1F04" stroke-width="2.62" stroke-miterlimit="10" stroke-linecap="round" stroke-linejoin="round"/>
<path d="M147 73.1001C147.939 73.1001 148.7 71.3092 148.7 69.1001C148.7 66.891 147.939 65.1001 147 65.1001C146.061 65.1001 145.3 66.891 145.3 69.1001C145.3 71.3092 146.061 73.1001 147 73.1001Z" fill="#2D1F04"/>
<path d="M248.4 56C244.5 62.2 242.4 73.6 248.8 73.6C255.2 73.6 253.6 62.4 248.4 56Z" fill="#2D1F04"/>
<path d="M245.3 63.3C244 68.5 244.4 73.6 248.8 73.6C255.3 73.6 253.6 62.4 248.4 56" stroke="#2D1F04" stroke-width="2.62" stroke-miterlimit="10" stroke-linecap="round" stroke-linejoin="round"/>
<path d="M247.5 71.0999C248.273 71.0999 248.9 69.712 248.9 67.9999C248.9 66.2878 248.273 64.8999 247.5 64.8999C246.727 64.8999 246.1 66.2878 246.1 67.9999C246.1 69.712 246.727 71.0999 247.5 71.0999Z" fill="#2D1F04"/>
<path d="M218.2 62.7998C214.6 68.6998 212.5 79.3998 218.6 79.3998C224.7 79.3998 223.1 68.7998 218.2 62.7998Z" fill="#2D1F04"/>
<path d="M215.4 69.6998C214.1 74.5998 214.6 79.3998 218.7 79.3998C224.8 79.3998 223.2 68.7998 218.3 62.7998" stroke="#2D1F04" stroke-width="2.62" stroke-miterlimit="10" stroke-linecap="round" stroke-linejoin="round"/>
<path d="M217.4 77.0996C218.118 77.0996 218.7 75.7565 218.7 74.0996C218.7 72.4428 218.118 71.0996 217.4 71.0996C216.682 71.0996 216.1 72.4428 216.1 74.0996C216.1 75.7565 216.682 77.0996 217.4 77.0996Z" fill="#2D1F04"/>
<path d="M197.5 37.3999C192.6 45.2999 189.9 59.4999 198.1 59.4999C206.3 59.4999 204 45.3999 197.5 37.3999Z" fill="#2D1F04"/>
<path d="M193.7 46.6C192 53.2 192.6 59.6 198.1 59.6C206.3 59.6 204.1 45.4 197.5 37.5" stroke="#2D1F04" stroke-width="2.62" stroke-miterlimit="10" stroke-linecap="round" stroke-linejoin="round"/>
<path d="M196.3 56.5C197.239 56.5 198 54.7091 198 52.5C198 50.2909 197.239 48.5 196.3 48.5C195.361 48.5 194.6 50.2909 194.6 52.5C194.6 54.7091 195.361 56.5 196.3 56.5Z" fill="#2D1F04"/>
<path d="M259.1 100.8C261.4 102 264.3 104.4 267.1 106.4C270.3 108.6 273.5 113.8 276.3 112.2C278.4 110.9 278.7 107.7 276.3 105.3C273.4 102.4 267.1 100.4 259.1 100.8Z" fill="#2D1F04"/>
<path d="M259.1 100.8C261.4 102 264.3 104.4 267.1 106.4C270.3 108.6 273.5 113.8 276.3 112.2C278.3 111 278.8 108 276.6 105.6C273.9 102.6 267.4 100.4 259.1 100.8Z" stroke="#2D1F04" stroke-width="2.62" stroke-miterlimit="10" stroke-linecap="round" stroke-linejoin="round"/>
<path d="M275.233 107.622C275.577 107.121 275.007 106.132 273.96 105.413C272.913 104.694 271.785 104.517 271.441 105.018C271.097 105.519 271.668 106.508 272.715 107.227C273.762 107.946 274.89 108.122 275.233 107.622Z" fill="#2D1F04"/>
<path d="M233.636 222.636V221.545C233.758 209.97 234.97 200.758 237.273 193.909C239.576 187.061 242.848 181.515 247.091 177.273C251.333 173.03 256.424 169.121 262.364 165.545C265.939 163.364 269.152 160.788 272 157.818C274.848 154.788 277.091 151.303 278.727 147.364C280.424 143.424 281.273 139.061 281.273 134.273C281.273 128.333 279.879 123.182 277.091 118.818C274.303 114.455 270.576 111.091 265.909 108.727C261.242 106.364 256.061 105.182 250.364 105.182C245.394 105.182 240.606 106.212 236 108.273C231.394 110.333 227.545 113.576 224.455 118C221.364 122.424 219.576 128.212 219.091 135.364H196.182C196.667 125.061 199.333 116.242 204.182 108.909C209.091 101.576 215.545 95.9697 223.545 92.0909C231.606 88.2121 240.545 86.2727 250.364 86.2727C261.03 86.2727 270.303 88.3939 278.182 92.6364C286.121 96.8788 292.242 102.697 296.545 110.091C300.909 117.485 303.091 125.909 303.091 135.364C303.091 142.03 302.061 148.061 300 153.455C298 158.848 295.091 163.667 291.273 167.909C287.515 172.152 282.97 175.909 277.636 179.182C272.303 182.515 268.03 186.03 264.818 189.727C261.606 193.364 259.273 197.697 257.818 202.727C256.364 207.758 255.576 214.03 255.455 221.545V222.636H233.636ZM245.273 276.455C240.788 276.455 236.939 274.848 233.727 271.636C230.515 268.424 228.909 264.576 228.909 260.091C228.909 255.606 230.515 251.758 233.727 248.545C236.939 245.333 240.788 243.727 245.273 243.727C249.758 243.727 253.606 245.333 256.818 248.545C260.03 251.758 261.636 255.606 261.636 260.091C261.636 263.061 260.879 265.788 259.364 268.273C257.909 270.758 255.939 272.758 253.455 274.273C251.03 275.727 248.303 276.455 245.273 276.455Z" fill="white"/>
</svg>
