<svg width="261" height="383" viewBox="0 0 261 383" fill="none" xmlns="http://www.w3.org/2000/svg">
<g clip-path="url(#clip0_228_3034)">
<path d="M202.6 131.3C175.9 141.5 139.9 161 116.7 194.2C111.6 194.3 106.5 194.2 101.3 193.8C94.1001 177.9 78.3001 161.3 59.4001 154.6C57.1001 149.1 55.1001 143.3 53.7001 137.4C52.9001 134.2 52.3001 131 51.9001 127.8C51.8001 127.3 51.8001 126.9 51.7001 126.4C51.7001 126.3 51.7001 126.2 51.7001 126C51.7001 125.5 51.6 125.1 51.6 124.6C51.6 124.1 51.5 123.6 51.5 123.1C51.5 122.9 51.5 122.8 51.5 122.7C51.5 122.2 51.5001 121.8 51.4001 121.4C51.4001 120.5 51.3 119.5 51.3 118.6C51.3 118.1 51.3 117.5 51.3 117C51.3 116.5 51.3001 116 51.4001 115.4C51.9001 106.7 54.2 98.0001 59 89.9001C61.9 85.0001 65.3 81.2001 69.6 78.1001C67.2 79.3001 61.5001 76.0001 62.8001 72.3001C62.9001 71.9001 64.0001 73.3001 66.8001 73.3001C69.5001 73.3001 71.1 72.1001 71.2 71.9001C71.4 71.4001 70.3 71.3001 69.7 71.3001C62.5 70.5001 58.8001 61.8001 66.8001 56.8001C67.0001 56.6001 67.9 60.0001 70 61.5001C72.8 63.5001 77 63.7001 77 62.7001C70.9 58.7001 74.1 48.6001 82.7 47.0001C82.8 47.0001 81.2001 55.4001 90.9001 57.2001C89.9001 51.5001 91.9001 46.2001 95.9001 43.0001C103.7 36.8001 114 41.5001 114.2 41.6001C115.1 42.0001 109.2 44.2001 109 49.6001C108.8 53.7001 111.6 56.0001 114.3 56.6001C114.9 56.7001 116.2 56.8001 116.2 56.8001C116.2 56.8001 113.3 51.0001 119.8 50.0001C119.9 50.0001 119.1 52.5001 120.2 54.2001C121.3 55.8001 124.3 56.5001 125.7 57.1001C133.3 59.9001 140.9 61.8001 148.1 65.3001C170.9 76.0001 186.3 92.7001 195.7 112.5C198.4 118.5 200.8 124.8 202.6 131.3Z" fill="#2D1F04"/>
<path d="M225.2 379.8C220.4 380.9 209.6 380.9 197.8 380.6C196.3 377.3 194.3 374.4 191.9 371.9C191.7 371.7 191.5 371.5 191.3 371.3C188.2 368.3 184.6 365.9 180.9 364.1C180.7 364 180.4 363.9 180.1 363.7C196.6 363.2 212.1 361.7 223.6 358.6C224 359.9 224.5 361.3 224.9 362.6C226.4 367 232.7 378 225.2 379.8Z" fill="#2D1F04"/>
<path d="M130.8 377C125.5 377.2 114.9 377.5 115.6 377.5C112.8 371.3 107.8 366.4 102.8 362.9C102.4 362.7 102.1 362.4 101.7 362.2C100.8 361.3 99.9001 360.2 99.1001 358.9C110.3 360.7 126.4 362.4 143.7 363.3C144.7 366.1 145.8 368.9 146.9 371.4C149.3 376.8 134.1 376.9 130.8 377Z" fill="#2D1F04"/>
<path d="M105.7 211.5C105.7 211.3 105.7 211 105.7 210.7C105.7 210.1 105.7 209.5 105.6 208.9C105.6 208.9 105.6 208.9 105.6 208.8C105.4 206.2 103.2 197.7 101.4 194.2C104.2 194.3 112.4 194.3 116.7 194.2C114.2 198.3 107.6 209.2 105.5 213.6C105.6 213 105.7 212.2 105.7 211.5Z" fill="#2D1F04"/>
<path d="M197.8 380.6C195.2 380.5 192.5 380.4 189.8 380.4C188.6 380.4 187.3 380.3 186.1 380.3C183.2 380.2 180.3 380.1 177.5 380C177.1 380 176.7 380 176.2 380C175.9 380 175.6 380 175.3 380C173.8 379.9 172.3 379.9 170.9 379.8C170.6 379.8 170.2 379.8 169.9 379.8C167.3 379.7 164.7 379.6 162.4 379.5C162.1 379.5 161.7 379.5 161.4 379.5C161 379.5 160.6 379.5 160.2 379.4C159.7 379.4 159.3 379.4 158.8 379.3C158.4 379.3 157.9 379.3 157.5 379.2C157 379.2 156.5 379.1 156.1 379.1C155.6 379.1 155.1 379 154.7 379C153.8 378.9 153 378.9 152.2 378.8C151.8 378.8 151.5 378.7 151.2 378.7H151.1C150.8 378.7 150.5 378.6 150.3 378.6C150.1 378.6 149.9 378.6 149.8 378.5C149.7 378.5 149.6 378.5 149.6 378.5C149.2 378.4 148.9 378.4 148.7 378.3C148.6 378.3 148.6 378.3 148.5 378.2C148.4 378.2 148.4 378.1 148.3 378.1L148.2 378V377.9C148.8 377.1 149.5 376.4 150.2 375.6C150.4 375.3 150.7 375.1 151 374.8C151.3 374.5 151.5 374.3 151.8 374C152.1 373.7 152.4 373.5 152.7 373.2C154.8 371.4 157.3 369.7 160.6 368.1C161.2 367.8 161.8 367.5 162.4 367.3C162.5 367.3 162.5 367.3 162.6 367.2C162.9 367.1 163.2 366.9 163.5 366.8C163.9 366.6 164.4 366.5 164.8 366.3C165.2 366.1 165.6 366 166 365.9C166.3 365.8 166.6 365.7 166.9 365.6C167.2 365.5 167.6 365.4 167.9 365.3C168.1 365.2 168.3 365.2 168.6 365.1C168.9 365 169.2 364.9 169.5 364.8C169.8 364.7 170.1 364.6 170.4 364.6C171.4 364.3 172.4 364.1 173.5 363.8C174 363.7 174.6 363.6 175.1 363.5C175.9 363.3 176.8 363.2 177.7 363C185.8 365.9 193.9 371.7 197.8 380.6Z" fill="#2D1F04"/>
<path d="M115.6 377.5C114.9 377.5 114.2 377.5 113.5 377.5C100.3 377.7 75.3 379 72.2 379C70.9 379 69.9 379 69.5 378.6C69 378.2 69.3 377.4 70.9 375.8C71 375.7 71.1 375.6 71.2 375.5C71.3 375.4 71.4 375.3 71.5 375.2C71.7 375 72 374.8 72.2 374.5C73.3 373.5 88.8 361.6 101.7 362C107.1 365.7 112.7 370.9 115.6 377.5Z" fill="#2D1F04"/>
<path d="M57.2001 117.8C59.3001 109.2 63.3001 101.7 70.3001 98.0002C79.7001 93.0002 85.7001 94.0002 94.3001 92.1002C97.9001 91.3002 100.7 89.9002 101.3 86.3002C101.6 84.7002 101 83.0002 99.4001 80.7002C102.6 80.7002 106.1 82.0002 108.7 84.1002C114 88.4002 120.8 89.3002 127 89.1002C148.9 88.4002 162.8 91.0002 173.4 110.2C175.8 114.5 179.4 124.4 177 135.4C173.4 151.5 171.5 158.2 154.1 170.2C133.4 184.5 90.5001 191.6 69.1001 164.6C59.0001 151.9 53.2001 134 57.2001 117.8Z" fill="#2D1F04"/>
<path d="M97.2 125.2C90 121.6 84.1 139.8 84.7 145.1C86.7 163.1 113 162.1 125.1 156C142.7 147.2 121.2 118.9 108.6 123.9" fill="#2D1F04"/>
<path d="M57.2001 117.9C53.9001 131.3 57.7001 146.4 60.7001 148.6C63.0001 150.3 75.2001 143 83.3001 130.8C91.9001 118.1 92.5001 104.7 90.2001 102.5C88.9001 101.2 69.7001 99.4003 67.1001 100C63.9001 100.8 59.5001 108.7 57.2001 117.9Z" fill="#2D1F04"/>
<path d="M124.5 101.9C122.5 139.5 167.1 159.4 172.1 152.1C175.3 147.4 181.6 127.8 174.5 112.3C170.8 104.3 163.2 95.2001 159.3 95.2001C152.4 95.1001 143.3 97.3001 135.9 99.0001C129.8 100.4 124.8 99.4001 124.5 101.9Z" fill="#2D1F04"/>
<path d="M70.8 77.2002C66 80.5002 62.1 84.6002 59 89.9002C45 113.6 52.4 141.3 63.7 163.9C64.7 165.9 66.1 168.2 66.4 170.4C66.6 171.5 65.9 173.4 66.4 174.4C66.6 174.8 67.6 173.3 67.7 173.8C68 175.9 67.7 178.3 67.5 180.3C67.4 181.1 66.5 183.2 67.1 182.6C67.3 182.4 67.8 180.7 68.6 180.9C69 181 68.6 192.2 68.4 193.3" stroke="#2D1F04" stroke-width="2.7806" stroke-miterlimit="10" stroke-linecap="round" stroke-linejoin="round"/>
<path d="M69.3001 77.9001C66.9001 79.1001 61.4001 76.1001 62.6001 72.4001C62.7001 72.0001 63.8001 73.4001 66.6001 73.4001C69.3001 73.4001 70.9001 72.2001 71.0001 72.0001C71.2001 71.5001 70.1001 71.4001 69.5001 71.4001C62.3001 70.6001 58.6001 61.9001 66.6001 56.9001C66.8001 56.8001 67.7001 60.1001 69.8001 61.6001C72.6001 63.6001 76.8001 63.8001 76.8001 62.8001C70.7001 58.8001 73.9001 48.7001 82.5001 47.1001C82.7001 47.1001 80.6001 55.5001 90.3001 57.3001" stroke="#2D1F04" stroke-width="2.7806" stroke-miterlimit="10" stroke-linecap="round" stroke-linejoin="round"/>
<path d="M207.9 174.2C208.4 129.6 192.2 85.9002 147.9 65.2002C140.7 61.7002 133.1 59.8002 125.5 57.0002C124.1 56.5002 121.1 55.7002 120 54.2002C118.8 52.5002 119.6 50.0002 119.6 50.0002C113.2 51.1002 116 56.9002 116 56.9002C116 56.9002 114.7 56.8002 114.1 56.7002C111.4 56.1002 108.6 53.8002 108.8 49.7002C109.1 44.3002 114.9 42.1002 114 41.7002C113.8 41.6002 103.6 36.9002 95.7002 43.1002C91.4002 46.5002 89.4002 52.3002 90.9002 58.4002" stroke="#2D1F04" stroke-width="2.7806" stroke-miterlimit="10" stroke-linecap="round" stroke-linejoin="round"/>
<path d="M160.9 116.7C159.1 126.7 133.9 127.5 134.4 114.3C134.6 109 140.7 107 149.7 107C158.7 107 162 110.9 160.9 116.7Z" fill="#2D1F04"/>
<path d="M82.5002 119.7C80.7002 129.7 58.3002 130.9 59.0002 117.7C59.3002 112.4 64.7002 110.3 72.7002 110.2C80.7002 110.1 83.5002 113.9 82.5002 119.7Z" fill="#2D1F04"/>
<path d="M161.1 114.7C158 110.6 152.5 110 145.7 111C139.8 111.9 136.3 113.6 134.5 115.8C134.4 115.3 134.4 114.8 134.4 114.3C134.6 109 140.7 107 149.6 107C157.6 107 161.1 110 161.1 114.7Z" fill="#2D1F04"/>
<path d="M82.6 118.6C80.2 113.8 75.5 113 69.4 114C63 115.1 60.1 117.6 59.2 120.8C58.9 119.9 58.8 118.8 58.9 117.7C59.2 112.4 64.6 110.3 72.6 110.2C80.1 110 83.1 113.4 82.6 118.6Z" fill="#2D1F04"/>
<path d="M92.9001 125.2C92.8001 122.5 98.1001 120 104.8 119.7C111.5 119.4 117.1 121.3 117.2 124C117.3 126.7 112 129.2 105.3 129.5C98.6001 129.9 93.0001 127.9 92.9001 125.2Z" fill="#2D1F04"/>
<path d="M116.1 103C116.1 103 123.8 102.3 132.4 100.7C143.1 98.7001 149.2 93.8001 153.9 94.0001C158.8 94.2001 172.5 100.4 172.5 100.4" stroke="#2D1F04" stroke-width="8.0658" stroke-miterlimit="10" stroke-linecap="round" stroke-linejoin="round"/>
<path d="M92.8001 104.5C92.8001 104.5 85.1001 104.4 77.4001 103.5C70.5001 102.7 63.2001 99.5 59.4001 99.5C55.3001 99.6 43.9001 105.4 43.9001 105.4" stroke="#2D1F04" stroke-width="8.0658" stroke-miterlimit="10" stroke-linecap="round" stroke-linejoin="round"/>
<path d="M160.9 116.7C159.1 126.7 133.9 127.5 134.4 114.3C134.6 109 140.7 107 149.7 107C158.7 107 162 110.9 160.9 116.7Z" stroke="#2D1F04" stroke-width="3.2369" stroke-miterlimit="10" stroke-linecap="round" stroke-linejoin="round"/>
<path d="M82.5002 119.7C80.7002 129.7 58.3002 130.9 59.0002 117.7C59.3002 112.4 64.7002 110.3 72.7002 110.2C80.7002 110.1 83.5002 113.9 82.5002 119.7Z" stroke="#2D1F04" stroke-width="3.2369" stroke-miterlimit="10" stroke-linecap="round" stroke-linejoin="round"/>
<path d="M143.8 116.4C143.8 114.2 145.6 112.4 147.8 112.4C150 112.4 151.8 114.2 151.8 116.4C151.8 118.6 150 120.4 147.8 120.4C145.6 120.4 143.8 118.6 143.8 116.4Z" fill="#2D1F04"/>
<path d="M67.6001 118.601C67.6001 116.401 69.4001 114.601 71.6001 114.601C73.8001 114.601 75.6001 116.401 75.6001 118.601C75.6001 120.801 73.8001 122.601 71.6001 122.601C69.4001 122.701 67.6001 120.901 67.6001 118.601Z" fill="#2D1F04"/>
<path d="M83.7 173.9L79.8 183.8" stroke="#2D1F04" stroke-width="4.1072" stroke-miterlimit="10" stroke-linecap="round" stroke-linejoin="round"/>
<path d="M86.2 186.7V192.7" stroke="#2D1F04" stroke-width="4.1072" stroke-miterlimit="10" stroke-linecap="round" stroke-linejoin="round"/>
<path d="M90.4001 312C88.4001 332.8 86.3001 347.3 86.1001 356.5C75.4001 356.3 40.9001 353.6 41.4001 339.1C41.8001 329 42.6001 304.5 43.0001 292.5C26.3001 290.5 11.5001 287 5.6001 278.4C-1.0999 268.6 -2.1999 219.9 35.6001 178.7C49.1001 179.3 59.4001 182.4 66.7001 185.6C68.4001 186.3 70.1001 187.2 71.9001 188.1C72.3001 188.3 72.6001 188.5 73.0001 188.7C73.1001 188.8 73.3001 188.9 73.5001 189C74.0001 189.3 74.5001 189.5 74.9001 189.8C75.1001 189.9 75.3001 190.1 75.6001 190.2C81.7001 212.2 85.6001 227.7 88.6001 246.6C91.8001 266.4 91.1001 289.6 90.4001 312Z" fill="#2D1F04"/>
<path d="M238.3 285.7C241.1 303.5 242.9 322.9 242.9 343.4C242.9 350.4 235.4 355.2 223.5 358.3C211.8 361.4 195.9 362.8 178.9 363.2C178.8 363.2 175.1 363.2 175 363.3C164.6 363.4 153.8 363.1 143.5 362.6C126.4 361.7 110.4 360.1 98.7001 358.3C95.1001 357.8 95.1002 358.2 92.4002 357.7C91.9002 349.7 90.2002 317.3 90.3002 312.1C90.3002 312.1 89.2002 290.6 90.4002 278.5C93.9002 267.7 97.1002 263.3 102.4 255.1C102.5 255 102.5 254.9 102.6 254.8C118.5 217.7 172 204.4 194.6 200.2C197.1 199.7 199.2 199.4 200.8 199.1L200.7 199H200.8C196.9 193.6 191.6 187.6 186.6 182.7C184.6 180.8 182.7 179 180.9 177.6C188 173.6 197.5 171.1 207.7 169.4C226.5 174.8 232.5 186.1 240.4 200.6C250.9 219.9 259.4 244.2 259.5 253C259.7 261.8 249.1 275.2 238.3 285.7Z" fill="#2D1F04"/>
<path opacity="0.23" d="M228.8 338.9C227.8 340.7 226.2 342.2 224.2 342.9C213 347.2 201.1 349.4 188.7 349.4C183.8 349.4 179.7 345.4 179.7 340.5V302.9C181.1 303 182.6 303.1 184.1 303.1V336.5C184.1 341.4 188.1 345.4 193.1 345.4C205.5 345.4 217.3 343.2 228.6 338.9C228.6 338.9 228.7 338.9 228.8 338.9Z" fill="#2D1F04"/>
<path d="M105.3 213.9C101.5 222.1 98.4001 231 96.3001 240.6C93.6001 253 91.7001 265.8 90.5001 278.5C90.5001 263.5 89.2001 252.1 88.6001 246.7C86.0001 222.6 64.0001 208.3 51.2001 202.9C57.2001 197.7 62.3001 194.6 68.3001 192.5C70.6001 191.7 72.9001 191 75.6001 190.4C73.5001 189 71.1001 187.8 68.6001 186.7C54.2001 180.3 34.0001 177.8 19.1001 181C27.6001 162.1 39.5001 148 53.7001 137.6C55.1001 143.4 57.1001 149.2 59.4001 154.7C86.8001 164.4 107.7 195 105.3 213.9Z" fill="#2D1F04"/>
<path d="M207.9 169.1C197.6 170.8 188.2 173.3 181 177.3C187.3 182.5 195.5 191.3 201 198.8C184.3 201.5 122.1 211.8 102.6 255C98.6 263.9 94.5 274.2 89.3 294.8C90.5 282.1 93.7 253 96.4 240.7C98.5 231.1 101.6 222.2 105.4 214C126.5 168.7 171.1 143.5 202.7 131.4C200.9 124.9 198.5 118.6 195.7 112.5C228.5 119.1 250.2 144.6 259.7 165.3C244.9 165.9 225.3 166.2 207.9 169.1Z" fill="#2D1F04"/>
<path d="M51.4 115.5C50.7 128.8 54.2 142.2 59.4 154.7" stroke="#2D1F04" stroke-width="2.7806" stroke-miterlimit="10" stroke-linecap="round" stroke-linejoin="round"/>
<path d="M202.7 131.8C199.7 121.2 195.5 111.1 189.7 101.9" stroke="#2D1F04" stroke-width="2.7806" stroke-miterlimit="10" stroke-linecap="round" stroke-linejoin="round"/>
<path d="M220.3 300.4C231.4 293.7 259.7 269.4 259.6 252.8C259.6 243.9 251 219.7 240.5 200.4C232.7 185.9 226.4 175.2 207.8 169.2" stroke="#2D1F04" stroke-width="2.7806" stroke-miterlimit="10" stroke-linecap="round" stroke-linejoin="round"/>
<path d="M213.4 267.8C213.4 274.2 200 290.5 187.4 303.2" stroke="#2D1F04" stroke-width="2.7806" stroke-miterlimit="10" stroke-linecap="round" stroke-linejoin="round"/>
<path d="M179.3 232.4C182.3 234.2 186.8 237.7 190.3 240.7C202.8 251.5 210.3 257.2 212.7 262.5C211.4 264.1 211.2 267.1 213.3 267.7" stroke="#2D1F04" stroke-width="2.7806" stroke-miterlimit="10" stroke-linecap="round" stroke-linejoin="round"/>
<path d="M177.9 101.3C177.8 101.2 177.8 101.2 177.7 101.1C176.4 100.2 175.2 99.9 169.1 99.7C153.9 99 138.7 99.5 131.7 100.3C119.6 101.7 115.5 103 113.1 103C109.4 103 106.2 103 104.5 102.9C102.8 102.8 98.5002 101.6 91.3002 100.8C84.1002 100 67.9002 98.6 55.2002 99.4C42.4002 100.2 40.6002 100.6 40.2002 100.9C39.0002 101.7 38.7002 109 39.6002 109.7C40.7002 110.6 43.8002 110.7 44.4002 111.4C45.0002 112.1 45.3002 122.1 50.6002 129.6C56.3002 137.7 73.8002 138 87.7002 132.4C90.4002 131.3 92.2002 130.2 93.7002 128.7C95.6002 126.8 96.8002 124.3 98.1002 120.8C99.8002 116.3 101 112.6 104.4 110.7C105.7 110 107.3 109.6 109.3 109.5C116.7 109.2 117.7 123.4 120.8 127.8C126.3 135.7 148.2 137.6 156.5 134.2C171.6 128.1 172 111.4 173.5 110.6C174.9 109.8 176.7 110.3 177.6 109.7C178.5 109.4 179 102.7 177.9 101.3ZM94.9002 115.2C94.6002 116.2 94.3002 117.2 93.9002 118.1C92.8002 121.2 91.4002 124.2 89.1002 126.4C88.1002 127.3 87.0002 128.1 85.7002 128.6C84.5002 129.1 83.1002 129.5 81.7002 129.9C72.4002 132.2 58.8002 131.7 55.2002 126.6C53.9002 124.8 52.6002 121.4 51.6002 117.8C51.5002 117.4 51.4002 117 51.3002 116.5C50.8002 114.2 50.3002 112.1 50.5002 110.2C50.7002 108 51.9002 106.2 55.2002 104.9C57.4002 104 61.6002 103.7 66.5002 103.6C69.4002 103.6 72.4002 103.7 75.5002 103.8C84.7002 104.3 92.7002 104.6 94.9002 107.6C96.1002 109.6 95.8002 112.3 94.9002 115.2ZM167 114.5C166 118.4 163.6 122.6 160.9 125.6C159.4 127.3 157.8 128.6 156.2 129.2C155.8 129.4 155.3 129.5 154.9 129.7C144.3 133.2 128.5 129.7 124.8 124.6C123.3 122.5 122.3 119.3 121.8 116.4V116.3C121.4 113.5 121.2 111.2 122 109.4C122.6 108 123.8 106.8 125.9 106C128.4 105 134.4 104.4 141 104.1C142.9 104 144.8 103.9 146.7 103.9C155.6 103.6 164.1 103.7 166.3 106.9C167.7 108.7 167.8 111.5 167 114.5Z" fill="#2D1F04"/>
<path d="M177.9 101.3C177 100.3 175.6 100 169.1 99.7C153.9 99 138.7 99.5 131.8 100.3C119.6 101.7 115.5 103 113.2 103C109.6 103 106.3 103 104.6 102.9C102.9 102.8 98.6003 101.7 91.4003 100.8C84.2003 100 68.0003 98.6 55.3003 99.4C42.5003 100.2 40.7003 100.7 40.3003 100.9C39.1003 101.7 38.8003 109 39.7003 109.7C40.8003 110.6 43.9003 110.7 44.5003 111.4C45.1003 112.1 45.4003 122.1 50.7003 129.6C56.4003 137.7 73.9003 138 87.8003 132.4C94.0003 129.9 96.0003 127 98.2003 120.8C100.5 114.6 102 109.8 109.4 109.6C116.8 109.3 117.9 123.6 120.9 127.9C126.4 135.8 148.3 137.7 156.6 134.3C171.7 128.2 172.1 111.5 173.6 110.7C175 109.9 176.8 110.4 177.7 109.8C178.6 109.2 179 102.7 177.9 101.3Z" stroke="#2D1F04" stroke-width="2.62" stroke-miterlimit="10" stroke-linecap="round" stroke-linejoin="round"/>
<path opacity="0.8" d="M94.9002 115.2C94.6002 116.2 94.3002 117.2 93.9002 118.1C92.8002 121.2 91.4002 124.2 89.1002 126.4C88.1002 127.3 87.0002 128.1 85.7002 128.6C84.5002 129.1 83.1002 129.5 81.7002 129.9C72.4002 132.2 58.8002 131.7 55.2002 126.6C53.9002 124.8 52.6002 121.4 51.6002 117.8C51.5002 117.4 51.4002 117 51.3002 116.5C50.8002 114.2 50.3002 112.1 50.5002 110.2C50.7002 108 51.9002 106.2 55.2002 104.9C57.4002 104 61.6002 103.7 66.5002 103.6C69.4002 103.6 72.4002 103.7 75.5002 103.8C84.7002 104.3 92.7002 104.6 94.9002 107.6C96.1002 109.6 95.8002 112.3 94.9002 115.2Z" fill="#2D1F04"/>
<path opacity="0.8" d="M167 114.5C166 118.4 163.6 122.6 160.9 125.6C159.4 127.3 157.8 128.6 156.2 129.2C155.8 129.4 155.3 129.5 154.9 129.7C144.3 133.2 128.5 129.7 124.8 124.6C123.3 122.5 122.3 119.3 121.8 116.4V116.3C121.4 113.5 121.2 111.2 122 109.4C122.6 108 123.8 106.8 125.9 106C128.4 105 134.4 104.4 141 104.1C142.9 104 144.8 103.9 146.7 103.9C155.6 103.6 164.1 103.7 166.3 106.9C167.7 108.7 167.8 111.5 167 114.5Z" fill="#2D1F04"/>
<path d="M94.9002 115.2C94.6002 116.2 94.3002 117.2 93.9002 118.1C92.8002 121.2 91.4002 124.2 89.1002 126.4C88.1002 127.3 87.0002 128.1 85.7002 128.6C84.5002 129.1 83.1002 129.5 81.7002 129.9C72.4002 132.2 58.8002 131.7 55.2002 126.6C53.9002 124.8 52.6002 121.4 51.6002 117.8C51.5002 117.4 51.4002 117 51.3002 116.5C50.8002 114.2 50.3002 112.1 50.5002 110.2C50.7002 108 51.9002 106.2 55.2002 104.9C57.4002 104 61.6002 103.7 66.5002 103.6C69.4002 103.6 72.4002 103.7 75.5002 103.8C84.7002 104.3 92.7002 104.6 94.9002 107.6C96.1002 109.6 95.8002 112.3 94.9002 115.2ZM167 114.5C166 118.4 163.6 122.6 160.9 125.6C159.4 127.3 157.8 128.6 156.2 129.2C155.8 129.4 155.3 129.5 154.9 129.7C144.3 133.2 128.5 129.7 124.8 124.6C123.3 122.5 122.3 119.3 121.8 116.4V116.3C121.4 113.5 121.2 111.2 122 109.4C122.6 108 123.8 106.8 125.9 106C128.4 105 134.4 104.4 141 104.1C142.9 104 144.8 103.9 146.7 103.9C155.6 103.6 164.1 103.7 166.3 106.9C167.7 108.7 167.8 111.5 167 114.5Z" stroke="#2D1F04" stroke-width="2.7806" stroke-miterlimit="10" stroke-linecap="round" stroke-linejoin="round"/>
<path d="M212.3 71.8002C212.6 90.0002 161.8 122.9 95.9999 119.4C34.8999 116.1 16.9999 97.7002 16.7999 83.3002C16.4999 73.0002 25.1999 58.8002 59.2999 48.4002C59.3999 45.1002 59.3999 41.2002 59.4999 36.6002C59.6999 19.6002 56.8999 2.30017 72.9999 2.00017C96.0999 1.60017 111.3 15.5002 123.2 15.1002C140.3 12.6002 155.1 5.60017 162.4 7.70017C172.8 10.7002 177.2 18.7002 172.4 36.2002C171.6 39.1002 171 41.6002 170.6 43.9002C195.8 50.4002 212.1 61.7002 212.3 71.8002Z" fill="#2D1F04"/>
<path opacity="0.32" d="M212.3 71.8004C212.6 89.3004 165.6 120.5 103.4 119.6C162.9 118.6 207.2 88.8004 206.9 71.8004C206.8 63.3004 195.2 54.0004 176.5 47.3004C178.7 46.6004 180.7 47.1004 184.6 48.3004H184.7C201.7 54.9004 212.1 63.8004 212.3 71.8004Z" fill="#2D1F04"/>
<path d="M171.4 64.6001C163.8 79.6001 138.2 95.9001 107.4 96.3001C74.4 96.8001 56 85.9001 55.7 71.0001C65.6 77.1001 86.8 81.1001 103.8 80.9001C120.8 80.6001 157.1 74.5001 171.4 64.6001Z" fill="#2D1F04"/>
<path opacity="0.23" d="M94.8 20.7999C94.4 23.6999 75.1 44.9999 73.5 77.4999C66.3 75.7999 60 73.5999 55.7 70.9999C58.3 62.8999 58.9999 57.1 59.1999 48.4C59.2999 45.1 59.3 41.1999 59.4 36.5999C59.6 19.5999 56.8 2.29995 72.9 1.99995C80 1.89995 86.3999 3.09995 92.0999 4.89995C87.2999 3.89995 82.3 3.49995 81.3 5.89995C79.8 9.39995 95.2 17.7999 94.8 20.7999Z" fill="#2D1F04"/>
<path opacity="0.23" d="M123.1 15.1001C123 15.1001 123 15.1001 123.1 15.1001C115.7 16.2001 107.9 16.4001 100 14.8001C103.6 14.8001 109.8 15.0001 114.6 13.6001C117.6 14.5001 120.4 15.2001 123.1 15.1001Z" fill="#2D1F04"/>
<path opacity="0.23" d="M204.8 86.0004C188.4 103.2 146.6 122.1 95.9 119.3C34.8 116 16.9 97.6004 16.7 83.2004C16.6 77.3004 19.5 70.0004 28.6 62.9004C23.7 68.4004 21.9 73.8004 22 78.4004C22.2 92.8004 40.1 111.2 101.2 114.5C147.2 117 185.8 101.7 204.8 86.0004Z" fill="#2D1F04"/>
<path opacity="0.23" d="M171.4 64.6004C170.9 58.3004 172.5 49.1004 175.3 47.8004C178 46.5004 180 47.0004 184.6 48.4004C180 46.7004 174.8 45.0004 170.5 43.9004C168.3 55.4004 170.5 60.0004 171.4 64.6004Z" fill="#2D1F04"/>
<path d="M99.9 295.1C102.993 295.1 105.5 292.593 105.5 289.5C105.5 286.408 102.993 283.9 99.9 283.9C96.8073 283.9 94.3 286.408 94.3 289.5C94.3 292.593 96.8073 295.1 99.9 295.1Z" fill="#2D1F04"/>
<path opacity="0.23" d="M243 343.4C243 344.3 242.9 345.2 242.6 346.1C242.5 346.3 242.5 346.4 242.4 346.6C242.3 346.9 242.1 347.3 242 347.6C241.9 347.8 241.8 347.9 241.7 348.1C241.5 348.4 241.3 348.8 241.1 349.1C241 349.2 240.9 349.4 240.8 349.6C240.7 349.7 240.6 349.9 240.4 350C238.9 351.7 236.9 353.1 234.4 354.4C234.2 354.5 233.9 354.6 233.7 354.7C233.5 354.8 233.3 354.9 233.1 355C232.9 355.1 232.7 355.2 232.5 355.3C232.2 355.4 231.9 355.6 231.6 355.7C231.3 355.8 231 356 230.6 356.1C230.3 356.2 230 356.3 229.7 356.4C229.1 356.6 228.4 356.9 227.7 357.1C227.4 357.2 227 357.3 226.7 357.4C225.7 357.7 224.6 358 223.5 358.3C222.9 358.5 222.3 358.6 221.6 358.8C221.1 358.9 220.6 359 220.1 359.2C220 359.2 219.8 359.3 219.6 359.3C219 359.4 218.3 359.6 217.7 359.7H217.6C216.9 359.8 216.2 360 215.5 360.1C205 362 192.3 362.9 178.9 363.2C178.9 363.2 175 363.3 174.9 363.3C164.5 363.4 153.7 363.1 143.4 362.6C126.3 361.7 110.3 360.1 98.6001 358.3C95.0001 357.8 95.0001 358.2 92.3001 357.7C91.8001 349.7 90.1001 317.3 90.2001 312.1C90.2001 312.1 89.1001 290.6 90.3001 278.5C93.8001 267.7 97.8001 262.2 94.2001 273C93.0001 285.2 94.1001 306.6 94.1001 306.6C94.0001 311.8 95.6001 351.7 102.5 352.8C114.1 354.7 130.1 356.2 147.3 357.1C157.6 357.6 168.4 357.9 178.8 357.8C178.8 357.8 182.7 357.7 182.8 357.7C194.8 357.5 206.2 356.7 216.1 355.1C216.3 355.1 216.5 355 216.6 355C222.1 353.9 230.4 346.8 230.8 338.7C231.3 330.3 230.3 307 230 298.3C227.6 299.1 222.7 300 220.2 300.5C224.1 297.8 233.8 290.1 238.2 286.3C241.2 303.9 243 323.1 243 343.4Z" fill="#2D1F04"/>
<path d="M86.5001 285.9C84.6001 287.4 82.4001 289.4 77.4001 289.7C76.9001 286.4 75.4001 278.2 76.4001 272.4C77.6001 277.3 79.7001 285.5 86.5001 285.9Z" fill="#2D1F04"/>
<path d="M106.4 258.2C106.8 258.8 106.7 261.8 104.1 263.8C96.7 269.5 94.2 284.7 86.5 285.9C79.6 285.1 77 277.1 76.5 271.9C79.9 268.7 81.6 264.8 88.2 260.5C98.5 254.1 105.3 256.6 106.4 258.2Z" fill="#2D1F04"/>
<path d="M65.7 294.7C66.915 294.7 67.9 293.715 67.9 292.5C67.9 291.285 66.915 290.3 65.7 290.3C64.485 290.3 63.5 291.285 63.5 292.5C63.5 293.715 64.485 294.7 65.7 294.7Z" fill="#2D1F04"/>
<path opacity="0.23" d="M259.7 252.8C259.7 261.9 249.1 275.2 238.4 285.7C238.4 285.9 238.5 286 238.5 286.2C231.7 292.6 224.8 297.9 220.4 300.5C209.7 302.5 197.5 303.4 187.4 303.3C188.6 302.1 189.8 300.8 191 299.6C200.4 300.2 210 300.3 214 299C219.1 297.3 225.2 293.2 232.2 285.6C240.1 277.1 250 262.2 251.6 255.2C254.3 243.8 239.7 220.9 229.8 201C223.5 188.2 213.8 182 201.6 182.2C198.4 182.3 195.9 182.5 194.4 182.9C204.1 192.8 210.2 204.1 213.3 214C166.4 206.4 111.3 240.7 103.7 252.6C120.6 217 172.6 204.1 194.8 200C197.3 199.5 199.4 199.2 201 198.9L200.9 198.8H201C197.1 193.4 191.8 187.4 186.8 182.5C184.8 180.6 182.9 178.8 181.1 177.4C187.1 174.1 194.6 171.8 202.9 170.1C203.7 169.9 204.6 169.8 205.4 169.6C206.2 169.4 207 169.3 207.8 169.2C207.9 169.2 208 169.3 208.1 169.3C220.5 173.4 227.4 179.7 233 187.8C235.4 191.2 237.5 195 239.8 199.1C240 199.5 240.3 200 240.5 200.4C242.9 204.8 245.2 209.5 247.3 214.2C247.8 215.3 248.3 216.4 248.7 217.4C249 218 249.3 218.7 249.5 219.3C250 220.4 250.4 221.5 250.8 222.5C250.9 222.9 251.1 223.2 251.2 223.6C251.9 225.3 252.5 227 253.2 228.6C257.2 239.1 259.6 248.1 259.7 252.8Z" fill="#2D1F04"/>
<path opacity="0.23" d="M233.1 187.8C227.5 179.7 220.6 173.4 208.2 169.3C217.5 172 228.2 178.9 233.1 187.8Z" fill="#2D1F04"/>
<path opacity="0.32" d="M97.3 250.1C98.2 238.1 102.2 226.4 107.5 215.7C124.4 182 156.9 150.6 203.6 134.7C198.4 140.8 193.7 145.2 188.4 149.3C157.6 171.8 115.2 181.1 97.3 250.1Z" fill="#2D1F04"/>
<path opacity="0.32" d="M55.3 155.7C74 162.3 101 181.2 103.2 213C97.3 178.8 67.5 173.5 55.3 155.7Z" fill="#2D1F04"/>
<path opacity="0.23" d="M60.2 353.2C50.1 350.7 41.2 346.4 41.5 339C41.9 329 42.7 304.7 43.1 292.5C47.3 292.9 50.7 293.2 53.8 293.4C53 311.2 52.4 331.3 52.2 337.6C52 346.7 53.8 350.9 60.2 353.2Z" fill="#2D1F04"/>
<path opacity="0.23" d="M44.6001 264V263.8C45.7001 263.5 46.3001 263 46.3001 262.3C46.3001 261.8 46.0001 261.2 45.4001 260.6C45.7001 259.1 45.8001 257.5 45.9001 255.9C45.9001 255.6 45.9001 255.2 45.9001 254.9C46.0001 251.8 45.9001 248.6 45.8001 245.2C45.7001 242.9 45.7001 240.5 45.7001 237.9C45.8001 232.2 46.5001 225.9 48.6001 218.7V218.8C46.4001 244.9 53.4001 255.4 53.4001 265.9C50.3001 264.9 48.5001 264.6 44.6001 264Z" fill="#2D1F04"/>
<path opacity="0.32" d="M151.8 14.7C144.5 17.1 129.3 21.8 121.6 22.5C113.9 23.2 110.8 31.7 128.1 29.3C145.5 26.9 159.8 22.3 163.2 19.8C166.6 17.3 163.9 10.7 151.8 14.7Z" fill="#2D1F04"/>
<path opacity="0.23" d="M208.2 169.3C208.1 169.3 208 169.2 207.9 169.2C208 169.2 208.1 169.3 208.2 169.3Z" fill="#2D1F04"/>
<path opacity="0.23" d="M75.7001 190.4C74.1001 190.8 72.5001 191.2 71.0001 191.7C69.3001 192.2 67.8001 192.8 66.2001 193.4C55.3001 181.7 39.5001 188.1 37.1001 189C33.6001 190.3 22.3001 207.6 16.0001 229.1C9.90009 250.2 10.2001 271.5 17.0001 276.1C23.8001 280.7 42.7001 284.9 59.9001 286.1C60.0001 288.5 60.4001 291 61.0001 293.7C55.8001 293.7 50.3001 293.4 43.0001 292.7C27.9001 290.9 14.3001 287.9 7.50009 280.9C7.30009 280.7 7.00009 280.4 6.80009 280.2C6.40009 279.7 6.00009 279.2 5.60009 278.7C3.10009 275 1.40009 265.9 2.20009 253.7C2.30009 253 2.30009 252.3 2.40009 251.6C2.50009 250.9 2.50009 250.3 2.60009 249.6C2.70009 248.4 2.90009 247.3 3.10009 246.1C3.20009 245.3 3.30009 244.6 3.40009 243.8C3.50009 243.4 3.50009 242.9 3.60009 242.5C3.70009 241.8 3.90009 241 4.00009 240.3C4.10009 239.9 4.20009 239.5 4.20009 239.1C4.30009 238.7 4.40009 238.3 4.50009 237.9C4.60009 237.5 4.70009 237.1 4.80009 236.7C5.00009 236 5.10009 235.2 5.30009 234.5C5.40009 234.3 5.40009 234.1 5.50009 233.9C5.80009 232.8 6.10009 231.6 6.40009 230.5C6.80009 229.2 7.20009 228 7.60009 226.7C8.20009 225 8.80009 223.2 9.40009 221.5C9.60009 221.1 9.70009 220.6 9.90009 220.2C11.9001 214.9 14.4001 209.5 17.5001 204.1C17.7001 203.7 17.9001 203.4 18.1001 203C18.8001 201.8 19.5001 200.7 20.2001 199.5C20.5001 199 20.8001 198.6 21.1001 198.1C21.4001 197.6 21.7001 197.2 22.0001 196.7C22.3001 196.2 22.6001 195.8 22.9001 195.3C23.2001 194.9 23.4001 194.5 23.7001 194.1C23.9001 193.8 24.1001 193.5 24.3001 193.2C24.6001 192.8 24.9001 192.3 25.2001 191.9C25.3001 191.7 25.5001 191.5 25.7001 191.3C26.0001 190.8 26.4001 190.4 26.7001 189.9C27.0001 189.4 27.4001 189 27.8001 188.5C28.1001 188.1 28.5001 187.6 28.8001 187.2C29.0001 187 29.2001 186.7 29.4001 186.5C29.8001 186 30.1001 185.6 30.5001 185.2C30.8001 184.8 31.1001 184.4 31.5001 184C32.7001 182.6 33.8001 181.3 35.1001 179.9C47.0001 180.1 59.8001 182.8 69.6001 187.4V187.3C70.2001 187.6 70.9001 187.9 71.5001 188.3C71.6001 188.4 71.7001 188.4 71.8001 188.5C71.9001 188.6 72.0001 188.6 72.1001 188.7C72.2001 188.8 72.4001 188.9 72.6001 188.9C72.6001 188.9 72.7001 188.9 72.7001 189C73.7001 189.2 74.7001 189.8 75.7001 190.4Z" fill="#2D1F04"/>
<path opacity="0.23" d="M77.4001 293.4C75.6001 293.4 74.0001 293.6 70.3001 293.7C70.0001 291.6 69.7001 289.1 69.6001 286.5C71.8001 286.5 74.1001 286.4 76.4001 286.3C76.7001 288.8 77.0001 291.3 77.4001 293.4Z" fill="#2D1F04"/>
<path d="M88.7 246.8L83 229.2C86 234.4 88.1 240.2 88.7 246.8Z" fill="#2D1F04"/>
<path d="M125.8 245.2C130.6 245.5 135.3 245.6 140 245.9C143.8 246.1 145.2 248.5 145.5 250.8C145.9 254 144.3 256.2 141.1 257.3C140.9 257.4 140.7 257.4 140.4 257.5C144.4 259.5 145.2 263.5 147.4 266.8C144.6 266.8 142.2 266.8 139.6 266.8C138.3 264.7 136.9 262.5 135.6 260.2C134.9 259 133.9 258.1 132 258.5C132 261.3 132.2 264.1 132.4 267C130.1 267.1 128 267.1 125.7 267.2C124.9 260 124.9 252.8 125.8 245.2ZM132.2 250C132.1 251.4 132.1 252.8 132.1 254.4C133.6 254.3 135.1 254.3 136.5 254.2C137.8 254 138.5 253.3 138.5 252.2C138.5 251.1 137.9 250.2 136.5 250.1C135.2 249.9 133.7 250 132.2 250Z" fill="#2D1F04"/>
<path d="M166.7 251.5C164.5 251.7 162.5 251.8 160.3 252C159.9 250.2 158.7 249.3 156.8 249.2C155.6 249.2 154.6 249.5 154.2 250.8C154.3 251.8 155.1 252.2 156 252.4C157.6 252.8 159.3 253.1 160.9 253.6C161.8 253.8 162.7 254.1 163.6 254.5C169.2 256.8 168.5 263.1 164.4 265.7C163.1 266.6 161.4 267.1 159.9 267.3C157.4 267.7 154.9 267.5 152.5 266.9C149.3 266 147.2 263.5 147.1 260C149.2 259.9 151.3 259.8 153.5 259.7C153.6 260.1 153.7 260.5 153.9 260.9C154.7 262.9 156.9 263.9 159 263.1C160 262.8 160.7 262.1 160.7 261.1C160.8 260.2 160.2 259.5 159.3 259.2C158.6 258.9 157.8 258.7 157 258.5C155.4 258 153.7 257.7 152.2 257.1C149.2 256 147.7 253.9 147.8 251.6C147.9 248.9 149.8 246.8 152.8 246C155.6 245.2 158.5 245.1 161.5 245.9C164.6 246.5 166.2 248.3 166.7 251.5Z" fill="#2D1F04"/>
<path opacity="0.23" d="M225.2 379.8C220.4 380.9 209.6 380.9 197.8 380.6C196.3 377.3 194.3 374.4 191.9 371.9C191.7 371.7 191.5 371.5 191.3 371.3C188.2 368.3 184.6 365.9 180.9 364.1C180.7 364 180.4 363.9 180.1 363.7C196.6 363.2 212.1 361.7 223.6 358.6C224 359.9 224.5 361.3 224.9 362.6C226.4 367 232.7 378 225.2 379.8Z" fill="#2D1F04"/>
<path opacity="0.23" d="M130.8 377C125.5 377.2 114.9 377.5 115.6 377.5C112.8 371.3 107.8 366.4 102.8 362.9C102.4 362.7 102.1 362.4 101.7 362.2C100.8 361.3 99.9001 360.2 99.1001 358.9C110.3 360.7 126.4 362.4 143.7 363.3C144.7 366.1 145.8 368.9 146.9 371.4C149.3 376.8 134.1 376.9 130.8 377Z" fill="#2D1F04"/>
<g opacity="0.23">
<path d="M197.8 380.6C195.2 380.5 192.5 380.4 189.8 380.4C188.6 380.4 187.3 380.3 186.1 380.3C183.2 380.2 180.3 380.1 177.5 380C177.1 380 176.7 380 176.2 380C175.9 380 175.6 380 175.3 380C173.8 379.9 172.3 379.9 170.9 379.8C170.6 379.8 170.2 379.8 169.9 379.8C167.3 379.7 164.7 379.6 162.4 379.5C162.1 379.5 161.7 379.5 161.4 379.5C161 379.5 160.6 379.5 160.2 379.4C159.7 379.4 159.3 379.4 158.8 379.3C158.4 379.3 157.9 379.3 157.5 379.2C157 379.2 156.5 379.1 156.1 379.1C155.6 379.1 155.1 379 154.7 379C153.8 378.9 153 378.9 152.2 378.8C151.8 378.8 151.5 378.7 151.2 378.7H151.1C150.8 378.7 150.5 378.6 150.3 378.6C150.1 378.6 149.9 378.6 149.8 378.5C149.7 378.5 149.6 378.5 149.6 378.5C149.2 378.4 148.9 378.4 148.7 378.3C148.6 378.3 148.6 378.3 148.5 378.2C148.4 378.2 148.4 378.1 148.3 378.1L148.2 378V377.9C148.8 377.1 149.5 376.4 150.2 375.6C150.4 375.3 150.7 375.1 151 374.8C151.3 374.5 151.5 374.3 151.8 374C152.1 373.7 152.4 373.5 152.7 373.2C154.8 371.4 157.3 369.7 160.6 368.1C161.2 367.8 161.8 367.5 162.4 367.3C162.5 367.3 162.5 367.3 162.6 367.2C162.9 367.1 163.2 366.9 163.5 366.8C163.9 366.6 164.4 366.5 164.8 366.3C165.2 366.1 165.6 366 166 365.9C166.3 365.8 166.6 365.7 166.9 365.6C167.2 365.5 167.6 365.4 167.9 365.3C168.1 365.2 168.3 365.2 168.6 365.1C168.9 365 169.2 364.9 169.5 364.8C169.8 364.7 170.1 364.6 170.4 364.6C171.4 364.3 172.4 364.1 173.5 363.8C174 363.7 174.6 363.6 175.1 363.5C175.9 363.3 176.8 363.2 177.7 363C185.8 365.9 193.9 371.7 197.8 380.6Z" fill="#2D1F04"/>
<path d="M115.6 377.5C114.9 377.5 114.2 377.5 113.5 377.5C100.3 377.7 75.3 379 72.2 379C70.9 379 69.9 379 69.5 378.6C69 378.2 69.3 377.4 70.9 375.8C71 375.7 71.1 375.6 71.2 375.5C71.3 375.4 71.4 375.3 71.5 375.2C71.7 375 72 374.8 72.2 374.5C73.3 373.5 88.8 361.6 101.7 362C107.1 365.7 112.7 370.9 115.6 377.5Z" fill="#2D1F04"/>
<path d="M197.8 380.6C195.2 380.5 192.5 380.4 189.8 380.4C188.6 380.4 187.3 380.3 186.1 380.3C183.2 380.2 180.3 380.1 177.5 380C177.1 380 176.7 380 176.2 380C175.9 380 175.6 380 175.3 380C173.8 379.9 172.3 379.9 170.9 379.8C170.6 379.8 170.2 379.8 169.9 379.8C167.3 379.7 164.7 379.6 162.4 379.5C162.1 379.5 161.7 379.5 161.4 379.5C161 379.5 160.6 379.5 160.2 379.4C159.7 379.4 159.3 379.4 158.8 379.3C158.4 379.3 157.9 379.3 157.5 379.2C157 379.2 156.5 379.1 156.1 379.1C155.6 379.1 155.1 379 154.7 379C153.8 378.9 153 378.9 152.2 378.8C151.8 378.8 151.5 378.7 151.2 378.7H151.1C150.8 378.7 150.5 378.6 150.3 378.6C150.1 378.6 149.9 378.6 149.8 378.5C149.7 378.5 149.6 378.5 149.6 378.5C149.2 378.4 148.9 378.4 148.7 378.3C148.6 378.3 148.6 378.3 148.5 378.2C148.4 378.2 148.4 378.1 148.3 378.1L148.2 378V377.9C148.8 377.1 149.5 376.4 150.2 375.6C150.4 375.3 150.7 375.1 151 374.8C151.3 374.5 151.5 374.3 151.8 374C152.1 373.7 152.4 373.5 152.7 373.2C154.8 371.4 157.3 369.7 160.6 368.1C161.2 367.8 161.8 367.5 162.4 367.3C162.5 367.3 162.5 367.3 162.6 367.2C162.9 367.1 163.2 366.9 163.5 366.8C163.9 366.6 164.4 366.5 164.8 366.3C165.2 366.1 165.6 366 166 365.9C166.3 365.8 166.6 365.7 166.9 365.6C167.2 365.5 167.6 365.4 167.9 365.3C168.1 365.2 168.3 365.2 168.6 365.1C168.9 365 169.2 364.9 169.5 364.8C169.8 364.7 170.1 364.6 170.4 364.6C171.4 364.3 172.4 364.1 173.5 363.8C174 363.7 174.6 363.6 175.1 363.5C175.9 363.3 176.8 363.2 177.7 363C185.8 365.9 193.9 371.7 197.8 380.6Z" fill="#2D1F04"/>
<path d="M115.6 377.5C114.9 377.5 114.2 377.5 113.5 377.5C100.3 377.7 75.3 379 72.2 379C70.9 379 69.9 379 69.5 378.6C69 378.2 69.3 377.4 70.9 375.8C71 375.7 71.1 375.6 71.2 375.5C71.3 375.4 71.4 375.3 71.5 375.2C71.7 375 72 374.8 72.2 374.5C73.3 373.5 88.8 361.6 101.7 362C107.1 365.7 112.7 370.9 115.6 377.5Z" fill="#2D1F04"/>
</g>
<path opacity="0.23" d="M104.1 263.8C96.7001 269.5 94.2001 284.7 86.5001 285.9C84.6001 287.4 82.4001 289.4 77.4001 289.7C77.2001 288.4 76.9001 286.4 76.6001 284.1C80.3001 283.5 82.4001 281.9 85.8001 276.9C91.4001 268.7 103.5 260.6 102.1 256.4C104.4 256.7 105.9 257.5 106.4 258.2C106.8 258.8 106.7 261.8 104.1 263.8Z" fill="#2D1F04"/>
<path d="M101.8 362.1C107.2 365.7 112.3 370 115.2 375.8" stroke="#2D1F04" stroke-width="2.7806" stroke-miterlimit="10" stroke-linecap="round" stroke-linejoin="round"/>
<path d="M180.2 363.7C187.9 367.2 194.4 373.1 197.8 379.9" stroke="#2D1F04" stroke-width="2.7806" stroke-miterlimit="10" stroke-linecap="round" stroke-linejoin="round"/>
<path d="M71.5 377.8C76.5 373.7 98.9 365.3 107.3 366.8" stroke="#2D1F04" stroke-width="2.7806" stroke-miterlimit="10" stroke-linecap="round" stroke-linejoin="round"/>
<path d="M150.4 377.7C158.1 373.8 167.6 371 176.9 369.9C181 369.4 185 369.2 188.8 369.4" stroke="#2D1F04" stroke-width="2.7806" stroke-miterlimit="10" stroke-linecap="round" stroke-linejoin="round"/>
<path d="M105 126.4C103.7 131.2 103.4 142.4 105.3 145.8C110.4 145.8 115.5 144.1 116.5 141.6" stroke="#2D1F04" stroke-width="3.2369" stroke-miterlimit="10" stroke-linecap="round" stroke-linejoin="round"/>
<path d="M171.8 363.9C158.2 367.3 152 373 148.2 377.7C147.7 378.8 161.8 379.3 177.5 379.9C195.7 380.6 217.7 381.5 225.2 379.8C232.7 378.1 226.4 367 224.9 362.6C224.5 361.3 224 360 223.6 358.6" stroke="#2D1F04" stroke-width="2.7806" stroke-miterlimit="10" stroke-linecap="round" stroke-linejoin="round"/>
<path d="M99.2 358.8C100 360.1 100.9 361.2 101.8 362.1C88.9001 361.7 73.3001 373.6 72.3001 374.6C67.8001 378.7 69.2001 379 72.3001 379C75.4001 379 100.4 377.7 113.6 377.5C119 377.4 125.5 377.1 130.8 376.9C134 376.8 149.3 376.7 146.9 371.2C145.9 368.7 144.7 365.9 143.7 363.1" stroke="#2D1F04" stroke-width="2.7806" stroke-miterlimit="10" stroke-linecap="round" stroke-linejoin="round"/>
<path d="M105.4 145.8C102.4 146.3 100.8 146.3 98.9001 146.1" stroke="#2D1F04" stroke-width="3.2369" stroke-miterlimit="10" stroke-linecap="round" stroke-linejoin="round"/>
<path d="M101.3 193.8C106.5 194.1 111.6 194.2 116.7 194.2" stroke="#2D1F04" stroke-width="2.7806" stroke-miterlimit="10" stroke-linecap="round" stroke-linejoin="round"/>
<path d="M53.7001 137.6C39.6001 148 27.6001 162.1 19.1001 181C36.9001 176.9 61.5001 181.3 75.6001 190.4C66.0001 192.7 59.5001 195.8 51.2001 203C64.0001 208.4 86.6001 222.7 88.6001 246.8" stroke="#2D1F04" stroke-width="2.7806" stroke-miterlimit="10" stroke-linecap="round" stroke-linejoin="round"/>
<path d="M195.5 112.4C228.8 118.8 250 144.5 259.6 165.4C236.2 166.4 200.2 166.8 181 177.5C187.3 182.7 195.5 191.5 201 199C184.3 201.7 120 213.6 102.6 255.2" stroke="#2D1F04" stroke-width="2.7806" stroke-miterlimit="10" stroke-linecap="round" stroke-linejoin="round"/>
<path d="M105.4 214C107.9 194.3 85.1 162 56 153.6" stroke="#2D1F04" stroke-width="2.7806" stroke-miterlimit="10" stroke-linecap="round" stroke-linejoin="round"/>
<path d="M93.3 257.8C94.1 252 95.1 246.3 96.3 240.7C110.2 177.4 165.4 145.8 202.7 131.8" stroke="#2D1F04" stroke-width="2.7806" stroke-miterlimit="10" stroke-linecap="round" stroke-linejoin="round"/>
<path d="M238.4 286.3C241.2 304.1 243 322.9 243 343.4C243 371.3 127 364.9 92.6 357.6C91.5 338.4 89.6 311.5 91.1 283.5" stroke="#2D1F04" stroke-width="2.7806" stroke-miterlimit="10" stroke-linecap="round" stroke-linejoin="round"/>
<path d="M229.9 298.2C215.1 302.5 193.5 303.9 179.7 302.9" stroke="#2D1F04" stroke-width="2.7806" stroke-miterlimit="10" stroke-linecap="round" stroke-linejoin="round"/>
<path d="M103.9 285.5C106.1 287.7 106.1 291.3 103.9 293.5C101.7 295.7 98.1001 295.7 95.9001 293.5" stroke="#2D1F04" stroke-width="2.7806" stroke-miterlimit="10" stroke-linecap="round" stroke-linejoin="round"/>
<path d="M180.2 240.8C184.6 241.5 187.9 240.6 194.5 244.5" stroke="#2D1F04" stroke-width="2.7806" stroke-miterlimit="10" stroke-linecap="round" stroke-linejoin="round"/>
<path d="M215.5 262.2C218.2 259.6 224.4 256.3 228.8 256.6" stroke="#2D1F04" stroke-width="2.7806" stroke-miterlimit="10" stroke-linecap="round" stroke-linejoin="round"/>
<path d="M216.2 266.8C220.2 266.5 223.1 266.7 226 267.6" stroke="#2D1F04" stroke-width="2.7806" stroke-miterlimit="10" stroke-linecap="round" stroke-linejoin="round"/>
<path d="M90.4 312C88.4 332.8 86.3 347.3 86.1 356.5C75.4 356.3 42.5 354.6 41.4 339.1C41.3 337.3 42.6 305.4 43 292.5" stroke="#2D1F04" stroke-width="2.7806" stroke-miterlimit="10" stroke-linecap="round" stroke-linejoin="round"/>
<path d="M49.0001 217.7C43.1001 236.8 47.4001 249.3 45.4001 260.7C47.0001 262.1 46.5001 263.5 44.6001 264C56.5001 266 65.0001 269.4 72.6001 271.3C74.0001 271.7 75.2001 271.9 76.4001 271.9" stroke="#2D1F04" stroke-width="2.7806" stroke-miterlimit="10" stroke-linecap="round" stroke-linejoin="round"/>
<path d="M106.4 258.2C106.8 258.8 106.7 261.8 104.1 263.8C96.7 269.5 94.2 284.7 86.5 285.9C79.6 285.1 77 277.1 76.5 271.9C79.9 268.7 81.6 264.8 88.2 260.5C98.5 254.1 105.3 256.6 106.4 258.2Z" stroke="#2D1F04" stroke-width="2.7806" stroke-miterlimit="10" stroke-linecap="round" stroke-linejoin="round"/>
<path d="M60.6001 293.6C54.9001 293.6 49.6001 293.3 41.2001 292.4C26.1001 290.7 11.6001 287.1 5.70008 278.5C-0.89992 268.8 -2.09992 220.5 35.0001 179.5" stroke="#2D1F04" stroke-width="2.7806" stroke-miterlimit="10" stroke-linecap="round" stroke-linejoin="round"/>
<path d="M76.5 271.9C75.6 276.1 76.2 286.4 77.4 293.1C75.6 293.1 74 293.3 70.3 293.4" stroke="#2D1F04" stroke-width="2.7806" stroke-miterlimit="10" stroke-linecap="round" stroke-linejoin="round"/>
<path d="M77.4001 289.7C80.1001 289.6 83.6001 288.8 86.5001 285.9" stroke="#2D1F04" stroke-width="2.7806" stroke-miterlimit="10" stroke-linecap="round" stroke-linejoin="round"/>
<path d="M61.5001 273.9C59.4001 280.2 59.0001 287.9 62.3001 298.1C64.1001 298.2 70.2001 298.1 71.3001 298.1C70.1001 294.4 68.5001 284.2 70.7001 275.8" stroke="#2D1F04" stroke-width="2.7806" stroke-miterlimit="10" stroke-linecap="round" stroke-linejoin="round"/>
<path d="M45.4 260.7C42.9 258.3 38.3 255.8 35.5 255.3" stroke="#2D1F04" stroke-width="2.7806" stroke-miterlimit="10" stroke-linecap="round" stroke-linejoin="round"/>
<path d="M29.6001 262.4C34.7001 262 40.3001 263 44.6001 264" stroke="#2D1F04" stroke-width="2.7806" stroke-miterlimit="10" stroke-linecap="round" stroke-linejoin="round"/>
<path d="M106.4 258.2C97.1 260.2 88.6 268.7 79.5 281.1" stroke="#2D1F04" stroke-width="2.7806" stroke-miterlimit="10" stroke-linecap="round" stroke-linejoin="round"/>
<path d="M55.7002 71.0002C60.1002 58.7002 59.4002 41.2002 59.4002 36.6002C59.6002 19.6002 56.8002 2.30017 72.9002 2.00017C96.0002 1.60017 111.2 15.5002 123.1 15.1002C140.2 12.6002 155 5.60017 162.3 7.70017C172.7 10.7002 177.1 18.7002 172.3 36.2002C171.5 39.1002 166.6 51.6002 171.5 64.6002" stroke="#2D1F04" stroke-width="2.7806" stroke-miterlimit="10" stroke-linecap="round" stroke-linejoin="round"/>
<path d="M170.5 43.8003C195.8 50.3003 212.1 61.7003 212.3 71.7003C212.6 89.9003 161.8 122.8 96.0002 119.3C34.9002 116 17.0002 97.6003 16.8002 83.2003C16.5002 73.0003 25.2002 58.8003 59.3002 48.4003" stroke="#2D1F04" stroke-width="2.7806" stroke-miterlimit="10" stroke-linecap="round" stroke-linejoin="round"/>
<path d="M171.4 64.6001C163.8 79.6001 138.2 95.9001 107.4 96.3001C74.4002 96.8001 56.0002 85.9001 55.7002 71.0001C65.6002 77.1001 86.8002 81.1001 103.8 80.9001C120.8 80.6001 157.1 74.5001 171.4 64.6001Z" stroke="#2D1F04" stroke-width="2.7806" stroke-miterlimit="10" stroke-linecap="round" stroke-linejoin="round"/>
<path d="M100 14.7002C107 16.5002 116.9 15.8002 123.3 15.0002" stroke="#2D1F04" stroke-width="2.7806" stroke-miterlimit="10" stroke-linecap="round" stroke-linejoin="round"/>
<path d="M44.6001 264C40.3001 263 34.7001 262 29.6001 262.4" stroke="#2D1F04" stroke-width="2.7806" stroke-miterlimit="10" stroke-linecap="round" stroke-linejoin="round"/>
<path d="M109.636 234.636V233.545C109.758 221.97 110.97 212.758 113.273 205.909C115.576 199.061 118.848 193.515 123.091 189.273C127.333 185.03 132.424 181.121 138.364 177.545C141.939 175.364 145.152 172.788 148 169.818C150.848 166.788 153.091 163.303 154.727 159.364C156.424 155.424 157.273 151.061 157.273 146.273C157.273 140.333 155.879 135.182 153.091 130.818C150.303 126.455 146.576 123.091 141.909 120.727C137.242 118.364 132.061 117.182 126.364 117.182C121.394 117.182 116.606 118.212 112 120.273C107.394 122.333 103.545 125.576 100.455 130C97.3636 134.424 95.5758 140.212 95.0909 147.364H72.1818C72.6667 137.061 75.3333 128.242 80.1818 120.909C85.0909 113.576 91.5455 107.97 99.5455 104.091C107.606 100.212 116.545 98.2727 126.364 98.2727C137.03 98.2727 146.303 100.394 154.182 104.636C162.121 108.879 168.242 114.697 172.545 122.091C176.909 129.485 179.091 137.909 179.091 147.364C179.091 154.03 178.061 160.061 176 165.455C174 170.848 171.091 175.667 167.273 179.909C163.515 184.152 158.97 187.909 153.636 191.182C148.303 194.515 144.03 198.03 140.818 201.727C137.606 205.364 135.273 209.697 133.818 214.727C132.364 219.758 131.576 226.03 131.455 233.545V234.636H109.636ZM121.273 288.455C116.788 288.455 112.939 286.848 109.727 283.636C106.515 280.424 104.909 276.576 104.909 272.091C104.909 267.606 106.515 263.758 109.727 260.545C112.939 257.333 116.788 255.727 121.273 255.727C125.758 255.727 129.606 257.333 132.818 260.545C136.03 263.758 137.636 267.606 137.636 272.091C137.636 275.061 136.879 277.788 135.364 280.273C133.909 282.758 131.939 284.758 129.455 286.273C127.03 287.727 124.303 288.455 121.273 288.455Z" fill="white"/>
</g>
<defs>
<clipPath id="clip0_228_3034">
<rect width="261" height="383" fill="white"/>
</clipPath>
</defs>
</svg>
