<svg width="377" height="420" viewBox="0 0 377 420" fill="none" xmlns="http://www.w3.org/2000/svg">
<g clip-path="url(#clip0_228_3172)">
<path d="M221.7 375.7C219.3 373.8 203.3 365.7 188.5 359C186.8 358.2 185.2 357.5 183.5 356.7C173.7 352 165 346.7 167.3 342.2C170.1 336.5 171.2 329.6 164.9 318.7C155.1 318.7 144.9 317.5 135.7 315.5C125.9 326.7 115.5 332.7 106.9 340.5C98.6001 348 95.4001 354.8 89.8001 370.8C88.7001 373.9 88.1001 377.7 87.1001 382.3C85.0001 391.5 81.2001 403.5 68.7001 418C64.4001 396 56.4001 386.6 54.2001 376.9C53.8001 375.1 53.6001 373.4 53.6001 371.6C53.8001 360.7 61.9001 345.8 62.9001 337.7C66.2001 310.9 71.8001 298.3 73.0001 290.1C74.0001 283.5 71.8001 274.2 67.9001 266.1C60.5001 250.5 55.4001 237.4 53.9001 225.6C51.6001 207.6 52.3001 206.8 53.0001 199.2C53.5001 193.8 46.8001 179 11.6001 174.8C10.8001 161.2 54.0001 143.6 54.9001 131.9C58.7001 78.4003 79.7001 44.5004 116 27.5004C123.2 24.0004 130.7 22.1003 138.4 19.3004C139.8 18.8004 142.8 18.0004 143.9 16.4004C145.1 14.7004 144.3 12.2004 144.4 12.2004C150.8 13.3004 147.9 19.1004 147.9 19.1004C147.9 19.1004 149.2 19.0004 149.8 18.9004C152.5 18.3004 155.3 16.0004 155.1 11.9004C154.8 6.50035 149 4.30035 149.9 3.90035C150.1 3.80035 160.3 -0.899648 168.2 5.30035C172.3 8.50035 174.2 13.8004 173.2 19.6004C182.9 17.8004 181.3 9.40035 181.4 9.40035C190 10.9004 193.2 21.0003 187.1 25.1003C187.1 26.1003 191.3 25.9004 194.1 23.9004C196.2 22.4004 197.1 19.1004 197.3 19.2004C205.4 24.2004 201.6 32.9004 194.4 33.7004C193.9 33.8004 192.8 33.8004 192.9 34.3004C193 34.5004 194.6 35.6004 197.3 35.7004C200.1 35.7004 201.1 34.4004 201.3 34.7004C202.5 38.4004 196.5 41.4003 194.2 40.3004C198.6 43.4003 202.1 47.3004 205 52.3004C207.1 55.9003 208.8 59.6004 210 63.3004C216.7 84.3004 209.9 107.1 200.3 126.3C199.3 128.3 197.9 130.6 197.6 132.8C197.4 133.9 198.1 135.8 197.6 136.8C197.4 137.2 196.4 135.7 196.3 136.2C196 138.3 196.3 140.7 196.5 142.7C196.6 143.5 197.5 145.6 196.9 145C196.7 144.8 196.2 143.1 195.4 143.3C195 143.5 196.3 155 199.4 162.2C199.1 159.8 205.4 166.6 211.2 180C220.2 200.8 220.8 214.3 220 225.6C219 247.9 221.8 279.8 208.7 301.3C208.6 301.5 208.4 301.8 208.2 302C213.1 315.2 209.2 334 203.6 339.4C206 341.7 208.5 344.1 210.8 346.6C217.9 354.2 223.9 362.5 225.7 370.5C227 376.4 225 378.3 221.7 375.7Z" fill="#2D1F04"/>
<path d="M221.5 375.7C219.1 373.8 203.1 365.7 188.3 359C186.6 358.2 185 357.5 183.3 356.7C189.6 351 201.6 346.5 210.6 346.5C211.1 347 211.6 347.6 212.1 348.2C212.5 348.6 212.9 349 213.2 349.5C214.6 351.1 216 352.8 217.2 354.4C217.7 355.1 218.2 355.7 218.6 356.4C221.9 361 224.3 365.8 225.3 370.4C226.8 376.4 224.8 378.3 221.5 375.7Z" fill="#2D1F04"/>
<path d="M86.9 382.2C84.8 391.4 80.9999 403.4 68.5999 417.9V417.8C64.2999 396 56.4 386.6 54.2 376.9V376.8C67.7 372.6 77.4 373.8 86.9 382.2Z" fill="#2D1F04"/>
<path d="M210.8 346.5C201.8 346.5 189.8 351 183.5 356.7" stroke="#2D1F04" stroke-width="2.7806" stroke-miterlimit="10" stroke-linecap="round" stroke-linejoin="round"/>
<path d="M224.4 376.2C222 370.2 206.1 352.2 198.1 349.6" stroke="#2D1F04" stroke-width="2.7806" stroke-miterlimit="10" stroke-linecap="round" stroke-linejoin="round"/>
<path d="M208.2 301.9C213.1 315.1 209.2 333.9 203.6 339.3C213.6 348.6 223.3 359.8 225.6 370.3C226.9 376.3 224.9 378.2 221.6 375.6C219.2 373.7 203.2 365.6 188.4 358.9C176.9 353.7 164.5 347.4 167.2 342C170.1 336.2 171.6 329.8 164.8 318.6" stroke="#2D1F04" stroke-width="2.7806" stroke-miterlimit="10" stroke-linecap="round" stroke-linejoin="round"/>
<path d="M206.7 80.1005C204.6 71.5005 200.6 64.0005 193.6 60.3005C184.2 55.3005 178.2 56.3005 169.6 54.4005C166 53.6005 163.2 52.2005 162.6 48.6005C162.3 47.0005 162.9 45.3005 164.5 43.0005C161.3 43.0005 157.8 44.3005 155.2 46.4005C149.9 50.7005 143.1 51.6005 136.9 51.4005C115 50.7005 101.1 53.3005 90.4999 72.5005C88.0999 76.8005 84.4999 86.7005 86.8999 97.7005C90.4999 113.8 92.3999 120.5 109.8 132.5C130.5 146.8 173.4 153.9 194.8 126.9C204.9 114.1 210.7 96.2005 206.7 80.1005Z" fill="#2D1F04"/>
<path d="M166.6 87.4004C173.8 83.8004 179.7 102 179.1 107.3C177.1 125.3 150.8 124.3 138.7 118.2C121.1 109.4 142.6 81.1004 155.2 86.1004" fill="#2D1F04"/>
<path d="M206.7 80.1005C210 93.5005 206.2 108.6 203.2 110.8C200.9 112.5 188.7 105.2 180.6 93.0005C172 80.3005 171.4 66.9005 173.7 64.7005C175 63.4005 194.2 61.6005 196.8 62.2005C199.9 63.1005 204.4 71.0005 206.7 80.1005Z" fill="#2D1F04"/>
<path d="M139.4 64.2004C141.4 101.8 96.8 121.7 91.8 114.4C88.6 109.7 82.3 90.1004 89.4 74.6004C93.1 66.6004 100.7 57.5004 104.6 57.5004C111.5 57.4004 120.6 59.6004 128 61.3004C134.1 62.7004 139 61.6004 139.4 64.2004Z" fill="#2D1F04"/>
<path d="M193.1 39.5005C197.9 42.7005 201.8 46.8005 205 52.2005C219 75.9005 211.6 103.6 200.3 126.2C199.3 128.2 197.9 130.5 197.6 132.7C197.4 133.8 198.1 135.7 197.6 136.7C197.4 137.1 196.4 135.6 196.3 136.1C196 138.2 196.3 140.6 196.5 142.6C196.6 143.4 197.5 145.5 196.9 144.9C196.7 144.7 196.2 143 195.4 143.2C195 143.3 195.4 154.5 195.6 155.6" stroke="#2D1F04" stroke-width="2.7806" stroke-miterlimit="10" stroke-linecap="round" stroke-linejoin="round"/>
<path d="M158.8 88.7002C160.1 93.5002 160.4 104.7 158.5 108.1C153.4 108.1 148.3 106.4 147.3 103.9" stroke="#2D1F04" stroke-width="3.2369" stroke-miterlimit="10" stroke-linecap="round" stroke-linejoin="round"/>
<path d="M171 87.5004C171.1 84.8004 165.8 82.3004 159.1 82.0004C152.4 81.7004 146.8 83.6004 146.7 86.3004C146.6 89.0004 151.9 91.5004 158.6 91.8004C165.3 92.1004 170.8 90.2004 171 87.5004Z" fill="#2D1F04"/>
<path d="M147.8 65.2003C147.8 65.2003 140.1 64.5003 131.5 62.9003C120.8 60.9003 114.7 56.0003 110 56.2003C105.1 56.4003 91.3999 62.6003 91.3999 62.6003" stroke="#2D1F04" stroke-width="8.0658" stroke-miterlimit="10" stroke-linecap="round" stroke-linejoin="round"/>
<path d="M171.1 66.8003C171.1 66.8003 178.8 66.7003 186.5 65.8003C193.4 65.0003 200.7 61.8003 204.5 61.8003C208.6 61.9003 220 67.7003 220 67.7003" stroke="#2D1F04" stroke-width="8.0658" stroke-miterlimit="10" stroke-linecap="round" stroke-linejoin="round"/>
<path d="M184.1 146V152" stroke="#2D1F04" stroke-width="4.1072" stroke-miterlimit="10" stroke-linecap="round" stroke-linejoin="round"/>
<path d="M177.7 149V155" stroke="#2D1F04" stroke-width="4.1072" stroke-miterlimit="10" stroke-linecap="round" stroke-linejoin="round"/>
<path d="M158.5 108.1C161.5 108.6 163.1 108.6 165 108.4" stroke="#2D1F04" stroke-width="3.2369" stroke-miterlimit="10" stroke-linecap="round" stroke-linejoin="round"/>
<path d="M194.5 40.1003C196.9 41.3003 202.4 38.3003 201.2 34.6003C201.1 34.2003 200 35.6003 197.2 35.6003C194.5 35.6003 192.9 34.4003 192.8 34.2003C192.6 33.7003 193.7 33.6003 194.3 33.6003C201.5 32.8003 205.2 24.1003 197.2 19.1003C197 19.0003 196.1 22.3003 194 23.8003C191.2 25.8003 187 26.0003 187 25.0003C193.1 21.0003 189.9 10.9003 181.3 9.30029C181.1 9.30029 182.8 17.8003 173.1 19.5003" stroke="#2D1F04" stroke-width="2.7806" stroke-miterlimit="10" stroke-linecap="round" stroke-linejoin="round"/>
<path d="M105.3 74.4999C108.7 78.5999 114.7 79.7999 119.8 78.9999C121.6 78.6999 123.3 78.0999 125 77.1999C126.6 76.2999 128.2 78.4999 127 79.7999C121.9 84.9999 113.2 85.1999 107.2 81.4999C105.5 80.5999 100.1 75.4999 103.4 73.8999C104.1 73.5999 104.8 73.8999 105.3 74.4999Z" fill="#2D1F04"/>
<path d="M183 81.0003C187 85.7003 196.2 85.6003 199.3 79.8003C200.2 78.3003 202.6 79.2003 202.3 80.9003C200.9 88.6003 191.1 91.0003 184.9 87.6003C183 87.0003 177.7 81.7003 181.2 80.2003C181.8 80.1003 182.6 80.4003 183 81.0003Z" fill="#2D1F04"/>
<path d="M53 199.1C52.3 206.6 53.3 216.9 53.9 225.5C54.8 237.4 60.5 250.4 67.9 266C71.8 274.1 74 283.3 73 290C71.8 298.2 66.2 310.8 62.9 337.6C61.9 345.7 53.8 360.6 53.6 371.5C53.4 383.5 63.6 392 68.7 418C87.4 396.3 86.6 380 89.8 370.8C95.3 354.8 98.6 347.9 106.9 340.5C115.5 332.8 125.9 326.8 135.7 315.5C162.3 321.3 196.8 320.7 208.7 301.3C221.9 279.9 219 248 220 225.6C220.5 211.9 220.3 200.8 211.2 180C205.3 166.5 199 159.6 199.4 162.3" stroke="#2D1F04" stroke-width="2.7806" stroke-miterlimit="10" stroke-linecap="round" stroke-linejoin="round"/>
<path d="M172.8 20.5003C174.3 14.3003 172.3 8.60025 168 5.20025C160.1 -0.999746 149.9 3.70025 149.7 3.80025C148.8 4.20025 154.7 6.40025 154.9 11.8003C155.1 15.9003 152.3 18.2003 149.6 18.8003C149 18.9003 147.7 19.0003 147.7 19.0003C147.7 19.0003 150.6 13.2003 144.1 12.1003C144 12.1003 144.8 14.6003 143.7 16.3003C142.6 17.9003 139.6 18.6003 138.2 19.1003C130.6 21.9003 123 23.8003 115.8 27.3003C82.6001 42.8003 62.2001 72.5003 56.1001 118.3" stroke="#2D1F04" stroke-width="2.7806" stroke-miterlimit="10" stroke-linecap="round" stroke-linejoin="round"/>
<path d="M54.2 376.8C67.8 372.6 77.4999 373.8 87.0999 382.2" stroke="#2D1F04" stroke-width="2.7806" stroke-miterlimit="10" stroke-linecap="round" stroke-linejoin="round"/>
<path d="M68.7 417.9C73.5 396.2 70.6 389.3 71.8 375" stroke="#2D1F04" stroke-width="2.7806" stroke-miterlimit="10" stroke-linecap="round" stroke-linejoin="round"/>
<path d="M197.6 252C193.9 252.5 185.7 253.4 181.8 253.7V253.6C177.3 230.2 171.8 218.1 161 198.8C160.9 198.6 160.8 198.5 160.7 198.3C165 197.2 173.7 195.5 177.8 194.1C182.5 202.2 188 213.4 192.1 226C194.7 234.2 196.7 243 197.6 252Z" fill="#2D1F04"/>
<path d="M181.8 253.6C142.7 256 98.6 247.9 55.7 234.1C55.6 234.1 55.5 234 55.4 234C55.3 233.7 55.3 233.4 55.2 233.1C41.5 225.5 50.4 199.3 47.2 189.5C68.5 197.1 84.3 197.6 84.3 197.6H84.5C84.5 197.5 84.5 197.4 84.5 197.3C84.5999 196.8 84.9 194.6 84.9 193.9C85 192.7 85.0999 191.4 85.1999 190C85.2999 188.6 85.4 185.8 85.4 185.8C85.4 185.1 85.4 184.4 85.5 183.7C85.5 180.1 85.5 176.3 85.3 172.4C85 166 84.5 159.1 83.9 152.2C88.9 155.2 95.5 157.4 101.3 159.3C102.9 175.1 106.6 185.8 110.1 196.2C110.1 196.3 110.1 196.5 110 196.7C120.3 200.2 122.1 201.5 132.3 201.6C133.6 201.6 135 201.6 136.3 201.6C138.3 201.6 140.2 201.5 142.1 201.4C148.5 201 154.8 200 160.8 198.7C171.8 218.1 177.3 230.1 181.8 253.6Z" fill="#2D1F04"/>
<path d="M220.7 247C220.3 247.1 220 247.2 219.6 247.3C219.6 247.3 219.6 247.3 219.5 247.3C212.4 249.3 205.1 250.9 197.5 251.9C196.6 242.9 194.6 234.1 191.9 225.9C189.7 208.6 188.6 198.9 187.5 190.3C189.3 189.5 191.2 188.8 192.9 187.9C200.3 184.5 206.1 181.6 210.7 178.7C211.7 178.1 212.6 177.5 213.5 176.9C220.7 191.7 223.2 203.9 223.4 212.5C223.7 221.2 232.4 241.2 220.7 247Z" fill="#2D1F04"/>
<path d="M192 226C187.9 213.4 182.5 202.3 177.7 194.1C181.1 192.9 184.4 191.7 187.6 190.3C188.7 198.9 189.8 208.7 192 226Z" fill="#2D1F04"/>
<path d="M52.6999 233.5C54.4999 237.1 55.8999 244.1 57.6999 248.3C59.1999 268.4 47.4999 327.5 44.3999 346.5C58.3999 360.3 94.0999 367.8 122.4 372.9C133.3 353.5 143.8 322.9 149.3 322.5C154.7 322.2 155.4 334.4 154.4 342.2C177.9 349 214.5 336.4 224.4 330.6C224.2 311.2 218.3 270.4 218.7 264.9C219.1 259.4 222.9 249.2 224.4 246.1C176.2 261.9 113.1 253.4 52.6999 233.5Z" fill="#2D1F04"/>
<path d="M52.6999 233.5C54.4999 237.1 55.8999 244.1 57.6999 248.3C59.1999 268.4 47.4999 327.5 44.3999 346.5C58.3999 360.3 94.0999 367.8 122.4 372.9C133.3 353.5 143.8 322.9 149.3 322.5C154.7 322.2 155.4 334.4 154.4 342.2C177.9 349 214.5 336.4 224.4 330.6C224.2 311.2 218.3 270.4 218.7 264.9C219.1 259.4 222.9 249.2 224.4 246.1C176.2 261.9 113.1 253.4 52.6999 233.5Z" stroke="#2D1F04" stroke-width="2.7806" stroke-miterlimit="10" stroke-linecap="round" stroke-linejoin="round"/>
<path d="M47.2 189.5C50.4 199.2 41.4 225.8 55.2 233.5" stroke="#2D1F04" stroke-width="2.7806" stroke-miterlimit="10" stroke-linecap="round" stroke-linejoin="round"/>
<path d="M161.7 198.2C172.7 217.9 178.3 229.9 182.8 253.6" stroke="#2D1F04" stroke-width="2.7806" stroke-miterlimit="10" stroke-linecap="round" stroke-linejoin="round"/>
<path d="M177.7 194.5C185.5 208 195.4 229.7 197.5 252.4" stroke="#2D1F04" stroke-width="2.7806" stroke-miterlimit="10" stroke-linecap="round" stroke-linejoin="round"/>
<path d="M213.6 177.4C220.8 192.2 223.3 204.4 223.5 213C223.7 221.6 232.3 241.6 220.7 247.4" stroke="#2D1F04" stroke-width="2.7806" stroke-miterlimit="10" stroke-linecap="round" stroke-linejoin="round"/>
<path d="M187.6 190.7C188.7 199.3 189.7 209.1 192 226.4" stroke="#2D1F04" stroke-width="2.7806" stroke-miterlimit="10" stroke-linecap="round" stroke-linejoin="round"/>
<g opacity="0.23">
<path d="M182.3 315C187.6 298.7 190 282.2 190.9 268.4C196.6 275.7 199.9 287.6 201.8 301.6C203.8 290.7 202 275.5 198.1 265.2C191 266.9 186 268.2 177.7 267.9C183.7 282.7 183.5 295.9 182.3 315Z" fill="#2D1F04"/>
<path d="M71.8 256.8C67.9 271 63.5 292.5 63.2 308.5C69.7 287.7 73.4 272.1 82.6 260.5C76.5 259.2 71.8 256.8 71.8 256.8Z" fill="#2D1F04"/>
<path d="M104.5 265.101C105 277.401 94.4999 307.301 88.1999 323.401C81.8999 339.501 76.8999 328.301 82.6999 300.901C83.5999 310.101 85.1999 324.101 89.4999 307.301C93.7999 290.501 93.7999 270.901 92.7999 262.401C97.5999 262.201 104.5 265.101 104.5 265.101Z" fill="#2D1F04"/>
<path d="M115.9 265.8C108.4 283.5 109.9 302 110.4 315C111.6 289.1 117 278 126 268C124.1 266.8 115.9 265.8 115.9 265.8Z" fill="#2D1F04"/>
<path d="M129.5 269.9C132.3 277 133.3 285.1 133.5 291.7C135.5 284 135.4 273.5 134.5 270.4C132.9 269.6 129.5 269.9 129.5 269.9Z" fill="#2D1F04"/>
<path d="M154.8 269.7C154.8 270 154.8 270.3 154.8 270.6C154.9 276.3 159.3 283.6 160.4 294.1C161.4 286.4 159.6 273.7 159 269.9L154.8 269.7Z" fill="#2D1F04"/>
<path opacity="0.23" d="M182.3 315C187.6 298.7 190 282.2 190.9 268.4C196.6 275.7 199.9 287.6 201.8 301.6C203.8 290.7 202 275.5 198.1 265.2C191 266.9 186 268.2 177.7 267.9C183.7 282.7 183.5 295.9 182.3 315Z" fill="#2D1F04"/>
<path opacity="0.23" d="M71.8 256.8C67.9 271 63.5 292.5 63.2 308.5C69.7 287.7 73.4 272.1 82.6 260.5C76.5 259.2 71.8 256.8 71.8 256.8Z" fill="#2D1F04"/>
<path opacity="0.23" d="M104.5 265.101C105 277.401 94.4999 307.301 88.1999 323.401C81.8999 339.501 76.8999 328.301 82.6999 300.901C83.5999 310.101 85.1999 324.101 89.4999 307.301C93.7999 290.501 93.7999 270.901 92.7999 262.401C97.5999 262.201 104.5 265.101 104.5 265.101Z" fill="#2D1F04"/>
<path opacity="0.23" d="M115.9 265.8C108.4 283.5 109.9 302 110.4 315C111.6 289.1 117 278 126 268C124.1 266.8 115.9 265.8 115.9 265.8Z" fill="#2D1F04"/>
<path opacity="0.23" d="M129.5 269.9C132.3 277 133.3 285.1 133.5 291.7C135.5 284 135.4 273.5 134.5 270.4C132.9 269.6 129.5 269.9 129.5 269.9Z" fill="#2D1F04"/>
<path opacity="0.23" d="M154.8 269.7C154.8 270 154.8 270.3 154.8 270.6C154.9 276.3 159.3 283.6 160.4 294.1C161.4 286.4 159.6 273.7 159 269.9L154.8 269.7Z" fill="#2D1F04"/>
</g>
<path d="M55.6001 247.4C92.2001 264.6 176.1 272 223.6 261.4" stroke="#2D1F04" stroke-width="8" stroke-miterlimit="10" stroke-linecap="round" stroke-linejoin="round"/>
<path d="M55.6001 255.1C137.9 281.8 202.9 266.3 223.6 255.1" stroke="#2D1F04" stroke-width="8" stroke-miterlimit="10" stroke-linecap="round" stroke-linejoin="round"/>
<path d="M89.6001 176C96.7001 176.3 103.6 176.8 110.5 177.8C116.1 178.6 118.5 182.4 119.3 185.9C120.5 190.8 118.8 194 114.4 195.3C114.2 195.4 113.9 195.4 113.4 195.5C119.6 199.1 121.5 205.3 125.1 210.6C121 210.2 117.5 209.8 113.7 209.5C111.7 206.1 109.5 202.6 107.2 199C105.9 197.1 104.4 195.6 101.8 196C102.4 200.2 103 204.4 103.2 208.7C99.8001 208.5 96.7001 208.3 93.4001 208.2C92.9001 197.6 90.2001 187 89.6001 176ZM100.1 183.2C100.4 185.4 100.6 187.4 101 189.8C103.1 189.8 105.2 190 107.3 189.9C109.1 189.8 109.9 188.7 109.7 187.1C109.5 185.4 108.3 184 106.3 183.7C104.2 183.3 102.2 183.3 100.1 183.2Z" fill="#2D1F04"/>
<path d="M149.8 189.5C146.7 189.6 143.8 189.6 140.7 189.6C139.8 186.9 138.1 185.3 135.4 185C133.7 184.8 132.3 185.2 131.9 187C132.2 188.6 133.4 189.2 134.7 189.6C137.1 190.4 139.5 191.1 142 191.9C143.3 192.3 144.7 192.9 146 193.5C154.3 197.3 155.1 206.3 149.9 210.1C148.2 211.3 145.9 212.1 143.7 212.4C140.1 212.8 136.4 212.4 132.8 211.1C128 209.4 124.7 205.2 123.8 199.9C126.8 200 129.7 200.2 132.9 200.3C133.2 201 133.4 201.6 133.7 202.1C135.3 205.2 138.7 207 141.6 206C142.9 205.6 143.7 204.7 143.6 203.2C143.5 201.8 142.5 200.8 141.2 200.2C140.1 199.7 138.9 199.3 137.7 198.9C135.3 198 132.8 197.3 130.5 196.2C126 194.1 123.3 190.7 123 187.1C122.6 183.1 125.1 180.1 129.6 179.3C133.8 178.6 138 178.9 142.3 180.4C146.5 182.1 148.7 184.8 149.8 189.5Z" fill="#2D1F04"/>
<path d="M193 262.8C192.2 261.8 189.5 260.5 188.3 260.6C185.6 260.8 182.3 265.7 182.4 268.1C182.5 272 186.6 274.4 190.2 274.6C194.2 274.9 198.6 271 200.7 267.7C204.2 262.1 198.9 255.7 192.8 258.8C187.7 261.4 188.5 266.7 189.7 271.3" stroke="#2D1F04" stroke-width="8" stroke-miterlimit="10" stroke-linecap="round" stroke-linejoin="round"/>
<path d="M168.3 321.3C164.5 320.9 164.4 319.3 164.5 317.1C166.2 287.7 172 272 184.1 264.6C186 263.5 188.4 264 189.6 265.9C190.8 267.8 190.2 270.2 188.3 271.4C178.8 277.2 175.3 289.7 178.9 324.4C179.1 326.6 174.5 322 168.3 321.3Z" fill="#2D1F04"/>
<path d="M204.6 310.3C206 283 203.6 274.2 193.9 270C191.9 269.1 191 266.7 191.9 264.7C192.8 262.7 195.2 261.8 197.2 262.7C211.6 269 215.4 283.7 217.7 310.4C217.9 312.6 217.7 314 214.1 314.7C207.7 316 207.4 320.3 205.8 319.6C204 318.8 204.4 313.6 204.6 310.3Z" fill="#2D1F04"/>
<path d="M178.6 270.2C175.6 270.3 172.7 270.3 169.6 270.3C126.9 270.3 79.6999 263.1 53.7999 251C51.7999 250.1 50.8999 247.7 51.8999 245.7C52.7999 243.7 55.1999 242.8 57.1999 243.8C83.8999 256.3 136.3 263.4 180.3 262.1" stroke="#2D1F04" stroke-width="2.7806" stroke-miterlimit="10" stroke-linecap="round" stroke-linejoin="round"/>
<path d="M205 260.4C211.3 259.7 217.2 258.7 222.6 257.5C224.8 257 226.9 258.4 227.4 260.5C227.9 262.7 226.5 264.8 224.4 265.3C218.3 266.7 212.2 267.7 205.1 268.5" stroke="#2D1F04" stroke-width="2.7806" stroke-miterlimit="10" stroke-linecap="round" stroke-linejoin="round"/>
<path d="M204 258.4C211.9 256.1 217.9 253.7 221.6 251.6C223.5 250.5 226 251.3 227 253.2C227.9 254.9 227.5 257.1 226 258.2" stroke="#2D1F04" stroke-width="2.7806" stroke-miterlimit="10" stroke-linecap="round" stroke-linejoin="round"/>
<path opacity="0.23" d="M209.8 63.2002C208.6 59.4002 207 55.7002 204.8 52.1002C201.9 47.1002 198.3 43.2002 194 40.1002C196.3 41.3002 202.3 38.2002 201.1 34.5002C201 34.1002 199.9 35.5002 197.1 35.5002C194.4 35.4002 192.8 34.3002 192.7 34.1002C192.5 33.6002 193.6 33.5002 194.2 33.5002C201.4 32.7002 205.1 24.0002 197.1 19.0002C196.9 18.8002 196 22.2002 193.9 23.7002C191.1 25.7002 186.9 25.9002 186.9 24.9002C193 20.9002 189.8 10.8002 181.2 9.20016C181 9.20016 182.6 17.7002 173 19.4002C174 13.6002 172.1 8.30016 168 5.10016C160.1 -1.09984 149.9 3.60016 149.7 3.70016C148.8 4.10016 154.6 6.30016 154.9 11.7002C155.1 15.8002 152.3 18.1002 149.6 18.7002C149 18.8002 147.7 18.9002 147.7 18.9002C147.7 18.9002 150.6 13.1002 144.1 12.0002C144 12.0002 144.8 14.5002 143.7 16.2002C142.6 17.8002 139.6 18.5002 138.2 19.1002C130.6 21.9002 123 23.8002 115.8 27.3002C79.6001 44.2002 58.8 77.8002 54.8 130.8C66.4 135.2 78 139.8 89.1 145C88.6 133.6 89 119.7 91.2 103C98.4 48.1002 126.8 34.4002 157 38.1002C184 41.5002 204.6 58.5001 212.1 74.2001C211.7 70.6002 211 66.9002 209.8 63.2002Z" fill="#2D1F04"/>
<path d="M176 272.1C171.8 272.6 167.5 273 162.9 273.3C157.3 273.7 151.7 273.9 146 273.9C116.1 273.9 84.6999 268.8 54.2999 258.9C52.1999 258.2 50.9999 256 51.6999 253.9C52.0999 252.6 53.0999 251.7 54.3999 251.3" stroke="#2D1F04" stroke-width="2.7806" stroke-miterlimit="10" stroke-linecap="round" stroke-linejoin="round"/>
<path d="M190.5 278.6C190.2 278.6 190 278.6 189.7 278.6C184.2 278.2 178.4 274.4 178.2 268.1C178.1 264 182.6 256.9 187.9 256.6C188.1 256.6 188.4 256.6 188.6 256.6C189.2 256.1 189.9 255.6 190.7 255.2C195 253 199.8 253.7 202.9 257.1C206 260.5 206.4 265.6 203.8 269.8C201.2 274.2 195.9 278.6 190.5 278.6Z" stroke="#2D1F04" stroke-width="2.7806" stroke-miterlimit="10" stroke-linecap="round" stroke-linejoin="round"/>
<path d="M188.7 256.6C193.1 256.6 200.9 260.6 196.9 269.3" stroke="#2D1F04" stroke-width="2.7806" stroke-miterlimit="10" stroke-linecap="round" stroke-linejoin="round"/>
<path d="M188.7 263.9C183.6 267.7 183.8 278.3 198 276" stroke="#2D1F04" stroke-width="2.7806" stroke-miterlimit="10" stroke-linecap="round" stroke-linejoin="round"/>
<path d="M183 276.3C177.6 283.7 176.1 297.3 178.9 324.5C179.1 326.6 174.5 322 168.3 321.3C164.5 320.9 164.4 319.3 164.5 317.1C165.9 292.8 170.1 277.9 178.3 269.3" stroke="#2D1F04" stroke-width="2.7806" stroke-miterlimit="10" stroke-linecap="round" stroke-linejoin="round"/>
<path d="M204.9 267.9C213 275.8 215.7 289.4 217.6 310.3C217.8 312.5 217.6 313.9 214 314.6C207.6 315.9 207.3 320.2 205.7 319.5C204.1 318.8 204.4 313.6 204.6 310.3C205.6 290.1 204.6 280.1 200.1 274.5" stroke="#2D1F04" stroke-width="2.7806" stroke-miterlimit="10" stroke-linecap="round" stroke-linejoin="round"/>
<path d="M100.9 159.3C95.1 157.4 88.1 154.8 83.1 151.8C82.6 146.7 82.1 141.5 81.5 136.4C86.2 140.4 95.6 143.7 100.1 145.9L100.2 146C100.2 150.9 100.5 155.3 100.9 159.3Z" fill="#2D1F04"/>
<path d="M50.8001 162.2C21.8001 188.6 -5.99993 170.4 6.90007 140.3C13.7001 124.5 27.4001 113.3 36.6001 106.6C59.3001 90.0005 74.7001 59.1005 92.1001 45.6005C98.9001 44.2005 105.6 44.3005 110.3 45.7005C101.8 71.0005 94.8001 90.1005 83.6001 112.4C71.4001 136.6 62.6001 151.5 50.8001 162.2Z" fill="#2D1F04"/>
<path d="M50.8001 162.2C21.8001 188.6 -5.99993 170.4 6.90007 140.3C13.7001 124.5 27.4001 113.3 36.6001 106.6C59.3001 90.0005 74.7001 59.1005 92.1001 45.6005C98.9001 44.2005 105.6 44.3005 110.3 45.7005C101.8 71.0005 94.8001 90.1005 83.6001 112.4C71.4001 136.6 62.6001 151.5 50.8001 162.2Z" stroke="#2D1F04" stroke-width="2.7806" stroke-miterlimit="10" stroke-linecap="round" stroke-linejoin="round"/>
<path opacity="0.23" d="M102.5 68.3005C96.9001 83.5005 91.3001 97.2005 83.6001 112.4C71.5001 136.6 62.6001 151.4 50.8001 162.2C21.8001 188.6 -5.99993 170.4 6.90007 140.3C13.7001 124.5 27.5001 113.3 36.6001 106.6C59.3001 90.0005 74.7001 59.1005 92.1001 45.6005C98.9001 44.2005 105.6 44.3005 110.3 45.7005C109.5 48.0005 105.5 51.1005 99.8001 51.1005C93.6001 51.2005 92.6001 58.7005 102.5 68.3005Z" fill="#2D1F04"/>
<path d="M125.1 29.8003L125.4 45.6003L43.2001 46.7003L42.9001 31.0003L125.1 29.8003Z" fill="#2D1F04"/>
<path d="M57.7001 38.7005L54.0001 45.0005L50.1001 38.8005L53.8001 32.5005L57.7001 38.7005Z" fill="#2D1F04"/>
<path d="M67.2001 38.6003L63.5001 44.9003L59.6001 38.7003L63.3001 32.3003L67.2001 38.6003Z" fill="#2D1F04"/>
<path d="M76.7001 38.4002L73.0001 44.8002L69.1001 38.5002L72.8001 32.2002L76.7001 38.4002Z" fill="#2D1F04"/>
<path d="M86.2001 38.3005L82.5001 44.6005L78.6001 38.4005L82.3001 32.0005L86.2001 38.3005Z" fill="#2D1F04"/>
<path d="M95.7001 38.2004L92.1001 44.5004L88.1001 38.3004L91.8001 31.9004L95.7001 38.2004Z" fill="#2D1F04"/>
<path d="M105.3 38.0003L101.6 44.4003L97.6001 38.1003L101.3 31.8003L105.3 38.0003Z" fill="#2D1F04"/>
<path d="M114.8 37.9001L111.1 44.2001L107.2 38.0001L110.8 31.6001L114.8 37.9001Z" fill="#2D1F04"/>
<path d="M125.2 37.8004L121.1 45.7004L116.7 37.9004L120.9 29.9004L125.2 37.8004Z" fill="#2D1F04"/>
<path d="M51.5901 31.0706L51.8433 46.769L125.336 45.5838L125.083 29.8853L51.5901 31.0706Z" stroke="#2D1F04" stroke-width="2.7806" stroke-miterlimit="10" stroke-linecap="round" stroke-linejoin="round"/>
<path d="M43.8001 30.0004L50.7001 29.9004C51.4001 29.9004 51.9001 32.4004 52.2001 35.5004C52.3001 36.5004 52.3001 37.7004 52.3001 38.8004C52.3001 40.7004 52.3001 42.5004 52.1001 44.0004C51.9001 46.2004 51.5001 47.7004 50.9001 47.7004L44.0001 47.8004C43.5001 47.8004 43.1001 46.3004 42.9001 44.1004C42.7001 42.6004 42.6001 40.7004 42.6001 38.9004C42.6001 37.8004 42.6001 36.7004 42.6001 35.6004C42.8001 32.6004 43.2001 30.1004 43.8001 30.0004Z" fill="#2D1F04"/>
<path opacity="0.57" d="M42.7002 39.0003L52.4002 38.8003C52.4002 40.7003 52.4002 42.5003 52.2002 44.0003L43.0002 44.2003C42.8002 42.7003 42.7002 40.8003 42.7002 39.0003Z" fill="#2D1F04"/>
<path opacity="0.23" d="M43.8002 30.0004L50.7002 29.9004C51.4002 29.9004 51.9002 32.4004 52.2002 35.5004L42.7002 35.7004C42.8002 32.6004 43.2002 30.1004 43.8002 30.0004Z" fill="#2D1F04"/>
<path d="M43.8002 30.0004L50.7002 29.9004C52.7002 29.9004 53.0002 47.7004 51.0002 47.7004L44.1002 47.8004C42.4002 47.9004 42.1002 30.1004 43.8002 30.0004Z" stroke="#2D1F04" stroke-width="2.7806" stroke-miterlimit="10" stroke-linecap="round" stroke-linejoin="round"/>
<path d="M364.3 46.4001C368.5 47.9001 378.5 60.5001 374.2 59.5001C291 40.1001 126 46.7001 126 46.7001L125.7 28.9001C125.6 28.8001 296.3 21.5001 364.3 46.4001Z" fill="#2D1F04"/>
<path d="M128.2 14.3001C128.3 20.1001 131.7 28.9001 131.8 37.6001C131.9 46.3001 128.8 54.9001 128.9 60.7001C129 66.8001 122 66.9001 121.9 60.8001C121.8 55.0001 118.5 46.4001 118.4 37.8001C118.3 29.0001 121.3 20.2001 121.2 14.4001C121.1 8.80006 128.1 8.60006 128.2 14.3001Z" fill="#2D1F04"/>
<path d="M122.6 42.1002C122.6 40.8002 122.6 39.5002 122.7 38.3002C122.7 37.3002 123.4 36.9002 124.1 36.8002C125 36.7002 125.6 37.1002 125.9 38.0002C125.9 38.0002 125.9 38.1002 126 38.2002C126.6 37.1002 127.7 37.0002 128.6 36.3002C128.6 37.0002 128.6 37.7002 128.6 38.4002C128 38.7002 127.4 39.1002 126.8 39.4002C126.5 39.6002 126.2 39.8002 126.3 40.3002C127.1 40.3002 127.8 40.3002 128.7 40.3002C128.7 40.9002 128.7 41.5002 128.7 42.1002C126.6 42.1002 124.6 42.1002 122.6 42.1002ZM123.8 40.3002C124.2 40.3002 124.6 40.3002 125 40.3002C125 39.9002 125 39.5002 124.9 39.1002C124.9 38.8002 124.6 38.6002 124.3 38.6002C124 38.6002 123.8 38.8002 123.7 39.1002C123.8 39.5002 123.8 39.9002 123.8 40.3002ZM122.7 32.5002C122.5 33.3002 122.5 34.1002 122.7 34.8002C122.9 35.6002 123.5 36.1002 124.3 36.2002C125 36.2002 125.5 35.8002 125.9 35.0002C126.1 34.6002 126.2 34.2002 126.3 33.7002C126.4 33.5002 126.4 33.3002 126.5 33.1002C126.6 32.9002 126.8 32.7002 127 32.7002C127.3 32.7002 127.4 32.9002 127.5 33.1002C127.7 33.7002 127.5 34.3002 126.9 34.5002C126.8 34.5002 126.7 34.6002 126.6 34.6002C126.6 35.2002 126.7 35.7002 126.7 36.3002C127.7 36.3002 128.4 35.7002 128.6 34.8002C128.8 34.1002 128.8 33.5002 128.7 32.8002C128.6 32.4002 128.5 32.0002 128.2 31.6002C127.5 30.6002 125.8 30.5002 125.1 31.9002C125 32.1002 124.9 32.4002 124.8 32.6002C124.7 33.0002 124.6 33.5002 124.5 33.9002C124.4 34.1002 124.3 34.3002 124.1 34.4002C123.8 34.3002 123.7 34.0002 123.7 33.7002C123.7 33.2002 124 32.9002 124.5 32.8002C124.5 32.2002 124.4 31.7002 124.4 31.1002C123.4 31.3002 122.9 31.7002 122.7 32.5002Z" fill="#2D1F04"/>
<path opacity="0.23" d="M128.2 14.3003C128.3 20.1003 131.7 28.9003 131.8 37.6003C131.9 46.2003 128.8 54.9003 128.9 60.7003C129 64.7003 126 66.1003 123.9 64.9003C125 64.2003 125.8 62.8003 125.8 60.7003C125.7 54.9003 128.8 46.2003 128.7 37.6003C128.6 28.9003 125.2 20.1003 125.1 14.3003C125.1 12.3003 124.2 11.1003 123.1 10.5003C125.2 9.40027 128.2 10.6003 128.2 14.3003Z" fill="#2D1F04"/>
<path opacity="0.57" d="M122.4 37.8003C122.5 46.4003 125.5 65.6003 124.5 65.2003C123.1 64.7003 122 63.3003 122 60.9003C121.9 55.1003 118.6 46.5003 118.5 37.9003C118.4 29.2003 121.4 20.3003 121.3 14.5003C121.3 12.5003 122.1 11.2003 123.2 10.6003C124.2 9.90027 122.3 29.0003 122.4 37.8003Z" fill="#2D1F04"/>
<path d="M128.2 14.3001C128.3 20.1001 131.7 28.9001 131.8 37.6001C131.9 46.3001 128.8 54.9001 128.9 60.7001C129 66.8001 122 66.9001 121.9 60.8001C121.8 55.0001 118.5 46.4001 118.4 37.8001C118.3 29.0001 121.3 20.2001 121.2 14.4001C121.1 8.80006 128.1 8.60006 128.2 14.3001Z" stroke="#2D1F04" stroke-width="2.7806" stroke-miterlimit="10" stroke-linecap="round" stroke-linejoin="round"/>
<path d="M205.8 177.1C179.8 179.3 119.2 165.3 100.6 146C96.4 141.6 87 123.2 78.5 91.8004C74.9 78.7004 68.9 62.7004 65.8 59.5004C60.2 53.7004 56.6 47.8004 55.9 40.3004C55.3 33.9004 56.1 29.7004 57.8 27.4004C59.6 25.0004 62.6 22.4004 68.2 23.8004C71.4 22.3004 76.1 23.6004 77.2 24.8004C80.8 29.2004 76.4 32.5004 79 38.7004C81.5 44.9004 80.9 46.9004 84.5 53.3004C87.6 58.0004 96.8 69.2004 111.1 87.9004C122 102.2 129.9 110.6 132.9 113.8C140.8 122.2 160.1 119.4 180.7 120.9C191.2 121.6 206.9 122.2 218.3 131C236.7 145.3 240.8 174.2 205.8 177.1Z" fill="#2D1F04"/>
<path d="M81.7999 48.3005C77.7999 48.1005 74.1999 48.9005 71.2999 51.1005C68.8999 52.9005 66.8999 55.6005 65.7999 59.4005C65.0999 58.7005 64.3999 58.0005 63.7999 57.2005C59.3999 52.2005 56.9999 47.1005 56.3999 40.5005C55.7999 34.3005 55.6999 29.8005 58.1999 26.8005C58.2999 26.7005 58.3999 26.5005 58.4999 26.4005C59.7999 25.0005 62.0999 23.5005 64.7999 23.3005C65.7999 23.3005 66.8999 23.4005 68.1999 23.7005C70.2999 22.7005 73.0999 22.9005 75.0999 23.5005C75.1999 23.5005 75.1999 23.5005 75.2999 23.6005C77.8999 24.7005 78.5999 26.7005 78.6999 29.2005C78.5999 31.8005 78.4999 34.0005 78.9999 38.6005C79.1999 42.1005 80.0999 44.8005 81.7999 48.3005Z" fill="#2D1F04"/>
<path d="M205.8 177.1C179.8 179.3 119.2 165.3 100.6 146C96.4 141.6 87 123.2 78.5 91.8004C74.9 78.7004 68.9 62.7004 65.8 59.5004C60.2 53.7004 57.1 48.1004 56.3 40.6004C55.7 34.1004 55.6 29.5004 58.4 26.5004C60.2 24.5004 64.1 22.4004 68.1 23.8004C70.6 22.4004 73.9 23.1004 75.1 23.7004C80.3 26.0004 77.8 31.4004 78.8 38.7004C79.4 43.6004 80.7 46.9004 84.3 53.3004C87.4 58.0004 96.6 69.2004 110.9 87.9004C121.8 102.2 129.7 110.6 132.7 113.8C140.6 122.2 159.9 119.4 180.5 120.9C191 121.6 206.7 122.2 218.1 131C236.7 145.3 240.8 174.2 205.8 177.1Z" stroke="#2D1F04" stroke-width="2.7806" stroke-miterlimit="10" stroke-linecap="round" stroke-linejoin="round"/>
<path d="M98.4999 48.2002C100.9 49.1002 118.8 46.4002 117.1 25.7002C116.9 22.2002 112 19.8002 104.9 23.9002C101.6 21.6002 97.9999 19.6002 93.8999 22.1002C89.7999 24.6002 94.1999 27.4002 95.0999 32.9002C95.9999 38.5002 93.0999 46.1002 98.4999 48.2002Z" fill="#2D1F04"/>
<path d="M98.4999 48.2002C100.9 49.1002 118.8 46.4002 117.1 25.7002C116.9 22.2002 112 19.8002 104.9 23.9002C101.6 21.6002 97.9999 19.6002 93.8999 22.1002C89.7999 24.6002 94.1999 27.4002 95.0999 32.9002C95.9999 38.5002 93.0999 46.1002 98.4999 48.2002Z" stroke="#2D1F04" stroke-width="2.7806" stroke-miterlimit="10" stroke-linecap="round" stroke-linejoin="round"/>
<path d="M104.8 23.9004C107.6 32.3004 107 37.9004 98.3999 48.2004" stroke="#2D1F04" stroke-width="2.7806" stroke-miterlimit="10" stroke-linecap="round" stroke-linejoin="round"/>
<path d="M116.9 88.7003C118.5 85.2003 128.7 108.9 137.9 113.6C147.1 118.3 188.5 113.1 212.9 126.1C237.2 139.1 237.2 155.2 232.9 164.9C228.6 174.6 219.7 180 201.5 188.4C177 199.6 142.9 208.1 110.1 196.9C115.2 160.1 101.9 121 116.9 88.7003Z" fill="#2D1F04"/>
<path d="M110.3 196.6C106 183.7 101.3 168.8 100.6 145.8C103.2 148.5 106.6 151.1 110.7 153.5C111.5 167.9 112.3 182.4 110.3 196.6Z" fill="#2D1F04"/>
<path opacity="0.58" d="M110.3 196.6C106 183.7 101.3 168.8 100.6 145.8C103.2 148.5 106.6 151.1 110.7 153.5C111.5 167.9 112.3 182.4 110.3 196.6Z" fill="#2D1F04"/>
<path d="M16.1 177.4C7.39998 173.6 -1.50002 170 3.49998 143.8C8.49998 117.6 40.1 94.4005 59.5 78.5005C73 76.3005 58.5 140.3 84 197.4C65.3 197.4 38.1 186.9 16.1 177.4Z" fill="#2D1F04"/>
<path d="M84.2 197.1C75.4 177.4 71.4 156.9 69.3 138.6C72.7 133 76.2 126.7 79.9 119.5C83.1 145.3 87.1 178.8 84.2 197.1Z" fill="#2D1F04"/>
<path opacity="0.58" d="M84.2 197.1C75.4 177.4 71.4 156.9 69.3 138.6C72.7 133 76.2 126.7 79.9 119.5C83.1 145.3 87.1 178.8 84.2 197.1Z" fill="#2D1F04"/>
<path d="M100.6 146C101.1 170 105.9 183.6 110.3 196.9C115.4 160.1 102.1 121.1 117.1 88.7003C118.7 85.2003 128.9 108.9 138.1 113.6C147.3 118.3 188.7 113.1 213.1 126.1C237.4 139.1 237.4 155.2 233.1 164.9C228.8 174.6 219.9 180 201.7 188.4C177.2 199.6 143.1 208.1 110.3 196.9" stroke="#2D1F04" stroke-width="2.7806" stroke-miterlimit="10" stroke-linecap="round" stroke-linejoin="round"/>
<path d="M84.1001 197.4C65.5001 197.4 38.3001 187 16.2001 177.4C7.50008 173.6 -1.39993 170 3.60007 143.8C8.60007 117.6 40.2001 94.4005 59.6001 78.5005C73.1001 76.3005 58.6001 140.3 84.1001 197.4ZM84.1001 197.4C87.1001 178.5 83.0001 145.9 79.8001 119.9" stroke="#2D1F04" stroke-width="2.7806" stroke-miterlimit="10" stroke-linecap="round" stroke-linejoin="round"/>
<path d="M101.4 159.4C95.5 157.5 88.6 154.9 83.5 151.9" stroke="#2D1F04" stroke-width="2.7806" stroke-miterlimit="10" stroke-linecap="round" stroke-linejoin="round"/>
<path d="M79.7 120C76 127.1 72.6 133.3 69.3 138.8" stroke="#2D1F04" stroke-width="2.7806" stroke-miterlimit="10" stroke-linecap="round" stroke-linejoin="round"/>
<path d="M110.5 153.7C106.5 151.2 103 148.6 100.4 145.9" stroke="#2D1F04" stroke-width="2.7806" stroke-miterlimit="10" stroke-linecap="round" stroke-linejoin="round"/>
<path d="M65.8 59.5003C68.3 51.2003 74.5 48.0003 81.8 48.4003" stroke="#2D1F04" stroke-width="2.7806" stroke-miterlimit="10" stroke-linecap="round" stroke-linejoin="round"/>
<path d="M71.3001 51.2004C64.4001 41.3004 64.5001 30.5004 68.1001 23.9004" stroke="#2D1F04" stroke-width="2.7806" stroke-miterlimit="10" stroke-linecap="round" stroke-linejoin="round"/>
<path d="M130.8 28.5999C159.8 27.5999 303.3 24.0999 364.3 46.2999C368.5 47.7999 378.5 60.3999 374.2 59.3999C299.7 42.0999 159.5 45.4999 131.1 46.3999" stroke="#2D1F04" stroke-width="2.7806" stroke-miterlimit="10" stroke-linecap="round" stroke-linejoin="round"/>
<path opacity="0.23" d="M84.7 197.4C66.1 197.4 38.9 187 16.8 177.4C8.59997 173.8 0.199966 170.5 3.39997 148.3C10.4 167.7 60.5 181.3 65 177C70 172.2 66.2 156.6 64.1 132.9C62.6 115.3 65.6 99.8001 66.2 88.6001C68.9 108.5 65.7 154.9 84.7 197.4Z" fill="#2D1F04"/>
<path opacity="0.23" d="M233.1 164.8C228.8 174.5 219.9 180 201.7 188.3C177.2 199.5 143.1 208 110.3 196.8C114.7 164.9 105.4 131.3 112.5 101.9C112.1 116.5 113.4 137.3 115 147.3C116.9 159.2 118.6 178.3 126 183.2C133.4 188.1 168.1 183.4 194.5 173C216.4 164.3 229.9 151.3 230.3 140.2C236.9 149.3 235.9 158.5 233.1 164.8Z" fill="#2D1F04"/>
<path opacity="0.23" d="M123.6 96.2002C125.9 100.1 131.7 114.7 132.1 118.4C132.5 122.1 133.3 130.9 133.6 138.8C134.4 131.4 135.4 120.1 136.5 118.4C137.6 116.7 141.9 115.1 147.9 115.5C140.5 114.5 138.1 114.1 135.8 112C133.4 109.8 126.5 101.3 123.6 96.2002Z" fill="#2D1F04"/>
<path opacity="0.23" d="M110.5 153.7C106.5 151.3 103.2 148.7 100.6 146C96.3999 141.6 86.9999 123.2 78.4999 91.8002C74.8999 78.7002 68.8999 62.7002 65.7999 59.5002C60.1999 53.7002 56.5999 47.8002 55.8999 40.3002C55.2999 34.5002 55.8999 30.5002 57.2999 28.1002C57.4999 27.8002 57.5999 27.6002 57.7999 27.4002C58.3999 26.6002 59.0999 25.8002 59.9999 25.2002C60.0999 25.1002 60.1999 25.0002 60.3999 25.0002C61.0999 24.5002 61.8999 24.1002 62.8999 23.8002C62.8999 23.8002 62.8999 23.8002 62.9999 23.8002C64.4999 23.4002 66.1999 23.4002 68.2999 23.9002C70.8999 22.7002 74.2999 23.3002 76.1999 24.1002C78.0999 25.3002 78.5999 27.0002 78.7999 29.2002C78.7999 29.3002 78.7999 29.4002 78.7999 29.4002C60.7999 24.2002 61.2999 41.1002 65.0999 51.1002C65.6999 52.8002 66.4999 54.4002 67.2999 56.0002C71.3999 64.0002 77.2999 71.4002 83.6999 83.5002C91.4999 98.3002 96.3999 115.2 100.9 125.2C105 134.4 108.5 131.9 109.8 124C109.3 133.8 109.9 143.7 110.5 153.7Z" fill="#2D1F04"/>
<path opacity="0.23" d="M117 31.0003C113.3 25.8003 101.6 28.3003 98.4001 30.0003C96.9001 30.8003 95.9001 32.2003 95.1001 34.0003C95.1001 33.7003 95.0001 33.3003 95.0001 33.0003C94.1001 27.4003 89.7001 24.6003 93.8001 22.2003C97.9001 19.7003 101.5 21.7003 104.8 24.0003C112 19.9003 116.8 22.4003 117 25.8003C117.2 27.6003 117.2 29.4003 117 31.0003Z" fill="#2D1F04"/>
<path d="M81.8 136.4C86.5 140.4 96.1 143.8 100.5 146" stroke="#2D1F04" stroke-width="2.7806" stroke-miterlimit="10" stroke-linecap="round" stroke-linejoin="round"/>
<path opacity="0.23" d="M88.4 243.5C77.5 240.8 66.6 237.7 55.7 234.2C55.6 234.2 55.5 234.1 55.4 234.1C55.3 233.8 55.3 233.5 55.2 233.2C41.5 225.6 50.4 199.4 47.2 189.7C68.5 197.3 84.3 197.8 84.3 197.8H84.5C84.5 197.7 84.5 197.6 84.5 197.5C84.5999 197 84.9 194.8 84.9 194.1C85 192.9 85.0999 191.6 85.1999 190.2C85.2999 188.9 85.4 186 85.4 186C85.4 185.3 85.4 184.6 85.5 183.9C85.5 180.3 85.5 176.5 85.3 172.6C85 166.2 84.5 159.3 83.9 152.4C86.6 154 89.7 155.4 92.9 156.6C89.1 160.7 85.2999 172.6 84.5 197.3C83.2999 199.5 82 198.7 77.9 203.2C73.9 207.7 69.3 236.7 88.4 243.5Z" fill="#2D1F04"/>
<path opacity="0.23" d="M224.7 376.8C224.7 376.8 224.6 376.8 224.7 376.8C223.9 377 222.9 376.6 221.7 375.7C219.3 373.8 203.3 365.7 188.5 359C186.8 358.3 185.2 357.5 183.5 356.7C183.5 356.7 183.5 356.7 183.4 356.7C178 354.1 172.9 351.3 169.8 348.6C169.6 348.4 169.4 348.2 169.2 348.1C169 347.9 168.7 347.6 168.5 347.4C168.4 347.3 168.3 347.2 168.2 347C168.1 346.9 168 346.8 167.9 346.6C167.8 346.5 167.7 346.3 167.6 346.2C167.2 345.5 166.9 344.9 166.8 344.2C179.1 344.7 192.8 342 204 338.7C203.8 338.9 203.6 339.2 203.4 339.4L203.5 339.5C204.9 340.8 206.3 342.2 207.7 343.6C191.2 341.4 181.7 348.7 185.4 352.7C185.7 353 188.7 352.3 189.3 352.5L186.7 353.5C190.6 355.7 203.6 357.2 213.6 362.1C217.6 364.1 221.6 366.4 225 369.2C225.1 369.6 225.2 370 225.3 370.4C226.4 374.2 225.9 376.3 224.7 376.8Z" fill="#2D1F04"/>
<path opacity="0.23" d="M91.3 366.6C90.8 367.9 90.3 369.3 89.8 370.8C89.4 372 89.0999 373.2 88.6999 374.6C88.3999 372.3 83.6999 368.3 74.6999 365.5C66.4999 362.9 61.9999 366.9 64.1999 374.7C64.5999 376.1 65.2 377.6 66 379.2C68.3 383.7 70.2999 389.6 71.5 395.8C72.6 401.3 73.2 407.1 72.9 412.5C71.6 414.2 70.1999 416 68.6999 417.8C64.3999 396 56.4999 386.6 54.2999 376.9V376.8C53.8999 375.1 53.7 373.4 53.7 371.6C53.8 366.6 55.5 360.8 57.5 355.2C66.9 359.9 78.9 363.6 91.3 366.6Z" fill="#2D1F04"/>
<path opacity="0.23" d="M149 323.1C143.6 323.4 133 354.1 122.1 373.5C113.2 371.9 103.6 370 94.1001 367.8C104.7 368.7 116.2 366.9 120.4 360.7C133.9 340.6 140.9 323.5 149 323.1Z" fill="#2D1F04"/>
<path opacity="0.23" d="M198.4 340.2C184.1 343.9 167.2 346 154.2 342.2C155.2 334.7 154.6 323 149.7 322.5C156.4 322.5 157.6 329.3 158.1 332.3C158.5 335.3 157.9 340 166 341C172.6 341.8 185.2 342 198.4 340.2Z" fill="#2D1F04"/>
<path d="M337.7 43.0004C335.1 43.5004 335 45.7004 334.8 49.1004C334.6 45.6004 334.4 43.4004 331.9 43.0004C334.5 42.5004 334.6 40.2004 334.8 36.9004C335 40.2004 335.2 42.4004 337.7 43.0004Z" fill="#2D1F04"/>
<path d="M114.636 237.636V236.545C114.758 224.97 115.97 215.758 118.273 208.909C120.576 202.061 123.848 196.515 128.091 192.273C132.333 188.03 137.424 184.121 143.364 180.545C146.939 178.364 150.152 175.788 153 172.818C155.848 169.788 158.091 166.303 159.727 162.364C161.424 158.424 162.273 154.061 162.273 149.273C162.273 143.333 160.879 138.182 158.091 133.818C155.303 129.455 151.576 126.091 146.909 123.727C142.242 121.364 137.061 120.182 131.364 120.182C126.394 120.182 121.606 121.212 117 123.273C112.394 125.333 108.545 128.576 105.455 133C102.364 137.424 100.576 143.212 100.091 150.364H77.1818C77.6667 140.061 80.3333 131.242 85.1818 123.909C90.0909 116.576 96.5455 110.97 104.545 107.091C112.606 103.212 121.545 101.273 131.364 101.273C142.03 101.273 151.303 103.394 159.182 107.636C167.121 111.879 173.242 117.697 177.545 125.091C181.909 132.485 184.091 140.909 184.091 150.364C184.091 157.03 183.061 163.061 181 168.455C179 173.848 176.091 178.667 172.273 182.909C168.515 187.152 163.97 190.909 158.636 194.182C153.303 197.515 149.03 201.03 145.818 204.727C142.606 208.364 140.273 212.697 138.818 217.727C137.364 222.758 136.576 229.03 136.455 236.545V237.636H114.636ZM126.273 291.455C121.788 291.455 117.939 289.848 114.727 286.636C111.515 283.424 109.909 279.576 109.909 275.091C109.909 270.606 111.515 266.758 114.727 263.545C117.939 260.333 121.788 258.727 126.273 258.727C130.758 258.727 134.606 260.333 137.818 263.545C141.03 266.758 142.636 270.606 142.636 275.091C142.636 278.061 141.879 280.788 140.364 283.273C138.909 285.758 136.939 287.758 134.455 289.273C132.03 290.727 129.303 291.455 126.273 291.455Z" fill="white"/>
</g>
<defs>
<clipPath id="clip0_228_3172">
<rect width="377" height="420" fill="white"/>
</clipPath>
</defs>
</svg>
