<svg width="427" height="383" viewBox="0 0 427 383" fill="none" xmlns="http://www.w3.org/2000/svg">
<path d="M312.7 250.3C327.2 263.2 356.3 278.7 379.9 306.6C368.7 331 325.9 329.8 320.5 335.3C312.7 343.4 312.7 357.8 308.3 372.4C269.1 372.4 125.3 372.4 114.8 372.4C112.8 368.2 111.1 362.5 112.1 352.8C112.2 352.1 112.3 351.3 112.4 350.5C114.4 337.6 118.7 323.7 127.2 307.4C127.4 307 127.6 306.7 127.8 306.3C127.9 306.1 128 305.9 128.1 305.7C128.5 305.1 128.8 304.4 129.1 303.7C129.2 303.4 129.4 303.2 129.6 302.9C129.7 302.8 129.7 302.7 129.8 302.5C129.9 302.4 129.9 302.2 130 302.1C130.1 302 130.2 301.8 130.2 301.7C130.3 301.6 130.4 301.4 130.4 301.3C130.3 300.8 130.1 300.3 130 299.9C130 299.7 129.9 299.6 129.9 299.4C129.8 298.7 129.7 297.9 129.6 297.1C129.5 296.1 129.5 295 129.6 293.9C130.1 280.2 138.4 261.8 138.6 260.8C138.8 259.7 136.8 257.7 137.9 255.6C138.5 254.6 140.9 251.5 141.7 251.4C141.8 251.5 141.8 251.7 141.7 252.1C141.8 252.1 141.8 252.1 141.9 252.2C142.9 252.6 143.9 252.9 145 253.3C144.8 254 144.7 254.6 144.5 255.1C144.7 254.6 144.8 254 145 253.3C145.8 253.6 146.7 253.9 147.6 254.2C148 254.3 148.4 254.5 148.9 254.6C149.3 254.7 149.7 254.8 150.1 255C156.2 256.9 163.7 258.8 172.5 260.3C172.7 260.3 173 260.4 173.2 260.4C173.6 260.5 174 260.5 174.4 260.6C180.1 261.6 184.7 262.2 189.7 262.5C189.8 262.5 189.9 262.5 190 262.5C193 262.7 196.2 262.9 200 263C218.5 263.6 232 261.1 234.9 260.5C235.3 260.4 235.7 260.3 236.1 260.2C245.6 257.2 252.8 254.2 259.7 250.7C263.6 248.8 268.1 245.7 272.3 243.5C272.5 243.4 272.7 243.3 272.8 243.2C279.6 239.6 286.9 238.9 292 239.6C305.5 242.1 312.7 250.3 312.7 250.3Z" fill="#2D1F04"/>
<path d="M101.2 282.2C90.5999 288.4 69.3 302.6 56.2 321.5C61.3 336 67.2999 343.8 76.6999 347.4C92.3999 353.4 112.5 346.1 119.1 338.6C140.9 313.8 148.6 303.5 140.9 289.6C133.2 275.6 112.3 272.9 101.2 282.2Z" fill="#2D1F04"/>
<path d="M146.7 246.4C146 249.3 145.1 252.8 144.5 255C143.7 255 140.8 257.7 140.1 258.6C138.7 260.4 140.4 262.8 140 263.8C139.7 264.7 134.6 287.3 131 299.8C123.2 295.8 105.5 286.9 102 282.9C101.7 282.6 101.5 282.4 101.3 282.1C100.5 281.2 99.6999 276.4 103.3 274.3C103.8 273.2 104.3 272 104.9 270.7C115.6 247.7 131.1 241.3 146.7 246.4Z" fill="#2D1F04"/>
<path opacity="0.23" d="M146.7 246.4C146 249.3 145.1 252.8 144.5 255C143.7 255 140.9 257.7 140.1 258.6C138.7 260.4 140.4 262.8 140 263.8C139.7 264.7 134.6 287.3 131 299.8C127.8 298.1 122.8 295.6 117.8 292.9C120.5 293.7 123.5 293.7 124.1 291.7C124.9 289.1 125.1 286.3 123.3 285.5C125.8 285.4 128.7 274.6 130.5 269.2C132.2 264.2 137.9 248.7 145 245.9C145.6 246.1 146.2 246.2 146.7 246.4Z" fill="#2D1F04"/>
<path d="M296.1 250.4C289.5 252.1 283.5 254.1 275.2 256.1C262.2 259.2 250.1 263.3 237 264.5C234.1 264.8 220.6 263.7 202.1 262.9C190.1 262.4 181.6 261.4 171.3 259.8C158.3 257.8 151.2 255 142.1 251.9C142.3 251.3 145.8 244.4 145.5 244.4C146.1 242.2 146.9 238.7 147.5 235.8C148.1 233 148.5 230.5 148.3 230.3C147.5 230.3 146.8 230.9 146.4 231.7C145.1 227.4 148.7 224.8 148.9 222.6C148.9 222.1 147.6 222.5 146.5 224C146.8 220.7 148.2 220 148.3 218.8C148.4 216.4 147.4 213.7 146.8 211.4C139.7 185.4 126.6 135.1 168 109.8C166.3 106.1 161.2 107 161.2 106.9C162.1 102.2 170.7 98.7002 180.8 101.9C181.2 101.5 178.2 97.0002 183 92.7002C182.9 96.6002 185.6 100.9 186.8 99.1002C191.1 89.3002 198.7 84.9002 208.3 85.0002C204.9 87.0002 202.5 92.2002 203 97.4002C203 97.4002 207.2 91.6002 210.9 90.8002C206.6 96.2002 209 99.9002 210.8 100.7C212.2 101.4 219.1 99.3002 219.5 96.2002C221.2 97.2002 220.1 100.8 234.8 109.1C296.8 144.5 303.7 211.3 296.1 250.4Z" fill="#2D1F04"/>
<path d="M204.7 338.5C204.6 338.3 204.4 338 204.3 337.8L204.7 338.5Z" fill="#2D1F04"/>
<path d="M143 149.6C146.4 140.7 149.8 135.3 165.5 128.4C174.4 124.5 204.3 124.7 199.5 115.7C209.4 118.2 215.5 128 224.2 129.1C233.3 130.2 252.9 138.1 265.3 161.1C267.8 165.7 276.5 204.2 245.2 220C221.3 232.1 169.9 235.8 150.8 204.5C141.8 189.9 137.9 166.3 143 149.6Z" fill="#2D1F04"/>
<path d="M189.7 153.4C182.5 148.7 174.3 167.1 173 172.5C169.7 186.4 173.6 194.2 181.5 197.7C189.4 201.2 200.1 201.1 208.7 196.9C230.6 186.4 213.1 150.1 199.1 153.8" fill="#2D1F04"/>
<path d="M141.9 179.9C155.5 180.4 189.4 169 177.6 126.4C168.3 126.5 159.4 128.6 147.9 136.6C139.2 150.8 139.5 167 141.9 179.9Z" fill="#2D1F04"/>
<path d="M220.5 131.6C199.6 192.7 265.8 196 265.8 196C265.8 196 274 173.2 262.4 153.9C255.3 142.2 238.7 132.5 220.5 131.6Z" fill="#2D1F04"/>
<path d="M166 234.9L165.5 241.2" stroke="#2D1F04" stroke-width="3.87" stroke-miterlimit="10" stroke-linecap="round" stroke-linejoin="round"/>
<path d="M159.3 237.6L158.8 244" stroke="#2D1F04" stroke-width="3.87" stroke-miterlimit="10" stroke-linecap="round" stroke-linejoin="round"/>
<path opacity="0.23" d="M162.5 105.5C162.4 105.5 162.2 105.6 162.2 105.6C162.1 105.6 162.1 105.7 162.1 105.8" fill="#2D1F04"/>
<path d="M184.2 153.1C184.4 150.5 189.3 148.7 195.3 149.1C201.2 149.5 205.9 151.9 205.7 154.5C205.5 157.1 200.6 158.9 194.6 158.5C188.6 158.1 184 155.7 184.2 153.1Z" fill="#2D1F04"/>
<path d="M141.8 251.3C144.5 244.8 148.7 230.8 148.3 230.5C147.5 230.5 146.8 231.1 146.4 232C145.1 227.7 148.7 225.1 148.9 222.9C148.9 222.4 147.6 222.8 146.5 224.3C146.8 221 148.2 220.3 148.3 219.1C148.4 216.7 147.4 214 146.8 211.7C139.6 185.7 126.6 135.4 168 110.1C166.3 106.4 161.2 107.3 161.2 107.2C162.1 102.5 170.7 99 180.8 102.2C181.2 101.8 178.2 97.3 183 93C182.9 96.9 185.6 101.2 186.8 99.4C191.1 89.6 198.7 85.2 208.3 85.3C204.9 87.3 202.5 92.5 203 97.7C203 97.8 207.2 91.9 210.9 91.1C206.3 95.8 208.8 100.1 210.6 101C212 101.7 219.1 99.7 219.5 96.6C221.2 97.6 220.1 101.2 234.8 109.5C297.2 144.6 303.9 211.4 296.2 250.5" stroke="#2D1F04" stroke-width="2.62" stroke-miterlimit="10" stroke-linecap="round" stroke-linejoin="round"/>
<path d="M193.7 158C192.7 162.3 192.8 168.2 194.3 174.5C194.3 181.4 181.1 187.3 177.4 177" stroke="#2D1F04" stroke-width="2.62" stroke-miterlimit="10" stroke-linecap="round" stroke-linejoin="round"/>
<path opacity="0.23" d="M179.9 329.2C179.7 329.1 179.6 329 179.4 328.9L179.9 329.2Z" fill="#2D1F04"/>
<path opacity="0.23" d="M296.1 250.4C290.2 252 280.7 254.7 275.2 256.1C282.3 226.7 283.6 180.8 266.3 150.5C254.1 129.1 236.1 118.2 219.7 113.5C218.3 113.1 216.1 110.3 214 110.2C214.1 111.3 213.2 112 212.1 111.8C210.6 111.5 207.6 110.2 208.7 107.5C205.7 107.3 204.2 110.7 202.5 110.5C200.8 110.4 198.9 106.2 195.1 105.9C196.6 109.2 193.3 111 191.1 111.4C188.4 111.9 187.1 110.4 188 108.9C185.3 108.7 184 111 178.2 112.5C169.2 114.8 156.9 119.8 147.3 131C153.2 120.8 161.4 114 167.9 110.1C166.2 106.4 161.1 107.3 161.1 107.2C162 102.5 170.6 99 180.7 102.2C181.1 101.8 178.1 97.3 182.9 93C182.8 96.9 185.5 101.2 186.7 99.4C191 89.6 198.6 85.2 208.2 85.3C204.8 87.3 202.4 92.5 202.9 97.7C202.9 97.7 207.1 91.9 210.8 91.1C206.5 96.3 208.9 100.2 210.6 101C212 101.7 218.9 99.6 219.3 96.5C221 97.5 219.9 101.1 234.6 109.4C296.8 144.5 303.7 211.3 296.1 250.4Z" fill="#2D1F04"/>
<path d="M181.8 127.3C153.2 128.3 137.1 150.4 137.1 150.4" stroke="#2D1F04" stroke-width="7.6" stroke-miterlimit="10" stroke-linecap="round" stroke-linejoin="round"/>
<path d="M218.9 128.1C257.5 136.2 267.5 160.1 267.5 160.1" stroke="#2D1F04" stroke-width="7.6" stroke-miterlimit="10" stroke-linecap="round" stroke-linejoin="round"/>
<path d="M145.6 158.1C146.9 163.2 152.8 160.1 159 159.7C166 159.3 173 161.7 171.9 153.7C171.1 147.8 164.8 145.9 155.8 146.4C146.8 146.9 143.9 151.6 145.6 158.1Z" fill="#2D1F04"/>
<path d="M145.3 156.8C147.5 151.1 152.8 149.8 159.7 150.4C167 151.1 170.5 153.6 171.8 157.2C172 156.1 172.1 155 171.9 153.7C171.1 147.8 164.8 145.9 155.8 146.4C147.4 147 144.3 151.1 145.3 156.8Z" fill="#2D1F04"/>
<path d="M165.3 154.6C165 151.3 162.2 148.9 158.9 149.2C155.6 149.5 153.2 152.3 153.5 155.6C153.8 158.9 156.6 161.3 159.9 161C163.1 160.7 165.6 157.8 165.3 154.6Z" fill="#2D1F04"/>
<path d="M145.6 158.1C146.9 163.2 152.8 160.3 159 159.7C166.1 159 173 161.8 171.9 153.7C171.1 147.8 164.8 145.9 155.8 146.4C146.8 146.9 143.9 151.6 145.6 158.1Z" stroke="#2D1F04" stroke-width="2.62" stroke-miterlimit="10" stroke-linecap="round" stroke-linejoin="round"/>
<path d="M155.3 154.4C156.736 154.4 157.9 153.236 157.9 151.8C157.9 150.364 156.736 149.2 155.3 149.2C153.864 149.2 152.7 150.364 152.7 151.8C152.7 153.236 153.864 154.4 155.3 154.4Z" fill="#2D1F04"/>
<path d="M252.1 160.1C250.9 165.3 244.9 162.2 238.8 161.9C231.8 161.6 224.8 164.1 225.8 156.1C226.5 150.2 232.8 148.2 241.8 148.6C250.7 149.1 253.7 153.7 252.1 160.1Z" fill="#2D1F04"/>
<path d="M252.3 158.9C250 153.3 244.7 152 237.8 152.8C230.5 153.6 227 156.2 225.8 159.7C225.6 158.6 225.5 157.5 225.7 156.2C226.4 150.3 232.7 148.3 241.7 148.7C250.1 149.1 253.2 153.1 252.3 158.9Z" fill="#2D1F04"/>
<path d="M233.9 156.9C234.1 153.6 236.9 151.2 240.2 151.4C243.5 151.6 245.9 154.4 245.7 157.7C245.5 161 242.7 163.4 239.4 163.2C236.2 162.9 233.7 160.1 233.9 156.9Z" fill="#2D1F04"/>
<path d="M252.1 160.1C250.9 165.2 244.9 162.4 238.8 161.9C231.7 161.3 224.8 164.2 225.8 156.1C226.5 150.2 232.8 148.2 241.8 148.6C250.7 149.1 253.7 153.7 252.1 160.1Z" stroke="#2D1F04" stroke-width="2.62" stroke-miterlimit="10" stroke-linecap="round" stroke-linejoin="round"/>
<path d="M235.6 157C237.036 157 238.2 155.836 238.2 154.4C238.2 152.964 237.036 151.8 235.6 151.8C234.164 151.8 233 152.964 233 154.4C233 155.836 234.164 157 235.6 157Z" fill="#2D1F04"/>
<path d="M292 239.6C292 239.5 292 239.5 292 239.6C286.9 238.9 279.6 239.6 272.8 243.2C272.6 243.3 272.4 243.4 272.3 243.5C268.2 245.8 263.6 248.8 259.7 250.7C252.8 254.1 245.6 257.2 236.1 260.2C235.7 260.3 235.3 260.4 234.9 260.5C232.1 261.1 218.6 263.6 200 263C196.2 262.9 193 262.7 190 262.5C189.9 262.5 189.8 262.5 189.7 262.5C184.6 262.1 180.1 261.6 174.4 260.6C174 260.5 173.6 260.5 173.2 260.4C173 260.4 172.7 260.3 172.5 260.3C163.8 258.8 156.2 256.9 150.1 255C149.7 254.9 149.3 254.8 148.9 254.6C148.5 254.5 148 254.3 147.6 254.2C146.7 253.9 145.9 253.6 145 253.3C144.8 254 144.7 254.6 144.5 255.1C144.7 254.6 144.8 254 145 253.3C143.9 252.9 142.9 252.6 141.9 252.2C141.8 252.2 141.8 252.2 141.7 252.1C141.8 251.7 141.8 251.5 141.7 251.4C140.9 251.5 138.5 254.6 137.9 255.6C136.7 257.6 138.8 259.7 138.6 260.8C138.4 261.8 130.2 280.2 129.6 293.9C129.6 295 129.6 296.1 129.6 297.1C129.6 297.9 129.7 298.7 129.9 299.4C129.9 299.6 130 299.7 130 299.9C130.1 300.4 130.2 300.9 130.4 301.3C130.3 301.4 130.2 301.6 130.2 301.7C130.1 301.8 130 302 130 302.1C129.9 302.2 129.9 302.4 129.8 302.5C129.7 302.6 129.7 302.7 129.6 302.9C129.5 303.2 129.3 303.5 129.1 303.7C128.7 304.4 128.4 305 128.1 305.7C128 305.9 127.9 306.1 127.8 306.3C127.6 306.7 127.4 307 127.2 307.4C118.8 323.7 114.4 337.6 112.4 350.5C112.3 351.3 112.2 352 112.1 352.8C111.1 362.5 112.9 368.3 114.8 372.4C125.3 372.4 269.2 372.4 308.3 372.4C310.5 365 312.9 354.5 320.7 346.4C323.1 344 329.2 346.2 340.3 343.6C344.8 342.5 335.1 327.7 329.9 313.2C324 296.8 327.1 282.4 334.1 264.2C323 253.4 305.5 242.1 292 239.6Z" fill="#2D1F04"/>
<path d="M152 293C159.7 293.8 166.9 294.4 174.1 295.2C180 295.9 182.1 299.9 181.2 303.5C179.9 308.5 175.1 311.5 168.6 312.6C168.3 312.7 167.9 312.7 167.2 312.8C172 316.6 169.7 322.8 174.7 328.9C169.4 328.2 164.7 327.6 159.8 326.9C157.5 323.1 156.7 319.4 156.6 315.8C156.6 313.8 156.1 312.3 152.6 312.5C149.6 316.5 146.9 320.7 146.6 325.3C142.4 324.8 138.9 324.5 135.4 324.2C138.8 312.1 149.7 305.5 152 293ZM161.1 300.3C160.1 302.4 158.9 304.2 157.2 306.5C159.6 306.7 162 306.9 164.5 306.9C166.7 306.9 168.5 305.9 169.4 304.3C170.4 302.7 169.8 301.3 167.8 300.9C165.7 300.6 163.4 300.6 161.1 300.3Z" fill="#2D1F04"/>
<path d="M213.4 308.4C210 308.3 206.8 308.1 203.4 308C203.7 305 202.1 303.2 199.3 302.9C197.5 302.7 195.9 303.1 194.7 305.1C194.3 306.8 195.3 307.5 196.6 308C198.9 308.9 201.3 309.8 203.6 310.7C204.9 311.2 206.1 311.9 207.2 312.6C214.3 317.2 211 326.5 205.3 330.3C203.4 331.6 201 332.3 198.4 332.4C194.2 332.6 189.4 331.9 184.5 330.2C178.1 328 174.2 323.2 176.6 317.9C180.3 318.2 184 318.5 187.8 318.8C187.8 319.5 187.8 320.1 187.8 320.7C188.2 324 192.2 326.1 195.9 325.2C197.6 324.8 198.8 323.9 199.2 322.4C199.6 321 199 319.8 197.7 319.1C196.6 318.5 195.5 318 194.3 317.5C191.9 316.5 189.4 315.6 187.3 314.4C183.2 312 182.6 308.7 184.3 305C186.2 300.9 189 297.6 193.5 296.5C197.7 295.5 202.2 295.7 206.8 297.6C211.7 299.5 214.3 303.1 213.4 308.4Z" fill="#2D1F04"/>
<path opacity="0.23" d="M121.7 319.5C125.6 315.5 130.1 313.2 132.3 312C137.1 309.5 142.8 309.7 147.8 310.8C161.4 313.8 185.6 323.6 199.5 326.5C224.8 331.9 247.8 324.2 245.4 320.2C243.4 316.8 204.4 323.4 190.4 317.3C178 311.9 158 309.5 145 306.3C141.9 305.5 131.8 302.1 129.5 297.1C129.4 299.2 129.8 299.9 130.4 301.1C129.1 303.5 126.4 307.9 121.7 319.5Z" fill="#2D1F04"/>
<path d="M141.9 252.2C142.1 251.5 142 251.3 141.7 251.3C140.9 251.4 138.5 254.5 137.9 255.5C136.8 257.5 138.8 259.6 138.6 260.7C138.4 261.9 126.3 288.7 130.5 301.7" stroke="#2D1F04" stroke-width="2.62" stroke-miterlimit="10" stroke-linecap="round" stroke-linejoin="round"/>
<path d="M139.2 260.1C145.1 264.7 156.9 267.8 169.4 270.3C186.5 273.6 211 276 238.3 271.4" stroke="#2D1F04" stroke-width="2.62" stroke-miterlimit="10" stroke-linecap="round" stroke-linejoin="round"/>
<path d="M148.5 254.9C147.8 256.7 147 258 146.9 260" stroke="#2D1F04" stroke-width="2.62" stroke-miterlimit="10" stroke-linecap="round" stroke-linejoin="round"/>
<path d="M159.5 258C158.5 259.6 158.2 261.8 158.1 263.6" stroke="#2D1F04" stroke-width="2.62" stroke-miterlimit="10" stroke-linecap="round" stroke-linejoin="round"/>
<path d="M213.9 264V264.5V265L213.8 266L213.7 266.4" stroke="#2D1F04" stroke-width="2.62" stroke-miterlimit="10" stroke-linecap="round" stroke-linejoin="round"/>
<path d="M217.6 264.3V265L217.5 265.7V266.2" stroke="#2D1F04" stroke-width="2.62" stroke-miterlimit="10" stroke-linecap="round" stroke-linejoin="round"/>
<path d="M107 286.8C104.7 285.3 102.8 284 101.9 282.9C101.6 282.6 101.4 282.4 101.2 282.1C100.4 281.2 99.6001 276.6 103.2 274.3C103.7 273.2 104.2 272 104.8 270.7C114.5 249.8 128.1 242.6 142.2 245.2" stroke="#2D1F04" stroke-width="2.62" stroke-miterlimit="10" stroke-linecap="round" stroke-linejoin="round"/>
<path d="M103.2 274.4C107.9 277.6 116.7 282.8 125.9 286.7" stroke="#2D1F04" stroke-width="2.62" stroke-miterlimit="10" stroke-linecap="round" stroke-linejoin="round"/>
<path d="M110.2 278.8C109 279.4 108.1 281.5 107.9 282.6" stroke="#2D1F04" stroke-width="2.62" stroke-miterlimit="10" stroke-linecap="round" stroke-linejoin="round"/>
<path d="M116.6 282.3C115.8 282.9 115.2 284.6 115.1 285.3" stroke="#2D1F04" stroke-width="2.62" stroke-miterlimit="10" stroke-linecap="round" stroke-linejoin="round"/>
<path d="M114.7 372.4C112.6 367.9 110.6 361.3 112.3 350.5C114.5 335.9 119.8 320.1 130.5 300.9" stroke="#2D1F04" stroke-width="2.7806" stroke-miterlimit="10" stroke-linecap="round" stroke-linejoin="round"/>
<path d="M141.9 252.1C152.2 255.9 169.4 260.9 191.8 262.7C210.3 264.2 227.7 262.8 235 260.6C245.1 257.5 252.5 254.3 259.7 250.8C263.8 248.8 268.5 245.6 272.8 243.3C279.6 239.7 296.7 232.6 328 258.6" stroke="#2D1F04" stroke-width="2.62" stroke-miterlimit="10" stroke-linecap="round" stroke-linejoin="round"/>
<path opacity="0.23" d="M340.3 343.7C329.2 346.3 323.1 344.1 320.7 346.5C312.9 354.6 311 363.6 308.3 372.5H285.5C294.3 345.9 301.7 322.1 300.2 305.9C305.2 316.4 317 319.4 325.4 319.3C326.3 322.4 327.3 325.6 328.4 328.6C333.6 343 344.7 342.6 340.3 343.7Z" fill="#2D1F04"/>
<path d="M334.1 322C335.7 324.6 337.7 327.2 340.3 329.9" stroke="#2D1F04" stroke-width="2.62" stroke-miterlimit="10" stroke-linecap="round" stroke-linejoin="round"/>
<path d="M334.1 333.6C325.4 324.3 320 311.7 316.5 297" stroke="#2D1F04" stroke-width="2.62" stroke-miterlimit="10" stroke-linecap="round" stroke-linejoin="round"/>
<path opacity="0.23" d="M257.6 268.8C256.9 264.6 255 263.2 249.9 262.4C242.6 261.2 233.2 262 224.2 262C229.8 261.4 233.5 260.7 234.9 260.4C235.3 260.3 235.7 260.2 236.1 260.1C245.6 257.1 252.8 254.1 259.7 250.6C263 248.9 266.8 246.5 270.5 244.4C263 250.2 259 255.4 257.6 268.8Z" fill="#2D1F04"/>
<path d="M54.1 315.4C65.1 351 104.1 361.8 105.9 308.3C106.6 288.9 100.1 273.6 92.1 257.5C75 222.9 67.8 215.4 54.4001 188.9C49.0001 191.2 40.6 196.7 34.3 201.3C42 233.7 42.0001 242 44.2001 264C47.3001 294.4 49.8 301.7 54.1 315.4Z" fill="#2D1F04"/>
<path d="M54.4 188.8C51 193.6 44.8 199.4 37 200.8C36.1 201 35.2 201.1 34.4 201.2C10.7 174.3 8.59998 152.3 14.2 149.8C17.3 148.4 24.1 161.9 35.1 170.3C44.7 177.8 52 183.5 54.4 188.8Z" fill="#2D1F04"/>
<path d="M392.9 134.6C390.4 134.6 387.9 133.3 386.6 131C344.5 59.8 284.4 25.1 202.9 25.1C139.9 25.1 78.7999 64.6 39.3999 130.8C37.2999 134.3 32.7999 135.4 29.2999 133.4C25.7999 131.3 24.6999 126.8 26.6999 123.3C48.8999 86.1 76.6999 57.2 109.3 37.6C138.7 19.9 171.1 10.5 202.9 10.5C244.6 10.5 281.8 19.4 313.6 36.9C347.5 55.6 376.4 84.8 399.3 123.6C401.4 127.1 400.2 131.6 396.7 133.7C395.5 134.3 394.2 134.6 392.9 134.6Z" fill="#2D1F04"/>
<path d="M43 144.5C41.8 144.5 40.6 144.2 39.4 143.6C35.9 141.6 34.6 137.2 36.5 133.6C55 100.3 81 72.5001 111.7 53.1001C141.2 34.5001 173.1 24.6001 204.1 24.6001C286.1 24.6001 346.6 60.2001 389.1 133.5C391.1 137 389.9 141.5 386.4 143.5C382.9 145.5 378.4 144.3 376.4 140.8C336.8 72.4001 280.4 39.2001 204.2 39.2001C144.5 39.2001 83.8 79.0001 49.5 140.7C48.1 143.2 45.6 144.5 43 144.5Z" fill="#2D1F04"/>
<path d="M53.6999 155C52.5999 155 51.4999 154.7 50.3999 154.2C46.7999 152.4 45.2999 148 47.0999 144.3C77.7999 83.1002 144.4 38.7002 205.3 38.7002C245.3 38.7002 278.9 47.7002 308.1 66.1002C335.6 83.4002 358.6 108.9 378.4 144C380.4 147.5 379.2 152 375.6 154C372.1 156 367.6 154.8 365.6 151.2C327.8 84.5002 276.8 53.4002 205.3 53.4002C149.6 53.4002 88.5999 94.4002 60.1999 150.9C58.9999 153.5 56.3999 155 53.6999 155Z" fill="#2D1F04"/>
<path d="M64.6999 165.3C63.6999 165.3 62.6999 165.1 61.7999 164.7C58.0999 163.1 56.2999 158.8 57.8999 155C68.8999 129.3 90.5999 103.6 117.4 84.3998C145.9 63.9998 177.6 52.7998 206.5 52.7998C296.2 52.7998 339.4 105.8 367 152C369.1 155.5 367.9 160 364.5 162.1C361 164.2 356.5 163 354.4 159.6C328.8 116.7 288.9 67.5998 206.5 67.5998C149.6 67.5998 90.6999 115.8 71.3999 160.9C70.1999 163.7 67.4999 165.3 64.6999 165.3Z" fill="#2D1F04"/>
<path d="M378.5 315.8C357.9 355 313 355.1 314.4 301.5C314.9 282.1 325.7 268.5 332.9 257.9C350.6 231.5 355.5 194.3 368.9 173.2C374.2 175.9 379.6 179.7 387.6 187.7C386.5 205.3 387.4 230.2 387.8 248.8C388.4 279.4 386.9 299.8 378.5 315.8Z" fill="#2D1F04"/>
<path d="M368.8 173.2C371.7 178.4 377.2 184.7 384.9 187C385.8 187.2 386.6 187.5 387.5 187.7C413.8 163.4 418.2 141.8 412.9 138.6C410 136.9 401.8 149.6 390 156.9C379.7 163.3 371.8 168.2 368.8 173.2Z" fill="#2D1F04"/>
<path d="M105.5 314.1C105.7 312.2 105.8 310.3 105.9 308.2C106.6 288.8 100.3 273.9 92.0999 257.4C76.2999 225.7 67.7999 215.3 54.3999 188.8" stroke="#2D1F04" stroke-width="2.62" stroke-miterlimit="10" stroke-linecap="round" stroke-linejoin="round"/>
<path d="M54.4 188.8C51 193.6 44.8 199.4 37 200.8C36.1 201 35.2 201.1 34.4 201.2C10.7 174.3 8.59998 152.3 14.2 149.8C17.3 148.4 24.1 161.9 35.1 170.3C44.7 177.8 52 183.5 54.4 188.8Z" stroke="#2D1F04" stroke-width="2.62" stroke-miterlimit="10" stroke-linecap="round" stroke-linejoin="round"/>
<path d="M387.5 187.7C386.4 205.3 387.3 230.2 387.7 248.8C388.4 279.4 386.9 299.8 378.5 315.8C357.9 355 313 355.1 314.4 301.5C314.9 282.1 325.7 268.5 332.9 257.9C350.6 231.5 355.5 194.3 368.9 173.2" stroke="#2D1F04" stroke-width="2.62" stroke-miterlimit="10" stroke-linecap="round" stroke-linejoin="round"/>
<path d="M368.8 173.2C371.7 178.4 377.2 184.7 384.9 187C385.8 187.2 386.6 187.5 387.5 187.7C413.8 163.4 418.2 141.8 412.9 138.6C410 136.9 401.8 149.6 390 156.9C379.7 163.3 371.8 168.2 368.8 173.2Z" stroke="#2D1F04" stroke-width="2.62" stroke-miterlimit="10" stroke-linecap="round" stroke-linejoin="round"/>
<path d="M194.3 174.6C196.2 183.2 210.1 185.6 212.6 175.2" stroke="#2D1F04" stroke-width="2.62" stroke-miterlimit="10" stroke-linecap="round" stroke-linejoin="round"/>
<path d="M34.3999 201.3C42.5999 234.1 42.1999 244.8 44.2999 264C47.5999 293.6 50.0999 303.7 54.0999 315.4C58.0999 327.1 63.5999 340 71.6999 344.9C86.0999 353.6 102.1 348.7 112.8 343.2" stroke="#2D1F04" stroke-width="2.62" stroke-miterlimit="10" stroke-linecap="round" stroke-linejoin="round"/>
<path d="M343.6 343.6C329.7 346.1 324.1 343.5 320.7 346.5C317.3 349.5 311.1 359.2 308.3 372.5" stroke="#2D1F04" stroke-width="2.62" stroke-miterlimit="10" stroke-linecap="round" stroke-linejoin="round"/>
<path d="M414.4 140.7C411.4 149.9 391.6 172.1 377.7 183.5" stroke="#2D1F04" stroke-width="2.62" stroke-miterlimit="10" stroke-linecap="round" stroke-linejoin="round"/>
<path d="M12.6001 151.3C13.6001 161.5 26.3001 182.4 44.2001 198.1" stroke="#2D1F04" stroke-width="2.62" stroke-miterlimit="10" stroke-linecap="round" stroke-linejoin="round"/>
<path d="M215.9 50.4C215.5 49.7 215 49 214.5 48.5C213.9 48 213.3 47.6 212.6 47.3C211.9 47.1 211.3 46.9 210.6 46.9C210.4 46.9 210.3 46.9 210 46.9C208.7 47 207.5 47.5 206.6 48.3C206.5 48.3 206.5 48.4 206.4 48.5C204.3 50.6 201.8 51.8 198.7 52C198.3 52 198 52 197.6 52C194.5 52 191.8 50.9 189.4 48.7C187 46.5 185.5 43.8 185 40.4C184.9 40 184.9 39.6 184.9 39.2C184.6 35.4 185.6 32.1 187.9 29.2C190.2 26.3 193.1 24.8 196.6 24.6C196.9 24.6 197.3 24.6 197.6 24.6C198.7 24.6 199.8 24.7 200.8 25C202.1 25.4 203.4 26 204.5 26.8C205.6 27.7 206.9 28.1 208.3 28.1C208.4 28.1 208.6 28.1 208.7 28.1C209.5 28 210.3 27.8 211.1 27.4C211.8 27 212.5 26.5 213 25.9C213.3 25.5 213.6 25 213.8 24.5C213.9 24.3 214 24 214.1 23.8C214.3 23 214.4 22.2 214.4 21.4C214.2 19.2 213.2 17.9 212.4 17.2C212.3 17.1 212.3 17.1 212.2 17C207.7 13.7 202.8 12 197.6 12C197 12 196.3 12 195.7 12.1C188.8 12.6 183.1 15.7 178.6 21.2C177.1 23.1 175.8 25.1 174.9 27.2C173.1 31.1 172.4 35.5 172.8 40.1C172.9 40.9 173 41.7 173.1 42.5C174.1 48.6 176.9 53.8 181.4 57.9C186.1 62.2 191.6 64.3 197.6 64.3C198.3 64.3 198.9 64.3 199.6 64.2C205.4 63.8 210.5 61.4 214.9 57.2C215 57.1 215.1 57 215.2 56.9C216.3 55.6 216.7 54 216.6 52.4C216.4 51.9 216.2 51.1 215.9 50.4ZM269.6 37C269.4 35.7 269 34.5 268.6 33.2C267.9 31.3 267 29.4 265.9 27.6C262.1 21.6 256.8 17.9 250.1 16.6C248.5 16.3 246.8 16.1 245.2 16.1C240.3 16.1 235.5 17.7 231.2 20.7C229.3 22.1 227.6 23.6 226.1 25.3C223.3 28.7 221.4 32.7 220.5 37.3C220.4 38.1 220.2 38.8 220.1 39.6C219.3 45.8 220.6 51.6 224 56.8C227.8 62.8 233.1 66.5 239.9 67.8C241.6 68.1 243.2 68.3 244.8 68.3C249.7 68.3 254.4 66.7 258.8 63.7C264.1 60 267.6 54.9 269.1 48.6C269.2 48.1 269.4 47.5 269.5 47C270.1 43.7 270.2 40.3 269.6 37ZM251.9 53.6C249.6 55.2 247.3 56 244.9 56C244.1 56 243.2 55.9 242.4 55.7C238.9 55 236.3 53.2 234.4 50.1C232.6 47.2 231.9 44.2 232.4 40.8C232.4 40.5 232.5 40.1 232.6 39.8C233 37.9 233.6 36.2 234.5 34.8C235.4 33.4 236.6 32.1 238.2 31C239.7 29.9 241.3 29.2 242.8 28.9C243.6 28.7 244.4 28.6 245.2 28.6C246 28.6 246.9 28.7 247.8 28.9C251.2 29.6 253.9 31.4 255.8 34.5C257.8 37.6 258.4 41 257.6 44.8C257.6 45 257.5 45.2 257.5 45.4C256.5 48.9 254.7 51.6 251.9 53.6ZM329 50.5C328.8 49.7 328.4 49 327.9 48.3C327.4 47.7 326.7 47.1 326 46.7C325.1 46.2 324.2 46 323.2 46C322 46 320.9 46.3 319.8 47C319.7 47.1 319.6 47.1 319.6 47.2L312.3 52.6L299.5 62.1L294.4 65.9C294.4 65.9 294.5 63.3 294.7 59.5C294.9 54.9 295.3 48.6 295.5 43.5C295.8 38.4 296 34.4 296 34.4C296 32 294.9 30 292.8 28.9C292 28.5 291.2 28.2 290.4 28.2C290.3 28.2 290.1 28.2 289.9 28.2C289.3 28.2 288.6 28.3 288 28.5C287.2 28.8 286.5 29.2 285.9 29.7C285.3 30.2 284.8 30.8 284.4 31.6L281.2 37.5L274.2 50.6L265.5 66.7C264.7 68.2 264.5 69.8 265 71.3C265.4 72.9 266.5 74.2 268 75C268.9 75.5 269.8 75.7 270.8 75.7C271.4 75.7 272.1 75.6 272.7 75.4C274.3 74.9 275.5 73.8 276.3 72.4L282.3 61.2L281.5 78.1C281.3 80.7 282.5 82.8 284.6 84C285.5 84.5 286.5 84.7 287.5 84.7C288.7 84.7 289.8 84.4 290.8 83.7C290.9 83.7 290.9 83.6 291 83.6L304.9 73.4L298.9 84.6C298.1 86.1 297.9 87.7 298.3 89.2C298.8 90.9 299.8 92.1 301.3 92.9C302.2 93.4 303.1 93.6 304.1 93.6C304.7 93.6 305.4 93.5 306 93.3C307.5 92.8 308.8 91.7 309.6 90.3L318.2 74.3L325.2 61.3L328.5 55.2C328.9 54.5 329.1 53.7 329.2 52.9C329.2 52.1 329.2 51.3 329 50.5ZM175 60.9C174.4 59.4 173.3 58.2 171.8 57.5C171 57.1 170.1 56.9 169.3 56.9C168.5 56.9 167.8 57 167.1 57.3L151.3 63.6L146.4 51.3L141 37.8L138.9 32.4C138.3 30.9 137.2 29.7 135.7 29C134.9 28.6 134 28.4 133.2 28.4C132.4 28.4 131.7 28.5 131 28.8C129.4 29.4 128.3 30.6 127.7 32.2C127.1 33.7 127.1 35.3 127.7 36.9L130.1 42.8L135.5 56.3L142.3 73.4C141.4 72.2 140.2 71.5 138.7 71.2C138.3 71.1 137.8 71.1 137.4 71.1C136.2 71.1 135.1 71.5 134.1 72.1L118.1 83L113.9 76.9L124.5 69.7C125.9 68.8 126.8 67.4 127 65.7C127.2 64.2 127 62.8 126.2 61.5C126.1 61.4 126.1 61.3 126 61.1C125.1 59.7 123.7 58.8 122.1 58.5C121.7 58.4 121.2 58.4 120.8 58.4C119.6 58.4 118.5 58.8 117.5 59.4L106.9 66.6L102.7 60.5L118.4 49.8C119 49.4 119.5 48.9 119.8 48.4C120.4 47.6 120.7 46.8 120.9 45.8C121.2 44.2 120.8 42.6 119.9 41.2C119 39.8 117.6 38.9 116 38.6C115.6 38.5 115.1 38.5 114.7 38.5C113.5 38.5 112.4 38.9 111.4 39.5L90.6001 53.5C89.9001 54 89.3001 54.6 88.9001 55.3C88.5001 56 88.2001 56.7 88.1001 57.5C88.0001 58.3 88.0001 59.1 88.2001 59.9C88.4001 60.7 88.7001 61.4 89.2001 62.1L92.5001 67L100.8 79.1L111.5 95C112 95.7 112.6 96.3 113.2 96.7C113.9 97.2 114.6 97.5 115.3 97.6C115.7 97.7 116.2 97.7 116.6 97.7C117 97.7 117.3 97.7 117.7 97.6C118.5 97.4 119.3 97.1 120 96.6L140.8 82.4C142.2 81.4 143.1 80.1 143.3 78.4C143.5 77.4 143.4 76.4 143.1 75.5C143.2 75.6 143.3 75.8 143.5 75.9C144 76.5 144.7 76.9 145.4 77.3C146.1 77.6 146.9 77.8 147.7 77.9H147.9C148.7 77.9 149.4 77.8 150.2 77.5L171.6 68.9C173.2 68.3 174.3 67.1 174.9 65.5C175.6 64.1 175.6 62.5 175 60.9ZM363.3 78.2L344.8 61.2C344.2 60.6 343.4 60.2 342.7 59.9C342.1 59.7 341.4 59.6 340.8 59.6C340.7 59.6 340.5 59.6 340.4 59.6C339.6 59.7 338.8 59.9 338.1 60.2C337.4 60.6 336.7 61 336.2 61.6L331.9 66.2L322 77L309.3 90.9C308.7 91.5 308.3 92.2 308 93C307.7 93.7 307.6 94.5 307.6 95.3C307.6 96.1 307.8 96.9 308.1 97.6C308.4 98.4 308.9 99 309.6 99.6L328.1 116.6C329.2 117.6 330.6 118.2 332.1 118.2C332.2 118.2 332.4 118.2 332.6 118.2C334.2 118.1 335.7 117.4 336.8 116.2C337.9 115 338.5 113.5 338.5 111.8C338.5 110.1 337.8 108.6 336.6 107.5L322.6 94.6L327.6 89.1L337 97.7C338.1 98.7 339.5 99.3 341 99.3C341.1 99.3 341.3 99.3 341.5 99.3C342.6 99.2 343.6 98.9 344.5 98.3C344.9 98 345.3 97.7 345.7 97.3C346.8 96.1 347.4 94.6 347.4 92.9C347.4 91.2 346.7 89.7 345.5 88.6L336.1 80L341.1 74.5L349.9 82.6L350 82.7L355.1 87.4C356.2 88.4 357.6 89 359.1 89C359.3 89 359.4 89 359.6 89C361.2 88.9 362.7 88.2 363.8 87C364.9 85.8 365.5 84.3 365.5 82.6C365.2 80.9 364.5 79.4 363.3 78.2ZM104.7 103.4C104.7 103.3 104.6 103.3 104.6 103.2L93.1001 85.6L85.0001 73.2L82.5001 69.3C82.1001 68.8 81.7001 68.3 81.3001 67.8L81.2001 67.7C80.0001 66.6 78.5001 66 76.8001 66C75.1001 66 73.6001 66.7 72.5001 67.9C71.4001 69.1 70.8001 70.7 71.0001 72.4C71.1001 73.4 71.4001 74.3 71.9001 75.2L76.0001 81.5L81.9001 90.5C81.6001 90.4 76.6001 87.7 72.1001 85.4C68.6001 83.6 65.6001 82 65.5001 82C64.7001 81.6 63.8001 81.4 62.9001 81.4C62.4001 81.4 62.0001 81.4 61.5001 81.6C60.3001 81.9 59.2001 82.5 58.4001 83.4C57.5001 84.4 56.9001 85.7 56.8001 87C56.7001 88.4 57.0001 89.7 57.7001 90.8L61.7001 97L67.6001 106.1L58.2001 101.2L51.4001 97.7C51.3001 97.7 51.3001 97.6 51.2001 97.6C50.4001 97.3 49.5001 97.1 48.6001 97.1C46.9001 97.1 45.4001 97.8 44.3001 99.1C43.2001 100.3 42.6001 101.9 42.8001 103.6C42.9001 105.2 43.6001 106.7 44.9001 107.8C45.3001 108.2 45.9001 108.6 46.6001 108.9L50.9001 111.2L64.0001 118L82.5001 127.7C82.6001 127.7 82.6001 127.8 82.7001 127.8C83.7001 128.2 84.7001 128.5 85.6001 128.5V125.3L85.7001 128.5C87.4001 128.5 88.9001 127.8 90.1001 126.6C91.1001 125.5 91.6001 124.2 91.6001 122.7C91.6001 121.5 91.3001 120.2 90.6001 119.1C90.6001 119 90.5001 119 90.5001 118.9L80.9001 104.1L96.6001 112.3C96.7001 112.3 96.7001 112.4 96.8001 112.4C97.8001 112.8 98.7001 113 99.7001 113C99.7001 113 99.8001 113 99.9001 113C101.6 113 103.1 112.3 104.2 111.1C105.2 110 105.7 108.7 105.7 107.2C105.7 105.9 105.4 104.6 104.7 103.4ZM376 92.7C374.9 91.4 373.4 90.7 371.7 90.6H371.5C370 90.6 368.6 91.1 367.4 92.1L362.1 96.6L350.9 106.1L344.5 111.5C343.9 112 343.4 112.7 343 113.4C342.8 113.8 342.6 114.3 342.5 114.7C342.4 114.7 342.4 114.7 342.3 114.7C342.2 114.7 342 114.7 341.9 114.7C341.1 114.7 340.3 114.8 339.6 115.1C338.7 115.4 337.9 115.9 337.1 116.5C336.3 117.1 335.7 117.9 335.3 118.8C334.9 119.6 334.6 120.5 334.5 121.4C334.4 122.3 334.5 123.2 334.7 124.1C335 125 335.4 125.9 336.1 126.6C336.7 127.3 337.5 127.9 338.3 128.3C339.1 128.7 340 128.9 340.9 129C341.1 129 341.2 129 341.4 129C342.1 129 342.9 128.9 343.6 128.6C344.5 128.3 345.4 127.8 346.1 127.2C346.8 126.6 347.4 125.8 347.9 125C348.3 124.2 348.6 123.3 348.7 122.4C348.7 122.3 348.7 122.2 348.7 122.2C349.2 122.2 349.6 122.1 350 121.9C350.8 121.7 351.5 121.3 352.1 120.7L358.1 115.6L369.3 106.1L375 101.3C376.2 100.2 377 98.8 377.2 97.3C377.5 95.6 377.1 94 376 92.7Z" fill="#2D1F04"/>
<path d="M50.0001 100.5L77.0001 114.6L60.4001 89.1002C60.1001 88.6002 59.9001 88.0002 60.0001 87.4002C60.1001 86.8002 60.3001 86.2002 60.8001 85.7002C61.2001 85.3002 61.7001 85.0002 62.3001 84.8002C62.9001 84.7002 63.5001 84.7002 64.1001 85.0002L91.1001 99.1002L74.5001 73.5002C74.3001 73.1002 74.1001 72.7002 74.1001 72.2002C74.0001 71.4002 74.3001 70.7002 74.8001 70.1002C75.3001 69.5002 76.0001 69.2002 76.8001 69.2002C77.6001 69.2002 78.3001 69.5002 79.0001 70.0002C79.3001 70.3002 79.5001 70.6002 79.8001 71.0002L101.9 105C102.3 105.7 102.5 106.4 102.5 107.1C102.5 107.8 102.3 108.4 101.8 108.9C101.3 109.5 100.6 109.8 99.8001 109.8C99.2001 109.8 98.7001 109.7 98.1001 109.4L71.5001 95.4002L87.8001 120.5C88.2001 121.2 88.4001 121.9 88.4001 122.6C88.4001 123.3 88.2001 123.9 87.7001 124.4C87.2001 125 86.5001 125.3 85.6001 125.3C85.1001 125.3 84.5001 125.2 83.9001 124.9L48.0001 106C47.6001 105.8 47.3001 105.6 47.0001 105.3C46.4001 104.7 46.0001 104 46.0001 103.2C45.9001 102.4 46.2001 101.7 46.7001 101.1C47.2001 100.5 47.9001 100.2 48.7001 100.2C49.2001 100.3 49.6001 100.4 50.0001 100.5ZM135.6 74.9002C136.3 74.5002 137 74.3002 137.8 74.5002C138.6 74.7002 139.2 75.1002 139.7 75.8002C140.2 76.5002 140.3 77.2002 140.2 78.1002C140.1 78.9002 139.7 79.5002 139 80.0002L118.2 94.2002C117.9 94.4002 117.5 94.6002 117.1 94.7002C116.7 94.8002 116.4 94.8002 116 94.7002C115.6 94.6002 115.3 94.5002 115 94.3002C114.7 94.1002 114.4 93.8002 114.1 93.4002L91.7001 60.3002C91.5001 60.0002 91.3001 59.6002 91.2001 59.2002C91.1001 58.8002 91.1001 58.4002 91.2001 58.0002C91.3001 57.6002 91.4001 57.3002 91.6001 57.0002C91.8001 56.7002 92.1001 56.4002 92.4001 56.2002L113.2 42.0002C113.9 41.6002 114.6 41.4002 115.4 41.6002C116.2 41.8002 116.8 42.2002 117.3 42.9002C117.8 43.6002 117.9 44.3002 117.8 45.2002C117.7 46.0002 117.3 46.6002 116.6 47.1002L98.2001 59.5002L106 71.0002L119.2 62.0002C119.9 61.6002 120.6 61.4002 121.4 61.6002C122.2 61.8002 122.8 62.2002 123.3 62.9002C123.8 63.6002 123.9 64.3002 123.8 65.2002C123.7 66.0002 123.3 66.6002 122.6 67.1002L109.4 76.1002L117.2 87.5002L135.6 74.9002ZM130.4 35.8002C130.1 35.0002 130.1 34.2002 130.4 33.5002C130.7 32.7002 131.2 32.2002 132 31.9002C132.7 31.6002 133.5 31.6002 134.2 32.0002C134.9 32.3002 135.5 32.9002 135.8 33.7002L149.5 67.9002L168.2 60.4002C168.9 60.1002 169.7 60.1002 170.4 60.5002C171.1 60.8002 171.7 61.4002 172 62.2002C172.3 63.0002 172.3 63.8002 172 64.5002C171.7 65.3002 171.2 65.8002 170.4 66.1002L149 74.6002C148.6 74.8002 148.2 74.8002 147.9 74.8002C147.6 74.8002 147.2 74.7002 146.8 74.5002C146.5 74.3002 146.1 74.1002 145.9 73.8002C145.6 73.5002 145.4 73.2002 145.3 72.8002L130.4 35.8002ZM210.2 50.2002C210.6 50.2002 211 50.2002 211.3 50.4002C211.7 50.5002 212 50.7002 212.3 51.0002C212.6 51.2002 212.8 51.6002 213 51.9002C213.2 52.3002 213.3 52.7002 213.3 53.1002C213.4 53.9002 213.1 54.7002 212.6 55.3002C208.8 59.0002 204.4 61.1002 199.4 61.4002C193.4 61.9002 188.1 60.0002 183.5 55.9002C178.9 51.8002 176.4 46.5002 175.9 40.2002C175.4 33.9002 177.1 28.3002 181 23.5002C184.9 18.7002 189.8 16.1002 195.8 15.6002C200.9 15.2002 205.7 16.6002 210.1 19.9002C210.6 20.4002 211 21.1002 211 21.9002C211 22.3002 211 22.7002 210.9 23.1002C210.8 23.5002 210.6 23.8002 210.4 24.1002C210.2 24.4002 209.9 24.6002 209.5 24.8002C209.2 25.0002 208.8 25.1002 208.4 25.1002C207.7 25.2002 207 24.9002 206.4 24.4002C204.9 23.4002 203.4 22.6002 201.7 22.1002C200 21.6002 198.2 21.4002 196.4 21.6002C192 21.9002 188.3 23.9002 185.5 27.4002C182.7 30.9002 181.4 35.0002 181.8 39.6002C182.2 44.3002 184 48.1002 187.3 51.2002C190.7 54.2002 194.6 55.6002 199 55.3002C202.8 55.0002 206 53.5002 208.7 50.8002C209 50.5002 209.6 50.2002 210.2 50.2002ZM266.3 46.6002C265.1 52.8002 261.9 57.7002 256.9 61.3002C251.9 64.9002 246.4 66.1002 240.5 64.9002C234.6 63.7002 230 60.5002 226.7 55.3002C223.4 50.1002 222.4 44.4002 223.6 38.1002C224.8 31.9002 228 27.0002 233 23.4002C238.1 19.8002 243.5 18.6002 249.4 19.8002C255.3 21.0002 259.9 24.2002 263.2 29.4002C264.9 32.0002 265.9 34.8002 266.5 37.6002C266.9 40.5002 266.9 43.4002 266.3 46.6002ZM248.2 25.8002C246 25.4002 243.9 25.4002 241.9 25.8002C239.9 26.2002 238 27.1002 236.1 28.5002C234.2 29.8002 232.7 31.4002 231.6 33.1002C230.5 34.9002 229.7 36.9002 229.2 39.2002C228.3 43.8002 229 48.0002 231.5 51.8002C233.9 55.6002 237.3 58.0002 241.6 58.8002C245.9 59.7002 250 58.8002 253.7 56.2002C257.4 53.6002 259.7 50.0002 260.6 45.4002C261.5 40.8002 260.8 36.6002 258.3 32.8002C255.9 29.0002 252.5 26.6002 248.2 25.8002ZM268.4 68.2002L287.3 33.1002C287.5 32.7002 287.8 32.4002 288.1 32.2002C288.4 31.9002 288.7 31.7002 289.1 31.6002C289.5 31.5002 289.8 31.4002 290.2 31.5002C290.6 31.5002 290.9 31.6002 291.3 31.8002C292.3 32.3002 292.8 33.2002 292.8 34.5002L290.9 72.6002L321.6 50.0002C322.7 49.3002 323.7 49.3002 324.6 49.8002C325 50.0002 325.2 50.2002 325.5 50.5002C325.7 50.8002 325.9 51.1002 326 51.5002C326.1 51.9002 326.1 52.3002 326.1 52.6002C326.1 53.0002 325.9 53.4002 325.7 53.8002L306.8 88.9002C306.4 89.6002 305.8 90.1002 305 90.4002C304.2 90.7002 303.5 90.6002 302.8 90.2002C302.1 89.8002 301.6 89.2002 301.4 88.5002C301.2 87.7002 301.3 86.9002 301.7 86.2002L314.5 62.5002L289 81.0002C288 81.6002 287 81.7002 286.1 81.2002C285 80.6002 284.6 79.7002 284.6 78.3002L286.2 47.2002L273.4 70.9002C273 71.6002 272.4 72.1002 271.6 72.4002C270.8 72.7002 270.1 72.6002 269.4 72.2002C268.7 71.8002 268.2 71.2002 268 70.5002C267.9 69.7002 268 68.9002 268.4 68.2002ZM334.2 110C334.8 110.5 335.1 111.2 335.1 112C335.1 112.8 334.8 113.5 334.3 114.2C333.7 114.8 333 115.2 332.2 115.2C331.4 115.3 330.7 115 330.1 114.5L311.6 97.5002C311.3 97.2002 311.1 96.9002 310.9 96.6002C310.7 96.3002 310.7 95.9002 310.7 95.5002C310.7 95.1002 310.8 94.7002 310.9 94.4002C311 94.0002 311.3 93.7002 311.6 93.4002L338.5 64.0002C338.8 63.7002 339.1 63.4002 339.5 63.3002C339.9 63.1002 340.2 63.0002 340.6 63.0002C341 63.0002 341.3 63.0002 341.7 63.1002C342.1 63.2002 342.4 63.4002 342.7 63.7002L361.2 80.7002C361.8 81.2002 362.1 81.9002 362.1 82.7002C362.1 83.5002 361.8 84.2002 361.3 84.9002C360.7 85.5002 360 85.9002 359.2 85.9002C358.4 86.0002 357.7 85.7002 357.1 85.2002L340.7 70.2002L331.3 80.4002L343 91.1002C343.6 91.6002 343.9 92.3002 343.9 93.1002C343.9 93.9002 343.6 94.6002 343.1 95.3002C342.5 95.9002 341.8 96.3002 341 96.3002C340.2 96.4002 339.5 96.1002 338.9 95.6002L327.1 84.8002L317.7 95.0002L334.2 110ZM344.1 124.8C343.7 125.2 343.2 125.4 342.7 125.6C342.2 125.8 341.7 125.8 341.2 125.8C340.7 125.8 340.2 125.6 339.7 125.4C339.2 125.2 338.8 124.9 338.5 124.5C338.2 124.1 337.9 123.7 337.8 123.2C337.7 122.7 337.6 122.2 337.7 121.7C337.7 121.2 337.9 120.7 338.1 120.2C338.3 119.7 338.7 119.3 339.1 118.9C339.5 118.5 340 118.3 340.5 118.1C341 117.9 341.5 117.9 342 117.9C342.5 117.9 343 118.1 343.5 118.3C344 118.5 344.4 118.8 344.7 119.2C345 119.6 345.3 120.1 345.4 120.6C345.5 121.1 345.6 121.6 345.5 122.1C345.4 122.6 345.3 123.1 345 123.6C344.9 124 344.5 124.4 344.1 124.8ZM369.4 94.5002C370 94.0002 370.8 93.7002 371.6 93.7002C372.4 93.7002 373.1 94.1002 373.6 94.7002C374.1 95.3002 374.3 96.0002 374.2 96.8002C374.1 97.6002 373.7 98.3002 373.1 98.8002L350.2 118.2C349.9 118.5 349.6 118.6 349.2 118.8C348.8 118.9 348.5 119 348.1 118.9C347.7 118.8 347.4 118.8 347 118.6C346.7 118.4 346.4 118.2 346.1 117.9C345.8 117.6 345.7 117.3 345.6 116.9C345.5 116.5 345.5 116.2 345.5 115.8C345.5 115.4 345.6 115.1 345.8 114.7C346 114.4 346.2 114.1 346.5 113.8L369.4 94.5002Z" fill="#2D1F04"/>
<path opacity="0.32" d="M85 73.2L93.1 85.6C82.5 95.1 72.7001 106 64 118L50.8 111.1C53.2 107.7 55.7 104.4 58.3 101.2L67.7 106.1L61.7001 97C65.0001 93.1 68.4 89.2 72 85.5C76.4 87.8 81.5001 90.4 81.8001 90.6L75.9001 81.6C78.9001 78.7 81.9 75.9 85 73.2ZM122.1 58.4C121.7 58.3 121.2 58.3 120.8 58.3C119.6 58.3 118.5 58.7 117.5 59.3L106.9 66.5L102.7 60.4L118.4 49.7C119 49.3 119.5 48.8 119.8 48.3C117.1 49.8 114.4 51.5 111.7 53.2C105 57.4 98.6001 62 92.4001 67L100.7 79.1C108.8 72.4 117.4 66.5 126.2 61.4C126.1 61.3 126.1 61.2 126 61C125 59.7 123.7 58.7 122.1 58.4ZM129.8 42.9L135.2 56.4C138.9 54.6 142.5 52.9 146.3 51.3L140.9 37.8C137.2 39.4 133.5 41.1 129.8 42.9ZM174.8 27.5C173 31.4 172.3 35.8 172.7 40.4C172.8 41.2 172.9 42 173 42.8C177 41.9 181 41.2 185 40.6C184.9 40.2 184.9 39.8 184.9 39.4C184.6 35.6 185.6 32.3 187.9 29.4C190.2 26.5 193.1 25 196.6 24.8C196.9 24.8 197.3 24.8 197.6 24.8C198.7 24.8 199.8 24.9 200.8 25.2C202.1 25.6 203.4 26.2 204.5 27C205.6 27.9 206.9 28.3 208.3 28.3C208.4 28.3 208.6 28.3 208.7 28.3C209.5 28.2 210.3 28 211.1 27.6C211.8 27.2 212.5 26.7 213 26.1C213.3 25.7 213.6 25.2 213.8 24.7C210.6 24.6 207.4 24.5 204.2 24.5C194.4 24.6 184.6 25.5 174.8 27.5ZM268.6 33.3C255.3 29.4 241.1 26.8 226.1 25.5C223.3 28.9 221.4 32.9 220.5 37.5C220.4 38.3 220.2 39 220.1 39.8C224.2 40.1 228.3 40.4 232.2 40.9C232.2 40.6 232.3 40.2 232.4 39.9C232.8 38 233.4 36.3 234.3 34.9C235.2 33.5 236.4 32.2 238 31.1C239.5 30 241.1 29.3 242.6 29C243.4 28.8 244.2 28.7 245 28.7C245.8 28.7 246.7 28.8 247.6 29C251 29.7 253.7 31.5 255.6 34.6C257.6 37.7 258.2 41.1 257.4 44.9C257.4 45.1 257.3 45.3 257.3 45.5C261.3 46.5 265.2 47.6 269 48.9C269.1 48.4 269.3 47.8 269.4 47.3C270.1 43.8 270.1 40.4 269.6 37.1C269.3 35.8 269 34.5 268.6 33.3ZM274.2 50.6C281.3 53.1 288.1 56.1 294.6 59.5C294.8 54.9 295.2 48.6 295.4 43.5C290.8 41.3 286 39.3 281.2 37.5L274.2 50.6ZM312.3 52.6L299.5 62.1C306 65.7 312.2 69.8 318.2 74.3L325.2 61.3C320.9 58.2 316.7 55.3 312.3 52.6ZM349.6 82.7C343.9 76.8 337.9 71.4 331.8 66.4L321.9 77.2C329.7 83.5 337.2 90.5 344.3 98.4C344.7 98.1 345.1 97.8 345.5 97.4C346.6 96.2 347.2 94.7 347.2 93C347.2 91.3 346.5 89.8 345.3 88.7L335.9 80.1L340.9 74.6L349.6 82.7ZM362 96.6L350.8 106.1C353.3 109.2 355.8 112.4 358.2 115.6L369.4 106.1C367 102.8 364.6 99.6 362 96.6Z" fill="#2D1F04"/>
<path opacity="0.23" d="M130.4 301.3C130.3 301.5 130.2 301.6 130.2 301.8C130.1 301.9 130 302.1 130 302.2C129.9 302.3 129.9 302.5 129.8 302.6C129.7 302.7 129.7 302.8 129.6 303C129.5 303.3 129.3 303.6 129.1 303.8C128.7 304.5 128.4 305.1 128.1 305.8C128 306 127.9 306.2 127.8 306.4C127.6 306.8 127.4 307.1 127.2 307.5C120.4 320.6 116.3 332.2 113.9 343C104.9 348.6 89.4001 352.3 76.9001 347.5C67.6001 343.9 61.6001 336.1 56.4001 321.6C56.4001 321.6 56.4001 321.6 56.4001 321.5C55.6001 319.6 54.8001 317.6 54.2001 315.5C50.0001 301.8 47.4001 294.5 44.4001 264.1C42.2001 242.1 42.2001 233.8 34.5001 201.4C10.8001 174.5 8.70008 152.5 14.3001 150C15.6001 149.4 17.6001 151.5 20.3001 154.8C10.2001 163.1 35.5001 192.7 40.2001 200.3C45.8001 209.2 43.9001 238.7 58.1001 270.9C69.3001 296.4 67.6001 308.8 73.8001 328.5C78.2001 342.4 87.9001 347.1 95.8001 345.5C107.9 343 110.5 333.4 113.1 326.5C117.5 314.8 127 300.3 122 295.4C125.1 297 127.9 298.5 130.2 299.6C130.2 299.8 130.3 299.9 130.3 300.1C130.1 300.3 130.2 300.8 130.4 301.3Z" fill="#2D1F04"/>
<path opacity="0.23" d="M387.5 187.7C386.3 205.3 387.3 230.2 387.7 248.8C388.4 279.4 386.9 299.8 378.5 315.8C362 347.2 329.9 353.5 318.5 327.2C335.8 345.2 352.7 319.2 357.7 300.3C363.1 279.9 370.2 267.8 375 243.5C379.8 219.2 376.4 192.3 380.4 185.1C382.4 181.5 385.7 178.3 396 168.2C405 159.4 411.3 147.2 409.8 139.5C411.1 138.5 412.1 138.1 412.8 138.5C418.2 141.8 413.8 163.4 387.5 187.7Z" fill="#2D1F04"/>
<path d="M198.636 285.636V284.545C198.758 272.97 199.97 263.758 202.273 256.909C204.576 250.061 207.848 244.515 212.091 240.273C216.333 236.03 221.424 232.121 227.364 228.545C230.939 226.364 234.152 223.788 237 220.818C239.848 217.788 242.091 214.303 243.727 210.364C245.424 206.424 246.273 202.061 246.273 197.273C246.273 191.333 244.879 186.182 242.091 181.818C239.303 177.455 235.576 174.091 230.909 171.727C226.242 169.364 221.061 168.182 215.364 168.182C210.394 168.182 205.606 169.212 201 171.273C196.394 173.333 192.545 176.576 189.455 181C186.364 185.424 184.576 191.212 184.091 198.364H161.182C161.667 188.061 164.333 179.242 169.182 171.909C174.091 164.576 180.545 158.97 188.545 155.091C196.606 151.212 205.545 149.273 215.364 149.273C226.03 149.273 235.303 151.394 243.182 155.636C251.121 159.879 257.242 165.697 261.545 173.091C265.909 180.485 268.091 188.909 268.091 198.364C268.091 205.03 267.061 211.061 265 216.455C263 221.848 260.091 226.667 256.273 230.909C252.515 235.152 247.97 238.909 242.636 242.182C237.303 245.515 233.03 249.03 229.818 252.727C226.606 256.364 224.273 260.697 222.818 265.727C221.364 270.758 220.576 277.03 220.455 284.545V285.636H198.636ZM210.273 339.455C205.788 339.455 201.939 337.848 198.727 334.636C195.515 331.424 193.909 327.576 193.909 323.091C193.909 318.606 195.515 314.758 198.727 311.545C201.939 308.333 205.788 306.727 210.273 306.727C214.758 306.727 218.606 308.333 221.818 311.545C225.03 314.758 226.636 318.606 226.636 323.091C226.636 326.061 225.879 328.788 224.364 331.273C222.909 333.758 220.939 335.758 218.455 337.273C216.03 338.727 213.303 339.455 210.273 339.455Z" fill="white"/>
</svg>
