<svg width="392" height="346" viewBox="0 0 392 346" fill="none" xmlns="http://www.w3.org/2000/svg">
<g clip-path="url(#clip0_228_3418)">
<path d="M199.64 208.4L9.63993 250.33C5.69993 251.16 5.25993 258.17 8.63993 260.33L104.64 321.64C106.6 322.738 108.757 323.437 110.989 323.696C113.22 323.955 115.481 323.769 117.64 323.15L309.64 255.98C313.44 254.65 313.51 252.3 309.81 250.73L223.39 214.14C219.65 212.58 203.57 207.57 199.64 208.4Z" fill="#2D1F04"/>
<path d="M199.64 208.4L9.63993 250.33C5.69993 251.16 5.25993 258.17 8.63993 260.33L104.64 321.64C106.6 322.738 108.757 323.437 110.989 323.696C113.22 323.955 115.481 323.769 117.64 323.15L309.64 255.98C313.44 254.65 313.51 252.3 309.81 250.73L223.39 214.14C219.65 212.58 203.57 207.57 199.64 208.4Z" stroke="#2D1F04" stroke-width="2.82" stroke-linecap="round" stroke-linejoin="round"/>
<path d="M196.78 207.92L6.77989 249.85C2.83989 250.68 6.62989 255.02 10.0199 257.19L108.09 318.92C111.48 321.09 117.67 319.43 121.47 318.1L305.31 254.18C309.11 252.85 310.92 253.02 307.22 251.45L226.7 216.36L220.54 213.67C216.79 212.1 200.72 207.09 196.78 207.92Z" fill="#2D1F04"/>
<path d="M214.59 64.09L13.3699 89.59C10.2916 90.0499 7.47531 91.5844 5.4199 93.9216C3.36449 96.2589 2.20256 99.2482 2.13989 102.36L6.26989 255.36L214.61 209.77L225.11 74C225.51 67.74 220.8 63.31 214.59 64.09Z" fill="#2D1F04"/>
<path d="M214.59 64.09L13.3699 89.59C10.2916 90.0499 7.47531 91.5844 5.4199 93.9216C3.36449 96.2589 2.20256 99.2482 2.13989 102.36L6.26989 255.36L214.61 209.77L225.11 74C225.51 67.74 220.8 63.31 214.59 64.09Z" stroke="#2D1F04" stroke-width="2.82" stroke-linecap="round" stroke-linejoin="round"/>
<path d="M213.49 63.7699L16.71 89.2599C13.6661 89.752 10.8936 91.3028 8.88127 93.639C6.86891 95.9751 5.74582 98.9467 5.70996 102.03L10.24 253.8L212.91 207.59L223.78 73.6599C224.17 67.4099 219.57 62.9999 213.49 63.7699Z" fill="#2D1F04"/>
<path d="M213.49 63.7699L16.71 89.2599C13.6661 89.752 10.8936 91.3028 8.88127 93.639C6.86891 95.9751 5.74582 98.9467 5.70996 102.03L10.24 253.8L212.91 207.59L223.78 73.6599C224.17 67.4099 219.57 62.9999 213.49 63.7699Z" stroke="#2D1F04" stroke-width="2.82" stroke-linecap="round" stroke-linejoin="round"/>
<path d="M220.43 75.0601L17.5199 103.09L17.4299 243.03L195.95 205.72L212.15 202.33L220.43 75.0601Z" fill="#2D1F04"/>
<path d="M220.43 75.0601L17.5199 103.09L17.4299 243.03L195.95 205.72L212.15 202.33L220.43 75.0601Z" stroke="#2D1F04" stroke-width="2.82" stroke-linecap="round" stroke-linejoin="round"/>
<path d="M215.72 215.89L28.2 258.26L77.7 288.05L262.29 235.19L215.72 215.89Z" fill="#2D1F04"/>
<path d="M255.38 231.15L58.8398 284.61" stroke="#2D1F04" stroke-width="1.63" stroke-linecap="round" stroke-linejoin="round"/>
<path d="M243.58 226.02L49.0898 278.95" stroke="#2D1F04" stroke-width="1.63" stroke-linecap="round" stroke-linejoin="round"/>
<path d="M234.62 220.77L40.9199 271.09" stroke="#2D1F04" stroke-width="1.63" stroke-linecap="round" stroke-linejoin="round"/>
<path d="M223.62 217.31L41.5398 261.21L32.8298 263.31L29.2798 264.17" stroke="#2D1F04" stroke-width="1.63" stroke-linecap="round" stroke-linejoin="round"/>
<path d="M94.2 288.14L40.45 253.43" stroke="#2D1F04" stroke-width="1.63" stroke-linecap="round" stroke-linejoin="round"/>
<path d="M108.61 284.19L56.97 249.94" stroke="#2D1F04" stroke-width="1.63" stroke-linecap="round" stroke-linejoin="round"/>
<path d="M124.39 279.15L71.4099 245.09" stroke="#2D1F04" stroke-width="1.63" stroke-linecap="round" stroke-linejoin="round"/>
<path d="M137.27 274.08L85.6399 242.16" stroke="#2D1F04" stroke-width="1.63" stroke-linecap="round" stroke-linejoin="round"/>
<path d="M139.6 262.56L100.18 238" stroke="#2D1F04" stroke-width="1.63" stroke-linecap="round" stroke-linejoin="round"/>
<path d="M153.11 258.48L129.12 243.9L115.17 235.43" stroke="#2D1F04" stroke-width="1.63" stroke-linecap="round" stroke-linejoin="round"/>
<path d="M166.6 255.09L132.23 232.8" stroke="#2D1F04" stroke-width="1.63" stroke-linecap="round" stroke-linejoin="round"/>
<path d="M182.64 250.92L147.43 228.84" stroke="#2D1F04" stroke-width="1.63" stroke-linecap="round" stroke-linejoin="round"/>
<path d="M198.05 246.84C198.05 246.84 161.45 225.5 161 226.13" stroke="#2D1F04" stroke-width="1.63" stroke-linecap="round" stroke-linejoin="round"/>
<path d="M232.74 253.48L227.19 250.35L174.73 223.01" stroke="#2D1F04" stroke-width="1.63" stroke-linecap="round" stroke-linejoin="round"/>
<path d="M248.77 251.91L187.02 219.05" stroke="#2D1F04" stroke-width="1.63" stroke-linecap="round" stroke-linejoin="round"/>
<path d="M268.76 249.4L199.72 216.34" stroke="#2D1F04" stroke-width="1.63" stroke-linecap="round" stroke-linejoin="round"/>
<path d="M205 254.67L140.2 273.28C138.89 273.65 138.81 274.46 140.02 275.08L173.54 292.25C174.968 292.885 176.573 293.005 178.08 292.59L243.43 270.59C244.72 270.15 244.75 269.38 243.49 268.86L209.65 254.86C208.151 254.348 206.536 254.282 205 254.67Z" fill="#2D1F04"/>
<path d="M44.79 158C44.8763 159.847 44.4581 161.683 43.58 163.31C43.2053 163.928 42.6926 164.452 42.0818 164.838C41.4711 165.225 40.7791 165.466 40.06 165.54C39.5317 165.6 38.9982 165.6 38.47 165.54C37.9067 165.488 37.3503 165.378 36.81 165.21V162.75C37.3748 163.045 37.9722 163.273 38.59 163.43C39.0702 163.55 39.5679 163.584 40.06 163.53C40.5076 163.488 40.9389 163.34 41.318 163.099C41.6971 162.857 42.0131 162.528 42.24 162.14C42.7678 161.031 43.0052 159.806 42.93 158.58V158.47C42.93 157.79 42.93 157.47 42.93 156.78C42.7013 157.552 42.2857 158.257 41.72 158.83C41.2087 159.311 40.5569 159.616 39.86 159.7C39.2224 159.79 38.5728 159.672 38.0074 159.364C37.4419 159.056 36.9905 158.574 36.72 157.99C35.8496 156.282 35.446 154.374 35.55 152.46C35.4742 150.444 35.8786 148.439 36.73 146.61C36.9999 145.955 37.4328 145.379 37.9876 144.938C38.5424 144.497 39.2007 144.205 39.9 144.09C40.5387 143.979 41.1959 144.104 41.75 144.44C42.3171 144.847 42.7435 145.42 42.97 146.08C42.97 145.3 42.97 144.91 42.97 144.08L44.83 143.85L44.79 158ZM43 151.55C43.0886 150.132 42.8633 148.711 42.34 147.39C42.1952 146.99 41.9177 146.652 41.5538 146.432C41.1898 146.211 40.7614 146.123 40.34 146.18C39.8713 146.255 39.4313 146.454 39.0656 146.757C38.6999 147.059 38.4217 147.454 38.26 147.9C37.7172 149.284 37.4685 150.765 37.53 152.25C37.4467 153.677 37.6931 155.104 38.25 156.42C38.4073 156.827 38.6999 157.168 39.0787 157.384C39.4575 157.601 39.8993 157.681 40.33 157.61C40.7893 157.535 41.219 157.335 41.5719 157.031C41.9247 156.728 42.187 156.333 42.33 155.89C42.8317 154.5 43.0592 153.026 43 151.55Z" fill="#2D1F04"/>
<path d="M49.3698 143.32L54.1298 142.72C54.1298 147.97 54.0598 150.59 54.0198 155.83L57.6798 155.35C57.6798 156.11 57.6798 156.5 57.6798 157.26L48.5098 158.48C48.5098 157.72 48.5098 157.33 48.5098 156.56L52.1798 156.08C52.1798 151.6 52.2298 149.36 52.2698 144.88L49.3698 145.24C49.3698 144.47 49.3698 144.09 49.3698 143.32ZM52.3198 137.1L54.1798 136.87C54.1798 138.13 54.1798 138.75 54.1798 140L52.3198 140.23C52.2998 139 52.3098 138.35 52.3198 137.1Z" fill="#2D1F04"/>
<path d="M65.4999 137.08C65.4999 138.77 65.4999 139.62 65.4399 141.32L69.6599 140.79C69.6599 141.55 69.6599 141.93 69.6599 142.69L65.4499 143.22C65.4499 146.47 65.3799 148.09 65.3299 151.33C65.2458 152.108 65.4028 152.894 65.7799 153.58C65.9878 153.792 66.249 153.943 66.5358 154.019C66.8227 154.095 67.1246 154.092 67.4099 154.01L69.4899 153.74C69.4899 154.52 69.4899 154.91 69.4899 155.69L67.2399 155.99C66.733 156.131 66.1986 156.14 65.6874 156.015C65.1763 155.891 64.7055 155.638 64.3199 155.28C63.7599 154.61 63.4899 153.38 63.5199 151.57L63.6199 143.46L60.6199 143.84C60.6199 143.07 60.6199 142.69 60.6199 141.92L63.6199 141.55C63.6199 139.85 63.6199 139 63.6799 137.3L65.4999 137.08Z" fill="#2D1F04"/>
<path d="M94.6799 144C94.5899 147.36 94.5499 149 94.4599 152.39L92.5999 152.64C92.5999 151.76 92.5999 151.33 92.6599 150.45C92.318 151.272 91.791 152.004 91.1199 152.59C90.4863 153.095 89.7245 153.413 88.9199 153.51C88.4281 153.609 87.9188 153.577 87.4431 153.418C86.9674 153.258 86.5421 152.976 86.2099 152.6C85.4716 151.677 85.1138 150.507 85.2099 149.33C85.1626 148.621 85.2576 147.91 85.4894 147.239C85.7211 146.568 86.0849 145.95 86.5593 145.421C87.0336 144.893 87.609 144.465 88.2515 144.162C88.8939 143.86 89.5904 143.689 90.2999 143.66L92.7899 143.35V142.97C92.8998 142.098 92.6785 141.216 92.1699 140.5C91.8829 140.245 91.5381 140.063 91.1653 139.971C90.7925 139.878 90.4029 139.878 90.0299 139.97C89.3578 140.061 88.7056 140.264 88.0999 140.57C87.4118 140.914 86.77 141.344 86.1899 141.85C86.1899 140.85 86.1899 140.39 86.2499 139.42C86.8855 139.027 87.5548 138.693 88.2499 138.42C88.8415 138.185 89.4594 138.024 90.0899 137.94C90.8937 137.805 91.7189 137.888 92.4799 138.18C93.1417 138.469 93.6899 138.968 94.0399 139.6C94.3146 140.076 94.4882 140.603 94.5499 141.15C94.6635 142.095 94.7069 143.048 94.6799 144ZM91.0599 145.46L90.4399 145.54C89.526 145.602 88.6611 145.976 87.9899 146.6C87.4054 147.233 87.0898 148.068 87.1099 148.93C87.0308 149.645 87.2355 150.363 87.6799 150.93C87.8927 151.152 88.1586 151.316 88.4525 151.407C88.7465 151.498 89.0588 151.513 89.3599 151.45C89.8707 151.375 90.3568 151.182 90.779 150.885C91.2011 150.588 91.5474 150.195 91.7899 149.74C92.4569 148.534 92.8014 147.177 92.7899 145.8C92.7899 145.58 92.7899 145.47 92.7899 145.26L91.0599 145.46Z" fill="#2D1F04"/>
<path d="M105.21 138.23C105.31 135.23 105.35 133.69 105.45 130.67L107.31 130.45L106.66 150.73L104.81 150.98C104.81 150.24 104.81 149.87 104.87 149.14C104.588 149.833 104.15 150.453 103.59 150.95C103.087 151.392 102.464 151.674 101.8 151.76C101.169 151.857 100.523 151.751 99.9561 151.456C99.3895 151.161 98.9319 150.693 98.6498 150.12C97.8209 148.398 97.4752 146.483 97.6498 144.58C97.629 142.58 98.0885 140.605 98.9899 138.82C99.2955 138.176 99.7543 137.617 100.326 137.191C100.898 136.766 101.565 136.487 102.27 136.38C102.886 136.282 103.516 136.406 104.05 136.73C104.593 137.087 105.001 137.615 105.21 138.23ZM99.5898 144.38C99.4703 145.784 99.6615 147.198 100.15 148.52C100.294 148.917 100.573 149.251 100.939 149.463C101.305 149.675 101.733 149.752 102.15 149.68C102.615 149.603 103.051 149.405 103.416 149.107C103.781 148.809 104.062 148.42 104.23 147.98C104.798 146.618 105.08 145.155 105.06 143.68C105.19 142.281 104.995 140.871 104.49 139.56C104.341 139.165 104.061 138.833 103.697 138.62C103.333 138.407 102.907 138.326 102.49 138.39C102.028 138.463 101.593 138.657 101.229 138.952C100.866 139.247 100.587 139.632 100.42 140.07C99.8609 141.437 99.5787 142.902 99.5898 144.38Z" fill="#2D1F04"/>
<path d="M117.66 136.67C117.77 133.67 117.83 132.16 117.94 129.16L119.8 128.94C119.49 136.99 119.34 141.02 119.03 149.08L117.19 149.33C117.19 148.6 117.19 148.23 117.26 147.5C116.97 148.189 116.529 148.804 115.97 149.3C115.462 149.74 114.836 150.022 114.17 150.11C113.543 150.214 112.899 150.113 112.335 149.821C111.771 149.529 111.316 149.062 111.04 148.49C110.208 146.78 109.862 144.874 110.04 142.98C110.024 140.99 110.494 139.026 111.41 137.26C111.72 136.619 112.181 136.064 112.755 135.642C113.328 135.22 113.996 134.945 114.7 134.84C115.315 134.741 115.945 134.861 116.48 135.18C117.024 135.536 117.438 136.059 117.66 136.67ZM112 142.78C111.87 144.173 112.055 145.578 112.54 146.89C112.681 147.289 112.96 147.625 113.327 147.836C113.694 148.047 114.124 148.119 114.54 148.04C115.004 147.964 115.44 147.768 115.804 147.471C116.169 147.175 116.45 146.788 116.62 146.35C117.195 145 117.488 143.547 117.48 142.08C117.616 140.692 117.427 139.292 116.93 137.99C116.784 137.594 116.504 137.261 116.139 137.049C115.774 136.837 115.346 136.76 114.93 136.83C114.467 136.901 114.031 137.092 113.665 137.385C113.3 137.679 113.019 138.063 112.85 138.5C112.284 139.856 111.995 141.311 112 142.78Z" fill="#2D1F04"/>
<path d="M45.8099 180C45.4678 179.68 45.0625 179.434 44.6199 179.28C44.1895 179.148 43.7343 179.117 43.2899 179.19C42.738 179.261 42.2115 179.465 41.7552 179.783C41.299 180.102 40.9267 180.526 40.6699 181.02C39.9993 182.372 39.6828 183.872 39.7499 185.38C39.7499 188.38 39.7499 189.89 39.7499 192.9L37.9199 193.18C37.9199 187.12 37.9199 184.09 37.9199 178.03L39.7599 177.76V180.76C40.0019 179.767 40.4864 178.85 41.1699 178.09C41.7684 177.453 42.5649 177.037 43.4299 176.91C43.8492 176.845 44.2771 176.862 44.6899 176.96C45.0969 177.065 45.478 177.252 45.8099 177.51C45.8199 178.44 45.8199 179 45.8099 180Z" fill="#2D1F04"/>
<path d="M57.6098 182C57.6098 182.48 57.6098 182.72 57.6098 183.2L49.6998 184.38V184.46C49.586 185.749 49.9101 187.038 50.6198 188.12C50.9249 188.514 51.337 188.813 51.8068 188.979C52.2767 189.146 52.7845 189.174 53.2698 189.06C53.9122 188.948 54.531 188.729 55.0998 188.41C55.8131 187.994 56.4831 187.509 57.0998 186.96V189.41C56.4716 189.862 55.8019 190.254 55.0998 190.58C54.5095 190.858 53.8836 191.053 53.2398 191.16C52.5005 191.315 51.7324 191.257 51.0245 190.993C50.3166 190.73 49.6979 190.271 49.2398 189.67C48.1626 188.014 47.6601 186.05 47.8098 184.08C47.7414 181.983 48.2499 179.908 49.2798 178.08C49.669 177.364 50.2178 176.747 50.8837 176.277C51.5496 175.807 52.3147 175.497 53.1198 175.37C53.7588 175.249 54.4195 175.323 55.0155 175.584C55.6114 175.844 56.1148 176.279 56.4598 176.83C57.359 178.397 57.76 180.2 57.6098 182ZM55.7898 181.54C55.8527 180.429 55.5996 179.323 55.0598 178.35C54.8362 178.022 54.5199 177.768 54.1513 177.62C53.7826 177.472 53.3783 177.437 52.9898 177.52C52.5385 177.594 52.1092 177.767 51.7323 178.027C51.3555 178.286 51.0405 178.625 50.8098 179.02C50.1896 180.059 49.8453 181.24 49.8098 182.45L55.7898 181.54Z" fill="#2D1F04"/>
<path d="M65.5898 175.52C65.7684 174.949 66.0686 174.423 66.4698 173.98C66.8097 173.63 67.2568 173.405 67.7398 173.34C68.1353 173.255 68.5483 173.322 68.8967 173.527C69.245 173.733 69.5032 174.062 69.6198 174.45C70.0606 176.132 70.2194 177.875 70.0898 179.61C70.0298 183.06 69.9998 184.79 69.9498 188.24L68.2898 188.49C68.3398 185.08 68.3598 183.37 68.4198 179.96C68.5087 178.663 68.4382 177.36 68.2098 176.08C68.1888 175.971 68.1457 175.868 68.0831 175.776C68.0206 175.685 67.94 175.607 67.8463 175.548C67.7525 175.489 67.6477 175.45 67.5382 175.433C67.4287 175.416 67.317 175.422 67.2098 175.45C66.9482 175.489 66.7041 175.605 66.5084 175.783C66.3126 175.961 66.1739 176.193 66.1098 176.45C65.8323 177.734 65.7147 179.047 65.7598 180.36L65.6398 188.91L63.9798 189.16C64.0298 185.74 64.0498 184.03 64.0898 180.61C64.1835 179.302 64.1062 177.987 63.8598 176.7C63.8011 176.492 63.6644 176.314 63.4781 176.204C63.2919 176.094 63.0704 176.06 62.8598 176.11C62.6133 176.16 62.387 176.281 62.2091 176.459C62.0313 176.637 61.9098 176.863 61.8598 177.11C61.5985 178.399 61.4877 179.715 61.5298 181.03L61.4298 189.6L59.7798 189.85C59.8398 183.85 59.8798 180.85 59.9498 174.85L61.6098 174.62C61.6098 175.13 61.6098 175.38 61.6098 175.9C61.7978 175.402 62.0834 174.946 62.4498 174.56C62.7534 174.249 63.1501 174.045 63.5798 173.98C63.7961 173.935 64.0195 173.936 64.2351 173.984C64.4506 174.033 64.6534 174.127 64.8298 174.26C65.2052 174.593 65.4703 175.032 65.5898 175.52Z" fill="#2D1F04"/>
<path d="M77.2998 172C77.9671 171.855 78.6631 171.92 79.2918 172.187C79.9205 172.454 80.4509 172.909 80.8098 173.49C81.7142 175.206 82.0999 177.148 81.9198 179.08C81.9775 181.16 81.517 183.222 80.5798 185.08C80.2243 185.754 79.7147 186.334 79.0927 186.774C78.4706 187.213 77.7535 187.5 76.9998 187.61C76.3399 187.762 75.6489 187.703 75.0244 187.441C74.3999 187.179 73.8736 186.727 73.5198 186.15C72.7265 184.943 72.3531 183.07 72.3998 180.53C72.3287 178.451 72.7827 176.387 73.7198 174.53C74.0708 173.853 74.5791 173.27 75.202 172.829C75.8249 172.389 76.5443 172.105 77.2998 172ZM77.2998 174.07C76.8229 174.15 76.3754 174.354 76.0017 174.661C75.628 174.968 75.3412 175.368 75.1698 175.82C74.6019 177.212 74.3327 178.707 74.3798 180.21C74.2611 181.63 74.4769 183.058 75.0098 184.38C75.1695 184.78 75.4636 185.111 75.8414 185.318C76.2193 185.524 76.6572 185.592 77.0798 185.51C77.5593 185.426 78.0086 185.218 78.3838 184.908C78.7589 184.598 79.047 184.195 79.2198 183.74C79.791 182.356 80.0636 180.867 80.0198 179.37C80.1396 177.95 79.9238 176.521 79.3898 175.2C79.2379 174.778 78.9391 174.424 78.5481 174.204C78.157 173.983 77.6998 173.911 77.2598 174L77.2998 174.07Z" fill="#2D1F04"/>
<path d="M89.6599 166.37L89.5599 170.55L93.7199 169.95L93.6699 171.83L89.5099 172.44L89.3099 180.44C89.2093 181.202 89.3529 181.975 89.7199 182.65C89.9267 182.857 90.1858 183.003 90.4695 183.073C90.7531 183.144 91.0505 183.136 91.3299 183.05L93.3299 182.74V184.67L91.0999 185.01C89.7399 185.22 88.7799 185.01 88.2399 184.36C87.6999 183.71 87.4499 182.5 87.4899 180.72C87.5699 177.52 87.5999 175.91 87.6799 172.72L84.6799 173.15L84.7299 171.27L87.7299 170.84L87.8299 166.65L89.6599 166.37Z" fill="#2D1F04"/>
<path d="M106.58 174.77C106.58 175.24 106.58 175.47 106.58 175.94L98.6699 177.12V177.2C98.5306 178.448 98.8273 179.706 99.5099 180.76C99.8142 181.145 100.223 181.435 100.688 181.595C101.152 181.754 101.653 181.777 102.13 181.66C102.775 181.552 103.397 181.335 103.97 181.02C104.693 180.617 105.373 180.141 106 179.6C106 180.6 106 181.04 105.93 181.99C105.296 182.428 104.627 182.813 103.93 183.14C103.33 183.406 102.698 183.594 102.05 183.7C101.316 183.879 100.546 183.839 99.8355 183.584C99.1245 183.33 98.5037 182.873 98.0499 182.27C97.0123 180.66 96.5538 178.745 96.7499 176.84C96.7271 174.789 97.2778 172.774 98.3399 171.02C98.7496 170.319 99.3106 169.718 99.9818 169.262C100.653 168.805 101.418 168.504 102.22 168.38C102.848 168.251 103.501 168.317 104.09 168.569C104.68 168.821 105.179 169.247 105.52 169.79C106.385 171.298 106.756 173.04 106.58 174.77ZM104.77 174.34C104.866 173.26 104.636 172.177 104.11 171.23C103.888 170.919 103.581 170.679 103.227 170.537C102.872 170.396 102.485 170.358 102.11 170.43C101.658 170.504 101.228 170.674 100.847 170.927C100.466 171.181 100.143 171.512 99.8999 171.9C99.2566 172.903 98.8749 174.051 98.7899 175.24L104.77 174.34Z" fill="#2D1F04"/>
<path d="M126.43 164.9C127.085 164.747 127.772 164.803 128.394 165.059C129.016 165.315 129.542 165.76 129.9 166.33C130.66 167.51 130.98 169.33 130.9 171.77C130.903 173.799 130.398 175.797 129.43 177.58C129.055 178.241 128.534 178.808 127.906 179.238C127.279 179.668 126.562 179.949 125.81 180.06C125.161 180.212 124.481 180.158 123.864 179.906C123.247 179.653 122.725 179.214 122.37 178.65C121.61 177.483 121.276 175.66 121.37 173.18C121.356 171.149 121.854 169.147 122.82 167.36C123.189 166.697 123.708 166.13 124.334 165.703C124.961 165.276 125.678 165.001 126.43 164.9ZM126.34 166.9C125.865 166.979 125.417 167.177 125.039 167.476C124.662 167.776 124.366 168.165 124.18 168.61C123.587 169.958 123.284 171.417 123.29 172.89C123.148 174.264 123.336 175.653 123.84 176.94C123.996 177.325 124.28 177.644 124.645 177.845C125.009 178.045 125.431 178.114 125.84 178.04C126.318 177.953 126.766 177.749 127.145 177.445C127.524 177.141 127.821 176.747 128.01 176.3C128.595 174.959 128.898 173.512 128.9 172.05C129.047 170.674 128.865 169.282 128.37 167.99C128.204 167.606 127.913 167.29 127.544 167.094C127.175 166.897 126.751 166.833 126.34 166.91V166.9Z" fill="#2D1F04"/>
<path d="M143.91 165.65C143.581 165.341 143.189 165.109 142.76 164.97C142.331 164.848 141.88 164.825 141.44 164.9C140.889 164.972 140.362 165.168 139.898 165.472C139.434 165.777 139.045 166.183 138.76 166.66C138.042 167.917 137.666 169.341 137.67 170.79C137.53 173.64 137.46 175.07 137.33 177.92L135.5 178.2C135.76 172.46 135.9 169.58 136.17 163.84L138.01 163.58C137.95 164.7 137.93 165.26 137.87 166.38C138.163 165.42 138.689 164.547 139.4 163.84C140.022 163.225 140.825 162.826 141.69 162.7C142.103 162.624 142.527 162.624 142.94 162.7C143.335 162.793 143.706 162.966 144.03 163.21C144 164.21 144 164.69 143.91 165.65Z" fill="#2D1F04"/>
<path d="M147.39 162.22L152.08 161.55C151.81 166.55 151.67 169 151.4 173.96L155.02 173.41L154.92 175.22L145.92 176.61L146.02 174.79L149.63 174.24C149.86 170 149.97 167.87 150.2 163.63L147.34 164.05L147.39 162.22ZM150.54 156.22L152.38 155.96L152.22 158.96L150.38 159.22C150.45 158.05 150.48 157.45 150.54 156.27V156.22Z" fill="#2D1F04"/>
<path d="M166.68 172.53C166.658 174.3 166.15 176.03 165.21 177.53C164.802 178.122 164.274 178.621 163.661 178.997C163.048 179.372 162.363 179.615 161.65 179.71C161.134 179.789 160.611 179.812 160.09 179.78C159.55 179.743 159.014 179.656 158.49 179.52C158.49 178.59 158.57 178.13 158.62 177.21C159.164 177.476 159.738 177.674 160.33 177.8C160.803 177.884 161.287 177.884 161.76 177.8C162.205 177.751 162.633 177.604 163.015 177.371C163.397 177.138 163.723 176.823 163.97 176.45C164.536 175.424 164.835 174.272 164.84 173.1V173L164.94 171.43C164.666 172.17 164.22 172.835 163.64 173.37C163.12 173.837 162.472 174.136 161.78 174.23C161.183 174.35 160.563 174.267 160.019 173.993C159.475 173.719 159.039 173.271 158.78 172.72C158.01 171.123 157.711 169.34 157.92 167.58C157.966 165.656 158.47 163.77 159.39 162.08C159.704 161.451 160.161 160.904 160.723 160.483C161.286 160.061 161.938 159.776 162.63 159.65C163.241 159.532 163.874 159.631 164.42 159.93C164.946 160.293 165.337 160.821 165.53 161.43C165.53 160.7 165.59 160.33 165.64 159.6L167.47 159.34C167.17 164.64 167 167.27 166.68 172.53ZM165.24 166.53C165.398 165.224 165.25 163.899 164.81 162.66C164.676 162.288 164.415 161.976 164.072 161.78C163.729 161.584 163.328 161.517 162.94 161.59C162.475 161.669 162.037 161.862 161.666 162.152C161.294 162.441 161 162.819 160.81 163.25C160.207 164.526 159.886 165.918 159.87 167.33C159.707 168.643 159.871 169.976 160.35 171.21C160.502 171.596 160.787 171.915 161.154 172.109C161.521 172.304 161.945 172.361 162.35 172.27C162.795 172.178 163.21 171.977 163.559 171.686C163.908 171.394 164.18 171.021 164.35 170.6C164.911 169.318 165.214 167.939 165.24 166.54V166.53Z" fill="#2D1F04"/>
<path d="M172 158.69L176.69 158.01C176.36 162.91 176.2 165.36 175.87 170.25L179.49 169.7C179.44 170.42 179.41 170.77 179.37 171.49L170.37 172.87C170.37 172.15 170.44 171.8 170.49 171.08L174.1 170.53C174.38 166.34 174.51 164.25 174.79 160.07L171.93 160.48C171.88 159.77 171.9 159.41 172 158.69ZM175.21 152.81L177.05 152.55L176.85 155.47L175.02 155.73C175.05 154.56 175.09 154 175.16 152.81H175.21Z" fill="#2D1F04"/>
<path d="M191.75 161.07C191.49 164.51 191.36 166.24 191.11 169.68L189.28 169.96C189.53 166.51 189.66 164.79 189.91 161.34C190.051 160.433 189.937 159.505 189.58 158.66C189.425 158.392 189.187 158.182 188.902 158.063C188.616 157.943 188.299 157.921 188 158C187.571 158.067 187.162 158.23 186.805 158.478C186.449 158.726 186.153 159.051 185.94 159.43C185.369 160.464 185.054 161.619 185.02 162.8C184.79 165.96 184.68 167.54 184.46 170.69L182.64 170.97C183.03 165.38 183.22 162.59 183.64 156.97L185.47 156.7L185.32 158.8C185.647 158.033 186.142 157.349 186.77 156.8C187.34 156.32 188.032 156.008 188.77 155.9C189.23 155.781 189.716 155.814 190.156 155.994C190.596 156.174 190.966 156.492 191.21 156.9C191.785 158.21 191.972 159.657 191.75 161.07Z" fill="#2D1F04"/>
<path d="M185.82 48.5999C185.82 48.5999 171.04 63.5999 171.94 89.3799C172.99 119.38 181.41 129.82 190.33 145.67C195.47 154.82 198.44 164.95 198.26 171.76C198.01 180.92 191.65 201.82 213.45 205.12C235.25 208.42 307.91 204.12 326.07 193.89C344.23 183.66 356.46 168.27 356.46 168.27C356.46 168.27 350.51 91.3399 324.75 56.3299C300.34 23.1599 274.84 19.5899 252.96 13.8099C242.68 11.6999 236.07 7.69987 234.3 3.60987C231.37 10.6099 232.15 8.72987 232.3 11.6099C225.3 11.2399 211.76 4.41987 208.73 1.53987C208.42 1.49209 208.102 1.55246 207.831 1.71084C207.56 1.86923 207.351 2.11602 207.24 2.40987C206.72 5.02987 206.63 4.40986 213.09 18.7099C213.09 18.7099 211.93 16.0599 191.02 17.6099C190.58 17.6099 190.31 18.8299 190.68 19.0699C193 20.6599 204.13 23.9999 202 27.5999C202 27.5999 192.83 24.8299 178.55 32.0799C178.474 32.1213 178.414 32.185 178.375 32.2623C178.337 32.3396 178.324 32.4267 178.337 32.5119C178.35 32.597 178.389 32.6761 178.449 32.7383C178.508 32.8006 178.585 32.843 178.67 32.8599C182.51 33.3599 193.3 33.9799 191.79 36.5199C191.79 36.5199 185.7 38.7599 171.14 49.0399C170.21 49.6999 171.43 51.3099 171.82 51.1699C185.9 45.9999 185.82 48.5999 185.82 48.5999Z" fill="#2D1F04"/>
<g style="mix-blend-mode:multiply" opacity="0.23">
<path d="M186 47.83C186.24 48.11 186.51 48.44 186.3 48.75C183.83 52.44 180.3 54.43 176.07 65.66C174.49 69.88 192.84 31.84 243.49 31.84C315.49 31.84 316.23 66.7 324.49 94.11C333.3 123.32 329.41 172.01 328.23 190.48C327.86 196.4 336.87 187.19 340.93 183.92C346.893 179.157 352.379 173.825 357.31 168C357.354 167.948 357.387 167.887 357.406 167.822C357.425 167.756 357.429 167.688 357.42 167.62C357.06 163.13 350.7 89.82 325.74 55.89C304.18 26.59 269.28 20 249.45 13.09C246.453 12.7762 243.565 11.7928 241 10.2125C238.435 8.63211 236.258 6.49527 234.63 3.95999C232.55 5.12999 233.93 10.2 232.07 12.26C216.63 9.95 210.58 2.32 207.59 1.94C206.53 1.8 210.02 15.94 213.7 19.49C213.665 19.559 213.617 19.6202 213.558 19.6699C213.499 19.7197 213.43 19.7569 213.356 19.7793C213.282 19.8018 213.205 19.809 213.128 19.8005C213.051 19.792 212.977 19.768 212.91 19.73C211.22 18.73 208.42 17.03 191.91 17.63C191.701 17.6321 191.498 17.6996 191.329 17.8231C191.16 17.9466 191.035 18.1198 190.969 18.3185C190.904 18.5171 190.903 18.7312 190.966 18.9305C191.029 19.1299 191.153 19.3046 191.32 19.43C193.64 21.19 202.08 23.6 202.48 28.73C200.6 28.65 190.59 26.18 178.6 31.87C178.429 31.9706 178.293 32.1195 178.207 32.2978C178.121 32.4762 178.09 32.676 178.118 32.8719C178.146 33.0679 178.231 33.2512 178.363 33.3986C178.495 33.546 178.668 33.6509 178.86 33.7C183.4 34.45 196.53 33.47 192.49 37.28C192.49 37.28 184.43 39.16 171.49 49.91C170.91 50.4 171.42 51.43 172.14 51.16C180.91 47.74 184.8 46.45 186 47.83Z" fill="#2D1F04"/>
</g>
<path d="M182.51 73C186 64.79 195.18 54.9999 203.46 52.9999C213.21 50.6499 215.01 52.4499 224.46 51.9999C226.2 51.9099 231.46 50.5599 232.52 48.5599C233.58 46.5599 232.76 43.6599 232.8 43.6699C234.29 44.2299 238.8 46.8599 240.63 47.5399C247.71 50.1999 249.36 50.54 255.75 48.05C277.09 39.63 295.36 53.37 302.59 62.97C306.44 68.08 315.72 82.5799 316.03 98.2799C316.34 114.53 319.4 122.38 300.71 139.23C278.51 159.23 224.78 169.71 194.71 140.14C180.38 126 176.76 86.56 182.51 73Z" fill="#2D1F04"/>
<path d="M186.31 48.2596C186.31 48.2596 172.16 64.1996 171.42 87.3796C170.42 119.68 181.42 129.82 190.33 145.67C195.47 154.82 198.44 164.95 198.26 171.76C198.01 180.92 191.65 201.82 213.45 205.12C235.25 208.42 307.91 204.12 326.07 193.89C344.23 183.66 356.46 168.27 356.46 168.27C356.46 168.27 352.46 89.2696 324.46 54.2096C299.72 23.1396 279.75 22.7296 244.08 11.6196C236.08 9.12964 235.08 5.13964 234.34 3.97964C232.67 5.97964 232.06 9.78963 232.81 11.5096C232.44 11.5796 221.69 13.4396 208.73 1.94963C205.92 1.19963 208.11 12.3196 213.24 19.5096C213.24 19.5096 211.9 16.8896 191.04 17.9096C190.943 17.912 190.85 17.9453 190.774 18.0046C190.698 18.064 190.643 18.1463 190.617 18.2393C190.591 18.3324 190.596 18.4312 190.631 18.5213C190.666 18.6114 190.728 18.688 190.81 18.7396C193.15 20.2696 204.25 25.0296 202.15 28.6396C202.15 28.6396 192.65 24.8596 178.37 32.1096C178.288 32.1473 178.222 32.2108 178.18 32.2902C178.138 32.3696 178.123 32.4606 178.138 32.5492C178.152 32.6378 178.196 32.7191 178.261 32.7806C178.327 32.8421 178.411 32.8804 178.5 32.8896C182.34 33.3896 194.97 34.1496 191.83 37.1196C191.83 37.1196 184.92 38.8696 171.15 49.5896C170.63 49.9996 171.08 50.9196 171.69 50.6596C183.76 45.5196 186.31 48.2596 186.31 48.2596Z" stroke="#2D1F04" stroke-width="2.62" stroke-linecap="round" stroke-linejoin="round"/>
<path d="M237.79 104.21C229.94 100.6 221 114.9 220.66 125C219.9 145.68 250.44 150.73 267.57 140.4C285.42 129.63 263.88 97.97 250.24 102.99" fill="#2D1F04"/>
<path d="M181.66 80.55C173.59 94.39 180.92 119.94 186.34 129.85C186.758 130.621 187.423 131.23 188.227 131.58C189.032 131.93 189.93 132 190.78 131.78C196.482 130.334 201.929 128.02 206.93 124.92C239.93 104.42 223.62 61.19 221.72 58.92C219.11 55.43 212.47 64.6 202.09 72.98C198.94 75.48 185.87 79.54 181.66 80.55Z" fill="#2D1F04"/>
<path d="M256.51 61.6297C256.8 130.99 311.01 128.57 314.72 119.63C317.1 113.92 321.49 93.1297 313.67 76.3397C307.48 62.1697 294.83 74.9997 285 70.9997C274.67 66.8397 256.45 47.7697 256.51 61.6297Z" fill="#2D1F04"/>
<path opacity="0.83" d="M282.76 78.86H282.9C289.76 77.86 296.3 83.36 297.49 91.24C298.68 99.12 294.09 106.35 287.23 107.39H287.09C280.23 108.39 273.69 102.89 272.5 95.01C271.31 87.13 275.9 79.9 282.76 78.86Z" fill="#2D1F04"/>
<path opacity="0.83" d="M204.12 80.4497H204.27C211.83 80.4497 217.97 87.4497 217.97 96.1697C217.97 104.89 211.83 111.89 204.27 111.89H204.12C196.55 111.89 190.42 104.89 190.42 96.1697C190.42 87.4497 196.55 80.4497 204.12 80.4497Z" fill="#2D1F04"/>
<path d="M231.38 105.84C231.24 103.13 236.57 100.66 243.28 100.33C249.99 99.9997 255.54 101.93 255.68 104.65C255.82 107.37 250.48 109.84 243.77 110.16C237.06 110.48 231.51 108.56 231.38 105.84Z" fill="#2D1F04"/>
<path d="M204.19 80.9099C207.384 80.8993 210.452 82.1573 212.719 84.4074C214.986 86.6576 216.267 89.7158 216.28 92.9099V93.6899C216.189 96.8349 214.877 99.8207 212.62 102.013C210.363 104.206 207.341 105.432 204.195 105.432C201.049 105.432 198.026 104.206 195.77 102.013C193.513 99.8207 192.2 96.8349 192.11 93.6899V92.9099C192.11 91.3273 192.423 89.7603 193.031 88.2992C193.639 86.838 194.53 85.5116 195.653 84.3962C196.776 83.2809 198.108 82.3986 199.573 81.8003C201.038 81.202 202.607 80.8994 204.19 80.9099Z" fill="#2D1F04"/>
<path d="M284.39 76.3797C285.973 76.3679 287.543 76.6695 289.01 77.2672C290.476 77.865 291.809 78.747 292.933 79.8625C294.057 80.978 294.949 82.3048 295.558 83.7666C296.167 85.2285 296.48 86.7963 296.48 88.3797V89.1697C296.389 92.3147 295.076 95.3005 292.82 97.493C290.563 99.6856 287.541 100.912 284.395 100.912C281.249 100.912 278.226 99.6856 275.97 97.493C273.713 95.3005 272.4 92.3147 272.31 89.1697V88.3797C272.31 86.7971 272.623 85.2301 273.231 83.769C273.839 82.3078 274.73 80.9814 275.853 79.866C276.976 78.7507 278.308 77.8684 279.773 77.2701C281.238 76.6718 282.807 76.3692 284.39 76.3797Z" fill="#2D1F04"/>
<path d="M280.14 91.8297C280.154 91.2534 280.337 90.694 280.667 90.2214C280.998 89.7489 281.46 89.3842 281.996 89.1732C282.533 88.9621 283.12 88.914 283.683 89.0348C284.247 89.1557 284.762 89.4401 285.165 89.8525C285.568 90.2649 285.84 90.787 285.948 91.3534C286.055 91.9197 285.993 92.5052 285.77 93.0366C285.546 93.5679 285.17 94.0214 284.69 94.3404C284.21 94.6593 283.646 94.8296 283.07 94.8297C282.286 94.8114 281.541 94.4873 280.994 93.9267C280.446 93.366 280.14 92.6134 280.14 91.8297Z" fill="#2D1F04"/>
<path d="M199.94 96.1696C199.965 95.5964 200.159 95.0432 200.496 94.5787C200.833 94.1143 201.299 93.7591 201.836 93.5571C202.373 93.3551 202.957 93.3153 203.517 93.4427C204.077 93.57 204.586 93.8588 204.983 94.2732C205.38 94.6877 205.647 95.2096 205.749 95.7741C205.852 96.3387 205.787 96.921 205.562 97.4489C205.337 97.9767 204.962 98.4269 204.483 98.7434C204.005 99.06 203.444 99.2291 202.87 99.2296C202.076 99.2113 201.322 98.8788 200.772 98.3052C200.223 97.7316 199.924 96.9636 199.94 96.1696Z" fill="#2D1F04"/>
<path d="M284.39 76.3797C285.973 76.3679 287.543 76.6695 289.01 77.2672C290.476 77.865 291.809 78.747 292.933 79.8625C294.057 80.978 294.949 82.3048 295.558 83.7666C296.167 85.2285 296.48 86.7963 296.48 88.3797V89.1697C296.389 92.3147 295.076 95.3005 292.82 97.493C290.563 99.6856 287.541 100.912 284.395 100.912C281.249 100.912 278.226 99.6856 275.97 97.493C273.713 95.3005 272.4 92.3147 272.31 89.1697V88.3797C272.31 86.7971 272.623 85.2301 273.231 83.769C273.839 82.3078 274.73 80.9814 275.853 79.866C276.976 78.7507 278.308 77.8684 279.773 77.2701C281.238 76.6718 282.807 76.3692 284.39 76.3797Z" stroke="#2D1F04" stroke-width="2.6" stroke-linecap="round" stroke-linejoin="round"/>
<path d="M204.19 80.9099C207.384 80.8993 210.452 82.1573 212.719 84.4074C214.986 86.6576 216.267 89.7158 216.28 92.9099V93.6899C216.189 96.8349 214.877 99.8207 212.62 102.013C210.363 104.206 207.341 105.432 204.195 105.432C201.049 105.432 198.026 104.206 195.77 102.013C193.513 99.8207 192.2 96.8349 192.11 93.6899V92.9099C192.11 91.3273 192.423 89.7603 193.031 88.2992C193.639 86.838 194.53 85.5116 195.653 84.3962C196.776 83.2809 198.108 82.3986 199.573 81.8003C201.038 81.202 202.607 80.8994 204.19 80.9099Z" stroke="#2D1F04" stroke-width="2.6" stroke-linecap="round" stroke-linejoin="round"/>
<path d="M179.23 82.66C205.92 79.86 220.64 57.04 220.64 57.04" stroke="#2D1F04" stroke-width="7.6" stroke-linecap="round" stroke-linejoin="round"/>
<path d="M309.9 71.49C277.41 74.95 255.31 52.64 257.47 55.08" stroke="#2D1F04" stroke-width="7.6" stroke-linecap="round" stroke-linejoin="round"/>
<path d="M229.09 113.5C229.09 113.5 243.18 126.62 261.71 110.35" stroke="#2D1F04" stroke-width="3" stroke-miterlimit="10" stroke-linecap="round"/>
<path d="M303.27 94.1399C303.01 93.8199 302.56 94.0799 302.62 94.5199C303.058 98.1879 302.745 101.907 301.7 105.45C300.99 107.9 299.01 114 303.75 115.16C310.34 116.78 311.7 109.49 310.39 105.06C308.68 99.3199 304.93 96.1799 303.27 94.1399Z" fill="#2D1F04"/>
<path d="M176 223.53C176 223.53 179.22 233.03 166.34 243.22C158.39 249.51 141.61 258.22 131.2 236.28C119.89 243.1 109.54 234.2 109.54 234.2C109.54 234.2 98.6999 233 95.8699 233C78.3699 248.19 82.3299 274.74 91.6999 287.52C121.63 297.24 160.44 297.57 162.92 292.45C162.45 259.67 190.16 227.72 190.16 227.72L176 223.53Z" fill="#2D1F04"/>
<path d="M157.63 325.78C184.71 334 204 343.25 266.5 345C331.01 346.82 372.35 338.06 389.34 320.26C395.86 305.81 379.51 229.07 377.47 224.94C378.984 224.404 380.373 223.563 381.55 222.47C382.23 181.6 369.66 152.82 342.89 148.65C322.26 149.44 314.16 160.77 305.63 172.31C280 192.6 202 185.52 196.87 171C196.87 170 196.69 168 196.61 166.89C172.67 172.89 171.28 217.12 172.44 221.44C174.89 224.79 184.11 226.26 184.11 226.26C184.11 226.26 187.35 227.33 184.05 231.74C161 262.56 154.77 278.48 157.63 325.78Z" fill="#2D1F04"/>
<path d="M389.49 319.24C393.19 280.84 378.41 229.57 377.89 227.71" stroke="#2D1F04" stroke-width="2.62" stroke-linecap="round" stroke-linejoin="round"/>
<g style="mix-blend-mode:multiply" opacity="0.23">
<path d="M184.37 230.85C184.37 230.85 190.91 245.24 218.14 245.19C231.14 245.19 232.72 245.4 243.49 244.63C253.25 243.93 252.66 249.51 245.98 250.12C231.98 251.4 224.68 249.21 224.68 249.21C224.68 249.21 201.17 245.47 190.16 246.89C179.52 248.25 173.37 252.48 165.89 260.17C169 251.3 184.37 230.85 184.37 230.85Z" fill="#2D1F04"/>
</g>
<g style="mix-blend-mode:multiply" opacity="0.23">
<path d="M378.22 227.21C378.22 227.21 393.28 272.05 389.47 320.09C385.47 324.35 377.47 330.09 372.37 331.63C375.43 320.22 369.17 270.68 369.17 270.68L378.22 227.21Z" fill="#2D1F04"/>
</g>
<path d="M206.37 219.86C214.37 220.29 221.66 220.53 228.73 221.04C234.54 221.45 236.06 225.22 235.68 228.73C235.17 233.56 232.06 236.79 226.68 238.37C226.4 238.46 226.11 238.51 225.53 238.64C230.98 241.82 230.91 247.96 234.32 253.64L222.22 253.18C220.371 249.719 218.724 246.153 217.29 242.5C216.54 240.61 215.48 239.2 212.34 239.65C211.221 243.956 210.749 248.405 210.94 252.85C207.19 252.72 203.77 252.6 200.08 252.49C199.43 241.44 204.15 230.5 206.37 219.86ZM215.87 226.99C215.33 229.14 214.77 231.11 214.09 233.49C216.47 233.49 218.74 233.49 221.03 233.32C221.882 233.306 222.707 233.019 223.386 232.503C224.064 231.987 224.559 231.268 224.8 230.45C225.27 228.81 224.49 227.45 222.46 227.24C220.43 227.03 218.2 227.07 215.87 227V226.99Z" fill="#2D1F04"/>
<path d="M267.76 231C264.16 231.09 260.91 231.17 257.53 231.27C257.47 228.54 255.98 227.03 253.16 226.89C252.284 226.752 251.387 226.896 250.599 227.3C249.81 227.705 249.169 228.349 248.77 229.14C248.57 230.71 249.62 231.27 250.91 231.64C253.26 232.31 255.69 232.92 258.09 233.64C259.425 234.048 260.728 234.553 261.99 235.15C269.99 238.87 267.94 248.1 261.29 252.26C259.06 253.623 256.577 254.518 253.99 254.89C250.076 255.479 246.079 255.175 242.3 254C239.906 253.343 237.843 251.819 236.51 249.725C235.177 247.631 234.671 245.116 235.09 242.67L244.92 242.49C245.03 243.14 245.11 243.74 245.25 244.32C246.02 247.47 249.37 249.13 252.86 248C253.591 247.831 254.26 247.461 254.79 246.93C255.321 246.4 255.691 245.731 255.86 245C255.971 244.371 255.853 243.723 255.529 243.173C255.204 242.623 254.694 242.207 254.09 242C253 241.51 251.82 241.17 250.68 240.79C248.31 240 245.87 239.39 243.68 238.42C239.47 236.55 237.91 233.42 238.88 229.86C239.498 227.746 240.687 225.843 242.315 224.36C243.943 222.876 245.948 221.87 248.11 221.45C252.536 220.33 257.189 220.486 261.53 221.9C266.1 223.37 268 226.21 267.76 231Z" fill="#2D1F04"/>
<path d="M311.21 228.19C325.74 289.88 305.43 304.44 273.15 299.19C249.63 295.36 251.15 257.56 251.15 257.56C241.068 267.977 235.072 281.676 234.26 296.15C234.26 296.15 229.55 298.56 221.26 290.72C211.57 306.57 224.79 326.35 233.04 331.95C257.37 348.46 301.23 348.63 339.79 331.63C377.72 314.92 386.45 284.72 384.32 214" fill="#2D1F04"/>
<path d="M126.1 196.14C126.1 196.14 127.61 233.47 131.24 236.28C134.87 239.09 110.15 243.19 109.08 232.62C109.41 218.91 126.1 196.14 126.1 196.14Z" fill="#2D1F04"/>
<path d="M251.66 257.56C251.66 257.56 250.19 282.06 262.77 294.15C266.09 297.33 236.38 304.35 235.31 293.78C238.39 271 251.66 257.56 251.66 257.56Z" fill="#2D1F04"/>
<path d="M143.62 265.88C138.15 273.65 109.08 285.63 99.0599 286.67C95.0599 281.5 89.6799 253.84 103.88 241.22C110.73 250.2 132.28 261.76 143.62 265.88Z" fill="#2D1F04"/>
<path d="M220.61 291.23C227.08 286.44 233.19 289.9 234.42 289.17C234.89 293.41 234.57 295.65 233.74 297.78C229.72 297.78 226.42 296 220.61 291.23Z" fill="#2D1F04"/>
<path d="M307.14 170.9C307.14 170.9 291.95 183.9 259.58 185.21C227.21 186.52 200.35 177.07 197.49 172.44C194.63 167.81 190.33 186.73 197.93 190.28C205.18 193.67 228.07 203.08 261.83 198.57" stroke="#2D1F04" stroke-width="2.62" stroke-linecap="round" stroke-linejoin="round"/>
<path d="M197.87 166.45C173.74 170.65 172.08 211.89 172.6 222.3C172.66 223.35 175.47 224.83 175.47 224.83C175.47 224.83 178.47 233.69 164.73 244.59C150.99 255.49 134.73 247.4 131.73 237.82C128.73 228.24 123.47 204.63 126.44 197.36C129.41 190.09 108.44 213.36 109.6 234.2L95.7399 231.71C95.7399 231.71 70.4199 255.35 91.7399 287.55C91.7399 287.55 116.08 299.69 157.02 294.24" stroke="#2D1F04" stroke-width="2.62" stroke-linecap="round" stroke-linejoin="round"/>
<path d="M157.45 324.85C152.35 302.72 159.45 258.47 184.05 231.71C185.37 201.82 197.87 189.98 197.87 189.98" stroke="#2D1F04" stroke-width="2.62" stroke-linecap="round" stroke-linejoin="round"/>
<path d="M95.8699 233C95.8699 233 125.76 263.55 141.45 264.21C157.14 264.87 99.26 290.84 91.7 287.52" stroke="#2D1F04" stroke-width="2.62" stroke-linecap="round" stroke-linejoin="round"/>
<path d="M102.64 241.22C102.64 241.22 87.45 263.41 99.24 287.05" stroke="#2D1F04" stroke-width="2.62" stroke-linecap="round" stroke-linejoin="round"/>
<path d="M95.7197 262.26C98.0197 263.58 117.92 273.65 144.13 265.73" stroke="#2D1F04" stroke-width="2.62" stroke-linecap="round" stroke-linejoin="round"/>
<path d="M109.54 233C109.54 233 109.54 243.51 131.71 237.79" stroke="#2D1F04" stroke-width="2.62" stroke-linecap="round" stroke-linejoin="round"/>
<path d="M312.41 234.92C321.89 279.42 313.52 299 284.87 299.61C247.05 300.41 251.87 257.78 251.87 257.78C241.674 268.049 235.6 281.702 234.8 296.15C234.8 296.15 229.6 298.43 221.35 290.59C219.22 295.25 214.35 307.64 226.19 324.35C241.8 346.35 297.46 349.76 332.38 335.35C382.38 314.67 386.38 273.94 384.91 221.35" stroke="#2D1F04" stroke-width="2.62" stroke-linecap="round" stroke-linejoin="round"/>
<path d="M222.23 289.89C222.23 289.89 227.08 286.33 234.37 288.56" stroke="#2D1F04" stroke-width="2.62" stroke-linecap="round" stroke-linejoin="round"/>
<path d="M235.41 296.6C235.74 296.6 248.31 305.3 263.03 294.54" stroke="#2D1F04" stroke-width="2.62" stroke-linecap="round" stroke-linejoin="round"/>
<path d="M345.49 222.75C355.06 220.58 360.85 219.84 384.7 220.75C396.08 218.28 386.83 150.46 343.02 148.46C311.2 152.66 303.02 177.22 302.63 191.66C302.37 201.21 308.32 233.55 308.32 233.55C308.32 233.55 309.23 237.16 313.68 234.62C325 228.2 337.21 224.64 345.49 222.75Z" fill="#2D1F04"/>
<path d="M384.88 221.27C384.88 221.27 388.51 219.5 388.62 217.56C389.19 207.67 389.29 176.1 369.27 158.85C340.46 134.01 311.42 159.12 305.04 176.19C299.3 191.51 307.57 230.08 308.04 232.72C308.51 235.36 312.44 234.92 312.44 234.92" stroke="#2D1F04" stroke-width="2.62" stroke-linecap="round" stroke-linejoin="round"/>
<path d="M319.21 219.48C318.8 219.72 344.53 205.02 388.76 208.76" stroke="#2D1F04" stroke-width="2.62" stroke-linecap="round" stroke-linejoin="round"/>
<path d="M202.62 176C201.898 178.57 201.898 181.29 202.62 183.86" stroke="#2D1F04" stroke-width="2.62" stroke-linecap="round" stroke-linejoin="round"/>
<path d="M208.27 178.57C208.27 178.57 207.27 183.57 208.93 187.7" stroke="#2D1F04" stroke-width="2.62" stroke-linecap="round" stroke-linejoin="round"/>
<path d="M255.17 186C254.933 187.358 255.125 188.756 255.72 190" stroke="#2D1F04" stroke-width="2.62" stroke-linecap="round" stroke-linejoin="round"/>
<path d="M260.24 186C260.239 187.924 260.612 189.829 261.34 191.61" stroke="#2D1F04" stroke-width="2.62" stroke-linecap="round" stroke-linejoin="round"/>
<path d="M232.93 184.4C232.83 186.271 232.977 188.148 233.37 189.98" stroke="#2D1F04" stroke-width="2.62" stroke-linecap="round" stroke-linejoin="round"/>
<g style="mix-blend-mode:multiply" opacity="0.23">
<path d="M343 148.48C362 155.91 366.91 174.48 369.14 181.34C372.78 192.42 379.33 218.39 372.72 258.94C366.11 299.49 346.54 331.28 301.55 335.25C279.09 337.25 231.97 334.97 219.4 295.76C214.19 318.24 235.65 340.34 259.82 342.13C289.77 344.35 293.34 348.03 332.32 335.31C394.26 303.61 382.4 272.43 384.32 220.73C395.58 218.09 386.4 150.92 343 148.48Z" fill="#2D1F04"/>
</g>
<g style="mix-blend-mode:multiply" opacity="0.23">
<path d="M113 282.53C113 282.53 143 285.74 158.87 283.02C157.79 287.02 156.87 291.02 157.27 294.02C130.04 299.63 93.8198 288.36 93.8198 288.36L113 282.53Z" fill="#2D1F04"/>
</g>
<path d="M240.94 107.81L242.5 117.79" stroke="#2D1F04" stroke-width="3" stroke-miterlimit="10" stroke-linecap="round"/>
<path d="M339.65 212.91C339.65 212.91 341.74 213.62 341.26 219.13" stroke="#2D1F04" stroke-width="2.62" stroke-linecap="round" stroke-linejoin="round"/>
<path d="M344.34 211.84C344.34 211.84 346.43 212.54 345.94 218.05" stroke="#2D1F04" stroke-width="2.62" stroke-linecap="round" stroke-linejoin="round"/>
<path d="M362.78 208.73C362.78 208.73 364.87 209.44 364.38 214.94" stroke="#2D1F04" stroke-width="2.62" stroke-linecap="round" stroke-linejoin="round"/>
<g style="mix-blend-mode:multiply" opacity="0.23">
<path d="M352.71 247.92V258.99" stroke="#2D1F04" stroke-width="4" stroke-miterlimit="10" stroke-linecap="round"/>
</g>
<g style="mix-blend-mode:multiply" opacity="0.23">
<path d="M360.2 251.22L359.42 262.26" stroke="#2D1F04" stroke-width="4" stroke-miterlimit="10" stroke-linecap="round"/>
</g>
<g style="mix-blend-mode:multiply" opacity="0.23">
<path d="M210.4 160.7L212.4 169.7" stroke="#2D1F04" stroke-width="4" stroke-miterlimit="10" stroke-linecap="round"/>
</g>
<g style="mix-blend-mode:multiply" opacity="0.23">
<path d="M218.17 162.97L220.21 172.14" stroke="#2D1F04" stroke-width="4" stroke-miterlimit="10" stroke-linecap="round"/>
</g>
<g style="mix-blend-mode:multiply" opacity="0.23">
<path d="M226.16 165.15L228.19 174.24" stroke="#2D1F04" stroke-width="4" stroke-miterlimit="10" stroke-linecap="round"/>
</g>
<path d="M215.636 228.636V227.545C215.758 215.97 216.97 206.758 219.273 199.909C221.576 193.061 224.848 187.515 229.091 183.273C233.333 179.03 238.424 175.121 244.364 171.545C247.939 169.364 251.152 166.788 254 163.818C256.848 160.788 259.091 157.303 260.727 153.364C262.424 149.424 263.273 145.061 263.273 140.273C263.273 134.333 261.879 129.182 259.091 124.818C256.303 120.455 252.576 117.091 247.909 114.727C243.242 112.364 238.061 111.182 232.364 111.182C227.394 111.182 222.606 112.212 218 114.273C213.394 116.333 209.545 119.576 206.455 124C203.364 128.424 201.576 134.212 201.091 141.364H178.182C178.667 131.061 181.333 122.242 186.182 114.909C191.091 107.576 197.545 101.97 205.545 98.0909C213.606 94.2121 222.545 92.2727 232.364 92.2727C243.03 92.2727 252.303 94.3939 260.182 98.6364C268.121 102.879 274.242 108.697 278.545 116.091C282.909 123.485 285.091 131.909 285.091 141.364C285.091 148.03 284.061 154.061 282 159.455C280 164.848 277.091 169.667 273.273 173.909C269.515 178.152 264.97 181.909 259.636 185.182C254.303 188.515 250.03 192.03 246.818 195.727C243.606 199.364 241.273 203.697 239.818 208.727C238.364 213.758 237.576 220.03 237.455 227.545V228.636H215.636ZM227.273 282.455C222.788 282.455 218.939 280.848 215.727 277.636C212.515 274.424 210.909 270.576 210.909 266.091C210.909 261.606 212.515 257.758 215.727 254.545C218.939 251.333 222.788 249.727 227.273 249.727C231.758 249.727 235.606 251.333 238.818 254.545C242.03 257.758 243.636 261.606 243.636 266.091C243.636 269.061 242.879 271.788 241.364 274.273C239.909 276.758 237.939 278.758 235.455 280.273C233.03 281.727 230.303 282.455 227.273 282.455Z" fill="white"/>
</g>
<defs>
<clipPath id="clip0_228_3418">
<rect width="392" height="346" fill="white"/>
</clipPath>
</defs>
</svg>
