<svg width="663" height="363" viewBox="0 0 663 363" fill="none" xmlns="http://www.w3.org/2000/svg">
<g clip-path="url(#clip0_228_3539)">
<path d="M386.2 349.3H122.1L39.9 339.8V309.8L386.2 349.3Z" fill="#2D1F04"/>
<path d="M649 240.4V349.3H384.5L39.9 309.8L243.4 203.5L649 240.4Z" fill="#2D1F04"/>
<path d="M311.1 221C305.6 229.9 302.9 238.7 293.3 256.3C280.5 279.6 273.5 289.7 263 298.2C240.4 316.7 208.6 296.9 177 246.9C193.9 243.7 220.5 218 226.6 210.4C230.2 214.8 239.7 240.2 243 249.3C266.7 222.9 286.2 209 303.1 199C312.3 193.6 342.9 182.6 344.4 187.3C346.6 194 315.9 213.2 311.1 221Z" fill="#2D1F04"/>
<path d="M181.3 181.9C189 204.6 199.7 224.4 202.4 237.7C210.8 234.2 230.1 226.3 234.1 222.4C234.4 222.1 234.7 221.9 234.9 221.6C235.8 220.7 237.1 215.7 233.5 213.3C233.1 212.1 232.6 210.8 232.1 209.4C222.8 184.4 207.1 176.4 190.4 180.5L181.3 181.9Z" fill="#2D1F04"/>
<path d="M311.1 221C305.6 215.5 301.4 205.9 303.1 199C312.4 193.6 342.9 182.6 344.4 187.3C346.6 194 315.9 213.2 311.1 221Z" fill="#2D1F04"/>
<path opacity="0.23" d="M311.1 221C305.6 229.9 302.9 238.7 293.3 256.3C280.5 279.6 273.5 289.7 263 298.2C240.4 316.7 208.6 296.9 177 246.9C184.2 245.5 193 240.2 201.4 233.9C197.6 220.7 188.2 202.6 181.3 182L190.4 180.7C198.5 178.8 206.3 179.6 213.3 183.8C216.2 185.5 212.2 195.1 216.2 207C219.2 215.9 219.3 226.7 224.7 228.2C223.7 233 231.1 242.1 232.4 251.4C233.7 260.8 230.8 276.1 236.2 287.3C241.6 298.5 252 296.1 260.8 283.5C269.6 270.9 285.8 246.4 295.8 231.5C305.8 216.7 309.2 213.8 321.6 205.2C331.1 198.6 338.9 192.4 339.8 186.4C342.4 186.1 344.1 186.4 344.5 187.4C346.6 194 315.9 213.2 311.1 221Z" fill="#2D1F04"/>
<path d="M30.8 193C36.3 188.9 41 186.2 46.8 184.6C52.1 183.1 88.5 199.5 106.7 205.5C112.9 207.5 161.9 223 214.5 212.9C214.5 212.9 214.5 212.9 214.5 212.8C209.3 201.1 208.6 189.3 209.2 189.1C210.1 188.7 210.9 190.9 211.2 191.1C211.9 191.7 210.7 189.2 210.5 188.2C210.1 185.6 209.6 182.7 209.8 180.1C209.8 179.5 211.2 181.3 211.4 180.8C211.9 179.5 211 177.2 211.1 175.8C211.3 173 213 170 214.1 167.5C220.5 152.6 225.9 135.7 226.7 119.2C227.2 108.3 226 87.8002 211.4 71.3002C209.3 68.9002 218.2 68.8002 218 63.0002C211.5 66.5002 202.6 61.8002 199.1 59.8002C207.4 60.1002 219.6 58.3002 218.8 46.9002C213.9 52.4002 207.3 54.7002 198.6 52.7002C202.1 51.0002 212.7 44.3002 208 34.7002C205.7 42.7002 199.2 44.6002 190.6 41.5002C194.8 39.4002 197.7 33.1002 191.2 27.7002C191.9 34.3002 179.2 37.1002 172.7 37.0002C125.6 36.1002 87.1 47.9002 59.5 92.0002C44.6 115.5 33.6 144 30.8 193Z" fill="#2D1F04"/>
<path d="M233.1 349.3H17.9H17.8C16.5 338.2 17.2 294.9 21.9 270.9C21.9 270.8 21.9 270.7 22 270.6C22.2 269.5 22.4 268.5 22.7 267.5C22.8 267 22.9 266.4 23.1 265.9C23.1 265.8 23.2 265.7 23.2 265.6C16.6 252.9 12.3 238 14.5 221.5C14.9 218.8 15.3 216.2 15.9 213.7C15.9 213.6 15.9 213.5 16 213.4C17.4 207.8 19.6 202.8 23.4 198.4C23.5 198.2 23.7 198 23.9 197.9C26.3 195.3 28.7 193.2 31 191.5C31 192 30.9 192.5 30.9 193.1C31.2 192.9 31.6 192.6 31.9 192.4C35.3 190 38.9 187.9 42.2 186.4C42.2 186.4 42.2 186.4 42.3 186.4C42.7 186.3 43.1 186.2 43.5 186.2H43.6C46.3 185.7 49 185.6 51.7 185.8C52.5 185.9 53.4 186 54.2 186.1C55.3 186.4 56.5 186.8 57.8 187.3C64.9 189.7 74.5 193.5 83.8 197.2H83.9C92.3 200.5 100.6 203.7 106.7 205.7C107.8 206.1 110.1 206.8 113.5 207.8C113.6 207.8 113.7 207.9 113.8 207.9C125.7 211.5 147.9 216.2 173.9 216.5C175.6 216.5 177.3 216.5 179.1 216.5C190.4 216.4 202.3 215.4 214.5 213.1C214.3 209.9 217.8 216.2 218.5 217.9C219.4 220.5 216.7 222.5 216.7 223.7V223.8C216.8 225.4 218.5 229 219.2 230.7C224 242.5 232.4 260.5 224.3 273.3C226.9 278.9 229.9 287.1 231.7 293.1C235.9 307.1 238.7 334.2 233.1 349.3Z" fill="#2D1F04"/>
<path d="M106.3 177.9L105.2 185.3" stroke="#2D1F04" stroke-width="4.1072" stroke-miterlimit="10" stroke-linecap="round" stroke-linejoin="round"/>
<path d="M114.6 181.9L113.4 189.3" stroke="#2D1F04" stroke-width="4.1072" stroke-miterlimit="10" stroke-linecap="round" stroke-linejoin="round"/>
<path opacity="0.23" d="M232.4 295.2C228.4 289.4 224.6 284.7 222.2 282.8C217.1 278.9 210.3 278.3 204.3 277.7C188.8 276.3 174.8 289.8 158.3 288.3C154 287.9 142 284.5 146.3 277.4C148.7 273.5 158.3 275.4 162.1 275.7C178 277.1 192.5 276.5 208.1 275.4C211.9 275.1 220.8 275.8 224.4 270.5C224.9 273 227 279.3 228 281.9C230.4 288.2 231 290.8 232.4 295.2Z" fill="#2D1F04"/>
<path d="M214.5 212.8C161.9 222.9 110.6 207.8 105.1 204.3" stroke="#2D1F04" stroke-width="2.7806" stroke-miterlimit="10" stroke-linecap="round" stroke-linejoin="round"/>
<path d="M17.9 349.5C16.4 337.9 17.4 288 23.1 265.6" stroke="#2D1F04" stroke-width="2.7806" stroke-miterlimit="10" stroke-linecap="round" stroke-linejoin="round"/>
<path d="M214.5 212.9C214.2 209.5 217.8 215.9 218.5 217.6C219.4 220.2 216.7 222.2 216.7 223.4C216.7 224.9 218.5 228.6 219.2 230.3C224 242.1 232.4 260.1 224.3 272.9C226.9 278.5 229.9 286.7 231.7 292.7C235.9 307 238.7 334.1 233.1 349.2" stroke="#2D1F04" stroke-width="2.7806" stroke-miterlimit="10" stroke-linecap="round" stroke-linejoin="round"/>
<path d="M27.4 223.7C32 221.9 36.3 220.2 40.8 219.6C44.5 219.1 46 221.3 46.7 224C47.7 227.8 47 230.8 44.4 233.2C44.3 233.3 44.1 233.4 43.8 233.7C48 234.9 50.1 239.4 53.8 242.3C51.3 243.2 49.2 244 46.9 244.9C44.7 242.9 42.6 240.7 40.6 238.4C39.5 237.2 38.4 236.3 36.8 237.4C37.8 240.7 39.1 244.1 40.6 247.4C38.5 248.2 36.7 248.9 34.7 249.7C30.9 241.4 28.4 233 27.4 223.7ZM34.4 226.8C34.7 228.6 35 230.2 35.5 232.2C36.8 231.7 38.1 231.2 39.4 230.6C40.5 230 40.9 228.9 40.7 227.6C40.5 226.2 39.6 225.4 38.4 225.6C37.1 225.9 35.8 226.4 34.4 226.8ZM61.1 213.9C58.3 213.7 55.5 214.4 52.9 216.1C50.1 217.8 48.5 220.9 48.9 224.2C49.3 227.1 51.2 229.1 54.2 229.5C55.8 229.7 57.4 229.7 58.9 229.7C59.7 229.7 60.4 229.7 61.2 229.8C62.1 229.9 62.8 230.5 63.1 231.5C63.4 232.6 63.1 233.5 62.4 234.2C60.8 235.7 58.4 235.4 57 233.3C56.7 232.9 56.5 232.5 56.2 232.1C54.3 232.9 52.5 233.6 50.7 234.4C52.1 238.4 55.2 240.7 58.5 240.5C61 240.4 63.3 239.6 65.3 238.4C66.5 237.6 67.7 236.5 68.4 235.2C70.5 231.2 69.1 224.4 63.8 223.3C62.9 223.1 62.1 223 61.2 223C59.6 222.9 58.1 223 56.5 223C55.6 223 54.9 222.8 54.6 221.6C54.7 220 55.6 219.4 56.8 219.1C58.5 218.6 59.7 219.5 60.3 221.4C62.2 220.7 64.1 220 66.1 219.2C65.4 215.7 64 214.1 61.1 213.9Z" fill="#2D1F04"/>
<path opacity="0.23" d="M58.4 278.6C56.3 280.1 54.8 281.5 53.6 282.8C53.6 282.8 53.5 282.8 53.5 282.9C51.4 285 50.2 286.8 49.1 287.9C48.6 288.5 48 289 47.4 289.4C47.3 289.5 47.2 289.5 47.1 289.6C44.1 291.2 40.9 290 38.1 287.6C36.5 301.2 37 330.1 39.1 349.3H17.9C16.5 338.7 17.3 295 21.9 270.9C21.9 270.8 21.9 270.7 22 270.6C22.2 269.5 22.4 268.5 22.7 267.5C22.8 267 22.9 266.4 23.1 265.9C16.5 253.2 12.1 238.3 14.3 221.7C14.7 218.9 15.2 216.3 15.9 213.7C15.9 213.6 15.9 213.5 16 213.4C17.5 207.9 19.9 202.9 23.4 198.4C23.5 198.2 23.7 198 23.9 197.8C30 190.3 36.6 187 43.6 186H43.7C46.3 185.6 49 185.5 51.8 185.6C54.6 185.7 57.4 186 60.3 186.5C59.5 186.7 58.7 186.8 57.9 187.1C36.6 192.7 26.7 214.7 31.3 239.8C32.2 244.6 33.4 249 34.8 252.9C36.7 258.1 39.1 262.6 41.6 266.4C47 274.5 53.5 278.8 58.4 278.6Z" fill="#2D1F04"/>
<path d="M206.3 214.7C206.8 216.9 207.4 218.6 207.2 220.9" stroke="#2D1F04" stroke-width="2.7806" stroke-miterlimit="10" stroke-linecap="round" stroke-linejoin="round"/>
<path d="M192.9 216.1C193.7 218.1 193.7 220.7 193.5 222.9" stroke="#2D1F04" stroke-width="2.7806" stroke-miterlimit="10" stroke-linecap="round" stroke-linejoin="round"/>
<path d="M177.1 216.8L177.5 222.1" stroke="#2D1F04" stroke-width="2.7806" stroke-miterlimit="10" stroke-linecap="round" stroke-linejoin="round"/>
<path d="M165.9 217.2L165.8 218.1V218.7L165.7 219.6L165.6 220.1V220.7L165.5 221.3" stroke="#2D1F04" stroke-width="2.7806" stroke-miterlimit="10" stroke-linecap="round" stroke-linejoin="round"/>
<path d="M172 218.1L171.9 218.7V219.2L171.8 219.8V220.4L171.7 221" stroke="#2D1F04" stroke-width="2.7806" stroke-miterlimit="10" stroke-linecap="round" stroke-linejoin="round"/>
<path d="M128.8 212.4V213L128.7 213.6L128.6 214.8V215.4" stroke="#2D1F04" stroke-width="2.7806" stroke-miterlimit="10" stroke-linecap="round" stroke-linejoin="round"/>
<path d="M124.5 212.1L124.4 212.9L124.3 213.8V214.4" stroke="#2D1F04" stroke-width="2.7806" stroke-miterlimit="10" stroke-linecap="round" stroke-linejoin="round"/>
<path d="M216.8 223.4C206.7 229.5 166.3 234.4 115.7 221.8" stroke="#2D1F04" stroke-width="2.7806" stroke-miterlimit="10" stroke-linecap="round" stroke-linejoin="round"/>
<path d="M221.4 97.1999C218.6 86.5999 212.8 74.7999 205.6 73.5999C201.1 72.7999 197.3 75.1999 193.5 77.5999C190.1 79.6999 187 79.0999 186.2 76.6999C185.4 74.4999 186.6 73 188.9 71.3C184.5 72.7 183.2 74.6 179.6 76.4C173.7 79.4 170.4 80.1 168.8 79.8C164.2 79 159.3 74.8999 155.1 73.4999C136.4 67.3999 122.5 71.1999 114.8 95.9999C113.1 101.5 110.7 114.1 114.1 127.7C119 147.5 126.3 157.9 138.4 169.5C157.2 187.5 198.4 191.6 215.2 156.3C223.1 139.8 226.6 117 221.4 97.1999Z" fill="#2D1F04"/>
<path d="M199.6 109.3C205.6 109.6 212.9 118.7 208.6 133.6C205.5 144.4 199.9 150.9 193.8 155.7C183.9 163.5 173.1 162.6 165.9 153.6C158.3 144 158 132.1 161.3 123C164.8 113.3 175 107.1 183.9 108.2L199.6 109.3Z" fill="#2D1F04"/>
<path d="M221.3 97.2998C222.6 103 224.7 111.9 223.4 125.1C198 118.6 191.6 80.4998 193.4 77.5998C198.1 74.5998 201.3 72.6998 205.9 73.6998C209.4 74.4998 217.1 79.0998 221.3 97.2998Z" fill="#2D1F04"/>
<path d="M168.7 79.8C168.9 121.1 139.1 130.3 114.4 128.8C111.2 116.8 112.1 105 114.6 96.9C117.1 89 122.2 75.5 134 72.1C145.3 68.9 162.1 75.2 168.7 79.8Z" fill="#2D1F04"/>
<path d="M205.1 111.1C205.4 107.7 200.8 104.3 194.7 103.6C188.6 102.8 183.4 104.9 183.1 108.3C182.8 111.7 187.4 115.1 193.5 115.8C199.6 116.6 204.8 114.5 205.1 111.1Z" fill="#2D1F04"/>
<path d="M191 78.7001C198.5 73.2001 208.2 66.8001 229.3 90.4001" stroke="#2D1F04" stroke-width="7.6" stroke-miterlimit="10" stroke-linecap="round" stroke-linejoin="round"/>
<path d="M208.2 86.3C202.5 88.2 199.7 95.2 202 102L202.3 102.8C204.5 109.6 211 113.6 216.7 111.7C222.4 109.8 225.2 102.8 222.9 96L222.6 95.2C220.3 88.5 213.9 84.5 208.2 86.3Z" fill="#2D1F04"/>
<path d="M208.2 86.3C202.5 88.2 199.7 95.2 202 102L202.3 102.8C204.5 109.6 211 113.6 216.7 111.7C222.4 109.8 225.2 102.8 222.9 96L222.6 95.2C220.3 88.5 213.9 84.5 208.2 86.3Z" stroke="#2D1F04" stroke-width="2.6" stroke-miterlimit="10" stroke-linecap="round" stroke-linejoin="round"/>
<path d="M217.1 103.4C218.536 103.4 219.7 102.236 219.7 100.8C219.7 99.3643 218.536 98.2002 217.1 98.2002C215.664 98.2002 214.5 99.3643 214.5 100.8C214.5 102.236 215.664 103.4 217.1 103.4Z" fill="#2D1F04"/>
<path d="M146.6 86.8001C138.9 85.7001 131.8 91.1 130.8 98.7L130.7 99.6C129.6 107.2 135 114.3 142.7 115.4C150.4 116.5 157.5 111.1 158.5 103.5L158.6 102.6C159.7 94.9 154.3 87.8001 146.6 86.8001Z" fill="#2D1F04"/>
<path d="M146.6 86.8001C138.9 85.7001 131.8 91.1 130.8 98.7L130.7 99.6C129.6 107.2 135 114.3 142.7 115.4C150.4 116.5 157.5 111.1 158.5 103.5L158.6 102.6C159.7 94.9 154.3 87.8001 146.6 86.8001Z" stroke="#2D1F04" stroke-width="2.6" stroke-miterlimit="10" stroke-linecap="round" stroke-linejoin="round"/>
<path d="M151.6 105.4C153.146 105.4 154.4 104.146 154.4 102.6C154.4 101.053 153.146 99.7998 151.6 99.7998C150.054 99.7998 148.8 101.053 148.8 102.6C148.8 104.146 150.054 105.4 151.6 105.4Z" fill="#2D1F04"/>
<path opacity="0.23" d="M30.8 193C36.2 189.1 42.2 185.7 46.8 184.6C52.2 183.3 65.8 188.1 69.2 189.9C70.7 105.4 116.5 68.1003 146.7 61.2003C150.3 60.4003 159.4 58.8003 160.3 54.4003C163.7 55.8003 165.1 58.8003 169 59.1003C171.4 59.2003 174.8 57.8003 178.3 50.7003C179.9 55.5003 177.6 59.5003 180 59.8003C183.7 60.3003 191.9 54.1003 195.5 55.1003C190.1 60.0003 197.1 65.4003 200.3 66.7003C203.8 68.1003 207.5 68.3003 208.6 66.7003C209.5 68.2003 209.9 69.3003 211 70.5003C211.5 68.9003 218.1 68.1003 217.9 63.1003C211.4 66.6003 202.5 61.9003 199 59.9003C207.3 60.2003 219.5 58.4003 218.7 47.0003C213.8 52.5003 207.2 54.8003 198.5 52.8003C202 51.1003 212.6 44.4003 207.9 34.8003C205.6 42.8003 199.1 44.7003 190.5 41.6003C194.7 39.5003 197.6 33.2003 191.1 27.8003C191.8 34.4003 179.1 37.2003 172.6 37.1003C125.5 36.2003 87 48.0003 59.4 92.1003C44.6 115.5 33.6 142.9 30.8 193Z" fill="#2D1F04"/>
<path d="M171.3 79.7001C151.3 70.7001 132.7 66.3001 103.8 98.2001" stroke="#2D1F04" stroke-width="7.6" stroke-miterlimit="10" stroke-linecap="round" stroke-linejoin="round"/>
<path d="M203 297.3C186.8 306.9 168 314 149.1 320.2C128.7 326.9 111.4 329 98.9 326.3C79.4 322.1 66.6 305.2 49.6 287.3C52.4 284.2 55.9 276.2 76.6 269.6C83.3 267.5 90.3 267.7 99.9 264.1C113.9 287.9 126 291.8 157.8 290C166.7 289.5 184.3 286.3 204.5 285C215 284.3 212.9 291.4 203 297.3Z" fill="#2D1F04"/>
<path d="M214.5 212.8C209.3 201 208.6 189.3 209.2 189C210.1 188.6 210.9 190.8 211.1 191C211.8 191.6 210.6 189.1 210.4 188.1C210 185.5 209.5 182.6 209.7 180C209.7 179.4 211.1 181.2 211.3 180.7C211.8 179.4 210.9 177.1 211 175.7C211.2 172.9 212.8 169.9 214 167.4C220.4 152.5 225.8 135.6 226.6 119.1C227.1 108.2 225.9 87.7001 211.3 71.2001C209.2 68.8001 218.1 68.7001 217.9 62.9001C211.4 66.4001 202.5 61.7001 199 59.7001C207.3 60.0001 219.5 58.2001 218.7 46.8001C213.8 52.2001 207.2 54.6001 198.5 52.6001C202 50.9001 212.6 44.2001 207.9 34.6001C205.6 42.6001 199.1 44.5001 190.5 41.4001C194.7 39.3001 197.6 33.0001 191.1 27.6001C191.8 34.2001 179.1 37.0001 172.6 36.9001C125.5 36.0001 87 47.8001 59.4 91.9001C44.7 115.5 33.9 142.7 30.8 191.1" stroke="#2D1F04" stroke-width="2.7806" stroke-miterlimit="10" stroke-linecap="round" stroke-linejoin="round"/>
<path d="M96.1 234.8C96.3 235.8 96.5 236.7 96.7 237.6C97.9 241.9 100.3 247.1 100.9 251.3C105.3 257.1 108 260.1 99.8 264.1" stroke="#2D1F04" stroke-width="2.7806" stroke-miterlimit="10" stroke-linecap="round" stroke-linejoin="round"/>
<path d="M202.5 297.3C192.1 303.5 180.5 308.7 168.6 313.2C161.9 302.7 162.4 295.1 163.3 289.4C173 288.3 187.7 286 204.1 284.9C214.5 284.3 212.4 291.4 202.5 297.3Z" fill="#2D1F04"/>
<path opacity="0.23" d="M203 297.3C186.8 306.9 168 314 149.1 320.2C128.7 326.9 111.4 329 98.9 326.3C79.4 322.1 66.6 305.2 49.6 287.3C51.4 285.3 53.5 281.2 60.3 276.8C58.4 280.9 63.7 289.3 74.4 299C86.2 309.6 95.3 320.1 106.6 320.7C118 321.3 154.9 311.3 173.8 304.9C190.9 299.1 207.5 291.3 205.8 284.8C214.8 285 212.4 291.7 203 297.3Z" fill="#2D1F04"/>
<path d="M49.6 287.4C44.6 293 38.6 288.7 34.4 283.2C22.7 267.6 11 246.4 14.4 221.4C15.6 212.2 17.9 204.3 23.7 197.8C43.5 176.2 63.3 187.4 84.9 197.4" stroke="#2D1F04" stroke-width="2.7806" stroke-miterlimit="10" stroke-linecap="round" stroke-linejoin="round"/>
<path d="M99.8 251.7C83.3 249.1 60.3 253.3 45.4 267.4" stroke="#2D1F04" stroke-width="2.7806" stroke-miterlimit="10" stroke-linecap="round" stroke-linejoin="round"/>
<path d="M88.3 251.9C88.9 254 89 255.6 89.1 257.7" stroke="#2D1F04" stroke-width="2.7806" stroke-miterlimit="10" stroke-linecap="round" stroke-linejoin="round"/>
<path d="M76.2 253.8L77.1 258.8" stroke="#2D1F04" stroke-width="2.7806" stroke-miterlimit="10" stroke-linecap="round" stroke-linejoin="round"/>
<path d="M65.1 256.7L67.1 261.3" stroke="#2D1F04" stroke-width="2.7806" stroke-miterlimit="10" stroke-linecap="round" stroke-linejoin="round"/>
<path d="M233.1 223.5C236.9 232.6 241.1 243.8 243.1 249.3C265.3 224.5 286.3 209 303.2 199C312.4 193.6 343 182.6 344.5 187.3C346.6 194 316 213.2 311.2 220.9C305.7 229.8 303 238.6 293.4 256.2C280.6 279.5 273.6 289.6 263.1 298.1C254.7 305 245 306.6 234.6 303.3" stroke="#2D1F04" stroke-width="2.7806" stroke-miterlimit="10" stroke-linecap="round" stroke-linejoin="round"/>
<path d="M220.4 230.1C226.6 227.3 232.2 224.4 234.1 222.5C234.4 222.2 234.7 222 234.9 221.7C235.8 220.8 237.1 215.8 233.5 213.4C233.1 212.2 232.6 210.9 232.1 209.5C226.6 194.6 218.7 185.7 209.8 181.9" stroke="#2D1F04" stroke-width="2.7806" stroke-miterlimit="10" stroke-linecap="round" stroke-linejoin="round"/>
<path d="M303.1 199C301.4 205.9 305.6 215.5 311.1 221" stroke="#2D1F04" stroke-width="2.7806" stroke-miterlimit="10" stroke-linecap="round" stroke-linejoin="round"/>
<path d="M344.5 187.3C329.7 192.6 316.6 199.2 304.3 210" stroke="#2D1F04" stroke-width="2.7806" stroke-miterlimit="10" stroke-linecap="round" stroke-linejoin="round"/>
<path d="M202.5 297.7C186.3 307.3 168 314 149.1 320.2C128.7 326.9 111.4 329 98.9 326.3C79.4 322.1 66.6 305.2 49.6 287.3C52.4 284.2 55.9 276.2 76.6 269.6C83.3 267.5 90.3 267.7 99.9 264.1C113.9 287.9 126 291.8 157.8 290C166.7 289.5 183.9 286.7 204 285.4C214.5 284.7 212.4 291.8 202.5 297.7Z" stroke="#2D1F04" stroke-width="2.7806" stroke-miterlimit="10" stroke-linecap="round" stroke-linejoin="round"/>
<path d="M163.7 289.6C162.8 295.3 162.3 302.6 169 313.2" stroke="#2D1F04" stroke-width="2.7806" stroke-miterlimit="10" stroke-linecap="round" stroke-linejoin="round"/>
<path d="M209.8 287.2C199.3 293 176.2 300 163.8 301.4" stroke="#2D1F04" stroke-width="2.7806" stroke-miterlimit="10" stroke-linecap="round" stroke-linejoin="round"/>
<path d="M197.2 137.7C196.9 141.3 195.2 145.5 192.1 147.1C189.3 148.6 183.8 147.2 181.9 144.8C179.2 141.6 180 138.2 182.5 134.4C185.6 136.8 191.6 138.5 197.2 137.7Z" fill="#2D1F04"/>
<path d="M194.2 145.5C193.8 146.4 193.3 146.6 191.7 147.4C188.9 148.9 183.8 147.7 181.9 145.4C180.8 144.1 180.3 142.7 180.2 141.4C182.6 140.7 184.3 141.3 185.7 143C189.7 142.2 192.8 143.5 194.2 145.5Z" fill="#2D1F04"/>
<path d="M197.2 137.8C191.6 138.6 185.6 136.9 182.5 134.6C180 138.3 179.1 141.7 181.8 145C183.8 147.3 189.4 148.8 192.1 147.2C194.6 145.7 196.9 142.6 197.2 137.8Z" stroke="#2D1F04" stroke-width="2.7806" stroke-miterlimit="10" stroke-linecap="round" stroke-linejoin="round"/>
<path d="M195.7 113.5C197.3 120.5 196.2 131.9 193.9 137.8" stroke="#2D1F04" stroke-width="2.7806" stroke-miterlimit="10" stroke-linecap="round" stroke-linejoin="round"/>
<path d="M243 249.3C241.2 251.3 239.3 253.6 237.8 255.9" stroke="#2D1F04" stroke-width="2.7806" stroke-miterlimit="10" stroke-linecap="round" stroke-linejoin="round"/>
<path d="M281.7 310L532.4 336C539.9 336.8 547.5 335.2 554.2 331.6L638.6 284.9C641.7 283.2 643 280.2 643 275.9L384.1 259C377.6 258.5 371.1 259.7 365.2 262.6L276.4 300C276.4 305.8 278.1 309.6 281.7 310Z" fill="#2D1F04"/>
<path d="M385.4 252.9L635.9 272C642.9 272.5 649 267 649 259.9V109.6C649 103.1 643.9 97.8001 637.5 97.5001L387 84.4001C380.1 84.0001 374.2 89.6001 374.2 96.5001V240.8C374.2 247.2 379.1 252.5 385.4 252.9Z" fill="#2D1F04"/>
<path d="M381.7 86.8002C382.2 86.8002 382.7 86.8002 383.2 86.8002L633.7 99.9002C641 100.3 645.2 103.7 645.2 110.1V262.4C645.2 265.9 643.8 269 641.5 271.2C645.8 269.4 648.9 265.1 648.9 260V109.5C648.9 105.4 646.8 101.7 643.7 99.5002C642.2 98.7002 640.6 98.3002 638.8 98.2002L388.4 85.2002C386 85.1002 383.7 85.7002 381.7 86.8002Z" fill="#2D1F04"/>
<path d="M385.2 96.4999V240.8C385.2 241.4 385.6 241.9 386.2 241.9L529.5 252.9L555 254.9L578.3 256.7L624 260.2L633.6 260.9H633.7C634.3 260.9 634.8 260.4 634.8 259.8V109.4C634.8 108.8 634.3 108.3 633.8 108.3L525.7 102.7L480.7 100.3L457.8 99.0999L432.7 97.7999L386.3 95.3999C385.7 95.3999 385.2 95.8999 385.2 96.4999Z" fill="#2D1F04"/>
<path d="M281.7 303.9L532.4 329.9C539.9 330.7 547.5 329.1 554.2 325.5L638.6 278.8C641.7 277.1 640.7 272.4 637.2 272.2L384.2 252.9C377.7 252.4 371.2 253.6 365.3 256.5L280.6 297.3C277.3 298.7 278.1 303.5 281.7 303.9Z" fill="#2D1F04"/>
<path d="M385.4 252.9L635.9 272C642.9 272.5 649 267 649 259.9V109.6C649 103.1 643.9 97.8001 637.5 97.5001L387 84.4001C380.1 84.0001 374.2 89.6001 374.2 96.5001V240.8C374.2 247.2 379.1 252.5 385.4 252.9Z" stroke="#2D1F04" stroke-width="2.8223" stroke-miterlimit="10" stroke-linecap="round" stroke-linejoin="round"/>
<path d="M281.7 303.9L532.4 329.9C539.9 330.7 547.5 329.1 554.2 325.5L638.6 278.8C641.7 277.1 640.7 272.4 637.2 272.2L384.2 252.9C377.7 252.4 371.2 253.6 365.3 256.5L280.6 297.3C277.3 298.7 278.1 303.5 281.7 303.9Z" stroke="#2D1F04" stroke-width="2.8223" stroke-miterlimit="10" stroke-linecap="round" stroke-linejoin="round"/>
<path d="M628.3 277.2L549.1 319.9C544.4 322.4 539.1 323.5 533.9 322.9L517.9 321.3" stroke="#2D1F04" stroke-width="2.8223" stroke-miterlimit="10" stroke-linecap="round" stroke-linejoin="round"/>
<path d="M320.8 287.7L550.9 311L614.6 277.6L380.6 259.5L320.8 287.7Z" fill="#2D1F04"/>
<path d="M326.5 295.2C326.6 295.2 326.8 295.2 326.9 295.1L398.7 259C399.1 258.8 399.3 258.2 399.1 257.8C398.9 257.4 398.3 257.2 397.9 257.4L326 293.5C325.6 293.7 325.4 294.3 325.6 294.7C325.8 295 326.1 295.2 326.5 295.2Z" fill="#2D1F04"/>
<path d="M345.1 296.8C345.2 296.8 345.4 296.8 345.5 296.7L417.3 260.4C417.7 260.2 417.9 259.6 417.7 259.2C417.5 258.8 416.9 258.6 416.5 258.8L344.7 295.1C344.3 295.3 344.1 295.9 344.3 296.3C344.4 296.6 344.8 296.8 345.1 296.8Z" fill="#2D1F04"/>
<path d="M363.7 298.4C363.8 298.4 364 298.4 364.1 298.3L435.9 261.9C436.3 261.7 436.5 261.1 436.3 260.7C436.1 260.3 435.5 260.1 435.1 260.3L363.3 296.7C362.9 296.9 362.7 297.5 362.9 297.9C363.1 298.2 363.4 298.4 363.7 298.4Z" fill="#2D1F04"/>
<path d="M382.4 300C382.5 300 382.7 300 382.8 299.9L454.6 263.3C455 263.1 455.2 262.5 455 262.1C454.8 261.7 454.2 261.5 453.8 261.7L382 298.3C381.6 298.5 381.4 299.1 381.6 299.5C381.7 299.8 382 300 382.4 300Z" fill="#2D1F04"/>
<path d="M417.7 293.1C417.8 293.1 418 293.1 418.1 293L473.2 264.8C473.6 264.6 473.8 264 473.6 263.6C473.4 263.2 472.8 263 472.4 263.2L417.3 291.4C416.9 291.6 416.7 292.2 416.9 292.6C417.1 292.9 417.4 293.1 417.7 293.1Z" fill="#2D1F04"/>
<path d="M436 294.8C436.1 294.8 436.3 294.8 436.4 294.7L491.9 266.2C492.3 266 492.5 265.4 492.3 265C492.1 264.6 491.5 264.4 491.1 264.6L435.6 293.1C435.2 293.3 435 293.9 435.2 294.3C435.3 294.6 435.6 294.8 436 294.8Z" fill="#2D1F04"/>
<path d="M454.2 296.6C454.3 296.6 454.5 296.6 454.6 296.5L510.5 267.6C510.9 267.4 511.1 266.8 510.9 266.4C510.7 266 510.1 265.8 509.7 266L453.8 294.9C453.4 295.1 453.2 295.7 453.4 296.1C453.6 296.4 453.9 296.6 454.2 296.6Z" fill="#2D1F04"/>
<path d="M472.4 298.4C472.5 298.4 472.7 298.4 472.8 298.3L529.1 269.1C529.5 268.9 529.7 268.3 529.5 267.9C529.3 267.5 528.7 267.3 528.3 267.5L472 296.7C471.6 296.9 471.4 297.5 471.6 297.9C471.8 298.2 472.1 298.4 472.4 298.4Z" fill="#2D1F04"/>
<path d="M475.6 308C475.7 308 475.9 308 476 307.9L547.8 270.5C548.2 270.3 548.4 269.7 548.2 269.3C548 268.9 547.4 268.7 547 268.9L475.2 306.3C474.8 306.5 474.6 307.1 474.8 307.5C474.9 307.8 475.2 308 475.6 308Z" fill="#2D1F04"/>
<path d="M494.2 309.6C494.3 309.6 494.5 309.6 494.6 309.5L566.4 271.9C566.8 271.7 567 271.1 566.8 270.7C566.6 270.3 566 270.1 565.6 270.3L493.8 307.9C493.4 308.1 493.2 308.7 493.4 309.1C493.6 309.4 493.9 309.6 494.2 309.6Z" fill="#2D1F04"/>
<path d="M512.8 311.2C512.9 311.2 513.1 311.2 513.2 311.1L585 273.3C585.4 273.1 585.6 272.5 585.4 272.1C585.2 271.7 584.6 271.5 584.2 271.7L512.4 309.5C512 309.7 511.8 310.3 512 310.7C512.2 311 512.5 311.2 512.8 311.2Z" fill="#2D1F04"/>
<path d="M531.5 312.8C531.6 312.8 531.8 312.8 531.9 312.7L603.7 274.8C604.1 274.6 604.3 274 604.1 273.6C603.9 273.2 603.3 273 602.9 273.2L531.1 311.1C530.7 311.3 530.5 311.9 530.7 312.3C530.9 312.6 531.2 312.8 531.5 312.8Z" fill="#2D1F04"/>
<path d="M608.7 282.6C609.2 282.6 609.6 282.2 609.6 281.8C609.6 281.3 609.3 280.9 608.8 280.8L362.4 261.8C361.9 261.8 361.5 262.1 361.4 262.6C361.4 263.1 361.7 263.5 362.2 263.6L608.7 282.6Z" fill="#2D1F04"/>
<path d="M597.4 288.7C597.9 288.7 598.3 288.3 598.3 287.9C598.3 287.4 598 287 597.5 286.9L352.5 266.8C352 266.8 351.6 267.1 351.5 267.6C351.5 268.1 351.8 268.5 352.3 268.6L597.4 288.7C597.3 288.7 597.4 288.7 597.4 288.7Z" fill="#2D1F04"/>
<path d="M586.1 294.9C586.6 294.9 587 294.5 587 294.1C587 293.6 586.7 293.2 586.2 293.1L342.5 271.9C342 271.9 341.6 272.2 341.5 272.7C341.5 273.2 341.8 273.6 342.3 273.7L586.1 294.9C586 294.9 586 294.9 586.1 294.9Z" fill="#2D1F04"/>
<path d="M574.7 301C575.2 301 575.6 300.6 575.6 300.2C575.6 299.7 575.3 299.3 574.8 299.2L332.5 277C332 277 331.6 277.3 331.5 277.8C331.5 278.3 331.8 278.7 332.3 278.8L574.7 301Z" fill="#2D1F04"/>
<path d="M563.4 307.2C563.9 307.2 564.3 306.9 564.3 306.4C564.3 305.9 564 305.5 563.5 305.4L322.6 282C322.1 282 321.7 282.3 321.6 282.8C321.6 283.3 321.9 283.7 322.4 283.8L563.4 307.2Z" fill="#2D1F04"/>
<path d="M474.5 307.9L459.5 317.1C458.4 317.8 457.1 318.1 455.8 318L368.2 309.1C367.1 309 366.9 307.6 367.8 307.1L385.5 297.6C386.6 297 387.8 296.8 389 296.9L474.1 305.9C475 306.1 475.3 307.4 474.5 307.9Z" fill="#2D1F04"/>
<mask id="mask0_228_3539" style="mask-type:alpha" maskUnits="userSpaceOnUse" x="385" y="2" width="250" height="259">
<path d="M385.2 3.4999V240.8C385.2 241.4 385.6 241.9 386.2 241.9L529.5 252.9L555 254.9L578.3 256.7L624 260.2L633.6 260.9H633.7C634.3 260.9 634.8 260.4 634.8 259.8V16.4999C634.8 15.8999 634.3 15.3999 633.8 15.3999L386.3 2.3999C385.7 2.3999 385.2 2.8999 385.2 3.4999Z" fill="white"/>
</mask>
<g mask="url(#mask0_228_3539)">
<path d="M596.5 156C596.8 167.4 603.1 205.7 603.4 230.5C603.5 240.4 596.5 250.2 592.7 263C558.4 263 432.3 263 423 263C421.3 259.3 419.8 254.3 420.6 245.8C420.7 245.2 420.7 244.5 420.8 243.8C422.5 232.5 426.4 220.3 433.8 206C433.9 205.7 434.1 205.4 434.3 205C434.4 204.8 434.5 204.7 434.6 204.5C434.9 203.9 435.2 203.4 435.5 202.8C435.6 202.6 435.8 202.3 435.9 202.1C436 202 436 201.9 436.1 201.8C436.2 201.7 436.2 201.6 436.3 201.4C436.4 201.3 436.4 201.2 436.5 201C436.6 200.9 436.6 200.7 436.7 200.6C436.6 200.2 436.5 199.8 436.4 199.3C436.4 199.2 436.4 199 436.3 198.9C436.2 198.2 436.1 197.6 436.1 196.9C436 196 436 195.1 436.1 194.1C436.6 182.1 443.8 166 444 165.1C444.2 164.2 442.4 162.3 443.4 160.6C443.9 159.7 446 157 446.7 156.9C446.8 157 446.8 157.2 446.7 157.5H446.8C447.6 157.8 448.5 158.1 449.5 158.5C449.3 159.1 449.2 159.6 449.1 160.1C449.2 159.6 449.4 159.1 449.5 158.5C450.2 158.8 451 159 451.8 159.3C452.2 159.4 452.5 159.5 452.9 159.7C453.2 159.8 453.6 159.9 454 160C459.4 161.7 466 163.4 473.6 164.7C473.8 164.7 474 164.8 474.2 164.8C474.5 164.9 474.9 164.9 475.2 165C480.2 165.9 484.2 166.4 488.7 166.7C488.8 166.7 488.9 166.7 489 166.7C491.6 166.9 494.5 167 497.8 167.1C514.1 167.6 525.9 165.4 528.4 164.9C528.8 164.8 529.1 164.7 529.5 164.7C537.8 162.1 544.2 159.4 550.2 156.4C553.6 154.7 557.6 152 561.2 150.1C561.4 150 561.5 149.9 561.7 149.8C567.6 146.6 574 146 578.5 146.6C590.2 148.8 596.5 156 596.5 156Z" fill="#2D1F04"/>
<path d="M411.2 183.9C400.9 199.4 385.7 236.8 384.4 261.3C394.4 261.3 425.7 261.3 425.7 261.3C430.7 232.8 452.8 202.5 446 190.2C439.2 178.1 420.8 175.8 411.2 183.9Z" fill="#2D1F04"/>
<path opacity="0.23" d="M425.6 261.4C425.6 261.4 417.7 261.4 408.5 261.4C413.8 222.3 428 202.8 439 184.1C442.7 186 443.9 186.7 445.9 190.4C452.8 202.6 430.6 232.9 425.6 261.4Z" fill="#2D1F04"/>
<path d="M451 152.6C450.4 155.2 449.6 158.2 449.1 160.1C448.4 160.1 445.9 162.5 445.2 163.3C443.9 164.9 445.4 167 445.1 167.9C444.9 168.7 440.4 188.5 437.2 199.5C430.4 196 414.8 188.2 411.8 184.7C411.6 184.4 411.4 184.2 411.2 184C410.5 183.2 409.8 179 412.9 177.2C413.3 176.2 413.8 175.2 414.3 174.1C423.7 153.7 437.3 148.1 451 152.6Z" fill="#2D1F04"/>
<path opacity="0.23" d="M451 152.6C450.4 155.2 449.6 158.2 449 160.1C448.3 160.1 445.8 162.5 445.1 163.3C443.9 164.9 445.3 167 445 167.9C444.8 168.7 440.3 188.5 437.1 199.5C434.3 198 429.9 195.8 425.5 193.5C427.9 194.2 430.5 194.2 431 192.4C431.7 190.1 431.9 187.7 430.3 186.9C432.5 186.8 435 177.3 436.7 172.6C438.2 168.2 443.1 154.6 449.4 152.2C450.1 152.3 450.5 152.4 451 152.6Z" fill="#2D1F04"/>
<path d="M581.9 156.1C576.1 157.6 570.9 159.4 563.6 161.1C552.2 163.8 541.6 167.4 530.1 168.5C527.6 168.7 515.7 167.8 499.5 167.1C489 166.6 481.6 165.8 472.5 164.4C461.1 162.6 454.9 160.2 446.9 157.5C447.1 157 450.1 150.9 449.9 150.9C450.4 148.9 451.1 145.9 451.6 143.3C452.1 140.9 452.5 138.6 452.3 138.5C451.6 138.5 451 139.1 450.6 139.8C449.4 136.1 452.6 133.8 452.8 131.8C452.8 131.4 451.7 131.7 450.7 133.1C451 130.2 452.2 129.6 452.3 128.5C452.4 126.4 451.5 124 451 122C444.7 99.1997 433.3 55.0997 469.6 32.9997C468.1 29.7997 463.6 30.4997 463.6 30.4997C464.4 26.3997 471.9 23.2997 480.7 26.0997C481.1 25.6997 478.4 21.7997 482.6 17.9997C482.5 21.3997 484.9 25.0997 486 23.5997C489.7 14.9997 496.4 11.1997 504.9 11.1997C501.9 12.8997 499.8 17.4997 500.3 22.0997C500.3 22.0997 504 16.9997 507.2 16.2997C503.5 20.9997 505.5 24.2997 507.1 24.9997C508.3 25.5997 514.4 23.7997 514.8 21.0997C516.3 21.8997 515.3 25.0997 528.2 32.3997C582.6 63.1997 588.6 121.8 581.9 156.1Z" fill="#2D1F04"/>
<path d="M501.8 233.3C501.7 233.1 501.6 232.9 501.4 232.7L501.8 233.3Z" fill="#2D1F04"/>
<path d="M449.4 60.9996C452.9 53.4996 463.9 49.4996 470.6 46.5996C478.5 43.1996 504.6 43.1996 501 35.0996C509.5 37.8996 514.2 46.8996 521.7 48.3996C529.5 49.9996 546.2 58.0996 555.5 78.9996C557.4 83.1996 562.5 117.4 534.1 129.2C512.4 138.2 466.9 133.5 452.1 104.8C445.3 91.3996 443.9 75.1996 449.4 60.9996Z" fill="#2D1F04"/>
<path d="M490 67.2999C484 62.6999 475.7 78.1999 474.2 82.8999C470.4 94.7999 473.3 101.9 480 105.5C486.7 109.1 496 109.7 503.9 106.6C523.7 98.7999 510.7 65.8999 498.3 68.2999" fill="#2D1F04"/>
<path d="M446.5 87.3998C458.4 88.7998 488.7 80.8998 481.2 42.8998C473.1 42.3998 465.1 43.6998 454.5 49.8998C446 61.6998 445.2 75.8998 446.5 87.3998Z" fill="#2D1F04"/>
<path d="M518.4 50.1997C496.2 102.3 553.8 109.5 553.8 109.5C553.8 109.5 562.4 90.0997 553.5 72.4997C548.1 61.6997 534.1 52.1997 518.4 50.1997Z" fill="#2D1F04"/>
<path d="M467.9 142.4L467.5 148" stroke="#2D1F04" stroke-width="3.87" stroke-miterlimit="10" stroke-linecap="round" stroke-linejoin="round"/>
<path d="M462.1 144.9L461.6 150.5" stroke="#2D1F04" stroke-width="3.87" stroke-miterlimit="10" stroke-linecap="round" stroke-linejoin="round"/>
<path opacity="0.23" d="M464.8 29.0996C464.7 29.0996 464.6 29.1996 464.5 29.1996C464.5 29.1996 464.4 29.2996 464.4 29.3996" fill="#2D1F04"/>
<path d="M446.7 156.9C449.1 151.2 452.8 138.9 452.4 138.7C451.7 138.7 451.1 139.3 450.7 140C449.5 136.3 452.7 134 452.9 132C452.9 131.6 451.8 131.9 450.8 133.3C451.1 130.4 452.3 129.8 452.4 128.7C452.5 126.6 451.6 124.2 451.1 122.2C444.8 99.3999 433.4 55.2999 469.7 33.1999C468.2 29.9999 463.7 30.6999 463.7 30.6999C464.5 26.5999 472 23.4999 480.8 26.2999C481.2 25.8999 478.5 21.9999 482.7 18.1999C482.6 21.5999 485 25.2999 486.1 23.7999C489.8 15.1999 496.5 11.3999 505 11.3999C502 13.0999 499.9 17.6999 500.4 22.2999C500.4 22.3999 504.1 17.1999 507.3 16.4999C503.3 20.5999 505.5 24.3999 507 25.1999C508.2 25.7999 514.4 23.9999 514.8 21.3999C516.3 22.1999 515.3 25.4999 528.2 32.6999C582.9 63.4999 588.8 122 582 156.3" stroke="#2D1F04" stroke-width="2.62" stroke-miterlimit="10" stroke-linecap="round" stroke-linejoin="round"/>
<path opacity="0.23" d="M480.1 225.2C479.9 225.1 479.8 225 479.6 224.9L480.1 225.2Z" fill="#2D1F04"/>
<path opacity="0.23" d="M582 156.1C576.9 157.5 568.5 159.9 563.6 161.1C569.8 135.3 571 95.0998 555.8 68.4998C545.1 49.7998 529.3 40.1998 515 35.9998C513.8 35.5998 511.9 33.1998 510 33.0998C510.1 33.9998 509.3 34.5998 508.4 34.4998C507.1 34.2998 504.5 33.0998 505.4 30.7998C502.7 30.5998 501.4 33.5998 500 33.4998C498.5 33.3998 496.9 29.7998 493.5 29.3998C494.8 32.2998 491.9 33.8998 490 34.1998C487.6 34.5998 486.5 33.2998 487.3 31.9998C485 31.7998 483.8 33.7998 478.7 35.1998C470.8 37.1998 462.9 40.2998 455.9 44.8998C459.4 40.4998 464 36.4998 469.6 33.0998C468.1 29.8998 463.6 30.5998 463.6 30.5998C464.4 26.4998 471.9 23.3998 480.7 26.1998C481.1 25.7998 478.4 21.8998 482.6 18.0998C482.5 21.4998 484.9 25.1998 486 23.6998C489.7 15.0998 496.4 11.2998 504.9 11.2998C501.9 12.9998 499.8 17.5998 500.3 22.1998C500.3 22.1998 504 17.0998 507.2 16.3998C503.5 20.8998 505.5 24.3998 507.1 25.0998C508.3 25.6998 514.4 23.8998 514.8 21.1998C516.3 21.9998 515.3 25.1998 528.2 32.4998C582.6 63.1998 588.7 121.8 582 156.1Z" fill="#2D1F04"/>
<path d="M487.5 48.5996C463.6 41.0996 443.8 54.6996 443.8 54.6996" stroke="#2D1F04" stroke-width="6" stroke-miterlimit="10" stroke-linecap="round" stroke-linejoin="round"/>
<path d="M510.7 53.4997C545.2 53.1997 558.3 71.6997 558.3 71.6997" stroke="#2D1F04" stroke-width="6" stroke-miterlimit="10" stroke-linecap="round" stroke-linejoin="round"/>
<path d="M474.2 69.3996C473 73.8996 467.9 71.0996 462.5 70.7996C456.3 70.4996 450.2 72.5996 451.1 65.5996C451.8 60.3996 457.3 58.7996 465.2 59.1996C473.1 59.6996 475.6 63.6996 474.2 69.3996Z" fill="#2D1F04"/>
<path d="M474.4 68.2995C472.4 63.2995 467.8 62.1995 461.7 62.6995C455.3 63.2995 452.2 65.5995 451.1 68.5995C450.9 67.6995 450.9 66.5995 451 65.4995C451.7 60.2995 457.2 58.6995 465.1 59.0995C472.6 59.5995 475.3 63.1995 474.4 68.2995Z" fill="#2D1F04"/>
<path d="M454.8 66.2995C455 63.3995 457.5 61.2995 460.4 61.4995C463.3 61.6995 465.4 64.1995 465.2 67.0995C465 69.9995 462.5 72.0995 459.6 71.8995C456.7 71.6995 454.6 69.1995 454.8 66.2995Z" fill="#2D1F04"/>
<path d="M474.2 69.3996C473.1 73.7996 467.9 71.2996 462.5 70.7996C456.3 70.1996 450.2 72.6996 451.1 65.5996C451.8 60.3996 457.3 58.7996 465.2 59.1996C473.1 59.6996 475.6 63.6996 474.2 69.3996Z" stroke="#2D1F04" stroke-width="2.62" stroke-miterlimit="10" stroke-linecap="round" stroke-linejoin="round"/>
<path d="M456.3 66.2996C457.46 66.2996 458.4 65.3594 458.4 64.1996C458.4 63.0398 457.46 62.0996 456.3 62.0996C455.14 62.0996 454.2 63.0398 454.2 64.1996C454.2 65.3594 455.14 66.2996 456.3 66.2996Z" fill="#2D1F04"/>
<path d="M456.9 68.9997C457.397 68.9997 457.8 68.5968 457.8 68.0997C457.8 67.6027 457.397 67.1997 456.9 67.1997C456.403 67.1997 456 67.6027 456 68.0997C456 68.5968 456.403 68.9997 456.9 68.9997Z" fill="#2D1F04"/>
<path d="M519.7 76.8998C520.3 81.6998 526.3 79.4998 532.1 79.8998C538.8 80.3998 545.1 83.2998 545 75.9998C545 70.5998 539.2 68.0998 530.7 67.5998C522.2 66.9998 518.9 70.8998 519.7 76.8998Z" fill="#2D1F04"/>
<path d="M519.6 75.6998C522.4 70.7998 527.5 70.1998 534 71.5998C540.8 72.9998 543.8 75.7998 544.6 79.0998C544.9 78.1998 545.1 77.0998 545.1 75.8998C545.1 70.4998 539.3 67.9998 530.8 67.4998C522.7 66.9998 519.4 70.3998 519.6 75.6998Z" fill="#2D1F04"/>
<path d="M534.1 75.7999C534.2 72.7999 531.9 70.2999 528.9 70.1999C525.9 70.0999 523.4 72.3999 523.3 75.3999C523.2 78.3999 525.5 80.8999 528.5 80.9999C531.4 80.9999 533.9 78.6999 534.1 75.7999Z" fill="#2D1F04"/>
<path d="M519.7 76.8998C520.3 81.5998 526.2 79.6998 532.1 79.8998C538.9 80.0998 545.1 83.3998 545 75.9998C545 70.5998 539.2 68.0998 530.7 67.5998C522.2 66.9998 518.9 70.8998 519.7 76.8998Z" stroke="#2D1F04" stroke-width="2.62" stroke-miterlimit="10" stroke-linecap="round" stroke-linejoin="round"/>
<path d="M525.2 74.3C526.249 74.3 527.1 73.4493 527.1 72.4C527.1 71.3507 526.249 70.5 525.2 70.5C524.151 70.5 523.3 71.3507 523.3 72.4C523.3 73.4493 524.151 74.3 525.2 74.3Z" fill="#2D1F04"/>
<path d="M525.7 77.3C526.197 77.3 526.6 76.8971 526.6 76.4C526.6 75.9029 526.197 75.5 525.7 75.5C525.203 75.5 524.8 75.9029 524.8 76.4C524.8 76.8971 525.203 77.3 525.7 77.3Z" fill="#2D1F04"/>
<path d="M596.5 156C593.5 152.8 588 148.7 578.4 146.5C573.9 145.9 567.6 146.5 561.6 149.7C561.4 149.8 561.3 149.9 561.1 150C557.5 152 553.5 154.6 550.1 156.3C544.1 159.3 537.7 162 529.4 164.6C529 164.7 528.7 164.8 528.3 164.8C525.8 165.3 514 167.5 497.7 167C494.4 166.9 491.6 166.8 488.9 166.6C488.8 166.6 488.7 166.6 488.6 166.6C484.1 166.3 480.2 165.8 475.1 164.9C474.8 164.8 474.4 164.8 474.1 164.7C473.9 164.7 473.7 164.6 473.5 164.6C465.8 163.3 459.3 161.6 453.9 159.9C453.5 159.8 453.2 159.7 452.8 159.6C452.4 159.5 452 159.4 451.7 159.2C450.9 158.9 450.2 158.7 449.4 158.4C449.2 159 449.1 159.5 449 160C449.1 159.5 449.3 159 449.4 158.4C448.5 158.1 447.6 157.8 446.7 157.4H446.6C446.7 157 446.7 156.8 446.6 156.8C445.9 156.9 443.8 159.6 443.3 160.5C442.3 162.3 444.1 164.1 443.9 165C443.8 165.9 436.5 182 436 194C436 195 436 195.9 436 196.8C436 197.5 436.1 198.2 436.2 198.8C436.2 198.9 436.2 199.1 436.3 199.2C436.4 199.6 436.5 200.1 436.6 200.5C436.5 200.6 436.5 200.8 436.4 200.9C436.3 201 436.3 201.1 436.2 201.3C436.1 201.4 436.1 201.5 436 201.7C435.9 201.8 435.9 201.9 435.8 202C435.7 202.2 435.5 202.5 435.4 202.7C435.1 203.3 434.8 203.8 434.5 204.4C434.4 204.6 434.3 204.7 434.2 204.9C434 205.2 433.9 205.5 433.7 205.9C426.3 220.2 422.5 232.4 420.7 243.7C420.6 244.4 420.5 245 420.5 245.7C419.6 254.2 421.2 259.2 422.9 262.9C432.1 262.9 558.2 262.9 592.6 262.9C596.4 250.1 596.4 237.5 603.3 230.4C605.4 228.3 610.7 230.2 620.4 227.9C624.3 227 614.2 189.3 605.4 170.5C602.5 164.1 599.1 158.7 596.5 156Z" fill="#2D1F04"/>
<path d="M455.7 193.4C462.5 194.1 468.8 194.6 475 195.3C480.1 195.9 482.1 199.4 481.2 202.6C480 207 475.9 209.6 470.1 210.5C469.8 210.5 469.5 210.6 468.9 210.6C473.1 213.9 471.1 219.3 475.4 224.7C470.7 224.1 466.6 223.5 462.3 223C460.3 219.7 459.6 216.4 459.5 213.3C459.5 211.6 459 210.3 456 210.4C453.4 213.9 451 217.6 450.8 221.6C447.2 221.2 444 220.9 440.9 220.6C444.1 210.2 453.7 204.4 455.7 193.4ZM463.7 199.8C462.8 201.6 461.7 203.3 460.2 205.3C462.3 205.4 464.4 205.7 466.6 205.7C468.5 205.7 470.1 204.8 470.9 203.5C471.7 202.1 471.2 200.9 469.5 200.5C467.6 200.1 465.7 200 463.7 199.8Z" fill="#2D1F04"/>
<path d="M509.5 206.9C506.5 206.8 503.7 206.7 500.7 206.5C501 203.9 499.6 202.3 497.1 202C495.5 201.8 494.1 202.2 493.1 203.9C492.8 205.4 493.6 206 494.7 206.4C496.7 207.2 498.8 208 500.8 208.8C501.9 209.3 503 209.9 503.9 210.5C510.1 214.5 507.2 222.7 502.2 226C500.6 227.1 498.4 227.7 496.1 227.8C492.4 228 488.2 227.3 483.9 225.9C478.3 224 474.9 219.8 477 215.1C480.2 215.4 483.5 215.6 486.8 215.9C486.8 216.5 486.8 217 486.8 217.6C487.1 220.5 490.6 222.3 493.9 221.6C495.4 221.3 496.5 220.5 496.8 219.1C497.1 217.9 496.6 216.8 495.5 216.2C494.6 215.7 493.5 215.3 492.5 214.8C490.4 213.9 488.2 213.1 486.4 212C482.8 209.9 482.3 207 483.8 203.7C485.4 200.1 487.9 197.2 491.9 196.3C495.6 195.4 499.5 195.6 503.6 197.3C508 199.1 510.3 202.2 509.5 206.9Z" fill="#2D1F04"/>
<path opacity="0.23" d="M429.1 216.6C432.5 213.1 436.4 211.1 438.4 210C442.6 207.8 447.6 207.9 452 208.9C463.9 211.6 485.2 220.1 497.3 222.7C519.5 227.4 539.6 220.7 537.6 217.1C535.9 214.1 501.7 219.9 489.4 214.6C478.5 209.8 461 207.8 449.6 205C446.9 204.3 438 201.3 436 196.9C435.9 198.7 436.3 199.3 436.8 200.4C435.6 202.6 433.2 206.5 429.1 216.6Z" fill="#2D1F04"/>
<path d="M446.8 157.6C446.9 157 446.9 156.8 446.7 156.8C446 156.9 443.9 159.6 443.4 160.5C442.4 162.3 444.2 164.1 444 165C443.8 166.1 433.2 189.6 436.9 200.9" stroke="#2D1F04" stroke-width="2.62" stroke-miterlimit="10" stroke-linecap="round" stroke-linejoin="round"/>
<path d="M444.4 164.6C449.6 168.6 459.9 171.4 470.9 173.5C485.9 176.4 507.4 178.5 531.3 174.5" stroke="#2D1F04" stroke-width="2.62" stroke-miterlimit="10" stroke-linecap="round" stroke-linejoin="round"/>
<path d="M452.6 160C451.9 161.5 451.3 162.7 451.2 164.5" stroke="#2D1F04" stroke-width="2.62" stroke-miterlimit="10" stroke-linecap="round" stroke-linejoin="round"/>
<path d="M462.3 162.7C461.5 164.1 461.2 166 461 167.6" stroke="#2D1F04" stroke-width="2.62" stroke-miterlimit="10" stroke-linecap="round" stroke-linejoin="round"/>
<path d="M509.9 168V168.4V168.8L509.8 169.7V170.1" stroke="#2D1F04" stroke-width="2.62" stroke-miterlimit="10" stroke-linecap="round" stroke-linejoin="round"/>
<path d="M513.2 168.2V168.9L513.1 169.5V170" stroke="#2D1F04" stroke-width="2.62" stroke-miterlimit="10" stroke-linecap="round" stroke-linejoin="round"/>
<path d="M416.2 188C414.1 186.7 412.6 185.5 411.8 184.6C411.6 184.3 411.4 184.1 411.2 183.9C410.5 183.1 409.8 179.1 412.9 177.1C413.3 176.1 413.8 175.1 414.3 174C422.8 155.7 434.7 149.4 447.1 151.6" stroke="#2D1F04" stroke-width="2.62" stroke-miterlimit="10" stroke-linecap="round" stroke-linejoin="round"/>
<path d="M412.9 177.1C417.1 179.9 424.7 184.5 432.8 187.9" stroke="#2D1F04" stroke-width="2.62" stroke-miterlimit="10" stroke-linecap="round" stroke-linejoin="round"/>
<path d="M419 180.9C418 181.4 417.1 183.3 417 184.3" stroke="#2D1F04" stroke-width="2.62" stroke-miterlimit="10" stroke-linecap="round" stroke-linejoin="round"/>
<path d="M424.7 184C424 184.5 423.5 186 423.4 186.6" stroke="#2D1F04" stroke-width="2.62" stroke-miterlimit="10" stroke-linecap="round" stroke-linejoin="round"/>
<path d="M423 263C421.2 259.1 419.4 253.3 420.9 243.8C422.9 231 427.5 217.1 436.9 200.4" stroke="#2D1F04" stroke-width="2.7806" stroke-miterlimit="10" stroke-linecap="round" stroke-linejoin="round"/>
<path d="M446.8 157.5C455.8 160.9 470.9 165.2 490.6 166.8C506.8 168.1 522.1 166.899 528.4 164.899C537.2 162.199 543.8 159.4 550 156.3C553.6 154.5 557.7 151.699 561.5 149.699C567.4 146.499 581.4 139.8 596.4 156C602.9 162.9 607.2 174.1 611.1 184.8" stroke="#2D1F04" stroke-width="2.62" stroke-miterlimit="10" stroke-linecap="round" stroke-linejoin="round"/>
<path opacity="0.23" d="M620.5 228C610.8 230.3 605.4 228.3 603.3 230.5C596.4 237.6 596.4 250.2 592.6 263H572.6C580.3 239.7 588 205.4 586.7 191.2C591.1 200.4 601.4 203 608.8 203C609.6 205.8 610.5 208.5 611.4 211.1C616.1 223.9 624.4 227.1 620.5 228Z" fill="#2D1F04"/>
<path d="M583.6 246C571.4 234.2 569 219.1 566.4 208.2C559.8 181.1 548.5 160.3 536.6 143.7C533.5 139.3 533.9 135.7 535 132.7C537.2 127.1 541.4 123.7 546.5 116.2C553.4 106.2 554.5 97.2997 557.4 97.5997C562.5 98.2997 567.4 108.4 556.5 134.9C569 148.8 581.8 157.6 592.9 167.3C613.1 185 625.3 198.1 630.7 213C644 249.6 617.4 278.6 583.6 246Z" fill="#2D1F04"/>
<path d="M556.7 134.4C551.7 139.6 545.7 140.9 534.7 139.2C533.9 136.6 534.3 134.2 535.1 132.2C537.3 126.6 541.5 123.2 546.6 115.7C553.5 105.7 554.6 96.7997 557.5 97.0997C562.7 97.6997 567.6 107.9 556.7 134.4Z" fill="#2D1F04"/>
<path opacity="0.23" d="M634.2 234.2C632.8 259 610.5 271.9 583.6 246C571.4 234.2 569 219.1 566.4 208.2C559.9 181.1 548.5 160.3 536.6 143.7C533.5 139.3 533.9 135.7 535 132.7C537.2 127.1 541.4 123.7 546.5 116.2C553.4 106.2 554.5 97.2997 557.4 97.5997C559.6 97.8997 561.7 99.8997 562.6 104.2C560 106 556.8 111 553 118.5C547.7 128.7 537 137 542.1 143.1C547.2 149.2 560.3 171.6 569 190.4C577.7 209.3 580.5 238.2 605.4 250.3C618.1 256.4 630.8 247.8 634.2 234.2Z" fill="#2D1F04"/>
<path d="M485.3 66.3998C485.7 63.7998 490 62.1998 494.8 62.7998C499.6 63.3998 503.2 65.9998 502.8 68.5998C502.4 71.1998 498.1 72.7998 493.3 72.1998C488.5 71.5998 484.9 68.9998 485.3 66.3998Z" fill="#2D1F04"/>
<path d="M491.4 71.4995C489.9 75.6995 489.2 79.0995 488.8 82.1995C488.1 87.6995 496.6 90.0995 502.7 84.5995" stroke="#2D1F04" stroke-width="2.7806" stroke-miterlimit="10" stroke-linecap="round" stroke-linejoin="round"/>
<path d="M488.9 82.2998C487.6 85.9998 481.3 87.1998 478.4 83.1998" stroke="#2D1F04" stroke-width="2.7806" stroke-miterlimit="10" stroke-linecap="round" stroke-linejoin="round"/>
<path d="M583.6 246C571.4 234.2 569 219.1 566.4 208.2C559.8 181.1 548.5 160.3 536.6 143.7C533.5 139.3 533.9 135.7 535 132.7C537.2 127.1 541.4 123.7 546.5 116.2C553.4 106.2 554.5 97.2997 557.4 97.5997C562.5 98.2997 567.4 108.4 556.5 134.9C569 148.8 581.8 157.6 592.9 167.3C613.1 185 625.3 198.1 630.7 213C644 249.6 617.4 278.6 583.6 246Z" stroke="#2D1F04" stroke-width="2.62" stroke-miterlimit="10" stroke-linecap="round" stroke-linejoin="round"/>
<path d="M534.6 139.7C545.6 141.5 551.6 140.2 556.6 134.9" stroke="#2D1F04" stroke-width="2.62" stroke-miterlimit="10" stroke-linecap="round" stroke-linejoin="round"/>
<path d="M557.6 97.5996C560.2 115.8 547.4 125.9 545.7 140.3" stroke="#2D1F04" stroke-width="2.62" stroke-miterlimit="10" stroke-linecap="round" stroke-linejoin="round"/>
<path d="M411.2 183.9C400.9 199.4 385.7 236.8 384.4 261.3" stroke="#2D1F04" stroke-width="2.62" stroke-miterlimit="10" stroke-linecap="round" stroke-linejoin="round"/>
<path d="M616 210.6L615.4 218.1" stroke="#2D1F04" stroke-width="4.1072" stroke-miterlimit="10" stroke-linecap="round" stroke-linejoin="round"/>
<path d="M609.4 212.5L608.8 220" stroke="#2D1F04" stroke-width="4.1072" stroke-miterlimit="10" stroke-linecap="round" stroke-linejoin="round"/>
<path opacity="0.23" d="M525.3 165.7C529.6 165 541.6 164.8 544.8 166.8C548.7 169.1 555.2 176.8 560.6 189C556 176.7 547.7 158.8 545.6 158.5C543.6 158.1 538.1 163 525.3 165.7Z" fill="#2D1F04"/>
<path d="M440.1 226.3C440.9 226.4 441.6 226.5 442.4 226.6C442.2 227 442 227.5 441.8 227.9C443 227 444.2 226.6 445.4 226.8C446 226.9 446.5 227.1 446.8 227.4C447.1 227.7 447.3 228.2 447.4 228.7C448 228.2 448.6 227.9 449.2 227.7C449.8 227.5 450.3 227.5 450.9 227.5C451.6 227.6 452.1 227.8 452.5 228.2C452.9 228.6 453 229 453.1 229.6C453.1 230 453 230.7 452.6 231.6C451.9 233.7 451.4 235.8 450.9 237.8C450.1 237.7 449.2 237.6 448.4 237.5C448.8 235.6 449.3 233.8 449.9 231.9C450.2 230.9 450.4 230.3 450.3 230C450.2 229.6 449.9 229.4 449.4 229.3C449.1 229.3 448.7 229.3 448.3 229.5C447.9 229.7 447.6 230 447.3 230.4C447 230.8 446.7 231.5 446.4 232.4C445.9 234 445.5 235.6 445.2 237.1C444.4 237 443.5 236.9 442.7 236.8C443.1 235 443.6 233.2 444.2 231.4C444.5 230.4 444.7 229.8 444.7 229.5C444.7 229.2 444.7 229 444.5 228.8C444.4 228.6 444.1 228.5 443.8 228.5C443.4 228.4 443 228.5 442.6 228.7C442.2 228.9 441.9 229.2 441.6 229.5C441.3 229.9 441 230.6 440.7 231.5C440.2 233.1 439.7 234.7 439.4 236.3C438.6 236.2 437.7 236.1 436.9 236C437.6 232.9 438.7 229.6 440.1 226.3ZM459.7 235.9C460.5 236.1 461.3 236.4 462.1 236.6C461.6 237.5 460.9 238.1 460.1 238.5C459.3 238.9 458.4 239 457.3 238.9C455.6 238.7 454.5 238 453.9 236.8C453.5 235.8 453.4 234.7 453.8 233.3C454.3 231.7 455.1 230.5 456.3 229.7C457.5 228.9 458.7 228.6 459.9 228.8C461.3 229 462.2 229.6 462.7 230.7C463.2 231.7 463.1 233.2 462.5 235.2C460.4 234.9 458.3 234.7 456.2 234.4C456 235.2 456.1 235.8 456.3 236.3C456.6 236.8 457 237 457.6 237.1C458 237.1 458.4 237.1 458.7 236.9C459.1 236.7 459.4 236.4 459.7 235.9ZM460.5 233.3C460.7 232.6 460.7 232 460.5 231.5C460.3 231.1 459.9 230.8 459.4 230.8C458.9 230.7 458.3 230.9 457.8 231.2C457.3 231.6 456.9 232.1 456.7 232.8C458 233 459.3 233.2 460.5 233.3ZM472.5 240.5C471.6 240.4 470.8 240.3 469.9 240.2C470.2 238.6 470.5 237 470.9 235.4C471.2 234.4 471.3 233.7 471.3 233.4C471.3 233.1 471.2 232.8 471 232.6C470.8 232.4 470.6 232.3 470.2 232.2C469.8 232.1 469.3 232.2 468.9 232.4C468.5 232.6 468.1 232.9 467.9 233.3C467.7 233.7 467.4 234.4 467.1 235.5C466.7 236.9 466.4 238.4 466.2 239.8C465.4 239.7 464.5 239.6 463.7 239.5C464.3 236.3 465.1 233.1 466.3 229.9C467.1 230 467.8 230.1 468.6 230.2C468.4 230.7 468.3 231.1 468.1 231.6C469.3 230.6 470.5 230.2 471.8 230.4C472.3 230.5 472.8 230.6 473.2 230.9C473.6 231.2 473.8 231.5 474 231.8C474.1 232.1 474.2 232.5 474.1 232.9C474.1 233.3 473.9 233.9 473.7 234.6C473.2 236.6 472.8 238.6 472.5 240.5ZM481.8 232C481.6 232.7 481.4 233.3 481.2 234C480.6 233.9 480.1 233.9 479.5 233.8C479.1 235.1 478.8 236.3 478.5 237.6C478.3 238.4 478.3 238.8 478.3 238.9C478.3 239 478.4 239.1 478.5 239.2C478.6 239.3 478.7 239.4 478.9 239.4C479.1 239.4 479.5 239.4 480 239.3C480 239.9 479.9 240.6 479.9 241.2C479.3 241.4 478.6 241.4 477.8 241.3C477.3 241.2 476.9 241.1 476.6 240.9C476.3 240.7 476 240.5 475.9 240.2C475.8 239.9 475.7 239.6 475.7 239.2C475.7 238.9 475.8 238.3 476 237.4C476.3 236 476.7 234.7 477.1 233.3C476.7 233.3 476.3 233.2 475.9 233.2C476.1 232.5 476.3 231.9 476.6 231.2C477 231.2 477.4 231.3 477.7 231.3C477.9 230.7 478.1 230.1 478.4 229.4C479.4 229 480.4 228.7 481.5 228.3C481 229.4 480.6 230.5 480.3 231.6C480.6 231.8 481.2 231.9 481.8 232ZM481.6 236.6C481.8 235.8 482.2 235 482.9 234.3C483.5 233.6 484.3 233.1 485.2 232.8C486.1 232.5 487 232.4 487.9 232.5C489.3 232.7 490.3 233.3 491 234.3C491.7 235.3 491.8 236.5 491.5 237.9C491.2 239.3 490.5 240.4 489.5 241.2C488.4 242 487.2 242.3 485.7 242.2C484.8 242.1 484 241.8 483.2 241.4C482.5 240.9 481.9 240.3 481.6 239.5C481.4 238.6 481.4 237.7 481.6 236.6ZM484.2 237.1C484 238 484.1 238.8 484.4 239.3C484.8 239.8 485.3 240.1 485.9 240.2C486.6 240.3 487.2 240.1 487.7 239.7C488.2 239.3 488.6 238.6 488.8 237.7C489 236.8 489 236.1 488.6 235.5C488.3 235 487.8 234.7 487.1 234.6C486.4 234.5 485.8 234.7 485.2 235.1C484.8 235.5 484.4 236.1 484.2 237.1ZM495.2 243C494.3 242.9 493.5 242.8 492.6 242.7C492.9 239.7 493.6 236.6 494.6 233.6C495.4 233.7 496.2 233.8 496.9 233.9C496.8 234.3 496.6 234.8 496.5 235.2C497.1 234.6 497.6 234.3 497.9 234.1C498.3 233.9 498.7 233.9 499.1 233.9C499.7 234 500.2 234.2 500.6 234.5C500.1 235.2 499.7 235.8 499.3 236.5C498.9 236.2 498.6 236 498.2 236C497.8 236 497.5 236 497.2 236.2C496.9 236.4 496.6 236.7 496.4 237.1C496.1 237.6 495.8 238.6 495.6 240.1C495.4 241.1 495.3 242 495.2 243Z" fill="#2D1F04"/>
</g>
<path d="M358.6 53.5999C358.6 71.0999 337.5 85.2999 311.4 85.2999C304.4 85.2999 297.7 84.2999 291.7 82.3999C287.7 81.1999 284.8 93.0999 264.1 90.8999C276 80.9999 272.7 72.2999 270 68.8999C266.3 64.3999 264.1 59.0999 264.1 53.5999C264.1 36.0999 285.2 21.8999 311.3 21.8999C337.4 21.7999 358.6 35.9999 358.6 53.5999Z" fill="#2D1F04"/>
<path d="M358.6 53.5999C358.6 71.0999 337.5 85.2999 311.4 85.2999C304.4 85.2999 297.7 84.2999 291.7 82.3999C287.7 81.1999 284.8 93.0999 264.1 90.8999C276 80.9999 272.7 72.2999 270 68.8999C266.3 64.3999 264.1 59.0999 264.1 53.5999C264.1 36.0999 285.2 21.8999 311.3 21.8999C337.4 21.7999 358.6 35.9999 358.6 53.5999Z" stroke="#2D1F04" stroke-width="2.7806" stroke-miterlimit="10" stroke-linecap="round" stroke-linejoin="round"/>
<path d="M311.3 57.9C313.896 57.9 316 55.7957 316 53.2C316 50.6043 313.896 48.5 311.3 48.5C308.704 48.5 306.6 50.6043 306.6 53.2C306.6 55.7957 308.704 57.9 311.3 57.9Z" fill="#2D1F04"/>
<path d="M291.6 57.9C294.196 57.9 296.3 55.7957 296.3 53.2C296.3 50.6043 294.196 48.5 291.6 48.5C289.004 48.5 286.9 50.6043 286.9 53.2C286.9 55.7957 289.004 57.9 291.6 57.9Z" fill="#2D1F04"/>
<path d="M331.1 57.9C333.696 57.9 335.8 55.7957 335.8 53.2C335.8 50.6043 333.696 48.5 331.1 48.5C328.504 48.5 326.4 50.6043 326.4 53.2C326.4 55.7957 328.504 57.9 331.1 57.9Z" fill="#2D1F04"/>
<path opacity="0.15" d="M358.6 53.6001C358.6 71.1001 337.5 85.3001 311.4 85.3001C304.4 85.3001 297.7 84.3001 291.7 82.4001C287.7 81.2001 284.8 93.1001 264.1 90.9001C272.7 87.7001 277.5 84.6001 281.2 80.4001C285.1 75.9001 287.9 73.6001 298.9 76.5001C310 79.4001 328.4 77.9001 340.2 69.4001C350.7 61.8001 354.8 46.5001 346.7 32.6001C354.1 38.2001 358.6 45.5001 358.6 53.6001Z" fill="#2D1F04"/>
<path d="M490.636 248.636V247.545C490.758 235.97 491.97 226.758 494.273 219.909C496.576 213.061 499.848 207.515 504.091 203.273C508.333 199.03 513.424 195.121 519.364 191.545C522.939 189.364 526.152 186.788 529 183.818C531.848 180.788 534.091 177.303 535.727 173.364C537.424 169.424 538.273 165.061 538.273 160.273C538.273 154.333 536.879 149.182 534.091 144.818C531.303 140.455 527.576 137.091 522.909 134.727C518.242 132.364 513.061 131.182 507.364 131.182C502.394 131.182 497.606 132.212 493 134.273C488.394 136.333 484.545 139.576 481.455 144C478.364 148.424 476.576 154.212 476.091 161.364H453.182C453.667 151.061 456.333 142.242 461.182 134.909C466.091 127.576 472.545 121.97 480.545 118.091C488.606 114.212 497.545 112.273 507.364 112.273C518.03 112.273 527.303 114.394 535.182 118.636C543.121 122.879 549.242 128.697 553.545 136.091C557.909 143.485 560.091 151.909 560.091 161.364C560.091 168.03 559.061 174.061 557 179.455C555 184.848 552.091 189.667 548.273 193.909C544.515 198.152 539.97 201.909 534.636 205.182C529.303 208.515 525.03 212.03 521.818 215.727C518.606 219.364 516.273 223.697 514.818 228.727C513.364 233.758 512.576 240.03 512.455 247.545V248.636H490.636ZM502.273 302.455C497.788 302.455 493.939 300.848 490.727 297.636C487.515 294.424 485.909 290.576 485.909 286.091C485.909 281.606 487.515 277.758 490.727 274.545C493.939 271.333 497.788 269.727 502.273 269.727C506.758 269.727 510.606 271.333 513.818 274.545C517.03 277.758 518.636 281.606 518.636 286.091C518.636 289.061 517.879 291.788 516.364 294.273C514.909 296.758 512.939 298.758 510.455 300.273C508.03 301.727 505.303 302.455 502.273 302.455Z" fill="white"/>
</g>
<defs>
<clipPath id="clip0_228_3539">
<rect width="662.2" height="362.6" fill="white"/>
</clipPath>
</defs>
</svg>
