<svg width="470" height="351" viewBox="0 0 470 351" fill="none" xmlns="http://www.w3.org/2000/svg">
<g clip-path="url(#clip0_228_4983)">
<path d="M437.8 178.5C439.9 176.5 435.3 172.3 433.7 170.3C418.1 149.6 406.5 139.2 394.9 135.7C390 134.2 385.2 134 380.1 134.7C378.1 135 376.1 135.4 374 136C366.4 138 360.9 142.3 357 147.4C330.8 158.9 287.4 166 253 156.1C253 155.9 253 155.7 253 155.5C252.8 154.1 249.9 158.4 249.3 159.7C248.3 161.7 250.5 163.6 250.4 164.7C250.3 166 248.1 170.9 246.5 176C239 200.2 240.6 220.1 244 222C244.3 228.9 244.8 236.6 245.8 244.6C248.3 263.6 253.9 284.2 268.1 299.3C268.6 299.8 269 300.3 269.5 300.7C267.5 308.3 272.8 324.5 278.5 330C265 329.6 248.9 342 247.8 343C243.1 347.3 244.6 347.6 247.8 347.6C251 347.6 277.1 346.3 290.8 346.1C296.4 346 303.2 345.7 308.8 345.5C312.2 345.4 328.1 345.3 325.6 339.6C322.7 332.8 319.3 323.5 318.9 318.2C327.6 318.7 336.3 318.1 344.1 316.3C346.4 322.9 351.3 328.5 357.8 330.8C338.8 334.1 331.5 340.8 327 346.4C326.4 347.6 341.2 348 357.5 348.7C376.4 349.4 399.4 350.4 407.2 348.6C415 346.8 408.4 335.3 406.9 330.7C401.9 315.3 398.6 299.3 405.8 283.9C408.4 281.4 410.2 278.7 411 275.9C420.5 275.3 431.1 273.4 440.7 269.4C460.6 261 467.3 249 468.2 239.9C469 231.8 455.1 199.4 437.8 178.5ZM413.8 249.5C414.6 246.1 414.9 242.1 414.6 238.7C417.2 240.2 419.1 241.5 418.9 242.6C418.7 244.3 417 246.8 413.8 249.5Z" fill="#2D1F04"/>
<path d="M207.4 111V230.9C207.4 242.8 197.7 252.5 185.8 252.5H23.2999C11.4 252.5 1.69995 242.8 1.69995 230.9V111H207.4Z" fill="#2D1F04"/>
<path d="M207.4 28.4003V111H1.69995V28.4003C1.69995 16.5003 11.4 6.80029 23.2999 6.80029H185.8C197.8 6.80029 207.4 16.4003 207.4 28.4003Z" fill="#2D1F04"/>
<path d="M116.6 30.7003C119.9 31.5003 121.8 33.6003 122.1 37.1003C119.9 37.2003 117.8 37.4003 115.5 37.5003C115.1 35.4003 113.8 34.4003 111.7 34.5003C111.2 34.5003 110.7 34.6003 110.4 34.9003C110 35.3003 109.5 35.8003 109.5 36.3003C109.5 36.8003 110 37.4003 110.5 37.6003C111.5 38.0003 112.6 38.2003 113.7 38.5003C115.3 39.0003 117 39.4003 118.6 40.0003C121.2 41.0003 122.9 42.9003 123 45.8003C123.1 48.7003 122 51.1003 119.4 52.5003C118 53.3003 116.4 53.7003 114.8 53.9003C113 54.1003 111.1 54.0003 109.2 53.7003C104.8 53.0003 102.7 50.7003 102.1 46.1003C104.3 45.9003 106.5 45.8003 108.7 45.6003C108.8 45.9003 108.9 46.1003 109 46.4003C109.6 48.9003 112 50.2003 114.4 49.3003C115.3 48.9003 116.1 48.3003 116.1 47.2003C116.2 46.2003 115.6 45.4003 114.6 45.1003C113.3 44.6003 111.9 44.3003 110.6 43.9003C109 43.4003 107.4 42.9003 106 42.1003C101.8 39.7003 101.8 33.9003 106.1 31.6003C107.2 31.0003 108.6 30.5003 109.9 30.4003C113.4 30.1003 114.9 30.3003 116.6 30.7003Z" fill="#2D1F04"/>
<path d="M30.4999 73.6002C32.6999 73.5002 34.8999 73.4002 37.2999 73.3002C37.3999 73.6002 37.3999 73.9002 37.4999 74.2002C38.1999 76.6002 40.3999 77.8002 42.7999 77.0002C43.7999 76.7002 44.4999 76.1002 44.5999 75.0002C44.6999 73.9002 44.0999 73.1002 43.0999 72.8002C41.6999 72.3002 40.2999 72.0002 38.8999 71.5002C37.2999 70.9002 35.5999 70.4002 34.1999 69.6002C30.3999 67.3002 30.3999 62.0002 34.1999 59.6002C35.2999 58.9002 36.6999 58.3002 38.0999 58.2002C40.4999 58.0002 42.9999 58.0002 45.2999 58.4002C48.6999 59.0002 50.2999 61.1002 50.6999 64.7002C48.4999 64.8002 46.3999 65.0002 44.1999 65.1002C42.9999 62.5002 41.7999 61.7002 39.5999 62.2002C38.6999 62.4002 38.0999 62.9002 37.9999 63.8002C37.8999 64.7002 38.5999 65.2002 39.2999 65.4002C41.0999 65.9002 42.7999 66.3002 44.5999 66.8002C45.4999 67.1002 46.3999 67.4002 47.2999 67.8002C49.6999 68.8002 51.2999 70.6002 51.4999 73.3002C51.6999 76.2002 50.5999 78.5002 48.1999 80.1002C46.2999 81.4002 44.0999 81.8002 41.7999 81.8002C40.0999 81.8002 38.2999 81.6002 36.5999 81.3002C33.2999 80.6002 31.4999 78.3002 30.6999 75.1002C30.5999 74.8002 30.4999 74.5002 30.3999 74.2002C30.4999 73.9002 30.4999 73.8002 30.4999 73.6002Z" fill="#2D1F04"/>
<path d="M155.5 64.1001C155.5 62.2001 155.5 60.3001 155.5 58.3001C157.9 58.3001 160.2 58.3001 162.6 58.3001C162.6 64.0001 162.6 69.7001 162.6 75.6001C166.4 75.6001 170.1 75.6001 173.8 75.6001C173.8 77.5001 173.8 79.3001 173.8 81.2001C167.8 81.2001 161.7 81.2001 155.5 81.2001C155.5 79.3001 155.5 77.3001 155.5 75.4001C153.3 79.9001 149.5 81.6001 144.9 81.7001C140.4 81.8001 136.3 80.8001 133.8 76.4001C131.5 80.3001 127.9 81.7001 123.7 81.7001C120.3 81.7001 117 81.2001 114.5 78.6001C110 74.0001 110.2 64.6001 115 60.5001C120 56.1001 129.5 56.5001 133.9 63.0001C136.5 58.9001 140.5 57.7001 145.1 57.9001C149.7 58.0001 153.3 59.7001 155.5 64.1001ZM118.3 70.0001C118.5 71.0001 118.6 72.2001 118.9 73.4001C119.5 75.4001 121.2 76.5001 123.4 76.4001C125.7 76.3001 127.3 75.2001 127.7 73.0001C128 71.1001 128.1 69.1001 127.9 67.1001C127.6 64.6001 125.7 63.2001 123.3 63.1001C120.9 63.1001 119.2 64.4001 118.7 67.0001C118.5 67.9001 118.5 68.8001 118.3 70.0001ZM149.2 70.3001C149.1 69.3001 149.1 68.3001 149 67.4001C148.7 65.0001 147.1 63.5001 145 63.2001C142.9 62.9001 140.9 63.8001 140.2 65.7001C139.1 68.4001 139.1 71.2001 140.2 73.9001C140.9 75.6001 142.7 76.5001 144.7 76.4001C146.8 76.3001 148.2 75.3001 148.8 73.3001C149 72.3001 149 71.3001 149.2 70.3001Z" fill="#2D1F04"/>
<path d="M32.2998 30.9005C37.3998 30.9005 42.3998 30.8005 47.3998 31.0005C50.6998 31.1005 52.6998 33.2005 52.9998 36.0005C53.3998 39.7005 51.7998 42.3005 48.5998 43.3005C48.3998 43.4005 48.1998 43.4005 47.6998 43.5005C51.3998 45.0005 52.0998 48.5005 53.7998 51.4005C54.1998 52.1005 54.5998 52.9005 54.9998 53.8005C52.3998 53.8005 49.8998 53.8005 47.3998 53.8005C47.0998 53.8005 46.6998 53.3005 46.4998 53.0005C45.1998 50.7005 43.9998 48.4005 42.6998 46.1005C41.8998 44.7005 40.9998 44.3005 39.3998 44.5005C39.3998 47.5005 39.3998 50.6005 39.3998 53.7005C36.9998 53.7005 34.6998 53.7005 32.2998 53.7005C32.2998 46.1005 32.2998 38.5005 32.2998 30.9005ZM39.3998 35.2005C39.3998 36.9005 39.3998 38.4005 39.3998 40.1005C40.9998 40.0005 42.4998 39.9005 44.0998 39.7005C45.3998 39.5005 45.9998 38.6005 45.9998 37.5005C45.9998 36.3005 45.2998 35.6005 43.9998 35.4005C42.4998 35.3005 40.9998 35.3005 39.3998 35.2005Z" fill="#2D1F04"/>
<path d="M99.6 72.0003C96.9 72.0003 94.4 72.0003 91.7 72.0003C91.7 75.1003 91.7 78.1003 91.7 81.2003C89.3 81.2003 87 81.2003 84.7 81.2003C84.7 73.6003 84.7 66.0003 84.7 58.3003C87 58.3003 89.2 58.3003 91.6 58.3003C91.6 60.9003 91.6 63.5003 91.6 66.2003C94.3 66.2003 96.8 66.2003 99.5 66.2003C99.5 63.6003 99.5 61.0003 99.5 58.3003C101.9 58.3003 104.2 58.3003 106.6 58.3003C106.6 65.9003 106.6 73.6003 106.6 81.3003C104.3 81.3003 102 81.3003 99.6 81.3003C99.6 78.1003 99.6 75.1003 99.6 72.0003Z" fill="#2D1F04"/>
<path d="M78.7998 64.9001C76.8998 65.3001 75.1998 65.7001 73.3998 66.1001C72.7998 66.2001 72.4998 66.2001 72.1998 65.6001C71.2998 63.7001 69.8998 62.9001 67.7998 63.1001C65.8998 63.3001 64.6998 64.3001 64.1998 66.1001C63.3998 68.7001 63.4998 71.3001 64.2998 73.8001C64.7998 75.3001 65.8998 76.1001 67.4998 76.3001C69.1998 76.5001 70.6998 76.2001 71.6998 74.7001C72.1998 73.9001 72.5998 72.9001 72.9998 72.0001C74.9998 72.6001 76.9998 73.2001 78.9998 73.8001C78.4998 77.8001 75.4998 80.8001 71.4998 81.5001C68.9998 81.9001 66.5998 81.8001 64.1998 81.2001C60.3998 80.2001 58.1998 77.5001 57.1998 73.9001C56.3998 71.1001 56.4998 68.2001 57.1998 65.3001C58.2998 61.0001 61.8998 58.2001 66.3998 57.9001C68.0998 57.8001 69.7998 57.9001 71.4998 58.1001C75.2998 58.7001 77.5998 61.2001 78.7998 64.9001Z" fill="#2D1F04"/>
<path opacity="0.0625" d="M184.5 224.8H26.3C21.2 224.8 17 220.6 17 215.5V149.2C17 144.1 21.2 139.9 26.3 139.9H184.5C189.6 139.9 193.8 144.1 193.8 149.2V215.5C193.7 220.6 189.6 224.8 184.5 224.8Z" fill="#2D1F04"/>
<path opacity="0.125" d="M184.1 224.4H26.3C21.2 224.4 17 220.2 17 215.1V149.1C17 144 21.2 139.8 26.3 139.8H184.2C189.3 139.8 193.5 144 193.5 149.1V215.1C193.4 220.3 189.2 224.4 184.1 224.4Z" fill="#2D1F04"/>
<path opacity="0.1875" d="M183.8 224.1H26.3C21.2 224.1 17 219.9 17 214.8V149.2C17 144.1 21.2 139.9 26.3 139.9H183.8C188.9 139.9 193.1 144.1 193.1 149.2V214.8C193 220 188.9 224.1 183.8 224.1Z" fill="#2D1F04"/>
<path opacity="0.25" d="M183.4 223.8H26.3C21.2 223.8 17 219.6 17 214.5V149.2C17 144.1 21.2 139.9 26.3 139.9H183.4C188.5 139.9 192.7 144.1 192.7 149.2V214.5C192.7 219.6 188.5 223.8 183.4 223.8Z" fill="#2D1F04"/>
<path opacity="0.3125" d="M183.1 223.4H26.3C21.2 223.4 17 219.2 17 214.1V149.1C17 144 21.2 139.8 26.3 139.8H183.1C188.2 139.8 192.4 144 192.4 149.1V214.1C192.3 219.3 188.2 223.4 183.1 223.4Z" fill="#2D1F04"/>
<path opacity="0.375" d="M182.7 223.1H26.3C21.2 223.1 17 218.9 17 213.8V149.2C17 144.1 21.2 139.9 26.3 139.9H182.7C187.8 139.9 192 144.1 192 149.2V213.8C192 218.9 187.8 223.1 182.7 223.1Z" fill="#2D1F04"/>
<path opacity="0.4375" d="M182.3 222.8H26.3C21.2 222.8 17 218.6 17 213.5V149.2C17 144.1 21.2 139.9 26.3 139.9H182.4C187.5 139.9 191.7 144.1 191.7 149.2V213.5C191.6 218.6 187.5 222.8 182.3 222.8Z" fill="#2D1F04"/>
<path opacity="0.5" d="M182 222.4H26.3C21.2 222.4 17 218.2 17 213.1V149.1C17 144 21.2 139.8 26.3 139.8H182C187.1 139.8 191.3 144 191.3 149.1V213.1C191.3 218.3 187.1 222.4 182 222.4Z" fill="#2D1F04"/>
<path opacity="0.5625" d="M181.6 222.1H26.3C21.2 222.1 17 217.9 17 212.8V149.2C17 144.1 21.2 139.9 26.3 139.9H181.7C186.8 139.9 191 144.1 191 149.2V212.8C190.9 217.9 186.8 222.1 181.6 222.1Z" fill="#2D1F04"/>
<path opacity="0.625" d="M181.3 221.8H26.3C21.2 221.8 17 217.6 17 212.5V149.2C17 144.1 21.2 139.9 26.3 139.9H181.3C186.4 139.9 190.6 144.1 190.6 149.2V212.5C190.6 217.6 186.4 221.8 181.3 221.8Z" fill="#2D1F04"/>
<path opacity="0.6875" d="M180.9 221.4H26.3C21.2 221.4 17 217.2 17 212.1V149.1C17 144 21.2 139.8 26.3 139.8H181C186.1 139.8 190.3 144 190.3 149.1V212.1C190.2 217.3 186.1 221.4 180.9 221.4Z" fill="#2D1F04"/>
<path opacity="0.75" d="M180.6 221.1H26.3C21.2 221.1 17 216.9 17 211.8V149.2C17 144.1 21.2 139.9 26.3 139.9H180.6C185.7 139.9 189.9 144.1 189.9 149.2V211.8C189.9 216.9 185.7 221.1 180.6 221.1Z" fill="#2D1F04"/>
<path opacity="0.8125" d="M180.2 220.7H26.1999C21.0999 220.7 16.8999 216.5 16.8999 211.4V149.1C16.8999 144 21.0999 139.8 26.1999 139.8H180.2C185.3 139.8 189.5 144 189.5 149.1V211.4C189.5 216.6 185.4 220.7 180.2 220.7Z" fill="#2D1F04"/>
<path opacity="0.875" d="M179.9 220.4H26.3C21.2 220.4 17 216.2 17 211.1V149.2C17 144.1 21.2 139.9 26.3 139.9H179.9C185 139.9 189.2 144.1 189.2 149.2V211.1C189.2 216.3 185 220.4 179.9 220.4Z" fill="#2D1F04"/>
<path opacity="0.9375" d="M179.5 220.1H26.3C21.2 220.1 17 215.9 17 210.8V149.2C17 144.1 21.2 139.9 26.3 139.9H179.6C184.7 139.9 188.9 144.1 188.9 149.2V210.8C188.8 215.9 184.6 220.1 179.5 220.1Z" fill="#2D1F04"/>
<path d="M179.2 219.7H26.3C21.2 219.7 17 215.5 17 210.4V149.1C17 144 21.2 139.8 26.3 139.8H179.2C184.3 139.8 188.5 144 188.5 149.1V210.4C188.5 215.6 184.3 219.7 179.2 219.7Z" fill="#2D1F04"/>
<path d="M179.2 219.7H26.3C21.2 219.7 17 215.5 17 210.4V149.1C17 144 21.2 139.8 26.3 139.8H179.2C184.3 139.8 188.5 144 188.5 149.1V210.4C188.5 215.6 184.3 219.7 179.2 219.7Z" fill="#2D1F04"/>
<path d="M46.9999 148.7C48.2999 148.4 50.3999 148.2 52.4999 148.2C55.4999 148.2 57.3999 148.7 58.8999 149.9C60.0999 150.8 60.7999 152.2 60.7999 154C60.7999 156.2 59.2999 158.2 56.8999 159.1V159.2C59.0999 159.8 61.6999 161.6 61.6999 165C61.6999 167 60.8999 168.5 59.6999 169.7C58.0999 171.2 55.3999 171.9 51.5999 171.9C49.4999 171.9 47.8999 171.8 46.8999 171.6V148.7H46.9999ZM49.9999 158.3H52.6999C55.8999 158.3 57.6999 156.6 57.6999 154.4C57.6999 151.7 55.5999 150.6 52.5999 150.6C51.1999 150.6 50.3999 150.7 49.8999 150.8V158.3H49.9999ZM49.9999 169.4C50.5999 169.5 51.4999 169.5 52.4999 169.5C55.5999 169.5 58.4999 168.4 58.4999 165C58.4999 161.8 55.7999 160.5 52.4999 160.5H49.9999V169.4Z" fill="#2D1F04"/>
<path d="M67.5 163.9C67.6 168 70.2 169.7 73.2 169.7C75.4 169.7 76.7 169.3 77.8 168.8L78.3 171C77.2 171.5 75.4 172 72.7 172C67.5 172 64.5 168.6 64.5 163.6C64.5 158.6 67.5 154.6 72.3 154.6C77.8 154.6 79.2 159.4 79.2 162.5C79.2 163.1 79.1 163.6 79.1 163.9H67.5ZM76.4 161.7C76.4 159.8 75.6 156.8 72.2 156.8C69.1 156.8 67.8 159.6 67.5 161.7H76.4Z" fill="#2D1F04"/>
<path d="M95.1 171.1C94.3 171.5 92.5 172.1 90.3 172.1C85.3 172.1 82 168.7 82 163.6C82 158.4 85.5 154.7 91 154.7C92.8 154.7 94.4 155.2 95.2 155.6L94.5 158C93.8 157.6 92.6 157.2 91 157.2C87.2 157.2 85.1 160 85.1 163.5C85.1 167.4 87.6 169.8 90.9 169.8C92.6 169.8 93.8 169.3 94.6 169L95.1 171.1Z" fill="#2D1F04"/>
<path d="M113.6 163.2C113.6 169.4 109.3 172.1 105.3 172.1C100.8 172.1 97.3 168.8 97.3 163.5C97.3 157.9 101 154.6 105.6 154.6C110.3 154.6 113.6 158.1 113.6 163.2ZM100.3 163.4C100.3 167.1 102.4 169.8 105.4 169.8C108.3 169.8 110.5 167.1 110.5 163.3C110.5 160.5 109.1 156.9 105.5 156.9C101.9 156.9 100.3 160.2 100.3 163.4Z" fill="#2D1F04"/>
<path d="M117.4 159.5C117.4 157.8 117.4 156.4 117.3 155H120L120.1 157.7H120.2C121.1 156.1 122.7 154.6 125.5 154.6C127.8 154.6 129.5 156 130.2 158H130.3C130.8 157.1 131.5 156.3 132.2 155.8C133.2 155 134.3 154.6 135.9 154.6C138.1 154.6 141.4 156.1 141.4 161.9V171.8H138.4V162.3C138.4 159.1 137.2 157.1 134.8 157.1C133.1 157.1 131.7 158.4 131.2 159.9C131.1 160.3 131 160.9 131 161.4V171.7H128V161.7C128 159 126.8 157.1 124.5 157.1C122.6 157.1 121.2 158.6 120.7 160.1C120.5 160.5 120.5 161.1 120.5 161.6V171.7H117.5V159.5H117.4Z" fill="#2D1F04"/>
<path d="M147.9 163.9C148 168 150.6 169.7 153.6 169.7C155.8 169.7 157.1 169.3 158.2 168.8L158.7 171C157.6 171.5 155.8 172 153.1 172C147.9 172 144.9 168.6 144.9 163.6C144.9 158.6 147.9 154.6 152.7 154.6C158.2 154.6 159.6 159.4 159.6 162.5C159.6 163.1 159.5 163.6 159.5 163.9H147.9ZM156.8 161.7C156.8 159.8 156 156.8 152.6 156.8C149.5 156.8 148.2 159.6 147.9 161.7H156.8Z" fill="#2D1F04"/>
<path d="M49.2 205.8L49 203.7H48.9C48 205 46.1999 206.2 43.7999 206.2C40.3999 206.2 38.7 203.8 38.7 201.4C38.7 197.4 42.2999 195.1 48.7999 195.2V194.9C48.7999 193.5 48.4 191 45 191C43.4 191 41.7999 191.5 40.5999 192.2L39.9 190.2C41.3 189.3 43.3 188.7 45.4 188.7C50.5 188.7 51.7999 192.2 51.7999 195.5V201.8C51.7999 203.3 51.8999 204.7 52.0999 205.8H49.2ZM48.7 197.2C45.4 197.1 41.5999 197.7 41.5999 201C41.5999 203 42.9 203.9 44.5 203.9C46.7 203.9 48.1 202.5 48.5 201.1C48.6 200.8 48.7 200.4 48.7 200.1V197.2Z" fill="#2D1F04"/>
<path d="M63.9 193.6C63.9 191.9 63.9 190.5 63.8 189.1H66.5L66.6 191.8H66.7C67.6 190.2 69.2 188.7 72 188.7C74.3 188.7 76 190.1 76.7 192.1H76.8C77.3 191.2 78 190.4 78.7 189.9C79.7 189.1 80.8 188.7 82.4 188.7C84.6 188.7 87.9 190.2 87.9 196V205.9H84.9V196.4C84.9 193.2 83.7 191.2 81.3 191.2C79.6 191.2 78.2 192.5 77.7 194C77.6 194.4 77.5 195 77.5 195.5V205.8H74.5V195.8C74.5 193.1 73.3 191.2 71 191.2C69.1 191.2 67.7 192.7 67.2 194.2C67 194.6 67 195.2 67 195.7V205.8H64V193.6H63.9Z" fill="#2D1F04"/>
<path d="M94.3999 197.9C94.4999 202 97.0999 203.7 100.1 203.7C102.3 203.7 103.6 203.3 104.7 202.8L105.2 205C104.1 205.5 102.3 206 99.5999 206C94.3999 206 91.3999 202.6 91.3999 197.6C91.3999 192.6 94.3999 188.6 99.1999 188.6C104.7 188.6 106.1 193.4 106.1 196.5C106.1 197.1 106 197.6 106 197.9H94.3999ZM103.3 195.8C103.3 193.9 102.5 190.9 99.0999 190.9C95.9999 190.9 94.6999 193.7 94.3999 195.8H103.3Z" fill="#2D1F04"/>
<path d="M110 193.6C110 191.9 110 190.5 109.9 189.1H112.6L112.8 191.9H112.9C113.7 190.3 115.7 188.8 118.4 188.8C120.7 188.8 124.3 190.2 124.3 195.9V205.9H121.3V196.3C121.3 193.6 120.3 191.4 117.4 191.4C115.4 191.4 113.8 192.8 113.3 194.5C113.2 194.9 113.1 195.4 113.1 195.9V206H110.1V193.6H110Z" fill="#2D1F04"/>
<path d="M132.7 184.2V189H137.1V191.3H132.7V200.3C132.7 202.4 133.3 203.5 135 203.5C135.8 203.5 136.4 203.4 136.8 203.3L136.9 205.6C136.3 205.8 135.4 206 134.2 206C132.8 206 131.6 205.6 130.9 204.7C130 203.8 129.7 202.3 129.7 200.3V191.2H127.1V189H129.7V185L132.7 184.2Z" fill="#2D1F04"/>
<path d="M155.5 197.3C155.5 203.5 151.2 206.2 147.2 206.2C142.7 206.2 139.2 202.9 139.2 197.6C139.2 192 142.9 188.7 147.5 188.7C152.2 188.6 155.5 192.1 155.5 197.3ZM142.2 197.4C142.2 201.1 144.3 203.8 147.3 203.8C150.2 203.8 152.4 201.1 152.4 197.3C152.4 194.5 151 190.9 147.4 190.9C143.8 190.9 142.2 194.2 142.2 197.4Z" fill="#2D1F04"/>
<path d="M159.3 194.2C159.3 192.2 159.3 190.5 159.2 189H161.9L162 192.3H162.1C162.9 190.1 164.7 188.6 166.7 188.6C167 188.6 167.3 188.6 167.6 188.7V191.6C167.3 191.5 167 191.5 166.6 191.5C164.5 191.5 162.9 193.1 162.5 195.4C162.4 195.8 162.4 196.3 162.4 196.8V205.7H159.4V194.2H159.3Z" fill="#2D1F04"/>
<path d="M207.4 28.4003V230.9C207.4 242.9 197.7 252.5 185.8 252.5H23.2999C11.4 252.5 1.69995 242.8 1.69995 230.9V28.4003C1.69995 16.5003 11.4 6.80029 23.2999 6.80029H185.8C197.8 6.80029 207.4 16.4003 207.4 28.4003Z" stroke="#2D1F04" stroke-width="2.7806" stroke-miterlimit="10" stroke-linecap="round" stroke-linejoin="round"/>
<path d="M280 214.6C262.2 232.9 248.9 253.6 231.7 253.4C213 253.2 184.2 221.1 167.5 199.2C165.5 196.6 163.3 194.4 161.3 192.2C157.8 188.2 157.5 183.6 154.7 176.6C153.2 172.9 144.3 159 143.5 156.1C141 147.2 152 150.8 158.3 155.8C170.2 165.1 172.6 175.4 176.3 179.2C181.7 184.7 194 192.2 204.5 196.6C214.7 200.9 217.9 203.3 221.6 205.8C221.6 200.1 223.5 193.4 227.5 183.1C232.3 167.3 241.5 147.7 252.6 141.9L280 214.6Z" fill="#2D1F04"/>
<path d="M252.7 141.8C244.3 143.4 233.7 151.2 227.3 172.3C227.1 172.9 226.4 172.1 225.4 173.2C224.6 174.1 223.3 179.2 224.1 181C227 187.4 242.1 192.4 258.5 195C266.5 183.1 265.2 155 252.7 141.8Z" fill="#2D1F04"/>
<path d="M161.3 192.3C157.9 188.4 157.1 183.3 154.9 176.9C152.4 169.6 144.4 158.9 143.6 156C141.1 147.1 152.2 150.6 158.4 155.7C167.8 163.3 174.3 176 176.4 179.1C177.1 184.6 168.8 193 161.3 192.3Z" fill="#2D1F04"/>
<path d="M176.4 179.1C177.1 184.6 168.7 192.6 161.2 191.9" stroke="#2D1F04" stroke-width="2.7806" stroke-miterlimit="10" stroke-linecap="round" stroke-linejoin="round"/>
<path d="M144.6 152.3C159.7 161.7 166.3 171.7 173.5 186.2" stroke="#2D1F04" stroke-width="2.7806" stroke-miterlimit="10" stroke-linecap="round" stroke-linejoin="round"/>
<path d="M227.2 172.3C230.8 175.9 235 178.7 239.4 181" stroke="#2D1F04" stroke-width="2.7806" stroke-miterlimit="10" stroke-linecap="round" stroke-linejoin="round"/>
<path d="M230.6 175.3C229.3 176.6 228.7 178.1 228.6 179.1" stroke="#2D1F04" stroke-width="2.7806" stroke-miterlimit="10" stroke-linecap="round" stroke-linejoin="round"/>
<path d="M235.4 178.7C234.9 179.2 234.4 180.5 234.3 181.2" stroke="#2D1F04" stroke-width="2.7806" stroke-miterlimit="10" stroke-linecap="round" stroke-linejoin="round"/>
<path d="M242.6 250.7C238.7 252.6 235.8 253.4 231.7 253.4C213 253.4 186 222.2 167.5 199.2C165.5 196.7 163.3 194.5 161.3 192.2C157.8 188.2 157.2 182.6 154.8 176.5C151.6 168.6 144.7 159.7 143.9 156.8C141.5 147.8 153.4 151.7 158.4 155.6C167.8 163 174.4 176.7 176.4 179C181.6 184.8 194.1 191.5 204.6 196.4C219.9 203.5 222.1 205.5 225.8 209.5" stroke="#2D1F04" stroke-width="2.7806" stroke-miterlimit="10" stroke-linecap="round" stroke-linejoin="round"/>
<path d="M221.7 204.2C221.7 200.5 222.4 194.4 227.2 184.6" stroke="#2D1F04" stroke-width="2.7806" stroke-miterlimit="10" stroke-linecap="round" stroke-linejoin="round"/>
<path d="M252.7 141.8C243.4 144 233.5 151.3 227.2 172.3C227 172.8 226.2 172.3 225.3 173.2C224.7 173.9 223.1 179.1 224 181C225.6 184.3 231.1 187.4 237.5 190" stroke="#2D1F04" stroke-width="2.7806" stroke-miterlimit="10" stroke-linecap="round" stroke-linejoin="round"/>
<path opacity="0.23" d="M280 214.6C262.2 232.9 248.9 253.6 231.7 253.4C213 253.2 184.2 221.1 167.5 199.2C165.5 196.6 163.3 194.4 161.3 192.2C157.8 188.2 156.7 183 154.7 176.6C152.8 170.3 144.3 159 143.5 156.1C141.5 148.9 148.3 149.6 152.8 152.3C141.2 154 155 161.9 158.8 172.3C162.2 181.7 164.9 188.6 166.7 191.2C171.5 198.1 178.8 207 192.7 220.4C205.9 233 219.2 237.9 225.8 239C232.4 240.1 238 236.1 236.5 226.1C235.1 216.1 234.8 195.8 243.5 184.2L262.4 168L280 214.6Z" fill="#2D1F04"/>
<path d="M255.4 30.2004C262.1 28.2004 265.3 28.1004 272 28.4004C255 36.1004 246.2 61.3004 245.6 73.7004C245 86.9004 248 100.7 252.1 113.1C252.8 115.2 253.9 117.7 253.8 120C253.8 121.1 252.9 122.9 253.2 124C253.3 124.5 254.6 123.1 254.5 123.6C254.5 125.7 253.8 128 253.3 130C253.1 130.7 251.9 132.7 252.5 132.2C252.7 132.1 253.5 130.4 254.2 130.8C254.6 131 253.2 151.5 253 156.1C283.3 164.2 328.1 166.2 369.3 151.6C377.5 137.5 388 135.4 395 134.8C397.3 95.8004 389 53.3004 338.6 21.1004C331.9 16.8004 324.1 12.3004 317.8 10.4004C319.1 12.4004 319.5 14.7004 319.5 14.7004C309.5 12.8004 298.5 6.40039 295 1.90039C291.8 4.80039 292.1 9.50039 294.5 12.5004C290 9.80039 277.4 8.00039 270 11.2004C275.2 11.5004 278.3 12.6004 279.9 14.8004C272.5 14.4004 267.7 15.3004 261.4 20.5004C265.7 20.4004 270 21.5004 272.7 23.1004C265 23.6004 260.1 25.1004 255.4 30.2004Z" fill="#2D1F04"/>
<path d="M249 65.9C250.8 57.3 254.9 47.7 260.6 46.4C264.1 45.6 267.3 47.3 270.4 49.1C273.2 50.7 275.6 50 276.2 48C276.7 46.2 275.7 45 273.8 43.8C277.4 44.7 278.5 46.2 281.4 47.5C286.2 49.6 288.9 50 290.2 49.8C293.9 49 297.6 45.5 300.9 44.2C315.6 38.6 326.8 41 334.1 60.4C335.7 64.8 338.1 74.7 336 85.7C332.9 101.7 327.5 110.3 318.4 120.1C304.2 135.3 271.5 140.3 256.5 112.9C249.4 100 245.7 82 249 65.9Z" fill="#2D1F04"/>
<path d="M266.9 74.5999C262.1 75.0999 256.7 82.6999 260.8 94.3999C263.7 102.9 268.5 107.8 273.5 111.4C281.8 117.2 290.4 116 295.7 108.5C301.4 100.5 301.1 90.9999 298.1 83.8999C294.9 76.2999 285.3 71.8999 278.2 73.1999L266.9 74.5999Z" fill="#2D1F04"/>
<path d="M249 65.9998C248.2 70.5998 247 76.9998 248.1 84.7998C276.5 83.6998 272 51.3998 270.4 49.0998C266.5 46.8998 263.9 45.4998 260.2 46.5998C257.6 47.2998 251.6 51.2998 249 65.9998Z" fill="#2D1F04"/>
<path d="M290.3 49.7998C291.9 82.7998 316.1 88.7999 335.7 86.5998C337.8 76.8998 336.5 67.4998 334.2 61.0998C331.9 54.8998 327.2 44.2998 317.6 42.0998C312.4 40.8998 306 41.9998 300.8 44.1998C296.8 45.8998 293.8 48.3998 290.3 49.7998Z" fill="#2D1F04"/>
<path d="M395.1 134.7C397.6 85.9002 382.7 49.0002 338.7 20.9002C332 16.6002 324.2 12.1002 317.9 10.2002C319.2 12.2002 319.6 14.5002 319.6 14.5002C309.6 12.6002 298.7 6.2002 295.1 1.7002C291.9 4.6002 292.2 9.3002 294.6 12.3002C290.1 9.6002 277.5 7.80019 270.1 11.0002C275.3 11.3002 278.4 12.4002 280 14.6002C272.6 14.2002 267.8 15.1002 261.5 20.3002C265.8 20.2002 270.1 21.3002 272.8 22.8002C264.9 23.6002 260 25.0002 255.3 30.2002C262 28.2002 265.2 28.1002 271.9 28.4002C254.9 36.1002 246.1 61.3002 245.5 73.7002C244.9 86.9002 247.9 100.7 252 113.1C252.7 115.2 253.8 117.7 253.7 120C253.7 121.1 252.8 122.9 253.1 124C253.2 124.5 254.5 123.1 254.4 123.6C254.4 125.7 253.7 128 253.2 130C253 130.8 251.8 132.7 252.4 132.2C252.6 132.1 253.4 130.4 254.1 130.8C254.5 131 253.9 143.5 253 156.1" stroke="#2D1F04" stroke-width="2.7806" stroke-miterlimit="10" stroke-linecap="round" stroke-linejoin="round"/>
<path d="M269.6 78.4004C270.2 85.7004 272.1 92.0004 275.8 97.2004C280.9 99.6004 286.7 98.3004 288.8 90.8004" stroke="#2D1F04" stroke-width="2.7806" stroke-miterlimit="10" stroke-linecap="round" stroke-linejoin="round"/>
<path d="M298.9 68.1002C300 72.4002 305.9 71.8003 311.6 71.8003C318.9 71.8003 326 71.1002 325.1 63.7002C324.5 58.5002 318.3 56.9002 309.4 57.5002C300.5 58.2002 297.5 62.4002 298.9 68.1002Z" fill="#2D1F04"/>
<path d="M298.6 66.1001C301.4 61.8001 306.8 60.8001 313.7 61.3001C319.6 61.7001 323.3 63.2001 325.2 65.3001C325.2 64.8001 325.2 64.3001 325.1 63.8001C324.5 58.5001 318.3 57.0001 309.4 57.6001C301.5 58.2001 298.3 61.4001 298.6 66.1001Z" fill="#2D1F04"/>
<path d="M298.9 68.1002C300 72.4002 305.9 71.8003 311.6 71.8003C318.9 71.8003 326 71.1002 325.1 63.7002C324.5 58.5002 318.3 56.9002 309.4 57.5002C300.5 58.2002 297.5 62.4002 298.9 68.1002Z" stroke="#2D1F04" stroke-width="2.7806" stroke-miterlimit="10" stroke-linecap="round" stroke-linejoin="round"/>
<path d="M311.9 65.3001C311.6 62.3001 308.8 60.1001 305.8 60.5001C302.8 60.8001 300.6 63.6001 301 66.6001C301.3 69.6001 304.1 71.8001 307.1 71.4001C310.1 71.0001 312.2 68.3001 311.9 65.3001Z" fill="#2D1F04"/>
<path d="M310.2 65.5002C311.526 65.5002 312.6 64.4257 312.6 63.1002C312.6 61.7747 311.526 60.7002 310.2 60.7002C308.875 60.7002 307.8 61.7747 307.8 63.1002C307.8 64.4257 308.875 65.5002 310.2 65.5002Z" fill="#2D1F04"/>
<path d="M309.8 68.2004C310.297 68.2004 310.7 67.7974 310.7 67.3004C310.7 66.8033 310.297 66.4004 309.8 66.4004C309.303 66.4004 308.9 66.8033 308.9 67.3004C308.9 67.7974 309.303 68.2004 309.8 68.2004Z" fill="#2D1F04"/>
<path d="M290.3 49.8004C307.7 39.0004 323.2 39.1004 342.5 59.2004" stroke="#2D1F04" stroke-width="7.6" stroke-miterlimit="10" stroke-linecap="round" stroke-linejoin="round"/>
<path opacity="0.23" d="M395.1 134.7C393.1 135 391.1 135.4 389 136C378.2 138.9 371.7 146.3 367.8 154.2C372 132.7 373.5 110.9 368.4 89.3004C363 66.3004 345.2 43.0004 322 34.2004C320.6 33.7004 316.9 29.8004 312.1 28.2004C314 30.1004 313.5 31.6004 311.4 31.3004C308.3 30.8004 303.8 24.8004 294.9 23.9004C299.3 27.4004 298.2 30.3004 296.3 30.4004C294.6 30.5004 288.7 26.1004 282.3 26.0004C286.6 27.2004 288.3 31.2004 286.8 31.5004C284.6 31.9004 283.5 29.0004 279.3 28.6004C279.8 32.1004 278 35.8004 274 37.5004C271.3 38.6004 267.1 37.7004 265.8 36.5004C262.4 40.0004 258.9 42.6004 254.7 45.7004C259 38.4004 264.7 31.9004 272 28.6004C265.3 28.3004 262.1 28.3004 255.4 30.4004C260.1 25.2004 265 23.8004 272.9 23.0004C270.2 21.4004 265.9 20.4004 261.6 20.5004C267.9 15.3004 272.7 14.3004 280.1 14.8004C278.5 12.6004 275.4 11.5004 270.2 11.2004C277.6 8.00039 290.2 9.90039 294.7 12.5004C292.3 9.60039 292 4.80039 295.2 1.90039C298.7 6.40039 309.7 12.8004 319.7 14.7004C319.7 14.7004 319.3 12.4004 318 10.4004C324.3 12.4004 332.1 16.9004 338.8 21.1004C382.7 49.0004 397.6 86.0004 395.1 134.7Z" fill="#2D1F04"/>
<path d="M330.7 134.3V140.5" stroke="#2D1F04" stroke-width="4.1072" stroke-miterlimit="10" stroke-linecap="round" stroke-linejoin="round"/>
<path d="M336.2 138.6V144.9" stroke="#2D1F04" stroke-width="4.1072" stroke-miterlimit="10" stroke-linecap="round" stroke-linejoin="round"/>
<path d="M378.7 349.2C376 349.1 373.2 349 370.4 348.9C369.1 348.9 367.8 348.8 366.5 348.8C363.5 348.7 360.5 348.6 357.6 348.5C357.2 348.5 356.7 348.5 356.3 348.4C356 348.4 355.7 348.4 355.4 348.4C353.8 348.3 352.3 348.3 350.8 348.2C350.5 348.2 350.1 348.2 349.8 348.2C347.1 348.1 344.4 348 342 347.9C341.6 347.9 341.3 347.9 340.9 347.9C340.5 347.9 340.1 347.9 339.7 347.8C339.2 347.8 338.7 347.7 338.3 347.7C337.8 347.7 337.4 347.6 336.9 347.6C336.4 347.6 335.9 347.5 335.4 347.5C334.9 347.5 334.4 347.4 333.9 347.4C333 347.3 332.1 347.3 331.3 347.2C330.9 347.2 330.6 347.1 330.2 347.1H330.1C329.8 347.1 329.5 347 329.3 347C329.1 347 328.9 346.9 328.8 346.9C328.7 346.9 328.6 346.9 328.6 346.9C328.2 346.8 327.9 346.8 327.7 346.7C327.6 346.7 327.6 346.6 327.5 346.6C327.4 346.6 327.4 346.5 327.3 346.5L327.2 346.4C327.2 346.3 327.2 346.3 327.2 346.2C327.8 345.4 328.5 344.6 329.3 343.8C329.6 343.5 329.8 343.2 330.1 343C330.4 342.7 330.7 342.4 331 342.2C331.3 341.9 331.6 341.7 331.9 341.4C334 339.6 336.7 337.7 340.1 336.1C340.7 335.8 341.3 335.5 342 335.2C342.1 335.2 342.1 335.1 342.2 335.1C342.5 335 342.8 334.8 343.2 334.7C343.6 334.5 344.1 334.3 344.6 334.2C345 334 345.4 333.9 345.9 333.8C346.2 333.7 346.5 333.6 346.9 333.5C347.3 333.4 347.6 333.3 348 333.2C348.2 333.1 348.5 333.1 348.7 333C349 332.9 349.3 332.8 349.6 332.7C349.9 332.6 350.2 332.5 350.5 332.5C351.5 332.2 352.6 332 353.7 331.7C354.3 331.6 354.8 331.5 355.4 331.3C356.3 331.1 357.1 331 358.1 330.8C366.2 333.9 374.7 339.9 378.7 349.2Z" fill="#2D1F04"/>
<path d="M293.2 346C292.5 346 291.7 346 291 346.1C277.3 346.3 251.2 347.7 248 347.7C246.7 347.7 245.6 347.6 245.2 347.3C244.7 346.9 245 346.1 246.6 344.4C246.7 344.3 246.8 344.2 246.9 344.1C247 344 247.1 343.9 247.2 343.8C247.4 343.6 247.7 343.3 247.9 343.1C249 342.1 265.2 329.6 278.6 330.1C284.3 333.7 290.1 339.2 293.2 346Z" fill="#2D1F04"/>
<path d="M435.7 179.4C423.7 180.6 399.6 198.4 394.1 216.2C394.1 216.3 393.9 216.3 393.9 216.4C395.4 222.2 397.8 227.4 402.9 231.7C406.1 234.4 411.1 236.7 414.7 238.7C414.8 241.9 414.5 246.2 413.9 249.4C410.5 252.2 405.5 255.2 398.7 257.8C397.2 258.3 395.7 258.5 394.1 258.3C394 258.3 393.9 258.3 393.7 258.3C393.6 258.3 393.4 258.3 393.3 258.3C390.6 258 387.8 257.1 384.8 256.4C384.2 256.3 383.6 256.1 382.9 256C382.6 256 382.4 255.9 382.1 255.9C381.8 255.8 381.4 255.8 381.1 255.8H381C380.8 255.8 380.6 255.8 380.4 255.8C380.2 255.8 380 255.8 379.8 255.8C376.4 255.6 372.8 256.2 368.8 258.5C362.2 262.3 359.5 270.3 359.2 272.9C359 275.1 364.5 269.7 376.3 272.9C377 273.1 377.7 273.3 378.5 273.6C380 274.1 381.6 274.7 383.3 275.5C383.7 275.7 384.1 275.9 384.6 276.1C385 276.3 385.5 276.6 385.9 276.8C386.2 277 386.5 277.1 386.8 277.3C387.1 277.4 387.4 277.6 387.7 277.7C387.8 277.8 388 277.8 388.1 277.9C388.7 278.1 389.2 278.3 389.8 278.4C390 278.5 390.3 278.5 390.5 278.5C391.3 278.6 392 278.7 392.8 278.7C397.4 278.6 402.4 276.5 410.9 275.9H411C407.1 290.1 377.5 300.2 358.6 303.4C341.8 306.2 315 307.1 294.4 303.4C273.4 299.6 261.6 293.4 257.2 288.6C242.6 273 245 240.7 244.2 222.3C240.9 220.3 239.5 200.4 246.7 176.3C248.2 171.2 250.4 166.2 250.6 165C250.7 163.9 248.6 162.1 249.5 160C250.2 158.5 253.6 153.5 253.1 156.4C288 166.4 330.7 158.7 357.1 147.7C361 142.6 366.5 138.3 374.1 136.3C376.2 135.7 378.2 135.3 380.2 135C397.5 132.5 411.6 141.1 433.8 170.5C435.6 172.6 441.9 178.2 435.7 179.4Z" fill="#2D1F04"/>
<path d="M264.6 190.7C270.2 191.2 275.2 191.4 280.1 191.9C284.1 192.3 285.1 195.2 284.8 197.9C284.4 201.6 282.2 204 278.5 205.2C278.3 205.3 278.1 205.3 277.7 205.4C281.4 207.9 281.3 212.7 283.6 217.1C280.6 216.9 278 216.7 275.2 216.6C273.9 213.8 272.8 211 271.9 208.3C271.4 206.8 270.7 205.7 268.5 206C267.8 209.2 267.3 212.5 267.4 216.1C264.8 215.9 262.4 215.8 259.9 215.7C259.5 207.2 262.9 198.9 264.6 190.7ZM271.1 196.4C270.7 198 270.3 199.6 269.8 201.4C271.5 201.4 273 201.5 274.6 201.4C276 201.3 276.9 200.4 277.2 199.2C277.5 197.9 277 196.9 275.6 196.7C274.2 196.4 272.7 196.4 271.1 196.4ZM302.9 193.1C299.9 191.9 296.8 191.8 293.6 192.6C290.2 193.4 287.9 195.9 287.1 198.9C286.4 201.7 287.4 204.1 290.3 205.6C291.8 206.4 293.5 206.9 295.1 207.5C295.9 207.8 296.7 208.1 297.5 208.5C298.4 209 298.9 209.8 298.7 210.9C298.5 212.1 297.7 212.8 296.6 213.2C294.2 214 291.9 212.7 291.4 210.2C291.3 209.7 291.3 209.3 291.2 208.8C288.8 208.8 286.6 208.8 284.4 208.8C283.8 212.9 285.9 216.3 289.3 217.6C291.9 218.6 294.6 218.9 297.4 218.5C299.1 218.3 301 217.6 302.5 216.6C307.2 213.5 308.7 206.4 303.2 203.4C302.3 202.9 301.4 202.5 300.5 202.2C298.8 201.6 297.2 201.1 295.5 200.5C294.6 200.2 293.9 199.8 294 198.5C294.7 197.1 295.8 196.7 297.1 196.8C299.1 197 300.1 198.1 300.1 200.2C302.4 200.2 304.7 200.2 307.2 200.1C307.3 196.5 306 194.3 302.9 193.1Z" fill="#2D1F04"/>
<path opacity="0.23" d="M325.9 341.5C325.8 341.6 325.8 341.7 325.7 341.9C325.6 342.1 325.4 342.4 325.1 342.6C324.9 342.8 324.6 343 324.3 343.2C324.1 343.3 324 343.4 323.8 343.5C323.3 343.7 322.8 343.9 322.2 344.1C320.9 344.5 319.5 344.8 318 345C317.8 345 317.5 345.1 317.3 345.1C317.1 345.1 316.8 345.2 316.6 345.2C316.4 345.2 316.1 345.3 315.9 345.3C314.2 345.5 312.6 345.5 311.3 345.6C311.1 345.6 311 345.6 310.8 345.6C310.7 345.6 310.6 345.6 310.5 345.6C310.4 345.6 310.2 345.6 310.1 345.6C309.7 345.6 309.4 345.6 309.2 345.6C308.9 345.6 308.6 345.6 308.3 345.6C308 345.6 307.7 345.6 307.4 345.6C306.6 345.6 305.7 345.7 304.9 345.7C304.2 345.7 303.6 345.8 302.9 345.8C302.4 345.8 301.9 345.8 301.5 345.9C300.4 345.9 299.3 346 298.2 346C296.6 346.1 295 346.1 293.5 346.1C292.8 346.1 292 346.1 291.3 346.2C277.6 346.4 251.5 347.8 248.3 347.8C248.1 347.8 247.9 347.8 247.7 347.8C247.6 347.8 247.4 347.8 247.3 347.8C247.2 347.8 247.2 347.8 247.1 347.8C247 347.8 247 347.8 246.9 347.8C246.7 347.8 246.5 347.8 246.4 347.7C246.3 347.7 246.3 347.7 246.2 347.7C246.1 347.7 246 347.7 246 347.6C246 347.6 246 347.6 245.9 347.6H245.8C245.7 347.6 245.7 347.6 245.7 347.5C245.6 347.5 245.6 347.4 245.6 347.4L245.5 347.3C245.4 347.2 245.4 347 245.4 346.8V346.7C245.4 346.6 245.5 346.5 245.5 346.4C245.5 346.4 245.5 346.4 245.5 346.3C245.5 346.3 245.5 346.2 245.6 346.2C245.6 346.1 245.7 346.1 245.7 346C245.8 345.9 245.8 345.8 245.9 345.7L246 345.6C246.1 345.5 246.3 345.3 246.4 345.1C246.5 345 246.6 344.9 246.6 344.8C246.7 344.7 246.8 344.6 246.9 344.5C247 344.4 247.1 344.3 247.2 344.2C247.3 344.1 247.4 344 247.5 343.9C247.7 343.7 248 343.4 248.2 343.2C248.2 343.2 248.2 343.2 248.3 343.1C248.3 343.1 248.3 343.1 248.4 343L248.5 342.9L248.6 342.8C248.8 342.6 249.1 342.4 249.5 342.1L249.6 342L249.7 341.9C251.9 340.3 256.2 337.3 261.4 334.7C261.5 334.6 261.7 334.6 261.8 334.5C262.8 334 263.9 333.5 264.9 333.1C265.1 333 265.2 333 265.4 332.9C265.5 332.9 265.5 332.9 265.5 332.8C266.1 332.6 266.7 332.3 267.4 332.1C268.3 331.8 269.2 331.5 270.1 331.2C270.4 331.1 270.7 331 270.9 331C271.7 330.8 272.5 330.6 273.4 330.4C273.5 330.4 273.5 330.4 273.6 330.4C273.6 330.4 273.6 330.4 273.7 330.4C273.9 330.4 274.1 330.3 274.4 330.3C274.5 330.3 274.6 330.3 274.7 330.3C274.8 330.3 274.8 330.3 274.9 330.3C275 330.3 275 330.3 275.1 330.3C275.3 330.3 275.5 330.2 275.7 330.2C275.8 330.2 275.9 330.2 276 330.2C276.3 330.2 276.7 330.1 277 330.1C277.4 330.1 277.8 330.1 278.1 330.1C278.3 330.1 278.6 330.1 278.8 330.1C278.7 330 278.5 329.8 278.3 329.6C277.7 329 277.1 328.2 276.5 327.4C271.7 320.4 267.8 307.3 269.8 300.7C280.8 310.5 300 316.8 319.1 317.9V318C319.4 322.2 321.6 328.9 324 334.9C324.4 336.1 324.9 337.2 325.3 338.2C325.5 338.6 325.7 339.1 325.8 339.5C326.1 340.3 326.1 341 325.9 341.5Z" fill="#2D1F04"/>
<path opacity="0.23" d="M410.3 346.4C410.1 346.7 409.9 346.9 409.7 347.1C409.1 347.7 408.3 348.1 407.3 348.3C402.3 349.5 391.1 349.5 378.7 349.1C378.5 349.1 378.4 349.1 378.2 349.1C377.1 349.1 375.9 349 374.7 349C372.4 348.9 370.1 348.8 367.8 348.8C367.2 348.8 366.7 348.8 366.1 348.7C365.5 348.7 364.9 348.7 364.2 348.6C363.4 348.6 362.6 348.5 361.8 348.5C360.4 348.4 359 348.4 357.6 348.3C356.5 348.3 355.5 348.2 354.5 348.2C354.1 348.2 353.6 348.2 353.2 348.1H353.1C352.9 348.1 352.7 348.1 352.5 348.1C352 348.1 351.5 348.1 351.1 348C349.6 347.9 348.2 347.9 346.8 347.8C346.5 347.8 346.2 347.8 345.9 347.8C345.8 347.8 345.7 347.8 345.6 347.8C345.4 347.8 345.2 347.8 344.9 347.8C344.2 347.8 343.6 347.7 343 347.7C342.7 347.7 342.4 347.7 342.2 347.7C341.9 347.7 341.5 347.7 341.2 347.7C340.1 347.7 339.1 347.6 338.2 347.6C338 347.6 337.8 347.6 337.6 347.6C337.4 347.6 337.3 347.6 337.1 347.6C337 347.6 328.8 346.8 328.7 346.8C341.3 341.8 363.2 340.4 373.6 341H373.7C378.3 341.3 382 341.7 384 341.8C391 342.1 393.6 340.5 390.6 330.5C387.8 321.1 382.5 307.9 382.7 296.7C390 294.1 398.9 290.8 406.3 283.4C398.3 298.7 402.6 316.1 407.2 330.3C408.2 334.2 412.7 342.4 410.3 346.4Z" fill="#2D1F04"/>
<path opacity="0.23" d="M357.1 311.7C360.2 309.7 366.4 305.8 368.3 303.2C331.3 319.6 296.3 312.1 275.8 305C294.7 315.6 310.2 318.2 324.8 318.2C339.4 318.1 348.9 315 357.1 311.7Z" fill="#2D1F04"/>
<path opacity="0.23" d="M244.9 229.1C257.3 228.2 280.2 225.4 280.7 225.5C281.2 225.6 287.6 227.1 301.1 229.1C321.8 232.2 328.3 232.6 334.3 229.7C338.6 227.7 344.7 218.5 350.7 203.7C342.2 216.5 334.7 224.2 330.1 224.4C313.1 225.1 283.9 222.2 280.6 221.7C278.2 221.4 253 223.4 244.4 220.4" fill="#2D1F04"/>
<path opacity="0.23" d="M411 275.6C410.5 276.7 409.9 278.1 409.5 279.2C406.1 288 382.5 300 347.3 304.7C323.6 307.9 304.7 306.6 286.1 300.8C335.9 309.3 375.2 294.4 378.8 290.8C380.7 288.9 381.7 282.3 382.4 274.8C384.2 275.7 386.1 276.6 387.6 277.4C393.5 280.5 402.2 275.6 411 275.6Z" fill="#2D1F04"/>
<path opacity="0.23" d="M413.7 249.5C407.8 254.3 400.3 257.1 398.5 257.8C394 259.5 389 257.1 383.2 256.1C383.7 251.8 383.8 247.2 383.5 243.1C382.9 235.5 381.5 224 377.1 219.2C372.7 214.4 366.9 207.6 363.6 203.3C375 206 379.4 209.3 383.9 212.2C385.3 215.8 387.9 221.4 393.8 216.5C395.3 222.3 397.7 227.4 402.8 231.7C403.4 232.2 413.9 238.2 414.6 238.7C414.7 243.7 414.2 246 413.7 249.5Z" fill="#2D1F04"/>
<path opacity="0.23" d="M435.9 179.4C433 180.8 429 181.3 426.5 182.8C422.2 185.1 421 173.8 407.8 158.5C395 143.8 375 134.4 363.5 141.3C366.5 139 370.1 137.2 374.3 136.1C381.1 134.3 387.3 133.8 393.4 135.3C405.5 138.2 417.6 148.6 434 170.4C435.7 172.6 441.6 176.7 435.9 179.4Z" fill="#2D1F04"/>
<path opacity="0.23" d="M468.2 239.8C467.4 247.6 462.3 257.7 448 265.7C447.9 265.8 447.9 265.8 447.8 265.8C447.3 266.1 446.7 266.4 446.2 266.7C446.1 266.7 446.1 266.8 446 266.8C445 267.3 443.9 267.9 442.8 268.4C442.2 268.7 441.6 268.9 441 269.2C431.4 273.2 420.6 275 411.1 275.7C403.3 276.2 398.5 278.1 394.2 278.4C393.8 278.4 393.3 278.5 392.9 278.5C390.8 278.5 388.7 278 386.4 276.7C379.7 273 374.3 271.9 370.1 271.8C369.6 271.8 369 271.8 368.6 271.8C364.1 271.9 361.3 273.3 360.2 273.4C359.9 273.4 359.8 273.2 359.9 272.9C359.9 272.7 359.9 272.5 360 272.3C369.8 264.7 382.6 269.4 388.5 271.5C395.1 273.9 396.2 270 402 269.5C407.8 269 423.5 269.5 438.8 263.3C454.1 257.1 458.2 242.5 458 237C457.8 231.4 445.8 211 441.7 208C440.1 198.6 435.5 190.2 429.1 183.3C431.3 182 433.8 180.8 436.4 179.6C436.4 179.6 436.5 179.6 436.5 179.5C437.2 179.3 437.7 179.1 438 178.8C455.2 199.5 469 231.9 468.2 239.8Z" fill="#2D1F04"/>
<path opacity="0.23" d="M247.8 144.1C250.1 145.6 250.5 148.6 250.3 151.3C250.1 154 246.9 157 247.2 160.9C247.6 164.8 238.6 180.8 243.5 188.7C244.8 182.7 246.9 174.9 248.5 170.7C250.1 166.5 250.8 165.8 250.6 164.6C250.4 163.4 249.1 162.2 249.3 160.9C249.5 159.6 251 156.5 252.9 155.1C253.5 151.8 254 145.3 254.2 141.1C250.7 142.2 249.6 142.9 247.8 144.1Z" fill="#2D1F04"/>
<path d="M426.8 247.6L426.7 253.8" stroke="#2D1F04" stroke-width="4.1072" stroke-miterlimit="10" stroke-linecap="round" stroke-linejoin="round"/>
<path d="M420.4 252.5L420.3 258.7" stroke="#2D1F04" stroke-width="4.1072" stroke-miterlimit="10" stroke-linecap="round" stroke-linejoin="round"/>
<path d="M253.1 156.1C253.6 153.3 250.1 158.3 249.5 159.7C248.5 161.7 250.7 163.6 250.6 164.7C250.5 166 248.3 170.9 246.7 176C239.2 200.2 240.8 220.1 244.2 222C245.2 242.8 242.3 270.8 257.2 288.3C267.7 300.7 324.6 308.9 358.6 303.1C377.6 299.9 407.4 289.9 411.1 275.6" stroke="#2D1F04" stroke-width="2.7806" stroke-miterlimit="10" stroke-linecap="round" stroke-linejoin="round"/>
<path d="M357.1 311.7C331.7 324.4 285.8 317.8 268.3 299.3C266.2 297.1 262.6 292.9 262.2 292.3" stroke="#2D1F04" stroke-width="2.7806" stroke-miterlimit="10" stroke-linecap="round" stroke-linejoin="round"/>
<path d="M253.1 156.1C287.7 166 330.9 159.1 357.1 147.4" stroke="#2D1F04" stroke-width="2.7806" stroke-miterlimit="10" stroke-linecap="round" stroke-linejoin="round"/>
<path d="M337.8 163.8C316.7 171.9 266.2 174 251.4 164.3" stroke="#2D1F04" stroke-width="2.7806" stroke-miterlimit="10" stroke-linecap="round" stroke-linejoin="round"/>
<path d="M260.1 158.4C259.5 160.2 258.9 161.5 258.9 163.5" stroke="#2D1F04" stroke-width="2.7806" stroke-miterlimit="10" stroke-linecap="round" stroke-linejoin="round"/>
<path d="M271.1 160.6C270.3 162.2 270.1 164.4 270.1 166.2" stroke="#2D1F04" stroke-width="2.7806" stroke-miterlimit="10" stroke-linecap="round" stroke-linejoin="round"/>
<path d="M283.5 161.8V166.7" stroke="#2D1F04" stroke-width="2.7806" stroke-miterlimit="10" stroke-linecap="round" stroke-linejoin="round"/>
<path d="M294.6 161.7V162.4V162.9V163.6V164.1V164.6V165.1" stroke="#2D1F04" stroke-width="2.7806" stroke-miterlimit="10" stroke-linecap="round" stroke-linejoin="round"/>
<path d="M288.3 162.3V162.8V163.3V163.8V164.2V164.7" stroke="#2D1F04" stroke-width="2.7806" stroke-miterlimit="10" stroke-linecap="round" stroke-linejoin="round"/>
<path d="M325.8 157.9V158.4V158.9V159.8V160.3" stroke="#2D1F04" stroke-width="2.7806" stroke-miterlimit="10" stroke-linecap="round" stroke-linejoin="round"/>
<path d="M331.4 156.8V157.6V158.3V158.8" stroke="#2D1F04" stroke-width="2.7806" stroke-miterlimit="10" stroke-linecap="round" stroke-linejoin="round"/>
<path d="M329.4 346.2C337.5 342.1 347.3 339.2 357 338C361.2 337.5 365.4 337.3 369.4 337.5" stroke="#2D1F04" stroke-width="2.7806" stroke-miterlimit="10" stroke-linecap="round" stroke-linejoin="round"/>
<path d="M247.2 346.3C252.4 342 275.8 333.3 284.5 334.8" stroke="#2D1F04" stroke-width="2.7806" stroke-miterlimit="10" stroke-linecap="round" stroke-linejoin="round"/>
<path d="M358 330.6C366.5 334 374.7 340.4 378.7 348.5" stroke="#2D1F04" stroke-width="2.7806" stroke-miterlimit="10" stroke-linecap="round" stroke-linejoin="round"/>
<path d="M278.8 330C284.5 333.8 289.7 338.3 292.7 344.2" stroke="#2D1F04" stroke-width="2.7806" stroke-miterlimit="10" stroke-linecap="round" stroke-linejoin="round"/>
<path d="M392.7 278.4C390.5 278.4 388.3 278 385.8 276.6C367.5 266.6 359 275.4 359.2 272.7C359.5 270 362.1 262.1 368.8 258.3C379 252.4 387.1 257.8 394.1 258.3C390.5 262.9 387 269.8 392.7 278.4Z" fill="#2D1F04"/>
<path d="M393.7 216C395.2 222 397.6 227.3 402.8 231.7C408.2 236.2 419.2 239.9 418.9 242.6C418.4 246.2 411.8 252.9 398.6 257.8C390.6 260.8 381.2 251.2 368.8 258.3C362.2 262.1 359.5 270.1 359.2 272.7C358.9 275.4 367.5 266.5 385.8 276.6C393.4 280.8 398.2 276.5 410.8 275.6C420.3 275 431.1 273.2 440.7 269.1C460.5 260.7 467.3 248.7 468.2 239.6C469 231.7 455.3 199.5 437.9 178.6" stroke="#2D1F04" stroke-width="2.7806" stroke-miterlimit="10" stroke-linecap="round" stroke-linejoin="round"/>
<path d="M394.1 216.2C388.1 220.8 386.6 217.3 383.9 211.8" stroke="#2D1F04" stroke-width="2.7806" stroke-miterlimit="10" stroke-linecap="round" stroke-linejoin="round"/>
<path d="M362.7 203C366.3 203.8 371.9 205.8 376.2 207.8C380 209.5 382.7 211.3 384.1 212.2" stroke="#2D1F04" stroke-width="2.7806" stroke-miterlimit="10" stroke-linecap="round" stroke-linejoin="round"/>
<path d="M376.2 207.8C373.8 204.7 371 200.5 367.7 198.3" stroke="#2D1F04" stroke-width="2.7806" stroke-miterlimit="10" stroke-linecap="round" stroke-linejoin="round"/>
<path d="M398.6 206.8C411.6 188.7 427 181.5 435.7 179.4C441.8 178.2 435.5 172.6 433.7 170.3C411.5 140.9 397.4 132.3 380.1 134.7C378.1 135 376.1 135.4 374 136C363.2 138.9 356.7 146.3 352.8 154.2C350.5 158.8 349.2 163.6 348.4 167.7" stroke="#2D1F04" stroke-width="2.7806" stroke-miterlimit="10" stroke-linecap="round" stroke-linejoin="round"/>
<path d="M384.9 211.6C389.1 198.3 400.8 182.8 416.9 177" stroke="#2D1F04" stroke-width="2.7806" stroke-miterlimit="10" stroke-linecap="round" stroke-linejoin="round"/>
<path d="M389.4 203.1C390.7 204.3 391.9 205 393.5 205.8" stroke="#2D1F04" stroke-width="2.7806" stroke-miterlimit="10" stroke-linecap="round" stroke-linejoin="round"/>
<path d="M395.3 194.7L398.6 197.3" stroke="#2D1F04" stroke-width="2.7806" stroke-miterlimit="10" stroke-linecap="round" stroke-linejoin="round"/>
<path d="M401.5 187.6L404.2 190.8" stroke="#2D1F04" stroke-width="2.7806" stroke-miterlimit="10" stroke-linecap="round" stroke-linejoin="round"/>
<path d="M344.4 316.1C346.7 322.8 351.4 328.3 358 330.6C339 333.9 331.7 340.6 327.2 346.2C326.6 347.4 341.4 347.8 357.7 348.5C376.6 349.2 399.6 350.2 407.4 348.4C415.2 346.6 408.6 335.1 407.1 330.5C402 314.9 398.6 299.2 406.2 283.6" stroke="#2D1F04" stroke-width="2.7806" stroke-miterlimit="10" stroke-linecap="round" stroke-linejoin="round"/>
<path d="M269.7 300.8C267.5 308.3 273 324.4 278.7 330C265.2 329.6 249.1 342 248 343C243.3 347.3 244.8 347.6 248 347.6C251.2 347.6 277.3 346.3 291 346C296.6 345.9 303.4 345.6 309 345.4C312.4 345.3 328.3 345.2 325.8 339.4C322.9 332.6 319.4 323.2 319 317.9" stroke="#2D1F04" stroke-width="2.7806" stroke-miterlimit="10" stroke-linecap="round" stroke-linejoin="round"/>
<path d="M359.2 272.7C365.9 263.3 377.8 261.8 385.8 263.9" stroke="#2D1F04" stroke-width="2.7806" stroke-miterlimit="10" stroke-linecap="round" stroke-linejoin="round"/>
<path d="M394.1 258.3C390.5 262.9 387 269.8 392.7 278.4" stroke="#2D1F04" stroke-width="2.7806" stroke-miterlimit="10" stroke-linecap="round" stroke-linejoin="round"/>
<path d="M275.8 97.2002C275 98.0002 273.9 98.9002 272.1 98.8002" stroke="#2D1F04" stroke-width="2.7806" stroke-miterlimit="10" stroke-linecap="round" stroke-linejoin="round"/>
<path d="M247.8 70.5004C248.3 75.1004 251.8 75.4004 256.5 75.7004C262 76.0004 267.7 73.1004 267.7 68.5004C267.6 63.2004 262.8 61.4004 255.8 62.1004C250 62.6004 247.2 65.3004 247.8 70.5004Z" fill="#2D1F04"/>
<path d="M247.7 69.8004C249.6 65.6004 253 65.0004 258.3 65.6004C263.3 66.1004 265.6 67.3004 267.5 69.9004C268.7 63.4004 262.8 61.7004 255.8 62.1004C250.5 62.3004 247.6 64.9004 247.7 69.8004Z" fill="#2D1F04"/>
<path d="M257.7 69.9002C257.7 67.3002 255.6 65.2002 253 65.2002C250.4 65.2002 248.3 67.3002 248.3 69.9002C248.3 72.5002 250.4 74.6002 253 74.6002C255.6 74.6002 257.7 72.5002 257.7 69.9002Z" fill="#2D1F04"/>
<path d="M247.8 70.5005C248.5 75.0005 251.9 75.4005 256.5 75.7005C262.1 76.1005 267.6 73.1005 267.7 68.5005C267.7 63.2005 262.8 61.5005 255.8 62.1005C250.1 62.5005 246.9 64.7005 247.8 70.5005Z" stroke="#2D1F04" stroke-width="2.62" stroke-miterlimit="10" stroke-linecap="round" stroke-linejoin="round"/>
<path d="M256.5 69.9002C257.66 69.9002 258.6 68.96 258.6 67.8002C258.6 66.6404 257.66 65.7002 256.5 65.7002C255.34 65.7002 254.4 66.6404 254.4 67.8002C254.4 68.96 255.34 69.9002 256.5 69.9002Z" fill="#2D1F04"/>
<path d="M255.7 72.1005C256.142 72.1005 256.5 71.7423 256.5 71.3005C256.5 70.8587 256.142 70.5005 255.7 70.5005C255.258 70.5005 254.9 70.8587 254.9 71.3005C254.9 71.7423 255.258 72.1005 255.7 72.1005Z" fill="#2D1F04"/>
<path d="M261 76.4003C260.6 73.7003 264.2 70.8003 269 69.9003C273.8 69.0003 278.1 70.5003 278.5 73.2003C278.9 75.9003 275.3 78.8003 270.5 79.7003C265.7 80.6003 261.5 79.1003 261 76.4003Z" fill="#2D1F04"/>
<path d="M272.1 49.8001C263 44.3001 255.1 45.2001 244.4 59.1001" stroke="#2D1F04" stroke-width="7.6" stroke-miterlimit="10" stroke-linecap="round" stroke-linejoin="round"/>
<path d="M414.6 238.6C414.9 242.2 414.6 245.8 413.8 249.5" stroke="#2D1F04" stroke-width="2.7806" stroke-miterlimit="10" stroke-linecap="round" stroke-linejoin="round"/>
<path d="M298.636 216.636V215.545C298.758 203.97 299.97 194.758 302.273 187.909C304.576 181.061 307.848 175.515 312.091 171.273C316.333 167.03 321.424 163.121 327.364 159.545C330.939 157.364 334.152 154.788 337 151.818C339.848 148.788 342.091 145.303 343.727 141.364C345.424 137.424 346.273 133.061 346.273 128.273C346.273 122.333 344.879 117.182 342.091 112.818C339.303 108.455 335.576 105.091 330.909 102.727C326.242 100.364 321.061 99.1818 315.364 99.1818C310.394 99.1818 305.606 100.212 301 102.273C296.394 104.333 292.545 107.576 289.455 112C286.364 116.424 284.576 122.212 284.091 129.364H261.182C261.667 119.061 264.333 110.242 269.182 102.909C274.091 95.5758 280.545 89.9697 288.545 86.0909C296.606 82.2121 305.545 80.2727 315.364 80.2727C326.03 80.2727 335.303 82.3939 343.182 86.6364C351.121 90.8788 357.242 96.697 361.545 104.091C365.909 111.485 368.091 119.909 368.091 129.364C368.091 136.03 367.061 142.061 365 147.455C363 152.848 360.091 157.667 356.273 161.909C352.515 166.152 347.97 169.909 342.636 173.182C337.303 176.515 333.03 180.03 329.818 183.727C326.606 187.364 324.273 191.697 322.818 196.727C321.364 201.758 320.576 208.03 320.455 215.545V216.636H298.636ZM310.273 270.455C305.788 270.455 301.939 268.848 298.727 265.636C295.515 262.424 293.909 258.576 293.909 254.091C293.909 249.606 295.515 245.758 298.727 242.545C301.939 239.333 305.788 237.727 310.273 237.727C314.758 237.727 318.606 239.333 321.818 242.545C325.03 245.758 326.636 249.606 326.636 254.091C326.636 257.061 325.879 259.788 324.364 262.273C322.909 264.758 320.939 266.758 318.455 268.273C316.03 269.727 313.303 270.455 310.273 270.455Z" fill="white"/>
</g>
<defs>
<clipPath id="clip0_228_4983">
<rect width="470" height="351" fill="white"/>
</clipPath>
</defs>
</svg>
