<svg width="571" height="607" viewBox="0 0 571 607" fill="none" xmlns="http://www.w3.org/2000/svg">
<g clip-path="url(#clip0_228_5144)">
<path d="M38.5 42.9001C38.6 38.6001 38.7 34.2001 38.8 29.9001L477.7 19.1001L533.3 79.2001C503 127.3 490.1 256.7 490.1 256.7C429.2 318.1 486.6 296.6 486.6 296.6C478.4 364 491 574.8 491 574.8L476.5 586.4L350 554.4L325.3 557.4L140.4 570.5L62.9 579.2L49.8 559.7C62.4 545.7 62.5 524.3 67.2 499.2C70.1 456.1 85.3 216.2 66.9 127.1C61 104.3 56 63.4001 38.5 42.9001Z" fill="#2D1F04"/>
<path d="M133.4 128.3C130.6 128.1 129.3 125.4 129.7 120.4L131.1 110.4L133.1 109.3L130.3 99.8002C129.5 97.1002 127.6 95.4002 124.6 94.6002C126.3 91.2002 126.9 88.1002 126.4 85.3002L123.9 77.0002L118.7 74.1002L117.4 64.2002C117 59.2002 118.2 56.5002 121 56.3002H135.9C138.7 56.5002 139.9 59.2002 139.5 64.2002L138.4 74.1002L134.8 75.7002L140.9 96.4002L146.9 75.9002L143.4 74.0002L142.3 64.1002C141.9 59.1002 143.1 56.4002 145.9 56.2002H160.8C163.6 56.4002 164.8 59.1002 164.4 64.1002L163.3 74.0002L159.8 75.9002L165.8 96.4002L171.9 75.7002L168.3 74.1002L167.2 64.2002C166.8 59.2002 168 56.5002 170.8 56.3002H185.7C188.5 56.5002 189.7 59.2002 189.3 64.2002L188 74.1002L182.8 77.0002L180.3 85.3002C179.8 88.1002 180.4 91.2002 182.1 94.6002C179.1 95.4002 177.2 97.1002 176.4 99.8002L173.6 109.3L175.6 110.4L177 120.4C177.4 125.4 176.2 128.1 173.3 128.3H158.4C155.6 128.1 154.3 125.4 154.7 120.4L156.1 110.4L158.1 109.3L153.4 92.3002L148.7 109.3L150.7 110.4L152.1 120.4C152.5 125.4 151.3 128.1 148.4 128.3H133.4Z" fill="#2D1F04"/>
<path d="M222.8 97.4003H213.3L211.8 108.7L215.2 110.3L216.5 120.3C216.9 125.3 215.7 128 212.9 128.2H198.1C195.3 128 194.1 125.3 194.6 120.3L195.9 110.3L199.3 108.7L200.6 98.3003C200.4 95.3003 199.2 92.6003 197.2 90.0003C199.7 89.0003 201.4 87.1003 202.4 84.3003L203.5 75.8003L199.9 74.1003L198.7 64.2003C198.3 59.2003 199.5 56.5003 202.3 56.3003H233.7C236.5 56.5003 237.7 59.2003 237.3 64.2003L236.1 74.1003L232.5 75.8003L233.6 84.3003C234.6 87.1003 236.4 89.0003 238.8 90.0003C236.7 92.5003 235.6 95.3003 235.4 98.3003L236.7 108.7L240.1 110.3L241.4 120.3C241.8 125.3 240.7 128 237.9 128.2H223.1C220.3 128 219.1 125.3 219.5 120.3L220.8 110.3L224.2 108.7L222.8 97.4003ZM217.8 75.0003L216.1 75.9003L214.6 86.8003H221.5L220 75.9003L218.4 75.0003H217.8Z" fill="#2D1F04"/>
<path d="M251.4 128.3C248.6 128.1 247.3 125.4 247.7 120.4L249.1 110.4L252.5 109V100.2C252.2 97.1003 250.7 94.5003 248.1 92.3003C250.7 90.3003 252.2 87.7003 252.5 84.6003V75.8003L249.1 74.2003L247.8 64.3003C247.4 59.3003 248.6 56.6003 251.4 56.4003H263.1V56.3003V56.4003C264.5 56.6003 265.6 57.2003 266.4 58.4003L277.4 93.0003V75.7003L274 74.3003L272.7 64.3003C272.3 59.3003 273.5 56.6003 276.3 56.4003H291C293.8 56.6003 295.1 59.3003 294.7 64.3003L293.3 74.3003L289.9 75.7003V84.5003C290.2 87.6003 291.7 90.2003 294.3 92.4003C291.7 94.4003 290.2 97.0003 289.9 100.1V108.9L293.3 110.5L294.6 120.4C295 125.4 293.8 128.1 291 128.3H279.3C277.9 128.1 276.8 127.5 276 126.3L265 91.7003V108.9L268.4 110.3L269.7 120.3C270.1 125.3 268.9 128 266.1 128.2H251.4V128.3Z" fill="#2D1F04"/>
<path d="M314.1 128.3C311.3 128.1 310.1 125.4 310.5 120.4L311.9 110.4L315.3 108.8V100.2C315 97.1004 313.5 94.5004 310.9 92.3004C313.5 90.3004 315 87.7004 315.3 84.6004V74.6004C314.4 75.2004 313.7 76.4004 313.2 78.1004C312.7 79.9004 312.4 81.5004 312.4 83.0004C312.2 84.4004 311.7 85.2004 310.9 85.3004H305.3C304.5 85.2004 304 84.4004 303.8 83.0004L301.7 64.3004C301.3 59.3004 302.5 56.6004 305.3 56.4004H309.1C311.2 56.6004 312.3 58.0004 312.5 60.6004C313.2 57.9004 314.4 56.4004 316.2 56.4004H327.3C329 56.5004 330.3 57.9004 331 60.6004C331.1 58.0004 332.2 56.6004 334.4 56.4004H338.2C341 56.6004 342.2 59.3004 341.8 64.3004L339.7 83.0004C339.5 84.4004 339 85.2004 338.2 85.3004H332.6C331.8 85.2004 331.3 84.4004 331.1 83.0004C331 81.5004 330.8 79.9004 330.3 78.1004C329.8 76.3004 329 75.1004 328 74.5004V84.6004C328.3 87.7004 329.8 90.3004 332.4 92.3004C329.8 94.5004 328.3 97.1004 328 100.2V108.8L331.4 110.4L332.7 120.4C333.1 125.4 331.9 128.1 329.1 128.3H314.1Z" fill="#2D1F04"/>
<path d="M352.3 128.3C349.5 128.1 348.3 125.4 348.7 120.4L350.1 110.4L353.5 108.8V100.2C353.2 97.1004 351.7 94.5004 349.1 92.3004C351.7 90.3004 353.2 87.7004 353.5 84.6004V75.8004L350 74.2004L348.8 64.3004C348.4 59.3004 349.6 56.6004 352.4 56.4004H377.9C379.6 56.5004 380.9 57.9004 381.6 60.6004C381.7 58.0004 382.8 56.6004 385 56.4004H392.2C395 56.6004 396.2 59.3004 395.8 64.3004L393.7 83.0004C393.5 84.4004 393 85.2004 392.2 85.3004H383.2C382.4 85.2004 381.9 84.4004 381.7 83.0004C381.6 81.5004 381.3 79.8004 380.8 77.8004C380.3 75.8004 379.2 74.6004 377.8 74.3004H366.2V87.0004H377.8C379.1 87.2004 379.8 87.8004 379.9 88.6004V95.8004C379.8 96.6004 379.1 97.2004 377.8 97.4004H366.2V110.5H377.8C379.3 110.1 380.3 109 380.8 107C381.3 105 381.6 103.2 381.7 101.8C381.9 100.4 382.4 99.6004 383.2 99.5004H392.2C393 99.6004 393.5 100.4 393.7 101.8L395.8 120.5C396.2 125.5 395 128.2 392.2 128.4H385C382.9 128.2 381.8 126.8 381.6 124.2C380.9 127 379.7 128.4 377.9 128.4H352.3V128.3Z" fill="#2D1F04"/>
<path d="M406.5 128.3C403.7 128.1 402.5 125.4 402.9 120.4L404.3 110.4L407.7 108.8V100.2C407.4 97.1002 405.9 94.5002 403.3 92.3002C405.9 90.1002 407.4 87.5002 407.7 84.4002V75.8002L404.2 74.2002L403 64.3002C402.6 59.3002 403.8 56.6002 406.6 56.4002L429.2 56.2002C433.7 56.4002 437.4 58.2002 440.3 61.8002C443.2 65.3002 444.6 72.9002 444.4 84.4002C444.7 87.5002 446.2 90.1002 448.8 92.3002C446.2 94.5002 444.7 97.1002 444.4 100.2C444.6 111.7 443.2 119.3 440.3 122.8C437.4 126.3 433.7 128.2 429.2 128.4H406.5V128.3ZM419.8 73.9002V84.2002C420.1 87.4002 421.5 90.0002 424.1 92.2002C421.6 94.4002 420.2 97.0002 419.8 100.1V110.5H428.3C429.8 110.1 430.8 108.9 431.4 106.9C432 104.8 432.3 102.6 432.3 100.1C432 97.0002 430.6 94.4002 428 92.2002C430.5 90.0002 431.9 87.4002 432.3 84.2002C432.3 81.8002 432 79.6002 431.4 77.5002C430.8 75.4002 429.8 74.2002 428.3 73.9002H419.8Z" fill="#2D1F04"/>
<path d="M357.7 223.9C353.1 232 334.9 239.7 316.7 241.6C273.8 246 237.5 249.9 194.1 243.9C172.5 240.9 163.9 229.2 159.6 223.3C173.9 231.3 193.3 237.3 234.8 232.5C276.3 227.7 295.4 223.1 319.6 219.8C343.7 216.5 355.3 218.4 357.7 223.9Z" fill="#2D1F04"/>
<path d="M411 352.7C413.2 350.7 408.5 346.4 407 344.4C386.2 316.8 372.5 307.6 356.6 308.5C357 262.1 340.2 216.5 294.1 195C286.6 191.4 278.7 189.4 270.8 186.5C269.3 186 266.2 185.2 265.1 183.5C263.9 181.7 264.7 179.1 264.6 179.1C257.9 180.2 260.9 186.2 260.9 186.2C260.9 186.2 259.6 186.1 258.9 186C256.1 185.4 253.2 182.9 253.4 178.7C253.7 173.1 259.7 170.8 258.8 170.3C258.6 170.2 247.9 165.3 239.8 171.7C235.3 175.2 233.2 180.1 234.7 186.5C224.6 184.7 226.2 175.9 226 176C217 177.6 213.7 188.1 220.1 192.3C220.1 193.4 215.8 193.1 212.8 191.1C210.6 189.6 209.7 186.1 209.4 186.2C201 191.4 204.9 200.5 212.4 201.3C213 201.4 214.1 201.4 213.9 202C213.8 202.2 212.2 203.4 209.3 203.4C206.4 203.4 205.3 202 205.2 202.4C203.9 206.3 210.3 209.6 212.7 208.4C207.7 211.8 204.3 215.7 201 221.4C186.7 246.3 194.4 274.2 206.2 297.8C207.2 299.9 208.7 302.3 209.1 304.6C209.3 305.8 208.6 307.7 209.1 308.8C209.3 309.2 210.3 307.7 210.4 308.1C210.6 310 210.5 312.1 210.3 314C199.4 318 187.6 328.7 172.8 348.2C171.3 350.2 166.6 354.5 168.8 356.5C153.9 375.2 144.7 409.5 145.4 417.4C146.3 426.4 153.4 433.7 173.3 442C192.3 450 206.7 452.4 218.4 453.1C222.7 459.6 228.3 466.3 235.4 473.3C235.9 473.8 236.5 474.3 237 474.8C234.8 482.3 240.3 498.4 246 504C232.5 503.6 216.4 516 215.3 517C210.6 521.3 212.1 521.6 215.3 521.6C218.5 521.6 244.6 520.3 258.3 520C263.9 519.9 270.7 519.6 276.3 519.4C279.7 519.3 295.6 519.2 293.1 513.4C290.2 506.6 286.7 497.2 286.3 491.9C295.1 492.4 303.8 491.9 311.7 490.1C314 496.8 318.7 502.3 325.3 504.6C306.3 507.9 299 514.6 294.5 520.2C293.9 521.4 308.7 521.8 325 522.5C343.9 523.2 366.9 524.2 374.7 522.4C382.5 520.6 375.9 509.1 374.4 504.5C369.3 488.9 364.3 467.3 371.9 451.7C375.1 451 378.9 450.1 383.9 449.8C393.4 449.2 404.2 447.4 413.8 443.3C433.7 434.9 440.4 422.9 441.3 413.8C442.2 406 428.4 373.6 411 352.7ZM189.9 418.8C189.9 416.2 198.2 414.4 203.7 410C204.4 417.6 205.8 425.3 208.7 433.4C206 431.8 189.9 421.2 189.9 418.8ZM376.6 430C377.6 422.4 378.2 414.4 378 407.3C383.7 411.2 392.5 414.4 392.2 416.7C391.8 419.9 386.7 425.4 376.6 430Z" fill="#2D1F04"/>
<path d="M346.3 523.3C343.6 523.2 340.8 523.1 338 523C336.7 523 335.4 522.9 334.1 522.9C331.1 522.8 328.1 522.7 325.2 522.6C324.8 522.6 324.3 522.6 323.9 522.5C323.6 522.5 323.3 522.5 323 522.5C321.4 522.4 319.9 522.4 318.4 522.3C318.1 522.3 317.7 522.3 317.4 522.3C314.7 522.2 312 522.1 309.6 522C309.2 522 308.9 522 308.5 522C308.1 522 307.7 522 307.3 521.9C306.8 521.9 306.3 521.8 305.9 521.8C305.5 521.8 305 521.7 304.5 521.7C304 521.7 303.5 521.6 303 521.6C302.5 521.6 302 521.5 301.5 521.5C300.6 521.4 299.7 521.4 298.9 521.3C298.5 521.3 298.2 521.2 297.8 521.2H297.7C297.4 521.2 297.1 521.1 296.9 521.1C296.7 521.1 296.5 521 296.4 521C296.3 521 296.2 521 296.2 521C295.8 520.9 295.5 520.9 295.3 520.8C295.2 520.8 295.2 520.7 295.1 520.7C295 520.7 295 520.6 294.9 520.6L294.8 520.5C294.8 520.4 294.8 520.4 294.8 520.3C295.4 519.5 296.1 518.7 296.9 517.9C297.2 517.6 297.4 517.3 297.7 517.1C298 516.8 298.3 516.5 298.6 516.3C298.9 516 299.2 515.8 299.5 515.5C301.6 513.7 304.3 511.8 307.7 510.2C308.3 509.9 308.9 509.6 309.6 509.3C309.7 509.3 309.7 509.2 309.8 509.2C310.1 509.1 310.4 508.9 310.8 508.8C311.2 508.6 311.7 508.4 312.2 508.3C312.6 508.1 313 508 313.5 507.9C313.8 507.8 314.1 507.7 314.5 507.6C314.9 507.5 315.2 507.4 315.6 507.3C315.8 507.2 316.1 507.2 316.3 507.1C316.6 507 316.9 506.9 317.2 506.8C317.5 506.7 317.8 506.6 318.1 506.6C319.1 506.3 320.2 506.1 321.3 505.8C321.9 505.7 322.4 505.6 323 505.4C323.9 505.2 324.7 505.1 325.7 504.9C333.8 508 342.2 514.1 346.3 523.3Z" fill="#2D1F04"/>
<path d="M260.8 520.1C260.1 520.1 259.3 520.1 258.6 520.2C244.9 520.4 218.8 521.8 215.6 521.8C214.3 521.8 213.2 521.7 212.8 521.4C212.3 521 212.6 520.2 214.2 518.5C214.3 518.4 214.4 518.3 214.5 518.2C214.6 518.1 214.7 518 214.8 517.9C215 517.7 215.3 517.4 215.5 517.2C216.6 516.2 232.8 503.7 246.2 504.2C251.9 507.8 257.7 513.3 260.8 520.1Z" fill="#2D1F04"/>
<path d="M211.2 330C210.3 330.7 208.6 333.3 208.1 334.2C207.1 336.3 209.3 338.1 209.2 339.2C209.1 340.5 206.5 345.1 204 349.9C202.2 353.3 200.8 356.8 199.9 360.3C199 363.7 198.4 367.1 198.1 370.4C189.7 362.9 178.2 359.2 171 357.6C164.9 356.3 171.2 350.9 173 348.5C187.9 328.8 199.5 318.2 210.5 314.3C210.5 314.6 210.4 314.9 210.4 315.2C210.3 316 209.4 318.2 210 317.6C210.2 317.4 210.7 315.6 211.5 315.9C212 315.9 211.5 328.8 211.2 330Z" fill="#2D1F04"/>
<path d="M409.4 353.5C383.7 365.5 376.5 379.8 367.8 390.3C367.7 390.4 367.6 390.5 367.6 390.6C369.1 396.4 371.5 401.5 376.6 405.8C377.2 406.3 377.8 406.8 378.5 407.201C378.7 414.501 378.3 422.1 377.3 429.8C375.8 430.5 374.2 431.2 372.4 431.8C364.4 434.8 355 425.2 342.6 432.3C336 436.1 333.3 444.1 333 446.701C332.7 449.4 341.3 440.5 359.6 450.6C364.2 453.1 367.7 452.6 372.5 451.5C372 452.6 371.4 454 371 455.1C360.9 466.9 336.3 473.8 317.3 477C283.6 482.7 254 480 232.6 469.5C219.6 455.8 212.5 443.3 208.6 431.5C207.9 429.3 207.2 427.1 206.7 424.9C204.2 414.9 203.7 405.4 203.3 396.1C200 394.2 193.5 370.3 204.5 349.4C207 344.7 209.5 340 209.7 338.701C209.8 337.601 207.7 335.801 208.6 333.701C209.3 332.301 212.7 327.2 212.2 330C255.1 342.3 298.1 333.5 303.4 332.3C311.2 330.6 319.6 328.1 328 325.3C332 318.5 338.2 312.3 347.8 309.7C354.6 307.9 360.8 307.4 366.9 308.9C379 311.8 391.1 322.2 407.5 344C409.2 346.8 415 350.9 409.4 353.5Z" fill="#2D1F04"/>
<path d="M233.5 365.601C239.1 366.101 244.1 366.301 249 366.801C253 367.201 254 370.101 253.7 372.801C253.3 376.501 251.1 378.901 247.4 380.101C247.2 380.201 247 380.201 246.6 380.301C250.3 382.801 250.2 387.601 252.5 392.001C249.5 391.801 246.9 391.601 244.1 391.501C242.8 388.701 241.7 385.901 240.8 383.201C240.3 381.701 239.6 380.601 237.4 380.901C236.7 384.101 236.2 387.401 236.3 391.001C233.7 390.801 231.3 390.701 228.8 390.601C228.4 382.101 231.8 373.701 233.5 365.601ZM240 371.201C239.6 372.801 239.2 374.401 238.7 376.201C240.4 376.201 241.9 376.301 243.5 376.201C244.9 376.101 245.8 375.201 246.1 374.001C246.4 372.701 245.9 371.701 244.5 371.501C243.1 371.201 241.6 371.301 240 371.201ZM271.8 367.901C268.8 366.701 265.7 366.601 262.5 367.401C259.1 368.201 256.8 370.701 256 373.701C255.3 376.501 256.3 378.901 259.2 380.401C260.7 381.201 262.4 381.701 264 382.301C264.8 382.601 265.6 382.901 266.4 383.301C267.3 383.801 267.8 384.601 267.6 385.701C267.4 386.901 266.6 387.601 265.5 388.001C263.1 388.801 260.8 387.501 260.3 385.001C260.2 384.501 260.2 384.101 260.1 383.601C257.7 383.601 255.5 383.601 253.3 383.601C252.7 387.701 254.8 391.101 258.2 392.401C260.8 393.401 263.5 393.701 266.3 393.301C268 393.101 269.9 392.401 271.4 391.401C276.1 388.301 277.6 381.201 272.1 378.201C271.2 377.701 270.3 377.301 269.4 377.001C267.7 376.401 266.1 375.901 264.4 375.301C263.5 375.001 262.8 374.601 262.9 373.301C263.6 371.901 264.7 371.501 266 371.601C268 371.801 269 372.901 269 375.001C271.3 375.001 273.6 375.001 276.1 374.901C276.2 371.401 274.9 369.201 271.8 367.901Z" fill="#2D1F04"/>
<path opacity="0.23" d="M293.5 515.7C293.4 515.8 293.4 515.9 293.3 516.1C293.2 516.3 293 516.6 292.7 516.8C292.5 517 292.2 517.2 291.9 517.4C291.7 517.5 291.6 517.6 291.4 517.7C290.9 517.9 290.4 518.1 289.8 518.3C288.5 518.7 287.1 519 285.6 519.2C285.4 519.2 285.1 519.3 284.9 519.3C284.7 519.3 284.4 519.4 284.2 519.4C284 519.4 283.7 519.5 283.5 519.5C281.8 519.7 280.2 519.7 278.9 519.8C278.7 519.8 278.6 519.8 278.4 519.8C278.3 519.8 278.2 519.8 278.1 519.8C278 519.8 277.8 519.8 277.7 519.8C277.3 519.8 277 519.8 276.8 519.8C276.5 519.8 276.2 519.8 275.9 519.8C275.6 519.8 275.3 519.8 275 519.8C274.2 519.8 273.3 519.9 272.5 519.9C271.8 519.9 271.2 520 270.5 520C270 520 269.5 520 269.1 520.1C268 520.1 266.9 520.2 265.8 520.2C264.2 520.3 262.6 520.3 261.1 520.3C260.4 520.3 259.6 520.3 258.9 520.4C245.2 520.6 219.1 522 215.9 522C215.7 522 215.5 522 215.3 522C215.2 522 215 522 214.9 522C214.8 522 214.8 522 214.7 522C214.6 522 214.6 522 214.5 522C214.3 522 214.1 522 214 521.9C213.9 521.9 213.9 521.9 213.8 521.9C213.7 521.9 213.6 521.9 213.6 521.8C213.6 521.8 213.6 521.8 213.5 521.8H213.4C213.3 521.8 213.3 521.8 213.3 521.7C213.2 521.7 213.2 521.6 213.2 521.6L213.1 521.5C213 521.4 213 521.2 213 521V520.9C213 520.8 213.1 520.7 213.1 520.6C213.1 520.6 213.1 520.6 213.1 520.5C213.1 520.5 213.1 520.4 213.2 520.4C213.2 520.3 213.3 520.3 213.3 520.2C213.4 520.1 213.4 520 213.5 519.9L213.6 519.8C213.7 519.7 213.9 519.5 214 519.3C214.1 519.2 214.2 519.1 214.2 519C214.3 518.9 214.4 518.8 214.5 518.7C214.6 518.6 214.7 518.5 214.8 518.4C214.9 518.3 215 518.2 215.1 518.1C215.3 517.9 215.6 517.6 215.8 517.4C215.8 517.4 215.8 517.4 215.9 517.3C215.9 517.3 215.9 517.3 216 517.2L216.1 517.1L216.2 517C216.4 516.8 216.7 516.6 217.1 516.3L217.2 516.2L217.3 516.1C219.5 514.5 223.8 511.5 229 508.9C229.1 508.8 229.3 508.8 229.4 508.7C230.4 508.2 231.5 507.7 232.5 507.3C232.7 507.2 232.8 507.2 233 507.1C233.1 507.1 233.1 507.1 233.1 507C233.7 506.8 234.3 506.5 235 506.3C235.9 506 236.8 505.7 237.7 505.4C238 505.3 238.3 505.2 238.5 505.2C239.3 505 240.1 504.8 241 504.6C241.1 504.6 241.1 504.6 241.2 504.6C241.2 504.6 241.2 504.6 241.3 504.6C241.5 504.6 241.7 504.5 242 504.5C242.1 504.5 242.2 504.5 242.3 504.5C242.4 504.5 242.4 504.5 242.5 504.5C242.6 504.5 242.6 504.5 242.7 504.5C242.9 504.5 243.1 504.4 243.3 504.4C243.4 504.4 243.5 504.4 243.6 504.4C243.9 504.4 244.3 504.3 244.6 504.3C245 504.3 245.4 504.3 245.7 504.3C245.9 504.3 246.2 504.3 246.4 504.3C246.3 504.2 246.1 504 245.9 503.8C245.3 503.2 244.7 502.4 244.1 501.6C239.3 494.6 235.4 481.5 237.4 474.9C248.4 484.7 267.6 491 286.7 492.1V492.2C287 496.4 289.2 503.1 291.6 509.1C292 510.3 292.5 511.4 292.9 512.4C293.1 512.8 293.3 513.3 293.4 513.7C293.7 514.5 293.7 515.1 293.5 515.7Z" fill="#2D1F04"/>
<path opacity="0.23" d="M377.8 520.5C377.6 520.8 377.4 521 377.2 521.2C376.6 521.8 375.8 522.2 374.8 522.4C369.8 523.6 358.6 523.6 346.2 523.2C346 523.2 345.9 523.2 345.7 523.2C344.6 523.2 343.4 523.1 342.2 523.1C339.9 523 337.6 522.9 335.3 522.9C334.7 522.9 334.2 522.9 333.6 522.8C333 522.8 332.4 522.8 331.7 522.7C330.9 522.7 330.1 522.6 329.3 522.6C327.9 522.5 326.5 522.5 325.1 522.4C324 522.4 323 522.3 322 522.3C321.6 522.3 321.1 522.3 320.7 522.2H320.6C320.4 522.2 320.2 522.2 320 522.2C319.5 522.2 319 522.2 318.6 522.1C317.1 522 315.7 522 314.3 521.9C314 521.9 313.7 521.9 313.4 521.9C313.3 521.9 313.2 521.9 313.1 521.9C312.9 521.9 312.7 521.9 312.4 521.9C311.7 521.9 311.1 521.8 310.5 521.8C310.2 521.8 309.9 521.8 309.7 521.8C309.4 521.8 309 521.8 308.7 521.8C307.6 521.8 306.6 521.7 305.7 521.7C305.5 521.7 305.3 521.7 305.1 521.7C304.9 521.7 304.8 521.7 304.6 521.7C304.5 521.7 296.3 520.9 296.2 520.9C308.8 515.9 330.7 514.5 341.1 515.1H341.2C345.8 515.4 349.5 515.8 351.5 515.9C358.5 516.2 361.1 514.6 358.1 504.6C355.3 495.2 351.8 478.9 352.1 467.6C359.7 464.4 366.3 460.5 370.6 455.7C365.5 470.9 370.1 490.2 374.8 504.4C375.8 508.3 380.3 516.6 377.8 520.5Z" fill="#2D1F04"/>
<path opacity="0.23" d="M324.7 485.8C327.8 483.8 334 479.9 335.9 477.3C298.9 493.7 263.9 486.2 243.4 479.1C262.3 489.7 277.8 492.3 292.4 492.3C307 492.2 316.5 489.1 324.7 485.8Z" fill="#2D1F04"/>
<path opacity="0.23" d="M203.4 403.3C219 406.8 247.6 402 248.1 402.1C248.6 402.2 253.9 403.3 267.1 406.8C280.3 410.3 295.8 413.5 303.8 413.5C306.8 413.5 310.6 410.8 314.7 406.2C319 401.4 322.6 395.7 326.1 389.4C318.7 400.5 309.6 405.4 307 406.1C303.8 407 302.7 407 298.1 406.6C283.3 405.5 252.4 396.6 249 396.1C246.6 395.8 212.4 401.7 202.9 394.8" fill="#2D1F04"/>
<path opacity="0.23" d="M232.2 417.9C223.3 418.3 212.4 424.4 208.5 431.8C207.8 429.6 207.1 427.4 206.6 425.2C213.3 420.1 222 417.4 232.2 417.9Z" fill="#2D1F04"/>
<path opacity="0.23" d="M372.4 451.7C371.9 452.8 371.3 454.2 370.9 455.3C360.8 467.1 336.2 474 317.2 477.2C283.5 482.9 253.9 480.2 232.5 469.7C229.9 467 227.5 464.3 225.4 461.7C228.4 463.1 232.3 465.1 235.4 466.6C244.2 470.7 253.2 471.4 255.2 468.3C256.2 466.7 257.6 463.4 256.8 459.5C255.7 454.1 252.2 443.6 254.9 433.5C253.5 445 260.6 453.8 261 462.3C261 471.7 269.6 473.4 279.1 474C286.5 474.5 293.6 474.5 307.2 473C321.4 471.5 323.9 467.4 324 458.7C324.1 452.3 322.5 441.4 319.3 436C315.3 429.4 301.7 424.9 287 421.7C296.9 421.5 316.6 423 326 431.4C329.1 434.1 332.4 437.1 335.5 439.7C333.8 442.6 333 445.5 332.9 446.9C332.7 448.6 336.1 445.7 343.1 445.8C345.5 445.8 348.4 446.2 351.7 447.3C354.1 448.1 356.6 449.2 359.5 450.7C364 453.2 367.6 452.7 372.4 451.7Z" fill="#2D1F04"/>
<path opacity="0.23" d="M377.2 429.9C375.7 430.6 374.1 431.3 372.3 431.9C367.8 433.6 362.8 431.2 357 430.2C357.5 425.9 357.6 421.3 357.3 417.2C356.7 409.6 355.3 398.1 350.9 393.3C346.5 388.5 340.7 381.7 337.4 377.4C348.8 380.1 353.2 383.4 357.7 386.3C359.1 389.9 361.7 395.5 367.6 390.6C369.1 396.4 371.5 401.5 376.6 405.8C377.2 406.3 377.8 406.8 378.5 407.2C378.6 414.5 378.2 422.2 377.2 429.9Z" fill="#2D1F04"/>
<path opacity="0.23" d="M409.4 353.5C406.5 354.9 403.7 356.3 401.2 357.7C396.9 360 394.5 347.8 381.2 332.5C368.4 317.8 348.4 308.4 336.9 315.3C339.9 313 343.5 311.2 347.7 310.1C354.5 308.3 360.7 307.8 366.8 309.3C378.9 312.2 391 322.6 407.4 344.4C409.2 346.8 415 350.9 409.4 353.5Z" fill="#2D1F04"/>
<path opacity="0.23" d="M319.9 328.3C319.5 334.6 320 339.2 321 343.6C322 338.1 324.6 330 328 325.7C325.4 326.5 322 327.7 319.9 328.3Z" fill="#2D1F04"/>
<path opacity="0.23" d="M294.2 195.1C286.7 191.5 278.8 189.5 270.9 186.6C269.4 186.1 266.3 185.3 265.2 183.6C264 181.8 264.8 179.2 264.7 179.2C258 180.3 261 186.3 261 186.3C261 186.3 259.7 186.2 259 186.1C256.2 185.5 253.3 183 253.5 178.8C253.8 173.2 259.8 170.9 258.9 170.4C258.7 170.3 248 165.4 239.9 171.8C235.4 175.3 233.3 180.2 234.8 186.6C224.7 184.8 226.3 176 226.1 176.1C217.1 177.7 213.8 188.2 220.2 192.4C220.2 193.5 215.9 193.2 212.9 191.2C210.7 189.7 209.8 186.2 209.5 186.3C201.1 191.5 205 200.6 212.5 201.4C213.1 201.5 214.2 201.5 214 202.1C213.9 202.3 212.3 203.5 209.4 203.5C206.5 203.5 205.4 202.1 205.3 202.5C204 206.4 210.4 209.7 212.8 208.5C208 211.7 204.7 215.5 201.6 220.7C206.2 215.2 214 209.9 224.6 206.3C223.3 205.2 224.4 202.2 226.5 201.7C226 204 230.2 204.9 235 203.7C233.7 202.4 232.4 197.9 238.1 196.4C235.4 200.4 241.7 203.4 244.4 202.7C247.4 202 247.1 200.5 246 199.3C248.2 198.1 250.4 200.8 251.5 201.3C253.7 202.4 256.2 201.9 262.3 202.9C296.6 208.2 315.2 222.8 323.8 241.8C331 257.8 338.9 286.3 335.7 316.2C339 313.5 342.9 311.3 347.7 310C350.8 309.2 353.8 308.6 356.6 308.4C357.1 262.2 340.3 216.6 294.2 195.1Z" fill="#2D1F04"/>
<path opacity="0.23" d="M219.8 435C219.8 435.2 219.8 435.3 219.7 435.5C219.6 435.6 219.6 435.7 219.5 435.8C219.4 435.9 219.3 436 219.2 436.2C217.8 437.9 214.6 440.7 215.1 447.2C215.4 447.8 215.6 448.5 215.5 449.1C215.9 451.6 214.6 452.5 212.5 451.7L213.1 452.8C211 452.6 208.8 452.3 206.5 451.9C199.8 447.6 202.5 441.7 202.1 438.8C201.7 436.2 199.9 434.4 197.4 432.6C197 432.3 196.7 432.1 196.3 431.8C185.2 423.9 177.4 417.1 175.4 413.9C182.7 412.9 190.8 407.3 194.4 400.6C198 393.8 192.1 382.9 193 369.5C193.8 356.3 200.9 345.5 208.6 336.7C209 337.9 209.8 338.8 209.7 339.5C209.6 340.8 207 345.4 204.5 350.2C193.4 371.1 199.9 394.9 203.3 396.9C203.5 401.3 203.7 405.8 204.2 410.3C198.7 414.6 190.3 416.7 190.3 419.3C190.3 420.5 194 423.5 198.2 426.6L198.3 426.4C201 428.3 203.8 430.2 205.8 431.6C205.1 434.5 205.4 438.7 209.6 439.2C212.7 439.6 216.1 437.5 219.4 434.3C219.7 434.6 219.8 434.8 219.8 435Z" fill="#2D1F04"/>
<path opacity="0.23" d="M156.5 378.4C154.2 385.8 151.1 399.9 152.2 405C151.5 407.9 146.1 412.8 146.4 420.4C145.3 418.2 145.5 414.6 146.9 407.4C148.3 400.2 151.7 389.2 156.5 378.4Z" fill="#2D1F04"/>
<path opacity="0.23" d="M441.7 413.9C440.9 421.7 435.8 431.8 421.5 439.8C421.4 439.9 421.4 439.9 421.3 439.9C420.8 440.2 420.2 440.5 419.7 440.8C419.6 440.8 419.6 440.9 419.5 440.9C418.5 441.4 417.4 442 416.3 442.5C415.7 442.8 415.1 443 414.5 443.3C404.9 447.3 394.1 449.1 384.6 449.8C376.8 450.3 372 452.2 367.7 452.5C367.3 452.5 366.8 452.6 366.4 452.6C364.3 452.6 362.2 452.1 359.9 450.8C353.2 447.1 347.8 446 343.6 445.9C343.1 445.9 342.5 445.9 342.1 445.9C337.6 446 334.8 447.4 333.7 447.5C333.4 447.5 333.3 447.3 333.4 447C333.4 446.8 333.4 446.6 333.5 446.4C343.3 438.8 356.1 443.5 362 445.6C368.6 448 369.7 444.1 375.5 443.6C381.3 443.1 397 443.6 412.3 437.4C427.6 431.2 431.7 416.6 431.5 411.1C431.3 405.5 419.3 385.1 415.2 382.1C413.6 372.7 409 364.3 402.6 357.4C404.8 356.1 407.3 354.9 409.9 353.7C409.9 353.7 410 353.7 410 353.6C410.7 353.4 411.2 353.2 411.5 352.9C428.6 373.7 442.4 406 441.7 413.9Z" fill="#2D1F04"/>
<path opacity="0.23" d="M368.7 394.9C371.8 402.2 382.8 408.5 387.9 410C393 411.6 394.6 412.5 395.1 413.3C395.6 414.1 393.2 417.4 390.3 420.3C391.9 418.1 392.7 417.1 392.3 415.9C391.9 414.7 389.5 413.4 385.4 411.2C381.4 409.2 371.9 404.7 368.7 394.9Z" fill="#2D1F04"/>
<path d="M168.6 424.8V431" stroke="#2D1F04" stroke-width="4.1072" stroke-miterlimit="10" stroke-linecap="round" stroke-linejoin="round"/>
<path d="M174.1 429.1V435.4" stroke="#2D1F04" stroke-width="4.1072" stroke-miterlimit="10" stroke-linecap="round" stroke-linejoin="round"/>
<path d="M400.2 421.7V427.9" stroke="#2D1F04" stroke-width="4.1072" stroke-miterlimit="10" stroke-linecap="round" stroke-linejoin="round"/>
<path d="M393.8 426.6V432.8" stroke="#2D1F04" stroke-width="4.1072" stroke-miterlimit="10" stroke-linecap="round" stroke-linejoin="round"/>
<path d="M223.4 318.4V324.7" stroke="#2D1F04" stroke-width="4.1072" stroke-miterlimit="10" stroke-linecap="round" stroke-linejoin="round"/>
<path d="M230.1 321.5V327.8" stroke="#2D1F04" stroke-width="4.1072" stroke-miterlimit="10" stroke-linecap="round" stroke-linejoin="round"/>
<path d="M218.9 453.2C207 452.5 193.1 450.2 173.7 442C153.9 433.6 146.7 426.4 145.8 417.4C145 409.5 154 375.4 169 356.7" stroke="#2D1F04" stroke-width="2.7806" stroke-miterlimit="10" stroke-linecap="round" stroke-linejoin="round"/>
<path d="M203.8 409.9C198.4 414.4 190.1 416.1 190.1 418.7C190.1 421.3 208.6 433.4 209.2 433.5" stroke="#2D1F04" stroke-width="2.7806" stroke-miterlimit="10" stroke-linecap="round" stroke-linejoin="round"/>
<path d="M210.3 314.2C199.3 318.1 188 328.5 173.2 348.2C171.4 350.6 165.1 356.2 171.2 357.3" stroke="#2D1F04" stroke-width="2.7806" stroke-miterlimit="10" stroke-linecap="round" stroke-linejoin="round"/>
<path d="M378.2 407.2C378.4 414.5 378 422.1 376.9 429.9" stroke="#2D1F04" stroke-width="2.7806" stroke-miterlimit="10" stroke-linecap="round" stroke-linejoin="round"/>
<path d="M232.2 469.6C253.6 480.3 283 483 317 477.2C336 474 360.5 467.1 370.7 455.3" stroke="#2D1F04" stroke-width="2.7806" stroke-miterlimit="10" stroke-linecap="round" stroke-linejoin="round"/>
<path d="M324.7 485.8C299.3 498.5 254.1 491.3 235.9 473.4C205.8 443.8 204.1 419.7 203 396.4C199.7 394.5 193.2 370.6 204.2 349.7C206.7 345 209.2 340.3 209.4 339C209.5 337.9 207.4 336.1 208.3 334C209 332.6 212.4 327.6 211.9 330.4" stroke="#2D1F04" stroke-width="2.7806" stroke-miterlimit="10" stroke-linecap="round" stroke-linejoin="round"/>
<path d="M212 330.4C254.9 342.7 303.4 334.8 326 326.4" stroke="#2D1F04" stroke-width="2.7806" stroke-miterlimit="10" stroke-linecap="round" stroke-linejoin="round"/>
<path d="M284.2 344.2C272 348.5 224.7 348.1 209.9 338.4" stroke="#2D1F04" stroke-width="2.7806" stroke-miterlimit="10" stroke-linecap="round" stroke-linejoin="round"/>
<path d="M218.6 332.5C218 334.3 217.4 335.6 217.4 337.6" stroke="#2D1F04" stroke-width="2.7806" stroke-miterlimit="10" stroke-linecap="round" stroke-linejoin="round"/>
<path d="M229.6 334.7C228.8 336.3 228.6 338.5 228.6 340.3" stroke="#2D1F04" stroke-width="2.7806" stroke-miterlimit="10" stroke-linecap="round" stroke-linejoin="round"/>
<path d="M242 335.9V340.8" stroke="#2D1F04" stroke-width="2.7806" stroke-miterlimit="10" stroke-linecap="round" stroke-linejoin="round"/>
<path d="M251.9 337.6V338.4V338.9V339.6V340.1V340.6V341" stroke="#2D1F04" stroke-width="2.7806" stroke-miterlimit="10" stroke-linecap="round" stroke-linejoin="round"/>
<path d="M246.8 337.9V338.4V338.9V339.3V339.8V340.3" stroke="#2D1F04" stroke-width="2.7806" stroke-miterlimit="10" stroke-linecap="round" stroke-linejoin="round"/>
<path d="M283 336.4V336.9V337.4V338.4V338.9" stroke="#2D1F04" stroke-width="2.7806" stroke-miterlimit="10" stroke-linecap="round" stroke-linejoin="round"/>
<path d="M286.6 336.4V337.2V337.9V338.4" stroke="#2D1F04" stroke-width="2.7806" stroke-miterlimit="10" stroke-linecap="round" stroke-linejoin="round"/>
<path d="M297 520.3C305.1 516.2 314.9 513.3 324.6 512.1C328.8 511.6 333 511.4 337 511.6" stroke="#2D1F04" stroke-width="2.7806" stroke-miterlimit="10" stroke-linecap="round" stroke-linejoin="round"/>
<path d="M214.8 520.4C220 516.1 243.4 507.4 252.1 508.9" stroke="#2D1F04" stroke-width="2.7806" stroke-miterlimit="10" stroke-linecap="round" stroke-linejoin="round"/>
<path d="M325.5 504.7C334 508.1 342.2 514.5 346.2 522.6" stroke="#2D1F04" stroke-width="2.7806" stroke-miterlimit="10" stroke-linecap="round" stroke-linejoin="round"/>
<path d="M246.3 504.1C252 507.9 257.2 512.4 260.2 518.3" stroke="#2D1F04" stroke-width="2.7806" stroke-miterlimit="10" stroke-linecap="round" stroke-linejoin="round"/>
<path d="M356.8 308.5C357.3 262 340.5 216.6 294.3 195C286.8 191.4 278.9 189.4 271 186.5C269.5 186 266.4 185.2 265.3 183.5C264.1 181.7 264.9 179.1 264.8 179.1C258.1 180.2 261.1 186.2 261.1 186.2C261.1 186.2 259.8 186.1 259.1 186C256.3 185.4 253.4 182.9 253.6 178.7C253.9 173.1 259.9 170.8 259 170.3C258.8 170.2 248.1 165.3 240 171.7C235.5 175.2 233.5 181.3 235 187.7" stroke="#2D1F04" stroke-width="2.7806" stroke-miterlimit="10" stroke-linecap="round" stroke-linejoin="round"/>
<path d="M212.6 208.2C210.1 209.4 204.4 206.3 205.7 202.5C205.8 202.1 207 203.6 209.8 203.5C212.6 203.5 214.3 202.3 214.4 202.1C214.6 201.6 213.4 201.5 212.9 201.4C205.4 200.6 201.5 191.5 209.9 186.3C210.2 186.1 211.1 189.6 213.3 191.2C216.2 193.3 220.6 193.5 220.6 192.4C214.2 188.2 217.6 177.7 226.5 176.1C226.7 176.1 224.6 184.9 234.6 186.7" stroke="#2D1F04" stroke-width="2.7806" stroke-miterlimit="10" stroke-linecap="round" stroke-linejoin="round"/>
<path d="M214.1 207.5C209.1 210.9 205.1 215.2 201.8 220.7C187.2 245.4 194.9 274.2 206.7 297.7C207.7 299.8 209.2 302.2 209.5 304.5C209.7 305.7 209 307.6 209.5 308.7C209.7 309.1 210.8 307.6 210.8 308C211.1 310.2 210.8 312.7 210.6 314.8C210.5 315.6 209.6 317.8 210.2 317.2C210.4 317 210.9 315.2 211.7 315.4C212.2 315.6 211.7 327.2 211.5 328.3" stroke="#2D1F04" stroke-width="2.7806" stroke-miterlimit="10" stroke-linecap="round" stroke-linejoin="round"/>
<path d="M366.1 452.5C363.9 452.5 361.7 452.1 359.2 450.7C340.9 440.7 332.4 449.5 332.6 446.8C332.9 444.1 335.5 436.2 342.2 432.4C352.4 426.5 360.5 431.9 367.5 432.4C363.9 437 360.4 443.9 366.1 452.5Z" fill="#2D1F04"/>
<path d="M367.2 390.1C368.7 396.1 371.1 401.4 376.3 405.8C381.7 410.3 392.7 414 392.4 416.7C391.9 420.3 385.3 427 372.1 431.9C364.1 434.9 354.7 425.3 342.3 432.4C335.7 436.2 333 444.2 332.7 446.8C332.4 449.5 341 440.6 359.3 450.7C366.9 454.9 371.7 450.6 384.3 449.7C393.8 449.1 404.6 447.3 414.2 443.2C434 434.8 440.8 422.8 441.7 413.7C442.5 405.8 428.8 373.6 411.4 352.7" stroke="#2D1F04" stroke-width="2.7806" stroke-miterlimit="10" stroke-linecap="round" stroke-linejoin="round"/>
<path d="M367.5 390.3C361.5 394.9 360 391.4 357.3 385.9" stroke="#2D1F04" stroke-width="2.7806" stroke-miterlimit="10" stroke-linecap="round" stroke-linejoin="round"/>
<path d="M336.1 377.1C339.7 377.9 345.3 379.9 349.6 381.9C353.4 383.6 356.1 385.4 357.5 386.3" stroke="#2D1F04" stroke-width="2.7806" stroke-miterlimit="10" stroke-linecap="round" stroke-linejoin="round"/>
<path d="M349.7 381.9C347.3 378.8 344.5 374.6 341.2 372.4" stroke="#2D1F04" stroke-width="2.7806" stroke-miterlimit="10" stroke-linecap="round" stroke-linejoin="round"/>
<path d="M322 341.8C324 330.7 330.4 314.7 347.5 310.1C367.7 304.7 382.5 311.6 407.2 344.4C409 346.8 415.3 352.4 409.2 353.5" stroke="#2D1F04" stroke-width="2.7806" stroke-miterlimit="10" stroke-linecap="round" stroke-linejoin="round"/>
<path d="M358.3 385.7C362.5 372.4 374.2 356.9 390.3 351.1" stroke="#2D1F04" stroke-width="2.7806" stroke-miterlimit="10" stroke-linecap="round" stroke-linejoin="round"/>
<path d="M362.8 377.2C364.1 378.4 365.3 379.1 366.9 379.9" stroke="#2D1F04" stroke-width="2.7806" stroke-miterlimit="10" stroke-linecap="round" stroke-linejoin="round"/>
<path d="M368.7 368.8L372.1 371.4" stroke="#2D1F04" stroke-width="2.7806" stroke-miterlimit="10" stroke-linecap="round" stroke-linejoin="round"/>
<path d="M375 361.7L377.6 364.9" stroke="#2D1F04" stroke-width="2.7806" stroke-miterlimit="10" stroke-linecap="round" stroke-linejoin="round"/>
<path d="M312 490.3C314.3 497 319 502.5 325.6 504.8C306.6 508.1 299.3 514.8 294.8 520.4C294.2 521.6 309 522 325.3 522.7C344.2 523.4 367.2 524.4 375 522.6C382.8 520.8 376.2 509.3 374.7 504.7C369.6 489.1 364.6 467.5 372.2 451.9" stroke="#2D1F04" stroke-width="2.7806" stroke-miterlimit="10" stroke-linecap="round" stroke-linejoin="round"/>
<path d="M237.3 474.9C235.1 482.4 240.6 498.5 246.3 504.1C232.8 503.7 216.7 516.1 215.6 517.1C210.9 521.4 212.4 521.7 215.6 521.7C218.8 521.7 244.9 520.4 258.6 520.1C264.2 520 271 519.7 276.6 519.5C280 519.4 295.9 519.3 293.4 513.5C290.5 506.7 287 497.3 286.6 492" stroke="#2D1F04" stroke-width="2.7806" stroke-miterlimit="10" stroke-linecap="round" stroke-linejoin="round"/>
<path d="M332.7 446.9C339.4 437.5 351.3 436 359.3 438.1" stroke="#2D1F04" stroke-width="2.7806" stroke-miterlimit="10" stroke-linecap="round" stroke-linejoin="round"/>
<path d="M367.5 432.4C363.9 437 360.4 443.9 366.1 452.5" stroke="#2D1F04" stroke-width="2.7806" stroke-miterlimit="10" stroke-linecap="round" stroke-linejoin="round"/>
<path d="M200.1 360.1C197 358 193.7 356.2 190.1 354.9" stroke="#2D1F04" stroke-width="2.7806" stroke-miterlimit="10" stroke-linecap="round" stroke-linejoin="round"/>
<path d="M192.6 355.9C191.4 356.9 190.5 358.7 190.1 360" stroke="#2D1F04" stroke-width="2.7806" stroke-miterlimit="10" stroke-linecap="round" stroke-linejoin="round"/>
<path d="M198 249.1C199.1 236.9 203.1 231.7 210.3 227.8C220.1 222.6 225.2 220.4 235.8 219.4C239.6 219.1 243.9 218.9 244.5 215.1C244.8 213.4 244.2 211.6 242.5 209.3C245.8 209.3 249.5 210.6 252.2 212.8C257.7 217.2 266 220 272.5 219.8C295.3 219.1 309.8 221.7 320.8 241.7C323.3 246.2 327.1 256.5 324.5 267.9C320.7 284.6 318.8 291.6 300.6 304.2C279 319.1 234.4 326.5 212.1 298.3C201.8 285.3 196.4 267.2 198 249.1Z" fill="#2D1F04"/>
<path d="M241.6 257.5C234.1 253.7 228 272.7 228.6 278.2C230.7 296.9 258 295.9 270.7 289.6C289 280.5 266.6 251 253.5 256.2" fill="#2D1F04"/>
<path d="M198 249.1C196.5 263.4 200.4 279.5 203.5 281.8C205.9 283.6 220.9 280 228.5 264.5C235.5 250.2 234.5 239.3 232.1 237C230.8 235.7 214 230.5 204.9 231.6C201.5 232 199.4 236.3 198 249.1Z" fill="#2D1F04"/>
<path d="M269 236.9C267.5 274.2 314.3 293.1 319.5 285.5C322.9 280.6 329.3 260.2 322 244.1C318.2 235.7 310.3 226.3 306.2 226.3C299 226.2 290.1 230.9 282.4 232.6C276 234 269.3 234.3 269 236.9Z" fill="#2D1F04"/>
<path d="M237.1 257.5C237 254.7 242.5 252.1 249.5 251.8C256.5 251.5 262.3 253.5 262.4 256.3C262.5 259.1 257 261.7 250 262C243 262.3 237.2 260.3 237.1 257.5Z" fill="#2D1F04"/>
<path d="M249.7 258.8C249.7 263.9 250.2 268.8 250.3 272.4C250.5 276.1 261.3 281.4 268.2 271.2" stroke="#2D1F04" stroke-width="2.7806" stroke-miterlimit="10" stroke-linecap="round" stroke-linejoin="round"/>
<path d="M319.7 236.9C313.8 233.6 310.1 228.7 302.2 228.6C291.6 228.4 275.9 236.5 264.9 238.5" stroke="#2D1F04" stroke-width="8.0658" stroke-miterlimit="10" stroke-linecap="round" stroke-linejoin="round"/>
<path d="M191.7 236.9C198.3 232.6 203 231 207.7 231C216.1 231 228.6 236.6 238.9 238.4" stroke="#2D1F04" stroke-width="8.0658" stroke-miterlimit="10" stroke-linecap="round" stroke-linejoin="round"/>
<path d="M215.2 447.201C214.5 438.901 219.9 436.801 219.9 435.001C219.9 433.501 211.3 428.701 207.8 430.101C204.1 431.501 204 438.601 206 440.701C205.7 443.101 207.6 448.701 211.2 451.001C214.8 453.301 216.7 451.801 215.2 447.201Z" fill="#2D1F04"/>
<path d="M215.2 447.2C214.1 439.1 219.9 436.8 219.9 435C219.9 433.5 210.2 429.2 207.8 430.1C204.1 431.5 204 438.6 206 440.7C205.7 443.1 207.6 448.7 211.2 451C214.8 453.3 216.6 449.6 215.2 447.2Z" stroke="#2D1F04" stroke-width="2.7806" stroke-miterlimit="10" stroke-linecap="round" stroke-linejoin="round"/>
<path d="M205.9 440.6C208.5 436.3 214.2 435 219.9 435" stroke="#2D1F04" stroke-width="2.7806" stroke-miterlimit="10" stroke-linecap="round" stroke-linejoin="round"/>
<path d="M250.4 272.4C249.8 275.5 245.9 278.9 240.7 276.9" stroke="#2D1F04" stroke-width="2.7806" stroke-miterlimit="10" stroke-linecap="round" stroke-linejoin="round"/>
<path d="M282.6 251.101C283.5 256.501 289.9 253.801 296.2 254.001C303.5 254.301 310.4 257.401 310.1 249.101C309.9 242.901 303.5 240.401 294.2 240.101C284.9 239.801 281.5 244.301 282.6 251.101Z" fill="#2D1F04"/>
<path d="M282.5 249.801C285.3 244.201 290.9 243.301 298 244.601C305.4 246.001 308.8 249.001 309.8 252.701C310.1 251.601 310.3 250.401 310.2 249.101C310 242.901 303.6 240.401 294.3 240.101C285.5 239.901 282 243.801 282.5 249.801Z" fill="#2D1F04"/>
<path d="M302.2 249.001C302.2 245.601 299.5 242.901 296.2 242.801C292.8 242.801 290.1 245.501 290 248.801C290 252.201 292.7 254.901 296 255.001C299.4 255.001 302.1 252.301 302.2 249.001Z" fill="#2D1F04"/>
<path d="M282.6 251.101C283.5 256.401 289.8 254.101 296.2 254.001C303.6 254.001 310.4 257.501 310.1 249.101C309.9 242.901 303.5 240.401 294.2 240.101C284.9 239.801 281.5 244.301 282.6 251.101Z" stroke="#2D1F04" stroke-width="2.62" stroke-miterlimit="10" stroke-linecap="round" stroke-linejoin="round"/>
<path d="M292 247.501C293.491 247.501 294.7 246.292 294.7 244.801C294.7 243.309 293.491 242.101 292 242.101C290.509 242.101 289.3 243.309 289.3 244.801C289.3 246.292 290.509 247.501 292 247.501Z" fill="#2D1F04"/>
<path d="M292.7 250.701C293.252 250.701 293.7 250.253 293.7 249.701C293.7 249.148 293.252 248.701 292.7 248.701C292.148 248.701 291.7 249.148 291.7 249.701C291.7 250.253 292.148 250.701 292.7 250.701Z" fill="#2D1F04"/>
<path d="M227.1 251.1C226.1 256.2 220.2 253.5 214.2 253.5C207.4 253.6 200.7 256.4 201.2 248.5C201.6 242.7 207.6 240.5 216.4 240.4C225.2 240.4 228.3 244.7 227.1 251.1Z" fill="#2D1F04"/>
<path d="M227.3 249.9C224.8 244.5 219.5 243.6 212.9 244.6C205.9 245.7 202.6 248.5 201.6 251.9C201.3 250.9 201.2 249.7 201.3 248.5C201.7 242.7 207.7 240.5 216.5 240.4C224.6 240.4 227.9 244.2 227.3 249.9Z" fill="#2D1F04"/>
<path d="M208.7 248.6C208.7 245.4 211.4 242.9 214.5 242.9C217.7 242.9 220.2 245.6 220.2 248.7C220.2 251.9 217.5 254.4 214.4 254.4C211.2 254.4 208.7 251.8 208.7 248.6Z" fill="#2D1F04"/>
<path d="M227.1 251.1C226.2 256.1 220.2 253.7 214.2 253.5C207.3 253.3 200.7 256.5 201.2 248.5C201.6 242.7 207.6 240.5 216.4 240.4C225.2 240.4 228.3 244.7 227.1 251.1Z" stroke="#2D1F04" stroke-width="2.62" stroke-miterlimit="10" stroke-linecap="round" stroke-linejoin="round"/>
<path d="M210.2 248.601C211.581 248.601 212.7 247.481 212.7 246.101C212.7 244.72 211.581 243.601 210.2 243.601C208.819 243.601 207.7 244.72 207.7 246.101C207.7 247.481 208.819 248.601 210.2 248.601Z" fill="#2D1F04"/>
<path d="M211.2 251.4C211.752 251.4 212.2 250.953 212.2 250.4C212.2 249.848 211.752 249.4 211.2 249.4C210.648 249.4 210.2 249.848 210.2 250.4C210.2 250.953 210.648 251.4 211.2 251.4Z" fill="#2D1F04"/>
<path d="M357.7 223.9C355.4 218.3 343.7 216.5 319.6 219.8C295.5 223.1 276.2 227.7 234.8 232.5C193.4 237.3 173.9 231.3 159.6 223.3C170.5 220.9 186.6 214.4 197.1 209.3C210 206.8 218.7 204.9 242.6 204.4C266.4 203.9 303 205.4 324.5 205.8C332.2 207.3 338.6 209 344.5 210.9C351.3 213.1 361.1 217.4 357.7 223.9Z" fill="#2D1F04"/>
<path d="M324.9 205.9C324.8 205.9 324.7 205.9 324.6 205.9C303.2 205.5 266.5 204 242.7 204.5C218.8 205 210.1 207 197.2 209.4C198.1 204.7 199.1 199.6 200.1 194.8C200.7 194.4 201.3 194.1 202 193.7C209.6 189.4 224.9 183.4 239.5 182C264.1 179.7 290.8 188.1 320.6 196.3C321 196.4 321.5 196.5 321.9 196.7C322.9 200 323.8 202.9 324.9 205.9Z" fill="#2D1F04"/>
<path d="M320.5 196.3C290.8 188.1 264 179.7 239.4 182C224.8 183.4 209.5 189.4 201.9 193.7C202.7 185 205.9 179.8 207.3 174.5C208.8 169.2 209.3 164.2 210.4 162C211.6 159.8 218.9 154.7 226.9 149.7C231.5 146.9 234.8 145.3 237.7 145.1C239.9 144.9 241.7 145.4 244 146C248.8 147.1 253.8 146.8 258.8 145.6C263.8 144.3 265.9 145.6 274.3 148.3C282.7 151 292.7 154 301.3 157.4C309.9 160.7 311 163.8 313.3 171.9C315.9 180 318.6 189.6 320.5 196.3Z" fill="#2D1F04"/>
<path opacity="0.23" d="M357.7 223.9C355.6 218.7 345.5 216.8 325.1 219.1C320.1 214.2 315.8 211.7 312.7 210.3C309 208.6 305.4 208.6 302.9 208.8C300.4 209 298.8 209 298.6 207.6C298.4 206.2 285.3 204.9 279.2 204.7C295.8 205.1 312.6 205.6 324.7 205.9C332.4 207.4 338.8 209.1 344.7 211C351.3 213.1 361.1 217.4 357.7 223.9Z" fill="#2D1F04"/>
<path opacity="0.23" d="M252.4 230.3C247 231 241.1 231.8 234.8 232.5C193.4 237.3 173.9 231.3 159.6 223.3C170.5 220.9 186.6 214.4 197.1 209.4C187.2 215.4 176.3 221.4 177.4 224.8C178.2 226.9 192.7 235.5 252.4 230.3Z" fill="#2D1F04"/>
<path opacity="0.23" d="M320.5 196.3C314.7 194.7 308.9 193.1 303.3 191.5C302.3 179.7 297.7 164 294.7 161.4C290.9 158.2 275.9 153.2 269.7 151.2C263.6 149.2 259.6 148.1 255.7 151.2C252.4 153.9 247 155.7 244.2 152.1C240.8 147.7 234.8 149.6 231 151.3C227.2 153.1 215.2 161.3 213.6 163.3C212 165.3 211.7 172.7 210.6 176C209.5 179.2 205.1 180.5 204 183.5C205.1 180.1 206.4 177.3 207.2 174.4C208.7 169.1 209.2 164.1 210.3 161.9C211.5 159.7 218.8 154.6 226.8 149.6C231.4 146.8 234.7 145.2 237.6 145C239.8 144.8 241.6 145.3 243.9 145.9C248.7 147 253.7 146.7 258.7 145.5C263.7 144.3 265.8 145.5 274.2 148.2C282.6 150.9 292.6 154 301.2 157.3C309.8 160.6 310.9 163.7 313.2 171.8C315.9 180 318.6 189.6 320.5 196.3Z" fill="#2D1F04"/>
<path opacity="0.23" d="M324.9 205.9C324.8 205.9 324.7 205.9 324.6 205.9C303.2 205.5 266.5 204 242.7 204.5C218.8 205 210.1 207 197.2 209.4C197.4 208.5 197.6 207.6 197.8 206.6C227.7 198.1 255.7 200.9 271.9 201.1C289.2 201.3 295.1 202.4 295.8 201.1C296.5 199.8 295.7 192.5 294.7 189.3C303.1 191.5 311.7 194 320.5 196.4C320.9 196.5 321.4 196.6 321.8 196.8C323 200 323.8 202.9 324.9 205.9Z" fill="#2D1F04"/>
<path d="M194.1 244C171.4 240.1 163.4 228.6 159.6 223.4C173.9 231.4 193.3 237.4 234.8 232.6C276.3 227.8 295.4 223.2 319.6 219.9C343.7 216.6 355.4 218.4 357.7 224C355 228.8 349 232.9 339.7 236.2" stroke="#2D1F04" stroke-width="2.7806" stroke-miterlimit="10" stroke-linecap="round" stroke-linejoin="round"/>
<path d="M357.7 223.9C355.4 218.3 343.7 216.5 319.6 219.8C295.5 223.1 276.2 227.7 234.8 232.5C193.4 237.3 173.9 231.3 159.6 223.3C170.5 220.9 186.6 214.4 197.1 209.3C210 206.8 218.7 204.9 242.6 204.4C266.4 203.9 303 205.4 324.5 205.8C332.2 207.3 338.6 209 344.5 210.9C351.3 213.1 361.1 217.4 357.7 223.9Z" stroke="#2D1F04" stroke-width="2.7806" stroke-miterlimit="10" stroke-linecap="round" stroke-linejoin="round"/>
<path d="M324.9 205.9C324.8 205.9 324.7 205.9 324.6 205.9C303.2 205.5 266.5 204 242.7 204.5C218.8 205 210.1 207 197.2 209.4C198.1 204.7 199.1 199.6 200.1 194.8C200.7 194.4 201.3 194.1 202 193.7C209.6 189.4 224.9 183.4 239.5 182C264.1 179.7 290.8 188.1 320.6 196.3C321 196.4 321.5 196.5 321.9 196.7C322.9 200 323.8 202.9 324.9 205.9Z" stroke="#2D1F04" stroke-width="2.7806" stroke-miterlimit="10" stroke-linecap="round" stroke-linejoin="round"/>
<path d="M320.5 196.3C290.8 188.1 264 179.7 239.4 182C224.8 183.4 209.5 189.4 201.9 193.7C202.7 185 205.9 179.8 207.3 174.5C208.8 169.2 209.3 164.2 210.4 162C211.6 159.8 218.9 154.7 226.9 149.7C231.5 146.9 234.8 145.3 237.7 145.1C239.9 144.9 241.7 145.4 244 146C248.8 147.1 253.8 146.8 258.8 145.6C263.8 144.3 265.9 145.6 274.3 148.3C282.7 151 292.7 154 301.3 157.4C309.9 160.7 311 163.8 313.3 171.9C315.9 180 318.6 189.6 320.5 196.3Z" stroke="#2D1F04" stroke-width="2.7806" stroke-miterlimit="10" stroke-linecap="round" stroke-linejoin="round"/>
<path d="M297.6 188.4C299.3 192.6 300.7 199.7 300.7 206.2C305.5 206.4 315.3 206.7 319 206.8C319.1 203 318 196.9 316.2 193.6C312.8 192.5 305 190.3 297.6 188.4Z" fill="#2D1F04"/>
<path opacity="0.23" d="M319 206.7C315.3 206.6 305.5 206.3 300.7 206.1C300.7 203.8 300.5 201.4 300.2 199.1C300.4 200.6 302 201.7 305.1 202.1C308.1 202.4 312.9 202.9 313.7 201.6C314.5 200.3 313.4 196.6 312.8 195.3C312.2 194 311 192.2 309 191.5C312.1 192.4 314.7 193.1 316.3 193.6C318 196.8 319.1 202.9 319 206.7Z" fill="#2D1F04"/>
<path d="M297.6 188.4C299.3 192.6 300.7 199.7 300.7 206.2C305.5 206.4 315.3 206.7 319 206.8C319.1 203 318 196.9 316.2 193.6C312.8 192.5 305 190.3 297.6 188.4Z" stroke="#2D1F04" stroke-width="2.7806" stroke-miterlimit="10" stroke-linecap="round" stroke-linejoin="round"/>
<path d="M135.7 465.3C137.8 465.2 139.3 466 140.3 467.7L156 505L171.7 467.7C172.7 466.1 174.2 465.3 176.3 465.3H187.9C190.7 465.5 191.9 468.1 191.4 473L190.2 482.7L186.7 484.3V492.9C187 495.9 188.5 498.5 191 500.4C188.4 502.5 187 505.1 186.7 508.1V516.5L190.1 518.1L191.5 527.9C191.9 532.8 190.7 535.4 188 535.6H173.3C170.5 535.4 169.3 532.8 169.8 527.9L171.1 518.1L174.5 516.5V488.1L162.4 516.5L165.7 518.1L167.2 527.9C167.5 532.8 166.3 535.4 163.7 535.6H148.6C145.9 535.4 144.7 532.8 145.1 527.9L146.6 518.1L149.9 516.5L137.8 488.1V516.5L141.2 518.1L142.5 527.9C142.9 532.8 141.7 535.4 139 535.6H124C121.3 535.4 120.1 532.8 120.5 527.9L121.9 518.1L125.3 516.5V508.1C125 505.1 123.5 502.5 121 500.4C123.6 498.4 125 495.9 125.3 492.9V484.3L121.8 482.7L120.6 473C120.2 468.1 121.4 465.5 124.1 465.3H135.7Z" fill="#2D1F04"/>
<path d="M201.9 535.6C199.2 535.4 198 532.8 198.4 527.9L199.8 518.1L203.2 516.5V508.1C202.9 505.1 201.4 502.5 198.9 500.4C201.5 498.4 202.9 495.9 203.2 492.9V484.3L199.7 482.7L198.5 473C198.1 468.1 199.3 465.5 202 465.3H227.1C228.8 465.4 230 466.7 230.7 469.4C230.8 466.9 231.9 465.5 234 465.3H241.1C243.9 465.5 245.1 468.1 244.6 473L242.5 491.3C242.3 492.7 241.8 493.5 241.1 493.6H232.2C231.4 493.5 231 492.7 230.8 491.3C230.7 489.8 230.5 488.1 229.9 486.2C229.4 484.2 228.4 483.1 226.9 482.7H215.5V495.3H226.9C228.2 495.5 228.9 496.1 229 496.9V503.9C228.9 504.7 228.2 505.2 226.9 505.5H215.5V518.3H226.9C228.3 517.9 229.3 516.8 229.9 514.8C230.4 512.8 230.7 511.1 230.8 509.7C231 508.3 231.5 507.5 232.2 507.4H241.1C241.9 507.5 242.3 508.3 242.5 509.7L244.6 528C245 532.9 243.8 535.5 241.1 535.7H234C231.9 535.5 230.8 534.1 230.7 531.6C230 534.3 228.8 535.7 227.1 535.7H201.9V535.6Z" fill="#2D1F04"/>
<path d="M255.3 535.6C252.5 535.4 251.3 532.8 251.7 527.9L253.1 518.1L256.5 516.7V508.1C256.2 505.1 254.7 502.5 252.2 500.4C254.8 498.4 256.2 495.9 256.5 492.9V484.3L253.1 482.7L251.8 473C251.4 468.1 252.6 465.5 255.3 465.3H266.8V465.2V465.3C268.2 465.5 269.3 466.1 270 467.2L280.9 501.1V484.2L277.5 482.8L276.2 473C275.8 468.1 277 465.5 279.7 465.3H294.2C297 465.5 298.2 468.1 297.8 473L296.4 482.8L293 484.2V492.8C293.3 495.8 294.8 498.4 297.3 500.5C294.7 502.5 293.3 505 293 508V516.6L296.4 518.2L297.7 527.9C298.1 532.8 296.9 535.4 294.2 535.6H282.7C281.3 535.4 280.2 534.8 279.5 533.7L268.6 499.8V516.7L272 518.1L273.3 527.9C273.7 532.8 272.5 535.4 269.8 535.6H255.3Z" fill="#2D1F04"/>
<path d="M317 535.6C314.3 535.4 313.1 532.8 313.5 527.9L314.9 518.1L318.3 516.5V508.1C318 505.1 316.5 502.5 314 500.4C316.6 498.4 318 495.9 318.3 492.9V483C317.4 483.6 316.7 484.7 316.2 486.5C315.7 488.2 315.4 489.8 315.4 491.3C315.2 492.7 314.7 493.5 314 493.6H308.5C307.7 493.5 307.3 492.7 307.1 491.3L305 473C304.6 468.1 305.8 465.5 308.5 465.3H312.2C314.3 465.5 315.4 466.9 315.5 469.4C316.2 466.7 317.4 465.3 319.1 465.3H330C331.7 465.4 332.9 466.7 333.6 469.4C333.7 466.9 334.8 465.5 336.9 465.3H340.6C343.4 465.5 344.6 468.1 344.1 473L342 491.3C341.8 492.7 341.3 493.5 340.6 493.6H335.1C334.3 493.5 333.9 492.7 333.7 491.3C333.6 489.8 333.4 488.2 332.9 486.5C332.4 484.7 331.7 483.6 330.6 483V492.9C330.9 495.9 332.4 498.5 334.9 500.4C332.3 502.5 330.9 505.1 330.6 508.1V516.5L334 518.1L335.3 527.9C335.7 532.8 334.5 535.4 331.8 535.6H317Z" fill="#2D1F04"/>
<path d="M368.6 535.6C364.2 535.4 360.6 533.6 357.7 530.2C354.8 526.7 353.5 519.4 353.6 508.1C353.3 505.1 351.8 502.5 349.3 500.4C351.9 498.3 353.3 495.7 353.6 492.7C353.4 481.5 354.8 474.2 357.7 470.8C360.6 467.3 364.2 465.5 368.6 465.4H374.7C379.1 465.6 382.7 467.4 385.6 470.8C388.5 474.3 389.8 481.6 389.7 492.7C390 495.7 391.5 498.3 394 500.4C391.4 502.5 390 505.1 389.7 508.1C389.9 519.4 388.5 526.8 385.6 530.2C382.7 533.7 379.1 535.5 374.7 535.6H368.6ZM369.4 482.6C368 483 366.9 484.1 366.4 486.1C365.8 488.1 365.6 490.2 365.6 492.6C365.9 495.7 367.3 498.3 369.8 500.4C367.3 502.5 365.9 505.1 365.6 508.1C365.6 510.5 365.9 512.7 366.4 514.7C367 516.7 368 517.9 369.4 518.3H373.9C375.3 517.9 376.4 516.8 376.9 514.7C377.5 512.7 377.7 510.5 377.7 508.1C377.4 505.1 376 502.5 373.5 500.4C376 498.3 377.4 495.7 377.7 492.6C377.7 490.3 377.4 488.1 376.9 486.1C376.3 484.1 375.3 483 373.9 482.6H369.4Z" fill="#2D1F04"/>
<path d="M402.6 535.6C399.9 535.4 398.7 532.8 399.1 527.9L400.5 518.1L403.9 516.5V508.1C403.6 505.1 402.1 502.5 399.6 500.4C402.2 498.3 403.6 495.7 403.9 492.7V484.3L400.5 482.7L399.2 473C398.8 468.1 400 465.5 402.7 465.3H425.5C430.7 465.5 434.3 467.4 436.4 471.1C438.4 474.8 439.4 478.6 439.3 482.5V488.8C439.4 492.7 438.7 496 437.1 498.8C435.5 501.6 433.6 503.6 431.4 504.5C433.4 506.2 436.1 507 439.6 506.8C439 509.9 439.2 512.9 440.1 515.8L440.6 516.5L444 518.1L445.3 527.9C445.7 532.8 444.5 535.4 441.8 535.6H427C424.2 535.4 423 532.8 423.5 527.9L424.8 518.1L428.2 516.5L420.5 506H416V516.5L419.4 518.1L420.7 527.9C421.1 532.8 419.9 535.4 417.2 535.6H402.6ZM424.1 482.5H416.1V494.8H424.3C426.2 494.4 427.4 492.9 427.8 490.2C427.5 485.6 426.3 483 424.1 482.5Z" fill="#2D1F04"/>
<path d="M239.8 448L117.3 441.1L239.8 434.2C246.4 437.8 254.4 440 263.5 441.1C254.9 442 246.8 444.1 239.8 448Z" fill="#2D1F04"/>
<path d="M326.2 448L448.7 441.1L326.2 434.2C319.6 437.8 311.6 440 302.5 441.1C311.1 442 319.1 444.1 326.2 448Z" fill="#2D1F04"/>
<path d="M283 448C286.811 448 289.9 444.911 289.9 441.1C289.9 437.289 286.811 434.2 283 434.2C279.189 434.2 276.1 437.289 276.1 441.1C276.1 444.911 279.189 448 283 448Z" fill="#2D1F04"/>
<path d="M130.9 274.7L122.3 278.4L123.2 269.1L117 262.1L126.2 260L130.9 252L135.7 260L144.8 262.1L138.6 269.1L139.5 278.4L130.9 274.7Z" fill="#2D1F04"/>
<path d="M434.8 274.7L426.2 278.4L427.1 269.1L420.9 262.1L430.1 260L434.8 252L439.6 260L448.7 262.1L442.5 269.1L443.4 278.4L434.8 274.7Z" fill="#2D1F04"/>
<path opacity="0.1" d="M440.1 514.4C415.8 518.2 421.9 465.4 421.9 465.4C421.9 465.4 396.9 552.4 357.8 507.6C357.8 507.6 233.7 567.5 198.8 467.7C198.8 467.7 180.8 549.9 129.8 552C78.7001 554 78.9001 479 78.9001 479C78.9001 479 75.3 541.6 67.2 499.3C63.7 526 58.4 552.2 49.8 559.8L62.9001 579.3L140.4 570.6L325.3 557.5L350 554.5L476.5 586.3L491 574.7C491 574.7 481.4 465.5 484.1 396.5C474.9 430.5 457.8 511.6 440.1 514.4Z" fill="#2D1F04"/>
<path opacity="0.1" d="M477.7 19.1001L38.8 29.9001L38.5 42.9001C38.5 42.9001 57.2 62.4001 66.8 127.3C82.4 56.2001 94.3 192.2 94.3 192.2C94.3 192.2 122.1 128.6 184.6 106.5C327.8 56.0001 370.6 93.5001 370.6 93.5001C370.6 93.5001 373.2 61.3001 386.6 52.1001C400 42.9001 408.5 69.8001 408.5 69.8001C421.3 65.4001 417.1 90.5001 417.1 90.5001C417.1 90.5001 437.2 60.6001 468.9 88.1001C500.4 115.5 498.1 193.9 498.1 193.9C504.3 157.7 515.5 107.6 533.3 79.3001L477.7 19.1001Z" fill="#2D1F04"/>
<path d="M52.5999 573L43.4 559.4L46 556.5C54.7 546.8 56.7999 532.8 59.5 515.1C60.2999 509.8 61.0999 504.4 62.1999 498.7C66.5999 432.7 79.3999 212.8 62 128.4C60.7 123.3 59.3999 117.4 58.0999 111.1C53.3999 88.9001 47.5 61.2001 34.7 46.1001L44.2999 39.6001C58.7999 56.6001 64.9 85.6001 69.9 109C71.2 115.2 72.4999 121.1 73.6999 126L73.8 126.2C91.6 211.9 78.5999 433.7 74.1999 499.6L74.0999 500.2C73 505.8 72.2 511.3 71.4 516.6C68.8 533.7 64 554.6 55.4 566.1L62.9 567.4L52.5999 573Z" fill="#2D1F04"/>
<path d="M484.1 575C483.6 566.7 472.3 377.3 478.9 303.6C470.9 305.7 462.8 306.7 458.7 300.4C454.6 294.1 460 285.3 461.8 282.4C466.2 275.3 472.1 265.9 483.4 254.4C485 238 498 122.5 527 76.5L537.5 81.8C508.2 128.3 495.2 255.8 495.1 257.1L494.9 258.9L493.7 260.2C468.6 285.5 467.2 293.4 467.2 294.9C469.5 295.9 477.9 294.5 485 291.8L492.7 288.9L491.7 297.1C483.6 363.3 496 572.3 496.2 574.4L484.1 575Z" fill="#2D1F04"/>
<path d="M568.4 109.6C568.4 109.6 476.8 44.6 459.1 45.1C441.4 45.6 427.9 50.7001 427.9 50.7001L445.5 32.2L411.2 43.8C411.2 43.8 422.4 33.7 412.7 31.5C403 29.3 395.2 40.4001 395.2 40.4001C395.2 40.4001 128.2 19.5 82.2001 71.7C82.2001 71.7 83.3001 56.3 84.9001 42.1C84.9001 42.1 56.7001 71.8 32.2001 68.3C7.7001 64.8 2.1001 62 2.1001 62C2.1001 62 37.5001 7.00005 50.5001 3.30005C63.5001 -0.399952 305.1 14.8 384.6 17.2C464.1 19.6 496.7 -0.899954 525.4 23.1C554 47.1 568.4 109.6 568.4 109.6Z" fill="#2D1F04"/>
<path opacity="0.15" d="M561.3 85.5001C560.2 82.3001 559 78.9001 557.7 75.4001C555.5 69.6001 552.9 63.5001 549.9 57.5001C548.7 55.1001 547.5 52.7001 546.2 50.3001C540.4 39.7001 533.5 29.9001 525.5 23.2001C524.7 22.5001 523.9 22.0001 523.1 21.4001C522.3 20.8001 521.6 20.2001 520.8 19.7001C521.5 21.0001 546.3 66.3001 514.7 50.7001C482.7 35.0001 384.7 17.2001 301.1 22.5001C217.5 27.8001 106.8 19.6001 186.7 7.70007C117.2 4.20007 56.9 1.50007 50.5 3.30007C37.5 7.00007 2 61.9001 2 61.9001C2 61.9001 7.6 64.8001 32.1 68.2001C38.2 69.1001 44.6 67.9001 50.7 65.6001C53.7 64.5001 56.7 63.0001 59.6 61.5001C73.8 53.6001 84.9 42.0001 84.9 42.0001C84.2 48.2001 83.6 54.7001 83.1 60.0001C83 61.5001 82.9 62.9001 82.7 64.2001C82.6 65.5001 82.5 66.6001 82.4 67.6001C82.2 70.1001 82.1 71.6001 82.1 71.6001C86.4 66.7001 92.7 62.4001 100.4 58.8001C103 57.6001 105.8 56.4001 108.7 55.3001C110.2 54.7001 111.7 54.2001 113.2 53.7001C117.8 52.1001 122.8 50.7001 128 49.4001C129.7 49.0001 131.5 48.5001 133.3 48.1001C136.9 47.3001 140.6 46.5001 144.5 45.8001C150.3 44.7001 156.2 43.7001 162.4 42.9001C170.6 41.7001 179.2 40.8001 188 40.0001C192.4 39.6001 196.8 39.2001 201.3 38.9001C221.4 37.4001 242.3 36.7001 262.6 36.4001C269.4 36.3001 276 36.3001 282.6 36.3001C284.8 36.3001 287 36.3001 289.1 36.3001C293.4 36.3001 297.7 36.4001 301.9 36.4001C354.3 37.2001 395 40.4001 395 40.4001C395 40.4001 402.8 29.3001 412.5 31.5001C416.1 32.3001 416.8 34.3001 416.3 36.4001C415.9 37.8001 415 39.3001 414 40.5001C412.5 42.4001 411 43.8001 411 43.8001L445.3 32.2001L427.7 50.7001C427.7 50.7001 429.6 50.0001 432.9 49.1001C438.4 47.6001 447.9 45.5001 458.9 45.1001C462.2 45.0001 468.1 47.2001 475.6 50.8001C476.8 51.4001 478.1 52.1001 479.4 52.7001C482 54.1001 484.8 55.6001 487.7 57.2001C503.6 66.1001 522.7 78.5001 538.3 88.9001C541.1 90.8001 543.9 92.6001 546.4 94.4001C559.2 103.1 568.2 109.5 568.2 109.5C568.2 109.5 566 99.3001 561.3 85.5001Z" fill="#2D1F04"/>
<path d="M568.4 109.6C568.4 109.6 476.8 44.6 459.1 45.1C441.4 45.6 427.9 50.7001 427.9 50.7001L445.5 32.2L411.2 43.8C411.2 43.8 422.4 33.7 412.7 31.5C403 29.3 395.2 40.4001 395.2 40.4001C395.2 40.4001 128.2 19.5 82.2001 71.7C82.2001 71.7 83.3001 56.3 84.9001 42.1C84.9001 42.1 56.7001 71.8 32.2001 68.3C7.7001 64.8 2.1001 62 2.1001 62C2.1001 62 37.5001 7.00005 50.5001 3.30005C63.5001 -0.399952 305.1 14.8 384.6 17.2C464.1 19.6 496.7 -0.899954 525.4 23.1C554 47.1 568.4 109.6 568.4 109.6Z" stroke="#2D1F04" stroke-width="3.5" stroke-miterlimit="10" stroke-linecap="round" stroke-linejoin="round"/>
<path d="M529.6 578.6C529.6 578.6 497.9 608.5 486 600.5C474.1 592.5 349.8 566.6 313.9 568.1C224.1 571.8 127.3 594.9 88.4999 603.8C79.8999 605.8 70.2999 602.4 63.9999 595.2C50.9999 580.4 29.8999 554.2 24.8999 536.1C24.8999 536.1 48.3999 571.8 84.5999 569.1C120.8 566.4 332.5 540.1 332.5 540.1C332.5 540.1 327.2 565.3 349.3 541.5C349.3 541.5 347.8 558.7 382.1 555.8C416.4 552.9 455.5 555.1 469.2 563.6C486.3 574.3 506.3 565.6 506.3 565.6C506.3 565.6 504.9 575.7 492.6 580.9C492.5 581 504.5 584.1 529.6 578.6Z" fill="#2D1F04"/>
<path opacity="0.15" d="M88.3998 603.8C127.3 594.8 224 571.8 313.8 568.1C349.6 566.6 474 592.5 485.9 600.5C497.8 608.5 529.5 578.6 529.5 578.6C509.5 591.2 473.4 595.8 388.2 566.9C303 538 205.4 563.2 129.3 578.5C59.5998 592.5 35.7998 558.7 32.2998 552.9C40.9998 568.1 54.4998 584.6 63.8998 595.2C70.2998 602.4 79.7998 605.8 88.3998 603.8Z" fill="#2D1F04"/>
<path d="M529.6 578.6C529.6 578.6 497.9 608.5 486 600.5C474.1 592.5 349.8 566.6 313.9 568.1C224.1 571.8 127.3 594.9 88.4999 603.8C79.8999 605.8 70.2999 602.4 63.9999 595.2C50.9999 580.4 29.8999 554.2 24.8999 536.1C24.8999 536.1 48.3999 571.8 84.5999 569.1C120.8 566.4 332.5 540.1 332.5 540.1C332.5 540.1 327.2 565.3 349.3 541.5C349.3 541.5 347.8 558.7 382.1 555.8C416.4 552.9 455.5 555.1 469.2 563.6C486.3 574.3 506.3 565.6 506.3 565.6C506.3 565.6 504.9 575.7 492.6 580.9C492.5 581 504.5 584.1 529.6 578.6Z" stroke="#2D1F04" stroke-width="3.5" stroke-miterlimit="10" stroke-linecap="round" stroke-linejoin="round"/>
<path d="M46 556.5C54.7 546.8 56.8 532.8 59.5 515.1C60.3 509.8 61.1 504.4 62.2 498.7C66.6 432.7 79.4 212.8 62 128.4C60.7 123.3 59.4 117.4 58.1 111.1C55.1 97.1001 51.7 80.9001 46.4 67.1001" stroke="#2D1F04" stroke-width="3.5" stroke-miterlimit="10" stroke-linecap="round" stroke-linejoin="round"/>
<path d="M534.8 86.3999C507.4 136.2 495.2 255.9 495.1 257.1L494.9 258.9L493.7 260.2C468.6 285.5 467.2 293.4 467.2 294.9C469.5 295.9 477.9 294.5 485 291.8L492.7 288.9L491.7 297.1C484.4 357 493.9 533.8 495.8 568.5" stroke="#2D1F04" stroke-width="3.5" stroke-miterlimit="10" stroke-linecap="round" stroke-linejoin="round"/>
<path d="M265.636 333.636V332.545C265.758 320.97 266.97 311.758 269.273 304.909C271.576 298.061 274.848 292.515 279.091 288.273C283.333 284.03 288.424 280.121 294.364 276.545C297.939 274.364 301.152 271.788 304 268.818C306.848 265.788 309.091 262.303 310.727 258.364C312.424 254.424 313.273 250.061 313.273 245.273C313.273 239.333 311.879 234.182 309.091 229.818C306.303 225.455 302.576 222.091 297.909 219.727C293.242 217.364 288.061 216.182 282.364 216.182C277.394 216.182 272.606 217.212 268 219.273C263.394 221.333 259.545 224.576 256.455 229C253.364 233.424 251.576 239.212 251.091 246.364H228.182C228.667 236.061 231.333 227.242 236.182 219.909C241.091 212.576 247.545 206.97 255.545 203.091C263.606 199.212 272.545 197.273 282.364 197.273C293.03 197.273 302.303 199.394 310.182 203.636C318.121 207.879 324.242 213.697 328.545 221.091C332.909 228.485 335.091 236.909 335.091 246.364C335.091 253.03 334.061 259.061 332 264.455C330 269.848 327.091 274.667 323.273 278.909C319.515 283.152 314.97 286.909 309.636 290.182C304.303 293.515 300.03 297.03 296.818 300.727C293.606 304.364 291.273 308.697 289.818 313.727C288.364 318.758 287.576 325.03 287.455 332.545V333.636H265.636ZM277.273 387.455C272.788 387.455 268.939 385.848 265.727 382.636C262.515 379.424 260.909 375.576 260.909 371.091C260.909 366.606 262.515 362.758 265.727 359.545C268.939 356.333 272.788 354.727 277.273 354.727C281.758 354.727 285.606 356.333 288.818 359.545C292.03 362.758 293.636 366.606 293.636 371.091C293.636 374.061 292.879 376.788 291.364 379.273C289.909 381.758 287.939 383.758 285.455 385.273C283.03 386.727 280.303 387.455 277.273 387.455Z" fill="white"/>
</g>
<defs>
<clipPath id="clip0_228_5144">
<rect width="571" height="607" fill="white"/>
</clipPath>
</defs>
</svg>
