<svg width="278" height="297" viewBox="0 0 278 297" fill="none" xmlns="http://www.w3.org/2000/svg">
<g clip-path="url(#clip0_228_5317)">
<path d="M241.16 212.75C238.65 211.1 236.04 209.88 233.35 208.9C233.34 208.89 233.33 208.89 233.31 208.88C228.13 206.64 222.07 205.21 214.97 205.11C211.9 205.07 208.95 205.23 206.13 205.61C205.24 205.72 204.35 205.86 203.49 206.02C191.43 208.21 181.77 214.29 174.33 223.71C174.28 223.77 174.23 223.83 174.18 223.9C169.86 229.21 166.79 234.92 164.93 239.95C164.93 239.96 164.93 239.97 164.92 239.98C164.37 241.29 163.83 242.65 163.32 244.03C160.79 245.01 157.8 245.9 154.58 246.67C154.49 246.69 154.4 246.71 154.31 246.73C139.37 250.09 108.69 254.02 73.8302 250.08C73.3602 250.04 72.8902 249.98 72.4102 249.92C69.1902 249.53 65.9302 249.08 62.6002 248.56C62.4702 248.54 62.3502 248.53 62.2302 248.51C52.5502 246.94 42.6402 244.73 32.7502 241.7C32.7202 241.7 32.6902 241.69 32.6602 241.67C31.5702 241.26 30.8702 240.93 30.5102 240.71C30.5902 239.96 30.4302 239.7 30.1202 239.8C30.0402 239.55 29.9302 239.39 29.8002 239.31C30.2102 234.4 30.8702 218.07 30.2702 217.84C29.0802 218.13 28.0402 219.37 28.0002 220.56C25.0602 214.09 29.4602 209.56 29.1002 206.19C27.6202 205.49 26.1602 206.4 25.1202 208.65C21.1002 200.5 24.6802 193.27 23.2102 190.03C6.46022 153.08 -1.85978 109.66 17.5802 70.2999C22.1002 61.1199 28.0802 54.1898 35.4602 49.0198C29.6402 48.9698 20.1702 51.0898 11.1602 56.3098C13.9302 49.8498 21.6602 43.2798 35.8702 40.4498C33.3202 38.0898 26.1902 36.6198 18.3402 38.9098C27.5302 24.2498 44.9202 28.3798 44.9402 25.4698C44.9702 22.0098 30.4702 23.1298 29.3502 21.8898C41.8602 13.1498 56.2202 13.1698 66.3802 18.4898C61.0302 13.3698 61.1002 6.64984 64.9502 1.33984C72.9402 14.7598 103.39 17.8298 104.34 16.4598C99.1502 14.8898 99.1402 11.6498 100.9 9.91984C106.25 14.4498 122.99 17.8898 134.33 22.5098C217.89 56.6298 244.46 142.18 241.16 212.75Z" fill="#2D1F04"/>
<path d="M214.97 205.11C189.35 204.76 172.53 219 163.32 244.04C154.21 247.59 139.15 249.76 128.56 250.68C104.98 252.73 85.3001 252.06 62.5701 248.56C40.1301 245.1 30.2701 240.99 30.2401 240.47C29.9201 236.2 25.3501 243.83 24.7301 248.55C24.3001 251.87 26.6401 254.68 26.4001 255.22C22.3501 264.04 17.8901 272.19 14.9001 279.98C13.0001 284.93 11.1101 290.49 11.0601 295.78C17.6201 295.71 262.57 295.89 276.92 295.52C275.19 272.92 267.87 252.36 258.61 234.28C253.77 224.86 241.7 205.47 214.97 205.11Z" fill="#2D1F04"/>
<path d="M10.6201 110.1C16.2801 73.3996 48.1301 69.8296 75.7501 70.5496C90.4401 70.9296 83.8001 59.4796 84.3801 59.2796C84.9701 59.0796 94.6001 59.5796 122.33 72.4496C151.07 85.7896 174.56 72.6996 190.31 104.12C193.85 111.17 199.23 127.28 195.28 145.19C189.52 171.28 186.55 182.21 159.95 201.52C128.35 224.46 64.3501 235.26 32.3701 190.96C17.4001 170.22 6.51014 136.71 10.6201 110.1Z" fill="#2D1F04"/>
<path d="M85.5902 124.72C74.7102 118.74 64.6602 151.72 65.4502 160.25C68.1802 189.49 92.4902 193.41 111.03 183.69C137.79 169.66 115.41 114.89 96.3102 122.87" fill="#2D1F04"/>
<path d="M8.54006 106.45C5.56006 119.14 14.5101 161.29 18.9901 164.97C22.4401 167.81 45.7201 163.92 62.8201 142.7C79.0901 122.51 78.7901 101.63 75.4301 97.9397C73.5301 95.8597 30.0001 78.3697 26.0801 79.1697C20.5401 80.3097 12.6501 88.9997 8.54006 106.45Z" fill="#2D1F04"/>
<path d="M115.28 94.9797C112.96 166.68 179.9 184.24 187.65 172.42C192.62 164.85 212.05 108.42 171.32 82.9297C156.57 77.9397 137.64 93.7097 115.28 94.9797Z" fill="#2D1F04"/>
<path d="M44.9701 219.88L44.8201 229.63" stroke="#2D1F04" stroke-width="3.87" stroke-miterlimit="10" stroke-linecap="round" stroke-linejoin="round"/>
<path d="M53.8302 224.96L53.6802 234.7" stroke="#2D1F04" stroke-width="3.87" stroke-miterlimit="10" stroke-linecap="round" stroke-linejoin="round"/>
<path d="M241.16 212.75C244.46 142.18 217.89 56.6396 134.34 22.5196C123.01 17.8896 106.26 14.4596 100.91 9.92961C99.1402 11.6596 99.1502 14.8996 104.35 16.4696C103.4 17.8396 72.9402 14.7596 64.9602 1.34961C61.1102 6.63961 61.0402 13.3696 66.3802 18.4896C56.2302 13.1696 41.8702 13.1496 29.3502 21.8896C30.4702 23.1196 44.9702 22.0096 44.9402 25.4696C44.9102 28.3796 27.5202 24.2496 18.3402 38.9096C26.1802 36.6196 33.3202 38.0896 35.8602 40.4496C21.6402 43.2696 13.9202 49.8296 11.1502 56.2996C20.1702 51.0696 29.6302 48.9596 35.4602 49.0096C28.0802 54.1896 22.1002 61.1296 17.5702 70.2996C-1.8498 109.65 6.4602 153.07 23.2102 190.02C24.6802 193.27 21.1002 200.49 25.1302 208.64C26.1702 206.39 27.6302 205.47 29.1102 206.18C29.4702 209.56 25.0702 214.09 28.0102 220.56C28.0502 219.36 29.0802 218.13 30.2702 217.84C30.9502 218.09 30.0302 238.73 29.6702 240.55" stroke="#2D1F04" stroke-width="2.62" stroke-miterlimit="10" stroke-linecap="round" stroke-linejoin="round"/>
<path d="M30.4602 240.98C92.6402 260.86 156.25 247.82 163.32 244.03" stroke="#2D1F04" stroke-width="2.62" stroke-miterlimit="10" stroke-linecap="round" stroke-linejoin="round"/>
<path d="M30.4501 241.09C31.2001 236.7 26.0801 244.49 25.1101 246.66C23.6801 249.85 26.7301 252.79 26.5601 254.46C26.3701 256.43 14.1601 275.87 10.6301 294.9" stroke="#2D1F04" stroke-width="2.62" stroke-miterlimit="10" stroke-linecap="round" stroke-linejoin="round"/>
<path d="M160.48 271.75C167.15 278.52 173.15 285.43 176.85 295.13" stroke="#2D1F04" stroke-width="2.62" stroke-miterlimit="10" stroke-linecap="round" stroke-linejoin="round"/>
<path d="M174.02 288.87C173.29 282.74 172.71 274.93 170.23 269.41" stroke="#2D1F04" stroke-width="2.62" stroke-miterlimit="10" stroke-linecap="round" stroke-linejoin="round"/>
<path d="M163.24 245.83C166.47 229.58 186.86 197.12 227.19 207.06C236.4 209.33 244.72 212.99 251.99 223.66C267.56 246.5 272.96 275.11 276.33 294.81" stroke="#2D1F04" stroke-width="2.62" stroke-miterlimit="10" stroke-linecap="round" stroke-linejoin="round"/>
<path d="M77.6601 127.84C77.5101 123.42 82.0301 119.14 91.9501 118.7C101.87 118.26 110.03 121.49 110.19 125.92C110.34 130.34 102.43 134.28 92.5101 134.72C82.5901 135.16 77.8101 132.27 77.6601 127.84Z" fill="#2D1F04"/>
<path d="M135.34 263.66C117.57 270.14 48.7301 268.95 27.3201 253.48" stroke="#2D1F04" stroke-width="2.62" stroke-miterlimit="10" stroke-linecap="round" stroke-linejoin="round"/>
<path d="M40.14 244.5C39.25 247.27 38.32 249.4 38.29 252.46" stroke="#2D1F04" stroke-width="2.62" stroke-miterlimit="10" stroke-linecap="round" stroke-linejoin="round"/>
<path d="M56.01 248.07C54.8 250.61 54.54 253.97 54.51 256.79" stroke="#2D1F04" stroke-width="2.62" stroke-miterlimit="10" stroke-linecap="round" stroke-linejoin="round"/>
<path d="M75.0702 250.92L73.9402 257.74" stroke="#2D1F04" stroke-width="2.62" stroke-miterlimit="10" stroke-linecap="round" stroke-linejoin="round"/>
<path d="M88.4802 252.95L88.4702 254.09V254.85L88.4502 255.99V256.75L88.4402 257.51L88.4302 258.27" stroke="#2D1F04" stroke-width="2.62" stroke-miterlimit="10" stroke-linecap="round" stroke-linejoin="round"/>
<path d="M81.06 253.26L81.05 254.02L81.04 254.78V255.54L81.03 256.29L81.02 257.05" stroke="#2D1F04" stroke-width="2.62" stroke-miterlimit="10" stroke-linecap="round" stroke-linejoin="round"/>
<path d="M133.75 251.5L133.74 252.26L133.73 253.02L133.72 254.54L133.71 255.3" stroke="#2D1F04" stroke-width="2.62" stroke-miterlimit="10" stroke-linecap="round" stroke-linejoin="round"/>
<path d="M139.05 251.56L139.04 252.69L139.03 253.83L139.02 254.59" stroke="#2D1F04" stroke-width="2.62" stroke-miterlimit="10" stroke-linecap="round" stroke-linejoin="round"/>
<path d="M145.76 118.08C145.28 118.02 144.81 117.96 144.33 117.9L145.76 118.08Z" fill="#2D1F04"/>
<path d="M155.68 86.6497C173.26 86.8197 187.34 95.0296 187.16 112.61C186.99 130.19 172.59 144.3 155.01 144.12H154.65C137.07 143.95 122.96 129.55 123.14 111.97C123.32 94.3997 138.1 86.4797 155.68 86.6497Z" fill="#2D1F04"/>
<path d="M123.63 117.86C129.38 128.35 176.76 127.55 186.88 108.17C188.48 129.57 174.29 144.31 155.01 144.12C135.74 143.94 126.84 130.57 123.63 117.86Z" fill="#2D1F04"/>
<path d="M155.68 86.6497C173.26 86.8197 187.34 95.0296 187.16 112.61C186.99 130.19 172.59 144.3 155.01 144.12H154.65C137.07 143.95 122.96 129.55 123.14 111.97C123.32 94.3997 138.1 86.4797 155.68 86.6497Z" stroke="#2D1F04" stroke-width="2.79" stroke-miterlimit="10" stroke-linecap="round" stroke-linejoin="round"/>
<path d="M158.05 106.92C158.076 104.358 156.538 102.265 154.616 102.246C152.695 102.227 151.116 104.289 151.09 106.851C151.065 109.414 152.602 111.507 154.524 111.526C156.446 111.545 158.025 109.483 158.05 106.92Z" fill="#2D1F04"/>
<path d="M38.33 86.5496C54.52 86.7096 67.73 94.7896 67.55 112.37C67.38 129.95 54.11 144.07 37.92 143.91H37.59C21.4 143.75 8.42003 129.37 8.59003 111.79C8.69003 102.12 12.78 95.3996 19.14 91.3396C24.34 88.0196 31.05 86.4796 38.33 86.5496Z" fill="#2D1F04"/>
<path d="M9.53003 120.12C23.7 138.65 51.96 138.52 65.95 122.4C61.91 134.2 51.55 144.04 37.92 143.91C24.29 143.77 13.38 135.09 9.53003 120.12Z" fill="#2D1F04"/>
<path d="M38.33 86.5498C54.52 86.7098 67.73 94.7898 67.55 112.37C67.38 129.95 54.11 144.07 37.92 143.91H37.59C21.4 143.75 8.42003 129.37 8.59003 111.79C8.77003 94.1998 22.14 86.3898 38.33 86.5498Z" stroke="#2D1F04" stroke-width="2.79" stroke-miterlimit="10" stroke-linecap="round" stroke-linejoin="round"/>
<path d="M40.7484 106.701C40.7738 104.138 39.3618 102.047 37.5945 102.029C35.8272 102.012 34.3738 104.075 34.3484 106.637C34.3229 109.2 35.7349 111.292 37.5022 111.309C39.2696 111.327 40.7229 109.264 40.7484 106.701Z" fill="#2D1F04"/>
<path d="M92.9901 156.62C87.2501 156.56 86.2601 153.11 82.4401 153.07C78.6101 153.03 70.6601 157.67 70.6301 160.73C70.6001 163.79 72.0401 172.99 92.8301 173.2C113.62 173.41 116.52 164.12 116.54 161.7C116.56 159.28 111.64 154 107.05 153.95C102.45 153.91 98.8501 156.68 92.9901 156.62Z" fill="#2D1F04"/>
<path d="M90.68 130.44C88.92 135.87 89.1 150.85 94.38 160.27" stroke="#2D1F04" stroke-width="2.62" stroke-miterlimit="10" stroke-linecap="round" stroke-linejoin="round"/>
<path d="M9.53003 120.12C24.2 139.73 53.72 137.05 65.95 122.4" stroke="#2D1F04" stroke-width="2.79" stroke-miterlimit="10" stroke-linecap="round" stroke-linejoin="round"/>
<path d="M123.63 117.86C129.38 128.35 176.88 127.55 186.88 108.17" stroke="#2D1F04" stroke-width="2.79" stroke-miterlimit="10" stroke-linecap="round" stroke-linejoin="round"/>
<path d="M107 95.6299C118.98 105.81 134.41 90.1599 159.54 86.7199C175.79 84.4999 184.3 88.9999 184.3 88.9999" stroke="#2D1F04" stroke-width="10.65" stroke-miterlimit="10" stroke-linecap="round" stroke-linejoin="round"/>
<path d="M87.3401 94.2396C71.4801 105.81 50.1801 86.8996 26.5501 83.8696C17.6001 82.7196 5.62012 88.4796 5.62012 88.4796" stroke="#2D1F04" stroke-width="10.65" stroke-miterlimit="10" stroke-linecap="round" stroke-linejoin="round"/>
<path opacity="0.23" d="M241.16 212.75C238.65 211.1 236.04 209.88 233.35 208.9C233.34 208.89 233.33 208.89 233.31 208.88C228.13 206.64 222.07 205.21 214.97 205.11C213.81 205.1 212.67 205.11 211.54 205.17C212.21 181.16 210.2 155.28 202.58 125.14C190.46 77.2498 160.07 52.6098 119.32 41.5298C112.86 39.7698 100.21 38.1098 100.41 34.3698C97.1802 34.3398 97.0302 37.9398 95.6002 37.8798C93.7502 37.7998 89.2202 34.1898 94.3902 27.9898C87.6702 29.8398 87.1702 37.8398 85.7302 37.9098C84.2902 37.9798 81.1602 36.1598 81.5702 33.1598C78.0002 34.3398 79.1102 38.4198 77.9602 38.5498C76.5602 38.7098 75.6902 34.3398 70.7402 31.7798C72.4902 35.7998 71.7302 39.4598 70.7002 39.6398C69.6002 39.8398 67.8902 35.7898 63.6702 36.1298C65.1002 37.6298 63.5902 41.1598 61.7102 41.6598C47.1202 45.5598 33.9602 52.1998 23.5802 60.5198C27.0102 55.9598 30.9702 52.1598 35.4602 49.0198C29.6402 48.9698 20.1702 51.0898 11.1602 56.3098C13.9302 49.8498 21.6602 43.2798 35.8702 40.4498C33.3202 38.0898 26.1902 36.6198 18.3402 38.9098C27.5302 24.2498 44.9202 28.3798 44.9402 25.4698C44.9702 22.0098 30.4702 23.1298 29.3502 21.8898C41.8602 13.1498 56.2202 13.1698 66.3802 18.4898C61.0302 13.3698 61.1002 6.64984 64.9502 1.33984C72.9402 14.7598 103.39 17.8298 104.34 16.4598C99.1501 14.8898 99.1402 11.6498 100.9 9.91984C106.25 14.4498 122.99 17.8898 134.33 22.5098C217.89 56.6298 244.46 142.18 241.16 212.75Z" fill="#2D1F04"/>
<path d="M208.98 232.61C213.81 231.37 218.49 230.39 223.24 229.88C227.14 229.47 229.39 231.77 230.45 234.08C231.92 237.28 231.19 239.63 228.41 241.12C228.26 241.2 228.1 241.26 227.79 241.4C232.4 242.97 234.44 247.05 237.86 250.39C235.1 250.46 232.64 250.61 230.05 250.85C228.09 248.79 226.08 246.71 224.06 244.7C222.96 243.6 221.76 242.84 220.02 243.54C220.96 246.22 221.92 248.96 222.91 251.79C220.56 252.16 218.47 252.55 216.26 253.02C213.85 246.2 211.46 239.52 208.98 232.61ZM217.18 235.26C217.67 236.65 218.13 237.93 218.67 239.49C220.1 239.13 221.54 238.88 222.89 238.48C224.08 238.13 224.46 237.27 224.13 236.23C223.78 235.14 222.78 234.39 221.4 234.49C219.99 234.6 218.64 234.95 217.18 235.26ZM244.75 228.6C241.6 227.63 238.69 227.69 236.06 228.57C233.28 229.51 232.16 231.85 232.95 234.56C233.66 237 235.85 238.96 239.16 240.1C240.88 240.69 242.61 241.07 244.34 241.61C245.17 241.87 246.01 242.11 246.83 242.46C247.79 242.87 248.58 243.62 248.87 244.58C249.18 245.62 248.75 246.24 247.94 246.55C246.15 247.24 243.61 246.17 242.13 244.07C241.86 243.68 241.61 243.28 241.33 242.84C239.24 242.95 237.23 243.1 235.23 243.31C236.52 246.85 239.49 249.44 243.01 250.37C245.68 251.07 248.22 251.3 250.52 251.07C251.93 250.93 253.31 250.48 254.24 249.68C257.02 247.34 255.37 240.69 249.34 237.8C248.39 237.35 247.43 236.97 246.47 236.67C244.75 236.13 243.03 235.72 241.3 235.3C240.36 235.07 239.49 234.71 239.06 233.65C239.01 232.36 239.89 231.99 241.08 232.02C242.92 232.07 244.34 233.1 245.31 235C247.36 234.95 249.3 234.94 251.4 235C250 231.6 248.01 229.62 244.75 228.6Z" fill="#2D1F04"/>
<path d="M88.92 85.3099C89.48 80.5499 87.88 70.4899 81.8 65.1499" stroke="#2D1F04" stroke-width="2.79" stroke-miterlimit="10" stroke-linecap="round" stroke-linejoin="round"/>
<path d="M107.32 63.5298C105.08 68.7798 102.05 78.1998 103.6 87.1898" stroke="#2D1F04" stroke-width="2.79" stroke-miterlimit="10" stroke-linecap="round" stroke-linejoin="round"/>
<path d="M112.636 207.636V206.545C112.758 194.97 113.97 185.758 116.273 178.909C118.576 172.061 121.848 166.515 126.091 162.273C130.333 158.03 135.424 154.121 141.364 150.545C144.939 148.364 148.152 145.788 151 142.818C153.848 139.788 156.091 136.303 157.727 132.364C159.424 128.424 160.273 124.061 160.273 119.273C160.273 113.333 158.879 108.182 156.091 103.818C153.303 99.4545 149.576 96.0909 144.909 93.7273C140.242 91.3636 135.061 90.1818 129.364 90.1818C124.394 90.1818 119.606 91.2121 115 93.2727C110.394 95.3333 106.545 98.5758 103.455 103C100.364 107.424 98.5758 113.212 98.0909 120.364H75.1818C75.6667 110.061 78.3333 101.242 83.1818 93.9091C88.0909 86.5758 94.5455 80.9697 102.545 77.0909C110.606 73.2121 119.545 71.2727 129.364 71.2727C140.03 71.2727 149.303 73.3939 157.182 77.6364C165.121 81.8788 171.242 87.697 175.545 95.0909C179.909 102.485 182.091 110.909 182.091 120.364C182.091 127.03 181.061 133.061 179 138.455C177 143.848 174.091 148.667 170.273 152.909C166.515 157.152 161.97 160.909 156.636 164.182C151.303 167.515 147.03 171.03 143.818 174.727C140.606 178.364 138.273 182.697 136.818 187.727C135.364 192.758 134.576 199.03 134.455 206.545V207.636H112.636ZM124.273 261.455C119.788 261.455 115.939 259.848 112.727 256.636C109.515 253.424 107.909 249.576 107.909 245.091C107.909 240.606 109.515 236.758 112.727 233.545C115.939 230.333 119.788 228.727 124.273 228.727C128.758 228.727 132.606 230.333 135.818 233.545C139.03 236.758 140.636 240.606 140.636 245.091C140.636 248.061 139.879 250.788 138.364 253.273C136.909 255.758 134.939 257.758 132.455 259.273C130.03 260.727 127.303 261.455 124.273 261.455Z" fill="white"/>
</g>
<defs>
<clipPath id="clip0_228_5317">
<rect width="278" height="297" fill="white"/>
</clipPath>
</defs>
</svg>
