<svg width="287" height="298" viewBox="0 0 287 298" fill="none" xmlns="http://www.w3.org/2000/svg">
<g clip-path="url(#clip0_228_5511)">
<path d="M249.39 211.64C246.86 210.02 244.24 208.82 241.54 207.87C241.53 207.86 241.52 207.86 241.5 207.85C236.3 205.66 230.22 204.29 223.12 204.26C220.05 204.25 217.1 204.44 214.29 204.85C213.4 204.97 212.51 205.12 211.65 205.29C199.61 207.6 190.01 213.78 182.67 223.27C182.62 223.33 182.57 223.39 182.52 223.46C178.25 228.81 175.24 234.55 173.43 239.6C173.43 239.61 173.43 239.62 173.42 239.63C172.88 240.95 172.36 242.31 171.86 243.7C169.34 244.71 166.36 245.62 163.15 246.43C163.06 246.45 162.97 246.47 162.88 246.49C147.97 250 117.33 254.23 82.4401 250.64C81.9701 250.6 81.5001 250.55 81.0201 250.49C77.8001 250.13 74.5301 249.71 71.2001 249.23C71.0701 249.21 70.9501 249.2 70.8301 249.18C61.1301 247.71 51.2001 245.6 41.2801 242.66C41.2501 242.66 41.2201 242.65 41.1901 242.63C40.1001 242.23 39.3901 241.91 39.0301 241.69C39.1001 240.94 38.9401 240.68 38.6301 240.78C38.5501 240.53 38.4401 240.37 38.3101 240.29C38.6701 235.38 39.1701 219.04 38.5701 218.82C37.3801 219.12 36.3601 220.37 36.3301 221.56C33.3301 215.12 37.6801 210.55 37.2901 207.18C35.8001 206.49 34.3501 207.42 33.3301 209.68C29.2301 201.57 32.7401 194.31 31.2301 191.08C14.1101 154.3 5.36014 110.97 24.4001 71.42C28.8301 62.2 34.7401 55.21 42.0701 49.96C36.2501 49.97 26.8001 52.18 17.8401 57.49C20.5501 51 28.2101 44.36 42.3901 41.39C39.8201 39.06 32.6701 37.66 24.8501 40.02C33.8901 25.27 51.3201 29.23 51.3201 26.32C51.3201 22.86 36.8301 24.12 35.7001 22.9C48.1201 14.04 62.4801 13.91 72.6901 19.13C67.2901 14.06 67.2901 7.34 71.0901 2C79.2101 15.34 109.69 18.11 110.63 16.73C105.42 15.21 105.38 11.97 107.13 10.22C112.52 14.7 129.3 17.97 140.68 22.48C224.57 55.76 251.99 141.04 249.39 211.64Z" fill="#2D1F04"/>
<path d="M223.12 204.25C197.49 204.15 180.82 218.56 171.86 243.69C162.78 247.33 147.75 249.65 137.17 250.68C113.61 252.97 93.9301 252.49 71.1701 249.22C48.7001 245.99 38.8001 241.97 38.7601 241.45C38.4001 237.18 33.9101 244.86 33.3401 249.59C32.9401 252.91 35.3201 255.7 35.0701 256.24C31.1101 265.1 26.7201 273.3 23.8101 281.11C21.9601 286.08 20.1201 291.66 20.1201 296.95C26.6701 296.82 271.62 294.56 285.96 294.05C284.01 271.47 276.48 250.98 267.04 232.99C262.12 223.62 249.86 204.35 223.12 204.25Z" fill="#2D1F04"/>
<path d="M53.2802 220.72L53.2202 230.46" stroke="#2D1F04" stroke-width="3.87" stroke-miterlimit="10" stroke-linecap="round" stroke-linejoin="round"/>
<path d="M62.1901 225.71L62.1401 235.45" stroke="#2D1F04" stroke-width="3.87" stroke-miterlimit="10" stroke-linecap="round" stroke-linejoin="round"/>
<path d="M249.39 211.63C251.99 141.03 224.57 55.75 140.68 22.48C129.3 17.97 112.53 14.7 107.13 10.22C105.38 11.97 105.42 15.2 110.64 16.73C109.7 18.11 79.2102 15.33 71.1002 2C67.3002 7.33 67.3002 14.06 72.6902 19.13C62.4902 13.91 48.1202 14.04 35.7002 22.9C36.8302 24.12 51.3302 22.86 51.3302 26.33C51.3302 29.24 33.9002 25.28 24.8602 40.03C32.6802 37.66 39.8302 39.07 42.4002 41.4C28.2102 44.36 20.5502 51 17.8502 57.5C26.8102 52.18 36.2602 49.98 42.0802 49.96C34.7402 55.2 28.8302 62.2 24.4002 71.42C5.37021 110.96 14.1102 154.3 31.2302 191.08C32.7302 194.31 29.2302 201.57 33.3302 209.68C34.3502 207.42 35.8002 206.49 37.2902 207.18C37.6802 210.56 33.3302 215.12 36.3302 221.57C36.3602 220.37 37.3702 219.13 38.5602 218.83C39.2402 219.07 38.5302 239.73 38.1902 241.55" stroke="#2D1F04" stroke-width="2.62" stroke-miterlimit="10" stroke-linecap="round" stroke-linejoin="round"/>
<path d="M38.9802 241.96C101.35 261.22 164.83 247.55 171.86 243.69" stroke="#2D1F04" stroke-width="2.62" stroke-miterlimit="10" stroke-linecap="round" stroke-linejoin="round"/>
<path d="M38.9802 242.07C39.6902 237.68 34.6402 245.52 33.6902 247.7C32.2902 250.9 35.3702 253.82 35.2202 255.48C35.0502 257.45 23.0302 277.01 19.6902 296.08" stroke="#2D1F04" stroke-width="2.62" stroke-miterlimit="10" stroke-linecap="round" stroke-linejoin="round"/>
<path d="M169.3 271.43C176.04 278.13 182.11 284.98 185.91 294.65" stroke="#2D1F04" stroke-width="2.62" stroke-miterlimit="10" stroke-linecap="round" stroke-linejoin="round"/>
<path d="M183.01 288.42C182.22 282.3 181.56 274.49 179.03 269" stroke="#2D1F04" stroke-width="2.62" stroke-miterlimit="10" stroke-linecap="round" stroke-linejoin="round"/>
<path d="M171.8 245.49C174.86 229.21 194.93 196.54 235.36 206.09C244.59 208.27 252.95 211.84 260.33 222.44C276.12 245.12 281.81 273.68 285.37 293.34" stroke="#2D1F04" stroke-width="2.62" stroke-miterlimit="10" stroke-linecap="round" stroke-linejoin="round"/>
<path d="M144.08 263.59C126.37 270.25 57.5302 269.74 35.9702 254.49" stroke="#2D1F04" stroke-width="2.62" stroke-miterlimit="10" stroke-linecap="round" stroke-linejoin="round"/>
<path d="M48.6902 245.38C47.8302 248.16 46.9202 250.3 46.9202 253.35" stroke="#2D1F04" stroke-width="2.62" stroke-miterlimit="10" stroke-linecap="round" stroke-linejoin="round"/>
<path d="M64.6002 248.8C63.4102 251.35 63.1902 254.71 63.1902 257.53" stroke="#2D1F04" stroke-width="2.62" stroke-miterlimit="10" stroke-linecap="round" stroke-linejoin="round"/>
<path d="M83.6901 251.45L82.6301 258.29" stroke="#2D1F04" stroke-width="2.62" stroke-miterlimit="10" stroke-linecap="round" stroke-linejoin="round"/>
<path d="M97.1201 253.35V254.49V255.25V256.39V257.15V257.91V258.67" stroke="#2D1F04" stroke-width="2.62" stroke-miterlimit="10" stroke-linecap="round" stroke-linejoin="round"/>
<path d="M89.7002 253.73V254.49V255.25V256.01V256.77V257.53" stroke="#2D1F04" stroke-width="2.62" stroke-miterlimit="10" stroke-linecap="round" stroke-linejoin="round"/>
<path d="M142.37 251.45V252.21V252.97V254.49V255.25" stroke="#2D1F04" stroke-width="2.62" stroke-miterlimit="10" stroke-linecap="round" stroke-linejoin="round"/>
<path d="M147.67 251.45V252.59V253.73V254.49" stroke="#2D1F04" stroke-width="2.62" stroke-miterlimit="10" stroke-linecap="round" stroke-linejoin="round"/>
<path opacity="0.23" d="M249.39 211.64C246.86 210.02 244.24 208.82 241.54 207.87C241.53 207.86 241.52 207.86 241.5 207.85C236.3 205.66 230.22 204.29 223.12 204.26C221.96 204.26 220.82 204.28 219.69 204.35C220.12 180.33 217.85 154.48 209.93 124.41C197.33 76.64 166.7 52.31 125.84 41.63C119.36 39.94 106.69 38.4 106.86 34.66C103.63 34.66 103.52 38.26 102.09 38.22C100.24 38.16 95.6701 34.6 100.78 28.34C94.0801 30.25 93.6601 38.26 92.2201 38.35C90.7801 38.43 87.6301 36.64 88.0201 33.64C84.4601 34.85 85.6101 38.92 84.4601 39.07C83.0701 39.25 82.1501 34.88 77.1701 32.37C78.9601 36.37 78.2401 40.04 77.2101 40.23C76.1201 40.44 74.3601 36.41 70.1501 36.79C71.6001 38.28 70.1201 41.82 68.2401 42.34C53.6901 46.39 40.6001 53.15 30.3001 61.58C33.6801 56.99 37.6101 53.15 42.0701 49.96C36.2501 49.97 26.8001 52.18 17.8401 57.49C20.5501 51 28.2101 44.36 42.3901 41.39C39.8201 39.06 32.6701 37.66 24.8501 40.02C33.8901 25.27 51.3201 29.23 51.3201 26.32C51.3201 22.86 36.8301 24.12 35.7001 22.9C48.1201 14.04 62.4801 13.91 72.6901 19.13C67.2901 14.06 67.2901 7.34 71.0901 2C79.2101 15.34 109.69 18.11 110.63 16.73C105.42 15.21 105.38 11.97 107.13 10.22C112.52 14.7 129.3 17.97 140.68 22.48C224.57 55.76 251.99 141.04 249.39 211.64Z" fill="#2D1F04"/>
<path d="M21.2 115.16C24.42 101.1 27.96 88.8901 36.05 80.1101C43.76 71.7501 57.95 67.2901 71.54 65.4601C87.63 63.2901 94.27 56.1001 89.84 49.0801C104.73 50.5701 99.94 62.9701 130.19 67.3701C165.04 72.4401 181.21 71.3901 197.27 102.65C200.88 109.67 206.42 125.72 202.65 143.67C197.15 169.81 194.29 180.77 167.89 200.35C136.52 223.61 71.58 235.17 39.17 191.18C23.97 170.59 15.19 141.41 21.2 115.16Z" fill="#2D1F04"/>
<path d="M92.7501 124.28C81.8101 118.4 70.2501 144.87 71.1001 160.27C72.7201 189.6 102.28 193.15 120.73 183.25C147.35 168.96 122.48 114.16 103.45 122.33" fill="#2D1F04"/>
<path d="M15.53 106.79C13.03 119.58 22.05 161.57 26.56 165.2C30.04 168 53.28 163.89 70.17 142.5C86.24 122.15 85.29 69.7999 81.89 66.1399C79.97 64.0799 50.32 63.1399 32.01 72.0899C23.39 76.3099 19.03 88.8699 15.53 106.79Z" fill="#2D1F04"/>
<path d="M122.3 71.4298C108.73 174.27 187.65 182.87 195.29 170.97C200.18 163.35 220.38 112.1 176.34 74.3298C174.76 72.9798 145.66 61.3698 122.3 71.4298Z" fill="#2D1F04"/>
<path d="M84.8502 127.49C84.6502 123.07 89.1302 118.75 99.0502 118.21C108.96 117.67 117.16 120.82 117.36 125.24C117.56 129.66 109.68 133.68 99.7702 134.22C89.8602 134.75 85.0502 131.91 84.8502 127.49Z" fill="#2D1F04"/>
<path d="M152.85 117.05C152.37 117 151.9 116.94 151.42 116.89L152.85 117.05Z" fill="#2D1F04"/>
<path opacity="0.8258" d="M162.01 79.1802H162.38C180.55 79.1802 195.27 96.0902 195.27 116.94C195.27 137.79 180.54 154.7 162.38 154.7H162.01C143.84 154.7 129.12 137.79 129.12 116.94C129.11 96.0802 143.84 79.1802 162.01 79.1802Z" fill="#2D1F04"/>
<path d="M162.01 79.3398H162.37C179.95 79.3398 194.2 93.5898 194.2 111.17C194.2 128.75 179.95 143 162.37 143H162.01C144.43 143 130.18 128.75 130.18 111.17C130.18 93.5898 144.43 79.3398 162.01 79.3398Z" fill="#2D1F04"/>
<path d="M162.01 79.3398H162.37C179.95 79.3398 194.2 93.5898 194.2 111.17C194.2 128.75 179.95 143 162.37 143H162.01C144.43 143 130.18 128.75 130.18 111.17C130.18 93.5898 144.43 79.3398 162.01 79.3398Z" stroke="#2D1F04" stroke-width="2.79" stroke-miterlimit="10" stroke-linecap="round" stroke-linejoin="round"/>
<path d="M161.55 110.41C163.472 110.41 165.03 108.332 165.03 105.77C165.03 103.207 163.472 101.13 161.55 101.13C159.628 101.13 158.07 103.207 158.07 105.77C158.07 108.332 159.628 110.41 161.55 110.41Z" fill="#2D1F04"/>
<path opacity="0.8258" d="M44.9502 80.1099H45.2902C62.0202 80.1099 75.5802 97.0199 75.5802 117.87C75.5802 138.72 62.0202 155.63 45.2902 155.63H44.9502C28.2202 155.63 14.6602 138.72 14.6602 117.87C14.6502 97.0199 28.2202 80.1099 44.9502 80.1099Z" fill="#2D1F04"/>
<path d="M44.9501 80.2798H45.2801C61.4701 80.2798 74.5901 94.5298 74.5901 112.11C74.5901 129.69 61.4701 143.94 45.2801 143.94H44.9501C28.7601 143.94 15.6401 129.69 15.6401 112.11C15.6401 94.5298 28.7601 80.2798 44.9501 80.2798Z" fill="#2D1F04"/>
<path d="M44.9501 80.2798H45.2801C61.4701 80.2798 74.5901 94.5298 74.5901 112.11C74.5901 129.69 61.4701 143.94 45.2801 143.94H44.9501C28.7601 143.94 15.6401 129.69 15.6401 112.11C15.6401 94.5298 28.7601 80.2798 44.9501 80.2798Z" stroke="#2D1F04" stroke-width="2.79" stroke-miterlimit="10" stroke-linecap="round" stroke-linejoin="round"/>
<path d="M44.5301 111.35C46.2974 111.35 47.7301 109.272 47.7301 106.71C47.7301 104.147 46.2974 102.07 44.5301 102.07C42.7628 102.07 41.3301 104.147 41.3301 106.71C41.3301 109.272 42.7628 111.35 44.5301 111.35Z" fill="#2D1F04"/>
<path d="M99.53 144.87C90.51 144.87 74.13 151.69 75.75 162.32C77.37 172.95 88.78 168.35 97.46 169.03C106.14 169.71 122.14 178.89 125.89 169.45C129.62 160.02 117.94 144.87 99.53 144.87Z" fill="#2D1F04"/>
<path d="M121.76 70.0798C173.67 57.8898 200.2 91.7698 200.2 91.7698" stroke="#2D1F04" stroke-width="7.6" stroke-miterlimit="10" stroke-linecap="round" stroke-linejoin="round"/>
<path d="M84.51 67.0201C37.07 49.9701 3.80005 96.9401 3.80005 96.9401" stroke="#2D1F04" stroke-width="7.6" stroke-miterlimit="10" stroke-linecap="round" stroke-linejoin="round"/>
<path d="M192.41 132.36C188.39 142.52 180.23 151.08 165.03 152.1" stroke="#2D1F04" stroke-width="2.79" stroke-miterlimit="10" stroke-linecap="round" stroke-linejoin="round"/>
<path d="M195.87 137.12C195.02 143.16 189.57 151.75 182.42 154.86" stroke="#2D1F04" stroke-width="2.79" stroke-miterlimit="10" stroke-linecap="round" stroke-linejoin="round"/>
<path d="M16.96 132.36C19.61 142.52 30.08 150.69 40.04 153.25" stroke="#2D1F04" stroke-width="2.79" stroke-miterlimit="10" stroke-linecap="round" stroke-linejoin="round"/>
<path d="M19.9202 146.38C22.5502 152.83 26.5102 157.16 30.8502 159.29" stroke="#2D1F04" stroke-width="2.79" stroke-miterlimit="10" stroke-linecap="round" stroke-linejoin="round"/>
<path d="M216.1 230.43C220.93 229.19 225.61 228.21 230.36 227.7C234.26 227.29 236.51 229.59 237.57 231.9C239.04 235.1 238.31 237.45 235.53 238.94C235.38 239.02 235.22 239.08 234.91 239.22C239.52 240.79 241.56 244.87 244.98 248.21C242.22 248.28 239.76 248.43 237.17 248.67C235.21 246.61 233.2 244.53 231.18 242.52C230.08 241.42 228.88 240.66 227.14 241.36C228.08 244.04 229.04 246.78 230.03 249.61C227.68 249.98 225.59 250.37 223.38 250.84C220.97 244.01 218.58 237.33 216.1 230.43ZM224.29 233.07C224.78 234.46 225.24 235.74 225.78 237.3C227.21 236.94 228.65 236.69 230 236.29C231.19 235.94 231.57 235.08 231.24 234.04C230.89 232.95 229.89 232.2 228.51 232.3C227.11 232.41 225.76 232.77 224.29 233.07ZM251.87 226.42C248.72 225.45 245.81 225.51 243.18 226.39C240.4 227.33 239.28 229.67 240.07 232.38C240.78 234.82 242.97 236.78 246.28 237.92C248 238.51 249.73 238.89 251.46 239.43C252.29 239.69 253.13 239.93 253.95 240.28C254.91 240.69 255.7 241.44 255.99 242.4C256.3 243.44 255.87 244.06 255.06 244.37C253.27 245.06 250.73 243.99 249.25 241.89C248.98 241.5 248.73 241.1 248.45 240.66C246.36 240.77 244.35 240.92 242.35 241.13C243.64 244.67 246.61 247.26 250.13 248.19C252.8 248.89 255.34 249.12 257.64 248.89C259.05 248.75 260.43 248.3 261.36 247.5C264.14 245.16 262.49 238.51 256.46 235.62C255.51 235.17 254.55 234.79 253.59 234.49C251.87 233.95 250.15 233.54 248.42 233.12C247.48 232.89 246.61 232.53 246.18 231.47C246.13 230.18 247.01 229.81 248.2 229.84C250.04 229.89 251.46 230.92 252.43 232.82C254.48 232.77 256.42 232.76 258.52 232.82C257.12 229.41 255.13 227.43 251.87 226.42Z" fill="#2D1F04"/>
<path d="M113.636 205.636V204.545C113.758 192.97 114.97 183.758 117.273 176.909C119.576 170.061 122.848 164.515 127.091 160.273C131.333 156.03 136.424 152.121 142.364 148.545C145.939 146.364 149.152 143.788 152 140.818C154.848 137.788 157.091 134.303 158.727 130.364C160.424 126.424 161.273 122.061 161.273 117.273C161.273 111.333 159.879 106.182 157.091 101.818C154.303 97.4545 150.576 94.0909 145.909 91.7273C141.242 89.3636 136.061 88.1818 130.364 88.1818C125.394 88.1818 120.606 89.2121 116 91.2727C111.394 93.3333 107.545 96.5758 104.455 101C101.364 105.424 99.5758 111.212 99.0909 118.364H76.1818C76.6667 108.061 79.3333 99.2424 84.1818 91.9091C89.0909 84.5758 95.5455 78.9697 103.545 75.0909C111.606 71.2121 120.545 69.2727 130.364 69.2727C141.03 69.2727 150.303 71.3939 158.182 75.6364C166.121 79.8788 172.242 85.697 176.545 93.0909C180.909 100.485 183.091 108.909 183.091 118.364C183.091 125.03 182.061 131.061 180 136.455C178 141.848 175.091 146.667 171.273 150.909C167.515 155.152 162.97 158.909 157.636 162.182C152.303 165.515 148.03 169.03 144.818 172.727C141.606 176.364 139.273 180.697 137.818 185.727C136.364 190.758 135.576 197.03 135.455 204.545V205.636H113.636ZM125.273 259.455C120.788 259.455 116.939 257.848 113.727 254.636C110.515 251.424 108.909 247.576 108.909 243.091C108.909 238.606 110.515 234.758 113.727 231.545C116.939 228.333 120.788 226.727 125.273 226.727C129.758 226.727 133.606 228.333 136.818 231.545C140.03 234.758 141.636 238.606 141.636 243.091C141.636 246.061 140.879 248.788 139.364 251.273C137.909 253.758 135.939 255.758 133.455 257.273C131.03 258.727 128.303 259.455 125.273 259.455Z" fill="white"/>
</g>
<defs>
<clipPath id="clip0_228_5511">
<rect width="287" height="298" fill="white"/>
</clipPath>
</defs>
</svg>
