<svg width="368" height="337" viewBox="0 0 368 337" fill="none" xmlns="http://www.w3.org/2000/svg">
<path d="M322.31 67.5899C322.31 66.6999 322.29 65.7699 322.24 64.8199C322.24 64.6999 322.24 64.6399 322.24 64.6399C322.24 64.6499 322.24 64.6599 322.24 64.6699C322.12 62.3599 321.83 59.9799 321.13 57.9099C320.85 57.0899 320.5 56.2899 320.1 55.5199C321.11 52.3499 321.38 48.7999 321.37 45.5599C321.37 45.0099 321.35 44.4499 321.32 43.8999C321.32 43.8899 321.32 43.8699 321.32 43.8599V43.8699C320.93 36.2599 317.96 29.1699 310.77 25.6099V32.9399C315.09 35.0899 318.17 38.7699 320.01 43.2399C320.42 44.2299 320.68 45.2799 320.91 46.3199C320.84 46.6499 320.77 46.9499 320.71 47.1899C320.22 49.1099 319.22 50.8099 317.98 52.3199C315.11 48.8399 310.97 46.4899 306.34 46.4699C303.75 46.4599 300.08 46.7299 298.74 49.3499C298.55 49.7199 298.43 50.1499 298.34 50.5999C298.34 50.5799 298.33 50.5599 298.33 50.5399C297.77 52.9799 298.12 54.4399 298.35 55.9999C298.42 56.7399 298.48 57.4399 298.5 58.0299C298.66 63.6299 306.9 65.3599 311.06 64.3899C314.25 63.6499 316.47 61.9599 318.02 59.7599C319.33 61.4399 320.37 63.3299 321.1 65.2199C321.37 65.8999 321.56 66.5999 321.72 67.3099C321.6 67.8699 321.49 68.3699 321.4 68.6299C320.81 70.4099 319.71 71.8999 318.41 73.2099C316.96 71.2499 314.99 69.7199 312.49 69.0299C309.04 68.0699 307.8 71.5399 307.78 74.2399C307.75 77.0799 306.55 83.1499 310.18 84.4999C312.99 85.5499 316.09 83.3299 318.4 80.6099C319.21 81.6499 319.85 82.6599 320.22 83.4199C320.67 84.3499 320.94 85.3599 321.14 86.3699C321.08 86.7299 321.02 87.0799 320.95 87.4399C320.34 90.8199 319.09 94.0799 317.73 97.2199C315.45 102.47 312.43 107.46 309 112.05V119.37C313.01 114 316.37 108.12 318.84 101.9C320.57 97.5499 321.25 93.2099 321.46 88.7399C321.49 88.8699 321.5 88.6799 321.49 88.1599C321.56 86.2799 321.55 84.3699 321.49 82.4199C321.44 80.7899 321.15 79.1099 320.62 77.4999C321.1 76.6699 321.46 75.8899 321.67 75.2399C322.54 72.6099 322.32 70.3299 322.31 67.5899ZM304.71 56.8999C303.42 56.5199 301.93 55.7599 300.72 54.7399C303.27 53.4299 307.39 53.7099 309.52 54.1299C311.11 54.4399 312.58 55.0799 313.91 55.9399C311.13 57.4799 307.84 57.8299 304.71 56.8999ZM309.17 76.5899C309.3 76.0399 309.48 75.4899 309.81 75.3899C311.18 74.9999 312.7 75.5299 314.16 76.5099C312.48 77.3499 310.55 77.7399 309.17 76.5899Z" fill="#2D1F04"/>
<path d="M310.78 25.6201V32.9601C315.1 35.1101 318.18 38.7901 320.02 43.2601C320.43 44.2501 320.69 45.3001 320.92 46.3401C321.09 45.5101 321.27 44.5101 321.32 43.8801C320.93 36.2701 317.97 29.1701 310.78 25.6201Z" fill="#2D1F04"/>
<path d="M309.58 76.8801C309.91 76.6501 310.27 76.4601 310.67 76.3401C311.71 76.0401 312.78 76.2101 313.81 76.6701C314.59 76.3101 315.34 75.8501 315.95 75.3701C316.81 74.7101 317.66 74.0001 318.43 73.2301C316.98 71.2701 315.01 69.7401 312.51 69.0501C309.06 68.0901 307.82 71.5601 307.8 74.2601C307.8 74.2901 307.8 74.3201 307.8 74.3501C307.94 74.8001 308.17 75.3101 308.38 75.6601C308.72 76.2201 309.13 76.6101 309.58 76.8801Z" fill="#2D1F04"/>
<path d="M177.55 283.07C177.54 283.27 177.53 283.46 177.52 283.65C177.55 283.78 177.56 283.59 177.55 283.07Z" fill="#2D1F04"/>
<path d="M320.23 83.4403C320.68 84.3703 320.95 85.3803 321.15 86.3903C321.24 85.8803 321.31 85.3602 321.36 84.8402C321.43 86.4302 321.47 87.5302 321.49 88.1702C321.56 86.2902 321.55 84.3803 321.49 82.4303C321.44 80.8003 321.15 79.1203 320.62 77.5103C320.04 78.5203 319.29 79.6003 318.43 80.6103C319.21 81.6203 319.84 82.6303 320.23 83.4403Z" fill="#2D1F04"/>
<path d="M321.5 82.8398C321.46 83.3598 321.23 85.8698 321.15 86.3898C321.09 86.7498 321.03 87.0998 320.96 87.4598C320.35 90.8398 319.1 94.0998 317.74 97.2398C315.46 102.49 312.44 107.48 309.01 112.07V119.39C313.02 114.02 316.38 108.14 318.85 101.92C320.58 97.5698 321.37 93.5598 321.57 89.0898C321.58 88.8998 321.59 88.6998 321.6 88.5098C321.75 86.9598 321.57 84.4298 321.5 82.8398Z" fill="#2D1F04"/>
<path d="M321.12 57.9203C320.84 57.1003 320.49 56.3003 320.09 55.5303C319.6 57.0703 318.93 58.5103 318.03 59.7903C319.34 61.4703 320.38 63.3603 321.11 65.2503C321.37 65.9203 321.56 66.6203 321.72 67.3203L322.23 65.1803C322.18 62.6903 321.96 60.3503 321.12 57.9203Z" fill="#2D1F04"/>
<path d="M321.33 43.9102C321.43 47.0902 321.26 48.5202 321.01 46.6902C320.98 46.5702 320.95 46.4602 320.93 46.3402C320.86 46.6702 320.79 46.9702 320.73 47.2102C320.24 49.1302 319.24 50.8302 318 52.3402C317.51 52.9402 316.99 53.5102 316.44 54.0502C315.67 54.8102 314.82 55.4402 313.91 55.9402C311.14 57.4802 307.84 57.8302 304.71 56.9102C303.42 56.5302 301.93 55.7702 300.72 54.7502C299.41 53.6502 298.43 52.2302 298.36 50.6302C298.03 52.2402 297.89 54.2602 298.05 56.0302C298.12 56.7702 298.19 57.4602 298.21 58.0502C298.37 63.6502 306.92 65.3902 311.08 64.4202C314.27 63.6802 316.49 61.9902 318.04 59.7902C318.94 58.5202 319.61 57.0702 320.1 55.5302C321.11 52.3602 321.38 48.8102 321.37 45.5702C321.37 45.0102 321.35 44.4602 321.33 43.9102Z" fill="#2D1F04"/>
<path d="M300.72 54.74C303.27 53.43 307.39 53.71 309.52 54.13C311.11 54.44 312.58 55.08 313.91 55.94C314.82 55.44 315.67 54.81 316.44 54.05C316.99 53.51 317.51 52.94 318 52.34C315.13 48.86 310.99 46.51 306.36 46.49C303.77 46.48 300.1 46.75 298.76 49.37C298.57 49.74 298.45 50.17 298.36 50.62C298.43 52.22 299.41 53.63 300.72 54.74Z" fill="#2D1F04"/>
<path d="M249.57 181.7C249.45 181.85 249.33 182 249.2 182.15C249.15 182.27 249.27 182.12 249.57 181.7Z" fill="#2D1F04"/>
<path d="M275.73 145.95C275.73 145.95 275.73 145.96 275.73 145.95C275.72 145.97 275.71 145.98 275.71 145.98C275.72 145.97 275.72 145.96 275.73 145.95Z" fill="#2D1F04"/>
<path d="M293.96 52.4602C294.17 51.1602 293.85 50.5102 293.96 52.4602V52.4602Z" fill="#2D1F04"/>
<path d="M286.38 31.7901C287.09 33.2201 287.91 34.5801 288.75 35.9301C290.18 38.2201 291.73 40.5701 292.8 43.1001C292.16 41.4201 291.36 39.8101 290.44 38.2601C288.93 35.7301 286.96 33.1601 285.79 30.3701C285.96 30.8501 286.15 31.3301 286.38 31.7901Z" fill="#2D1F04"/>
<path d="M295.46 22.6202C296.36 22.1702 294.64 16.6102 295.46 16.2002C291.39 18.2502 286.25 20.9602 285.21 25.8402C284.59 28.7502 284.71 32.8102 285.42 35.7102C286.3 39.3102 288.9 42.4802 290.76 45.6102C291.88 47.4802 292.83 49.4302 293.51 51.5002C293.53 51.5602 293.54 51.6202 293.56 51.6802C293.68 52.0802 293.79 52.4902 293.87 52.9002C293.84 53.0402 293.8 53.1802 293.75 53.3202C291.76 59.6602 283.72 62.0002 278.84 65.5202C277.53 66.4702 276.36 67.6302 275.59 69.0002L276.31 74.3202C276.36 74.2602 276.4 74.1802 276.45 74.1202C278.18 71.9602 280.84 70.5602 283.2 69.2102C288.38 66.2502 294.06 63.1002 294.3 56.4302C294.33 55.7202 294.35 55.0002 294.37 54.2802C294.37 54.2302 294.37 54.1802 294.37 54.1402C294.39 53.4202 294.39 52.6902 294.38 51.9602C294.38 51.9202 294.38 51.8802 294.38 51.8302C294.37 51.0902 294.34 50.3602 294.29 49.6302C294.29 49.6002 294.29 49.5802 294.28 49.5502C294.2 48.4602 294.07 47.3902 293.85 46.3302C293.06 42.5302 290.77 39.1502 288.75 35.9102C287.9 34.5602 287.09 33.2002 286.38 31.7702C286.15 31.3102 285.96 30.8302 285.78 30.3502C287.45 26.6502 292.16 24.2802 295.46 22.6202Z" fill="#2D1F04"/>
<path d="M293.76 53.3299C291.77 59.6699 283.73 62.0099 278.85 65.5299C277.54 66.4799 276.37 67.6399 275.6 69.0099L276.32 74.3299C276.37 74.2699 276.41 74.1899 276.46 74.1299C278.19 71.9699 280.85 70.5699 283.21 69.2199C288.39 66.2599 294.07 63.1099 294.31 56.4399C294.34 55.7299 294.36 55.0099 294.38 54.2899C294.38 54.2399 294.38 54.1899 294.38 54.1499C294.4 53.4299 294.4 52.6999 294.39 51.9699C294.39 51.9299 294.39 51.8899 294.39 51.8399C294.39 51.7599 294.38 51.6899 294.38 51.6099C294.23 52.1599 294.04 52.6699 293.81 53.1699C293.79 53.2299 293.78 53.2799 293.76 53.3299Z" fill="#2D1F04"/>
<path d="M288.28 27.1002C290.42 25.1602 293.25 23.7302 295.46 22.6202C296.36 22.1702 294.64 16.6102 295.46 16.2002C292.2 17.8402 288.26 19.9102 286.28 23.1702C286.45 23.6102 286.62 24.0502 286.83 24.4802C287.28 25.3802 287.77 26.2402 288.28 27.1002Z" fill="#2D1F04"/>
<path d="M285.87 28.4002C285.96 28.7902 286.09 29.1602 286.22 29.5402C286.76 28.6402 287.47 27.8302 288.28 27.1002C287.77 26.2402 287.28 25.3802 286.83 24.4902C286.62 24.0602 286.44 23.6202 286.28 23.1802C285.89 23.8202 285.59 24.5002 285.37 25.2402C285.47 26.3602 285.64 27.4402 285.87 28.4002Z" fill="#2D1F04"/>
<path d="M295.46 16.2002C291.95 17.9702 287.64 20.2402 285.86 23.9602C285.58 24.5502 285.35 25.1702 285.21 25.8402C285.09 26.3902 285.01 26.9902 284.94 27.6102C284.99 27.8602 285.04 28.1202 285.1 28.3502C285.27 29.0402 285.51 29.7002 285.79 30.3602C286.26 29.3202 286.97 28.3902 287.81 27.5502C289.99 25.3802 293.09 23.8202 295.46 22.6202C296.36 22.1702 294.64 16.6102 295.46 16.2002Z" fill="#2D1F04"/>
<path d="M354.17 170.71C347.52 167.82 333.82 162.6 331.48 154C331.49 153.99 331.5 153.98 331.5 153.97C332.6 152.48 333.94 151.17 335.31 149.93C338.48 147.04 342.01 144.57 345.46 142.03C351.34 137.68 357.49 134.93 359.47 127.53C360.37 125.47 361.98 118.68 361.81 118.28C362.16 116.12 362.18 113.95 361.38 111.87C359.57 107.16 354.83 103.78 350.8 101.12C351.61 101.66 347.75 109.38 348.68 109.99C352.73 112.67 356.94 115.83 359.09 120.33C359.37 120.93 359.57 121.56 359.72 122.2C359.71 122.22 359.69 122.23 359.69 122.25C355.1 130.92 346.97 133.4 340.59 138.42C337.65 140.74 334.71 143.28 332.69 146.48C331.37 148.57 330.55 151.21 329.97 153.86C329.69 154.94 329.41 156.23 329.38 157.09C329.24 157.96 329.12 158.81 329.02 159.61C327.68 169.98 345.1 176.57 352.06 179.6C351.62 179.4 354.72 170.95 354.17 170.71Z" fill="#2D1F04"/>
<path d="M354.17 170.71C347.87 167.97 335.25 163.13 331.95 155.32C331.27 153.8 330.97 152.19 331.19 150.47C331.25 150.04 331.32 149.57 331.38 149.11C330.78 150.61 330.31 152.22 329.96 153.85C329.68 154.93 329.4 156.22 329.37 157.08C329.23 157.95 329.11 158.8 329.01 159.6C327.67 169.97 345.09 176.56 352.05 179.59C351.62 179.4 354.72 170.95 354.17 170.71Z" fill="#2D1F04"/>
<path d="M361.76 113.22C361.66 112.76 361.54 112.31 361.37 111.86C359.56 107.15 354.82 103.77 350.79 101.11C351.6 101.65 347.74 109.37 348.67 109.98C351.96 112.16 355.33 114.66 357.64 117.92C358.18 118.68 358.67 119.47 359.08 120.32C359.36 120.92 359.56 121.55 359.71 122.19C359.7 122.21 359.69 122.22 359.68 122.24C359.68 122.24 360.86 120.89 361.65 118.4C361.71 118.25 361.78 118.08 361.85 117.89C362.07 116.32 362.1 114.75 361.76 113.22Z" fill="#2D1F04"/>
<path d="M342.27 40.3302C333.55 46.4502 326.65 55.0702 329.2 66.2902C329.31 66.7602 335.84 66.0702 335.93 66.4702C333.38 55.2502 340.28 46.6402 349 40.5102C348.67 40.7402 346.98 40.3702 346.58 40.3502C346.15 40.3302 344.54 39.9802 344.16 40.2402L342.27 40.3302Z" fill="#2D1F04"/>
<path d="M120.38 83.7402C120.38 83.7402 120.36 83.7402 120.35 83.7502L120.38 83.7402Z" fill="#2D1F04"/>
<path d="M45 222.57C42.88 220.81 41.34 218.43 40.09 216.01C37.42 210.8 36.47 204.71 36.66 198.91C36.78 195.16 37.68 191.01 39.54 187.52C40.63 188.09 41.76 188.56 42.93 188.94C43.93 189.26 44.35 189.41 45.08 189.58C48.16 190.49 51.29 191.68 53.62 188.75C55.26 186.69 55.1 183.39 53.5 181.39C52.62 180.29 51.23 180 49.93 179.65C47.92 179.1 45.72 178.22 43.6 178.33C41.44 178.45 39.45 179.42 37.73 180.82C36.98 179.06 36.5 177.17 36.35 175.22C35.63 166.33 41.44 157.23 48.7 152.55C48.38 152.75 46.08 151.82 45.71 151.72C45.31 151.61 43.09 150.71 42.71 150.95C33.62 156.82 27.12 169.48 32.02 179.97C32.72 181.47 33.67 182.78 34.78 183.95C34.06 184.93 33.44 185.96 32.96 186.97C30.51 192.09 30.29 198.19 30.95 203.73C31.62 209.31 33.62 214.95 37.28 219.27C39.46 221.85 42.24 223.18 45.24 224.13C45.67 223.98 46.1 223.86 46.54 223.75C46.01 223.37 45.5 222.98 45 222.57ZM47.89 180.28C48.28 180.89 48.53 181.6 48.68 182.3C49.12 184.37 48.41 186.68 46.78 188.04C46.24 188.5 45.58 188.74 44.9 188.86C44.05 188.34 43.25 187.72 42.48 187.1C41.86 186.61 41.31 186.07 40.79 185.5C42.52 183.06 44.86 181.16 47.89 180.28Z" fill="#2D1F04"/>
<path d="M75.3 205.77C75.3 205.77 75.28 205.77 75.27 205.78L75.3 205.77Z" fill="#2D1F04"/>
<path d="M30.96 203.71C31.63 209.29 33.63 214.93 37.29 219.25C39.28 221.61 41.79 222.93 44.5 223.86C45.9 224.17 47.11 224.35 47.78 224.45C46.78 223.95 45.87 223.28 45.01 222.57C42.89 220.81 41.35 218.43 40.1 216.01C37.43 210.8 36.48 204.71 36.67 198.91C36.79 195.16 37.69 191.01 39.55 187.52C39.89 186.86 39.93 186.73 40.79 185.51C42.53 183.06 44.87 181.16 47.9 180.28C48.95 179.87 50.31 179.91 51.42 180.05C50.94 179.89 50.44 179.77 49.95 179.63C47.94 179.08 45.74 178.2 43.62 178.31C41.46 178.43 39.47 179.4 37.75 180.8C36.24 182.11 34.79 183.93 34.79 183.93C34.07 184.91 33.45 185.94 32.97 186.95C30.52 192.07 30.3 198.18 30.96 203.71Z" fill="#2D1F04"/>
<path d="M128.56 18.0898C128.56 18.0898 141.76 21.8998 146.59 37.6398C143.04 37.8898 139.73 40.1798 139.73 40.1798C139.73 40.1798 133.38 23.1698 122.46 25.4498C122.98 22.6698 128.56 18.0898 128.56 18.0898Z" fill="#2D1F04"/>
<path d="M46.25 269.21C46.25 269.21 27.49 264.04 20.4 241.83C25.43 241.41 30.06 238.12 30.06 238.12C30.06 238.12 39.33 262.1 54.75 258.68C54.08 262.65 46.25 269.21 46.25 269.21Z" fill="#2D1F04"/>
<path d="M112.07 134.23C107.22 138.51 100.75 140.57 100.75 140.57C100.75 140.57 102.85 144.36 102.83 148.28C109.07 146.71 113.66 143.71 116.96 140.58L112.07 134.23Z" fill="#2D1F04"/>
<path d="M110.07 153.13L116.92 145.26L119.97 153.13H110.07Z" fill="#2D1F04"/>
<path d="M290.58 103.99C290.58 103.99 293.7 93.1902 306.57 89.2402C306.78 92.1502 308.65 94.8502 308.65 94.8502C308.65 94.8502 294.73 100.04 296.6 108.97C294.31 108.56 290.58 103.99 290.58 103.99Z" fill="#2D1F04"/>
<path d="M323.29 19.23C323.29 19.23 332.1 22.46 334.63 33.41C332.2 33.41 329.84 34.81 329.84 34.81C329.84 34.81 326.33 22.92 318.79 23.95C319.27 22.07 323.29 19.23 323.29 19.23Z" fill="#2D1F04"/>
<path d="M335.78 177.46C335.78 177.46 348.21 184.56 349.22 201.67C345.56 201.05 341.66 202.56 341.66 202.56C341.66 202.56 339.41 183.78 327.8 183.42C329.01 180.71 335.78 177.46 335.78 177.46Z" fill="#2D1F04"/>
<path d="M220.4 18.5301C220.4 18.5301 216.61 11.7701 213.84 10.8101C214.09 15.7101 211.3 19.3501 207.87 21.9601L212.29 28.6601C218.09 23.9001 220.4 18.5301 220.4 18.5301Z" fill="#2D1F04"/>
<path d="M130.17 174.28C134.45 179.13 136.51 185.6 136.51 185.6C136.51 185.6 140.3 183.5 144.22 183.52C142.65 177.28 139.65 172.68 136.52 169.39L130.17 174.28Z" fill="#2D1F04"/>
<path d="M325.11 138.78L308.53 125.66L330.55 123.95L325.11 138.78Z" fill="#2D1F04"/>
<path d="M316.36 169.2L320.9 161.88L324.17 175.11L316.36 169.2Z" fill="#2D1F04"/>
<path d="M14.38 227.71C14.38 227.71 21.51 218.8 35.13 220.12C34.19 222.93 34.89 226.19 34.89 226.19C34.89 226.19 19.81 225.63 18.08 234.74C16.11 233.45 14.38 227.71 14.38 227.71Z" fill="#2D1F04"/>
<path d="M103.5 161.03C103.5 161.03 110.4 167.39 108.53 178.48C106.28 177.55 103.57 177.93 103.57 177.93C103.57 177.93 104.9 165.6 97.53 163.66C98.69 162.11 103.5 161.03 103.5 161.03Z" fill="#2D1F04"/>
<path d="M154.03 38.6299C154.03 38.6299 146.82 28.9799 151.78 15.4199C154.4 17.1199 157.92 17.2699 157.92 17.2699C157.92 17.2699 153.35 32.5299 162.2 36.7099C160.36 38.3899 154.03 38.6299 154.03 38.6299Z" fill="#2D1F04"/>
<path d="M344.93 109.21C344.93 109.21 333.05 111.26 323.22 100.69C325.93 99.1301 327.66 96.0601 327.66 96.0601C327.66 96.0601 339.19 107.05 346.92 101.07C347.59 103.47 344.93 109.21 344.93 109.21Z" fill="#2D1F04"/>
<path d="M202.31 24.8099C202.31 24.8099 190.33 40.1399 167.1 38.1699C168.64 33.3699 167.38 27.8199 167.38 27.8199C167.38 27.8199 193.08 28.4699 195.85 12.9199C199.26 15.0599 202.31 24.8099 202.31 24.8099Z" fill="#2D1F04"/>
<path d="M126.04 186.26C126.04 186.26 118.43 187.72 116.64 190.04C121.36 191.35 123.94 195.15 125.33 199.24L133.08 197.16C130.4 190.15 126.04 186.26 126.04 186.26Z" fill="#2D1F04"/>
<path d="M16.99 167.44C16.99 167.44 21.07 174.03 23.88 174.87C23.42 169.99 26.05 166.23 29.38 163.47L24.68 156.97C19.07 161.98 16.99 167.44 16.99 167.44Z" fill="#2D1F04"/>
<path d="M77.24 293.96C77.24 293.96 72.68 287.69 69.82 287.06C70.64 291.89 68.3 295.84 65.19 298.83L70.37 304.96C75.57 299.56 77.24 293.96 77.24 293.96Z" fill="#2D1F04"/>
<path d="M49.33 236.39C51 241.28 50.54 246.69 50.54 246.69C50.54 246.69 53.98 246.31 56.87 247.52C57.63 242.43 56.82 238.12 55.53 234.73L49.33 236.39Z" fill="#2D1F04"/>
<path d="M123.95 129.37L122.38 126.27L118.94 126.8L121.41 124.35L119.84 121.24L122.94 122.83L125.4 120.38L124.85 123.82L127.94 125.41L124.51 125.94L123.95 129.37Z" fill="#2D1F04"/>
<path d="M337.21 85.2499L333.75 84.8899L332.34 88.0699L331.61 84.6699L328.16 84.3099L331.16 82.5699L330.44 79.1699L333.02 81.4899L336.03 79.7399L334.62 82.9199L337.21 85.2499Z" fill="#2D1F04"/>
<path d="M269.57 34.14L266.94 27.01L259.34 27.3L265.32 22.59L262.69 15.46L269.01 19.69L274.99 14.98L272.92 22.3L279.24 26.53L271.64 26.82L269.57 34.14Z" fill="#2D1F04"/>
<path d="M146.96 49.7303L145.87 46.7803L142.73 46.9003L145.2 44.9503L144.11 42.0003L146.73 43.7503L149.2 41.8003L148.34 44.8303L150.96 46.5803L147.81 46.7003L146.96 49.7303Z" fill="#2D1F04"/>
<path d="M117.93 211.21L112.74 210.37L110.33 215.04L109.53 209.84L104.35 209L109.04 206.63L108.24 201.44L111.94 205.17L116.63 202.81L114.23 207.48L117.93 211.21Z" fill="#2D1F04"/>
<path d="M292.34 83.5501L291.76 80.2101L288.41 79.7301L291.41 78.1501L290.83 74.8101L293.26 77.1701L296.26 75.5901L294.76 78.6301L297.2 81.0001L293.84 80.5101L292.34 83.5501Z" fill="#2D1F04"/>
<path d="M42.213 281.833L38.5424 282.372L39.823 291.098L43.4937 290.559L42.213 281.833Z" fill="#2D1F04"/>
<path d="M280.376 79.178L272.866 81.7856L273.965 84.9504L281.475 82.3428L280.376 79.178Z" fill="#2D1F04"/>
<path d="M345.374 61.4423L342.032 61.6748L342.584 69.6057L345.926 69.3732L345.374 61.4423Z" fill="#2D1F04"/>
<path d="M76.14 142.63L79.11 146.23L71.75 145.62L76.14 142.63Z" fill="#2D1F04"/>
<path d="M123.512 162.807L116.222 165.977L117.558 169.049L124.848 165.879L123.512 162.807Z" fill="#2D1F04"/>
<path d="M51.219 163.548L47.9045 164.034L49.0581 171.9L52.3726 171.414L51.219 163.548Z" fill="#2D1F04"/>
<path d="M278.28 200.06L274.87 199.92L278.88 196.62L278.28 200.06Z" fill="#2D1F04"/>
<path d="M159.804 46.8754L151.938 48.0298L152.424 51.3443L160.29 50.1899L159.804 46.8754Z" fill="#2D1F04"/>
<path d="M144.306 58.3688L136.955 61.3945L138.23 64.4923L145.581 61.4665L144.306 58.3688Z" fill="#2D1F04"/>
<path d="M293.06 21.3799L289.65 21.5799L293.32 17.8999L293.06 21.3799Z" fill="#2D1F04"/>
<path d="M280.609 45.9945L279.627 53.8833L282.951 54.297L283.933 46.4082L280.609 45.9945Z" fill="#2D1F04"/>
<path d="M356.45 154.3L353.56 159.62L347.84 152.41L356.45 154.3Z" fill="#2D1F04"/>
<path d="M32.61 144.21C32.61 144.21 37.17 146.12 38.24 151.96C36.96 151.9 35.68 152.58 35.68 152.58C35.68 152.58 34.12 146.23 30.12 146.59C30.43 145.61 32.61 144.21 32.61 144.21Z" fill="#2D1F04"/>
<path d="M269.29 53.2699C271.262 53.2699 272.86 51.6715 272.86 49.6999C272.86 47.7282 271.262 46.1299 269.29 46.1299C267.318 46.1299 265.72 47.7282 265.72 49.6999C265.72 51.6715 267.318 53.2699 269.29 53.2699Z" fill="#2D1F04"/>
<path d="M315.53 146.87C317.33 146.87 318.79 145.411 318.79 143.61C318.79 141.81 317.33 140.35 315.53 140.35C313.73 140.35 312.27 141.81 312.27 143.61C312.27 145.411 313.73 146.87 315.53 146.87Z" fill="#2D1F04"/>
<path d="M349.81 87.6401C351.351 87.6401 352.6 86.3909 352.6 84.8501C352.6 83.3092 351.351 82.0601 349.81 82.0601C348.269 82.0601 347.02 83.3092 347.02 84.8501C347.02 86.3909 348.269 87.6401 349.81 87.6401Z" fill="#2D1F04"/>
<path d="M55.29 301.64C57.7587 301.64 59.76 299.639 59.76 297.17C59.76 294.701 57.7587 292.7 55.29 292.7C52.8213 292.7 50.82 294.701 50.82 297.17C50.82 299.639 52.8213 301.64 55.29 301.64Z" fill="#2D1F04"/>
<path d="M89.72 171.9C91.1118 171.9 92.24 170.772 92.24 169.38C92.24 167.988 91.1118 166.86 89.72 166.86C88.3283 166.86 87.2 167.988 87.2 169.38C87.2 170.772 88.3283 171.9 89.72 171.9Z" fill="#2D1F04"/>
<path d="M125.25 139.72C126.697 139.72 127.87 138.547 127.87 137.1C127.87 135.653 126.697 134.48 125.25 134.48C123.803 134.48 122.63 135.653 122.63 137.1C122.63 138.547 123.803 139.72 125.25 139.72Z" fill="#2D1F04"/>
<path d="M100.75 193.47C102.23 193.47 103.43 192.27 103.43 190.79C103.43 189.31 102.23 188.11 100.75 188.11C99.2699 188.11 98.07 189.31 98.07 190.79C98.07 192.27 99.2699 193.47 100.75 193.47Z" fill="#2D1F04"/>
<path d="M23.18 205.19C24.7154 205.19 25.96 203.945 25.96 202.41C25.96 200.875 24.7154 199.63 23.18 199.63C21.6447 199.63 20.4 200.875 20.4 202.41C20.4 203.945 21.6447 205.19 23.18 205.19Z" fill="#2D1F04"/>
<path d="M61.63 284.26L59.05 277.19L51.53 277.46L57.45 272.83L54.87 265.76L61.11 269.96L67.04 265.32L64.97 272.56L71.21 276.76L63.69 277.03L61.63 284.26Z" fill="#2D1F04"/>
<path d="M142.53 303.07C142.53 303.32 144.33 305.09 144.34 305.33C140.79 312.31 131.59 322.49 122.91 322.66C115.03 322.82 105.19 315.46 98.31 303.73C77.49 268.19 75.67 229.72 71.05 220.53C68.56 215.56 65.5 211.4 65.05 206.9C64.87 205.08 65.04 200.83 69.53 200.7C72.16 198.07 74.6 196.15 76.89 198.05C82.64 202.79 86.47 211.39 90.8 218.28C95.23 225.34 107.44 238.96 119.92 260.39C125.35 249.14 129.96 241.54 134.56 234.54C138.11 238.05 146.97 244.84 154.52 248C154.53 247.97 154.53 247.94 154.54 247.9C154.65 250.68 155.06 253.22 155.93 255.32C147.3 274.01 142.82 296.1 142.53 303.07Z" fill="#2D1F04"/>
<path d="M87.83 213.19C83.86 217.9 75.66 220.07 71.52 220.32C69.04 215.35 65.98 211.2 65.53 206.71C65.34 204.89 65.52 200.63 70.01 200.49C70.73 196.05 75.07 195.94 77.37 197.84C81.84 201.55 85.26 207.24 87.83 213.19Z" fill="#2D1F04"/>
<path d="M167.1 203.03C166.67 205.81 166.08 209.1 165.65 211.23C164.9 211.29 162.42 214.02 161.8 214.96C160.6 216.78 162.34 218.85 162.1 219.85C161.9 220.7 158.43 243.34 155.95 255.33C142.63 251.7 132.16 244.65 128.61 241.14C128.35 240.88 128.09 240.67 127.87 240.45C126.85 239.46 132.5 231.87 134.61 226.16C142.94 203.72 156.78 201.57 167.09 203.04L167.1 203.03Z" fill="#2D1F04"/>
<path d="M346.09 243.16C345.48 246.43 320.44 273.98 320.67 285.97C320.88 296.8 324.71 315.18 322.14 324.32C277.17 324.32 170.93 324.32 139.55 324.32C139.25 322.42 140.25 312.21 141.47 303.25C144.03 284.37 147.2 269.66 155.98 255.32C154.71 252.25 154.4 248.2 154.63 243.89C155.33 231.66 160.49 217.23 160.57 216.36C160.67 215.34 158.64 213.54 159.56 211.57C160.04 210.55 162.09 207.49 162.82 207.32C163.04 207.26 163.14 207.47 163.05 208.05C172.95 210.9 182.9 212.58 192.35 213.44C196.51 213.77 200.97 213.99 203.85 214.14C206.96 214.3 212.66 214.71 218.36 214.48C235.78 213.79 248.42 210.81 250.85 209.57C255.36 207.56 267.23 204.71 275.96 198.15C278.55 196.2 279.93 192.57 282.06 190.83C287.85 186.08 296.06 185.72 302.35 186.48C303.96 186.67 306.39 187.44 307.6 187.92C323.08 194.04 338.11 214.48 343.59 236.09C344.24 238.7 346.89 238.87 346.09 243.16Z" fill="#2D1F04"/>
<path opacity="0.23" d="M147.24 273.38C150.62 269.35 156.46 266.79 158.49 265.51C162.8 262.79 168.13 262.54 172.91 263.22C185.84 265.07 209.28 272.38 222.49 274.12C246.61 277.29 267.53 268.4 265.06 264.8C262.98 261.78 226.94 270.83 213.37 266.12C201.32 261.94 182.46 261.21 170.06 259.14C167.09 258.64 157.35 256.15 154.85 251.64C154.94 253.61 155.33 254.2 155.98 255.32C154.85 257.78 151.32 262.2 147.24 273.38Z" fill="#2D1F04"/>
<path d="M302.65 185.94C296.36 185.18 287.91 186.2 281.74 191.07C279.34 192.97 277.3 197.57 274.46 199.43C265.62 205.24 255.04 207.78 250.68 209.73C248.25 210.97 235.6 213.84 218.19 214.64C207.87 215.11 201.97 215.09 192.18 214.06C182.74 213.06 172.78 211.52 162.88 208.67C162.97 208.09 162.87 207.87 162.65 207.94C162.77 205.77 162.86 202.44 162.88 199.62H162.87C162.88 196.94 162.82 194.51 162.6 194.44C161.87 194.57 161.37 195.29 161.12 196.12C159.12 192.44 162.01 189.35 161.75 187.27C161.7 186.8 160.53 187.42 159.78 189.04C159.46 185.95 160.64 185.01 160.48 183.9C160.16 181.65 158.74 179.35 157.74 177.37C146.44 154.74 125.22 110.71 158.82 79.9202C156.59 76.8402 152.02 78.5402 152.02 78.5202C152.02 74.0002 159.26 69.2202 169.13 70.3202C169.45 69.8302 165.81 66.3002 169.48 61.4202C170.11 65.0202 173.39 68.4502 174.19 66.6602C176.35 56.8902 182.54 51.4602 191.48 49.7202C188.69 52.1602 187.49 57.4302 188.87 62.1202C188.9 62.1202 191.69 56.0302 194.98 54.6102C192.03 60.3302 194.88 63.3702 196.65 63.8002C198.05 64.1502 204.04 60.9902 203.88 58.1002C205.6 58.6702 205.28 62.2402 220.3 67.1702C284.08 88.1202 302.59 148.51 302.65 185.94Z" fill="#2D1F04"/>
<path d="M228.15 285.03C228 284.81 227.86 284.59 227.71 284.37L228.15 285.03Z" fill="#2D1F04"/>
<path d="M143.52 113.39C145.65 104.74 156.34 98.2799 162.82 93.8299C170.38 88.6299 197.83 83.2499 192.4 75.4399C201.89 76.6499 208.74 85.0699 216.96 85.0999C225.54 85.1299 244.75 90.2399 258.89 110.29C261.73 114.32 274.23 149.2 246.85 167.52C225.91 181.52 177.02 185.94 155.6 158.88C145.56 146.2 140.68 129.57 143.52 113.39Z" fill="#2D1F04"/>
<path d="M187.5 111.61C180.27 108 174.69 126.09 174.1 131.34C172.59 144.67 177.07 151.55 184.89 153.89C192.71 156.23 202.58 154.97 210.21 150.09C229.44 137.79 208.98 105.91 196.41 110.94" fill="#2D1F04"/>
<path d="M145.98 141.75C158.73 140.72 189 126.19 173.22 87.79C164.59 88.95 156.5 91.93 146.64 100.68C140.17 114.92 142.21 130.02 145.98 141.75Z" fill="#2D1F04"/>
<path d="M213.83 87.8003C201.25 147.15 263.38 142.76 263.38 142.76C263.38 142.76 268.45 120.59 255.43 103.92C247.47 93.7303 230.83 86.6203 213.83 87.8003Z" fill="#2D1F04"/>
<path d="M180.83 187.67L180.79 193.67" stroke="#2D1F04" stroke-width="3.87" stroke-miterlimit="10" stroke-linecap="round" stroke-linejoin="round"/>
<path d="M174.77 190.79L174.73 196.78" stroke="#2D1F04" stroke-width="3.87" stroke-miterlimit="10" stroke-linecap="round" stroke-linejoin="round"/>
<path opacity="0.23" d="M153.17 76.6499C153.05 76.7199 152.95 76.7799 152.88 76.8399C152.83 76.8799 152.81 76.9599 152.81 77.0799" fill="#2D1F04"/>
<path opacity="0.23" d="M346.09 243.17C345.97 243.82 344.89 245.41 343.25 247.64C343.2 247.52 343.15 247.39 343.1 247.27C340.36 249.97 336.23 252.4 331.49 254.51C334.41 250.72 330.68 244.6 327.33 243.89C324.86 233.69 320.38 219.32 313.28 206.91C304.3 191.18 290.42 185.97 280.6 192.42C281.06 191.82 281.54 191.29 282.05 190.85C287.84 186.11 296.05 185.74 302.34 186.51C303.96 186.7 306.38 187.47 307.59 187.94C323.07 194.07 338.09 214.5 343.58 236.11C344.24 238.7 346.89 238.87 346.09 243.17Z" fill="#2D1F04"/>
<path d="M218.35 214.68C235.76 213.9 244.06 211.88 250.84 209.76C256.83 207.89 262.21 205.83 266.96 203.54" stroke="#2D1F04" stroke-width="2.62" stroke-miterlimit="10" stroke-linecap="round" stroke-linejoin="round"/>
<path d="M163.04 208.7C172.93 211.54 182.86 213.22 192.31 214.09" stroke="#2D1F04" stroke-width="2.62" stroke-miterlimit="10" stroke-linecap="round" stroke-linejoin="round"/>
<path d="M163.03 208.77C163.14 208.13 163.04 207.91 162.81 207.97C162.08 208.14 160.03 211.2 159.55 212.22C158.63 214.2 160.65 215.99 160.56 217.01C160.45 218.18 151.06 244.17 155.97 255.97" stroke="#2D1F04" stroke-width="2.62" stroke-miterlimit="10" stroke-linecap="round" stroke-linejoin="round"/>
<path d="M182.33 112.02C182.22 109.59 186.64 107.37 192.2 107.08C197.76 106.78 202.37 108.52 202.48 110.95C202.59 113.38 198.17 115.6 192.61 115.89C187.04 116.19 182.44 114.46 182.33 112.02Z" fill="#2D1F04"/>
<path d="M190.07 223.72C178.12 222.61 166.93 220.28 161.05 216.41" stroke="#2D1F04" stroke-width="2.62" stroke-miterlimit="10" stroke-linecap="round" stroke-linejoin="round"/>
<path d="M265.25 215.48C252.8 221.46 240.72 224.03 221.31 223.96" stroke="#2D1F04" stroke-width="2.62" stroke-miterlimit="10" stroke-linecap="round" stroke-linejoin="round"/>
<path d="M169.46 210.8C168.89 212.51 168.29 213.83 168.29 215.71" stroke="#2D1F04" stroke-width="2.62" stroke-miterlimit="10" stroke-linecap="round" stroke-linejoin="round"/>
<path d="M179.97 212.91C179.19 214.48 179.04 216.55 179.04 218.28" stroke="#2D1F04" stroke-width="2.62" stroke-miterlimit="10" stroke-linecap="round" stroke-linejoin="round"/>
<path d="M231.36 214.54V215.01V215.48V216.41V216.88" stroke="#2D1F04" stroke-width="2.62" stroke-miterlimit="10" stroke-linecap="round" stroke-linejoin="round"/>
<path d="M234.87 214.54V215.24V215.94V216.41" stroke="#2D1F04" stroke-width="2.62" stroke-miterlimit="10" stroke-linecap="round" stroke-linejoin="round"/>
<path d="M162.84 202.46C162.98 198.91 163.04 194.56 162.77 194.46C162.04 194.59 161.54 195.31 161.29 196.15C159.29 192.47 162.18 189.38 161.92 187.3C161.86 186.83 160.69 187.45 159.95 189.08C159.63 185.98 160.82 185.05 160.66 183.93C160.34 181.68 158.91 179.39 157.92 177.4C146.61 154.77 125.39 110.73 159 79.94C156.76 76.86 152.19 78.56 152.19 78.54C152.19 74.03 159.43 69.24 169.3 70.33C169.62 69.85 165.98 66.31 169.65 61.43C170.28 65.03 173.57 68.46 174.36 66.67C176.52 56.9 182.71 51.47 191.64 49.73C188.85 52.17 187.64 57.45 189.02 62.13C189.02 62.2 191.81 56.06 195.13 54.62C191.75 59.76 194.87 63.33 196.64 63.77C198.04 64.12 204.19 61 204.04 58.11C205.76 58.68 205.45 62.26 220.45 67.19C284.34 88.18 302.69 148.53 302.69 185.95" stroke="#2D1F04" stroke-width="2.62" stroke-miterlimit="10" stroke-linecap="round" stroke-linejoin="round"/>
<path d="M162.56 206.9C162.64 206.48 162.76 204.62 162.85 202.46" stroke="#2D1F04" stroke-width="2.62" stroke-miterlimit="10" stroke-linecap="round" stroke-linejoin="round"/>
<path opacity="0.23" d="M204.29 278.15C204.12 278.07 203.95 277.98 203.78 277.9L204.29 278.15Z" fill="#2D1F04"/>
<path d="M277.16 196.64C281.45 187.74 292.87 186.09 299.22 186.2C317.35 186.53 337.28 210.54 343.58 236.1C344.82 237.24 345.77 239.4 346.07 241.13C346.78 245.29 343.38 247.24 341.18 248.36" stroke="#2D1F04" stroke-width="2.62" stroke-miterlimit="10" stroke-linecap="round" stroke-linejoin="round"/>
<path opacity="0.23" d="M302.65 185.94C296.69 185.22 288.94 185.77 283.98 191.07C281.7 162.82 278.47 124.1 256.95 99.3102C241.79 81.8502 223.24 75.0502 207.27 73.6402C205.9 73.5202 203.42 71.3702 201.43 71.5902C201.75 72.5402 201.05 73.3502 199.99 73.3602C198.53 73.3802 195.56 72.6702 196.07 70.0602C193.22 70.4002 192.49 73.7902 190.93 73.9802C189.33 74.1802 186.88 70.7002 183.29 71.0402C185.22 73.7902 182.58 76.0602 180.58 76.8502C178.19 77.8002 176.67 76.6302 177.26 75.1102C174.77 75.4302 173.96 77.7802 168.86 80.2202C161.02 83.9702 153.33 88.8702 146.86 95.1902C149.68 89.8602 153.6 84.7102 158.86 79.9002C156.63 76.8202 152.06 78.5202 152.06 78.5002C152.06 73.9802 159.3 69.2002 169.17 70.3002C169.49 69.8102 165.86 66.2802 169.52 61.4002C170.15 65.0002 173.43 68.4302 174.23 66.6402C176.39 56.8702 182.58 51.4402 191.52 49.7002C188.73 52.1402 187.53 57.4102 188.91 62.1002C188.94 62.1002 191.73 56.0102 195.02 54.5902C192.03 60.1302 194.91 63.3502 196.69 63.7802C198.09 64.1302 204.08 60.9702 203.93 58.0802C205.65 58.6502 205.33 62.2202 220.35 67.1502C284.08 88.1202 302.59 148.51 302.65 185.94Z" fill="#2D1F04"/>
<path d="M179.93 89.7002C153.1 90.2302 137.55 110.73 137.55 110.73" stroke="#2D1F04" stroke-width="7.6" stroke-miterlimit="10" stroke-linecap="round" stroke-linejoin="round"/>
<path d="M207.86 87.6901C244.87 87.3401 258.84 107.24 258.84 107.24" stroke="#2D1F04" stroke-width="7.6" stroke-miterlimit="10" stroke-linecap="round" stroke-linejoin="round"/>
<path d="M256.75 85.1902C254.77 90.7502 235.46 86.6602 219.22 80.2002C215.86 78.8602 212.64 77.4302 209.73 75.9502C201.28 71.6902 195.46 67.1102 196.64 63.7802L201.61 59.3902L217.03 45.7702L229.23 34.9902L234.15 30.6402L247.12 19.1802L248.92 31.5002L251.79 51.1502L256.75 85.1902Z" fill="#2D1F04"/>
<path d="M218.39 50.92C218.39 56.73 213.67 61.44 207.86 61.44C205.52 61.44 203.37 60.68 201.62 59.39L217.04 45.77C217.9 47.3 218.39 49.05 218.39 50.92Z" fill="#2D1F04"/>
<path d="M239.48 35.7801C239.48 38.6301 237.16 40.9301 234.33 40.9301C231.48 40.9301 229.17 38.6201 229.17 35.7801C229.17 35.5101 229.19 35.2501 229.24 34.9801L234.16 30.6301C234.21 30.6201 234.28 30.6201 234.33 30.6201C237.16 30.6301 239.48 32.9301 239.48 35.7801Z" fill="#2D1F04"/>
<path d="M244.97 74.0301C249.035 74.0301 252.33 70.7349 252.33 66.6701C252.33 62.6052 249.035 59.3101 244.97 59.3101C240.905 59.3101 237.61 62.6052 237.61 66.6701C237.61 70.7349 240.905 74.0301 244.97 74.0301Z" fill="#2D1F04"/>
<path d="M251.79 51.14C247.75 49.23 244.97 45.12 244.97 40.36C244.97 36.84 246.5 33.68 248.92 31.5L251.79 51.14Z" fill="#2D1F04"/>
<path d="M224.75 72.6701C224.75 76.2001 222.42 79.1901 219.23 80.1901C215.87 78.8501 212.65 77.4201 209.74 75.9401C209.27 74.9401 209.02 73.8401 209.02 72.6701C209.02 68.3201 212.55 64.8101 216.89 64.8101C221.22 64.8101 224.75 68.3201 224.75 72.6701Z" fill="#2D1F04"/>
<path opacity="0.23" d="M162.1 219.84C161.89 220.7 157.04 236 154.56 248C154.55 247.97 154.55 247.94 154.55 247.91C154.54 247.94 154.54 247.96 154.53 247.99C154.54 247.99 154.55 248 154.56 248C154.67 250.75 155.09 253.25 155.94 255.32C147.3 274.01 142.81 296.1 142.53 303.07C142.53 303.32 144.32 305.08 144.34 305.33C140.79 312.3 131.59 322.48 122.91 322.66C115.03 322.81 105.19 315.46 98.32 303.72C77.5 268.18 75.69 229.71 71.07 220.52C68.58 215.55 65.52 211.4 65.07 206.89C64.88 205.07 65.06 200.82 69.55 200.68C71.2 208.04 75.05 213.02 77.2 219.27C79.64 226.36 80.43 234.89 83.34 246.75C88.82 269.12 97.16 285.84 109.11 303.59C121.04 321.32 132.81 302.49 136.32 292.71C140.86 280.06 146.48 262.93 147.77 255.33C148.19 252.91 149.01 248.54 149.55 245.6C149.57 245.49 149 245.34 149.02 245.23C149.02 245.23 149.01 245.22 149.02 245.21C150.15 239.04 151.95 232.09 155.87 225.63L161.9 218.66C162.06 219.13 162.17 219.53 162.1 219.84Z" fill="#2D1F04"/>
<path opacity="0.32" d="M247.13 19.1699L211.35 76.7499C207 74.6499 203.24 72.4499 200.59 70.3399L247.13 19.1699Z" fill="#2D1F04"/>
<path d="M256.75 85.1899L247.13 19.1699L196.65 63.7799C193.08 73.7999 253.18 95.2099 256.75 85.1899Z" stroke="#2D1F04" stroke-width="2.62" stroke-miterlimit="10" stroke-linecap="round" stroke-linejoin="round"/>
<path opacity="0.23" d="M256.75 85.2002C255.7 88.1602 246.34 90.4202 218.48 79.9002C234.08 83.9102 242.26 81.7402 242.68 76.0502C243.76 61.4702 247.13 19.1802 247.13 19.1802L256.75 85.2002Z" fill="#2D1F04"/>
<path d="M147.37 115.37C148.91 110.09 153.96 105.7 159.67 105.64C161.63 105.58 163.62 106.13 165.29 107.13C167.51 108.42 169.11 110.34 170.21 112.37C170.55 113.01 170.32 113.8 169.68 114.15C169.16 114.43 168.53 114.32 168.13 113.93C166.59 112.59 165.07 111.42 163.46 110.76C158.13 108.52 152.85 112.3 149.7 116.55C148.84 117.68 146.96 116.73 147.37 115.37Z" fill="#2D1F04"/>
<path d="M244.62 112.79C238.31 105.95 231.04 104.5 224.33 111.75C223.37 112.82 221.58 111.7 222.12 110.38C223.91 105.31 229.26 101.26 234.89 102.08C240.33 102.7 244.95 106.54 246.86 111.47C247.39 112.83 245.54 113.9 244.62 112.79Z" fill="#2D1F04"/>
<path d="M203.41 138.03C201.52 142.66 198.03 145.58 193.03 146.3C187.83 147.04 184.92 144.3 183.57 139.18C182.81 136.27 182.55 132.58 182.68 128.32C186.16 129.19 191.18 127.99 191.72 123.9C192.88 129.21 200.67 129.82 205.03 127.41C205.15 131.55 204.59 135.12 203.41 138.03Z" fill="#2D1F04"/>
<path d="M203.41 138.03C201.52 142.66 198.03 145.58 193.03 146.3C187.83 147.04 184.92 144.3 183.57 139.18C185.67 137.07 189.69 135.88 193.57 137.42C195.83 135.65 200.8 135.61 203.41 138.03Z" fill="#2D1F04"/>
<path opacity="0.23" d="M203.41 138.02C201.52 142.65 198.03 145.57 193.03 146.3C189.12 146.86 186.51 145.45 184.88 142.54C187.95 143.86 191.64 143.84 193.57 142.83C195.92 141.61 198.51 138.84 199.32 136.24C200.85 136.45 202.34 137.02 203.41 138.02Z" fill="#2D1F04"/>
<path d="M205.04 127.42C205.08 129.01 205.1 129.76 204.94 131.19C200.83 133.51 186.04 134.5 182.69 132.33C182.62 130.87 182.64 129.97 182.69 128.33C186.17 129.2 191.19 128 191.73 123.91C192.89 129.21 200.67 129.83 205.04 127.42Z" fill="#2D1F04"/>
<path d="M204.94 131.19C200.83 133.51 186.04 134.5 182.68 132.32C182.61 130.86 182.64 129.97 182.68 128.32C184.11 128.68 185.81 128.69 187.35 128.27L187.39 128.71C184.12 129.21 184.72 130.56 184.68 131.44C184.61 132.75 186.55 133.07 189.68 133.17C192.8 133.27 196.35 132.86 198.08 132.6C199.82 132.35 200.1 131.96 200 131.28C199.82 129.92 195.93 130.89 194.33 128.09L194.45 127.55C197.41 129.3 202.04 129.07 205.03 127.41C205.08 129.01 205.1 129.76 204.94 131.19Z" fill="#2D1F04"/>
<path d="M205.04 127.42C205.31 138.12 201.17 145.13 193.03 146.3C189.36 146.83 186.83 145.62 185.19 143.05C183.19 139.92 184.89 134.56 182.69 128.32" stroke="#2D1F04" stroke-width="2.6" stroke-miterlimit="10" stroke-linecap="round" stroke-linejoin="round"/>
<path d="M192.07 138.71C193.27 137.45 194.79 136.3 197.44 136.14C200.49 135.96 202.2 136.87 203.41 138.02" stroke="#2D1F04" stroke-width="2.6" stroke-miterlimit="10" stroke-linecap="round" stroke-linejoin="round"/>
<path d="M184.13 139.18C185.63 137.38 189.28 135.71 193.57 137.42" stroke="#2D1F04" stroke-width="2.6" stroke-miterlimit="10" stroke-linecap="round" stroke-linejoin="round"/>
<path d="M179.93 126.29C182.33 129.64 191 129.27 191.73 122.94C193.27 131.08 206.37 129.72 207.87 123.3" stroke="#2D1F04" stroke-width="2.6" stroke-miterlimit="10" stroke-linecap="round" stroke-linejoin="round"/>
<path d="M130.23 281.46C118.06 252.71 95.49 226.2 90.81 218.28C86.66 211.27 82.67 202.79 76.93 198.05C74.63 196.15 72.2 198.06 69.56 200.69C65.07 200.83 64.89 205.08 65.08 206.9C65.54 211.4 68.6 215.55 71.09 220.53C75.71 229.72 76.51 268.8 98.32 303.74C107 317.64 115.03 322.83 122.92 322.67C130.2 322.52 136.25 316.75 140.5 311.22" stroke="#2D1F04" stroke-width="2.62" stroke-miterlimit="10" stroke-linecap="round" stroke-linejoin="round"/>
<path d="M119.92 260.39C123.45 253.06 126.6 247.36 129.64 242.35" stroke="#2D1F04" stroke-width="2.62" stroke-miterlimit="10" stroke-linecap="round" stroke-linejoin="round"/>
<path d="M122.39 65.09C123.88 95.61 104.62 135.39 75.77 140.66C74.59 140.88 73.39 141.04 72.18 141.13C70.82 141.24 69.47 141.28 68.11 141.24H68.1C52.62 140.86 37.82 131.33 27.26 116.72C17.84 103.67 11.82 86.57 11.73 68.29C11.55 27.76 35.2 10.65 65.11 10.06C81.1 9.75004 93.31 13.56 102.27 20.33C115.3 30.17 121.47 46.26 122.39 65.09Z" fill="#2D1F04"/>
<g opacity="0.68">
<path d="M45.8 56.8696C50.95 57.0096 55.99 57.0496 61.03 57.3096C65.16 57.5296 66.64 60.5296 66.79 63.4496C67 67.4696 65.22 70.2596 61.76 71.7196C61.58 71.7996 61.39 71.8496 61.01 71.9696C65.08 74.4696 65.53 79.5196 67.92 83.6896C64.99 83.6896 62.39 83.6896 59.65 83.6896C58.37 80.9796 57.13 78.1696 55.89 75.3796C55.21 73.8496 54.31 72.7096 52.31 73.1696C52.17 76.6196 52.06 80.1396 52.06 83.7596C49.57 83.7596 47.34 83.7596 44.98 83.7596C45.01 74.8796 45.58 66.0596 45.8 56.8696ZM52.82 62.4896C52.75 64.2896 52.68 65.9596 52.6 67.9696C54.17 67.8696 55.71 67.8696 57.24 67.6496C58.58 67.4496 59.33 66.4596 59.42 65.1496C59.51 63.7696 58.79 62.6896 57.36 62.5296C55.89 62.3596 54.4 62.4896 52.82 62.4896Z" fill="#2D1F04"/>
<path d="M88.9301 64.5198C86.6201 64.6898 84.4801 64.8498 82.2101 65.0198C81.9601 62.7698 80.8301 61.5698 78.8601 61.5298C77.5901 61.4998 76.51 61.9298 76.02 63.4798C76.03 64.7798 76.8101 65.2198 77.7201 65.4898C79.4001 65.9898 81.0901 66.4398 82.7401 66.9798C83.6601 67.2798 84.5501 67.6798 85.4101 68.1298C90.8601 71.0198 89.9101 78.6298 85.8801 81.9398C84.5501 83.0298 82.8501 83.7598 81.2501 84.0798C78.6401 84.5998 75.9501 84.4998 73.3501 83.7098C69.9301 82.6698 67.77 79.3898 67.88 75.0198C70.0601 74.8798 72.2501 74.7498 74.5301 74.6098C74.6501 75.1398 74.7401 75.6198 74.8701 76.0898C75.5901 78.6198 77.9101 79.8098 80.1501 78.8298C81.1601 78.3898 81.8801 77.5998 81.9801 76.3698C82.0701 75.2398 81.5201 74.3998 80.6401 73.9598C79.8901 73.5898 79.0801 73.3398 78.3001 73.0598C76.6601 72.4698 74.9601 72.0298 73.3901 71.2898C70.3501 69.8498 68.9101 67.2898 69.1801 64.2798C69.4801 60.9198 71.5501 58.2298 74.8501 57.2398C77.9601 56.2998 81.1001 56.2698 84.1601 57.3098C87.3501 58.3798 88.8301 60.5498 88.9301 64.5198Z" fill="#2D1F04"/>
</g>
<path d="M80.94 149.43C78.83 151.09 74.38 148.16 72.63 147.7C70.87 147.24 68.64 149.32 66.2 150.13C63.78 150.94 62.45 149.19 62.93 147.2C63.39 145.28 67.71 143.25 68.11 141.24C69.47 141.28 70.82 141.24 72.18 141.13C73.39 141.03 74.59 140.87 75.77 140.66C76.47 142.22 79.01 143.78 80.36 144.38C81.78 145.01 83.06 147.77 80.94 149.43Z" fill="#2D1F04"/>
<path opacity="0.23" d="M122.39 65.0901C123.95 96.8601 103.02 138.67 72.18 141.13C70.81 141.24 69.45 141.28 68.1 141.24C52.62 140.86 37.82 131.33 27.27 116.72C41.96 124.55 55.38 126 71.15 117.38C99.3 101.98 113.62 62.8701 102.28 20.3301C115.29 30.1701 121.47 46.2701 122.39 65.0901Z" fill="#2D1F04"/>
<path opacity="0.32" d="M52.08 58.2598C47.49 66.0198 46.17 88.5798 29.98 80.6998C21.14 76.3898 18.92 54.4898 26.77 40.4998C36.44 23.2798 54.79 15.2498 64.37 23.0598C79.72 35.5598 56.67 50.4898 52.08 58.2598Z" fill="#2D1F04"/>
<path opacity="0.23" d="M80.94 149.43C78.83 151.09 74.38 148.16 72.63 147.7C70.87 147.24 68.64 149.32 66.2 150.13C63.78 150.94 62.45 149.19 62.93 147.2C63.39 145.28 67.71 143.25 68.11 141.24C69.47 141.28 70.82 141.24 72.18 141.13C73.39 141.03 74.59 140.87 75.77 140.66C76.47 142.22 79.01 143.78 80.36 144.38C81.78 145.01 83.06 147.77 80.94 149.43Z" fill="#2D1F04"/>
<path d="M75.77 140.66C73.76 141.09 70.55 141.23 68.11 141.24C60.34 146 73.97 172.01 77.52 181.9C82.86 196.78 82.07 215.59 58.89 214.09" stroke="#2D1F04" stroke-width="2.62" stroke-miterlimit="10" stroke-linecap="round" stroke-linejoin="round"/>
<path d="M62.89 206.17C71.27 216.96 84.93 219.18 86.29 218.09C87.65 217 87.13 201.08 80.17 194.2C76.81 190.88 69.49 193.38 68.5 198.39C62.36 198.65 61.45 204.32 62.89 206.17Z" fill="#2D1F04"/>
<path d="M62.89 206.17C71.27 216.96 84.93 219.18 86.29 218.09C87.65 217 87.13 201.08 80.17 194.2C76.82 190.89 69.57 193.67 68.5 198.39C62.87 199.24 61.44 204.31 62.89 206.17Z" stroke="#2D1F04" stroke-width="2.62" stroke-miterlimit="10" stroke-linecap="round" stroke-linejoin="round"/>
<path d="M68.5 198.39C75.69 202.04 81.92 210.34 86.29 218.09" stroke="#2D1F04" stroke-width="2.62" stroke-miterlimit="10" stroke-linecap="round" stroke-linejoin="round"/>
<path d="M71.08 220.52C72.81 220.48 75.28 220.1 77.85 219.27" stroke="#2D1F04" stroke-width="2.62" stroke-miterlimit="10" stroke-linecap="round" stroke-linejoin="round"/>
<path d="M139.54 324.32C140.63 297.28 147.19 269.66 155.97 255.33" stroke="#2D1F04" stroke-width="2.62" stroke-miterlimit="10" stroke-linecap="round" stroke-linejoin="round"/>
<path d="M132.18 244.51C130.67 243.29 129.41 242.16 128.49 241.26C127.44 240.23 127.97 238.83 128.98 236.97C130.61 233.97 133.31 229.68 134.61 226.16C141.67 207.15 152.69 202.7 162.16 202.68" stroke="#2D1F04" stroke-width="2.62" stroke-miterlimit="10" stroke-linecap="round" stroke-linejoin="round"/>
<path d="M147.76 242.93C141.31 240.16 133.2 235 131.55 232.44" stroke="#2D1F04" stroke-width="2.62" stroke-miterlimit="10" stroke-linecap="round" stroke-linejoin="round"/>
<path d="M337.2 334.15C298.08 342.63 248.3 300.79 236.71 297.28C228.18 294.7 202.52 291.82 199.12 288.1C197.28 286.09 213.79 274.9 226.44 274.3C243.84 273.47 246.27 282.19 261.14 282.52C272.36 282.76 285.29 281.29 302.25 283.08C297.35 276.21 293.85 269.37 292.45 264.62C300.88 264.06 332.41 257.76 343.1 247.24C363.22 294.55 362.02 328.78 337.2 334.15Z" fill="#2D1F04"/>
<path d="M248.73 279.78C249.05 283.45 242.82 294.47 236.71 297.28C228.18 294.7 201.85 292.58 199.12 288.1C197.71 285.79 213.79 274.9 226.44 274.31C237.64 273.77 242.63 277.19 248.73 279.78Z" fill="#2D1F04"/>
<path opacity="0.23" d="M297.43 275.64C296.33 273.75 296.46 268.53 299.55 267.22C305.61 264.64 316.01 263.6 324.98 257.1C318.25 259.64 303.83 263.2 293.04 264.59C293.49 267.29 294.59 270.11 297.43 275.64Z" fill="#2D1F04"/>
<path opacity="0.23" d="M337.19 334.16C298.08 342.64 248.29 300.8 236.7 297.29C228.17 294.7 202.52 291.83 199.11 288.11C198.84 287.81 198.97 287.33 199.41 286.7C207.75 285.4 217.84 285.55 229.48 287.61C245.87 290.51 253.11 296.39 269.13 306.66C287.39 318.38 308.36 325.62 327.06 324.32C339.08 323.48 345.89 318.64 345.5 302.7C345.17 289.33 336.64 255.25 331.86 254.33C335.53 252.51 339.68 250.62 343.09 247.26C363.2 294.56 362.01 328.78 337.19 334.16Z" fill="#2D1F04"/>
<path d="M284.95 255.33C285.13 258.31 285.69 265.47 292.46 264.64C293.87 269.45 297.26 276.13 302.25 283.09" stroke="#2D1F04" stroke-width="2.62" stroke-miterlimit="10" stroke-linecap="round" stroke-linejoin="round"/>
<path d="M343.1 247.26C363.21 294.55 362.02 328.78 337.2 334.16C298.08 342.64 248.31 300.79 236.71 297.28C228.18 294.7 203.2 291.82 199.12 288.1C197.11 286.27 213.8 274.9 226.43 274.3C243.83 273.47 246.26 282.19 261.13 282.52C275.38 282.83 292.37 280.38 316.89 285.34" stroke="#2D1F04" stroke-width="2.62" stroke-miterlimit="10" stroke-linecap="round" stroke-linejoin="round"/>
<path d="M292.45 264.64C296.6 264.2 311.13 262.18 319.68 259.15" stroke="#2D1F04" stroke-width="2.62" stroke-miterlimit="10" stroke-linecap="round" stroke-linejoin="round"/>
<path d="M343.59 236.1C334.14 241.13 316.06 249.86 300.69 251.64" stroke="#2D1F04" stroke-width="2.62" stroke-miterlimit="10" stroke-linecap="round" stroke-linejoin="round"/>
<path d="M248.72 279.78C249.05 283.45 242.81 294.47 236.71 297.28" stroke="#2D1F04" stroke-width="2.62" stroke-miterlimit="10" stroke-linecap="round" stroke-linejoin="round"/>
<path d="M199.12 288.1C213.15 283.63 233.17 280.64 245.59 288.1" stroke="#2D1F04" stroke-width="2.62" stroke-miterlimit="10" stroke-linecap="round" stroke-linejoin="round"/>
<path opacity="0.23" d="M159.11 247.63C159.12 247.65 159.12 247.67 159.13 247.69C159.82 249.78 161.91 251.07 164.09 250.78C171.46 249.8 180.67 245.1 185.47 241.13C193.45 234.54 192.72 230.9 193.92 231.43C194.54 231.7 197.84 232.66 201.79 232.7C203.73 232.72 206.36 231.98 207.85 231.87C209.44 231.76 210.99 232.47 211.9 233.78C214.76 237.94 220.66 244.18 227.68 248.16C241.46 255.97 244.9 249.53 247.52 241.16C248.11 239.27 248.63 237.27 249.13 235.04C249.62 232.85 248.45 230.63 246.38 229.77C222.69 219.9 182.11 220.26 168.54 220.67C166.89 220.72 165.38 221.64 164.62 223.1C159.92 232.1 159.02 242.83 158.86 245.9C158.84 246.49 158.93 247.07 159.11 247.63Z" fill="#2D1F04"/>
<path d="M136.11 236.44C135.41 237.53 134.68 239.31 134.35 240.49" stroke="#2D1F04" stroke-width="2.62" stroke-miterlimit="10" stroke-linecap="round" stroke-linejoin="round"/>
<path d="M141.99 240.07C141.13 241.34 140.63 243.12 140.49 244.24" stroke="#2D1F04" stroke-width="2.62" stroke-miterlimit="10" stroke-linecap="round" stroke-linejoin="round"/>
<path d="M322.56 245.79C323.73 247.05 324.63 248.98 324.97 250.91" stroke="#2D1F04" stroke-width="2.62" stroke-miterlimit="10" stroke-linecap="round" stroke-linejoin="round"/>
<path d="M330 242.72C331.37 244.24 332.51 246.16 332.77 248.36" stroke="#2D1F04" stroke-width="2.62" stroke-miterlimit="10" stroke-linecap="round" stroke-linejoin="round"/>
<path d="M308.28 250.29C308.99 251.27 309.6 253.53 309.69 254.5" stroke="#2D1F04" stroke-width="2.62" stroke-miterlimit="10" stroke-linecap="round" stroke-linejoin="round"/>
<path d="M336.11 239.9C337.34 241.09 338.52 243.13 338.92 244.9" stroke="#2D1F04" stroke-width="2.62" stroke-miterlimit="10" stroke-linecap="round" stroke-linejoin="round"/>
<path d="M211.44 226.58C210.99 228.08 209.85 229.44 208.24 229.66C206.71 229.87 206.31 229.17 205.26 229.17C204.54 229.17 203.89 229.76 202.54 229.76C200.91 229.76 200.6 229.11 199.66 229.11C198.46 229.11 198.22 229.88 196.61 229.5C195.11 229.15 194.05 228.11 193.67 226.65C193.51 226.04 193.48 225.36 193.58 224.61C193.96 221.74 194.05 219.47 193.75 215.4C193.72 214.93 193.74 214.43 193.83 213.95V213.94C194.1 212.38 195 210.9 196.61 210.51C198.22 210.13 198.46 210.9 199.66 210.9C200.61 210.9 200.91 210.25 202.54 210.25C203.9 210.25 204.55 210.84 205.26 210.84C206.31 210.84 206.71 210.14 208.24 210.35C210.07 210.6 211.15 212.22 211.44 213.93C211.52 214.39 211.55 214.87 211.5 215.32C211.22 218.42 211.07 221.13 211.61 224.58C211.7 225.2 211.64 225.9 211.44 226.58Z" fill="#2D1F04"/>
<path d="M246.13 246.76C232.16 245.23 217.86 239.07 211.44 226.58C211.64 225.9 211.71 225.2 211.61 224.56C211.07 221.11 211.22 218.4 211.5 215.3C211.54 214.85 211.52 214.38 211.44 213.91C214.95 211.98 218.97 208.46 223.66 204.91C228.39 201.35 233.77 197.75 239.96 195.72C241.09 195.35 242.24 195.02 243.43 194.76C245.26 197.61 246.7 200.56 247.8 203.61C248.29 204.92 248.7 206.26 249.05 207.59C252.35 220.1 250.47 233.78 246.13 246.76Z" fill="#2D1F04"/>
<path d="M193.67 226.64C187.7 238.16 174.91 244.29 161.97 246.34C160.95 246.51 159.93 246.64 158.91 246.75C157.69 243.11 156.66 239.4 155.88 235.68C153.95 226.35 153.62 216.93 155.86 208.1C157.02 203.46 158.89 198.98 161.6 194.76C163.52 195.17 165.37 195.76 167.17 196.47C178.46 200.91 187.22 210.21 193.83 213.93V213.94C193.73 214.43 193.71 214.93 193.74 215.4C194.05 219.46 193.95 221.73 193.58 224.61C193.48 225.35 193.51 226.03 193.67 226.64Z" fill="#2D1F04"/>
<path opacity="0.23" d="M199.95 214.36C197.64 217.04 197.24 223.27 199.92 225.64C199.52 220.93 200.9 217.89 199.95 214.36Z" fill="#2D1F04"/>
<path opacity="0.23" d="M204.16 214.36C206.47 217.04 206.87 223.27 204.19 225.64C204.6 220.93 203.21 217.89 204.16 214.36Z" fill="#2D1F04"/>
<path d="M167.84 199.89C167.84 204.76 163.9 208.7 159.03 208.7C157.91 208.7 156.84 208.49 155.85 208.1C157.01 203.46 158.88 198.98 161.59 194.76C163.51 195.17 165.36 195.76 167.16 196.47C167.6 197.52 167.84 198.68 167.84 199.89ZM245.28 216.04C242.32 216.04 239.93 218.44 239.93 221.39C239.93 224.35 242.33 226.74 245.28 226.74C248.23 226.74 250.63 224.34 250.63 221.39C250.63 218.44 248.23 216.04 245.28 216.04ZM172.35 232.84C170.55 232.84 169.08 234.3 169.08 236.11C169.08 237.91 170.54 239.38 172.35 239.38C174.15 239.38 175.62 237.92 175.62 236.11C175.62 234.3 174.16 232.84 172.35 232.84ZM157.37 235.5C156.86 235.5 156.36 235.56 155.88 235.68C156.66 239.4 157.69 243.11 158.91 246.75C159.93 246.63 160.95 246.51 161.97 246.34C163.08 245.18 163.77 243.62 163.77 241.9C163.76 238.36 160.89 235.5 157.37 235.5ZM161.05 215.42C159.02 215.42 157.37 217.07 157.37 219.1C157.37 221.13 159.02 222.78 161.05 222.78C163.08 222.78 164.73 221.13 164.73 219.1C164.73 217.07 163.08 215.42 161.05 215.42ZM239.95 195.71C233.77 197.74 228.38 201.34 223.65 204.9C225.39 207 228.03 208.35 230.98 208.35C236.23 208.35 240.48 204.1 240.48 198.85C240.48 197.75 240.29 196.69 239.95 195.71ZM239.36 237.26C237.53 237.26 236.05 238.74 236.05 240.57C236.05 242.4 237.53 243.88 239.36 243.88C241.19 243.88 242.67 242.4 242.67 240.57C242.66 238.74 241.18 237.26 239.36 237.26ZM247.79 203.61C247.63 203.57 247.46 203.55 247.28 203.55C245.95 203.55 244.87 204.63 244.87 205.96C244.87 207.29 245.95 208.36 247.28 208.36C247.97 208.36 248.6 208.06 249.04 207.6C248.7 206.25 248.28 204.92 247.79 203.61Z" fill="#2D1F04"/>
<path opacity="0.23" d="M246.03 247.08C232.08 245.54 217.82 239.38 211.42 226.91C211.62 226.24 211.68 225.53 211.59 224.89C211.54 224.58 211.51 224.29 211.46 224C216.38 228.3 222.31 232.51 229.56 236.06C237.98 240.18 244.07 241.7 246.21 236.06C248.35 230.44 249.99 226.39 250.54 218.31C251.07 227.79 249.2 237.62 246.03 247.08Z" fill="#2D1F04"/>
<path opacity="0.23" d="M169.53 226.26C166.94 224.66 168.89 220.8 171.64 221.76C174.39 222.72 178.02 222.79 181.65 222.12C185.28 221.45 188.43 220.31 193.84 220.51C193.77 221.76 194.37 222.66 190.6 222.89C186.83 223.13 181.41 226.49 178.17 226.99C174.93 227.49 171.78 227.65 169.53 226.26Z" fill="#2D1F04"/>
<path opacity="0.23" d="M172.5 212.31C171.75 214.35 174.02 213.63 176.04 214.35C178.05 215.07 180.14 216.64 183.01 218.46C185.88 220.28 186.43 220.31 189.33 220.65C192.24 220.99 191.84 220.22 189.33 218.95C186.82 217.68 185.34 217.42 182.7 214.89C180.06 212.35 177.1 210.64 174.87 211.07C172.63 211.5 172.5 212.31 172.5 212.31Z" fill="#2D1F04"/>
<path opacity="0.32" d="M193.77 220.24C193.2 217.76 190.65 216.21 186.83 213.66C183 211.11 176.82 204.53 170.44 201.44C164.06 198.35 159.2 200.15 157.36 203.04C158.4 200.52 160.2 197.29 161.52 194.76C167.75 196.26 174.38 199.63 179.92 203.89C185.46 208.15 191.35 212.41 192.91 213.57C193.66 214.8 193.88 217.15 193.77 220.24Z" fill="#2D1F04"/>
<path opacity="0.32" d="M211.41 218.62C211.47 217.34 216.97 215.12 219.93 213.18C222.17 211.72 229.04 205.91 235.4 203.04C241 200.51 246.21 200.59 247.53 203.04C246.72 200.49 244.84 196.47 243.36 194.75C235.1 196.86 228.77 200.87 222.12 206.02C215.47 211.18 212.47 213.25 210.86 213.82C211.5 215.3 211.22 217.28 211.41 218.62Z" fill="#2D1F04"/>
<path d="M211.43 215.29C211.15 218.4 210.99 221.1 211.53 224.56C211.85 226.64 210.49 229.34 208.17 229.66C206.64 229.87 206.24 229.17 205.19 229.17C204.47 229.17 203.82 229.76 202.47 229.76C200.84 229.76 200.53 229.11 199.59 229.11C198.39 229.11 198.15 229.88 196.54 229.5C194.41 229.01 193.17 227.14 193.51 224.61C193.89 221.74 193.98 219.47 193.68 215.41C193.53 213.45 194.42 211.02 196.54 210.51C198.15 210.13 198.39 210.9 199.59 210.9C200.54 210.9 200.84 210.25 202.47 210.25C203.83 210.25 204.48 210.84 205.19 210.84C206.24 210.84 206.64 210.14 208.17 210.35C210.5 210.65 211.62 213.2 211.43 215.29Z" stroke="#2D1F04" stroke-width="2.7806" stroke-miterlimit="10" stroke-linecap="round" stroke-linejoin="round"/>
<path d="M211.37 213.91C219.05 209.65 229.26 197.83 243.36 194.75C253.3 210.23 251.96 229.16 246.05 246.75C232.08 245.22 217.79 239.06 211.37 226.57" stroke="#2D1F04" stroke-width="2.7806" stroke-miterlimit="10" stroke-linecap="round" stroke-linejoin="round"/>
<path d="M193.52 213.91C185.84 209.65 175.63 197.83 161.53 194.75C151.59 210.23 152.93 229.16 158.84 246.75C172.81 245.22 187.1 239.06 193.52 226.57" stroke="#2D1F04" stroke-width="2.7806" stroke-miterlimit="10" stroke-linecap="round" stroke-linejoin="round"/>
<path d="M211.26 219.09C215.31 219.25 219.42 217.64 223.71 214.57C228 211.5 231.1 212.29 231.66 214.04" stroke="#2D1F04" stroke-width="2.7806" stroke-miterlimit="10" stroke-linecap="round" stroke-linejoin="round"/>
<path d="M211.37 222.58C215.58 222.85 220.57 225.56 224 229.12C228.92 234.22 233.67 233.06 233.67 230.64" stroke="#2D1F04" stroke-width="2.7806" stroke-miterlimit="10" stroke-linecap="round" stroke-linejoin="round"/>
<path d="M193.45 222.84C189.42 222.41 186.04 224.15 179.5 226.57C174.56 228.4 169.47 227.3 169.02 225.51" stroke="#2D1F04" stroke-width="2.7806" stroke-miterlimit="10" stroke-linecap="round" stroke-linejoin="round"/>
<path d="M193.52 219.71C189.31 219.44 185.48 218.28 182.37 215.1C177.41 210.03 172.5 210.35 172.5 212.77" stroke="#2D1F04" stroke-width="2.7806" stroke-miterlimit="10" stroke-linecap="round" stroke-linejoin="round"/>
<path opacity="0.23" d="M231.47 213.64C232.09 214.73 231.71 215.64 229.92 215.8C228.13 215.96 226.02 216.41 224.06 217.75C221.37 219.59 219.29 220.46 216.92 220.48C219.02 221.35 221.86 222.5 224.04 223.92C226.68 225.64 227.39 227.92 229.21 228.65C231 229.37 232.99 228.34 233.89 230.35C234.52 231.75 232.11 234.04 228.64 232.29C225.16 230.53 223.27 228.07 221.32 226.73C219.37 225.4 214.6 223.04 212.14 222.58C209.68 222.12 209.79 219.18 211.6 219.09C213.41 219 216.58 218.47 218.77 217.48C221.28 216.34 223.07 214.86 225.44 213.65C227.79 212.45 230.54 212.01 231.47 213.64Z" fill="#2D1F04"/>
<path d="M205.636 240.636V239.545C205.758 227.97 206.97 218.758 209.273 211.909C211.576 205.061 214.848 199.515 219.091 195.273C223.333 191.03 228.424 187.121 234.364 183.545C237.939 181.364 241.152 178.788 244 175.818C246.848 172.788 249.091 169.303 250.727 165.364C252.424 161.424 253.273 157.061 253.273 152.273C253.273 146.333 251.879 141.182 249.091 136.818C246.303 132.455 242.576 129.091 237.909 126.727C233.242 124.364 228.061 123.182 222.364 123.182C217.394 123.182 212.606 124.212 208 126.273C203.394 128.333 199.545 131.576 196.455 136C193.364 140.424 191.576 146.212 191.091 153.364H168.182C168.667 143.061 171.333 134.242 176.182 126.909C181.091 119.576 187.545 113.97 195.545 110.091C203.606 106.212 212.545 104.273 222.364 104.273C233.03 104.273 242.303 106.394 250.182 110.636C258.121 114.879 264.242 120.697 268.545 128.091C272.909 135.485 275.091 143.909 275.091 153.364C275.091 160.03 274.061 166.061 272 171.455C270 176.848 267.091 181.667 263.273 185.909C259.515 190.152 254.97 193.909 249.636 197.182C244.303 200.515 240.03 204.03 236.818 207.727C233.606 211.364 231.273 215.697 229.818 220.727C228.364 225.758 227.576 232.03 227.455 239.545V240.636H205.636ZM217.273 294.455C212.788 294.455 208.939 292.848 205.727 289.636C202.515 286.424 200.909 282.576 200.909 278.091C200.909 273.606 202.515 269.758 205.727 266.545C208.939 263.333 212.788 261.727 217.273 261.727C221.758 261.727 225.606 263.333 228.818 266.545C232.03 269.758 233.636 273.606 233.636 278.091C233.636 281.061 232.879 283.788 231.364 286.273C229.909 288.758 227.939 290.758 225.455 292.273C223.03 293.727 220.303 294.455 217.273 294.455Z" fill="white"/>
</svg>
