<svg width="342" height="342" viewBox="0 0 342 342" fill="none" xmlns="http://www.w3.org/2000/svg">
<g clip-path="url(#clip0_229_6124)">
<path d="M321.99 190.23C303.68 154.4 275.77 117.52 274.14 110.03C267.1 77.57 260.89 43.46 215.16 20.72C202.35 14.34 175.02 7.63002 174.75 7.76002C173.26 8.51002 177.27 12.11 177.27 12.11C177.27 12.11 169.44 11.42 163.91 10.95C158.76 10.52 150.89 8.70002 148.91 2.27002C144.37 6.06002 148.7 11 150.05 13.71C144.67 10.2 138.16 9.89002 131.59 11.6C126.04 13.05 123.4 16.1 123.52 16.22C124.34 17.04 134.73 16.2 134.73 18.51C131.21 18.25 127.1 18.8 122.2 20.72C116.93 22.79 114.37 27.41 114.67 27.63C115.61 28.33 118.7 26.86 121.5 26.87C125.1 26.88 128.43 28.26 128.33 28.57C128.2 28.96 127.58 28.93 127.18 29.03C116.91 31.53 110.65 36.89 109.37 43.46C115.5 37.53 120.1 35.17 128.1 34.29C122.84 37.79 119.14 43.1 116.21 48.47C105.54 67.94 104.37 85.26 112.93 111.52C113.83 114.29 113.94 120.22 113.11 124.53C115.63 124.31 116.11 119.92 117.19 122.05C118.28 124.18 117.68 128.81 116.59 133.21C119.84 133.78 120.3 127.61 121.26 129.79C122.22 131.96 120.92 136.76 120.29 138.38C122.59 138.7 123.37 135.34 123.58 137.21C123.67 138 123.72 138.78 123.72 139.55C107.24 153.39 103.62 168.3 86.08 194.69C68.46 221.2 71.78 235.08 81.29 242.13C85.68 245.38 90.62 247.43 95.75 248.65C73.49 248.66 64.1 268.43 70.06 283.34C71.52 286.99 74.76 291.19 78.48 293.11C60.37 301.99 42.92 319.5 44.58 319.5C76.66 319.5 101.86 328.13 117.86 320.13C121.57 318.28 123.91 314.18 124.62 309.69C127.99 309.76 140.05 311.77 152.56 314.4C163.28 316.65 169.84 316.15 178.21 315.36C167.25 326.44 155.94 339.64 156.23 339.94C157.34 341.04 186.33 341.4 205.06 332.35C212.72 328.65 217.17 326.64 227.41 327.61C253.86 330.12 292.74 333.66 304.98 322.32C321.96 306.6 313.63 289.28 300.03 283.5C292.96 280.49 285.77 278.78 278.98 277.91C356.15 287.28 346.84 238.85 321.99 190.23Z" fill="#2D1F04"/>
<path d="M115.6 174.09C112.09 194.7 116.54 198.41 116.33 202.13C115.97 208.63 111.86 213.45 108.01 218.6C105.81 221.54 103.69 224.58 102.39 228.09C100.58 233 99.48 241.28 101.94 246.4C101.82 246.4 98.07 247.72 95.47 248.6C90.43 247.38 85.57 245.34 81.26 242.14C71.75 235.09 68.43 221.21 86.05 194.7C103.67 168.2 106.62 153.85 123.27 139.96C123.36 140.14 123.58 140 123.82 139.78C123.79 141.02 123.63 142.36 123.34 143.83C121.34 153.83 117.3 164.06 115.6 174.09Z" fill="#2D1F04"/>
<path opacity="0.23" d="M135.95 287C134.87 283.73 134.34 271.19 131.27 270.11C121.41 266.68 103.36 285.04 89.1801 281.95C82.8401 280.57 74.6501 276.71 72.4301 270.18C71.9601 268.81 70.5101 265.42 70.6101 263.78C67.8301 270.77 67.6901 280.26 71.6901 287.21C74.7201 292.46 78.8401 292.8 78.4701 292.86C69.6901 297.25 48.5701 312.06 45.2001 319.23C51.5001 319.53 61.4401 320.2 64.2601 320.46C77.7501 321.68 107.17 327.7 118.65 319.98C122.54 317.36 124.16 313.73 124.6 309.7C130.2 309.65 141.01 311.81 152.54 314.41C159.75 316.04 169.07 316.98 178.19 315.37C187.99 305.45 200.16 294.23 217.77 286.98C192.97 293.8 186.55 303.34 180.72 305.08C169.64 308.4 142.31 306.2 135.95 287Z" fill="#2D1F04"/>
<path d="M208.7 330.64C207.54 331.16 206.33 331.74 205.03 332.37C186.31 341.42 157.31 341.06 156.2 339.95C155.82 339.57 176.99 315.36 188.65 305.45L189.06 306.13C192.09 311.69 198.13 324.65 208.7 330.64Z" fill="#2D1F04"/>
<path d="M161.33 247.83C150.68 249.49 146.86 247.87 140.54 246.99C142.27 241.62 142.21 233.8 140.42 228.96C146.45 226.83 154.98 231.16 164.61 231.17C171.96 231.18 177.23 228.36 177.8 231.53C178.01 232.7 172.71 246.04 161.33 247.83Z" fill="#2D1F04"/>
<path d="M228.2 245.01C224.93 249.37 222.02 254.95 221.82 261.87C215.59 260.5 211.44 260.69 202.03 255.42C191.99 249.79 191.66 235.44 192.27 234.41C193.9 231.65 197.86 236.11 204.75 238.67C213.79 242.01 223.5 240.67 228.2 245.01Z" fill="#2D1F04"/>
<path d="M317.92 182.47C306.13 160.82 291.79 139.59 282.8 125.5C281.58 129.29 281.46 129.29 282.68 125.5C282.68 125.49 282.68 125.49 282.69 125.48C284.19 120.83 283.17 118.03 281.83 116.05C278.67 111.39 274.77 106.71 274.08 110C274.08 110.01 274.07 110.03 274.07 110.04C265.71 153.92 217.97 165.24 182.34 165.22C151.29 165.21 134.77 157.73 122.68 146.65L122.67 146.64C122.9 145.7 123.1 144.76 123.29 143.83C123.53 142.5 123.65 141.19 123.65 139.88C123.46 140.04 123.29 140.11 123.22 139.96C122.97 140.17 122.72 140.38 122.47 140.59C122.35 140.69 122.24 140.79 122.13 140.89C110.35 151.35 105.34 162.59 95.75 179.05C95.73 179.04 95.72 179.03 95.7 179.02C94.55 178.4 92.18 180.84 91.23 182.2C90.46 183.3 88.97 185.94 90.49 187.57C94.91 192.32 106.08 200.43 113.62 210.53C113.64 210.5 113.66 210.46 113.68 210.43C113.71 210.38 113.74 210.33 113.77 210.27C113.82 210.19 113.86 210.11 113.9 210.02C114.03 209.8 114.15 209.58 114.25 209.35C114.34 209.18 114.42 209.01 114.5 208.84C114.59 208.67 114.67 208.49 114.74 208.32C114.83 208.14 114.9 207.97 114.97 207.79C115.04 207.61 115.11 207.44 115.17 207.26C115.22 207.13 115.27 207.01 115.31 206.88C115.4 206.65 115.48 206.41 115.55 206.17C115.63 205.91 115.71 205.65 115.77 205.38C115.8 205.27 115.83 205.17 115.85 205.06C115.92 204.78 115.98 204.49 116.03 204.2C116.09 203.92 116.13 203.63 116.17 203.33C116.18 203.26 116.19 203.18 116.2 203.1C116.23 202.78 116.26 202.46 116.28 202.13C116.32 201.37 116.17 200.62 115.94 199.72C115.93 199.7 115.93 199.69 115.92 199.67C115.85 199.4 115.77 199.12 115.69 198.82C115.61 198.53 115.52 198.22 115.43 197.9C115.42 197.84 115.4 197.78 115.38 197.71C115.3 197.39 115.21 197.04 115.12 196.67C115.07 196.49 115.03 196.29 114.99 196.1C114.99 196.08 114.99 196.06 114.98 196.04C114.93 195.82 114.89 195.6 114.84 195.36C114.71 194.66 114.58 193.9 114.48 193.04C114.41 192.47 114.35 191.87 114.31 191.22C114.27 190.72 114.25 190.19 114.23 189.64C114.22 189.38 114.21 189.12 114.21 188.85C114.19 188.15 114.2 187.4 114.22 186.61C114.22 186.19 114.24 185.75 114.26 185.3C114.28 185 114.29 184.69 114.31 184.38C114.34 183.86 114.38 183.32 114.43 182.76C114.51 181.79 114.63 181.79 114.55 182.76C114.5 183.32 114.47 183.86 114.43 184.38C114.41 184.69 114.4 185 114.38 185.3C114.36 185.75 114.35 186.18 114.34 186.61C114.32 187.4 114.31 188.15 114.33 188.85C114.33 189.12 114.34 189.38 114.35 189.64C114.37 190.19 114.39 190.72 114.43 191.22C114.48 191.86 114.53 192.47 114.6 193.04C114.7 193.9 114.83 194.66 114.96 195.36C115.01 195.6 115.05 195.82 115.1 196.04C115.11 196.06 115.11 196.08 115.11 196.1C115.16 196.3 115.2 196.48 115.24 196.67C115.33 197.04 115.42 197.39 115.5 197.71C115.52 197.78 115.54 197.84 115.55 197.9C115.64 198.22 115.73 198.53 115.81 198.82C115.89 199.12 115.97 199.4 116.04 199.67C116.05 199.69 116.05 199.7 116.06 199.72C116.29 200.62 116.44 201.37 116.4 202.13C116.38 202.46 116.35 202.78 116.32 203.1C116.31 203.18 116.3 203.26 116.29 203.33C116.25 203.63 116.21 203.92 116.15 204.2C116.1 204.49 116.04 204.78 115.97 205.06C115.95 205.17 115.92 205.27 115.89 205.38C115.83 205.65 115.75 205.91 115.67 206.17C115.6 206.41 115.52 206.65 115.43 206.88C115.39 207.01 115.35 207.13 115.29 207.26C115.23 207.44 115.16 207.61 115.09 207.79C115.02 207.97 114.95 208.14 114.86 208.32C114.79 208.49 114.71 208.67 114.62 208.84C114.55 209.01 114.47 209.18 114.37 209.35C114.27 209.58 114.15 209.8 114.02 210.02C113.98 210.11 113.94 210.19 113.89 210.27C113.86 210.33 113.83 210.38 113.8 210.43C113.78 210.47 113.77 210.5 113.75 210.53H113.74C113.67 210.68 113.58 210.83 113.49 210.97C113.32 211.27 113.14 211.56 112.95 211.86C112.54 212.52 112.1 213.17 111.64 213.81C111.42 214.13 111.19 214.45 110.95 214.77C110.5 215.4 110.02 216.02 109.55 216.65C109.06 217.3 108.57 217.95 108.08 218.6C114.56 225.64 129.64 232.78 140.42 228.97C146.45 226.84 154.98 231.17 164.61 231.18C171.96 231.19 177.23 228.37 177.8 231.54C178.01 232.71 172.71 246.05 161.33 247.84C150.68 249.5 146.86 247.88 140.54 247C136.53 246.45 118.83 251.88 101.54 249.69C114.45 251.67 124.66 256.76 130.55 263.79C130.56 263.8 130.56 263.8 130.57 263.81C140 274.43 146.21 287.1 167.82 288.98C189.13 290.84 199.74 289.73 212.76 285.13C225.59 280.61 242.16 273.24 277.46 277.73C250.24 274.12 227.29 263.1 221.82 261.88C215.59 260.51 211.44 260.7 202.03 255.43C191.99 249.8 191.66 235.45 192.27 234.42C193.9 231.66 197.86 236.12 204.75 238.68C213.79 242.02 223.5 240.68 228.2 245.02C241.1 256.94 272.55 249.93 278 240.48C280.71 235.78 279.41 229.56 276.1 222.3C275.78 222.93 275.4 223.17 274.99 223.15C275.36 223.12 275.7 222.87 275.98 222.3V222.29C286.73 199.87 317.48 192.62 322.46 191.32C322.47 191.32 322.47 191.32 322.48 191.31C326.68 190.09 321.64 182.75 317.92 182.47Z" fill="#2D1F04"/>
<path d="M114.84 71.5702C117.15 62.1802 121.31 58.4502 129.71 56.9002C139.58 55.0802 142.7 40.1302 152.24 39.7402C154.01 39.6702 158.14 38.7802 159.01 37.1202C161.71 31.9802 155.5 29.8002 158.59 30.3802C161.68 30.9702 181.46 37.8402 188.2 38.5802C207.61 40.7202 225.73 44.4302 237.25 65.3002C239.84 69.9902 246.08 85.4702 243.37 97.4502C239.43 114.9 237.38 122.22 218.44 135.3C195.94 150.83 136.07 146.2 122.27 120.81C122.63 101.02 110.53 89.0902 114.84 71.5702Z" fill="#2D1F04"/>
<path d="M168.81 95.7902C160.96 91.8702 152.05 107.4 151.68 118.35C150.92 140.81 181.46 146.29 198.59 135.07C216.44 123.38 194.9 88.9902 181.26 94.4502" fill="#2D1F04"/>
<path d="M114.72 67.2701C107.28 83.3601 116.83 115.72 123.22 122.05C130.74 119.66 136.78 116.52 141.59 112.85C172.5 89.3201 153 44.4201 150.89 42.3101C149.52 40.9401 133.03 43.4601 121.26 57.1301C118.62 60.2001 116.24 63.9801 114.72 67.2701Z" fill="#2D1F04"/>
<path d="M191.24 41.4602C177.17 109.38 232.61 123.62 238.09 115.68C241.6 110.59 248.53 86.7302 239.34 70.6502C238.44 69.0802 233.45 59.3502 224.28 51.4502C212.74 41.5002 192.44 34.2902 191.24 41.4602Z" fill="#2D1F04"/>
<path d="M136.1 143.31L136.06 149.82" stroke="#2D1F04" stroke-width="3.87" stroke-miterlimit="10" stroke-linecap="round" stroke-linejoin="round"/>
<path d="M142.5 146.64L142.46 153.15" stroke="#2D1F04" stroke-width="3.87" stroke-miterlimit="10" stroke-linecap="round" stroke-linejoin="round"/>
<path d="M186.33 38.25C225.09 38.64 244.17 77.65 244.17 77.65" stroke="#2D1F04" stroke-width="7.6" stroke-miterlimit="10" stroke-linecap="round" stroke-linejoin="round"/>
<path d="M153.12 41.5698C112.81 45.8798 105.22 91.5498 105.22 91.5498" stroke="#2D1F04" stroke-width="7.6" stroke-miterlimit="10" stroke-linecap="round" stroke-linejoin="round"/>
<path d="M163.27 96.4299C163.12 93.4799 168.92 90.7999 176.21 90.4399C183.5 90.0799 189.53 92.1899 189.68 95.1399C189.83 98.0899 184.03 100.77 176.74 101.13C169.45 101.49 163.42 99.3799 163.27 96.4299Z" fill="#2D1F04"/>
<path d="M75.59 294.87C70.66 299.8 57.07 306.05 50.99 311.48C49.27 313.02 45 316.63 45.21 319.23C45.27 320.05 45.89 319.7 46.32 319.65C51.12 319.11 58.35 318.61 63.1 319.41C67.83 320.2 87.5 325.77 90.58 322.85C91.93 321.56 91.44 319.33 91.2 317.77C89.86 309.22 84.37 303.58 78.58 297.5C77.75 296.62 76.39 294.07 75.59 294.87Z" fill="#2D1F04"/>
<path opacity="0.23" d="M246.85 214.43C242.45 215.03 241.14 226.53 217.35 222.33C203.29 219.85 194.27 213.53 185.79 211.49C179.41 209.96 176.81 213 166.6 213.12C158.78 213.22 148.36 212.18 140.69 209.97C129.05 206.61 121.35 201.91 119.92 205.2C116.81 212.39 139.17 217.19 159.75 217.8C171.82 218.15 181.38 214.38 184.51 215.59C198.15 220.87 214.14 230.58 230.89 229.04C240.25 228.18 255.42 213.25 246.85 214.43Z" fill="#2D1F04"/>
<path d="M177.37 117.72C170.05 117.72 160.15 123.67 164.21 127.57C168.1 131.3 171.41 122.11 178.36 122.11C185.31 122.11 186.3 130.14 191.02 126.66C195.74 123.18 188.05 117.72 177.37 117.72Z" fill="#2D1F04"/>
<path d="M265.49 291.44L265.44 297.94" stroke="#2D1F04" stroke-width="3.87" stroke-miterlimit="10" stroke-linecap="round" stroke-linejoin="round"/>
<path d="M271.88 294.77L271.84 301.27" stroke="#2D1F04" stroke-width="3.87" stroke-miterlimit="10" stroke-linecap="round" stroke-linejoin="round"/>
<path d="M304.52 211.73L304.48 218.24" stroke="#2D1F04" stroke-width="3.87" stroke-miterlimit="10" stroke-linecap="round" stroke-linejoin="round"/>
<path d="M310.91 215.06L310.87 221.57" stroke="#2D1F04" stroke-width="3.87" stroke-miterlimit="10" stroke-linecap="round" stroke-linejoin="round"/>
<path opacity="0.23" d="M304.93 322.34C304.11 323.09 303.18 323.78 302.14 324.41C298.5 326.61 293.56 328.06 287.8 328.95C277.72 330.52 265.16 330.4 252.77 329.69C252.76 329.7 252.75 329.7 252.75 329.69C249.21 329.48 245.68 329.23 242.23 328.95C242.22 328.96 242.21 328.96 242.2 328.95C240.48 328.81 238.78 328.66 237.11 328.52H237.08C235.4 328.37 233.76 328.22 232.14 328.07C230.51 327.92 228.91 327.77 227.36 327.62C222.99 327.21 219.67 327.34 216.7 327.92C212.73 328.68 209.39 330.24 205 332.36C199.53 335 193.19 336.85 186.92 338.1C173.27 340.83 159.97 340.78 156.84 340.17C156.5 340.1 156.29 340.03 156.21 339.95C156.15 339.89 156.53 339.36 157.23 338.45C157.25 338.42 157.27 338.4 157.3 338.37C157.42 338.23 157.55 338.07 157.68 337.9C158.42 337 159.41 335.83 160.58 334.46C160.9 334.09 161.24 333.71 161.58 333.31C161.87 332.98 162.17 332.64 162.47 332.29H162.48C175.23 332.7 190.02 326.92 201.77 319.94C213.51 312.96 223.56 311.94 236.32 314.41C249.09 316.87 275.13 319.43 290.79 311.18C300.47 306.09 300.15 294.69 293 287.86C286.57 281.72 269.53 278.68 249.39 278.68C256.06 277.48 267 276.36 279.21 277.95C279.7 278.02 280.2 278.09 280.7 278.16C281.4 278.27 282.1 278.38 282.8 278.5C282.81 278.5 282.81 278.5 282.82 278.5C284.12 278.73 285.42 278.99 286.74 279.28C287.2 279.39 287.66 279.5 288.12 279.6C288.81 279.77 289.5 279.95 290.19 280.13C291.65 280.53 293.12 280.97 294.58 281.46C294.94 281.58 295.3 281.71 295.66 281.83C296.02 281.96 296.38 282.09 296.74 282.22C297.1 282.36 297.46 282.49 297.82 282.63C298.54 282.91 299.26 283.2 299.98 283.51C313.58 289.3 321.91 306.61 304.93 322.34Z" fill="#2D1F04"/>
<path opacity="0.23" d="M323.37 191.01C323.36 191.01 323.35 191.02 323.34 191.02C323.33 191.03 323.33 191.03 323.32 191.03C321.29 191.56 314.98 193.08 307.48 196.21C315.15 194.74 319.23 201.55 325.96 223.94C329.63 236.14 330 245.02 327.96 250.66C325.11 258.54 313.36 263.79 300 265.3C282.98 267.23 266.81 265.9 253.11 263.5C242.84 261.71 237.6 260.68 222.3 256.19C207.01 251.7 195.11 241.85 193.13 234.13C192.52 235.16 192.85 249.51 202.89 255.14C212.3 260.41 216.45 260.22 222.68 261.59C228.15 262.81 251.1 273.83 278.32 277.44C278.68 277.49 279.14 277.55 279.83 277.64C356.44 286.93 347.82 239.27 323.37 191.01Z" fill="#2D1F04"/>
<path opacity="0.23" d="M105.53 215.13C107.74 211.34 115.44 203.22 111.97 192.47C113 193.74 114.85 196.15 115.26 197.25C115.67 198.35 116.54 200.82 116.22 202.83C115.89 204.84 114.9 208.86 113.27 211.33C111.64 213.8 109.57 216.65 108.08 218.59C107.24 217.73 106.47 216.57 105.53 215.13Z" fill="#2D1F04"/>
<path opacity="0.23" d="M161.26 247.83C150.61 249.49 146.79 247.87 140.46 246.99C134.81 246.21 101.83 257.38 81.26 242.13C72.4 235.56 68.91 223.06 82.74 199.93C76.73 212.74 73.47 222.06 82.06 230.36C88.31 236.4 97.37 241.21 112.52 241.46C127.66 241.72 138.01 239.81 151.54 239.42C164.76 239.05 172.41 235.62 177.38 230.71C177.55 230.92 177.66 231.19 177.72 231.53C177.93 232.7 172.63 246.04 161.26 247.83Z" fill="#2D1F04"/>
<path opacity="0.23" d="M274.12 110C274.11 110.02 274.1 110.04 274.1 110.06C271.45 123.97 264.85 134.61 255.92 142.65C262.2 93.8898 243.91 57.9698 222.63 41.5898C208.42 30.6498 193.58 26.1198 180.1 25.1898C178.63 25.0898 173.23 24.4198 173.9 22.6298C171.46 22.5998 170.92 25.0598 168.6 25.2398C166.25 25.4198 163.85 20.9098 158.89 22.3498C161.11 23.1798 159.32 25.8798 156.67 27.0598C154.5 28.0298 150.51 27.4698 150.47 25.2998C148.81 27.0298 150.27 28.7598 149.06 29.1498C147.53 29.6398 142.47 25.3898 139.49 28.7498C143.28 28.9598 142.19 31.6998 141.03 32.2198C131.51 36.4498 123.98 42.0598 116.22 48.4598C119.15 43.0998 122.84 37.8098 128.09 34.3198C120.09 35.1998 115.49 37.5598 109.36 43.4898C110.64 36.9198 116.9 31.5598 127.17 29.0598C127.57 28.9598 128.19 28.9898 128.32 28.5998C128.42 28.2898 125.09 26.9098 121.49 26.8998C118.69 26.8898 115.6 28.3598 114.66 27.6598C114.36 27.4398 116.92 22.8198 122.19 20.7498C127.09 18.8298 131.2 18.2798 134.72 18.5398C134.72 16.2298 124.33 17.0698 123.51 16.2498C123.39 16.1298 126.03 13.0798 131.58 11.6298C138.15 9.9198 144.66 10.2298 150.04 13.7398C148.69 11.0298 144.36 6.0898 148.9 2.2998C150.88 8.7298 158.75 10.5498 163.9 10.9798C169.43 11.4498 177.26 12.1398 177.26 12.1398C177.26 12.1398 173.25 8.53981 174.74 7.78981C175.01 7.65981 202.34 14.3698 215.15 20.7498C260.85 43.4798 267.08 77.5598 274.12 110Z" fill="#2D1F04"/>
<path opacity="0.23" d="M282.7 125.47C282.69 125.48 282.69 125.48 282.69 125.49C282.03 127.55 278.94 138.86 266.93 150.28C268.32 143.34 266.36 139.12 260.34 138.17C267.01 130.77 271.89 121.52 274.08 110.03C274.08 110.02 274.09 110 274.09 109.99C274.78 106.7 278.68 111.38 281.84 116.04C283.18 118.02 284.2 120.82 282.7 125.47Z" fill="#2D1F04"/>
<path opacity="0.23" d="M322.49 191.13C322.48 191.14 322.48 191.14 322.47 191.14C320.32 191.7 313.6 193.58 305.41 197.02C305.44 191.41 303.56 188.35 299.38 188C299.05 188.14 298.4 188.43 298.16 188.54C289.89 169.68 280.6 158.32 270.94 146.07C279.75 136.13 282.23 127.13 282.81 125.32C291.79 139.41 306.14 160.65 317.92 182.29C321.64 182.57 326.68 189.91 322.49 191.13Z" fill="#2D1F04"/>
<path opacity="0.23" d="M255.89 187.11C258.07 195.94 266.81 220.08 270.27 230.36C273.92 241.23 267.56 250.03 252.76 251.11C261.54 250.15 267.06 248.65 270.95 246.26C274.83 243.87 278.43 241.66 278.95 238.03C279.47 234.4 279.61 232 278.68 229.2C277.75 226.4 276.66 223.27 276.25 222.6C275.84 221.93 275.58 223.49 274.31 223.31C273.03 223.13 271.77 222.16 271.06 219.05C270.35 215.94 270.23 214.69 270.52 212.85C270.81 211.01 270.2 210.64 269.02 208.76C267.84 206.88 260.02 194.25 255.89 187.11Z" fill="#2D1F04"/>
<path opacity="0.23" d="M192.94 242.67C193.79 252.06 198.65 257.97 206.95 261.87C215.25 265.77 219.52 264.61 228.2 267.93C236.88 271.25 241.02 274.31 242.09 277.21C245.29 276.85 259.4 275.55 273.63 277.16C260.74 274.78 252.57 272.76 243.69 269.64C234.81 266.53 226.91 263.74 223.91 262.72C220.91 261.7 214.08 261.06 207.51 258.06C200.94 255.06 195.99 252.24 192.94 242.67Z" fill="#2D1F04"/>
<path opacity="0.23" d="M181.19 279.09C175.56 280.05 165.32 281.98 157.59 279.49C145.45 275.58 145.45 263.78 129.29 252.3C124.56 253.45 120.42 255.25 123.42 257.54C114.91 252.35 107.42 250.84 102.64 249.55C107.56 250.02 108.51 249.89 118.72 249.55C128.93 249.21 136.34 246.76 140.05 246.95C143.76 247.15 145.66 249.06 156.2 248.59C166.75 248.13 170.04 244.02 174.52 238.46C169.67 249.11 162.25 251.17 155.54 251.71C148.83 252.25 141.96 250.4 137.1 250.93C135.38 251.12 132.55 251.54 129.83 252.17C140.1 256.8 146.12 267 159.05 273.63C164.71 276.54 172.49 277.4 181.19 279.09Z" fill="#2D1F04"/>
<path opacity="0.23" d="M75.5901 294.87C67.5801 298.69 57.1801 306.66 51.1101 312.09C49.3901 313.63 45.2101 317.96 45.2101 319.23C45.2101 320.06 45.8901 319.7 46.3201 319.65C51.1201 319.11 58.3501 318.61 63.1001 319.41C67.8301 320.2 87.5001 325.77 90.5801 322.85C91.9301 321.56 91.4401 319.33 91.2001 317.77C89.8601 309.22 84.3701 303.58 78.5801 297.5C77.7501 296.62 76.3901 294.07 75.5901 294.87Z" fill="#2D1F04"/>
<path d="M301.52 187.11C288.61 192.25 277.56 200.62 270.95 211.9C269.33 214.45 271.03 219.26 271.73 220.85C272.43 222.45 274.67 224.62 276.11 222.29M314.24 193.67C318.18 192.38 321.18 191.65 322.47 191.31C322.48 191.31 322.48 191.31 322.49 191.3C325.1 190.62 324.32 188.64 323.11 186.83C322.05 185.23 319.91 182.18 317.88 182.49M113.62 210.52C113.64 210.49 113.66 210.45 113.68 210.42C113.71 210.37 113.74 210.32 113.77 210.26C113.82 210.18 113.86 210.1 113.9 210.01C114.03 209.79 114.15 209.57 114.25 209.34C114.34 209.17 114.42 209 114.5 208.83C114.59 208.66 114.67 208.48 114.74 208.31C114.83 208.13 114.9 207.96 114.97 207.78C115.04 207.6 115.11 207.43 115.17 207.25C115.22 207.12 115.27 207 115.31 206.87C115.4 206.64 115.48 206.4 115.55 206.16C115.63 205.9 115.71 205.64 115.77 205.37C115.8 205.26 115.83 205.16 115.85 205.05C115.92 204.77 115.98 204.48 116.03 204.19C116.09 203.91 116.13 203.62 116.17 203.32C116.18 203.25 116.19 203.17 116.2 203.09C116.23 202.77 116.26 202.45 116.28 202.12C116.32 201.36 116.17 200.61 115.94 199.71C115.93 199.69 115.93 199.68 115.92 199.66C115.85 199.39 115.77 199.11 115.69 198.81C115.61 198.52 115.52 198.21 115.43 197.89C115.42 197.83 115.4 197.77 115.38 197.7C115.3 197.38 115.21 197.03 115.12 196.66C115.07 196.48 115.03 196.28 114.99 196.09C114.99 196.07 114.99 196.05 114.98 196.03C114.93 195.81 114.89 195.59 114.84 195.35C114.71 194.65 114.58 193.89 114.48 193.03C114.41 192.46 114.35 191.86 114.31 191.21C114.27 190.71 114.25 190.18 114.23 189.63C114.22 189.37 114.21 189.11 114.21 188.84C114.19 188.14 114.2 187.39 114.22 186.6C114.22 186.18 114.24 185.74 114.26 185.29C114.28 184.99 114.29 184.68 114.31 184.37C114.34 183.85 114.38 183.31 114.43 182.75C114.51 181.78 118.36 162.2 120.09 156.25C120.12 156.28 114.63 181.78 114.55 182.75C114.5 183.31 114.47 183.85 114.43 184.37C114.41 184.68 114.4 184.99 114.38 185.29C114.36 185.74 114.35 186.17 114.34 186.6C114.32 187.39 114.31 188.14 114.33 188.84C114.33 189.11 114.34 189.37 114.35 189.63C114.37 190.18 114.39 190.71 114.43 191.21C114.48 191.85 114.53 192.46 114.6 193.03C114.7 193.89 114.83 194.65 114.96 195.35C115.01 195.59 115.05 195.81 115.1 196.03C115.11 196.05 115.11 196.07 115.11 196.09C115.16 196.29 115.2 196.47 115.24 196.66C115.33 197.03 115.42 197.38 115.5 197.7C115.52 197.77 115.54 197.83 115.55 197.89C115.64 198.21 115.73 198.52 115.81 198.81C115.89 199.11 115.97 199.39 116.04 199.66C116.05 199.68 116.05 199.69 116.06 199.71C116.29 200.61 116.44 201.36 116.4 202.12C116.38 202.45 116.35 202.77 116.32 203.09C116.31 203.17 116.3 203.25 116.29 203.32C116.25 203.62 116.21 203.91 116.15 204.19C116.1 204.48 116.04 204.77 115.97 205.05C115.95 205.16 115.92 205.26 115.89 205.37C115.83 205.64 115.75 205.9 115.67 206.16C115.6 206.4 115.52 206.64 115.43 206.87C115.39 207 115.35 207.12 115.29 207.25C115.23 207.43 115.16 207.6 115.09 207.78C115.02 207.96 114.95 208.13 114.86 208.31C114.79 208.48 114.71 208.66 114.62 208.83C114.55 209 114.47 209.17 114.37 209.34C114.27 209.57 114.15 209.79 114.02 210.01C113.98 210.1 113.94 210.18 113.89 210.26C113.86 210.32 113.83 210.37 113.8 210.42C113.78 210.46 113.77 210.49 113.75 210.52H113.74C113.67 210.67 113.58 210.82 113.49 210.96C113.32 211.26 113.14 211.55 112.95 211.85C112.54 212.51 112.1 213.16 111.64 213.8C111.42 214.12 111.19 214.44 110.95 214.76C110.5 215.39 110.02 216.01 109.55 216.64C109.06 217.29 108.57 217.94 108.08 218.59C114.56 225.63 129.64 232.77 140.42 228.96C146.45 226.83 154.98 231.16 164.61 231.17C171.96 231.18 177.23 228.36 177.8 231.53C178.01 232.7 172.71 246.04 161.33 247.83C150.68 249.49 146.86 247.87 140.54 246.99C136.53 246.44 118.83 251.87 101.54 249.68C114.45 251.66 124.66 256.75 130.55 263.78C130.56 263.79 130.56 263.79 130.57 263.8C140 274.42 146.21 287.09 167.82 288.97C189.13 290.83 199.74 289.72 212.76 285.12C225.59 280.6 242.16 273.23 277.46 277.72C250.24 274.11 227.29 263.09 221.82 261.87C215.59 260.5 211.44 260.69 202.03 255.42C191.99 249.79 191.66 235.44 192.27 234.41C193.9 231.65 197.86 236.11 204.75 238.67C213.79 242.01 223.5 240.67 228.2 245.01C241.1 256.93 272.55 249.92 278 240.47C280.71 235.77 279.41 229.55 276.1 222.29M95.75 179.04C95.73 179.03 95.72 179.02 95.7 179.01C94.55 178.39 92.18 180.83 91.23 182.19C90.46 183.29 88.97 185.93 90.49 187.56" stroke="#2D1F04" stroke-width="2.62" stroke-miterlimit="10" stroke-linecap="round" stroke-linejoin="round"/>
<path d="M275.17 205.79C275.42 208.53 276.7 209.94 278.23 210.77" stroke="#2D1F04" stroke-width="2.62" stroke-miterlimit="10" stroke-linecap="round" stroke-linejoin="round"/>
<path d="M280.28 200.31C280.6 202.35 282.2 204.32 283.6 205.21" stroke="#2D1F04" stroke-width="2.62" stroke-miterlimit="10" stroke-linecap="round" stroke-linejoin="round"/>
<path d="M287.19 194.74C287.82 196.92 289.41 198.3 290.94 199.37" stroke="#2D1F04" stroke-width="2.62" stroke-miterlimit="10" stroke-linecap="round" stroke-linejoin="round"/>
<path d="M131.58 153.47C130.13 154.92 129.49 156.53 129.11 158.32" stroke="#2D1F04" stroke-width="2.62" stroke-miterlimit="10" stroke-linecap="round" stroke-linejoin="round"/>
<path d="M142.5 159.15C141.76 160.69 141.25 162.74 141.08 164.52" stroke="#2D1F04" stroke-width="2.62" stroke-miterlimit="10" stroke-linecap="round" stroke-linejoin="round"/>
<path d="M160.04 163.62C159.32 165.77 159.32 167.56 159.32 169.09" stroke="#2D1F04" stroke-width="2.62" stroke-miterlimit="10" stroke-linecap="round" stroke-linejoin="round"/>
<path d="M167.23 164.53C166.92 166.02 166.6 168.64 166.79 170.94" stroke="#2D1F04" stroke-width="2.62" stroke-miterlimit="10" stroke-linecap="round" stroke-linejoin="round"/>
<path d="M174.37 165.03C174.06 166.34 173.87 169.08 174 170.93" stroke="#2D1F04" stroke-width="2.62" stroke-miterlimit="10" stroke-linecap="round" stroke-linejoin="round"/>
<path d="M210.62 162.76C211.24 164.11 211.75 166.09 211.83 167.74" stroke="#2D1F04" stroke-width="2.62" stroke-miterlimit="10" stroke-linecap="round" stroke-linejoin="round"/>
<path d="M218.44 161.1C218.98 162.24 219.58 164.28 219.66 165.81" stroke="#2D1F04" stroke-width="2.62" stroke-miterlimit="10" stroke-linecap="round" stroke-linejoin="round"/>
<path d="M258.47 140.19C260.07 141.36 261.3 142.45 262.21 143.63" stroke="#2D1F04" stroke-width="2.62" stroke-miterlimit="10" stroke-linecap="round" stroke-linejoin="round"/>
<path d="M262.21 136.03C263.5 136.77 265.12 137.84 266.54 139.15" stroke="#2D1F04" stroke-width="2.62" stroke-miterlimit="10" stroke-linecap="round" stroke-linejoin="round"/>
<path d="M264.96 132.26C266.56 132.96 267.7 133.6 268.66 134.37" stroke="#2D1F04" stroke-width="2.62" stroke-miterlimit="10" stroke-linecap="round" stroke-linejoin="round"/>
<path d="M109.91 190.12C111.83 192.18 113.62 194.39 115.13 196.66" stroke="#2D1F04" stroke-width="2.62" stroke-miterlimit="10" stroke-linecap="round" stroke-linejoin="round"/>
<path d="M178.2 315.37C167.97 316.68 159.51 315.91 152.55 314.41C140.81 311.88 130.52 309.76 125.06 309.76" stroke="#2D1F04" stroke-width="2.62" stroke-miterlimit="10" stroke-linecap="round" stroke-linejoin="round"/>
<path d="M130.48 263.79C139.92 274.41 146.12 287.09 167.75 288.98C189.06 290.84 199.66 289.73 212.69 285.13C225.71 280.53 242.57 273.01 278.95 277.92" stroke="#2D1F04" stroke-width="2.62" stroke-miterlimit="10" stroke-linecap="round" stroke-linejoin="round"/>
<path d="M232.48 169.62C219.4 173.71 202.96 176.36 182.3 176.36C149.53 176.36 118.7 152.77 118.92 151.27C119.44 147.65 121.54 145.46 122.73 146.63C134.82 157.71 151.35 165.19 182.39 165.2C218.02 165.22 265.76 153.9 274.12 110.02C274.8 106.65 278.71 111.35 281.88 116.03C283.22 118.01 284.24 120.82 282.73 125.49C282.01 127.73 278.38 141.02 263.4 153.44" stroke="#2D1F04" stroke-width="2.62" stroke-miterlimit="10" stroke-linecap="round" stroke-linejoin="round"/>
<path d="M122.72 146.65C122.94 145.71 123.15 144.76 123.33 143.82C123.72 141.59 123.79 139.42 123.54 137.21C123.33 135.34 122.55 138.7 120.25 138.38C120.88 136.76 122.18 131.96 121.22 129.79C120.26 127.62 119.8 133.79 116.55 133.21C117.64 128.81 118.24 124.18 117.16 122.05C116.08 119.92 115.6 124.3 113.08 124.53C113.91 120.22 113.8 114.29 112.9 111.52C104.34 85.2595 105.51 67.9396 116.18 48.4696C119.12 43.1096 122.82 37.7996 128.07 34.2896" stroke="#2D1F04" stroke-width="2.62" stroke-miterlimit="10" stroke-linecap="round" stroke-linejoin="round"/>
<path d="M176.74 101.13C176.09 109.21 176.22 114.15 177.86 119.26" stroke="#2D1F04" stroke-width="2.62" stroke-miterlimit="10" stroke-linecap="round" stroke-linejoin="round"/>
<path d="M156.2 339.95C167.59 338.01 190.5 332.71 200.95 324.62" stroke="#2D1F04" stroke-width="2.62" stroke-miterlimit="10" stroke-linecap="round" stroke-linejoin="round"/>
<path d="M150.02 13.7098C148.67 11.0098 144.34 6.05979 148.88 2.27979C150.86 8.70978 158.73 10.5298 163.88 10.9598C169.41 11.4298 177.24 12.1098 177.24 12.1098C177.24 12.1098 173.23 8.50979 174.72 7.75979C174.98 7.62979 202.32 14.3398 215.13 20.7198C260.85 43.4698 267.06 77.5798 274.11 110.03" stroke="#2D1F04" stroke-width="2.62" stroke-miterlimit="10" stroke-linecap="round" stroke-linejoin="round"/>
<path d="M282.75 125.53C291.92 139.91 306.01 160.37 317.92 182.47" stroke="#2D1F04" stroke-width="2.62" stroke-miterlimit="10" stroke-linecap="round" stroke-linejoin="round"/>
<path d="M322.5 191.3C346.94 239.56 355.56 287.22 278.94 277.92C251.04 274.53 227.31 263.11 221.74 261.88C215.51 260.5 211.36 260.7 201.95 255.43C191.91 249.8 191.58 235.45 192.19 234.42C193.82 231.65 197.78 236.12 204.67 238.68C213.7 242.03 223.42 240.68 228.12 245.02C241.02 256.94 272.47 249.94 277.92 240.48C280.62 235.79 279.33 229.58 276.03 222.33" stroke="#2D1F04" stroke-width="2.62" stroke-miterlimit="10" stroke-linecap="round" stroke-linejoin="round"/>
<path d="M270.94 211.9C265.9 203.53 261.29 197.08 255.89 187.11" stroke="#2D1F04" stroke-width="2.62" stroke-miterlimit="10" stroke-linecap="round" stroke-linejoin="round"/>
<path d="M156.2 339.95C167.58 329.04 180.62 321.01 192.98 316.16" stroke="#2D1F04" stroke-width="2.62" stroke-miterlimit="10" stroke-linecap="round" stroke-linejoin="round"/>
<path d="M189.05 306.12C192.12 311.75 197.81 324.77 208.63 330.66" stroke="#2D1F04" stroke-width="2.62" stroke-miterlimit="10" stroke-linecap="round" stroke-linejoin="round"/>
<path d="M49.1901 317.07C62.3701 318.25 75.6801 311.85 88.9401 313.04" stroke="#2D1F04" stroke-width="2.62" stroke-miterlimit="10" stroke-linecap="round" stroke-linejoin="round"/>
<path d="M47.01 318.25C55.19 311.42 71.86 302.58 83 303.57" stroke="#2D1F04" stroke-width="2.62" stroke-miterlimit="10" stroke-linecap="round" stroke-linejoin="round"/>
<path d="M76.3601 295.32C82.7201 301.42 91.2001 310.95 90.1901 322.13" stroke="#2D1F04" stroke-width="2.62" stroke-miterlimit="10" stroke-linecap="round" stroke-linejoin="round"/>
<path d="M100.57 249.55C114.95 251.56 126.09 257.42 131.83 265.52" stroke="#2D1F04" stroke-width="2.62" stroke-miterlimit="10" stroke-linecap="round" stroke-linejoin="round"/>
<path d="M105.22 214.4C108.16 222.27 127.37 233.54 140.35 228.96C146.38 226.83 154.9 231.17 164.54 231.17C171.89 231.17 177.16 228.36 177.72 231.52C177.93 232.7 172.63 246.04 161.26 247.82C150.61 249.49 146.79 247.86 140.46 246.98C134.81 246.2 101.82 257.37 81.2501 242.12C71.7401 235.07 68.4201 221.19 86.0401 194.68C88.0301 191.68 88.8301 190.25 90.4901 187.55" stroke="#2D1F04" stroke-width="2.62" stroke-miterlimit="10" stroke-linecap="round" stroke-linejoin="round"/>
<path d="M95.7301 179.03C105.58 161.98 110.22 150.82 123.26 139.95" stroke="#2D1F04" stroke-width="2.62" stroke-miterlimit="10" stroke-linecap="round" stroke-linejoin="round"/>
<path d="M218.15 286.8C208.12 291.81 200.12 296.71 191.1 303.47C180.29 311.58 155.78 339.54 156.19 339.95C157.3 341.06 186.3 341.41 205.02 332.36C212.68 328.66 217.14 326.65 227.37 327.62C253.82 330.13 292.7 333.67 304.94 322.33C321.92 306.61 313.59 289.29 299.99 283.5C272.35 271.74 242.89 279.83 242.63 280.34" stroke="#2D1F04" stroke-width="2.62" stroke-miterlimit="10" stroke-linecap="round" stroke-linejoin="round"/>
<path d="M96.7601 288.06C74.7501 287.75 42.3201 319.51 44.5601 319.51C76.6401 319.51 101.84 328.14 117.84 320.14C124.43 316.84 126.71 306.44 123.19 299.38" stroke="#2D1F04" stroke-width="2.62" stroke-miterlimit="10" stroke-linecap="round" stroke-linejoin="round"/>
<path d="M95.7501 248.65C74.5601 248.59 64.0701 268.43 70.0301 283.34C71.5101 287.04 72.8501 290.57 76.6301 292.46" stroke="#2D1F04" stroke-width="2.62" stroke-miterlimit="10" stroke-linecap="round" stroke-linejoin="round"/>
<path d="M128.07 34.2898C120.07 35.1698 115.47 37.5298 109.35 43.4698C110.63 36.8998 116.88 31.5298 127.16 29.0298C127.56 28.9298 128.17 28.9598 128.3 28.5698C128.4 28.2598 125.07 26.8798 121.48 26.8698C118.68 26.8598 115.58 28.3298 114.65 27.6298C114.35 27.3998 116.91 22.7898 122.18 20.7198C127.08 18.7998 131.18 18.2498 134.71 18.5098C134.71 16.1998 124.32 17.0398 123.5 16.2198C123.38 16.0998 126.01 13.0498 131.56 11.5998C138.13 9.88976 144.65 10.1898 150.03 13.6998" stroke="#2D1F04" stroke-width="2.62" stroke-miterlimit="10" stroke-linecap="round" stroke-linejoin="round"/>
<path d="M157.59 134.93C156.24 142.25 153.33 147.5 146.01 148.07C138.69 148.64 133.58 145.51 129.88 152.97C126.18 160.43 131.02 169.1 121.99 177.55C112.97 186 97.48 191.97 58.41 191.97C19.34 191.97 2.29004 175.77 2.29004 155.31C2.29004 134.85 14.37 119.65 61.82 119.65C109.27 119.65 119.08 130.87 123.06 137.13C127.04 143.38 127.18 144.02 128.46 144.02C129.74 144.02 131.37 140.4 137.91 140.89C144.45 141.39 150.98 142.95 157.59 134.93Z" fill="#2D1F04"/>
<path d="M32.58 151.14C32.58 151.72 32.25 152.17 31.58 152.51C30.91 152.85 29.97 153.01 28.74 153.01C27.53 153.01 26.59 152.88 25.92 152.62C25.25 152.36 24.92 152.01 24.92 151.56C24.92 150.83 25.26 150.47 25.95 150.47C26.11 150.47 26.35 150.52 26.66 150.62C27.15 150.77 27.45 150.85 27.59 150.88C27.87 148.11 28.02 145.8 28.02 143.96C28.02 140.98 27.63 138.26 26.85 135.79C26.54 135.83 26.19 135.93 25.8 136.07C25.45 136.19 25.21 136.26 25.1 136.26C24.88 136.26 24.69 136.16 24.53 135.97C24.37 135.78 24.29 135.53 24.29 135.24C24.29 134.23 25.35 133.73 27.46 133.73C28.86 133.73 29.97 133.92 30.79 134.31C31.57 134.68 31.96 135.16 31.96 135.77C31.96 136.31 31.74 136.58 31.3 136.58C31.2 136.58 30.94 136.51 30.52 136.38C29.98 136.21 29.5 136.07 29.08 135.98C29.8 138.49 30.16 141.15 30.16 143.95C30.16 145.75 30 148.06 29.67 150.89C29.94 150.81 30.34 150.67 30.86 150.45C31.24 150.29 31.52 150.21 31.7 150.21C31.94 150.21 32.15 150.3 32.32 150.48C32.5 150.66 32.58 150.88 32.58 151.14Z" fill="#2D1F04"/>
<path d="M55.1201 143.04C55.1201 148.35 54.4901 151.01 53.2301 151.01C52.7401 151.01 52.5001 150.7 52.5001 150.09C52.5001 150.08 52.6201 149.29 52.8501 147.71C53.0901 146.13 53.2001 144.56 53.2001 142.99C53.2001 140.38 52.5801 139.07 51.3501 139.07C50.2701 139.07 49.5601 139.73 49.2201 141.05C48.9601 142.06 48.8401 144.05 48.8401 147.02C48.8401 147.48 48.8701 147.98 48.9401 148.53C49.0101 149.08 49.0401 149.41 49.0401 149.5C49.0401 150.19 48.7101 150.53 48.0601 150.53C47.2801 150.53 46.8801 149.28 46.8801 146.77C46.8801 145.72 46.9201 144.61 47.0001 143.47C47.0801 142.32 47.1201 141.71 47.1201 141.62C47.1201 140.59 46.5801 140.08 45.5001 140.08C44.4901 140.08 43.7501 140.53 43.2901 141.44C42.8501 142.32 42.6201 143.71 42.6201 145.62C42.6201 146.85 42.6501 147.99 42.7201 149.05C42.7901 150.11 42.8201 150.55 42.8201 150.39C42.8201 150.65 42.7201 150.87 42.5301 151.05C42.3401 151.23 42.0901 151.31 41.8001 151.31C41.1801 151.31 40.8001 150.72 40.6601 149.54C40.6101 149.2 40.5901 148.32 40.5901 146.9C40.5901 143.92 40.8301 141.08 41.3201 138.38C41.4801 137.49 41.6401 136.9 41.8001 136.61C41.9901 136.26 42.2901 136.08 42.7101 136.08C43.3601 136.08 43.6901 136.43 43.6901 137.12L43.2201 139.47C43.8201 138.63 44.6701 138.21 45.7801 138.21C46.6701 138.21 47.3601 138.58 47.8701 139.31C48.7501 137.86 49.9901 137.14 51.5901 137.14C53.9401 137.15 55.1201 139.12 55.1201 143.04Z" fill="#2D1F04"/>
<path d="M66.77 143.98C66.77 145.88 66.49 147.87 65.94 149.94C65.66 150.98 65.25 151.5 64.7 151.5C64.14 151.5 63.86 151.18 63.86 150.54C63.86 150.39 63.87 150.29 63.88 150.22C63.17 150.6 62.44 150.79 61.69 150.79C60.35 150.79 59.31 150.41 58.55 149.66C57.8 148.9 57.42 147.85 57.42 146.49C57.42 145.11 57.83 144.02 58.64 143.21C59.45 142.4 60.53 142 61.88 142C63.05 142 64.04 142.39 64.85 143.18C64.72 140.44 63.7 139.07 61.8 139.07C61.38 139.07 60.92 139.2 60.44 139.45C59.96 139.7 59.64 139.83 59.5 139.83C59.26 139.83 59.05 139.73 58.87 139.54C58.68 139.35 58.59 139.12 58.59 138.87C58.59 138.45 58.89 138.07 59.5 137.72C60.15 137.34 60.91 137.15 61.81 137.15C65.11 137.13 66.77 139.42 66.77 143.98ZM64.66 146.42C64.66 144.66 63.83 143.78 62.17 143.78C60.35 143.78 59.44 144.65 59.44 146.4C59.44 148.16 60.34 149.04 62.15 149.04C62.93 149.04 63.55 148.81 63.99 148.35C64.43 147.89 64.66 147.25 64.66 146.42Z" fill="#2D1F04"/>
<path d="M72.65 135.52C72.65 135.51 72.57 135.73 72.42 136.19C72.25 136.72 72.11 137.31 72 137.95C71.85 138.88 71.77 139.9 71.77 141.02C71.77 141.65 71.81 142.6 71.9 143.88C71.99 145.16 72.03 146.12 72.03 146.77C72.03 147.69 71.95 148.35 71.78 148.74C71.6 149.16 71.28 149.37 70.81 149.37C70.43 149.37 70.18 149.23 70.06 148.94C69.99 148.77 69.96 148.47 69.96 148.02C69.96 147.67 69.96 147.24 69.97 146.72C69.98 146.2 69.98 145.85 69.98 145.68C69.98 144.97 69.95 144.02 69.89 142.85C69.83 141.68 69.8 140.86 69.8 140.39C69.8 138.54 69.97 137.1 70.3 136.05C70.63 135.05 71.06 134.55 71.61 134.55C71.88 134.55 72.12 134.65 72.33 134.84C72.54 135.05 72.65 135.27 72.65 135.52ZM79.93 137.62C79.93 138.05 79.48 138.5 78.58 138.97C77.26 139.59 75.95 140.22 74.63 140.84C76.26 142.51 77.54 143.99 78.44 145.29C79.25 146.46 79.66 147.3 79.66 147.83C79.66 148.13 79.56 148.38 79.36 148.6C79.16 148.82 78.93 148.92 78.68 148.92C78.4 148.92 78.16 148.76 77.95 148.43C77.44 147.61 76.7 146.47 75.73 145C75.04 144.03 74.12 143.03 72.98 141.99C72.58 141.63 72.37 141.44 72.36 141.43C72.15 141.17 72.05 140.87 72.05 140.52C72.05 140.2 72.27 139.93 72.71 139.7C73.32 139.43 73.93 139.16 74.54 138.88C75.13 138.6 76.07 138.08 77.37 137.34C78.15 136.89 78.67 136.66 78.93 136.66C79.6 136.66 79.93 136.98 79.93 137.62Z" fill="#2D1F04"/>
<path d="M91.8 141.4C91.8 142.12 91.55 142.66 91.05 143C90.83 143.15 90.12 143.35 88.94 143.59C87.37 143.92 86.02 144.08 84.91 144.08C84.4 144.08 83.79 144.05 83.08 143.98C83.08 146.59 84.08 147.9 86.07 147.9C86.62 147.9 87.11 147.74 87.56 147.43C87.78 147.28 88.18 146.91 88.76 146.32C88.97 146.11 89.19 146 89.42 146C89.71 146 89.96 146.11 90.17 146.33C90.38 146.55 90.49 146.82 90.49 147.14C90.49 147.4 90.39 147.65 90.19 147.87C89 149.17 87.6 149.83 86 149.83C82.68 149.83 81.03 147.91 81.03 144.08C81.03 142.1 81.56 140.4 82.61 138.96C83.81 137.33 85.29 136.52 87.06 136.52C88.44 136.52 89.58 136.98 90.47 137.9C91.35 138.81 91.8 139.98 91.8 141.4ZM89.73 141.52C89.69 140.56 89.44 139.79 88.98 139.23C88.52 138.67 87.94 138.39 87.25 138.39C86.35 138.39 85.55 138.71 84.87 139.36C84.16 140.01 83.64 140.93 83.29 142.13C83.78 142.19 84.31 142.21 84.86 142.21C86.2 142.21 87.82 141.98 89.73 141.52Z" fill="#2D1F04"/>
<path d="M104.61 134.54C104.61 134.5 104.57 135.02 104.49 136.1C104.4 137.36 104.32 138.69 104.26 140.11C104.18 142.15 104.15 144.32 104.15 146.62C104.15 147.09 104.15 147.58 104.16 148.07C104.17 148.57 104.17 148.83 104.17 148.86C104.17 149.89 103.84 150.41 103.19 150.41C102.47 150.41 102.11 149.83 102.11 148.66C102.11 148.39 102.12 148.18 102.13 148.03C100.82 149.32 99.3 149.97 97.58 149.97C96.14 149.97 95 149.5 94.16 148.57C93.32 147.64 92.9 146.36 92.9 144.73C92.9 142.51 93.51 140.72 94.73 139.35C95.95 137.98 97.56 137.3 99.54 137.3C100.46 137.3 101.41 137.51 102.4 137.93C102.45 136.01 102.51 134.86 102.6 134.48C102.75 133.77 103.14 133.42 103.75 133.42C104.31 133.41 104.61 133.79 104.61 134.54ZM102.28 139.95C101.37 139.38 100.46 139.1 99.55 139.1C98.14 139.1 97.02 139.59 96.2 140.56C95.38 141.53 94.97 142.86 94.97 144.53C94.97 145.67 95.24 146.56 95.8 147.2C96.35 147.83 97.11 148.15 98.08 148.15C99.3 148.15 100.23 147.74 100.86 146.93C101.04 146.66 101.22 146.39 101.39 146.11C101.59 145.82 101.84 145.65 102.14 145.59C102.14 143.64 102.19 141.76 102.28 139.95Z" fill="#2D1F04"/>
<path d="M40.1501 166.16C40.1501 166.4 40.0701 166.61 39.9201 166.78C39.7701 166.95 39.5901 167.03 39.3801 167.03C39.2801 167.03 38.8801 166.89 38.1901 166.62C37.5001 166.35 36.8301 166.21 36.1701 166.21C35.9601 166.21 35.7401 166.22 35.5101 166.25C35.2501 167.38 35.1301 168.42 35.1301 169.36C35.1301 170.57 35.3301 171.51 35.7401 172.16C36.1501 172.81 36.7201 173.14 37.4501 173.14C37.6701 173.14 37.9701 173.07 38.3301 172.93C38.6901 172.79 38.9601 172.72 39.1201 172.72C39.6701 172.72 39.9501 173.05 39.9501 173.7C39.9501 174.12 39.7201 174.47 39.2601 174.73C38.8001 174.99 38.1801 175.13 37.3901 175.13C34.4501 175.13 32.9801 173.17 32.9801 169.25C32.9801 168.42 33.0801 167.52 33.2801 166.52C33.0901 166.55 32.6701 166.63 32.0201 166.76C31.6001 166.84 31.2801 166.88 31.0801 166.88C30.3401 166.88 29.9701 166.6 29.9701 166.03C29.9701 165.25 31.2501 164.75 33.8101 164.51C34.3401 162.84 34.9801 162 35.7501 162C35.9901 162 36.1901 162.08 36.3501 162.25C36.5201 162.42 36.6001 162.63 36.6001 162.87C36.6001 163.05 36.5501 163.28 36.4401 163.55C36.3301 163.82 36.2301 164.1 36.1301 164.38C38.8001 164.48 40.1501 165.07 40.1501 166.16Z" fill="#2D1F04"/>
<path d="M52.2501 169.91C52.2501 171.89 52.0601 173.48 51.6801 174.67C51.3201 175.81 50.8601 176.38 50.3201 176.38C50.0101 176.38 49.7401 176.28 49.5301 176.09C49.3201 175.9 49.2101 175.68 49.2101 175.44C49.8601 173.01 50.1901 171.16 50.1901 169.9C50.1901 168.02 49.9801 166.65 49.5401 165.8C49.1001 164.92 48.3701 164.48 47.3801 164.48C46.8501 164.48 46.3201 164.61 45.7701 164.86C45.2201 165.12 44.8001 165.43 44.5001 165.8C44.1301 166.26 43.9501 166.97 43.9501 167.91V168.58C43.9501 170.35 44.0201 172.06 44.1501 173.72C44.2801 175.38 44.3501 176.16 44.3501 176.05C44.3501 176.74 44.0301 177.08 43.3901 177.08C43.0201 177.08 42.7601 176.96 42.6101 176.74C42.4801 176.55 42.3701 176.15 42.2801 175.57C42.0401 173.95 41.9301 171.8 41.9301 169.12C41.9301 166.77 42.1901 164.08 42.7101 161.05C42.8301 160.39 42.9401 159.96 43.0401 159.76C43.2001 159.47 43.4601 159.32 43.8201 159.32C44.0801 159.32 44.3101 159.42 44.4901 159.61C44.6701 159.8 44.7601 160.05 44.7601 160.36C44.7601 160.35 44.5801 161.51 44.2301 163.86C45.1501 163.01 46.2601 162.58 47.5701 162.58C50.6901 162.58 52.2501 165.02 52.2501 169.91Z" fill="#2D1F04"/>
<path d="M65.17 166.97C65.17 167.69 64.92 168.23 64.42 168.57C64.2 168.72 63.49 168.92 62.31 169.16C60.74 169.49 59.39 169.65 58.28 169.65C57.77 169.65 57.16 169.62 56.45 169.55C56.45 172.16 57.45 173.47 59.44 173.47C59.99 173.47 60.48 173.31 60.93 173C61.15 172.85 61.55 172.48 62.13 171.89C62.34 171.68 62.56 171.57 62.79 171.57C63.08 171.57 63.33 171.68 63.54 171.9C63.75 172.12 63.86 172.39 63.86 172.71C63.86 172.97 63.76 173.22 63.56 173.44C62.37 174.74 60.97 175.4 59.37 175.4C56.05 175.4 54.4 173.48 54.4 169.65C54.4 167.67 54.93 165.97 55.98 164.53C57.18 162.9 58.66 162.09 60.43 162.09C61.81 162.09 62.95 162.55 63.84 163.47C64.72 164.37 65.17 165.55 65.17 166.97ZM63.1 167.09C63.06 166.13 62.81 165.36 62.35 164.8C61.89 164.24 61.31 163.96 60.62 163.96C59.72 163.96 58.92 164.28 58.24 164.93C57.53 165.58 57.01 166.5 56.66 167.7C57.15 167.76 57.68 167.78 58.23 167.78C59.56 167.78 61.19 167.55 63.1 167.09Z" fill="#2D1F04"/>
<path d="M74.8601 164.58C74.8601 165.27 74.5101 165.62 73.8101 165.62C73.5701 165.62 73.3801 165.53 73.2401 165.36C73.1401 165.2 73.0401 165.04 72.9401 164.87C72.5101 164.32 71.9401 164.04 71.2201 164.04C69.9901 164.04 69.3801 164.74 69.3801 166.13C69.3801 166.62 69.4901 167.03 69.7101 167.38C69.9001 167.68 70.2301 168.01 70.7201 168.39C71.8201 169.23 72.5001 169.81 72.7701 170.13C73.3401 170.78 73.6201 171.53 73.6201 172.38C73.6201 173.49 73.2601 174.39 72.5401 175.09C71.8201 175.79 70.8801 176.14 69.7201 176.14C68.6201 176.14 67.7101 175.85 67.0001 175.28C66.3101 174.73 65.9701 174.02 65.9701 173.18C65.9701 172.33 66.3401 171.9 67.0801 171.9C67.7001 171.9 68.0201 172.38 68.0401 173.33C68.5401 173.93 69.1001 174.22 69.7201 174.22C70.2401 174.22 70.6601 174.06 70.9901 173.75C71.3201 173.43 71.4801 173.04 71.4801 172.57C71.4801 172.14 71.2801 171.73 70.8801 171.35C70.8701 171.34 70.3601 170.93 69.3501 170.13C67.9501 169.02 67.2501 167.72 67.2501 166.23C67.2501 165.02 67.6201 164.03 68.3701 163.29C69.1201 162.55 70.0901 162.17 71.3001 162.17C72.2901 162.17 73.1401 162.43 73.8501 162.95C74.5301 163.42 74.8601 163.97 74.8601 164.58Z" fill="#2D1F04"/>
<path d="M86.77 166.97C86.77 167.69 86.52 168.23 86.02 168.57C85.8 168.72 85.09 168.92 83.91 169.16C82.34 169.49 80.99 169.65 79.88 169.65C79.37 169.65 78.76 169.62 78.05 169.55C78.05 172.16 79.05 173.47 81.04 173.47C81.59 173.47 82.08 173.31 82.53 173C82.75 172.85 83.15 172.48 83.73 171.89C83.94 171.68 84.16 171.57 84.39 171.57C84.68 171.57 84.93 171.68 85.14 171.9C85.35 172.12 85.46 172.39 85.46 172.71C85.46 172.97 85.36 173.22 85.16 173.44C83.97 174.74 82.57 175.4 80.97 175.4C77.65 175.4 76 173.48 76 169.65C76 167.67 76.53 165.97 77.58 164.53C78.78 162.9 80.26 162.09 82.03 162.09C83.41 162.09 84.55 162.55 85.44 163.47C86.33 164.37 86.77 165.55 86.77 166.97ZM84.7 167.09C84.66 166.13 84.41 165.36 83.95 164.8C83.49 164.24 82.91 163.96 82.22 163.96C81.32 163.96 80.52 164.28 79.84 164.93C79.13 165.58 78.61 166.5 78.26 167.7C78.75 167.76 79.28 167.78 79.83 167.78C81.17 167.78 82.8 167.55 84.7 167.09Z" fill="#2D1F04"/>
<path d="M92.0201 173.17C92.0201 173.68 91.8701 174.1 91.5601 174.41C91.2501 174.72 90.8401 174.88 90.3401 174.88C89.9001 174.88 89.5301 174.73 89.2401 174.43C88.9501 174.13 88.8101 173.75 88.8101 173.28C88.8101 172.84 88.9701 172.47 89.2801 172.17C89.6001 171.86 89.9801 171.71 90.4401 171.71C91.4901 171.7 92.0201 172.19 92.0201 173.17Z" fill="#2D1F04"/>
<path d="M98.4101 173.17C98.4101 173.68 98.2601 174.1 97.9501 174.41C97.6401 174.72 97.2301 174.88 96.7301 174.88C96.2901 174.88 95.9201 174.73 95.6301 174.43C95.3401 174.13 95.2001 173.75 95.2001 173.28C95.2001 172.84 95.3601 172.47 95.6701 172.17C95.9901 171.86 96.3701 171.71 96.8301 171.71C97.8801 171.7 98.4101 172.19 98.4101 173.17Z" fill="#2D1F04"/>
<path d="M104.79 173.17C104.79 173.68 104.64 174.1 104.33 174.41C104.02 174.72 103.61 174.88 103.11 174.88C102.67 174.88 102.3 174.73 102.01 174.43C101.72 174.13 101.58 173.75 101.58 173.28C101.58 172.84 101.74 172.47 102.05 172.17C102.37 171.86 102.75 171.71 103.21 171.71C104.27 171.7 104.79 172.19 104.79 173.17Z" fill="#2D1F04"/>
<path d="M82.85 190.97C75.92 191.62 67.86 191.97 58.42 191.97C19.35 191.97 2.30005 175.77 2.30005 155.31C2.30005 134.85 14.3801 119.65 61.8301 119.65C84.2501 119.65 98.26 122.15 107.23 125.46" stroke="#2D1F04" stroke-width="2.62" stroke-miterlimit="10" stroke-linecap="round" stroke-linejoin="round"/>
<path d="M157.59 134.93C156.24 142.25 153.33 147.5 146.01 148.07C138.69 148.64 133.58 145.51 129.88 152.97C126.18 160.43 131.02 169.1 121.99 177.55C117.69 181.58 111.92 185.05 102.82 187.57" stroke="#2D1F04" stroke-width="2.62" stroke-miterlimit="10" stroke-linecap="round" stroke-linejoin="round"/>
<path d="M184.79 192.08L155.44 189.01C153.03 188.76 151.28 186.6 151.53 184.18L152.74 172.66C152.99 170.25 155.15 168.5 157.57 168.75L186.92 171.82C189.33 172.07 191.08 174.23 190.83 176.65L189.62 188.17C189.36 190.58 187.2 192.34 184.79 192.08Z" fill="#2D1F04"/>
<path d="M157.45 174.16L157.66 172.15L159.45 172.34L159.24 174.35L157.45 174.16ZM156.47 183.51L157.33 175.28L159.12 175.47L158.26 183.7L156.47 183.51Z" fill="#2D1F04"/>
<path d="M160.17 175.581L161.16 175.681L161.22 175.061C161.3 174.311 161.43 173.781 161.6 173.461C161.78 173.141 162.04 172.901 162.37 172.741C162.71 172.581 163.11 172.531 163.58 172.581C164.09 172.631 164.57 172.781 165.04 173.021L164.65 174.511C164.37 174.401 164.1 174.331 163.83 174.301C163.58 174.271 163.39 174.331 163.26 174.461C163.13 174.591 163.04 174.871 163 175.301L162.94 175.881L164.27 176.021L164.09 177.731L162.76 177.591L162.08 184.111L160.29 183.921L160.97 177.401L159.98 177.301L160.17 175.581Z" fill="#2D1F04"/>
<path d="M170.64 188.371L169.42 188.241C168.9 187.011 168.53 185.731 168.32 184.391C168.11 183.051 168.07 181.781 168.2 180.561C168.34 179.241 168.65 177.981 169.12 176.761C169.6 175.541 170.22 174.411 170.99 173.351L172.21 173.481C171.45 175.031 170.9 176.341 170.58 177.401C170.26 178.461 170.03 179.601 169.91 180.811C169.78 182.061 169.79 183.401 169.94 184.821C170.05 185.821 170.28 187.001 170.64 188.371Z" fill="#2D1F04"/>
<path d="M172.37 185.17L172.6 182.99L174.38 183.18L174.15 185.36L172.37 185.17Z" fill="#2D1F04"/>
<path d="M175.99 185.551L176.22 183.371L178 183.561L177.77 185.741L175.99 185.551Z" fill="#2D1F04"/>
<path d="M179.61 185.93L179.84 183.75L181.62 183.94L181.39 186.12L179.61 185.93Z" fill="#2D1F04"/>
<path d="M182.38 189.6C183.02 188.35 183.49 187.25 183.79 186.31C184.24 184.94 184.53 183.62 184.66 182.35C184.79 181.14 184.8 179.98 184.71 178.88C184.61 177.77 184.35 176.38 183.93 174.71L185.15 174.84C185.69 176.08 186.07 177.33 186.28 178.61C186.49 179.89 186.53 181.14 186.4 182.37C186.27 183.61 185.97 184.87 185.49 186.14C185.02 187.41 184.39 188.61 183.6 189.73L182.38 189.6Z" fill="#2D1F04"/>
<path d="M184.79 192.08L155.44 189.01C153.03 188.76 151.28 186.6 151.53 184.18L152.74 172.66C152.99 170.25 155.15 168.5 157.57 168.75L186.92 171.82C189.33 172.07 191.08 174.23 190.83 176.65L189.62 188.17C189.36 190.58 187.2 192.34 184.79 192.08Z" stroke="#2D1F04" stroke-width="2.62" stroke-miterlimit="10" stroke-linecap="round" stroke-linejoin="round"/>
<path d="M213.1 194.65L207.03 191.79C204.83 190.76 203.89 188.14 204.93 185.94L209.86 175.46C210.89 173.26 213.51 172.32 215.71 173.36L221.78 176.22C223.98 177.25 224.92 179.87 223.88 182.07L218.95 192.55C217.91 194.74 215.29 195.69 213.1 194.65Z" fill="#2D1F04"/>
<path d="M210.71 184.04L211.51 182.35C211.85 182.49 212.14 182.53 212.37 182.47C212.6 182.41 212.84 182.25 213.08 181.97C213.32 181.7 213.62 181.19 213.97 180.44C214.41 179.51 214.74 178.89 214.98 178.57C215.22 178.25 215.46 178.03 215.72 177.91C215.98 177.79 216.28 177.73 216.62 177.74C216.96 177.75 217.41 177.89 217.95 178.14L218.26 178.29L217.46 179.98C217.05 179.79 216.77 179.69 216.62 179.68C216.47 179.67 216.33 179.71 216.21 179.81C216.09 179.9 215.95 180.11 215.79 180.45C215.52 181.02 215.19 181.66 214.81 182.38C214.55 182.87 214.23 183.26 213.87 183.54C213.61 183.75 213.25 183.9 212.8 184C213 184.34 213.1 184.72 213.12 185.14C213.14 185.56 213.04 186.04 212.83 186.56C212.55 187.28 212.26 187.94 211.97 188.56C211.82 188.88 211.75 189.12 211.76 189.28C211.77 189.44 211.82 189.57 211.92 189.69C212.02 189.81 212.27 189.96 212.67 190.15L211.87 191.84L211.56 191.69C211.01 191.43 210.64 191.19 210.42 190.96C210.21 190.73 210.06 190.47 209.98 190.17C209.9 189.87 209.9 189.54 209.98 189.16C210.06 188.78 210.29 188.19 210.67 187.38C211.09 186.49 211.33 185.87 211.4 185.51C211.47 185.15 211.45 184.86 211.35 184.64C211.25 184.42 211.04 184.22 210.71 184.04Z" fill="#2D1F04"/>
<path d="M213.1 194.65L207.03 191.79C204.83 190.76 203.89 188.14 204.93 185.94L209.86 175.46C210.89 173.26 213.51 172.32 215.71 173.36L221.78 176.22C223.98 177.25 224.92 179.87 223.88 182.07L218.95 192.55C217.91 194.74 215.29 195.69 213.1 194.65Z" stroke="#2D1F04" stroke-width="2.62" stroke-miterlimit="10" stroke-linecap="round" stroke-linejoin="round"/>
<path d="M214.19 215.59L145.13 208.36C142.72 208.11 140.97 205.95 141.22 203.53L142.43 192.01C142.68 189.6 144.84 187.85 147.26 188.1L216.32 195.33C218.73 195.58 220.48 197.74 220.23 200.16L219.02 211.68C218.77 214.09 216.6 215.84 214.19 215.59Z" fill="#2D1F04"/>
<path d="M146.49 194.57L147.48 194.67L147.54 194.05C147.62 193.3 147.75 192.77 147.92 192.45C148.1 192.13 148.36 191.89 148.69 191.73C149.03 191.57 149.43 191.52 149.9 191.57C150.41 191.62 150.89 191.77 151.36 192.01L150.97 193.5C150.69 193.39 150.42 193.32 150.15 193.29C149.9 193.26 149.71 193.32 149.58 193.45C149.45 193.58 149.36 193.86 149.32 194.29L149.26 194.87L150.59 195.01L150.41 196.72L149.08 196.58L148.4 203.1L146.61 202.91L147.29 196.39L146.3 196.29L146.49 194.57Z" fill="#2D1F04"/>
<path d="M155.16 203.79L155.29 202.56C155 202.98 154.63 203.3 154.21 203.5C153.78 203.71 153.35 203.79 152.91 203.75C152.47 203.7 152.08 203.55 151.76 203.28C151.43 203.01 151.21 202.65 151.08 202.2C150.95 201.75 150.93 201.12 151.02 200.3L151.57 195.09L153.36 195.28L152.96 199.06C152.85 200.14 152.8 200.83 152.83 201.13C152.85 201.43 152.95 201.67 153.12 201.85C153.29 202.03 153.5 202.13 153.77 202.16C154.07 202.19 154.36 202.12 154.63 201.93C154.91 201.75 155.1 201.5 155.21 201.18C155.32 200.86 155.44 200.14 155.56 199.03L155.92 195.56L157.71 195.75L156.85 203.98L155.16 203.79Z" fill="#2D1F04"/>
<path d="M164.82 204.81L163.03 204.62L163.47 200.42C163.56 199.58 163.58 199.01 163.55 198.73C163.51 198.44 163.41 198.22 163.24 198.05C163.07 197.88 162.87 197.78 162.64 197.76C162.34 197.73 162.06 197.8 161.8 197.97C161.54 198.14 161.34 198.39 161.2 198.72C161.07 199.05 160.95 199.69 160.85 200.64L160.46 204.37L158.67 204.18L159.53 195.95L161.19 196.12L161.06 197.32C161.4 196.89 161.77 196.57 162.17 196.38C162.57 196.19 162.99 196.11 163.43 196.16C163.95 196.21 164.38 196.4 164.71 196.71C165.04 197.02 165.25 197.39 165.34 197.83C165.43 198.27 165.44 198.89 165.35 199.7L164.82 204.81Z" fill="#2D1F04"/>
<path d="M173.13 199.81L171.33 200.01C171.29 199.13 170.93 198.66 170.24 198.59C169.8 198.54 169.42 198.69 169.11 199.04C168.8 199.38 168.6 200 168.51 200.89C168.41 201.87 168.47 202.58 168.7 203.01C168.93 203.44 169.27 203.68 169.72 203.73C170.06 203.77 170.35 203.68 170.59 203.47C170.83 203.26 171.03 202.87 171.18 202.3L172.9 202.85C172.33 204.8 171.19 205.68 169.47 205.5C168.37 205.38 167.6 204.88 167.15 203.99C166.71 203.1 166.55 202.06 166.67 200.88C166.82 199.47 167.23 198.42 167.91 197.75C168.59 197.08 169.42 196.79 170.4 196.89C171.19 196.97 171.81 197.25 172.27 197.72C172.72 198.18 173.01 198.88 173.13 199.81Z" fill="#2D1F04"/>
<path d="M177.82 197.85L177.64 199.59L176.42 199.46L176.07 202.78C175.99 203.5 175.97 203.92 175.99 204.04C176.04 204.25 176.18 204.37 176.4 204.4C176.57 204.42 176.81 204.37 177.13 204.27L177.11 205.98C176.67 206.15 176.2 206.21 175.67 206.16C175.22 206.11 174.86 205.97 174.61 205.72C174.36 205.47 174.21 205.14 174.16 204.72C174.12 204.41 174.15 203.8 174.24 202.88L174.62 199.29L173.8 199.2L173.98 197.46L174.8 197.55L174.97 195.92L176.89 194.84L176.59 197.75L177.82 197.85Z" fill="#2D1F04"/>
<path d="M179.18 196.86L179.39 194.85L181.18 195.04L180.97 197.05L179.18 196.86ZM178.2 206.21L179.06 197.98L180.85 198.17L179.99 206.4L178.2 206.21Z" fill="#2D1F04"/>
<path d="M181.85 202.31C181.93 201.5 182.17 200.78 182.56 200.16C182.95 199.53 183.42 199.08 183.97 198.8C184.52 198.52 185.12 198.42 185.77 198.49C186.85 198.6 187.66 199.12 188.19 200.03C188.72 200.95 188.93 201.97 188.81 203.11C188.72 203.96 188.48 204.71 188.09 205.36C187.7 206.01 187.22 206.48 186.66 206.77C186.1 207.06 185.51 207.17 184.88 207.11C183.88 207.01 183.09 206.54 182.51 205.7C181.93 204.86 181.7 203.73 181.85 202.31ZM183.66 202.62C183.57 203.45 183.67 204.1 183.95 204.56C184.23 205.02 184.6 205.28 185.06 205.32C185.51 205.37 185.92 205.19 186.28 204.8C186.65 204.4 186.87 203.79 186.96 202.95C187.05 202.13 186.95 201.49 186.67 201.03C186.39 200.57 186.02 200.31 185.57 200.26C185.12 200.21 184.71 200.39 184.34 200.78C183.98 201.18 183.75 201.79 183.66 202.62Z" fill="#2D1F04"/>
<path d="M195.91 208.06L194.12 207.87L194.56 203.67C194.65 202.83 194.67 202.26 194.64 201.98C194.6 201.69 194.5 201.47 194.33 201.3C194.16 201.13 193.96 201.03 193.73 201.01C193.43 200.98 193.15 201.05 192.89 201.22C192.63 201.39 192.43 201.64 192.29 201.97C192.16 202.3 192.04 202.94 191.94 203.89L191.55 207.62L189.76 207.43L190.62 199.2L192.28 199.37L192.15 200.57C192.49 200.14 192.86 199.82 193.26 199.63C193.66 199.44 194.08 199.36 194.52 199.41C195.04 199.46 195.47 199.65 195.8 199.96C196.13 200.27 196.34 200.64 196.43 201.08C196.52 201.52 196.53 202.14 196.44 202.95L195.91 208.06Z" fill="#2D1F04"/>
<path d="M200.32 211.9L199.1 211.77C198.58 210.54 198.21 209.26 198 207.92C197.79 206.58 197.75 205.31 197.88 204.09C198.02 202.77 198.33 201.51 198.8 200.29C199.28 199.07 199.9 197.94 200.67 196.88L201.89 197.01C201.13 198.56 200.58 199.87 200.26 200.93C199.94 201.99 199.71 203.13 199.59 204.34C199.46 205.59 199.47 206.93 199.62 208.35C199.73 209.35 199.96 210.54 200.32 211.9Z" fill="#2D1F04"/>
<path d="M202.05 208.7L202.28 206.52L204.06 206.71L203.83 208.89L202.05 208.7Z" fill="#2D1F04"/>
<path d="M205.67 209.08L205.9 206.9L207.68 207.09L207.45 209.27L205.67 209.08Z" fill="#2D1F04"/>
<path d="M209.29 209.46L209.52 207.28L211.3 207.47L211.07 209.65L209.29 209.46Z" fill="#2D1F04"/>
<path d="M212.06 213.13C212.7 211.88 213.17 210.78 213.47 209.84C213.92 208.47 214.21 207.15 214.34 205.88C214.47 204.67 214.48 203.51 214.39 202.41C214.29 201.3 214.03 199.91 213.61 198.24L214.83 198.37C215.37 199.61 215.75 200.86 215.96 202.14C216.17 203.42 216.21 204.67 216.08 205.9C215.95 207.14 215.65 208.4 215.17 209.67C214.7 210.94 214.07 212.14 213.28 213.26L212.06 213.13Z" fill="#2D1F04"/>
<path d="M214.19 215.59L145.13 208.36C142.72 208.11 140.97 205.95 141.22 203.53L142.43 192.01C142.68 189.6 144.84 187.85 147.26 188.1L216.32 195.33C218.73 195.58 220.48 197.74 220.23 200.16L219.02 211.68C218.77 214.09 216.6 215.84 214.19 215.59Z" stroke="#2D1F04" stroke-width="2.62" stroke-miterlimit="10" stroke-linecap="round" stroke-linejoin="round"/>
<path d="M188.73 172.09L173.86 169.61C171.47 169.21 169.85 166.95 170.25 164.55L172.16 153.13C172.56 150.74 174.82 149.12 177.22 149.52L192.09 152C194.48 152.4 196.1 154.66 195.7 157.06L193.79 168.48C193.39 170.87 191.12 172.49 188.73 172.09Z" fill="#2D1F04"/>
<path d="M175.37 164.59L177.25 153.32L179.03 153.62L177.15 164.89L175.37 164.59Z" fill="#2D1F04"/>
<path d="M183.28 163.25L184.98 163.9C184.61 164.68 184.14 165.23 183.58 165.54C183.02 165.85 182.38 165.95 181.66 165.83C180.67 165.66 179.96 165.21 179.53 164.45C179.02 163.57 178.88 162.44 179.12 161.06C179.35 159.69 179.85 158.66 180.63 157.94C181.29 157.34 182.05 157.11 182.91 157.25C183.87 157.41 184.56 157.89 184.98 158.69C185.47 159.6 185.58 160.85 185.32 162.43L185.27 162.68L180.84 161.94C180.74 162.59 180.8 163.12 181.02 163.52C181.24 163.92 181.55 164.16 181.94 164.22C182.52 164.32 182.96 164 183.28 163.25ZM183.74 161.08C183.83 160.44 183.78 159.94 183.57 159.57C183.37 159.21 183.09 158.99 182.74 158.94C182.37 158.88 182.02 158.99 181.71 159.28C181.39 159.58 181.19 160.03 181.09 160.64L183.74 161.08Z" fill="#2D1F04"/>
<path d="M190.56 158.74L190.27 160.46L189.06 160.26L188.51 163.55C188.39 164.26 188.34 164.68 188.36 164.8C188.4 165.02 188.53 165.14 188.75 165.18C188.91 165.21 189.16 165.18 189.49 165.09L189.36 166.79C188.91 166.94 188.43 166.97 187.92 166.88C187.47 166.8 187.13 166.64 186.89 166.38C186.65 166.12 186.52 165.78 186.5 165.36C186.48 165.05 186.54 164.44 186.7 163.53L187.29 159.97L186.48 159.83L186.77 158.11L187.58 158.25L187.85 156.63L189.84 155.67L189.36 158.55L190.56 158.74Z" fill="#2D1F04"/>
<path d="M188.73 172.09L173.86 169.61C171.47 169.21 169.85 166.95 170.25 164.55L172.16 153.13C172.56 150.74 174.82 149.12 177.22 149.52L192.09 152C194.48 152.4 196.1 154.66 195.7 157.06L193.79 168.48C193.39 170.87 191.12 172.49 188.73 172.09Z" stroke="#2D1F04" stroke-width="2.62" stroke-miterlimit="10" stroke-linecap="round" stroke-linejoin="round"/>
<path d="M181.19 233.62L156.13 229.83C153.73 229.47 152.08 227.23 152.44 224.83L154.17 213.38C154.53 210.98 156.77 209.33 159.17 209.69L184.23 213.48C186.63 213.84 188.28 216.08 187.92 218.48L186.19 229.93C185.82 232.34 183.59 233.99 181.19 233.62Z" fill="#2D1F04"/>
<path d="M160.51 214.4C162.97 214.83 165.36 215.2 167.73 215.67C169.67 216.05 170.21 217.42 170.16 218.66C170.09 220.37 169.16 221.42 167.45 221.79C167.36 221.81 167.27 221.82 167.08 221.84C168.92 223.18 168.94 225.34 169.83 227.26C168.42 227.05 167.18 226.86 165.86 226.67C165.41 225.44 164.96 224.18 164.49 222.91C164.24 222.22 163.86 221.67 162.88 221.72C162.66 223.16 162.44 224.63 162.22 226.15C161.03 225.97 159.96 225.81 158.82 225.64C159.38 221.93 159.93 218.25 160.51 214.4ZM163.58 217.27C163.47 218.02 163.36 218.72 163.24 219.56C163.99 219.63 164.72 219.74 165.46 219.75C166.1 219.76 166.5 219.4 166.6 218.85C166.7 218.27 166.41 217.77 165.74 217.6C165.05 217.43 164.33 217.38 163.58 217.27ZM178.67 217.31C177.27 216.65 175.78 216.45 174.26 216.62C172.65 216.8 171.53 217.79 171.26 219.18C171.01 220.43 171.61 221.61 173 222.44C173.72 222.87 174.52 223.17 175.28 223.54C175.65 223.72 176.02 223.88 176.37 224.09C176.77 224.34 177.01 224.73 176.93 225.2C176.84 225.71 176.46 225.99 175.96 226.11C174.85 226.36 173.79 225.69 173.54 224.58C173.49 224.37 173.47 224.16 173.43 223.93C172.34 223.83 171.29 223.73 170.24 223.63C170.01 225.46 170.86 226.99 172.44 227.67C173.64 228.19 174.92 228.42 176.21 228.39C177 228.37 177.86 228.19 178.55 227.83C180.65 226.73 181.33 223.58 178.82 221.97C178.43 221.72 178.01 221.49 177.58 221.29C176.81 220.94 176.02 220.63 175.24 220.3C174.82 220.12 174.46 219.88 174.51 219.33C174.8 218.71 175.33 218.6 175.93 218.71C176.86 218.87 177.34 219.45 177.38 220.42C178.46 220.51 179.49 220.6 180.6 220.69C180.7 219 180.12 217.99 178.67 217.31Z" fill="#2D1F04"/>
<path d="M181.19 233.62L156.13 229.83C153.73 229.47 152.08 227.23 152.44 224.83L154.17 213.38C154.53 210.98 156.77 209.33 159.17 209.69L184.23 213.48C186.63 213.84 188.28 216.08 187.92 218.48L186.19 229.93C185.82 232.34 183.59 233.99 181.19 233.62Z" stroke="#2D1F04" stroke-width="2.62" stroke-miterlimit="10" stroke-linecap="round" stroke-linejoin="round"/>
<path d="M201.04 234.9L194.34 234.55C191.92 234.42 190.06 232.36 190.18 229.93L190.79 218.37C190.92 215.95 192.98 214.09 195.41 214.21L202.11 214.56C204.53 214.69 206.39 216.75 206.27 219.18L205.66 230.74C205.53 233.17 203.46 235.03 201.04 234.9Z" fill="#2D1F04"/>
<path d="M194.81 225.98L194.91 224.11C195.28 224.11 195.56 224.04 195.75 223.9C195.94 223.76 196.1 223.52 196.22 223.17C196.34 222.83 196.42 222.24 196.47 221.42C196.52 220.39 196.6 219.69 196.7 219.31C196.8 218.93 196.94 218.63 197.13 218.42C197.32 218.21 197.58 218.04 197.9 217.92C198.22 217.8 198.68 217.76 199.29 217.79L199.63 217.81L199.53 219.68C199.08 219.66 198.78 219.67 198.64 219.72C198.5 219.77 198.39 219.86 198.31 219.99C198.23 220.12 198.18 220.37 198.17 220.74C198.14 221.37 198.08 222.09 197.99 222.9C197.93 223.45 197.79 223.93 197.56 224.33C197.39 224.62 197.12 224.9 196.74 225.16C197.05 225.4 197.29 225.71 197.47 226.1C197.64 226.48 197.74 226.96 197.74 227.53C197.75 228.3 197.74 229.03 197.7 229.7C197.68 230.06 197.71 230.31 197.77 230.45C197.84 230.59 197.94 230.7 198.08 230.77C198.22 230.84 198.51 230.89 198.95 230.91L198.85 232.78L198.51 232.76C197.91 232.73 197.47 232.65 197.18 232.51C196.89 232.37 196.66 232.19 196.48 231.95C196.3 231.71 196.17 231.4 196.1 231.02C196.03 230.64 196.02 230.01 196.07 229.11C196.12 228.13 196.11 227.46 196.04 227.11C195.97 226.76 195.84 226.49 195.66 226.32C195.46 226.13 195.19 226.02 194.81 225.98Z" fill="#2D1F04"/>
<path d="M201.04 234.9L194.34 234.55C191.92 234.42 190.06 232.36 190.18 229.93L190.79 218.37C190.92 215.95 192.98 214.09 195.41 214.21L202.11 214.56C204.53 214.69 206.39 216.75 206.27 219.18L205.66 230.74C205.53 233.17 203.46 235.03 201.04 234.9Z" stroke="#2D1F04" stroke-width="2.62" stroke-miterlimit="10" stroke-linecap="round" stroke-linejoin="round"/>
<path d="M146.76 229.06H140.05C137.62 229.06 135.66 227.09 135.66 224.67V213.09C135.66 210.66 137.63 208.7 140.05 208.7H146.76C149.19 208.7 151.15 210.67 151.15 213.09V224.67C151.15 227.09 149.18 229.06 146.76 229.06Z" fill="#2D1F04"/>
<path d="M146.16 220.47C145.8 220.49 145.53 220.58 145.34 220.73C145.16 220.88 145.02 221.13 144.91 221.48C144.81 221.83 144.76 222.42 144.76 223.24C144.76 224.27 144.72 224.98 144.64 225.36C144.56 225.74 144.43 226.05 144.25 226.28C144.07 226.51 143.82 226.69 143.5 226.82C143.18 226.96 142.72 227.02 142.12 227.02H141.78V225.15C142.22 225.15 142.51 225.12 142.65 225.06C142.79 225 142.9 224.9 142.98 224.76C143.06 224.62 143.09 224.38 143.09 224.03C143.09 223.44 143.11 222.73 143.16 221.9C143.2 221.31 143.31 220.83 143.51 220.45C143.71 220.07 143.97 219.77 144.29 219.54C143.92 219.26 143.67 218.97 143.51 218.67C143.31 218.27 143.19 217.78 143.15 217.21C143.1 216.46 143.07 215.74 143.07 215.06C143.07 214.69 143.04 214.44 142.97 214.31C142.9 214.18 142.8 214.08 142.66 214.02C142.52 213.96 142.22 213.93 141.77 213.93V212.06H142.11C142.71 212.06 143.16 212.12 143.45 212.23C143.74 212.34 143.99 212.52 144.18 212.75C144.38 212.98 144.52 213.29 144.61 213.66C144.7 214.03 144.74 214.67 144.74 215.56C144.74 216.55 144.79 217.22 144.88 217.57C144.97 217.92 145.11 218.18 145.3 218.34C145.49 218.5 145.77 218.59 146.14 218.61V220.47H146.16Z" fill="#2D1F04"/>
<path d="M146.76 229.06H140.05C137.62 229.06 135.66 227.09 135.66 224.67V213.09C135.66 210.66 137.63 208.7 140.05 208.7H146.76C149.19 208.7 151.15 210.67 151.15 213.09V224.67C151.15 227.09 149.18 229.06 146.76 229.06Z" stroke="#2D1F04" stroke-width="2.62" stroke-miterlimit="10" stroke-linecap="round" stroke-linejoin="round"/>
<path d="M242.65 248.45L209.13 238.09C206.81 237.37 205.51 234.91 206.23 232.59L209.65 221.53C210.37 219.21 212.83 217.91 215.15 218.63L248.66 229C250.98 229.72 252.28 232.18 251.56 234.5L248.14 245.56C247.42 247.87 244.96 249.17 242.65 248.45Z" fill="#2D1F04"/>
<path d="M211.9 233.31L210.18 232.78L212.62 224.88L214.21 225.37L213.86 226.49C214.3 226.05 214.65 225.77 214.92 225.67C215.19 225.57 215.47 225.55 215.75 225.64C216.14 225.76 216.48 226.01 216.75 226.38L215.65 228.04C215.44 227.72 215.21 227.53 214.95 227.45C214.71 227.38 214.47 227.4 214.24 227.52C214 227.64 213.78 227.92 213.55 228.36C213.33 228.8 213.03 229.64 212.64 230.87L211.9 233.31Z" fill="#2D1F04"/>
<path d="M219.66 232.96L221.26 233.84C220.79 234.56 220.25 235.04 219.65 235.28C219.05 235.52 218.4 235.53 217.71 235.31C216.75 235.01 216.11 234.46 215.79 233.66C215.4 232.72 215.42 231.58 215.83 230.24C216.24 228.92 216.88 227.95 217.74 227.35C218.47 226.84 219.26 226.72 220.09 226.97C221.02 227.26 221.64 227.82 221.95 228.67C222.31 229.64 222.26 230.89 221.78 232.42L221.7 232.66L217.41 231.33C217.23 231.96 217.22 232.49 217.38 232.92C217.55 233.35 217.82 233.62 218.2 233.74C218.76 233.92 219.24 233.66 219.66 232.96ZM220.4 230.87C220.58 230.25 220.59 229.74 220.44 229.35C220.29 228.96 220.04 228.71 219.7 228.61C219.34 228.5 218.98 228.57 218.63 228.81C218.28 229.06 218.01 229.48 217.83 230.07L220.4 230.87Z" fill="#2D1F04"/>
<path d="M227.47 229.46L226.95 231.13L225.78 230.77L224.79 233.96C224.58 234.65 224.47 235.06 224.47 235.18C224.48 235.4 224.59 235.54 224.8 235.61C224.96 235.66 225.21 235.66 225.55 235.62L225.2 237.29C224.74 237.38 224.26 237.34 223.76 237.19C223.32 237.06 223.01 236.84 222.81 236.55C222.61 236.26 222.53 235.91 222.56 235.49C222.58 235.18 222.73 234.58 223 233.7L224.07 230.25L223.28 230.01L223.8 228.34L224.59 228.58L225.08 227.01L227.18 226.32L226.32 229.11L227.47 229.46Z" fill="#2D1F04"/>
<path d="M230.48 239.05L230.85 237.87C230.48 238.22 230.06 238.46 229.6 238.59C229.14 238.71 228.7 238.71 228.28 238.58C227.85 238.45 227.51 238.22 227.24 237.89C226.97 237.56 226.82 237.17 226.78 236.7C226.74 236.24 226.84 235.61 227.09 234.83L228.64 229.82L230.36 230.35L229.24 233.98C228.92 235.02 228.74 235.68 228.71 235.98C228.68 236.28 228.72 236.53 228.85 236.74C228.98 236.95 229.17 237.09 229.42 237.17C229.71 237.26 230 237.24 230.31 237.11C230.62 236.98 230.85 236.78 231.03 236.48C231.2 236.19 231.46 235.51 231.79 234.44L232.82 231.11L234.54 231.64L232.1 239.54L230.48 239.05Z" fill="#2D1F04"/>
<path d="M235.51 240.61L233.79 240.08L236.23 232.18L237.82 232.67L237.47 233.79C237.91 233.35 238.26 233.07 238.53 232.97C238.8 232.86 239.08 232.85 239.36 232.94C239.75 233.06 240.09 233.31 240.36 233.68L239.26 235.34C239.05 235.02 238.82 234.83 238.56 234.75C238.32 234.68 238.08 234.7 237.85 234.82C237.61 234.94 237.39 235.22 237.16 235.66C236.94 236.1 236.64 236.94 236.25 238.17L235.51 240.61Z" fill="#2D1F04"/>
<path d="M244.62 243.43L242.9 242.9L244.15 238.86C244.4 238.05 244.53 237.5 244.55 237.21C244.57 236.92 244.51 236.68 244.38 236.48C244.25 236.28 244.07 236.15 243.85 236.08C243.56 235.99 243.27 236 242.98 236.12C242.69 236.23 242.45 236.44 242.25 236.74C242.05 237.04 241.82 237.64 241.54 238.55L240.43 242.13L238.71 241.6L241.15 233.7L242.74 234.19L242.38 235.34C242.8 234.98 243.22 234.74 243.65 234.63C244.08 234.52 244.5 234.53 244.93 234.66C245.43 234.81 245.81 235.08 246.08 235.44C246.34 235.81 246.48 236.22 246.48 236.67C246.48 237.12 246.37 237.73 246.13 238.51L244.62 243.43Z" fill="#2D1F04"/>
<path d="M242.65 248.45L209.13 238.09C206.81 237.37 205.51 234.91 206.23 232.59L209.65 221.53C210.37 219.21 212.83 217.91 215.15 218.63L248.66 229C250.98 229.72 252.28 232.18 251.56 234.5L248.14 245.56C247.42 247.87 244.96 249.17 242.65 248.45Z" stroke="#2D1F04" stroke-width="2.62" stroke-miterlimit="10" stroke-linecap="round" stroke-linejoin="round"/>
<path d="M161.33 247.83C150.68 249.49 146.86 247.87 140.54 246.99C142.27 241.62 142.21 233.8 140.42 228.96C146.45 226.83 154.98 231.16 164.61 231.17C171.96 231.18 177.23 228.36 177.8 231.53C178.01 232.7 172.71 246.04 161.33 247.83Z" fill="#2D1F04"/>
<path opacity="0.23" d="M161.25 247.83C159.17 248.16 157.35 248.36 155.71 248.46C153.69 248.59 151.97 248.57 150.41 248.46C150.19 248.44 149.96 248.43 149.74 248.41C146.46 248.11 143.85 247.45 140.54 246.99C141.21 244.9 141.61 242.45 141.74 239.95C144.89 239.72 148.11 239.52 151.53 239.42C164.75 239.05 172.4 235.62 177.37 230.71C177.54 230.92 177.65 231.19 177.71 231.53C177.92 232.7 172.62 246.04 161.25 247.83Z" fill="#2D1F04"/>
<path d="M161.33 247.83C150.68 249.49 146.86 247.87 140.54 246.99C142.27 241.62 142.21 233.8 140.42 228.96C146.45 226.83 154.98 231.16 164.61 231.17C171.96 231.18 177.23 228.36 177.8 231.53C178.01 232.7 172.71 246.04 161.33 247.83Z" stroke="#2D1F04" stroke-width="2.62" stroke-miterlimit="10" stroke-linecap="round" stroke-linejoin="round"/>
<path d="M176.3 230.36C168.51 237.98 155.98 238.53 141.81 237.13" stroke="#2D1F04" stroke-width="2.62" stroke-miterlimit="10" stroke-linecap="round" stroke-linejoin="round"/>
<path d="M228.2 245.01C224.93 249.37 222.02 254.95 221.82 261.87C215.59 260.5 211.44 260.69 202.03 255.42C191.99 249.79 191.66 235.44 192.27 234.41C193.9 231.65 197.86 236.11 204.75 238.67C213.79 242.01 223.5 240.67 228.2 245.01Z" fill="#2D1F04"/>
<path opacity="0.23" d="M222.6 256.29C222.19 257.9 221.92 259.61 221.85 261.41C216.06 260.23 211.88 260.17 202.89 255.14C192.85 249.51 192.52 235.16 193.13 234.13C195.11 241.86 207.01 251.71 222.3 256.2C222.4 256.23 222.5 256.26 222.6 256.29Z" fill="#2D1F04"/>
<path d="M192.27 234.41C195.44 241.59 203.04 251.1 224.2 251.71" stroke="#2D1F04" stroke-width="2.62" stroke-miterlimit="10" stroke-linecap="round" stroke-linejoin="round"/>
<path d="M228.2 245.01C224.93 249.37 222.02 254.95 221.82 261.87C215.59 260.5 211.44 260.69 202.03 255.42C191.99 249.79 191.66 235.44 192.27 234.41C193.9 231.65 197.86 236.11 204.75 238.67C213.79 242.01 223.5 240.67 228.2 245.01Z" stroke="#2D1F04" stroke-width="2.62" stroke-miterlimit="10" stroke-linecap="round" stroke-linejoin="round"/>
<path opacity="0.23" d="M225.07 78.5C222.94 76.59 220.1 75.43 216.99 75.43C210.31 75.43 204.9 80.8 204.9 87.43V88.21C204.9 90.59 205.6 92.81 206.8 94.68C204.34 92.47 202.8 89.29 202.8 85.75V84.97C202.8 78.34 208.21 72.96 214.89 72.96C219.16 72.96 222.92 75.17 225.07 78.5Z" fill="#2D1F04"/>
<path opacity="0.23" d="M148.08 76.3999C145.94 74.4899 143.1 73.3299 139.99 73.3299C133.32 73.3299 127.91 78.6999 127.91 85.3299V86.1199C127.91 88.4899 128.6 90.6999 129.8 92.5599C127.35 90.3699 125.81 87.1899 125.81 83.6499V82.8699C125.81 76.2399 131.22 70.8599 137.89 70.8599C142.17 70.8599 145.93 73.0699 148.08 76.3999Z" fill="#2D1F04"/>
<path d="M214.89 72.96C221.56 72.96 226.97 78.33 226.97 84.97V85.75C226.97 92.38 221.56 97.75 214.89 97.75C208.22 97.75 202.81 92.38 202.81 85.75V84.97C202.8 78.33 208.21 72.96 214.89 72.96Z" fill="#2D1F04"/>
<path d="M207.66 87.85C207.66 85.73 209.31 84 211.35 84C213.39 84 215.04 85.72 215.04 87.85C215.04 89.97 213.39 91.7 211.35 91.7C209.31 91.7 207.66 89.97 207.66 87.85Z" fill="#2D1F04"/>
<path d="M226.63 88.5901C225.41 94.6101 219.19 97.7501 214.89 97.7501C210.31 97.7501 204.77 95.0401 203.1 88.3501C208.21 91.3401 218.3 91.1701 226.63 88.5901Z" fill="#2D1F04"/>
<path d="M214.89 72.96C221.56 72.96 226.97 78.33 226.97 84.97V85.75C226.97 92.38 221.56 97.76 214.89 97.76C208.22 97.76 202.81 92.39 202.81 85.75V84.97C202.8 78.33 208.21 72.96 214.89 72.96Z" stroke="#2D1F04" stroke-width="2.6" stroke-miterlimit="10" stroke-linecap="round" stroke-linejoin="round"/>
<path d="M226.63 88.5901C225.41 94.6101 219.19 97.7501 214.89 97.7501C210.31 97.7501 204.77 95.0401 203.1 88.3501C208.21 91.3401 218.3 91.1701 226.63 88.5901Z" stroke="#2D1F04" stroke-width="2.6" stroke-miterlimit="10" stroke-linecap="round" stroke-linejoin="round"/>
<path d="M137.9 70.8599C131.23 70.8599 125.82 76.2299 125.82 82.8699V83.6499C125.82 90.2799 131.23 95.6499 137.9 95.6499C144.57 95.6499 149.98 90.2799 149.98 83.6499V82.8699C149.98 76.2299 144.57 70.8599 137.9 70.8599Z" fill="#2D1F04"/>
<path d="M145.13 85.7499C145.13 83.6299 143.48 81.8999 141.44 81.8999C139.4 81.8999 137.75 83.6199 137.75 85.7499C137.75 87.8699 139.4 89.5999 141.44 89.5999C143.47 89.5999 145.13 87.8799 145.13 85.7499Z" fill="#2D1F04"/>
<path d="M126.16 86.4998C127.38 92.5198 133.6 95.6598 137.9 95.6598C142.48 95.6598 148.02 92.9498 149.69 86.2598C144.57 89.2398 134.48 89.0698 126.16 86.4998Z" fill="#2D1F04"/>
<path d="M137.9 70.8599C131.23 70.8599 125.82 76.2299 125.82 82.8699V83.6499C125.82 90.2799 131.23 95.6599 137.9 95.6599C144.57 95.6599 149.98 90.2899 149.98 83.6499V82.8699C149.98 76.2299 144.57 70.8599 137.9 70.8599Z" stroke="#2D1F04" stroke-width="2.6" stroke-miterlimit="10" stroke-linecap="round" stroke-linejoin="round"/>
<path d="M126.16 86.4998C127.38 92.5198 133.6 95.6598 137.9 95.6598C142.48 95.6598 148.02 92.9498 149.69 86.2598C144.57 89.2398 134.48 89.0698 126.16 86.4998Z" stroke="#2D1F04" stroke-width="2.6" stroke-miterlimit="10" stroke-linecap="round" stroke-linejoin="round"/>
<path d="M179.636 227.636V226.545C179.758 214.97 180.97 205.758 183.273 198.909C185.576 192.061 188.848 186.515 193.091 182.273C197.333 178.03 202.424 174.121 208.364 170.545C211.939 168.364 215.152 165.788 218 162.818C220.848 159.788 223.091 156.303 224.727 152.364C226.424 148.424 227.273 144.061 227.273 139.273C227.273 133.333 225.879 128.182 223.091 123.818C220.303 119.455 216.576 116.091 211.909 113.727C207.242 111.364 202.061 110.182 196.364 110.182C191.394 110.182 186.606 111.212 182 113.273C177.394 115.333 173.545 118.576 170.455 123C167.364 127.424 165.576 133.212 165.091 140.364H142.182C142.667 130.061 145.333 121.242 150.182 113.909C155.091 106.576 161.545 100.97 169.545 97.0909C177.606 93.2121 186.545 91.2727 196.364 91.2727C207.03 91.2727 216.303 93.3939 224.182 97.6364C232.121 101.879 238.242 107.697 242.545 115.091C246.909 122.485 249.091 130.909 249.091 140.364C249.091 147.03 248.061 153.061 246 158.455C244 163.848 241.091 168.667 237.273 172.909C233.515 177.152 228.97 180.909 223.636 184.182C218.303 187.515 214.03 191.03 210.818 194.727C207.606 198.364 205.273 202.697 203.818 207.727C202.364 212.758 201.576 219.03 201.455 226.545V227.636H179.636ZM191.273 281.455C186.788 281.455 182.939 279.848 179.727 276.636C176.515 273.424 174.909 269.576 174.909 265.091C174.909 260.606 176.515 256.758 179.727 253.545C182.939 250.333 186.788 248.727 191.273 248.727C195.758 248.727 199.606 250.333 202.818 253.545C206.03 256.758 207.636 260.606 207.636 265.091C207.636 268.061 206.879 270.788 205.364 273.273C203.909 275.758 201.939 277.758 199.455 279.273C197.03 280.727 194.303 281.455 191.273 281.455Z" fill="white"/>
</g>
<defs>
<clipPath id="clip0_229_6124">
<rect width="342" height="342" fill="white"/>
</clipPath>
</defs>
</svg>
