<svg width="305" height="439" viewBox="0 0 305 439" fill="none" xmlns="http://www.w3.org/2000/svg">
<path d="M225.67 128.23L220.87 120.32L216.08 123.93C216.83 114.2 214.56 109.72 208.2 95.6902C199.74 77.0002 177.55 55.8202 153.11 53.3602L154.11 43.4102C182.57 46.2802 207.45 69.8002 217.31 91.5602C223.37 104.92 226.68 115.21 225.67 128.23Z" fill="#2D1F04"/>
<path opacity="0.23" d="M225.67 128.22L220.87 120.31L216.46 122.65C217.22 112.92 214.56 109.71 208.2 95.6799C199.74 76.9899 177.55 55.8099 153.11 53.3499L154.12 43.3999C154.98 43.4899 155.84 43.5899 156.69 43.7199L156.09 49.6399C180.53 52.0999 201.98 73.5299 211.53 91.6899C216.64 101.41 219.44 110.34 219.44 118.94L223.84 116.61L225.7 119.68C225.91 122.43 225.9 125.25 225.67 128.22Z" fill="#2D1F04"/>
<path d="M225.67 128.23L220.87 120.32L216.46 122.65C217.21 112.92 214.55 109.71 208.2 95.6799C199.74 76.9899 177.55 55.8099 153.11 53.3499L154.11 43.3999C182.57 46.2699 207.45 69.7899 217.31 91.5499C223.37 104.92 226.68 115.21 225.67 128.23Z" stroke="#2D1F04" stroke-width="2.7806" stroke-miterlimit="10" stroke-linecap="round" stroke-linejoin="round"/>
<path d="M258.29 140.91C239.97 127.92 233.86 117.05 226.78 104.45C223.83 99.21 220.78 93.79 216.55 87.74C202.34 67.42 177.43 52.92 155.98 52.48L156.19 42.48C181.02 42.99 208.57 58.87 224.75 82C229.26 88.45 232.58 94.35 235.5 99.54C242.25 111.56 247.59 121.05 264.08 132.74L255.26 132.99L258.29 140.91Z" fill="#2D1F04"/>
<path opacity="0.23" d="M255.25 133L258.29 140.9C239.97 127.91 233.85 117.04 226.78 104.45C223.83 99.2 220.78 93.78 216.55 87.73C202.34 67.42 177.43 52.92 155.98 52.48L156.19 42.48C157.15 42.5 158.11 42.54 159.08 42.61L158.96 48.78C180.41 49.22 205.31 63.71 219.52 84.03C223.76 90.08 226.8 95.5 229.75 100.74C236.05 111.96 241.59 121.8 255.65 132.99L255.25 133Z" fill="#2D1F04"/>
<path d="M258.29 140.91C239.97 127.92 233.86 117.05 226.78 104.45C223.83 99.21 220.78 93.79 216.55 87.74C202.34 67.42 177.43 52.92 155.98 52.48L156.19 42.48C181.02 42.99 208.57 58.87 224.75 82C229.26 88.45 232.58 94.35 235.5 99.54C242.25 111.56 247.59 121.05 264.08 132.74L255.26 132.99L258.29 140.91Z" stroke="#2D1F04" stroke-width="2.7806" stroke-miterlimit="10" stroke-linecap="round" stroke-linejoin="round"/>
<path d="M283.442 78.6067L271.484 68.3726L223.701 124.203L235.658 134.437L283.442 78.6067Z" fill="#2D1F04"/>
<path d="M268.9 83.4198L266.35 76.7598L273.34 78.2698L275.92 84.9498L268.9 83.4198Z" fill="#2D1F04"/>
<path d="M263.37 89.8797L260.82 83.2197L267.82 84.7297L270.39 91.4097L263.37 89.8797Z" fill="#2D1F04"/>
<path d="M257.84 96.3397L255.29 89.6797L262.29 91.1897L264.86 97.8697L257.84 96.3397Z" fill="#2D1F04"/>
<path d="M252.31 102.8L249.76 96.1396L256.76 97.6497L259.33 104.33L252.31 102.8Z" fill="#2D1F04"/>
<path d="M246.78 109.26L244.23 102.6L251.23 104.11L253.8 110.79L246.78 109.26Z" fill="#2D1F04"/>
<path d="M241.25 115.72L238.7 109.06L245.7 110.57L248.27 117.25L241.25 115.72Z" fill="#2D1F04"/>
<path d="M235.72 122.19L233.17 115.52L240.17 117.03L242.74 123.71L235.72 122.19Z" fill="#2D1F04"/>
<path d="M229.64 129.29L226.45 120.96L235.19 122.85L238.4 131.2L229.64 129.29Z" fill="#2D1F04"/>
<path d="M283.442 78.6067L271.484 68.3726L223.701 124.203L235.658 134.437L283.442 78.6067Z" stroke="#2D1F04" stroke-width="2.7806" stroke-miterlimit="10" stroke-linecap="round" stroke-linejoin="round"/>
<path d="M286.16 77.0099L281.64 82.2899C281.16 82.8599 278.96 81.5799 276.46 79.6799C275.62 79.0499 274.75 78.3399 273.9 77.6199C272.49 76.4099 271.14 75.1499 270.09 74.0099C268.61 72.4299 267.72 71.1399 268.1 70.6999L272.62 65.4199C272.94 65.0499 274.32 65.7699 276.09 67.0099C277.35 67.8999 278.81 69.0399 280.22 70.2499C281.07 70.9799 281.9 71.7299 282.67 72.4499C284.93 74.5999 286.57 76.5299 286.16 77.0099Z" fill="#2D1F04"/>
<path opacity="0.57" d="M280.21 70.2498L273.9 77.6198C272.49 76.4098 271.14 75.1498 270.09 74.0098L276.08 67.0098C277.34 67.8898 278.8 69.0398 280.21 70.2498Z" fill="#2D1F04"/>
<path opacity="0.23" d="M286.16 77.0097L281.64 82.2897C281.16 82.8597 278.96 81.5797 276.46 79.6797L282.65 72.4497C284.93 74.5997 286.57 76.5297 286.16 77.0097Z" fill="#2D1F04"/>
<path d="M286.16 77.0099L281.64 82.2899C280.35 83.7999 266.8 72.1999 268.09 70.6999L272.61 65.4199C273.71 64.1299 287.26 75.7199 286.16 77.0099Z" stroke="#2D1F04" stroke-width="2.7806" stroke-miterlimit="10" stroke-linecap="round" stroke-linejoin="round"/>
<path d="M67.9499 308.34C64.0299 310.46 44.86 303.98 48.49 301.4C118.13 251.88 222.53 123.92 222.53 123.92L236.08 135.51C236.08 135.52 131.57 273.88 67.9499 308.34Z" fill="#2D1F04"/>
<path opacity="0.32" d="M236.08 135.52C236.08 135.52 235.42 136.35 234.15 137.91L223.73 129C223.73 129 121.44 255.79 51.81 305.36C49.13 304.12 47.21 302.31 48.49 301.4C118.13 251.88 222.54 123.93 222.54 123.93L236.08 135.52Z" fill="#2D1F04"/>
<path d="M67.9499 308.34C64.0299 310.46 44.86 303.98 48.49 301.4C118.13 251.88 222.53 123.92 222.53 123.92L236.08 135.51C236.08 135.52 131.57 273.88 67.9499 308.34Z" stroke="#2D1F04" stroke-width="2.7806" stroke-miterlimit="10" stroke-linecap="round" stroke-linejoin="round"/>
<path d="M245.22 147.06C240.79 143.27 232.02 140.02 225.37 134.33C218.8 128.7 214.34 120.63 209.96 116.88C205.34 112.92 209.9 107.59 214.52 111.55C218.9 115.3 227.51 118.52 234.08 124.15C240.73 129.84 245.35 137.94 249.78 141.73C254.09 145.42 249.53 150.75 245.22 147.06Z" fill="#2D1F04"/>
<path opacity="0.57" d="M231.48 127.18C224.91 121.56 208.64 111.11 209.57 110.58C210.82 109.87 212.66 109.96 214.51 111.54C218.89 115.29 227.51 118.52 234.08 124.14C240.73 129.83 245.34 137.93 249.78 141.72C251.28 143.01 251.7 144.49 251.43 145.73C251.16 146.98 238.13 132.87 231.48 127.18Z" fill="#2D1F04"/>
<path opacity="0.23" d="M245.22 147.06C240.78 143.26 232.01 140.02 225.37 134.33C218.8 128.71 214.34 120.63 209.96 116.87C206.94 114.29 207.84 111.12 210.13 110.34C209.9 111.59 210.4 113.13 212 114.49C216.38 118.24 220.84 126.32 227.41 131.95C234.06 137.64 242.83 140.88 247.26 144.68C248.75 145.95 250.27 146.15 251.44 145.7C250.95 148.03 248.03 149.46 245.22 147.06Z" fill="#2D1F04"/>
<path d="M245.22 147.06C240.79 143.27 232.02 140.02 225.37 134.33C218.8 128.7 214.34 120.63 209.96 116.88C205.34 112.92 209.9 107.59 214.52 111.55C218.9 115.3 227.51 118.52 234.08 124.15C240.73 129.84 245.35 137.94 249.78 141.73C254.09 145.42 249.53 150.75 245.22 147.06Z" stroke="#2D1F04" stroke-width="2.7806" stroke-miterlimit="10" stroke-linecap="round" stroke-linejoin="round"/>
<path d="M265.05 186.96C267.13 185.04 262.63 180.95 261.18 179.03C241.22 152.56 228.05 143.64 212.81 144.57C213.21 100 197.07 56.21 152.79 35.54C145.62 32.07 138.03 30.14 130.41 27.37C128.99 26.85 126 26.08 124.94 24.52C123.76 22.79 124.56 20.29 124.49 20.3C118.04 21.39 120.93 27.16 120.93 27.16C120.93 27.16 119.66 27.08 119.04 26.95C116.34 26.35 113.57 24.01 113.77 19.95C114.02 14.56 119.84 12.36 118.97 11.92C118.74 11.81 108.54 7.09996 100.69 13.29C96.39 16.69 94.34 21.35 95.81 27.51C86.15 25.74 87.62 17.36 87.47 17.39C78.87 18.92 75.68 29.01 81.78 33.05C81.78 34.08 77.61 33.86 74.79 31.86C72.7 30.38 71.79 27.03 71.55 27.18C63.47 32.2 67.21 40.88 74.42 41.68C74.95 41.74 76.06 41.8 75.89 42.31C75.83 42.49 74.23 43.64 71.51 43.69C68.77 43.73 67.67 42.35 67.55 42.71C66.34 46.41 72.43 49.64 74.78 48.47C69.95 51.69 66.68 55.51 63.55 60.93C49.77 84.83 57.22 111.69 68.52 134.29C69.52 136.28 70.94 138.57 71.26 140.82C71.42 141.93 70.77 143.83 71.26 144.82C71.47 145.24 72.46 143.72 72.52 144.19C72.74 145.98 72.6 148.01 72.4 149.85C61.92 153.73 50.55 164.01 36.41 182.75C34.95 184.68 30.45 188.78 32.55 190.69C18.23 208.66 9.37997 241.57 10.12 249.18C10.97 257.86 17.85 264.82 36.91 272.85C55.14 280.54 69.02 282.82 80.28 283.53C84.43 289.74 89.75 296.18 96.6 302.92C97.1 303.41 97.61 303.89 98.15 304.35C96.07 311.6 101.29 326.98 106.83 332.38C93.89 331.97 78.37 343.93 77.31 344.89C72.78 349.02 74.19 349.31 77.31 349.31C80.43 349.31 105.42 348.04 118.62 347.82C123.98 347.73 130.54 347.42 135.87 347.24C139.1 347.12 154.37 347.03 152.02 341.52C149.23 334.94 145.88 325.93 145.53 320.83C153.95 321.35 162.34 320.81 169.89 319.07C172.11 325.5 176.57 330.79 182.92 332.96C164.67 336.15 157.62 342.54 153.29 347.95C152.75 349.06 166.91 349.53 182.57 350.11C200.75 350.79 222.79 351.76 230.27 350.03C237.74 348.3 231.44 337.26 229.99 332.82C225.13 317.88 220.29 297.12 227.6 282.09C230.68 281.43 234.31 280.58 239.14 280.25C248.3 279.63 258.66 277.91 267.89 274.02C286.96 265.99 293.42 254.41 294.28 245.73C295.02 238.11 281.72 207.02 265.05 186.96ZM52.64 250.41C52.64 247.91 60.62 246.2 65.85 241.96C66.56 249.23 67.87 256.67 70.61 264.43C68.05 262.94 52.64 252.74 52.64 250.41ZM231.97 261.22C232.93 253.96 233.48 246.23 233.34 239.4C238.85 243.14 247.26 246.21 246.96 248.45C246.55 251.49 241.62 256.8 231.97 261.22Z" fill="#2D1F04"/>
<path d="M202.83 350.82C200.21 350.75 197.53 350.67 194.84 350.57C193.59 350.53 192.34 350.48 191.1 350.44C188.2 350.33 185.33 350.22 182.55 350.12C182.12 350.1 181.7 350.09 181.27 350.07C180.98 350.06 180.69 350.05 180.4 350.04C178.91 349.98 177.44 349.93 176.01 349.87C175.68 349.86 175.35 349.85 175.03 349.84C172.4 349.73 169.88 349.63 167.55 349.52C167.2 349.51 166.86 349.5 166.53 349.48C166.14 349.46 165.75 349.44 165.37 349.42C164.9 349.4 164.43 349.37 163.98 349.35C163.53 349.33 163.08 349.3 162.65 349.28C162.16 349.25 161.68 349.22 161.23 349.19C160.73 349.16 160.25 349.12 159.79 349.09C158.88 349.03 158.05 348.96 157.31 348.89C156.95 348.85 156.61 348.82 156.29 348.78C156.25 348.78 156.22 348.78 156.18 348.77C155.9 348.74 155.63 348.7 155.39 348.67C155.21 348.65 155.03 348.62 154.87 348.59C154.79 348.58 154.71 348.57 154.64 348.55C154.27 348.49 153.96 348.41 153.73 348.34C153.65 348.31 153.59 348.29 153.53 348.26C153.47 348.24 153.42 348.21 153.38 348.18C153.34 348.15 153.31 348.12 153.29 348.1C153.26 348.05 153.25 348 153.28 347.95C153.89 347.19 154.55 346.41 155.29 345.62C155.54 345.36 155.79 345.09 156.06 344.83C156.33 344.56 156.6 344.29 156.89 344.03C157.17 343.77 157.46 343.51 157.76 343.24C159.81 341.48 162.36 339.73 165.68 338.13C166.27 337.85 166.88 337.57 167.52 337.29C167.58 337.27 167.64 337.24 167.71 337.21C168.01 337.08 168.33 336.95 168.65 336.82C169.08 336.65 169.52 336.48 169.97 336.32C170.36 336.17 170.77 336.03 171.18 335.89C171.49 335.78 171.8 335.67 172.13 335.57C172.47 335.46 172.82 335.35 173.17 335.24C173.39 335.17 173.62 335.11 173.85 335.04C174.14 334.95 174.44 334.86 174.75 334.78C175.04 334.7 175.34 334.62 175.65 334.54C176.63 334.27 177.65 334.03 178.71 333.79C179.24 333.67 179.78 333.56 180.34 333.44C181.17 333.27 182.02 333.11 182.9 332.96C190.85 336.14 198.96 341.93 202.83 350.82Z" fill="#2D1F04"/>
<path d="M120.68 347.77C119.97 347.79 119.28 347.81 118.6 347.82C105.4 348.04 80.41 349.31 77.29 349.31C76.01 349.31 75.03 349.26 74.61 348.92C74.14 348.51 74.45 347.72 75.98 346.16C76.07 346.06 76.1699 345.96 76.2699 345.87C76.3699 345.77 76.47 345.66 76.58 345.56C76.8 345.34 77.04 345.12 77.29 344.89C78.35 343.93 93.8699 331.97 106.81 332.38H106.82C112.18 335.96 117.72 341.18 120.68 347.77Z" fill="#2D1F04"/>
<path d="M73.35 165.07C72.46 165.77 71.56 168.19 71.14 169.08C70.22 171.05 71.52 172.89 71.42 173.92C71.3 175.13 68.86 179.62 66.46 184.16C64.72 187.45 63.43 190.81 62.51 194.14C61.6 197.43 61.04 200.7 60.76 203.83C52.66 196.6 41.66 193.08 34.77 191.57C28.93 190.28 34.94 185.09 36.67 182.8C50.96 163.87 62.08 153.71 72.66 149.9C72.63 150.19 72.6 150.48 72.57 150.76C72.49 151.54 71.6 153.63 72.15 153.07C72.33 152.89 72.86 151.13 73.63 151.39C74.07 151.54 73.57 163.95 73.35 165.07Z" fill="#2D1F04"/>
<path d="M263.45 187.71C238.77 199.23 231.8 212.96 223.46 223.09C223.39 223.18 223.31 223.27 223.24 223.35C224.7 228.9 227 233.86 231.87 237.94C232.43 238.41 233.05 238.86 233.71 239.31C233.87 246.29 233.51 253.65 232.51 261.05C231.06 261.73 229.49 262.38 227.82 263C220.14 265.86 211.14 256.63 199.16 263.51C192.79 267.17 190.22 274.83 189.97 277.38C189.71 279.94 197.93 271.46 215.5 281.11C219.9 283.52 223.29 282.99 227.92 282.01C227.41 283.08 226.84 284.45 226.46 285.5C216.73 296.85 193.14 303.49 174.91 306.57C142.58 312.06 114.13 309.44 93.59 299.39C81.06 286.27 74.27 274.26 70.5 262.91C69.78 260.77 69.18 258.66 68.67 256.57C66.3 247.01 65.78 237.87 65.37 228.87C62.18 227 55.95 204.1 66.57 184.02C68.97 179.48 71.42 174.99 71.53 173.78C71.63 172.75 69.6 170.96 70.52 168.99C71.15 167.66 74.48 162.77 74.01 165.47C115.18 177.31 156.5 168.81 161.59 167.68C169.12 166.01 177.18 163.69 185.22 160.97C189.03 154.39 195.01 148.48 204.22 146.01C210.75 144.26 216.68 143.84 222.57 145.27C234.24 148.06 245.78 158.02 261.56 178.94C263.29 181.23 268.88 185.18 263.45 187.71Z" fill="#2D1F04"/>
<path d="M62.2 88.0902C64.32 79.4502 68.31 71.9602 75.25 68.2802C84.64 63.3002 90.66 64.2502 99.25 62.4102C102.82 61.6402 105.63 60.2002 106.22 56.5702C106.48 54.9602 105.88 53.2202 104.32 50.9902C107.51 50.9902 111.02 52.2702 113.64 54.3702C118.94 58.6302 125.74 59.5502 131.97 59.3502C153.91 58.6602 167.8 61.2002 178.41 80.4102C180.79 84.7202 184.45 94.5902 181.96 105.62C178.33 121.68 176.44 128.42 159.01 140.45C138.3 154.74 95.44 161.85 74.04 134.82C64.03 122.15 58.24 104.22 62.2 88.0902Z" fill="#2D1F04"/>
<path d="M102.27 95.4498C95.0499 91.8398 89.1999 110.09 89.7799 115.33C91.7699 133.28 118.03 132.36 130.2 126.27C147.77 117.49 126.28 89.1898 113.72 94.2198" fill="#2D1F04"/>
<path d="M62.2299 88.1399C58.9099 101.55 62.7699 116.61 65.7399 118.84C68.0399 120.56 80.22 113.22 88.37 101.08C96.93 88.3499 97.5399 75.0099 95.2899 72.7599C94.0199 71.4899 74.7499 69.6599 72.1999 70.2799C68.9599 71.0799 64.4899 78.9999 62.2299 88.1399Z" fill="#2D1F04"/>
<path d="M129.51 72.1799C127.47 109.76 172.08 129.7 177.12 122.39C180.35 117.71 186.57 98.1299 179.51 82.6099C175.85 74.5599 168.25 65.5299 164.35 65.4899C157.44 65.4199 148.39 67.6099 141 69.2899C134.81 70.6999 129.86 69.6499 129.51 72.1799Z" fill="#2D1F04"/>
<path d="M75.8499 47.48C71.0099 50.71 67.16 54.83 63.99 60.19C49.95 83.93 57.39 111.6 68.69 134.2C69.68 136.19 71.1099 138.48 71.4299 140.73C71.5899 141.85 70.9399 143.75 71.4299 144.73C71.6399 145.15 72.63 143.63 72.69 144.1C72.95 146.17 72.71 148.57 72.48 150.62C72.39 151.4 71.4999 153.49 72.0599 152.94C72.2399 152.76 72.7599 151 73.5299 151.26C73.9799 151.41 73.54 162.56 73.32 163.68" stroke="#2D1F04" stroke-width="2.7806" stroke-miterlimit="10" stroke-linecap="round" stroke-linejoin="round"/>
<path d="M69.81 261.21C66.27 249.87 65.64 239.17 65.16 228.66C61.97 226.78 55.74 203.89 66.36 183.81C66.65 183.27 66.98 182.55 67.34 181.71C68.17 181.77 70.36 181.96 71.81 182.27C73.57 182.65 74.95 183.83 75.32 190.95C75.7 198.07 90.26 198.87 102.61 199.89C113.59 200.8 137.11 202.56 140.68 193.82C144.26 185.08 146.93 183.29 154.27 183.29C161.62 183.29 169.3 181.34 171.66 189.83C175.79 204.68 183.53 222.29 200.6 231.8C213.62 239.06 222.32 238.04 231.67 237.73C232.23 238.19 232.84 238.65 233.5 239.09C233.65 246.09 233.3 253.4 232.3 260.84C230.85 261.51 229.29 262.16 227.62 262.78C226.21 263.31 224.75 263.42 223.24 263.31C220.78 263.12 218.17 262.31 215.37 261.64C214.8 261.5 214.23 261.37 213.65 261.26C213.38 261.2 213.1 261.15 212.83 261.1C212.48 261.04 212.13 260.98 211.77 260.93C211.55 260.9 211.34 260.87 211.12 260.84C210.93 260.82 210.73 260.8 210.53 260.78C210.19 260.75 209.85 260.72 209.51 260.71C207.89 260.63 206.22 260.73 204.47 261.11C203.69 261.28 202.89 261.51 202.08 261.82C201.87 261.9 201.67 261.98 201.46 262.06C201.05 262.22 200.64 262.41 200.22 262.62C200.21 262.63 200.21 262.62 200.21 262.62C199.8 262.82 199.38 263.04 198.95 263.29C197.75 263.98 196.69 264.8 195.76 265.72C195.6 265.86 195.44 266.02 195.3 266.18C193.81 267.73 192.66 269.48 191.79 271.15C191.53 271.65 191.3 272.14 191.1 272.61C191.11 272.62 191.1 272.62 191.1 272.62C190.96 272.94 190.83 273.25 190.72 273.55C190.72 273.55 190.73 273.55 190.72 273.56C190.2 274.92 189.9 276.1 189.79 276.91C189.78 277 189.77 277.09 189.76 277.17C189.5 279.72 197.72 271.24 215.29 280.89C217.67 282.2 219.76 282.64 221.91 282.62C223.69 282.6 225.51 282.26 227.57 281.82C226.91 283.17 226.36 284.57 225.89 286.01C215.79 296.91 192.54 303.34 174.7 306.36C142.35 311.84 114.01 309.33 93.47 299.26C86.2 291.66 80.86 284.44 76.92 277.5L69.81 261.21Z" fill="#2D1F04"/>
<path d="M221.92 282.84C219.77 282.86 217.68 282.42 215.3 281.11C197.73 271.46 189.51 279.94 189.77 277.38C190.02 274.83 192.59 267.17 198.96 263.51C208.74 257.89 216.54 263.02 223.25 263.53C219.76 267.96 216.42 274.52 221.92 282.84Z" fill="#2D1F04"/>
<path opacity="0.32" d="M108.55 261.83C107.97 257.09 105.2 253.55 99.33 253.55C93.4599 253.55 84.5199 255.42 79.6699 257.93C75.3299 260.18 72.8899 263.28 74.6799 268.14C76.4799 273 79.4099 278.51 84.1299 278.1C96.5999 277.04 109.41 273.71 109.15 269.48C108.89 265.25 108.77 263.66 108.55 261.83Z" fill="#2D1F04"/>
<path opacity="0.32" d="M89.2 280.45C92.65 279.61 101.14 277.9 103.98 277.56C106.82 277.22 110.48 278.05 111.41 281.29C112.35 284.53 112.6 290.41 112.43 292.87C112.26 295.34 108.46 296.87 103.98 296.19C99.5 295.51 92.78 293.3 90.39 291.85C88.01 290.4 86.75 288.74 84.65 285.98C82.99 283.8 84.96 281.47 89.2 280.45Z" fill="#2D1F04"/>
<path opacity="0.32" d="M123.58 263.57C123.59 269.48 123.91 276.21 131.49 277.38C139.15 278.57 156.59 280.02 163.19 279.85C169.79 279.68 170.89 276.01 170.93 271.89C170.97 267.77 168.22 262.98 159.75 260.11C151.06 257.17 140.51 256.51 134.55 256.21C131.76 256.07 128.6 256.21 126.64 257.38C124.42 258.71 123.58 261.23 123.58 263.57Z" fill="#2D1F04"/>
<path opacity="0.32" d="M130.98 280.53C136.32 279.8 157.21 281.75 162.7 282.83C168.13 283.91 172.21 285.07 172.34 291.08C172.43 295.68 172 298.4 166.3 299.51C160.52 300.63 138.39 301.34 133.66 299.94C128.94 298.54 127.66 295.87 127.15 290.44C126.64 285 126.52 281.14 130.98 280.53Z" fill="#2D1F04"/>
<path opacity="0.32" d="M72.25 200.49C80.43 200.88 101.22 204.7 102.75 210.05C103.59 213 103.77 217.1 103.39 220.54C103.01 223.98 93.8 226.49 80.49 226.9C68.79 227.26 62.42 224.79 61.63 220.54C60.67 215.37 59.85 209.83 60.55 205.21C61.25 200.59 67.27 200.25 72.25 200.49Z" fill="#2D1F04"/>
<path opacity="0.32" d="M115.67 213.09C115.86 209.56 117.97 207.51 123.58 206.74C129.2 205.97 148.86 204.83 156.64 204.89C164.42 204.95 169.53 206.66 170.43 213.08C171.32 219.5 171.07 229.2 169.41 231.5C167.75 233.8 155.62 235.2 140.69 231.5C125.76 227.8 115.8 225.2 115.55 220.39C115.45 218.36 115.57 214.92 115.67 213.09Z" fill="#2D1F04"/>
<path d="M76.9099 277.71C76.2699 269.78 81.3799 267.68 81.3799 265.96C81.3799 264.53 73.1499 259.95 69.7499 261.22C66.1999 262.54 66.0599 269.34 67.9799 271.38C67.7199 273.68 69.5099 279.06 72.9599 281.23C76.3999 283.41 78.3899 282.14 76.9099 277.71Z" fill="#2D1F04"/>
<path opacity="0.23" d="M65.5699 235.32C80.5699 238.7 108.02 234.05 108.52 234.18C109.02 234.31 114.07 235.33 126.8 238.65C139.53 241.97 154.34 245.08 162.01 245.08C164.9 245.08 168.51 242.51 172.48 238.06C176.57 233.49 180.05 227.98 183.42 221.89C176.27 232.53 167.54 237.22 165.04 237.89C161.93 238.72 160.95 238.74 156.53 238.4C142.33 237.33 112.65 228.78 109.41 228.31C107.15 227.99 74.2799 233.67 65.1199 227.08" fill="#2D1F04"/>
<path opacity="0.23" d="M227.86 281.82C227.35 282.89 226.78 284.26 226.4 285.31C216.67 296.66 193.08 303.3 174.85 306.38C142.52 311.87 114.07 309.25 93.5299 299.2C91.0299 296.58 88.7599 294 86.6899 291.47C89.5799 292.81 93.3599 294.77 96.3299 296.15C104.76 300.07 113.47 300.75 115.35 297.75C116.31 296.22 117.64 293.02 116.86 289.28C115.77 284.07 112.41 274.03 115.03 264.34C113.69 275.4 120.46 283.83 120.85 292C120.85 301.02 129.08 302.67 138.21 303.27C145.29 303.74 152.18 303.74 165.23 302.34C178.9 300.89 181.24 296.98 181.41 288.56C181.54 282.38 180.01 271.96 176.86 266.73C173.05 260.4 159.96 256.07 145.83 253.01C155.36 252.84 174.23 254.3 183.26 262.3C186.21 264.92 189.38 267.74 192.4 270.32C190.8 273.14 190.04 275.86 189.91 277.19C189.75 278.8 192.94 276.04 199.71 276.18C202.04 276.22 204.8 276.61 207.98 277.65C210.25 278.38 212.73 279.43 215.44 280.92C219.84 283.33 223.23 282.8 227.86 281.82Z" fill="#2D1F04"/>
<path opacity="0.23" d="M232.45 260.86C231 261.54 229.43 262.19 227.76 262.81C223.39 264.44 218.6 262.15 213.08 261.15C213.56 256.98 213.68 252.62 213.37 248.68C212.79 241.36 211.41 230.34 207.2 225.75C202.98 221.15 197.37 214.64 194.19 210.49C205.12 213.04 209.4 216.29 213.66 219.07C214.98 222.56 217.46 227.9 223.18 223.16C224.64 228.71 226.94 233.67 231.81 237.75C232.37 238.22 232.99 238.67 233.65 239.12C233.81 246.1 233.45 253.46 232.45 260.86Z" fill="#2D1F04"/>
<path opacity="0.23" d="M263.39 187.52C260.56 188.84 257.95 190.2 255.56 191.57C255.55 191.58 255.54 191.58 255.53 191.58C251.36 193.78 249.08 182.09 236.35 167.38C224.1 153.23 204.82 144.25 193.77 150.86C196.67 148.67 200.1 146.91 204.16 145.82C210.69 144.07 216.62 143.65 222.51 145.08C234.18 147.87 245.72 157.83 261.5 178.75C263.23 181.04 268.82 184.99 263.39 187.52Z" fill="#2D1F04"/>
<path opacity="0.23" d="M152.04 343.29C151.99 343.41 151.93 343.53 151.86 343.65C151.72 343.88 151.53 344.09 151.3 344.29C151.07 344.48 150.81 344.67 150.52 344.84C150.37 344.93 150.21 345.01 150.05 345.09C149.58 345.31 149.05 345.52 148.48 345.7C147.27 346.08 145.86 346.35 144.42 346.55C144.18 346.58 143.95 346.61 143.71 346.64C143.48 346.67 143.24 346.7 143.01 346.72C142.77 346.75 142.54 346.77 142.3 346.79C140.66 346.95 139.09 347.03 137.84 347.07C137.68 347.08 137.52 347.08 137.37 347.09C137.26 347.09 137.17 347.1 137.07 347.1C136.94 347.1 136.82 347.11 136.7 347.11C136.34 347.12 136.04 347.13 135.8 347.14C135.51 347.15 135.21 347.16 134.92 347.17C134.62 347.18 134.32 347.19 134.01 347.2C133.23 347.23 132.42 347.26 131.61 347.29C130.98 347.32 130.34 347.34 129.69 347.37C129.23 347.39 128.77 347.4 128.3 347.42C127.23 347.46 126.16 347.5 125.1 347.54C123.57 347.59 122.07 347.64 120.62 347.67C119.92 347.69 119.22 347.71 118.55 347.72C105.35 347.94 80.36 349.21 77.24 349.21C77.03 349.21 76.82 349.21 76.63 349.2C76.49 349.2 76.35 349.2 76.22 349.19C76.15 349.19 76.09 349.19 76.03 349.18C75.97 349.18 75.91 349.17 75.85 349.17C75.67 349.16 75.51 349.14 75.36 349.11C75.31 349.1 75.26 349.09 75.21 349.08C75.12 349.07 75.05 349.05 74.98 349.02C74.96 349.02 74.94 349.01 74.92 349C74.88 348.99 74.84 348.98 74.81 348.96C74.76 348.94 74.72 348.92 74.69 348.9C74.63 348.88 74.59 348.85 74.55 348.82C74.52 348.79 74.49 348.76 74.47 348.73C74.38 348.59 74.34 348.44 74.37 348.24C74.38 348.2 74.39 348.16 74.4 348.12C74.43 348.03 74.47 347.93 74.52 347.82C74.52 347.8 74.53 347.78 74.55 347.76C74.56 347.72 74.58 347.69 74.61 347.65C74.65 347.58 74.7 347.51 74.75 347.43C74.8 347.35 74.86 347.26 74.94 347.16C74.97 347.13 74.99 347.09 75.03 347.05C75.15 346.91 75.28 346.75 75.43 346.59C75.5 346.5 75.58 346.42 75.67 346.33C75.75 346.24 75.84 346.15 75.93 346.06C76.02 345.96 76.12 345.86 76.22 345.77C76.32 345.67 76.42 345.56 76.53 345.46C76.75 345.24 76.99 345.02 77.24 344.79H77.25C77.26 344.78 77.28 344.76 77.3 344.74C77.3 344.74 77.3 344.73 77.31 344.74C77.33 344.72 77.35 344.7 77.38 344.67C77.41 344.65 77.44 344.62 77.48 344.59C77.48 344.59 77.48 344.58 77.49 344.59C77.52 344.56 77.56 344.53 77.59 344.49C77.81 344.32 78.09 344.1 78.45 343.82C78.46 343.83 78.46 343.83 78.46 343.82C78.5 343.8 78.53 343.77 78.57 343.74C78.61 343.72 78.64 343.69 78.68 343.65C80.79 342.09 84.95 339.24 89.93 336.78C90.07 336.72 90.21 336.65 90.35 336.58C91.33 336.11 92.33 335.65 93.36 335.23C93.51 335.16 93.65 335.1 93.8 335.04C93.85 335.02 93.89 335.01 93.93 334.98C93.94 334.99 93.94 334.99 93.94 334.98C94.53 334.75 95.13 334.52 95.72 334.3C95.73 334.31 95.73 334.31 95.73 334.3C96.6 333.99 97.48 333.71 98.36 333.46C98.64 333.38 98.9 333.3 99.17 333.24C99.96 333.03 100.75 332.86 101.54 332.71C101.61 332.7 101.67 332.69 101.74 332.68C101.75 332.67 101.75 332.67 101.76 332.67C101.78 332.67 101.8 332.66 101.82 332.66C102.04 332.62 102.25 332.59 102.45 332.56C102.56 332.54 102.66 332.53 102.76 332.52C102.81 332.51 102.87 332.5 102.92 332.49C102.97 332.48 103.02 332.48 103.07 332.47C103.27 332.45 103.48 332.42 103.68 332.4C103.78 332.39 103.88 332.38 103.99 332.37C104.32 332.34 104.65 332.32 104.98 332.3C105.34 332.28 105.71 332.27 106.07 332.27C106.3 332.27 106.53 332.27 106.76 332.28H106.77C106.63 332.14 106.48 331.99 106.33 331.84C105.76 331.22 105.19 330.5 104.63 329.69C100.03 322.99 96.28 310.39 98.16 304.08C108.76 313.45 127.21 319.5 145.47 320.63C145.48 320.66 145.48 320.69 145.48 320.73H145.47C145.75 324.75 147.88 331.19 150.14 336.95C150.57 338.06 151 339.13 151.42 340.15C151.42 340.16 151.43 340.16 151.43 340.16C151.6 340.59 151.78 341.01 151.95 341.42C152.25 342.13 152.26 342.75 152.04 343.29Z" fill="#2D1F04"/>
<path opacity="0.23" d="M233.1 347.97C232.93 348.23 232.74 348.47 232.51 348.69C231.96 349.22 231.2 349.62 230.2 349.85C225.41 350.96 214.65 350.96 202.77 350.64C202.6 350.64 202.44 350.63 202.28 350.63C201.18 350.6 200.07 350.57 198.95 350.53C196.75 350.46 194.52 350.38 192.31 350.3C191.76 350.28 191.21 350.26 190.66 350.24C190.06 350.22 189.46 350.2 188.87 350.18C188.09 350.15 187.31 350.12 186.53 350.09C185.18 350.04 183.83 349.99 182.51 349.94H182.5C181.49 349.9 180.48 349.86 179.49 349.83C179.07 349.81 178.65 349.8 178.24 349.78C178.23 349.78 178.23 349.78 178.23 349.78C178.19 349.78 178.16 349.78 178.12 349.77C177.93 349.77 177.73 349.76 177.54 349.75C177.53 349.75 177.53 349.75 177.53 349.75C177.06 349.74 176.6 349.72 176.15 349.7C174.73 349.65 173.34 349.59 171.99 349.54C171.7 349.52 171.41 349.51 171.12 349.5C171.01 349.5 170.91 349.49 170.8 349.49C170.58 349.48 170.37 349.47 170.15 349.46C169.52 349.44 168.9 349.41 168.29 349.38C168.02 349.37 167.75 349.36 167.49 349.34C167.17 349.33 166.86 349.32 166.56 349.3C165.55 349.26 164.59 349.21 163.67 349.16C163.49 349.15 163.31 349.14 163.14 349.13C162.98 349.12 162.84 349.11 162.69 349.1C162.55 349.1 154.71 348.38 154.58 348.37C166.64 343.59 187.72 342.18 197.67 342.8H197.73C202.19 343.08 205.72 343.52 207.58 343.59C214.34 343.84 216.77 342.31 213.93 332.78C211.24 323.72 207.92 308.06 208.16 297.25C215.46 294.16 221.81 290.39 225.93 285.85C221.04 300.42 225.47 318.97 229.92 332.64C231.1 336.23 235.45 344.16 233.1 347.97Z" fill="#2D1F04"/>
<path opacity="0.23" d="M182.02 314.6C184.99 312.73 190.96 308.94 192.82 306.39C157.27 322.13 123.66 314.9 103.92 308.09C122.05 318.3 136.98 320.75 151.03 320.75C165.07 320.75 174.2 317.78 182.02 314.6Z" fill="#2D1F04"/>
<path opacity="0.23" d="M177.44 163.27C177.1 169.37 177.54 173.79 178.48 177.96C179.42 172.68 181.98 164.88 185.17 160.78C182.75 161.61 179.44 162.75 177.44 163.27Z" fill="#2D1F04"/>
<path opacity="0.23" d="M152.73 35.35C145.56 31.88 137.97 29.95 130.35 27.18C128.93 26.66 125.94 25.89 124.88 24.33C123.7 22.6 124.5 20.1 124.43 20.11C117.98 21.2 120.87 26.97 120.87 26.97C120.87 26.97 119.6 26.89 118.98 26.76C116.28 26.16 113.51 23.82 113.71 19.76C113.96 14.37 119.78 12.17 118.91 11.73C118.68 11.62 108.48 6.91002 100.63 13.1C96.3299 16.5 94.2799 21.16 95.7499 27.32C86.0899 25.55 87.5599 17.17 87.4099 17.2C78.8099 18.73 75.6199 28.82 81.7199 32.86C81.7199 33.89 77.5499 33.67 74.7299 31.67C72.6399 30.19 71.7299 26.84 71.4899 26.99C63.4099 32.01 67.1499 40.69 74.3599 41.49C74.8899 41.55 75.9999 41.61 75.8299 42.12C75.7699 42.3 74.1699 43.45 71.4499 43.5C68.7099 43.54 67.6099 42.16 67.4899 42.52C66.2799 46.22 72.3699 49.45 74.7199 48.28C70.1099 51.35 66.9299 54.97 63.9299 60C68.3299 54.76 75.8799 49.6 85.9899 46.21C84.7699 45.2 85.7799 42.24 87.7699 41.75C87.2899 43.95 91.3399 44.78 95.9399 43.65C94.6999 42.36 93.4499 38.08 98.9399 36.61C96.3499 40.44 102.35 43.32 104.97 42.71C107.83 42.04 107.61 40.58 106.51 39.49C108.64 38.34 110.71 40.89 111.79 41.4C113.93 42.42 116.34 42 122.17 42.89C155.16 47.98 173.03 61.97 181.24 80.22C188.15 95.57 195.75 122.96 192.65 151.73C195.78 149.13 199.56 147.05 204.16 145.81C207.13 145.02 209.98 144.49 212.75 144.31C213.14 99.77 196.99 56.01 152.73 35.35Z" fill="#2D1F04"/>
<path opacity="0.23" d="M81.33 265.78C81.33 265.93 81.29 266.09 81.22 266.25C81.17 266.35 81.11 266.46 81.03 266.58C80.95 266.69 80.86 266.81 80.77 266.93C79.47 268.6 76.35 271.23 76.86 277.52C77.19 278.09 77.33 278.73 77.29 279.33C77.63 281.72 76.43 282.58 74.39 281.81L74.95 282.9C72.91 282.68 70.78 282.41 68.57 282.06C62.1 277.89 64.73 272.27 64.35 269.47C64.01 267.01 62.25 265.26 59.85 263.48C59.51 263.23 59.16 262.98 58.79 262.72C48.12 255.17 40.68 248.63 38.71 245.57C45.73 244.59 53.52 239.27 56.97 232.76C60.41 226.25 54.8 215.78 55.6 202.89C56.4 190.17 63.21 179.87 70.61 171.39C70.95 172.5 71.74 173.45 71.68 174.09C71.56 175.3 69.12 179.8 66.72 184.34C56.09 204.42 62.32 227.32 65.52 229.19C65.71 233.44 65.93 237.73 66.36 242.07C61.12 246.23 52.99 248.26 52.99 250.73C52.99 251.85 56.57 254.8 60.57 257.72L60.63 257.55C63.2 259.42 65.88 261.24 67.86 262.54C67.87 262.55 67.88 262.55 67.88 262.55C67.22 265.32 67.54 269.34 71.56 269.85C74.5 270.22 77.84 268.25 81.02 265.17C81.22 265.41 81.33 265.61 81.33 265.78Z" fill="#2D1F04"/>
<path opacity="0.23" d="M73.8 163.39C62.51 177.39 48.2199 198.74 38.8499 218.42C34.9599 226.58 32.23 233.18 23.54 231.63C22.27 231.4 21.09 231.1 20.02 230.73C18.26 232.21 16.88 234.01 15.29 236.49C13.74 238.9 10.45 244.43 10.75 251.7C9.70995 249.63 9.87995 246.12 11.24 239.19C11.89 235.86 12.98 231.73 14.45 227.17C19.59 213.69 25.49 193.61 36.95 178.42C48.53 163.05 58.6199 154.13 72.75 147.36C72.66 148.15 72.6 148.94 72.86 149.46C73.07 149.88 74.07 148.37 74.13 148.83C74.39 150.91 74.1399 153.31 73.9199 155.36C73.8299 156.14 72.9399 158.23 73.4899 157.67C73.6799 157.48 73.89 160.27 73.8 163.39Z" fill="#2D1F04"/>
<path opacity="0.23" d="M224.31 227.33C227.24 234.3 237.83 240.35 242.73 241.88C247.63 243.41 249.13 244.33 249.64 245.09C250.15 245.85 247.85 249.05 245.06 251.84C246.64 249.69 247.36 248.72 246.97 247.61C246.58 246.5 244.24 245.2 240.36 243.09C236.48 240.98 227.37 236.73 224.31 227.33Z" fill="#2D1F04"/>
<path opacity="0.23" d="M294.39 245.54C293.64 253.07 288.69 262.77 274.95 270.45C274.89 270.5 274.82 270.54 274.75 270.57C274.25 270.85 273.74 271.12 273.21 271.39C273.16 271.42 273.1 271.45 273.04 271.48C272.05 271.99 271.01 272.49 269.93 272.98C269.36 273.23 268.78 273.49 268.18 273.74C258.94 277.63 248.59 279.35 239.42 279.97C231.91 280.48 227.3 282.27 223.14 282.6C222.71 282.63 222.29 282.65 221.86 282.65C219.84 282.62 217.86 282.15 215.61 280.92C209.15 277.37 203.95 276.27 199.97 276.18C199.45 276.17 198.96 276.17 198.49 276.19C194.14 276.31 191.46 277.6 190.4 277.69C190.15 277.67 190.05 277.52 190.08 277.19C190.1 277.02 190.12 276.83 190.16 276.62C199.53 269.32 211.86 273.79 217.54 275.83C223.92 278.13 224.94 274.39 230.5 273.87C236.06 273.36 251.15 273.87 265.88 267.95C280.6 262.03 284.52 248 284.35 242.64C284.22 238.62 280.61 228.93 272.65 227.65C267.95 230.08 262.92 233.05 258.63 235.48C250.12 240.3 245.87 232.7 232.5 212.45C219.14 192.19 193.78 173.13 189.1 169.81C184.41 166.48 183.21 161.21 186.63 157.75C198.38 145.87 210.63 137.38 231.91 148.15C253.19 158.92 280.05 208.7 287.04 222.39C291.91 232.95 294.74 241.91 294.39 245.54Z" fill="#2D1F04"/>
<path opacity="0.23" d="M185.04 160.73C184.1 162.36 183.28 164.03 182.59 165.7C174.67 169.82 167.41 176.76 167.91 181.71C168.43 186.75 162.5 193.01 156.09 193.01C154.14 193.01 152.54 192.42 151.29 191.46C157.41 191.01 162.87 185.04 162.37 180.19C161.87 175.24 169.13 168.3 177.05 164.18C177.18 163.86 177.32 163.54 177.46 163.22C180.25 162.4 182.79 161.57 185.04 160.73Z" fill="#2D1F04"/>
<path opacity="0.23" d="M73.4799 180.19C72.2799 181.59 73.3199 184.36 73.0599 186.73C72.8099 188.91 71.3499 191.2 68.4999 190.75C67.3099 190.56 66.3499 190.09 65.6799 189.45C65.8699 189.51 66.0799 189.55 66.2899 189.59C69.1399 190.04 69.2399 187.34 69.4899 185.16C69.7499 182.79 69.0799 180.13 70.2799 178.73C72.3499 176.34 74.0599 169.35 73.5899 165.52C73.7499 165.17 73.8099 165.13 73.7599 165.47C74.3999 165.66 75.0399 165.84 75.6899 166C76.3499 169.57 75.6799 177.65 73.4799 180.19Z" fill="#2D1F04"/>
<path d="M212.97 144.47C213.43 99.83 197.3 56.15 152.96 35.45C145.79 31.98 138.2 30.05 130.58 27.28C129.16 26.76 126.18 25.99 125.11 24.43C123.93 22.71 124.73 20.21 124.66 20.22C118.21 21.31 121.11 27.07 121.11 27.07C121.11 27.07 119.84 27 119.22 26.86C116.52 26.26 113.75 23.92 113.95 19.86C114.2 14.47 120.02 12.27 119.16 11.83C118.93 11.71 108.73 6.99996 100.88 13.2C96.58 16.6 94.62 22.38 96.08 28.53" stroke="#2D1F04" stroke-width="2.7806" stroke-miterlimit="10" stroke-linecap="round" stroke-linejoin="round"/>
<path d="M165.96 86.97C164.18 96.99 138.99 97.77 139.49 84.55C139.69 79.27 145.79 77.26 154.74 77.25C163.69 77.24 166.98 81.18 165.96 86.97Z" fill="#2D1F04"/>
<path d="M87.51 89.9301C85.76 99.9601 63.34 101.16 64.01 87.9701C64.28 82.7001 69.73 80.5901 77.7 80.4301C85.67 80.2701 88.52 84.1401 87.51 89.9301Z" fill="#2D1F04"/>
<path d="M59.7599 67.96C73.3199 70.76 100.61 70.48 124.74 66.17C149.03 61.83 166.27 55.9 168.04 44.19C168.38 39.18 153.91 31.26 153.91 36.11C154.39 45.11 133.85 49.07 106.76 52.05C91.82 53.69 75.5599 54.11 69.1699 52.64C65.8499 51.88 54.9299 67.13 59.7599 67.96Z" fill="#2D1F04"/>
<path d="M99.22 56.3801C101.41 56.2201 103.4 56.0401 105.34 55.9301C106.93 55.8401 107.47 56.8201 107.49 57.7801C107.52 59.1101 106.78 60.0901 105.38 60.7101C105.31 60.7401 105.23 60.7701 105.08 60.8201C106.67 61.5001 106.86 63.1701 107.98 64.6001C106.81 64.7001 105.78 64.7901 104.68 64.8901C104.02 63.9601 103.46 63.0501 102.97 62.1601C102.7 61.6701 102.36 61.3301 101.53 61.5601C101.41 62.7201 101.37 63.9101 101.61 65.1901C100.59 65.2801 99.65 65.3701 98.64 65.4601C98.08 62.4901 98.98 59.3501 99.22 56.3801ZM102.05 57.9901C101.98 58.5901 101.89 59.1501 101.79 59.8201C102.43 59.7301 103.05 59.6701 103.67 59.5401C104.21 59.4201 104.53 59.0701 104.6 58.6301C104.67 58.1701 104.41 57.8401 103.85 57.8401C103.28 57.8301 102.68 57.9301 102.05 57.9901Z" fill="#2D1F04"/>
<path d="M116.28 57.3C115.3 57.45 114.42 57.58 113.51 57.73C113.4 56.99 112.94 56.63 112.17 56.69C111.67 56.73 111.25 56.91 111.06 57.45C111.06 57.88 111.36 58 111.73 58.06C112.39 58.16 113.07 58.24 113.75 58.36C114.13 58.42 114.5 58.52 114.86 58.64C117.16 59.38 116.92 61.95 115.26 63.31C114.71 63.76 114.02 64.1 113.37 64.27C112.31 64.56 111.23 64.61 110.16 64.42C108.75 64.16 107.77 63.06 107.81 61.59C108.68 61.46 109.56 61.34 110.48 61.2C110.53 61.37 110.57 61.53 110.63 61.69C110.95 62.52 111.92 62.86 112.82 62.43C113.23 62.24 113.52 61.93 113.54 61.51C113.56 61.12 113.32 60.86 112.95 60.75C112.64 60.65 112.3 60.6 111.98 60.54C111.31 60.41 110.63 60.33 110 60.14C108.79 59.78 108.26 58.99 108.4 57.98C108.56 56.85 109.35 55.85 110.62 55.38C111.82 54.93 113.04 54.79 114.28 55.04C115.57 55.28 116.19 55.99 116.28 57.3Z" fill="#2D1F04"/>
<path opacity="0.23" d="M168.03 44.1802C166.26 55.9002 149.02 61.8302 124.73 66.1702C100.61 70.4802 73.3199 70.7602 59.7599 67.9602C58.0799 67.6702 58.3099 65.6302 59.4599 63.1202C73.9499 66.8202 98.7599 66.1402 120.72 62.2202C145.01 57.8802 164.89 49.3702 163.76 38.6702C163.77 38.5102 163.77 38.3502 163.75 38.1802C166.22 40.0402 168.16 42.3102 168.03 44.1802Z" fill="#2D1F04"/>
<path d="M59.7599 67.96C73.3199 70.76 100.61 70.48 124.74 66.17C149.03 61.83 166.27 55.9 168.04 44.19C168.38 39.18 153.91 31.26 153.91 36.11C154.39 45.11 133.85 49.07 106.76 52.05C91.82 53.69 75.5599 54.11 69.1699 52.64C65.8499 51.88 54.9299 67.13 59.7599 67.96Z" stroke="#2D1F04" stroke-width="2.7806" stroke-miterlimit="10" stroke-linecap="round" stroke-linejoin="round"/>
<path d="M166.14 84.96C163.04 80.91 157.55 80.29 150.74 81.3C144.84 82.17 141.35 83.88 139.55 86.09C139.49 85.6 139.47 85.09 139.49 84.55C139.69 79.27 145.79 77.25 154.74 77.25C162.62 77.24 166.11 80.29 166.14 84.96Z" fill="#2D1F04"/>
<path d="M87.6599 88.8102C85.2899 83.9702 80.5199 83.1902 74.4899 84.2302C68.1199 85.3502 65.1899 87.8602 64.3299 91.0402C64.0699 90.1102 63.9499 89.0902 64.0099 87.9602C64.2799 82.7002 69.7399 80.5802 77.6999 80.4202C85.1399 80.2802 88.1199 83.6502 87.6599 88.8102Z" fill="#2D1F04"/>
<path d="M231.87 237.94C222.45 238.24 213.72 239.33 200.61 232.02C183.54 222.51 175.8 204.89 171.67 190.05C169.31 181.56 161.63 183.51 154.28 183.51C146.93 183.51 144.26 185.3 140.69 194.04C137.12 202.78 113.6 201.02 102.62 200.11C90.2599 199.09 75.6999 198.3 75.3299 191.17C74.9599 184.05 73.5799 182.87 71.8199 182.49C70.0099 182.1 67.6899 181.91 67.6899 181.91" stroke="#2D1F04" stroke-width="2.7806" stroke-miterlimit="10" stroke-linecap="round" stroke-linejoin="round"/>
<path d="M185.05 160.73C184.11 162.36 183.29 164.03 182.6 165.7C174.68 169.82 167.42 176.76 167.92 181.71C168.44 186.75 162.51 193.01 156.1 193.01C149.54 193.01 146.9 186.29 148.27 181.27C149.63 176.25 148.25 174.69 149.29 172.59C150.13 170.92 151.41 169.33 153.6 168.46C166.41 166.45 177.39 163.57 185.05 160.73Z" fill="#2D1F04"/>
<path d="M155.66 168.82C152.19 169.38 150.34 170.66 149.28 172.79C148.24 174.89 149.62 176.45 148.26 181.47C146.89 186.49 149.53 193.21 156.09 193.21C162.5 193.21 168.43 186.95 167.91 181.91C167.4 176.87 174.23 170.09 182.31 165.99" stroke="#2D1F04" stroke-width="2.7806" stroke-miterlimit="10" stroke-linecap="round" stroke-linejoin="round"/>
<path d="M73.4899 180.2C72.2899 181.6 73.3299 184.37 73.0699 186.74C72.8199 188.92 71.3599 191.21 68.5099 190.76C66.3399 190.41 64.9599 189.16 64.6299 187.59C65.1299 186.4 65.6999 185.21 66.3199 184.03C68.7099 179.53 74.1399 163.1 73.7699 165.48C74.4099 165.67 75.0499 165.85 75.6999 166.01C76.3599 169.58 75.6899 177.66 73.4899 180.2Z" fill="#2D1F04"/>
<path d="M69.7499 261.23C66.2699 249.96 65.6499 239.33 65.1699 228.88C61.9799 227.01 55.74 204.11 66.37 184.03C68.77 179.49 74.2799 162.85 73.8099 165.55" stroke="#2D1F04" stroke-width="2.7806" stroke-miterlimit="10" stroke-linecap="round" stroke-linejoin="round"/>
<path d="M182.07 314.79C157.67 326.99 114.26 320.03 96.77 302.84C87.72 293.94 81.44 285.51 76.91 277.5" stroke="#2D1F04" stroke-width="2.7806" stroke-miterlimit="10" stroke-linecap="round" stroke-linejoin="round"/>
<path d="M110.08 96.7002C108.78 101.55 108.48 112.72 110.39 116.1C115.53 116.06 120.54 114.41 121.56 111.92" stroke="#2D1F04" stroke-width="3.2369" stroke-miterlimit="10" stroke-linecap="round" stroke-linejoin="round"/>
<path d="M97.9299 95.4799C97.7999 92.7599 103.13 90.2899 109.84 89.9599C116.55 89.6299 122.1 91.5699 122.23 94.2799C122.36 96.9999 117.03 99.4699 110.32 99.7999C103.61 100.13 98.0599 98.1899 97.9299 95.4799Z" fill="#2D1F04"/>
<path d="M121.15 73.2498C121.15 73.2498 128.82 72.5998 137.5 70.9598C148.2 68.9398 154.26 64.0498 159 64.2798C163.92 64.5198 177.64 70.6898 177.64 70.6898" stroke="#2D1F04" stroke-width="8.0658" stroke-miterlimit="10" stroke-linecap="round" stroke-linejoin="round"/>
<path d="M97.8499 74.7602C97.8499 74.7602 90.1199 74.6302 82.4399 73.7702C75.5399 73.0002 68.2099 69.7402 64.4799 69.8102C60.3899 69.8902 48.9399 75.7102 48.9399 75.7102" stroke="#2D1F04" stroke-width="8.0658" stroke-miterlimit="10" stroke-linecap="round" stroke-linejoin="round"/>
<path d="M165.96 86.97C164.18 96.99 138.99 97.77 139.49 84.55C139.69 79.27 145.79 77.26 154.74 77.25C163.69 77.24 166.98 81.18 165.96 86.97Z" stroke="#2D1F04" stroke-width="3.2369" stroke-miterlimit="10" stroke-linecap="round" stroke-linejoin="round"/>
<path d="M87.51 89.9301C85.76 99.9601 63.34 101.16 64.01 87.9701C64.28 82.7001 69.73 80.5901 77.7 80.4301C85.67 80.2701 88.52 84.1401 87.51 89.9301Z" stroke="#2D1F04" stroke-width="3.2369" stroke-miterlimit="10" stroke-linecap="round" stroke-linejoin="round"/>
<path d="M148.79 85.3398C148.79 83.1198 150.59 81.3198 152.81 81.3198C155.03 81.3198 156.83 83.1198 156.83 85.3398C156.83 87.5598 155.03 89.3598 152.81 89.3598C150.59 89.3498 148.79 87.5598 148.79 85.3398Z" fill="#2D1F04"/>
<path d="M72.67 88.8896C72.67 86.6696 74.47 84.8696 76.69 84.8696C78.91 84.8696 80.71 86.6696 80.71 88.8896C80.71 91.1096 78.91 92.9096 76.69 92.9096C74.46 92.9096 72.67 91.1096 72.67 88.8896Z" fill="#2D1F04"/>
<path d="M189.76 277.38C196.23 268.34 205.32 264.94 219.52 270.37" stroke="#2D1F04" stroke-width="2.7806" stroke-miterlimit="10" stroke-linecap="round" stroke-linejoin="round"/>
<path d="M80.48 283.49C69.08 282.84 55.72 280.62 37.08 272.77C18.02 264.73 11.14 257.78 10.29 249.1C9.53999 241.47 18.19 208.71 32.58 190.77" stroke="#2D1F04" stroke-width="2.7806" stroke-miterlimit="10" stroke-linecap="round" stroke-linejoin="round"/>
<path d="M66.02 241.86C60.81 246.22 52.82 247.79 52.82 250.32C52.82 252.18 62.65 259.06 67.91 262.52" stroke="#2D1F04" stroke-width="2.7806" stroke-miterlimit="10" stroke-linecap="round" stroke-linejoin="round"/>
<path d="M72.25 149.97C61.67 153.76 50.87 163.72 36.58 182.66C34.85 184.95 28.81 190.31 34.68 191.43" stroke="#2D1F04" stroke-width="2.7806" stroke-miterlimit="10" stroke-linecap="round" stroke-linejoin="round"/>
<path d="M62.41 194.03C59.43 192 56.22 190.3 52.81 189.07" stroke="#2D1F04" stroke-width="2.7806" stroke-miterlimit="10" stroke-linecap="round" stroke-linejoin="round"/>
<path d="M76.91 277.71C75.89 269.98 81.42 267.68 81.38 265.96C81.35 264.53 72.03 260.34 69.75 261.22C66.21 262.58 66.06 269.34 67.98 271.38C67.72 273.68 69.51 279.06 72.96 281.23C76.4 283.41 78.27 280.02 76.91 277.71Z" stroke="#2D1F04" stroke-width="2.7806" stroke-miterlimit="10" stroke-linecap="round" stroke-linejoin="round"/>
<path d="M67.98 271.38C70.45 267.25 75.98 265.96 81.38 265.96" stroke="#2D1F04" stroke-width="2.7806" stroke-miterlimit="10" stroke-linecap="round" stroke-linejoin="round"/>
<path d="M233.5 239.33C233.65 246.37 233.3 253.64 232.29 261.1" stroke="#2D1F04" stroke-width="2.7806" stroke-miterlimit="10" stroke-linecap="round" stroke-linejoin="round"/>
<path d="M93.25 299.26C113.84 309.56 142.05 312.11 174.7 306.58C192.93 303.49 216.52 296.85 226.26 285.51" stroke="#2D1F04" stroke-width="2.7806" stroke-miterlimit="10" stroke-linecap="round" stroke-linejoin="round"/>
<path d="M55.25 190.05C54.12 191.02 53.22 192.77 52.81 194.03" stroke="#2D1F04" stroke-width="2.7806" stroke-miterlimit="10" stroke-linecap="round" stroke-linejoin="round"/>
<path d="M223.25 263.51C219.76 267.94 216.4 274.51 221.91 282.84" stroke="#2D1F04" stroke-width="2.7806" stroke-miterlimit="10" stroke-linecap="round" stroke-linejoin="round"/>
<path d="M223.18 223.16C224.63 228.9 226.65 233.74 231.66 237.93C236.87 242.29 247.46 245.84 247.12 248.36C246.65 251.83 240.25 258.3 227.61 263C219.93 265.86 210.93 256.63 198.95 263.51C192.58 267.17 190.01 274.83 189.76 277.38C189.5 279.93 197.72 271.45 215.29 281.1C222.62 285.12 227.17 280.97 239.3 280.15C248.47 279.53 258.82 277.81 268.06 273.92C287.12 265.88 293.59 254.31 294.44 245.63C295.19 238 282.05 207.1 265.34 187.03" stroke="#2D1F04" stroke-width="2.7806" stroke-miterlimit="10" stroke-linecap="round" stroke-linejoin="round"/>
<path d="M213.42 218.89C216 224.16 218.41 228.52 223.25 223.1C225.15 220.97 228.48 216.5 230.38 214.09" stroke="#2D1F04" stroke-width="2.7806" stroke-miterlimit="10" stroke-linecap="round" stroke-linejoin="round"/>
<path d="M193.09 210.38C196.51 211.19 201.92 213.11 206.1 215.01C209.78 216.69 212.39 218.36 213.71 219.26" stroke="#2D1F04" stroke-width="2.7806" stroke-miterlimit="10" stroke-linecap="round" stroke-linejoin="round"/>
<path d="M206.1 215.01C203.79 211.99 201.06 208.03 197.94 205.91" stroke="#2D1F04" stroke-width="2.7806" stroke-miterlimit="10" stroke-linecap="round" stroke-linejoin="round"/>
<path d="M179.48 176.46C179.9 174.18 180.5 171.69 181.37 169.13C182.26 166.45 183.43 163.71 184.95 161.07C185 160.98 185.05 160.9 185.11 160.81C188.92 154.29 194.87 148.46 204.01 146.01C223.46 140.78 237.59 147.45 261.35 178.94C263.08 181.23 269.12 186.58 263.24 187.71" stroke="#2D1F04" stroke-width="2.7806" stroke-miterlimit="10" stroke-linecap="round" stroke-linejoin="round"/>
<path d="M214.39 218.62C218.41 205.89 229.7 190.94 245.12 185.36" stroke="#2D1F04" stroke-width="2.7806" stroke-miterlimit="10" stroke-linecap="round" stroke-linejoin="round"/>
<path d="M218.71 210.47C219.97 211.61 221.09 212.27 222.6 213.09" stroke="#2D1F04" stroke-width="2.7806" stroke-miterlimit="10" stroke-linecap="round" stroke-linejoin="round"/>
<path d="M224.36 202.45L227.62 204.89" stroke="#2D1F04" stroke-width="2.7806" stroke-miterlimit="10" stroke-linecap="round" stroke-linejoin="round"/>
<path d="M230.39 195.56L232.95 198.67" stroke="#2D1F04" stroke-width="2.7806" stroke-miterlimit="10" stroke-linecap="round" stroke-linejoin="round"/>
<path d="M169.88 319.07C172.1 325.5 176.56 330.79 182.91 332.96C164.66 336.15 157.61 342.54 153.28 347.95C152.74 349.06 166.9 349.53 182.56 350.11C200.74 350.79 222.78 351.76 230.26 350.03C237.73 348.3 231.43 337.26 229.98 332.82C225.12 317.88 220.28 297.12 227.59 282.09" stroke="#2D1F04" stroke-width="2.7806" stroke-miterlimit="10" stroke-linecap="round" stroke-linejoin="round"/>
<path d="M98.1399 304.35C96.0599 311.6 101.28 326.98 106.82 332.38C93.8799 331.97 78.3599 343.93 77.2999 344.89C72.7699 349.02 74.1799 349.31 77.2999 349.31C80.4199 349.31 105.41 348.04 118.61 347.82C123.97 347.73 130.53 347.42 135.86 347.24C139.09 347.12 154.36 347.03 152.01 341.52C149.22 334.94 145.87 325.93 145.52 320.83" stroke="#2D1F04" stroke-width="2.7806" stroke-miterlimit="10" stroke-linecap="round" stroke-linejoin="round"/>
<path d="M84.8399 154.01L84.8099 160" stroke="#2D1F04" stroke-width="4.1072" stroke-miterlimit="10" stroke-linecap="round" stroke-linejoin="round"/>
<path d="M254.63 253.22L254.6 259.2" stroke="#2D1F04" stroke-width="4.1072" stroke-miterlimit="10" stroke-linecap="round" stroke-linejoin="round"/>
<path d="M32.19 256.21L32.15 262.2" stroke="#2D1F04" stroke-width="4.1072" stroke-miterlimit="10" stroke-linecap="round" stroke-linejoin="round"/>
<path d="M37.45 260.37L37.41 266.36" stroke="#2D1F04" stroke-width="4.1072" stroke-miterlimit="10" stroke-linecap="round" stroke-linejoin="round"/>
<path d="M248.49 257.91L248.46 263.9" stroke="#2D1F04" stroke-width="4.1072" stroke-miterlimit="10" stroke-linecap="round" stroke-linejoin="round"/>
<path d="M91.2299 157L91.1899 162.99" stroke="#2D1F04" stroke-width="4.1072" stroke-miterlimit="10" stroke-linecap="round" stroke-linejoin="round"/>
<path d="M110.39 116.1C107.37 116.55 105.78 116.55 103.86 116.36" stroke="#2D1F04" stroke-width="3.2369" stroke-miterlimit="10" stroke-linecap="round" stroke-linejoin="round"/>
<path d="M64.86 187.15C64.86 189.07 66.05 190.36 68.56 190.76C71.41 191.21 72.87 188.92 73.12 186.74C73.38 184.37 72.34 181.6 73.54 180.2C75.84 177.54 76.41 169.28 75.59 165.99" stroke="#2D1F04" stroke-width="2.7806" stroke-miterlimit="10" stroke-linecap="round" stroke-linejoin="round"/>
<path d="M73.8 165.47C107.87 175.26 146.06 172.12 171.28 165.49C176.43 164.14 181.03 162.64 184.95 161.07C185.04 161.04 185.13 161 185.21 160.97" stroke="#2D1F04" stroke-width="2.7806" stroke-miterlimit="10" stroke-linecap="round" stroke-linejoin="round"/>
<path d="M187.67 154.01C184.25 157.47 185.45 162.74 190.14 166.06C194.82 169.38 220.18 188.45 233.55 208.7C246.92 228.95 251.17 236.55 259.68 231.73C268.19 226.91 279.64 219.93 285.66 219.34C291.68 218.75 291.68 212.49 287.26 205.92C282.83 199.34 254.25 155.18 232.97 144.41C211.69 133.64 199.41 142.13 187.67 154.01Z" fill="#2D1F04"/>
<path opacity="0.23" d="M285.65 219.34C283.99 219.51 281.92 220.15 279.61 221.11V221.1C275.45 209.47 269.82 199.21 263.23 193.21C263.69 193.05 264.76 192.71 265.72 192.41C260.42 184.67 253.14 180.15 245.12 174.13C245.22 174.1 246.56 173.6 247.85 173.15C243.68 167.68 236.71 161.25 228.86 157.55C228.86 157.55 230.27 156.94 230.96 156.66C222.23 148.24 211.31 141.76 200.44 143.52C209.01 138.55 219.06 137.37 232.95 144.4C235.71 145.8 239.56 147.48 242.5 149.85C243.69 150.81 243.92 152.11 245.13 153.19C249.83 157.42 255.55 162.04 260.11 167.38C260.8 168.18 260.52 169.45 261.19 170.26C266.1 176.15 271.3 180.83 275.26 186.3C275.84 187.09 275.82 189.28 276.37 190.05C281.82 197.68 285.81 203.78 287.24 205.91C291.67 212.49 291.67 218.74 285.65 219.34Z" fill="#2D1F04"/>
<path d="M73.68 157.6C62.39 171.6 46.79 194 37.42 213.68C33.53 221.84 30.8 228.44 22.11 226.89C14.64 225.56 10.5 221.68 12.03 216.83C13.56 211.98 24.06 188.87 35.52 173.68C47.1 158.31 57.19 149.39 71.32 142.62C71.23 143.41 71.17 144.2 71.43 144.72C71.64 145.14 72.64 143.63 72.7 144.09C72.96 146.17 72.71 148.57 72.49 150.62C72.4 151.4 71.51 153.49 72.06 152.93C72.25 152.75 72.77 150.99 73.54 151.25C73.78 151.33 73.77 154.48 73.68 157.6Z" fill="#2D1F04"/>
<path opacity="0.23" d="M54.67 157.5C55.34 158 55.34 157.97 55.63 158.21C50.91 161.59 44.69 167.35 38.71 174.86C39.2 175.18 40.4 175.92 40.4 175.92C35.89 180.81 28.25 191.25 25.13 197.75C25.85 198.1 26.48 198.38 26.48 198.38C23.69 202.24 16.37 214.22 14.6 223.97C11.98 222.59 10.81 220.69 12.02 216.84C12.87 214.15 16.47 205.86 21.46 196.42C21.68 196 21.14 194.8 21.37 194.37C25.25 187.12 30.68 180.09 35.51 173.69C36 173.04 35.6 171.76 36.08 171.13C40.98 164.81 46.53 160.26 51.39 155.88C51.86 155.45 51.73 154.12 52.2 153.71C57.83 148.86 64.39 145.95 71.31 142.63C71.22 143.42 71.16 144.21 71.42 144.73C71.63 145.15 72.63 143.64 72.69 144.1C72.78 144.86 72.81 145.66 72.79 146.47C66.66 148.02 60.94 150.89 54.67 157.5Z" fill="#2D1F04"/>
<path d="M73.68 157.6C70.94 160.99 67.95 164.88 64.86 169.1C64.32 169.84 63.39 170.23 62.84 170.99C59.3 175.89 56.05 181.56 52.54 187.02C52.1 187.7 51.15 188.12 50.71 188.8C46.84 194.92 43.66 201.47 40.45 207.62C40.21 208.08 39.46 208.45 39.22 208.91C38.41 210.48 34.45 220.05 32.77 222.41C30.32 225.85 27.26 227.8 22.11 226.88C14.64 225.55 10.5 221.67 12.03 216.82C12.88 214.13 16.48 205.84 21.47 196.4C21.7 195.97 21.15 194.78 21.38 194.35C25.27 187.1 30.7 180.07 35.52 173.67C36.01 173.02 35.61 171.74 36.09 171.11C40.98 164.78 46.53 160.23 51.4 155.85C51.87 155.43 51.74 154.09 52.21 153.68C57.84 148.83 64.4 145.92 71.32 142.6C71.23 143.39 71.17 144.18 71.43 144.7C71.64 145.12 72.64 143.61 72.7 144.07C72.96 146.15 72.71 148.55 72.49 150.6C72.4 151.38 71.51 153.47 72.06 152.91C72.25 152.73 72.77 150.97 73.54 151.23C73.78 151.33 73.77 154.48 73.68 157.6Z" stroke="#2D1F04" stroke-width="2.7806" stroke-miterlimit="10" stroke-linecap="round" stroke-linejoin="round"/>
<path d="M187.67 154.01C184.25 157.47 185.45 162.74 190.14 166.06C191.86 167.28 196.36 170.62 202.03 175.36C202.86 176.06 204.18 176.12 205.05 176.88C209.26 180.49 213.48 185.41 218.05 190.06C218.8 190.82 220.48 191.12 221.22 191.91C226.1 197.05 229.82 203.07 233.54 208.72C234.17 209.68 235.52 210.16 236.11 211.06C248.05 229.22 251.56 236.35 259.67 231.75C268.18 226.93 279.63 219.95 285.65 219.36C291.67 218.77 291.67 212.51 287.25 205.94C285.81 203.8 281.83 197.71 276.37 190.07C275.82 189.31 275.84 187.11 275.27 186.32C271.3 180.85 266.11 176.18 261.2 170.28C260.53 169.47 260.81 168.2 260.12 167.4C255.56 162.06 249.83 157.44 245.13 153.21C243.93 152.13 243.69 150.82 242.5 149.87C239.56 147.5 235.72 145.82 232.95 144.43C211.67 133.64 199.41 142.13 187.67 154.01Z" stroke="#2D1F04" stroke-width="2.7806" stroke-miterlimit="10" stroke-linecap="round" stroke-linejoin="round"/>
<path d="M202.02 175.36C207.98 168.58 230.55 153.52 245.12 153.2" stroke="#2D1F04" stroke-width="2.7806" stroke-miterlimit="10" stroke-linecap="round" stroke-linejoin="round"/>
<path d="M218.04 190.05C230.58 180.06 246.6 171.43 261.18 170.26" stroke="#2D1F04" stroke-width="2.7806" stroke-miterlimit="10" stroke-linecap="round" stroke-linejoin="round"/>
<path d="M233.54 208.7C243.35 201 261.9 191.87 276.37 190.05" stroke="#2D1F04" stroke-width="2.7806" stroke-miterlimit="10" stroke-linecap="round" stroke-linejoin="round"/>
<path d="M51.4 155.88C55.68 157.09 62.02 163.52 64.85 169.11" stroke="#2D1F04" stroke-width="2.7806" stroke-miterlimit="10" stroke-linecap="round" stroke-linejoin="round"/>
<path d="M35.67 173.21C40.28 175.38 49.42 181.71 52.63 187.1" stroke="#2D1F04" stroke-width="2.7806" stroke-miterlimit="10" stroke-linecap="round" stroke-linejoin="round"/>
<path d="M21.37 196.37C27.78 198.24 37.2 203.95 40.41 207.61" stroke="#2D1F04" stroke-width="2.7806" stroke-miterlimit="10" stroke-linecap="round" stroke-linejoin="round"/>
<path opacity="0.32" d="M192.54 155.17C190.88 157.08 191.65 160.15 194.97 162.83C198.29 165.51 201.99 166.69 206.11 164.28C210.67 161.61 216.1 157.66 218.05 155.81C219.97 153.99 218.89 151.34 214.4 148.66C209.91 145.98 204.62 146.5 201.67 148.15C198.82 149.75 194.19 153.26 192.54 155.17Z" fill="#2D1F04"/>
<path opacity="0.32" d="M214.08 171.64C212.46 173.34 212.23 175.13 214.52 177.94C216.82 180.75 218.5 181.6 220.34 180.75C222.18 179.9 230.62 174.88 233.38 173.09C236.14 171.3 236.56 169.43 234.44 167.05C232.32 164.67 230.38 162.76 226.61 163.77C223 164.73 216.44 169.17 214.08 171.64Z" fill="#2D1F04"/>
<path opacity="0.32" d="M231.17 194.7C234.15 199.37 237.72 199.37 245.12 195.21C250.76 192.03 253.73 189.44 250.24 184.15C247.9 180.6 244.99 179.11 238.05 183C228.71 188.23 228.97 191.24 231.17 194.7Z" fill="#2D1F04"/>
<path opacity="0.32" d="M245.58 214.94C246.41 216.77 247.75 218.62 249.59 220.4C252.37 223.09 254.92 222.96 258.92 220.66C262.92 218.36 269.81 214.55 269.32 210.89C268.87 207.51 266.84 203.63 263.21 200.83C260.22 198.52 255.68 201.37 251.73 203.67C247.79 205.97 243.26 209.83 245.58 214.94Z" fill="#2D1F04"/>
<path opacity="0.32" d="M61.13 159C62.49 160.32 64.4 161.04 66.08 159.81C67.77 158.58 69.8 156.62 70.39 155.6C70.65 155.15 70.57 153.43 69.42 152.11C68.27 150.79 66.67 150.79 64.62 152.11C62.58 153.43 58.37 156.32 61.13 159Z" fill="#2D1F04"/>
<path opacity="0.32" d="M48.28 176.87C50.53 178.54 52.21 178.36 54.03 176.15C55.85 173.94 56.8 172.63 57.61 170.7C58.33 168.99 58.75 167.19 56.7 165.24C54.65 163.29 52.73 163.99 50.67 165.98C48.61 167.97 46.74 170.32 46.06 171.57C45.38 172.82 45.81 175.04 48.28 176.87Z" fill="#2D1F04"/>
<path opacity="0.32" d="M42.92 183.71C44.9 185.24 45.12 187.5 43.47 190.52C41.82 193.54 39.65 197.69 35.94 195.97C32.23 194.25 31.92 191.95 34.73 188.12C37.54 184.29 39.82 181.31 42.92 183.71Z" fill="#2D1F04"/>
<path opacity="0.32" d="M29.47 205.77C32.35 206.78 32.62 209.86 30.07 214.96C27.52 220.06 25.9 221.77 23.43 220.83C20.96 219.89 20.37 217.09 22.32 213C24.28 208.92 26.32 204.66 29.47 205.77Z" fill="#2D1F04"/>
<path d="M159.33 180.26C160.3 180.92 160.94 182.03 160.94 183.3C160.94 185.32 159.3 186.96 157.28 186.96C156.52 186.96 155.82 186.73 155.23 186.33" stroke="#2D1F04" stroke-width="2.7806" stroke-miterlimit="10" stroke-linecap="round" stroke-linejoin="round"/>
<path d="M170.45 319.75C173.2 325.84 177.39 331.16 183.8 333.35" stroke="#2D1F04" stroke-width="2.7806" stroke-miterlimit="10" stroke-linecap="round" stroke-linejoin="round"/>
<path d="M168.79 89.8799C167.5 92.8499 165.26 95.5399 160.71 97.3499" stroke="#2D1F04" stroke-miterlimit="10" stroke-linecap="round" stroke-linejoin="round"/>
<path d="M63.17 95.7397C64.32 97.5897 66.94 100.34 71.21 101.1" stroke="#2D1F04" stroke-miterlimit="10" stroke-linecap="round" stroke-linejoin="round"/>
<path d="M74.38 48.1101C72.02 49.2901 66.51 46.3201 67.73 42.6101C67.85 42.2501 68.94 43.6301 71.69 43.5901C74.41 43.5501 76.01 42.4001 76.07 42.2101C76.24 41.7001 75.13 41.6401 74.6 41.5801C67.39 40.7801 63.65 32.1001 71.74 27.0801C71.98 26.9301 72.89 30.2801 74.97 31.7601C77.8 33.7601 81.97 33.9801 81.97 32.9501C75.87 28.9101 79.06 18.8201 87.65 17.2901C87.8 17.2601 85.78 25.7201 95.44 27.4801" stroke="#2D1F04" stroke-width="2.7806" stroke-miterlimit="10" stroke-linecap="round" stroke-linejoin="round"/>
<path d="M106.83 332.38C112.27 336.01 117.34 340.31 120.21 346.06" stroke="#2D1F04" stroke-width="2.7806" stroke-miterlimit="10" stroke-linecap="round" stroke-linejoin="round"/>
<path d="M182.92 332.96C191.05 336.21 198.95 342.33 202.84 350.11" stroke="#2D1F04" stroke-width="2.7806" stroke-miterlimit="10" stroke-linecap="round" stroke-linejoin="round"/>
<path d="M76.54 348.06C81.53 343.93 103.97 335.6 112.34 337.05" stroke="#2D1F04" stroke-width="2.7806" stroke-miterlimit="10" stroke-linecap="round" stroke-linejoin="round"/>
<path d="M155.46 347.96C163.2 344.01 172.7 341.25 182 340.13C186.07 339.64 190.11 339.47 193.94 339.65" stroke="#2D1F04" stroke-width="2.7806" stroke-miterlimit="10" stroke-linecap="round" stroke-linejoin="round"/>
<g opacity="0.23">
<path d="M226.62 124.19C227.39 124.88 228.14 125.53 228.86 126.21C229.45 126.77 229.34 127.36 229.06 127.79C228.66 128.37 228.11 128.54 227.43 128.29C227.39 128.28 227.36 128.26 227.29 128.23C227.64 129.1 227.17 129.86 227.07 130.73C226.63 130.35 226.23 130.01 225.81 129.66C225.92 129.13 226.04 128.59 226.15 128.05C226.21 127.75 226.2 127.48 225.85 127.28C225.46 127.74 225.06 128.2 224.65 128.68C224.27 128.36 223.93 128.07 223.58 127.76C224.58 126.57 225.57 125.4 226.62 124.19ZM227.06 125.86C226.86 126.1 226.67 126.32 226.44 126.59C226.69 126.78 226.92 126.98 227.17 127.14C227.39 127.28 227.61 127.24 227.76 127.07C227.92 126.89 227.93 126.65 227.73 126.44C227.54 126.24 227.3 126.06 227.06 125.86Z" fill="#2D1F04"/>
<path d="M232.26 130.77C231.89 130.49 231.55 130.24 231.2 129.97C231.4 129.62 231.36 129.31 231.07 129.05C230.88 128.88 230.67 128.8 230.44 128.96C230.3 129.14 230.37 129.3 230.48 129.46C230.68 129.75 230.89 130.03 231.08 130.31C231.19 130.47 231.28 130.64 231.36 130.82C231.88 131.93 230.96 132.89 229.98 132.81C229.66 132.78 229.32 132.66 229.04 132.5C228.58 132.23 228.19 131.87 227.88 131.42C227.48 130.84 227.52 130.12 227.99 129.53C228.33 129.79 228.68 130.06 229.04 130.33C229 130.42 228.97 130.5 228.94 130.58C228.78 131.02 229 131.49 229.45 131.64C229.65 131.71 229.84 131.69 229.99 131.54C230.12 131.39 230.13 131.2 230.04 131.03C229.97 130.88 229.87 130.74 229.78 130.6C229.59 130.31 229.38 130.03 229.22 129.72C228.91 129.13 228.96 128.58 229.32 128.2C229.72 127.77 230.32 127.67 230.93 127.96C231.5 128.23 231.97 128.63 232.32 129.16C232.68 129.72 232.66 130.2 232.26 130.77Z" fill="#2D1F04"/>
<path d="M226.62 124.19C227.39 124.88 228.14 125.53 228.86 126.21C229.45 126.77 229.34 127.36 229.06 127.79C228.66 128.37 228.11 128.54 227.43 128.29C227.39 128.28 227.36 128.26 227.29 128.23C227.64 129.1 227.17 129.86 227.07 130.73C226.63 130.35 226.23 130.01 225.81 129.66C225.92 129.13 226.04 128.59 226.15 128.05C226.21 127.75 226.2 127.48 225.85 127.28C225.46 127.74 225.06 128.2 224.65 128.68C224.27 128.36 223.93 128.07 223.58 127.76C224.58 126.57 225.57 125.4 226.62 124.19ZM227.06 125.86C226.86 126.1 226.67 126.32 226.44 126.59C226.69 126.78 226.92 126.98 227.17 127.14C227.39 127.28 227.61 127.24 227.76 127.07C227.92 126.89 227.93 126.65 227.73 126.44C227.54 126.24 227.3 126.06 227.06 125.86Z" fill="#2D1F04"/>
<path d="M232.26 130.77C231.89 130.49 231.55 130.24 231.2 129.97C231.4 129.62 231.36 129.31 231.07 129.05C230.88 128.88 230.67 128.8 230.44 128.96C230.3 129.14 230.37 129.3 230.48 129.46C230.68 129.75 230.89 130.03 231.08 130.31C231.19 130.47 231.28 130.64 231.36 130.82C231.88 131.93 230.96 132.89 229.98 132.81C229.66 132.78 229.32 132.66 229.04 132.5C228.58 132.23 228.19 131.87 227.88 131.42C227.48 130.84 227.52 130.12 227.99 129.53C228.33 129.79 228.68 130.06 229.04 130.33C229 130.42 228.97 130.5 228.94 130.58C228.78 131.02 229 131.49 229.45 131.64C229.65 131.71 229.84 131.69 229.99 131.54C230.12 131.39 230.13 131.2 230.04 131.03C229.97 130.88 229.87 130.74 229.78 130.6C229.59 130.31 229.38 130.03 229.22 129.72C228.91 129.13 228.96 128.58 229.32 128.2C229.72 127.77 230.32 127.67 230.93 127.96C231.5 128.23 231.97 128.63 232.32 129.16C232.68 129.72 232.66 130.2 232.26 130.77Z" fill="#2D1F04"/>
</g>
<path d="M129.636 240.636V239.545C129.758 227.97 130.97 218.758 133.273 211.909C135.576 205.061 138.848 199.515 143.091 195.273C147.333 191.03 152.424 187.121 158.364 183.545C161.939 181.364 165.152 178.788 168 175.818C170.848 172.788 173.091 169.303 174.727 165.364C176.424 161.424 177.273 157.061 177.273 152.273C177.273 146.333 175.879 141.182 173.091 136.818C170.303 132.455 166.576 129.091 161.909 126.727C157.242 124.364 152.061 123.182 146.364 123.182C141.394 123.182 136.606 124.212 132 126.273C127.394 128.333 123.545 131.576 120.455 136C117.364 140.424 115.576 146.212 115.091 153.364H92.1818C92.6667 143.061 95.3333 134.242 100.182 126.909C105.091 119.576 111.545 113.97 119.545 110.091C127.606 106.212 136.545 104.273 146.364 104.273C157.03 104.273 166.303 106.394 174.182 110.636C182.121 114.879 188.242 120.697 192.545 128.091C196.909 135.485 199.091 143.909 199.091 153.364C199.091 160.03 198.061 166.061 196 171.455C194 176.848 191.091 181.667 187.273 185.909C183.515 190.152 178.97 193.909 173.636 197.182C168.303 200.515 164.03 204.03 160.818 207.727C157.606 211.364 155.273 215.697 153.818 220.727C152.364 225.758 151.576 232.03 151.455 239.545V240.636H129.636ZM141.273 294.455C136.788 294.455 132.939 292.848 129.727 289.636C126.515 286.424 124.909 282.576 124.909 278.091C124.909 273.606 126.515 269.758 129.727 266.545C132.939 263.333 136.788 261.727 141.273 261.727C145.758 261.727 149.606 263.333 152.818 266.545C156.03 269.758 157.636 273.606 157.636 278.091C157.636 281.061 156.879 283.788 155.364 286.273C153.909 288.758 151.939 290.758 149.455 292.273C147.03 293.727 144.303 294.455 141.273 294.455Z" fill="white"/>
</svg>
