<svg width="435" height="300" viewBox="0 0 435 300" fill="none" xmlns="http://www.w3.org/2000/svg">
<g clip-path="url(#clip0_229_6694)">
<path d="M129.74 198.49C126.24 202.83 122.16 210.49 118.94 219.41C109.72 202.55 100.06 191.52 93.08 180.98C92.45 179.98 79.36 156.85 78.86 155.98C70.34 158.48 66.22 157.83 57.5 159.26C64.02 173.13 64.9 202.17 69.62 229.76C74.02 255.47 82.47 273.76 94.07 284.58C114.98 304.11 147.44 283.26 178.33 234.29C161.73 231.1 135.67 205.93 129.74 198.49Z" fill="#2D1F04"/>
<g style="mix-blend-mode:multiply" opacity="0.23">
<path d="M178.33 234.26C147.44 283.21 114.97 304.07 94.08 284.54C82.48 273.7 74 255.43 69.61 229.71C64.9 202.12 64.01 173.09 57.49 159.22C60.17 158.79 67.39 180 70.55 192.13C75.33 210.45 80.95 245.13 90.55 261.56C100.8 279.06 115.55 284.74 122.97 282.56C130.39 280.38 134.27 268.39 136.05 262.98C138.58 255.27 141.85 246.83 143.05 240.63C144.77 232.02 144.95 221.85 142.43 220.8C146.65 222.61 150.62 224.25 153.43 225.41C153.69 224.16 153.96 222.81 154.22 221.41C162.49 227.59 171.26 232.92 178.33 234.26Z" fill="#2D1F04"/>
</g>
<g style="mix-blend-mode:multiply" opacity="0.23">
<path d="M118.42 218.34C122.08 225.14 129.24 239.4 131.69 248.34C132.69 239.94 126.43 219.96 121.09 213.53C120.2 215.17 118.42 218.34 118.42 218.34Z" fill="#2D1F04"/>
</g>
<path d="M122.8 210.74C121.2 213.48 119.906 216.387 118.94 219.41C109.72 202.55 99.56 191.84 93.08 180.98C86.6 170.12 79.08 156.22 78.86 155.98" stroke="#2D1F04" stroke-width="2.62" stroke-linecap="round" stroke-linejoin="round"/>
<path d="M58.3201 159.09C65.5101 182.35 67.4401 216.91 69.6201 229.72C73.1201 250.37 79.9401 271.33 94.0701 284.54C105.93 295.62 121.52 293.7 138.42 281.02" stroke="#2D1F04" stroke-width="2.62" stroke-linecap="round" stroke-linejoin="round"/>
<path d="M131.7 60.3501V111.79C131.7 115.768 130.12 119.584 127.307 122.397C124.494 125.21 120.678 126.79 116.7 126.79H89.36C87.8064 126.79 86.2698 127.115 84.849 127.743C83.4281 128.372 82.1543 129.29 81.1092 130.44C80.0641 131.589 79.2708 132.945 78.7801 134.419C78.2895 135.893 78.1123 137.453 78.26 139L80.48 162C80.6498 163.716 80.4583 165.449 79.918 167.086C79.3776 168.724 78.5003 170.23 77.3426 171.508C76.1849 172.786 74.7724 173.807 73.196 174.506C71.6196 175.205 69.9144 175.566 68.19 175.566C66.4657 175.566 64.7604 175.205 63.1841 174.506C61.6077 173.807 60.1952 172.786 59.0375 171.508C57.8797 170.23 57.0024 168.724 56.4621 167.086C55.9217 165.449 55.7303 163.716 55.9 162L58.12 139C58.2724 137.449 58.098 135.884 57.6082 134.405C57.1183 132.926 56.324 131.566 55.2762 130.412C54.2285 129.259 52.9507 128.338 51.5252 127.709C50.0997 127.08 48.5582 126.757 47 126.76H16.78C12.8018 126.76 8.98647 125.18 6.17343 122.367C3.36038 119.554 1.78003 115.738 1.78003 111.76V60.3501C1.78003 56.3719 3.36038 52.5565 6.17343 49.7435C8.98647 46.9305 12.8018 45.3501 16.78 45.3501H116.72C120.695 45.3554 124.505 46.9381 127.314 49.7506C130.122 52.563 131.7 56.3753 131.7 60.3501Z" fill="#2D1F04"/>
<g style="mix-blend-mode:multiply" opacity="0.23">
<path d="M131.69 60.3499V111.78C131.69 115.758 130.11 119.573 127.297 122.386C124.484 125.2 120.668 126.78 116.69 126.78H89.36C87.8059 126.781 86.2692 127.107 84.8483 127.737C83.4274 128.366 82.1537 129.286 81.1088 130.436C80.0638 131.587 79.2707 132.943 78.7801 134.417C78.2895 135.892 78.1124 137.453 78.26 139L80.48 162C80.7528 164.746 80.0972 167.504 78.618 169.834C77.1387 172.164 74.9212 173.931 72.3198 174.852C69.7185 175.773 66.8833 175.796 64.2676 174.916C61.6518 174.037 59.4063 172.306 57.89 170C59.851 170.738 61.9675 170.964 64.0403 170.658C66.113 170.352 68.0736 169.523 69.7374 168.249C71.4011 166.976 72.7132 165.3 73.5499 163.379C74.3867 161.458 74.7205 159.355 74.52 157.27L72.31 134.27C72.1534 132.719 72.3239 131.152 72.8105 129.67C73.2971 128.189 74.089 126.826 75.135 125.67C76.1811 124.513 77.458 123.589 78.8833 122.957C80.3087 122.325 81.8508 121.999 83.41 122H110.76C112.73 122 114.68 121.612 116.5 120.858C118.32 120.104 119.974 118.999 121.367 117.606C122.759 116.214 123.864 114.56 124.618 112.74C125.372 110.92 125.76 108.97 125.76 107V55.6099C125.767 52.3631 124.714 49.2029 122.76 46.6099C125.421 47.7873 127.682 49.7131 129.267 52.1527C130.853 54.5922 131.694 57.4403 131.69 60.3499Z" fill="#2D1F04"/>
</g>
<g style="mix-blend-mode:multiply" opacity="0.23">
<path d="M58 135.86C57.4903 133.311 56.1186 131.015 54.1154 129.358C52.1122 127.7 49.5997 126.783 47 126.76H16.77C14.4413 126.76 12.1446 126.218 10.0618 125.177C7.97898 124.135 6.16723 122.623 4.77002 120.76C6.67796 121.592 8.73888 122.014 10.82 122H48.1C49.7592 121.99 51.3992 122.356 52.8971 123.069C54.3951 123.783 55.7123 124.826 56.75 126.12C58.77 128.68 58.73 132.53 58 135.86Z" fill="#2D1F04"/>
</g>
<path d="M131.7 60.3501V111.79C131.7 115.768 130.12 119.584 127.307 122.397C124.494 125.21 120.678 126.79 116.7 126.79H89.36C87.8064 126.79 86.2698 127.115 84.849 127.743C83.4281 128.372 82.1543 129.29 81.1092 130.44C80.0641 131.589 79.2708 132.945 78.7801 134.419C78.2895 135.893 78.1123 137.453 78.26 139L80.48 162C80.6498 163.716 80.4583 165.449 79.918 167.086C79.3776 168.724 78.5003 170.23 77.3426 171.508C76.1849 172.786 74.7724 173.807 73.196 174.506C71.6196 175.205 69.9144 175.566 68.19 175.566C66.4657 175.566 64.7604 175.205 63.1841 174.506C61.6077 173.807 60.1952 172.786 59.0375 171.508C57.8797 170.23 57.0024 168.724 56.4621 167.086C55.9217 165.449 55.7303 163.716 55.9 162L58.12 139C58.2724 137.449 58.098 135.884 57.6082 134.405C57.1183 132.926 56.324 131.566 55.2762 130.412C54.2285 129.259 52.9507 128.338 51.5252 127.709C50.0997 127.08 48.5582 126.757 47 126.76H16.78C12.8018 126.76 8.98647 125.18 6.17343 122.367C3.36038 119.554 1.78003 115.738 1.78003 111.76V60.3501C1.78003 56.3719 3.36038 52.5565 6.17343 49.7435C8.98647 46.9305 12.8018 45.3501 16.78 45.3501H116.72C120.695 45.3554 124.505 46.9381 127.314 49.7506C130.122 52.563 131.7 56.3753 131.7 60.3501V60.3501Z" stroke="#2D1F04" stroke-width="2.62" stroke-linecap="round" stroke-linejoin="round"/>
<path d="M39.55 94.3701H47.8V102.16H20.89V94.3701H29.52V77.7301C27.0817 78.9147 24.5002 79.7786 21.84 80.3001V72.4301C26.8133 71.3501 30.2 69.4201 32 66.6401H39.59L39.55 94.3701Z" fill="#2D1F04"/>
<path d="M63.2801 102.7C61.3298 102.758 59.3955 102.332 57.6503 101.46C55.9052 100.587 54.4036 99.2954 53.2801 97.7002C50.8201 94.3668 49.5901 89.9968 49.5901 84.5902C49.5901 79.0435 50.8501 74.6635 53.3701 71.4502C54.5461 69.8959 56.0783 68.6468 57.8377 67.808C59.597 66.9692 61.5321 66.5653 63.4801 66.6302C65.4746 66.5375 67.4591 66.9621 69.2411 67.8627C71.023 68.7633 72.5419 70.1093 73.6501 71.7702C76.0101 75.1902 77.1901 79.5668 77.1901 84.9002C77.1901 90.2335 75.9234 94.5668 73.3901 97.9002C72.2085 99.4471 70.6748 100.69 68.9163 101.524C67.1579 102.359 65.2256 102.762 63.2801 102.7ZM63.3801 95.2702C64.8501 95.2702 65.8301 94.3302 66.3801 92.4602C66.9447 89.9408 67.1933 87.361 67.1201 84.7802C67.1201 80.3202 66.7868 77.4068 66.1201 76.0402C65.927 75.4664 65.5648 74.9645 65.0811 74.6004C64.5974 74.2363 64.0149 74.0271 63.4101 74.0002C62.0401 74.0002 61.1001 74.9002 60.5801 76.7102C59.9788 79.1426 59.713 81.6457 59.7901 84.1502C59.7901 88.4435 60.0534 91.3702 60.5801 92.9302C61.1001 94.4802 62.0001 95.2702 63.3801 95.2702Z" fill="#2D1F04"/>
<path d="M94.06 102.7C92.1097 102.758 90.1754 102.332 88.4302 101.46C86.6851 100.587 85.1835 99.2953 84.06 97.7001C81.6 94.3668 80.37 89.9968 80.37 84.5901C80.37 79.0434 81.63 74.6634 84.15 71.4501C85.326 69.8958 86.8582 68.6467 88.6176 67.808C90.3769 66.9692 92.312 66.5652 94.26 66.6301C96.2558 66.5376 98.2417 66.9622 100.025 67.8627C101.809 68.7633 103.329 70.1092 104.44 71.7701C106.787 75.1901 107.963 79.5668 107.97 84.9001C107.977 90.2334 106.71 94.5668 104.17 97.9001C102.988 99.447 101.455 100.69 99.6963 101.524C97.9378 102.359 96.0055 102.762 94.06 102.7ZM94.16 95.2701C95.63 95.2701 96.62 94.3301 97.16 92.4601C97.7289 89.9413 97.9808 87.3614 97.91 84.7801C97.91 80.3201 97.5767 77.4068 96.91 76.0401C96.7163 75.4648 96.3525 74.9618 95.8669 74.5976C95.3812 74.2334 94.7965 74.025 94.19 74.0001C92.82 74.0001 91.88 74.9001 91.36 76.7101C90.7684 79.1441 90.506 81.6464 90.58 84.1501C90.58 88.4434 90.84 91.3701 91.36 92.9301C91.88 94.4801 92.81 95.2701 94.16 95.2701Z" fill="#2D1F04"/>
<path d="M51.5601 166C71.0801 160.58 85.8701 160.57 86.3801 158.41C86.8901 156.25 71.0001 141.2 56.4901 140.18C49.4901 139.69 43.4901 148.08 47.1601 153.75C40.3801 159 45.4301 167.7 51.5601 166Z" fill="#2D1F04"/>
<g style="mix-blend-mode:multiply" opacity="0.23">
<path d="M86.3801 158.39C85.8701 160.56 71.0901 160.57 51.5701 165.99C46.0701 167.53 41.4301 160.7 45.4101 155.48C47.8601 156.63 52.9401 156.37 57.8901 155.94C62.8401 155.51 72.1501 152.68 83.0001 153.8C85.2601 156 86.5301 157.76 86.3801 158.39Z" fill="#2D1F04"/>
</g>
<path d="M51.5601 166C66.9401 161.73 85.8701 160.57 86.3801 158.41C86.8901 156.25 71.0001 141.2 56.4901 140.18C49.4901 139.69 43.4901 148.08 47.1601 153.75C40.3801 159 45.4301 167.7 51.5601 166Z" stroke="#2D1F04" stroke-width="2.62" stroke-linecap="round" stroke-linejoin="round"/>
<path d="M47.16 153.75C57.32 151.84 68.46 150.13 86.38 158.4" stroke="#2D1F04" stroke-width="2.62" stroke-linecap="round" stroke-linejoin="round"/>
<path d="M61.48 146.65C70.34 145.47 74.14 145.47 81.98 147.59C83.5 143.01 83.19 139.09 79.26 138.25C72.4622 138.614 66.0784 141.63 61.48 146.65Z" fill="#2D1F04"/>
<path d="M61.48 146.65C70.34 145.47 74.14 145.47 81.98 147.59C83.5 143.01 83.19 139.09 79.26 138.25C72.4622 138.614 66.0784 141.63 61.48 146.65V146.65Z" stroke="#2D1F04" stroke-width="2.62" stroke-linecap="round" stroke-linejoin="round"/>
<path d="M165.27 169.33C164.8 172.33 164.16 175.97 163.69 178.33C162.87 178.39 160.16 181.33 159.48 182.4C158.16 184.4 160.07 186.66 159.81 187.75C159.59 188.68 156.2 212.27 153.48 225.39C145.22 221.92 126.29 214.25 122.4 210.39C122.12 210.1 121.83 209.87 121.6 209.63C120.72 208.78 119.47 203.9 123 201.51C123.41 200.33 123.88 199.05 124.38 197.7C133.49 173.16 148.88 165.4 165.26 169.34L165.27 169.33Z" fill="#2D1F04"/>
<path d="M333.65 253.05C331.43 240.511 330.468 227.781 330.78 215.05C332.415 227.657 333.373 240.341 333.65 253.05Z" fill="#2D1F04"/>
<g style="mix-blend-mode:multiply" opacity="0.23">
<path d="M165.28 169.33C164.8 172.33 164.16 175.98 163.69 178.33C162.87 178.39 160.16 181.33 159.48 182.41C158.17 184.41 160.07 186.66 159.8 187.76C159.58 188.69 156.2 212.26 153.48 225.38C150.03 223.94 144.72 221.76 139.42 219.38C142.29 220.01 145.28 219.72 145.77 217.64C146.41 214.86 146.37 212.05 144.45 211.33C147.01 211 149.08 199.73 150.57 194C151.92 188.76 156.45 172.36 163.57 169C164.13 169.1 164.7 169.22 165.26 169.36L165.28 169.33Z" fill="#2D1F04"/>
</g>
<path d="M333.65 253.05C331.43 240.511 330.468 227.781 330.78 215.05C332.415 227.657 333.373 240.341 333.65 253.05Z" fill="#2D1F04"/>
<path d="M313.54 150.64C307.22 153.64 301.54 156.92 293.54 160.58C281.01 166.3 269.7 172.84 256.66 176.66C245.062 179.752 233.155 181.543 221.16 182C211.68 182.622 202.163 182.411 192.72 181.37C181.882 180.339 171.155 178.365 160.66 175.47C160.76 174.83 160.66 174.6 160.41 174.67C160.54 172.3 160.64 168.67 160.66 165.57C160.66 162.64 160.6 159.98 160.37 159.9C159.958 160.029 159.59 160.268 159.306 160.593C159.022 160.918 158.833 161.315 158.76 161.74C156.57 157.74 159.76 154.34 159.44 152.06C159.38 151.55 158.11 152.22 157.29 154C156.94 150.62 158.23 149.59 158.06 148.37C157.71 145.91 156.15 143.37 155.06 141.23C142.7 116.47 119.49 68.3201 156.25 34.6401C153.81 31.2701 148.81 33.1301 148.81 33.1101C148.81 28.1701 156.72 22.9401 167.52 24.1101C167.87 23.5801 163.89 19.7201 167.9 14.3801C168.59 18.3201 172.18 22.0701 173.05 20.1101C175.41 9.41008 182.18 3.48008 191.96 1.58008C188.9 4.25008 187.59 10.0201 189.1 15.1401C189.1 15.1401 192.18 8.48008 195.78 6.93008C192.56 13.1801 195.67 16.5101 197.61 16.9801C199.14 17.3701 205.69 13.9101 205.52 10.7501C207.4 11.3801 207.05 15.2801 223.52 20.6801C293.22 43.6401 313.47 109.7 313.54 150.64Z" fill="#2D1F04"/>
<path d="M232.05 259L231.57 258.28L232.05 259Z" fill="#2D1F04"/>
<path d="M139.49 71.29C141.81 61.83 153.49 54.77 160.6 49.89C168.87 44.2 198.88 38.32 192.95 29.77C203.34 31.1 210.82 40.31 219.81 40.34C229.19 40.34 250.21 45.96 265.67 67.89C268.78 72.29 282.45 110.44 252.49 130.48C229.6 145.79 176.12 150.62 152.69 121.03C141.72 107.17 136.38 89 139.49 71.29Z" fill="#2D1F04"/>
<path d="M187.59 69.3401C179.68 65.3401 173.59 85.1901 172.93 90.9201C171.28 105.5 176.19 113.02 184.74 115.59C193.29 118.16 204.09 116.77 212.43 111.43C233.43 97.9801 211.08 63.1101 197.33 68.6101" fill="#2D1F04"/>
<path d="M142.18 102.31C156.13 101.18 189.18 85.3101 171.97 43.3101C162.53 44.5801 153.68 47.8401 142.9 57.4001C135.82 73.0001 138.05 89.4801 142.18 102.31Z" fill="#2D1F04"/>
<path d="M216.38 43.29C202.62 108.21 270.57 103.4 270.57 103.4C270.57 103.4 276.12 79.15 261.88 60.92C253.18 49.79 235 42 216.38 43.29Z" fill="#2D1F04"/>
<path d="M180.29 152.53L180.25 159.09" stroke="#2D1F04" stroke-width="3.87" stroke-linecap="round" stroke-linejoin="round"/>
<path d="M173.66 155.94L173.62 162.5" stroke="#2D1F04" stroke-width="3.87" stroke-linecap="round" stroke-linejoin="round"/>
<path opacity="0.23" d="M150 31.1001C149.886 31.1583 149.779 31.2287 149.68 31.3101C149.649 31.3453 149.626 31.3866 149.612 31.4315C149.598 31.4763 149.594 31.5236 149.6 31.5701" fill="#2D1F04"/>
<path d="M181.93 69.7902C181.81 67.1302 186.64 64.7102 192.73 64.3802C198.82 64.0502 203.85 66.0002 204 68.6202C204.15 71.2402 199.29 73.7002 193.2 74.0302C187.11 74.3602 182.05 72.4502 181.93 69.7902Z" fill="#2D1F04"/>
<path d="M160.31 173.56C160.55 172.33 161.03 160.12 160.54 159.96C160.127 160.091 159.757 160.332 159.471 160.658C159.186 160.985 158.995 161.383 158.92 161.81C156.74 157.81 159.92 154.4 159.61 152.12C159.55 151.61 158.27 152.29 157.46 154.07C157.11 150.68 158.41 149.66 158.23 148.44C157.88 145.98 156.32 143.44 155.23 141.29C142.85 116.54 119.64 68.3799 156.41 34.6999C154 31.3299 149 33.1999 149 33.1699C149 28.2399 156.92 22.9999 167.72 24.1699C168.07 23.6399 164.09 19.7699 168.1 14.4299C168.79 18.3699 172.38 22.1199 173.25 20.1599C175.61 9.46988 182.39 3.52988 192.16 1.62988C189.1 4.30988 187.79 10.0699 189.29 15.1899C189.29 15.2699 192.35 8.54988 195.98 6.97988C192.28 12.5999 195.69 16.5099 197.63 16.9799C199.16 17.3699 205.89 13.9799 205.72 10.7899C207.6 11.4199 207.26 15.3299 223.67 20.7199C293.55 43.7199 313.62 109.72 313.62 150.61" stroke="#2D1F04" stroke-width="2.62" stroke-linecap="round" stroke-linejoin="round"/>
<path d="M192.29 73.6201C191.79 78.0801 192.62 84.1301 194.97 90.3901" stroke="#2D1F04" stroke-width="2.62" stroke-linecap="round" stroke-linejoin="round"/>
<path opacity="0.23" d="M206 251.5L205.44 251.22L206 251.5Z" fill="#2D1F04"/>
<g style="mix-blend-mode:multiply" opacity="0.23">
<path d="M313.54 150.64C307.95 153.43 298.89 158.05 293.54 160.58C294.82 129.52 287.05 83.0001 263.54 55.8801C249.838 39.7273 230.312 29.639 209.21 27.8101C207.71 27.6801 204.99 25.3201 202.82 25.5701C202.897 25.8068 202.913 26.0589 202.867 26.3034C202.821 26.5479 202.715 26.777 202.558 26.9699C202.401 27.1628 202.198 27.3133 201.968 27.4076C201.737 27.502 201.487 27.5372 201.24 27.5101C199.64 27.5101 196.39 26.7601 196.95 23.9001C193.83 24.2701 193.03 27.9701 191.32 28.1901C189.61 28.4101 186.91 24.6001 183 25.0001C185.12 28.0001 182.23 30.4801 180 31.3501C177.38 32.3501 175.72 31.1201 176.37 29.4501C173.64 29.7901 172.75 32.3601 167.18 35.0301C158.319 39.1409 150.189 44.6703 143.11 51.4001C146.484 45.1104 150.923 39.4533 156.23 34.6801C153.79 31.3101 148.79 33.1701 148.79 33.1501C148.79 28.2101 156.71 22.9801 167.5 24.1501C167.85 23.6201 163.88 19.7601 167.88 14.4201C168.57 18.3501 172.16 22.1101 173.03 20.1401C175.39 9.45012 182.17 3.52012 191.94 1.62012C188.88 4.29012 187.57 10.0601 189.08 15.1801C189.08 15.1801 192.16 8.52012 195.76 6.97012C192.5 13.0001 195.66 16.5501 197.6 17.0001C199.13 17.3901 205.69 13.9301 205.51 10.7701C207.39 11.4001 207.05 15.3001 223.51 20.6901C293.23 43.6401 313.47 109.7 313.54 150.64Z" fill="#2D1F04"/>
</g>
<path d="M179.3 45.3701C150 46.0001 133 68.3701 133 68.3701" stroke="#2D1F04" stroke-width="7.6" stroke-linecap="round" stroke-linejoin="round"/>
<path d="M209.86 43.18C250.34 42.79 265.62 64.56 265.62 64.56" stroke="#2D1F04" stroke-width="7.6" stroke-linecap="round" stroke-linejoin="round"/>
<path d="M184.07 105.07C184.69 101.27 185.31 95.0003 182.22 89.9703C186.58 91.3203 194.22 89.9103 194.55 88.0303C196.55 88.9603 202.43 86.7803 205.02 83.2803C215.14 106.91 193.48 109.64 184.07 105.07Z" fill="#2D1F04"/>
<path d="M184 105.29C184.325 103.396 184.512 101.481 184.56 99.5602C189.44 100.74 198.1 100.69 203.88 94.4102C204.88 95.2602 205.88 96.8902 205.53 101.48C201.55 107.27 191.79 108.58 184 105.29Z" fill="#2D1F04"/>
<path d="M203.87 94.4099C199.4 99.9499 190.32 101.09 184.55 99.5599C184.34 97.0699 183.79 92.5599 182.37 90.2899C186.86 90.4999 192.24 89.6399 194.7 88.3499C197.713 87.5798 200.585 86.3378 203.21 84.6699C204.24 87.0499 204.66 92.3699 203.87 94.4099Z" fill="#2D1F04"/>
<path d="M205.52 101.44C203.701 103.908 201.058 105.643 198.07 106.33L197.89 105.33C199.132 104.947 200.195 104.13 200.885 103.029C201.575 101.927 201.847 100.615 201.65 99.3298C201.43 97.8398 199.55 98.0098 195.65 99.3298C200.9 97.1998 201.29 93.7799 201.38 92.1898C201.47 90.5998 201.28 88.3698 200.09 89.1098C197.38 90.5224 194.453 91.4721 191.43 91.9198C189 92.3498 184.81 92.4698 184.81 93.6698C184.783 95.1668 184.894 96.6631 185.14 98.1398C185.4 99.6298 187.63 100.32 190.14 100.14C189.98 100.14 185.67 100.14 185.21 101.36C184.93 102.1 183.92 104.46 189.21 105.42V106.7C187.426 106.42 185.683 105.923 184.02 105.22C184.34 103.322 184.527 101.404 184.58 99.4799C184.37 96.9899 183.81 92.4798 182.39 90.2098C186.88 90.4198 192.26 89.5698 194.72 88.2798C197.732 87.5023 200.604 86.2572 203.23 84.5898C204.23 86.9798 204.68 92.2998 203.89 94.3298C204.86 95.2098 205.85 96.8398 205.52 101.44Z" fill="#2D1F04"/>
<path d="M182.19 90.0003C190.19 91.4303 198.92 88.4203 205.05 83.3003C215.4 107.15 193.53 109.67 184.05 105.09" stroke="#2D1F04" stroke-width="2.62" stroke-linecap="round" stroke-linejoin="round"/>
<path d="M169.64 77.0003C168.69 82.3603 163.01 82.5803 156.85 83.0003C149.64 83.4303 141.9 83.0003 142.34 74.7003C142.67 68.5803 149.01 66.1403 158.27 65.9803C167.53 65.8203 170.84 70.2403 169.64 77.0003Z" fill="#2D1F04"/>
<path d="M169.82 75.6699C167.08 70.0399 161.54 69.1199 154.53 70.3099C147.12 71.5999 143.71 74.5098 142.7 78.1999C142.386 77.0341 142.264 75.8248 142.34 74.6199C142.67 68.5099 149.02 66.0599 158.27 65.8899C166.91 65.7499 170.37 69.6799 169.82 75.6699Z" fill="#2D1F04"/>
<path d="M150.6 75.7902C150.602 74.5873 150.961 73.4119 151.631 72.413C152.301 71.414 153.253 70.6363 154.365 70.1782C155.477 69.7202 156.7 69.6024 157.88 69.8397C159.059 70.0771 160.141 70.6589 160.99 71.5116C161.838 72.3643 162.415 73.4496 162.646 74.63C162.878 75.8105 162.754 77.0331 162.29 78.1431C161.827 79.2531 161.044 80.2007 160.042 80.8659C159.04 81.5312 157.863 81.8841 156.66 81.8802C155.049 81.8749 153.506 81.2306 152.37 80.0888C151.234 78.947 150.597 77.401 150.6 75.7902Z" fill="#2D1F04"/>
<path d="M169.64 77.0003C168.71 82.2903 162.92 82.5103 156.85 83.0003C149.55 83.5303 141.9 83.0703 142.34 74.7003C142.67 68.5803 149.01 66.1403 158.27 65.9803C167.53 65.8203 170.84 70.2403 169.64 77.0003Z" stroke="#2D1F04" stroke-width="2.62" stroke-linecap="round" stroke-linejoin="round"/>
<path d="M152.18 75.7999C153.66 75.7999 154.86 74.6001 154.86 73.1199C154.86 71.6398 153.66 70.4399 152.18 70.4399C150.7 70.4399 149.5 71.6398 149.5 73.1199C149.5 74.6001 150.7 75.7999 152.18 75.7999Z" fill="#2D1F04"/>
<path d="M153.2 78.7099C153.763 78.7099 154.22 78.2533 154.22 77.6899C154.22 77.1266 153.763 76.6699 153.2 76.6699C152.637 76.6699 152.18 77.1266 152.18 77.6899C152.18 78.2533 152.637 78.7099 153.2 78.7099Z" fill="#2D1F04"/>
<path d="M254.81 73C254.09 78.12 247.16 78.13 240.64 78.88C232.26 79.88 223.95 79.94 223.97 71.29C223.97 65.15 230.97 62.55 241.38 62.18C251.79 61.81 255.76 66.18 254.81 73Z" fill="#2D1F04"/>
<path d="M254.93 70.6101C251.16 66.0301 244.76 65.5401 236.93 67.0001C230.11 68.2501 226.13 70.3801 224.13 73.0001C224.04 72.4078 223.996 71.8093 224 71.2101C224 65.0701 231 62.4701 241.4 62.1001C250.52 61.7901 254.7 65.1901 254.93 70.6101Z" fill="#2D1F04"/>
<path d="M234.81 71.77C234.775 70.8464 235.015 69.9332 235.499 69.146C235.983 68.3588 236.69 67.733 237.53 67.3478C238.37 66.9626 239.306 66.8353 240.218 66.9821C241.131 67.1289 241.979 67.5432 242.656 68.1725C243.333 68.8017 243.808 69.6177 244.021 70.5171C244.234 71.4165 244.175 72.3588 243.852 73.2247C243.529 74.0907 242.957 74.8414 242.207 75.3817C241.457 75.922 240.564 76.2277 239.64 76.26C238.405 76.3032 237.202 75.8549 236.297 75.0132C235.392 74.1716 234.857 73.0053 234.81 71.77Z" fill="#2D1F04"/>
<path d="M254.81 73C254.09 78.12 247.16 78.13 240.64 78.88C232.26 79.88 223.95 79.94 223.97 71.29C223.97 65.15 230.97 62.55 241.38 62.18C251.79 61.81 255.76 66.18 254.81 73Z" stroke="#2D1F04" stroke-width="2.78057" stroke-linecap="round" stroke-linejoin="round"/>
<path d="M233.67 71.59C233.676 70.3274 234.056 69.0949 234.763 68.0486C235.47 67.0023 236.472 66.1893 237.641 65.7125C238.81 65.2358 240.094 65.1166 241.331 65.3703C242.568 65.6239 243.702 66.2389 244.59 67.1373C245.477 68.0357 246.077 69.1773 246.315 70.4173C246.554 71.6573 246.418 72.9401 245.927 74.1033C245.435 75.2664 244.61 76.2576 243.555 76.9512C242.5 77.6449 241.263 78.0099 240 78C238.311 77.9868 236.697 77.3047 235.51 76.1032C234.324 74.9016 233.662 73.2787 233.67 71.59Z" fill="#2D1F04"/>
<path d="M235.33 71.6C236.887 71.6 238.15 70.3374 238.15 68.78C238.15 67.2225 236.887 65.96 235.33 65.96C233.773 65.96 232.51 67.2225 232.51 68.78C232.51 70.3374 233.773 71.6 235.33 71.6Z" fill="#2D1F04"/>
<path d="M236.4 74.6503C236.991 74.6503 237.47 74.1712 237.47 73.5803C237.47 72.9893 236.991 72.5103 236.4 72.5103C235.809 72.5103 235.33 72.9893 235.33 73.5803C235.33 74.1712 235.809 74.6503 236.4 74.6503Z" fill="#2D1F04"/>
<path d="M118.94 219.41C125.44 231 129.15 238.86 132.12 249.84" stroke="#2D1F04" stroke-width="2.62" stroke-linecap="round" stroke-linejoin="round"/>
<path d="M360.65 255.88C400.34 240.64 422.74 168.88 429.65 140.28C423.25 137.91 396.19 132.16 390.51 135.86C379.91 142.74 367.14 171.86 354.21 172.25C334.51 172.9 326.62 155.25 310.48 152.18C302.07 156.63 294.54 159.91 281.39 166.18C290.12 193.58 294.32 210.12 307.33 226.5C324.24 247.82 342.84 262.72 360.65 255.88Z" fill="#2D1F04"/>
<path d="M333.65 253.23C333.65 254.07 333.65 254.89 333.65 255.7C331.81 256.42 328.51 258.57 328.48 260.17C328.29 272.02 327.8 284.8 324.99 294.79C278.99 300.38 255.46 300.72 212.24 299.21C184.18 298.21 158.37 296.69 139.06 285.27C138.732 283.129 138.568 280.966 138.57 278.8C138.88 271.18 143.79 247.02 153.24 226.57C151.85 223.22 151.51 218.79 151.77 214.07C152.54 200.69 158.18 184.91 158.26 183.96C158.37 182.84 156.15 180.88 157.16 178.72C157.68 177.6 159.93 174.26 160.73 174.07C160.97 174 161.08 174.23 160.98 174.87C171.438 177.836 182.152 179.808 192.98 180.76C197.54 181.12 202.41 181.37 205.56 181.53C208.95 181.71 215.19 182.15 221.43 181.9C240.43 181.15 254.31 177.9 256.97 176.53C263.28 173.72 281.85 165.87 292.51 157.14C295.422 154.71 298.791 152.887 302.418 151.778C306.045 150.668 309.857 150.295 313.63 150.68C324.92 152.13 335.53 159.13 342.77 164.6C346.3 163.89 351.49 167.65 349.96 170.18C340.36 182.08 334.43 198.36 332.08 216.75C330.57 228.59 331.36 239.83 333.56 253.05L333.65 253.23Z" fill="#2D1F04"/>
<g style="mix-blend-mode:multiply" opacity="0.23">
<path d="M333.69 255.7C331.85 256.42 328.55 258.57 328.52 260.17C328.33 272.02 327.84 284.8 325.03 294.79C305.65 297.15 290.27 298.57 275.72 299.31C285.8 298.69 296.01 295.83 300.5 289.84C304.32 284.74 305.36 275.15 305.67 264.42C305.961 255.75 305.771 247.07 305.1 238.42C311.92 244.8 316.22 248.5 319.79 250.42C323.36 252.34 328.79 248.05 328.52 240.03C328.206 231.582 329.52 223.152 332.39 215.2C332.3 215.71 332.24 216.2 332.17 216.74C330.65 228.57 331.45 239.82 333.65 253.04V253.22C333.68 254.07 333.69 254.89 333.69 255.7Z" fill="#2D1F04"/>
</g>
<g style="mix-blend-mode:multiply" opacity="0.23">
<path d="M350.05 170.18C347.127 173.831 344.581 177.768 342.45 181.93C341.25 178.46 335.65 176.03 334.01 176.33C332.58 174.84 329.38 171.96 321.66 167.4C315.27 163.62 300.23 157.13 290.73 158.6C291.38 158.12 291.99 157.6 292.6 157.14C295.512 154.71 298.881 152.887 302.508 151.778C306.135 150.668 309.947 150.295 313.72 150.68C325.01 152.13 335.62 159.14 342.86 164.6C346.39 163.89 351.58 167.64 350.05 170.18Z" fill="#2D1F04"/>
</g>
<path d="M194.26 99.7199C194.72 99.6299 195.18 99.4999 195.64 99.3799C195.18 99.5099 194.72 99.6299 194.26 99.7199Z" fill="#2D1F04"/>
<path d="M194.26 99.7199C194.72 99.6299 195.18 99.4999 195.64 99.3799C195.18 99.5099 194.72 99.6299 194.26 99.7199Z" fill="#2D1F04"/>
<path d="M194.26 99.7199C194.72 99.6299 195.18 99.4999 195.64 99.3799C195.18 99.5099 194.72 99.6299 194.26 99.7199Z" fill="#2D1F04"/>
<g style="mix-blend-mode:multiply" opacity="0.23">
<path d="M429.64 140.28C422.74 168.86 400.35 240.65 360.64 255.88C351.53 259.38 342.21 257.18 333.02 251.36C332.093 244.807 331.622 238.198 331.61 231.58C359.15 249.86 383.29 218.07 392.67 197.86C402.23 177.27 409.73 157.03 413.51 136.41C418.972 137.313 424.363 138.606 429.64 140.28Z" fill="#2D1F04"/>
</g>
<path d="M396.6 84.7802C396.13 74.5702 401.69 65.4302 406.38 59.9402C413.74 51.3402 425.1 45.1002 427.8 49.3902C430.63 53.8802 424.75 61.5002 422.31 72.0102C421.04 77.4902 419.31 85.3302 421.2 92.0102C427.56 98.6902 433.03 104.65 433.29 119.36C433.55 134.07 427.5 149.05 419.61 156.25C416.57 159.118 412.953 161.303 409 162.66C397.89 166.3 383.26 165.16 375.45 161.02C367.23 156.67 362.51 148.02 361.68 138.89C361.416 135.982 361.554 133.051 362.09 130.18C359.76 123.39 360.39 113 363.68 107.28C362.68 102.19 363.91 91.2802 370.04 85.6502C374.65 81.4002 386.1 82.4102 396.64 84.7802C400.28 85.6002 403.82 86.5802 406.92 87.5602" fill="#2D1F04"/>
<g style="mix-blend-mode:multiply" opacity="0.23">
<path d="M433.28 119.36C433.55 134.2 427.49 149.05 419.6 156.26C416.545 159.131 412.91 161.314 408.94 162.66C397.84 166.31 383.22 165.16 375.4 161.02C372.734 159.611 370.359 157.711 368.4 155.42C371.92 146.88 393.66 156.26 401.95 155.91C411.81 155.49 419 142.68 422.47 131.4C425.94 120.12 423.74 102.92 418.6 97.98C413.46 93.04 413.12 85.98 415.82 76.27C420.3 60.27 428.43 53.65 426.82 48.48C429.06 50.01 428.56 52.85 428.43 53.65C427.73 58.15 424.1 64.31 422.32 72.02C421.04 77.49 419.32 85.33 421.2 92.02C427.55 98.7 433 104.65 433.28 119.36Z" fill="#2D1F04"/>
</g>
<g style="mix-blend-mode:multiply" opacity="0.23">
<path d="M363.63 107.28C367.18 100.22 378.48 100.41 382.79 99.2803C384.82 98.7377 386.942 98.6247 389.018 98.9484C391.095 99.2721 393.081 100.025 394.85 101.16C397.901 102.824 400.728 104.87 403.26 107.25C394.36 104.6 377.79 101.34 363.63 107.28Z" fill="#2D1F04"/>
</g>
<g style="mix-blend-mode:multiply" opacity="0.23">
<path d="M361.25 130.33C364.64 122.2 376.25 123.22 380.63 122.33C385.01 121.44 389.09 121.87 392.55 124.63C395.422 126.912 398.019 129.519 400.29 132.4C387.63 127 375.64 125 361.25 130.33Z" fill="#2D1F04"/>
</g>
<path d="M396.6 84.7803C396.13 74.5703 401.36 65.1303 406.38 59.9403C413.72 52.3603 425.1 45.1003 427.8 49.3903C430.63 53.8803 426.12 58.6003 422.31 72.0103C420.78 77.4203 419.31 85.3303 421.2 92.0103C427.56 98.6903 433.03 104.65 433.29 119.36C433.55 134.07 427.5 149.05 419.61 156.25C416.57 159.118 412.953 161.303 409 162.66C397.89 166.3 383.26 165.16 375.45 161.02C367.23 156.67 362.51 148.02 361.68 138.89C361.416 135.982 361.554 133.051 362.09 130.18C359.76 123.39 360.39 113 363.68 107.28C362.68 102.19 363.91 91.2803 370.04 85.6503C374.65 81.4003 386.1 82.4103 396.64 84.7803C400.28 85.6003 403.82 86.5803 406.92 87.5603" stroke="#2D1F04" stroke-width="2.78057" stroke-linecap="round" stroke-linejoin="round"/>
<path d="M363.63 107.28C375.02 102.48 391.57 103.54 401.94 106.99" stroke="#2D1F04" stroke-width="2.78057" stroke-linecap="round" stroke-linejoin="round"/>
<path d="M362 130.18C372.31 124.37 390.51 127.52 399.19 132.4" stroke="#2D1F04" stroke-width="2.78057" stroke-linecap="round" stroke-linejoin="round"/>
<path d="M333.69 253.24V253.06C333.66 253.12 333.68 253.17 333.69 253.24Z" fill="#2D1F04"/>
<path d="M333.69 255.7C331.95 257.01 328.55 258.57 328.52 260.17C328.33 272.02 327.84 284.79 325.03 294.79" stroke="#2D1F04" stroke-width="2.62" stroke-linecap="round" stroke-linejoin="round"/>
<path d="M321.89 251.86C322.65 254.14 323.51 256.02 328.52 260.17C324.04 258.3 318.2 254.44 315.27 251.22" stroke="#2D1F04" stroke-width="2.62" stroke-linecap="round" stroke-linejoin="round"/>
<path d="M174.48 216.66C182.48 216.88 189.86 216.87 197.25 217.15C203.32 217.38 205.87 221.32 205.18 225.1C204.24 230.31 199.59 233.78 192.98 235.39C192.63 235.48 192.29 235.53 191.59 235.66C196.76 239.13 194.98 245.66 200.53 251.54C195.03 251.24 190.13 250.98 185.08 250.73C182.719 247.482 181.288 243.651 180.94 239.65C180.74 237.65 180.12 236.15 176.56 236.65C173.82 241.02 171.4 245.54 171.49 250.27C167.2 250.13 163.49 250.04 159.89 250.02C162.45 237.3 173.15 229.61 174.48 216.66ZM184.39 223.39C183.437 225.741 182.255 227.992 180.86 230.11C183.37 230.06 185.78 230.11 188.32 229.96C189.318 229.917 190.288 229.619 191.137 229.094C191.986 228.568 192.686 227.834 193.17 226.96C194.02 225.23 193.31 223.86 191.17 223.61C189.03 223.36 186.77 223.45 184.39 223.39Z" fill="#2D1F04"/>
<path d="M238.63 227.46L228.35 227.85C228.42 224.76 226.67 223.03 223.73 222.91C222.8 222.794 221.858 222.983 221.045 223.448C220.232 223.914 219.592 224.63 219.22 225.49C218.98 227.25 220.02 227.87 221.36 228.28C223.82 229.03 226.36 229.72 228.73 230.54C230.049 230.989 231.327 231.551 232.55 232.22C240.2 236.35 237.55 246.22 232.03 250.51C230.001 252.004 227.614 252.939 225.11 253.22C220.284 253.739 215.404 253.352 210.72 252.08C204.02 250.35 199.64 245.76 201.63 240.08H213.13C213.151 240.75 213.211 241.417 213.31 242.08C213.95 245.45 218.22 247.23 222.02 246.08C222.799 245.917 223.515 245.534 224.083 244.975C224.65 244.417 225.045 243.707 225.22 242.93C225.363 242.269 225.266 241.578 224.945 240.982C224.624 240.386 224.101 239.924 223.47 239.68C222.295 239.171 221.093 238.727 219.87 238.35C217.347 237.589 214.864 236.701 212.43 235.69C208.04 233.59 207.19 230.21 208.59 226.29C210.16 221.92 212.82 218.29 217.32 216.88C221.783 215.413 226.598 215.413 231.06 216.88C236.17 218.53 239.07 221.94 238.63 227.46Z" fill="#2D1F04"/>
<g style="mix-blend-mode:multiply" opacity="0.23">
<path d="M145.55 246.22C148.511 242.842 151.987 239.953 155.85 237.66C160.56 234.66 166.4 234.41 171.63 235.16C185.77 237.16 211.41 245.16 225.85 247.08C252.23 250.56 275.12 240.83 272.41 236.89C270.13 233.59 230.72 243.48 215.87 238.34C202.69 233.77 182.06 232.96 168.51 230.71C165.26 230.16 154.61 227.43 151.87 222.5C151.863 223.928 152.292 225.323 153.1 226.5C150.096 232.876 147.572 239.468 145.55 246.22Z" fill="#2D1F04"/>
</g>
<path d="M160.83 175.61C160.95 174.91 160.83 174.67 160.59 174.74C159.78 174.92 157.54 178.27 157.02 179.39C156.02 181.55 158.23 183.51 158.12 184.63C158 185.91 147.73 214.34 153.12 227.24" stroke="#2D1F04" stroke-width="2.62" stroke-linecap="round" stroke-linejoin="round"/>
<path d="M158.66 184C165.09 188.24 177.36 190.51 190.4 192C214.029 194.751 237.96 193.271 261.07 187.63" stroke="#2D1F04" stroke-width="2.62" stroke-linecap="round" stroke-linejoin="round"/>
<path d="M167.86 177.83C167.117 179.53 166.684 181.348 166.58 183.2" stroke="#2D1F04" stroke-width="2.62" stroke-linecap="round" stroke-linejoin="round"/>
<path d="M179.35 180.13C178.593 181.994 178.252 184 178.35 186.01" stroke="#2D1F04" stroke-width="2.62" stroke-linecap="round" stroke-linejoin="round"/>
<path d="M235.56 181.92V182.43V182.94V183.96V184.47" stroke="#2D1F04" stroke-width="2.62" stroke-linecap="round" stroke-linejoin="round"/>
<path d="M239.39 181.92V182.69V183.45V183.96" stroke="#2D1F04" stroke-width="2.62" stroke-linecap="round" stroke-linejoin="round"/>
<path d="M138.91 285.23C138.591 283.088 138.43 280.926 138.43 278.76C138.74 271.13 143.64 246.97 153.1 226.53" stroke="#2D1F04" stroke-width="2.62" stroke-linecap="round" stroke-linejoin="round"/>
<path d="M160.83 175.53C177.767 180.185 195.266 182.48 212.83 182.35C231.9 182.35 249.65 179.53 256.89 176.7C265.389 173.417 273.586 169.402 281.39 164.7C285.39 162.32 290.01 158.63 294.22 155.95C300.88 151.7 308.37 149.65 313.55 150.68C324.24 152.46 335.22 159.42 342.87 164.89C346.6 164.18 351.25 168.43 350.06 170.21C334.27 189.81 328 221.89 333.7 255.74" stroke="#2D1F04" stroke-width="2.62" stroke-linecap="round" stroke-linejoin="round"/>
<path d="M285.69 162.06C280.94 165.31 276.76 172.84 275.69 179.52" stroke="#2D1F04" stroke-width="2.62" stroke-linecap="round" stroke-linejoin="round"/>
<path d="M371.65 158.54C366 165.86 360.12 172.05 354.2 172.25C352.347 172.314 350.493 172.207 348.66 171.93" stroke="#2D1F04" stroke-width="2.62" stroke-linecap="round" stroke-linejoin="round"/>
<path d="M333.62 251.74C342.62 257.28 351.73 259.3 360.62 255.88C400.31 240.64 422.71 168.88 429.62 140.28" stroke="#2D1F04" stroke-width="2.62" stroke-linecap="round" stroke-linejoin="round"/>
<path d="M127.89 213.93C125.92 212.979 124.076 211.786 122.4 210.38C122.12 210.09 121.83 209.86 121.6 209.62C120.72 208.77 119.51 204.11 123 201.5C123.41 200.32 123.88 199.04 124.38 197.69C132.63 175.48 146.01 167.02 160.62 168.53" stroke="#2D1F04" stroke-width="2.62" stroke-linecap="round" stroke-linejoin="round"/>
<path d="M342.86 164.85C333.53 174.52 322.18 192.03 323.05 223.85" stroke="#2D1F04" stroke-width="2.62" stroke-linecap="round" stroke-linejoin="round"/>
<path d="M334.35 175.77C335.791 175.912 337.158 176.476 338.28 177.39" stroke="#2D1F04" stroke-width="2.62" stroke-linecap="round" stroke-linejoin="round"/>
<path d="M331.43 181C332.54 181.16 334.62 181.48 335.61 182.36" stroke="#2D1F04" stroke-width="2.62" stroke-linecap="round" stroke-linejoin="round"/>
<path d="M324.8 200.77C326.662 200.835 328.505 201.172 330.27 201.77" stroke="#2D1F04" stroke-width="2.62" stroke-linecap="round" stroke-linejoin="round"/>
<path d="M123 201.5C130.735 205.802 138.833 209.416 147.2 212.3" stroke="#2D1F04" stroke-width="2.62" stroke-linecap="round" stroke-linejoin="round"/>
<path d="M130.52 205.41C129.35 206.07 128.52 208.41 128.46 209.53" stroke="#2D1F04" stroke-width="2.62" stroke-linecap="round" stroke-linejoin="round"/>
<path d="M137.37 208.53C136.643 209.444 136.195 210.548 136.08 211.71" stroke="#2D1F04" stroke-width="2.62" stroke-linecap="round" stroke-linejoin="round"/>
<path d="M331.62 231.57C331.621 238.191 332.082 244.804 333 251.36C333.19 252.8 333.41 254.24 333.66 255.7" stroke="#2D1F04" stroke-width="2.62" stroke-linecap="round" stroke-linejoin="round"/>
<path d="M208.636 206.636V205.545C208.758 193.97 209.97 184.758 212.273 177.909C214.576 171.061 217.848 165.515 222.091 161.273C226.333 157.03 231.424 153.121 237.364 149.545C240.939 147.364 244.152 144.788 247 141.818C249.848 138.788 252.091 135.303 253.727 131.364C255.424 127.424 256.273 123.061 256.273 118.273C256.273 112.333 254.879 107.182 252.091 102.818C249.303 98.4545 245.576 95.0909 240.909 92.7273C236.242 90.3636 231.061 89.1818 225.364 89.1818C220.394 89.1818 215.606 90.2121 211 92.2727C206.394 94.3333 202.545 97.5758 199.455 102C196.364 106.424 194.576 112.212 194.091 119.364H171.182C171.667 109.061 174.333 100.242 179.182 92.9091C184.091 85.5758 190.545 79.9697 198.545 76.0909C206.606 72.2121 215.545 70.2727 225.364 70.2727C236.03 70.2727 245.303 72.3939 253.182 76.6364C261.121 80.8788 267.242 86.697 271.545 94.0909C275.909 101.485 278.091 109.909 278.091 119.364C278.091 126.03 277.061 132.061 275 137.455C273 142.848 270.091 147.667 266.273 151.909C262.515 156.152 257.97 159.909 252.636 163.182C247.303 166.515 243.03 170.03 239.818 173.727C236.606 177.364 234.273 181.697 232.818 186.727C231.364 191.758 230.576 198.03 230.455 205.545V206.636H208.636ZM220.273 260.455C215.788 260.455 211.939 258.848 208.727 255.636C205.515 252.424 203.909 248.576 203.909 244.091C203.909 239.606 205.515 235.758 208.727 232.545C211.939 229.333 215.788 227.727 220.273 227.727C224.758 227.727 228.606 229.333 231.818 232.545C235.03 235.758 236.636 239.606 236.636 244.091C236.636 247.061 235.879 249.788 234.364 252.273C232.909 254.758 230.939 256.758 228.455 258.273C226.03 259.727 223.303 260.455 220.273 260.455Z" fill="white"/>
</g>
<defs>
<clipPath id="clip0_229_6694">
<rect width="435" height="300" fill="white"/>
</clipPath>
</defs>
</svg>
