<svg width="29" height="25" viewBox="0 0 29 25" fill="none" xmlns="http://www.w3.org/2000/svg">
<g clip-path="url(#clip0_51_212)">
<path d="M2.11807 17.1421C2.21869 17.2483 2.32489 17.3601 2.4311 17.4719C3.2472 18.3104 4.37073 18.7687 5.36011 19.1097C5.86318 19.3053 6.39979 19.4786 6.96436 19.624C7.79163 19.8531 8.53507 19.9593 9.45178 19.9649C9.64183 19.9761 9.82629 19.9761 10.0107 19.9817C10.2232 19.9873 10.4356 19.9929 10.648 19.9929C12.6938 19.9929 14.572 19.6295 16.0812 18.9364C17.9649 18.0756 19.2785 16.7285 19.9996 14.9286C20.1673 14.5094 20.2958 14.0286 20.3797 13.5032C20.3964 13.52 20.4356 13.5647 20.4412 13.5423C22.4143 5.34782 15.5557 1.8822 15.5502 1.89338C15.4328 1.75922 15.3042 1.67538 15.1924 1.60271C15.1868 1.59712 15.1812 1.59712 15.1756 1.59153C15.075 1.48533 14.9744 1.38471 14.8794 1.28969L14.8738 1.2841C14.7173 1.09405 14.5831 0.948715 14.4546 0.820152C14.4434 0.808972 14.4378 0.803383 14.4266 0.792203L14.421 0.786614L14.4154 0.781024C14.3931 0.758665 14.3707 0.741896 14.354 0.719537C13.9683 0.322667 13.7223 0.322667 13.6385 0.322667C13.5938 0.322667 13.5434 0.328257 13.4987 0.339436C13.4596 0.311488 13.4205 0.283539 13.3813 0.255591C13.3422 0.216463 13.2751 0.154976 13.1801 0.115848C13.1298 0.0878993 13.0795 0.0655404 13.0292 0.054361C13.018 0.0487713 13.0068 0.0431816 12.9957 0.0375919C12.9286 0.00964329 12.8615 -0.00712585 12.7944 -0.00712585C12.6659 -0.00712585 12.5373 0.0431816 12.4423 0.138207C12.4311 0.149386 12.4255 0.154976 12.4143 0.166155C12.3193 0.132617 12.2131 0.110258 12.0901 0.0990787C12.0789 0.0990787 12.0622 0.0990787 12.051 0.0990787C11.8777 0.0990787 11.7212 0.188514 11.6318 0.328257C11.5926 0.322667 11.5591 0.322667 11.52 0.322667C11.4249 0.322667 11.3467 0.339436 11.2796 0.367385C11.274 0.367385 11.2684 0.367385 11.2684 0.367385C11.084 0.406513 10.9386 0.540666 10.8883 0.719537C10.866 0.797793 10.8604 0.876049 10.8772 0.948715C10.6033 1.07728 10.3517 1.25615 10.1281 1.47415L9.96603 1.47974C9.82629 1.48533 9.69772 1.5524 9.60829 1.64743C8.52388 1.8822 7.5904 2.37409 6.82461 3.10076C6.75754 3.16224 6.69046 3.23491 6.62338 3.30757C6.27682 3.66532 5.94703 4.09572 5.62282 4.61557C4.80114 4.68823 3.78381 5.05716 3.04038 6.28689C2.9733 6.36515 2.9174 6.46576 2.86709 6.59433C2.80561 6.71171 2.74971 6.83468 2.6994 6.96325C2.62115 7.06945 2.57084 7.19802 2.55407 7.34335C2.54848 7.35453 2.54848 7.36571 2.54289 7.3713C2.50935 7.40484 2.47022 7.43837 2.43669 7.47191C2.17397 7.70668 1.78269 8.09796 1.397 8.65693C1.13428 8.96437 0.910695 9.31652 0.731824 9.7078C0.307006 10.5071 0.0666479 11.3176 0.0107508 12.1281C-0.0451464 12.9387 0.0834171 13.7492 0.396441 14.5429C0.726234 15.5043 1.30197 16.3763 2.11807 17.1421ZM21.9168 13.2461C21.9113 13.2461 21.9057 13.2461 21.9001 13.2461C21.9113 13.2461 21.9168 13.2461 21.9168 13.2461ZM21.5312 9.89226H21.5256C21.5256 9.89226 21.5312 9.89226 21.5312 9.89226ZM21.0225 9.25503C21.0225 9.25503 21.0225 9.24944 21.0225 9.25503C21.0225 9.24944 21.0225 9.25503 21.0225 9.25503ZM20.9889 7.27627C20.9889 7.27627 20.9945 7.27627 20.9889 7.27627V7.27627ZM20.3461 9.55688C20.3573 9.56247 20.3685 9.57365 20.3797 9.57923C20.3685 9.59041 20.3517 9.60159 20.3405 9.61277C20.335 9.58482 20.3294 9.56247 20.3238 9.53452C20.3294 9.5457 20.335 9.55129 20.3461 9.55688ZM19.8263 4.74972C19.8263 4.74972 19.8263 4.75531 19.8263 4.74972C19.8263 4.74972 19.8207 4.74972 19.8151 4.74972C19.8151 4.75531 19.8207 4.74972 19.8263 4.74972ZM19.1555 5.33664C19.1499 5.33664 19.1499 5.33664 19.1443 5.33664C19.1443 5.33664 19.1499 5.33664 19.1555 5.33664ZM18.7363 4.5988C18.7307 4.5988 18.7251 4.5988 18.7195 4.5988C18.7083 4.5988 18.6972 4.5988 18.686 4.5988C18.7028 4.5988 18.7195 4.5988 18.7363 4.5988ZM17.4674 2.22876C17.4562 2.22876 17.4395 2.22876 17.4227 2.22876C17.4339 2.22876 17.4507 2.22876 17.4674 2.22876ZM16.8023 1.63625C16.8078 1.63625 16.8078 1.63625 16.8023 1.63625C16.7967 1.63625 16.7911 1.63625 16.7911 1.63625C16.7967 1.63625 16.8023 1.63625 16.8023 1.63625ZM16.0812 2.27907C16.0756 2.27907 16.0756 2.27907 16.07 2.27907H16.0644C16.0644 2.27907 16.07 2.27907 16.0812 2.27907ZM13.6329 0.831331C13.6385 0.831331 13.6385 0.831331 13.6441 0.831331C13.6441 0.831331 13.6385 0.831331 13.6329 0.831331ZM12.8839 0.540666C12.8839 0.540666 12.8895 0.540666 12.8839 0.540666C12.8839 0.540666 12.8783 0.540666 12.8727 0.540666C12.8783 0.540666 12.8783 0.540666 12.8839 0.540666ZM11.5144 0.831331C11.5144 0.831331 11.52 0.831331 11.5144 0.831331C11.5088 0.831331 11.5144 0.831331 11.5144 0.831331ZM10.6815 19.4898C10.6703 19.4898 10.6536 19.4898 10.6424 19.4898C10.6312 19.4898 10.6256 19.4898 10.6144 19.4898C10.6368 19.4898 10.6592 19.4898 10.6815 19.4898ZM5.93026 5.11305C5.94703 5.11305 5.9638 5.11305 5.97498 5.11305C5.95262 5.11305 5.93026 5.11305 5.91349 5.11305C5.92467 5.11305 5.93026 5.11305 5.93026 5.11305Z" fill="white"/>
<path d="M15.8912 2.87728C15.7402 2.72077 16.7576 3.58718 17.0538 3.81636C17.7749 4.37533 18.4736 5.39824 18.8761 6.19757C19.994 8.43346 20.6256 12.3183 19.6754 14.6939C17.9482 19.0148 12.7777 19.7694 8.85371 19.3334C7.26064 19.1545 3.98507 18.0813 2.76651 16.8628C-0.0507077 14.0455 -0.0842459 10.8147 2.88389 7.84654C3.71117 7.01926 4.2366 6.92424 5.17568 6.21993C6.00854 5.59389 6.50603 4.20205 7.32213 3.42508C9.14437 1.69226 11.6262 1.80406 13.3311 2.14503C13.89 2.25683 14.6335 2.51395 15.1533 2.77108C15.349 2.87728 16.1259 3.11205 15.8912 2.87728Z" fill="#689BD4"/>
<path opacity="0.1395" d="M16.4893 7.74034C16.2377 8.07013 15.5222 9.78059 15.9079 9.73028C17.7134 9.48992 17.1936 12.0332 15.2036 12.9444C13.3367 13.7996 13.0907 12.7152 13.2305 12.3071C13.6273 11.1501 10.1561 13.1456 10.5418 14.2971C11.5368 17.2876 2.25785 14.2635 4.63348 12.2512C5.79055 11.273 6.23214 8.92536 4.91855 9.57935C1.08401 11.4799 2.2299 8.6291 2.13488 8.72972C0.983394 9.8812 0.938676 11.4463 0.927497 11.3513C0.921907 11.3066 0.977804 11.178 0.938676 11.2116C0.67037 11.4351 0.720677 12.581 0.731857 12.8996C0.804523 14.6045 1.76595 15.879 2.93979 17.0808C3.94594 18.1093 5.51665 18.5453 6.7967 18.9645C8.61894 19.5626 9.75366 19.434 11.6542 19.3614C14.449 19.2552 17.937 18.1204 19.2338 15.4541C19.8543 14.1853 19.9437 13.9058 20.1561 12.4972C20.3629 11.1221 19.9493 9.24397 19.368 7.09193C19.1835 6.40999 18.8314 6.05224 18.4513 5.45414C18.1941 5.05169 16.5955 3.23503 15.8297 3.00026C15.6284 2.93877 14.5608 4.6101 15.5949 4.57097C16.3942 4.52625 17.4116 6.52737 16.4893 7.74034Z" fill="#042B88"/>
<path opacity="0.144" d="M9.69772 3.87225C9.21141 3.50892 7.43388 4.76661 8.42326 5.90691C9.26172 6.87393 10.4579 6.20317 10.4579 6.20317C10.4579 6.20317 10.212 4.25236 9.69772 3.87225Z" fill="#042B88"/>
<path d="M13.823 1.01033C13.728 1.10535 13.7392 0.803506 13.7503 0.797917C13.8342 0.714071 14.1416 1.01592 14.1863 1.07181C14.6112 1.59725 15.5111 2.27919 15.6788 2.94996C15.7347 3.16796 15.8521 3.37477 15.9024 3.58718C16.0757 4.26913 16.0198 5.12995 15.8521 5.8063C15.8297 5.90133 15.6508 6.8404 15.6788 6.86835C15.7123 6.90188 15.8912 6.87394 15.9415 6.89071C16.1204 6.96896 16.2489 7.09193 16.4166 7.18137C16.5173 7.23168 16.7408 7.20373 16.8526 7.23168C17.7526 7.45527 19.0885 8.43906 19.5581 9.22162C20.05 10.0433 20.5083 10.96 20.3071 11.9494C20.2959 12.0109 20.1617 12.7264 20.1338 12.7375C20.1059 12.7543 20.0444 12.4469 20.0332 12.4245C19.9605 12.2512 19.8879 12.0724 19.8208 11.8991C19.6251 11.4072 19.0103 10.6694 18.5799 10.3451C17.5346 9.56259 15.2484 9.7191 14.2646 10.0824C13.8901 10.2222 13.4317 11.3569 13.387 11.7202C13.3535 11.9829 13.264 12.1842 13.2026 12.4413C13.0572 13.0282 13.0349 12.609 12.8504 12.7487C12.7721 12.8102 12.7498 13.1009 12.7274 13.2015C12.6771 13.3971 13.0237 13.7157 13.0628 13.917C13.1858 14.5263 13.1299 15.0796 13.0628 15.6945C13.0293 16.0075 12.9846 16.7174 13.1131 17.0193C13.1802 17.1758 13.2305 17.3379 13.3032 17.4832C13.3143 17.5112 13.4653 17.6956 13.4038 17.6956C13.0293 17.6956 12.4479 17.3882 12.1908 17.1646C11.5759 16.6336 11.6039 16.7454 10.7319 14.7554C10.4804 14.1853 10.2624 13.9282 9.83196 13.4642C9.05499 12.6202 8.41776 12.5251 7.1992 12.1898C6.91972 12.1115 5.77941 11.737 5.50552 11.8823C5.32665 11.9829 4.78444 12.0612 4.6447 12.2009C4.35404 12.4916 4.1584 12.7711 3.84537 13.045C3.60501 13.2518 3.3982 13.4642 3.09635 13.5313C2.72184 13.6151 2.50384 13.4307 2.11815 13.4474C2.02872 13.453 1.39149 13.2071 1.30205 13.2294C1.28528 13.235 1.98959 13.045 2.34174 12.8102C2.44235 12.7431 2.52061 12.6705 2.53738 12.5922C2.69389 11.9662 2.7442 12.4469 3.04045 11.3625C3.36466 10.1775 4.4267 10.4458 4.89624 9.98182C5.03598 9.84207 5.04157 9.38372 5.10865 9.20485C5.21485 8.93095 5.41049 8.56203 5.6229 8.35521C5.90239 8.07572 6.42782 7.82978 6.51167 7.40496C6.63464 6.79568 5.00244 6.64476 4.6447 6.6783C4.31491 6.70624 4.04101 7.03604 3.75594 7.19255C3.64973 7.24845 3.60501 7.29316 3.49322 7.25404C3.32553 7.19814 3.46527 6.67271 3.57707 6.56091C4.1025 6.03548 4.43229 5.43738 5.19249 5.22497C5.7347 5.07405 6.15951 5.04051 6.81351 5.1523C7.46751 5.2641 7.37807 5.44856 7.62402 5.44856C7.84761 5.44856 7.97058 5.1523 8.23889 5.19702C8.47366 5.23615 8.80904 5.58271 9.03822 5.5324C9.60278 5.42061 9.4798 4.78897 9.55247 4.35297C9.66985 3.65985 9.87108 2.97232 10.3015 2.40216C10.4468 2.20652 10.4971 1.97176 10.676 1.7873C10.9778 1.48545 11.2573 1.26745 11.8219 1.1333C11.8722 1.12212 11.9057 1.12212 11.8666 1.08858C11.8331 1.06063 11.5815 0.864993 11.6933 0.825865C11.9225 0.747609 12.4591 0.982377 12.5094 0.954429C12.6268 0.892942 12.4032 0.641405 12.4088 0.635815C12.4479 0.596687 13.169 1.0774 13.1858 1.06063C13.3032 0.943249 13.0349 0.596687 13.0852 0.524021C13.1131 0.484893 13.1746 0.557559 13.2081 0.585508C13.3479 0.708481 13.4932 0.781148 13.6218 0.909711C13.7951 1.09417 13.851 0.987967 13.823 1.01033Z" fill="#CAA77A"/>
<path d="M15.7626 6.81804C15.6285 6.85157 16.003 6.80127 16.1036 6.81804C16.3831 6.85716 16.7073 6.86834 16.97 6.99132C17.0371 7.02486 17.2998 7.30434 17.2383 7.37701C17.1712 7.46085 16.8023 7.20373 16.6905 7.27639C16.5563 7.36024 16.3831 7.67326 16.2769 7.80183C15.9918 8.15398 15.7626 8.67382 15.6843 9.12659C15.662 9.23838 15.7402 9.67438 15.6899 9.73587C15.5278 9.93151 15.103 9.87002 14.885 9.92592C14.5105 10.0209 14.1025 10.3116 13.9068 10.6414C13.7838 10.8538 13.6441 11.055 13.5155 11.2674C13.4093 11.4463 13.387 11.6476 13.3255 11.8544C13.264 12.0556 13.3311 12.6537 13.2081 12.8046C13.169 12.8549 12.9174 12.8214 12.8839 12.7711C12.8168 12.6649 12.9677 12.514 12.9342 12.3966C12.8727 12.145 12.6268 12.0109 12.4703 11.8041C12.3026 11.5861 11.9784 11.2842 11.7715 11.1221C11.112 10.5911 10.43 9.97064 9.59715 9.67997C9.0773 9.5011 8.55746 9.31105 8.02644 9.17131C7.76931 9.10423 7.51777 8.9589 7.24388 8.93654C6.7408 8.89182 6.22655 8.89741 5.72348 8.86946C5.56696 8.85828 5.32661 8.91977 5.18686 8.98685C5.14774 9.00362 5.06948 9.04833 5.06948 9.04833C5.06948 9.04833 5.29866 9.05392 5.27071 9.121C5.20922 9.2831 4.91856 10.0098 4.74528 9.57936C4.68379 9.43402 4.77322 9.25515 4.83471 9.121C4.89061 8.99244 4.88502 8.81356 4.97445 8.70177C5.27071 8.33844 5.52225 8.12603 5.9303 7.86331C6.05327 7.78506 6.23773 7.66767 6.37747 7.63414C6.39983 7.62855 6.51163 7.61737 6.52281 7.59501C6.60665 7.37701 6.51722 7.09193 6.60665 6.86275C6.78552 6.38763 7.23829 5.98517 7.55131 5.59948C7.59603 5.54358 8.10469 5.10199 8.16618 5.14112C8.36741 5.26969 8.61895 5.45415 8.81459 5.61066C8.9152 5.68891 9.01582 5.54917 9.08848 5.58271C9.22823 5.64979 9.36238 5.90691 9.46858 6.0243C9.64187 6.21435 9.86545 6.36527 10.0611 6.52178C10.24 6.66711 10.4803 6.71183 10.6871 6.79009C11.2461 6.99691 11.766 7.14783 12.3529 7.29875C12.9454 7.44967 14.354 7.4888 14.9186 7.23168C15.1757 7.11429 15.2483 7.08634 15.4775 6.93542C15.5726 6.85157 15.8912 6.7845 15.7626 6.81804Z" fill="#FFDB1F"/>
<path d="M11.956 5.75599C14.3428 6.39881 15.226 4.18528 14.9744 3.18472C14.9465 3.07293 14.8682 2.36862 13.7838 2.12827C13.605 2.08914 13.2137 2.10591 13.046 2.03883C12.8783 1.97175 12.7386 1.92704 12.5932 1.75375C12.5932 1.9438 12.5541 1.96616 12.4982 1.96616C12.2299 1.97734 11.7715 1.50781 11.2741 1.49104C10.7039 1.46868 10.117 2.46924 9.99401 2.84375C9.76484 3.53128 9.56919 5.11317 11.956 5.75599Z" fill="#FFDBAF"/>
<path d="M12.3305 3.40273C12.733 3.65426 12.8447 4.3418 12.4926 4.65482C12.1404 4.96785 11.5088 4.69395 11.2405 4.53744C10.5697 4.15175 11.207 3.30211 11.4976 3.24062C11.5647 3.22944 11.6989 3.19032 11.7548 3.22385" fill="#9D7B51"/>
<path d="M12.3026 3.43067C12.325 3.34123 12.1685 3.22385 11.9505 3.16236C11.7325 3.10087 11.5368 3.12882 11.5145 3.21826C11.4921 3.30769 11.6486 3.42508 11.8666 3.48656C12.0846 3.54246 12.2802 3.5201 12.3026 3.43067Z" fill="#251707"/>
<path d="M13.1801 2.39657C11.9839 4.23559 14.4322 5.08522 14.4881 5.02932C14.9521 4.57656 15.0471 3.65984 15.0247 3.41949C15.0191 3.36918 13.1857 2.39098 13.1801 2.39657Z" fill="#9D7B51"/>
<path d="M11.7995 1.98293C11.8443 1.98293 11.3747 3.87785 9.85431 3.32446C9.77047 3.29093 9.93257 2.87729 9.94934 2.79344C10.1114 1.98852 10.3797 2.2177 11.0058 2.17298C11.2517 2.15062 11.7045 1.98293 11.7995 1.98293Z" fill="#9D7B51"/>
<path d="M20.24 11.6923C20.3965 11.7649 20.307 12.6537 20.089 12.6872C20.0443 12.6928 20.0499 12.6313 20.0443 12.6146C20.0108 12.3966 19.6922 11.927 19.7592 11.7202C19.7704 11.6979 20.1897 11.6699 20.24 11.6923Z" fill="#D2D2D2"/>
<path d="M3.34789 7.15341C3.48763 7.12546 3.43174 7.36582 3.31994 7.4329C3.27522 7.46085 3.21374 7.57823 3.20815 7.53351C3.1802 7.38259 3.21374 7.18136 3.34789 7.15341Z" fill="#D2D2D2"/>
<path d="M12.9901 16.6783C13.0739 16.8572 13.2416 17.187 13.3422 17.3994C13.359 17.4329 13.4596 17.8298 13.4429 17.8521C13.387 17.9248 13.0739 17.7236 13.0124 17.69C12.6156 17.4944 12.297 17.3714 12.0063 17.0249C11.9672 16.9745 11.6877 16.7957 11.7604 16.6895C11.9001 16.4994 12.4199 16.4603 12.6156 16.4938C12.7162 16.5106 12.8056 16.533 12.9007 16.5609C12.9286 16.5721 12.9789 16.6448 12.9901 16.6783Z" fill="#D2D2D2"/>
<path d="M2.37523 12.8102C2.70503 12.7878 3.29754 13.4363 3.06277 13.5257C2.80005 13.6207 2.00631 13.4754 1.73242 13.4251C1.63739 13.4083 1.47529 13.481 1.44734 13.3859C1.43616 13.3524 1.47529 13.3245 1.49765 13.2965C1.70447 13.0673 1.91129 13.1512 2.10693 12.894C2.13488 12.8549 2.3417 12.8102 2.37523 12.8102Z" fill="#D2D2D2"/>
<path d="M13.2081 12.6537C13.2081 12.9108 12.9845 12.7823 12.8447 12.7823" stroke="#2D1F04" stroke-width="0.259232" stroke-miterlimit="10" stroke-linecap="round" stroke-linejoin="round"/>
<path d="M7.69101 5.42061C7.69101 5.42061 4.39308 3.78841 3.15775 7.52793C3.14657 7.56147 3.1298 7.6509 3.15775 7.62854C4.92969 6.1305 5.91348 6.76773 6.47245 7.28198" stroke="#2D1F04" stroke-width="0.259232" stroke-miterlimit="10" stroke-linecap="round" stroke-linejoin="round"/>
<path d="M5.25393 9.10423C5.14772 9.27751 5.03034 9.94828 4.54962 10.2278" stroke="#2D1F04" stroke-width="0.259232" stroke-miterlimit="10" stroke-linecap="round" stroke-linejoin="round"/>
<path d="M20.0499 13.1568C21.0002 10.5687 19.1779 7.94716 16.8247 7.31552M7.21037 7.1646C6.80232 7.24845 5.10863 8.13162 4.72853 9.17131C4.59438 9.54582 4.85151 9.67997 4.98007 9.76941M2.53177 12.609C2.31937 12.9164 1.25173 13.2406 1.27409 13.2742C1.30763 13.3189 2.88952 13.6598 3.34228 13.5089C3.86213 13.3356 4.21987 12.5028 4.66705 12.2009C5.47755 11.6476 6.50047 12.0165 7.88113 12.3574M4.59438 10.1998C3.88449 10.552 3.31992 10.3116 3.00131 11.3737C2.82803 11.955 2.81126 12.2848 2.47029 12.6649M11.8554 1.17243C10.676 1.34012 9.76487 2.44129 9.56364 4.43123C9.47979 5.23056 9.22825 5.45974 9.01025 5.55476M15.6564 6.77891C16.8023 3.07852 14.8906 1.87673 14.8683 1.82083M14.8739 1.82083C14.5217 1.49663 14.2646 0.982378 13.8006 0.831456C13.8062 0.954429 13.8062 0.954429 13.8118 1.07181C13.5267 0.842635 13.2808 0.602277 12.951 0.451355C13.1634 0.94325 13.0963 0.74202 13.1858 1.03269C12.7777 0.898532 12.6659 0.596688 12.202 0.55756C12.3864 0.686123 12.4591 0.786738 12.5821 0.982378C12.2355 0.864994 11.889 0.730841 11.52 0.809097C11.6933 0.976788 11.6933 0.976788 11.861 1.14448M12.9175 12.4692C12.8504 12.609 12.761 13.0506 12.6939 13.1903M10.9499 12.7375C11.738 12.3407 12.6324 12.9108 12.9342 13.6654C13.1299 14.1629 13.1131 14.9287 13.0684 15.4486C13.0404 15.756 13.0181 16.097 13.0516 16.41C13.0852 16.7118 13.1746 17.0863 13.3032 17.3714C13.3143 17.3938 13.5659 17.841 13.5379 17.8577C13.4094 17.9472 13.1075 17.7459 13.0013 17.69C12.5541 17.4664 11.984 17.1031 11.671 16.7118C10.9331 15.7895 10.8157 14.4815 10.0723 13.6487C9.57481 13.0897 8.41774 12.4916 7.76934 12.3295M14.8906 9.89797C13.5323 10.2166 13.2025 12.3574 13.2137 12.6425M20.0891 13.0729C20.0891 12.5531 19.3289 8.82475 14.9298 9.89238" stroke="#2D1F04" stroke-width="0.259232" stroke-miterlimit="10" stroke-linecap="round" stroke-linejoin="round"/>
<path d="M6.09241 5.01255C7.05384 3.40272 8.14942 2.4357 10.3518 2.0556" stroke="#2D1F04" stroke-width="0.259232" stroke-miterlimit="10" stroke-linecap="round" stroke-linejoin="round"/>
<path d="M15.7235 2.87729C16.3831 3.15118 17.406 3.94492 18.2892 5.21379C19.1221 6.40999 19.8264 8.03101 19.9773 10.0377" stroke="#2D1F04" stroke-width="0.259232" stroke-miterlimit="10" stroke-linecap="round" stroke-linejoin="round"/>
<path d="M20.0611 12.9332C19.1891 19.9594 10.0834 19.7918 7.43391 19.1378C1.94481 17.7795 -0.235176 14.1797 1.13989 10.4625C1.85538 8.53407 3.18014 7.595 3.18014 7.595" stroke="#2D1F04" stroke-width="0.259232" stroke-miterlimit="10" stroke-linecap="round" stroke-linejoin="round"/>
<path d="M12.4144 0.831997C12.4144 0.826136 12.4144 0.826136 12.4144 0.820274" stroke="#2D1F04" stroke-width="0.259232" stroke-miterlimit="10" stroke-linecap="round" stroke-linejoin="round"/>
<path d="M13.0236 16.5944C12.6603 16.3373 12.0063 16.4659 11.6877 16.7007" stroke="#2D1F04" stroke-width="0.259232" stroke-miterlimit="10" stroke-linecap="round" stroke-linejoin="round"/>
<path d="M3.15218 13.5145C3.11305 13.2742 2.61557 12.7096 2.3808 12.7543" stroke="#2D1F04" stroke-width="0.259232" stroke-miterlimit="10" stroke-linecap="round" stroke-linejoin="round"/>
<path d="M2.85034 13.0394C2.78326 13.0506 2.40875 13.0953 2.05101 13.1456C1.68209 13.1959 1.42496 13.263 1.41937 13.2965" stroke="#2D1F04" stroke-width="0.259232" stroke-miterlimit="10" stroke-linecap="round" stroke-linejoin="round"/>
<path d="M20.2623 11.5637C20.0667 11.737 19.899 11.6699 19.6698 11.6531" stroke="#2D1F04" stroke-width="0.259232" stroke-miterlimit="10" stroke-linecap="round" stroke-linejoin="round"/>
<path d="M20.022 11.7202C20.0946 12.1227 20.2008 12.5699 20.0835 12.9611" stroke="#2D1F04" stroke-width="0.259232" stroke-miterlimit="10" stroke-linecap="round" stroke-linejoin="round"/>
<path d="M3.40369 6.9466C3.37015 7.06958 3.43164 7.23727 3.5043 7.33229" stroke="#2D1F04" stroke-width="0.259232" stroke-miterlimit="10" stroke-linecap="round" stroke-linejoin="round"/>
<path d="M18.9767 8.58439C18.9431 8.04777 18.7531 7.24844 18.4121 6.4044" stroke="#2D1F04" stroke-width="0.259232" stroke-miterlimit="10" stroke-linecap="round" stroke-linejoin="round"/>
<path d="M18.7866 10.5687C18.0488 15.2194 13.482 16.628 13.1466 16.7565" stroke="#2D1F04" stroke-width="0.276737" stroke-miterlimit="10" stroke-linecap="round" stroke-linejoin="round"/>
<path d="M11.9448 17.0696C7.77492 18.1037 3.86771 15.6777 2.48146 14.23C1.72126 13.4363 1.02255 12.2009 0.96106 11.1221" stroke="#2D1F04" stroke-width="0.259232" stroke-miterlimit="10" stroke-linecap="round" stroke-linejoin="round"/>
<path d="M12.9063 12.4581C12.9063 12.0332 11.5368 10.9153 11.1847 10.6693C10.7822 10.3899 10.363 10.1439 9.93256 9.90914C8.8258 9.29987 6.28248 8.50054 5.01361 9.13217" stroke="#2D1F04" stroke-width="0.267985" stroke-miterlimit="10" stroke-linecap="round" stroke-linejoin="round"/>
<path d="M13.2696 3.576C12.7833 3.82195 11.9392 3.86107 11.3747 3.48097C11.1399 3.32446 10.9554 3.10087 10.8604 2.78785" stroke="#2D1F04" stroke-width="0.267985" stroke-miterlimit="10" stroke-linecap="round" stroke-linejoin="round"/>
<path d="M13.9124 10.5799C14.2981 10.3787 15.0471 10.4513 15.3098 10.5352" stroke="#2D1F04" stroke-width="0.267985" stroke-miterlimit="10" stroke-linecap="round" stroke-linejoin="round"/>
<path d="M13.5715 11.2004C13.7783 11.0942 14.2255 11.0439 14.5441 11.3122" stroke="#2D1F04" stroke-width="0.267985" stroke-miterlimit="10" stroke-linecap="round" stroke-linejoin="round"/>
<path d="M13.4149 11.709C13.7056 11.709 14.0633 11.7985 14.231 12.2177" stroke="#2D1F04" stroke-width="0.267985" stroke-miterlimit="10" stroke-linecap="round" stroke-linejoin="round"/>
<path d="M15.8018 6.3485C16.0533 6.09696 16.3551 5.96281 16.6961 5.88455" stroke="#2D1F04" stroke-width="0.267985" stroke-miterlimit="10" stroke-linecap="round" stroke-linejoin="round"/>
<path d="M9.46861 4.91195C9.46861 4.62687 9.29532 4.448 9.04938 4.32503" stroke="#2D1F04" stroke-width="0.267985" stroke-miterlimit="10" stroke-linecap="round" stroke-linejoin="round"/>
<path d="M5.62288 8.01423C5.43283 7.58382 5.12539 7.35465 4.65027 7.25962" stroke="#2D1F04" stroke-width="0.267985" stroke-miterlimit="10" stroke-linecap="round" stroke-linejoin="round"/>
<path d="M5.31546 8.29373C5.31546 8.14839 4.98008 7.96393 4.86829 7.90804" stroke="#2D1F04" stroke-width="0.267985" stroke-miterlimit="10" stroke-linecap="round" stroke-linejoin="round"/>
<path d="M15.1254 7.11429C15.1142 7.11988 15.103 7.12547 15.0918 7.13106C14.7788 7.28757 14.3372 7.31552 13.9962 7.36024C12.7497 7.53911 9.78159 6.87393 9.13318 5.56594" stroke="#2D1F04" stroke-width="0.267985" stroke-miterlimit="10" stroke-linecap="round" stroke-linejoin="round"/>
<path d="M9.04932 5.5883C8.87604 5.5883 8.17732 5.12994 8.15496 5.14112C7.30533 5.56594 6.52277 6.47148 6.52277 7.46086" stroke="#2D1F04" stroke-width="0.267985" stroke-miterlimit="10" stroke-linecap="round" stroke-linejoin="round"/>
<path d="M15.6564 6.76773C15.6229 6.73978 17.3501 6.73978 17.1824 7.38818" stroke="#2D1F04" stroke-width="0.267985" stroke-miterlimit="10" stroke-linecap="round" stroke-linejoin="round"/>
<path d="M16.8694 7.22608C16.6738 7.22049 16.4278 7.595 16.316 7.73475C15.8521 8.31049 15.6676 9.0092 15.6564 9.73027" stroke="#2D1F04" stroke-width="0.267985" stroke-miterlimit="10" stroke-linecap="round" stroke-linejoin="round"/>
<path d="M14.9968 3.31328C14.2757 3.07852 13.5994 2.63134 13.2305 2.2736" stroke="#2D1F04" stroke-width="0.648638" stroke-miterlimit="10" stroke-linecap="round" stroke-linejoin="round"/>
<path d="M13.0349 3.22385C13.4094 3.0897 13.7783 3.25739 14.0466 3.51452" stroke="#2D1F04" stroke-width="0.277835" stroke-miterlimit="10" stroke-linecap="round" stroke-linejoin="round"/>
<path d="M11.33 2.60898C11.1287 2.41334 10.7151 2.31272 10.4468 2.41334" stroke="#2D1F04" stroke-width="0.277835" stroke-miterlimit="10" stroke-linecap="round" stroke-linejoin="round"/>
<path d="M13.4541 17.7459C12.8057 17.2876 12.2691 16.533 12.2746 16.5218" stroke="#2D1F04" stroke-width="0.259232" stroke-miterlimit="10" stroke-linecap="round" stroke-linejoin="round"/>
<path d="M11.7659 1.87113C10.9442 2.15621 10.1673 1.9438 10.1337 1.93821" stroke="#2D1F04" stroke-width="0.565501" stroke-miterlimit="10" stroke-linecap="round" stroke-linejoin="round"/>
<path d="M8.46241 12.5922C7.69103 12.6369 7.2215 13.3915 7.2215 13.6039" stroke="#2D1F04" stroke-width="0.259232" stroke-miterlimit="10" stroke-linecap="round" stroke-linejoin="round"/>
<path d="M7.57366 12.3127C7.05382 12.3127 6.38864 12.6537 6.04767 13.5536" stroke="#2D1F04" stroke-width="0.259232" stroke-miterlimit="10" stroke-linecap="round" stroke-linejoin="round"/>
<path d="M8.45684 5.30322C7.85874 5.48209 7.34449 6.25347 6.99792 6.72301" stroke="#2D1F04" stroke-width="0.276737" stroke-miterlimit="10" stroke-linecap="round" stroke-linejoin="round"/>
<path d="M16.724 6.85716C16.2098 6.93542 15.7291 7.82977 15.4608 8.1931" stroke="#2D1F04" stroke-width="0.276737" stroke-miterlimit="10" stroke-linecap="round" stroke-linejoin="round"/>
<path d="M15.2707 9.73028C15.2372 9.49551 15.2595 9.27751 15.2986 9.04833" stroke="#2D1F04" stroke-width="0.276737" stroke-miterlimit="10" stroke-linecap="round" stroke-linejoin="round"/>
<path d="M10.525 6.75096L10.5027 6.77891L10.4803 6.81804L10.4635 6.84599L10.4188 6.92983" stroke="#2D1F04" stroke-width="0.276737" stroke-miterlimit="10" stroke-linecap="round" stroke-linejoin="round"/>
<path d="M10.8157 6.8907L10.7542 6.98573L10.743 7.03044L10.7263 7.05839" stroke="#2D1F04" stroke-width="0.276737" stroke-miterlimit="10" stroke-linecap="round" stroke-linejoin="round"/>
<path d="M7.60718 5.48209C7.62954 5.49327 7.6519 5.51004 7.67425 5.52122" stroke="#2D1F04" stroke-width="0.276737" stroke-miterlimit="10" stroke-linecap="round" stroke-linejoin="round"/>
<path d="M7.32776 5.78953L7.51222 5.9125" stroke="#2D1F04" stroke-width="0.276737" stroke-miterlimit="10" stroke-linecap="round" stroke-linejoin="round"/>
<path d="M7.84198 5.31999L8.03203 5.44297" stroke="#2D1F04" stroke-width="0.276737" stroke-miterlimit="10" stroke-linecap="round" stroke-linejoin="round"/>
<path d="M7.63519 5.51005L7.82524 5.62743" stroke="#2D1F04" stroke-width="0.276737" stroke-miterlimit="10" stroke-linecap="round" stroke-linejoin="round"/>
<path d="M6.90845 6.44353L7.09291 6.5665" stroke="#2D1F04" stroke-width="0.276737" stroke-miterlimit="10" stroke-linecap="round" stroke-linejoin="round"/>
<path d="M15.9974 7.41614L16.193 7.55029" stroke="#2D1F04" stroke-width="0.276737" stroke-miterlimit="10" stroke-linecap="round" stroke-linejoin="round"/>
<path d="M15.7961 7.68444L16.0141 7.81859" stroke="#2D1F04" stroke-width="0.276737" stroke-miterlimit="10" stroke-linecap="round" stroke-linejoin="round"/>
<path d="M6.16508 5.54358C6.12036 5.59948 6.05888 5.68332 6.01416 5.74481" stroke="#9D7B51" stroke-width="0.305172" stroke-miterlimit="10" stroke-linecap="round" stroke-linejoin="round"/>
<path d="M6.5731 5.60507C6.52838 5.66097 6.4669 5.74481 6.42218 5.8063" stroke="#9D7B51" stroke-width="0.305172" stroke-miterlimit="10" stroke-linecap="round" stroke-linejoin="round"/>
<path d="M12.1014 13.8108C12.0566 13.8667 11.9952 13.9505 11.9504 14.012" stroke="#9D7B51" stroke-width="0.305172" stroke-miterlimit="10" stroke-linecap="round" stroke-linejoin="round"/>
<path d="M16.9867 7.96393C16.942 8.01983 16.8805 8.10367 16.8358 8.16516" stroke="#9D7B51" stroke-width="0.305172" stroke-miterlimit="10" stroke-linecap="round" stroke-linejoin="round"/>
<path d="M11.7324 13.7325C11.6877 13.7884 11.6262 13.8723 11.5815 13.9337" stroke="#9D7B51" stroke-width="0.305172" stroke-miterlimit="10" stroke-linecap="round" stroke-linejoin="round"/>
<path d="M14.667 6.32055C14.6223 6.37645 14.5608 6.46029 14.5161 6.52178" stroke="#9D7B51" stroke-width="0.305172" stroke-miterlimit="10" stroke-linecap="round" stroke-linejoin="round"/>
<path d="M14.2142 6.30937C14.1695 6.36527 14.108 6.44911 14.0633 6.5106" stroke="#9D7B51" stroke-width="0.305172" stroke-miterlimit="10" stroke-linecap="round" stroke-linejoin="round"/>
<path d="M13.6553 6.27025C13.6105 6.32615 13.5491 6.40999 13.5043 6.47148" stroke="#9D7B51" stroke-width="0.305172" stroke-miterlimit="10" stroke-linecap="round" stroke-linejoin="round"/>
<path opacity="0.23" d="M11.4976 1.30658C11.4865 1.30658 17.1432 0.825861 15.0527 7.18137C15.0527 7.18696 15.6452 6.80686 15.6452 6.80686C15.6452 6.80686 16.5731 3.75487 15.3322 2.18416C15.198 2.01088 14.9521 1.9438 14.8123 1.77052C14.5776 1.47986 14.326 1.17242 14.041 0.937655C13.7726 0.714066 13.8565 1.10535 13.7615 1.09417C13.7 1.08858 13.1242 0.451349 13.0236 0.490477C12.9398 0.518426 13.2528 1.04945 13.2025 1.08858C13.1913 1.09417 13.1746 1.08858 13.1634 1.08299C12.9677 1.01032 12.7106 0.876168 12.5429 0.736425C12.487 0.691707 12.6715 0.932065 12.5038 0.971193C12.3417 1.01032 11.5759 0.63581 11.5535 0.83704C11.5647 0.842629 12.1405 1.19478 11.4976 1.30658Z" fill="#3F2719"/>
<path opacity="0.23" d="M10.9051 12.7543C10.9666 12.6984 11.5647 12.2177 11.7939 12.0165C12.7776 11.1501 13.8397 9.64084 12.5485 8.50613C11.5815 7.65649 10.3182 7.23726 9.04372 7.11429C8.49593 7.05839 8.0208 7.30434 7.49537 7.23726C7.1544 7.19254 7.15999 7.13665 7.19352 7.07516C7.29414 6.87952 7.88106 6.60003 8.42326 6.70624C8.89839 6.79567 9.40146 6.98013 9.84864 7.13665C10.5529 7.38818 12.7497 7.91921 13.89 7.813C15.1812 7.69562 15.8632 7.78505 16.1091 7.91362C16.1986 7.95833 18.9319 8.04777 19.8654 10.0209C20.0107 10.334 20.1952 10.7308 20.212 11.0718C20.2176 11.1445 20.2399 11.7258 20.1728 11.7482C20.0834 11.7817 19.8486 11.5805 19.7592 11.6475C19.7089 11.6923 19.8934 11.6811 19.9604 11.6811C20.0052 11.6811 20.1896 11.5749 20.2287 11.5916C20.307 11.6252 20.1449 12.4189 20.1337 12.5419C20.1337 12.5587 20.1393 12.5754 20.1281 12.5866C20.1169 12.5922 19.8263 11.9606 19.7648 11.8655C19.6642 11.709 19.6195 11.5246 19.5244 11.3625C19.3456 11.0662 19.0325 10.8091 18.7754 10.5743C17.9481 9.81412 17.0761 9.62407 15.9638 9.66879C15.5669 9.68556 14.9353 9.83089 14.5552 10.0098C13.4987 10.5072 13.3925 11.3736 13.2248 12.6761C13.1857 12.9723 12.9621 12.6984 12.8224 12.8158C12.7385 12.8829 12.7609 13.0617 12.705 13.1065C12.677 13.1288 12.392 12.8996 12.3528 12.8661C12.1684 12.7264 11.8889 12.6369 11.6709 12.581C11.4361 12.5251 10.7877 12.8773 10.9051 12.7543Z" fill="#3F2719"/>
<path opacity="0.23" d="M12.1516 12.7934C12.5765 12.8382 12.7274 13.358 12.7442 13.7102C12.7833 14.8169 12.3976 15.0964 11.861 15.7839C11.1455 16.7062 12.3305 17.1981 12.7665 17.4441C12.9174 17.5279 13.1298 17.5782 13.2975 17.6397C13.359 17.6621 13.4988 17.7906 13.4764 17.7292C13.4317 17.6062 13.292 17.4944 13.2361 17.3546C13.0516 16.8628 13.0963 15.9237 13.0795 15.3982C13.0572 14.6157 13.2696 14.1462 12.7833 13.4307C12.6883 13.2909 12.61 13.1009 12.4647 13.0059" fill="#3F2719"/>
<path opacity="0.23" d="M10.0722 13.6095C9.79835 13.4363 9.72569 12.7543 7.46744 11.8823C6.15386 11.3736 4.73407 11.2674 3.83413 12.7487C3.67203 13.0114 3.34782 13.4251 3.04598 13.5425C3.02362 13.548 2.99008 13.5425 2.98449 13.5648C2.9789 13.6039 3.17454 13.5872 3.18572 13.5872C3.32546 13.5536 3.46521 13.4251 3.57141 13.3356C4.013 12.9779 4.39869 12.1618 5.00238 12.0276C6.12032 11.7761 7.31652 12.0221 8.33385 12.5251C8.61892 12.6649 8.85928 12.8549 9.122 13.017" fill="#3F2719"/>
<path d="M9.20586 6.76772C9.56919 6.91865 9.87663 7.03044 10.1617 7.14782C10.3965 7.24285 10.3909 7.40495 10.2959 7.48321C10.1617 7.58941 9.93252 7.595 9.62509 7.55028C9.60832 7.55028 9.59155 7.54469 9.5636 7.5391C9.74247 7.67885 9.59155 7.81859 9.65304 8.18751C9.42945 8.10366 9.22822 8.03659 9.0214 7.96392C8.99345 7.75151 8.99904 7.61736 9.03817 7.51674C9.05494 7.46085 9.04935 7.41613 8.88166 7.38818C8.6972 7.46644 8.52392 7.56705 8.44566 7.79064C8.2612 7.73474 8.09351 7.69003 7.92023 7.6509C8.2053 7.13105 8.82576 7.18695 9.20586 6.76772ZM9.4574 7.159C9.37355 7.20931 9.27853 7.24285 9.16673 7.28198C9.27853 7.30993 9.38473 7.34346 9.49653 7.37141C9.59714 7.39377 9.69217 7.39377 9.75365 7.36582C9.82073 7.33787 9.82073 7.29316 9.73688 7.25962C9.66422 7.22608 9.5636 7.19813 9.4574 7.159Z" fill="#2D1F04"/>
<path d="M11.6765 8.03659C11.5144 7.97511 11.3691 7.9248 11.2126 7.8689C11.2517 7.80183 11.207 7.73475 11.0896 7.69003C11.0113 7.66208 10.9331 7.6509 10.8604 7.68444C10.8213 7.71798 10.8604 7.74593 10.9107 7.77388C11.0057 7.82419 11.1064 7.88008 11.2014 7.93598C11.2573 7.96952 11.3076 8.00306 11.3579 8.03659C11.6709 8.26018 11.4417 8.52849 11.0449 8.63469C10.9107 8.66823 10.7654 8.67382 10.6368 8.64587C10.43 8.60116 10.2344 8.49495 10.0611 8.35521C9.8319 8.17075 9.76482 7.90244 9.92693 7.77388C10.089 7.8186 10.2567 7.8689 10.4244 7.9248C10.4188 7.94716 10.4076 7.96393 10.4021 7.98629C10.3797 8.09808 10.5194 8.23782 10.7095 8.25459C10.7989 8.26018 10.8716 8.24341 10.9107 8.19311C10.9498 8.14839 10.9275 8.10367 10.8772 8.06454C10.8325 8.03101 10.7822 8.00306 10.7318 7.97511C10.6312 7.91362 10.525 7.86331 10.4412 7.80742C10.2791 7.70121 10.2791 7.62855 10.4021 7.56147C10.5362 7.4888 10.7318 7.41614 10.9554 7.4385C11.1623 7.45526 11.3523 7.52234 11.52 7.6509C11.7045 7.77388 11.7492 7.91921 11.6765 8.03659Z" fill="#2D1F04"/>
</g>
<defs>
<clipPath id="clip0_51_212">
<rect width="28.3128" height="25" fill="white"/>
</clipPath>
</defs>
</svg>
