<svg width="130" height="171" viewBox="0 0 130 171" fill="none" xmlns="http://www.w3.org/2000/svg">
<mask id="mask0_131153_442852" style="mask-type:alpha" maskUnits="userSpaceOnUse" x="0" y="0" width="130" height="171">
<path d="M129.75 0H0.25V170.1H129.75V0Z" fill="white"/>
</mask>
<g mask="url(#mask0_131153_442852)">
<mask id="mask1_131153_442852" style="mask-type:alpha" maskUnits="userSpaceOnUse" x="0" y="0" width="130" height="171">
<path d="M129.75 0H0.25V170.1H129.75V0Z" fill="white"/>
</mask>
<g mask="url(#mask1_131153_442852)">
<path d="M129.75 130.3C129.75 129.7 129.65 129.2 129.55 128.7C129.15 126.9 125.05 118.2 121.75 111.4C125.15 107.8 126.05 104.2 126.25 102.1C126.25 101.8 126.25 101.6 126.25 101.3C126.25 96.6001 120.85 84.5001 114.35 76.1001C114.15 74.1001 112.85 72.6001 112.05 71.8001C111.95 71.7001 111.85 71.6001 111.75 71.5001C104.55 61.9001 99.1503 57.5001 93.2503 56.1001C92.9503 56.0001 92.6502 56.0001 92.3502 55.9001C91.9502 46.9001 90.0503 38.7001 86.5503 31.6001C81.8503 22.3001 74.7502 15.3001 65.2502 10.9001C63.0502 9.80009 60.7502 9.10009 58.6502 8.40009C57.6502 8.10009 56.7502 7.80009 55.8502 7.50009C55.7502 6.50009 55.4502 4.50008 53.6502 4.30008C53.4502 2.90008 52.5502 1.90008 51.3502 1.30008C51.2502 1.30008 48.9502 0.100098 45.9502 0.100098C44.1502 0.100098 42.4502 0.500079 40.9502 1.30008C40.3503 1.60008 39.8502 1.90009 39.3502 2.40009C39.0502 2.70009 38.6502 2.9001 38.4502 3.2001L38.3502 3.1001H36.1502L35.7502 3.2001C34.9502 3.3001 34.1502 3.60009 33.3502 4.00009C31.8502 4.70009 30.5502 5.9001 29.7502 7.2001C29.5502 7.2001 29.4502 7.2001 29.2502 7.2001H28.6502L27.6502 7.80008C25.3502 9.20008 23.9502 11.4001 23.8502 13.8001C23.7502 14.7001 23.9502 15.7001 24.2502 16.6001C23.8502 18.0001 23.9502 19.5001 24.6502 20.8001C24.5502 21.0001 24.3502 21.1001 24.2502 21.3001C24.1502 21.4001 24.0503 21.5001 24.0503 21.6001V21.7001C23.9503 21.9001 23.8502 22.0001 23.7502 22.2001C23.6502 22.3001 23.5503 22.5001 23.4503 22.6001C23.4503 22.6001 23.3502 22.8001 23.2502 22.9001L23.1502 23.0001C23.1502 23.1001 23.0503 23.2001 23.0503 23.2001C22.4503 24.2001 21.9503 25.3001 21.4503 26.4001C19.9503 27.0001 17.6502 28.1001 17.7502 30.9001C17.8502 33.4001 19.5503 34.0001 19.4503 34.9001C18.9503 41.7001 20.7503 49.1001 24.9503 57.5001C25.0503 57.7001 25.1502 57.9001 25.2502 58.1001C25.3502 58.3001 25.5502 58.6001 25.6502 58.8001C25.6502 59.1001 25.5502 59.4001 25.6502 59.8001C23.0502 61.3001 20.4502 63.5001 17.6502 66.6001C15.9502 68.5001 14.1502 70.7001 12.1502 73.2001C12.0502 73.3001 11.9502 73.4001 11.8502 73.5001C11.2502 74.2001 9.75026 75.9001 9.55026 77.8001C6.25026 82.5001 4.05025 88.3001 2.95025 91.5001C2.05025 94.0001 1.45026 96.3001 1.05026 98.3001C0.350256 101.7 0.45025 103.1 0.45025 103.6C1.05025 109.6 6.05026 113.1 11.5503 115.7C10.3503 120.6 8.35025 129.3 8.45025 131.2C8.45025 131.5 8.45026 131.7 8.55026 132C8.55026 132.1 8.55026 132.1 8.55026 132.2C8.55026 132.4 8.65023 132.6 8.65023 132.8C8.65023 132.9 8.65024 132.9 8.75024 133C8.85024 133.2 8.85025 133.4 8.95025 133.5V133.6C9.05025 133.8 9.15024 134 9.25024 134.2L9.35024 134.3C9.45024 134.4 9.55023 134.6 9.65023 134.7L9.75024 134.8C9.85024 134.9 9.95026 135.1 10.0503 135.2L10.1502 135.3C10.2502 135.5 10.4503 135.6 10.5503 135.8C10.6503 135.9 10.7502 136.1 10.9502 136.2L11.0503 136.3C11.1503 136.4 11.3502 136.5 11.4502 136.6L11.5503 136.7C11.8503 137 12.1503 137.2 12.5503 137.5L12.6502 137.6C12.7502 137.7 12.9502 137.8 13.1502 137.9H13.2502C13.6502 138.1 14.0503 138.4 14.4502 138.6L14.5503 138.7C16.8503 139.9 19.5502 140.7 22.3502 141L28.0503 141.5C27.9503 141.6 27.9503 141.6 27.9503 141.7C27.8503 141.8 27.8502 141.9 27.7502 142C27.6502 142.1 27.5503 142.3 27.5503 142.4V142.5C27.1503 142.5 26.7503 142.5 26.5503 142.5C25.8503 142.5 23.5502 142.7 22.2502 145.4C21.9502 146 21.6503 146.6 21.4503 147.2L20.6502 145.4C19.4502 142.9 17.5503 142.5 16.5503 142.5C16.0503 142.5 15.2502 142.5 14.2502 142.5C13.3502 142.5 12.6502 142.5 12.1502 142.5C10.3502 142.5 9.25023 143.3 8.65023 143.9C7.85023 144.8 7.45025 145.9 7.45025 147.1V147.3C7.55025 148.7 7.55026 149.7 7.55026 150.4V150.5C7.65026 153.3 7.65023 155.2 7.65023 156.2C7.65023 157.1 7.65026 158.5 7.55026 160.4C7.45026 162.4 7.45025 163.9 7.45025 165C7.45025 166 7.75024 166.9 8.25024 167.6C8.65024 168.2 9.75025 169.5 11.9502 169.5H16.3502C17.1502 169.5 17.8503 169.3 18.4503 169C19.1503 169.4 20.0502 169.8 21.3502 169.8C21.9502 169.8 22.2502 169.8 22.6502 169.7H22.7502H22.8502C23.3502 169.6 23.7502 169.4 24.1502 169.1C24.7502 169.4 25.4502 169.6 26.1502 169.6H30.8502C31.4502 169.6 31.9502 169.5 32.4502 169.3C32.9502 169.5 33.5503 169.6 34.0503 169.6C34.7503 169.6 35.7503 169.6 37.0503 169.6C38.4503 169.6 39.4502 169.6 40.1502 169.6C44.2502 169.6 45.1502 169.7 45.2502 169.7C45.6502 169.8 45.9502 169.8 46.2502 169.8C46.9502 169.8 47.5502 169.7 48.1502 169.4C48.5502 169.5 49.0503 169.6 49.5503 169.6H54.1502C55.9502 169.6 57.4502 168.6 58.1502 167.1C58.2502 167.2 58.3503 167.4 58.4502 167.5C59.7502 169.2 61.2502 169.6 62.3502 169.6C62.3502 169.6 62.5503 169.6 63.0503 169.6C63.6503 169.6 64.0502 169.7 64.4502 169.7C64.6502 169.7 65.0503 169.7 65.5503 169.7C65.9503 169.7 66.1502 169.7 66.3502 169.7C67.7502 169.7 68.8502 169.1 69.7502 168.2C70.4502 168.9 71.3502 169.4 72.3502 169.6H72.4502C73.1502 169.7 74.0502 169.8 75.4502 169.8C76.6502 169.8 77.5502 169.8 78.3502 169.7C78.8502 169.6 79.5502 169.5 80.3502 169.1C81.6502 168.3 82.3502 167 82.4502 165.4C82.6502 165.6 82.8503 165.8 83.0503 166C85.6503 168.7 89.0502 170.2 92.8502 170.2C95.8502 170.2 98.6502 169.3 100.95 167.6C101.55 168.6 102.65 169.3 103.85 169.6C104.35 169.7 105.05 169.8 106.95 169.8C108.15 169.8 109.05 169.8 109.65 169.7L110.55 169.6L111.05 169.4C111.45 169.3 111.85 169.1 112.25 168.8C112.35 168.9 112.45 168.9 112.55 169C113.25 169.4 113.95 169.5 114.35 169.6C114.75 169.7 115.45 169.7 117.25 169.7C119.25 169.7 119.95 169.6 120.45 169.6C123.05 169.2 124.25 167.1 124.25 165.4C124.25 164.4 124.05 163.7 122.25 159.9C122.15 159.7 122.05 159.4 121.95 159.2C122.35 158.7 122.75 158.1 123.05 157.5C123.75 156.1 124.05 154.5 124.05 152.6C124.05 149.3 122.65 146.6 120.15 144.8C119.55 144.4 118.95 144 118.25 143.7L119.55 143.2C120.25 142.9 121.05 142.6 121.65 142.2C121.65 142.2 122.55 141.7 122.75 141.5C128.45 137.8 129.85 133.7 129.75 130.3ZM112.35 142.6C111.35 142.6 110.05 142.6 108.35 142.7C107.55 142.7 106.95 142.7 106.45 142.7C106.55 142.5 106.65 142.4 106.75 142.2C107.35 141 107.55 139.7 107.25 138.4L113.55 138.5C113.55 138.7 113.55 138.8 113.55 139L113.35 142.6C112.95 142.6 112.65 142.6 112.35 142.6Z" fill="white"/>
</g>
<mask id="mask2_131153_442852" style="mask-type:alpha" maskUnits="userSpaceOnUse" x="0" y="0" width="130" height="171">
<path d="M129.75 0H0.25V170.1H129.75V0Z" fill="white"/>
</mask>
<g mask="url(#mask2_131153_442852)">
<path d="M30.6502 165C30.6502 165.3 30.5502 165.4 30.2502 165.4H25.5502C25.2502 165.4 25.1502 165.2 25.1502 164.9C25.1502 164 25.1502 162.7 25.2502 160.9C25.3502 159.1 25.3502 157.8 25.3502 156.9C25.3502 156.6 25.3502 156.5 25.2502 156.5C25.1502 156.6 24.5502 157.9 23.4502 160.6C22.8502 162.2 22.1502 163.8 21.5502 165.3C21.4502 165.5 21.3502 165.6 21.2502 165.7C21.2502 165.7 21.0502 165.7 20.7502 165.7C20.2502 165.7 20.0502 165.6 19.9502 165.4C19.4502 164.4 18.8502 163 18.0502 161.1C17.2502 159.1 16.5502 157.7 16.1502 156.8L16.0502 156.7C15.9502 156.8 15.9502 156.9 15.9502 157.1C15.9502 158 15.9502 159.3 16.0502 161C16.0502 162.7 16.1502 164 16.1502 164.9C16.1502 165.2 16.0502 165.4 15.7502 165.4H11.3502C11.1502 165.4 11.0502 165.4 11.0502 165.3C11.0502 165.2 10.9502 165.1 10.9502 165C10.9502 164 10.9502 162.6 11.0502 160.6C11.1502 158.7 11.1502 157.2 11.1502 156.2C11.1502 155.2 11.1502 153.2 11.0502 150.4C11.0502 149.7 11.0502 148.6 10.9502 147.1V146.9C10.9502 146.7 11.1502 146.6 11.5502 146.6C12.0502 146.6 12.7502 146.6 13.7502 146.6C14.7502 146.6 15.4502 146.6 15.9502 146.6C16.0502 146.6 16.1502 146.8 16.3502 147.2L20.2502 155.7C20.5502 156.3 20.7502 156.6 20.9502 156.6C21.0502 156.6 21.2502 156.3 21.5502 155.6C22.4502 153.7 23.7502 150.9 25.5502 147.2C25.7502 146.9 25.8502 146.7 26.0502 146.7C26.3502 146.7 26.6502 146.7 27.2502 146.7C27.7502 146.7 28.1502 146.7 28.4502 146.7C28.6502 146.7 29.0502 146.7 29.4502 146.6C29.9502 146.6 30.2502 146.5 30.4502 146.5C30.7502 146.5 30.8502 146.6 30.8502 146.8C30.8502 147.8 30.8502 149.4 30.7502 151.5C30.6502 153.6 30.6502 155.1 30.6502 156.2C30.6502 157.2 30.6502 158.6 30.7502 160.5C30.5502 162.6 30.6502 164.1 30.6502 165Z" fill="#6093C0"/>
</g>
<mask id="mask3_131153_442852" style="mask-type:alpha" maskUnits="userSpaceOnUse" x="0" y="0" width="130" height="171">
<path d="M129.75 0H0.25V170.1H129.75V0Z" fill="white"/>
</mask>
<g mask="url(#mask3_131153_442852)">
<path d="M46.75 161.3C46.75 161.7 46.65 162.4 46.55 163.4C46.35 164.5 46.25 165.2 46.15 165.4C46.05 165.6 45.85 165.7 45.75 165.7C45.65 165.7 45.55 165.7 45.35 165.7C44.75 165.6 42.85 165.6 39.65 165.6C38.95 165.6 37.95 165.6 36.65 165.6C35.35 165.6 34.25 165.6 33.65 165.6C33.35 165.6 33.25 165.5 33.25 165.2C33.25 164.2 33.35 162.7 33.45 160.7C33.55 158.7 33.65 157.2 33.65 156.2C33.65 155.2 33.55 153.3 33.45 150.6C33.45 149.9 33.35 148.8 33.35 147.4V147.2C33.35 147 33.45 146.9 33.65 146.9C34.35 146.9 35.25 146.9 36.65 147C37.95 147 38.95 147.1 39.65 147.1C40.25 147.1 41.25 147.1 42.55 147C43.85 147 44.85 146.9 45.45 146.9C45.95 146.9 46.15 147.1 46.25 147.4C46.25 147.6 46.35 148.2 46.45 149.3C46.55 150.3 46.55 151 46.55 151.2C46.55 151.4 46.45 151.5 46.25 151.5C46.15 151.5 46.15 151.5 45.95 151.5C43.55 151.3 41.45 151.2 39.55 151.2C39.05 151.2 38.75 151.3 38.65 151.5C38.65 151.6 38.55 151.9 38.55 152.5C38.55 153.1 38.65 153.5 38.85 153.7C39.05 153.9 39.25 154 39.75 154C39.85 154 40.05 154 40.25 154C40.55 154 40.75 154 40.85 154C41.95 154 43.05 154 44.25 153.9C44.35 153.9 44.55 153.9 44.95 153.8C45.25 153.8 45.45 153.7 45.65 153.7C45.85 153.7 45.95 153.8 45.95 154C45.95 153.8 45.85 154.5 45.75 156C45.65 156.7 45.65 157.4 45.65 158.1C45.65 158.3 45.55 158.4 45.25 158.4L44.05 158.3C43.55 158.2 42.35 158.2 40.55 158.2H39.15C38.75 158.2 38.55 158.3 38.55 158.5C38.55 158.5 38.55 158.8 38.55 159.3C38.55 160 38.55 160.4 38.65 160.6C38.85 160.9 39.35 161.1 40.35 161.2H42.25C42.75 161.2 43.45 161.2 44.35 161.1C45.25 161 45.95 161 46.45 161C46.65 160.8 46.75 161 46.75 161.3Z" fill="#6093C0"/>
</g>
<mask id="mask4_131153_442852" style="mask-type:alpha" maskUnits="userSpaceOnUse" x="0" y="0" width="130" height="171">
<path d="M129.75 0H0.25V170.1H129.75V0Z" fill="white"/>
</mask>
<g mask="url(#mask4_131153_442852)">
<path d="M66.2502 147.2C66.2502 148.2 66.2502 149.7 66.1502 151.8C66.0502 153.8 66.0502 155.3 66.0502 156.4V165.2C66.0502 165.4 65.9502 165.6 65.6502 165.6C65.4502 165.6 65.1502 165.6 64.6502 165.6C64.2502 165.6 63.8502 165.6 63.6502 165.6C63.4502 165.6 63.0502 165.6 62.6502 165.5C62.1502 165.5 61.8502 165.4 61.6502 165.4C61.4502 165.4 61.3502 165.3 61.0502 165C60.4502 164.1 58.9502 162.2 56.7502 159.3C56.1502 158.5 55.2502 157.3 53.9502 155.7C53.9502 155.6 53.8502 155.6 53.7502 155.5C53.6502 155.6 53.6502 155.7 53.6502 155.8C53.6502 156.8 53.6502 158.4 53.7502 160.4C53.8502 162.5 53.8502 164 53.8502 165C53.8502 165.3 53.7502 165.5 53.4502 165.5H48.8502C48.5502 165.5 48.4502 165.4 48.4502 165.1C48.4502 164.1 48.4502 162.7 48.5502 160.8C48.6502 158.9 48.6502 157.4 48.6502 156.5C48.6502 155.5 48.6502 154 48.5502 151.9C48.4502 149.9 48.4502 148.4 48.4502 147.3C48.4502 147.1 48.6502 147 48.9502 147C49.4502 147 50.0502 147 50.8502 146.9C51.0502 146.9 51.3502 146.8 51.9502 146.7C52.3502 146.6 52.7502 146.6 53.0502 146.6C53.1502 146.6 53.3502 146.8 53.5502 147.1L58.5502 153.9C58.9502 154.5 59.6502 155.4 60.5502 156.6C60.7502 156.9 60.9502 157 61.1502 157C61.2502 157 61.3502 156.7 61.3502 156C61.3502 155.1 61.2502 153.7 61.1502 151.8C61.0502 149.9 60.9502 148.5 60.9502 147.6C60.9502 147.3 61.0502 147.1 61.2502 147.1C61.7502 147.1 62.5502 147.1 63.6502 147C64.7502 147 65.5502 146.9 66.0502 146.9C66.1502 146.8 66.2502 146.9 66.2502 147.2Z" fill="#6093C0"/>
</g>
<mask id="mask5_131153_442852" style="mask-type:alpha" maskUnits="userSpaceOnUse" x="0" y="0" width="130" height="171">
<path d="M129.75 0H0.25V170.1H129.75V0Z" fill="white"/>
</mask>
<g mask="url(#mask5_131153_442852)">
<path d="M81.6498 150.9C81.6498 151.1 81.5498 151.2 81.3498 151.2C81.0498 151.2 79.6498 151.1 77.3498 151C77.2498 153.2 77.2498 154.8 77.2498 155.7C77.2498 156.7 77.2498 158.3 77.3498 160.4C77.4498 162.5 77.4498 164.1 77.4498 165.1C77.4498 165.3 77.4498 165.4 77.3498 165.4C77.3498 165.4 77.1498 165.4 76.9498 165.5C76.4498 165.6 75.6498 165.6 74.6498 165.6C73.5498 165.6 72.7498 165.6 72.2498 165.5C72.0498 165.5 71.8498 165.3 71.8498 165.1C71.8498 164.1 71.8498 162.5 71.9498 160.4C72.0498 158.3 72.0498 156.7 72.0498 155.7C72.0498 155 72.0498 153.5 71.9498 151.1C70.1498 151.3 68.7498 151.4 67.7498 151.4C67.6498 151.4 67.5498 151.4 67.5498 151.3C67.5498 151.2 67.6498 150.8 67.7498 150.3C67.8498 149.7 67.9498 149.3 67.9498 149.2C67.9498 148.8 68.0498 148.4 68.0498 148C68.1498 147.3 68.2498 147 68.3498 147C68.3498 147 68.4498 147 68.5498 147C69.9498 147.2 72.1498 147.3 74.9498 147.3C75.7498 147.3 77.2498 147.2 79.3498 147C80.5498 146.9 81.0498 146.9 81.0498 146.9C81.2498 146.9 81.3498 146.9 81.3498 146.9C81.3498 146.9 81.3498 147 81.4498 147.2C81.4498 147.4 81.4498 147.8 81.4498 148.2C81.4498 148.7 81.4498 149 81.4498 149.2C81.4498 149.4 81.4498 149.7 81.5498 150.2C81.6498 150.3 81.6498 150.7 81.6498 150.9Z" fill="#6093C0"/>
</g>
<mask id="mask6_131153_442852" style="mask-type:alpha" maskUnits="userSpaceOnUse" x="0" y="0" width="130" height="171">
<path d="M129.75 0H0.25V170.1H129.75V0Z" fill="white"/>
</mask>
<g mask="url(#mask6_131153_442852)">
<path d="M101.55 156.2C101.55 159 100.65 161.3 98.9499 163.2C97.1499 165.1 94.8499 166 92.1499 166C89.4499 166 87.1499 165 85.3499 163.1C83.5499 161.2 82.6499 158.9 82.6499 156.2C82.6499 153.4 83.5499 151.1 85.3499 149.2C87.1499 147.3 89.4499 146.3 92.1499 146.3C94.8499 146.3 97.1499 147.3 98.9499 149.2C100.65 151.1 101.55 153.4 101.55 156.2ZM96.5499 156.1C96.5499 154.8 96.1499 153.6 95.3499 152.7C94.5499 151.7 93.4499 151.2 92.1499 151.2C90.9499 151.2 89.8499 151.7 88.9499 152.7C88.1499 153.7 87.6499 154.8 87.6499 156.1C87.6499 157.5 88.0499 158.6 88.8499 159.5C89.6499 160.4 90.7499 160.9 92.1499 160.9C93.3499 160.9 94.4499 160.4 95.3499 159.4C96.1499 158.5 96.5499 157.4 96.5499 156.1Z" fill="#6093C0"/>
</g>
<mask id="mask7_131153_442852" style="mask-type:alpha" maskUnits="userSpaceOnUse" x="0" y="0" width="130" height="171">
<path d="M129.75 0H0.25V170.1H129.75V0Z" fill="white"/>
</mask>
<g mask="url(#mask7_131153_442852)">
<path d="M119.45 165.3C119.45 165.4 119.35 165.4 119.15 165.4C118.85 165.5 117.95 165.5 116.65 165.5C115.45 165.5 114.75 165.5 114.25 165.4C114.05 165.4 113.95 165.4 113.95 165.3C113.85 165.3 113.85 165.2 113.75 165C113.65 164.7 113.45 164.1 113.15 163.5C112.85 162.6 112.25 161.3 111.55 159.6C111.35 159.3 111.05 159.1 110.45 159C110.75 159 110.25 159 109.05 159C108.95 159 108.85 159.2 108.85 159.7C108.85 160.3 108.95 161.2 109.05 162.4C109.15 163.6 109.25 164.5 109.25 165.1C109.25 165.3 109.25 165.3 109.15 165.4C109.05 165.4 108.95 165.4 108.75 165.4C108.25 165.4 107.45 165.5 106.35 165.5C105.05 165.5 104.35 165.5 104.05 165.4C103.75 165.3 103.65 165.2 103.65 165C103.65 164 103.65 162.6 103.75 160.6C103.85 158.6 103.85 157.2 103.85 156.2C103.85 152.5 103.75 149.5 103.55 147.4V147.2C103.55 147 103.65 146.9 103.95 146.9C104.25 146.8 105.55 146.8 108.05 146.7C109.65 146.7 110.95 146.6 111.95 146.6C113.95 146.6 115.65 147.1 116.85 148C118.25 149 119.05 150.5 119.05 152.5C119.05 153.8 118.85 154.8 118.45 155.6C118.05 156.4 117.35 157.1 116.35 157.8C116.15 157.9 116.05 158.1 116.05 158.2C116.05 158.2 116.55 159.3 117.65 161.5C118.85 163.9 119.45 165.1 119.45 165.3ZM113.85 153.4C113.85 152.3 113.45 151.6 112.75 151.2C112.25 150.9 111.35 150.7 110.15 150.7C109.35 150.7 108.85 150.8 108.85 151.1C108.75 151.4 108.75 152.3 108.75 153.7C108.75 153.9 108.75 154.2 108.75 154.6C108.75 155 108.75 155.3 108.75 155.5C108.75 155.5 108.85 155.6 109.15 155.6C109.65 155.7 110.25 155.7 110.85 155.7C112.85 155.7 113.85 154.9 113.85 153.4Z" fill="#6093C0"/>
</g>
<mask id="mask8_131153_442852" style="mask-type:alpha" maskUnits="userSpaceOnUse" x="0" y="0" width="130" height="171">
<path d="M129.75 0H0.25V170.1H129.75V0Z" fill="white"/>
</mask>
<g mask="url(#mask8_131153_442852)">
<path d="M117.25 139.3C117.35 137.8 117.25 136.2 117.15 134.5C112.75 131.6 107.75 131.2 103.45 133C102.65 133.3 101.95 133.7 101.25 134.2C102.05 136.8 102.65 138.5 102.85 139C103.95 142.1 95.6499 144.7 86.2499 142.1C80.4499 128.6 66.1499 74.1999 66.1499 74.1999L88.1499 59.8999C103.55 81.8999 124.65 127.1 125.35 129.7C125.75 132.3 122.65 137.2 117.25 139.3Z" fill="#CF4A43"/>
</g>
<mask id="mask9_131153_442852" style="mask-type:alpha" maskUnits="userSpaceOnUse" x="0" y="0" width="130" height="171">
<path d="M129.75 0H0.25V170.1H129.75V0Z" fill="white"/>
</mask>
<g mask="url(#mask9_131153_442852)">
<path d="M81.8498 139.5C75.8498 136.8 64.2498 134.4 57.1498 136.9C55.7498 131.4 45.1498 102 39.0498 74.3999L58.6498 74.6999C58.6498 74.7999 76.3498 126.1 81.8498 139.5Z" fill="#CF4A43"/>
</g>
<mask id="mask10_131153_442852" style="mask-type:alpha" maskUnits="userSpaceOnUse" x="0" y="0" width="130" height="171">
<path d="M129.75 0H0.25V170.1H129.75V0Z" fill="white"/>
</mask>
<g mask="url(#mask10_131153_442852)">
<path d="M22.0501 136.9C21.5501 135.8 21.2501 134.5 20.9501 133.1C24.4501 129.9 29.15 128.6 33.85 129.1C34.65 129.2 35.55 129.3 36.35 129.6C36.15 131.8 36.0501 133.2 36.0501 133.7C35.8501 136.4 44.4501 136.7 52.9501 132.7C55.0501 120.9 55.0501 75.2 55.0501 75.2L30.0501 68.5C20.7501 89 11.8501 128.9 11.9501 131.1C12.0501 133.2 16.3501 136.4 22.0501 136.9Z" fill="#CF4A43"/>
</g>
<mask id="mask11_131153_442852" style="mask-type:alpha" maskUnits="userSpaceOnUse" x="0" y="0" width="130" height="171">
<path d="M129.75 0H0.25V170.1H129.75V0Z" fill="white"/>
</mask>
<g mask="url(#mask11_131153_442852)">
<g opacity="0.23">
<mask id="mask12_131153_442852" style="mask-type:alpha" maskUnits="userSpaceOnUse" x="79" y="63" width="39" height="72">
<path d="M117.15 63.2H79.75V134.6H117.15V63.2Z" fill="white"/>
</mask>
<g mask="url(#mask12_131153_442852)">
<path d="M110.35 132.1C111.85 129.8 110.95 124.9 109.95 119.9C108.75 113.8 105.35 107.1 101.15 109.2C95.75 111.9 100.75 124.4 104.45 132.9C104.05 133.1 103.55 133.2 103.15 133.4H103.05C102.45 133.7 101.75 134 101.15 134.4C97.15 122.2 86.95 90.4998 80.95 69.7998L79.75 65.4998L83.15 63.2998L86.85 68.6998C104.55 98.0998 115.45 120.5 117.05 134.7C114.85 133.2 112.65 132.3 110.35 132.1Z" fill="#3A2A1F"/>
</g>
</g>
</g>
<mask id="mask13_131153_442852" style="mask-type:alpha" maskUnits="userSpaceOnUse" x="0" y="0" width="130" height="171">
<path d="M129.75 0H0.25V170.1H129.75V0Z" fill="white"/>
</mask>
<g mask="url(#mask13_131153_442852)">
<g opacity="0.23">
<mask id="mask14_131153_442852" style="mask-type:alpha" maskUnits="userSpaceOnUse" x="39" y="74" width="43" height="66">
<path d="M81.7498 74.3999H39.0498V139.4H81.7498V74.3999Z" fill="white"/>
</mask>
<g mask="url(#mask14_131153_442852)">
<path d="M81.8498 139.5C75.8498 136.8 64.2498 134.4 57.1498 136.9C55.7498 131.4 45.1498 102 39.0498 74.3999L58.6498 74.6999C58.6498 74.7999 76.3498 126.1 81.8498 139.5Z" fill="#3A2A1F"/>
</g>
</g>
</g>
<mask id="mask15_131153_442852" style="mask-type:alpha" maskUnits="userSpaceOnUse" x="0" y="0" width="130" height="171">
<path d="M129.75 0H0.25V170.1H129.75V0Z" fill="white"/>
</mask>
<g mask="url(#mask15_131153_442852)">
<g opacity="0.23">
<mask id="mask16_131153_442852" style="mask-type:alpha" maskUnits="userSpaceOnUse" x="85" y="60" width="41" height="78">
<path d="M125.25 60H85.8501V137.3H125.25V60Z" fill="white"/>
</mask>
<g mask="url(#mask16_131153_442852)">
<path d="M120.95 137.3C125.45 130.9 120.45 123.3 113.65 109.6C107.65 97.4 97.3502 79.4 85.9502 61.4L88.0502 60C103.45 82 124.55 127.2 125.25 129.8C125.65 131.8 123.95 135 120.95 137.3Z" fill="#3A2A1F"/>
</g>
</g>
</g>
<mask id="mask17_131153_442852" style="mask-type:alpha" maskUnits="userSpaceOnUse" x="0" y="0" width="130" height="171">
<path d="M129.75 0H0.25V170.1H129.75V0Z" fill="white"/>
</mask>
<g mask="url(#mask17_131153_442852)">
<g opacity="0.23">
<mask id="mask18_131153_442852" style="mask-type:alpha" maskUnits="userSpaceOnUse" x="12" y="68" width="20" height="68">
<path d="M31.1498 68.5H12.0498V135.6H31.1498V68.5Z" fill="white"/>
</mask>
<g mask="url(#mask18_131153_442852)">
<path d="M17.75 114.2C16.25 122.8 12.85 132.2 16.75 135.6C13.85 134.3 12.05 132.5 11.95 131C11.85 128.8 20.8501 88.8999 30.0501 68.3999L31.0501 68.6999C25.4501 84.6999 19.15 106.1 17.75 114.2Z" fill="#3A2A1F"/>
</g>
</g>
</g>
<mask id="mask19_131153_442852" style="mask-type:alpha" maskUnits="userSpaceOnUse" x="0" y="0" width="130" height="171">
<path d="M129.75 0H0.25V170.1H129.75V0Z" fill="white"/>
</mask>
<g mask="url(#mask19_131153_442852)">
<g opacity="0.23">
<mask id="mask20_131153_442852" style="mask-type:alpha" maskUnits="userSpaceOnUse" x="20" y="70" width="18" height="64">
<path d="M37.8499 70.1001H20.6499V133.4H37.8499V70.1001Z" fill="white"/>
</mask>
<g mask="url(#mask20_131153_442852)">
<path d="M26.1498 130.3C24.2498 131 22.5498 132 20.9498 133.5C18.9498 122.5 26.0498 95.8002 35.0498 70.2002L37.8498 70.9002C33.5498 87.5002 21.7498 113.7 26.1498 130.3Z" fill="#3A2A1F"/>
</g>
</g>
</g>
<mask id="mask21_131153_442852" style="mask-type:alpha" maskUnits="userSpaceOnUse" x="0" y="0" width="130" height="171">
<path d="M129.75 0H0.25V170.1H129.75V0Z" fill="white"/>
</mask>
<g mask="url(#mask21_131153_442852)">
<g opacity="0.23">
<mask id="mask22_131153_442852" style="mask-type:alpha" maskUnits="userSpaceOnUse" x="31" y="74" width="9" height="56">
<path d="M39.4502 74.6001H31.4502V129.6H39.4502V74.6001Z" fill="white"/>
</mask>
<g mask="url(#mask22_131153_442852)">
<path d="M39.3501 74.6001C38.9501 92.1001 37.1501 119.1 36.3501 129.6C35.6501 129.4 34.8501 129.3 34.0501 129.2H33.9501C33.0501 129.1 32.2501 129 31.3501 129C36.4501 112.1 37.6501 87.6001 39.3501 74.6001Z" fill="#3A2A1F"/>
</g>
</g>
</g>
<mask id="mask23_131153_442852" style="mask-type:alpha" maskUnits="userSpaceOnUse" x="0" y="0" width="130" height="171">
<path d="M129.75 0H0.25V170.1H129.75V0Z" fill="white"/>
</mask>
<g mask="url(#mask23_131153_442852)">
<g opacity="0.23">
<mask id="mask24_131153_442852" style="mask-type:alpha" maskUnits="userSpaceOnUse" x="92" y="116" width="8" height="27">
<path d="M99.1502 116.5H92.4502V143H99.1502V116.5Z" fill="white"/>
</mask>
<g mask="url(#mask24_131153_442852)">
<path d="M94.65 129.3C95.15 132.5 97.55 140.3 99.15 142.5C98.55 142.7 97.35 142.9 96.65 143C96.65 141.5 94.95 138.5 94.55 136.4C94.05 134.3 92.15 128.5 92.55 124.1C92.95 119.7 93.35 117.5 94.45 116.4C94.75 116.5 95.15 116.4 95.35 116.5C94.25 120.9 94.25 126.2 94.65 129.3Z" fill="#3A2A1F"/>
</g>
</g>
</g>
<mask id="mask25_131153_442852" style="mask-type:alpha" maskUnits="userSpaceOnUse" x="0" y="0" width="130" height="171">
<path d="M129.75 0H0.25V170.1H129.75V0Z" fill="white"/>
</mask>
<g mask="url(#mask25_131153_442852)">
<path d="M101.15 134.2C106.05 131 111.85 130.9 117.15 134.4" stroke="#292318" stroke-width="1.106" stroke-miterlimit="10" stroke-linecap="round" stroke-linejoin="round"/>
</g>
<mask id="mask26_131153_442852" style="mask-type:alpha" maskUnits="userSpaceOnUse" x="0" y="0" width="130" height="171">
<path d="M129.75 0H0.25V170.1H129.75V0Z" fill="white"/>
</mask>
<g mask="url(#mask26_131153_442852)">
<path d="M117.15 134.5C115.55 120.3 104.65 97.7999 86.9502 68.3999" stroke="#292318" stroke-width="1.106" stroke-miterlimit="10" stroke-linecap="round" stroke-linejoin="round"/>
</g>
<mask id="mask27_131153_442852" style="mask-type:alpha" maskUnits="userSpaceOnUse" x="0" y="0" width="130" height="171">
<path d="M129.75 0H0.25V170.1H129.75V0Z" fill="white"/>
</mask>
<g mask="url(#mask27_131153_442852)">
<path d="M80.9502 69.5C86.8502 90.2 97.1502 121.9 101.15 134.1" stroke="#292318" stroke-width="1.106" stroke-miterlimit="10" stroke-linecap="round" stroke-linejoin="round"/>
</g>
<mask id="mask28_131153_442852" style="mask-type:alpha" maskUnits="userSpaceOnUse" x="0" y="0" width="130" height="171">
<path d="M129.75 0H0.25V170.1H129.75V0Z" fill="white"/>
</mask>
<g mask="url(#mask28_131153_442852)">
<path d="M39.0498 74.3999C45.1498 101.9 55.7498 131.3 57.1498 136.9C63.4498 134.4 75.7498 136.8 81.8498 139.5C76.3498 126.2 58.7498 74.7999 58.7498 74.7999L39.0498 74.3999Z" stroke="#292318" stroke-width="1.106" stroke-miterlimit="10" stroke-linecap="round" stroke-linejoin="round"/>
</g>
<mask id="mask29_131153_442852" style="mask-type:alpha" maskUnits="userSpaceOnUse" x="0" y="0" width="130" height="171">
<path d="M129.75 0H0.25V170.1H129.75V0Z" fill="white"/>
</mask>
<g mask="url(#mask29_131153_442852)">
<path d="M117.15 134.5C115.55 120.3 104.65 97.7999 86.9502 68.3999" stroke="#292318" stroke-width="1.106" stroke-miterlimit="10" stroke-linecap="round" stroke-linejoin="round"/>
</g>
<mask id="mask30_131153_442852" style="mask-type:alpha" maskUnits="userSpaceOnUse" x="0" y="0" width="130" height="171">
<path d="M129.75 0H0.25V170.1H129.75V0Z" fill="white"/>
</mask>
<g mask="url(#mask30_131153_442852)">
<path d="M80.9502 69.5C86.8502 90.2 97.1502 121.9 101.15 134.1" stroke="#292318" stroke-width="1.106" stroke-miterlimit="10" stroke-linecap="round" stroke-linejoin="round"/>
</g>
<mask id="mask31_131153_442852" style="mask-type:alpha" maskUnits="userSpaceOnUse" x="0" y="0" width="130" height="171">
<path d="M129.75 0H0.25V170.1H129.75V0Z" fill="white"/>
</mask>
<g mask="url(#mask31_131153_442852)">
<path d="M117.25 139.3C117.35 137.8 117.25 136.2 117.15 134.5C112.75 131.6 107.75 131.2 103.45 133C102.65 133.3 101.95 133.7 101.25 134.2C102.05 136.8 102.65 138.5 102.85 139C103.95 142.1 95.6499 144.7 86.2499 142.1C80.4499 128.6 66.1499 74.1999 66.1499 74.1999L88.1499 59.8999C103.55 81.8999 124.65 127.1 125.35 129.7C125.75 132.3 122.65 137.2 117.25 139.3Z" stroke="#292318" stroke-width="1.106" stroke-miterlimit="10" stroke-linecap="round" stroke-linejoin="round"/>
</g>
<mask id="mask32_131153_442852" style="mask-type:alpha" maskUnits="userSpaceOnUse" x="0" y="0" width="130" height="171">
<path d="M129.75 0H0.25V170.1H129.75V0Z" fill="white"/>
</mask>
<g mask="url(#mask32_131153_442852)">
<path d="M36.3502 129.6C30.7502 128.1 25.1502 129.2 20.9502 133.1" stroke="#292318" stroke-width="1.106" stroke-miterlimit="10" stroke-linecap="round" stroke-linejoin="round"/>
</g>
<mask id="mask33_131153_442852" style="mask-type:alpha" maskUnits="userSpaceOnUse" x="0" y="0" width="130" height="171">
<path d="M129.75 0H0.25V170.1H129.75V0Z" fill="white"/>
</mask>
<g mask="url(#mask33_131153_442852)">
<path d="M36.3501 129.6C37.1501 119.2 38.9501 92.1001 39.3501 74.6001" stroke="#292318" stroke-width="1.106" stroke-miterlimit="10" stroke-linecap="round" stroke-linejoin="round"/>
</g>
<mask id="mask34_131153_442852" style="mask-type:alpha" maskUnits="userSpaceOnUse" x="0" y="0" width="130" height="171">
<path d="M129.75 0H0.25V170.1H129.75V0Z" fill="white"/>
</mask>
<g mask="url(#mask34_131153_442852)">
<path d="M21.0499 133.1C19.0499 122.1 26.1498 95.4 35.1498 69.8" stroke="#292318" stroke-width="1.106" stroke-miterlimit="10" stroke-linecap="round" stroke-linejoin="round"/>
</g>
<mask id="mask35_131153_442852" style="mask-type:alpha" maskUnits="userSpaceOnUse" x="0" y="0" width="130" height="171">
<path d="M129.75 0H0.25V170.1H129.75V0Z" fill="white"/>
</mask>
<g mask="url(#mask35_131153_442852)">
<path d="M36.3501 129.6C37.1501 119.2 38.9501 92.1001 39.3501 74.6001" stroke="#292318" stroke-width="1.106" stroke-miterlimit="10" stroke-linecap="round" stroke-linejoin="round"/>
</g>
<mask id="mask36_131153_442852" style="mask-type:alpha" maskUnits="userSpaceOnUse" x="0" y="0" width="130" height="171">
<path d="M129.75 0H0.25V170.1H129.75V0Z" fill="white"/>
</mask>
<g mask="url(#mask36_131153_442852)">
<path d="M22.0501 136.9C21.5501 135.8 21.2501 134.5 20.9501 133.1C24.4501 129.9 29.15 128.6 33.85 129.1C34.65 129.2 35.55 129.3 36.35 129.6C36.15 131.8 36.0501 133.2 36.0501 133.7C35.8501 136.4 44.4501 136.7 52.9501 132.7C55.0501 120.9 55.0501 75.2 55.0501 75.2L30.0501 68.5C20.7501 89 11.8501 128.9 11.9501 131.1C12.0501 133.2 16.3501 136.4 22.0501 136.9Z" stroke="#292318" stroke-width="1.106" stroke-miterlimit="10" stroke-linecap="round" stroke-linejoin="round"/>
</g>
<mask id="mask37_131153_442852" style="mask-type:alpha" maskUnits="userSpaceOnUse" x="0" y="0" width="130" height="171">
<path d="M129.75 0H0.25V170.1H129.75V0Z" fill="white"/>
</mask>
<g mask="url(#mask37_131153_442852)">
<path d="M109.55 77.3999C110.45 76.5999 108.55 74.8999 107.95 74.0999C99.65 63.0999 94.25 59.3999 87.95 59.7999C88.15 41.2999 81.4501 23.1999 63.0501 14.6999C60.0501 13.2999 56.9501 12.4999 53.7501 11.2999C53.1501 11.0999 51.9501 10.7999 51.4501 10.0999C50.9501 9.39991 51.2501 8.2999 51.2501 8.3999C48.5501 8.8999 49.7501 11.1999 49.7501 11.1999C49.7501 11.1999 49.2501 11.1999 48.9501 11.0999C47.8501 10.8999 46.6501 9.89992 46.7501 8.19992C46.8501 5.99992 49.2501 5.0999 48.9501 4.8999C48.8501 4.8999 44.6501 2.8999 41.3501 5.4999C39.5501 6.8999 38.7501 8.7999 39.3501 11.3999C35.3501 10.6999 35.9501 7.19992 35.8501 7.19992C32.2501 7.79992 30.9501 11.9999 33.4501 13.6999C33.4501 14.0999 31.7501 13.9999 30.5501 13.1999C29.6501 12.5999 29.3501 11.1999 29.2501 11.2999C25.9501 13.3999 27.4501 16.9999 30.4501 17.2999C30.6501 17.2999 31.1501 17.2999 31.0501 17.5999C31.0501 17.6999 30.3501 18.1999 29.2501 18.1999C28.1501 18.1999 27.6501 17.5999 27.6501 17.7999C27.1501 19.2999 29.6501 20.6999 30.6501 20.1999C28.6501 21.4999 27.2501 23.0999 26.0501 25.3999C20.3501 35.2999 23.4501 46.3999 28.1501 55.7999C28.5501 56.5999 29.1501 57.5999 29.2501 58.4999C29.3501 58.9999 29.0501 59.6999 29.2501 60.1999C29.3501 60.3999 29.7501 59.6999 29.7501 59.8999C29.8501 60.5999 29.7501 61.4999 29.7501 62.1999C25.4501 63.7999 20.7501 68.0999 14.8501 75.7999C14.2501 76.5999 12.3501 78.2999 13.2501 79.0999C7.35006 86.4999 3.65008 100.2 3.95008 103.3C4.35008 106.9 7.15008 109.8 15.0501 113.1C22.5501 116.3 28.3501 117.2 33.0501 117.5C34.7501 120.1 36.9501 122.7 39.8501 125.5C40.0501 125.7 40.2501 125.9 40.4501 126.1C39.5501 129.1 41.7501 135.5 44.0501 137.7C38.6501 137.5 32.2501 142.5 31.8501 142.9C29.9501 144.6 30.5501 144.7 31.8501 144.7C33.1501 144.7 43.4501 144.2 48.9501 144.1C51.1501 144.1 53.8501 143.9 56.0501 143.9C57.3501 143.9 63.7501 143.8 62.7501 141.5C61.5501 138.8 60.2501 135 60.0501 132.9C63.5501 133.1 67.0501 132.9 70.1501 132.2C71.0501 134.9 72.9501 137.1 75.5501 138C67.9501 139.3 65.0501 142 63.2501 144.2C63.0501 144.7 68.8501 144.9 75.3501 145.1C82.8501 145.4 92.0501 145.8 95.0501 145.1C98.1501 144.4 95.55 139.8 94.95 138C92.95 131.8 90.95 123.2 93.95 117C95.25 116.7 96.7501 116.4 98.7501 116.2C102.55 115.9 106.85 115.2 110.65 113.6C118.55 110.3 121.25 105.5 121.55 101.9C122.05 98.5999 116.55 85.6999 109.55 77.3999ZM21.6501 103.7C21.6501 102.7 24.9501 102 27.1501 100.2C27.4501 103.2 27.9501 106.3 29.1501 109.5C28.0501 108.9 21.6501 104.7 21.6501 103.7ZM95.95 108.2C96.35 105.2 96.5501 102 96.5501 99.1999C98.8501 100.7 102.35 102 102.15 102.9C101.95 104.1 99.85 106.3 95.95 108.2Z" fill="#BDA47C"/>
</g>
<mask id="mask38_131153_442852" style="mask-type:alpha" maskUnits="userSpaceOnUse" x="0" y="0" width="130" height="171">
<path d="M129.75 0H0.25V170.1H129.75V0Z" fill="white"/>
</mask>
<g mask="url(#mask38_131153_442852)">
<path d="M83.8502 145.3C82.7502 145.3 81.6502 145.2 80.5502 145.2C80.0502 145.2 79.5502 145.2 79.0502 145.1C77.8502 145.1 76.6502 145 75.5502 145C75.3502 145 75.1502 145 75.0502 145C74.9502 145 74.8502 145 74.6502 145C74.0502 145 73.4502 145 72.8502 144.9C72.7502 144.9 72.5502 144.9 72.4502 144.9C71.3502 144.9 70.3502 144.8 69.3502 144.8C69.2502 144.8 69.0502 144.8 68.9502 144.8C68.7502 144.8 68.6502 144.8 68.4502 144.8C68.2502 144.8 68.0502 144.8 67.8502 144.8C67.6502 144.8 67.4502 144.8 67.2502 144.8C67.0502 144.8 66.8502 144.8 66.6502 144.8C66.4502 144.8 66.2502 144.8 66.0502 144.8C65.6502 144.8 65.3502 144.7 65.0502 144.7C64.9502 144.7 64.7502 144.7 64.6502 144.7C64.5502 144.7 64.4502 144.7 64.3502 144.7C64.2502 144.7 64.2502 144.7 64.1502 144.7H64.0502C63.8502 144.7 63.7502 144.6 63.6502 144.6H63.5502C63.5502 144.6 63.5502 144.6 63.4502 144.6C63.4502 144.6 63.4502 144.6 63.4502 144.5C63.7502 144.2 63.9502 143.9 64.2502 143.5C64.3502 143.4 64.4502 143.3 64.5502 143.2C64.6502 143.1 64.7502 143 64.8502 142.9C64.9502 142.8 65.0502 142.7 65.2502 142.6C66.0502 141.9 67.1502 141.1 68.5502 140.5C68.7502 140.4 69.0502 140.3 69.3502 140.2C69.3502 140.2 69.3502 140.2 69.4502 140.2C69.5502 140.1 69.7502 140.1 69.8502 140C70.0502 139.9 70.2502 139.9 70.3502 139.8C70.5502 139.7 70.6502 139.7 70.8502 139.6C70.9502 139.6 71.1502 139.5 71.2502 139.5C71.3502 139.5 71.5502 139.4 71.6502 139.4C71.7502 139.4 71.8502 139.3 71.9502 139.3C72.0502 139.3 72.1502 139.2 72.3502 139.2C72.4502 139.2 72.5502 139.1 72.7502 139.1C73.1502 139 73.5502 138.9 74.0502 138.8C74.2502 138.8 74.4502 138.7 74.7502 138.7C75.0502 138.6 75.4502 138.6 75.8502 138.5C78.8502 139.2 82.2502 141.6 83.8502 145.3Z" fill="#B3AFAC"/>
</g>
<mask id="mask39_131153_442852" style="mask-type:alpha" maskUnits="userSpaceOnUse" x="0" y="0" width="130" height="171">
<path d="M129.75 0H0.25V170.1H129.75V0Z" fill="white"/>
</mask>
<g mask="url(#mask39_131153_442852)">
<path d="M49.8502 144C49.5502 144 49.2502 144 48.9502 144C43.4502 144.1 33.1502 144.6 31.8502 144.6C31.3502 144.6 30.9502 144.6 30.7502 144.4C30.5502 144.2 30.6502 143.9 31.3502 143.3L31.4502 143.2L31.5502 143.1C31.6502 143 31.7502 142.9 31.8502 142.8C32.2502 142.4 38.7502 137.5 44.0502 137.6C46.3502 139.1 48.5502 141.3 49.8502 144Z" fill="#B3AFAC"/>
</g>
<mask id="mask40_131153_442852" style="mask-type:alpha" maskUnits="userSpaceOnUse" x="0" y="0" width="130" height="171">
<path d="M129.75 0H0.25V170.1H129.75V0Z" fill="white"/>
</mask>
<g mask="url(#mask40_131153_442852)">
<path d="M30.1498 68.4001C29.7498 68.7001 29.1498 69.7001 28.9498 70.1001C28.5498 70.9001 29.4498 71.7001 29.3498 72.1001C29.3498 72.6001 28.2498 74.5001 27.2498 76.3001C26.5498 77.7001 25.9498 79.1001 25.6498 80.4001C25.2498 81.8001 25.0498 83.1001 24.9498 84.4001C21.5498 81.4001 17.0498 79.9001 14.1498 79.3001C11.7498 78.8001 14.2498 76.6001 14.9498 75.7001C20.8498 67.9001 25.4498 63.7001 29.8498 62.1001C29.8498 62.2001 29.8498 62.3001 29.8498 62.5001C29.8498 62.8001 29.4498 63.7001 29.6498 63.5001C29.7498 63.4001 29.9498 62.7001 30.2498 62.8001C30.4498 62.8001 30.2498 67.9001 30.1498 68.4001Z" fill="#6093C0"/>
</g>
<mask id="mask41_131153_442852" style="mask-type:alpha" maskUnits="userSpaceOnUse" x="0" y="0" width="130" height="171">
<path d="M129.75 0H0.25V170.1H129.75V0Z" fill="white"/>
</mask>
<g mask="url(#mask41_131153_442852)">
<path d="M108.95 77.7001C98.7501 82.5001 95.8501 88.2001 92.3501 92.3001L92.2501 92.4001C92.8501 94.7001 93.8501 96.8001 95.8501 98.4001C96.0501 98.6001 96.3501 98.8001 96.6501 99.0001C96.7501 101.9 96.5501 104.9 96.1501 108C95.5501 108.3 94.8501 108.6 94.2501 108.8C91.0501 110 87.3501 106.2 82.3501 109C79.7501 110.5 78.6501 113.7 78.5501 114.7C78.4501 115.8 81.8501 112.2 89.1501 116.2C90.9501 117.2 92.3501 117 94.2501 116.6C94.0501 117 93.8501 117.6 93.6501 118C89.6501 122.7 79.8501 125.4 72.3501 126.7C58.9501 129 47.1501 127.9 38.6501 123.7C33.4501 118.3 30.6501 113.3 29.0501 108.6C28.7501 107.7 28.5501 106.8 28.2501 106C27.2501 102 27.0501 98.3001 26.8501 94.5001C25.5501 93.7001 22.9501 84.2001 27.3501 75.9001C28.3501 74.0001 29.3501 72.2001 29.4501 71.7001C29.4501 71.3001 28.6501 70.5001 29.0501 69.7001C29.3501 69.1001 30.6501 67.1001 30.4501 68.2001C47.4501 73.1001 64.6501 69.6001 66.7501 69.1001C69.8501 68.4001 73.2501 67.4001 76.5501 66.3001C78.1501 63.6001 80.6501 61.1001 84.4501 60.1001C87.1501 59.4001 89.6501 59.2001 92.0501 59.8001C96.8501 61.0001 101.65 65.1001 108.15 73.7001C108.85 75.0001 111.15 76.7001 108.95 77.7001Z" fill="#6093C0"/>
</g>
<mask id="mask42_131153_442852" style="mask-type:alpha" maskUnits="userSpaceOnUse" x="0" y="0" width="130" height="171">
<path d="M129.75 0H0.25V170.1H129.75V0Z" fill="white"/>
</mask>
<g mask="url(#mask42_131153_442852)">
<path d="M37.3498 96.3L32.0498 85.0001L37.8498 79.3L56.4498 80.5001L61.5498 86.9001L53.5498 97.3L45.1498 102L37.3498 96.3Z" fill="#CF4A43"/>
</g>
<mask id="mask43_131153_442852" style="mask-type:alpha" maskUnits="userSpaceOnUse" x="0" y="0" width="130" height="171">
<path d="M129.75 0H0.25V170.1H129.75V0Z" fill="white"/>
</mask>
<g mask="url(#mask43_131153_442852)">
<path d="M39.1498 94.5999L35.0498 85.4999L38.7498 81.8999L55.3498 82.8999L58.5498 86.9999L52.0498 95.3999L45.3498 99.0999L39.1498 94.5999Z" fill="#EED54B"/>
</g>
<mask id="mask44_131153_442852" style="mask-type:alpha" maskUnits="userSpaceOnUse" x="0" y="0" width="130" height="171">
<path d="M129.75 0H0.25V170.1H129.75V0Z" fill="white"/>
</mask>
<g mask="url(#mask44_131153_442852)">
<path d="M37.3498 96.3L32.0498 85.0001L37.8498 79.3L56.4498 80.5001L61.5498 86.9001L53.5498 97.3L45.1498 102L37.3498 96.3Z" stroke="#292318" stroke-width="1.106" stroke-miterlimit="10" stroke-linecap="round" stroke-linejoin="round"/>
</g>
<mask id="mask45_131153_442852" style="mask-type:alpha" maskUnits="userSpaceOnUse" x="0" y="0" width="130" height="171">
<path d="M129.75 0H0.25V170.1H129.75V0Z" fill="white"/>
</mask>
<g mask="url(#mask45_131153_442852)">
<path d="M38.9501 82.5C41.1501 82.7 43.1501 82.8 45.1501 83C46.7501 83.2 47.1501 84.3 47.0501 85.4C46.8501 86.9 46.0501 87.8 44.5501 88.3C44.4501 88.3 44.3501 88.3 44.2501 88.4C45.7501 89.4 45.6501 91.3 46.6501 93.1C45.4501 93 44.4501 93 43.3501 92.9C42.8501 91.8 42.3501 90.7 42.0501 89.6C41.8501 89 41.5501 88.6 40.6501 88.7C40.3501 90 40.1501 91.3 40.2501 92.7C39.2501 92.6 38.2501 92.6 37.2501 92.5C36.9501 89.1 38.3501 85.8 38.9501 82.5ZM41.5501 84.8C41.3501 85.5 41.2501 86.1 41.0501 86.8C41.7501 86.8 42.3501 86.8 42.9501 86.8C43.5501 86.8 43.8501 86.4 44.0501 85.9C44.1501 85.4 43.9501 85 43.4501 84.9C42.8501 84.8 42.2501 84.8 41.5501 84.8ZM54.2501 83.5C53.0501 83 51.8501 83 50.5501 83.3C49.2501 83.6 48.2501 84.6 47.9501 85.8C47.6501 86.9 48.0501 87.9 49.2501 88.5C49.8501 88.8 50.5501 89 51.1501 89.3C51.4501 89.4 51.7501 89.5 52.0501 89.7C52.3501 89.9 52.6501 90.2 52.5501 90.6C52.4501 91.1 52.1501 91.4 51.7501 91.5C50.7501 91.8 49.8501 91.3 49.6501 90.3C49.6501 90.1 49.5501 89.9 49.5501 89.7C48.6501 89.7 47.7501 89.7 46.8501 89.7C46.6501 91.3 47.4501 92.7 48.7501 93.2C49.7501 93.6 50.8501 93.7 51.9501 93.6C52.6501 93.5 53.3501 93.2 53.9501 92.8C55.8501 91.6 56.4501 88.8 54.2501 87.6C53.9501 87.4 53.5501 87.2 53.1501 87.1C52.4501 86.9 51.8501 86.7 51.1501 86.4C50.7501 86.3 50.5501 86.1 50.5501 85.6C50.8501 85 51.2501 84.9 51.7501 84.9C52.5501 85 52.9501 85.4 52.9501 86.3C53.8501 86.3 54.7501 86.3 55.7501 86.3C55.9501 84.8 55.4501 83.9 54.2501 83.5Z" fill="#CF4A43"/>
</g>
<mask id="mask46_131153_442852" style="mask-type:alpha" maskUnits="userSpaceOnUse" x="0" y="0" width="130" height="171">
<path d="M129.75 0H0.25V170.1H129.75V0Z" fill="white"/>
</mask>
<g mask="url(#mask46_131153_442852)">
<g opacity="0.23">
<mask id="mask47_131153_442852" style="mask-type:alpha" maskUnits="userSpaceOnUse" x="30" y="126" width="33" height="19">
<path d="M62.8499 126H30.6499V144.7H62.8499V126Z" fill="white"/>
</mask>
<g mask="url(#mask47_131153_442852)">
<path d="M62.8498 142.2C62.8498 142.2 62.8498 142.3 62.7498 142.3C62.6498 142.4 62.6498 142.5 62.5498 142.6C62.4498 142.7 62.3498 142.8 62.2498 142.8C62.1498 142.8 62.1498 142.9 62.0498 142.9C61.8498 143 61.6498 143.1 61.4498 143.2C60.9498 143.4 60.3498 143.5 59.7498 143.6C59.6498 143.6 59.5498 143.6 59.4498 143.6C59.3498 143.6 59.2498 143.6 59.1498 143.6C59.0498 143.6 58.9498 143.6 58.8498 143.6C58.1498 143.7 57.5498 143.7 57.0498 143.7C56.9498 143.7 56.9498 143.7 56.8498 143.7H56.7498C56.6498 143.7 56.6498 143.7 56.5498 143.7C56.4498 143.7 56.2498 143.7 56.1498 143.7C56.0498 143.7 55.9498 143.7 55.7498 143.7C55.6498 143.7 55.5498 143.7 55.3498 143.7C55.0498 143.7 54.6498 143.7 54.3498 143.7C54.0498 143.7 53.8498 143.7 53.5498 143.7C53.3498 143.7 53.1498 143.7 52.9498 143.7C52.5498 143.7 52.0498 143.7 51.6498 143.7C51.0498 143.7 50.3498 143.7 49.7498 143.8C49.4498 143.8 49.1498 143.8 48.8498 143.8C43.3498 143.9 33.0498 144.4 31.7498 144.4C31.6498 144.4 31.5498 144.4 31.4498 144.4C31.3498 144.4 31.3498 144.4 31.2498 144.4H31.1498C31.1498 144.4 31.1498 144.4 31.0498 144.4C30.9498 144.4 30.9498 144.4 30.8498 144.4C30.8498 144.4 30.8498 144.4 30.7498 144.4H30.6498C30.6498 144.4 30.6498 144.4 30.5498 144.4C30.5498 144.3 30.4498 144.3 30.5498 144.2V144.1C30.5498 144.1 30.5498 144 30.6498 144C30.6498 144 30.6498 143.9 30.7498 143.9C30.7498 143.8 30.8498 143.8 30.9498 143.7L31.0498 143.6L31.1498 143.5L31.2498 143.4L31.3498 143.3C31.4498 143.2 31.5498 143.1 31.6498 143C31.7498 142.9 31.8498 142.8 32.0498 142.7C32.9498 142.1 34.6498 140.9 36.7498 139.9C36.8498 139.9 36.8498 139.8 36.9498 139.8C37.3498 139.6 37.7498 139.4 38.1498 139.2C38.2498 139.2 38.2498 139.1 38.3498 139.1C38.3498 139.1 38.3498 139.1 38.4498 139.1C38.6498 139 38.9498 138.9 39.1498 138.8C39.5498 138.7 39.8498 138.6 40.2498 138.5C40.3498 138.5 40.4498 138.4 40.5498 138.4C40.8498 138.3 41.2498 138.2 41.5498 138.2H41.6498C41.7498 138.2 41.8498 138.2 41.9498 138.2H42.0498C42.0498 138.2 42.0498 138.2 42.1498 138.2C42.1498 138.2 42.1498 138.2 42.2498 138.2C42.3498 138.2 42.4498 138.2 42.5498 138.2H42.6498C42.7498 138.2 42.9498 138.2 43.0498 138.2C43.1498 138.2 43.3498 138.2 43.5498 138.2C43.6498 138.2 43.7498 138.2 43.8498 138.2C43.7498 138.1 43.7498 138.1 43.6498 138C43.4498 137.7 43.1498 137.4 42.9498 137.1C41.0498 134.3 39.4498 129.1 40.2498 126.5C44.6498 130.4 52.2498 132.9 59.8498 133.4C59.9498 135.1 60.8498 137.7 61.7498 140.1C61.9498 140.6 62.1498 141 62.2498 141.4C62.3498 141.6 62.3498 141.8 62.4498 141.9C62.9498 141.7 62.9498 142 62.8498 142.2Z" fill="#3A2A1F"/>
</g>
</g>
</g>
<mask id="mask48_131153_442852" style="mask-type:alpha" maskUnits="userSpaceOnUse" x="0" y="0" width="130" height="171">
<path d="M129.75 0H0.25V170.1H129.75V0Z" fill="white"/>
</mask>
<g mask="url(#mask48_131153_442852)">
<g opacity="0.23">
<mask id="mask49_131153_442852" style="mask-type:alpha" maskUnits="userSpaceOnUse" x="63" y="118" width="34" height="28">
<path d="M96.6501 118.4H63.8501V145.3H96.6501V118.4Z" fill="white"/>
</mask>
<g mask="url(#mask49_131153_442852)">
<path d="M96.3501 144.2C96.2501 144.3 96.2501 144.4 96.1501 144.5C95.9501 144.7 95.6501 144.9 95.1501 145C93.1501 145.5 88.7501 145.5 83.7501 145.3C83.6501 145.3 83.6501 145.3 83.5501 145.3C83.0501 145.3 82.6501 145.3 82.1501 145.3C81.2501 145.3 80.3501 145.2 79.4501 145.2C79.2501 145.2 78.9501 145.2 78.7501 145.2C78.5501 145.2 78.2501 145.2 78.0501 145.2C77.7501 145.2 77.4501 145.2 77.0501 145.2C76.4501 145.2 75.9501 145.2 75.3501 145.1C74.9501 145.1 74.5501 145.1 74.1501 145.1C73.9501 145.1 73.8501 145.1 73.6501 145.1C73.5501 145.1 73.4501 145.1 73.4501 145.1C73.2501 145.1 73.0501 145.1 72.8501 145.1C72.2501 145.1 71.6501 145.1 71.1501 145C71.0501 145 70.9501 145 70.7501 145H70.6501C70.5501 145 70.4501 145 70.3501 145C70.0501 145 69.8501 145 69.5501 145C69.4501 145 69.3501 145 69.2501 145C69.1501 145 68.9501 145 68.8501 145C68.4501 145 68.0501 145 67.6501 144.9C67.5501 144.9 67.5501 144.9 67.4501 144.9C67.3501 144.9 67.3501 144.9 67.2501 144.9C67.1501 144.9 63.9501 144.6 63.8501 144.6C68.8501 142.6 77.5501 142 81.6501 142.3C83.4501 142.4 84.9501 142.6 85.7501 142.6C88.5501 142.7 89.5501 142.1 88.3501 138.1C87.2501 134.3 85.8501 127.9 85.9501 123.4C88.9501 122.1 91.6501 120.6 93.3501 118.7C91.3501 124.7 93.1501 132.4 95.0501 138.1C95.5501 139.3 97.3501 142.6 96.3501 144.2Z" fill="#3A2A1F"/>
</g>
</g>
</g>
<mask id="mask50_131153_442852" style="mask-type:alpha" maskUnits="userSpaceOnUse" x="0" y="0" width="130" height="171">
<path d="M129.75 0H0.25V170.1H129.75V0Z" fill="white"/>
</mask>
<g mask="url(#mask50_131153_442852)">
<g opacity="0.23">
<mask id="mask51_131153_442852" style="mask-type:alpha" maskUnits="userSpaceOnUse" x="42" y="126" width="38" height="7">
<path d="M79.7502 126.9H42.9502V132.8H79.7502V126.9Z" fill="white"/>
</mask>
<g mask="url(#mask51_131153_442852)">
<path d="M75.2502 130.3C76.4502 129.5 78.9502 128 79.7502 126.9C65.0502 133.4 51.1502 130.4 42.9502 127.6C50.4502 131.8 56.6502 132.8 62.4502 132.8C68.2502 132.9 72.0502 131.7 75.2502 130.3Z" fill="#3A2A1F"/>
</g>
</g>
</g>
<mask id="mask52_131153_442852" style="mask-type:alpha" maskUnits="userSpaceOnUse" x="0" y="0" width="130" height="171">
<path d="M129.75 0H0.25V170.1H129.75V0Z" fill="white"/>
</mask>
<g mask="url(#mask52_131153_442852)">
<g opacity="0.23">
<mask id="mask53_131153_442852" style="mask-type:alpha" maskUnits="userSpaceOnUse" x="26" y="91" width="50" height="11">
<path d="M75.8501 91.8999H26.8501V101.5H75.8501V91.8999Z" fill="white"/>
</mask>
<g mask="url(#mask53_131153_442852)">
<path d="M27.0502 97.5C33.2502 98.9 44.6502 97 44.8502 97C45.0502 97.1 47.1502 97.5 52.4502 98.9C57.7502 100.3 63.8502 101.6 67.0502 101.6C68.2502 101.6 69.7502 100.5 71.3502 98.7C73.0502 96.8 74.4502 94.5 75.8502 92C72.8502 96.4 69.2502 98.3 68.2502 98.6C66.9502 98.9 66.5502 98.9 64.7502 98.8C58.8502 98.4 46.5502 94.8 45.2502 94.6C44.3502 94.5 30.7502 96.8 26.9502 94.1" fill="#3A2A1F"/>
</g>
</g>
</g>
<mask id="mask54_131153_442852" style="mask-type:alpha" maskUnits="userSpaceOnUse" x="0" y="0" width="130" height="171">
<path d="M129.75 0H0.25V170.1H129.75V0Z" fill="white"/>
</mask>
<g mask="url(#mask54_131153_442852)">
<g opacity="0.23">
<mask id="mask55_131153_442852" style="mask-type:alpha" maskUnits="userSpaceOnUse" x="28" y="103" width="11" height="6">
<path d="M38.45 103.3H28.25V108.8H38.45V103.3Z" fill="white"/>
</mask>
<g mask="url(#mask55_131153_442852)">
<path d="M38.45 103.3C34.95 103.5 30.55 105.9 29.05 108.8C28.75 107.9 28.55 107 28.25 106.2C30.95 104.2 34.45 103.2 38.45 103.3Z" fill="#3A2A1F"/>
</g>
</g>
</g>
<mask id="mask56_131153_442852" style="mask-type:alpha" maskUnits="userSpaceOnUse" x="0" y="0" width="130" height="171">
<path d="M129.75 0H0.25V170.1H129.75V0Z" fill="white"/>
</mask>
<g mask="url(#mask56_131153_442852)">
<g opacity="0.23">
<mask id="mask57_131153_442852" style="mask-type:alpha" maskUnits="userSpaceOnUse" x="35" y="104" width="60" height="25">
<path d="M94.15 104.8H35.75V128.1H94.15V104.8Z" fill="white"/>
</mask>
<g mask="url(#mask57_131153_442852)">
<path d="M94.2501 116.8C94.0501 117.2 93.8501 117.8 93.6501 118.2C89.6501 122.9 79.8501 125.6 72.3501 126.9C58.9501 129.2 47.1501 128.1 38.6501 123.9C37.6501 122.8 36.6501 121.7 35.8501 120.7C37.0501 121.3 38.6501 122.1 39.8501 122.6C43.3501 124.2 46.9501 124.5 47.7501 123.3C48.1501 122.7 48.6501 121.3 48.3501 119.8C47.9501 117.6 46.5501 113.5 47.5501 109.5C46.9501 114.1 49.7501 117.6 49.9501 121C49.9501 124.7 53.3501 125.4 57.1501 125.7C60.0501 125.9 62.9501 125.9 68.3501 125.3C74.0501 124.7 74.9501 123.1 75.0501 119.6C75.1501 117 74.4501 112.7 73.1501 110.6C71.5501 108 66.1501 106.2 60.3501 104.9C64.2501 104.8 72.1501 105.4 75.8501 108.7C77.0501 109.8 78.3501 111 79.6501 112C78.9501 113.2 78.6501 114.3 78.6501 114.8C78.5501 115.5 79.9501 114.3 82.7501 114.4C83.7501 114.4 84.8501 114.6 86.1501 115C87.0501 115.3 88.1501 115.7 89.2501 116.4C90.9501 117.4 92.3501 117.2 94.2501 116.8Z" fill="#3A2A1F"/>
</g>
</g>
</g>
<mask id="mask58_131153_442852" style="mask-type:alpha" maskUnits="userSpaceOnUse" x="0" y="0" width="130" height="171">
<path d="M129.75 0H0.25V170.1H129.75V0Z" fill="white"/>
</mask>
<g mask="url(#mask58_131153_442852)">
<g opacity="0.23">
<mask id="mask59_131153_442852" style="mask-type:alpha" maskUnits="userSpaceOnUse" x="80" y="87" width="17" height="23">
<path d="M96.65 87.2H80.25V109.1H96.65V87.2Z" fill="white"/>
</mask>
<g mask="url(#mask59_131153_442852)">
<path d="M96.15 108.1C95.55 108.4 94.85 108.7 94.25 108.9C92.45 109.6 90.45 108.6 88.15 108.2C88.35 106.5 88.35 104.7 88.25 103C88.05 99.9999 87.45 95.3999 85.65 93.4999C83.95 91.5999 81.55 88.9 80.25 87.2C84.75 88.3 86.55 89.5999 88.35 90.7999C88.85 92.1999 89.95 94.4999 92.25 92.4999C92.85 94.7999 93.85 96.8999 95.85 98.4999C96.05 98.6999 96.35 98.8999 96.65 99.0999C96.65 102 96.55 105 96.15 108.1Z" fill="#3A2A1F"/>
</g>
</g>
</g>
<mask id="mask60_131153_442852" style="mask-type:alpha" maskUnits="userSpaceOnUse" x="0" y="0" width="130" height="171">
<path d="M129.75 0H0.25V170.1H129.75V0Z" fill="white"/>
</mask>
<g mask="url(#mask60_131153_442852)">
<g opacity="0.23">
<mask id="mask61_131153_442852" style="mask-type:alpha" maskUnits="userSpaceOnUse" x="80" y="59" width="30" height="21">
<path d="M109.95 59.8H80.1499V79.5001H109.95V59.8Z" fill="white"/>
</mask>
<g mask="url(#mask61_131153_442852)">
<path d="M108.95 77.7C107.75 78.2 106.65 78.8 105.75 79.4C104.05 80.3 103.05 75.5 97.85 69.4C92.75 63.5 84.75 59.8 80.25 62.6C81.45 61.7 82.85 61 84.55 60.5C87.25 59.8 89.75 59.6 92.15 60.2C96.95 61.4 101.75 65.5 108.25 74.1C108.85 75 111.15 76.7 108.95 77.7Z" fill="#3A2A1F"/>
</g>
</g>
</g>
<mask id="mask62_131153_442852" style="mask-type:alpha" maskUnits="userSpaceOnUse" x="0" y="0" width="130" height="171">
<path d="M129.75 0H0.25V170.1H129.75V0Z" fill="white"/>
</mask>
<g mask="url(#mask62_131153_442852)">
<g opacity="0.23">
<mask id="mask63_131153_442852" style="mask-type:alpha" maskUnits="userSpaceOnUse" x="73" y="66" width="4" height="8">
<path d="M76.5501 66.7H73.3501V73.7999H76.5501V66.7Z" fill="white"/>
</mask>
<g mask="url(#mask63_131153_442852)">
<path d="M73.35 67.7C73.25 70.2 73.35 72.0999 73.75 73.7999C74.15 71.5999 75.15 68.4 76.55 66.7C75.55 67 74.15 67.5 73.35 67.7Z" fill="#3A2A1F"/>
</g>
</g>
</g>
<mask id="mask64_131153_442852" style="mask-type:alpha" maskUnits="userSpaceOnUse" x="0" y="0" width="130" height="171">
<path d="M129.75 0H0.25V170.1H129.75V0Z" fill="white"/>
</mask>
<g mask="url(#mask64_131153_442852)">
<g opacity="0.23">
<mask id="mask65_131153_442852" style="mask-type:alpha" maskUnits="userSpaceOnUse" x="26" y="4" width="62" height="59">
<path d="M87.9501 4.19995H26.3501V62.8999H87.9501V4.19995Z" fill="white"/>
</mask>
<g mask="url(#mask65_131153_442852)">
<path d="M63.15 14.6999C60.15 13.2999 57.05 12.4999 53.85 11.2999C53.25 11.0999 52.05 10.7999 51.55 10.0999C51.05 9.39991 51.35 8.2999 51.35 8.3999C48.65 8.8999 49.85 11.1999 49.85 11.1999C49.85 11.1999 49.35 11.1999 49.05 11.0999C47.95 10.8999 46.75 9.89992 46.85 8.19992C46.95 5.99992 49.35 5.0999 49.05 4.8999C48.95 4.8999 44.75 2.8999 41.45 5.4999C39.65 6.8999 38.85 8.7999 39.45 11.3999C35.45 10.6999 36.05 7.19992 35.95 7.19992C32.35 7.79992 31.05 11.9999 33.55 13.6999C33.55 14.0999 31.85 13.9999 30.65 13.1999C29.75 12.5999 29.45 11.1999 29.35 11.2999C26.05 13.3999 27.55 16.9999 30.55 17.2999C30.75 17.2999 31.25 17.2999 31.15 17.5999C31.15 17.6999 30.45 18.1999 29.35 18.1999C28.25 18.1999 27.75 17.5999 27.75 17.7999C27.25 19.2999 29.75 20.6999 30.75 20.1999C28.85 21.4999 27.55 22.9999 26.25 25.0999C28.05 22.8999 31.15 20.7999 35.35 19.3999C34.85 18.9999 35.25 17.7999 36.05 17.5999C35.85 18.4999 37.55 18.8999 39.45 18.3999C38.95 17.8999 38.45 16.0999 40.65 15.4999C39.55 17.0999 42.05 18.2999 43.15 17.9999C44.35 17.6999 44.25 17.0999 43.75 16.6999C44.65 16.1999 45.45 17.2999 45.95 17.4999C46.85 17.8999 47.85 17.6999 50.25 18.0999C63.95 20.1999 71.35 25.9999 74.75 33.5999C77.65 39.9999 80.75 51.2999 79.45 63.1999C80.75 62.0999 82.35 61.2999 84.25 60.6999C85.45 60.3999 86.65 60.1999 87.85 60.0999C88.15 41.3999 81.45 23.2999 63.15 14.6999Z" fill="#3A2A1F"/>
</g>
</g>
</g>
<mask id="mask66_131153_442852" style="mask-type:alpha" maskUnits="userSpaceOnUse" x="0" y="0" width="130" height="171">
<path d="M129.75 0H0.25V170.1H129.75V0Z" fill="white"/>
</mask>
<g mask="url(#mask66_131153_442852)">
<g opacity="0.23">
<mask id="mask67_131153_442852" style="mask-type:alpha" maskUnits="userSpaceOnUse" x="15" y="71" width="19" height="47">
<path d="M33.5502 71H15.9502V117.2H33.5502V71Z" fill="white"/>
</mask>
<g mask="url(#mask67_131153_442852)">
<path d="M33.5503 110.1C33.5503 110.2 33.5503 110.2 33.5503 110.3C33.5503 110.3 33.5503 110.4 33.4503 110.4L33.3503 110.5C32.8503 111.2 31.5503 112.3 31.7503 114.9C31.8503 115.1 31.9503 115.4 31.9503 115.6C32.0503 116.6 31.5503 116.9 30.7503 116.6L30.9503 117.1C30.1503 117 29.2503 116.9 28.3503 116.8C25.6503 115.1 26.7503 112.7 26.6503 111.6C26.5503 110.6 25.7503 109.9 24.7503 109.1C24.6503 109 24.4503 108.9 24.3503 108.8C19.9503 105.7 16.8503 103 16.0503 101.7C18.9503 101.3 22.1503 99.1 23.6503 96.4C25.0503 93.7 22.7503 89.4 23.0503 84C23.3503 78.7 26.2503 74.5 29.2503 71C29.3503 71.5 29.7503 71.9 29.6503 72.1C29.6503 72.6 28.5503 74.5 27.5503 76.3C23.1503 84.6 25.7503 94.1 27.0503 94.9C27.1503 96.7 27.2503 98.4 27.3503 100.2C25.1503 101.9 21.8503 102.8 21.8503 103.8C21.8503 104.3 23.3503 105.5 24.9503 106.7V106.6C26.0503 107.4 27.1503 108.1 27.9503 108.7C27.6503 109.8 27.8503 111.5 29.4503 111.7C30.6503 111.9 32.0503 111 33.3503 109.8C33.5503 110 33.5503 110.1 33.5503 110.1Z" fill="#3A2A1F"/>
</g>
</g>
</g>
<mask id="mask68_131153_442852" style="mask-type:alpha" maskUnits="userSpaceOnUse" x="0" y="0" width="130" height="171">
<path d="M129.75 0H0.25V170.1H129.75V0Z" fill="white"/>
</mask>
<g mask="url(#mask68_131153_442852)">
<g opacity="0.23">
<mask id="mask69_131153_442852" style="mask-type:alpha" maskUnits="userSpaceOnUse" x="4" y="87" width="5" height="18">
<path d="M8.34979 87.6001H4.0498V104.3H8.34979V87.6001Z" fill="white"/>
</mask>
<g mask="url(#mask69_131153_442852)">
<path d="M8.34957 87.6001C7.44957 90.5001 6.24956 96.1001 6.64956 98.2001C6.34956 99.4001 4.24957 101.3 4.34957 104.3C3.94957 103.4 3.94958 102 4.54958 99.1001C5.14958 96.2001 6.44957 91.9001 8.34957 87.6001Z" fill="#3A2A1F"/>
</g>
</g>
</g>
<mask id="mask70_131153_442852" style="mask-type:alpha" maskUnits="userSpaceOnUse" x="0" y="0" width="130" height="171">
<path d="M129.75 0H0.25V170.1H129.75V0Z" fill="white"/>
</mask>
<g mask="url(#mask70_131153_442852)">
<g opacity="0.23">
<mask id="mask71_131153_442852" style="mask-type:alpha" maskUnits="userSpaceOnUse" x="78" y="77" width="44" height="41">
<path d="M121.75 77.3999H78.5498V117.1H121.75V77.3999Z" fill="white"/>
</mask>
<g mask="url(#mask71_131153_442852)">
<path d="M121.75 101.7C121.45 104.8 119.35 108.8 113.75 112H113.65C113.45 112.1 113.25 112.2 113.05 112.3C113.05 112.3 113.05 112.3 112.95 112.3C112.55 112.5 112.15 112.7 111.65 112.9C111.45 113 111.15 113.1 110.95 113.2C107.15 114.8 102.85 115.5 99.05 115.8C95.95 116 94.05 116.8 92.35 116.9C92.15 116.9 91.95 116.9 91.85 116.9C91.05 116.9 90.15 116.7 89.25 116.2C86.55 114.7 84.45 114.3 82.75 114.2C82.55 114.2 82.35 114.2 82.15 114.2C80.35 114.2 79.25 114.8 78.85 114.8C78.75 114.8 78.75 114.7 78.75 114.6C78.75 114.5 78.75 114.5 78.75 114.4C82.65 111.4 87.75 113.2 90.05 114.1C92.65 115.1 93.15 113.5 95.45 113.3C97.75 113.1 103.95 113.3 110.05 110.8C116.15 108.3 117.75 102.5 117.65 100.3C117.55 98.0999 112.75 89.9999 111.15 88.7999C110.55 85.0999 108.65 81.6999 106.15 78.9999C107.05 78.4999 108.05 77.9999 109.05 77.4999C109.05 77.4999 109.05 77.4999 109.15 77.4999C109.45 77.3999 109.65 77.3 109.75 77.2C116.55 85.7 122.05 98.6 121.75 101.7Z" fill="#3A2A1F"/>
</g>
</g>
</g>
<mask id="mask72_131153_442852" style="mask-type:alpha" maskUnits="userSpaceOnUse" x="0" y="0" width="130" height="171">
<path d="M129.75 0H0.25V170.1H129.75V0Z" fill="white"/>
</mask>
<g mask="url(#mask72_131153_442852)">
<g opacity="0.23">
<mask id="mask73_131153_442852" style="mask-type:alpha" maskUnits="userSpaceOnUse" x="92" y="94" width="12" height="11">
<path d="M103.25 94.2H92.75V104.3H103.25V94.2Z" fill="white"/>
</mask>
<g mask="url(#mask73_131153_442852)">
<path d="M92.75 94.2C93.95 97.1 98.35 99.6 100.35 100.2C102.35 100.8 103.05 101.2 103.25 101.5C103.45 101.8 102.55 103.1 101.35 104.3C102.05 103.4 102.35 103 102.15 102.5C101.95 102 101.05 101.5 99.45 100.6C97.75 99.8999 94.05 98.1 92.75 94.2Z" fill="#3A2A1F"/>
</g>
</g>
</g>
<mask id="mask74_131153_442852" style="mask-type:alpha" maskUnits="userSpaceOnUse" x="0" y="0" width="130" height="171">
<path d="M129.75 0H0.25V170.1H129.75V0Z" fill="white"/>
</mask>
<g mask="url(#mask74_131153_442852)">
<path d="M13.1499 106.1V108.6" stroke="#917954" stroke-width="1.6334" stroke-miterlimit="10" stroke-linecap="round" stroke-linejoin="round"/>
</g>
<mask id="mask75_131153_442852" style="mask-type:alpha" maskUnits="userSpaceOnUse" x="0" y="0" width="130" height="171">
<path d="M129.75 0H0.25V170.1H129.75V0Z" fill="white"/>
</mask>
<g mask="url(#mask75_131153_442852)">
<path d="M15.3501 107.8V110.3" stroke="#917954" stroke-width="1.6334" stroke-miterlimit="10" stroke-linecap="round" stroke-linejoin="round"/>
</g>
<mask id="mask76_131153_442852" style="mask-type:alpha" maskUnits="userSpaceOnUse" x="0" y="0" width="130" height="171">
<path d="M129.75 0H0.25V170.1H129.75V0Z" fill="white"/>
</mask>
<g mask="url(#mask76_131153_442852)">
<path d="M105.25 104.8V107.3" stroke="#917954" stroke-width="1.6334" stroke-miterlimit="10" stroke-linecap="round" stroke-linejoin="round"/>
</g>
<mask id="mask77_131153_442852" style="mask-type:alpha" maskUnits="userSpaceOnUse" x="0" y="0" width="130" height="171">
<path d="M129.75 0H0.25V170.1H129.75V0Z" fill="white"/>
</mask>
<g mask="url(#mask77_131153_442852)">
<path d="M102.75 106.8V109.3" stroke="#917954" stroke-width="1.6334" stroke-miterlimit="10" stroke-linecap="round" stroke-linejoin="round"/>
</g>
<mask id="mask78_131153_442852" style="mask-type:alpha" maskUnits="userSpaceOnUse" x="0" y="0" width="130" height="171">
<path d="M129.75 0H0.25V170.1H129.75V0Z" fill="white"/>
</mask>
<g mask="url(#mask78_131153_442852)">
<path d="M34.9502 63.8V66.3" stroke="#917954" stroke-width="1.6334" stroke-miterlimit="10" stroke-linecap="round" stroke-linejoin="round"/>
</g>
<mask id="mask79_131153_442852" style="mask-type:alpha" maskUnits="userSpaceOnUse" x="0" y="0" width="130" height="171">
<path d="M129.75 0H0.25V170.1H129.75V0Z" fill="white"/>
</mask>
<g mask="url(#mask79_131153_442852)">
<path d="M37.6499 65V67.5" stroke="#917954" stroke-width="1.6334" stroke-miterlimit="10" stroke-linecap="round" stroke-linejoin="round"/>
</g>
<mask id="mask80_131153_442852" style="mask-type:alpha" maskUnits="userSpaceOnUse" x="0" y="0" width="130" height="171">
<path d="M129.75 0H0.25V170.1H129.75V0Z" fill="white"/>
</mask>
<g mask="url(#mask80_131153_442852)">
<path d="M33.1501 117.4C28.4501 117.1 22.8501 116.2 15.1501 113C7.25009 109.7 4.45011 106.8 4.05011 103.2C3.75011 100 7.3501 86.5 13.2501 79" stroke="#292318" stroke-width="1.106" stroke-miterlimit="10" stroke-linecap="round" stroke-linejoin="round"/>
</g>
<mask id="mask81_131153_442852" style="mask-type:alpha" maskUnits="userSpaceOnUse" x="0" y="0" width="130" height="171">
<path d="M129.75 0H0.25V170.1H129.75V0Z" fill="white"/>
</mask>
<g mask="url(#mask81_131153_442852)">
<path d="M27.1499 100.1C24.9499 101.9 21.6499 102.6 21.6499 103.6C21.6499 104.6 29.0499 109.4 29.2499 109.5" stroke="#292318" stroke-width="1.106" stroke-miterlimit="10" stroke-linecap="round" stroke-linejoin="round"/>
</g>
<mask id="mask82_131153_442852" style="mask-type:alpha" maskUnits="userSpaceOnUse" x="0" y="0" width="130" height="171">
<path d="M129.75 0H0.25V170.1H129.75V0Z" fill="white"/>
</mask>
<g mask="url(#mask82_131153_442852)">
<path d="M29.7498 62.1001C25.3498 63.7001 20.8498 67.8001 14.9498 75.6001C14.2498 76.5001 11.7498 78.8001 14.1498 79.2001" stroke="#292318" stroke-width="1.106" stroke-miterlimit="10" stroke-linecap="round" stroke-linejoin="round"/>
</g>
<mask id="mask83_131153_442852" style="mask-type:alpha" maskUnits="userSpaceOnUse" x="0" y="0" width="130" height="171">
<path d="M129.75 0H0.25V170.1H129.75V0Z" fill="white"/>
</mask>
<g mask="url(#mask83_131153_442852)">
<path d="M96.5498 99.1001C96.6498 102 96.4498 105 96.0498 108.1" stroke="#292318" stroke-width="1.106" stroke-miterlimit="10" stroke-linecap="round" stroke-linejoin="round"/>
</g>
<mask id="mask84_131153_442852" style="mask-type:alpha" maskUnits="userSpaceOnUse" x="0" y="0" width="130" height="171">
<path d="M129.75 0H0.25V170.1H129.75V0Z" fill="white"/>
</mask>
<g mask="url(#mask84_131153_442852)">
<path d="M38.4502 123.9C46.9502 128.2 58.6502 129.2 72.1502 126.9C79.6502 125.6 89.4502 122.9 93.4502 118.2" stroke="#292318" stroke-width="1.106" stroke-miterlimit="10" stroke-linecap="round" stroke-linejoin="round"/>
</g>
<mask id="mask85_131153_442852" style="mask-type:alpha" maskUnits="userSpaceOnUse" x="0" y="0" width="130" height="171">
<path d="M129.75 0H0.25V170.1H129.75V0Z" fill="white"/>
</mask>
<g mask="url(#mask85_131153_442852)">
<path d="M75.2501 130.3C65.1501 135.4 47.1501 132.5 39.9501 125.4C27.9501 113.6 27.2501 104 26.8501 94.7999C25.5501 93.9999 22.9501 84.4999 27.3501 76.1999C28.3501 74.2999 29.3501 72.4999 29.4501 71.9999C29.4501 71.5999 28.6501 70.7999 29.0501 69.9999C29.3501 69.3999 30.6501 67.4999 30.4501 68.5999" stroke="#292318" stroke-width="1.106" stroke-miterlimit="10" stroke-linecap="round" stroke-linejoin="round"/>
</g>
<mask id="mask86_131153_442852" style="mask-type:alpha" maskUnits="userSpaceOnUse" x="0" y="0" width="130" height="171">
<path d="M129.75 0H0.25V170.1H129.75V0Z" fill="white"/>
</mask>
<g mask="url(#mask86_131153_442852)">
<path d="M30.4502 68.4999C47.4502 73.3999 66.7502 70.1999 75.7502 66.8999" stroke="#292318" stroke-width="1.106" stroke-miterlimit="10" stroke-linecap="round" stroke-linejoin="round"/>
</g>
<mask id="mask87_131153_442852" style="mask-type:alpha" maskUnits="userSpaceOnUse" x="0" y="0" width="130" height="171">
<path d="M129.75 0H0.25V170.1H129.75V0Z" fill="white"/>
</mask>
<g mask="url(#mask87_131153_442852)">
<path d="M59.1499 73.9999C54.3499 75.6999 35.4499 75.6 29.6499 71.7" stroke="#292318" stroke-width="1.106" stroke-miterlimit="10" stroke-linecap="round" stroke-linejoin="round"/>
</g>
<mask id="mask88_131153_442852" style="mask-type:alpha" maskUnits="userSpaceOnUse" x="0" y="0" width="130" height="171">
<path d="M129.75 0H0.25V170.1H129.75V0Z" fill="white"/>
</mask>
<g mask="url(#mask88_131153_442852)">
<path d="M33.0498 69.3999C32.8498 70.0999 32.5498 70.6999 32.5498 71.3999" stroke="#292318" stroke-width="1.106" stroke-miterlimit="10" stroke-linecap="round" stroke-linejoin="round"/>
</g>
<mask id="mask89_131153_442852" style="mask-type:alpha" maskUnits="userSpaceOnUse" x="0" y="0" width="130" height="171">
<path d="M129.75 0H0.25V170.1H129.75V0Z" fill="white"/>
</mask>
<g mask="url(#mask89_131153_442852)">
<path d="M37.4498 70.3C37.1498 70.9 37.0498 71.8001 37.0498 72.5001" stroke="#292318" stroke-width="1.106" stroke-miterlimit="10" stroke-linecap="round" stroke-linejoin="round"/>
</g>
<mask id="mask90_131153_442852" style="mask-type:alpha" maskUnits="userSpaceOnUse" x="0" y="0" width="130" height="171">
<path d="M129.75 0H0.25V170.1H129.75V0Z" fill="white"/>
</mask>
<g mask="url(#mask90_131153_442852)">
<path d="M42.3501 70.7V72.7" stroke="#292318" stroke-width="1.106" stroke-miterlimit="10" stroke-linecap="round" stroke-linejoin="round"/>
</g>
<mask id="mask91_131153_442852" style="mask-type:alpha" maskUnits="userSpaceOnUse" x="0" y="0" width="130" height="171">
<path d="M129.75 0H0.25V170.1H129.75V0Z" fill="white"/>
</mask>
<g mask="url(#mask91_131153_442852)">
<path d="M46.3501 71.3999V71.6999V71.8999V72.1999V72.3999V72.5999V72.7999" stroke="#292318" stroke-width="1.106" stroke-miterlimit="10" stroke-linecap="round" stroke-linejoin="round"/>
</g>
<mask id="mask92_131153_442852" style="mask-type:alpha" maskUnits="userSpaceOnUse" x="0" y="0" width="130" height="171">
<path d="M129.75 0H0.25V170.1H129.75V0Z" fill="white"/>
</mask>
<g mask="url(#mask92_131153_442852)">
<path d="M44.25 71.5V71.7V71.9V72.1V72.3V72.5" stroke="#292318" stroke-width="1.106" stroke-miterlimit="10" stroke-linecap="round" stroke-linejoin="round"/>
</g>
<mask id="mask93_131153_442852" style="mask-type:alpha" maskUnits="userSpaceOnUse" x="0" y="0" width="130" height="171">
<path d="M129.75 0H0.25V170.1H129.75V0Z" fill="white"/>
</mask>
<g mask="url(#mask93_131153_442852)">
<path d="M58.6499 70.8999V71.0999V71.2999V71.6999V71.8999" stroke="#292318" stroke-width="1.106" stroke-miterlimit="10" stroke-linecap="round" stroke-linejoin="round"/>
</g>
<mask id="mask94_131153_442852" style="mask-type:alpha" maskUnits="userSpaceOnUse" x="0" y="0" width="130" height="171">
<path d="M129.75 0H0.25V170.1H129.75V0Z" fill="white"/>
</mask>
<g mask="url(#mask94_131153_442852)">
<path d="M60.1499 70.8999V71.1999V71.4999V71.6999" stroke="#292318" stroke-width="1.106" stroke-miterlimit="10" stroke-linecap="round" stroke-linejoin="round"/>
</g>
<mask id="mask95_131153_442852" style="mask-type:alpha" maskUnits="userSpaceOnUse" x="0" y="0" width="130" height="171">
<path d="M129.75 0H0.25V170.1H129.75V0Z" fill="white"/>
</mask>
<g mask="url(#mask95_131153_442852)">
<path d="M64.25 144.1C67.45 142.5 71.35 141.3 75.25 140.9C76.95 140.7 78.65 140.6 80.15 140.7" stroke="#292318" stroke-width="1.106" stroke-miterlimit="10" stroke-linecap="round" stroke-linejoin="round"/>
</g>
<mask id="mask96_131153_442852" style="mask-type:alpha" maskUnits="userSpaceOnUse" x="0" y="0" width="130" height="171">
<path d="M129.75 0H0.25V170.1H129.75V0Z" fill="white"/>
</mask>
<g mask="url(#mask96_131153_442852)">
<path d="M31.5498 144.1C33.6498 142.4 42.9498 138.9 46.3498 139.5" stroke="#292318" stroke-width="1.106" stroke-miterlimit="10" stroke-linecap="round" stroke-linejoin="round"/>
</g>
<mask id="mask97_131153_442852" style="mask-type:alpha" maskUnits="userSpaceOnUse" x="0" y="0" width="130" height="171">
<path d="M129.75 0H0.25V170.1H129.75V0Z" fill="white"/>
</mask>
<g mask="url(#mask97_131153_442852)">
<path d="M75.5498 137.9C78.9498 139.2 82.1498 141.8 83.7498 145" stroke="#292318" stroke-width="1.106" stroke-miterlimit="10" stroke-linecap="round" stroke-linejoin="round"/>
</g>
<mask id="mask98_131153_442852" style="mask-type:alpha" maskUnits="userSpaceOnUse" x="0" y="0" width="130" height="171">
<path d="M129.75 0H0.25V170.1H129.75V0Z" fill="white"/>
</mask>
<g mask="url(#mask98_131153_442852)">
<path d="M44.0498 137.6C46.3498 139.1 48.4498 140.9 49.5498 143.3" stroke="#292318" stroke-width="1.106" stroke-miterlimit="10" stroke-linecap="round" stroke-linejoin="round"/>
</g>
<mask id="mask99_131153_442852" style="mask-type:alpha" maskUnits="userSpaceOnUse" x="0" y="0" width="130" height="171">
<path d="M129.75 0H0.25V170.1H129.75V0Z" fill="white"/>
</mask>
<g mask="url(#mask99_131153_442852)">
<path d="M88.05 59.7999C88.25 41.2999 81.55 23.1999 63.25 14.6999C60.25 13.2999 57.15 12.4999 53.95 11.2999C53.35 11.0999 52.15 10.7999 51.65 10.0999C51.15 9.39991 51.45 8.3999 51.45 8.3999C48.75 8.7999 49.95 11.1999 49.95 11.1999C49.95 11.1999 49.45 11.1999 49.15 11.0999C48.05 10.8999 46.85 9.89992 46.95 8.19992C47.05 5.99992 49.45 5.0999 49.15 4.8999C49.05 4.8999 44.85 2.8999 41.55 5.4999C39.75 6.8999 38.95 9.29989 39.55 11.7999" stroke="#292318" stroke-width="1.106" stroke-miterlimit="10" stroke-linecap="round" stroke-linejoin="round"/>
</g>
<mask id="mask100_131153_442852" style="mask-type:alpha" maskUnits="userSpaceOnUse" x="0" y="0" width="130" height="171">
<path d="M129.75 0H0.25V170.1H129.75V0Z" fill="white"/>
</mask>
<g mask="url(#mask100_131153_442852)">
<path d="M30.6502 19.9C29.6502 20.4 27.3502 19.2 27.8502 17.6C27.8502 17.4 28.3502 18 29.4502 18C30.5502 18 31.2502 17.5 31.2502 17.4C31.3502 17.2 30.8502 17.2 30.6502 17.1C27.6502 16.8 26.1502 13.2 29.4502 11.1C29.5502 11 29.9502 12.4 30.7502 13C31.9502 13.8 33.6502 13.9 33.6502 13.5C31.1502 11.8 32.4503 7.7 36.0503 7C36.1503 7 35.2502 10.5 39.2502 11.2" stroke="#292318" stroke-width="1.106" stroke-miterlimit="10" stroke-linecap="round" stroke-linejoin="round"/>
</g>
<mask id="mask101_131153_442852" style="mask-type:alpha" maskUnits="userSpaceOnUse" x="0" y="0" width="130" height="171">
<path d="M129.75 0H0.25V170.1H129.75V0Z" fill="white"/>
</mask>
<g mask="url(#mask101_131153_442852)">
<path d="M31.25 19.7C29.25 21 27.65 22.6999 26.35 24.9999C20.55 34.7999 23.65 46.2999 28.25 55.5999C28.65 56.3999 29.25 57.3999 29.35 58.2999C29.45 58.7999 29.15 59.4999 29.35 59.9999C29.45 60.1999 29.85 59.5 29.85 59.7C29.95 60.6 29.85 61.5999 29.75 62.3999C29.75 62.6999 29.35 63.5999 29.55 63.3999C29.65 63.2999 29.8499 62.6 30.1499 62.7C30.3499 62.8 30.15 67.3999 30.05 67.7999" stroke="#292318" stroke-width="1.106" stroke-miterlimit="10" stroke-linecap="round" stroke-linejoin="round"/>
</g>
<mask id="mask102_131153_442852" style="mask-type:alpha" maskUnits="userSpaceOnUse" x="0" y="0" width="130" height="171">
<path d="M129.75 0H0.25V170.1H129.75V0Z" fill="white"/>
</mask>
<g mask="url(#mask102_131153_442852)">
<path d="M91.7499 117.1C90.8499 117.1 89.9499 116.9 89.0499 116.4C81.7499 112.4 78.3499 115.9 78.4499 114.9C78.5499 113.8 79.6499 110.7 82.2499 109.2C86.2499 106.9 89.5499 109 92.3499 109.2C90.8499 111 89.4499 113.7 91.7499 117.1Z" fill="#B3AFAC"/>
</g>
<mask id="mask103_131153_442852" style="mask-type:alpha" maskUnits="userSpaceOnUse" x="0" y="0" width="130" height="171">
<path d="M129.75 0H0.25V170.1H129.75V0Z" fill="white"/>
</mask>
<g mask="url(#mask103_131153_442852)">
<path d="M92.1498 92.3C92.7498 94.7 93.7498 96.8001 95.7498 98.5001C97.9498 100.3 102.25 101.8 102.15 102.8C101.95 104.2 99.3498 106.9 94.0498 108.9C90.8498 110.1 87.1498 106.3 82.1498 109.1C79.5498 110.6 78.4498 113.8 78.3498 114.8C78.2498 115.9 81.6498 112.3 88.9498 116.3C91.9498 118 93.8498 116.2 98.8498 115.9C102.65 115.6 106.95 114.9 110.75 113.3C118.65 110 121.35 105.2 121.65 101.6C121.95 98.4001 116.55 85.6 109.65 77.3" stroke="#292318" stroke-width="1.106" stroke-miterlimit="10" stroke-linecap="round" stroke-linejoin="round"/>
</g>
<mask id="mask104_131153_442852" style="mask-type:alpha" maskUnits="userSpaceOnUse" x="0" y="0" width="130" height="171">
<path d="M129.75 0H0.25V170.1H129.75V0Z" fill="white"/>
</mask>
<g mask="url(#mask104_131153_442852)">
<path d="M92.2499 92.3999C89.8499 94.1999 89.2499 92.8 88.1499 90.7" stroke="#292318" stroke-width="1.106" stroke-miterlimit="10" stroke-linecap="round" stroke-linejoin="round"/>
</g>
<mask id="mask105_131153_442852" style="mask-type:alpha" maskUnits="userSpaceOnUse" x="0" y="0" width="130" height="171">
<path d="M129.75 0H0.25V170.1H129.75V0Z" fill="white"/>
</mask>
<g mask="url(#mask105_131153_442852)">
<path d="M79.8501 87.1001C81.2501 87.4001 83.5501 88.2001 85.2501 89.0001C86.7501 89.7001 87.8501 90.4001 88.4501 90.8001" stroke="#292318" stroke-width="1.106" stroke-miterlimit="10" stroke-linecap="round" stroke-linejoin="round"/>
</g>
<mask id="mask106_131153_442852" style="mask-type:alpha" maskUnits="userSpaceOnUse" x="0" y="0" width="130" height="171">
<path d="M129.75 0H0.25V170.1H129.75V0Z" fill="white"/>
</mask>
<g mask="url(#mask106_131153_442852)">
<path d="M85.15 88.9999C84.15 87.7999 83.05 86.1 81.75 85.2" stroke="#292318" stroke-width="1.106" stroke-miterlimit="10" stroke-linecap="round" stroke-linejoin="round"/>
</g>
<mask id="mask107_131153_442852" style="mask-type:alpha" maskUnits="userSpaceOnUse" x="0" y="0" width="130" height="171">
<path d="M129.75 0H0.25V170.1H129.75V0Z" fill="white"/>
</mask>
<g mask="url(#mask107_131153_442852)">
<path d="M74.1499 73.0999C74.9499 68.6999 77.4499 62.2999 84.3499 60.4999C92.4499 58.2999 98.2499 61.0999 108.05 74.0999C108.75 74.9999 111.25 77.3 108.85 77.7" stroke="#292318" stroke-width="1.106" stroke-miterlimit="10" stroke-linecap="round" stroke-linejoin="round"/>
</g>
<mask id="mask108_131153_442852" style="mask-type:alpha" maskUnits="userSpaceOnUse" x="0" y="0" width="130" height="171">
<path d="M129.75 0H0.25V170.1H129.75V0Z" fill="white"/>
</mask>
<g mask="url(#mask108_131153_442852)">
<path d="M88.6499 90.4999C90.3499 85.1999 94.9499 79 101.35 76.7" stroke="#292318" stroke-width="1.106" stroke-miterlimit="10" stroke-linecap="round" stroke-linejoin="round"/>
</g>
<mask id="mask109_131153_442852" style="mask-type:alpha" maskUnits="userSpaceOnUse" x="0" y="0" width="130" height="171">
<path d="M129.75 0H0.25V170.1H129.75V0Z" fill="white"/>
</mask>
<g mask="url(#mask109_131153_442852)">
<path d="M90.4502 87.1001C90.9502 87.6001 91.4502 87.8001 92.0502 88.2001" stroke="#292318" stroke-width="1.106" stroke-miterlimit="10" stroke-linecap="round" stroke-linejoin="round"/>
</g>
<mask id="mask110_131153_442852" style="mask-type:alpha" maskUnits="userSpaceOnUse" x="0" y="0" width="130" height="171">
<path d="M129.75 0H0.25V170.1H129.75V0Z" fill="white"/>
</mask>
<g mask="url(#mask110_131153_442852)">
<path d="M92.75 83.8L94.15 84.8" stroke="#292318" stroke-width="1.106" stroke-miterlimit="10" stroke-linecap="round" stroke-linejoin="round"/>
</g>
<mask id="mask111_131153_442852" style="mask-type:alpha" maskUnits="userSpaceOnUse" x="0" y="0" width="130" height="171">
<path d="M129.75 0H0.25V170.1H129.75V0Z" fill="white"/>
</mask>
<g mask="url(#mask111_131153_442852)">
<path d="M95.25 81L96.35 82.3" stroke="#292318" stroke-width="1.106" stroke-miterlimit="10" stroke-linecap="round" stroke-linejoin="round"/>
</g>
<mask id="mask112_131153_442852" style="mask-type:alpha" maskUnits="userSpaceOnUse" x="0" y="0" width="130" height="171">
<path d="M129.75 0H0.25V170.1H129.75V0Z" fill="white"/>
</mask>
<g mask="url(#mask112_131153_442852)">
<path d="M70.1501 132.1C71.0501 134.8 72.9502 137 75.5502 137.9C67.9502 139.2 65.0501 141.9 63.2501 144.1C63.0501 144.6 68.8501 144.8 75.3501 145C82.8501 145.3 92.0502 145.7 95.0502 145C98.1502 144.3 95.5501 139.7 94.9501 137.9C92.9501 131.7 90.9501 123.1 93.9501 116.9" stroke="#292318" stroke-width="1.106" stroke-miterlimit="10" stroke-linecap="round" stroke-linejoin="round"/>
</g>
<mask id="mask113_131153_442852" style="mask-type:alpha" maskUnits="userSpaceOnUse" x="0" y="0" width="130" height="171">
<path d="M129.75 0H0.25V170.1H129.75V0Z" fill="white"/>
</mask>
<g mask="url(#mask113_131153_442852)">
<path d="M40.45 126C39.55 129 41.75 135.4 44.05 137.6C38.65 137.4 32.25 142.4 31.85 142.8C29.95 144.5 30.55 144.6 31.85 144.6C33.15 144.6 43.45 144.1 48.95 144C51.15 144 53.85 143.8 56.05 143.8C57.35 143.8 63.75 143.7 62.75 141.4C61.55 138.7 60.25 134.9 60.05 132.8" stroke="#292318" stroke-width="1.106" stroke-miterlimit="10" stroke-linecap="round" stroke-linejoin="round"/>
</g>
<mask id="mask114_131153_442852" style="mask-type:alpha" maskUnits="userSpaceOnUse" x="0" y="0" width="130" height="171">
<path d="M129.75 0H0.25V170.1H129.75V0Z" fill="white"/>
</mask>
<g mask="url(#mask114_131153_442852)">
<path d="M78.4502 114.9C81.1502 111.2 85.8502 110.6 89.0502 111.4" stroke="#292318" stroke-width="1.106" stroke-miterlimit="10" stroke-linecap="round" stroke-linejoin="round"/>
</g>
<mask id="mask115_131153_442852" style="mask-type:alpha" maskUnits="userSpaceOnUse" x="0" y="0" width="130" height="171">
<path d="M129.75 0H0.25V170.1H129.75V0Z" fill="white"/>
</mask>
<g mask="url(#mask115_131153_442852)">
<path d="M92.25 109.1C90.85 110.9 89.45 113.7 91.65 117.1" stroke="#292318" stroke-width="1.106" stroke-miterlimit="10" stroke-linecap="round" stroke-linejoin="round"/>
</g>
<mask id="mask116_131153_442852" style="mask-type:alpha" maskUnits="userSpaceOnUse" x="0" y="0" width="130" height="171">
<path d="M129.75 0H0.25V170.1H129.75V0Z" fill="white"/>
</mask>
<g mask="url(#mask116_131153_442852)">
<path d="M25.75 80.2999C24.55 79.4999 23.15 78.8 21.75 78.2" stroke="#292318" stroke-width="1.106" stroke-miterlimit="10" stroke-linecap="round" stroke-linejoin="round"/>
</g>
<mask id="mask117_131153_442852" style="mask-type:alpha" maskUnits="userSpaceOnUse" x="0" y="0" width="130" height="171">
<path d="M129.75 0H0.25V170.1H129.75V0Z" fill="white"/>
</mask>
<g mask="url(#mask117_131153_442852)">
<path d="M22.75 78.7C22.25 79.1 21.95 79.7999 21.75 80.2999" stroke="#292318" stroke-width="1.106" stroke-miterlimit="10" stroke-linecap="round" stroke-linejoin="round"/>
</g>
<mask id="mask118_131153_442852" style="mask-type:alpha" maskUnits="userSpaceOnUse" x="0" y="0" width="130" height="171">
<path d="M129.75 0H0.25V170.1H129.75V0Z" fill="white"/>
</mask>
<g mask="url(#mask118_131153_442852)">
<path d="M24.8499 36.1999C25.2499 31.3999 26.8499 29.2999 29.7499 27.6999C33.6499 25.5999 35.6499 24.7999 39.9499 24.3999C41.4499 24.2999 43.1499 24.1999 43.3499 22.6999C43.4499 21.9999 43.2499 21.2999 42.5499 20.3999C43.8499 20.3999 45.3499 20.8999 46.4499 21.7999C48.6499 23.5999 51.9499 24.6999 54.5499 24.5999C63.6499 24.2999 69.3499 25.3999 73.7499 33.2999C74.7499 35.0999 76.2499 39.1999 75.2499 43.6999C73.7499 50.3999 72.9499 53.0999 65.7499 58.0999C57.1499 63.9999 39.4499 66.9999 30.5499 55.7999C26.3499 50.5999 24.2499 43.3999 24.8499 36.1999Z" fill="#F1D8B0"/>
</g>
<mask id="mask119_131153_442852" style="mask-type:alpha" maskUnits="userSpaceOnUse" x="0" y="0" width="130" height="171">
<path d="M129.75 0H0.25V170.1H129.75V0Z" fill="white"/>
</mask>
<g mask="url(#mask119_131153_442852)">
<path d="M42.2502 39.5001C39.2502 38.0001 36.8502 45.6001 37.0502 47.7001C37.8502 55.1001 48.7502 54.7001 53.7502 52.2001C61.0502 48.6001 52.1502 36.8001 46.9502 38.9001" fill="#917954"/>
</g>
<mask id="mask120_131153_442852" style="mask-type:alpha" maskUnits="userSpaceOnUse" x="0" y="0" width="130" height="171">
<path d="M129.75 0H0.25V170.1H129.75V0Z" fill="white"/>
</mask>
<g mask="url(#mask120_131153_442852)">
<path d="M24.85 36.2C24.25 41.9 25.85 48.3 27.05 49.2C28.05 49.9 33.05 46.9 36.45 41.8C39.95 36.5 39.65 29.2 38.65 28.3C38.15 27.8 31.55 27 27.85 28.7C26.65 29.3 25.45 31.1 24.85 36.2Z" fill="#917954"/>
</g>
<mask id="mask121_131153_442852" style="mask-type:alpha" maskUnits="userSpaceOnUse" x="0" y="0" width="130" height="171">
<path d="M129.75 0H0.25V170.1H129.75V0Z" fill="white"/>
</mask>
<g mask="url(#mask121_131153_442852)">
<path d="M52.9501 27.4001C50.7501 44.4001 71.0501 53.7001 73.1501 50.7001C74.4501 48.8001 77.0501 40.7001 74.1501 34.2001C72.6501 30.9001 69.4501 27.1001 67.8501 27.1001C64.9501 27.1001 60.6501 26.0001 57.5501 26.7001C55.0501 27.3001 53.1501 26.3001 52.9501 27.4001Z" fill="#917954"/>
</g>
<mask id="mask122_131153_442852" style="mask-type:alpha" maskUnits="userSpaceOnUse" x="0" y="0" width="130" height="171">
<path d="M129.75 0H0.25V170.1H129.75V0Z" fill="white"/>
</mask>
<g mask="url(#mask122_131153_442852)">
<path d="M68.4498 36.4C68.0498 38.2 65.5498 37.9 63.2498 38C60.2498 38 57.2498 37.8 57.6498 34.7C57.8498 32.5 60.4498 31.9 64.1498 32.1C67.8498 32.3 69.0498 34 68.4498 36.4Z" fill="white"/>
</g>
<mask id="mask123_131153_442852" style="mask-type:alpha" maskUnits="userSpaceOnUse" x="0" y="0" width="130" height="171">
<path d="M129.75 0H0.25V170.1H129.75V0Z" fill="white"/>
</mask>
<g mask="url(#mask123_131153_442852)">
<path d="M68.6499 35.5001C67.4499 33.7001 65.2499 33.3001 62.3499 33.6001C59.8499 33.8001 58.4499 34.4001 57.6499 35.3001C57.6499 35.1001 57.6499 34.9001 57.6499 34.7001C57.8499 32.5001 60.4499 31.8001 64.1499 32.1001C67.3499 32.3001 68.7499 33.6001 68.6499 35.5001Z" fill="#D6E3E7"/>
</g>
<mask id="mask124_131153_442852" style="mask-type:alpha" maskUnits="userSpaceOnUse" x="0" y="0" width="130" height="171">
<path d="M129.75 0H0.25V170.1H129.75V0Z" fill="white"/>
</mask>
<g mask="url(#mask124_131153_442852)">
<path d="M61.4499 35.2001C61.5499 34.3001 62.2499 33.6001 63.2499 33.6001C64.1499 33.7001 64.8499 34.4001 64.8499 35.4001C64.7499 36.3001 64.0499 37.0001 63.0499 37.0001C62.0499 36.9001 61.3499 36.1001 61.4499 35.2001Z" fill="#292318"/>
</g>
<mask id="mask125_131153_442852" style="mask-type:alpha" maskUnits="userSpaceOnUse" x="0" y="0" width="130" height="171">
<path d="M129.75 0H0.25V170.1H129.75V0Z" fill="white"/>
</mask>
<g mask="url(#mask125_131153_442852)">
<path d="M68.4498 36.4C68.0498 38.2 65.5498 37.9 63.2498 38C60.2498 38 57.2498 37.8 57.6498 34.7C57.8498 32.5 60.4498 31.9 64.1498 32.1C67.8498 32.3 69.0498 34 68.4498 36.4Z" stroke="#292318" stroke-width="1.106" stroke-miterlimit="10" stroke-linecap="round" stroke-linejoin="round"/>
</g>
<mask id="mask126_131153_442852" style="mask-type:alpha" maskUnits="userSpaceOnUse" x="0" y="0" width="130" height="171">
<path d="M129.75 0H0.25V170.1H129.75V0Z" fill="white"/>
</mask>
<g mask="url(#mask126_131153_442852)">
<path d="M36.1499 36.9C35.9499 38.8 33.9499 39.1 31.7499 39.4C29.1499 39.7 26.45 39.8 26.35 36.8C26.25 34.6 28.4499 33.6 31.7499 33.3C35.0499 32.9 36.3499 34.5 36.1499 36.9Z" fill="white"/>
</g>
<mask id="mask127_131153_442852" style="mask-type:alpha" maskUnits="userSpaceOnUse" x="0" y="0" width="130" height="171">
<path d="M129.75 0H0.25V170.1H129.75V0Z" fill="white"/>
</mask>
<g mask="url(#mask127_131153_442852)">
<path d="M36.1501 36.3999C35.0501 34.4999 33.0501 34.2999 30.5501 34.8999C27.9501 35.5999 26.8501 36.6999 26.5501 37.9999C26.4501 37.5999 26.3501 37.1999 26.3501 36.6999C26.3501 34.4999 28.4501 33.4999 31.7501 33.1999C34.8501 32.9999 36.2501 34.2999 36.1501 36.3999Z" fill="#D6E3E7"/>
</g>
<mask id="mask128_131153_442852" style="mask-type:alpha" maskUnits="userSpaceOnUse" x="0" y="0" width="130" height="171">
<path d="M129.75 0H0.25V170.1H129.75V0Z" fill="white"/>
</mask>
<g mask="url(#mask128_131153_442852)">
<path d="M29.95 36.9001C29.85 36.0001 30.55 35.2001 31.45 35.1001C32.35 35.0001 33.1499 35.7001 33.2499 36.6001C33.3499 37.5001 32.6499 38.3001 31.7499 38.4001C30.8499 38.5001 30.05 37.8001 29.95 36.9001Z" fill="#292318"/>
</g>
<mask id="mask129_131153_442852" style="mask-type:alpha" maskUnits="userSpaceOnUse" x="0" y="0" width="130" height="171">
<path d="M129.75 0H0.25V170.1H129.75V0Z" fill="white"/>
</mask>
<g mask="url(#mask129_131153_442852)">
<path d="M36.1499 36.9C35.9499 38.8 33.9499 39 31.7499 39.4C29.1499 39.8 26.45 39.8 26.35 36.8C26.25 34.6 28.4499 33.6 31.7499 33.3C35.0499 32.9 36.3499 34.5 36.1499 36.9Z" stroke="#292318" stroke-width="1.106" stroke-miterlimit="10" stroke-linecap="round" stroke-linejoin="round"/>
</g>
<mask id="mask130_131153_442852" style="mask-type:alpha" maskUnits="userSpaceOnUse" x="0" y="0" width="130" height="171">
<path d="M129.75 0H0.25V170.1H129.75V0Z" fill="white"/>
</mask>
<g mask="url(#mask130_131153_442852)">
<path d="M40.4499 39.5001C40.3499 38.4001 42.6499 37.4001 45.3499 37.2001C48.1499 37.1001 50.4499 37.9001 50.4499 39.0001C50.5499 40.1001 48.2499 41.1001 45.5499 41.3001C42.7499 41.5001 40.4499 40.7001 40.4499 39.5001Z" fill="#221C15"/>
</g>
<mask id="mask131_131153_442852" style="mask-type:alpha" maskUnits="userSpaceOnUse" x="0" y="0" width="130" height="171">
<path d="M129.75 0H0.25V170.1H129.75V0Z" fill="white"/>
</mask>
<g mask="url(#mask131_131153_442852)">
<path d="M45.4502 40C45.4502 42 45.4502 44 45.7502 45.4" stroke="#292318" stroke-width="1.106" stroke-miterlimit="10" stroke-linecap="round" stroke-linejoin="round"/>
</g>
<mask id="mask132_131153_442852" style="mask-type:alpha" maskUnits="userSpaceOnUse" x="0" y="0" width="130" height="171">
<path d="M129.75 0H0.25V170.1H129.75V0Z" fill="white"/>
</mask>
<g mask="url(#mask132_131153_442852)">
<path d="M40.3501 44.9999C43.9501 45.8999 49.0501 45.1 52.7501 42.7C54.1501 47.5 50.9501 53.8999 40.9501 50.4999C41.8501 48.6999 41.5501 46.9999 40.3501 44.9999Z" fill="#221C15"/>
</g>
<mask id="mask133_131153_442852" style="mask-type:alpha" maskUnits="userSpaceOnUse" x="0" y="0" width="130" height="171">
<path d="M129.75 0H0.25V170.1H129.75V0Z" fill="white"/>
</mask>
<g mask="url(#mask133_131153_442852)">
<path d="M52.5501 47.3999C51.3501 50.5999 47.7501 52.7999 40.9501 50.4999C41.8501 48.6999 41.5501 46.9999 40.3501 44.9999C43.3501 45.7999 47.5501 45.3 51.0501 43.7C51.5501 44.7 52.2501 46.5999 51.0501 46.9999C51.8501 46.7999 52.2501 46.6999 52.5501 47.3999Z" fill="white"/>
</g>
<mask id="mask134_131153_442852" style="mask-type:alpha" maskUnits="userSpaceOnUse" x="0" y="0" width="130" height="171">
<path d="M129.75 0H0.25V170.1H129.75V0Z" fill="white"/>
</mask>
<g mask="url(#mask134_131153_442852)">
<path d="M52.5498 47.4001C52.0498 48.6001 51.2498 49.7001 49.9498 50.5001C50.9498 49.8001 50.5498 49.0001 50.2498 48.4001C49.9498 47.9001 49.3498 47.8001 48.2498 47.9001C48.0498 47.9001 47.7498 47.9001 47.5498 48.0001C47.8498 48.0001 48.0498 47.9001 48.2498 47.8001C49.1498 47.5001 49.6498 46.8001 49.3498 45.8001C49.0498 44.9001 48.2498 44.7001 47.0498 44.9001C48.3498 44.6001 49.7498 44.2001 50.9498 43.6001C51.4498 44.6001 52.1498 46.5001 50.9498 46.9001C51.8498 46.8001 52.2498 46.7001 52.5498 47.4001Z" fill="#D6E3E7"/>
</g>
<mask id="mask135_131153_442852" style="mask-type:alpha" maskUnits="userSpaceOnUse" x="0" y="0" width="130" height="171">
<path d="M129.75 0H0.25V170.1H129.75V0Z" fill="white"/>
</mask>
<g mask="url(#mask135_131153_442852)">
<path d="M42.7502 48.4C41.8502 48.5 41.7502 49.2 41.3502 50.6C41.2502 50.6 41.1502 50.5 41.0502 50.5C41.9502 48.7 41.6502 47 40.4502 45C40.5502 45 40.5502 45 40.6502 45C40.8502 45.3 41.1502 45.8 41.3502 46.2C41.5502 46.7 41.6502 47.2 41.8502 47.7C41.8502 48.2 42.3502 48.4 42.7502 48.4Z" fill="#D6E3E7"/>
</g>
<mask id="mask136_131153_442852" style="mask-type:alpha" maskUnits="userSpaceOnUse" x="0" y="0" width="130" height="171">
<path d="M129.75 0H0.25V170.1H129.75V0Z" fill="white"/>
</mask>
<g mask="url(#mask136_131153_442852)">
<path d="M40.3501 44.9999C43.9501 45.8999 49.0501 45.1 52.7501 42.7C54.1501 47.5 50.9501 53.8999 40.9501 50.4999" stroke="#292318" stroke-width="0.7954" stroke-miterlimit="10" stroke-linecap="round" stroke-linejoin="round"/>
</g>
<mask id="mask137_131153_442852" style="mask-type:alpha" maskUnits="userSpaceOnUse" x="0" y="0" width="130" height="171">
<path d="M129.75 0H0.25V170.1H129.75V0Z" fill="white"/>
</mask>
<g mask="url(#mask137_131153_442852)">
<path d="M73.2502 31.2999C67.3502 26.5999 60.5502 25.9999 52.9502 27.3999" stroke="#292318" stroke-width="3.208" stroke-miterlimit="10" stroke-linecap="round" stroke-linejoin="round"/>
</g>
<mask id="mask138_131153_442852" style="mask-type:alpha" maskUnits="userSpaceOnUse" x="0" y="0" width="130" height="171">
<path d="M129.75 0H0.25V170.1H129.75V0Z" fill="white"/>
</mask>
<g mask="url(#mask138_131153_442852)">
<path d="M22.3501 31.4C28.0501 27.7 31.5501 26.9 39.2501 28.3" stroke="#292318" stroke-width="3.208" stroke-miterlimit="10" stroke-linecap="round" stroke-linejoin="round"/>
</g>
<mask id="mask139_131153_442852" style="mask-type:alpha" maskUnits="userSpaceOnUse" x="0" y="0" width="130" height="171">
<path d="M129.75 0H0.25V170.1H129.75V0Z" fill="white"/>
</mask>
<g mask="url(#mask139_131153_442852)">
<path d="M31.7499 115C31.4499 111.7 33.5499 110.8 33.5499 110.1C33.5499 109.5 30.1499 107.6 28.7499 108.1C27.2499 108.6 27.2499 111.5 28.0499 112.3C27.9499 113.3 28.6499 115.5 30.1499 116.4C31.6499 117.3 32.3499 116.8 31.7499 115Z" fill="#B3AFAC"/>
</g>
<mask id="mask140_131153_442852" style="mask-type:alpha" maskUnits="userSpaceOnUse" x="0" y="0" width="130" height="171">
<path d="M129.75 0H0.25V170.1H129.75V0Z" fill="white"/>
</mask>
<g mask="url(#mask140_131153_442852)">
<path d="M31.7499 115C31.3499 111.8 33.6499 110.8 33.5499 110.1C33.5499 109.5 29.6499 107.8 28.7499 108.1C27.2499 108.7 27.2499 111.5 28.0499 112.3C27.9499 113.3 28.6499 115.5 30.1499 116.4C31.6499 117.3 32.2499 115.9 31.7499 115Z" stroke="#292318" stroke-width="1.106" stroke-miterlimit="10" stroke-linecap="round" stroke-linejoin="round"/>
</g>
<mask id="mask141_131153_442852" style="mask-type:alpha" maskUnits="userSpaceOnUse" x="0" y="0" width="130" height="171">
<path d="M129.75 0H0.25V170.1H129.75V0Z" fill="white"/>
</mask>
<g mask="url(#mask141_131153_442852)">
<path d="M28.0498 112.4C29.0498 110.7 31.3498 110.2 33.5498 110.2" stroke="#292318" stroke-width="1.106" stroke-miterlimit="10" stroke-linecap="round" stroke-linejoin="round"/>
</g>
</g>
</svg>
