<svg width="352" height="327" viewBox="0 0 352 327" fill="none" xmlns="http://www.w3.org/2000/svg">
<g clip-path="url(#clip0_281_3130)">
<path d="M311.31 57.5894C311.31 56.6994 311.29 55.7694 311.24 54.8194C311.24 54.6994 311.24 54.6394 311.24 54.6394C311.24 54.6494 311.24 54.6594 311.24 54.6694C311.12 52.3594 310.83 49.9794 310.13 47.9094C309.85 47.0894 309.5 46.2894 309.1 45.5194C310.11 42.3494 310.38 38.7994 310.37 35.5594C310.37 35.0094 310.35 34.4494 310.32 33.8994C310.32 33.8894 310.32 33.8694 310.32 33.8594V33.8694C309.93 26.2594 306.96 19.1694 299.77 15.6094V22.9394C304.09 25.0894 307.17 28.7694 309.01 33.2394C309.42 34.2294 309.68 35.2794 309.91 36.3194C309.84 36.6494 309.77 36.9494 309.71 37.1894C309.22 39.1094 308.22 40.8094 306.98 42.3194C304.11 38.8394 299.97 36.4894 295.34 36.4694C292.75 36.4594 289.08 36.7294 287.74 39.3494C287.55 39.7194 287.43 40.1494 287.34 40.5994C287.34 40.5794 287.33 40.5594 287.33 40.5394C286.77 42.9794 287.12 44.4394 287.35 45.9994C287.42 46.7394 287.48 47.4394 287.5 48.0294C287.66 53.6294 295.9 55.3594 300.06 54.3894C303.25 53.6494 305.47 51.9594 307.02 49.7594C308.33 51.4394 309.37 53.3294 310.1 55.2194C310.37 55.8994 310.56 56.5994 310.72 57.3094C310.6 57.8694 310.49 58.3694 310.4 58.6294C309.81 60.4094 308.71 61.8994 307.41 63.2094C305.96 61.2494 303.99 59.7194 301.49 59.0294C298.04 58.0694 296.8 61.5394 296.78 64.2394C296.75 67.0794 295.55 73.1494 299.18 74.4994C301.99 75.5494 305.09 73.3294 307.4 70.6094C308.21 71.6494 308.85 72.6594 309.22 73.4194C309.67 74.3494 309.94 75.3594 310.14 76.3694C310.08 76.7294 310.02 77.0794 309.95 77.4394C309.34 80.8194 308.09 84.0794 306.73 87.2194C304.45 92.4694 301.43 97.4594 298 102.049V109.369C302.01 103.999 305.37 98.1194 307.84 91.8994C309.57 87.5494 310.25 83.2094 310.46 78.7394C310.49 78.8694 310.5 78.6794 310.49 78.1594C310.56 76.2794 310.55 74.3694 310.49 72.4194C310.44 70.7894 310.15 69.1094 309.62 67.4994C310.1 66.6694 310.46 65.8894 310.67 65.2394C311.54 62.6094 311.32 60.3294 311.31 57.5894ZM293.71 46.8994C292.42 46.5194 290.93 45.7594 289.72 44.7394C292.27 43.4294 296.39 43.7094 298.52 44.1294C300.11 44.4394 301.58 45.0794 302.91 45.9394C300.13 47.4794 296.84 47.8294 293.71 46.8994ZM298.17 66.5894C298.3 66.0394 298.48 65.4894 298.81 65.3894C300.18 64.9994 301.7 65.5294 303.16 66.5094C301.48 67.3494 299.55 67.7394 298.17 66.5894Z" fill="#69EDED"/>
<path d="M299.78 15.6191V22.9591C304.1 25.1091 307.18 28.7891 309.02 33.2591C309.43 34.2491 309.69 35.2991 309.92 36.3391C310.09 35.5091 310.27 34.5091 310.32 33.8791C309.93 26.2691 306.97 19.1691 299.78 15.6191Z" fill="#3399CC"/>
<path d="M298.58 66.8791C298.91 66.6491 299.27 66.4591 299.67 66.3391C300.71 66.0391 301.78 66.2091 302.81 66.6691C303.59 66.3091 304.34 65.8491 304.95 65.3691C305.81 64.7091 306.66 63.9991 307.43 63.2291C305.98 61.2691 304.01 59.7391 301.51 59.0491C298.06 58.0891 296.82 61.5591 296.8 64.2591C296.8 64.2891 296.8 64.3191 296.8 64.3491C296.94 64.7991 297.17 65.3091 297.38 65.6591C297.72 66.2191 298.13 66.6091 298.58 66.8791Z" fill="#3399CC"/>
<path d="M166.55 273.069C166.54 273.269 166.53 273.459 166.52 273.649C166.55 273.779 166.56 273.589 166.55 273.069Z" fill="#3399CC"/>
<path d="M309.23 73.4398C309.68 74.3698 309.95 75.3798 310.15 76.3898C310.24 75.8798 310.31 75.3598 310.36 74.8398C310.43 76.4298 310.47 77.5298 310.49 78.1698C310.56 76.2898 310.55 74.3798 310.49 72.4298C310.44 70.7998 310.15 69.1198 309.62 67.5098C309.04 68.5198 308.29 69.5998 307.43 70.6098C308.21 71.6198 308.84 72.6298 309.23 73.4398Z" fill="#3399CC"/>
<path d="M310.5 72.8398C310.46 73.3598 310.23 75.8698 310.15 76.3898C310.09 76.7498 310.03 77.0998 309.96 77.4598C309.35 80.8398 308.1 84.0998 306.74 87.2398C304.46 92.4898 301.44 97.4798 298.01 102.07V109.39C302.02 104.02 305.38 98.1398 307.85 91.9198C309.58 87.5698 310.37 83.5598 310.57 79.0898C310.58 78.8998 310.59 78.6998 310.6 78.5098C310.75 76.9598 310.57 74.4298 310.5 72.8398Z" fill="#69EDED"/>
<path d="M310.12 47.9193C309.84 47.0993 309.49 46.2993 309.09 45.5293C308.6 47.0693 307.93 48.5093 307.03 49.7893C308.34 51.4693 309.38 53.3593 310.11 55.2493C310.37 55.9193 310.56 56.6193 310.72 57.3193L311.23 55.1793C311.18 52.6893 310.96 50.3493 310.12 47.9193Z" fill="#3399CC"/>
<path d="M310.33 33.9092C310.43 37.0892 310.26 38.5192 310.01 36.6892C309.98 36.5692 309.95 36.4592 309.93 36.3392C309.86 36.6692 309.79 36.9692 309.73 37.2092C309.24 39.1292 308.24 40.8292 307 42.3392C306.51 42.9392 305.99 43.5092 305.44 44.0492C304.67 44.8092 303.82 45.4392 302.91 45.9392C300.14 47.4792 296.84 47.8292 293.71 46.9092C292.42 46.5292 290.93 45.7692 289.72 44.7492C288.41 43.6492 287.43 42.2292 287.36 40.6292C287.03 42.2392 286.89 44.2592 287.05 46.0292C287.12 46.7692 287.19 47.4592 287.21 48.0492C287.37 53.6492 295.92 55.3892 300.08 54.4192C303.27 53.6792 305.49 51.9892 307.04 49.7892C307.94 48.5192 308.61 47.0692 309.1 45.5292C310.11 42.3592 310.38 38.8092 310.37 35.5692C310.37 35.0092 310.35 34.4592 310.33 33.9092Z" fill="#69EDED"/>
<path d="M289.72 44.7395C292.27 43.4295 296.39 43.7095 298.52 44.1295C300.11 44.4395 301.58 45.0795 302.91 45.9395C303.82 45.4395 304.67 44.8095 305.44 44.0495C305.99 43.5095 306.51 42.9395 307 42.3395C304.13 38.8595 299.99 36.5095 295.36 36.4895C292.77 36.4795 289.1 36.7495 287.76 39.3695C287.57 39.7395 287.45 40.1695 287.36 40.6195C287.43 42.2195 288.41 43.6295 289.72 44.7395Z" fill="#3399CC"/>
<path d="M238.57 171.699C238.45 171.849 238.33 171.999 238.2 172.149C238.15 172.269 238.27 172.119 238.57 171.699Z" fill="#8A3CE5"/>
<path d="M264.73 135.949C264.73 135.949 264.73 135.959 264.73 135.949C264.72 135.969 264.71 135.979 264.71 135.979C264.72 135.969 264.72 135.959 264.73 135.949Z" fill="#8A3CE5"/>
<path d="M282.96 42.4592C283.17 41.1592 282.85 40.5092 282.96 42.4592V42.4592Z" fill="#FFE578"/>
<path d="M275.38 21.7891C276.09 23.2191 276.91 24.5791 277.75 25.9291C279.18 28.2191 280.73 30.5691 281.8 33.0991C281.16 31.4191 280.36 29.8091 279.44 28.2591C277.93 25.7291 275.96 23.1591 274.79 20.3691C274.96 20.8491 275.15 21.3291 275.38 21.7891Z" fill="#FFE578"/>
<path d="M284.46 12.6192C285.36 12.1692 283.64 6.60922 284.46 6.19922C280.39 8.24922 275.25 10.9592 274.21 15.8392C273.59 18.7492 273.71 22.8092 274.42 25.7092C275.3 29.3092 277.9 32.4792 279.76 35.6092C280.88 37.4792 281.83 39.4292 282.51 41.4992C282.53 41.5592 282.54 41.6192 282.56 41.6792C282.68 42.0792 282.79 42.4892 282.87 42.8992C282.84 43.0392 282.8 43.1792 282.75 43.3192C280.76 49.6592 272.72 51.9992 267.84 55.5192C266.53 56.4692 265.36 57.6292 264.59 58.9992L265.31 64.3192C265.36 64.2592 265.4 64.1792 265.45 64.1192C267.18 61.9592 269.84 60.5592 272.2 59.2092C277.38 56.2492 283.06 53.0992 283.3 46.4292C283.33 45.7192 283.35 44.9992 283.37 44.2792C283.37 44.2292 283.37 44.1792 283.37 44.1392C283.39 43.4192 283.39 42.6892 283.38 41.9592C283.38 41.9192 283.38 41.8792 283.38 41.8292C283.37 41.0892 283.34 40.3592 283.29 39.6292C283.29 39.5992 283.29 39.5792 283.28 39.5492C283.2 38.4592 283.07 37.3892 282.85 36.3292C282.06 32.5292 279.77 29.1492 277.75 25.9092C276.9 24.5592 276.09 23.1992 275.38 21.7692C275.15 21.3092 274.96 20.8292 274.78 20.3492C276.45 16.6492 281.16 14.2792 284.46 12.6192Z" fill="#FFE578"/>
<path d="M282.76 43.3294C280.77 49.6694 272.73 52.0094 267.85 55.5294C266.54 56.4794 265.37 57.6394 264.6 59.0094L265.32 64.3294C265.37 64.2694 265.41 64.1894 265.46 64.1294C267.19 61.9694 269.85 60.5694 272.21 59.2194C277.39 56.2594 283.07 53.1094 283.31 46.4394C283.34 45.7294 283.36 45.0094 283.38 44.2894C283.38 44.2394 283.38 44.1894 283.38 44.1494C283.4 43.4294 283.4 42.6994 283.39 41.9694C283.39 41.9294 283.39 41.8894 283.39 41.8394C283.39 41.7594 283.38 41.6894 283.38 41.6094C283.23 42.1594 283.04 42.6694 282.81 43.1694C282.79 43.2294 282.78 43.2794 282.76 43.3294Z" fill="#FFDB1F"/>
<path d="M277.28 17.0992C279.42 15.1592 282.25 13.7292 284.46 12.6192C285.36 12.1692 283.64 6.60922 284.46 6.19922C281.2 7.83922 277.26 9.90922 275.28 13.1692C275.45 13.6092 275.62 14.0492 275.83 14.4792C276.28 15.3792 276.77 16.2392 277.28 17.0992Z" fill="#FFE578"/>
<path d="M274.87 18.3997C274.96 18.7897 275.09 19.1597 275.22 19.5397C275.76 18.6397 276.47 17.8297 277.28 17.0997C276.77 16.2397 276.28 15.3797 275.83 14.4897C275.62 14.0597 275.44 13.6197 275.28 13.1797C274.89 13.8197 274.59 14.4997 274.37 15.2397C274.47 16.3597 274.64 17.4397 274.87 18.3997Z" fill="#FFE578"/>
<path d="M284.46 6.19922C280.95 7.96922 276.64 10.2392 274.86 13.9592C274.58 14.5492 274.35 15.1692 274.21 15.8392C274.09 16.3892 274.01 16.9892 273.94 17.6092C273.99 17.8592 274.04 18.1192 274.1 18.3492C274.27 19.0392 274.51 19.6992 274.79 20.3592C275.26 19.3192 275.97 18.3892 276.81 17.5492C278.99 15.3792 282.09 13.8192 284.46 12.6192C285.36 12.1692 283.64 6.60922 284.46 6.19922Z" fill="#FFDB1F"/>
<path d="M343.17 160.709C336.52 157.819 322.82 152.599 320.48 143.999C320.49 143.989 320.5 143.979 320.5 143.969C321.6 142.479 322.94 141.169 324.31 139.929C327.48 137.039 331.01 134.569 334.46 132.029C340.34 127.679 346.49 124.929 348.47 117.529C349.37 115.469 350.98 108.679 350.81 108.279C351.16 106.119 351.18 103.949 350.38 101.869C348.57 97.1591 343.83 93.7791 339.8 91.1191C340.61 91.6591 336.75 99.3791 337.68 99.9891C341.73 102.669 345.94 105.829 348.09 110.329C348.37 110.929 348.57 111.559 348.72 112.199C348.71 112.219 348.69 112.229 348.69 112.249C344.1 120.919 335.97 123.399 329.59 128.419C326.65 130.739 323.71 133.279 321.69 136.479C320.37 138.569 319.55 141.209 318.97 143.859C318.69 144.939 318.41 146.229 318.38 147.089C318.24 147.959 318.12 148.809 318.02 149.609C316.68 159.979 334.1 166.569 341.06 169.599C340.62 169.399 343.72 160.949 343.17 160.709Z" fill="#FFE578"/>
<path d="M343.17 160.709C336.87 157.969 324.25 153.129 320.95 145.319C320.27 143.799 319.97 142.189 320.19 140.469C320.25 140.039 320.32 139.569 320.38 139.109C319.78 140.609 319.31 142.219 318.96 143.849C318.68 144.929 318.4 146.219 318.37 147.079C318.23 147.949 318.11 148.799 318.01 149.599C316.67 159.969 334.09 166.559 341.05 169.589C340.62 169.399 343.72 160.949 343.17 160.709Z" fill="#FFDB1F"/>
<path d="M350.76 103.219C350.66 102.759 350.54 102.309 350.37 101.859C348.56 97.1494 343.82 93.7694 339.79 91.1094C340.6 91.6494 336.74 99.3694 337.67 99.9794C340.96 102.159 344.33 104.659 346.64 107.919C347.18 108.679 347.67 109.469 348.08 110.319C348.36 110.919 348.56 111.549 348.71 112.189C348.7 112.209 348.69 112.219 348.68 112.239C348.68 112.239 349.86 110.889 350.65 108.399C350.71 108.249 350.78 108.079 350.85 107.889C351.07 106.319 351.1 104.749 350.76 103.219Z" fill="#FFDB1F"/>
<path d="M331.27 30.3293C322.55 36.4493 315.65 45.0693 318.2 56.2893C318.31 56.7593 324.84 56.0693 324.93 56.4693C322.38 45.2493 329.28 36.6392 338 30.5092C337.67 30.7392 335.98 30.3692 335.58 30.3492C335.15 30.3292 333.54 29.9793 333.16 30.2393L331.27 30.3293Z" fill="#FF3E3E"/>
<path d="M109.38 73.7393C109.38 73.7393 109.36 73.7393 109.35 73.7493L109.38 73.7393Z" fill="#FF6E6E"/>
<path d="M34 212.57C31.88 210.81 30.34 208.43 29.09 206.01C26.42 200.8 25.47 194.71 25.66 188.91C25.78 185.16 26.68 181.01 28.54 177.52C29.63 178.09 30.76 178.56 31.93 178.94C32.93 179.26 33.35 179.41 34.08 179.58C37.16 180.49 40.29 181.68 42.62 178.75C44.26 176.69 44.1 173.39 42.5 171.39C41.62 170.29 40.23 170 38.93 169.65C36.92 169.1 34.72 168.22 32.6 168.33C30.44 168.45 28.45 169.42 26.73 170.82C25.98 169.06 25.5 167.17 25.35 165.22C24.63 156.33 30.44 147.23 37.7 142.55C37.38 142.75 35.08 141.82 34.71 141.72C34.31 141.61 32.09 140.71 31.71 140.95C22.62 146.82 16.12 159.48 21.02 169.97C21.72 171.47 22.67 172.78 23.78 173.95C23.06 174.93 22.44 175.96 21.96 176.97C19.51 182.09 19.29 188.19 19.95 193.73C20.62 199.31 22.62 204.95 26.28 209.27C28.46 211.85 31.24 213.18 34.24 214.13C34.67 213.98 35.1 213.86 35.54 213.75C35.01 213.37 34.5 212.98 34 212.57ZM36.89 170.28C37.28 170.89 37.53 171.6 37.68 172.3C38.12 174.37 37.41 176.68 35.78 178.04C35.24 178.5 34.58 178.74 33.9 178.86C33.05 178.34 32.25 177.72 31.48 177.1C30.86 176.61 30.31 176.07 29.79 175.5C31.52 173.06 33.86 171.16 36.89 170.28Z" fill="#00D08F"/>
<path d="M64.3 195.77C64.3 195.77 64.28 195.77 64.27 195.78L64.3 195.77Z" fill="#FF6E6E"/>
<path d="M19.96 193.709C20.63 199.289 22.63 204.929 26.29 209.249C28.28 211.609 30.79 212.929 33.5 213.859C34.9 214.169 36.11 214.349 36.78 214.449C35.78 213.949 34.87 213.279 34.01 212.569C31.89 210.809 30.35 208.429 29.1 206.009C26.43 200.799 25.48 194.709 25.67 188.909C25.79 185.159 26.69 181.009 28.55 177.519C28.89 176.859 28.93 176.729 29.79 175.509C31.53 173.059 33.87 171.159 36.9 170.279C37.95 169.869 39.31 169.909 40.42 170.049C39.94 169.889 39.44 169.769 38.95 169.629C36.94 169.079 34.74 168.199 32.62 168.309C30.46 168.429 28.47 169.399 26.75 170.799C25.24 172.109 23.79 173.929 23.79 173.929C23.07 174.909 22.45 175.939 21.97 176.949C19.52 182.069 19.3 188.179 19.96 193.709Z" fill="#00B77A"/>
<path d="M117.56 8.08984C117.56 8.08984 130.76 11.8998 135.59 27.6398C132.04 27.8898 128.73 30.1798 128.73 30.1798C128.73 30.1798 122.38 13.1698 111.46 15.4498C111.98 12.6698 117.56 8.08984 117.56 8.08984Z" fill="#00D08F"/>
<path d="M35.25 259.209C35.25 259.209 16.49 254.039 9.39999 231.829C14.43 231.409 19.06 228.119 19.06 228.119C19.06 228.119 28.33 252.099 43.75 248.679C43.08 252.649 35.25 259.209 35.25 259.209Z" fill="#FF3E3E"/>
<path d="M101.07 124.229C96.22 128.509 89.75 130.57 89.75 130.57C89.75 130.57 91.85 134.359 91.83 138.279C98.07 136.709 102.66 133.709 105.96 130.579L101.07 124.229Z" fill="#4AC6C6"/>
<path d="M99.07 143.13L105.92 135.26L108.97 143.13H99.07Z" fill="#FF3E3E"/>
<path d="M279.58 93.9893C279.58 93.9893 282.7 83.1893 295.57 79.2393C295.78 82.1493 297.65 84.8493 297.65 84.8493C297.65 84.8493 283.73 90.0393 285.6 98.9693C283.31 98.5593 279.58 93.9893 279.58 93.9893Z" fill="#00D08F"/>
<path d="M312.29 9.22949C312.29 9.22949 321.1 12.4595 323.63 23.4095C321.2 23.4095 318.84 24.8095 318.84 24.8095C318.84 24.8095 315.33 12.9195 307.79 13.9495C308.27 12.0695 312.29 9.22949 312.29 9.22949Z" fill="#00D08F"/>
<path d="M324.78 167.46C324.78 167.46 337.21 174.56 338.22 191.67C334.56 191.05 330.66 192.56 330.66 192.56C330.66 192.56 328.41 173.78 316.8 173.42C318.01 170.71 324.78 167.46 324.78 167.46Z" fill="#FF3E3E"/>
<path d="M209.4 8.52957C209.4 8.52957 205.61 1.76957 202.84 0.80957C203.09 5.70957 200.3 9.34957 196.87 11.9596L201.29 18.6596C207.09 13.8996 209.4 8.52957 209.4 8.52957Z" fill="#3399CC"/>
<path d="M119.17 164.28C123.45 169.13 125.51 175.6 125.51 175.6C125.51 175.6 129.3 173.5 133.22 173.52C131.65 167.28 128.65 162.68 125.52 159.39L119.17 164.28Z" fill="#FF3E3E"/>
<path d="M314.11 128.779L297.53 115.659L319.55 113.949L314.11 128.779Z" fill="#00D08F"/>
<path d="M305.36 159.2L309.9 151.88L313.17 165.11L305.36 159.2Z" fill="#3399CC"/>
<path d="M3.37999 217.71C3.37999 217.71 10.51 208.8 24.13 210.12C23.19 212.93 23.89 216.19 23.89 216.19C23.89 216.19 8.80999 215.63 7.07999 224.74C5.10999 223.45 3.37999 217.71 3.37999 217.71Z" fill="#00D08F"/>
<path d="M92.5 151.029C92.5 151.029 99.4 157.389 97.53 168.479C95.28 167.549 92.57 167.929 92.57 167.929C92.57 167.929 93.9 155.599 86.53 153.659C87.69 152.109 92.5 151.029 92.5 151.029Z" fill="#FF3E3E"/>
<path d="M143.03 28.6299C143.03 28.6299 135.82 18.9799 140.78 5.41992C143.4 7.11992 146.92 7.26992 146.92 7.26992C146.92 7.26992 142.35 22.5299 151.2 26.7099C149.36 28.3899 143.03 28.6299 143.03 28.6299Z" fill="#FFE578"/>
<path d="M333.93 99.2096C333.93 99.2096 322.05 101.26 312.22 90.6896C314.93 89.1296 316.66 86.0596 316.66 86.0596C316.66 86.0596 328.19 97.0496 335.92 91.0696C336.59 93.4696 333.93 99.2096 333.93 99.2096Z" fill="#FFE578"/>
<path d="M191.31 14.8099C191.31 14.8099 179.33 30.1399 156.1 28.1699C157.64 23.3699 156.38 17.8199 156.38 17.8199C156.38 17.8199 182.08 18.4699 184.85 2.91992C188.26 5.05992 191.31 14.8099 191.31 14.8099Z" fill="#69EDED"/>
<path d="M115.04 176.26C115.04 176.26 107.43 177.72 105.64 180.04C110.36 181.35 112.94 185.15 114.33 189.24L122.08 187.16C119.4 180.15 115.04 176.26 115.04 176.26Z" fill="#FFE578"/>
<path d="M5.98999 157.44C5.98999 157.44 10.07 164.03 12.88 164.87C12.42 159.99 15.05 156.23 18.38 153.47L13.68 146.97C8.06999 151.98 5.98999 157.44 5.98999 157.44Z" fill="#FFE578"/>
<path d="M66.24 283.96C66.24 283.96 61.68 277.69 58.82 277.06C59.64 281.89 57.3 285.84 54.19 288.83L59.37 294.96C64.57 289.56 66.24 283.96 66.24 283.96Z" fill="#FFE578"/>
<path d="M38.33 226.389C40 231.279 39.54 236.689 39.54 236.689C39.54 236.689 42.98 236.31 45.87 237.52C46.63 232.43 45.82 228.119 44.53 224.729L38.33 226.389Z" fill="#4AC6C6"/>
<path d="M112.95 119.37L111.38 116.27L107.94 116.8L110.41 114.35L108.84 111.24L111.94 112.83L114.4 110.38L113.85 113.82L116.94 115.41L113.51 115.94L112.95 119.37Z" fill="#FF3E3E"/>
<path d="M326.21 75.2499L322.75 74.8899L321.34 78.0699L320.61 74.6699L317.16 74.3099L320.16 72.5699L319.44 69.1699L322.02 71.4899L325.03 69.7399L323.62 72.9199L326.21 75.2499Z" fill="#FF3E3E"/>
<path d="M258.57 24.1395L255.94 17.0095L248.34 17.2995L254.32 12.5895L251.69 5.45949L258.01 9.68949L263.99 4.97949L261.92 12.2995L268.24 16.5295L260.64 16.8195L258.57 24.1395Z" fill="#00D08F"/>
<path d="M135.96 39.7298L134.87 36.7798L131.73 36.8998L134.2 34.9498L133.11 31.9998L135.73 33.7498L138.2 31.7998L137.34 34.8298L139.96 36.5798L136.81 36.6998L135.96 39.7298Z" fill="#69EDED"/>
<path d="M106.93 201.209L101.74 200.369L99.33 205.039L98.53 199.839L93.35 198.999L98.04 196.629L97.24 191.439L100.94 195.169L105.63 192.809L103.23 197.479L106.93 201.209Z" fill="#FFE578"/>
<path d="M281.34 73.5496L280.76 70.2096L277.41 69.7296L280.41 68.1496L279.83 64.8096L282.26 67.1696L285.26 65.5896L283.76 68.6296L286.2 70.9996L282.84 70.5096L281.34 73.5496Z" fill="#FFE578"/>
<path d="M31.213 271.832L27.5423 272.371L28.823 281.098L32.4936 280.559L31.213 271.832Z" fill="#00D08F"/>
<path d="M269.376 69.1776L261.866 71.7852L262.965 74.9499L270.475 72.3423L269.376 69.1776Z" fill="#FFE578"/>
<path d="M334.374 51.4423L331.032 51.6748L331.584 59.6057L334.926 59.3732L334.374 51.4423Z" fill="#00D08F"/>
<path d="M65.14 132.63L68.11 136.23L60.75 135.62L65.14 132.63Z" fill="#FF3E3E"/>
<path d="M112.512 152.806L105.222 155.977L106.558 159.049L113.848 155.878L112.512 152.806Z" fill="#FFE578"/>
<path d="M40.219 153.547L36.9045 154.033L38.0581 161.899L41.3726 161.413L40.219 153.547Z" fill="#FFDB1F"/>
<path d="M267.28 190.059L263.87 189.919L267.88 186.619L267.28 190.059Z" fill="#FFE578"/>
<path d="M148.804 36.875L140.938 38.0293L141.424 41.3438L149.29 40.1894L148.804 36.875Z" fill="#00D08F"/>
<path d="M133.306 48.3678L125.955 51.3936L127.23 54.4913L134.581 51.4655L133.306 48.3678Z" fill="#FFE578"/>
<path d="M282.06 11.3794L278.65 11.5794L282.32 7.89941L282.06 11.3794Z" fill="#FFE578"/>
<path d="M269.609 35.994L268.627 43.8828L271.951 44.2965L272.933 36.4077L269.609 35.994Z" fill="#FFE578"/>
<path d="M345.45 144.299L342.56 149.619L336.84 142.409L345.45 144.299Z" fill="#3399CC"/>
<path d="M21.61 134.21C21.61 134.21 26.17 136.12 27.24 141.96C25.96 141.9 24.68 142.58 24.68 142.58C24.68 142.58 23.12 136.23 19.12 136.59C19.43 135.61 21.61 134.21 21.61 134.21Z" fill="#FF3E3E"/>
<path d="M258.29 43.2699C260.262 43.2699 261.86 41.6715 261.86 39.6999C261.86 37.7282 260.262 36.1299 258.29 36.1299C256.318 36.1299 254.72 37.7282 254.72 39.6999C254.72 41.6715 256.318 43.2699 258.29 43.2699Z" fill="#3399CC"/>
<path d="M304.53 136.87C306.33 136.87 307.79 135.41 307.79 133.61C307.79 131.809 306.33 130.35 304.53 130.35C302.73 130.35 301.27 131.809 301.27 133.61C301.27 135.41 302.73 136.87 304.53 136.87Z" fill="#FFE266"/>
<path d="M338.81 77.6396C340.351 77.6396 341.6 76.3904 341.6 74.8496C341.6 73.3087 340.351 72.0596 338.81 72.0596C337.269 72.0596 336.02 73.3087 336.02 74.8496C336.02 76.3904 337.269 77.6396 338.81 77.6396Z" fill="#00D08F"/>
<path d="M44.29 291.639C46.7587 291.639 48.76 289.638 48.76 287.169C48.76 284.701 46.7587 282.699 44.29 282.699C41.8213 282.699 39.82 284.701 39.82 287.169C39.82 289.638 41.8213 291.639 44.29 291.639Z" fill="#FFDB1F"/>
<path d="M78.72 161.899C80.1117 161.899 81.24 160.771 81.24 159.379C81.24 157.988 80.1117 156.859 78.72 156.859C77.3282 156.859 76.2 157.988 76.2 159.379C76.2 160.771 77.3282 161.899 78.72 161.899Z" fill="#FFDB1F"/>
<path d="M114.25 129.719C115.697 129.719 116.87 128.546 116.87 127.1C116.87 125.653 115.697 124.479 114.25 124.479C112.803 124.479 111.63 125.653 111.63 127.1C111.63 128.546 112.803 129.719 114.25 129.719Z" fill="#FFE578"/>
<path d="M89.75 183.469C91.2301 183.469 92.43 182.269 92.43 180.789C92.43 179.309 91.2301 178.109 89.75 178.109C88.2699 178.109 87.07 179.309 87.07 180.789C87.07 182.269 88.2699 183.469 89.75 183.469Z" fill="#FF3E3E"/>
<path d="M12.18 195.19C13.7153 195.19 14.96 193.945 14.96 192.41C14.96 190.875 13.7153 189.63 12.18 189.63C10.6446 189.63 9.39999 190.875 9.39999 192.41C9.39999 193.945 10.6446 195.19 12.18 195.19Z" fill="#3399CC"/>
<path d="M50.63 274.259L48.05 267.189L40.53 267.459L46.45 262.829L43.87 255.759L50.11 259.959L56.04 255.319L53.97 262.559L60.21 266.759L52.69 267.029L50.63 274.259Z" fill="#00D08F"/>
<path d="M131.53 293.07C131.53 293.32 133.33 295.09 133.34 295.33C129.79 302.31 120.59 312.49 111.91 312.66C104.03 312.82 94.19 305.46 87.31 293.73C66.49 258.19 64.67 219.72 60.05 210.53C57.56 205.56 54.5 201.4 54.05 196.9C53.87 195.08 54.04 190.83 58.53 190.7C61.16 188.07 63.6 186.15 65.89 188.05C71.64 192.79 75.47 201.39 79.8 208.28C84.23 215.34 96.44 228.96 108.92 250.39C114.35 239.14 118.96 231.54 123.56 224.54C127.11 228.05 135.97 234.84 143.52 238C143.53 237.97 143.53 237.94 143.54 237.9C143.65 240.68 144.06 243.22 144.93 245.32C136.3 264.01 131.82 286.1 131.53 293.07Z" fill="#CAA77A"/>
<path d="M76.83 203.189C72.86 207.899 64.66 210.069 60.52 210.319C58.04 205.349 54.98 201.199 54.53 196.709C54.34 194.889 54.52 190.629 59.01 190.489C59.73 186.049 64.07 185.939 66.37 187.839C70.84 191.549 74.26 197.239 76.83 203.189Z" fill="#B6B1AE"/>
<path d="M156.1 193.03C155.67 195.81 155.08 199.1 154.65 201.23C153.9 201.29 151.42 204.02 150.8 204.96C149.6 206.78 151.34 208.85 151.1 209.85C150.9 210.7 147.43 233.34 144.95 245.33C131.63 241.7 121.16 234.65 117.61 231.14C117.35 230.88 117.09 230.67 116.87 230.45C115.85 229.46 121.5 221.87 123.61 216.16C131.94 193.72 145.78 191.57 156.09 193.04L156.1 193.03Z" fill="#FFDB1F"/>
<path d="M335.09 233.16C334.48 236.43 309.44 263.98 309.67 275.97C309.88 286.8 313.71 305.18 311.14 314.32C266.17 314.32 159.93 314.32 128.55 314.32C128.25 312.42 129.25 302.21 130.47 293.25C133.03 274.37 136.2 259.66 144.98 245.32C143.71 242.25 143.4 238.2 143.63 233.89C144.33 221.66 149.49 207.23 149.57 206.36C149.67 205.34 147.64 203.54 148.56 201.57C149.04 200.55 151.09 197.49 151.82 197.32C152.04 197.26 152.14 197.47 152.05 198.05C161.95 200.9 171.9 202.58 181.35 203.44C185.51 203.77 189.97 203.99 192.85 204.14C195.96 204.3 201.66 204.71 207.36 204.48C224.78 203.79 237.42 200.81 239.85 199.57C244.36 197.56 256.23 194.71 264.96 188.15C267.55 186.2 268.93 182.57 271.06 180.83C276.85 176.08 285.06 175.72 291.35 176.48C292.96 176.67 295.39 177.44 296.6 177.92C312.08 184.04 327.11 204.48 332.59 226.09C333.24 228.7 335.89 228.87 335.09 233.16Z" fill="#FFDB1F"/>
<path opacity="0.23" d="M136.24 263.38C139.62 259.35 145.46 256.79 147.49 255.51C151.8 252.79 157.13 252.54 161.91 253.22C174.84 255.07 198.28 262.38 211.49 264.12C235.61 267.29 256.53 258.4 254.06 254.8C251.98 251.78 215.94 260.83 202.37 256.12C190.32 251.94 171.46 251.21 159.06 249.14C156.09 248.64 146.35 246.15 143.85 241.64C143.94 243.61 144.33 244.2 144.98 245.32C143.85 247.78 140.32 252.2 136.24 263.38Z" fill="#3F2719"/>
<path d="M291.65 175.94C285.36 175.18 276.91 176.2 270.74 181.07C268.34 182.97 266.3 187.57 263.46 189.43C254.62 195.24 244.04 197.78 239.68 199.73C237.25 200.97 224.6 203.84 207.19 204.64C196.87 205.11 190.97 205.09 181.18 204.06C171.74 203.06 161.78 201.52 151.88 198.67C151.97 198.09 151.87 197.87 151.65 197.94C151.77 195.77 151.86 192.44 151.88 189.62H151.87C151.88 186.94 151.82 184.51 151.6 184.44C150.87 184.57 150.37 185.29 150.12 186.12C148.12 182.44 151.01 179.35 150.75 177.27C150.7 176.8 149.53 177.42 148.78 179.04C148.46 175.95 149.64 175.01 149.48 173.9C149.16 171.65 147.74 169.35 146.74 167.37C135.44 144.74 114.22 100.71 147.82 69.9197C145.59 66.8397 141.02 68.5397 141.02 68.5197C141.02 63.9997 148.26 59.2197 158.13 60.3197C158.45 59.8297 154.81 56.2997 158.48 51.4197C159.11 55.0197 162.39 58.4497 163.19 56.6597C165.35 46.8897 171.54 41.4597 180.48 39.7197C177.69 42.1597 176.49 47.4297 177.87 52.1197C177.9 52.1197 180.69 46.0297 183.98 44.6097C181.03 50.3297 183.88 53.3697 185.65 53.7997C187.05 54.1497 193.04 50.9897 192.88 48.0997C194.6 48.6697 194.28 52.2397 209.3 57.1697C273.08 78.1197 291.59 138.51 291.65 175.94Z" fill="#CAA77A"/>
<path d="M217.15 275.029C217 274.809 216.86 274.589 216.71 274.369Z" fill="#B6B1AE"/>
<path d="M132.52 103.389C134.65 94.7395 145.34 88.2795 151.82 83.8295C159.38 78.6295 186.83 73.2495 181.4 65.4395C190.89 66.6495 197.74 75.0694 205.96 75.0994C214.54 75.1294 233.75 80.2395 247.89 100.289C250.73 104.319 263.23 139.199 235.85 157.519C214.91 171.519 166.02 175.939 144.6 148.879C134.56 136.199 129.68 119.569 132.52 103.389Z" fill="#FFDBAF"/>
<path d="M176.5 101.61C169.27 97.9998 163.69 116.09 163.1 121.34C161.59 134.67 166.07 141.55 173.89 143.89C181.71 146.23 191.58 144.97 199.21 140.09C218.44 127.79 197.98 95.9098 185.41 100.94" fill="#9D7B51"/>
<path d="M134.98 131.749C147.73 130.719 178 116.189 162.22 77.7891C153.59 78.9491 145.5 81.9291 135.64 90.6791C129.17 104.919 131.21 120.019 134.98 131.749Z" fill="#9D7B51"/>
<path d="M202.83 77.7998C190.25 137.15 252.38 132.76 252.38 132.76C252.38 132.76 257.45 110.59 244.43 93.9198C236.47 83.7298 219.83 76.6198 202.83 77.7998Z" fill="#9D7B51"/>
<path d="M169.83 177.67L169.79 183.67" stroke="#9D7B51" stroke-width="3.87" stroke-miterlimit="10" stroke-linecap="round" stroke-linejoin="round"/>
<path d="M163.77 180.79L163.73 186.78" stroke="#9D7B51" stroke-width="3.87" stroke-miterlimit="10" stroke-linecap="round" stroke-linejoin="round"/>
<path opacity="0.23" d="M142.17 66.6494C142.05 66.7194 141.95 66.7794 141.88 66.8394C141.83 66.8794 141.81 66.9594 141.81 67.0794" fill="#3F2719"/>
<path opacity="0.23" d="M335.09 233.17C334.97 233.82 333.89 235.41 332.25 237.64C332.2 237.52 332.15 237.39 332.1 237.27C329.36 239.97 325.23 242.4 320.49 244.51C323.41 240.72 319.68 234.6 316.33 233.89C313.86 223.69 309.38 209.32 302.28 196.91C293.3 181.18 279.42 175.97 269.6 182.42C270.06 181.82 270.54 181.29 271.05 180.85C276.84 176.11 285.05 175.74 291.34 176.51C292.96 176.7 295.38 177.47 296.59 177.94C312.07 184.07 327.09 204.5 332.58 226.11C333.24 228.7 335.89 228.87 335.09 233.17Z" fill="#3F2719"/>
<path d="M207.35 204.679C224.76 203.899 233.06 201.879 239.84 199.759C245.83 197.889 251.21 195.829 255.96 193.539" stroke="#2D1F04" stroke-width="2.62" stroke-miterlimit="10" stroke-linecap="round" stroke-linejoin="round"/>
<path d="M152.04 198.699C161.93 201.539 171.86 203.219 181.31 204.089" stroke="#2D1F04" stroke-width="2.62" stroke-miterlimit="10" stroke-linecap="round" stroke-linejoin="round"/>
<path d="M152.03 198.769C152.14 198.129 152.04 197.909 151.81 197.969C151.08 198.139 149.03 201.199 148.55 202.219C147.63 204.199 149.65 205.989 149.56 207.009C149.45 208.179 140.06 234.169 144.97 245.969" stroke="#2D1F04" stroke-width="2.62" stroke-miterlimit="10" stroke-linecap="round" stroke-linejoin="round"/>
<path d="M171.33 102.02C171.22 99.5895 175.64 97.3695 181.2 97.0795C186.76 96.7795 191.37 98.5195 191.48 100.95C191.59 103.38 187.17 105.6 181.61 105.89C176.04 106.19 171.44 104.46 171.33 102.02Z" fill="#251707"/>
<path d="M179.07 213.719C167.12 212.609 155.93 210.279 150.05 206.409" stroke="#2D1F04" stroke-width="2.62" stroke-miterlimit="10" stroke-linecap="round" stroke-linejoin="round"/>
<path d="M254.25 205.479C241.8 211.459 229.72 214.03 210.31 213.96" stroke="#2D1F04" stroke-width="2.62" stroke-miterlimit="10" stroke-linecap="round" stroke-linejoin="round"/>
<path d="M158.46 200.8C157.89 202.51 157.29 203.83 157.29 205.71" stroke="#2D1F04" stroke-width="2.62" stroke-miterlimit="10" stroke-linecap="round" stroke-linejoin="round"/>
<path d="M168.97 202.909C168.19 204.479 168.04 206.549 168.04 208.279" stroke="#2D1F04" stroke-width="2.62" stroke-miterlimit="10" stroke-linecap="round" stroke-linejoin="round"/>
<path d="M220.36 204.539V205.009V205.479V206.409V206.879" stroke="#2D1F04" stroke-width="2.62" stroke-miterlimit="10" stroke-linecap="round" stroke-linejoin="round"/>
<path d="M223.87 204.539V205.239V205.939V206.409" stroke="#2D1F04" stroke-width="2.62" stroke-miterlimit="10" stroke-linecap="round" stroke-linejoin="round"/>
<path d="M151.84 192.46C151.98 188.91 152.04 184.56 151.77 184.46C151.04 184.59 150.54 185.309 150.29 186.149C148.29 182.469 151.18 179.379 150.92 177.299C150.86 176.829 149.69 177.449 148.95 179.079C148.63 175.979 149.82 175.049 149.66 173.929C149.34 171.679 147.91 169.389 146.92 167.399C135.61 144.769 114.39 100.729 148 69.9395C145.76 66.8595 141.19 68.5595 141.19 68.5395C141.19 64.0295 148.43 59.2395 158.3 60.3295C158.62 59.8495 154.98 56.3095 158.65 51.4295C159.28 55.0295 162.57 58.4595 163.36 56.6695C165.52 46.8995 171.71 41.4695 180.64 39.7295C177.85 42.1695 176.64 47.4495 178.02 52.1295C178.02 52.1995 180.81 46.0595 184.13 44.6195C180.75 49.7595 183.87 53.3295 185.64 53.7695C187.04 54.1195 193.19 50.9995 193.04 48.1095C194.76 48.6795 194.45 52.2595 209.45 57.1895C273.34 78.1795 291.69 138.529 291.69 175.949" stroke="#2D1F04" stroke-width="2.62" stroke-miterlimit="10" stroke-linecap="round" stroke-linejoin="round"/>
<path d="M151.56 196.9C151.64 196.48 151.76 194.62 151.85 192.46" stroke="#2D1F04" stroke-width="2.62" stroke-miterlimit="10" stroke-linecap="round" stroke-linejoin="round"/>
<path opacity="0.23" d="M193.29 268.149C193.12 268.069 192.95 267.979 192.78 267.899Z" fill="#3F2719"/>
<path d="M266.16 186.639C270.45 177.739 281.87 176.089 288.22 176.199C306.35 176.529 326.28 200.539 332.58 226.099C333.82 227.239 334.77 229.399 335.07 231.129C335.78 235.289 332.38 237.239 330.18 238.359" stroke="#2D1F04" stroke-width="2.62" stroke-miterlimit="10" stroke-linecap="round" stroke-linejoin="round"/>
<path opacity="0.23" d="M291.65 175.939C285.69 175.219 277.94 175.769 272.98 181.069C270.7 152.819 267.47 114.099 245.95 89.3092C230.79 71.8492 212.24 65.0492 196.27 63.6392C194.9 63.5192 192.42 61.3692 190.43 61.5892C190.75 62.5392 190.05 63.3492 188.99 63.3592C187.53 63.3792 184.56 62.6692 185.07 60.0592C182.22 60.3992 181.49 63.7892 179.93 63.9792C178.33 64.1792 175.88 60.6992 172.29 61.0392C174.22 63.7892 171.58 66.0592 169.58 66.8492C167.19 67.7992 165.67 66.6292 166.26 65.1092C163.77 65.4292 162.96 67.7792 157.86 70.2192C150.02 73.9692 142.33 78.8692 135.86 85.1892C138.68 79.8592 142.6 74.7092 147.86 69.8992C145.63 66.8192 141.06 68.5192 141.06 68.4992C141.06 63.9792 148.3 59.1992 158.17 60.2992C158.49 59.8092 154.86 56.2792 158.52 51.3992C159.15 54.9992 162.43 58.4292 163.23 56.6392C165.39 46.8692 171.58 41.4392 180.52 39.6992C177.73 42.1392 176.53 47.4092 177.91 52.0992C177.94 52.0992 180.73 46.0092 184.02 44.5892C181.03 50.1292 183.91 53.3492 185.69 53.7792C187.09 54.1292 193.08 50.9692 192.93 48.0792C194.65 48.6492 194.33 52.2192 209.35 57.1492C273.08 78.1192 291.59 138.509 291.65 175.939Z" fill="#3F2719"/>
<path d="M168.93 79.6992C142.1 80.2292 126.55 100.729 126.55 100.729" stroke="#2D1F04" stroke-width="7.6" stroke-miterlimit="10" stroke-linecap="round" stroke-linejoin="round"/>
<path d="M196.86 77.6891C233.87 77.3391 247.84 97.2391 247.84 97.2391" stroke="#2D1F04" stroke-width="7.6" stroke-miterlimit="10" stroke-linecap="round" stroke-linejoin="round"/>
<path d="M245.75 75.1897C243.77 80.7497 224.46 76.6597 208.22 70.1997C204.86 68.8597 201.64 67.4297 198.73 65.9497C190.28 61.6897 184.46 57.1097 185.64 53.7797L190.61 49.3897L206.03 35.7697L218.23 24.9897L223.15 20.6397L236.12 9.17969L237.92 21.4997L240.79 41.1497L245.75 75.1897Z" fill="#3399CC"/>
<path d="M207.39 40.9195C207.39 46.7295 202.67 51.4395 196.86 51.4395C194.52 51.4395 192.37 50.6795 190.62 49.3895L206.04 35.7695C206.9 37.2995 207.39 39.0495 207.39 40.9195Z" fill="#FFDB1F"/>
<path d="M228.48 25.7791C228.48 28.6291 226.16 30.9291 223.33 30.9291C220.48 30.9291 218.17 28.6191 218.17 25.7791C218.17 25.5091 218.19 25.2491 218.24 24.9791L223.16 20.6291C223.21 20.6191 223.28 20.6191 223.33 20.6191C226.16 20.6291 228.48 22.9291 228.48 25.7791Z" fill="#FFDB1F"/>
<path d="M233.97 64.0296C238.035 64.0296 241.33 60.7344 241.33 56.6696C241.33 52.6048 238.035 49.3096 233.97 49.3096C229.905 49.3096 226.61 52.6048 226.61 56.6696C226.61 60.7344 229.905 64.0296 233.97 64.0296Z" fill="#FFDB1F"/>
<path d="M240.79 41.139C236.75 39.229 233.97 35.119 233.97 30.359C233.97 26.839 235.5 23.679 237.92 21.499L240.79 41.139Z" fill="#FFDB1F"/>
<path d="M213.75 62.6696C213.75 66.1996 211.42 69.1896 208.23 70.1896C204.87 68.8496 201.65 67.4196 198.74 65.9396C198.27 64.9396 198.02 63.8396 198.02 62.6696C198.02 58.3196 201.55 54.8096 205.89 54.8096C210.22 54.8096 213.75 58.3196 213.75 62.6696Z" fill="#FFDB1F"/>
<path opacity="0.23" d="M151.1 209.84C150.89 210.7 146.04 226 143.56 238C143.55 237.97 143.55 237.94 143.55 237.91C143.54 237.94 143.54 237.96 143.53 237.99C143.54 237.99 143.55 238 143.56 238C143.67 240.75 144.09 243.25 144.94 245.32C136.3 264.01 131.81 286.1 131.53 293.07C131.53 293.32 133.32 295.08 133.34 295.33C129.79 302.3 120.59 312.48 111.91 312.66C104.03 312.81 94.19 305.46 87.32 293.72C66.5 258.18 64.69 219.71 60.07 210.52C57.58 205.55 54.52 201.4 54.07 196.89C53.88 195.07 54.06 190.82 58.55 190.68C60.2 198.04 64.05 203.02 66.2 209.27C68.64 216.36 69.43 224.89 72.34 236.75C77.82 259.12 86.16 275.84 98.11 293.59C110.04 311.32 121.81 292.49 125.32 282.71C129.86 270.06 135.48 252.93 136.77 245.33C137.19 242.91 138.01 238.54 138.55 235.6C138.57 235.49 138 235.34 138.02 235.23C138.02 235.23 138.01 235.22 138.02 235.21C139.15 229.04 140.95 222.09 144.87 215.63L150.9 208.66C151.06 209.13 151.17 209.53 151.1 209.84Z" fill="#3F2719"/>
<path opacity="0.32" d="M236.13 9.16992L200.35 66.7499C196 64.6499 192.24 62.4499 189.59 60.3399L236.13 9.16992Z" fill="white"/>
<path d="M245.75 75.1899L236.13 9.16992L185.65 53.7799C182.08 63.7999 242.18 85.2099 245.75 75.1899Z" stroke="#2D1F04" stroke-width="2.62" stroke-miterlimit="10" stroke-linecap="round" stroke-linejoin="round"/>
<path opacity="0.23" d="M245.75 75.1997C244.7 78.1597 235.34 80.4197 207.48 69.8997C223.08 73.9097 231.26 71.7397 231.68 66.0497C232.76 51.4697 236.13 9.17969 236.13 9.17969L245.75 75.1997Z" fill="#3F2719"/>
<path d="M136.37 105.369C137.91 100.089 142.96 95.6992 148.67 95.6392C150.63 95.5792 152.62 96.1292 154.29 97.1292C156.51 98.4192 158.11 100.339 159.21 102.369C159.55 103.009 159.32 103.799 158.68 104.149C158.16 104.429 157.53 104.319 157.13 103.929C155.59 102.589 154.07 101.419 152.46 100.759C147.13 98.5192 141.85 102.299 138.7 106.549C137.84 107.679 135.96 106.729 136.37 105.369Z" fill="#2D1F04"/>
<path d="M233.62 102.79C227.31 95.9496 220.04 94.4996 213.33 101.75C212.37 102.82 210.58 101.7 211.12 100.38C212.91 95.3096 218.26 91.2596 223.89 92.0796C229.33 92.6996 233.95 96.5396 235.86 101.47C236.39 102.83 234.54 103.9 233.62 102.79Z" fill="#2D1F04"/>
<path d="M192.41 128.029C190.52 132.659 187.03 135.579 182.03 136.299C176.83 137.039 173.92 134.299 172.57 129.179C171.81 126.269 171.55 122.579 171.68 118.319C175.16 119.189 180.18 117.989 180.72 113.899C181.88 119.209 189.67 119.819 194.03 117.409C194.15 121.549 193.59 125.119 192.41 128.029Z" fill="#251707"/>
<path d="M192.41 128.029C190.52 132.659 187.03 135.579 182.03 136.299C176.83 137.039 173.92 134.299 172.57 129.179C174.67 127.069 178.69 125.879 182.57 127.419C184.83 125.649 189.8 125.609 192.41 128.029Z" fill="#FF8A8A"/>
<path opacity="0.23" d="M192.41 128.019C190.52 132.649 187.03 135.569 182.03 136.299C178.12 136.859 175.51 135.449 173.88 132.539C176.95 133.859 180.64 133.839 182.57 132.829C184.92 131.609 187.51 128.839 188.32 126.239C189.85 126.449 191.34 127.019 192.41 128.019Z" fill="#3F2719"/>
<path d="M194.04 117.419C194.08 119.009 194.1 119.759 193.94 121.189C189.83 123.509 175.04 124.499 171.69 122.329C171.62 120.869 171.64 119.969 171.69 118.329C175.17 119.199 180.19 117.999 180.73 113.909C181.89 119.209 189.67 119.829 194.04 117.419Z" fill="white"/>
<path d="M193.94 121.189C189.83 123.509 175.04 124.499 171.68 122.319C171.61 120.859 171.64 119.969 171.68 118.319C173.11 118.679 174.81 118.689 176.35 118.269L176.39 118.709C173.12 119.209 173.72 120.559 173.68 121.439C173.61 122.749 175.55 123.069 178.68 123.169C181.8 123.269 185.35 122.859 187.08 122.599C188.82 122.349 189.1 121.959 189 121.279C188.82 119.919 184.93 120.889 183.33 118.089L183.45 117.549C186.41 119.299 191.04 119.069 194.03 117.409C194.08 119.009 194.1 119.759 193.94 121.189Z" fill="#D3E5EA"/>
<path d="M194.04 117.42C194.31 128.12 190.17 135.13 182.03 136.3C178.36 136.83 175.83 135.62 174.19 133.05C172.19 129.92 173.89 124.56 171.69 118.32" stroke="#2D1F04" stroke-width="2.6" stroke-miterlimit="10" stroke-linecap="round" stroke-linejoin="round"/>
<path d="M181.07 128.709C182.27 127.449 183.79 126.299 186.44 126.139C189.49 125.959 191.2 126.869 192.41 128.019" stroke="#2D1F04" stroke-width="2.6" stroke-miterlimit="10" stroke-linecap="round" stroke-linejoin="round"/>
<path d="M173.13 129.179C174.63 127.379 178.28 125.709 182.57 127.419" stroke="#2D1F04" stroke-width="2.6" stroke-miterlimit="10" stroke-linecap="round" stroke-linejoin="round"/>
<path d="M168.93 116.289C171.33 119.639 180 119.269 180.73 112.939C182.27 121.079 195.37 119.719 196.87 113.299" stroke="#2D1F04" stroke-width="2.6" stroke-miterlimit="10" stroke-linecap="round" stroke-linejoin="round"/>
<path d="M119.23 271.46C107.06 242.71 84.49 216.2 79.81 208.28C75.66 201.27 71.67 192.79 65.93 188.05C63.63 186.15 61.2 188.06 58.56 190.69C54.07 190.83 53.89 195.08 54.08 196.9C54.54 201.4 57.6 205.55 60.09 210.53C64.71 219.72 65.51 258.8 87.32 293.74C96 307.64 104.03 312.83 111.92 312.67C119.2 312.52 125.25 306.75 129.5 301.22" stroke="#2D1F04" stroke-width="2.62" stroke-miterlimit="10" stroke-linecap="round" stroke-linejoin="round"/>
<path d="M108.92 250.39C112.45 243.06 115.6 237.36 118.64 232.35" stroke="#2D1F04" stroke-width="2.62" stroke-miterlimit="10" stroke-linecap="round" stroke-linejoin="round"/>
<path d="M111.39 55.0895C112.88 85.6095 93.62 125.39 64.77 130.66C63.59 130.88 62.39 131.04 61.18 131.13C59.82 131.24 58.47 131.28 57.11 131.24H57.1C41.62 130.86 26.82 121.33 16.26 106.72C6.83999 93.6696 0.819994 76.5696 0.729994 58.2896C0.549994 17.7596 24.2 0.649548 54.11 0.0595484C70.1 -0.250452 82.31 3.55955 91.27 10.3295C104.3 20.1695 110.47 36.2595 111.39 55.0895Z" fill="#FFDB1F"/>
<g opacity="0.68">
<path d="M34.8 46.8701C39.95 47.0101 44.99 47.0501 50.03 47.3101C54.16 47.5301 55.64 50.5301 55.79 53.4501C56 57.4701 54.22 60.2601 50.76 61.7201C50.58 61.8001 50.39 61.8501 50.01 61.9701C54.08 64.4701 54.53 69.5201 56.92 73.6901C53.99 73.6901 51.39 73.6901 48.65 73.6901C47.37 70.9801 46.13 68.1701 44.89 65.3801C44.21 63.8501 43.31 62.7101 41.31 63.1701C41.17 66.6201 41.06 70.1401 41.06 73.7601C38.57 73.7601 36.34 73.7601 33.98 73.7601C34.01 64.8801 34.58 56.0601 34.8 46.8701ZM41.82 52.4901C41.75 54.2901 41.68 55.9601 41.6 57.9701C43.17 57.8701 44.71 57.8701 46.24 57.6501C47.58 57.4501 48.33 56.4601 48.42 55.1501C48.51 53.7701 47.79 52.6901 46.36 52.5301C44.89 52.3601 43.4 52.4901 41.82 52.4901Z" fill="black"/>
<path d="M77.93 54.5198C75.62 54.6898 73.48 54.8498 71.21 55.0198C70.96 52.7698 69.83 51.5698 67.86 51.5298C66.59 51.4998 65.51 51.9298 65.02 53.4798C65.03 54.7798 65.81 55.2198 66.72 55.4898C68.4 55.9898 70.09 56.4398 71.74 56.9798C72.66 57.2798 73.55 57.6798 74.41 58.1298C79.86 61.0198 78.91 68.6298 74.88 71.9398C73.55 73.0298 71.85 73.7598 70.25 74.0798C67.64 74.5998 64.95 74.4998 62.35 73.7098C58.93 72.6698 56.77 69.3898 56.88 65.0198C59.06 64.8798 61.25 64.7498 63.53 64.6098C63.65 65.1398 63.74 65.6198 63.87 66.0898C64.59 68.6198 66.91 69.8098 69.15 68.8298C70.16 68.3898 70.88 67.5998 70.98 66.3698C71.07 65.2398 70.52 64.3998 69.64 63.9598C68.89 63.5898 68.08 63.3398 67.3 63.0598C65.66 62.4698 63.96 62.0298 62.39 61.2898C59.35 59.8498 57.91 57.2898 58.18 54.2798C58.48 50.9198 60.55 48.2298 63.85 47.2398C66.96 46.2998 70.1 46.2698 73.16 47.3098C76.35 48.3798 77.83 50.5498 77.93 54.5198Z" fill="black"/>
</g>
<path d="M69.94 139.429C67.83 141.089 63.38 138.159 61.63 137.699C59.87 137.239 57.64 139.319 55.2 140.129C52.78 140.939 51.45 139.189 51.93 137.199C52.39 135.279 56.71 133.249 57.11 131.239C58.47 131.279 59.82 131.239 61.18 131.129C62.39 131.029 63.59 130.869 64.77 130.659C65.47 132.219 68.01 133.779 69.36 134.379C70.78 135.009 72.06 137.769 69.94 139.429Z" fill="#FFDB1F"/>
<path opacity="0.23" d="M111.39 55.0891C112.95 86.8591 92.02 128.669 61.18 131.129C59.81 131.239 58.45 131.279 57.1 131.239C41.62 130.859 26.82 121.329 16.27 106.719C30.96 114.549 44.38 115.999 60.15 107.379C88.3 91.9791 102.62 52.8691 91.28 10.3291C104.29 20.1691 110.47 36.2691 111.39 55.0891Z" fill="#3F2719"/>
<path opacity="0.32" d="M41.08 48.2598C36.49 56.0198 35.17 78.5798 18.98 70.6998C10.14 66.3898 7.92 44.4898 15.77 30.4998C25.44 13.2798 43.79 5.24983 53.37 13.0598C68.72 25.5598 45.67 40.4898 41.08 48.2598Z" fill="white"/>
<path opacity="0.23" d="M69.94 139.429C67.83 141.089 63.38 138.159 61.63 137.699C59.87 137.239 57.64 139.319 55.2 140.129C52.78 140.939 51.45 139.189 51.93 137.199C52.39 135.279 56.71 133.249 57.11 131.239C58.47 131.279 59.82 131.239 61.18 131.129C62.39 131.029 63.59 130.869 64.77 130.659C65.47 132.219 68.01 133.779 69.36 134.379C70.78 135.009 72.06 137.769 69.94 139.429Z" fill="#3F2719"/>
<path d="M64.77 130.659C62.76 131.089 59.55 131.229 57.11 131.239C49.34 135.999 62.97 162.009 66.52 171.899C71.86 186.779 71.07 205.589 47.89 204.089" stroke="#2D1F04" stroke-width="2.62" stroke-miterlimit="10" stroke-linecap="round" stroke-linejoin="round"/>
<path d="M51.89 196.17C60.27 206.96 73.93 209.18 75.29 208.09C76.65 207 76.13 191.08 69.17 184.2C65.81 180.88 58.49 183.38 57.5 188.39C51.36 188.65 50.45 194.32 51.89 196.17Z" fill="#B6B1AE"/>
<path d="M51.89 196.17C60.27 206.96 73.93 209.18 75.29 208.09C76.65 207 76.13 191.08 69.17 184.2C65.82 180.89 58.57 183.67 57.5 188.39C51.87 189.24 50.44 194.31 51.89 196.17Z" stroke="#2D1F04" stroke-width="2.62" stroke-miterlimit="10" stroke-linecap="round" stroke-linejoin="round"/>
<path d="M57.5 188.39C64.69 192.04 70.92 200.34 75.29 208.09" stroke="#2D1F04" stroke-width="2.62" stroke-miterlimit="10" stroke-linecap="round" stroke-linejoin="round"/>
<path d="M60.08 210.52C61.81 210.48 64.28 210.1 66.85 209.27" stroke="#2D1F04" stroke-width="2.62" stroke-miterlimit="10" stroke-linecap="round" stroke-linejoin="round"/>
<path d="M128.54 314.319C129.63 287.279 136.19 259.659 144.97 245.329" stroke="#2D1F04" stroke-width="2.62" stroke-miterlimit="10" stroke-linecap="round" stroke-linejoin="round"/>
<path d="M121.18 234.51C119.67 233.29 118.41 232.16 117.49 231.26C116.44 230.23 116.97 228.83 117.98 226.97C119.61 223.97 122.31 219.68 123.61 216.16C130.67 197.15 141.69 192.7 151.16 192.68" stroke="#2D1F04" stroke-width="2.62" stroke-miterlimit="10" stroke-linecap="round" stroke-linejoin="round"/>
<path d="M136.76 232.929C130.31 230.159 122.2 224.999 120.55 222.439" stroke="#2D1F04" stroke-width="2.62" stroke-miterlimit="10" stroke-linecap="round" stroke-linejoin="round"/>
<path d="M326.2 324.149C287.08 332.629 237.3 290.789 225.71 287.279C217.18 284.699 191.52 281.819 188.12 278.099C186.28 276.089 202.79 264.899 215.44 264.299C232.84 263.469 235.27 272.189 250.14 272.519C261.36 272.759 274.29 271.289 291.25 273.079C286.35 266.209 282.85 259.369 281.45 254.619C289.88 254.059 321.41 247.759 332.1 237.239C352.22 284.549 351.02 318.779 326.2 324.149Z" fill="#CAA77A"/>
<path d="M237.73 269.78C238.05 273.45 231.82 284.47 225.71 287.28C217.18 284.7 190.85 282.58 188.12 278.1C186.71 275.79 202.79 264.9 215.44 264.31C226.64 263.77 231.63 267.19 237.73 269.78Z" fill="#B6B1AE"/>
<path opacity="0.23" d="M286.43 265.64C285.33 263.75 285.46 258.53 288.55 257.22C294.61 254.64 305.01 253.6 313.98 247.1C307.25 249.64 292.83 253.2 282.04 254.59C282.49 257.29 283.59 260.11 286.43 265.64Z" fill="#3F2719"/>
<path opacity="0.23" d="M326.19 324.16C287.08 332.64 237.29 290.8 225.7 287.29C217.17 284.7 191.52 281.83 188.11 278.11C187.84 277.81 187.97 277.33 188.41 276.7C196.75 275.4 206.84 275.55 218.48 277.61C234.87 280.51 242.11 286.39 258.13 296.66C276.39 308.38 297.36 315.62 316.06 314.32C328.08 313.48 334.89 308.64 334.5 292.7C334.17 279.33 325.64 245.25 320.86 244.33C324.53 242.51 328.68 240.62 332.09 237.26C352.2 284.56 351.01 318.78 326.19 324.16Z" fill="#3F2719"/>
<path d="M273.95 245.33C274.13 248.31 274.69 255.47 281.46 254.64C282.87 259.45 286.26 266.13 291.25 273.09" stroke="#2D1F04" stroke-width="2.62" stroke-miterlimit="10" stroke-linecap="round" stroke-linejoin="round"/>
<path d="M332.1 237.26C352.21 284.55 351.02 318.78 326.2 324.16C287.08 332.64 237.31 290.79 225.71 287.28C217.18 284.7 192.2 281.82 188.12 278.1C186.11 276.27 202.8 264.9 215.43 264.3C232.83 263.47 235.26 272.19 250.13 272.52C264.38 272.83 281.37 270.38 305.89 275.34" stroke="#2D1F04" stroke-width="2.62" stroke-miterlimit="10" stroke-linecap="round" stroke-linejoin="round"/>
<path d="M281.45 254.639C285.6 254.199 300.13 252.179 308.68 249.149" stroke="#2D1F04" stroke-width="2.62" stroke-miterlimit="10" stroke-linecap="round" stroke-linejoin="round"/>
<path d="M332.59 226.1C323.14 231.13 305.06 239.86 289.69 241.64" stroke="#2D1F04" stroke-width="2.62" stroke-miterlimit="10" stroke-linecap="round" stroke-linejoin="round"/>
<path d="M237.72 269.779C238.05 273.449 231.81 284.469 225.71 287.279" stroke="#2D1F04" stroke-width="2.62" stroke-miterlimit="10" stroke-linecap="round" stroke-linejoin="round"/>
<path d="M188.12 278.1C202.15 273.63 222.17 270.64 234.59 278.1" stroke="#2D1F04" stroke-width="2.62" stroke-miterlimit="10" stroke-linecap="round" stroke-linejoin="round"/>
<path opacity="0.23" d="M148.11 237.629C148.12 237.649 148.12 237.669 148.13 237.689C148.82 239.779 150.91 241.069 153.09 240.779C160.46 239.799 169.67 235.099 174.47 231.129C182.45 224.539 181.72 220.899 182.92 221.429C183.54 221.699 186.84 222.659 190.79 222.699C192.73 222.719 195.36 221.979 196.85 221.869C198.44 221.759 199.99 222.469 200.9 223.779C203.76 227.939 209.66 234.179 216.68 238.159C230.46 245.969 233.9 239.529 236.52 231.159C237.11 229.269 237.63 227.269 238.13 225.039C238.62 222.849 237.45 220.629 235.38 219.769C211.69 209.899 171.11 210.259 157.54 210.669C155.89 210.719 154.38 211.639 153.62 213.099C148.92 222.099 148.02 232.829 147.86 235.899C147.84 236.489 147.93 237.069 148.11 237.629Z" fill="#3F2719"/>
<path d="M125.11 226.439C124.41 227.529 123.68 229.309 123.35 230.489" stroke="#2D1F04" stroke-width="2.62" stroke-miterlimit="10" stroke-linecap="round" stroke-linejoin="round"/>
<path d="M130.99 230.069C130.13 231.339 129.63 233.119 129.49 234.239" stroke="#2D1F04" stroke-width="2.62" stroke-miterlimit="10" stroke-linecap="round" stroke-linejoin="round"/>
<path d="M311.56 235.789C312.73 237.049 313.63 238.979 313.97 240.909" stroke="#2D1F04" stroke-width="2.62" stroke-miterlimit="10" stroke-linecap="round" stroke-linejoin="round"/>
<path d="M319 232.72C320.37 234.24 321.51 236.16 321.77 238.36" stroke="#2D1F04" stroke-width="2.62" stroke-miterlimit="10" stroke-linecap="round" stroke-linejoin="round"/>
<path d="M297.28 240.289C297.99 241.269 298.6 243.529 298.69 244.499" stroke="#2D1F04" stroke-width="2.62" stroke-miterlimit="10" stroke-linecap="round" stroke-linejoin="round"/>
<path d="M325.11 229.899C326.34 231.089 327.52 233.129 327.92 234.899" stroke="#2D1F04" stroke-width="2.62" stroke-miterlimit="10" stroke-linecap="round" stroke-linejoin="round"/>
<path d="M200.44 216.58C199.99 218.08 198.85 219.44 197.24 219.66C195.71 219.87 195.31 219.17 194.26 219.17C193.54 219.17 192.89 219.76 191.54 219.76C189.91 219.76 189.6 219.11 188.66 219.11C187.46 219.11 187.22 219.88 185.61 219.5C184.11 219.15 183.05 218.11 182.67 216.65C182.51 216.04 182.48 215.36 182.58 214.61C182.96 211.74 183.05 209.47 182.75 205.4C182.72 204.93 182.74 204.43 182.83 203.95V203.94C183.1 202.38 184 200.9 185.61 200.51C187.22 200.13 187.46 200.9 188.66 200.9C189.61 200.9 189.91 200.25 191.54 200.25C192.9 200.25 193.55 200.84 194.26 200.84C195.31 200.84 195.71 200.14 197.24 200.35C199.07 200.6 200.15 202.22 200.44 203.93C200.52 204.39 200.55 204.87 200.5 205.32C200.22 208.42 200.07 211.13 200.61 214.58C200.7 215.2 200.64 215.9 200.44 216.58Z" fill="#3399CC"/>
<path d="M235.13 236.76C221.16 235.23 206.86 229.07 200.44 216.58C200.64 215.9 200.71 215.2 200.61 214.56C200.07 211.11 200.22 208.4 200.5 205.3C200.54 204.85 200.52 204.38 200.44 203.91C203.95 201.98 207.97 198.46 212.66 194.91C217.39 191.35 222.77 187.75 228.96 185.72C230.09 185.35 231.24 185.02 232.43 184.76C234.26 187.61 235.7 190.56 236.8 193.61C237.29 194.92 237.7 196.26 238.05 197.59C241.35 210.1 239.47 223.78 235.13 236.76Z" fill="#3399CC"/>
<path d="M182.67 216.64C176.7 228.16 163.91 234.29 150.97 236.34C149.95 236.51 148.93 236.64 147.91 236.75C146.69 233.11 145.66 229.4 144.88 225.68C142.95 216.35 142.62 206.93 144.86 198.1C146.02 193.46 147.89 188.98 150.6 184.76C152.52 185.17 154.37 185.76 156.17 186.47C167.46 190.91 176.22 200.21 182.83 203.93V203.94C182.73 204.43 182.71 204.93 182.74 205.4C183.05 209.46 182.95 211.73 182.58 214.61C182.48 215.35 182.51 216.03 182.67 216.64Z" fill="#3399CC"/>
<path opacity="0.23" d="M188.95 204.359C186.64 207.039 186.24 213.269 188.92 215.639C188.52 210.929 189.9 207.889 188.95 204.359Z" fill="#3F2719"/>
<path opacity="0.23" d="M193.16 204.359C195.47 207.039 195.87 213.269 193.19 215.639C193.6 210.929 192.21 207.889 193.16 204.359Z" fill="#3F2719"/>
<path d="M156.84 189.89C156.84 194.76 152.9 198.7 148.03 198.7C146.91 198.7 145.84 198.49 144.85 198.1C146.01 193.46 147.88 188.98 150.59 184.76C152.51 185.17 154.36 185.76 156.16 186.47C156.6 187.52 156.84 188.68 156.84 189.89ZM234.28 206.04C231.32 206.04 228.93 208.44 228.93 211.39C228.93 214.35 231.33 216.74 234.28 216.74C237.23 216.74 239.63 214.34 239.63 211.39C239.63 208.44 237.23 206.04 234.28 206.04ZM161.35 222.84C159.55 222.84 158.08 224.3 158.08 226.11C158.08 227.91 159.54 229.38 161.35 229.38C163.15 229.38 164.62 227.92 164.62 226.11C164.62 224.3 163.16 222.84 161.35 222.84ZM146.37 225.5C145.86 225.5 145.36 225.56 144.88 225.68C145.66 229.4 146.69 233.11 147.91 236.75C148.93 236.63 149.95 236.51 150.97 236.34C152.08 235.18 152.77 233.62 152.77 231.9C152.76 228.36 149.89 225.5 146.37 225.5ZM150.05 205.42C148.02 205.42 146.37 207.07 146.37 209.1C146.37 211.13 148.02 212.78 150.05 212.78C152.08 212.78 153.73 211.13 153.73 209.1C153.73 207.07 152.08 205.42 150.05 205.42ZM228.95 185.71C222.77 187.74 217.38 191.34 212.65 194.9C214.39 197 217.03 198.35 219.98 198.35C225.23 198.35 229.48 194.1 229.48 188.85C229.48 187.75 229.29 186.69 228.95 185.71ZM228.36 227.26C226.53 227.26 225.05 228.74 225.05 230.57C225.05 232.4 226.53 233.88 228.36 233.88C230.19 233.88 231.67 232.4 231.67 230.57C231.66 228.74 230.18 227.26 228.36 227.26ZM236.79 193.61C236.63 193.57 236.46 193.55 236.28 193.55C234.95 193.55 233.87 194.63 233.87 195.96C233.87 197.29 234.95 198.36 236.28 198.36C236.97 198.36 237.6 198.06 238.04 197.6C237.7 196.25 237.28 194.92 236.79 193.61Z" fill="#FF8A8A"/>
<path opacity="0.23" d="M235.03 237.08C221.08 235.54 206.82 229.38 200.42 216.91C200.62 216.24 200.68 215.53 200.59 214.89C200.54 214.58 200.51 214.29 200.46 214C205.38 218.3 211.31 222.51 218.56 226.06C226.98 230.18 233.07 231.7 235.21 226.06C237.35 220.44 238.99 216.39 239.54 208.31C240.07 217.79 238.2 227.62 235.03 237.08Z" fill="#3F2719"/>
<path opacity="0.23" d="M158.53 216.26C155.94 214.66 157.89 210.8 160.64 211.76C163.39 212.72 167.02 212.79 170.65 212.12C174.28 211.45 177.43 210.31 182.84 210.51C182.77 211.76 183.37 212.66 179.6 212.89C175.83 213.13 170.41 216.49 167.17 216.99C163.93 217.49 160.78 217.65 158.53 216.26Z" fill="#3F2719"/>
<path opacity="0.23" d="M161.5 202.31C160.75 204.35 163.02 203.63 165.04 204.35C167.05 205.07 169.14 206.64 172.01 208.46C174.88 210.28 175.43 210.31 178.33 210.65C181.24 210.99 180.84 210.22 178.33 208.95C175.82 207.68 174.34 207.42 171.7 204.89C169.06 202.35 166.1 200.64 163.87 201.07C161.63 201.5 161.5 202.31 161.5 202.31Z" fill="#3F2719"/>
<path opacity="0.32" d="M182.77 210.24C182.2 207.76 179.65 206.21 175.83 203.66C172 201.11 165.82 194.53 159.44 191.44C153.06 188.35 148.2 190.15 146.36 193.04C147.4 190.52 149.2 187.29 150.52 184.76C156.75 186.26 163.38 189.63 168.92 193.89C174.46 198.15 180.35 202.41 181.91 203.57C182.66 204.8 182.88 207.15 182.77 210.24Z" fill="white"/>
<path opacity="0.32" d="M200.41 208.62C200.47 207.34 205.97 205.12 208.93 203.18C211.17 201.72 218.04 195.91 224.4 193.04C230 190.51 235.21 190.59 236.53 193.04C235.72 190.49 233.84 186.47 232.36 184.75C224.1 186.86 217.77 190.87 211.12 196.02C204.47 201.18 201.47 203.25 199.86 203.82C200.5 205.3 200.22 207.28 200.41 208.62Z" fill="white"/>
<path d="M200.43 205.29C200.15 208.4 199.99 211.1 200.53 214.56C200.85 216.64 199.49 219.34 197.17 219.66C195.64 219.87 195.24 219.17 194.19 219.17C193.47 219.17 192.82 219.76 191.47 219.76C189.84 219.76 189.53 219.11 188.59 219.11C187.39 219.11 187.15 219.88 185.54 219.5C183.41 219.01 182.17 217.14 182.51 214.61C182.89 211.74 182.98 209.47 182.68 205.41C182.53 203.45 183.42 201.02 185.54 200.51C187.15 200.13 187.39 200.9 188.59 200.9C189.54 200.9 189.84 200.25 191.47 200.25C192.83 200.25 193.48 200.84 194.19 200.84C195.24 200.84 195.64 200.14 197.17 200.35C199.5 200.65 200.62 203.2 200.43 205.29Z" stroke="#2D1F04" stroke-width="2.7806" stroke-miterlimit="10" stroke-linecap="round" stroke-linejoin="round"/>
<path d="M200.37 203.91C208.05 199.65 218.26 187.83 232.36 184.75C242.3 200.23 240.96 219.16 235.05 236.75C221.08 235.22 206.79 229.06 200.37 216.57" stroke="#2D1F04" stroke-width="2.7806" stroke-miterlimit="10" stroke-linecap="round" stroke-linejoin="round"/>
<path d="M182.52 203.91C174.84 199.65 164.63 187.83 150.53 184.75C140.59 200.23 141.93 219.16 147.84 236.75C161.81 235.22 176.1 229.06 182.52 216.57" stroke="#2D1F04" stroke-width="2.7806" stroke-miterlimit="10" stroke-linecap="round" stroke-linejoin="round"/>
<path d="M200.26 209.09C204.31 209.25 208.42 207.64 212.71 204.57C217 201.5 220.1 202.29 220.66 204.04" stroke="#2D1F04" stroke-width="2.7806" stroke-miterlimit="10" stroke-linecap="round" stroke-linejoin="round"/>
<path d="M200.37 212.58C204.58 212.85 209.57 215.56 213 219.12C217.92 224.22 222.67 223.06 222.67 220.64" stroke="#2D1F04" stroke-width="2.7806" stroke-miterlimit="10" stroke-linecap="round" stroke-linejoin="round"/>
<path d="M182.45 212.84C178.42 212.41 175.04 214.15 168.5 216.57C163.56 218.4 158.47 217.3 158.02 215.51" stroke="#2D1F04" stroke-width="2.7806" stroke-miterlimit="10" stroke-linecap="round" stroke-linejoin="round"/>
<path d="M182.52 209.71C178.31 209.44 174.48 208.28 171.37 205.1C166.41 200.03 161.5 200.35 161.5 202.77" stroke="#2D1F04" stroke-width="2.7806" stroke-miterlimit="10" stroke-linecap="round" stroke-linejoin="round"/>
<path opacity="0.23" d="M220.47 203.64C221.09 204.73 220.71 205.64 218.92 205.8C217.13 205.96 215.02 206.41 213.06 207.75C210.37 209.59 208.29 210.46 205.92 210.48C208.02 211.35 210.86 212.5 213.04 213.92C215.68 215.64 216.39 217.92 218.21 218.65C220 219.37 221.99 218.34 222.89 220.35C223.52 221.75 221.11 224.04 217.64 222.29C214.16 220.53 212.27 218.07 210.32 216.73C208.37 215.4 203.6 213.04 201.14 212.58C198.68 212.12 198.79 209.18 200.6 209.09C202.41 209 205.58 208.47 207.77 207.48C210.28 206.34 212.07 204.86 214.44 203.65C216.79 202.45 219.54 202.01 220.47 203.64Z" fill="#3F2719"/>
</g>
<defs>
<clipPath id="clip0_281_3130">
<rect width="352" height="327" fill="white"/>
</clipPath>
</defs>
</svg>
