<svg width="435" height="300" viewBox="0 0 435 300" fill="none" xmlns="http://www.w3.org/2000/svg">
<g clip-path="url(#clip0_281_3339)">
<path d="M129.74 198.49C126.24 202.83 122.16 210.49 118.94 219.41C109.72 202.55 100.06 191.52 93.08 180.98C92.45 179.98 79.36 156.85 78.86 155.98C70.34 158.48 66.22 157.83 57.5 159.26C64.02 173.13 64.9 202.17 69.62 229.76C74.02 255.47 82.47 273.76 94.07 284.58C114.98 304.11 147.44 283.26 178.33 234.29C161.73 231.1 135.67 205.93 129.74 198.49Z" fill="#CAA77A"/>
<g style="mix-blend-mode:multiply" opacity="0.23">
<path d="M178.33 234.26C147.44 283.21 114.97 304.07 94.0801 284.54C82.4801 273.7 74.0001 255.43 69.6101 229.71C64.9001 202.12 64.0101 173.09 57.4901 159.22C60.1701 158.79 67.3901 180 70.5501 192.13C75.3301 210.45 80.9501 245.13 90.5501 261.56C100.8 279.06 115.55 284.74 122.97 282.56C130.39 280.38 134.27 268.39 136.05 262.98C138.58 255.27 141.85 246.83 143.05 240.63C144.77 232.02 144.95 221.85 142.43 220.8C146.65 222.61 150.62 224.25 153.43 225.41C153.69 224.16 153.96 222.81 154.22 221.41C162.49 227.59 171.26 232.92 178.33 234.26Z" fill="#3F2719"/>
</g>
<g style="mix-blend-mode:multiply" opacity="0.23">
<path d="M118.42 218.34C122.08 225.14 129.24 239.4 131.69 248.34C132.69 239.94 126.43 219.96 121.09 213.53C120.2 215.17 118.42 218.34 118.42 218.34Z" fill="#3F2719"/>
</g>
<path d="M122.8 210.74C121.2 213.481 119.906 216.388 118.94 219.41C109.72 202.55 99.56 191.84 93.08 180.98C86.6 170.12 79.08 156.22 78.86 155.98" stroke="#2D1F04" stroke-width="2.62" stroke-linecap="round" stroke-linejoin="round"/>
<path d="M58.32 159.09C65.51 182.35 67.44 216.91 69.62 229.72C73.12 250.37 79.94 271.33 94.07 284.54C105.93 295.62 121.52 293.7 138.42 281.02" stroke="#2D1F04" stroke-width="2.62" stroke-linecap="round" stroke-linejoin="round"/>
<path d="M131.7 60.3496V111.79C131.7 115.768 130.12 119.583 127.307 122.396C124.494 125.209 120.678 126.79 116.7 126.79H89.36C87.8064 126.79 86.2698 127.114 84.849 127.743C83.4281 128.371 82.1543 129.29 81.1092 130.439C80.0641 131.589 79.2708 132.944 78.7801 134.418C78.2895 135.893 78.1123 137.453 78.26 139L80.48 162C80.6498 163.716 80.4583 165.448 79.918 167.086C79.3776 168.723 78.5003 170.229 77.3426 171.507C76.1849 172.785 74.7724 173.807 73.196 174.505C71.6196 175.204 69.9144 175.565 68.19 175.565C66.4657 175.565 64.7604 175.204 63.1841 174.505C61.6077 173.807 60.1952 172.785 59.0375 171.507C57.8797 170.229 57.0024 168.723 56.4621 167.086C55.9217 165.448 55.7303 163.716 55.9 162L58.12 139C58.2724 137.449 58.098 135.884 57.6082 134.404C57.1183 132.925 56.324 131.565 55.2762 130.412C54.2285 129.259 52.9507 128.338 51.5252 127.709C50.0997 127.08 48.5582 126.756 47 126.76H16.78C12.8018 126.76 8.98647 125.179 6.17343 122.366C3.36038 119.553 1.78003 115.738 1.78003 111.76V60.3496C1.78003 56.3714 3.36038 52.5561 6.17343 49.743C8.98647 46.93 12.8018 45.3496 16.78 45.3496H116.72C120.695 45.3549 124.505 46.9376 127.314 49.7501C130.122 52.5625 131.7 56.3748 131.7 60.3496V60.3496Z" fill="white"/>
<g style="mix-blend-mode:multiply" opacity="0.23">
<path d="M131.69 60.3503V111.78C131.69 115.759 130.11 119.574 127.297 122.387C124.484 125.2 120.668 126.78 116.69 126.78H89.36C87.8059 126.782 86.2692 127.108 84.8483 127.737C83.4274 128.367 82.1537 129.286 81.1088 130.437C80.0638 131.587 79.2707 132.943 78.7801 134.418C78.2895 135.892 78.1124 137.453 78.26 139L80.48 162C80.7528 164.747 80.0972 167.505 78.618 169.835C77.1387 172.164 74.9212 173.931 72.3198 174.852C69.7185 175.774 66.8833 175.796 64.2676 174.917C61.6518 174.037 59.4063 172.306 57.89 170C59.851 170.738 61.9675 170.965 64.0403 170.659C66.113 170.352 68.0736 169.523 69.7374 168.25C71.4011 166.976 72.7132 165.3 73.5499 163.379C74.3867 161.458 74.7205 159.356 74.52 157.27L72.31 134.27C72.1534 132.719 72.3239 131.152 72.8105 129.671C73.2971 128.189 74.089 126.826 75.135 125.67C76.1811 124.514 77.458 123.59 78.8833 122.958C80.3087 122.326 81.8508 121.999 83.41 122H110.76C112.73 122 114.68 121.612 116.5 120.859C118.32 120.105 119.974 119 121.367 117.607C122.76 116.214 123.864 114.56 124.618 112.741C125.372 110.921 125.76 108.97 125.76 107V55.6104C125.767 52.3636 124.714 49.2034 122.76 46.6104C125.421 47.7878 127.682 49.7136 129.267 52.1531C130.853 54.5927 131.694 57.4408 131.69 60.3503V60.3503Z" fill="#3F2719"/>
</g>
<g style="mix-blend-mode:multiply" opacity="0.23">
<path d="M58 135.86C57.4903 133.31 56.1186 131.014 54.1154 129.357C52.1122 127.7 49.5997 126.783 47 126.76H16.77C14.4413 126.76 12.1446 126.218 10.0618 125.176C7.97898 124.135 6.16723 122.623 4.77002 120.76C6.67796 121.591 8.73888 122.013 10.82 122H48.1C49.7592 121.99 51.3992 122.355 52.8971 123.069C54.3951 123.782 55.7123 124.825 56.75 126.12C58.77 128.68 58.73 132.53 58 135.86Z" fill="#3F2719"/>
</g>
<path d="M131.7 60.3496V111.79C131.7 115.768 130.12 119.583 127.307 122.396C124.494 125.209 120.678 126.79 116.7 126.79H89.36C87.8064 126.79 86.2698 127.114 84.849 127.743C83.4281 128.371 82.1543 129.29 81.1092 130.439C80.0641 131.589 79.2708 132.944 78.7801 134.418C78.2895 135.893 78.1123 137.453 78.26 139L80.48 162C80.6498 163.716 80.4583 165.448 79.918 167.086C79.3776 168.723 78.5003 170.229 77.3426 171.507C76.1849 172.785 74.7724 173.807 73.196 174.505C71.6196 175.204 69.9144 175.565 68.19 175.565C66.4657 175.565 64.7604 175.204 63.1841 174.505C61.6077 173.807 60.1952 172.785 59.0375 171.507C57.8797 170.229 57.0024 168.723 56.4621 167.086C55.9217 165.448 55.7303 163.716 55.9 162L58.12 139C58.2724 137.449 58.098 135.884 57.6082 134.404C57.1183 132.925 56.324 131.565 55.2762 130.412C54.2285 129.259 52.9507 128.338 51.5252 127.709C50.0997 127.08 48.5582 126.756 47 126.76H16.78C12.8018 126.76 8.98647 125.179 6.17343 122.366C3.36038 119.553 1.78003 115.738 1.78003 111.76V60.3496C1.78003 56.3714 3.36038 52.5561 6.17343 49.743C8.98647 46.93 12.8018 45.3496 16.78 45.3496H116.72C120.695 45.3549 124.505 46.9376 127.314 49.7501C130.122 52.5625 131.7 56.3748 131.7 60.3496V60.3496Z" stroke="#2D1F04" stroke-width="2.62" stroke-linecap="round" stroke-linejoin="round"/>
<path d="M39.55 94.3697H47.8V102.16H20.89V94.3697H29.52V77.7297C27.0817 78.9142 24.5002 79.7781 21.84 80.2997V72.4296C26.8133 71.3496 30.2 69.4196 32 66.6396H39.59L39.55 94.3697Z" fill="black"/>
<path d="M63.28 102.7C61.3297 102.758 59.3954 102.332 57.6503 101.459C55.9051 100.587 54.4035 99.2949 53.28 97.6997C50.82 94.3663 49.59 89.9963 49.59 84.5897C49.59 79.043 50.85 74.663 53.37 71.4497C54.5461 69.8954 56.0782 68.6463 57.8376 67.8075C59.597 66.9687 61.532 66.5648 63.48 66.6297C65.4745 66.537 67.459 66.9616 69.241 67.8622C71.023 68.7628 72.5418 70.1089 73.65 71.7697C76.01 75.1897 77.19 79.5663 77.19 84.8997C77.19 90.233 75.9234 94.5663 73.39 97.8997C72.2085 99.4466 70.6747 100.689 68.9163 101.524C67.1579 102.359 65.2256 102.762 63.28 102.7V102.7ZM63.38 95.2697C64.85 95.2697 65.83 94.3297 66.38 92.4597C66.9446 89.9403 67.1932 87.3605 67.12 84.7797C67.12 80.3197 66.7867 77.4063 66.12 76.0397C65.9269 75.4659 65.5647 74.964 65.081 74.5999C64.5973 74.2358 64.0148 74.0266 63.41 73.9997C62.04 73.9997 61.1 74.8997 60.58 76.7097C59.9787 79.1421 59.7129 81.6453 59.79 84.1497C59.79 88.443 60.0534 91.3697 60.58 92.9297C61.1 94.4797 62 95.2697 63.38 95.2697V95.2697Z" fill="black"/>
<path d="M94.0601 102.7C92.1098 102.758 90.1755 102.332 88.4303 101.459C86.6851 100.587 85.1836 99.2948 84.0601 97.6996C81.6001 94.3663 80.3701 89.9963 80.3701 84.5896C80.3701 79.043 81.6301 74.663 84.1501 71.4496C85.3261 69.8953 86.8583 68.6463 88.6176 67.8075C90.377 66.9687 92.3121 66.5647 94.2601 66.6296C96.2559 66.5371 98.2418 66.9617 100.025 67.8623C101.809 68.7628 103.33 70.1087 104.44 71.7696C106.787 75.1896 107.963 79.5663 107.97 84.8996C107.977 90.233 106.71 94.5663 104.17 97.8996C102.988 99.4465 101.455 100.689 99.6963 101.524C97.9379 102.359 96.0056 102.762 94.0601 102.7V102.7ZM94.1601 95.2696C95.6301 95.2696 96.6201 94.3296 97.1601 92.4596C97.7289 89.9409 97.9809 87.3609 97.9101 84.7796C97.9101 80.3196 97.5767 77.4063 96.9101 76.0396C96.7163 75.4643 96.3526 74.9613 95.867 74.5971C95.3813 74.2329 94.7966 74.0245 94.1901 73.9996C92.8201 73.9996 91.8801 74.8996 91.3601 76.7096C90.7684 79.1436 90.5061 81.6459 90.5801 84.1496C90.5801 88.443 90.8401 91.3696 91.3601 92.9296C91.8801 94.4796 92.8101 95.2696 94.1601 95.2696V95.2696Z" fill="black"/>
<path d="M51.56 166C71.08 160.58 85.87 160.57 86.38 158.41C86.89 156.25 71 141.2 56.49 140.18C49.49 139.69 43.49 148.08 47.16 153.75C40.38 159 45.43 167.7 51.56 166Z" fill="#B6B1AE"/>
<g style="mix-blend-mode:multiply" opacity="0.23">
<path d="M86.38 158.39C85.87 160.56 71.09 160.57 51.57 165.99C46.07 167.53 41.43 160.7 45.41 155.48C47.86 156.63 52.94 156.37 57.89 155.94C62.84 155.51 72.15 152.68 83 153.8C85.26 156 86.53 157.76 86.38 158.39Z" fill="#3F2719"/>
</g>
<path d="M51.56 166C66.94 161.73 85.87 160.57 86.38 158.41C86.89 156.25 71 141.2 56.49 140.18C49.49 139.69 43.49 148.08 47.16 153.75C40.38 159 45.43 167.7 51.56 166Z" stroke="#2D1F04" stroke-width="2.62" stroke-linecap="round" stroke-linejoin="round"/>
<path d="M47.16 153.75C57.32 151.84 68.46 150.13 86.38 158.4" stroke="#2D1F04" stroke-width="2.62" stroke-linecap="round" stroke-linejoin="round"/>
<path d="M61.48 146.65C70.34 145.47 74.14 145.47 81.98 147.59C83.5 143.01 83.19 139.09 79.26 138.25C72.4622 138.614 66.0785 141.63 61.48 146.65V146.65Z" fill="#B6B1AE"/>
<path d="M61.48 146.65C70.34 145.47 74.14 145.47 81.98 147.59C83.5 143.01 83.19 139.09 79.26 138.25C72.4622 138.614 66.0785 141.63 61.48 146.65V146.65Z" stroke="#2D1F04" stroke-width="2.62" stroke-linecap="round" stroke-linejoin="round"/>
<path d="M165.27 169.33C164.8 172.33 164.16 175.97 163.69 178.33C162.87 178.39 160.16 181.33 159.48 182.4C158.16 184.4 160.07 186.66 159.81 187.75C159.59 188.68 156.2 212.27 153.48 225.39C145.22 221.92 126.29 214.25 122.4 210.39C122.12 210.1 121.83 209.87 121.6 209.63C120.72 208.78 119.47 203.9 123 201.51C123.41 200.33 123.88 199.05 124.38 197.7C133.49 173.16 148.88 165.4 165.26 169.34L165.27 169.33Z" fill="#FFDB1F"/>
<path d="M333.65 253.05C331.43 240.51 330.468 227.78 330.78 215.05C332.415 227.656 333.373 240.341 333.65 253.05V253.05Z" fill="#FFDB1F"/>
<g style="mix-blend-mode:multiply" opacity="0.23">
<path d="M165.28 169.33C164.8 172.33 164.16 175.98 163.69 178.33C162.87 178.39 160.16 181.33 159.48 182.41C158.17 184.41 160.07 186.66 159.8 187.76C159.58 188.69 156.2 212.26 153.48 225.38C150.03 223.94 144.72 221.76 139.42 219.38C142.29 220.01 145.28 219.72 145.77 217.64C146.41 214.86 146.37 212.05 144.45 211.33C147.01 211 149.08 199.73 150.57 194C151.92 188.76 156.45 172.36 163.57 169C164.13 169.1 164.7 169.22 165.26 169.36L165.28 169.33Z" fill="#3F2719"/>
</g>
<path d="M333.65 253.05C331.43 240.51 330.468 227.78 330.78 215.05C332.415 227.656 333.373 240.341 333.65 253.05V253.05Z" fill="#FFDB1F"/>
<path d="M313.54 150.64C307.22 153.64 301.54 156.92 293.54 160.58C281.01 166.3 269.7 172.84 256.66 176.66C245.062 179.752 233.155 181.543 221.16 182C211.68 182.622 202.163 182.411 192.72 181.37C181.882 180.339 171.155 178.365 160.66 175.47C160.76 174.83 160.66 174.6 160.41 174.67C160.54 172.3 160.64 168.67 160.66 165.57C160.66 162.64 160.6 159.98 160.37 159.9C159.958 160.029 159.59 160.268 159.306 160.593C159.022 160.918 158.833 161.315 158.76 161.74C156.57 157.74 159.76 154.34 159.44 152.06C159.38 151.55 158.11 152.22 157.29 154C156.94 150.62 158.23 149.59 158.06 148.37C157.71 145.91 156.15 143.37 155.06 141.23C142.7 116.47 119.49 68.3201 156.25 34.6401C153.81 31.2701 148.81 33.1301 148.81 33.1101C148.81 28.1701 156.72 22.9401 167.52 24.1101C167.87 23.5801 163.89 19.7201 167.9 14.3801C168.59 18.3201 172.18 22.0701 173.05 20.1101C175.41 9.41008 182.18 3.48008 191.96 1.58008C188.9 4.25008 187.59 10.0201 189.1 15.1401C189.1 15.1401 192.18 8.48008 195.78 6.93008C192.56 13.1801 195.67 16.5101 197.61 16.9801C199.14 17.3701 205.69 13.9101 205.52 10.7501C207.4 11.3801 207.05 15.2801 223.52 20.6801C293.22 43.6401 313.47 109.7 313.54 150.64Z" fill="#CAA77A"/>
<path d="M232.05 259L231.57 258.28Z" fill="#B6B1AE"/>
<path d="M139.49 71.2905C141.81 61.8305 153.49 54.7705 160.6 49.8905C168.87 44.2005 198.88 38.3205 192.95 29.7705C203.34 31.1005 210.82 40.3105 219.81 40.3405C229.19 40.3405 250.21 45.9605 265.67 67.8905C268.78 72.2905 282.45 110.44 252.49 130.48C229.6 145.79 176.12 150.621 152.69 121.031C141.72 107.171 136.38 89.0005 139.49 71.2905Z" fill="#FFDBAF"/>
<path d="M187.59 69.3396C179.68 65.3396 173.59 85.1896 172.93 90.9196C171.28 105.5 176.19 113.02 184.74 115.59C193.29 118.16 204.09 116.77 212.43 111.43C233.43 97.9796 211.08 63.1096 197.33 68.6096" fill="#9D7B51"/>
<path d="M142.18 102.311C156.13 101.181 189.18 85.3105 171.97 43.3105C162.53 44.5805 153.68 47.8405 142.9 57.4005C135.82 73.0005 138.05 89.4805 142.18 102.311Z" fill="#9D7B51"/>
<path d="M216.38 43.29C202.62 108.21 270.57 103.4 270.57 103.4C270.57 103.4 276.12 79.15 261.88 60.92C253.18 49.79 235 42 216.38 43.29Z" fill="#9D7B51"/>
<path d="M180.29 152.53L180.25 159.09" stroke="#9D7B51" stroke-width="3.87" stroke-linecap="round" stroke-linejoin="round"/>
<path d="M173.66 155.94L173.62 162.5" stroke="#9D7B51" stroke-width="3.87" stroke-linecap="round" stroke-linejoin="round"/>
<path opacity="0.23" d="M150 31.0996C149.886 31.1578 149.779 31.2283 149.68 31.3096C149.649 31.3448 149.626 31.3862 149.612 31.431C149.598 31.4758 149.594 31.5231 149.6 31.5696" fill="#3F2719"/>
<path d="M181.93 69.7902C181.81 67.1302 186.64 64.7102 192.73 64.3802C198.82 64.0502 203.85 66.0002 204 68.6202C204.15 71.2402 199.29 73.7002 193.2 74.0302C187.11 74.3602 182.05 72.4502 181.93 69.7902Z" fill="#251707"/>
<path d="M160.31 173.56C160.55 172.33 161.03 160.12 160.54 159.96C160.127 160.091 159.757 160.332 159.471 160.658C159.186 160.985 158.995 161.383 158.92 161.81C156.74 157.81 159.92 154.4 159.61 152.12C159.55 151.61 158.27 152.29 157.46 154.07C157.11 150.68 158.41 149.66 158.23 148.44C157.88 145.98 156.32 143.44 155.23 141.29C142.85 116.54 119.64 68.3799 156.41 34.6999C154 31.3299 149 33.1999 149 33.1699C149 28.2399 156.92 22.9999 167.72 24.1699C168.07 23.6399 164.09 19.7699 168.1 14.4299C168.79 18.3699 172.38 22.1199 173.25 20.1599C175.61 9.46988 182.39 3.52988 192.16 1.62988C189.1 4.30988 187.79 10.0699 189.29 15.1899C189.29 15.2699 192.35 8.54988 195.98 6.97988C192.28 12.5999 195.69 16.5099 197.63 16.9799C199.16 17.3699 205.89 13.9799 205.72 10.7899C207.6 11.4199 207.26 15.3299 223.67 20.7199C293.55 43.7199 313.62 109.72 313.62 150.61" stroke="#2D1F04" stroke-width="2.62" stroke-linecap="round" stroke-linejoin="round"/>
<path d="M192.29 73.6201C191.79 78.0801 192.62 84.1301 194.97 90.3901" stroke="#2D1F04" stroke-width="2.62" stroke-linecap="round" stroke-linejoin="round"/>
<path opacity="0.23" d="M206 251.5L205.44 251.22Z" fill="#3F2719"/>
<g style="mix-blend-mode:multiply" opacity="0.23">
<path d="M313.54 150.64C307.95 153.43 298.89 158.05 293.54 160.58C294.82 129.52 287.05 83.0001 263.54 55.8801C249.838 39.7273 230.312 29.639 209.21 27.8101C207.71 27.6801 204.99 25.3201 202.82 25.5701C202.897 25.8068 202.913 26.0589 202.867 26.3034C202.821 26.5479 202.715 26.777 202.558 26.9699C202.401 27.1628 202.198 27.3133 201.968 27.4076C201.737 27.502 201.487 27.5372 201.24 27.5101C199.64 27.5101 196.39 26.7601 196.95 23.9001C193.83 24.2701 193.03 27.9701 191.32 28.1901C189.61 28.4101 186.91 24.6001 183 25.0001C185.12 28.0001 182.23 30.4801 180 31.3501C177.38 32.3501 175.72 31.1201 176.37 29.4501C173.64 29.7901 172.75 32.3601 167.18 35.0301C158.32 39.1409 150.189 44.6703 143.11 51.4001C146.484 45.1104 150.923 39.4533 156.23 34.6801C153.79 31.3101 148.79 33.1701 148.79 33.1501C148.79 28.2101 156.71 22.9801 167.5 24.1501C167.85 23.6201 163.88 19.7601 167.88 14.4201C168.57 18.3501 172.16 22.1101 173.03 20.1401C175.39 9.45012 182.17 3.52012 191.94 1.62012C188.88 4.29012 187.57 10.0601 189.08 15.1801C189.08 15.1801 192.16 8.52012 195.76 6.97012C192.5 13.0001 195.66 16.5501 197.6 17.0001C199.13 17.3901 205.69 13.9301 205.51 10.7701C207.39 11.4001 207.05 15.3001 223.51 20.6901C293.23 43.6401 313.47 109.7 313.54 150.64Z" fill="#3F2719"/>
</g>
<path d="M179.3 45.3701C150 46.0001 133 68.3701 133 68.3701" stroke="#2D1F04" stroke-width="7.6" stroke-linecap="round" stroke-linejoin="round"/>
<path d="M209.86 43.18C250.34 42.79 265.62 64.56 265.62 64.56" stroke="#2D1F04" stroke-width="7.6" stroke-linecap="round" stroke-linejoin="round"/>
<path d="M184.07 105.07C184.69 101.27 185.31 95.0003 182.22 89.9703C186.58 91.3203 194.22 89.9103 194.55 88.0303C196.55 88.9603 202.43 86.7803 205.02 83.2803C215.14 106.91 193.48 109.64 184.07 105.07Z" fill="#251707"/>
<path d="M184 105.29C184.325 103.396 184.512 101.481 184.56 99.5602C189.44 100.74 198.1 100.69 203.88 94.4102C204.88 95.2602 205.88 96.8902 205.53 101.48C201.55 107.27 191.79 108.58 184 105.29Z" fill="white"/>
<path d="M203.87 94.4099C199.4 99.9499 190.32 101.09 184.55 99.5599C184.34 97.0699 183.79 92.5599 182.37 90.2899C186.86 90.4999 192.24 89.6399 194.7 88.3499C197.713 87.5798 200.585 86.3378 203.21 84.6699C204.24 87.0499 204.66 92.3699 203.87 94.4099Z" fill="white"/>
<path d="M205.52 101.44C203.701 103.908 201.058 105.643 198.07 106.33L197.89 105.33C199.132 104.947 200.195 104.13 200.885 103.029C201.575 101.927 201.847 100.615 201.65 99.3298C201.43 97.8398 199.55 98.0098 195.65 99.3298C200.9 97.1998 201.29 93.7798 201.38 92.1898C201.47 90.5998 201.28 88.3698 200.09 89.1098C197.38 90.5224 194.453 91.4721 191.43 91.9198C189 92.3498 184.81 92.4698 184.81 93.6698C184.783 95.1668 184.894 96.6631 185.14 98.1398C185.4 99.6298 187.63 100.32 190.14 100.14C189.98 100.14 185.67 100.14 185.21 101.36C184.93 102.1 183.92 104.46 189.21 105.42V106.7C187.426 106.42 185.683 105.923 184.02 105.22C184.34 103.322 184.527 101.404 184.58 99.4799C184.37 96.9899 183.81 92.4798 182.39 90.2098C186.88 90.4198 192.26 89.5698 194.72 88.2798C197.732 87.5023 200.604 86.2572 203.23 84.5898C204.23 86.9798 204.68 92.2998 203.89 94.3298C204.86 95.2098 205.85 96.8398 205.52 101.44Z" fill="#D3E5EA"/>
<path d="M182.19 89.9998C190.19 91.4298 198.92 88.4198 205.05 83.2998C215.4 107.15 193.53 109.67 184.05 105.09" stroke="#2D1F04" stroke-width="2.62" stroke-linecap="round" stroke-linejoin="round"/>
<path d="M169.64 76.9998C168.69 82.3598 163.01 82.5798 156.85 82.9998C149.64 83.4298 141.9 82.9998 142.34 74.6998C142.67 68.5798 149.01 66.1398 158.27 65.9798C167.53 65.8198 170.84 70.2398 169.64 76.9998Z" fill="white"/>
<path d="M169.82 75.6703C167.08 70.0403 161.54 69.1203 154.53 70.3103C147.12 71.6003 143.71 74.5103 142.7 78.2003C142.386 77.0346 142.264 75.8253 142.34 74.6203C142.67 68.5103 149.02 66.0603 158.27 65.8903C166.91 65.7503 170.37 69.6803 169.82 75.6703Z" fill="#D3E5EA"/>
<path d="M150.6 75.7897C150.602 74.5868 150.961 73.4115 151.631 72.4125C152.301 71.4135 153.253 70.6358 154.365 70.1778C155.477 69.7197 156.7 69.6019 157.88 69.8393C159.059 70.0766 160.141 70.6584 160.99 71.5111C161.838 72.3638 162.415 73.4491 162.646 74.6295C162.878 75.81 162.754 77.0326 162.29 78.1426C161.827 79.2526 161.045 80.2002 160.042 80.8655C159.04 81.5307 157.863 81.8836 156.66 81.8797C155.049 81.8744 153.506 81.2301 152.37 80.0883C151.234 78.9465 150.597 77.4005 150.6 75.7897Z" fill="#2D1F04"/>
<path d="M169.64 76.9998C168.71 82.2898 162.92 82.5098 156.85 82.9998C149.55 83.5298 141.9 83.0698 142.34 74.6998C142.67 68.5798 149.01 66.1398 158.27 65.9798C167.53 65.8198 170.84 70.2398 169.64 76.9998Z" stroke="#2D1F04" stroke-width="2.62" stroke-linecap="round" stroke-linejoin="round"/>
<path d="M152.18 75.8004C153.66 75.8004 154.86 74.6006 154.86 73.1204C154.86 71.6403 153.66 70.4404 152.18 70.4404C150.7 70.4404 149.5 71.6403 149.5 73.1204C149.5 74.6006 150.7 75.8004 152.18 75.8004Z" fill="white"/>
<path d="M153.2 78.7099C153.763 78.7099 154.22 78.2533 154.22 77.6899C154.22 77.1266 153.763 76.6699 153.2 76.6699C152.637 76.6699 152.18 77.1266 152.18 77.6899C152.18 78.2533 152.637 78.7099 153.2 78.7099Z" fill="white"/>
<path d="M254.81 73C254.09 78.12 247.16 78.13 240.64 78.88C232.26 79.88 223.95 79.94 223.97 71.29C223.97 65.15 230.97 62.55 241.38 62.18C251.79 61.81 255.76 66.18 254.81 73Z" fill="white"/>
<path d="M254.93 70.6096C251.16 66.0296 244.76 65.5396 236.93 66.9996C230.11 68.2496 226.13 70.3796 224.13 72.9996C224.04 72.4073 223.996 71.8088 224 71.2096C224 65.0696 231 62.4696 241.4 62.0996C250.52 61.7896 254.7 65.1896 254.93 70.6096Z" fill="#D3E5EA"/>
<path d="M234.81 71.77C234.775 70.8464 235.015 69.9332 235.499 69.146C235.983 68.3588 236.69 67.733 237.53 67.3478C238.37 66.9626 239.306 66.8353 240.218 66.9821C241.131 67.1289 241.979 67.5432 242.656 68.1725C243.333 68.8017 243.808 69.6177 244.021 70.5171C244.234 71.4165 244.175 72.3588 243.852 73.2247C243.529 74.0907 242.957 74.8414 242.207 75.3817C241.457 75.922 240.564 76.2277 239.64 76.26C238.405 76.3032 237.202 75.8549 236.297 75.0132C235.392 74.1716 234.857 73.0053 234.81 71.77V71.77Z" fill="#2D1F04"/>
<path d="M254.81 73C254.09 78.12 247.16 78.13 240.64 78.88C232.26 79.88 223.95 79.94 223.97 71.29C223.97 65.15 230.97 62.55 241.38 62.18C251.79 61.81 255.76 66.18 254.81 73Z" stroke="#2D1F04" stroke-width="2.78057" stroke-linecap="round" stroke-linejoin="round"/>
<path d="M233.67 71.59C233.676 70.3274 234.057 69.0949 234.763 68.0486C235.47 67.0023 236.472 66.1893 237.641 65.7125C238.81 65.2358 240.095 65.1166 241.331 65.3703C242.568 65.6239 243.702 66.2389 244.59 67.1373C245.477 68.0357 246.077 69.1773 246.316 70.4173C246.554 71.6573 246.418 72.9401 245.927 74.1033C245.436 75.2664 244.61 76.2576 243.555 76.9512C242.5 77.6449 241.263 78.0099 240 78C238.311 77.9868 236.697 77.3047 235.51 76.1032C234.324 74.9016 233.662 73.2787 233.67 71.59V71.59Z" fill="#2D1F04"/>
<path d="M235.33 71.6C236.887 71.6 238.15 70.3374 238.15 68.78C238.15 67.2225 236.887 65.96 235.33 65.96C233.773 65.96 232.51 67.2225 232.51 68.78C232.51 70.3374 233.773 71.6 235.33 71.6Z" fill="white"/>
<path d="M236.4 74.6498C236.991 74.6498 237.47 74.1707 237.47 73.5798C237.47 72.9888 236.991 72.5098 236.4 72.5098C235.809 72.5098 235.33 72.9888 235.33 73.5798C235.33 74.1707 235.809 74.6498 236.4 74.6498Z" fill="white"/>
<path d="M118.94 219.41C125.44 231 129.15 238.86 132.12 249.84" stroke="#2D1F04" stroke-width="2.62" stroke-linecap="round" stroke-linejoin="round"/>
<path d="M360.65 255.88C400.34 240.64 422.74 168.88 429.65 140.28C423.25 137.91 396.19 132.16 390.51 135.86C379.91 142.74 367.14 171.86 354.21 172.25C334.51 172.9 326.62 155.25 310.48 152.18C302.07 156.63 294.54 159.91 281.39 166.18C290.12 193.58 294.32 210.12 307.33 226.5C324.24 247.82 342.84 262.72 360.65 255.88Z" fill="#CAA77A"/>
<path d="M333.65 253.23C333.65 254.07 333.65 254.89 333.65 255.7C331.81 256.42 328.51 258.57 328.48 260.17C328.29 272.02 327.8 284.8 324.99 294.79C278.99 300.38 255.46 300.72 212.24 299.21C184.18 298.21 158.37 296.69 139.06 285.27C138.732 283.129 138.568 280.966 138.57 278.8C138.88 271.18 143.79 247.02 153.24 226.57C151.85 223.22 151.51 218.79 151.77 214.07C152.54 200.69 158.18 184.91 158.26 183.96C158.37 182.84 156.15 180.88 157.16 178.72C157.68 177.6 159.93 174.26 160.73 174.07C160.97 174 161.08 174.23 160.98 174.87C171.438 177.836 182.152 179.808 192.98 180.76C197.54 181.12 202.41 181.37 205.56 181.53C208.95 181.71 215.19 182.15 221.43 181.9C240.43 181.15 254.31 177.9 256.97 176.53C263.28 173.72 281.85 165.87 292.51 157.14C295.422 154.71 298.791 152.887 302.418 151.778C306.045 150.668 309.857 150.295 313.63 150.68C324.92 152.13 335.53 159.13 342.77 164.6C346.3 163.89 351.49 167.65 349.96 170.18C340.36 182.08 334.43 198.36 332.08 216.75C330.57 228.59 331.36 239.83 333.56 253.05L333.65 253.23Z" fill="#FFDB1F"/>
<g style="mix-blend-mode:multiply" opacity="0.23">
<path d="M333.69 255.7C331.85 256.42 328.55 258.57 328.52 260.17C328.33 272.02 327.84 284.8 325.03 294.79C305.65 297.15 290.27 298.57 275.72 299.31C285.8 298.69 296.01 295.83 300.5 289.84C304.32 284.74 305.36 275.15 305.67 264.42C305.961 255.75 305.771 247.07 305.1 238.42C311.92 244.8 316.22 248.5 319.79 250.42C323.36 252.34 328.79 248.05 328.52 240.03C328.206 231.582 329.52 223.152 332.39 215.2C332.3 215.71 332.24 216.2 332.17 216.74C330.65 228.57 331.45 239.82 333.65 253.04V253.22C333.68 254.07 333.69 254.89 333.69 255.7Z" fill="#3F2719"/>
</g>
<g style="mix-blend-mode:multiply" opacity="0.23">
<path d="M350.05 170.18C347.127 173.831 344.581 177.768 342.45 181.93C341.25 178.46 335.65 176.03 334.01 176.33C332.58 174.84 329.38 171.96 321.66 167.4C315.27 163.62 300.23 157.13 290.73 158.6C291.38 158.12 291.99 157.6 292.6 157.14C295.512 154.71 298.881 152.887 302.508 151.778C306.135 150.668 309.947 150.295 313.72 150.68C325.01 152.13 335.62 159.14 342.86 164.6C346.39 163.89 351.58 167.64 350.05 170.18Z" fill="#3F2719"/>
</g>
<path d="M194.26 99.7199C194.72 99.6299 195.18 99.4999 195.64 99.3799C195.18 99.5099 194.72 99.6299 194.26 99.7199Z" fill="#B6B1AE"/>
<path d="M194.26 99.7199C194.72 99.6299 195.18 99.4999 195.64 99.3799C195.18 99.5099 194.72 99.6299 194.26 99.7199Z" fill="white"/>
<path d="M194.26 99.7199C194.72 99.6299 195.18 99.4999 195.64 99.3799C195.18 99.5099 194.72 99.6299 194.26 99.7199Z" fill="white"/>
<g style="mix-blend-mode:multiply" opacity="0.23">
<path d="M429.64 140.28C422.74 168.86 400.35 240.65 360.64 255.88C351.53 259.38 342.21 257.18 333.02 251.36C332.093 244.807 331.622 238.198 331.61 231.58C359.15 249.86 383.29 218.07 392.67 197.86C402.23 177.27 409.73 157.03 413.51 136.41C418.972 137.313 424.363 138.606 429.64 140.28V140.28Z" fill="#3F2719"/>
</g>
<path d="M396.6 84.7797C396.13 74.5697 401.69 65.4297 406.38 59.9397C413.74 51.3397 425.1 45.0997 427.8 49.3897C430.63 53.8797 424.75 61.4997 422.31 72.0097C421.04 77.4897 419.31 85.3297 421.2 92.0097C427.56 98.6897 433.03 104.65 433.29 119.36C433.55 134.07 427.5 149.05 419.61 156.25C416.57 159.117 412.953 161.302 409 162.66C397.89 166.3 383.26 165.16 375.45 161.02C367.23 156.67 362.51 148.02 361.68 138.89C361.416 135.981 361.554 133.05 362.09 130.18C359.76 123.39 360.39 113 363.68 107.28C362.68 102.19 363.91 91.2797 370.04 85.6497C374.65 81.3997 386.1 82.4097 396.64 84.7797C400.28 85.5997 403.82 86.5797 406.92 87.5597" fill="#B6B1AE"/>
<g style="mix-blend-mode:multiply" opacity="0.23">
<path d="M433.28 119.36C433.55 134.2 427.49 149.05 419.6 156.26C416.545 159.132 412.91 161.314 408.94 162.66C397.84 166.31 383.22 165.16 375.4 161.02C372.735 159.612 370.359 157.712 368.4 155.42C371.92 146.88 393.66 156.26 401.95 155.91C411.81 155.49 419 142.68 422.47 131.4C425.94 120.12 423.74 102.92 418.6 97.9805C413.46 93.0405 413.12 85.9805 415.82 76.2705C420.3 60.2705 428.43 53.6505 426.82 48.4805C429.06 50.0105 428.56 52.8505 428.43 53.6505C427.73 58.1505 424.1 64.3105 422.32 72.0205C421.04 77.4905 419.32 85.3305 421.2 92.0205C427.55 98.7005 433 104.65 433.28 119.36Z" fill="#3F2719"/>
</g>
<g style="mix-blend-mode:multiply" opacity="0.23">
<path d="M363.63 107.28C367.18 100.22 378.48 100.41 382.79 99.2798C384.82 98.7372 386.942 98.6242 389.018 98.9479C391.095 99.2716 393.081 100.025 394.85 101.16C397.901 102.823 400.728 104.87 403.26 107.25C394.36 104.6 377.79 101.34 363.63 107.28Z" fill="#3F2719"/>
</g>
<g style="mix-blend-mode:multiply" opacity="0.23">
<path d="M361.25 130.33C364.64 122.2 376.25 123.22 380.63 122.33C385.01 121.44 389.09 121.87 392.55 124.63C395.422 126.912 398.019 129.52 400.29 132.4C387.63 127 375.64 125 361.25 130.33Z" fill="#3F2719"/>
</g>
<path d="M396.6 84.7803C396.13 74.5703 401.36 65.1303 406.38 59.9403C413.72 52.3603 425.1 45.1003 427.8 49.3903C430.63 53.8803 426.12 58.6003 422.31 72.0103C420.78 77.4203 419.31 85.3303 421.2 92.0103C427.56 98.6903 433.03 104.65 433.29 119.36C433.55 134.07 427.5 149.05 419.61 156.25C416.57 159.118 412.953 161.303 409 162.66C397.89 166.3 383.26 165.16 375.45 161.02C367.23 156.67 362.51 148.02 361.68 138.89C361.416 135.982 361.554 133.051 362.09 130.18C359.76 123.39 360.39 113 363.68 107.28C362.68 102.19 363.91 91.2803 370.04 85.6503C374.65 81.4003 386.1 82.4103 396.64 84.7803C400.28 85.6003 403.82 86.5803 406.92 87.5603" stroke="#2D1F04" stroke-width="2.78057" stroke-linecap="round" stroke-linejoin="round"/>
<path d="M363.63 107.28C375.02 102.48 391.57 103.54 401.94 106.99" stroke="#2D1F04" stroke-width="2.78057" stroke-linecap="round" stroke-linejoin="round"/>
<path d="M362 130.18C372.31 124.37 390.51 127.52 399.19 132.4" stroke="#2D1F04" stroke-width="2.78057" stroke-linecap="round" stroke-linejoin="round"/>
<path d="M333.69 253.241V253.061C333.66 253.121 333.68 253.171 333.69 253.241Z" fill="#FFDB1F"/>
<path d="M333.69 255.7C331.95 257.01 328.55 258.57 328.52 260.17C328.33 272.02 327.84 284.79 325.03 294.79" stroke="#2D1F04" stroke-width="2.62" stroke-linecap="round" stroke-linejoin="round"/>
<path d="M321.89 251.86C322.65 254.14 323.51 256.02 328.52 260.17C324.04 258.3 318.2 254.44 315.27 251.22" stroke="#2D1F04" stroke-width="2.62" stroke-linecap="round" stroke-linejoin="round"/>
<path d="M174.48 216.66C182.48 216.88 189.86 216.87 197.25 217.15C203.32 217.38 205.87 221.32 205.18 225.1C204.24 230.31 199.59 233.78 192.98 235.39C192.63 235.48 192.29 235.53 191.59 235.66C196.76 239.13 194.98 245.66 200.53 251.54C195.03 251.24 190.13 250.98 185.08 250.73C182.719 247.482 181.288 243.651 180.94 239.65C180.74 237.65 180.12 236.15 176.56 236.65C173.82 241.02 171.4 245.54 171.49 250.27C167.2 250.13 163.49 250.04 159.89 250.02C162.45 237.3 173.15 229.61 174.48 216.66ZM184.39 223.39C183.437 225.741 182.255 227.992 180.86 230.11C183.37 230.06 185.78 230.11 188.32 229.96C189.318 229.917 190.288 229.619 191.137 229.094C191.986 228.568 192.686 227.834 193.17 226.96C194.02 225.23 193.31 223.86 191.17 223.61C189.03 223.36 186.77 223.45 184.39 223.39Z" fill="#2D1F04"/>
<path d="M238.63 227.46L228.35 227.85C228.42 224.76 226.67 223.03 223.73 222.91C222.8 222.795 221.858 222.984 221.045 223.449C220.232 223.914 219.591 224.63 219.22 225.49C218.98 227.25 220.02 227.87 221.36 228.28C223.82 229.03 226.36 229.72 228.73 230.54C230.049 230.99 231.327 231.552 232.55 232.22C240.2 236.35 237.55 246.22 232.03 250.51C230.001 252.005 227.614 252.939 225.11 253.22C220.284 253.739 215.404 253.353 210.72 252.08C204.02 250.35 199.64 245.76 201.63 240.08H213.13C213.151 240.75 213.211 241.418 213.31 242.08C213.95 245.45 218.22 247.23 222.02 246.08C222.799 245.918 223.515 245.534 224.083 244.976C224.65 244.417 225.045 243.707 225.22 242.93C225.363 242.269 225.266 241.578 224.945 240.982C224.624 240.387 224.101 239.925 223.47 239.68C222.295 239.172 221.093 238.728 219.87 238.35C217.347 237.589 214.864 236.702 212.43 235.69C208.04 233.59 207.19 230.21 208.59 226.29C210.16 221.92 212.82 218.29 217.32 216.88C221.783 215.414 226.597 215.414 231.06 216.88C236.17 218.53 239.07 221.94 238.63 227.46Z" fill="#2D1F04"/>
<g style="mix-blend-mode:multiply" opacity="0.23">
<path d="M145.55 246.22C148.511 242.842 151.987 239.953 155.85 237.66C160.56 234.66 166.4 234.41 171.63 235.16C185.77 237.16 211.41 245.16 225.85 247.08C252.23 250.56 275.12 240.83 272.41 236.89C270.13 233.59 230.72 243.48 215.87 238.34C202.69 233.77 182.06 232.96 168.51 230.71C165.26 230.16 154.61 227.43 151.87 222.5C151.863 223.928 152.292 225.323 153.1 226.5C150.096 232.876 147.572 239.468 145.55 246.22V246.22Z" fill="#3F2719"/>
</g>
<path d="M160.83 175.61C160.95 174.91 160.83 174.67 160.59 174.74C159.78 174.92 157.54 178.27 157.02 179.39C156.02 181.55 158.23 183.51 158.12 184.63C158 185.91 147.73 214.34 153.12 227.24" stroke="#2D1F04" stroke-width="2.62" stroke-linecap="round" stroke-linejoin="round"/>
<path d="M158.66 184C165.09 188.24 177.36 190.51 190.4 192C214.029 194.751 237.96 193.271 261.07 187.63" stroke="#2D1F04" stroke-width="2.62" stroke-linecap="round" stroke-linejoin="round"/>
<path d="M167.86 177.83C167.117 179.53 166.684 181.348 166.58 183.2" stroke="#2D1F04" stroke-width="2.62" stroke-linecap="round" stroke-linejoin="round"/>
<path d="M179.35 180.13C178.593 181.994 178.252 184 178.35 186.01" stroke="#2D1F04" stroke-width="2.62" stroke-linecap="round" stroke-linejoin="round"/>
<path d="M235.56 181.92V182.43V182.94V183.96V184.47" stroke="#2D1F04" stroke-width="2.62" stroke-linecap="round" stroke-linejoin="round"/>
<path d="M239.39 181.92V182.69V183.45V183.96" stroke="#2D1F04" stroke-width="2.62" stroke-linecap="round" stroke-linejoin="round"/>
<path d="M138.91 285.23C138.591 283.088 138.43 280.926 138.43 278.76C138.74 271.13 143.64 246.97 153.1 226.53" stroke="#2D1F04" stroke-width="2.62" stroke-linecap="round" stroke-linejoin="round"/>
<path d="M160.83 175.53C177.767 180.184 195.265 182.479 212.83 182.35C231.9 182.35 249.65 179.53 256.89 176.7C265.389 173.417 273.586 169.402 281.39 164.7C285.39 162.32 290.01 158.63 294.22 155.95C300.88 151.7 308.37 149.65 313.55 150.68C324.24 152.46 335.22 159.42 342.87 164.89C346.6 164.18 351.25 168.43 350.06 170.21C334.27 189.81 328 221.89 333.7 255.74" stroke="#2D1F04" stroke-width="2.62" stroke-linecap="round" stroke-linejoin="round"/>
<path d="M285.69 162.061C280.94 165.311 276.76 172.841 275.69 179.521" stroke="#2D1F04" stroke-width="2.62" stroke-linecap="round" stroke-linejoin="round"/>
<path d="M371.65 158.54C366 165.86 360.12 172.05 354.2 172.25C352.347 172.314 350.493 172.207 348.66 171.93" stroke="#2D1F04" stroke-width="2.62" stroke-linecap="round" stroke-linejoin="round"/>
<path d="M333.62 251.74C342.62 257.28 351.73 259.3 360.62 255.88C400.31 240.64 422.71 168.88 429.62 140.28" stroke="#2D1F04" stroke-width="2.62" stroke-linecap="round" stroke-linejoin="round"/>
<path d="M127.89 213.93C125.92 212.979 124.076 211.786 122.4 210.38C122.12 210.09 121.83 209.86 121.6 209.62C120.72 208.77 119.51 204.11 123 201.5C123.41 200.32 123.88 199.04 124.38 197.69C132.63 175.48 146.01 167.02 160.62 168.53" stroke="#2D1F04" stroke-width="2.62" stroke-linecap="round" stroke-linejoin="round"/>
<path d="M342.86 164.85C333.53 174.52 322.18 192.03 323.05 223.85" stroke="#2D1F04" stroke-width="2.62" stroke-linecap="round" stroke-linejoin="round"/>
<path d="M334.35 175.771C335.791 175.913 337.158 176.476 338.28 177.391" stroke="#2D1F04" stroke-width="2.62" stroke-linecap="round" stroke-linejoin="round"/>
<path d="M331.43 181C332.54 181.16 334.62 181.48 335.61 182.36" stroke="#2D1F04" stroke-width="2.62" stroke-linecap="round" stroke-linejoin="round"/>
<path d="M324.8 200.771C326.662 200.836 328.505 201.172 330.27 201.771" stroke="#2D1F04" stroke-width="2.62" stroke-linecap="round" stroke-linejoin="round"/>
<path d="M123 201.5C130.735 205.802 138.833 209.416 147.2 212.3" stroke="#2D1F04" stroke-width="2.62" stroke-linecap="round" stroke-linejoin="round"/>
<path d="M130.52 205.41C129.35 206.07 128.52 208.41 128.46 209.53" stroke="#2D1F04" stroke-width="2.62" stroke-linecap="round" stroke-linejoin="round"/>
<path d="M137.37 208.53C136.643 209.444 136.195 210.548 136.08 211.71" stroke="#2D1F04" stroke-width="2.62" stroke-linecap="round" stroke-linejoin="round"/>
<path d="M331.62 231.57C331.621 238.191 332.082 244.804 333 251.36C333.19 252.8 333.41 254.24 333.66 255.7" stroke="#2D1F04" stroke-width="2.62" stroke-linecap="round" stroke-linejoin="round"/>
</g>
<defs>
<clipPath id="clip0_281_3339">
<rect width="435" height="300" fill="white"/>
</clipPath>
</defs>
</svg>
