<svg width="354" height="343" viewBox="0 0 354 343" fill="none" xmlns="http://www.w3.org/2000/svg">
<g clip-path="url(#clip0_281_858)">
<path d="M273.3 45.5001C270.6 42.7001 288.8 58.2001 294.1 62.3001C307 72.3001 319.5 90.6001 326.7 104.9C346.7 144.9 358 214.4 341 256.9C310.1 334.2 217.6 347.7 147.4 339.9C118.9 336.7 60.3 317.5 38.5 295.7C-11.9 245.3 -12.5 187.5 40.6 134.4C55.4 119.6 64.8 117.9 81.6 105.3C96.5 94.1001 105.4 69.2001 120 55.3001C152.6 24.3001 197 26.3001 227.5 32.4001C237.5 34.4001 250.8 39.0001 260.1 43.6001C263.6 45.5001 277.5 49.7001 273.3 45.5001Z" fill="#689BD4"/>
<path opacity="0.1395" d="M284 132.5C279.5 138.4 266.7 169 273.6 168.1C305.9 163.8 296.6 209.3 261 225.6C227.6 240.9 223.2 221.5 225.7 214.2C232.8 193.5 170.7 229.2 177.6 249.8C195.4 303.3 29.4 249.2 71.9 213.2C92.6 195.7 100.5 153.7 77 165.4C8.40001 199.4 28.9 148.4 27.2 150.2C6.6 170.8 5.8 198.8 5.6 197.1C5.5 196.3 6.5 194 5.8 194.6C1 198.6 1.9 219.1 2.1 224.8C3.4 255.3 20.6 278.1 41.6 299.6C59.6 318 87.7 325.8 110.6 333.3C143.2 344 163.5 341.7 197.5 340.4C247.5 338.5 309.9 318.2 333.1 270.5C344.2 247.8 345.8 242.8 349.6 217.6C353.3 193 345.9 159.4 335.5 120.9C332.2 108.7 325.9 102.3 319.1 91.6C314.5 84.4 285.9 51.9 272.2 47.7C268.6 46.6 249.5 76.5 268 75.8C282.3 75 300.5 110.8 284 132.5Z" fill="#042B88"/>
<path opacity="0.144" d="M162.5 63.3001C153.8 56.8001 122 79.3001 139.7 99.7001C154.7 117 176.1 105 176.1 105C176.1 105 171.7 70.1001 162.5 63.3001Z" fill="#042B88"/>
<path d="M236.3 12.1002C234.6 13.8002 234.8 8.40023 235 8.30023C236.5 6.80023 242 12.2002 242.8 13.2002C250.4 22.6002 266.5 34.8002 269.5 46.8002C270.5 50.7002 272.6 54.4002 273.5 58.2002C276.6 70.4002 275.6 85.8002 272.6 97.9002C272.2 99.6002 269 116.4 269.5 116.9C270.1 117.5 273.3 117 274.2 117.3C277.4 118.7 279.7 120.9 282.7 122.5C284.5 123.4 288.5 122.9 290.5 123.4C306.6 127.4 330.5 145 338.9 159C347.7 173.7 355.9 190.1 352.3 207.8C352.1 208.9 349.7 221.7 349.2 221.9C348.7 222.2 347.6 216.7 347.4 216.3C346.1 213.2 344.8 210 343.6 206.9C340.1 198.1 329.1 184.9 321.4 179.1C302.7 165.1 261.8 167.9 244.2 174.4C237.5 176.9 229.3 197.2 228.5 203.7C227.9 208.4 226.3 212 225.2 216.6C222.6 227.1 222.2 219.6 218.9 222.1C217.5 223.2 217.1 228.4 216.7 230.2C215.8 233.7 222 239.4 222.7 243C224.9 253.9 223.9 263.8 222.7 274.8C222.1 280.4 221.3 293.1 223.6 298.5C224.8 301.3 225.7 304.2 227 306.8C227.2 307.3 229.9 310.6 228.8 310.6C222.1 310.6 211.7 305.1 207.1 301.1C196.1 291.6 196.6 293.6 181 258C176.5 247.8 172.6 243.2 164.9 234.9C151 219.8 139.6 218.1 117.8 212.1C112.8 210.7 92.4 204 87.5 206.6C84.3 208.4 74.6 209.8 72.1 212.3C66.9 217.5 63.4 222.5 57.8 227.4C53.5 231.1 49.8 234.9 44.4 236.1C37.7 237.6 33.8 234.3 26.9 234.6C25.3 234.7 13.9 230.3 12.3 230.7C12 230.8 24.6 227.4 30.9 223.2C32.7 222 34.1 220.7 34.4 219.3C37.2 208.1 38.1 216.7 43.4 197.3C49.2 176.1 68.2 180.9 76.6 172.6C79.1 170.1 79.2 161.9 80.4 158.7C82.3 153.8 85.8 147.2 89.6 143.5C94.6 138.5 104 134.1 105.5 126.5C107.7 115.6 78.5 112.9 72.1 113.5C66.2 114 61.3 119.9 56.2 122.7C54.3 123.7 53.5 124.5 51.5 123.8C48.5 122.8 51 113.4 53 111.4C62.4 102 68.3 91.3002 81.9 87.5002C91.6 84.8002 99.2 84.2002 110.9 86.2002C122.6 88.2002 121 91.5002 125.4 91.5002C129.4 91.5002 131.6 86.2002 136.4 87.0002C140.6 87.7002 146.6 93.9002 150.7 93.0002C160.8 91.0002 158.6 79.7002 159.9 71.9002C162 59.5002 165.6 47.2002 173.3 37.0002C175.9 33.5002 176.8 29.3002 180 26.0002C185.4 20.6002 190.4 16.7002 200.5 14.3002C201.4 14.1002 202 14.1002 201.3 13.5002C200.7 13.0002 196.2 9.50023 198.2 8.80023C202.3 7.40023 211.9 11.6002 212.8 11.1002C214.9 10.0002 210.9 5.50023 211 5.40023C211.7 4.70023 224.6 13.3002 224.9 13.0002C227 10.9002 222.2 4.70023 223.1 3.40023C223.6 2.70023 224.7 4.00023 225.3 4.50023C227.8 6.70023 230.4 8.00023 232.7 10.3002C235.8 13.6002 236.8 11.7002 236.3 12.1002Z" fill="#CAA77A"/>
<path d="M271 116C268.6 116.6 275.3 115.7 277.1 116C282.1 116.7 287.9 116.9 292.6 119.1C293.8 119.7 298.5 124.7 297.4 126C296.2 127.5 289.6 122.9 287.6 124.2C285.2 125.7 282.1 131.3 280.2 133.6C275.1 139.9 271 149.2 269.6 157.3C269.2 159.3 270.6 167.1 269.7 168.2C266.8 171.7 259.2 170.6 255.3 171.6C248.6 173.3 241.3 178.5 237.8 184.4C235.6 188.2 233.1 191.8 230.8 195.6C228.9 198.8 228.5 202.4 227.4 206.1C226.3 209.7 227.5 220.4 225.3 223.1C224.6 224 220.1 223.4 219.5 222.5C218.3 220.6 221 217.9 220.4 215.8C219.3 211.3 214.9 208.9 212.1 205.2C209.1 201.3 203.3 195.9 199.6 193C187.8 183.5 175.6 172.4 160.7 167.2C151.4 164 142.1 160.6 132.6 158.1C128 156.9 123.5 154.3 118.6 153.9C109.6 153.1 100.4 153.2 91.4 152.7C88.6 152.5 84.3 153.6 81.8 154.8C81.1 155.1 79.7 155.9 79.7 155.9C79.7 155.9 83.8 156 83.3 157.2C82.2 160.1 77 173.1 73.9 165.4C72.8 162.8 74.4 159.6 75.5 157.2C76.5 154.9 76.4 151.7 78 149.7C83.3 143.2 87.8 139.4 95.1 134.7C97.3 133.3 100.6 131.2 103.1 130.6C103.5 130.5 105.5 130.3 105.7 129.9C107.2 126 105.6 120.9 107.2 116.8C110.4 108.3 118.5 101.1 124.1 94.1999C124.9 93.1999 134 85.2999 135.1 85.9999C138.7 88.2999 143.2 91.5999 146.7 94.3999C148.5 95.7999 150.3 93.2999 151.6 93.8999C154.1 95.0999 156.5 99.6999 158.4 101.8C161.5 105.2 165.5 107.9 169 110.7C172.2 113.3 176.5 114.1 180.2 115.5C190.2 119.2 199.5 121.9 210 124.6C220.6 127.3 245.8 128 255.9 123.4C260.5 121.3 261.8 120.8 265.9 118.1C267.6 116.6 273.3 115.4 271 116Z" fill="#FFDB1F"/>
<path d="M202.9 97C245.6 108.5 261.4 68.9 256.9 51C256.4 49 255 36.4 235.6 32.1C232.4 31.4 225.4 31.7 222.4 30.5C219.4 29.3 216.9 28.5 214.3 25.4C214.3 28.8 213.6 29.2 212.6 29.2C207.8 29.4 199.6 21 190.7 20.7C180.5 20.3 170 38.2 167.8 44.9C163.7 57.2 160.2 85.5 202.9 97Z" fill="#FFDBAF"/>
<path d="M209.6 54.9003C216.8 59.4003 218.8 71.7003 212.5 77.3003C206.2 82.9003 194.9 78.0003 190.1 75.2003C178.1 68.3003 189.5 53.1003 194.7 52.0003C195.9 51.8003 198.3 51.1003 199.3 51.7003" fill="#9D7B51"/>
<path d="M209.1 55.4001C209.5 53.8001 206.7 51.7001 202.8 50.6001C198.9 49.5001 195.4 50.0001 195 51.6001C194.6 53.2001 197.4 55.3001 201.3 56.4001C205.2 57.4001 208.7 57.0001 209.1 55.4001Z" fill="#251707"/>
<path d="M224.8 36.9003C203.4 69.8003 247.2 85.0003 248.2 84.0003C256.5 75.9003 258.2 59.5003 257.8 55.2003C257.7 54.3003 224.9 36.8003 224.8 36.9003Z" fill="#9D7B51"/>
<path d="M200.1 29.5C200.9 29.5 192.5 63.4 165.3 53.5C163.8 52.9 166.7 45.5 167 44C169.9 29.6 174.7 33.7 185.9 32.9C190.3 32.5 198.4 29.5 200.1 29.5Z" fill="#9D7B51"/>
<path d="M351.1 203.2C353.9 204.5 352.3 220.4 348.4 221C347.6 221.1 347.7 220 347.6 219.7C347 215.8 341.3 207.4 342.5 203.7C342.7 203.3 350.2 202.8 351.1 203.2Z" fill="#D2D2D2"/>
<path d="M48.9 122C51.4 121.5 50.4 125.8 48.4 127C47.6 127.5 46.5 129.6 46.4 128.8C45.9 126.1 46.5 122.5 48.9 122Z" fill="#D2D2D2"/>
<path d="M221.4 292.4C222.9 295.6 225.9 301.5 227.7 305.3C228 305.9 229.8 313 229.5 313.4C228.5 314.7 222.9 311.1 221.8 310.5C214.7 307 209 304.8 203.8 298.6C203.1 297.7 198.1 294.5 199.4 292.6C201.9 289.2 211.2 288.5 214.7 289.1C216.5 289.4 218.1 289.8 219.8 290.3C220.3 290.5 221.2 291.8 221.4 292.4Z" fill="#D2D2D2"/>
<path d="M31.5 223.2C37.4 222.8 48 234.4 43.8 236C39.1 237.7 24.9 235.1 20 234.2C18.3 233.9 15.4 235.2 14.9 233.5C14.7 232.9 15.4 232.4 15.8 231.9C19.5 227.8 23.2 229.3 26.7 224.7C27.2 224 30.9 223.2 31.5 223.2Z" fill="#D2D2D2"/>
<path d="M225.3 220.4C225.3 225 221.3 222.7 218.8 222.7" stroke="#2D1F04" stroke-width="2.5974" stroke-miterlimit="10" stroke-linecap="round" stroke-linejoin="round"/>
<path d="M126.6 90.9999C126.6 90.9999 67.6 61.7999 45.5 128.7C45.3 129.3 45 130.9 45.5 130.5C77.2 103.7 94.8 115.1 104.8 124.3" stroke="#2D1F04" stroke-width="2.5974" stroke-miterlimit="10" stroke-linecap="round" stroke-linejoin="round"/>
<path d="M83 156.9C81.1 160 79 172 70.4 177" stroke="#2D1F04" stroke-width="2.5974" stroke-miterlimit="10" stroke-linecap="round" stroke-linejoin="round"/>
<path d="M347.7 229.4C364.7 183.1 332.1 136.2 290 124.9M118 122.2C110.7 123.7 80.4 139.5 73.6 158.1C71.2 164.8 75.8 167.2 78.1 168.8M34.3 219.6C30.5 225.1 11.4 230.9 11.8 231.5C12.4 232.3 40.7 238.4 48.8 235.7C58.1 232.6 64.5 217.7 72.5 212.3C87 202.4 105.3 209 130 215.1M71.2 176.5C58.5 182.8 48.4 178.5 42.7 197.5C39.6 207.9 39.3 213.8 33.2 220.6M201.1 15.0001C180 18.0001 163.7 37.7001 160.1 73.3001C158.6 87.6001 154.1 91.7001 150.2 93.4001M269.1 115.3C289.6 49.1001 255.4 27.6001 255 26.6001M255.1 26.6001C248.8 20.8001 244.2 11.6001 235.9 8.9001C236 11.1001 236 11.1001 236.1 13.2001C231 9.1001 226.6 4.8001 220.7 2.1001C224.5 10.9001 223.3 7.3001 224.9 12.5001C217.6 10.1001 215.6 4.7001 207.3 4.0001C210.6 6.3001 211.9 8.1001 214.1 11.6001C207.9 9.5001 201.7 7.1001 195.1 8.5001C198.2 11.5001 198.2 11.5001 201.2 14.5001M220.1 217.1C218.9 219.6 217.3 227.5 216.1 230M184.9 221.9C199 214.8 215 225 220.4 238.5C223.9 247.4 223.6 261.1 222.8 270.4C222.3 275.9 221.9 282 222.5 287.6C223.1 293 224.7 299.7 227 304.8C227.2 305.2 231.7 313.2 231.2 313.5C228.9 315.1 223.5 311.5 221.6 310.5C213.6 306.5 203.4 300 197.8 293C184.6 276.5 182.5 253.1 169.2 238.2C160.3 228.2 139.6 217.5 128 214.6M255.4 171.1C231.1 176.8 225.2 215.1 225.4 220.2M348.4 227.9C348.4 218.6 334.8 151.9 256.1 171" stroke="#2D1F04" stroke-width="2.5974" stroke-miterlimit="10" stroke-linecap="round" stroke-linejoin="round"/>
<path d="M98 83.7003C115.2 54.9003 134.8 37.6003 174.2 30.8003" stroke="#2D1F04" stroke-width="2.5974" stroke-miterlimit="10" stroke-linecap="round" stroke-linejoin="round"/>
<path d="M270.3 45.5C282.1 50.4 300.4 64.6 316.2 87.3C331.1 108.7 343.7 137.7 346.4 173.6" stroke="#2D1F04" stroke-width="2.5974" stroke-miterlimit="10" stroke-linecap="round" stroke-linejoin="round"/>
<path d="M347.9 225.4C332.3 351.1 169.4 348.1 122 336.4C23.8 312.1 -15.2 247.7 9.40004 181.2C22.2 146.7 45.9 129.9 45.9 129.9" stroke="#2D1F04" stroke-width="2.5974" stroke-miterlimit="10" stroke-linecap="round" stroke-linejoin="round"/>
<path d="M211.1 8.9002C211.1 8.8002 211.1 8.8002 211.1 8.7002" stroke="#2D1F04" stroke-width="2.5974" stroke-miterlimit="10" stroke-linecap="round" stroke-linejoin="round"/>
<path d="M222 290.9C215.5 286.3 203.8 288.6 198.1 292.8" stroke="#2D1F04" stroke-width="2.5974" stroke-miterlimit="10" stroke-linecap="round" stroke-linejoin="round"/>
<path d="M45.4 235.8C44.7 231.5 35.8 221.4 31.6 222.2" stroke="#2D1F04" stroke-width="2.5974" stroke-miterlimit="10" stroke-linecap="round" stroke-linejoin="round"/>
<path d="M40 227.3C38.8 227.5 32.1 228.3 25.7 229.2C19.1 230.1 14.5 231.3 14.4 231.9" stroke="#2D1F04" stroke-width="2.5974" stroke-miterlimit="10" stroke-linecap="round" stroke-linejoin="round"/>
<path d="M351.5 200.9C348 204 345 202.8 340.9 202.5" stroke="#2D1F04" stroke-width="2.5974" stroke-miterlimit="10" stroke-linecap="round" stroke-linejoin="round"/>
<path d="M347.2 203.7C348.5 210.9 350.4 218.9 348.3 225.9" stroke="#2D1F04" stroke-width="2.5974" stroke-miterlimit="10" stroke-linecap="round" stroke-linejoin="round"/>
<path d="M49.9 118.3C49.3 120.5 50.4 123.5 51.7 125.2" stroke="#2D1F04" stroke-width="2.5974" stroke-miterlimit="10" stroke-linecap="round" stroke-linejoin="round"/>
<path d="M328.5 147.6C327.9 138 324.5 123.7 318.4 108.6" stroke="#2D1F04" stroke-width="2.5974" stroke-miterlimit="10" stroke-linecap="round" stroke-linejoin="round"/>
<path d="M325.1 183.1C311.9 266.3 230.2 291.5 224.2 293.8" stroke="#2D1F04" stroke-width="2.7728" stroke-miterlimit="10" stroke-linecap="round" stroke-linejoin="round"/>
<path d="M202.7 299.4C128.1 317.9 58.2 274.5 33.4 248.6C19.8 234.4 7.30001 212.3 6.20001 193" stroke="#2D1F04" stroke-width="2.5974" stroke-miterlimit="10" stroke-linecap="round" stroke-linejoin="round"/>
<path d="M219.9 216.9C219.9 209.3 195.4 189.3 189.1 184.9C181.9 179.9 174.4 175.5 166.7 171.3C146.9 160.4 101.4 146.1 78.7 157.4" stroke="#2D1F04" stroke-width="2.6851" stroke-miterlimit="10" stroke-linecap="round" stroke-linejoin="round"/>
<path d="M226.4 57.9999C217.7 62.3999 202.6 63.0999 192.5 56.2999C188.3 53.4999 185 49.4999 183.3 43.8999" stroke="#2D1F04" stroke-width="2.6851" stroke-miterlimit="10" stroke-linecap="round" stroke-linejoin="round"/>
<path d="M237.9 183.3C244.8 179.7 258.2 181 262.9 182.5" stroke="#2D1F04" stroke-width="2.6851" stroke-miterlimit="10" stroke-linecap="round" stroke-linejoin="round"/>
<path d="M231.8 194.4C235.5 192.5 243.5 191.6 249.2 196.4" stroke="#2D1F04" stroke-width="2.6851" stroke-miterlimit="10" stroke-linecap="round" stroke-linejoin="round"/>
<path d="M229 203.5C234.2 203.5 240.6 205.1 243.6 212.6" stroke="#2D1F04" stroke-width="2.6851" stroke-miterlimit="10" stroke-linecap="round" stroke-linejoin="round"/>
<path d="M271.7 107.6C276.2 103.1 281.6 100.7 287.7 99.3003" stroke="#2D1F04" stroke-width="2.6851" stroke-miterlimit="10" stroke-linecap="round" stroke-linejoin="round"/>
<path d="M158.4 81.8999C158.4 76.7999 155.3 73.5999 150.9 71.3999" stroke="#2D1F04" stroke-width="2.6851" stroke-miterlimit="10" stroke-linecap="round" stroke-linejoin="round"/>
<path d="M89.6 137.4C86.2 129.7 80.7 125.6 72.2 123.9" stroke="#2D1F04" stroke-width="2.6851" stroke-miterlimit="10" stroke-linecap="round" stroke-linejoin="round"/>
<path d="M84.1 142.4C84.1 139.8 78.1 136.5 76.1 135.5" stroke="#2D1F04" stroke-width="2.6851" stroke-miterlimit="10" stroke-linecap="round" stroke-linejoin="round"/>
<path d="M259.6 121.3C259.4 121.4 259.2 121.5 259 121.6C253.4 124.4 245.5 124.9 239.4 125.7C217.1 128.9 164 117 152.4 93.6001" stroke="#2D1F04" stroke-width="2.6851" stroke-miterlimit="10" stroke-linecap="round" stroke-linejoin="round"/>
<path d="M150.9 94.0002C147.8 94.0002 135.3 85.8002 134.9 86.0002C119.7 93.6002 105.7 109.8 105.7 127.5" stroke="#2D1F04" stroke-width="2.6851" stroke-miterlimit="10" stroke-linecap="round" stroke-linejoin="round"/>
<path d="M269.1 115.1C268.5 114.6 299.4 114.6 296.4 126.2" stroke="#2D1F04" stroke-width="2.6851" stroke-miterlimit="10" stroke-linecap="round" stroke-linejoin="round"/>
<path d="M290.8 123.3C287.3 123.2 282.9 129.9 280.9 132.4C272.6 142.7 269.3 155.2 269.1 168.1" stroke="#2D1F04" stroke-width="2.6851" stroke-miterlimit="10" stroke-linecap="round" stroke-linejoin="round"/>
<path d="M257.3 53.3002C244.4 49.1002 232.3 41.1002 225.7 34.7002" stroke="#2D1F04" stroke-width="6.4991" stroke-miterlimit="10" stroke-linecap="round" stroke-linejoin="round"/>
<path d="M222.2 51.7001C228.9 49.3001 235.5 52.3001 240.3 56.9001" stroke="#2D1F04" stroke-width="2.7838" stroke-miterlimit="10" stroke-linecap="round" stroke-linejoin="round"/>
<path d="M191.7 40.7003C188.1 37.2003 180.7 35.4003 175.9 37.2003" stroke="#2D1F04" stroke-width="2.7838" stroke-miterlimit="10" stroke-linecap="round" stroke-linejoin="round"/>
<path d="M229.7 311.5C218.1 303.3 208.5 289.8 208.6 289.6" stroke="#2D1F04" stroke-width="2.5974" stroke-miterlimit="10" stroke-linecap="round" stroke-linejoin="round"/>
<path d="M199.5 27.5C184.8 32.6 170.9 28.8 170.3 28.7" stroke="#2D1F04" stroke-width="5.6661" stroke-miterlimit="10" stroke-linecap="round" stroke-linejoin="round"/>
<path d="M140.4 219.3C126.6 220.1 118.2 233.6 118.2 237.4" stroke="#2D1F04" stroke-width="2.5974" stroke-miterlimit="10" stroke-linecap="round" stroke-linejoin="round"/>
<path d="M124.5 214.3C115.2 214.3 103.3 220.4 97.2 236.5" stroke="#2D1F04" stroke-width="2.5974" stroke-miterlimit="10" stroke-linecap="round" stroke-linejoin="round"/>
<path d="M140.3 88.8999C129.6 92.0999 120.4 105.9 114.2 114.3" stroke="#2D1F04" stroke-width="2.7728" stroke-miterlimit="10" stroke-linecap="round" stroke-linejoin="round"/>
<path d="M288.2 116.7C279 118.1 270.4 134.1 265.6 140.6" stroke="#2D1F04" stroke-width="2.7728" stroke-miterlimit="10" stroke-linecap="round" stroke-linejoin="round"/>
<path d="M262.2 168.1C261.6 163.9 262 160 262.7 155.9" stroke="#2D1F04" stroke-width="2.7728" stroke-miterlimit="10" stroke-linecap="round" stroke-linejoin="round"/>
<path d="M177.3 114.8L176.9 115.3L176.5 116L176.2 116.5L175.4 118" stroke="#2D1F04" stroke-width="2.7728" stroke-miterlimit="10" stroke-linecap="round" stroke-linejoin="round"/>
<path d="M182.5 117.3L181.4 119L181.2 119.8L180.9 120.3" stroke="#2D1F04" stroke-width="2.7728" stroke-miterlimit="10" stroke-linecap="round" stroke-linejoin="round"/>
<path d="M125.1 92.1001C125.5 92.3001 125.9 92.6001 126.3 92.8001" stroke="#2D1F04" stroke-width="2.7728" stroke-miterlimit="10" stroke-linecap="round" stroke-linejoin="round"/>
<path d="M120.1 97.6001L123.4 99.8001" stroke="#2D1F04" stroke-width="2.7728" stroke-miterlimit="10" stroke-linecap="round" stroke-linejoin="round"/>
<path d="M129.3 89.2002L132.7 91.4002" stroke="#2D1F04" stroke-width="2.7728" stroke-miterlimit="10" stroke-linecap="round" stroke-linejoin="round"/>
<path d="M125.6 92.6001L129 94.7001" stroke="#2D1F04" stroke-width="2.7728" stroke-miterlimit="10" stroke-linecap="round" stroke-linejoin="round"/>
<path d="M112.6 109.3L115.9 111.5" stroke="#2D1F04" stroke-width="2.7728" stroke-miterlimit="10" stroke-linecap="round" stroke-linejoin="round"/>
<path d="M275.2 126.7L278.7 129.1" stroke="#2D1F04" stroke-width="2.7728" stroke-miterlimit="10" stroke-linecap="round" stroke-linejoin="round"/>
<path d="M271.6 131.5L275.5 133.9" stroke="#2D1F04" stroke-width="2.7728" stroke-miterlimit="10" stroke-linecap="round" stroke-linejoin="round"/>
<path d="M99.3 93.2002C98.5 94.2002 97.4 95.7002 96.6 96.8002" stroke="#9D7B51" stroke-width="3.0577" stroke-miterlimit="10" stroke-linecap="round" stroke-linejoin="round"/>
<path d="M106.6 94.3003C105.8 95.3003 104.7 96.8003 103.9 97.9003" stroke="#9D7B51" stroke-width="3.0577" stroke-miterlimit="10" stroke-linecap="round" stroke-linejoin="round"/>
<path d="M205.5 241.1C204.7 242.1 203.6 243.6 202.8 244.7" stroke="#9D7B51" stroke-width="3.0577" stroke-miterlimit="10" stroke-linecap="round" stroke-linejoin="round"/>
<path d="M292.9 136.5C292.1 137.5 291 139 290.2 140.1" stroke="#9D7B51" stroke-width="3.0577" stroke-miterlimit="10" stroke-linecap="round" stroke-linejoin="round"/>
<path d="M198.9 239.7C198.1 240.7 197 242.2 196.2 243.3" stroke="#9D7B51" stroke-width="3.0577" stroke-miterlimit="10" stroke-linecap="round" stroke-linejoin="round"/>
<path d="M251.4 107.1C250.6 108.1 249.5 109.6 248.7 110.7" stroke="#9D7B51" stroke-width="3.0577" stroke-miterlimit="10" stroke-linecap="round" stroke-linejoin="round"/>
<path d="M243.3 106.9C242.5 107.9 241.4 109.4 240.6 110.5" stroke="#9D7B51" stroke-width="3.0577" stroke-miterlimit="10" stroke-linecap="round" stroke-linejoin="round"/>
<path d="M233.3 106.2C232.5 107.2 231.4 108.7 230.6 109.8" stroke="#9D7B51" stroke-width="3.0577" stroke-miterlimit="10" stroke-linecap="round" stroke-linejoin="round"/>
<path opacity="0.23" d="M194.7 17.4C194.5 17.4 295.7 8.80001 258.3 122.5C258.3 122.6 268.9 115.8 268.9 115.8C268.9 115.8 285.5 61.2 263.3 33.1C260.9 30 256.5 28.8 254 25.7C249.8 20.5 245.3 15 240.2 10.8C235.4 6.8 236.9 13.8 235.2 13.6C234.1 13.5 223.8 2.10001 222 2.80001C220.5 3.30001 226.1 12.8 225.2 13.5C225 13.6 224.7 13.5 224.5 13.4C221 12.1 216.4 9.70001 213.4 7.20001C212.4 6.40001 215.7 10.7 212.7 11.4C209.8 12.1 196.1 5.40001 195.7 9.00001C195.9 9.10001 206.2 15.4 194.7 17.4Z" fill="#3F2719"/>
<path opacity="0.23" d="M184.1 222.2C185.2 221.2 195.9 212.6 200 209C217.6 193.5 236.6 166.5 213.5 146.2C196.2 131 173.6 123.5 150.8 121.3C141 120.3 132.5 124.7 123.1 123.5C117 122.7 117.1 121.7 117.7 120.6C119.5 117.1 130 112.1 139.7 114C148.2 115.6 157.2 118.9 165.2 121.7C177.8 126.2 217.1 135.7 237.5 133.8C260.6 131.7 272.8 133.3 277.2 135.6C278.8 136.4 327.7 138 344.4 173.3C347 178.9 350.3 186 350.6 192.1C350.7 193.4 351.1 203.8 349.9 204.2C348.3 204.8 344.1 201.2 342.5 202.4C341.6 203.2 344.9 203 346.1 203C346.9 203 350.2 201.1 350.9 201.4C352.3 202 349.4 216.2 349.2 218.4C349.2 218.7 349.3 219 349.1 219.2C348.9 219.3 343.7 208 342.6 206.3C340.8 203.5 340 200.2 338.3 197.3C335.1 192 329.5 187.4 324.9 183.2C310.1 169.6 294.5 166.2 274.6 167C267.5 167.3 256.2 169.9 249.4 173.1C230.5 182 228.6 197.5 225.6 220.8C224.9 226.1 220.9 221.2 218.4 223.3C216.9 224.5 217.3 227.7 216.3 228.5C215.8 228.9 210.7 224.8 210 224.2C206.7 221.7 201.7 220.1 197.8 219.1C193.6 218.1 182 224.4 184.1 222.2Z" fill="#3F2719"/>
<path opacity="0.23" d="M206.4 222.9C214 223.7 216.7 233 217 239.3C217.7 259.1 210.8 264.1 201.2 276.4C188.4 292.9 209.6 301.7 217.4 306.1C220.1 307.6 223.9 308.5 226.9 309.6C228 310 230.5 312.3 230.1 311.2C229.3 309 226.8 307 225.8 304.5C222.5 295.7 223.3 278.9 223 269.5C222.6 255.5 226.4 247.1 217.7 234.3C216 231.8 214.6 228.4 212 226.7" fill="#3F2719"/>
<path opacity="0.23" d="M169.2 237.5C164.3 234.4 163 222.2 122.6 206.6C99.1 197.5 73.7 195.6 57.6 222.1C54.7 226.8 48.9 234.2 43.5 236.3C43.1 236.4 42.5 236.3 42.4 236.7C42.3 237.4 45.8 237.1 46 237.1C48.5 236.5 51 234.2 52.9 232.6C60.8 226.2 67.7 211.6 78.5 209.2C98.5 204.7 119.9 209.1 138.1 218.1C143.2 220.6 147.5 224 152.2 226.9" fill="#3F2719"/>
<path d="M153.7 115.1C160.2 117.8 165.7 119.8 170.8 121.9C175 123.6 174.9 126.5 173.2 127.9C170.8 129.8 166.7 129.9 161.2 129.1C160.9 129.1 160.6 129 160.1 128.9C163.3 131.4 160.6 133.9 161.7 140.5C157.7 139 154.1 137.8 150.4 136.5C149.9 132.7 150 130.3 150.7 128.5C151 127.5 150.9 126.7 147.9 126.2C144.6 127.6 141.5 129.4 140.1 133.4C136.8 132.4 133.8 131.6 130.7 130.9C135.8 121.6 146.9 122.6 153.7 115.1ZM158.2 122.1C156.7 123 155 123.6 153 124.3C155 124.8 156.9 125.4 158.9 125.9C160.7 126.3 162.4 126.3 163.5 125.8C164.7 125.3 164.7 124.5 163.2 123.9C161.9 123.3 160.1 122.8 158.2 122.1Z" fill="#2D1F04"/>
<path d="M197.9 137.8C195 136.7 192.4 135.8 189.6 134.8C190.3 133.6 189.5 132.4 187.4 131.6C186 131.1 184.6 130.9 183.3 131.5C182.6 132.1 183.3 132.6 184.2 133.1C185.9 134 187.7 135 189.4 136C190.4 136.6 191.3 137.2 192.2 137.8C197.8 141.8 193.7 146.6 186.6 148.5C184.2 149.1 181.6 149.2 179.3 148.7C175.6 147.9 172.1 146 169 143.5C164.9 140.2 163.7 135.4 166.6 133.1C169.5 133.9 172.5 134.8 175.5 135.8C175.4 136.2 175.2 136.5 175.1 136.9C174.7 138.9 177.2 141.4 180.6 141.7C182.2 141.8 183.5 141.5 184.2 140.6C184.9 139.8 184.5 139 183.6 138.3C182.8 137.7 181.9 137.2 181 136.7C179.2 135.6 177.3 134.7 175.8 133.7C172.9 131.8 172.9 130.5 175.1 129.3C177.5 128 181 126.7 185 127.1C188.7 127.4 192.1 128.6 195.1 130.9C198.4 133.1 199.2 135.7 197.9 137.8Z" fill="#2D1F04"/>
</g>
<defs>
<clipPath id="clip0_281_858">
<rect width="354" height="343" fill="white"/>
</clipPath>
</defs>
</svg>
