<svg width="333" height="335" viewBox="0 0 333 335" fill="none" xmlns="http://www.w3.org/2000/svg">
<path d="M280.813 192.345C281.207 207.331 289.489 257.677 289.883 290.278C290.014 303.292 280.813 316.174 275.817 333C230.729 333 64.9662 333 52.741 333C50.5063 328.136 48.5345 321.564 49.5862 310.39C49.7176 309.601 49.7176 308.681 49.849 307.761C52.0837 292.907 57.2104 276.869 66.938 258.072C67.0694 257.677 67.3323 257.283 67.5952 256.757C67.7267 256.494 67.8582 256.363 67.9896 256.1C68.384 255.311 68.7783 254.654 69.1727 253.865C69.3042 253.602 69.5671 253.208 69.6985 252.945C69.83 252.813 69.83 252.682 69.9614 252.551C70.0929 252.419 70.0929 252.288 70.2243 252.025C70.3558 251.893 70.3558 251.762 70.4872 251.499C70.6187 251.367 70.6187 251.105 70.7502 250.973C70.6187 250.447 70.4872 249.921 70.3558 249.264C70.3558 249.133 70.3558 248.87 70.2243 248.738C70.0929 247.818 69.9614 247.029 69.9614 246.109C69.83 244.926 69.83 243.743 69.9614 242.429C70.6187 226.654 80.0833 205.49 80.3462 204.307C80.6091 203.124 78.243 200.626 79.5575 198.392C80.2148 197.209 82.9753 193.659 83.8955 193.528C84.027 193.659 84.027 193.922 83.8955 194.317H84.0269C85.0785 194.711 86.2616 195.105 87.5762 195.631C87.3133 196.42 87.1818 197.077 87.0504 197.734C87.1818 197.077 87.4447 196.42 87.5762 195.631C88.4964 196.026 89.548 196.288 90.5996 196.683C91.1254 196.814 91.5198 196.946 92.0456 197.209C92.44 197.34 92.9658 197.472 93.4916 197.603C100.59 199.838 109.266 202.072 119.256 203.781C119.519 203.781 119.782 203.913 120.045 203.913C120.44 204.044 120.965 204.044 121.36 204.176C127.932 205.359 133.191 206.016 139.106 206.41C139.237 206.41 139.369 206.41 139.5 206.41C142.918 206.673 146.73 206.805 151.068 206.936C172.495 207.593 188.007 204.701 191.293 204.044C191.819 203.913 192.213 203.781 192.739 203.781C203.65 200.364 212.063 196.814 219.95 192.871C224.419 190.636 229.677 187.087 234.41 184.589C234.673 184.458 234.804 184.326 235.067 184.195C242.823 179.988 251.236 179.2 257.151 179.988C272.531 182.88 280.813 192.345 280.813 192.345Z" fill="#CAA77A"/>
<path d="M37.2295 229.02C23.6898 249.395 3.70889 298.559 2 330.765C15.1453 330.765 56.2903 330.765 56.2903 330.765C62.863 293.301 91.9141 253.47 82.9753 237.302C74.0365 221.396 49.8491 218.372 37.2295 229.02Z" fill="#CAA77A"/>
<path opacity="0.23" d="M56.1588 330.897C56.1588 330.897 45.774 330.897 33.6803 330.897C40.6473 279.498 59.3137 253.865 73.7736 229.283C78.6373 231.781 80.2148 232.701 82.8438 237.565C91.9141 253.602 62.7315 293.432 56.1588 330.897Z" fill="#3F2719"/>
<path d="M89.548 187.876C88.7592 191.293 87.7076 195.237 87.0504 197.735C86.1302 197.735 82.8439 200.889 81.9237 201.941C80.2148 204.044 82.1866 206.805 81.7922 207.988C81.5293 209.04 75.6139 235.067 71.4074 249.527C62.4686 244.926 41.9618 234.673 38.0182 230.072C37.7553 229.678 37.4924 229.415 37.2295 229.152C36.3093 228.1 35.3891 222.579 39.4642 220.213C39.99 218.899 40.6473 217.584 41.3045 216.138C53.6612 189.322 71.5388 181.96 89.548 187.876Z" fill="#FFDB1F"/>
<path opacity="0.23" d="M89.548 187.875C88.7592 191.293 87.7076 195.237 86.9189 197.734C85.9987 197.734 82.7124 200.889 81.7922 201.941C80.2148 204.044 82.0551 206.805 81.6608 207.988C81.3979 209.039 75.4825 235.067 71.2759 249.527C67.5953 247.555 61.8113 244.663 56.0273 241.64C59.1822 242.56 62.6 242.56 63.2573 240.194C64.1775 237.17 64.4403 234.016 62.3371 232.964C65.2291 232.832 68.5154 220.344 70.7501 214.166C72.7219 208.382 79.1631 190.504 87.4447 187.35C88.3649 187.481 88.8907 187.613 89.548 187.875Z" fill="#3F2719"/>
<path d="M261.621 192.476C253.996 194.448 247.161 196.814 237.564 199.049C222.579 202.598 208.645 207.33 193.528 208.776C190.241 209.039 174.598 207.856 153.303 206.936C139.5 206.279 129.773 205.227 117.81 203.387C102.825 201.02 94.6746 197.866 84.1584 194.316C84.4213 193.659 88.3649 185.64 88.102 185.64C88.7592 183.011 89.6794 179.068 90.3367 175.65C90.994 172.495 91.5198 169.472 91.2569 169.34C90.3367 169.34 89.548 170.129 89.0222 171.049C87.4447 166.185 91.6512 163.162 91.9141 160.533C91.9141 160.007 90.4682 160.401 89.1536 162.242C89.548 158.43 91.1254 157.641 91.2569 156.195C91.3883 153.434 90.2052 150.279 89.548 147.65C81.2664 117.679 66.2807 59.7081 113.998 30.6568C112.027 26.4503 106.111 27.3705 106.111 27.3705C107.163 21.9809 117.022 17.9059 128.59 21.5866C129.115 21.0607 125.566 15.9341 131.087 10.9388C130.956 15.4082 134.111 20.272 135.557 18.3002C140.42 6.99523 149.228 2 160.401 2C156.458 4.23471 153.697 10.2816 154.354 16.3284C154.354 16.3284 159.218 9.6243 163.425 8.70412C158.561 14.8824 161.19 19.2204 163.293 20.1406C164.871 20.9293 172.889 18.5631 173.415 15.0139C175.387 16.0655 174.073 20.272 191.03 29.8681C262.541 70.3558 270.428 147.387 261.621 192.476Z" fill="#CAA77A"/>
<path d="M156.326 293.958C156.195 293.695 156.063 293.432 155.8 293.169Z" fill="#B6B1AE"/>
<path d="M87.4447 67.4634C92.0456 57.6044 106.505 52.3463 115.313 48.5341C125.698 44.0647 160.007 44.0647 155.275 33.417C166.448 37.0977 172.627 48.9285 182.486 50.9003C192.739 53.0036 214.692 63.6513 226.917 91.125C229.414 96.6461 236.119 141.603 198.786 157.115C170.26 168.945 110.449 162.767 90.994 125.04C82.0552 107.425 80.2148 86.1298 87.4447 67.4634Z" fill="#FFDBAF"/>
<path d="M140.815 75.7453C132.928 69.6984 122.017 90.0737 120.045 96.252C115.05 111.895 118.862 121.228 127.669 125.96C136.477 130.693 148.702 131.482 159.087 127.406C185.115 117.153 168.026 73.9049 151.725 77.0598" fill="#9D7B51"/>
<path d="M83.6325 102.168C99.2755 104.008 139.106 93.6234 129.247 43.6711C118.599 43.0138 108.083 44.7227 94.1488 52.8728C82.9753 68.3843 81.9236 87.0507 83.6325 102.168Z" fill="#9D7B51"/>
<path d="M178.148 53.2666C148.965 121.754 224.682 131.218 224.682 131.218C224.682 131.218 235.987 105.717 224.288 82.5807C217.189 68.3837 198.786 55.8957 178.148 53.2666Z" fill="#9D7B51"/>
<path d="M111.764 174.467L111.238 181.829" stroke="#9D7B51" stroke-width="5.08725" stroke-miterlimit="10" stroke-linecap="round" stroke-linejoin="round"/>
<path d="M104.139 177.753L103.482 185.115" stroke="#9D7B51" stroke-width="5.08725" stroke-miterlimit="10" stroke-linecap="round" stroke-linejoin="round"/>
<path opacity="0.23" d="M107.689 25.5303C107.557 25.5303 107.426 25.6617 107.294 25.6617C107.294 25.6617 107.163 25.7932 107.163 25.9246" fill="#3F2719"/>
<path d="M83.8955 193.528C87.0504 186.035 91.9141 169.866 91.3883 169.603C90.4681 169.603 89.6794 170.392 89.1536 171.312C87.5762 166.449 91.7827 163.425 92.0456 160.796C92.0456 160.27 90.5996 160.665 89.285 162.505C89.6794 158.693 91.2568 157.904 91.3883 156.458C91.5197 153.698 90.3367 150.543 89.6794 147.914C81.3978 117.942 66.4122 59.9712 114.13 30.92C112.158 26.7135 106.243 27.6337 106.243 27.6337C107.294 22.2441 117.153 18.169 128.721 21.8497C129.247 21.3239 125.698 16.1972 131.219 11.202C131.087 15.6714 134.242 20.5352 135.688 18.5634C140.552 7.25841 149.359 2.26318 160.533 2.26318C156.589 4.49789 153.829 10.5447 154.486 16.5916C154.486 16.7231 159.35 9.88748 163.556 8.96731C158.298 14.3569 161.19 19.3521 163.162 20.4038C164.739 21.1925 172.889 18.8263 173.415 15.4085C175.387 16.4602 174.073 20.7981 191.03 30.2628C262.935 70.7504 270.691 147.651 261.752 192.739" stroke="#2D1F04" stroke-width="3.44408" stroke-miterlimit="10" stroke-linecap="round" stroke-linejoin="round"/>
<path opacity="0.23" d="M127.801 283.31C127.538 283.179 127.407 283.047 127.144 282.916Z" fill="#3F2719"/>
<path opacity="0.23" d="M261.752 192.476C255.048 194.317 244.006 197.472 237.564 199.049C245.715 165.134 247.292 112.29 227.311 77.3232C213.246 52.7414 192.476 40.1219 173.678 34.6008C172.101 34.075 169.603 30.9201 167.105 30.7887C167.237 31.9718 166.185 32.7605 165.002 32.629C163.293 32.3661 159.876 30.7887 161.059 27.7653C157.509 27.5023 155.801 31.4459 153.96 31.3145C151.988 31.183 149.885 26.4507 145.416 25.9249C147.125 29.7371 143.312 31.8403 140.815 32.2347C137.66 32.7605 136.214 31.0516 137.266 29.3427C134.242 29.0798 132.665 31.7089 125.961 33.5492C115.576 36.1783 105.191 40.2533 95.9892 46.3002C100.59 40.5162 106.637 35.2581 113.998 30.7887C112.027 26.5822 106.111 27.5023 106.111 27.5023C107.163 22.1128 117.022 18.0377 128.59 21.7184C129.115 21.1926 125.566 16.0659 131.087 11.0707C130.956 15.5401 134.111 20.4039 135.557 18.4321C140.42 7.12707 149.228 2.13184 160.401 2.13184C156.458 4.36654 153.697 10.4134 154.355 16.4603C154.355 16.4603 159.218 9.75613 163.425 8.83596C158.561 14.7514 161.19 19.3522 163.293 20.2724C164.871 21.0611 172.889 18.695 173.415 15.1457C175.387 16.1974 174.073 20.4039 191.03 30C262.541 70.3562 270.559 147.388 261.752 192.476Z" fill="#3F2719"/>
<path d="M137.528 51.1633C106.111 41.3043 80.0833 59.182 80.0833 59.182" stroke="#2D1F04" stroke-width="7.8872" stroke-miterlimit="10" stroke-linecap="round" stroke-linejoin="round"/>
<path d="M168.026 57.6044C213.377 57.21 230.597 81.5289 230.597 81.5289" stroke="#2D1F04" stroke-width="7.8872" stroke-miterlimit="10" stroke-linecap="round" stroke-linejoin="round"/>
<path d="M120.045 78.5056C118.468 84.421 111.764 80.7404 104.665 80.346C96.515 79.9516 88.4964 82.7121 89.6795 73.5104C90.5996 66.6748 97.8296 64.5716 108.214 65.0974C118.599 65.7547 121.886 71.0128 120.045 78.5056Z" fill="white"/>
<path d="M120.308 77.0598C117.679 70.4871 111.632 69.0411 103.614 69.6984C95.2005 70.4871 91.1254 73.5105 89.6794 77.4541C89.4165 76.271 89.4165 74.8251 89.548 73.3791C90.4682 66.5435 97.6981 64.4402 108.083 64.966C117.942 65.6233 121.491 70.3556 120.308 77.0598Z" fill="#D3E5EA"/>
<path d="M94.5432 74.4306C94.8061 70.6184 98.0924 67.8579 101.905 68.1208C105.717 68.3837 108.477 71.6701 108.214 75.4822C107.951 79.2944 104.665 82.0549 100.853 81.792C97.0408 81.5291 94.2803 78.2427 94.5432 74.4306Z" fill="#2D1F04"/>
<path d="M120.045 78.5056C118.599 84.2896 111.764 81.0033 104.665 80.346C96.515 79.5573 88.4964 82.8436 89.6795 73.5104C90.5996 66.6748 97.8296 64.5716 108.214 65.0974C118.599 65.7547 121.886 71.0128 120.045 78.5056Z" stroke="#2D1F04" stroke-width="3.44408" stroke-miterlimit="10" stroke-linecap="round" stroke-linejoin="round"/>
<path d="M96.515 74.4307C98.0396 74.4307 99.2755 73.1948 99.2755 71.6702C99.2755 70.1456 98.0396 68.9097 96.515 68.9097C94.9904 68.9097 93.7545 70.1456 93.7545 71.6702C93.7545 73.1948 94.9904 74.4307 96.515 74.4307Z" fill="white"/>
<path d="M97.3037 77.9804C97.9571 77.9804 98.4868 77.4507 98.4868 76.7973C98.4868 76.1439 97.9571 75.6143 97.3037 75.6143C96.6503 75.6143 96.1207 76.1439 96.1207 76.7973C96.1207 77.4507 96.6503 77.9804 97.3037 77.9804Z" fill="white"/>
<path d="M179.856 88.3651C180.645 94.6748 188.532 91.7829 196.157 92.3087C204.964 92.9659 213.246 96.7781 213.114 87.182C213.114 80.0835 205.49 76.7972 194.316 76.1399C183.143 75.3512 178.805 80.4779 179.856 88.3651Z" fill="white"/>
<path d="M179.725 86.7879C183.406 80.3467 190.11 79.558 198.654 81.3983C207.593 83.2387 211.537 86.9194 212.588 91.2573C212.983 90.0742 213.246 88.6283 213.246 87.0508C213.246 79.9523 205.621 76.666 194.448 76.0087C183.8 75.3515 179.462 79.8209 179.725 86.7879Z" fill="#D3E5EA"/>
<path d="M198.786 86.9192C198.917 82.9756 195.894 79.6893 191.95 79.5578C188.007 79.4264 184.72 82.4498 184.589 86.3934C184.457 90.337 187.481 93.6234 191.424 93.7548C195.237 93.7548 198.523 90.7314 198.786 86.9192Z" fill="#2D1F04"/>
<path d="M179.856 88.3651C180.645 94.5434 188.401 92.0458 196.157 92.3087C205.095 92.5716 213.246 96.9095 213.114 87.182C213.114 80.0835 205.49 76.7972 194.316 76.1399C183.143 75.3512 178.805 80.4779 179.856 88.3651Z" stroke="#2D1F04" stroke-width="3.44408" stroke-miterlimit="10" stroke-linecap="round" stroke-linejoin="round"/>
<path d="M187.086 84.9474C188.466 84.9474 189.584 83.8292 189.584 82.4498C189.584 81.0704 188.466 79.9521 187.086 79.9521C185.707 79.9521 184.589 81.0704 184.589 82.4498C184.589 83.8292 185.707 84.9474 187.086 84.9474Z" fill="white"/>
<path d="M187.744 88.8911C188.397 88.8911 188.927 88.3614 188.927 87.708C188.927 87.0546 188.397 86.5249 187.744 86.5249C187.09 86.5249 186.561 87.0546 186.561 87.708C186.561 88.3614 187.09 88.8911 187.744 88.8911Z" fill="white"/>
<path d="M280.813 192.344C276.869 188.138 269.639 182.748 257.02 179.856C251.104 179.068 242.823 179.856 234.935 184.063C234.673 184.194 234.541 184.326 234.278 184.457C229.546 187.086 224.288 190.504 219.818 192.739C211.931 196.682 203.518 200.232 192.607 203.649C192.082 203.781 191.687 203.912 191.161 203.912C187.875 204.57 172.364 207.462 150.937 206.804C146.599 206.673 142.918 206.541 139.369 206.279C139.237 206.279 139.106 206.279 138.974 206.279C133.059 205.884 127.932 205.227 121.228 204.044C120.834 203.912 120.308 203.912 119.914 203.781C119.651 203.781 119.388 203.649 119.125 203.649C109.003 201.941 100.459 199.706 93.3601 197.471C92.8343 197.34 92.4399 197.208 91.9141 197.077C91.3883 196.945 90.8625 196.814 90.4681 196.551C89.4165 196.157 88.4963 195.894 87.4447 195.499C87.1818 196.288 87.0503 196.945 86.9189 197.603C87.0503 196.945 87.3132 196.288 87.4447 195.499C86.2616 195.105 85.0786 194.711 83.8955 194.185H83.764C83.8955 193.659 83.8955 193.396 83.764 193.396C82.8438 193.528 80.0833 197.077 79.426 198.26C78.1115 200.626 80.4777 202.992 80.2148 204.175C80.0833 205.358 70.4872 226.522 69.8299 242.297C69.8299 243.611 69.8299 244.794 69.8299 245.977C69.8299 246.898 69.9614 247.818 70.0929 248.607C70.0929 248.738 70.0928 249.001 70.2243 249.132C70.3557 249.658 70.4872 250.315 70.6187 250.841C70.4872 250.973 70.4872 251.236 70.3557 251.367C70.2243 251.499 70.2243 251.63 70.0929 251.893C69.9614 252.024 69.9614 252.156 69.8299 252.419C69.6985 252.55 69.6985 252.682 69.567 252.813C69.4356 253.076 69.1727 253.47 69.0412 253.733C68.6469 254.522 68.2525 255.179 67.8581 255.968C67.7267 256.231 67.5952 256.362 67.4638 256.625C67.2009 257.02 67.0694 257.414 66.8065 257.94C57.079 276.738 52.0837 292.775 49.7176 307.629C49.5861 308.549 49.4547 309.338 49.4547 310.258C48.2716 321.432 50.3748 328.004 52.6095 332.868C64.7032 332.868 230.466 332.868 275.686 332.868C280.681 316.042 280.681 299.479 289.752 290.146C292.512 287.385 299.479 289.883 312.23 286.859C317.357 285.676 304.08 236.118 292.512 211.405C288.7 202.992 284.23 195.894 280.813 192.344Z" fill="#FFDB1F"/>
<path d="M95.7263 241.508C104.665 242.428 112.947 243.086 121.097 244.006C127.801 244.795 130.43 249.396 129.247 253.602C127.669 259.386 122.28 262.804 114.656 263.987C114.261 263.987 113.867 264.118 113.078 264.118C118.599 268.456 115.97 275.555 121.623 282.653C115.444 281.865 110.055 281.076 104.402 280.419C101.773 276.081 100.853 271.743 100.722 267.668C100.722 265.433 100.064 263.724 96.1207 263.855C92.7029 268.456 89.548 273.32 89.2851 278.578C84.5527 278.052 80.3462 277.658 76.2712 277.264C80.4777 263.592 93.0972 255.968 95.7263 241.508ZM106.243 249.921C105.059 252.287 103.614 254.522 101.642 257.151C104.402 257.283 107.163 257.677 110.055 257.677C112.552 257.677 114.656 256.494 115.707 254.785C116.759 252.945 116.102 251.367 113.867 250.842C111.369 250.316 108.872 250.184 106.243 249.921Z" fill="#2D1F04"/>
<path d="M166.448 259.254C162.505 259.123 158.824 258.992 154.88 258.729C155.275 255.311 153.434 253.208 150.148 252.813C148.045 252.55 146.204 253.076 144.89 255.311C144.496 257.283 145.547 258.071 146.993 258.597C149.622 259.649 152.383 260.7 155.012 261.752C156.458 262.409 157.904 263.198 159.087 263.987C167.237 269.245 163.425 280.024 156.852 284.362C154.749 285.808 151.857 286.597 148.833 286.728C143.97 286.991 138.449 286.071 132.796 284.231C125.435 281.733 120.965 276.212 123.726 270.034C127.932 270.428 132.27 270.691 136.608 271.085C136.608 271.874 136.608 272.531 136.608 273.32C137.003 277.132 141.604 279.498 145.942 278.578C147.913 278.184 149.359 277.132 149.754 275.292C150.148 273.714 149.491 272.268 148.045 271.48C146.862 270.822 145.416 270.297 144.101 269.639C141.341 268.456 138.449 267.405 136.082 265.959C131.35 263.198 130.693 259.386 132.665 255.048C134.768 250.316 138.054 246.504 143.312 245.32C148.176 244.137 153.303 244.4 158.693 246.635C164.476 249.001 167.5 253.076 166.448 259.254Z" fill="#2D1F04"/>
<path opacity="0.23" d="M60.7597 272.006C65.2291 267.405 70.3558 264.776 72.9848 263.33C78.5059 260.438 85.0785 260.569 90.8625 261.884C106.505 265.433 134.505 276.607 150.411 280.024C179.594 286.203 206.016 277.395 203.387 272.663C201.152 268.719 156.195 276.344 140.026 269.377C125.698 263.067 102.693 260.438 87.7076 256.757C84.1584 255.837 72.459 251.893 69.83 246.109C69.6985 248.476 70.2243 249.264 70.8816 250.71C69.3041 253.602 66.1493 258.729 60.7597 272.006Z" fill="#3F2719"/>
<path d="M84.0269 194.448C84.1584 193.659 84.1584 193.396 83.8955 193.396C82.9753 193.527 80.2148 197.077 79.5575 198.26C78.243 200.626 80.6091 202.992 80.3462 204.175C80.0833 205.621 66.1493 236.513 71.013 251.367" stroke="#2D1F04" stroke-width="3.44408" stroke-miterlimit="10" stroke-linecap="round" stroke-linejoin="round"/>
<path d="M80.872 203.649C87.7076 208.908 101.247 212.588 115.707 215.349C135.425 219.161 163.688 221.921 195.105 216.663" stroke="#2D1F04" stroke-width="3.44408" stroke-miterlimit="10" stroke-linecap="round" stroke-linejoin="round"/>
<path d="M91.6513 197.603C90.7311 199.574 89.9424 201.152 89.8109 203.518" stroke="#2D1F04" stroke-width="3.44408" stroke-miterlimit="10" stroke-linecap="round" stroke-linejoin="round"/>
<path d="M104.402 201.152C103.351 202.992 102.956 205.49 102.693 207.593" stroke="#2D1F04" stroke-width="3.44408" stroke-miterlimit="10" stroke-linecap="round" stroke-linejoin="round"/>
<path d="M166.974 208.119V208.645V209.171L166.843 210.354V210.88" stroke="#2D1F04" stroke-width="3.44408" stroke-miterlimit="10" stroke-linecap="round" stroke-linejoin="round"/>
<path d="M171.312 208.382V209.302L171.181 210.091V210.748" stroke="#2D1F04" stroke-width="3.44408" stroke-miterlimit="10" stroke-linecap="round" stroke-linejoin="round"/>
<path d="M43.8022 234.41C41.0417 232.701 39.0698 231.123 38.0182 229.94C37.7553 229.546 37.4924 229.283 37.2295 229.02C36.3093 227.968 35.3891 222.71 39.4642 220.081C39.99 218.767 40.6473 217.452 41.3045 216.006C52.4781 191.95 68.1211 183.669 84.4213 186.561" stroke="#2D1F04" stroke-width="3.44408" stroke-miterlimit="10" stroke-linecap="round" stroke-linejoin="round"/>
<path d="M39.4642 220.081C44.9853 223.762 54.9757 229.809 65.6235 234.278" stroke="#2D1F04" stroke-width="3.44408" stroke-miterlimit="10" stroke-linecap="round" stroke-linejoin="round"/>
<path d="M47.4829 225.077C46.1684 225.734 44.9853 228.232 44.8538 229.546" stroke="#2D1F04" stroke-width="3.44408" stroke-miterlimit="10" stroke-linecap="round" stroke-linejoin="round"/>
<path d="M54.9758 229.151C54.0556 229.809 53.3983 231.78 53.2668 232.569" stroke="#2D1F04" stroke-width="3.44408" stroke-miterlimit="10" stroke-linecap="round" stroke-linejoin="round"/>
<path d="M52.741 333C50.3749 327.873 48.0087 320.249 49.9805 307.761C52.6096 290.935 58.6564 272.663 71.013 250.71" stroke="#2D1F04" stroke-width="3.65519" stroke-miterlimit="10" stroke-linecap="round" stroke-linejoin="round"/>
<path d="M84.0269 194.316C95.8577 198.785 115.707 204.438 141.604 206.541C162.899 208.25 183.011 206.673 191.293 204.044C202.861 200.494 211.537 196.814 219.687 192.739C224.419 190.372 229.809 186.692 234.804 184.063C242.56 179.856 260.963 171.049 280.681 192.344C289.226 201.414 294.878 216.137 300.005 230.203" stroke="#2D1F04" stroke-width="3.44408" stroke-miterlimit="10" stroke-linecap="round" stroke-linejoin="round"/>
<path opacity="0.23" d="M312.362 286.991C299.611 290.014 292.512 287.385 289.752 290.277C280.681 299.611 280.681 316.174 275.686 333H249.395C259.517 302.371 269.639 257.283 267.93 238.616C273.714 250.71 287.254 254.128 296.981 254.128C298.033 257.808 299.216 261.358 300.399 264.775C306.578 281.601 317.488 285.808 312.362 286.991Z" fill="#3F2719"/>
<path d="M263.855 310.652C247.818 295.141 244.663 275.292 241.245 260.963C232.569 225.339 217.715 197.997 202.072 176.176C197.997 170.392 198.523 165.659 199.969 161.716C202.861 154.354 208.382 149.885 215.086 140.026C224.156 126.881 225.602 115.181 229.414 115.576C236.119 116.496 242.56 129.773 228.231 164.608C244.663 182.88 261.489 194.448 276.08 207.199C302.634 230.466 318.671 247.686 325.77 267.273C343.253 315.385 308.286 353.506 263.855 310.652Z" fill="#CAA77A"/>
<path d="M228.494 163.951C221.922 170.786 214.034 172.495 199.574 170.26C198.523 166.842 199.049 163.688 200.1 161.059C202.992 153.697 208.513 149.228 215.217 139.369C224.288 126.223 225.734 114.524 229.546 114.918C236.381 115.707 242.823 129.115 228.494 163.951Z" fill="#D2D2D2"/>
<path opacity="0.23" d="M330.371 295.141C328.53 327.741 299.216 344.699 263.855 310.652C247.818 295.141 244.663 275.292 241.245 260.963C232.701 225.339 217.715 197.997 202.072 176.176C197.997 170.392 198.523 165.659 199.969 161.716C202.861 154.354 208.382 149.885 215.086 140.026C224.156 126.881 225.602 115.181 229.414 115.576C232.306 115.97 235.067 118.599 236.25 124.252C232.832 126.618 228.626 133.19 223.63 143.049C216.663 156.458 202.598 167.368 209.302 175.387C216.006 183.406 233.227 212.851 244.663 237.564C256.099 262.409 259.78 300.399 292.512 316.305C309.207 324.324 325.901 313.019 330.371 295.141Z" fill="#3F2719"/>
<path d="M134.636 74.5624C135.162 71.1447 140.815 69.0414 147.125 69.8301C153.434 70.6188 158.167 74.0366 157.641 77.4544C157.115 80.8722 151.463 82.9755 145.153 82.1867C138.843 81.398 134.111 77.9802 134.636 74.5624Z" fill="#251707"/>
<path d="M142.655 81.2661C140.683 86.7872 139.763 91.2566 139.237 95.3316C138.317 102.562 149.491 105.716 157.509 98.4865" stroke="#251707" stroke-width="3.65519" stroke-miterlimit="10" stroke-linecap="round" stroke-linejoin="round"/>
<path d="M139.369 95.4639C137.66 100.328 129.378 101.905 125.566 96.6469" stroke="#251707" stroke-width="3.65519" stroke-miterlimit="10" stroke-linecap="round" stroke-linejoin="round"/>
<path d="M263.855 310.652C247.818 295.141 244.663 275.292 241.245 260.963C232.569 225.339 217.715 197.997 202.072 176.176C197.997 170.392 198.523 165.659 199.969 161.716C202.861 154.354 208.382 149.885 215.086 140.026C224.156 126.881 225.602 115.181 229.414 115.576C236.119 116.496 242.56 129.773 228.231 164.608C244.663 182.88 261.489 194.448 276.08 207.199C302.634 230.466 318.671 247.686 325.77 267.273C343.253 315.385 308.286 353.506 263.855 310.652Z" stroke="#2D1F04" stroke-width="3.44408" stroke-miterlimit="10" stroke-linecap="round" stroke-linejoin="round"/>
<path d="M199.443 170.918C213.903 173.284 221.79 171.575 228.363 164.608" stroke="#2D1F04" stroke-width="3.44408" stroke-miterlimit="10" stroke-linecap="round" stroke-linejoin="round"/>
<path d="M229.677 115.576C233.095 139.5 216.269 152.777 214.034 171.706" stroke="#2D1F04" stroke-width="3.44408" stroke-miterlimit="10" stroke-linecap="round" stroke-linejoin="round"/>
<path d="M37.2295 229.021C23.6898 249.396 3.70889 298.559 2 330.765" stroke="#2D1F04" stroke-width="3.44408" stroke-miterlimit="10" stroke-linecap="round" stroke-linejoin="round"/>
<path d="M306.446 264.118L305.657 273.977" stroke="#9D7B51" stroke-width="5.39906" stroke-miterlimit="10" stroke-linecap="round" stroke-linejoin="round"/>
<path d="M297.77 266.616L296.981 276.475" stroke="#9D7B51" stroke-width="5.39906" stroke-miterlimit="10" stroke-linecap="round" stroke-linejoin="round"/>
<path opacity="0.23" d="M187.218 205.096C192.87 204.175 208.645 203.912 212.851 206.542C217.978 209.565 226.522 219.687 233.621 235.724C227.574 219.555 216.663 196.025 213.903 195.631C211.274 195.105 204.044 201.546 187.218 205.096Z" fill="#3F2719"/>
</svg>
