<svg width="342" height="325" viewBox="0 0 342 325" fill="none" xmlns="http://www.w3.org/2000/svg">
<path d="M307.172 233.9C298.172 238.8 272.472 256.3 250.672 267.3C241.172 272.1 231.372 273.7 221.072 270.6C220.772 269.3 220.472 268.1 220.072 267C218.272 261 215.272 252.9 212.672 247.3C220.672 234.6 212.372 216.7 207.672 204.9C213.472 202.3 218.972 199.6 221.572 197.6C225.272 206.6 229.572 218.4 231.372 223.6C256.172 215.7 278.772 214.8 299.072 212C309.672 210.5 335.472 204.7 336.972 209.4C339.272 216.1 315.172 229.6 307.172 233.9Z" fill="#CAA77A"/>
<path d="M169.272 156.1C176.972 178.8 187.572 198.5 190.372 211.9C198.772 208.4 218.072 200.5 222.072 196.6C222.372 196.3 222.672 196.1 222.872 195.8C223.772 194.9 225.072 190 221.472 187.5C221.072 186.3 220.572 185 220.072 183.6C210.772 158.6 195.072 150.7 178.372 154.7L169.272 156.1Z" fill="#FFDB1F"/>
<path d="M18.9723 167.2C24.4723 163.1 29.1723 160.5 34.9723 158.8C40.2723 157.3 76.6723 173.7 94.7723 179.6C100.972 181.6 149.872 197.1 202.372 187C202.372 187 202.372 187 202.372 186.9C197.172 175.2 196.572 163.5 197.072 163.2C197.972 162.8 198.772 165 199.072 165.2C199.772 165.8 198.572 163.3 198.372 162.3C197.972 159.7 197.472 156.8 197.672 154.2C197.672 153.6 199.072 155.4 199.272 154.9C199.772 153.6 198.872 151.3 198.972 149.9C199.172 147.1 200.872 144.1 201.972 141.6C208.372 126.7 213.772 109.9 214.572 93.4C215.072 82.6 213.872 62 199.272 45.5C197.172 43.1 206.072 43 205.872 37.2C199.372 40.7 190.472 36 186.972 34C195.272 34.3 207.472 32.5 206.672 21.1C201.772 26.5 195.172 28.9 186.572 26.9C190.072 25.2 200.672 18.5 195.972 9C193.672 17 187.172 18.9 178.572 15.8C182.772 13.7 185.672 7.4 179.172 2C179.872 8.6 167.172 11.4 160.672 11.3C113.672 10.4 75.1723 22.2 47.5723 66.3C32.7723 89.8 21.7723 118.2 18.9723 167.2Z" fill="#CAA77A"/>
<path d="M220.972 323.2H6.17229H6.07229C4.77229 312.1 5.47229 268.9 10.1723 244.9C10.1723 244.8 10.1723 244.7 10.2723 244.6C10.4723 243.5 10.6723 242.5 10.9723 241.5C11.0723 241 11.1723 240.4 11.3723 239.9C11.3723 239.8 11.4723 239.7 11.4723 239.6C4.87229 226.9 0.572286 212.1 2.77229 195.6C3.17229 192.9 3.57229 190.3 4.17229 187.9C4.17229 187.8 4.17229 187.7 4.27229 187.6C5.67229 182 7.87229 177 11.6723 172.6C11.7723 172.4 11.9723 172.2 12.1723 172.1C14.5723 169.5 16.8723 167.4 19.2723 165.7C19.2723 166.2 19.1723 166.7 19.1723 167.3C19.4723 167.1 19.8723 166.8 20.1723 166.6C23.5723 164.2 27.1723 162.1 30.4723 160.6C30.4723 160.6 30.4723 160.6 30.5723 160.6C30.9723 160.5 31.3723 160.4 31.7723 160.4H31.8723C34.5723 159.9 37.2723 159.8 39.9723 160C40.7723 160.1 41.6723 160.2 42.4723 160.3C43.5723 160.6 44.7723 161 46.0723 161.4C53.1723 163.8 62.7723 167.6 72.0723 171.3H72.1723C80.5723 174.6 88.7723 177.8 94.9723 179.8C96.0723 180.2 98.3723 180.9 101.772 181.9C101.872 181.9 101.972 182 102.072 182C113.872 185.6 136.172 190.3 162.072 190.6C163.772 190.6 165.472 190.6 167.272 190.6C178.572 190.5 190.472 189.5 202.572 187.2C202.372 184 205.872 190.3 206.572 192C207.472 194.6 204.772 196.6 204.772 197.8V197.9C204.872 199.5 206.572 203.1 207.272 204.8C212.072 216.6 220.472 234.6 212.372 247.4C214.972 253 217.972 261.2 219.772 267.1C223.772 281.1 226.572 308.2 220.972 323.2Z" fill="#FFDB1F"/>
<path d="M94.3723 152.1L93.2723 159.5" stroke="#9D7B51" stroke-width="4.1072" stroke-miterlimit="10" stroke-linecap="round" stroke-linejoin="round"/>
<path d="M102.672 156.1L101.472 163.5" stroke="#9D7B51" stroke-width="4.1072" stroke-miterlimit="10" stroke-linecap="round" stroke-linejoin="round"/>
<path opacity="0.23" d="M220.272 269.3C216.272 263.5 212.472 258.8 210.072 257C204.972 253.1 198.172 252.5 192.172 252C176.672 250.6 162.772 264.1 146.172 262.6C141.872 262.2 129.872 258.8 134.172 251.7C136.572 247.8 146.172 249.7 149.972 250C165.772 251.4 180.272 250.8 195.872 249.7C199.572 249.4 208.572 250.1 212.172 244.8C212.572 247.3 214.772 253.6 215.772 256.2C218.272 262.3 218.972 264.8 220.272 269.3Z" fill="#3F2719"/>
<path d="M202.372 187C149.872 197.1 98.6723 182 93.1723 178.6" stroke="#2D1F04" stroke-width="2.7806" stroke-miterlimit="10" stroke-linecap="round" stroke-linejoin="round"/>
<path d="M6.0723 323.4C4.5723 311.9 5.5723 262 11.2723 239.6" stroke="#2D1F04" stroke-width="2.7806" stroke-miterlimit="10" stroke-linecap="round" stroke-linejoin="round"/>
<path d="M202.372 187C202.072 183.6 205.672 190 206.372 191.7C207.272 194.3 204.572 196.3 204.572 197.5C204.572 199 206.372 202.7 207.072 204.4C211.872 216.2 220.272 234.2 212.172 247C214.772 252.6 217.772 260.8 219.572 266.7C223.772 281 226.572 308.1 220.972 323.1" stroke="#2D1F04" stroke-width="2.7806" stroke-miterlimit="10" stroke-linecap="round" stroke-linejoin="round"/>
<path d="M15.5723 197.8C20.1723 196 24.4723 194.3 28.9723 193.7C32.6723 193.2 34.1723 195.4 34.8723 198.1C35.8723 201.8 35.1723 204.9 32.5723 207.3C32.4723 207.4 32.2723 207.5 31.9723 207.8C36.1723 209 38.2723 213.5 41.9723 216.4C39.4723 217.3 37.3723 218.1 35.0723 219C32.8723 217 30.7723 214.8 28.7723 212.5C27.6723 211.3 26.5723 210.4 24.9723 211.5C25.9723 214.8 27.2723 218.2 28.7723 221.5C26.6723 222.3 24.8723 223 22.8723 223.8C19.0723 215.5 16.6723 207.2 15.5723 197.8ZM22.5723 201C22.8723 202.8 23.1723 204.4 23.6723 206.4C24.9723 205.9 26.2723 205.4 27.5723 204.8C28.6723 204.2 29.0723 203.1 28.8723 201.8C28.6723 200.4 27.7723 199.6 26.5723 199.8C25.2723 200 23.9723 200.6 22.5723 201ZM49.2723 188C46.4723 187.8 43.7723 188.5 41.0723 190.2C38.2723 191.9 36.6723 195 37.1723 198.3C37.5723 201.2 39.4723 203.2 42.4723 203.6C44.0723 203.8 45.5723 203.8 47.1723 203.8C47.9723 203.8 48.6723 203.8 49.4723 203.9C50.3723 204 51.0723 204.6 51.3723 205.6C51.6723 206.7 51.3723 207.6 50.6723 208.3C49.0723 209.8 46.6723 209.5 45.2723 207.4C44.9723 207 44.7723 206.6 44.4723 206.2C42.5723 207 40.7723 207.7 38.9723 208.5C40.3723 212.5 43.4723 214.8 46.7723 214.6C49.2723 214.5 51.5723 213.7 53.5723 212.5C54.7723 211.7 55.9723 210.6 56.6723 209.3C58.7723 205.3 57.3723 198.5 52.0723 197.4C51.1723 197.2 50.3723 197.1 49.4723 197.1C47.8723 197 46.3723 197.1 44.7723 197.1C43.9723 197.1 43.1723 196.9 42.8723 195.7C42.9723 194.1 43.8723 193.5 45.0723 193.2C46.7723 192.7 47.9723 193.6 48.5723 195.5C50.4723 194.8 52.3723 194.1 54.3723 193.3C53.5723 189.9 52.1723 188.3 49.2723 188Z" fill="#292929"/>
<path opacity="0.23" d="M46.5723 252.6C44.4723 254.1 42.9723 255.5 41.7723 256.8C41.7723 256.8 41.6723 256.8 41.6723 256.9C39.5723 259 38.3723 260.8 37.3723 261.9C36.8723 262.5 36.2723 263 35.6723 263.4C35.5723 263.5 35.4723 263.5 35.3723 263.6C32.3723 265.2 29.1723 264 26.3723 261.6C24.7723 275.2 25.2723 304 27.3723 323.2H6.17228C4.87228 312.6 5.57228 268.9 10.1723 244.9C10.1723 244.8 10.1723 244.7 10.2723 244.6C10.4723 243.5 10.6723 242.5 10.9723 241.5C11.0723 241 11.1723 240.4 11.3723 239.9C4.77228 227.2 0.372285 212.3 2.57229 195.7C2.97229 192.9 3.47228 190.3 4.17228 187.7C4.17228 187.6 4.17228 187.5 4.27228 187.4C5.77228 181.9 8.17228 176.9 11.6723 172.4C11.7723 172.2 11.9723 172 12.1723 171.8C18.2723 164.3 24.8723 161 31.7723 160H31.8723C34.4723 159.6 37.1723 159.5 39.9723 159.6C42.7723 159.7 45.5723 160 48.4723 160.5C47.6723 160.7 46.8723 160.8 46.0723 161.1C24.8723 166.7 14.8723 188.7 19.4723 213.7C20.3723 218.5 21.5723 222.9 22.9723 226.8C24.8723 232 27.2723 236.5 29.7723 240.2C35.1723 248.6 41.6723 252.9 46.5723 252.6Z" fill="#3F2719"/>
<path d="M194.172 188.9C194.672 191.1 195.272 192.8 195.072 195.1" stroke="#2D1F04" stroke-width="2.7806" stroke-miterlimit="10" stroke-linecap="round" stroke-linejoin="round"/>
<path d="M180.872 190.3C181.672 192.3 181.672 194.9 181.472 197.1" stroke="#2D1F04" stroke-width="2.7806" stroke-miterlimit="10" stroke-linecap="round" stroke-linejoin="round"/>
<path d="M165.072 190.9L165.472 196.2" stroke="#2D1F04" stroke-width="2.7806" stroke-miterlimit="10" stroke-linecap="round" stroke-linejoin="round"/>
<path d="M153.872 191.4V192.3L153.772 192.8L153.672 193.7V194.3L153.572 194.9V195.5" stroke="#2D1F04" stroke-width="2.7806" stroke-miterlimit="10" stroke-linecap="round" stroke-linejoin="round"/>
<path d="M159.972 192.2L159.872 192.8V193.4L159.772 194V194.6L159.672 195.1" stroke="#2D1F04" stroke-width="2.7806" stroke-miterlimit="10" stroke-linecap="round" stroke-linejoin="round"/>
<path d="M116.872 186.6V187.2L116.772 187.8L116.672 188.9V189.5" stroke="#2D1F04" stroke-width="2.7806" stroke-miterlimit="10" stroke-linecap="round" stroke-linejoin="round"/>
<path d="M112.572 186.2L112.472 187.1L112.372 188V188.5" stroke="#2D1F04" stroke-width="2.7806" stroke-miterlimit="10" stroke-linecap="round" stroke-linejoin="round"/>
<path d="M204.672 197.6C194.572 203.7 154.272 208.6 103.772 196" stroke="#2D1F04" stroke-width="2.7806" stroke-miterlimit="10" stroke-linecap="round" stroke-linejoin="round"/>
<path d="M209.272 71.6002C206.472 61.0002 200.672 49.3002 193.572 48.0002C189.072 47.2002 185.272 49.6002 181.472 52.0002C178.072 54.1002 174.972 53.5002 174.172 51.1002C173.372 48.9002 174.572 47.4002 176.872 45.7002C172.472 47.1002 171.172 49.0002 167.672 50.8002C161.772 53.8002 158.472 54.5002 156.872 54.2002C152.272 53.4002 147.372 49.3002 143.172 47.9002C124.472 41.9002 110.672 45.7002 102.872 70.3002C101.172 75.8002 98.7723 88.4002 102.172 101.9C107.072 121.6 114.372 132 126.472 143.6C145.272 161.6 186.372 165.6 203.072 130.5C210.972 114.1 214.472 91.3002 209.272 71.6002Z" fill="#FFDBAF"/>
<path d="M187.572 83.6006C193.572 83.9006 200.772 93.0006 196.572 107.901C193.472 118.701 187.872 125.201 181.772 130.001C171.872 137.801 161.072 136.901 153.872 127.901C146.272 118.401 145.972 106.401 149.272 97.4006C152.772 87.7006 162.872 81.5006 171.872 82.6006L187.572 83.6006Z" fill="#9D7B51"/>
<path d="M209.272 71.6005C210.572 77.3005 212.672 86.2005 211.372 99.4005C186.072 92.9005 179.672 54.9005 181.472 51.9005C186.172 48.9005 189.372 47.0005 193.972 48.1005C197.372 48.8005 205.072 53.5005 209.272 71.6005Z" fill="#9D7B51"/>
<path d="M156.672 54.2006C156.872 95.4006 127.172 104.601 102.472 103.101C99.2723 91.1006 100.172 79.3006 102.672 71.2006C105.172 63.3006 110.272 49.8006 122.072 46.4006C133.372 43.2006 150.172 49.5006 156.672 54.2006Z" fill="#9D7B51"/>
<path d="M193.072 85.4004C193.372 82.0004 188.772 78.7004 182.672 77.9004C176.572 77.1004 171.372 79.2004 171.072 82.6004C170.772 86.0004 175.372 89.4004 181.472 90.1004C187.572 90.9004 192.772 88.8004 193.072 85.4004Z" fill="#251707"/>
<path d="M178.972 53.1005C186.472 47.6005 196.172 41.2005 217.172 64.8005" stroke="#2D1F04" stroke-width="7.6" stroke-miterlimit="10" stroke-linecap="round" stroke-linejoin="round"/>
<path d="M196.172 60.7003C190.472 62.6003 187.772 69.6003 189.972 76.4003L190.272 77.2003C192.472 84.0003 198.972 88.0003 204.572 86.1003C210.272 84.2003 212.972 77.2003 210.772 70.4003L210.472 69.6003C208.272 62.8003 201.772 58.8003 196.172 60.7003Z" fill="white"/>
<path d="M196.172 60.7003C190.472 62.6003 187.772 69.6003 189.972 76.4003L190.272 77.2003C192.472 84.0003 198.972 88.0003 204.572 86.1003C210.272 84.2003 212.972 77.2003 210.772 70.4003L210.472 69.6003C208.272 62.8003 201.772 58.8003 196.172 60.7003Z" stroke="#2D1F04" stroke-width="2.6" stroke-miterlimit="10" stroke-linecap="round" stroke-linejoin="round"/>
<path d="M203.872 77.9002C205.308 77.9002 206.472 76.7361 206.472 75.3002C206.472 73.8643 205.308 72.7002 203.872 72.7002C202.436 72.7002 201.272 73.8643 201.272 75.3002C201.272 76.7361 202.436 77.9002 203.872 77.9002Z" fill="#2D1F04"/>
<path d="M134.672 61.1003C126.972 60.0003 119.872 65.4003 118.872 73.0003L118.772 73.9003C117.672 81.5003 123.072 88.6003 130.772 89.6003C138.472 90.7003 145.572 85.3003 146.572 77.7003L146.672 76.8003C147.772 69.2003 142.372 62.2003 134.672 61.1003Z" fill="white"/>
<path d="M134.672 61.1003C126.972 60.0003 119.872 65.4003 118.872 73.0003L118.772 73.9003C117.672 81.5003 123.072 88.6003 130.772 89.6003C138.472 90.7003 145.572 85.3003 146.572 77.7003L146.672 76.8003C147.772 69.2003 142.372 62.2003 134.672 61.1003Z" stroke="#2D1F04" stroke-width="2.6" stroke-miterlimit="10" stroke-linecap="round" stroke-linejoin="round"/>
<path d="M138.472 79.9008C140.019 79.9008 141.272 78.6472 141.272 77.1008C141.272 75.5544 140.019 74.3008 138.472 74.3008C136.926 74.3008 135.672 75.5544 135.672 77.1008C135.672 78.6472 136.926 79.9008 138.472 79.9008Z" fill="#2D1F04"/>
<path opacity="0.23" d="M18.9723 167.2C24.3723 163.3 30.3723 159.9 34.9723 158.8C40.3723 157.5 53.8723 162.3 57.3723 164.1C58.8723 79.6996 104.572 42.4996 134.772 35.5996C138.372 34.7996 147.472 33.1996 148.372 28.7996C151.772 30.1996 153.172 33.1996 157.072 33.3996C159.472 33.4996 162.872 32.0996 166.372 24.9996C167.972 29.7996 165.672 33.6996 168.072 34.0996C171.772 34.5996 179.972 28.3996 183.572 29.3996C178.172 34.2996 185.072 39.6996 188.372 40.8996C191.872 42.2996 195.572 42.4996 196.672 40.8996C197.572 42.3996 197.972 43.3996 199.072 44.6996C199.572 43.0996 206.172 42.2996 205.972 37.2996C199.472 40.7996 190.572 36.0996 187.072 34.0996C195.372 34.3996 207.572 32.5996 206.772 21.1996C201.872 26.5996 195.272 28.9996 186.672 26.9996C190.172 25.2996 200.772 18.5996 196.072 9.09961C193.772 17.0996 187.272 18.9996 178.672 15.8996C182.872 13.7996 185.772 7.49961 179.272 2.09961C179.972 8.69961 167.272 11.4996 160.772 11.3996C113.772 10.4996 75.2723 22.2996 47.6723 66.3996C32.7723 89.7996 21.7723 117.2 18.9723 167.2Z" fill="#3F2719"/>
<path d="M159.372 54.0004C139.472 45.0004 120.772 40.6004 91.9723 72.5004" stroke="#2D1F04" stroke-width="7.6" stroke-miterlimit="10" stroke-linecap="round" stroke-linejoin="round"/>
<path d="M232.072 293.3L222.772 292.6C222.472 289.2 223.772 287.7 225.072 286.3L232.072 293.3Z" fill="#292929"/>
<path d="M222.772 292.6L207.672 291.5C207.672 291.5 205.172 285 204.972 284.7C204.672 284.4 210.072 284.1 210.072 284.1L207.272 276.8L214.872 276L225.172 286.3C223.772 287.7 222.472 289.3 222.772 292.6Z" fill="#FFDBAF"/>
<path d="M204.872 284.701C205.172 285.001 207.572 291.501 207.572 291.501L130.272 256.001C125.272 253.701 132.472 238.201 137.372 240.501L214.672 276.001L207.072 276.801L209.872 284.101C209.972 284.101 204.672 284.401 204.872 284.701Z" fill="#3399CC"/>
<path d="M130.372 256L115.372 249.1C110.372 246.8 117.572 231.3 122.472 233.6L137.472 240.5C132.472 238.2 125.372 253.8 130.372 256Z" fill="#FF8A8A"/>
<path opacity="0.23" d="M232.072 293.401L222.772 292.701L207.672 291.601L130.372 256.101L115.372 249.201C112.472 247.801 113.772 241.801 116.372 237.601C115.072 241.101 115.272 243.301 117.472 244.301L132.472 251.201L202.472 283.301C207.372 285.501 212.472 287.101 217.772 287.901L228.172 289.501L232.072 293.401Z" fill="#3F2719"/>
<path d="M225.072 286.2L232.072 293.3L222.772 292.6" stroke="#2D1F04" stroke-width="2" stroke-miterlimit="10" stroke-linecap="round" stroke-linejoin="round"/>
<path d="M214.772 275.9L225.072 286.2" stroke="#2D1F04" stroke-width="2" stroke-miterlimit="10" stroke-linecap="round" stroke-linejoin="round"/>
<path d="M222.772 292.6L207.672 291.4" stroke="#2D1F04" stroke-width="2" stroke-miterlimit="10" stroke-linecap="round" stroke-linejoin="round"/>
<path d="M207.672 291.4L130.372 255.9C125.372 253.6 132.572 238.1 137.472 240.4L214.772 275.9" stroke="#2D1F04" stroke-width="2" stroke-miterlimit="10" stroke-linecap="round" stroke-linejoin="round"/>
<path d="M130.372 256L115.372 249.1C110.372 246.8 117.572 231.3 122.472 233.6L137.472 240.5C132.572 238.2 125.472 253.7 130.372 256Z" stroke="#2D1F04" stroke-width="2" stroke-miterlimit="10" stroke-linecap="round" stroke-linejoin="round"/>
<path d="M190.872 271.4C174.772 281 155.972 288.1 137.072 294.2C116.672 300.9 99.4723 303 86.9723 300.3C67.4723 296.1 54.7723 279.3 37.6723 261.4C40.4723 258.3 43.9723 250.3 64.6723 243.7C71.3723 241.6 78.2723 241.8 87.8723 238.2C101.772 261.9 113.872 265.9 145.772 264C154.572 263.5 163.772 261.3 183.872 260C194.472 259.3 200.872 265.5 190.872 271.4Z" fill="#CAA77A"/>
<path d="M202.372 187C197.172 175.3 196.472 163.5 197.072 163.3C197.972 162.9 198.772 165.1 198.972 165.3C199.672 165.9 198.472 163.4 198.272 162.4C197.872 159.9 197.372 156.9 197.572 154.3C197.572 153.7 198.972 155.5 199.172 155C199.672 153.7 198.772 151.4 198.872 150C199.072 147.2 200.672 144.2 201.872 141.7C208.272 126.8 213.672 110 214.472 93.4996C214.972 82.6996 213.772 62.0996 199.172 45.5996C197.072 43.1996 205.972 43.0996 205.772 37.2996C199.272 40.7996 190.472 36.0996 186.872 34.0996C195.172 34.3996 207.372 32.5996 206.572 21.1996C201.672 26.5996 195.072 28.9996 186.472 26.9996C189.972 25.2996 200.572 18.5996 195.872 9.09961C193.572 17.0996 187.072 18.9996 178.472 15.8996C182.672 13.7996 185.572 7.49961 179.072 2.09961C179.772 8.69961 167.072 11.4996 160.572 11.3996C113.572 10.4996 75.0723 22.2996 47.4723 66.3996C32.7723 89.9996 22.0723 117.1 18.9723 165.4" stroke="#2D1F04" stroke-width="2.7806" stroke-miterlimit="10" stroke-linecap="round" stroke-linejoin="round"/>
<path d="M84.2723 208.9C84.4723 209.9 84.6723 210.8 84.8723 211.7C86.0723 215.9 88.4723 221.2 89.0723 225.4C93.4723 231.2 96.1723 234.2 87.9723 238.2" stroke="#2D1F04" stroke-width="2.7806" stroke-miterlimit="10" stroke-linecap="round" stroke-linejoin="round"/>
<path d="M190.472 271.4C180.072 277.6 168.472 282.7 156.572 287.3C149.872 276.8 150.372 269.2 151.272 263.6C160.972 262.5 166.572 260.1 182.872 259.1C193.372 258.3 200.372 265.5 190.472 271.4Z" fill="#D2D2D2"/>
<path opacity="0.23" d="M190.872 271.4C174.872 281.2 155.972 288.1 137.072 294.3C116.672 301 99.4723 303.1 86.9723 300.4C67.4723 296.2 54.7723 279.4 37.6723 261.5C39.4723 259.5 41.5723 255.4 48.3723 251C46.4723 255.1 51.7723 263.5 62.3723 273.2C74.1723 283.8 83.2723 294.3 94.5723 294.9C105.872 295.5 142.772 285.5 161.672 279.1C178.772 273.3 188.872 265.8 187.172 259.3C196.272 259.3 197.772 267.1 190.872 271.4Z" fill="#3F2719"/>
<path d="M37.7723 261.4C32.7723 267 26.7723 262.7 22.5723 257.2C10.8723 241.6 -0.727744 220.5 2.57226 195.5C3.77226 186.3 5.97226 178.4 11.8723 172C31.6723 150.5 51.3723 161.6 72.9723 171.6" stroke="#2D1F04" stroke-width="2.7806" stroke-miterlimit="10" stroke-linecap="round" stroke-linejoin="round"/>
<path d="M87.9723 225.8C71.4723 223.2 48.4723 227.4 33.6723 241.5" stroke="#2D1F04" stroke-width="2.7806" stroke-miterlimit="10" stroke-linecap="round" stroke-linejoin="round"/>
<path d="M76.4723 226.1C77.0723 228.1 77.1723 229.8 77.2723 231.9" stroke="#2D1F04" stroke-width="2.7806" stroke-miterlimit="10" stroke-linecap="round" stroke-linejoin="round"/>
<path d="M64.2723 227.9L65.2723 232.9" stroke="#2D1F04" stroke-width="2.7806" stroke-miterlimit="10" stroke-linecap="round" stroke-linejoin="round"/>
<path d="M53.2723 230.8L55.2723 235.4" stroke="#2D1F04" stroke-width="2.7806" stroke-miterlimit="10" stroke-linecap="round" stroke-linejoin="round"/>
<path d="M220.972 197.7C224.772 206.8 228.972 218 230.872 223.4C255.672 215.5 278.272 214.6 298.572 211.8C309.172 210.3 335.572 204.7 337.072 209.4C339.172 216.1 314.572 229.4 306.572 233.7C297.572 238.6 271.872 256.1 250.072 267.1C240.372 272 231.372 273.8 220.972 270.6" stroke="#2D1F04" stroke-width="2.7806" stroke-miterlimit="10" stroke-linecap="round" stroke-linejoin="round"/>
<path d="M208.372 204.2C214.572 201.4 220.172 198.5 222.072 196.6C222.372 196.3 222.672 196.1 222.872 195.8C223.772 194.9 225.072 190 221.472 187.5C221.072 186.3 220.572 185 220.072 183.6C214.572 168.7 206.772 159.9 197.772 156" stroke="#2D1F04" stroke-width="2.7806" stroke-miterlimit="10" stroke-linecap="round" stroke-linejoin="round"/>
<path d="M190.472 271.7C174.372 281.3 155.972 288 137.172 294.2C116.772 300.9 99.5723 303 87.0723 300.3C67.5723 296.1 54.8723 279.3 37.7723 261.4C40.5723 258.3 44.0723 250.3 64.7723 243.7C71.4723 241.6 78.3723 241.8 87.9723 238.2C101.872 261.9 113.972 265.9 145.872 264C154.672 263.5 162.772 260.2 182.972 259C193.372 258.3 200.372 265.9 190.472 271.7Z" stroke="#2D1F04" stroke-width="2.7806" stroke-miterlimit="10" stroke-linecap="round" stroke-linejoin="round"/>
<path d="M151.672 263.7C150.772 269.4 150.272 276.7 156.972 287.2" stroke="#2D1F04" stroke-width="2.7806" stroke-miterlimit="10" stroke-linecap="round" stroke-linejoin="round"/>
<path d="M192.772 263.7C181.472 268.6 164.172 274 151.872 275.5" stroke="#2D1F04" stroke-width="2.7806" stroke-miterlimit="10" stroke-linecap="round" stroke-linejoin="round"/>
<path d="M187.572 111.5C181.172 114 172.872 109.7 170.572 105.2" stroke="#251707" stroke-width="2.7806" stroke-miterlimit="10" stroke-linecap="round" stroke-linejoin="round"/>
<path d="M183.672 87.7998C185.272 94.7998 184.172 106.2 181.872 112.1" stroke="#251707" stroke-width="2.7806" stroke-miterlimit="10" stroke-linecap="round" stroke-linejoin="round"/>
<path d="M284.372 301.5L232.372 287.3C227.172 285.9 224.472 280.2 226.772 275.3L270.872 179.6C272.672 175.7 276.972 173.7 281.072 174.9L333.072 189.1C338.272 190.5 340.972 196.2 338.672 201.1L294.572 296.8C292.772 300.6 288.472 302.6 284.372 301.5Z" fill="white"/>
<path d="M336.872 205C332.172 206.8 324.472 211.9 322.972 218.6C322.172 222.2 324.772 226.1 328.372 226.7C333.872 227.7 338.572 221.9 338.472 215.9C340.972 209.2 340.672 203.6 336.872 205Z" fill="#D2D2D2"/>
<path d="M336.872 205C332.172 206.8 324.472 211.9 322.972 218.6C322.172 222.2 324.772 226.1 328.372 226.7C333.872 227.7 338.572 221.9 338.472 215.9C340.972 209.2 340.672 203.6 336.872 205Z" stroke="#2D1F04" stroke-width="2.7806" stroke-miterlimit="10" stroke-linecap="round" stroke-linejoin="round"/>
<path d="M322.772 220.399C331.472 219.999 333.772 218.999 338.372 215.899" stroke="#2D1F04" stroke-width="2.7806" stroke-miterlimit="10" stroke-linecap="round" stroke-linejoin="round"/>
<path d="M326.972 226.3L294.472 296.7C292.672 300.6 288.372 302.6 284.272 301.4L232.272 287.2C227.072 285.8 224.372 280.1 226.672 275.2L270.772 179.5C272.572 175.6 276.872 173.6 280.972 174.8L332.972 189C338.172 190.4 340.872 196.1 338.572 201L336.772 204.9" stroke="#2D1F04" stroke-width="2.7806" stroke-miterlimit="10" stroke-linecap="round" stroke-linejoin="round"/>
<path d="M283.172 183.3C280.372 182.1 278.472 179.4 278.472 176.2C278.472 172 281.872 168.5 286.172 168.5C290.372 168.5 293.872 171.9 293.872 176.2C293.872 176.9 293.772 177.6 293.572 178.3" stroke="#2D1F04" stroke-width="2.7806" stroke-miterlimit="10" stroke-linecap="round" stroke-linejoin="round"/>
<path d="M291.972 185.6C289.172 184.4 287.272 181.7 287.272 178.5C287.272 174.3 290.672 170.8 294.972 170.8C299.172 170.8 302.672 174.2 302.672 178.5C302.672 179.2 302.572 179.9 302.372 180.6" stroke="#2D1F04" stroke-width="2.7806" stroke-miterlimit="10" stroke-linecap="round" stroke-linejoin="round"/>
<path d="M299.672 187.7C296.872 186.5 294.972 183.8 294.972 180.6C294.972 176.4 298.372 172.9 302.672 172.9C306.872 172.9 310.372 176.3 310.372 180.6C310.372 181.3 310.272 182 310.072 182.7" stroke="#2D1F04" stroke-width="2.7806" stroke-miterlimit="10" stroke-linecap="round" stroke-linejoin="round"/>
<path d="M308.472 190.1C305.672 188.9 303.772 186.2 303.772 183C303.772 178.8 307.172 175.3 311.472 175.3C315.672 175.3 319.172 178.7 319.172 183C319.172 183.7 319.072 184.4 318.872 185.1" stroke="#2D1F04" stroke-width="2.7806" stroke-miterlimit="10" stroke-linecap="round" stroke-linejoin="round"/>
<path d="M316.772 192.5C313.972 191.3 312.072 188.6 312.072 185.4C312.072 181.2 315.472 177.7 319.772 177.7C323.972 177.7 327.472 181.1 327.472 185.4C327.472 186.1 327.372 186.8 327.172 187.5" stroke="#2D1F04" stroke-width="2.7806" stroke-miterlimit="10" stroke-linecap="round" stroke-linejoin="round"/>
<path d="M324.472 194.7C321.672 193.5 319.772 190.8 319.772 187.6C319.772 183.4 323.172 179.9 327.472 179.9C331.672 179.9 335.172 183.3 335.172 187.6C335.172 188.3 335.072 189 334.872 189.7" stroke="#2D1F04" stroke-width="2.7806" stroke-miterlimit="10" stroke-linecap="round" stroke-linejoin="round"/>
<path d="M269.472 198.2C269.772 197.6 270.072 195.9 270.972 195.8C271.572 195.7 272.172 196.5 272.472 196.9C273.072 197.6 273.172 198.3 274.272 197.8C274.472 197.7 274.672 197.5 274.872 197.6C275.572 197.6 276.272 198.8 276.772 199.2C277.172 199.5 277.472 199.8 277.972 199.8C278.372 199.8 278.772 199.7 279.172 199.8C279.872 200 280.072 200.9 280.572 201.4C280.972 201.7 281.072 201.7 281.572 201.7C283.472 201.7 285.372 201.7 287.372 201.7C287.772 201.7 287.972 201.7 288.272 201.9C289.072 202.5 289.472 203.1 290.572 203C291.272 203 291.972 202.6 292.672 202.6C293.572 202.6 294.472 203.3 295.072 203.9C295.372 204.2 295.872 205.1 296.272 205.4C296.572 205.6 297.072 205.3 297.472 205.2C298.172 205 299.172 204.4 299.972 204.5C300.472 204.6 300.872 205 301.172 205.4C301.972 206.3 302.672 207.2 303.972 207.4C304.172 207.4 304.372 207.4 304.672 207.4C305.572 207.4 306.672 207.2 307.472 207.6C308.072 207.8 308.472 208.4 309.072 208.7C310.172 209.2 310.972 208.1 312.172 208.3C312.772 208.4 313.172 208.9 313.772 209.1C314.172 209.2 314.572 209 315.072 209.1C315.672 209.2 316.172 209.6 316.672 209.8C317.172 209.9 317.172 209.8 317.672 209.7" stroke="#2D1F04" stroke-width="2" stroke-miterlimit="10" stroke-linecap="round" stroke-linejoin="round"/>
<path d="M263.872 211.1C265.772 211.2 267.672 210.3 269.572 210.7C269.772 211.6 269.672 213.5 270.572 214.1C270.772 214.2 270.972 214.2 271.272 214.1C272.472 214.1 273.672 214.2 274.772 214.2C275.872 214.3 278.072 214.1 278.972 214.9C279.272 215.2 279.172 215.4 279.372 215.8C279.772 216.4 280.572 216.5 281.272 216.5C282.472 216.6 283.672 216.2 284.872 216.3C285.372 216.3 285.272 216.6 285.672 216.7C286.172 216.9 287.172 216.7 287.772 216.7C288.372 216.7 288.872 216.7 289.472 216.7C289.672 216.6 289.872 216.6 290.072 216.8C290.572 217.3 289.972 218.4 290.872 218.7C291.572 219 292.772 218.4 293.572 218.3C294.372 218.2 294.772 218.7 295.272 219.2C296.872 220.8 298.272 222.7 300.472 223.4C300.872 222.9 301.472 219.9 302.472 220.6C303.072 221.1 303.372 221.6 304.172 221.9C304.972 222.2 305.572 222.2 306.172 221.6C306.772 221.8 307.272 222.7 307.672 223.1C308.272 223.7 308.772 224.4 309.672 224.5" stroke="#2D1F04" stroke-width="2" stroke-miterlimit="10" stroke-linecap="round" stroke-linejoin="round"/>
<path d="M268.272 229.9C269.172 229.8 270.072 229.3 270.972 229C271.872 228.8 272.472 229.6 272.972 230.2C273.372 230.6 273.672 231.2 274.272 231.1C274.972 231 275.372 230.6 276.072 230.7C276.672 230.7 277.172 230.9 277.872 230.9C278.272 230.9 278.672 230.8 278.972 231.1C279.472 231.4 279.572 232.2 279.972 232.6C280.672 233.7 281.972 233.5 283.172 233.5C283.772 233.5 284.372 233.5 285.072 233.5C285.172 233.5 285.372 233.5 285.472 233.5C285.772 233.6 285.972 233.9 286.272 234C286.472 234.1 286.672 234.1 286.872 234.1C287.172 234.1 287.572 234 287.772 234.1C288.272 234.4 288.272 235.2 288.672 235.6C289.272 236.1 290.172 236.1 290.872 235.9C291.372 235.8 291.872 235.6 292.372 235.8C292.772 236 293.072 236.2 293.572 236.2" stroke="#2D1F04" stroke-width="2" stroke-miterlimit="10" stroke-linecap="round" stroke-linejoin="round"/>
<path d="M245.872 247.1C246.172 246.9 246.472 246.6 246.772 246.4C247.372 246.1 248.172 245.5 248.872 245.6C248.972 245.9 249.372 246.5 249.672 246.7C250.072 247 250.672 246.8 251.172 247.2C251.572 247.5 251.772 248 252.172 248.2C252.972 248.5 253.672 248 254.372 247.9C254.572 247.9 254.372 247.8 254.672 247.9C254.772 248 254.972 248.3 255.072 248.5C255.272 248.8 255.272 248.9 255.372 249.3C255.372 249.5 255.272 249.8 255.472 249.9C255.572 249.9 255.872 249.9 256.072 249.9C256.672 249.9 257.172 249.9 257.772 249.9C258.372 249.9 258.972 249.9 259.572 249.9" stroke="#2D1F04" stroke-width="2" stroke-miterlimit="10" stroke-linecap="round" stroke-linejoin="round"/>
<path d="M242.872 254.399C243.772 254.299 244.572 253.799 245.372 253.699C245.772 253.599 245.772 253.699 245.972 254.099C246.172 254.499 246.372 254.899 246.572 255.299C247.272 256.199 248.272 255.899 249.272 255.899C249.972 255.899 250.572 256.499 251.272 256.699C251.572 256.799 251.972 256.899 252.272 257.099C252.772 257.399 253.172 257.499 253.772 257.499" stroke="#2D1F04" stroke-width="2" stroke-miterlimit="10" stroke-linecap="round" stroke-linejoin="round"/>
<path d="M240.872 261.6C241.172 261.4 241.272 261 241.572 260.8C241.872 260.6 242.272 260.7 242.572 260.7C243.172 260.7 243.372 261 243.772 261.5C244.072 261.9 244.372 262.4 244.872 262.4C245.372 262.5 245.972 262.4 246.472 262.4C246.972 262.4 247.072 262.4 247.472 262.7C247.772 263 248.172 263.3 248.572 263.3C248.772 263.3 249.072 263.3 249.272 263.3" stroke="#2D1F04" stroke-width="2" stroke-miterlimit="10" stroke-linecap="round" stroke-linejoin="round"/>
<path d="M281.272 256.9C282.172 257 282.972 256.4 283.772 256.2C284.272 256 284.172 256.1 284.372 256.4C284.572 256.9 284.772 257.5 285.072 258C285.472 258.7 285.772 258.9 286.572 258.8C287.772 258.7 288.972 258.6 290.272 258.6C290.872 258.6 290.572 259.1 290.672 259.6C290.772 260.1 291.072 260.5 291.572 260.5C292.372 260.5 293.272 260.3 293.972 260.6C294.472 260.8 294.972 261.4 295.672 261.3" stroke="#2D1F04" stroke-width="2" stroke-miterlimit="10" stroke-linecap="round" stroke-linejoin="round"/>
<path d="M278.972 264.899C279.272 265.099 279.572 265.099 279.872 265.099C281.472 265.199 283.072 264.599 284.672 264.399C284.972 264.899 285.072 265.599 285.572 265.899C285.872 266.099 286.272 265.999 286.572 265.999C287.272 265.999 287.972 266.199 288.672 266.299C289.372 266.399 290.072 266.099 290.572 266.699C291.072 267.199 291.372 268.399 292.272 268.499" stroke="#2D1F04" stroke-width="2" stroke-miterlimit="10" stroke-linecap="round" stroke-linejoin="round"/>
<path d="M270.972 236C268.872 236.5 267.072 237.7 265.072 238.5C263.272 239.2 261.372 239.6 259.472 240" stroke="#2D1F04" stroke-width="2" stroke-miterlimit="10" stroke-linecap="round" stroke-linejoin="round"/>
<path d="M260.472 236.5C257.872 237.7 256.272 240.4 253.672 241.4C256.872 241.6 259.972 242 263.172 242.4" stroke="#2D1F04" stroke-width="2" stroke-miterlimit="10" stroke-linecap="round" stroke-linejoin="round"/>
<path d="M282.472 240.1C283.272 240.8 283.572 241.9 283.872 242.9C284.672 245.1 285.672 247.2 286.972 249.2" stroke="#2D1F04" stroke-width="2" stroke-miterlimit="10" stroke-linecap="round" stroke-linejoin="round"/>
<path d="M281.572 246.3C283.772 248.2 285.872 250 288.072 251.9C288.772 249.4 289.072 246.7 289.072 244.1" stroke="#2D1F04" stroke-width="2" stroke-miterlimit="10" stroke-linecap="round" stroke-linejoin="round"/>
</svg>
