<svg width="312" height="304" viewBox="0 0 312 304" fill="none" xmlns="http://www.w3.org/2000/svg">
<path d="M240.686 40.3241C238.302 37.8516 254.373 51.5387 259.053 55.1592C270.445 63.9896 281.483 80.1493 287.841 92.7768C305.502 128.099 315.48 189.47 300.468 226.999C273.182 295.259 191.501 307.18 129.511 300.292C104.344 297.466 52.598 280.512 33.3477 261.261C-11.1577 216.756 -11.6875 165.716 35.2021 118.827C48.2711 105.758 56.5717 104.256 71.4069 93.1301C84.5642 83.24 92.4233 61.2522 105.316 48.9779C134.103 21.6036 173.31 23.3697 200.243 28.7562C209.073 30.5223 220.818 34.5843 229.03 38.6463C232.121 40.3241 244.395 44.0329 240.686 40.3241Z" fill="#303032"/>
<path opacity="0.1395" d="M250.135 117.149C246.161 122.359 234.858 149.38 240.951 148.585C269.473 144.788 261.261 184.966 229.825 199.36C200.331 212.871 196.446 195.739 198.653 189.293C204.923 171.014 150.086 202.539 156.179 220.73C171.897 267.972 25.3121 220.2 62.8414 188.41C81.1204 172.957 88.0965 135.869 67.345 146.201C6.76821 176.224 24.8706 131.189 23.3694 132.779C5.17873 150.969 4.47229 175.694 4.29569 174.193C4.20738 173.487 5.09042 171.456 4.47229 171.986C0.233687 175.518 1.02843 193.62 1.20504 198.654C2.35299 225.586 17.5413 245.72 36.0852 264.705C51.98 280.953 76.7935 287.841 97.0152 294.464C125.802 303.912 143.728 301.881 173.752 300.733C217.904 299.056 273.006 281.13 293.492 239.009C303.294 218.964 304.707 214.548 308.062 192.296C311.33 170.573 304.795 140.903 295.612 106.905C292.698 96.1323 287.134 90.4808 281.13 81.0322C277.068 74.6743 251.813 45.9754 239.715 42.2666C236.536 41.2953 219.67 67.6983 236.006 67.0801C248.634 66.3737 264.705 97.9866 250.135 117.149Z" fill="#303032"/>
<path opacity="0.144" d="M142.845 56.0422C135.162 50.3024 107.082 70.1709 122.712 88.1849C135.957 103.462 154.854 92.8651 154.854 92.8651C154.854 92.8651 150.969 62.0469 142.845 56.0422Z" fill="#1F1F1F"/>
<path d="M208.014 10.8305C206.513 12.3317 206.689 7.56325 206.866 7.47494C208.19 6.15038 213.047 10.9188 213.754 11.8019C220.465 20.1025 234.682 30.8756 237.331 41.4721C238.214 44.916 240.068 48.1832 240.863 51.5388C243.6 62.3119 242.717 75.9108 240.068 86.5956C239.715 88.0968 236.889 102.932 237.331 103.373C237.861 103.903 240.686 103.462 241.481 103.727C244.307 104.963 246.338 106.906 248.987 108.318C250.576 109.113 254.109 108.672 255.875 109.113C270.092 112.645 291.196 128.187 298.614 140.549C306.385 153.53 313.626 168.012 310.447 183.642C310.27 184.613 308.151 195.916 307.709 196.093C307.268 196.358 306.296 191.501 306.12 191.148C304.972 188.41 303.824 185.585 302.764 182.847C299.674 175.076 289.96 163.42 283.161 158.299C266.648 145.936 230.531 148.409 214.99 154.148C209.073 156.356 201.832 174.282 201.126 180.022C200.596 184.172 199.183 187.351 198.212 191.413C195.916 200.685 195.563 194.062 192.649 196.27C191.413 197.241 191.059 201.833 190.706 203.422C189.911 206.513 195.386 211.546 196.004 214.725C197.947 224.35 197.064 233.092 196.004 242.806C195.475 247.751 194.768 258.966 196.799 263.734C197.859 266.207 198.654 268.767 199.801 271.063C199.978 271.505 202.362 274.419 201.391 274.419C195.475 274.419 186.291 269.562 182.229 266.03C172.515 257.641 172.957 259.407 159.182 227.971C155.208 218.964 151.764 214.902 144.965 207.572C132.69 194.239 122.624 192.737 103.373 187.439C98.958 186.203 80.9439 180.286 76.617 182.582C73.7913 184.172 65.2257 185.408 63.0181 187.616C58.4263 192.208 55.3357 196.623 50.3906 200.95C46.5935 204.217 43.3263 207.572 38.5578 208.632C32.6415 209.957 29.1976 207.043 23.1046 207.308C21.6917 207.396 11.625 203.51 10.2122 203.864C9.94725 203.952 21.0736 200.95 26.6368 197.241C28.2262 196.181 29.4625 195.033 29.7274 193.797C32.1999 183.907 32.9947 191.501 37.6748 174.37C42.7965 155.65 59.5743 159.888 66.9918 152.559C69.1994 150.351 69.2877 143.11 70.3474 140.285C72.0252 135.958 75.1158 130.13 78.4714 126.862C82.8866 122.447 91.1872 118.562 92.5118 111.851C94.4545 102.225 68.6696 99.8412 63.0181 100.371C57.8082 100.813 53.4813 106.023 48.9777 108.495C47.3 109.378 46.5935 110.085 44.8274 109.466C42.1783 108.583 44.3859 100.283 46.152 98.5167C54.4526 90.2161 59.6626 80.7675 71.672 77.4119C80.2375 75.0277 86.9486 74.4979 97.2802 76.264C107.612 78.0301 106.199 80.9441 110.084 80.9441C113.616 80.9441 115.559 76.264 119.798 76.9704C123.507 77.5885 128.805 83.0634 132.425 82.2687C141.344 80.5026 139.401 70.5242 140.549 63.6365C142.404 52.6867 145.583 41.8253 152.382 32.8183C154.678 29.7276 155.473 26.0188 158.298 23.1048C163.067 18.3364 167.482 14.8925 176.401 12.7732C177.196 12.5966 177.725 12.5966 177.107 12.0668C176.577 11.6252 172.604 8.53459 174.37 7.91646C177.99 6.6802 186.468 10.389 187.262 9.94746C189.117 8.97612 185.584 5.00242 185.673 4.91412C186.291 4.29599 197.682 11.8902 197.947 11.6252C199.801 9.77085 195.563 4.29599 196.358 3.14803C196.799 2.5299 197.77 3.67786 198.3 4.11938C200.508 6.06207 202.804 7.21003 204.835 9.24103C207.572 12.1551 208.455 10.4773 208.014 10.8305Z" fill="#303032"/>
<path d="M238.655 102.579C236.536 103.108 242.452 102.314 244.042 102.579C248.457 103.197 253.578 103.373 257.729 105.316C258.788 105.846 262.939 110.261 261.967 111.409C260.908 112.734 255.08 108.672 253.314 109.82C251.194 111.144 248.457 116.089 246.779 118.12C242.275 123.683 238.655 131.896 237.419 139.048C237.066 140.814 238.302 147.702 237.507 148.673C234.946 151.764 228.235 150.793 224.791 151.676C218.875 153.177 212.429 157.769 209.338 162.979C207.395 166.334 205.188 169.513 203.157 172.869C201.479 175.695 201.126 178.873 200.154 182.141C199.183 185.32 200.243 194.768 198.3 197.152C197.682 197.947 193.708 197.417 193.178 196.623C192.119 194.945 194.503 192.561 193.973 190.706C193.002 186.733 189.116 184.613 186.644 181.346C183.995 177.902 178.873 173.134 175.606 170.573C165.186 162.184 154.413 152.382 141.255 147.79C133.043 144.965 124.831 141.962 116.442 139.755C112.38 138.695 108.406 136.399 104.079 136.046C96.1319 135.339 88.0079 135.428 80.0605 134.986C77.588 134.81 73.7909 135.781 71.5833 136.841C70.9652 137.106 69.7289 137.812 69.7289 137.812C69.7289 137.812 73.3494 137.9 72.9079 138.96C71.9365 141.521 67.3447 153 64.6072 146.201C63.6359 143.905 65.0488 141.079 66.0201 138.96C66.9032 136.929 66.8149 134.103 68.2277 132.337C72.9079 126.597 76.8815 123.242 83.3278 119.091C85.2705 117.855 88.1845 116.001 90.3921 115.471C90.7453 115.383 92.5114 115.206 92.688 114.853C94.0126 111.409 92.5997 106.905 94.0126 103.285C96.8383 95.7792 103.991 89.4212 108.936 83.3282C109.642 82.4452 117.678 75.4692 118.649 76.0873C121.828 78.1183 125.802 81.0323 128.893 83.5049C130.482 84.7411 132.072 82.5335 133.22 83.0633C135.427 84.123 137.547 88.185 139.224 90.0394C141.962 93.0417 145.494 95.4259 148.585 97.8985C151.41 100.194 155.207 100.901 158.475 102.137C167.305 105.404 175.517 107.789 184.789 110.173C194.15 112.557 216.402 113.175 225.321 109.113C229.383 107.259 230.531 106.817 234.151 104.433C235.653 103.108 240.686 102.049 238.655 102.579Z" fill="#303032"/>
<path d="M178.52 85.8007C216.226 95.9557 230.178 60.9872 226.204 45.1807C225.763 43.4146 224.526 32.2883 207.395 28.4912C204.57 27.8731 198.388 28.138 195.739 27.0783C193.09 26.0187 190.883 25.3123 188.587 22.5748C188.587 25.5772 187.968 25.9304 187.085 25.9304C182.847 26.107 175.606 18.6894 167.747 18.4245C158.74 18.0713 149.468 33.8778 147.525 39.7942C143.905 50.6556 140.814 75.6457 178.52 85.8007Z" fill="#303032"/>
<path d="M184.437 48.6247C190.794 52.5984 192.561 63.4598 186.997 68.4049C181.434 73.3499 171.456 69.023 167.217 66.5505C156.621 60.4575 166.687 47.0352 171.279 46.0639C172.339 45.8873 174.458 45.2691 175.341 45.799" fill="#1F1F1F"/>
<path d="M183.995 49.0661C184.348 47.6533 181.875 45.7989 178.432 44.8275C174.988 43.8562 171.897 44.2977 171.544 45.7106C171.191 47.1234 173.663 48.9778 177.107 49.9492C180.551 50.8322 183.642 50.479 183.995 49.0661Z" fill="#303032"/>
<path d="M197.859 32.7299C178.962 61.782 217.639 75.2042 218.522 74.3212C225.851 67.1685 227.352 52.6866 226.999 48.8896C226.911 48.0948 197.947 32.6416 197.859 32.7299Z" fill="#1F1F1F"/>
<path d="M176.047 26.1953C176.754 26.1953 169.336 56.1305 145.317 47.3883C143.993 46.8585 146.554 40.324 146.819 38.9994C149.379 26.2836 153.618 29.9041 163.508 29.1977C167.394 28.8444 174.546 26.1953 176.047 26.1953Z" fill="#1F1F1F"/>
<path d="M309.387 179.58C311.859 180.728 310.446 194.768 307.003 195.298C306.296 195.387 306.384 194.415 306.296 194.15C305.766 190.706 300.733 183.289 301.793 180.022C301.969 179.668 308.592 179.227 309.387 179.58Z" fill="#303032"/>
<path d="M42.5312 107.877C44.7389 107.435 43.8558 111.232 42.0897 112.292C41.3833 112.734 40.4119 114.588 40.3236 113.882C39.8821 111.497 40.4119 108.318 42.5312 107.877Z" fill="#303032"/>
<path d="M194.856 258.347C196.181 261.173 198.83 266.383 200.419 269.738C200.684 270.268 202.274 276.538 202.009 276.891C201.126 278.039 196.181 274.86 195.209 274.33C188.94 271.24 183.907 269.297 179.315 263.822C178.697 263.027 174.281 260.202 175.429 258.524C177.637 255.521 185.849 254.903 188.94 255.433C190.529 255.698 191.942 256.051 193.443 256.493C193.885 256.669 194.68 257.817 194.856 258.347Z" fill="#303032"/>
<path d="M27.1666 197.241C32.3766 196.888 41.7368 207.131 38.0281 208.544C33.8778 210.045 21.3386 207.749 17.0116 206.954C15.5105 206.689 12.9497 207.837 12.5081 206.336C12.3315 205.806 12.9497 205.365 13.3029 204.923C16.5701 201.303 19.8374 202.627 22.928 198.565C23.3696 197.947 26.6368 197.241 27.1666 197.241Z" fill="#303032"/>
<path d="M198.3 194.768C198.3 198.83 194.768 196.799 192.561 196.799" stroke="#1F1F1F" stroke-width="2.5974" stroke-miterlimit="10" stroke-linecap="round" stroke-linejoin="round"/>
<path d="M111.144 80.5024C111.144 80.5024 59.0445 54.7176 39.5292 113.793C39.3526 114.323 39.0877 115.736 39.5292 115.383C67.5217 91.7171 83.0632 101.784 91.8937 109.908" stroke="#1F1F1F" stroke-width="2.5974" stroke-miterlimit="10" stroke-linecap="round" stroke-linejoin="round"/>
<path d="M72.6429 138.695C70.9652 141.433 69.1108 152.029 61.5166 156.444" stroke="#1F1F1F" stroke-width="2.5974" stroke-miterlimit="10" stroke-linecap="round" stroke-linejoin="round"/>
<path d="M306.385 202.716C321.396 161.831 292.609 120.416 255.433 110.438M103.55 108.053C97.1036 109.378 70.3473 123.33 64.3427 139.755C62.2234 145.671 66.2854 147.79 68.3163 149.203M29.6391 194.062C26.2835 198.919 9.41739 204.04 9.7706 204.57C10.3004 205.276 35.2905 210.663 42.4432 208.279C50.6555 205.541 56.307 192.384 63.3713 187.616C76.1754 178.873 92.3351 184.702 114.146 190.088M62.2234 156.003C51.0087 161.566 42.09 157.769 37.0566 174.547C34.3192 183.73 34.0543 188.94 28.6677 194.945M176.931 13.3913C158.298 16.0404 143.905 33.4363 140.726 64.8727C139.401 77.5002 135.428 81.1206 131.984 82.6218M236.978 101.96C255.08 43.503 224.88 24.5176 224.527 23.6345M224.615 23.6345C219.052 18.5129 214.99 10.3889 207.661 8.00469C207.749 9.94739 207.749 9.94739 207.837 11.8018C203.334 8.1813 199.448 4.38422 194.238 2C197.594 9.77078 196.534 6.59182 197.947 11.1836C191.501 9.06434 189.735 4.29591 182.406 3.67778C185.32 5.70878 186.468 7.29826 188.41 10.3889C182.935 8.53452 177.46 6.41521 171.632 7.65147C174.37 10.3006 174.37 10.3006 177.019 12.9497M193.708 191.854C192.649 194.062 191.236 201.038 190.176 203.245M162.625 196.093C175.076 189.823 189.205 198.83 193.973 210.751C197.064 218.61 196.799 230.708 196.093 238.92C195.651 243.777 195.298 249.164 195.828 254.109C196.358 258.877 197.77 264.794 199.801 269.297C199.978 269.65 203.952 276.715 203.51 276.98C201.479 278.392 196.711 275.213 195.033 274.33C187.969 270.798 178.962 265.058 174.017 258.877C162.36 244.307 160.506 223.644 148.762 210.486C140.902 201.656 122.623 192.207 112.38 189.647M224.88 151.234C203.422 156.268 198.212 190.088 198.389 194.592M307.003 201.391C307.003 193.179 294.993 134.28 225.498 151.146" stroke="#1F1F1F" stroke-width="2.5974" stroke-miterlimit="10" stroke-linecap="round" stroke-linejoin="round"/>
<path d="M85.8887 74.0562C101.077 48.6246 118.385 33.348 153.177 27.3433" stroke="#1F1F1F" stroke-width="2.5974" stroke-miterlimit="10" stroke-linecap="round" stroke-linejoin="round"/>
<path d="M238.037 40.324C248.457 44.6509 264.617 57.1901 278.569 77.2352C291.726 96.1323 302.852 121.741 305.237 153.442" stroke="#1F1F1F" stroke-width="2.5974" stroke-miterlimit="10" stroke-linecap="round" stroke-linejoin="round"/>
<path d="M306.561 199.183C292.786 310.182 148.938 307.533 107.082 297.201C20.3672 275.743 -14.0715 218.875 7.65136 160.153C18.9543 129.688 39.8824 114.853 39.8824 114.853" stroke="#1F1F1F" stroke-width="2.5974" stroke-miterlimit="10" stroke-linecap="round" stroke-linejoin="round"/>
<path d="M185.761 8.00473C185.761 7.91643 185.761 7.91643 185.761 7.82812" stroke="#1F1F1F" stroke-width="2.5974" stroke-miterlimit="10" stroke-linecap="round" stroke-linejoin="round"/>
<path d="M195.386 257.023C189.646 252.961 179.315 254.992 174.281 258.701" stroke="#1F1F1F" stroke-width="2.5974" stroke-miterlimit="10" stroke-linecap="round" stroke-linejoin="round"/>
<path d="M39.4409 208.367C38.8227 204.57 30.9637 195.651 27.2549 196.358" stroke="#1F1F1F" stroke-width="2.5974" stroke-miterlimit="10" stroke-linecap="round" stroke-linejoin="round"/>
<path d="M34.6723 200.861C33.6127 201.038 27.6963 201.744 22.0448 202.539C16.2167 203.334 12.1547 204.393 12.0664 204.923" stroke="#1F1F1F" stroke-width="2.5974" stroke-miterlimit="10" stroke-linecap="round" stroke-linejoin="round"/>
<path d="M309.74 177.549C306.649 180.286 304 179.227 300.38 178.962" stroke="#1F1F1F" stroke-width="2.5974" stroke-miterlimit="10" stroke-linecap="round" stroke-linejoin="round"/>
<path d="M305.943 180.021C307.091 186.379 308.769 193.444 306.914 199.625" stroke="#1F1F1F" stroke-width="2.5974" stroke-miterlimit="10" stroke-linecap="round" stroke-linejoin="round"/>
<path d="M43.4142 104.61C42.8843 106.552 43.8557 109.201 45.0036 110.703" stroke="#1F1F1F" stroke-width="2.5974" stroke-miterlimit="10" stroke-linecap="round" stroke-linejoin="round"/>
<path d="M289.43 130.483C288.9 122.005 285.898 109.378 280.511 96.0439" stroke="#1F1F1F" stroke-width="2.5974" stroke-miterlimit="10" stroke-linecap="round" stroke-linejoin="round"/>
<path d="M286.428 161.831C274.771 235.3 202.627 257.553 197.329 259.584" stroke="#1F1F1F" stroke-width="2.7728" stroke-miterlimit="10" stroke-linecap="round" stroke-linejoin="round"/>
<path d="M178.343 264.529C112.468 280.865 50.7434 242.541 28.844 219.67C16.8346 207.131 5.79654 187.616 4.8252 170.573" stroke="#1F1F1F" stroke-width="2.5974" stroke-miterlimit="10" stroke-linecap="round" stroke-linejoin="round"/>
<path d="M193.532 191.678C193.532 184.967 171.897 167.306 166.334 163.42C159.976 159.005 153.353 155.12 146.554 151.411C129.07 141.786 88.8913 129.158 68.8462 139.137" stroke="#1F1F1F" stroke-width="2.6851" stroke-miterlimit="10" stroke-linecap="round" stroke-linejoin="round"/>
<path d="M199.272 51.362C191.589 55.2474 178.255 55.8656 169.336 49.8609C165.628 47.3883 162.714 43.8562 161.212 38.9111" stroke="#1F1F1F" stroke-width="2.6851" stroke-miterlimit="10" stroke-linecap="round" stroke-linejoin="round"/>
<path d="M209.426 162.007C215.519 158.829 227.352 159.976 231.502 161.301" stroke="#1F1F1F" stroke-width="2.6851" stroke-miterlimit="10" stroke-linecap="round" stroke-linejoin="round"/>
<path d="M204.04 171.809C207.307 170.131 214.372 169.337 219.405 173.575" stroke="#1F1F1F" stroke-width="2.6851" stroke-miterlimit="10" stroke-linecap="round" stroke-linejoin="round"/>
<path d="M201.567 179.845C206.159 179.845 211.811 181.258 214.46 187.88" stroke="#1F1F1F" stroke-width="2.6851" stroke-miterlimit="10" stroke-linecap="round" stroke-linejoin="round"/>
<path d="M239.273 95.161C243.247 91.1873 248.016 89.068 253.402 87.8318" stroke="#1F1F1F" stroke-width="2.6851" stroke-miterlimit="10" stroke-linecap="round" stroke-linejoin="round"/>
<path d="M139.224 72.4668C139.224 67.9633 136.487 65.1375 132.602 63.1948" stroke="#1F1F1F" stroke-width="2.6851" stroke-miterlimit="10" stroke-linecap="round" stroke-linejoin="round"/>
<path d="M78.4714 121.476C75.469 114.676 70.6123 111.056 63.1064 109.555" stroke="#1F1F1F" stroke-width="2.6851" stroke-miterlimit="10" stroke-linecap="round" stroke-linejoin="round"/>
<path d="M73.6146 125.891C73.6146 123.595 68.3164 120.681 66.5503 119.798" stroke="#1F1F1F" stroke-width="2.6851" stroke-miterlimit="10" stroke-linecap="round" stroke-linejoin="round"/>
<path d="M228.588 107.259C228.412 107.347 228.235 107.435 228.059 107.524C223.114 109.996 216.138 110.438 210.751 111.144C191.059 113.97 144.17 103.462 133.926 82.7983" stroke="#1F1F1F" stroke-width="2.6851" stroke-miterlimit="10" stroke-linecap="round" stroke-linejoin="round"/>
<path d="M132.602 83.1518C129.864 83.1518 118.826 75.9108 118.473 76.0874C105.051 82.7985 92.688 97.1038 92.688 112.734" stroke="#1F1F1F" stroke-width="2.6851" stroke-miterlimit="10" stroke-linecap="round" stroke-linejoin="round"/>
<path d="M236.977 101.784C236.448 101.342 263.734 101.342 261.084 111.586" stroke="#1F1F1F" stroke-width="2.6851" stroke-miterlimit="10" stroke-linecap="round" stroke-linejoin="round"/>
<path d="M256.14 109.025C253.049 108.937 249.164 114.853 247.397 117.061C240.068 126.156 237.154 137.194 236.978 148.585" stroke="#1F1F1F" stroke-width="2.6851" stroke-miterlimit="10" stroke-linecap="round" stroke-linejoin="round"/>
<path d="M226.557 47.2117C215.166 43.5029 204.481 36.4386 198.653 30.7871" stroke="#1F1F1F" stroke-width="6.4991" stroke-miterlimit="10" stroke-linecap="round" stroke-linejoin="round"/>
<path d="M195.562 45.7989C201.479 43.6796 207.307 46.3288 211.546 50.3908" stroke="#1F1F1F" stroke-width="2.7838" stroke-miterlimit="10" stroke-linecap="round" stroke-linejoin="round"/>
<path d="M168.63 36.0855C165.451 32.9949 158.916 31.4054 154.678 32.9949" stroke="#1F1F1F" stroke-width="2.7838" stroke-miterlimit="10" stroke-linecap="round" stroke-linejoin="round"/>
<path d="M202.186 275.213C191.942 267.972 183.465 256.051 183.553 255.875" stroke="#1F1F1F" stroke-width="2.5974" stroke-miterlimit="10" stroke-linecap="round" stroke-linejoin="round"/>
<path d="M175.518 24.4292C162.537 28.9327 150.263 25.5772 149.733 25.4889" stroke="#1F1F1F" stroke-width="5.6661" stroke-miterlimit="10" stroke-linecap="round" stroke-linejoin="round"/>
<path d="M123.33 193.797C111.144 194.503 103.726 206.424 103.726 209.78" stroke="#1F1F1F" stroke-width="2.5974" stroke-miterlimit="10" stroke-linecap="round" stroke-linejoin="round"/>
<path d="M109.289 189.382C101.077 189.382 90.5687 194.768 85.1821 208.985" stroke="#1F1F1F" stroke-width="2.5974" stroke-miterlimit="10" stroke-linecap="round" stroke-linejoin="round"/>
<path d="M123.241 78.6482C113.793 81.4739 105.669 93.6599 100.194 101.077" stroke="#1F1F1F" stroke-width="2.7728" stroke-miterlimit="10" stroke-linecap="round" stroke-linejoin="round"/>
<path d="M253.843 103.197C245.719 104.433 238.125 118.562 233.887 124.302" stroke="#1F1F1F" stroke-width="2.7728" stroke-miterlimit="10" stroke-linecap="round" stroke-linejoin="round"/>
<path d="M230.884 148.585C230.355 144.876 230.708 141.432 231.326 137.812" stroke="#1F1F1F" stroke-width="2.7728" stroke-miterlimit="10" stroke-linecap="round" stroke-linejoin="round"/>
<path d="M155.914 101.519L155.561 101.961L155.208 102.579L154.943 103.02L154.236 104.345" stroke="#1F1F1F" stroke-width="2.7728" stroke-miterlimit="10" stroke-linecap="round" stroke-linejoin="round"/>
<path d="M160.506 103.727L159.534 105.228L159.358 105.934L159.093 106.376" stroke="#1F1F1F" stroke-width="2.7728" stroke-miterlimit="10" stroke-linecap="round" stroke-linejoin="round"/>
<path d="M109.819 81.4739C110.173 81.6505 110.526 81.9154 110.879 82.092" stroke="#1F1F1F" stroke-width="2.7728" stroke-miterlimit="10" stroke-linecap="round" stroke-linejoin="round"/>
<path d="M105.404 86.3306L108.318 88.2733" stroke="#1F1F1F" stroke-width="2.7728" stroke-miterlimit="10" stroke-linecap="round" stroke-linejoin="round"/>
<path d="M113.528 78.9131L116.53 80.8558" stroke="#1F1F1F" stroke-width="2.7728" stroke-miterlimit="10" stroke-linecap="round" stroke-linejoin="round"/>
<path d="M110.261 81.9153L113.263 83.7697" stroke="#1F1F1F" stroke-width="2.7728" stroke-miterlimit="10" stroke-linecap="round" stroke-linejoin="round"/>
<path d="M98.7812 96.6621L101.695 98.6048" stroke="#1F1F1F" stroke-width="2.7728" stroke-miterlimit="10" stroke-linecap="round" stroke-linejoin="round"/>
<path d="M242.364 112.027L245.454 114.146" stroke="#1F1F1F" stroke-width="2.7728" stroke-miterlimit="10" stroke-linecap="round" stroke-linejoin="round"/>
<path d="M239.185 116.266L242.629 118.385" stroke="#1F1F1F" stroke-width="2.7728" stroke-miterlimit="10" stroke-linecap="round" stroke-linejoin="round"/>
<path d="M87.0366 82.4453C86.3301 83.3284 85.3588 84.6529 84.6523 85.6243" stroke="#1F1F1F" stroke-width="3.0577" stroke-miterlimit="10" stroke-linecap="round" stroke-linejoin="round"/>
<path d="M93.4828 83.4165C92.7764 84.2995 91.8051 85.6241 91.0986 86.5955" stroke="#1F1F1F" stroke-width="3.0577" stroke-miterlimit="10" stroke-linecap="round" stroke-linejoin="round"/>
<path d="M180.816 213.047C180.109 213.93 179.138 215.255 178.432 216.226" stroke="#1F1F1F" stroke-width="3.0577" stroke-miterlimit="10" stroke-linecap="round" stroke-linejoin="round"/>
<path d="M257.994 120.681C257.287 121.564 256.316 122.889 255.609 123.86" stroke="#1F1F1F" stroke-width="3.0577" stroke-miterlimit="10" stroke-linecap="round" stroke-linejoin="round"/>
<path d="M174.988 211.811C174.281 212.694 173.31 214.019 172.604 214.99" stroke="#1F1F1F" stroke-width="3.0577" stroke-miterlimit="10" stroke-linecap="round" stroke-linejoin="round"/>
<path d="M221.348 94.7195C220.641 95.6025 219.67 96.9271 218.963 97.8984" stroke="#1F1F1F" stroke-width="3.0577" stroke-miterlimit="10" stroke-linecap="round" stroke-linejoin="round"/>
<path d="M214.195 94.543C213.488 95.426 212.517 96.7506 211.811 97.7219" stroke="#1F1F1F" stroke-width="3.0577" stroke-miterlimit="10" stroke-linecap="round" stroke-linejoin="round"/>
<path d="M205.365 93.9248C204.658 94.8078 203.687 96.1324 202.98 97.1038" stroke="#1F1F1F" stroke-width="3.0577" stroke-miterlimit="10" stroke-linecap="round" stroke-linejoin="round"/>
<path opacity="0.23" d="M171.279 15.5106C171.102 15.5106 260.466 7.91642 227.441 108.318C227.441 108.407 236.801 102.402 236.801 102.402C236.801 102.402 251.459 54.1879 231.856 29.3744C229.737 26.6369 225.851 25.5773 223.644 22.8398C219.935 18.248 215.961 13.3913 211.458 9.6825C207.219 6.15033 208.543 12.3316 207.042 12.155C206.071 12.0667 196.976 2.00003 195.386 2.61816C194.062 3.05968 199.007 11.4486 198.212 12.0667C198.035 12.155 197.77 12.0667 197.594 11.9784C194.503 10.8305 190.441 8.71116 187.792 6.50355C186.909 5.79712 189.823 9.5942 187.174 10.2123C184.613 10.8305 172.515 4.91407 172.162 8.09303C172.339 8.18133 181.434 13.7445 171.279 15.5106Z" fill="#1F1F1F"/>
<path opacity="0.23" d="M161.919 196.358C162.89 195.475 172.339 187.88 175.959 184.701C191.501 171.014 208.279 147.172 187.88 129.246C172.604 115.824 152.647 109.201 132.514 107.259C123.86 106.376 116.354 110.261 108.053 109.201C102.667 108.495 102.755 107.612 103.285 106.64C104.874 103.55 114.146 99.1346 122.712 100.812C130.218 102.225 138.165 105.139 145.229 107.612C156.356 111.586 191.059 119.974 209.073 118.297C229.472 116.442 240.245 117.855 244.13 119.886C245.543 120.593 288.724 122.005 303.471 153.177C305.767 158.122 308.681 164.391 308.945 169.778C309.034 170.926 309.387 180.11 308.327 180.463C306.914 180.993 303.206 177.814 301.793 178.873C300.998 179.58 303.912 179.403 304.972 179.403C305.678 179.403 308.592 177.725 309.21 177.99C310.447 178.52 307.886 191.059 307.709 193.002C307.709 193.267 307.798 193.532 307.621 193.709C307.444 193.797 302.852 183.818 301.881 182.317C300.292 179.845 299.585 176.931 298.084 174.37C295.258 169.69 290.313 165.628 286.251 161.919C273.182 149.91 259.407 146.907 241.834 147.614C235.565 147.879 225.586 150.175 219.582 153C202.892 160.859 201.214 174.546 198.565 195.121C197.947 199.802 194.415 195.475 192.207 197.329C190.883 198.389 191.236 201.214 190.353 201.921C189.911 202.274 185.408 198.654 184.79 198.124C181.876 195.916 177.46 194.503 174.017 193.62C170.308 192.737 160.064 198.3 161.919 196.358Z" fill="#1F1F1F"/>
<path opacity="0.23" d="M181.611 196.976C188.322 197.682 190.706 205.895 190.971 211.458C191.589 228.942 185.496 233.357 177.019 244.219C165.716 258.789 184.436 266.56 191.324 270.445C193.708 271.77 197.064 272.564 199.713 273.536C200.684 273.889 202.892 275.92 202.539 274.949C201.832 273.006 199.625 271.24 198.742 269.032C195.828 261.261 196.534 246.426 196.269 238.126C195.916 225.763 199.272 218.345 191.589 207.043C190.088 204.835 188.852 201.833 186.556 200.331" fill="#1F1F1F"/>
<path opacity="0.23" d="M148.761 209.868C144.434 207.131 143.286 196.358 107.611 182.582C86.8599 174.547 64.4306 172.869 50.2137 196.269C47.6528 200.42 42.5312 206.954 37.7628 208.809C37.4095 208.897 36.8797 208.809 36.7914 209.162C36.7031 209.78 39.7938 209.515 39.9704 209.515C42.178 208.985 44.3856 206.954 46.0634 205.541C53.0394 199.89 59.1324 186.997 68.6693 184.878C86.3301 180.904 105.227 184.79 121.299 192.737C125.802 194.945 129.599 197.947 133.75 200.508" fill="#1F1F1F"/>
<path d="M135.074 101.784C140.814 104.168 145.671 105.934 150.174 107.789C153.883 109.29 153.795 111.851 152.293 113.087C150.174 114.765 146.554 114.853 141.697 114.147C141.432 114.147 141.167 114.058 140.726 113.97C143.551 116.178 141.167 118.385 142.138 124.213C138.606 122.889 135.427 121.829 132.16 120.681C131.719 117.325 131.807 115.206 132.425 113.617C132.69 112.734 132.602 112.027 129.952 111.586C127.038 112.822 124.301 114.411 123.065 117.944C120.151 117.061 117.502 116.354 114.764 115.736C119.268 107.524 129.069 108.407 135.074 101.784ZM139.048 107.965C137.723 108.76 136.222 109.29 134.456 109.908C136.222 110.349 137.9 110.879 139.666 111.321C141.255 111.674 142.757 111.674 143.728 111.232C144.788 110.791 144.788 110.085 143.463 109.555C142.315 109.025 140.726 108.583 139.048 107.965Z" fill="#1F1F1F"/>
<path d="M174.105 121.829C171.544 120.858 169.248 120.063 166.776 119.18C167.394 118.12 166.687 117.061 164.833 116.354C163.597 115.913 162.36 115.736 161.212 116.266C160.594 116.796 161.212 117.237 162.007 117.679C163.508 118.473 165.098 119.356 166.599 120.24C167.482 120.769 168.277 121.299 169.071 121.829C174.017 125.361 170.396 129.6 164.126 131.278C162.007 131.807 159.711 131.896 157.68 131.454C154.413 130.748 151.322 129.07 148.585 126.862C144.964 123.948 143.905 119.71 146.466 117.679C149.026 118.385 151.587 119.18 154.325 120.063C154.236 120.416 154.06 120.681 153.971 121.034C153.618 122.8 155.826 125.008 158.828 125.273C160.241 125.361 161.389 125.096 162.007 124.302C162.625 123.595 162.272 122.889 161.477 122.271C160.771 121.741 159.976 121.299 159.181 120.858C157.592 119.886 155.914 119.092 154.59 118.209C152.029 116.531 152.029 115.383 153.971 114.323C156.091 113.175 159.181 112.027 162.714 112.38C165.981 112.645 168.983 113.705 171.632 115.736C174.546 117.679 175.253 119.975 174.105 121.829Z" fill="#1F1F1F"/>
</svg>
