<svg width="272" height="303" viewBox="0 0 272 303" fill="none" xmlns="http://www.w3.org/2000/svg">
<path d="M91.5706 43.0514C91.5706 43.0514 78.6687 56.1454 79.4543 78.6495C80.3272 104.837 87.721 113.951 95.5075 127.787C99.9943 135.765 102.587 144.617 102.43 150.561C102.212 158.557 96.6597 176.801 115.69 179.682C134.719 182.563 198.146 178.809 213.999 169.879C229.851 160.949 240.527 147.515 240.527 147.515C240.527 147.515 235.342 80.3604 212.846 49.7992C191.547 20.8354 169.279 17.7278 150.17 12.6823C141.197 10.8404 135.426 7.3487 133.881 3.77842C131.332 9.88892 132.005 8.24781 132.136 10.8055C126.025 10.4825 114.197 4.52041 111.552 2.01511C111.283 1.97163 111.007 2.02267 110.772 2.15953C110.536 2.2964 110.355 2.51065 110.26 2.76583C109.797 5.06163 109.719 4.51168 115.367 17.0033C115.367 17.0033 114.354 14.6813 96.0923 16.0431C95.717 16.0431 95.4813 17.108 95.7956 17.3175C97.8382 18.6618 107.563 21.56 105.729 24.72C105.729 24.72 97.7247 22.3019 85.2593 28.6307C85.192 28.6655 85.1374 28.7208 85.1035 28.7887C85.0696 28.8565 85.0582 28.9334 85.0708 29.0082C85.0834 29.0829 85.1195 29.1518 85.1737 29.2047C85.228 29.2577 85.2977 29.292 85.3728 29.3028C88.7161 29.7393 98.135 30.2892 96.8169 32.4978C96.8169 32.4978 91.5007 34.4618 78.7996 43.4355C77.9791 44.0117 79.044 45.4171 79.3932 45.2861C91.684 40.7556 91.5706 43.0514 91.5706 43.0514Z" fill="#303032"/>
<g style="mix-blend-mode:multiply" opacity="0.23">
<path d="M91.7625 42.3793C91.9808 42.615 92.2077 42.9118 92.0244 43.1737C89.8683 46.4035 86.7868 48.1407 83.103 57.9349C81.7151 61.6187 97.7333 28.4125 141.947 28.4125C204.798 28.4125 205.444 58.8515 212.654 82.7785C220.345 108.277 216.949 150.771 215.928 166.903C215.64 172.062 223.496 163.996 226.988 161.176C232.18 157.009 236.957 152.349 241.251 147.262C241.33 147.166 241.367 147.044 241.356 146.921C241.033 143.01 235.49 79.0161 213.693 49.3977C194.873 23.8209 164.408 18.0596 147.097 12.0276C144.482 11.7547 141.962 10.8976 139.723 9.51961C137.484 8.14163 135.583 6.27801 134.161 4.06652C132.345 5.08785 133.55 9.50486 131.926 11.3118C118.448 9.29536 113.167 2.63492 110.557 2.29448C109.631 2.181 112.678 14.5155 115.89 17.6144C115.862 17.6762 115.821 17.7314 115.77 17.7765C115.719 17.8215 115.659 17.8554 115.594 17.876C115.529 17.8965 115.46 17.9033 115.393 17.8958C115.325 17.8883 115.259 17.8668 115.201 17.8326C113.734 16.9597 111.281 15.4757 96.8691 15.9907C96.6844 15.9901 96.5042 16.048 96.3545 16.1563C96.2048 16.2645 96.0933 16.4175 96.0361 16.5931C95.9788 16.7687 95.9787 16.958 96.0359 17.1337C96.093 17.3094 96.2044 17.4624 96.3541 17.5707C98.3793 19.1071 105.747 21.2108 106.096 25.6889C104.455 25.6191 95.7256 23.463 85.2505 28.4299C85.1017 28.5177 84.9822 28.6477 84.9073 28.8034C84.8324 28.9591 84.8055 29.1335 84.8298 29.3046C84.8541 29.4756 84.9286 29.6356 85.0439 29.7643C85.1592 29.893 85.3101 29.9845 85.4774 30.0274C89.4405 30.6734 100.902 29.8266 97.3754 33.1525C97.3754 33.1525 90.3396 34.7849 79.0439 44.1776C78.5289 44.6053 78.9828 45.5044 79.6026 45.26C87.3193 42.3008 90.6801 41.166 91.7625 42.3793Z" fill="#1F1F1F"/>
</g>
<path d="M88.6899 64.3508C91.7277 57.184 99.7412 48.638 106.978 46.8398C115.48 44.7884 117.051 46.3684 125.309 45.9669C126.828 45.8883 131.42 44.7099 132.354 42.964C133.288 41.2182 132.555 38.6779 132.589 38.6954C133.89 39.1842 137.827 41.48 139.424 42.0649C145.605 44.3956 147.045 44.6837 152.632 42.5188C171.251 35.1688 187.209 47.1541 193.52 55.5429C196.872 59.9948 204.973 72.6523 205.243 86.366C205.523 100.542 208.185 107.404 191.87 122.112C172.491 139.571 125.597 148.711 99.3396 122.898C86.8218 110.625 83.6618 76.1877 88.6899 64.3508Z" fill="#303032"/>
<path d="M92.0069 42.7459C92.0069 42.7459 79.655 56.7127 79.0003 76.8948C78.1274 105.09 87.7296 113.951 95.5074 127.787C99.9942 135.765 102.587 144.617 102.43 150.561C102.211 158.557 96.6596 176.801 115.689 179.682C134.719 182.563 198.146 178.809 213.999 169.879C229.851 160.949 240.527 147.515 240.527 147.515C240.527 147.515 237.035 78.5534 212.593 47.9485C190.997 20.8267 173.565 20.4688 142.436 10.7705C135.453 8.59695 134.58 5.11397 133.925 4.10137C132.467 5.84723 131.935 9.17308 132.589 10.6658C132.266 10.7356 122.891 12.3505 111.569 2.32933C109.116 1.67463 111.037 11.3816 115.515 17.6492C115.515 17.6492 114.345 15.3621 96.1272 16.2613C96.0454 16.2658 95.967 16.2959 95.9031 16.3472C95.8393 16.3985 95.793 16.4685 95.7708 16.5474C95.7487 16.6263 95.7518 16.7101 95.7797 16.7872C95.8076 16.8642 95.8589 16.9306 95.9264 16.9771C97.969 18.3214 107.659 22.4765 105.825 25.6278C105.825 25.6278 97.5326 22.3281 85.0671 28.6568C84.9998 28.6917 84.9452 28.747 84.9114 28.8148C84.8775 28.8827 84.8661 28.9595 84.8787 29.0343C84.8913 29.1091 84.9274 29.1779 84.9816 29.2309C85.0359 29.2838 85.1056 29.3182 85.1806 29.329C88.5327 29.7654 99.5578 30.4376 96.8168 33.0302C96.8168 33.0302 90.7849 34.5491 78.7734 43.9156C78.3194 44.2648 78.7035 45.0766 79.236 44.8496C89.781 40.3541 92.0069 42.7459 92.0069 42.7459Z" stroke="#1F1F1F" stroke-width="2.62" stroke-linecap="round" stroke-linejoin="round"/>
<path d="M136.937 91.5951C130.093 88.4351 122.306 100.918 121.983 109.726C121.32 127.778 147.979 132.186 162.932 123.169C178.514 113.767 159.711 86.1219 147.805 90.5127" fill="#1F1F1F"/>
<path d="M87.9391 70.9328C80.8946 83.0228 87.3019 105.317 92.0244 113.977C92.3979 114.644 92.9803 115.171 93.6821 115.475C94.3839 115.78 95.1663 115.845 95.9089 115.662C100.89 114.396 105.648 112.374 110.015 109.665C138.822 91.7783 124.585 54.0329 122.926 52.0513C120.648 49.0048 114.851 57.0096 105.79 64.316C103.032 66.507 91.6229 70.0511 87.9391 70.9328Z" fill="#1F1F1F"/>
<path d="M153.278 54.4257C153.531 114.972 200.852 112.859 204.1 105.056C206.177 100.08 210.001 81.9316 203.174 67.2665C197.78 54.8709 186.728 66.0444 178.147 62.5788C169.139 58.9736 153.225 42.3269 153.278 54.4257Z" fill="#1F1F1F"/>
<path opacity="0.83" d="M176.192 69.4662H176.314C182.311 68.5933 188.012 73.3944 189.05 80.273C190.089 87.1517 186.082 93.463 180.094 94.3708H179.972C173.984 95.2438 168.283 90.4426 167.236 83.564C166.188 76.6853 170.247 70.374 176.192 69.4662Z" fill="#303032"/>
<path opacity="0.83" d="M107.545 70.854H107.676C114.284 70.854 119.635 76.9645 119.635 84.5764C119.635 92.1884 114.284 98.2989 107.676 98.2989H107.545C100.946 98.2989 95.5859 92.1884 95.5859 84.5764C95.5859 76.9645 100.946 70.854 107.545 70.854Z" fill="#303032"/>
<path d="M131.341 93.0177C131.219 90.6434 135.871 88.4872 141.729 88.1992C147.586 87.9111 152.431 89.6046 152.553 91.9789C152.675 94.3533 148.014 96.5007 142.157 96.7888C136.299 97.0768 131.454 95.3921 131.341 93.0177Z" fill="#303032"/>
<path d="M107.615 71.2557C108.996 71.2465 110.366 71.5106 111.645 72.0329C112.924 72.5552 114.087 73.3253 115.067 74.299C116.047 75.2726 116.825 76.4305 117.356 77.706C117.886 78.9814 118.16 80.3493 118.16 81.7308V82.4204C118.081 85.1657 116.935 87.7722 114.965 89.6861C112.995 91.6 110.357 92.6706 107.61 92.6706C104.864 92.6706 102.226 91.6 100.256 89.6861C98.2861 87.7722 97.14 85.1657 97.061 82.4204V81.7308C97.061 80.3486 97.3345 78.98 97.8659 77.7039C98.3972 76.4279 99.1758 75.2696 100.157 74.2958C101.138 73.3221 102.302 72.5522 103.582 72.0304C104.862 71.5086 106.233 71.2453 107.615 71.2557Z" fill="#303032"/>
<path d="M177.624 67.2927C179.005 67.2835 180.375 67.5477 181.654 68.07C182.933 68.5923 184.096 69.3624 185.076 70.336C186.056 71.3096 186.834 72.4675 187.365 73.743C187.896 75.0185 188.169 76.3863 188.169 77.7679V78.4487C188.09 81.1941 186.944 83.8005 184.974 85.7144C183.004 87.6283 180.366 88.6989 177.619 88.6989C174.873 88.6989 172.235 87.6283 170.265 85.7144C168.295 83.8005 167.149 81.1941 167.07 78.4487V77.7679C167.082 74.9796 168.2 72.31 170.179 70.3458C172.158 68.3816 174.836 67.2834 177.624 67.2927Z" fill="#303032"/>
<path d="M173.914 80.7881C173.926 80.285 174.086 79.7966 174.374 79.3841C174.663 78.9716 175.066 78.6534 175.534 78.4691C176.003 78.2849 176.515 78.2428 177.007 78.3483C177.499 78.4538 177.949 78.7021 178.301 79.0621C178.652 79.4221 178.89 79.8779 178.984 80.3723C179.077 80.8667 179.023 81.3778 178.828 81.8416C178.633 82.3054 178.305 82.7013 177.886 82.9797C177.467 83.2581 176.975 83.4067 176.471 83.4069C175.788 83.3909 175.137 83.108 174.659 82.6186C174.181 82.1292 173.914 81.4722 173.914 80.7881Z" fill="#1F1F1F"/>
<path d="M103.905 84.5591C103.917 84.056 104.077 83.5676 104.365 83.1551C104.654 82.7426 105.057 82.4244 105.526 82.2401C105.994 82.0559 106.506 82.0138 106.998 82.1193C107.49 82.2248 107.94 82.4731 108.292 82.8331C108.643 83.1931 108.881 83.6488 108.975 84.1432C109.069 84.6376 109.015 85.1487 108.819 85.6125C108.624 86.0764 108.296 86.4723 107.877 86.7507C107.458 87.0291 106.966 87.1777 106.463 87.1779C105.779 87.1619 105.128 86.879 104.65 86.3896C104.172 85.9002 103.905 85.2432 103.905 84.5591Z" fill="#1F1F1F"/>
<path d="M177.624 67.2927C179.005 67.2835 180.375 67.5477 181.654 68.07C182.933 68.5923 184.096 69.3624 185.076 70.336C186.056 71.3096 186.834 72.4675 187.365 73.743C187.896 75.0185 188.169 76.3863 188.169 77.7679V78.4487C188.09 81.1941 186.944 83.8005 184.974 85.7144C183.004 87.6283 180.366 88.6989 177.619 88.6989C174.873 88.6989 172.235 87.6283 170.265 85.7144C168.295 83.8005 167.149 81.1941 167.07 78.4487V77.7679C167.082 74.9796 168.2 72.31 170.179 70.3458C172.158 68.3816 174.836 67.2834 177.624 67.2927V67.2927Z" stroke="#1F1F1F" stroke-width="2.6" stroke-linecap="round" stroke-linejoin="round"/>
<path d="M107.615 71.2557C108.996 71.2465 110.366 71.5106 111.645 72.0329C112.924 72.5552 114.087 73.3253 115.067 74.299C116.047 75.2726 116.825 76.4305 117.356 77.706C117.886 78.9814 118.16 80.3493 118.16 81.7308V82.4204C118.081 85.1657 116.935 87.7722 114.965 89.6861C112.995 91.6 110.357 92.6706 107.61 92.6706C104.864 92.6706 102.226 91.6 100.256 89.6861C98.2861 87.7722 97.14 85.1657 97.061 82.4204V81.7308C97.061 80.3486 97.3345 78.98 97.8659 77.7039C98.3972 76.4279 99.1758 75.2696 100.157 74.2958C101.138 73.3221 102.302 72.5522 103.582 72.0304C104.862 71.5086 106.233 71.2453 107.615 71.2557V71.2557Z" stroke="#1F1F1F" stroke-width="2.6" stroke-linecap="round" stroke-linejoin="round"/>
<path d="M85.8179 72.7834C109.116 70.3392 121.975 50.4189 121.975 50.4189" stroke="#1F1F1F" stroke-width="7.6" stroke-linecap="round" stroke-linejoin="round"/>
<path d="M199.927 63.0327C171.574 66.0443 152.283 46.578 154.159 48.708" stroke="#1F1F1F" stroke-width="7.6" stroke-linecap="round" stroke-linejoin="round"/>
<path d="M129.342 99.6958C129.342 99.6958 141.642 111.157 157.817 96.9548" stroke="#303032" stroke-width="3" stroke-miterlimit="10" stroke-linecap="round"/>
<path d="M194.096 82.8134C193.869 82.5341 193.476 82.7611 193.528 83.1364C193.91 86.3412 193.637 89.5903 192.725 92.6863C192.106 94.8162 190.377 100.141 194.471 101.162C200.224 102.577 201.455 96.2042 200.267 92.3458C198.827 87.3265 195.562 84.5593 194.096 82.8134Z" fill="#303032"/>
<path d="M83.042 195.753C83.042 195.753 85.8528 204.045 74.6008 212.932C67.661 218.423 53.0132 226.026 43.9348 206.874C34.0707 212.88 25.0185 205.023 25.0185 205.023C25.0185 205.023 15.521 204.011 13.0506 204.011C-2.22565 217.27 1.23116 240.438 9.4105 251.594C35.5372 260.079 69.4156 260.376 71.5804 255.906C71.1701 227.292 95.3677 199.393 95.3677 199.393L83.042 195.753Z" fill="#303032"/>
<path d="M66.9625 285.01C90.6101 292.142 107.414 300.251 161.998 301.796C218.311 303.376 254.398 295.738 269.237 280.2C274.92 267.577 260.648 200.598 258.867 196.992C260.191 196.524 261.404 195.787 262.429 194.828C263.022 159.151 252.049 134.037 228.69 130.397C210.673 131.086 203.602 140.968 196.165 151.05C173.8 168.753 105.651 162.564 101.225 149.872C101.225 148.999 101.059 147.253 100.989 146.275C80.0913 151.513 78.878 190.131 79.8905 193.902C82.038 196.818 90.0776 198.101 90.0776 198.101C90.0776 198.101 92.9059 199.044 90.0776 202.893C69.8606 229.823 64.4659 243.712 66.9625 285.01Z" fill="#1F1F1F"/>
<path d="M269.36 279.292C272.598 245.78 259.697 201.025 259.234 199.402" stroke="#1F1F1F" stroke-width="2.62" stroke-linecap="round" stroke-linejoin="round"/>
<g style="mix-blend-mode:multiply" opacity="0.23">
<path d="M90.3048 202.134C90.3048 202.134 96.0487 214.704 119.792 214.625C131.14 214.625 132.511 214.809 141.921 214.128C150.432 213.525 149.917 218.396 144.086 218.929C131.909 220.046 125.493 218.135 125.493 218.135C125.493 218.135 104.979 214.87 95.3678 216.101C86.0711 217.297 80.7113 220.989 74.1731 227.702C76.9141 219.994 90.3048 202.134 90.3048 202.134Z" fill="#1F1F1F"/>
</g>
<g style="mix-blend-mode:multiply" opacity="0.23">
<path d="M259.522 198.956C259.522 198.956 272.677 238.107 269.342 280.043C265.894 283.761 258.867 288.772 254.415 290.116C257.086 280.147 251.63 236.868 251.63 236.868L259.522 198.956Z" fill="#1F1F1F"/>
</g>
<path d="M109.518 192.549C116.501 192.924 122.856 193.134 129.036 193.57C134.099 193.937 135.426 197.228 135.147 200.292C134.693 204.508 131.987 207.319 127.291 208.707C127.046 208.777 126.793 208.829 126.296 208.943C131.044 211.719 130.983 217.078 133.96 222.037L123.397 221.626C121.783 218.605 120.346 215.492 119.094 212.303C118.448 210.654 117.514 209.432 114.729 209.824C113.756 213.584 113.344 217.467 113.507 221.347C110.234 221.225 107.248 221.129 104.027 221.024C103.46 211.387 107.571 201.837 109.518 192.549ZM117.802 198.773C117.339 200.65 116.842 202.37 116.257 204.447C118.334 204.447 120.316 204.447 122.306 204.299C123.05 204.28 123.768 204.028 124.36 203.578C124.952 203.129 125.388 202.504 125.606 201.793C126.007 200.362 125.327 199.175 123.563 198.983C121.8 198.791 119.836 198.834 117.802 198.773Z" fill="#303032"/>
<path d="M163.098 202.273L154.177 202.509C154.116 200.135 152.815 198.808 150.353 198.686C149.59 198.568 148.809 198.694 148.123 199.047C147.436 199.4 146.878 199.961 146.53 200.65C146.347 202.02 147.263 202.509 148.389 202.832C150.449 203.426 152.562 203.958 154.657 204.578C155.809 204.938 156.935 205.379 158.026 205.896C165.01 209.152 163.264 217.201 157.424 220.841C155.472 222.023 153.302 222.801 151.043 223.128C147.627 223.636 144.14 223.359 140.847 222.316C138.756 221.744 136.953 220.415 135.788 218.587C134.623 216.759 134.18 214.562 134.545 212.426L143.134 212.268C143.23 212.827 143.291 213.351 143.414 213.866C144.086 216.616 147.01 218.065 150.057 217.078C150.695 216.931 151.279 216.608 151.742 216.145C152.205 215.682 152.528 215.098 152.675 214.46C152.768 213.911 152.664 213.347 152.382 212.868C152.099 212.388 151.656 212.025 151.13 211.841C150.179 211.413 149.149 211.125 148.154 210.793C146.093 210.104 143.955 209.571 142.043 208.724C138.368 207.083 137.015 204.36 137.862 201.243C138.402 199.401 139.439 197.742 140.858 196.449C142.278 195.156 144.025 194.278 145.91 193.911C149.773 192.929 153.836 193.065 157.625 194.304C161.649 195.613 163.334 198.092 163.098 202.273Z" fill="#303032"/>
<path d="M201.027 199.786C213.711 253.636 195.981 266.346 167.803 261.763C147.272 258.411 148.599 225.423 148.599 225.423C139.797 234.528 134.569 246.5 133.873 259.145C133.873 259.145 129.761 261.24 122.525 254.396C114.066 268.241 125.606 285.498 132.808 290.387C154.046 304.808 192.333 304.947 226.001 290.116C259.103 275.53 266.732 249.158 264.873 187.434" fill="#303032"/>
<path d="M39.4393 171.852C39.4393 171.852 40.7574 204.447 43.9348 206.891C47.1123 209.336 25.5248 212.923 24.582 203.696C24.8701 191.72 39.4393 171.852 39.4393 171.852Z" fill="#303032"/>
<path d="M149.053 225.458C149.053 225.458 147.761 246.845 158.751 257.39C161.64 260.166 135.706 266.303 134.772 257.076C137.46 237.182 149.053 225.458 149.053 225.458Z" fill="#303032"/>
<path d="M54.7328 232.721C49.9579 239.504 24.5819 249.953 15.8351 250.869C12.3434 246.348 7.64705 222.202 20.0426 211.186C26.0309 219.034 44.8425 229.125 54.7328 232.721Z" fill="#303032"/>
<path d="M121.94 254.85C127.588 250.669 132.921 253.689 134.004 253.043C134.405 256.753 134.126 258.708 133.401 260.568C129.901 260.568 127.011 259.031 121.94 254.85Z" fill="#303032"/>
<path d="M197.474 149.811C197.474 149.811 184.214 161.159 155.958 162.302C127.701 163.446 104.254 155.188 101.757 151.155C99.2609 147.122 95.516 163.62 102.142 166.719C108.47 169.678 128.46 177.901 157.93 173.964" stroke="#303032" stroke-width="2.62" stroke-linecap="round" stroke-linejoin="round"/>
<path d="M102.089 145.917C81.0255 149.592 79.5764 185.592 80.039 194.67C80.0827 195.596 82.5356 196.879 82.5356 196.879C82.5356 196.879 85.1544 204.622 73.1691 214.137C61.1838 223.651 46.9289 216.581 44.3625 208.227C41.7961 199.873 37.1521 179.246 39.7447 172.908C42.3373 166.571 24.032 186.875 25.0446 205.058L12.9458 202.893C12.9458 202.893 -9.15675 223.521 9.45408 251.629C9.45408 251.629 30.7012 262.235 66.4389 257.477" stroke="#1F1F1F" stroke-width="2.62" stroke-linecap="round" stroke-linejoin="round"/>
<path d="M66.8141 284.198C62.3535 264.871 68.56 226.253 90.034 202.893C91.1863 176.802 102.089 166.466 102.089 166.466" stroke="#1F1F1F" stroke-width="2.62" stroke-linecap="round" stroke-linejoin="round"/>
<path d="M13.0505 204.046C13.0505 204.046 39.1423 230.714 52.8386 231.29C66.5348 231.866 16.0097 254.536 9.4104 251.629" stroke="#1F1F1F" stroke-width="2.62" stroke-linecap="round" stroke-linejoin="round"/>
<path d="M18.9602 211.186C18.9602 211.186 5.70043 230.565 15.9922 251.192" stroke="#1F1F1F" stroke-width="2.62" stroke-linecap="round" stroke-linejoin="round"/>
<path d="M12.9197 229.561C14.9274 230.714 32.2987 239.504 55.1781 232.582" stroke="#1F1F1F" stroke-width="2.62" stroke-linecap="round" stroke-linejoin="round"/>
<path d="M24.9834 204.046C24.9834 204.046 24.9834 213.22 44.3362 208.227" stroke="#1F1F1F" stroke-width="2.62" stroke-linecap="round" stroke-linejoin="round"/>
<path d="M202.074 205.695C210.35 244.541 203.043 261.633 178.034 262.156C145.029 262.855 149.227 225.642 149.227 225.642C140.319 234.606 135.007 246.527 134.3 259.145C134.3 259.145 129.761 261.126 122.559 254.283C120.7 258.35 116.449 269.166 126.784 283.761C140.42 302.966 189.007 305.943 219.481 293.364C263.127 275.312 266.662 239.757 265.336 193.85" stroke="#1F1F1F" stroke-width="2.62" stroke-linecap="round" stroke-linejoin="round"/>
<path d="M123.354 253.68C123.354 253.68 127.587 250.573 133.951 252.519" stroke="#1F1F1F" stroke-width="2.62" stroke-linecap="round" stroke-linejoin="round"/>
<path d="M134.859 259.537C135.147 259.537 146.12 267.132 158.969 257.739" stroke="#1F1F1F" stroke-width="2.62" stroke-linecap="round" stroke-linejoin="round"/>
<path d="M230.96 195.072C239.314 193.178 244.359 192.523 265.178 193.326C275.112 191.161 267.046 131.968 228.795 130.222C201.018 133.888 193.878 155.327 193.537 167.932C193.319 176.269 198.513 204.499 198.513 204.499C198.513 204.499 199.299 207.651 203.183 205.433C213.021 199.829 223.732 196.713 230.96 195.072Z" fill="#1F1F1F"/>
<path d="M265.336 193.771C265.336 193.771 268.504 192.235 268.6 190.541C269.098 181.899 269.185 154.35 251.718 139.283C226.569 117.608 201.21 139.527 195.641 154.42C190.63 167.793 197.85 201.462 198.26 203.766C198.67 206.071 202.101 205.695 202.101 205.695" stroke="#303032" stroke-width="2.62" stroke-linecap="round" stroke-linejoin="round"/>
<path d="M208.019 192.217C207.661 192.427 230.122 179.595 268.731 182.86" stroke="#303032" stroke-width="2.62" stroke-linecap="round" stroke-linejoin="round"/>
<path d="M106.244 154.271C105.61 156.514 105.61 158.889 106.244 161.132" stroke="#303032" stroke-width="2.62" stroke-linecap="round" stroke-linejoin="round"/>
<path d="M111.176 156.506C111.176 156.506 110.26 160.87 111.753 164.476" stroke="#303032" stroke-width="2.62" stroke-linecap="round" stroke-linejoin="round"/>
<path d="M152.117 162.957C151.911 164.142 152.079 165.362 152.597 166.448" stroke="#303032" stroke-width="2.62" stroke-linecap="round" stroke-linejoin="round"/>
<path d="M156.534 162.957C156.533 164.639 156.859 166.305 157.494 167.863" stroke="#303032" stroke-width="2.62" stroke-linecap="round" stroke-linejoin="round"/>
<path d="M132.712 161.586C132.624 163.223 132.753 164.864 133.096 166.466" stroke="#303032" stroke-width="2.62" stroke-linecap="round" stroke-linejoin="round"/>
<g style="mix-blend-mode:multiply" opacity="0.23">
<path d="M228.804 130.24C245.389 136.725 249.675 152.936 251.631 158.924C254.799 168.596 260.517 191.266 254.747 226.663C248.977 262.06 231.894 289.811 192.621 293.276C173.015 295.022 131.882 293.023 120.918 258.796C116.362 278.428 135.104 297.719 156.193 299.282C182.381 301.211 185.463 304.432 219.481 293.329C273.602 265.648 263.197 238.43 264.873 193.3C274.676 191.004 266.662 132.369 228.804 130.24Z" fill="#1F1F1F"/>
</g>
<g style="mix-blend-mode:multiply" opacity="0.23">
<path d="M28.0301 247.255C28.0301 247.255 54.2179 250.057 68.0713 247.674C67.1373 251.166 66.3254 254.658 66.6746 257.233C42.9048 262.139 11.2874 252.292 11.2874 252.292L28.0301 247.255Z" fill="#1F1F1F"/>
</g>
<path d="M139.686 94.7288L141.048 103.441" stroke="#303032" stroke-width="3" stroke-miterlimit="10" stroke-linecap="round"/>
<path d="M225.853 186.482C225.853 186.482 227.677 187.093 227.258 191.903" stroke="#303032" stroke-width="2.62" stroke-linecap="round" stroke-linejoin="round"/>
<path d="M229.947 185.548C229.947 185.548 231.772 186.159 231.353 190.969" stroke="#303032" stroke-width="2.62" stroke-linecap="round" stroke-linejoin="round"/>
<path d="M246.044 182.833C246.044 182.833 247.868 183.444 247.441 188.254" stroke="#303032" stroke-width="2.62" stroke-linecap="round" stroke-linejoin="round"/>
<g style="mix-blend-mode:multiply" opacity="0.23">
<path d="M237.253 217.043V226.707" stroke="#1F1F1F" stroke-width="4" stroke-miterlimit="10" stroke-linecap="round"/>
</g>
<g style="mix-blend-mode:multiply" opacity="0.23">
<path d="M243.8 219.915L243.111 229.552" stroke="#1F1F1F" stroke-width="4" stroke-miterlimit="10" stroke-linecap="round"/>
</g>
<g style="mix-blend-mode:multiply" opacity="0.23">
<path d="M113.027 140.906L114.773 148.763" stroke="#1F1F1F" stroke-width="4" stroke-miterlimit="10" stroke-linecap="round"/>
</g>
<g style="mix-blend-mode:multiply" opacity="0.23">
<path d="M119.81 142.888L121.59 150.893" stroke="#1F1F1F" stroke-width="4" stroke-miterlimit="10" stroke-linecap="round"/>
</g>
<g style="mix-blend-mode:multiply" opacity="0.23">
<path d="M126.784 144.782L128.556 152.726" stroke="#1F1F1F" stroke-width="4" stroke-miterlimit="10" stroke-linecap="round"/>
</g>
<path d="M199.386 93.2012C199.12 94.5981 198.649 95.9482 197.989 97.2079C197.175 98.3048 196.045 99.1271 194.75 99.5648C195.533 99.7624 196.359 99.6917 197.097 99.3641C197.834 99.0365 198.44 98.4709 198.818 97.7579C199.717 96.1779 199.386 93.2012 199.386 93.2012Z" fill="#303032"/>
</svg>
