<svg width="14" height="15" viewBox="0 0 14 15" fill="none" xmlns="http://www.w3.org/2000/svg">
  <g clip-path="url(#clip0_102_11326)">
    <path d="M10.8881 8.35485C10.8881 7.14358 11.5352 6.10801 12.4536 5.67235C12.1979 5.33811 11.8551 5.02387 11.3938 4.69534C10.7967 4.26968 9.47402 4.22112 8.60699 4.44252C7.94851 4.60964 7.38715 4.93245 7.08719 4.94674C6.8158 4.96102 6.23302 4.59821 5.5674 4.44252C4.76465 4.25397 3.88905 4.35967 3.2877 4.69534C1.53936 5.67235 1.2594 6.67079 1.2594 8.73337C1.2594 11.1102 2.12071 13.1256 4.04617 14.5397C4.46897 14.8497 5.22887 15.0325 5.82022 14.7926C6.32872 14.5854 6.60012 14.3326 7.08719 14.2883C7.79853 14.2241 8.12991 14.4626 8.47272 14.6754C8.78411 14.8683 9.50259 15.024 9.87397 14.794C11.1752 13.9884 12.1994 12.6714 12.7407 11.1516C11.6723 10.8088 10.8881 9.68753 10.8881 8.35485ZM9.36689 2.92843C9.88396 2.11711 9.88539 0.904418 9.87397 0.908703C9.65971 0.980122 8.93695 0.811573 7.84709 1.66574C7.46714 1.96428 7.00006 2.69846 6.83294 3.17983C6.70582 3.54549 6.58155 4.44109 6.57869 4.44252C6.56583 4.44394 7.41429 4.39681 7.84566 4.18969C8.28846 3.97829 9.03265 3.45408 9.36689 2.92843Z" fill="black" />
  </g>
  <defs>
    <clipPath id="clip0_102_11326">
      <rect width="14" height="14" fill="white" transform="translate(0 0.908691)" />
    </clipPath>
  </defs>
</svg>
  