<svg width="14" height="15" viewBox="0 0 14 15" fill="none" xmlns="http://www.w3.org/2000/svg">
  <g clip-path="url(#clip0_128_11532)">
    <path d="M1.96701 13.4422L0.95459 0.932129L13.0455 0.957269L11.975 13.4422L7.04567 14.8853L1.96701 13.4422Z" fill="#979797" />
    <path d="M7.04565 13.6772V2.12354L12.0248 2.14029L11.1369 12.4773L7.04565 13.6772Z" fill="#CBCBCB" />
    <path d="M6.51251 3.49512H5.19616V11.1849L4.17233 10.9878V9.95259L2.95349 9.75542V12.0722L6.51251 13.0088V3.49512ZM7.49996 3.49512H11.1441L10.9003 4.969H8.8911V7.38765H10.9003L10.6566 12.2694L7.49996 13.0088V11.4807L9.63274 10.7413L9.75589 8.72025L7.49996 9.05052V3.49512Z" fill="white" />
  </g>
  <defs>
    <clipPath id="clip0_128_11532">
      <rect width="14" height="14" fill="white" transform="translate(0 0.908691)" />
    </clipPath>
  </defs>
</svg>
  