<svg width="14" height="15" viewBox="0 0 14 15" fill="none" xmlns="http://www.w3.org/2000/svg">
  <g clip-path="url(#clip0_97_11298)">
    <path d="M6.43448 1.16749C6.77701 0.971956 7.22315 0.971072 7.56538 1.16749C9.28713 2.13775 11.0094 3.10649 12.7309 4.07734C13.0547 4.25923 13.2712 4.61861 13.2679 4.99068V10.8281C13.2703 11.2156 13.0324 11.5836 12.6908 11.7614C10.9747 12.7263 9.25948 13.6924 7.54369 14.6573C7.19407 14.8566 6.73897 14.8413 6.40028 14.6256C5.8858 14.3281 5.37043 14.0322 4.8559 13.735C4.75076 13.6725 4.63224 13.6227 4.558 13.5211C4.62363 13.4328 4.74097 13.4219 4.83632 13.3833C5.05108 13.3152 5.24832 13.2059 5.44561 13.0998C5.4955 13.0658 5.55641 13.0788 5.60423 13.1093C6.04417 13.3609 6.48023 13.6197 6.92165 13.8689C7.01582 13.9231 7.11117 13.8512 7.19166 13.8064C8.87567 12.8572 10.5618 11.9116 12.2455 10.9621C12.3079 10.9321 12.3423 10.8661 12.3373 10.7979C12.3385 8.87227 12.3376 6.94627 12.3379 5.02062C12.345 4.94329 12.3001 4.87219 12.23 4.84054C10.5199 3.88004 8.81063 2.91807 7.10079 1.95733C7.07117 1.93702 7.03607 1.92612 7.00012 1.92607C6.96417 1.92602 6.92905 1.93681 6.89937 1.95704C5.18953 2.91807 3.48057 3.88092 1.77073 4.84137C1.70087 4.87307 1.65398 4.94299 1.66229 5.02062C1.66259 6.94627 1.66229 8.87227 1.66229 10.7982C1.65933 10.8315 1.66665 10.8648 1.68328 10.8938C1.6999 10.9228 1.72503 10.946 1.75528 10.9603C2.21156 11.2183 2.66843 11.4746 3.125 11.7317C3.38222 11.8698 3.69803 11.9518 3.98142 11.8461C4.23151 11.7566 4.40681 11.5021 4.40203 11.2373C4.40439 9.32286 4.40085 7.40814 4.4038 5.49402C4.39756 5.40903 4.47839 5.33882 4.56124 5.34682C4.78048 5.34534 5.00001 5.34387 5.21924 5.3474C5.31075 5.34534 5.37373 5.43686 5.36241 5.52248C5.36153 7.44902 5.36477 9.3756 5.36094 11.3021C5.36153 11.8156 5.15002 12.3743 4.67381 12.6255C4.08715 12.9286 3.36205 12.8643 2.78247 12.5737C2.28073 12.3239 1.80192 12.0292 1.30909 11.7616C0.966608 11.5848 0.729809 11.2154 0.73222 10.8282V4.99068C0.728628 4.6109 0.953816 4.24501 1.28769 4.06576C3.00348 3.10006 4.71898 2.13363 6.43448 1.16749Z" fill="#8CC84B" />
    <path d="M7.93127 5.21141C8.6796 5.16337 9.48072 5.18295 10.1541 5.55061C10.6755 5.83236 10.9645 6.42367 10.9737 7.00134C10.9592 7.07926 10.8775 7.12225 10.8029 7.1169C10.5858 7.1166 10.3686 7.11984 10.1515 7.11543C10.0594 7.11896 10.0059 7.03427 9.99432 6.95306C9.93193 6.67666 9.78079 6.40292 9.51993 6.2696C9.1195 6.06965 8.6552 6.07971 8.21855 6.08388C7.89978 6.10076 7.55701 6.12829 7.28695 6.31523C7.07962 6.45684 7.01665 6.74271 7.09064 6.97293C7.16041 7.13824 7.35175 7.19158 7.5083 7.24074C8.41013 7.47597 9.36579 7.45257 10.2504 7.76214C10.6166 7.88834 10.9749 8.13367 11.1003 8.51611C11.2643 9.02867 11.1924 9.64132 10.8267 10.0528C10.5302 10.3914 10.0983 10.5757 9.66758 10.6758C9.09455 10.8032 8.49987 10.8065 7.91794 10.7499C7.37074 10.6877 6.8013 10.5443 6.37887 10.1725C6.01765 9.85967 5.84122 9.37229 5.85873 8.90188C5.86291 8.82243 5.94222 8.76704 6.01853 8.77356C6.23718 8.7718 6.45582 8.77121 6.67446 8.77386C6.76179 8.76763 6.82654 8.8429 6.83102 8.92499C6.87136 9.18833 6.9706 9.46473 7.20085 9.62086C7.64523 9.90678 8.20281 9.8872 8.71163 9.8952C9.13317 9.87655 9.60638 9.87091 9.95038 9.59304C10.1319 9.43455 10.1857 9.16939 10.1366 8.94128C10.0835 8.74869 9.88145 8.65894 9.70798 8.60026C8.81771 8.31939 7.85137 8.42131 6.96971 8.10369C6.61178 7.97754 6.26566 7.73902 6.12815 7.37229C5.93627 6.85326 6.02419 6.21126 6.42817 5.81366C6.82206 5.41818 7.39066 5.26588 7.93127 5.21136V5.21141Z" fill="#8CC84B" />
  </g>
  <defs>
    <clipPath id="clip0_97_11298">
      <rect width="14" height="14" fill="white" transform="translate(0 0.908691)" />
    </clipPath>
  </defs>
</svg>
  