<svg width="790" height="1024" viewBox="0 0 790 1024" fill="none" xmlns="http://www.w3.org/2000/svg">
<path d="M542.811 888.694C537.604 899.109 523.608 962.251 523.934 961.601C548.344 937.515 607.581 932.308 623.854 932.308C633.619 932.308 698.714 936.864 689.926 958.997C682.44 977.874 601.722 951.511 601.722 952.813C601.722 955.417 655.425 973.969 650.543 998.379C646.638 1017.58 571.127 967.785 572.104 969.737C579.59 984.709 612.137 996.101 606.604 1018.88C604 1029.3 583.496 1021.49 578.288 1018.88C569.5 1014.33 519.052 996.426 501.15 986.988C483.9 978.2 505.707 916.685 506.684 911.803" fill="#FDFDFF"/>
<path d="M542.811 888.694C537.604 899.109 523.608 962.251 523.934 961.601C548.344 937.515 607.581 932.308 623.854 932.308C633.619 932.308 698.714 936.864 689.926 958.997C682.44 977.874 601.722 951.511 601.722 952.813C601.722 955.417 655.425 973.969 650.543 998.379C646.638 1017.58 571.127 967.785 572.104 969.737C579.59 984.709 612.137 996.101 606.604 1018.88C604 1029.3 583.496 1021.49 578.288 1018.88C569.5 1014.33 519.052 996.426 501.15 986.988C483.9 978.2 505.707 916.685 506.683 911.803" stroke="#DCDBE1" stroke-width="8.52744" stroke-miterlimit="10" stroke-linecap="round" stroke-linejoin="round"/>
<path d="M269.74 963.879C293.825 973.643 317.585 970.388 338.74 988.29C342.321 991.219 354.038 1001.63 352.41 1006.84C349.807 1015.63 330.604 1013.35 323.769 1013.68C297.405 1014.33 269.414 1013.68 243.051 1014.33C238.169 1014.33 213.758 1021.16 213.107 1014.33C211.154 997.403 239.471 984.058 247.933 975.271" fill="#FDFDFF"/>
<path d="M426.293 683.32C426.618 682.669 427.269 682.018 427.595 681.367L426.293 683.32Z" fill="#FDFDFF"/>
<path d="M604.978 91.6066C612.789 91.6066 632.969 130.989 637.525 139.126C671.375 198.362 659.007 267.688 631.992 327.25C625.157 342.548 628.087 347.104 621.252 361.425C617.997 367.935 606.605 383.232 606.605 390.067C606.605 391.694 606.605 394.624 606.605 394.624C606.605 394.624 608.884 383.232 611.162 378.35C611.813 376.722 615.068 373.793 613.44 373.793C612.464 373.793 611.487 376.397 611.162 377.048C603.676 395.926 612.138 419.685 607.256 439.214C604.001 452.884 577.963 469.157 563.643 472.738C509.614 486.082 455.259 472.087 401.231 472.087C387.561 472.087 348.829 476.318 337.438 465.252C327.999 455.813 311.725 491.615 303.914 480.874C293.499 466.228 280.48 443.77 263.88 436.935C246.63 430.1 235.239 413.176 217.988 417.407C213.757 418.383 183.488 400.482 179.257 396.251C172.096 389.091 177.955 369.888 179.582 361.1C184.465 337.34 182.837 302.514 187.394 279.406C190.648 263.783 196.507 248.811 202.04 233.514C225.149 173.952 257.371 125.131 308.47 88.0264C321.164 78.5876 342.645 62.3139 357.292 54.828C371.612 47.6675 387.235 47.993 401.556 40.8326C420.108 31.3938 440.613 19.3512 460.467 14.4691C465.675 13.1672 458.514 21.955 458.84 22.9315C459.491 24.2334 471.859 23.9079 473.486 23.5824C490.085 20.3277 507.335 20.6531 523.284 13.4927C525.888 12.1908 535.652 2.42655 538.907 3.40297C548.345 6.65772 534.35 33.0212 534.35 33.0212C534.35 33.0212 535.652 30.7429 536.628 29.7664C541.185 26.1862 551.6 23.2569 557.459 21.955C570.152 19.3512 575.36 27.4881 586.1 29.7664C587.402 30.0919 600.096 33.3466 600.096 33.6721C600.096 36.2759 579.916 39.5307 579.916 42.1345C579.916 44.4128 584.473 43.4364 585.449 43.7618C592.284 44.4128 626.134 58.7337 623.53 66.2196C622.554 69.4743 604.652 69.4743 601.072 71.7527C600.096 72.4036 597.817 72.4036 597.817 72.4036C597.817 72.4036 611.813 74.6819 618.648 76.3093C627.436 78.2622 645.011 97.7906 629.714 97.7906" fill="#FDFDFF"/>
<path d="M110.581 757.528C113.51 758.504 148.662 836.293 149.963 847.033C152.567 868.189 143.454 894.227 140.85 915.058C138.246 935.563 125.553 961.6 117.091 980.803C114.161 987.313 114.487 1001.63 116.114 1008.79C119.369 1021.81 197.157 1021.49 207.898 1017.26C207.898 1017.26 231.983 987.313 239.795 981.454C246.304 976.572 241.422 975.596 256.719 969.086C266.158 965.181 277.875 965.181 286.663 956.067C295.125 947.605 299.682 928.728 308.795 922.544C317.908 916.685 324.743 920.916 353.711 927.1C382.678 933.284 404.159 931.982 432.15 924.822C437.032 923.52 547.368 913.756 585.123 871.119C592.284 862.982 620.925 841.175 618.973 849.637C617.02 858.1 634.921 837.92 634.921 813.835C634.921 809.929 649.567 820.344 647.289 818.392C642.407 814.811 662.586 773.151 656.728 773.151C637.199 773.151 605.628 772.825 586.425 778.358C573.732 781.938 550.948 692.758 537.604 694.06C516.773 696.013 485.853 723.353 465.023 724.98C444.844 726.608 418.48 771.849 416.527 746.787C414.574 721.726 407.088 752.646 404.485 750.042C403.508 749.065 363.8 707.73 364.126 702.848" fill="#FDFDFF"/>
<path d="M155.822 799.84C156.799 802.118 139.549 801.142 139.223 801.142C125.553 805.698 137.27 811.882 141.501 826.203" fill="#FDFDFF"/>
<path d="M606.93 448.652C607.581 440.516 625.482 462.648 619.949 470.134C617.671 473.388 613.765 475.341 611.487 478.596C610.51 480.223 613.114 482.176 613.765 483.153C623.529 496.172 630.039 511.144 635.897 525.79C642.407 541.738 646.313 556.059 648.916 572.984C650.544 583.724 642.081 594.791 644.36 604.229C650.869 629.942 658.03 624.083 682.766 676.159C690.577 692.433 703.596 710.009 708.804 720.749C714.011 731.49 717.917 752.971 714.662 754.273C673.327 768.269 574.057 802.443 481.622 811.882C346.55 825.878 167.214 824.576 77.3828 794.632C49.0665 785.193 92.6801 666.72 113.185 582.097C125.228 532.299 140.199 500.403 155.822 443.77C161.355 423.916 166.563 388.765 186.091 400.157C260.625 443.445 249.233 415.128 266.158 437.912C271.691 445.072 321.163 448.001 328.649 452.884C331.904 455.162 344.923 454.511 349.154 455.162C370.31 459.393 397.975 463.624 419.131 467.855C464.698 476.969 494.641 468.181 539.882 459.068C547.368 457.44 564.618 459.393 571.779 458.417C580.567 457.115 588.053 456.789 596.84 454.511C607.256 452.233 606.605 449.629 606.93 448.652Z" fill="#DCDBE1"/>
<path d="M641.756 212.358C635.246 185.994 618.972 156.051 595.213 151.494C567.222 146.286 544.113 168.744 517.099 167.768C512.217 167.442 502.452 164.513 499.523 160.282C496.594 156.051 499.523 150.518 499.523 150.518C495.292 151.819 491.061 158.003 485.853 159.305C465.674 165.164 444.843 147.263 426.291 141.73C365.428 123.178 317.583 130.013 285.361 188.924C278.2 202.268 266.809 232.537 274.62 266.387C285.686 315.533 291.545 336.364 344.923 373.142C408.39 417.081 539.882 438.888 605.628 355.892C636.223 316.835 654.124 261.83 641.756 212.358Z" fill="#FDFDFF"/>
<path d="M586.425 809.929V828.156" stroke="#DCDBE1" stroke-width="12.5959" stroke-miterlimit="10" stroke-linecap="round" stroke-linejoin="round"/>
<path d="M566.57 820.996V839.222" stroke="#DCDBE1" stroke-width="12.5959" stroke-miterlimit="10" stroke-linecap="round" stroke-linejoin="round"/>
<path d="M547.693 833.038V851.265" stroke="#DCDBE1" stroke-width="12.5959" stroke-miterlimit="10" stroke-linecap="round" stroke-linejoin="round"/>
<path d="M577.312 409.595L577.638 427.822" stroke="#DCDBE1" stroke-width="12.5959" stroke-miterlimit="10" stroke-linecap="round" stroke-linejoin="round"/>
<path d="M559.411 419.034V437.261" stroke="#DCDBE1" stroke-width="12.5959" stroke-miterlimit="10" stroke-linecap="round" stroke-linejoin="round"/>
<path opacity="0.23" d="M644.683 97.1396C631.664 97.1396 620.272 93.5594 607.578 90.6301C603.998 89.6537 596.838 85.748 596.838 89.6537C596.838 90.3047 598.465 90.3047 599.116 90.6301C610.182 97.1396 618.97 106.578 625.154 117.97C627.432 121.876 633.291 132.616 631.664 130.013C581.866 39.8561 219.287 6.00671 240.117 372.166C240.443 375.421 241.745 415.454 245.976 428.147C248.254 434.657 226.773 413.827 218.636 417.081C215.056 418.383 186.089 396.902 183.485 395.274C178.928 392.02 182.183 374.77 181.207 369.237C162.655 245.882 305.212 80.5404 317.581 73.7055C364.449 47.6675 460.464 18.7002 462.742 18.0493C463.068 18.0493 471.53 23.2569 475.761 22.2805C491.384 19.6767 508.96 13.8181 524.908 9.26146C527.186 8.28504 541.833 -3.10658 542.158 -2.13015C543.785 1.45007 545.087 21.304 543.135 23.9078C541.833 25.8607 534.021 22.9314 536.625 22.9314C556.804 22.9314 582.517 29.4409 604.324 33.6721C604.975 33.6721 606.602 33.9975 606.602 34.6485C606.602 40.8325 578.286 36.9268 578.286 41.158C578.286 44.4127 617.668 55.4789 622.876 59.71C624.503 61.0119 631.013 65.8941 629.385 67.196C624.178 72.4036 611.159 65.8941 604.324 69.4743" fill="#DCDBE1"/>
<path opacity="0.23" d="M268.111 824.25C196.507 824.576 166.563 991.87 175.026 991.219C275.923 983.407 337.438 1005.87 337.438 1009.77C337.438 1013.03 319.862 1012.37 316.607 1013.03C296.428 1018.23 244.352 1017.26 223.847 1015.95C185.441 1013.68 175.026 1017.26 136.62 1017.26C131.737 1017.26 126.204 1017.58 122.299 1014.98C106.35 1004.24 136.945 953.789 138.898 937.841C142.153 912.454 148.011 868.189 144.431 843.128C143.455 835.316 135.318 824.25 136.62 816.439C139.874 800.165 272.668 824.25 268.111 824.25Z" fill="#DCDBE1"/>
<path opacity="0.23" d="M663.887 644.914C668.118 654.352 649.892 623.107 643.708 619.201C630.363 610.739 534.674 624.734 520.027 624.734C481.947 624.734 369.007 653.05 332.228 641.984C322.139 639.055 285.035 629.616 293.822 600.975C298.704 585.026 328.323 584.05 337.761 584.05C376.818 584.05 528.815 617.248 566.57 610.739C575.684 609.111 635.571 602.276 643.057 588.281C645.01 584.701 651.845 613.994 653.146 616.272C662.26 630.267 656.401 628.965 663.887 644.914Z" fill="#FDFDFF"/>
<path opacity="0.23" d="M277.547 910.176C280.802 906.595 239.467 876.652 249.882 879.906C503.752 961.275 606.602 846.057 609.206 849.963C610.183 851.265 595.211 862.982 594.234 864.284C577.961 882.185 562.338 891.298 540.531 902.364C422.384 961.601 273.642 914.732 277.547 910.176Z" fill="#DCDBE1"/>
<path d="M600.095 87.7009C615.067 97.4652 623.855 113.739 633.619 127.734C682.44 196.735 656.728 284.288 621.902 353.614C618.973 359.798 614.416 366.633 613.44 373.468C613.114 377.048 615.067 382.581 613.44 385.836C612.789 387.138 609.86 382.581 609.534 383.883C608.883 390.392 609.534 397.553 610.185 403.737C610.511 406.015 613.114 412.525 611.487 410.897C610.836 410.246 609.209 405.039 606.93 405.69C605.628 406.015 606.93 440.19 607.581 443.77" stroke="#DCDBE1" stroke-width="8.52744" stroke-miterlimit="10" stroke-linecap="round" stroke-linejoin="round"/>
<path d="M604.651 89.6539C611.812 93.2341 616.694 93.2341 623.854 95.5125C627.434 96.4889 630.364 97.7908 634.269 98.7672C637.85 99.4182 641.43 99.7436 644.685 100.72C646.312 101.046 649.241 103.649 649.241 102.022C649.241 97.1398 610.184 75.333 602.698 73.0547C601.722 72.7292 599.769 72.7292 599.444 71.7528C598.793 70.1254 602.373 70.1254 604 69.8C611.486 67.8471 629.062 73.7057 634.92 69.149C636.548 67.8471 623.529 60.0357 622.552 59.3848C614.415 54.8281 606.279 48.9696 597.491 46.3658C592.283 44.7384 581.217 48.6441 581.217 43.111C581.217 36.6015 610.51 38.8799 612.788 36.6015C613.114 36.2761 611.812 36.2761 611.486 35.9506C604.977 32.6959 597.491 29.7666 590.33 28.1392C576.986 24.8845 553.226 21.9552 539.882 26.1864" stroke="#DCDBE1" stroke-width="8.52744" stroke-miterlimit="10" stroke-linecap="round" stroke-linejoin="round"/>
<path d="M537.928 29.7663C541.834 22.2804 548.669 9.58689 545.088 0.799076C544.763 0.473601 541.834 -2.78115 541.183 -2.45567C538.579 -1.15377 536.626 3.40288 533.371 5.35572C520.678 12.1907 506.357 17.0728 492.036 20.3276C483.574 22.2804 475.111 22.9314 466.974 24.8842C465.022 25.2097 461.116 25.5352 461.116 25.5352C461.116 25.5352 472.508 15.4454 468.276 13.1671C467.625 12.8416 435.078 24.8842 432.149 26.1861C409.04 35.2994 385.606 40.507 363.474 51.2477" stroke="#DCDBE1" stroke-width="8.52744" stroke-miterlimit="10" stroke-linecap="round" stroke-linejoin="round"/>
<path d="M656.402 777.056C659.657 795.934 644.359 820.67 644.359 820.67C644.359 820.67 639.477 806.024 637.199 809.929C634.595 814.486 623.855 854.519 616.694 852.241C616.369 852.241 616.694 841.5 616.043 842.151C613.439 843.453 599.119 862.656 594.236 866.237C576.661 879.581 555.83 890.647 535.651 899.435C460.466 932.308 348.828 945.327 273.969 907.897" stroke="#DCDBE1" stroke-width="8.52744" stroke-miterlimit="10" stroke-linecap="round" stroke-linejoin="round"/>
<path d="M310.095 922.869C301.632 941.421 288.939 958.02 269.085 964.53" stroke="#DCDBE1" stroke-width="8.52744" stroke-miterlimit="10" stroke-linecap="round" stroke-linejoin="round"/>
<path d="M132.713 809.604C167.213 872.746 141.826 916.685 126.855 962.577C122.298 976.247 102.769 1009.12 125.878 1015.3" stroke="#DCDBE1" stroke-width="8.52744" stroke-miterlimit="10" stroke-linecap="round" stroke-linejoin="round"/>
<path d="M271.039 962.902C327.021 972.667 348.502 992.195 361.847 1008.79" stroke="#DCDBE1" stroke-width="8.52744" stroke-miterlimit="10" stroke-linecap="round" stroke-linejoin="round"/>
<path d="M400.577 35.9504C238.491 89.6538 174.372 268.014 177.301 392.671" stroke="#DCDBE1" stroke-width="8.52744" stroke-miterlimit="10" stroke-linecap="round" stroke-linejoin="round"/>
<path d="M274.945 961.601C249.884 971.69 223.846 989.917 211.803 1013.68" stroke="#DCDBE1" stroke-width="8.52744" stroke-miterlimit="10" stroke-linecap="round" stroke-linejoin="round"/>
<path d="M355.991 1009.12C332.232 997.077 303.264 988.615 274.623 985.035C262.254 983.407 249.886 983.082 237.844 983.407" stroke="#DCDBE1" stroke-width="8.52744" stroke-miterlimit="10" stroke-linecap="round" stroke-linejoin="round"/>
<path d="M606.278 449.629C479.994 486.082 311.398 474.039 180.232 395.926" stroke="#DCDBE1" stroke-width="8.52744" stroke-miterlimit="10" stroke-linecap="round" stroke-linejoin="round"/>
<path d="M606.28 449.954C604.978 441.818 615.068 456.464 617.021 460.695C619.95 466.879 613.766 472.087 613.766 475.341C614.091 478.922 619.95 487.384 621.577 491.615C632.969 522.21 660.309 561.592 643.384 594.465" stroke="#DCDBE1" stroke-width="8.52744" stroke-miterlimit="10" stroke-linecap="round" stroke-linejoin="round"/>
<path d="M711.406 755.575C510.914 846.057 129.783 826.854 73.1502 792.679" stroke="#DCDBE1" stroke-width="8.52744" stroke-miterlimit="10" stroke-linecap="round" stroke-linejoin="round"/>
<path d="M712.059 755.25C730.937 739.627 646.964 610.088 642.408 595.767" stroke="#DCDBE1" stroke-width="8.52744" stroke-miterlimit="10" stroke-linecap="round" stroke-linejoin="round"/>
<path d="M176.979 394.624C175.027 398.204 162.984 410.572 164.937 423.265C152.894 461.02 66.969 712.938 66.6435 772.5C66.6435 785.193 67.2945 789.75 75.1059 793.981" stroke="#DCDBE1" stroke-width="8.52744" stroke-miterlimit="10" stroke-linecap="round" stroke-linejoin="round"/>
<path d="M572.105 218.542C594.238 207.476 612.139 263.457 610.511 279.406C604.327 334.411 523.935 331.482 486.506 312.93C432.477 285.915 498.548 199.339 536.954 214.636" fill="#DCDBE1"/>
<path d="M585.448 218.542C585.774 210.079 569.5 202.593 548.995 201.617C528.49 200.641 511.24 206.499 510.915 214.961C510.589 223.424 526.863 230.91 547.368 231.886C568.198 232.863 585.123 227.004 585.448 218.542Z" fill="#FDFDFF"/>
<path d="M548.02 234.49C548.02 265.736 530.444 228.957 506.033 240.999" stroke="#FDFDFF" stroke-width="9.92698" stroke-miterlimit="10" stroke-linecap="round" stroke-linejoin="round"/>
<path d="M356.966 488.035C474.463 506.912 583.171 492.591 612.464 473.063" stroke="#FDFDFF" stroke-width="8.52744" stroke-miterlimit="10" stroke-linecap="round" stroke-linejoin="round"/>
<path d="M164.283 420.011C173.722 428.148 225.147 459.068 267.459 467.205" stroke="#FDFDFF" stroke-width="8.52744" stroke-miterlimit="10" stroke-linecap="round" stroke-linejoin="round"/>
<path d="M586.752 456.138C588.379 461.346 590.332 465.251 590.332 471.11" stroke="#FDFDFF" stroke-width="8.52744" stroke-miterlimit="10" stroke-linecap="round" stroke-linejoin="round"/>
<path d="M554.528 462.648C556.806 467.53 557.457 473.714 557.457 479.247" stroke="#FDFDFF" stroke-width="8.52744" stroke-miterlimit="10" stroke-linecap="round" stroke-linejoin="round"/>
<path d="M246.304 429.124C244.025 434.006 243.374 440.19 243.374 445.723" stroke="#FDFDFF" stroke-width="8.52744" stroke-miterlimit="10" stroke-linecap="round" stroke-linejoin="round"/>
<path d="M233.286 422.615C231.008 427.497 230.357 433.681 230.357 439.214" stroke="#FDFDFF" stroke-width="8.52744" stroke-miterlimit="10" stroke-linecap="round" stroke-linejoin="round"/>
<path d="M515.798 467.53L518.076 480.549" stroke="#FDFDFF" stroke-width="8.52744" stroke-miterlimit="10" stroke-linecap="round" stroke-linejoin="round"/>
<path d="M488.782 471.11V473.389V474.691V476.969V478.271V479.573V481.2" stroke="#FDFDFF" stroke-width="8.52744" stroke-miterlimit="10" stroke-linecap="round" stroke-linejoin="round"/>
<path d="M503.754 471.761V473.388V474.69V475.992V477.62V478.921" stroke="#FDFDFF" stroke-width="8.52744" stroke-miterlimit="10" stroke-linecap="round" stroke-linejoin="round"/>
<path d="M396.999 467.53V468.832V470.459V473.389V474.69" stroke="#FDFDFF" stroke-width="8.52744" stroke-miterlimit="10" stroke-linecap="round" stroke-linejoin="round"/>
<path d="M386.259 467.53V469.808V471.761V473.389" stroke="#FDFDFF" stroke-width="8.52744" stroke-miterlimit="10" stroke-linecap="round" stroke-linejoin="round"/>
<path d="M685.045 163.211C697.087 185.018 683.417 250.438 674.304 257.273C667.144 262.481 618.973 226.028 604.978 202.919C601.398 196.735 582.846 157.027 589.681 150.192C593.586 146.286 645.662 153.447 653.799 155.074C664.54 157.352 680.163 154.423 685.045 163.211Z" fill="#DCDBE1"/>
<path d="M682.117 152.47C699.367 197.386 628.088 192.504 615.069 158.654L682.117 152.47Z" fill="#FDFDFF"/>
<path d="M571.778 149.867L627.76 150.843L721.822 152.47" stroke="#DCDBE1" stroke-width="24.7361" stroke-miterlimit="10" stroke-linecap="round" stroke-linejoin="round"/>
<path d="M684.393 164.188C689.926 191.853 614.09 194.131 614.09 159.305" stroke="#DCDBE1" stroke-width="9.92698" stroke-miterlimit="10" stroke-linecap="round" stroke-linejoin="round"/>
<path d="M649.241 160.282C649.241 153.447 643.708 147.914 636.873 147.914C630.038 147.914 624.505 153.447 624.505 160.282C624.505 167.117 630.038 172.65 636.873 172.65C643.708 172.65 649.241 167.117 649.241 160.282Z" fill="#DCDBE1"/>
<path d="M426.291 291.773C423.687 381.604 291.87 429.449 276.573 406.992C266.808 392.671 246.954 325.297 272.992 280.056C275.596 275.5 304.238 285.264 308.795 285.915C347.201 292.099 427.593 252.716 426.291 291.773Z" fill="#DCDBE1"/>
<path d="M384.955 295.354C384.955 303.491 383.328 309.024 380.398 312.93C371.936 323.67 353.384 317.812 334.832 314.557C314.653 310.977 310.096 298.609 306.19 291.123" fill="#FDFDFF"/>
<path d="M434.104 285.264L260.952 282.009" stroke="#DCDBE1" stroke-width="24.7361" stroke-miterlimit="10" stroke-linecap="round" stroke-linejoin="round"/>
<path d="M391.793 296.981C379.099 335.387 311.726 323.345 310.424 292.099" stroke="#DCDBE1" stroke-width="9.92698" stroke-miterlimit="10" stroke-linecap="round" stroke-linejoin="round"/>
<path d="M345.248 291.774C345.248 284.939 339.715 279.406 332.88 279.406C326.045 279.406 320.512 284.939 320.512 291.774C320.512 298.609 326.045 304.142 332.88 304.142C339.715 304.142 345.248 298.609 345.248 291.774Z" fill="#DCDBE1"/>
<path d="M362.172 305.444C363.149 305.444 364.125 305.118 365.102 305.118L362.172 305.444Z" fill="#DCDBE1"/>
<path d="M705.874 758.179C707.502 760.783 712.709 773.476 716.289 773.151C720.195 773.151 728.007 768.594 731.587 766.967C746.559 760.457 761.856 761.108 776.828 766.316C781.059 767.943 784.639 769.896 784.965 775.104C786.592 797.561 731.587 773.476 722.473 785.844C721.172 787.797 736.143 791.703 737.12 792.028C744.606 794.958 774.549 811.231 767.064 824.576C761.205 835.316 743.304 824.25 736.794 819.694C736.143 819.368 728.332 812.533 728.007 812.859C727.681 813.184 751.441 846.057 730.61 855.17C723.775 858.1 713.686 856.798 710.105 848.986C707.176 842.477 705.874 834.34 704.898 827.505C704.572 826.203 704.247 823.274 704.247 823.274C704.247 823.274 701.969 826.854 700.992 828.807C695.785 836.293 682.766 844.104 673.652 839.222C656.077 829.783 701.969 800.491 680.813 780.962C679.185 779.335 675.605 774.127 673.327 773.802" fill="#FDFDFF"/>
<path d="M705.874 758.504C707.502 761.108 712.709 773.801 716.289 773.476C720.195 773.476 728.007 768.919 731.587 767.292C746.559 760.782 761.856 761.433 776.828 766.641C781.059 768.268 784.639 770.221 784.965 775.429C786.592 797.887 731.587 773.801 722.473 786.17C721.172 788.122 736.143 792.028 737.12 792.354C744.606 795.283 774.549 811.557 767.064 824.901C761.205 835.642 743.304 824.576 736.794 820.019C736.143 819.693 728.332 812.858 728.007 813.184C727.681 813.835 751.441 846.382 730.61 855.496C723.775 858.425 713.686 857.123 710.105 849.312C707.176 842.802 705.874 834.665 704.898 827.505C704.572 826.203 704.247 823.274 704.247 823.274C704.247 823.274 701.969 826.854 700.992 828.807C695.785 836.293 682.766 844.104 673.652 839.222C656.077 829.783 701.969 800.49 680.813 780.962C679.185 779.335 675.605 774.127 673.327 773.801" stroke="#DCDBE1" stroke-width="8.52744" stroke-miterlimit="10" stroke-linecap="round" stroke-linejoin="round"/>
<path d="M76.4057 795.934C73.4764 801.793 71.8491 812.533 64.0377 814.486C57.2027 816.114 8.70693 783.241 0.895538 813.51C-7.56681 847.685 46.462 826.203 54.2734 831.411C58.8301 834.34 47.1129 843.779 45.4856 847.359C41.5799 855.496 39.9525 867.213 42.8818 875.675C45.8111 884.138 53.6225 882.51 58.8301 877.303C65.0141 870.793 62.7357 860.378 63.3867 860.378C63.3867 860.378 66.6414 872.421 68.5943 878.93C73.8019 894.878 83.8916 917.662 102.444 906.596C109.279 902.364 104.397 884.138 103.42 878.279C98.8634 854.194 99.1889 802.769 99.1889 802.769" fill="#FDFDFF"/>
<path d="M76.4057 795.934C73.4764 801.793 71.8491 812.533 64.0377 814.486C57.2027 816.114 8.70693 783.241 0.895535 813.51C-7.56681 847.685 46.462 826.203 54.2734 831.411C58.8301 834.34 47.1129 843.779 45.4856 847.359C41.5799 855.496 39.9525 867.213 42.8818 875.675C45.8111 884.138 53.6225 882.51 58.8301 877.303C65.0141 871.119 62.7357 860.378 63.3867 860.378C63.3867 860.378 66.6414 872.421 68.5943 878.93C73.8019 894.878 83.8916 917.662 102.444 906.596C109.279 902.364 104.397 884.138 103.42 878.279C98.8634 854.194 99.1889 802.769 99.1889 802.769" stroke="#DCDBE1" stroke-width="8.52744" stroke-miterlimit="10" stroke-linecap="round" stroke-linejoin="round"/>
<path opacity="0.23" d="M243.699 427.171C217.01 522.535 157.122 790.075 283.081 821.321C293.171 823.925 245.326 816.113 235.887 817.741C208.222 822.297 182.835 815.788 155.17 810.58C141.5 807.976 125.551 808.627 112.532 804.396C106.348 802.443 69.5696 795.283 68.2677 790.075C60.7818 760.457 75.4282 717.82 82.5886 689.829C88.4472 666.069 92.3529 650.121 101.141 627.663C107.65 611.39 117.414 589.583 120.669 572.658C124.9 551.828 135.641 532.625 139.221 511.469C144.103 482.827 156.146 455.813 163.306 428.147C165.585 418.383 161.028 407.317 169.49 398.855C180.882 387.138 244.675 422.94 243.699 427.171Z" fill="#DCDBE1"/>
<path d="M362.5 1010.75C299.683 1014.65 180.234 1016.28 127.833 1016.28" stroke="#DCDBE1" stroke-width="8.52744" stroke-miterlimit="10" stroke-linecap="round" stroke-linejoin="round"/>
<path d="M423.356 579.199C445.33 576.478 465.918 573.312 486.606 570.789C503.433 568.86 512.192 578.709 511.845 589.3C511.498 604.172 500.114 615.802 482.47 623.125C481.555 623.596 480.589 623.744 478.709 624.362C494.669 631.787 492.293 650.593 510.257 664.625C494.989 665.985 481.057 667.469 467.125 668.953C458.143 659.797 453.665 649.948 450.845 640.173C449.36 634.803 447.109 630.869 437.334 633.689C431.493 647.101 426.939 660.315 428.968 673.504C417.016 675.013 406.672 676.274 396.7 677.808C398.657 641.284 424.987 615.501 423.356 579.199ZM453.569 593.652C452.257 600.11 449.881 606.074 446.788 613.794C453.865 612.706 460.299 611.716 467.327 610.306C473.389 609.045 477.992 604.715 479.552 599.865C481.061 594.693 478.538 591.129 472.648 591.376C466.388 591.351 460.003 592.663 453.569 593.652Z" fill="#FDFDFF"/>
<path d="M605.531 581.808C595.93 583.614 586.972 585.32 577.049 587.176C576.035 578.441 570.517 574.679 562.104 575.644C556.907 576.113 552.651 578.415 550.646 584.65C550.745 589.575 553.887 590.738 557.624 591.48C564.676 592.372 572.05 593.213 578.83 594.476C582.889 595.169 586.675 596.233 590.139 597.347C613.152 605.663 609.908 633.823 596.298 648.1C591.744 652.752 585.384 656.364 578.134 658.467C566.479 661.906 552.497 663.068 537.749 661.385C518.349 659.429 504.517 648.713 507.562 632.109C518.177 630.477 528.472 628.894 539.409 627.212C539.706 629.142 540.325 631.022 540.894 632.581C544.258 641.614 556.582 644.658 566.703 639.809C571.33 637.78 574.102 634.39 574.374 629.738C574.375 625.457 571.95 622.537 568.164 621.472C564.699 620.359 561.012 619.938 557.647 619.467C550.174 617.982 542.8 617.14 535.921 615.235C522.806 611.324 519.119 602.341 521.298 590.81C523.6 577.943 529.465 566.832 541.417 561.043C552.726 555.352 565.223 553.101 579.377 555.205C594.645 558.126 604.122 566.218 605.531 581.808Z" fill="#FDFDFF"/>
</svg>
