<svg width="1440" height="1024" viewBox="0 0 1440 1024" fill="none" xmlns="http://www.w3.org/2000/svg">
<g clip-path="url(#clip0_122_1126)">
<path d="M-24.5 885.5C-17.6387 831.309 56.2703 820.654 78.1591 870.7L90.8468 899.709C102.153 925.559 129.371 940.636 157.283 936.509L197.125 930.618C223.597 926.704 250.534 933.563 271.91 949.661L285.644 960.003C307.283 976.299 334.608 983.119 361.367 978.903L377.583 976.348C393.583 973.826 408.647 967.169 421.283 957.035C441.211 941.054 466.836 933.974 492.142 937.46L519.069 941.168C530.275 942.712 541.662 942.342 552.744 940.076L642.869 921.649C659.681 918.212 676.945 924.967 686.96 938.901C697.764 953.933 716.891 960.493 734.647 955.256L793.817 937.805C806.804 933.975 820.433 932.822 833.879 934.416L899.043 942.142C906.656 943.044 914.347 943.068 921.966 942.214L992.369 934.315C1005.86 932.801 1019.5 935.053 1031.79 940.821C1050.99 949.831 1073.14 950.112 1092.56 941.59L1103.51 936.784C1121.75 928.778 1141.97 926.413 1161.57 929.994L1183.5 934.001C1216.04 939.944 1249.27 925.261 1281.86 919.65C1293.88 917.58 1307.55 918.262 1322 924.5C1369.5 945 1411.5 917.5 1440 964C1445.89 973.604 1449.66 982.866 1451.95 991.519C1461.22 1026.64 1424.97 1049.17 1388.66 1049.45L66.3554 1059.6C4.96693 1060.07 -42.3485 1005.63 -33.3266 944.91L-24.5 885.5Z" fill="#DCDBE1"/>
</g>
<defs>
<clipPath id="clip0_122_1126">
<rect width="1440" height="1024" fill="white"/>
</clipPath>
</defs>
</svg>
