<svg width="1065" height="1024" viewBox="0 0 1065 1024" fill="none" xmlns="http://www.w3.org/2000/svg">
<path d="M821.542 130.813C813.404 122.373 868.261 169.092 884.236 181.45C923.118 211.591 960.795 266.75 982.496 309.852C1042.78 430.417 1076.84 639.898 1025.6 767.998C932.462 1000.99 653.656 1041.68 442.065 1018.17C356.162 1008.52 179.535 950.654 113.827 884.946C-38.0848 733.034 -39.8933 558.818 120.157 398.768C164.765 354.159 193.098 349.035 243.735 311.057C288.646 277.299 315.471 202.248 359.478 160.351C457.738 66.9136 591.565 72.9419 683.496 91.328C713.637 97.3563 753.725 111.221 781.756 125.086C792.305 130.813 834.201 143.472 821.542 130.813Z" fill="#303032"/>
<path opacity="0.1395" d="M853.794 393.041C840.23 410.824 801.649 503.056 822.447 500.344C919.803 487.383 891.772 624.525 784.469 673.656C683.797 719.772 670.535 661.298 678.07 639.295C699.471 576.902 512.294 684.506 533.091 746.597C586.743 907.853 86.3987 744.789 214.499 636.28C276.891 583.533 300.703 456.94 229.871 492.205C23.1021 594.686 84.8916 440.965 79.7676 446.391C17.6767 508.482 15.2654 592.877 14.6626 587.753C14.3612 585.342 17.3753 578.409 15.2654 580.218C0.797627 592.274 3.51034 654.064 4.11316 671.244C8.03152 763.175 59.8744 831.897 123.171 896.7C177.425 952.16 262.122 975.67 331.145 998.276C429.406 1030.53 490.592 1023.59 593.072 1019.68C743.778 1013.95 931.859 952.763 1001.79 808.99C1035.24 740.569 1040.07 725.498 1051.52 649.543C1062.67 575.395 1040.37 474.121 1009.02 358.077C999.074 321.305 980.085 302.014 959.589 269.763C945.724 248.062 859.52 150.103 818.227 137.444C807.376 134.128 749.806 224.25 805.568 222.14C848.67 219.729 903.527 327.635 853.794 393.041Z" fill="#303032"/>
<path opacity="0.144" d="M487.577 184.464C461.354 164.872 365.505 232.69 418.855 294.178C464.067 346.322 528.569 310.153 528.569 310.153C528.569 310.153 515.307 204.96 487.577 184.464Z" fill="#1F1F1F"/>
<path d="M710.02 30.1415C704.896 35.2655 705.499 18.9892 706.102 18.6878C710.623 14.1666 727.201 30.4429 729.612 33.457C752.52 61.7897 801.047 98.562 810.089 134.731C813.103 146.486 819.433 157.639 822.146 169.092C831.49 205.865 828.475 252.282 819.433 288.753C818.227 293.877 808.582 344.514 810.089 346.021C811.898 347.83 821.543 346.323 824.256 347.227C833.901 351.447 840.833 358.078 849.876 362.9C855.301 365.613 867.357 364.106 873.386 365.613C921.913 377.669 993.951 430.718 1019.27 472.916C1045.79 517.223 1070.51 566.655 1059.66 620.005C1059.06 623.32 1051.82 661.901 1050.31 662.504C1048.81 663.408 1045.49 646.83 1044.89 645.625C1040.97 636.281 1037.05 626.636 1033.44 617.292C1022.89 590.768 989.731 550.981 966.522 533.499C910.158 491.302 786.88 499.741 733.832 519.333C713.637 526.868 688.922 588.055 686.51 607.647C684.702 621.813 679.879 632.664 676.564 646.529C668.727 678.177 667.521 655.571 657.575 663.107C653.355 666.422 652.149 682.096 650.944 687.521C648.231 698.07 666.919 715.251 669.028 726.102C675.659 758.956 672.645 788.795 669.028 821.951C667.22 838.83 664.809 877.109 671.741 893.385C675.358 901.825 678.071 910.566 681.989 918.403C682.592 919.91 690.73 929.856 687.415 929.856C667.22 929.856 635.873 913.279 622.008 901.222C588.853 872.588 590.36 878.616 543.34 771.313C529.776 740.569 518.021 726.705 494.812 701.687C452.916 656.174 418.555 651.05 352.847 632.965C337.777 628.746 276.289 608.551 261.519 616.388C251.874 621.813 222.637 626.033 215.102 633.568C199.429 649.242 188.879 664.312 172 679.081C159.039 690.234 147.887 701.687 131.611 705.304C111.416 709.825 99.6612 699.879 78.8638 700.783C74.0412 701.085 39.6803 687.822 34.8577 689.028C33.9534 689.329 71.9313 679.081 90.9203 666.422C96.3457 662.805 100.565 658.887 101.47 654.667C109.909 620.909 112.622 646.83 128.597 588.356C146.079 524.457 203.347 538.925 228.666 513.908C236.201 506.372 236.502 481.657 240.119 472.011C245.846 457.242 256.395 437.349 267.849 426.197C282.92 411.126 311.252 397.864 315.774 374.957C322.405 342.103 234.392 333.965 215.102 335.773C197.319 337.28 182.55 355.064 167.178 363.503C161.451 366.517 159.039 368.929 153.011 366.819C143.969 363.805 151.504 335.472 157.532 329.444C185.865 301.111 203.648 268.86 244.64 257.406C273.877 249.268 296.785 247.459 332.05 253.488C367.315 259.516 362.492 269.463 375.755 269.463C387.811 269.463 394.442 253.488 408.91 255.899C421.569 258.009 439.654 276.696 452.012 273.984C482.454 267.956 475.823 233.896 479.742 210.386C486.071 173.011 496.922 135.937 520.131 105.193C527.968 94.6436 530.68 81.9843 540.326 72.0377C556.602 55.7615 571.672 44.0064 602.115 36.7725C604.828 36.1697 606.636 36.1697 604.526 34.3612C602.718 32.8542 589.154 22.3048 595.182 20.1949C607.54 15.9751 636.476 28.6344 639.189 27.1274C645.518 23.8118 633.462 10.2483 633.763 9.94687C635.873 7.83699 674.755 33.7584 675.659 32.8542C681.989 26.5245 667.521 7.83699 670.234 3.91863C671.741 1.80875 675.057 5.72711 676.865 7.23417C684.4 13.8652 692.237 17.7836 699.17 24.7161C708.513 34.6627 711.528 28.9358 710.02 30.1415Z" fill="#303032"/>
<path d="M814.609 343.308C807.375 345.117 827.57 342.404 832.995 343.308C848.066 345.418 865.548 346.021 879.714 352.652C883.331 354.461 897.497 369.531 894.182 373.45C890.565 377.971 870.672 364.106 864.643 368.024C857.41 372.545 848.066 389.424 842.339 396.357C826.967 415.346 814.609 443.377 810.389 467.792C809.184 473.82 813.403 497.33 810.691 500.645C801.95 511.195 779.042 507.879 767.287 510.893C747.093 516.018 725.09 531.691 714.54 549.474C707.909 560.928 700.374 571.779 693.441 583.232C687.715 592.878 686.509 603.728 683.193 614.881C679.878 625.731 683.495 657.983 676.864 666.121C674.754 668.833 661.19 667.025 659.382 664.312C655.765 658.585 663.903 650.447 662.095 644.118C658.779 630.554 645.517 623.32 637.077 612.168C628.035 600.413 610.553 584.137 599.401 575.396C563.834 546.762 527.062 513.305 482.152 497.631C454.12 487.986 426.089 477.738 397.455 470.203C383.59 466.586 370.026 458.749 355.257 457.544C328.13 455.132 300.4 455.434 273.273 453.927C264.834 453.324 251.873 456.639 244.338 460.256C242.228 461.161 238.008 463.572 238.008 463.572C238.008 463.572 250.366 463.873 248.859 467.49C245.543 476.231 229.87 515.415 220.526 492.206C217.21 484.369 222.033 474.724 225.349 467.49C228.363 460.558 228.061 450.912 232.884 444.884C248.859 425.292 262.422 413.839 284.425 399.672C291.056 395.453 301.003 389.123 308.538 387.315C309.744 387.013 315.772 386.41 316.375 385.205C320.896 373.45 316.074 358.078 320.896 345.72C330.541 320.1 354.956 298.398 371.835 277.601C374.246 274.586 401.675 250.775 404.99 252.885C415.841 259.817 429.405 269.764 439.954 278.203C445.379 282.423 450.805 274.888 454.723 276.696C462.258 280.313 469.492 294.178 475.219 300.508C484.563 310.756 496.619 318.894 507.169 327.334C516.814 335.17 529.775 337.582 540.927 341.801C571.068 352.954 599.099 361.092 630.748 369.23C662.697 377.368 738.653 379.478 769.096 365.613C782.961 359.283 786.879 357.776 799.237 349.638C804.361 345.117 821.542 341.5 814.609 343.308Z" fill="#303032"/>
<path d="M609.348 286.04C738.051 320.702 785.674 201.343 772.111 147.39C770.604 141.362 766.384 103.384 707.91 90.4234C698.265 88.3136 677.166 89.2178 668.123 85.6009C659.081 81.9839 651.546 79.5726 643.709 70.2288C643.709 80.4769 641.599 81.6825 638.585 81.6825C624.117 82.2853 599.402 56.9667 572.576 56.0625C541.832 54.8568 510.184 108.81 503.553 129.004C491.195 166.078 480.645 251.377 609.348 286.04Z" fill="#303032"/>
<path d="M629.544 159.145C651.245 172.709 657.274 209.783 638.285 226.662C619.296 243.541 585.236 228.772 570.768 220.332C534.599 199.535 568.96 153.72 584.633 150.405C588.25 149.802 595.484 147.692 598.498 149.5" fill="#1F1F1F"/>
<path d="M628.036 160.653C629.241 155.83 620.802 149.5 609.047 146.185C597.292 142.869 586.742 144.376 585.536 149.199C584.331 154.021 592.77 160.351 604.525 163.667C616.281 166.681 626.83 165.475 628.036 160.653Z" fill="#303032"/>
<path d="M675.358 104.891C610.856 204.056 742.874 249.87 745.889 246.856C770.906 222.442 776.03 173.01 774.824 160.05C774.523 157.337 675.66 104.59 675.358 104.891Z" fill="#1F1F1F"/>
<path d="M600.909 82.5865C603.32 82.5865 578.001 184.765 496.017 154.925C491.496 153.117 500.237 130.812 501.141 126.291C509.882 82.888 524.35 95.2459 558.108 92.8346C571.37 91.6289 595.785 82.5865 600.909 82.5865Z" fill="#1F1F1F"/>
<path d="M1056.04 606.14C1064.48 610.058 1059.66 657.983 1047.9 659.791C1045.49 660.093 1045.79 656.777 1045.49 655.873C1043.68 644.118 1026.5 618.799 1030.12 607.647C1030.72 606.441 1053.33 604.934 1056.04 606.14Z" fill="#303032"/>
<path d="M145.173 361.393C152.709 359.886 149.695 372.846 143.666 376.463C141.255 377.97 137.939 384.3 137.638 381.889C136.131 373.751 137.939 362.9 145.173 361.393Z" fill="#303032"/>
<path d="M665.11 874.999C669.631 884.644 678.673 902.427 684.099 913.881C685.003 915.689 690.428 937.09 689.524 938.295C686.51 942.214 669.631 931.363 666.315 929.554C644.915 919.005 627.735 912.374 612.061 893.686C609.951 890.974 594.881 881.328 598.799 875.602C606.334 865.354 634.366 863.244 644.915 865.052C650.34 865.956 655.163 867.162 660.287 868.669C661.794 869.272 664.507 873.19 665.11 874.999Z" fill="#303032"/>
<path d="M92.7288 666.422C110.512 665.217 142.462 700.18 129.803 705.003C115.636 710.127 72.8357 702.29 58.0665 699.577C52.9425 698.673 44.2015 702.592 42.6945 697.468C42.0916 695.659 44.2015 694.152 45.4072 692.645C56.5594 680.287 67.7117 684.808 78.2611 670.943C79.7681 668.833 90.9204 666.422 92.7288 666.422Z" fill="#303032"/>
<path d="M676.865 657.982C676.865 671.847 664.809 664.915 657.273 664.915" stroke="#1F1F1F" stroke-width="8.86579" stroke-miterlimit="10" stroke-linecap="round" stroke-linejoin="round"/>
<path d="M379.371 267.955C379.371 267.955 201.538 179.942 134.926 381.587C134.323 383.396 133.419 388.218 134.926 387.013C230.474 306.234 283.522 340.595 313.664 368.325" stroke="#1F1F1F" stroke-width="8.86579" stroke-miterlimit="10" stroke-linecap="round" stroke-linejoin="round"/>
<path d="M247.955 466.586C242.228 475.93 235.898 512.099 209.977 527.17" stroke="#1F1F1F" stroke-width="8.86579" stroke-miterlimit="10" stroke-linecap="round" stroke-linejoin="round"/>
<path d="M1045.79 685.109C1097.03 545.556 998.773 404.193 871.878 370.134M353.45 361.996C331.447 366.517 240.119 414.14 219.623 470.203C212.389 490.397 226.254 497.631 233.186 502.454M101.168 655.571C89.7142 672.149 32.1446 689.631 33.3502 691.439C35.1587 693.85 120.458 712.236 144.873 704.098C172.904 694.755 192.194 649.844 216.307 633.568C260.012 603.728 315.17 623.621 389.619 642.008M212.389 525.662C174.11 544.651 143.667 531.691 126.487 588.959C117.143 620.306 116.239 638.089 97.8524 658.585M603.923 38.8821C540.325 47.9245 491.195 107.303 480.344 214.605C475.823 257.707 462.259 270.065 450.504 275.189M808.883 341.198C870.673 141.664 767.59 76.8601 766.384 73.8459M766.686 73.8459C747.697 56.364 733.832 28.6341 708.814 20.496C709.116 27.1271 709.116 27.1271 709.417 33.4567C694.045 21.0988 680.783 8.13812 663 0C674.453 26.5243 670.837 15.6734 675.659 31.3468C653.656 24.113 647.628 7.83671 622.611 5.72683C632.557 12.6593 636.476 18.0847 643.107 28.6341C624.419 22.3045 605.732 15.0706 585.838 19.2904C595.182 28.3327 595.182 28.3327 604.224 37.3751M661.191 648.036C657.574 655.571 652.752 679.383 649.135 686.918M555.094 662.504C597.593 641.103 645.819 671.847 662.096 712.538C672.645 739.364 671.741 780.657 669.33 808.688C667.822 825.266 666.617 843.652 668.425 860.531C670.234 876.807 675.056 897.002 681.989 912.374C682.592 913.58 696.155 937.693 694.648 938.597C687.716 943.419 671.439 932.569 665.713 929.555C641.6 917.498 610.856 897.906 593.977 876.807C554.19 827.074 547.86 756.544 507.773 711.634C480.947 681.492 418.555 649.241 383.591 640.5M767.59 509.386C694.347 526.567 676.563 642.008 677.166 657.38M1047.9 680.588C1047.9 652.557 1006.91 451.515 769.7 509.085" stroke="#1F1F1F" stroke-width="8.86579" stroke-miterlimit="10" stroke-linecap="round" stroke-linejoin="round"/>
<path d="M293.167 245.952C345.01 159.145 404.086 107.001 522.843 86.5051" stroke="#1F1F1F" stroke-width="8.86579" stroke-miterlimit="10" stroke-linecap="round" stroke-linejoin="round"/>
<path d="M812.5 130.813C848.067 145.582 903.225 188.382 950.848 256.803C995.759 321.305 1033.74 408.714 1041.87 516.921" stroke="#1F1F1F" stroke-width="8.86579" stroke-miterlimit="10" stroke-linecap="round" stroke-linejoin="round"/>
<path d="M1046.4 673.053C999.376 1051.93 508.376 1042.89 365.506 1007.62C69.5197 934.377 -48.031 740.268 26.1164 539.829C64.6971 435.841 136.132 385.204 136.132 385.204" stroke="#1F1F1F" stroke-width="8.86579" stroke-miterlimit="10" stroke-linecap="round" stroke-linejoin="round"/>
<path d="M634.063 20.4963C634.063 20.1948 634.063 20.1948 634.063 19.8934" stroke="#1F1F1F" stroke-width="8.86579" stroke-miterlimit="10" stroke-linecap="round" stroke-linejoin="round"/>
<path d="M666.917 870.478C647.326 856.613 612.06 863.545 594.88 876.205" stroke="#1F1F1F" stroke-width="8.86579" stroke-miterlimit="10" stroke-linecap="round" stroke-linejoin="round"/>
<path d="M134.625 704.4C132.515 691.439 105.69 660.997 93.0303 663.408" stroke="#1F1F1F" stroke-width="8.86579" stroke-miterlimit="10" stroke-linecap="round" stroke-linejoin="round"/>
<path d="M118.348 678.78C114.731 679.383 94.5367 681.794 75.2463 684.507C55.3531 687.22 41.4882 690.836 41.1868 692.645" stroke="#1F1F1F" stroke-width="8.86579" stroke-miterlimit="10" stroke-linecap="round" stroke-linejoin="round"/>
<path d="M1057.25 599.207C1046.7 608.551 1037.65 604.934 1025.3 604.029" stroke="#1F1F1F" stroke-width="8.86579" stroke-miterlimit="10" stroke-linecap="round" stroke-linejoin="round"/>
<path d="M1044.29 607.647C1048.2 629.348 1053.93 653.461 1047.6 674.56" stroke="#1F1F1F" stroke-width="8.86579" stroke-miterlimit="10" stroke-linecap="round" stroke-linejoin="round"/>
<path d="M148.187 350.241C146.378 356.872 149.694 365.914 153.612 371.038" stroke="#1F1F1F" stroke-width="8.86579" stroke-miterlimit="10" stroke-linecap="round" stroke-linejoin="round"/>
<path d="M987.921 438.554C986.113 409.618 975.865 366.517 957.479 321.003" stroke="#1F1F1F" stroke-width="8.86579" stroke-miterlimit="10" stroke-linecap="round" stroke-linejoin="round"/>
<path d="M977.674 545.556C937.887 796.331 691.634 872.286 673.549 879.219" stroke="#1F1F1F" stroke-width="9.46449" stroke-miterlimit="10" stroke-linecap="round" stroke-linejoin="round"/>
<path d="M608.745 896.098C383.891 951.859 173.204 821.047 98.454 742.981C57.462 700.18 19.7855 633.568 16.47 575.396" stroke="#1F1F1F" stroke-width="8.86579" stroke-miterlimit="10" stroke-linecap="round" stroke-linejoin="round"/>
<path d="M660.589 647.433C660.589 624.526 586.743 564.243 567.754 550.981C546.052 535.911 523.446 522.649 500.237 509.989C440.558 477.135 303.415 434.033 234.995 468.093" stroke="#1F1F1F" stroke-width="9.16514" stroke-miterlimit="10" stroke-linecap="round" stroke-linejoin="round"/>
<path d="M680.181 168.489C653.958 181.751 608.444 183.861 578.002 163.365C565.343 154.925 555.396 142.869 550.272 125.99" stroke="#1F1F1F" stroke-width="9.16514" stroke-miterlimit="10" stroke-linecap="round" stroke-linejoin="round"/>
<path d="M714.842 546.159C735.639 535.308 776.028 539.226 790.195 543.747" stroke="#1F1F1F" stroke-width="9.16514" stroke-miterlimit="10" stroke-linecap="round" stroke-linejoin="round"/>
<path d="M696.457 579.615C707.609 573.888 731.722 571.176 748.903 585.643" stroke="#1F1F1F" stroke-width="9.16514" stroke-miterlimit="10" stroke-linecap="round" stroke-linejoin="round"/>
<path d="M688.017 607.043C703.69 607.043 722.98 611.866 732.023 634.472" stroke="#1F1F1F" stroke-width="9.16514" stroke-miterlimit="10" stroke-linecap="round" stroke-linejoin="round"/>
<path d="M816.72 317.99C830.284 304.426 846.56 297.192 864.946 292.972" stroke="#1F1F1F" stroke-width="9.16514" stroke-miterlimit="10" stroke-linecap="round" stroke-linejoin="round"/>
<path d="M475.219 240.526C475.219 225.154 465.875 215.509 452.613 208.878" stroke="#1F1F1F" stroke-width="9.16514" stroke-miterlimit="10" stroke-linecap="round" stroke-linejoin="round"/>
<path d="M267.849 407.811C257.601 384.602 241.023 372.244 215.403 367.12" stroke="#1F1F1F" stroke-width="9.16514" stroke-miterlimit="10" stroke-linecap="round" stroke-linejoin="round"/>
<path d="M251.271 422.881C251.271 415.044 233.187 405.097 227.158 402.083" stroke="#1F1F1F" stroke-width="9.16514" stroke-miterlimit="10" stroke-linecap="round" stroke-linejoin="round"/>
<path d="M780.248 359.283C779.646 359.584 779.043 359.886 778.44 360.187C761.561 368.627 737.749 370.134 719.363 372.545C652.148 382.19 492.099 346.322 457.135 275.792" stroke="#1F1F1F" stroke-width="9.16514" stroke-miterlimit="10" stroke-linecap="round" stroke-linejoin="round"/>
<path d="M452.613 276.998C443.269 276.998 405.593 252.282 404.387 252.885C358.573 275.792 316.375 324.621 316.375 377.971" stroke="#1F1F1F" stroke-width="9.16514" stroke-miterlimit="10" stroke-linecap="round" stroke-linejoin="round"/>
<path d="M808.883 340.595C807.074 339.088 900.211 339.088 891.168 374.052" stroke="#1F1F1F" stroke-width="9.16514" stroke-miterlimit="10" stroke-linecap="round" stroke-linejoin="round"/>
<path d="M874.29 365.312C863.74 365.01 850.478 385.205 844.45 392.74C819.433 423.785 809.486 461.462 808.883 500.344" stroke="#1F1F1F" stroke-width="9.16514" stroke-miterlimit="10" stroke-linecap="round" stroke-linejoin="round"/>
<path d="M773.316 154.323C734.434 141.663 697.964 117.55 678.07 98.26" stroke="#1F1F1F" stroke-width="22.1836" stroke-miterlimit="10" stroke-linecap="round" stroke-linejoin="round"/>
<path d="M667.52 149.5C687.715 142.266 707.608 151.309 722.076 165.174" stroke="#1F1F1F" stroke-width="9.50204" stroke-miterlimit="10" stroke-linecap="round" stroke-linejoin="round"/>
<path d="M575.59 116.345C564.739 105.796 542.435 100.371 527.967 105.796" stroke="#1F1F1F" stroke-width="9.50204" stroke-miterlimit="10" stroke-linecap="round" stroke-linejoin="round"/>
<path d="M690.127 932.568C655.163 907.853 626.228 867.162 626.529 866.559" stroke="#1F1F1F" stroke-width="8.86579" stroke-miterlimit="10" stroke-linecap="round" stroke-linejoin="round"/>
<path d="M599.101 76.5582C554.793 91.9302 512.897 80.4766 511.088 80.1752" stroke="#1F1F1F" stroke-width="19.3403" stroke-miterlimit="10" stroke-linecap="round" stroke-linejoin="round"/>
<path d="M420.965 654.667C379.37 657.078 354.052 697.769 354.052 709.222" stroke="#1F1F1F" stroke-width="8.86579" stroke-miterlimit="10" stroke-linecap="round" stroke-linejoin="round"/>
<path d="M373.04 639.596C345.009 639.596 309.141 657.982 290.755 706.509" stroke="#1F1F1F" stroke-width="8.86579" stroke-miterlimit="10" stroke-linecap="round" stroke-linejoin="round"/>
<path d="M420.664 261.626C388.413 271.271 360.683 312.866 341.995 338.185" stroke="#1F1F1F" stroke-width="9.46449" stroke-miterlimit="10" stroke-linecap="round" stroke-linejoin="round"/>
<path d="M866.453 345.418C838.723 349.638 812.801 397.864 798.333 417.456" stroke="#1F1F1F" stroke-width="9.46449" stroke-miterlimit="10" stroke-linecap="round" stroke-linejoin="round"/>
<path d="M788.085 500.344C786.277 487.685 787.483 475.93 789.592 463.572" stroke="#1F1F1F" stroke-width="9.46449" stroke-miterlimit="10" stroke-linecap="round" stroke-linejoin="round"/>
<path d="M532.187 339.692L530.981 341.199L529.776 343.309L528.871 344.816L526.46 349.337" stroke="#1F1F1F" stroke-width="9.46449" stroke-miterlimit="10" stroke-linecap="round" stroke-linejoin="round"/>
<path d="M547.859 347.227L544.543 352.351L543.94 354.762L543.036 356.269" stroke="#1F1F1F" stroke-width="9.46449" stroke-miterlimit="10" stroke-linecap="round" stroke-linejoin="round"/>
<path d="M374.85 271.271C376.056 271.874 377.261 272.778 378.467 273.381" stroke="#1F1F1F" stroke-width="9.46449" stroke-miterlimit="10" stroke-linecap="round" stroke-linejoin="round"/>
<path d="M359.778 287.848L369.725 294.479" stroke="#1F1F1F" stroke-width="9.46449" stroke-miterlimit="10" stroke-linecap="round" stroke-linejoin="round"/>
<path d="M387.508 262.53L397.756 269.161" stroke="#1F1F1F" stroke-width="9.46449" stroke-miterlimit="10" stroke-linecap="round" stroke-linejoin="round"/>
<path d="M376.357 272.778L386.605 279.107" stroke="#1F1F1F" stroke-width="9.46449" stroke-miterlimit="10" stroke-linecap="round" stroke-linejoin="round"/>
<path d="M337.173 323.113L347.12 329.744" stroke="#1F1F1F" stroke-width="9.46449" stroke-miterlimit="10" stroke-linecap="round" stroke-linejoin="round"/>
<path d="M827.269 375.559L837.818 382.793" stroke="#1F1F1F" stroke-width="9.46449" stroke-miterlimit="10" stroke-linecap="round" stroke-linejoin="round"/>
<path d="M816.418 390.027L828.173 397.26" stroke="#1F1F1F" stroke-width="9.46449" stroke-miterlimit="10" stroke-linecap="round" stroke-linejoin="round"/>
<path d="M297.085 274.587C294.673 277.601 291.358 282.122 288.947 285.438" stroke="#1F1F1F" stroke-width="10.4369" stroke-miterlimit="10" stroke-linecap="round" stroke-linejoin="round"/>
<path d="M319.088 277.902C316.677 280.916 313.361 285.437 310.95 288.753" stroke="#1F1F1F" stroke-width="10.4369" stroke-miterlimit="10" stroke-linecap="round" stroke-linejoin="round"/>
<path d="M617.185 720.375C614.774 723.389 611.458 727.91 609.047 731.226" stroke="#1F1F1F" stroke-width="10.4369" stroke-miterlimit="10" stroke-linecap="round" stroke-linejoin="round"/>
<path d="M880.618 405.098C878.207 408.112 874.891 412.633 872.48 415.948" stroke="#1F1F1F" stroke-width="10.4369" stroke-miterlimit="10" stroke-linecap="round" stroke-linejoin="round"/>
<path d="M597.291 716.155C594.88 719.169 591.565 723.69 589.153 727.006" stroke="#1F1F1F" stroke-width="10.4369" stroke-miterlimit="10" stroke-linecap="round" stroke-linejoin="round"/>
<path d="M755.533 316.483C753.122 319.497 749.806 324.018 747.395 327.333" stroke="#1F1F1F" stroke-width="10.4369" stroke-miterlimit="10" stroke-linecap="round" stroke-linejoin="round"/>
<path d="M731.118 315.88C728.707 318.894 725.391 323.415 722.98 326.731" stroke="#1F1F1F" stroke-width="10.4369" stroke-miterlimit="10" stroke-linecap="round" stroke-linejoin="round"/>
<path d="M700.978 313.77C698.567 316.784 695.251 321.305 692.84 324.621" stroke="#1F1F1F" stroke-width="10.4369" stroke-miterlimit="10" stroke-linecap="round" stroke-linejoin="round"/>
<path opacity="0.23" d="M584.633 46.1162C584.03 46.1162 889.059 20.1948 776.331 362.9C776.331 363.202 808.28 342.706 808.28 342.706C808.28 342.706 858.315 178.135 791.401 93.4379C784.167 84.0941 770.905 80.4772 763.37 71.1334C750.711 55.46 737.147 38.8823 721.775 26.223C707.307 14.1665 711.829 35.2654 706.705 34.6625C703.389 34.3611 672.344 0.00016737 666.918 2.11005C662.397 3.61711 679.276 32.2512 676.563 34.3611C675.961 34.6625 675.056 34.3611 674.454 34.0597C663.904 30.1414 650.039 22.9075 640.997 15.3722C637.983 12.9609 647.929 25.9216 638.887 28.0315C630.146 30.1414 588.852 9.94676 587.647 20.7976C588.25 21.099 619.295 40.088 584.633 46.1162Z" fill="#1F1F1F"/>
<path opacity="0.23" d="M552.683 663.407C555.999 660.393 588.25 634.472 600.608 623.621C653.656 576.902 710.924 495.521 641.298 434.334C589.154 388.52 521.035 365.914 452.313 359.283C422.775 356.269 397.155 369.531 368.822 365.914C350.436 363.502 350.737 360.488 352.546 357.173C357.971 346.623 389.619 331.553 418.856 337.28C444.476 342.102 471.603 352.049 495.716 360.488C533.694 374.052 652.149 402.686 713.637 396.959C783.263 390.63 820.036 395.452 833.298 402.385C838.12 404.796 985.511 409.618 1035.85 516.017C1043.68 532.896 1053.63 554.296 1054.53 572.682C1054.84 576.601 1056.04 607.948 1052.42 609.153C1047.6 610.962 1034.94 600.111 1030.12 603.728C1027.41 606.139 1037.35 605.536 1040.97 605.536C1043.38 605.536 1053.33 599.809 1055.44 600.714C1059.66 602.522 1050.92 645.323 1050.31 651.954C1050.31 652.858 1050.62 653.762 1050.01 654.365C1049.41 654.666 1033.74 620.607 1030.42 615.483C1025 607.043 1022.58 597.097 1017.46 588.356C1007.82 572.381 990.936 558.516 977.071 545.857C932.462 504.865 885.442 494.617 825.461 497.028C804.061 497.932 770.001 505.769 749.505 515.414C692.538 542.24 686.812 588.959 677.769 659.188C675.659 675.162 663.603 660.393 656.067 666.723C651.546 670.34 652.752 679.985 649.738 682.396C648.231 683.602 632.859 671.244 630.749 669.436C620.802 661.9 605.732 657.078 593.977 654.064C581.317 651.049 546.354 670.038 552.683 663.407Z" fill="#1F1F1F"/>
<path opacity="0.23" d="M619.898 665.517C642.805 667.929 650.943 695.96 651.847 714.949C653.957 774.629 633.16 789.699 604.224 826.773C565.644 876.506 629.543 903.03 653.053 916.292C661.191 920.813 672.645 923.526 681.687 926.842C685.003 928.047 692.538 934.98 691.332 931.664C688.921 925.033 681.386 919.005 678.372 911.47C668.425 884.945 670.836 834.308 669.932 805.975C668.727 763.778 680.18 738.459 653.957 699.878C648.833 692.343 644.614 682.095 636.777 676.971" fill="#1F1F1F"/>
<path opacity="0.23" d="M507.772 709.524C493.003 700.18 489.084 663.408 367.314 616.387C296.482 588.959 219.923 583.232 171.396 663.106C162.655 677.273 145.173 699.577 128.897 705.907C127.691 706.208 125.883 705.907 125.581 707.112C125.28 709.222 135.829 708.318 136.432 708.318C143.967 706.51 151.503 699.577 157.23 694.755C181.041 675.464 201.839 631.458 234.391 624.224C294.673 610.661 359.176 623.923 414.033 651.05C429.405 658.585 442.365 668.833 456.532 677.574" fill="#1F1F1F"/>
<path d="M461.053 340.596C480.645 348.734 497.222 354.762 512.594 361.092C525.254 366.216 524.952 374.957 519.828 379.177C512.594 384.903 500.236 385.205 483.659 382.794C482.754 382.794 481.85 382.492 480.343 382.191C489.988 389.726 481.85 397.261 485.166 417.155C473.109 412.633 462.258 409.016 451.106 405.098C449.599 393.644 449.901 386.411 452.01 380.985C452.915 377.971 452.613 375.56 443.571 374.053C433.624 378.272 424.281 383.698 420.061 395.754C410.114 392.74 401.072 390.329 391.728 388.219C407.1 360.188 440.557 363.202 461.053 340.596ZM474.616 361.695C470.095 364.408 464.971 366.216 458.943 368.326C464.971 369.833 470.698 371.641 476.726 373.148C482.152 374.354 487.276 374.354 490.591 372.847C494.208 371.34 494.208 368.929 489.687 367.12C485.769 365.312 480.343 363.805 474.616 361.695Z" fill="#1F1F1F"/>
<path d="M594.278 409.016C585.537 405.701 577.7 402.988 569.261 399.974C571.37 396.357 568.959 392.74 562.63 390.329C558.41 388.822 554.19 388.219 550.272 390.027C548.162 391.836 550.272 393.343 552.984 394.85C558.108 397.563 563.534 400.577 568.658 403.591C571.672 405.399 574.385 407.208 577.097 409.016C593.976 421.073 581.618 435.54 560.218 441.267C552.984 443.076 545.148 443.377 538.215 441.87C527.063 439.459 516.513 433.732 507.17 426.197C494.812 416.25 491.195 401.782 499.936 394.85C508.677 397.261 517.418 399.974 526.761 402.988C526.46 404.194 525.857 405.098 525.556 406.303C524.35 412.332 531.886 419.867 542.134 420.771C546.956 421.073 550.874 420.168 552.984 417.456C555.094 415.044 553.889 412.633 551.176 410.523C548.765 408.715 546.052 407.208 543.339 405.701C537.914 402.385 532.187 399.672 527.666 396.658C518.925 390.931 518.925 387.013 525.556 383.396C532.79 379.478 543.339 375.56 555.396 376.765C566.548 377.669 576.796 381.286 585.838 388.219C595.785 394.85 598.196 402.687 594.278 409.016Z" fill="#1F1F1F"/>
</svg>
