<svg width="960" height="1024" viewBox="0 0 960 1024" fill="none" xmlns="http://www.w3.org/2000/svg">
<path d="M89.5728 520.365C83.392 514.478 96.9308 502.117 101.64 496.23C147.555 435.305 181.696 404.695 215.838 394.394C230.26 389.979 244.387 389.391 259.398 391.451C265.284 392.334 271.171 393.511 277.351 395.277C299.72 401.164 315.908 413.819 327.387 428.83C404.499 462.677 532.236 483.574 633.483 454.436C633.483 453.848 633.483 453.259 633.483 452.67C634.072 448.55 642.608 461.206 644.373 465.032C647.317 470.918 640.842 476.51 641.136 479.748C641.43 483.574 647.905 497.996 652.614 513.007C674.689 584.233 669.98 642.803 659.973 648.396C659.09 668.704 657.618 691.367 654.675 714.913C647.317 770.834 630.834 831.465 589.04 875.908C587.569 877.38 586.392 878.851 584.92 880.029C590.806 902.397 575.207 950.078 558.431 966.266C598.165 965.088 645.551 1001.58 648.788 1004.53C662.622 1017.18 658.207 1018.07 648.788 1018.07C639.37 1018.07 562.551 1014.24 522.229 1013.65C505.747 1013.36 485.733 1012.47 469.251 1011.89C459.244 1011.59 412.446 1011.3 419.804 994.521C428.34 974.507 438.347 947.134 439.524 931.535C413.918 933.007 388.312 931.241 365.354 925.943C358.585 945.368 344.163 961.851 325.032 968.62C380.953 978.333 402.439 998.052 415.684 1014.53C417.45 1018.07 373.89 1019.24 325.915 1021.3C270.288 1023.36 202.593 1026.31 179.636 1021.01C156.679 1015.71 176.104 981.865 180.519 968.326C195.235 923 204.948 875.908 183.756 830.582C176.104 823.224 170.806 815.277 168.452 807.036C140.491 805.27 109.292 799.678 81.0373 787.905C22.4669 763.182 2.74713 727.863 0.0982056 701.08C-2.25635 677.239 38.6547 581.878 89.5728 520.365ZM160.211 729.335C157.856 719.328 156.973 707.555 157.856 697.548C150.203 701.963 144.611 705.789 145.2 709.026C145.789 714.03 150.792 721.388 160.211 729.335Z" fill="#FDFDFF"/>
<path d="M554.016 626.616C606.405 680.477 645.55 741.402 696.174 740.813C751.213 740.225 835.978 645.747 885.13 581.29C891.017 573.637 897.492 567.162 903.378 560.687C913.68 548.914 914.563 535.375 922.804 514.773C927.218 503.883 953.413 462.972 955.768 454.436C963.126 428.241 930.75 438.837 912.208 453.553C877.183 480.925 870.12 511.241 859.23 522.425C843.336 538.613 807.134 560.687 776.23 573.637C746.209 586.293 736.791 593.357 725.901 600.715C725.901 583.939 720.309 564.219 708.536 533.904C694.408 487.4 667.33 429.713 634.66 412.642L554.016 626.616Z" fill="#FDFDFF"/>
<path d="M634.365 412.348C659.088 417.057 690.286 440.014 709.123 502.117C709.712 503.883 711.772 501.528 714.715 504.766C717.07 507.415 720.896 522.425 718.541 527.723C710.006 546.56 665.563 561.276 617.294 568.928C593.748 533.904 597.574 451.199 634.365 412.348Z" fill="#DCDBE1"/>
<path d="M903.379 560.981C913.386 549.503 915.74 534.492 922.215 515.655C929.573 494.17 953.119 462.677 955.474 454.142C962.832 427.947 930.162 438.248 911.914 453.259C884.248 475.627 865.116 513.007 858.936 522.131C856.875 538.318 881.304 563.042 903.379 560.981Z" fill="#FDFDFF"/>
<path d="M858.934 522.131C856.873 538.319 881.597 561.865 903.671 559.804" stroke="#DCDBE1" stroke-width="8.18397" stroke-miterlimit="10" stroke-linecap="round" stroke-linejoin="round"/>
<path d="M952.532 443.252C908.089 470.918 888.664 500.351 867.473 543.028" stroke="#DCDBE1" stroke-width="8.18397" stroke-miterlimit="10" stroke-linecap="round" stroke-linejoin="round"/>
<path d="M709.417 502.117C698.821 512.712 686.46 520.953 673.509 527.723" stroke="#FDFDFF" stroke-width="8.18397" stroke-miterlimit="10" stroke-linecap="round" stroke-linejoin="round"/>
<path d="M699.413 510.947C703.24 514.773 705.005 519.188 705.3 522.131" stroke="#FDFDFF" stroke-width="8.18397" stroke-miterlimit="10" stroke-linecap="round" stroke-linejoin="round"/>
<path d="M685.286 520.954C686.758 522.425 688.229 526.251 688.523 528.312" stroke="#FDFDFF" stroke-width="8.18397" stroke-miterlimit="10" stroke-linecap="round" stroke-linejoin="round"/>
<path d="M664.092 732.867C675.57 738.459 684.106 740.813 696.173 740.813C751.212 740.813 830.679 648.984 885.129 581.29C891.016 573.932 897.491 567.457 903.377 560.687C913.679 548.914 915.444 532.432 922.508 514.478C931.927 491.227 952.235 465.032 954.59 456.497C961.653 430.007 926.629 441.486 911.913 452.965C884.246 474.745 864.821 515.067 858.934 521.836C843.629 538.907 806.839 558.627 775.935 573.049C730.903 593.946 724.428 599.832 713.538 611.605" stroke="#DCDBE1" stroke-width="8.18397" stroke-miterlimit="10" stroke-linecap="round" stroke-linejoin="round"/>
<path d="M725.605 596.006C725.605 585.116 723.545 567.162 709.418 538.318" stroke="#DCDBE1" stroke-width="8.18397" stroke-miterlimit="10" stroke-linecap="round" stroke-linejoin="round"/>
<path d="M634.365 412.348C661.737 418.823 690.875 440.309 709.418 502.117C710.006 503.588 712.361 502.117 715.01 504.766C716.776 506.826 721.485 522.131 718.836 527.723C714.127 537.436 697.939 546.56 679.102 554.212" stroke="#DCDBE1" stroke-width="8.18397" stroke-miterlimit="10" stroke-linecap="round" stroke-linejoin="round"/>
<path opacity="0.23" d="M554.018 626.616C606.407 680.477 645.552 741.402 696.176 740.814C751.215 740.225 835.98 645.747 885.132 581.29C891.019 573.638 897.494 567.162 903.38 560.687C913.681 548.914 916.919 533.61 922.806 514.773C928.398 496.23 953.415 462.972 955.77 454.436C961.656 433.245 941.642 435.305 928.398 443.252C962.539 448.256 921.923 471.507 910.738 502.117C900.731 529.783 892.784 550.092 887.487 557.744C873.359 578.052 851.873 604.247 810.962 643.687C772.112 680.771 732.967 695.193 713.541 698.431C694.116 701.668 677.634 689.896 682.048 660.463C686.169 631.031 687.052 571.283 661.446 537.141L605.819 489.461L554.018 626.616Z" fill="#DCDBE1"/>
<path d="M626.419 83.8825C606.7 77.996 597.281 77.7017 577.562 78.5847C627.597 101.248 653.497 175.417 655.263 211.913C657.029 250.764 648.199 291.381 636.132 327.877C634.072 334.058 630.834 341.416 631.129 348.185C631.129 351.423 633.777 356.721 632.894 359.958C632.6 361.43 628.774 357.31 629.068 358.781C629.068 364.962 631.129 371.731 632.6 377.618C633.189 379.678 636.721 385.565 634.955 384.093C634.366 383.799 632.011 378.795 629.951 379.972C628.774 380.561 632.894 440.898 633.483 454.436C544.303 478.277 412.446 484.163 291.184 441.192C267.05 399.692 236.146 393.511 215.543 391.745C208.774 276.959 233.203 151.871 381.542 57.0991C401.262 44.4431 424.219 31.1986 442.761 25.6064C438.935 31.4929 437.758 38.2623 437.758 38.2623C467.19 32.6702 499.566 13.8334 509.867 0.588867C519.285 9.12426 518.402 22.9575 511.339 31.7872C524.583 23.8405 561.668 18.5426 583.448 27.961C568.143 28.844 559.019 32.0815 554.31 38.5567C576.09 37.3794 590.218 40.0283 608.76 55.3331C596.104 55.0388 583.448 58.2764 575.501 62.9855C598.164 64.4572 612.586 68.872 626.419 83.8825Z" fill="#FDFDFF"/>
<path d="M645.256 188.956C639.959 163.644 627.891 135.389 611.115 131.563C600.814 129.208 591.395 134.212 582.271 139.509C574.03 144.219 566.966 142.158 565.2 136.272C563.729 130.974 566.672 127.442 572.264 123.91C561.668 126.559 558.431 130.974 549.896 134.8C535.768 140.981 527.821 142.158 523.995 141.57C513.105 139.215 502.215 128.914 492.502 125.088C449.237 108.605 416.272 115.669 394.787 172.768C390.078 185.718 383.014 214.856 389.195 247.232C398.319 294.324 414.212 319.636 440.996 348.479C482.79 393.217 579.034 407.933 623.182 327.288C644.079 289.32 654.969 236.342 645.256 188.956Z" fill="#FDFDFF"/>
<path d="M592.573 214.562C606.7 216.033 622.594 238.402 610.526 272.838C601.991 297.855 587.863 312.277 573.147 322.873C548.718 339.944 523.406 336.412 507.807 314.338C491.031 290.792 491.914 262.831 500.744 241.934C510.162 219.565 538.417 206.615 559.314 210.441L592.573 214.562Z" fill="#DCDBE1"/>
<path d="M645.257 189.25C647.612 202.789 651.144 221.626 647.906 244.583C564.318 241.346 577.563 146.279 582.272 139.51C593.751 133.034 601.403 128.914 612.293 132.151C619.946 134.212 637.605 145.985 645.257 189.25Z" fill="#DCDBE1"/>
<path d="M523.701 141.57C518.992 238.697 447.766 256.356 390.078 249.881C383.897 221.332 387.723 193.665 394.493 174.829C401.262 156.58 415.096 125.382 443.351 118.907C458.656 115.375 477.492 118.613 492.797 125.088C504.57 130.091 513.4 137.449 523.701 141.57Z" fill="#DCDBE1"/>
<path d="M215.247 391.451C207.889 247.821 251.744 139.215 381.246 56.5102C400.966 43.8543 423.923 30.6097 442.466 25.0175C438.639 30.904 437.462 37.6735 437.462 37.6735C466.894 32.0813 498.976 13.2446 509.571 0C518.99 8.5354 518.107 22.3686 511.043 31.1983C524.288 23.2516 561.372 17.9538 583.152 27.3721C567.848 28.2551 558.723 31.4927 554.014 37.9678C575.794 36.7905 589.922 39.4394 608.464 54.7443C595.808 54.4499 583.152 57.6875 575.206 62.1024C598.457 64.457 612.879 68.5775 626.712 83.8823C606.993 77.9958 597.574 77.7015 577.855 78.5845C627.89 101.247 653.79 175.417 655.556 211.913C657.322 250.764 648.492 291.381 636.425 327.877C634.365 334.058 631.127 341.416 631.421 348.185C631.421 351.423 634.07 356.721 633.187 359.958C632.893 361.43 629.067 357.309 629.361 358.781C629.361 364.962 631.421 371.731 632.893 377.618C633.482 379.972 637.014 385.564 635.248 384.093C634.659 383.798 632.304 378.795 630.244 379.972C629.067 380.561 630.833 417.351 633.482 454.436" stroke="#DCDBE1" stroke-width="8.18397" stroke-miterlimit="10" stroke-linecap="round" stroke-linejoin="round"/>
<path d="M584.625 225.746C582.859 247.232 577.267 265.774 566.377 281.079C551.366 288.143 534.296 284.317 528.115 262.243" stroke="#FDFDFF" stroke-width="8.18397" stroke-miterlimit="10" stroke-linecap="round" stroke-linejoin="round"/>
<path d="M422.742 182.65L422.741 182.658C422.107 187.868 422.899 191.736 424.617 194.646C426.337 197.56 429.086 199.682 432.675 201.215C439.937 204.318 450.238 204.849 461.014 204.849C462.907 204.849 464.791 204.871 466.649 204.892C473.151 204.966 479.34 205.037 484.539 204.17C487.852 203.618 490.614 202.703 492.712 201.26C494.768 199.844 496.246 197.882 496.966 195.073C498.944 187.013 497.764 180.284 493.222 175.305C488.619 170.259 480.307 166.718 467.382 165.7C454.358 164.823 443.489 165.574 435.718 168.342C428.019 171.083 423.543 175.713 422.742 182.65Z" fill="#FDFDFF" stroke="#DCDBE1" stroke-width="2.94324"/>
<path d="M422.744 182.941L422.737 183.003L422.725 183.064C422.687 183.254 422.654 183.445 422.626 183.637C429.067 178.448 439.609 174.975 454.732 173.949C473.082 172.62 488.457 174.819 497.702 185.079C497.144 180.516 495.124 176.676 491.491 173.64C486.676 169.616 478.864 166.868 467.385 165.995C454.352 165.117 443.484 165.795 435.713 168.528C431.844 169.888 428.809 171.735 426.647 174.09C424.5 176.429 423.152 179.335 422.744 182.941Z" fill="#FDFDFF" stroke="#DCDBE1" stroke-width="2.94324"/>
<path d="M498.393 195.431C495.156 208.087 477.79 206.321 461.014 206.321C439.528 206.321 418.631 204.261 421.28 182.481C423.046 167.176 441.294 162.467 467.489 164.233C493.684 166.293 502.514 178.655 498.393 195.431Z" stroke="#DCDBE1" stroke-width="8.18397" stroke-miterlimit="10" stroke-linecap="round" stroke-linejoin="round"/>
<path d="M477.939 174.527L477.915 174.525L477.891 174.521C469.878 173.453 462.396 179.342 461.596 187.337C460.791 195.388 466.423 202.614 474.454 203.685C482.467 204.754 489.949 198.864 490.749 190.87L490.751 190.846L490.754 190.822C491.823 182.809 485.933 175.326 477.939 174.527Z" fill="#DCDBE1" stroke="#DCDBE1" stroke-width="2.94324"/>
<path d="M459.54 180.715C459.54 183.803 462.044 186.307 465.132 186.307C468.221 186.307 470.725 183.803 470.725 180.715C470.725 177.626 468.221 175.123 465.132 175.123C462.044 175.123 459.54 177.626 459.54 180.715Z" fill="#FDFDFF" stroke="#DCDBE1" stroke-width="2.94324"/>
<path d="M465.133 193.077C465.133 193.727 465.66 194.255 466.311 194.255C466.961 194.255 467.488 193.727 467.488 193.077C467.488 192.426 466.961 191.899 466.311 191.899C465.66 191.899 465.133 192.426 465.133 193.077Z" fill="#FDFDFF" stroke="#DCDBE1" stroke-width="2.94324"/>
<path d="M523.7 141.57C472.488 109.783 426.868 110.077 370.063 169.236" stroke="#DCDBE1" stroke-width="22.3686" stroke-miterlimit="10" stroke-linecap="round" stroke-linejoin="round"/>
<path opacity="0.23" d="M215.249 391.451C221.135 392.334 227.022 393.511 233.202 395.277C264.989 403.813 284.121 425.593 295.599 448.844C283.238 385.565 278.823 321.402 293.833 257.828C309.727 190.133 362.116 121.556 430.399 95.6555C434.52 94.1839 445.41 82.7052 459.538 77.996C453.945 83.5882 455.417 88.0031 461.598 87.1201C470.722 85.6485 483.966 67.989 510.161 65.3401C497.211 75.6415 500.449 84.1769 506.041 84.4712C511.044 84.7655 528.409 71.8153 547.246 71.5209C534.59 75.0528 529.587 86.8258 534.002 87.7087C540.477 88.886 543.714 80.3506 556.076 79.1733C554.604 89.4747 559.902 100.365 571.675 105.368C579.622 108.606 591.983 105.957 595.81 102.425C605.817 112.726 616.118 120.379 628.479 129.503C615.824 108.017 599.047 88.886 577.561 79.1733C597.281 78.2904 606.7 78.2904 626.419 84.4712C612.586 69.1663 598.164 65.0458 574.913 62.6912C582.859 57.982 595.515 55.0388 608.171 55.3331C589.629 40.0283 575.501 37.085 553.721 38.5567C558.43 32.0815 567.554 28.844 582.859 27.961C561.079 18.5426 523.994 24.1348 510.75 31.7872C517.814 23.2518 518.697 9.12426 509.278 0.588867C498.977 13.8334 466.601 32.6702 437.169 38.2623C437.169 38.2623 438.346 31.4929 442.172 25.6064C423.63 31.4929 400.673 44.7374 380.953 57.0991C251.745 139.215 207.891 248.115 215.249 391.451Z" fill="#DCDBE1"/>
<path d="M404.794 390.273V408.522" stroke="#DCDBE1" stroke-width="12.0885" stroke-miterlimit="10" stroke-linecap="round" stroke-linejoin="round"/>
<path d="M388.606 402.929V421.472" stroke="#DCDBE1" stroke-width="12.0885" stroke-miterlimit="10" stroke-linecap="round" stroke-linejoin="round"/>
<path d="M263.518 1022.78C271.465 1022.48 279.706 1022.19 287.947 1021.89C291.773 1021.89 295.599 1021.6 299.425 1021.6C308.255 1021.3 317.085 1021.01 325.62 1020.72C326.798 1020.72 328.269 1020.72 329.447 1020.42C330.33 1020.42 331.212 1020.42 332.095 1020.42C336.805 1020.13 341.219 1020.13 345.634 1019.83C346.517 1019.83 347.695 1019.83 348.578 1019.83C356.524 1019.54 364.471 1019.24 371.535 1018.95C372.712 1018.95 373.595 1018.95 374.772 1018.95C375.95 1018.95 377.127 1018.95 378.304 1018.66C379.776 1018.66 381.248 1018.36 382.425 1018.36C383.896 1018.36 385.074 1018.07 386.545 1018.07C388.017 1018.07 389.489 1017.77 390.96 1017.77C392.432 1017.77 393.903 1017.48 395.375 1017.48C398.024 1017.18 400.673 1017.18 403.028 1016.89C404.205 1016.89 405.088 1016.59 406.265 1016.59H406.559C407.442 1016.59 408.325 1016.3 408.914 1016.3C409.503 1016.3 410.091 1016.01 410.386 1016.01C410.68 1016.01 410.974 1016.01 410.974 1016.01C412.152 1015.71 413.034 1015.71 413.623 1015.42C413.917 1015.42 413.917 1015.12 414.212 1015.12C414.506 1015.12 414.506 1014.83 414.8 1014.83L415.095 1014.53C415.095 1014.24 415.095 1014.24 415.095 1013.95C413.329 1011.59 411.269 1009.24 408.914 1006.88C408.031 1006 407.442 1005.12 406.559 1004.53C405.676 1003.64 404.793 1002.76 403.91 1002.17C403.027 1001.29 402.145 1000.7 401.262 999.818C395.081 994.521 387.134 988.929 377.127 984.219C375.361 983.336 373.595 982.453 371.535 981.57C371.24 981.57 371.24 981.276 370.946 981.276C370.063 980.982 369.18 980.393 368.003 980.099C366.826 979.51 365.354 978.922 363.882 978.627C362.705 978.039 361.528 977.744 360.056 977.45C359.173 977.156 358.29 976.861 357.113 976.567C355.936 976.273 355.053 975.978 353.875 975.684C353.287 975.39 352.404 975.39 351.815 975.095C350.932 974.801 350.049 974.507 349.166 974.212C348.283 973.918 347.4 973.624 346.517 973.624C343.574 972.741 340.336 972.152 337.099 971.269C335.333 970.975 333.861 970.68 332.095 970.092C329.447 969.503 327.092 969.209 324.149 968.62C300.308 977.744 275.291 995.404 263.518 1022.78Z" fill="#FDFDFF"/>
<path d="M515.164 1013.36C517.224 1013.36 519.579 1013.36 521.639 1013.65C561.961 1014.24 638.78 1018.36 648.198 1018.36C652.025 1018.36 655.262 1018.07 656.439 1017.18C657.911 1016.01 657.028 1013.65 652.319 1008.65C652.025 1008.35 651.73 1008.06 651.436 1007.77C651.142 1007.47 650.847 1007.18 650.553 1006.88C649.964 1006.29 649.081 1005.41 648.493 1004.82C645.255 1001.88 597.575 965.088 558.135 966.56C541.359 977.155 524.288 993.343 515.164 1013.36Z" fill="#FDFDFF"/>
<path d="M95.7517 523.014C131.071 526.546 202.003 578.935 218.19 631.325C218.19 631.619 218.779 631.619 218.779 631.913C214.364 648.984 207.301 664.289 192.29 676.945C182.872 684.892 168.155 691.661 157.56 697.548C157.265 706.966 158.148 719.622 159.914 729.04C169.921 737.281 184.638 746.111 204.652 753.764C209.066 755.235 213.481 755.824 218.19 755.235C218.485 755.235 218.779 755.235 219.368 755.235C219.662 755.235 220.251 755.235 220.545 755.235C228.492 754.352 236.733 751.703 245.563 749.643C247.329 749.349 249.095 748.76 251.155 748.466C252.038 748.466 252.626 748.171 253.509 748.171C254.392 747.877 255.57 747.877 256.453 747.877H256.747C257.336 747.877 257.924 747.877 258.513 747.877C259.102 747.877 259.69 747.877 260.279 747.877C270.286 747.288 280.882 749.054 292.655 755.824C312.08 767.008 320.027 790.554 320.91 798.207C321.498 804.682 305.31 788.788 270.58 798.207C268.52 798.795 266.46 799.384 264.105 800.267C259.69 801.738 254.981 803.504 249.978 805.859C248.8 806.448 247.623 807.036 246.151 807.625C244.974 808.214 243.502 809.096 242.325 809.685C241.442 810.274 240.559 810.568 239.676 811.157C238.793 811.451 237.91 812.04 237.027 812.334C236.733 812.628 236.144 812.628 235.85 812.923C234.084 813.511 232.612 814.1 230.846 814.394C230.258 814.689 229.375 814.689 228.786 814.689C226.432 814.983 224.371 815.277 222.017 815.277C208.478 814.983 193.762 808.802 168.744 807.036H168.45C179.928 848.83 267.048 878.557 322.676 887.975C372.122 896.216 451.001 898.865 511.632 887.975C573.44 876.791 608.17 858.543 621.12 844.415C664.091 798.501 657.028 703.434 659.382 649.279C669.095 643.392 673.215 584.822 652.024 513.89C647.609 498.879 641.134 484.163 640.545 480.631C640.251 477.393 646.432 472.096 643.783 465.915C641.723 461.5 631.716 446.784 633.187 455.319C530.468 484.751 404.792 462.089 327.09 429.713C315.612 414.702 299.424 402.046 277.055 396.16C270.874 394.394 264.988 393.217 259.102 392.334C208.183 384.976 166.684 410.288 101.344 496.819C96.0461 503 77.5036 519.482 95.7517 523.014Z" fill="#DCDBE1"/>
<path d="M483.821 562.421C500.366 562.134 515.062 561.158 529.558 561.09C541.39 561.011 545.222 569.186 545.188 577.182C545.173 588.135 539.484 595.846 529.03 600.514C528.476 600.869 527.891 600.932 526.752 601.349C538.361 607.51 539.568 621.589 547.674 633.748C538.831 634.099 531.16 634.326 522.934 634.908C518.255 627.12 514.161 619.269 510.683 611.648C508.751 607.415 506.359 604.414 500.014 605.979C498.965 615.563 498.533 625.377 499.95 635.882C492.279 636.109 485.223 636.566 477.876 637.054C474.05 612.303 481.407 586.95 483.821 562.421ZM504.624 577.072C503.954 581.879 503.283 586.687 502.382 592.111C507.357 591.58 511.778 591.404 516.43 590.611C520.496 589.881 522.848 586.966 523.351 583.361C523.823 579.462 522.048 576.692 517.888 576.544C513.697 576.103 509.307 576.572 504.624 577.072ZM596.66 557.479C587.505 554.905 578.401 555.581 569.286 558.921C559.586 562.325 553.635 570.36 552.231 579.39C551.057 587.803 554.734 594.514 563.689 597.998C568.329 599.871 573.461 600.803 578.331 602.059C580.766 602.687 583.201 603.316 585.667 604.236C588.457 605.418 590.17 607.603 589.929 610.885C589.718 614.46 587.596 616.758 584.501 618.273C577.727 621.364 570.59 618.278 568.346 611.117C567.897 609.685 567.772 608.514 567.323 607.082C560.299 607.832 553.861 608.519 547.422 609.207C546.947 621.393 554.155 630.688 564.512 633.43C572.433 635.545 580.429 635.579 588.498 633.534C593.411 632.417 598.753 629.775 602.831 626.38C615.617 615.839 617.789 594.591 600.756 587.53C597.965 586.348 595.206 585.458 592.479 584.861C587.316 583.637 582.477 582.673 577.315 581.448C574.587 580.851 572.413 579.899 572.3 576.064C573.911 571.748 577.005 570.233 580.841 570.12C586.757 570.08 590.027 572.987 590.683 579.133C597.415 578.415 604.146 577.696 611.431 576.622C610.599 566.055 606.107 560.023 596.66 557.479Z" fill="#FDFDFF"/>
<path opacity="0.23" d="M418.92 1000.11C419.214 1000.41 419.214 1000.7 419.508 1001.29C419.803 1001.88 420.391 1002.76 421.274 1003.35C421.863 1003.94 422.746 1004.53 423.629 1005.12C424.218 1005.41 424.512 1005.7 425.101 1006C426.572 1006.59 428.044 1007.18 429.81 1007.77C433.636 1008.94 437.757 1009.83 442.171 1010.41C442.76 1010.41 443.643 1010.71 444.232 1010.71C444.82 1010.71 445.703 1011 446.292 1011C446.881 1011 447.764 1011.3 448.352 1011.3C453.356 1011.89 458.065 1011.89 461.891 1012.18C462.48 1012.18 462.774 1012.18 463.363 1012.18C463.657 1012.18 463.951 1012.18 464.246 1012.18C464.54 1012.18 465.129 1012.18 465.423 1012.18C466.6 1012.18 467.483 1012.18 468.072 1012.18C468.955 1012.18 469.838 1012.18 470.721 1012.18C471.604 1012.18 472.487 1012.18 473.37 1012.18C475.724 1012.18 478.373 1012.47 480.728 1012.47C482.788 1012.47 484.554 1012.77 486.614 1012.77C488.086 1012.77 489.558 1012.77 490.735 1013.06C493.972 1013.06 497.21 1013.36 500.447 1013.36C505.157 1013.65 509.866 1013.65 514.281 1013.65C516.341 1013.65 518.696 1013.65 520.756 1013.95C561.078 1014.53 637.897 1018.66 647.315 1018.66C647.904 1018.66 648.492 1018.66 649.081 1018.66C649.375 1018.66 649.964 1018.66 650.258 1018.66C650.553 1018.66 650.553 1018.66 650.847 1018.66C651.141 1018.66 651.141 1018.66 651.436 1018.66C652.024 1018.66 652.613 1018.66 652.907 1018.36C653.202 1018.36 653.202 1018.36 653.496 1018.36C653.79 1018.36 654.085 1018.36 654.085 1018.07C654.085 1018.07 654.085 1018.07 654.379 1018.07H654.673C654.968 1018.07 654.968 1018.07 654.968 1017.77C655.262 1017.77 655.262 1017.48 655.262 1017.48L655.556 1017.18C655.851 1016.89 655.851 1016.3 655.851 1015.71V1015.42C655.851 1015.12 655.556 1014.83 655.556 1014.53C655.556 1014.53 655.556 1014.53 655.556 1014.24C655.556 1014.24 655.556 1013.95 655.262 1013.95C655.262 1013.65 654.968 1013.65 654.968 1013.36C654.673 1013.06 654.673 1012.77 654.379 1012.47L654.085 1012.18C653.79 1011.89 653.202 1011.3 652.907 1010.71C652.613 1010.41 652.319 1010.12 652.319 1009.83C652.024 1009.53 651.73 1009.24 651.436 1008.94C651.141 1008.65 650.847 1008.35 650.553 1008.06C650.258 1007.77 649.964 1007.47 649.67 1007.18C649.081 1006.59 648.198 1005.7 647.609 1005.12C647.609 1005.12 647.61 1005.12 647.315 1004.82C647.315 1004.82 647.315 1004.82 647.021 1004.53L646.727 1004.23L646.432 1003.94C645.844 1003.35 644.961 1002.76 643.783 1001.88L643.489 1001.58L643.195 1001.29C636.719 996.581 624.064 987.751 608.759 980.099C608.464 979.804 607.876 979.804 607.581 979.51C604.638 978.038 601.401 976.567 598.457 975.39C597.869 975.095 597.574 975.095 596.986 974.801C596.691 974.801 596.691 974.801 596.691 974.506C594.926 973.918 593.16 973.035 591.099 972.446C588.45 971.563 585.801 970.68 583.153 969.797C582.27 969.503 581.387 969.209 580.798 969.209C578.443 968.62 576.089 968.031 573.44 967.443C573.146 967.443 573.146 967.443 572.851 967.443C572.851 967.443 572.851 967.443 572.557 967.443C571.968 967.443 571.38 967.148 570.497 967.148C570.202 967.148 569.908 967.148 569.614 967.148C569.319 967.148 569.319 967.148 569.025 967.148C568.731 967.148 568.731 967.148 568.436 967.148C567.848 967.148 567.259 966.854 566.67 966.854C566.376 966.854 566.082 966.854 565.787 966.854C564.904 966.854 563.727 966.56 562.844 966.56C561.667 966.56 560.49 966.56 559.607 966.56C559.018 966.56 558.135 966.56 557.546 966.56C557.841 966.265 558.429 965.677 559.018 965.088C560.784 963.322 562.55 960.968 564.316 958.613C578.443 938.01 589.922 899.454 584.036 880.029C551.66 908.872 495.15 927.415 438.934 930.652V930.947C438.051 943.308 431.576 963.028 424.512 980.687C423.335 984.219 421.863 987.457 420.686 990.4C420.097 991.577 419.508 993.049 419.214 994.226C418.331 996.581 418.331 998.641 418.92 1000.11Z" fill="#DCDBE1"/>
<path opacity="0.23" d="M170.509 1014.53C171.098 1015.42 171.687 1016.01 172.275 1016.59C174.041 1018.36 176.396 1019.54 179.339 1020.13C194.055 1023.66 227.02 1023.66 263.516 1022.48C264.104 1022.48 264.399 1022.48 264.987 1022.48C268.225 1022.48 271.757 1022.19 275.289 1022.19C282.058 1021.89 288.828 1021.6 295.597 1021.6C297.363 1021.6 298.835 1021.6 300.601 1021.3C302.367 1021.3 304.132 1021.3 306.193 1021.01C308.547 1021.01 310.902 1020.72 313.257 1020.72C317.377 1020.42 321.498 1020.42 325.618 1020.13C328.856 1020.13 331.799 1019.83 334.742 1019.83C335.919 1019.83 337.391 1019.83 338.568 1019.54H338.863C339.451 1019.54 340.04 1019.54 340.629 1019.54C342.1 1019.54 343.572 1019.54 344.749 1019.24C349.164 1018.95 353.285 1018.95 357.405 1018.66C358.288 1018.66 359.171 1018.66 360.054 1018.66C360.348 1018.66 360.643 1018.66 360.937 1018.66C361.526 1018.66 362.114 1018.66 362.997 1018.66C365.058 1018.66 366.823 1018.36 368.589 1018.36C369.472 1018.36 370.355 1018.36 370.944 1018.36C371.827 1018.36 373.004 1018.36 373.887 1018.36C377.125 1018.36 380.068 1018.07 382.717 1018.07C383.306 1018.07 383.894 1018.07 384.483 1018.07C385.072 1018.07 385.366 1018.07 385.955 1018.07C386.249 1018.07 410.383 1015.71 410.678 1015.71C373.593 1001 309.136 996.875 278.526 998.641H278.232C264.693 999.524 253.803 1000.7 247.917 1001C227.314 1001.88 219.661 997.17 228.491 967.737C236.732 940.071 252.331 901.22 251.743 868.256C230.257 860.603 204.062 850.891 182.282 829.111C205.828 874.142 193.172 925.354 179.633 967.148C176.69 978.627 163.446 1002.76 170.509 1014.53Z" fill="#DCDBE1"/>
<path opacity="0.23" d="M327.093 912.404C317.968 906.518 299.72 895.039 294.128 887.387C403.028 935.656 506.042 913.582 566.378 892.685C510.751 923.883 465.131 931.535 422.159 931.535C379.188 931.241 351.227 922.117 327.093 912.404Z" fill="#DCDBE1"/>
<path opacity="0.23" d="M657.321 669.292C620.825 666.644 553.425 658.402 551.953 658.697C550.482 658.991 531.645 663.406 491.911 669.292C430.986 678.416 411.855 679.594 394.196 671.058C381.54 665.172 363.586 638.094 345.927 594.534C370.944 632.208 393.018 654.871 406.557 655.459C456.592 657.519 542.535 648.984 552.248 647.512C559.311 646.63 633.481 652.516 658.793 643.686" fill="#FDFDFF"/>
<path opacity="0.23" d="M168.448 806.153C169.92 809.391 171.686 813.511 172.863 816.749C182.87 842.649 252.33 877.968 355.932 891.801C425.687 901.22 481.314 897.393 536.059 880.323C389.485 905.34 273.816 861.486 263.22 850.89C257.628 845.298 254.685 825.873 252.625 803.798C247.327 806.447 241.735 809.096 237.32 811.451C219.955 820.575 194.349 806.153 168.448 806.153Z" fill="#DCDBE1"/>
<path opacity="0.23" d="M160.503 729.334C177.868 743.462 199.942 751.703 205.24 753.763C218.485 758.767 233.201 751.703 250.271 748.76C248.8 736.104 248.506 722.565 249.389 710.498C251.154 688.129 255.275 654.282 268.225 640.154C281.176 626.027 298.246 606.013 307.959 593.357C274.406 601.303 261.456 611.016 248.211 619.552C244.091 630.147 236.438 646.629 219.073 632.207C214.658 649.278 207.595 664.289 192.584 676.945C190.818 678.416 159.914 696.076 157.854 697.547C157.559 712.264 159.031 719.033 160.503 729.334Z" fill="#DCDBE1"/>
<path opacity="0.23" d="M95.1634 523.013C103.699 527.134 115.472 528.606 122.83 533.021C135.486 539.79 139.018 506.531 177.868 461.5C215.542 418.234 274.407 390.568 308.254 410.876C299.424 404.107 288.829 398.809 276.467 395.571C256.453 390.273 238.205 388.802 220.251 393.217C184.638 401.752 149.025 432.362 100.756 496.524C95.752 502.999 78.3869 515.067 95.1634 523.013Z" fill="#DCDBE1"/>
<path opacity="0.23" d="M0.100647 700.785C2.45523 723.742 17.4658 753.469 59.5541 777.015C59.8484 777.309 59.8485 777.309 60.1428 777.309C61.6144 778.192 63.3803 779.075 64.8519 779.958C65.1462 779.958 65.1463 780.253 65.4406 780.253C68.3838 781.724 71.6214 783.49 74.859 784.962C76.6249 785.845 78.3908 786.433 80.1568 787.316C108.412 799.089 140.199 804.387 168.16 806.448C191.117 807.919 205.244 813.511 217.9 814.394C219.078 814.394 220.549 814.689 221.727 814.689C227.907 814.689 234.088 813.217 240.858 809.391C260.577 798.501 276.471 795.263 288.832 794.969C290.304 794.969 292.07 794.969 293.247 794.969C306.492 795.263 314.733 799.384 317.97 799.678C318.853 799.678 319.148 799.089 318.854 798.206C318.854 797.618 318.853 797.029 318.559 796.44C289.715 774.072 252.042 787.905 234.677 794.086C215.251 801.15 212.014 789.671 194.943 788.199C177.872 786.728 131.663 788.199 86.6319 769.951C41.6004 751.703 29.5331 708.732 30.1217 692.544C30.7104 676.062 66.0292 616.02 78.0965 607.19C82.8057 579.524 96.3446 554.8 115.181 534.492C108.706 530.666 101.348 527.134 93.6957 523.602C93.6957 523.602 93.4014 523.602 93.4014 523.308C91.3411 522.719 89.8695 522.131 88.9865 521.248C38.3628 582.173 -2.25394 677.534 0.100647 700.785Z" fill="#DCDBE1"/>
<path opacity="0.23" d="M648.79 419.117C642.02 423.532 640.843 432.362 641.432 440.309C642.02 448.255 651.438 457.085 650.556 468.564C649.378 480.042 675.867 527.134 661.446 550.386C657.619 532.726 651.439 509.769 646.729 497.407C642.02 485.046 639.96 482.986 640.549 479.454C641.137 475.922 644.963 472.39 644.375 468.564C643.786 464.737 639.371 455.613 633.779 451.493C632.013 441.78 630.541 422.649 629.953 410.288C640.254 413.525 643.492 415.585 648.79 419.117Z" fill="#DCDBE1"/>
<path d="M121.946 723.743L122.24 741.991" stroke="#DCDBE1" stroke-width="12.0885" stroke-miterlimit="10" stroke-linecap="round" stroke-linejoin="round"/>
<path d="M140.784 738.165L141.078 756.413" stroke="#DCDBE1" stroke-width="12.0885" stroke-miterlimit="10" stroke-linecap="round" stroke-linejoin="round"/>
<path d="M633.189 454.436C631.717 446.195 642.019 460.911 643.785 465.032C646.728 470.918 640.253 476.51 640.547 479.748C640.841 483.574 647.316 497.996 652.026 513.007C674.1 584.233 669.391 642.803 659.384 648.396C656.441 709.615 664.976 792.026 621.122 843.532C590.218 880.028 422.747 904.163 322.677 887.092C266.756 877.674 179.047 848.242 168.157 806.153" stroke="#FDFDFF" stroke-width="8.18397" stroke-miterlimit="10" stroke-linecap="round" stroke-linejoin="round"/>
<path d="M327.091 912.404C401.849 949.783 536.944 930.358 588.451 875.908C594.631 869.433 605.227 857.071 606.404 855.305" stroke="#DCDBE1" stroke-width="8.18397" stroke-miterlimit="10" stroke-linecap="round" stroke-linejoin="round"/>
<path d="M633.19 454.436C531.354 483.574 404.206 463.266 327.094 428.83" stroke="#FDFDFF" stroke-width="8.18397" stroke-miterlimit="10" stroke-linecap="round" stroke-linejoin="round"/>
<path d="M383.896 477.099C445.998 500.939 594.631 507.12 638.191 478.571" stroke="#FDFDFF" stroke-width="8.18397" stroke-miterlimit="10" stroke-linecap="round" stroke-linejoin="round"/>
<path d="M612.584 461.206C614.35 466.503 616.116 470.33 616.116 476.216" stroke="#FDFDFF" stroke-width="8.18397" stroke-miterlimit="10" stroke-linecap="round" stroke-linejoin="round"/>
<path d="M580.212 467.681C582.567 472.39 583.155 478.865 583.155 484.163" stroke="#FDFDFF" stroke-width="8.18397" stroke-miterlimit="10" stroke-linecap="round" stroke-linejoin="round"/>
<path d="M543.715 471.213V485.635" stroke="#FDFDFF" stroke-width="8.18397" stroke-miterlimit="10" stroke-linecap="round" stroke-linejoin="round"/>
<path d="M511.046 470.918V472.979V474.45V476.511V477.982V479.454V480.925" stroke="#FDFDFF" stroke-width="8.18397" stroke-miterlimit="10" stroke-linecap="round" stroke-linejoin="round"/>
<path d="M529.587 472.684V474.156V475.628V477.099V478.276V479.748" stroke="#FDFDFF" stroke-width="8.18397" stroke-miterlimit="10" stroke-linecap="round" stroke-linejoin="round"/>
<path d="M419.216 459.734V461.206V462.677V465.326V466.798" stroke="#FDFDFF" stroke-width="8.18397" stroke-miterlimit="10" stroke-linecap="round" stroke-linejoin="round"/>
<path d="M402.732 456.497V458.851V460.911V462.383" stroke="#FDFDFF" stroke-width="8.18397" stroke-miterlimit="10" stroke-linecap="round" stroke-linejoin="round"/>
<path d="M408.618 1013.95C384.778 1001.88 355.934 993.343 327.385 989.811C315.023 988.34 302.662 987.751 290.889 988.34" stroke="#DCDBE1" stroke-width="8.18397" stroke-miterlimit="10" stroke-linecap="round" stroke-linejoin="round"/>
<path d="M650.554 1014.24C635.249 1001.58 566.377 975.978 540.771 980.393" stroke="#DCDBE1" stroke-width="8.18397" stroke-miterlimit="10" stroke-linecap="round" stroke-linejoin="round"/>
<path d="M324.442 968.031C299.425 978.038 275.29 996.875 263.517 1020.72" stroke="#DCDBE1" stroke-width="8.18397" stroke-miterlimit="10" stroke-linecap="round" stroke-linejoin="round"/>
<path d="M557.548 966.265C540.771 977.45 525.466 990.694 516.637 1008.06" stroke="#DCDBE1" stroke-width="8.18397" stroke-miterlimit="10" stroke-linecap="round" stroke-linejoin="round"/>
<path d="M222.313 814.394C228.788 814.394 235.264 813.217 242.622 809.097C296.483 779.664 321.5 805.565 320.912 797.618C320.029 789.671 312.376 766.42 292.657 755.235C262.636 737.87 238.795 753.764 218.193 755.235C228.788 768.774 239.09 789.083 222.313 814.394Z" fill="#FDFDFF"/>
<path d="M219.37 630.736C214.956 648.396 207.892 663.995 192.587 676.945C176.694 690.19 144.318 701.08 145.201 709.026C146.673 719.622 166.098 739.342 204.949 753.763C228.495 762.593 256.161 734.338 292.657 755.235C312.083 766.419 320.029 789.965 320.912 797.618C321.795 805.565 296.483 779.37 242.622 809.096C220.254 821.458 206.126 808.802 169.041 806.153C141.08 804.387 109.293 799.089 81.0382 787.022C22.7621 762.299 2.74804 726.98 0.0991238 700.197C-2.25547 676.945 38.067 582.173 89.2793 520.659" stroke="#DCDBE1" stroke-width="8.18397" stroke-miterlimit="10" stroke-linecap="round" stroke-linejoin="round"/>
<path d="M218.193 631.325C235.852 644.864 240.267 634.563 248.214 618.375" stroke="#FDFDFF" stroke-width="8.18397" stroke-miterlimit="10" stroke-linecap="round" stroke-linejoin="round"/>
<path d="M310.61 592.474C300.015 594.829 283.533 600.715 270.877 606.602C259.692 611.605 251.746 616.903 247.625 619.552" stroke="#FDFDFF" stroke-width="8.18397" stroke-miterlimit="10" stroke-linecap="round" stroke-linejoin="round"/>
<path d="M270.876 606.602C277.94 597.478 286.181 585.116 295.894 578.641" stroke="#FDFDFF" stroke-width="8.18397" stroke-miterlimit="10" stroke-linecap="round" stroke-linejoin="round"/>
<path d="M204.948 603.658C166.685 550.386 121.36 529.194 95.7534 523.014C77.7996 519.482 96.342 503 101.64 496.23C166.98 409.699 208.479 384.387 259.398 391.451C265.284 392.334 271.17 393.511 277.351 395.277C309.138 403.812 328.269 425.592 339.748 448.844C346.517 462.383 350.344 476.51 352.698 488.578" stroke="#DCDBE1" stroke-width="8.18397" stroke-miterlimit="10" stroke-linecap="round" stroke-linejoin="round"/>
<path d="M245.271 617.786C232.909 578.641 198.473 533.021 151.087 515.95" stroke="#FDFDFF" stroke-width="8.18397" stroke-miterlimit="10" stroke-linecap="round" stroke-linejoin="round"/>
<path d="M232.025 592.768C228.199 596.3 224.667 598.36 219.958 600.715" stroke="#FDFDFF" stroke-width="8.18397" stroke-miterlimit="10" stroke-linecap="round" stroke-linejoin="round"/>
<path d="M214.659 568.045L204.946 575.698" stroke="#FDFDFF" stroke-width="8.18397" stroke-miterlimit="10" stroke-linecap="round" stroke-linejoin="round"/>
<path d="M196.413 547.148L188.466 556.567" stroke="#FDFDFF" stroke-width="8.18397" stroke-miterlimit="10" stroke-linecap="round" stroke-linejoin="round"/>
<path d="M364.468 925.355C357.699 945.074 343.865 961.262 324.44 968.031C380.361 977.744 401.847 997.464 415.092 1013.95C416.858 1017.48 373.298 1018.66 325.323 1020.72C269.696 1022.78 202.001 1025.72 179.044 1020.42C156.087 1015.12 175.512 981.276 179.927 967.737C194.937 921.823 204.944 875.614 182.576 829.699" stroke="#DCDBE1" stroke-width="8.18397" stroke-miterlimit="10" stroke-linecap="round" stroke-linejoin="round"/>
<path d="M584.328 880.323C590.803 902.397 574.616 949.783 557.839 966.266C597.573 965.088 644.959 1001.58 648.197 1004.53C662.03 1017.18 657.615 1018.07 648.197 1018.07C638.778 1018.07 561.96 1014.24 521.637 1013.36C505.155 1013.06 485.141 1012.18 468.659 1011.59C458.652 1011.3 411.854 1011 419.213 993.932C427.748 973.918 438.049 946.252 439.227 930.652" stroke="#DCDBE1" stroke-width="8.18397" stroke-miterlimit="10" stroke-linecap="round" stroke-linejoin="round"/>
<path d="M320.911 797.618C301.191 769.951 266.167 765.536 242.621 771.717" stroke="#DCDBE1" stroke-width="8.18397" stroke-miterlimit="10" stroke-linecap="round" stroke-linejoin="round"/>
<path d="M218.191 755.235C228.787 768.774 239.088 789.082 222.312 814.394" stroke="#DCDBE1" stroke-width="8.18397" stroke-miterlimit="10" stroke-linecap="round" stroke-linejoin="round"/>
<path d="M566.379 281.08C568.733 283.434 571.971 286.083 577.269 285.789" stroke="#FDFDFF" stroke-width="8.18397" stroke-miterlimit="10" stroke-linecap="round" stroke-linejoin="round"/>
<path d="M647.326 202.336L647.326 202.336L647.327 202.326C648.176 194.966 646.6 189.646 643.025 185.972C639.403 182.25 633.486 179.959 625.117 179.238L625.107 179.237L625.097 179.236C614.904 178.217 606.546 179.05 600.764 181.889C597.896 183.297 595.681 185.188 594.16 187.584C592.641 189.976 591.761 192.955 591.69 196.622C591.696 202.7 595.45 207.802 601.385 211.349C607.323 214.898 615.264 216.757 623.096 216.331C630.092 215.884 635.824 215.442 640.017 213.552C642.063 212.629 643.693 211.379 644.904 209.635C646.12 207.883 646.978 205.54 647.326 202.336Z" fill="#FDFDFF" stroke="#DCDBE1" stroke-width="2.94324"/>
<path d="M625.188 179.242L625.174 179.242L625.159 179.241C614.931 178.657 605.78 179.634 599.674 182.93C596.657 184.558 594.43 186.726 593.136 189.523C592.177 191.596 591.694 194.093 591.848 197.098C594.216 194.461 596.907 192.373 600.29 190.756C604.738 188.628 610.298 187.353 617.729 186.61C625.568 185.723 632.241 185.688 637.714 187.564C641.449 188.844 644.559 190.991 647.09 194.22C646.287 190.36 644.588 187.304 642.118 184.99C638.42 181.527 632.78 179.529 625.188 179.242Z" fill="#FDFDFF" stroke="#DCDBE1" stroke-width="2.94324"/>
<path d="M633.484 188.367C626.644 188.367 621.122 193.889 621.122 200.729C621.122 207.569 626.644 213.091 633.484 213.091C640.324 213.091 645.846 207.569 645.846 200.729C645.846 193.889 640.324 188.367 633.484 188.367Z" fill="#DCDBE1" stroke="#DCDBE1" stroke-width="2.94324"/>
<path d="M648.789 202.495C646.729 215.739 636.722 216.917 623.183 217.8C606.701 218.977 590.513 210.147 590.218 196.608C590.218 181.009 604.64 176.006 625.243 177.772C642.019 178.949 651.438 185.424 648.789 202.495Z" stroke="#DCDBE1" stroke-width="7.71129" stroke-miterlimit="10" stroke-linecap="round" stroke-linejoin="round"/>
<path d="M618.474 194.548C618.474 197.149 620.583 199.258 623.183 199.258C625.784 199.258 627.893 197.149 627.893 194.548C627.893 191.948 625.784 189.839 623.183 189.839C620.583 189.839 618.474 191.948 618.474 194.548Z" fill="#FDFDFF" stroke="#DCDBE1" stroke-width="2.94324"/>
<path d="M624.656 204.85C624.656 205.338 625.052 205.733 625.539 205.733C626.027 205.733 626.423 205.338 626.423 204.85C626.423 204.362 626.027 203.966 625.539 203.966C625.052 203.966 624.656 204.362 624.656 204.85Z" fill="#FDFDFF" stroke="#DCDBE1" stroke-width="2.94324"/>
<path d="M609.938 219.86C611.115 211.913 600.52 203.378 586.392 200.729C572.265 198.08 559.609 202.495 558.431 210.442C557.254 218.389 567.85 226.924 581.977 229.573C596.105 232.222 608.466 227.807 609.938 219.86Z" fill="#FDFDFF"/>
<path d="M577.266 141.57C604.05 125.382 627.301 128.031 658.794 168.942" stroke="#DCDBE1" stroke-width="22.3686" stroke-miterlimit="10" stroke-linecap="round" stroke-linejoin="round"/>
<path d="M157.856 697.253C156.973 707.849 157.856 718.445 160.211 729.335" stroke="#DCDBE1" stroke-width="8.18397" stroke-miterlimit="10" stroke-linecap="round" stroke-linejoin="round"/>
</svg>
