<svg width="960" height="1024" viewBox="0 0 960 1024" fill="none" xmlns="http://www.w3.org/2000/svg">
<path d="M89.5728 520.365C83.392 514.478 96.9308 502.117 101.64 496.23C147.555 435.305 181.696 404.696 215.838 394.394C230.26 389.979 244.387 389.391 259.398 391.451C265.284 392.334 271.171 393.511 277.351 395.277C299.72 401.164 315.908 413.82 327.387 428.83C404.499 462.677 532.236 483.574 633.483 454.436C633.483 453.848 633.483 453.259 633.483 452.67C634.072 448.55 642.608 461.206 644.373 465.032C647.317 470.918 640.842 476.511 641.136 479.748C641.43 483.574 647.905 497.996 652.614 513.007C674.689 584.233 669.98 642.804 659.973 648.396C659.09 668.704 657.618 691.367 654.675 714.913C647.317 770.835 630.834 831.465 589.04 875.908C587.569 877.38 586.392 878.851 584.92 880.029C590.806 902.397 575.207 950.078 558.431 966.266C598.165 965.088 645.551 1001.58 648.788 1004.53C662.622 1017.18 658.207 1018.07 648.788 1018.07C639.37 1018.07 562.551 1014.24 522.229 1013.65C505.747 1013.36 485.733 1012.47 469.251 1011.89C459.244 1011.59 412.446 1011.3 419.804 994.521C428.34 974.507 438.347 947.135 439.524 931.535C413.918 933.007 388.312 931.241 365.354 925.943C358.585 945.369 344.163 961.851 325.032 968.62C380.953 978.333 402.439 998.053 415.684 1014.53C417.45 1018.07 373.89 1019.24 325.915 1021.3C270.288 1023.36 202.593 1026.31 179.636 1021.01C156.679 1015.71 176.104 981.865 180.519 968.326C195.235 923 204.948 875.908 183.756 830.582C176.104 823.224 170.806 815.277 168.452 807.036C140.491 805.27 109.292 799.678 81.0373 787.905C22.4669 763.182 2.74713 727.863 0.0982056 701.08C-2.25635 677.239 38.6547 581.879 89.5728 520.365ZM160.211 729.335C157.856 719.328 156.973 707.555 157.856 697.548C150.203 701.963 144.611 705.789 145.2 709.026C145.789 714.03 150.792 721.388 160.211 729.335Z" fill="#303032"/>
<path d="M554.016 626.616C606.405 680.477 645.55 741.402 696.174 740.813C751.213 740.225 835.978 645.747 885.13 581.29C891.017 573.637 897.492 567.162 903.378 560.687C913.68 548.914 914.563 535.375 922.804 514.773C927.218 503.883 953.413 462.972 955.768 454.436C963.126 428.241 930.75 438.837 912.208 453.553C877.183 480.925 870.12 511.241 859.23 522.425C843.336 538.613 807.134 560.687 776.23 573.637C746.209 586.293 736.791 593.357 725.901 600.715C725.901 583.939 720.309 564.219 708.536 533.904C694.408 487.401 667.33 429.713 634.66 412.642L554.016 626.616Z" fill="#303032"/>
<path d="M634.365 412.348C659.088 417.057 690.286 440.015 709.123 502.117C709.712 503.883 711.772 501.528 714.715 504.766C717.07 507.415 720.896 522.425 718.541 527.723C710.006 546.56 665.563 561.276 617.294 568.928C593.748 533.904 597.574 451.199 634.365 412.348Z" fill="#1F1F1F"/>
<path d="M903.379 560.981C913.386 549.503 915.74 534.492 922.215 515.656C929.573 494.17 953.119 462.677 955.474 454.142C962.832 427.947 930.162 438.248 911.914 453.259C884.248 475.628 865.116 513.007 858.936 522.131C856.875 538.319 881.304 563.042 903.379 560.981Z" fill="#303032"/>
<path d="M858.934 522.131C856.873 538.319 881.597 561.865 903.671 559.805" stroke="#1F1F1F" stroke-width="8.18397" stroke-miterlimit="10" stroke-linecap="round" stroke-linejoin="round"/>
<path d="M952.532 443.252C908.089 470.919 888.664 500.351 867.473 543.028" stroke="#1F1F1F" stroke-width="8.18397" stroke-miterlimit="10" stroke-linecap="round" stroke-linejoin="round"/>
<path d="M709.417 502.117C698.821 512.713 686.46 520.954 673.509 527.723" stroke="#303032" stroke-width="8.18397" stroke-miterlimit="10" stroke-linecap="round" stroke-linejoin="round"/>
<path d="M699.413 510.947C703.24 514.773 705.005 519.188 705.3 522.131" stroke="#303032" stroke-width="8.18397" stroke-miterlimit="10" stroke-linecap="round" stroke-linejoin="round"/>
<path d="M685.286 520.954C686.758 522.425 688.229 526.252 688.523 528.312" stroke="#303032" stroke-width="8.18397" stroke-miterlimit="10" stroke-linecap="round" stroke-linejoin="round"/>
<path d="M664.092 732.867C675.57 738.459 684.106 740.814 696.173 740.814C751.212 740.814 830.679 648.985 885.129 581.29C891.016 573.932 897.491 567.457 903.377 560.687C913.679 548.914 915.444 532.432 922.508 514.478C931.927 491.227 952.235 465.032 954.59 456.497C961.653 430.008 926.629 441.486 911.913 452.965C884.246 474.745 864.821 515.067 858.934 521.837C843.629 538.907 806.839 558.627 775.935 573.049C730.903 593.946 724.428 599.832 713.538 611.605" stroke="#1F1F1F" stroke-width="8.18397" stroke-miterlimit="10" stroke-linecap="round" stroke-linejoin="round"/>
<path d="M725.605 596.006C725.605 585.116 723.545 567.162 709.418 538.319" stroke="#1F1F1F" stroke-width="8.18397" stroke-miterlimit="10" stroke-linecap="round" stroke-linejoin="round"/>
<path d="M634.365 412.348C661.737 418.823 690.875 440.309 709.418 502.117C710.006 503.589 712.361 502.117 715.01 504.766C716.776 506.826 721.485 522.131 718.836 527.723C714.127 537.436 697.939 546.56 679.102 554.212" stroke="#1F1F1F" stroke-width="8.18397" stroke-miterlimit="10" stroke-linecap="round" stroke-linejoin="round"/>
<path opacity="0.23" d="M554.018 626.616C606.407 680.477 645.552 741.402 696.176 740.814C751.215 740.225 835.98 645.747 885.132 581.29C891.019 573.638 897.494 567.163 903.38 560.688C913.681 548.915 916.919 533.61 922.806 514.773C928.398 496.231 953.415 462.972 955.77 454.437C961.656 433.245 941.642 435.306 928.398 443.252C962.539 448.256 921.923 471.507 910.738 502.117C900.731 529.784 892.784 550.092 887.487 557.744C873.359 578.053 851.873 604.247 810.962 643.687C772.112 680.772 732.967 695.194 713.541 698.431C694.116 701.669 677.634 689.896 682.048 660.463C686.169 631.031 687.052 571.283 661.446 537.142L605.819 489.461L554.018 626.616Z" fill="#1F1F1F"/>
<path d="M626.418 83.8824C606.699 77.9959 597.28 77.7016 577.561 78.5846C627.596 101.248 653.496 175.417 655.262 211.913C657.028 250.764 648.198 291.381 636.131 327.877C634.071 334.058 630.833 341.416 631.128 348.185C631.128 351.423 633.776 356.721 632.893 359.958C632.599 361.43 628.773 357.309 629.067 358.781C629.067 364.962 631.128 371.731 632.599 377.618C633.188 379.678 636.72 385.564 634.954 384.093C634.365 383.798 632.01 378.795 629.95 379.972C628.773 380.561 632.894 440.897 633.482 454.436C544.302 478.277 412.445 484.163 291.183 441.192C267.049 399.692 236.145 393.511 215.542 391.745C208.773 276.959 233.202 151.871 381.541 57.0989C401.261 44.443 424.218 31.1984 442.76 25.6063C438.934 31.4928 437.757 38.2622 437.757 38.2622C467.189 32.67 499.565 13.8333 509.866 0.588745C519.284 9.12414 518.401 22.9574 511.338 31.7871C524.582 23.8403 561.667 18.5425 583.447 27.9609C568.142 28.8438 559.018 32.0814 554.309 38.5565C576.089 37.3792 590.217 40.0281 608.759 55.333C596.103 55.0387 583.447 58.2762 575.5 62.9854C598.163 64.457 612.585 68.8719 626.418 83.8824Z" fill="#303032"/>
<path d="M645.255 188.956C639.958 163.644 627.89 135.389 611.114 131.563C600.813 129.208 591.394 134.212 582.27 139.509C574.029 144.219 566.965 142.158 565.199 136.272C563.728 130.974 566.671 127.442 572.263 123.91C561.668 126.559 558.43 130.974 549.895 134.8C535.767 140.981 527.82 142.158 523.994 141.57C513.104 139.215 502.214 128.914 492.501 125.088C449.236 108.605 416.271 115.669 394.786 172.768C390.077 185.718 383.013 214.856 389.194 247.232C398.318 294.324 414.211 319.636 440.995 348.479C482.789 393.217 579.033 407.933 623.181 327.288C644.078 289.32 654.968 236.342 645.255 188.956Z" fill="#303032"/>
<path d="M592.572 214.562C606.699 216.034 622.593 238.402 610.525 272.838C601.99 297.856 587.862 312.277 573.146 322.873C548.717 339.944 523.405 336.412 507.806 314.338C491.03 290.792 491.913 262.831 500.743 241.934C510.161 219.565 538.416 206.615 559.313 210.441L592.572 214.562Z" fill="#1F1F1F"/>
<path d="M645.256 189.25C647.611 202.789 651.143 221.626 647.905 244.583C564.317 241.346 577.562 146.279 582.271 139.51C593.75 133.035 601.402 128.914 612.292 132.152C619.945 134.212 637.604 145.985 645.256 189.25Z" fill="#1F1F1F"/>
<path d="M523.7 141.57C518.991 238.697 447.765 256.356 390.077 249.881C383.896 221.332 387.722 193.665 394.492 174.828C401.261 156.58 415.095 125.382 443.35 118.907C458.655 115.375 477.491 118.613 492.796 125.088C504.569 130.091 513.399 137.449 523.7 141.57Z" fill="#1F1F1F"/>
<path d="M215.246 391.451C207.888 247.821 251.743 139.215 381.245 56.5102C400.965 43.8543 423.922 30.6097 442.465 25.0175C438.638 30.904 437.461 37.6735 437.461 37.6735C466.893 32.0813 498.975 13.2446 509.57 0C518.989 8.5354 518.106 22.3686 511.042 31.1983C524.287 23.2516 561.371 17.9538 583.151 27.3721C567.847 28.2551 558.722 31.4927 554.013 37.9678C575.793 36.7905 589.921 39.4394 608.463 54.7443C595.807 54.4499 583.151 57.6875 575.205 62.1024C598.456 64.457 612.878 68.5775 626.711 83.8823C606.992 77.9958 597.573 77.7015 577.854 78.5845C627.889 101.247 653.789 175.417 655.555 211.913C657.321 250.764 648.491 291.381 636.424 327.877C634.364 334.058 631.126 341.416 631.42 348.185C631.42 351.423 634.069 356.721 633.186 359.958C632.892 361.43 629.066 357.309 629.36 358.781C629.36 364.962 631.42 371.731 632.892 377.618C633.481 379.972 637.013 385.564 635.247 384.093C634.658 383.798 632.303 378.795 630.243 379.972C629.066 380.561 630.832 417.351 633.481 454.436" stroke="#1F1F1F" stroke-width="8.18397" stroke-miterlimit="10" stroke-linecap="round" stroke-linejoin="round"/>
<path d="M584.624 225.746C582.858 247.232 577.266 265.775 566.376 281.079C551.365 288.143 534.295 284.317 528.114 262.243" stroke="#303032" stroke-width="8.18397" stroke-miterlimit="10" stroke-linecap="round" stroke-linejoin="round"/>
<path d="M422.741 182.65L422.74 182.658C422.107 187.868 422.898 191.736 424.616 194.646C426.336 197.56 429.085 199.682 432.674 201.215C439.936 204.318 450.237 204.849 461.013 204.849C462.906 204.849 464.79 204.871 466.648 204.892C473.15 204.966 479.339 205.037 484.538 204.17C487.851 203.618 490.613 202.703 492.711 201.26C494.767 199.844 496.245 197.882 496.965 195.073C498.943 187.013 497.763 180.284 493.221 175.305C488.618 170.259 480.306 166.718 467.381 165.7C454.357 164.823 443.488 165.574 435.717 168.342C428.018 171.083 423.542 175.713 422.741 182.65Z" fill="#303032" stroke="#1F1F1F" stroke-width="2.94324"/>
<path d="M422.743 182.941L422.736 183.003L422.724 183.064C422.686 183.254 422.653 183.445 422.625 183.637C429.066 178.448 439.608 174.975 454.731 173.949C473.081 172.62 488.456 174.819 497.701 185.079C497.143 180.516 495.123 176.676 491.49 173.64C486.675 169.616 478.863 166.868 467.384 165.995C454.351 165.117 443.483 165.795 435.712 168.528C431.843 169.888 428.808 171.735 426.646 174.09C424.499 176.429 423.151 179.335 422.743 182.941Z" fill="#303032" stroke="#1F1F1F" stroke-width="2.94324"/>
<path d="M498.392 195.431C495.155 208.087 477.789 206.321 461.013 206.321C439.527 206.321 418.63 204.261 421.279 182.481C423.045 167.176 441.293 162.467 467.488 164.233C493.683 166.293 502.513 178.655 498.392 195.431Z" stroke="#1F1F1F" stroke-width="8.18397" stroke-miterlimit="10" stroke-linecap="round" stroke-linejoin="round"/>
<path d="M477.938 174.527L477.914 174.524L477.89 174.521C469.877 173.453 462.395 179.342 461.595 187.337C460.79 195.388 466.422 202.614 474.453 203.685C482.466 204.754 489.948 198.864 490.748 190.87L490.75 190.846L490.754 190.822C491.822 182.809 485.932 175.326 477.938 174.527Z" fill="#1F1F1F" stroke="#1F1F1F" stroke-width="2.94324"/>
<path d="M459.539 180.715C459.539 183.803 462.043 186.307 465.131 186.307C468.22 186.307 470.724 183.803 470.724 180.715C470.724 177.627 468.22 175.123 465.131 175.123C462.043 175.123 459.539 177.627 459.539 180.715Z" fill="#303032" stroke="#1F1F1F" stroke-width="2.94324"/>
<path d="M465.132 193.077C465.132 193.727 465.659 194.255 466.31 194.255C466.96 194.255 467.487 193.727 467.487 193.077C467.487 192.426 466.96 191.899 466.31 191.899C465.659 191.899 465.132 192.426 465.132 193.077Z" fill="#303032" stroke="#1F1F1F" stroke-width="2.94324"/>
<path d="M523.699 141.57C472.487 109.783 426.867 110.077 370.062 169.236" stroke="#1F1F1F" stroke-width="22.3686" stroke-miterlimit="10" stroke-linecap="round" stroke-linejoin="round"/>
<path opacity="0.23" d="M215.248 391.451C221.134 392.334 227.021 393.511 233.201 395.277C264.988 403.813 284.12 425.592 295.598 448.844C283.237 385.564 278.822 321.402 293.832 257.828C309.726 190.133 362.115 121.556 430.399 95.6554C434.519 94.1837 445.409 82.7051 459.537 77.9959C453.944 83.5881 455.416 88.003 461.597 87.12C470.721 85.6484 483.965 67.9889 510.16 65.34C497.21 75.6413 500.448 84.1767 506.04 84.4711C511.043 84.7654 528.408 71.8151 547.245 71.5208C534.589 75.0527 529.586 86.8257 534.001 87.7086C540.476 88.8859 543.713 80.3505 556.075 79.1732C554.603 89.4746 559.901 100.365 571.674 105.368C579.621 108.606 591.982 105.957 595.809 102.425C605.816 112.726 616.117 120.379 628.479 129.503C615.823 108.017 599.046 88.8859 577.561 79.1732C597.28 78.2903 606.699 78.2903 626.418 84.4711C612.585 69.1662 598.163 65.0457 574.912 62.6911C582.858 57.9819 595.514 55.0387 608.17 55.333C589.628 40.0281 575.5 37.0849 553.72 38.5565C558.429 32.0814 567.553 28.8438 582.858 27.9609C561.078 18.5425 523.994 24.1347 510.749 31.7871C517.813 23.2517 518.696 9.12414 509.277 0.588745C498.976 13.8333 466.6 32.67 437.168 38.2622C437.168 38.2622 438.345 31.4928 442.171 25.6063C423.629 31.4928 400.672 44.7373 380.952 57.0989C251.744 139.215 207.89 248.115 215.248 391.451Z" fill="#1F1F1F"/>
<path d="M404.794 390.273V408.521" stroke="#1F1F1F" stroke-width="12.0885" stroke-miterlimit="10" stroke-linecap="round" stroke-linejoin="round"/>
<path d="M388.606 402.929V421.472" stroke="#1F1F1F" stroke-width="12.0885" stroke-miterlimit="10" stroke-linecap="round" stroke-linejoin="round"/>
<path d="M263.517 1022.78C271.464 1022.48 279.705 1022.19 287.946 1021.89C291.772 1021.89 295.598 1021.6 299.424 1021.6C308.254 1021.3 317.084 1021.01 325.619 1020.72C326.797 1020.72 328.268 1020.72 329.446 1020.42C330.329 1020.42 331.211 1020.42 332.094 1020.42C336.804 1020.13 341.219 1020.13 345.633 1019.83C346.516 1019.83 347.694 1019.83 348.577 1019.83C356.523 1019.54 364.47 1019.24 371.534 1018.95C372.711 1018.95 373.594 1018.95 374.771 1018.95C375.949 1018.95 377.126 1018.95 378.303 1018.66C379.775 1018.66 381.247 1018.36 382.424 1018.36C383.895 1018.36 385.073 1018.07 386.544 1018.07C388.016 1018.07 389.488 1017.77 390.959 1017.77C392.431 1017.77 393.902 1017.48 395.374 1017.48C398.023 1017.18 400.672 1017.18 403.027 1016.89C404.204 1016.89 405.087 1016.59 406.264 1016.59H406.558C407.441 1016.59 408.324 1016.3 408.913 1016.3C409.502 1016.3 410.09 1016.01 410.385 1016.01C410.679 1016.01 410.973 1016.01 410.973 1016.01C412.151 1015.71 413.033 1015.71 413.622 1015.42C413.916 1015.42 413.916 1015.12 414.211 1015.12C414.505 1015.12 414.505 1014.83 414.799 1014.83L415.094 1014.53C415.094 1014.24 415.094 1014.24 415.094 1013.95C413.328 1011.59 411.268 1009.24 408.913 1006.88C408.03 1006 407.441 1005.12 406.558 1004.53C405.675 1003.64 404.792 1002.76 403.909 1002.17C403.027 1001.29 402.144 1000.7 401.261 999.818C395.08 994.521 387.133 988.928 377.126 984.219C375.36 983.336 373.594 982.453 371.534 981.57C371.24 981.57 371.239 981.276 370.945 981.276C370.062 980.982 369.179 980.393 368.002 980.099C366.825 979.51 365.353 978.921 363.881 978.627C362.704 978.038 361.527 977.744 360.055 977.45C359.172 977.155 358.289 976.861 357.112 976.567C355.935 976.273 355.052 975.978 353.874 975.684C353.286 975.39 352.403 975.39 351.814 975.095C350.931 974.801 350.048 974.507 349.165 974.212C348.282 973.918 347.399 973.624 346.516 973.624C343.573 972.741 340.335 972.152 337.098 971.269C335.332 970.975 333.86 970.68 332.094 970.092C329.446 969.503 327.091 969.209 324.148 968.62C300.307 977.744 275.29 995.404 263.517 1022.78Z" fill="#303032"/>
<path d="M515.163 1013.36C517.223 1013.36 519.578 1013.36 521.638 1013.65C561.96 1014.24 638.779 1018.36 648.197 1018.36C652.024 1018.36 655.261 1018.07 656.438 1017.18C657.91 1016.01 657.027 1013.65 652.318 1008.65C652.024 1008.35 651.729 1008.06 651.435 1007.77C651.141 1007.47 650.846 1007.18 650.552 1006.88C649.963 1006.29 649.08 1005.41 648.492 1004.82C645.254 1001.88 597.574 965.088 558.134 966.56C541.358 977.156 524.287 993.343 515.163 1013.36Z" fill="#303032"/>
<path d="M95.7507 523.014C131.07 526.546 202.002 578.935 218.19 631.325C218.19 631.619 218.778 631.619 218.778 631.913C214.363 648.984 207.3 664.289 192.289 676.945C182.871 684.892 168.154 691.661 157.559 697.548C157.264 706.966 158.147 719.622 159.913 729.04C169.92 737.281 184.637 746.111 204.651 753.764C209.065 755.235 213.48 755.824 218.19 755.235C218.484 755.235 218.778 755.235 219.367 755.235C219.661 755.235 220.25 755.235 220.544 755.235C228.491 754.352 236.732 751.703 245.562 749.643C247.328 749.349 249.094 748.76 251.154 748.466C252.037 748.466 252.625 748.171 253.508 748.171C254.391 747.877 255.569 747.877 256.452 747.877H256.746C257.335 747.877 257.923 747.877 258.512 747.877C259.101 747.877 259.689 747.877 260.278 747.877C270.285 747.288 280.881 749.054 292.654 755.824C312.079 767.008 320.026 790.554 320.909 798.207C321.497 804.682 305.309 788.788 270.579 798.207C268.519 798.795 266.459 799.384 264.104 800.267C259.689 801.738 254.98 803.504 249.977 805.859C248.799 806.448 247.622 807.036 246.15 807.625C244.973 808.214 243.501 809.096 242.324 809.685C241.441 810.274 240.558 810.568 239.675 811.157C238.792 811.451 237.909 812.04 237.026 812.334C236.732 812.628 236.143 812.628 235.849 812.923C234.083 813.511 232.611 814.1 230.845 814.394C230.257 814.689 229.374 814.689 228.785 814.689C226.431 814.983 224.37 815.277 222.016 815.277C208.477 814.983 193.761 808.802 168.743 807.036H168.449C179.927 848.83 267.047 878.557 322.675 887.975C372.121 896.216 451 898.865 511.631 887.975C573.439 876.791 608.169 858.543 621.119 844.415C664.09 798.501 657.027 703.434 659.381 649.279C669.094 643.392 673.214 584.822 652.023 513.89C647.608 498.879 641.133 484.163 640.544 480.631C640.25 477.393 646.431 472.096 643.782 465.915C641.722 461.5 631.715 446.784 633.186 455.319C530.467 484.751 404.791 462.089 327.089 429.713C315.611 414.702 299.423 402.046 277.054 396.16C270.874 394.394 264.987 393.217 259.101 392.334C208.182 384.976 166.683 410.288 101.343 496.819C96.0451 503 77.5026 519.482 95.7507 523.014Z" fill="#1F1F1F"/>
<path d="M483.82 562.421C500.365 562.134 515.061 561.158 529.557 561.09C541.389 561.011 545.221 569.186 545.187 577.182C545.172 588.135 539.483 595.846 529.029 600.514C528.475 600.869 527.89 600.932 526.751 601.349C538.36 607.51 539.567 621.589 547.673 633.748C538.83 634.099 531.159 634.326 522.933 634.908C518.254 627.12 514.16 619.269 510.682 611.648C508.75 607.415 506.358 604.414 500.013 605.979C498.964 615.563 498.532 625.377 499.949 635.882C492.278 636.109 485.222 636.566 477.875 637.054C474.049 612.303 481.406 586.95 483.82 562.421ZM504.623 577.072C503.953 581.879 503.282 586.687 502.381 592.111C507.356 591.58 511.777 591.404 516.429 590.611C520.495 589.881 522.847 586.966 523.351 583.361C523.822 579.462 522.047 576.692 517.887 576.544C513.696 576.103 509.306 576.572 504.623 577.072ZM596.659 557.479C587.504 554.905 578.4 555.581 569.285 558.921C559.585 562.325 553.634 570.36 552.23 579.39C551.056 587.803 554.733 594.514 563.688 597.998C568.328 599.871 573.46 600.803 578.33 602.059C580.765 602.687 583.2 603.316 585.666 604.236C588.456 605.418 590.169 607.603 589.928 610.885C589.717 614.46 587.595 616.758 584.5 618.273C577.726 621.364 570.589 618.278 568.345 611.117C567.896 609.685 567.771 608.514 567.322 607.082C560.298 607.832 553.86 608.519 547.421 609.207C546.946 621.393 554.154 630.688 564.511 633.43C572.432 635.545 580.428 635.579 588.497 633.534C593.41 632.417 598.752 629.775 602.83 626.38C615.616 615.839 617.788 594.591 600.755 587.53C597.964 586.348 595.205 585.458 592.478 584.861C587.315 583.637 582.476 582.673 577.314 581.448C574.586 580.851 572.412 579.899 572.299 576.064C573.91 571.748 577.004 570.233 580.84 570.12C586.756 570.08 590.026 572.987 590.682 579.133C597.414 578.415 604.145 577.696 611.43 576.622C610.598 566.055 606.106 560.023 596.659 557.479Z" fill="#303032"/>
<path opacity="0.23" d="M418.919 1000.11C419.213 1000.41 419.213 1000.7 419.507 1001.29C419.802 1001.88 420.39 1002.76 421.273 1003.35C421.862 1003.94 422.745 1004.53 423.628 1005.12C424.217 1005.41 424.511 1005.7 425.1 1006C426.571 1006.59 428.043 1007.18 429.809 1007.77C433.635 1008.94 437.756 1009.83 442.17 1010.41C442.759 1010.41 443.642 1010.71 444.231 1010.71C444.819 1010.71 445.702 1011 446.291 1011C446.88 1011 447.763 1011.3 448.351 1011.3C453.355 1011.89 458.064 1011.89 461.89 1012.18C462.479 1012.18 462.773 1012.18 463.362 1012.18C463.656 1012.18 463.95 1012.18 464.245 1012.18C464.539 1012.18 465.128 1012.18 465.422 1012.18C466.599 1012.18 467.482 1012.18 468.071 1012.18C468.954 1012.18 469.837 1012.18 470.72 1012.18C471.603 1012.18 472.486 1012.18 473.369 1012.18C475.723 1012.18 478.372 1012.47 480.727 1012.47C482.787 1012.47 484.553 1012.77 486.613 1012.77C488.085 1012.77 489.557 1012.77 490.734 1013.06C493.971 1013.06 497.209 1013.36 500.447 1013.36C505.156 1013.65 509.865 1013.65 514.28 1013.65C516.34 1013.65 518.695 1013.65 520.755 1013.95C561.077 1014.53 637.896 1018.66 647.314 1018.66C647.903 1018.66 648.491 1018.66 649.08 1018.66C649.374 1018.66 649.963 1018.66 650.257 1018.66C650.552 1018.66 650.552 1018.66 650.846 1018.66C651.14 1018.66 651.14 1018.66 651.435 1018.66C652.023 1018.66 652.612 1018.66 652.906 1018.36C653.201 1018.36 653.201 1018.36 653.495 1018.36C653.789 1018.36 654.084 1018.36 654.084 1018.07C654.084 1018.07 654.084 1018.07 654.378 1018.07H654.672C654.967 1018.07 654.967 1018.07 654.967 1017.77C655.261 1017.77 655.261 1017.48 655.261 1017.48L655.555 1017.18C655.85 1016.89 655.85 1016.3 655.85 1015.71V1015.42C655.85 1015.12 655.555 1014.83 655.555 1014.53C655.555 1014.53 655.555 1014.53 655.555 1014.24C655.555 1014.24 655.555 1013.95 655.261 1013.95C655.261 1013.65 654.967 1013.65 654.967 1013.36C654.672 1013.06 654.672 1012.77 654.378 1012.47L654.084 1012.18C653.789 1011.89 653.201 1011.3 652.906 1010.71C652.612 1010.41 652.318 1010.12 652.318 1009.83C652.023 1009.53 651.729 1009.24 651.435 1008.94C651.14 1008.65 650.846 1008.35 650.552 1008.06C650.257 1007.77 649.963 1007.47 649.669 1007.18C649.08 1006.59 648.197 1005.7 647.608 1005.12C647.608 1005.12 647.609 1005.12 647.314 1004.82C647.314 1004.82 647.314 1004.82 647.02 1004.53L646.726 1004.23L646.431 1003.94C645.843 1003.35 644.96 1002.76 643.782 1001.88L643.488 1001.58L643.194 1001.29C636.718 996.581 624.063 987.751 608.758 980.099C608.463 979.804 607.875 979.804 607.58 979.51C604.637 978.038 601.4 976.567 598.456 975.39C597.868 975.095 597.573 975.095 596.985 974.801C596.69 974.801 596.69 974.801 596.69 974.506C594.925 973.918 593.159 973.035 591.098 972.446C588.449 971.563 585.8 970.68 583.152 969.797C582.269 969.503 581.386 969.209 580.797 969.209C578.442 968.62 576.088 968.031 573.439 967.443C573.145 967.443 573.145 967.443 572.85 967.443C572.85 967.443 572.85 967.443 572.556 967.443C571.967 967.443 571.379 967.148 570.496 967.148C570.201 967.148 569.907 967.148 569.613 967.148C569.318 967.148 569.318 967.148 569.024 967.148C568.73 967.148 568.73 967.148 568.435 967.148C567.847 967.148 567.258 966.854 566.669 966.854C566.375 966.854 566.081 966.854 565.786 966.854C564.903 966.854 563.726 966.56 562.843 966.56C561.666 966.56 560.489 966.56 559.606 966.56C559.017 966.56 558.134 966.56 557.545 966.56C557.84 966.265 558.428 965.677 559.017 965.088C560.783 963.322 562.549 960.968 564.315 958.613C578.442 938.01 589.921 899.454 584.035 880.029C551.659 908.872 495.149 927.415 438.933 930.652V930.947C438.05 943.308 431.575 963.028 424.511 980.687C423.334 984.219 421.862 987.457 420.685 990.4C420.096 991.577 419.507 993.049 419.213 994.226C418.33 996.581 418.33 998.641 418.919 1000.11Z" fill="#1F1F1F"/>
<path opacity="0.23" d="M170.509 1014.53C171.098 1015.42 171.687 1016.01 172.275 1016.6C174.041 1018.36 176.396 1019.54 179.339 1020.13C194.055 1023.66 227.02 1023.66 263.516 1022.48C264.104 1022.48 264.399 1022.48 264.987 1022.48C268.225 1022.48 271.757 1022.19 275.289 1022.19C282.058 1021.89 288.828 1021.6 295.597 1021.6C297.363 1021.6 298.835 1021.6 300.601 1021.3C302.367 1021.3 304.132 1021.3 306.193 1021.01C308.547 1021.01 310.902 1020.72 313.257 1020.72C317.377 1020.42 321.498 1020.42 325.618 1020.13C328.856 1020.13 331.799 1019.83 334.742 1019.83C335.919 1019.83 337.391 1019.83 338.568 1019.54H338.863C339.451 1019.54 340.04 1019.54 340.629 1019.54C342.1 1019.54 343.572 1019.54 344.749 1019.24C349.164 1018.95 353.285 1018.95 357.405 1018.66C358.288 1018.66 359.171 1018.66 360.054 1018.66C360.348 1018.66 360.643 1018.66 360.937 1018.66C361.526 1018.66 362.114 1018.66 362.997 1018.66C365.058 1018.66 366.823 1018.36 368.589 1018.36C369.472 1018.36 370.355 1018.36 370.944 1018.36C371.827 1018.36 373.004 1018.36 373.887 1018.36C377.125 1018.36 380.068 1018.07 382.717 1018.07C383.306 1018.07 383.894 1018.07 384.483 1018.07C385.072 1018.07 385.366 1018.07 385.955 1018.07C386.249 1018.07 410.383 1015.71 410.678 1015.71C373.593 1001 309.136 996.875 278.526 998.641H278.232C264.693 999.524 253.803 1000.7 247.917 1001C227.314 1001.88 219.661 997.17 228.491 967.737C236.732 940.071 252.331 901.22 251.743 868.256C230.257 860.603 204.062 850.891 182.282 829.111C205.828 874.142 193.172 925.355 179.633 967.149C176.69 978.627 163.446 1002.76 170.509 1014.53Z" fill="#1F1F1F"/>
<path opacity="0.23" d="M327.092 912.404C317.968 906.518 299.719 895.039 294.127 887.387C403.027 935.656 506.041 913.582 566.377 892.685C510.75 923.883 465.13 931.535 422.158 931.535C379.187 931.241 351.226 922.117 327.092 912.404Z" fill="#1F1F1F"/>
<path opacity="0.23" d="M657.32 669.292C620.824 666.644 553.424 658.402 551.952 658.697C550.481 658.991 531.644 663.406 491.91 669.292C430.985 678.416 411.854 679.594 394.195 671.058C381.539 665.172 363.585 638.094 345.926 594.534C370.943 632.208 393.017 654.871 406.556 655.459C456.591 657.519 542.534 648.984 552.247 647.512C559.31 646.63 633.48 652.516 658.792 643.686" fill="#303032"/>
<path opacity="0.23" d="M168.447 806.153C169.919 809.391 171.685 813.511 172.862 816.749C182.869 842.649 252.329 877.968 355.931 891.801C425.686 901.22 481.313 897.393 536.058 880.323C389.484 905.34 273.815 861.486 263.219 850.89C257.627 845.298 254.684 825.873 252.624 803.798C247.326 806.447 241.734 809.096 237.319 811.451C219.954 820.575 194.348 806.153 168.447 806.153Z" fill="#1F1F1F"/>
<path opacity="0.23" d="M160.502 729.335C177.867 743.462 199.941 751.703 205.239 753.763C218.484 758.767 233.2 751.703 250.27 748.76C248.799 736.104 248.505 722.565 249.388 710.498C251.154 688.129 255.274 654.282 268.224 640.155C281.175 626.027 298.245 606.013 307.958 593.357C274.405 601.304 261.455 611.016 248.21 619.552C244.09 630.147 236.437 646.63 219.072 632.208C214.657 649.279 207.594 664.289 192.583 676.945C190.817 678.417 159.913 696.076 157.853 697.548C157.558 712.264 159.03 719.033 160.502 729.335Z" fill="#1F1F1F"/>
<path opacity="0.23" d="M95.1624 523.014C103.698 527.134 115.471 528.606 122.829 533.021C135.485 539.79 139.017 506.531 177.867 461.5C215.541 418.234 274.406 390.568 308.253 410.876C299.423 404.107 288.828 398.809 276.466 395.571C256.452 390.274 238.204 388.802 220.25 393.217C184.637 401.752 149.024 432.362 100.755 496.524C95.751 503 78.3859 515.067 95.1624 523.014Z" fill="#1F1F1F"/>
<path opacity="0.23" d="M0.0996704 700.785C2.45425 723.743 17.4648 753.469 59.5531 777.015C59.8474 777.31 59.8475 777.309 60.1418 777.309C61.6134 778.192 63.3793 779.076 64.8509 779.958C65.1452 779.958 65.1453 780.253 65.4396 780.253C68.3828 781.724 71.6205 783.49 74.858 784.962C76.6239 785.845 78.3899 786.434 80.1558 787.317C108.411 799.09 140.198 804.387 168.159 806.448C191.116 807.919 205.243 813.511 217.899 814.394C219.077 814.394 220.548 814.689 221.726 814.689C227.906 814.689 234.087 813.217 240.857 809.391C260.576 798.501 276.47 795.263 288.831 794.969C290.303 794.969 292.069 794.969 293.246 794.969C306.491 795.263 314.732 799.384 317.97 799.678C318.852 799.678 319.147 799.089 318.853 798.207C318.853 797.618 318.853 797.029 318.558 796.441C289.714 774.072 252.041 787.905 234.676 794.086C215.25 801.15 212.013 789.671 194.942 788.2C177.871 786.728 131.663 788.199 86.631 769.951C41.5994 751.703 29.5321 708.732 30.1207 692.544C30.7094 676.062 66.0282 616.02 78.0955 607.19C82.8047 579.524 96.3436 554.801 115.18 534.492C108.705 530.666 101.347 527.134 93.6947 523.602C93.6947 523.602 93.4004 523.602 93.4004 523.308C91.3401 522.719 89.8685 522.131 88.9855 521.248C38.3618 582.173 -2.25491 677.534 0.0996704 700.785Z" fill="#1F1F1F"/>
<path opacity="0.23" d="M648.789 419.117C642.019 423.532 640.842 432.362 641.431 440.309C642.019 448.255 651.438 457.085 650.555 468.564C649.377 480.042 675.866 527.134 661.445 550.386C657.618 532.726 651.438 509.769 646.728 497.407C642.019 485.046 639.959 482.985 640.548 479.454C641.136 475.922 644.962 472.39 644.374 468.564C643.785 464.737 639.37 455.613 633.778 451.493C632.012 441.78 630.541 422.649 629.952 410.287C640.253 413.525 643.491 415.585 648.789 419.117Z" fill="#1F1F1F"/>
<path d="M121.945 723.743L122.239 741.991" stroke="#1F1F1F" stroke-width="12.0885" stroke-miterlimit="10" stroke-linecap="round" stroke-linejoin="round"/>
<path d="M140.783 738.165L141.077 756.413" stroke="#1F1F1F" stroke-width="12.0885" stroke-miterlimit="10" stroke-linecap="round" stroke-linejoin="round"/>
<path d="M633.188 454.436C631.716 446.195 642.018 460.911 643.784 465.032C646.727 470.918 640.252 476.511 640.546 479.748C640.84 483.574 647.315 497.996 652.025 513.007C674.099 584.233 669.39 642.804 659.383 648.396C656.44 709.615 664.975 792.026 621.121 843.532C590.217 880.029 422.746 904.163 322.676 887.092C266.755 877.674 179.046 848.242 168.156 806.153" stroke="#303032" stroke-width="8.18397" stroke-miterlimit="10" stroke-linecap="round" stroke-linejoin="round"/>
<path d="M327.09 912.404C401.848 949.784 536.943 930.358 588.45 875.908C594.63 869.433 605.226 857.071 606.403 855.305" stroke="#1F1F1F" stroke-width="8.18397" stroke-miterlimit="10" stroke-linecap="round" stroke-linejoin="round"/>
<path d="M633.189 454.436C531.353 483.574 404.205 463.266 327.093 428.83" stroke="#303032" stroke-width="8.18397" stroke-miterlimit="10" stroke-linecap="round" stroke-linejoin="round"/>
<path d="M383.895 477.099C445.997 500.939 594.63 507.12 638.19 478.571" stroke="#303032" stroke-width="8.18397" stroke-miterlimit="10" stroke-linecap="round" stroke-linejoin="round"/>
<path d="M612.583 461.206C614.349 466.503 616.115 470.33 616.115 476.216" stroke="#303032" stroke-width="8.18397" stroke-miterlimit="10" stroke-linecap="round" stroke-linejoin="round"/>
<path d="M580.211 467.681C582.566 472.39 583.154 478.865 583.154 484.163" stroke="#303032" stroke-width="8.18397" stroke-miterlimit="10" stroke-linecap="round" stroke-linejoin="round"/>
<path d="M543.714 471.213V485.634" stroke="#303032" stroke-width="8.18397" stroke-miterlimit="10" stroke-linecap="round" stroke-linejoin="round"/>
<path d="M511.045 470.918V472.979V474.45V476.511V477.982V479.454V480.925" stroke="#303032" stroke-width="8.18397" stroke-miterlimit="10" stroke-linecap="round" stroke-linejoin="round"/>
<path d="M529.586 472.684V474.156V475.628V477.099V478.276V479.748" stroke="#303032" stroke-width="8.18397" stroke-miterlimit="10" stroke-linecap="round" stroke-linejoin="round"/>
<path d="M419.215 459.734V461.206V462.677V465.326V466.798" stroke="#303032" stroke-width="8.18397" stroke-miterlimit="10" stroke-linecap="round" stroke-linejoin="round"/>
<path d="M402.731 456.497V458.851V460.911V462.383" stroke="#303032" stroke-width="8.18397" stroke-miterlimit="10" stroke-linecap="round" stroke-linejoin="round"/>
<path d="M408.617 1013.95C384.777 1001.88 355.933 993.343 327.384 989.812C315.022 988.34 302.661 987.751 290.888 988.34" stroke="#1F1F1F" stroke-width="8.18397" stroke-miterlimit="10" stroke-linecap="round" stroke-linejoin="round"/>
<path d="M650.553 1014.24C635.248 1001.58 566.376 975.978 540.77 980.393" stroke="#1F1F1F" stroke-width="8.18397" stroke-miterlimit="10" stroke-linecap="round" stroke-linejoin="round"/>
<path d="M324.442 968.031C299.425 978.038 275.29 996.875 263.517 1020.72" stroke="#1F1F1F" stroke-width="8.18397" stroke-miterlimit="10" stroke-linecap="round" stroke-linejoin="round"/>
<path d="M557.547 966.265C540.77 977.45 525.465 990.694 516.636 1008.06" stroke="#1F1F1F" stroke-width="8.18397" stroke-miterlimit="10" stroke-linecap="round" stroke-linejoin="round"/>
<path d="M222.313 814.395C228.788 814.395 235.264 813.217 242.622 809.097C296.483 779.664 321.5 805.565 320.912 797.618C320.029 789.671 312.376 766.42 292.657 755.235C262.636 737.87 238.795 753.764 218.193 755.235C228.788 768.774 239.09 789.083 222.313 814.395Z" fill="#303032"/>
<path d="M219.37 630.736C214.956 648.396 207.892 663.995 192.587 676.945C176.694 690.19 144.318 701.08 145.201 709.026C146.673 719.622 166.098 739.342 204.949 753.763C228.495 762.593 256.161 734.338 292.657 755.235C312.083 766.419 320.029 789.965 320.912 797.618C321.795 805.565 296.483 779.37 242.622 809.096C220.254 821.458 206.126 808.802 169.041 806.153C141.08 804.387 109.293 799.089 81.0382 787.022C22.7621 762.299 2.74804 726.98 0.0991238 700.197C-2.25547 676.945 38.067 582.173 89.2793 520.659" stroke="#1F1F1F" stroke-width="8.18397" stroke-miterlimit="10" stroke-linecap="round" stroke-linejoin="round"/>
<path d="M218.193 631.325C235.852 644.864 240.267 634.562 248.214 618.375" stroke="#303032" stroke-width="8.18397" stroke-miterlimit="10" stroke-linecap="round" stroke-linejoin="round"/>
<path d="M310.61 592.474C300.015 594.829 283.533 600.715 270.877 606.602C259.692 611.605 251.746 616.903 247.625 619.552" stroke="#303032" stroke-width="8.18397" stroke-miterlimit="10" stroke-linecap="round" stroke-linejoin="round"/>
<path d="M270.876 606.602C277.94 597.478 286.181 585.116 295.894 578.641" stroke="#303032" stroke-width="8.18397" stroke-miterlimit="10" stroke-linecap="round" stroke-linejoin="round"/>
<path d="M204.948 603.658C166.685 550.386 121.36 529.194 95.7534 523.014C77.7996 519.482 96.342 503 101.64 496.23C166.98 409.699 208.479 384.387 259.398 391.451C265.284 392.334 271.17 393.511 277.351 395.277C309.138 403.812 328.269 425.592 339.748 448.844C346.517 462.383 350.344 476.51 352.698 488.578" stroke="#1F1F1F" stroke-width="8.18397" stroke-miterlimit="10" stroke-linecap="round" stroke-linejoin="round"/>
<path d="M245.271 617.786C232.909 578.641 198.473 533.021 151.087 515.95" stroke="#303032" stroke-width="8.18397" stroke-miterlimit="10" stroke-linecap="round" stroke-linejoin="round"/>
<path d="M232.025 592.768C228.199 596.3 224.667 598.36 219.958 600.715" stroke="#303032" stroke-width="8.18397" stroke-miterlimit="10" stroke-linecap="round" stroke-linejoin="round"/>
<path d="M214.659 568.045L204.946 575.698" stroke="#303032" stroke-width="8.18397" stroke-miterlimit="10" stroke-linecap="round" stroke-linejoin="round"/>
<path d="M196.413 547.148L188.466 556.567" stroke="#303032" stroke-width="8.18397" stroke-miterlimit="10" stroke-linecap="round" stroke-linejoin="round"/>
<path d="M364.467 925.355C357.698 945.074 343.864 961.262 324.439 968.031C380.36 977.744 401.846 997.464 415.091 1013.95C416.857 1017.48 373.297 1018.66 325.322 1020.72C269.695 1022.78 202 1025.72 179.043 1020.42C156.086 1015.12 175.511 981.276 179.926 967.737C194.936 921.823 204.943 875.614 182.575 829.699" stroke="#1F1F1F" stroke-width="8.18397" stroke-miterlimit="10" stroke-linecap="round" stroke-linejoin="round"/>
<path d="M584.327 880.323C590.802 902.397 574.615 949.783 557.838 966.266C597.572 965.088 644.958 1001.58 648.196 1004.53C662.029 1017.18 657.614 1018.07 648.196 1018.07C638.777 1018.07 561.959 1014.24 521.636 1013.36C505.154 1013.06 485.14 1012.18 468.658 1011.59C458.651 1011.3 411.854 1011 419.212 993.932C427.747 973.918 438.048 946.252 439.226 930.652" stroke="#1F1F1F" stroke-width="8.18397" stroke-miterlimit="10" stroke-linecap="round" stroke-linejoin="round"/>
<path d="M320.91 797.618C301.19 769.951 266.166 765.537 242.62 771.717" stroke="#1F1F1F" stroke-width="8.18397" stroke-miterlimit="10" stroke-linecap="round" stroke-linejoin="round"/>
<path d="M218.19 755.235C228.786 768.774 239.087 789.082 222.311 814.394" stroke="#1F1F1F" stroke-width="8.18397" stroke-miterlimit="10" stroke-linecap="round" stroke-linejoin="round"/>
<path d="M566.378 281.079C568.732 283.434 571.97 286.083 577.268 285.789" stroke="#303032" stroke-width="8.18397" stroke-miterlimit="10" stroke-linecap="round" stroke-linejoin="round"/>
<path d="M647.325 202.336L647.325 202.336L647.326 202.326C648.175 194.966 646.599 189.646 643.024 185.972C639.402 182.25 633.485 179.959 625.116 179.238L625.106 179.237L625.096 179.236C614.903 178.217 606.545 179.05 600.763 181.889C597.895 183.297 595.68 185.188 594.159 187.584C592.64 189.976 591.76 192.955 591.689 196.622C591.695 202.7 595.449 207.802 601.384 211.349C607.322 214.898 615.263 216.757 623.095 216.331C630.091 215.884 635.823 215.442 640.016 213.552C642.062 212.629 643.692 211.379 644.903 209.635C646.119 207.883 646.977 205.54 647.325 202.336Z" fill="#303032" stroke="#1F1F1F" stroke-width="2.94324"/>
<path d="M625.187 179.242L625.173 179.242L625.158 179.241C614.93 178.657 605.779 179.634 599.673 182.93C596.656 184.558 594.429 186.726 593.135 189.523C592.176 191.596 591.693 194.093 591.847 197.098C594.215 194.461 596.906 192.373 600.289 190.756C604.737 188.628 610.297 187.353 617.728 186.61C625.567 185.723 632.24 185.688 637.713 187.564C641.448 188.844 644.558 190.991 647.089 194.22C646.286 190.36 644.587 187.304 642.117 184.99C638.419 181.527 632.779 179.529 625.187 179.242Z" fill="#303032" stroke="#1F1F1F" stroke-width="2.94324"/>
<path d="M633.483 188.367C626.643 188.367 621.121 193.889 621.121 200.729C621.121 207.569 626.643 213.09 633.483 213.09C640.323 213.09 645.845 207.569 645.845 200.729C645.845 193.889 640.323 188.367 633.483 188.367Z" fill="#1F1F1F" stroke="#1F1F1F" stroke-width="2.94324"/>
<path d="M648.788 202.495C646.728 215.739 636.721 216.917 623.182 217.8C606.7 218.977 590.512 210.147 590.217 196.608C590.217 181.009 604.639 176.006 625.242 177.772C642.018 178.949 651.437 185.424 648.788 202.495Z" stroke="#1F1F1F" stroke-width="7.71129" stroke-miterlimit="10" stroke-linecap="round" stroke-linejoin="round"/>
<path d="M618.473 194.548C618.473 197.149 620.582 199.258 623.182 199.258C625.783 199.258 627.892 197.149 627.892 194.548C627.892 191.948 625.783 189.839 623.182 189.839C620.582 189.839 618.473 191.948 618.473 194.548Z" fill="#303032" stroke="#1F1F1F" stroke-width="2.94324"/>
<path d="M624.655 204.85C624.655 205.338 625.051 205.733 625.539 205.733C626.026 205.733 626.422 205.338 626.422 204.85C626.422 204.362 626.026 203.966 625.539 203.966C625.051 203.966 624.655 204.362 624.655 204.85Z" fill="#303032" stroke="#1F1F1F" stroke-width="2.94324"/>
<path d="M609.937 219.86C611.114 211.913 600.519 203.378 586.391 200.729C572.264 198.08 559.608 202.495 558.43 210.442C557.253 218.389 567.849 226.924 581.976 229.573C596.104 232.222 608.465 227.807 609.937 219.86Z" fill="#303032"/>
<path d="M577.265 141.57C604.049 125.382 627.3 128.031 658.793 168.942" stroke="#1F1F1F" stroke-width="22.3686" stroke-miterlimit="10" stroke-linecap="round" stroke-linejoin="round"/>
<path d="M157.855 697.253C156.972 707.849 157.855 718.445 160.21 729.335" stroke="#1F1F1F" stroke-width="8.18397" stroke-miterlimit="10" stroke-linecap="round" stroke-linejoin="round"/>
</svg>
