<svg width="839" height="962" viewBox="0 0 839 962" fill="none" xmlns="http://www.w3.org/2000/svg">
<path d="M52.6761 533.817C104.288 432.821 182.96 328.864 187.554 307.751C207.399 216.254 224.903 120.105 353.806 56.0064C389.915 38.0226 466.952 19.1086 467.713 19.4751C471.913 21.5892 460.609 31.7368 460.609 31.7368C460.609 31.7368 482.681 29.7918 498.268 28.467C512.785 27.2549 534.969 22.1247 540.55 4C553.347 14.6832 541.142 28.6079 537.337 36.2468C552.502 26.3529 570.852 25.4791 589.371 30.2992C605.016 34.3864 612.457 42.9837 612.119 43.3219C609.807 45.6333 580.52 43.2656 580.52 49.777C590.442 49.0441 602.028 50.5944 615.84 56.0064C630.695 61.8413 637.911 74.8641 637.065 75.4842C634.415 77.4574 625.705 73.3137 617.813 73.3419C607.665 73.3701 598.279 77.26 598.56 78.1339C598.927 79.2332 600.675 79.1486 601.802 79.4305C630.751 86.4774 648.396 101.586 652.005 120.105C634.725 103.39 621.759 96.7378 599.209 94.2573C614.036 104.123 624.465 119.091 632.724 134.228C662.8 189.109 666.098 237.93 641.97 311.951C639.433 319.759 639.123 336.475 641.462 348.624C634.359 348.004 633.006 335.629 629.962 341.633C626.889 347.637 628.58 360.688 631.653 373.091C622.492 374.697 621.195 357.306 618.489 363.451C615.783 369.567 619.448 383.097 621.223 387.664C614.74 388.566 612.542 379.095 611.95 384.366C611.696 386.593 611.555 388.791 611.555 390.962C658.009 429.974 668.212 472.002 717.654 546.389C767.321 621.115 757.962 660.24 731.156 680.112C718.781 689.273 704.857 695.052 690.396 698.49C753.142 698.519 779.611 754.246 762.811 796.274C758.695 806.562 749.562 818.401 739.077 823.813C790.125 848.844 839.312 898.201 834.633 898.201C744.207 898.201 673.174 922.527 628.073 899.977C617.615 894.762 611.02 883.205 609.018 870.549C599.519 870.746 565.524 876.412 530.262 883.825C500.044 890.167 481.553 888.758 457.96 886.531C488.854 917.763 520.734 954.971 519.917 955.817C516.788 958.917 435.071 959.932 382.276 934.422C360.684 923.993 348.14 918.327 319.276 921.061C244.719 928.136 135.125 938.115 100.623 906.15C52.7606 861.839 76.241 813.017 114.576 796.725C134.505 788.24 154.772 783.42 173.912 780.968C-43.6135 807.38 -17.3705 670.866 52.6761 533.817Z" fill="#FDFDFF"/>
<path d="M634.444 488.322C644.338 546.417 631.794 556.875 632.386 567.361C633.401 585.683 644.986 599.27 655.838 613.786C662.04 622.073 668.016 630.642 671.68 640.536C676.782 654.377 679.883 677.716 672.948 692.148C673.287 692.148 683.857 695.869 691.186 698.35C705.393 694.911 719.092 689.16 731.241 680.14C758.047 660.268 767.406 621.143 717.739 546.417C668.072 471.72 659.757 431.27 612.824 392.118C612.57 392.625 611.95 392.23 611.274 391.61C611.358 395.105 611.809 398.883 612.627 403.026C618.264 431.214 629.652 460.05 634.444 488.322Z" fill="#FDFDFF"/>
<path opacity="0.23" d="M577.082 806.591C580.126 797.373 581.62 762.026 590.274 758.981C618.067 749.313 668.946 801.066 708.916 792.356C726.787 788.466 749.873 777.585 756.13 759.179C757.455 755.317 761.542 745.761 761.261 741.139C769.097 760.842 769.491 787.592 758.216 807.183C749.675 821.981 738.062 822.94 739.105 823.109C763.854 835.483 823.386 877.229 832.886 897.44C815.127 898.286 787.109 900.174 779.16 900.907C741.135 904.346 658.206 921.315 625.847 899.554C614.881 892.169 610.315 881.937 609.075 870.577C593.29 870.436 562.819 876.525 530.318 883.853C509.995 888.448 483.724 891.098 458.016 886.559C430.392 858.597 396.088 826.97 346.449 806.534C416.355 825.758 434.451 852.649 450.885 857.554C482.117 866.913 559.154 860.711 577.082 806.591Z" fill="#DCDBE1"/>
<path d="M372.016 929.602C375.285 931.068 378.696 932.703 382.36 934.479C435.128 959.989 516.873 958.974 520.001 955.845C521.073 954.774 461.399 886.531 428.532 858.597L427.376 860.514C418.835 876.186 401.81 912.718 372.016 929.602Z" fill="#FDFDFF"/>
<path d="M505.542 696.179C535.562 700.858 546.33 696.292 564.144 693.812C559.268 678.675 559.437 656.632 564.482 642.989C547.485 636.985 523.441 649.19 496.296 649.218C475.578 649.247 460.723 641.298 459.116 650.233C458.525 653.531 473.464 691.134 505.542 696.179Z" fill="#FDFDFF"/>
<path d="M317.05 688.23C326.267 700.52 334.47 716.249 335.034 735.755C352.595 731.893 364.293 732.429 390.817 717.574C419.118 701.704 420.048 661.254 418.329 658.351C413.734 650.571 402.572 663.143 383.15 670.359C357.668 679.774 330.298 675.997 317.05 688.23Z" fill="#FDFDFF"/>
<path d="M64.1486 511.944C97.382 450.917 137.803 391.075 163.144 351.358C166.583 362.041 166.921 362.041 163.482 351.358C163.482 351.33 163.482 351.33 163.454 351.302C159.226 338.195 162.101 330.302 165.878 324.721C174.786 311.585 185.779 298.393 187.724 307.667C187.724 307.695 187.752 307.752 187.752 307.78C211.317 431.468 345.885 463.377 446.319 463.32C533.842 463.292 580.408 442.207 614.487 410.975L614.515 410.947C613.867 408.298 613.303 405.648 612.767 403.026C612.091 399.278 611.753 395.585 611.753 391.892C612.288 392.343 612.767 392.541 612.965 392.118C613.669 392.71 614.374 393.302 615.079 393.894C615.417 394.175 615.727 394.457 616.037 394.739C649.242 424.224 663.364 455.907 690.396 502.304C690.453 502.276 690.481 502.247 690.537 502.219C693.779 500.472 700.46 507.349 703.137 511.183C705.308 514.284 709.508 521.725 705.223 526.32C692.764 539.709 661.279 562.569 640.025 591.039C639.969 590.954 639.912 590.842 639.856 590.757C639.771 590.616 639.687 590.475 639.602 590.306C639.461 590.081 639.348 589.855 639.236 589.601C638.869 588.981 638.531 588.361 638.249 587.713C637.995 587.234 637.77 586.754 637.544 586.275C637.291 585.796 637.065 585.289 636.868 584.809C636.614 584.302 636.417 583.823 636.22 583.315C636.022 582.808 635.825 582.329 635.656 581.822C635.515 581.455 635.374 581.117 635.261 580.75C635.008 580.102 634.782 579.426 634.585 578.749C634.359 578.016 634.134 577.283 633.965 576.522C633.88 576.212 633.795 575.93 633.739 575.62C633.542 574.831 633.373 574.014 633.232 573.196C633.063 572.407 632.95 571.589 632.837 570.744C632.809 570.546 632.781 570.321 632.752 570.095C632.668 569.193 632.583 568.291 632.527 567.361C632.414 565.219 632.837 563.105 633.485 560.568C633.514 560.512 633.514 560.483 633.542 560.427C633.739 559.666 633.965 558.877 634.19 558.031C634.416 557.214 634.669 556.34 634.923 555.438C634.951 555.269 635.008 555.1 635.064 554.902C635.289 554 635.543 553.014 635.797 551.971C635.938 551.463 636.05 550.9 636.163 550.364C636.163 550.308 636.163 550.251 636.191 550.195C636.332 549.575 636.445 548.955 636.586 548.278C636.952 546.305 637.319 544.163 637.601 541.738C637.798 540.132 637.967 538.441 638.08 536.608C638.193 535.199 638.249 533.705 638.305 532.155C638.334 531.422 638.362 530.689 638.362 529.928C638.418 527.955 638.39 525.841 638.334 523.614C638.334 522.43 638.277 521.19 638.221 519.921C638.165 519.076 638.136 518.202 638.08 517.328C637.995 515.862 637.883 514.34 637.742 512.761C637.516 510.027 637.178 510.027 637.403 512.761C637.544 514.34 637.629 515.862 637.742 517.328C637.798 518.202 637.826 519.076 637.883 519.921C637.939 521.19 637.967 522.402 637.995 523.614C638.052 525.841 638.08 527.955 638.024 529.928C638.024 530.689 637.995 531.422 637.967 532.155C637.911 533.705 637.854 535.199 637.742 536.608C637.601 538.412 637.46 540.132 637.263 541.738C636.981 544.163 636.614 546.305 636.248 548.278C636.107 548.955 635.994 549.575 635.853 550.195C635.825 550.251 635.825 550.308 635.825 550.364C635.684 550.928 635.571 551.435 635.459 551.971C635.205 553.014 634.951 554 634.726 554.902C634.669 555.1 634.613 555.269 634.585 555.438C634.331 556.34 634.077 557.214 633.852 558.031C633.626 558.877 633.401 559.666 633.203 560.427C633.175 560.483 633.175 560.512 633.147 560.568C632.499 563.105 632.076 565.219 632.189 567.361C632.245 568.291 632.33 569.193 632.414 570.095C632.442 570.321 632.471 570.546 632.499 570.744C632.612 571.589 632.724 572.407 632.893 573.196C633.034 574.014 633.203 574.831 633.401 575.62C633.457 575.93 633.542 576.212 633.626 576.522C633.795 577.283 634.021 578.016 634.246 578.749C634.444 579.426 634.669 580.102 634.923 580.75C635.036 581.117 635.148 581.455 635.318 581.822C635.487 582.329 635.684 582.808 635.881 583.315C636.079 583.823 636.276 584.302 636.53 584.809C636.727 585.289 636.952 585.796 637.206 586.275C637.403 586.754 637.629 587.234 637.911 587.713C638.193 588.361 638.531 588.981 638.897 589.601C639.01 589.855 639.123 590.081 639.264 590.306C639.348 590.475 639.433 590.616 639.518 590.757C639.574 590.87 639.602 590.954 639.658 591.039H639.687C639.884 591.462 640.138 591.885 640.391 592.279C640.871 593.125 641.378 593.942 641.914 594.788C643.069 596.648 644.309 598.48 645.606 600.285C646.226 601.187 646.875 602.089 647.551 602.991C648.82 604.766 650.173 606.514 651.497 608.29C652.879 610.122 654.26 611.954 655.641 613.786C637.375 633.631 594.868 653.757 564.482 643.017C547.484 637.013 523.44 649.219 496.295 649.247C475.577 649.275 460.722 641.326 459.116 650.261C458.524 653.559 473.463 691.162 505.541 696.208C535.561 700.887 546.329 696.32 564.143 693.84C575.447 692.289 625.339 707.595 674.076 701.422C637.685 707.003 608.906 721.351 592.303 741.167C592.275 741.195 592.275 741.195 592.247 741.223C565.666 771.159 548.161 806.873 487.247 812.172C427.179 817.415 397.272 814.286 360.571 801.32C324.406 788.579 277.699 767.805 178.196 780.461C254.924 770.285 319.614 739.222 335.033 735.783C352.594 731.921 364.292 732.457 390.817 717.602C419.117 701.732 420.047 661.283 418.328 658.38C413.733 650.6 402.571 663.171 383.15 670.388C357.668 679.802 330.298 676.025 317.049 688.259C280.687 721.858 192.037 702.099 176.674 675.461C169.035 662.213 172.7 644.68 182.03 624.216C182.932 625.992 184.003 626.668 185.159 626.612C184.116 626.527 183.157 625.823 182.368 624.216V624.188C152.066 560.991 65.3889 540.555 51.3514 536.89C51.3232 536.89 51.3232 536.89 51.295 536.862C39.4561 533.423 53.6628 512.733 64.1486 511.944Z" fill="#DCDBE1"/>
<path d="M636.585 199.341C630.074 172.873 618.348 162.359 594.67 157.99C566.849 152.86 558.054 110.719 531.163 109.62C526.174 109.422 514.532 106.914 512.08 102.235C504.469 87.7461 521.974 81.6011 513.264 83.236C504.554 84.8991 448.798 104.264 429.8 106.35C375.087 112.382 324.011 122.84 291.539 181.668C284.238 194.888 266.649 238.522 274.288 272.291C285.394 321.479 291.172 342.113 344.56 378.982C407.983 422.758 576.743 409.707 615.642 338.138C614.627 282.354 648.734 248.726 636.585 199.341Z" fill="#FDFDFF"/>
<path d="M484.456 267.612C506.584 256.563 531.699 300.338 532.742 331.204C534.884 394.514 448.799 409.96 400.513 378.334C350.198 345.382 410.914 248.444 449.363 263.835" fill="#DCDBE1"/>
<path d="M636.926 187.221C657.898 232.575 630.979 323.791 612.967 341.633C591.769 334.897 574.744 326.046 561.186 315.701C474.057 249.375 529.023 122.812 534.971 116.864C538.833 113.002 585.314 120.106 618.491 158.638C625.933 167.292 632.642 177.947 636.926 187.221Z" fill="#DCDBE1"/>
<path d="M421.231 114.468C460.891 305.92 304.618 346.059 289.171 323.678C279.277 309.33 259.743 242.074 285.647 196.748C288.184 192.323 302.25 164.896 328.098 142.628C360.627 114.581 417.848 94.2576 421.231 114.468Z" fill="#DCDBE1"/>
<path d="M576.66 401.561L576.772 419.911" stroke="#DCDBE1" stroke-width="10.9087" stroke-miterlimit="10" stroke-linecap="round" stroke-linejoin="round"/>
<path d="M558.619 410.947L558.731 429.297" stroke="#DCDBE1" stroke-width="10.9087" stroke-miterlimit="10" stroke-linecap="round" stroke-linejoin="round"/>
<path d="M435.071 105.42C325.815 106.519 272.033 216.48 272.033 216.48" stroke="#DCDBE1" stroke-width="21.4227" stroke-miterlimit="10" stroke-linecap="round" stroke-linejoin="round"/>
<path d="M528.685 114.778C642.31 126.927 663.704 255.661 663.704 255.661" stroke="#DCDBE1" stroke-width="21.4227" stroke-miterlimit="10" stroke-linecap="round" stroke-linejoin="round"/>
<path d="M500.073 269.416C500.496 261.101 484.147 253.546 463.598 252.532C443.049 251.517 426.052 257.465 425.629 265.78C425.206 274.095 441.555 281.65 462.104 282.664C482.653 283.679 499.65 277.732 500.073 269.416Z" fill="#FDFDFF"/>
<path d="M747.224 828.774C761.121 842.671 799.428 860.288 816.566 875.594C821.415 879.935 833.451 890.111 832.859 897.44C832.69 899.751 830.942 898.765 829.73 898.624C816.2 897.102 795.82 895.692 782.431 897.947C769.098 900.174 713.653 915.875 704.971 907.644C701.165 904.008 702.547 897.722 703.223 893.324C707 869.224 722.475 853.326 738.796 836.188C741.136 833.707 744.969 826.519 747.224 828.774Z" fill="#FDFDFF"/>
<path opacity="0.23" d="M264.478 602.032C276.881 603.723 280.573 636.139 347.632 624.3C387.264 617.31 412.69 599.495 436.593 593.745C454.577 589.432 461.905 598.001 490.685 598.339C512.728 598.621 542.1 595.69 563.72 589.46C596.53 579.989 618.235 566.741 622.266 576.015C631.032 596.282 568.004 609.812 509.994 611.531C475.971 612.518 449.024 601.891 440.201 605.302C401.753 620.185 356.68 647.555 309.466 643.214C283.082 640.79 240.321 598.706 264.478 602.032Z" fill="#DCDBE1"/>
<path d="M460.328 329.428C480.961 329.428 508.867 346.199 497.423 357.193C486.458 367.707 477.128 341.802 457.537 341.802C437.947 341.802 435.156 364.437 421.851 354.628C408.547 344.818 430.223 329.428 460.328 329.428Z" fill="#FDFDFF"/>
<path d="M211.935 819.106L212.076 837.428" stroke="#DCDBE1" stroke-width="10.9087" stroke-miterlimit="10" stroke-linecap="round" stroke-linejoin="round"/>
<path d="M193.922 828.493L194.035 846.815" stroke="#DCDBE1" stroke-width="10.9087" stroke-miterlimit="10" stroke-linecap="round" stroke-linejoin="round"/>
<path d="M101.919 594.421L102.031 612.772" stroke="#DCDBE1" stroke-width="10.9087" stroke-miterlimit="10" stroke-linecap="round" stroke-linejoin="round"/>
<path d="M83.9068 603.808L84.0195 622.158" stroke="#DCDBE1" stroke-width="10.9087" stroke-miterlimit="10" stroke-linecap="round" stroke-linejoin="round"/>
<path opacity="0.23" d="M100.764 906.207C103.076 908.321 105.697 910.266 108.629 912.041C118.889 918.243 132.814 922.33 149.05 924.839C177.463 929.264 212.867 928.926 247.792 926.925C247.82 926.953 247.848 926.953 247.848 926.925C257.827 926.333 267.777 925.628 277.502 924.839C277.53 924.867 277.558 924.867 277.586 924.839C282.434 924.444 287.226 924.021 291.934 923.627H292.018C296.754 923.204 301.377 922.781 305.943 922.358C310.538 921.935 315.048 921.513 319.417 921.09C331.735 919.934 341.093 920.3 349.465 921.935C360.656 924.078 370.07 928.475 382.445 934.451C397.863 941.892 415.734 947.107 433.408 950.631C471.885 958.326 509.374 958.185 518.197 956.465C519.155 956.268 519.747 956.071 519.973 955.845C520.142 955.676 519.071 954.182 517.098 951.617C517.041 951.533 516.985 951.476 516.9 951.392C516.562 950.997 516.196 950.546 515.829 950.067C513.743 947.53 510.953 944.232 507.655 940.37C506.753 939.327 505.794 938.256 504.836 937.129C504.019 936.198 503.173 935.24 502.327 934.253H502.299C466.36 935.409 424.67 919.117 391.549 899.442C358.457 879.766 330.128 876.891 294.161 883.854C258.165 890.788 184.764 898.004 140.622 874.749C113.336 860.401 114.238 828.267 134.392 809.015C152.517 791.708 200.549 783.139 257.319 783.139C238.518 779.756 207.681 776.599 173.263 781.081C171.882 781.278 170.473 781.476 169.063 781.673C167.09 781.983 165.117 782.293 163.144 782.631C163.116 782.631 163.116 782.631 163.087 782.631C159.423 783.28 155.759 784.013 152.038 784.83C150.741 785.14 149.445 785.45 148.148 785.732C146.203 786.211 144.258 786.719 142.313 787.226C138.198 788.353 134.054 789.594 129.939 790.975C128.924 791.313 127.909 791.68 126.894 792.018C125.88 792.384 124.865 792.751 123.85 793.117C122.835 793.512 121.82 793.878 120.806 794.273C118.776 795.062 116.747 795.88 114.717 796.753C76.3818 813.074 52.9014 861.867 100.764 906.207Z" fill="#DCDBE1"/>
<path opacity="0.23" d="M48.7871 536.016C48.8153 536.016 48.8435 536.044 48.8717 536.044C48.8999 536.073 48.8998 536.073 48.928 536.073C54.6501 537.566 72.4366 541.851 93.5775 550.674C71.9574 546.53 60.4569 565.726 41.4865 628.838C31.1416 663.228 30.0986 688.258 35.8489 704.156C43.8824 726.368 77.0031 741.167 114.662 745.423C162.638 750.863 208.217 747.114 246.834 740.349C275.783 735.304 290.554 732.4 333.681 719.744C376.78 707.088 410.324 679.323 415.905 657.562C417.624 660.465 416.694 700.915 388.393 716.784C361.869 731.639 350.171 731.104 332.61 734.965C317.191 738.404 252.5 769.467 175.773 779.643C174.758 779.784 173.462 779.953 171.517 780.207C-44.4298 806.393 -20.132 672.05 48.7871 536.016Z" fill="#DCDBE1"/>
<path opacity="0.23" d="M662.828 604.005C656.599 593.322 634.894 570.433 644.675 540.132C641.772 543.711 636.557 550.505 635.401 553.605C634.246 556.706 631.793 563.668 632.695 569.334C633.626 575 636.416 586.331 641.011 593.294C645.605 600.256 651.44 608.29 655.64 613.758C658.008 611.334 660.178 608.064 662.828 604.005Z" fill="#DCDBE1"/>
<path opacity="0.23" d="M505.739 696.179C535.759 700.859 546.527 696.292 564.37 693.812C580.296 691.613 673.259 723.099 731.241 680.112C756.216 661.593 766.053 626.358 727.07 561.16C744.011 597.268 753.2 623.539 728.986 646.935C711.369 663.961 685.831 677.519 643.126 678.224C600.45 678.957 571.276 673.573 533.138 672.473C495.874 671.431 474.31 661.762 460.301 647.922C459.821 648.514 459.511 649.275 459.342 650.233C458.75 653.531 473.69 691.134 505.739 696.179Z" fill="#DCDBE1"/>
<path opacity="0.23" d="M187.611 307.667C187.64 307.723 187.668 307.78 187.668 307.836C195.137 347.045 213.741 377.037 238.913 399.7C221.211 262.257 272.767 161.006 332.75 114.834C372.805 83.9971 414.636 71.228 452.633 68.6065C456.776 68.3247 471.998 66.4361 470.109 61.3905C476.987 61.3059 478.509 68.2401 485.049 68.7475C491.673 69.2549 498.438 56.5422 512.419 60.6012C506.161 62.9408 511.207 70.5515 518.677 73.8777C524.794 76.6119 536.04 75.0334 536.153 68.9166C540.832 73.7931 536.717 78.6696 540.128 79.7689C544.44 81.1501 558.703 69.1703 567.103 78.6414C556.42 79.2333 559.493 86.9568 562.763 88.4226C589.597 100.346 610.823 116.159 632.696 134.199C624.437 119.091 614.036 104.18 599.238 94.342C621.788 96.8225 634.754 103.475 652.033 120.19C648.425 101.671 630.78 86.5622 601.831 79.5152C600.703 79.2333 598.956 79.3179 598.589 78.2186C598.307 77.3447 607.694 73.4548 617.841 73.4267C625.734 73.3985 634.444 77.5421 637.094 75.5689C637.939 74.9488 630.723 61.926 615.868 56.0912C602.056 50.6791 590.471 49.1288 580.549 49.8617C580.549 43.3503 609.836 45.7181 612.148 43.4067C612.486 43.0684 605.044 34.4711 589.4 30.3839C570.881 25.5638 552.53 26.4376 537.365 36.3315C541.171 28.6926 553.376 14.7679 540.579 4.08472C534.998 22.2095 512.814 27.3396 498.297 28.5517C482.709 29.8765 460.638 31.8215 460.638 31.8215C460.638 31.8215 471.941 21.6739 467.742 19.5598C466.98 19.1934 389.943 38.1074 353.835 56.0912C225.017 120.162 207.456 216.226 187.611 307.667Z" fill="#DCDBE1"/>
<path opacity="0.23" d="M163.427 351.273C163.455 351.302 163.455 351.302 163.455 351.33C165.316 357.136 174.026 389.017 207.879 421.207C203.961 401.645 209.486 389.75 226.455 387.072C207.654 366.213 193.898 340.139 187.725 307.751C187.725 307.723 187.697 307.667 187.697 307.639C185.752 298.365 174.759 311.557 165.851 324.692C162.074 330.273 159.199 338.166 163.427 351.273Z" fill="#DCDBE1"/>
<path opacity="0.23" d="M51.2663 536.355C51.2944 536.383 51.2944 536.383 51.3226 536.383C57.383 537.961 76.3252 543.261 99.4109 552.957C99.3264 537.144 104.626 528.518 116.408 527.532C117.338 527.926 119.171 528.744 119.847 529.054C143.158 475.892 169.345 443.871 196.574 409.34C171.741 381.322 164.75 355.953 163.115 350.851C137.803 390.567 97.3532 450.438 64.148 511.437C53.6622 512.226 39.4556 532.916 51.2663 536.355Z" fill="#DCDBE1"/>
<path opacity="0.23" d="M238.999 525.023C232.854 549.913 208.218 617.958 198.465 646.935C188.176 677.575 206.103 702.38 247.821 705.425C223.072 702.719 207.513 698.491 196.548 691.754C185.611 685.017 175.463 678.787 173.997 668.555C172.532 658.323 172.137 651.558 174.759 643.665C177.38 635.773 180.453 626.95 181.608 625.061C182.764 623.173 183.497 627.57 187.077 627.063C190.685 626.555 194.236 623.821 196.238 615.055C198.239 606.288 198.577 602.765 197.76 597.578C196.942 592.392 198.662 591.349 201.988 586.049C205.314 580.75 227.357 545.149 238.999 525.023Z" fill="#DCDBE1"/>
<path opacity="0.23" d="M416.439 681.634C414.043 708.103 400.344 724.762 376.948 735.755C353.553 746.748 341.516 743.478 317.049 752.837C292.582 762.195 280.913 770.82 277.897 778.995C268.876 777.98 229.103 774.316 188.992 778.854C225.326 772.145 248.356 766.451 273.386 757.657C298.417 748.89 320.686 741.026 329.142 738.151C337.598 735.276 356.851 733.472 375.37 725.015C393.889 716.559 407.842 708.61 416.439 681.634Z" fill="#DCDBE1"/>
<path opacity="0.23" d="M449.563 784.294C465.432 787 494.297 792.44 516.086 785.422C550.306 774.4 550.306 741.139 595.857 708.779C609.19 712.021 620.86 717.095 612.403 723.55C636.391 708.92 657.504 704.664 670.978 701.028C657.109 702.352 654.431 701.986 625.652 701.028C596.872 700.069 575.985 693.163 565.527 693.699C555.069 694.263 549.714 699.646 520.004 698.322C490.266 697.025 480.992 685.44 468.364 669.767C482.035 699.787 502.95 705.594 521.864 707.116C540.778 708.638 560.143 703.424 573.842 704.917C578.691 705.453 586.668 706.637 594.335 708.413C565.386 721.464 548.417 750.215 511.97 768.904C496.016 777.106 474.086 779.531 449.563 784.294Z" fill="#DCDBE1"/>
<path opacity="0.23" d="M747.224 828.774C769.802 839.542 799.118 862.008 816.228 877.314C821.076 881.655 832.858 893.86 832.858 897.44C832.858 899.78 830.942 898.765 829.73 898.624C816.199 897.102 795.82 895.692 782.43 897.947C769.098 900.174 713.652 915.875 704.97 907.644C701.165 904.008 702.546 897.722 703.223 893.324C707 869.224 722.475 853.326 738.796 836.188C741.135 833.707 744.969 826.519 747.224 828.774Z" fill="#DCDBE1"/>
<path d="M110.376 525.023C146.766 539.511 177.914 563.105 196.546 594.9C201.112 602.088 196.32 615.647 194.347 620.128C192.374 624.639 186.06 630.755 182.001 624.187M74.5208 543.514C63.4148 539.878 54.9584 537.82 51.3222 536.862C51.294 536.862 51.2941 536.862 51.2659 536.834C43.9089 534.917 46.1075 529.336 49.5183 524.234C52.5062 519.724 58.5383 511.126 64.2604 512M640.024 591.01C639.968 590.926 639.911 590.813 639.855 590.729C639.77 590.588 639.686 590.447 639.601 590.278C639.46 590.052 639.347 589.827 639.235 589.573C638.868 588.953 638.53 588.333 638.248 587.684C637.994 587.205 637.769 586.726 637.543 586.247C637.29 585.768 637.064 585.26 636.867 584.781C636.613 584.274 636.416 583.794 636.219 583.287C636.021 582.78 635.824 582.3 635.655 581.793C635.514 581.427 635.373 581.088 635.26 580.722C635.007 580.074 634.781 579.397 634.584 578.721C634.358 577.988 634.133 577.255 633.964 576.494C633.879 576.184 633.794 575.902 633.738 575.592C633.541 574.803 633.372 573.985 633.231 573.168C633.062 572.378 632.949 571.561 632.836 570.715C632.808 570.518 632.78 570.292 632.752 570.067C632.667 569.165 632.582 568.263 632.526 567.333C632.413 565.19 632.836 563.076 633.484 560.54C633.513 560.483 633.513 560.455 633.541 560.399C633.738 559.637 633.964 558.848 634.189 558.003C634.415 557.185 634.668 556.311 634.922 555.409C634.95 555.24 635.007 555.071 635.063 554.874C635.288 553.972 635.542 552.985 635.796 551.942C635.937 551.435 636.049 550.871 636.162 550.335C636.162 550.279 636.162 550.223 636.19 550.166C636.331 549.546 636.444 548.926 636.585 548.25C636.951 546.276 637.318 544.134 637.6 541.71C637.797 540.103 637.966 538.412 638.079 536.58C638.192 535.171 638.248 533.677 638.304 532.126C638.333 531.393 638.361 530.66 638.361 529.899C638.417 527.926 638.389 525.812 638.333 523.585C638.333 522.401 638.276 521.161 638.22 519.893C638.164 519.047 638.135 518.173 638.079 517.299C637.994 515.834 637.882 514.312 637.741 512.733C637.515 509.999 626.663 454.807 621.786 438.035C621.702 438.12 637.177 509.999 637.402 512.733C637.543 514.312 637.628 515.834 637.741 517.299C637.797 518.173 637.825 519.047 637.882 519.893C637.938 521.161 637.966 522.373 637.994 523.585C638.051 525.812 638.079 527.926 638.023 529.899C638.023 530.66 637.994 531.393 637.966 532.126C637.91 533.677 637.853 535.171 637.741 536.58C637.6 538.384 637.459 540.103 637.262 541.71C636.98 544.134 636.613 546.276 636.247 548.25C636.106 548.926 635.993 549.546 635.852 550.166C635.824 550.223 635.824 550.279 635.824 550.335C635.683 550.899 635.57 551.407 635.458 551.942C635.204 552.985 634.95 553.972 634.725 554.874C634.668 555.071 634.612 555.24 634.584 555.409C634.33 556.311 634.076 557.185 633.851 558.003C633.625 558.848 633.4 559.637 633.203 560.399C633.174 560.455 633.174 560.483 633.146 560.54C632.498 563.076 632.075 565.19 632.188 567.333C632.244 568.263 632.329 569.165 632.413 570.067C632.441 570.292 632.47 570.518 632.498 570.715C632.611 571.561 632.723 572.378 632.892 573.168C633.033 573.985 633.203 574.803 633.4 575.592C633.456 575.902 633.541 576.184 633.625 576.494C633.794 577.255 634.02 577.988 634.245 578.721C634.443 579.397 634.668 580.074 634.922 580.722C635.035 581.088 635.147 581.427 635.317 581.793C635.486 582.3 635.683 582.78 635.88 583.287C636.078 583.794 636.275 584.274 636.529 584.781C636.726 585.26 636.951 585.768 637.205 586.247C637.402 586.726 637.628 587.205 637.91 587.684C638.192 588.333 638.53 588.953 638.896 589.573C639.009 589.827 639.122 590.052 639.263 590.278C639.347 590.447 639.432 590.588 639.517 590.729C639.573 590.841 639.601 590.926 639.658 591.01H639.686C639.883 591.433 640.137 591.856 640.39 592.251C640.87 593.096 641.377 593.914 641.913 594.759C643.068 596.62 644.308 598.452 645.605 600.256C646.225 601.158 646.874 602.06 647.55 602.962C648.819 604.738 650.172 606.486 651.496 608.261C652.878 610.094 654.259 611.926 655.64 613.758C637.374 633.602 594.867 653.728 564.481 642.989C547.483 636.985 523.439 649.19 496.294 649.218C475.576 649.246 460.721 641.297 459.115 650.233C458.523 653.531 473.462 691.133 505.54 696.179C535.56 700.858 546.328 696.292 564.142 693.811C575.446 692.261 625.338 707.567 674.075 701.394C637.684 706.975 608.905 721.323 592.302 741.139C592.274 741.167 592.274 741.167 592.246 741.195C565.665 771.13 548.16 806.844 487.246 812.144C427.178 817.387 397.271 814.258 360.57 801.291C324.405 788.55 277.698 767.776 178.195 780.432C254.923 770.257 319.613 739.194 335.032 735.755C352.593 731.893 364.291 732.429 390.816 717.574C419.116 701.704 420.047 661.254 418.327 658.351C413.732 650.571 402.57 663.143 383.149 670.359C357.667 679.774 330.297 675.997 317.048 688.23C280.686 721.83 192.036 702.07 176.673 675.433C169.034 662.185 172.699 644.652 182.029 624.187M690.396 502.275C690.452 502.247 690.48 502.219 690.536 502.191C693.778 500.443 700.459 507.321 703.136 511.155C705.307 514.255 709.507 521.697 705.222 526.291" stroke="#DCDBE1" stroke-width="7.3852" stroke-miterlimit="10" stroke-linecap="round" stroke-linejoin="round"/>
<path d="M184.649 577.677C183.945 585.401 180.337 589.375 176.024 591.715" stroke="#DCDBE1" stroke-width="7.3852" stroke-miterlimit="10" stroke-linecap="round" stroke-linejoin="round"/>
<path d="M170.246 562.23C169.344 567.981 164.834 573.534 160.888 576.043" stroke="#DCDBE1" stroke-width="7.3852" stroke-miterlimit="10" stroke-linecap="round" stroke-linejoin="round"/>
<path d="M150.769 546.53C148.993 552.675 144.511 556.565 140.198 559.581" stroke="#DCDBE1" stroke-width="7.3852" stroke-miterlimit="10" stroke-linecap="round" stroke-linejoin="round"/>
<path d="M589.398 430.199C593.485 434.286 595.289 438.825 596.36 443.87" stroke="#DCDBE1" stroke-width="7.3852" stroke-miterlimit="10" stroke-linecap="round" stroke-linejoin="round"/>
<path d="M558.617 446.21C560.703 450.551 562.141 456.329 562.62 461.347" stroke="#DCDBE1" stroke-width="7.3852" stroke-miterlimit="10" stroke-linecap="round" stroke-linejoin="round"/>
<path d="M509.177 458.81C511.206 464.87 511.206 469.916 511.206 474.228" stroke="#DCDBE1" stroke-width="7.3852" stroke-miterlimit="10" stroke-linecap="round" stroke-linejoin="round"/>
<path d="M488.909 461.375C489.782 465.575 490.684 472.96 490.149 479.443" stroke="#DCDBE1" stroke-width="7.3852" stroke-miterlimit="10" stroke-linecap="round" stroke-linejoin="round"/>
<path d="M468.783 462.784C469.656 466.477 470.192 474.2 469.825 479.415" stroke="#DCDBE1" stroke-width="7.3852" stroke-miterlimit="10" stroke-linecap="round" stroke-linejoin="round"/>
<path d="M366.602 456.386C364.854 460.191 363.416 465.772 363.191 470.423" stroke="#DCDBE1" stroke-width="7.3852" stroke-miterlimit="10" stroke-linecap="round" stroke-linejoin="round"/>
<path d="M344.558 451.706C343.035 454.92 341.344 460.67 341.119 464.983" stroke="#DCDBE1" stroke-width="7.3852" stroke-miterlimit="10" stroke-linecap="round" stroke-linejoin="round"/>
<path d="M231.725 392.766C227.215 396.064 223.747 399.136 221.182 402.462" stroke="#DCDBE1" stroke-width="7.3852" stroke-miterlimit="10" stroke-linecap="round" stroke-linejoin="round"/>
<path d="M221.182 381.04C217.545 383.126 212.979 386.142 208.976 389.834" stroke="#DCDBE1" stroke-width="7.3852" stroke-miterlimit="10" stroke-linecap="round" stroke-linejoin="round"/>
<path d="M213.43 370.413C208.92 372.386 205.706 374.19 203 376.36" stroke="#DCDBE1" stroke-width="7.3852" stroke-miterlimit="10" stroke-linecap="round" stroke-linejoin="round"/>
<path d="M650.481 533.507C645.069 539.314 640.024 545.544 635.767 551.942" stroke="#DCDBE1" stroke-width="7.3852" stroke-miterlimit="10" stroke-linecap="round" stroke-linejoin="round"/>
<path d="M457.987 886.559C486.823 890.252 510.669 888.082 530.288 883.853C563.381 876.722 592.386 870.746 607.776 870.746" stroke="#DCDBE1" stroke-width="7.3852" stroke-miterlimit="10" stroke-linecap="round" stroke-linejoin="round"/>
<path d="M592.498 741.167C565.889 771.102 548.412 806.845 487.442 812.172C427.374 817.415 397.495 814.286 360.766 801.32C324.066 788.353 276.541 767.156 173.994 780.996" stroke="#DCDBE1" stroke-width="7.3852" stroke-miterlimit="10" stroke-linecap="round" stroke-linejoin="round"/>
<path d="M304.985 475.723C341.855 487.251 388.195 494.721 446.431 494.721C538.803 494.721 625.706 428.226 625.086 423.998C623.62 413.794 617.7 407.621 614.346 410.919C580.267 442.151 533.673 463.235 446.178 463.264C345.745 463.32 211.176 431.411 187.611 307.723C185.694 298.224 174.673 311.472 165.737 324.664C161.96 330.246 159.085 338.166 163.341 351.33C165.371 357.644 175.603 395.106 217.829 430.115" stroke="#DCDBE1" stroke-width="7.3852" stroke-miterlimit="10" stroke-linecap="round" stroke-linejoin="round"/>
<path d="M614.373 410.975C613.753 408.325 613.161 405.647 612.653 402.998C611.554 396.712 611.357 390.595 612.061 384.366C612.653 379.095 614.852 388.566 621.335 387.664C619.559 383.097 615.895 369.567 618.601 363.45C621.307 357.334 622.604 374.725 631.765 373.091C628.692 360.688 627.001 347.637 630.045 341.633C633.089 335.629 634.442 347.975 641.546 348.624C639.206 336.475 639.516 319.759 642.053 311.951C666.182 237.93 662.884 189.109 632.808 134.227C624.52 119.119 614.091 104.151 599.292 94.2571" stroke="#DCDBE1" stroke-width="7.3852" stroke-miterlimit="10" stroke-linecap="round" stroke-linejoin="round"/>
<path d="M462.101 282.664C463.933 305.44 463.567 319.365 458.944 333.769" stroke="#FDFDFF" stroke-width="7.3852" stroke-miterlimit="10" stroke-linecap="round" stroke-linejoin="round"/>
<path d="M520.002 955.845C487.896 950.377 423.318 935.437 393.862 912.633" stroke="#DCDBE1" stroke-width="7.3852" stroke-miterlimit="10" stroke-linecap="round" stroke-linejoin="round"/>
<path d="M537.42 36.2467C541.225 28.636 553.431 14.6831 540.633 4.02808C535.052 22.1528 512.868 27.283 498.352 28.4951C482.764 29.8199 460.693 31.7367 460.693 31.7367C460.693 31.7367 471.996 21.5891 467.796 19.475C467.063 19.1085 389.998 38.0225 353.889 56.0063C225.015 120.134 207.51 216.282 187.638 307.751" stroke="#DCDBE1" stroke-width="7.3852" stroke-miterlimit="10" stroke-linecap="round" stroke-linejoin="round"/>
<path d="M163.285 351.443C137.437 391.977 97.7203 449.649 64.1487 511.944" stroke="#DCDBE1" stroke-width="7.3852" stroke-miterlimit="10" stroke-linecap="round" stroke-linejoin="round"/>
<path d="M51.2382 536.833C-17.6527 672.868 -41.9506 807.211 174.024 780.996C252.668 771.44 319.558 739.25 335.258 735.783C352.819 731.893 364.517 732.457 391.042 717.602C419.342 701.732 420.273 661.283 418.553 658.379C413.959 650.571 402.796 663.171 383.375 670.387C357.921 679.83 330.523 676.025 317.274 688.258C280.912 721.858 192.262 702.127 176.899 675.461C169.289 662.241 172.925 644.736 182.227 624.3" stroke="#DCDBE1" stroke-width="7.3852" stroke-miterlimit="10" stroke-linecap="round" stroke-linejoin="round"/>
<path d="M196.573 594.9C210.779 571.307 223.774 553.126 238.995 525.023" stroke="#DCDBE1" stroke-width="7.3852" stroke-miterlimit="10" stroke-linecap="round" stroke-linejoin="round"/>
<path d="M520.002 955.845C487.924 925.092 451.167 902.457 416.327 888.786" stroke="#DCDBE1" stroke-width="7.3852" stroke-miterlimit="10" stroke-linecap="round" stroke-linejoin="round"/>
<path d="M427.403 860.486C418.75 876.355 402.711 913.056 372.212 929.659" stroke="#DCDBE1" stroke-width="7.3852" stroke-miterlimit="10" stroke-linecap="round" stroke-linejoin="round"/>
<path d="M821.638 891.351C784.486 894.677 746.968 876.637 709.591 879.992" stroke="#DCDBE1" stroke-width="7.3852" stroke-miterlimit="10" stroke-linecap="round" stroke-linejoin="round"/>
<path d="M827.781 894.677C804.724 875.425 757.735 850.507 726.333 853.298" stroke="#DCDBE1" stroke-width="7.3852" stroke-miterlimit="10" stroke-linecap="round" stroke-linejoin="round"/>
<path d="M745.051 830.043C727.123 847.237 703.22 874.1 706.067 905.614" stroke="#DCDBE1" stroke-width="7.3852" stroke-miterlimit="10" stroke-linecap="round" stroke-linejoin="round"/>
<path d="M676.81 701.027C636.276 706.693 604.874 723.211 588.695 746.043" stroke="#DCDBE1" stroke-width="7.3852" stroke-miterlimit="10" stroke-linecap="round" stroke-linejoin="round"/>
<path d="M663.702 601.947C655.415 624.131 601.266 655.899 564.678 642.989C547.681 636.985 523.665 649.218 496.492 649.218C475.774 649.218 460.919 641.298 459.341 650.205C458.749 653.531 473.688 691.134 505.738 696.151C535.758 700.858 546.525 696.264 564.368 693.783C580.294 691.585 673.286 723.07 731.268 680.084C758.075 660.211 767.433 621.087 717.766 546.361C712.157 537.905 709.902 533.874 705.223 526.263" stroke="#DCDBE1" stroke-width="7.3852" stroke-miterlimit="10" stroke-linecap="round" stroke-linejoin="round"/>
<path d="M690.452 502.247C662.687 454.187 649.608 422.729 612.851 392.089" stroke="#DCDBE1" stroke-width="7.3852" stroke-miterlimit="10" stroke-linecap="round" stroke-linejoin="round"/>
<path d="M345.375 806.027C373.648 820.149 396.198 833.961 421.623 853.016C452.094 875.876 521.182 954.689 520.027 955.845C516.898 958.974 435.153 959.96 382.386 934.45C360.794 924.021 348.222 918.355 319.386 921.089C244.829 928.164 135.235 938.143 100.733 906.178C52.8706 861.867 76.3511 813.046 114.686 796.725C192.597 763.576 275.639 786.38 276.372 787.817" stroke="#DCDBE1" stroke-width="7.3852" stroke-miterlimit="10" stroke-linecap="round" stroke-linejoin="round"/>
<path d="M687.548 809.578C749.59 808.705 841.003 898.229 834.689 898.229C744.262 898.229 673.229 922.555 628.129 900.005C609.553 890.703 603.126 861.388 613.048 841.487" stroke="#DCDBE1" stroke-width="7.3852" stroke-miterlimit="10" stroke-linecap="round" stroke-linejoin="round"/>
<path d="M690.394 698.491C750.124 698.321 779.693 754.246 762.893 796.274C758.721 806.704 754.944 816.654 744.289 821.981" stroke="#DCDBE1" stroke-width="7.3852" stroke-miterlimit="10" stroke-linecap="round" stroke-linejoin="round"/>
<path d="M599.292 94.2574C621.842 96.7379 634.809 103.39 652.06 120.134C648.452 101.614 630.834 86.4776 601.857 79.4306C600.73 79.1487 599.01 79.2333 598.644 78.134C598.362 77.2602 607.748 73.3702 617.868 73.3421C625.76 73.3139 634.499 77.4575 637.12 75.4843C637.966 74.836 630.75 61.8414 615.895 56.0066C602.083 50.5945 590.526 49.0442 580.575 49.7771C580.575 43.2657 609.862 45.6335 612.174 43.3221C612.512 42.9838 605.099 34.3866 589.455 30.2993C570.935 25.4792 552.557 26.3249 537.392 36.2188" stroke="#DCDBE1" stroke-width="7.3852" stroke-miterlimit="10" stroke-linecap="round" stroke-linejoin="round"/>
<path d="M439.41 539.032L522.141 530.379C528.934 529.674 533.867 523.585 533.162 516.764L529.752 484.292C529.047 477.498 522.958 472.565 516.137 473.27L433.406 481.924C426.613 482.629 421.68 488.717 422.384 495.538L425.795 528.011C426.528 534.804 432.617 539.765 439.41 539.032Z" fill="#FDFDFF"/>
<path d="M439.411 539.032L522.142 530.379C528.935 529.674 533.868 523.585 533.163 516.764L529.753 484.292C529.048 477.498 522.959 472.565 516.138 473.27L433.407 481.924C426.614 482.629 421.681 488.717 422.385 495.538L425.796 528.011C426.529 534.804 432.618 539.765 439.411 539.032Z" stroke="#DCDBE1" stroke-width="7.3852" stroke-miterlimit="10" stroke-linecap="round" stroke-linejoin="round"/>
<path d="M359.613 546.277L376.723 538.215C382.924 535.312 385.574 527.927 382.642 521.725L368.746 492.185C365.842 485.983 358.457 483.334 352.256 486.265L335.146 494.327C328.945 497.23 326.295 504.615 329.227 510.817L343.123 540.357C346.055 546.531 353.44 549.208 359.613 546.277Z" fill="#FDFDFF"/>
<path d="M359.612 546.277L376.722 538.215C382.923 535.312 385.573 527.927 382.641 521.725L368.745 492.185C365.841 485.983 358.456 483.334 352.255 486.265L335.145 494.327C328.944 497.23 326.294 504.615 329.226 510.817L343.122 540.357C346.054 546.531 353.439 549.208 359.612 546.277Z" stroke="#DCDBE1" stroke-width="7.3852" stroke-miterlimit="10" stroke-linecap="round" stroke-linejoin="round"/>
<path d="M356.542 605.302L551.206 584.922C558 584.217 562.933 578.129 562.228 571.307L558.817 538.835C558.113 532.042 552.024 527.109 545.203 527.814L350.538 548.193C343.744 548.898 338.812 554.987 339.516 561.808L342.927 594.28C343.632 601.074 349.748 606.006 356.542 605.302Z" fill="#FDFDFF"/>
<path d="M356.542 605.302L551.206 584.922C558 584.217 562.933 578.129 562.228 571.307L558.817 538.835C558.113 532.042 552.024 527.109 545.203 527.814L350.538 548.193C343.744 548.898 338.812 554.987 339.516 561.808L342.927 594.28C343.632 601.074 349.748 606.006 356.542 605.302Z" stroke="#DCDBE1" stroke-width="7.3852" stroke-miterlimit="10" stroke-linecap="round" stroke-linejoin="round"/>
<path d="M428.305 482.685L470.221 475.694C476.957 474.567 481.524 468.196 480.396 461.431L475.012 429.241C473.885 422.504 467.515 417.938 460.749 419.065L418.834 426.056C412.097 427.183 407.531 433.554 408.658 440.319L414.042 472.509C415.17 479.246 421.568 483.812 428.305 482.685Z" fill="#FDFDFF"/>
<path d="M428.305 482.685L470.221 475.694C476.957 474.567 481.524 468.196 480.396 461.431L475.012 429.241C473.885 422.504 467.515 417.938 460.749 419.065L418.834 426.056C412.097 427.183 407.531 433.554 408.658 440.319L414.042 472.509C415.17 479.246 421.568 483.812 428.305 482.685Z" stroke="#DCDBE1" stroke-width="7.3852" stroke-miterlimit="10" stroke-linecap="round" stroke-linejoin="round"/>
<path d="M449.56 656.125L520.199 645.441C526.964 644.427 531.615 638.113 530.6 631.347L525.724 599.073C524.709 592.307 518.395 587.656 511.63 588.671L440.991 599.354C434.226 600.369 429.575 606.683 430.59 613.448L435.467 645.723C436.509 652.516 442.795 657.167 449.56 656.125Z" fill="#FDFDFF"/>
<path d="M452.87 606.862C459.909 606.825 466.724 606.657 473.534 606.776C479.105 606.86 481.288 610.391 481.769 613.855C482.43 618.634 480.375 622.012 475.816 623.893C475.577 623.994 475.332 624.066 474.815 624.217C480.589 627.014 481.724 632.996 485.153 637.878C481.137 638 477.602 638.093 473.845 638.226C471.982 635.038 470.104 631.768 468.165 628.48C467.127 626.691 465.797 625.355 463.104 625.984C463.213 630.088 463.338 634.276 463.487 638.603C460.096 638.698 457.048 638.789 453.801 638.888C453.499 628.316 453.185 617.832 452.87 606.862ZM462.821 613.289C462.891 615.424 462.936 617.421 463.023 619.812C465.138 619.631 467.218 619.571 469.276 619.229C471.057 618.937 471.986 617.738 471.989 616.162C471.976 614.503 470.922 613.261 468.978 613.125C466.979 612.998 464.957 613.219 462.821 613.289ZM504.702 605.856C500.488 604.725 496.255 604.915 492.123 606.147C487.747 607.451 485.135 610.757 485.081 614.748C485.012 618.341 487.267 621.314 491.538 622.922C493.75 623.755 496.119 624.187 498.412 624.834C499.529 625.148 500.635 625.407 501.711 625.814C502.946 626.308 503.806 627.27 503.819 628.614C503.825 630.073 502.911 631.04 501.584 631.623C498.629 632.871 495.354 631.543 494.105 628.588C493.862 628.031 493.701 627.458 493.475 626.84C490.401 627.108 487.439 627.355 484.476 627.603C484.753 632.794 487.876 636.614 492.599 637.71C496.187 638.553 499.853 638.551 503.417 637.823C505.598 637.373 507.894 636.443 509.628 635.1C514.904 630.998 515.216 621.92 507.448 618.709C506.241 618.21 504.961 617.782 503.668 617.442C501.357 616.856 499.01 616.391 496.682 615.865C495.427 615.576 494.308 615.09 494.172 613.54C494.666 611.675 496.082 611.105 497.801 611.11C500.461 611.089 502.082 612.458 502.678 615.129C505.719 614.838 508.622 614.573 511.746 614.268C511.178 609.53 509.064 607.018 504.702 605.856Z" fill="#DCDBE1"/>
<path d="M449.56 656.125L520.199 645.441C526.964 644.427 531.615 638.113 530.6 631.347L525.724 599.073C524.709 592.307 518.395 587.656 511.63 588.671L440.991 599.354C434.226 600.369 429.575 606.683 430.59 613.448L435.467 645.723C436.509 652.516 442.795 657.167 449.56 656.125Z" stroke="#DCDBE1" stroke-width="7.3852" stroke-miterlimit="10" stroke-linecap="round" stroke-linejoin="round"/>
<path d="M393.605 659.733L412.491 658.746C419.312 658.38 424.555 652.573 424.217 645.724L422.497 613.139C422.131 606.317 416.324 601.074 409.475 601.412L390.589 602.399C383.767 602.765 378.525 608.572 378.863 615.422L380.582 648.007C380.949 654.856 386.784 660.099 393.605 659.733Z" fill="#FDFDFF"/>
<path d="M393.606 659.733L412.492 658.746C419.313 658.38 424.556 652.573 424.218 645.723L422.498 613.138C422.132 606.317 416.325 601.074 409.476 601.412L390.59 602.399C383.768 602.765 378.525 608.572 378.864 615.422L380.583 648.007C380.95 654.856 386.785 660.099 393.606 659.733Z" stroke="#DCDBE1" stroke-width="7.3852" stroke-miterlimit="10" stroke-linecap="round" stroke-linejoin="round"/>
<path d="M546.612 643.271H565.526C572.376 643.271 577.9 637.718 577.9 630.897V598.255C577.9 591.406 572.347 585.881 565.526 585.881H546.612C539.762 585.881 534.238 591.434 534.238 598.255V630.897C534.238 637.718 539.791 643.271 546.612 643.271Z" fill="#FDFDFF"/>
<path d="M546.611 643.271H565.525C572.375 643.271 577.899 637.718 577.899 630.897V598.255C577.899 591.405 572.346 585.881 565.525 585.881H546.611C539.761 585.881 534.237 591.434 534.237 598.255V630.897C534.237 637.718 539.79 643.271 546.611 643.271Z" stroke="#DCDBE1" stroke-width="7.3852" stroke-miterlimit="10" stroke-linecap="round" stroke-linejoin="round"/>
<path d="M276.319 697.927L370.804 668.724C377.344 666.695 381.008 659.76 378.978 653.221L369.338 622.045C367.309 615.506 360.374 611.841 353.835 613.871L259.378 643.101C252.838 645.131 249.174 652.065 251.203 658.605L260.843 689.78C262.873 696.292 269.807 699.956 276.319 697.927Z" fill="#FDFDFF"/>
<path d="M276.32 697.927L370.805 668.724C377.344 666.695 381.009 659.76 378.979 653.221L369.339 622.045C367.31 615.506 360.375 611.841 353.836 613.871L259.379 643.101C252.839 645.131 249.175 652.065 251.204 658.605L260.844 689.78C262.874 696.292 269.808 699.956 276.32 697.927Z" stroke="#DCDBE1" stroke-width="7.3852" stroke-miterlimit="10" stroke-linecap="round" stroke-linejoin="round"/>
<path d="M505.541 696.179C535.561 700.858 546.329 696.292 564.143 693.812C559.267 678.675 559.436 656.632 564.481 642.989C547.484 636.985 523.44 649.19 496.295 649.218C475.577 649.247 460.722 641.298 459.116 650.233C458.524 653.531 473.463 691.134 505.541 696.179Z" fill="#FDFDFF"/>
<path opacity="0.23" d="M505.767 696.179C511.63 697.109 516.76 697.673 521.383 697.955C527.077 698.322 531.925 698.265 536.322 697.955C536.942 697.899 537.591 697.871 538.211 697.814C547.456 696.969 554.813 695.108 564.144 693.812C562.255 687.92 561.127 681.014 560.761 673.967C551.882 673.319 542.805 672.755 533.165 672.473C495.901 671.43 474.337 661.762 460.328 647.922C459.849 648.514 459.539 649.275 459.37 650.233C458.778 653.531 473.717 691.134 505.767 696.179Z" fill="#DCDBE1"/>
<path d="M505.541 696.179C535.561 700.858 546.329 696.292 564.143 693.812C559.267 678.675 559.436 656.632 564.481 642.989C547.484 636.985 523.44 649.19 496.295 649.218C475.577 649.247 460.722 641.298 459.116 650.233C458.524 653.531 473.463 691.134 505.541 696.179Z" stroke="#DCDBE1" stroke-width="7.3852" stroke-miterlimit="10" stroke-linecap="round" stroke-linejoin="round"/>
<path d="M463.344 646.935C485.302 668.414 520.621 669.965 560.563 666.018" stroke="#DCDBE1" stroke-width="7.3852" stroke-miterlimit="10" stroke-linecap="round" stroke-linejoin="round"/>
<path d="M317.05 688.23C326.267 700.52 334.47 716.249 335.034 735.755C352.595 731.893 364.293 732.429 390.817 717.574C419.118 701.704 420.048 661.254 418.329 658.351C413.734 650.571 402.572 663.143 383.15 670.359C357.668 679.774 330.298 675.997 317.05 688.23Z" fill="#FDFDFF"/>
<path opacity="0.23" d="M332.834 720.026C333.99 724.564 334.751 729.384 334.948 734.458C351.269 731.132 363.052 730.963 388.392 716.784C416.693 700.915 417.623 660.465 415.904 657.562C410.323 679.351 376.779 707.116 333.68 719.772C333.398 719.857 333.116 719.941 332.834 720.026Z" fill="#DCDBE1"/>
<path d="M418.329 658.351C409.394 678.59 387.971 705.396 328.326 707.116" stroke="#DCDBE1" stroke-width="7.3852" stroke-miterlimit="10" stroke-linecap="round" stroke-linejoin="round"/>
<path d="M317.05 688.23C326.267 700.52 334.47 716.249 335.034 735.755C352.595 731.893 364.293 732.429 390.817 717.574C419.118 701.704 420.048 661.254 418.329 658.351C413.734 650.571 402.572 663.143 383.15 670.359C357.668 679.774 330.298 675.997 317.05 688.23Z" stroke="#DCDBE1" stroke-width="7.3852" stroke-miterlimit="10" stroke-linecap="round" stroke-linejoin="round"/>
<path opacity="0.23" d="M325.873 218.876C331.877 213.492 339.883 210.222 348.649 210.222C367.478 210.222 382.728 225.359 382.728 244.047V246.246C382.728 252.955 380.755 259.212 377.372 264.483C384.307 258.254 388.647 249.29 388.647 239.312V237.113C388.647 218.425 373.398 203.26 354.568 203.26C342.532 203.26 331.934 209.489 325.873 218.876Z" fill="#DCDBE1"/>
<path opacity="0.23" d="M542.892 212.956C548.924 207.572 556.929 204.302 565.696 204.302C584.497 204.302 599.747 219.439 599.747 238.128V240.355C599.747 247.035 597.802 253.265 594.419 258.508C601.325 252.334 605.666 243.371 605.666 233.392V231.194C605.666 212.505 590.416 197.34 571.615 197.34C559.551 197.34 548.952 203.57 542.892 212.956Z" fill="#DCDBE1"/>
<path d="M354.569 203.26C335.768 203.26 320.518 218.396 320.518 237.113V239.312C320.518 258 335.768 273.137 354.569 273.137C373.37 273.137 388.62 258 388.62 239.312V237.113C388.648 218.396 373.399 203.26 354.569 203.26Z" fill="#FDFDFF"/>
<path d="M374.95 245.231C374.95 239.255 370.299 234.379 364.549 234.379C358.799 234.379 354.148 239.227 354.148 245.231C354.148 251.207 358.799 256.083 364.549 256.083C370.299 256.083 374.95 251.207 374.95 245.231Z" fill="#DCDBE1"/>
<path d="M321.477 247.317C324.916 264.286 342.449 273.137 354.569 273.137C367.479 273.137 383.095 265.498 387.803 246.641C373.399 255.069 344.957 254.59 321.477 247.317Z" fill="#DCDBE1"/>
<path d="M354.569 203.26C335.768 203.26 320.518 218.396 320.518 237.113V239.312C320.518 258 335.768 273.165 354.569 273.165C373.37 273.165 388.62 258.028 388.62 239.312V237.113C388.648 218.396 373.399 203.26 354.569 203.26Z" stroke="#DCDBE1" stroke-width="7.32882" stroke-miterlimit="10" stroke-linecap="round" stroke-linejoin="round"/>
<path d="M321.477 247.317C324.916 264.286 342.449 273.137 354.569 273.137C367.479 273.137 383.095 265.498 387.803 246.641C373.399 255.069 344.957 254.59 321.477 247.317Z" stroke="#DCDBE1" stroke-width="7.32882" stroke-miterlimit="10" stroke-linecap="round" stroke-linejoin="round"/>
<path d="M571.585 197.34C590.386 197.34 605.636 212.477 605.636 231.194V233.392C605.636 252.081 590.386 267.218 571.585 267.218C552.784 267.218 537.534 252.081 537.534 233.392V231.194C537.534 212.477 552.784 197.34 571.585 197.34Z" fill="#FDFDFF"/>
<path d="M551.205 239.312C551.205 233.336 555.856 228.459 561.607 228.459C567.357 228.459 572.008 233.308 572.008 239.312C572.008 245.288 567.357 250.164 561.607 250.164C555.884 250.164 551.205 245.316 551.205 239.312Z" fill="#DCDBE1"/>
<path d="M604.678 241.426C601.239 258.395 583.706 267.246 571.585 267.246C558.675 267.246 543.059 259.607 538.352 240.749C552.784 249.149 581.226 248.67 604.678 241.426Z" fill="#DCDBE1"/>
<path d="M571.585 197.34C590.386 197.34 605.636 212.477 605.636 231.194V233.392C605.636 252.081 590.386 267.246 571.585 267.246C552.784 267.246 537.534 252.109 537.534 233.392V231.194C537.534 212.477 552.784 197.34 571.585 197.34Z" stroke="#DCDBE1" stroke-width="7.32882" stroke-miterlimit="10" stroke-linecap="round" stroke-linejoin="round"/>
<path d="M604.678 241.426C601.239 258.395 583.706 267.246 571.585 267.246C558.675 267.246 543.059 259.607 538.352 240.749C552.784 249.149 581.226 248.67 604.678 241.426Z" stroke="#DCDBE1" stroke-width="7.32882" stroke-miterlimit="10" stroke-linecap="round" stroke-linejoin="round"/>
</svg>
