<svg width="677" height="1012" viewBox="0 0 677 1012" fill="none" xmlns="http://www.w3.org/2000/svg">
<path d="M517.2 446.575C519.834 403.077 544.143 359.369 561.028 329.253C567.073 318.485 572.009 307.131 575.756 295.364C578.011 288.3 579.821 281.101 581.175 273.81C592.701 212.41 572.493 148.255 531.689 103.32C553.603 100.326 561.836 106.613 561.836 106.613C550.875 94.2848 536.911 85.0028 521.301 79.6698C524.086 71.3174 562.405 77.4545 562.405 77.4545C562.405 77.4545 530.522 54.3133 501.094 60.63C518.128 44.7635 545.371 45.8113 545.371 45.8113C545.371 45.8113 484.21 38.2373 459.003 50.2718C474.75 37.2493 468.164 16.3235 463.553 4.4386C451.01 37.8181 421.642 40.3628 421.642 40.3628C421.642 40.3628 428.407 27.5199 416.882 21.0835C415.056 32.0403 394.04 40.6921 382.844 42.8475C343.926 50.3018 305.876 55.2114 255.493 95.5064C226.274 118.827 199.66 164.002 177.477 212.529C175.202 217.499 157.3 234.443 141.553 239.083C150.205 236.898 154.965 239.083 161.581 242.466C159.246 248.663 150.474 258.183 136.793 267.942C150.295 264.5 153.198 270.188 152.091 273.72C139.226 315.274 130.158 357.909 124.998 401.101C124.998 401.101 185.051 479.236 317.552 495.851C459.572 513.724 517.2 446.575 517.2 446.575Z" fill="#303032"/>
<g style="mix-blend-mode:multiply" opacity="0.23">
<path d="M576.508 183.97C571.239 159.302 544.865 118.109 531.603 103.32C553.516 100.326 561.749 106.613 561.749 106.613C550.789 94.2848 536.824 85.0028 521.215 79.6698C523.999 71.3174 562.288 77.4545 562.288 77.4545C562.288 77.4545 530.405 54.3133 501.007 60.63C517.951 44.7635 545.224 45.8113 545.224 45.8113C545.224 45.8113 484.063 38.2373 458.856 50.2718C474.603 37.2493 467.837 16.3235 463.377 4.4386C450.863 37.8181 421.465 40.3628 421.465 40.3628C421.465 40.3628 428.231 27.5199 416.675 21.0835C414.879 32.0403 393.863 40.6921 382.667 42.8475C343.749 50.3018 305.699 55.2114 255.286 95.5064C226.098 118.827 199.484 164.002 177.301 212.529C174.995 217.499 157.093 234.443 141.376 239.083C150.028 236.898 154.788 239.083 161.404 242.466C159.039 248.663 150.268 258.183 136.586 267.942C150.118 264.5 152.932 270.188 151.914 273.72C139.936 315.172 130.528 357.323 123.744 399.934C123.744 399.934 121.528 411.549 161.135 430.08C196.131 49.5234 468.406 33.1779 576.508 183.97Z" fill="#1F1F1F"/>
</g>
<path d="M573.034 220.313C567.047 195.914 542.169 167.265 475.26 158.104C436.492 152.805 436.342 129.545 436.342 129.545C436.342 129.545 417.452 158.104 367.188 151.997C311.775 135.053 278.905 144.423 249.387 198.609C243.879 208.697 211.727 302.13 249.028 363.411C257.242 376.891 268.59 388.189 282.108 396.341C342.191 433.014 472.446 444.809 532.05 368.56C559.832 332.845 584.081 265.817 573.034 220.313Z" fill="#303032"/>
<path d="M578.783 228.785C592.734 269.769 559.534 329.852 551.241 336.168C544.835 341.138 438.619 283.36 488.643 159.302C490.53 154.662 535.135 168.283 552.948 182.862C560.971 189.448 574.442 217.888 578.783 228.785Z" fill="#1F1F1F"/>
<path d="M358.537 158.104C425.805 315.063 249.537 353.112 234.808 325.571C221.875 301.412 226.096 241.748 249.776 200.135C252.081 196.064 281.389 160.26 285.7 160.978C320.397 166.876 348.208 158.523 358.537 158.104Z" fill="#1F1F1F"/>
<path d="M366.019 151.788C247.02 143.166 229.776 239.173 229.776 239.173" stroke="#1F1F1F" stroke-width="22.752" stroke-linecap="round" stroke-linejoin="round"/>
<path d="M488.643 159.302C581.147 173.432 590.428 251.747 590.428 251.747" stroke="#1F1F1F" stroke-width="22.752" stroke-linecap="round" stroke-linejoin="round"/>
<path opacity="0.82" d="M560.969 248.753C545.492 257.734 528.518 273.87 488.642 249.98C485.259 267.403 495.318 299.705 523.997 298.867C558.365 297.879 567.346 259.5 560.969 248.753Z" fill="#303032"/>
<path d="M524.386 212.619C519.979 212.603 515.612 213.456 511.535 215.128C507.457 216.8 503.749 219.259 500.621 222.364C497.494 225.469 495.009 229.16 493.308 233.225C491.607 237.291 490.723 241.652 490.707 246.059V248.334C490.968 257.088 494.63 265.397 500.914 271.497C507.199 277.597 515.613 281.009 524.371 281.009C533.13 281.009 541.543 277.597 547.828 271.497C554.113 265.397 557.774 257.088 558.035 248.334V246.148C558.035 241.735 557.164 237.365 555.471 233.29C553.779 229.214 551.299 225.512 548.172 222.397C545.046 219.282 541.336 216.815 537.254 215.137C533.172 213.459 528.799 212.603 524.386 212.619Z" fill="#303032"/>
<path d="M304.441 208.787C300.025 208.771 295.65 209.628 291.566 211.308C287.482 212.988 283.771 215.457 280.644 218.576C277.518 221.694 275.038 225.399 273.347 229.478C271.656 233.557 270.788 237.931 270.792 242.346V244.532C270.792 253.456 274.337 262.015 280.647 268.325C286.958 274.635 295.517 278.181 304.441 278.181C313.365 278.181 321.924 274.635 328.234 268.325C334.545 262.015 338.09 253.456 338.09 244.532V242.346C338.094 237.931 337.226 233.557 335.535 229.478C333.844 225.399 331.364 221.694 328.238 218.576C325.111 215.457 321.399 212.988 317.316 211.308C313.232 209.628 308.857 208.771 304.441 208.787Z" fill="#303032"/>
<path d="M304.439 250.1C300.686 250.1 297.643 247.057 297.643 243.304C297.643 239.551 300.686 236.509 304.439 236.509C308.192 236.509 311.234 239.551 311.234 243.304C311.234 247.057 308.192 250.1 304.439 250.1Z" fill="#1F1F1F"/>
<path d="M524.386 263.362C514.764 263.362 506.963 255.561 506.963 245.939C506.963 236.316 514.764 228.515 524.386 228.515C534.009 228.515 541.81 236.316 541.81 245.939C541.81 255.561 534.009 263.362 524.386 263.362Z" fill="#1F1F1F"/>
<path d="M445.654 261.416C465.801 251.208 491.936 309.944 490.559 324.762C485.949 378.798 402.814 392.719 362.938 359.818C320.398 324.762 378.655 243.753 413.622 258.033" fill="#1F1F1F"/>
<path d="M458.078 264.998L458.078 264.998L458.079 264.992C458.149 263.607 457.544 262.111 456.092 260.555C454.635 258.994 452.412 257.474 449.515 256.114C443.729 253.397 435.539 251.453 426.329 250.996C417.119 250.539 408.782 251.658 402.761 253.783C399.747 254.847 397.388 256.136 395.788 257.542C394.193 258.944 393.447 260.37 393.382 261.756C393.317 263.144 393.926 264.642 395.38 266.199C396.839 267.76 399.062 269.28 401.957 270.64C407.739 273.356 415.921 275.301 425.131 275.758C434.341 276.214 442.678 275.096 448.699 272.971C451.713 271.907 454.072 270.618 455.672 269.211C457.267 267.81 458.013 266.384 458.078 264.998Z" fill="#303032" stroke="#303032" stroke-width="2.99368"/>
<path d="M524.386 211.422C519.979 211.406 515.612 212.258 511.535 213.93C507.457 215.602 503.749 218.061 500.621 221.166C497.494 224.271 495.009 227.962 493.308 232.028C491.607 236.093 490.723 240.454 490.707 244.861V247.046C490.968 255.801 494.63 264.109 500.914 270.209C507.199 276.309 515.613 279.721 524.371 279.721C533.13 279.721 541.543 276.309 547.828 270.209C554.113 264.109 557.774 255.801 558.035 247.046V244.861C558.023 240.455 557.143 236.095 555.446 232.03C553.748 227.964 551.266 224.273 548.141 221.168C545.016 218.062 541.309 215.603 537.233 213.931C533.157 212.259 528.792 211.406 524.386 211.422V211.422Z" stroke="#1F1F1F" stroke-width="7.78357" stroke-linecap="round" stroke-linejoin="round"/>
<path d="M304.441 208.787C300.025 208.771 295.65 209.628 291.566 211.308C287.482 212.988 283.771 215.457 280.644 218.576C277.518 221.694 275.038 225.399 273.347 229.478C271.656 233.557 270.788 237.931 270.792 242.346V244.532C270.792 253.456 274.337 262.015 280.647 268.325C286.958 274.635 295.517 278.181 304.441 278.181C313.365 278.181 321.924 274.635 328.234 268.325C334.545 262.015 338.09 253.456 338.09 244.532V242.346C338.094 237.931 337.226 233.557 335.535 229.478C333.844 225.399 331.364 221.694 328.238 218.576C325.111 215.457 321.399 212.988 317.316 211.308C313.232 209.628 308.857 208.771 304.441 208.787Z" stroke="#1F1F1F" stroke-width="7.78357" stroke-linecap="round" stroke-linejoin="round"/>
<path d="M427.869 272.283C427.869 272.283 434.125 303.926 427.869 310.512C421.612 317.099 394.1 317.458 376.976 303.268" stroke="#303032" stroke-width="7.84344" stroke-linecap="round" stroke-linejoin="round"/>
<path d="M342.102 243.304C329.559 262.254 297.856 282.222 266.871 246.298C263.488 263.721 275.852 290.515 304.442 289.706C338.869 288.808 348.359 254.052 342.102 243.304Z" fill="#303032"/>
<path d="M517.2 446.575C519.834 403.077 544.143 359.369 561.028 329.253C567.073 318.485 572.009 307.131 575.756 295.364C578.011 288.3 579.821 281.101 581.175 273.81C592.701 212.41 572.493 148.255 531.689 103.32C553.603 100.326 561.836 106.613 561.836 106.613C550.876 94.2848 536.911 85.0028 521.301 79.6698C524.086 71.3174 562.405 77.4545 562.405 77.4545C562.405 77.4545 530.522 54.3133 501.094 60.63C518.128 44.7635 545.371 45.8113 545.371 45.8113C545.371 45.8113 484.21 38.2372 459.003 50.2718C474.75 37.2493 468.164 16.3235 463.553 4.4386C451.01 37.8181 421.642 40.3628 421.642 40.3628C421.642 40.3628 428.407 27.5199 416.882 21.0835C415.056 32.0403 394.04 40.6921 382.844 42.8475C343.926 50.3018 305.876 55.2114 255.493 95.5064C226.274 118.827 199.66 164.002 177.477 212.529C175.202 217.499 157.3 234.443 141.553 239.083C150.205 236.898 154.965 239.083 161.581 242.466C159.246 248.663 150.474 258.183 136.793 267.942C150.295 264.5 153.169 270.188 152.091 273.72C139.719 314.482 129.527 355.873 121.555 397.718" stroke="#1F1F1F" stroke-width="7.84344" stroke-linecap="round" stroke-linejoin="round"/>
<path d="M384.101 292.491C384.101 292.491 366.797 295.095 369.761 314.943" stroke="#303032" stroke-width="7.84344" stroke-linecap="round" stroke-linejoin="round"/>
<path d="M458.464 948.855C458.464 948.855 543.814 967.416 555.849 1012.14H401.075C406.96 998.159 413.833 984.613 421.642 971.607C436.94 945.143 458.464 948.855 458.464 948.855Z" fill="#303032"/>
<g style="mix-blend-mode:multiply" opacity="0.23">
<path d="M457.388 947.298C457.388 947.298 542.738 965.829 554.772 1010.58H400.029C405.918 996.584 412.811 983.027 420.656 970.02C435.893 943.676 457.388 947.298 457.388 947.298Z" fill="#1F1F1F"/>
</g>
<path d="M227.652 958.136C227.652 958.136 280.042 970.11 298.004 1009.6L163.288 1010.94C163.288 1010.94 157.84 999.838 172.449 974.721C187.866 948.376 227.652 958.136 227.652 958.136Z" fill="#303032"/>
<path d="M470.798 950.621C470.798 950.621 542.646 965.829 554.621 1010.49H399.878" stroke="#1F1F1F" stroke-width="7.84344" stroke-linecap="round" stroke-linejoin="round"/>
<path d="M352.281 906.943C352.281 948.316 339.408 960.83 328.331 989.599C320.548 1009.57 338.989 1010.55 338.989 1010.55H401.018C415.208 972.146 446.252 960.021 467.657 953.196C490.08 946.041 487.325 858.506 487.325 858.506" fill="#303032"/>
<g style="mix-blend-mode:multiply" opacity="0.23">
<path d="M352.281 906.943C352.281 948.316 339.408 960.83 328.331 989.599C320.548 1009.57 338.989 1010.55 338.989 1010.55H401.018C415.208 972.146 446.252 960.021 467.657 953.196C490.08 946.041 487.325 858.506 487.325 858.506" fill="#1F1F1F"/>
</g>
<path d="M352.279 906.943C352.279 948.316 339.407 960.83 328.33 989.599C320.546 1009.57 338.987 1010.55 338.987 1010.55H401.017C415.207 972.146 447.449 958.285 468.853 951.429C491.306 944.274 487.175 853.985 487.175 853.985" stroke="#1F1F1F" stroke-width="7.84344" stroke-linecap="round" stroke-linejoin="round"/>
<path d="M434.636 967.476C434.636 967.476 517.291 973.014 552.557 1009.6" stroke="#1F1F1F" stroke-width="7.84344" stroke-linecap="round" stroke-linejoin="round"/>
<path d="M547.768 752.499L537.17 801.416L531.183 790.699L523.908 831.114L515.765 822.761L490.439 853.057C490.439 853.057 429.846 905.147 367.279 904.429C326.026 910.416 272.678 903.531 248.789 899.369C248.789 919.008 237.802 944.813 228.132 956.549C187.598 961.039 160.804 1010.61 160.804 1010.61C160.804 1010.61 101.709 1010.61 80.4241 1009.24C75.4881 1006.73 71.343 1002.91 68.4494 998.191C88.7765 946.759 123.832 879.851 94.9434 804.5C83.9314 774.287 79.3728 742.102 81.5616 710.019" fill="#303032"/>
<g style="mix-blend-mode:multiply" opacity="0.23">
<path d="M490.438 853.057C490.438 853.057 357.159 930.504 213.702 854.045C209.061 864.164 215.228 893.532 215.228 893.532C215.228 893.532 401.076 942.598 490.438 853.057Z" fill="#1F1F1F"/>
</g>
<g style="mix-blend-mode:multiply" opacity="0.23">
<path d="M173.107 992.742C168.562 998.4 164.468 1004.41 160.863 1010.7C160.863 1010.7 101.768 1010.7 80.4827 1009.33C75.5467 1006.82 71.4016 1003 68.508 998.281C85.4822 938.407 124.939 913.619 89.4638 781.867C83.534 758.408 81.3218 734.164 82.9076 710.019L175.173 723.85C175.173 723.85 74.0164 1004.96 173.107 992.742Z" fill="#1F1F1F"/>
</g>
<path d="M546.389 763.037C543.974 776.318 540.887 789.467 537.138 802.434C536.06 796.656 535.282 796.596 531.75 792.944C532.348 799.081 526.092 826.563 522.769 832.82C522.17 827.012 520.224 825.755 515.733 822.761C481.156 882.365 383.443 930.953 220.317 894.28" stroke="#1F1F1F" stroke-width="7.84344" stroke-linecap="round" stroke-linejoin="round"/>
<path d="M571.807 730.735C571.807 730.735 724.485 662.539 653.415 568.478C596.535 533.841 624.137 587.637 554.264 596.738" fill="#303032"/>
<g style="mix-blend-mode:multiply" opacity="0.23">
<path d="M573.752 730.885C573.752 730.885 666.137 689.602 673.741 627.004C675.926 609.042 664.491 651.672 631.38 631.764C574.501 597.517 626.082 587.757 556.209 596.858" fill="#1F1F1F"/>
</g>
<path d="M540.074 441.726C540.074 441.726 602.044 483.637 546.062 582.698C588.722 688.914 568.125 748.548 568.125 748.548C487.296 813.331 128.054 781.927 40.8182 694.662C46.4164 596.289 89.5853 464.537 111.858 398.796C101.859 395.563 88.6273 365.656 123.833 357.573C167.99 413.705 337.372 498.935 525.585 423.434C529.62 424.566 533.194 426.945 535.796 430.23C538.398 433.515 539.896 437.539 540.074 441.726Z" fill="#1F1F1F"/>
<g style="mix-blend-mode:multiply" opacity="0.23">
<path d="M532.92 547.911C517.263 573.627 508.731 578.058 437.751 577.249C378.925 577.249 329.978 559.796 314.411 576.89C284.834 609.551 387.008 592.158 449.127 594.313C483.704 595.511 539.835 587.697 562.887 634.399C559.863 609.761 539.476 562.94 532.92 547.911Z" fill="#1F1F1F"/>
</g>
<g style="mix-blend-mode:multiply" opacity="0.23">
<path d="M153.976 755.493C135.176 746.243 52.1913 707.594 41.0249 696.488C46.6231 598.115 89.8219 466.363 112.065 400.622C102.096 397.419 88.8639 367.512 124.04 359.399C131.793 369.278 185.769 411.549 208.94 418.375C66.8005 401.82 127.273 651.403 153.976 755.493Z" fill="#1F1F1F"/>
</g>
<path d="M525.434 467.77C525.434 467.77 544.024 515.669 532.649 554.767C554.053 577.01 584.349 701.098 568.064 748.548C544.114 792.076 172.748 809.858 40.7569 694.661C57.0425 534.978 113.533 401.82 113.533 401.82" stroke="#1F1F1F" stroke-width="7.84344" stroke-linecap="round" stroke-linejoin="round"/>
<path d="M318.691 488.517C318.691 488.517 406.675 505.491 528.697 466.873C549.653 438.043 525.434 423.704 525.434 423.704C525.434 423.704 422.601 462.891 294.711 444.48C196.159 430.29 132.065 369.638 123.682 357.663C109.163 355.448 96.0208 386.013 109.163 397.988C146.913 432.595 174.755 437.924 174.755 437.924" stroke="#303032" stroke-width="7.84344" stroke-linecap="round" stroke-linejoin="round"/>
<path d="M536.988 438.612C536.988 438.612 599.077 484.385 554.082 563.987" stroke="#1F1F1F" stroke-width="7.84344" stroke-linecap="round" stroke-linejoin="round"/>
<path d="M81.3209 724.329C78.3272 768.306 94.9721 805.697 103.564 844.944C112.306 884.97 94.583 936.431 69.466 995.347C65.664 1004.33 77.04 1009.6 83.8955 1009.6H161.552C161.552 1009.6 192.865 958.704 225.497 957.507C246.153 935.922 247.859 899.759 247.859 899.759" stroke="#1F1F1F" stroke-width="7.84344" stroke-linecap="round" stroke-linejoin="round"/>
<path d="M611.502 563.987C576.685 601.618 555.61 596.918 556.239 596.229" stroke="#1F1F1F" stroke-width="7.84344" stroke-linecap="round" stroke-linejoin="round"/>
<path d="M225.497 957.507C225.497 957.507 288.963 974.66 298.513 1009.6H161.552" stroke="#1F1F1F" stroke-width="7.84344" stroke-linecap="round" stroke-linejoin="round"/>
<path d="M298.513 1009.6C298.513 1009.6 247.86 972.505 193.734 972.176" stroke="#1F1F1F" stroke-width="7.84344" stroke-linecap="round" stroke-linejoin="round"/>
<path d="M609.824 563.987C609.824 563.987 564.35 592.607 571.475 635.596C588.299 628.83 630.211 658.468 630.211 658.468C630.211 658.468 615.662 619.191 613.117 607.964C610.393 595.211 609.824 563.987 609.824 563.987Z" fill="#303032"/>
<path d="M633.538 661.462C633.538 661.462 592.434 576.501 615.037 560.006C616.31 559.098 617.727 558.41 619.228 557.97C661.858 545.457 700.506 628.202 644.075 680.891C614.139 708.912 582.855 726.694 571.808 730.646" stroke="#1F1F1F" stroke-width="7.84344" stroke-linecap="round" stroke-linejoin="round"/>
<path d="M616.832 558.988C616.832 558.988 583.901 574.376 575.669 600.001C569.921 617.964 568.394 639.518 574.95 637.632C589.919 633.291 632.01 658.318 632.01 658.318" stroke="#1F1F1F" stroke-width="7.84344" stroke-linecap="round" stroke-linejoin="round"/>
<path d="M612.791 606.857C588.033 605.929 574.502 631.764 574.502 631.764" stroke="#1F1F1F" stroke-width="7.84344" stroke-linecap="round" stroke-linejoin="round"/>
<path d="M492.502 434.511C494.437 441.119 494.238 448.17 491.933 454.658" stroke="#303032" stroke-width="7.84344" stroke-linecap="round" stroke-linejoin="round"/>
<path d="M474.872 438.283C476.868 444.436 476.667 451.092 474.303 457.113" stroke="#303032" stroke-width="7.84344" stroke-linecap="round" stroke-linejoin="round"/>
<path d="M387.006 450.946C388.603 456.969 388.193 463.349 385.838 469.118" stroke="#303032" stroke-width="7.84344" stroke-linecap="round" stroke-linejoin="round"/>
<path d="M306.535 446.994C307.537 453.19 306.844 459.542 304.53 465.376" stroke="#303032" stroke-width="7.84344" stroke-linecap="round" stroke-linejoin="round"/>
<path d="M290.82 444.539C291.821 450.363 291.113 456.352 288.784 461.783" stroke="#303032" stroke-width="7.84344" stroke-linecap="round" stroke-linejoin="round"/>
<path d="M274.652 441.217C275.654 447.067 274.958 453.083 272.646 458.55" stroke="#303032" stroke-width="7.84344" stroke-linecap="round" stroke-linejoin="round"/>
<path d="M470.799 819.079L468.853 833.778" stroke="#1F1F1F" stroke-width="11.5855" stroke-linecap="round" stroke-linejoin="round"/>
<path d="M452.538 826.982L450.622 841.681" stroke="#1F1F1F" stroke-width="11.5855" stroke-linecap="round" stroke-linejoin="round"/>
<path d="M433.349 833.778L431.433 848.477" stroke="#1F1F1F" stroke-width="11.5855" stroke-linecap="round" stroke-linejoin="round"/>
<path d="M129.641 925.564C129.641 925.564 94.5547 948.376 47.5839 893.502C48.3323 927.36 88.2081 962.057 88.2081 962.057C88.2081 962.057 123.294 951.998 129.641 925.564Z" fill="#303032"/>
<g style="mix-blend-mode:multiply" opacity="0.23">
<path d="M129.641 925.564C129.641 925.564 94.5547 948.376 47.5839 893.502C48.3323 927.36 88.2081 962.057 88.2081 962.057C88.2081 962.057 123.294 951.998 129.641 925.564Z" fill="#1F1F1F"/>
</g>
<path d="M47.5831 893.502C47.5831 893.502 75.9033 944.993 108.205 947.717" stroke="#1F1F1F" stroke-width="7.84344" stroke-linecap="round" stroke-linejoin="round"/>
<path d="M129.641 925.564C129.641 925.564 94.5547 948.376 47.5839 893.502C48.3323 927.36 88.2081 962.057 88.2081 962.057C88.2081 962.057 123.294 951.998 129.641 925.564Z" stroke="#1F1F1F" stroke-width="7.84344" stroke-linecap="round" stroke-linejoin="round"/>
<path d="M262.441 591.919C262.441 591.919 306.119 1027.98 90.7534 963.524C213.015 906.105 122.067 609.462 122.067 609.462C122.067 609.462 120.511 580.782 189.545 571.711C260.735 562.341 262.441 591.919 262.441 591.919Z" fill="#303032"/>
<path d="M276.21 579.405C277.707 567.43 281.09 393.288 161.043 406.849C61.8328 418.075 98.5653 585.332 105.66 605.091C130.568 611.707 108.145 599.103 194.064 587.727C260.972 578.986 261.451 602.815 276.21 579.405Z" fill="#1F1F1F"/>
<g style="mix-blend-mode:multiply" opacity="0.23">
<path d="M122.067 608.144C119.204 609.09 116.127 609.18 113.213 608.403C110.299 607.627 107.675 606.018 105.662 603.773C98.5665 584.015 61.8341 416.758 161.045 405.532C189.814 402.299 211.488 409.813 227.804 423.314C126.947 395.563 106.53 489.505 131.737 565.634C245.017 907.692 101.59 960.291 196.131 944.245C170.834 966.937 136.676 975.948 90.753 962.207C213.015 904.788 122.067 608.144 122.067 608.144Z" fill="#1F1F1F"/>
</g>
<path d="M262.441 591.918C262.441 591.918 306.119 1027.98 90.7534 963.524C213.015 906.105 122.067 609.461 122.067 609.461" stroke="#1F1F1F" stroke-width="7.84344" stroke-linecap="round" stroke-linejoin="round"/>
<path d="M262.441 591.679C262.441 591.679 275.313 588.955 276.78 577.1C278.247 565.245 281.66 391.013 161.613 404.574C62.4029 415.77 99.1354 583.027 106.23 602.815C107.942 605.328 110.359 607.278 113.178 608.418C115.996 609.558 119.09 609.838 122.067 609.222" stroke="#303032" stroke-width="7.84344" stroke-linecap="round" stroke-linejoin="round"/>
<path d="M277.17 564.257C277.17 564.257 216.817 550.067 156.495 567.251" stroke="#303032" stroke-width="7.84344" stroke-linecap="round" stroke-linejoin="round"/>
<path d="M230.618 562.341C231.327 566.492 231.327 570.733 230.618 574.884" stroke="#303032" stroke-width="7.84344" stroke-linecap="round" stroke-linejoin="round"/>
<path d="M187.151 563.059C188.812 567.6 189.595 572.416 189.456 577.249" stroke="#303032" stroke-width="7.84344" stroke-linecap="round" stroke-linejoin="round"/>
<path d="M170.266 563.808C172.48 568.736 173.671 574.063 173.769 579.465" stroke="#303032" stroke-width="7.84344" stroke-linecap="round" stroke-linejoin="round"/>
<path d="M172.331 670.083L174.277 684.782" stroke="#1F1F1F" stroke-width="11.5855" stroke-linecap="round" stroke-linejoin="round"/>
<path d="M189.543 674.724L191.459 689.453" stroke="#1F1F1F" stroke-width="11.5855" stroke-linecap="round" stroke-linejoin="round"/>
<path d="M12.3186 652.481C12.4161 651.959 12.4025 651.423 12.2787 650.907C12.1548 650.391 11.9236 649.907 11.6001 649.487C11.2951 649.061 10.9073 648.701 10.4597 648.428C10.0122 648.155 9.51418 647.976 8.99559 647.9C8.4719 647.818 7.93695 647.842 7.42265 647.97C6.90834 648.099 6.42519 648.33 6.00191 648.649C5.15077 649.274 4.58064 650.21 4.41526 651.253C4.32796 651.779 4.35211 652.317 4.4862 652.833C4.62029 653.349 4.86131 653.83 5.1936 654.247C5.50677 654.672 5.90067 655.03 6.35273 655.303C6.80479 655.575 7.30616 655.755 7.82805 655.834C8.34779 655.923 8.88005 655.908 9.39396 655.79C9.90788 655.671 10.3932 655.452 10.8217 655.145C11.2489 654.835 11.6038 654.437 11.8622 653.977C12.1206 653.517 12.2763 653.007 12.3186 652.481Z" fill="#1F1F1F"/>
<path d="M10.1319 667.09C10.2161 666.566 10.1932 666.031 10.0646 665.516C9.93592 665.002 9.70422 664.519 9.38351 664.096C9.07888 663.666 8.68671 663.304 8.2327 663.036C7.77869 662.768 7.27312 662.599 6.74911 662.539C6.22551 662.448 5.68857 662.467 5.17292 662.596C4.65727 662.725 4.17439 662.961 3.75543 663.288C3.33354 663.594 2.97809 663.983 2.71054 664.431C2.443 664.878 2.26888 665.376 2.1987 665.892C2.10557 666.418 2.12687 666.957 2.26119 667.474C2.39551 667.991 2.63968 668.472 2.97704 668.886C3.28436 669.314 3.67723 669.673 4.13073 669.941C4.58424 670.209 5.08849 670.38 5.61149 670.443C6.13119 670.528 6.66257 670.508 7.17448 670.384C7.68638 670.261 8.16846 670.036 8.59238 669.724C9.0163 669.412 9.37354 669.018 9.64307 668.565C9.91259 668.113 10.089 667.611 10.1619 667.09H10.1319Z" fill="#1F1F1F"/>
<path d="M8.00674 681.729C8.08499 681.203 8.05639 680.667 7.92265 680.153C7.78891 679.638 7.55275 679.156 7.22836 678.735C6.91974 678.309 6.52655 677.95 6.07329 677.683C5.62003 677.415 5.11645 677.243 4.59395 677.179C4.06825 677.099 3.53177 677.126 3.01712 677.26C2.50248 677.394 2.02043 677.631 1.60027 677.957C1.17838 678.263 0.822932 678.652 0.555386 679.1C0.287839 679.548 0.113727 680.045 0.0435419 680.561C-0.034708 681.087 -0.00610161 681.623 0.127639 682.138C0.261379 682.652 0.497489 683.134 0.821882 683.555C1.46915 684.406 2.42719 684.966 3.48626 685.112C4.00796 685.197 4.54138 685.177 5.05536 685.054C5.56935 684.93 6.05361 684.706 6.47994 684.393C6.9031 684.077 7.25696 683.678 7.51957 683.219C7.78218 682.761 7.94799 682.254 8.00674 681.729Z" fill="#1F1F1F"/>
<path d="M296.19 535.398C306.518 535.398 316.038 535.398 325.049 535.398C332.534 535.398 334.39 539.649 334.03 543.99C333.84 546.952 332.727 549.78 330.848 552.078C328.969 554.375 326.418 556.028 323.552 556.803L322.116 557.252C329.6 561.084 330.408 569.226 334.988 576.082L319.451 576.441C316.936 571.981 314.452 567.46 312.326 562.91C311.879 561.542 310.915 560.404 309.639 559.738C308.364 559.072 306.878 558.932 305.501 559.347C304.992 565.154 304.992 570.994 305.501 576.8L291.76 577.16C290.266 563.082 291.776 548.848 296.19 535.398ZM308.165 542.942C307.566 545.516 307.057 548.061 306.548 551.204C309.553 551.276 312.558 551.086 315.529 550.636C316.612 550.571 317.644 550.157 318.47 549.455C319.296 548.753 319.871 547.801 320.11 546.744C320.529 544.678 319.421 543.181 316.787 542.882C313.944 542.741 311.095 542.761 308.255 542.942H308.165Z" fill="#303032"/>
<path d="M375.941 545.277L362.739 546.145C362.727 545.443 362.577 544.75 362.296 544.106C362.016 543.462 361.61 542.879 361.104 542.392C360.598 541.906 360 541.524 359.345 541.269C358.691 541.014 357.992 540.89 357.29 540.906H356.751C355.635 540.764 354.502 540.976 353.514 541.514C352.525 542.051 351.73 542.886 351.243 543.9C351.243 545.876 352.5 546.504 354.237 546.894C357.23 547.612 360.553 548.241 363.756 549.049C365.516 549.499 367.246 550.059 368.936 550.726C379.653 555.066 377.737 566.592 369.534 572.13C366.758 573.989 363.646 575.29 360.374 575.962C355.426 576.981 350.313 576.889 345.405 575.693C342.279 575.012 339.51 573.212 337.618 570.632C335.727 568.051 334.845 564.868 335.137 561.682L347.71 560.784C347.95 561.623 348.129 562.371 348.339 563.119C348.661 564.039 349.162 564.886 349.812 565.611C350.463 566.336 351.25 566.926 352.129 567.346C353.008 567.766 353.962 568.008 354.935 568.059C355.908 568.109 356.881 567.967 357.799 567.64L358.428 567.4C359.341 567.139 360.162 566.623 360.793 565.913C361.424 565.202 361.839 564.327 361.99 563.389C362.021 562.593 361.785 561.809 361.318 561.163C360.851 560.517 360.181 560.047 359.416 559.826C357.943 559.301 356.444 558.851 354.925 558.479C351.931 557.611 348.579 556.982 345.645 555.875C339.987 553.689 337.562 549.887 338.52 545.187C339.263 542.495 340.745 540.065 342.798 538.171C344.85 536.277 347.392 534.995 350.135 534.47C355.755 532.855 361.697 532.732 367.379 534.111C369.959 534.532 372.282 535.922 373.873 537.997C375.464 540.072 376.204 542.676 375.941 545.277Z" fill="#303032"/>
</svg>
