<svg width="855" height="1024" viewBox="0 0 855 1024" fill="none" xmlns="http://www.w3.org/2000/svg">
<path d="M91.8725 531.174C85.6988 525.475 99.0553 513.336 103.359 507.637C162.603 429.071 201.693 402.595 246.927 405.356C245.74 273.067 293.645 143.093 425.073 81.7421C446.355 71.4428 468.883 65.7143 491.5 57.4926C495.714 55.9492 504.589 53.6638 507.735 49.0335C511.238 43.8987 508.863 36.4784 509.071 36.5081C528.215 39.7433 519.637 56.8693 519.637 56.8693C519.637 56.8693 523.407 56.6319 525.247 56.246C533.261 54.4652 541.483 47.5198 540.889 35.4692C540.147 19.4711 522.873 12.9412 525.455 11.6352C526.138 11.3088 556.412 -2.67107 579.712 15.7016C592.475 25.7932 598.56 39.6246 594.196 57.9082C622.868 52.6546 618.505 27.7818 618.951 27.8708C644.476 32.4121 653.945 62.3603 635.839 74.3515C635.839 77.4087 648.216 76.7557 656.586 70.8195C662.79 66.4267 665.491 56.4835 666.203 56.9287C690.185 71.8286 679.085 97.5919 657.684 99.9664C656.111 100.144 652.817 100.323 653.321 101.836C653.499 102.371 658.248 105.784 666.322 105.932C674.454 106.051 677.719 101.955 678.075 103.024C681.667 114.006 663.591 123.593 656.616 120.12C670.952 129.677 680.658 141.015 689.948 157.103C730.848 228.041 708.736 307.764 675.196 374.844C672.228 380.75 668.013 387.547 667.064 394.225C666.589 397.52 668.518 403.159 667.064 406.098C666.44 407.344 663.502 402.833 663.324 404.228C662.671 409.541 663.086 415.566 663.68 421.027C694.786 432.544 728.533 463.056 770.503 518.678C774.836 524.407 788.192 536.576 781.959 542.245C824.463 595.582 850.731 693.263 848.534 715.85C846.011 741.614 825.591 762.272 769.018 786.106C714.91 808.931 673.712 815.698 640.291 817.805C627.974 836.237 612.183 855.352 591.852 875.357C590.368 876.811 588.854 878.236 587.251 879.601C593.425 901.12 577.931 946.77 561.488 962.798C599.895 961.581 645.96 997.079 649.107 999.929C662.552 1012.19 658.367 1013.05 649.107 1013.05C639.846 1013.05 565.673 1009.28 526.494 1008.63C510.585 1008.36 491.114 1007.44 475.294 1006.9C465.707 1006.55 420.384 1006.28 427.359 989.926C435.64 970.396 445.583 943.653 446.622 928.516C421.63 930.059 396.728 928.457 374.318 923.292C367.729 942.377 354.491 958.078 335.644 964.519C389.812 973.987 410.737 992.954 423.589 1009.01C425.192 1012.31 383.163 1013.7 336.683 1015.42C282.722 1017.44 217.305 1020.32 195.104 1015.18C172.932 1010.05 191.631 977.282 195.935 964.104C210.36 919.76 224.725 858.142 203.028 813.531C193.887 811.572 183.112 809.049 168.776 808.07C141.588 806.23 110.839 801.124 83.443 789.578C26.841 765.744 7.66699 731.374 5.11444 705.61C2.91803 682.993 42.394 590.715 91.8725 531.174ZM722.33 719.501C722.33 712.081 698.644 707.005 683.121 694.421C681.014 715.999 677.126 738.082 668.993 761.114C676.591 756.692 722.33 726.417 722.33 719.501ZM190.058 751.586C187.208 730.038 185.576 707.094 185.991 686.822C169.637 697.923 144.675 707.035 145.566 713.684C146.783 722.707 161.415 738.467 190.058 751.586Z" fill="#FDFDFF"/>
<path d="M276.55 1017.53C284.326 1017.32 292.281 1017.08 300.265 1016.79C303.975 1016.67 307.685 1016.52 311.366 1016.4C319.973 1016.08 328.492 1015.75 336.743 1015.45C338.02 1015.39 339.266 1015.36 340.542 1015.3C341.403 1015.27 342.264 1015.24 343.125 1015.21C347.547 1015.04 351.91 1014.89 356.155 1014.71C357.134 1014.68 358.114 1014.65 359.064 1014.62C366.87 1014.29 374.349 1014 381.265 1013.67C382.304 1013.64 383.313 1013.61 384.293 1013.55C385.45 1013.49 386.608 1013.43 387.736 1013.37C389.131 1013.32 390.526 1013.23 391.861 1013.17C393.197 1013.11 394.533 1013.02 395.809 1012.96C397.263 1012.87 398.688 1012.78 400.024 1012.69C401.508 1012.6 402.932 1012.48 404.298 1012.39C406.999 1012.22 409.462 1012.01 411.659 1011.8C412.727 1011.68 413.736 1011.59 414.686 1011.47C414.805 1011.47 414.894 1011.47 415.013 1011.45C415.844 1011.36 416.645 1011.24 417.357 1011.15C417.892 1011.09 418.426 1011 418.901 1010.91C419.138 1010.88 419.376 1010.85 419.583 1010.79C420.682 1010.61 421.602 1010.38 422.284 1010.17C422.522 1010.08 422.7 1010.02 422.878 1009.93C423.056 1009.87 423.205 1009.78 423.323 1009.69C423.442 1009.6 423.531 1009.52 423.59 1009.46C423.679 1009.31 423.709 1009.16 423.62 1009.01C421.81 1006.76 419.851 1004.44 417.654 1002.1C416.912 1001.32 416.17 1000.52 415.369 999.751C414.567 998.949 413.766 998.148 412.905 997.376C412.074 996.605 411.213 995.833 410.323 995.031C404.238 989.808 396.67 984.613 386.815 979.864C385.064 979.033 383.254 978.202 381.354 977.371C381.176 977.312 380.998 977.223 380.79 977.134C379.9 976.748 378.95 976.362 378 975.976C376.724 975.472 375.418 974.967 374.082 974.492C372.925 974.047 371.708 973.631 370.491 973.216C369.571 972.889 368.651 972.563 367.671 972.266C366.662 971.94 365.623 971.613 364.584 971.286C363.931 971.079 363.249 970.901 362.566 970.693C361.705 970.426 360.815 970.159 359.895 969.921C359.034 969.684 358.143 969.446 357.223 969.209C354.315 968.407 351.287 967.695 348.141 966.983C346.568 966.627 344.965 966.3 343.303 965.944C340.839 965.439 338.316 964.964 335.704 964.519C312.108 973.958 288.037 991.143 276.55 1017.53Z" fill="#FDFDFF"/>
<path d="M520.381 1008.48C522.488 1008.54 524.536 1008.6 526.555 1008.63C565.734 1009.28 639.907 1013.05 649.168 1013.05C652.967 1013.05 655.875 1012.9 657.122 1011.89C658.517 1010.67 657.597 1008.33 653.056 1003.7C652.789 1003.4 652.492 1003.1 652.195 1002.84C651.898 1002.54 651.601 1002.21 651.275 1001.92C650.622 1001.26 649.91 1000.61 649.168 999.929C646.021 997.079 599.956 961.581 561.549 962.798H561.519C545.61 973.424 529.167 988.917 520.381 1008.48Z" fill="#FDFDFF"/>
<path d="M660.86 466.202C663.502 468.28 666.173 475.463 667.42 478.104C670.15 483.951 666.292 489.413 666.589 492.47C666.945 496.061 674.187 509.388 681.311 522.863C686.475 532.629 690.304 542.601 693.035 552.485C695.736 562.25 697.398 571.956 698.229 581.246C722.271 559.787 754.92 549.339 775.37 544.857C792.704 541.028 774.866 525.624 769.731 518.827C727.316 462.64 694.311 432.484 662.908 421.176C662.997 422.037 663.086 422.897 663.175 423.728C663.413 426.043 666.054 432.247 664.422 430.585C663.888 430.05 662.315 424.827 660.029 425.598C658.723 426.044 660.207 462.878 660.86 466.202Z" fill="#DCDBE1"/>
<path d="M96.6224 533.4C169.876 567.593 190.563 608.345 215.317 638.412C215.525 638.679 215.763 638.946 215.97 639.184C211.637 655.657 204.81 670.379 190.356 682.489C188.693 683.884 186.853 685.219 184.894 686.555C184.419 707.272 185.488 729.118 188.456 751.082C192.76 753.1 197.42 755.029 202.376 756.87C225.172 765.358 251.885 737.963 287.443 758.383C306.35 769.247 313.978 791.982 314.72 799.551C315.491 807.15 291.093 781.98 238.944 810.622C225.884 817.775 215.822 816.202 202.08 813.294C203.593 816.469 205.285 820.536 206.413 823.652C235.293 857.34 305.311 877.049 359.419 886.19C455.379 902.485 539.822 894.709 600.787 864.879C637.977 825.938 658.131 790.291 669.32 756.603C671.458 750.251 673.238 743.988 674.752 737.785C681.787 709.409 683.33 682.281 684.547 655.568C694.015 650.017 712.507 582.048 680.985 522.448C673.862 508.973 666.59 495.646 666.263 492.054C665.966 488.997 671.992 483.684 669.261 477.837C667.391 473.889 657.507 459.375 658.902 467.389C536.705 502.532 414.062 477.303 398.955 473.949C376.605 468.992 352.682 462.106 328.818 454.033C317.51 434.503 299.76 416.961 272.424 409.63C253.042 404.436 235.441 403.189 217.959 407.433C183.321 415.714 149.069 445.277 102.232 507.37C97.0974 514.167 80.5056 525.891 96.6224 533.4Z" fill="#DCDBE1"/>
<path d="M693.958 237.717C687.666 212.072 675.823 189.841 655.224 178.918C627.354 164.137 609.486 166.957 583.989 161.495C573.393 159.21 565.053 154.936 563.302 144.162C562.53 139.383 564.311 134.219 568.941 127.6C559.473 127.6 549.055 131.399 541.278 137.632C525.547 150.276 505.364 153.007 486.873 152.413C421.752 150.365 380.525 157.904 349.033 214.922C341.969 227.714 331.106 257.009 338.497 289.748C349.271 337.416 354.881 357.421 406.615 393.127C468.085 435.542 595.298 456.645 658.816 376.417C688.527 338.811 705.712 285.592 693.958 237.717Z" fill="#FDFDFF"/>
<path d="M575.019 259.562C596.449 248.847 613.813 303.015 612.091 318.568C606.185 371.846 528.242 369.115 492.12 351.039C439.97 324.979 503.755 240.981 541.034 255.911" fill="#DCDBE1"/>
<path d="M693.865 237.865C703.719 277.667 692.262 322.367 683.447 328.986C676.62 334.091 640.469 312.305 616.279 276.272C590.872 238.488 589.061 198.894 595.739 192.215C599.509 188.446 656.704 183.014 664.273 184.854C673.89 187.229 687.157 210.736 693.865 237.865Z" fill="#DCDBE1"/>
<path d="M494.17 190.494C500.225 302.036 367.817 361.22 352.858 339.523C343.271 325.632 324.809 267.516 345.764 221.451C356.627 197.558 379.185 170.756 390.761 170.637C411.27 170.429 438.132 176.93 460.066 181.916C478.439 186.101 493.131 182.985 494.17 190.494Z" fill="#DCDBE1"/>
<path d="M653.441 117.181C667.806 126.768 679.234 138.997 688.643 154.906C730.315 225.369 708.232 307.497 674.692 374.576C671.754 380.483 667.51 387.28 666.56 393.958C666.085 397.282 668.014 402.922 666.56 405.831C665.936 407.077 662.998 402.566 662.82 403.961C662.048 410.105 662.761 417.228 663.443 423.313C663.71 425.628 666.352 431.831 664.69 430.199C664.156 429.665 662.612 424.441 660.327 425.212C658.991 425.658 660.297 458.752 660.95 462.076" stroke="#DCDBE1" stroke-width="8.25314" stroke-miterlimit="10" stroke-linecap="round" stroke-linejoin="round"/>
<path d="M219.885 815.757C226.267 815.816 232.47 814.51 239.534 810.622C291.684 781.98 316.082 807.149 315.31 799.551C314.568 791.982 306.94 769.247 288.033 758.383C259.005 741.702 235.854 756.929 215.938 758.443C226.297 771.591 236.21 791.062 219.885 815.757Z" fill="#FDFDFF"/>
<path d="M650.29 800.531C652.19 776.993 637.023 770.76 637.023 765.655C637.023 761.411 661.45 747.817 671.542 751.586C682.079 755.504 682.494 775.688 676.795 781.743C677.567 788.569 672.254 804.538 662.014 810.978C651.804 817.449 645.897 813.679 650.29 800.531Z" fill="#FDFDFF"/>
<path d="M382.249 758.94C383.546 760.441 384.914 762.022 386.283 763.602C396.811 775.468 411.74 782.379 424.927 787.615C431.618 790.58 438.777 793.262 446.332 795.584C457.393 799.205 467.395 801.108 479.806 801.757C482.373 802.028 484.872 802.143 487.366 802.334C490.24 802.543 493.113 802.751 495.989 802.884C523.697 804.164 549.36 800.418 570.234 791.974C596.284 781.494 614.917 764.071 625.808 740.146C628.342 734.573 630.384 728.143 631.848 721.079C632.064 721.317 632.566 721.947 632.656 721.648C664.505 611.901 573.785 560.675 573.702 560.823C572.196 558.933 570.507 557.717 569.039 556.663C568.966 556.584 568.891 556.58 568.819 556.501C567.522 555 566.223 553.574 564.995 552.228L564.923 552.148C562.922 549.477 561.196 547.425 559.535 545.603C559.391 545.445 559.319 545.365 559.174 545.207L559.102 545.128L559.03 545.049C558.741 544.732 558.449 544.491 558.236 544.177C553.26 538.561 549.929 538.407 548.794 538.355C548.188 538.327 547.503 538.371 546.891 538.495C546.378 538.092 545.866 537.689 545.353 537.286C544.848 536.731 543.978 535.857 542.716 535.267C542.052 534.857 541.384 534.523 540.71 534.34C540.562 534.257 540.414 534.175 540.266 534.092C539.375 533.671 538.477 533.402 537.569 533.36C535.828 533.28 534.055 533.881 532.709 535.108C532.55 535.253 532.471 535.325 532.313 535.47C531.047 534.956 529.622 534.587 527.964 534.358C527.812 534.351 527.585 534.341 527.434 534.334C525.087 534.225 522.912 535.339 521.613 537.175C521.086 537.075 520.632 537.054 520.102 537.03C518.815 536.97 517.745 537.149 516.819 537.485C516.743 537.482 516.668 537.478 516.668 537.478C514.145 537.893 512.093 539.619 511.3 542.01C510.948 543.056 510.823 544.112 511.005 545.107C507.215 546.676 503.696 548.942 500.532 551.754L498.333 551.728C496.437 551.717 494.654 552.545 493.383 553.776C478.55 556.277 465.6 562.355 454.774 571.717C453.827 572.508 452.873 573.45 451.919 574.393C447.002 579.021 442.266 584.644 437.55 591.481C426.377 591.952 412.368 596.312 401.53 612.501C400.573 613.519 399.753 614.847 398.991 616.557C398.085 618.108 397.251 619.738 396.489 621.448C395.363 622.838 394.601 624.547 394.283 626.505C394.2 626.653 394.193 626.804 394.114 626.877C393.639 627.31 393.088 627.74 392.613 628.173C388.908 631.188 383.364 636.243 377.791 643.572C374.041 647.571 370.792 652.2 368.125 657.388C361.872 667.948 358.109 678.774 356.845 689.716C355.581 700.658 356.816 711.716 360.559 722.661C364.424 735.889 371.676 748.058 382.249 758.94ZM652.827 718.559C652.751 718.555 652.676 718.552 652.6 718.548C652.751 718.555 652.827 718.559 652.827 718.559ZM649.701 672.895L649.626 672.892L649.701 672.895ZM643.211 663.947C643.211 663.947 643.214 663.871 643.211 663.947C643.214 663.871 643.211 663.947 643.211 663.947ZM643.994 637.127C643.994 637.127 644.07 637.131 643.994 637.127V637.127ZM633.862 667.612C634.01 667.695 634.154 667.853 634.302 667.936C634.144 668.08 633.91 668.221 633.751 668.366C633.693 667.984 633.631 667.677 633.573 667.295C633.642 667.45 633.714 667.529 633.862 667.612ZM629.828 602.182C629.828 602.182 629.825 602.258 629.828 602.182C629.828 602.182 629.753 602.179 629.677 602.175C629.673 602.251 629.753 602.179 629.828 602.182ZM620.377 609.711C620.301 609.708 620.301 609.708 620.225 609.704C620.225 609.704 620.301 609.708 620.377 609.711ZM615.161 599.456C615.085 599.453 615.009 599.449 614.933 599.446C614.782 599.439 614.631 599.432 614.479 599.425C614.706 599.435 614.933 599.446 615.161 599.456ZM599.458 566.565C599.307 566.558 599.08 566.547 598.853 566.537C599.004 566.544 599.231 566.554 599.458 566.565ZM590.82 558.124C590.896 558.127 590.896 558.127 590.82 558.124C590.745 558.12 590.669 558.117 590.669 558.117C590.745 558.12 590.82 558.124 590.82 558.124ZM580.652 566.379C580.577 566.375 580.577 566.375 580.501 566.372L580.425 566.368C580.425 566.368 580.501 566.372 580.652 566.379ZM548.4 545.24C548.476 545.244 548.476 545.244 548.551 545.247C548.551 545.247 548.476 545.244 548.4 545.24ZM538.438 540.835C538.438 540.835 538.513 540.839 538.438 540.835C538.438 540.835 538.362 540.832 538.286 540.828C538.362 540.832 538.362 540.832 538.438 540.835ZM519.708 543.915C519.708 543.915 519.784 543.919 519.708 543.915C519.633 543.912 519.708 543.915 519.708 543.915ZM496.758 796.092C496.607 796.085 496.38 796.074 496.228 796.067C496.077 796.06 496.001 796.057 495.85 796.05C496.153 796.064 496.456 796.078 496.758 796.092ZM441.403 598.411C441.63 598.422 441.857 598.432 442.008 598.439C441.706 598.425 441.403 598.411 441.176 598.401C441.327 598.408 441.403 598.411 441.403 598.411Z" fill="#FDFDFF"/>
<path d="M654.837 709.548L654.462 709.455C654.462 709.455 654.39 709.376 654.314 709.372C656.618 707.127 657.962 704.306 658.188 701.054C658.244 699.843 658.149 698.625 657.902 697.4C659.206 697.08 660.449 696.455 661.406 695.437C662.915 693.99 663.838 692.06 663.864 689.861C663.951 687.968 663.278 686.116 662.058 684.619C662.158 684.092 662.182 683.562 662.207 683.032C662.157 680.83 661.339 678.82 659.816 677.308C658.657 676.116 657.175 675.365 655.595 675.065C657.459 672.495 658.28 669.499 658.045 666.377C658.008 665.541 657.815 664.774 657.623 664.006C658.866 663.381 659.968 662.521 660.781 661.345C661.921 659.653 662.397 657.551 662.038 655.486C661.678 653.421 660.551 651.548 658.786 650.328C657.758 649.598 656.64 649.167 655.435 648.96C654.621 646.874 653.263 645.066 651.506 643.695L651.891 643.561C653.967 642.975 655.62 641.685 656.695 639.762C657.766 637.915 658.016 635.803 657.429 633.727C657.041 632.268 656.192 630.939 655.098 629.978C655.272 627.862 654.995 625.649 654.253 623.642C652.841 619.708 650.098 616.698 646.314 614.855C644.903 614.183 643.482 613.738 641.975 613.516C642.058 613.368 642.141 613.22 642.148 613.069C642.151 612.993 642.23 612.921 642.234 612.845C643.873 611.859 645.081 610.322 645.62 608.526C646.244 606.506 646.115 604.376 645.139 602.51C644.163 600.644 642.56 599.205 640.541 598.581C639.87 598.322 639.116 598.211 638.435 598.18C637.754 598.148 637.069 598.193 636.377 598.388C636.055 597.16 635.581 595.924 634.876 594.753C634.24 593.738 633.449 592.791 632.652 591.995C633.457 590.97 634.043 589.784 634.254 588.504C634.655 586.398 634.147 584.25 632.865 582.446C631.583 580.642 629.739 579.495 627.626 579.246C627.324 579.232 627.1 579.145 626.797 579.131C626.116 579.1 625.507 579.148 624.894 579.271C625.235 578.452 625.504 577.554 625.546 576.646C625.72 574.53 624.982 572.447 623.613 570.867C622.245 569.286 620.318 568.287 618.199 568.189C618.123 568.186 618.047 568.182 618.047 568.182C616.76 568.123 615.535 568.37 614.451 568.851C613.952 568.145 613.378 567.435 612.725 566.798C611.855 565.924 610.902 565.197 609.791 564.615C609.423 564.37 608.976 564.198 608.604 564.029C608.134 562.717 607.281 561.464 606.184 560.579C604.943 559.535 603.453 558.935 601.867 558.786C601.606 557.864 601.115 557.007 600.54 556.297C600.572 555.616 600.528 554.931 600.408 554.243C599.976 552.099 598.769 550.298 597.005 549.079C595.756 548.187 594.26 547.738 592.746 547.668C592.14 547.64 591.455 547.684 590.842 547.808C588.698 548.24 586.822 549.443 585.603 551.207C585.196 551.796 584.862 552.463 584.603 553.134C584.362 553.426 584.121 553.718 583.88 554.011L579.405 560.556C579.254 560.549 579.178 560.545 579.027 560.538C578.421 560.511 577.812 560.558 577.199 560.682C575.134 561.041 573.334 562.248 572.114 564.012C570.895 565.777 570.418 567.879 570.854 569.948C571.214 572.013 572.417 573.889 574.181 575.108C575.578 576.083 577.067 576.683 578.646 576.984C579.249 577.087 579.851 577.191 580.381 577.215C581.289 577.257 582.277 577.227 583.12 577.038C583.732 576.915 584.424 576.719 585.04 576.52C585.477 576.92 585.835 577.391 586.351 577.719C587.007 578.28 587.744 578.769 588.487 579.107C588.841 579.654 589.35 580.133 589.862 580.536C590.595 581.101 591.406 581.594 592.229 581.859C592.857 583.026 593.641 584.125 594.656 585.158C595.526 586.032 596.478 586.759 597.589 587.341C598.329 587.755 599 588.014 599.746 588.276C600.113 590.189 601.093 591.979 602.53 593.715C603.537 594.899 604.865 595.719 606.289 596.088C606.291 597.682 606.827 599.224 607.755 600.48L608.756 601.816C609.471 602.76 610.344 603.559 611.38 604.138C611.692 605.593 612.234 606.984 613.008 608.309C614.207 610.261 615.879 611.856 617.805 612.855C617.57 614.665 617.847 616.878 619.166 619.518C620.139 621.46 621.82 622.827 623.836 623.527C624.284 623.7 624.738 623.721 625.189 623.817C623.971 627.175 623.958 630.74 625.164 634.21C625.7 635.752 626.542 637.232 627.545 638.492C627.262 639.693 627.354 640.987 627.677 642.216C628.264 644.291 629.553 645.944 631.4 647.015C631.696 647.181 631.992 647.346 632.367 647.439C630.803 650.098 630.288 653.033 630.829 656.093C631.254 658.388 632.22 660.481 633.657 662.217C632.651 664.294 632.246 666.476 632.441 668.837C632.752 671.961 634.064 674.753 636.317 676.905C636.003 677.119 635.686 677.407 635.37 677.696C633.858 679.22 633.082 681.232 633.06 683.355C633.073 684.721 633.464 686.105 634.093 687.272C633.342 688.755 632.958 690.482 632.871 692.374C632.822 693.434 633.004 694.429 633.337 695.431C632.823 696.696 632.457 698.045 632.391 699.484C632.335 700.695 632.431 701.913 632.677 703.138C632.921 704.439 633.398 705.599 634.031 706.691C634.453 707.393 634.88 708.019 635.385 708.574C632.659 710.117 630.712 712.834 630.011 716.519C629.911 717.045 629.886 717.575 629.862 718.105C629.693 718.477 629.524 718.848 629.431 719.223C628.979 720.796 629.057 722.392 629.593 723.934C628.408 724.942 627.509 726.342 627.057 727.914C626.881 728.437 626.857 728.967 626.757 729.493C626.35 730.081 626.016 730.749 625.757 731.42C625.499 732.09 625.388 732.844 625.281 733.522C624.961 733.886 624.712 734.33 624.537 734.853C623.861 736.339 623.636 737.922 623.945 739.453C623.477 739.735 623.005 740.093 622.605 740.53C622.072 740.581 621.614 740.636 621.153 740.766C619.928 741.013 618.847 741.418 617.759 741.975C616.747 742.535 615.731 743.171 614.86 743.965C613.989 744.759 613.266 745.636 612.615 746.593C612.046 747.401 611.622 748.367 611.274 749.338C610.929 750.232 610.733 751.209 610.611 752.19C610.49 753.17 610.517 754.234 610.623 755.225C610.725 756.292 610.979 757.366 611.391 758.295C611.797 759.376 612.357 760.388 613.151 761.259C613.942 762.206 614.888 763.084 615.92 763.739L620.931 766.929C622.847 768.155 624.939 768.859 627.21 768.964C628.345 769.016 629.488 768.917 630.637 768.667C634.01 767.912 636.754 765.991 638.635 763.043C640.185 760.687 640.841 757.986 640.589 755.243C641.446 754.752 642.231 754.181 643.019 753.535C644.283 752.455 645.258 751.059 645.933 749.573C646.271 748.83 646.537 748.007 646.727 747.182C646.968 746.889 647.13 746.669 647.295 746.373C647.832 746.246 648.372 746.044 648.837 745.838C650.775 744.941 652.294 743.266 652.994 741.25C653.694 739.234 653.644 737.032 652.675 735.015C652.4 734.395 651.974 733.768 651.541 733.293C652.831 733.277 654.063 732.879 655.155 732.246C657.024 731.195 658.316 729.509 658.864 727.486C659.316 725.914 659.238 724.317 658.702 722.775C659.663 721.682 660.328 720.423 660.55 718.916C660.95 716.81 660.515 714.741 659.308 712.941C658.711 711.093 656.867 709.945 654.837 709.548Z" fill="#FDFDFF"/>
<path d="M577.701 574.361C575.755 572.147 588.991 584.517 592.86 587.806C602.276 595.828 611.099 610.119 616.05 621.196C629.792 652.176 635.917 705.185 621.561 736.765C595.466 794.203 524.969 801.189 472.098 792.83C450.635 789.411 406.944 772.827 391.203 755.561C354.81 715.645 356.377 671.868 398.432 633.526C410.153 622.839 417.329 621.881 430.487 612.929C442.159 604.972 449.767 586.433 461.306 576.42C487.069 554.092 520.611 557.159 543.487 562.843C550.988 564.706 560.895 568.654 567.775 572.461C570.358 574.022 580.734 577.688 577.701 574.361Z" fill="#DCDBE1"/>
<path opacity="0.1395" d="M582.767 640.597C579.154 644.906 568.394 667.624 573.649 667.184C598.251 665.058 589.62 699.177 562.1 710.272C536.28 720.687 533.628 705.847 535.775 700.408C541.874 684.986 493.614 709.841 498.117 725.677C509.722 766.8 385.946 720.041 419.379 694.274C435.661 681.749 443.11 650.23 424.911 658.266C371.79 681.607 389.092 643.715 387.742 645.018C371.427 659.893 369.842 681.062 369.75 679.768C369.703 679.159 370.54 677.452 369.989 677.882C366.216 680.742 366.18 696.293 366.132 700.615C366.05 723.75 378.274 741.612 393.42 758.622C406.403 773.181 427.403 780.068 444.477 786.546C468.782 795.786 484.23 794.755 510.015 794.96C547.933 795.269 595.881 782.083 615.112 746.784C624.309 729.987 625.695 726.258 629.453 707.314C633.114 688.82 628.686 663.125 622.159 633.616C620.088 624.265 615.542 619.199 610.768 610.861C607.538 605.25 587.023 579.646 576.799 575.988C574.112 575.029 558.607 596.997 572.637 597.114C583.49 597.008 596.016 624.746 582.767 640.597Z" fill="#DCDBE1"/>
<path opacity="0.144" d="M493.204 583.962C486.845 578.738 461.985 594.659 474.671 610.721C485.422 624.342 502.042 616.006 502.042 616.006C502.042 616.006 499.931 589.432 493.204 583.962Z" fill="#DCDBE1"/>
<path d="M550.864 547.783C549.517 549.01 549.857 544.929 550.012 544.861C551.2 543.778 555.175 548.058 555.746 548.843C561.171 556.225 572.932 566.023 574.784 575.213C575.405 578.2 576.865 581.074 577.413 583.983C579.334 593.327 578.038 604.95 575.344 614.005C574.982 615.278 571.972 627.885 572.333 628.281C572.766 628.756 575.206 628.489 575.877 628.748C578.251 629.919 579.915 631.665 582.13 632.981C583.461 633.726 586.507 633.487 588.003 633.935C600.052 637.526 617.53 651.686 623.399 662.578C629.547 674.014 635.181 686.716 631.837 699.99C631.647 700.815 629.383 710.421 628.997 710.555C628.608 710.765 627.968 706.563 627.831 706.253C626.955 703.861 626.083 701.393 625.283 699.004C622.941 692.22 615.075 681.842 609.448 677.182C595.781 665.93 564.721 666.62 551.17 670.925C546.01 672.584 539.093 687.665 538.26 692.557C537.641 696.095 536.304 698.764 535.311 702.208C532.975 710.066 532.935 704.374 530.349 706.151C529.251 706.935 528.766 710.858 528.401 712.206C527.597 714.824 532.091 719.356 532.495 722.106C533.78 730.435 532.676 737.894 531.383 746.18C530.733 750.398 529.684 759.984 531.236 764.153C532.047 766.314 532.627 768.541 533.52 770.555C533.654 770.941 535.582 773.533 534.75 773.495C529.678 773.26 521.997 768.733 518.654 765.544C510.659 757.968 510.968 759.499 500.403 732.004C497.353 724.125 494.561 720.506 489.022 713.953C479.027 702.036 470.456 700.351 454.163 695.046C450.427 693.812 435.217 688.026 431.417 689.823C428.932 691.074 421.54 691.795 419.56 693.6C415.441 697.355 412.617 701.017 408.206 704.531C404.821 707.182 401.888 709.929 397.758 710.649C392.633 711.55 389.796 708.916 384.562 708.901C383.347 708.921 374.871 705.192 373.646 705.439C373.415 705.504 383.073 703.37 387.989 700.411C389.393 699.566 390.499 698.63 390.775 697.581C393.286 689.2 393.667 695.742 398.357 681.241C403.489 665.395 417.705 669.693 424.354 663.703C426.334 661.898 426.697 655.694 427.717 653.313C429.327 649.67 432.207 644.796 435.213 642.128C439.173 638.518 446.443 635.515 447.844 629.814C449.891 621.64 427.88 618.575 423.014 618.805C418.53 618.977 414.614 623.272 410.655 625.214C409.182 625.904 408.548 626.482 407.059 625.882C404.823 625.02 407.044 617.992 408.628 616.548C416.073 609.76 420.913 601.866 431.342 599.465C438.779 597.76 444.554 597.572 453.341 599.495C462.128 601.418 460.802 603.86 464.133 604.014C467.161 604.154 469.012 600.218 472.617 600.992C475.772 601.669 480.098 606.572 483.233 606.034C490.949 604.873 489.679 596.242 490.936 590.382C492.959 581.068 496.114 571.883 502.3 564.43C504.391 561.872 505.219 558.724 507.757 556.337C512.033 552.438 515.955 549.66 523.685 548.197C524.373 548.077 524.827 548.098 524.319 547.619C523.882 547.22 520.598 544.413 522.136 543.953C525.289 543.036 532.409 546.551 533.108 546.204C534.737 545.445 531.866 541.898 531.945 541.826C532.499 541.321 541.964 548.282 542.202 548.066C543.865 546.549 540.448 541.688 541.175 540.735C541.578 540.223 542.365 541.245 542.802 541.645C544.618 543.398 546.54 544.473 548.201 546.294C550.433 548.901 551.256 547.497 550.864 547.783Z" fill="#FDFDFF"/>
<path d="M573.505 627.651C571.667 628.022 576.771 627.575 578.123 627.865C581.884 628.569 586.267 628.923 589.748 630.753C590.636 631.249 594.019 635.199 593.141 636.145C592.18 637.238 587.345 633.525 585.785 634.439C583.916 635.491 581.373 639.622 579.854 641.297C575.773 645.888 572.344 652.785 571.001 658.868C570.628 660.368 571.416 666.322 570.696 667.123C568.378 669.671 562.663 668.573 559.676 669.193C554.544 670.246 548.836 673.927 545.98 678.272C544.182 681.071 542.163 683.709 540.289 686.506C538.739 688.862 538.31 691.573 537.348 694.336C536.39 697.022 536.924 705.165 535.164 707.132C534.603 707.788 531.217 707.177 530.794 706.475C529.952 704.994 532.091 703.045 531.71 701.434C531.035 697.989 527.787 696.018 525.797 693.119C523.662 690.062 519.46 685.771 516.761 683.446C508.16 675.842 499.312 667.012 488.214 662.555C481.286 659.807 474.364 656.908 467.26 654.684C463.819 653.614 460.504 651.489 456.808 651.015C450.023 650.094 443.055 649.848 436.259 649.155C434.146 648.906 430.853 649.588 428.918 650.409C428.378 650.612 427.29 651.169 427.29 651.169C427.29 651.169 430.39 651.388 429.97 652.279C429.035 654.436 424.644 664.095 422.567 658.158C421.825 656.151 423.148 653.784 424.065 652.006C424.902 650.3 424.938 647.874 426.22 646.416C430.459 641.68 433.999 638.961 439.689 635.658C441.404 634.675 443.975 633.201 445.889 632.834C446.195 632.772 447.716 632.691 447.882 632.395C449.153 629.495 448.121 625.578 449.475 622.53C452.195 616.207 458.579 611.04 463.059 606.012C463.7 605.283 470.865 599.621 471.673 600.189C474.318 602.056 477.609 604.712 480.161 606.954C481.475 608.076 482.925 606.247 483.888 606.746C485.739 607.742 487.395 611.308 488.76 612.965C490.988 615.647 493.921 617.831 496.473 620.073C498.805 622.153 502.032 622.909 504.784 624.098C512.225 627.249 519.171 629.618 527.025 632.029C534.955 634.444 554.008 635.855 561.815 632.725C565.371 631.296 566.372 630.963 569.571 629.063C570.91 627.987 575.267 627.277 573.505 627.651Z" fill="#DCDBE1"/>
<path d="M522.611 610.887C554.534 621.086 567.88 591.66 565.099 577.952C564.79 576.42 564.171 566.833 549.635 562.899C547.237 562.258 541.927 562.24 539.698 561.227C537.469 560.213 535.604 559.52 533.744 557.083C533.626 559.656 533.082 559.935 532.325 559.9C528.684 559.883 522.77 553.238 516.043 552.699C508.335 552.04 499.76 565.224 497.861 570.219C494.327 579.387 490.688 600.689 522.611 610.887Z" fill="#FDFDFF"/>
<path d="M529.155 579.25C534.449 582.909 535.533 592.29 530.568 596.309C525.603 600.328 517.219 596.224 513.684 593.936C504.84 588.293 514.002 577.185 517.977 576.534C518.892 576.424 520.734 575.978 521.47 576.468" fill="#DCDBE1"/>
<path d="M528.761 579.611C529.119 578.414 527.073 576.726 524.159 575.757C521.245 574.788 518.578 575.044 518.219 576.242C517.861 577.439 519.907 579.127 522.821 580.096C525.738 580.989 528.402 580.809 528.761 579.611Z" fill="#FDFDFF"/>
<path d="M541.289 566.155C523.938 590.313 556.565 603.351 557.357 602.629C563.923 596.787 565.784 584.432 565.631 581.162C565.587 580.478 541.368 566.083 541.289 566.155Z" fill="#DCDBE1"/>
<path d="M522.848 559.69C523.454 559.718 515.91 585.087 495.665 576.642C494.55 576.135 497.004 570.634 497.284 569.509C499.983 558.71 503.473 561.981 511.98 561.767C515.325 561.618 521.562 559.63 522.848 559.69Z" fill="#DCDBE1"/>
<path d="M631.09 696.465C633.164 697.547 631.397 709.528 628.423 709.846C627.814 709.894 627.928 709.065 627.863 708.834C627.545 705.861 623.524 699.302 624.562 696.543C624.727 696.247 630.422 696.131 631.09 696.465Z" fill="#DCDBE1"/>
<path d="M405.153 624.429C407.063 624.138 406.156 627.358 404.6 628.196C403.977 628.547 403.071 630.098 403.023 629.489C402.739 627.428 403.319 624.723 405.153 624.429Z" fill="#DCDBE1"/>
<path d="M529.781 759.457C530.805 761.932 532.87 766.504 534.099 769.443C534.305 769.908 535.42 775.346 535.179 775.638C534.376 776.587 530.263 773.666 529.451 773.174C524.198 770.276 519.96 768.411 516.241 763.536C515.742 762.83 512.069 760.233 513.119 758.84C515.131 756.353 522.196 756.148 524.824 756.725C526.176 757.015 527.374 757.374 528.643 757.812C529.015 757.981 529.651 758.996 529.781 759.457Z" fill="#DCDBE1"/>
<path d="M388.443 700.432C392.923 700.335 400.542 709.488 397.307 710.552C393.689 711.675 383.03 709.21 379.352 708.357C378.076 708.071 375.835 708.954 375.516 707.649C375.385 707.188 375.933 706.834 376.253 706.469C379.197 703.495 381.946 704.76 384.756 701.4C385.159 700.887 387.988 700.411 388.443 700.432Z" fill="#DCDBE1"/>
<path d="M535.255 705.088C535.094 708.57 532.146 706.689 530.254 706.602" stroke="#DCDBE1" stroke-width="1.96841" stroke-miterlimit="10" stroke-linecap="round" stroke-linejoin="round"/>
<path d="M465.058 603.677C465.058 603.677 421.414 579.509 402.345 629.382C402.173 629.829 401.89 631.03 402.282 630.745C427.217 611.565 440.142 620.81 447.391 628.124" stroke="#DCDBE1" stroke-width="1.96841" stroke-miterlimit="10" stroke-linecap="round" stroke-linejoin="round"/>
<path d="M429.75 652.041C428.203 654.321 426.193 663.332 419.508 666.817" stroke="#DCDBE1" stroke-width="1.96841" stroke-miterlimit="10" stroke-linecap="round" stroke-linejoin="round"/>
<path d="M627.599 716.18C642.087 681.724 619.048 645.08 587.572 635.053M457.456 626.996C451.878 627.876 428.387 638.778 422.589 652.621C420.538 657.609 423.936 659.587 425.622 660.878M390.688 697.804C387.619 701.835 372.956 705.558 373.238 706.026C373.665 706.653 394.875 712.26 401.102 710.499C408.25 708.478 413.616 697.422 419.861 693.614C431.184 686.626 444.807 692.262 463.293 697.744M420.129 666.466C410.294 670.792 402.799 667.183 397.819 681.368C395.109 689.132 394.675 693.588 389.82 698.523M524.114 548.747C508.035 550.281 495.007 564.624 491.037 591.449C489.402 602.222 485.852 605.168 482.84 606.319M572.085 627.055C589.919 577.656 564.78 560.184 564.512 559.413M564.588 559.417C560.021 554.806 556.861 547.68 550.672 545.346C550.671 547.015 550.671 547.015 550.673 548.608C546.955 545.326 543.775 541.917 539.403 539.667C541.972 546.462 541.189 543.694 542.219 547.687C536.776 545.615 535.451 541.457 529.192 540.637C531.61 542.493 532.531 543.901 534.074 546.628C529.454 544.821 524.844 542.788 519.799 543.617C522.041 545.996 522.041 545.996 524.207 548.372M531.432 702.408C530.436 704.258 528.948 710.183 527.952 712.034M504.616 704.811C515.539 699.929 527.294 708.21 530.91 718.619C533.249 725.479 532.543 735.839 531.612 742.852C531.041 746.998 530.525 751.602 530.784 755.862C531.049 759.971 532.026 765.099 533.589 769.041C533.726 769.35 536.853 775.564 536.464 775.774C534.667 776.905 530.705 773.99 529.302 773.167C523.385 769.859 515.891 764.582 511.896 759.087C502.48 746.134 501.708 728.346 492.161 716.602C485.773 708.72 470.476 699.896 461.796 697.295M559.763 668.818C541.168 672.284 535.362 701.072 535.335 704.94M628.181 715.069C628.506 708.029 620.543 657.059 560.296 668.767" stroke="#DCDBE1" stroke-width="1.96841" stroke-miterlimit="10" stroke-linecap="round" stroke-linejoin="round"/>
<path d="M443.666 597.151C457.694 575.95 473.137 563.538 503.201 559.768" stroke="#DCDBE1" stroke-width="1.96841" stroke-miterlimit="10" stroke-linecap="round" stroke-linejoin="round"/>
<path d="M575.434 574.256C584.195 578.378 597.552 589.768 608.72 607.505C619.252 624.226 627.776 646.621 628.565 673.893" stroke="#DCDBE1" stroke-width="1.96841" stroke-miterlimit="10" stroke-linecap="round" stroke-linejoin="round"/>
<path d="M627.896 713.159C611.692 807.773 488.476 799.807 453.002 789.292C379.511 767.463 352.238 717.347 373.186 667.864C384.082 642.194 402.611 630.304 402.611 630.304" stroke="#DCDBE1" stroke-width="1.96841" stroke-miterlimit="10" stroke-linecap="round" stroke-linejoin="round"/>
<path d="M531.901 544.479C531.905 544.404 531.905 544.404 531.908 544.328" stroke="#DCDBE1" stroke-width="1.96841" stroke-miterlimit="10" stroke-linecap="round" stroke-linejoin="round"/>
<path d="M530.288 758.343C525.528 754.633 516.59 755.966 512.128 758.946" stroke="#DCDBE1" stroke-width="1.96841" stroke-miterlimit="10" stroke-linecap="round" stroke-linejoin="round"/>
<path d="M398.529 710.456C398.149 707.177 391.765 699.219 388.557 699.678" stroke="#DCDBE1" stroke-width="1.96841" stroke-miterlimit="10" stroke-linecap="round" stroke-linejoin="round"/>
<path d="M394.732 703.833C393.816 703.942 388.716 704.314 383.84 704.771C378.812 705.222 375.287 705.969 375.191 706.42" stroke="#DCDBE1" stroke-width="1.96841" stroke-miterlimit="10" stroke-linecap="round" stroke-linejoin="round"/>
<path d="M631.478 694.738C628.72 696.962 626.491 695.949 623.397 695.579" stroke="#DCDBE1" stroke-width="1.96841" stroke-miterlimit="10" stroke-linecap="round" stroke-linejoin="round"/>
<path d="M628.123 696.708C628.855 702.204 630.014 708.326 628.18 713.552" stroke="#DCDBE1" stroke-width="1.96841" stroke-miterlimit="10" stroke-linecap="round" stroke-linejoin="round"/>
<path d="M406.043 621.663C405.512 623.307 406.24 625.617 407.165 626.949" stroke="#DCDBE1" stroke-width="1.96841" stroke-miterlimit="10" stroke-linecap="round" stroke-linejoin="round"/>
<path d="M615.925 653.584C615.806 646.295 613.733 635.351 609.643 623.706" stroke="#DCDBE1" stroke-width="1.96841" stroke-miterlimit="10" stroke-linecap="round" stroke-linejoin="round"/>
<path d="M612.109 680.34C599.207 742.863 536.477 759.084 531.854 760.615" stroke="#DCDBE1" stroke-width="2.10134" stroke-miterlimit="10" stroke-linecap="round" stroke-linejoin="round"/>
<path d="M515.386 764.103C458.265 775.5 406.866 740.201 388.997 719.727C379.198 708.501 370.508 691.334 370.35 676.685" stroke="#DCDBE1" stroke-width="1.96841" stroke-miterlimit="10" stroke-linecap="round" stroke-linejoin="round"/>
<path d="M531.289 702.25C531.555 696.496 513.707 680.499 509.091 676.948C503.816 672.911 498.292 669.318 492.609 665.869C478.001 656.925 444.056 644.509 426.477 652.27" stroke="#DCDBE1" stroke-width="2.03487" stroke-miterlimit="10" stroke-linecap="round" stroke-linejoin="round"/>
<path d="M541.764 582.184C535.024 585.211 523.568 585.213 516.16 579.712C513.078 577.446 510.72 574.302 509.629 570.003" stroke="#FDFDFF" stroke-width="2.03487" stroke-miterlimit="10" stroke-linecap="round" stroke-linejoin="round"/>
<path d="M546.089 677.443C551.438 674.959 561.537 676.411 565.043 677.711" stroke="#DCDBE1" stroke-width="2.03487" stroke-miterlimit="10" stroke-linecap="round" stroke-linejoin="round"/>
<path d="M541.083 685.632C543.951 684.323 550.038 683.922 554.186 687.755" stroke="#DCDBE1" stroke-width="2.03487" stroke-miterlimit="10" stroke-linecap="round" stroke-linejoin="round"/>
<path d="M538.648 692.423C542.585 692.605 547.374 694.04 549.383 699.823" stroke="#DCDBE1" stroke-width="2.03487" stroke-miterlimit="10" stroke-linecap="round" stroke-linejoin="round"/>
<path d="M574.325 621.317C577.889 618.067 582.061 616.439 586.728 615.593" stroke="#DCDBE1" stroke-width="2.03487" stroke-miterlimit="10" stroke-linecap="round" stroke-linejoin="round"/>
<path d="M489.451 597.9C489.63 594.039 487.395 591.509 484.141 589.689" stroke="#DCDBE1" stroke-width="2.03487" stroke-miterlimit="10" stroke-linecap="round" stroke-linejoin="round"/>
<path d="M435.425 637.51C433.12 631.562 429.1 628.266 422.725 626.682" stroke="#DCDBE1" stroke-width="2.03487" stroke-miterlimit="10" stroke-linecap="round" stroke-linejoin="round"/>
<path d="M431.088 641.103C431.179 639.135 426.753 636.427 425.273 635.6" stroke="#DCDBE1" stroke-width="2.03487" stroke-miterlimit="10" stroke-linecap="round" stroke-linejoin="round"/>
<path d="M564.685 631.265C564.53 631.334 564.376 631.403 564.221 631.471C559.883 633.395 553.885 633.498 549.239 633.89C532.246 635.533 492.463 624.668 484.5 606.548" stroke="#DCDBE1" stroke-width="2.03487" stroke-miterlimit="10" stroke-linecap="round" stroke-linejoin="round"/>
<path d="M483.35 606.798C481.003 606.69 471.827 600.045 471.517 600.183C459.745 605.405 448.58 617.179 447.961 630.578" stroke="#DCDBE1" stroke-width="2.03487" stroke-miterlimit="10" stroke-linecap="round" stroke-linejoin="round"/>
<path d="M572.095 626.904C571.658 626.504 595.05 627.585 592.374 636.261" stroke="#DCDBE1" stroke-width="2.03487" stroke-miterlimit="10" stroke-linecap="round" stroke-linejoin="round"/>
<path d="M588.232 633.87C585.586 633.672 582.021 638.59 580.419 640.413C573.776 647.92 570.841 657.268 570.238 667.026" stroke="#DCDBE1" stroke-width="2.03487" stroke-miterlimit="10" stroke-linecap="round" stroke-linejoin="round"/>
<path d="M565.319 579.707C555.7 576.076 546.82 569.597 542.047 564.521" stroke="#DCDBE1" stroke-width="4.92527" stroke-miterlimit="10" stroke-linecap="round" stroke-linejoin="round"/>
<path d="M538.806 577.268C543.962 575.686 548.854 578.188 552.327 581.838" stroke="#FDFDFF" stroke-width="2.10967" stroke-miterlimit="10" stroke-linecap="round" stroke-linejoin="round"/>
<path d="M516.101 567.875C513.498 565.099 507.959 563.478 504.262 564.673" stroke="#FDFDFF" stroke-width="2.10967" stroke-miterlimit="10" stroke-linecap="round" stroke-linejoin="round"/>
<path d="M535.404 774.207C526.909 767.594 520.113 757.039 520.196 756.891" stroke="#DCDBE1" stroke-width="1.96841" stroke-miterlimit="10" stroke-linecap="round" stroke-linejoin="round"/>
<path d="M522.467 558.154C511.16 561.501 500.77 558.139 500.319 558.042" stroke="#DCDBE1" stroke-width="4.29399" stroke-miterlimit="10" stroke-linecap="round" stroke-linejoin="round"/>
<path d="M471.025 701.287C460.55 701.41 453.719 711.336 453.586 714.213" stroke="#DCDBE1" stroke-width="1.96841" stroke-miterlimit="10" stroke-linecap="round" stroke-linejoin="round"/>
<path d="M459.163 696.946C452.123 696.621 442.901 700.823 437.72 712.798" stroke="#DCDBE1" stroke-width="1.96841" stroke-miterlimit="10" stroke-linecap="round" stroke-linejoin="round"/>
<path d="M475.507 602.566C467.294 604.615 459.847 614.74 454.86 620.882" stroke="#DCDBE1" stroke-width="2.10134" stroke-miterlimit="10" stroke-linecap="round" stroke-linejoin="round"/>
<path d="M586.496 628.783C579.482 629.521 572.412 641.333 568.551 646.086" stroke="#DCDBE1" stroke-width="2.10134" stroke-miterlimit="10" stroke-linecap="round" stroke-linejoin="round"/>
<path d="M565.02 666.786C564.712 663.585 565.151 660.647 565.825 657.567" stroke="#DCDBE1" stroke-width="2.10134" stroke-miterlimit="10" stroke-linecap="round" stroke-linejoin="round"/>
<path d="M502.606 623.467L502.286 623.832L501.959 624.348L501.714 624.716L501.056 625.823" stroke="#DCDBE1" stroke-width="2.10134" stroke-miterlimit="10" stroke-linecap="round" stroke-linejoin="round"/>
<path d="M506.461 625.542L505.569 626.79L505.39 627.389L505.145 627.757" stroke="#DCDBE1" stroke-width="2.10134" stroke-miterlimit="10" stroke-linecap="round" stroke-linejoin="round"/>
<path d="M463.887 604.457C464.183 604.623 464.475 604.864 464.771 605.029" stroke="#DCDBE1" stroke-width="2.10134" stroke-miterlimit="10" stroke-linecap="round" stroke-linejoin="round"/>
<path d="M459.908 608.446L462.329 610.227" stroke="#DCDBE1" stroke-width="2.10134" stroke-miterlimit="10" stroke-linecap="round" stroke-linejoin="round"/>
<path d="M467.166 602.409L469.663 604.193" stroke="#DCDBE1" stroke-width="2.10134" stroke-miterlimit="10" stroke-linecap="round" stroke-linejoin="round"/>
<path d="M464.248 604.854L466.749 606.562" stroke="#DCDBE1" stroke-width="2.10134" stroke-miterlimit="10" stroke-linecap="round" stroke-linejoin="round"/>
<path d="M453.822 617.042L456.244 618.822" stroke="#DCDBE1" stroke-width="2.10134" stroke-miterlimit="10" stroke-linecap="round" stroke-linejoin="round"/>
<path d="M576.309 635.899L578.874 637.838" stroke="#DCDBE1" stroke-width="2.10134" stroke-miterlimit="10" stroke-linecap="round" stroke-linejoin="round"/>
<path d="M573.408 639.406L576.277 641.359" stroke="#DCDBE1" stroke-width="2.10134" stroke-miterlimit="10" stroke-linecap="round" stroke-linejoin="round"/>
<path d="M444.312 604.388C443.671 605.117 442.786 606.214 442.142 607.019" stroke="#DCDBE1" stroke-width="2.31724" stroke-miterlimit="10" stroke-linecap="round" stroke-linejoin="round"/>
<path d="M449.804 605.476C449.163 606.205 448.278 607.302 447.634 608.107" stroke="#DCDBE1" stroke-width="2.31724" stroke-miterlimit="10" stroke-linecap="round" stroke-linejoin="round"/>
<path d="M519.544 720.066C518.903 720.795 518.018 721.892 517.374 722.697" stroke="#DCDBE1" stroke-width="2.31724" stroke-miterlimit="10" stroke-linecap="round" stroke-linejoin="round"/>
<path d="M589.362 643.936C588.722 644.665 587.837 645.762 587.192 646.567" stroke="#DCDBE1" stroke-width="2.31724" stroke-miterlimit="10" stroke-linecap="round" stroke-linejoin="round"/>
<path d="M514.597 718.776C513.956 719.505 513.071 720.602 512.427 721.407" stroke="#DCDBE1" stroke-width="2.31724" stroke-miterlimit="10" stroke-linecap="round" stroke-linejoin="round"/>
<path d="M558.972 620.229C558.331 620.958 557.446 622.055 556.802 622.86" stroke="#DCDBE1" stroke-width="2.31724" stroke-miterlimit="10" stroke-linecap="round" stroke-linejoin="round"/>
<path d="M552.847 619.794C552.206 620.523 551.321 621.62 550.677 622.425" stroke="#DCDBE1" stroke-width="2.31724" stroke-miterlimit="10" stroke-linecap="round" stroke-linejoin="round"/>
<path d="M545.306 618.915C544.665 619.644 543.78 620.741 543.136 621.546" stroke="#DCDBE1" stroke-width="2.31724" stroke-miterlimit="10" stroke-linecap="round" stroke-linejoin="round"/>
<path opacity="0.23" d="M519.188 550.34C519.037 550.333 595.949 547.361 563.661 632.128C563.657 632.204 571.919 627.426 571.919 627.426C571.919 627.426 586.395 586.673 570.571 564.624C568.863 562.193 565.574 561.131 563.79 558.697C560.792 554.613 557.578 550.292 553.864 546.935C550.37 543.739 551.261 549.09 549.981 548.88C549.151 548.765 541.752 539.775 540.365 540.242C539.212 540.568 543.12 547.956 542.414 548.454C542.259 548.523 542.035 548.437 541.887 548.354C539.283 547.248 535.885 545.27 533.701 543.272C532.972 542.632 535.32 546.002 533.024 546.427C530.804 546.856 520.667 541.305 520.239 544.016C520.387 544.099 527.964 549.228 519.188 550.34Z" fill="#DCDBE1"/>
<path opacity="0.23" d="M504.002 705.01C504.869 704.292 513.27 698.155 516.5 695.573C530.366 684.455 545.693 664.679 528.916 648.504C516.35 636.392 499.504 629.924 482.32 627.461C474.936 626.362 468.348 629.396 461.274 628.159C456.684 627.34 456.794 626.586 457.287 625.774C458.772 623.188 466.896 619.77 474.172 621.547C480.551 623.056 487.249 625.868 493.208 628.268C502.589 632.115 532.008 640.681 547.518 639.956C565.079 639.173 574.259 640.811 577.509 642.706C578.692 643.368 615.655 646.289 627.064 673.596C628.836 677.926 631.086 683.416 631.1 688.045C631.13 689.032 631.069 696.92 630.147 697.18C628.915 697.579 625.861 694.707 624.608 695.559C623.899 696.133 626.404 696.097 627.312 696.139C627.918 696.167 630.483 694.844 631.002 695.096C632.041 695.599 629.349 706.247 629.121 707.906C629.11 708.133 629.175 708.363 629.017 708.508C628.862 708.577 625.321 699.84 624.547 698.515C623.283 696.332 622.792 693.806 621.607 691.551C619.369 687.427 615.291 683.749 611.955 680.409C601.227 669.596 589.536 666.476 574.443 666.386C569.058 666.365 560.412 667.938 555.153 670.123C540.534 676.2 538.553 687.867 535.468 705.401C534.752 709.389 531.896 705.54 529.93 707.042C528.752 707.898 528.943 710.335 528.158 710.905C527.765 711.191 524.048 707.909 523.539 707.43C521.128 705.422 517.399 704.036 514.482 703.142C511.337 702.239 502.335 706.602 504.002 705.01Z" fill="#DCDBE1"/>
<path opacity="0.23" d="M520.856 706.32C526.582 707.191 528.3 714.326 528.307 719.105C528.145 734.119 522.747 737.663 515.049 746.639C504.782 758.682 520.524 766.086 526.275 769.689C528.266 770.919 531.111 771.733 533.344 772.671C534.163 773.012 535.975 774.841 535.711 773.994C535.182 772.301 533.359 770.699 532.69 768.772C530.499 761.994 531.692 749.304 531.794 742.178C531.98 731.565 535.151 725.339 529.012 715.345C527.812 713.393 526.871 710.77 524.963 709.392" fill="#DCDBE1"/>
<path opacity="0.23" d="M492.186 716.072C488.585 713.554 488.027 704.272 457.988 691.05C440.516 683.34 421.354 681.013 408.239 700.512C405.88 703.968 401.23 709.368 397.069 710.769C396.762 710.83 396.312 710.734 396.222 711.033C396.122 711.559 398.782 711.455 398.933 711.462C400.847 711.095 402.82 709.441 404.314 708.296C410.519 703.727 416.252 692.916 424.512 691.477C439.81 688.769 455.857 692.848 469.32 700.298C473.094 702.369 476.23 705.093 479.687 707.453" fill="#DCDBE1"/>
<path d="M484.726 622.868C489.552 625.14 493.646 626.846 497.434 628.614C500.554 630.048 500.377 632.24 499.041 633.24C497.157 634.595 494.05 634.527 489.914 633.729C489.687 633.719 489.464 633.632 489.089 633.539C491.424 635.544 489.292 637.342 489.894 642.377C486.919 641.101 484.235 640.067 481.48 638.953C481.234 636.059 481.394 634.246 481.987 632.908C482.249 632.161 482.201 631.552 479.947 631.069C477.4 632.013 474.99 633.267 473.791 636.247C471.328 635.374 469.084 634.664 466.762 634.025C470.948 627.163 479.316 628.308 484.726 622.868ZM487.888 628.325C486.721 628.954 485.413 629.349 483.875 629.809C485.371 630.257 486.789 630.778 488.285 631.226C489.634 631.592 490.921 631.651 491.771 631.311C492.697 630.975 492.725 630.369 491.61 629.862C490.647 629.363 489.302 628.921 487.888 628.325Z" fill="#FDFDFF"/>
<path d="M517.394 641.598C515.237 640.664 513.3 639.892 511.215 639.037C511.787 638.153 511.224 637.216 509.662 636.537C508.619 636.11 507.567 635.91 506.562 636.318C506.011 636.748 506.523 637.151 507.187 637.561C508.442 638.302 509.77 639.122 511.022 639.938C511.758 640.427 512.418 640.913 513.079 641.399C517.178 644.623 513.907 648.113 508.465 649.303C506.628 649.674 504.656 649.658 502.932 649.199C500.159 648.464 497.576 646.904 495.316 644.903C492.328 642.261 491.587 638.586 493.863 636.946C496.031 637.653 498.27 638.439 500.506 639.301C500.417 639.6 500.255 639.82 500.165 640.12C499.792 641.62 501.597 643.6 504.161 643.946C505.369 644.077 506.363 643.896 506.925 643.239C507.483 642.658 507.208 642.038 506.551 641.477C505.966 640.994 505.302 640.584 504.639 640.174C503.314 639.279 501.907 638.531 500.807 637.722C498.678 636.182 498.723 635.198 500.431 634.366C502.293 633.466 504.988 632.604 508.002 633.047C510.793 633.403 513.325 634.431 515.515 636.277C517.937 638.058 518.451 640.054 517.394 641.598Z" fill="#FDFDFF"/>
<path d="M591.537 559.067L585.36 567.962C584.954 568.55 584.479 568.983 583.852 569.409C583.305 569.763 582.685 570.038 581.997 570.158C581.308 570.278 580.703 570.25 580.025 570.143C579.347 570.036 578.752 569.781 578.164 569.374C577.868 569.209 577.727 568.975 577.665 568.668C577.604 568.362 577.693 568.063 577.855 567.843C578.021 567.547 578.255 567.406 578.561 567.344C578.867 567.283 579.167 567.372 579.387 567.534C579.755 567.779 580.051 567.944 580.429 567.962C580.804 568.055 581.183 568.072 581.568 567.938C581.95 567.88 582.26 567.743 582.649 567.533C582.962 567.32 583.279 567.031 583.52 566.739L589.624 557.765C589.79 557.469 590.024 557.328 590.33 557.267C590.637 557.205 590.936 557.295 591.156 557.457C591.376 557.619 591.593 557.856 591.654 558.162C591.792 558.472 591.702 558.772 591.537 559.067ZM593.552 556.505C593.311 556.797 593.073 557.014 592.691 557.072C592.309 557.131 592.01 557.041 591.714 556.875C591.422 556.634 591.205 556.397 591.147 556.015C591.088 555.633 591.178 555.333 591.344 555.038C591.509 554.742 591.822 554.529 592.204 554.47C592.586 554.412 592.886 554.502 593.181 554.667C593.474 554.908 593.69 555.146 593.749 555.528C593.81 555.834 593.717 556.209 593.552 556.505Z" fill="#DCDBE1"/>
<path d="M594.283 575.126C594.066 574.889 593.925 574.655 593.864 574.348C593.802 574.042 593.891 573.743 594.129 573.526C593.523 573.498 592.921 573.395 592.398 573.219C591.875 573.043 591.36 572.715 590.847 572.312C590.262 571.83 589.757 571.276 589.486 570.581C589.214 569.885 588.939 569.266 588.899 568.505C588.854 567.82 588.889 567.063 589.072 566.389C589.259 565.639 589.589 565.047 590.072 564.463L593.447 560.37C593.609 560.15 593.919 560.013 594.225 559.951C594.531 559.889 594.831 559.979 595.047 560.216C595.267 560.378 595.405 560.688 595.466 560.994C595.528 561.301 595.439 561.6 595.201 561.817L591.826 565.909C591.505 566.274 591.336 566.645 591.164 567.092C591.067 567.543 590.974 567.918 591.029 568.376C591.084 568.834 591.218 569.219 591.427 569.608C591.637 569.997 591.926 570.314 592.29 570.634C592.655 570.955 593.026 571.123 593.477 571.22C593.928 571.317 594.303 571.41 594.76 571.355C595.218 571.301 595.604 571.167 595.993 570.957C596.382 570.747 596.698 570.459 597.019 570.094L600.394 566.001C600.556 565.781 600.866 565.644 601.172 565.582C601.478 565.52 601.778 565.61 601.994 565.848C602.214 566.01 602.352 566.319 602.414 566.626C602.475 566.932 602.386 567.231 602.148 567.448L595.955 575.052C595.793 575.272 595.484 575.409 595.177 575.471C594.802 575.378 594.503 575.288 594.283 575.126Z" fill="#DCDBE1"/>
<path d="M601.689 574.178C601.414 573.559 601.212 573.018 601.229 572.64C601.264 571.883 601.523 571.212 602.001 570.703C602.397 570.342 602.865 570.06 603.327 569.93C603.864 569.803 604.393 569.827 604.92 569.927C605.446 570.028 606.045 570.207 606.561 570.534C607.077 570.862 607.593 571.189 607.954 571.585C609.261 572.859 609.796 574.401 609.705 576.369C609.695 576.596 609.609 576.82 609.371 577.037C609.133 577.253 608.899 577.394 608.597 577.38C608.294 577.366 608.07 577.28 607.778 577.039C607.633 576.881 607.489 576.722 607.499 576.495C607.51 576.268 607.441 576.113 607.452 575.886C607.425 574.823 607.085 573.972 606.359 573.256C605.634 572.54 604.815 572.199 603.907 572.157C603.755 572.15 603.6 572.218 603.442 572.363C603.283 572.507 603.276 572.659 603.345 572.813L605.782 577.554C606.053 578.249 606.256 578.789 606.242 579.092C606.207 579.849 605.948 580.52 605.469 581.029C605.073 581.39 604.605 581.672 604.144 581.802C603.683 581.933 603.077 581.905 602.551 581.805C602.024 581.704 601.426 581.525 600.91 581.198C600.394 580.871 599.878 580.543 599.517 580.147C598.21 578.873 597.674 577.331 597.765 575.363C597.776 575.136 597.938 574.916 598.099 574.695C598.337 574.479 598.571 574.338 598.874 574.352C599.177 574.366 599.4 574.452 599.693 574.693C599.837 574.852 599.978 575.086 599.971 575.237C599.961 575.464 600.029 575.619 600.019 575.846C600.046 576.909 600.386 577.76 601.187 578.479C601.912 579.196 602.731 579.537 603.643 579.503C603.795 579.51 603.949 579.442 604.032 579.294C604.191 579.149 604.198 578.998 604.132 578.767L601.689 574.178Z" fill="#DCDBE1"/>
<path d="M613.673 577.463L614.034 577.859L617.04 575.191C617.278 574.974 617.508 574.909 617.887 574.927C618.19 574.941 618.485 575.106 618.626 575.34C618.843 575.578 618.908 575.808 618.891 576.187C618.877 576.49 618.711 576.786 618.477 576.926L615.471 579.595L616.334 580.621C616.551 580.858 616.616 581.089 616.602 581.392C616.588 581.695 616.426 581.915 616.188 582.131C615.951 582.348 615.645 582.41 615.342 582.396C615.039 582.382 614.819 582.22 614.599 582.058L613.736 581.032L609.628 584.559C608.523 585.495 608.477 586.479 609.412 587.584C609.629 587.822 609.694 588.052 609.68 588.355C609.666 588.658 609.504 588.878 609.267 589.095C609.029 589.311 608.723 589.373 608.42 589.359C608.117 589.345 607.897 589.183 607.677 589.021C605.731 586.807 605.901 584.767 608.115 582.82L612.223 579.293L611.862 578.897C611.645 578.659 611.58 578.429 611.594 578.126C611.608 577.823 611.773 577.527 612.007 577.386C612.245 577.17 612.476 577.104 612.854 577.122C613.233 577.139 613.456 577.226 613.673 577.463Z" fill="#DCDBE1"/>
<path d="M613.78 594.842L625.941 586.148C626.178 585.931 626.485 585.869 626.784 585.959C627.083 586.049 627.307 586.135 627.52 586.448C627.737 586.686 627.798 586.992 627.709 587.291C627.619 587.591 627.533 587.814 627.219 588.027L615.927 596.003L616.212 596.395C616.353 596.629 616.49 596.939 616.401 597.238C616.387 597.541 616.225 597.761 615.911 597.975C615.674 598.191 615.367 598.253 615.068 598.163C614.765 598.149 614.545 597.987 614.332 597.674L613.407 596.342C613.191 596.104 613.129 595.798 613.219 595.498C613.381 595.278 613.467 595.055 613.78 594.842Z" fill="#DCDBE1"/>
<path d="M623.457 605.53C623.594 605.84 623.659 606.07 623.57 606.37C623.48 606.669 623.318 606.889 623.084 607.03C622.85 607.171 622.544 607.233 622.244 607.143C620.823 606.698 619.726 605.813 618.95 604.563C618.104 603.158 617.871 601.63 618.247 600.055C618.627 598.403 619.516 597.23 620.924 596.309C622.329 595.464 623.857 595.231 625.432 595.607C627.084 595.987 628.257 596.875 629.178 598.283C630.023 599.688 630.256 601.216 629.88 602.792C629.69 603.618 629.356 604.285 628.946 604.949C628.464 605.533 627.906 606.115 627.204 606.537C626.894 606.675 626.663 606.74 626.364 606.65C626.064 606.561 625.844 606.399 625.703 606.165L621.259 598.904C621.018 599.196 620.774 599.564 620.605 599.936C620.436 600.307 620.343 600.682 620.325 601.061C620.308 601.439 620.29 601.818 620.424 602.203C620.482 602.585 620.692 602.974 620.905 603.288C621.19 603.68 621.479 603.997 621.768 604.314C622.06 604.555 622.504 604.803 622.879 604.896C623.096 605.134 623.316 605.296 623.457 605.53ZM626.944 603.946C627.185 603.654 627.43 603.286 627.598 602.914C627.767 602.543 627.861 602.168 627.878 601.789C627.895 601.411 627.913 601.032 627.779 600.647C627.721 600.265 627.511 599.876 627.298 599.562C627.085 599.249 626.796 598.932 626.507 598.615C626.218 598.299 625.847 598.13 625.475 597.961C625.104 597.792 624.729 597.699 624.35 597.681C623.972 597.664 623.514 597.718 623.132 597.777L626.944 603.946Z" fill="#DCDBE1"/>
<path d="M633.873 606.543L634.079 607.007L637.653 605.2C637.962 605.062 638.189 605.073 638.489 605.163C638.788 605.252 639.008 605.414 639.146 605.724C639.283 606.034 639.273 606.261 639.183 606.56C639.093 606.86 638.931 607.08 638.622 607.217L635.048 609.025L635.677 610.192C635.815 610.501 635.804 610.728 635.714 611.028C635.625 611.327 635.463 611.547 635.153 611.685C634.843 611.822 634.613 611.887 634.313 611.798C634.014 611.708 633.794 611.546 633.656 611.236L633.028 610.069L628.212 612.502C626.969 613.127 626.621 614.098 627.242 615.416C627.38 615.726 627.369 615.953 627.28 616.252C627.19 616.552 627.028 616.772 626.718 616.909C626.409 617.046 626.178 617.112 625.879 617.022C625.579 616.932 625.359 616.77 625.222 616.461C623.902 613.82 624.523 611.876 627.163 610.557L631.979 608.124L631.773 607.659C631.632 607.425 631.646 607.123 631.736 606.823C631.826 606.524 631.988 606.304 632.297 606.166C632.607 606.029 632.834 606.039 633.134 606.129C633.516 606.071 633.736 606.233 633.873 606.543Z" fill="#DCDBE1"/>
<path d="M636.974 634.831C637.042 634.986 637.035 635.137 637.028 635.289C637.021 635.44 637.014 635.592 636.932 635.739C636.849 635.887 636.77 635.96 636.687 636.107C636.608 636.18 636.45 636.324 636.298 636.317C635.992 636.379 635.689 636.365 635.39 636.275C633.618 635.207 632.474 633.713 631.8 631.861C630.993 629.624 631.095 627.428 632.105 625.275C633.114 623.121 634.774 621.681 637.011 620.874C639.249 620.067 641.444 620.168 643.598 621.178C645.751 622.188 647.192 623.847 647.999 626.085C648.668 628.012 648.653 629.984 647.957 631.924C647.87 632.148 647.633 632.365 647.323 632.502C647.168 632.571 647.017 632.564 646.865 632.557C646.714 632.55 646.563 632.543 646.415 632.46C646.267 632.377 646.194 632.298 646.047 632.215C645.974 632.136 645.906 631.981 645.837 631.826C645.772 631.596 645.786 631.293 645.875 630.994C646.134 630.323 646.241 629.645 646.197 628.96C646.228 628.279 646.033 627.587 645.837 626.895C645.229 625.274 644.146 624.086 642.588 623.331C641.029 622.577 639.44 622.503 637.743 623.108C636.122 623.715 634.858 624.795 634.179 626.357C633.424 627.915 633.351 629.505 633.955 631.202C634.422 632.589 635.357 633.694 636.613 634.435C636.692 634.363 636.833 634.597 636.974 634.831Z" fill="#DCDBE1"/>
<path d="M635.777 641.072C635.47 641.134 635.168 641.12 634.947 640.958C634.652 640.793 634.511 640.559 634.449 640.252C634.387 639.946 634.401 639.643 634.563 639.423C634.729 639.127 634.963 638.986 635.269 638.925L649.639 634.961C649.945 634.899 650.248 634.913 650.468 635.075C650.688 635.237 650.905 635.474 650.966 635.78C651.028 636.087 651.014 636.39 650.852 636.61C650.687 636.906 650.453 637.046 650.146 637.108L635.777 641.072Z" fill="#DCDBE1"/>
<path d="M649.493 652.782C649.733 654.159 649.519 655.514 648.857 656.698L654.133 655.803C654.44 655.742 654.739 655.831 654.959 655.993C655.179 656.155 655.32 656.389 655.382 656.696C655.444 657.002 655.354 657.301 655.192 657.521C655.03 657.741 654.793 657.958 654.49 657.944L644.623 659.688C642.94 659.99 641.515 659.621 640.119 658.646C638.798 657.675 637.949 656.346 637.644 654.738C637.339 653.131 637.712 651.631 638.687 650.235C639.658 648.914 640.911 648.061 642.594 647.76C644.277 647.458 645.701 647.828 647.098 648.802C648.339 649.846 649.192 651.099 649.493 652.782ZM644.194 657.469C644.728 657.417 645.192 657.211 645.585 656.926C645.977 656.641 646.37 656.355 646.618 655.912C646.862 655.543 647.11 655.1 647.211 654.573C647.307 654.123 647.332 653.593 647.281 653.059C647.154 652.522 647.023 652.061 646.738 651.669C646.453 651.276 646.167 650.884 645.724 650.636C645.355 650.391 644.912 650.143 644.385 650.043C643.935 649.946 643.405 649.922 642.871 649.973C642.338 650.024 641.873 650.23 641.481 650.515C641.088 650.801 640.696 651.086 640.448 651.53C640.203 651.898 639.955 652.342 639.855 652.868C639.758 653.319 639.734 653.849 639.785 654.382C639.836 654.916 640.042 655.38 640.327 655.773C640.613 656.165 640.974 656.561 641.342 656.806C641.71 657.05 642.154 657.298 642.68 657.399C643.203 657.575 643.657 657.596 644.194 657.469Z" fill="#DCDBE1"/>
<path d="M645.878 673.554C644.202 673.704 642.781 673.259 641.464 672.212C640.222 671.169 639.453 669.767 639.299 668.167C639.149 666.491 639.594 665.07 640.641 663.753C641.684 662.512 643.086 661.742 644.686 661.588C646.286 661.434 647.783 661.883 649.1 662.93C650.341 663.974 651.111 665.375 651.265 666.975C651.415 668.651 650.97 670.072 649.923 671.389C649.362 672.046 648.807 672.551 648.108 672.898C647.41 673.245 646.714 673.517 645.878 673.554ZM649.128 667.256C649.076 666.722 648.946 666.261 648.664 665.793C648.382 665.325 648.093 665.008 647.729 664.687C647.364 664.367 646.921 664.119 646.47 664.022C646.023 663.85 645.493 663.826 644.959 663.877C644.426 663.928 643.965 664.058 643.5 664.265C643.035 664.471 642.715 664.835 642.395 665.2C642.074 665.564 641.826 666.008 641.73 666.459C641.557 666.906 641.533 667.436 641.584 667.969C641.635 668.503 641.766 668.964 642.048 669.432C642.329 669.9 642.618 670.217 642.983 670.537C643.347 670.858 643.791 671.106 644.242 671.202C644.689 671.375 645.219 671.399 645.752 671.348C646.286 671.297 646.747 671.166 647.136 670.957C647.601 670.751 647.921 670.386 648.241 670.022C648.562 669.657 648.81 669.213 648.982 668.766C649.082 668.24 649.179 667.789 649.128 667.256Z" fill="#DCDBE1"/>
<path d="M641.163 682.061L650.953 681.982C651.256 681.996 651.555 682.086 651.772 682.323C651.989 682.561 652.13 682.795 652.116 683.098C652.102 683.4 652.012 683.7 651.774 683.916C651.537 684.133 651.303 684.274 651 684.26L641.21 684.339C640.907 684.325 640.607 684.235 640.391 683.998C640.174 683.76 640.033 683.526 640.047 683.223C640.061 682.92 640.151 682.621 640.389 682.404C640.626 682.188 640.857 682.123 641.163 682.061ZM654.251 684.486C653.873 684.469 653.574 684.379 653.281 684.138C652.989 683.897 652.927 683.59 652.869 683.208C652.887 682.83 652.976 682.531 653.217 682.238C653.458 681.946 653.765 681.884 654.147 681.826C654.529 681.768 654.825 681.933 655.117 682.174C655.409 682.415 655.471 682.722 655.529 683.104C655.512 683.482 655.422 683.781 655.181 684.074C654.94 684.366 654.558 684.424 654.251 684.486Z" fill="#DCDBE1"/>
<path d="M652.037 687.949L652.013 688.479L656.029 688.589C656.331 688.603 656.631 688.692 656.772 688.927C656.913 689.161 657.054 689.395 657.04 689.698C657.026 690 656.936 690.3 656.702 690.441C656.468 690.582 656.234 690.722 655.931 690.708L651.915 690.599L651.852 691.962C651.838 692.264 651.748 692.564 651.514 692.705C651.277 692.921 651.046 692.986 650.743 692.972C650.44 692.958 650.141 692.869 649.925 692.631C649.708 692.394 649.643 692.163 649.657 691.86L649.72 690.497L644.341 690.325C642.903 690.259 642.187 690.984 642.12 692.422C642.106 692.725 642.016 693.025 641.782 693.165C641.545 693.382 641.314 693.447 641.011 693.433C640.709 693.419 640.409 693.33 640.193 693.092C639.976 692.854 639.911 692.624 639.925 692.321C639.985 689.365 641.49 687.993 644.446 688.054L649.824 688.226L649.849 687.696C649.863 687.394 649.949 687.17 650.187 686.953C650.424 686.737 650.655 686.672 650.958 686.686C651.261 686.7 651.56 686.789 651.701 687.023C651.842 687.257 652.051 687.646 652.037 687.949Z" fill="#DCDBE1"/>
<path d="M645.303 697.501C645.637 696.833 645.885 696.389 646.199 696.176C646.753 695.671 647.445 695.475 648.202 695.51C648.732 695.535 649.255 695.711 649.619 696.031C649.984 696.351 650.42 696.751 650.627 697.215C650.908 697.684 651.111 698.224 651.235 698.837C651.358 699.449 651.409 699.983 651.381 700.588C651.297 702.405 650.47 703.884 648.9 705.026C648.742 705.17 648.511 705.235 648.209 705.221C647.906 705.207 647.61 705.042 647.465 704.883C647.249 704.646 647.184 704.415 647.201 704.037C647.212 703.81 647.298 703.586 647.456 703.442C647.615 703.297 647.773 703.153 647.931 703.008C648.72 702.362 649.14 701.471 649.189 700.411C649.238 699.351 648.974 698.505 648.396 697.871C648.328 697.716 648.1 697.706 647.949 697.699C647.722 697.688 647.643 697.76 647.557 697.984L645.585 702.9C645.25 703.567 645.002 704.011 644.689 704.224C644.135 704.73 643.443 704.925 642.686 704.89C642.156 704.866 641.633 704.69 641.268 704.37C640.828 704.046 640.467 703.65 640.261 703.185C639.979 702.717 639.776 702.177 639.653 701.564C639.53 700.951 639.478 700.418 639.506 699.812C639.59 697.995 640.417 696.516 641.911 695.371C642.146 695.231 642.376 695.165 642.603 695.176C642.906 695.19 643.202 695.355 643.346 695.514C643.563 695.751 643.628 695.982 643.611 696.36C643.6 696.587 643.514 696.811 643.356 696.955C643.197 697.1 643.039 697.244 642.956 697.392C642.168 698.039 641.747 698.93 641.698 699.989C641.653 700.973 641.917 701.82 642.491 702.53C642.639 702.612 642.711 702.691 642.938 702.702C643.166 702.712 643.321 702.644 643.407 702.42L645.303 697.501Z" fill="#DCDBE1"/>
<path d="M649.733 715.002L649.632 715.529L653.62 716.244C653.919 716.334 654.143 716.42 654.356 716.733C654.497 716.967 654.559 717.273 654.545 717.576C654.455 717.876 654.369 718.099 654.056 718.312C653.822 718.453 653.515 718.515 653.212 718.501L649.225 717.786L649.01 719.141C648.921 719.441 648.834 719.664 648.521 719.877C648.287 720.018 647.981 720.08 647.678 720.066C647.379 719.976 647.155 719.89 646.942 719.577C646.729 719.264 646.739 719.037 646.753 718.734L646.968 717.378L641.628 716.373C640.2 716.079 639.415 716.65 639.121 718.078C639.031 718.377 638.945 718.601 638.632 718.814C638.398 718.955 638.092 719.016 637.789 719.003C637.489 718.913 637.266 718.827 637.053 718.513C636.84 718.2 636.85 717.973 636.864 717.67C637.375 714.811 639.1 713.601 641.956 714.188L647.296 715.193L647.396 714.667C647.486 714.367 647.572 714.144 647.885 713.931C648.119 713.79 648.426 713.728 648.729 713.742C649.028 713.832 649.252 713.918 649.465 714.231C649.681 714.469 649.746 714.699 649.733 715.002Z" fill="#DCDBE1"/>
<path d="M637.103 722.385C636.804 722.295 636.584 722.133 636.446 721.823C636.305 721.589 636.243 721.283 636.333 720.984C636.423 720.684 636.585 720.464 636.895 720.327C637.129 720.186 637.435 720.124 637.734 720.214L652.115 724.216C652.415 724.306 652.635 724.468 652.772 724.777C652.913 725.011 652.975 725.318 652.885 725.617C652.796 725.916 652.634 726.136 652.324 726.274C652.09 726.415 651.783 726.477 651.484 726.387L646.54 725.021C647.021 726.105 647.041 727.32 646.682 728.517C646.496 729.267 646.165 729.859 645.683 730.443C645.201 731.028 644.65 731.458 644.023 731.884C643.397 732.31 642.705 732.506 642.016 732.626C641.252 732.742 640.571 732.711 639.824 732.449L634.729 731.075C634.43 730.986 634.21 730.824 634.072 730.514C633.931 730.28 633.87 729.973 633.959 729.674C634.049 729.375 634.211 729.155 634.521 729.017C634.755 728.876 635.061 728.815 635.36 728.904L640.456 730.278C640.907 730.374 641.361 730.395 641.743 730.337C642.2 730.282 642.586 730.148 642.975 729.939C643.364 729.729 643.681 729.44 643.925 729.072C644.17 728.704 644.415 728.336 644.511 727.886C644.608 727.435 644.705 726.984 644.574 726.523C644.444 726.062 644.386 725.68 644.176 725.291C643.966 724.902 643.677 724.585 643.309 724.34C642.941 724.096 642.573 723.851 642.123 723.754L637.103 722.385Z" fill="#DCDBE1"/>
<path d="M633.881 732.933L643.06 736.24C643.359 736.33 643.576 736.567 643.717 736.801C643.858 737.035 643.844 737.338 643.754 737.638C643.664 737.937 643.427 738.153 643.193 738.294C642.883 738.432 642.656 738.421 642.356 738.332L633.178 735.025C632.878 734.935 632.662 734.698 632.521 734.463C632.383 734.154 632.394 733.927 632.484 733.627C632.573 733.328 632.811 733.111 633.045 732.97C633.355 732.833 633.585 732.768 633.881 732.933ZM645.332 739.607C644.957 739.514 644.74 739.276 644.606 738.891C644.469 738.581 644.411 738.199 644.576 737.903C644.742 737.607 644.907 737.311 645.292 737.178C645.678 737.044 645.984 736.982 646.28 737.147C646.655 737.24 646.872 737.478 647.006 737.864C647.143 738.173 647.201 738.555 647.036 738.851C646.943 739.226 646.705 739.443 646.32 739.577C646.01 739.714 645.704 739.776 645.332 739.607Z" fill="#DCDBE1"/>
<path d="M640.466 743.1C640.716 744.249 640.585 745.457 640.074 746.647C639.74 747.314 639.334 747.903 638.779 748.408C638.225 748.913 637.602 749.264 636.982 749.539C636.287 749.81 635.599 749.93 634.842 749.895C634.084 749.86 633.407 749.753 632.664 749.415L627.834 747.22C627.538 747.054 627.318 746.892 627.256 746.586C627.119 746.276 627.133 745.974 627.295 745.753C627.46 745.458 627.622 745.237 627.928 745.176C628.235 745.114 628.541 745.052 628.761 745.214L633.591 747.41C634.038 747.582 634.413 747.675 634.867 747.696C635.321 747.717 635.703 747.659 636.168 747.453C636.554 747.319 636.943 747.109 637.259 746.821C637.576 746.532 637.821 746.164 638.069 745.72C638.241 745.273 638.335 744.898 638.355 744.443C638.376 743.989 638.318 743.607 638.112 743.143C637.978 742.757 637.769 742.368 637.404 742.048C637.115 741.731 636.747 741.486 636.303 741.238L631.474 739.043C631.178 738.877 630.958 738.715 630.896 738.409C630.759 738.099 630.773 737.797 630.934 737.576C631.1 737.281 631.262 737.06 631.568 736.999C631.874 736.937 632.181 736.875 632.401 737.037L641.242 741.087C641.537 741.252 641.682 741.411 641.819 741.721C641.957 742.03 641.943 742.333 641.781 742.553C641.615 742.849 641.457 742.994 641.147 743.131C641.065 743.279 640.762 743.265 640.466 743.1Z" fill="#DCDBE1"/>
<path d="M622.163 756.669C621.999 755.295 622.286 754.019 623.102 752.767C624.001 751.367 625.255 750.515 626.865 750.134C628.476 749.753 629.98 750.05 631.38 750.949C632.78 751.848 633.632 753.102 634.013 754.712C634.394 756.323 634.097 757.827 633.197 759.227C632.298 760.626 631.045 761.479 629.434 761.86C627.824 762.241 626.32 761.943 624.92 761.044L619.909 757.854C619.465 757.606 619.104 757.21 618.815 756.893C618.53 756.501 618.244 756.108 618.114 755.647C617.908 755.182 617.853 754.725 617.798 754.267C617.744 753.809 617.768 753.279 617.789 752.825C617.81 752.371 617.986 751.848 618.083 751.397C618.255 750.95 618.427 750.503 618.751 750.063C619.078 749.547 619.399 749.182 619.874 748.749C620.27 748.388 620.742 748.03 621.286 747.752C621.829 747.474 622.37 747.271 622.907 747.144C623.519 747.021 624.053 746.969 624.658 746.997C624.886 747.008 625.037 747.015 625.257 747.177C625.553 747.342 625.694 747.576 625.756 747.882C625.817 748.189 625.728 748.488 625.566 748.708C625.483 748.856 625.325 749.001 625.17 749.069C625.015 749.138 624.708 749.2 624.33 749.182C623.872 749.237 623.569 749.223 623.339 749.288C622.189 749.538 621.325 750.181 620.75 751.141C620.099 752.097 619.974 753.154 620.149 754.3C620.417 755.071 620.774 755.542 621.214 755.866L622.163 756.669ZM631.278 758.076C631.526 757.632 631.774 757.188 631.799 756.658C631.823 756.128 631.844 755.674 631.789 755.217C631.735 754.759 631.529 754.294 631.243 753.902C630.958 753.509 630.597 753.113 630.153 752.865C629.709 752.617 629.262 752.445 628.736 752.344C628.209 752.244 627.752 752.299 627.294 752.354C626.833 752.484 626.371 752.615 625.979 752.9C625.586 753.185 625.191 753.546 624.942 753.99C624.694 754.434 624.446 754.877 624.422 755.407C624.397 755.937 624.376 756.391 624.431 756.849C624.561 757.31 624.692 757.772 624.977 758.164C625.263 758.557 625.624 758.953 626.067 759.201C626.511 759.449 626.958 759.621 627.485 759.721C628.011 759.822 628.469 759.767 628.927 759.712C629.388 759.582 629.849 759.451 630.241 759.166C630.71 758.884 631.03 758.519 631.278 758.076Z" fill="#DCDBE1"/>
<path opacity="0.23" d="M683.953 674.712C639.432 684.745 557.957 670.943 556.473 671.329C554.989 671.715 540 674.742 502.216 684.596C464.432 694.45 420.474 703.681 397.708 703.681C389.13 703.681 378.416 696.053 366.632 682.845C354.493 669.281 344.164 652.926 334.161 634.851C355.383 666.431 381.295 680.352 388.715 682.34C397.946 684.804 400.855 684.863 413.974 683.854C456.121 680.678 544.215 655.301 553.831 653.906C560.539 652.956 658.101 669.815 685.289 650.255" fill="#DCDBE1"/>
<path opacity="0.23" d="M202.257 812.73C203.77 815.906 205.462 819.972 206.59 823.088C235.47 856.777 305.488 876.485 359.596 885.627C455.556 901.922 539.999 894.145 600.964 864.316C608.384 856.539 615.122 848.881 621.266 841.372C612.688 845.349 601.468 851.167 592.653 855.263C567.632 866.898 541.779 868.916 536.199 860.012C533.35 855.471 529.402 845.973 531.718 834.872C534.953 819.408 544.926 789.608 537.149 760.847C541.127 793.674 521.032 818.696 519.875 842.945C519.875 869.718 495.447 874.615 468.348 876.396C447.334 877.791 426.884 877.791 388.15 873.635C347.576 869.332 340.63 857.726 340.126 832.735C339.74 814.392 344.281 783.464 353.631 767.941C364.939 749.153 403.792 736.301 445.731 727.218C417.445 726.714 361.437 731.047 334.635 754.792C325.879 762.569 316.47 770.939 307.506 778.596C312.255 786.966 314.511 795.04 314.897 798.987C315.372 803.766 305.903 795.574 285.809 795.99C278.893 796.108 270.701 797.266 261.263 800.353C254.525 802.519 247.164 805.636 239.121 810.058C226.061 817.212 215.999 815.638 202.257 812.73Z" fill="#DCDBE1"/>
<path opacity="0.23" d="M188.633 750.518C192.937 752.536 197.597 754.466 202.554 756.306C215.524 761.144 229.742 754.347 246.126 751.379C244.701 739.002 244.345 726.061 245.265 714.366C246.986 692.64 251.082 659.931 263.578 646.308C276.104 632.654 292.755 613.332 302.193 601.014C269.752 608.583 257.048 618.229 244.404 626.481C240.486 636.839 233.125 652.689 216.148 638.62C211.814 655.093 204.988 669.815 190.533 681.925C188.871 683.32 187.03 684.656 185.072 685.991C184.597 706.709 185.665 728.554 188.633 750.518Z" fill="#DCDBE1"/>
<path opacity="0.23" d="M96.8011 532.836C105.201 536.754 112.948 540.791 120.042 544.857C120.071 544.887 120.101 544.887 120.131 544.887C132.508 551.417 139.275 516.719 177.059 473.058C213.418 431.06 270.644 404.406 303.441 424.025C294.834 417.525 284.653 412.301 272.603 409.066C253.221 403.872 235.62 402.625 218.138 406.869C183.5 415.15 149.248 444.713 102.411 506.806C97.2761 513.603 80.6843 525.327 96.8011 532.836Z" fill="#DCDBE1"/>
<path opacity="0.23" d="M427.301 995.18C427.449 995.536 427.627 995.892 427.835 996.248C428.25 996.931 428.814 997.554 429.497 998.148C430.18 998.712 430.951 999.276 431.812 999.78C432.257 1000.05 432.732 1000.28 433.207 1000.52C434.602 1001.18 436.175 1001.8 437.867 1002.33C441.458 1003.46 445.643 1004.26 449.918 1004.86C450.63 1004.94 451.313 1005.03 452.025 1005.12C452.708 1005.21 453.42 1005.3 454.103 1005.36C454.815 1005.45 455.498 1005.51 456.21 1005.57C461.078 1006.04 465.738 1006.28 469.448 1006.4C469.923 1006.43 470.398 1006.43 470.843 1006.46C471.169 1006.46 471.436 1006.49 471.733 1006.49C472.119 1006.49 472.475 1006.52 472.831 1006.52C473.9 1006.55 474.79 1006.58 475.503 1006.61C476.363 1006.64 477.254 1006.67 478.115 1006.7C479.005 1006.73 479.896 1006.76 480.816 1006.79C483.131 1006.87 485.535 1006.96 487.939 1007.05C489.809 1007.14 491.709 1007.2 493.638 1007.29C495.003 1007.35 496.369 1007.38 497.764 1007.44C500.939 1007.56 504.115 1007.68 507.262 1007.79C511.803 1007.94 516.255 1008.09 520.559 1008.18C522.636 1008.24 524.714 1008.3 526.703 1008.33C565.882 1008.98 640.055 1012.75 649.316 1012.75C649.939 1012.75 650.562 1012.75 651.126 1012.72C651.542 1012.72 651.957 1012.72 652.343 1012.69C652.551 1012.69 652.729 1012.69 652.907 1012.66C653.085 1012.66 653.263 1012.63 653.441 1012.63C653.976 1012.6 654.45 1012.54 654.896 1012.45C655.044 1012.42 655.192 1012.39 655.341 1012.37C655.608 1012.34 655.816 1012.28 656.023 1012.19C656.083 1012.19 656.142 1012.16 656.202 1012.13C656.32 1012.1 656.439 1012.07 656.528 1012.01C656.676 1011.95 656.795 1011.89 656.884 1011.83C657.062 1011.77 657.181 1011.68 657.3 1011.59C657.389 1011.5 657.478 1011.42 657.537 1011.33C657.804 1010.91 657.923 1010.47 657.834 1009.87C657.804 1009.75 657.775 1009.63 657.745 1009.52C657.656 1009.25 657.537 1008.95 657.389 1008.63C657.389 1008.57 657.359 1008.51 657.3 1008.45C657.27 1008.33 657.211 1008.24 657.122 1008.12C657.003 1007.91 656.855 1007.71 656.706 1007.47C656.558 1007.23 656.38 1006.96 656.142 1006.67C656.053 1006.58 655.994 1006.46 655.875 1006.34C655.519 1005.92 655.133 1005.45 654.688 1004.97C654.48 1004.71 654.243 1004.47 653.976 1004.2C653.738 1003.94 653.471 1003.67 653.204 1003.4C652.937 1003.1 652.64 1002.81 652.343 1002.54C652.046 1002.24 651.749 1001.92 651.423 1001.62C650.77 1000.97 650.058 1000.31 649.316 999.632H649.286C649.256 999.602 649.197 999.543 649.137 999.484C649.137 999.484 649.137 999.454 649.108 999.484C649.048 999.424 648.989 999.365 648.9 999.276C648.811 999.216 648.722 999.127 648.603 999.038C648.603 999.038 648.603 999.009 648.574 999.038C648.484 998.949 648.366 998.86 648.277 998.742C647.624 998.237 646.793 997.584 645.724 996.753C645.694 996.783 645.694 996.783 645.694 996.753C645.576 996.694 645.487 996.604 645.368 996.515C645.249 996.456 645.16 996.367 645.041 996.248C638.779 991.618 626.431 983.159 611.65 975.857C611.235 975.679 610.819 975.471 610.404 975.264C607.495 973.869 604.527 972.503 601.47 971.257C601.024 971.049 600.609 970.871 600.164 970.693C600.015 970.633 599.896 970.604 599.778 970.515C599.748 970.544 599.748 970.544 599.748 970.515C597.997 969.832 596.216 969.149 594.465 968.496C594.435 968.526 594.435 968.526 594.435 968.496C591.853 967.576 589.241 966.745 586.629 966.003C585.798 965.766 585.026 965.528 584.225 965.35C581.88 964.727 579.535 964.222 577.19 963.777C576.983 963.747 576.804 963.718 576.597 963.688C576.567 963.658 576.567 963.658 576.537 963.658C576.478 963.658 576.419 963.629 576.359 963.629C575.706 963.51 575.083 963.421 574.489 963.332C574.163 963.273 573.866 963.243 573.569 963.213C573.421 963.183 573.243 963.154 573.094 963.124C572.946 963.094 572.798 963.094 572.649 963.065C572.056 963.005 571.432 962.916 570.839 962.857C570.542 962.827 570.245 962.798 569.918 962.768C568.939 962.679 567.959 962.62 566.98 962.56C565.911 962.501 564.813 962.471 563.745 962.471C563.062 962.471 562.379 962.471 561.697 962.501H561.667C562.083 962.085 562.528 961.64 562.973 961.195C564.665 959.355 566.357 957.218 568.019 954.813C581.672 934.927 592.803 897.529 587.223 878.8C555.761 906.611 500.999 924.568 446.801 927.922C446.771 928.011 446.771 928.1 446.771 928.219H446.801C445.97 940.151 439.648 959.266 432.94 976.362C431.664 979.657 430.387 982.832 429.141 985.86C429.141 985.89 429.111 985.89 429.111 985.89C428.606 987.166 428.072 988.413 427.568 989.629C426.677 991.737 426.648 993.577 427.301 995.18Z" fill="#DCDBE1"/>
<path opacity="0.23" d="M186.709 1009.07C187.214 1009.84 187.778 1010.55 188.46 1011.21C190.093 1012.78 192.349 1013.97 195.317 1014.65C209.534 1017.95 241.471 1017.95 276.732 1017C277.237 1017 277.712 1016.97 278.187 1016.97C281.451 1016.88 284.746 1016.79 288.07 1016.67C294.6 1016.46 301.219 1016.22 307.779 1015.99C309.411 1015.93 311.044 1015.87 312.676 1015.81C314.457 1015.75 316.238 1015.69 317.989 1015.63C320.304 1015.54 322.619 1015.45 324.934 1015.36C328.941 1015.21 332.948 1015.07 336.866 1014.92H336.896C339.894 1014.8 342.891 1014.68 345.83 1014.59C347.076 1014.53 348.323 1014.5 349.54 1014.44C349.57 1014.44 349.57 1014.44 349.57 1014.44C349.688 1014.44 349.777 1014.44 349.896 1014.41C350.46 1014.41 351.054 1014.38 351.618 1014.35C351.647 1014.35 351.647 1014.35 351.647 1014.35C353.042 1014.32 354.408 1014.26 355.743 1014.21C359.958 1014.06 364.084 1013.88 368.091 1013.73C368.951 1013.67 369.812 1013.64 370.673 1013.61C371 1013.61 371.296 1013.58 371.623 1013.58C372.276 1013.55 372.899 1013.52 373.552 1013.49C375.422 1013.43 377.262 1013.34 379.073 1013.26C379.874 1013.23 380.676 1013.2 381.447 1013.14C382.397 1013.11 383.317 1013.08 384.208 1013.02C387.205 1012.9 390.055 1012.75 392.785 1012.6C393.32 1012.57 393.854 1012.54 394.359 1012.51C394.833 1012.48 395.249 1012.45 395.694 1012.42C396.11 1012.42 419.38 1010.29 419.766 1010.26C383.97 996.07 321.402 991.885 291.87 993.726H291.691C278.454 994.557 267.976 995.863 262.455 996.07C242.391 996.812 235.179 992.271 243.608 963.985C251.592 937.094 261.446 890.613 260.734 858.528C239.067 849.356 220.219 838.167 207.991 824.691C222.505 867.937 209.356 922.995 196.148 963.57C192.645 974.225 179.734 997.762 186.709 1009.07Z" fill="#DCDBE1"/>
<path opacity="0.23" d="M338.313 910.025C329.498 904.474 311.778 893.225 306.258 885.656C411.774 932.375 511.532 910.915 570.123 890.702C516.311 921.007 471.997 928.279 430.295 928.279C388.623 928.279 361.524 919.463 338.313 910.025Z" fill="#DCDBE1"/>
<path opacity="0.23" d="M351.913 460.86C352.922 478.965 351.616 492.084 348.826 504.461C346.036 488.79 338.438 465.638 328.969 453.469C336.152 455.933 345.977 459.316 351.913 460.86Z" fill="#DCDBE1"/>
<path opacity="0.23" d="M425.252 81.1782C446.533 70.8788 469.061 65.1504 491.678 56.9287C495.893 55.3853 504.767 53.0998 507.914 48.4695C511.416 43.3347 509.042 35.9144 509.249 35.9441C528.394 39.1793 519.816 56.3054 519.816 56.3054C519.816 56.3054 523.585 56.0679 525.426 55.6821C533.439 53.9012 541.661 46.9558 541.068 34.9053C540.325 18.9071 523.051 12.3773 525.633 11.0713C526.316 10.7448 556.591 -3.23503 579.89 15.1376C592.653 25.2292 598.738 39.0606 594.375 57.3442C623.047 52.0906 618.684 27.2178 619.129 27.3069C644.655 31.8481 654.123 61.7964 636.018 73.7876C636.018 76.8447 648.395 76.1917 656.765 70.2555C662.968 65.8627 665.669 55.9195 666.381 56.3647C690.364 71.2647 679.263 97.0279 657.863 99.4024C656.29 99.5805 652.995 99.7586 653.5 101.272C653.678 101.807 658.427 105.22 666.5 105.368C674.633 105.487 677.898 101.391 678.254 102.46C681.845 113.442 663.769 123.029 656.794 119.556C670.477 128.668 679.916 139.413 688.82 154.342C675.761 138.789 653.351 123.474 623.344 113.412C626.965 110.414 623.967 101.629 618.06 100.174C619.485 106.704 607.464 109.168 593.811 105.814C597.491 101.985 601.202 89.2811 584.907 84.918C592.594 96.2859 574.785 104.834 567.009 103.024C558.52 101.035 559.173 96.7014 562.438 93.4662C556.116 90.0529 549.972 97.6216 546.766 99.1353C540.415 102.163 533.261 100.916 515.957 103.558C418.039 118.665 364.999 160.189 340.631 214.358C320.121 259.918 297.563 341.215 306.764 426.608C297.474 418.89 286.255 412.717 272.601 409.036C263.786 406.691 255.327 405.118 247.105 404.584C245.948 272.384 293.883 142.499 425.252 81.1782Z" fill="#DCDBE1"/>
<path opacity="0.23" d="M637.177 765.121C637.177 765.566 637.295 766.041 637.503 766.516C637.652 766.813 637.83 767.139 638.067 767.496C638.305 767.822 638.572 768.178 638.839 768.534C642.697 773.491 651.958 781.297 650.444 799.967C649.465 801.659 649.049 803.558 649.168 805.339C648.159 812.433 651.72 814.986 657.775 812.7L656.113 815.935C662.168 815.282 668.49 814.481 675.05 813.442C694.254 801.065 686.447 784.384 687.575 776.074C688.584 768.772 693.808 763.578 700.932 758.295C701.941 757.552 702.98 756.81 704.078 756.039C735.748 733.629 757.831 714.218 763.678 705.136C742.842 702.227 719.72 686.436 709.48 667.114C699.27 647.792 715.921 616.715 713.546 578.456C711.172 540.702 690.959 510.13 668.995 484.961C667.986 488.255 665.641 491.075 665.819 492.975C666.175 496.566 673.417 509.923 680.541 523.398C712.092 582.998 693.601 650.967 684.103 656.518C683.539 669.132 682.886 681.866 681.609 694.747C697.162 707.095 721.293 713.12 721.293 720.451C721.293 723.775 710.667 732.531 698.795 741.198L698.617 740.694C690.989 746.244 683.034 751.646 677.157 755.504C677.127 755.534 677.098 755.534 677.098 755.534C679.057 763.756 678.107 775.688 666.175 777.201C657.449 778.3 647.535 772.452 638.097 763.311C637.503 764.023 637.177 764.617 637.177 765.121Z" fill="#DCDBE1"/>
<path opacity="0.23" d="M212.797 650.997C204.1 671.685 172.668 689.642 158.124 694.183C143.58 698.724 139.128 701.455 137.614 703.711C136.101 705.967 142.927 715.465 151.208 723.746C146.519 717.364 144.382 714.485 145.539 711.19C146.697 707.896 153.642 704.037 165.159 697.775C176.675 691.512 203.714 678.897 212.797 650.997Z" fill="#DCDBE1"/>
<path d="M246.451 405.059C245.086 272.562 292.961 142.915 424.568 81.4751C445.849 71.1757 468.377 65.4473 490.994 57.2256C495.209 55.6822 504.054 53.3967 507.23 48.7665C510.732 43.6613 508.358 36.241 508.565 36.2707C527.71 39.5059 519.102 56.6023 519.102 56.6023C519.102 56.6023 522.872 56.3945 524.712 55.979C532.726 54.1981 540.948 47.2527 540.354 35.2022C539.612 19.204 522.337 12.6742 524.89 11.3682C525.573 11.012 555.847 -2.9678 579.147 15.4345C591.91 25.5261 597.728 42.6818 593.394 60.9357" stroke="#DCDBE1" stroke-width="8.25314" stroke-miterlimit="10" stroke-linecap="round" stroke-linejoin="round"/>
<path d="M385.986 234.392C391.27 264.133 466.036 266.448 464.552 227.21C463.959 211.538 445.853 205.572 419.289 205.542C392.724 205.513 382.959 217.207 385.986 234.392Z" fill="#FDFDFF"/>
<path d="M618.836 243.178C624.031 272.948 690.576 276.51 688.587 237.361C687.786 221.719 671.61 215.456 647.954 214.981C624.298 214.506 615.839 225.993 618.836 243.178Z" fill="#FDFDFF"/>
<path d="M385.452 228.426C394.653 216.406 410.948 214.565 431.161 217.563C448.673 220.145 459.031 225.221 464.374 231.78C464.552 230.326 464.611 228.812 464.552 227.21C463.958 211.538 445.853 205.542 419.288 205.542C395.899 205.513 385.541 214.565 385.452 228.426Z" fill="#FDFDFF"/>
<path d="M618.39 239.854C625.424 225.488 639.582 223.173 657.48 226.26C676.387 229.584 685.083 237.034 687.636 246.473C688.408 243.712 688.764 240.685 688.586 237.331C687.784 221.719 671.578 215.426 647.952 214.951C625.87 214.536 617.024 224.538 618.39 239.854Z" fill="#FDFDFF"/>
<path d="M671.544 751.616C681.873 718.166 683.713 686.614 685.138 655.598C694.606 650.047 713.127 582.077 681.576 522.478C674.453 509.002 658.098 459.613 659.493 467.627" stroke="#DCDBE1" stroke-width="8.25314" stroke-miterlimit="10" stroke-linecap="round" stroke-linejoin="round"/>
<path d="M338.164 910.589C410.586 946.8 539.432 926.141 591.344 875.12C618.206 848.703 636.845 823.682 650.291 799.907" stroke="#DCDBE1" stroke-width="8.25314" stroke-miterlimit="10" stroke-linecap="round" stroke-linejoin="round"/>
<path d="M551.84 263.272C555.699 277.667 556.589 310.821 550.92 320.853C535.664 320.735 520.794 315.837 517.766 308.447" stroke="#FDFDFF" stroke-width="9.60749" stroke-miterlimit="10" stroke-linecap="round" stroke-linejoin="round"/>
<path d="M587.901 259.651C588.287 251.578 572.467 244.246 552.551 243.267C532.635 242.288 516.162 248.046 515.776 256.089C515.39 264.163 531.21 271.494 551.126 272.473C571.042 273.453 587.515 267.695 587.901 259.651Z" fill="#FDFDFF"/>
<path d="M518.986 193.669C518.986 193.669 496.221 191.74 470.458 186.873C438.699 180.877 420.712 166.363 406.643 167.045C392.04 167.758 351.317 186.071 351.317 186.071" stroke="#DCDBE1" stroke-width="23.9402" stroke-miterlimit="10" stroke-linecap="round" stroke-linejoin="round"/>
<path d="M588.14 198.152C588.14 198.152 611.084 197.766 633.879 195.213C654.359 192.928 676.115 183.252 687.186 183.459C699.326 183.697 733.311 200.971 733.311 200.971" stroke="#DCDBE1" stroke-width="23.9402" stroke-miterlimit="10" stroke-linecap="round" stroke-linejoin="round"/>
<path d="M385.986 234.392C391.27 264.133 466.036 266.448 464.552 227.21C463.959 211.538 445.853 205.572 419.289 205.542C392.724 205.513 382.959 217.207 385.986 234.392Z" stroke="#DCDBE1" stroke-width="9.60749" stroke-miterlimit="10" stroke-linecap="round" stroke-linejoin="round"/>
<path d="M618.836 243.178C624.031 272.948 690.576 276.51 688.587 237.361C687.786 221.719 671.61 215.456 647.954 214.981C624.298 214.506 615.839 225.993 618.836 243.178Z" stroke="#DCDBE1" stroke-width="9.60749" stroke-miterlimit="10" stroke-linecap="round" stroke-linejoin="round"/>
<path d="M436.949 229.554C436.949 222.965 431.607 217.622 425.017 217.622C418.428 217.622 413.086 222.965 413.086 229.554C413.086 236.143 418.428 241.486 425.017 241.486C431.607 241.456 436.949 236.143 436.949 229.554Z" fill="#DCDBE1"/>
<path d="M662.879 240.091C662.879 233.502 657.536 228.159 650.947 228.159C644.358 228.159 639.015 233.502 639.015 240.091C639.015 246.68 644.358 252.023 650.947 252.023C657.566 252.023 662.879 246.68 662.879 240.091Z" fill="#DCDBE1"/>
<path d="M315.34 799.551C296.136 772.72 269.156 762.628 227.009 778.745" stroke="#DCDBE1" stroke-width="8.25314" stroke-miterlimit="10" stroke-linecap="round" stroke-linejoin="round"/>
<path d="M639.696 817.687C673.533 815.757 713.187 809.168 768.512 785.868C825.085 762.005 845.505 741.376 848.028 715.613C850.254 692.966 824.58 595.731 781.869 542.483" stroke="#DCDBE1" stroke-width="8.25314" stroke-miterlimit="10" stroke-linecap="round" stroke-linejoin="round"/>
<path d="M682.62 694.124C698.084 707.065 721.799 711.725 721.799 719.234C721.799 724.755 692.622 745.175 677.01 755.445" stroke="#DCDBE1" stroke-width="8.25314" stroke-miterlimit="10" stroke-linecap="round" stroke-linejoin="round"/>
<path d="M664.123 421.384C695.526 432.633 727.582 462.195 769.996 518.412C775.131 525.208 793.058 541.118 775.635 544.442" stroke="#DCDBE1" stroke-width="8.25314" stroke-miterlimit="10" stroke-linecap="round" stroke-linejoin="round"/>
<path d="M693.332 552.159C702.177 546.134 711.705 541.088 721.826 537.437" stroke="#DCDBE1" stroke-width="8.25314" stroke-miterlimit="10" stroke-linecap="round" stroke-linejoin="round"/>
<path d="M650.297 800.531C653.324 777.587 636.911 770.76 637.03 765.655C637.119 761.411 664.781 748.975 671.549 751.586C682.056 755.623 682.501 775.688 676.802 781.743C677.574 788.569 672.261 804.538 662.021 810.979C651.811 817.449 646.26 807.387 650.297 800.531Z" stroke="#DCDBE1" stroke-width="8.25314" stroke-miterlimit="10" stroke-linecap="round" stroke-linejoin="round"/>
<path d="M676.803 781.743C669.471 769.484 653.058 765.655 637.03 765.655" stroke="#DCDBE1" stroke-width="8.25314" stroke-miterlimit="10" stroke-linecap="round" stroke-linejoin="round"/>
<path d="M185.518 686.614C185.073 707.51 186.112 729.088 189.109 751.23" stroke="#DCDBE1" stroke-width="8.25314" stroke-miterlimit="10" stroke-linecap="round" stroke-linejoin="round"/>
<path d="M601.793 864.494C540.679 895.065 456.949 902.634 360.04 886.22C305.931 877.049 235.913 857.34 207.004 823.682" stroke="#DCDBE1" stroke-width="8.25314" stroke-miterlimit="10" stroke-linecap="round" stroke-linejoin="round"/>
<path d="M714.586 540.346C717.94 543.225 720.611 548.419 721.828 552.159" stroke="#DCDBE1" stroke-width="8.25314" stroke-miterlimit="10" stroke-linecap="round" stroke-linejoin="round"/>
<path d="M215.942 758.383C226.301 771.532 236.274 791.033 219.919 815.757" stroke="#DCDBE1" stroke-width="8.25314" stroke-miterlimit="10" stroke-linecap="round" stroke-linejoin="round"/>
<path d="M216.153 638.62C211.849 655.657 205.854 670.023 190.983 682.459C175.52 695.4 144.087 705.937 145.096 713.416C146.491 723.716 165.487 742.919 203.004 756.87C225.799 765.358 252.512 737.963 288.071 758.383C306.977 769.247 314.605 791.982 315.347 799.551C316.119 807.12 291.721 781.95 239.572 810.593C217.815 822.524 204.31 810.207 168.307 807.773C141.089 805.933 110.369 800.827 82.944 789.281C26.3718 765.418 7.16804 731.077 4.64514 705.313C2.41906 682.667 41.4201 590.952 91.0173 531.382" stroke="#DCDBE1" stroke-width="8.25314" stroke-miterlimit="10" stroke-linecap="round" stroke-linejoin="round"/>
<path d="M245.123 625.946C237.465 641.588 230.312 654.529 215.946 638.442C210.307 632.12 200.423 618.852 194.784 611.699" stroke="#DCDBE1" stroke-width="8.25314" stroke-miterlimit="10" stroke-linecap="round" stroke-linejoin="round"/>
<path d="M305.467 600.688C295.316 603.092 279.258 608.79 266.852 614.43C255.929 619.416 248.182 624.373 244.264 627.044" stroke="#DCDBE1" stroke-width="8.25314" stroke-miterlimit="10" stroke-linecap="round" stroke-linejoin="round"/>
<path d="M266.847 614.43C273.703 605.466 281.806 593.712 291.066 587.42" stroke="#DCDBE1" stroke-width="8.25314" stroke-miterlimit="10" stroke-linecap="round" stroke-linejoin="round"/>
<path d="M345.859 500.009C344.613 493.242 342.832 485.851 340.25 478.253C337.608 470.298 334.135 462.166 329.624 454.33C329.475 454.063 329.327 453.825 329.149 453.558C317.84 434.206 300.18 416.902 273.051 409.63C215.322 394.107 173.382 413.904 102.86 507.37C97.7249 514.167 79.7975 530.046 97.25 533.4" stroke="#DCDBE1" stroke-width="8.25314" stroke-miterlimit="10" stroke-linecap="round" stroke-linejoin="round"/>
<path d="M242.24 625.145C230.308 587.361 196.798 542.987 151.03 526.425" stroke="#DCDBE1" stroke-width="8.25314" stroke-miterlimit="10" stroke-linecap="round" stroke-linejoin="round"/>
<path d="M229.418 600.955C225.678 604.338 222.354 606.297 217.872 608.731" stroke="#DCDBE1" stroke-width="8.25314" stroke-miterlimit="10" stroke-linecap="round" stroke-linejoin="round"/>
<path d="M212.648 577.15L202.972 584.393" stroke="#DCDBE1" stroke-width="8.25314" stroke-miterlimit="10" stroke-linecap="round" stroke-linejoin="round"/>
<path d="M194.752 556.7L187.154 565.931" stroke="#DCDBE1" stroke-width="8.25314" stroke-miterlimit="10" stroke-linecap="round" stroke-linejoin="round"/>
<path d="M374.351 923.292C367.762 942.377 354.524 958.078 335.676 964.519C389.844 973.987 410.77 992.954 423.622 1009.01C425.224 1012.31 383.196 1013.7 336.715 1015.42C282.755 1017.44 217.338 1020.32 195.136 1015.18C172.964 1010.05 191.663 977.282 195.967 964.104C210.392 919.76 224.758 858.142 203.061 813.531" stroke="#DCDBE1" stroke-width="8.25314" stroke-miterlimit="10" stroke-linecap="round" stroke-linejoin="round"/>
<path d="M587.279 879.601C593.453 901.12 577.959 946.77 561.516 962.798C599.923 961.581 645.989 997.079 649.135 999.929C662.58 1012.19 658.395 1013.05 649.135 1013.05C639.874 1013.05 565.701 1009.28 526.522 1008.63C510.613 1008.36 491.142 1007.44 475.322 1006.9C465.735 1006.55 420.412 1006.28 427.387 989.926C435.668 970.396 445.611 943.653 446.65 928.516" stroke="#DCDBE1" stroke-width="8.25314" stroke-miterlimit="10" stroke-linecap="round" stroke-linejoin="round"/>
<path d="M626.761 433.375L626.85 451.154" stroke="#DCDBE1" stroke-width="12.1906" stroke-miterlimit="10" stroke-linecap="round" stroke-linejoin="round"/>
<path d="M122.809 727.841L122.898 745.591" stroke="#DCDBE1" stroke-width="12.1906" stroke-miterlimit="10" stroke-linecap="round" stroke-linejoin="round"/>
<path d="M783.034 736.716L783.152 754.495" stroke="#DCDBE1" stroke-width="12.1906" stroke-miterlimit="10" stroke-linecap="round" stroke-linejoin="round"/>
<path d="M767.422 749.063L767.541 766.842" stroke="#DCDBE1" stroke-width="12.1906" stroke-miterlimit="10" stroke-linecap="round" stroke-linejoin="round"/>
<path d="M141.03 741.762L141.119 759.541" stroke="#DCDBE1" stroke-width="12.1906" stroke-miterlimit="10" stroke-linecap="round" stroke-linejoin="round"/>
<path d="M607.797 442.249L607.916 460.028" stroke="#DCDBE1" stroke-width="12.1906" stroke-miterlimit="10" stroke-linecap="round" stroke-linejoin="round"/>
<path d="M550.919 320.854C559.883 322.189 564.602 322.189 570.301 321.625" stroke="#FDFDFF" stroke-width="9.60749" stroke-miterlimit="10" stroke-linecap="round" stroke-linejoin="round"/>
<path d="M659.525 467.389C558.402 496.447 445.049 487.127 370.193 467.449C354.908 463.442 341.254 458.99 329.619 454.33C329.352 454.241 329.085 454.122 328.848 454.033" stroke="#DCDBE1" stroke-width="8.25314" stroke-miterlimit="10" stroke-linecap="round" stroke-linejoin="round"/>
<path d="M199.882 619.623C177.399 590.219 130.857 550.223 90.6203 534.261" stroke="#DCDBE1" stroke-width="8.25314" stroke-miterlimit="10" stroke-linecap="round" stroke-linejoin="round"/>
<path d="M774.686 525.397C761.973 521.837 735.964 528.309 720.145 538.086" stroke="#DCDBE1" stroke-width="8.25314" stroke-miterlimit="10" stroke-linecap="round" stroke-linejoin="round"/>
<path d="M372.656 925.31C364.494 943.386 352.058 959.177 333.032 965.677" stroke="#DCDBE1" stroke-width="8.25314" stroke-miterlimit="10" stroke-linecap="round" stroke-linejoin="round"/>
<path d="M377.586 243.03C381.415 251.845 388.063 259.829 401.568 265.201" stroke="#DCDBE1" stroke-width="2.96812" stroke-miterlimit="10" stroke-linecap="round" stroke-linejoin="round"/>
<path d="M691.074 260.423C687.661 265.914 679.884 274.076 667.211 276.332" stroke="#DCDBE1" stroke-width="2.96812" stroke-miterlimit="10" stroke-linecap="round" stroke-linejoin="round"/>
<path d="M657.805 119.051C664.81 122.554 681.164 113.738 677.543 102.727C677.187 101.658 673.951 105.754 665.789 105.635C657.716 105.517 652.967 102.103 652.789 101.539C652.284 100.026 655.579 99.8476 657.152 99.6695C678.552 97.295 689.653 71.5318 665.641 56.6318C664.928 56.1866 662.227 66.1298 656.054 70.5226C647.654 76.4588 635.277 77.1118 635.277 74.0547C653.382 62.0635 643.914 32.1152 618.418 27.574C617.973 27.4849 623.968 52.5952 595.296 57.8191" stroke="#DCDBE1" stroke-width="8.25314" stroke-miterlimit="10" stroke-linecap="round" stroke-linejoin="round"/>
<path d="M561.484 962.798C545.338 973.572 530.289 986.335 521.771 1003.4" stroke="#DCDBE1" stroke-width="8.25314" stroke-miterlimit="10" stroke-linecap="round" stroke-linejoin="round"/>
<path d="M335.643 964.519C311.512 974.166 288.064 992.331 276.518 1015.42" stroke="#DCDBE1" stroke-width="8.25314" stroke-miterlimit="10" stroke-linecap="round" stroke-linejoin="round"/>
<path d="M651.393 1009.34C636.582 997.079 569.977 972.355 545.134 976.659" stroke="#DCDBE1" stroke-width="8.25314" stroke-miterlimit="10" stroke-linecap="round" stroke-linejoin="round"/>
<path d="M417.148 1009.04C394.175 997.317 365.978 989.125 338.375 985.801C326.294 984.346 314.303 983.842 302.935 984.376" stroke="#DCDBE1" stroke-width="8.25314" stroke-miterlimit="10" stroke-linecap="round" stroke-linejoin="round"/>
</svg>
