<?xml version="1.0" encoding="utf-8"?>
<!-- Generator: Adobe Illustrator 26.0.3, SVG Export Plug-In . SVG Version: 6.00 Build 0)  -->
<!DOCTYPE svg PUBLIC "-//W3C//DTD SVG 1.1//EN" "http://www.w3.org/Graphics/SVG/1.1/DTD/svg11.dtd" [
	<!ENTITY ns_extend "http://ns.adobe.com/Extensibility/1.0/">
	<!ENTITY ns_ai "http://ns.adobe.com/AdobeIllustrator/10.0/">
	<!ENTITY ns_graphs "http://ns.adobe.com/Graphs/1.0/">
	<!ENTITY ns_vars "http://ns.adobe.com/Variables/1.0/">
	<!ENTITY ns_imrep "http://ns.adobe.com/ImageReplacement/1.0/">
	<!ENTITY ns_sfw "http://ns.adobe.com/SaveForWeb/1.0/">
	<!ENTITY ns_custom "http://ns.adobe.com/GenericCustomNamespace/1.0/">
	<!ENTITY ns_adobe_xpath "http://ns.adobe.com/XPath/1.0/">
]>
<svg version="1.1" id="Слой_1" xmlns:x="&ns_extend;" xmlns:i="&ns_ai;" xmlns:graph="&ns_graphs;"
	 xmlns="http://www.w3.org/2000/svg" xmlns:xlink="http://www.w3.org/1999/xlink" x="0px" y="0px" width="439.6px" height="432px"
	 viewBox="0 0 439.6 432" style="enable-background:new 0 0 439.6 432;" xml:space="preserve">
<style type="text/css">
	.st0{fill:#FFFFFF;}
	.st1{fill:#FFDB1F;}
	.st2{opacity:0.23;fill:#3F2719;}
	.st3{fill:none;stroke:#2D1F04;stroke-width:2.7806;stroke-linecap:round;stroke-linejoin:round;stroke-miterlimit:10;}
	.st4{fill:#CAA77A;}
	.st5{fill:#B6B1AE;}
	.st6{fill:#3F2719;}
	.st7{fill:none;stroke:#2D1F04;stroke-width:8.0658;stroke-linecap:round;stroke-linejoin:round;stroke-miterlimit:10;}
	.st8{fill:none;stroke:#9D7B51;stroke-width:4.1072;stroke-linecap:round;stroke-linejoin:round;stroke-miterlimit:10;}
	.st9{fill:#FFDBAF;}
	.st10{fill:#9D7B51;}
	.st11{fill:#FF0F0F;}
	.st12{fill:none;stroke:#2D1F04;stroke-width:3.2369;stroke-linecap:round;stroke-linejoin:round;stroke-miterlimit:10;}
	.st13{fill:#251707;}
	.st14{opacity:0.32;fill:#FFFFFF;}
	.st15{fill:#D3E5EA;}
	.st16{fill:#2D1F04;}
	.st17{fill:#866CC7;}
	.st18{opacity:0.54;fill:#FFFFFF;}
	.st19{fill:none;stroke:#2D1F04;stroke-width:2.5;stroke-linecap:round;stroke-linejoin:round;stroke-miterlimit:10;}
	.st20{fill:#D2D2D2;}
	.st21{opacity:0.57;fill:#FFFFFF;}
	.st22{fill:url(#SVGID_1_);}
	.st23{fill:url(#SVGID_00000168834893174645869320000015295720525650411163_);}
	.st24{fill:#6E6E6E;}
	.st25{display:none;}
	.st26{display:inline;fill:#FFFFFF;}
	.st27{display:inline;}
	.st28{fill:#B1361E;}
</style>
<metadata>
	<sfw  xmlns="&ns_sfw;">
		<slices></slices>
		<sliceSourceBounds  bottomLeftOrigin="true" height="444.1" width="439.6" x="796.3" y="90.1"></sliceSourceBounds>
	</sfw>
</metadata>
<g>
	<path class="st0" d="M439.5,207.7c-0.1-1.4-0.3-2.8-0.4-4.1c0-0.4-0.1-0.8-0.2-1.2c-0.1-1-0.2-2-0.4-2.9c0-0.2-0.1-0.4-0.1-0.6
		c0-0.2-0.1-0.4-0.1-0.6c-0.2-1-0.3-2-0.5-3c-0.1-0.3-0.1-0.6-0.2-0.9c-0.1-0.8-0.3-1.6-0.4-2.4c0.3-1.4,0.6-3.4,0-5.8
		c-1.7-7.5-4.8-14.4-7.7-21c-0.4-1-0.9-2-1.3-3c-0.1-1.3-0.3-3.2-1.2-5.2c-2-4.4-6.4-11.1-10.2-16.5c-0.4-0.5-0.8-1.1-1.1-1.6
		c-0.3-1.6-1.1-3.8-3-5.8c-9.8-10.5-23.5-16.5-37.5-16.5c-1.5,0-2.9,0.1-4.4,0.2c2.4-10.6,3.5-22.2,2.2-33.2
		c1.3-1.1,2.4-2.6,3.1-4.3c1.9-5.2-0.8-10.9-6-12.8c-0.5-0.2-1-0.4-1.6-0.6c-0.1-0.2-0.2-0.4-0.3-0.6c0,0,0,0,0,0
		c-0.4-5-3.6-10.1-6.3-13.5c-2.6-3.3-5.1-5.7-7.7-7.2c0.1-1.5-0.1-3-0.5-4.5c0.2-0.6,0.4-1.3,0.6-2c1.3-5.6-0.4-11.1-4.3-15.4
		c-1.3-1.5-2.9-2.8-4.7-3.9c-0.4-0.3-0.9-0.5-1.4-0.7c-1.2-0.6-2.5-0.9-3.8-0.9c-0.5-0.9-1.1-1.7-1.8-2.4c-2.2-2.7-5.2-4.7-8.6-6
		c-1.3-0.5-2.7-0.9-4.1-1.2c-0.6-0.1-1.2-0.2-1.8-0.2c-1.4,0-2.7,0.3-3.9,0.8c-0.4-0.4-0.7-0.8-1.1-1.1c0,0,0,0-0.1-0.1
		c-0.5-0.5-1-1-1.6-1.4c-2-1.5-4-2.7-6.1-3.5c-3.1-1.3-6.5-2-10.1-2c-6.7,0-11.9,2.3-12.9,2.8c-0.1,0-0.2,0.1-0.2,0.1
		c-3.1,1.6-5.2,4.6-5.5,8c0,0.2,0,0.5,0,0.7c-0.8,0.5-1.6,1-2.2,1.7c-0.7,0.7-2.1,2.4-2.6,4.8c-6,2.2-10.8,4.2-15.6,6.5
		c-0.2,0-0.4,0-0.7,0c-4.7,0-10,2.5-14.1,5.6c0,0,0,0,0,0c-0.1,0-0.1,0.1-0.1,0.1c-0.3,0.2-0.6,0.5-0.9,0.7
		c-0.2,0.2-0.4,0.4-0.7,0.6c-0.1,0.1-0.2,0.2-0.3,0.3c-0.2,0.2-0.5,0.4-0.7,0.7c0,0-0.1,0.1-0.1,0.1c-1.2,1.2-2.2,2.3-2.9,3.5
		c-21.5,6.3-42.5,21.1-56.1,40.5c-4.8,6.9-8.2,13-11.3,18.4c-6.6,11.8-11,19.5-25.6,29.9c-3.5,2.5-5,6.9-3.8,11.1
		c0.8,2.8,2.9,5,5.4,6.2c0,0,0,0.1,0,0.1c0,0.3,0.1,0.6,0.1,0.9c0,0,0,0,0,0c0.1,0.3,0.1,0.6,0.2,0.8c0,0.1,0.1,0.2,0.1,0.3
		c0.1,0.2,0.1,0.4,0.2,0.6c0,0.1,0.1,0.2,0.1,0.3c0.1,0.2,0.2,0.4,0.3,0.6c0,0.1,0.1,0.2,0.1,0.2c0.1,0.3,0.3,0.5,0.5,0.8
		c0.1,0.1,0.1,0.2,0.2,0.3c0.1,0.2,0.2,0.3,0.4,0.5c0.1,0.1,0.2,0.2,0.3,0.3c0.1,0.1,0.3,0.3,0.4,0.4c0.1,0.1,0.2,0.2,0.3,0.3
		c0.2,0.2,0.4,0.3,0.5,0.5c0.1,0,0.1,0.1,0.2,0.1c1.8,1.4,4,2.1,6.1,2.1c2,0,4-0.6,5.8-1.8c1.1-0.8,2.2-1.6,3.3-2.4
		c-0.2,0.5-0.5,0.9-0.7,1.4c-0.2,0.5-0.5,1-0.7,1.5c-0.9,1.7-1.9,3.7-2.7,5.8c0,0.1-0.1,0.2-0.1,0.3c-0.1,0.2-0.2,0.5-0.3,0.7
		c-0.1,0.2-0.2,0.5-0.3,0.7c-0.1,0.2-0.1,0.3-0.2,0.5c-0.1,0.3-0.2,0.6-0.3,1c0,0.1-0.1,0.2-0.1,0.3c-0.1,0.4-0.2,0.8-0.3,1.2
		c0,0,0,0,0,0c0,0,0,0,0,0c0,0,0,0,0,0.1c-0.3,1.1-0.4,2.1-0.4,2.9c0,0.1,0,0.1,0,0.2c0,0.1,0,0.2,0,0.3c0,0.1,0,0.3,0,0.4
		c0,0,0,0.1,0,0.1c0,0.6,0.1,1.1,0.1,1.5c-0.2,1.2-0.5,2.3-0.7,3.6c-0.8,3.8-1.7,8-2.2,12.3c-0.2,1.7-0.4,3.4-0.5,5.1
		c-0.1,2,0.3,3.7,0.8,4.9c-0.2,2.3-0.4,4.6-0.6,6.9c-0.5,4.3-0.9,8.7-0.8,13.2c0,2.3,0.8,4.2,1.4,5.5c0.2,7.1,0.6,12.8,0.7,16.1
		c0,0,0,0,0,0l0.1,1.6c0.5,8.3,3.5,13.9,7.5,17c2.5,1.9,5.3,2.9,8,3.1c1.9,4.3,4.1,8.1,6.5,11.4c0.1,0.2,0.3,0.4,0.4,0.6
		c0,0,0,0,0,0c0.6,0.8,1.5,2,3.2,3.5C136.4,294,60,326.8,8.8,337.2c-0.1,0-0.1,0-0.2,0.1c-0.1,0-0.1,0-0.2,0c-0.1,0-0.2,0.1-0.4,0.1
		c-0.1,0-0.2,0-0.3,0.1c0,0,0,0,0,0c0,0-0.1,0-0.1,0c-0.2,0.1-0.4,0.1-0.6,0.2c-0.1,0-0.3,0.1-0.4,0.2c-0.2,0.1-0.4,0.2-0.5,0.2
		c-0.1,0.1-0.3,0.1-0.4,0.2c-0.2,0.1-0.3,0.2-0.5,0.3c-0.1,0.1-0.3,0.2-0.4,0.2c-0.1,0.1-0.3,0.2-0.4,0.3c-0.1,0.1-0.3,0.2-0.4,0.3
		c-0.1,0.1-0.2,0.2-0.3,0.2c-0.2,0.1-0.3,0.3-0.5,0.4c-0.1,0.1-0.2,0.1-0.2,0.2c-0.2,0.2-0.3,0.3-0.5,0.5c-0.1,0.1-0.1,0.1-0.2,0.2
		c-0.1,0.2-0.3,0.4-0.4,0.5c0,0.1-0.1,0.1-0.1,0.2c-0.1,0.2-0.3,0.4-0.4,0.6c0,0.1-0.1,0.1-0.1,0.2c-0.1,0.2-0.2,0.4-0.3,0.6
		c0,0.1-0.1,0.2-0.1,0.3c-0.1,0.2-0.2,0.4-0.3,0.6c0,0.1-0.1,0.2-0.1,0.3c-0.1,0.2-0.1,0.4-0.2,0.5c0,0.2-0.1,0.3-0.1,0.5
		c0,0.2-0.1,0.3-0.1,0.5c0,0.2-0.1,0.4-0.1,0.6c0,0.1,0,0.2,0,0.4c0,0.1,0,0.2,0,0.3c0,0.1,0,0.1,0,0.2c0,0.1,0,0.2,0,0.3
		c0,0.1,0,0.2,0,0.3c0,0.1,0,0.2,0,0.3c0,0.1,0,0.2,0,0.3c0,0.1,0,0.2,0,0.3c0,0.1,0,0.1,0,0.2c0,0,0,0,0,0c0,0,0,0.1,0,0.1
		c0,0.1,0,0.1,0,0.2c0,0,0,0.1,0,0.1c0,0.1,0,0.1,0,0.2c0.3,3.1,1.9,6.2,4.6,9.3c1.9,2.2,4.7,3.4,7.5,3.4c0.4,0,0.9,0,1.3-0.1
		c0.1,0,0.1,0.1,0.2,0.1c0.2,0.1,0.3,0.1,0.5,0.2c0.3,0.1,0.6,0.3,0.9,0.4c2.2,0.9,4.2,1.5,6,1.8c0.2,0,0.3,0.1,0.5,0.1
		c0.3,0,0.5,0.1,0.8,0.1c0.4,0.1,0.7,0.1,1,0.1c0.1,0,0.2,0,0.2,0c0.4,0,0.8,0.1,1.2,0.1c0.4,0,0.8,0,1.1,0c0.9-0.1,1.9-0.2,2.8-0.3
		c0.1,0,0.2,0,0.3,0c0.1,0,0.2,0,0.2,0c0.5,0,1-0.1,1.5-0.2c0.5-0.1,1.1-0.1,1.6-0.2c0.1,0,0.2,0,0.2,0c0.5-0.1,1-0.1,1.6-0.2
		c0.6-0.1,1.3-0.2,1.9-0.3c0.5-0.1,1-0.2,1.5-0.2c0.7-0.1,1.4-0.2,2.2-0.3c0.5-0.1,0.9-0.2,1.4-0.2c0.8-0.1,1.7-0.3,2.6-0.5
		c0.3-0.1,0.7-0.1,1-0.2c1.1-0.2,2.3-0.4,3.4-0.7c0.1,0,0.2,0,0.2,0c33.2-6.8,74.6-22.1,111.8-37.7c0.8-0.3,1.6-0.7,2.4-1
		c0.4-0.2,0.9-0.4,1.3-0.5c16.8-7.1,32.6-14.2,46.2-20.5c-1.5,2.2-3.1,5-4.4,8.3c-0.8,2.1-0.7,4-0.6,5.4c-0.6,1.9-1.1,3.9-1.6,6
		c-0.4,1.6-0.6,3.1-0.6,4.7c-0.1,4.9,1.5,9.7,4.6,13.5c-0.2,1.6-0.5,3.2-0.7,4.9c-0.3,2.2-1.8,6.5-3.3,10.7
		c-2.8,7.6-5.9,16.2-6,24.3c0,2.2,0,4.2,0.1,6.1c0,0.1,0,0.1,0,0.2c0,0.1,0,0.3,0,0.4c0,0.3,0,0.7,0.1,1c0,0,0,0,0,0
		c0.1,0.8,0.1,1.6,0.2,2.3c0.3,3.4,0.8,6.5,1.5,10c0.8,6.2,2.2,13.6,4.8,24.4c0.5,2.5,1.9,4.6,3.9,6.1c0,0,0,0,0,0
		c0.3,0.2,0.5,0.4,0.8,0.5c0.2,0.1,0.4,0.3,0.7,0.4c0,0,0.1,0,0.1,0c0.7,0.4,1.5,0.7,2.3,0.9c0.7,0.2,1.5,0.2,2.2,0.2
		c3.1,0,6.2-1.5,8.1-4.1c1.4-1.9,2.8-3.8,4.3-5.8c0,0,0,0,0,0c1-1.3,1.9-2.4,2.8-3.5c6.3-7.6,12.5-14,18.9-19.5
		c0.1-0.1,0.1-0.1,0.2-0.2c0,0,0,0,0,0l0.4-0.4c3.9-3.1,6.7-5.8,10.5-13.3c1.4-2.7,2.5-5.4,3.3-8.1c0,0,0-0.1,0-0.1
		c0.2-0.5,0.3-1,0.5-1.6c0.1-0.4,0.2-0.9,0.4-1.3c0-0.1,0.1-0.3,0.1-0.4c0.2-0.7,0.3-1.4,0.5-2.1c0,0,0,0,0-0.1
		c0.1-0.5,0.2-1,0.3-1.6c0.2-1,0.4-1.9,0.6-2.9c0.8-3.7,1.5-7.2,2.6-10.1c1,0.6,2,1.1,3,1.5c0.2,0.1,0.3,0.1,0.5,0.2
		c0.3,0.1,0.7,0.3,1.1,0.4c0.4,0.1,0.7,0.2,1.1,0.3c0.2,0,0.4,0.1,0.6,0.1c0.6,0.1,1.2,0.2,1.8,0.2c3.4,0.3,7.5,0.4,12.1,0.4
		c10.4,0,21.7-0.8,29.9-1.6c2,2.1,4.7,3.3,7.5,3.7c-0.4,2.2-0.2,4.6,0.6,6.8c0.4,1.2,1.1,2.4,1.8,3.5c0.1,0.1,0.2,0.2,0.2,0.4
		c0.2,0.2,0.3,0.4,0.5,0.6c0.2,0.3,0.4,0.5,0.6,0.8c0.1,0.1,0.2,0.2,0.2,0.3c3.7,4.2,9.7,7.8,17.2,11.5c0.2,0.1,0.5,0.3,0.7,0.4
		c1.7,0.8,3.4,1.6,5.2,2.4c15.3,6.9,29,14,31.2,15.5c1.8,1.4,3.6,2.3,5.5,2.8c0.4,0.1,0.7,0.2,1.1,0.3c0.7,0.1,1.5,0.2,2.2,0.2
		c0.5,0,0.9,0,1.4-0.1c0.2,0,0.4-0.1,0.6-0.1c0.2,0,0.5-0.1,0.7-0.1c0.3-0.1,0.5-0.1,0.8-0.2c0.1,0,0.3-0.1,0.4-0.1
		c0.3-0.1,0.6-0.2,0.8-0.3c0.1-0.1,0.3-0.1,0.4-0.2c0.3-0.1,0.5-0.3,0.8-0.4c0.1-0.1,0.3-0.2,0.4-0.2c0.2-0.1,0.4-0.3,0.6-0.4
		c0.2-0.1,0.3-0.2,0.5-0.4c0.2-0.1,0.3-0.3,0.5-0.4c0.2-0.2,0.4-0.4,0.5-0.5c0.1-0.1,0.2-0.3,0.3-0.4c0.1-0.1,0.2-0.2,0.3-0.3
		c0.1-0.1,0.2-0.2,0.2-0.4c0.1-0.1,0.2-0.2,0.2-0.3c0.1-0.1,0.2-0.3,0.3-0.5c2.1-3.4,2.6-7.8,1.5-13.2c-0.7-3-1.7-6.1-3.3-9.2
		c-0.1-0.1-0.1-0.2-0.2-0.3c-0.2-0.4-0.4-0.8-0.6-1.3c-0.2-0.3-0.3-0.6-0.5-0.9c-0.1-0.2-0.3-0.4-0.4-0.7c-0.3-0.4-0.5-0.9-0.8-1.3
		c0,0,0-0.1-0.1-0.1c-3.3-5.5-8-11.2-14.1-17.4c1.1-4.3,1.3-9.2,1.1-13.5c-0.1-3.2-0.4-6.5-1-9.8c0.1-0.2,0.3-0.4,0.4-0.6
		c0.1-0.2,0.3-0.4,0.4-0.6c0.2-0.2,0.3-0.5,0.5-0.8c0.1-0.2,0.3-0.4,0.4-0.6c0.2-0.3,0.3-0.5,0.4-0.8c0.1-0.2,0.2-0.4,0.3-0.6
		c0.1-0.3,0.2-0.6,0.4-0.8c0.1-0.2,0.2-0.4,0.3-0.7c0.1-0.3,0.2-0.6,0.3-0.8c0.1-0.2,0.2-0.5,0.2-0.7c0.1-0.3,0.1-0.6,0.2-0.9
		c0.1-0.2,0.1-0.5,0.2-0.7c0.1-0.3,0.1-0.6,0.1-0.9c0-0.3,0.1-0.5,0.1-0.8c0-0.3,0.1-0.6,0.1-0.9c0-0.3,0.1-0.5,0.1-0.8
		c0-0.1,0-0.2,0-0.3c0.1-1.6,0-3.2-0.3-4.9c0.5-1.7,0.5-3.5,0.1-5.2c-0.8-3.2-2.2-5.9-3.4-8c0.3-0.4,0.6-0.9,0.9-1.4
		c0.7-1.3,1.2-2.7,1.5-4.1c0.4-2,0.3-4-0.3-6c0.1-0.5,0.1-1,0.1-1.5c0-0.1,0-0.2,0-0.3c0-0.3,0-0.6,0-1c0-0.1,0-0.3,0-0.4
		c0-0.3-0.1-0.5-0.1-0.8c0-0.2,0-0.3-0.1-0.5c0-0.2-0.1-0.5-0.2-0.7c0-0.2-0.1-0.4-0.1-0.5c-0.1-0.2-0.1-0.4-0.2-0.7
		c-0.1-0.2-0.1-0.4-0.2-0.5c-0.1-0.2-0.2-0.5-0.3-0.7c-0.1-0.2-0.1-0.3-0.2-0.5c-0.2-0.4-0.4-0.7-0.6-1c0,0,0-0.1,0-0.1c0,0,0,0,0,0
		c-0.3-0.4-0.6-0.9-0.9-1.3c-0.1-0.1-0.2-0.3-0.3-0.4c-0.2-0.3-0.5-0.5-0.7-0.8c-0.1-0.1-0.3-0.3-0.4-0.4c-0.2-0.2-0.4-0.3-0.6-0.5
		c0.1-0.6,0.1-1.2,0.2-1.8c0,0,0,0,0-0.1c1.2-10.6,1.3-21.1,1.4-30.7c0-0.2,0-0.4,0-0.6c0,0,0,0,0,0c0,0,0-0.1,0-0.1
		c3.7-0.3,6.8-0.7,9.1-1.2c16.7-3.2,26.8-9.1,32-19.4c0.1,0,0.2,0,0.3,0c3.7-0.4,7.2-2.2,9.9-5.1c2.5-2.8,4.1-6.3,4.6-10
		C439.6,210.1,439.6,208.9,439.5,207.7z"/>
	<g>
		<g>
			<path class="st1" d="M193.3,128.7l4.8-7.9l4.8,3.6c-0.8-9.7,1.5-14.2,7.9-28.2c8.5-18.7,30.6-39.9,55.1-42.3l-1-9.9
				c-28.5,2.9-53.3,26.4-63.2,48.2C195.6,105.4,192.3,115.7,193.3,128.7z"/>
			<path class="st2" d="M193.3,128.7l4.8-7.9l4.4,2.3c-0.8-9.7,1.9-12.9,8.3-27c8.5-18.7,30.6-39.9,55.1-42.3l-1-10
				c-0.9,0.1-1.7,0.2-2.6,0.3l0.6,5.9C238.5,52.6,217,74,207.5,92.2c-5.1,9.7-7.9,18.6-7.9,27.2l-4.4-2.3l-1.9,3.1
				C193.1,122.9,193.1,125.7,193.3,128.7z"/>
			<path class="st3" d="M193.3,128.7l4.8-7.9l4.4,2.3c-0.8-9.7,1.9-12.9,8.3-27c8.5-18.7,30.6-39.9,55.1-42.3l-1-9.9
				c-28.5,2.9-53.3,26.4-63.2,48.2C195.6,105.4,192.3,115.7,193.3,128.7z"/>
			<path class="st1" d="M160.7,141.4c18.3-13,24.4-23.9,31.5-36.5c2.9-5.2,6-10.7,10.2-16.7c14.2-20.3,39.1-34.8,60.6-35.3l-0.2-10
				c-24.8,0.5-52.4,16.4-68.6,39.5c-4.5,6.5-7.8,12.3-10.7,17.5c-6.8,12-12.1,21.5-28.6,33.2l8.8,0.2L160.7,141.4z"/>
			<path class="st2" d="M163.7,133.5l-3,7.9c18.3-13,24.4-23.9,31.5-36.4c2.9-5.2,6-10.7,10.2-16.7c14.2-20.3,39.1-34.8,60.6-35.2
				l-0.2-10c-1,0-1.9,0.1-2.9,0.1l0.1,6.2c-21.4,0.4-46.4,14.9-60.6,35.2c-4.2,6.1-7.3,11.5-10.2,16.7
				c-6.3,11.2-11.8,21.1-25.9,32.3L163.7,133.5z"/>
			<path class="st3" d="M160.7,141.4c18.3-13,24.4-23.9,31.5-36.5c2.9-5.2,6-10.7,10.2-16.7c14.2-20.3,39.1-34.8,60.6-35.3l-0.2-10
				c-24.8,0.5-52.4,16.4-68.6,39.5c-4.5,6.5-7.8,12.3-10.7,17.5c-6.8,12-12.1,21.5-28.6,33.2l8.8,0.2L160.7,141.4z"/>
		</g>
		<path class="st4" d="M390.8,396.6c-2.4-1.9-18.4-10-33.2-16.7c-1.7-0.8-3.3-1.5-5-2.3c-9.8-4.7-18.5-10-16.2-14.5
			c2.8-5.7,0.9-26.2-16.7-36.2c-9.8,0-20-1.2-29.2-3.2c-15.2,7-21.6,13.4-28.8,25c-5.9,9.5-5,22.4-10.4,32.2
			c-1.6,2.9-5,7.6-8.5,10.5c-9.1,7.6-16.2,14.9-27.8,30.7c-4.3-22-6-27-6.5-36.9c-0.1-1.8,0-3.7,0-5.5c0.2-10.9,8.3-25.8,9.3-33.9
			c3.4-26.8,8.9-39.4,10.1-47.6c0.1-0.8,0.2-1.7,0.2-2.6c0.2-5.1-1.2-11.2-3.5-17c-0.6-1.5-1.2-2.9-1.9-4.3
			c-7.4-15.6-12.6-28.7-14-40.5c-2.3-18-1.6-18.8-0.9-26.4c0.5-5.4,1.1-55.6,1.9-67.3c3.8-53.5,19.5-87,53.6-104.4
			c7.1-3.6,11.2-5.3,18.9-8c1.4-0.5,4.4-1.3,5.5-2.8c1.2-1.7,0.4-4.2,0.4-4.2c6.4,1.1,3.6,6.9,3.6,6.9s1.3-0.1,1.9-0.2
			c2.7-0.6,5.5-2.9,5.3-7c-0.3-5.4-6.1-7.6-5.2-8c0.2-0.1,10.4-4.8,18.3,1.4c4.1,3.2,6,8.6,5,14.3c9.7-1.8,8.1-10.2,8.2-10.2
			c8.6,1.5,11.8,11.6,5.7,15.7c0,1,4.2,0.8,7-1.2c2.1-1.5,3-4.8,3.2-4.7c8.1,5,4.3,13.7-2.9,14.5c-0.5,0.1-1.6,0.1-1.5,0.6
			c0.1,0.2,1.7,1.3,4.4,1.4c2.8,0,3.8-1.3,4-1c1.2,3.5-4.2,6.5-6.8,5.7c37.5,14.9,26.4,66.7,16.8,85.8c-1,2-2.4,4.3-2.7,6.5
			c-0.2,1.1,0.5,3,0,4c-0.2,0.4-1.2-1.1-1.3-0.6c-0.3,2.1,0,4.5,0.2,6.5c0.1,0.8,1,2.9,0.4,2.3c-0.2-0.2-0.7-1.9-1.5-1.7
			c-0.4,0.2,0.9,11.7,4,18.9c0,0,0,0,0,0h0c0,0,0,0,0,0c-0.3-2.4,6,4.4,11.8,17.8c9,20.8,9.6,34.3,8.8,45.6
			c-1,22.3,1,58.2-11.3,75.7c13.1,14.8,15.1,45.6,9.3,50.9c2.4,2.3,4.9,4.7,7.2,7.2c7.1,7.6,13.1,15.9,14.9,23.9
			C396.1,397.3,394.1,399.2,390.8,396.6z"/>
		<g>
			<path class="st5" d="M390.6,396.5c-2.4-1.9-18.4-10-33.2-16.7c-1.7-0.8-3.3-1.5-5-2.3c6.3-5.7,18.3-10.2,27.3-10.2h0
				c0.5,0.5,1,1.1,1.5,1.7c0.4,0.4,0.8,0.8,1.1,1.3c1.4,1.6,2.8,3.3,4,4.9c0.5,0.7,1,1.3,1.4,2c3.3,4.6,5.7,9.4,6.7,14
				C395.9,397.2,393.9,399.1,390.6,396.5z"/>
			<path class="st5" d="M242.9,391.3c-8,6.8-17,15.9-28,30.6c0,0,0-0.1,0-0.1c-4.7-19.5-5.3-27.3-5.9-36.9c0,0,0-0.1,0-0.1
				C222.5,380.6,233.4,382.9,242.9,391.3z"/>
		</g>
		<path class="st3" d="M379.9,367.3c-9,0-21,4.5-27.3,10.2"/>
		<path class="st3" d="M393.6,397.1c-2.4-6-18.3-24-26.3-26.6"/>
		<path class="st6" d="M210.4,209"/>
		<path class="st3" d="M210.4,209"/>
		<path class="st3" d="M336.9,47.6c37.6,14,29.5,64,18.2,86.6c-1,2-2.4,4.3-2.7,6.5c-0.2,1.1,0.5,3,0,4c-0.2,0.4-1.2-1.1-1.3-0.6
			c-0.3,2.1,0,4.5,0.2,6.5c0.1,0.8,1,2.9,0.4,2.3c-0.2-0.2-0.7-1.9-1.5-1.7c-0.4,0.1,0,11.3,0.2,12.4"/>
		<path class="st7" d="M294.3,52.2"/>
		<g>
			<line class="st8" x1="334.4" y1="154.1" x2="334.4" y2="160"/>
			<line class="st8" x1="328" y1="157.1" x2="328" y2="163"/>
		</g>
		<path class="st2" d="M341.2,49.8c-1.1-0.5-2.2-0.9-3.4-1.3c0.2,0,0.4,0.1,0.6,0.1c0.1,0,0.1,0,0.2,0c2.7,0,6.8-2.7,6.1-5.7
			c0-0.1,0-0.2-0.1-0.3c-0.1-0.4-1.2,1-4,1c-1.6,0-2.9-0.5-3.6-0.8c0,0,0,0,0,0c-0.5-0.2-0.7-0.4-0.7-0.5c-0.2-0.5,0.9-0.6,1.5-0.6
			c7.1-0.8,10.8-9.2,3.2-14.3c-0.1-0.1-0.2-0.2-0.4-0.2c-0.2-0.2-1.1,3.2-3.2,4.7c-2.2,1.6-5.3,2-6.5,1.7c-0.3-0.1-0.5-0.3-0.5-0.5
			c5.1-3.4,3.7-10.9-1.8-14.2c-0.1,0-0.1-0.1-0.2-0.1c-1.1-0.6-2.3-1.1-3.7-1.3c-0.1,0,1.3,8-7.7,10c-0.2,0-0.4,0.1-0.6,0.1
			c1.5-6.2-0.6-10.8-4.9-14.2c-0.6-0.4-1.1-0.8-1.7-1.1c-0.1-0.1-0.2-0.1-0.3-0.2c-7.5-4.2-16.1-0.2-16.3-0.1
			c-0.9,0.4,4.9,2.6,5.2,8c0.2,4.1-2.6,6.4-5.3,7c-0.4,0.1-0.9,0.1-1.4,0.2c-0.3,0-0.5,0-0.5,0s2-4-1.1-6c0,0,0,0,0,0
			c-0.6-0.3-1.2-0.5-2.1-0.6c-0.1,0,0.7,2.5-0.4,4.2c-1.1,1.6-4.1,2.3-5.5,2.8c-7.6,2.8-11.8,4.4-18.9,8
			c-32.4,16.6-48.2,47.7-52.9,96.8c3.1,0.1,6.3,0.5,9.6,0.9c2.4,0.3,4.1,1.7,5,3.6c1.3,0.3,2.6,0.6,3.8,1
			c-1.2-21.7-0.7-45.2,5.4-57.5c12-24.3,27.1-34,55.8-37.4c5.8-0.7,8.2-0.5,10.4-1.5c1.1-0.5,3.2-3.1,5.3-1.9
			c-1.1,1.1-1.3,2.5,1.5,3.2c2.6,0.6,8.6-2.3,6-6.1c5.5,1.5,4.2,5.7,3,7c4.6,1.1,8.6,0.3,8.2-1.9c2,0.5,3,3.5,1.8,4.5
			c5.4,1.8,11.9,4.3,17.5,7c1.1-0.1,2.2-0.2,3.1-0.3c0.1,0,0.2,0,0.3,0C345.3,51.8,343.3,50.7,341.2,49.8z"/>
		<path class="st3" d="M338.3,48.2c2.4,1.2,7.9-1.8,6.7-5.5c-0.1-0.4-1.2,1-4,1c-2.7,0-4.3-1.2-4.4-1.4c-0.2-0.5,0.9-0.6,1.5-0.6
			c7.2-0.8,10.9-9.5,2.9-14.5c-0.2-0.1-1.1,3.2-3.2,4.7c-2.8,2-7,2.2-7,1.2c6.1-4,2.9-14.1-5.7-15.7c-0.2,0,1.5,8.5-8.2,10.2"/>
		<path class="st9" d="M355.5,88.1c-2.1-8.6-6.1-16.1-13.1-19.8c-9.4-5-15.4-4-24-5.9c-3.6-0.8-6.4-2.2-7-5.8
			c-0.3-1.6,0.3-3.3,1.9-5.6c-3.2,0-6.7,1.3-9.3,3.4c-5.3,4.3-12.1,5.2-18.3,5c-21.9-0.7-35.8,1.9-46.4,21.1
			c-2.4,4.3-6,14.2-3.6,25.2c3.6,16.1,5.5,22.8,22.9,34.8c20.7,14.3,63.6,21.4,85-5.6C353.7,122.2,359.5,104.3,355.5,88.1z"/>
		<path class="st10" d="M315.5,95.5c7.2-3.6,13.1,14.6,12.5,19.9c-2,18-28.3,17-40.4,10.9c-17.6-8.8,3.9-37.1,16.5-32.1"/>
		<path class="st10" d="M355.5,88.2c3.3,13.4-0.5,28.5-3.5,30.7c-2.3,1.7-14.5-5.6-22.6-17.8c-8.6-12.7-9.5-18.5-7.2-20.7
			c10.6-1.6,19.1-6.3,23.4-10.1C348.8,71.1,353.2,79,355.5,88.2z"/>
		<path class="st11" d="M374.6,234c-0.8,17.6,0.3,43.5-5.2,62.3c-51.1,22.1-111,12-141.5,0.2c0-0.2,0-0.4,0-0.7
			c0.1-5.1-1.2-11.2-3.5-17c-0.6-1.5-1.2-2.9-1.9-4.4c-7.4-15.6-12.6-28.7-14-40.5c-2.3-18-1.6-18.8-0.9-26.4c0.5-5.3,1-53,1.8-66.3
			l39.6,20.8c13.7,6.9,69.3,29.6,91,0.3c2.4-3.3,6.3-8.2,10.8-13.9c0.1,0.9,0.2,1.8,0.2,2.6c0.1,0.8,1,2.9,0.4,2.3
			c-0.2-0.2-0.7-1.9-1.5-1.7c-0.5,0.1,0.9,11.7,4,18.9c0,0,0,0,0,0h0c0,0,0,0,0,0c-0.3-2.4,6,4.4,11.8,17.8
			C374.9,209.3,375.5,222.8,374.6,234z"/>
		<path class="st1" d="M374.6,234.2c-0.8,17.6,0.3,43.5-5.2,62.3c-51.2,22.1-111,12-141.5,0.2c0-0.2,0-0.4,0-0.7
			c0.2-5.1-1.2-11.1-3.5-17c-0.6-1.5-1.2-2.9-1.9-4.4c-7.4-15.6-12.6-28.7-14-40.5c-2.3-18-1.6-18.8-0.9-26.4c0.1-1,0.2-3.5,0.3-7
			c7.6,0.3,15-0.2,19.2-0.9c7.1-1.3,17.1-6.6,17.3-12.4c0.2-5.7,3.4-11.2,9-11.8c7.1-0.8,10.6,2.3,12.5,10.9
			c1.3,5.7,18.8,9.2,40.4,9.2c22.3,0,36.7-1.5,36-6.7c-0.7-5.3-1.5-8.5,0.2-12.8c1.3-3.4,9.5-6.2,17.7,1.7l0,0
			c1.7,2.8,3.6,6.4,5.4,10.7C374.8,209.4,375.4,222.9,374.6,234.2z"/>
		<path class="st10" d="M287.5,77.7c1.1,32.6-41.8,52.1-46.8,44.8c-3.2-4.7-9.7-24.1-2.6-39.6c3.7-8,11.5-17.2,15.4-17.3
			c6.9-0.1,13.6,6.2,20.7,8.8C280.8,76.9,287.1,75.1,287.5,77.7z"/>
		<path class="st12" d="M307.7,96.8c1.3,4.8,1.6,16-0.3,19.4c-5.1,0-11.8,0.2-12.1-5.7"/>
		<path class="st13" d="M319.8,95.5c0.1-2.7-5.2-5.2-11.9-5.5c-6.7-0.3-12.3,1.6-12.4,4.3c-0.1,2.7,5.2,5.2,11.9,5.5
			C314.1,100.2,319.7,98.2,319.8,95.5z"/>
		<path class="st12" d="M307.3,116.1c3,0.5,4.6,0.5,6.5,0.3"/>
		<path class="st3" d="M363.5,309.3c13.2-21.4,10.3-53.3,11.3-75.7c0.5-13.7,0.3-24.8-8.8-45.6c-5.9-13.5-12.2-20.4-11.8-17.7"/>
		<path class="st3" d="M363.5,309.3"/>
		<g>
			<path class="st2" d="M374.8,232.2c-16.7,4-55.1-1.3-55.7-1.1s-6.2,1.4-20.3,5.3c-14.1,3.9-30.6,7.6-39.2,7.8
				c-3.2,0-7.3-2.8-11.8-7.8c-4.6-5.1-8.6-11.3-12.4-18.1c8.1,11.9,17.9,17.1,20.7,17.8c3.5,0.9,4.6,0.9,9.5,0.5
				c15.8-1.4,48.8-11.5,52.4-12.1c2.5-0.4,47,6,57.1-1.6"/>
			<path class="st2" d="M373.1,278c-0.4,5.4-2.8,16.3-3.7,18.3c-23.8,10.9-62.1,16.8-99.9,10.8c-13.2-2.1-28.8-5.5-41.6-10.6
				c0.2-5.1-0.9-12.1-3.2-18c2.7-1.5,5.1-2.5,7.4-3.3c3.5-1.2,18.4-15.7,21.7-18.7c9.9-9.2,36.6-10,47.3-10
				c-15.7,3.7-35.9,7.7-40.1,14.9c-3.4,5.9-5,14.3-4.7,21.3c0.3,9.5,2.6,11.9,17.8,13.4c5.6,0.6,17.3,0.5,22.5,0.3
				c10.2-0.5,19.2-1.5,19.1-11.7c0.3-9.2,8.1-13.6,6.5-26c3.1,10.9-0.9,17-2.1,22.9c-0.8,4.2,0.7,7.8,1.8,9.5
				c2.1,3.4,25.3,1.2,35.3-1.7C365.3,287,370.3,283.5,373.1,278z"/>
			<path class="st14" d="M329.7,256.3c0.6-4.6,3.6-8.1,10.2-8.2c3.9-0.1,20.2-0.7,23.9,1.2c2.6,1.3,4.4,3.5,4.7,7.1
				c0.4,5,0.1,14-5.1,13.6c-13.9-0.9-29.7-1.5-31.9-5.2C329.2,261.2,329.4,258.1,329.7,256.3z"/>
			<path class="st14" d="M362.3,273.3c-3.9-0.7-21.2-1.5-24.4-1.8c-3.2-0.3-7.2,0.5-8.2,3.5s-1.2,8.2-1,10.5
				c0.2,2.2,4.5,3.5,9.5,2.9c5-0.7,21.6-2.6,24.2-3.9c2.6-1.3,3.9-2.2,5.1-6.1C368.2,275.8,367.1,274.1,362.3,273.3z"/>
			<path class="st14" d="M314.5,258c0.1,5.8-0.2,12.4-8.7,13.6c-8.5,1.3-28.5,2.4-35.9,2.3c-7.4-0.1-8.6-3.6-8.7-7.7
				c-0.1-4,2.9-8.8,12.3-11.7c9.6-3,22-3.3,28.6-3.6c3.1-0.2,6.6-0.1,8.8,1C313.5,253.2,314.4,255.7,314.5,258z"/>
			<path class="st14" d="M306.1,275.5c-6-0.4-26.4-0.1-32.5,1.1c-6,1.2-10.5,2.4-10.5,7.8c0,4.1,0.6,6.6,7,7.3
				c6.5,0.8,28.9,1.7,34.1,0.3c5.2-1.5,6.6-3.9,6.9-8.8C311.5,278.3,311.1,275.8,306.1,275.5z"/>
			<path class="st14" d="M348.2,193.2c-18.6,2.7-23.1,4-24.7,10c-0.9,3.3-1,8-0.6,11.8c0.5,3.9,10.8,6.6,25.6,6.8
				c13.1,0.2,18-1,18.8-5.8c1-5.8-0.3-11.2-2.7-16.8C361,191.1,353.7,192.4,348.2,193.2z"/>
			<path class="st14" d="M309.1,206.8c-0.3-4-2.6-6.3-8.9-7c-6.3-0.8-31.5-1.7-40.2-1.5c-8.7,0.2-14.5,1.6-15.4,8.8
				s2.9,18.7,4.8,21.3c1.9,2.6,15.4,4,32-0.4s27.7-7.5,27.9-12.9C309.4,212.8,309.2,208.9,309.1,206.8z"/>
		</g>
		<path class="st3" d="M207.8,207.2c-0.7,7.5,0.3,17.8,0.9,26.4c0.9,11.9,6.6,24.9,14,40.5c3.9,8.1,6.1,17.3,5.1,24
			c-1.2,8.2-6.8,20.8-10.1,47.6c-1,8.1-9.1,23-9.3,33.9c-0.2,12,1.5,16.5,6.5,42.4c12.4-17.3,20.8-24.8,27.9-30.7
			c3.3-2.7,5.4-4.1,9-11.6c5.4-11.1,3.8-21.8,9.8-31.3c7.2-11.4,13.9-17.5,28.8-25c6.9,1.9,18.1,3.2,29.2,3.3
			c17.8,9.7,19.5,30.4,16.7,36.2c-2.7,5.4,9.7,11.7,21.2,16.9c14.8,6.6,30.8,14.8,33.2,16.7c3.3,2.6,5.3,0.7,4-5.3
			c-2.3-10.6-12.1-21.7-22-31c7.2-14.7,1-36.7-9.2-50.8"/>
		<path class="st3" d="M316.7,28.7c1.5-6.2-0.5-11.9-4.8-15.3c-7.9-6.2-18.1-1.5-18.3-1.4c-0.9,0.4,5,2.6,5.2,8
			c0.2,4.1-2.6,6.4-5.3,7c-0.6,0.1-1.9,0.2-1.9,0.2s2.9-5.8-3.6-6.9c-0.1,0,0.7,2.5-0.4,4.2c-1.1,1.6-4.1,2.3-5.5,2.8
			c-7.6,2.8-13.5,5.3-20.5,9c-29,15.4-47.9,42.3-51.3,100.8"/>
		<path class="st3" d="M225.2,390.3"/>
		<path class="st3" d="M205.3,369.1"/>
		<path class="st3" d="M209,384.8c13.6-4.2,23.3-3,32.9,5.4"/>
		<path class="st3" d="M215,421.9c4.8-21.7,7.2-29.1,11.7-38.9"/>
		<g>
			<g>
				<path class="st0" d="M250.6,81.6c1.5,10.1,26.6,11.7,26.5-1.6c0-5.3-6.1-7.5-15-7.8C253.1,72,249.7,75.8,250.6,81.6z"/>
				<path class="st0" d="M328.9,87.1c1.4,10.1,23.8,12,23.5-1.2c-0.1-5.3-5.5-7.6-13.4-8C331,77.5,328.1,81.3,328.9,87.1z"/>
			</g>
			<g>
				<path class="st15" d="M250.5,79.6c3.2-3.9,8.7-4.4,15.5-3.2c5.9,1.1,9.3,2.9,11,5.1c0.1-0.5,0.1-1,0.1-1.5c0-5.3-6.1-7.5-15-7.8
					C254.2,72,250.6,74.9,250.5,79.6z"/>
				<path class="st15" d="M328.8,86c2.5-4.8,7.3-5.4,13.3-4.2c6.3,1.3,9.2,3.9,9.9,7.1c0.3-0.9,0.4-1.9,0.4-3.1
					c-0.1-5.3-5.5-7.6-13.4-8C331.6,77.5,328.5,80.8,328.8,86z"/>
			</g>
			<g>
				<path class="st12" d="M250.6,81.6c1.5,10.1,26.6,11.7,26.5-1.6c0-5.3-6.1-7.5-15-7.8C253.1,72,249.7,75.8,250.6,81.6z"/>
				<path class="st12" d="M328.9,87.1c1.4,10.1,23.8,12,23.5-1.2c-0.1-5.3-5.5-7.6-13.4-8C331,77.5,328.1,81.3,328.9,87.1z"/>
			</g>
			<g>
				<path class="st16" d="M267.8,80.5c0.1-2.2-1.7-4.1-3.9-4.1c-2.2-0.1-4.1,1.7-4.1,3.9c-0.1,2.2,1.7,4.1,3.9,4.1
					C265.9,84.5,267.7,82.8,267.8,80.5z"/>
				<path class="st16" d="M343.8,86.5c0.1-2.2-1.7-4.1-3.9-4.1c-2.2-0.1-4.1,1.7-4.1,3.9c-0.1,2.2,1.7,4.1,3.9,4.1
					C341.8,90.5,343.7,88.7,343.8,86.5z"/>
			</g>
		</g>
		<path class="st7" d="M293.4,78.8c0,0-7.6-1.2-16.1-3.4c-10.5-2.8-16.2-8.1-21-8.2c-4.9-0.1-19,5.1-19,5.1"/>
		<path class="st4" d="M419.2,211.7c-1.6,12-5.8,20.2-27.9,24.5c-15.9,3-72.8,3.3-91.7,2.1l-18.9-6.7c7.1-25.5,63.3-33.4,71.2-37.3
			c-4.9-6.5-7.2-12-9.5-19.5c-4.7-15.8-1.7-29.6,12.8-40.5c12-10.2,40.1-9,49.7,14.4c2.5,6.2,3.2,10.7,4.5,16.8
			c1.7,7.9,5.3,13.2,7,19.1C419.4,196,420,205.7,419.2,211.7z"/>
		<path class="st11" d="M416.2,184.7c-1.7-6-5.2-11.3-7-19.1c-1.3-6.1-2-10.7-4.5-16.8c-9.6-23.4-37.7-24.6-49.7-14.4
			c-14.4,10.9-17.4,24.8-12.8,40.5c2.1,6.7,4.2,11.9,8.2,17.6C372.4,185.3,393.5,182.6,416.2,184.7z"/>
		<g>
			<path class="st17" d="M251.9,215.5c2.4-3.5,4.8-7,7.1-10.6c9.9,1,19.9,1.8,29.9,1.9c2.2,3.8,4.4,7.5,6.7,11.2
				c-2.4,3.8-4.7,7.5-7.1,11.2c-10,0-20.1-0.9-30.2-1.9C256.2,223.4,254.1,219.5,251.9,215.5z"/>
			<path class="st2" d="M295.6,218.1c-2.3,3.8-4.7,7.5-7.1,11.2c-10.1,0-20.1-0.9-30.2-1.9c-0.5-1-1.1-2-1.6-2.9
				c9.2,0.9,18.4,1.6,27.6,1.7c2.3-3.7,4.7-7.4,7.1-11.2c-1.6-2.7-3.2-5.3-4.8-8c0.8,0,1.6,0,2.3,0
				C291.1,210.6,293.4,214.4,295.6,218.1z"/>
			<path class="st16" d="M264.1,220c-0.5,0-1-0.1-1.5-0.1c0.1-1.8,0.1-3.7,0.2-5.5c-0.6,0.4-1.2,0.8-1.9,0.9c0-0.4,0-0.9,0-1.3
				c0.4-0.1,0.8-0.3,1.3-0.6c0.5-0.3,0.8-0.7,1-1.1c0.4,0,0.8,0.1,1.2,0.1C264.3,214.8,264.2,217.4,264.1,220z M269.6,220.4
				c0.1-2.6,0.2-5.1,0.3-7.7c0.5,0,1,0.1,1.5,0.1c0,1.4-0.1,2.7-0.1,4.1c0.6-0.6,1.2-1.2,1.8-1.8c0.6,0,1.2,0.1,1.8,0.1
				c-0.7,0.6-1.3,1.3-2,1.9c0.6,1.2,1.3,2.4,1.9,3.7c-0.5,0-1.1-0.1-1.6-0.1c-0.4-0.9-0.9-1.7-1.3-2.6c-0.2,0.2-0.5,0.4-0.7,0.7
				c0,0.6,0,1.2-0.1,1.8C270.5,220.5,270.1,220.5,269.6,220.4z M275.1,215.3c0.5,0,1,0.1,1.6,0.1c0.4,1.3,0.8,2.7,1.2,4
				c0.5-1.3,1-2.6,1.4-3.9c0.5,0,1,0,1.5,0.1c-0.7,1.8-1.4,3.5-2.1,5.3c-0.1,0.3-0.3,0.6-0.4,0.9c-0.1,0.3-0.3,0.6-0.4,0.7
				c-0.1,0.2-0.3,0.3-0.4,0.4c-0.2,0.1-0.3,0.2-0.6,0.2c-0.2,0-0.5,0.1-0.8,0c-0.3,0-0.6-0.1-0.8-0.1c0-0.4-0.1-0.8-0.1-1.2
				c0.2,0.1,0.4,0.1,0.6,0.1c0.3,0,0.6-0.1,0.8-0.3c0.2-0.2,0.3-0.4,0.4-0.7C276.3,219.1,275.7,217.2,275.1,215.3z M285.2,221.3
				c0-0.3,0-0.6,0-0.8c-0.2,0.3-0.5,0.5-0.8,0.7c-0.3,0.2-0.7,0.2-1.1,0.2c-0.4,0-0.7-0.1-1-0.3c-0.3-0.2-0.5-0.4-0.6-0.7
				c-0.1-0.3-0.2-0.7-0.2-1.2c0-1.2,0.1-2.3,0.1-3.5c0.5,0,1,0,1.5,0c0,0.9-0.1,1.7-0.1,2.6c0,0.8,0,1.3,0,1.4
				c0,0.2,0.1,0.3,0.3,0.4c0.1,0.1,0.3,0.2,0.5,0.2c0.3,0,0.5-0.1,0.7-0.2c0.2-0.1,0.3-0.3,0.4-0.5c0.1-0.2,0.1-0.7,0.2-1.5
				c0-0.8,0.1-1.6,0.1-2.3c0.5,0,1,0,1.5,0c-0.1,1.9-0.1,3.7-0.2,5.6C286.1,221.3,285.6,221.3,285.2,221.3z"/>
			<path class="st18" d="M260.5,207.4l-0.2,0.4l-5.2,7.5l6.2-6.1c7.6,0.3,14.6,0.4,22.4,0.1C275.6,208.8,268.2,208.1,260.5,207.4z"
				/>
			<path class="st19" d="M251.9,215.5c2.4-3.5,4.8-7,7.1-10.6c9.9,1,19.9,1.8,29.9,1.9c2.2,3.8,4.4,7.5,6.7,11.2
				c-2.4,3.8-4.7,7.5-7.1,11.2c-10,0-20.1-0.9-30.2-1.9C256.2,223.4,254.1,219.5,251.9,215.5z"/>
		</g>
		<path class="st5" d="M309.5,239.2c-4.1-0.1-7.6-0.2-10.4-0.4l-18.9-6.7c1.9-7,7.6-12.7,14.9-17.3
			C302.9,218.4,308.3,225.5,309.5,239.2z"/>
		<path class="st3" d="M342.3,174.9c2.3,7.5,4.6,13,9.5,19.5c-7.9,3.9-64.1,11.7-71.2,37.3l18.9,6.7c18.9,1.2,75.9,0.9,91.7-2.1
			c22.1-4.2,26.3-12.5,27.9-24.5c0.8-6.2,0.4-14.3-2.2-24.4c-1.6-6.5-7.2-18.8-7.7-21.8c-0.7-4.1-1.2-12.4-8-23
			c-10.7-16.5-36.7-20.2-50.6-4.5"/>
		<path class="st4" d="M273,272.9c-10.2,3.9-70.6,2.1-80.7-11.5c-3.4-4.6-8.3-13-12.2-29.9c-2.5-10.7-1.1-21.3-1.9-26.1
			c-0.9-5.6-2.9-11.4-3.5-17c-3.7-35.3,24.3-52.3,43.4-52.3c16.1,0.3,25.6,9.5,31,24.3c2.4,13.1-10.8,32.9-11.6,37.4
			c-0.2,1.5,1.2,8,0.9,14.6c-0.4,9.2-2.4,19.2-2,21c0.8,3,4.4,8.5,10.8,13.7c6.4,5.2,26.6-3.7,31.4,1.8c2.8,3.2,7.4,8.4,5.7,13.6
			C283.2,266.4,279.5,270.4,273,272.9z"/>
		<g>
			<path class="st1" d="M260.1,166.9c4.2,6.7,2,11.5,2.5,16.6c1,10.2-12.8,12.8-14.5,1.3s-18.8-19-18.8-19l19.6-3.8L260.1,166.9z"/>
			<path class="st3" d="M260.1,166.9c3.8,7.8,2,11.5,2.5,16.6c1.2,10.2-12.8,12.8-14.5,1.3s-18.8-19-18.8-19"/>
		</g>
		<path class="st11" d="M238.5,211.2c0.1-6.2-1.2-11.9-1-13.3c0.8-4.5,14-24.3,11.6-37.4c-5.4-14.8-14.9-24.1-31-24.3
			c-19.2,0-47.1,17-43.4,52.3c0.6,5.6,2.5,11.4,3.5,17c0.1,0.4,0.1,0.9,0.2,1.3C198,202.6,218.9,205.5,238.5,211.2z"/>
		<path class="st2" d="M419.7,211.7c-1.6,12-5.8,20.2-27.9,24.5c-15.9,3-72.8,3.3-91.7,2.1l-6.1-2.2c18.4-13.9,67.4-7.3,82-5.4
			c15.8,2,22.1-3.6,22.2-5.4c0.1-1.2-10.8-1.1-13.8-5c-4.4-5.7-2.6-12.9-6.1-28c-3.5-15.1-11.8-25.1-19.8-32
			c-6.1-5.2-9.5-10.5-11.6-17.3c2.2-3.1,5.1-6,8.8-8.8c1.1-1,2.4-1.8,3.8-2.5c2.3-1.2,4.9-2.2,7.7-2.8c0.6-0.1,1.1-0.2,1.7-0.3
			c1.7-0.3,3.5-0.4,5.3-0.4c0.6,0,1.2,0,1.8,0c0.6,0,1.2,0.1,1.8,0.1c10.9,1,22.2,7.2,27.6,20.3c2.5,6.2,3.2,10.7,4.5,16.9
			c0.4,2,1,3.8,1.6,5.5c0.2,0.4,0.3,0.8,0.5,1.2c1.7,4.5,3.8,8.3,4.9,12.4C419.8,196,420.5,205.7,419.7,211.7z"/>
		<path class="st5" d="M278.7,248.9c-2.5-2.8-9-1.9-15.6-1c2,8.8-2.4,15.1,0.3,26.4c5-0.5,7.5-0.7,9.5-1.5
			c6.5-2.5,10.2-6.5,11.4-10.3C286.1,257.3,281.5,252.1,278.7,248.9z"/>
		<path class="st2" d="M284.2,263.1c-0.3,0.8-0.7,1.5-1.2,2.3c-0.3,0.5-0.7,0.9-1.1,1.4c-0.4,0.5-0.8,0.9-1.3,1.4
			c-0.9,0.9-2.1,1.8-3.3,2.5c-0.7,0.4-1.3,0.8-2.1,1.1c-0.7,0.4-1.5,0.7-2.3,1c-0.5,0.2-1.1,0.4-1.7,0.5c-1.9,0.4-4.6,0.8-7.8,1h0
			c-20.4,1.4-62.9-1.8-71.2-13c-3.4-4.6-8.4-13-12.2-29.9c-2.3-9.8-1.3-19.5-1.8-24.8c0-0.2,0-0.4-0.1-0.6c0-0.2-0.1-0.5-0.1-0.7v0
			c-0.1-0.7-0.2-1.4-0.4-2.1c-0.1-0.7-0.3-1.4-0.4-2.1c-0.3-1.4-0.7-2.8-1-4.2c-0.7-2.8-1.3-5.7-1.6-8.5
			c-3.7-35.3,24.3-52.3,43.4-52.3c5,0.1,9.4,1.1,13.3,2.8c2.2,7.4-2.9,17.5-6.2,26.9c-5.4,15.5-6.6,29.9-5.4,54.8
			c0.9,17.8,0.6,23.2-10,23.5c-6.3,0.1-12.3-0.9-9.1,9.2c2.2,6.7,5.6,6.7,14.6,9c18.7,4.8,61.2,6.5,68.6-6.7
			c0.1,0.3,0.2,0.7,0.4,1.1c0.3,0.9,0.5,1.9,0.8,3C285.3,260.9,285,262.1,284.2,263.1z"/>
		<path class="st3" d="M218.1,136.1c-19.2,0-46.5,18.2-43.4,52.3c0.5,5.3,2.6,11.9,3.5,17c0.9,5.3-0.6,15.1,2,26.6
			c3.2,14.4,9.1,25.3,12.1,29.3c10.1,13.6,70.4,15.2,80.7,11.5c7.7-2.8,10.4-6.9,11.3-11.5c0.9-4.6-3.1-9.7-5.5-12.5
			c-4.9-5.5-25.1,3.4-31.4-1.8c-6.4-5.2-10-10.6-10.8-13.7c-0.4-1.8,1.6-11.8,2-21c0.3-6.6-1.2-13.1-0.9-14.6
			c0.3-1.9,2.7-6.3,5.3-11.7"/>
		<g>
			<g>
				<g>
					<g>
						<polygon class="st16" points="250.6,270.4 243.8,256.2 318,220.9 324.8,235.1 						"/>
						<polygon class="st20" points="308.1,234.2 308.9,227 315,231 314.3,238.3 						"/>
						<polygon class="st20" points="299.5,238.3 300.3,231 306.4,235.1 305.7,242.4 						"/>
						<polygon class="st20" points="290.9,242.4 291.7,235.1 297.8,239.2 297.1,246.5 						"/>
						<polygon class="st20" points="282.4,246.5 283.1,239.2 289.2,243.2 288.5,250.6 						"/>
						<polygon class="st20" points="273.8,250.6 274.5,243.3 280.6,247.3 279.9,254.6 						"/>
						<polygon class="st20" points="265.2,254.6 265.9,247.4 272.1,251.4 271.3,258.7 						"/>
						<polygon class="st20" points="256.6,258.7 257.3,251.4 263.5,255.5 262.7,262.8 						"/>
						<polygon class="st20" points="247.1,263.2 247.6,254.3 254.8,259.6 254.4,268.5 						"/>
						
							<rect x="272.4" y="210.7" transform="matrix(0.4304 0.9026 -0.9026 0.4304 383.0079 -112.0752)" class="st3" width="15.7" height="73.5"/>
						<g>
							<path class="st20" d="M324.4,236.4l-6.3,3c-0.7,0.3-2.2-1.7-3.7-4.5c-0.5-0.9-1-1.9-1.5-2.9c-0.8-1.7-1.5-3.4-2-4.8
								c-0.7-2-1-3.6-0.5-3.8l6.3-3c0.4-0.2,1.4,1,2.5,2.9c0.8,1.3,1.7,3,2.5,4.6c0.5,1,0.9,2,1.3,3
								C324.2,233.7,324.9,236.1,324.4,236.4z"/>
							<path class="st21" d="M321.7,227.8l-8.8,4.2c-0.8-1.7-1.5-3.4-2-4.8l8.3-4C320,224.5,320.9,226.1,321.7,227.8z"/>
							<path class="st2" d="M324.4,236.4l-6.3,3c-0.7,0.3-2.2-1.7-3.7-4.5l8.6-4.1C324.2,233.7,324.9,236.1,324.4,236.4z"/>
							<path class="st3" d="M324.4,236.4l-6.3,3c-1.8,0.9-9.5-15.2-7.7-16.1l6.3-3C318.2,219.5,325.9,235.6,324.4,236.4z"/>
						</g>
					</g>
					<path class="st20" d="M26.1,354.8c-4.4,0.3-18.8-6.9-14.4-7.8c83.7-17,231.1-91.6,231.1-91.6l7.7,16.1
						C250.5,271.5,98.3,349.1,26.1,354.8z"/>
					
						<linearGradient id="SVGID_1_" gradientUnits="userSpaceOnUse" x1="-532.8809" y1="467.7928" x2="-357.7319" y2="290.3459" gradientTransform="matrix(0.9139 0.4059 -0.4059 0.9139 690.9101 143.6749)">
						<stop  offset="0" style="stop-color:#FFFFFF;stop-opacity:0"/>
						<stop  offset="1" style="stop-color:#FFFFFF;stop-opacity:0.8"/>
					</linearGradient>
					<path class="st22" d="M250.5,271.5c0,0-0.9,0.5-2.7,1.4l-5.9-12.4c0,0-144.9,74.4-228.7,91.4c-1.9-2.2-3-4.6-1.4-5
						c83.7-17,231.1-91.6,231.1-91.6L250.5,271.5z"/>
				</g>
				<g>
					<g>
						<path class="st20" d="M254.1,285.8c-2.5-5.3-9.2-11.8-13-19.7c-3.7-7.8-4.5-17-7-22.2c-2.6-5.5,3.7-8.5,6.3-3
							c2.5,5.2,9,11.6,12.8,19.5c3.8,7.9,4.7,17.2,7.2,22.4C262.9,287.9,256.6,290.9,254.1,285.8z"/>
						<path class="st21" d="M249.7,262c-3.7-7.8-14.4-24-13.3-24.1c1.4-0.1,3.1,0.7,4.1,2.9c2.5,5.2,9,11.7,12.8,19.5
							c3.8,7.9,4.7,17.2,7.2,22.4c0.9,1.8,0.6,3.3-0.1,4.3C259.6,288.1,253.4,269.9,249.7,262z"/>
					</g>
					<path class="st2" d="M254.1,285.8c-2.5-5.3-9.2-11.8-13-19.7c-3.7-7.8-4.5-17-7-22.2c-1.7-3.6,0.4-6.1,2.8-5.9
						c-0.7,1.1-0.9,2.7,0,4.6c2.5,5.2,3.3,14.4,7,22.2c3.8,7.9,10.5,14.4,13,19.7c0.8,1.8,2.2,2.6,3.4,2.6
						C259,289,255.7,289.1,254.1,285.8z"/>
					<path class="st3" d="M254.1,285.8c-2.5-5.3-9.2-11.8-13-19.7c-3.7-7.8-4.5-17-7-22.2c-2.6-5.5,3.7-8.5,6.3-3
						c2.5,5.2,9,11.6,12.8,19.5c3.8,7.9,4.7,17.2,7.2,22.4C262.9,287.9,256.6,290.9,254.1,285.8z"/>
				</g>
			</g>
			
				<linearGradient id="SVGID_00000115498337487394845770000016633058665543764358_" gradientUnits="userSpaceOnUse" x1="3025.0056" y1="2739.0408" x2="3131.6765" y2="2630.9707" gradientTransform="matrix(-0.9094 0.4158 -0.4158 -0.9094 4043.7844 1472.8923)">
				<stop  offset="0" style="stop-color:#FFFFFF;stop-opacity:0"/>
				<stop  offset="1" style="stop-color:#FFFFFF;stop-opacity:0.8"/>
			</linearGradient>
			<path style="fill:url(#SVGID_00000115498337487394845770000016633058665543764358_);" d="M11.6,347c3.4,2.4,10.4,5.3,13.3,5.1
				c63.4-5,188.6-65.5,218-80.1c0.5,0.9,1.1,1.7,1.7,2.5C216,288.7,89.8,349.8,26.1,354.8C21.7,355.1,7.5,348,11.6,347z"/>
			<path class="st3" d="M245.9,273.8c-26,12.9-155,75.9-219.7,81c-4.4,0.3-18.8-6.9-14.4-7.8c75-15.2,201-76.6,226.5-89.3"/>
		</g>
		<path class="st2" d="M374.4,237.9c0,0.5-0.1,2.1-0.1,2.4c-8.1,0.1-21.4,1.7-32.7,2c-9.7,0.3-17.8-0.8-20.7-0.4
			c-6.1,0.7-11.3,4.9-21.3,4.9l17.1-7.9C334.2,239.1,357.7,238.9,374.4,237.9z"/>
		<g>
			<path class="st5" d="M306.9,247c-1.8,1.9-19.2,6.8-26.2-12.8c-1.3-3.2,2.1-7.5,10.4-6.7c2.1-3.4,4.6-6.7,9.3-6.2
				c4.7,0.5,1.9,4.9,3.4,10.4S310.9,242.9,306.9,247z"/>
			<path class="st3" d="M297,221.6c1-0.3,2.1-0.5,3.4-0.3c4.7,0.5,1.9,4.9,3.4,10.4s7.2,11.2,3.2,15.3c-1.8,1.9-19.2,6.8-26.2-12.8
				c-0.8-2.4,0.8-6.8,4.8-11.4"/>
			<path class="st3" d="M291.1,227.5c0.9,8.8,3.8,13.7,15.9,19.5"/>
		</g>
		<g>
			<path class="st5" d="M260.9,243.4c1.9-1.5,18.2-3.8,23.4,13.4c0.3,0.9,0.5,1.9,0.8,3c0.8,3.4-3.2,7.1-11.2,5.2
				c-2.5,3.1-5.5,6-10.1,4.8c-4.6-1.2-1.2-5.2-1.9-10.8C261.2,253.4,256.3,246.9,260.9,243.4z"/>
			<path class="st3" d="M270.1,268.7c-1.7,1.2-3.8,1.8-6.4,1.1c-4.6-1.2-1.2-5.2-1.9-10.8c-0.7-5.6-5.6-12.1-1-15.6
				c2-1.5,18.6-3.9,23.6,14c0.2,0.8,0.3,5.8-3.1,10.1"/>
			<path class="st3" d="M273.8,265c0.3-8.9-1.8-14.1-13-21.5"/>
		</g>
		<path class="st3" d="M295.5,214.4c4.8,2.3,8.8,5.9,11.3,11.7"/>
		<path class="st3" d="M263.5,269.7c0.1,1.7-0.1,3.1,0.7,4.6"/>
		<g>
			<g>
				<path class="st1" d="M220,133.3c4.8,0.7,7,5.6,5.3,11.1s-10.5,36-9,60.2c1.5,24.2,2.7,32.8-7,34.1c-9.7,1.3-23,2.6-28.2,5.8
					c-5.2,3.2-8.9-1.8-9.4-9.8c-0.4-7.9-4.2-60.4,6.3-81.8C188.5,131.5,203.4,130.9,220,133.3z"/>
				<path class="st2" d="M181.1,244.4c1.4-0.9,3.5-1.6,5.9-2.2l0,0c-3.7-11.8-5.4-23.4-3.7-32.1c-0.5,0.1-1.5,0.5-2.5,0.9
					c-0.4-9.4,2.7-17.4,5.4-27c-0.1,0-1.5,0.4-2.8,0.9c0-6.9,1.7-16.2,5.8-23.9c0,0-1.5,0.4-2.2,0.6c1.9-12,6.7-23.7,16.4-28.9
					c-9.8,1.2-18.6,6.3-25.4,20.3c-1.4,2.8-3.4,6.4-4.3,10.1c-0.4,1.5,0.2,2.7-0.1,4.3c-1.2,6.2-3,13.3-3.4,20.4
					c-0.1,1.1,0.9,1.9,0.9,2.9c-0.4,7.7-1.7,14.5-1.6,21.3c0,1,1.3,2.7,1.4,3.7c0.2,9.4,0.7,16.6,0.9,19.2
					C172.2,242.6,176,247.6,181.1,244.4z"/>
			</g>
			<path class="st3" d="M220,133.3c4.8,0.7,7,5.6,5.3,11.1c-0.6,2-2.2,7.4-3.9,14.6c-0.2,1.1-1.3,1.9-1.5,3
				c-1.2,5.4-1.6,11.9-2.4,18.3c-0.1,1.1-1.3,2.3-1.4,3.4c-0.8,7-0.1,14.1,0.3,20.8c0.1,1.1-0.7,2.3-0.6,3.4
				c1.4,21.7,2.9,29.5-6.3,30.7c-9.7,1.3-23,2.6-28.2,5.8c-5.2,3.2-8.9-1.8-9.4-9.8c-0.1-2.6-0.6-9.8-0.9-19.2
				c0-0.9-1.4-2.7-1.4-3.7c-0.1-6.8,1.2-13.6,1.6-21.3c0.1-1.1-0.9-1.9-0.9-2.9c0.4-7,2.2-14.2,3.4-20.4c0.3-1.6-0.3-2.8,0.1-4.3
				c0.9-3.7,3-7.3,4.3-10.1C188.5,131.5,203.4,130.9,220,133.3z"/>
			<path class="st3" d="M221.4,159c-8.8-1.8-35.9-0.2-47.7,8.3"/>
			<path class="st3" d="M217.4,180.3c-16-0.4-34,2.3-46.4,10.2"/>
			<path class="st3" d="M216.3,204.6c-12.5-0.2-32.8,3.6-45.4,10.9"/>
			<path class="st14" d="M216.8,137.1c2.5,0.5,3.7,3.4,2.7,7.6c-1,4.1-3.3,7.3-8,7.9c-5.3,0.6-12,0.7-14.6,0.4
				c-2.6-0.3-3.4-3.1-1.4-7.9c2-4.8,6.5-7.6,9.8-8.1C208.5,136.6,214.3,136.6,216.8,137.1z"/>
			<path class="st14" d="M209.5,163.3c2.3,0.4,3.6,1.7,3.4,5.3c-0.1,3.6-1,5.3-3,5.7c-2,0.4-11.7,1.5-15,1.7s-4.7-1-4.5-4.2
				c0.3-3.2,0.7-5.9,4.3-7.3C198.2,163.1,206.1,162.7,209.5,163.3z"/>
			<path class="st14" d="M209.8,192c0.4,5.5-2.4,7.7-10.8,8.8c-6.4,0.9-10.3,0.6-10.8-5.7c-0.3-4.2,1.2-7.2,9-8.3
				C207.8,185.3,209.4,187.9,209.8,192z"/>
			<path class="st14" d="M210.5,216.8c0.4,2,0.5,4.2,0.1,6.8c-0.6,3.8-2.7,5.3-7.3,5.8s-12.4,1.7-14.2-1.5c-1.7-3-2.4-7.3-1.2-11.7
				c1-3.6,6.3-4.1,10.9-4.6S209.2,211.3,210.5,216.8z"/>
		</g>
		<g>
			<path class="st1" d="M360.3,129.9c-5.2,2.3-9.8,6.1-9.7,9.5c0.1,3.4,3,6.6,8.2,12.7c6.8,7.9,17.4,20.7,21.8,34.5
				c3.2,10,5,18.7,5.8,26c0.5,4.1,4.2,7,8.3,6.4c9.4-1.4,20.3-4.3,28.6-2.5c4.2,0.9,7.6-3.7,7.2-7.9c-2-20.8-7.9-40.5-18.7-58.9
				C400.9,131.2,380.3,121.1,360.3,129.9z"/>
			<path class="st3" d="M407.3,143.3c-14-2-32.7,2.4-45.1,12.9"/>
			<path class="st3" d="M428,192.3c-10.2-2.9-29.9-1.7-44.7,4"/>
			<path class="st3" d="M419.2,165c-14.7-1.6-29.5,0-43.9,8.3"/>
			<path class="st3" d="M360.3,129.9c-5.2,2.3-9.8,6.1-9.7,9.5c0.1,3.4,3,6.6,8.2,12.7c1.1,1.2,2.2,2.6,3.4,4.1
				c0.9,1.1,2.7,1.5,3.6,2.7c3.3,4.1,5.8,9.6,8.8,14.7c0.7,1.2,2.4,1.7,3,3c1.6,3.1,4.9,16.6,5.7,19.7c0.3,1.2,1.4,2.3,1.7,3.4
				c1,4.7,0.9,9.1,1.4,12.9c0.5,4.1,4.2,7,8.3,6.4c9.4-1.4,20.3-4.3,28.6-2.5c4.2,0.9,7.6-3.7,7.2-7.9c-0.5-5.5-1.3-11-2.4-16.3
				c-0.3-1.3,0.7-2.6,0.4-3.8c-1.9-8-5.6-15.7-8.9-23.4c-0.5-1.1-0.2-2.8-0.7-3.9c-1.9-4.1-7-12-11.5-17.8c-0.8-1-0.2-2.5-1-3.4
				C394.8,127.6,376.6,122.7,360.3,129.9z"/>
			<path class="st2" d="M423.2,216.5c-2.1-0.5-3.2-0.5-4.4-0.6c0.3-6.3-0.9-16.1-3.1-25.2c-0.1-0.4-2.2,0.4-2.2,0
				c-1.1-9-3.2-18.4-6.2-26.2c-0.3-0.8-1.9,0.7-2.1,0c-3.9-11.4-9.3-19.8-10.6-21.1c-0.2-0.3-1.6,0.3-1.9,0
				c-7.3-7.8-16.5-12.7-28.1-15.1c18.6-5.7,37,4.3,47.1,21.5c10.8,18.3,16.7,38.1,18.7,58.9C430.9,212.9,427.4,217.4,423.2,216.5z"
				/>
			<g>
				<path class="st14" d="M357.4,137.8c-1.6,1.3-1.4,3.8,0.8,6.3c2.2,2.6,5,4,8.5,2.7c3.9-1.5,8.7-3.8,10.5-5
					c1.8-1.2,1.3-3.4-1.9-6.1c-3.1-2.7-7.4-3-9.9-2.2C363.1,134.4,359,136.5,357.4,137.8z"/>
				<path class="st14" d="M373.5,154.1c-1.7,1.2-2.2,2.8-0.6,5.6s3,3.9,4.8,3.4c1.8-0.5,10.2-3.5,13-4.6s3.5-2.7,1.9-5.1
					c-1.6-2.4-3-4.4-6.6-4.1C382.6,149.5,376,152.3,373.5,154.1z"/>
				<path class="st14" d="M384.1,179.4c1.8,5,2.7,6.3,12.6,4.2c6-1.3,9.4-3,7.6-8.7c-1.2-3.9-3.4-6-10.8-4.3
					C383.6,172.9,382.1,173.9,384.1,179.4z"/>
				<path class="st14" d="M391.2,202.5c0,1.7,0.3,2.6,1.1,4.5c1.2,3,3.2,3.7,7,3.3c3.8-0.4,10.3-1,11.1-3.9c0.8-2.7,0.7-5.4-1.1-8.7
					c-1.5-2.7-5.9-2.1-9.6-1.7S391.1,197.9,391.2,202.5z"/>
			</g>
		</g>
		<path class="st3" d="M263.2,179.3c1.2,1.7,2.1,4.1,2.8,7.2c1.3,5.7,18.8,9.2,40.4,9.2c22.3,0,36.7-1.5,36-6.7
			c-0.7-5.3-1.5-8.5,0.2-12.8"/>
		<path class="st3" d="M238.5,195.2c3.3-2.2,5.8-4.9,5.9-7.8c0.1-2.6,0.8-5.2,2.2-7.3"/>
		<path class="st3" d="M350.7,138.1c-10.6,10.3-12.5,22.8-8.3,36.8c2.1,6.7,4.2,11.9,8.2,17.6c6.8-2.1,15.4-4.6,22.3-5.8"/>
		<path class="st3" d="M225.2,207.9c4.5,0.9,8.9,2.1,13.3,3.3c0.1-6.2-1.2-11.9-1-13.3c0.8-4.5,14-24.3,11.6-37.4
			c-4.6-12.6-11.2-21.2-23.3-23.6"/>
		<path class="st3" d="M250.5,162.8c16.2,7.8,35.9,14.3,56.4,14.5s30.7-12,33.1-14.9"/>
		<path class="st3" d="M257.5,181.3c1,0.7,1.6,1.8,1.6,3c0,2-1.6,3.7-3.7,3.7c-0.8,0-1.5-0.2-2-0.6"/>
		<g>
			<path class="st1" d="M358,68c-13.6,2.8-40.8,2.5-65-1.8c-24.3-4.3-41.5-10.3-43.3-22c-0.3-5,14.1-12.9,14.1-8.1
				c-0.5,9,20.1,13,47.2,15.9c14.9,1.6,31.2,2.1,37.6,0.6C351.9,51.9,362.8,67.2,358,68z"/>
			<path class="st2" d="M249.7,44.2c1.8,11.7,19,17.7,43.3,22c24.1,4.3,51.4,4.6,65,1.8c1.7-0.3,1.4-2.3,0.3-4.8
				c-14.5,3.7-39.3,3-61.3-0.9c-24.3-4.3-44.2-12.9-43-23.6c0-0.2,0-0.3,0-0.5C251.5,40.1,249.6,42.4,249.7,44.2z"/>
			<path class="st3" d="M358,68c-13.6,2.8-40.8,2.5-65-1.8c-24.3-4.3-41.5-10.3-43.3-22c-0.3-5,14.1-12.9,14.1-8.1
				c-0.5,9,20.1,13,47.2,15.9c14.9,1.6,31.2,2.1,37.6,0.6C351.9,51.9,362.8,67.2,358,68z"/>
		</g>
		<path class="st2" d="M394.6,397c-0.7,1-2.1,0.9-3.8-0.5c-2.4-1.9-18.4-10-33.2-16.7c-1.7-0.8-3.3-1.5-5-2.3
			c-9.8-4.7-18.5-10-16.2-14.5c0.8-1.6,1.2-4.4,1-7.8c0.6,0.2,1,0.2,0.9-0.4c-3.9-24-3.3-36.2,1.2-43c1.8,1.1,4,1.7,6.1,1.7
			c0.2,0,0.5,0,0.7,0c1-0.1,2-0.3,3-0.7c3.4,16.7,4.7,29.2,0.5,40.5c-2.5,6.6-3.4,11.6,10.6,19.1C372,378.6,385.2,385.6,394.6,397z"
			/>
		<path class="st1" d="M276.9,306.3c-2.7,7.9-5,22.1-6.5,34.8c-0.5,4.4,2.7,8.4,7.2,8.8c12.5,1.1,33-0.2,44.4-1.7
			c3-0.4,5.6-2.5,6.5-5.5c3.4-11.4,3.8-25.1,1.9-36.4C319.8,308.2,292.2,309.2,276.9,306.3z"/>
		<path class="st1" d="M369.9,295c4.9,9,7.5,16.1,9.3,24.7c0.9,4.6-1.2,9.3-5.4,11.4c-8.2,4.3-18.8,7.3-26.8,9.1
			c-2.6,0.6-5.1-1.3-5.3-3.9c-1-11.4-3.9-20.4-11.2-30C345.3,304.1,356.5,301.1,369.9,295z"/>
		<path class="st1" d="M228.3,292.5c-5.5,8.6-10.8,18.1-14.1,31.5c-1,4.1,0.5,8.4,3.9,10.9c7.5,5.4,18.6,10.5,31.5,12.8
			c2.8,0.5,5.6-1.2,6.3-3.9c4.2-14.9,13.7-29.6,21-37.5C265.8,305,244.6,302.7,228.3,292.5z"/>
		<path class="st3" d="M228.3,292.5c-1.6,2.4-4,4.1-5.5,6.8c-0.4,0.7,0.1,2.3-0.3,3c-1.9,3.6-4.8,6.8-6.4,11.1
			c-0.3,0.8,0.4,2.5,0.1,3.4c-0.8,2.3-1.5,4.7-2.1,7.3c-1,4.1,0.5,8.4,3.9,10.9c7.5,5.4,18.6,10.5,31.5,12.8
			c2.8,0.5,4.3-1.2,5.1-3.9c0.6-2,1.2-4,1.9-5.9c0.3-0.9,2-1.8,2.3-2.7c2-4.9,3-9.8,5.6-14.1c0.5-0.8,2.3-1.4,2.8-2.1
			c3.2-5.1,6.6-9.4,9.5-12.7C265.8,305,244.6,302.7,228.3,292.5z"/>
		<path class="st3" d="M369.9,295c1.6,3,3.8,5.1,5,7.8c0.2,0.4-0.5,1.5-0.3,1.9c1.5,3.7,3.9,6.6,4.8,10.3c0.1,0.4-1,1.4-0.9,1.8
			c0.2,1,0.5,2,0.7,3c0.9,4.6-1.2,9.3-5.4,11.4c-8.2,4.3-18.8,7.3-26.8,9.1c-2.6,0.6-4.1-1.3-4.3-3.9c-0.1-0.9-0.2-1.8-0.3-2.7
			c-0.1-0.8-1.2-1.5-1.3-2.2c-0.6-3.9-0.7-7.7-2-11.2c-0.3-0.8-1.4-1.6-1.8-2.4c-1.7-3.8-3.9-7.6-6.8-11.4
			C345.3,304.1,356.5,301.1,369.9,295z"/>
		<path class="st3" d="M276.9,306.3c-1.1,3.4-2.2,8-3.2,13.2c-0.2,0.9,0.9,2.2,0.8,3.1c-0.8,4.3-2.7,8.4-3.3,12.9
			c-0.1,1,0.9,2.5,0.8,3.4c-0.1,0.9-0.2,1.8-0.3,2.7c-0.5,4.4,1.6,7.9,6,8.3c12.5,1.1,33-0.2,44.4-1.7c3-0.4,5.6-2.5,6.5-5.5
			c0.9-2.9,1.5-6,2-9.1c0.1-0.9,1.5-1.7,1.6-2.6c0.5-4-0.6-8.1-0.6-12c0-0.9,1.2-1.8,1.1-2.7c-0.2-3.4-1.8-6.8-2.3-9.9
			C319.8,308.2,292.2,309.2,276.9,306.3z"/>
		<path class="st3" d="M337.2,317.7c10-1.2,28.3-6.6,37.3-13"/>
		<path class="st3" d="M341,331.3c11.4-2,30.4-9,37.5-14.5"/>
		<path class="st3" d="M222.5,302.3c9.9,8.3,24.8,13.4,44.9,16.6"/>
		<path class="st3" d="M216.2,316.8c8.4,9,24.1,14,42.7,18.3"/>
		<path class="st3" d="M273.7,319.4c12.7,3.5,42.5,2.9,57.9-0.5"/>
		<path class="st3" d="M271.1,335.4c12.7,3.8,46.9,2.8,59.4-1.9"/>
		<g>
			<path class="st2" d="M328,343.6c-1.1,2.2-3.4,3.8-5.9,4.1c-11.4,1.5-32,2.8-44.4,1.7c-4.4-0.4-7.7-4.4-7.1-8.8
				c1.5-12.6,3.8-26.9,6.5-34.8c2.6,0.5,5.5,0.9,8.6,1.2c-0.7,2.9-3.8,5.7-4.6,9.7c-0.2,1.1,1.9,3.1,1.7,4.3
				c-0.7,4.1-3.3,7.6-3.4,11.3c-0.1,1.5,2,3.6,2.1,4.9c0.3,4.6,1.5,7.9,4.5,8.3C293.6,346.4,319.5,346.9,328,343.6z"/>
			<path class="st2" d="M373.8,330.8c-2.2,1.2-4.6,2.2-7.1,3.2c2.5-3,2.9-7.1,1.9-11.7c-0.1-0.7,1.1-2.6,0.8-3.3
				c-0.9-3.3-3.8-5.5-5.4-8.8c-0.4-0.7,0.5-2.2,0.1-2.9c-1.8-3.2-4.8-5.3-6.5-7.7c4-1.4,8.1-3,12.3-5c4.9,9.1,7.5,16.1,9.3,24.7
				C380.1,324,377.9,328.7,373.8,330.8z"/>
			<path class="st2" d="M226.4,339.6c-3.1-1.6-5.8-3.3-8.2-5c-3.4-2.5-5-6.8-4-10.9c3.3-13.4,8.6-22.9,14.1-31.5
				c3.5,2.2,7.2,4,10.9,5.5c-1.5,2.2-4.7,4-6.5,7.5c-0.4,0.8,0.5,2.7,0.1,3.5c-1.9,3.9-5.2,6.7-6.5,10.9c-0.4,1.1,0.7,3.7,0.4,4.8
				C225.1,330.1,224.7,335.6,226.4,339.6z"/>
		</g>
		<g>
			<g>
				<path class="st17" d="M327.3,307.3c-37.9,2.2-80.2-1.6-103.8-11.1c-1.8-0.7-2.7-2.8-2-4.6c0.7-1.8,2.8-2.7,4.6-2
					c33,13.2,107.5,15,147.5,3.5c1.9-0.5,3.9,0.6,4.4,2.4c0.5,1.9-0.6,3.9-2.4,4.4C362.2,303.8,345.2,306.2,327.3,307.3z"/>
			</g>
			<g>
				<path class="st17" d="M306.5,311.7c-26.6,1.6-54.7-1.3-82.2-8.5c-1.9-0.5-3-2.4-2.5-4.3c0.5-1.9,2.4-3,4.3-2.5
					c76.7,20,131.6,0.7,146.3-8.4c1.7-1,3.9-0.5,4.9,1.1c1,1.7,0.5,3.9-1.1,4.9c-9.2,5.7-28.4,13-54.7,16.3
					C316.6,310.9,311.6,311.4,306.5,311.7z"/>
			</g>
			<g>
				<path class="st17" d="M346.3,313.5c-0.2,0-0.4,0-0.7,0c-4.9-0.1-10.3-3.2-10.7-8.7c-0.3-3.7,3.3-10.2,8-10.7c0.2,0,0.4,0,0.6,0
					c0.5-0.5,1.1-0.9,1.8-1.3c3.7-2.2,8-1.8,10.9,1.1c3,2.9,3.6,7.4,1.5,11.2C355.5,309,351.1,313.2,346.3,313.5z M347.7,302.9
					c0.1,0.7,0.3,1.5,0.6,2.5c1.2-0.9,2.4-2.3,3.2-3.8c0.7-1.2,0.3-2.2-0.2-2.7c-0.1-0.1-0.1-0.1-0.2-0.2c0.2,1.2-0.2,2.4-1.1,3.2
					C349.3,302.6,348.5,302.9,347.7,302.9z"/>
			</g>
			<path class="st17" d="M328.8,352.6c-3.4-0.2-3.6-1.6-3.6-3.6c0-26.2,4.3-40.5,14.7-47.6c1.6-1.1,3.8-0.7,5,0.9
				c1.1,1.6,0.7,3.8-0.9,5c-8.2,5.7-10.6,17-5.6,47.6C338.7,356.7,334.3,352.9,328.8,352.6z"/>
			<path class="st17" d="M360.4,340.9c-0.2-24.3-2.8-32-11.6-35.2c-1.8-0.7-2.8-2.7-2.1-4.6c0.7-1.8,2.7-2.8,4.6-2.1
				c13.1,4.9,17.3,17.7,20.7,41.3c0.3,1.9,0.2,3.2-3,4c-5.7,1.5-5.7,5.3-7.1,4.8C360.4,348.5,360.4,343.8,360.4,340.9z"/>
			<path class="st3" d="M335.2,306.7c-2.6,0.2-5.3,0.4-7.9,0.6c-37.9,2.2-80.2-1.6-103.8-11.1c-1.8-0.7-2.7-2.8-2-4.6
				c0.7-1.8,2.8-2.7,4.6-2c24.4,9.7,71.2,13.2,110.2,9.8"/>
			<path class="st3" d="M358.2,296.6c5.6-1,10.7-2.2,15.5-3.5c1.9-0.5,3.9,0.6,4.4,2.4c0.5,1.9-0.6,3.9-2.4,4.4
				c-5.3,1.5-10.7,2.7-17,3.8"/>
			<path class="st3" d="M357.2,294.8c6.9-2.5,12.1-4.9,15.3-6.9c1.7-1,3.9-0.5,4.9,1.1c0.9,1.5,0.6,3.4-0.7,4.5"/>
			<path class="st3" d="M333,308.5c-3.7,0.7-7.5,1.3-11.6,1.8c-4.9,0.6-9.9,1.1-15,1.4c-26.6,1.6-54.7-1.3-82.2-8.5
				c-1.9-0.5-3-2.4-2.5-4.3c0.3-1.2,1.2-2.1,2.2-2.4"/>
			<path class="st3" d="M346.3,313.5c-0.2,0-0.4,0-0.7,0c-4.9-0.1-10.3-3.2-10.7-8.7c-0.3-3.7,3.3-10.2,8-10.7c0.2,0,0.4,0,0.6,0
				c0.5-0.5,1.1-0.9,1.8-1.3c3.7-2.2,8-1.8,10.9,1.1c3,2.9,3.6,7.4,1.5,11.2C355.5,309,351.1,313.2,346.3,313.5z"/>
			<path class="st3" d="M343.5,294.1c3.9-0.2,11.1,2.9,7.9,10.8"/>
			<path class="st3" d="M343.9,300.6c-4.3,3.7-3.6,13.1,8.9,10.2"/>
			<path class="st3" d="M339.5,311.8c-4.4,6.8-5.1,19-1.1,43c0.3,1.9-4-2-9.5-2.2c-3.4-0.2-3.6-1.6-3.6-3.6
				c0-21.6,2.9-35.1,9.8-43.2"/>
			<path class="st3" d="M358.5,303.2c7.6,6.6,10.8,18.5,13.5,37c0.3,1.9,0.2,3.2-3,4c-5.7,1.5-5.7,5.3-7.1,4.8
				c-1.5-0.6-1.4-5.2-1.5-8.1c-0.2-18-1.6-26.8-5.9-31.6"/>
		</g>
		<path class="st7" d="M318.9,80.9c0,0,7.7-1.1,15.2-2.9c6.7-1.6,13.6-5.7,17.3-6.1c4.1-0.4,16.1,3.9,16.1,3.9"/>
		<path class="st2" d="M225.5,365.1c-2.9,8.9-18.5,18-6,51c-1.4,1.8-2.9,3.8-4.4,5.9c-4.3-22-6-27-6.5-36.9c-0.1-1.8,0-3.7,0-5.5
			c0.2-10.9,8.3-25.8,9.3-33.9c0.5-3.6,0.9-6.9,1.5-10c3,2.1,4,2.9,7.9,4.6C227.1,351.3,227.8,358,225.5,365.1z"/>
		<path class="st2" d="M275.4,311.5c-1.7,6.9-3.2,16-4.4,24.8c-3.4,3.4-6.2,7.3-9.2,12.1c-0.3,0.4-0.5,0.9-0.8,1.3
			c1.6-11.1,5.9-19.3,7.9-24.7c1.1-3.1-0.5-4.3-3-3.9c2.2-3.7,4.5-7,6.7-9.9C273.6,311.4,274.5,311.5,275.4,311.5z"/>
		<path class="st2" d="M308.2,244.8c-0.2,0.8-0.6,1.5-1.2,2.1c-1.8,1.9-19.2,6.8-26.2-12.8c-0.3-0.6-0.3-1.3-0.2-2l-0.2-0.1
			c0.6-2.2,1.6-4.3,2.9-6.3C285.3,233.4,293.5,243.7,308.2,244.8z"/>
		<g>
			<path d="M303,54.2c2.1,0.3,4.2,0.5,6.3,0.8c1.7,0.3,2.2,1.4,2.2,2.5c0,1.5-0.8,2.4-2.2,2.8c-0.1,0-0.2,0-0.3,0.1
				c1.6,1.1,1.7,2.9,2.6,4.6c-1.2-0.1-2.3-0.2-3.4-0.4c-0.4-1-0.9-2.1-1.3-3.2c-0.2-0.6-0.6-1-1.4-1c-0.1,1.3-0.3,2.5-0.4,3.8
				c-1-0.1-2-0.2-2.9-0.3C302.3,60.7,302.7,57.6,303,54.2z M305.8,56.6c-0.1,0.7-0.1,1.3-0.2,2c0.7,0,1.3,0.1,1.9,0.1
				c0.6,0,0.9-0.3,0.9-0.8c0.1-0.5-0.2-0.9-0.8-1C307,56.6,306.4,56.6,305.8,56.6z"/>
			<path d="M320.6,58.8c-1,0-1.8-0.1-2.8-0.1c-0.1-0.8-0.5-1.3-1.3-1.4c-0.5-0.1-1,0-1.2,0.6c0,0.5,0.3,0.7,0.7,0.8
				c0.7,0.3,1.4,0.5,2.1,0.8c0.4,0.1,0.7,0.3,1.1,0.5c2.2,1.3,1.8,4,0,5.1c-0.6,0.3-1.3,0.5-2,0.6c-1.1,0.1-2.2-0.1-3.3-0.5
				c-1.4-0.5-2.2-1.8-2.1-3.4c0.9,0,1.8,0.1,2.8,0.1c0,0.2,0.1,0.4,0.1,0.6c0.3,1,1.2,1.5,2.1,1.2c0.4-0.1,0.7-0.4,0.8-0.8
				c0.1-0.4-0.2-0.7-0.5-0.9c-0.3-0.2-0.6-0.3-1-0.4c-0.7-0.3-1.4-0.5-2-0.9c-1.2-0.7-1.8-1.7-1.6-2.7c0.2-1.2,1.1-2.1,2.5-2.3
				c1.3-0.2,2.6-0.1,3.8,0.4C320.1,56.5,320.6,57.4,320.6,58.8z"/>
		</g>
		<g>
			<path class="st24" d="M247.4,258.6c0.5,1,0.9,2,1.3,2.9c0.3,0.8,0,1.3-0.5,1.6c-0.6,0.4-1.3,0.3-1.8-0.2c0,0-0.1-0.1-0.1-0.1
				c0,1-0.8,1.5-1.3,2.3c-0.3-0.6-0.5-1.1-0.8-1.6c0.3-0.5,0.7-0.9,1-1.4c0.2-0.3,0.3-0.5,0-0.9c-0.6,0.3-1.2,0.6-1.8,0.8
				c-0.2-0.5-0.4-0.9-0.7-1.4C244.4,260,245.9,259.3,247.4,258.6z M247.1,260.4c-0.3,0.1-0.6,0.3-0.9,0.4c0.2,0.3,0.3,0.6,0.5,0.9
				c0.2,0.2,0.4,0.3,0.6,0.2c0.2-0.1,0.3-0.3,0.2-0.6C247.4,261,247.3,260.7,247.1,260.4z"/>
			<path class="st24" d="M250.1,267.5c-0.2-0.4-0.5-0.8-0.7-1.2c0.3-0.3,0.4-0.6,0.3-1c-0.1-0.2-0.3-0.4-0.6-0.4
				c-0.2,0.1-0.2,0.3-0.2,0.5c0.1,0.4,0.2,0.7,0.2,1.1c0,0.2,0.1,0.4,0.1,0.6c0,1.3-1.3,1.8-2.2,1.3c-0.3-0.2-0.6-0.4-0.8-0.7
				c-0.3-0.5-0.6-1-0.7-1.6c-0.1-0.7,0.2-1.4,0.9-1.8c0.2,0.4,0.4,0.8,0.7,1.2c-0.1,0.1-0.1,0.1-0.2,0.2c-0.3,0.4-0.3,0.9,0,1.3
				c0.2,0.2,0.4,0.2,0.6,0.1c0.2-0.1,0.3-0.3,0.3-0.5c0-0.2,0-0.4-0.1-0.5c-0.1-0.4-0.1-0.7-0.2-1.1c0-0.7,0.2-1.2,0.8-1.4
				c0.6-0.2,1.2-0.1,1.7,0.5c0.4,0.5,0.7,1.1,0.8,1.8C250.9,266.6,250.7,267.1,250.1,267.5z"/>
		</g>
	</g>
	<g class="st25">
		<path class="st26" d="M413.3,411.8c-0.1-0.2-0.3-0.4-0.4-0.5l2-6c1.5-4.3-0.2-9.1-4.1-11.6c-0.8-0.5-1.7-1-2.5-1.4
			c-1.3-0.6-2.8-1-4.3-1c-0.3,0-0.6,0-0.8,0.1c-1.3-0.6-2.6-1.1-4-1.5c-2.6-0.7-5.4-1.1-8.1-1.1c-4.3,0-8.1,0.9-11.4,2.6
			c-1.3,0.7-2.6,1.5-3.7,2.5c-0.8-0.6-1.5-1.1-2.4-1.6c-3.3-1.8-7-2.7-11.2-2.7h-12.7c-3.2,0-6,1.5-7.8,3.8
			c-1.9-2.4-4.7-3.8-7.8-3.8H326c-2.3,0-4.5,0.8-6.2,2.2c-1.8-1.4-3.9-2.2-6.2-2.2h-7.4c-2,0-3.9,0.6-5.5,1.7
			c-1.6-1.1-3.5-1.7-5.5-1.7h-7.5c-2,0-3.9,0.6-5.5,1.7c-1.6-1.1-3.5-1.7-5.5-1.7h-8.1c-0.7,0-1.5,0.1-2.2,0.2
			c-0.7-0.2-1.4-0.2-2.2-0.2h-21.1c-3,0-5.7,1.3-7.6,3.5c-0.1,0-0.1-0.1-0.2-0.1c-3.8-2.2-8.1-3.4-12.9-3.4h-13
			c-2.9,0-5.5,1.2-7.3,3.2c-0.1,0-0.1-0.1-0.2-0.2c-3.9-2.5-8.3-3.8-13.1-3.8s-9.2,1.3-13.1,3.8c-0.6,0.4-1.3,0.9-1.9,1.3
			c-1-0.8-2.1-1.6-3.2-2.2c-3.5-2-7.4-2.9-11.7-2.9c-4.7,0-9.1,1.3-13,3.8c-3.8,2.5-6.7,5.9-8.8,10.1c-2,4-2.9,8.5-2.9,13.4
			c0,4.9,1,9.4,2.9,13.4c1.7,3.5,4,6.4,6.9,8.7c1.8,1.4,4,2.2,6.2,2.2c0.1,0,0.3,0,0.4,0c0,0,0,0,0,0c3.9,2.5,8.2,3.8,13,3.8
			c4.3,0,8.3-1,11.7-2.9c1.1-0.6,2.2-1.4,3.2-2.2c0.6,0.5,1.2,0.9,1.9,1.4c1.9,1.3,4.1,2.2,6.3,2.9c2.2,0.6,4.5,0.9,6.8,0.9
			c4.8,0,9.2-1.3,13.1-3.8c0.1,0,0.1-0.1,0.2-0.1c1.8,1.9,4.4,3.2,7.3,3.2h13c4.8,0,9.1-1.1,12.9-3.4c0.1,0,0.1-0.1,0.2-0.1
			c1.8,2.1,4.5,3.5,7.6,3.5h21.7c2.3,0,4.5-0.8,6.2-2.1c1.7,1.3,3.9,2.1,6.2,2.1h8.9c1.9,0,3.6-0.5,5.2-1.4c1.5,0.9,3.3,1.4,5.2,1.4
			h8.9c1.7,0,3.3-0.4,4.7-1.2c1.4,0.7,3,1.2,4.7,1.2h8c3,0,5.8-1.4,7.7-3.6c1.9,2.2,4.6,3.6,7.7,3.6h8.1c0.7,0,1.3-0.1,2-0.2
			c0.7,0.1,1.4,0.2,2.1,0.2h7.9c1.5,0,2.9-0.3,4.2-0.9c1.3,0.6,2.7,0.9,4.2,0.9h8.4c1.6,0,3.1-0.4,4.4-1.1c0.5,0.2,1,0.4,1.5,0.5
			c3,0.9,6.2,1.3,9.4,1.3c4.3,0,8.2-0.9,11.4-2.6c3.5-1.9,6.3-4.6,8.1-7.8c1.8-3.1,2.6-6.6,2.6-10.4
			C416.8,418.7,415.6,414.9,413.3,411.8z"/>
		<g class="st27">
			<g>
				<path class="st28" d="M174.6,428.8c-1.2,1.5-2.6,2.8-4.2,3.7c-2,1.1-4.3,1.7-6.9,1.7c-2.8,0-5.3-0.7-7.5-2.2
					c-0.4-0.3-0.8-0.5-1.1-0.8L174.6,428.8z"/>
				<path class="st28" d="M315.3,412l-5.5,21.4h-8.9l-4.4-17.8c-0.1-0.3-0.4-0.5-0.7-0.5h0c-0.3,0-0.6,0.2-0.7,0.5l-4.6,17.8h-8.9
					l-4.3-16.8l7.7-0.9l0.9,3.8c0.1,0.3,0.4,0.5,0.7,0.5c0,0,0,0,0,0c0.3,0,0.6-0.2,0.7-0.5l1.1-4.2l14.5-1.7l1.5,6.2
					c0.1,0.3,0.4,0.5,0.7,0.5s0.6-0.2,0.7-0.5l1.7-6.8L315.3,412z"/>
				<path class="st28" d="M406.8,423.2c0,2-0.5,3.9-1.4,5.5c-0.9,1.6-2.3,2.9-4.1,3.9c-1.8,1-4.1,1.5-6.7,1.5
					c-2.2,0-4.4-0.3-6.5-0.9c-1.9-0.5-3.5-1.3-4.7-2.2l2.5-7.1c1.2,0.7,2.5,1.4,3.8,1.8c1.7,0.6,3.4,0.9,5,0.9
					c1.4,0,2.5-0.2,3.1-0.6c0.8-0.4,1.2-1.1,1.2-2c0-0.7-0.3-1.7-1.5-2.3c-0.8-0.4-2-0.8-3.7-1.2c-2.1-0.5-3.9-1.1-5.2-1.8
					c-1.3-0.6-2.5-1.6-3.4-2.9c-1-1.3-1.5-3.2-1.5-5.5c0-2,0.5-3.9,1.4-5.6c0.3-0.5,0.6-1,0.9-1.4l18.1-2.2c0.5,0.2,1,0.5,1.4,0.8
					l-2.4,7c-2.6-1.5-5-2.2-7.3-2.2c-3.6,0-4.3,1.6-4.3,2.9c0,0.7,0.3,1.6,1.5,2.2c0.8,0.4,2,0.7,3.7,1.2c2.1,0.5,3.8,1,5.2,1.7
					c1.3,0.6,2.5,1.6,3.5,2.9C406.3,419.1,406.8,420.9,406.8,423.2z"/>
				<path class="st28" d="M374,423.8c-0.2-0.3-0.1-0.8,0.2-1c1.6-1,2.8-2.4,3.6-4.1c0.9-1.7,1.3-3.8,1.3-6.1c0-2.5-0.5-4.7-1.5-6.5
					c-0.3-0.5-0.6-1-0.9-1.5l-22.2,2.6v26.1h7.9v-7.9c0-0.4,0.3-0.7,0.7-0.7h2.5c0.3,0,0.5,0.1,0.6,0.4l4.5,8.3h8.4L374,423.8z
					 M370,416.1c-0.8,0.9-1.9,1.3-3.4,1.3h-3.4c-0.4,0-0.7-0.3-0.7-0.7v-8.1c0-0.4,0.3-0.7,0.7-0.7h3.4c1.5,0,2.6,0.4,3.4,1.3
					c0.8,0.8,1.1,2,1.1,3.5C371.1,414.1,370.8,415.3,370,416.1z"/>
				<path class="st28" d="M341.9,408.8l-14.8,1.8l-8,22.8h8l1.7-5.5c0.1-0.3,0.4-0.5,0.7-0.5H340c0.3,0,0.6,0.2,0.7,0.5l1.7,5.5h8.1
					L341.9,408.8z M338,420.1c-0.1,0.2-0.4,0.3-0.6,0.3H332c-0.2,0-0.4-0.1-0.6-0.3c-0.1-0.2-0.2-0.4-0.1-0.6l2.7-8.6
					c0.1-0.3,0.4-0.5,0.7-0.5c0.3,0,0.6,0.2,0.7,0.5l2.7,8.6C338.2,419.7,338.1,420,338,420.1z"/>
				<path class="st28" d="M269.3,426v7.3h-21.7v-13.3l19.5-2.3v2.4h-11c-0.4,0-0.7,0.3-0.7,0.7v4.5c0,0.4,0.3,0.7,0.7,0.7H269.3z"/>
				<path class="st28" d="M241.6,420.8c-0.3,1.8-0.8,3.4-1.6,4.9c-1.2,2.4-3,4.4-5.2,5.7c-2.2,1.3-4.9,2-7.8,2h-13v-9.3l7.9-0.9v1.9
					c0,0.4,0.3,0.7,0.7,0.7h3.9c2.2,0,4-0.8,5.4-2.4c0.4-0.5,0.7-1,1-1.6L241.6,420.8z"/>
				<path class="st28" d="M206.8,424.9c-0.1,0.3-0.3,0.6-0.4,0.9c-1.3,2.6-3.1,4.7-5.3,6.1c-2.3,1.5-4.8,2.2-7.7,2.2
					c-1.4,0-2.8-0.2-4-0.5c-1.3-0.4-2.5-0.9-3.6-1.6c-1.6-1-3-2.4-4.1-4L206.8,424.9z"/>
			</g>
			<g>
				<path class="st28" d="M201.7,407.2c-1.3-2.6-3.1-4.7-5.3-6.1c-2.3-1.5-4.8-2.2-7.7-2.2c-2.8,0-5.4,0.7-7.7,2.2
					c-2.3,1.5-4.1,3.5-5.3,6.1c-1.3,2.6-1.9,5.6-1.9,8.9c0,3.3,0.7,6.3,1.9,8.9c0.4,0.8,0.8,1.5,1.2,2.1l25.2-3c1-2.4,1.5-5.1,1.5-8
					C203.6,412.8,203,409.8,201.7,407.2z M194.8,420.9c-0.6,1.4-1.4,2.5-2.5,3.3c-1.1,0.8-2.3,1.2-3.6,1.2c-1.3,0-2.5-0.4-3.6-1.2
					c-1-0.8-1.9-1.9-2.5-3.3c-0.6-1.4-0.9-3-0.9-4.8c0-1.8,0.3-3.5,0.9-4.8c0.6-1.4,1.4-2.5,2.5-3.3c1.1-0.8,2.3-1.2,3.6-1.2
					c1.3,0,2.5,0.4,3.6,1.2c1,0.8,1.9,1.9,2.5,3.3c0.6,1.4,0.9,3,0.9,4.8C195.6,417.9,195.3,419.6,194.8,420.9z"/>
				<path class="st28" d="M237.2,416.1c0,1.4-0.1,2.7-0.3,3.9l-8.7,1c0.6-1.3,1-3,1-4.9c0-2.7-0.7-4.9-2-6.5
					c-1.3-1.6-3.2-2.4-5.4-2.4h-3.9c-0.4,0-0.7,0.3-0.7,0.7v14.4l-7.9,0.9v-23.7h13c3,0,5.6,0.7,7.8,2c2.2,1.3,4,3.2,5.2,5.7
					C236.6,409.8,237.2,412.7,237.2,416.1z"/>
				<path class="st28" d="M250.6,407.7v4c0,0.4,0.3,0.7,0.7,0.7h11v4.6l-19.5,2.3v-19.7H264v7.3h-12.7
					C251,406.9,250.6,407.3,250.6,407.7z"/>
				<polygon class="st28" points="280.2,414.8 272.5,415.8 268.3,399.6 276.5,399.6 				"/>
				<polygon class="st28" points="298.2,412.7 283.7,414.4 287.6,399.6 295,399.6 				"/>
				<polygon class="st28" points="313.5,399.6 310.5,411.2 302.9,412.1 306.1,399.6 				"/>
				<path class="st28" d="M399.3,400.6l-18.1,2.2c0.8-1,1.9-1.8,3.1-2.5c1.8-1,4.1-1.4,6.7-1.4c1.8,0,3.7,0.2,5.4,0.7
					C397.5,399.9,398.4,400.2,399.3,400.6z"/>
				<path class="st28" d="M372,403.9l-22.2,2.6v-6.9h12.7c2.4,0,4.6,0.5,6.4,1.5C370.1,401.8,371.2,402.7,372,403.9z"/>
				<polygon class="st28" points="337.1,408.1 322.4,409.8 326,399.6 334.1,399.6 				"/>
				<path class="st28" d="M165.4,421.8l4.9,5.4c-0.2,0.2-0.3,0.5-0.5,0.7l-19.7,2.4c-1.7-1.3-3.1-3.1-4.1-5.3
					c-1.3-2.6-1.9-5.6-1.9-9c0-3.3,0.6-6.4,1.9-9c1.3-2.6,3.1-4.7,5.3-6.1c2.2-1.4,4.8-2.2,7.5-2.2c2.6,0,4.9,0.6,6.9,1.7
					c1.9,1,3.4,2.5,4.7,4.4l-4.9,5.4c-1.7-2.4-3.8-3.6-6.1-3.6c-2.2,0-4,0.9-5.3,2.6c-1.3,1.7-1.9,3.9-1.9,6.7c0,2.8,0.7,5,1.9,6.7
					c1.3,1.7,3.1,2.6,5.3,2.6C161.6,425.4,163.6,424.2,165.4,421.8z"/>
			</g>
		</g>
	</g>
</g>
</svg>
