<svg width="14" height="15" viewBox="0 0 14 15" fill="none" xmlns="http://www.w3.org/2000/svg">
  <g clip-path="url(#clip0_128_11557)">
    <path d="M5.03475 9.42871C5.51592 9.42871 5.90599 9.81878 5.90599 10.2999V14.0373C5.90599 14.5185 5.51592 14.9085 5.03475 14.9085C4.55365 14.9085 4.16357 14.5185 4.16357 14.0373V10.2999C4.16357 9.81884 4.55365 9.42877 5.03475 9.42877V9.42871Z" fill="#979797" />
    <path d="M3.04567 4.93555C3.04279 4.96858 3.04028 5.00199 3.04028 5.03576V10.6982C3.04028 11.3072 3.52231 11.7978 4.12069 11.7978H9.87903C10.4775 11.7978 10.9595 11.3071 10.9595 10.6982V5.03576C10.9595 5.00199 10.9583 4.96846 10.9555 4.93555H3.04567Z" fill="#979797" />
    <path d="M8.96526 9.42809C9.44643 9.42809 9.8365 9.81816 9.8365 10.2993V14.0367C9.8365 14.5179 9.44643 14.9079 8.96526 14.9079C8.48416 14.9079 8.09409 14.5179 8.09409 14.0367V10.2993C8.09409 9.81823 8.48416 9.42815 8.96526 9.42815V9.42809ZM1.64053 5.43866C2.12163 5.43866 2.5117 5.82873 2.5117 6.3099V10.0473C2.5117 10.5284 2.12163 10.9185 1.64053 10.9185C1.15936 10.9185 0.769287 10.5284 0.769287 10.0473V6.30996C0.769226 5.82879 1.1593 5.43866 1.64053 5.43866ZM12.3595 5.43866C12.8406 5.43866 13.2307 5.82873 13.2307 6.3099V10.0473C13.2307 10.5284 12.8406 10.9185 12.3595 10.9185C11.8783 10.9185 11.4883 10.5284 11.4883 10.0473V6.30996C11.4883 5.82879 11.8783 5.43866 12.3595 5.43866V5.43866ZM3.07118 4.56277C3.0954 2.82348 4.61348 1.39741 6.56212 1.20947H7.43771C9.38648 1.39747 10.9044 2.8236 10.9287 4.56277H3.07118Z" fill="#979797" />
    <path fill-rule="evenodd" clip-rule="evenodd" d="M3.30737 0.926629C3.37133 0.889702 3.45312 0.911618 3.49004 0.97558L4.40906 2.56744C4.44599 2.6314 4.42407 2.71319 4.36011 2.75011C4.29615 2.78704 4.21436 2.76512 4.17744 2.70116L3.25842 1.1093C3.22149 1.04534 3.24341 0.963556 3.30737 0.926629ZM10.6927 0.926631C10.7567 0.963559 10.7786 1.04535 10.7417 1.10931L9.8226 2.70117C9.78568 2.76513 9.70389 2.78704 9.63993 2.75011C9.57597 2.71318 9.55405 2.6314 9.59098 2.56743L10.5101 0.975577C10.547 0.911616 10.6288 0.889702 10.6927 0.926631Z" fill="#979797" />
    <path d="M5.82956 3.00494C5.8303 3.24806 5.62908 3.44573 5.38009 3.4464C5.13121 3.44701 4.92884 3.25051 4.9281 3.00739V3.00494C4.92743 2.76176 5.12864 2.56415 5.37758 2.56348C5.62645 2.56281 5.82883 2.75925 5.82956 3.00249V3.00494ZM9.19411 3.00494C9.19485 3.24806 8.99363 3.44573 8.74464 3.4464C8.49577 3.44701 8.29339 3.25051 8.29265 3.00739V3.00494C8.29198 2.76176 8.4932 2.56415 8.74213 2.56348C8.991 2.56281 9.19338 2.75925 9.19411 3.00249V3.00494Z" fill="white" />
  </g>
  <defs>
    <clipPath id="clip0_128_11557">
      <rect width="14" height="14" fill="white" transform="translate(0 0.908691)" />
    </clipPath>
  </defs>
</svg>
  