<svg width="14" height="15" viewBox="0 0 14 15" fill="none" xmlns="http://www.w3.org/2000/svg">
  <g clip-path="url(#clip0_128_11551)">
    <path d="M7.86185 1.92704C8.09309 2.32801 8.25142 3.32246 8.33458 4.63929H9.81202V3.24158C9.78012 3.22678 9.74937 3.20969 9.71975 3.19032C9.66393 3.15501 9.61267 3.114 9.56825 3.06958L9.56255 3.06388C9.48395 2.98528 9.4213 2.89073 9.37802 2.78594C9.33473 2.68228 9.31081 2.56836 9.31081 2.44876C9.31081 2.33029 9.33473 2.21751 9.37802 2.11272C9.42244 2.0045 9.48851 1.90767 9.56825 1.8268C9.64913 1.74592 9.74595 1.68099 9.85417 1.63656C9.95783 1.59328 10.0717 1.56935 10.1902 1.56935C10.3087 1.56935 10.4215 1.59328 10.5262 1.63656C10.6345 1.68099 10.7313 1.74706 10.8122 1.8268C10.893 1.90767 10.958 2.0045 11.0024 2.11158L11.0047 2.11841C11.0457 2.22093 11.0685 2.33257 11.0685 2.44762C11.0685 2.56609 11.0445 2.67886 11.0013 2.78366C10.9568 2.89187 10.8908 2.9887 10.811 3.06958L10.8042 3.07641C10.7643 3.11514 10.7199 3.15159 10.6732 3.18235C10.6481 3.19944 10.6219 3.21425 10.5946 3.22905V5.03342C10.5946 5.14164 10.5502 5.2396 10.4795 5.31023C10.4089 5.38085 10.311 5.42528 10.2027 5.42528H8.37331C8.38698 5.80005 8.39609 6.19419 8.39951 6.60085H11.867C11.8818 6.57123 11.8978 6.54276 11.9148 6.51542L11.9194 6.50972C11.9524 6.45846 11.9912 6.41176 12.0322 6.37075C12.113 6.28987 12.2099 6.22494 12.3181 6.18052L12.3249 6.17824C12.4274 6.13723 12.5391 6.11331 12.6541 6.11331C12.7726 6.11331 12.8854 6.13723 12.9902 6.18052C13.0984 6.22494 13.1952 6.29101 13.2761 6.37075C13.357 6.45163 13.4219 6.54845 13.4663 6.65667C13.5096 6.76147 13.5335 6.87424 13.5335 6.99271C13.5335 7.11118 13.5096 7.22395 13.4663 7.32875C13.4219 7.43697 13.3558 7.53379 13.2761 7.61467C13.1952 7.69555 13.0984 7.76048 12.9902 7.8049L12.9833 7.80718C12.8808 7.84819 12.7692 7.87097 12.6541 7.87097C12.5357 7.87097 12.4217 7.84705 12.3181 7.80376C12.211 7.75934 12.1142 7.69441 12.0322 7.61353C11.9889 7.57024 11.9502 7.5224 11.916 7.46886C11.8978 7.44152 11.8818 7.41304 11.867 7.38343H8.40065C8.39723 7.82768 8.38812 8.28219 8.37331 8.74468H12.612C12.7202 8.74468 12.8182 8.7891 12.8888 8.85973C12.9594 8.93035 13.0038 9.02832 13.0038 9.13653V12.0447C13.0414 12.0607 13.0767 12.0789 13.1109 12.0994C13.1724 12.1358 13.2282 12.1803 13.2784 12.2304C13.3592 12.3113 13.4242 12.4081 13.4686 12.5163L13.4709 12.5231C13.5119 12.6257 13.5358 12.7373 13.5358 12.8523C13.5358 12.9708 13.5119 13.0836 13.4686 13.1884C13.4242 13.2966 13.3581 13.3934 13.2784 13.4743C13.1975 13.5552 13.1007 13.6201 12.9924 13.6645C12.8888 13.7078 12.7749 13.7317 12.6564 13.7317C12.5379 13.7317 12.4252 13.7078 12.3204 13.6645C12.2121 13.6201 12.1153 13.554 12.0344 13.4743C11.9536 13.3934 11.8886 13.2966 11.8442 13.1884C11.8009 13.0847 11.777 12.9708 11.777 12.8523C11.777 12.7339 11.8009 12.62 11.8442 12.5163C11.8886 12.4081 11.9547 12.3113 12.0344 12.2304C12.0709 12.1939 12.1119 12.1598 12.1552 12.129C12.1757 12.1142 12.1973 12.1005 12.2201 12.088V9.52953H8.34256C8.32547 9.89861 8.30496 10.2688 8.2799 10.6379H9.53749C9.64571 10.6379 9.74367 10.6823 9.8143 10.7529C9.88492 10.8236 9.92935 10.9215 9.92935 11.0298V12.5858C9.95783 12.6006 9.98403 12.6165 10.0114 12.6336C10.0638 12.6678 10.1105 12.7065 10.1526 12.7487L10.1595 12.7555C10.2369 12.8353 10.3007 12.9298 10.344 13.0346C10.3873 13.1383 10.4112 13.2522 10.4112 13.3706C10.4112 13.4891 10.3873 13.603 10.344 13.7067L10.3406 13.7135C10.2961 13.8195 10.2312 13.914 10.1526 13.9926L10.1469 13.9983C10.0672 14.0769 9.97264 14.1407 9.86898 14.184C9.76532 14.2273 9.65027 14.2512 9.5318 14.2512C9.41333 14.2512 9.30056 14.2273 9.19576 14.184C9.08754 14.1396 8.99071 14.0735 8.90984 13.9937L8.903 13.9869C8.82554 13.9072 8.76175 13.8126 8.71846 13.7078C8.67518 13.603 8.65126 13.4903 8.65126 13.3718C8.65126 13.2533 8.67518 13.1405 8.71846 13.0357C8.76289 12.9275 8.82782 12.8307 8.9087 12.7498C8.95312 12.7054 9.00324 12.6655 9.05564 12.6314C9.08412 12.6131 9.11374 12.596 9.1445 12.5812V11.4228H8.22181C8.20928 11.5788 8.19561 11.7349 8.18194 11.8898C8.16371 12.0903 8.10562 12.4605 8.14321 12.6439C8.24345 13.1303 7.80489 14.5975 6.51541 14.8675C5.87978 14.9996 5.2225 14.8048 4.72699 14.4175C4.33057 14.1088 4.03326 13.6748 3.92618 13.1838C3.71886 13.1759 3.50813 13.1337 3.30308 13.0654C2.84971 12.9127 2.41343 12.6154 2.07283 12.2213C1.72996 11.826 1.48163 11.3293 1.40303 10.7769C1.36316 10.4887 1.36886 10.1879 1.43265 9.8781C1.21052 9.67648 1.01915 9.44979 0.867644 9.2026C0.603368 8.77999 0.4587 8.30384 0.464395 7.81402C0.470091 7.32078 0.62729 6.8207 0.967887 6.35594C1.16609 6.08597 1.42695 5.82853 1.7573 5.59273C1.75388 5.50274 1.75388 5.41275 1.75616 5.3239C1.78236 4.60397 2.04777 3.97062 2.43507 3.49789C2.83605 3.00806 3.37257 2.68797 3.92391 2.60937H3.92618C3.94555 2.52849 3.96833 2.44876 3.99795 2.3713C4.17565 1.88945 4.54131 1.47936 4.98898 1.21851C5.44008 0.956508 5.98116 0.840318 6.50857 0.949673C7.01548 1.05675 7.49847 1.35976 7.86185 1.92704ZM3.96947 12.2122C4.15629 11.6244 4.64953 11.0377 5.58019 10.5627C5.81257 10.4454 6.09507 10.5365 6.21468 10.7678C6.33201 11.0001 6.24088 11.2826 6.00964 11.4022C5.14732 11.8431 4.82267 12.3489 4.82267 12.7897C4.82267 13.1337 5.0186 13.4549 5.30338 13.6782C5.59272 13.9026 5.96635 14.0199 6.31948 13.947C6.75918 13.8559 7.18293 13.4492 7.40278 12.563V3.245C7.18293 2.3656 6.75918 1.96121 6.32062 1.87008C6.03128 1.80971 5.72372 1.87806 5.46172 2.03184C5.1963 2.18562 4.98329 2.42256 4.88191 2.69595C4.74749 3.06046 4.82723 3.50814 5.28288 3.92961C5.47197 4.10618 5.4845 4.40121 5.30794 4.5903C5.13137 4.7794 4.83634 4.79193 4.64725 4.61536C4.29298 4.2873 4.07427 3.93873 3.96491 3.59129C3.68583 3.6585 3.41016 3.84304 3.18689 4.11415C2.92604 4.43197 2.74719 4.86255 2.72897 5.35693C2.72441 5.48793 2.73125 5.6269 2.75061 5.76929H2.74947C2.77453 5.95383 2.69252 6.1452 2.52393 6.24886C2.18219 6.45846 1.93044 6.6897 1.75388 6.93006C1.53973 7.22167 1.44176 7.5281 1.43834 7.82313C1.43493 8.12272 1.5272 8.42117 1.69237 8.68886C1.83248 8.91555 2.02385 9.12287 2.25737 9.29601C2.4328 9.41676 2.51481 9.6423 2.44305 9.85304C2.35078 10.1264 2.33028 10.3918 2.36559 10.639C2.41571 10.9944 2.58088 11.3191 2.80643 11.5799C3.03311 11.8419 3.32017 12.0379 3.61406 12.1381C3.73253 12.1837 3.85214 12.2065 3.96947 12.2122ZM4.07655 5.59273C4.26109 5.41161 4.55726 5.41389 4.73952 5.59843C4.92064 5.78296 4.91836 6.07913 4.73382 6.26139C4.33171 6.65781 4.12211 7.16813 4.09933 7.68985C4.07769 8.22752 4.25197 8.78113 4.61877 9.23564C4.78166 9.43726 4.74863 9.7323 4.547 9.89519C4.34538 10.0581 4.05035 10.025 3.88745 9.82342C3.37371 9.18666 3.12994 8.41205 3.16069 7.65226C3.19373 6.89816 3.49674 6.16229 4.07655 5.59273Z" fill="#979797" />
  </g>
  <defs>
    <clipPath id="clip0_128_11551">
      <rect width="14" height="14" fill="white" transform="translate(0 0.908691)" />
    </clipPath>
  </defs>
</svg>
  