<svg width="100%" height="100%" viewBox="0 0 75 26" fill="none" xmlns="http://www.w3.org/2000/svg">
  <g clipPath="url(#clip0_20948_268253)">
    <path
      d="M21.8425 16.7613C21.8425 17.6558 21.9399 18.3811 22.1103 18.9129C22.305 19.4448 22.5484 20.025 22.8892 20.6536C23.0109 20.847 23.0596 21.0404 23.0596 21.2097C23.0596 21.4514 22.9136 21.6932 22.5971 21.9349L21.0636 22.9503C20.8445 23.0954 20.6254 23.1679 20.4307 23.1679C20.1872 23.1679 19.9438 23.047 19.7004 22.8294C19.3596 22.4668 19.0675 22.08 18.8241 21.6932C18.5807 21.2822 18.3372 20.8228 18.0695 20.2668C16.1708 22.491 13.7853 23.6031 10.9129 23.6031C8.86816 23.6031 7.23724 23.0228 6.04448 21.8624C4.85172 20.702 4.24316 19.1547 4.24316 17.2206C4.24316 15.1657 4.97343 13.4976 6.4583 12.2404C7.94316 10.9833 9.91487 10.3547 12.4221 10.3547C13.2497 10.3547 14.1017 10.4272 15.0024 10.5481C15.903 10.669 16.828 10.8624 17.8017 11.08V9.31515C17.8017 7.47778 17.4122 6.19647 16.6576 5.44701C15.8787 4.69756 14.5642 4.33493 12.6899 4.33493C11.8379 4.33493 10.9616 4.43163 10.0609 4.64921C9.16027 4.86679 8.28395 5.13273 7.43198 5.47119C7.04251 5.64042 6.7504 5.73712 6.58001 5.78548C6.40961 5.83383 6.2879 5.858 6.19053 5.858C5.84974 5.858 5.67935 5.61625 5.67935 5.10855V3.92394C5.67935 3.53712 5.72803 3.24701 5.84974 3.07778C5.97145 2.90855 6.19053 2.73932 6.53132 2.57009C7.3833 2.13493 8.40566 1.77229 9.59843 1.48218C10.7912 1.16789 12.057 1.02284 13.3958 1.02284C16.2925 1.02284 18.4103 1.67559 19.7734 2.98108C21.1122 4.28657 21.7938 6.26899 21.7938 8.92833V16.7613H21.8425ZM11.9596 20.436C12.7629 20.436 13.5905 20.291 14.4668 20.0009C15.3432 19.7108 16.1221 19.1789 16.7793 18.4536C17.1688 17.9943 17.4609 17.4866 17.607 16.9064C17.753 16.3261 17.8504 15.625 17.8504 14.8031V13.7877C17.1445 13.6184 16.3899 13.4734 15.6109 13.3767C14.832 13.28 14.0774 13.2316 13.3228 13.2316C11.6918 13.2316 10.4991 13.5459 9.6958 14.1987C8.89251 14.8514 8.50303 15.7701 8.50303 16.9789C8.50303 18.1151 8.79514 18.9613 9.40369 19.5415C9.9879 20.1459 10.8399 20.436 11.9596 20.436ZM31.5063 23.047C31.0682 23.047 30.7761 22.9745 30.5813 22.8053C30.3866 22.6602 30.2162 22.3217 30.0701 21.8624L24.3497 3.17449C24.2037 2.69097 24.1307 2.37669 24.1307 2.20745C24.1307 1.82064 24.3254 1.60306 24.7149 1.60306H27.1004C27.5629 1.60306 27.8793 1.67559 28.0497 1.84482C28.2445 1.98987 28.3905 2.32833 28.5366 2.78767L32.6261 18.7921L36.4234 2.78767C36.5451 2.30416 36.6912 1.98987 36.8859 1.84482C37.0807 1.69976 37.4215 1.60306 37.8596 1.60306H39.807C40.2695 1.60306 40.5859 1.67559 40.7807 1.84482C40.9754 1.98987 41.1458 2.32833 41.2432 2.78767L45.0892 18.9855L49.3004 2.78767C49.4464 2.30416 49.6168 1.98987 49.7872 1.84482C49.982 1.69976 50.2984 1.60306 50.7366 1.60306H53.0004C53.3899 1.60306 53.6089 1.79647 53.6089 2.20745C53.6089 2.32833 53.5846 2.44921 53.5603 2.59427C53.5359 2.73932 53.4872 2.93273 53.3899 3.19866L47.5234 21.8866C47.3774 22.3701 47.207 22.6844 47.0122 22.8294C46.8175 22.9745 46.5011 23.0712 46.0872 23.0712H43.9938C43.5313 23.0712 43.2149 22.9987 43.0201 22.8294C42.8254 22.6602 42.655 22.3459 42.5576 21.8624L38.7846 6.26899L35.0359 21.8382C34.9142 22.3217 34.7682 22.636 34.5734 22.8053C34.3787 22.9745 34.0379 23.047 33.5997 23.047H31.5063ZM62.7859 23.6998C61.5201 23.6998 60.2543 23.5547 59.0372 23.2646C57.8201 22.9745 56.8708 22.6602 56.2379 22.2976C55.8484 22.08 55.5807 21.8382 55.4833 21.6206C55.3859 21.4031 55.3372 21.1613 55.3372 20.9437V19.7108C55.3372 19.2031 55.532 18.9613 55.8971 18.9613C56.0432 18.9613 56.1892 18.9855 56.3353 19.0338C56.4813 19.0822 56.7004 19.1789 56.9438 19.2756C57.7715 19.6382 58.6721 19.9283 59.6215 20.1217C60.5951 20.3151 61.5445 20.4118 62.5182 20.4118C64.0517 20.4118 65.2445 20.1459 66.0721 19.614C66.8997 19.0822 67.3379 18.3086 67.3379 17.3173C67.3379 16.6404 67.1188 16.0844 66.6807 15.625C66.2425 15.1657 65.4149 14.7547 64.2221 14.3679L60.6925 13.28C58.9155 12.7239 57.6011 11.902 56.7978 10.814C55.9945 9.75031 55.5807 8.5657 55.5807 7.30855C55.5807 6.29317 55.7997 5.39866 56.2379 4.62504C56.6761 3.85141 57.2603 3.17449 57.9905 2.64262C58.7208 2.08658 59.5484 1.67559 60.5221 1.38548C61.4958 1.09537 62.5182 0.974487 63.5892 0.974487C64.1247 0.974487 64.6846 0.998663 65.2201 1.07119C65.78 1.14372 66.2912 1.24042 66.8024 1.33712C67.2892 1.458 67.7517 1.57888 68.1899 1.72394C68.628 1.86899 68.9688 2.01405 69.2122 2.1591C69.553 2.35251 69.7964 2.54592 69.9425 2.7635C70.0886 2.9569 70.1616 3.22284 70.1616 3.5613V4.69756C70.1616 5.20526 69.9669 5.47119 69.6017 5.47119C69.407 5.47119 69.0905 5.37449 68.6767 5.18108C67.2892 4.55251 65.7313 4.23822 64.003 4.23822C62.6155 4.23822 61.5201 4.45581 60.7655 4.91515C60.0109 5.37449 59.6215 6.07559 59.6215 7.06679C59.6215 7.74372 59.8649 8.32394 60.3517 8.78328C60.8386 9.24262 61.7392 9.70196 63.0293 10.1129L66.4859 11.2009C68.2386 11.7569 69.5043 12.5305 70.2589 13.5217C71.0135 14.5129 71.3787 15.6492 71.3787 16.9064C71.3787 17.9459 71.1596 18.8888 70.7458 19.7108C70.3076 20.5327 69.7234 21.258 68.9688 21.8382C68.2142 22.4426 67.3136 22.8778 66.2668 23.1921C65.1714 23.5305 64.0274 23.6998 62.7859 23.6998Z"
      fill="currentColor"/>
    <path
      fillRule="evenodd"
      clipRule="evenodd"
      d="M67.3866 35.4492C59.378 41.3239 47.7425 44.4426 37.7379 44.4426C23.7168 44.4426 11.0833 39.2932 1.54116 30.7349C0.786555 30.058 1.46813 29.1393 2.36879 29.6712C12.6898 35.6184 25.4208 39.2206 38.5898 39.2206C47.4747 39.2206 57.2359 37.3833 66.2181 33.6118C67.557 33.0074 68.701 34.4822 67.3866 35.4492Z"
      fill="#f90"/>
    <path
      fillRule="evenodd"
      clipRule="evenodd"
      d="M70.7214 31.6778C69.699 30.3723 63.9543 31.0492 61.3497 31.3635C60.5708 31.4602 60.449 30.7833 61.155 30.2756C65.7313 27.0844 73.253 28.0031 74.1293 29.0668C75.0056 30.1547 73.8859 37.6251 69.6017 41.2031C68.9444 41.7591 68.3115 41.469 68.6036 40.7437C69.5773 38.3503 71.7438 32.9591 70.7214 31.6778Z"
      fill="#f90"/>
  </g>
  <defs>
    <clipPath id="clip0_20948_268253">
      <rect width="74" height="44" fill="white" transform="translate(0.810913 0.708496)"/>
    </clipPath>
  </defs>
</svg>
