<svg width="14" height="15" viewBox="0 0 14 15" fill="none" xmlns="http://www.w3.org/2000/svg">
  <path d="M6.99999 9.05199C7.63136 9.05199 8.14318 8.54017 8.14318 7.90881C8.14318 7.27745 7.63136 6.76562 6.99999 6.76562C6.36863 6.76562 5.85681 7.27745 5.85681 7.90881C5.85681 8.54017 6.36863 9.05199 6.99999 9.05199Z" fill="#979797" />
  <path d="M7 10.2507C10.3878 10.2507 13.1341 9.20206 13.1341 7.90854C13.1341 6.61501 10.3878 5.56641 7 5.56641C3.6122 5.56641 0.865845 6.61501 0.865845 7.90854C0.865845 9.20206 3.6122 10.2507 7 10.2507Z" stroke="#979797" stroke-width="0.5" />
  <path d="M4.97169 9.07976C6.66559 12.0137 8.94689 13.8678 10.0671 13.221C11.1873 12.5743 10.7223 9.67154 9.02838 6.73762C7.33448 3.8037 5.05318 1.9496 3.93296 2.59636C2.81273 3.24312 3.27779 6.14584 4.97169 9.07976Z" stroke="#979797" stroke-width="0.5" />
  <path d="M4.97169 6.73778C3.27779 9.6717 2.81274 12.5744 3.93296 13.2212C5.05319 13.8679 7.33448 12.0138 9.02838 9.07991C10.7223 6.14599 11.1873 3.24327 10.0671 2.59651C8.94689 1.94975 6.66559 3.80386 4.97169 6.73778Z" stroke="#979797" stroke-width="0.5" />
</svg>
  