<?xml version="1.0" encoding="utf-8"?>
<!-- Generator: Adobe Illustrator 26.0.3, SVG Export Plug-In . SVG Version: 6.00 Build 0)  -->
<!DOCTYPE svg PUBLIC "-//W3C//DTD SVG 1.1//EN" "http://www.w3.org/Graphics/SVG/1.1/DTD/svg11.dtd" [
	<!ENTITY ns_extend "http://ns.adobe.com/Extensibility/1.0/">
	<!ENTITY ns_ai "http://ns.adobe.com/AdobeIllustrator/10.0/">
	<!ENTITY ns_graphs "http://ns.adobe.com/Graphs/1.0/">
	<!ENTITY ns_vars "http://ns.adobe.com/Variables/1.0/">
	<!ENTITY ns_imrep "http://ns.adobe.com/ImageReplacement/1.0/">
	<!ENTITY ns_sfw "http://ns.adobe.com/SaveForWeb/1.0/">
	<!ENTITY ns_custom "http://ns.adobe.com/GenericCustomNamespace/1.0/">
	<!ENTITY ns_adobe_xpath "http://ns.adobe.com/XPath/1.0/">
]>
<svg version="1.1" id="Слой_1" xmlns:x="&ns_extend;" xmlns:i="&ns_ai;" xmlns:graph="&ns_graphs;"
	 xmlns="http://www.w3.org/2000/svg" xmlns:xlink="http://www.w3.org/1999/xlink" x="0px" y="0px" width="439.5px" height="405.5px"
	 viewBox="0 0 439.5 405.5" style="enable-background:new 0 0 439.5 405.5;" xml:space="preserve">
<style type="text/css">
	.st0{fill:#FFFFFF;}
	.st1{fill:#FFDB1F;}
	.st2{fill:#CAA77A;}
	.st3{fill:none;stroke:#2D1F04;stroke-width:2.62;stroke-linecap:round;stroke-linejoin:round;stroke-miterlimit:10;}
	.st4{fill:#FFE980;}
	.st5{fill:#2D1F04;}
	.st6{fill:#F31010;}
	.st7{fill:#FFDBAF;}
	.st8{fill:#9D7B51;}
	.st9{fill:none;stroke:#2D1F04;stroke-width:9.9025;stroke-linecap:round;stroke-linejoin:round;stroke-miterlimit:10;}
	.st10{fill:none;stroke:#AA8963;stroke-width:3.5445;stroke-linecap:round;stroke-linejoin:round;stroke-miterlimit:10;}
	.st11{opacity:0.2307;fill:#3F2719;}
	.st12{opacity:0.2307;fill:#545454;}
	.st13{opacity:0.2307;fill:#969696;}
	.st14{fill:#312109;}
	.st15{fill:none;stroke:#312109;stroke-width:2.62;stroke-linecap:round;stroke-linejoin:round;stroke-miterlimit:10;}
	.st16{fill:#B6B1AE;}
	.st17{fill:none;stroke:#FF8080;stroke-width:1.9293;stroke-linecap:round;stroke-linejoin:round;stroke-miterlimit:10;}
	.st18{fill:none;stroke:#B30000;stroke-width:1.9293;stroke-linecap:round;stroke-linejoin:round;stroke-miterlimit:10;}
	.st19{opacity:0.2289;fill:#312109;}
	.st20{opacity:0.2327;fill:#312109;}
	.st21{opacity:0.2327;fill:#3F2719;}
</style>
<metadata>
	<sfw  xmlns="&ns_sfw;">
		<slices></slices>
		<sliceSourceBounds  bottomLeftOrigin="true" height="405.5" width="439.5" x="288.9" y="125.5"></sliceSourceBounds>
	</sfw>
</metadata>
<g>
	<path class="st0" d="M233.9,405.5c-2.8,0-5.8-0.8-9.3-1.9l-0.2-0.1c-0.5-0.2-1-0.3-1.5-0.4c0,0-0.1,0-0.1,0
		c-8.3-1.4-21.3-3.8-33.3-6.5c-7.2-1.4-12.6-2.6-16.6-3.5c-7.3-1.7-10.7-2.4-13-6c-0.8-1.3-2-2.9-3.3-4.8l-1.2-1.7
		c-2.8-3.3-6.3-8.7-10.6-16.1c-1.7-2.9-3.5-5.9-5.3-9.1c-0.2-0.3-0.5-0.5-0.9-0.5c0,0-1.2,0-1.2,0c-0.3,0-0.6,0.2-0.8,0.4
		c-0.2,0.3-0.2,0.6-0.1,0.9c0.2,0.4,0.3,0.8,0.5,1.3c0,0.1,0.1,0.1,0.1,0.2c4.5,7.1,7.4,17.9,0.9,24.6c-4.7,5.5-12.8,6.9-26.2,9.3
		l-0.1,0c-2.9,0.5-6.2,1.1-9.7,1.8c-11.6,2.3-23.9,3.4-32.1,3.9c-0.2,0-0.4,0-0.6,0c-2.1,0.1-4,0.4-5.8,0.6c-2,0.3-3.7,0.5-5.3,0.5
		c-2.6,0-4.7-0.7-6.5-1.9c-0.9-0.6-1.7-1.2-2.3-2c0,0-0.1-0.1-0.1-0.1c-1.7-1.7-2.7-3.9-2.8-6.2c-0.2-5.8,3.5-8.3,12.4-14.2
		c2.8-1.8,7-4.6,10.2-7c0.4-0.3,0.5-0.7,0.3-1.2l-0.2-0.4c-1-2.6-2-5.3-2-8c0-0.2,0-0.3-0.1-0.4c-3.7-7.2-9-15.8-12.9-22.1
		c-1.2-1.9-2.2-3.6-3.1-5.1c-0.1-0.1-0.1-0.2-0.2-0.3c-10.1-8.5-17.1-19.5-21.9-34.6c-0.1-0.2-0.2-0.4-0.3-0.5
		c-0.9-0.7-1.9-1.6-3-2.7c0,0-0.1-0.1-0.2-0.1c-1.6-1-3.1-1.9-4.6-2.9c-6.7-4-13.4-8.7-17.3-16c-4.6-7-7.3-18.8,5.1-35.3l0.3-0.3
		c2-2.9,4.4-6,7.1-9c6.3-7.5,15.7-18.1,25.5-25.4c1.9-1.4,4.3-3.2,6.9-4.9c0.3-0.2,0.5-0.5,0.4-0.9c0-0.2,0-0.4,0-0.5
		c0-2.1,0.6-4.2,2-6.7c0.7-1.4,1.6-2.8,2.7-4.1c1.9-2.5,4.9-6,8.5-8.9c0.2-0.2,0.4-0.5,0.4-0.8c0-0.6,0-1.1,0.1-1.6c0,0,0-0.1,0-0.1
		c-0.2-6.5,3.2-9.8,5.2-11.1c0.7-0.5,1.4-0.8,2.2-1.1c0.5-0.2,0.8-0.7,0.6-1.2c-1.8-6.7-4.2-13.3-6.5-19.7
		c-3.9-10.7-7.5-20.9-8.1-30.5c-0.1-0.9-0.1-1.8-0.1-2.7c0.1-8.6,3.1-16.9,9.2-25.5c0,0,0.1-0.1,0.1-0.1c2-4.1,5.1-10.4,9.1-16
		c0.2-0.2,0.2-0.5,0.2-0.8c-0.4-2.5,0.2-5.1,1.7-7.1c3.4-4.4,8.1-7.8,13.9-10c0.4-0.1,0.6-0.5,0.6-0.9c0-0.4-0.2-0.8-0.6-0.9
		c-2.6-1.3-4-1.7-4.6-1.9c-0.1,0-0.2,0-0.3,0c0,0,0,0,0,0c-0.1,0-0.3,0-0.4,0c-1.9,0-3.8-0.6-5.3-1.7c-0.1,0-0.1-0.1-0.2-0.1
		c-2.3-1.1-4-3-4.8-5.4c-1.1-3.4-0.1-7.1,2.6-9.5C84.5,21.5,94.3,18,105,18c1.2,0,2.5,0,3.7,0.1c0,0,0.1,0,0.1,0
		c0.2,0,0.5-0.1,0.7-0.3c0.2-0.2,0.3-0.4,0.3-0.7c0-0.9,0.1-1.8,0.2-2.7c0,0,0-0.1,0-0.1c0-1.7,0-2.7,0-2.9c0-1.3,0.4-2.6,1-3.7
		c0-0.1,0.1-0.1,0.1-0.2c1.2-4.4,3.7-6.8,7.5-7.5C119,0,119.5,0,120,0c1.4,0,6.3,0.4,8.6,6.1c0.2,0.4,0.4,1,1.1,1.9
		c0.1,0.1,0.2,0.3,0.3,0.4c2.3,2.9,8.6,8.6,25.1,14c4.6,1.5,9.1,4.1,13.3,7.7c0.2,0.2,0.4,0.2,0.6,0.2c0.2,0,0.4,0,0.5-0.1
		c1.4-0.9,3-1.3,4.7-1.3c2,0,4,0.7,5.6,2c0,0,0.1,0,0.1,0.1l0.5,0.3c13.6,8.6,21.2,20.4,22.7,35c0,0.1,0,0.1,0,0.2
		c1.4,5,3.2,9.9,4.8,14l0.3,0.9c0.1,0.4,0.5,0.6,0.9,0.6c0,0,0.1,0,0.1,0c0.8-0.1,1.6-0.1,2.3-0.1c4.3,0,8.8,1.1,13.5,3.3
		c0.1,0,0.1,0.1,0.2,0.1c5.3,1.2,10.5,4.2,16.1,7.3c5.2,2.9,10.6,5.9,15.7,7.4c1,0.3,1.9,0.5,2.8,0.6c0.1,0,0.1,0,0.2,0
		c0.4,0,0.8-0.3,0.9-0.7c2-6.1,3.6-12.7,3.9-13.9c0.7-4.5,4.5-7.7,8.9-7.7c2.4,0,4.8,1,6.5,2.7c4.4,4.4,11.1,19,11.4,30.1
		c0.2,10.8-5.3,15.6-8.6,17.5c-2.8,1.6-6,2.5-9.5,2.7c-0.4,0-0.7,0.3-0.9,0.6c-0.1,0.3-0.3,0.6-0.4,0.8c-0.6,1.1-1.1,2.2-1.7,3.2
		c-3.3,6.4-7.7,15.1-18.4,15.1c-1.9,0-3.8-0.3-5.8-0.8c0,0-0.1,0-0.1,0c-1-0.1-2.1-0.3-3.3-0.5c-4.1-0.6-7.7-1.2-10.7-1.7
		c-0.1,0-0.1,0-0.2,0c-0.3,0-0.5,0.1-0.7,0.3c-0.2,0.3-0.3,0.6-0.2,0.9c1,3.6,1.8,6.7,2.4,9.2c0.1,0.4,0.3,0.7,0.7,0.8
		c6.9,1.9,13.8,4.6,21,8c16.6,7.4,32.5,17.4,47.4,29.7c0.5,0.4,1,0.8,1.6,1.3c6.9,4.8,14.3,9.9,21.8,14.5c0,0,0.1,0,0.1,0.1
		c2.6,1.2,3.7,1.3,3.9,1.3c2.1,0,4.1,0.6,6.5,1.2c0.6,0.2,1.2,0.3,1.7,0.5c0.1,0,0.1,0,0.2,0c0.9,0,1.8,0,2.7,0
		c2.4,0,4.7-0.1,6.9-0.3c0,0,0.1,0,0.1,0c3.4-0.7,6-1.5,8.2-2.1c3.1-0.9,5.5-1.6,8.1-1.6c1.6,0,3,0.3,4.4,0.8c0.1,0,0.2,0.1,0.3,0.1
		c12.6,0.7,19.7,15.2,22.1,21.4c0.4,1,0.6,2,0.6,3.1c0,1.1-0.1,2.1-0.3,3.1c0,0.1,0,0.3,0,0.4c0,0.2,0.1,0.5,0.1,0.7
		c1.1,6.9,15.2,19,32.2,27.5c0.7,0.4,1.5,0.7,2.2,1.1c0,0,0.1,0,0.1,0l1.9,0.8c4.9,2.1,7.1,3.1,8.9,5.1c2.5,2.8,3.1,6.7,1.6,10.1
		c-2.1,4.6-6.9,6.4-13.6,7.7c-5.3,1-11.9,1.6-18.4,1.6l-0.9,0c-2.5,0.1-4.8,0.2-7.1,0.2c-8.2,0-15.1-0.8-20.7-2.4
		c-2.1-0.6-4.2-1.3-6.3-2c-0.1,0-0.2-0.1-0.3-0.1c-0.1,0-0.2,0-0.3,0.1c-0.4,0.1-0.9,0.3-1.3,0.3c-0.1,0-0.2,0.1-0.3,0.1l-15.7,8.8
		c-0.2,0.1-0.3,0.2-0.4,0.4c-1.7,3.4-3.4,7.5-5.1,11.6l-0.5,1.6c-1,3-2,6.2-3.2,9.3c0,0,0,0.1,0,0.1c-2.3,9.1-8.1,17.6-15.9,23.3
		l-0.1,0.1c-6.7,4.9-14.4,7.6-22.2,7.6c-2.3,0-4.6-0.2-6.8-0.7c-4.2-0.8-7.4-2.6-9.9-4.1c-1.5-0.8-2.7-1.5-3.9-1.9
		c-4-1.3-7.4-2.3-10.6-2.9c-0.1,0-0.1,0-0.2,0c-0.2,0-0.3,0-0.5,0.1l-14.5,8.2c-0.3,0.2-0.5,0.5-0.5,0.9c0.2,4-0.4,7.4-1.8,10.8
		c-1.4,3.3-4,5.8-7.8,7.4c0,0-0.1,0-0.1,0.1c-3.1,1.9-6.9,3.3-11.5,4.1c0,0-0.1,0-0.1,0c-0.2,0.1-0.4,0.1-0.7,0.2
		c-0.3,0.1-0.6,0.4-0.7,0.7s0,0.7,0.2,0.9c2.5,2.9,4.2,5.1,5.1,7.2c0.6,1.4,1,2.7,1.1,4.1c0,0.1,0.1,0.3,0.1,0.4
		c3.5,6.5,0.4,10.6-1.1,12.1C240.5,403.7,238,405.5,233.9,405.5z"/>
	<g>
		<g>
			<g>
				<path class="st1" d="M143,340.6c-4.6-6.9,15.4,32.7,21.6,36.4c10.7,6.5,69.3,19.8,70.3,18.9c0.9-0.8-20.1-27.4-26-32.1
					c-10.5-8.3,2-26.8-0.9-37.9"/>
				<path class="st2" d="M227.5,175.2c-5.4-19-14-53.1-20.4-71.7c-4-11.7-9.4-23.5-12.8-35.5c-1.7-21.2-18.6-28.7-20-30.1
					c0,0-0.2,13.4,7,26C180,63.5,170.6,37,152.3,31C121.8,21.1,120.5,8.9,120,9c-0.6,0.1-3.4,16.7,1.8,22.1
					c-10.6-5.9-27.9-5.9-38.5,3.5c17.2,1.9,23.4,12,27.2,14.9c-4,2.7-3.2,3.9-6.7,7.2c-14.3,13.4-40,31-38.7,53.3
					c1.4,24,26.9,57,14.2,93"/>
				<path class="st3" d="M227.5,175.2c-5.4-19-14-53.1-20.4-71.7c-4-11.7-9.4-23.5-12.8-35.5c-1.7-21.2-18.6-28.7-20-30.1
					c0,0-0.2,13.4,7,26C180,63.5,170.6,37,152.3,31C121.8,21.1,120.5,8.9,120,9c-0.6,0.1-3.4,16.7,1.8,22.1
					c-10.6-5.9-27.9-6-38.5,3.5c17.2,1.9,23.4,12,27.2,14.9c-4,2.7-3.2,3.9-6.7,7.2c-14.3,13.4-40,31-38.7,53.3
					c1.4,24,26.9,57,14.2,93"/>
				<path class="st4" d="M241.9,138.6c15.3,8.2,16.7,0.8,22.5-10.1c-18,2.7-31.6-4.9-34.6-4"/>
				<path class="st3" d="M241.9,138.6c15.3,8.2,16.7,0.8,22.5-10.1c-18,2.7-31.6-4.9-34.6-4"/>
				<path class="st1" d="M207.5,96.5c39.7-1,6.7,33.4,15.4,39.6c3.6,2.6,30.1,5.9,30.1,5.9s-14.5-2.4-14.6-10.8
					c-0.1-9.1,3.3-26.3-6.8-31.4"/>
				<path class="st3" d="M207.5,96.5c39.7-1,6.7,33.4,15.4,39.6c3.6,2.6,30.1,5.9,30.1,5.9s-14.5-2.4-14.6-10.8
					c-0.1-9.1,3.3-26.3-6.8-31.4"/>
				<path class="st0" d="M222.3,175.1c2.4,1.5,13.9,2,16.4,2.3c7.6,1,14.5,3.3,21.2,7.1c8.1,4.6,13.5,13.3,20.8,19.1
					c18.1,14.5,31.3,34.7,49,50c8.7,7.5,16.9,14.7,27.2,20.1c2.5,1.3,9,3,10.4,5.7c0.4,0.7-1.6,0.4-2.4,0.7
					c-3.8,1.5-7.6,3.7-11.6,4.7c-4.5,1.1-6.5,7.6-9.6,11.5c-4.6,5.8-6.2,16.3-7.6,23.3c-3,15.1-18.5,28.6-35,25.3
					c-4.9-1-8.2-4.2-12.8-5.7c-9-3-18.5-5.2-28-4.3c-2.1,0.2-4.8,1.6-6.3,2.9c-9.2,7.4-1.1,14.5-5,23.4c-1.5,3.4-7.5,3.7-10.4,5.2
					c-2.5,1.2-6.5,2.7-9.4,2c-1-0.2-2.7-0.3-4.7-0.2c-3.8,0.1-8.4,0.4-10-0.1c-9.6-3.2-12.1-19-7.4-26.8c4.7-7.9,0-3.8,0-5.7
					c0-3.2,0.3-6.2,0.3-9.4c0-0.6,0-4.4,0-4.4c1.4,0,5.3,5.7,7.1,6.7c4.8,2.9,11,5.4,16.5,6c0.3,0,6,2.1,6.4,1.3
					c0.3-0.6-0.8-0.9-1-1c-3-1.8-14.5-5.6-11.7-9.3c2.9-3.9,16.1-8.1,20.4-9.9c5.1-2,22.9-4.5,16.8-4c-6,0.4,27.1-8.2,28.8-23
					c0.8-6.8,0-11.6-1.2-17.7c-4.9-24.7-26.2-43.4-38.6-64.1c-4.8-8.1-11.4-16.1-17.5-23.2C232.5,182.7,221.2,174.4,222.3,175.1z"/>
				<path class="st5" d="M109.1,92.6c3.4,1.8,26.5,4.5,15.9-3.2C119,85,100.4,88,109.1,92.6z"/>
				<path class="st3" d="M109.1,92.6c3.4,1.8,26.5,4.5,15.9-3.2C119,85,100.4,88,109.1,92.6z"/>
				<path class="st3" d="M114,94.9c1.3,4.4-2.9,7.5-1.8,11.4c1.3,4.1,6.7,3.9,9.8,4.9c7.7,2.3,20.4,1.4,25.9-5.2
					c1.9-2.3,2.8-5.3,4.7-7.5c0.9-1.1,3.4,0.8,4.3,1.3"/>
				<path class="st1" d="M56.7,320.8c3,6.6,28.5,43.2,23.6,49.2c-4.9,6-24.3,16.6-24.3,18.3c0.1,3.2,70.9-8.2,74.9-12.5
					c4.7-5.1-10.4-26.7-11.4-32"/>
				<path class="st3" d="M86.3,81.9c3.1-5.7,12.4-4.8,14.1,1.4"/>
				<path class="st3" d="M148.8,89.4c5.2-6.9,15.8-3.8,17.9,3.6"/>
				<path class="st6" d="M38.7,267.5c0.6,2.2,0.6,2.3,2.6,3.2c4.3,2,5,4,8.9,6.6c10.9,7.2,32.1,6.6,44.3,9
					c27.4,5.3,72.6,5.5,100,1.6c3.5-0.5,28.9-14.7,29.2-13.5c0.7,2.5,4.6,5.3,2.7,7c-10.9,10-28.3,20.3-43.6,24.8
					c-38.5,11.3-68.7,16.8-108,7.7c-9.4-2.2-29.9-13.6-36.4-21.8C36.3,289.4,38,265.1,38.7,267.5z"/>
				<path class="st1" d="M80,198.8c-8.2,19.7-20.7,31.4-24.7,40.1c-4,8.7-19.6,21-19.7,27.8c-0.2,9.6,26.7,19.4,37.8,22.6
					c50.3,14.8,129.9,4.9,151.5-14.2c3.7-3.3-6.7-6.4-8.4-10.2c-6.3-13.7-17.1-24.9-21.5-39.7c-3-10.2-6.4-17-4.3-27.9
					c0.6-3.2,2.8-9.5,5-11.6c1.4-1.3,4.7-5.3,2.9-4.9c-29.1,7.4-57.9,26.1-88.2,27.5c-10.7,0.5-17.7-9.3-28.8-10.7"/>
				<path class="st0" d="M274,87.4c0,0-5.8,24.4-9.9,26.9c-4.2,2.5,12.8-2.8,15.5-7.4C282.2,102.4,274,87.4,274,87.4z"/>
				<path class="st3" d="M274,87.4c0,0-5.8,24.4-9.9,26.9c-4.2,2.5,12.8-2.8,15.5-7.4C282.2,102.4,274,87.4,274,87.4z"/>
				<path class="st6" d="M77.7,357.1c-4.2-1.8,3.7,10.4,1.9,13.9c-0.4,0.8-19,12.3-22.4,17.2c-1.8,2.6,4,0.8,11.5,0.3
					c6.9-0.5,16-2.3,22.8-3.1c13.6-1.5,23.8-5.6,37-7.8c9.6-1.6,0.3-18-1.6-18c-1.4,0-4.5,2.4-6.3,2.6
					C106,364.4,92,363.1,77.7,357.1z"/>
				<path class="st1" d="M240.7,185.9c1.9,1.6,12.9,16.8,29.2,41.6c3.2,4.9,11,23.9,13.7,28.8c6.8,12.7,7.5,22.2,8,28.1
					c1,12.6-10.5,18.1-16.2,21c-4.9,2.4-12.2,4.7-19.9,7.4c-9.8,3.4-20.2,7.7-27.5,14.2c-3.1,2.8,9.6,6,10.8,8.3
					c-13.6,0-26.4-3-34.5-15.1c-2.7-4-9.3-12.5-7.1-17.6c3-7.1,30.2-20.6,29.5-23.6c-1.6-6.3-8.4-12.7-12.1-17.8
					c-11.2-15.7-27.8-44-24.2-63.9c0.8-4.5,2.5-10.5,6-13.7c5.5-5,20.3-11.8,30.6-8.1c3.4,1.2,11.5,7.8,11.5,7.8"/>
				<path class="st1" d="M64.4,198.7c-2.6,0.2,3.2-0.4,3.9-0.6c4.6-0.8,12.1-2.5,10.7,4.4c-5.2,26.1-19.6,29.2-32.2,50.2
					c-3.1,5.2-11.3,15.2-10.1,21.3c0.2,1-0.8,13.7-1.4,14c-0.6,0.3-10.4-9.9-12.2-10.7c-16-8-18.7-18.9-7-34.4
					c8.3-11.1,20.1-24.7,31.1-33c3.8-2.9,8.7-6.4,13-8.5C61.7,200.7,65.7,198.6,64.4,198.7z"/>
				<path class="st6" d="M149.3,351.2c1.5,8.6,13.4,23.9,18.1,30.9c1.1,1.7,54.5,11.4,57.8,12.3c3.3,0.9,10.7,3.7,10.2,1
					c-1-5.2-23.4-27.3-27.8-32.5c-2.2-2.7-1.2-10.3-1.3-10.4c-0.6-0.6-0.7-1-1-0.2c-0.8,2.1-3,3.8-4.6,5.4
					c-3.5,3.5-11.5,1.1-16.9,2.6c-5.3,1.5-16.4,1.1-22.7-1.4c-3.5-1.4-4.7-0.7-8-1.8C150,356,148.7,347.9,149.3,351.2z"/>
				<path class="st3" d="M56.3,320.4c3,6.6,28.5,43.2,23.6,49.2c-4.9,6-24.3,16.6-24.3,18.3c0.1,3.2,70.9-8.2,74.9-12.5
					c4.7-5.1-10.4-26.7-11.4-32"/>
				<path class="st6" d="M37.7,292.1c8.6,27.4,23.3,35,41.2,43.9c13.5,6.8,26.2,6.2,41,8.7c19.2,3.2,45.1,0.5,62-8
					c5.5-2.8,10.4-1.8,15.6-5.4c3.2-2.2,12.1-5.7,14.7-8.3c0.1-0.1-4.2,0.9-4.3,0.5c-0.6-2-1.6-1.5-2.6-2.6
					c-3.4-3.9-8.5-11.8-7.9-16.9c0.8-6.7,11.7-6.5,13.7-11.7c0.1-0.2-6.6,3.1-7.1,3.4c-3.2,1.9-6.8,3.2-10.3,4.5
					c-6.3,2.2-12.8,3.6-19,6.1c-4.2,1.7-12.5,3.5-17,4.4c-11.8,2.4-33,6.8-44.7,5.4c-31.3-3.8-25.8-4.5-51.3-13.3
					c-4.8-1.6-21.4-12.4-23.3-16.2"/>
				<path class="st3" d="M143.8,344.6c0,0,17.4,31.9,23.6,35.7c10.7,6.5,67.3,16.2,68.3,15.3c0.9-0.8-17.2-25.5-27.9-33
					c-6.7-4.7,3.3-25.9,0.4-37"/>
				<path class="st3" d="M80.1,197c-0.8,4.3-10,14.7-14.6,23.9c-4.6,9.2-3.8,13-3.8,13S45,249.1,38,269.3
					c-4.7,13.6,2.6,49.4,39,65.2c66.7,28.9,137.1-8.4,147.9-18.2"/>
				<path class="st6" d="M222.8,93.9c11.8,2.4,29.4,20.1,46.1,15c16.7-5,4.3-22.4,5.1-21.6c3.9,3.9,14.6,27.7,4.7,33.5
					c-15.5,9-56.9-26.6-56.9-26.6"/>
				<path class="st3" d="M222.8,93.9c11.8,2.4,29.4,20.1,46.1,15c16.7-5,4.3-22.4,5.1-21.6c3.9,3.9,14.6,27.7,4.7,33.5
					c-15.5,9-56.9-26.6-56.9-26.6"/>
				<path class="st6" d="M221.5,285.1c-2.1,1.1-4.2,2.2-6.2,3.4c-8.8,5.3-18.3,8.3-17.7,17.5c0.8,13.8,20.6,26.8,21.1,27
					c2.8,1,16.1,3.1,19.3,2c0.5-0.2-9.1-4.1-10.4-6.3c-2.3-4,15.2-9.9,18.5-12c1.7-1.1,3.5-1.8,5.3-2.6c0.8-0.4,3.4-0.5,2.6-1.1
					c-2.7-1.8-8.5-0.1-12.2-1.3c-3.1-1-9-2.6-10.8-5C225.5,299.4,222.2,294.5,221.5,285.1z"/>
				<path class="st6" d="M75.7,188.5c-1-2.1-6-12.8-3.2-15.5c0.5-0.5,7,8.6,7.2,8.8c4.4,5.3,9.3,9.7,16.1,10.6
					c4.1,0.6,5.7-4.2,8.2-6.3c5.4-4.3,6.5,0.8,7.6,0.4c1.7-0.6,1.6-4.8,4.4-5.6c4.2-1.2,2.8,7.6,7.5,8.8c7.7,1.9,29.8-4.3,37-8
					c23.5-11.8,41.5-21.8,66.3-15.2c20.5,5.5,45.4,16.9,70.3,37.4c6.3,5.2,24.5,19.2,33.1,19.2c2.4,0,9.2,3,13.9,2.4
					c14.5-2.1,19.4-5.9,22.4-4.2c3,1.7-2.3-0.6-0.7,0c9.2,3.5,15.6,11.2,17.2,21.4c2.2,14,25.5,28.4,37.1,34.2
					c4.3,2.1,5.5,3.6,9.7,5.4c2.4,1-30.8,7.5-49.2,2.2c-43.3-12.6-68.5-44.3-99.7-79.5c-10-11.3-18.2-21.2-50.2-28.9
					c-27.9-6.7-75.1,28.1-115.2,32.8c-10.2,1.2-23-9.9-33.1-10.9c-2.2-0.2-24.3,0.2-24.3-1.6c0-3.8,14.5-19.7,15.9-13.9
					c0.1,0.3-4.4-9.8-1.2-12c3.7-2.5,14,13.8,15.4,16.1c2.3,3.8,5.8,5.1,9.5,6.9"/>
				<path class="st3" d="M111.9,185.5c-6.5-9.5-19.1,13.5-13.3,14.6"/>
				<path class="st3" d="M98.1,192.4c-8.5,3.1-21.8-26.1-25-21c-3.2,5.1,3.6,14.1,2.9,18.1"/>
				<path class="st3" d="M72.8,182.3c-2.3,1-17.9,11.2-13,14.4c3.7,2.4,15.4-0.1,19.5,0.1c8.6,0.3,11.1,6.2,19.4,7.8"/>
				<path class="st3" d="M122.8,190.2c10.3,2,22.2-2.6,31.7-6.7c16.5-7,32.8-19.1,51.1-19.2c63.5-0.4,101.8,64.7,162.3,75"/>
				<path class="st3" d="M371.3,280.2c-35.7-0.5-26.7,40.6-46.1,57.8c-20.6,18.2-43.9-9.9-66.8-3.4c-23.5,6.7,15.9,37.4-43.9,33.6"
					/>
				<path class="st3" d="M38.3,270.9c17.9,21.6,120.6,44.8,185.2,4.3"/>
				<path class="st3" d="M105.7,91.1c-6.3,2.9-16.4,14.3-16.1,18.7c1.6,25.9,37.3,38.7,55.9,20.6C170.7,106,117.6,85.5,105.7,91.1z"
					/>
				<path class="st4" d="M208.1,104.4c-2.8-4.7-8.3-8.6-4-11.3c14.7-9.2,35.2,14,33.8,13.5c-12.3-5.2-18.1-3-30.8-2.2"/>
				<path class="st3" d="M208.1,104.4c-2.8-4.7-8.3-8.6-4-11.3c14.7-9.2,35.2,14.1,33.8,13.5c-12.3-5.2-18.1-3-30.8-2.2"/>
				<path class="st7" d="M194,88.3c8.5,16.9,1.5,37.8-8.7,50.1c-23,28-77.8,22.5-91.8,6.8c-22.3-24.8-25.6-61.1,0.2-68.7
					c11.4-3.4,46.5-5.3,58-3.2c18.2,3.2,22.9,12.9,35.3,22.2"/>
				<path class="st3" d="M222.1,283.3c-3.4,19,15.8,32.2,33.6,29.6"/>
				<path class="st8" d="M124.5,79c-3.5-3.9-35.5,6-31.9,30.2c3.1,21.1,31.1,24.6,42.5,20.2c28.4-11,23.7-53-12.3-45.2"/>
				<path class="st1" d="M114,87.4c-11.1-2.9-28.2,5.9-40.3,0.8c-1.6-0.7-0.9-0.9-0.8,0.5c0.1,1,0.2-1.7,0.2-1.9
					c4.6-9.4,12.1-24.7,23.2-27c17.3-3.6,75.3,2.8,89.1,17c1.7,1.8,3.3,3.4,4.8,5c6.8,7.3,11.3,12.7,13.6,16.7
					c3.4,5.8,5.7,14.9,9.4,25.2c0.3,0.7-7.8-7.3-8.5-8.1c-4-4.2-11.9-8.8-17.8-9.7c-14.5-2.2-20.3,0.3-39.1-7.7
					c-5.4-2.3-26.9-14-34.1-11.2"/>
				<path class="st3" d="M114,87.4c-11.1-2.9-28.2,5.9-40.3,0.8c-1.6-0.7-0.9-0.9-0.8,0.5c0.1,1,0.2-1.7,0.2-1.9
					c4.6-9.4,12.1-24.7,23.2-27c17.3-3.6,75.3,2.8,89.1,17c1.7,1.8,3.3,3.4,4.8,5c6.8,7.3,11.3,12.7,13.6,16.7
					c3.4,5.8,5.7,14.9,9.4,25.2c0.3,0.7-7.8-7.3-8.5-8.1c-4-4.2-11.9-8.8-17.8-9.7c-14.5-2.2-20.3,0.3-39.1-7.7
					c-5.4-2.3-26.9-14-34.1-11.2"/>
				<path class="st3" d="M78.3,358.6c-0.5-0.4,25.7,12,48.3,0.5"/>
				<path class="st3" d="M150.8,356.2c13.7,5.8,44.5,9.7,54.4-3.5"/>
				<path d="M143.9,328.2c-0.7-0.3-0.5-0.5-0.5,0.3"/>
				<path class="st5" d="M110.1,87c0.9,6.1,22.6,10.1,20.4,1.8C128.7,82.3,108.9,77.7,110.1,87z"/>
				<path class="st3" d="M122.3,189.8c0.9-0.7-5.8-8.4-6.4-8.1c-1.8,0.8-18.8,19.9-16.9,22.6c1.8,2.7,16.8,6.8,17.8,4.7
					c1.9-4-2.1-5.4-3.4-8C109.6,193.3,119,192.5,122.3,189.8z"/>
				<path class="st3" d="M88.4,80.3c4.3-6.7,11.5-3.5,12.3,1.3"/>
				<path class="st3" d="M328.5,224.2c23.4,2.8,37-2.8,37-2.8s16.4,3.5,17,18.2c1,27.2,45.5,39.8,48,42.5
					c2.4,2.7-38.5,11.5-71.3-7.4c-16.4-9.4-32-20.1-45.3-33.8c-24.4-25.1-48.4-62.6-86.7-66.2c-24.1-2.3-48.6,13.3-69.5,22.7
					c-20.4,9.1-33.6,8.1-39.3,9.7"/>
				<path class="st3" d="M150.6,89.1c4.9-6.8,14.7-4.6,17,2.7"/>
				<path class="st9" d="M83.5,63.8c7.5-9.8,23.9-11,37.1-7.3"/>
				<path class="st9" d="M150.1,59.6c23.5,1.2,34.3,9.5,39.3,23.2"/>
				<path class="st3" d="M64.6,198c-8.5,8.5-47.1,33-53.8,56c-6.8,23,22.8,27.9,26.8,35.9"/>
				<path class="st3" d="M36.4,284.9c5.8,9.9,30.8,22,55.6,26.9c9.9,1.9,20.1,3.1,30.4,3.4c27.6,0.6,56.6-5.5,85.6-22.4"/>
				<path class="st3" d="M226.1,281.3c0,0-2.7,6.4,9,12.3"/>
				<line class="st10" x1="180.7" y1="150.1" x2="180.8" y2="159.9"/>
				<line class="st10" x1="186.6" y1="145.4" x2="186.7" y2="155.2"/>
				<path class="st3" d="M119.6,12.4c0,0-6,24.2,19,30.3c25,6.1,37.9,8.7,44.8,25.2"/>
				<path class="st3" d="M108.8,48c0,0,3.9,5.2,21.2,2.7c17.3-2.5,28.7-4.4,37.6,0.4"/>
				<path class="st3" d="M227.1,280.6c1.7,4,6.6,7.3,14.7,6.5"/>
				<path class="st11" d="M200.5,299.8c8.4-20.4-6.8-48.1-27.2-45.8c-15.3,1.7-43.8-4.1-31.2-4.4c12.4-0.3,33.7-2.6,40.9-12
					c10.3-13.3,2.4-43.8-10.2-45.8c-2.3-0.4,21.3-10.3,25.6-12.5c4.4-2.2-19.4,17.5,1.7,59.5c11,22,28.2,41.4,28.2,41.4
					S201.2,292,196.3,305c-5,13,18.6,19.7,13.3,21.9c-6.5,2.7-59.6,16.4-52.5,14.7C190.9,333.8,195.5,311.8,200.5,299.8z"/>
				<path class="st11" d="M267.9,227.5c-24.8-48.1-44.2-59.4-57.1-51.3c25.8-0.5,74.5,73.4,39.3,89.9c-32,15-57.1-47.9-57.1-47.9
					s22.9,47.4,40.9,70.5c3,3.9-15.2,7.2-29.1,29.6c-5.2,8.4,20.4,15.8,20.4,15.8l11,0.8l-7.9-7.9c0,0-4.4,0.1,11.7-7
					s33-13.8,41.9-18.3C299.8,292.7,286.9,259.2,267.9,227.5z"/>
				<path class="st11" d="M66.9,217.7c0,0-16.1,24.8,14.2,27.8c9.5,0.9,7.6,2.5,6.6,3.7c-1.5,1.8-4.9-1.9-14-3.1
					c-9.1-1.1-22.5-1.5-22.5-1.5s5.7-3,9.7-9.7C64.7,228.2,66.9,217.7,66.9,217.7z"/>
				<path class="st11" d="M99.8,55.9c63.7-17.5,72.6-9.6,86.2,37.5c13.6,47.1,0.9,75.4,0.9,75.4s25.8-7.3,36.8-1.3
					c10.9,6-28.3-90.9-28.3-90.9l-9.3-7C185.9,69.6,121,59.1,99.8,55.9z"/>
				<path class="st11" d="M85.1,35.6c0,0,6.7-4.4,19.8,1c13,5.4,15.6,10.6,29.9,10.3c14.3-0.3,18.5-0.5,18.5-0.5l-37.4,5.2
					C115.9,51.6,91.4,34.4,85.1,35.6z"/>
				<path class="st11" d="M119,11.8c0,0-0.9,22.8,9.9,27.1c10.8,4.2,33.8,9.9,40.8,13.8c7,3.9-5.4-4.5-23.2-14.2
					C128.6,28.9,120.4,28.5,119,11.8z"/>
				<path class="st11" d="M175.6,40.7c0,0,11.6,8.7,14.9,21c3.4,12.2,4.3,14.3,4.3,14.3l-11.5-6.8C183.3,69.1,175.2,49.1,175.6,40.7
					z"/>
				<path class="st11" d="M64.8,328.6c0,0,21.2,11.4,44.8,20.5c13.2,5.1,13.6,18.2,15.2,24c0.8,2.8-61.8,11-68.1,15.9
					c0,0,23.2-0.3,43.8-4.3c20.6-4,32.5-4.7,31.9-11.6c-0.6-6.9-9.5-27-10.9-26.9C117.7,346.5,64.8,328.6,64.8,328.6z"/>
				<path class="st11" d="M165.9,340.9c0.1,0.3,0.2,0.5,0.3,0.8"/>
				<path class="st11" d="M145,344.3c0,0,25.2,1.7,52.9-5.6c11.5-3-0.5,28.4,2.1,29.4c12,4.8,37.1,28.4,33.7,21.2
					c-3.4-7.2-27.9-26.5-28.9-34.2c-1-7.7,3.7-27.9,3.7-27.9s7-2.2-8.9,2.1C183.8,333.6,145,344.3,145,344.3z"/>
				<path class="st11" d="M12.2,265.4c0,0,13,26.9,37.1-18.3c-15.9,25.7-11,41.6-11,41.6S11,274.7,12.2,265.4z"/>
				<path class="st11" d="M56.2,205.8c0,0,12.8-3.4,26.4-1c13.7,2.4,20.6,3.3,20.6,3.3s9.6,12.4,20.1,8.1c10.5-4.3,4.4-8.1,4.4-8.1
					s1.3,8.7,20.3-1.7c61.3-33.5,82.7-30.3,82.3-30.3c-7.7-1.7-16.9-6.1-61.9,17.4C140,208.4,119.3,207,119.3,207s-1.7,4.8-7.2,3
					c-5.5-1.8-12.7-5.9-12.7-5.9s-4.4,0.2-10.4-3.2c-6.1-3.5-8.7-3.8-15-3.7c-6.2,0.1-9.5,0.9-9.5,0.9L56.2,205.8z"/>
				<path class="st12" d="M330.3,224.8c0,0,24.5,1.6,35.1-2.5c10.6-4.2,17.8,15.7,17.8,15.7s-1.3-9.1-0.2-0.9
					c1.1,8.2-27.7-0.7-27.7-0.7L330.3,224.8z"/>
				<path class="st13" d="M242.3,318.9c0,0,1.1,12,5.1,23.8c3.6,10.5,4,21.7-6.3,22.8c-10.4,1.1-22.9,2.5-22.9,2.5s-7.3,0-10.7-7.3
					c-4.5-9.7,1.4-33,1.4-33l30.2,7.3c0,0-15.4-6.4-11.8-8.5C230.9,324.3,242.3,318.9,242.3,318.9z"/>
				<path class="st13" d="M285.1,298.6c0,0,9.4,35.8,13.7,40.7c1.1,1.2,3.6,6.1,12.4,5.1c31.1-3.4,27-71.7,57-61.8
					c-49-22.6-108.4-110.4-140.7-108C232.9,181.7,311.6,265.7,285.1,298.6z"/>
				<path class="st3" d="M210.2,176.1c0,0-29.5,7.3-18.3,41.2c11.3,33.9,35.8,62.7,35.8,62.7s-28.6,15-30.8,26.9
					c-2.5,13.3,20,24.9,20,24.9s10.1,4.8,20.4,4.1c6.3-0.4-16.2-6.8-7.9-11.1c8.3-4.3,36.7-15.6,36.7-15.6s27.7-10.5,25.4-28.1
					C289.2,263.4,242.4,157.5,210.2,176.1z"/>
				<polyline class="st3" points="124.8,209.1 124.8,209.5 124.8,210 124.8,210.8 124.9,213.9 124.8,211.2 				"/>
				<polyline class="st3" points="166.1,197.4 166.3,197.8 166.5,198.2 166.8,199 167,199.4 				"/>
				<polyline class="st3" points="195.4,339.9 195.4,342.4 195.4,342.9 195.4,343.7 195.4,344.2 				"/>
				<polyline class="st3" points="80,344.8 80,347.4 80,347.8 80,348.6 80,349.1 				"/>
				<polyline class="st3" points="128.5,209.1 128.5,209.7 128.5,210.4 128.4,213.6 128.5,210.8 				"/>
				<polyline class="st3" points="169.5,196 169.8,196.6 170,197.1 170.2,197.5 				"/>
				<polyline class="st3" points="199.2,339.5 199.1,342.7 199.1,343.3 199.1,343.7 				"/>
				<polyline class="st3" points="199.2,339.5 199.1,342.7 199.1,343.3 199.1,343.7 				"/>
				<polyline class="st3" points="83.8,344.4 83.7,347.6 83.7,348.2 83.7,348.7 				"/>
				<path class="st3" d="M199.6,181.1c0,0-11.4,5.6-29.8,17c-18.4,11.4-35.9,18.2-56.7,15.8c-15.1-1.8-28.2-10.7-28.2-10.7"/>
				<path class="st14" d="M82,285.2c-2.9-0.3-5.5,1.7-3.9,6.1c3.7,9.9,17.5,27.1,21.3,27.4c6.7,0.5,36.6-28.3,28.4-29.1
					C106.4,287.4,94.8,286.4,82,285.2z"/>
				<path class="st15" d="M82,285.2c-2.9-0.3-5.5,1.7-3.9,6.1c3.7,9.9,17.5,27.1,21.3,27.4c6.7,0.5,36.6-28.3,28.4-29.1
					C106.4,287.4,94.8,286.4,82,285.2z"/>
				<path class="st16" d="M80.4,286.1c-9.5-1.5,10.7,30.7,16.3,31c6.7,0.5,37-25.3,28.8-26.1C104.1,288.8,93.9,288.2,80.4,286.1z"/>
				<path class="st15" d="M80.4,286.1c-9.5-1.5,10.7,30.7,16.3,31c6.7,0.5,37-25.3,28.8-26.1C104.1,288.8,93.9,288.2,80.4,286.1z"/>
				<line class="st14" x1="86.9" y1="306.6" x2="90.9" y2="286.5"/>
				<line class="st15" x1="86.9" y1="306.6" x2="90.9" y2="286.5"/>
				<line class="st14" x1="111.1" y1="310.3" x2="115.1" y2="290.2"/>
				<line class="st15" x1="111.1" y1="310.3" x2="115.1" y2="290.2"/>
				<path class="st6" d="M94.5,291.8l15.5,1.6l-2.1,12.4c0,0-7.3,5.9-9.7,5.9c-2,0.1-6.1-7.1-6.1-7.2
					C92.3,302.4,94.5,291.8,94.5,291.8z"/>
				<polyline class="st17" points="109.9,294.1 95,292.7 92.4,304.8 97.9,311.4 				"/>
				<path class="st18" d="M110,293.9l-2,11.9c0,0-7.8,5.4-10,6.2"/>
				<path class="st0" d="M104.1,92.9c-0.4-0.7,3.3,4.8,7.3,9.6c2.6,3.1,5.2,6,6.8,6.8c4.1,2,23,4.1,36.4-5.5
					c8.3-5.9,4.1-8.8,4.1-8.8S111.3,103.9,104.1,92.9z"/>
				<path class="st3" d="M156,104.5c-6.6,3.7-14.2,5.3-20.9,6c-6.7,0.7-12.4,0.5-15.4,0.5c-5.9,0-15.2-16.3-15.2-16.3
					s38.2,8.6,55.2-0.6C161.8,96.8,159.5,101.8,156,104.5z"/>
				<path class="st0" d="M100.6,282.6c-6.1,11.4-0.7,10.7,5.4,13.3c-7.7-2.7-10.1-1.5-15.8,6.8c5.4-9.1,1.6-11.7-6.1-14.3
					C93.3,291.8,95.4,291.7,100.6,282.6z"/>
				<path class="st0" d="M131.7,198.1c0-0.2,0-0.3,0-0.5"/>
				<path class="st19" d="M113.9,198.6c3.6,1.1,14.2,0,22.9-3.6c3.1-1.3,11.1-7.1,14.5-3.2c2.7,3.1-6,7.5-7.8,8
					c-4.8,1.2-11,2.9-16,2.7c-4.3-0.2-11.6-1.1-12.9-2.2C114.3,200,113.5,198.5,113.9,198.6z"/>
				<path class="st20" d="M96.6,196.2c0,0-1,1.9-7-2.2c-6-4.1-8.6-7.6-8.6-4.5c-0.1,3.1,13.9,9.9,15.6,9.1"/>
				<path class="st21" d="M106.6,183.6c4.8,0.7,10.7-2.7,3.6,6c-6.5,8,7.5-1.2,8.7-3.5c1.2-2.3,7.5,3-6,10.6
					c-2.7,1.5,7.7,11.2,2.7,13c-3.7,1.3-17.7-2.1-16.8-5.6c1-3.5-1.5-5.6-1.5-5.6S101.8,182.9,106.6,183.6z"/>
			</g>
		</g>
		<g>
			<g>
				<path class="st5" d="M87.4,230.2c7.9,0.2,15.1,0.3,22.1,0.6c5.7,0.3,7.3,3.9,7.1,7.4c-0.4,4.8-3.4,8-8.6,9.7
					c-0.3,0.1-0.6,0.1-1.1,0.3c5.5,3,5.5,9.1,9.1,14.6c-4.2-0.1-8-0.1-11.9-0.1c-2-3.6-3.7-7-5.1-10.4c-0.8-1.8-1.9-3.2-5-2.7
					c-0.9,4.1-1.4,8.4-1,13.1c-3.7,0-7.1-0.1-10.7-0.1C81.1,251.7,85.5,240.8,87.4,230.2z M97,237c-0.5,2.1-1,4.1-1.6,6.5
					c2.3-0.1,4.6-0.1,6.8-0.3c2-0.2,3.3-1.4,3.6-2.9c0.4-1.6-0.4-2.9-2.4-3.1C101.4,236.9,99.3,237,97,237z"/>
				<path class="st5" d="M148.3,239.6c-3.5,0.2-6.8,0.4-10.1,0.5c-0.1-2.7-1.6-4.1-4.4-4.2c-1.8,0-3.4,0.5-4.3,2.3
					c-0.2,1.6,0.9,2.1,2.2,2.4c2.3,0.6,4.7,1.1,7.1,1.8c1.3,0.4,2.6,0.8,3.9,1.4c8,3.5,6.2,12.6-0.2,16.9c-2.1,1.4-4.7,2.4-7.1,2.8
					c-3.9,0.7-7.8,0.5-11.5-0.6c-4.9-1.4-8.1-5.7-7.4-11c3.2-0.1,6.3-0.3,9.7-0.4c0.1,0.6,0.2,1.2,0.4,1.8c0.8,3.1,4.2,4.6,7.6,3.4
					c1.5-0.5,2.7-1.5,2.9-3c0.2-1.4-0.6-2.4-1.8-2.9c-1.1-0.5-2.3-0.8-3.4-1.1c-2.4-0.7-4.8-1.3-7-2.2c-4.2-1.7-5.8-4.7-5-8.3
					c1-4,4.2-7.3,8.9-8.5c4.5-1.2,8.9-1.2,13.2,0.1C146.4,232.1,148.4,234.9,148.3,239.6z"/>
			</g>
		</g>
	</g>
</g>
</svg>
