<svg width="33" height="32" viewBox="0 0 33 32" fill="none" xmlns="http://www.w3.org/2000/svg">
<g clip-path="url(#clip0_129393_199365)">
<path d="M16.3667 0.437547C7.53455 0.433976 0.380981 7.58398 0.380981 16.409C0.380981 23.3876 4.85598 29.3197 11.0881 31.4983C11.9274 31.709 11.7988 31.1126 11.7988 30.7054V27.9375C6.95241 28.5054 6.75598 25.2983 6.43098 24.7626C5.77384 23.6411 4.22027 23.3554 4.68455 22.8197C5.78812 22.2518 6.91312 22.9626 8.2167 24.8876C9.15955 26.284 10.9988 26.0483 11.931 25.8161C12.1346 24.9768 12.5703 24.2268 13.1703 23.6447C8.14884 22.7447 6.05598 19.6804 6.05598 16.0375C6.05598 14.2697 6.63812 12.6447 7.78098 11.334C7.05241 9.17326 7.84884 7.32326 7.95598 7.04826C10.031 6.86255 12.1881 8.53398 12.356 8.66612C13.5346 8.34826 14.881 8.18041 16.3881 8.18041C17.9024 8.18041 19.2524 8.3554 20.4417 8.67683C20.8453 8.36969 22.8453 6.93398 24.7738 7.10898C24.8774 7.38398 25.656 9.19112 24.9703 11.3233C26.1274 12.6375 26.7167 14.2768 26.7167 16.0483C26.7167 19.6983 24.6096 22.7661 19.5738 23.6518C20.0052 24.076 20.3476 24.5819 20.5813 25.1399C20.8149 25.6979 20.935 26.2969 20.9346 26.9018V30.9197C20.9631 31.2411 20.9346 31.559 21.4703 31.559C27.7953 29.4268 32.3488 23.4518 32.3488 16.4125C32.3488 7.58398 25.1917 0.437547 16.3667 0.437547Z" fill="black" fill-opacity="0.45"/>
</g>
<defs>
<clipPath id="clip0_129393_199365">
<rect width="32" height="32" fill="white" transform="translate(0.380981)"/>
</clipPath>
</defs>
</svg>
