<svg xmlns="http://www.w3.org/2000/svg" width="146" height="32" fill="none">
  <g clip-path="url(#a)">
    <path fill="#004AAD" fill-rule="evenodd"
          d="M53.5 12.8v-.3c0 .2.1.3.1 0 0 0-.1-.2-.2 0v-.2c0-.1.2.1.2 0-.2-.2-.3 0-.4 0V12l-.1.2v.1s-.2 0-.2-.2v.2c0 .1 0-.2.1 0l-.2.4v-.4c0-.2-.1 0-.2-.2 0-.2.2 0 0-.2 0 0-.2 0-.2.2l.1.1c-.1.2-.3 0-.4.2a.2.2 0 0 1 0-.2l-.1-.1c-.1.3-.3.2-.5 0v.3c0 .1 0-.2-.1-.1v.2-.1c-.2.2-.3-.2-.4-.2-.1.3-.3.1-.3-.1 0 0 .1.2.1 0v-.2l-.2.2c0 .2 0 .2.2.3-.2.1-.4.1-.4 0l-.1.1c0-.2-.2.1-.3 0v-.2.3c-.2-.2-.2.2-.3 0v-.2c-.1 0-.3 0-.2.2 0-.1-.2-.3-.4 0v-.2c-.1 0 0 .1 0 .2-.2 0-.2-.2-.4-.1 0-.2 0 0 .1-.1 0 0-.2-.2-.3 0h.1c0 .1-.1.2-.2 0 0 0 .1 0 0-.1v.1c0-.2-.1 0-.2-.1l.2-.3v.2c.2-.5.4 0 .6-.4.1.2.2-.1.3 0h.5v-.3c.1 0 .1-.1.2 0V11l.1.3.2-.3.1.2c0-.2-.1-.2 0-.4 0 0 0 .2 0 0h.2a.4.4 0 0 0 0 .4V11c.2.2.2 0 .4 0l-.1-.4-.1-.1h-.2c0 .2.1 0 0 .2 0-.2 0 .2-.1 0l-.3.3-.1-.2c-.1 0 0 .1 0 .2-.1.1-.2 0-.2-.2v.3c-.2 0-.2-.2-.3 0V11c-.1 0-.2 0-.1-.1l-.2.1c-.1-.2-.3.2-.4.2l-.2-.5.1.2c.1 0 0-.1 0-.2.3 0 .6-.1.8-.3 0-.2 0 0-.1-.1V10v.2l-.3-.2c.2 0 0 .1.1.3l.1-.2v.3c0-.3 0 0-.2 0V10c-.2 0-.6-.2-.7.1v-.3l-.2.4s0 .2.1.1a.2.2 0 0 1 0-.2l.1.3s-.3.2-.3-.3H48c0 .2.2.2.1.3 0 .2-.1-.2-.2 0 0-.4-.2-.1-.2-.4v.2c0 .1-.1.1-.1 0l-.2.2v-.3c-.2 0 0 .2-.2.2 0-.2 0-.3-.1-.2v.2-.2l-.1.2v.1l-.1-.2c0 .2-.2.4-.2 0v.3c-.2-.2-.3 0-.6-.1v.2c-.1 0-.2-.3-.2 0-.1-.2-.2 0-.2-.2v.2c0-.1-.4-.4-.3 0l-.3-.4c-.1.3-.5 0-.4.3 0 .1 0-.2-.1 0 0 .1.1 0 0 .1 0 .1-.2.2-.2-.1l.2-.1c-.2 0-.3 0-.4.2v-.2c-.1.2 0 0-.2 0l.1-.2.2-.1c0-.1-.1 0-.2 0 0 0 0 .4-.1.3l-.1-.3v.8c-.1.1-.1-.1-.2-.2 0 .2-.3.2-.3-.1v.4l-.1-.4c0 .1-.1.2-.2 0v.4l-.2-.2-.1.2v-.1c-.2.1-.3.2-.4-.2 0 .2-.2.2-.2 0 0 .4-.2 0-.3.2 0-.2 0 0 0 0v-.2s-.1-.2-.2 0c0 0 .2 0 .1.1l-.3.3-.1-.3c.1-.2 0 .2.2.1-.1-.1 0-.3 0-.4-.1.2-.2.1-.3.2v.4-.2.2L41 11c0 .3-.2 0-.4.2V11s0 .1 0 0c-.2.3-.3 0-.4 0v.2c0 .1 0 .2.1.1 0 .4-.2.3-.3.2l.2-.2c-.2 0-.3 0-.5-.2v-.4c-.1.1 0 .2 0 .4-.2.1-.2-.2-.3 0l.1-.3c0-.2-.1.2-.1 0l-.1.5c0-.2-.4 0-.3-.5a.3.3 0 0 0 .2.2v-.3c-.2.2-.4 0-.5.1v.2c.1.2 0-.2.1 0 .1 0 0 0 0 .1.1 0 0 .3.2.2 0 .2-.1.1-.2.1v-.2.3c-.1 0-.2 0-.2-.2.1 0 0-.3.1-.2 0-.2 0 0-.1 0l-.1-.1.1-.1v-.2h.2v-.2.2h.3c0-.1 0-.2 0 0v-.2l.2.1c0-.2.1 0 .2 0v-.2c.2.2.4-.3.5 0l.1.1v-.3c.2.4.3-.1.4 0v.2l.3-.1V10c0 .5.3.1.5.1v.3c0-.1.1 0 .2 0V10c.2-.1.6.2.9-.2h-.1v-.2c.1.2.2-.1.2-.1v.3l.2-.3v.2h.3l-.2-.1c.2 0 0-.2.1-.4v.2h.5l.1.2v-.3l.2.3v.1c0-.1.1 0 0 .2l.3-.1c0-.2-.1 0-.2 0 .1-.2 0-.2 0-.2s.2-.1.2-.3c0 .2-.1 0 0 0 0-.2.1.1.3.1 0 0-.2-.2 0-.3 0 .2.1.5.2.3 0 0-.1 0 0-.1h.2v-.2l.1.2.1-.1V9c.2-.2.3.1.5.1v-.3s0-.1.1 0c0 .2-.1 0 0 .2l.2-.3V9c.1-.2.3 0 .5 0 0 0 0 .1-.1 0v-.2c.2.3.4-.1.6 0a.2.2 0 0 1 0-.3c0 .2.1.3.2.3v-.2c.2.2.3 0 .5.1v-.1l.4-.2a.3.3 0 0 1 0-.2c0 .2 0-.2 0 0l.1.2.1-.1v.2c.1-.1 0-.2.2-.2v.2c.1-.3.4-.1.3-.5h.3v-.2c0 .1 0-.2.1-.1v.5c0-.2.2-.4.3-.1l1.5-.6c0-.2 0 0-.1 0 0-.2-.1 0 0-.2v.1c.1 0 0-.1 0-.2h.2v.6-.3c.1 0 .3-.4.4-.1 0-.2 0-.2 0 0 0-.2.1-.2.2-.2l-.2-.1c0-.3.2 0 .3-.1 0-.3.1-.1.2-.2 0-.2-.2-.3-.1-.4 0 .1.1 0 .2 0v.3l.2-.3v-.3c-.1 0-.2.1-.2 0-.2.2-.3 0-.5.2-.1-.3-.2 0-.3 0a.2.2 0 0 0 0-.2l-.1.2v.3c-.2-.2 0-.3-.2-.5 0 .2 0 .2-.1 0v.2l-.2-.2c0 .3.1.1.2.2v.3c0-.2-.1 0-.2-.2 0 .1 0 .3-.1.1l-.1.2-.1-.1s0 .3-.1.2v-.4c0 .3-.1 0-.2.4l-.1-.2c0-.1.2 0 .2-.2l-.3.1c0-.3-.3 0-.4-.1.1-.2.4-.3.3-.6h.1V6c.1-.1 0 .3.2.2 0 0-.1-.1 0-.2h.2l-.1-.2s0-.1 0 0l.2.1V6c0-.2.2-.1.3-.2.1.7.4-.2.6.1v-.3c-.2.2-.3.5-.4.1 0 .2-.1.2-.2.2v-.3c.2.3.3-.3.3.1 0-.3.2 0 .3-.2 0-.1-.1 0 0-.2V5v.4c.1-.1.2 0 .3-.2 0-.1-.1-.2 0-.2v.2c.1-.3.2-.1.3-.5l.2-.1v-.2s.1-.3.1 0v-.3c.1.1.1-.1.2 0l-.1.1v.2c.1-.1.1-.1.2 0v-.3s0 .3-.1 0V4c.2.2.2-.2.3 0l-.1-.3c0 .2-.1.2-.2.2v-.1l-.3-.1v.2h-.3c0 .3 0 0 .1 0 0 .1.2.3.1.4V4c-.1.1-.2 0-.2 0v.3c0-.2-.2-.3-.2-.2v-.4c-.2.2-.3 0-.4.2l.1.1c-.1 0-.1.2-.2 0 0 .2-.2.3-.2.2-.1.2 0 .3 0 .4-.1-.2-.2 0-.2-.3 0 .2-.1 0-.1.1v.2l-.1-.1v.3c-.1-.2-.2 0-.2-.1s0-.2.2-.2c-.2-.1-.3.2-.4 0l.4-.3v.2l.1-.2v-.3c-.2.3-.4.5-.5.2 0 0 0 .2 0 0v.3h-.2s.2 0 0-.2v.1l-.1-.2v-.3c0 .2-.1-.1-.2-.2 0 .1.1.3 0 .4 0-.1 0 0-.2 0 0 0 .1 0 0 .2v.2c0-.2-.1 0-.2.1v-.3c-.2.1-.1.3-.1.4-.1-.2-.2 0-.2-.2l-.1.1c0-.4.2-.2.3-.5l-.3.2v-.8c-.2.2-.3 0-.5 0 0 0 0 .2.2.3-.2.2-.3.4-.5.2-.1.4-.3 0-.4.4 0-.1 0 0-.1 0v.2c-.3-.2-.5.2-.6.2v-.1s0-.2 0 0v.2c-.1-.1-.4.1-.4 0 0 .2.2.1.1.2l-.2.2v-.5c0 .3 0 .8-.3.5l.1-.1c-.1-.3-.2 0-.4-.2 0 .3-.2 0-.3.3l-.2-.1v-.2c0 .3-.1 0-.3.1 0 .2.2 0 .2.2 0 .1-.4 0-.3.3-.2 0-.3-.2-.5 0 0 .1 0 .3-.1.2V6l-.1-.2V6c0 .2 0-.3-.1-.1a.2.2 0 0 1 0 .2l-.1-.2c0 .1-.1-.1-.1 0v.2c0 .2-.1-.1-.2-.2 0 0 .2-.2.1-.3-.1 0-.2.2-.4 0 0 .1.1.2 0 .4 0-.2 0 .2-.1 0v-.3.3l-.2-.3c-.1.2-.2 0-.3.2 0 .2 0 0 0 0v.2c0-.1-.2-.3-.3-.2v.3c-.1 0-.1.1-.2-.1v.3h-.2v.2c0-.1-.2-.1-.1 0l.6-.2v.3c-.2 0-.6.4-.7-.1v.2h-.2l-.1-.3s.1-.1.2 0v.2-.6.3c-.1-.3-.3.3-.3-.2-.2 0-.1.3-.2.2v-.2l-.2.1c0-.1-.1 0 0-.1l.2-.1-.3-.1v.2-.4l.2.1v-.3c.2.1.2.4.4.2v-.3l.1.2v-.3.4c.2-.2 0-.2 0-.4.1.2.2 0 .2.3 0-.3.1-.3.1 0 0 0 0-.1.1 0v-.3l.1.3.2-.1H42c0-.2.3 0 .3-.4 0 .1.1-.1.2 0 0 0-.1.3-.2 0v.4c0-.2.2-.2.2-.3V5c.1.2.3 0 .3 0 0 .1.2.1.1.3 0-.2.2-.2.1-.4l.1.4c.1-.2.3 0 .2-.3l.2-.1h-.2c.1-.3.2 0 .2-.2a.1.1 0 0 0 0-.2l-.1.2v-.2s.1-.2.2.1h.3V5c0-.3.1 0 .2-.1 0-.2-.2-.2-.1-.4.1 0 .3-.2.4 0 .1-.2.3 0 .4-.4v-.3.3h.3v.4l.2-.1v-.2l-.2.1v-.2l.4-.1c-.1-.2 0-.4 0-.4 0-.2 0 .2-.1 0 0-.2.1-.3.2 0v.2c0 .1 0-.2-.2 0l.2.1c.1 0 .3-.3.5 0v-.3c.1 0 0 .3.1.2.1-.2.4-.4.5-.1v-.4c0 .2.1 0 .2 0v.1l.1-.1V3h.1v.2c0-.2.2 0 .2-.3.2.1.4 0 .5-.2 0 .2 0 0 .1 0s.3 0 .4-.2c0 .2.2-.1.2-.3a.2.2 0 0 0 0 .1h.3c-.2-.2-.2-.5-.3-.2-.1-.2-.2 0-.3-.2v.4c-.2 0-.4 0-.4-.2v.3c-.2-.2-.3 0-.3 0l.1.2c0-.2.2-.2.2 0-.1.2-.2 0-.3.2v-.2l-.1-.1c-.1.3-.2-.2-.3 0l.1.1h-.3V3l-.2-.2v.4c0 .1 0 0 0 0 0-.1-.1 0-.2 0v-.3.3c-.2 0-.2-.4-.3-.2a.3.3 0 0 1 0 .2c-.1.2-.2-.3-.2-.3V3l.1.3c-.1.1-.1-.2-.3-.3v.2l-.1-.2s.1 0 0-.1h-.1l.6-.3c-.2-.2-.5.4-.6 0 0-.1-.1 0-.1 0v.1l-.3.2v.2c0-.1 0 0-.1 0v-.2l-.2-.4c0 .2 0 0-.2.1 0-.2-.3 0-.5.1v.1s0-.2-.1 0v.1l-.1-.1V3v-.2c-.2 0-.3.2-.4 0v.3c-.2-.4-.3-.1-.4 0v.2l.1.4s0-.2-.1-.1v-.3.3c-.1 0-.1.2-.2.1-.1-.4-.4-.2-.5-.4v.2s-.1.1-.1-.1c-.2.2 0-.3-.2-.1v.3-.2c0 .2-.2 0-.1 0-.3.2-.7-.2-.8.4-.1-.2-.2 0-.2-.2-.1.2-.2.1-.2 0-.1 0-.2.1-.2-.1v.3s-.1-.1-.1.1c0-.1-.1 0-.2 0V4c-.3-.1-.7.1-1-.1l.3-.1c0-.1.1-.2 0 0 .2 0 .1-.3 0-.4 0 .2-.2.4-.2 0 0 .3-.1 0-.2.2l.1.1c0 .1-.1 0-.2 0v-.1a.4.4 0 0 0 .1.4c0-.1 0-.2.1 0v.3h-.1c0-.4-.3-.7-.4-.7v.2c-.1-.2-.3 0-.3 0V4c0 .1-.1-.3-.2-.2 0 .2 0 0 0 0l-.1.3-.1-.1v-.2c0 .2-.1.2-.1 0-.1 0 0 .1 0 .2-.1-.3-.1 0-.2 0v-.3c0 .2.1 0 .2 0v-.3s-.1.1-.2 0l.1-.2-.2.4c-.1-.1-.2.2-.2.2v.4h-.2s0-.3-.1-.2v.3c0-.2 0 0 0 0l-.1-.3s.1 0 0-.2c0 0 0 .2 0 0v-.2l-.1.3H37c0 .1 0 .4-.2.3V4v.3c-.2 0-.3.2-.4 0 0 .2-.1 0-.2 0v.3l-.3-.4v.4l-.2-.1v-.2c0-.1-.3.2-.4 0-.2.2-.3.5-.4.2v.1-.2l-.1-.2c0 .4-.3 0-.3.2l.1.1s-.1.2-.2 0v-.1c-.2 0 0 .1-.1.2v.3c0-.2-.2.3-.2-.1V5c-.1-.2-.2 0-.2-.2 0-.1 0 .1.1 0-.1-.2-.2-.1-.3-.4v.4c0-.2.2 0 .1.2l-.2-.1v-.3c0-.2 0 0-.1-.1v.2c-.2-.2-.4 0-.5-.2v.3c-.1.1 0-.2-.2-.1a.2.2 0 0 1 0 .1v-.2h.1a.3.3 0 0 1 0-.3h-.3V4c-.2.1 0 .1-.1.3.1.3.2.1.3.2l-.1.2v.5c0-.1.2 0 .2 0-.1.2-.2 0-.2-.2 0 .2-.2 0-.2 0 0-.2.1 0 .1-.1v-.2c-.2-.2-.7.5-.7-.3 0 .2.1.2 0 0 0 0 .2 0 .2.2.1-.3.2 0 .3-.1 0-.2-.1 0-.2 0V4c0-.1 0-.3-.1-.1 0 .1.1.1 0 .4v-.7c-.1.3-.3 0-.2.5 0-.2-.3-.5-.4-.2v-.2s0 .1-.1 0V4h.3v.3c-.1-.3-.3 0-.4-.2V4c0-.1-.3.1-.3-.2 0 .2 0 .4-.1.1v.2c0 .2 0 0 0 0v.3c0 .1 0 0 0 0 0-.2-.2-.2-.1-.4 0 .1-.2.3-.2 0v.2c-.1.3.1.1 0 .4.3-.2.4 0 .6 0 0 .3-.1 0-.2.2v-.2c-.2.1-.1 0-.1.2l-.1-.2v.5c0-.1-.2.1-.2 0v-.2c0 .1 0 0 .1 0v-.2.2-.3c-.1 0-.3.2-.3 0 0 0 .1.1.2 0l-.1-.2c0 .3-.4.3-.4 0v.2-.2c-.1.1-.1 0-.2-.1l-.1.2.3.6-.1-.2c0 .1-.1 0-.2 0v.4c-.1-.3-.2 0-.2 0v-.6c0-.2-.1 0-.2-.2v.2l-.2-.1c-.1.2-.2 0-.3-.1 0 0 0 .2 0 0l-.2.2c0-.2-.1 0-.2-.1a.3.3 0 0 1 0 .2c-.1.1 0-.1-.1-.1v.2c0-.2-.1.1-.2 0v-.2s-.2-.2-.3 0v.1c0-.1-.1-.2-.1 0-.1 0-.3-.2-.4.1 0-.1 0 0-.1 0l-.1-.3-.1.2.1.1v.4c0 .1 0 .1-.1 0-.1 0-.2.2-.3-.1v.2-.1c-.2.2-.5 0-.7.1l.2-.3c0 .1 0-.1 0 0v.1c.2.1.3-.1.4 0v-.3l-.2.1s-.2-.2-.3-.1V5c0 .1 0 0 0 0v-.1a1 1 0 0 1-.5 0V5l-.2-.1v.2-.2h-.2v.2-.3c-.2.3-.3 0-.4 0v.3c-.1.2-.4-.2-.7.2v-.1c-.1 0 0 0 0 .2l-.1-.2v.2h-.3V5c-.2.2-.3-.1-.3 0 0 .3 0 0 .1.2l-.3.1c0-.1 0-.2.2-.1V5c-.2.2-.1 0-.2 0 0 .1-.1.3-.2.2V5v.2c0-.1-.2-.2-.2 0-.1-.2-.3 0-.4 0l-.1-.3-.1.4c-.1-.4-.3-.1-.4-.5 0 .2 0 0-.1 0 0 .5-.4.2-.5 0 0 .3.2.2.2.3l-.2.2c0-.2 0 0 0 0v-.4c-.2.1 0 .2 0 .3-.1.2-.2.1-.2.4l-.1-.5-.2.4.1-.6c-.1 0-.1.5-.3.2.2 0 .2-.3.3-.4h-.2v.1c0 .2-.1.3-.2.3v.3-.2c-.1 0-.2.2-.2 0-.1.2-.3.1-.3 0s0 0-.2 0v.3c-.1-.2-.2-.3-.3-.2 0 .1.2 0 .1.2v.1c-.2-.1-.2 0-.3-.3-.1.2-.3-.4-.5 0v-.1c-.1 0 0 .3-.2.3v-.3s-.2.1-.2 0c-.1 0 0 0 0 .1-.1 0-.3.1-.3-.1 0 0-.1.1-.2 0v.2c-.2-.2-.2.1-.3 0V5v.5c0-.1 0 0 0 0l-.1-.3v.2c-.1-.1-.1-.2 0-.4-.1.3-.1-.1-.2 0v.2c0 .2 0 0-.1 0 0 0 0 .1 0 0l-.1-.4v.6s-.2.2-.2-.1l.1-.2c-.1-.1-.2 0-.3-.2 0 .2-.2-.1-.2.2 0-.2-.1-.1-.2-.2 0 .2-.1 0-.2 0 0 .2.1 0 .2.2v.3l-.4-.4v.3c0 .1.2 0 .2.2-.1 0-.2-.2-.3 0-.1 0-.2-.2-.3 0 0 0-.1-.5-.2-.3v.3c0-.2-.3 0-.4-.2 0-.2 0 .1.1 0v-.2c-.1.2-.2.2-.3.2 0-.3 0-.2-.2-.3v.2c-.2-.2.1-.3 0-.5 0 .3-.3.5-.4.4V5v.3c-.2 0-.1-.3-.2 0V5l-.1.2c-.1-.1-.2-.2-.3 0v-.3h-.1a.3.3 0 0 1 0 .2c-.3-.1-.5-.2-.8-.1a.2.2 0 0 0 0-.2c0 .2-.1 0-.1 0V5h-.3c-.2-.3-.2 0-.3-.1v-.1h.1l-.2-.4v.3c-.2 0-.6-.6-.8-.4 0-.2 0-.1-.1-.1 0 .2.2.1.2.4-.2 0-.3 0-.5-.2-.1 0 0 .2 0 0 0 .1.2.2.1.4l-.3-.4v.2c-.2-.3-.4-.2-.7-.8v.3V4c.1 0 .1 0 0 .1 0 0 0 .1 0 0L9.6 4s0 .2-.1.1V4h.2v-.1.1l-.4-.2v.6L9.2 4c0 .3-.1.1-.2.1L8.7 4v.3V4s-.1-.1 0-.2c-.2 0-.2 0-.3-.2-.2.4-.2-.3-.4.2v-.3l.1.7c-.2 0-.4 0-.5-.5-.2 0-.5 0-.6-.4.2-.4.5.5.6.2v.2l.1-.2c.1 0 .2.6.3.5 0-.3-.2-.8-.4-.8v.3l-.2-.6L7 3l-.3-.6v.3c-.1 0 0 0 0 .2l-.2-.3c0 .1-.1.1-.2 0 0-.1 0 0 .1 0v-.3c-.1 0-.2-.2-.2 0v.3L5.9 2c0 .3-.1-.3-.2 0v.2l.2.1v.2l-.2-.2c0 .3 0 0-.1.1.1.2.3 0 .3.6-.1.1-.4-.6-.4 0l-.2-.2v-.1c-.2 0-.4-.3-.7-.1v-.2c0 .2 0 0-.1 0v.3h-.3V3v-.2l-.1.3-.2-.2v.4s-.1-.2-.2 0v.1c0-.1.2 0 .2 0l-.3-.1-.1.2c0-.1 0-.2-.1-.1a.5.5 0 0 1 0 .4l.2.2v.3l-.3-.4c0-.1 0-.4-.2-.3l.1.2v.3L3 3.8V4v-.3s0 .3-.1.2c0 0 0-.4-.1-.3v.3c0-.3-.2-.4-.3-.3v-.3c-.1 0-.2 0-.1-.1h-.2c0 .2.2.4.3.5-.3-.2-.4 0-.7-.4l-.1.1c0 .3.3.3.4.7-.3-.2-.5-.7-.7-.3-.1-.1-.4-.4-.5-.1v-.1a.3.3 0 0 1 0 .3L.7 4v-.2.1c0-.2 0-.1-.2-.3 0 .4-.2.4-.4.6l-.1.4c0 .5.3.9.6 1.1l-.1-.2c.1-.1.2.2.3.1 0 .7.5.3.6.6.2-.2.5 0 .6.2 0 0-.1-.2-.1.1.1.1.2 0 .3.2.2 0 .4 0 .4.2.1 0 0 0 0-.2.1 0 .2.4.3.2 0-.1-.1 0 0 0 0-.1.1-.2.1 0l.6.1c0 .3.3.6.4.7V8h-.3a.4.4 0 0 0 0-.3h-.3v.1c0-.2-.1 0-.2-.1v-.1.1c0 .1.2.3.1.5-.1 0-.2-.4-.3-.2v.2h-.3v.3l-.1.1v-.1c-.2.2-.3.2-.4.1 0 .3-.1.2-.2.4.4.4.8.2 1.2.7.1-.1.2 0 .4.2 0-.2.3 0 .3.3 0-.1-.2-.4-.3-.3.2.2.4.5.5.4 0 .2.1.2.2.2l-.2-.4c.2.1.2.5.3.6v-.2c.1 0 .3.2.3 0v.4-.2c-.1.2-.1-.2-.2 0 0 .2 0 0 .2.2 0 .1 0 .3-.1.2v.4c0-.3-.3-.8-.3-.5h-.2v-.3c0 .1 0 .2-.1.1-.5-.5-1-.5-1.4-.6l.3.5h-.3s-.1.2-.2.1c0-.3-.1.1-.2-.2 0 .2 0 0-.2.1 0 .2.1 0 .2.2l-.1.2c.1.4.4.6.6 1l.6.5c.2.4.6.6.8.6.2.4.4.4.7.5v-.1c0 .1.2 0 .2.3l.1-.2c.3.1.5.4.8 1 0 0 .2 0 .2.3.3-.4.6-.4.9-.2 0 .1-.1 0-.1 0v.4l.2.1c0-.1.1-.2.2-.1v.3c.4-.3.8-.3 1.1.1.1-.3.2.2.3.1 0 .4.3.2.2.7.4-.5 1 .4 1.3.2.1.3.4.5.5.4.3.4.5.4.8.4l.5.5s0-.3.1-.2c0 .3.2.3.3.4v-.2c.2.3.5.4.7.2 0 0-.3-.4-.3 0l-.3-.4v-.1l-.1-.2s.2 0 .3.3c.2-.4.6.4.9 0v.3c.1-.1.2 0 .2 0v-.2c0 .2.2 0 .3.2 0 0-.1 0 0 .2 0-.2 0 0 .1 0v-.3l.4.3c-.1 0 0 .3 0 .2v-.2l.6.3s-.1 0 0-.2l.2.2a.2.2 0 0 1 0-.1c0 .2.1 0 .2 0v.2c0-.2 0 .1.1 0v-.1c.2 0 .4 0 .6.2 0-.1 0-.3.1 0v-.2c.1.2.3.2.4 0v.2c.7-.4 1.3 0 2-.1h.3l.1.2h.3c0-.2 0 0 .1.1.4-.2.8.1 1.1 0l.1.1c2.7.3 5.4 1 8 .9 0 0 .1.1.2 0 0-.2 0 0 0 0h.1l1 .1.1.1c.7 0 1.4.2 2.1 0 .3.1.6.2 1 0 0 .2.2 0 .3.1.2-.2.4.1.6-.1.4.2.8-.1 1.2.1l.1-.1c.3.2.7-.2 1 0 .1-.2.3.1.4-.2v.2c.1-.2.2 0 .4 0 .2-.1.6-.4.7-.1.6-.2 1.2 0 1.8-.3v.1c.4-.1.7-.3 1-.1l.1-.3c.2.2.3 0 .4 0v.1l.2-.1c.4 0 .7 0 1-.2v.2c.4-.3.8-.3 1.2-.3v-.2c.1.2.2 0 .2.2.1-.3.3 0 .4-.3.1.2.4 0 .6 0 0-.4.3 0 .5-.3v.2s.1-.2.2 0c.2-.2.4-.2.5-.2v-.3c.2.2.4.3.6.2l-.1-.2V18c.1.1.2.2.3 0 0 0-.2.1-.1 0h.3v-.2c.1 0 .2 0 .3.2 0-.3.2 0 .4 0 0 0-.1.1 0 .2v-.3s.1.3.2.2v-.2c.1-.2.4-.2.6-.1 0-.2-.1 0 0-.1 0-.1.3-.3.4 0 0-.1 0 0 0 0v-.3c0 .2.1 0 .2.2h-.1c0 .3 0-.3.2 0 0 0-.1 0 0 0h.5c-.1-.2-.3.1-.3-.2 0 .2-.2.2-.2.1l.1-.1v-.1c.1-.1.2-.2.4 0V17l.1.2.2-.1v.1c0-.3.1 0 .2-.2v-.2c0 .2.1 0 .2 0-.1.2 0 .2.1.2v-.3s0 .2 0 0c0-.3.3-.2.4-.3a.2.2 0 0 0 0 .2c0-.2 0 0 .1 0l.1-.2V16c-.2.1-.2.2-.3 0 0 .3 0 0-.2.3v-.1.1s0 .3-.1.1l-.1-.4c0 .2.1.3 0 .4-.1-.2-.2.3-.3 0v-.3.3c-.2-.2-.3 0-.5 0a.1.1 0 0 0 0-.1v.1l-.2-.2c.1.2 0 .2 0 .4-.2-.2-.5.1-.6-.3v.2c-.1 0-.2.2-.4 0a.3.3 0 0 1 0 .3v-.4l-.1.1a.3.3 0 0 1 0 .3c-.2-.3-.3.3-.4 0 0-.1-.1 0-.1 0v-.2l-.3.3v-.2h.1c-.2-.3-.4.2-.7-.1 0 .2.1 0 0 .2l-.4.1c-.1-.3-.3.4-.4 0 0 .2-.2-.1-.3.2 0-.2-.1 0-.2 0 0 .2-.3.2-.3-.1-.1 0 0 .1 0 .2-.1-.1-.2.2-.2 0 0 0 0-.2-.1-.1 0 0 .1.1 0 .2 0 .1 0-.2-.2-.2v.3l-.3-.3v-.4c-.1.2-.1 0-.3.2 0 0 .2 0 .1.2 0 .1.2-.1.2 0l-.2.2c0-.2 0 0-.2 0l.1-.2V17c0-.1 0-.1-.1 0v.2-.3c-.2.2-.5 0-.6.4 0 0-.1 0 0-.1V17c0 .2-.3 0-.3.4l-.1-.3c-.3 0-.6.3-.8.1-.3.3-.6.2-1 .3 0 0 .1-.1 0-.1-.1.3-.5 0-.8.2v-.2l-.6.3a.2.2 0 0 0 0-.2c0 .2-.2.3-.2 0-.2.4-.5 0-.7.3 0-.2-.1 0 0 0v.5c-.2 0-.2-.4-.2-.5h-.4v.1c-.5-.3-1 .2-1.3 0l-.2.2v-.2c-.6.2-1.2 0-1.8.2 0-.2-.3 0-.3 0-.2-.2-.2 0-.4 0l-.7-.1v.2c-.1-.3-.3 0-.4-.2v.2l-.1-.2c-.1.2-.1-.1-.1.2l-.4-.2a.2.2 0 0 1 0 .2l-.2-.1v.1c-.2 0 0-.1-.1-.2-.2.2-.3.2-.4 0-.1.2-.2 0-.4 0 0 0-.2.2-.3 0-.4.3-.7-.1-1 .1V18v.1c-.3-.3-.7 0-1-.2a.1.1 0 0 1 0 .1c-.2-.2-.4 0-.6 0-.2-.2-.5-.3-.7.1v-.3c0 .2-.2 0-.2 0v.1-.1c-.5.2-1-.3-1.4 0v-.2c5.7.2 11.3.4 17-1 .2-.1.5 0 .6-.3.1.2.2 0 .3.2l.1-.2c0 .3.2 0 .3 0h.3s0-.1-.1 0c0-.5.4.1.5-.3.2.3.5-.3.6.1l.1-.1c0 .1.3.1.2-.2.2 0 .4.3.5 0v-.2.2c.2.1.4-.2.6 0 0-.2 0-.2.1 0v-.2c.1 0 .2-.1.2.1h.2c.1-.5.5-.1.7-.5.3.3.5-.4.7 0 0-.2 0 0 .1 0-.1-.3-.3-.1-.5-.2v-.2c0-.1.1-.1.2 0v-.3c0 .2.2 0 .1.3.1-.2.2 0 .2-.1v.4c.2-.3.2-.1.3 0v-.2a.2.2 0 0 0 .4-.2h-.3l.1-.4.1.3c0-.3.4-.6.4-.3.1-.1 0-.2 0-.2h.1v.4h.2c0 .1-.2 0-.1.2 0-.2.1 0 .2-.1 0-.2-.1-.2-.2-.3.1-.2.2 0 .2-.1v-.3a.2.2 0 0 1-.1-.3l.1.2c0-.2.2-.2 0-.3.1 0 .2 0 .2.2l-.1.2v.1-.3l.2.1c0 .1-.1 0 0 .2l.3-.2-.4-.2v-.1l.5.1v-.2.2l.2-.1c.1 0 .3.4.4.1l-.3-.3s.2.2.3 0v.4h.1v-.5c0 .2 0 .1.1 0 .2.2.3 0 .5 0 0-.2-.2 0-.2-.3.1-.1.3.2.4-.2h.3v.3l.1-.1v.2-.3ZM47 15.7c.1 0 .2-.2.2 0 0 0 0 .1-.2 0Zm-4.7 1.7v.2l.1-.2.1.3c0 .1-.2.2-.3.1v-.3c0-.2 0 0 .1 0ZM4 8l.1.1c0 .2-.1 0-.1 0Zm0-3.9v.2c0 .2-.2-.3-.3 0v-.7.5l.1-.4s.1.2.1 0l.2.4c0 .1 0 .1-.1 0Zm10.7 1.2s-.1.1-.2 0c0-.1.1-.2.2 0Zm5.2 0-.1.3.1-.3Zm3.7 0c0-.2.1 0 .2 0 0 0-.1.1-.2 0Zm23.7-2.6-.2.1.2-.1ZM46 5.3c0 .2-.3.3-.3.1.1-.2.2.1.3-.1Zm5.5-1V4l.1.2c0 .1 0 0-.1 0Zm-7.2 6.5h-.4c.1 0 .3-.1.4 0Zm3-.4-.1.2.1-.2Zm1.6-.1-.1-.2.1.2Zm4.3 2.2c0 .3-.1-.1-.2.2v-.2s.1-.2.2 0Zm-2.4 1.2c0 .2-.1 0-.2 0 0 0 0-.2.2 0Zm-2.3 1.5c0 .1-.1.1-.1 0 0 0 0-.2.1 0Zm-.4 0c0 .1-.2.2-.2 0 0-.1.1 0 .2 0Zm2.7-8c.1-.2.3 0 .4 0 0 0-.3.1-.4 0ZM46.6 18c0 .2-.1.2-.1 0 0-.1 0-.2.1 0Zm2.2-5.3h-.2c0-.2.1-.1.2 0Zm2.4-6.4v.1c-.1-.2 0 0 0-.1Zm-.1.2v.1c-.1-.1-.1 0-.2 0v-.1l.1-.2v.2Zm-.2.3c0 .2-.1 0-.2 0 0 0 .1-.1.2 0Zm-2.2 4.4-.1-.4.1.4Zm1.6-4.4V7l-.1-.1s0-.1.1 0Zm1-2.5c0 .1-.1-.2-.1 0-.1-.1.1-.2.1 0Zm-2.8 6.8V11s0 .1 0 0c-.1.1 0 .2 0 .1 0 .2-.2 0-.3 0v.3c-.3-.2-.2-.4-.4-.5 0-.1.2-.1.2.1 0-.3.2 0 .3-.2 0 .2.1.2.2.3Zm-1.8 4.5s-.1.1-.1 0 .1-.1.1 0Zm2-5.1h-.1v-.2c.1 0 0 .1 0 .2Zm2.1-6v.3c-.1-.2-.2.2-.2 0 0 0 .1-.5.2-.3Zm-1 2.6c0 .2 0 0-.1 0 0-.2 0 0 .1 0Zm.4-1.6-.1-.3c0-.1.2.1.2.3 0 0-.1-.2-.1 0Zm-3 5.8c0-.2 0 0 .2.2l.1-.2s-.2 0-.3-.3c0-.2.2 0 .2 0l.1-.1c.1 0 .3 0 .3.4a.2.2 0 0 0 0-.2v.4c-.1-.2-.2.1-.4 0v.1c0-.1-.1-.3-.1 0 0-.2 0-.3-.2-.3Zm2.4-4.2-.2-.3c0-.2.1.1.1 0V7Zm-4.7 11.5-.1-.1c0-.2 0 0 0 0Zm.8-2.8s-.1.3-.2 0h.2Zm4-10.3c.1 0 0 .1 0 .2v-.2c0-.1 0 0 0 0Zm-.4 1.1-.2.2a64.9 64.9 0 0 1 0-.4l.2.2Zm.4-1.2c0 .3-.2 0-.2.2 0-.2.2-.1 0-.4 0-.1.1 0 .1 0v.3-.1ZM49 6.9c-.1 0-.2-.2-.2.1 0-.3.1-.5.2-.1Zm-.3.6v-.2a.2.2 0 0 0 0 .1c-.1.1-.1 0-.2 0V7c.1 0 0 .2 0 .2.1.1 0 0 .1-.1 0 .1.2.2.1.4Zm-.3.6c0 .2-.1.2-.2 0 0-.1.1-.1.2 0Zm1-2.5h-.2s.1-.2.2-.1v.1ZM47 11.2v.1c-.1-.2-.1-.1-.2 0v-.1s.1-.1.2 0Zm2-5.5v.1-.1Zm-4 10.5h-.3s.2-.3.3 0Zm4.5-11.5c0 .4-.3.3-.4.2v.2V5c-.1 0-.3.3-.4 0 .1 0 .2 0 .3-.3l.2.2v-.3a.1.1 0 0 1 .1 0v.2c.2 0 .1.1.2 0Zm-.8 2c-.1.2-.1 0-.2-.1.1 0 0 .2.2.1Zm.3-1.4.2-.1c0 .1-.1.2-.2.1Zm-2.6 6.1.2.2-.1.2c-.1 0-.1-.2 0-.4h-.3v-.2l.2.2.1-.2h.1c0 .2-.1 0-.2.2Zm.3-.1c0 .2 0 .2-.1 0h.1Zm2.1-5.6c0 .1 0 .1 0 0 0 0-.1 0 0-.2v.2Zm-4.7 11.7-.1-.1h.1Zm4.8-12s0 .1-.1 0v-.2l.1.2Zm-1.3 3c-.1.1-.2 0-.2 0v-.2c0 .2.1 0 .2.1Zm1-2.7c-.1.2-.2 0-.3 0 0-.2.2 0 .3-.1v.1Zm-.5.9v-.3.2c0 .1 0 0 0 0Zm.6-1.5v.2l-.1-.2V5v.3s.1-.1.1 0Zm-2.6 6.4c0 .1 0-.1-.1 0 0-.3.1-.2.1 0ZM48 6.6c0 .1-.1 0-.2 0 0 0 .1-.1.2 0Zm-4.5 11c0 .1 0 0-.1 0 0-.2.1-.2.1 0Zm4-10.3-.2.1.2-.1Zm-2 4.3.2-.1c0 .3-.1.3-.2.1Zm2.7-7.4V4c0 .2.1 0 .2.1v.2V4c0 .3.2.5 0 .7v-.2l-.1.2s-.1.2-.2 0l-.1.2v-.3l.1-.2c0-.1 0 .1 0 0v-.2l.1-.1Zm-.6 2.1c0 .2 0-.3-.2-.5 0 0-.1.2-.2.1 0-.2.2 0 0-.2.2-.1.3 0 .3-.2v.1l.1.7ZM43 17.6l-.3.4-.1-.5v-.2l.1.4v-.3l.3.2Zm2.4-6c0 .1-.1 0-.2 0h.2Zm3-7.5v-.3.3Zm-1 2.3-.2-.2c0-.2.2 0 .2.2ZM45 11.7v.1-.2.1Zm1.2-3s-.2 0-.1-.2l.1.1Zm1.5-3.8v-.3.3ZM45 11.5c0 .1-.1 0-.2 0 .1-.1.1 0 .2 0Zm0-.8c0 .1 0-.1 0 0 0-.2 0-.1 0 0Zm3.3-8.2h-.1v-.3c0 .1 0 .2 0 0l.1.3Zm-6.7 15.2s0 .2-.1 0h.1Zm3.6-9.1c0 .1-.1.1-.2 0 0 0 .1-.1.2 0Zm-1.5 3.6c0 .2-.1 0 0-.1v.1Zm1-3.2s-.1-.2-.2 0c0-.2.2-.3.3-.1V9ZM41 18c0 .1-.1 0-.2 0 0-.2.2-.1.2 0Zm6-15.2v.3-.3Zm-1.3 2.8v.1c-.1-.2-.2 0-.3-.1 0-.2.1 0 .2-.3l.1.3ZM43.3 11l-.1.2c-.1-.1 0-.3 0-.4l.1.2Zm2.5-7.3-.1-.2.1.2ZM44.4 7s0 .1-.1 0c0-.1 0-.1.1 0Zm.6-1.5c-.1.2-.2.1-.2 0h.2Zm-.6 1c-.2 0-.3 0-.3-.2 0 0 .2.1.2 0l.1.2Zm-1.2 2.7H43c0-.1.1-.2.2 0ZM45.4 3v.3h-.1V3Zm0 0c0-.3.2.1.3.2l-.2.2-.1-.4Zm0 .8c0 .1-.1 0-.2 0a.2.2 0 0 0 0-.2c0-.2.1-.1.2-.1 0 .2-.1 0-.1.1v.2Zm-1.1 2c0 .2-.1 0-.2.1 0 0 .1-.2.2 0Zm0-.1v.2-.2ZM44 6.8c0-.2 0-.1-.1 0l-.1-.2.1-.2.2.2v.2Zm-2.3 5.7v.1l-.2-.2.2.1Zm-2.3 5.6V18c.1 0 0 .2 0 0Zm6-14.9-.2.2c0-.1.1-.4.2-.2ZM42 11h-.3.3Zm2.8-7.3c0 .2-.1.3-.2.3v-.3.1l-.1-.1c0-.2.2-.2.3 0ZM42.2 10l-.2-.2c0-.2.2 0 .2 0a.3.3 0 0 1 0 .2Zm1.2-3.6v-.2c.1.2 0 .4 0 .2Zm1-2.6-.2.2v-.1c0-.1 0-.1.1 0Zm-1.1 2.7-.2-.1h.2Zm-.5.5v.2l-.1-.2c0-.1 0-.1.1 0Zm0 0c.1-.2.2.1.2 0 0 .1-.1.2-.2 0Zm1.3-2.8c0 .2 0 .3-.1.1 0 0 0-.2.1 0Zm-1 2.4h-.2c0-.2.1-.2.1 0Zm-.4 0-.1-.3.2-.2v.1l.1.2v.2c0-.2-.1-.2-.2-.3v.2Zm0 .1c0 .1-.1.1-.2 0 0-.1.3-.3.3 0ZM44.4 3H44h.3Zm-.7 1.4v-.2.2Zm.2-.7h-.3c0-.2.1 0 .2 0 0-.2-.2-.2 0-.3v.3Zm-1.6 3.7c0-.2 0-.6.1-.3l-.1.3Zm.2-.8v.2-.2c0-.2 0 .1 0 0Zm.6-1.7s-.1-.1 0-.2v.2Zm.2-.7v-.4s.1.3 0 .4Zm-1 2.1c0-.1.1-.3.2-.2 0 .2 0 .4-.1.2Zm1-2.4c-.1.1-.2 0-.2.2 0-.3 0-.1-.2-.2l.1-.1c0 .1.2 0 .2 0Zm-.4 0c0 .4-.2 0-.3.3 0-.4.2-.2.3-.2Zm-.1.4-.1.1v-.2.1Zm-.7 0c0 .1-.1 0-.1 0v-.1.1Zm-1.3 2.4c0 .3-.1.1-.2.1 0-.2.2 0 .2-.1ZM39 11c0 .1-.2 0-.1-.2v.2Zm1.6-4.8v.3s0 .1 0 0v-.3Zm0 .2c0 .2-.2-.1 0-.2v.2Zm.7-1.9H41c0-.2.1 0 .2-.2v.2ZM40.6 6v.1l-.1-.1s0-.1.1 0Zm-.5 1c0-.1 0-.4.1-.2 0 .1 0 .2-.1.1Zm0 .1a46.3 46.3 0 0 1 0-.1Zm-1.7 4.1v.1l-.1-.2v.2L38 11l.2-.1c-.1-.2-.2 0-.3-.1v.3c-.1-.2 0-.1 0-.2 0-.2-.1.2-.2 0 .2-.3.4-.3.7-.2 0 0-.1.1-.1 0v.4Zm1.8-4.7h-.1v.2l-.1-.3.2-.2v.3Zm.7-1.8c0 .2 0 0-.1-.1l.1.1Zm-1.2 3.1v.1a46.2 46.2 0 0 0 0-.1Zm-.8-1c0-.1.2-.3.2 0 0-.2 0-.5-.1-.4 0-.2.1 0 .2-.1l.1.3v-.3s.3.4.4 0l.2.6c0 .2 0-.2-.1.1l-.1-.4c-.1 0-.3 0-.4.2v-.2c-.1 0-.2.6-.3.4 0 0 0-.1 0 0 .1-.3 0-.2-.1-.2Zm-.1-.3s.1 0 0-.1c.1 0 .2 0 .2.2h-.2Zm1.7-1.8h.3c0 .2-.2.1-.3 0ZM40.2 6c0 .1 0 0 0 0-.1 0 0-.2 0 0Zm-.2.2c0 .1-.2.1-.2 0h.2Zm.5-1.4c0 .1-.1 0-.1 0 0-.1 0-.2.1 0Zm-2.8 6.5-.1-.2c0-.2.2 0 0 .2Zm-.1-.1v.1c-.1-.2-.2-.1-.2-.3l.2.2Zm1.9-5c0 .2-.1.1-.1 0h.1Zm.3-1-.2-.1c0-.1.1 0 .2 0ZM38.7 7l-.2-.2h.2V7Zm-.2.5c0 .2-.1 0-.1.1 0 0 0-.4-.1-.2v-.2s0 .2.2.3Zm.2-1c0 .3-.2 0-.2.2v-.2c0 .1.1 0 .2 0Zm-4.8 12a.1.1 0 0 0-.1 0v-.2.2Zm2.7-7.2-.1-.2c0-.1.1-.2.2 0-.1 0-.1.1 0 .2Zm1.2-4-.1-.3c0-.1.1 0 0 0l.2.1V7v.2-.3c.2.1.4.2.5 0 0 .3-.3.4-.4.3v.2c-.1-.2-.1-.1-.2 0ZM39 4.2V4l-.2-.4c.1 0 .2.4.3.2a.3.3 0 0 1 0 .3Zm-1 2.7-.1-.1.2-.2V7Zm.8-2.1-.1-.2v.2ZM39 4c0 .2-.1.2-.2.2v-.4l.2.2Zm-1.4 3.2V7c.1.2 0 .1 0 0Zm.6-1.5H38c0-.3.2-.1.2 0Zm.6-1.6c0 .2-.1.1-.2.2v-.1c0-.2.1 0 .2-.1Zm-1.4 2.7.1.4-.1.2v-.2l-.4-.1c.1-.2.3.1.4-.3Zm-4.5 11.5c0 .2 0 0-.1 0 0-.1.1 0 .1 0Zm2.8-6.8c-.1.1-.3-.2-.2-.4 0 .1 0 .1 0 0l.2.4ZM38.4 4v.1s-.1.1-.2 0h.2Zm-1.6 4c0 .3-.1.2-.2.2 0-.2.2 0 .2-.1Zm0-.4s-.2.2-.3 0l.3-.1s0 .1 0 0Zm1.3-3.4v.1c-.1 0 0-.1 0-.2v.1Zm-.2.1s-.1.1-.2 0c0-.1.1 0 .2 0Zm-1.3 3v-.1c0-.2 0-.4.1-.2v.3Zm1.2-3.2v-.3.3l-.2-.3c0-.2.2 0 .3 0v.3Zm-.2.2v.2l-.1-.2s0 .1.1 0Zm-1.2 2.8c0 .3-.1 0-.2 0 0-.2.2.1.2 0Zm-.6.7h-.1c0-.2.1 0 .1 0Zm.2-.7c0 .4-.2.2-.3.3 0-.3.2 0 .3-.3Zm-.8 1.3h-.1c0-.1.1-.1.1 0Zm0-.4s-.2.2-.3 0c.1-.1.2.1.3-.2V8Zm-.2-.2v-.3c0-.1 0 .3.2.1 0 .2-.1.2-.2.2Zm-.3 0c0 .1 0 .1-.1 0 0-.2.1 0 .1 0Zm1.1-3s0 .2-.1 0h.1Zm0-.2c0 .1 0 .2-.1 0 0-.1 0 0 .1 0Zm-.3.8v-.3.3Zm.1-.5c0 .2-.1 0-.2-.1l.1-.2v-.3c.1-.2 0 .5.1.6Zm-1.5 3.5c0 .2 0 .2-.1 0h.1ZM35.3 5c0 .1 0 .1-.1 0 0-.1 0 0 .1 0ZM34 8.1V8v.3c0-.3-.1-.3-.2-.2l-.1-.1v-.2c0 .3.2 0 .2.2 0-.2.2-.2.3-.2-.2 0 0 .2-.2.4Zm-.3 0v.1c0 .2-.2 0-.1-.2 0 .3 0 0 .1 0Zm-.2 0c0 .1 0 0 0 0-.1 0-.2-.2-.1-.3l.1.3Zm-.4.6c0 .1 0 0-.1 0 0-.1 0-.1.1 0Zm-4.8 9.6s0-.2-.1-.1c0-.2.1-.1.2 0l-.1.1Zm4-10c0 .4-.3.1-.2-.1 0 0 0 .3.1.2Zm-4.4 9.8v.4c0-.1 0-.4-.1-.3 0-.3.2-.2.3-.1 0 .2-.1.2-.2 0Zm-.2 0h-.1c-.1-.2.1-.2.1 0Zm4.5-13c0 .1 0 .1-.1 0 0 0 0-.2.1 0ZM32 5c0 .2-.1 0-.2.1 0 .6-.3 0-.4 0l.1-.2V5v-.5c0 .1.2.2.1.4 0 0 .1-.3.2 0 0-.2.2-.1.2 0Zm-.1-.2-.3-.1c.1-.2.2 0 .3 0Zm-5.7 13c0-.3.2 0 .2 0 0 .2-.1 0-.2 0Zm5.2-13c0-.1 0-.2-.1 0v-.3c.1.1.2.1.1.3ZM31 5c0-.2 0 0 .1-.1V5Zm.3-.8a.3.3 0 0 1 0-.1v.1Zm-5.4 13.5-.1.1v-.1c0-.2 0-.1 0 0Zm4.7-12.6h-.2v-.3.2l.1-.1.1.2Zm-5.1 12.7v.2c-.2-.1 0-.3 0-.2ZM30 5.2h-.2c0-.2.1-.2.2-.1Zm-5.3 12.6c0 .1-.1 0-.1 0v-.1c0-.1-.1 0 0 0-.2.2-.1 0-.1-.1v-.1c.2 0 0 .2.2.3Zm4.7-12.5V5s-.1-.2-.2 0c0-.3.2-.2.3-.2v.5Zm-5.1 12.5v-.3.3Zm4.9-12.4a.1.1 0 0 0-.1 0V5c.1.1 0 .3 0 .4Zm-5 12.3c0 .1 0 .1-.1 0 0-.1 0 0 .1 0ZM29 5v-.1h.2c-.1.2-.2.1-.3.1Zm0 0v.4s-.1.1-.2 0V5h.2Zm-5.1 12.6v.3h-.1l-.1-.3s.1.1.2 0ZM28.8 5a.2.2 0 0 1-.1 0c0-.1 0 0 0 0-.1 0-.2-.2-.1-.3V5v-.2l.2.3Zm-.5.2h.1c0 .2 0 .2-.1 0Zm-.3 0V5s0 .1 0 0c0-.2 0 0 0 0Zm-.1 0c-.1.1-.2 0-.2 0 0-.1.1-.1.2 0Zm-.2.3a.3.3 0 0 1 0-.2v.2Zm0 0h-.4c.1 0 .2-.2.3 0Zm-.2-.3s-.2 0-.2-.2l.2.2Zm-.5.6c0 .1-.1 0-.2 0v-.3a.2.2 0 0 0 .2.3ZM26 5c0 .1-.2.3-.2.1 0-.1.1 0 0-.1h.1Zm-6.9.5-.3-.1c0-.2.1-.1.2-.2l.1.3Zm-.5-.2c0 .3-.1 0-.2.2 0-.2.1-.2.2-.2Zm-6.4 12-.1.1c-.2-.3.1-.2 0-.4v.2Zm0-.3.2.4v.2c-.1.1 0-.2-.1-.3v.1c-.1-.1-.1-.2 0-.4Zm4.6-11.5c0-.2-.2-.1-.2-.3h.2v.3Zm-4.9 11.9c0 .1 0-.1-.1 0V17l.1.4Zm4.7-12c-.1.2 0 0-.2 0 0-.2.2 0 .2 0Zm-4.9 11.8V17v.2Zm0-12.4s-.1-.1-.2 0c0-.2.1-.2.2 0Zm-.2-.1h-.3c.1-.2.2-.2.3 0Zm-.3-.1v.1-.1s0-.2 0 0Zm-5 6.8v.2l-.3-.3V11l.3.4Zm-.5 0-.3-.2V11l.3.3Zm2.6-7.1s-.2 0-.2-.2l.2.2Zm-3 6.8v.1l-.4-.6c.2-.1.3.4.4.5Zm1.6-7.7c0 .2-.1 0-.2 0V3H7v.5ZM3.8 11c0 .2-.1.1-.2.2V11l.2.1Zm.4-3-.1-.3v-.3c0 .1.1.4.2.3l-.1.3ZM5 4c0 .2-.1 0-.1 0s0-.1 0 0Zm-.3.2h-.3c0-.2.2 0 .3 0Zm-.5 0c0 .2 0 .1-.1 0h.1Zm0-.6c-.1.2-.3 0-.2-.1 0 .1 0 .1 0 0l.1.1Zm-3 1.7v-.2.2Z"
          clip-rule="evenodd"/>
    <path fill="#F9DE0F"
          d="M49 27.8Zm0 0h.1Zm.7-.1.6-.1c-.1-.2-.3.2-.3-.1-.1.2-.2.2-.2 0l-.1.2Zm-16.7.5Zm19.2-12Zm-7.8 4.2Z"/>
    <path fill="#F9DE0F"
          d="M54 23.2s-.1-.2-.2-.1V23c0-.1.1.1.1 0 0-.2-.2 0-.3 0v-.3l-.1.2-.2-.1v.2c0 .1 0-.2 0 0l-.1.3V23c-.1-.2-.2 0-.2-.2 0-.1.1 0 0-.1l-.2.1v.1c0 .2-.2 0-.3.2a.1.1 0 0 1 0-.2l-.1-.1c-.2.3-.3.2-.5 0 0 .2.1.1 0 .2 0 .2 0 0-.1 0v.2l-.1-.1c-.1.2-.2-.2-.3-.2-.1.2-.3.1-.3-.1 0 0 .1.2 0 0 0 0 .1-.2 0-.2v.5h-.3l-.2.1c0-.2-.1 0-.2 0V23l-.1.3c-.1-.2-.1.2-.2 0V23c-.1 0-.3 0-.2.1 0 0-.2-.2-.4 0V23c-.2 0 0 .1 0 .2-.2 0-.2-.2-.4-.1l.1-.2-.3.1h.1s-.1.2-.2 0c0 0 .1 0 0-.1v.1c0-.2-.1 0-.2-.1l.1-.2h.1c.2-.4.4.2.6-.2.1.1.2-.2.3 0l.5-.1v-.2s.1-.1.2 0v-.4l.1.3.2-.3.1.2v-.4h.2a.4.4 0 0 0 0 .4v-.3c.2.2.2 0 .4 0-.1-.2-.2-.1-.1-.3l-.1-.1H51v.2c0-.2 0 .2-.1-.1-.1.2-.2.2-.4.3v-.2s0 .1 0 0c-.2.1 0 .2 0 .2-.1.1-.2 0-.2-.1v.2c-.2 0-.2-.2-.3 0v-.1h-.1c0-.1-.1 0-.2 0-.2-.2-.3.2-.5.2 0-.1-.1-.3 0-.4v.2c.1-.1 0-.2 0-.2.3-.1.6-.1.8-.3 0-.2 0 0-.1-.1v-.3.2l-.3-.2.1.3V21l.1.2c0-.2 0 0-.2 0V21c-.2 0-.6-.1-.7.1V21l-.2.3s0 .2 0 0c.1 0 .2 0 .2.2 0 0-.3.1-.3-.3h-.2c0 .2.2.2.1.3 0 .1-.1-.2-.2 0 0-.4-.2-.1-.2-.3v.1c0 .1-.1.1-.1 0l-.2.2-.1-.3v.2c0-.2-.1-.2-.2-.2v.2-.1h-.1v.2l-.1-.2c0 .2-.2.3-.2 0v.2h-.6v.2c-.1 0-.2-.3-.2 0-.1-.2-.2 0-.2-.2a.2.2 0 0 1 0 .2c0-.1-.4-.4-.3 0l-.3-.4c-.1.3-.5 0-.4.3 0 0 0-.2-.1 0 0 0 .1 0 0 0 0 .2-.2.2-.2 0l.2-.1c-.2 0-.3 0-.4.2v-.2c-.1.1-.1 0-.2 0l.1-.2.2-.1c0-.1-.1.1-.2 0l-.1.3-.1-.3v.6l-.2-.2c0 .1-.3.2-.3-.2v.4l-.1-.3c0 .1-.2.1-.2 0v.3l-.2-.2c0 .2 0 .2-.2.3v-.2c-.1.2-.3.2-.3 0h-.2c0 .3-.2 0-.3 0v-.1s-.1-.2-.2-.1c0 0 .2 0 .1.2-.1 0-.2.3-.3.2l-.1-.3c.1-.1 0 .3.2.2-.1-.2 0-.3 0-.4-.1.2-.2.1-.3.2v.3-.1.1h-.3c0 .2-.2 0-.4.1v-.2s0 .2-.1 0c0 .3-.2 0-.3 0v.2c0 .2 0 .2.1.1 0 .3-.2.3-.3.1h.2c-.2-.2-.3 0-.5-.2a.2.2 0 0 1 0-.2v-.1l-.1.3c-.1.1-.1-.2-.2 0l.1-.2c0-.2-.1 0-.1-.1l-.1.5c-.1-.1-.4 0-.3-.4a.3.3 0 0 0 .2 0s-.1 0 0-.1H39v.3c.1 0 0-.2 0-.1.2 0 0 0 0 .2.2 0 .2.2.3.1l-.2.1s0-.3-.1-.2v.3s-.1 0 0-.2V22c0-.2-.1 0-.2 0v-.1h.1v-.2h.2v-.2.2c.1-.1.2-.2.3 0 0-.2 0-.2 0 0v-.2l.2.1c0-.2.1-.1.2 0v-.3c.2.3.4-.2.5.2 0-.2 0 0 .1 0V21c.1.3.3 0 .4 0v.1h.3c0-.1-.1 0 0-.2 0 .4.3 0 .5 0v.3c0-.1.1 0 .2 0V21c.2-.2.6.1.9-.2h-.2l.1-.3c.1.3.1 0 .2 0v.2l.2-.2v.2h.3l-.2-.1c.2-.1 0-.2.1-.4v.2h.5l.1.2v-.3l.2.3s.1.1 0 .2h.2v-.1l-.1-.1.2-.2-.1-.1c.1-.1.2.1.4.1 0 0-.2-.2 0-.3 0 .2.1.5.2.3l-.1-.1h.3v-.2l.1.2.1-.1V20c.2-.1.3.1.5.2v-.4l.1.1c0 .1-.1 0 0 .1l.1-.2v.3c.2-.2.4 0 .6 0h-.1v-.3c.2.4.4 0 .6 0a.1.1 0 0 1 0-.2c0 .2.1.3.2.3v-.2l.5.1v-.2c.2.1.2 0 .4-.1a.2.2 0 0 1 0-.2c0 .2 0-.1 0 0l.1.2.1-.1v.2c.1-.1 0-.2.2-.2v.2c.1-.3.4-.1.3-.5h.3V19s0-.2.1-.1v.4c0-.2.2-.4.3 0 .5-.4 1-.4 1.5-.6 0-.1 0 0-.1 0 0-.1-.1 0 0-.2v.1c.1 0 0-.1 0-.2h.2v.2l-.1.3h.1v-.2c.1 0 .2-.3.4-.1 0-.2 0-.2 0 0 0-.2.1-.1.2-.2h-.2c0-.4.2-.1.3-.2l.1-.2v-.3c0 .1.1 0 .2 0v.3l.2-.3v-.3c-.1 0-.2.1-.2 0-.2.2-.3.1-.5.2-.1-.3-.2 0-.3 0v-.1l-.1.1v.3c-.2-.2 0-.3-.2-.4 0 .1 0 .1-.1 0v.1l-.2-.1c0 .3.1 0 .2.1v.3l-.2-.1c-.1 0 0 .2-.1 0l-.1.2-.1-.2-.1.3v-.4c0 .3-.1 0-.2.3l-.1-.1c0-.1.2 0 .1-.2l-.3.1c0-.3-.2 0-.3-.1.1-.1.4-.2.3-.5v.2c.2-.1.2.2.3.2v-.3.1c.1 0 .2 0 .2-.2l-.1-.1s0-.1 0 0l.2.1v.1h.3c.1.5.4-.2.6 0l-.1-.3c-.1.2-.3.4-.3.1 0 .2-.1.2-.2.1 0-.1.1 0 0-.2.2.3.3-.2.3.1 0-.2.2 0 .3-.2l-.1-.2v-.1l.2.1v.2l.2-.2s-.1-.1 0-.2v.2c.1-.3.2 0 .3-.4l.2-.1V16s.1-.3.1 0v-.3c0 .1.1 0 .2 0l-.1.2v.1h.2v-.3s0 .3-.1 0v-.3c.2.2.2-.1.3 0l-.1-.2c0 .2-.2.2-.2.2v-.1l-.3-.1v.2h-.3c0 .2 0-.1.1 0v.3-.1h.1c-.1 0 0 .1 0 .2l-.2-.2-.1-.3c0 .2-.2 0-.3.2 0 0 .1 0 0 .1 0 0 0 .1-.1 0l-.2.2-.1.3-.1-.2h-.1v.2h-.1v.2c-.1-.2-.2 0-.2-.1l.1-.2c0-.1-.2.2-.3 0 .1 0 .3-.3.4-.2v.1-.4c-.1.3-.3.4-.4.1 0 .1 0 .2 0 0-.1.2 0 .3 0 .4-.1-.1-.1 0-.2 0 0-.1.1-.1 0-.2 0-.2 0 .1 0 0l-.2-.2c.1 0 0-.1 0-.2v-.2c-.1.1 0 .2 0 .4h-.3s.1 0 0 .1v.2c0-.2-.1 0-.2.1v-.3c-.2.2-.2.3-.1.4-.1-.2-.2 0-.3-.2v.1c0-.3.2-.2.2-.5l-.2.2V15c-.2.2-.3 0-.5 0 0 0 0 .2.2.3-.2.2-.3.3-.5.2-.1.3-.3 0-.4.4 0-.2 0 0-.1-.1v.2c-.3-.2-.5.2-.6.2v-.1s0-.2 0 0v.1l-.4.2h.1c0 .2-.1.2-.2.2v-.4c0 .3 0 .7-.3.5l.1-.2c-.1-.2-.2 0-.4-.1 0 .2-.2 0-.3.3l-.2-.1v-.2c0 .2-.2-.1-.3 0 0 .3.2 0 .2.2 0 .1-.4 0-.3.3-.2 0-.3-.2-.5 0l-.1.2v.3l-.1-.2v.3c0 .1 0-.3-.2-.1a.2.2 0 0 1 0 .2v-.3c0 .2-.1 0-.1.1v.2l-.2-.2s.2-.2.1-.3c-.1 0-.2.1-.4 0v.3c0-.1 0 .2-.2.1 0-.1.2-.1.1-.3v.2l-.2-.2c-.1.1-.2 0-.3.2 0 .1 0-.1 0 0v.1s-.2-.2-.3-.1v.2c-.1 0-.1.1-.2 0v.2h-.2v.2c0-.1-.2-.1-.1 0l.6-.2v.3c-.2 0-.6.4-.7-.1v.2h-.3v-.3s0-.1.1 0v.2l.1-.1v-.4.2c-.2-.3-.3.3-.3-.2h-.1v.2c-.1 0 0-.1 0-.1h-.3s-.1 0 0 0l.2-.2H41v.1-.3h.2v-.2c.2.1.2.4.4.1 0-.1-.1 0 0-.2v.2-.3c0 .2.1 0 .2.3V17v.3c.1-.3.2-.3.2 0 0 0 0-.1 0 0 .1-.1 0-.3.2-.3v.3s.2 0 .2-.2c0 .1-.1 0-.2 0 .2-.1.4.1.4-.3 0 .1.1-.1.2 0 0 0-.1.3-.2 0v.4c0-.2.1-.2.2-.3v-.2c.1.1.3 0 .3-.1 0 .2.2.1.1.3 0-.1.2-.2.1-.3l.1.3c0-.2.3 0 .2-.2 0 0 .2 0 .2-.2 0 0-.1.1-.2 0 0-.2.2 0 .2-.1a.1.1 0 0 0 0-.2s0 .2-.1.1c0-.1.1-.2.2 0h.3v.3c0-.3 0 0 .2-.1 0-.2-.2-.2-.1-.4.1 0 .2-.1.4 0 0-.2.3 0 .4-.3v-.4.2c.1.2.2 0 .3.1v.3s0-.1.1 0v-.3l-.1.2v-.2l.4-.2v-.3c0-.1 0 .2-.1 0 0-.1 0-.3.2 0v.2s0-.2-.2 0l.2.1c.1 0 .3-.3.4 0l.1-.3.1.2c.1-.2.4-.4.5-.1V15c0 .1.1 0 .2 0l.1-.1v-.2h.1v.2c0-.1.2 0 .2-.2.2 0 .3 0 .5-.2 0 .1 0 0 0 0 .2 0 .4 0 .4-.2.1.2.3-.1.3-.2 0 0-.1 0 0 0 0-.1 0-.1 0 0h.3c-.2-.2-.2-.4-.3-.2h-.3v.2l-.4-.1v.3c-.2-.3-.3 0-.3 0v.1c.1-.2.3-.1.3 0-.1.2-.2 0-.3.2v-.2l-.1-.2c-.1.3-.2-.2-.3 0 0 0 .1 0 0 .1h-.2v.3l-.2-.2v.4c0-.2-.1-.1-.2 0v-.3c-.1 0 0 .1 0 .2-.2.1-.2-.3-.3-.2a.2.2 0 0 1 0 .2c-.1.2-.2-.2-.2-.2v.2l.1.2c-.2.2-.2-.1-.3-.2v.2l-.1-.2c0-.1.1 0 0-.1l.5-.3c-.1-.2-.4.4-.5 0h-.2s.1 0 0 .1l-.2.2v.1s0 .1-.1 0l-.2-.4c0 .1 0-.1-.2 0-.1-.2-.3 0-.5.1v.1s0-.2-.1 0h-.1v.1-.1c-.2 0-.3.2-.4 0v.3c-.2-.4-.3-.2-.5 0v.1l.2.4s0-.2-.1-.1v-.3.3c-.1 0-.1.2-.2.1-.2-.4-.4-.2-.6-.4l.1.2c-.1 0-.1.1-.2-.1 0 .2 0-.2 0 0v.2h-.1V15c0 .2-.2.1-.2 0-.3.2-.6-.1-.8.4l-.1-.2c-.1.2-.2.1-.2 0-.1 0-.2.1-.2 0-.1 0 0 0 0 .2 0 0-.1-.1-.2.1 0-.1 0-.1 0 0-.4 0-.8.2-1 0 0 0 .2 0 .2-.2 0 0 .1-.1 0 0 .2 0 .1-.2 0-.3 0 .2-.2.4-.2.1 0 .2-.1 0-.2 0 0 .2.1.1 0 .2 0 .1 0 0 0 0v-.1a.3.3 0 0 0 0 .3s0-.1.1 0v.4c0-.1 0 0-.1 0 0-.5-.3-.7-.4-.7v.2c-.1-.2-.3 0-.3 0v.2s-.1-.3-.2-.2c0 .2 0 0 0 0l-.2.3v-.3c0 .1-.1.1-.1 0-.1 0 0 0 0 .1-.1-.2-.1 0-.2 0v-.2c0 .2.1 0 .2 0V15h-.2l.1-.3-.2.4c-.1-.1-.2.2-.3.2l.1.3s-.1.1-.2 0c0 0 0-.2-.1-.1v.2c0-.2 0 0-.1 0v-.3s.1 0 0 0v-.3l-.1.3h-.2v.3c-.2-.1 0-.2-.1-.3v.3h-.4c0 .1-.1 0-.2 0v.2c-.2-.1-.2-.3-.3-.4v.4l-.3-.1.2-.1c-.2-.2-.4.1-.5 0-.2 0-.3.3-.4 0v.2-.1l-.1-.2c0 .3-.3-.1-.3.1l.1.2c0-.1-.1.1-.2 0v-.2c-.2 0 0 .1-.1.2v.3c0-.2-.2.2-.2-.1v.1l-.2-.1c0-.1 0 0 .1 0l-.3-.3v.3c0-.2.2 0 .1.2l-.2-.1V16v.2c-.2-.2-.4 0-.5-.2v.3c-.1 0 0-.2-.2-.1a.1.1 0 0 1 0 .1V16a.2.2 0 0 1 .1-.2H33v-.3c-.2.1 0 0-.2.3.2.2.3 0 .4.1l-.1.2v.4h.2c-.1.2-.3 0-.2-.1 0 .1-.2 0-.2 0 0-.2 0 0 .1-.1a.2.2 0 0 1 0-.2c-.2-.2-.7.4-.7-.2 0 0 .1 0 0 0l.2.1c.1-.2.2 0 .3-.1 0-.1-.1 0-.2 0v-.3s0-.2-.1 0v.3l-.1-.4.1-.2c-.1.2-.3 0-.2.4-.1-.2-.4-.4-.4-.2h-.1v.2h.3v.2c-.1-.2-.3 0-.4-.2v-.2s-.3.2-.3-.1c0 .1 0 .3-.1.1v.2c0 .1 0-.1 0 0v.2c0 .1 0 0 0 0 0-.2-.2-.2-.1-.4 0 .2-.2.4-.2.1l-.1.1c0 .3.2.2.1.4.3-.2.4 0 .6 0 0 .3-.2 0-.2.2v-.2c-.2.1-.1 0-.1.2l-.1-.2c-.1 0 0 .3 0 .4 0 0-.2.1-.2 0v-.2c0 .2 0 0 .1.1v-.2.1-.2c-.1 0-.3.2-.3 0 0 0 .1.1.2 0l-.1-.2c0 .3-.4.3-.4 0v.2-.2c-.1.1-.2 0-.2 0h-.1l.3.6-.1-.2c0 .2-.1 0-.2.2v.2c-.1-.2-.2 0-.2 0v-.2s0 .1 0 0c0 0-.1-.1 0-.2 0 .1 0 0 0 0 0-.3-.1 0-.2-.3v.2l-.2-.1c-.2.2-.2 0-.3-.1 0 0-.1.2-.1 0v.2c-.1-.2-.2 0-.3-.1a.2.2 0 0 1 0 .2l-.1-.1v.2c-.1-.2-.1 0-.2 0v-.2s-.2-.2-.3 0v.1c0-.1-.1-.2-.1 0-.1 0-.3-.2-.4 0h-.1l-.1-.2c0 .1 0 .2-.1.1l.1.2v.4l-.1-.1c-.1 0-.2.2-.3 0 0 0 0 .2 0 0-.2.2-.5 0-.7.1l.2-.3c0 .2 0 0 0 0v.2c.2 0 .3-.2.4-.1 0 0-.1 0 0-.2-.1-.1-.1 0-.2 0 0 0-.2-.2-.3 0v.1h-.1v-.2h-.4l-.1.2v-.1c-.1 0 0 0 0 .1h-.2v-.2c0 .1 0 0-.1 0v.3-.3c-.2.2-.3 0-.4 0 0 0 .1.2 0 .2-.1.2-.4-.2-.7.3v-.2c-.1 0 0 0 0 .2-.2 0 0-.1-.1-.2v.2h-.3v-.2h-.3c0 .2 0 0 .1 0v.2h-.4l.3-.1v-.2c-.2.2-.1 0-.2 0l-.2.3v-.3.2c0-.1-.2-.2-.2 0-.1-.2-.3-.1-.4 0 0-.1 0-.4-.1-.3l-.1.3c-.1-.3-.3 0-.4-.4 0 .1 0 0-.1 0 0 .4-.4.1-.5 0 0 .2.2.1.2.2l-.2.2c0-.2 0 0 0 0v-.3c-.2 0 0 .2 0 .3-.2 0-.2 0-.2.3l-.1-.4c0 .1-.2.1-.2.3l.1-.5c-.1 0-.1.5-.3.2.2-.1.1-.3.3-.4h-.2c0 .3-.1.3-.2.4v.2-.1c-.1 0-.2.1-.2-.1-.1.2-.3.2-.3 0v.1c0-.2-.1 0-.2-.1v.3c-.1-.2-.2-.3-.3-.2l.1.2v.1c-.2-.1-.2 0-.3-.3-.2.2-.3-.3-.5 0-.1 0 0 .2-.2.2v-.2l-.3-.1s.1 0 0 .2c0 0-.2 0-.2-.2 0 0-.1.1-.2 0l-.1.3c0-.3-.1 0-.2-.1v-.3.5c0-.1 0 0-.1 0v-.3.2-.3c-.2.2-.1-.1-.2 0v.2c0 .1 0 0-.1 0v-.1l-.1-.3v.5s-.2.1-.2 0v-.2l-.2-.3c-.1.2-.2 0-.2.2l-.2-.2c0 .3-.1 0-.2.1 0 .2.1 0 .2.1-.2.3 0 0 0 .3l-.4-.4v.3c0 .1.2 0 .1.2 0 0-.1-.1-.2 0-.1 0-.2-.2-.3 0 0 0-.1-.5-.2-.3v.3c0-.1-.3 0-.4-.2 0-.2 0 .1.1 0v-.2c-.1.2-.2.2-.3.2 0-.3-.1-.1-.2-.3v.2c-.2-.2 0-.3 0-.4 0 .2-.3.5-.4.4v-.2.2c-.2 0-.2-.2-.2 0v-.3l-.1.2h-.3v-.3h-.2a.2.2 0 0 1 0 .2H13v-.2c0 .1-.1 0-.2 0v.2l-.2-.1v.2c-.2-.3-.3 0-.4-.1v-.1l.2-.1s-.2 0-.2-.3v.3c-.2 0-.6-.6-.8-.4 0-.2 0 0-.1-.1 0 .3.2.2.2.4-.2 0-.4 0-.5-.2-.1 0 0 .2 0 0l.1.4-.3-.3c-.2-.2-.5-.1-.7-.7v.4-.2s.1 0 0 .2l-.1-.2-.1.2v-.3h.2v-.2.2l-.4-.2v.5l-.2-.2c0 .2-.1 0-.2.1 0-.2-.2-.3-.2-.2 0 0 .1 0 0 .2v-.1s-.1-.1 0-.2a1 1 0 0 1-.3-.2c-.2.3-.2-.2-.4.1l-.1-.1.1.6c-.2 0-.4 0-.6-.5-.1 0-.4 0-.5-.4.2-.3.5.5.6.2v.2-.2c.2.1.2.5.4.5 0-.3-.2-.7-.4-.7 0 0 .1.1 0 .2 0-.2-.2-.2-.2-.5l-.3.1c-.1-.2-.2-.1-.3-.4v.2c-.1 0 0 0 0 .2l-.2-.3c0 .1-.1.1-.2 0 0-.1 0 0 .1 0a.3.3 0 0 1 0-.3c-.1 0-.2-.1-.2 0v.3l-.3-.5c0 .3-.1-.3-.2 0v.2c.1-.1.1 0 .2 0v.2l-.2-.2c0 .3 0 0-.1.1 0 .2.3 0 .3.6-.1 0-.4-.6-.4 0l-.2-.2v-.1c-.2 0-.4-.2-.7-.1v-.2c0 .2-.1 0-.1 0v.3h-.3v.2-.2c-.1 0 0 .2-.2.3v-.2.4c-.2 0-.2-.2-.3 0 0-.1.2 0 .2 0H4l-.1.2s0-.2-.1 0a.4.4 0 0 1 0 .3l.2.1v.3c-.1-.3-.2-.3-.3-.3 0-.1 0-.4-.2-.3l.1.2v.2l-.1-.2v.2l-.1-.3s0 .3-.1.2l-.1-.3v.2c0-.1 0 .2 0 0s-.3-.3-.4-.2V15s-.1-.1-.2 0c0 .2.2.3.3.4-.3-.2-.4 0-.7-.4l-.1.2c0 .2.3.2.3.6-.2-.2-.4-.6-.6-.3-.1-.1-.4-.4-.5-.1v-.1a.2.2 0 0 1 0 .2l-.2.2v-.2s0 .1 0 0l-.2-.2c0 .4-.2.3-.4.5l-.1.4c0 .5.3.8.6 1L.9 17c0-.1.1.2.3.1 0 .6.5.3.6.6.2-.3.5 0 .6.1 0 0-.1-.1-.1.1.1.1.2 0 .3.2.2 0 .4 0 .4.2V18c.1 0 .2.3.3.2l-.1-.1s.2-.1.2.1H4c0 .4.3.6.4.6v.5l-.2-.2a.3.3 0 0 0 0-.2H4v.1c0-.2-.1 0-.2-.1v-.1c0 .2.2.3.1.5-.1 0-.2-.3-.3-.2v.2h-.3v.3l-.2.1v-.1c0 .2-.2.2-.3.1 0 .3-.2.1-.2.3.4.4.8.2 1.2.7 0-.2.2 0 .4.2 0-.2.3-.1.3.2 0 0-.2-.3-.3-.2.2.1.4.4.5.3a.2.2 0 0 0 .1.2v-.3s0 .4.2.5v-.2c.1 0 .3.2.2 0l.2.3h-.1v-.2c-.1.2-.2 0-.2 0 0 .2 0 .1.2.2L5 22v.4c0-.3-.3-.8-.3-.4l-.2-.1v-.2s0 .1-.1 0c-.5-.4-1-.4-1.4-.5l.3.4H3v.2c0-.3-.2 0-.3-.2 0 .2-.1 0-.2.1l.2.1-.1.2c.1.4.3.6.6.9.1.1.4.5.6.5.2.4.6.5.8.5.2.3.4.4.7.5V24c0 .2.2.1.2.3v-.2c.4.2.6.4.9 1 0-.1.2 0 .2.2.3-.4.6-.4.8-.1 0 0 0-.1 0 0v.3l.2.1.2-.2v.4c.4-.4.7-.3 1.1 0 0-.2.2.2.3.1 0 .4.3.2.2.7.4-.5 1 .3 1.3.2.1.2.4.4.5.3.3.3.5.3.8.3l.5.5s0-.3.1-.2c0 .3.2.3.3.4V28c.2.3.5.4.7.2 0 0-.4-.4-.3 0l-.3-.4c0-.2-.1 0-.2-.3.2.1.3 0 .4.4.2-.4.6.3.9 0 0 .2.1 0 0 .2.1-.1.1 0 .2 0v-.2c0 .2.2 0 .3.2 0 0-.1 0 0 .2 0-.3 0 0 .1 0V28l.4.3c-.1 0 0 .3 0 .1v-.2l.6.4c0-.1-.1 0 0-.2l.2.2a.1.1 0 0 1 0-.2c0 .2.1 0 .2.1v.2l.1-.2c.2 0 .4 0 .6.2 0 0 0-.2.1 0v-.2c.1.2.3.2.4 0v.2c.7-.4 1.3 0 2 0h.3v.1c.2-.1.3 0 .4 0 0-.2 0 0 .1.1.4-.2.8.1 1.1 0v.1c2.8.2 5.4.8 8.2.8.1-.2.1 0 .2 0l1 .1v-.1l.1.1h2.1c.3.1.6.2 1 0 0 .2.2 0 .3.1.2-.2.4.1.5-.1.5.2.9-.1 1.3 0h.1c.3.1.7-.2 1 0 .1-.2.3.1.4-.2v.2c.1-.2.2 0 .4 0 .2-.1.6-.3.7-.1.6-.2 1.2 0 1.8-.3v.1c.4-.1.7-.3 1-.1l.1-.2c.2.1.3 0 .4 0 0 .1.2-.2.2 0 .3 0 .7 0 1-.2v.1c.4-.2.8-.2 1.2-.2v-.2c0 .2.2 0 .2.2.1-.3.3 0 .4-.3.1.2.4 0 .6 0 0-.3.3 0 .5-.2v.2s.1-.3.2 0c.2-.3.3-.2.5-.2v-.3l.6.2-.1-.2V28c0 .1.2.2.3 0h-.1.3v-.2c.1 0 .2 0 .3.2 0-.2.2 0 .4 0 0 0-.1.1 0 .2v-.3c0 .1.1.3.2.1 0 0-.1 0 0-.1l.5-.1c.1-.1.4-.3.5 0v-.4c0 .2.1 0 .2.1l-.1.1c0 .2 0-.3.2-.1 0-.2 0 0 .1-.1v-.2h.4v-.1l.1.2.2-.1v.1c0-.3.1 0 .2-.2V27c0 .2 0 0 .2 0-.1.2 0 .2.1.2v-.3.1c0-.3.3-.3.4-.3v.1c0-.1 0 0 .1 0v-.4s0 .1-.2 0c0 .3 0 0-.2.3l-.1-.2v.2s0 .2 0 0l-.1-.3v.4c-.1-.2-.2.2-.3 0 0-.2.1-.3 0-.4v.4c-.2-.3-.3 0-.5 0a.1.1 0 0 0 0-.1v-.1l-.1.2v-.2l-.1.3c-.2-.2-.5.1-.6-.2v.2c-.1 0-.3.1-.4 0a.2.2 0 0 1 0 .2v-.3h-.2a.2.2 0 0 1 0 .3c0-.2-.3.3-.4 0h-.1v-.2l-.3.3V27h.1c-.2-.2-.4.2-.7 0 0 .2-.2.1-.4.2-.1-.3-.3.3-.4 0 0 .2-.2-.1-.3.2 0-.2-.1 0-.2-.1 0 .3-.3.2-.3 0-.1 0 0 .1 0 .2-.1-.1-.2.1-.2 0 0 0 0-.2-.1-.1 0 0 .1 0 0 .2 0 0 0-.2-.2-.2v.2c-.1-.2-.2 0-.3-.3V27c-.1.2-.1 0-.3.2 0 0 .2 0 .1.2 0 0 .2-.1.2 0l-.2.2c0-.2-.1 0-.2-.1l.1-.1v-.2c0-.1 0-.1-.1 0v.1c-.1 0 0-.1 0-.2-.2.2-.5 0-.6.4 0 0-.1 0 0-.1v-.2c0 .1-.4 0-.3.3l-.1-.2c-.3 0-.6.2-.8 0-.3.3-.6.2-1 .3-.1.2-.5 0-.8.2v-.2c-.2.1-.4 0-.6.2v-.1c0 .2-.2.2-.2 0-.3.3-.5 0-.7.2 0-.2-.1 0 0 0v.5c-.2-.1-.2-.4-.2-.5H39v.1c-.5-.3-1 .2-1.3 0l-.2.1h-1.9c0-.1-.2 0-.3.2 0-.3-.2 0-.3 0 0-.2-.5-.1-.7-.2v.2c-.1-.3-.3 0-.4-.2v.2l-.1-.2c-.1.1-.1-.1-.1.2-.1-.1-.3 0-.4-.2a.1.1 0 0 1 0 .2l-.2-.1s0 .2-.1 0v-.1c-.2.2-.3.2-.4 0-.1.2-.2 0-.4 0 0 0-.3.2-.3 0-.4.3-.7-.1-1 .1v-.1l-.1.1c-.2-.3-.6 0-1-.2a.1.1 0 0 1 0 .1c-.1-.2-.3 0-.5 0-.2-.2-.5-.3-.7 0V28c-.1.2-.2 0-.2 0v.1l-.1-.1c-.4.2-.9-.2-1.3 0v-.2c5.7.2 11.3.4 17-1h.7l.1-.1c0 .2.2 0 .3 0h.3l-.1-.1c0-.4.4.2.5-.2.2.3.5-.2.6.1l.1-.1c0 .1.2.1.2-.2.2 0 .4.3.5 0V26v.2c.2.1.4-.2.6 0 0-.1 0-.1 0 0l.1-.1s.2-.2.2 0h.2c.1-.4.5 0 .7-.4.3.3.5-.3.7 0 0-.2 0 0 .1 0-.1-.3-.3-.1-.5-.2v-.2h.2s-.1-.1 0-.2c0 .1.2 0 .1.2 0-.1.2 0 .2 0v.3c.2-.2.2-.1.3 0v-.2c.1 0 .3 0 .4-.2h-.3l.1-.3.1.2c0-.2.4-.4.4-.2.1-.1 0-.2 0-.2h.1v.4c0-.1.1 0 .2 0 0 0-.2 0-.1.1 0-.1 0 .1.1 0v-.4h.1v-.3a.2.2 0 0 1-.1-.2s0 .2.1.1V24c.1 0 .2 0 .1.3v.3-.3h.2l-.1.2.4-.1c-.2 0-.2-.2-.4-.3h.4V24h.1v.2s.2 0 .2-.2c.1 0 .3.4.3.2 0 0 0-.2-.2-.3 0 0 .2.2.3 0v.3h.1s-.1-.2 0-.4c0 .2 0 0 .1 0 .2.2.3 0 .5 0 0-.2-.2 0-.2-.3.1-.1.3.2.4-.2 0 .2.2 0 .3 0v.3s.1-.1.1 0c0 0 0 .1 0 0 .1 0 0-.1 0-.2v-.2c0 .2.1.2.1 0Zm-4.7-2-.1-.1c0-.1.1 0 0 0Zm-10 .5v.2-.2Zm12.3-4.1v.1c-.1-.1 0 0 0-.1Zm-.3.2.1-.1v.2c0-.1 0 0-.1 0v-.1Zm.3.6a.2.2 0 0 1-.2 0 .2.2 0 0 1-.2 0c.1-.1.2 0 .4 0Zm-.3-.3c0 .2-.1 0-.2 0 0-.1.1-.2.2 0Zm-.6 0v.1l-.1-.1s0-.1.1 0Zm1.2-2.5.1.2c0 .1 0 0-.1 0v-.2Zm-.2.2c0 .1-.1-.1-.1.1-.2-.2.1-.3 0 0Zm-.5.3v.2c-.1-.2-.2.1-.2 0 0 0 0-.5.2-.2Zm-.5.9c0-.2-.1-.3-.1-.1l-.1-.2c0-.2.2 0 .2.3Zm-2.3.9v-.3l.2.2c0 .1-.1 0-.2 0Zm.2 1.4c0-.2.1-.2.2-.1 0 .2-.1.2-.2 0Zm.5-.6v-.2a.1.1 0 0 0 0 .1c-.1.1-.1 0-.2 0v-.4.3l.1-.2c0 .1.2.3.1.4Zm0-1.6V17l.1.2c0 .1 0 .1-.1 0Zm0-.3.1-.1v.1Zm0 1.4c0-.2.2-.4.3 0-.1 0-.2-.2-.2 0Zm.5-1.1h-.2s.1-.2.2 0Zm-.2-.4h.2s-.1.2-.2 0Zm.8 1.7-.2-.1c0-.1.1 0 .2 0Zm-.3-.4v.4-.4Zm-.2-.1-.2.2a51.5 51.5 0 0 1 0-.4l.2.2Zm0-.9h-.2c.1 0 .2-.2.3-.1a.2.2 0 0 0 0 .1Zm.5 0H50c0-.2 0 0 0 0Zm-.3-.3c0-.2 0 0 .1-.1v.3c0 .2 0 0-.2 0 0-.1.3 0 .1-.2Zm-.5-.6.2.2V16a.1.1 0 0 1 .1 0v.2h.2c0 .3-.3.2-.4.2v.2-.2c-.1 0-.3.2-.4 0 .1 0 .2 0 .3-.3Zm-.4.2v.3h.1v.1l-.1-.1v-.3Zm0 1.7v.1Zm0-1v.1c-.1.2-.2 0-.3 0 0-.2.2 0 .2-.1Zm-.3-1.6c.1 0 .1.3 0 .2v-.2Zm-.4.8.1-.2c0-.1 0 .1 0 0v-.2h.1v-.2l.2.1v.2s0-.1 0 0v-.2c0 .2.2.4 0 .6V16l-.1.2c-.1 0-.2.2-.2 0l-.1.1c-.1.1 0-.1 0-.2Zm0 0-.1.2V16Zm0 1.7H48s.1-.1.2 0Zm-.7-.4c0-.1.2 0 .2.2h-.1l-.1-.2Zm0 1.1s.2-.2.2 0h-.2Zm.1.9v-.2c.2.2.2 0 .3.1-.1.2-.2.1-.3.1Zm-.1-2.4.2-.2v.1l.1.7c-.1 0 0-.3-.2-.5 0 0-.2.1-.2 0s.2 0 0-.1Zm-1 2.4.1.2c0 .1-.2 0-.1-.2Zm-.2-2.8c0 .2-.3.3-.3.2.1-.2.2 0 .3-.2Zm-.5 0 .1.3v.1c-.2-.2-.2 0-.3-.1 0-.2.1 0 .2-.3Zm-.2 3s-.1.1-.2 0c0 0 .1-.1.2 0Zm-.4-2.7c0 .2 0 .1-.1 0h.1Zm0 3s-.1 0 0 0c-.1 0-.2-.2-.3 0 0-.2.2-.2.3 0Zm-.6-1.7h.1c0 .1 0 .1-.1 0Zm0-1.3v.2-.2Zm0 .1c0 .2-.1 0-.2.1 0 0 .1-.2.2 0Zm0 .6.1.2c-.2 0-.3 0-.3-.2 0 0 .2.1.2 0Zm-.5 0 .2.2v.1c-.2-.1-.2 0-.2 0H44l.1-.1Zm-.3-.2s0 .3-.1.1v-.1Zm-.7.7v.2l-.1-.2c0-.1 0-.1.1 0 0-.2.2 0 .2-.1 0 .2-.1.3-.2 0Zm.5-.5-.2-.1h.2Zm0 2.6h-.3s.1-.1.2 0Zm-.3-2.5h-.1c0-.2.1-.2.1 0Zm-.2-.4v.4l-.1-.3v.2l-.1-.1c0-.2.1-.3.2-.2Zm0 .5c-.1 0-.2.1-.4 0 .2-.1.4-.3.4 0Zm-.6-.3s.1-.3.2-.1c-.1.1 0 .3-.2.1Zm.1.3c0-.2 0 0 .1 0v.1l-.1-.1Zm0 .4-.2.3c0-.2.1-.5.2-.3Zm0 2.3a.2.2 0 0 1-.1.2l-.2-.1c0-.2.1 0 .2 0Zm6-6.6s0 .1 0 0l.1.2h-.1V14Zm-1 .4a.2.2 0 0 1-.2.1l.2-.1Zm-.3.1-.2.2c0-.1.1-.3.2-.2Zm-1.2.8L46 15c.1-.1.2 0 .2.2Zm-.1-.6-.2.2-.1-.3c0-.3.1.1.3.1Zm-.3-.1v.3h-.1v-.3Zm0 .4c0 .2-.1 0-.2.1 0 .2.1.2.2.2h-.2a.2.2 0 0 0 0-.2l.2-.1Zm-.2-.1s0 .1-.1 0c0 0 .1-.2.1 0Zm-.5.4v.2c-.1-.1 0 0 0-.2-.1-.1-.1 0-.2 0 0-.2.2-.2.2 0Zm-.4 0v.2l-.1-.2h.1Zm0-.6h-.3c0-.1.2-.1.2 0Zm-.2 1s0 .2-.1 0c0 0 0-.1.1 0Zm-.6 0 .1.2v-.1Zm.1-.5V15c0 .2.2.1.2.3h-.3c0-.2.1 0 .1 0Zm-.4.2v.3-.3Zm-.3 1v-.2l.1.1v.1Zm0-1c0 .1.2 0 .2 0l-.1.2c0-.2 0 0-.2-.1l.1-.1Zm-.3.5v-.2.2Zm.2-.3c0 .2-.3 0-.4.2 0-.4.3-.2.4-.2Zm-.8.1v.2h-.2c0-.2.1 0 .2-.2Zm-.9.3.2.1h-.3c0-.2.1 0 .1-.1Zm-40 .7.1.2v-.2Zm3-.8c0-.1 0-.1 0 0Zm0-.7c0 .1 0 .1 0 0v.1c0 .1-.2 0 0-.1Zm-.4.6v-.6.4l.1-.3s0 .2.1 0l.2.3c0 .2 0 .1-.1 0v.3s-.2-.4-.3-.1Zm.3 3.4c0-.2 0 0 0 0 0 .2 0 0 0 0Zm.2 0-.1-.2v-.3l.1.3v.2Zm.2-3.4c0-.2.2 0 .2 0 0 .2-.1 0-.2 0ZM4 22v-.3l.1.1v.2Zm1.4-6.4c0 .1-.1 0-.1 0 0-.1 0-.2 0 0Zm.2 6.4c0-.3-.2-.3-.3-.5.2-.1.3.3.4.4v.1Zm.1 0v-.2l.4.3-.4-.1Zm.9.3-.3-.2V22l.3.4v.1Zm.5-7.3c.1-.1 0-.3 0-.4h.2c-.1.2-.1.5 0 .4 0 .2-.1 0-.2 0Zm1.4.6.2.2c-.1 0-.2 0-.2-.2Zm3 .6v-.1s0-.2.1 0Zm.1 0c.1-.2.2-.2.3 0h-.3Zm.3 0c0-.1.1-.1.2 0 0 .2-.1 0-.2 0Zm.2 11.2v-.2a.2.2 0 0 0 0 .2Zm0 .1.1-.3.1.3c0 .1 0 0-.1 0Zm.4 0c-.2-.2.1 0 0-.3v.4Zm.3.3-.1-.3-.1-.3s0 .3.2.3v.3Zm2.1-11.2s.1-.1.2 0c0 0-.1.1-.2 0Zm2 .3s0-.2 0 0c-.1-.3 0-.1 0 0Zm.2 0v-.2s0-.1 0 0c0 0 .1.1 0 .2Zm1.7 0c0-.2.1-.1.2-.2 0 .3-.1 0-.2.2Zm.6 0-.2-.1.2-.2v.3Zm.8 0v-.3.3Zm3.8-.2c0-.2.1 0 .2-.1 0 .1-.1.2-.2 0Zm.3 11-.2.1v-.3s.1.1.2 0v.3Zm.2 0h.1c0 .2 0 .1-.1 0Zm.2 0v-.2.3Zm.3.2v-.2h-.1c0 .2 0 0 0 0v-.2l.1.3c0 .1 0 0 0 0Zm.7 0s0-.2 0 0Zm.4 0-.1-.2c0-.1.1 0 .2 0l-.1.1Zm.1-11.3c0-.1.1 0 0-.2.1 0 0 .1.1 0 0 .2 0 .3-.1.2ZM47 28c0 .1-.1.2-.2 0 .1 0 .2-.1.2 0Zm-1.8.4v.1c0 .1 0 0 0 0Zm-.7-1c0 .1 0 0-.1 0h.1Zm-.7.2c0 .1 0 0-.1 0 0-.1 0-.1 0 0Zm-.8-.2.1.3v-.2c.1 0 .2 0 .3.2-.1 0-.2 0-.3.3l-.2-.5.1-.1Zm-.3 0v.2l.1-.1.1.3h-.3c.1-.2 0 0 0-.2s0 0 .1-.1Zm-.6.4H42c0-.2 0-.2.1 0Zm-.8.2c0 .1-.1 0-.2 0 0-.2.2-.1.2 0Zm-1.6 0s0 .2 0 0Zm-5.5.2v.2a.1.1 0 0 0 0 .1v-.3Zm-1 0c0 .2 0 0-.1.1 0-.2 0 0 .1 0Zm-4.5 0v.1s0-.2-.1-.1c0-.2.1-.1.1 0Zm-.2-.1c0 .2-.1.1-.2 0v.3s0-.3-.1-.2c0-.3.2-.2.3-.1Zm-.4 0H28c-.1-.2 0-.2 0 0Zm-1.5-.4c0-.2.2 0 .2 0 0 .2-.1 0-.2 0Zm.6-10.7a.2.2 0 0 0 .2.2c0 .2-.1.1-.2 0Zm.7-.5s-.2.1-.2-.1l.2.1Zm-.2.2h.3c0 .2-.2.2-.3 0Zm.4 0v.1a.2.2 0 0 1 0-.2v.2Zm0-.1c0-.2.1-.2.1 0h-.1Zm.3-.1v-.2.2Zm.3 0h.1c0 .3 0 .2-.1 0Zm.4 0a.2.2 0 0 1 0-.2c-.1 0-.2 0-.1-.2v.1-.1l.2.2v.1Zm0 0s.1 0 0 0c.1-.2.2-.1.3-.2v.3s-.1.1-.2 0Zm.5.2a.1.1 0 0 0-.1.1v-.4.3Zm-.3-.4c0-.1 0 0 0 0a.1.1 0 0 0 0-.1h.3-.3Zm.5.3-.1-.2v-.1c0-.2.1 0 .2-.1v.4Zm.4-.1c0-.1.1-.1.2 0 0 0-.1.1-.2 0Zm.5 0v-.3.2l.1-.1.1.1-.2.1Zm.6-.1c0-.2 0 0 .1-.1 0 .1 0 .2 0 0Zm1.3 0c0 .1 0 .2-.2 0h.2Zm-.3-.4H32h.3Zm-.7-.4v.1a.2.2 0 0 1 0-.2v.2Zm0 .4.1-.1s.2 0 .1.2c0-.1 0-.2-.1 0Zm.6.4c0 .5-.3-.1-.4 0l.1-.2v.2-.5l.1.4s0-.3.1 0a.1.1 0 0 1 .2-.1.1.1 0 0 1 .1 0c0 .3-.2.2-.2.2Zm.3 2.8s0 .3.1.2c0 .2-.2 0-.1-.2Zm.9.5c0-.1 0-.1.1 0h-.1Zm.4-.5c0-.1-.1-.2 0-.4l.1.4Zm.2-.1c0 .2 0 0 .1 0v.1c0 .2-.2 0-.1-.1Zm.4.5c0-.2 0 0 .1 0 0 0 0 .1-.1 0Zm0-.4V19v.2c-.1-.2-.2-.2-.2-.1L34 19c0 .2.2 0 .2.1 0-.2.2-.1.3-.1-.2 0 0 .1-.2.4Zm.6-.3.1.1H35Zm.6-.1c0 .2-.1.2-.2.2v-.3c0-.1 0 .3.2.1Zm-.1.7c0-.1.1-.1.1 0h-.1Zm-.2-.4c.1 0 .2.1.3-.2v.2s-.2.2-.3 0Zm.3-2.7c0-.1 0-.1.1 0h-.1Zm.6-.3c0 .1 0 .2-.1 0 0-.1 0 0 .1 0Zm-.4 5.7c0 .1 0 .1 0 0 0 .2 0 .2.2.3-.1.2-.3 0-.2-.3Zm0-5.3.1.3v-.3Zm0-.3s0-.1 0 0c.1-.2 0-.3 0-.4.2-.1.1.4.2.6l-.2-.2Zm.4.1s0 .2-.2 0c.1-.1.2 0 .2 0Zm-.1 2.6h.1c0 .1 0 0-.1 0Zm0-.3c0-.3.2 0 .3-.2 0 .3-.2 0-.4.2Zm1-.4v.3H37v-.1c0-.2 0-.3.1-.2Zm0 .4c0 .1 0 .2.1.1 0 .2-.2.3-.3.1 0-.1.2 0 .3-.2Zm-.5-.3c0-.1.1.2.2 0 0 .3-.2 0-.2 0ZM37 22c0-.1 0-.1.1 0v.2Zm0-2.7c0-.2.2 0 .2-.1 0 .2-.1.1-.2.1Zm2-1.1V18c.1 0 0 0 0 .2Zm1 .8a40.7 40.7 0 0 0 0-.1Zm.3-.7v-.2l.2.2c0 .1-.1 0-.2 0Zm.1-.2c.1 0 .1-.3.2-.2 0 .2-.1.2-.2.2Zm.5-.6v.2-.2Zm0 .5c0-.2.1 0 .2-.1 0 .2-.1 0-.2 0Zm.2-.2s-.1.1-.1 0v-.3.3Zm.2-1.7-.1-.1.1.1Zm-.1 0c0 .2-.2 0-.3 0h.3Zm-.2 1.2h-.1s0-.2.1 0Zm-.1-1.1-.1-.1h.1Zm-.3 1v.1c-.1 0 0-.2 0 0Zm0 .3v.2h-.1v.2l-.1-.3.2-.1Zm-.3-.1c0 .2 0 .1-.1 0h.1Zm-.1-1c0 .2-.1.1-.2 0h.2Zm-.3 1c0 .3-.1.1-.2.1h.2Zm-.4.2.2.2v-.2s.3.3.4 0l.2.5c0 .1-.1-.2-.1 0L40 18c-.1 0-.3 0-.4.2V18c-.1 0-.2.5-.3.3 0-.3 0-.1-.1-.1 0-.1.2-.3.2 0 0-.2 0-.5-.2-.4 0-.2.2 0 .3-.1v.1Zm-.2-2.4s.2.4.2.2a.2.2 0 0 1 0 .2s0-.2 0 0l-.2-.4Zm0 2.6h-.1v-.2c.1 0 .2 0 .2.2Zm0-2.3c0 .2-.1.1-.2.2v-.4l.2.2Zm-.2.7L39 16v.2Zm0-.6-.2.1c0-.2.1 0 .2-.1Zm-.2 2c0 .2.1 0 .2.1 0 .3-.2 0-.2.1v-.1Zm0 1c0 .2-.1 0-.1.1 0 0 0-.3-.1-.2v-.2c0 .1 0 .2.2.3Zm-.6-.2c0-.2 0 0-.1 0l-.1-.2c0-.2.1-.1 0 0 .1 0 .1-.1.2 0v-.1.2-.3c.2.1.3.2.5 0 0 .3-.3.4-.4.2v.2Zm-.2-2.6c0-.1.1 0 .2 0 0 .1-.1.1-.2 0Zm.7-.2s-.2.2-.3.1l.3-.1Zm-.4 0 .1.1c0 .2 0 0-.1.1v-.1Zm0 1.4h-.1c0-.3.2-.1.2 0Zm0 .8-.1.2h-.2l.3-.2Zm-.4-2.4c0-.2.2 0 .2-.1v.3-.2.2c-.2 0-.1-.2-.2-.2Zm0 .4v.2l-.1-.2s0 .1.1 0Zm0 2.4c0 .2-.1.1-.1.1v-.1Zm-.3.3v-.2l-.4-.1c.1-.2.3.1.4-.3l.1.4-.1.2Zm.2 3.5-.1-.2.2.1v.1Zm.2 0H38c0-.1.2.1 0 .2Zm.7 0c-.2 0 0-.2-.1-.2v.2l-.2-.1c0-.2.1-.2.2-.2-.1-.2-.2.1-.3 0v.2c-.1-.1 0-.1 0-.2-.1-.2-.2.2-.2 0 .2-.2.4-.2.7-.2l-.1.1v.3Zm3.2 1.1-.2-.1.2.1Zm0-1.1c.1-.1.2-.1.2 0H42Zm1.5 0c-.1 0 0-.1 0-.2h.1l-.1.3Zm.5.9v.1-.1Zm.2-1c.1-.2.2-.2.4-.1h-.4Zm.8 4.7c0-.1.2-.3.3 0H45Zm.2-4.3h.2c0 .2-.1.1-.2 0Zm.1.4v-.2h.1v.2Zm0-1c0-.2.1-.2.2 0 0 0-.1-.2-.2 0Zm.2.7.2.1h-.2Zm.2 0h.2c0 .2-.1.2-.2 0Zm.1 3.9c0-.1.1 0 .2 0 0 0-.1.2-.2 0Zm.5-4c0-.1.1 0 .1 0 0 .2 0 0-.1 0Zm.4.4a.4.4 0 0 1 0-.4h-.2v-.1h.2l.1-.1h.1l-.2.2c0 .2.1 0 .2.2l-.2.2Zm.1 3.3h.2c0 .1-.1.2-.2 0Zm0-3.7.2-.1c0 .1 0 .2-.1 0Zm2.1-1c.1 0 0 .1 0 .2v-.2Zm0 .5.1.3-.1-.4v.1Zm-1.3-.4c0 .2-.1.1-.2.1 0-.1.2 0 .2 0Zm-.4.8V22s.1-.1.2 0v.1c-.1-.1-.2-.1-.2 0Zm.1 4c0-.1.2-.3.2-.1 0 0-.1.1-.2 0Zm.8-3.8c-.1-.2-.3 0-.4 0 0 0-.1-.2-.1 0 0 0 0-.2-.2-.2 0-.2.2 0 .3.1l.1-.1s-.2 0-.3-.3a113.8 113.8 0 0 0 .3-.1c.1.1.3 0 .3.4a.1.1 0 0 0 0-.2v.4Zm0 3.4c.1-.2.2 0 .3-.2 0 .2-.2.2-.2.2Zm.3-3.5c-.2-.2-.1-.4-.3-.4 0-.1.2-.2.2 0 0-.3.2 0 .3-.1l.1.2c0-.1.1-.2.2 0h-.2c0 .2-.1.1-.2 0l-.1.3Zm.2 3.4c.1 0 .2-.2.2 0 0 .1-.1.1-.2 0Zm.3-2.3c0-.1.1 0 .2 0 0 .1-.2 0-.2 0Zm2 1s0-.2.2 0c0 .1-.1 0-.2 0Zm2.4-1s0-.1 0 0c0-.2.1-.3.2-.1 0 .2-.1-.1-.2.1Zm-1.9-6.1Zm-4.8-.9Z"/>
  </g>
  <path fill="gray"
        d="M60.8 10.6 62 3.4h.7l-1.3 7.2h-.7Zm2 0L64 3.4h.7l-1.4 7.2h-.7Zm2.6-4.4h-5v-.7h5v.7ZM65 8.6h-5v-.7h5v.7Zm5.1.2v-.4l-.3-.4a2 2 0 0 0-.5-.3 7 7 0 0 0-.9-.3l-.9-.3-.7-.5-.5-.6-.1-.7a1.8 1.8 0 0 1 .6-1.4l.8-.5a3 3 0 0 1 1-.1c.5 0 1 .1 1.3.3A2.2 2.2 0 0 1 71 5.5h-.9c0-.3 0-.5-.2-.7 0-.2-.2-.4-.5-.5-.2-.2-.5-.2-.8-.2a2 2 0 0 0-.9.1l-.4.5c-.2.1-.2.3-.2.6v.4l.4.3.5.3.7.3c.5 0 .8.2 1 .4l.8.4.4.6.2.8c0 .3 0 .6-.2.8l-.5.6-.8.4a3.5 3.5 0 0 1-2 0c-.3 0-.6-.2-.8-.4-.3-.2-.5-.4-.6-.7a2 2 0 0 1-.3-1h1l.1.7.4.4.5.3a2.7 2.7 0 0 0 1.5 0l.5-.5c.2-.2.2-.4.2-.6Zm4.2-3.5V6h-2.8v-.7h2.8Zm-1.9-1.4h1v5.8l.2.2h.3a1.4 1.4 0 0 0 .4 0v.7l-.2.1a2 2 0 0 1-.4 0l-.7-.1a1 1 0 0 1-.4-.4 2 2 0 0 1-.2-.9V3.9Zm6.1 5.8V7c0-.2 0-.3-.2-.5 0-.2-.2-.3-.3-.4l-.6-.1-.6.1a1 1 0 0 0-.4.3l-.2.4h-.9c0-.1 0-.3.2-.5 0-.2.2-.4.4-.5l.7-.4.8-.1c.4 0 .7 0 1 .2.3 0 .5.3.7.6.2.2.3.6.3 1v3l.1.6h-.9v-.4l-.1-.5Zm.1-2.3V8H77l-.5.3-.3.3v.9l.4.3.5.1.8-.1.5-.5.2-.5.3.5-.1.4a2.2 2.2 0 0 1-1 .9l-.8.1a2 2 0 0 1-1-.2l-.6-.5-.2-.9c0-.2 0-.5.2-.7 0-.2.3-.4.5-.6l.7-.3 1-.1h1Zm3.1-1v4.2h-1V5.3h1v1.1Zm-.2 1.3H81l.1-1 .5-.8a2 2 0 0 1 1.5-.7h.7l.5.4.4.6.1 1v3.4H84V7.1l-.1-.7c-.1-.1-.2-.3-.4-.3l-.5-.2c-.3 0-.5 0-.7.2l-.4.4a2 2 0 0 0-.4 1.2Zm8.1 1.9V3h.9v7.6h-.8l-.1-1ZM86 8c0-.4 0-.8.2-1.1 0-.4.2-.6.4-.9l.7-.5c.2-.2.5-.2.8-.2l.9.1.6.5.4.9.2 1v.5c0 .4 0 .7-.2 1 0 .4-.2.6-.4.9l-.6.5a2 2 0 0 1-1.7 0 2 2 0 0 1-.7-.6l-.4-.9-.2-1Zm1-.1v.9l.3.6c0 .2.2.3.4.4l.6.2a1.3 1.3 0 0 0 1.2-.7l.3-.7V7.4c0-.2 0-.4-.2-.6l-.2-.4c-.2-.2-.3-.3-.5-.3l-.6-.2c-.2 0-.4 0-.6.2l-.4.4a2 2 0 0 0-.3.6V8Zm6.9.5 1.4-5h.6l-.3 2-1.6 5.2h-.6l.5-2.2Zm-1.5-5 1.1 5 .4 2.2h-.7l-1.7-7.2h1Zm5.4 5 1-5h1L98 10.6h-.7l.4-2.3Zm-1.8-5 1.4 5 .5 2.2h-.7l-1.4-5.2-.4-2h.6Zm5.7 1.9v5.3h-1V5.3h1Zm-1-1.5.1-.3c.1-.2.2-.2.4-.2s.3 0 .4.2l.2.3c0 .2 0 .3-.2.4l-.4.1-.4-.1-.1-.4Zm4.6 1.5V6h-2.8v-.7h2.8Zm-1.9-1.4h1v5.8l.2.2h.3a1.4 1.4 0 0 0 .4 0v.7l-.3.1a2 2 0 0 1-.4 0l-.6-.1a1 1 0 0 1-.4-.4 2 2 0 0 1-.2-.9V3.9Zm3.9-.9v7.6h-1V3h1Zm-.3 4.7h-.3l.1-1 .5-.8a2 2 0 0 1 1.5-.7h.7l.5.4.4.6v4.4h-.8V7.1l-.1-.7c-.1-.1-.2-.3-.4-.3l-.6-.2c-.2 0-.4 0-.6.2-.2 0-.3.2-.4.4a2 2 0 0 0-.5 1.2Zm9-4.3h1v4.9c0 .5-.2 1-.4 1.4l-1 .8a3 3 0 0 1-1.2.2c-.5 0-1 0-1.3-.2l-1-.8c-.2-.4-.3-.9-.3-1.4V3.4h1v4.9c0 .4 0 .7.2 1 0 .2.3.4.5.5l.9.2.8-.2c.3-.1.5-.3.6-.6l.2-.9V3.4Zm3.2-.4v7.6h-1V3h1Zm3.2 2.3L120 7.8 118.8 9V8l.8-1 1.7-1.8h1Zm-.8 5.3-2-2.5.5-.8 2.5 3.3h-1Zm2.6-4.5v4.5h-.9V5.3h.9V6Zm1.6-.9v.9h-1l-.4.3-.2.4-.1.6-.3.1.1-.9c0-.3.2-.5.3-.7.1-.3.3-.4.5-.6a1.4 1.4 0 0 1 1.1 0Zm3.8 4.5V7c0-.2 0-.3-.2-.5 0-.2-.2-.3-.3-.4l-.6-.1-.6.1a1 1 0 0 0-.4.3l-.2.4h-.9c0-.1 0-.3.2-.5 0-.2.2-.4.4-.5l.7-.4.8-.1c.4 0 .7 0 1 .2.3 0 .5.3.7.6.2.2.3.6.3 1v3l.1.6h-.9v-.4l-.1-.5Zm.1-2.3V8h-1.6l-.5.3-.3.3v.9l.4.3.5.1.8-.1.4-.5.3-.5.3.5-.1.4a2.2 2.2 0 0 1-1 .9l-.8.1a2 2 0 0 1-1-.2l-.6-.5-.2-.9c0-.2 0-.5.2-.7 0-.2.3-.4.5-.6l.7-.3 1-.1h1Zm3.1-2.1v5.3h-.9V5.3h1Zm-1-1.5.2-.3c.1-.2.2-.2.4-.2s.3 0 .4.2l.1.3-.1.4-.4.1-.4-.1-.1-.4Zm3.4 2.6v4.2h-1V5.3h1v1.1Zm-.2 1.3h-.4c0-.3 0-.7.2-1 0-.3.2-.6.4-.8a2 2 0 0 1 1.5-.7h.7l.6.4.3.6.1 1v3.4h-.9V7.1l-.1-.7c0-.1-.2-.3-.4-.3l-.5-.2c-.3 0-.5 0-.6.2-.2 0-.4.2-.5.4a2 2 0 0 0-.4 1.2Zm7 3c-.4 0-.7 0-1-.2a2.3 2.3 0 0 1-1.3-1.3 3 3 0 0 1-.2-1v-.3l.2-1.1c.2-.4.3-.7.6-1l.7-.5.8-.1c.4 0 .7 0 1 .2.3 0 .5.3.7.5l.4.8.1 1v.5h-4v-.7h3.1v-.1l-.1-.7-.4-.6-.8-.2a1.2 1.2 0 0 0-1 .5 2 2 0 0 0-.2.7l-.2.8v.2c0 .3 0 .5.2.8 0 .2.1.4.3.5 0 .2.3.3.4.4l.7.2c.3 0 .6 0 .8-.2l.6-.5.5.4c0 .2-.2.3-.4.5a2 2 0 0 1-.6.4l-1 .1ZM60.8 27l1.3-7.3h.7l-1.3 7.2h-.7Zm2 0 1.3-7.3h.7l-1.4 7.2h-.7Zm2.6-4.5h-5v-.7h5v.7Zm-.4 2.4h-5v-.7h5v.7Zm5.1.2v-.4l-.3-.4a2 2 0 0 0-.5-.3 7 7 0 0 0-.9-.3l-.9-.4c-.3 0-.5-.2-.7-.4l-.5-.6-.1-.7a1.8 1.8 0 0 1 .6-1.4l.8-.5a3 3 0 0 1 1-.1c.5 0 1 .1 1.3.3a2.2 2.2 0 0 1 1.1 1.9h-.9c0-.3 0-.5-.2-.7 0-.3-.2-.4-.5-.5-.2-.2-.5-.2-.8-.2a2 2 0 0 0-.9.1l-.4.4c-.2.2-.2.4-.2.7v.4c.2 0 .3.2.4.3l.5.3.7.3c.5 0 .8.2 1 .4.4 0 .6.3.8.4l.4.6.2.8c0 .3 0 .6-.2.8l-.5.6-.8.4a3.5 3.5 0 0 1-2 0l-.8-.4c-.3-.2-.5-.4-.6-.7a2 2 0 0 1-.3-1h1l.1.7.4.4.5.3a2.7 2.7 0 0 0 1.5 0l.5-.5c.2-.2.2-.4.2-.6Zm4.2-3.5v.7h-2.8v-.7h2.8Zm-1.9-1.4h1V26l.2.2h.3a1.4 1.4 0 0 0 .4 0v.7l-.2.1a2 2 0 0 1-.4 0H73a1 1 0 0 1-.4-.5 2 2 0 0 1-.2-.8v-5.4Zm2.6 4.1v-.1c0-.4 0-.8.2-1l.5-1 .7-.5c.3-.2.7-.2 1-.2a2.3 2.3 0 0 1 1.8.7l.5 1 .1 1v.1l-.1 1-.5 1a2.2 2.2 0 0 1-1.8.7c-.3 0-.7 0-1-.2l-.7-.5-.5-1-.2-1Zm1-.1v.9l.3.6.5.4.6.2a1.3 1.3 0 0 0 1.1-.6l.3-.6.1-.8v-.9a2 2 0 0 0-.4-.6c0-.2-.2-.3-.4-.4l-.7-.2a1.3 1.3 0 0 0-1 .6 2 2 0 0 0-.4.6v.8Zm5.8-1.6V29H81v-7.4h.9v1Zm3.6 1.6v.1c0 .4 0 .8-.2 1 0 .4-.2.7-.4 1a1 1 0 0 1-.6.5c-.2.2-.5.2-.9.2l-.8-.1-.7-.5-.4-.8-.2-1V24c0-.4 0-.7.2-1 0-.4.2-.6.4-.9l.7-.5.8-.1c.4 0 .6 0 .9.2.3 0 .5.3.6.5.2.2.4.5.4.9l.2 1.1Zm-1 .1v-.9a2 2 0 0 0-.3-.6c0-.2-.2-.3-.4-.4l-.6-.2-.6.1-.5.4-.2.4-.2.6v1.2c0 .3.2.5.3.7 0 .2.2.4.4.5l.8.2c.2 0 .4 0 .6-.2.2 0 .3-.2.4-.4l.3-.6v-.8Zm4.1.4 1.4-5h.7l-.4 2-1.5 5.2H88l.5-2.2Zm-1.4-5 1 5 .4 2.2h-.7l-1.7-7.2h1Zm5.3 5 1.1-5h1l-1.8 7.2h-.6l.3-2.3Zm-1.7-5 1.4 5 .5 2.2h-.7l-1.5-5.2-.4-2h.7Zm7.6 6.3v-2.8c0-.2 0-.4-.2-.5 0-.2-.2-.3-.3-.4l-.6-.1-.6.1a1 1 0 0 0-.4.3l-.2.4h-.9c0-.1 0-.3.2-.5 0-.2.2-.4.4-.5l.6-.4 1-.1c.3 0 .6 0 1 .2.2 0 .4.3.6.6.2.2.3.6.3 1v3l.1.6h-.9l-.1-.4V26Zm.1-2.3v.6h-1.6l-.5.3-.3.3v.9l.4.3.5.1c.3 0 .5 0 .7-.2.3 0 .4-.2.5-.4l.3-.5.3.4-.1.5a2.2 2.2 0 0 1-1 .9l-.8.1a2 2 0 0 1-1-.2l-.6-.6-.2-.8c0-.3 0-.5.2-.7 0-.2.2-.4.5-.6l.7-.3 1-.1h1Zm3.1-1.3v4.5h-1v-5.3h1v.8Zm1.6-.9v.9h-1l-.4.3-.2.4-.2.6-.2.1V23l.4-.7c.1-.3.3-.4.5-.6a1.4 1.4 0 0 1 1.1 0Z"/>
  <defs>
    <clipPath id="a">
      <path fill="#fff" d="M0 2h54v28H0z"/>
    </clipPath>
  </defs>
</svg>
