<svg xmlns="http://www.w3.org/2000/svg" xmlns:xlink="http://www.w3.org/1999/xlink" viewBox="0 0 596.57 596.57"><defs><style>.cls-1,.cls-10,.cls-11,.cls-12,.cls-15,.cls-18,.cls-7{fill:none;}.cls-2{isolation:isolate;}.cls-3{fill:#caa77a;}.cls-4{fill:#ffdb1f;}.cls-5{fill:#ffdbaf;}.cls-6{fill:#9d7b51;}.cls-7{stroke:#9d7b51;stroke-width:3.87px;}.cls-10,.cls-11,.cls-12,.cls-15,.cls-18,.cls-25,.cls-7{stroke-linecap:round;}.cls-10,.cls-11,.cls-12,.cls-15,.cls-18,.cls-7{stroke-linejoin:round;}.cls-8,.cls-9{fill:#3f2719;opacity:0.23;}.cls-11,.cls-8{mix-blend-mode:multiply;}.cls-10,.cls-11,.cls-12,.cls-15,.cls-18{stroke:#2d1f04;}.cls-10,.cls-11{stroke-width:2.62px;}.cls-12{stroke-width:10.65px;}.cls-13{fill:#251707;}.cls-14{fill:#2d1f04;}.cls-15{stroke-width:3.05px;}.cls-16{fill:#b2b2b2;opacity:0.83;}.cls-17{fill:#fff;}.cls-18{stroke-width:2.79px;}.cls-19{fill:#d6d1c7;}.cls-19,.cls-20,.cls-23{stroke:#000;}.cls-19,.cls-20,.cls-23,.cls-25{stroke-miterlimit:10;}.cls-19,.cls-20{stroke-width:1.5px;}.cls-20,.cls-23,.cls-25{fill:#004ca3;}.cls-21{fill:red;}.cls-22{clip-path:url(#clip-path);}.cls-23{stroke-width:0.66px;}.cls-24{clip-path:url(#clip-path-2);}.cls-25{stroke:#fff;stroke-width:1.52px;}</style><clipPath id="clip-path"><circle class="cls-1" cx="308.17" cy="219.09" r="2.58"/></clipPath><clipPath id="clip-path-2"><circle class="cls-1" cx="242.27" cy="242.46" r="7.47"/></clipPath></defs><g class="cls-2"><g id="Слой_1" data-name="Слой 1"><path class="cls-3" d="M205.13,220.11c-3.55,0-12.83,19.35-14.92,23.27-15.51,29.16-9.83,63.2,2.49,92.32,3.15,7.46,1.73,9.82,5,16.79,1.5,3.22,3.54,9.23,3.54,12.63,0,.77,1-1.4,1-1.4s0,2.76-1.13.28c-.35-.77-.64-5.41.15-5.41.41,0,2,14.79,2.1,15.11,3.43,9.22.88,16.09.7,21.39s13.41,10.2,19.93,12c24.65,6.62,49.52-.38,74.23-.38,6.17,0,24,2.07,29.12-3.44,4.36-4.68,5.72-10.73,9.23-16,4.76-7.15,15.8-15.79,23.44-19.07,7.91-3.4,17.79-1.33,25.57.76,2,.53,8,3.25,9.95,1.14,3.22-3.46,4.71-13.59,3.9-17.93-2.17-11.66-1.45-28.77-3.55-40.05-1.44-7.74-4.09-15.1-6.74-22.51-10.5-29.31-25.23-53.16-48.66-71.47-5.88-4.59-15.68-12.68-22.37-16.27-6.48-3.48-10.39-4.82-16.89-8.31-8.55-4.59-23.8-9.19-32.94-11.64-2.32-.62,3.51,3.86,3.3,4.31-.3.64-6,.55-6.75.38-7.65-1.65-15.41-1.47-22.73-5-1.21-.58-4.72-8.53-8.22-7s3.25,16.55,3.25,16.55a7.28,7.28,0,0,0-1.06-1.53c-2.1-1.8-6.89-3.23-9.59-3.81-5.77-1.24-8.22,2.75-13.14,3.81-.66.14-9.36,2.28-9.36,2.45,0,1.3,12.2,2.3,12.2,3.65,0,1.2-2,.7-2.49.77-2.73.42-22.22,8.72-21.08,12.38.5,1.61,12.72.31,14.33,1.35a4.48,4.48,0,0,0,1.42.38s-8.89,5-12,5.81c-3.94,1.05-11.5,9.56-7.8,8.33"/><path class="cls-4" d="M376.06,360.23a9,9,0,0,0-2.39.36c-12.2,3.75-28.43,9.53-36.25,20.73-2.47,3.54-6.35,12.84-9.81,15.32a15.5,15.5,0,0,1-5.57,2.19c-9.68,2.08-17.1,3.06-26.71,5.12-20.76,4.46-39,2.92-59.79-1.55-3.36-.72-12-1.48-15.34-2.08-4-.72-7.47-.8-11.51-1.89-4.69-1.26-4.4-2.54-4.44-3-.33-4-8.56,6.9-6,10.51,1.11,1.58,2.91,2.64,3.85,4.15.51.82-.75,1.77-1.06,2.22-4.5,6.45-7.42,13.76-10.12,21a102.48,102.48,0,0,0-3.88,13.5c6.07-.12,231.33-2.15,244.6-2.62-1.81-20.9-6.45-42.78-16.08-56.57-5.62-8-13.33-18.66-23.38-21.36C387.12,364.88,381.64,360.09,376.06,360.23Z"/><path class="cls-5" d="M188.18,279.34c3-13,7.87-36.38,18.71-38.53,6.23-1.23,11-.75,17.94-2.6,7.26-1.94,6.37-.08,20-.46s7.34-10.32,7.88-10.51,9.46.18,35.24,11.84c26.72,12.08,48.33-.25,63.2,28.68a60.08,60.08,0,0,1,5,38c-5.09,24.19-7.73,34.33-32.17,52.45-29,21.53-89.13,32.23-119.13-8.48C190.75,330.63,182.63,303.63,188.18,279.34Z"/><path class="cls-6" d="M254.41,287.78c-10.13-5.44-19.13,25.18-18.31,33.06,2.79,27,25.33,30.44,42.4,21.27,24.63-13.22,3.42-63.71-14.19-56.14"/><path class="cls-6" d="M182.94,271.59c-2.64,11.76,6,50.69,10.21,54.05,3.21,2.6,24.72-1.21,40.35-21,14.87-18.83,14.72-59.41,11.57-62.79-1.78-1.9-41.66-2.1-45.28-1.32C194.67,241.62,186.57,255.39,182.94,271.59Z"/><path class="cls-6" d="M281.75,238.87C269.19,334,342.23,342,349.3,331c4.53-7.05,21.35-59.07-14.67-94.76C333.26,234.87,281.79,238.54,281.75,238.87Z"/><line x1="217.69" y1="376.22" x2="217.64" y2="385.24"/><line class="cls-7" x1="217.69" y1="376.22" x2="217.64" y2="385.24"/><line x1="225.94" y1="380.83" x2="225.89" y2="389.85"/><line class="cls-7" x1="225.94" y1="380.83" x2="225.89" y2="389.85"/><path class="cls-8" d="M186.91,222.79c6,0,11.09-1.76,16.94-3.21,1.63-.4,2.74-3.41,2.74-1.62,0,.4-.47.46-.79.66-5,3.23-7,8.78-9.92,14.35-1,1.91-3.66,7.17-3,5.89C215.7,194.63,381.39,178,371.83,357.72c-.08,1.61-1.92,4.31-.5,4.82,3,1.07,7.75-2,11.47-.54,1.66.67,13.68,7.87,14.95,7,2.14-1.53,1.1-10.12,1-12.85-2.86-78.52-40.24-125-64.5-144.5-14.68-11.76-63.12-27.64-64.1-27.9-.18-.05-.33,3.52-2.31,3.17-7.17-1.29-19.84-1.72-26.1-7.45-.85-.78-7.74-5.87-8-5.36-.81,1.74-1.29,11.44-.5,12.85.58,1,4.11-.53,3-.53-9.25,0-20.91,3.2-30.9,5.35-.36.08-1,.14-1,.54,0,3.07,13,1.05,13,3.21,0,.85-3.73,1.45-8.48,3a36.78,36.78,0,0,0-12,6.11c-.75.61-3.66,3-3,3.75,2.39,2.57,8.3-.63,11.46,1.07"/><path class="cls-9" d="M378.15,361.26c-7.79-.2-16.5,1.88-26.27,6.66-1,.5-1.06,3.05-2,3.71-1.52,1.1,3.67-.53,5.51-.53,3,0,43,19.87,56.44,73.76,7.84-.3,18-.65,21.19-.77C424.9,398.46,408.91,362,378.15,361.26Z"/><path class="cls-10" d="M207.32,218.18c-6.78,4.86-10.8,12.73-15.35,19.66-22.3,33.94-10.53,76.9,5.32,110.94,1.39,3,3.38,6.45,3.83,9.83.23,1.68-.69,4.54,0,6,.3.64,1.69-1.65,1.77-.95a46.79,46.79,0,0,1-.29,9.83c-.12,1.17-1.37,4.32-.59,3.49.25-.27,1-2.93,2.06-2.54.63.23,0,19.34-.34,21"/><path class="cls-10" d="M205.25,219.13c-3.3,1.78-5.48,1.82-8.85,2.86-1.7.52-3,1.19-4.72,1.58s-3.21.49-4.72,1c-.69.21-2.07,1.41-2.07.64,0-2.39,17.85-13,21.25-14.27.5-.18,1.31-.09,1.47-.63.24-.77-1.33-.76-2.06-.95-3.36-.91-16.74,2.11-14.17-.32,14-13.25,24.5-10,24.5-12.68,0-3.2-13.41-2-14.46-3.17-.16-.17.39-.21.59-.32a43.84,43.84,0,0,1,9.74-3.8c6.12-1.55,17-3.11,23-1"/><path class="cls-10" d="M235.65,189.65c-1.74-3.75-4.87-9.91-3.25-14.26.09-.24,1.45-1.76,1.77-1.59,1.22.65,8.67,13.21,33.94,13.32a21.53,21.53,0,0,1,2.66.31s-5.18-5-3.25-6c.34-.18,15.17,5.77,16.53,6.34,10.6,4.43,21.32,7.09,31.38,12.31"/><path class="cls-11" d="M298.57,192.76c74,26.41,103,109.16,100.64,174.5"/><path class="cls-10" d="M204.45,395.88c57.73,17.82,116.47,5.17,123,1.6"/><path class="cls-10" d="M204.45,396c.66-4.07-4,3.19-4.89,5.2-1.29,3,1.55,5.66,1.42,7.21-.16,1.82-2.78,6-3.51,8.05-3.14,9-8.44,19-10.86,29.52"/><path class="cls-10" d="M409.3,377.81c2.71,4,5.23,8.49,7.55,12.72,6.33,11.51,12.33,34.7,15.63,52.9"/><path class="cls-10" d="M325.06,423.15c6.24,6.2,11.86,12.55,15.37,21.49"/><path class="cls-10" d="M337.75,438.87c-.73-5.67-1.34-12.89-3.68-18"/><path class="cls-10" d="M386.2,362.68c-37.32-9.22-60.87,34.8-58.82,36.46"/><path class="cls-10" d="M410.64,380c-7.05-9.69-12.78-13.24-24.16-17.08"/><line class="cls-12" x1="277.47" y1="239.87" x2="347.31" y2="237.73"/><line class="cls-12" x1="244.87" y1="239.66" x2="181.9" y2="241.12"/><path class="cls-13" d="M247.09,290.74c-.18-4.09,4-8.09,13.14-8.58s16.76,2.41,16.95,6.51-7.11,7.81-16.28,8.3S247.28,294.84,247.09,290.74Z"/><path class="cls-10" d="M301.72,415.9c-16.39,6.16-80.1,5.69-100.05-8.43"/><path class="cls-10" d="M213.45,399c-.8,2.57-1.64,4.55-1.64,7.38"/><path class="cls-10" d="M228.17,402.2a20,20,0,0,0-1.31,8.08"/><line class="cls-10" x1="245.83" y1="404.66" x2="244.85" y2="410.99"/><polyline class="cls-10" points="258.26 406.42 258.26 407.47 258.26 408.18 258.26 409.23 258.26 409.93 258.26 410.64 258.26 411.34"/><polyline class="cls-10" points="251.39 406.77 251.39 407.47 251.39 408.18 251.39 408.88 251.39 409.58 251.39 410.29"/><polyline class="cls-10" points="300.14 404.66 300.14 405.37 300.14 406.07 300.14 407.47 300.14 408.18"/><polyline class="cls-10" points="305.05 404.66 305.05 405.72 305.05 406.77 305.05 407.47"/><path class="cls-14" d="M310,281.09l-1.33-.16"/><path class="cls-15" d="M250.88,312.47c4.24-8.49,8.38-10.48,12.55-6.54a26.11,26.11,0,0,1,4.9,7.25"/><path class="cls-16" d="M318.49,246h.35c16.81,0,30.44,15.65,30.44,35s-13.63,34.95-30.44,34.95h-.35c-16.81,0-30.44-15.65-30.44-34.95S301.68,246,318.49,246Z"/><path class="cls-17" d="M318.5,246.18h.33a29.46,29.46,0,1,1,0,58.92h-.33a29.46,29.46,0,1,1,0-58.92Z"/><path class="cls-18" d="M318.5,246.18h.33a29.46,29.46,0,1,1,0,58.92h-.33a29.46,29.46,0,1,1,0-58.92Z"/><ellipse class="cls-14" cx="318.08" cy="270.65" rx="3.22" ry="4.29"/><path class="cls-16" d="M210.16,246.9h.32c15.48,0,28,15.65,28,35s-12.55,34.94-28,34.94h-.32c-15.48,0-28-15.64-28-34.94S194.68,246.9,210.16,246.9Z"/><path class="cls-17" d="M210.17,247.05h.3c15,0,27.13,13.19,27.13,29.46S225.45,306,210.47,306h-.3c-15,0-27.13-13.19-27.13-29.46S195.18,247.05,210.17,247.05Z"/><path class="cls-18" d="M210.17,247.05h.3c15,0,27.13,13.19,27.13,29.46S225.45,306,210.47,306h-.3c-15,0-27.13-13.19-27.13-29.46S195.18,247.05,210.17,247.05Z"/><ellipse class="cls-14" cx="209.78" cy="271.52" rx="2.96" ry="4.29"/><rect class="cls-19" x="211.56" y="223.75" width="102.62" height="37.2"/><rect class="cls-20" x="211.56" y="214.42" width="102.62" height="9.33"/><circle class="cls-21" cx="308.17" cy="219.09" r="2.58"/><g class="cls-22"><line class="cls-23" x1="305.78" y1="216.63" x2="311.24" y2="222.09"/><line class="cls-23" x1="305.43" y1="221.82" x2="310.9" y2="216.36"/></g><circle class="cls-21" cx="242.27" cy="242.46" r="7.47"/><g class="cls-24"><line class="cls-25" x1="238.5" y1="238.59" x2="246.31" y2="246.4"/><line class="cls-25" x1="238.5" y1="246.4" x2="246.31" y2="238.59"/></g><path d="M262.1,245.62v1.55h-7.51v-10h7.31v1.56h-5.45v2.61h4.83v1.53h-4.83v2.76Z"/><path d="M268.42,239.45v1.7a2.1,2.1,0,0,0-.41,0,2.13,2.13,0,0,0-1.63.61,2.42,2.42,0,0,0-.59,1.75v3.7H264v-7.63h1.7v1.11A3,3,0,0,1,268.42,239.45Z"/><path d="M274.36,239.45v1.7a2.19,2.19,0,0,0-.42,0,2.15,2.15,0,0,0-1.63.61,2.42,2.42,0,0,0-.59,1.75v3.7h-1.78v-7.63h1.7v1.11A3,3,0,0,1,274.36,239.45Z"/><path d="M277.14,246.77a3.59,3.59,0,0,1-1.45-1.39,3.92,3.92,0,0,1-.52-2,3.87,3.87,0,0,1,.52-2,3.73,3.73,0,0,1,1.45-1.39,4.39,4.39,0,0,1,2.09-.5,4.44,4.44,0,0,1,2.11.5,3.8,3.8,0,0,1,1.45,1.39,4,4,0,0,1,.52,2,4,4,0,0,1-.52,2,3.66,3.66,0,0,1-1.45,1.39,4.33,4.33,0,0,1-2.11.5A4.28,4.28,0,0,1,277.14,246.77Zm3.72-1.68a2.38,2.38,0,0,0,.65-1.73,2.35,2.35,0,0,0-.65-1.73,2.18,2.18,0,0,0-1.63-.66,2.14,2.14,0,0,0-1.62.66,2.38,2.38,0,0,0-.64,1.73,2.41,2.41,0,0,0,.64,1.73,2.13,2.13,0,0,0,1.62.65A2.17,2.17,0,0,0,280.86,245.09Z"/><path d="M289.44,239.45v1.7a2.1,2.1,0,0,0-.41,0,2.13,2.13,0,0,0-1.63.61,2.42,2.42,0,0,0-.59,1.75v3.7H285v-7.63h1.7v1.11A3,3,0,0,1,289.44,239.45Z"/><path class="cls-17" d="M218.64,220.43v.62h-2.95v-3.93h2.87v.61h-2.14v1h1.9v.6h-1.9v1.08Z"/><path class="cls-17" d="M221.12,218v.67l-.16,0a.83.83,0,0,0-.64.24.93.93,0,0,0-.23.69v1.46h-.7v-3h.66v.44A1.18,1.18,0,0,1,221.12,218Z"/><path class="cls-17" d="M223.45,218v.67l-.16,0a.83.83,0,0,0-.64.24.93.93,0,0,0-.23.69v1.46h-.7v-3h.66v.44A1.18,1.18,0,0,1,223.45,218Z"/><path class="cls-17" d="M224.54,220.89a1.51,1.51,0,0,1-.57-.55,1.6,1.6,0,0,1-.2-.79,1.64,1.64,0,0,1,.2-.8,1.48,1.48,0,0,1,.57-.54,1.74,1.74,0,0,1,.82-.2,1.73,1.73,0,0,1,.83.2,1.48,1.48,0,0,1,.57.54,1.53,1.53,0,0,1,.2.8,1.47,1.47,0,0,1-.77,1.34,1.89,1.89,0,0,1-1.65,0Zm1.46-.66a.94.94,0,0,0,.26-.68.93.93,0,0,0-.26-.68.91.91,0,0,0-1.27,0,.92.92,0,0,0-.25.68.94.94,0,0,0,.25.68.93.93,0,0,0,1.27,0Z"/><path class="cls-17" d="M229.37,218v.67l-.16,0a.84.84,0,0,0-.64.24,1,1,0,0,0-.23.69v1.46h-.7v-3h.67v.44A1.15,1.15,0,0,1,229.37,218Z"/></g></g></svg>
