<svg width="40" height="34" viewBox="0 0 40 34" fill="none" xmlns="http://www.w3.org/2000/svg">
<path d="M16.7745 1.31014C19.1653 0.280943 21.7964 -0.139922 24.3838 0.0406288C26.9167 0.23439 29.407 1.01447 31.595 2.33117C33.556 3.50694 35.2784 5.09352 36.6219 6.96382C38.1904 9.14175 39.2371 11.7078 39.6327 14.379C39.9363 16.4965 39.8744 18.6782 39.3767 20.7604C39.7006 21.4052 39.8626 22.1477 39.7533 22.8686C39.6283 23.9538 38.9446 24.9464 37.9926 25.4492C37.7755 25.6008 37.454 25.6033 37.3063 25.8442C35.5721 28.6713 33.0088 30.97 30.0197 32.3371C29.3959 32.6334 28.7461 32.8681 28.094 33.0895L27.9586 33.1197C24.8168 34.1011 21.3874 34.0665 18.2498 33.0807C15.9012 32.3239 13.7132 31.0469 11.9067 29.3401C10.1769 27.7177 8.78838 25.7203 7.86776 23.5166C7.45725 22.5497 7.15988 21.5381 6.91753 20.5164C6.48476 20.2473 5.96303 20.1704 5.46467 20.2291C4.43536 20.3373 3.46164 20.7158 2.4656 20.975C3.17533 20.4428 3.94937 19.9999 4.75184 19.6307C3.47703 19.6477 2.22696 19.9528 0.990479 20.2448C0.659104 20.3285 0.327666 20.4146 0 20.5108C1.27295 19.125 2.94776 18.1871 4.6745 17.5163C4.08402 17.4396 3.48563 17.3684 2.92173 17.1628C2.39314 16.9829 1.9004 16.7042 1.45774 16.3607C1.88433 16.3475 2.31277 16.3751 2.73811 16.3248C4.05125 16.3343 5.42992 16.2619 6.60087 15.5907C6.81595 12.6937 7.79524 9.85961 9.40266 7.45961C11.2079 4.74375 13.7996 2.57337 16.7745 1.31014V1.31014Z" fill="#141414"/>
<path d="M21.3476 0.645182C23.4539 0.424999 25.6072 0.57032 27.6425 1.18369C31.9473 2.43181 35.6641 5.60497 37.6276 9.69661C38.5983 11.6795 39.1634 13.8693 39.2629 16.0826C39.2487 16.5454 39.3309 17.0073 39.2709 17.4691C39.2573 18.3805 39.1367 19.2859 38.9717 20.181C38.8529 20.067 38.7305 19.9571 38.6045 19.8515C38.7856 18.67 38.9174 17.4702 38.8419 16.2738C38.8258 15.961 38.8159 15.6485 38.7856 15.337C38.5396 12.8533 37.7155 10.4294 36.3813 8.33323C35.0391 6.20507 33.1936 4.40774 31.0459 3.13634C28.8202 1.81775 26.2707 1.05466 23.6938 0.99238C23.384 0.945827 23.07 0.979798 22.7584 0.969103L22.717 0.999929C20.0122 1.03893 17.3351 1.88381 15.0291 3.31123C12.7688 4.71914 10.864 6.71463 9.55461 9.0599C8.54441 10.8509 7.89161 12.847 7.63133 14.8941C7.50948 15.0451 7.32895 15.1294 7.16827 15.2294C7.46194 12.179 8.65452 9.2329 10.5154 6.82592C12.4579 4.30388 15.1392 2.37507 18.1303 1.36984C19.1751 1.01824 20.2551 0.776663 21.3476 0.645182V0.645182Z" fill="#595959"/>
<path d="M22.0574 1.96381C22.377 1.79962 22.8221 1.77508 23.088 2.05377C23.2697 2.22048 23.2988 2.48282 23.3594 2.71055C23.1857 2.72565 23.0113 2.73571 22.8377 2.73383C22.7783 2.62185 22.7759 2.44381 22.6386 2.39726C22.5279 2.36832 22.4142 2.4004 22.3041 2.41299C22.2954 2.50735 22.2905 2.60172 22.2881 2.69671C22.6021 2.81435 22.9545 2.88103 23.2006 3.13078C23.4757 3.395 23.4541 3.8467 23.2895 4.16628C23.0441 4.63558 22.3559 4.70032 21.9727 4.37702C21.768 4.18012 21.7292 3.8857 21.6871 3.6177C21.8738 3.6177 22.0605 3.6177 22.2473 3.61582C22.2881 3.73094 22.3041 3.86054 22.3814 3.95993C22.4574 4.07632 22.6045 4.03102 22.7202 4.03731C22.8017 3.89136 22.8476 3.71893 22.7937 3.5548C22.6138 3.38242 22.3461 3.38494 22.134 3.27233C21.6444 3.05466 21.5924 2.23621 22.0574 1.96381V1.96381Z" fill="#595959"/>
<path d="M24.5092 1.99074C24.8153 1.92783 25.1973 1.93727 25.423 2.19268C25.6091 2.38518 25.6326 2.67205 25.6301 2.92746C25.4688 2.92306 25.308 2.90922 25.1485 2.88909C25.0959 2.77208 25.0645 2.64751 25.0168 2.52862C24.9111 2.51289 24.785 2.42481 24.6885 2.50534C24.5635 2.56384 24.5476 2.76201 24.6811 2.81989C24.9432 2.96143 25.2413 3.0709 25.4243 3.32316C25.6567 3.61632 25.5881 4.05543 25.3915 4.34859C25.0757 4.80342 24.3065 4.77958 24.0054 4.32349C23.8657 4.11268 23.8755 3.846 23.867 3.6038C24.0506 3.62645 24.2342 3.65224 24.4191 3.66231C24.4519 3.80637 24.4377 3.97748 24.5477 4.08946C24.6108 4.12727 24.6837 4.143 24.7536 4.16376C24.7894 4.14363 24.8599 4.104 24.8951 4.0838C24.9711 3.94666 24.9872 3.79064 24.9594 3.63714C24.7115 3.47735 24.4073 3.39935 24.2008 3.18042C23.9102 2.81171 24.037 2.13669 24.5092 1.99074V1.99074ZM19.5516 2.38141C19.7792 2.19834 20.0926 2.15367 20.3695 2.22665C20.6935 2.34366 20.9105 2.66576 20.9555 3.0061C20.7738 3.05328 20.5913 3.0992 20.4065 3.12688C20.3781 3.03567 20.3503 2.94445 20.3225 2.85386C20.2248 2.83121 20.1278 2.80919 20.0302 2.78717C19.9331 2.85574 19.8088 2.91111 19.7829 3.04196C19.8397 3.3911 19.9127 3.73774 19.993 4.08122C20.0369 4.31399 20.359 4.38891 20.5123 4.22025C20.6162 4.1284 20.5772 3.97245 20.5983 3.85034C20.7658 3.79687 20.9358 3.7434 21.1108 3.71949C21.2288 3.88432 21.219 4.11079 21.1713 4.30015C21.0501 4.63168 20.7119 4.81223 20.3936 4.89527C19.9731 4.95504 19.4984 4.66439 19.4328 4.21962C19.3586 3.83084 19.2801 3.44269 19.2151 3.05265C19.1622 2.77837 19.3488 2.53616 19.5516 2.38141V2.38141ZM28.2064 3.70565C28.3436 3.41312 28.6051 3.12374 28.95 3.13884C29.4285 3.14198 29.9701 3.54272 29.8897 4.07745C29.8205 4.44547 29.6109 4.76379 29.4805 5.11042C29.3322 5.42497 29.224 5.76091 29.0459 6.06036C28.8771 6.01569 28.7244 5.92768 28.5661 5.85659C28.6057 5.61628 28.7361 5.40868 28.8251 5.1866C28.9709 4.83494 29.1373 4.49208 29.2752 4.13727C29.332 4.019 29.2584 3.90514 29.2214 3.79505C29.0742 3.77303 28.8702 3.72207 28.7911 3.89444C28.5406 4.45371 28.3038 5.01927 28.053 5.5779C27.8483 5.55714 27.6653 5.45523 27.4909 5.35269C27.7253 4.8021 27.9707 4.25611 28.2064 3.70565Z" fill="#595959"/>
<path d="M15.0639 4.31086C15.2246 4.21266 15.3835 4.10955 15.5522 4.02588C15.93 4.63358 16.2558 5.274 16.628 5.88555C16.9074 5.72507 17.1788 5.55144 17.4638 5.40366C17.559 5.56345 17.6493 5.72576 17.7328 5.89184C17.2839 6.13781 16.85 6.41084 16.4042 6.6638C15.956 5.87976 15.5195 5.08968 15.0639 4.31086V4.31086Z" fill="#595959"/>
<path d="M30.6181 4.50536C31.0193 4.23359 31.6339 4.39149 31.8589 4.82494C31.9263 4.93944 31.9584 5.07029 32.0017 5.19611C31.9894 5.37288 31.9659 5.55909 31.8571 5.70504C31.6227 6.03469 31.4051 6.37692 31.1597 6.69769C30.9798 6.92675 30.662 6.97513 30.3943 6.91291C29.8948 6.81666 29.5257 6.23028 29.7284 5.73769C29.857 5.50115 30.0288 5.29167 30.1729 5.06456C30.3139 4.87275 30.4258 4.65068 30.6181 4.50536V4.50536Z" fill="#595959"/>
<path d="M30.7534 5.14059C30.8202 5.02924 30.9364 4.97143 31.0503 4.92041C31.1443 4.96262 31.2382 5.00597 31.3309 5.05258C31.381 5.19476 31.4447 5.36329 31.3457 5.50113C31.1992 5.73012 31.044 5.95345 30.8858 6.17363C30.7393 6.35544 30.4728 6.36487 30.2972 6.22207C30.2725 6.15161 30.2477 6.08241 30.223 6.01258C30.3399 5.68797 30.568 5.42501 30.7534 5.14059V5.14059Z" fill="#141414"/>
<path d="M13.564 5.46267C13.8706 5.13743 14.4549 5.06697 14.7752 5.40983C15.1998 5.8785 15.6375 6.33648 16.0512 6.81711C15.9164 6.94356 15.786 7.07504 15.6512 7.20086C15.2092 6.77308 14.8296 6.2837 14.39 5.85403C14.2979 5.75394 14.1551 5.79615 14.037 5.79238C13.9609 5.91128 13.8769 6.07931 13.9857 6.20695C14.377 6.65801 14.7875 7.09272 15.1962 7.52805C15.1943 7.56643 15.1931 7.60543 15.1919 7.6445C15.0528 7.75774 14.9273 7.8867 14.7956 8.00874C14.4271 7.59348 14.0401 7.19526 13.676 6.77628C13.574 6.6706 13.4627 6.52282 13.297 6.57057C13.127 6.61901 13.0225 6.85366 13.166 6.99018C13.5721 7.45319 13.9938 7.90236 14.4136 8.35343C14.2893 8.50692 14.1397 8.63526 13.9907 8.76366C13.5697 8.31889 13.1629 7.85965 12.7443 7.41293C12.5008 7.17639 12.4581 6.78887 12.5911 6.4825C12.6986 6.16166 13.0231 5.9774 13.3446 5.96224C13.3909 5.7854 13.4348 5.59862 13.564 5.46267V5.46267Z" fill="#595959"/>
<path d="M18.4882 6.37438C20.6756 5.35273 23.1868 5.08033 25.5393 5.59115C27.8113 6.07436 29.9189 7.29858 31.5015 9.02293C32.3664 9.97092 33.0787 11.0611 33.5998 12.2413C33.9522 13.0831 34.239 13.9595 34.3824 14.8653C33.1998 14.6294 32.0318 14.3092 30.8961 13.8971C30.357 13.6989 29.8229 13.48 29.319 13.2007C29.2393 13.1585 29.1682 13.1032 29.1131 13.0321C28.885 12.7566 28.6569 12.4823 28.4281 12.208C28.3706 12.1004 28.2469 12.1412 28.1512 12.1361C28.1307 12.0245 28.1136 11.9123 28.0999 11.7996C27.8755 11.5668 27.8804 11.2359 27.8699 10.932C27.7771 10.0104 27.8217 9.063 27.5546 8.16654C27.204 7.37262 26.4856 6.73032 25.6306 6.57934C25.0265 6.48315 24.4016 6.5309 23.8142 6.70201C22.7224 7.01341 21.7245 7.58658 20.7781 8.20995C19.9231 8.78186 19.1107 9.41781 18.3243 10.0828C17.3519 10.1376 16.4529 10.5572 15.5985 11.0007C15.0384 11.2781 14.4795 11.5851 13.8644 11.716C13.5583 11.7556 13.2505 11.7795 12.9494 11.8537C14.1 9.44877 16.0926 7.47586 18.4882 6.37438V6.37438Z" fill="#595959"/>
<path d="M32.5952 5.83147C32.6996 5.72453 32.7905 5.5704 32.9594 5.58109C33.232 5.91892 33.6697 6.14099 33.7853 6.58954C33.8249 6.83432 33.7723 7.10791 33.5998 7.29098C33.3476 7.57973 33.0891 7.86346 32.8215 8.13774C32.6075 8.36673 32.2576 8.38554 31.9781 8.29439C31.6264 8.10125 31.3568 7.78979 31.0662 7.51619C31.5615 6.94114 32.0944 6.40137 32.5952 5.83147Z" fill="#595959"/>
<path d="M32.9167 6.38696C33.075 6.48384 33.2047 6.62854 33.2141 6.8267C32.9334 7.13559 32.6534 7.44573 32.3671 7.74958C32.2786 7.7477 32.1897 7.74644 32.1019 7.74455C32.0271 7.67032 31.9516 7.59608 31.8768 7.52305C32.229 7.14971 32.5757 6.77097 32.9167 6.38696V6.38696Z" fill="#141414"/>
<path d="M22.2811 8.47313C23.1424 7.96922 24.0586 7.49299 25.0589 7.37655C25.6932 7.28973 26.4079 7.48035 26.8041 8.02137C27.1274 8.38128 27.1634 8.89022 27.2073 9.35191C27.2642 9.81555 27.2388 10.2855 27.3093 10.7485C27.1318 10.7831 26.9562 10.8347 26.7757 10.8492C26.683 10.8045 26.5909 10.7611 26.5092 10.6988C26.4777 10.573 26.4585 10.4446 26.4393 10.3163C25.7104 10.4541 24.9419 10.6076 24.3454 11.0856C24.0454 11.3184 23.868 11.6783 23.8062 12.0519C23.8056 12.1645 23.8031 12.2778 23.8111 12.3916C23.912 12.4771 24.0566 12.4545 24.1783 12.4852C24.0083 12.8031 23.8562 13.1359 23.8098 13.4982V13.7499C24.0948 13.7046 24.3372 13.5385 24.6037 13.4384C24.592 13.5032 24.569 13.6328 24.558 13.6976C24.5524 13.7857 24.5475 13.8738 24.5432 13.9619C24.5988 14.1012 24.666 14.2355 24.7441 14.3632C25.128 14.2782 25.46 14.0524 25.8267 13.919L25.7846 14.1354C25.7994 14.1781 25.8285 14.2631 25.8426 14.3052C26.2376 14.2071 26.611 14.0347 26.9437 13.7969C27.3772 13.5138 27.7982 13.142 28.3256 13.0721C28.6199 13.2609 28.757 13.6509 29.0681 13.8328C29.5739 14.1435 30.1229 14.3725 30.6731 14.5877C31.8032 15.0149 32.9661 15.352 34.1457 15.6042C34.759 15.7407 35.384 15.8339 35.9787 16.044C36.3114 16.1666 36.6465 16.3736 36.7936 16.7165C37.0705 17.3902 37.0669 18.1873 36.7405 18.8422C36.4482 19.3908 35.9263 19.8387 35.3154 19.9581C32.8696 20.5337 30.3843 20.9207 27.8979 21.2572C27.1591 21.3402 26.4221 21.4308 25.6814 21.4944C23.9739 21.6498 22.2594 21.7372 20.5438 21.7159C19.9818 21.7241 19.4149 21.7109 18.8659 21.5782C18.6508 21.4952 18.43 21.402 18.2748 21.2222C18.0622 21.012 18.0029 20.7063 17.9484 20.4226C17.8575 19.9017 17.7358 19.3833 17.7184 18.8523C17.6992 18.3905 17.8532 17.9495 17.9391 17.5016C18.2056 16.1504 18.4145 14.7858 18.7539 13.4496C18.799 13.286 18.7737 13.113 18.8182 12.9496C18.997 12.1896 19.2077 11.4384 19.4006 10.6823C19.4235 10.6175 19.4322 10.5394 19.4859 10.4935C20.3758 9.76277 21.2956 9.0651 22.2811 8.47313V8.47313Z" fill="#595959"/>
<path d="M32.5327 9.00459C33.2542 8.47363 33.9732 7.93947 34.6959 7.4104C34.9537 7.78855 35.2263 8.15594 35.4885 8.53088C35.3395 8.63783 35.1991 8.75862 35.0378 8.84543C34.861 8.6416 34.7132 8.41324 34.5586 8.19174C34.4437 8.27358 34.3274 8.35341 34.2112 8.43268C34.2179 8.61638 34.3671 8.74157 34.4523 8.89261C34.3156 8.99635 34.1771 9.09896 34.0349 9.19521C33.9404 9.06121 33.8495 8.9247 33.7431 8.80076C33.6201 8.87374 33.505 8.95867 33.3889 9.04102L33.3073 9.14425C33.4644 9.36003 33.6214 9.57575 33.7692 9.79914C33.6227 9.91238 33.4724 10.02 33.3172 10.1205C33.0607 9.74504 32.7708 9.39274 32.5327 9.00459V9.00459Z" fill="#595959"/>
<path d="M11.449 7.70999C11.5071 7.63003 11.5547 7.53824 11.6357 7.47974C11.797 7.55271 11.9256 7.68231 12.0685 7.78674C11.956 7.9459 11.8404 8.10191 11.7365 8.26799C12.3071 8.68376 12.8704 9.10972 13.4422 9.52298C13.3575 9.68661 13.2456 9.83249 13.1362 9.97907C12.5544 9.56009 11.9844 9.12476 11.402 8.70704C11.3031 8.85614 11.2091 9.00963 11.0954 9.14741C10.9142 9.13797 10.7881 8.95679 10.6367 8.86935C10.8833 8.46616 11.1856 8.10191 11.449 7.70999V7.70999Z" fill="#595959"/>
<path d="M9.99988 10.0691C10.0969 9.87721 10.1946 9.68533 10.3127 9.5061C11.0763 9.92886 11.8596 10.3201 12.6107 10.7649C12.62 10.9776 12.4432 11.1675 12.3449 11.3507C12.0289 11.1972 11.7396 10.9857 11.4095 10.8663C11.3606 10.9757 11.3106 11.0858 11.2617 11.1965C11.5596 11.3777 11.8898 11.5035 12.1723 11.7124C12.0814 11.8998 11.9819 12.083 11.8854 12.2672C11.1021 11.8665 10.3343 11.4337 9.55902 11.0191C9.52996 10.8996 9.63135 10.7895 9.67278 10.6819C9.7278 10.6032 9.75006 10.4787 9.84712 10.4441C10.1612 10.587 10.4517 10.7795 10.7658 10.9241C10.8239 10.8141 10.8832 10.7046 10.9463 10.597C10.6323 10.4183 10.3109 10.2528 9.99988 10.0691V10.0691Z" fill="#595959"/>
<path d="M33.5931 10.3684C33.6629 10.1747 33.899 10.1627 34.0493 10.264C34.1149 10.4011 34.1204 10.5465 34.0456 10.6811C33.9701 10.7113 33.8953 10.7415 33.8205 10.7729C33.6826 10.6943 33.4793 10.5528 33.5931 10.3684Z" fill="#595959"/>
<path d="M24.4734 11.6335C25.041 11.1365 25.7556 10.8849 26.4585 10.6609L26.5092 10.6987C26.5907 10.761 26.683 10.8044 26.7757 10.8491C25.9948 11.163 25.2424 11.5455 24.4721 11.8839C24.4709 11.7996 24.4716 11.7171 24.4734 11.6335V11.6335Z" fill="#595959"/>
<path d="M34.2484 11.2277C34.3516 10.9799 34.5859 10.8289 34.8189 10.7251C34.8987 10.9119 34.9827 11.0969 35.0613 11.285C34.9012 11.3724 34.7515 11.5013 34.7862 11.7052C34.8789 11.7291 34.976 11.8122 35.0743 11.7612C35.6597 11.5215 36.2193 11.2215 36.7979 10.966C36.8814 11.1636 36.976 11.3554 37.0539 11.5555C36.6328 11.7625 36.2045 11.9543 35.7834 12.1613C35.4929 12.2802 35.1911 12.457 34.8672 12.3947C34.3701 12.3104 34.0308 11.697 34.2484 11.2277V11.2277Z" fill="#595959"/>
<path d="M14.3652 12.5383C15.8441 12.2351 17.0378 11.0996 18.5569 10.9404C18.3812 11.6708 18.1686 12.3918 17.9961 13.1234C17.9442 13.3524 17.9529 13.5921 17.883 13.8173C17.488 15.3781 17.2895 16.9816 16.9217 18.5487C16.8221 19.0192 16.8778 19.5056 16.9655 19.9735C17.0094 20.2862 17.0744 20.5982 17.1943 20.8913C16.688 20.9135 16.1909 21.089 15.76 21.3564C15.2685 21.6508 14.8994 22.1678 14.3065 22.2646C13.5639 22.3194 12.926 21.8337 12.1995 21.7778C11.9361 21.7765 11.6907 21.9105 11.4255 21.8998C11.4737 21.8633 11.522 21.8281 11.5708 21.7928C11.9424 21.5948 12.312 21.3657 12.7356 21.304C13.2523 21.2443 13.7723 21.2071 14.2854 21.1203C14.5661 21.0687 14.8246 20.9341 15.0385 20.7435C15.3204 20.5019 15.7835 20.4497 15.9121 20.0521C15.9392 19.769 15.8812 19.3123 15.5331 19.2747C15.2363 19.318 14.9921 19.5199 14.7634 19.7031C14.3825 20.0082 14.0388 20.3636 13.6277 20.6285C13.4428 20.7582 13.2091 20.7203 12.9978 20.7235C12.6849 20.7185 12.3876 20.5984 12.0771 20.5744C11.6079 20.6248 11.1597 20.7878 10.7152 20.9412C10.3745 21.0481 10.0264 21.1652 9.66545 21.1469C9.17519 21.1325 8.7078 20.9507 8.27442 20.7286C8.57241 20.7185 8.87349 20.7456 9.16963 20.6959C10.1718 20.5493 11.0787 20.0548 12.0549 19.8101C12.3665 19.717 12.7022 19.8126 13.0089 19.6911C13.4695 19.5288 13.9035 19.1369 13.9665 18.6235C13.9981 18.4247 13.9208 18.2398 13.8299 18.0705C13.5529 17.8146 13.1678 17.9694 12.8833 18.1266C12.0623 18.5997 11.3879 19.2917 10.573 19.7741C10.3523 19.9018 10.1001 19.9773 9.84474 19.9668C9.29884 19.9517 8.77581 19.7748 8.23912 19.69C7.74391 19.5962 7.23881 19.6145 6.7381 19.6346C7.68091 19.1703 8.75603 19.2188 9.76561 19.0306C10.1353 18.9583 10.5384 18.9086 10.8407 18.6614C10.9607 18.5733 10.965 18.411 10.9854 18.2764C10.8587 17.9146 10.565 17.5699 10.162 17.5617C9.53692 17.5813 9.0176 17.9838 8.51498 18.3166C8.16753 18.545 7.8163 18.8746 7.37056 18.8212C6.91368 18.7583 6.46737 18.6049 6.00178 18.6111L5.96159 18.584C5.51337 18.5758 5.06583 18.6243 4.62564 18.7079C4.99658 18.472 5.37124 18.2262 5.79652 18.1053C6.29915 17.9562 6.83145 18.0159 7.34212 17.9216C8.19349 17.6763 8.74242 16.9032 9.50348 16.4911C9.73105 16.3785 9.98941 16.2848 10.2447 16.342C10.8871 16.4477 11.2685 17.0855 11.8837 17.2574C12.4327 17.3945 13.007 17.1825 13.4509 16.8547C13.692 16.6843 13.8893 16.4395 13.9548 16.1432C13.8441 15.8299 13.4596 15.7689 13.1746 15.7959C12.6967 15.8393 12.416 16.2848 12.0129 16.4904C11.412 16.4232 10.9731 15.9576 10.4216 15.7602C10.0668 15.669 9.65501 15.713 9.36746 15.9607C8.90941 16.3357 8.42898 16.7119 7.85464 16.8811C7.18756 17.1013 6.46737 16.9919 5.81575 16.7692C6.49705 16.6988 7.18824 16.5508 7.77865 16.1816C8.50261 15.7426 9.0411 14.9624 9.9091 14.7951C10.3919 14.6674 10.8692 14.8876 11.284 15.1204C11.5461 15.2537 11.8312 15.4117 12.1341 15.353C12.591 15.2473 12.9223 14.8881 13.3075 14.644C13.4899 14.5239 13.7365 14.5132 13.875 14.3263C13.9913 14.2281 13.9523 14.0665 13.9622 13.9325C13.8435 13.7984 13.6821 13.6927 13.4972 13.7293C12.8963 13.7822 12.5408 14.378 11.9813 14.5402C11.7686 14.5868 11.5665 14.4874 11.368 14.4245C11.0385 14.3081 10.6935 14.2219 10.3417 14.2383C10.0196 14.2219 9.71362 14.3352 9.40073 14.3912C9.54793 14.2585 9.69315 14.1164 9.87807 14.0389C10.317 13.8363 10.8141 13.9231 11.2747 13.8193C11.6944 13.7142 12.0159 13.4047 12.3751 13.1802C12.7504 12.9203 13.1739 12.7305 13.6208 12.6429C13.865 12.5823 14.1197 12.5962 14.3652 12.5383V12.5383Z" fill="#595959"/>
<path d="M24.8827 12.5157C25.4026 12.1395 25.9028 11.7111 26.4993 11.4639C26.3645 11.6193 26.2125 11.7571 26.0518 11.8822C25.4385 12.3654 24.8166 12.8365 24.1797 13.2869C24.3071 12.9491 24.6262 12.746 24.8827 12.5157V12.5157Z" fill="#595959"/>
<path d="M27.0317 12.067C27.2085 12.0041 27.3995 11.9865 27.5832 12.0305C27.5973 12.3708 27.2765 12.5696 27.0632 12.7791C26.3968 13.3201 25.6209 13.6987 24.8351 14.0233C24.8815 13.6906 24.9928 13.3735 25.1095 13.0615C25.7278 12.6892 26.346 12.2991 27.0317 12.067Z" fill="#595959"/>
<path d="M36.1662 12.9288C36.3015 12.6733 36.5977 12.5734 36.8642 12.5432C37.3798 12.5506 37.6716 13.1698 37.5529 13.6271C37.4725 13.9397 37.1739 14.0983 36.902 14.2084C36.8549 14.0379 36.8123 13.8661 36.7691 13.695C36.8624 13.6151 37.038 13.5805 37.0374 13.4302C37.0405 13.3396 37.022 13.2509 37.0127 13.1615C36.9256 13.1344 36.8378 13.11 36.75 13.0904L36.6665 13.2377C36.6535 13.6088 36.63 14.0348 36.3376 14.3003C36.1236 14.5217 35.7904 14.5161 35.5104 14.4739C35.0232 14.3418 34.7988 13.7247 34.975 13.2718C35.1005 12.9955 35.3886 12.8653 35.6538 12.7667C35.7089 12.9497 35.7546 13.1352 35.7978 13.3214C35.6587 13.4095 35.4152 13.4769 35.454 13.6921C35.4312 13.8053 35.5418 13.8582 35.6054 13.9286C35.7458 13.9135 35.9282 13.9355 36.0129 13.7909C36.0858 13.5082 36.0412 13.198 36.1662 12.9288V12.9288Z" fill="#595959"/>
<path d="M20.7727 15.7012C20.9384 15.1464 21.4744 14.8217 22.0154 14.7537C22.4469 14.7273 22.9156 14.7959 23.2568 15.0878C23.4911 15.2709 23.5807 15.5703 23.6618 15.8466C23.7941 15.8466 23.927 15.8498 24.0599 15.8592C24.0821 15.5038 24.3813 15.2351 24.6918 15.1192C24.884 15.0394 25.067 15.1507 25.2351 15.2344C25.3781 15.1639 25.5047 15.0299 25.6772 15.0546C25.825 15.0375 25.9733 15.1822 26.1137 15.0974C26.322 14.9797 26.5915 14.9432 26.8 15.081C27.0182 15.1847 27.0924 15.4371 27.1493 15.6554C27.587 15.5 28.1118 15.4673 28.4982 15.7717C28.6113 15.7208 28.7233 15.6667 28.8351 15.612C28.9162 15.2314 29.3272 14.9816 29.6944 15.0797C30.1005 15.1684 30.3633 15.69 30.0994 16.0517C30.1625 16.2719 30.1798 16.5072 30.0969 16.7255C30.2602 16.8903 30.4376 17.0897 30.3993 17.3439C30.4296 17.688 30.1791 17.9616 29.9208 18.1428C30.0865 18.3995 29.9844 18.7071 30.0803 18.982C30.1428 19.2462 30.0945 19.5514 29.8856 19.7383C29.5986 20.0504 29.1437 20.0043 28.7647 20.0749C28.6955 20.0296 28.6263 19.9843 28.557 19.9409C28.1713 20.1257 27.6946 20.1598 27.3397 19.8848C27.2003 20.0188 27.0317 20.1171 26.8476 20.1718C26.6591 20.4352 26.4106 20.699 26.0816 20.7575C25.7638 20.7689 25.5425 20.4776 25.4856 20.1845C25.1666 20.2864 24.8377 20.2405 24.5273 20.1316C24.2558 20.3531 23.8788 20.3794 23.5567 20.2693C23.4189 20.5429 23.2247 20.7939 22.9476 20.9317C22.3566 21.2324 21.5443 21.1318 21.1201 20.5863C20.7659 20.1416 20.824 19.4458 21.2413 19.0627C21.1795 18.9249 21.1318 18.7814 21.106 18.633C21.0225 18.6078 20.9397 18.582 20.8574 18.5575C20.7782 18.5997 20.6991 18.6418 20.6206 18.6847C20.202 18.686 19.7786 18.6425 19.3687 18.7533C19.2531 18.6689 19.1151 18.6048 19.0391 18.4777C18.9674 18.3475 18.9823 18.1946 18.9786 18.0518C18.4432 17.892 18.2694 17.1308 18.6411 16.7269C18.8711 16.4746 19.2277 16.4331 19.5473 16.4481C19.7496 16.3481 19.9888 16.2141 20.2052 16.3669C20.4767 16.4878 20.4383 16.8306 20.5774 17.0496C20.784 17.1899 21.0152 16.9924 21.2378 16.9918C20.7893 16.7531 20.6645 16.1699 20.7727 15.7012V15.7012Z" fill="#141414"/>
<path d="M21.7853 15.2289C22.1476 15.1194 22.5637 15.1276 22.8943 15.3277C23.2437 15.5252 23.3567 16.0492 23.1175 16.3764C23.018 16.511 22.8523 16.5632 22.707 16.6267C22.8844 17.1029 23.1583 17.6427 23.6739 17.7963C23.9719 17.8787 24.2057 17.5793 24.4949 17.6076C24.6562 17.6118 24.6439 17.817 24.6575 17.9339C24.3899 18.3529 23.8087 18.4259 23.3908 18.2164C22.9716 17.9981 22.7015 17.5697 22.532 17.1362C22.4646 16.9632 22.4102 16.7863 22.3528 16.6103C22.3261 16.6142 22.2717 16.621 22.2452 16.6248C22.2514 16.7292 22.2582 16.8343 22.2656 16.9393C22.3312 16.9695 22.3967 16.9997 22.4628 17.0304C22.446 17.1078 22.4281 17.1859 22.409 17.2632C22.2892 17.4766 22.1073 17.6482 21.8958 17.7652C21.8353 17.7066 21.7592 17.6619 21.7196 17.5858C21.7697 17.4425 21.8809 17.3217 21.8858 17.163C21.8945 16.89 21.8568 16.6176 21.8617 16.3446C21.8684 16.1823 21.7548 16.0565 21.6707 15.9325C21.8017 15.7526 22.0249 15.7841 22.2184 15.7885C22.2376 15.8224 22.2573 15.8564 22.2777 15.891C22.2511 16.0351 22.2394 16.1809 22.2344 16.3275C22.4107 16.3269 22.6258 16.3501 22.7407 16.1809C22.9212 15.9758 22.7537 15.6576 22.5206 15.5865C22.162 15.4625 21.6445 15.5532 21.5011 15.9571C21.5611 16.1854 21.7824 16.3496 21.7677 16.5981C21.6725 16.6345 21.5717 16.7195 21.4673 16.6617C21.1748 16.5082 21.0752 16.1205 21.1698 15.8168C21.2438 15.5207 21.5065 15.3106 21.7853 15.2289V15.2289Z" fill="#595959"/>
<path d="M26.3405 15.4295C26.4357 15.3942 26.5383 15.4176 26.6372 15.4201C26.7208 15.5723 26.7757 15.8057 26.6193 15.929C26.4957 15.9775 26.3133 15.9699 26.2571 15.8258C26.1668 15.695 26.2484 15.5327 26.3405 15.4295Z" fill="#595959"/>
<path d="M24.4678 15.819C24.5476 15.646 24.7256 15.5542 24.8894 15.4806C25.112 15.997 24.984 16.5815 25.0848 17.1231C25.1399 17.1892 25.2035 17.2483 25.2647 17.31C25.2665 17.3439 25.2696 17.4125 25.2714 17.4465C25.0557 17.5503 24.8115 17.5232 24.5808 17.5069C24.579 17.4686 24.5759 17.3911 24.5741 17.3527C24.618 17.2842 24.6625 17.2156 24.6965 17.1415C24.6877 16.7691 24.6377 16.3984 24.6445 16.0255C24.5853 15.958 24.4314 15.9397 24.4678 15.819ZM25.3167 15.7083C25.4446 15.5963 25.5752 15.4768 25.7457 15.4409C25.8781 15.741 25.8539 16.0782 25.8855 16.399C25.909 16.6821 25.8274 17.0198 26.0531 17.2389H26.2782C26.3078 17.203 26.3666 17.1319 26.3956 17.0967C26.3974 16.9067 26.3974 16.7167 26.3888 16.5272C26.3337 16.5134 26.2237 16.4865 26.1687 16.4726C26.2206 16.2455 26.4197 16.1122 26.6175 16.029C26.7523 16.3486 26.6885 16.7053 26.7535 17.04C26.8196 17.1098 26.8864 17.1796 26.9538 17.2494C26.9513 17.2803 26.947 17.3407 26.9451 17.3709C26.7454 17.4087 26.5426 17.4256 26.3399 17.4281C26.2767 17.3797 26.2137 17.3331 26.1512 17.2853C25.9998 17.5697 25.6314 17.4828 25.3784 17.4269C25.4322 17.2752 25.5565 17.1412 25.5361 16.97C25.5238 16.6977 25.5052 16.4253 25.4923 16.1529C25.483 16.0875 25.4749 16.0227 25.4681 15.9578C25.3371 15.9347 25.321 15.8203 25.3167 15.7083V15.7083Z" fill="#595959"/>
<path d="M29.2784 15.6081C29.4058 15.3615 29.8626 15.4773 29.7958 15.7761C29.7118 15.9233 29.5411 15.8516 29.4081 15.8598C29.5515 16.0573 29.8272 16.2385 29.734 16.5222C29.6234 16.7863 29.2994 16.8078 29.0632 16.8871C29.0508 16.9141 29.026 16.9682 29.0137 16.9959C29.269 17.1292 29.5515 16.9204 29.8081 17.0474C29.9331 17.0915 29.9795 17.228 30.0313 17.3393C29.9435 17.7747 29.4632 17.9439 29.0749 17.9137C28.9098 17.8841 28.6916 17.8602 28.6056 17.6935C28.5283 17.5413 28.6699 17.3544 28.83 17.384C28.9698 17.4834 29.0903 17.6106 29.2449 17.6885C29.3864 17.6339 29.6424 17.6099 29.596 17.3947C29.5194 17.2865 29.3766 17.3003 29.2628 17.3098C29.0915 17.3236 28.9197 17.3236 28.7478 17.3198C28.7033 17.2745 28.6593 17.2292 28.6155 17.1846C28.6148 17.1267 28.6148 17.0695 28.6148 17.0129C28.6828 16.949 28.7516 16.8861 28.8213 16.8242C28.7427 16.733 28.6229 16.6625 28.6018 16.5347C28.5568 16.3925 28.6365 16.2605 28.689 16.1352C28.8776 16.0308 29.0841 15.9723 29.2961 15.9427C29.266 15.8352 29.1788 15.7037 29.2784 15.6081V15.6081Z" fill="#595959"/>
<path d="M27.6258 16.1285C27.7754 16.0329 27.9732 15.9046 28.1457 16.0228C28.3324 16.1518 28.3065 16.4028 28.3249 16.6022C28.3169 16.7721 28.4968 16.8552 28.5086 17.02C28.3534 17.1879 28.1988 17.4718 27.9293 17.3704C27.9781 17.0407 28.0659 16.6815 27.9126 16.367C27.818 16.3916 27.7253 16.4173 27.6312 16.4418C27.6066 16.5744 27.5602 16.7073 27.5786 16.8443C27.5947 17.0274 27.7623 17.1318 27.8445 17.2834C27.6294 17.3904 27.3896 17.391 27.1564 17.3778L27.0594 17.2564C27.1187 17.1935 27.1787 17.1318 27.2417 17.0726C27.2585 17.0211 27.2764 16.9708 27.2937 16.9197C27.2665 16.7838 27.254 16.646 27.2466 16.5082L27.0624 16.473C27.0637 16.3761 27.0871 16.2836 27.1218 16.195C27.2275 16.1226 27.3326 16.049 27.4407 15.9791C27.5075 16.0559 27.5532 16.1458 27.5978 16.2382C27.6048 16.211 27.619 16.1563 27.6258 16.1285V16.1285Z" fill="#595959"/>
<path d="M28.9371 16.3876C28.9841 16.209 29.1881 16.221 29.3302 16.2442C29.3763 16.3153 29.4133 16.3921 29.4403 16.4727C29.3407 16.5337 29.2344 16.5803 29.1274 16.6249C29.0527 16.5625 28.8771 16.5248 28.9371 16.3876V16.3876Z" fill="#141414"/>
<path d="M23.5355 16.307C23.807 16.1712 24.1779 16.2637 24.32 16.5454C24.448 16.8293 24.4548 17.2079 24.223 17.4387C24.053 17.63 23.7624 17.6086 23.5387 17.5532C23.0676 17.3432 23.0613 16.5184 23.5355 16.307Z" fill="#595959"/>
<path d="M22.2453 16.6248C22.2719 16.6209 22.3263 16.6141 22.3528 16.6104C22.4104 16.7865 22.4648 16.9633 22.5321 17.1363C22.4906 17.1784 22.4492 17.2206 22.4091 17.2633C22.4283 17.186 22.4462 17.108 22.4628 17.0306C22.3967 16.9999 22.3311 16.9696 22.2657 16.9395C22.2583 16.8343 22.2515 16.7292 22.2453 16.6248V16.6248Z" fill="#141414"/>
<path d="M23.6116 16.6342C23.7439 16.4833 24.0197 16.5807 24.043 16.7782C24.0628 16.9412 24.0937 17.1657 23.9194 17.2576C23.7976 17.2746 23.6338 17.2897 23.5769 17.1494C23.5021 16.994 23.4874 16.7656 23.6116 16.6342V16.6342Z" fill="#141414"/>
<path d="M19.7383 16.8701C19.8273 16.769 19.9374 16.7041 20.0741 16.7317C20.0734 16.8462 20.0908 16.9821 19.9813 17.0538C19.8843 17.0778 19.7847 17.0796 19.6864 17.0886C19.7005 17.3288 19.6975 17.5697 19.7179 17.8095C19.76 17.863 19.8026 17.9171 19.8453 17.9718C19.7284 18.1329 19.6085 18.3449 19.3792 18.3266C19.42 18.0711 19.5579 17.7837 19.3879 17.5466C19.2877 17.7057 19.0244 17.6824 18.9255 17.5347C18.7839 17.3705 18.8135 17.0812 18.9954 16.9585C19.2103 16.7996 19.4929 16.8972 19.7383 16.8701V16.8701Z" fill="#595959"/>
<path d="M19.0638 17.3658C19.0898 17.264 19.0731 17.1273 19.1912 17.084C19.271 17.067 19.352 17.0588 19.4343 17.0588C19.4398 17.1815 19.4479 17.3048 19.4589 17.4287C19.3347 17.3671 19.1967 17.3753 19.0638 17.3658V17.3658Z" fill="#141414"/>
<path d="M19.9813 17.054C20.0264 17.071 20.1167 17.1044 20.1625 17.1208C20.1853 17.2516 20.1866 17.3856 20.1965 17.519C20.3356 17.4471 20.4785 17.4214 20.6156 17.5133C20.6298 17.6347 20.6423 17.756 20.6515 17.8782C20.6891 17.9322 20.7275 17.987 20.7659 18.0423C20.6969 18.125 20.6251 18.2053 20.5508 18.2832L20.3734 18.248C20.4383 18.0649 20.4883 17.8516 20.3678 17.6786C20.3103 17.6994 20.2559 17.7276 20.2016 17.7554C20.2029 17.8428 20.2065 17.9315 20.2127 18.0196C20.2566 18.0926 20.3024 18.1649 20.3505 18.2359C20.2034 18.2567 20.0551 18.2699 19.9066 18.2731C19.9035 18.2491 19.8974 18.2008 19.8943 18.1761C19.9326 18.1165 19.9709 18.0579 20.0074 17.9982C19.9623 17.8051 19.9653 17.6057 19.9648 17.4088C19.7445 17.3566 19.9399 17.1754 19.9813 17.054V17.054Z" fill="#595959"/>
<path d="M21.0088 17.4364C21.198 17.3982 21.4577 17.415 21.5021 17.6534C21.5763 17.9252 21.2201 17.8912 21.0532 17.8988C21.0619 17.9263 21.0799 17.9817 21.0891 18.0095C21.232 18.0064 21.3635 17.9422 21.5045 17.9258C21.5522 18.2693 20.9667 18.3215 20.8752 18.0164C20.7633 17.8113 20.8524 17.5842 21.0088 17.4364V17.4364Z" fill="#595959"/>
<path d="M20.9717 17.6609C21.0879 17.625 21.2053 17.5923 21.3247 17.5652C21.3464 17.7873 21.0755 17.81 20.9717 17.6609Z" fill="#141414"/>
<path d="M22.2805 18.0165C22.4097 18.036 22.5265 17.8674 22.6483 17.9629C22.814 18.1044 22.9148 18.3302 22.9068 18.5512C22.8523 18.597 22.7898 18.6298 22.7287 18.6644C22.5728 18.5322 22.4164 18.3939 22.2224 18.326C22.1468 18.3534 22.0714 18.3813 21.9962 18.4096C21.9863 18.504 21.883 18.6305 22.0085 18.6869C22.3299 18.8764 22.7226 18.9186 23.0169 19.1646C23.1912 19.4017 23.2519 19.6974 23.224 19.9892C23.0386 20.7145 22.0402 20.9114 21.5257 20.4309C21.2043 20.161 21.2012 19.5401 21.5882 19.3292C21.791 19.2016 22.0871 19.2034 22.2411 19.4078C22.2127 19.4765 22.1849 19.5456 22.1571 19.6148C22.0193 19.6627 21.8504 19.6702 21.7552 19.796C21.7076 19.9734 21.7781 20.1849 21.9537 20.2579C22.1861 20.3622 22.5014 20.3383 22.6851 20.1478C22.8927 19.9068 22.8304 19.4847 22.549 19.3306C22.2727 19.1815 21.9506 19.1299 21.6898 18.9487C21.4851 18.8046 21.4499 18.4951 21.5977 18.2971C21.7408 18.0655 22.0246 17.9812 22.2805 18.0165V18.0165Z" fill="#595959"/>
<path d="M28.7466 18.3321C28.9154 18.1788 29.1689 18.3321 29.3414 18.1862C29.3729 18.1862 29.4366 18.1855 29.4681 18.1855C29.5521 18.3203 29.6171 18.4668 29.6697 18.6184C29.4904 18.7826 29.308 18.6146 29.1498 18.5133C29.1214 18.5172 29.0633 18.5234 29.0349 18.5271C29.0342 18.5762 29.0336 18.6259 29.0342 18.6762C29.2376 18.7706 29.4862 18.7945 29.6475 18.9658C29.7705 19.0991 29.6827 19.2803 29.6469 19.4325C29.4843 19.5747 29.2765 19.6137 29.0682 19.5759C28.9934 19.6131 28.9143 19.686 28.8258 19.6477C28.6787 19.5219 28.5835 19.3363 28.5897 19.1388C28.8142 19.0186 28.9873 19.2413 29.1869 19.3104C29.3341 19.3708 29.3014 19.1853 29.3186 19.1047C29.109 19.0362 28.8964 18.9725 28.6998 18.8701L28.6108 18.7242C28.6082 18.5818 28.636 18.4296 28.7466 18.3321V18.3321Z" fill="#595959"/>
<path d="M26.2966 18.5443C26.4679 18.4411 26.6787 18.3292 26.8747 18.4411C27.2524 18.6574 27.2982 19.2407 27.0545 19.5778C26.934 19.7709 26.6489 19.8282 26.4691 19.6892C26.3633 19.6338 26.3546 19.4576 26.4493 19.3879C26.5377 19.3747 26.628 19.369 26.7188 19.3703C26.8629 19.2293 26.9 19.0331 26.8059 18.8512L26.6675 18.7531C26.5351 18.7544 26.3671 18.7877 26.3367 18.9444C26.3138 19.1545 26.3293 19.3671 26.3374 19.5784C26.3342 19.6999 26.4561 19.7597 26.5111 19.8547C26.5396 19.9533 26.4462 20.0207 26.3973 20.0918C26.278 20.2083 26.1507 20.3793 25.9633 20.3285C25.8879 20.1555 25.9942 19.9756 25.9892 19.7988C25.9781 19.5149 25.9416 19.2332 25.9491 18.9495C25.8891 18.9198 25.8292 18.8909 25.7704 18.8619C25.7648 18.8267 25.7536 18.7563 25.7487 18.721C25.8699 18.5878 26.0022 18.4379 26.1926 18.423C26.2187 18.4531 26.2706 18.5141 26.2966 18.5443Z" fill="#595959"/>
<path d="M27.5294 18.4758C27.7829 18.2152 28.2867 18.2649 28.4456 18.6104C28.5081 18.7444 28.547 18.9765 28.3813 19.0476C28.1761 19.1564 27.9418 19.1244 27.7204 19.1262C27.7261 19.1583 27.7384 19.2238 27.7446 19.2558C27.9888 19.4395 28.217 19.1791 28.4723 19.1879C28.4773 19.2665 28.4934 19.3465 28.4835 19.4263C28.3921 19.5925 28.193 19.6321 28.031 19.6912C27.7237 19.6956 27.414 19.495 27.3658 19.1722C27.2945 18.9311 27.3588 18.6581 27.5294 18.4758Z" fill="#595959"/>
<path d="M24.6089 18.7103C24.7647 18.4694 25.0886 18.4549 25.3353 18.528C25.6419 18.6432 25.7019 19.0162 25.6926 19.308C25.6388 19.4785 25.5695 19.671 25.3989 19.7548C25.2338 19.8529 25.0385 19.8152 24.8573 19.822C24.4623 19.6238 24.338 19.0614 24.6089 18.7103V18.7103Z" fill="#595959"/>
<path d="M23.5343 18.6844C23.6487 18.5812 23.8038 18.5562 23.9453 18.5146C24.0758 18.5611 24.2254 18.5876 24.3256 18.6927C24.4004 18.7952 24.3806 18.9543 24.263 19.0165C24.0943 18.9473 23.9273 18.855 23.7394 18.8844C23.6337 19.075 23.5866 19.3588 23.7833 19.5071C23.9934 19.6122 24.1913 19.3964 24.4083 19.4304C24.4125 19.5423 24.4645 19.6952 24.3433 19.765C24.1789 19.9248 23.9334 19.9341 23.7233 19.8902C23.258 19.7187 23.1609 18.9977 23.5343 18.6844V18.6844Z" fill="#595959"/>
<path d="M27.7662 18.6473C27.9239 18.6108 28.1551 18.5719 28.1668 18.8033C28.0005 18.8518 27.8285 18.8755 27.656 18.8845C27.6914 18.8046 27.7284 18.7259 27.7662 18.6473V18.6473Z" fill="#141414"/>
<path d="M24.9216 18.8274C25.0267 18.7784 25.1429 18.8136 25.2524 18.8281C25.3335 18.9867 25.3978 19.1703 25.3266 19.3471C25.2623 19.5654 24.9111 19.5704 24.8382 19.3527C24.8128 19.1778 24.7758 18.9595 24.9216 18.8274V18.8274Z" fill="#141414"/>
<path d="M35.9442 20.6567C36.3813 20.5548 36.6984 20.2069 37.036 19.9414C37.648 20.0062 38.2299 20.3006 38.6582 20.7485C39.0329 21.1738 39.2913 21.7312 39.2672 22.3118C39.3024 23.0832 38.9019 23.8249 38.3188 24.2985C37.3334 25.122 35.7754 25.139 34.8029 24.2841C34.2273 23.7952 33.9002 23.0089 33.9943 22.2484C34.0419 21.786 34.2335 21.3488 34.5099 20.9814C34.9903 20.885 35.4657 20.7629 35.9442 20.6567V20.6567Z" fill="#595959"/>
<path d="M7.63943 21.189C7.81934 21.372 7.99554 21.5589 8.17854 21.7388C8.31146 21.8545 8.33248 22.0414 8.39362 22.1992C9.27529 24.7357 10.7973 27.0369 12.7764 28.8223C14.5396 30.4202 16.6583 31.6142 18.9334 32.2634C21.5257 33.0102 24.309 33.0605 26.9241 32.3986C30.6311 31.4858 33.9604 29.1205 36.1087 25.9183C36.2904 25.8969 36.4729 25.8767 36.6564 25.8686C34.4709 29.2827 30.9953 31.8242 27.104 32.8001C26.1687 33.0484 25.2091 33.1964 24.246 33.2611C22.9266 33.3505 21.5974 33.2705 20.2966 33.0309C17.7347 32.5609 15.2951 31.4324 13.2506 29.7949C10.5414 27.6341 8.52964 24.576 7.63943 21.189V21.189Z" fill="#595959"/>
<path d="M32.2032 21.4178C32.2818 21.4085 32.3633 21.3788 32.4438 21.3989C32.9242 21.7965 33.2672 22.3703 33.3439 23.0006C33.535 24.2324 32.6663 25.4648 31.5159 25.8139C30.7393 26.0706 29.8473 25.9649 29.169 25.4944C28.6373 25.1427 28.2435 24.5772 28.1167 23.9424C27.9689 23.3059 28.1149 22.6139 28.4642 22.0702C28.5068 21.9765 28.6181 21.9884 28.7016 21.9721C29.8731 21.8166 31.0391 21.6216 32.2032 21.4178V21.4178ZM16.0184 23.4435C16.2719 22.6414 16.8919 21.9419 17.6895 21.6827C17.7989 22.028 18.0666 22.3055 18.4085 22.4143C19.1602 22.6742 19.9682 22.5698 20.7479 22.5931C21.1311 23.1686 21.3309 23.8934 21.1869 24.5836C20.9841 25.8078 19.8453 26.7715 18.6292 26.7703C17.7445 26.8143 16.8574 26.3633 16.3603 25.6172C15.933 24.991 15.8169 24.1751 16.0184 23.4435V23.4435ZM22.7151 22.5395C24.0141 22.4797 25.313 22.3847 26.6045 22.2249C27.0619 22.6974 27.3556 23.3466 27.329 24.0172C27.3223 24.8061 26.8956 25.5579 26.2663 26.0071C25.6741 26.4374 24.9019 26.6072 24.189 26.4474C23.2648 26.2618 22.4777 25.5139 22.2595 24.5765C22.202 24.1569 22.1964 23.7216 22.3207 23.3133C22.4135 23.0365 22.5606 22.7841 22.7151 22.5395Z" fill="#595959"/>
<path d="M14.6595 23.0669C14.7554 23.018 14.8524 22.9708 14.95 22.9229C14.7306 23.464 14.6687 24.0535 14.6979 24.6334C14.3193 24.1873 13.9659 23.7198 13.6394 23.233C13.9875 23.2475 14.3343 23.1978 14.6595 23.0669Z" fill="#595959"/>
<path d="M11.8793 25.1453C12.3807 24.8276 12.8517 24.4609 13.3568 24.1482C13.4762 24.3262 13.5936 24.5055 13.7018 24.6911C13.2462 24.9931 12.8004 25.3089 12.3448 25.6096C12.1297 25.743 11.8916 25.882 11.6295 25.8494C11.164 25.8337 10.7918 25.3455 10.8635 24.8836C10.9148 24.5999 11.1133 24.3508 11.3717 24.2331C11.4718 24.3948 11.5875 24.5458 11.684 24.71C11.5937 24.8452 11.4045 24.9692 11.4873 25.1568C11.5869 25.3001 11.7619 25.2133 11.8793 25.1453V25.1453Z" fill="#595959"/>
<path d="M13.2784 25.6807C13.475 25.4937 13.6988 25.2692 13.9925 25.3033C14.4394 25.3648 14.8042 25.7656 14.8747 26.2129C14.8976 26.4866 14.7325 26.728 14.5316 26.8923C14.0871 27.2937 13.6759 27.7334 13.216 28.1172C13.101 27.9977 12.9848 27.88 12.8704 27.7605C13.0818 27.4736 13.3674 27.2516 13.6283 27.0131C13.4997 26.852 13.3631 26.6986 13.224 26.5481C12.9458 26.7633 12.7097 27.0282 12.4438 27.2577C12.3233 27.1483 12.2095 27.0319 12.0964 26.9149C12.0939 26.8923 12.089 26.8457 12.0859 26.8224C12.474 26.4318 12.8907 26.0712 13.2784 25.6807V25.6807Z" fill="#595959"/>
<path d="M23.9992 27.4553C25.4124 27.6402 26.8951 26.847 27.5269 25.543C27.9319 26.1003 28.5161 26.5142 29.1652 26.7219C29.1634 26.7351 29.1585 26.7622 29.156 26.7754C26.973 28.1443 24.3331 28.7432 21.7878 28.4116C20.824 28.2883 19.8713 28.0456 18.973 27.6668C20.0166 27.4548 20.9335 26.7282 21.4175 25.7669C21.9523 26.7031 22.9414 27.3466 23.9992 27.4553V27.4553Z" fill="#595959"/>
<path d="M13.8583 25.9185C14.0938 25.9028 14.3652 26.1269 14.2706 26.3828C14.1878 26.4829 14.0858 26.5647 13.9887 26.6501C13.8446 26.5086 13.7049 26.3628 13.5732 26.2091C13.6678 26.1118 13.7628 26.0149 13.8583 25.9185Z" fill="#141414"/>
<path d="M15.4713 26.4634C15.6171 26.5616 15.7557 26.671 15.8966 26.7773C15.7112 27.2183 15.5356 27.6643 15.3347 28.0984C15.3279 28.1392 15.313 28.2203 15.3055 28.2607C15.7 27.9103 16.1136 27.5837 16.5179 27.2452C16.6514 27.3578 16.7893 27.4648 16.9303 27.568C16.228 28.1714 15.5046 28.7494 14.7967 29.347C14.6632 29.2439 14.5284 29.1432 14.3924 29.0438C14.746 28.1808 15.1164 27.3259 15.4713 26.4634V26.4634Z" fill="#595959"/>
<path d="M28.3757 28.3072C28.869 28.0265 29.3482 27.7213 29.8299 27.4214C29.9294 27.5787 30.0246 27.7391 30.1099 27.9057C29.9535 28.0025 29.7896 28.0869 29.6406 28.1952C29.6543 28.2776 29.6982 28.3493 29.7396 28.421C30.0525 28.9501 30.3751 29.4741 30.6775 30.0107C30.6916 30.0208 30.7208 30.0409 30.735 30.0511C30.5778 30.1442 30.4236 30.2426 30.2727 30.3461C29.8591 29.7548 29.5382 29.1018 29.1457 28.496C28.9781 28.5953 28.8143 28.7011 28.6412 28.7904C28.5525 28.6286 28.4629 28.4681 28.3757 28.3072V28.3072Z" fill="#595959"/>
<path d="M17.3018 28.0273C17.8014 27.8775 18.4141 28.1995 18.5383 28.7256C18.5885 29.0036 18.4228 29.2477 18.3083 29.4849C18.074 29.9685 17.8249 30.4435 17.5838 30.9236C17.4218 30.8513 17.2654 30.7676 17.1108 30.6813C17.2661 30.3605 17.4273 30.0434 17.5844 29.7238C17.4014 29.6295 17.2258 29.5155 17.0293 29.4521C16.8839 29.7628 16.7133 30.0611 16.5729 30.3749C16.4042 30.3271 16.2484 30.2448 16.0914 30.1692C16.1031 30.0245 16.1662 29.8937 16.2329 29.7685C16.4469 29.3363 16.6738 28.911 16.8821 28.4757C16.9668 28.2833 17.0942 28.0933 17.3018 28.0273V28.0273Z" fill="#595959"/>
<path d="M17.4403 28.6375C17.4756 28.6235 17.5448 28.5966 17.5794 28.5828C17.7445 28.618 17.9868 28.6929 17.9837 28.9041C17.9436 29.0381 17.8694 29.1582 17.8051 29.2815C17.6221 29.1903 17.4391 29.0992 17.2603 28.9992C17.3178 28.8773 17.3778 28.7567 17.4403 28.6375V28.6375Z" fill="#141414"/>
<path d="M26.4814 28.9917C26.9179 28.869 27.3507 28.5166 27.8187 28.6935C28.2687 28.825 28.5247 29.4019 28.3101 29.829C28.1742 30.1077 27.9027 30.2763 27.6234 30.3757C27.7396 30.6903 27.8669 31.0009 27.9708 31.3206C27.82 31.3879 27.6666 31.4478 27.5176 31.5175C27.4805 31.5188 27.4434 31.52 27.407 31.5219C27.1597 30.8809 26.9241 30.2354 26.6799 29.5931C26.6051 29.3956 26.5111 29.2031 26.4814 28.9917V28.9917Z" fill="#595959"/>
<path d="M19.3519 28.8412C19.6456 28.7525 19.9719 28.8162 20.2262 28.9859C20.4994 29.203 20.5525 29.6018 20.4537 29.9233C20.2924 29.8811 20.1323 29.8352 19.9752 29.7811C19.9585 29.6463 19.9869 29.4565 19.8411 29.3854C19.7526 29.32 19.6408 29.3401 19.54 29.3332C19.5091 29.4093 19.4788 29.4866 19.449 29.5641C19.7266 29.8151 20.1031 29.9868 20.2447 30.3636C20.4017 30.8487 20.0605 31.4167 19.569 31.5124C19.4966 31.5106 19.4255 31.5098 19.3544 31.5098C19.1004 31.4452 18.8159 31.3539 18.6786 31.106C18.5321 30.8658 18.5754 30.5694 18.6143 30.3046C18.7955 30.3443 18.9772 30.3857 19.1515 30.4525C19.1639 30.6305 19.1434 30.8236 19.2752 30.9645C19.3394 30.9645 19.4674 30.9653 19.5311 30.9653C19.6147 30.8469 19.7179 30.7137 19.6981 30.5595C19.5021 30.289 19.1497 30.1821 18.9822 29.885C18.8307 29.5155 18.9792 29.0098 19.3519 28.8412Z" fill="#595959"/>
<path d="M25.4719 29.1634C25.6678 29.1213 25.8638 29.078 26.0623 29.0496C26.2421 29.9341 26.3943 30.8242 26.5786 31.7081C26.4173 31.7471 26.2553 31.7823 26.0914 31.8088C26.0716 31.8214 26.0314 31.8466 26.0116 31.8599C25.9312 31.6383 25.9016 31.4038 25.8546 31.1746C25.7272 30.504 25.5968 29.8347 25.4719 29.1634Z" fill="#595959"/>
<path d="M27.2295 29.3452C27.3897 29.2779 27.5597 29.2293 27.7346 29.2672C27.8032 29.3924 27.8552 29.5402 27.7926 29.6804C27.6882 29.7842 27.5429 29.8252 27.4056 29.8623C27.3457 29.6899 27.2815 29.5194 27.2295 29.3452V29.3452Z" fill="#141414"/>
<path d="M21.1776 29.6422C21.4645 29.1861 22.1915 29.1232 22.5569 29.5176C22.6683 29.6271 22.7196 29.7793 22.7825 29.9197C22.7819 30.0625 22.7813 30.206 22.7788 30.35C22.5951 30.3568 22.4116 30.3393 22.2291 30.3205C22.2273 30.2242 22.2249 30.1278 22.2254 30.033C22.1048 29.8996 21.9193 29.8221 21.7487 29.9021C21.5972 30.0116 21.6238 30.2185 21.5892 30.3821C21.5626 30.6495 21.4983 30.9131 21.5008 31.1842C21.5236 31.2188 21.5706 31.288 21.5935 31.3226C21.7344 31.4069 21.8915 31.388 22.0343 31.3182C22.0739 31.2226 22.1134 31.1276 22.1523 31.0326C22.3336 31.0527 22.5141 31.0817 22.6958 31.1019C22.6952 31.3781 22.6043 31.6906 22.349 31.8297C21.9514 32.0486 21.3791 32.0146 21.0921 31.6252C20.861 31.3668 20.9166 30.9936 20.9747 30.6797C21.0484 30.3354 21.0447 29.9699 21.1776 29.6422V29.6422Z" fill="#595959"/>
<path d="M23.2103 29.3848C23.5571 29.3351 23.9076 29.3099 24.2582 29.3099C24.4369 29.3036 24.5982 29.3904 24.7522 29.4735C25.005 29.7888 25.0514 30.253 24.8603 30.6116C24.7985 30.7367 24.686 30.826 24.6211 30.9487C24.7676 31.2986 24.9914 31.61 25.162 31.9496C24.9636 31.9527 24.7664 31.9717 24.5692 31.9849C24.3478 31.6471 24.1716 31.2797 23.9262 30.9594C23.9293 31.3193 23.9905 31.6753 23.9979 32.0358C23.8106 32.0521 23.6245 32.0785 23.4365 32.0848C23.413 31.8922 23.4069 31.6979 23.3846 31.5054C23.3475 31.0436 23.306 30.5818 23.2652 30.1201C23.2376 29.8754 23.2264 29.6301 23.2103 29.3848V29.3848Z" fill="#595959"/>
<path d="M23.8397 29.8761C24.0314 29.8171 24.2279 29.8516 24.393 29.9642C24.4152 30.0395 24.4387 30.1164 24.4623 30.1925C24.4152 30.2825 24.3787 30.3906 24.2848 30.4423C24.1587 30.48 24.0288 30.5014 23.899 30.5228C23.8564 30.3095 23.8415 30.0931 23.8397 29.8761Z" fill="#141414"/>
</svg>
