<svg width="40" height="14" viewBox="0 0 40 14" fill="none" xmlns="http://www.w3.org/2000/svg">
<path fill-rule="evenodd" clip-rule="evenodd" d="M7.59122 4.82656H9.81463V2.52901C9.81463 1.88775 9.48553 1.56711 8.82667 1.56711H8.57951C7.92065 1.56711 7.59089 1.88775 7.59089 2.52901V4.82656H7.59122ZM7.58602 6.29281L7.59122 8.81992C7.59122 9.46087 7.92065 9.7815 8.57951 9.7815H8.86764C9.52683 9.7815 9.85626 9.46087 9.85626 8.81992V7.57787H11.3798V8.75984C11.3798 10.3826 10.5356 11.2041 8.86764 11.2041H8.53821C6.87024 11.2041 6.02634 10.3826 6.02634 8.94956V2.77945C6.02634 0.966324 6.87024 0.144822 8.53821 0.144822H8.86764C10.5359 0.144822 11.3798 0.966324 11.3798 2.58941L11.3746 6.29312H7.58602V6.29281ZM12.3967 0.264664H13.9616V0.966008C14.332 0.585296 14.9704 0.144506 15.8764 0.144506C17.215 0.144506 17.8738 1.00617 17.8738 2.28838V9.06024C17.8738 10.3425 17.215 11.2041 15.8764 11.2041C14.9707 11.2041 14.3324 10.7836 13.9616 10.4228V13.913H12.3967V0.264664ZM13.9616 9.20063C14.3941 9.56111 14.8885 9.76158 15.4029 9.76158C15.9795 9.76158 16.3089 9.50134 16.3089 8.88V2.46893C16.3089 1.84759 15.9795 1.58704 15.4029 1.58704C14.8881 1.58704 14.3941 1.78751 13.9616 2.1483V9.20063ZM22.535 9.12253V5.5513L21.1454 6.07494C20.5815 6.29565 20.4007 6.57613 20.4007 7.19747V8.84174C20.4007 9.36316 20.6621 9.62372 21.1454 9.62372C21.6085 9.62372 22.0315 9.4634 22.535 9.12253ZM18.8699 7.17787C18.8699 5.83431 19.3128 5.29328 20.481 4.89233L22.535 4.19036V2.38609C22.535 1.74419 22.2127 1.40364 21.5685 1.40364H21.319C20.6745 1.40364 20.3522 1.74451 20.3522 2.38609V3.91937H18.8618V2.44617C18.8618 0.822134 19.6875 0 21.3187 0H21.6081C23.2393 0 24.065 0.822134 24.065 2.44617V10.947H22.5346V10.2653C22.1119 10.6662 21.548 11.0672 20.6618 11.0672C19.4335 11.0672 18.8696 10.3652 18.8696 9.16269V7.17787H18.8699ZM30.3798 11.0672H28.8068V2.25012C28.8068 1.70277 28.5382 1.4596 28.0621 1.4596C27.6273 1.4596 27.1724 1.6215 26.6133 2.00664V11.0672H25.0406V0.121739H26.6133V0.830988C27.0686 0.405376 27.6689 0 28.5382 0C29.345 0 29.8832 0.324427 30.173 0.8917C30.7317 0.425929 31.3938 0 32.3044 0C33.5255 0 34.1463 0.729802 34.1463 1.92569V11.0672H32.5733V2.25012C32.5733 1.70277 32.3044 1.4596 31.8286 1.4596C31.3938 1.4596 30.9385 1.6215 30.3798 2.00664V11.0672ZM3.90244 1.26482V3.25217L1.34634 5.6917L3.90244 8.08759V10.1186L0 6.44459V4.98245L3.90244 1.26482ZM40 4.98245V6.44459L36.0976 10.1186V8.08759L38.6537 5.6917L36.0976 3.25217V1.26482L40 4.98245Z" fill="#595959"/>
</svg>
