<svg width="612" height="708" viewBox="0 0 612 708" fill="none" xmlns="http://www.w3.org/2000/svg">
<g clip-path="url(#clip0_241_342)">
<path d="M291.579 46.9208C280.001 52.8276 268.276 58.4523 256.739 64.4443C247.436 69.2885 238.375 74.5638 229.202 79.6349C226.161 80.434 224.027 82.856 221.336 84.2368C218.799 85.5388 220.841 83.7727 218.789 85.8786C217.284 86.1016 216.563 87.2612 215.464 88.1156C215.122 88.3813 214.666 88.4798 214.339 88.7635C213.216 89.7384 213.135 90.4027 212.546 91.7745C211.226 93.1733 210.793 93.0346 209.965 91.1813C209.074 89.1891 208.217 87.1805 207.442 85.1409C207.172 84.4304 206.836 83.7034 206.834 82.9433C206.832 82.631 207.234 82.4639 207.434 82.2242C211.43 81.4204 215.695 81.6647 219.782 81.6711C223.067 81.2209 226.46 81.9823 229.735 81.663C231.556 81.4856 233.009 80.8261 234.704 80.2048C239.471 80.1327 243.77 78.1036 248.238 76.7992C253.352 75.6409 250.827 76.3102 255.816 74.7947C259.254 73.4291 262.903 72.3359 266.153 70.5274C267.196 69.9466 268.111 69.1562 269.134 68.5388C270.139 67.9315 273.287 66.3427 272.231 66.8568C229.486 87.6575 186.783 108.552 144.063 129.399C517.048 -52.5217 133.802 134.428 148.805 127.017C193.408 104.983 238.329 83.5974 282.962 61.6215C326.3 40.2828 196.107 103.932 152.691 125.106C152.006 125.439 154.078 124.477 154.763 124.143C199.523 102.275 244.272 80.3794 289.023 58.4974C338.576 47.4879 292.083 57.6392 160.327 121.574C159.753 121.852 161.451 120.966 162.031 120.7C164.652 119.501 164.933 119.831 167.165 117.714C167.849 117.468 168.591 117.343 169.219 116.974C169.936 116.553 170.46 115.859 171.14 115.38C172.651 114.318 173.605 114.066 175.191 113.162C177.179 112.028 177.452 111.732 179.248 110.371C181.063 109.27 182.888 108.251 184.711 107.183C185.261 106.861 185.697 106.35 186.276 106.082C190.421 104.164 185.279 107.504 189.022 104.901C233.796 82.8771 278.443 60.6036 323.341 38.8308C324.369 38.3324 326.629 39.4724 327.253 39.9202C331.459 42.9369 333.076 47.9921 334.782 52.605C334.87 54.3322 335.252 56.0696 335.046 57.7866C334.559 61.8284 326.843 70.9369 324.313 74.357C319.46 80.8633 314.757 87.456 309.952 93.9993C306.379 99.5445 302.569 104.905 298.713 110.25C296.543 112.086 294.836 114.389 292.857 116.402C291.074 118.215 289.046 119.821 287.233 121.615C284.605 124.413 282.103 127.477 279.104 129.905C278.458 130.428 277.729 130.838 277.041 131.305C276.345 131.87 275.648 132.435 274.952 133C271.654 135.382 268.632 138.28 265.119 140.363C262.894 141.681 260.502 142.693 258.205 143.88C206.912 175.321 151.658 199.901 95.3601 220.721C82.8 225.851 70.3549 231.366 57.5771 235.937C11.9017 259.681 -46.9686 286.873 175.004 179.113C175.728 178.761 173.627 179.963 172.881 180.265C172.173 180.552 171.407 180.668 170.67 180.869C169.607 181.73 168.086 181.612 166.955 182.309C166.339 182.689 165.898 183.302 165.329 183.749C163.477 185.2 162.458 185.621 160.832 187.491C158.351 189.859 156.671 191.576 155.823 194.955C155.125 196.561 154.879 193.419 155.637 193.54C156.09 193.613 156.439 193.986 156.84 194.209C157.277 194.333 157.698 194.546 158.151 194.583C159.186 194.668 160.217 194.341 161.255 194.337C164.449 194.326 167.663 194.578 170.852 194.723C177.242 194.923 183.633 195.033 190.026 195.067C191.801 195.077 193.579 195.205 195.351 195.104C197.128 195.003 198.885 194.678 200.652 194.465C211.233 193.034 220.727 189.491 229.868 184.095C1.2967 278.458 74.3834 264.411 117.976 237.633C120.652 235.181 124.043 233.664 126.899 231.479C127.646 230.907 131.216 227.592 131.948 226.918C136.902 222.422 141.742 217.798 146.476 213.072C150.333 209.626 153.489 205.477 157.199 201.872C157.662 200.65 158.966 200.139 159.664 199.127C160.02 198.611 160.183 197.986 160.469 197.429C161.358 195.698 162.441 194.195 163.638 192.669C165.738 190.975 166.774 188.221 168.897 186.584C171.751 184.383 168.9 187.554 171.355 184.519C171.764 184.142 172.215 183.806 172.583 183.388C172.985 182.931 173.233 182.35 173.652 181.908C174.884 180.61 176.699 180.233 177.997 179.087C178.573 178.578 178.981 177.905 179.473 177.315C182.185 175.589 185.275 174.386 187.842 172.427C193.59 168.042 185.084 173.829 191.605 169.512C193.862 167.923 195.949 166.002 198.263 164.497C199.15 163.92 200.148 163.529 201.042 162.963C203.049 161.692 204.526 160.324 206.349 158.783C207.331 158.072 208.38 157.446 209.296 156.651C210.333 155.751 211.197 154.669 212.187 153.716C215.679 150.355 219.309 147.144 222.562 143.547C226.599 139.834 230.278 135.69 234.621 132.329C235.345 131.559 236.024 130.743 236.795 130.02C237.474 129.382 238.307 128.918 238.961 128.255C239.599 127.609 240.055 126.804 240.648 126.115C241.218 125.452 241.916 124.9 242.447 124.205C246.464 118.946 241.534 124.223 245.903 119.79C246.489 118.998 246.982 118.129 247.661 117.415C248.275 116.769 249.056 116.306 249.747 115.744C252.412 113.577 255.174 111.531 257.523 109.035C261.08 106.18 263.572 102.299 266.94 99.2612C268.762 96.8226 270.538 94.1874 272.692 92.019C277.211 87.4699 271.447 94.2176 275.597 89.1916C278.358 86.3903 280.838 83.4065 284.464 81.7048C327.167 52.19 287.142 79.7253 421.151 15.7963C421.836 15.4693 422.58 15.2674 423.322 15.1068C424.144 14.9288 425.002 14.9582 425.825 14.7845C427.501 14.4308 429.126 13.8639 430.795 13.4785C436.014 12.7086 441.283 13.003 446.537 12.9485C452.613 12.5046 456.469 17.2271 459.586 21.7799C462.253 26.4428 463.029 31.5687 463.514 36.8151C463.733 41.6088 463.613 46.4375 463.415 51.2352C462.935 56.9164 460.59 62.6179 457.015 67.0644C455.83 68.8393 454.355 70.4264 453.175 72.202C452.768 72.8139 452.573 73.5734 452.07 74.1089C448.464 77.947 453.004 70.6752 449.497 76.9348C447.844 77.924 447.046 79.5701 445.889 80.9064C444.401 82.6243 442.313 84.0213 440.671 85.5988C438.666 86.9847 436.943 88.6686 435.122 90.2595C433.513 91.6653 431.749 92.6665 430.2 94.1545C428.447 95.0145 427.5 96.7311 425.663 97.4622C425.19 97.6508 424.597 97.5003 424.166 97.7732C419.55 100.7 426.265 98.0779 421.057 99.8561C420.557 100.276 420.093 100.742 419.557 101.115C418.179 102.073 416.644 102.789 415.248 103.72C412.37 105.641 409.729 107.688 407.197 110.04C403.683 113.126 401.005 117.011 397.676 120.268C394.744 122.88 396.15 121.552 393.451 124.248C389.679 128.405 385.7 132.35 381.811 136.395C376.626 142.578 371.254 148.617 365.814 154.582C360.344 160.841 354.254 166.548 347.85 171.84C341.67 177.18 335.615 182.661 329.676 188.27C324.181 192.814 319.116 197.959 312.962 201.615C309.587 204.129 305.824 205.944 302.205 208.045C296.81 211.177 303.041 208.008 297.266 210.826C292.089 213.97 287.139 217.483 281.57 219.917C279.493 221.219 278.231 222.086 276.02 223.166C231.329 244.997 186.819 267.2 141.885 288.528C98.8389 308.96 313.667 205.976 270.361 225.854C225.934 246.25 178.894 269.788 133.564 292.456C89.2054 314.872 39.2164 338.88 257.597 231.913C258.361 231.539 256.006 232.527 255.253 232.924C253.435 233.88 251.736 235.048 249.96 236.078C203.382 259.952 230.679 245.981 113.2 303.121C112.244 303.586 111.142 303.692 110.176 304.136C109.204 304.581 108.383 305.313 107.419 305.774C106.169 306.372 102.258 307.638 100.972 308.07C98.7927 308.784 96.9379 310.255 94.7885 311.031C93.682 311.43 92.4841 311.524 91.3637 311.882C88.4247 312.82 85.2532 314.094 82.3578 315.212C81.4422 315.489 80.5162 315.733 79.6109 316.042C78.7732 316.327 77.9831 316.75 77.1321 316.993C73.4545 318.041 69.4429 317.875 65.6621 317.896C61.6536 317.729 57.6665 317.691 53.7626 318.791C52.1503 319.245 50.646 320.025 49.0546 320.548C48.321 320.723 47.5312 320.741 46.8538 321.072C45.716 321.629 43.2137 324.486 44.3537 323.934C88.3025 302.717 132.059 281.089 175.725 259.3C176.18 259.073 174.705 259.119 174.202 259.199C173.714 259.276 173.288 259.573 172.831 259.761C172.415 259.672 171.971 259.666 171.583 259.493C170.493 259.009 170.022 258.191 169.464 257.162C169.261 256.787 168.996 255.704 169.384 255.883C169.853 256.101 170.158 256.571 170.545 256.915C173.255 258.223 175.739 260.055 178.504 261.251C180.183 261.978 181.951 262.487 183.636 263.201C187.641 265.631 192.091 266.226 196.675 265.991C198.78 265.83 200.869 265.491 202.982 265.442C203.581 265.428 204.195 265.571 204.78 265.439C205.361 265.309 205.857 264.931 206.394 264.677C208.527 264.493 210.32 263.391 212.046 262.197C212.684 261.755 213.204 261.137 213.89 260.772C215.35 259.996 217.003 259.649 218.528 259.01C261.322 225.885 46.7609 339.751 90.3093 320.893C136.014 301.101 179.884 277.321 224.708 255.61C225.33 255.309 226.027 255.178 226.639 254.858C231.758 252.188 224.709 255.151 230.457 252.874C276.579 232.277 232.071 252.122 103.491 314.83C102.413 315.356 105.672 313.827 106.751 313.301C110.131 311.653 113.433 309.876 116.835 308.27C122.64 304.759 128.789 301.857 134.467 298.121C138.933 295.697 142.511 292.104 146.879 289.557C147.477 289.002 148 288.355 148.672 287.893C150.084 286.922 151.773 286.427 153.264 285.584C155.641 284.238 157.962 282.725 160.222 281.193C168.816 276.222 157.241 283.064 165.145 277.934C165.902 277.443 166.772 277.142 167.523 276.641C168.224 276.174 168.829 275.577 169.483 275.045C170.104 274.399 170.615 273.624 171.347 273.106C171.93 272.694 172.674 272.582 173.338 272.319C175.327 271.094 177.14 269.59 179.102 268.327C179.746 267.912 180.501 267.664 181.091 267.175C181.874 266.524 182.451 265.656 183.177 264.941C183.862 264.268 184.605 263.658 185.319 263.016C187.628 261.458 189.343 259.161 191.495 257.433C193.707 255.658 196.206 254.185 198.447 252.422C200.045 251.92 201.038 250.472 202.465 249.716C203.116 249.372 203.912 249.362 204.556 249.005C205.266 248.611 205.779 247.926 206.469 247.497C207.025 247.151 207.667 246.963 208.266 246.696C208.895 246.296 209.525 245.896 210.154 245.496C215.086 243.221 219.029 239.502 223.008 235.904C225.861 234.011 228.67 231.964 231.704 230.364C237.048 227.545 231.162 231.321 236.499 227.703C241.029 224.46 245.584 221.311 249.621 217.451C254.168 214.829 257.663 210.889 261.485 207.381C264.858 204.748 267.748 201.536 271.103 198.882C276.839 194.342 270.537 199.966 275.64 195.271C278.751 192.992 281.566 190.282 284.705 188.04C289.441 184.657 285.104 188.356 289.677 184.195C294.519 180.739 298.081 175.968 302.114 171.672C305.065 167.835 307.768 163.825 310.802 160.051C311.251 159.642 311.764 159.295 312.148 158.824C312.559 158.321 312.757 157.666 313.162 157.158C313.457 156.788 313.894 156.554 314.226 156.216C315.386 155.038 316.507 153.942 317.769 152.86C320.633 148.468 323.039 143.676 326.728 139.916C329.863 135.717 333.879 132.197 337.937 128.913C338.776 128.177 339.587 127.409 340.454 126.705C343.351 124.355 342.145 125.711 345.099 123.202C347.425 121.226 349.477 118.936 351.731 116.876C354.283 114.889 357.115 113.203 359.645 111.204C360.273 110.706 360.716 109.979 361.396 109.556C362.034 109.159 362.809 109.049 363.515 108.795C408.894 79.4721 461.125 62.3313 508.67 36.6128C514.028 34.92 519.484 33.133 525.13 32.7158C528.579 32.9746 532.319 32.2704 535.744 32.7349C537.458 32.9672 539.1 33.5718 540.791 33.9329C546.336 36.0094 548.684 38.9417 551.574 43.9461C553.958 48.1847 554.575 52.7621 554.784 57.5224C555.015 63.6671 552.41 69.2416 549.921 74.6933C547.523 79.4064 545.114 84.4235 541.122 87.9953C539.669 90.315 537.491 91.9857 535.676 93.9932C535.172 94.5507 534.786 95.2311 534.191 95.6898C533.634 96.1185 532.924 96.2973 532.29 96.601C529.332 98.0444 527.264 100.797 524.567 102.6C519.068 106.278 525.997 100.494 520.453 105.379C519.748 105.917 518.994 106.395 518.339 106.993C516.162 108.98 514.292 111.369 512.222 113.465C510.932 114.771 509.562 115.924 508.181 117.128C504.449 120.698 500.27 123.724 496.303 127.018C491.54 130.199 487.656 134.529 483.106 138.001C479.114 141.348 475.342 144.844 471.585 148.468C468.269 152.417 463.754 155.106 459.91 158.481C455.088 162.791 449.629 166.311 444.367 170.051C438.19 173.695 432.827 178.497 426.977 182.584C424.94 184.028 423.101 186.344 421.164 187.854C420.59 188.301 419.888 188.554 419.273 188.941C417.27 190.199 417.506 190.153 415.695 191.861C411.797 195.856 407.063 198.853 402.328 201.743C400.755 203.127 400.052 203.933 398.188 204.874C397.471 205.236 396.63 205.329 395.938 205.737C395.185 206.18 394.613 206.88 393.907 207.395C392.536 208.394 391.066 209.25 389.661 210.2C388.328 211.155 386.764 211.734 385.407 212.647C384.78 213.069 384.283 213.672 383.635 214.062C383.012 214.436 382.233 214.513 381.629 214.917C375.271 219.174 384.345 214.318 377.708 217.688C375.756 219.913 372.933 220.908 370.575 222.52C369.659 223.147 368.9 223.981 368.006 224.639C360.231 230.366 370.533 222.169 362.734 228.486C359.45 230.627 356.874 233.655 353.871 236.112C353.476 236.435 349.797 238.886 349.317 239.207C344.639 242.594 340.061 246.141 335.198 249.248C330.738 253.229 325.438 255.94 320.284 258.869C316.923 261.277 313.187 263.181 309.826 265.575C303.839 269.839 310.282 266.104 304.14 269.438C301.621 271.39 298.696 272.702 296.016 274.395C293.501 275.982 291.261 277.606 288.586 278.946C283.385 282.471 277.618 285.1 272.385 288.605C267.616 291.425 262.78 294.156 257.764 296.521C253.731 299.578 249.067 301.78 245.207 305.048C243.375 306.04 241.849 307.356 240.224 308.611C238.624 309.844 237.137 310.419 235.604 311.825C235.136 311.992 234.593 312.023 234.199 312.326C233.673 312.732 233.465 313.462 232.944 313.875C232.151 314.504 231.044 314.582 230.132 315.02C228.767 315.674 228.489 315.927 227.214 316.778L225.737 317.924C225.323 318.448 224.995 319.054 224.495 319.497C224.014 319.921 223.343 320.08 222.843 320.481C221.498 321.557 220.524 323.046 219.191 324.138C218.503 324.701 217.705 325.114 216.962 325.603C211.838 329.32 207.488 333.955 202.808 338.19C198.935 342.171 195.275 346.339 191.543 350.447C190.357 351.393 189.414 354.038 188.318 351.58C187.691 350.174 187.35 348.88 186.907 347.413C186.847 346.857 186.587 346.287 186.727 345.746C187.15 344.105 191.756 344.82 192.771 344.613C193.42 344.482 194.007 344.141 194.625 343.905C195.309 343.612 195.959 343.218 196.678 343.027C205.717 340.628 192.83 344.89 202.391 341.794C205.666 340.734 208.894 339.468 212.153 338.353C280.937 304.366 45.1435 421.161 106.933 389.293C153.883 363.048 92.1436 397.481 243.92 322.202C286.42 301.122 72.9515 404.526 116.001 384.591C161.104 363.708 205.635 341.598 250.078 319.35C292.31 298.211 78.2814 397.393 122.754 381.499C125.063 381.16 126.436 379.25 128.28 378.144C128.895 377.775 129.649 377.694 130.277 377.349C131.811 376.509 132.82 375.48 134.107 374.332C137.155 372.623 139.741 370.029 142.955 368.632C143.721 368.298 144.594 368.19 145.3 367.742C146.196 367.173 146.89 366.334 147.685 365.629C153.772 361.08 159.485 356.078 165.156 351.029C170.227 346.909 175.113 342.562 180.289 338.575C182.221 336.704 184.637 335.305 186.589 333.469C187.115 332.974 187.474 332.321 187.993 331.819C191.283 328.634 188.047 332.604 190.887 328.863C192.249 326.722 194.553 325.662 196.277 323.926C197.048 323.15 198.098 321.876 198.797 321.052C199.911 319.859 200.473 318.225 201.579 317.027C202.339 316.204 204.656 314.615 205.532 313.922C210.323 310.13 205.016 314.073 209.784 310.594C212.483 309.242 214.483 306.937 216.838 305.136C219.093 303.411 221.643 301.94 224.103 300.533C224.804 299.851 225.45 299.109 226.205 298.487C228.599 296.513 231.317 294.865 233.718 292.886C235.534 291.388 237.202 289.719 238.978 288.173C242.705 285.14 245.929 281.429 249.71 278.464C251.523 277.042 253.509 275.853 255.367 274.489C257.53 272.759 259.845 271.193 262.42 270.139C263.074 269.871 263.81 269.81 264.435 269.482C269.601 266.769 262.86 269.258 268.331 267.434C272.754 264.243 277.635 261.719 281.978 258.398C287.21 255.047 292.195 251.331 297.338 247.839C302.834 243.822 308.627 240.257 314.337 236.559C316.773 234.104 319.75 232.523 322.67 230.783C325.414 229.148 327.975 227.184 330.649 225.436C335.811 222.088 340.876 218.715 345.663 214.837C346.478 214.262 347.245 213.612 348.107 213.111C348.917 212.639 349.834 212.377 350.658 211.93C354.673 209.752 351.709 211.083 355.341 208.712C356.516 207.945 357.814 207.385 359.039 206.7C359.705 206.104 360.307 205.427 361.036 204.911C361.742 204.412 362.599 204.158 363.315 203.674C364.968 202.558 365.887 201.253 367.507 200.055C368.889 199.033 370.446 198.272 371.87 197.311C372.652 196.772 373.407 196.193 374.216 195.695C378.275 193.192 375.517 195.267 379.4 192.697C382.036 190.951 384.514 188.96 386.951 186.953C387.775 186.453 388.599 185.953 389.423 185.453C390.266 185.112 391.157 184.871 391.953 184.431C392.776 183.976 393.458 183.3 394.244 182.785C396.437 181.35 398.76 180.047 401.056 178.784C405.026 176.8 408.139 173.565 412.121 171.614C412.764 171.329 413.455 171.134 414.05 170.759C414.726 170.331 415.282 169.738 415.898 169.228C460.783 147.496 505.539 125.488 550.553 104.031C550.707 103.957 555.327 103.696 555.54 103.715C556.417 103.796 557.258 104.102 558.116 104.296C564.854 107.587 566.958 110.163 569.846 117.163C572.319 124.851 570.048 132.505 568.231 140.047C565.163 149.322 561.805 158.495 558.395 167.649C556.453 172.018 554.389 176.476 551.48 180.306C550.693 181.343 547.302 185.145 546.588 185.954C539.254 193.504 532.419 201.483 525.95 209.781C521.665 215.909 516.911 221.679 512.485 227.699C510.816 229.252 509.687 231.24 507.744 232.497C507.101 232.914 506.352 233.15 505.713 233.572C499.481 237.684 508.853 232.235 501.739 236.249C499.811 238.172 497.397 239.303 495.124 240.7C492.565 242.272 490.103 243.962 487.491 245.471C482.272 248.521 477.537 252.314 472.359 255.426C467 258.499 461.711 261.636 456.619 265.142C448.816 270.019 440.48 273.963 432.531 278.585C424.959 283.612 416.892 287.785 408.986 292.234C402.049 296.034 395.229 299.952 388.639 304.334C384.37 307.422 379.577 309.666 375.077 312.379C372.754 313.78 370.519 315.322 368.224 316.769C367.021 317.396 365.774 317.946 364.614 318.65C363.494 319.33 362.49 320.187 361.398 320.911C356.856 323.925 352.283 326.913 347.693 329.856C339.861 334.134 332.743 339.527 324.96 343.881C317.396 348.408 309.703 352.703 301.94 356.879C300.677 357.562 299.441 358.299 298.149 358.928C253.51 380.643 209.183 403.012 164.153 423.91C121.669 443.627 248.391 382.928 290.524 362.469C291.766 361.866 288.063 363.717 286.831 364.34C281.545 367.013 283.826 365.879 278.529 368.451C270.28 373.369 261.589 377.443 253.085 381.88C243.972 386.265 235.034 391 226.159 395.845C220.635 399.217 214.439 401.483 209.39 405.561C204.368 409.34 199.58 413.331 195.073 417.709C191.829 421.675 188.353 425.457 185.258 429.542C184.301 432.196 183.34 436.015 181.525 431.199C181.435 430.91 179.936 428.118 181.142 427.321C182.221 426.607 190.922 427.208 192.386 427.239C201.098 427.217 209.84 427.763 218.522 426.92C219.92 426.527 221.307 426.087 222.718 425.741C224.193 425.38 225.714 425.212 227.175 424.8C233.204 423.096 239.036 420.14 244.418 417.007C290.626 395.325 253.626 412.661 123.817 475.755C122.464 476.413 126.509 474.413 127.853 473.737C131.679 471.813 135.252 469.707 138.857 467.398C145.192 463.401 151.925 459.996 158.124 455.792C158.982 455.207 159.824 454.6 160.698 454.039C162.857 452.655 163.49 452.562 165.401 450.883C167.236 449.27 168.965 447.353 170.679 445.608C178.005 440.549 166.928 448.379 173.753 442.952C174.258 442.55 174.9 442.356 175.439 442C177.161 440.864 178.633 439.361 180.285 438.124C183.447 433.653 187.77 430.273 191.525 426.366C195.568 422.283 198.986 417.583 202.442 412.995C204.07 410.839 206.206 409.155 208.045 407.203C208.59 406.624 209.018 405.938 209.586 405.38C210.865 404.126 212.33 403.078 213.676 401.896C215.288 400.976 216.495 399.494 218.053 398.506C218.747 398.067 219.59 397.9 220.282 397.458C222.528 396.023 224.556 393.867 226.443 392.012C230.513 388.649 234.41 385.149 238.573 381.891C239.123 381.245 239.572 380.496 240.224 379.953C240.817 379.458 241.602 379.246 242.25 378.826C243.295 378.149 245.663 376.232 246.633 375.543C248.153 374.463 249.727 373.462 251.247 372.382C252.945 371.775 254.031 370.283 255.513 369.37C256.186 368.955 256.991 368.788 257.668 368.381C259.532 367.259 261.382 365.683 263.093 364.339C264.583 363.629 265.687 362.354 267.082 361.51C267.921 361.002 268.878 360.71 269.723 360.213C272.712 358.454 275.302 356.065 277.824 353.722C281.797 350.561 285.168 346.681 289.118 343.497C289.814 342.936 293.575 340.373 294.402 339.805C300.009 335.509 306.009 331.76 312.01 328.046C321.384 322.12 329.56 314.535 337.943 307.325C344.44 301.402 351.284 295.765 357.141 289.189C361.512 285.095 365.128 280.2 369.773 276.403C370.316 275.725 370.784 274.979 371.401 274.367C372.285 273.492 374.614 271.944 375.612 271.185C377.902 269.444 380.195 267.718 382.422 265.895C426.287 236.818 486.901 213.489 525.428 194.823C526.493 194.307 527.682 194.093 528.777 193.643C529.77 193.235 530.713 192.715 531.681 192.252C532.671 191.976 533.684 191.772 534.651 191.425C537.465 190.415 536.815 190.089 539.698 189.439C544.622 188.329 539.92 189.84 544.932 189.096C545.705 188.982 546.425 188.632 547.171 188.4C548.171 188.418 554.461 186.556 554.99 186.843C556.757 187.803 558.768 190.742 559.93 192.245C563.016 196.435 564.176 201.509 565.709 206.375C567.632 211.77 568.011 217.047 567.47 222.702C566.474 231.011 562.265 238.523 558.677 245.973C557.185 249.35 555.006 252.41 553.519 255.785C552.155 258.881 553.461 257.151 551.534 259.241C548.483 266.038 552.636 257.203 549.838 262.115C549.469 262.763 549.333 263.531 548.943 264.167C548.661 264.627 548.161 264.92 547.849 265.36C545.495 268.671 547.928 266.203 545.385 268.539C544.929 269.172 544.547 269.866 544.016 270.437C543.5 270.994 542.805 271.36 542.267 271.896C541.617 272.544 541.116 273.332 540.465 273.979C539.826 274.613 539.053 275.1 538.407 275.728C536.985 277.109 535.703 278.628 534.307 280.035C529.779 284.869 524.616 288.978 519.077 292.594C513.966 296.281 508.636 299.699 503.653 303.549C498.713 307.217 493.737 310.846 488.537 314.154C487.756 314.637 486.951 315.081 486.195 315.601C483.674 317.335 481.262 319.238 478.585 320.748C473.771 323.465 478.071 320.363 473.605 323.867C470.121 326.04 466.541 328.144 463.231 330.577C456.403 335.595 465.12 329.9 457.849 334.504C456.951 335.185 456.107 335.944 455.156 336.549C454.279 337.106 453.289 337.464 452.385 337.976C448.698 340.065 445.153 342.464 441.615 344.792C440.741 345.313 439.808 345.745 438.993 346.355C438.156 346.982 437.49 347.815 436.686 348.484C433.211 351.374 429.432 353.893 425.848 356.642C420.431 360.569 414.914 364.341 409.619 368.442C404.798 372.003 399.918 375.461 394.854 378.669C391.404 380.575 388.515 383.369 385.187 385.446C382.672 386.63 383.869 385.971 381.59 387.41C381.038 387.966 380.487 388.523 379.935 389.079C379.311 389.54 378.62 389.922 378.062 390.462C377.315 391.184 376.761 392.086 376.047 392.841C373.962 395.045 371.557 397.022 369.245 398.977C364.198 403.003 358.358 405.751 353.248 409.695C347.955 413.079 343.142 417.143 337.899 420.596C332.179 424.672 326.241 428.303 319.95 431.443C314.438 434.506 308.801 437.333 303.546 440.85C125.415 527.559 125.884 527.361 297.494 443.719C298.525 443.216 295.432 444.721 294.402 445.225C293.454 445.689 292.478 446.099 291.563 446.623C282.648 451.718 295.815 444.816 285.848 449.935C278.853 453.388 272.076 457.26 265.112 460.765C219.296 485.759 170.295 507.412 124.364 529.713C120.081 531.792 120.764 531.011 116.218 532.762C114.75 533.328 113.332 534.016 111.889 534.642C110.414 535.315 108.973 536.067 107.463 536.659C104.283 537.907 100.966 538.771 97.7448 539.909C92.9933 541.589 88.2712 543.373 83.5813 545.216C79.9454 547.419 75.7418 548.458 71.9427 550.277C70.9034 550.775 67.9352 552.547 68.9727 552.046C112.052 531.254 240.102 466.76 197.998 489.392C154.2 512.94 108.614 532.992 63.9214 554.788C107.238 533.644 150.556 512.493 193.87 491.349C193.297 491.697 192.768 492.134 192.15 492.394C191.291 492.755 189.869 492.701 189.024 493.129C188.073 493.61 187.32 494.416 186.399 494.951C185.942 495.198 183.802 496.328 183.421 496.639C182.936 497.037 182.646 497.646 182.146 498.025C181.759 498.319 181.201 498.324 180.814 498.617C178.604 500.29 180.786 499.557 178.981 500.033C177.191 495.412 177.832 496.986 175.169 490.714C174.602 489.378 173.745 488.137 173.439 486.718C173.258 485.881 176.953 485.927 177.295 485.915C182.988 486.067 188.682 486.181 194.378 486.183C199.162 485.951 204.043 486.853 208.791 485.974C211.584 485.457 214.282 484.512 217.034 483.806C227.182 481.378 236.898 477.677 246.714 474.204C257.49 469.961 268.242 465.657 279.017 461.414C281.392 460.519 286.404 458.684 288.728 457.594C290.279 456.866 294.812 454.436 293.27 455.184C79.86 558.564 133.467 534.414 177.008 511.373C185.053 506.899 192.766 501.862 200.678 497.164C209.931 491.414 219.284 485.829 228.509 480.036C229.919 479.035 231.299 477.991 232.738 477.034C234.061 476.154 235.47 475.411 236.79 474.528C242.109 470.97 247.161 466.991 252.181 463.03C258.612 458.093 264.842 452.899 270.977 447.6C277.167 443.156 283.765 439.277 290.175 435.144C297.032 429.98 303.851 424.77 310.548 419.404C314.593 416.168 318.996 413.415 323.175 410.374C325.354 408.788 327.407 407.034 329.566 405.421C335.858 399.979 341.956 394.332 348.332 388.985C353.803 384.422 359.316 379.927 364.937 375.541C366.812 374.317 368.263 372.588 370.011 371.215C371.043 370.403 372.2 369.761 373.231 368.947C376.785 366.142 380.077 362.965 383.6 360.109C390.323 354.823 396.841 349.274 403.941 344.499C404.838 343.855 405.642 343.055 406.633 342.567C451.203 320.607 495.922 298.954 540.578 277.175C541.49 276.73 544.252 275.451 543.34 275.896C500.329 296.894 457.321 317.9 414.279 338.834C413.553 339.187 415.658 337.995 416.384 337.642C461.153 315.893 505.966 294.235 550.753 272.531C551.25 272.263 553.98 270.643 554.715 270.834C559.452 272.065 562.754 279.35 564.002 283.465C564.465 284.99 564.542 286.606 564.812 288.176C564.864 289.967 565.05 291.759 564.969 293.549C564.883 295.448 564.565 297.331 564.31 299.215C563.291 306.742 561.643 314.11 559.88 321.49C558.088 326.666 556.199 331.894 553.499 336.685C550.733 341.592 547.094 345.939 543.466 350.209C533.267 362.057 521.553 372.451 509.922 382.851C498.634 393.099 487.218 403.201 475.653 413.137C465.588 421.921 455.097 430.213 444.265 438.028C431.775 446.519 418.67 454.02 405.74 461.805C357.338 492.064 303.599 513.78 252.588 538.396C250.101 539.596 247.468 540.465 244.932 541.556C242.32 542.679 239.74 543.876 237.143 545.037C242.285 542.406 216.27 555.192 221.489 552.653C260.731 533.558 378.344 476.047 339.194 495.33C295.078 517.056 250.821 538.49 206.591 559.988C204.294 561.105 197.328 564.293 199.624 563.174C239.931 543.525 280.291 523.989 320.628 504.397C279.19 491.286 224.602 553.896 176.977 574.239C171.47 576.591 165.775 578.418 160.24 580.707C155.176 583.112 150.066 585.375 145.082 587.944C143.631 588.692 139.269 590.92 140.737 590.206C255.554 534.385 308.568 507.94 262.996 530.664C261.965 531.165 260.935 531.666 259.905 532.166C258.978 532.729 258.09 533.364 257.123 533.854C256.244 534.299 255.27 534.531 254.384 534.963C251.413 536.412 248.562 538.266 245.677 539.881C244.815 540.406 243.996 541.006 243.093 541.455C242.256 541.869 241.321 542.057 240.479 542.46C238.526 543.396 238.02 544.14 236.068 545.112C231.672 547.301 235.63 544.531 231.557 547.721C229.999 548.377 225.812 552.135 224.149 551.519C223.754 551.373 223.438 551.003 223.261 550.621C222.376 548.709 221.755 546.686 221.002 544.718C220.837 544.318 217.094 538.707 218.801 536.422C219.226 535.853 220.021 535.695 220.628 535.327C223.664 533.488 226.848 532.156 230.075 530.672C234.902 529.488 239.333 527.279 243.878 525.363C248.995 523.206 254.248 521.363 259.387 519.253C255.737 521.812 272.163 513.416 269.002 514.945C226.892 535.307 184.808 555.713 142.726 576.132C141.098 576.921 146.007 574.605 147.643 573.83C149.63 572.89 151.617 571.95 153.593 570.986C198.094 549.283 242.581 527.549 287.076 505.831C294.297 503.331 301.043 499.685 308.249 497.133C311.428 496.006 314.707 495.186 317.932 494.199C322.981 493.11 327.738 491.033 332.69 489.624C334.302 489.165 335.97 488.916 337.578 488.443C337.633 488.427 346.611 485.27 346.663 485.251C352.638 483.393 350.129 484.452 355.671 481.625C357.129 480.881 361.505 478.649 360.032 479.364C145.105 583.624 205.926 555.068 250.596 532.479C263.109 526.375 274.872 518.894 286.815 511.769C296.757 505.973 306.224 499.406 316.106 493.522C365.479 462.131 419.706 439.421 472.638 414.592C317.249 490.332 291.553 502.818 481.574 410.351C484.361 408.995 487.078 407.491 489.915 406.242C492.53 405.09 495.244 404.174 497.896 403.108C505.203 400.765 511.976 397.075 519.271 394.735C521.613 394.338 524.689 393 527.017 394.377C531.633 397.106 533.301 402.556 534.905 407.255C535.023 408.791 535.34 410.324 535.257 411.863C535.076 415.248 534.271 416.218 532.782 419.07C530.281 423.861 527.66 427.154 524.371 431.43C513.927 442.677 501.457 451.905 489.104 460.938C473.73 471.833 457.653 481.688 441.258 490.957C426.498 498.654 412.289 507.352 397.542 515.064C353.227 536.614 308.95 558.236 264.595 579.714C262.075 580.934 259.47 581.971 256.933 583.155C254.371 584.35 246.757 588.086 249.298 586.849C288.809 567.624 407.415 510.111 367.84 529.192C224.144 598.475 280.758 574.449 227.796 596.788C212.401 603.67 196.482 609.263 180.968 615.845C173.581 618.874 166.055 621.562 158.835 624.991C156.505 626.097 154.264 627.385 151.936 628.496C149.543 629.637 147.096 630.66 144.676 631.742C142.266 632.897 139.856 634.051 137.446 635.205C354.477 535.997 273.392 565.089 228.795 592.513C226.904 592.359 225.713 595.162 223.819 595.281C222.197 595.384 219.533 587.364 219.524 587.336C219.314 586.704 219.349 586.016 219.262 585.356C219.741 585.229 220.205 585.015 220.7 584.976C224.11 584.707 227.66 585.453 231.071 585.479C236.202 585.518 235.908 585.322 241.118 584.434C254.89 582.45 267.731 577.384 280.377 571.826C327.091 548.261 278.738 572.697 171.125 624.844C168.354 626.186 176.626 622.076 179.347 620.635C187.309 616.418 194.981 611.785 202.62 607.018C215.919 598.377 229.173 589.669 242.746 581.464C258.868 572.606 274.908 563.602 290.894 554.501C302.311 547.947 313.689 541.336 325.333 535.192C335.986 529.707 346.561 524.087 357.18 518.535C405.328 487.64 451.535 469.52 501.132 449.636C506.346 447.545 510.138 446.122 515.637 444.898C521.414 442.865 527.338 441.195 532.967 438.757C546.449 432.92 528.156 440.337 542.16 434.748C550.657 431.693 558.87 427.936 567.61 425.63C570.662 425.103 573.988 423.578 576.861 425.716C581.447 429.129 583.042 434.558 584.431 439.767C584.566 441.653 584.931 443.537 584.834 445.425C584.209 457.59 574.68 471.45 568.272 481.287C555.518 499.243 539.535 514.541 522.509 528.38C508.664 538.613 493.969 547.95 478.478 555.522C434.357 577.091 390.143 598.467 345.971 619.938C328.109 627.78 309.631 634.101 291.384 640.973C281.051 645.593 270.372 649.422 260.11 654.198C248.271 659.709 259.26 655.064 247.697 659.782C235.186 664.8 222.727 669.947 210.174 674.862C204.935 677.51 199.475 679.613 194.203 682.187C192.837 682.854 188.754 684.881 190.121 684.217C316.793 622.761 359.014 600.617 314.762 623.793C313.94 624.207 313.118 624.62 312.296 625.033C311.527 625.365 310.743 625.662 309.991 626.029C265.244 647.842 220.519 669.706 175.797 691.571C175.04 691.941 172.796 693.104 173.553 692.734C216.898 671.576 346.999 608.232 303.561 629.206C258.691 650.87 214.022 672.942 169.25 694.811C311.237 625.553 318.583 675.719 292.754 613.44C292.344 612.451 291.466 611.478 291.653 610.425C291.766 609.783 292.837 609.883 293.431 609.617C294.428 609.17 295.426 608.73 296.424 608.286C341.202 585.032 293.287 609.954 176.534 666.794C174.292 667.886 180.971 664.52 183.15 663.309C190.625 659.158 197.777 654.47 204.966 649.852C216.485 642.25 228.274 635.059 240.406 628.477C247.968 624.045 255.777 620.052 263.361 615.662C270.668 610.341 278.263 605.459 286.233 601.196C333.477 573.683 291.634 597.906 424.297 533.175C425.794 532.445 432.712 529.512 434.16 528.974C437.845 527.606 441.602 526.436 445.294 525.085C447.202 524.383 449.141 523.761 451.017 522.979C452.93 522.182 454.756 521.189 456.653 520.352C460.118 518.824 464.428 517.239 467.848 515.583C469.528 514.769 474.459 512.116 472.779 512.93C431.226 533.055 389.744 553.323 348.219 573.519C356.484 569.45 364.717 565.255 372.383 560.127C378.652 556.258 384.701 552.053 390.476 547.483C391.098 547.083 397.227 543.73 397.267 543.761C397.715 544.115 397.458 544.898 397.684 545.422C400.288 551.454 403.06 557.412 405.749 563.407C406.478 564.484 398.853 567.333 400.635 566.459C440.823 546.73 481.104 527.192 521.288 507.463C524.614 505.83 514.551 510.552 511.216 512.168C366.721 582.194 423.65 555.794 367.718 581.652C325.323 601.982 256.545 635.146 450.871 541.062C454.209 539.446 444.257 544.42 440.962 546.121C438.6 547.34 427.768 553.034 425.16 554.403C381.02 575.86 336.905 597.373 292.74 618.773C285.639 622.214 278.41 625.392 271.307 628.834C269.096 629.905 262.444 633.081 264.653 632.005C304.935 612.383 345.232 592.799 385.526 573.197C132.212 696.731 281.251 624.032 374.901 578.429C376.497 577.652 371.717 579.995 370.131 580.791C369.145 581.286 368.183 581.829 367.187 582.302C366.442 582.656 365.591 582.804 364.911 583.271C363.95 583.931 363.192 584.847 362.333 585.635C357.442 590.771 351.334 594.437 345.556 598.453C337.782 603.856 344.327 599.562 336.647 604.482C331.889 607.913 326.734 610.699 321.718 613.702C315.965 617.147 321.741 614.127 316.689 616.67L175.347 660.941C182.748 656.255 173.245 662.067 181.645 657.641C182.937 656.96 184.101 656.055 185.381 655.352C189.69 652.986 194.361 651.271 198.408 648.421C201.458 646.514 204.658 644.853 207.697 642.927C209.261 641.936 210.694 640.75 212.223 639.706C215.651 637.365 219.243 635.269 222.62 632.854C226.203 629.518 224.434 631.449 227.776 626.927C229.767 624.95 234.695 621.869 237.088 620.692C281.412 598.888 325.872 577.365 370.256 555.684C410.798 535.881 289.163 595.27 248.613 615.062C292.953 593.482 337.279 571.87 381.634 550.323C388.132 547.166 394.772 544.299 401.356 541.329C403.668 540.286 410.559 537.063 408.282 538.18C369.329 557.303 330.306 576.292 291.325 595.348C301.661 590.591 311.847 585.526 322.075 580.539C374.271 555.087 426.459 529.614 478.622 504.087C530.915 478.058 474.341 506.264 378.035 552.914C375.521 554.132 382.962 550.275 385.47 549.044C430.218 527.076 475.03 505.233 519.803 483.317C521.661 482.408 523.444 481.335 525.365 480.568C526.941 479.94 528.624 479.621 530.253 479.147C533.743 484.899 537.671 490.406 540.722 496.402C541.105 497.154 540.719 498.164 540.306 498.901C539.77 499.859 537.385 500.489 536.616 500.903C535.871 501.303 535.203 501.833 534.497 502.298C533.668 502.704 532.84 503.109 532.011 503.515C524.434 506.29 518.102 511.347 511.466 515.83C507.47 518.285 503.793 521.099 499.852 523.637C493.221 527.907 498.533 524.512 491.614 528.352C490.171 529.153 488.771 530.03 487.35 530.869C433.545 557.08 382.144 585.922 326.47 606.763C320.907 608.999 315.528 611.453 310.146 614.097C308.509 614.901 303.613 617.341 305.251 616.54C434.84 553.111 471.226 535.784 425.288 557.684C417.902 562.201 409.933 565.702 402.824 570.704C400.118 572.901 398.854 574.044 395.925 575.954C390.256 579.65 384.009 582.425 378.081 585.655C372.116 588.972 365.966 591.867 359.959 595.102C355.127 597.703 351.15 600.095 346.409 602.876C344.029 604.273 341.649 605.669 339.27 607.066C335.741 609.337 328.999 613.631 325.486 616.058C325.06 616.352 315.502 623.351 314.525 623.841C270.086 646.111 225.412 667.905 180.815 689.864C179.231 690.644 177.599 691.324 175.991 692.054C174.531 692.713 173.08 693.392 171.611 694.031C170.448 694.538 169.361 695.569 168.094 695.489C166.651 695.399 164.97 694.794 164.206 693.567C160.884 688.229 158.466 682.348 156.255 676.463C156.061 675.947 156.949 675.607 157.296 675.179C201.994 653.322 246.695 631.464 291.394 609.607C248.037 630.816 118.41 695.326 161.321 673.233C205.597 650.438 250.749 629.382 295.485 607.502C337.942 586.736 210.661 649.214 168.161 669.896C166.379 670.764 175.185 665.681 173.384 667.056C225.225 643.006 274.616 613.473 328.238 593.58C340.838 588.584 353.316 583.287 365.804 578.02C379.363 572.037 393.35 567.034 407.145 561.632C424.913 555.177 442.767 548.854 459.793 540.574C421.762 559.195 383.744 577.843 345.702 596.437C342.659 597.925 351.76 593.409 354.79 591.896C367.218 585.691 379.513 579.148 391.067 571.401C407.969 559.467 424.21 546.182 436.672 529.502C440.501 523.497 444.4 517.561 447.074 510.923C447.647 509.5 448.037 508.01 448.532 506.559C448.928 505.395 449.54 503.692 449.993 502.424C449.895 502.176 449.639 501.418 449.701 501.678C449.868 502.378 450.837 505.155 450.776 505.786C450.643 507.147 448.64 507.356 447.865 507.622C447.061 507.899 446.262 508.19 445.46 508.474C437.849 511.344 430.187 514.089 422.681 517.231C413.548 521.021 404.099 523.998 394.627 526.818C345.814 546.476 276.482 580.718 494.825 476.384C484.08 481.393 473.697 487.096 463.278 492.736C450.457 499.109 437.66 505.519 425.214 512.607C409.428 521.325 393.662 530.075 378.059 539.118C363.703 546.892 350.074 555.885 336.212 564.494C335.712 564.822 321.47 574.159 320.978 574.467C318.405 576.076 307.906 582.301 305.162 583.655C178.652 646.042 217.119 629.372 163.996 652.166C157.529 654.609 155.023 655.723 148.451 657.572C139.122 660.196 129.503 661.668 119.911 662.915C112.386 663.103 100.51 663.694 93.3458 661.301C92.0409 660.865 90.8504 660.142 89.6027 659.562C88.3356 658.322 86.8123 657.297 85.8015 655.841C83.2002 652.092 79.5263 645.307 82.8325 640.643C83.9696 639.038 88.5788 636.673 89.9864 635.867C95.6923 632.869 101.23 629.594 106.912 626.554C154.924 600.864 204.545 578.118 253.416 554.271C267.916 547.585 282.492 541.137 297.449 535.517C313.215 529.501 328.775 522.995 344.115 515.958C346.57 514.808 353.916 511.315 351.481 512.507C311.791 531.941 192.441 589.662 232.353 570.683C276.776 549.557 320.777 527.553 365.022 506.068C367.481 504.874 369.998 503.801 372.476 502.646C375.12 501.414 383.006 497.623 380.387 498.906C341.087 518.141 301.75 537.305 262.439 556.506C266.869 554.412 272.644 551.743 276.968 549.457C287.346 543.969 297.243 537.591 307.73 532.3C324.164 524.108 339.931 514.719 355.077 504.33C359.24 501.474 364.064 498.26 368.068 495.152C374.555 490.117 380.688 484.594 387.012 479.362C392.306 474.438 388.255 478.553 392.441 473.403C393.061 472.64 393.84 472.01 394.41 471.209C395.042 470.323 395.362 468.234 396.986 468.205C397.447 468.197 397.798 468.641 398.204 468.859C399.268 470.568 401.796 473.928 401.492 475.993C401.264 477.535 397.878 477.772 397.016 478.576C390.476 481.432 383.663 483.619 377.199 486.669C373.498 488.313 369.898 490.139 366.221 491.835C364.813 492.484 360.602 494.454 361.994 493.773C364.847 492.378 706.914 325.437 353.433 497.955C310.097 519.142 276.923 535.364 473.214 439.145C474.798 438.368 470.065 440.738 468.496 441.548C463.497 444.128 458.623 446.91 453.931 450.023C436.832 460.573 461.456 445.486 444.24 455.685C437.351 459.767 430.97 464.681 423.896 468.469C411.612 476.099 398.902 483.032 386.613 490.654C384.519 491.728 382.405 492.767 380.329 493.877C378.465 494.875 376.695 496.047 374.797 496.977C330.235 518.813 285.64 540.576 240.962 562.171C239.241 563.003 237.427 563.634 235.617 564.25C232.513 565.306 229.228 565.797 226.219 567.164C216.737 570.039 207.177 572.689 197.856 576.071C188.182 579.704 178.661 583.834 169.345 588.291C210.056 568.417 250.738 548.483 291.478 528.669C293.074 527.892 288.345 530.337 286.78 531.174C285.458 531.881 284.165 532.646 282.817 533.301C238.222 554.987 193.645 576.713 148.953 598.197C146.235 599.503 143.044 599.652 140.464 601.327C130.272 605.393 120.104 609.543 110.021 613.861C105.728 615.575 94.6081 620.835 90.3214 616.894C88.2179 614.96 86.8214 612.377 85.0714 610.118C84.0998 607.632 82.7946 605.251 82.1566 602.659C81.0374 598.111 87.0002 594.688 90.0349 592.723C95.4942 590.023 89.2281 593.447 94.3577 589.503C95.8214 588.378 97.664 587.836 99.1893 586.796C100.07 586.195 100.782 585.354 101.706 584.822C102.638 584.284 103.702 584.019 104.7 583.618C107.554 582.144 110.577 580.77 113.29 579.044C114.253 578.431 115.065 577.585 116.069 577.039C117.116 576.47 118.285 576.164 119.393 575.727C120.546 575.058 121.698 574.39 122.851 573.721C174.298 547.595 225.322 520.239 278.936 498.838C328.442 479.227 399.508 430.348 183.489 546.348C227.753 524.836 272.008 503.307 316.282 481.812C318.48 480.745 325.095 477.588 322.9 478.661C283.355 498.002 164.498 555.567 204.234 536.614C248.622 515.441 292.636 493.497 336.866 471.999C340.988 469.996 348.551 466.601 352.675 464.731C397.346 444.723 457.954 413.326 250.109 515.223C247.801 516.354 254.806 513.135 257.131 512.038C265.177 508.24 263.02 509.274 270.647 504.54C274.986 501.836 279.298 499.085 283.666 496.426C289.769 492.712 296.07 489.302 302.125 485.511C304.049 484.307 305.904 482.998 307.794 481.742C319.212 474.835 329.657 466.595 340.163 458.392C352.133 448.125 364.638 438.5 376.297 427.865C386.828 418.239 397.7 408.878 407.106 398.119C409.334 395.52 411.731 393.069 413.943 390.457C414.999 389.21 415.88 387.823 416.927 386.569C417.902 385.402 419.107 384.43 420.003 383.201C420.836 382.061 424.01 376.142 424.71 374.858C428.264 366.933 430.554 358.599 430.24 349.83C430.089 349.431 429.726 348.213 429.786 348.635C430.06 350.578 432.658 354.156 431.866 355.878C431.652 356.343 428.616 357.366 428.361 357.461C471.751 336.366 515.165 315.314 558.53 294.177C559.341 293.782 556.849 294.839 556.038 295.235C511.325 317.024 466.653 338.897 421.961 360.729C378.528 381.946 321.441 410.824 547.768 299.285C548.803 298.775 545.572 299.99 544.474 300.343C531.13 307.226 551.945 296.455 537.566 304.019C536.262 304.705 534.887 305.261 533.622 306.018C529.526 308.47 526.083 311.847 522.042 314.38C518.896 316.893 515.481 319.287 512.624 322.137C511.751 323.007 511.088 324.078 510.181 324.912C508.491 326.467 506.218 327.319 504.791 329.205C503.893 329.979 502.994 330.754 502.095 331.529C501.165 332.24 500.202 332.911 499.304 333.662C498.364 334.449 497.554 335.386 496.587 336.139C495.662 336.859 494.566 337.34 493.646 338.066C484.345 345.411 497.534 336.021 487.71 342.851C486.822 343.556 482.118 347.303 481.225 347.972C480.144 348.781 478.961 349.455 477.926 350.321C474.709 353.015 472.173 356.527 468.512 358.71C463.122 364.459 456.972 369.382 450.453 373.806C443.164 378.839 436.13 384.167 429.106 389.569C423.673 394.543 417.716 399.205 411.126 402.528C407.028 404.66 405.107 406.399 401.454 409.09C400.284 409.952 398.995 410.649 397.846 411.54C395.431 413.412 393.398 415.747 390.863 417.478C385.633 421.492 380.367 425.49 375.192 429.572C373.835 430.642 372.63 431.905 371.216 432.899C369.847 433.863 368.322 434.584 366.874 435.427C364.161 437.487 361.24 439.799 358.348 441.611C356.809 442.575 355.161 443.356 353.605 444.293C348.716 447.236 343.912 450.325 338.994 453.226C331.463 458.32 323.689 463.051 316.027 467.948C266.438 497.925 213.878 523.415 159.567 543.608C148.71 547.776 137.888 552.053 126.916 555.909C116.682 559.299 106.286 562.238 95.6676 564.165C93.9093 564.417 92.1617 564.76 90.3928 564.922C83.5595 565.55 76.6354 564.916 69.7894 565.307C63.4999 565.337 57.2138 565.557 50.9235 565.502C49.0009 565.331 45.8074 565.311 44.2519 563.915C39.6909 559.822 37.0161 553.989 36.3691 547.963C38.9134 544.347 35.5766 548.636 38.6766 545.964C39.1631 545.545 39.3565 544.846 39.8527 544.438C40.2884 544.08 40.9384 544.071 41.3908 543.734C42.356 543.016 42.8476 541.777 43.861 541.103C44.2892 540.74 44.6846 540.334 45.1458 540.014C45.6026 539.696 46.1849 539.567 46.602 539.199C48.4197 537.594 47.3362 537.436 49.4984 536.06C50.1322 535.656 50.8959 535.507 51.5947 535.231C96.3059 513.363 141.016 491.495 185.73 469.627C-101.683 609.892 130.416 496.536 190.43 467.597C191.285 467.185 192.268 467.114 193.161 466.795C196.756 465.509 200.162 463.675 203.894 462.762C213.295 459.472 222.592 455.956 231.625 451.747C237.419 449.311 235.122 450.394 240.597 447.643C241.914 446.981 245.867 444.995 244.541 445.64C28.5292 550.824 80.2082 524.57 125.245 504.013C136.456 497.855 121.46 505.992 132.344 500.398C136.581 498.22 140.506 495.458 144.873 493.515C145.821 493.007 146.768 492.499 147.716 491.991C148.705 491.59 149.741 491.288 150.684 490.789C157.514 487.169 149.566 490.573 156.497 487.172C205.139 463.307 457.861 340.075 162.353 484.21C163.364 483.859 164.411 483.601 165.385 483.158C166.964 482.44 169.211 480.83 170.721 479.968C171.619 479.455 172.588 479.069 173.473 478.533C179.444 474.914 172.804 478.245 179.293 475.193C181.455 473.908 183.197 472.792 185.485 471.747C186.502 471.283 187.608 471.019 188.605 470.512C189.601 470.006 190.447 469.238 191.438 468.722C197.773 465.426 191.156 469.741 196.942 465.734C202.213 462.241 207.806 459.207 212.646 455.085C215.452 453.327 218.038 451.311 220.679 449.316C221.546 448.661 222.282 447.83 223.202 447.252C224.033 446.73 225.026 446.515 225.888 446.043C226.755 445.568 227.543 444.962 228.371 444.422C230.833 443.086 233.028 441.623 235.351 440.08C236.004 439.647 236.803 439.421 237.376 438.887C238 438.307 238.368 437.503 238.864 436.811C239.438 436.324 240.013 435.837 240.587 435.35C241.186 434.581 243.572 431.458 244.212 430.896C244.938 430.259 245.865 429.893 246.661 429.347C249.209 427.6 251.723 425.783 254.167 423.894C258.984 420.417 264.11 417.418 268.939 413.961C274.688 410.283 279.887 405.854 285.657 402.226C289.239 399.768 292.599 397.023 296.156 394.535C297.003 393.943 297.997 393.562 298.788 392.898C299.673 392.157 300.357 391.204 301.141 390.357C304.559 387.707 308.07 385.242 311.595 382.744C312.503 382.099 313.298 381.288 314.264 380.734C315.198 380.199 316.254 379.912 317.248 379.501C318.139 378.892 319.029 378.282 319.92 377.672C320.853 377.223 321.849 376.889 322.718 376.327C323.603 375.755 324.299 374.93 325.141 374.297C327.577 372.463 330.172 370.823 332.534 368.88C338.548 365.754 331.739 369.595 337.451 365.341C340.628 362.974 344.643 361.866 347.606 359.188C350.16 357.485 352.872 356.048 355.393 354.301C356.22 353.729 356.963 353.036 357.811 352.495C365.306 347.71 355.629 354.594 363.05 349.18C370.361 344.369 360.413 351.081 367.831 345.497C371.386 342.821 375.421 340.752 378.807 337.83C379.716 337.165 380.626 336.499 381.535 335.833C382.439 335.335 383.393 334.918 384.246 334.337C385.118 333.743 385.796 332.888 386.687 332.324C387.526 331.794 388.552 331.61 389.392 331.082C390.999 330.071 392.121 328.381 393.943 327.655C395.306 326.458 396.808 325.409 398.067 324.103C398.686 323.461 399.098 322.637 399.721 321.999C400.235 321.473 400.945 321.164 401.455 320.634C401.972 320.096 402.242 319.349 402.774 318.826C403.192 318.414 403.762 318.191 404.256 317.874C407.899 312.878 403.118 318.948 406.802 315.538C407.242 315.13 407.376 314.457 407.821 314.055C408.174 313.734 408.78 313.783 409.116 313.444C409.556 312.999 409.649 312.299 410.04 311.81C410.401 311.359 410.906 311.046 411.339 310.664C413.412 306.304 411.032 310.452 413.989 307.347C414.984 306.302 416.276 303.815 417.025 302.708C417.626 301.818 418.307 300.985 418.947 300.124C419.622 299.097 420.297 298.07 420.971 297.043C422.629 294.751 423.824 293.249 425.187 290.759C427.119 287.23 428.362 283.352 430.543 279.948C431.183 276.374 431.729 273.464 430.609 269.896C430.466 269.456 427.166 260.423 428.643 265.842C428.776 266.439 428.882 267.043 429.042 267.634C429.233 268.337 429.815 269.002 429.696 269.721C429.637 270.079 429.007 269.959 428.649 270.022C426.898 270.332 425.158 270.624 423.443 271.17C420.345 271.723 419.79 272.354 417.091 273.677C412.831 275.765 417.351 273.353 412.581 275.43C411.751 275.791 410.977 276.268 410.176 276.688C408.315 277.432 402.92 280.092 404.721 279.214C447.258 258.471 489.816 237.773 532.295 216.903C533.322 216.399 530.115 217.624 529.08 218.113C528.115 218.569 527.238 219.19 526.318 219.729C525.441 220.143 524.565 220.557 523.689 220.971C522.878 221.34 522.024 221.627 521.256 222.079C517.619 224.217 514.672 227.543 510.632 228.953C506.518 233.038 510.828 229.007 506.301 232.519C502.692 235.32 499.307 238.531 496.15 241.814C495.1 242.716 493.998 243.56 493.002 244.521C490.804 246.64 488.946 249.092 486.749 251.212C483.063 254.769 478.832 257.76 475.342 261.533C467.201 268.413 458.954 275.196 451.471 282.807C446.363 287.146 440.802 290.881 435.043 294.306C433.52 295.422 431.085 297.259 429.468 298.225C428.437 298.841 427.313 299.293 426.282 299.908C423.057 301.832 420.089 304.194 417.403 306.809C414.912 308.96 412.723 311.275 410.571 313.766C409.943 314.493 409.483 315.37 408.773 316.017C407.627 317.06 405.884 317.308 404.919 318.62C400.818 321.098 405.239 318.324 401.196 321.194C400.536 321.662 399.782 321.996 399.158 322.51C398.455 323.089 397.977 323.921 397.239 324.454C395.773 325.513 393.73 325.64 392.58 327.231C385.086 331.745 395.396 325.459 388.052 330.183C386.032 331.483 385.763 331.32 383.911 332.808C383.282 333.312 382.836 334.048 382.138 334.45C381.493 334.821 380.707 334.859 379.992 335.063C378.378 336.442 377.861 336.937 376.124 338.198C375.399 338.725 374.592 339.14 373.907 339.718C373.154 340.354 372.602 341.211 371.83 341.826C371.095 342.412 370.223 342.806 369.42 343.296C368.711 343.914 368.002 344.532 367.293 345.15C365.11 346.7 362.945 348.445 361.161 350.459C360.482 351.224 360.061 352.211 359.312 352.907C358.03 354.099 356.056 354.376 354.944 355.822C354.249 356.249 353.554 356.675 352.858 357.102C352.238 357.59 351.655 358.13 350.997 358.566C350.336 359.003 349.561 359.252 348.914 359.71C346.724 361.259 344.971 363.443 342.697 364.898C338.151 368.265 334.646 372.878 331.537 377.568C330.29 379.072 329.193 380.697 327.932 382.19C325.867 384.637 323.213 386.562 320.965 388.827C319.779 390.887 318.382 392.439 316.934 394.306C316.466 394.908 316.13 395.625 315.568 396.141C315.05 396.616 314.359 396.861 313.754 397.221C313.175 397.819 312.596 398.416 312.017 399.013C309.856 400.312 307.629 401.841 305.766 403.55C303.281 405.829 301.556 408.891 298.494 410.538C294.603 413.309 296.53 411.849 292.719 414.927C289.388 417.343 285.697 419.075 282.183 421.177C280.965 421.905 279.811 422.738 278.624 423.518C274.248 425.864 275.369 425.134 271.138 427.939C267.847 430.121 266.65 431.205 263.067 432.962C135.684 495.425 174.394 478.035 124.856 500.214C115.39 503.32 105.697 505.952 95.6351 505.68C86.5295 505.593 77.4232 505.743 68.3176 505.661C62.3308 505.537 54.2545 506.289 49.5778 501.667C48.3342 500.438 47.4656 498.88 46.4095 497.487C44.0567 492.317 42.1198 487.599 46.0403 482.703C48.0784 476.483 51.6491 471.345 56.0403 466.523C59.7973 461.323 63.7837 456.216 68.7896 452.146C71.3574 450.034 73.4908 447.383 76.1063 445.355C79.4142 442.79 83.47 441.328 86.9274 439.002C96.022 434.25 105.037 429.36 114.081 424.517C118.387 422.491 122.495 420.173 126.745 418.043C129.548 416.638 132.342 415.512 135.143 414.102C136.511 413.413 137.839 412.649 139.187 411.923C142.86 409.592 146.601 407.486 150.514 405.575C195.096 383.8 239.854 362.389 284.312 340.35C326.194 319.585 200.228 381.233 158.226 401.754C156.946 402.38 160.836 400.611 162.141 400.039C170.101 396.051 178.045 392.016 185.757 387.56L189.571 385.272C190.894 384.635 192.262 384.083 193.542 383.363C194.848 382.627 196.026 381.681 197.315 380.914C198.536 380.187 199.874 379.661 201.066 378.887C203.467 377.328 205.428 375.139 208.041 373.875C210.18 372.694 212.962 371.191 215.059 369.91C223.01 365.051 213.625 370.631 221.592 365.489C222.719 364.762 223.969 364.231 225.063 363.457C226.203 362.65 227.202 361.66 228.272 360.762C229.525 360.082 233.99 357.691 235.205 356.91C239.589 354.092 243.76 350.83 248.623 348.827C255.605 344.683 261.955 339.525 269.293 336.011C271.87 334.504 274.366 332.855 276.984 331.42C282.646 328.318 288.627 325.79 294.109 322.342C296.831 320.609 299.413 318.659 302.162 316.967C306.622 314.222 311.474 312.033 316.029 309.454C321.44 306.77 325.948 302.735 331.279 299.905C332.163 299.38 333.048 298.855 333.932 298.33C334.818 297.913 335.739 297.565 336.589 297.079C337.458 296.581 338.227 295.922 339.073 295.386C341.608 293.782 344.308 292.418 346.547 290.376C348.49 289.008 349.425 288.283 351.455 287.106C352.238 286.653 353.093 286.325 353.85 285.83C354.598 285.34 355.197 284.644 355.951 284.163C357.296 283.305 358.923 282.949 360.219 281.993C365.774 277.179 358.368 283.354 363.957 279.426C364.565 278.999 364.994 278.347 365.6 277.917C367.555 276.531 370.08 276.5 371.875 274.82C375.41 272.868 376.749 271.383 379.66 268.621C383.164 265.296 386.727 262.059 389.684 258.195C395.977 250.469 401.639 242.293 407.834 234.5C409.342 232.777 410.741 230.958 412.318 229.299C412.907 228.68 416.26 225.717 416.83 225.057C418.296 223.363 419.243 221.259 420.88 219.695C425.886 211.962 430.271 203.715 432.605 194.753C434.343 188.569 433.103 193.667 434.085 187.541C434.398 185.586 435.011 183.793 434.544 181.805C435.781 185.084 433.883 183.319 432.638 185.654C430.714 187.33 432.511 185.919 429.818 187.463C429.197 187.819 427.367 188.936 428.011 188.623C471.5 167.547 514.917 146.317 558.363 125.164C555.568 125.91 556.845 125.264 554.553 127.139C553.948 127.531 553.379 127.983 552.739 128.315C552.219 128.585 549.375 129.574 548.885 129.839C548.203 130.207 547.634 130.758 546.969 131.156C542.823 133.636 546.751 130.736 542.702 133.95C540.474 135.484 538.149 136.959 535.775 138.261C534.957 138.709 534.026 138.954 533.254 139.48C532.401 140.061 531.807 140.973 530.951 141.55C530.12 142.11 529.147 142.422 528.245 142.858C527.29 143.182 526.295 143.406 525.38 143.831C520.906 145.909 517.797 149.954 513.417 152.133C511.914 153.08 510.577 154.288 509.024 155.149C505.746 156.965 507.532 154.937 504.568 157.411C503.887 157.979 503.438 158.801 502.729 159.332C502.131 159.779 501.382 159.977 500.709 160.299C499.689 161.29 497.959 163.055 496.79 163.831C496 164.356 495.069 164.639 494.261 165.136C492.424 166.268 491.157 167.473 489.527 168.875C488.705 169.403 487.746 169.679 486.856 170.081C480.871 172.895 477.034 176.855 471.499 180.25C468.801 182.123 465.949 183.77 463.321 185.742C462.394 186.438 461.585 187.293 460.609 187.916C458.711 189.127 456.433 189.663 454.574 190.952C449.391 195.251 443.92 199.14 438.049 202.454C433.073 206.029 427.896 209.314 423.078 213.098C420.645 214.551 418.455 216.253 416.17 217.921C415.501 218.409 414.943 219.045 414.247 219.494C413.592 219.916 412.805 220.103 412.145 220.517C411.476 220.937 410.903 221.494 410.282 221.982C406.314 226.235 410.95 221.792 406.426 224.663C405.646 225.157 405.107 225.968 404.348 226.495C401.886 228.206 398.881 228.83 396.177 230.014C384.304 235.998 401.958 226.967 390.189 233.437C389.215 233.972 388.132 234.29 387.161 234.83C384.035 236.57 381.641 239.175 378.714 241.191C377.066 242.724 375.288 244.118 373.689 245.702C370.855 248.509 368.331 251.805 364.729 253.686C364.046 254.488 363.435 255.358 362.679 256.094C359.179 259.5 354.388 260.974 351.088 264.601C350.391 265.121 349.694 265.642 348.997 266.162C348.311 266.597 347.597 266.99 346.939 267.465C345.946 268.182 344.501 269.626 343.368 270.21C342.789 270.508 342.132 270.62 341.514 270.825C340.99 271.119 340.467 271.413 339.943 271.707C338.657 273.13 337.431 274.549 336.362 276.147C335.953 276.757 335.656 277.446 335.186 278.009C334.808 278.461 332.621 280.208 332.176 280.57C328.247 283.505 332.831 279.823 329.065 283.816C328.504 284.411 327.733 284.781 327.16 285.367C326.453 286.091 325.939 286.988 325.246 287.725C324.932 288.059 320.872 291.726 320.583 291.988C318.146 294.186 315.531 296.028 313.004 298.104C310.242 300.373 307.689 302.916 304.686 304.895C298.885 309.18 293.614 314.04 288.381 318.991C283.618 322.594 288.83 318.252 284.737 323.082C283.004 325.126 282.497 324.67 280.283 325.993C279.498 326.463 278.792 327.054 278.047 327.584C277.352 327.996 276.657 328.408 275.962 328.821C274.061 329.745 273.637 329.769 272.087 331.255C271.502 331.816 271.137 332.602 270.49 333.091C269.909 333.53 269.12 333.603 268.492 333.971C267.096 334.789 266.037 335.936 264.88 337.039C223.833 369.081 250.239 348.703 128.692 403.922C85.2985 423.635 299.763 319.78 257.197 341.219C212.857 363.555 167.901 384.642 123.377 406.602C82.3528 426.835 298.795 322.812 246.618 346.248C199.714 370.684 154.066 391.824 104.499 415.86C102.797 416.686 96.8022 418.964 94.9466 419.581C93.5298 420.052 92.0813 420.422 90.6486 420.842C87.7869 421.679 85.8833 422.299 82.98 422.906C80.2793 423.471 78.6413 423.578 75.9318 424.041C74.8422 424.227 73.776 424.563 72.6757 424.669C71.6186 424.77 70.5517 424.663 69.4897 424.66C63.5449 423.843 58.9845 424.528 54.6641 419.492C50.6012 413.345 48.3109 408.268 51.6065 401.208C54.6943 395.754 58.9005 390.91 63.3851 386.563C67.2719 381.601 72.0208 377.434 76.1542 372.68C76.7469 372.019 77.2501 371.264 77.9324 370.696C80.3568 368.675 79.2832 370.623 81.4022 368.428C81.8884 367.924 82.1025 367.186 82.6249 366.72C88.2684 361.684 79.9984 370.685 85.4534 364.511C86.5813 363.177 88.7644 359.799 90.2323 359.047C90.7269 358.793 91.4054 359.098 91.8835 358.814C92.4548 358.475 92.7466 357.805 93.1782 357.3C95.9907 356.104 93.8629 357.217 96.3814 355.258C100.301 352.211 95.641 355.994 99.8485 353.295C101.117 352.482 102.006 351.147 103.45 350.564C108.131 348.095 111.976 344.174 116.71 341.718C120.925 337.963 126.054 335.437 131.041 332.855C134.856 330.997 138.577 328.748 142.17 326.477C143.044 325.924 143.841 325.245 144.754 324.757C145.621 324.294 146.574 324.011 147.484 323.638C148.285 323.042 149.036 322.371 149.888 321.85C151.591 320.807 153.526 320.183 155.237 319.153C158 317.492 160.494 315.349 163.499 314.084C173.336 307.098 159.418 316.615 169.222 311.041C170.14 310.519 170.822 309.659 171.679 309.042C174.197 307.228 176.919 305.657 179.461 303.871C184.174 300.389 189.116 297.471 194.38 294.897C201.839 288.983 191.558 296.956 199.195 291.601C199.992 291.043 200.651 290.307 201.438 289.736C203.65 288.13 206.052 286.743 208.269 285.136C209.256 284.351 211.608 282.425 212.706 281.766C213.502 281.287 214.406 281.01 215.206 280.539C217.91 278.945 220.044 276.634 222.544 274.768C225.945 272.103 224.318 273.532 227.42 270.478C228.167 269.871 229.112 269.533 229.845 268.909C230.617 268.253 231.137 267.336 231.898 266.667C233.132 265.583 234.877 264.726 236.311 263.944C242.03 257.932 234.22 265.662 240.103 261.23C240.781 260.719 241.111 259.836 241.776 259.308C242.397 258.815 243.229 258.655 243.892 258.22C245.336 257.274 246.452 255.874 248.033 255.111C249.482 254.297 250.854 253.353 252.304 252.541C253.019 252.14 253.866 251.969 254.52 251.473C255.254 250.917 255.67 250.01 256.394 249.44C257.642 248.459 259.628 247.87 261.078 247.343C265.27 244.083 269.81 241.369 274.488 238.871C275.094 238.425 275.748 238.039 276.306 237.535C276.691 237.187 279.354 234.136 279.726 233.854C280.411 233.336 281.292 233.133 282.013 232.667C283.752 231.542 285.163 229.952 287.01 228.973C292.716 223.654 286.507 229.176 292.761 224.421C296.615 221.49 300.165 218.131 304.074 215.261C309.045 211.972 313.863 208.469 318.826 205.196C327.131 198.995 314.083 208.89 322.743 201.77C323.397 201.232 324.191 200.886 324.87 200.378C326.855 198.892 328.501 196.943 330.874 196.013C332.15 194.9 333.558 193.931 334.743 192.722C335.375 192.077 335.8 191.247 336.446 190.616C337.063 190.013 337.882 189.645 338.503 189.046C343.562 184.168 337.136 189.291 342.462 185.248C346.569 181.131 351.67 178.022 355.443 173.567C357.446 172.027 359.267 170.313 361.242 168.742C370.019 161.762 356.658 172.464 365.383 165.813C366.09 165.274 366.723 164.645 367.394 164.061C371.683 160.542 376.659 157.654 379.804 152.967C382.369 150.472 381.181 151.87 383.317 148.73C383.881 148.163 384.7 147.922 385.349 147.454C387.195 146.125 389.055 144.691 390.547 142.97C391.049 142.418 391.429 141.722 392.054 141.313C392.6 140.956 393.325 141.002 393.93 140.759C396.335 139.791 397.897 137.547 400.253 136.462C400.799 135.836 401.277 135.144 401.891 134.584C403.555 133.068 404.153 133.251 405.903 131.85C407.801 130.331 409.279 128.284 410.893 126.494C413.294 123.185 415.236 119.616 417.388 116.153C417.871 114.76 417.839 112.958 417.491 111.515C417.366 111.466 416.918 111.267 416.826 111.391C416.692 111.572 416.897 111.87 416.786 112.066C416.191 113.119 414.752 111.62 413.981 112.609C410.208 112.755 414.224 112.468 410.492 113.144C407.466 113.692 404.327 113.812 401.481 115.149C396.512 117.224 391.432 119.027 386.876 121.952C340.542 142.066 384.816 122.886 514.222 59.5537C514.976 59.1849 512.705 60.2709 511.942 60.6209C510.497 61.2843 508.971 61.7857 507.589 62.5715C506.902 62.9618 506.298 63.4818 505.652 63.9369C501.956 67.2826 505.932 64.2404 501.699 65.9676C500.973 66.2638 500.405 66.8583 499.72 67.2399C498.993 67.6448 498.183 67.8937 497.47 68.3227C495.884 69.2766 494.593 70.6825 492.856 71.4097C491.271 72.2002 489.25 73.1435 487.787 74.1447C484.383 76.4746 482.184 80.1478 478.53 82.1623C477.835 82.7735 477.139 83.3848 476.444 83.9959C475.776 84.4634 475.066 84.8768 474.44 85.3985C472.049 87.3886 469.96 89.7903 467.187 91.321C463.312 95.6919 467.676 91.0965 463.495 94.5862C461.354 96.3732 459.676 98.7991 458.121 101.078C457.417 103.124 456.756 104.637 455.524 106.391C455.147 106.928 454.894 107.558 454.446 108.038C454.023 108.491 453.367 108.684 452.951 109.144C452.422 109.728 452.087 110.462 451.655 111.121C448.18 114.486 444.699 117.884 441.935 121.88C440.245 124.462 438.352 126.922 436.297 129.233C435.576 130.043 434.709 130.719 434.016 131.552C433.266 132.453 432.66 133.465 431.982 134.421L429.813 136.993C421.392 144.651 433.643 133.272 425.624 141.532C424.656 142.528 422.149 144.16 421.098 145.043C420.303 145.711 419.633 146.521 418.823 147.17C418.071 147.773 417.225 148.249 416.426 148.789C408.521 154.391 419.686 146.278 411.691 152.797C410.902 153.44 409.963 153.876 409.138 154.471C406.697 156.233 404.276 158.106 402.138 160.227C400.826 161.341 399.417 162.342 398.14 163.496C395.507 165.877 393.331 168.762 390.774 171.22C386.548 173.785 390.314 171.307 386.385 174.483C385.658 175.071 384.816 175.513 384.119 176.136C383.361 176.814 382.809 177.703 382.041 178.37C380.621 179.603 378.73 180.238 377.552 181.791C374.635 184.137 376.019 182.858 373.413 185.64C372.751 186.179 371.928 186.484 371.205 186.938C369.02 188.313 366.844 189.644 364.552 190.848C359.652 192.93 355.794 196.16 352.207 200.074C350.954 200.935 349.896 202.07 348.602 202.868C347.955 203.267 347.117 203.298 346.49 203.727C345.781 204.213 345.392 205.085 344.675 205.559C343.236 206.51 341.206 206.347 340.022 207.824C337.382 208.989 337.539 208.785 335.13 210.381C334.384 210.875 333.724 211.498 332.951 211.947C330.617 213.301 328 214.131 326.153 216.269C325.44 216.815 324.746 217.387 324.014 217.907C323.359 218.371 322.56 218.65 321.994 219.22C321.359 219.859 321.061 220.771 320.481 221.461C318.921 223.317 316.765 224.675 314.999 226.31C311.499 230.135 315.083 226.918 310.751 228.986C307.949 230.324 308.81 230.762 306.341 232.686C305.578 233.28 304.675 233.667 303.842 234.158C303.098 234.787 302.355 235.417 301.611 236.046C299.357 237.47 297.137 238.986 294.968 240.535C294.202 241.083 291.887 243.068 290.966 243.499C290.29 243.815 289.523 243.877 288.801 244.066C287.177 245.296 286.588 245.843 284.769 246.809C284.006 247.214 283.167 247.466 282.416 247.891C280.419 249.019 279.728 249.842 277.905 251.255C277.095 251.882 276.255 252.47 275.431 253.078C269.473 256.998 263.784 261.464 257.215 264.342C254.205 266.412 251.108 267.993 247.932 269.778C247.066 270.265 246.251 270.844 245.359 271.281C154.449 315.796 155.065 315.494 108.504 338.039C103.499 340.707 108.698 338.104 104.096 339.97C103.442 340.235 101.558 341.204 102.192 340.895C145.756 319.69 275.895 254.979 232.882 277.281C112.207 339.865 146.973 331.825 96.2247 343.275C94.5893 343.881 93.0442 344.75 91.3588 345.199C88.0105 346.09 84.4834 345.447 81.0911 345.796C77.0871 345.137 72.935 345.462 69.1072 343.822C64.3495 341.999 59.9474 339.484 55.358 337.294C49.8052 334.686 44.2472 331.801 39.5185 327.856C38.7531 327.239 37.9074 326.71 37.2226 326.004C32.8878 321.539 30.4234 314.933 31.2938 308.77C55.3532 258.315 -52.6287 345.295 167.218 238.231C167.33 238.177 171.046 238.568 171.187 238.561C171.849 238.53 172.491 238.32 173.142 238.199C178.727 237.658 184.425 238.446 189.914 236.914C195 235.555 199.706 233.252 204.674 231.543C207.435 230.591 210.338 229.654 213.002 228.46C216.088 227.077 219.015 225.304 222.307 224.371C224.378 223.361 226.379 222.207 228.484 221.272C229.549 220.8 230.69 220.51 231.754 220.035C232.733 219.599 235.564 218.075 234.602 218.547C105.892 281.63 65.4669 306.751 108.656 280.036C108.701 280.013 113.543 277.58 113.682 277.493C114.49 276.988 115.118 276.204 115.972 275.781C161.735 253.152 208.208 229.041 255.239 207.684C298.244 189.152 87.2844 290.595 129.037 269.401C173.373 246.901 218.81 226.6 263.047 203.911C305.393 182.196 177.475 245.585 134.726 266.483C132.864 267.394 142.228 263.09 140.453 264.063C141.299 263.464 142.093 262.782 142.992 262.265C143.684 261.867 147.741 260.203 148.433 259.851C151.031 258.528 153.616 257.108 156.066 255.529C160.956 251.904 155.871 255.444 161.19 252.427C162.119 251.9 162.963 251.234 163.877 250.68C166.581 249.041 169.554 248.048 172.181 246.274C177.743 242.712 172.05 246.164 178.084 243.098C182.477 240.866 186.556 237.981 190.278 234.771C196.932 229.767 202.902 223.941 209.122 218.432C215.002 212.909 221.462 208.056 227.392 202.578C232.627 197.126 237.614 191.47 242.596 185.8C245.811 181.028 249.345 176.566 253.521 172.588C254.979 171 256.308 169.289 257.853 167.785C261.193 164.534 265.27 162.033 267.957 158.1C271.442 154.052 274.4 149.159 278.999 146.287C282.962 141.012 277.647 147.352 281.853 144.261C282.418 143.846 282.573 143.038 283.077 142.551C284.542 141.137 286.699 141.431 288.075 139.882C291.111 138.521 288.855 139.726 291.653 137.645C297.797 133.076 289.105 139.689 295.562 135.316C296.896 134.413 297.897 133.072 299.324 132.283C299.926 131.909 300.564 131.587 301.131 131.16C302.212 130.346 302.873 129.376 304.029 128.663C304.496 128.375 305.094 128.326 305.536 127.999C305.631 127.929 308.028 125.221 308.066 125.178C311.731 123.743 307.632 125.767 310.712 122.435C311.133 121.98 311.882 121.985 312.383 121.62C314.068 120.395 315.207 118.409 316.693 116.983C317.199 116.34 317.642 115.641 318.212 115.053C319.251 113.983 320.782 113.138 321.81 112.056C322.338 111.502 322.665 110.778 323.19 110.221C327.564 105.578 321.773 112.635 325.629 107.801C327.406 104.33 326.501 100.619 326.675 96.8515C326.704 94.9242 326.928 92.6673 326.451 90.77C326.435 90.7029 326.449 90.9083 326.448 90.9774C325.453 91.724 326.162 91.418 325.475 92.2486C324.497 93.4322 322.489 93.309 321.179 93.3806C316.499 93.7659 311.927 94.7503 307.569 96.546C304.958 97.4015 302.922 98.061 300.387 99.144C299.657 99.4559 297.446 100.334 298.16 99.9873C427.911 37.0048 474.847 21.0282 427.141 37.3538C424.76 38.8998 424.386 38.4157 422.146 39.3418C421.599 39.5681 421.162 40.0106 420.624 40.2566C417.213 41.8151 420.55 39.6194 417.346 41.9641C412.766 44.6562 418.6 40.9965 414.064 44.6917C413.54 45.1189 412.845 45.2921 412.296 45.6867C410.59 46.9125 409.241 48.6523 407.484 49.8256C404.847 53.958 400.842 57.0182 398.078 61.0947C393.579 65.1973 398.758 60.2285 394.543 65.1283C393.381 66.4792 390.125 69.6483 388.678 70.606C387.986 71.0639 387.159 71.2754 386.4 71.6101C385.781 72.2458 385.162 72.8814 384.544 73.517C383.831 73.9451 383.007 74.2278 382.405 74.8011C381.704 75.467 381.333 76.4134 380.717 77.1578C380.109 77.8918 379.319 78.4659 378.743 79.2252C374.74 84.5075 379.324 79.8291 375.161 83.7958C371.709 88.655 366.697 92.1243 362.402 96.2078C358.469 99.4147 355.036 103.136 351.372 106.637C350.482 107.486 349.409 108.14 348.575 109.044C347.703 109.989 347.05 111.115 346.288 112.15C343.785 114.332 343.822 114.178 341.575 116.622C340.87 117.387 340.308 118.289 339.524 118.973C338.858 119.556 338.001 119.878 337.272 120.381C328.67 126.319 341.318 117.939 333.095 123.343C326.615 128.921 335.939 121.094 329.27 126.055C326.743 127.934 324.772 130.592 322.006 132.192C318.805 132.667 319.986 133.155 317.643 134.89C314.805 136.993 317.847 134.584 314.792 136.086C314.307 136.324 313.94 136.749 313.513 137.08C310.24 138.99 314.005 136.534 310.889 139.594C309.355 141.1 309.453 140.144 307.744 141.299C307.23 141.647 306.853 142.163 306.401 142.589C305.973 142.993 305.538 143.389 305.106 143.789C303.709 145.01 301.09 146.619 300.064 148.064C299.598 148.72 299.417 149.54 299.003 150.229C298.603 150.895 298.089 151.485 297.632 152.114C296.12 154.429 294.348 156.287 292.577 158.404C291.94 159.166 291.386 160.001 290.698 160.718C285.304 166.337 291.648 158.686 286.333 165.36C281.499 170.097 276.732 174.901 271.876 179.615C271.354 180.112 267.877 183.39 267.332 184.011C266.651 184.787 266.14 185.703 265.458 186.479C263.614 188.575 261.271 190.15 259.021 191.762C219.636 225.455 109.439 246.196 110.113 267.495C100.111 270.716 89.7366 272.409 79.2241 272.721C68.463 272.883 57.694 272.951 46.9344 272.711C39.6454 272.403 32.2694 272.115 26.3031 267.372C21.3057 264.091 18.4028 258.615 17.8823 252.687C18.1288 247.69 18.1785 242.504 20.6056 237.997C21.8732 235.953 22.6691 233.602 24.171 231.714C24.6253 231.143 25.2674 230.738 25.7138 230.16C30.6405 223.789 23.5844 231.778 28.9524 225.88C31.7952 223.013 29.9208 224.433 33.5657 222.659C69.9235 204.895 127.583 169.983 177.496 153.773C189.145 149.307 200.83 144.94 212.366 140.18C219.221 137.321 226.158 134.578 232.918 131.499C234.939 130.578 240.911 127.628 238.916 128.601C113.388 189.826 71.342 206.461 118.05 187.863C118.863 187.33 123.021 184.557 124.008 184.074C127.994 182.125 125.6 184.039 129.287 181.966C130.079 181.52 130.759 180.899 131.525 180.412C132.264 179.943 133.041 179.537 133.799 179.1C136.75 177.075 135.302 178.183 138.127 175.756C138.863 175.247 139.716 174.933 140.49 174.484C142.769 173.163 144.697 171.455 146.818 169.907C148.65 167.964 150.352 165.694 152.348 163.921C153.015 163.33 153.833 162.928 154.507 162.346C154.85 162.051 158.36 158.447 158.635 158.166C164.314 154.234 167.722 149.308 171.871 143.884C172.638 142.775 173.405 141.665 174.172 140.556C174.968 139.49 175.793 138.446 176.561 137.36C177.359 136.23 178.024 135.006 178.869 133.911C179.69 132.848 180.724 131.962 181.547 130.902C183.341 128.593 184.671 125.945 186.592 123.725C189.276 120.202 191.488 116.3 194.432 112.989C194.789 112.588 195.005 111.678 195.526 111.808C196.327 112.007 196.615 113.049 197.16 113.669C198.707 116.348 201.165 119.299 201.505 122.457C201.695 124.228 200.361 124.925 200.431 124.891C244.406 103.464 288.217 81.6995 332.11 60.1034C326.152 62.9396 335.787 58.1511 329.174 62.2511C328.611 62.6003 327.887 62.5971 327.288 62.8789C326.643 63.1821 326.106 63.6861 325.464 63.9946C319.996 66.62 326.848 62.6669 321.373 65.9656C319.006 66.9181 317.362 68.1246 315.267 69.5364C314.629 69.9666 313.945 70.3261 313.285 70.721C312.607 70.966 311.851 71.0546 311.253 71.4562C310.618 71.8825 310.211 72.5756 309.69 73.1353C309.061 73.2889 308.366 73.2752 307.804 73.5959C307.197 73.9423 306.827 74.598 306.307 75.0651C305.127 76.1246 304.378 76.6971 302.95 77.3942C167.004 143.757 209.68 114.85 166.85 143.976C508.647 -23.224 166.93 143.968 160.971 146.841C117.608 167.748 334.22 62.7936 290.766 83.5041C280.783 88.2632 -48.2958 248.974 285.34 86.066C240.684 107.882 196.051 129.745 151.373 151.515C145.921 154.171 139.768 155.157 133.973 156.784C131.422 157.402 128.915 158.192 126.361 158.799C121.253 160.012 115.973 160.351 110.848 161.478C105.335 161.413 99.835 161.31 94.3195 161.321C89.2153 161.324 83.8804 161.474 78.994 159.863C78.2633 159.416 77.4417 159.09 76.8018 158.521C72.6182 154.795 67.4762 146.933 71.1339 141.49C73.4116 140.417 72.8596 139.696 73.9543 137.642C74.7463 136.156 76.1502 134.934 76.695 133.283C80.088 130.854 75.9764 134.037 79.4572 130.339C80.6706 129.051 82.0889 128.551 83.4829 127.495C84.3423 126.844 85.1153 126.087 85.9316 125.382L89.0404 123.159C91.8153 121.684 94.6891 120.4 97.4612 118.919C99.1678 118.007 100.76 116.89 102.474 115.994C104.373 115.002 106.382 114.235 108.289 113.26C112.524 111.097 116.532 108.506 120.857 106.511C130.184 101.465 139.52 96.4331 148.852 91.4155L291.609 46.9359L291.579 46.9208Z" fill="#DCDBE1"/>
</g>
<defs>
<clipPath id="clip0_241_342">
<rect width="611.651" height="708" fill="white"/>
</clipPath>
</defs>
</svg>
