<svg width="337" height="403" viewBox="0 0 337 403" fill="none" xmlns="http://www.w3.org/2000/svg">
<path d="M326.44 291.43C322.811 270.752 318.064 250.285 312.22 230.12C312.54 216.98 308.67 208.05 303.22 202.95C302.43 200.86 301.69 198.95 301 197.27C300.94 196.32 300.957 195.367 301.05 194.42C301.143 193.349 301.035 192.271 300.73 191.24C300.473 189.956 299.882 188.762 299.016 187.778C298.151 186.795 297.041 186.058 295.8 185.64C292.65 174.79 286.74 157.14 282.55 145.56C276.85 129.85 263.44 109.76 249.36 99.56L230.92 34.56L233 36.1C233.186 36.2393 233.406 36.3241 233.638 36.345C233.869 36.3658 234.101 36.3219 234.309 36.218C234.517 36.1142 234.691 35.9546 234.813 35.7572C234.935 35.5597 235 35.3321 235 35.1L234.87 28C234.873 27.8044 234.922 27.6122 235.012 27.4386C235.102 27.265 235.232 27.1149 235.39 27L241.17 22.85C241.362 22.7151 241.512 22.5288 241.603 22.3126C241.694 22.0964 241.722 21.8589 241.685 21.6273C241.647 21.3957 241.545 21.1793 241.391 21.003C241.236 20.8266 241.035 20.6974 240.81 20.63L234 18.47C233.806 18.4137 233.628 18.3103 233.483 18.169C233.339 18.0277 233.231 17.8529 233.17 17.66L231 10.87C230.929 10.6473 230.797 10.449 230.619 10.2975C230.441 10.1461 230.224 10.0476 229.993 10.0132C229.762 9.97885 229.525 10.01 229.311 10.1031C229.097 10.1962 228.913 10.3476 228.78 10.54L224.71 16.37C224.598 16.5332 224.449 16.6674 224.275 16.7613C224.101 16.8552 223.908 16.9062 223.71 16.91L216.59 16.86C216.359 16.8636 216.134 16.9305 215.939 17.0532C215.744 17.176 215.586 17.3501 215.483 17.5564C215.379 17.7627 215.335 17.9933 215.354 18.2232C215.373 18.4531 215.454 18.6733 215.59 18.86L219.89 24.54C220.01 24.703 220.09 24.8922 220.123 25.0921C220.156 25.2921 220.142 25.497 220.08 25.69L217.83 32.44C217.763 32.6578 217.757 32.8898 217.812 33.1109C217.867 33.332 217.982 33.5337 218.144 33.6944C218.305 33.855 218.508 33.9684 218.729 34.0223C218.951 34.0761 219.183 34.0684 219.4 34L221.65 33.22L210 51.31H209.51L204.57 58.79H205.12L191.18 80.27C190.676 79.4618 190.299 78.5818 190.06 77.66C189.86 77.38 189.72 77.29 189.55 77.32C188.279 79.5569 187.84 82.1707 188.31 84.7L187.31 86.25C180.76 83.83 169.57 86.16 169.57 86.16L170.08 86.5C171.614 87.0644 173.088 87.7813 174.48 88.64C176.01 89.71 177.26 91.05 177.08 92.54C168.74 89.38 160.65 96.48 160.65 96.48L161.16 96.82C161.16 96.82 169.4 95.47 172.75 97.32C173.089 97.5789 173.351 97.9244 173.51 98.32C160.68 100.75 155.95 109.32 155.95 109.32L156.45 109.66C159.526 108.169 162.942 107.52 166.35 107.78C157.99 119.17 155.65 138.27 155.35 145.13C155.05 151.99 156.74 160.69 158.9 166.93C158.937 167.006 158.996 167.068 159.07 167.11C161.788 176.042 165.229 184.737 169.36 193.11C172.97 200.65 170.69 201.17 170.69 201.17C170.69 201.17 153.76 204.26 142.83 225.17L139.29 205.49L116.84 208.74L125.72 258.1C125.271 258.272 124.864 258.541 124.529 258.886C124.194 259.231 123.938 259.646 123.78 260.1C121.58 264.92 123.3 269.99 124.71 274.1C124.58 274.38 124.45 274.67 124.33 274.95V275.05C116.03 293.97 112.76 310.05 114.63 321.5C116.04 332.65 122.14 339.69 134.24 340.31C130.01 342.52 126.16 344.15 123.83 344.24C121.146 344.391 118.469 343.832 116.07 342.62C105 327.62 85.4099 322.23 85.4099 322.23C85.1699 322.31 85.4099 322.56 85.4099 322.56C95.5799 333.79 107.64 370 107.64 370C107.64 370 110.75 379.64 116.77 380.56C129.6 379.74 125.77 373.28 144.63 373.79C163.49 374.3 184.53 366.58 186.03 364.52C186.03 364.52 186.08 364.52 186.09 364.47C187.54 363.31 189.55 367.52 191.44 372.65C193 377.4 195 383.82 195 383.88C199.79 399.46 207.17 389.98 224 386.88C240.26 383.88 263.77 390.54 282 381.62C300.23 372.7 310.22 369.08 319.67 355.52C319.67 355.52 321.67 312.31 320.14 296.33C322.409 294.926 324.521 293.283 326.44 291.43Z" fill="white" stroke="white" stroke-width="20" stroke-linecap="round" stroke-linejoin="round"/>
<path d="M98.1899 187.15C100.91 188.52 101.78 191.65 102.72 194.32C103.163 195.393 103.808 196.37 104.62 197.2C104.81 197.4 105.92 198.56 105.62 197.61C103.4 191.32 99.4899 182.85 91.9299 182.16C81.5199 181.16 72.7499 186.47 63.3199 189.76C58.5999 191.41 53.4299 192.43 48.5299 190.95C46.5999 190.38 43.7899 189.3 42.8299 187.37C41.8299 185.29 42.1299 182.12 43.0799 180.1C43.859 178.43 45.2377 177.114 46.9421 176.414C48.6465 175.714 50.5519 175.68 52.2799 176.32C54.2799 177.03 53.5399 179.16 52.5499 180.71C52.1126 181.448 51.4929 182.061 50.7504 182.49C50.0079 182.919 49.1675 183.15 48.3099 183.16C48.6599 183.16 49.9199 187.29 51.2499 187.25C52.6858 187.145 54.0273 186.496 54.9996 185.434C55.972 184.373 56.5016 182.979 56.4799 181.54C56.4799 178.82 54.4299 176.03 52.5899 174.21C51.5447 173.129 50.2075 172.377 48.7415 172.044C47.2755 171.711 45.7443 171.812 44.3348 172.335C42.9253 172.857 41.6986 173.779 40.8045 174.988C39.9104 176.196 39.3876 177.639 39.2999 179.14C38.6799 185.42 44.0499 192.14 49.5999 194.45C58.0499 197.99 66.9299 193.68 74.6899 190.39C79.6608 188.132 84.9805 186.739 90.4199 186.27C92.9999 186.1 95.82 186 98.1899 187.15Z" fill="white" stroke="white" stroke-width="20" stroke-miterlimit="10"/>
<path d="M122.83 113.3C126.97 114.59 131.62 116.3 134.75 119.43C135.97 120.66 137.38 122.79 136.39 124.58C135.56 126.1 133.39 127.31 132.14 128.47C126.87 133.24 116.95 143.29 123.69 150.74C124.39 151.51 131.9 144.47 130.98 143.45C128.26 140.45 128.27 135.33 130.73 132.07C132.117 130.68 133.587 129.375 135.13 128.16C137.033 126.451 138.824 124.621 140.49 122.68C143.3 119.39 145.64 115.79 142.03 112.14C138.7 108.77 133.6 107.04 129.17 105.73C124.74 104.42 119.66 103.79 116.53 100.24C115.14 98.68 113.97 95.77 116.32 94.24C125.98 89.81 137.42 90.74 147.7 93.3C148.95 93.61 151.15 91 151.92 90.23C152.17 89.98 155.4 86.12 154.99 86.01C145.992 83.7285 136.581 83.612 127.53 85.67C123.662 86.3924 119.973 87.8633 116.67 90C113.33 92.38 109.57 95.76 107.85 99.57C103.67 108.83 116.94 111.47 122.83 113.3Z" fill="white" stroke="white" stroke-width="20" stroke-miterlimit="10"/>
<path d="M58.5498 148C59.5498 146.77 59.2898 146.44 57.8798 147.18C56.0198 148.18 56.1198 148.86 54.3298 149.4C53.7686 149.502 53.2001 149.558 52.6298 149.57C51.504 149.582 50.3804 149.468 49.2798 149.23C47.3119 148.888 45.394 148.304 43.5698 147.49C41.9673 146.762 40.5795 145.634 39.5407 144.213C38.5019 142.792 37.8471 141.128 37.6398 139.38C37.5698 138.9 33.7498 141.59 33.4898 141.8C32.6998 142.44 30.1198 144.15 30.2798 145.38C31.1798 151.92 36.9398 154.38 42.8298 155.38C49.1398 156.49 54.6098 152.7 58.5498 148Z" fill="white" stroke="white" stroke-width="20" stroke-miterlimit="10"/>
<path d="M124.39 59.63C123.99 59.36 123.39 64 123.39 64.33C123.34 65.33 122.86 68.4 123.88 69.11C129.31 72.85 135.03 70.28 139.73 66.6C144.73 62.66 145.68 56.07 144.88 50.01C144.67 48.4 144.22 48.41 143.82 49.95C143.3 51.95 143.82 52.38 143.06 54.06C142.767 54.5449 142.432 55.0033 142.06 55.43C141.311 56.2726 140.469 57.0274 139.55 57.68C137.968 58.8894 136.241 59.8972 134.41 60.68C132.792 61.3874 131.018 61.6626 129.261 61.4785C127.505 61.2944 125.826 60.6575 124.39 59.63Z" fill="white" stroke="white" stroke-width="20" stroke-miterlimit="10"/>
<path d="M39.49 87.33C38.4575 85.9317 37.8451 84.268 37.7247 82.534C37.6042 80.8 37.9807 79.0676 38.81 77.54C39.53 76.23 37.55 77.73 37.32 77.92C35.9644 78.9319 34.8081 80.1864 33.91 81.62C31.1 86.8 32.69 93.35 38.41 95.69C39.91 96.31 41.48 96.69 42.96 97.43C44.489 98.205 45.9746 99.0629 47.41 100C48.6857 100.704 49.8213 101.636 50.76 102.75C51.1146 103.207 51.3823 103.726 51.55 104.28C51.6897 104.753 51.7305 105.25 51.67 105.74C51.41 106.56 50.15 107.74 50.93 107.83C51.87 107.94 53.93 105.46 54.41 104.92C56.41 102.81 57.95 100.25 55.96 97.55C54.15 95.1 50.49 93.3 47.82 92.04C44.76 90.64 41.63 90.21 39.49 87.33Z" fill="white" stroke="white" stroke-width="20" stroke-miterlimit="10"/>
<path d="M94.9999 67C99.9999 76.37 99.2999 86.81 97.3199 96.9C95.3399 106.99 92.1199 116.9 92.7999 127.24C93.3699 135.92 97.5799 147.45 107.86 147.8C109.52 147.8 111.6 144.69 112.51 143.55C112.8 143.18 116.01 138.09 115.62 138.07C104.79 137.71 100.75 125.07 100.62 116.07C100.46 105.74 103.82 95.76 105.62 85.68C107.34 76.05 107.48 66.1 102.77 57.25C100.474 52.9748 97.3242 49.2171 93.5156 46.2102C89.707 43.2032 85.321 41.0111 80.6299 39.77C79.2299 39.41 76.6899 43.13 75.9799 44.02C75.7099 44.36 72.2099 49.33 72.8599 49.5C77.5535 50.7418 81.9413 52.9363 85.7503 55.9469C89.5592 58.9576 92.7077 62.72 94.9999 67Z" fill="white" stroke="white" stroke-width="20" stroke-miterlimit="10"/>
<path d="M76.8199 107.63C76.6391 107.611 76.4682 107.538 76.3299 107.42L73.4099 105.07C73.2735 104.978 73.1165 104.921 72.9528 104.904C72.789 104.887 72.6237 104.911 72.4713 104.973C72.319 105.035 72.1844 105.134 72.0795 105.261C71.9745 105.388 71.9025 105.539 71.8699 105.7L71.4599 109.43C71.4402 109.612 71.371 109.785 71.2599 109.93L68.9099 112.85C68.8025 112.981 68.7326 113.139 68.7077 113.307C68.6828 113.475 68.7037 113.646 68.7683 113.803C68.8329 113.96 68.9387 114.096 69.0745 114.198C69.2104 114.299 69.3712 114.362 69.5399 114.38L73.2699 114.79C73.4482 114.811 73.6175 114.881 73.7599 114.99L76.6799 117.35C76.8169 117.442 76.9747 117.499 77.139 117.515C77.3034 117.532 77.4693 117.507 77.6218 117.444C77.7743 117.38 77.9088 117.28 78.0131 117.152C78.1175 117.024 78.1885 116.872 78.2199 116.71L78.6299 112.98C78.6513 112.802 78.7204 112.632 78.8299 112.49L81.1899 109.57C81.2821 109.433 81.3389 109.275 81.3552 109.111C81.3716 108.946 81.347 108.781 81.2836 108.628C81.2202 108.476 81.12 108.341 80.992 108.237C80.8639 108.132 80.712 108.061 80.5499 108.03L76.8199 107.63Z" fill="white" stroke="white" stroke-width="20" stroke-miterlimit="10"/>
<path d="M89.3399 215.84L92.2599 218.2C92.3969 218.292 92.5547 218.349 92.719 218.365C92.8834 218.382 93.0493 218.357 93.2018 218.294C93.3543 218.23 93.4888 218.13 93.5931 218.002C93.6975 217.874 93.7685 217.722 93.7999 217.56L94.1999 213.83C94.2188 213.649 94.292 213.478 94.4099 213.34L96.7599 210.42C96.852 210.284 96.9091 210.127 96.926 209.963C96.9429 209.799 96.9192 209.634 96.8569 209.481C96.7945 209.329 96.6956 209.195 96.5688 209.09C96.4419 208.985 96.2912 208.913 96.1299 208.88L92.3999 208.48C92.217 208.457 92.044 208.385 91.8999 208.27L88.9999 205.92C88.8686 205.813 88.7107 205.743 88.5429 205.718C88.3751 205.693 88.2037 205.714 88.0469 205.778C87.89 205.843 87.7536 205.949 87.652 206.085C87.5504 206.221 87.4875 206.381 87.4699 206.55L86.9999 210.28C86.9784 210.458 86.9093 210.628 86.7999 210.77L84.4399 213.7C84.3322 213.832 84.2625 213.991 84.238 214.159C84.2136 214.328 84.2354 214.5 84.3011 214.657C84.3668 214.814 84.474 214.95 84.6111 215.051C84.7483 215.152 84.9103 215.214 85.0799 215.23L88.8099 215.64C89.0021 215.654 89.1862 215.724 89.3399 215.84Z" fill="white" stroke="white" stroke-width="20" stroke-miterlimit="10"/>
<path d="M63.2798 171.18H68.4798C68.7273 171.18 68.9698 171.249 69.1798 171.38L73.5498 174.19C73.7485 174.309 73.9752 174.375 74.2071 174.379C74.439 174.383 74.6678 174.325 74.8705 174.213C75.0733 174.1 75.2428 173.936 75.3621 173.738C75.4813 173.539 75.5461 173.312 75.5498 173.08V167.89C75.5498 167.639 75.619 167.394 75.7498 167.18L78.5598 162.81C78.6826 162.612 78.7503 162.385 78.7559 162.151C78.7615 161.918 78.7048 161.688 78.5917 161.484C78.4785 161.28 78.3131 161.111 78.1124 160.992C77.9116 160.873 77.6829 160.811 77.4498 160.81H72.2898C72.0376 160.811 71.7906 160.738 71.5798 160.6L67.2098 157.8C67.0124 157.678 66.786 157.61 66.5538 157.604C66.3216 157.598 66.0919 157.654 65.8884 157.766C65.6849 157.878 65.5148 158.042 65.3956 158.241C65.2763 158.44 65.2122 158.668 65.2098 158.9V164.1C65.2111 164.349 65.138 164.593 64.9998 164.8L62.1998 169.17C62.079 169.367 62.0118 169.592 62.0052 169.823C61.9985 170.054 62.0525 170.282 62.1619 170.486C62.2712 170.689 62.4319 170.86 62.6281 170.982C62.8243 171.104 63.049 171.172 63.2798 171.18Z" fill="white" stroke="white" stroke-width="20" stroke-miterlimit="10"/>
<path d="M126.16 167.92C125.973 167.921 125.789 167.869 125.63 167.77L122.34 165.66C122.19 165.569 122.019 165.518 121.843 165.514C121.668 165.51 121.494 165.552 121.34 165.636C121.186 165.72 121.057 165.844 120.966 165.993C120.874 166.143 120.824 166.315 120.82 166.49V170.39C120.82 170.577 120.768 170.761 120.67 170.92L118.56 174.21C118.469 174.36 118.418 174.531 118.414 174.707C118.41 174.882 118.452 175.056 118.536 175.21C118.62 175.364 118.743 175.493 118.893 175.584C119.043 175.675 119.214 175.726 119.39 175.73H123.29C123.478 175.732 123.662 175.788 123.82 175.89L127.11 177.99C127.26 178.081 127.431 178.132 127.606 178.136C127.782 178.14 127.955 178.098 128.109 178.014C128.263 177.93 128.393 177.806 128.484 177.657C128.575 177.507 128.626 177.335 128.63 177.16V173.26C128.627 173.071 128.683 172.886 128.79 172.73L130.89 169.44C130.981 169.29 131.031 169.119 131.036 168.943C131.04 168.768 130.998 168.594 130.914 168.44C130.829 168.286 130.706 168.157 130.556 168.066C130.407 167.975 130.235 167.924 130.06 167.92H126.16Z" fill="white" stroke="white" stroke-width="20" stroke-miterlimit="10"/>
<path d="M29.4199 115.65L24.5499 113C24.3173 112.869 24.1265 112.675 23.9999 112.44L21.3499 107.55C21.2282 107.329 21.0494 107.145 20.8321 107.016C20.6149 106.888 20.3672 106.82 20.1149 106.82C19.8626 106.82 19.6149 106.888 19.3977 107.016C19.1805 107.145 19.0016 107.329 18.8799 107.55L16.1899 112.42C16.0592 112.655 15.8652 112.849 15.6299 112.98L10.7399 115.62C10.5189 115.742 10.3346 115.921 10.2063 116.138C10.078 116.355 10.0103 116.603 10.0103 116.855C10.0103 117.107 10.078 117.355 10.2063 117.572C10.3346 117.789 10.5189 117.968 10.7399 118.09L15.6099 120.78C15.8403 120.914 16.0303 121.107 16.1599 121.34L18.8099 126.24C18.9316 126.461 19.1105 126.645 19.3277 126.774C19.5449 126.902 19.7926 126.97 20.0449 126.97C20.2972 126.97 20.5449 126.902 20.7621 126.774C20.9794 126.645 21.1582 126.461 21.2799 126.24L23.9999 121.33C24.1274 121.092 24.3222 120.897 24.5599 120.77L29.4499 118.12C29.6694 117.996 29.8516 117.815 29.9773 117.596C30.103 117.377 30.1677 117.128 30.1647 116.876C30.1616 116.624 30.0909 116.377 29.9599 116.161C29.8289 115.946 29.6424 115.769 29.4199 115.65Z" fill="white" stroke="white" stroke-width="20" stroke-miterlimit="10"/>
<path d="M72.1 82.65C72.2593 82.8686 72.3498 83.1297 72.36 83.4L72.58 89C72.5913 89.2526 72.6703 89.4975 72.8088 89.7091C72.9473 89.9207 73.1401 90.0911 73.3671 90.2025C73.5941 90.314 73.8469 90.3623 74.0989 90.3425C74.351 90.3227 74.5932 90.2355 74.8 90.09L79.35 86.9C79.5715 86.7478 79.8314 86.6612 80.1 86.65L85.66 86.42C85.9118 86.4092 86.1561 86.3312 86.3676 86.1939C86.579 86.0566 86.7497 85.8652 86.862 85.6396C86.9744 85.4139 87.0241 85.1623 87.0062 84.9108C86.9882 84.6594 86.9032 84.4174 86.76 84.21L83.57 79.65C83.4106 79.4314 83.3201 79.1703 83.31 78.9L83.09 73.34C83.0807 73.0876 83.0034 72.8423 82.8661 72.6303C82.7288 72.4183 82.5367 72.2474 82.3102 72.1356C82.0836 72.0239 81.8311 71.9755 81.5793 71.9957C81.3275 72.0158 81.0859 72.1037 80.88 72.25L76.32 75.4C76.0984 75.5522 75.8385 75.6388 75.57 75.65L70 75.88C69.7481 75.8907 69.5038 75.9688 69.2924 76.1061C69.0809 76.2433 68.9102 76.4348 68.7979 76.6604C68.6855 76.8861 68.6358 77.1377 68.6537 77.3891C68.6717 77.6406 68.7567 77.8826 68.9 78.09L72.1 82.65Z" fill="white" stroke="white" stroke-width="20" stroke-miterlimit="10"/>
<path d="M125.34 30.31C125.449 30.4578 125.508 30.6363 125.51 30.82L125.67 34.65C125.687 34.8186 125.747 34.9801 125.843 35.1192C125.94 35.2584 126.07 35.3708 126.222 35.4458C126.374 35.5207 126.543 35.5559 126.712 35.5479C126.881 35.5399 127.046 35.489 127.19 35.4L130.33 33.21C130.483 33.1026 130.663 33.0402 130.85 33.03L134.67 32.88C134.839 32.8644 135.002 32.8059 135.142 32.7099C135.283 32.6139 135.397 32.4836 135.473 32.3314C135.549 32.1793 135.585 32.0102 135.577 31.8402C135.57 31.6702 135.519 31.5049 135.43 31.36L133.23 28.22C133.119 28.0695 133.059 27.8871 133.06 27.7L132.9 23.88C132.884 23.7106 132.826 23.5479 132.73 23.4074C132.634 23.267 132.503 23.1533 132.351 23.0772C132.199 23.0011 132.03 22.9651 131.86 22.9726C131.69 22.9801 131.525 23.0308 131.38 23.12L128.24 25.32C128.086 25.4239 127.906 25.4828 127.72 25.49L123.9 25.65C123.73 25.6656 123.568 25.7242 123.427 25.8202C123.287 25.9162 123.173 26.0464 123.097 26.1986C123.021 26.3508 122.985 26.5199 122.992 26.6899C123 26.8599 123.051 27.0251 123.14 27.17L125.34 30.31Z" fill="white" stroke="white" stroke-width="20" stroke-miterlimit="10"/>
<path d="M63.1199 233.9C63.0141 233.75 62.9519 233.573 62.9399 233.39L62.7899 229.56C62.7736 229.39 62.714 229.227 62.6168 229.086C62.5196 228.946 62.388 228.832 62.2345 228.757C62.0811 228.682 61.911 228.647 61.7403 228.657C61.5697 228.666 61.4043 228.719 61.2599 228.81L58.1299 231C57.9768 231.107 57.7966 231.17 57.6099 231.18L53.7799 231.33C53.6097 231.346 53.4466 231.406 53.3061 231.503C53.1656 231.6 53.0523 231.732 52.9771 231.885C52.9019 232.039 52.8672 232.209 52.8765 232.38C52.8857 232.55 52.9385 232.716 53.0299 232.86L55.2299 235.99C55.3338 236.144 55.3926 236.324 55.3999 236.51L55.5599 240.34C55.577 240.509 55.6366 240.67 55.7333 240.809C55.8299 240.948 55.9603 241.061 56.1122 241.136C56.2642 241.211 56.4327 241.246 56.602 241.238C56.7712 241.23 56.9357 241.179 57.0799 241.09L60.2199 238.89C60.3712 238.788 60.5475 238.729 60.7299 238.72L64.5599 238.56C64.7284 238.543 64.8899 238.483 65.0291 238.387C65.1683 238.29 65.2806 238.16 65.3556 238.008C65.4306 237.856 65.4657 237.687 65.4577 237.518C65.4497 237.349 65.3988 237.184 65.3099 237.04L63.1199 233.9Z" fill="white" stroke="white" stroke-width="20" stroke-miterlimit="10"/>
<path d="M135.28 161.14L137.85 165.91C137.97 166.124 138.144 166.303 138.356 166.427C138.568 166.552 138.809 166.617 139.055 166.617C139.301 166.617 139.542 166.552 139.754 166.427C139.965 166.303 140.14 166.124 140.26 165.91L142.88 161.17C143.003 160.938 143.191 160.747 143.42 160.62L148.19 158.04C148.405 157.922 148.584 157.748 148.708 157.537C148.833 157.326 148.899 157.085 148.899 156.84C148.899 156.595 148.833 156.354 148.708 156.143C148.584 155.932 148.405 155.758 148.19 155.64L143.46 153C143.228 152.877 143.037 152.689 142.91 152.46L140.33 147.69C140.212 147.475 140.038 147.296 139.827 147.171C139.616 147.047 139.375 146.981 139.13 146.981C138.885 146.981 138.644 147.047 138.433 147.171C138.222 147.296 138.048 147.475 137.93 147.69L135.31 152.43C135.187 152.662 134.999 152.853 134.77 152.98L130 155.57C129.785 155.69 129.607 155.864 129.482 156.076C129.358 156.288 129.292 156.529 129.292 156.775C129.292 157.021 129.358 157.262 129.482 157.474C129.607 157.685 129.785 157.86 130 157.98L134.74 160.6C134.968 160.725 135.155 160.912 135.28 161.14Z" fill="white" stroke="white" stroke-width="20" stroke-miterlimit="10"/>
<path d="M31.84 50.57L35.68 52.7C35.8697 52.7962 36.0238 52.9503 36.12 53.14L38.21 57C38.3054 57.1753 38.4463 57.3217 38.6179 57.4237C38.7894 57.5257 38.9854 57.5795 39.185 57.5795C39.3846 57.5795 39.5805 57.5257 39.7521 57.4237C39.9236 57.3217 40.0646 57.1753 40.16 57L42.29 53.15C42.3914 52.9667 42.5444 52.8172 42.73 52.72L46.59 50.62C46.7656 50.5261 46.9124 50.3863 47.0148 50.2154C47.1171 50.0446 47.1712 49.8492 47.1712 49.65C47.1712 49.4509 47.1171 49.2554 47.0148 49.0846C46.9124 48.9138 46.7656 48.7739 46.59 48.68L42.74 46.55C42.5566 46.4486 42.4071 46.2956 42.31 46.11L40.21 42.25C40.116 42.0744 39.9762 41.9276 39.8054 41.8252C39.6345 41.7228 39.4391 41.6688 39.24 41.6688C39.0408 41.6688 38.8454 41.7228 38.6745 41.8252C38.5037 41.9276 38.3639 42.0744 38.27 42.25L36.14 46.09C36.0438 46.2797 35.8897 46.4339 35.7 46.53L31.84 48.62C31.6646 48.7154 31.5183 48.8563 31.4163 49.0279C31.3143 49.1995 31.2605 49.3954 31.2605 49.595C31.2605 49.7946 31.3143 49.9905 31.4163 50.1621C31.5183 50.3337 31.6646 50.4746 31.84 50.57Z" fill="white" stroke="white" stroke-width="20" stroke-miterlimit="10"/>
<path d="M138.1 205C135.351 203.789 132.374 203.182 129.37 203.22C131.26 194.98 129.5 188.22 122.79 185.05C118.14 182.85 111.23 183.05 108.79 178.39C107.41 175.76 108.34 172.87 109.46 169.32C110.12 167.24 110.8 164.93 110.46 163.18C109.33 158.06 101.62 159.58 96.5699 159.18C89.6899 158.67 88.4599 153.36 88.7599 147.06C88.9999 141.54 89.9999 135.39 86.3299 132C82.9299 128.82 76.8999 128.73 71.0699 129.17C70.4599 129.22 67.9299 135.83 68.8699 135.75C74.5999 135.32 80.5599 135.37 83.9299 138.47C87.6999 141.94 86.3999 148.32 86.2499 153.96C86.1299 158.43 86.6399 163.08 90.4499 164.96C94.4499 166.96 101 164.85 105.18 166.6C110.1 168.67 106.28 173.82 105.64 178.84C105.03 183.58 106.96 186.84 110.71 188.48C114.84 190.32 120.02 190.65 123.39 193.43C124.852 194.632 126.03 196.141 126.841 197.851C127.651 199.56 128.075 201.428 128.08 203.32C123.788 203.738 119.789 205.682 116.81 208.8C116.81 208.8 132.93 211.56 138.1 205Z" fill="white" stroke="white" stroke-width="20" stroke-miterlimit="10"/>
<path d="M187.27 86.58L227.82 24.01L249.58 100.71" fill="#D1A1CF"/>
<path d="M209.46 51.6L204.52 59.08C217.819 60.219 230.524 65.1045 241.16 73.17L238.32 63.17C230.592 55.6737 220.226 51.5179 209.46 51.6Z" fill="white"/>
<path d="M199.61 67.6L194.67 75.22C194.67 75.22 222.55 75.76 248.12 96.44L243.88 83.76C225.43 69.63 199.61 67.6 199.61 67.6Z" fill="white"/>
<path d="M220.23 36.7L216.42 43.23C216.42 43.23 225.63 43.12 235.08 52.65L232.81 44.21C227.22 36.33 220.23 36.7 220.23 36.7Z" fill="white"/>
<g style="mix-blend-mode:multiply" opacity="0.23">
<path d="M226.36 96.74L227.41 22.89L249.17 99.6" fill="#3F2719"/>
</g>
<path d="M187.26 86.66L227.81 24.08L249.57 100.78" stroke="#2D1F04" stroke-width="2.62" stroke-linecap="round" stroke-linejoin="round"/>
<path d="M107.64 369.1C107.64 369.1 109.29 379.72 116.77 380.87C129.6 380.05 125.77 373.59 144.63 374.1C163.49 374.61 184.74 366.82 186.06 364.8C188.88 362.38 193.87 380.69 195.92 386.22C200.17 397.67 205.99 390.38 224.09 387.03C240.35 384.03 263.87 390.69 282.09 381.77C300.31 372.85 310.3 369.24 319.75 355.67C323.35 328.89 320.87 298 318.56 283.78C303.2 265.51 226.78 257.52 226.78 257.52L156 280.1L138.12 338.27C138.12 338.27 131.22 344.46 123.56 344.75C115.9 345.04 112.43 340.55 112.43 340.55L107.64 369.1Z" fill="#CAA77A"/>
<g style="mix-blend-mode:multiply" opacity="0.23">
<path d="M107.84 368.89C107.84 368.89 109.49 379.51 116.98 380.66C129.8 379.84 125.98 373.38 144.83 373.89C163.68 374.4 184.94 366.61 186.26 364.59C187 364 209 353 203.86 353C175.51 353 155.55 327.39 155.55 327.39C155.55 327.39 131.42 344.26 123.76 344.56C116.1 344.86 112.63 340.36 112.63 340.36L107.84 368.89Z" fill="#3F2719"/>
</g>
<g style="mix-blend-mode:multiply" opacity="0.23">
<path d="M215.86 378.68C207.71 381.76 203.42 380 203.36 370.78C203.6 371.93 194.71 383.24 194.99 384.15C199.78 399.73 207.16 390.25 223.99 387.15C240.25 384.15 263.76 390.81 281.99 381.89C300.22 372.97 310.21 369.36 319.66 355.79C322.56 334.15 321.5 309.85 319.77 293.79C319.77 293.79 304.11 304.39 297.77 305.52C315.38 386.93 262.65 361 215.86 378.68Z" fill="#3F2719"/>
</g>
<path d="M173.36 223.12C192.82 230.25 255.06 229.12 273.98 220.68C282.31 216.96 301.84 212.19 297.61 192.86C295.85 184.86 287.81 160.47 282.51 145.86C276.12 128.25 260.05 105.13 244.19 96.54C228.33 87.95 224.27 88.54 215.43 86.69C213.38 86.25 205.52 84.76 207.29 80.52C203.15 80.3 201.78 85.89 201.78 85.89C201.78 85.89 192.12 85.73 190.06 77.96C189.21 79.4352 188.723 81.0915 188.639 82.7921C188.556 84.4927 188.878 86.1887 189.58 87.74C183.58 83.99 170.07 86.8 170.07 86.8C170.07 86.8 178.07 89.57 177.59 93.18C169.25 90.02 161.16 97.12 161.16 97.12C161.16 97.12 172.65 95.2 174 98.93C161.17 101.36 156.44 109.93 156.44 109.93C159.745 108.323 163.439 107.692 167.09 108.11C167.09 108.11 162.17 113.34 158.26 124.68C149.1 151.29 163.38 180.36 169.32 193.35C173.47 202.42 174 207.35 173.94 209.43C173.92 210.39 168.4 221.3 173.36 223.12Z" fill="#CAA77A"/>
<g style="mix-blend-mode:multiply" opacity="0.23">
<path d="M278.06 217.89C286.39 214.16 301.33 211.89 297.06 192.52C295.3 184.52 287.27 160.13 281.96 145.52C275.58 127.91 259.5 104.79 243.65 96.2C227.8 87.61 223.73 88.2 214.89 86.35C212.83 85.91 204.98 84.42 206.74 80.18C202.61 79.96 201.24 85.55 201.24 85.55C201.24 85.55 191.58 85.39 189.51 77.63C188.658 79.103 188.171 80.7584 188.089 82.458C188.008 84.1575 188.334 85.852 189.04 87.4C183.04 83.65 169.53 86.46 169.53 86.46C169.53 86.46 177.47 89.23 177.04 92.85C168.7 89.68 160.61 96.78 160.61 96.78C160.61 96.78 172.1 94.89 173.47 98.63C160.64 101.05 155.91 109.63 155.91 109.63C159.214 108.023 162.91 107.394 166.56 107.82L157.06 128.61C173.61 90.61 222.29 97.51 235.25 104.77C274.19 126.55 277.09 162.88 278.06 217.89Z" fill="#3F2719"/>
</g>
<path d="M147.6 234.13C106.53 294.31 102.74 341.96 138.6 340.52C138.88 340.52 155.99 297.65 172.74 251.74C175.33 244.54 147.6 234.13 147.6 234.13Z" fill="#CAA77A"/>
<g style="mix-blend-mode:multiply" opacity="0.23">
<path d="M124.3 275.25C108.85 313.06 109.22 342.9 139.16 340.53C139.56 335.13 131.66 334.37 132.04 325.42C117.91 318.51 119.24 303.76 124.3 275.25Z" fill="#3F2719"/>
</g>
<path d="M147.6 234.13C106.21 294.79 102.68 342.72 139.43 340.48" stroke="#2D1F04" stroke-width="2.62" stroke-linecap="round" stroke-linejoin="round"/>
<path d="M159.35 141.93C166.84 124.56 177.35 112.49 211.78 112.48C228.97 112.48 254.71 120.89 261.43 133.06C263.68 137.13 276.3 171.06 250.76 190.26C231.76 204.48 190.34 207.36 168.41 184.37C157.91 173.36 155.62 157.13 159.35 141.93Z" fill="#FFDBAF"/>
<path d="M195.6 149.59C188.8 146.18 182.45 163.22 182.99 168.15C184.87 185.07 206.47 190.46 220.24 180.44C236.45 168.66 215.82 144.22 203.99 148.96" fill="#9D7B51"/>
<path d="M156.43 141.12C153.43 148.12 156.21 159.57 158.87 167.24C159.76 169.8 201.19 158.74 190.38 121.19C189.91 119.57 175.48 120.68 164.69 129.37C161.091 132.619 158.268 136.634 156.43 141.12Z" fill="#9D7B51"/>
<path d="M216.87 118.35C205.03 174.22 264.79 170.44 264.79 170.44C264.79 170.44 270.93 147.15 261.19 133.51C260.28 132.23 249.19 121.13 242.37 117.77C231.81 112.59 218.92 111.05 216.87 118.35Z" fill="#9D7B51"/>
<path d="M173.19 210.79C173.19 210.79 174.68 206.38 168.74 193.39C162.8 180.4 148.51 151.33 157.68 124.72C161.58 113.38 166.51 108.15 166.51 108.15C162.856 107.74 159.161 108.381 155.86 110C155.86 110 160.59 101.39 173.42 99C172.05 95.27 160.56 97.16 160.56 97.16C160.56 97.16 168.65 90 177 93.15C177.43 89.54 169.49 86.77 169.49 86.77C169.49 86.77 183 84 189 87.71C188.298 86.159 187.975 84.4637 188.057 82.7634C188.138 81.0631 188.623 79.4065 189.47 77.93C191.54 85.7 201.2 85.86 201.2 85.86C201.2 85.86 202.57 80.27 206.7 80.49C204.94 84.73 212.79 86.22 214.85 86.66C223.69 88.55 227.76 87.93 243.61 96.51C259.46 105.09 275.54 128.22 281.92 145.83C288.3 163.44 297.78 195.37 297.78 195.37" stroke="#2D1F04" stroke-width="2.62" stroke-linecap="round" stroke-linejoin="round"/>
<path d="M170.66 201.45C170.66 201.45 144.74 206.16 136.35 243.54C151.82 243.32 164.8 256.6 164.8 256.6C164.8 256.6 152.99 271.6 154.69 303.76C183.16 319.76 277.29 323.85 326.44 291.71C317.69 243 306.87 212 300.7 196.9C302.39 187.61 295.76 185.9 295.76 185.9C295.76 185.9 270.51 210.9 238.57 218.61C212.1 224.98 182.64 217.47 172.1 209.61C172.416 206.808 171.916 203.975 170.66 201.45Z" fill="#FFDB1F"/>
<path d="M181 246.65C186.61 246.8 191.3 246.86 195.73 247.12C199.44 247.33 200.21 249.95 199.44 252.45C198.35 255.88 195.56 258.19 191.68 259.3C191.48 259.36 191.27 259.39 190.91 259.49C193.82 261.74 192.59 266.14 194.91 270.19L186.8 269.66C185.618 267.323 184.879 264.787 184.62 262.18C184.49 260.86 184.1 259.85 181.85 260.18C180.3 263.04 178.98 266.02 179.15 269.31C176.58 269.21 174.22 269.16 171.63 269.14C171.89 260.63 178.61 254.63 181 246.65ZM186.88 251.43C186.125 252.976 185.291 254.481 184.38 255.94C185.99 255.88 187.48 255.94 189.03 255.77C189.669 255.71 190.285 255.497 190.824 255.149C191.364 254.801 191.812 254.328 192.13 253.77C192.75 252.62 192.46 251.7 191.13 251.55C189.7 251.42 188.26 251.39 186.83 251.43H186.88Z" fill="#2D1F04"/>
<path d="M220.15 253.72L213.15 254.09C213.49 252.09 212.61 251.03 210.83 250.99C210.207 250.94 209.583 251.071 209.033 251.367C208.483 251.663 208.031 252.112 207.73 252.66C207.39 253.79 207.97 254.21 208.73 254.45C210.17 254.91 211.68 255.34 213.19 255.84C214.023 256.126 214.829 256.484 215.6 256.91C220.5 259.53 217.83 266.4 213.09 269.43C211.54 270.408 209.803 271.051 207.99 271.32C205.327 271.713 202.608 271.449 200.07 270.55C199.254 270.308 198.499 269.895 197.855 269.339C197.211 268.783 196.692 268.097 196.334 267.325C195.976 266.553 195.785 265.714 195.776 264.863C195.767 264.013 195.938 263.169 196.28 262.39L202.85 262.32C202.85 262.8 202.77 263.23 202.79 263.65C202.85 265.97 205.01 267.16 207.49 266.35C208.035 266.204 208.537 265.93 208.954 265.551C209.372 265.172 209.692 264.698 209.89 264.17C210.071 263.772 210.091 263.32 209.945 262.908C209.8 262.496 209.5 262.156 209.11 261.96C208.424 261.626 207.72 261.332 207 261.08C205.553 260.601 204.14 260.026 202.77 259.36C200.35 258 200.04 255.78 201.22 253.2C201.821 251.766 202.727 250.48 203.875 249.432C205.024 248.383 206.387 247.598 207.87 247.13C210.695 246.291 213.707 246.329 216.51 247.24C219.54 248.24 220.92 250.2 220.15 253.72Z" fill="#2D1F04"/>
<path d="M214.91 115.52C249.75 115.19 262.91 133.92 262.91 133.92" stroke="#2D1F04" stroke-width="7.6" stroke-linecap="round" stroke-linejoin="round"/>
<path d="M192.18 117.12C184.502 117.767 177.077 120.179 170.485 124.169C163.894 128.158 158.313 133.618 154.18 140.12" stroke="#2D1F04" stroke-width="7.6" stroke-linecap="round" stroke-linejoin="round"/>
<path d="M191.08 149.47C190.98 147.18 195.14 145.1 200.38 144.82C205.62 144.54 209.94 146.18 210.05 148.47C210.16 150.76 205.99 152.84 200.76 153.12C195.53 153.4 191.19 151.76 191.08 149.47Z" fill="#251707"/>
<path d="M226.82 141.3C230.82 136.25 240.48 135.42 246.21 141.93" stroke="#2D1F04" stroke-width="2.6" stroke-linecap="round" stroke-linejoin="round"/>
<path d="M166.6 143.06C173.23 136.43 182.81 140.06 184.37 141.14" stroke="#2D1F04" stroke-width="2.6" stroke-linecap="round" stroke-linejoin="round"/>
<g style="mix-blend-mode:multiply" opacity="0.23">
<path d="M281.81 198C281.81 198 292.69 190.06 294.41 187.73C296.29 185.18 301.48 188.84 301.01 194.67C300.54 200.5 302.01 198.82 302.5 202.51C294.35 194.44 281.81 198 281.81 198Z" fill="#3F2719"/>
</g>
<path d="M300.09 195.49C302.28 189.43 296.01 185.49 294.84 186.64C287.84 193.64 261.43 217.96 229.51 220.27C192.6 222.93 172.51 210 172.51 210C163.05 212.11 169.84 221.27 169.84 221.27C169.84 221.27 183 234.13 229.16 231" stroke="#2D1F04" stroke-width="2.62" stroke-linecap="round" stroke-linejoin="round"/>
<path d="M171.54 201.29C153.93 204.13 142.21 224.29 139.43 235.39C143.83 234.84 152.74 236.14 158.75 241.39" stroke="#2D1F04" stroke-width="2.62" stroke-linecap="round" stroke-linejoin="round"/>
<g style="mix-blend-mode:multiply" opacity="0.23">
<path d="M301.43 268.92C301.43 268.92 311.09 293.36 302.09 304.07C310.09 301.07 318.46 299.3 326.44 291.71C324.21 279.4 314.55 237.79 311.92 230.03C312.11 250.92 301.43 268.92 301.43 268.92Z" fill="#3F2719"/>
</g>
<path d="M300.09 195.49C310.55 214.97 319.84 265.61 326.44 291.71C306.3 309.71 215.32 330.18 154.69 303.76C153.26 277.62 157.69 266.27 168.24 251.58C164.24 231.93 169.65 221.76 169.65 221.76" stroke="#2D1F04" stroke-width="2.62" stroke-linecap="round" stroke-linejoin="round"/>
<path d="M173.36 332C181.87 340.54 192.96 378.11 194.5 382.29C196.04 386.47 205.64 365.06 207.05 360.22C208.46 355.38 181.37 334 173.36 332Z" fill="#D2D2D2"/>
<path d="M173.36 332C187.36 353.78 192.96 378.11 194.5 382.29C196.04 386.47 207.02 365.29 207.05 360.22C207.1 351.73 181.84 335.22 173.36 332Z" stroke="#2D1F04" stroke-width="2.62" stroke-linecap="round" stroke-linejoin="round"/>
<path d="M85.2898 322.86C95.5798 334.06 107.64 370.31 107.64 370.31C107.64 370.31 116.7 365.13 117.8 345.98C107.23 328.89 85.2898 322.86 85.2898 322.86Z" fill="#D2D2D2"/>
<g style="mix-blend-mode:multiply" opacity="0.23">
<path d="M85.3398 322.53C95.6398 333.73 107.69 369.98 107.69 369.98C107.69 369.98 116.75 364.8 117.85 345.65C107.28 328.56 85.3398 322.53 85.3398 322.53Z" fill="#3F2719"/>
</g>
<path d="M85.2898 322.86C100.89 345.29 107.64 370.31 107.64 370.31C107.64 370.31 120.19 357.1 117.54 344.38C103.18 327.12 85.2898 322.86 85.2898 322.86Z" stroke="#2D1F04" stroke-width="2.62" stroke-linecap="round" stroke-linejoin="round"/>
<path d="M203 352.65C203.32 352.65 211.42 356.48 216.54 353.05C230.73 343.57 241.95 318.79 287.18 325.89" stroke="#2D1F04" stroke-width="2.62" stroke-linecap="round" stroke-linejoin="round"/>
<g style="mix-blend-mode:multiply" opacity="0.23">
<path d="M167.87 248.93C172.37 257.85 180.43 254.77 208.37 254.71C232.56 254.34 224.5 264.32 201.88 260.41C189.65 258.18 169.62 254.71 160.66 263.83C163.47 257.72 166 256.45 167.87 248.93Z" fill="#3F2719"/>
</g>
<path d="M319.71 296.39C322.469 316.054 322.469 336.006 319.71 355.67C319.71 355.67 312.85 367.23 290.83 378.02C267.5 389.45 250.9 386.24 232.89 386.33C215.47 386.41 206.55 393.84 201.32 393.33C197.71 392.97 194.5 382.33 194.5 382.33" stroke="#2D1F04" stroke-width="2.62" stroke-linecap="round" stroke-linejoin="round"/>
<path d="M187.4 364C165.69 376.88 141.7 372.58 132.68 375.22C123.66 377.86 121.68 381.5 114.35 380.73C110.61 380.34 107.64 370.27 107.64 370.27" stroke="#2D1F04" stroke-width="2.62" stroke-linecap="round" stroke-linejoin="round"/>
<path d="M115.91 342.49C127.49 348.31 127.73 340.97 135.63 340.49" stroke="#2D1F04" stroke-width="2.62" stroke-linecap="round" stroke-linejoin="round"/>
<path d="M155.38 298C155.38 298 143.92 352.26 186.68 363.82" stroke="#2D1F04" stroke-width="2.62" stroke-linecap="round" stroke-linejoin="round"/>
<path d="M117.91 210.23L142.67 349.29C142.67 349.29 155.56 357.4 164.37 345.35L139.26 205.78C139.26 205.78 133.15 215.64 117.91 210.23Z" fill="#E5E5E5"/>
<path d="M119.88 228.17L119.06 219.16L122.53 228.17L125.13 219.83L128.14 227.91L130.33 220.15L134.6 227.04L135.78 218.51L140.65 225.45L139.66 215.9L141.14 223.72" stroke="#8463AA" stroke-width="2" stroke-linecap="round" stroke-linejoin="round"/>
<path d="M127.52 268.66L126.7 259.65L130.16 268.66L132.77 260.32L135.78 268.39L138.31 260.16L142.23 267.53L143.42 259L148.29 265.93L147.3 256.38L148.77 264.2" stroke="#8463AA" stroke-width="2" stroke-linecap="round" stroke-linejoin="round"/>
<path d="M116.81 209L118.11 217.48C128.77 223.48 139.11 216.06 139.11 216.06L137.92 208.06C137.92 208.06 129.05 214.87 116.81 209Z" fill="#8463AA"/>
<path d="M120.1 227L121.46 235.4C124.761 236.966 128.434 237.577 132.064 237.163C135.694 236.75 139.136 235.328 142 233.06L140.81 225.06C140.81 225.06 132.29 231.16 120.1 227Z" fill="#8463AA"/>
<path d="M124.39 249.91L125.69 258.39C136.35 264.39 147.3 256.39 147.3 256.39L145.62 247.54C142.69 249.946 139.124 251.451 135.356 251.871C131.588 252.292 127.779 251.611 124.39 249.91Z" fill="#8463AA"/>
<path d="M126.13 266.76L133.42 301.09C144.63 308.93 154.86 298.81 154.86 298.81L149.14 264.81C149.14 264.81 138.68 272 126.13 266.76Z" fill="#8463AA"/>
<path d="M134.4 308.93L136.31 319.65C145.71 329.72 158.57 324.84 158.57 324.84L157.38 316.84C157.38 316.84 143.4 321.07 134.4 308.93Z" fill="#D1A1CF"/>
<path d="M133.35 300.7L133.57 301.92C142.96 311.98 155.82 307.1 155.82 307.1L154.63 299.1C154.63 299.1 146.32 307.6 133.35 300.7Z" fill="#D1A1CF"/>
<path d="M133.35 302.33L141.64 348.68C153.23 357.04 162.85 345.21 162.85 345.21L154.63 300.7C154.63 300.7 146.32 309.23 133.35 302.33Z" fill="#D1A1CF"/>
<path d="M138.68 328.89L140.59 339.61C149.99 349.67 162.85 344.79 162.85 344.79L161.66 336.79C161.66 336.79 147.68 341 138.68 328.89Z" fill="#D1A1CF"/>
<path d="M134 301.23C134 301.23 147.16 307.84 155.37 298" stroke="#2D1F04" stroke-width="2.62" stroke-linecap="round" stroke-linejoin="round"/>
<g style="mix-blend-mode:multiply" opacity="0.23">
<path d="M141.7 349.06C143.7 350.33 152.28 357.44 163.54 344.91L138.44 205.35C136.758 207.696 134.389 209.46 131.66 210.4C131.66 210.4 150.44 318.4 150.77 323.49C134.22 328 141.7 349.06 141.7 349.06Z" fill="#3F2719"/>
</g>
<path d="M116.94 210L141.7 349.06C141.7 349.06 154.59 357.17 163.4 345.12L138.3 205.56C138.3 205.56 132.19 215.41 116.94 210Z" stroke="#2D1F04" stroke-width="2.62" stroke-linecap="round" stroke-linejoin="round"/>
<path d="M134.4 309.54C134.4 309.54 128.76 330.54 136.4 336.54C151.97 343.35 160.68 328.2 162 322.26C163.32 316.32 161.71 314.82 159.93 314.91C149.22 323.66 136.14 322.11 134.4 309.54Z" fill="#D2D2D2"/>
<g style="mix-blend-mode:multiply" opacity="0.23">
<path d="M133 322.53C133 322.53 128.92 329.76 136.6 335.78C152.16 342.6 162.03 327.37 162.03 316.39C155.32 330.23 134.77 335.1 133 322.53Z" fill="#3F2719"/>
</g>
<path d="M134.4 309.29C134.4 309.29 128.76 329.93 136.4 335.96C151.97 342.77 160.68 327.62 162 321.68C163.32 315.74 161.71 314.25 159.93 314.33C149.22 323.08 136.14 321.86 134.4 309.29Z" stroke="#2D1F04" stroke-width="2.62" stroke-linecap="round" stroke-linejoin="round"/>
<path d="M139.88 293.27C139.88 293.27 119.69 280.64 123.75 260.41C133.75 273.04 142.75 281.82 154.16 280.64" fill="#D2D2D2"/>
<path d="M144.28 295.54C144.28 295.54 120.07 286.42 123.75 260.41C131.84 274.32 141.75 280.98 153.23 281.41" stroke="#2D1F04" stroke-width="2.62" stroke-linecap="round" stroke-linejoin="round"/>
<path d="M149.14 288.84C139.14 288.97 128.72 279.9 123.56 262.04" stroke="#2D1F04" stroke-width="2.62" stroke-linecap="round" stroke-linejoin="round"/>
<path d="M246.24 253.72C225.88 301 212.16 302 157.88 281.43C149.46 279.53 142.32 282.54 139.88 293.27C151.22 304.42 204.88 336.73 230.39 331.45C255.9 326.17 283.23 302.16 293.58 273.54C293.58 273.54 300.58 263.02 277.84 248.99C257.53 236.44 246.24 253.72 246.24 253.72Z" fill="#CAA77A"/>
<path d="M258.04 275.25L254.65 281.3" stroke="#9D7B51" stroke-width="3.87" stroke-linecap="round" stroke-linejoin="round"/>
<path d="M264.35 275.52L261.21 281.3" stroke="#9D7B51" stroke-width="3.87" stroke-linecap="round" stroke-linejoin="round"/>
<path d="M190.09 205.35L190.51 210.32" stroke="#9D7B51" stroke-width="3.87" stroke-linecap="round" stroke-linejoin="round"/>
<path d="M183.94 203.3L184.37 208.27" stroke="#9D7B51" stroke-width="3.87" stroke-linecap="round" stroke-linejoin="round"/>
<path d="M271.19 350.61L264.57 352.68" stroke="#9D7B51" stroke-width="3.87" stroke-linecap="round" stroke-linejoin="round"/>
<path d="M276.86 361.57L270.24 363.64" stroke="#9D7B51" stroke-width="3.87" stroke-linecap="round" stroke-linejoin="round"/>
<path d="M269.31 357.58L263.06 359.63" stroke="#9D7B51" stroke-width="3.87" stroke-linecap="round" stroke-linejoin="round"/>
<path d="M244.76 253.15C244.76 253.15 241.34 249.08 242 246.53C244.5 236.78 253.08 214.59 263.64 206.16C272.88 198.79 287.64 194.6 298.39 199.89C309.62 205.41 317.91 223.34 307.45 255.89C305.24 262.78 299.11 271.89 299.11 271.89C298.648 272.64 297.966 273.229 297.157 273.576C296.348 273.924 295.451 274.012 294.59 273.83C288.021 268.805 281.059 264.317 273.77 260.41C267.7 257.27 259.6 253.79 244.76 253.15Z" fill="#FFDB1F"/>
<path d="M243.26 242.2C243.26 242.2 261.26 240.76 276.41 250.92" stroke="#2D1F04" stroke-width="2.62" stroke-linecap="round" stroke-linejoin="round"/>
<path d="M251 248.05C250.913 246.419 251.317 244.799 252.16 243.4" stroke="#2D1F04" stroke-width="2.62" stroke-linecap="round" stroke-linejoin="round"/>
<path d="M256.1 249C255.813 247.437 256.104 245.824 256.92 244.46" stroke="#2D1F04" stroke-width="2.62" stroke-linecap="round" stroke-linejoin="round"/>
<path d="M268.28 253.27C268.048 251.226 268.544 249.165 269.68 247.45" stroke="#2D1F04" stroke-width="2.62" stroke-linecap="round" stroke-linejoin="round"/>
<g style="mix-blend-mode:multiply" opacity="0.23">
<path d="M290.44 263.47C251.44 342.35 194.5 325.47 142.69 286.4C141.69 287.68 139.27 290.45 139.88 294.1C151.22 305.25 204.88 337.1 230.39 331.81C255.9 326.52 283.23 302.53 293.58 273.91C293.58 273.91 298.81 275.25 304.15 264.91C304.8 263.66 323.75 222.42 300.79 200.78C295.48 198.1 284.01 196.25 277.08 199.11C310.76 209.71 290.44 263.47 290.44 263.47Z" fill="#3F2719"/>
</g>
<path d="M245.49 253.27C229.74 290.02 222.32 307.51 156.81 281.38C153.005 281.033 149.197 282.011 146.03 284.149C142.863 286.286 140.532 289.452 139.43 293.11C150.77 304.26 204.85 336.73 230.43 331.45C256.01 326.17 283.27 302.16 293.62 273.54" stroke="#2D1F04" stroke-width="2.62" stroke-linecap="round" stroke-linejoin="round"/>
<path d="M245.77 253.27C245.77 253.27 241.34 249.08 242 246.53C244.5 236.78 253.08 214.59 263.64 206.16C272.88 198.79 287.64 194.6 298.39 199.89C309.62 205.41 317.91 223.34 307.45 255.89C305.24 262.78 302.28 268.71 299.11 271.89C298.06 272.96 296.8 273.57 293.58 273.06" stroke="#2D1F04" stroke-width="2.62" stroke-linecap="round" stroke-linejoin="round"/>
<path d="M133 324.53C133 324.53 143.63 341.73 162 316.39" stroke="#2D1F04" stroke-width="2.62" stroke-linecap="round" stroke-linejoin="round"/>
<path d="M86.9998 324.07C86.9998 324.07 113.75 339.24 115.6 357.07" stroke="#2D1F04" stroke-width="2.62" stroke-linecap="round" stroke-linejoin="round"/>
<path d="M175.22 333.21C175.22 333.21 200.84 352.51 202.7 370.31" stroke="#2D1F04" stroke-width="2.62" stroke-linecap="round" stroke-linejoin="round"/>
<path d="M176.22 212.33C176.22 212.33 174.15 215.85 175.51 219.33" stroke="#2D1F04" stroke-width="2.62" stroke-linecap="round" stroke-linejoin="round"/>
<path d="M182.21 214.87C182.21 214.87 181.02 218.44 182.21 221.35" stroke="#2D1F04" stroke-width="2.62" stroke-linecap="round" stroke-linejoin="round"/>
<path d="M194.9 218.66C194.273 220.866 194.273 223.204 194.9 225.41" stroke="#2D1F04" stroke-width="2.62" stroke-linecap="round" stroke-linejoin="round"/>
<path d="M220.05 220.72C219.741 221.397 219.581 222.131 219.581 222.875C219.581 223.619 219.741 224.354 220.05 225.03" stroke="#2D1F04" stroke-width="2.62" stroke-linecap="round" stroke-linejoin="round"/>
<path d="M225.5 220.72C225.191 221.397 225.031 222.131 225.031 222.875C225.031 223.619 225.191 224.354 225.5 225.03" stroke="#2D1F04" stroke-width="2.62" stroke-linecap="round" stroke-linejoin="round"/>
<path d="M233 36.37L227.27 32.15C227.107 32.029 226.917 31.9493 226.717 31.918C226.517 31.8866 226.312 31.9045 226.12 31.97L219.4 34.3C219.179 34.3781 218.94 34.3924 218.711 34.3412C218.482 34.2901 218.272 34.1756 218.105 34.0108C217.938 33.8459 217.821 33.6375 217.767 33.4093C217.713 33.181 217.725 32.9422 217.8 32.72L220.05 26C220.111 25.807 220.126 25.6021 220.093 25.4021C220.06 25.2022 219.98 25.013 219.86 24.85L215.56 19.17C215.421 18.9843 215.336 18.7635 215.315 18.5323C215.294 18.3011 215.338 18.0686 215.442 17.861C215.546 17.6534 215.705 17.4787 215.903 17.3567C216.1 17.2347 216.328 17.17 216.56 17.17H223.68C223.877 17.1662 224.071 17.1153 224.245 17.0213C224.419 16.9274 224.568 16.7932 224.68 16.63L228.75 10.8C228.883 10.6076 229.066 10.4562 229.281 10.3631C229.495 10.27 229.731 10.2389 229.963 10.2732C230.194 10.3076 230.411 10.4061 230.589 10.5575C230.767 10.709 230.899 10.9073 230.97 11.13L233.13 17.92C233.19 18.1143 233.298 18.2907 233.442 18.4337C233.587 18.5767 233.765 18.6819 233.96 18.74L240.77 20.81C240.992 20.8787 241.191 21.008 241.344 21.1835C241.497 21.359 241.597 21.5737 241.635 21.8034C241.672 22.0331 241.645 22.2687 241.556 22.4836C241.466 22.6986 241.319 22.8843 241.13 23.02L235.35 27.17C235.19 27.2832 235.059 27.433 234.969 27.6069C234.878 27.7809 234.831 27.974 234.83 28.17L234.96 35.28C234.971 35.5131 234.918 35.7449 234.804 35.9489C234.691 36.153 234.523 36.3213 234.319 36.4347C234.115 36.5482 233.883 36.6022 233.65 36.5908C233.417 36.5794 233.192 36.5029 233 36.37Z" fill="#FFDB1F" stroke="#2D1F04" stroke-width="2.62" stroke-linecap="round" stroke-linejoin="round"/>
<path d="M116.81 209C116.81 209 124.81 199.61 138.1 205.23C131.3 214.21 116.81 209 116.81 209Z" fill="#472D07" stroke="#2D1F04" stroke-width="2.62" stroke-linecap="round" stroke-linejoin="round"/>
<path d="M197.71 158.26C194.16 164.32 188.49 159.43 188.29 159.26C183.43 172.93 194.15 178.66 200.91 179.74C207.91 180.86 217.44 178.4 221.2 170.12C222.67 166.87 222.67 159.63 218.88 157.12C218.67 156.98 215.5 162.51 214.51 162.96C209.15 165.39 199.54 163.46 197.71 158.26Z" fill="#251707"/>
<path d="M196.84 175.23C196.84 175.23 201.11 178.93 209.32 177C211.226 176.548 213.017 175.705 214.58 174.524C216.143 173.343 217.444 171.85 218.4 170.14C218.4 170.14 215.3 167.29 209.21 167.98C206.744 168.214 204.36 168.985 202.223 170.237C200.086 171.489 198.249 173.193 196.84 175.23Z" fill="#FF8A8A"/>
<path d="M198.11 152.67C195.31 163.44 212.85 166.36 218.4 158.19" stroke="#251707" stroke-width="2.6" stroke-linecap="round" stroke-linejoin="round"/>
<path d="M210.27 166.25C210.27 166.25 205.01 168.04 206.27 172.95" stroke="#251707" stroke-width="2" stroke-miterlimit="10" stroke-linecap="round"/>
<path d="M51.2199 187.52C52.6557 187.416 53.9972 186.766 54.9696 185.704C55.942 184.643 56.4716 183.249 56.4499 181.81C56.4499 179.09 54.3999 176.3 52.5599 174.48C51.5147 173.399 50.1774 172.647 48.7115 172.314C47.2455 171.981 45.7143 172.082 44.3048 172.605C42.8953 173.127 41.6686 174.049 40.7745 175.258C39.8804 176.466 39.3576 177.909 39.2699 179.41C38.6499 185.69 44.0199 192.41 49.5699 194.72C58.0199 198.26 66.8999 193.95 74.6599 190.66C79.6326 188.407 84.9514 187.014 90.3899 186.54C92.9699 186.37 95.8199 186.23 98.1899 187.42C100.91 188.79 101.78 191.92 102.72 194.59C103.163 195.663 103.808 196.64 104.62 197.47C104.81 197.67 105.92 198.83 105.62 197.88C103.4 191.59 99.4899 183.12 91.9299 182.43C81.5199 181.43 72.7499 186.74 63.3199 190.03C58.5999 191.68 53.4299 192.7 48.5299 191.23C46.5999 190.65 43.7899 189.57 42.8299 187.64C41.8699 185.71 42.1299 182.39 43.0799 180.37C43.8608 178.702 45.2396 177.388 46.9434 176.687C48.6472 175.987 50.5517 175.953 52.2799 176.59C54.2799 177.3 53.5399 179.43 52.5499 180.98C52.1138 181.72 51.4947 182.334 50.7521 182.765C50.0094 183.196 49.1684 183.429 48.3099 183.44C48.6599 183.44 49.9199 187.56 51.2499 187.52H51.2199Z" fill="#8DDDEB" stroke="#2D1F04" stroke-width="2.62" stroke-linecap="round" stroke-linejoin="round"/>
<path d="M155 86.24C146.003 83.9552 136.592 83.8353 127.54 85.89C123.668 86.6308 119.979 88.1221 116.68 90.28C113.34 92.66 109.58 96.04 107.86 99.85C103.68 109.1 116.95 111.74 122.86 113.57C127 114.86 131.65 116.57 134.78 119.7C136 120.93 137.41 123.06 136.42 124.85C135.59 126.37 133.42 127.59 132.17 128.75C126.9 133.51 116.98 143.56 123.72 151.01C124.42 151.78 131.93 144.74 131.01 143.72C128.29 140.72 128.3 135.6 130.76 132.35C132.147 130.957 133.616 129.648 135.16 128.43C137.063 126.721 138.854 124.891 140.52 122.95C143.33 119.66 145.67 116.06 142.06 112.41C138.73 109.04 133.63 107.31 129.2 106C124.77 104.69 119.69 104.06 116.56 100.52C115.14 99 114 96 116.32 94.46C126 90 137.42 91 147.7 93.52C148.95 93.84 151.15 91.22 151.92 90.45C152.17 90.2 155.4 86.34 154.99 86.24H155Z" fill="#8DDDEB" stroke="#2D1F04" stroke-width="2.62" stroke-linecap="round" stroke-linejoin="round"/>
<path d="M30.2798 145.67C31.1798 152.21 36.9398 154.67 42.8298 155.67C49.1398 156.74 54.6098 152.95 58.5498 148.28C59.5498 147.04 59.2898 146.71 57.8798 147.46C56.0198 148.46 56.1198 149.13 54.3298 149.67C53.7686 149.772 53.2001 149.828 52.6298 149.84C51.5046 149.85 50.3815 149.739 49.2798 149.51C47.3126 149.16 45.3953 148.572 43.5698 147.76C41.9673 147.032 40.5795 145.904 39.5407 144.483C38.5019 143.062 37.8471 141.398 37.6398 139.65C37.5698 139.18 33.7498 141.86 33.4898 142.07C32.6998 142.71 30.1198 144.42 30.2798 145.65V145.67Z" fill="#FDF392" stroke="#2D1F04" stroke-width="2.62" stroke-linecap="round" stroke-linejoin="round"/>
<path d="M123.86 69.38C129.29 73.12 135.01 70.55 139.71 66.88C144.71 62.94 145.66 56.34 144.86 50.28C144.65 48.68 144.2 48.68 143.8 50.22C143.28 52.22 143.8 52.65 143.04 54.33C142.747 54.8149 142.412 55.2733 142.04 55.7C141.288 56.5612 140.439 57.333 139.51 58C137.928 59.2094 136.201 60.2171 134.37 61C132.751 61.6965 130.98 61.9631 129.228 61.7739C127.476 61.5846 125.803 60.9461 124.37 59.92C123.97 59.64 123.37 64.28 123.37 64.61C123.32 65.61 122.84 68.68 123.86 69.39V69.38Z" fill="#FDF392" stroke="#2D1F04" stroke-width="2.62" stroke-linecap="round" stroke-linejoin="round"/>
<path d="M33.9098 81.89C31.0998 87.07 32.6898 93.62 38.4098 96C39.9098 96.62 41.4798 97 42.9598 97.74C44.4919 98.5276 45.9777 99.4024 47.4098 100.36C48.6873 101.057 49.8234 101.986 50.7598 103.1C51.1164 103.56 51.3843 104.082 51.5498 104.64C51.6895 105.11 51.7303 105.604 51.6698 106.09C51.4098 106.91 50.1498 108.09 50.9298 108.18C51.8698 108.29 53.9298 105.82 54.4098 105.27C56.4098 103.16 57.9498 100.6 55.9598 97.9C54.1498 95.45 50.4898 93.65 47.8198 92.39C44.7598 90.95 41.6298 90.52 39.4898 87.64C38.4581 86.2433 37.8462 84.5813 37.7258 82.849C37.6053 81.1168 37.9814 79.3861 38.8098 77.86C39.5298 76.54 37.5498 78.04 37.3198 78.23C35.969 79.2473 34.8137 80.5009 33.9098 81.93V81.89Z" fill="#DBA7E8" stroke="#2D1F04" stroke-width="2.62" stroke-linecap="round" stroke-linejoin="round"/>
<path d="M72.8599 49.77C77.5561 51.0152 81.9456 53.2143 85.7547 56.2302C89.5638 59.2462 92.7109 63.0144 94.9999 67.3C99.9999 76.67 99.2999 87.11 97.3199 97.2C95.3399 107.29 92.1199 117.2 92.7999 127.54C93.3699 136.22 97.5799 147.76 107.86 148.1C109.52 148.16 111.6 144.99 112.51 143.85C112.8 143.48 116.01 138.39 115.62 138.37C104.79 138.01 100.75 125.37 100.62 116.37C100.46 106.04 103.82 96.05 105.62 85.97C107.34 76.34 107.48 66.39 102.77 57.54C100.477 53.2615 97.3283 49.5007 93.5194 46.4917C89.7104 43.4828 85.3229 41.29 80.6299 40.05C79.2299 39.68 76.6899 43.4 75.9799 44.3C75.7099 44.64 72.2099 49.6 72.8599 49.77Z" fill="#DBA7E8" stroke="#2D1F04" stroke-width="2.62" stroke-linecap="round" stroke-linejoin="round"/>
<path d="M71.46 109.71L71.87 105.98C71.9013 105.818 71.9723 105.666 72.0767 105.538C72.1811 105.41 72.3155 105.31 72.468 105.246C72.6206 105.183 72.7864 105.158 72.9508 105.175C73.1152 105.191 73.2729 105.248 73.41 105.34L76.33 107.69C76.4684 107.808 76.6392 107.881 76.82 107.9L80.55 108.3C80.7122 108.331 80.864 108.402 80.9921 108.507C81.1201 108.611 81.2203 108.746 81.2837 108.898C81.3471 109.051 81.3717 109.216 81.3553 109.381C81.339 109.545 81.2822 109.703 81.19 109.84L78.83 112.76C78.7188 112.905 78.6497 113.078 78.63 113.26L78.22 117C78.1886 117.162 78.1176 117.314 78.0132 117.442C77.9089 117.57 77.7744 117.67 77.6219 117.734C77.4694 117.797 77.3035 117.822 77.1391 117.805C76.9748 117.789 76.817 117.732 76.68 117.64L73.76 115.29C73.6216 115.172 73.4508 115.099 73.27 115.08L69.54 114.68C69.3787 114.647 69.2279 114.575 69.1011 114.47C68.9743 114.365 68.8753 114.231 68.813 114.079C68.7507 113.926 68.7269 113.761 68.7438 113.597C68.7607 113.433 68.8178 113.276 68.91 113.14L71.26 110.22C71.3728 110.072 71.4421 109.895 71.46 109.71Z" fill="#FDF392" stroke="#2D1F04" stroke-width="2.62" stroke-linecap="round" stroke-linejoin="round"/>
<path d="M86.9999 210.55L87.4099 206.82C87.4275 206.651 87.4904 206.491 87.592 206.355C87.6936 206.219 87.83 206.113 87.9869 206.048C88.1437 205.984 88.3151 205.963 88.4829 205.988C88.6507 206.013 88.8086 206.083 88.9399 206.19L91.8599 208.54C92.004 208.655 92.177 208.727 92.3599 208.75L96.0899 209.15C96.2512 209.183 96.4019 209.255 96.5288 209.36C96.6556 209.465 96.7545 209.599 96.8169 209.751C96.8792 209.904 96.9029 210.069 96.886 210.233C96.8691 210.397 96.812 210.554 96.7199 210.69L94.3699 213.61C94.252 213.748 94.1788 213.919 94.1599 214.1L93.7599 217.83C93.7285 217.992 93.6575 218.144 93.5531 218.272C93.4488 218.4 93.3143 218.5 93.1618 218.564C93.0093 218.627 92.8434 218.652 92.679 218.635C92.5147 218.619 92.3569 218.562 92.2199 218.47L89.2999 216.12C89.1615 216.002 88.9907 215.929 88.8099 215.91L85.0799 215.5C84.9103 215.484 84.7483 215.422 84.6111 215.321C84.474 215.22 84.3668 215.084 84.3011 214.927C84.2354 214.77 84.2136 214.598 84.238 214.429C84.2625 214.261 84.3322 214.102 84.4399 213.97L86.7999 211.05C86.911 210.905 86.9802 210.732 86.9999 210.55Z" fill="#FDF392" stroke="#2D1F04" stroke-width="2.62" stroke-linecap="round" stroke-linejoin="round"/>
<path d="M65.1899 164.35V159.15C65.1923 158.918 65.2564 158.69 65.3756 158.491C65.4949 158.292 65.665 158.128 65.8685 158.016C66.072 157.904 66.3017 157.848 66.5339 157.854C66.7661 157.86 66.9925 157.928 67.1899 158.05L71.5599 160.85C71.7707 160.988 72.0177 161.061 72.2699 161.06H77.4599C77.693 161.061 77.9217 161.123 78.1225 161.242C78.3232 161.361 78.4886 161.53 78.6018 161.734C78.7149 161.938 78.7716 162.168 78.766 162.401C78.7604 162.635 78.6927 162.862 78.5699 163.06L75.7599 167.43C75.6305 167.644 75.5614 167.89 75.5599 168.14V173.33C75.5593 173.563 75.4964 173.792 75.3779 173.993C75.2594 174.193 75.0894 174.359 74.8856 174.472C74.6818 174.585 74.4515 174.642 74.2184 174.636C73.9854 174.63 73.7581 174.563 73.5599 174.44L69.1899 171.64C68.9827 171.502 68.7389 171.429 68.4899 171.43H63.2899C63.0576 171.428 62.8302 171.363 62.6309 171.244C62.4315 171.125 62.2675 170.955 62.1556 170.751C62.0436 170.548 61.9878 170.318 61.9939 170.086C61.9999 169.854 62.0675 169.627 62.1899 169.43L64.9899 165.06C65.1232 164.847 65.1926 164.601 65.1899 164.35Z" fill="#DBA7E8" stroke="#2D1F04" stroke-width="2.62" stroke-linecap="round" stroke-linejoin="round"/>
<path d="M120.82 170.66V166.76C120.824 166.585 120.874 166.413 120.966 166.263C121.057 166.114 121.186 165.99 121.34 165.906C121.494 165.822 121.668 165.78 121.843 165.784C122.019 165.788 122.19 165.839 122.34 165.93L125.63 168.04C125.789 168.139 125.973 168.191 126.16 168.19H130.06C130.234 168.195 130.403 168.246 130.552 168.337C130.7 168.427 130.822 168.555 130.906 168.708C130.99 168.86 131.033 169.032 131.03 169.206C131.027 169.38 130.979 169.55 130.89 169.7L128.79 172.99C128.683 173.146 128.627 173.331 128.63 173.52V177.43C128.626 177.605 128.575 177.777 128.484 177.927C128.393 178.076 128.263 178.2 128.109 178.284C127.955 178.368 127.782 178.41 127.606 178.406C127.431 178.402 127.26 178.351 127.11 178.26L123.82 176.15C123.662 176.048 123.478 175.992 123.29 175.99H119.39C119.214 175.986 119.043 175.935 118.893 175.844C118.743 175.753 118.62 175.624 118.536 175.47C118.452 175.316 118.41 175.142 118.414 174.967C118.418 174.791 118.469 174.62 118.56 174.47L120.67 171.19C120.768 171.031 120.82 170.847 120.82 170.66Z" fill="#DBA7E8" stroke="#2D1F04" stroke-width="2.62" stroke-linecap="round" stroke-linejoin="round"/>
<path d="M16.1899 112.64L18.8799 107.77C19.0016 107.549 19.1804 107.365 19.3977 107.236C19.6149 107.108 19.8626 107.04 20.1149 107.04C20.3672 107.04 20.6149 107.108 20.8321 107.236C21.0493 107.365 21.2281 107.549 21.3499 107.77L23.9999 112.67C24.1265 112.905 24.3172 113.099 24.5499 113.23L29.4199 115.92C29.6409 116.042 29.8251 116.221 29.9535 116.438C30.0818 116.655 30.1495 116.903 30.1495 117.155C30.1495 117.407 30.0818 117.655 29.9535 117.872C29.8251 118.089 29.6409 118.268 29.4199 118.39L24.5199 121C24.2822 121.127 24.0873 121.322 23.9599 121.56L21.2699 126.43C21.1481 126.651 20.9693 126.835 20.7521 126.964C20.5349 127.092 20.2872 127.16 20.0349 127.16C19.7826 127.16 19.5349 127.092 19.3177 126.964C19.1004 126.835 18.9216 126.651 18.7999 126.43L16.1499 121.53C16.0203 121.297 15.8303 121.104 15.5999 120.97L10.7299 118.28C10.5086 118.16 10.3239 117.982 10.1952 117.765C10.0665 117.549 9.99854 117.302 9.99854 117.05C9.99854 116.798 10.0665 116.551 10.1952 116.334C10.3239 116.118 10.5086 115.94 10.7299 115.82L15.6199 113.17C15.8571 113.052 16.0551 112.868 16.1899 112.64Z" fill="#8DDDEB" stroke="#2D1F04" stroke-width="2.62" stroke-linecap="round" stroke-linejoin="round"/>
<path d="M76.3198 75.67L80.8798 72.48C81.0872 72.3367 81.3292 72.2517 81.5806 72.2337C81.8321 72.2158 82.0837 72.2656 82.3094 72.3779C82.535 72.4902 82.7264 72.661 82.8637 72.8724C83.001 73.0838 83.079 73.3281 83.0898 73.58L83.3098 79.13C83.3199 79.4003 83.4105 79.6614 83.5698 79.88L86.7598 84.44C86.903 84.6474 86.9881 84.8894 87.006 85.1408C87.024 85.3922 86.9742 85.6439 86.8619 85.8695C86.7496 86.0952 86.5788 86.2866 86.3674 86.4239C86.156 86.5611 85.9116 86.6392 85.6598 86.65L80.0998 86.88C79.8313 86.8912 79.5713 86.9778 79.3498 87.13L74.7998 90.32C74.593 90.4655 74.3509 90.5527 74.0988 90.5725C73.8467 90.5923 73.5939 90.544 73.3669 90.4325C73.14 90.3211 72.9471 90.1506 72.8086 89.9391C72.6702 89.7275 72.5911 89.4826 72.5798 89.23L72.3598 83.67C72.3496 83.3997 72.2591 83.1386 72.0998 82.92L68.9098 78.36C68.7669 78.1533 68.6819 77.9121 68.6635 77.6615C68.6451 77.4109 68.694 77.1599 68.8051 76.9345C68.9163 76.7092 69.0856 76.5176 69.2957 76.3797C69.5057 76.2417 69.7488 76.1624 69.9998 76.15L75.5598 75.92C75.8326 75.9153 76.0975 75.8282 76.3198 75.67Z" fill="#8DDDEB" stroke="#2D1F04" stroke-width="2.62" stroke-linecap="round" stroke-linejoin="round"/>
<path d="M128.24 25.59L131.38 23.39C131.525 23.3008 131.69 23.25 131.86 23.2425C132.03 23.2351 132.199 23.2711 132.351 23.3472C132.503 23.4232 132.634 23.5369 132.73 23.6774C132.826 23.8179 132.884 23.9805 132.9 24.15L133.06 27.97C133.059 28.1571 133.119 28.3394 133.23 28.49L135.43 31.63C135.519 31.7749 135.57 31.9402 135.577 32.1101C135.585 32.2801 135.549 32.4492 135.473 32.6014C135.397 32.7536 135.283 32.8838 135.142 32.9798C135.002 33.0758 134.839 33.1344 134.67 33.15L130.85 33.31C130.663 33.3093 130.48 33.3689 130.33 33.48L127.19 35.68C127.045 35.7692 126.88 35.8199 126.71 35.8274C126.54 35.8349 126.371 35.7989 126.218 35.7228C126.066 35.6467 125.936 35.5331 125.84 35.3926C125.744 35.2521 125.685 35.0894 125.67 34.92L125.51 31.1C125.511 30.9129 125.451 30.7305 125.34 30.58L123.14 27.44C123.051 27.2951 123 27.1298 122.992 26.9598C122.985 26.7898 123.021 26.6208 123.097 26.4686C123.173 26.3164 123.287 26.1861 123.427 26.0901C123.568 25.9941 123.73 25.9356 123.9 25.92L127.72 25.76C127.907 25.7607 128.089 25.7011 128.24 25.59Z" fill="#8DDDEB" stroke="#2D1F04" stroke-width="2.62" stroke-linecap="round" stroke-linejoin="round"/>
<path d="M58.1298 231.27L61.2598 229.08C61.4042 228.989 61.5697 228.936 61.7403 228.927C61.9109 228.917 62.0811 228.952 62.2345 229.027C62.388 229.102 62.5196 229.216 62.6168 229.356C62.714 229.497 62.7736 229.66 62.7898 229.83L62.9398 233.66C62.9518 233.843 63.0141 234.02 63.1198 234.17L65.3098 237.31C65.3988 237.454 65.4497 237.619 65.4577 237.788C65.4657 237.957 65.4305 238.126 65.3556 238.278C65.2806 238.43 65.1682 238.56 65.029 238.657C64.8899 238.753 64.7284 238.813 64.5598 238.83L60.7298 238.99C60.5475 238.999 60.3711 239.058 60.2198 239.16L57.0798 241.36C56.9356 241.449 56.7712 241.5 56.6019 241.508C56.4327 241.516 56.2642 241.481 56.1122 241.406C55.9603 241.331 55.8299 241.218 55.7332 241.079C55.6366 240.94 55.5769 240.779 55.5598 240.61L55.3998 236.78C55.3879 236.595 55.3294 236.416 55.2298 236.26L52.9998 233.13C52.9085 232.986 52.8557 232.82 52.8464 232.65C52.8372 232.479 52.8718 232.309 52.9471 232.155C53.0223 232.002 53.1355 231.87 53.2761 231.773C53.4166 231.676 53.5797 231.616 53.7498 231.6L57.5798 231.45C57.7769 231.445 57.9682 231.383 58.1298 231.27Z" fill="#8DDDEB" stroke="#2D1F04" stroke-width="2.62" stroke-linecap="round" stroke-linejoin="round"/>
<path d="M135.31 152.73L137.93 147.98C138.048 147.765 138.222 147.586 138.433 147.462C138.644 147.337 138.885 147.271 139.13 147.271C139.375 147.271 139.616 147.337 139.827 147.462C140.038 147.586 140.212 147.765 140.33 147.98L142.91 152.75C143.037 152.979 143.228 153.167 143.46 153.29L148.2 155.91C148.414 156.03 148.593 156.205 148.717 156.416C148.842 156.628 148.907 156.869 148.907 157.115C148.907 157.361 148.842 157.602 148.717 157.814C148.593 158.025 148.414 158.2 148.2 158.32L143.43 160.9C143.199 161.021 143.011 161.209 142.89 161.44L140.27 166.18C140.15 166.394 139.975 166.573 139.763 166.698C139.552 166.822 139.31 166.887 139.065 166.887C138.819 166.887 138.578 166.822 138.366 166.698C138.154 166.573 137.98 166.394 137.86 166.18L135.29 161.42C135.163 161.188 134.972 160.997 134.74 160.87L130 158.25C129.785 158.132 129.606 157.958 129.481 157.747C129.357 157.536 129.291 157.295 129.291 157.05C129.291 156.805 129.357 156.564 129.481 156.353C129.606 156.142 129.785 155.968 130 155.85L134.77 153.27C134.996 153.144 135.183 152.957 135.31 152.73Z" fill="#FDF392" stroke="#2D1F04" stroke-width="2.62" stroke-linecap="round" stroke-linejoin="round"/>
<path d="M36.1498 46.37L38.2798 42.52C38.3737 42.3444 38.5136 42.1975 38.6844 42.0952C38.8552 41.9928 39.0506 41.9387 39.2498 41.9387C39.449 41.9387 39.6444 41.9928 39.8152 42.0952C39.986 42.1975 40.1259 42.3444 40.2198 42.52L42.3198 46.38C42.417 46.5656 42.5665 46.7186 42.7498 46.82L46.5998 49C46.7751 49.0954 46.9215 49.2363 47.0235 49.4079C47.1254 49.5795 47.1793 49.7754 47.1793 49.975C47.1793 50.1746 47.1254 50.3705 47.0235 50.5421C46.9215 50.7137 46.7751 50.8546 46.5998 50.95L42.7298 53C42.5401 53.0961 42.3859 53.2502 42.2898 53.44L40.1598 57.28C40.0644 57.4553 39.9235 57.6017 39.7519 57.7036C39.5803 57.8056 39.3844 57.8594 39.1848 57.8594C38.9852 57.8594 38.7893 57.8056 38.6177 57.7036C38.4461 57.6017 38.3052 57.4553 38.2098 57.28L36.1198 53.42C36.0237 53.2302 35.8695 53.0761 35.6798 52.98L31.8398 50.85C31.6642 50.7561 31.5174 50.6162 31.415 50.4454C31.3126 50.2746 31.2585 50.0791 31.2585 49.88C31.2585 49.6808 31.3126 49.4854 31.415 49.3146C31.5174 49.1437 31.6642 49.0039 31.8398 48.91L35.6998 46.82C35.8888 46.7149 36.0447 46.559 36.1498 46.37Z" fill="#FDF392" stroke="#2D1F04" stroke-width="2.62" stroke-linecap="round" stroke-linejoin="round"/>
<path d="M68.8699 136C74.5999 135.57 80.5599 135.61 83.9299 138.71C87.6999 142.19 86.3999 148.56 86.2499 154.2C86.1299 158.67 86.6399 163.33 90.4499 165.2C94.4499 167.15 101 165.09 105.18 166.84C110.1 168.91 106.28 174.06 105.64 179.08C105.03 183.82 106.96 187.08 110.71 188.72C114.84 190.57 120.02 190.89 123.39 193.67C126.45 196.21 129.45 201.38 127.39 206.78C127.12 207.52 125.83 210.42 126.39 210.78C126.95 211.14 127.74 208.59 127.82 208.38C131.7 197.97 130.71 189.11 122.71 185.32C118.06 183.12 111.15 183.27 108.71 178.66C107.33 176.03 108.26 173.15 109.38 169.59C110.04 167.51 110.72 165.2 110.38 163.45C109.25 158.33 101.54 159.85 96.4899 159.45C89.6099 158.94 88.3799 153.64 88.6799 147.34C88.9499 141.79 89.8799 135.64 86.2599 132.25C82.8599 129.07 76.8299 128.99 70.9999 129.42C70.3899 129.47 67.8599 136.08 68.7999 136.01L68.8699 136Z" fill="#8DDDEB" stroke="#2D1F04" stroke-width="2.62" stroke-linecap="round" stroke-linejoin="round"/>
</svg>
