<svg width="455" height="322" viewBox="0 0 455 322" fill="none" xmlns="http://www.w3.org/2000/svg">
<g clip-path="url(#clip0_243_346)">
<path d="M454.45 124.34C453.15 110.34 447.29 102.5 441.82 96.54C441.57 92.78 442.67 88.01 443.4 84.85C444.43 81.4184 445.631 78.0408 447 74.73C449.37 68.73 452 61.96 448.25 54.57L448.18 54.43C447.97 54.02 447.75 53.62 447.49 53.2C446.689 51.938 445.697 50.8079 444.55 49.85C444.12 49.49 443.75 49.23 443.49 49.05L443.38 48.98C442.977 48.7052 442.56 48.4515 442.13 48.22L441.42 47.87C439.306 46.8887 437.001 46.39 434.67 46.41C425.38 46.41 414.45 54.25 407.67 62.12C402.574 67.6187 398.811 74.2152 396.67 81.4C394.67 81.21 392.67 81.11 390.86 81.11C382.58 81.11 376.43 83.11 372.05 87.11C363.7 94.82 361.38 107.04 361.71 115.27C359 122.794 358.311 130.897 359.71 138.77C359.504 140.255 359.585 141.766 359.95 143.22C359.81 145.456 359.84 147.699 360.04 149.93C360.507 155.234 361.973 160.401 364.36 165.16L363.5 165.66C361.483 164.459 359.269 163.626 356.96 163.2C351.11 158.99 343.54 154.26 334.89 151.4C333.297 127.502 326.47 104.246 314.89 83.28C297.76 52.76 270.89 30.79 237.21 19.72C231 17.72 227.08 15.79 225.54 14.1C223.886 12.1364 221.734 10.6544 219.31 9.81001C218.88 9.66559 218.443 9.5454 218 9.45001C217.163 9.26252 216.308 9.16861 215.45 9.17001C215.14 9.17001 214.82 9.17001 214.45 9.17001C214.009 8.67669 213.524 8.22481 213 7.82001C212.848 7.37248 212.667 6.93495 212.46 6.51001C211.684 4.95316 210.568 3.58998 209.196 2.52056C207.824 1.45114 206.229 0.702639 204.53 0.33001C203.63 0.10962 202.707 -0.00118308 201.78 9.52508e-06C201.035 0.000486666 200.292 0.0707942 199.56 0.21001C194.553 1.13433 189.789 3.07417 185.56 5.91001C182.79 7.8188 180.334 10.1466 178.28 12.81H177.73C175.928 12.81 174.15 13.2292 172.538 14.0345C170.926 14.8398 169.523 16.0091 168.44 17.45C167.069 19.269 165.996 21.2943 165.26 23.45C162.118 24.2408 159.125 25.5378 156.4 27.29C150.4 31.2 147.02 36.96 147.02 43.1C147.02 44.6308 147.322 46.1466 147.91 47.56L147.73 47.82C147.48 48.16 147.24 48.51 146.94 48.94C146.64 49.37 146.39 49.74 146.13 50.14C145.87 50.54 145.63 50.89 145.4 51.26L145.29 51.44L145.17 51.33C144.7 50.86 144.17 50.41 143.68 49.97L142.93 49.37L142.84 49.3C142.54 49.07 142.23 48.84 141.89 48.6C141.55 48.36 141.3 48.19 140.97 47.98C140.64 47.77 140.29 47.55 139.9 47.32C139.51 47.09 139.34 46.99 139.03 46.83C138.47 46.53 137.9 46.25 137.32 46L136.92 45.83C133.645 44.4345 130.12 43.7167 126.56 43.72H26.6001C19.5425 43.728 12.7768 46.5371 7.78919 51.5304C2.80158 56.5236 5.03492e-05 63.2925 5.48276e-05 70.35V121.79C-0.0109562 127.185 1.6368 132.453 4.72005 136.88C4.90167 137.18 5.09859 137.47 5.31005 137.75C5.50005 138.01 5.71005 138.25 5.92005 138.5C6.13005 138.75 6.40005 139.08 6.69005 139.41C6.98005 139.74 7.27006 140.05 7.55006 140.34C7.83006 140.63 8.38005 141.15 8.79005 141.52C9.04005 141.76 9.30005 141.99 9.58005 142.23C10.3001 142.82 11.0401 143.38 11.7901 143.88C12.0001 144.02 12.2101 144.16 12.4401 144.29C13.0501 144.68 13.6501 145.02 14.2401 145.34L15.0801 145.75C15.6701 146.03 16.2701 146.3 16.9201 146.55L17.8301 146.89C18.4501 147.1 19.0701 147.29 19.7301 147.47L20.6701 147.71C21.3101 147.85 21.9701 147.98 22.6701 148.09L23.5301 148.21C24.5259 148.326 25.5275 148.386 26.5301 148.39H47.8401C47.4778 148.949 47.1441 149.527 46.8401 150.12C44.9712 153.473 44.0938 157.288 44.3101 161.12L44.2001 161.34C43.9046 161.912 43.6409 162.499 43.4101 163.1C43.3101 163.35 43.2201 163.6 43.1401 163.82C42.9038 164.524 42.7101 165.242 42.5601 165.97C42.5101 166.21 42.4601 166.44 42.4301 166.65C42.3019 167.357 42.2217 168.072 42.1901 168.79C42.1901 169.06 42.1901 169.32 42.1901 169.55C42.1805 170.245 42.2139 170.939 42.2901 171.63C42.2901 171.88 42.3501 172.13 42.3801 172.37C42.4814 173.044 42.6216 173.712 42.8001 174.37C42.8001 174.58 42.9101 174.78 42.9801 174.99C43.1501 175.54 43.3401 176.08 43.5501 176.59C43.6201 176.79 43.7101 176.98 43.8001 177.19C44.1016 177.82 44.4354 178.434 44.8001 179.03L45.1401 179.58C45.5136 180.158 45.9175 180.715 46.3501 181.25L46.7501 181.72C47.2193 182.259 47.7202 182.77 48.2501 183.25L48.6501 183.6C49.1985 184.07 49.7764 184.504 50.3801 184.9L50.7501 185.14C51.3256 185.51 51.9234 185.844 52.5401 186.14L53.1001 186.4C53.8235 186.714 54.5688 186.974 55.3301 187.18L55.9101 187.34C56.7136 187.527 57.5287 187.661 58.3501 187.74H58.8901H59.0001L59.3301 188.16C59.5301 188.41 59.7301 188.66 59.9701 188.92C60.2101 189.18 60.5901 189.61 60.8901 189.92C62.0201 196.55 62.8901 204.24 63.8901 212.3C65.0401 221.83 66.2201 231.69 67.8901 241.61C67.8901 241.61 67.8901 241.69 67.8901 241.72C72.0501 266.12 79.4701 284.33 90.5401 297.36L91.2501 298.17L91.6901 298.67C92.1401 299.17 92.5801 299.67 93.0301 300.15C93.4801 300.63 93.9101 301.05 94.3501 301.49L95.0001 302C95.3301 302.34 95.6701 302.68 96.0001 303L96.1601 303.16C96.8801 303.82 97.6401 304.47 98.5001 305.16L98.8901 305.48C99.6701 306.08 100.5 306.68 101.35 307.25L101.92 307.62C102.78 308.16 103.64 308.67 104.51 309.14L105.06 309.42C106.06 309.93 106.96 310.35 107.78 310.69L108.27 310.88C109.1 311.2 109.95 311.5 110.84 311.78L111.38 311.95C112.29 312.21 113.23 312.44 114.3 312.66L114.92 312.79C115.92 312.96 116.84 313.1 117.81 313.2L118.44 313.26C119.44 313.35 120.44 313.4 121.52 313.41H121.86C122.78 313.41 123.73 313.41 124.61 313.3H125.12C126.06 313.21 127.03 313.09 128.12 312.92L128.69 312.82C129.69 312.66 130.62 312.46 131.6 312.22L132.17 312.07C133.17 311.81 134.17 311.53 135.1 311.23L135.47 311.11C136.39 310.8 137.31 310.47 138.2 310.11L138.62 309.95C139.56 309.57 140.52 309.15 141.62 308.63L142.03 308.44C142.97 307.99 143.91 307.51 144.87 307L145.46 306.67C166.31 317.99 192.38 319.8 221.71 320.83C237.08 321.37 248.43 321.61 258.53 321.61C268.07 321.61 277.04 321.39 285.94 320.94L288.34 320.81L291.34 320.63C294.56 320.44 297.92 320.2 301.27 319.94H301.41C310.6 319.22 320.59 318.21 331.94 316.87L336.25 316.36C338.525 316.08 340.667 315.134 342.407 313.642C344.147 312.149 345.407 310.176 346.03 307.97C346.64 305.8 347.16 303.46 347.67 300.62L352.67 278.18C353.01 278.26 353.34 278.33 353.67 278.39L355.04 278.66L356.04 278.81H356.31L357.43 278.96L358.43 279.05H358.72L359.51 279.11H359.85H362.33C362.66 279.11 362.98 279.11 363.38 279.06H363.56C363.89 279.06 364.23 279.06 364.56 279H364.81L365.76 278.89H365.93L366.98 278.75H367.29L368.14 278.59C368.64 278.5 369.14 278.4 369.65 278.29L370.27 278.13C371.738 277.77 373.181 277.316 374.59 276.77C394.49 269.14 412.26 249.62 427.41 218.77C440.48 192.12 447.95 164.4 450.55 153.77V153.71C453.383 145.857 454.775 137.557 454.66 129.21C454.69 127.61 454.6 126 454.45 124.34ZM156.18 168.28C156.05 168.28 155.33 168.52 155.13 168.59C154.7 168.72 154.26 168.87 153.81 169.03L153.21 169.25C152.58 169.48 151.96 169.74 151.34 170L151.13 170.1C150.58 170.34 150.03 170.6 149.5 170.86L148.87 171.19L147.68 171.83C147.47 171.94 147.27 172.07 147.07 172.19L146.97 172.25C146.61 172.46 146.25 172.67 145.92 172.88C145.59 173.09 145.47 173.17 145.16 173.38L144.16 174.07L143.46 174.58L142.46 175.31L141.76 175.88C141.44 176.13 141.12 176.4 140.76 176.68L140.09 177.26C139.77 177.55 139.45 177.84 139.09 178.18L138.52 178.72C138.19 179.04 137.87 179.37 137.52 179.72C137.52 179.72 137.12 180.13 136.98 180.29C136.6 180.68 136.23 181.1 135.86 181.52L135.52 181.91C135.04 182.47 134.52 183.04 134.13 183.59L133.76 184.07C133.42 184.51 133.08 184.96 132.76 185.43C132.63 185.6 132.28 186.1 132.28 186.1C132 186.5 131.72 186.89 131.46 187.29L130.94 188.08C130.69 188.47 130.44 188.85 130.19 189.26C129.94 189.67 129.84 189.82 129.68 190.11C129.52 190.4 129.21 190.89 128.98 191.28C128.75 191.67 128.65 191.87 128.48 192.18C128.31 192.49 128.03 192.99 127.82 193.39L127.33 194.33C127.2 194.59 127.06 194.86 126.93 195.14L107.55 170.9C107.61 170.63 107.66 170.36 107.7 170.08C107.91 168.705 107.88 167.304 107.61 165.94C107.518 165.452 107.395 164.971 107.24 164.5C107.09 164.03 106.93 163.6 106.76 163.2C106.59 162.8 106.5 162.62 106.29 162.2C106.18 161.99 106.07 161.78 105.9 161.48C105.73 161.18 105.62 161.01 105.47 160.79C105.32 160.57 105.26 160.46 105.1 160.24L104.66 159.62L104.35 159.21L103.65 158.35C104.469 155.067 104.469 151.633 103.65 148.35H126.5C130.259 148.352 133.975 147.555 137.402 146.012C140.83 144.469 143.89 142.215 146.38 139.4C149.22 145.95 152.1 151.73 154.45 156.4L155.24 157.92C155.4 158.21 155.59 158.57 155.77 158.92C155.366 160.968 155.279 163.066 155.51 165.14C155.603 166.094 155.818 167.031 156.15 167.93C156.152 168.047 156.162 168.164 156.18 168.28V168.28Z" fill="white"/>
<path d="M138.74 208.49C135.24 212.83 131.16 220.49 127.94 229.41C118.72 212.55 109.06 201.52 102.08 190.98C101.45 189.98 88.36 166.85 87.86 165.98C79.34 168.48 75.22 167.83 66.5 169.26C73.02 183.13 73.9 212.17 78.62 239.76C83.02 265.47 91.47 283.76 103.07 294.58C123.98 314.11 156.44 293.26 187.33 244.29C170.73 241.1 144.67 215.93 138.74 208.49Z" fill="#CAA77A"/>
<g style="mix-blend-mode:multiply" opacity="0.23">
<path d="M187.33 244.26C156.44 293.21 123.97 314.07 103.08 294.54C91.48 283.7 83 265.43 78.61 239.71C73.9 212.12 73.01 183.09 66.49 169.22C69.17 168.79 76.39 190 79.55 202.13C84.33 220.45 89.95 255.13 99.55 271.56C109.8 289.06 124.55 294.74 131.97 292.56C139.39 290.38 143.27 278.39 145.05 272.98C147.58 265.27 150.85 256.83 152.05 250.63C153.77 242.02 153.95 231.85 151.43 230.8C155.65 232.61 159.62 234.25 162.43 235.41C162.69 234.16 162.96 232.81 163.22 231.41C171.49 237.59 180.26 242.92 187.33 244.26Z" fill="#3F2719"/>
</g>
<g style="mix-blend-mode:multiply" opacity="0.23">
<path d="M127.42 228.34C131.08 235.14 138.24 249.4 140.69 258.34C141.69 249.94 135.43 229.96 130.09 223.53C129.2 225.17 127.42 228.34 127.42 228.34Z" fill="#3F2719"/>
</g>
<path d="M131.8 220.74C130.2 223.48 128.906 226.387 127.94 229.41C118.72 212.55 108.56 201.84 102.08 190.98C95.6001 180.12 88.0801 166.22 87.8601 165.98" stroke="#2D1F04" stroke-width="2.62" stroke-linecap="round" stroke-linejoin="round"/>
<path d="M67.3201 169.09C74.5101 192.35 76.4401 226.91 78.6201 239.72C82.1201 260.37 88.9401 281.33 103.07 294.54C114.93 305.62 130.52 303.7 147.42 291.02" stroke="#2D1F04" stroke-width="2.62" stroke-linecap="round" stroke-linejoin="round"/>
<path d="M140.7 70.3501V121.79C140.7 125.768 139.12 129.584 136.307 132.397C133.494 135.21 129.678 136.79 125.7 136.79H98.36C96.8064 136.79 95.2698 137.115 93.849 137.743C92.4281 138.372 91.1543 139.29 90.1092 140.44C89.0641 141.589 88.2708 142.945 87.7801 144.419C87.2895 145.893 87.1123 147.453 87.26 149L89.48 172C89.6498 173.716 89.4583 175.449 88.918 177.086C88.3776 178.724 87.5003 180.23 86.3426 181.508C85.1849 182.786 83.7724 183.807 82.196 184.506C80.6196 185.205 78.9144 185.566 77.19 185.566C75.4657 185.566 73.7604 185.205 72.1841 184.506C70.6077 183.807 69.1952 182.786 68.0375 181.508C66.8797 180.23 66.0024 178.724 65.4621 177.086C64.9217 175.449 64.7303 173.716 64.9 172L67.12 149C67.2724 147.449 67.098 145.884 66.6082 144.405C66.1183 142.926 65.324 141.566 64.2762 140.412C63.2285 139.259 61.9507 138.338 60.5252 137.709C59.0997 137.08 57.5582 136.757 56 136.76H25.78C21.8018 136.76 17.9865 135.18 15.1734 132.367C12.3604 129.554 10.78 125.738 10.78 121.76V70.3501C10.78 66.3719 12.3604 62.5565 15.1734 59.7435C17.9865 56.9305 21.8018 55.3501 25.78 55.3501H125.72C129.695 55.3554 133.505 56.9381 136.314 59.7506C139.122 62.563 140.7 66.3753 140.7 70.3501V70.3501Z" fill="white"/>
<g style="mix-blend-mode:multiply" opacity="0.23">
<path d="M140.69 70.3499V121.78C140.69 125.758 139.11 129.573 136.296 132.386C133.483 135.2 129.668 136.78 125.69 136.78H98.3599C96.8058 136.781 95.269 137.107 93.8482 137.737C92.4273 138.366 91.1536 139.286 90.1087 140.436C89.0637 141.587 88.2705 142.943 87.78 144.417C87.2894 145.892 87.1123 147.453 87.2599 149L89.4799 172C89.7527 174.746 89.0971 177.504 87.6179 179.834C86.1386 182.164 83.9211 183.931 81.3197 184.852C78.7183 185.773 75.8832 185.796 73.2674 184.916C70.6517 184.037 68.4062 182.306 66.8899 180C68.8508 180.738 70.9674 180.964 73.0402 180.658C75.1129 180.352 77.0735 179.523 78.7373 178.249C80.401 176.976 81.7131 175.3 82.5498 173.379C83.3865 171.458 83.7204 169.355 83.5199 167.27L81.3099 144.27C81.1533 142.719 81.3238 141.152 81.8104 139.67C82.297 138.189 83.0889 136.826 84.1349 135.67C85.1809 134.513 86.4579 133.589 87.8832 132.957C89.3086 132.325 90.8507 131.999 92.4099 132H119.76C121.73 132 123.68 131.612 125.5 130.858C127.32 130.104 128.974 128.999 130.367 127.606C131.759 126.214 132.864 124.56 133.618 122.74C134.372 120.92 134.76 118.97 134.76 117V65.6099C134.767 62.3631 133.714 59.2029 131.76 56.6099C134.421 57.7873 136.681 59.7131 138.267 62.1527C139.853 64.5922 140.694 67.4403 140.69 70.3499V70.3499Z" fill="#3F2719"/>
</g>
<g style="mix-blend-mode:multiply" opacity="0.23">
<path d="M67 145.86C66.4903 143.31 65.1186 141.014 63.1154 139.357C61.1122 137.7 58.5997 136.783 56 136.76H25.77C23.4413 136.76 21.1446 136.218 19.0618 135.176C16.979 134.135 15.1672 132.623 13.77 130.76C15.678 131.591 17.7389 132.013 19.82 132H57.1C58.7592 131.99 60.3992 132.355 61.8971 133.069C63.3951 133.782 64.7123 134.825 65.75 136.12C67.77 138.68 67.73 142.53 67 145.86Z" fill="#3F2719"/>
</g>
<path d="M140.7 70.3501V121.79C140.7 125.768 139.12 129.584 136.307 132.397C133.494 135.21 129.678 136.79 125.7 136.79H98.36C96.8064 136.79 95.2698 137.115 93.849 137.743C92.4281 138.372 91.1543 139.29 90.1092 140.44C89.0641 141.589 88.2708 142.945 87.7801 144.419C87.2895 145.893 87.1123 147.453 87.26 149L89.48 172C89.6498 173.716 89.4583 175.449 88.918 177.086C88.3776 178.724 87.5003 180.23 86.3426 181.508C85.1849 182.786 83.7724 183.807 82.196 184.506C80.6196 185.205 78.9144 185.566 77.19 185.566C75.4657 185.566 73.7604 185.205 72.1841 184.506C70.6077 183.807 69.1952 182.786 68.0375 181.508C66.8797 180.23 66.0024 178.724 65.4621 177.086C64.9217 175.449 64.7303 173.716 64.9 172L67.12 149C67.2724 147.449 67.098 145.884 66.6082 144.405C66.1183 142.926 65.324 141.566 64.2762 140.412C63.2285 139.259 61.9507 138.338 60.5252 137.709C59.0997 137.08 57.5582 136.757 56 136.76H25.78C21.8018 136.76 17.9865 135.18 15.1734 132.367C12.3604 129.554 10.78 125.738 10.78 121.76V70.3501C10.78 66.3719 12.3604 62.5565 15.1734 59.7435C17.9865 56.9305 21.8018 55.3501 25.78 55.3501H125.72C129.695 55.3554 133.505 56.9381 136.314 59.7506C139.122 62.563 140.7 66.3753 140.7 70.3501V70.3501Z" stroke="#2D1F04" stroke-width="2.62" stroke-linecap="round" stroke-linejoin="round"/>
<path d="M60.5601 176C80.0801 170.58 94.8701 170.57 95.3801 168.41C95.8901 166.25 80.0001 151.2 65.4901 150.18C58.4901 149.69 52.4901 158.08 56.1601 163.75C49.3801 169 54.4301 177.7 60.5601 176Z" fill="#B6B1AE"/>
<g style="mix-blend-mode:multiply" opacity="0.23">
<path d="M95.3799 168.39C94.8699 170.56 80.0899 170.57 60.5699 175.99C55.0699 177.53 50.4299 170.7 54.4099 165.48C56.8599 166.63 61.9399 166.37 66.8899 165.94C71.8399 165.51 81.1499 162.68 91.9999 163.8C94.2599 166 95.5299 167.76 95.3799 168.39Z" fill="#3F2719"/>
</g>
<path d="M60.5601 176C75.9401 171.73 94.8701 170.57 95.3801 168.41C95.8901 166.25 80.0001 151.2 65.4901 150.18C58.4901 149.69 52.4901 158.08 56.1601 163.75C49.3801 169 54.4301 177.7 60.5601 176Z" stroke="#2D1F04" stroke-width="2.62" stroke-linecap="round" stroke-linejoin="round"/>
<path d="M56.1599 163.75C66.3199 161.84 77.4599 160.13 95.3799 168.4" stroke="#2D1F04" stroke-width="2.62" stroke-linecap="round" stroke-linejoin="round"/>
<path d="M70.48 156.65C79.34 155.47 83.14 155.47 90.98 157.59C92.5 153.01 92.19 149.09 88.26 148.25C81.4622 148.614 75.0784 151.63 70.48 156.65V156.65Z" fill="#B6B1AE"/>
<path d="M70.48 156.65C79.34 155.47 83.14 155.47 90.98 157.59C92.5 153.01 92.19 149.09 88.26 148.25C81.4622 148.614 75.0784 151.63 70.48 156.65V156.65Z" stroke="#2D1F04" stroke-width="2.62" stroke-linecap="round" stroke-linejoin="round"/>
<path d="M174.27 179.33C173.8 182.33 173.16 185.97 172.69 188.33C171.87 188.39 169.16 191.33 168.48 192.4C167.16 194.4 169.07 196.66 168.81 197.75C168.59 198.68 165.2 222.27 162.48 235.39C154.22 231.92 135.29 224.25 131.4 220.39C131.12 220.1 130.83 219.87 130.6 219.63C129.72 218.78 128.47 213.9 132 211.51C132.41 210.33 132.88 209.05 133.38 207.7C142.49 183.16 157.88 175.4 174.26 179.34L174.27 179.33Z" fill="#FFDB1F"/>
<path d="M342.65 263.05C340.43 250.51 339.468 237.78 339.78 225.05C341.415 237.656 342.373 250.341 342.65 263.05V263.05Z" fill="#FFDB1F"/>
<g style="mix-blend-mode:multiply" opacity="0.23">
<path d="M174.28 179.33C173.8 182.33 173.16 185.98 172.69 188.33C171.87 188.39 169.16 191.33 168.48 192.41C167.17 194.41 169.07 196.66 168.8 197.76C168.58 198.69 165.2 222.26 162.48 235.38C159.03 233.94 153.72 231.76 148.42 229.38C151.29 230.01 154.28 229.72 154.77 227.64C155.41 224.86 155.37 222.05 153.45 221.33C156.01 221 158.08 209.73 159.57 204C160.92 198.76 165.45 182.36 172.57 179C173.13 179.1 173.7 179.22 174.26 179.36L174.28 179.33Z" fill="#3F2719"/>
</g>
<path d="M342.65 263.05C340.43 250.51 339.468 237.78 339.78 225.05C341.415 237.656 342.373 250.341 342.65 263.05V263.05Z" fill="#FFDB1F"/>
<path d="M322.54 160.64C316.22 163.64 310.54 166.92 302.54 170.58C290.01 176.3 278.7 182.84 265.66 186.66C254.062 189.752 242.155 191.543 230.16 192C220.68 192.622 211.163 192.411 201.72 191.37C190.882 190.339 180.155 188.365 169.66 185.47C169.76 184.83 169.66 184.6 169.41 184.67C169.54 182.3 169.64 178.67 169.66 175.57C169.66 172.64 169.6 169.98 169.37 169.9C168.958 170.029 168.59 170.268 168.306 170.593C168.022 170.918 167.833 171.315 167.76 171.74C165.57 167.74 168.76 164.34 168.44 162.06C168.38 161.55 167.11 162.22 166.29 164C165.94 160.62 167.23 159.59 167.06 158.37C166.71 155.91 165.15 153.37 164.06 151.23C151.7 126.47 128.49 78.3201 165.25 44.6401C162.81 41.2701 157.81 43.1301 157.81 43.1101C157.81 38.1701 165.72 32.9401 176.52 34.1101C176.87 33.5801 172.89 29.7201 176.9 24.3801C177.59 28.3201 181.18 32.0701 182.05 30.1101C184.41 19.4101 191.18 13.4801 200.96 11.5801C197.9 14.2501 196.59 20.0201 198.1 25.1401C198.1 25.1401 201.18 18.4801 204.78 16.9301C201.56 23.1801 204.67 26.5101 206.61 26.9801C208.14 27.3701 214.69 23.9101 214.52 20.7501C216.4 21.3801 216.05 25.2801 232.52 30.6801C302.22 53.6401 322.47 119.7 322.54 160.64Z" fill="#CAA77A"/>
<path d="M241.05 269L240.57 268.28Z" fill="#B6B1AE"/>
<path d="M148.49 81.29C150.81 71.83 162.49 64.77 169.6 59.89C177.87 54.2 207.88 48.32 201.95 39.77C212.34 41.1 219.82 50.31 228.81 50.34C238.19 50.34 259.21 55.96 274.67 77.89C277.78 82.29 291.45 120.44 261.49 140.48C238.6 155.79 185.12 160.62 161.69 131.03C150.72 117.17 145.38 99 148.49 81.29Z" fill="#FFDBAF"/>
<path d="M196.59 79.3401C188.68 75.3401 182.59 95.1901 181.93 100.92C180.28 115.5 185.19 123.02 193.74 125.59C202.29 128.16 213.09 126.77 221.43 121.43C242.43 107.98 220.08 73.1101 206.33 78.6101" fill="#9D7B51"/>
<path d="M151.18 112.31C165.13 111.18 198.18 95.3101 180.97 53.3101C171.53 54.5801 162.68 57.8401 151.9 67.4001C144.82 83.0001 147.05 99.4801 151.18 112.31Z" fill="#9D7B51"/>
<path d="M225.38 53.29C211.62 118.21 279.57 113.4 279.57 113.4C279.57 113.4 285.12 89.15 270.88 70.92C262.18 59.79 244 52 225.38 53.29Z" fill="#9D7B51"/>
<path d="M189.29 162.53L189.25 169.09" stroke="#9D7B51" stroke-width="3.87" stroke-linecap="round" stroke-linejoin="round"/>
<path d="M182.66 165.94L182.62 172.5" stroke="#9D7B51" stroke-width="3.87" stroke-linecap="round" stroke-linejoin="round"/>
<path opacity="0.23" d="M159 41.1001C158.886 41.1583 158.779 41.2287 158.68 41.3101C158.649 41.3453 158.626 41.3866 158.612 41.4315C158.598 41.4763 158.594 41.5236 158.6 41.5701" fill="#3F2719"/>
<path d="M190.93 79.7902C190.81 77.1302 195.64 74.7102 201.73 74.3802C207.82 74.0502 212.85 76.0002 213 78.6202C213.15 81.2402 208.29 83.7002 202.2 84.0302C196.11 84.3602 191.05 82.4502 190.93 79.7902Z" fill="#251707"/>
<path d="M169.31 183.56C169.55 182.33 170.03 170.12 169.54 169.96C169.127 170.091 168.757 170.332 168.471 170.658C168.186 170.985 167.995 171.383 167.92 171.81C165.74 167.81 168.92 164.4 168.61 162.12C168.55 161.61 167.27 162.29 166.46 164.07C166.11 160.68 167.41 159.66 167.23 158.44C166.88 155.98 165.32 153.44 164.23 151.29C151.85 126.54 128.64 78.3799 165.41 44.6999C163 41.3299 158 43.1999 158 43.1699C158 38.2399 165.92 32.9999 176.72 34.1699C177.07 33.6399 173.09 29.7699 177.1 24.4299C177.79 28.3699 181.38 32.1199 182.25 30.1599C184.61 19.4699 191.39 13.5299 201.16 11.6299C198.1 14.3099 196.79 20.0699 198.29 25.1899C198.29 25.2699 201.35 18.5499 204.98 16.9799C201.28 22.5999 204.69 26.5099 206.63 26.9799C208.16 27.3699 214.89 23.9799 214.72 20.7899C216.6 21.4199 216.26 25.3299 232.67 30.7199C302.55 53.7199 322.62 119.72 322.62 160.61" stroke="#2D1F04" stroke-width="2.62" stroke-linecap="round" stroke-linejoin="round"/>
<path d="M201.29 83.6201C200.79 88.0801 201.62 94.1301 203.97 100.39" stroke="#2D1F04" stroke-width="2.62" stroke-linecap="round" stroke-linejoin="round"/>
<path opacity="0.23" d="M215 261.5L214.44 261.22Z" fill="#3F2719"/>
<g style="mix-blend-mode:multiply" opacity="0.23">
<path d="M322.54 160.64C316.95 163.43 307.89 168.05 302.54 170.58C303.82 139.52 296.05 93.0001 272.54 65.8801C258.838 49.7273 239.312 39.639 218.21 37.8101C216.71 37.6801 213.99 35.3201 211.82 35.5701C211.897 35.8068 211.913 36.0589 211.867 36.3034C211.821 36.5479 211.715 36.777 211.558 36.9699C211.401 37.1628 211.198 37.3133 210.968 37.4076C210.738 37.502 210.487 37.5372 210.24 37.5101C208.64 37.5101 205.39 36.7601 205.95 33.9001C202.83 34.2701 202.03 37.9701 200.32 38.1901C198.61 38.4101 195.91 34.6001 192 35.0001C194.12 38.0001 191.23 40.4801 189 41.3501C186.38 42.3501 184.72 41.1201 185.37 39.4501C182.64 39.7901 181.75 42.3601 176.18 45.0301C167.32 49.1409 159.189 54.6703 152.11 61.4001C155.484 55.1104 159.923 49.4533 165.23 44.6801C162.79 41.3101 157.79 43.1701 157.79 43.1501C157.79 38.2101 165.71 32.9801 176.5 34.1501C176.85 33.6201 172.88 29.7601 176.88 24.4201C177.57 28.3501 181.16 32.1101 182.03 30.1401C184.39 19.4501 191.17 13.5201 200.94 11.6201C197.88 14.2901 196.57 20.0601 198.08 25.1801C198.08 25.1801 201.16 18.5201 204.76 16.9701C201.5 23.0001 204.66 26.5501 206.6 27.0001C208.13 27.3901 214.69 23.9301 214.51 20.7701C216.39 21.4001 216.05 25.3001 232.51 30.6901C302.23 53.6401 322.47 119.7 322.54 160.64Z" fill="#3F2719"/>
</g>
<path d="M188.3 55.3701C159 56.0001 142 78.3701 142 78.3701" stroke="#2D1F04" stroke-width="7.6" stroke-linecap="round" stroke-linejoin="round"/>
<path d="M218.86 53.18C259.34 52.79 274.62 74.56 274.62 74.56" stroke="#2D1F04" stroke-width="7.6" stroke-linecap="round" stroke-linejoin="round"/>
<path d="M193.07 115.07C193.69 111.27 194.31 105 191.22 99.9698C195.58 101.32 203.22 99.9098 203.55 98.0298C205.55 98.9598 211.43 96.7798 214.02 93.2798C224.14 116.91 202.48 119.64 193.07 115.07Z" fill="#251707"/>
<path d="M193 115.29C193.325 113.396 193.512 111.481 193.56 109.56C198.44 110.74 207.1 110.69 212.88 104.41C213.88 105.26 214.88 106.89 214.53 111.48C210.55 117.27 200.79 118.58 193 115.29Z" fill="white"/>
<path d="M212.87 104.41C208.4 109.95 199.32 111.09 193.55 109.56C193.34 107.07 192.79 102.56 191.37 100.29C195.86 100.5 201.24 99.6399 203.7 98.3499C206.713 97.5798 209.585 96.3378 212.21 94.6699C213.24 97.0499 213.66 102.37 212.87 104.41Z" fill="white"/>
<path d="M214.52 111.44C212.701 113.908 210.058 115.643 207.07 116.33L206.89 115.33C208.132 114.947 209.195 114.13 209.885 113.029C210.575 111.927 210.847 110.615 210.65 109.33C210.43 107.84 208.55 108.01 204.65 109.33C209.9 107.2 210.29 103.78 210.38 102.19C210.47 100.6 210.28 98.3698 209.09 99.1098C206.38 100.522 203.453 101.472 200.43 101.92C198 102.35 193.81 102.47 193.81 103.67C193.783 105.167 193.893 106.663 194.14 108.14C194.4 109.63 196.63 110.32 199.14 110.14C198.98 110.14 194.67 110.14 194.21 111.36C193.93 112.1 192.92 114.46 198.21 115.42V116.7C196.426 116.42 194.683 115.923 193.02 115.22C193.34 113.322 193.527 111.404 193.58 109.48C193.37 106.99 192.81 102.48 191.39 100.21C195.88 100.42 201.26 99.5698 203.72 98.2798C206.732 97.5023 209.604 96.2572 212.23 94.5898C213.23 96.9798 213.68 102.3 212.89 104.33C213.86 105.21 214.85 106.84 214.52 111.44Z" fill="#D3E5EA"/>
<path d="M191.19 99.9998C199.19 101.43 207.92 98.4198 214.05 93.2998C224.4 117.15 202.53 119.67 193.05 115.09" stroke="#2D1F04" stroke-width="2.62" stroke-linecap="round" stroke-linejoin="round"/>
<path d="M178.64 86.9998C177.69 92.3598 172.01 92.5798 165.85 92.9998C158.64 93.4298 150.9 92.9998 151.34 84.6998C151.67 78.5798 158.01 76.1398 167.27 75.9798C176.53 75.8198 179.84 80.2398 178.64 86.9998Z" fill="white"/>
<path d="M178.82 85.6699C176.08 80.0399 170.54 79.1199 163.53 80.3099C156.12 81.5999 152.71 84.5099 151.7 88.1999C151.386 87.0341 151.264 85.8248 151.34 84.6199C151.67 78.5099 158.02 76.0599 167.27 75.8899C175.91 75.7499 179.37 79.6799 178.82 85.6699Z" fill="#D3E5EA"/>
<path d="M159.6 85.7902C159.602 84.5873 159.961 83.4119 160.631 82.413C161.301 81.414 162.253 80.6363 163.365 80.1782C164.477 79.7202 165.7 79.6024 166.88 79.8397C168.059 80.0771 169.141 80.6589 169.99 81.5116C170.838 82.3643 171.415 83.4496 171.646 84.63C171.878 85.8105 171.754 87.0331 171.291 88.1431C170.827 89.2531 170.045 90.2007 169.042 90.8659C168.04 91.5312 166.863 91.8841 165.66 91.8802C164.049 91.8749 162.506 91.2306 161.37 90.0888C160.234 88.947 159.597 87.401 159.6 85.7902Z" fill="#2D1F04"/>
<path d="M178.64 86.9998C177.71 92.2898 171.92 92.5098 165.85 92.9998C158.55 93.5298 150.9 93.0698 151.34 84.6998C151.67 78.5798 158.01 76.1398 167.27 75.9798C176.53 75.8198 179.84 80.2398 178.64 86.9998Z" stroke="#2D1F04" stroke-width="2.62" stroke-linecap="round" stroke-linejoin="round"/>
<path d="M161.18 85.7999C162.66 85.7999 163.86 84.6001 163.86 83.1199C163.86 81.6398 162.66 80.4399 161.18 80.4399C159.7 80.4399 158.5 81.6398 158.5 83.1199C158.5 84.6001 159.7 85.7999 161.18 85.7999Z" fill="white"/>
<path d="M162.2 88.7099C162.763 88.7099 163.22 88.2533 163.22 87.6899C163.22 87.1266 162.763 86.6699 162.2 86.6699C161.637 86.6699 161.18 87.1266 161.18 87.6899C161.18 88.2533 161.637 88.7099 162.2 88.7099Z" fill="white"/>
<path d="M263.81 83C263.09 88.12 256.16 88.13 249.64 88.88C241.26 89.88 232.95 89.94 232.97 81.29C232.97 75.15 239.97 72.55 250.38 72.18C260.79 71.81 264.76 76.18 263.81 83Z" fill="white"/>
<path d="M263.93 80.6101C260.16 76.0301 253.76 75.5401 245.93 77.0001C239.11 78.2501 235.13 80.3801 233.13 83.0001C233.04 82.4078 232.996 81.8093 233 81.2101C233 75.0701 240 72.4701 250.4 72.1001C259.52 71.7901 263.7 75.1901 263.93 80.6101Z" fill="#D3E5EA"/>
<path d="M243.81 81.77C243.775 80.8464 244.015 79.9332 244.499 79.146C244.983 78.3588 245.69 77.733 246.53 77.3478C247.37 76.9626 248.306 76.8353 249.218 76.9821C250.131 77.1289 250.979 77.5432 251.656 78.1725C252.333 78.8017 252.808 79.6177 253.021 80.5171C253.234 81.4165 253.175 82.3588 252.852 83.2247C252.529 84.0907 251.957 84.8414 251.207 85.3817C250.457 85.922 249.564 86.2277 248.64 86.26C247.405 86.3032 246.202 85.8549 245.297 85.0132C244.392 84.1716 243.857 83.0053 243.81 81.77V81.77Z" fill="#2D1F04"/>
<path d="M263.81 83C263.09 88.12 256.16 88.13 249.64 88.88C241.26 89.88 232.95 89.94 232.97 81.29C232.97 75.15 239.97 72.55 250.38 72.18C260.79 71.81 264.76 76.18 263.81 83Z" stroke="#2D1F04" stroke-width="2.78057" stroke-linecap="round" stroke-linejoin="round"/>
<path d="M242.67 81.59C242.676 80.3274 243.056 79.0949 243.763 78.0486C244.47 77.0023 245.472 76.1893 246.641 75.7125C247.81 75.2358 249.094 75.1166 250.331 75.3703C251.568 75.6239 252.702 76.2389 253.59 77.1373C254.477 78.0357 255.077 79.1773 255.315 80.4173C255.554 81.6573 255.418 82.9401 254.927 84.1033C254.435 85.2664 253.61 86.2576 252.555 86.9512C251.5 87.6449 250.263 88.0099 249 88C247.311 87.9868 245.697 87.3047 244.51 86.1032C243.324 84.9016 242.662 83.2787 242.67 81.59V81.59Z" fill="#2D1F04"/>
<path d="M244.33 81.6C245.887 81.6 247.15 80.3374 247.15 78.78C247.15 77.2225 245.887 75.96 244.33 75.96C242.773 75.96 241.51 77.2225 241.51 78.78C241.51 80.3374 242.773 81.6 244.33 81.6Z" fill="white"/>
<path d="M245.4 84.6498C245.991 84.6498 246.47 84.1707 246.47 83.5798C246.47 82.9888 245.991 82.5098 245.4 82.5098C244.809 82.5098 244.33 82.9888 244.33 83.5798C244.33 84.1707 244.809 84.6498 245.4 84.6498Z" fill="white"/>
<path d="M127.94 229.41C134.44 241 138.15 248.86 141.12 259.84" stroke="#2D1F04" stroke-width="2.62" stroke-linecap="round" stroke-linejoin="round"/>
<path d="M369.65 265.88C409.34 250.64 431.74 178.88 438.65 150.28C432.25 147.91 405.19 142.16 399.51 145.86C388.91 152.74 376.14 181.86 363.21 182.25C343.51 182.9 335.62 165.25 319.48 162.18C311.07 166.63 303.54 169.91 290.39 176.18C299.12 203.58 303.32 220.12 316.33 236.5C333.24 257.82 351.84 272.72 369.65 265.88Z" fill="#CAA77A"/>
<path d="M342.65 263.23C342.65 264.07 342.65 264.89 342.65 265.7C340.81 266.42 337.51 268.57 337.48 270.17C337.29 282.02 336.8 294.8 333.99 304.79C287.99 310.38 264.46 310.72 221.24 309.21C193.18 308.21 167.37 306.69 148.06 295.27C147.732 293.129 147.568 290.966 147.57 288.8C147.88 281.18 152.79 257.02 162.24 236.57C160.85 233.22 160.51 228.79 160.77 224.07C161.54 210.69 167.18 194.91 167.26 193.96C167.37 192.84 165.15 190.88 166.16 188.72C166.68 187.6 168.93 184.26 169.73 184.07C169.97 184 170.08 184.23 169.98 184.87C180.438 187.836 191.152 189.808 201.98 190.76C206.54 191.12 211.41 191.37 214.56 191.53C217.95 191.71 224.19 192.15 230.43 191.9C249.43 191.15 263.31 187.9 265.97 186.53C272.28 183.72 290.85 175.87 301.51 167.14C304.422 164.71 307.791 162.887 311.418 161.778C315.045 160.668 318.857 160.295 322.63 160.68C333.92 162.13 344.53 169.13 351.77 174.6C355.3 173.89 360.49 177.65 358.96 180.18C349.36 192.08 343.43 208.36 341.08 226.75C339.57 238.59 340.36 249.83 342.56 263.05L342.65 263.23Z" fill="#FFDB1F"/>
<g style="mix-blend-mode:multiply" opacity="0.23">
<path d="M342.69 265.7C340.85 266.42 337.55 268.57 337.52 270.17C337.33 282.02 336.84 294.8 334.03 304.79C314.65 307.15 299.27 308.57 284.72 309.31C294.8 308.69 305.01 305.83 309.5 299.84C313.32 294.74 314.36 285.15 314.67 274.42C314.961 265.75 314.771 257.07 314.1 248.42C320.92 254.8 325.22 258.5 328.79 260.42C332.36 262.34 337.79 258.05 337.52 250.03C337.206 241.582 338.52 233.152 341.39 225.2C341.3 225.71 341.24 226.2 341.17 226.74C339.65 238.57 340.45 249.82 342.65 263.04V263.22C342.68 264.07 342.69 264.89 342.69 265.7Z" fill="#3F2719"/>
</g>
<g style="mix-blend-mode:multiply" opacity="0.23">
<path d="M359.05 180.18C356.127 183.831 353.581 187.768 351.45 191.93C350.25 188.46 344.65 186.03 343.01 186.33C341.58 184.84 338.38 181.96 330.66 177.4C324.27 173.62 309.23 167.13 299.73 168.6C300.38 168.12 300.99 167.6 301.6 167.14C304.512 164.71 307.881 162.887 311.508 161.778C315.135 160.668 318.947 160.295 322.72 160.68C334.01 162.13 344.62 169.14 351.86 174.6C355.39 173.89 360.58 177.64 359.05 180.18Z" fill="#3F2719"/>
</g>
<path d="M203.26 109.72C203.72 109.63 204.18 109.5 204.64 109.38C204.18 109.51 203.72 109.63 203.26 109.72Z" fill="#B6B1AE"/>
<path d="M203.26 109.72C203.72 109.63 204.18 109.5 204.64 109.38C204.18 109.51 203.72 109.63 203.26 109.72Z" fill="white"/>
<path d="M203.26 109.72C203.72 109.63 204.18 109.5 204.64 109.38C204.18 109.51 203.72 109.63 203.26 109.72Z" fill="white"/>
<g style="mix-blend-mode:multiply" opacity="0.23">
<path d="M438.64 150.28C431.74 178.86 409.35 250.65 369.64 265.88C360.53 269.38 351.21 267.18 342.02 261.36C341.093 254.807 340.622 248.198 340.61 241.58C368.15 259.86 392.29 228.07 401.67 207.86C411.23 187.27 418.73 167.03 422.51 146.41C427.972 147.313 433.363 148.606 438.64 150.28V150.28Z" fill="#3F2719"/>
</g>
<path d="M405.6 94.7802C405.13 84.5702 410.69 75.4302 415.38 69.9402C422.74 61.3402 434.1 55.1002 436.8 59.3902C439.63 63.8802 433.75 71.5002 431.31 82.0102C430.04 87.4902 428.31 95.3302 430.2 102.01C436.56 108.69 442.03 114.65 442.29 129.36C442.55 144.07 436.5 159.05 428.61 166.25C425.57 169.118 421.953 171.303 418 172.66C406.89 176.3 392.26 175.16 384.45 171.02C376.23 166.67 371.51 158.02 370.68 148.89C370.416 145.982 370.554 143.051 371.09 140.18C368.76 133.39 369.39 123 372.68 117.28C371.68 112.19 372.91 101.28 379.04 95.6502C383.65 91.4002 395.1 92.4102 405.64 94.7802C409.28 95.6002 412.82 96.5802 415.92 97.5602" fill="#B6B1AE"/>
<g style="mix-blend-mode:multiply" opacity="0.23">
<path d="M442.28 129.36C442.55 144.2 436.49 159.05 428.6 166.26C425.545 169.131 421.91 171.314 417.94 172.66C406.84 176.31 392.22 175.16 384.4 171.02C381.734 169.611 379.359 167.711 377.4 165.42C380.92 156.88 402.66 166.26 410.95 165.91C420.81 165.49 428 152.68 431.47 141.4C434.94 130.12 432.74 112.92 427.6 107.98C422.46 103.04 422.12 95.98 424.82 86.27C429.3 70.27 437.43 63.65 435.82 58.48C438.06 60.01 437.56 62.85 437.43 63.65C436.73 68.15 433.1 74.31 431.32 82.02C430.04 87.49 428.32 95.33 430.2 102.02C436.55 108.7 442 114.65 442.28 129.36Z" fill="#3F2719"/>
</g>
<g style="mix-blend-mode:multiply" opacity="0.23">
<path d="M372.63 117.28C376.18 110.22 387.48 110.41 391.79 109.28C393.82 108.737 395.942 108.624 398.018 108.948C400.095 109.272 402.081 110.025 403.85 111.16C406.901 112.823 409.728 114.87 412.26 117.25C403.36 114.6 386.79 111.34 372.63 117.28Z" fill="#3F2719"/>
</g>
<g style="mix-blend-mode:multiply" opacity="0.23">
<path d="M370.25 140.33C373.64 132.2 385.25 133.22 389.63 132.33C394.01 131.44 398.09 131.87 401.55 134.63C404.422 136.912 407.019 139.519 409.29 142.4C396.63 137 384.64 135 370.25 140.33Z" fill="#3F2719"/>
</g>
<path d="M405.6 94.7798C405.13 84.5698 410.36 75.1298 415.38 69.9398C422.72 62.3598 434.1 55.0998 436.8 59.3898C439.63 63.8798 435.12 68.5998 431.31 82.0098C429.78 87.4198 428.31 95.3298 430.2 102.01C436.56 108.69 442.03 114.65 442.29 129.36C442.55 144.07 436.5 159.05 428.61 166.25C425.57 169.117 421.953 171.303 418 172.66C406.89 176.3 392.26 175.16 384.45 171.02C376.23 166.67 371.51 158.02 370.68 148.89C370.416 145.981 370.554 143.051 371.09 140.18C368.76 133.39 369.39 123 372.68 117.28C371.68 112.19 372.91 101.28 379.04 95.6498C383.65 91.3998 395.1 92.4098 405.64 94.7798C409.28 95.5998 412.82 96.5798 415.92 97.5598" stroke="#2D1F04" stroke-width="2.78057" stroke-linecap="round" stroke-linejoin="round"/>
<path d="M372.63 117.28C384.02 112.48 400.57 113.54 410.94 116.99" stroke="#2D1F04" stroke-width="2.78057" stroke-linecap="round" stroke-linejoin="round"/>
<path d="M371 140.18C381.31 134.37 399.51 137.52 408.19 142.4" stroke="#2D1F04" stroke-width="2.78057" stroke-linecap="round" stroke-linejoin="round"/>
<path d="M342.69 263.24V263.06C342.66 263.12 342.68 263.17 342.69 263.24Z" fill="#FFDB1F"/>
<path d="M342.69 265.7C340.95 267.01 337.55 268.57 337.52 270.17C337.33 282.02 336.84 294.79 334.03 304.79" stroke="#2D1F04" stroke-width="2.62" stroke-linecap="round" stroke-linejoin="round"/>
<path d="M330.89 261.86C331.65 264.14 332.51 266.02 337.52 270.17C333.04 268.3 327.2 264.44 324.27 261.22" stroke="#2D1F04" stroke-width="2.62" stroke-linecap="round" stroke-linejoin="round"/>
<path d="M183.48 226.66C191.48 226.88 198.86 226.87 206.25 227.15C212.32 227.38 214.87 231.32 214.18 235.1C213.24 240.31 208.59 243.78 201.98 245.39C201.63 245.48 201.29 245.53 200.59 245.66C205.76 249.13 203.98 255.66 209.53 261.54C204.03 261.24 199.13 260.98 194.08 260.73C191.719 257.482 190.288 253.651 189.94 249.65C189.74 247.65 189.12 246.15 185.56 246.65C182.82 251.02 180.4 255.54 180.49 260.27C176.2 260.13 172.49 260.04 168.89 260.02C171.45 247.3 182.15 239.61 183.48 226.66ZM193.39 233.39C192.437 235.741 191.255 237.992 189.86 240.11C192.37 240.06 194.78 240.11 197.32 239.96C198.318 239.917 199.288 239.619 200.137 239.094C200.986 238.568 201.686 237.834 202.17 236.96C203.02 235.23 202.31 233.86 200.17 233.61C198.03 233.36 195.77 233.45 193.39 233.39Z" fill="#2D1F04"/>
<path d="M247.63 237.46L237.35 237.85C237.42 234.76 235.67 233.03 232.73 232.91C231.8 232.794 230.858 232.983 230.045 233.448C229.232 233.914 228.591 234.63 228.22 235.49C227.98 237.25 229.02 237.87 230.36 238.28C232.82 239.03 235.36 239.72 237.73 240.54C239.049 240.989 240.327 241.551 241.55 242.22C249.2 246.35 246.55 256.22 241.03 260.51C239.001 262.004 236.614 262.939 234.11 263.22C229.284 263.739 224.404 263.352 219.72 262.08C213.02 260.35 208.64 255.76 210.63 250.08H222.13C222.15 250.75 222.211 251.417 222.31 252.08C222.95 255.45 227.22 257.23 231.02 256.08C231.799 255.917 232.515 255.534 233.083 254.975C233.65 254.417 234.045 253.707 234.22 252.93C234.363 252.269 234.266 251.578 233.945 250.982C233.624 250.386 233.101 249.924 232.47 249.68C231.295 249.171 230.093 248.727 228.87 248.35C226.347 247.589 223.864 246.701 221.43 245.69C217.04 243.59 216.19 240.21 217.59 236.29C219.16 231.92 221.82 228.29 226.32 226.88C230.782 225.413 235.597 225.413 240.06 226.88C245.17 228.53 248.07 231.94 247.63 237.46Z" fill="#2D1F04"/>
<g style="mix-blend-mode:multiply" opacity="0.23">
<path d="M154.55 256.22C157.511 252.842 160.987 249.953 164.85 247.66C169.56 244.66 175.4 244.41 180.63 245.16C194.77 247.16 220.41 255.16 234.85 257.08C261.23 260.56 284.12 250.83 281.41 246.89C279.13 243.59 239.72 253.48 224.87 248.34C211.69 243.77 191.06 242.96 177.51 240.71C174.26 240.16 163.61 237.43 160.87 232.5C160.863 233.928 161.292 235.323 162.1 236.5C159.096 242.876 156.572 249.468 154.55 256.22V256.22Z" fill="#3F2719"/>
</g>
<path d="M169.83 185.61C169.95 184.91 169.83 184.67 169.59 184.74C168.78 184.92 166.54 188.27 166.02 189.39C165.02 191.55 167.23 193.51 167.12 194.63C167 195.91 156.73 224.34 162.12 237.24" stroke="#2D1F04" stroke-width="2.62" stroke-linecap="round" stroke-linejoin="round"/>
<path d="M167.66 194C174.09 198.24 186.36 200.51 199.4 202C223.029 204.751 246.96 203.271 270.07 197.63" stroke="#2D1F04" stroke-width="2.62" stroke-linecap="round" stroke-linejoin="round"/>
<path d="M176.86 187.83C176.117 189.53 175.684 191.348 175.58 193.2" stroke="#2D1F04" stroke-width="2.62" stroke-linecap="round" stroke-linejoin="round"/>
<path d="M188.35 190.13C187.593 191.994 187.252 194 187.35 196.01" stroke="#2D1F04" stroke-width="2.62" stroke-linecap="round" stroke-linejoin="round"/>
<path d="M244.56 191.92V192.43V192.94V193.96V194.47" stroke="#2D1F04" stroke-width="2.62" stroke-linecap="round" stroke-linejoin="round"/>
<path d="M248.39 191.92V192.69V193.45V193.96" stroke="#2D1F04" stroke-width="2.62" stroke-linecap="round" stroke-linejoin="round"/>
<path d="M147.91 295.23C147.59 293.088 147.43 290.925 147.43 288.76C147.74 281.13 152.64 256.97 162.1 236.53" stroke="#2D1F04" stroke-width="2.62" stroke-linecap="round" stroke-linejoin="round"/>
<path d="M169.83 185.53C186.767 190.185 204.266 192.48 221.83 192.35C240.9 192.35 258.65 189.53 265.89 186.7C274.389 183.417 282.586 179.402 290.39 174.7C294.39 172.32 299.01 168.63 303.22 165.95C309.88 161.7 317.37 159.65 322.55 160.68C333.24 162.46 344.22 169.42 351.87 174.89C355.6 174.18 360.25 178.43 359.06 180.21C343.27 199.81 337 231.89 342.7 265.74" stroke="#2D1F04" stroke-width="2.62" stroke-linecap="round" stroke-linejoin="round"/>
<path d="M294.69 172.06C289.94 175.31 285.76 182.84 284.69 189.52" stroke="#2D1F04" stroke-width="2.62" stroke-linecap="round" stroke-linejoin="round"/>
<path d="M380.65 168.54C375 175.86 369.12 182.05 363.2 182.25C361.347 182.314 359.493 182.207 357.66 181.93" stroke="#2D1F04" stroke-width="2.62" stroke-linecap="round" stroke-linejoin="round"/>
<path d="M342.62 261.74C351.62 267.28 360.73 269.3 369.62 265.88C409.31 250.64 431.71 178.88 438.62 150.28" stroke="#2D1F04" stroke-width="2.62" stroke-linecap="round" stroke-linejoin="round"/>
<path d="M136.89 223.93C134.92 222.978 133.076 221.786 131.4 220.38C131.12 220.09 130.83 219.86 130.6 219.62C129.72 218.77 128.51 214.11 132 211.5C132.41 210.32 132.88 209.04 133.38 207.69C141.63 185.48 155.01 177.02 169.62 178.53" stroke="#2D1F04" stroke-width="2.62" stroke-linecap="round" stroke-linejoin="round"/>
<path d="M351.86 174.85C342.53 184.52 331.18 202.03 332.05 233.85" stroke="#2D1F04" stroke-width="2.62" stroke-linecap="round" stroke-linejoin="round"/>
<path d="M343.35 185.77C344.791 185.912 346.158 186.476 347.28 187.39" stroke="#2D1F04" stroke-width="2.62" stroke-linecap="round" stroke-linejoin="round"/>
<path d="M340.43 191C341.54 191.16 343.62 191.48 344.61 192.36" stroke="#2D1F04" stroke-width="2.62" stroke-linecap="round" stroke-linejoin="round"/>
<path d="M333.8 210.77C335.662 210.835 337.505 211.172 339.27 211.77" stroke="#2D1F04" stroke-width="2.62" stroke-linecap="round" stroke-linejoin="round"/>
<path d="M132 211.5C139.735 215.802 147.833 219.416 156.2 222.3" stroke="#2D1F04" stroke-width="2.62" stroke-linecap="round" stroke-linejoin="round"/>
<path d="M139.52 215.41C138.35 216.07 137.52 218.41 137.46 219.53" stroke="#2D1F04" stroke-width="2.62" stroke-linecap="round" stroke-linejoin="round"/>
<path d="M146.37 218.53C145.643 219.443 145.195 220.548 145.08 221.71" stroke="#2D1F04" stroke-width="2.62" stroke-linecap="round" stroke-linejoin="round"/>
<path d="M340.62 241.57C340.621 248.19 341.083 254.803 342 261.36C342.19 262.8 342.41 264.24 342.66 265.7" stroke="#2D1F04" stroke-width="2.62" stroke-linecap="round" stroke-linejoin="round"/>
</g>
<defs>
<clipPath id="clip0_243_346">
<rect width="454.73" height="321.6" fill="white"/>
</clipPath>
</defs>
</svg>
