<svg width="100" height="100" viewBox="0 0 100 100" fill="none" xmlns="http://www.w3.org/2000/svg">
<g clip-path="url(#clip0_58_434)">
<path d="M85.1589 60.9579C73.475 65.4214 57.7213 73.9546 47.569 88.483C45.3372 88.5267 43.1054 88.483 40.8299 88.3079C37.6792 81.3501 30.7651 74.0859 22.4944 71.154C21.4879 68.7472 20.6127 66.2091 20.0001 63.6272C19.65 62.2269 19.3874 60.8266 19.2124 59.4263C19.1686 59.2075 19.1686 59.0324 19.1249 58.8136C19.1249 58.7699 19.1249 58.7261 19.1249 58.6386C19.1249 58.4198 19.0811 58.2447 19.0811 58.0259C19.0811 57.8071 19.0373 57.5883 19.0373 57.3695C19.0373 57.282 19.0373 57.2383 19.0373 57.1945C19.0373 56.9757 19.0374 56.8006 18.9936 56.6256C18.9936 56.2318 18.9498 55.7942 18.9498 55.4003C18.9498 55.1815 18.9498 54.919 18.9498 54.7002C18.9498 54.4814 18.9498 54.2626 18.9936 54C19.2124 50.1929 20.2189 46.3857 22.3194 42.8412C23.5884 40.6969 25.0762 39.034 26.9579 37.6775C25.9077 38.2026 23.4134 36.7585 23.9822 35.1394C24.026 34.9643 24.5074 35.577 25.7327 35.577C26.9142 35.577 27.6143 35.0519 27.6581 34.9643C27.7456 34.7455 27.2643 34.7018 27.0017 34.7018C23.851 34.3517 22.2318 30.5446 25.7327 28.3566C25.8202 28.269 26.214 29.7569 27.133 30.4133C28.3583 31.2885 30.1962 31.376 30.1962 30.9384C27.5268 29.188 28.9271 24.7682 32.6905 24.0681C32.7343 24.0681 32.0341 27.7439 36.2788 28.5316C35.8412 26.0373 36.7164 23.718 38.4668 22.3177C41.8801 19.6045 46.3874 21.6613 46.4749 21.705C46.8688 21.8801 44.2869 22.8428 44.1994 25.2058C44.1119 27 45.3372 28.0065 46.5187 28.269C46.7813 28.3128 47.3502 28.3566 47.3502 28.3566C47.3502 28.3566 46.0811 25.8185 48.9255 25.3809C48.9693 25.3809 48.6192 26.4749 49.1006 27.2188C49.5819 27.919 50.8947 28.2253 51.5074 28.4878C54.8331 29.7131 58.1589 30.5446 61.3096 32.0762C71.2869 36.7585 78.026 44.0665 82.1395 52.731C83.321 55.3566 84.3712 58.1135 85.1589 60.9579Z" fill="#9CDAF0"/>
<path d="M42.7553 96.0537C42.7553 95.9661 42.7553 95.8349 42.7553 95.7036C42.7553 95.441 42.7553 95.1785 42.7116 94.9159C42.7116 94.9159 42.7116 94.9159 42.7116 94.8721C42.6241 93.7344 41.6613 90.0148 40.8737 88.4832C42.0989 88.5269 45.6873 88.5269 47.569 88.4832C46.475 90.2773 43.5868 95.0472 42.6678 96.9726C42.7116 96.7101 42.7553 96.36 42.7553 96.0537Z" fill="#7FC6E2"/>
<path d="M21.5317 55.0504C22.4506 51.2871 24.201 48.0051 27.2643 46.3859C31.3777 44.1979 34.0033 44.6355 37.7667 43.8041C39.342 43.454 40.5673 42.8414 40.8299 41.266C40.9612 40.5658 40.6986 39.8219 39.9985 38.8154C41.3988 38.8154 42.9304 39.3843 44.0681 40.3033C46.3874 42.185 49.3631 42.5788 52.0762 42.4913C61.6597 42.185 67.7424 43.3227 72.3809 51.7247C73.4312 53.6064 75.0065 57.9386 73.9563 62.7522C72.3809 69.7976 71.5495 72.7295 63.9352 77.9807C54.8769 84.2384 36.1038 87.3454 26.7391 75.5302C22.3194 69.9726 19.7813 62.1396 21.5317 55.0504Z" fill="#9CDAF0"/>
<path d="M39.0357 58.2885C35.885 56.7131 33.3031 64.6774 33.5657 66.9967C34.4409 74.8735 45.9498 74.4359 51.2448 71.7666C58.9466 67.9157 49.5382 55.5316 44.0244 57.7196" fill="#7FC6E2"/>
<path d="M21.5317 55.0941C20.0876 60.9579 21.7505 67.5657 23.0633 68.5285C24.0698 69.2724 29.4085 66.0779 32.9531 60.7391C36.7165 55.1816 36.979 49.3178 35.9725 48.355C35.4037 47.7861 27.0017 46.9985 25.864 47.261C24.4636 47.6111 22.5382 51.0682 21.5317 55.0941Z" fill="#7FC6E2"/>
<path d="M50.9822 48.0923C50.107 64.5461 69.624 73.2544 71.8121 70.0599C73.2124 68.0032 75.9693 59.4262 72.8623 52.6434C71.2432 49.1425 67.9174 45.1604 66.2108 45.1604C63.1913 45.1166 59.2091 46.0793 55.9709 46.8233C53.3015 47.4359 51.1135 46.9983 50.9822 48.0923Z" fill="#7FC6E2"/>
<path d="M27.4831 37.2837C25.3826 38.7278 23.6759 40.5219 22.3194 42.8412C16.193 53.2124 19.4312 65.3339 24.3761 75.2237C24.8137 76.0989 25.4263 77.1054 25.5576 78.0681C25.6451 78.5495 25.3388 79.3809 25.5576 79.8185C25.6451 79.9936 26.0827 79.3372 26.1265 79.556C26.2578 80.4749 26.1265 81.5252 26.039 82.4004C25.9952 82.7505 25.6014 83.6694 25.8639 83.4069C25.9515 83.3193 26.1703 82.5754 26.5203 82.6629C26.6954 82.7067 26.5203 87.6078 26.4328 88.0892" stroke="#9CDAF0" stroke-width="1.21679" stroke-miterlimit="10" stroke-linecap="round" stroke-linejoin="round"/>
<path d="M26.8267 37.5899C25.7764 38.1151 23.3696 36.8023 23.8947 35.1831C23.9385 35.0081 24.4199 35.6207 25.6451 35.6207C26.8267 35.6207 27.5268 35.0956 27.5706 35.0081C27.6581 34.7893 27.1767 34.7455 26.9142 34.7455C23.7635 34.3954 22.1443 30.5883 25.6451 28.4003C25.7327 28.3566 26.1265 29.8006 27.0455 30.457C28.2708 31.3322 30.1087 31.4198 30.1087 30.9822C27.4393 29.2318 28.8396 24.812 32.603 24.1118C32.6905 24.1118 31.7716 27.7877 36.0163 28.5754" stroke="#2D1F04" stroke-width="1.21679" stroke-miterlimit="10" stroke-linecap="round" stroke-linejoin="round"/>
<path d="M87.4782 79.731C87.697 60.214 80.6078 41.0908 61.2221 32.0325C58.0714 30.5009 54.7456 29.6694 51.4198 28.4442C50.8072 28.2254 49.4944 27.8753 49.013 27.2189C48.4879 26.4749 48.838 25.3809 48.838 25.3809C46.0373 25.8623 47.2626 28.4004 47.2626 28.4004C47.2626 28.4004 46.6937 28.3566 46.4312 28.3129C45.2497 28.0503 44.0244 27.0438 44.1119 25.2497C44.2432 22.8866 46.7813 21.9239 46.3874 21.7489C46.2999 21.7051 41.8364 19.6484 38.3793 22.3615C36.4976 23.8493 35.6224 26.3874 36.2788 29.0568" stroke="#9CDAF0" stroke-width="1.21679" stroke-miterlimit="10" stroke-linecap="round" stroke-linejoin="round"/>
<path d="M66.911 54.5689C66.1233 58.945 55.0958 59.295 55.3146 53.5187C55.4021 51.1994 58.0714 50.3242 62.0099 50.3242C65.9483 50.3242 67.3923 52.0309 66.911 54.5689Z" fill="#D3E5EA"/>
<path d="M32.603 55.8817C31.8153 60.2577 22.013 60.7828 22.3193 55.0065C22.4506 52.6872 24.8137 51.7682 28.3145 51.7245C31.8153 51.6807 33.0406 53.3436 32.603 55.8817Z" fill="#D3E5EA"/>
<path d="M66.9984 53.6937C65.6418 51.8996 63.235 51.637 60.2593 52.0746C57.6775 52.4685 56.1459 53.2124 55.3582 54.1751C55.3145 53.9563 55.3145 53.7375 55.3145 53.5187C55.402 51.1994 58.0713 50.3242 61.966 50.3242C65.4668 50.3242 66.9984 51.637 66.9984 53.6937Z" fill="#D3E5EA"/>
<path d="M32.6468 55.4005C31.5965 53.3 29.5398 52.9499 26.8704 53.3875C24.0698 53.8689 22.8007 54.9629 22.4069 56.3632C22.2756 55.9693 22.2319 55.488 22.2756 55.0066C22.4069 52.6873 24.77 51.7684 28.2708 51.7246C31.5528 51.6371 32.8656 53.1249 32.6468 55.4005Z" fill="#D3E5EA"/>
<path d="M37.1541 58.2886C37.1104 57.1071 39.4296 56.0131 42.3616 55.8818C45.2935 55.7505 47.7441 56.582 47.7878 57.7635C47.8316 58.945 45.5123 60.039 42.5804 60.1703C39.6484 60.3453 37.1979 59.4701 37.1541 58.2886Z" fill="#7FC6E2"/>
<path d="M47.3065 48.5738C47.3065 48.5738 50.676 48.2675 54.4394 47.5673C59.1217 46.6921 61.7911 44.5479 63.8478 44.6354C65.992 44.7229 71.9872 47.4361 71.9872 47.4361" stroke="#2D1F04" stroke-width="3.5296" stroke-miterlimit="10" stroke-linecap="round" stroke-linejoin="round"/>
<path d="M37.1103 49.2302C37.1103 49.2302 33.7408 49.1865 30.3713 48.7926C27.3518 48.4426 24.1573 47.0422 22.4944 47.0422C20.7003 47.086 15.7116 49.6241 15.7116 49.6241" stroke="#2D1F04" stroke-width="3.5296" stroke-miterlimit="10" stroke-linecap="round" stroke-linejoin="round"/>
<path d="M66.911 54.5689C66.1233 58.945 55.0958 59.295 55.3146 53.5187C55.4021 51.1994 58.0714 50.3242 62.0099 50.3242C65.9483 50.3242 67.3923 52.0309 66.911 54.5689Z" stroke="#9CDAF0" stroke-width="1.41647" stroke-miterlimit="10" stroke-linecap="round" stroke-linejoin="round"/>
<path d="M32.603 55.8817C31.8153 60.2577 22.013 60.7828 22.3193 55.0065C22.4506 52.6872 24.8137 51.7682 28.3145 51.7245C31.8153 51.6807 33.0406 53.3436 32.603 55.8817Z" stroke="#9CDAF0" stroke-width="1.41647" stroke-miterlimit="10" stroke-linecap="round" stroke-linejoin="round"/>
<path d="M59.4279 54.4377C59.4279 53.4749 60.2156 52.6873 61.1783 52.6873C62.141 52.6873 62.9287 53.4749 62.9287 54.4377C62.9287 55.4004 62.141 56.1881 61.1783 56.1881C60.2156 56.1881 59.4279 55.4004 59.4279 54.4377Z" fill="#3399CC"/>
<path d="M26.0828 55.4003C26.0828 54.4376 26.8704 53.6499 27.8332 53.6499C28.7959 53.6499 29.5836 54.4376 29.5836 55.4003C29.5836 56.363 28.7959 57.1507 27.8332 57.1507C26.8704 57.1945 26.0828 56.4068 26.0828 55.4003Z" fill="#3399CC"/>
<path d="M33.1281 79.5999L31.4214 83.9321" stroke="#9D7B51" stroke-width="1.79732" stroke-miterlimit="10" stroke-linecap="round" stroke-linejoin="round"/>
<path d="M34.2222 85.2009V87.8265" stroke="#9D7B51" stroke-width="1.79732" stroke-miterlimit="10" stroke-linecap="round" stroke-linejoin="round"/>
<path d="M36.06 140.032C35.1848 149.135 34.2659 155.48 34.1784 159.506C29.496 159.418 14.3988 158.237 14.6176 151.891C14.7926 147.472 15.1427 136.75 15.3177 131.499C8.0098 130.624 1.5333 129.092 -1.04855 125.329C-3.98048 121.041 -4.46184 99.7294 12.0795 81.7002C17.9871 81.9628 22.4944 83.3193 25.6889 84.7196C26.4328 85.026 27.1767 85.4198 27.9644 85.8137C28.1395 85.9012 28.2707 85.9887 28.4458 86.0762C28.4895 86.12 28.5771 86.1637 28.6646 86.2075C28.8834 86.3388 29.1022 86.4263 29.2772 86.5576C29.3647 86.6013 29.4523 86.6888 29.5835 86.7326C32.2529 96.3598 33.9596 103.143 35.2724 111.413C36.6727 120.078 36.3664 130.23 36.06 140.032Z" fill="#9CDAF0"/>
<path d="M100.781 128.524C102.007 136.313 102.794 144.802 102.794 153.773C102.794 156.836 99.5122 158.937 94.3048 160.293C89.1849 161.65 82.227 162.263 74.7878 162.438C74.744 162.438 73.1249 162.438 73.0811 162.482C68.5301 162.525 63.804 162.394 59.2967 162.175C51.8137 161.781 44.8121 161.081 39.6921 160.293C38.1168 160.075 38.1168 160.25 36.9353 160.031C36.7165 156.53 35.9725 142.352 36.0163 140.076C36.0163 140.076 35.5349 130.668 36.0601 125.373C37.5917 120.647 38.992 118.721 41.3113 115.133C41.355 115.089 41.355 115.046 41.3988 115.002C48.3567 98.7668 71.7683 92.9467 81.6581 91.1087C82.7521 90.8899 83.6711 90.7587 84.3712 90.6274L84.3275 90.5836H84.3712C82.6646 88.2206 80.3453 85.595 78.1573 83.4507C77.2821 82.6193 76.4507 81.8316 75.663 81.219C78.7699 79.4685 82.9272 78.3745 87.3907 77.6306C95.6176 79.9937 98.2432 84.9386 101.7 91.2838C106.295 99.7295 110.015 110.363 110.058 114.214C110.146 118.065 105.507 123.929 100.781 128.524Z" fill="#9CDAF0"/>
<path d="M42.5803 97.1041C40.9174 100.692 39.5609 104.587 38.6419 108.788C37.4604 114.214 36.6289 119.816 36.1038 125.373C36.1038 118.809 35.5349 113.82 35.2724 111.457C34.1346 100.911 24.5074 94.6535 18.9061 92.2904C21.5317 90.0149 23.7634 88.6584 26.3891 87.7394C27.3955 87.3893 28.402 87.083 29.5835 86.8204C28.6646 86.2078 27.6143 85.6827 26.5203 85.2013C20.2189 82.4007 11.3793 81.3067 4.85907 82.707C8.57868 74.4363 13.7861 68.2661 20.0001 63.7151C20.6127 66.2532 21.4879 68.7913 22.4944 71.1981C34.4847 75.4428 43.6305 88.8334 42.5803 97.1041Z" fill="#9CDAF0"/>
<path d="M87.4782 77.4997C82.971 78.2436 78.8575 79.3376 75.7068 81.088C78.4637 83.3635 82.052 87.2144 84.4588 90.4964C77.1509 91.678 49.9321 96.1853 41.3988 115.09C39.6484 118.984 37.8543 123.492 35.5787 132.506C36.1039 126.949 37.5042 114.214 38.6857 108.832C39.6047 104.631 40.9612 100.736 42.6241 97.148C51.8575 77.3246 71.3745 66.2971 85.2027 61.0021C84.415 58.1577 83.3648 55.4008 82.1395 52.7314C96.4928 55.6196 105.989 66.7784 110.146 75.8368C103.67 76.0994 95.0925 76.2306 87.4782 77.4997Z" fill="#9CDAF0"/>
<path d="M18.9936 54.0439C18.6873 59.864 20.2189 65.7279 22.4944 71.1979" stroke="#7FC6E2" stroke-width="1.21679" stroke-miterlimit="10" stroke-linecap="round" stroke-linejoin="round"/>
<path d="M85.2027 61.1768C83.8899 56.5382 82.0519 52.1185 79.5139 48.0925" stroke="#7FC6E2" stroke-width="1.21679" stroke-miterlimit="10" stroke-linecap="round" stroke-linejoin="round"/>
<path d="M92.9045 134.956C97.7618 132.024 110.146 121.391 110.102 114.126C110.102 110.232 106.339 99.6418 101.744 91.1961C98.3307 84.8509 95.5738 80.1686 87.4344 77.543" stroke="#7FC6E2" stroke-width="1.21679" stroke-miterlimit="10" stroke-linecap="round" stroke-linejoin="round"/>
<path d="M74.3501 47.83C74.3064 47.7863 74.3064 47.7863 74.2626 47.7425C73.6937 47.3487 73.1686 47.2174 70.4993 47.1299C63.8477 46.8235 57.1962 47.0423 54.133 47.3924C48.838 48.0051 47.0438 48.5739 45.9936 48.5739C44.3745 48.5739 42.9741 48.5739 42.2302 48.5302C41.4863 48.4864 39.6046 47.9613 36.4539 47.6112C33.3031 47.2611 26.214 46.6485 20.6565 46.9986C15.0552 47.3487 14.2675 47.5237 14.0924 47.655C13.5673 48.0051 13.436 51.1995 13.8299 51.5059C14.3112 51.8997 15.6678 51.9435 15.9304 52.2498C16.1929 52.5561 16.3242 56.9321 18.6435 60.2141C21.1378 63.7587 28.7959 63.89 34.8785 61.4394C36.06 60.9581 36.8477 60.4767 37.5041 59.8203C38.3356 58.9888 38.8607 57.8948 39.4296 56.3632C40.1735 54.394 40.6986 52.7749 42.1865 51.9435C42.7553 51.6371 43.4555 51.4621 44.3307 51.4183C47.569 51.2871 48.0066 57.501 49.3631 59.4265C51.7699 62.8835 61.3534 63.7149 64.9855 62.2271C71.5933 59.5577 71.7683 52.2498 72.4247 51.8997C73.0373 51.5496 73.825 51.7684 74.2189 51.5059C74.6127 51.3746 74.8315 48.4427 74.3501 47.83ZM38.0292 53.9127C37.898 54.3503 37.7667 54.7879 37.5916 55.1817C37.1103 56.5383 36.4976 57.8511 35.4912 58.8138C35.0536 59.2076 34.5722 59.5577 34.0033 59.7765C33.4782 59.9953 32.8655 60.1704 32.2529 60.3454C28.1832 61.3519 22.2318 61.1331 20.6565 58.9013C20.0876 58.1136 19.5187 56.6258 19.0811 55.0504C19.0373 54.8754 18.9936 54.7004 18.9498 54.4816C18.731 53.4751 18.5122 52.5561 18.5997 51.7247C18.6873 50.7619 19.2124 49.9743 20.6565 49.4054C21.6192 49.0115 23.4571 48.8803 25.6014 48.8365C26.8704 48.8365 28.1832 48.8803 29.5398 48.924C33.5657 49.1428 37.0665 49.2741 38.0292 50.5869C38.5544 51.4621 38.4231 52.6436 38.0292 53.9127ZM69.5803 53.6064C69.1427 55.313 68.0924 57.1509 66.9109 58.4637C66.2545 59.2077 65.5544 59.7765 64.8542 60.0391C64.6792 60.1266 64.4604 60.1704 64.2853 60.2579C59.6467 61.7895 52.7326 60.2579 51.1135 58.0261C50.4571 57.1072 50.0195 55.7068 49.8007 54.4378V54.394C49.6257 53.1688 49.5382 52.1623 49.8882 51.3746C50.1508 50.7619 50.6759 50.2368 51.5949 49.8867C52.6889 49.4491 55.3145 49.1866 58.2027 49.0553C59.0341 49.0115 59.8655 48.9678 60.697 48.9678C64.5916 48.8365 68.3113 48.8803 69.274 50.2806C69.8866 51.0683 69.9304 52.2935 69.5803 53.6064Z" fill="#7FC6E2"/>
<path d="M74.3504 47.8298C73.9566 47.3922 73.3439 47.2609 70.4995 47.1296C63.848 46.8233 57.1964 47.0421 54.177 47.3922C48.8382 48.0048 47.0441 48.5737 46.0376 48.5737C44.4622 48.5737 43.0181 48.5737 42.2742 48.5299C41.5303 48.4862 39.6486 48.0048 36.4979 47.611C33.3472 47.2609 26.258 46.6482 20.7005 46.9983C15.0992 47.3484 14.3115 47.5672 14.1365 47.6547C13.6113 48.0048 13.4801 51.1993 13.8739 51.5056C14.3553 51.8995 15.7118 51.9432 15.9744 52.2495C16.2369 52.5559 16.3682 56.9319 18.6875 60.2139C21.1818 63.7585 28.8399 63.8897 34.9225 61.4392C37.6356 60.3452 38.5108 59.0761 39.4736 56.363C40.4801 53.6499 41.1365 51.5494 44.3747 51.4619C47.613 51.3306 48.0943 57.5883 49.4071 59.47C51.8139 62.927 61.3974 63.7585 65.0295 62.2706C71.6373 59.6012 71.8123 52.2933 72.4687 51.9432C73.0814 51.5931 73.869 51.8119 74.2629 51.5494C74.6567 51.2868 74.8318 48.4424 74.3504 47.8298Z" stroke="#9CDAF0" stroke-width="1.14652" stroke-miterlimit="10" stroke-linecap="round" stroke-linejoin="round"/>
<path opacity="0.8" d="M38.0293 53.9126C37.898 54.3502 37.7667 54.7878 37.5917 55.1816C37.1103 56.5382 36.4977 57.851 35.4912 58.8137C35.0536 59.2076 34.5722 59.5577 34.0033 59.7765C33.4782 59.9953 32.8656 60.1703 32.2529 60.3453C28.1832 61.3518 22.2319 61.133 20.6565 58.9013C20.0876 58.1136 19.5187 56.6257 19.0811 55.0504C19.0374 54.8753 18.9936 54.7003 18.9499 54.4815C18.7311 53.475 18.5123 52.556 18.5998 51.7246C18.6873 50.7619 19.2124 49.9742 20.6565 49.4053C21.6192 49.0115 23.4572 48.8802 25.6014 48.8364C26.8704 48.8364 28.1832 48.8802 29.5398 48.9239C33.5657 49.1427 37.0666 49.274 38.0293 50.5868C38.5544 51.462 38.4231 52.6436 38.0293 53.9126Z" fill="#9CDAF0"/>
<path opacity="0.8" d="M69.5803 53.6064C69.1427 55.3131 68.0925 57.151 66.911 58.4638C66.2545 59.2077 65.5544 59.7766 64.8542 60.0392C64.6792 60.1267 64.4604 60.1704 64.2853 60.258C59.6468 61.7896 52.7327 60.258 51.1135 58.0262C50.4571 57.1072 50.0195 55.7069 49.8007 54.4379V54.3941C49.6257 53.1688 49.5382 52.1623 49.8883 51.3747C50.1508 50.762 50.6759 50.2369 51.5949 49.8868C52.6889 49.4492 55.3145 49.1867 58.2027 49.0554C59.0341 49.0116 59.8656 48.9679 60.697 48.9679C64.5917 48.8366 68.3113 48.8803 69.274 50.2807C69.8866 51.0683 69.9304 52.2936 69.5803 53.6064Z" fill="#9CDAF0"/>
<path d="M68.7488 53.2563C68.7488 53.3001 68.7051 53.3876 68.7051 53.4313C68.3112 55.0067 67.3485 56.7571 66.2108 58.0262C66.2108 58.0699 66.167 58.0699 66.167 58.1137L50.7634 51.6809C50.7634 51.6372 50.8072 51.5934 50.8072 51.5497C51.026 51.0683 51.4198 50.7182 52.0762 50.4557C52.6451 50.2369 54.2205 49.8868 58.3339 49.7117C58.7715 49.668 59.2529 49.668 59.778 49.668L68.7488 53.2563Z" fill="url(#paint0_linear_58_434)"/>
<path d="M63.2351 59.8202C59.0779 60.8267 53.2578 59.5576 51.945 57.676C51.4636 57.0195 51.0698 55.9693 50.851 54.8315L63.2351 59.8202Z" fill="url(#paint1_linear_58_434)"/>
<path d="M37.1978 53.5626C37.1978 53.6064 37.1541 53.6939 37.1541 53.7377C37.0228 54.1753 36.8477 54.6566 36.7602 55.0067C36.3226 56.1445 35.7975 57.4573 34.8348 58.3762C34.791 58.42 34.7473 58.4637 34.7035 58.4637L19.4312 52.0748C19.4312 51.9435 19.4312 51.856 19.4312 51.7684C19.5187 50.937 20.0001 50.4119 21.0066 49.9743C21.4442 49.7992 22.5819 49.5367 25.5576 49.4929C26.0828 49.4929 26.6516 49.4929 27.2643 49.4929L37.1978 53.5626Z" fill="url(#paint2_linear_58_434)"/>
<path d="M31.0714 59.8641C27.2643 60.5643 22.6257 60.2142 21.4442 58.5513C21.0066 57.9387 20.4815 56.7571 20.0876 55.4443L31.0714 59.8641Z" fill="url(#paint3_linear_58_434)"/>
<path d="M38.0293 53.9126C37.898 54.3502 37.7667 54.7878 37.5917 55.1816C37.1103 56.5382 36.4977 57.851 35.4912 58.8137C35.0536 59.2076 34.5722 59.5577 34.0033 59.7765C33.4782 59.9953 32.8656 60.1703 32.2529 60.3453C28.1832 61.3518 22.2319 61.133 20.6565 58.9013C20.0876 58.1136 19.5187 56.6257 19.0811 55.0504C19.0374 54.8753 18.9936 54.7003 18.9499 54.4815C18.7311 53.475 18.5123 52.556 18.5998 51.7246C18.6873 50.7619 19.2124 49.9742 20.6565 49.4053C21.6192 49.0115 23.4572 48.8802 25.6014 48.8364C26.8704 48.8364 28.1832 48.8802 29.5398 48.9239C33.5657 49.1427 37.0666 49.274 38.0293 50.5868C38.5544 51.462 38.4231 52.6436 38.0293 53.9126ZM69.5803 53.6063C69.1427 55.3129 68.0925 57.1509 66.911 58.4637C66.2546 59.2076 65.5544 59.7765 64.8542 60.039C64.6792 60.1265 64.4604 60.1703 64.2853 60.2578C59.6468 61.7894 52.7327 60.2578 51.1136 58.0261C50.4572 57.1071 50.0195 55.7068 49.8007 54.4377V54.394C49.6257 53.1687 49.5382 52.1622 49.8883 51.3745C50.1508 50.7619 50.6759 50.2368 51.5949 49.8867C52.6889 49.4491 55.3145 49.1865 58.2027 49.0552C59.0341 49.0115 59.8656 48.9677 60.697 48.9677C64.5917 48.8364 68.3113 48.8802 69.274 50.2805C69.8866 51.0682 69.9304 52.2935 69.5803 53.6063Z" stroke="#9CDAF0" stroke-width="1.21679" stroke-miterlimit="10" stroke-linecap="round" stroke-linejoin="round"/>
<path d="M89.4038 34.9206C89.5351 42.8849 67.3049 57.282 38.5108 55.7504C11.7733 54.3063 3.94026 46.2545 3.85274 39.953C3.72146 35.4457 7.52859 29.2318 22.4508 24.6807C22.4946 23.2366 22.4946 21.53 22.5383 19.517C22.6258 12.0778 21.4005 4.5073 28.4459 4.37602C38.5545 4.20098 45.2061 10.2836 50.4135 10.1086C57.8965 9.0146 64.373 5.95139 67.5675 6.87035C72.1185 8.18315 74.044 11.684 71.9435 19.342C71.5934 20.611 71.3309 21.705 71.1558 22.7115C82.1834 25.5559 89.3163 30.5008 89.4038 34.9206Z" fill="#9CDAF0"/>
<path opacity="0.32" d="M89.4036 34.9207C89.5349 42.5787 68.9676 56.2319 41.7488 55.838C67.7861 55.4004 87.1719 42.3599 87.0406 34.9207C86.9968 31.2011 81.9206 27.1314 73.7375 24.1995C74.7002 23.8931 75.5754 24.1119 77.2821 24.6371H77.3258C84.765 27.5252 89.3161 31.4199 89.4036 34.9207Z" fill="#9CDAF0"/>
<path d="M71.5058 31.7698C68.18 38.3338 56.9774 45.4667 43.4993 45.6417C29.0585 45.8605 21.0066 41.0907 20.8753 34.5704C25.2076 37.2398 34.4847 38.9902 41.9239 38.9027C49.3632 38.7714 65.2481 36.102 71.5058 31.7698Z" fill="#9CDAF0"/>
<path opacity="0.23" d="M37.9855 12.603C37.8105 13.872 29.3648 23.1929 28.6646 37.415C25.5139 36.6711 22.757 35.7083 20.8753 34.5706C22.0131 31.026 22.3194 28.4879 22.4069 24.6808C22.4507 23.2367 22.4507 21.53 22.4944 19.5171C22.582 12.0779 21.3567 4.50736 28.402 4.37608C31.509 4.33232 34.3097 4.85744 36.804 5.64512C34.7035 5.20752 32.5155 5.03248 32.0779 6.08272C31.4215 7.61433 38.1606 11.2902 37.9855 12.603Z" fill="#9CDAF0"/>
<path opacity="0.23" d="M50.3696 10.1087C50.3258 10.1087 50.3258 10.1087 50.3696 10.1087C47.1313 10.59 43.718 10.6776 40.261 9.97739C41.8364 9.97739 44.5495 10.0649 46.65 9.45227C47.9628 9.84611 49.1881 10.1524 50.3696 10.1087Z" fill="#9CDAF0"/>
<path opacity="0.23" d="M86.1216 41.1346C78.945 48.6613 60.6532 56.932 38.4669 55.7067C11.7294 54.2626 3.89635 46.2108 3.80883 39.9093C3.76507 37.3275 5.03411 34.133 9.01628 31.026C6.87204 33.4328 6.08435 35.7959 6.12811 37.8088C6.21563 44.1103 14.0487 52.1621 40.7861 53.6062C60.9158 54.7002 77.8072 48.0049 86.1216 41.1346Z" fill="#9CDAF0"/>
<path opacity="0.23" d="M71.5058 31.7699C71.287 29.013 71.9872 24.9871 73.2125 24.4182C74.394 23.8493 75.2692 24.0681 77.2822 24.6808C75.2692 23.9368 72.9937 23.1929 71.112 22.7115C70.1492 27.744 71.112 29.7569 71.5058 31.7699Z" fill="#9CDAF0"/>
<path opacity="0.23" d="M110.146 114.126C110.146 118.109 105.507 123.929 100.825 128.524C100.825 128.611 100.869 128.655 100.869 128.742C97.8931 131.543 94.8736 133.862 92.9482 135C88.2659 135.875 82.9271 136.269 78.5074 136.225C79.0325 135.7 79.5576 135.131 80.0827 134.606C84.1962 134.869 88.3971 134.912 90.1476 134.344C92.3793 133.6 95.0487 131.806 98.1119 128.48C101.569 124.76 105.901 118.24 106.601 115.177C107.783 110.188 101.394 100.167 97.0617 91.4587C94.3048 85.8574 90.06 83.1443 84.7213 83.2318C83.321 83.2755 82.227 83.3631 81.5706 83.5381C85.8153 87.8704 88.4847 92.8153 89.8412 97.1475C69.3177 93.8217 45.2059 108.831 41.8801 114.039C49.2756 98.4603 72.0309 92.8153 81.7456 91.0211C82.8396 90.8023 83.7586 90.671 84.4587 90.5397L84.415 90.496H84.4587C82.7521 88.1329 80.4328 85.5073 78.2448 83.3631C77.3696 82.5316 76.5382 81.7439 75.7505 81.1313C78.3761 79.6872 81.6581 78.6807 85.2902 77.9368C85.6403 77.8493 86.0341 77.8055 86.3842 77.718C86.7343 77.6305 87.0843 77.5867 87.4344 77.543C87.4782 77.543 87.5219 77.5867 87.5657 77.5867C92.992 79.3809 96.0114 82.1378 98.462 85.6824C99.5122 87.1702 100.431 88.8331 101.438 90.6273C101.525 90.8023 101.656 91.0211 101.744 91.1961C102.794 93.1216 103.801 95.1783 104.72 97.235C104.938 97.7164 105.157 98.1977 105.332 98.6353C105.464 98.8979 105.595 99.2042 105.682 99.4668C105.901 99.9482 106.076 100.43 106.251 100.867C106.295 101.042 106.383 101.173 106.426 101.348C106.733 102.092 106.995 102.836 107.302 103.536C109.052 108.131 110.102 112.07 110.146 114.126Z" fill="#3399CC"/>
<path opacity="0.23" d="M98.5057 85.6825C96.0551 82.138 93.0357 79.3811 87.6094 77.5869C91.6791 78.7684 96.3615 81.7879 98.5057 85.6825Z" fill="#3399CC"/>
<path opacity="0.32" d="M39.0795 112.945C39.4734 107.694 41.2238 102.574 43.5431 97.8915C50.9385 83.1443 65.1606 69.4037 85.5965 62.4458C83.321 65.1152 81.2643 67.0406 78.945 68.8348C65.4669 78.6808 46.9126 82.7505 39.0795 112.945Z" fill="#3399CC"/>
<path opacity="0.32" d="M20.7003 71.6355C28.8834 74.5237 40.6986 82.7943 41.6614 96.7101C39.0795 81.7441 26.039 79.4248 20.7003 71.6355Z" fill="#3399CC"/>
<path opacity="0.23" d="M16.0179 119.028V118.94C16.4992 118.809 16.7618 118.59 16.7618 118.284C16.7618 118.065 16.6305 117.802 16.368 117.54C16.4992 116.883 16.543 116.183 16.5868 115.483C16.5868 115.352 16.5868 115.177 16.5868 115.046C16.6305 113.689 16.5868 112.289 16.543 110.801C16.4992 109.794 16.4992 108.744 16.4992 107.606C16.543 105.112 16.8493 102.355 17.7683 99.2043V99.2481C16.8056 110.67 19.8688 115.264 19.8688 119.859C18.5122 119.422 17.7245 119.29 16.0179 119.028Z" fill="#3F2719"/>
<path opacity="0.32" d="M62.9288 9.93364C59.7343 10.9839 53.0828 13.0406 49.7132 13.3469C46.3437 13.6533 44.9871 17.3729 52.5576 16.3226C60.1719 15.2724 66.4296 13.2594 67.9174 12.1654C69.4053 11.0714 68.2238 8.18324 62.9288 9.93364Z" fill="#3399CC"/>
<path opacity="0.23" d="M87.6102 77.587C87.5662 77.587 87.5222 77.543 87.4782 77.543C87.5222 77.543 87.5662 77.587 87.6102 77.587Z" fill="#3399CC"/>
<path opacity="0.23" d="M29.6273 86.8202C28.9271 86.9952 28.2269 87.1702 27.5705 87.389C26.8266 87.6078 26.1702 87.8704 25.47 88.133C20.7002 83.013 13.7861 85.8137 12.7359 86.2075C11.2042 86.7764 6.25935 94.3469 3.50246 103.755C0.833097 112.989 0.964377 122.31 3.94007 124.323C6.91576 126.336 15.1864 128.173 22.7132 128.699C22.7569 129.749 22.932 130.843 23.1945 132.024C20.919 132.024 18.5122 131.893 15.3177 131.587C8.70992 130.799 2.75854 129.486 -0.217146 126.423C-0.304667 126.336 -0.435947 126.204 -0.523467 126.117C-0.698508 125.898 -0.873548 125.679 -1.04859 125.46C-2.14259 123.841 -2.88651 119.859 -2.53643 114.52C-2.49267 114.214 -2.49267 113.908 -2.44891 113.601C-2.40515 113.295 -2.40515 113.032 -2.36139 112.726C-2.31763 112.201 -2.23011 111.72 -2.14259 111.195C-2.09883 110.844 -2.05507 110.538 -2.01131 110.188C-1.96755 110.013 -1.96755 109.794 -1.92379 109.619C-1.88003 109.313 -1.79251 108.963 -1.74875 108.656C-1.70499 108.481 -1.66123 108.306 -1.66123 108.131C-1.61747 107.956 -1.57371 107.781 -1.52995 107.606C-1.48619 107.431 -1.44243 107.256 -1.39867 107.081C-1.31115 106.775 -1.26739 106.425 -1.17987 106.118C-1.13611 106.031 -1.13611 105.943 -1.09235 105.856C-0.961068 105.374 -0.829788 104.849 -0.698508 104.368C-0.523467 103.799 -0.348426 103.274 -0.173386 102.705C0.089175 101.961 0.351735 101.173 0.614296 100.43C0.701816 100.255 0.745577 100.036 0.833097 99.8607C1.7083 97.5414 2.8023 95.1783 4.15887 92.8153C4.24639 92.6403 4.33391 92.509 4.42143 92.3339C4.72775 91.8088 5.03407 91.3275 5.34039 90.8023C5.47167 90.5835 5.60295 90.4085 5.73423 90.1897C5.86551 89.9709 5.99679 89.7958 6.12807 89.577C6.25935 89.3582 6.39063 89.1832 6.52191 88.9644C6.65319 88.7894 6.74072 88.6143 6.872 88.4393C6.95952 88.308 7.04704 88.1767 7.13456 88.0454C7.26584 87.8704 7.39712 87.6516 7.5284 87.4766C7.57216 87.389 7.65968 87.3015 7.7472 87.214C7.87848 86.9952 8.05352 86.8202 8.1848 86.6014C8.31608 86.3826 8.49112 86.2075 8.66616 85.9887C8.79744 85.8137 8.97248 85.5949 9.10376 85.4198C9.19128 85.3323 9.2788 85.201 9.36632 85.1135C9.54136 84.8947 9.67264 84.7197 9.84768 84.5446C9.97896 84.3696 10.1102 84.1946 10.2853 84.0195C10.8104 83.4069 11.2918 82.838 11.8606 82.2253C17.0681 82.3129 22.6694 83.4944 26.9579 85.5074V85.4636C27.2205 85.5949 27.5268 85.7262 27.7893 85.9012C27.8331 85.945 27.8769 85.945 27.9206 85.9887C27.9644 86.0325 28.0081 86.0325 28.0519 86.0762C28.0957 86.12 28.1832 86.1638 28.2707 86.1638C28.2707 86.1638 28.3145 86.1638 28.3145 86.2075C28.7521 86.295 29.1897 86.5576 29.6273 86.8202Z" fill="#3399CC"/>
<path d="M42.449 58.8137C41.8802 60.9142 41.7489 65.8153 42.5803 67.3032C44.8121 67.3032 47.0439 66.5593 47.4815 65.4653" stroke="#9CDAF0" stroke-width="1.41647" stroke-miterlimit="10" stroke-linecap="round" stroke-linejoin="round"/>
<path d="M42.6241 67.3032C41.3113 67.522 40.6111 67.522 39.7797 67.4345" stroke="#9CDAF0" stroke-width="1.41647" stroke-miterlimit="10" stroke-linecap="round" stroke-linejoin="round"/>
<path d="M40.8299 88.3081C43.1054 88.4394 45.3372 88.4831 47.569 88.4831" stroke="#7FC6E2" stroke-width="1.21679" stroke-miterlimit="10" stroke-linecap="round" stroke-linejoin="round"/>
<path d="M20.0001 63.7148C13.8299 68.2659 8.57868 74.4361 4.85907 82.7067C12.6484 80.9126 23.4134 82.838 29.5835 86.8202C25.3826 87.8267 22.5382 89.1832 18.9061 92.334C24.5074 94.697 34.3972 100.955 35.2724 111.501" stroke="#7FC6E2" stroke-width="1.21679" stroke-miterlimit="10" stroke-linecap="round" stroke-linejoin="round"/>
<path d="M82.052 52.6873C96.6241 55.4879 105.901 66.7343 110.102 75.8801C99.8623 76.3177 84.1087 76.4928 75.7067 81.1751C78.4636 83.4506 82.052 87.3015 84.4588 90.5835C77.1508 91.7651 49.0131 96.9725 41.3988 115.177" stroke="#7FC6E2" stroke-width="1.21679" stroke-miterlimit="10" stroke-linecap="round" stroke-linejoin="round"/>
<path d="M42.6241 97.1474C43.7181 88.5267 33.7408 74.3922 21.0066 70.7163" stroke="#7FC6E2" stroke-width="1.21679" stroke-miterlimit="10" stroke-linecap="round" stroke-linejoin="round"/>
<path d="M37.3291 116.315C37.6792 113.776 38.1168 111.282 38.6419 108.832C44.7246 81.1314 68.8802 67.3032 85.2027 61.1768" stroke="#7FC6E2" stroke-width="1.21679" stroke-miterlimit="10" stroke-linecap="round" stroke-linejoin="round"/>
<path d="M17.9433 98.7666C15.3615 107.125 17.2432 112.595 16.368 117.583C17.0681 118.196 16.8493 118.809 16.0179 119.028C21.2253 119.903 24.9449 121.391 28.2707 122.222C28.8834 122.397 29.4085 122.485 29.9336 122.485" stroke="#7FC6E2" stroke-width="1.21679" stroke-miterlimit="10" stroke-linecap="round" stroke-linejoin="round"/>
<path d="M23.0195 131.981C20.5252 131.981 18.2059 131.849 14.53 131.455C7.92225 130.712 1.57704 129.136 -1.00481 125.373C-3.89298 121.128 -4.4181 99.9919 11.8169 82.0503" stroke="#7FC6E2" stroke-width="1.21679" stroke-miterlimit="10" stroke-linecap="round" stroke-linejoin="round"/>
<path d="M20.8753 34.5705C22.8008 29.188 22.4944 21.53 22.4944 19.517C22.582 12.0778 21.3567 4.5073 28.402 4.37602C38.5106 4.20098 45.1622 10.2836 50.3696 10.1086C57.8526 9.0146 64.3291 5.95139 67.5236 6.87035C72.0747 8.18315 74.0001 11.684 71.8996 19.342C71.5495 20.611 69.4053 26.081 71.5495 31.7699" stroke="#7FC6E2" stroke-width="1.21679" stroke-miterlimit="10" stroke-linecap="round" stroke-linejoin="round"/>
<path d="M71.1119 22.6678C82.1832 25.5123 89.3161 30.5009 89.4036 34.8769C89.5349 42.8413 67.3047 57.2384 38.5106 55.7067C11.7731 54.2627 3.94007 46.2108 3.85255 39.9093C3.72127 35.4458 7.52841 29.2319 22.4506 24.6808" stroke="#7FC6E2" stroke-width="1.21679" stroke-miterlimit="10" stroke-linecap="round" stroke-linejoin="round"/>
<path d="M71.5058 31.7698C68.18 38.3338 56.9774 45.4667 43.4993 45.6417C29.0585 45.8605 21.0066 41.0907 20.8753 34.5704C25.2076 37.2398 34.4847 38.9902 41.9239 38.9027C49.3632 38.7714 65.2481 36.102 71.5058 31.7698Z" stroke="#7FC6E2" stroke-width="1.21679" stroke-miterlimit="10" stroke-linecap="round" stroke-linejoin="round"/>
<path d="M40.261 9.93359C43.3242 10.7213 47.6564 10.415 50.4571 10.0649" stroke="#7FC6E2" stroke-width="1.21679" stroke-miterlimit="10" stroke-linecap="round" stroke-linejoin="round"/>
</g>
<defs>
<linearGradient id="paint0_linear_58_434" x1="50.7423" y1="54.9212" x2="67.7596" y2="53.3416" gradientUnits="userSpaceOnUse">
<stop stop-color="#B3B3B3" stop-opacity="0.5"/>
<stop offset="1" stop-color="white" stop-opacity="0"/>
</linearGradient>
<linearGradient id="paint1_linear_58_434" x1="50.9422" y1="57.9199" x2="62.2873" y2="56.8668" gradientUnits="userSpaceOnUse">
<stop stop-color="#D3E5EA"/>
<stop offset="1" stop-color="white" stop-opacity="0"/>
</linearGradient>
<linearGradient id="paint2_linear_58_434" x1="19.4182" y1="54.9098" x2="36.2013" y2="53.3519" gradientUnits="userSpaceOnUse">
<stop stop-color="#B3B3B3" stop-opacity="0.5"/>
<stop offset="1" stop-color="white" stop-opacity="0"/>
</linearGradient>
<linearGradient id="paint3_linear_58_434" x1="20.1896" y1="58.1709" x2="30.2386" y2="57.2381" gradientUnits="userSpaceOnUse">
<stop stop-color="#D3E5EA"/>
<stop offset="1" stop-color="white" stop-opacity="0"/>
</linearGradient>
<clipPath id="clip0_58_434">
<rect width="100" height="100" fill="white"/>
</clipPath>
</defs>
</svg>
