<svg width="100" height="100" viewBox="0 0 100 100" fill="none" xmlns="http://www.w3.org/2000/svg">
<g clip-path="url(#clip0_80_4132)">
<path d="M92.6922 72.1531C89.892 73.6777 81.8957 79.1226 75.1129 82.5451C72.1571 84.0386 69.1079 84.5364 65.9032 83.5719C65.8098 83.1674 65.7165 82.7941 65.592 82.4518C65.032 80.585 64.0986 78.0647 63.2896 76.3224C65.7787 72.3709 63.1963 66.8015 61.7339 63.1301C63.5385 62.3211 65.2498 61.481 66.0588 60.8588C67.21 63.659 68.5479 67.3305 69.1079 68.9484C76.8242 66.4904 83.8559 66.2103 90.172 65.3392C93.4701 64.8725 101.497 63.0679 101.964 64.5302C102.68 66.6148 95.1813 70.8152 92.6922 72.1531Z" fill="#CAA77A"/>
<path d="M49.7862 47.9464C52.182 55.0093 55.48 61.1387 56.3512 65.308C58.9648 64.219 64.9698 61.761 66.2143 60.5475C66.3077 60.4542 66.401 60.392 66.4632 60.2986C66.7433 60.0186 67.1477 58.494 66.0276 57.7162C65.9032 57.3428 65.7476 56.9383 65.592 56.5027C62.6985 48.7243 57.8136 46.2663 52.6176 47.5108L49.7862 47.9464Z" fill="#FFDB1F"/>
<path d="M3.02203 51.4001C4.7333 50.1245 6.19565 49.3155 8.00025 48.7866C9.64929 48.3198 20.9747 53.4225 26.6064 55.2582C28.5354 55.8805 43.7501 60.7032 60.0849 57.5607C60.0849 57.5607 60.0849 57.5607 60.0849 57.5296C58.467 53.8892 58.2803 50.2489 58.4358 50.1556C58.7159 50.0311 58.9648 50.7156 59.0581 50.7778C59.2759 50.9645 58.9026 50.1867 58.8403 49.8755C58.7159 49.0666 58.5603 48.1643 58.6225 47.3553C58.6225 47.1686 59.0581 47.7287 59.1203 47.5731C59.2759 47.1686 58.9959 46.453 59.027 46.0174C59.0892 45.1462 59.6182 44.2128 59.9604 43.435C61.9517 38.799 63.6319 33.5719 63.8808 28.4381C64.0363 25.0778 63.663 18.6683 59.1203 13.5345C58.467 12.7878 61.2361 12.7567 61.1739 10.9521C59.1515 12.0411 56.3823 10.5787 55.2934 9.95644C57.8758 10.0498 61.6717 9.48973 61.4228 5.94275C59.8982 7.6229 57.8447 8.36963 55.1689 7.74735C56.2579 7.21842 59.556 5.13379 58.0936 2.17797C57.378 4.66708 55.3556 5.25824 52.6798 4.29371C53.9866 3.64032 54.8889 1.68015 52.8665 0C53.0843 2.05352 49.1328 2.9247 47.1104 2.89359C32.4869 2.61357 20.508 6.285 11.9206 20.0062C7.31575 27.318 3.89322 36.1543 3.02203 51.4001Z" fill="#CAA77A"/>
<path d="M65.8721 99.9378H-0.960533H-0.991646C-1.39613 96.4841 -1.17833 83.0429 0.284022 75.5756C0.284022 75.5445 0.284022 75.5134 0.315136 75.4823C0.377364 75.14 0.439592 74.8289 0.532934 74.5177C0.564048 74.3622 0.595161 74.1755 0.657389 74.0199C0.657389 73.9888 0.688503 73.9577 0.688503 73.9266C-1.36501 69.9751 -2.70291 65.3703 -2.0184 60.2365C-1.89395 59.3964 -1.76949 58.5874 -1.58281 57.8407C-1.58281 57.8096 -1.58281 57.7785 -1.5517 57.7474C-1.1161 56.005 -0.431597 54.4493 0.75073 53.0803C0.781844 53.0181 0.844072 52.9558 0.9063 52.9247C1.65303 52.1158 2.36865 51.4624 3.11539 50.9334C3.11539 51.089 3.08427 51.2446 3.08427 51.4312C3.17761 51.369 3.30207 51.2757 3.39541 51.2134C4.45328 50.4667 5.57338 49.8133 6.60014 49.3466C6.60014 49.3466 6.60014 49.3466 6.63125 49.3466C6.75571 49.3155 6.88016 49.2844 7.00462 49.2844H7.03573C7.87581 49.1288 8.71588 49.0977 9.55596 49.1599C9.80487 49.191 10.0849 49.2222 10.3338 49.2533C10.6761 49.3466 11.0494 49.4711 11.4539 49.5955C13.663 50.3423 16.6499 51.5246 19.5435 52.6758H19.5746C22.1882 53.7026 24.7395 54.6982 26.6686 55.3205C27.0108 55.4449 27.7265 55.6627 28.7843 55.9739C28.8154 55.9739 28.8466 56.005 28.8777 56.005C32.5491 57.1251 39.4875 58.5874 47.546 58.6808C48.0749 58.6808 48.6039 58.6808 49.1639 58.6808C52.6798 58.6497 56.3823 58.3385 60.1471 57.6229C60.0849 56.6273 61.1739 58.5874 61.3917 59.1164C61.6717 59.9253 60.8316 60.5476 60.8316 60.921V60.9521C60.8627 61.4499 61.3917 62.57 61.6095 63.0989C63.1029 66.7704 65.7165 72.3709 63.1963 76.3535C64.0052 78.0958 64.9387 80.6472 65.4987 82.4829C66.7433 86.8388 67.6144 95.2707 65.8721 99.9378Z" fill="#FFDB1F"/>
<path d="M26.4819 46.7019L26.1397 49.0043" stroke="#9D7B51" stroke-width="1.27791" stroke-miterlimit="10" stroke-linecap="round" stroke-linejoin="round"/>
<path d="M29.0644 47.9465L28.691 50.249" stroke="#9D7B51" stroke-width="1.27791" stroke-miterlimit="10" stroke-linecap="round" stroke-linejoin="round"/>
<path opacity="0.23" d="M65.6543 83.1676C64.4097 81.363 63.2274 79.9006 62.4807 79.3406C60.8939 78.1271 58.7781 77.9404 56.9113 77.7849C52.0886 77.3493 47.7638 81.5497 42.5989 81.0829C41.261 80.9585 37.5273 79.9006 38.8652 77.6915C39.612 76.4781 42.5989 77.0693 43.7812 77.1626C48.6972 77.5982 53.2087 77.4115 58.0625 77.0693C59.2137 76.9759 62.014 77.1937 63.1341 75.5447C63.2585 76.3225 63.943 78.2827 64.2542 79.0917C65.032 80.9896 65.2498 81.7675 65.6543 83.1676Z" fill="#3F2719"/>
<path d="M60.0849 57.5607C43.7501 60.7032 27.8198 56.005 26.1085 54.9471" stroke="#2D1F04" stroke-width="0.865152" stroke-miterlimit="10" stroke-linecap="round" stroke-linejoin="round"/>
<path d="M-0.991643 100C-1.45835 96.422 -1.14721 80.8961 0.626279 73.9266" stroke="#2D1F04" stroke-width="0.865152" stroke-miterlimit="10" stroke-linecap="round" stroke-linejoin="round"/>
<path d="M60.0849 57.5607C59.9916 56.5028 61.1117 58.4941 61.3295 59.023C61.6095 59.832 60.7694 60.4542 60.7694 60.8276C60.7694 61.2943 61.3294 62.4455 61.5472 62.9745C63.0407 66.6459 65.6543 72.2464 63.1341 76.229C63.943 77.9714 64.8764 80.5227 65.4365 82.3584C66.7433 86.8077 67.6145 95.2396 65.8721 99.9066" stroke="#2D1F04" stroke-width="0.865152" stroke-miterlimit="10" stroke-linecap="round" stroke-linejoin="round"/>
<path d="M1.96416 60.9211C3.3954 60.361 4.7333 59.8321 6.13342 59.6454C7.28464 59.4898 7.75135 60.1743 7.96914 61.0144C8.28028 62.1656 8.06248 63.1301 7.25352 63.8769C7.22241 63.908 7.16018 63.9391 7.06684 64.0325C8.37362 64.4058 9.02701 65.8059 10.1782 66.7082C9.40038 66.9883 8.74699 67.2372 8.03137 67.5172C7.34687 66.8949 6.69347 66.2104 6.0712 65.4948C5.72894 65.1214 5.38669 64.8414 4.88887 65.1837C5.20001 66.2104 5.60449 67.2683 6.0712 68.2951C5.41781 68.544 4.85776 68.7618 4.23548 69.0107C3.05315 66.4282 2.30642 63.8458 1.96416 60.9211ZM4.14214 61.9167C4.23548 62.4768 4.32882 62.9746 4.48439 63.5969C4.88887 63.4413 5.29335 63.2857 5.69783 63.099C6.04008 62.9124 6.16454 62.5701 6.10231 62.1656C6.04008 61.73 5.76006 61.4811 5.38669 61.5433C4.98221 61.6056 4.57773 61.7922 4.14214 61.9167ZM12.4495 57.8719C11.5784 57.8097 10.7383 58.0275 9.8982 58.5564C9.02702 59.0853 8.52919 60.0499 8.68476 61.0766C8.80922 61.9789 9.40038 62.6012 10.3338 62.7257C10.8316 62.7879 11.2983 62.7879 11.7961 62.7879C12.0451 62.7879 12.2629 62.7879 12.5118 62.819C12.7918 62.8501 13.0096 63.0368 13.1029 63.3479C13.1963 63.6902 13.1029 63.9702 12.8851 64.188C12.3873 64.6547 11.6406 64.5614 11.205 63.908C11.1116 63.7835 11.0494 63.6591 10.9561 63.5346C10.3649 63.7835 9.80486 64.0013 9.24481 64.2502C9.68041 65.4948 10.6449 66.2104 11.6717 66.1482C12.4495 66.1171 13.1652 65.8682 13.7874 65.4948C14.1608 65.2459 14.5342 64.9036 14.752 64.4992C15.4054 63.2546 14.9698 61.1389 13.3207 60.7966C13.0407 60.7344 12.7918 60.7033 12.5118 60.7033C12.0139 60.6722 11.5472 60.7033 11.0494 60.7033C10.8005 60.7033 10.5516 60.641 10.4583 60.2677C10.4894 59.7698 10.7694 59.5832 11.1428 59.4898C11.6717 59.3343 12.0451 59.6143 12.2317 60.2054C12.8229 59.9876 13.4141 59.7698 14.0363 59.5209C13.7874 58.4631 13.3518 57.9652 12.4495 57.8719Z" fill="#292929"/>
<path opacity="0.23" d="M11.6095 77.9714C10.9561 78.4381 10.4894 78.8737 10.116 79.2782C10.116 79.2782 10.0849 79.2782 10.0849 79.3093C9.4315 79.9627 9.05814 80.5228 8.747 80.865C8.59143 81.0517 8.40475 81.2073 8.21806 81.3317C8.18695 81.3628 8.15583 81.3628 8.12472 81.3939C7.1913 81.8918 6.19566 81.5184 5.32447 80.7717C4.82665 85.0032 4.98222 93.9639 5.63561 99.9378H-0.960531C-1.36501 96.6397 -1.14721 83.043 0.284024 75.5757C0.284024 75.5445 0.284024 75.5134 0.315138 75.4823C0.377366 75.1401 0.439594 74.8289 0.532936 74.5178C0.56405 74.3622 0.595163 74.1755 0.657391 74.02C-1.39612 70.0685 -2.76514 65.4325 -2.08063 60.2676C-1.95617 59.3964 -1.80061 58.5875 -1.58281 57.7785C-1.58281 57.7474 -1.58281 57.7163 -1.55169 57.6852C-1.08499 55.9739 -0.338253 54.4182 0.750732 53.0181C0.781846 52.9559 0.844074 52.8936 0.906302 52.8314C2.80425 50.4979 4.85777 49.4711 7.00462 49.16H7.03574C7.8447 49.0355 8.68477 49.0044 9.55596 49.0355C10.4271 49.0666 11.2983 49.16 12.2006 49.3155C11.9517 49.3778 11.7028 49.4089 11.4539 49.5022C4.85776 51.2446 1.74638 58.0896 3.17762 65.8681C3.45764 67.3616 3.83101 68.7306 4.2666 69.944C4.85776 71.562 5.6045 72.9621 6.38235 74.1133C8.06249 76.7269 10.0849 78.0648 11.6095 77.9714Z" fill="#3F2719"/>
<path d="M57.5336 58.1519C57.6891 58.8364 57.8758 59.3653 57.8136 60.0809" stroke="#2D1F04" stroke-width="0.865152" stroke-miterlimit="10" stroke-linecap="round" stroke-linejoin="round"/>
<path d="M53.3954 58.5875C53.6443 59.2098 53.6443 60.0188 53.5821 60.7033" stroke="#2D1F04" stroke-width="0.865152" stroke-miterlimit="10" stroke-linecap="round" stroke-linejoin="round"/>
<path d="M48.4794 58.7742L48.6039 60.4232" stroke="#2D1F04" stroke-width="0.865152" stroke-miterlimit="10" stroke-linecap="round" stroke-linejoin="round"/>
<path d="M44.9947 58.9297V59.2097L44.9635 59.3653L44.9324 59.6453V59.832L44.9013 60.0187V60.2054" stroke="#2D1F04" stroke-width="0.865152" stroke-miterlimit="10" stroke-linecap="round" stroke-linejoin="round"/>
<path d="M46.8926 59.1787L46.8615 59.3654V59.5521L46.8304 59.7388V59.9254L46.7993 60.081" stroke="#2D1F04" stroke-width="0.865152" stroke-miterlimit="10" stroke-linecap="round" stroke-linejoin="round"/>
<path d="M33.4825 57.4363V57.623L33.4514 57.8096L33.4203 58.1519V58.3386" stroke="#2D1F04" stroke-width="0.865152" stroke-miterlimit="10" stroke-linecap="round" stroke-linejoin="round"/>
<path d="M32.1446 57.3119L32.1135 57.5919L32.0824 57.8719V58.0275" stroke="#2D1F04" stroke-width="0.865152" stroke-miterlimit="10" stroke-linecap="round" stroke-linejoin="round"/>
<path d="M60.8005 60.8589C57.658 62.7569 45.1191 64.2814 29.4066 60.3611" stroke="#2D1F04" stroke-width="0.865152" stroke-miterlimit="10" stroke-linecap="round" stroke-linejoin="round"/>
<path d="M62.2318 21.6554C61.3607 18.3573 59.5561 14.717 57.347 14.3125C55.9468 14.0636 54.7645 14.8103 53.5822 15.557C52.5243 16.2104 51.5598 16.0238 51.3109 15.277C51.062 14.5925 51.4353 14.1258 52.151 13.5969C50.7819 14.0325 50.3775 14.6236 49.2885 15.1837C47.4528 16.1171 46.426 16.3349 45.9282 16.2416C44.4969 15.9926 42.9724 14.717 41.6656 14.2814C35.8473 12.4145 31.5536 13.5969 29.1267 21.2509C28.5977 22.9621 27.851 26.8825 28.9089 31.0829C30.4335 37.2123 32.7048 40.4482 36.4696 44.0574C42.319 49.6579 55.1068 50.9024 60.3028 39.9814C62.7608 34.8788 63.8498 27.7848 62.2318 21.6554Z" fill="#FFDBAF"/>
<path d="M55.48 25.389C57.3469 25.4824 59.5871 28.3137 58.2803 32.9497C57.3158 36.31 55.5734 38.3324 53.6754 39.8259C50.5952 42.2528 47.2349 41.9727 44.9947 39.1725C42.63 36.2167 42.5367 32.483 43.5634 29.6827C44.6524 26.6647 47.7949 24.7356 50.5952 25.0779L55.48 25.389Z" fill="#9D7B51"/>
<path d="M62.2318 21.6554C62.6362 23.4289 63.2896 26.198 62.8852 30.305C55.0133 28.2826 53.0221 16.4593 53.5821 15.5259C55.0445 14.5925 56.0401 14.0014 57.4713 14.3436C58.5292 14.5614 60.925 16.0238 62.2318 21.6554Z" fill="#9D7B51"/>
<path d="M45.8659 16.2414C45.9281 29.0604 36.6873 31.9228 29.0021 31.4561C28.0065 27.7225 28.2865 24.051 29.0644 21.5308C29.8422 19.0728 31.429 14.8724 35.1005 13.8146C38.6163 12.8189 43.8435 14.7791 45.8659 16.2414Z" fill="#9D7B51"/>
<path d="M57.1913 25.9492C57.2847 24.8913 55.8534 23.8645 53.9555 23.6156C52.0575 23.3667 50.4396 24.0201 50.3463 25.078C50.2529 26.1359 51.6842 27.1937 53.5821 27.4115C55.4801 27.6604 57.098 27.007 57.1913 25.9492Z" fill="#251707"/>
<path d="M52.8042 15.8993C55.1378 14.1881 58.1558 12.1968 64.6897 19.5396" stroke="#2D1F04" stroke-width="2.36465" stroke-miterlimit="10" stroke-linecap="round" stroke-linejoin="round"/>
<path d="M58.1558 18.264C56.3823 18.8552 55.5423 21.0332 56.2268 23.1489L56.3201 23.3978C57.0046 25.5136 59.027 26.7581 60.7694 26.167C62.5429 25.5758 63.383 23.3978 62.6985 21.2821L62.6051 21.0332C61.9206 18.9174 59.8982 17.6729 58.1558 18.264Z" fill="white"/>
<path d="M58.1558 18.264C56.3823 18.8552 55.5423 21.0332 56.2268 23.1489L56.3201 23.3978C57.0046 25.5136 59.027 26.7581 60.7694 26.167C62.5429 25.5758 63.383 23.3978 62.6985 21.2821L62.6051 21.0332C61.9206 18.9174 59.8982 17.6729 58.1558 18.264Z" stroke="#2D1F04" stroke-width="0.808961" stroke-miterlimit="10" stroke-linecap="round" stroke-linejoin="round"/>
<path d="M60.5516 23.6155C60.9984 23.6155 61.3606 23.2533 61.3606 22.8065C61.3606 22.3597 60.9984 21.9976 60.5516 21.9976C60.1048 21.9976 59.7426 22.3597 59.7426 22.8065C59.7426 23.2533 60.1048 23.6155 60.5516 23.6155Z" fill="#2D1F04"/>
<path d="M39.0208 18.3882C36.625 18.0459 34.4159 19.7261 34.1048 22.0907L34.0737 22.3707C33.7314 24.7354 35.4116 26.9445 37.8073 27.2556C40.2031 27.5979 42.4122 25.9177 42.7233 23.5531L42.7545 23.273C43.0967 20.9084 41.4166 18.7304 39.0208 18.3882Z" fill="white"/>
<path d="M39.0208 18.3882C36.625 18.0459 34.4159 19.7261 34.1048 22.0907L34.0737 22.3707C33.7314 24.7354 35.4116 26.9445 37.8074 27.2556C40.2031 27.5979 42.4122 25.9177 42.7233 23.5531L42.7545 23.273C43.0967 20.9084 41.4166 18.7304 39.0208 18.3882Z" stroke="#2D1F04" stroke-width="0.808961" stroke-miterlimit="10" stroke-linecap="round" stroke-linejoin="round"/>
<path d="M40.2031 24.2377C40.6843 24.2377 41.0743 23.8477 41.0743 23.3666C41.0743 22.8854 40.6843 22.4954 40.2031 22.4954C39.722 22.4954 39.3319 22.8854 39.3319 23.3666C39.3319 23.8477 39.722 24.2377 40.2031 24.2377Z" fill="#2D1F04"/>
<path opacity="0.23" d="M3.02203 51.4001C4.70218 50.1867 6.56902 49.1288 8.00025 48.7866C9.6804 48.3821 13.8808 49.8756 14.9698 50.4356C15.4365 24.1755 29.6555 12.6011 39.0519 10.4543C40.172 10.2054 43.0034 9.70754 43.2834 8.33853C44.3413 8.77413 44.7769 9.70754 45.9903 9.76977C46.737 9.80089 47.7949 9.36529 48.8839 7.15621C49.3817 8.64967 48.6661 9.86311 49.4128 9.98757C50.564 10.1431 53.1154 8.21408 54.2355 8.52522C52.5553 10.0498 54.7022 11.7299 55.7289 12.1033C56.8179 12.5389 57.9691 12.6011 58.3114 12.1033C58.5914 12.57 58.7159 12.8812 59.0581 13.2856C59.2137 12.7878 61.2672 12.5389 61.205 10.9832C59.1826 12.0722 56.4134 10.6098 55.3245 9.98757C57.9069 10.0809 61.7028 9.52086 61.4539 5.97388C59.9293 7.65403 57.8758 8.40076 55.2 7.77848C56.289 7.24955 59.5871 5.16492 58.1247 2.2091C57.4091 4.69821 55.3867 5.28937 52.7109 4.32484C54.0177 3.67145 54.92 1.71128 52.8976 0.0311279C53.1154 2.08464 49.1639 2.95583 47.1415 2.92472C32.518 2.64469 20.5391 6.31613 11.9517 20.0374C7.31575 27.318 3.89322 35.8432 3.02203 51.4001Z" fill="#3F2719"/>
<path d="M46.7059 16.1792C40.5143 13.379 34.696 12.01 25.7352 21.9353" stroke="#2D1F04" stroke-width="2.36465" stroke-miterlimit="10" stroke-linecap="round" stroke-linejoin="round"/>
<path d="M69.3257 90.6348L66.4321 90.417C66.3388 89.3591 66.7433 88.8924 67.1478 88.4568L69.3257 90.6348Z" fill="#292929"/>
<path d="M66.4321 90.4168L61.7339 90.0746C61.7339 90.0746 60.9561 88.0522 60.8939 87.9589C60.8005 87.8655 62.4807 87.7722 62.4807 87.7722L61.6095 85.5009L63.9741 85.252L67.1789 88.4567C66.7433 88.8923 66.3388 89.3901 66.4321 90.4168Z" fill="#FFDBAF"/>
<path d="M60.8627 87.959C60.9561 88.0524 61.7028 90.0748 61.7028 90.0748L37.6518 79.0294C36.0961 78.3138 38.3363 73.4911 39.8609 74.2067L63.9119 85.2521L61.5473 85.5011L62.4184 87.7724C62.4496 87.7724 60.8005 87.8657 60.8627 87.959Z" fill="#3399CC"/>
<path d="M37.6829 79.0293L33.0158 76.8824C31.4601 76.1668 33.7003 71.3441 35.2249 72.0597L39.892 74.2066C38.3363 73.491 36.1272 78.3448 37.6829 79.0293Z" fill="#FF8A8A"/>
<path opacity="0.23" d="M69.3257 90.666L66.4321 90.4482L61.7339 90.1059L37.6829 79.0605L33.0158 76.9137C32.1135 76.4781 32.518 74.6112 33.327 73.3044C32.9225 74.3934 32.9847 75.0779 33.6692 75.3891L38.3363 77.5359L60.116 87.5235C61.6406 88.208 63.2274 88.7058 64.8764 88.9547L68.1123 89.4526L69.3257 90.666Z" fill="#3F2719"/>
<path d="M67.1477 88.4257L69.3257 90.6347L66.4321 90.4169" stroke="#2D1F04" stroke-width="0.622277" stroke-miterlimit="10" stroke-linecap="round" stroke-linejoin="round"/>
<path d="M63.943 85.2209L67.1478 88.4257" stroke="#2D1F04" stroke-width="0.622277" stroke-miterlimit="10" stroke-linecap="round" stroke-linejoin="round"/>
<path d="M66.4321 90.4169L61.7339 90.0436" stroke="#2D1F04" stroke-width="0.622277" stroke-miterlimit="10" stroke-linecap="round" stroke-linejoin="round"/>
<path d="M61.7339 90.0435L37.6829 78.9981C36.1272 78.2825 38.3674 73.4599 39.892 74.1755L63.943 85.2209" stroke="#2D1F04" stroke-width="0.622277" stroke-miterlimit="10" stroke-linecap="round" stroke-linejoin="round"/>
<path d="M37.6829 79.0293L33.0158 76.8824C31.4601 76.1668 33.7003 71.3441 35.2249 72.0597L39.892 74.2066C38.3674 73.491 36.1583 78.3136 37.6829 79.0293Z" stroke="#2D1F04" stroke-width="0.622277" stroke-miterlimit="10" stroke-linecap="round" stroke-linejoin="round"/>
<path d="M56.5068 83.8208C51.4975 86.8077 45.648 89.0168 39.7675 90.9147C33.4203 92.9994 28.0687 93.6528 24.1795 92.8127C18.1123 91.5059 14.1608 86.2788 8.84033 80.7094C9.71152 79.7449 10.8005 77.2557 17.2411 75.2022C19.3257 74.5488 21.4726 74.6111 24.4595 73.491C28.7843 80.865 32.5491 82.1095 42.4744 81.5184C45.2124 81.3628 48.0749 80.6783 54.3288 80.2738C57.6269 80.056 59.6182 81.9851 56.5068 83.8208Z" fill="#CAA77A"/>
<path d="M60.0849 57.5607C58.467 53.9204 58.2492 50.2489 58.4358 50.1867C58.7159 50.0622 58.9648 50.7467 59.027 50.809C59.2448 50.9957 58.8714 50.2178 58.8092 49.9067C58.6848 49.1288 58.5292 48.1954 58.5914 47.3864C58.5914 47.1998 59.027 47.7598 59.0892 47.6042C59.2448 47.1998 58.9648 46.4841 58.9959 46.0486C59.0581 45.1774 59.5559 44.2439 59.9293 43.4661C61.9206 38.8301 63.6007 33.603 63.8497 28.4692C64.0052 25.1089 63.6319 18.6995 59.0892 13.5657C58.4358 12.8189 61.205 12.7878 61.1427 10.9832C59.1203 12.0722 56.3823 10.6098 55.2622 9.98757C57.8447 10.0809 61.6406 9.52086 61.3917 5.97388C59.8671 7.65403 57.8136 8.40076 55.1378 7.77848C56.2268 7.24955 59.5248 5.16492 58.0625 2.2091C57.3469 4.69821 55.3245 5.28937 52.6487 4.32484C53.9554 3.67145 54.8577 1.71128 52.8353 0.0311279C53.0531 2.08464 49.1017 2.95583 47.0793 2.92472C32.4558 2.64469 20.4769 6.31613 11.8895 20.0374C7.31575 27.3802 3.98656 35.8121 3.02203 50.8401" stroke="#2D1F04" stroke-width="0.865152" stroke-miterlimit="10" stroke-linecap="round" stroke-linejoin="round"/>
<path d="M23.3394 64.3745C23.4016 64.6857 23.4639 64.9657 23.5261 65.2457C23.8995 66.5525 24.6462 68.2015 24.8329 69.5083C26.2019 71.3129 27.042 72.2463 24.4906 73.4909" stroke="#2D1F04" stroke-width="0.865152" stroke-miterlimit="10" stroke-linecap="round" stroke-linejoin="round"/>
<path d="M56.3823 83.8208C53.1465 85.7499 49.5373 87.3367 45.8347 88.7679C43.7501 85.5009 43.9057 83.1363 44.1857 81.3939C47.2037 81.0517 48.9461 80.3049 54.0177 79.9938C57.2846 79.7449 59.4626 81.9851 56.3823 83.8208Z" fill="#D2D2D2"/>
<path opacity="0.23" d="M56.5068 83.8209C51.5286 86.87 45.648 89.0169 39.7675 90.9459C33.4203 93.0306 28.0687 93.684 24.1795 92.8439C18.1123 91.5371 14.1608 86.31 8.84033 80.7406C9.40038 80.1183 10.0538 78.8426 12.1695 77.4736C11.5784 78.7493 13.2274 81.3629 16.5255 84.3809C20.1969 87.679 23.0283 90.9459 26.5441 91.1326C30.06 91.3193 41.541 88.2079 47.4215 86.2166C52.742 84.412 55.8845 82.0785 55.3556 80.0561C58.1869 80.0561 58.6536 82.483 56.5068 83.8209Z" fill="#3F2719"/>
<path d="M8.87145 80.7095C7.31576 82.4519 5.44893 81.114 4.14214 79.4027C0.50182 74.5489 -3.10739 67.9839 -2.08063 60.2054C-1.70727 57.343 -1.02276 54.885 0.812958 52.8937C6.97351 46.2042 13.1029 49.6578 19.8235 52.7692" stroke="#2D1F04" stroke-width="0.865152" stroke-miterlimit="10" stroke-linecap="round" stroke-linejoin="round"/>
<path d="M24.4906 69.633C19.3568 68.824 12.2006 70.1308 7.59578 74.5179" stroke="#2D1F04" stroke-width="0.865152" stroke-miterlimit="10" stroke-linecap="round" stroke-linejoin="round"/>
<path d="M20.9125 69.7263C21.0992 70.3486 21.1303 70.8775 21.1614 71.5309" stroke="#2D1F04" stroke-width="0.865152" stroke-miterlimit="10" stroke-linecap="round" stroke-linejoin="round"/>
<path d="M17.1166 70.2863L17.4278 71.8419" stroke="#2D1F04" stroke-width="0.865152" stroke-miterlimit="10" stroke-linecap="round" stroke-linejoin="round"/>
<path d="M13.6941 71.1886L14.3164 72.6198" stroke="#2D1F04" stroke-width="0.865152" stroke-miterlimit="10" stroke-linecap="round" stroke-linejoin="round"/>
<path d="M65.8721 60.8899C67.0544 63.7213 68.3612 67.206 68.9524 68.8862C76.6686 66.4282 83.7003 66.1481 90.0165 65.277C93.3145 64.8102 101.529 63.0679 101.995 64.5302C102.649 66.6148 94.9947 70.753 92.5056 72.0909C89.7053 73.6155 81.709 79.0604 74.9262 82.4829C71.9082 84.0075 69.1079 84.5675 65.8721 83.5719" stroke="#2D1F04" stroke-width="0.865152" stroke-miterlimit="10" stroke-linecap="round" stroke-linejoin="round"/>
<path d="M61.9517 62.9123C63.8808 62.0411 65.6232 61.1388 66.2143 60.5476C66.3077 60.4543 66.401 60.3921 66.4632 60.2987C66.7433 60.0187 67.1477 58.4941 66.0276 57.7163C65.9032 57.3429 65.7476 56.9384 65.5921 56.5028C63.8808 51.8669 61.4539 49.1288 58.6537 47.9154" stroke="#2D1F04" stroke-width="0.865152" stroke-miterlimit="10" stroke-linecap="round" stroke-linejoin="round"/>
<path d="M56.3823 83.9141C51.373 86.901 45.648 88.9857 39.7986 90.9147C33.4514 92.9994 28.0998 93.6528 24.2106 92.8127C18.1434 91.5059 14.1919 86.2788 8.87144 80.7094C9.74263 79.7449 10.8316 77.2557 17.2722 75.2022C19.3568 74.5488 21.5037 74.6111 24.4906 73.491C28.8154 80.865 32.5802 82.1095 42.5055 81.5184C45.2436 81.3628 47.7638 80.336 54.0488 79.9627C57.2846 79.7449 59.4626 82.1095 56.3823 83.9141Z" stroke="#2D1F04" stroke-width="0.865152" stroke-miterlimit="10" stroke-linecap="round" stroke-linejoin="round"/>
<path d="M44.3102 81.425C44.0301 83.1985 43.8746 85.4699 45.9592 88.7368" stroke="#2D1F04" stroke-width="0.865152" stroke-miterlimit="10" stroke-linecap="round" stroke-linejoin="round"/>
<path d="M57.098 81.425C53.5821 82.9496 48.1994 84.6298 44.3724 85.0965" stroke="#2D1F04" stroke-width="0.865152" stroke-miterlimit="10" stroke-linecap="round" stroke-linejoin="round"/>
<path d="M55.48 34.0698C53.4887 34.8476 50.9063 33.5097 50.1907 32.1096" stroke="#251707" stroke-width="0.865152" stroke-miterlimit="10" stroke-linecap="round" stroke-linejoin="round"/>
<path d="M54.2666 26.6959C54.7644 28.8739 54.4222 32.4209 53.7065 34.2566" stroke="#251707" stroke-width="0.865152" stroke-miterlimit="10" stroke-linecap="round" stroke-linejoin="round"/>
<path d="M85.5983 93.1861L69.4191 88.7679C67.8011 88.3324 66.9611 86.5589 67.6767 85.0343L81.3979 55.2583C81.9579 54.0449 83.2958 53.4226 84.5715 53.796L100.751 58.2141C102.369 58.6497 103.209 60.4232 102.493 61.9478L88.7719 91.7238C88.2118 92.9061 86.8739 93.5284 85.5983 93.1861Z" fill="white"/>
<path d="M101.933 63.1612C100.471 63.7212 98.075 65.308 97.6082 67.3927C97.3593 68.5128 98.1683 69.7262 99.2884 69.9129C101 70.224 102.462 68.4194 102.431 66.5526C103.209 64.468 103.115 62.7256 101.933 63.1612Z" fill="#D2D2D2"/>
<path d="M101.933 63.1612C100.471 63.7212 98.075 65.308 97.6082 67.3927C97.3593 68.5128 98.1683 69.7262 99.2884 69.9129C101 70.224 102.462 68.4194 102.431 66.5526C103.209 64.468 103.115 62.7256 101.933 63.1612Z" stroke="#2D1F04" stroke-width="0.865152" stroke-miterlimit="10" stroke-linecap="round" stroke-linejoin="round"/>
<path d="M97.546 67.9527C100.253 67.8283 100.969 67.5171 102.4 66.5526" stroke="#2D1F04" stroke-width="0.865152" stroke-miterlimit="10" stroke-linecap="round" stroke-linejoin="round"/>
<path d="M98.8528 69.7885L88.7408 91.6926C88.1807 92.9061 86.8428 93.5284 85.5672 93.155L69.3879 88.7368C67.77 88.3012 66.9299 86.5277 67.6456 85.0032L81.3668 55.2272C81.9268 54.0137 83.2647 53.3915 84.5404 53.7648L100.72 58.183C102.338 58.6186 103.178 60.3921 102.462 61.9167L101.902 63.1301" stroke="#2D1F04" stroke-width="0.865152" stroke-miterlimit="10" stroke-linecap="round" stroke-linejoin="round"/>
<path d="M85.2249 56.4094C84.3537 56.0361 83.7626 55.196 83.7626 54.2003C83.7626 52.8936 84.8204 51.8046 86.1583 51.8046C87.4651 51.8046 88.5541 52.8624 88.5541 54.2003C88.5541 54.4181 88.523 54.6359 88.4608 54.8537" stroke="#2D1F04" stroke-width="0.865152" stroke-miterlimit="10" stroke-linecap="round" stroke-linejoin="round"/>
<path d="M87.9629 57.125C87.0918 56.7516 86.5006 55.9116 86.5006 54.9159C86.5006 53.6091 87.5585 52.5201 88.8964 52.5201C90.2031 52.5201 91.2921 53.578 91.2921 54.9159C91.2921 55.1337 91.261 55.3515 91.1988 55.5693" stroke="#2D1F04" stroke-width="0.865152" stroke-miterlimit="10" stroke-linecap="round" stroke-linejoin="round"/>
<path d="M90.3587 57.7786C89.4875 57.4052 88.8964 56.5651 88.8964 55.5695C88.8964 54.2627 89.9542 53.1737 91.2921 53.1737C92.5989 53.1737 93.6879 54.2316 93.6879 55.5695C93.6879 55.7873 93.6568 56.0051 93.5946 56.2229" stroke="#2D1F04" stroke-width="0.865152" stroke-miterlimit="10" stroke-linecap="round" stroke-linejoin="round"/>
<path d="M93.0967 58.5253C92.2255 58.1519 91.6344 57.3118 91.6344 56.3162C91.6344 55.0094 92.6923 53.9204 94.0302 53.9204C95.3369 53.9204 96.4259 54.9783 96.4259 56.3162C96.4259 56.534 96.3948 56.7518 96.3326 56.9696" stroke="#2D1F04" stroke-width="0.865152" stroke-miterlimit="10" stroke-linecap="round" stroke-linejoin="round"/>
<path d="M95.6792 59.272C94.808 58.8986 94.2168 58.0585 94.2168 57.0629C94.2168 55.7561 95.2747 54.6671 96.6126 54.6671C97.9194 54.6671 99.0084 55.725 99.0084 57.0629C99.0084 57.2807 98.9772 57.4985 98.915 57.7163" stroke="#2D1F04" stroke-width="0.865152" stroke-miterlimit="10" stroke-linecap="round" stroke-linejoin="round"/>
<path d="M98.0749 59.9564C97.2038 59.583 96.6126 58.743 96.6126 57.7473C96.6126 56.4405 97.6705 55.3516 99.0084 55.3516C100.315 55.3516 101.404 56.4094 101.404 57.7473C101.404 57.9651 101.373 58.1829 101.311 58.4007" stroke="#2D1F04" stroke-width="0.865152" stroke-miterlimit="10" stroke-linecap="round" stroke-linejoin="round"/>
<path d="M80.9623 61.0454C81.0556 60.8587 81.149 60.3298 81.429 60.2987C81.6157 60.2676 81.8024 60.5165 81.8957 60.6409C82.0824 60.8587 82.1135 61.0765 82.4558 60.921C82.518 60.8899 82.5802 60.8276 82.6425 60.8587C82.8602 60.8587 83.078 61.2321 83.2336 61.3566C83.3581 61.4499 83.4514 61.5432 83.607 61.5432C83.7314 61.5432 83.8559 61.5121 83.9803 61.5432C84.1981 61.6055 84.2604 61.8855 84.4159 62.0411C84.5404 62.1344 84.5715 62.1344 84.7271 62.1344C85.3182 62.1344 85.9094 62.1344 86.5317 62.1344C86.6561 62.1344 86.7184 62.1344 86.8117 62.1966C87.0606 62.3833 87.1851 62.57 87.5273 62.5389C87.7451 62.5389 87.9629 62.4144 88.1807 62.4144C88.4607 62.4144 88.7408 62.6322 88.9275 62.8189C89.0208 62.9123 89.1764 63.1923 89.3008 63.2856C89.3942 63.3478 89.5497 63.2545 89.6742 63.2234C89.892 63.1612 90.2031 62.9745 90.452 63.0056C90.6076 63.0367 90.7321 63.1612 90.8254 63.2856C91.0743 63.5656 91.2921 63.8457 91.6966 63.9079C91.7588 63.9079 91.821 63.9079 91.9144 63.9079C92.1944 63.9079 92.5367 63.8457 92.7856 63.9701C92.9723 64.0324 93.0967 64.219 93.2834 64.3124C93.6257 64.4679 93.8746 64.1257 94.2479 64.1879C94.4346 64.219 94.5591 64.3746 94.7457 64.4368C94.8702 64.4679 94.9947 64.4057 95.1502 64.4368C95.3369 64.4679 95.4925 64.5924 95.648 64.6546C95.8036 64.6857 95.8036 64.6546 95.9592 64.6235" stroke="#2D1F04" stroke-width="0.622277" stroke-miterlimit="10" stroke-linecap="round" stroke-linejoin="round"/>
<path d="M79.2199 65.0592C79.8111 65.0904 80.4023 64.8103 80.9934 64.9348C81.0556 65.2148 81.0245 65.806 81.3046 65.9927C81.3668 66.0238 81.429 66.0238 81.5223 65.9927C81.8957 65.9927 82.2691 66.0238 82.6113 66.0238C82.9536 66.0549 83.6381 65.9927 83.9181 66.2416C84.0115 66.3349 83.9803 66.3971 84.0426 66.5216C84.167 66.7083 84.4159 66.7394 84.6337 66.7394C85.0071 66.7705 85.3805 66.646 85.7538 66.6772C85.9094 66.6772 85.8783 66.7705 86.0027 66.8016C86.1583 66.8638 86.4695 66.8016 86.6561 66.8016C86.8428 66.8016 86.9984 66.8016 87.1851 66.8016C87.2473 66.7705 87.3095 66.7705 87.3718 66.8327C87.5273 66.9883 87.3406 67.3306 87.6207 67.4239C87.8385 67.5172 88.2118 67.3306 88.4608 67.2994C88.7097 67.2683 88.8341 67.4239 88.9897 67.5795C89.4875 68.0773 89.9231 68.6685 90.6076 68.8863C90.7321 68.7307 90.9187 67.7973 91.2299 68.0151C91.4166 68.1706 91.5099 68.3262 91.7588 68.4195C92.0077 68.5129 92.1944 68.5129 92.3811 68.3262C92.5678 68.3884 92.7233 68.6685 92.8478 68.7929C93.0345 68.9796 93.1901 69.1974 93.4701 69.2285" stroke="#2D1F04" stroke-width="0.622277" stroke-miterlimit="10" stroke-linecap="round" stroke-linejoin="round"/>
<path d="M80.5889 70.9087C80.869 70.8776 81.149 70.722 81.429 70.6286C81.709 70.5664 81.8957 70.8153 82.0513 71.002C82.1758 71.1265 82.2691 71.3131 82.4558 71.282C82.6736 71.2509 82.798 71.1265 83.0158 71.1576C83.2025 71.1576 83.3581 71.2198 83.5759 71.2198C83.7003 71.2198 83.8248 71.1887 83.9181 71.282C84.0737 71.3754 84.1048 71.6243 84.2293 71.7487C84.4471 72.091 84.8515 72.0288 85.2249 72.0288C85.4116 72.0288 85.5983 72.0288 85.8161 72.0288C85.8472 72.0288 85.9094 72.0288 85.9405 72.0288C86.0339 72.0599 86.0961 72.1532 86.1894 72.1843C86.2517 72.2155 86.3139 72.2154 86.3761 72.2154C86.4695 72.2154 86.5939 72.1843 86.6561 72.2154C86.8117 72.3088 86.8117 72.5577 86.9362 72.6822C87.1229 72.8377 87.4029 72.8377 87.6207 72.7755C87.7762 72.7444 87.9318 72.6822 88.0874 72.7444C88.2118 72.8066 88.3052 72.8688 88.4608 72.8688" stroke="#2D1F04" stroke-width="0.622277" stroke-miterlimit="10" stroke-linecap="round" stroke-linejoin="round"/>
<path d="M73.6194 76.2601C73.7128 76.1979 73.8061 76.1045 73.8994 76.0423C74.0861 75.9489 74.335 75.7623 74.5528 75.7934C74.584 75.8867 74.7084 76.0734 74.8017 76.1356C74.9262 76.229 75.1129 76.1667 75.2685 76.2912C75.3929 76.3845 75.4551 76.5401 75.5796 76.6023C75.8285 76.6957 76.0463 76.5401 76.2641 76.509C76.3263 76.509 76.2641 76.4779 76.3574 76.509C76.3886 76.5401 76.4508 76.6335 76.4819 76.6957C76.5441 76.789 76.5441 76.8201 76.5752 76.9446C76.5752 77.0068 76.5441 77.1002 76.6064 77.1313C76.6375 77.1313 76.7308 77.1313 76.793 77.1313C76.9797 77.1313 77.1353 77.1313 77.322 77.1313C77.5087 77.1313 77.6953 77.1313 77.882 77.1313" stroke="#2D1F04" stroke-width="0.622277" stroke-miterlimit="10" stroke-linecap="round" stroke-linejoin="round"/>
<path d="M72.686 78.5315C72.966 78.5004 73.2149 78.3448 73.4639 78.3137C73.5883 78.2826 73.5883 78.3137 73.6505 78.4382C73.7128 78.5626 73.775 78.6871 73.8372 78.8115C74.055 79.0916 74.3662 78.9982 74.6773 78.9982C74.8951 78.9982 75.0818 79.1849 75.2996 79.2471C75.3929 79.2782 75.5174 79.3094 75.6107 79.3716C75.7663 79.4649 75.8907 79.496 76.0774 79.496" stroke="#2D1F04" stroke-width="0.622277" stroke-miterlimit="10" stroke-linecap="round" stroke-linejoin="round"/>
<path d="M72.0637 80.7716C72.1571 80.7093 72.1882 80.5849 72.2815 80.5227C72.3749 80.4604 72.4993 80.4915 72.5927 80.4915C72.7794 80.4915 72.8416 80.5849 72.966 80.7405C73.0594 80.8649 73.1527 81.0205 73.3083 81.0205C73.4639 81.0516 73.6505 81.0205 73.8061 81.0205C73.9617 81.0205 73.9928 81.0205 74.1172 81.1138C74.2106 81.2072 74.335 81.3005 74.4595 81.3005C74.5217 81.3005 74.6151 81.3005 74.6773 81.3005" stroke="#2D1F04" stroke-width="0.622277" stroke-miterlimit="10" stroke-linecap="round" stroke-linejoin="round"/>
<path d="M84.6337 79.3091C84.9138 79.3402 85.1627 79.1536 85.4116 79.0913C85.5672 79.0291 85.536 79.0602 85.5983 79.1536C85.6605 79.3091 85.7227 79.4958 85.8161 79.6514C85.9405 79.8692 86.0339 79.9314 86.2828 79.9003C86.6562 79.8692 87.0295 79.8381 87.434 79.8381C87.6207 79.8381 87.5273 79.9936 87.5584 80.1492C87.5896 80.3048 87.6829 80.4292 87.8385 80.4292C88.0874 80.4292 88.3674 80.367 88.5852 80.4603C88.7408 80.5226 88.8963 80.7093 89.1141 80.6781" stroke="#2D1F04" stroke-width="0.622277" stroke-miterlimit="10" stroke-linecap="round" stroke-linejoin="round"/>
<path d="M83.9181 81.7984C84.0115 81.8606 84.1048 81.8606 84.1981 81.8606C84.696 81.8917 85.1938 81.7051 85.6916 81.6428C85.7849 81.7984 85.8161 82.0162 85.9716 82.1095C86.065 82.1718 86.1894 82.1406 86.2828 82.1406C86.5006 82.1406 86.7184 82.2029 86.9362 82.234C87.154 82.2651 87.3718 82.1718 87.5273 82.3584C87.6829 82.514 87.7762 82.8874 88.0563 82.9185" stroke="#2D1F04" stroke-width="0.622277" stroke-miterlimit="10" stroke-linecap="round" stroke-linejoin="round"/>
<path d="M81.429 72.8064C80.7756 72.962 80.2156 73.3353 79.5933 73.5842C79.0333 73.802 78.4421 73.9265 77.8509 74.051" stroke="#2D1F04" stroke-width="0.622277" stroke-miterlimit="10" stroke-linecap="round" stroke-linejoin="round"/>
<path d="M78.1621 72.962C77.3531 73.3354 76.8553 74.1755 76.0463 74.4866C77.042 74.5488 78.0065 74.6733 79.0021 74.7978" stroke="#2D1F04" stroke-width="0.622277" stroke-miterlimit="10" stroke-linecap="round" stroke-linejoin="round"/>
<path d="M85.0071 74.0822C85.256 74.3 85.3494 74.6422 85.4427 74.9533C85.6916 75.6379 86.0028 76.2912 86.4072 76.9135" stroke="#2D1F04" stroke-width="0.622277" stroke-miterlimit="10" stroke-linecap="round" stroke-linejoin="round"/>
<path d="M84.7271 76.0112C85.4116 76.6023 86.065 77.1624 86.7495 77.7535C86.9673 76.9757 87.0606 76.1356 87.0606 75.3267" stroke="#2D1F04" stroke-width="0.622277" stroke-miterlimit="10" stroke-linecap="round" stroke-linejoin="round"/>
</g>
<defs>
<clipPath id="clip0_80_4132">
<rect width="100" height="100" fill="white"/>
</clipPath>
</defs>
</svg>
