<svg width="165" height="183" viewBox="0 0 165 183" fill="none" xmlns="http://www.w3.org/2000/svg">
<g clip-path="url(#clip0_131348_441478)">
<path d="M36.4926 65.2031C25.8696 87.8999 19.7831 70.0397 19.5131 70.0397C14.9766 77.0274 9.60412 92.5496 9.96548 98.5117C18.207 95.8088 18.6468 110.245 13.1437 112.961C2.43357 118.245 4.43627 105.678 3.25642 105.795C2.07657 105.912 -12.16 157.303 29.7182 158.354C33.4189 158.45 50.616 155.843 54.2035 156.742C60.6818 158.359 55.7229 156.182 62.4058 155.069C64.6436 154.695 66.999 157.381 68.9364 149.489C70.8738 141.598 66.8814 151.888 71.1742 153.209C83.2906 156.929 131.16 156.494 133.811 154.513C137.729 151.567 147.791 146.139 149.654 130.508C150.446 123.855 142.022 104.7 141.713 108.919C141.278 115.064 131.386 119.157 128.404 107.616C124.716 93.3623 139.157 95.7002 139.349 95.2787C145.74 81.1947 131.913 65.1075 130.972 65.1075C130.724 65.1075 122.996 78.218 121.133 63.5171C120.049 54.9824 115.277 45.8959 110.392 38.9343C109.548 37.7262 103.583 30.391 102.382 30.391C101.62 30.391 103.609 41.924 97.8319 41.5633C88.8851 41.0028 78.7714 18.9665 60.1288 11.3401C60.0026 11.2879 65.3098 24.0247 54.0337 34.3063C52.6318 35.5839 39.8667 58.1416 39.8667 61.2834" fill="#FF6900"/>
<path d="M111.298 156.173C137.904 150.958 126.101 130.321 125.783 130.321C125.57 130.321 114.259 143.032 111.437 130.347C110.567 126.497 118.647 113.2 120.219 109.28C123.471 101.163 123.819 98.5683 120.193 90.8767C119.827 90.0989 113.135 79.839 112.935 79.839C112.804 79.839 112.935 91.6242 106.017 92.5584C104.833 92.7192 104.924 88.4345 104.924 87.4698C104.924 82.4377 104.924 76.8667 104.376 71.8258C103.897 67.5107 103.553 63.0348 102.012 58.9239C99.1164 51.2192 88.9505 43.5276 81.9846 39.6558C80.1081 38.6172 76.5337 34.9321 74.3351 34.9321C73.7691 34.9321 74.0521 35.1885 73.9694 35.4753C73.1335 38.4042 71.3572 41.0811 69.7812 43.6536C63.7382 53.4572 56.5328 62.7741 50.1155 72.3734C43.6981 81.9727 37.2024 92.1804 32.2653 102.727C30.4411 106.638 35.4827 124.998 31.3945 126.341C19.2738 130.334 17.0012 118.745 16.9098 118.775C15.6037 119.21 9.17324 158.22 33.1317 158.22C33.3145 158.233 108.982 156.625 111.298 156.173Z" fill="#FCA500"/>
<path d="M149.994 87.1699C150.042 87.2612 150.085 87.3524 150.129 87.4437L149.994 87.1699Z" fill="#813210"/>
<path d="M109.178 37.1831C110.049 37.8697 117.319 36.1532 118.294 37.6611C119.405 39.3733 117.537 43.3104 117.371 45.192C116.823 51.5061 111.62 74.6591 110.697 80.1041C110.497 81.2644 109.931 82.3594 109.866 83.5805C109.866 83.7196 109.914 84.9233 109.744 84.945C109.239 85.0015 107.854 82.4246 107.65 81.9336C107.445 81.4425 105.255 79.3263 105.303 79.0872C105.643 77.5185 106.174 76.0454 106.27 74.3897C106.792 64.9077 106.383 55.3997 107.985 45.9698C108.159 44.9486 108.982 37.0267 109.178 37.1831Z" fill="#8F3F1D"/>
<path d="M77.0431 128.431C77.6527 128.661 76.8385 127.74 76.7645 128.492C76.6644 129.513 77.0649 138.521 76.8472 138.699C76.7906 138.747 66.5899 138.699 65.3404 138.586C60.9388 138.152 56.424 138.239 52.0311 138.3C48.1128 138.352 35.0996 139.238 32.5744 138.343C32.2218 138.217 31.1072 125.984 31.4729 125.406C31.8759 125.411 32.2779 125.448 32.6745 125.519C36.1836 125.863 39.2922 125.389 42.8187 125.085C47.4728 124.702 51.8657 125.824 56.4849 125.811C63.6729 125.806 70.3515 125.902 77.0431 128.431Z" fill="#8F3F1D"/>
<path d="M33.8022 138.765C33.1578 143.766 35.4566 148.538 36.4144 153.383C37.0631 156.616 37.3112 159.858 38.047 163.052C38.7523 166.094 38.2995 170.73 39.9148 173.416C40.2543 173.985 42.7316 173.851 43.18 173.416C43.9158 172.686 43.4064 168.249 43.5327 167.245C44.3512 160.688 44.5993 146.726 42.9798 140.264C42.4225 138.035 44.7212 139.89 43.2976 138.008C42.9275 137.5 33.8849 138.126 33.8022 138.765Z" fill="#8F3F1D"/>
<path d="M68.4794 138.834C68.0963 138.973 69.102 144.049 69.2108 144.657C69.3719 145.487 69.5635 146.313 69.7246 147.143C71.0873 154.178 71.1134 161.522 72.7199 168.471C72.8505 169.031 73.5384 174.511 73.804 174.776C74.1566 175.124 76.0548 174.263 76.4859 174.263C76.808 174.263 77.435 174.398 77.6962 174.137C78.3754 173.459 77.8094 171.626 77.7615 170.765C77.5917 167.693 77.5917 164.525 77.3261 161.466C76.8167 155.843 77.3914 150.198 77.3914 144.596C77.3914 143.727 77.9487 139.477 77.583 138.947C77.3479 138.591 76.2246 138.878 75.8415 138.817C73.7387 138.447 70.4908 138.104 68.4794 138.834Z" fill="#8F3F1D"/>
<path d="M93.9007 135.236C93.8571 134.197 97.2617 134.098 98.0454 133.898C98.5461 133.767 99.5779 133.128 99.5779 133.641C99.5258 135.958 99.29 138.267 98.8726 140.546C98.6277 141.967 98.5648 143.412 98.6854 144.848C98.8639 146.269 98.5461 147.708 98.4285 149.116C98.1891 151.966 98.398 154.826 98.0454 157.646C97.8103 159.528 97.9845 161.487 97.9845 163.378C97.9845 163.634 98.25 165.159 97.9191 165.225C97.4838 165.316 95.529 165.459 95.1763 165.225C94.4579 164.747 94.8585 158.567 94.8585 157.585C94.8585 156.468 94.5015 155.365 94.3447 154.274C93.7875 150.363 94.397 146.282 93.8354 142.367C93.5219 140.155 93.9921 137.444 93.9007 135.236Z" fill="#8F3F1D"/>
<path d="M90.4787 44.0013C91.5845 43.0366 97.3271 43.9492 98.7115 44.0013C100.453 44.0491 102.168 44.0013 103.906 43.8666C104.776 43.8101 107.58 43.5537 108.237 44.0317C108.895 44.5097 107.693 46.8781 107.576 47.3952C107.493 47.7732 107.658 49.7896 107.402 49.8721C106.348 50.1937 104.397 49.833 103.3 49.7678C101.203 49.6541 99.0992 49.7035 97.0092 49.9156C96.3649 49.9764 94.114 50.1981 93.5263 49.7765C92.5859 49.0943 92.12 47.2996 91.6803 46.2697C91.4757 45.7656 90.3002 44.1578 90.4787 44.0013Z" fill="#8F3F1D"/>
<path d="M96.0862 59.1412C97.6231 57.9635 102.382 59.1412 104.593 59.0847C105.094 59.0847 106.483 58.6501 106.883 59.0847C107.632 59.8886 106.622 66.4243 106.378 67.3803C106.274 67.8149 106.378 69.388 106.069 69.5966C105.429 70.0007 103.936 69.5966 103.218 69.64C102.73 69.6835 98.1499 69.3271 97.8364 68.9839C96.9918 68.0713 97.1964 65.4726 96.8656 64.2733C96.5129 62.9739 94.8933 60.0581 96.0862 59.1412Z" fill="#8F3F1D"/>
<path d="M119.257 37.7219C119.57 36.6269 120.763 39.3472 120.998 40.1989C121.59 42.5629 119.692 46.9606 119.217 49.3549C117.824 56.3078 116.396 63.2129 115.395 70.2136C114.842 74.0811 114.293 78.1746 113.357 81.9118C113.24 82.3724 112.461 88.4779 111.446 87.1265C109.539 84.5887 111.973 76.2626 112.317 73.3945C113.353 65.138 115.691 56.9162 117.032 48.7249C117.964 42.9887 118.212 41.3461 119.257 37.7219Z" fill="#632E17"/>
<path d="M99.2383 133.068C100.871 132.198 102.665 132.533 104.223 131.399C104.297 131.342 104.367 131.234 104.458 131.256C104.82 131.338 104.428 132.959 104.384 133.155C103.927 135.088 104.036 137.066 103.688 139.017C102.704 144.531 102.604 150.432 102.408 156.043C102.408 156.507 101.685 162.839 101.62 162.891C101.311 163.139 100.749 163.469 100.348 163.76C99.948 164.051 99.3602 163.925 98.9205 164.195C98.8508 164.238 98.4285 164.599 98.3414 164.551C98.1542 164.451 98.3414 164.021 98.3414 163.878C98.4242 162.317 98.3414 160.749 98.3414 159.176C98.4024 153.274 97.7798 147.125 98.6897 141.32C98.951 139.668 97.9888 133.724 99.2383 133.068Z" fill="#632E17"/>
<path d="M77.7223 139.047C77.8834 138.613 79.8208 138.473 80.4477 138.391C81.0747 138.308 83.0904 137.418 83.6651 137.7C83.6651 137.7 83.282 139.834 83.2602 139.938C82.8466 142.219 82.4809 144.47 82.285 146.817C81.9759 150.541 82.5811 154.413 82.1718 158.115C81.8496 161.014 81.1705 163.886 80.8657 166.772C80.7612 167.736 81.7364 171.369 81.1966 171.721C80.8831 171.93 79.0197 173.833 78.6279 173.937C77.8225 174.137 77.8834 171.33 77.8834 170.839C77.8834 167.545 77.1694 163.982 77.7093 160.753C77.9531 159.28 77.3087 157.655 77.3087 156.169C77.3087 152.258 77.4437 148.177 77.7659 144.301C77.8529 143.023 77.2608 140.207 77.7223 139.047Z" fill="#632E17"/>
<path d="M76.3466 128.944C76.2987 128.944 77.1128 138.308 76.9212 138.617C76.7297 138.925 79.7424 138.039 80.1691 137.995C83.9612 137.561 87.4616 135.688 91.1927 135.11C91.3102 135.11 91.4278 135.11 91.541 135.084C93.5959 134.558 95.5246 133.95 97.536 133.346C97.8126 133.298 98.0848 133.228 98.3502 133.137C98.3763 132.998 96.1516 132.681 95.9295 132.646C94.4381 132.342 92.9799 131.894 91.5758 131.308C89.5252 130.53 87.627 129.63 85.6156 128.752C84.4357 128.24 83.5302 126.58 82.0934 126.61C80.5566 126.654 79.22 128.261 77.7397 128.374C77.2173 128.387 76.5947 128.974 76.3466 128.944Z" fill="#632E17"/>
<path d="M100.218 29.1569L99.874 28.7962L100.218 29.1569Z" fill="#9D7B51"/>
<path d="M105.334 83.1069H105.29C105.147 83.0969 105.013 83.0331 104.915 82.9282C104.817 82.8233 104.763 82.6852 104.763 82.5419V82.4941L108.342 36.9919C108.359 36.8496 108.428 36.7189 108.538 36.6258C108.647 36.5326 108.787 36.4839 108.93 36.4894C109.074 36.4949 109.21 36.5542 109.311 36.6554C109.413 36.7565 109.472 36.8922 109.478 37.0354V37.0832L105.904 82.5854C105.891 82.7276 105.825 82.8598 105.72 82.9562C105.614 83.0526 105.477 83.1064 105.334 83.1069Z" fill="#2D1F04"/>
<path d="M82.6986 44.4141C82.5473 44.4141 82.4023 44.3541 82.2953 44.2474C82.1884 44.1406 82.1283 43.9958 82.1283 43.8448C82.1283 43.6938 82.1884 43.5491 82.2953 43.4423C82.4023 43.3355 82.5473 43.2756 82.6986 43.2756L95.2329 43.2321L108.146 43.0844C108.296 43.0865 108.44 43.1465 108.547 43.2517C108.654 43.3569 108.716 43.4994 108.721 43.6493C108.722 43.7238 108.708 43.7979 108.681 43.8671C108.653 43.9364 108.612 43.9995 108.56 44.0528C108.507 44.1061 108.445 44.1486 108.376 44.1778C108.308 44.207 108.234 44.2223 108.159 44.2229L95.2416 44.3706L82.703 44.4141H82.6986Z" fill="#2D1F04"/>
<path d="M107.724 50.4066L86.5168 50.3501C86.3736 50.3376 86.2402 50.272 86.1431 50.1662C86.046 50.0604 85.9921 49.9222 85.9921 49.7787C85.9921 49.6352 86.046 49.4969 86.1431 49.3911C86.2402 49.2853 86.3736 49.2197 86.5168 49.2072L107.719 49.2681C107.871 49.2681 108.016 49.328 108.123 49.4348C108.23 49.5415 108.29 49.6863 108.29 49.8373C108.29 49.9883 108.23 50.1331 108.123 50.2398C108.016 50.3466 107.871 50.4066 107.719 50.4066H107.724Z" fill="#2D1F04"/>
<path d="M107.11 59.5714H90.3045C90.1533 59.5714 90.0082 59.5114 89.9012 59.4047C89.7943 59.2979 89.7342 59.1531 89.7342 59.0021C89.7342 58.8511 89.7943 58.7064 89.9012 58.5996C90.0082 58.4929 90.1533 58.4329 90.3045 58.4329H107.11C107.261 58.4329 107.406 58.4929 107.513 58.5996C107.62 58.7064 107.68 58.8511 107.68 59.0021C107.68 59.1531 107.62 59.2979 107.513 59.4047C107.406 59.5114 107.261 59.5714 107.11 59.5714Z" fill="#2D1F04"/>
<path d="M91.837 69.9485C91.6858 69.9485 91.5407 69.8886 91.4337 69.7818C91.3268 69.675 91.2667 69.5302 91.2667 69.3793C91.2667 69.2283 91.3268 69.0835 91.4337 68.9767C91.5407 68.87 91.6858 68.81 91.837 68.81H106.322C106.472 68.81 106.617 68.8694 106.724 68.9752C106.83 69.081 106.891 69.2247 106.892 69.3749C106.892 69.5263 106.832 69.6715 106.725 69.779C106.619 69.8864 106.473 69.9474 106.322 69.9485H91.837Z" fill="#2D1F04"/>
<path d="M110.876 92.2803C110.84 92.2846 110.803 92.2846 110.767 92.2803C110.622 92.247 110.495 92.1585 110.414 92.0336C110.332 91.9087 110.303 91.7572 110.332 91.6111L118.064 51.9319L120.519 40.0034L118.878 37.8306C118.827 37.7715 118.788 37.7026 118.765 37.6282C118.742 37.5537 118.734 37.4753 118.743 37.3977C118.751 37.3202 118.775 37.2452 118.814 37.1774C118.852 37.1095 118.905 37.0504 118.967 37.0035C119.03 36.9567 119.101 36.9231 119.177 36.905C119.253 36.8869 119.332 36.8845 119.409 36.8981C119.486 36.9117 119.559 36.9409 119.624 36.9839C119.69 37.027 119.745 37.0829 119.788 37.1483L121.586 39.5471C121.631 39.6088 121.664 39.6792 121.681 39.754C121.698 39.8287 121.7 39.9062 121.686 39.9816L119.183 52.1492L111.455 91.8197C111.428 91.9522 111.355 92.0712 111.25 92.1555C111.144 92.2397 111.011 92.2839 110.876 92.2803Z" fill="#2D1F04"/>
<path d="M43.3411 173.499L45.6181 171.469L46.1101 152.466L44.1553 149.62" fill="#632E17"/>
<path d="M43.328 174.068C43.2119 174.069 43.0983 174.034 43.0023 173.969C42.9064 173.904 42.8326 173.811 42.791 173.703C42.7493 173.595 42.7418 173.476 42.7693 173.364C42.7968 173.251 42.8581 173.15 42.9449 173.073L45.0391 171.208L45.518 152.631L43.6676 149.941C43.5822 149.816 43.55 149.663 43.5782 149.514C43.6063 149.365 43.6926 149.234 43.8178 149.148C43.9431 149.063 44.0972 149.031 44.2462 149.059C44.3952 149.087 44.5269 149.173 44.6124 149.298L46.5628 152.14C46.6323 152.239 46.6674 152.358 46.663 152.479L46.1754 171.482C46.173 171.56 46.1548 171.636 46.1218 171.706C46.0889 171.776 46.0419 171.839 45.9838 171.891L43.7068 173.924C43.6024 174.017 43.4676 174.068 43.328 174.068Z" fill="#2D1F04"/>
<g opacity="0.23">
<path d="M91.3799 101.132C94.4536 99.9371 97.2138 97.7426 100.37 96.6041C103.022 95.6437 105.564 96.1348 108.146 95.5351" fill="#3F2719"/>
</g>
<g opacity="0.23">
<path d="M91.1709 100.593C94.3796 97.9382 103.248 94.3053 107.715 94.7181L91.1709 100.593Z" fill="#3F2719"/>
</g>
<g opacity="0.23">
<path d="M92.3377 101.015C92.2228 101.016 92.1103 100.982 92.0153 100.918C91.9204 100.853 91.8475 100.761 91.8065 100.654C91.779 100.585 91.7655 100.51 91.7668 100.435C91.7682 100.361 91.7842 100.287 91.8142 100.218C91.8441 100.15 91.8873 100.087 91.9412 100.036C91.9952 99.9836 92.0589 99.9428 92.1287 99.9154C93.2868 99.4809 94.2359 98.5205 95.2372 97.5167C96.2386 96.5129 97.2704 95.483 98.5852 94.9094C100.579 94.0403 102.665 93.345 104.68 92.6757C106.13 92.1977 107.632 91.698 109.06 91.1418C109.13 91.1147 109.205 91.1016 109.28 91.1033C109.355 91.105 109.429 91.1215 109.498 91.1517C109.567 91.182 109.629 91.2255 109.681 91.2797C109.733 91.3339 109.773 91.3978 109.8 91.4677C109.828 91.5376 109.841 91.6122 109.839 91.6871C109.837 91.7621 109.821 91.836 109.79 91.9046C109.76 91.9732 109.717 92.0351 109.662 92.0869C109.608 92.1387 109.544 92.1793 109.474 92.2064C108.02 92.7714 106.505 93.2711 105.037 93.7578C103.048 94.4183 100.984 95.1006 99.0424 95.9523C97.9235 96.4434 97.0092 97.3603 96.0383 98.3293C94.9978 99.3679 93.9181 100.446 92.5554 100.98C92.4865 101.009 92.412 101.02 92.3377 101.015Z" fill="#3F2719"/>
</g>
<g opacity="0.23">
<path d="M91.3538 101.949H91.3015C91.2271 101.943 91.1547 101.921 91.0885 101.887C91.0223 101.852 90.9636 101.805 90.9158 101.747C90.8681 101.69 90.8322 101.624 90.8102 101.553C90.7882 101.481 90.7806 101.406 90.7878 101.332C90.9532 99.5243 100.801 94.7877 102.025 94.4313C102.665 94.2401 103.888 93.9968 104.802 93.7925C105.717 93.5883 106.252 93.5014 106.566 93.458H106.627C106.975 93.4188 107.036 93.4579 107.158 93.597C107.231 93.6687 107.283 93.7587 107.309 93.8574C107.335 93.9562 107.334 94.0601 107.306 94.1583C107.278 94.2565 107.224 94.3454 107.149 94.4156C107.075 94.4858 106.983 94.5347 106.883 94.5574H106.822C106.531 94.6095 103.457 95.1918 102.347 95.5177C100.398 96.302 98.5072 97.2212 96.687 98.2684C93.2389 100.172 92.0808 101.167 91.9372 101.471C91.9132 101.607 91.8412 101.73 91.7342 101.818C91.6272 101.906 91.4922 101.952 91.3538 101.949Z" fill="#3F2719"/>
</g>
<g opacity="0.23">
<path d="M94.1227 123.19C92.9342 123.19 91.7413 123.068 90.6136 122.955L89.7429 122.873C89.6683 122.866 89.5958 122.844 89.5295 122.809C89.4633 122.774 89.4047 122.726 89.357 122.669C89.3093 122.611 89.2734 122.544 89.2515 122.473C89.2295 122.401 89.222 122.326 89.2292 122.251C89.2357 122.177 89.257 122.105 89.2916 122.039C89.3263 121.973 89.3738 121.914 89.4312 121.867C89.4887 121.819 89.5551 121.783 89.6265 121.761C89.6979 121.739 89.773 121.732 89.8474 121.739L90.7181 121.826C93.1475 122.069 95.899 122.347 98.0237 121.304C101.528 119.588 104.119 116.906 105.116 113.947C105.609 112.512 105.732 110.975 105.473 109.48C101.759 112.713 95.5595 115.655 90.84 115.516C87.849 115.42 85.6156 114.125 84.3966 111.77C84.096 111.203 83.9155 110.581 83.866 109.942C83.8166 109.303 83.8994 108.66 84.1092 108.055C84.919 105.53 87.4659 103.487 89.399 102.501C93.2172 100.563 96.9962 100.05 100.048 101.054C102.421 101.836 104.249 103.487 105.482 105.96C105.7 106.396 105.893 106.845 106.061 107.303C106.423 106.91 106.749 106.483 107.031 106.03C108.869 102.988 109.313 100.441 108.281 98.8594C107.306 97.3602 105.016 96.7562 101.842 97.1603C100.075 97.4281 98.3533 97.9385 96.7262 98.6769C96.2212 98.8855 95.7118 99.081 95.1981 99.2809C93.2433 100.037 91.2232 100.819 89.6341 102.136C89.5784 102.193 89.5113 102.238 89.4371 102.268C89.3629 102.298 89.2833 102.312 89.2034 102.309C89.1236 102.306 89.0452 102.286 88.9734 102.251C88.9016 102.216 88.8381 102.166 88.7868 102.105C88.7356 102.043 88.6978 101.972 88.676 101.895C88.6541 101.818 88.6487 101.738 88.66 101.659C88.6714 101.58 88.6992 101.504 88.7418 101.437C88.7843 101.369 88.8406 101.311 88.907 101.267C90.6485 99.8328 92.747 99.0159 94.7845 98.225C95.2895 98.0294 95.7946 97.8339 96.2909 97.6296C98.01 96.8489 99.8301 96.3121 101.698 96.0348C105.329 95.5742 108.007 96.3607 109.239 98.2423C110.519 100.211 110.083 103.188 108.007 106.621C107.562 107.331 107.036 107.987 106.439 108.576C106.909 110.474 106.825 112.466 106.196 114.317C105.094 117.563 102.299 120.483 98.5287 122.33C97.1447 122.947 95.6378 123.241 94.1227 123.19ZM96.7741 101.688C94.3752 101.755 92.0253 102.381 89.9127 103.518C88.0363 104.47 85.8507 106.351 85.1889 108.402C85.0285 108.866 84.965 109.358 85.0025 109.848C85.0399 110.337 85.1775 110.814 85.4066 111.249C86.4428 113.239 88.2844 114.29 90.8749 114.377C95.6988 114.525 101.846 111.27 105.159 108.202C104.974 107.604 104.738 107.023 104.454 106.464C103.366 104.291 101.759 102.814 99.665 102.119C98.7303 101.823 97.7545 101.678 96.7741 101.688Z" fill="#3F2719"/>
</g>
<path d="M41.2774 33.498C40.2543 33.498 37.5681 38.7605 36.9673 39.8295C32.483 47.7601 34.1243 57.0162 37.6856 64.9338C38.5956 66.9631 38.1863 67.6019 39.1224 69.4966C39.5577 70.3657 41.0728 72.4081 41.0728 73.338V73.9594C40.9372 73.217 40.7302 72.4894 40.4546 71.7867C40.3545 71.5824 39.9191 71.1652 40.1498 71.1652C40.2674 71.1652 40.4198 71.4955 40.4546 71.5998C41.4472 74.1028 40.324 77.2925 40.9683 79.8998C41.4037 81.7162 44.8301 83.8803 46.7152 84.3583C53.8379 86.1574 61.0302 84.254 68.1659 84.254C69.9509 84.254 75.1014 84.819 76.5816 83.3198C77.8442 82.0465 78.236 80.4039 79.2505 78.9742C80.6262 77.0274 84.2311 78.2398 86.4384 77.3446C88.7198 76.4234 91.1622 73.4336 93.4043 73.9942C93.979 74.1376 95.7118 74.8633 96.2778 74.3027C97.2095 73.3641 97.6405 70.609 97.4054 69.427C96.7785 66.2548 96.97 61.605 96.3823 58.5371C95.904 56.4455 95.2516 54.3974 94.4318 52.4142C91.3842 44.4445 87.1437 37.9609 80.3694 32.9809C78.6714 31.7338 75.8415 29.5306 73.9041 28.5528C71.9667 27.5751 69.9335 27.6359 68.0571 26.6886C65.5842 25.4371 62.8979 23.8292 60.2552 23.16C59.5848 22.9905 60.5208 24.1769 60.4599 24.3029C60.3989 24.4289 58.7184 24.4506 58.5094 24.4028C56.2977 23.9683 54.0556 24.0074 51.944 23.0557C51.5914 22.8993 50.307 21.5652 49.8891 21.7086C48.6396 22.1431 50.5073 25.65 50.5073 25.65C50.4231 25.4927 50.3192 25.3467 50.1982 25.2154C49.593 24.7287 48.2085 24.3463 47.4249 24.1812C45.7574 23.8422 45.0521 24.9286 43.6285 25.2154C43.4369 25.2545 41.7825 25.6935 41.7825 25.7369C41.7825 26.0889 44.4513 26.5104 44.4513 26.8754C44.4513 27.2405 43.8679 27.0666 43.7329 27.084C42.9449 27.197 38.478 29.1004 38.8045 30.0955C38.9482 30.5301 41.3166 30.5301 41.7825 30.8212C41.9133 30.8749 42.0511 30.91 42.1917 30.9255C42.1917 30.9255 40.3327 31.2123 39.4228 31.4426C38.2821 31.7294 36.2272 33.9022 38.2647 33.9022" fill="#CAA77A"/>
<path d="M30.0797 90.4421C30.1712 90.1771 30.2495 89.4948 30.4629 89.6817C33.3254 92.1853 36.9018 93.7308 40.6897 94.1011C41.1251 95.5134 41.0772 96.6215 41.9088 97.4515C42.1917 97.734 43.0146 97.7514 43.1321 98.212C43.2497 98.6726 41.5039 101.045 41.2992 101.871C40.8073 104.135 40.8595 106.484 41.4516 108.724C42.823 114.191 47.8777 113.765 51.2213 117.102C52.1661 118.045 52.4578 120.066 52.7451 121.217C52.8017 121.439 52.6014 123.199 52.8975 123.199C53.7291 123.199 54.4474 119.979 55.0352 119.388C58.209 116.22 59.8242 111.944 64.8049 110.697C69.5156 109.523 74.6443 111.931 79.1503 112.83C82.0455 113.408 85.35 115.472 88.6153 114.656C92.8166 113.608 92.8863 111.07 92.8863 107.042C92.8863 105.947 92.4509 103.162 92.5249 103.162C105.042 103.466 113.009 94.5748 112.574 95.005C111.834 95.7481 114.054 99.9415 114.254 100.945C114.982 104.476 114.877 108.126 113.949 111.609C113.54 113.235 114.354 115.164 113.949 116.789C112.117 124.164 105.451 134.806 96.2691 132.516C93.0735 131.72 90.6876 130.1 87.3919 129.443C86.177 129.035 85.0207 128.469 83.9525 127.762C81.7234 126.089 76.4902 127.227 74.5702 129.139C71.3751 132.382 68.6057 136.016 66.3287 139.955C65.5929 141.181 64.5567 142.615 64.1954 144.066C64.1083 144.405 64.4087 145.196 64.043 145.439C63.6773 145.683 54.4126 145.226 54.2733 145.135C52.8235 144.17 54.6608 132.968 52.5927 132.968C52.1574 132.968 52.5927 135.91 52.5927 136.166C52.5927 137.47 53.0586 145.292 52.5927 145.765C52.2532 146.104 50.368 145.709 49.8456 145.917C48.5394 146.443 44.6211 147.877 43.4369 146.678C42.4007 145.648 41.8086 143.532 41.4516 142.111C40.8552 139.729 38.5259 138.2 37.9425 135.862C37.2111 132.946 36.0748 130.213 35.3303 127.331C34.8949 125.502 34.2854 121.952 35.1779 120.17C35.2215 120.087 35.4696 119.701 35.3303 119.562C34.4596 118.693 33.345 122.456 28.6125 121.087C22.6044 119.349 23.9062 112.313 24.3024 110.336C25.3995 104.861 26.9146 98.1425 29.3788 93.2103C29.7402 92.4976 30.0188 90.629 30.0797 90.4421Z" fill="#CAA77A"/>
<path d="M47.6339 121.217C47.8341 120.831 52.2531 118.558 52.4229 119.692C52.7451 121.626 52.2706 123.699 52.2706 125.637C52.2743 126.553 52.3251 127.468 52.4229 128.379C52.8235 128.179 54.3081 120.235 55.4705 119.844C56.633 119.453 60.4425 121.413 61.5657 121.978C61.6441 122.021 62.1448 122.191 62.0229 122.412C60.9388 124.585 58.0087 126.919 56.8332 129.27C56.6634 129.609 54.5214 133.142 54.3908 133.076C54.2602 133.011 51.2039 126.758 50.577 125.919C49.95 125.081 47.2159 122.026 47.6339 121.217Z" fill="#B6B1AE"/>
<path d="M54.2733 145.974C54.3037 145.857 63.1984 146.122 63.416 146.352C63.2961 146.718 63.1506 147.075 62.9807 147.421C61.9053 149.568 60.9344 151.871 59.4716 153.818C58.1655 155.556 57.6604 157.581 56.7244 159.467C56.6417 159.628 56.5807 159.98 56.2673 159.771C54.1992 158.398 55.0177 154.309 54.5867 152.153C54.2123 150.298 53.7769 147.838 54.2733 145.974Z" fill="#B6B1AE"/>
<path d="M44.1248 148.255C44.2902 147.973 51.857 145.648 52.4403 146.808C53.1718 148.273 53.0368 157.95 52.1356 159.302C51.7568 159.871 49.9587 157.894 49.6932 157.624C48.2826 156.216 45.3395 151.206 44.3512 149.246C44.2597 149.064 44.0377 148.403 44.1248 148.255Z" fill="#B6B1AE"/>
<path d="M29.1263 88.3215C28.1728 86.4138 29.3091 83.8891 29.5616 82.9156C30.5891 78.8135 34.4421 75.9628 38.2691 74.9937C39.0745 74.7938 40.546 75.0458 41.0162 75.7542C41.3558 76.2626 39.7101 76.167 41.5474 77.2969C43.3847 78.4267 43.8113 78.3832 46.1362 78.9612C48.4611 79.5391 49.6192 79.7043 51.6436 80.2127C56.0583 81.3252 64.1213 81.7032 68.2487 80.8776C75.01 79.5261 78.1533 79.1785 84.7927 77.5228C87.7271 76.7884 90.6136 72.3864 93.9355 73.2164C94.5755 73.3772 98.0846 73.425 99.5257 74.1333C100.967 74.8416 102.46 76.3061 104.785 78.0443C106.339 79.2089 107.332 81.7728 108.621 83.0634C109.726 84.1672 109.491 84.9407 110.362 86.1053C111.398 87.4872 114.01 92.3716 113.035 94.3227C112.508 95.3787 105.373 104.174 91.9459 102.84C91.6672 102.814 92.0199 102.527 91.6672 102.701C91.3146 102.875 92.1026 103.57 92.1026 103.613C92.4397 104.068 92.681 104.587 92.8119 105.137C92.9429 105.687 92.9607 106.259 92.8645 106.816C92.2289 109.367 92.0591 112.465 89.4556 113.487C84.1963 115.585 74.0217 110.036 67.8002 110.923C63.8253 111.492 60.8691 112.874 57.7301 115.381C56.3543 116.481 55.6229 119.614 54.4039 120.831C54.3255 120.909 54.208 121.017 54.0991 120.983C53.7813 120.874 53.5462 119.679 53.4896 119.457C53.1935 118.271 51.6349 117.072 50.7947 116.233C48.6831 114.13 44.4426 113.308 42.6532 110.927C41.186 108.976 41.961 100.589 43.0059 97.9339C41.6736 97.1777 41.3907 95.7611 40.829 94.2358C36.5668 94.1489 29.7358 89.5513 29.1263 88.3215Z" fill="#FFDB1F"/>
<path d="M92.0243 100.167C91.873 100.167 91.7279 100.107 91.621 100.001C91.514 99.894 91.4539 99.7491 91.4539 99.5982C91.4539 99.4472 91.514 99.3024 91.621 99.1957C91.7279 99.0889 91.873 99.0289 92.0243 99.0289C101.454 98.8681 105.085 96.8996 108.503 93.3145C108.555 93.2603 108.617 93.2168 108.685 93.1865C108.754 93.1561 108.828 93.1396 108.903 93.1378C108.978 93.136 109.052 93.1489 109.122 93.1759C109.192 93.2029 109.256 93.2433 109.311 93.295C109.365 93.3466 109.409 93.4084 109.439 93.4769C109.469 93.5454 109.486 93.6191 109.488 93.694C109.49 93.7688 109.477 93.8433 109.45 93.9132C109.423 93.983 109.382 94.0469 109.33 94.1011C105.704 97.9078 101.877 100.002 92.046 100.185L92.0243 100.167Z" fill="#2D1F04"/>
<path d="M37.5333 90.4031H37.4375C34.3333 89.8946 30.6196 87.7175 28.987 85.4491C28.9432 85.3883 28.9119 85.3196 28.8948 85.2467C28.8777 85.1739 28.8751 85.0984 28.8873 85.0245C28.8994 84.9507 28.926 84.8799 28.9655 84.8163C29.005 84.7527 29.0567 84.6976 29.1176 84.6539C29.1785 84.6102 29.2474 84.579 29.3204 84.5619C29.3933 84.5448 29.469 84.5423 29.543 84.5544C29.617 84.5665 29.6878 84.593 29.7515 84.6325C29.8153 84.6719 29.8706 84.7235 29.9143 84.7843C31.3684 86.8049 34.8253 88.8213 37.6247 89.2819C37.7646 89.3065 37.8902 89.3823 37.977 89.4945C38.0638 89.6066 38.1056 89.7471 38.0942 89.8883C38.0828 90.0296 38.0189 90.1616 37.9152 90.2584C37.8115 90.3552 37.6753 90.4099 37.5333 90.4118V90.4031Z" fill="#2D1F04"/>
<g opacity="0.23">
<path d="M43.0494 98.6813C50.381 97.1995 61.9271 96.5998 69.3806 97.8383C71.6489 98.2163 80.3737 102.64 81.3707 100.646C82.9076 97.5775 75.9547 97.5341 74.6268 97.0908C67.5869 94.7486 58.3222 94.5661 51.0167 95.7872C49.8194 95.9784 42.1003 98.8725 43.0494 98.6813Z" fill="#3F2719"/>
</g>
<g opacity="0.23">
<path d="M91.9589 103.918C93.5219 111.67 81.8975 113.043 79.4986 112.426C77.8007 111.992 76.451 111.492 74.6268 111.492C74.3787 111.492 73.878 111.244 73.878 111.492C73.878 111.631 74.1174 111.648 74.2524 111.679C76.4293 112.218 78.6627 112.374 80.8091 112.804C83.3734 113.313 84.9451 115.09 88.4194 114.251C90.6963 113.704 95.7815 107.833 91.9589 103.918Z" fill="#3F2719"/>
</g>
<g opacity="0.23">
<path d="M66.0544 111.592C55.7753 116.211 45.026 114.634 41.6432 108.876C43.2192 112.061 48.2956 115.768 50.8295 117.667C52.3184 118.779 52.9149 120.796 53.2632 122.53C53.3851 123.138 52.9846 124.954 53.2632 124.398C55.2964 120.344 56.0539 116.142 60.6645 113.391C61.5048 112.865 66.9251 111.201 66.0544 111.592Z" fill="#3F2719"/>
</g>
<g opacity="0.23">
<path d="M75.2842 123.555C75.7196 123.247 73.4775 124.059 72.942 124.398C71.556 125.366 70.3507 126.57 69.3806 127.953C67.5303 130.412 61.9793 141.72 57.7606 140.672C56.6962 140.462 55.7184 139.94 54.9511 139.174C54.1838 138.409 53.6615 137.433 53.4504 136.37C53.3503 135.962 53.2066 133.002 52.5144 133.002C52.2749 133.002 52.2096 136.201 52.14 136.557C51.7743 138.369 50.7294 138.899 49.5277 140.112C47.599 142.037 44.5384 141.016 42.4094 140.485C42.1134 140.412 39.8582 138.747 39.7972 138.799C39.5621 139.034 42.1482 143.306 42.4094 143.853C45.1 149.22 47.1201 154.717 51.4042 159.002C53.3721 160.97 53.0717 155.899 52.9019 154.887C52.5971 153.053 51.2562 140.803 53.2763 140.299C53.938 140.133 53.5854 143.453 53.6812 144.101C54.2341 147.986 54.1993 152.401 55.1527 156.195C55.2616 156.629 55.9669 160.975 57.0248 159.749C58.2177 158.367 60.547 151.64 62.2101 148.386C65.0748 142.771 68.5099 138.882 71.2658 133.376C72.7156 130.486 75.8589 128.161 78.9501 127.392C79.9919 127.132 81.063 127.006 82.137 127.019C82.2589 127.019 82.5114 127.14 82.5114 127.019C82.5114 126.249 74.3743 124.237 75.2842 123.555Z" fill="#3F2719"/>
</g>
<g opacity="0.23">
<path d="M91.1665 113.169C112.064 123.629 112.783 77.6836 92.2419 73.5249C91.9284 73.4597 92.8601 73.3381 93.178 73.3381C95.2068 73.3381 96.9004 73.5076 98.7986 74.4592C103.905 77.0057 107.179 82.0596 110.606 86.6268C111.803 88.2172 113.166 92.1239 112.669 94.1055C112.495 94.7964 111.542 95.0441 111.729 95.7915C112.404 98.4814 114.058 100.893 114.341 103.831C114.529 105.691 113.976 107.798 114.341 109.632C114.607 110.936 115.186 112.344 114.903 113.747C114.145 117.519 111.821 120.505 110.406 124.033C108.708 128.27 105.886 131.707 101.411 132.824C99.4908 133.302 97.0571 132.003 95.2285 131.703C85.7113 130.121 77.5003 124.098 68.2356 121.791C62.8631 120.448 59.846 124.737 56.6156 127.962C56.2585 128.318 53.864 133.259 53.6159 133.011C51.8004 131.199 52.4926 124.616 53.2501 122.717C53.9772 120.9 57.0814 116.437 58.1785 116.163C55.5663 123.116 81.0224 118.336 77.879 112.474C81.2053 112.048 88.5587 115.951 91.1665 113.169Z" fill="#3F2719"/>
</g>
<g opacity="0.23">
<path d="M26.0917 103.635C27.1149 100.424 24.8596 107.929 24.7856 108.502C24.5549 110.11 24.6724 111.774 24.4112 113.365C22.0384 127.575 36.0878 119.627 41.3907 117.867C44.4121 116.859 48.792 123.733 50.1198 126.371C50.756 127.445 51.4507 128.484 52.2009 129.483C52.6363 129.483 55.427 122.095 54.0207 123.464C52.6145 124.833 52.8844 117.445 50.1024 115.79C47.3204 114.134 42.0524 110.771 41.8913 110.914C29.6357 122.017 23.5056 111.744 26.0917 103.635Z" fill="#3F2719"/>
</g>
<path d="M36.3621 49.607C37.2329 46.0654 39.3749 42.0762 42.5052 41.4939C46.1841 40.8073 49.654 39.0387 53.2066 38.7692C55.8188 38.5693 55.5533 36.4313 55.5533 36.4313C55.5533 36.4313 57.6038 37.8567 59.4977 38.9822C61.8922 40.4032 63.8993 40.4292 66.3156 39.6905C74.3743 37.2309 79.1547 38.5911 83.4474 46.4565C84.2485 47.921 88.9244 61.4834 83.4997 70.3787C82.3063 72.3365 80.6557 73.9767 78.6888 75.1588C69.951 80.4821 51.008 82.1943 42.3398 71.1262C38.2995 65.9333 34.773 56.2123 36.3621 49.607Z" fill="#FFDBAF"/>
<path d="M54.0512 55.417C51.1255 53.9395 47.3248 62.4611 47.5207 64.6122C48.1911 72.4342 60.277 74.4766 66.0805 69.7008C72.2671 64.6122 63.7948 52.8531 58.7053 54.9259" fill="#9D7B51"/>
<path d="M35.5436 50.8368C33.9589 53.757 38.3431 65.5074 39.549 66.4243C40.4807 67.1283 54.8305 56.838 48.6526 40.7508C48.3914 40.0729 40.3458 43.9578 39.3009 44.1708C37.8206 44.4663 36.1923 49.6375 35.5436 50.8368Z" fill="#9D7B51"/>
<path d="M67.5738 40.577C57.7911 63.3607 83.4257 68.8795 85.5677 64.886C87.4485 61.3791 86.8346 52.7184 83.3908 46.6781C83.0556 46.0871 78.7933 40.8898 78.1664 40.9941C73.1204 41.8502 69.0759 40.6465 67.5738 40.577Z" fill="#9D7B51"/>
<path d="M29.0348 105.095C28.8092 105.087 28.5955 104.992 28.4387 104.83C28.282 104.668 28.1944 104.452 28.1946 104.226V101.775C28.1957 101.554 28.2848 101.341 28.4422 101.185C28.5997 101.029 28.8127 100.941 29.0348 100.941C29.1454 100.941 29.2548 100.963 29.3568 101.005C29.4587 101.048 29.5513 101.11 29.629 101.188C29.7068 101.267 29.7681 101.36 29.8096 101.462C29.8511 101.564 29.8719 101.674 29.8708 101.784V104.239C29.8731 104.35 29.8532 104.461 29.8123 104.565C29.7713 104.668 29.7102 104.762 29.6324 104.842C29.5546 104.922 29.4617 104.985 29.3591 105.029C29.2565 105.072 29.1463 105.095 29.0348 105.095Z" fill="#9D7B51"/>
<path d="M31.4207 103.657C31.31 103.656 31.2004 103.634 31.0984 103.591C30.9964 103.548 30.9039 103.485 30.8262 103.407C30.7486 103.328 30.6872 103.235 30.6458 103.132C30.6044 103.03 30.5836 102.92 30.5848 102.81V100.354C30.5859 100.133 30.675 99.9204 30.8324 99.7641C30.9899 99.6077 31.2029 99.52 31.425 99.52C31.6506 99.5278 31.8644 99.6229 32.0211 99.785C32.1779 99.9472 32.2654 100.164 32.2653 100.389V102.84C32.2585 103.059 32.1665 103.267 32.0089 103.419C31.8512 103.572 31.6402 103.657 31.4207 103.657Z" fill="#9D7B51"/>
<path d="M108.368 121.204C108.256 121.203 108.145 121.18 108.041 121.135C107.938 121.091 107.845 121.026 107.767 120.945C107.689 120.864 107.628 120.769 107.588 120.664C107.548 120.559 107.529 120.447 107.532 120.335V117.884C107.531 117.773 107.552 117.663 107.594 117.561C107.636 117.458 107.698 117.365 107.777 117.287C107.856 117.209 107.949 117.147 108.052 117.106C108.155 117.064 108.266 117.044 108.377 117.046C108.602 117.053 108.816 117.149 108.973 117.311C109.13 117.473 109.217 117.689 109.217 117.915V120.366C109.216 120.476 109.194 120.586 109.151 120.688C109.108 120.79 109.045 120.883 108.967 120.96C108.888 121.038 108.794 121.1 108.692 121.142C108.589 121.184 108.479 121.205 108.368 121.204Z" fill="#9D7B51"/>
<path d="M105.181 119.549C105.069 119.548 104.957 119.525 104.854 119.481C104.75 119.436 104.657 119.372 104.579 119.291C104.501 119.21 104.44 119.114 104.4 119.009C104.36 118.904 104.341 118.792 104.345 118.68V116.229C104.348 116.007 104.438 115.794 104.596 115.638C104.754 115.482 104.967 115.394 105.19 115.394C105.302 115.395 105.414 115.418 105.517 115.462C105.621 115.506 105.714 115.571 105.792 115.652C105.87 115.733 105.931 115.829 105.971 115.934C106.011 116.039 106.03 116.151 106.026 116.263V118.714C106.023 118.936 105.933 119.149 105.775 119.305C105.617 119.461 105.404 119.549 105.181 119.549Z" fill="#9D7B51"/>
<path d="M90.4613 71.5216C90.3485 71.5211 90.2369 71.498 90.1332 71.4537C90.0295 71.4095 89.9357 71.345 89.8574 71.264C89.7791 71.183 89.7178 71.0871 89.6772 70.9821C89.6366 70.8771 89.6175 70.765 89.621 70.6525V68.2016C89.6233 67.9803 89.7127 67.7687 89.8699 67.6126C90.0271 67.4565 90.2395 67.3684 90.4613 67.3672C90.6845 67.3695 90.8978 67.46 91.0544 67.6188C91.211 67.7776 91.2983 67.9918 91.2972 68.2146V70.6655C91.2995 70.7768 91.2796 70.8873 91.2387 70.9908C91.1978 71.0943 91.1366 71.1886 91.0588 71.2683C90.981 71.348 90.8881 71.4114 90.7855 71.4549C90.6829 71.4984 90.5727 71.521 90.4613 71.5216Z" fill="#9D7B51"/>
<path d="M93.0081 69.9963C92.8956 69.9958 92.7842 69.9727 92.6807 69.9284C92.5773 69.8842 92.4838 69.8195 92.4058 69.7385C92.3278 69.6574 92.267 69.5615 92.2269 69.4565C92.1867 69.3515 92.1682 69.2395 92.1722 69.1272V66.6763C92.1745 66.4543 92.2645 66.2421 92.4227 66.0858C92.5808 65.9296 92.7944 65.842 93.0169 65.842C93.1274 65.842 93.2368 65.8639 93.3388 65.9063C93.4408 65.9488 93.5333 66.011 93.611 66.0894C93.6888 66.1678 93.7502 66.2608 93.7917 66.3631C93.8332 66.4653 93.8539 66.5747 93.8528 66.685V69.1403C93.8545 69.2521 93.8339 69.3631 93.7923 69.4669C93.7506 69.5707 93.6887 69.6652 93.6101 69.7448C93.5314 69.8245 93.4378 69.8878 93.3344 69.9309C93.2311 69.9741 93.1202 69.9963 93.0081 69.9963Z" fill="#9D7B51"/>
<path d="M64.9224 135.462C64.8098 135.462 64.6985 135.438 64.595 135.394C64.4916 135.35 64.3981 135.285 64.3201 135.204C64.2421 135.123 64.1812 135.027 64.1411 134.922C64.101 134.817 64.0824 134.705 64.0865 134.593V132.142C64.0888 131.92 64.1788 131.708 64.337 131.552C64.4951 131.395 64.7086 131.308 64.9311 131.308C65.0417 131.308 65.1511 131.33 65.2531 131.372C65.355 131.414 65.4476 131.477 65.5253 131.555C65.6031 131.634 65.6644 131.727 65.7059 131.829C65.7474 131.931 65.7682 132.04 65.7671 132.151V134.606C65.7688 134.718 65.7482 134.829 65.7066 134.933C65.6649 135.036 65.6029 135.131 65.5243 135.211C65.4457 135.29 65.352 135.353 65.2487 135.397C65.1454 135.44 65.0345 135.462 64.9224 135.462Z" fill="#9D7B51"/>
<path d="M62.123 137.096C62.0125 137.096 61.9031 137.074 61.8011 137.032C61.6991 136.989 61.6066 136.927 61.5288 136.849C61.4511 136.77 61.3897 136.677 61.3482 136.575C61.3067 136.473 61.2859 136.363 61.2871 136.253V133.798C61.2882 133.576 61.3773 133.364 61.5347 133.207C61.6922 133.051 61.9053 132.963 62.1274 132.963C62.353 132.971 62.5667 133.066 62.7235 133.228C62.8802 133.391 62.9678 133.607 62.9676 133.832V136.283C62.9608 136.502 62.8687 136.709 62.7109 136.861C62.5531 137.013 62.3422 137.097 62.123 137.096Z" fill="#9D7B51"/>
<path d="M38.4258 130.612C38.2002 130.605 37.9864 130.509 37.8297 130.347C37.6729 130.185 37.5854 129.969 37.5855 129.743V127.292C37.5867 127.071 37.6757 126.859 37.8332 126.702C37.9906 126.546 38.2037 126.458 38.4258 126.458C38.5363 126.458 38.6457 126.48 38.7477 126.522C38.8497 126.565 38.9422 126.627 39.02 126.706C39.0977 126.784 39.1591 126.877 39.2006 126.979C39.2421 127.081 39.2628 127.191 39.2617 127.301V129.756C39.264 129.868 39.2441 129.978 39.2032 130.082C39.1623 130.185 39.1011 130.279 39.0234 130.359C38.9456 130.439 38.8527 130.502 38.7501 130.546C38.6475 130.589 38.5372 130.612 38.4258 130.612Z" fill="#9D7B51"/>
<g style="mix-blend-mode:multiply" opacity="0.23">
<path d="M36.0922 34.5497C37.8337 34.5497 39.2182 33.7501 40.9074 33.3547C41.3776 33.246 42.3485 32.7246 42.3485 33.2113C42.3485 33.3199 42.1525 33.2982 42.0611 33.3547C40.6084 34.2445 39.4162 35.5004 38.6043 36.9962C38.3213 37.5133 37.5507 38.9474 37.7335 38.5997C41.7215 31.3166 60.8474 26.7886 74.7052 35.1928C75.3408 35.581 75.9663 35.9939 76.5816 36.4313C84.6578 42.2587 90.4569 52.9965 89.4425 70.9219C89.4164 71.3565 88.6458 74.6547 89.0594 74.7938C89.9301 75.085 93.3129 72.595 94.3883 72.9991C94.8672 73.1816 96.5651 74.2245 96.9308 73.9768C97.5534 73.5423 97.1311 71.2218 97.2225 70.5004C99.4386 52.3795 80.8483 31.9641 79.2156 31.0428C73.0203 27.5664 60.3423 23.6902 60.0593 23.6163C60.0071 23.6163 58.9012 24.2986 58.3178 24.1986C56.2455 23.851 53.9163 23.0557 51.8352 22.4604C51.5174 22.3691 49.5974 20.8656 49.5321 21.0046C49.297 21.4783 49.1577 24.116 49.3841 24.4811C49.5495 24.7635 50.5726 24.3377 50.2548 24.3377C47.5816 24.3377 44.2118 25.2068 41.3253 25.7934C41.2209 25.7934 41.038 25.8282 41.038 25.9368C41.038 26.7755 44.7822 26.2236 44.7822 26.8059C44.7822 27.2188 39.5882 28.7049 38.8742 29.2786C38.6652 29.4524 37.8206 30.1042 38.0035 30.2998C38.6957 30.995 40.4024 30.1303 41.3166 30.5909" fill="#3F2719"/>
</g>
<path d="M41.1512 77.9965C41.115 78.0007 41.0785 78.0007 41.0424 77.9965C40.8967 77.9651 40.7693 77.8778 40.6878 77.7533C40.6063 77.6288 40.5773 77.4773 40.607 77.3316C40.6265 77.122 40.6265 76.9111 40.607 76.7015C40.5157 76.7541 40.412 76.7818 40.3066 76.7818C40.2011 76.7818 40.0975 76.7541 40.0062 76.7015C39.5708 76.4494 39.7232 76.0105 39.8538 75.5803C39.8986 75.4447 39.9363 75.3069 39.967 75.1675C40.038 74.5905 40.0802 74.0104 40.0933 73.4293H40.0454C39.9515 73.4118 39.8631 73.3723 39.7874 73.3141C39.7118 73.256 39.651 73.1808 39.61 73.0947C39.4573 72.6848 39.427 72.2395 39.5229 71.8128C39.5505 71.6375 39.5607 71.4599 39.5534 71.2826C39.4003 70.5803 39.1326 69.9079 38.761 69.2923L38.4998 68.7839C32.1826 56.008 31.6819 45.6656 37.0065 38.0348C37.2633 37.6698 37.5115 37.2961 37.7597 36.918C38.822 35.3232 39.9365 33.6675 41.5909 32.542C41.7162 32.4573 41.8701 32.4258 42.0187 32.4543C42.1673 32.4828 42.2984 32.5691 42.3833 32.6941C42.4682 32.8192 42.4998 32.9728 42.4712 33.1211C42.4426 33.2694 42.3562 33.4003 42.2309 33.485C40.7463 34.4845 39.7101 36.0445 38.7131 37.5481C38.4563 37.9305 38.2037 38.3129 37.9425 38.6866C32.8705 45.948 33.4016 55.9037 39.5229 68.2798C39.6013 68.4363 39.6884 68.6014 39.7754 68.7665C40.2071 69.496 40.5145 70.2919 40.6853 71.1218C40.7098 71.3958 40.6995 71.6717 40.6549 71.9431V71.9779C40.7067 71.9821 40.7578 71.9923 40.8073 72.0083C40.911 72.0515 41.0018 72.1205 41.0712 72.2088C41.1405 72.297 41.1861 72.4016 41.2034 72.5124C41.2763 73.3316 41.2602 74.1562 41.1555 74.9719C41.9784 75.2501 41.7259 77.5532 41.7215 77.5793C41.6873 77.7027 41.6124 77.811 41.5089 77.8867C41.4055 77.9624 41.2794 78.0011 41.1512 77.9965Z" fill="#2D1F04"/>
<path d="M35.4914 35.5144C35.3791 35.5136 35.2692 35.482 35.1736 35.4231C35.0784 35.3663 35.0001 35.2853 34.9465 35.1883C34.893 35.0913 34.8662 34.9819 34.8688 34.8713C34.8688 33.9413 38.0818 32.1379 39.9975 31.1471L39.758 31.1732C38.7044 31.2949 37.616 31.4166 36.9673 30.9299C36.8874 30.8674 36.8238 30.7866 36.7821 30.6942C36.7404 30.6019 36.7218 30.5008 36.7278 30.3997C36.767 29.7783 38.182 28.957 38.6478 28.6919L39.3792 28.2573C40.2043 27.7127 41.0952 27.2746 42.0307 26.9537H41.5953C40.4677 26.8972 40.0628 26.8668 39.8103 26.6104C39.7379 26.5357 39.6859 26.4438 39.6593 26.3434C39.6326 26.243 39.6321 26.1374 39.6579 26.0368C39.6944 25.9252 39.7607 25.8258 39.8497 25.7492C39.9387 25.6726 40.047 25.6218 40.1629 25.6022C41.087 25.1379 42.0613 24.7806 43.0668 24.5375C44.743 24.1421 48.091 23.6424 50.0328 24.2942C50.1061 24.3162 50.1743 24.3526 50.2332 24.4015C50.2921 24.4503 50.3405 24.5105 50.3757 24.5784C50.4108 24.6463 50.4318 24.7206 50.4375 24.7969C50.4433 24.8731 50.4336 24.9497 50.409 25.0221C50.3844 25.0945 50.3455 25.1612 50.2946 25.2182C50.2436 25.2753 50.1817 25.3215 50.1124 25.3542C50.0432 25.3868 49.9681 25.4052 49.8915 25.4082C49.815 25.4113 49.7387 25.3989 49.6671 25.3719C48.1911 24.8765 45.3482 25.1676 43.3324 25.6457C43.0625 25.7108 42.7969 25.7847 42.527 25.8673C43.8679 25.9629 44.965 26.1715 44.965 27.0754C44.9676 27.2024 44.9437 27.3286 44.895 27.446C44.8463 27.5634 44.7738 27.6695 44.6821 27.7576C44.3076 28.1053 43.7373 28.0748 43.18 28.0401C42.9271 28.0082 42.6711 28.0082 42.4181 28.0401C41.5525 28.3383 40.7298 28.7489 39.9714 29.2612C39.7188 29.4132 39.4707 29.5653 39.2182 29.6957C39.0571 29.7913 38.7828 29.9738 38.4998 30.165C38.8699 30.165 39.2922 30.1042 39.6274 30.0651C40.2614 29.9505 40.9097 29.9388 41.5474 30.0303H41.6737C41.83 30.0322 41.9839 30.0692 42.1241 30.1383C42.2642 30.2075 42.387 30.3072 42.4834 30.4301C42.5349 30.5147 42.567 30.6096 42.5775 30.708C42.5881 30.8063 42.5767 30.9058 42.5444 30.9994C42.4856 31.1476 42.3854 31.2759 42.2558 31.3691C42.1261 31.4623 41.9725 31.5165 41.813 31.5252H41.752C40.3277 32.1721 38.9539 32.9245 37.6421 33.7762L38.0122 33.6502C38.1994 33.585 38.3953 33.5155 38.6043 33.4546C38.9352 33.359 39.2269 33.2938 39.5055 33.233C40.0465 33.1333 40.571 32.9593 41.0641 32.7159C41.1992 32.6473 41.3561 32.6351 41.5002 32.6819C41.6443 32.7288 41.7639 32.8309 41.8326 32.9657C41.9013 33.1006 41.9135 33.2571 41.8665 33.401C41.8196 33.5448 41.7173 33.6642 41.5822 33.7327C41.0029 34.0166 40.3878 34.2212 39.7537 34.3411C39.4968 34.3976 39.2269 34.4584 38.9221 34.5497C38.7349 34.6018 38.5608 34.6627 38.3953 34.7235C38.1114 34.8314 37.8205 34.9199 37.5246 34.9886C37.3287 35.032 37.1284 35.0625 36.9281 35.0929C36.6818 35.1269 36.4376 35.1748 36.1967 35.2363L36.0704 35.3058C35.8984 35.4235 35.6991 35.4953 35.4914 35.5144Z" fill="#2D1F04"/>
<path d="M86.2991 53.996C85.914 53.9919 85.5423 53.8538 85.2482 53.6055C84.9542 53.3572 84.7561 53.0143 84.6882 52.6359C84.5968 52.1318 82.1718 40.1859 66.6247 41.307C66.4075 41.3237 66.1891 41.2974 65.9821 41.2296C65.7751 41.1618 65.5835 41.0539 65.4184 40.912C65.2533 40.7701 65.1179 40.5971 65.02 40.4028C64.922 40.2086 64.8635 39.997 64.8477 39.7801C64.832 39.5632 64.8593 39.3453 64.9281 39.139C64.9969 38.9327 65.1059 38.7419 65.2487 38.5778C65.3916 38.4136 65.5655 38.2792 65.7606 38.1823C65.9556 38.0854 66.1679 38.0279 66.3853 38.0131C76.02 37.3178 81.3751 41.1419 84.1701 44.4749C86.0184 46.6629 87.3129 49.262 87.9448 52.0535C87.9875 52.2913 87.9774 52.5354 87.9152 52.7688C87.8531 53.0022 87.7404 53.2191 87.5852 53.4043C87.4299 53.5896 87.2359 53.7385 87.0167 53.8408C86.7975 53.943 86.5585 53.996 86.3165 53.996H86.2991Z" fill="#2D1F04"/>
<g opacity="0.95">
<path d="M33.85 55.8211C33.7492 55.8197 33.6487 55.8095 33.5496 55.7907C33.1231 55.7055 32.7471 55.4564 32.5028 55.0971C32.2585 54.7378 32.1654 54.2971 32.2435 53.87C32.2958 53.6049 33.5148 47.2474 38.8263 42.854C41.8739 40.3467 45.605 38.9909 49.95 38.8344C50.3782 38.835 50.7895 39.0013 51.0974 39.2983C51.4053 39.5953 51.5858 39.9999 51.601 40.427C51.6163 40.8541 51.465 41.2705 51.179 41.5886C50.893 41.9067 50.4946 42.1017 50.0676 42.1327C46.4714 42.2674 43.4021 43.3625 40.9248 45.4005C36.5537 48.9856 35.4914 54.4175 35.4914 54.474C35.4182 54.8544 35.2141 55.1973 34.9144 55.4433C34.6146 55.6894 34.2381 55.823 33.85 55.8211Z" fill="#2D1F04"/>
</g>
<path d="M52.0355 55.9385C51.9832 54.826 54.1427 53.8135 56.8594 53.6788C59.5761 53.5441 61.8269 54.3393 61.8835 55.4518C61.9401 56.5643 59.7763 57.5724 57.0596 57.7071C54.3429 57.8419 52.0833 57.0597 52.0355 55.9385Z" fill="#251707"/>
<path d="M50.0763 82.2595C49.925 82.2595 49.78 82.1995 49.673 82.0927C49.566 81.986 49.506 81.8412 49.506 81.6902V80.6647C49.506 80.5137 49.566 80.3689 49.673 80.2621C49.78 80.1554 49.925 80.0954 50.0763 80.0954C50.2275 80.0954 50.3726 80.1554 50.4796 80.2621C50.5865 80.3689 50.6466 80.5137 50.6466 80.6647V81.6902C50.6466 81.8412 50.5865 81.986 50.4796 82.0927C50.3726 82.1995 50.2275 82.2595 50.0763 82.2595Z" fill="#2D1F04"/>
<path d="M34.3551 90.9419C34.2789 90.9426 34.2033 90.9278 34.133 90.8984C34.0636 90.8691 34.0007 90.8263 33.9479 90.7725C33.8951 90.7187 33.8536 90.655 33.8256 90.5851C33.7977 90.5152 33.7839 90.4404 33.7851 90.3652C33.7863 90.2899 33.8025 90.2156 33.8326 90.1466L34.2375 89.208C34.2665 89.1388 34.3089 89.0761 34.3624 89.0235C34.4159 88.9709 34.4793 88.9294 34.549 88.9015C34.6187 88.8736 34.6933 88.8598 34.7683 88.861C34.8434 88.8621 34.9175 88.8781 34.9864 88.9082C35.1248 88.9684 35.2339 89.0805 35.2901 89.2204C35.3463 89.3603 35.3451 89.5166 35.2868 89.6556L34.8819 90.5986C34.8365 90.7004 34.7627 90.787 34.6693 90.8479C34.5758 90.9088 34.4667 90.9414 34.3551 90.9419Z" fill="#2D1F04"/>
<path d="M96.7828 101.528C96.6558 101.527 96.5326 101.484 96.4331 101.405C96.3336 101.326 96.2636 101.216 96.2343 101.093L95.96 100.107C95.9348 100.033 95.9249 99.9555 95.9309 99.8781C95.9369 99.8007 95.9587 99.7254 95.9949 99.6568C96.0312 99.5881 96.0811 99.5276 96.1416 99.4789C96.2021 99.4302 96.272 99.3944 96.3469 99.3736C96.4218 99.3529 96.5002 99.3476 96.5772 99.3581C96.6542 99.3687 96.7282 99.3949 96.7947 99.435C96.8613 99.4752 96.9188 99.5285 96.964 99.5917C97.0091 99.6549 97.0408 99.7266 97.0571 99.8025L97.3314 100.789C97.3519 100.861 97.358 100.937 97.3491 101.011C97.3403 101.086 97.3168 101.158 97.28 101.223C97.2432 101.289 97.1938 101.346 97.1346 101.392C97.0754 101.439 97.0077 101.473 96.9352 101.493C96.8861 101.511 96.8349 101.522 96.7828 101.528Z" fill="#2D1F04"/>
<path d="M99.4647 100.85C99.3379 100.848 99.2151 100.805 99.1157 100.726C99.0164 100.648 98.9461 100.538 98.9161 100.415L98.6418 99.4288C98.6218 99.3566 98.6163 99.2811 98.6255 99.2068C98.6346 99.1325 98.6584 99.0607 98.6954 98.9955C98.7324 98.9303 98.7819 98.8731 98.841 98.827C98.9002 98.7809 98.9679 98.7469 99.0402 98.727C99.1125 98.707 99.1881 98.7014 99.2626 98.7106C99.337 98.7198 99.409 98.7435 99.4743 98.7804C99.5396 98.8173 99.5969 98.8667 99.6431 98.9258C99.6893 98.9848 99.7233 99.0524 99.7433 99.1246L100.018 100.111C100.037 100.183 100.043 100.259 100.033 100.333C100.024 100.407 99.9999 100.479 99.9627 100.544C99.9255 100.609 99.8758 100.666 99.8165 100.712C99.7572 100.757 99.6894 100.791 99.6171 100.811C99.5683 100.83 99.517 100.844 99.4647 100.85Z" fill="#2D1F04"/>
<path d="M76.5947 81.3469C76.4435 81.3469 76.2984 81.2869 76.1914 81.1801C76.0845 81.0734 76.0244 80.9286 76.0244 80.7776V79.7521C76.0244 79.6011 76.0845 79.4563 76.1914 79.3496C76.2984 79.2428 76.4435 79.1828 76.5947 79.1828C76.746 79.1828 76.891 79.2428 76.998 79.3496C77.105 79.4563 77.1651 79.6011 77.1651 79.7521V80.7776C77.1651 80.9286 77.105 81.0734 76.998 81.1801C76.891 81.2869 76.746 81.3469 76.5947 81.3469Z" fill="#2D1F04"/>
<path d="M72.6024 82.09C72.4511 82.09 72.306 82.03 72.1991 81.9233C72.0921 81.8165 72.032 81.6717 72.032 81.5207V80.4952C72.032 80.3442 72.0921 80.1994 72.1991 80.0926C72.306 79.9859 72.4511 79.9259 72.6024 79.9259C72.7536 79.9259 72.8987 79.9859 73.0057 80.0926C73.1126 80.1994 73.1727 80.3442 73.1727 80.4952V81.5207C73.1733 81.5956 73.1589 81.6699 73.1305 81.7392C73.102 81.8086 73.06 81.8715 73.0069 81.9245C72.9539 81.9775 72.8908 82.0194 72.8213 82.0478C72.7519 82.0762 72.6774 82.0906 72.6024 82.09Z" fill="#2D1F04"/>
<path d="M53.4852 82.6723C53.334 82.6723 53.1889 82.6123 53.0819 82.5055C52.975 82.3988 52.9149 82.254 52.9149 82.103V81.0774C52.9149 80.9265 52.975 80.7817 53.0819 80.6749C53.1889 80.5682 53.334 80.5082 53.4852 80.5082C53.6365 80.5082 53.7816 80.5682 53.8885 80.6749C53.9955 80.7817 54.0556 80.9265 54.0556 81.0774V82.103C54.0556 82.254 53.9955 82.3988 53.8885 82.5055C53.7816 82.6123 53.6365 82.6723 53.4852 82.6723Z" fill="#2D1F04"/>
<path d="M55.3965 82.8374C55.2452 82.8374 55.1002 82.7774 54.9932 82.6707C54.8863 82.5639 54.8262 82.4192 54.8262 82.2682V81.2426C54.8262 81.0916 54.8863 80.9468 54.9932 80.8401C55.1002 80.7333 55.2452 80.6733 55.3965 80.6733C55.5478 80.6733 55.6928 80.7333 55.7998 80.8401C55.9068 80.9468 55.9668 81.0916 55.9668 81.2426V82.2682C55.9668 82.4192 55.9068 82.5639 55.7998 82.6707C55.6928 82.7774 55.5478 82.8374 55.3965 82.8374Z" fill="#2D1F04"/>
<path d="M71.5923 50.0807L71.2092 50.0416L71.5923 50.0807Z" fill="#2D1F04"/>
<path d="M43.4543 48.4902C44.7464 48.4856 45.9877 48.9926 46.9059 49.9001C47.824 50.8076 48.3442 52.0414 48.3522 53.3312V53.6484C48.3142 54.9191 47.7818 56.1252 46.8678 57.0106C45.9538 57.8961 44.7302 58.3914 43.4565 58.3914C42.1828 58.3914 40.9591 57.8961 40.0451 57.0106C39.1312 56.1252 38.5987 54.9191 38.5607 53.6484V53.3312C38.5677 52.0418 39.0868 50.808 40.0043 49.9004C40.9218 48.9928 42.1626 48.4856 43.4543 48.4902Z" fill="white"/>
<path d="M43.4543 59.0803C42.0113 59.0815 40.6265 58.5119 39.6033 57.4963C38.5801 56.4807 38.0017 55.1018 37.9948 53.6614V53.3312C38.0349 51.912 38.6279 50.5644 39.6478 49.5747C40.6677 48.5851 42.0341 48.0314 43.4565 48.0314C44.8789 48.0314 46.2452 48.5851 47.2651 49.5747C48.285 50.5644 48.8781 51.912 48.9182 53.3312V53.6484C48.9147 55.0917 48.3373 56.4747 47.3127 57.4932C46.2882 58.5118 44.9004 59.0826 43.4543 59.0803ZM43.4543 49.0551C42.3111 49.0528 41.2137 49.503 40.4025 50.307C39.5912 51.111 39.1325 52.2032 39.1267 53.3442V53.6614C39.1624 54.7839 39.6342 55.8484 40.4423 56.6299C41.2504 57.4113 42.3314 57.8482 43.4565 57.8482C44.5816 57.8482 45.6626 57.4113 46.4707 56.6299C47.2788 55.8484 47.7506 54.7839 47.7862 53.6614V53.3312C47.777 52.1917 47.3162 51.1021 46.5044 50.3008C45.6926 49.4995 44.596 49.0517 43.4543 49.0551Z" fill="#2D1F04"/>
<path d="M75.441 47.934C76.0817 47.9317 76.7166 48.0555 77.3093 48.2982C77.9021 48.541 78.4411 48.8979 78.8956 49.3487C79.35 49.7995 79.7111 50.3353 79.958 50.9254C80.2049 51.5155 80.3328 52.1484 80.3345 52.788V53.1052C80.3345 54.4006 79.819 55.643 78.9013 56.559C77.9835 57.475 76.7388 57.9896 75.441 57.9896C74.1431 57.9896 72.8984 57.475 71.9807 56.559C71.063 55.643 70.5474 54.4006 70.5474 53.1052V52.788C70.5491 52.1484 70.6771 51.5155 70.924 50.9254C71.1709 50.3353 71.5319 49.7995 71.9864 49.3487C72.4408 48.8979 72.9799 48.541 73.5726 48.2982C74.1654 48.0555 74.8003 47.9317 75.441 47.934Z" fill="white"/>
<path d="M75.441 58.5458C73.9976 58.5482 72.6122 57.9789 71.5887 56.9631C70.5652 55.9472 69.9872 54.5676 69.9814 53.127V52.8097C69.9814 51.3645 70.5566 49.9784 71.5805 48.9565C72.6044 47.9345 73.993 47.3604 75.441 47.3604C76.889 47.3604 78.2776 47.9345 79.3015 48.9565C80.3253 49.9784 80.9005 51.3645 80.9005 52.8097V53.127C80.8948 54.5676 80.3168 55.9472 79.2933 56.9631C78.2698 57.9789 76.8844 58.5482 75.441 58.5458ZM75.441 48.5207C74.2978 48.5184 73.2003 48.9685 72.3891 49.7725C71.5779 50.5765 71.1192 51.6687 71.1134 52.8097V53.127C71.1491 54.2494 71.6209 55.314 72.429 56.0954C73.2371 56.8768 74.318 57.3137 75.4432 57.3137C76.5683 57.3137 77.6493 56.8768 78.4574 56.0954C79.2655 55.314 79.7373 54.2494 79.7729 53.127V52.8097C79.7723 52.2427 79.6598 51.6813 79.4418 51.1577C79.2237 50.6341 78.9044 50.1586 78.5021 49.7582C78.0997 49.3579 77.6223 49.0406 77.0971 48.8245C76.5718 48.6084 76.0091 48.4978 75.441 48.4989V48.5207Z" fill="#2D1F04"/>
<path d="M56.7853 61.4747C55.5402 61.4747 54.6346 60.7533 54.5084 59.6278C54.5003 59.5539 54.507 59.4792 54.5279 59.4079C54.5489 59.3365 54.5837 59.27 54.6304 59.2121C54.6771 59.1542 54.7347 59.106 54.8001 59.0704C54.8654 59.0347 54.9372 59.0122 55.0112 59.0043C55.0852 58.9963 55.1601 59.0029 55.2316 59.0238C55.3031 59.0447 55.3697 59.0795 55.4277 59.1261C55.4857 59.1727 55.534 59.2302 55.5697 59.2954C55.6054 59.3607 55.628 59.4323 55.636 59.5062C55.7274 60.3449 56.633 60.3753 56.9116 60.3449C57.5516 60.3058 58.2438 59.9538 58.2395 59.4497C58.2395 59.3006 58.2985 59.1576 58.4037 59.0518C58.5089 58.9459 58.6518 58.8859 58.8011 58.8848C58.9505 58.8848 59.0938 58.9437 59.1998 59.0487C59.3058 59.1537 59.3659 59.2963 59.3671 59.4453C59.3671 60.6708 58.135 61.4052 56.9725 61.4703L56.7853 61.4747Z" fill="#2D1F04"/>
<path d="M30.1712 89.9555C29.915 89.9463 29.6638 89.8822 29.4346 89.7674C29.2055 89.6527 29.0038 89.4901 28.8433 89.2906C28.3165 88.6474 28.1946 87.6479 28.4732 86.3226C29.4006 81.977 31.2465 78.7352 33.9632 76.7189C35.7843 75.3465 37.9987 74.594 40.2805 74.5722C40.4317 74.5722 40.5768 74.6322 40.6838 74.7389C40.7907 74.8457 40.8508 74.9905 40.8508 75.1415C40.8508 75.2924 40.7907 75.4373 40.6838 75.544C40.5768 75.6508 40.4317 75.7107 40.2805 75.7107C38.3126 75.7107 31.7254 76.4929 29.5921 86.5746C29.3919 87.5045 29.4354 88.2172 29.714 88.5735C29.7691 88.6471 29.839 88.7084 29.9192 88.7533C29.9995 88.7982 30.0883 88.8258 30.1799 88.8343C30.3296 88.841 30.4709 88.9055 30.5741 89.0141C30.6772 89.1227 30.7341 89.267 30.7328 89.4166C30.7305 89.5641 30.6705 89.705 30.5655 89.8089C30.4606 89.9129 30.319 89.9717 30.1712 89.9728V89.9555Z" fill="#2D1F04"/>
<path d="M61.4438 81.6424C54.8567 81.6424 47.7166 80.4951 40.829 77.1969C40.7616 77.1643 40.7012 77.1189 40.6513 77.0631C40.6015 77.0072 40.5631 76.9422 40.5384 76.8715C40.5138 76.8009 40.5033 76.7262 40.5076 76.6515C40.5119 76.5768 40.5309 76.5037 40.5634 76.4364C40.596 76.3691 40.6416 76.3088 40.6975 76.259C40.7534 76.2093 40.8186 76.171 40.8894 76.1464C40.9601 76.1218 41.0351 76.1113 41.1099 76.1156C41.1847 76.1199 41.2579 76.1388 41.3253 76.1713C63.2114 86.6528 87.7663 74.8677 88.0101 74.7329C88.0773 74.6999 88.1503 74.6803 88.2251 74.6754C88.2999 74.6704 88.3749 74.6803 88.4458 74.7043C88.5168 74.7283 88.5823 74.766 88.6386 74.8153C88.695 74.8646 88.741 74.9244 88.7742 74.9915C88.8074 75.0585 88.827 75.1315 88.8319 75.2061C88.8368 75.2807 88.827 75.3556 88.8029 75.4264C88.7789 75.4972 88.7411 75.5626 88.6917 75.6188C88.6423 75.6751 88.5823 75.721 88.5151 75.7541C88.341 75.8411 76.2812 81.6424 61.4438 81.6424Z" fill="#2D1F04"/>
<path d="M53.1239 136.227C53.0176 136.227 52.9134 136.198 52.8227 136.143C52.732 136.088 52.6584 136.008 52.6101 135.914C51.2083 133.115 51.5957 125.645 54.1992 120.218C60.7298 106.577 75.2668 110.692 83.0774 112.9C85.1018 113.474 86.852 113.969 87.6009 113.886C88.2708 113.836 88.9221 113.643 89.5104 113.319C90.0987 112.995 90.6101 112.548 91.0098 112.009C93.1562 109.067 92.1157 103.753 92.1026 103.674C92.0731 103.526 92.1038 103.373 92.1879 103.247C92.272 103.122 92.4026 103.034 92.551 103.005C92.6994 102.976 92.8534 103.006 92.9791 103.09C93.1049 103.174 93.1921 103.305 93.2215 103.453C93.2694 103.687 94.3752 109.328 91.9154 112.678C91.4292 113.348 90.8042 113.905 90.0831 114.312C89.3619 114.72 88.5613 114.967 87.7358 115.038C86.7649 115.151 85.0931 114.673 82.777 114.017C74.7618 111.753 61.3567 107.933 55.2354 120.731C52.8104 125.793 52.3794 132.898 53.642 135.427C53.7086 135.563 53.7191 135.719 53.671 135.862C53.6229 136.005 53.5202 136.124 53.3851 136.192C53.3018 136.223 53.2125 136.235 53.1239 136.227Z" fill="#2D1F04"/>
<path d="M92.6642 104.248C92.6019 104.248 92.5401 104.238 92.4813 104.218C90.4482 103.54 90.7399 102.214 90.9401 101.15C91.0768 100.633 91.1225 100.096 91.0751 99.5635C90.7268 97.1256 89.769 94.6791 88.846 92.3107C88.4106 91.1896 87.9753 90.0293 87.5791 88.8864C87.55 88.8144 87.5359 88.7372 87.5378 88.6596C87.5397 88.582 87.5575 88.5055 87.5901 88.435C87.6227 88.3645 87.6694 88.3014 87.7273 88.2495C87.7853 88.1977 87.8532 88.1583 87.927 88.1336C88.0008 88.109 88.0788 88.0997 88.1563 88.1062C88.2339 88.1128 88.3092 88.1352 88.3778 88.1719C88.4463 88.2086 88.5066 88.259 88.5549 88.3198C88.6033 88.3807 88.6386 88.4508 88.6588 88.5258C89.0332 89.6426 89.4773 90.7854 89.9127 91.8936C90.8574 94.3271 91.837 96.8388 92.2071 99.4027C92.2757 100.066 92.2241 100.735 92.0547 101.38C91.8414 102.427 91.7673 102.779 92.8427 103.118C92.9735 103.159 93.0851 103.245 93.1572 103.362C93.2293 103.478 93.2571 103.616 93.2354 103.751C93.2137 103.886 93.1441 104.009 93.0392 104.097C92.9343 104.185 92.8012 104.232 92.6642 104.231V104.248Z" fill="#2D1F04"/>
<path d="M62.2667 85.523C54.5084 85.523 47.0548 84.0064 42.3311 81.7293C40.6375 80.9124 40.7724 79.9086 40.8943 79.0221C41.0029 78.4901 41.0029 77.9418 40.8943 77.4099C40.8769 77.3371 40.874 77.2616 40.8858 77.1877C40.8976 77.1139 40.9238 77.043 40.963 76.9793C41.0422 76.8505 41.1694 76.7584 41.3167 76.7233C41.4639 76.6881 41.6191 76.7128 41.7481 76.7918C41.8771 76.8709 41.9693 76.9978 42.0045 77.1448C42.1523 77.8135 42.1642 78.5051 42.0394 79.1785C41.9305 79.9998 41.8957 80.2475 42.8448 80.7038C50.1764 84.2411 65.0487 85.9184 76.3161 82.442C76.3888 82.4151 76.4663 82.4033 76.5438 82.4073C76.6213 82.4113 76.6971 82.4311 76.7667 82.4654C76.8363 82.4997 76.8981 82.5478 76.9484 82.6067C76.9987 82.6657 77.0364 82.7343 77.0593 82.8083C77.0821 82.8823 77.0896 82.9601 77.0812 83.0371C77.0729 83.1141 77.0488 83.1886 77.0107 83.256C76.9725 83.3234 76.9209 83.3824 76.8591 83.4292C76.7973 83.476 76.7266 83.5098 76.6513 83.5284C71.9809 84.8964 67.1338 85.5685 62.2667 85.523Z" fill="#2D1F04"/>
<path d="M52.6842 126.336C52.6466 126.341 52.6086 126.341 52.571 126.336C52.425 126.304 52.2976 126.216 52.2162 126.091C52.1347 125.965 52.1058 125.813 52.1356 125.667C53.6376 118.301 50.6684 116.863 47.2246 115.203C43.1234 113.222 38.4737 110.975 42.392 98.0382C42.4359 97.8935 42.5355 97.7722 42.669 97.7009C42.8025 97.6296 42.9589 97.6141 43.1038 97.6579C43.2488 97.7017 43.3703 97.8012 43.4417 97.9344C43.5132 98.0677 43.5287 98.2238 43.4848 98.3684C39.8451 110.375 43.672 112.222 47.7209 114.178C51.2649 115.89 54.935 117.654 53.2545 125.911C53.222 126.036 53.1478 126.146 53.0441 126.223C52.9405 126.301 52.8135 126.341 52.6842 126.336Z" fill="#2D1F04"/>
<path d="M51.9963 160.666C51.7783 160.661 51.5659 160.597 51.3824 160.479C48.7267 158.858 43.8287 149.989 40.3675 142.072C38.1907 137.052 33.2623 124.837 34.9559 119.757C35.0038 119.614 35.1069 119.495 35.2424 119.427C35.3779 119.36 35.5348 119.349 35.6786 119.397C35.8224 119.444 35.9412 119.547 36.009 119.682C36.0767 119.818 36.0879 119.974 36.04 120.118C34.9646 123.334 37.0239 131.573 41.4124 141.615C45.2219 150.306 49.8368 158.154 51.944 159.489C52.5057 158.58 52.3098 153.296 52.1051 147.712C51.944 143.367 51.7438 137.952 51.7438 132.016C51.7438 131.865 51.8039 131.72 51.9108 131.613C52.0178 131.507 52.1628 131.447 52.3141 131.447C52.4654 131.447 52.6104 131.507 52.7174 131.613C52.8244 131.72 52.8844 131.865 52.8844 132.016C52.8844 137.93 53.0847 143.314 53.2458 147.66C53.5767 156.69 53.6333 159.827 52.4795 160.523C52.3342 160.613 52.1673 160.662 51.9963 160.666Z" fill="#2D1F04"/>
<path d="M98.7246 165.607C98.6025 165.608 98.4834 165.57 98.3848 165.498C98.2861 165.426 98.2132 165.325 98.1766 165.208C98.1401 165.092 98.1419 164.967 98.1817 164.852C98.2216 164.737 98.2974 164.637 98.398 164.568L101.385 162.47L103.997 131.064C104.014 130.918 104.087 130.783 104.201 130.69C104.316 130.596 104.462 130.55 104.609 130.562C104.757 130.574 104.894 130.642 104.991 130.753C105.089 130.864 105.14 131.008 105.133 131.156L102.521 162.83C102.515 162.916 102.49 163 102.448 163.075C102.406 163.15 102.347 163.215 102.277 163.265L99.0555 165.503C98.9587 165.571 98.843 165.607 98.7246 165.607Z" fill="#2D1F04"/>
<path d="M78.4015 174.737C78.2834 174.738 78.1679 174.703 78.0711 174.635C77.9743 174.568 77.9011 174.472 77.8617 174.36C77.8224 174.249 77.8188 174.129 77.8516 174.015C77.8844 173.902 77.9518 173.802 78.0445 173.729L80.3824 171.83C81.2967 158.715 82.6159 139.238 82.6028 137.657C82.5732 137.54 82.5808 137.417 82.6246 137.305C82.6767 137.177 82.7719 137.072 82.8937 137.008C83.0154 136.944 83.1559 136.924 83.2907 136.953C83.8262 137.079 83.8262 137.079 83.4605 142.971C83.2863 145.844 83.0251 149.846 82.6855 154.869C82.1065 163.517 81.5013 172.156 81.5013 172.156C81.4952 172.234 81.4736 172.31 81.4377 172.379C81.4018 172.448 81.3524 172.51 81.2924 172.56L78.7629 174.611C78.6609 174.694 78.533 174.739 78.4015 174.737Z" fill="#2D1F04"/>
<path d="M43.0364 98.7247C42.947 98.7258 42.8588 98.7049 42.7795 98.6639C39.1485 96.8518 40.1324 91.9066 40.9205 87.9304C41.1994 86.7495 41.3785 85.5474 41.456 84.3366C41.456 84.1856 41.5161 84.0408 41.623 83.9341C41.73 83.8273 41.875 83.7673 42.0263 83.7673C42.1776 83.7673 42.3226 83.8273 42.4296 83.9341C42.5365 84.0408 42.5966 84.1856 42.5966 84.3366C42.523 85.6222 42.3365 86.8989 42.0394 88.152C41.3254 91.7501 40.4372 96.2217 43.2889 97.647C43.4032 97.7045 43.4948 97.7987 43.549 97.9144C43.6032 98.0301 43.6169 98.1607 43.5877 98.2851C43.5586 98.4095 43.4883 98.5205 43.3883 98.6002C43.2883 98.68 43.1644 98.7238 43.0364 98.7247Z" fill="#2D1F04"/>
<path d="M62.4277 123.125C62.2959 123.124 62.1683 123.078 62.0664 122.995C59.8329 121.174 58.91 120.631 55.6447 119.892C55.5671 119.88 55.4927 119.853 55.4261 119.812C55.3596 119.77 55.3023 119.716 55.2579 119.651C55.2135 119.587 55.1829 119.514 55.168 119.437C55.1531 119.36 55.1542 119.281 55.1713 119.205C55.1884 119.128 55.2211 119.056 55.2674 118.993C55.3136 118.93 55.3725 118.877 55.4402 118.837C55.5079 118.798 55.5831 118.773 55.6609 118.763C55.7388 118.754 55.8178 118.761 55.8928 118.784C59.3236 119.553 60.3859 120.153 62.7891 122.112C62.8812 122.187 62.948 122.287 62.9801 122.401C63.0123 122.515 63.0082 122.636 62.9685 122.747C62.9288 122.858 62.8554 122.954 62.7585 123.022C62.6617 123.09 62.5461 123.126 62.4277 123.125Z" fill="#2D1F04"/>
<path d="M52.9062 134.41C52.8642 134.415 52.8219 134.415 52.7799 134.41C52.7063 134.394 52.6365 134.364 52.5747 134.321C52.5129 134.278 52.4602 134.223 52.4197 134.16C52.3793 134.096 52.3518 134.026 52.3389 133.952C52.326 133.877 52.3279 133.801 52.3446 133.728C53.4548 128.818 54.6564 124.411 58.0958 120.218C58.1393 120.15 58.1968 120.091 58.2645 120.047C58.3322 120.003 58.4086 119.974 58.4886 119.961C58.5686 119.948 58.6503 119.953 58.7283 119.974C58.8064 119.996 58.879 120.034 58.9413 120.085C59.0036 120.137 59.0542 120.201 59.0897 120.274C59.1251 120.346 59.1447 120.426 59.1471 120.507C59.1495 120.587 59.1346 120.668 59.1035 120.742C59.0724 120.817 59.0257 120.884 58.9666 120.939C55.6795 124.95 54.565 129.044 53.4504 133.976C53.4206 134.098 53.351 134.207 53.2525 134.286C53.1541 134.364 53.0323 134.408 52.9062 134.41Z" fill="#2D1F04"/>
<path d="M47.6252 121.908C47.5099 121.91 47.3971 121.875 47.303 121.808C47.2408 121.766 47.1876 121.713 47.1464 121.65C47.1053 121.587 47.077 121.517 47.0632 121.444C47.0494 121.37 47.0505 121.295 47.0662 121.221C47.082 121.148 47.1121 121.079 47.155 121.017C48.4611 119.101 51.3606 118.675 52.2096 118.588C52.2843 118.58 52.36 118.586 52.4322 118.608C52.5044 118.629 52.5716 118.664 52.63 118.711C52.6883 118.759 52.7367 118.817 52.7721 118.883C52.8076 118.949 52.8295 119.022 52.8365 119.097C52.85 119.247 52.8037 119.397 52.7077 119.514C52.6116 119.631 52.4734 119.706 52.3228 119.722C51.5957 119.792 49.1359 120.157 48.0954 121.665C48.0425 121.74 47.9722 121.802 47.8903 121.844C47.8084 121.887 47.7174 121.909 47.6252 121.908Z" fill="#2D1F04"/>
<path d="M52.5492 130.999C52.4216 130.999 52.2978 130.956 52.1976 130.877C52.0974 130.798 52.0265 130.688 51.9963 130.565C51.7239 129.359 51.5132 128.141 51.365 126.914C51.0385 124.524 50.6989 122.047 49.4276 120.04C49.3468 119.912 49.3202 119.757 49.3536 119.609C49.3871 119.462 49.4779 119.334 49.6061 119.253C49.7343 119.172 49.8893 119.146 50.0371 119.179C50.1849 119.213 50.3133 119.303 50.3941 119.431C51.796 121.648 52.1356 124.25 52.497 126.762C52.6376 127.95 52.8411 129.129 53.1065 130.295C53.1238 130.369 53.1262 130.445 53.1136 130.52C53.101 130.594 53.0737 130.666 53.0331 130.73C52.9926 130.794 52.9397 130.849 52.8776 130.892C52.8154 130.935 52.7452 130.966 52.6711 130.982C52.6313 130.992 52.5904 130.998 52.5492 130.999Z" fill="#2D1F04"/>
<path d="M63.1635 146.726C63.1215 146.73 63.0792 146.73 63.0373 146.726C61.126 146.291 59.0798 146.343 57.0988 146.391C56.4066 146.391 55.7187 146.426 55.0352 146.421C54.8839 146.421 54.7388 146.361 54.6319 146.255C54.5249 146.148 54.4648 146.003 54.4648 145.852C54.4648 145.701 54.5249 145.556 54.6319 145.45C54.7388 145.343 54.8839 145.283 55.0352 145.283C55.0786 145.279 55.1223 145.279 55.1658 145.283C55.7971 145.283 56.4327 145.283 57.0727 145.252C59.1189 145.205 61.2392 145.153 63.2898 145.613C63.4277 145.643 63.5496 145.723 63.6319 145.837C63.7142 145.952 63.751 146.093 63.7353 146.233C63.7196 146.373 63.6525 146.502 63.5468 146.595C63.4412 146.689 63.3047 146.74 63.1635 146.739V146.726Z" fill="#2D1F04"/>
<path d="M55.845 159.362C55.6976 159.363 55.5556 159.307 55.4488 159.206C55.1309 158.898 54.652 158.437 56.2107 152.227C56.9595 149.242 57.8346 146.304 57.9521 145.996C57.974 145.924 58.0098 145.857 58.0577 145.8C58.1055 145.742 58.1644 145.694 58.2308 145.66C58.2972 145.625 58.3699 145.604 58.4447 145.597C58.5194 145.591 58.5947 145.599 58.6661 145.622C58.8104 145.667 58.9309 145.767 59.0011 145.901C59.0714 146.034 59.0855 146.19 59.0406 146.335C58.0784 149.376 55.9538 157.337 56.3064 158.441C56.372 158.524 56.413 158.624 56.425 158.729C56.437 158.834 56.4194 158.941 56.3741 159.036C56.3289 159.132 56.2579 159.213 56.1691 159.271C56.0802 159.328 55.977 159.36 55.8711 159.362H55.845Z" fill="#2D1F04"/>
<path d="M44.3425 148.142C44.2005 148.14 44.0643 148.086 43.9605 147.989C43.8568 147.892 43.793 147.76 43.7815 147.619C43.7701 147.478 43.8119 147.337 43.8987 147.225C43.9856 147.113 44.1112 147.037 44.251 147.013C45.1195 146.844 45.9749 146.615 46.811 146.326C48.7441 145.709 50.7293 145.074 52.6754 145.678C52.8198 145.724 52.9401 145.825 53.0099 145.959C53.0797 146.093 53.0933 146.249 53.0477 146.393C53.0021 146.537 52.901 146.657 52.7667 146.727C52.6324 146.797 52.4758 146.81 52.3315 146.765C50.7468 146.269 48.9226 146.847 47.1549 147.412C46.2727 147.719 45.369 147.96 44.4513 148.134L44.3425 148.142Z" fill="#2D1F04"/>
<path d="M52.1965 160.462C52.0506 160.462 51.9102 160.406 51.8047 160.305C50.0632 158.645 48.6613 154.222 47.451 146.76C47.4393 146.686 47.4423 146.611 47.4598 146.538C47.4773 146.466 47.509 146.397 47.553 146.336C47.5971 146.276 47.6527 146.225 47.7166 146.185C47.7805 146.146 47.8515 146.12 47.9256 146.109C47.9996 146.097 48.0752 146.1 48.1481 146.117C48.221 146.135 48.2897 146.166 48.3504 146.21C48.411 146.254 48.4624 146.31 48.5015 146.374C48.5407 146.437 48.5669 146.508 48.5786 146.582C50.0023 155.425 51.5435 158.48 52.584 159.484C52.6654 159.563 52.7214 159.664 52.7448 159.775C52.7683 159.886 52.758 160.001 52.7155 160.106C52.673 160.211 52.6001 160.301 52.5061 160.364C52.4121 160.428 52.3013 160.462 52.1878 160.462H52.1965Z" fill="#2D1F04"/>
<path d="M140.886 56.8771C140.699 56.3165 139.972 55.5083 140.429 55.052L140.886 56.8771Z" fill="#FFDB1F"/>
<g style="mix-blend-mode:lighten">
<path d="M53.581 98.6031H53.8205C57.4254 98.6031 60.351 99.2767 60.351 100.102C60.351 100.928 57.4297 101.606 53.8205 101.606H53.581C49.9762 101.606 47.0505 100.932 47.0505 100.102C47.0505 99.2723 49.9762 98.6031 53.581 98.6031Z" fill="#FCBC3D"/>
</g>
<g style="mix-blend-mode:lighten">
<path d="M67.3518 26.0846C68.3052 26.8755 96.8264 37.118 95.3069 72.947C95.3069 73.2121 97.4533 73.651 97.4533 73.1382C97.3173 68.6409 96.9263 64.1549 96.2821 59.7017C93.9529 47.4212 86.4558 32.9766 67.3518 26.0846Z" fill="#FCBC3D"/>
</g>
<g style="mix-blend-mode:lighten">
<path d="M97.6928 73.5945C118.591 89.4427 118.003 133.072 95.5159 132.042C98.9031 133.228 99.8174 132.477 100.17 132.416C115.739 129.309 116.074 107.06 112.156 95.3309C111.903 94.5748 113.793 94.653 113.436 93.4145C112.848 91.3591 110.114 85.4013 109.23 83.5501C105.381 75.4935 99.0555 73.8683 97.6928 73.5945Z" fill="#FCBC3D"/>
</g>
<g style="mix-blend-mode:lighten">
<path d="M79.4072 125.467C79.4072 125.467 68.1311 126.236 58.3396 156.06L58.3004 156.19C57.9028 157.393 57.5095 158.644 57.1206 159.945C73.299 122.643 81.6407 126.888 81.6407 126.888L79.4072 125.467Z" fill="#FCBC3D"/>
</g>
<g style="mix-blend-mode:lighten">
<path d="M28.421 94.7659C26.5097 105.065 24.7943 109.106 25.6172 114.855C25.9785 117.367 26.9233 120.891 29.4397 121.721C29.6484 121.778 29.8608 121.82 30.0754 121.847C29.5924 121.789 29.1203 121.661 28.6735 121.469C27.0234 120.479 24.864 118.075 24.4722 116.129C23.3446 110.51 25.2341 102.266 28.421 94.7659Z" fill="#FCBC3D"/>
</g>
<g style="mix-blend-mode:lighten">
<path d="M116.166 37.861C116.479 42.0805 109.844 81.512 109.295 83.637C108.904 85.1492 108.899 85.0928 110.127 84.48C110.253 84.4148 110.227 82.0769 110.266 81.7684C110.615 78.9786 118.913 38.2912 118.817 38.0044C118.721 37.7176 116.144 37.5655 116.166 37.861Z" fill="#FCBC3D"/>
</g>
<g style="mix-blend-mode:lighten">
<path d="M75.8154 139.073L77.3392 174.203L77.5656 139.156L77.4393 128.761L74.9359 129.691L75.8154 139.073Z" fill="#FCBC3D"/>
</g>
<g style="mix-blend-mode:lighten">
<path d="M97.1311 133.906L97.7232 166.376L98.9031 133.611L98.8508 133.22L97.1311 134.054V133.906Z" fill="#FCBC3D"/>
</g>
<g style="mix-blend-mode:lighten">
<path d="M32.3262 125.693L33.1143 138.287L34.9864 138.682L40.2892 173.22L33.5714 139.264L31.8386 138.456L31.0637 125.472" fill="#FCBC3D"/>
</g>
<path d="M53.2371 137.022C53.0858 137.022 52.9408 136.962 52.8338 136.855C52.7268 136.749 52.6667 136.604 52.6667 136.453C52.6667 135.149 55.1353 127.653 60.068 123.607C63.0416 121.174 66.3983 120.309 70.0424 121.039C73.3077 121.691 77.3261 123.803 81.5753 126.041C89.1247 130.008 97.684 134.506 103.148 131.095C105.908 129.357 119.322 119.557 111.995 95.5655C111.968 95.4929 111.956 95.4156 111.96 95.3382C111.964 95.2609 111.984 95.1852 112.018 95.1158C112.052 95.0463 112.101 94.9846 112.16 94.9344C112.219 94.8842 112.287 94.8465 112.362 94.8237C112.436 94.8009 112.514 94.7935 112.591 94.8018C112.668 94.8102 112.743 94.8341 112.81 94.8723C112.878 94.9104 112.937 94.9618 112.984 95.0235C113.031 95.0852 113.064 95.1558 113.083 95.2309C120.659 120.001 106.64 130.26 103.753 132.059C97.7232 135.818 88.8634 131.16 81.0442 127.049C76.869 124.85 72.9245 122.773 69.816 122.156C66.5246 121.495 63.4901 122.282 60.7908 124.489C55.9451 128.453 53.7987 135.701 53.7987 136.453C53.7987 136.602 53.7398 136.746 53.6348 136.852C53.5297 136.959 53.3868 137.02 53.2371 137.022Z" fill="#2D1F04"/>
<path d="M112.117 96.3086C112.041 96.3089 111.966 96.2941 111.897 96.265C111.827 96.2359 111.764 96.1931 111.712 96.1391C111.324 95.7524 111.668 95.3222 111.855 95.0875C112.217 94.653 112.892 93.7838 112.591 92.8452C109.465 82.9417 101.933 72.9078 94.1097 73.8247C92.5815 74.0029 87.5007 74.8981 86.2077 78.8829C86.1883 78.9581 86.1538 79.0285 86.1062 79.0899C86.0586 79.1513 85.9989 79.2023 85.9308 79.2398C85.8628 79.2773 85.7877 79.3005 85.7103 79.308C85.6329 79.3155 85.5548 79.3071 85.4808 79.2834C85.4068 79.2596 85.3384 79.221 85.2799 79.1699C85.2213 79.1188 85.1739 79.0564 85.1404 78.9863C85.107 78.9162 85.0882 78.8401 85.0853 78.7625C85.0824 78.685 85.0955 78.6077 85.1236 78.5353C86.6256 73.9073 92.2767 72.8861 93.9747 72.6992C97.893 72.2647 101.925 74.1333 105.677 78.1703C109.073 81.8205 111.916 86.9135 113.68 92.5106C114.163 94.0315 113.17 95.2744 112.743 95.8045L112.661 95.9088C112.634 95.9983 112.585 96.0792 112.517 96.1435C112.465 96.1963 112.402 96.2381 112.334 96.2665C112.265 96.2949 112.191 96.3092 112.117 96.3086ZM112.521 95.3395C112.54 95.3563 112.556 95.3753 112.569 95.396L112.521 95.3395Z" fill="#2D1F04"/>
<g style="mix-blend-mode:multiply">
<path d="M97.4315 73.564C97.281 73.5617 97.1375 73.5002 97.0323 73.3927C96.9271 73.2853 96.8687 73.1407 96.8699 72.9904C97.1877 45.9829 81.5754 31.1211 68.1094 26.6017C68.0382 26.578 67.9724 26.5406 67.9157 26.4915C67.859 26.4424 67.8125 26.3827 67.779 26.3157C67.7454 26.2488 67.7254 26.1758 67.7201 26.1011C67.7148 26.0264 67.7243 25.9514 67.748 25.8804C67.7717 25.8093 67.8092 25.7436 67.8584 25.687C67.9076 25.6305 67.9674 25.5841 68.0345 25.5506C68.1016 25.5171 68.1747 25.4972 68.2495 25.4919C68.3244 25.4865 68.3995 25.496 68.4707 25.5197C78.3188 28.8266 86.2686 35.6969 91.467 45.3875C95.7989 53.4659 98.1238 63.2694 97.9975 73.0035C97.9953 73.1522 97.9348 73.2941 97.829 73.3989C97.7232 73.5036 97.5805 73.5629 97.4315 73.564Z" fill="#2D1F04"/>
</g>
<path d="M73.1509 28.6181C73.0646 28.6169 72.9798 28.5961 72.9028 28.5572C71.1582 27.7525 69.3602 27.0687 67.5216 26.5105C66.3287 26.115 65.0922 25.7065 63.8732 25.2285C63.5031 25.0851 61.6049 24.3594 60.3423 23.9249C60.4338 24.0205 60.5339 24.1117 60.6297 24.203C60.7166 24.2817 60.777 24.3854 60.8027 24.4997C60.8284 24.614 60.8182 24.7335 60.7734 24.8418C60.7264 24.95 60.6475 25.0413 60.5471 25.1034C60.4467 25.1656 60.3297 25.1956 60.2117 25.1894C59.9195 25.1765 59.6285 25.1431 59.341 25.0895C58.8316 24.9765 58.3179 24.8939 57.7736 24.8113C57.2294 24.7288 56.6025 24.6245 56.0104 24.4854C54.0588 24.0646 52.1737 23.3804 50.4072 22.4517C50.1128 22.2654 49.8607 22.0197 49.667 21.7304L49.6322 21.6869C49.4015 22.5777 50.0676 23.9509 50.503 24.7853L50.5944 24.9721C50.6275 25.0392 50.6472 25.1121 50.6521 25.1867C50.657 25.2613 50.6472 25.3362 50.6231 25.407C50.5991 25.4778 50.5613 25.5432 50.5119 25.5995C50.4625 25.6557 50.4025 25.7017 50.3353 25.7348C50.2682 25.7679 50.1951 25.7874 50.1204 25.7924C50.0456 25.7973 49.9706 25.7875 49.8997 25.7634C49.8287 25.7394 49.7632 25.7017 49.7068 25.6524C49.6505 25.6031 49.6044 25.5433 49.5713 25.4762L49.4798 25.2937C48.9226 24.1769 48.0823 22.4865 48.6091 21.1394C48.789 20.8161 49.062 20.5542 49.3928 20.3876C49.475 20.3545 49.5634 20.3393 49.652 20.343C49.7406 20.3468 49.8274 20.3694 49.9065 20.4093C50.1728 20.5659 50.3981 20.7834 50.5639 21.0438C50.669 21.1994 50.7984 21.3373 50.947 21.4522C52.6242 22.3262 54.4104 22.9736 56.2586 23.3773C56.8115 23.5077 57.3862 23.599 57.9434 23.6859C58.2221 23.7293 58.5094 23.7728 58.7924 23.8249C58.65 23.6009 58.5815 23.338 58.5965 23.0731C58.6155 22.9462 58.6651 22.8257 58.7409 22.7221C58.8167 22.6184 58.9166 22.5346 59.0319 22.4778C59.2365 22.3735 59.4324 22.2735 64.2563 24.1769C65.4449 24.6462 66.6639 25.046 67.8438 25.4371C69.7312 26.0136 71.5771 26.7177 73.3686 27.5447C73.4854 27.6009 73.5795 27.6951 73.6354 27.8117C73.6914 27.9284 73.7058 28.0606 73.6764 28.1866C73.647 28.3126 73.5755 28.4249 73.4737 28.5048C73.3718 28.5848 73.2457 28.6279 73.1161 28.6267L73.1509 28.6181Z" fill="#2D1F04"/>
<path d="M52.1835 131.773C52.0668 131.772 51.953 131.736 51.8573 131.669C51.7617 131.602 51.6887 131.508 51.648 131.399C48.9704 124.203 46.1623 120.144 43.0668 118.992C40.3066 117.967 37.7074 119.397 35.191 120.778C33.4713 121.721 31.8473 122.612 30.3148 122.56C28.0248 122.477 26.292 121.595 25.1557 119.953C20.9544 113.812 26.3268 98.5074 28.6386 91.9717C29 90.9462 29.2874 90.1336 29.4093 89.699C29.4508 89.5538 29.5485 89.431 29.6808 89.3577C29.813 89.2843 29.9691 89.2664 30.1146 89.3079C30.26 89.3494 30.3831 89.4469 30.4565 89.5789C30.53 89.7109 30.548 89.8667 30.5064 90.0119C30.3758 90.4812 30.0971 91.2634 29.7184 92.3498C27.6721 98.1728 22.2387 113.643 26.1179 119.292C27.0495 120.652 28.4384 121.348 30.3758 121.417C31.5948 121.456 33.0794 120.644 34.6598 119.775C37.272 118.341 40.2369 116.733 43.4848 117.923C46.9068 119.192 49.9326 123.473 52.7364 130.999C52.7887 131.141 52.7828 131.298 52.7201 131.435C52.6573 131.573 52.5427 131.68 52.4012 131.733C52.3314 131.759 52.2578 131.772 52.1835 131.773Z" fill="#2D1F04"/>
<path d="M110.262 86.2878H110.175C110.026 86.2632 109.892 86.1811 109.804 86.0591C109.715 85.9371 109.678 85.7851 109.7 85.636C112.508 67.8844 117.559 42.3978 118.438 37.9784L109.565 37.7394C109.415 37.7348 109.272 37.671 109.169 37.5619C109.065 37.4529 109.009 37.3073 109.012 37.1571C109.012 37.0818 109.028 37.0072 109.057 36.938C109.087 36.8688 109.13 36.8062 109.185 36.7542C109.239 36.7022 109.304 36.6618 109.375 36.6354C109.445 36.6091 109.52 36.5973 109.596 36.6008L119.143 36.8572C119.226 36.8601 119.308 36.8809 119.382 36.9182C119.456 36.9555 119.521 37.0084 119.573 37.0732C119.625 37.138 119.662 37.2133 119.682 37.2938C119.701 37.3743 119.703 37.4581 119.688 37.5395C119.631 37.8263 113.893 66.4374 110.828 85.8141C110.804 85.9469 110.735 86.0671 110.631 86.1537C110.528 86.2404 110.397 86.2878 110.262 86.2878Z" fill="#2D1F04"/>
<path d="M98.3676 165.959H95.0414C94.8942 165.96 94.7523 165.904 94.6459 165.803C94.5394 165.701 94.4767 165.563 94.471 165.416L93.2955 135.384L77.9487 139.256C77.9024 139.26 77.8557 139.26 77.8094 139.256L67.7306 139.299C67.5807 139.296 67.4376 139.236 67.3308 139.131C67.224 139.025 67.1614 138.884 67.1559 138.734C67.1559 138.583 67.2158 138.438 67.3227 138.33C67.4295 138.223 67.5746 138.162 67.7262 138.161L77.7397 138.117L98.8247 132.794C98.9099 132.772 98.9989 132.771 99.0848 132.789C99.1707 132.808 99.2511 132.846 99.3198 132.901C99.3885 132.955 99.4436 133.025 99.4808 133.105C99.518 133.184 99.5364 133.271 99.5344 133.359L98.9423 165.385C98.9428 165.461 98.9284 165.536 98.8997 165.606C98.871 165.675 98.8287 165.739 98.7752 165.792C98.7218 165.846 98.6582 165.888 98.5882 165.916C98.5182 165.945 98.4432 165.96 98.3676 165.959ZM95.5725 164.82H97.7885L98.3589 134.097L94.4057 135.097L95.5725 164.82Z" fill="#2D1F04"/>
<path d="M56.2977 160.749C56.23 160.75 56.1625 160.741 56.0975 160.723C55.7274 160.623 54.8654 160.384 54.0338 153.187C53.4099 147.124 53.1192 141.031 53.1631 134.936C53.1631 134.785 53.2232 134.64 53.3301 134.534C53.4371 134.427 53.5821 134.367 53.7334 134.367C53.8847 134.367 54.0297 134.427 54.1367 134.534C54.2436 134.64 54.3037 134.785 54.3037 134.936C54.3037 148.303 55.5097 157.133 56.3152 159.245C58.0566 156.268 59.698 152.844 61.422 149.25C66.764 138.065 72.3063 126.501 82.0151 126.501C82.1663 126.501 82.3114 126.561 82.4184 126.668C82.5253 126.775 82.5854 126.92 82.5854 127.071C82.5854 127.222 82.5253 127.367 82.4184 127.473C82.3114 127.58 82.1663 127.64 82.0151 127.64C73.0072 127.64 67.6478 138.873 62.4539 149.737C60.6253 153.566 58.9013 157.181 57.0248 160.297C56.9573 160.432 56.8536 160.545 56.7252 160.625C56.5969 160.705 56.4489 160.748 56.2977 160.749Z" fill="#2D1F04"/>
<path d="M73.7169 175.198C73.5808 175.198 73.4492 175.15 73.346 175.061C73.2429 174.972 73.1752 174.85 73.1553 174.715L67.7523 139.516C67.7338 139.369 67.7738 139.22 67.8636 139.102C67.9535 138.983 68.0861 138.905 68.2333 138.883C68.3805 138.861 68.5305 138.897 68.6513 138.983C68.7721 139.07 68.8541 139.201 68.8799 139.347L74.2045 174.024L77.4698 173.924L76.808 138.973C76.8068 138.822 76.8649 138.677 76.9699 138.568C77.0749 138.459 77.2184 138.395 77.3697 138.391C77.4449 138.389 77.5198 138.401 77.5899 138.428C77.6601 138.456 77.7241 138.497 77.7781 138.549C77.8321 138.601 77.875 138.664 77.9043 138.733C77.9336 138.802 77.9487 138.876 77.9487 138.951L78.6192 174.468C78.6215 174.618 78.565 174.762 78.4617 174.871C78.3583 174.98 78.2164 175.044 78.0663 175.05L73.7125 175.176L73.7169 175.198Z" fill="#2D1F04"/>
<path d="M43.1408 174.181L39.4446 174.05C39.3139 174.047 39.1885 173.998 39.09 173.913C38.9914 173.827 38.9259 173.71 38.9047 173.581L32.9271 138.608C32.9142 138.526 32.9193 138.442 32.9418 138.362C32.9643 138.281 33.0038 138.207 33.0577 138.143C33.1114 138.08 33.1781 138.03 33.2533 137.995C33.3285 137.961 33.4103 137.943 33.493 137.943L39.2617 138.061C39.413 138.064 39.5567 138.127 39.6612 138.237C39.7657 138.346 39.8224 138.492 39.819 138.643C39.8155 138.794 39.7521 138.937 39.6427 139.042C39.5333 139.146 39.3868 139.203 39.2356 139.199L34.1592 139.099L39.9409 172.929L42.5966 173.021L43.3455 148.164C43.3543 148.014 43.42 147.873 43.5292 147.77C43.6383 147.667 43.7828 147.609 43.9332 147.608C44.0841 147.613 44.2267 147.678 44.3302 147.788C44.4337 147.898 44.4897 148.044 44.4861 148.194L43.7199 173.629C43.7154 173.777 43.6533 173.917 43.5468 174.02C43.4403 174.123 43.2978 174.181 43.1496 174.181H43.1408Z" fill="#2D1F04"/>
<path d="M32.0607 139.199C31.9167 139.2 31.7778 139.146 31.672 139.048C31.5662 138.951 31.5013 138.817 31.4903 138.673L30.5499 125.276C30.5439 125.201 30.5531 125.126 30.5771 125.055C30.601 124.984 30.6392 124.919 30.6893 124.863C30.7386 124.806 30.7992 124.759 30.8673 124.725C30.9354 124.691 31.0096 124.672 31.0854 124.668L34.9689 124.433C35.1202 124.424 35.2689 124.475 35.3824 124.575C35.4959 124.675 35.5649 124.817 35.5741 124.968C35.5833 125.118 35.5321 125.267 35.4317 125.38C35.3313 125.494 35.1899 125.562 35.0386 125.572L31.7254 125.771L32.5962 138.03L34.1548 137.943C34.2297 137.939 34.3047 137.95 34.3755 137.974C34.4464 137.999 34.5117 138.037 34.5677 138.087C34.6236 138.137 34.6693 138.197 34.7019 138.265C34.7345 138.332 34.7535 138.405 34.7578 138.48C34.7621 138.555 34.7516 138.63 34.7269 138.7C34.7022 138.771 34.6638 138.836 34.6138 138.892C34.5639 138.948 34.5034 138.993 34.4359 139.026C34.3683 139.059 34.295 139.078 34.2201 139.082L32.0999 139.199H32.0607Z" fill="#2D1F04"/>
<path d="M51.8787 92.9408C55.0656 93.0277 57.9739 93.0451 60.7646 93.1711C63.0721 93.2754 63.7165 94.7529 63.6033 96.1478C63.4509 98.0642 62.2493 99.3766 60.1421 100.059C60.0289 100.098 59.9157 100.12 59.7067 100.176C61.8835 101.38 61.9358 103.813 63.3507 106.034L58.5617 105.977C57.7913 104.625 57.1008 103.23 56.4937 101.797C56.1758 101.058 55.7405 100.493 54.4953 100.724C54.1003 102.441 53.961 104.207 54.0817 105.964L49.7672 105.934C49.3536 101.567 51.1125 97.1777 51.8787 92.9408ZM55.7231 95.6654C55.5315 96.5345 55.3312 97.3081 55.0874 98.2728C56.0322 98.2293 56.9334 98.2337 57.839 98.1294C58.1766 98.1144 58.5006 97.9926 58.7644 97.7817C59.0281 97.5708 59.2178 97.2817 59.3061 96.9561C59.4716 96.2999 59.1494 95.7871 58.3396 95.7089C57.5298 95.6307 56.6504 95.6698 55.7231 95.6654Z" fill="#2D1F04"/>
<path d="M76.3552 96.7084L72.3019 96.9257C72.2453 95.848 71.6402 95.2614 70.5169 95.2353C70.1683 95.1908 69.8145 95.2576 69.5064 95.4263C69.1982 95.5949 68.9515 95.8566 68.8016 96.1739C68.7363 96.7954 69.1586 97.0083 69.6723 97.1386C70.6127 97.382 71.5792 97.5993 72.5414 97.8643C73.0758 98.01 73.5983 98.1959 74.1044 98.4206C77.3131 99.8112 76.5991 103.487 74.0086 105.204C73.1375 105.766 72.1615 106.145 71.1395 106.321C69.5907 106.59 68.001 106.505 66.4898 106.073C65.5343 105.836 64.7008 105.254 64.1506 104.44C63.6005 103.625 63.3729 102.635 63.5118 101.662L67.4084 101.484C67.4606 101.741 67.4955 101.98 67.5564 102.206C67.896 103.448 69.2413 104.07 70.604 103.587C70.8937 103.514 71.157 103.361 71.364 103.146C71.571 102.931 71.7135 102.662 71.7751 102.371C71.8131 102.119 71.76 101.861 71.6252 101.645C71.4903 101.428 71.2827 101.266 71.0394 101.189C70.5913 101.021 70.135 100.876 69.6723 100.754C68.7276 100.463 67.7523 100.25 66.8772 99.885C65.1836 99.1854 64.5349 97.9773 64.8832 96.5433C65.1086 95.7012 65.5603 94.9367 66.1896 94.3324C66.8188 93.7281 67.6016 93.307 68.4533 93.1147C70.1975 92.6243 72.0454 92.6378 73.7822 93.1538C75.6151 93.7057 76.4162 94.8094 76.3552 96.7084Z" fill="#2D1F04"/>
<path d="M75.441 53.9352C75.9868 53.9352 76.4293 53.4935 76.4293 52.9487C76.4293 52.4039 75.9868 51.9623 75.441 51.9623C74.8952 51.9623 74.4527 52.4039 74.4527 52.9487C74.4527 53.4935 74.8952 53.9352 75.441 53.9352Z" fill="#2D1F04"/>
<path d="M43.4587 54.3176C44.0045 54.3176 44.4469 53.876 44.4469 53.3312C44.4469 52.7864 44.0045 52.3447 43.4587 52.3447C42.9128 52.3447 42.4704 52.7864 42.4704 53.3312C42.4704 53.876 42.9128 54.3176 43.4587 54.3176Z" fill="#2D1F04"/>
<g clip-path="url(#clip1_131348_441478)">
<path d="M131.26 44.3483C131.19 44.2917 131.132 44.2215 131.091 44.142C131.049 44.0626 131.024 43.9755 131.017 43.8861C131.01 43.7967 131.021 43.7068 131.05 43.622C131.08 43.5373 131.126 43.4593 131.186 43.3929L137.679 35.8657C137.735 35.7948 137.805 35.7362 137.886 35.6937C137.966 35.6511 138.054 35.6255 138.145 35.6184C138.235 35.6114 138.326 35.623 138.412 35.6526C138.498 35.6822 138.577 35.7292 138.644 35.7905C138.715 35.8471 138.774 35.9173 138.817 35.9968C138.86 36.0764 138.887 36.1637 138.895 36.2535C138.902 36.344 138.889 36.4347 138.858 36.5201C138.828 36.6054 138.78 36.6836 138.718 36.7497L132.221 44.2764C132.166 44.346 132.097 44.4037 132.018 44.446C131.94 44.4883 131.853 44.5142 131.764 44.5223C131.673 44.5302 131.58 44.5187 131.494 44.4888C131.407 44.4588 131.327 44.4109 131.26 44.3483Z" fill="black"/>
<path d="M138.207 40.585C138.157 40.5387 138.12 40.4802 138.099 40.4153C138.079 40.3504 138.075 40.2813 138.09 40.2148C138.104 40.1425 138.137 40.0751 138.186 40.0194C138.234 39.9637 138.297 39.9216 138.367 39.8974C138.671 39.7839 138.958 39.6304 139.221 39.4408C139.394 39.315 139.548 39.1644 139.677 38.9939C139.776 38.8457 139.867 38.7003 139.95 38.5539C140.039 38.391 140.152 38.2415 140.283 38.1102C140.357 38.0262 140.447 37.9584 140.549 37.9109C140.65 37.8635 140.76 37.8374 140.872 37.8343C140.984 37.8312 141.096 37.8512 141.2 37.893C141.304 37.9349 141.398 37.9976 141.477 38.0773C141.574 38.1644 141.646 38.2754 141.686 38.3991C141.726 38.5228 141.732 38.6547 141.703 38.7813C141.633 39.0908 141.474 39.3733 141.246 39.5944C141.043 39.7934 140.811 39.9602 140.557 40.0889C140.265 40.2468 139.96 40.3812 139.647 40.4907C139.369 40.5956 139.078 40.6652 138.782 40.6977C138.684 40.7234 138.581 40.7266 138.482 40.7071C138.382 40.6876 138.288 40.6458 138.207 40.585Z" fill="black"/>
<path d="M135.937 48.5489C135.878 48.4825 135.833 48.4047 135.805 48.3203C135.778 48.236 135.768 48.1469 135.777 48.0587C135.785 47.9709 135.811 47.8858 135.854 47.8088C135.897 47.7318 135.956 47.6647 136.027 47.6117L141.137 43.4443C141.204 43.3848 141.283 43.3399 141.369 43.3127C141.454 43.2855 141.545 43.2766 141.634 43.2864C141.769 43.2962 141.897 43.3467 142.003 43.4311C142.108 43.5155 142.185 43.6298 142.223 43.7586C142.262 43.8875 142.259 44.0249 142.217 44.1524C142.175 44.2799 142.094 44.3915 141.986 44.4722L136.876 48.6395C136.811 48.6996 136.733 48.7452 136.649 48.7734C136.565 48.8016 136.475 48.8117 136.387 48.8032C136.298 48.7946 136.212 48.7675 136.135 48.7237C136.057 48.6799 135.99 48.6203 135.937 48.5489ZM139.084 52.3591C139.026 52.2922 138.982 52.2143 138.954 52.1301C138.927 52.0458 138.917 51.957 138.924 51.8689C138.934 51.7815 138.961 51.6971 139.004 51.6203C139.047 51.5436 139.105 51.4761 139.175 51.4218L142.397 48.7936C142.834 48.4857 143.13 48.0186 143.222 47.4939C143.249 47.2632 143.227 47.0292 143.157 46.8073C143.087 46.5854 142.971 46.3806 142.816 46.2065C142.663 46.0097 142.469 45.8472 142.249 45.7293C142.028 45.6115 141.786 45.5411 141.536 45.5226C141.278 45.5044 141.019 45.5377 140.775 45.6205C140.53 45.7034 140.304 45.8341 140.112 46.005L139.556 45.3317C139.999 44.9693 140.524 44.7182 141.085 44.5994C141.598 44.4962 142.13 44.5309 142.626 44.6998C143.127 44.8782 143.568 45.1926 143.899 45.6073C144.238 46.0024 144.464 46.4803 144.554 46.9912C144.633 47.4903 144.565 48.0013 144.357 48.4617C144.104 48.9955 143.727 49.462 143.258 49.823L140.035 52.4513C139.97 52.5099 139.893 52.5547 139.81 52.5828C139.726 52.6108 139.638 52.6217 139.55 52.6146C139.458 52.6078 139.369 52.5814 139.289 52.5373C139.209 52.4932 139.139 52.4325 139.084 52.3591ZM142.211 56.1468C142.153 56.0801 142.109 56.0023 142.083 55.9183C142.056 55.8342 142.047 55.7457 142.055 55.658C142.064 55.5703 142.091 55.4854 142.134 55.4084C142.177 55.3313 142.235 55.2639 142.305 55.2101L145.528 52.5818C145.963 52.2727 146.259 51.8062 146.352 51.2822C146.379 51.052 146.357 50.8187 146.287 50.5975C146.217 50.3763 146.101 50.1722 145.946 49.9986C145.795 49.801 145.602 49.6385 145.382 49.5224C145.161 49.4064 144.918 49.3396 144.669 49.3268C144.138 49.3068 143.62 49.4914 143.224 49.842L142.506 48.9578C142.959 48.5847 143.498 48.3307 144.076 48.2191C144.612 48.1215 145.165 48.1767 145.672 48.3782C146.204 48.5893 146.672 48.936 147.027 49.3834C147.369 49.7767 147.595 50.2553 147.682 50.7673C147.764 51.2663 147.695 51.7779 147.485 52.2377C147.232 52.7715 146.856 53.2381 146.386 53.5991L143.164 56.2274C143.098 56.2853 143.021 56.3295 142.937 56.3576C142.854 56.3856 142.766 56.3968 142.678 56.3907C142.587 56.3852 142.499 56.3607 142.418 56.3186C142.338 56.2766 142.267 56.218 142.211 56.1468Z" fill="black"/>
<path d="M146.289 62.7723C146.244 62.6955 146.217 62.6103 146.207 62.5222C146.198 62.4341 146.207 62.3451 146.235 62.2608C146.26 62.1783 146.301 62.1016 146.356 62.0353C146.411 61.9689 146.479 61.9143 146.556 61.8746L152.982 58.4747C153.531 58.1683 154.145 57.9943 154.775 57.9669C155.373 57.9616 155.958 58.1507 156.439 58.5053C157.051 58.9764 157.545 59.5821 157.882 60.2747C158.071 60.6215 158.214 60.9916 158.305 61.3754C158.384 61.674 158.394 61.9865 158.333 62.2891C158.312 62.4062 158.263 62.5167 158.192 62.6123C158.121 62.7079 158.029 62.786 157.922 62.8406C157.547 63.0384 157.242 62.9187 157.004 62.477C156.919 62.3239 156.876 62.1509 156.881 61.976C156.895 61.7968 156.919 61.6185 156.952 61.442C156.982 61.2573 156.994 61.0703 156.988 60.8834C156.98 60.6766 156.923 60.4745 156.821 60.2938C156.653 59.9813 156.419 59.7082 156.136 59.4928C155.834 59.2789 155.469 59.1717 155.099 59.1881C154.575 59.2284 154.068 59.3882 153.617 59.655L147.192 63.0471C147.115 63.0901 147.031 63.1171 146.944 63.1264C146.857 63.1358 146.769 63.1272 146.685 63.1012C146.599 63.0775 146.52 63.0359 146.451 62.9792C146.383 62.9225 146.328 62.852 146.289 62.7723ZM148.509 66.9071C148.465 66.8305 148.437 66.7457 148.427 66.6581C148.418 66.5705 148.426 66.4819 148.452 66.3976C148.477 66.3133 148.52 66.2351 148.577 66.1679C148.635 66.1007 148.705 66.0457 148.784 66.0065L154.617 62.921C154.695 62.8756 154.781 62.8468 154.871 62.8364C154.96 62.8261 155.051 62.8343 155.137 62.8607C155.304 62.9226 155.442 63.0433 155.526 63.1997C155.609 63.3561 155.632 63.5375 155.59 63.7094C155.563 63.7932 155.518 63.8706 155.46 63.9366C155.401 64.0026 155.329 64.0558 155.249 64.093L149.412 67.1819C149.336 67.2259 149.251 67.2541 149.164 67.2647C149.077 67.2754 148.988 67.2682 148.904 67.2437C148.817 67.219 148.737 67.1761 148.668 67.118C148.599 67.0598 148.544 66.9878 148.505 66.9066L148.509 66.9071ZM151.37 58.4986C151.329 58.429 151.302 58.3521 151.291 58.2722C151.28 58.1922 151.285 58.1109 151.305 58.033C151.323 57.9566 151.357 57.8851 151.406 57.8235C151.455 57.7619 151.516 57.7119 151.587 57.6769C151.654 57.6377 151.729 57.613 151.807 57.6044C151.885 57.5958 151.963 57.6035 152.038 57.6271C152.193 57.6818 152.32 57.7952 152.392 57.9425L154.123 61.1687C154.205 61.3113 154.231 61.479 154.195 61.6392C154.175 61.7157 154.139 61.787 154.089 61.8483C154.039 61.9096 153.977 61.9594 153.905 61.9942C153.839 62.0306 153.765 62.0526 153.689 62.0587C153.613 62.0648 153.536 62.0549 153.465 62.0296C153.309 61.9739 153.182 61.859 153.111 61.7104L151.37 58.4986Z" fill="black"/>
<path d="M150.131 70.3313C150.094 70.2511 150.075 70.1644 150.074 70.0766C150.073 69.9888 150.09 69.9017 150.123 69.8207C150.157 69.7396 150.208 69.6664 150.271 69.6054C150.334 69.5444 150.41 69.4969 150.492 69.466L156.62 66.9597C156.701 66.9216 156.79 66.9008 156.879 66.8986C156.969 66.8964 157.058 66.9128 157.141 66.9469C157.302 67.0213 157.426 67.1554 157.488 67.3203C157.527 67.3999 157.55 67.4871 157.553 67.576C157.556 67.6648 157.54 67.7533 157.505 67.8353C157.471 67.9174 157.419 67.9911 157.354 68.0516C157.288 68.112 157.211 68.1577 157.126 68.1856L151.002 70.6924C150.84 70.7654 150.655 70.7718 150.488 70.7102C150.406 70.6747 150.331 70.6227 150.27 70.5575C150.208 70.4924 150.161 70.4154 150.131 70.3313ZM152.459 75.9303C152.422 75.8485 152.403 75.76 152.402 75.6704C152.401 75.5808 152.419 75.492 152.454 75.4096C152.487 75.3309 152.536 75.2597 152.598 75.2003C152.66 75.1409 152.733 75.0945 152.813 75.0639L156.198 73.6786C156.656 73.5124 157.061 73.2282 157.371 72.8551C157.619 72.5392 157.766 72.1575 157.796 71.7579C157.818 71.3336 157.739 70.91 157.565 70.5215C157.416 70.1443 157.178 69.8074 156.873 69.5383C156.597 69.2919 156.263 69.1196 155.901 69.0377C155.551 68.956 155.184 68.9882 154.854 69.1296L154.522 68.3286C155.056 68.1083 155.642 68.0422 156.212 68.1379C156.77 68.2292 157.292 68.4681 157.725 68.8294C158.188 69.2132 158.547 69.7055 158.77 70.2617C159.02 70.8387 159.122 71.4684 159.067 72.0939C159.005 72.6833 158.776 73.2427 158.406 73.707C157.957 74.2432 157.374 74.6537 156.716 74.8984L153.342 76.293C153.179 76.3597 152.995 76.3591 152.832 76.2914C152.668 76.2237 152.539 76.0944 152.471 75.9319L152.459 75.9303Z" fill="black"/>
<path d="M154.537 82.1574C154.297 81.4575 154.245 80.7078 154.385 79.9823C154.518 79.3112 154.834 78.6898 155.3 78.1866C155.799 77.6576 156.431 77.2707 157.131 77.0655C157.822 76.8308 158.562 76.7742 159.282 76.9011C159.941 77.0219 160.554 77.3224 161.052 77.769C161.575 78.2448 161.958 78.8533 162.16 79.5288C162.382 80.1673 162.419 80.8549 162.266 81.5127C162.115 82.1243 161.79 82.6795 161.33 83.1124C160.82 83.5889 160.204 83.9394 159.532 84.1356C159.459 84.1606 159.382 84.1703 159.305 84.1641C159.228 84.1578 159.153 84.1357 159.085 84.0993C159.013 84.0615 158.951 84.0095 158.9 83.9465C158.85 83.8835 158.814 83.8108 158.793 83.7331L156.977 78.0689L158.003 77.7497L159.822 83.4221L159.238 82.9853C159.693 82.8397 160.11 82.5989 160.463 82.2791C160.781 81.9908 161.009 81.6185 161.122 81.2055C161.235 80.7671 161.214 80.305 161.063 79.8779C160.922 79.397 160.648 78.9653 160.27 78.6331C159.911 78.3307 159.472 78.1353 159.006 78.0695C158.499 77.9994 157.982 78.0474 157.497 78.2096C157.002 78.3565 156.555 78.6308 156.201 79.0048C155.868 79.3625 155.638 79.8022 155.534 80.2783C155.427 80.7901 155.461 81.3217 155.633 81.8161C155.739 82.1226 155.894 82.4097 156.094 82.6658C156.267 82.9083 156.48 83.1205 156.723 83.2938C156.857 83.3795 156.958 83.5067 157.012 83.6556C157.063 83.7943 157.061 83.947 157.006 84.0842C156.939 84.2413 156.813 84.3659 156.654 84.4309C156.579 84.4605 156.498 84.4705 156.418 84.4598C156.338 84.4491 156.263 84.4181 156.198 84.3697C155.815 84.1052 155.48 83.7778 155.206 83.4015C154.917 83.0257 154.691 82.6055 154.537 82.1574Z" fill="black"/>
</g>
</g>
<defs>
<clipPath id="clip0_131348_441478">
<rect width="165" height="183" fill="white"/>
</clipPath>
<clipPath id="clip1_131348_441478">
<rect width="36" height="46" fill="white" transform="translate(132.219 34.8101) rotate(7.64375)"/>
</clipPath>
</defs>
</svg>
