<svg width="513" height="434" viewBox="0 0 513 434" fill="none" xmlns="http://www.w3.org/2000/svg">
<mask id="mask0_412_16312" style="mask-type:luminance" maskUnits="userSpaceOnUse" x="0" y="0" width="513" height="434">
<path d="M512.871 0H0V433.811H512.871V0Z" fill="white"/>
</mask>
<g mask="url(#mask0_412_16312)">
<path d="M143.329 433.81C133.127 433.81 124.966 426.669 124.966 417.743C124.966 417.233 124.966 416.723 124.966 416.213C120.121 417.743 115.275 418.253 111.194 418.253C91.3018 418.253 90.2817 404.991 90.2817 402.441C90.2817 391.73 100.228 387.139 105.329 384.844C105.839 384.589 107.114 382.293 107.114 379.743V352.71C104.819 352.965 102.523 352.964 100.228 352.964C77.53 352.964 60.1878 343.018 48.2012 323.381L46.671 320.83C40.8053 311.139 38.2549 307.059 31.8791 303.488C24.9932 299.663 15.557 294.307 15.557 284.361C15.557 276.71 21.9328 268.549 36.2147 268.549C58.9126 268.549 70.8992 285.891 79.0602 297.367L79.8253 298.387C85.181 305.783 93.8521 307.824 97.6776 307.824C102.268 307.824 105.839 307.314 109.664 305.528C110.684 302.723 111.959 299.918 113.235 297.112C81.3555 290.481 58.6576 277.22 44.3757 257.072L14.0268 257.327C7.39596 257.327 2.04028 252.226 1.78524 245.851C1.78524 243.81 2.04026 241.77 2.80536 240.24C1.02013 237.945 0 235.139 0 232.079C0 225.448 5.3557 220.092 11.9866 219.837C15.557 219.837 19.1275 219.582 22.6979 219.582C24.7382 219.582 27.0335 219.582 29.0738 219.582C27.2885 210.401 26.2684 200.2 26.2684 189.233C26.2684 165.26 33.1543 144.858 46.671 128.025C39.5301 104.562 45.6509 84.4148 51.2616 70.898C53.0469 66.3074 57.6375 63.247 62.4831 63.247C62.9931 63.247 63.2482 63.247 63.7582 63.247C88.2414 63.247 109.409 75.2336 122.161 84.4148C124.966 83.6497 128.027 82.8846 131.087 82.3745C134.402 73.4484 140.523 66.0524 149.194 60.9517C151.235 59.6766 153.53 58.9115 155.825 58.1464C160.926 56.3612 166.282 55.341 172.657 55.341C173.677 55.341 174.443 55.341 175.463 55.341H175.718C193.825 55.341 211.167 62.2269 226.979 75.7437C234.885 71.4081 242.791 68.0927 250.952 66.0524C249.422 63.247 249.167 59.9316 250.187 56.6162C250.442 56.1061 250.697 55.341 250.952 54.831C251.207 54.5759 251.463 53.5558 251.463 53.5558C251.463 53.3008 251.718 53.0457 251.718 53.0457C251.973 52.5357 252.228 52.2806 252.483 52.0256C252.483 51.7706 252.738 51.5155 252.993 51.2605C253.248 51.0055 253.503 50.4954 253.758 49.9853C252.993 47.18 253.248 44.3746 254.268 41.5692C254.523 40.8041 254.778 40.2941 255.288 39.529C255.798 38.7639 256.053 38.2538 256.563 37.7437C257.583 36.2135 258.858 34.6834 260.134 33.4082C259.879 30.8579 260.389 28.5626 261.664 26.2673C262.429 24.9921 263.194 23.7169 264.469 22.6968C268.04 19.6364 272.885 17.0861 278.496 15.3008H278.751C280.026 14.7908 281.301 14.5358 282.577 14.2807C282.577 14.2807 283.087 14.2807 283.087 14.0257C283.597 13.7706 284.362 13.7706 284.872 13.5156C285.127 11.7304 285.637 10.2002 286.402 8.66999C286.657 7.90489 287.167 7.1398 287.422 6.62973C287.677 6.3747 287.677 6.11966 287.932 5.86462C289.717 3.05926 292.778 1.019 296.093 0.508935C296.858 0.508935 297.623 0.253906 298.134 0.253906C300.174 0.253906 302.469 0.763968 304.254 1.7841C304.509 2.03913 305.019 2.29417 305.274 2.29417C306.295 3.05927 311.14 5.09953 318.281 6.11966C318.536 6.11966 318.536 6.11966 318.791 6.11966C321.087 3.56933 324.402 2.03913 327.972 2.03913H328.227C335.878 2.03913 346.335 4.0794 359.596 7.64986C361.637 8.15992 363.677 8.92502 365.717 9.43509C367.758 9.94516 369.798 10.7103 371.838 11.4754C373.878 12.2404 375.664 12.7505 377.704 13.5156C379.744 14.2807 381.529 15.0458 383.57 15.8109C385.61 16.576 387.395 17.3411 389.435 18.3612C391.221 19.1263 393.006 20.1465 395.046 20.9116H395.301C397.086 21.6767 398.872 22.6968 400.657 23.7169H400.912C402.697 24.7371 404.227 25.7572 406.013 26.7773C406.013 26.7773 406.012 26.7773 406.267 26.7773C408.053 27.7975 409.583 28.8176 411.368 30.0928C413.153 31.1129 414.684 32.3881 416.469 33.4082H416.724C418.254 34.6834 420.039 35.7035 421.569 36.9787H421.825C423.355 38.2538 424.885 39.529 426.415 40.8042C426.415 40.8042 426.415 40.8041 426.67 41.0592C428.2 42.3343 429.731 43.6095 431.261 45.1397L431.516 45.3947C433.046 46.6699 434.321 48.2001 435.851 49.7303C437.382 51.2605 438.657 52.7907 439.932 54.3209C441.207 55.8511 442.737 57.3813 444.012 58.9115L444.267 59.1665C445.543 60.6967 446.818 62.2269 448.093 64.0121L448.348 64.2672C449.623 65.7974 450.643 67.5826 451.918 69.3678V69.6229C453.194 71.4081 454.214 73.1933 455.489 74.9786C456.509 76.7638 457.784 78.8041 458.804 80.5893L459.059 80.8443C460.079 82.6296 461.1 84.6698 462.12 86.455V86.7101C463.14 88.7504 464.16 90.7906 464.925 92.8309V93.0859C465.945 95.1262 466.71 97.1664 467.475 99.2067V99.4617C468.241 101.502 469.261 103.797 470.026 106.093V106.348C470.791 108.643 471.556 110.938 472.321 113.233C476.912 128.025 480.227 144.348 482.012 161.945C507.516 174.696 511.851 199.435 512.616 207.341V207.851C512.616 208.106 512.616 208.361 512.616 208.616C512.616 209.381 512.616 209.891 512.616 210.656C512.616 211.421 512.616 211.931 512.616 212.441C512.616 213.972 512.616 215.757 512.361 217.287C512.361 217.797 512.361 218.052 512.361 218.562C511.086 230.294 507.261 241.515 500.375 252.482C502.925 265.488 504.71 286.146 504.71 302.468C504.71 310.629 504.2 316.75 503.435 321.085C502.925 323.891 501.395 326.186 499.099 327.971C498.334 328.736 497.569 329.246 496.804 329.757C495.784 330.522 494.509 331.542 493.234 332.307C493.234 334.602 493.489 337.152 493.489 339.448C493.999 356.28 494.764 375.407 500.885 394.025C501.14 394.535 501.395 395.555 501.905 396.575C504.2 402.186 507.771 410.347 504.965 418.763C504.965 419.018 504.71 419.528 504.71 419.783V420.038C504.455 420.293 504.455 420.803 504.2 421.058C503.945 421.313 503.945 421.568 503.69 421.823C503.435 422.078 503.435 422.333 503.18 422.589C502.925 423.099 502.67 423.354 502.415 423.864C502.415 423.864 502.415 424.119 502.16 424.119C501.905 424.629 501.65 424.884 501.395 425.139C499.61 427.179 497.314 428.964 494.509 430.24C491.449 431.515 487.113 432.79 466.455 432.79C463.65 432.79 460.59 432.79 457.274 432.79C457.019 432.79 457.019 432.79 456.764 432.79H456.509C432.791 432.28 401.167 430.75 391.731 428.454C388.16 427.689 385.1 425.394 383.315 422.078C383.059 421.568 382.804 421.058 382.549 420.548C382.549 420.293 382.294 419.783 382.294 419.528C377.959 424.884 370.563 426.414 364.697 427.434C360.107 427.944 355.771 428.199 353.731 428.199H353.476C353.221 428.199 352.966 428.199 352.711 428.199H352.456C352.201 428.199 351.945 428.199 351.945 428.199H351.69C351.435 428.199 351.18 428.199 350.925 428.199C350.67 428.199 350.415 428.199 350.415 428.199C350.415 428.199 349.905 428.199 349.65 428.199C349.14 428.199 348.375 428.199 347.865 428.199C347.865 428.199 345.315 428.199 345.06 428.199C344.805 428.199 344.294 428.199 344.039 428.199H341.744C341.489 428.199 340.979 428.199 340.724 428.199H336.899C336.388 428.199 335.878 428.199 335.368 428.199H334.858C334.603 428.199 334.348 428.199 334.093 428.199H333.838C332.818 428.199 331.543 428.199 330.523 428.199H326.697C324.912 428.199 323.127 428.199 321.087 428.199H317.771C315.986 428.199 314.456 428.199 312.67 428.199C310.885 428.199 309.1 428.199 307.315 428.199C306.295 428.199 305.019 428.199 303.744 428.199C303.489 428.199 303.234 428.199 302.979 428.199L293.543 428.454C291.758 428.454 290.228 428.454 288.442 428.454H279.516C274.671 428.454 270.335 425.649 268.295 421.313C267.53 419.783 267.02 417.998 267.02 416.213C267.02 414.938 267.02 413.662 267.53 412.642C267.785 411.877 268.04 411.112 268.295 410.347C268.805 409.582 269.315 408.817 269.825 408.052C275.691 400.656 283.342 394.535 291.503 390.199C293.288 389.434 294.818 388.669 296.348 387.904C296.603 387.904 296.603 387.649 296.858 387.649C294.308 381.528 292.778 374.387 293.033 367.501C292.778 367.501 292.778 367.246 292.523 367.246C291.503 366.481 290.738 365.461 289.973 364.696C283.597 363.931 279.771 359.085 277.221 352.964C269.06 358.065 260.389 360.615 250.697 360.615C237.436 360.615 224.429 353.73 216.523 347.099C214.738 345.569 212.953 344.038 211.167 342.508C210.657 341.998 210.147 341.488 209.382 340.978V392.495C209.382 396.83 209.892 398.615 210.147 398.87C210.147 398.87 210.147 398.87 210.402 399.125C216.013 403.461 218.818 408.562 218.818 414.427C218.818 422.589 212.442 431.005 200.456 431.005C190.255 431.005 179.543 426.159 172.147 418.253C163.986 429.219 152.765 433.81 143.329 433.81ZM384.08 398.105C385.1 401.166 385.865 404.481 385.865 408.052C386.12 407.797 386.375 407.287 386.63 407.031C387.65 406.011 388.67 404.736 389.945 403.461C392.241 401.166 395.046 399.125 397.851 397.34C393.771 397.595 389.435 397.85 385.1 397.85C384.845 398.105 384.59 398.105 384.08 398.105ZM237.691 298.387C239.731 300.938 241.771 303.233 244.067 305.528C246.617 308.079 248.912 310.119 250.952 311.394C250.952 310.884 250.952 310.374 250.952 310.119C250.697 303.998 251.207 297.877 252.228 291.757C247.127 293.542 241.771 295.072 236.161 296.347C236.671 297.112 237.181 297.622 237.691 298.387Z" fill="white"/>
</g>
<mask id="mask1_412_16312" style="mask-type:luminance" maskUnits="userSpaceOnUse" x="0" y="0" width="513" height="434">
<path d="M512.871 0H0V433.811H512.871V0Z" fill="white"/>
</mask>
<g mask="url(#mask1_412_16312)">
<path d="M146.133 79.5732C156.844 68.3518 165.515 66.0565 186.173 69.3719C204.28 72.1773 222.643 86.9692 236.159 104.311C231.059 113.493 217.287 121.909 212.186 124.459C201.73 118.593 165.515 94.1101 146.133 79.5732Z" fill="#CBAA7A"/>
</g>
<mask id="mask2_412_16312" style="mask-type:luminance" maskUnits="userSpaceOnUse" x="0" y="0" width="513" height="434">
<path d="M512.871 0H0V433.811H512.871V0Z" fill="white"/>
</mask>
<g mask="url(#mask2_412_16312)">
<path d="M300.174 181.327C300.174 181.072 300.174 180.817 300.174 180.562C300.174 180.052 300.174 179.542 299.919 178.777C299.919 177.757 299.664 176.991 299.664 175.971C299.664 175.461 299.409 174.696 299.409 174.186C299.409 173.931 299.409 173.931 299.409 173.676C299.409 173.166 299.154 172.656 299.154 172.146C299.154 171.636 298.899 171.381 298.899 170.871C296.859 159.904 293.289 150.723 288.443 142.817C287.933 141.797 287.168 141.032 286.658 140.012C285.638 138.481 284.617 136.951 283.342 135.421C281.047 132.616 278.752 129.81 276.456 127.26C276.966 125.985 277.221 124.71 277.476 123.179C280.282 111.193 279.517 98.1862 276.711 86.9648V86.7097C276.456 85.9446 276.456 85.4346 276.201 84.6695C275.181 81.354 274.161 78.2936 272.886 75.4883C272.631 75.4883 272.121 75.4883 271.866 75.4883C254.779 75.4883 239.732 81.8641 228 89.2601C228 89.2601 228 89.2601 227.745 89.2601C223.92 91.5554 220.604 94.1057 217.544 96.656C203.517 92.8305 193.826 91.3003 179.799 91.0453C177.504 91.0453 174.953 91.0453 172.403 91.0453C170.618 91.0453 168.832 91.0453 167.302 91.0453C159.141 91.3003 152.255 91.5554 146.39 92.3205H146.134C136.443 93.5956 128.792 95.3808 119.611 97.9312C107.114 87.9849 85.9467 75.2332 62.7387 75.7433C55.8528 92.3205 52.5374 110.683 60.6985 130.83C47.1817 145.112 38.7656 163.73 38.7656 189.233C38.7656 205.3 40.8059 220.092 45.6515 232.844C46.9267 236.414 48.7119 239.73 50.4971 243.045C64.0139 267.273 90.7924 283.34 138.228 288.441C143.329 288.951 148.94 289.461 154.551 289.716C160.161 289.971 166.282 290.226 172.403 290.226C184.9 290.226 195.866 289.716 206.067 288.696C229.275 286.656 246.873 282.065 260.134 275.434H260.389C261.409 274.924 262.685 274.414 263.705 273.649C263.705 273.649 263.96 273.649 263.96 273.394C264.98 272.629 266.255 272.119 267.275 271.354C269.57 270.078 271.611 268.548 273.651 267.018C274.161 266.763 274.416 266.508 274.926 265.998C275.181 265.743 275.691 265.488 275.946 264.978C277.732 263.448 279.517 261.662 281.047 259.877C281.302 259.622 281.557 259.367 281.812 259.112C282.067 258.857 282.322 258.347 282.832 258.092C283.342 257.837 283.342 257.327 283.597 257.072C284.362 256.307 284.872 255.542 285.382 254.521C285.638 254.266 285.893 254.011 286.148 253.501C286.403 253.246 286.658 252.736 286.913 252.226C287.168 251.971 287.423 251.461 287.678 250.951L287.933 250.696C288.443 249.931 288.698 249.421 289.208 248.656C289.463 248.146 289.718 247.891 289.973 247.381C290.738 245.85 291.758 244.065 292.523 242.28C294.054 238.964 295.074 235.649 296.094 232.079C298.644 223.407 299.919 214.226 300.429 204.025C300.684 199.944 300.684 195.609 300.684 191.273C300.684 190.508 300.684 189.743 300.684 188.978C300.429 186.428 300.174 183.877 300.174 181.327ZM172.148 280.535C124.967 280.535 89.2621 274.159 76.7655 245.595C75.4904 242.79 74.4702 239.985 73.7051 236.924C72.43 232.079 71.9199 226.978 71.6649 221.112C71.6649 220.347 71.6649 219.837 71.6649 219.072C71.6649 203.26 82.3763 185.918 98.9534 179.032C105.839 176.226 114.255 175.461 122.671 175.206C138.483 174.951 145.624 177.246 167.812 177.246C190 177.246 201.987 174.951 217.799 175.206C225.96 175.461 234.631 176.226 241.517 179.032C258.094 185.918 268.805 203.26 268.805 219.072C268.805 219.582 268.805 220.347 268.805 220.857C268.805 225.448 268.55 229.528 267.785 233.354C262.175 272.374 231.571 280.535 172.148 280.535Z" fill="black" fill-opacity="0.85"/>
</g>
<mask id="mask3_412_16312" style="mask-type:luminance" maskUnits="userSpaceOnUse" x="0" y="0" width="513" height="434">
<path d="M512.871 0H0V433.811H512.871V0Z" fill="white"/>
</mask>
<g mask="url(#mask3_412_16312)">
<path d="M268.805 219.326C268.805 219.836 268.805 220.601 268.805 221.111C268.805 225.702 268.55 229.782 267.784 233.608C262.174 272.373 231.315 280.534 172.147 280.534C124.966 280.534 89.2613 274.158 76.7647 245.594C75.4896 242.789 74.4694 239.984 73.7043 236.923C72.4292 232.078 71.9191 226.977 71.6641 221.111C71.6641 220.346 71.6641 219.836 71.6641 219.071C71.6641 203.259 82.1204 185.917 98.9526 179.031C105.838 176.225 114.255 175.46 122.671 175.205C138.483 174.95 145.624 177.246 167.811 177.246C189.999 177.246 201.986 174.95 217.798 175.205C225.959 175.46 234.63 176.225 241.516 179.031C258.348 186.172 268.805 203.259 268.805 219.326Z" fill="#F0CDB4"/>
</g>
<mask id="mask4_412_16312" style="mask-type:luminance" maskUnits="userSpaceOnUse" x="0" y="0" width="513" height="434">
<path d="M512.871 0H0V433.811H512.871V0Z" fill="white"/>
</mask>
<g mask="url(#mask4_412_16312)">
<path d="M64.7781 235.142C49.2211 232.592 31.1138 231.317 11.9863 232.082" stroke="black" stroke-opacity="0.85" stroke-width="1.2673" stroke-miterlimit="10" stroke-linecap="round" stroke-linejoin="round"/>
</g>
<mask id="mask5_412_16312" style="mask-type:luminance" maskUnits="userSpaceOnUse" x="0" y="0" width="513" height="434">
<path d="M512.871 0H0V433.811H512.871V0Z" fill="white"/>
</mask>
<g mask="url(#mask5_412_16312)">
<path d="M13.7734 244.832C33.411 242.536 53.3035 242.026 69.1156 244.322" stroke="black" stroke-opacity="0.85" stroke-width="1.2673" stroke-miterlimit="10" stroke-linecap="round" stroke-linejoin="round"/>
</g>
<mask id="mask6_412_16312" style="mask-type:luminance" maskUnits="userSpaceOnUse" x="0" y="0" width="513" height="434">
<path d="M512.871 0H0V433.811H512.871V0Z" fill="white"/>
</mask>
<g mask="url(#mask6_412_16312)">
<path d="M275.689 233.101C300.428 231.826 355.005 230.551 390.964 239.477" stroke="black" stroke-opacity="0.85" stroke-width="1.2673" stroke-miterlimit="10" stroke-linecap="round" stroke-linejoin="round"/>
</g>
<mask id="mask7_412_16312" style="mask-type:luminance" maskUnits="userSpaceOnUse" x="0" y="0" width="513" height="434">
<path d="M512.871 0H0V433.811H512.871V0Z" fill="white"/>
</mask>
<g mask="url(#mask7_412_16312)">
<path d="M274.16 242.536C302.214 241.516 355.006 244.321 389.945 256.563" stroke="black" stroke-opacity="0.85" stroke-width="1.2673" stroke-miterlimit="10" stroke-linecap="round" stroke-linejoin="round"/>
</g>
<mask id="mask8_412_16312" style="mask-type:luminance" maskUnits="userSpaceOnUse" x="0" y="0" width="513" height="434">
<path d="M512.871 0H0V433.811H512.871V0Z" fill="white"/>
</mask>
<g mask="url(#mask8_412_16312)">
<path d="M196.632 319.559V394.794C196.632 405.76 199.437 409.075 202.243 411.116C205.048 413.411 206.068 414.941 206.068 416.726C206.068 418.257 205.048 421.062 199.947 421.062C189.236 421.062 174.189 411.626 174.189 396.834V317.774C174.189 314.968 173.169 313.183 171.384 313.183C169.599 313.183 168.578 314.713 168.578 317.519V395.814C168.578 413.156 152.766 421.317 143.075 421.317C139.76 421.317 136.954 419.532 136.954 417.491C136.954 415.451 137.209 413.411 140.78 411.371C144.35 409.075 146.136 404.74 146.136 398.874V319.049C141.8 320.069 139.505 329.76 139.505 339.196V381.277C139.505 402.7 116.807 405.76 110.431 405.76C104.055 405.76 101.76 404.23 101.76 402.189C101.76 400.149 103.545 398.619 109.666 395.559C115.787 392.753 118.592 385.357 118.592 379.236V323.639C118.592 323.129 118.592 322.619 118.592 321.854C118.592 320.324 118.847 318.794 118.847 317.263C119.102 315.988 119.102 314.713 119.612 313.438C122.162 300.941 129.558 292.015 137.464 287.68C142.565 288.19 148.176 288.7 153.786 288.955C159.397 289.21 165.518 289.465 171.639 289.465C184.135 289.465 195.102 288.955 205.303 287.935C218.31 296.861 223.41 308.847 223.41 321.599V338.941C214.484 331.545 205.303 322.874 196.632 319.049C196.887 319.814 196.887 319.814 196.632 319.559Z" fill="black" fill-opacity="0.85"/>
</g>
<mask id="mask9_412_16312" style="mask-type:luminance" maskUnits="userSpaceOnUse" x="0" y="0" width="513" height="434">
<path d="M512.871 0H0V433.811H512.871V0Z" fill="white"/>
</mask>
<g mask="url(#mask9_412_16312)">
<path d="M120.12 313.944C119.865 315.22 119.61 316.495 119.355 317.77C119.1 319.3 119.1 320.83 119.1 322.361C119.1 322.871 119.1 323.381 119.1 324.146V337.918C113.999 339.448 107.623 340.468 99.7173 340.468C89.771 340.468 71.6637 338.938 58.402 316.75C51.7711 305.528 47.9456 298.132 37.4893 292.522C29.3282 287.931 27.543 285.891 27.543 284.106C27.543 282.32 30.8584 280.535 35.959 280.535C52.7912 280.535 61.9724 294.562 69.3684 305.273C76.7643 315.73 89.0059 319.81 97.167 319.81C105.838 319.81 112.214 318.28 120.12 313.944Z" fill="black" fill-opacity="0.85"/>
</g>
<mask id="mask10_412_16312" style="mask-type:luminance" maskUnits="userSpaceOnUse" x="0" y="0" width="513" height="434">
<path d="M512.871 0H0V433.811H512.871V0Z" fill="white"/>
</mask>
<g mask="url(#mask10_412_16312)">
<g opacity="0.23">
<mask id="mask11_412_16312" style="mask-type:luminance" maskUnits="userSpaceOnUse" x="71" y="175" width="198" height="47">
<path d="M268.805 175.459H71.9199V221.365H268.805V175.459Z" fill="white"/>
</mask>
<g mask="url(#mask11_412_16312)">
<path d="M268.805 219.327C268.805 219.837 268.805 220.602 268.805 221.112C267.275 199.434 250.188 179.797 224.94 179.797C210.403 179.797 188.725 183.112 170.363 183.112C152 183.112 133.128 180.307 119.356 179.797C93.3427 179.032 76.2555 194.589 71.9199 221.367C71.9199 220.602 71.9199 220.092 71.9199 219.327C71.9199 203.515 82.3763 186.173 99.2084 179.287C106.094 176.481 114.51 175.716 122.927 175.461C138.739 175.206 145.879 177.501 168.067 177.501C190.255 177.501 202.242 175.206 218.054 175.461C226.215 175.716 234.886 176.481 241.772 179.287C258.349 186.173 268.805 203.26 268.805 219.327Z" fill="#503324"/>
</g>
</g>
</g>
<mask id="mask12_412_16312" style="mask-type:luminance" maskUnits="userSpaceOnUse" x="0" y="0" width="513" height="434">
<path d="M512.871 0H0V433.811H512.871V0Z" fill="white"/>
</mask>
<g mask="url(#mask12_412_16312)">
<path d="M138.483 219.583C138.483 235.65 129.557 248.911 118.335 248.911C107.114 248.911 98.1875 235.905 98.1875 219.583C98.1875 203.516 107.114 190.254 118.335 190.254C129.557 190.254 138.483 203.516 138.483 219.583Z" fill="white"/>
</g>
<mask id="mask13_412_16312" style="mask-type:luminance" maskUnits="userSpaceOnUse" x="0" y="0" width="513" height="434">
<path d="M512.871 0H0V433.811H512.871V0Z" fill="white"/>
</mask>
<g mask="url(#mask13_412_16312)">
<path d="M135.678 214.737C135.678 225.449 129.812 234.375 122.416 234.375C115.02 234.375 109.154 225.704 109.154 214.737C109.154 204.026 115.02 195.1 122.416 195.1C129.812 195.1 135.678 203.771 135.678 214.737Z" fill="#B05144"/>
</g>
<mask id="mask14_412_16312" style="mask-type:luminance" maskUnits="userSpaceOnUse" x="0" y="0" width="513" height="434">
<path d="M512.871 0H0V433.811H512.871V0Z" fill="white"/>
</mask>
<g mask="url(#mask14_412_16312)">
<path d="M120.63 205.811C120.63 208.106 118.845 209.892 116.549 209.892C114.254 209.892 112.469 208.106 112.469 205.811C112.469 203.516 114.254 201.73 116.549 201.73C118.845 201.73 120.63 203.516 120.63 205.811Z" fill="white"/>
</g>
<mask id="mask15_412_16312" style="mask-type:luminance" maskUnits="userSpaceOnUse" x="0" y="0" width="513" height="434">
<path d="M512.871 0H0V433.811H512.871V0Z" fill="white"/>
</mask>
<g mask="url(#mask15_412_16312)">
<path d="M248.147 219.583C248.147 235.65 239.221 248.911 227.999 248.911C216.778 248.911 207.852 235.905 207.852 219.583C207.852 203.516 216.778 190.254 227.999 190.254C239.221 190.254 248.147 203.516 248.147 219.583Z" fill="white"/>
</g>
<mask id="mask16_412_16312" style="mask-type:luminance" maskUnits="userSpaceOnUse" x="0" y="0" width="513" height="434">
<path d="M512.871 0H0V433.811H512.871V0Z" fill="white"/>
</mask>
<g mask="url(#mask16_412_16312)">
<path d="M245.086 214.737C245.086 225.449 239.22 234.375 231.824 234.375C224.428 234.375 218.562 225.704 218.562 214.737C218.562 204.026 224.428 195.1 231.824 195.1C238.965 195.1 245.086 203.771 245.086 214.737Z" fill="#B05144"/>
</g>
<mask id="mask17_412_16312" style="mask-type:luminance" maskUnits="userSpaceOnUse" x="0" y="0" width="513" height="434">
<path d="M512.871 0H0V433.811H512.871V0Z" fill="white"/>
</mask>
<g mask="url(#mask17_412_16312)">
<path d="M231.825 205.811C231.825 208.106 230.04 209.892 227.745 209.892C225.449 209.892 223.664 208.106 223.664 205.811C223.664 203.516 225.449 201.73 227.745 201.73C230.04 201.73 231.825 203.516 231.825 205.811Z" fill="white"/>
</g>
<mask id="mask18_412_16312" style="mask-type:luminance" maskUnits="userSpaceOnUse" x="0" y="0" width="513" height="434">
<path d="M512.871 0H0V433.811H512.871V0Z" fill="white"/>
</mask>
<g mask="url(#mask18_412_16312)">
<path d="M177.247 246.362C177.247 249.167 174.951 251.717 171.891 251.717C169.086 251.717 166.535 249.422 166.535 246.362C166.535 243.556 168.83 241.006 171.891 241.006C174.696 241.006 177.247 243.301 177.247 246.362Z" fill="#B05144"/>
</g>
<mask id="mask19_412_16312" style="mask-type:luminance" maskUnits="userSpaceOnUse" x="0" y="0" width="513" height="434">
<path d="M512.871 0H0V433.811H512.871V0Z" fill="white"/>
</mask>
<g mask="url(#mask19_412_16312)">
<path d="M161.436 258.35C163.221 267.786 179.543 268.296 182.093 258.35" stroke="#B05144" stroke-width="1.9348" stroke-miterlimit="10" stroke-linecap="round" stroke-linejoin="round"/>
</g>
<mask id="mask20_412_16312" style="mask-type:luminance" maskUnits="userSpaceOnUse" x="0" y="0" width="513" height="434">
<path d="M512.871 0H0V433.811H512.871V0Z" fill="white"/>
</mask>
<g mask="url(#mask20_412_16312)">
<path d="M48.7113 288.189C48.2012 288.954 46.9261 289.209 45.6509 288.699C44.3757 288.189 43.6106 286.914 44.1207 286.148C44.6308 285.383 45.9059 285.128 47.1811 285.638C48.4563 286.148 49.2214 287.424 48.7113 288.189Z" fill="#A4D7E8"/>
</g>
<mask id="mask21_412_16312" style="mask-type:luminance" maskUnits="userSpaceOnUse" x="0" y="0" width="513" height="434">
<path d="M512.871 0H0V433.811H512.871V0Z" fill="white"/>
</mask>
<g mask="url(#mask21_412_16312)">
<path d="M56.1063 294.563C55.3412 295.583 53.811 295.328 52.5358 294.308C51.2607 293.288 50.7506 291.757 51.5157 290.737C52.2808 289.717 53.811 289.972 55.0862 290.992C56.3613 292.267 56.8714 293.798 56.1063 294.563Z" fill="#A4D7E8"/>
</g>
<mask id="mask22_412_16312" style="mask-type:luminance" maskUnits="userSpaceOnUse" x="0" y="0" width="513" height="434">
<path d="M512.871 0H0V433.811H512.871V0Z" fill="white"/>
</mask>
<g mask="url(#mask22_412_16312)">
<path d="M63.2495 304C62.2293 304.765 60.4441 304.255 59.424 302.725C58.4038 301.195 58.1488 299.41 59.1689 298.644C60.1891 297.879 61.9743 298.389 62.9944 299.92C64.2696 301.45 64.2696 303.235 63.2495 304Z" fill="#A4D7E8"/>
</g>
<mask id="mask23_412_16312" style="mask-type:luminance" maskUnits="userSpaceOnUse" x="0" y="0" width="513" height="434">
<path d="M512.871 0H0V433.811H512.871V0Z" fill="white"/>
</mask>
<g mask="url(#mask23_412_16312)">
<path d="M71.4106 313.943C70.3905 314.963 68.6053 314.453 67.0751 312.923C65.7999 311.393 65.5449 309.608 66.565 308.587C67.5851 307.567 69.3704 308.077 70.9006 309.607C72.1757 310.883 72.4308 312.923 71.4106 313.943Z" fill="#A4D7E8"/>
</g>
<mask id="mask24_412_16312" style="mask-type:luminance" maskUnits="userSpaceOnUse" x="0" y="0" width="513" height="434">
<path d="M512.871 0H0V433.811H512.871V0Z" fill="white"/>
</mask>
<g mask="url(#mask24_412_16312)">
<path d="M81.8649 321.342C81.3549 322.617 79.3146 322.872 77.5294 322.107C75.7441 321.342 74.979 319.557 75.4891 318.281C75.9992 317.006 78.0394 316.751 79.8247 317.516C81.6099 318.536 82.375 320.067 81.8649 321.342Z" fill="#A4D7E8"/>
</g>
<mask id="mask25_412_16312" style="mask-type:luminance" maskUnits="userSpaceOnUse" x="0" y="0" width="513" height="434">
<path d="M512.871 0H0V433.811H512.871V0Z" fill="white"/>
</mask>
<g mask="url(#mask25_412_16312)">
<path d="M94.6186 324.402C94.3636 325.932 92.5783 326.697 90.5381 326.442C88.4978 326.187 87.2227 324.657 87.2227 323.382C87.4777 321.851 89.2629 321.086 91.3032 321.341C93.3434 321.596 94.8736 322.871 94.6186 324.402Z" fill="#A4D7E8"/>
</g>
<mask id="mask26_412_16312" style="mask-type:luminance" maskUnits="userSpaceOnUse" x="0" y="0" width="513" height="434">
<path d="M512.871 0H0V433.811H512.871V0Z" fill="white"/>
</mask>
<g mask="url(#mask26_412_16312)">
<path d="M107.879 323.637C108.134 325.167 106.604 326.442 104.564 326.697C102.524 326.952 100.738 325.932 100.738 324.402C100.738 322.872 102.013 321.597 104.054 321.342C106.094 321.087 107.879 322.107 107.879 323.637Z" fill="#A4D7E8"/>
</g>
<mask id="mask27_412_16312" style="mask-type:luminance" maskUnits="userSpaceOnUse" x="0" y="0" width="513" height="434">
<path d="M512.871 0H0V433.811H512.871V0Z" fill="white"/>
</mask>
<g mask="url(#mask27_412_16312)">
<path d="M119.355 317.773C119.1 319.304 119.1 320.834 119.1 322.364C118.845 322.619 118.59 322.619 118.335 322.874C116.55 323.639 114.51 323.384 113.745 322.109C113.235 320.834 114.255 319.049 116.04 318.028C117.315 317.263 118.59 317.263 119.355 317.773Z" fill="#A4D7E8"/>
</g>
<mask id="mask28_412_16312" style="mask-type:luminance" maskUnits="userSpaceOnUse" x="0" y="0" width="513" height="434">
<path d="M512.871 0H0V433.811H512.871V0Z" fill="white"/>
</mask>
<g mask="url(#mask28_412_16312)">
<path d="M202.752 335.624C202.752 335.879 203.262 336.134 203.517 336.389C203.262 336.134 203.007 335.879 202.752 335.624ZM500.12 210.147C500.12 209.892 500.12 209.637 500.12 209.637C500.12 209.382 500.12 209.382 500.12 209.127C499.1 198.416 492.979 179.288 471.047 171.382C470.792 171.382 470.537 171.127 470.282 171.127C462.886 80.3357 420.04 37.4902 356.282 19.6378C346.846 17.0875 336.134 14.5372 327.973 14.5372C330.013 16.3224 331.289 18.8727 331.289 18.8727C326.443 19.3828 321.342 19.1278 316.497 18.6177C308.591 17.5976 301.705 15.3023 298.134 12.752C297.879 13.007 297.879 13.5171 297.624 13.7721C295.839 18.1076 297.879 22.9533 301.45 25.2486H301.195C300.94 25.2486 300.685 25.2486 300.43 25.2486C300.175 25.2486 300.175 25.2486 299.919 25.2486C297.369 24.9935 294.309 24.9935 290.738 25.5036C289.973 25.5036 289.208 25.7586 288.188 26.0137C287.423 26.2687 286.658 26.2687 285.893 26.5237C285.638 26.5237 285.638 26.5237 285.383 26.5237C284.362 26.7788 283.342 27.0338 282.322 27.2888C278.497 28.564 274.671 30.3492 272.121 32.6445C273.906 32.1345 275.436 31.8794 276.712 31.8794C278.242 31.6244 279.517 31.6244 280.792 31.8794C282.577 32.1345 283.852 32.6445 284.873 33.4096H284.618C275.691 35.7049 270.591 38.5103 264.98 46.9264C266.51 46.4163 268.295 46.1613 269.826 45.9062C272.886 45.3962 275.691 45.3962 278.242 45.9062C278.497 45.9062 279.007 46.1613 279.262 46.1613H279.007C272.121 48.9666 267.275 51.772 263.96 56.6176C263.705 56.8727 263.705 56.8727 263.45 57.1277C263.45 57.1277 263.45 57.3827 263.195 57.3827C262.94 57.6378 262.94 57.8928 262.685 58.1478C262.43 58.4029 262.175 58.9129 261.92 59.423C261.665 59.9331 261.41 60.1881 261.154 60.6982C268.295 55.8525 272.121 54.5774 280.027 52.7921C276.967 55.5975 274.416 58.9129 272.376 62.4834C272.121 62.9935 271.866 63.5035 271.611 63.7586C271.356 64.2686 271.101 64.5237 270.846 65.0337C270.081 66.3089 269.571 67.8391 269.061 69.1142C268.805 69.3693 268.805 69.8793 268.55 70.3894C268.295 70.8995 268.295 71.4095 268.04 71.9196C267.53 73.1948 267.02 74.725 266.765 76.0001C264.725 83.1411 263.705 90.792 263.705 97.6779V97.933C263.705 104.819 264.215 111.195 265.49 115.785C269.571 131.597 277.987 146.644 287.423 159.906C288.953 162.201 291.248 164.752 292.013 167.302C292.524 168.577 292.013 171.127 292.779 172.148C292.779 172.148 292.779 172.148 293.034 172.148C293.289 172.148 294.054 170.872 294.309 170.872C294.309 170.872 294.309 170.872 294.309 171.127C294.819 172.658 294.819 174.443 295.074 176.228C295.074 177.248 295.074 178.013 295.329 179.033V179.288C295.329 180.309 294.819 182.349 295.074 182.094C295.074 182.094 295.074 182.094 295.329 182.094C295.329 181.839 295.584 181.329 295.584 181.074C295.584 180.819 295.584 180.819 295.839 180.564C296.094 180.309 296.349 180.054 296.604 180.054C296.859 180.054 297.114 181.074 297.114 182.604C297.114 185.154 297.114 188.98 296.094 192.55C296.094 192.295 296.094 192.295 296.094 192.295C296.094 192.04 296.094 192.04 295.839 192.04C295.584 192.04 295.584 192.295 295.329 192.55L295.074 192.805C294.819 193.06 294.564 193.315 294.309 193.825C293.289 195.101 292.269 196.631 292.013 197.396C290.993 199.946 293.289 201.986 293.289 203.262C293.289 203.262 293.289 203.262 293.289 203.517C293.034 205.047 290.993 208.362 290.228 209.892C286.913 216.523 282.067 224.939 280.027 233.355C279.262 236.671 278.752 239.986 279.007 243.047C279.262 245.597 279.772 247.892 280.792 250.443C280.282 251.973 279.262 254.013 278.497 255.798C278.242 256.053 278.242 256.563 277.987 256.818C277.732 257.584 277.222 258.094 276.967 258.859C276.711 259.369 276.456 259.624 276.456 260.134C276.201 260.644 275.946 261.154 275.691 261.664C274.671 263.959 273.651 265.745 273.141 267.53C272.886 268.04 272.631 268.55 272.376 269.315C272.376 269.57 272.121 269.57 272.121 269.825C271.866 270.59 271.611 271.355 271.101 272.12C267.785 280.537 264.47 290.738 263.195 300.684C262.43 306.55 262.685 312.416 264.215 317.771C264.98 318.281 265.745 318.536 266.51 319.047C267.02 319.302 267.53 319.557 267.785 319.812C268.55 320.067 269.06 320.577 269.826 320.832C270.591 321.087 271.101 321.342 271.866 321.852C272.376 322.107 273.141 322.362 273.651 322.617H273.906C274.416 322.872 274.926 323.127 275.436 323.382V323.637C275.436 327.463 276.201 331.543 277.222 334.859C278.497 339.194 280.027 342.255 280.282 342.51C280.282 342.51 280.282 342.255 280.537 341.999C280.537 341.744 280.537 341.744 280.792 341.489C281.047 340.724 281.557 339.959 281.812 339.194C281.812 338.939 282.067 338.939 282.067 338.684C282.322 338.174 282.577 337.919 282.832 337.919C282.832 337.919 283.087 337.919 283.087 338.174C284.107 339.959 288.188 355.261 290.993 355.261H291.248C291.503 355.261 291.248 351.946 291.503 351.181C292.524 351.691 294.054 355.261 300.175 360.872C301.96 362.402 303.745 363.677 305.53 364.952C301.96 378.214 309.611 392.241 316.497 399.127H316.242C313.946 399.127 311.651 399.127 309.611 399.637C309.101 399.637 308.591 399.892 308.336 399.892C306.295 400.147 304.51 400.912 302.725 401.422C301.96 401.677 301.195 401.932 300.43 402.187C299.154 402.697 297.879 403.207 296.604 403.973C289.463 407.798 283.342 413.154 279.007 418.509H279.262C282.067 418.509 284.873 418.509 287.678 418.509C289.463 418.509 291.248 418.509 292.779 418.509C294.309 418.509 295.839 418.509 297.624 418.509C299.409 418.509 300.94 418.509 302.47 418.509C302.725 418.509 302.725 418.509 302.98 418.509C304.255 418.509 305.53 418.509 306.55 418.509C308.336 418.509 310.121 418.509 311.906 418.509C313.691 418.509 315.221 418.509 317.007 418.509C318.027 418.509 319.302 418.509 320.322 418.509C322.362 418.509 324.403 418.509 326.443 418.509C326.698 418.509 327.208 418.509 327.463 418.509C328.228 418.509 328.993 418.509 329.758 418.509C331.034 418.509 332.054 418.509 333.329 418.509C333.839 418.509 334.094 418.509 334.604 418.509H334.859C335.369 418.509 336.134 418.509 336.644 418.509C337.154 418.509 337.919 418.509 338.429 418.509C338.94 418.509 339.705 418.509 340.215 418.509C340.47 418.509 340.725 418.509 340.98 418.509C341.745 418.509 342.765 418.509 343.53 418.509C343.785 418.509 344.04 418.509 344.295 418.509C344.55 418.509 344.805 418.509 345.06 418.509C345.825 418.509 346.591 418.509 347.101 418.509C347.866 418.509 348.376 418.509 348.886 418.509C349.141 418.509 349.651 418.509 349.906 418.509C350.416 418.509 350.926 418.509 351.181 418.509H351.436C351.691 418.509 351.946 418.509 352.201 418.509H352.456C354.242 418.509 358.322 418.254 362.403 417.744C366.738 417.234 371.329 415.959 372.604 413.664C372.604 413.664 372.604 413.409 372.859 413.409C373.114 413.154 373.114 412.644 373.114 412.389C373.369 400.912 365.463 393.006 364.953 386.375C366.483 386.63 367.758 386.63 369.288 386.885C369.799 386.885 370.309 386.885 371.074 387.14C371.839 387.14 372.349 387.14 373.114 387.395C373.879 387.395 374.644 387.395 375.409 387.65C376.174 387.65 376.939 387.65 377.705 387.905H377.96C378.47 387.905 379.235 387.905 379.745 387.905C380.255 387.905 380.765 387.905 381.275 387.905C381.785 387.905 382.295 387.905 382.805 387.905C383.57 387.905 384.335 387.905 385.101 387.905H385.356C386.376 387.905 387.396 387.905 388.416 387.905C389.181 387.905 390.201 387.905 390.966 387.905C391.221 387.905 391.476 387.905 391.731 387.905C392.241 387.905 393.007 387.905 393.517 387.905C393.772 387.905 394.282 387.905 394.537 387.905C395.047 387.905 395.812 387.905 396.322 387.65C396.832 387.65 397.597 387.65 398.107 387.395C399.382 387.395 400.658 387.14 401.678 386.885C402.188 386.885 402.953 386.63 403.463 386.63C403.973 386.63 404.738 386.375 405.248 386.375C405.758 386.375 406.523 386.12 407.033 386.12C407.543 386.12 408.309 385.865 408.819 385.865C410.094 385.61 411.114 385.355 412.389 385.1C412.899 384.845 413.409 384.845 413.919 384.59C415.959 394.281 422.845 398.362 430.241 401.167H429.986C407.543 404.993 398.872 412.899 393.772 419.53C394.537 419.785 395.302 419.785 396.322 420.04C396.832 420.04 397.087 420.295 397.597 420.295C409.074 421.825 434.577 423.355 455.745 423.61C464.161 423.865 471.557 423.61 477.677 423.61C478.188 423.61 478.698 423.61 478.953 423.61C479.463 423.61 479.718 423.61 479.973 423.61C480.738 423.61 481.758 423.61 482.523 423.355C482.778 423.355 482.778 423.355 483.033 423.355C483.288 423.355 483.543 423.355 483.798 423.355C484.818 423.355 485.839 423.1 486.604 422.845C487.369 422.59 488.134 422.59 488.389 422.335C489.919 421.57 490.939 420.805 491.704 419.53C491.704 419.275 491.959 419.275 491.959 419.019C494.51 413.664 489.664 405.248 488.134 400.912C479.463 373.879 480.993 347.355 479.463 326.187C447.839 332.563 393.262 337.154 361.893 337.154C335.624 337.154 306.55 334.604 284.107 327.973C306.295 334.604 335.624 337.154 361.637 337.154C392.751 337.154 447.584 332.563 479.208 326.187C483.288 325.422 486.859 322.107 490.174 321.342C492.979 308.845 489.919 270.845 486.094 253.248C493.235 243.557 498.08 232.59 499.355 220.349C499.355 220.094 499.355 219.584 499.355 219.329C499.355 218.053 499.61 216.523 499.61 215.248C500.12 212.188 500.12 211.168 500.12 210.147ZM295.584 192.295V192.04C295.839 192.295 295.839 192.295 295.584 192.295Z" fill="#CBAA7A"/>
</g>
<mask id="mask29_412_16312" style="mask-type:luminance" maskUnits="userSpaceOnUse" x="0" y="0" width="513" height="434">
<path d="M512.871 0H0V433.811H512.871V0Z" fill="white"/>
</mask>
<g mask="url(#mask29_412_16312)">
<path d="M334.605 416.981C321.088 417.237 301.706 417.492 279.008 417.747C286.914 408.055 300.686 397.854 316.498 398.364C319.558 400.149 322.108 402.19 324.659 404.23C328.994 407.8 332.055 411.881 334.605 416.981Z" fill="#BAB5B0"/>
</g>
<mask id="mask30_412_16312" style="mask-type:luminance" maskUnits="userSpaceOnUse" x="0" y="0" width="513" height="434">
<path d="M512.871 0H0V433.811H512.871V0Z" fill="white"/>
</mask>
<g mask="url(#mask30_412_16312)">
<g opacity="0.23">
<mask id="mask31_412_16312" style="mask-type:luminance" maskUnits="userSpaceOnUse" x="279" y="364" width="95" height="55">
<path d="M373.112 364.445H279.26V418.002H373.112V364.445Z" fill="white"/>
</mask>
<g mask="url(#mask31_412_16312)">
<path d="M373.115 410.606C373.115 411.116 373.115 411.371 372.86 411.626C372.86 411.626 372.86 411.881 372.605 411.881C371.33 414.177 366.739 415.197 362.404 415.962C358.323 416.472 354.243 416.727 352.457 416.727H352.202C351.947 416.727 351.692 416.727 351.437 416.727H351.182C350.672 416.727 350.417 416.727 349.907 416.727C349.652 416.727 349.142 416.727 348.887 416.727C348.377 416.727 347.867 416.727 347.102 416.727C346.337 416.727 345.826 416.727 345.061 416.727C344.806 416.727 344.551 416.727 344.296 416.727C344.041 416.727 343.786 416.727 343.531 416.727C342.766 416.727 342.001 416.727 340.981 416.727C340.726 416.727 340.471 416.727 340.216 416.727C339.706 416.727 338.941 416.727 338.431 416.727C337.92 416.727 337.155 416.727 336.645 416.727C336.135 416.727 335.37 416.727 334.86 416.727H334.605C334.35 416.727 333.84 416.727 333.33 416.727C332.31 416.727 331.035 416.727 329.759 416.727C328.994 416.727 328.229 416.727 327.464 416.727C327.209 416.727 326.699 416.727 326.444 416.727C324.404 416.727 322.363 416.727 320.323 416.727C319.303 416.727 318.283 416.727 317.008 416.727C315.478 416.727 313.692 416.727 311.907 416.727C310.122 416.727 308.337 416.727 306.551 416.727C305.276 416.727 304.001 416.727 302.981 416.727C302.726 416.727 302.726 416.727 302.471 416.727C300.941 416.727 299.155 416.727 297.625 416.727C296.095 416.727 294.565 416.727 292.78 416.727C290.994 416.727 289.464 416.727 287.679 416.727C284.874 416.727 282.068 416.727 279.263 416.727H279.008C283.343 411.371 289.464 406.015 296.605 402.19C297.88 401.68 299.155 400.915 300.431 400.405C301.196 400.15 301.961 399.895 302.726 399.64C304.511 399.13 306.551 398.619 308.337 398.109C308.847 398.109 309.357 397.854 309.612 397.854C311.907 397.599 313.947 397.344 316.243 397.344H316.498C309.612 390.714 301.961 376.432 305.531 363.17C311.142 366.995 317.518 369.801 323.639 372.351C335.625 377.707 349.907 381.532 364.699 383.573C365.464 391.224 373.37 399.385 373.115 410.606Z" fill="#503324"/>
</g>
</g>
</g>
<mask id="mask32_412_16312" style="mask-type:luminance" maskUnits="userSpaceOnUse" x="0" y="0" width="513" height="434">
<path d="M512.871 0H0V433.811H512.871V0Z" fill="white"/>
</mask>
<g mask="url(#mask32_412_16312)">
<g opacity="0.23">
<mask id="mask33_412_16312" style="mask-type:luminance" maskUnits="userSpaceOnUse" x="202" y="12" width="269" height="325">
<path d="M470.025 12.5H202.75V336.392H470.025V12.5Z" fill="white"/>
</mask>
<g mask="url(#mask33_412_16312)">
<path d="M202.75 335.626C202.75 335.881 203.26 336.136 203.515 336.391C203.26 336.136 203.005 335.881 202.75 335.626ZM356.28 19.6398C346.844 17.0895 336.132 14.5391 327.971 14.5391C330.011 16.3244 331.287 18.8747 331.287 18.8747C326.441 19.3848 321.34 19.1297 316.495 18.6197C308.589 17.5995 301.703 15.3042 298.132 12.7539C297.877 13.0089 297.877 13.519 297.622 13.774C295.837 18.1096 297.877 22.9552 301.448 25.2505H301.193C300.938 25.2505 300.683 25.2505 300.428 25.2505C300.173 25.2505 300.173 25.2505 299.918 25.2505C297.367 24.9955 294.307 24.9955 290.736 25.5056C289.971 25.5056 289.206 25.7606 288.186 26.0156C287.421 26.2707 286.656 26.2706 285.891 26.5257C285.636 26.5257 285.636 26.5257 285.381 26.5257C284.361 26.7807 283.34 27.0358 282.32 27.2908C278.495 28.566 274.669 30.3512 272.119 32.6465C273.904 32.1364 275.434 31.8814 276.71 31.8814C278.24 31.6264 279.515 31.6264 280.79 31.8814C282.575 32.1364 283.85 32.6465 284.871 33.4116H284.616C275.689 35.7069 270.589 38.5122 264.978 46.9283C266.508 46.4183 268.293 46.1632 269.824 45.9082C272.884 45.3981 275.689 45.3981 278.24 45.9082C278.495 45.9082 279.005 46.1632 279.26 46.1632H279.005C272.119 48.9686 267.273 51.774 263.958 56.6196C263.703 56.8746 263.703 56.8746 263.448 57.1296C263.448 57.1296 263.448 57.3847 263.193 57.3847C262.938 57.6397 262.938 57.8947 262.683 58.1498C262.428 58.4048 262.173 58.9149 261.918 59.4249C261.663 59.935 261.408 60.19 261.153 60.7001C268.293 55.8545 272.119 54.5793 280.025 52.7941C276.965 55.5994 274.414 58.9149 272.374 62.4853C272.119 62.9954 271.864 63.5055 271.609 63.7605C271.354 64.2706 271.099 64.5256 270.844 65.0357C270.079 66.3108 269.569 67.841 269.059 69.1162C268.804 69.3712 268.804 69.8813 268.548 70.3914C268.293 70.9014 268.293 71.4115 268.038 71.9216C267.528 73.1967 267.018 74.7269 266.763 76.0021C265.743 79.5725 264.978 83.398 264.468 87.2235C270.844 73.9618 279.26 63.7605 288.951 56.1095C290.736 54.5793 292.267 52.029 289.971 51.0089C293.287 49.2236 298.132 49.7337 299.918 48.7136C301.703 47.6934 301.448 45.3981 296.602 42.8478C304.253 40.2975 309.354 44.123 311.649 43.3579C313.434 42.5928 311.394 36.217 315.985 33.1566C315.475 38.2572 321.34 40.2975 323.636 39.7874C326.186 39.2773 327.461 34.6867 333.327 34.1767C333.837 36.727 337.407 37.4921 340.213 37.4921C346.589 37.2371 352.709 37.4921 359.085 38.2572C389.689 42.3377 414.937 60.1901 429.474 100.74C438.656 126.499 440.186 152.257 438.911 175.21C446.562 170.619 458.293 167.304 469.514 170.874L470.535 170.364C462.629 79.8276 419.528 37.2371 356.28 19.6398Z" fill="#503324"/>
</g>
</g>
</g>
<mask id="mask34_412_16312" style="mask-type:luminance" maskUnits="userSpaceOnUse" x="0" y="0" width="513" height="434">
<path d="M512.871 0H0V433.811H512.871V0Z" fill="white"/>
</mask>
<g mask="url(#mask34_412_16312)">
<path d="M500.12 210.149C500.12 209.894 500.12 209.639 500.12 209.639C500.12 209.384 500.12 209.384 500.12 209.129C499.099 198.417 492.979 179.29 471.046 171.384C470.791 171.384 470.536 171.129 470.281 171.129C457.019 166.538 442.737 171.384 435.341 177.504C423.865 186.686 413.663 190.766 404.227 193.827C399.637 195.357 390.2 197.652 377.704 198.927H377.449C362.147 200.712 341.744 201.223 319.556 197.652C319.301 197.652 319.046 197.652 318.791 197.652C311.395 196.377 303.999 194.847 296.093 192.551V192.296V192.041C296.093 191.786 296.093 191.786 295.838 191.786C295.073 191.786 292.268 195.867 291.758 197.142C291.503 197.652 291.503 198.417 291.503 198.927V199.182C291.758 200.712 293.033 202.243 293.033 203.008C292.778 204.538 290.737 207.853 289.972 209.384C286.657 216.014 281.811 224.431 279.771 232.847C279.261 234.887 279.006 236.672 278.751 238.712C278.751 239.733 278.751 241.008 278.751 242.028C278.751 242.283 278.751 242.538 278.751 242.538C279.006 245.088 279.516 247.639 280.536 249.934C280.536 250.189 280.791 250.444 280.791 250.699C280.026 252.229 279.006 253.759 278.241 255.545C277.986 255.8 277.986 256.055 277.731 256.565C277.221 257.585 276.456 258.86 275.946 260.135C274.415 263.451 272.885 266.766 271.865 269.571C267.274 281.048 261.919 296.095 262.939 309.612C262.939 310.887 263.194 312.162 263.449 313.437C263.704 314.712 263.959 315.987 264.214 317.263C264.979 317.773 265.744 318.283 266.509 318.538C267.019 318.793 267.529 319.048 268.04 319.303C268.805 319.558 269.315 320.068 270.08 320.323C271.355 320.833 272.63 321.598 273.905 322.108H274.16C274.67 322.363 275.18 322.618 275.69 322.618C278.496 323.638 281.556 324.659 284.872 325.679C307.06 332.309 335.113 337.41 361.127 338.43C403.717 339.96 466.2 338.94 490.938 319.048C493.744 306.551 490.683 268.551 486.858 250.954C493.999 241.263 498.844 230.296 500.12 218.055C500.12 217.8 500.12 217.29 500.12 217.035C500.12 215.759 500.375 214.229 500.375 212.954C500.119 212.189 500.12 211.169 500.12 210.149ZM410.603 242.283C414.428 245.088 419.529 246.873 426.925 252.229C430.495 254.779 433.556 257.33 436.361 259.37C444.012 265.746 447.073 270.081 449.113 272.887C449.368 273.397 449.623 273.907 449.878 274.162C450.388 274.927 450.898 275.437 451.153 275.692C450.133 276.457 448.858 277.222 447.583 277.987C416.724 298.645 375.918 306.551 340.724 311.397C339.449 311.652 337.919 311.652 336.643 311.907H336.388C323.892 313.692 313.945 314.457 303.999 315.477C300.684 315.732 298.133 315.987 296.093 315.987C295.838 315.987 295.583 315.987 295.328 315.987C295.073 315.987 294.818 315.987 294.818 315.987C294.563 315.987 294.563 315.987 294.308 315.987C293.543 315.987 292.778 315.732 292.523 315.732C292.013 315.477 291.758 315.222 291.503 314.967C291.503 313.947 292.523 312.417 295.073 310.122C297.368 308.081 299.919 306.041 302.469 304.001C305.019 302.216 307.57 300.685 309.61 299.41C316.241 295.33 321.341 292.779 325.422 290.994C328.992 289.209 332.053 287.934 334.348 287.169C355.261 279.263 393.516 263.451 410.603 242.283Z" fill="#F6D81C"/>
</g>
<mask id="mask35_412_16312" style="mask-type:luminance" maskUnits="userSpaceOnUse" x="0" y="0" width="513" height="434">
<path d="M512.871 0H0V433.811H512.871V0Z" fill="white"/>
</mask>
<g mask="url(#mask35_412_16312)">
<g opacity="0.23">
<mask id="mask36_412_16312" style="mask-type:luminance" maskUnits="userSpaceOnUse" x="438" y="169" width="63" height="109">
<path d="M500.121 169.094H438.658V277.738H500.121V169.094Z" fill="white"/>
</mask>
<g mask="url(#mask36_412_16312)">
<path d="M500.12 210.155C500.12 209.9 500.12 209.645 500.12 209.645C500.12 209.39 500.12 209.39 500.12 209.135C499.1 198.424 492.979 179.296 471.046 171.39C470.791 171.39 470.536 171.135 470.281 171.135C464.925 169.35 459.315 169.095 454.214 169.605C467.986 171.9 482.523 182.612 482.523 205.31C482.523 220.867 473.852 239.229 460.08 253.001C455.234 257.847 447.838 263.202 438.912 261.672C442.738 264.987 447.838 271.363 449.113 273.148C449.368 273.659 449.624 274.169 449.879 274.424C450.389 275.189 450.899 275.699 451.154 275.954C457.019 283.35 475.127 265.753 486.603 250.961C493.744 241.269 498.59 230.303 499.865 218.061C499.865 217.806 499.865 217.296 499.865 217.041C499.865 215.766 500.12 214.236 500.12 212.961C500.12 212.196 500.12 211.175 500.12 210.155Z" fill="#503324"/>
</g>
</g>
</g>
<mask id="mask37_412_16312" style="mask-type:luminance" maskUnits="userSpaceOnUse" x="0" y="0" width="513" height="434">
<path d="M512.871 0H0V433.811H512.871V0Z" fill="white"/>
</mask>
<g mask="url(#mask37_412_16312)">
<path d="M456.255 421.571C432.026 421.061 401.678 419.276 393.771 417.49C399.127 410.86 408.053 402.954 430.241 398.873C441.463 402.954 451.409 411.88 456.255 421.571Z" fill="#BAB5B0"/>
</g>
<mask id="mask38_412_16312" style="mask-type:luminance" maskUnits="userSpaceOnUse" x="0" y="0" width="513" height="434">
<path d="M512.871 0H0V433.811H512.871V0Z" fill="white"/>
</mask>
<g mask="url(#mask38_412_16312)">
<g opacity="0.23">
<mask id="mask39_412_16312" style="mask-type:luminance" maskUnits="userSpaceOnUse" x="290" y="325" width="203" height="97">
<path d="M492.976 325.938H290.99V421.32H492.976V325.938Z" fill="white"/>
</mask>
<g mask="url(#mask39_412_16312)">
<path d="M492.721 416.475C492.721 416.73 492.466 416.985 492.211 417.24C491.446 418.26 490.426 419.28 488.896 420.045C488.386 420.3 487.876 420.3 487.111 420.555C486.346 420.81 485.325 420.81 484.305 421.065C484.05 421.065 483.795 421.065 483.54 421.065C483.285 421.065 483.285 421.065 483.03 421.065C482.265 421.065 481.5 421.065 480.48 421.32C480.225 421.32 479.715 421.32 479.46 421.32C478.95 421.32 478.695 421.32 478.184 421.32C472.319 421.575 464.668 421.575 456.252 421.32C435.084 421.065 409.581 419.535 398.104 418.005C397.594 418.005 397.084 418.005 396.829 417.75C395.809 417.495 395.044 417.495 394.279 417.24C396.574 414.434 397.339 413.414 398.869 412.139C425.393 400.662 452.171 411.629 459.822 412.139C469.003 412.904 478.95 411.119 472.574 397.857C465.178 382.555 462.882 370.314 461.607 356.287C460.587 343.79 452.936 341.495 436.104 343.28C419.017 345.065 375.916 348.126 344.292 343.28C321.594 339.71 307.312 335.629 290.99 327.213C312.158 332.824 337.151 337.159 360.869 337.924C401.42 339.455 453.191 337.414 479.715 325.428C480.99 346.34 479.715 372.099 488.386 398.112C489.916 403.213 494.762 411.119 492.721 416.475Z" fill="#503324"/>
</g>
</g>
</g>
<mask id="mask40_412_16312" style="mask-type:luminance" maskUnits="userSpaceOnUse" x="0" y="0" width="513" height="434">
<path d="M512.871 0H0V433.811H512.871V0Z" fill="white"/>
</mask>
<g mask="url(#mask40_412_16312)">
<path d="M336.39 312.674C323.893 314.459 313.692 315.224 303.745 316.244C296.095 317.009 291.504 317.264 291.504 315.479C291.504 314.459 292.524 312.929 295.074 310.633C297.37 308.593 299.92 306.553 302.47 304.513C313.182 297.372 320.068 293.801 325.678 291.506C327.719 293.801 328.994 295.841 330.779 298.137C333.329 302.727 335.88 307.828 336.39 312.674Z" fill="#BAB5B0"/>
</g>
<mask id="mask41_412_16312" style="mask-type:luminance" maskUnits="userSpaceOnUse" x="0" y="0" width="513" height="434">
<path d="M512.871 0H0V433.811H512.871V0Z" fill="white"/>
</mask>
<g mask="url(#mask41_412_16312)">
<g opacity="0.23">
<mask id="mask42_412_16312" style="mask-type:luminance" maskUnits="userSpaceOnUse" x="291" y="263" width="161" height="55">
<path d="M451.155 263.197H291.76V317.009H451.155V263.197Z" fill="white"/>
</mask>
<g mask="url(#mask42_412_16312)">
<path d="M451.155 276.203C419.786 298.901 377.196 307.062 340.726 312.162C326.189 314.203 314.968 315.223 304.001 316.498C296.35 317.263 291.76 317.518 291.76 315.733C295.84 313.693 299.411 311.907 302.471 310.377C322.364 310.887 370.31 298.901 391.733 292.27C416.726 284.619 437.639 272.887 440.444 263.451C442.994 266.257 448.095 272.122 448.605 273.397C448.86 273.908 449.115 274.418 449.37 274.928C450.135 275.183 450.645 275.693 451.155 276.203Z" fill="#503324"/>
</g>
</g>
</g>
<mask id="mask43_412_16312" style="mask-type:luminance" maskUnits="userSpaceOnUse" x="0" y="0" width="513" height="434">
<path d="M512.871 0H0V433.811H512.871V0Z" fill="white"/>
</mask>
<g mask="url(#mask43_412_16312)">
<path d="M311.65 341.744V349.14" stroke="#A57F46" stroke-width="1.9866" stroke-miterlimit="10" stroke-linecap="round" stroke-linejoin="round"/>
</g>
<mask id="mask44_412_16312" style="mask-type:luminance" maskUnits="userSpaceOnUse" x="0" y="0" width="513" height="434">
<path d="M512.871 0H0V433.811H512.871V0Z" fill="white"/>
</mask>
<g mask="url(#mask44_412_16312)">
<path d="M319.303 346.59V353.986" stroke="#A57F46" stroke-width="1.9866" stroke-miterlimit="10" stroke-linecap="round" stroke-linejoin="round"/>
</g>
<mask id="mask45_412_16312" style="mask-type:luminance" maskUnits="userSpaceOnUse" x="0" y="0" width="513" height="434">
<path d="M512.871 0H0V433.811H512.871V0Z" fill="white"/>
</mask>
<g mask="url(#mask45_412_16312)">
<path d="M402.699 272.885V280.026" stroke="#A57F46" stroke-width="1.9866" stroke-miterlimit="10" stroke-linecap="round" stroke-linejoin="round"/>
</g>
<mask id="mask46_412_16312" style="mask-type:luminance" maskUnits="userSpaceOnUse" x="0" y="0" width="513" height="434">
<path d="M512.871 0H0V433.811H512.871V0Z" fill="white"/>
</mask>
<g mask="url(#mask46_412_16312)">
<path d="M411.367 275.436V282.831" stroke="#A57F46" stroke-width="1.9866" stroke-miterlimit="10" stroke-linecap="round" stroke-linejoin="round"/>
</g>
<mask id="mask47_412_16312" style="mask-type:luminance" maskUnits="userSpaceOnUse" x="0" y="0" width="513" height="434">
<path d="M512.871 0H0V433.811H512.871V0Z" fill="white"/>
</mask>
<g mask="url(#mask47_412_16312)">
<path d="M423.865 145.621V153.017" stroke="#A57F46" stroke-width="1.9866" stroke-miterlimit="10" stroke-linecap="round" stroke-linejoin="round"/>
</g>
<mask id="mask48_412_16312" style="mask-type:luminance" maskUnits="userSpaceOnUse" x="0" y="0" width="513" height="434">
<path d="M512.871 0H0V433.811H512.871V0Z" fill="white"/>
</mask>
<g mask="url(#mask48_412_16312)">
<path d="M431.006 149.449V156.845" stroke="#A57F46" stroke-width="1.9866" stroke-miterlimit="10" stroke-linecap="round" stroke-linejoin="round"/>
</g>
<mask id="mask49_412_16312" style="mask-type:luminance" maskUnits="userSpaceOnUse" x="0" y="0" width="513" height="434">
<path d="M512.871 0H0V433.811H512.871V0Z" fill="white"/>
</mask>
<g mask="url(#mask49_412_16312)">
<g opacity="0.23">
<mask id="mask50_412_16312" style="mask-type:luminance" maskUnits="userSpaceOnUse" x="269" y="248" width="100" height="29">
<path d="M368.78 248.41H269.062V276.464H368.78V248.41Z" fill="white"/>
</mask>
<g mask="url(#mask50_412_16312)">
<path d="M269.062 276.461C273.653 271.105 279.009 263.964 281.559 262.434C286.915 259.118 294.311 259.629 300.432 259.629C315.734 259.629 327.465 272.125 343.787 273.91C353.733 274.93 371.331 265.239 368.78 260.649C366.485 256.823 362.66 259.629 341.747 259.118C325.935 258.608 311.908 257.333 296.606 254.783C293.036 254.273 284.109 254.018 281.049 248.662C280.284 251.212 277.734 257.078 276.458 259.629C273.398 265.239 270.848 272.125 269.062 276.461Z" fill="#503324"/>
</g>
</g>
</g>
<mask id="mask51_412_16312" style="mask-type:luminance" maskUnits="userSpaceOnUse" x="0" y="0" width="513" height="434">
<path d="M512.871 0H0V433.811H512.871V0Z" fill="white"/>
</mask>
<g mask="url(#mask51_412_16312)">
<path d="M295.584 192.549C346.336 207.086 398.107 196.884 403.718 193.824" stroke="black" stroke-opacity="0.85" stroke-width="1.3452" stroke-miterlimit="10" stroke-linecap="round" stroke-linejoin="round"/>
</g>
<mask id="mask52_412_16312" style="mask-type:luminance" maskUnits="userSpaceOnUse" x="0" y="0" width="513" height="434">
<path d="M512.871 0H0V433.811H512.871V0Z" fill="white"/>
</mask>
<g mask="url(#mask52_412_16312)">
<path d="M487.114 251.974C491.194 268.296 493.49 306.041 490.684 319.047C470.282 337.155 408.054 339.96 360.873 338.43C334.604 337.41 306.806 332.309 284.363 325.933C281.302 324.913 278.242 323.893 275.437 322.873C272.121 321.598 269.061 320.068 266 318.792C265.235 318.282 264.47 318.027 263.705 317.517C263.45 316.242 263.195 314.967 262.94 313.437C262.685 312.162 262.685 310.886 262.43 309.611C261.665 296.86 266.255 283.088 270.591 271.866C270.846 271.101 271.101 270.336 271.611 269.571C271.866 269.061 271.866 268.806 272.121 268.296C272.886 266.256 274.161 263.705 275.181 261.41C275.437 260.9 275.692 260.39 275.947 259.88C276.202 259.37 276.457 258.86 276.712 258.35C276.712 258.095 276.967 257.84 276.967 257.584C277.222 257.329 277.222 256.819 277.477 256.564C278.497 254.524 279.517 252.484 280.537 250.699C280.537 250.444 280.282 250.189 280.282 249.933C279.262 247.638 278.497 245.088 278.497 242.538C278.497 242.282 278.497 242.027 278.497 242.027C278.497 241.007 278.497 239.987 278.497 238.712C278.752 236.672 279.007 234.887 279.517 232.846C281.557 224.43 286.148 216.014 289.463 209.383C290.228 207.853 292.269 204.283 292.524 202.752C292.524 201.732 291.249 200.457 290.994 198.927V198.672C290.994 198.162 290.994 197.652 291.249 197.142C291.504 196.377 292.779 194.846 293.544 193.571C293.799 193.316 294.054 192.806 294.309 192.551L294.564 192.296C294.819 192.041 295.074 192.041 295.074 192.041C295.329 192.041 295.329 192.041 295.329 192.296V192.551" stroke="black" stroke-opacity="0.85" stroke-width="1.3452" stroke-miterlimit="10" stroke-linecap="round" stroke-linejoin="round"/>
</g>
<mask id="mask53_412_16312" style="mask-type:luminance" maskUnits="userSpaceOnUse" x="0" y="0" width="513" height="434">
<path d="M512.871 0H0V433.811H512.871V0Z" fill="white"/>
</mask>
<g mask="url(#mask53_412_16312)">
<path d="M266 104.562C266 93.5959 269.315 80.3342 277.987 76.5087C288.188 71.9181 299.154 78.5489 309.356 75.4885C311.141 74.9785 314.711 72.9382 315.476 70.8979C316.242 69.1127 314.456 67.0724 314.456 67.0724C316.241 67.0724 318.537 69.1127 320.577 69.3677C328.738 69.8778 335.114 60.9516 341.49 56.8711C362.913 43.8644 381.785 42.0792 399.892 61.9718C403.973 66.5624 411.114 77.2738 411.369 91.0455C411.879 111.448 411.624 119.864 394.792 139.247C374.644 162.2 326.698 183.112 293.799 156.844C278.242 144.858 266.255 124.965 266 104.562Z" fill="#F9DCB3"/>
</g>
<mask id="mask54_412_16312" style="mask-type:luminance" maskUnits="userSpaceOnUse" x="0" y="0" width="513" height="434">
<path d="M512.871 0H0V433.811H512.871V0Z" fill="white"/>
</mask>
<g mask="url(#mask54_412_16312)">
<path d="M315.22 101.758C305.784 99.4626 302.978 117.315 306.549 129.046C309.354 138.993 316.75 144.603 324.911 145.879C340.213 148.174 358.065 142.053 363.676 131.087C369.032 120.63 364.696 109.154 356.535 102.523C347.609 95.3821 335.367 91.8116 328.227 96.9123L315.22 101.758Z" fill="#A57F46"/>
</g>
<mask id="mask55_412_16312" style="mask-type:luminance" maskUnits="userSpaceOnUse" x="0" y="0" width="513" height="434">
<path d="M512.871 0H0V433.811H512.871V0Z" fill="white"/>
</mask>
<g mask="url(#mask55_412_16312)">
<path d="M266.255 104.559C266.51 114.506 268.805 126.747 278.496 141.029C285.892 137.459 296.604 129.552 301.704 113.74C307.06 97.4183 304.765 78.2909 301.449 76.2506C293.288 75.7405 285.637 72.6801 277.476 76.7607C273.396 78.5459 265.745 85.9419 266.255 104.559Z" fill="#A57F46"/>
</g>
<mask id="mask56_412_16312" style="mask-type:luminance" maskUnits="userSpaceOnUse" x="0" y="0" width="513" height="434">
<path d="M512.871 0H0V433.811H512.871V0Z" fill="white"/>
</mask>
<g mask="url(#mask56_412_16312)">
<path d="M332.564 64.0112C346.846 115.273 406.779 122.924 410.605 112.722C412.9 106.092 414.94 78.8031 400.403 62.736C394.537 56.3602 383.571 45.6488 367.504 47.179C352.457 48.7092 339.195 57.1253 332.564 64.0112Z" fill="#A57F46"/>
</g>
<mask id="mask57_412_16312" style="mask-type:luminance" maskUnits="userSpaceOnUse" x="0" y="0" width="513" height="434">
<path d="M512.871 0H0V433.811H512.871V0Z" fill="white"/>
</mask>
<g mask="url(#mask57_412_16312)">
<path d="M310.12 103.033C309.1 99.7174 314.71 95.3818 322.361 93.0865C330.012 90.7912 337.153 91.5563 338.174 94.6167C339.194 97.9322 333.583 102.268 325.932 104.563C318.026 107.113 311.14 106.348 310.12 103.033Z" fill="black" fill-opacity="0.85"/>
</g>
<mask id="mask58_412_16312" style="mask-type:luminance" maskUnits="userSpaceOnUse" x="0" y="0" width="513" height="434">
<path d="M512.871 0H0V433.811H512.871V0Z" fill="white"/>
</mask>
<g mask="url(#mask58_412_16312)">
<path d="M303.491 195.1C302.726 197.14 301.961 198.925 301.961 201.22" stroke="black" stroke-opacity="0.85" stroke-width="1.3452" stroke-miterlimit="10" stroke-linecap="round" stroke-linejoin="round"/>
</g>
<mask id="mask59_412_16312" style="mask-type:luminance" maskUnits="userSpaceOnUse" x="0" y="0" width="513" height="434">
<path d="M512.871 0H0V433.811H512.871V0Z" fill="white"/>
</mask>
<g mask="url(#mask59_412_16312)">
<path d="M316.494 197.65C315.474 199.691 315.219 202.241 315.219 204.281" stroke="black" stroke-opacity="0.85" stroke-width="1.3452" stroke-miterlimit="10" stroke-linecap="round" stroke-linejoin="round"/>
</g>
<mask id="mask60_412_16312" style="mask-type:luminance" maskUnits="userSpaceOnUse" x="0" y="0" width="513" height="434">
<path d="M512.871 0H0V433.811H512.871V0Z" fill="white"/>
</mask>
<g mask="url(#mask60_412_16312)">
<path d="M332.054 199.691L331.289 204.792" stroke="black" stroke-opacity="0.85" stroke-width="1.3452" stroke-miterlimit="10" stroke-linecap="round" stroke-linejoin="round"/>
</g>
<mask id="mask61_412_16312" style="mask-type:luminance" maskUnits="userSpaceOnUse" x="0" y="0" width="513" height="434">
<path d="M512.871 0H0V433.811H512.871V0Z" fill="white"/>
</mask>
<g mask="url(#mask61_412_16312)">
<path d="M343.02 201.221V201.986V202.496V203.516V204.026V204.536V205.046" stroke="black" stroke-opacity="0.85" stroke-width="1.3452" stroke-miterlimit="10" stroke-linecap="round" stroke-linejoin="round"/>
</g>
<mask id="mask62_412_16312" style="mask-type:luminance" maskUnits="userSpaceOnUse" x="0" y="0" width="513" height="434">
<path d="M512.871 0H0V433.811H512.871V0Z" fill="white"/>
</mask>
<g mask="url(#mask62_412_16312)">
<path d="M336.898 201.475V201.985V202.495V203.005V203.77V204.28" stroke="black" stroke-opacity="0.85" stroke-width="1.3452" stroke-miterlimit="10" stroke-linecap="round" stroke-linejoin="round"/>
</g>
<mask id="mask63_412_16312" style="mask-type:luminance" maskUnits="userSpaceOnUse" x="0" y="0" width="513" height="434">
<path d="M512.871 0H0V433.811H512.871V0Z" fill="white"/>
</mask>
<g mask="url(#mask63_412_16312)">
<path d="M379.746 199.691V200.201V200.712V201.987V202.497" stroke="black" stroke-opacity="0.85" stroke-width="1.3452" stroke-miterlimit="10" stroke-linecap="round" stroke-linejoin="round"/>
</g>
<mask id="mask64_412_16312" style="mask-type:luminance" maskUnits="userSpaceOnUse" x="0" y="0" width="513" height="434">
<path d="M512.871 0H0V433.811H512.871V0Z" fill="white"/>
</mask>
<g mask="url(#mask64_412_16312)">
<path d="M384.078 199.691V200.456V201.477V201.987" stroke="black" stroke-opacity="0.85" stroke-width="1.3452" stroke-miterlimit="10" stroke-linecap="round" stroke-linejoin="round"/>
</g>
<mask id="mask65_412_16312" style="mask-type:luminance" maskUnits="userSpaceOnUse" x="0" y="0" width="513" height="434">
<path d="M512.871 0H0V433.811H512.871V0Z" fill="white"/>
</mask>
<g mask="url(#mask65_412_16312)">
<path d="M332.052 245.343C331.286 243.302 329.501 241.772 326.186 241.517C319.045 241.007 311.649 241.007 302.723 240.752C302.468 241.517 302.213 242.027 301.958 242.792C300.427 246.873 298.387 250.698 296.092 254.524C295.582 255.544 295.072 256.309 294.562 257.329C290.991 263.45 287.931 269.316 287.676 276.712C291.756 276.712 295.582 276.712 299.662 276.967C299.407 271.611 301.448 267.02 303.998 262.43C307.568 261.92 308.078 263.45 308.333 265.49C308.844 269.316 309.609 273.396 311.904 277.477C316.239 277.732 320.32 277.987 324.911 278.242C322.105 273.141 322.615 267.53 320.575 263.705C320.065 262.685 319.555 261.92 318.535 261.155C319.3 260.9 319.555 260.9 319.81 260.9C322.105 260.39 323.89 259.369 325.676 258.349C328.736 256.309 331.031 253.504 332.052 249.933C332.307 248.403 332.562 246.873 332.052 245.343ZM320.32 252.228C319.3 254.014 317.515 255.289 315.474 255.544C312.924 255.799 310.629 255.799 308.078 255.799C309.609 253.249 310.884 250.953 312.159 248.658C314.709 248.658 317.005 248.658 319.045 248.913C320.83 248.913 321.085 250.188 320.32 252.228Z" fill="black" fill-opacity="0.85"/>
</g>
<mask id="mask66_412_16312" style="mask-type:luminance" maskUnits="userSpaceOnUse" x="0" y="0" width="513" height="434">
<path d="M512.871 0H0V433.811H512.871V0Z" fill="white"/>
</mask>
<g mask="url(#mask66_412_16312)">
<path d="M364.952 252.229C360.871 252.484 357.301 252.739 353.73 252.739C354.24 249.678 352.965 247.893 349.905 247.893C348.12 247.893 346.334 248.403 345.059 250.443C344.549 252.229 345.314 252.994 346.589 253.249C348.885 254.014 351.18 254.779 353.73 255.544C355.006 256.054 356.281 256.564 357.556 257.329C365.462 261.41 361.126 272.376 353.475 277.222C350.925 278.752 348.12 279.772 345.314 280.282C340.979 280.792 336.643 280.537 332.818 279.007C327.462 277.222 324.402 272.121 326.697 266.001C330.012 266.001 333.583 266.001 337.153 266.001C337.153 266.766 337.153 267.531 337.153 268.041C337.153 271.611 340.724 273.652 344.549 272.376C346.334 271.866 347.865 270.591 348.375 268.806C348.885 267.276 348.375 266.001 347.099 265.235C346.079 264.725 344.804 264.215 343.784 263.96C341.489 262.94 338.938 262.43 337.153 261.155C333.328 258.86 332.818 255.544 334.603 251.464C336.643 246.873 340.214 243.303 345.059 241.772C349.65 240.497 354.24 240.497 358.831 242.027C363.932 243.303 366.227 246.618 364.952 252.229Z" fill="black" fill-opacity="0.85"/>
</g>
<mask id="mask67_412_16312" style="mask-type:luminance" maskUnits="userSpaceOnUse" x="0" y="0" width="513" height="434">
<path d="M512.871 0H0V433.811H512.871V0Z" fill="white"/>
</mask>
<g mask="url(#mask67_412_16312)">
<path d="M331.289 66.0543C352.457 42.3362 373.88 35.4503 413.665 61.7187" stroke="black" stroke-opacity="0.85" stroke-width="3.6761" stroke-miterlimit="10" stroke-linecap="round" stroke-linejoin="round"/>
</g>
<mask id="mask68_412_16312" style="mask-type:luminance" maskUnits="userSpaceOnUse" x="0" y="0" width="513" height="434">
<path d="M512.871 0H0V433.811H512.871V0Z" fill="white"/>
</mask>
<g mask="url(#mask68_412_16312)">
<path d="M308.589 73.7038C283.596 70.3884 266.509 76.7642 256.562 119.865" stroke="black" stroke-opacity="0.85" stroke-width="3.6761" stroke-miterlimit="10" stroke-linecap="round" stroke-linejoin="round"/>
</g>
<mask id="mask69_412_16312" style="mask-type:luminance" maskUnits="userSpaceOnUse" x="0" y="0" width="513" height="434">
<path d="M512.871 0H0V433.811H512.871V0Z" fill="white"/>
</mask>
<g mask="url(#mask69_412_16312)">
<path d="M470.024 171.127C462.628 80.0798 419.782 37.2343 356.024 19.637C346.588 17.0867 335.877 14.5364 327.715 14.5364H327.46C329.501 16.0666 330.776 18.3619 331.031 18.8719C318.534 20.1471 303.232 16.5766 297.622 12.4961C297.367 12.7511 297.367 13.2612 297.111 13.5162C295.071 17.8518 297.111 22.4424 300.427 24.9927C300.427 24.9927 300.682 24.9927 300.682 25.2477C294.561 23.7175 279.004 26.0128 271.353 32.3887C271.353 32.3887 271.353 32.3887 271.098 32.6437C277.219 31.1135 281.299 31.3685 283.85 33.1538C274.924 35.4491 269.568 37.9994 264.212 46.4155C269.313 44.8853 274.669 44.3752 278.239 45.3953C278.239 45.3953 278.239 45.3953 278.494 45.3953C271.353 48.2007 266.763 51.0061 263.192 55.8517C262.937 56.1067 262.937 56.1067 262.682 56.3618C262.682 56.3618 262.682 56.6168 262.427 56.6168C262.172 56.8718 262.172 57.1269 261.917 57.3819C261.662 57.892 261.407 58.147 261.152 58.6571C260.897 59.1671 260.642 59.4222 260.387 59.9322C267.528 55.0866 271.353 53.8114 279.259 52.0262C276.199 54.8316 273.648 58.147 271.353 61.7175C271.098 62.2275 270.843 62.7376 270.588 62.9926C270.333 63.5027 270.078 63.7577 269.823 64.2678C269.058 65.5429 268.548 67.0731 268.038 68.3483C267.783 68.6033 267.783 69.1134 267.528 69.6235C267.273 70.1335 267.273 70.6436 267.018 71.1537C266.508 72.4288 265.997 73.959 265.742 75.2342C263.702 82.6302 262.682 90.2812 262.682 97.167C262.682 104.053 263.192 110.429 264.467 115.019C268.548 130.831 276.964 145.878 286.4 159.14C287.93 161.435 290.226 163.986 290.991 166.536C291.501 167.811 290.991 170.361 291.756 171.382C292.011 171.892 293.031 169.851 293.286 170.361C293.286 170.872 293.541 171.382 293.541 171.637C293.541 172.147 293.796 172.657 293.796 173.167C293.796 173.422 293.796 173.422 293.796 173.677C294.051 175.207 294.051 176.992 294.051 178.268C294.051 179.288 293.286 181.838 294.051 181.073C294.051 180.818 294.306 180.308 294.306 179.798C294.306 179.543 294.561 179.543 294.561 179.288C294.816 179.033 295.071 178.778 295.326 178.778C295.836 178.778 296.091 184.898 295.071 191.019C295.071 191.274 295.071 191.274 295.071 191.529" stroke="black" stroke-opacity="0.85" stroke-width="1.3452" stroke-miterlimit="10" stroke-linecap="round" stroke-linejoin="round"/>
</g>
<mask id="mask70_412_16312" style="mask-type:luminance" maskUnits="userSpaceOnUse" x="0" y="0" width="513" height="434">
<path d="M512.871 0H0V433.811H512.871V0Z" fill="white"/>
</mask>
<g mask="url(#mask70_412_16312)">
<path d="M275.435 322.871C275.18 332.052 280.281 341.744 280.281 341.744C280.281 341.744 282.321 335.878 283.086 337.408C284.106 339.193 288.442 355.26 291.247 354.495C291.502 354.495 291.247 350.16 291.502 350.415C292.522 350.925 294.052 354.495 300.173 360.106C306.804 365.972 315.475 369.797 323.636 373.368C353.985 386.629 398.871 391.73 428.965 376.683" stroke="black" stroke-opacity="0.85" stroke-width="1.3452" stroke-miterlimit="10" stroke-linecap="round" stroke-linejoin="round"/>
</g>
<mask id="mask71_412_16312" style="mask-type:luminance" maskUnits="userSpaceOnUse" x="0" y="0" width="513" height="434">
<path d="M512.871 0H0V433.811H512.871V0Z" fill="white"/>
</mask>
<g mask="url(#mask71_412_16312)">
<path d="M305.785 364.441C301.96 377.703 309.866 391.475 316.752 398.106C300.684 397.596 287.168 407.797 279.262 417.488" stroke="black" stroke-opacity="0.85" stroke-width="1.3452" stroke-miterlimit="10" stroke-linecap="round" stroke-linejoin="round"/>
</g>
<mask id="mask72_412_16312" style="mask-type:luminance" maskUnits="userSpaceOnUse" x="0" y="0" width="513" height="434">
<path d="M512.871 0H0V433.811H512.871V0Z" fill="white"/>
</mask>
<g mask="url(#mask72_412_16312)">
<path d="M279.262 417.743C316.752 417.233 346.08 416.723 352.711 416.723C356.792 416.468 373.114 416.213 373.369 410.602C373.624 399.125 365.463 391.984 365.208 385.354" stroke="black" stroke-opacity="0.85" stroke-width="1.3452" stroke-miterlimit="10" stroke-linecap="round" stroke-linejoin="round"/>
</g>
<mask id="mask73_412_16312" style="mask-type:luminance" maskUnits="userSpaceOnUse" x="0" y="0" width="513" height="434">
<path d="M512.871 0H0V433.811H512.871V0Z" fill="white"/>
</mask>
<g mask="url(#mask73_412_16312)">
<path d="M414.176 382.803C416.216 393.004 422.847 396.32 430.498 399.125" stroke="black" stroke-opacity="0.85" stroke-width="1.3452" stroke-miterlimit="10" stroke-linecap="round" stroke-linejoin="round"/>
</g>
<mask id="mask74_412_16312" style="mask-type:luminance" maskUnits="userSpaceOnUse" x="0" y="0" width="513" height="434">
<path d="M512.871 0H0V433.811H512.871V0Z" fill="white"/>
</mask>
<g mask="url(#mask74_412_16312)">
<path d="M479.971 325.934C481.247 346.846 479.972 372.605 488.643 398.873C490.428 404.229 497.824 415.96 488.898 420.041C481.502 423.356 407.032 420.551 394.025 417.49C399.381 410.86 408.052 402.954 430.495 399.128" stroke="black" stroke-opacity="0.85" stroke-width="1.3452" stroke-miterlimit="10" stroke-linecap="round" stroke-linejoin="round"/>
</g>
<mask id="mask75_412_16312" style="mask-type:luminance" maskUnits="userSpaceOnUse" x="0" y="0" width="513" height="434">
<path d="M512.871 0H0V433.811H512.871V0Z" fill="white"/>
</mask>
<g mask="url(#mask75_412_16312)">
<path d="M316.752 398.359C324.403 402.95 330.524 408.816 334.604 416.977" stroke="black" stroke-opacity="0.85" stroke-width="1.3452" stroke-miterlimit="10" stroke-linecap="round" stroke-linejoin="round"/>
</g>
<mask id="mask76_412_16312" style="mask-type:luminance" maskUnits="userSpaceOnUse" x="0" y="0" width="513" height="434">
<path d="M512.871 0H0V433.811H512.871V0Z" fill="white"/>
</mask>
<g mask="url(#mask76_412_16312)">
<path d="M430.496 398.873C441.463 402.954 451.409 411.625 456.254 421.316" stroke="black" stroke-opacity="0.85" stroke-width="1.3452" stroke-miterlimit="10" stroke-linecap="round" stroke-linejoin="round"/>
</g>
<mask id="mask77_412_16312" style="mask-type:luminance" maskUnits="userSpaceOnUse" x="0" y="0" width="513" height="434">
<path d="M512.871 0H0V433.811H512.871V0Z" fill="white"/>
</mask>
<g mask="url(#mask77_412_16312)">
<path d="M279.262 417.744C289.208 411.623 307.315 402.187 324.913 404.227" stroke="black" stroke-opacity="0.85" stroke-width="1.3452" stroke-miterlimit="10" stroke-linecap="round" stroke-linejoin="round"/>
</g>
<mask id="mask78_412_16312" style="mask-type:luminance" maskUnits="userSpaceOnUse" x="0" y="0" width="513" height="434">
<path d="M512.871 0H0V433.811H512.871V0Z" fill="white"/>
</mask>
<g mask="url(#mask78_412_16312)">
<path d="M396.324 417.487C405.76 412.641 417.492 409.326 428.968 407.796C434.069 407.286 438.915 407.031 443.76 407.286" stroke="black" stroke-opacity="0.85" stroke-width="1.3452" stroke-miterlimit="10" stroke-linecap="round" stroke-linejoin="round"/>
</g>
<mask id="mask79_412_16312" style="mask-type:luminance" maskUnits="userSpaceOnUse" x="0" y="0" width="513" height="434">
<path d="M512.871 0H0V433.811H512.871V0Z" fill="white"/>
</mask>
<g mask="url(#mask79_412_16312)">
<path d="M292.523 202.75C301.96 209.636 341.235 218.052 391.986 210.146" stroke="black" stroke-opacity="0.85" stroke-width="1.3452" stroke-miterlimit="10" stroke-linecap="round" stroke-linejoin="round"/>
</g>
<mask id="mask80_412_16312" style="mask-type:luminance" maskUnits="userSpaceOnUse" x="0" y="0" width="513" height="434">
<path d="M512.871 0H0V433.811H512.871V0Z" fill="white"/>
</mask>
<g mask="url(#mask80_412_16312)">
<path d="M327.973 118.59C324.403 112.47 323.893 104.309 323.893 104.309" stroke="black" stroke-opacity="0.85" stroke-width="1.4753" stroke-miterlimit="10" stroke-linecap="round" stroke-linejoin="round"/>
</g>
<mask id="mask81_412_16312" style="mask-type:luminance" maskUnits="userSpaceOnUse" x="0" y="0" width="513" height="434">
<path d="M512.871 0H0V433.811H512.871V0Z" fill="white"/>
</mask>
<g mask="url(#mask81_412_16312)">
<path d="M353.731 77.2737C356.026 66.5623 366.992 62.7368 376.684 66.0522C379.489 66.8173 382.294 68.0925 384.845 69.8777C385.61 70.3878 385.865 71.4079 385.355 72.173C384.845 72.6831 384.335 72.9381 383.57 72.9381C378.469 71.918 373.113 70.3878 368.268 71.1529C363.167 71.6629 359.852 74.7233 356.791 78.8039C355.771 80.079 353.221 79.0589 353.731 77.2737Z" fill="black" fill-opacity="0.85"/>
</g>
<mask id="mask82_412_16312" style="mask-type:luminance" maskUnits="userSpaceOnUse" x="0" y="0" width="513" height="434">
<path d="M512.871 0H0V433.811H512.871V0Z" fill="white"/>
</mask>
<g mask="url(#mask82_412_16312)">
<path d="M274.926 107.877C275.436 99.4607 282.832 93.0849 291.248 94.3601C293.799 94.6151 296.094 95.3802 298.389 96.6553C299.154 97.1654 299.409 97.9305 299.154 98.9506C298.899 99.7157 298.134 99.9708 297.369 99.7158C293.288 99.2057 289.208 98.6956 285.637 100.226C282.067 102.011 280.027 105.326 277.986 108.897C277.221 110.427 274.671 109.662 274.926 107.877Z" fill="black" fill-opacity="0.85"/>
</g>
<mask id="mask83_412_16312" style="mask-type:luminance" maskUnits="userSpaceOnUse" x="0" y="0" width="513" height="434">
<path d="M512.871 0H0V433.811H512.871V0Z" fill="white"/>
</mask>
<g mask="url(#mask83_412_16312)">
<path d="M312.414 114.763C314.199 121.139 323.635 128.025 327.971 118.588C335.877 125.729 341.488 113.998 338.682 106.092" stroke="black" stroke-opacity="0.85" stroke-width="1.4753" stroke-miterlimit="10" stroke-linecap="round" stroke-linejoin="round"/>
</g>
<mask id="mask84_412_16312" style="mask-type:luminance" maskUnits="userSpaceOnUse" x="0" y="0" width="513" height="434">
<path d="M512.871 0H0V433.811H512.871V0Z" fill="white"/>
</mask>
<g mask="url(#mask84_412_16312)">
<path d="M154.805 71.6622C137.208 82.1186 137.718 104.306 145.624 109.407C155.315 115.783 150.724 104.306 167.046 96.4004C173.422 93.34 178.778 91.8098 171.892 79.0582C167.812 71.1521 161.436 67.8367 154.805 71.6622Z" fill="#BAB5B0"/>
</g>
<mask id="mask85_412_16312" style="mask-type:luminance" maskUnits="userSpaceOnUse" x="0" y="0" width="513" height="434">
<path d="M512.871 0H0V433.811H512.871V0Z" fill="white"/>
</mask>
<g mask="url(#mask85_412_16312)">
<path d="M154.807 71.6622C137.209 82.1186 138.485 104.816 145.626 109.407C156.082 116.038 150.726 104.306 167.048 96.4004C173.424 93.34 178.78 91.8098 171.894 79.0582C167.813 71.1521 161.438 67.8367 154.807 71.6622Z" stroke="black" stroke-opacity="0.85" stroke-width="1.3452" stroke-miterlimit="10" stroke-linecap="round" stroke-linejoin="round"/>
</g>
<mask id="mask86_412_16312" style="mask-type:luminance" maskUnits="userSpaceOnUse" x="0" y="0" width="513" height="434">
<path d="M512.871 0H0V433.811H512.871V0Z" fill="white"/>
</mask>
<g mask="url(#mask86_412_16312)">
<path d="M159.141 70.1366C178.268 64.7809 201.986 68.3513 224.684 91.3043" stroke="black" stroke-opacity="0.85" stroke-width="1.3452" stroke-miterlimit="10" stroke-linecap="round" stroke-linejoin="round"/>
</g>
<mask id="mask87_412_16312" style="mask-type:luminance" maskUnits="userSpaceOnUse" x="0" y="0" width="513" height="434">
<path d="M512.871 0H0V433.811H512.871V0Z" fill="white"/>
</mask>
<g mask="url(#mask87_412_16312)">
<path d="M292.013 242.536C293.543 239.221 294.563 235.906 295.584 232.335C299.154 219.583 300.684 205.812 297.624 188.979C296.859 185.409 294.818 178.778 290.483 172.402C272.631 198.416 279.006 241.006 259.879 275.181C276.201 267.275 286.147 256.053 292.013 242.536Z" fill="black" fill-opacity="0.85"/>
</g>
<mask id="mask88_412_16312" style="mask-type:luminance" maskUnits="userSpaceOnUse" x="0" y="0" width="513" height="434">
<path d="M512.871 0H0V433.811H512.871V0Z" fill="white"/>
</mask>
<g mask="url(#mask88_412_16312)">
<path d="M330.778 298.387C317.516 302.212 308.59 307.058 291.248 315.729" stroke="black" stroke-opacity="0.85" stroke-width="1.3452" stroke-miterlimit="10" stroke-linecap="round" stroke-linejoin="round"/>
</g>
<mask id="mask89_412_16312" style="mask-type:luminance" maskUnits="userSpaceOnUse" x="0" y="0" width="513" height="434">
<path d="M512.871 0H0V433.811H512.871V0Z" fill="white"/>
</mask>
<g mask="url(#mask89_412_16312)">
<path d="M420.293 190.508C421.058 198.669 420.803 209.125 417.487 217.031C415.702 221.112 412.642 225.702 411.366 229.783C406.266 234.884 403.205 237.434 410.601 242.535" stroke="black" stroke-opacity="0.85" stroke-width="1.3452" stroke-miterlimit="10" stroke-linecap="round" stroke-linejoin="round"/>
</g>
<mask id="mask90_412_16312" style="mask-type:luminance" maskUnits="userSpaceOnUse" x="0" y="0" width="513" height="434">
<path d="M512.871 0H0V433.811H512.871V0Z" fill="white"/>
</mask>
<g mask="url(#mask90_412_16312)">
<path d="M420.039 207.6C422.589 203.775 426.16 198.929 427.435 194.594" stroke="black" stroke-opacity="0.85" stroke-width="1.3452" stroke-miterlimit="10" stroke-linecap="round" stroke-linejoin="round"/>
</g>
<mask id="mask91_412_16312" style="mask-type:luminance" maskUnits="userSpaceOnUse" x="0" y="0" width="513" height="434">
<path d="M512.871 0H0V433.811H512.871V0Z" fill="white"/>
</mask>
<g mask="url(#mask91_412_16312)">
<path d="M425.906 251.719C439.678 260.9 447.074 270.336 448.859 273.142C449.114 273.652 449.369 274.162 449.624 274.672C450.134 275.182 450.389 275.692 450.899 276.202C454.98 279.773 460.081 276.457 464.926 272.632C472.832 266.511 480.228 259.37 486.349 250.954C493.49 241.263 498.336 230.296 499.611 218.055C499.611 217.8 499.611 217.29 499.611 217.035C499.611 215.759 499.866 214.229 499.866 212.954C499.866 212.189 499.866 211.169 499.866 210.149C499.866 209.894 499.866 209.639 499.866 209.639C499.866 209.384 499.866 209.384 499.866 209.129C498.846 198.417 492.725 179.545 470.792 171.384C470.537 171.384 470.282 171.129 470.027 171.129C456.51 166.538 442.228 171.384 435.087 177.504" stroke="black" stroke-opacity="0.85" stroke-width="1.3452" stroke-miterlimit="10" stroke-linecap="round" stroke-linejoin="round"/>
</g>
<mask id="mask92_412_16312" style="mask-type:luminance" maskUnits="userSpaceOnUse" x="0" y="0" width="513" height="434">
<path d="M512.871 0H0V433.811H512.871V0Z" fill="white"/>
</mask>
<g mask="url(#mask92_412_16312)">
<path d="M410.604 242.281C393.516 263.449 355.261 279.261 334.604 287.677C326.443 290.993 307.06 299.664 295.329 310.63C287.678 317.771 292.778 317.516 304 316.241C314.966 315.221 326.188 313.946 340.724 311.905C377.194 306.805 419.785 298.644 451.154 275.946" stroke="black" stroke-opacity="0.85" stroke-width="1.3452" stroke-miterlimit="10" stroke-linecap="round" stroke-linejoin="round"/>
</g>
<mask id="mask93_412_16312" style="mask-type:luminance" maskUnits="userSpaceOnUse" x="0" y="0" width="513" height="434">
<path d="M512.871 0H0V433.811H512.871V0Z" fill="white"/>
</mask>
<g mask="url(#mask93_412_16312)">
<path d="M312.927 310.63C307.571 311.65 303.235 313.945 299.41 316.75C299.41 316.75 299.41 316.75 299.155 316.75C295.584 319.301 292.524 322.616 289.719 325.677C287.423 328.227 285.638 330.522 283.598 332.817C283.343 333.072 282.833 333.583 282.578 333.838C270.336 347.099 260.39 349.905 250.444 349.905C241.517 349.905 231.061 345.059 224.175 339.193C215.249 331.797 206.068 323.126 197.397 319.301C197.142 319.301 197.142 319.046 196.887 319.046L206.068 287.932C221.37 294.307 225.705 304.254 235.142 313.69C245.343 323.891 255.034 329.757 267.786 320.831C269.061 320.066 270.081 319.046 271.356 318.281C282.833 309.354 295.329 296.858 314.712 299.663C314.712 299.663 314.712 299.663 314.967 299.663C315.222 299.663 315.732 299.663 315.987 299.918C319.303 300.428 321.598 301.448 322.618 302.724C324.913 305.529 322.108 308.844 312.927 310.63Z" fill="black" fill-opacity="0.85"/>
</g>
<mask id="mask94_412_16312" style="mask-type:luminance" maskUnits="userSpaceOnUse" x="0" y="0" width="513" height="434">
<path d="M512.871 0H0V433.811H512.871V0Z" fill="white"/>
</mask>
<g mask="url(#mask94_412_16312)">
<path d="M325.678 292.012C329.758 295.837 335.879 303.998 336.644 312.414" stroke="black" stroke-opacity="0.85" stroke-width="1.3452" stroke-miterlimit="10" stroke-linecap="round" stroke-linejoin="round"/>
</g>
<mask id="mask95_412_16312" style="mask-type:luminance" maskUnits="userSpaceOnUse" x="0" y="0" width="513" height="434">
<path d="M512.871 0H0V433.811H512.871V0Z" fill="white"/>
</mask>
<g mask="url(#mask95_412_16312)">
<path d="M411.367 229.785C426.414 236.416 439.931 243.047 456.253 263.45" stroke="black" stroke-opacity="0.85" stroke-width="1.3452" stroke-miterlimit="10" stroke-linecap="round" stroke-linejoin="round"/>
</g>
<mask id="mask96_412_16312" style="mask-type:luminance" maskUnits="userSpaceOnUse" x="0" y="0" width="513" height="434">
<path d="M512.871 0H0V433.811H512.871V0Z" fill="white"/>
</mask>
<g mask="url(#mask96_412_16312)">
<g opacity="0.23">
<mask id="mask97_412_16312" style="mask-type:luminance" maskUnits="userSpaceOnUse" x="429" y="251" width="63" height="87">
<path d="M491.96 251.209H429.477V337.41H491.96V251.209Z" fill="white"/>
</mask>
<g mask="url(#mask97_412_16312)">
<path d="M490.94 319.303C478.188 329.759 454.98 334.86 429.477 337.41C429.732 337.41 430.242 337.155 430.497 337.155C459.06 332.309 461.101 320.068 463.141 309.612C465.181 299.665 464.671 277.477 460.846 275.947C462.376 275.182 463.906 273.907 465.181 272.887C473.087 266.766 480.483 259.625 486.604 251.209C490.684 268.551 493.745 306.806 490.94 319.303Z" fill="#503324"/>
</g>
</g>
</g>
<mask id="mask98_412_16312" style="mask-type:luminance" maskUnits="userSpaceOnUse" x="0" y="0" width="513" height="434">
<path d="M512.871 0H0V433.811H512.871V0Z" fill="white"/>
</mask>
<g mask="url(#mask98_412_16312)">
<path d="M421.315 234.377C420.549 235.397 419.784 236.417 419.529 237.692" stroke="black" stroke-opacity="0.85" stroke-width="1.3452" stroke-miterlimit="10" stroke-linecap="round" stroke-linejoin="round"/>
</g>
<mask id="mask99_412_16312" style="mask-type:luminance" maskUnits="userSpaceOnUse" x="0" y="0" width="513" height="434">
<path d="M512.871 0H0V433.811H512.871V0Z" fill="white"/>
</mask>
<g mask="url(#mask99_412_16312)">
<path d="M428.71 238.457C427.945 239.222 426.925 240.497 426.16 241.772" stroke="black" stroke-opacity="0.85" stroke-width="1.3452" stroke-miterlimit="10" stroke-linecap="round" stroke-linejoin="round"/>
</g>
<mask id="mask100_412_16312" style="mask-type:luminance" maskUnits="userSpaceOnUse" x="0" y="0" width="513" height="434">
<path d="M512.871 0H0V433.811H512.871V0Z" fill="white"/>
</mask>
<g mask="url(#mask100_412_16312)">
<path d="M441.718 247.891C440.698 248.656 439.167 250.186 438.402 251.461" stroke="black" stroke-opacity="0.85" stroke-width="1.3452" stroke-miterlimit="10" stroke-linecap="round" stroke-linejoin="round"/>
</g>
</svg>
