<svg width="316" height="160" viewBox="0 0 316 160" fill="none" xmlns="http://www.w3.org/2000/svg">
<path fill-rule="evenodd" clip-rule="evenodd" d="M193.081 129.603H204.978C209.693 129.603 215.995 131.138 215.995 136.927C215.995 142.716 210.818 144.243 205.368 144.243H193.081V129.603ZM5.10122 73.2696V1.216H42.576C49.5241 1.216 54.8344 1.80407 58.5064 2.97988C62.1217 4.121 65.2524 6.43216 67.3918 9.5353C69.7371 13.0089 70.8896 17.034 70.7829 21.2046C70.8496 24.873 70.008 28.3392 68.1796 31.5444C66.4551 34.4609 64.0104 36.9051 61.0783 38.6391C58.6121 39.9848 55.9464 40.9469 53.1875 41.489C55.2511 42.0929 57.2275 42.9863 59.0356 44.1396C60.3803 45.2469 61.5974 46.5122 62.6491 47.8947C63.8317 49.2687 64.8831 50.7586 65.7807 52.3316L76.6667 73.2705L51.2572 73.2696L39.2485 51.2276C37.7242 48.3765 36.3681 46.5244 35.1802 45.6706C33.5984 44.5861 31.7165 44.0029 29.7909 44.0029C29.7493 44.0029 29.7041 44.0041 29.6639 44.0041L27.6626 44.0035V73.2696H5.10122ZM27.6626 30.3935H37.1655C39.1741 30.2474 41.1735 29.9168 43.1203 29.4128C44.5785 29.1343 45.8802 28.3255 46.7664 27.1476C47.7277 25.9276 48.1819 24.5162 48.1819 22.9764C48.2956 20.937 47.4921 18.9811 45.9444 17.6211C44.4583 16.3753 41.6621 15.7525 37.556 15.7525H27.6626V30.3935ZM119.276 49.4075L140.665 48.0785C141.132 51.5202 142.076 54.1403 143.497 55.9388C145.818 58.8542 149.127 60.3119 153.423 60.3119C156.628 60.3119 159.102 59.5683 160.843 58.0811C162.457 56.8301 163.415 54.9228 163.446 52.8941C163.42 50.951 162.525 49.1158 161.006 47.8852C159.378 46.4142 155.541 45.0211 149.493 43.7055C139.632 41.5152 132.6 38.5999 128.397 34.9598C124.367 31.6198 122.037 26.6792 122.037 21.4761C122.037 17.5082 123.036 13.8891 125.297 10.5894C127.689 7.09905 131.102 4.39951 135.059 2.82769C139.399 0.942674 145.365 0 152.959 0C162.256 0 169.345 1.71277 174.227 5.13795C179.109 8.56343 182.013 14.0076 182.941 21.4703L161.746 22.6945C161.204 19.473 160.021 17.1162 158.199 15.6235C156.376 14.1311 153.881 13.3875 150.714 13.3927C148.102 13.3927 146.133 13.9485 144.815 15.0436C143.564 15.9964 142.83 17.4711 142.83 19.0337C142.83 20.2421 143.487 21.4438 144.457 22.1628C145.515 23.1131 148.029 23.9991 151.999 24.8206C161.827 26.9144 168.879 29.0351 173.153 31.1828C177.427 33.3302 180.519 35.9904 182.428 39.1636C184.427 42.4691 185.332 45.9871 185.332 49.8257C185.444 54.2151 183.912 58.958 181.467 62.598C178.821 66.5413 175.055 69.6264 170.646 71.4567C166.009 73.4705 160.168 74.4776 153.122 74.4776C140.75 74.4776 132.18 72.1205 127.412 67.4066C122.644 62.6927 119.932 56.6931 119.276 49.4075ZM34.1716 145.838C26.0568 145.838 22.391 140.992 21.3898 133.605L0 134.926C1.91392 154.673 15.7311 159.943 33.8745 159.983C54.6515 160.029 69.7325 152.425 69.7325 129.841V86.7344H47.1711V128.015C47.1711 137.153 45.4481 145.838 34.1716 145.838ZM82.4236 122.802C82.4236 111.054 85.7323 101.9 92.3495 95.3395C98.9671 88.7789 108.188 85.5038 120.012 85.5145C132.13 85.5145 141.462 88.736 148.009 95.1785C154.555 101.621 157.829 110.636 157.829 122.222C157.829 130.646 156.4 137.55 153.541 142.935C150.755 148.242 146.43 152.626 141.134 155.506C135.71 158.502 128.967 160 120.907 160C112.701 160 105.921 158.706 100.567 156.118C95.0623 153.417 90.5011 149.132 87.4854 143.835C84.1108 138.237 82.4236 131.226 82.4236 122.802ZM104.912 122.906C104.912 130.181 106.268 135.405 108.98 138.578C111.692 141.751 115.413 143.34 120.143 143.346C124.975 143.346 128.715 141.791 131.362 138.683C134.009 135.574 135.333 129.991 135.333 121.932C135.333 115.151 133.952 110.195 131.191 107.065C128.43 103.935 124.683 102.373 119.947 102.378C119.774 102.371 119.598 102.368 119.423 102.368C115.43 102.368 111.637 104.099 109.045 107.105C106.284 110.327 104.906 115.594 104.912 122.906ZM249.942 134.926L271.331 133.597C271.798 137.039 272.741 139.659 274.163 141.457C276.484 144.373 279.793 145.83 284.089 145.83C287.294 145.83 289.768 145.087 291.509 143.599C293.123 142.348 294.081 140.441 294.112 138.412C294.085 136.469 293.191 134.634 291.671 133.404C290.044 131.933 286.207 130.539 280.159 129.224C270.298 127.034 263.266 124.118 259.062 120.478C255.033 117.138 252.703 112.198 252.703 106.994C252.703 106.857 252.705 106.713 252.707 106.578C252.722 102.846 253.858 99.2006 255.963 96.1078C258.365 92.6245 261.768 89.9179 265.725 88.3461C270.064 86.4611 276.031 85.5184 283.625 85.5184C292.922 85.5184 300.011 87.2311 304.893 90.6563C309.774 94.0818 312.679 99.5259 313.606 106.989L292.412 108.213C291.869 104.991 290.687 102.635 288.864 101.142C287.042 99.6495 284.547 98.9059 281.379 98.9111C278.768 98.9111 276.799 99.4669 275.481 100.562C274.23 101.515 273.495 102.989 273.495 104.552C273.495 104.564 273.495 104.577 273.495 104.589C273.535 105.81 274.135 106.949 275.123 107.681C276.18 108.631 278.694 109.517 282.665 110.339C292.493 112.433 299.544 114.553 303.819 116.701C308.093 118.849 311.184 121.509 313.094 124.682C314.992 127.821 316 131.42 316 135.08C316 135.166 315.998 135.26 315.998 135.344C315.998 135.38 315.999 135.425 315.999 135.461C315.999 139.963 314.649 144.37 312.132 148.116C309.487 152.06 305.721 155.145 301.312 156.975C296.675 158.989 290.833 159.996 283.788 159.996C271.415 159.996 262.845 157.639 258.078 152.925C253.31 148.211 250.598 142.211 249.942 134.926ZM170.52 158.78V86.7265H207.994C223.426 86.7265 236.201 91.2398 236.18 108.165C236.173 113.47 233.628 118.313 229.691 121.841C235.5 125.625 238.595 131.327 238.595 138.791C238.595 154.511 224.276 158.78 210.388 158.78H170.52ZM193.081 115.066H202.584C207.053 115.066 213.613 113.393 213.613 108.087C213.613 102.781 207.758 101.263 202.974 101.263H193.081V115.066Z" fill="#434343"/>
</svg>
