<svg width="485" height="448" viewBox="0 0 485 448" fill="none" xmlns="http://www.w3.org/2000/svg">
<mask id="mask0_412_14441" style="mask-type:luminance" maskUnits="userSpaceOnUse" x="0" y="0" width="485" height="448">
<path d="M484.424 0H0V447.1H484.424V0Z" fill="white"/>
</mask>
<g mask="url(#mask0_412_14441)">
<mask id="mask1_412_14441" style="mask-type:luminance" maskUnits="userSpaceOnUse" x="0" y="0" width="485" height="448">
<path d="M484.424 0H0V447.1H484.424V0Z" fill="white"/>
</mask>
<g mask="url(#mask1_412_14441)">
<mask id="mask2_412_14441" style="mask-type:luminance" maskUnits="userSpaceOnUse" x="0" y="0" width="485" height="448">
<path d="M484.424 0H0V447.1H484.424V0Z" fill="white"/>
</mask>
<g mask="url(#mask2_412_14441)">
<path d="M257.85 447.099C254.696 447.099 251.542 446.048 247.599 444.996H247.336C246.811 444.733 246.285 444.733 245.759 444.47C236.56 442.893 222.103 440.265 208.961 437.374C201.076 435.797 195.03 434.482 190.825 433.431C182.676 431.591 178.997 430.802 176.368 426.86C175.317 425.546 174.265 423.706 172.688 421.603L171.374 419.763C168.22 416.083 164.54 410.301 159.809 401.889C157.969 398.735 155.866 395.318 154.026 391.901C153.763 391.639 153.501 391.376 152.975 391.376H151.661C151.398 391.376 150.872 391.639 150.872 391.901C150.609 392.164 150.609 392.69 150.872 392.953C151.135 393.478 151.135 394.004 151.398 394.267C151.398 394.267 151.398 394.267 151.398 394.53C156.392 402.415 159.546 414.243 152.449 421.603C147.192 427.648 138.255 429.225 123.536 431.854C120.382 432.38 116.702 433.168 112.759 433.957C99.8801 436.322 86.4749 437.636 77.2754 438.162C77.0125 438.162 76.7497 438.162 76.7497 438.162C74.384 438.425 72.2813 438.688 70.4414 438.951C68.3386 439.214 66.2358 439.476 64.6588 439.476C61.7675 439.476 59.4019 438.688 57.562 437.374C56.5106 436.848 55.722 436.059 54.9335 435.008C53.0936 433.168 52.0422 430.802 51.7793 428.174C51.5165 421.866 55.722 418.974 65.4473 412.666C68.6015 410.563 73.0698 407.672 76.7497 405.044C77.0125 404.781 77.2754 404.255 77.0125 403.729L76.7497 403.204C75.6983 400.312 74.6469 397.421 74.6469 394.53C74.6469 394.267 74.6469 394.267 74.6469 394.004C70.4414 386.119 64.6588 376.656 60.4532 369.56C59.139 367.457 58.0876 365.617 57.0363 364.04L56.7734 363.777C45.4711 354.314 37.8485 342.224 32.5916 325.664C32.5916 325.401 32.3288 325.139 32.3288 325.139C31.2774 324.35 30.226 323.299 28.9118 322.247C28.9118 322.247 28.9118 322.247 28.649 321.985C26.809 320.933 25.232 319.882 23.6549 318.83C16.2952 314.362 8.93556 309.105 4.46719 301.22C-0.526875 293.597 -3.68102 280.455 9.98694 262.319L10.2498 262.056C12.3526 258.902 14.981 255.485 18.1351 252.068C24.9691 243.657 35.4829 232.091 46.2596 223.943C48.3624 222.366 50.9908 220.526 53.8821 218.423C54.145 218.161 54.4078 217.898 54.4078 217.372C54.4078 217.109 54.4078 217.109 54.4078 216.846C54.4078 214.481 55.1963 212.115 56.5106 209.487C57.2991 207.91 58.3505 206.333 59.4019 205.018C61.5046 202.127 64.6588 198.447 68.6014 195.293C68.8643 195.03 69.1272 194.767 69.1272 194.505C69.1272 193.979 69.1272 193.19 69.1272 192.665C68.8643 185.568 72.5441 181.888 74.9097 180.311C75.6983 179.785 76.4868 179.259 77.2754 178.997C77.801 178.734 78.0639 178.208 78.0639 177.682C75.9611 170.323 73.3327 162.963 70.9671 155.866C66.7615 144.038 62.8189 132.736 62.0303 122.222C62.0303 121.171 62.0303 120.119 62.0303 119.331C62.2932 109.868 65.4473 100.669 72.0184 91.2062C72.0184 91.2062 72.0184 91.2062 72.0184 90.9434C74.3841 86.475 77.5382 79.3782 82.0066 73.3327C82.2694 73.0699 82.2694 72.807 82.2694 72.5442C81.7437 69.9157 82.5323 67.0245 84.1093 64.6588C87.7892 59.6648 93.0461 55.9849 99.6172 53.6193C100.143 53.3565 100.406 53.0936 100.406 52.5679C100.406 52.0422 100.143 51.7794 99.8801 51.5166C96.9888 50.2023 95.4117 49.6767 94.886 49.4138H94.6232C94.3603 49.4138 94.3603 49.4138 94.0975 49.4138C91.9947 49.4138 89.8919 48.6253 88.3149 47.5739C88.3149 47.5739 88.3149 47.5739 88.052 47.5739C85.4236 46.5225 83.5836 44.1569 82.7951 41.5285C81.4809 37.8486 82.7951 33.6431 85.6864 31.0147C93.5718 23.9178 104.348 19.9751 116.176 19.9751C117.491 19.9751 118.805 19.9751 120.382 20.238C120.645 20.238 120.908 20.238 121.171 19.9751C121.433 19.7123 121.433 19.4495 121.433 19.1866C121.433 18.1352 121.433 17.0838 121.696 16.2953C121.696 14.4554 121.696 13.1411 121.696 13.1411C121.696 11.5641 122.222 10.2498 122.748 8.93559V8.6728C124.062 3.94159 126.69 1.05027 131.159 0.52458C131.684 0.52458 132.21 0.261719 132.736 0.261719C134.313 0.261719 139.833 0.787425 142.198 7.09572C142.461 7.62141 142.724 8.14706 143.512 9.19845C143.512 9.46129 143.775 9.46132 143.775 9.72417C146.404 12.8783 153.238 19.1866 171.374 25.232C176.368 26.8091 181.362 29.7004 186.093 33.6431C186.356 33.906 186.619 33.9059 186.882 33.9059C187.145 33.9059 187.408 33.906 187.408 33.6431C188.985 32.5917 190.825 32.3289 192.664 32.3289C195.03 32.3289 197.133 33.1174 198.973 34.4316L199.498 34.6945C214.481 44.1569 222.892 57.2991 224.469 73.3327V73.5956C226.046 79.1153 228.149 84.3722 229.726 89.1034L229.989 90.1549C230.251 90.6806 230.514 90.9434 231.04 90.9434C231.828 90.9434 232.88 90.9434 233.668 90.9434C238.4 90.9434 243.394 92.2576 248.651 94.6232H248.913C254.696 95.9374 260.479 99.3544 266.787 102.771C272.569 105.926 278.352 109.343 284.135 110.92C285.186 111.182 286.237 111.445 287.289 111.708C287.289 111.708 287.289 111.708 287.552 111.708C288.077 111.708 288.34 111.445 288.603 110.92C290.706 104.086 292.546 96.9888 293.071 95.6746C293.86 90.6805 298.065 87.2636 302.797 87.2636C305.425 87.2636 308.054 88.315 309.893 90.1549C314.888 95.1489 322.247 111.182 322.51 123.273C322.773 135.101 316.728 140.358 313.048 142.461C309.894 144.301 306.477 145.352 302.534 145.352C302.008 145.352 301.745 145.615 301.482 146.141C301.482 146.404 301.22 146.667 300.957 147.192C300.431 148.507 299.643 149.558 299.117 150.609C295.437 157.706 290.706 167.169 278.878 167.169C276.775 167.169 274.672 166.906 272.569 166.38C272.569 166.38 272.569 166.38 272.307 166.38C271.255 166.117 269.941 166.117 268.627 165.854C264.158 165.066 260.216 164.54 256.799 164.014H256.536C256.273 164.014 256.01 164.014 255.747 164.277C255.485 164.54 255.485 165.066 255.485 165.329C256.536 169.271 257.587 172.688 258.113 175.58C258.113 176.105 258.376 176.368 258.902 176.368C266.524 178.471 274.147 181.362 282.032 185.305C300.168 193.453 317.779 204.493 334.338 218.161C334.864 218.686 335.389 219.212 336.178 219.738C343.801 224.995 351.949 230.514 360.097 235.771C362.988 237.085 364.04 237.085 364.303 237.085C366.668 237.085 368.771 237.611 371.399 238.4C372.188 238.662 372.714 238.662 373.239 238.925H373.502C374.553 238.925 375.342 238.925 376.393 238.925C379.022 238.925 381.65 238.925 384.016 238.663C384.016 238.663 384.016 238.663 384.279 238.663C387.959 237.874 390.85 237.085 393.216 236.297C396.633 235.245 399.261 234.457 402.152 234.457C403.992 234.457 405.569 234.72 407.146 235.246H407.409C421.34 236.034 428.962 252.068 431.854 258.902C432.379 259.953 432.642 261.004 432.642 262.319C432.642 263.37 432.642 264.684 432.379 265.736C432.379 265.998 432.379 265.998 432.379 266.261C432.379 266.524 432.379 266.787 432.379 267.05C433.431 274.672 449.202 288.077 467.864 297.277C468.652 297.803 469.441 298.066 470.229 298.591L472.332 299.38C477.852 301.745 480.217 302.797 482.057 304.9C484.686 308.054 485.474 312.259 483.897 315.939C481.532 320.933 476.275 323.036 468.915 324.35C463.132 325.401 455.773 326.19 448.676 326.19H447.625C444.996 326.453 442.368 326.453 439.739 326.453C430.802 326.453 423.18 325.664 416.872 323.824C414.506 323.036 412.14 322.51 409.775 321.722H409.512H409.249C408.723 321.984 408.198 321.985 407.935 321.985H407.672L390.324 331.71C390.061 331.71 390.061 331.973 389.799 332.235C387.959 335.915 386.119 340.384 384.279 345.115L383.753 346.955C382.702 350.372 381.65 353.789 380.336 357.206C377.708 367.194 371.399 376.656 362.725 382.965H362.463C355.103 388.484 346.692 391.376 338.018 391.376C335.39 391.376 333.024 391.113 330.395 390.587C325.664 389.536 322.247 387.696 319.356 386.119C317.779 385.33 316.465 384.542 315.15 384.016C310.682 382.439 307.002 381.388 303.585 380.862H303.322C303.06 380.862 303.06 380.862 302.797 381.125L286.763 390.061C286.5 390.324 286.237 390.587 286.237 391.113C286.5 395.581 285.975 399.261 284.135 402.941C282.558 406.621 279.666 409.249 275.461 411.089C275.461 411.089 275.461 411.089 275.198 411.089C271.781 413.192 267.575 414.769 262.581 415.557C262.581 415.557 262.581 415.557 262.319 415.557C262.056 415.557 261.793 415.82 261.53 415.82C261.267 415.82 261.004 416.083 260.741 416.609C260.741 416.872 260.741 417.397 261.004 417.66C263.896 420.814 265.473 423.443 266.524 425.546C267.313 427.123 267.575 428.437 267.838 430.014C267.838 430.277 267.838 430.277 267.838 430.54C271.781 437.637 268.364 442.368 266.524 443.945C265.21 444.996 262.581 447.099 257.85 447.099Z" fill="white"/>
</g>
<mask id="mask3_412_14441" style="mask-type:luminance" maskUnits="userSpaceOnUse" x="0" y="0" width="485" height="448">
<path d="M484.424 0H0V447.1H484.424V0Z" fill="white"/>
</mask>
<g mask="url(#mask3_412_14441)">
<path d="M157.706 375.342C152.712 367.72 174.529 411.352 181.363 415.558C193.191 422.654 257.851 437.374 258.902 436.322C259.953 435.534 236.823 406.095 230.252 401.101C218.687 391.901 232.355 371.662 229.2 359.309" fill="#F6D81C"/>
</g>
<mask id="mask4_412_14441" style="mask-type:luminance" maskUnits="userSpaceOnUse" x="0" y="0" width="485" height="448">
<path d="M484.424 0H0V447.1H484.424V0Z" fill="white"/>
</mask>
<g mask="url(#mask4_412_14441)">
<path d="M251.017 193.191C244.972 172.164 235.51 134.577 228.413 114.075C223.944 101.195 218.162 88.0532 214.482 74.9109C212.642 51.5177 193.98 43.3695 192.403 41.7924C192.403 41.7924 192.14 56.5118 200.025 70.4426C198.711 69.9169 188.46 40.741 168.221 34.1699C134.577 23.1304 133.263 9.72534 132.737 9.98818C132.211 9.98818 129.057 28.3873 134.84 34.4328C123.012 27.8616 104.087 27.8616 92.5217 38.3754C111.447 40.4782 118.281 51.5177 122.486 54.9347C118.018 58.0888 119.069 59.1402 115.126 62.82C99.3557 77.5394 70.9684 96.99 72.5455 121.697C74.1225 148.245 102.247 184.518 88.0534 224.207" fill="#CBAA7A"/>
</g>
<mask id="mask5_412_14441" style="mask-type:luminance" maskUnits="userSpaceOnUse" x="0" y="0" width="485" height="448">
<path d="M484.424 0H0V447.1H484.424V0Z" fill="white"/>
</mask>
<g mask="url(#mask5_412_14441)">
<path d="M251.017 193.191C244.972 172.164 235.51 134.577 228.413 114.075C223.944 101.195 218.162 88.0532 214.482 74.9109C212.642 51.5177 193.98 43.3695 192.403 41.7924C192.403 41.7924 192.14 56.5118 200.025 70.4426C198.711 69.9169 188.46 40.741 168.221 34.1699C134.577 23.1304 133.263 9.72534 132.737 9.98818C132.211 9.98818 129.057 28.3873 134.84 34.4328C123.012 27.8616 104.087 27.8616 92.5217 38.3754C111.447 40.4782 118.281 51.5177 122.486 54.9347C118.018 58.0888 119.069 59.1402 115.126 62.82C99.3557 77.5394 70.9684 96.99 72.5455 121.697C74.1225 148.245 102.247 184.518 88.0534 224.207" stroke="black" stroke-opacity="0.85" stroke-width="1.0988" stroke-miterlimit="10" stroke-linecap="round" stroke-linejoin="round"/>
</g>
<mask id="mask6_412_14441" style="mask-type:luminance" maskUnits="userSpaceOnUse" x="0" y="0" width="485" height="448">
<path d="M484.424 0H0V447.1H484.424V0Z" fill="white"/>
</mask>
<g mask="url(#mask6_412_14441)">
<path d="M266.789 152.715C283.611 161.651 285.188 153.503 291.496 141.675C271.783 144.566 256.801 136.155 253.384 137.207" fill="#F8E688"/>
</g>
<mask id="mask7_412_14441" style="mask-type:luminance" maskUnits="userSpaceOnUse" x="0" y="0" width="485" height="448">
<path d="M484.424 0H0V447.1H484.424V0Z" fill="white"/>
</mask>
<g mask="url(#mask7_412_14441)">
<path d="M266.789 152.715C283.611 161.651 285.188 153.503 291.496 141.675C271.783 144.566 256.801 136.155 253.384 137.207" stroke="black" stroke-opacity="0.85" stroke-width="1.0988" stroke-miterlimit="10" stroke-linecap="round" stroke-linejoin="round"/>
</g>
<mask id="mask8_412_14441" style="mask-type:luminance" maskUnits="userSpaceOnUse" x="0" y="0" width="485" height="448">
<path d="M484.424 0H0V447.1H484.424V0Z" fill="white"/>
</mask>
<g mask="url(#mask8_412_14441)">
<path d="M228.938 106.453C272.833 105.402 236.297 143.251 246.022 150.085C249.965 152.977 279.141 156.657 279.141 156.657C279.141 156.657 263.107 154.028 263.107 144.829C263.107 134.84 266.787 115.916 255.485 110.133" fill="#F6D81C"/>
</g>
<mask id="mask9_412_14441" style="mask-type:luminance" maskUnits="userSpaceOnUse" x="0" y="0" width="485" height="448">
<path d="M484.424 0H0V447.1H484.424V0Z" fill="white"/>
</mask>
<g mask="url(#mask9_412_14441)">
<path d="M228.938 106.453C272.833 105.402 236.297 143.251 246.022 150.085C249.965 152.977 279.141 156.657 279.141 156.657C279.141 156.657 263.107 154.028 263.107 144.829C263.107 134.84 266.787 115.916 255.485 110.133" stroke="black" stroke-opacity="0.85" stroke-width="1.0988" stroke-miterlimit="10" stroke-linecap="round" stroke-linejoin="round"/>
</g>
<mask id="mask10_412_14441" style="mask-type:luminance" maskUnits="userSpaceOnUse" x="0" y="0" width="485" height="448">
<path d="M484.424 0H0V447.1H484.424V0Z" fill="white"/>
</mask>
<g mask="url(#mask10_412_14441)">
<path d="M245.234 192.93C247.863 194.507 260.479 195.033 263.37 195.558C271.782 196.61 279.404 199.238 286.764 203.444C295.7 208.438 301.483 218.163 309.631 224.471C329.608 240.505 344.064 262.847 363.777 279.669C373.24 287.817 382.439 295.965 393.742 301.748C396.633 303.325 403.73 305.165 405.307 308.056C405.833 308.845 403.467 308.582 402.679 308.845C398.473 310.422 394.267 313.05 389.799 314.102C384.805 315.416 382.702 322.513 379.285 326.718C374.291 333.027 372.451 344.592 370.874 352.477C367.457 369.036 350.635 384.018 332.236 380.339C326.716 379.287 323.299 375.607 318.042 374.03C308.054 370.613 297.803 368.248 287.289 369.299C284.924 369.562 282.032 371.139 280.455 372.453C270.204 380.601 279.141 388.487 274.936 398.212C273.359 401.892 266.787 402.155 263.37 403.995C260.742 405.309 256.274 406.886 253.119 406.098C252.068 405.835 250.228 405.835 247.863 405.835C243.657 405.835 238.663 406.36 236.823 405.572C226.309 402.155 223.418 384.544 228.675 376.133C233.932 367.722 228.675 371.928 228.675 369.825C228.675 366.408 228.938 362.991 228.938 359.574V354.843C230.515 354.843 234.72 361.151 236.823 362.202C242.08 365.357 248.914 367.985 254.959 368.773C255.222 368.773 261.531 371.139 262.056 370.351C262.319 369.825 261.005 369.299 261.005 369.299C257.588 367.196 244.971 363.254 248.125 359.048C251.28 354.843 265.736 350.112 270.467 348.272C275.987 345.906 295.7 343.277 289.129 343.803C282.558 344.329 319.094 334.866 320.934 318.57C321.722 311.21 320.934 305.691 319.619 299.119C314.1 271.784 290.706 251.282 277.038 228.414C271.781 219.477 264.422 210.54 257.851 202.918C256.274 201.604 243.92 192.404 245.234 192.93Z" fill="white"/>
</g>
<mask id="mask11_412_14441" style="mask-type:luminance" maskUnits="userSpaceOnUse" x="0" y="0" width="485" height="448">
<path d="M484.424 0H0V447.1H484.424V0Z" fill="white"/>
</mask>
<g mask="url(#mask11_412_14441)">
<path d="M120.382 102.25C124.062 104.353 149.558 107.244 137.993 98.8328C131.159 93.8388 110.657 96.9929 120.382 102.25Z" fill="black" fill-opacity="0.85"/>
</g>
<mask id="mask12_412_14441" style="mask-type:luminance" maskUnits="userSpaceOnUse" x="0" y="0" width="485" height="448">
<path d="M484.424 0H0V447.1H484.424V0Z" fill="white"/>
</mask>
<g mask="url(#mask12_412_14441)">
<path d="M120.382 102.25C124.062 104.353 149.558 107.244 137.993 98.8328C131.159 93.8388 110.657 96.9929 120.382 102.25Z" stroke="black" stroke-opacity="0.85" stroke-width="1.0988" stroke-miterlimit="10" stroke-linecap="round" stroke-linejoin="round"/>
</g>
<mask id="mask13_412_14441" style="mask-type:luminance" maskUnits="userSpaceOnUse" x="0" y="0" width="485" height="448">
<path d="M484.424 0H0V447.1H484.424V0Z" fill="white"/>
</mask>
<g mask="url(#mask13_412_14441)">
<path d="M125.904 104.615C127.481 109.346 122.749 113.026 124.064 117.232C125.378 121.7 131.423 121.7 134.84 122.489C143.251 125.117 157.445 124.066 163.49 116.706C165.593 114.34 166.645 110.924 168.747 108.295C169.799 106.981 172.427 109.084 173.479 109.609" stroke="black" stroke-opacity="0.85" stroke-width="1.0988" stroke-miterlimit="10" stroke-linecap="round" stroke-linejoin="round"/>
</g>
<mask id="mask14_412_14441" style="mask-type:luminance" maskUnits="userSpaceOnUse" x="0" y="0" width="485" height="448">
<path d="M484.424 0H0V447.1H484.424V0Z" fill="white"/>
</mask>
<g mask="url(#mask14_412_14441)">
<path d="M62.5571 353.789C65.9741 361.149 93.8357 401.364 88.5788 407.935C83.3219 414.506 61.7686 426.334 61.7686 428.174C61.7686 431.591 139.834 419.238 144.302 414.506C149.559 408.987 132.737 385.068 131.685 379.285" fill="#F6D81C"/>
</g>
<mask id="mask15_412_14441" style="mask-type:luminance" maskUnits="userSpaceOnUse" x="0" y="0" width="485" height="448">
<path d="M484.424 0H0V447.1H484.424V0Z" fill="white"/>
</mask>
<g mask="url(#mask15_412_14441)">
<path d="M95.1504 90.4194C98.5674 84.1111 108.818 85.1625 110.658 91.9965" stroke="black" stroke-opacity="0.85" stroke-width="1.0988" stroke-miterlimit="10" stroke-linecap="round" stroke-linejoin="round"/>
</g>
<mask id="mask16_412_14441" style="mask-type:luminance" maskUnits="userSpaceOnUse" x="0" y="0" width="485" height="448">
<path d="M484.424 0H0V447.1H484.424V0Z" fill="white"/>
</mask>
<g mask="url(#mask16_412_14441)">
<path d="M164.278 98.5658C170.061 90.9433 181.626 94.3603 183.992 102.509" stroke="black" stroke-opacity="0.85" stroke-width="1.0988" stroke-miterlimit="10" stroke-linecap="round" stroke-linejoin="round"/>
</g>
<mask id="mask17_412_14441" style="mask-type:luminance" maskUnits="userSpaceOnUse" x="0" y="0" width="485" height="448">
<path d="M484.424 0H0V447.1H484.424V0Z" fill="white"/>
</mask>
<g mask="url(#mask17_412_14441)">
<path d="M42.8432 294.912C43.6318 297.277 43.3689 297.54 45.7345 298.591C50.4657 300.957 51.2543 303.06 55.4598 305.951C67.5507 313.836 90.9439 313.311 104.349 315.939C134.576 321.722 184.254 321.985 214.481 317.779C218.424 317.253 246.286 301.483 246.811 303.06C247.6 305.688 251.805 308.842 249.703 310.682C237.612 321.722 218.424 333.024 201.602 338.018C159.284 350.372 125.902 356.417 82.5329 346.429C72.2819 344.064 49.4144 331.447 42.3175 322.247C40.2148 319.093 42.0547 292.283 42.8432 294.912Z" fill="#E11F27"/>
</g>
<mask id="mask18_412_14441" style="mask-type:luminance" maskUnits="userSpaceOnUse" x="0" y="0" width="485" height="448">
<path d="M484.424 0H0V447.1H484.424V0Z" fill="white"/>
</mask>
<g mask="url(#mask18_412_14441)">
<path d="M88.3148 219.211C79.3781 240.765 65.4473 253.907 61.2417 263.369C56.7734 273.095 39.6884 286.5 39.4256 294.122C39.1627 304.636 68.8642 315.413 81.218 319.092C136.678 335.389 224.469 324.612 248.125 303.322C252.067 299.642 240.765 296.225 238.925 292.019C232.091 277.037 220 264.421 215.269 248.387C211.852 237.085 208.172 229.725 210.538 217.634C211.326 214.217 213.692 207.12 216.058 204.755C217.635 203.441 221.315 198.972 219.212 199.498C187.145 207.646 155.34 228.411 121.959 229.725C110.131 230.251 102.508 219.474 90.1547 217.897" fill="#F6D81C"/>
</g>
<mask id="mask19_412_14441" style="mask-type:luminance" maskUnits="userSpaceOnUse" x="0" y="0" width="485" height="448">
<path d="M484.424 0H0V447.1H484.424V0Z" fill="white"/>
</mask>
<g mask="url(#mask19_412_14441)">
<path d="M302.27 96.4629C302.27 96.4629 295.962 123.273 291.231 126.164C286.762 129.056 305.424 123.01 308.316 118.016C311.207 113.022 302.27 96.4629 302.27 96.4629Z" fill="white"/>
</g>
<mask id="mask20_412_14441" style="mask-type:luminance" maskUnits="userSpaceOnUse" x="0" y="0" width="485" height="448">
<path d="M484.424 0H0V447.1H484.424V0Z" fill="white"/>
</mask>
<g mask="url(#mask20_412_14441)">
<path d="M302.27 96.4629C302.27 96.4629 295.962 123.273 291.231 126.164C286.762 129.056 305.424 123.01 308.316 118.016C311.207 113.022 302.27 96.4629 302.27 96.4629Z" stroke="black" stroke-opacity="0.85" stroke-width="1.0988" stroke-miterlimit="10" stroke-linecap="round" stroke-linejoin="round"/>
</g>
<mask id="mask21_412_14441" style="mask-type:luminance" maskUnits="userSpaceOnUse" x="0" y="0" width="485" height="448">
<path d="M484.424 0H0V447.1H484.424V0Z" fill="white"/>
</mask>
<g mask="url(#mask21_412_14441)">
<path d="M85.6877 393.74C80.9565 391.9 89.8933 405.042 87.7905 408.985C87.2648 409.774 66.7629 422.39 63.083 427.91C61.2431 430.801 67.5514 428.698 75.6996 428.173C83.3222 427.647 93.3103 425.544 100.933 424.756C115.915 423.179 127.217 418.71 141.674 416.082C152.188 414.242 141.937 396.368 139.834 396.368C138.257 396.368 134.84 398.997 132.737 399.26C116.966 401.625 101.721 400.311 85.6877 393.74Z" fill="#E11F27"/>
</g>
<mask id="mask22_412_14441" style="mask-type:luminance" maskUnits="userSpaceOnUse" x="0" y="0" width="485" height="448">
<path d="M484.424 0H0V447.1H484.424V0Z" fill="white"/>
</mask>
<g mask="url(#mask22_412_14441)">
<path d="M265.475 205.019C267.578 206.859 279.669 223.681 297.542 251.017C301.222 256.536 309.633 277.301 312.524 282.821C319.884 296.752 320.935 307.265 321.461 313.837C322.513 327.767 309.896 333.813 303.588 336.967C298.068 339.595 290.183 342.224 281.509 345.115C270.732 348.795 259.167 353.526 251.281 360.623C247.864 363.777 261.795 367.194 263.109 369.823C248.127 369.823 233.934 366.406 224.997 353.263C222.106 348.795 214.746 339.596 217.112 333.813C220.529 325.928 250.493 311.208 249.704 307.791C247.864 300.957 240.505 293.86 236.299 288.078C223.945 270.73 205.546 239.714 209.752 217.635C210.54 212.641 212.643 206.07 216.323 202.653C222.368 197.133 238.665 189.774 249.967 193.716C253.647 195.03 262.584 202.39 262.584 202.39" fill="#F6D81C"/>
</g>
<mask id="mask23_412_14441" style="mask-type:luminance" maskUnits="userSpaceOnUse" x="0" y="0" width="485" height="448">
<path d="M484.424 0H0V447.1H484.424V0Z" fill="white"/>
</mask>
<g mask="url(#mask23_412_14441)">
<path d="M71.2309 218.953C68.3396 219.216 74.6479 218.427 75.4364 218.427C80.4305 217.639 88.8415 215.799 87.2644 223.421C81.4818 252.071 65.7111 255.751 51.7803 278.882C48.3633 284.664 39.4266 295.704 40.7408 302.275C41.0037 303.326 39.9523 317.52 39.1637 317.783C38.3752 318.045 27.5985 307.006 25.7586 305.955C8.14798 297.018 5.25668 285.19 17.8733 268.105C27.0728 255.751 39.9523 240.769 52.0432 231.832C56.2487 228.678 61.5056 224.735 66.2368 222.37C68.0767 221.318 72.5451 218.953 71.2309 218.953Z" fill="#F6D81C"/>
</g>
<mask id="mask24_412_14441" style="mask-type:luminance" maskUnits="userSpaceOnUse" x="0" y="0" width="485" height="448">
<path d="M484.424 0H0V447.1H484.424V0Z" fill="white"/>
</mask>
<g mask="url(#mask24_412_14441)">
<path d="M164.805 387.169C166.382 396.631 179.524 413.453 184.781 421.339C186.095 423.179 244.71 433.955 248.39 434.744C252.069 435.795 260.218 438.949 259.692 435.795C258.641 430.013 233.933 405.568 229.202 400.048C226.836 397.157 227.888 388.746 227.888 388.483C227.099 387.694 227.099 387.432 226.836 388.22C226.048 390.586 223.419 392.426 221.842 394.266C217.9 398.208 209.226 395.58 203.18 397.157C197.398 398.734 185.044 398.208 178.21 395.58C174.267 394.003 172.953 394.791 169.273 393.477C165.593 392.426 164.016 383.489 164.805 387.169Z" fill="#E11F27"/>
</g>
<mask id="mask25_412_14441" style="mask-type:luminance" maskUnits="userSpaceOnUse" x="0" y="0" width="485" height="448">
<path d="M484.424 0H0V447.1H484.424V0Z" fill="white"/>
</mask>
<g mask="url(#mask25_412_14441)">
<path d="M62.2954 353.266C65.7124 360.625 93.574 400.841 88.3171 407.412C83.0602 413.983 61.5068 425.811 61.5068 427.651C61.5068 431.068 139.572 418.714 144.04 413.983C149.297 408.463 132.475 384.544 131.424 378.762" stroke="black" stroke-opacity="0.85" stroke-width="1.0988" stroke-miterlimit="10" stroke-linecap="round" stroke-linejoin="round"/>
</g>
<mask id="mask26_412_14441" style="mask-type:luminance" maskUnits="userSpaceOnUse" x="0" y="0" width="485" height="448">
<path d="M484.424 0H0V447.1H484.424V0Z" fill="white"/>
</mask>
<g mask="url(#mask26_412_14441)">
<path d="M41.793 321.984C51.2554 352.211 67.5518 360.622 87.2652 370.348C102.247 377.707 116.178 377.182 132.475 379.81C153.502 383.227 182.152 380.336 200.814 371.136C206.86 367.982 212.38 369.296 217.899 365.091C221.316 362.725 231.304 358.782 234.196 355.891C234.196 355.891 229.465 356.943 229.465 356.417C228.939 354.314 227.625 354.84 226.573 353.526C222.893 349.32 217.111 340.383 217.899 334.863C218.688 327.504 230.779 327.767 233.144 321.984C233.144 321.721 225.785 325.401 225.259 325.664C221.579 327.767 217.899 329.344 213.957 330.658C207.123 333.024 199.763 334.601 192.929 337.492C188.198 339.332 178.998 341.435 174.267 342.223C161.125 344.852 137.732 349.846 125.115 348.269C90.6822 344.063 96.7276 343.275 68.6032 333.549C63.3463 331.709 44.9471 319.881 42.8444 315.676" fill="#E11F27"/>
</g>
<mask id="mask27_412_14441" style="mask-type:luminance" maskUnits="userSpaceOnUse" x="0" y="0" width="485" height="448">
<path d="M484.424 0H0V447.1H484.424V0Z" fill="white"/>
</mask>
<g mask="url(#mask27_412_14441)">
<path d="M158.76 379.81C158.76 379.81 177.947 415.031 184.781 419.237C196.61 426.333 258.904 437.11 260.218 436.059C261.269 435.27 241.293 407.934 229.465 399.786C222.106 394.529 233.145 371.136 229.991 359.045" stroke="black" stroke-opacity="0.85" stroke-width="1.0988" stroke-miterlimit="10" stroke-linecap="round" stroke-linejoin="round"/>
</g>
<mask id="mask28_412_14441" style="mask-type:luminance" maskUnits="userSpaceOnUse" x="0" y="0" width="485" height="448">
<path d="M484.424 0H0V447.1H484.424V0Z" fill="white"/>
</mask>
<g mask="url(#mask28_412_14441)">
<path d="M88.317 217.109C87.5284 221.841 77.2775 233.406 72.2834 243.394C67.2894 253.645 68.0779 257.588 68.0779 257.588C68.0779 257.588 49.6787 274.41 42.0562 296.751C36.7993 311.734 44.9475 351.16 85.1628 368.508C158.76 400.313 236.299 359.309 248.127 348.532" stroke="black" stroke-opacity="0.85" stroke-width="1.0988" stroke-miterlimit="10" stroke-linecap="round" stroke-linejoin="round"/>
</g>
<mask id="mask29_412_14441" style="mask-type:luminance" maskUnits="userSpaceOnUse" x="0" y="0" width="485" height="448">
<path d="M484.424 0H0V447.1H484.424V0Z" fill="white"/>
</mask>
<g mask="url(#mask29_412_14441)">
<path d="M245.761 103.56C258.64 106.189 278.091 125.639 296.49 120.12C314.889 114.6 301.221 95.4121 302.009 96.4635C306.215 100.669 318.043 126.954 307.266 133.262C290.181 143.25 244.446 103.823 244.446 103.823" fill="#E11F27"/>
</g>
<mask id="mask30_412_14441" style="mask-type:luminance" maskUnits="userSpaceOnUse" x="0" y="0" width="485" height="448">
<path d="M484.424 0H0V447.1H484.424V0Z" fill="white"/>
</mask>
<g mask="url(#mask30_412_14441)">
<path d="M245.761 103.56C258.64 106.189 278.091 125.639 296.49 120.12C314.889 114.6 301.221 95.4121 302.009 96.4635C306.215 100.669 318.043 126.954 307.266 133.262C290.181 143.25 244.446 103.823 244.446 103.823" stroke="black" stroke-opacity="0.85" stroke-width="1.0988" stroke-miterlimit="10" stroke-linecap="round" stroke-linejoin="round"/>
</g>
<mask id="mask31_412_14441" style="mask-type:luminance" maskUnits="userSpaceOnUse" x="0" y="0" width="485" height="448">
<path d="M484.424 0H0V447.1H484.424V0Z" fill="white"/>
</mask>
<g mask="url(#mask31_412_14441)">
<path d="M244.183 314.361C241.817 315.676 239.452 316.727 237.349 318.041C227.624 323.824 217.11 327.241 217.898 337.229C218.687 352.474 240.503 366.668 241.029 366.93C244.183 367.982 258.639 370.347 262.319 369.296C262.845 369.033 252.331 364.828 250.754 362.462C248.125 357.994 267.576 351.685 271.256 349.32C273.096 348.268 275.199 347.48 277.038 346.428C278.09 345.903 280.718 345.903 279.93 345.377C277.038 343.274 270.467 345.377 266.525 344.063C263.108 343.011 256.537 341.172 254.697 338.543C248.651 330.132 244.971 324.612 244.183 314.361Z" fill="#E11F27"/>
</g>
<mask id="mask32_412_14441" style="mask-type:luminance" maskUnits="userSpaceOnUse" x="0" y="0" width="485" height="448">
<path d="M484.424 0H0V447.1H484.424V0Z" fill="white"/>
</mask>
<g mask="url(#mask32_412_14441)">
<path d="M83.5852 207.91C82.5338 205.544 77.014 193.716 80.1682 190.825C80.6939 190.299 87.7907 200.287 88.0535 200.55C92.7848 206.333 98.3045 211.327 105.927 212.378C110.395 212.904 112.235 207.647 114.864 205.544C120.909 200.813 121.961 206.333 123.275 206.07C125.115 205.544 125.115 200.813 128.006 200.025C132.474 198.71 131.16 208.436 136.154 209.75C144.565 211.853 169.01 205.019 176.895 201.076C202.654 187.934 222.63 177.157 249.966 184.254C272.571 190.299 299.907 202.916 327.506 225.521C334.34 231.303 354.579 246.811 364.041 246.811C366.67 246.811 374.292 250.228 379.286 249.439C395.32 247.074 400.577 242.868 403.994 244.971C407.411 246.811 401.628 244.445 403.205 244.971C413.456 248.914 420.553 257.325 422.13 268.627C424.496 284.135 450.254 299.906 463.134 306.477C467.865 308.843 469.179 310.42 473.911 312.522C476.539 313.574 440.003 320.671 419.764 314.888C372.189 300.957 344.328 265.999 309.895 227.098C298.856 214.744 289.919 203.704 254.697 195.293C223.945 187.934 171.901 226.309 127.743 231.566C116.441 232.88 102.51 220.789 91.2077 219.475C88.8421 219.212 64.3975 219.738 64.3975 217.635C64.3975 213.43 80.431 195.819 82.0081 202.39C82.0081 202.653 77.014 191.614 80.6939 189.248C84.8994 186.619 96.2017 204.493 97.516 207.121C99.8816 211.327 103.824 212.641 108.03 214.744" fill="#E11F27"/>
</g>
<mask id="mask33_412_14441" style="mask-type:luminance" maskUnits="userSpaceOnUse" x="0" y="0" width="485" height="448">
<path d="M484.424 0H0V447.1H484.424V0Z" fill="white"/>
</mask>
<g mask="url(#mask33_412_14441)">
<path d="M123.537 204.492C116.44 193.978 102.509 219.474 108.817 220.526" stroke="black" stroke-opacity="0.85" stroke-width="1.0988" stroke-miterlimit="10" stroke-linecap="round" stroke-linejoin="round"/>
</g>
<mask id="mask34_412_14441" style="mask-type:luminance" maskUnits="userSpaceOnUse" x="0" y="0" width="485" height="448">
<path d="M484.424 0H0V447.1H484.424V0Z" fill="white"/>
</mask>
<g mask="url(#mask34_412_14441)">
<path d="M108.291 212.117C98.8286 215.534 84.3721 183.466 80.6922 188.986C77.0124 194.506 84.6349 204.494 83.8464 208.963" stroke="black" stroke-opacity="0.85" stroke-width="1.0988" stroke-miterlimit="10" stroke-linecap="round" stroke-linejoin="round"/>
</g>
<mask id="mask35_412_14441" style="mask-type:luminance" maskUnits="userSpaceOnUse" x="0" y="0" width="485" height="448">
<path d="M484.424 0H0V447.1H484.424V0Z" fill="white"/>
</mask>
<g mask="url(#mask35_412_14441)">
<path d="M80.4313 201.076C77.8028 202.128 60.7179 213.43 66.2376 216.847C70.4431 219.475 83.0597 216.847 87.7909 216.847C97.2534 217.11 100.145 223.681 109.081 225.521" stroke="black" stroke-opacity="0.85" stroke-width="1.0988" stroke-miterlimit="10" stroke-linecap="round" stroke-linejoin="round"/>
</g>
<mask id="mask36_412_14441" style="mask-type:luminance" maskUnits="userSpaceOnUse" x="0" y="0" width="485" height="448">
<path d="M484.424 0H0V447.1H484.424V0Z" fill="white"/>
</mask>
<g mask="url(#mask36_412_14441)">
<path d="M135.627 209.749C146.929 211.852 160.072 206.858 170.585 202.389C188.722 194.767 206.858 181.361 226.834 181.099C296.751 180.573 339.069 252.33 405.832 263.895" stroke="black" stroke-opacity="0.85" stroke-width="1.0988" stroke-miterlimit="10" stroke-linecap="round" stroke-linejoin="round"/>
</g>
<mask id="mask37_412_14441" style="mask-type:luminance" maskUnits="userSpaceOnUse" x="0" y="0" width="485" height="448">
<path d="M484.424 0H0V447.1H484.424V0Z" fill="white"/>
</mask>
<g mask="url(#mask37_412_14441)">
<path d="M409.512 308.842C370.085 308.317 380.073 353.526 358.783 372.451C336.178 392.427 310.419 361.411 285.186 368.771C259.164 376.131 302.796 410.038 236.822 405.832" stroke="black" stroke-opacity="0.85" stroke-width="1.0988" stroke-miterlimit="10" stroke-linecap="round" stroke-linejoin="round"/>
</g>
<mask id="mask38_412_14441" style="mask-type:luminance" maskUnits="userSpaceOnUse" x="0" y="0" width="485" height="448">
<path d="M484.424 0H0V447.1H484.424V0Z" fill="white"/>
</mask>
<g mask="url(#mask38_412_14441)">
<path d="M42.3174 298.592C62.0308 322.511 175.317 348.007 246.548 303.323" stroke="black" stroke-opacity="0.85" stroke-width="1.0988" stroke-miterlimit="10" stroke-linecap="round" stroke-linejoin="round"/>
</g>
<mask id="mask39_412_14441" style="mask-type:luminance" maskUnits="userSpaceOnUse" x="0" y="0" width="485" height="448">
<path d="M484.424 0H0V447.1H484.424V0Z" fill="white"/>
</mask>
<g mask="url(#mask39_412_14441)">
<path d="M116.704 100.408C109.87 103.562 98.5678 116.179 98.8307 120.91C100.671 149.56 139.835 163.491 160.336 143.514C188.198 116.967 129.846 94.3624 116.704 100.408Z" stroke="black" stroke-opacity="0.85" stroke-width="1.0988" stroke-miterlimit="10" stroke-linecap="round" stroke-linejoin="round"/>
</g>
<mask id="mask40_412_14441" style="mask-type:luminance" maskUnits="userSpaceOnUse" x="0" y="0" width="485" height="448">
<path d="M484.424 0H0V447.1H484.424V0Z" fill="white"/>
</mask>
<g mask="url(#mask40_412_14441)">
<path d="M229.463 115.129C226.309 109.872 220.263 105.666 224.994 102.512C241.028 92.261 263.895 118.02 262.318 117.231C248.65 111.449 242.342 113.814 228.411 114.866" fill="#F8E688"/>
</g>
<mask id="mask41_412_14441" style="mask-type:luminance" maskUnits="userSpaceOnUse" x="0" y="0" width="485" height="448">
<path d="M484.424 0H0V447.1H484.424V0Z" fill="white"/>
</mask>
<g mask="url(#mask41_412_14441)">
<path d="M229.463 115.129C226.309 109.872 220.263 105.666 224.994 102.512C241.028 92.261 263.895 118.02 262.318 117.231C248.65 111.449 242.342 113.814 228.411 114.866" stroke="black" stroke-opacity="0.85" stroke-width="1.0988" stroke-miterlimit="10" stroke-linecap="round" stroke-linejoin="round"/>
</g>
<mask id="mask42_412_14441" style="mask-type:luminance" maskUnits="userSpaceOnUse" x="0" y="0" width="485" height="448">
<path d="M484.424 0H0V447.1H484.424V0Z" fill="white"/>
</mask>
<g mask="url(#mask42_412_14441)">
<path d="M213.955 97.5157C223.417 116.178 215.532 139.045 204.493 152.713C179.259 183.466 118.805 177.421 103.297 160.336C78.8525 133 74.9098 93.0473 103.56 84.6363C116.177 80.9564 154.815 78.8537 167.431 80.9564C187.408 84.6363 192.665 95.1501 206.332 105.401" fill="#F9DCB3"/>
</g>
<mask id="mask43_412_14441" style="mask-type:luminance" maskUnits="userSpaceOnUse" x="0" y="0" width="485" height="448">
<path d="M484.424 0H0V447.1H484.424V0Z" fill="white"/>
</mask>
<g mask="url(#mask43_412_14441)">
<path d="M244.971 312.262C241.291 333.289 262.319 347.746 282.033 344.854" stroke="black" stroke-opacity="0.85" stroke-width="1.0988" stroke-miterlimit="10" stroke-linecap="round" stroke-linejoin="round"/>
</g>
<mask id="mask44_412_14441" style="mask-type:luminance" maskUnits="userSpaceOnUse" x="0" y="0" width="485" height="448">
<path d="M484.424 0H0V447.1H484.424V0Z" fill="white"/>
</mask>
<g mask="url(#mask44_412_14441)">
<path d="M137.468 86.9997C133.525 82.7941 98.3041 93.5708 102.247 120.381C105.664 143.511 136.68 147.454 149.033 142.723C180.312 130.632 175.055 84.3713 135.365 92.7823" fill="#A57F46"/>
</g>
<mask id="mask45_412_14441" style="mask-type:luminance" maskUnits="userSpaceOnUse" x="0" y="0" width="485" height="448">
<path d="M484.424 0H0V447.1H484.424V0Z" fill="white"/>
</mask>
<g mask="url(#mask45_412_14441)">
<path d="M125.903 96.462C113.549 93.3079 94.8868 103.033 81.4816 97.2505C79.6417 96.462 80.4302 96.1992 80.6931 97.7762C80.6931 98.8276 80.956 95.9363 80.956 95.6734C85.95 85.1596 94.3611 68.6004 106.452 65.9719C125.64 62.0292 189.511 69.1261 204.756 84.634C206.596 86.4739 208.436 88.3138 210.013 90.1537C217.636 98.0391 222.367 104.085 224.995 108.553C228.675 114.861 231.303 124.849 235.246 136.414C235.509 137.203 226.572 128.266 225.784 127.478C221.315 123.009 212.641 117.752 206.07 116.701C190.037 114.335 183.728 116.964 162.964 108.29C156.918 105.662 133.262 92.7821 125.377 95.9363" fill="#F6D81C"/>
</g>
<mask id="mask46_412_14441" style="mask-type:luminance" maskUnits="userSpaceOnUse" x="0" y="0" width="485" height="448">
<path d="M484.424 0H0V447.1H484.424V0Z" fill="white"/>
</mask>
<g mask="url(#mask46_412_14441)">
<path d="M125.903 96.462C113.549 93.3079 94.8868 103.033 81.4816 97.2505C79.6417 96.462 80.4302 96.1992 80.6931 97.7762C80.6931 98.8276 80.956 95.9363 80.956 95.6734C85.95 85.1596 94.3611 68.6004 106.452 65.9719C125.64 62.0292 189.511 69.1261 204.756 84.634C206.596 86.4739 208.436 88.3138 210.013 90.1537C217.636 98.0391 222.367 104.085 224.995 108.553C228.675 114.861 231.303 124.849 235.246 136.414C235.509 137.203 226.572 128.266 225.784 127.478C221.315 123.009 212.641 117.752 206.07 116.701C190.037 114.335 183.728 116.964 162.964 108.29C156.918 105.662 133.262 92.7821 125.377 95.9363" stroke="black" stroke-opacity="0.85" stroke-width="1.0988" stroke-miterlimit="10" stroke-linecap="round" stroke-linejoin="round"/>
</g>
<mask id="mask47_412_14441" style="mask-type:luminance" maskUnits="userSpaceOnUse" x="0" y="0" width="485" height="448">
<path d="M484.424 0H0V447.1H484.424V0Z" fill="white"/>
</mask>
<g mask="url(#mask47_412_14441)">
<path d="M86.4768 395.318C85.9511 395.055 114.864 408.461 139.572 395.844" stroke="black" stroke-opacity="0.85" stroke-width="1.0988" stroke-miterlimit="10" stroke-linecap="round" stroke-linejoin="round"/>
</g>
<mask id="mask48_412_14441" style="mask-type:luminance" maskUnits="userSpaceOnUse" x="0" y="0" width="485" height="448">
<path d="M484.424 0H0V447.1H484.424V0Z" fill="white"/>
</mask>
<g mask="url(#mask48_412_14441)">
<path d="M166.381 392.693C181.626 399.001 215.533 403.469 226.31 388.75" stroke="black" stroke-opacity="0.85" stroke-width="1.0988" stroke-miterlimit="10" stroke-linecap="round" stroke-linejoin="round"/>
</g>
<mask id="mask49_412_14441" style="mask-type:luminance" maskUnits="userSpaceOnUse" x="0" y="0" width="485" height="448">
<path d="M484.424 0H0V447.1H484.424V0Z" fill="white"/>
</mask>
<g mask="url(#mask49_412_14441)">
<path d="M158.757 361.937C157.969 361.674 158.232 361.411 158.232 362.2L158.757 361.937Z" fill="#090B0F"/>
</g>
<mask id="mask50_412_14441" style="mask-type:luminance" maskUnits="userSpaceOnUse" x="0" y="0" width="485" height="448">
<path d="M484.424 0H0V447.1H484.424V0Z" fill="white"/>
</mask>
<g mask="url(#mask50_412_14441)">
<path d="M121.436 95.9358C122.487 102.77 146.406 106.975 143.778 98.0386C141.938 90.6789 120.122 85.6848 121.436 95.9358Z" fill="black" fill-opacity="0.85"/>
</g>
<mask id="mask51_412_14441" style="mask-type:luminance" maskUnits="userSpaceOnUse" x="0" y="0" width="485" height="448">
<path d="M484.424 0H0V447.1H484.424V0Z" fill="white"/>
</mask>
<g mask="url(#mask51_412_14441)">
<path d="M134.841 209.224C135.892 208.436 128.532 200.024 127.744 200.287C125.641 201.076 106.979 222.103 109.082 225.258C111.185 228.149 127.744 232.88 128.795 230.515C130.898 226.046 126.43 224.469 125.115 221.841C120.91 213.167 131.424 212.378 134.841 209.224Z" stroke="black" stroke-opacity="0.85" stroke-width="1.0988" stroke-miterlimit="10" stroke-linecap="round" stroke-linejoin="round"/>
</g>
<mask id="mask52_412_14441" style="mask-type:luminance" maskUnits="userSpaceOnUse" x="0" y="0" width="485" height="448">
<path d="M484.424 0H0V447.1H484.424V0Z" fill="white"/>
</mask>
<g mask="url(#mask52_412_14441)">
<path d="M97.5146 88.5814C102.246 81.2217 110.131 84.6387 111.183 89.8956" stroke="black" stroke-opacity="0.85" stroke-width="1.0988" stroke-miterlimit="10" stroke-linecap="round" stroke-linejoin="round"/>
</g>
<mask id="mask53_412_14441" style="mask-type:luminance" maskUnits="userSpaceOnUse" x="0" y="0" width="485" height="448">
<path d="M484.424 0H0V447.1H484.424V0Z" fill="white"/>
</mask>
<g mask="url(#mask53_412_14441)">
<path d="M362.201 247.074C387.96 250.228 402.942 243.919 402.942 243.919C402.942 243.919 421.078 247.862 421.604 263.896C422.655 293.86 471.807 307.791 474.436 310.682C477.064 313.573 432.118 323.299 395.845 302.534C377.709 292.02 360.624 280.455 345.904 265.21C319.094 237.611 292.547 196.081 250.229 192.139C223.681 189.51 196.608 206.858 173.478 217.109C150.873 227.097 136.417 226.046 130.108 227.886" stroke="black" stroke-opacity="0.85" stroke-width="1.0988" stroke-miterlimit="10" stroke-linecap="round" stroke-linejoin="round"/>
</g>
<mask id="mask54_412_14441" style="mask-type:luminance" maskUnits="userSpaceOnUse" x="0" y="0" width="485" height="448">
<path d="M484.424 0H0V447.1H484.424V0Z" fill="white"/>
</mask>
<g mask="url(#mask54_412_14441)">
<path d="M166.119 98.3038C171.376 90.9441 182.416 93.3098 184.781 101.195" stroke="black" stroke-opacity="0.85" stroke-width="1.0988" stroke-miterlimit="10" stroke-linecap="round" stroke-linejoin="round"/>
</g>
<mask id="mask55_412_14441" style="mask-type:luminance" maskUnits="userSpaceOnUse" x="0" y="0" width="485" height="448">
<path d="M484.424 0H0V447.1H484.424V0Z" fill="white"/>
</mask>
<g mask="url(#mask55_412_14441)">
<path d="M92.2578 70.4427C100.406 59.666 118.542 58.3518 133.262 62.2945" stroke="black" stroke-opacity="0.85" stroke-width="4.1532" stroke-miterlimit="10" stroke-linecap="round" stroke-linejoin="round"/>
</g>
<mask id="mask56_412_14441" style="mask-type:luminance" maskUnits="userSpaceOnUse" x="0" y="0" width="485" height="448">
<path d="M484.424 0H0V447.1H484.424V0Z" fill="white"/>
</mask>
<g mask="url(#mask56_412_14441)">
<path d="M165.593 65.7109C191.614 67.0252 203.443 76.2248 208.962 91.207" stroke="black" stroke-opacity="0.85" stroke-width="4.1532" stroke-miterlimit="10" stroke-linecap="round" stroke-linejoin="round"/>
</g>
<mask id="mask57_412_14441" style="mask-type:luminance" maskUnits="userSpaceOnUse" x="0" y="0" width="485" height="448">
<path d="M484.424 0H0V447.1H484.424V0Z" fill="white"/>
</mask>
<g mask="url(#mask57_412_14441)">
<path d="M71.2308 218.424C61.7683 227.886 19.4502 254.696 11.8277 280.192C4.46806 305.426 37.0609 310.945 41.2664 319.882" stroke="black" stroke-opacity="0.85" stroke-width="1.0988" stroke-miterlimit="10" stroke-linecap="round" stroke-linejoin="round"/>
</g>
<mask id="mask58_412_14441" style="mask-type:luminance" maskUnits="userSpaceOnUse" x="0" y="0" width="485" height="448">
<path d="M484.424 0H0V447.1H484.424V0Z" fill="white"/>
</mask>
<g mask="url(#mask58_412_14441)">
<path d="M40.2148 314.1C46.5231 325.139 74.1219 338.281 101.458 343.801C112.234 345.904 123.537 347.218 135.102 347.481C165.592 348.269 197.659 341.435 229.464 322.773" stroke="black" stroke-opacity="0.85" stroke-width="1.0988" stroke-miterlimit="10" stroke-linecap="round" stroke-linejoin="round"/>
</g>
<mask id="mask59_412_14441" style="mask-type:luminance" maskUnits="userSpaceOnUse" x="0" y="0" width="485" height="448">
<path d="M484.424 0H0V447.1H484.424V0Z" fill="white"/>
</mask>
<g mask="url(#mask59_412_14441)">
<path d="M249.439 310.158C249.439 310.158 246.547 317.255 259.427 323.826" stroke="black" stroke-opacity="0.85" stroke-width="1.0988" stroke-miterlimit="10" stroke-linecap="round" stroke-linejoin="round"/>
</g>
<mask id="mask60_412_14441" style="mask-type:luminance" maskUnits="userSpaceOnUse" x="0" y="0" width="485" height="448">
<path d="M484.424 0H0V447.1H484.424V0Z" fill="white"/>
</mask>
<g mask="url(#mask60_412_14441)">
<path d="M199.236 165.592L199.499 176.368" stroke="#AF8C5D" stroke-width="1.4867" stroke-miterlimit="10" stroke-linecap="round" stroke-linejoin="round"/>
</g>
<mask id="mask61_412_14441" style="mask-type:luminance" maskUnits="userSpaceOnUse" x="0" y="0" width="485" height="448">
<path d="M484.424 0H0V447.1H484.424V0Z" fill="white"/>
</mask>
<g mask="url(#mask61_412_14441)">
<path d="M205.808 160.336L206.07 171.113" stroke="#AF8C5D" stroke-width="1.4867" stroke-miterlimit="10" stroke-linecap="round" stroke-linejoin="round"/>
</g>
<mask id="mask62_412_14441" style="mask-type:luminance" maskUnits="userSpaceOnUse" x="0" y="0" width="485" height="448">
<path d="M484.424 0H0V447.1H484.424V0Z" fill="white"/>
</mask>
<g mask="url(#mask62_412_14441)">
<path d="M131.947 13.666C131.947 13.666 125.376 40.4762 152.975 47.0473C180.574 53.8813 194.768 56.5098 202.39 74.909" stroke="black" stroke-opacity="0.85" stroke-width="1.0988" stroke-miterlimit="10" stroke-linecap="round" stroke-linejoin="round"/>
</g>
<mask id="mask63_412_14441" style="mask-type:luminance" maskUnits="userSpaceOnUse" x="0" y="0" width="485" height="448">
<path d="M484.424 0H0V447.1H484.424V0Z" fill="white"/>
</mask>
<g mask="url(#mask63_412_14441)">
<path d="M120.121 53.0918C120.121 53.0918 124.327 58.8744 143.514 55.9831C162.439 53.3547 175.056 51.2518 185.044 56.5088" stroke="black" stroke-opacity="0.85" stroke-width="1.0988" stroke-miterlimit="10" stroke-linecap="round" stroke-linejoin="round"/>
</g>
<mask id="mask64_412_14441" style="mask-type:luminance" maskUnits="userSpaceOnUse" x="0" y="0" width="485" height="448">
<path d="M484.424 0H0V447.1H484.424V0Z" fill="white"/>
</mask>
<g mask="url(#mask64_412_14441)">
<path d="M250.491 309.367C252.331 313.836 257.851 317.515 266.788 316.464" stroke="black" stroke-opacity="0.85" stroke-width="1.0988" stroke-miterlimit="10" stroke-linecap="round" stroke-linejoin="round"/>
</g>
<mask id="mask65_412_14441" style="mask-type:luminance" maskUnits="userSpaceOnUse" x="0" y="0" width="485" height="448">
<path d="M484.424 0H0V447.1H484.424V0Z" fill="white"/>
</mask>
<g mask="url(#mask65_412_14441)">
<g opacity="0.2307">
<mask id="mask66_412_14441" style="mask-type:luminance" maskUnits="userSpaceOnUse" x="153" y="197" width="99" height="180">
<path d="M251.805 197.393H153.238V376.653H251.805V197.393Z" fill="white"/>
</mask>
<g mask="url(#mask66_412_14441)">
<path d="M221.053 330.395C230.253 308.053 213.694 277.301 191.089 279.929C174.267 281.769 142.725 275.461 156.656 274.935C170.324 274.672 193.717 272.044 201.866 261.793C213.168 247.073 204.494 213.429 190.563 211.326C187.935 210.801 213.956 200.024 218.688 197.396C223.419 194.767 197.397 216.583 220.528 263.107C232.618 287.289 251.543 308.842 251.543 308.842C251.543 308.842 221.579 321.721 216.059 336.178C210.539 350.634 236.561 357.731 230.779 360.36C223.682 363.251 165.067 378.496 172.953 376.656C210.54 367.982 215.534 343.8 221.053 330.395Z" fill="#503324"/>
</g>
</g>
</g>
<mask id="mask67_412_14441" style="mask-type:luminance" maskUnits="userSpaceOnUse" x="0" y="0" width="485" height="448">
<path d="M484.424 0H0V447.1H484.424V0Z" fill="white"/>
</mask>
<g mask="url(#mask67_412_14441)">
<g opacity="0.2307">
<mask id="mask68_412_14441" style="mask-type:luminance" maskUnits="userSpaceOnUse" x="212" y="191" width="109" height="179">
<path d="M320.41 191.615H212.906V369.299H320.41V191.615Z" fill="white"/>
</mask>
<g mask="url(#mask68_412_14441)">
<path d="M295.439 250.757C268.103 197.662 246.812 185.308 232.356 194.245C260.743 193.72 314.626 275.202 275.725 293.338C240.504 309.897 212.905 240.506 212.905 240.506C212.905 240.506 238.138 292.812 258.115 318.308C261.532 322.514 241.293 326.194 226.048 350.901C220.265 360.101 248.389 368.249 248.389 368.249L260.48 369.3L251.806 360.626C251.806 360.626 247.075 360.889 264.686 353.004C282.559 345.119 301.221 337.759 310.947 332.765C330.66 322.777 316.466 285.715 295.439 250.757Z" fill="#503324"/>
</g>
</g>
</g>
<mask id="mask69_412_14441" style="mask-type:luminance" maskUnits="userSpaceOnUse" x="0" y="0" width="485" height="448">
<path d="M484.424 0H0V447.1H484.424V0Z" fill="white"/>
</mask>
<g mask="url(#mask69_412_14441)">
<g opacity="0.2307">
<mask id="mask70_412_14441" style="mask-type:luminance" maskUnits="userSpaceOnUse" x="56" y="239" width="42" height="37">
<path d="M97.7784 239.979H56.5117V275.2H97.7784V239.979Z" fill="white"/>
</mask>
<g mask="url(#mask70_412_14441)">
<path d="M73.8606 239.979C73.8606 239.979 56.25 267.314 89.3685 270.731C99.8823 271.783 97.7796 273.623 96.7282 274.674C95.1511 276.777 91.2084 272.571 81.2203 271.257C71.2322 269.943 56.25 269.68 56.25 269.68C56.25 269.68 62.5583 266.526 67.0267 258.903C71.495 251.544 73.8606 239.979 73.8606 239.979Z" fill="#503324"/>
</g>
</g>
</g>
<mask id="mask71_412_14441" style="mask-type:luminance" maskUnits="userSpaceOnUse" x="0" y="0" width="485" height="448">
<path d="M484.424 0H0V447.1H484.424V0Z" fill="white"/>
</mask>
<g mask="url(#mask71_412_14441)">
<g opacity="0.2307">
<mask id="mask72_412_14441" style="mask-type:luminance" maskUnits="userSpaceOnUse" x="110" y="52" width="139" height="135">
<path d="M248.654 52.3105H110.135V186.099H248.654V52.3105Z" fill="white"/>
</mask>
<g mask="url(#mask72_412_14441)">
<path d="M110.135 61.7707C180.314 42.583 190.04 51.2569 205.285 103.037C220.267 154.818 206.336 186.097 206.336 186.097C206.336 186.097 234.723 177.948 246.814 184.782C258.905 191.354 215.536 84.6383 215.536 84.6383L205.285 77.0158C205.022 76.753 133.528 65.1877 110.135 61.7707Z" fill="#503324"/>
</g>
</g>
</g>
<mask id="mask73_412_14441" style="mask-type:luminance" maskUnits="userSpaceOnUse" x="0" y="0" width="485" height="448">
<path d="M484.424 0H0V447.1H484.424V0Z" fill="white"/>
</mask>
<g mask="url(#mask73_412_14441)">
<g opacity="0.2307">
<mask id="mask74_412_14441" style="mask-type:luminance" maskUnits="userSpaceOnUse" x="93" y="37" width="77" height="20">
<path d="M169.012 37.3203H93.8379V56.7709H169.012V37.3203Z" fill="white"/>
</mask>
<g mask="url(#mask74_412_14441)">
<path d="M93.8379 39.4224C93.8379 39.4224 101.198 34.4283 115.654 40.4738C130.111 46.5192 133.002 52.3019 148.51 51.7762C164.28 51.5133 169.012 51.2505 169.012 51.2505L127.745 57.0331C127.745 57.0331 100.935 38.1082 93.8379 39.4224Z" fill="#503324"/>
</g>
</g>
</g>
<mask id="mask75_412_14441" style="mask-type:luminance" maskUnits="userSpaceOnUse" x="0" y="0" width="485" height="448">
<path d="M484.424 0H0V447.1H484.424V0Z" fill="white"/>
</mask>
<g mask="url(#mask75_412_14441)">
<g opacity="0.2307">
<mask id="mask76_412_14441" style="mask-type:luminance" maskUnits="userSpaceOnUse" x="131" y="13" width="59" height="47">
<path d="M189.249 13.1406H131.16V59.1386H189.249V13.1406Z" fill="white"/>
</mask>
<g mask="url(#mask76_412_14441)">
<path d="M131.161 13.1406C131.161 13.1406 130.109 38.3738 142.2 43.105C154.028 47.8362 179.524 54.1445 187.147 58.3501C194.769 62.5556 181.101 53.356 161.651 42.8422C141.937 31.8027 132.738 31.5398 131.161 13.1406Z" fill="#503324"/>
</g>
</g>
</g>
<mask id="mask77_412_14441" style="mask-type:luminance" maskUnits="userSpaceOnUse" x="0" y="0" width="485" height="448">
<path d="M484.424 0H0V447.1H484.424V0Z" fill="white"/>
</mask>
<g mask="url(#mask77_412_14441)">
<g opacity="0.2307">
<mask id="mask78_412_14441" style="mask-type:luminance" maskUnits="userSpaceOnUse" x="193" y="44" width="23" height="40">
<path d="M215.008 44.9453H193.718V83.8464H215.008V44.9453Z" fill="white"/>
</mask>
<g mask="url(#mask78_412_14441)">
<path d="M193.717 44.9453C193.717 44.9453 206.333 54.6706 210.276 68.0757C213.956 81.4808 215.007 83.8464 215.007 83.8464L202.391 76.4868C202.128 76.2239 193.191 54.1449 193.717 44.9453Z" fill="#503324"/>
</g>
</g>
</g>
<mask id="mask79_412_14441" style="mask-type:luminance" maskUnits="userSpaceOnUse" x="0" y="0" width="485" height="448">
<path d="M484.424 0H0V447.1H484.424V0Z" fill="white"/>
</mask>
<g mask="url(#mask79_412_14441)">
<g opacity="0.2307">
<mask id="mask80_412_14441" style="mask-type:luminance" maskUnits="userSpaceOnUse" x="62" y="362" width="85" height="67">
<path d="M146.141 362.203H62.5566V428.703H146.141V362.203Z" fill="white"/>
</mask>
<g mask="url(#mask80_412_14441)">
<path d="M71.4934 362.203C71.4934 362.203 94.8866 374.82 120.908 384.808C135.365 390.59 135.89 404.784 137.73 411.355C138.519 414.509 69.6535 423.446 62.5566 428.966C62.5566 428.966 88.0526 428.703 110.92 424.235C133.788 419.766 146.667 418.978 146.141 411.355C145.616 403.733 135.628 381.654 134.051 381.654C129.845 381.916 71.4934 362.203 71.4934 362.203Z" fill="#503324"/>
</g>
</g>
</g>
<mask id="mask81_412_14441" style="mask-type:luminance" maskUnits="userSpaceOnUse" x="0" y="0" width="485" height="448">
<path d="M484.424 0H0V447.1H484.424V0Z" fill="white"/>
</mask>
<g mask="url(#mask81_412_14441)">
<g opacity="0.2307">
<mask id="mask82_412_14441" style="mask-type:luminance" maskUnits="userSpaceOnUse" x="182" y="375" width="2" height="2">
<path d="M183.201 375.867H182.938V376.656H183.201V375.867Z" fill="white"/>
</mask>
<g mask="url(#mask82_412_14441)">
<path d="M182.938 375.867C182.938 376.13 183.201 376.393 183.201 376.656L182.938 375.867Z" fill="#503324"/>
</g>
</g>
</g>
<mask id="mask83_412_14441" style="mask-type:luminance" maskUnits="userSpaceOnUse" x="0" y="0" width="485" height="448">
<path d="M484.424 0H0V447.1H484.424V0Z" fill="white"/>
</mask>
<g mask="url(#mask83_412_14441)">
<g opacity="0.2307">
<mask id="mask84_412_14441" style="mask-type:luminance" maskUnits="userSpaceOnUse" x="159" y="360" width="99" height="71">
<path d="M257.85 360.1H159.809V430.542H257.85V360.1Z" fill="white"/>
</mask>
<g mask="url(#mask84_412_14441)">
<path d="M159.809 379.549C159.809 379.549 187.67 381.389 218.16 373.241C230.777 369.824 217.635 404.52 220.526 405.571C233.668 410.828 261.267 436.85 257.587 428.964C253.907 421.079 226.834 399.789 225.783 391.378C224.731 382.966 229.988 360.625 229.988 360.625C229.988 360.625 237.611 358.259 220.263 362.99C202.652 367.721 159.809 379.549 159.809 379.549Z" fill="#503324"/>
</g>
</g>
</g>
<mask id="mask85_412_14441" style="mask-type:luminance" maskUnits="userSpaceOnUse" x="0" y="0" width="485" height="448">
<path d="M484.424 0H0V447.1H484.424V0Z" fill="white"/>
</mask>
<g mask="url(#mask85_412_14441)">
<g opacity="0.2307">
<mask id="mask86_412_14441" style="mask-type:luminance" maskUnits="userSpaceOnUse" x="13" y="272" width="42" height="47">
<path d="M54.4082 272.307H13.4043V318.042H54.4082V272.307Z" fill="white"/>
</mask>
<g mask="url(#mask86_412_14441)">
<path d="M13.6656 292.546C13.6656 292.546 28.1221 322.247 54.6695 272.307C37.0588 300.694 42.5786 318.042 42.5786 318.042C42.5786 318.042 12.0885 302.797 13.6656 292.546Z" fill="#503324"/>
</g>
</g>
</g>
<mask id="mask87_412_14441" style="mask-type:luminance" maskUnits="userSpaceOnUse" x="0" y="0" width="485" height="448">
<path d="M484.424 0H0V447.1H484.424V0Z" fill="white"/>
</mask>
<g mask="url(#mask87_412_14441)">
<g opacity="0.2307">
<mask id="mask88_412_14441" style="mask-type:luminance" maskUnits="userSpaceOnUse" x="62" y="192" width="193" height="48">
<path d="M254.171 192.402H62.0312V239.189H254.171V192.402Z" fill="white"/>
</mask>
<g mask="url(#mask88_412_14441)">
<path d="M62.0312 226.834C62.0312 226.834 76.2249 223.154 91.2071 225.782C106.189 228.411 113.812 229.462 113.812 229.462C113.812 229.462 124.326 243.13 135.891 238.399C147.456 233.668 140.885 229.462 140.885 229.462C140.885 229.462 142.199 239.188 163.227 227.622C230.778 190.824 254.434 194.241 253.908 194.241C245.497 192.401 235.246 187.407 185.569 213.429C154.29 229.725 131.422 228.411 131.422 228.411C131.422 228.411 129.583 233.668 123.537 231.565C117.492 229.462 109.606 224.994 109.606 224.994C109.606 224.994 104.875 225.257 98.0411 221.314C91.4699 217.371 88.3158 217.108 81.4818 217.371C74.6478 217.371 70.968 218.423 70.968 218.423L62.0312 226.834Z" fill="#503324"/>
</g>
</g>
</g>
<mask id="mask89_412_14441" style="mask-type:luminance" maskUnits="userSpaceOnUse" x="0" y="0" width="485" height="448">
<path d="M484.424 0H0V447.1H484.424V0Z" fill="white"/>
</mask>
<g mask="url(#mask89_412_14441)">
<g opacity="0.2307">
<mask id="mask90_412_14441" style="mask-type:luminance" maskUnits="userSpaceOnUse" x="364" y="244" width="59" height="22">
<path d="M422.654 244.449H364.303V265.214H422.654V244.449Z" fill="white"/>
</mask>
<g mask="url(#mask90_412_14441)">
<path d="M364.303 247.866C364.303 247.866 391.376 249.706 402.941 244.974C414.769 240.506 422.654 262.322 422.654 262.322C422.654 262.322 421.34 252.334 422.392 261.271C423.443 270.208 391.901 260.482 391.901 260.482L364.303 247.866Z" fill="#5C5B58"/>
</g>
</g>
</g>
<mask id="mask91_412_14441" style="mask-type:luminance" maskUnits="userSpaceOnUse" x="0" y="0" width="485" height="448">
<path d="M484.424 0H0V447.1H484.424V0Z" fill="white"/>
</mask>
<g mask="url(#mask91_412_14441)">
<g opacity="0.2307">
<mask id="mask92_412_14441" style="mask-type:luminance" maskUnits="userSpaceOnUse" x="227" y="351" width="49" height="55">
<path d="M275.462 351.688H227.099V405.834H275.462V351.688Z" fill="white"/>
</mask>
<g mask="url(#mask92_412_14441)">
<path d="M267.314 351.688C267.314 351.688 268.366 364.83 272.834 377.972C276.777 389.537 277.302 401.891 266 403.205C254.698 404.257 240.767 405.834 240.767 405.834C240.767 405.834 232.619 405.834 228.939 397.685C223.945 386.909 230.516 361.15 230.516 361.15L263.897 369.298C263.897 369.298 247.075 362.201 251.018 359.836C254.698 357.47 267.314 351.688 267.314 351.688Z" fill="#9A9997"/>
</g>
</g>
</g>
<mask id="mask93_412_14441" style="mask-type:luminance" maskUnits="userSpaceOnUse" x="0" y="0" width="485" height="448">
<path d="M484.424 0H0V447.1H484.424V0Z" fill="white"/>
</mask>
<g mask="url(#mask93_412_14441)">
<g opacity="0.2307">
<mask id="mask94_412_14441" style="mask-type:luminance" maskUnits="userSpaceOnUse" x="251" y="192" width="156" height="188">
<path d="M406.095 192.402H251.017V379.811H406.095V192.402Z" fill="white"/>
</mask>
<g mask="url(#mask94_412_14441)">
<path d="M314.362 329.082C314.362 329.082 324.613 368.509 329.607 374.029C330.922 375.343 333.55 380.863 343.275 379.812C377.708 376.132 372.977 300.695 406.095 311.735C352.212 286.764 286.501 190.037 251.017 192.666C256.799 200.288 343.538 292.81 314.362 329.082Z" fill="#9A9997"/>
</g>
</g>
</g>
<mask id="mask95_412_14441" style="mask-type:luminance" maskUnits="userSpaceOnUse" x="0" y="0" width="485" height="448">
<path d="M484.424 0H0V447.1H484.424V0Z" fill="white"/>
</mask>
<g mask="url(#mask95_412_14441)">
<path d="M231.83 194.242C231.83 194.242 199.237 202.39 211.59 239.714C223.944 277.039 251.017 308.843 251.017 308.843C251.017 308.843 219.476 325.402 217.11 338.544C214.482 353.264 239.189 365.88 239.189 365.88C239.189 365.88 250.492 371.137 261.794 370.349C268.628 369.823 243.92 362.989 253.12 357.995C262.32 353.264 293.598 340.647 293.598 340.647C293.598 340.647 324.088 329.082 321.46 309.631C318.831 290.444 267.314 173.74 231.83 194.242Z" stroke="black" stroke-opacity="0.85" stroke-width="1.0988" stroke-miterlimit="10" stroke-linecap="round" stroke-linejoin="round"/>
</g>
<mask id="mask96_412_14441" style="mask-type:luminance" maskUnits="userSpaceOnUse" x="0" y="0" width="485" height="448">
<path d="M484.424 0H0V447.1H484.424V0Z" fill="white"/>
</mask>
<g mask="url(#mask96_412_14441)">
<path d="M137.732 230.514V231.039V231.565V232.354V235.771V232.879" stroke="black" stroke-opacity="0.85" stroke-width="1.0988" stroke-miterlimit="10" stroke-linecap="round" stroke-linejoin="round"/>
</g>
<mask id="mask97_412_14441" style="mask-type:luminance" maskUnits="userSpaceOnUse" x="0" y="0" width="485" height="448">
<path d="M484.424 0H0V447.1H484.424V0Z" fill="white"/>
</mask>
<g mask="url(#mask97_412_14441)">
<path d="M183.204 217.639L183.467 218.164L183.73 218.427L183.993 219.479L184.255 219.741" stroke="black" stroke-opacity="0.85" stroke-width="1.0988" stroke-miterlimit="10" stroke-linecap="round" stroke-linejoin="round"/>
</g>
<mask id="mask98_412_14441" style="mask-type:luminance" maskUnits="userSpaceOnUse" x="0" y="0" width="485" height="448">
<path d="M484.424 0H0V447.1H484.424V0Z" fill="white"/>
</mask>
<g mask="url(#mask98_412_14441)">
<path d="M215.533 374.816V377.445V377.971V379.022V379.285" stroke="black" stroke-opacity="0.85" stroke-width="1.0988" stroke-miterlimit="10" stroke-linecap="round" stroke-linejoin="round"/>
</g>
<mask id="mask99_412_14441" style="mask-type:luminance" maskUnits="userSpaceOnUse" x="0" y="0" width="485" height="448">
<path d="M484.424 0H0V447.1H484.424V0Z" fill="white"/>
</mask>
<g mask="url(#mask99_412_14441)">
<path d="M88.3154 380.074V382.965V383.491V384.28V384.805" stroke="black" stroke-opacity="0.85" stroke-width="1.0988" stroke-miterlimit="10" stroke-linecap="round" stroke-linejoin="round"/>
</g>
<mask id="mask100_412_14441" style="mask-type:luminance" maskUnits="userSpaceOnUse" x="0" y="0" width="485" height="448">
<path d="M484.424 0H0V447.1H484.424V0Z" fill="white"/>
</mask>
<g mask="url(#mask100_412_14441)">
<path d="M141.675 230.514V231.302V231.828V235.508V232.354" stroke="black" stroke-opacity="0.85" stroke-width="1.0988" stroke-miterlimit="10" stroke-linecap="round" stroke-linejoin="round"/>
</g>
<mask id="mask101_412_14441" style="mask-type:luminance" maskUnits="userSpaceOnUse" x="0" y="0" width="485" height="448">
<path d="M484.424 0H0V447.1H484.424V0Z" fill="white"/>
</mask>
<g mask="url(#mask101_412_14441)">
<path d="M186.882 216.057L187.145 216.582L187.408 217.371L187.67 217.897" stroke="black" stroke-opacity="0.85" stroke-width="1.0988" stroke-miterlimit="10" stroke-linecap="round" stroke-linejoin="round"/>
</g>
<mask id="mask102_412_14441" style="mask-type:luminance" maskUnits="userSpaceOnUse" x="0" y="0" width="485" height="448">
<path d="M484.424 0H0V447.1H484.424V0Z" fill="white"/>
</mask>
<g mask="url(#mask102_412_14441)">
<path d="M219.738 374.293L219.476 377.71V378.499V379.024" stroke="black" stroke-opacity="0.85" stroke-width="1.0988" stroke-miterlimit="10" stroke-linecap="round" stroke-linejoin="round"/>
</g>
<mask id="mask103_412_14441" style="mask-type:luminance" maskUnits="userSpaceOnUse" x="0" y="0" width="485" height="448">
<path d="M484.424 0H0V447.1H484.424V0Z" fill="white"/>
</mask>
<g mask="url(#mask103_412_14441)">
<path d="M219.738 374.293L219.476 377.71V378.499V379.024" stroke="black" stroke-opacity="0.85" stroke-width="1.0988" stroke-miterlimit="10" stroke-linecap="round" stroke-linejoin="round"/>
</g>
<mask id="mask104_412_14441" style="mask-type:luminance" maskUnits="userSpaceOnUse" x="0" y="0" width="485" height="448">
<path d="M484.424 0H0V447.1H484.424V0Z" fill="white"/>
</mask>
<g mask="url(#mask104_412_14441)">
<path d="M92.5207 379.812L92.2578 383.229V384.018V384.281" stroke="black" stroke-opacity="0.85" stroke-width="1.0988" stroke-miterlimit="10" stroke-linecap="round" stroke-linejoin="round"/>
</g>
<mask id="mask105_412_14441" style="mask-type:luminance" maskUnits="userSpaceOnUse" x="0" y="0" width="485" height="448">
<path d="M484.424 0H0V447.1H484.424V0Z" fill="white"/>
</mask>
<g mask="url(#mask105_412_14441)">
<path d="M220.265 199.762C220.265 199.762 207.648 206.07 187.409 218.424C167.17 231.04 147.982 238.4 124.852 235.771C108.292 233.931 93.8359 223.943 93.8359 223.943" stroke="black" stroke-opacity="0.85" stroke-width="1.0988" stroke-miterlimit="10" stroke-linecap="round" stroke-linejoin="round"/>
</g>
<mask id="mask106_412_14441" style="mask-type:luminance" maskUnits="userSpaceOnUse" x="0" y="0" width="485" height="448">
<path d="M484.424 0H0V447.1H484.424V0Z" fill="white"/>
</mask>
<g mask="url(#mask106_412_14441)">
<path d="M90.6829 314.364C87.5288 314.101 84.6375 316.203 86.4774 321.198C90.683 331.974 105.665 351.162 109.871 351.425C117.23 351.95 150.349 320.146 141.149 319.358C117.493 316.729 104.614 315.678 90.6829 314.364Z" fill="#3E3124"/>
</g>
<mask id="mask107_412_14441" style="mask-type:luminance" maskUnits="userSpaceOnUse" x="0" y="0" width="485" height="448">
<path d="M484.424 0H0V447.1H484.424V0Z" fill="white"/>
</mask>
<g mask="url(#mask107_412_14441)">
<path d="M90.6829 314.364C87.5288 314.101 84.6375 316.203 86.4774 321.198C90.683 331.974 105.665 351.162 109.871 351.425C117.23 351.95 150.349 320.146 141.149 319.358C117.493 316.729 104.614 315.678 90.6829 314.364Z" stroke="#3E3124" stroke-width="1.0988" stroke-miterlimit="10" stroke-linecap="round" stroke-linejoin="round"/>
</g>
<mask id="mask108_412_14441" style="mask-type:luminance" maskUnits="userSpaceOnUse" x="0" y="0" width="485" height="448">
<path d="M484.424 0H0V447.1H484.424V0Z" fill="white"/>
</mask>
<g mask="url(#mask108_412_14441)">
<path d="M88.8423 315.414C78.3285 313.837 100.67 349.321 106.716 349.584C114.075 350.11 147.457 321.723 138.52 320.671C114.864 318.306 103.562 317.78 88.8423 315.414Z" fill="#BAB5B0"/>
</g>
<mask id="mask109_412_14441" style="mask-type:luminance" maskUnits="userSpaceOnUse" x="0" y="0" width="485" height="448">
<path d="M484.424 0H0V447.1H484.424V0Z" fill="white"/>
</mask>
<g mask="url(#mask109_412_14441)">
<path d="M88.8423 315.414C78.3285 313.837 100.67 349.321 106.716 349.584C114.075 350.11 147.457 321.723 138.52 320.671C114.864 318.306 103.562 317.78 88.8423 315.414Z" stroke="#3E3124" stroke-width="1.0988" stroke-miterlimit="10" stroke-linecap="round" stroke-linejoin="round"/>
</g>
<mask id="mask110_412_14441" style="mask-type:luminance" maskUnits="userSpaceOnUse" x="0" y="0" width="485" height="448">
<path d="M484.424 0H0V447.1H484.424V0Z" fill="white"/>
</mask>
<g mask="url(#mask110_412_14441)">
<path d="M95.9385 338.017L100.144 315.938" stroke="#3E3124" stroke-width="1.0988" stroke-miterlimit="10" stroke-linecap="round" stroke-linejoin="round"/>
</g>
<mask id="mask111_412_14441" style="mask-type:luminance" maskUnits="userSpaceOnUse" x="0" y="0" width="485" height="448">
<path d="M484.424 0H0V447.1H484.424V0Z" fill="white"/>
</mask>
<g mask="url(#mask111_412_14441)">
<path d="M122.485 342.223L126.954 319.881" stroke="#3E3124" stroke-width="1.0988" stroke-miterlimit="10" stroke-linecap="round" stroke-linejoin="round"/>
</g>
<mask id="mask112_412_14441" style="mask-type:luminance" maskUnits="userSpaceOnUse" x="0" y="0" width="485" height="448">
<path d="M484.424 0H0V447.1H484.424V0Z" fill="white"/>
</mask>
<g mask="url(#mask112_412_14441)">
<path d="M104.348 321.725L121.433 323.565L119.068 337.233C119.068 337.233 110.919 343.804 108.291 343.804C105.925 343.804 101.457 335.918 101.457 335.918C101.983 333.29 104.348 321.725 104.348 321.725Z" fill="#E11F27"/>
</g>
<mask id="mask113_412_14441" style="mask-type:luminance" maskUnits="userSpaceOnUse" x="0" y="0" width="485" height="448">
<path d="M484.424 0H0V447.1H484.424V0Z" fill="white"/>
</mask>
<g mask="url(#mask113_412_14441)">
<path d="M121.171 324.087L104.875 322.51L101.983 335.915L108.029 343.275" stroke="#F0827F" stroke-width="0.809" stroke-miterlimit="10" stroke-linecap="round" stroke-linejoin="round"/>
</g>
<mask id="mask114_412_14441" style="mask-type:luminance" maskUnits="userSpaceOnUse" x="0" y="0" width="485" height="448">
<path d="M484.424 0H0V447.1H484.424V0Z" fill="white"/>
</mask>
<g mask="url(#mask114_412_14441)">
<path d="M121.435 324.09L119.332 337.232C119.332 337.232 110.659 343.277 108.293 344.066" stroke="#A5222F" stroke-width="0.809" stroke-miterlimit="10" stroke-linecap="round" stroke-linejoin="round"/>
</g>
<mask id="mask115_412_14441" style="mask-type:luminance" maskUnits="userSpaceOnUse" x="0" y="0" width="485" height="448">
<path d="M484.424 0H0V447.1H484.424V0Z" fill="white"/>
</mask>
<g mask="url(#mask115_412_14441)">
<path d="M114.862 102.507C114.336 101.719 118.542 107.764 123.01 113.021C125.902 116.438 128.793 119.592 130.37 120.381C134.838 122.484 155.866 124.849 170.585 114.335C179.785 107.764 175.054 104.61 175.054 104.61C175.054 104.61 122.747 114.598 114.862 102.507Z" fill="white"/>
</g>
<mask id="mask116_412_14441" style="mask-type:luminance" maskUnits="userSpaceOnUse" x="0" y="0" width="485" height="448">
<path d="M484.424 0H0V447.1H484.424V0Z" fill="white"/>
</mask>
<g mask="url(#mask116_412_14441)">
<path d="M172.163 115.129C164.804 119.072 156.393 120.911 149.033 121.7C141.673 122.488 135.365 122.226 131.948 122.226C125.377 122.226 115.126 104.089 115.126 104.089C115.126 104.089 157.181 113.552 175.843 103.301C178.472 106.718 175.843 112.238 172.163 115.129Z" stroke="black" stroke-opacity="0.85" stroke-width="1.0988" stroke-miterlimit="10" stroke-linecap="round" stroke-linejoin="round"/>
</g>
<mask id="mask117_412_14441" style="mask-type:luminance" maskUnits="userSpaceOnUse" x="0" y="0" width="485" height="448">
<path d="M484.424 0H0V447.1H484.424V0Z" fill="white"/>
</mask>
<g mask="url(#mask117_412_14441)">
<path d="M110.92 311.473C104.087 324.089 110.132 323.301 116.966 326.192C108.555 323.301 105.926 324.615 99.6182 333.815C105.401 323.826 101.458 320.935 92.7842 318.044C103.035 321.724 105.138 321.724 110.92 311.473Z" fill="white"/>
</g>
<mask id="mask118_412_14441" style="mask-type:luminance" maskUnits="userSpaceOnUse" x="0" y="0" width="485" height="448">
<path d="M484.424 0H0V447.1H484.424V0Z" fill="white"/>
</mask>
<g mask="url(#mask118_412_14441)">
<g opacity="0.2289">
<mask id="mask119_412_14441" style="mask-type:luminance" maskUnits="userSpaceOnUse" x="125" y="210" width="43" height="14">
<path d="M167.432 210.018H125.64V223.16H167.432V210.018Z" fill="white"/>
</mask>
<g mask="url(#mask119_412_14441)">
<path d="M125.639 218.956C129.582 220.27 141.147 218.956 150.872 215.013C154.289 213.699 163.226 207.127 166.906 211.333C169.797 214.75 160.334 219.744 158.232 220.27C152.975 221.584 146.141 223.424 140.621 223.161C135.89 222.898 127.742 221.847 126.427 220.795C126.165 220.533 125.376 218.693 125.639 218.956Z" fill="#3E3124"/>
</g>
</g>
</g>
<mask id="mask120_412_14441" style="mask-type:luminance" maskUnits="userSpaceOnUse" x="0" y="0" width="485" height="448">
<path d="M484.424 0H0V447.1H484.424V0Z" fill="white"/>
</mask>
<g mask="url(#mask120_412_14441)">
<g opacity="0.2327">
<mask id="mask121_412_14441" style="mask-type:luminance" maskUnits="userSpaceOnUse" x="89" y="207" width="18" height="13">
<path d="M106.716 207.645H89.3682V219.21H106.716V207.645Z" fill="white"/>
</mask>
<g mask="url(#mask121_412_14441)">
<path d="M106.716 216.319C106.716 216.319 105.665 218.422 98.8306 213.953C92.2595 209.485 89.3682 205.542 89.3682 208.959C89.3682 212.376 104.613 219.999 106.453 218.947" fill="#3E3124"/>
</g>
</g>
</g>
<mask id="mask122_412_14441" style="mask-type:luminance" maskUnits="userSpaceOnUse" x="0" y="0" width="485" height="448">
<path d="M484.424 0H0V447.1H484.424V0Z" fill="white"/>
</mask>
<g mask="url(#mask122_412_14441)">
<g opacity="0.2327">
<mask id="mask123_412_14441" style="mask-type:luminance" maskUnits="userSpaceOnUse" x="107" y="202" width="28" height="30">
<path d="M134.051 202.393H107.504V231.568H134.051V202.393Z" fill="white"/>
</mask>
<g mask="url(#mask123_412_14441)">
<path d="M117.754 202.392C123.011 203.181 129.582 199.501 121.696 208.963C114.6 217.637 129.845 207.649 131.422 205.021C132.736 202.392 139.833 208.437 124.851 216.586C121.959 218.163 133.262 228.939 127.742 230.779C123.536 232.356 108.291 228.414 109.343 224.471C110.394 220.528 107.766 218.163 107.766 218.163C107.766 218.163 112.234 201.604 117.754 202.392Z" fill="#503324"/>
</g>
</g>
</g>
<mask id="mask124_412_14441" style="mask-type:luminance" maskUnits="userSpaceOnUse" x="0" y="0" width="485" height="448">
<path d="M484.424 0H0V447.1H484.424V0Z" fill="white"/>
</mask>
<g mask="url(#mask124_412_14441)">
<path d="M96.4633 253.908C105.137 254.171 113.023 254.171 120.908 254.434C127.216 254.697 129.056 258.902 128.793 262.582C128.268 267.839 125.113 271.519 119.331 273.359C119.068 273.359 118.805 273.622 118.017 273.622C124.062 277.039 124.062 283.61 128.005 289.655C123.274 289.655 119.331 289.655 114.862 289.392C112.497 285.45 110.657 281.77 109.08 277.827C108.291 275.724 106.977 274.41 103.56 274.936C102.509 279.404 101.983 284.135 102.509 289.392C98.3032 289.392 94.6234 289.392 90.6807 289.392C89.6293 277.564 94.3605 265.473 96.4633 253.908ZM106.977 261.268C106.451 263.633 105.926 265.736 105.137 268.365C107.766 268.365 110.131 268.365 112.76 268.102C114.862 267.839 116.44 266.525 116.702 264.948C117.228 263.108 116.177 261.794 114.074 261.531C111.971 261.268 109.606 261.268 106.977 261.268Z" fill="black" fill-opacity="0.85"/>
</g>
<mask id="mask125_412_14441" style="mask-type:luminance" maskUnits="userSpaceOnUse" x="0" y="0" width="485" height="448">
<path d="M484.424 0H0V447.1H484.424V0Z" fill="white"/>
</mask>
<g mask="url(#mask125_412_14441)">
<path d="M163.489 264.158C159.547 264.42 156.13 264.42 152.45 264.683C152.187 261.792 150.61 260.215 147.456 259.952C145.353 259.952 143.776 260.478 142.724 262.58C142.462 264.42 143.776 264.946 145.09 265.209C147.719 265.997 150.347 266.523 152.975 267.312C154.552 267.837 155.867 268.363 157.181 268.889C165.855 272.831 164.015 282.819 156.918 287.551C154.552 289.128 151.661 290.179 149.033 290.705C144.827 291.493 140.359 291.231 136.416 289.916C130.896 288.339 127.479 283.608 128.268 277.825C131.685 277.563 135.365 277.563 139.045 277.3C139.307 278.088 139.307 278.614 139.57 279.403C140.622 282.82 144.302 284.396 147.981 283.082C149.558 282.557 150.873 281.505 151.135 279.665C151.398 278.088 150.61 277.037 149.033 276.511C147.719 275.985 146.667 275.723 145.353 275.197C142.724 274.408 140.096 273.883 137.73 272.831C132.999 270.991 131.422 267.574 132.211 263.632C133.262 259.163 136.679 255.483 141.936 254.169C146.93 252.855 151.661 252.855 156.655 254.169C161.649 256.009 163.752 258.901 163.489 264.158Z" fill="black" fill-opacity="0.85"/>
</g>
</g>
</g>
</svg>
