<svg width="461" height="394" viewBox="0 0 461 394" fill="none" xmlns="http://www.w3.org/2000/svg">
<mask id="mask0_412_13430" style="mask-type:luminance" maskUnits="userSpaceOnUse" x="0" y="0" width="461" height="405">
<path d="M461 0H0V405H461V0Z" fill="white"/>
</mask>
<g mask="url(#mask0_412_13430)">
<mask id="mask1_412_13430" style="mask-type:luminance" maskUnits="userSpaceOnUse" x="0" y="0" width="461" height="405">
<path d="M461 0H0V405H461V0Z" fill="white"/>
</mask>
<g mask="url(#mask1_412_13430)">
<path d="M431.368 253.81C430.882 237.381 430.396 218.81 431.125 204.048C450.799 185 462.457 163.81 460.757 149.286C460.514 147.381 460.028 145.714 459.543 144.048C458.085 140.476 455.657 137.619 452.499 135.953C450.313 134.762 447.884 134.048 445.455 134.048C444.727 134.048 443.998 134.048 443.269 134.286C443.269 131.191 442.298 128.095 440.598 125.238C414.851 82.3811 382.305 50.2382 343.928 29.524C307.981 10.0002 265.962 0.238281 219.084 0.238281C182.651 0.238281 145.732 10.7144 112.214 30.4763C75.538 52.1429 44.2056 84.0477 19.1882 125C16.5164 129.286 15.7878 134.286 17.0022 139.048C17.9738 142.381 19.674 145.476 22.1029 147.857C20.1598 146.905 17.9738 146.191 15.5449 146.191C13.6018 146.191 11.6587 146.667 9.7156 147.381C6.80096 148.572 1.94323 151.905 0.243016 159.762C-2.91452 174.524 6.80094 197.381 25.2604 218.81C31.3326 243.333 32.547 255.238 33.7614 268.571C34.0043 272.381 34.4901 276.191 34.9759 280.714C38.3763 311.905 41.2909 323.572 46.1487 337.857C51.0064 351.667 58.0502 368.333 70.6803 375.714C78.4527 380.238 86.9537 382.619 95.9406 382.619C99.8268 382.619 103.713 382.143 107.599 381.429C107.842 388.095 109.299 394.048 111.971 399.762C114.157 404.048 116.829 405.238 129.702 405.238C179.008 405.238 274.948 405.238 326.198 405.238C340.285 405.238 343.443 402.619 344.657 396.905C346.6 387.857 350.486 380.714 352.915 377.381C353.401 377.381 354.13 377.381 354.615 377.381C358.502 377.381 364.088 377.381 371.86 375.952C390.077 374.286 408.294 360.476 419.223 340C429.668 320.238 431.368 295.952 430.639 263.095C431.368 260 431.368 257.143 431.368 253.81ZM197.467 85.9525C194.31 85.9525 191.395 87.143 188.966 89.0478C187.023 90.7144 185.566 92.3811 184.594 94.5239C179.737 94.762 175.122 96.1905 171.236 98.3334C166.135 101.429 162.735 105.953 161.52 110.953C161.277 112.381 161.277 114.048 161.52 115.476C153.505 122.619 147.676 131.191 143.546 140.952C138.689 145.476 136.017 149.048 135.288 149.762C132.131 154.048 130.431 164.048 136.017 170.238C136.988 181.667 138.203 192.619 140.875 206.191C142.332 214.286 144.518 221.429 146.218 226.905C146.461 227.381 146.461 228.095 146.704 228.571C146.704 228.81 146.947 229.286 146.947 229.524C146.218 231.191 145.732 233.095 145.49 235.714C145.49 236.667 145.49 237.619 145.49 238.81C144.761 241.429 144.761 243.81 145.247 246.429C131.888 247.143 119.986 254.048 110.514 266.429C101.284 248.333 94.2404 236.667 87.6824 225.476C81.8531 215.952 76.5096 206.667 69.9516 194.048C68.2514 190.476 65.5797 187.143 62.1793 183.81C64.6081 184.762 67.0369 185.238 69.7087 185.238C77.2382 185.238 84.0391 180.714 87.1966 174.048C103.956 135.476 153.019 93.0953 203.054 83.8096C202.082 84.5239 201.111 85.2383 200.139 85.9525C199.411 85.9525 198.439 85.9525 197.467 85.9525ZM370.16 217.857C365.545 231.429 360.688 245.476 354.13 257.619C347.572 252.857 341.014 249.286 334.942 246.667C336.156 225.714 333.484 204.048 327.169 185C315.511 150.238 292.922 123.333 259.889 105C255.76 102.857 250.66 99.5239 249.202 97.1429C248.474 95.9524 246.773 93.3335 243.616 91.4287C242.159 90.7144 240.458 90.0001 238.758 90.0001C238.515 89.5239 238.03 89.0477 237.544 88.5715C237.544 88.0953 237.301 87.6192 237.301 87.143C236.815 85.4764 236.086 84.0477 235.115 82.6192C310.653 86.9049 348.786 133.571 373.804 174.524C376.232 178.571 380.119 181.429 384.733 182.857C378.904 192.857 374.532 205.238 370.16 217.857Z" fill="white"/>
</g>
<mask id="mask2_412_13430" style="mask-type:luminance" maskUnits="userSpaceOnUse" x="0" y="0" width="461" height="405">
<path d="M461 0H0V405H461V0Z" fill="white"/>
</mask>
<g mask="url(#mask2_412_13430)">
<path d="M337.857 265.238C353.402 278.809 384.977 295.476 410.48 324.762C398.336 350.714 352.188 349.285 346.358 355.238C337.857 363.809 337.857 379.047 333.242 394.523C290.98 394.523 135.532 394.523 124.116 394.523C121.93 390 120.23 384.047 121.202 373.809C121.202 373.095 121.445 372.142 121.445 371.428C123.631 357.857 128.245 343.095 137.475 325.714C137.718 325.238 137.961 325 138.204 324.523C138.204 324.285 138.447 324.047 138.447 323.809C138.932 323.095 139.175 322.381 139.661 321.666C139.904 321.428 139.904 321.19 140.147 320.714C140.147 320.476 140.39 320.476 140.39 320.238C140.39 320 140.633 320 140.633 319.761C140.633 319.523 140.876 319.524 140.876 319.285C140.876 319.047 141.118 319.047 141.118 318.809C140.876 318.333 140.876 317.857 140.633 317.381C140.633 317.142 140.633 317.143 140.633 316.904C140.39 316.19 140.39 315.238 140.39 314.524C140.39 313.333 140.39 312.381 140.39 311.19C140.876 296.666 149.862 277.142 150.105 276.19C150.348 275 148.162 272.857 149.377 270.714C150.105 269.523 152.534 266.428 153.506 266.19C153.506 266.19 153.506 266.428 153.506 266.904C153.506 266.904 153.506 266.904 153.749 266.904C154.72 267.381 155.935 267.619 157.149 268.095C156.906 268.809 156.663 269.523 156.663 270C156.906 269.523 156.906 268.809 157.149 268.095C158.121 268.333 158.849 268.809 159.821 269.047C160.307 269.285 160.792 269.285 161.278 269.523C161.764 269.762 162.25 269.762 162.493 270C169.05 272.143 177.309 274.047 186.781 275.714C187.024 275.714 187.267 275.714 187.51 275.952C187.996 275.952 188.239 276.19 188.724 276.19C194.797 277.381 199.897 277.857 205.241 278.333H205.484C208.641 278.571 212.284 278.809 216.414 278.809C236.33 279.524 251.146 276.904 254.061 276.19C254.547 276.19 255.033 275.952 255.275 275.952C265.477 272.857 273.249 269.523 280.779 265.952C284.908 263.809 290.008 260.714 294.38 258.333C294.623 258.333 294.866 258.095 294.866 258.095C302.153 254.285 310.168 253.571 315.511 254.285C330.085 256.428 337.857 265.238 337.857 265.238Z" fill="#CBAA7A"/>
</g>
<mask id="mask3_412_13430" style="mask-type:luminance" maskUnits="userSpaceOnUse" x="0" y="0" width="461" height="405">
<path d="M461 0H0V405H461V0Z" fill="white"/>
</mask>
<g mask="url(#mask3_412_13430)">
<path d="M109.3 298.809C97.8844 305.476 74.8101 320.476 60.7227 340.476C66.3091 355.952 72.867 364.047 82.8254 367.857C99.8275 374.285 121.444 366.428 128.731 358.571C152.291 332.381 160.549 321.428 152.291 306.666C143.79 291.905 121.202 289.047 109.3 298.809Z" fill="#CBAA7A"/>
</g>
<mask id="mask4_412_13430" style="mask-type:luminance" maskUnits="userSpaceOnUse" x="0" y="0" width="461" height="405">
<path d="M461 0H0V405H461V0Z" fill="white"/>
</mask>
<g mask="url(#mask4_412_13430)">
<path d="M158.362 260.952C157.634 264.047 156.662 267.618 155.933 269.999C154.962 269.999 152.047 272.856 151.076 273.809C149.618 275.714 151.319 278.333 151.076 279.285C150.833 280.237 145.246 304.285 141.36 317.38C133.102 313.094 113.671 303.809 110.028 299.523C109.785 299.285 109.542 299.047 109.299 298.571C108.328 297.618 107.599 292.618 111.485 290.237C111.971 289.047 112.699 287.856 113.185 286.428C124.844 262.38 141.603 255.476 158.362 260.952Z" fill="#F6D81C"/>
</g>
<mask id="mask5_412_13430" style="mask-type:luminance" maskUnits="userSpaceOnUse" x="0" y="0" width="461" height="405">
<path d="M461 0H0V405H461V0Z" fill="white"/>
</mask>
<g mask="url(#mask5_412_13430)">
<g opacity="0.23">
<mask id="mask6_412_13430" style="mask-type:luminance" maskUnits="userSpaceOnUse" x="127" y="260" width="32" height="58">
<path d="M158.606 260.475H127.273V317.617H158.606V260.475Z" fill="white"/>
</mask>
<g mask="url(#mask6_412_13430)">
<path d="M158.364 260.953C157.635 264.048 156.663 267.619 155.935 270C154.963 270 152.049 272.857 151.077 273.81C149.62 275.714 151.32 278.334 151.077 279.286C150.834 280.238 145.248 304.286 141.362 317.381C137.961 315.714 132.375 312.857 127.031 310.238C129.946 311.191 133.103 310.953 133.832 309.048C134.804 306.191 135.047 303.334 132.861 302.381C135.532 302.143 138.69 290.953 140.633 285C142.576 279.762 148.648 263.334 156.421 260.238C157.149 260.714 157.878 260.715 158.364 260.953Z" fill="#503324"/>
</g>
</g>
</g>
<mask id="mask7_412_13430" style="mask-type:luminance" maskUnits="userSpaceOnUse" x="0" y="0" width="461" height="405">
<path d="M461 0H0V405H461V0Z" fill="white"/>
</mask>
<g mask="url(#mask7_412_13430)">
<path d="M319.882 265.24C312.838 267.145 306.28 269.288 297.294 271.192C283.206 274.526 270.333 278.812 256.003 280.002C252.845 280.24 238.272 279.288 218.355 278.335C205.482 277.859 196.252 276.907 185.08 275.002C170.992 272.859 163.463 270.002 153.504 266.669C153.747 265.954 157.391 258.573 157.148 258.811C157.876 256.431 158.605 252.859 159.334 249.764C160.062 246.907 160.305 244.05 160.305 244.05C159.334 244.05 158.605 244.764 158.362 245.478C156.905 240.954 160.791 238.097 161.034 235.716C161.034 235.24 159.577 235.716 158.362 237.145C158.605 233.573 160.305 232.859 160.305 231.669C160.548 229.05 159.334 226.192 158.605 223.811C150.833 196.431 136.745 143.097 181.436 116.192C179.493 112.383 174.15 113.097 174.15 113.097C175.121 108.097 184.351 104.288 195.281 107.859C195.767 107.383 192.366 102.621 197.71 98.0972C197.71 102.145 200.625 106.669 201.839 105.002C206.454 94.764 214.712 90.002 225.156 90.002C221.513 92.1448 218.841 97.621 219.327 103.097C219.327 103.097 223.942 96.9068 227.828 96.1925C223.213 101.907 225.642 105.954 227.585 106.669C229.042 107.383 236.572 105.24 237.058 101.907C238.758 102.859 237.786 106.907 253.574 115.478C320.611 153.097 328.14 223.812 319.882 265.24Z" fill="#CBAA7A"/>
</g>
<mask id="mask8_412_13430" style="mask-type:luminance" maskUnits="userSpaceOnUse" x="0" y="0" width="461" height="405">
<path d="M461 0H0V405H461V0Z" fill="white"/>
</mask>
<g mask="url(#mask8_412_13430)">
<path d="M221.029 358.572C220.786 358.334 220.786 358.096 220.543 357.857L221.029 358.572Z" fill="#BAB5B0"/>
</g>
<mask id="mask9_412_13430" style="mask-type:luminance" maskUnits="userSpaceOnUse" x="0" y="0" width="461" height="405">
<path d="M461 0H0V405H461V0Z" fill="white"/>
</mask>
<g mask="url(#mask9_412_13430)">
<path d="M154.475 158.333C158.119 149.048 161.762 143.095 178.764 135.953C188.48 131.905 220.541 132.143 215.44 122.619C226.127 125.238 232.685 135.714 242.158 136.667C251.873 137.857 273.247 146.191 286.606 170.476C289.278 175.476 298.75 216.191 264.989 232.857C239.243 245.714 183.622 249.524 162.976 216.429C153.018 201.191 148.889 176.191 154.475 158.333Z" fill="#F9DCB3"/>
</g>
<mask id="mask10_412_13430" style="mask-type:luminance" maskUnits="userSpaceOnUse" x="0" y="0" width="461" height="405">
<path d="M461 0H0V405H461V0Z" fill="white"/>
</mask>
<g mask="url(#mask10_412_13430)">
<path d="M204.753 162.381C196.981 157.381 188.237 176.905 186.78 182.619C183.136 197.381 187.266 205.715 196.009 209.286C204.511 212.858 216.169 212.858 225.399 208.572C248.959 197.381 230.014 159.048 214.955 162.858" fill="#A57F46"/>
</g>
<mask id="mask11_412_13430" style="mask-type:luminance" maskUnits="userSpaceOnUse" x="0" y="0" width="461" height="405">
<path d="M461 0H0V405H461V0Z" fill="white"/>
</mask>
<g mask="url(#mask11_412_13430)">
<path d="M153.261 190.475C168.078 190.951 204.511 178.809 191.88 133.809C181.922 134.047 172.207 136.19 159.819 144.523C150.347 159.761 150.59 176.904 153.261 190.475Z" fill="#A57F46"/>
</g>
<mask id="mask12_412_13430" style="mask-type:luminance" maskUnits="userSpaceOnUse" x="0" y="0" width="461" height="405">
<path d="M461 0H0V405H461V0Z" fill="white"/>
</mask>
<g mask="url(#mask12_412_13430)">
<path d="M238.271 139.287C215.683 204.049 287.335 207.62 287.335 207.62C287.335 207.62 296.079 183.573 283.691 163.097C275.919 150.478 257.702 140.239 238.271 139.287Z" fill="#A57F46"/>
</g>
<mask id="mask13_412_13430" style="mask-type:luminance" maskUnits="userSpaceOnUse" x="0" y="0" width="461" height="405">
<path d="M461 0H0V405H461V0Z" fill="white"/>
</mask>
<g mask="url(#mask13_412_13430)">
<path d="M179.251 248.809L178.766 255.475" stroke="#A57F46" stroke-width="1.7213" stroke-miterlimit="10" stroke-linecap="round" stroke-linejoin="round"/>
</g>
<mask id="mask14_412_13430" style="mask-type:luminance" maskUnits="userSpaceOnUse" x="0" y="0" width="461" height="405">
<path d="M461 0H0V405H461V0Z" fill="white"/>
</mask>
<g mask="url(#mask14_412_13430)">
<path d="M171.964 251.668L171.479 258.335" stroke="#A57F46" stroke-width="1.7213" stroke-miterlimit="10" stroke-linecap="round" stroke-linejoin="round"/>
</g>
<mask id="mask15_412_13430" style="mask-type:luminance" maskUnits="userSpaceOnUse" x="0" y="0" width="461" height="405">
<path d="M461 0H0V405H461V0Z" fill="white"/>
</mask>
<g mask="url(#mask15_412_13430)">
<g opacity="0.23">
<mask id="mask16_412_13430" style="mask-type:luminance" maskUnits="userSpaceOnUse" x="174" y="111" width="2" height="2">
<path d="M175.365 111.668H174.879V112.144H175.365V111.668Z" fill="white"/>
</mask>
<g mask="url(#mask16_412_13430)">
<path d="M175.365 111.668C175.122 111.668 175.123 111.668 174.88 111.906C174.88 111.906 174.88 111.906 174.637 112.144" fill="#503324"/>
</g>
</g>
</g>
<mask id="mask17_412_13430" style="mask-type:luminance" maskUnits="userSpaceOnUse" x="0" y="0" width="461" height="405">
<path d="M461 0H0V405H461V0Z" fill="white"/>
</mask>
<g mask="url(#mask17_412_13430)">
<path d="M198.924 162.144C199.167 159.287 204.511 157.62 210.826 157.858C217.141 158.335 222.242 160.954 221.999 163.573C221.756 166.43 216.412 168.097 210.097 167.858C203.782 167.62 198.681 165.001 198.924 162.144Z" fill="black" fill-opacity="0.85"/>
</g>
<mask id="mask18_412_13430" style="mask-type:luminance" maskUnits="userSpaceOnUse" x="0" y="0" width="461" height="405">
<path d="M461 0H0V405H461V0Z" fill="white"/>
</mask>
<g mask="url(#mask18_412_13430)">
<path d="M153.019 266.191C155.934 259.286 160.549 244.524 160.063 244.286C159.091 244.286 158.363 245 158.12 245.714C156.663 241.191 160.549 238.334 160.792 235.953C160.792 235.476 159.334 235.953 158.12 237.381C158.363 233.81 160.063 233.095 160.063 231.905C160.306 229.286 159.091 226.429 158.363 224.048C150.59 196.667 136.503 143.334 181.194 116.429C179.251 112.619 173.908 113.334 173.908 113.334C174.879 108.334 184.109 104.524 195.039 108.095C195.525 107.619 192.124 102.857 197.468 98.3334C197.468 102.381 200.382 106.905 201.597 105.238C206.212 95.0002 214.47 90.2383 224.914 90.2383C221.271 92.3811 218.599 97.8573 219.085 103.334C219.085 103.334 223.699 97.143 227.586 96.4287C222.728 101.429 225.4 105.953 227.343 106.905C228.8 107.619 236.573 105.476 237.058 102.143C238.759 103.095 237.787 107.143 253.575 115.714C321.097 152.857 328.141 223.572 319.883 265" stroke="black" stroke-opacity="0.85" stroke-width="1.1653" stroke-miterlimit="10" stroke-linecap="round" stroke-linejoin="round"/>
</g>
<mask id="mask19_412_13430" style="mask-type:luminance" maskUnits="userSpaceOnUse" x="0" y="0" width="461" height="405">
<path d="M461 0H0V405H461V0Z" fill="white"/>
</mask>
<g mask="url(#mask19_412_13430)">
<path d="M209.125 167.381C208.153 171.905 208.153 178.095 209.853 184.762C209.853 191.905 195.523 198.333 191.637 187.381" stroke="black" stroke-opacity="0.85" stroke-width="1.1653" stroke-miterlimit="10" stroke-linecap="round" stroke-linejoin="round"/>
</g>
<mask id="mask20_412_13430" style="mask-type:luminance" maskUnits="userSpaceOnUse" x="0" y="0" width="461" height="405">
<path d="M461 0H0V405H461V0Z" fill="white"/>
</mask>
<g mask="url(#mask20_412_13430)">
<g opacity="0.23">
<mask id="mask21_412_13430" style="mask-type:luminance" maskUnits="userSpaceOnUse" x="193" y="348" width="2" height="1">
<path d="M194.31 348.336H193.824V348.574H194.31V348.336Z" fill="white"/>
</mask>
<g mask="url(#mask21_412_13430)">
<path d="M194.31 348.574C194.067 348.574 193.824 348.336 193.824 348.336L194.31 348.574Z" fill="#503324"/>
</g>
</g>
</g>
<mask id="mask22_412_13430" style="mask-type:luminance" maskUnits="userSpaceOnUse" x="0" y="0" width="461" height="405">
<path d="M461 0H0V405H461V0Z" fill="white"/>
</mask>
<g mask="url(#mask22_412_13430)">
<g opacity="0.23">
<mask id="mask23_412_13430" style="mask-type:luminance" maskUnits="userSpaceOnUse" x="158" y="90" width="165" height="182">
<path d="M322.554 90.2383H158.848V271.191H322.554V90.2383Z" fill="white"/>
</mask>
<g mask="url(#mask23_412_13430)">
<path d="M319.881 265.238C313.566 266.905 303.365 269.762 297.293 271.429C304.822 240.238 306.279 191.667 287.577 159.524C274.461 136.905 255.03 125.238 237.299 120.238C235.842 119.762 233.413 116.905 231.227 116.667C231.47 117.857 230.499 118.572 229.284 118.333C227.584 118.095 224.426 116.667 225.641 113.81C222.241 113.572 220.783 117.143 219.083 116.905C217.14 116.667 215.197 112.381 211.068 111.905C212.525 115.476 209.125 117.381 206.696 117.857C203.781 118.333 202.324 116.667 203.295 115.238C200.381 115 198.923 117.381 192.608 119.048C182.893 121.429 169.534 126.667 159.09 138.572C165.405 127.857 174.392 120.476 181.193 116.429C179.249 112.619 173.906 113.334 173.906 113.334C174.878 108.334 184.107 104.524 195.037 108.095C195.523 107.619 192.122 102.857 197.466 98.3334C197.466 102.381 200.381 106.905 201.595 105.238C206.21 95.0002 214.468 90.2383 224.912 90.2383C221.269 92.3811 218.597 97.8573 219.083 103.334C219.083 103.334 223.698 97.143 227.584 96.4287C222.969 101.905 225.398 106.191 227.341 106.905C228.798 107.619 236.328 105.476 236.814 102.143C238.514 103.095 237.542 107.143 253.33 115.714C320.61 153.095 328.139 223.81 319.881 265.238Z" fill="#503324"/>
</g>
</g>
</g>
<mask id="mask24_412_13430" style="mask-type:luminance" maskUnits="userSpaceOnUse" x="0" y="0" width="461" height="405">
<path d="M461 0H0V405H461V0Z" fill="white"/>
</mask>
<g mask="url(#mask24_412_13430)">
<path d="M196.253 134.762C165.406 135.952 147.918 159.285 147.918 159.285" stroke="black" stroke-opacity="0.85" stroke-width="3.3804" stroke-miterlimit="10" stroke-linecap="round" stroke-linejoin="round"/>
</g>
<mask id="mask25_412_13430" style="mask-type:luminance" maskUnits="userSpaceOnUse" x="0" y="0" width="461" height="405">
<path d="M461 0H0V405H461V0Z" fill="white"/>
</mask>
<g mask="url(#mask25_412_13430)">
<path d="M236.572 135.713C278.349 144.284 289.036 169.522 289.036 169.522" stroke="black" stroke-opacity="0.85" stroke-width="3.3804" stroke-miterlimit="10" stroke-linecap="round" stroke-linejoin="round"/>
</g>
<mask id="mask26_412_13430" style="mask-type:luminance" maskUnits="userSpaceOnUse" x="0" y="0" width="461" height="405">
<path d="M461 0H0V405H461V0Z" fill="white"/>
</mask>
<g mask="url(#mask26_412_13430)">
<path d="M157.148 167.38C158.605 172.856 164.92 169.523 171.478 169.046C179.008 168.57 186.537 171.189 185.566 162.618C184.837 156.427 177.793 154.285 168.078 154.999C158.605 155.713 155.448 160.713 157.148 167.38Z" fill="white"/>
</g>
<mask id="mask27_412_13430" style="mask-type:luminance" maskUnits="userSpaceOnUse" x="0" y="0" width="461" height="405">
<path d="M461 0H0V405H461V0Z" fill="white"/>
</mask>
<g mask="url(#mask27_412_13430)">
<path d="M156.905 166.191C159.334 160.239 165.163 158.811 172.45 159.525C180.222 160.239 184.108 162.858 185.566 166.668C185.809 165.477 185.809 164.287 185.566 162.858C184.837 156.668 177.793 154.525 168.078 155.239C159.091 155.715 155.934 160.001 156.905 166.191Z" fill="#D4E4E7"/>
</g>
<mask id="mask28_412_13430" style="mask-type:luminance" maskUnits="userSpaceOnUse" x="0" y="0" width="461" height="405">
<path d="M461 0H0V405H461V0Z" fill="white"/>
</mask>
<g mask="url(#mask28_412_13430)">
<path d="M178.522 163.809C178.28 160.476 175.122 157.857 171.722 158.095C168.321 158.333 165.649 161.428 165.892 164.762C166.135 168.095 169.293 170.714 172.693 170.476C176.094 170.238 178.765 167.143 178.522 163.809Z" fill="black" fill-opacity="0.85"/>
</g>
<mask id="mask29_412_13430" style="mask-type:luminance" maskUnits="userSpaceOnUse" x="0" y="0" width="461" height="405">
<path d="M461 0H0V405H461V0Z" fill="white"/>
</mask>
<g mask="url(#mask29_412_13430)">
<path d="M157.148 167.38C158.605 172.856 164.92 169.761 171.478 169.046C179.251 168.332 186.537 171.189 185.566 162.618C184.837 156.427 177.793 154.285 168.078 154.999C158.605 155.713 155.448 160.713 157.148 167.38Z" stroke="black" stroke-opacity="0.85" stroke-width="1.1653" stroke-miterlimit="10" stroke-linecap="round" stroke-linejoin="round"/>
</g>
<mask id="mask30_412_13430" style="mask-type:luminance" maskUnits="userSpaceOnUse" x="0" y="0" width="461" height="405">
<path d="M461 0H0V405H461V0Z" fill="white"/>
</mask>
<g mask="url(#mask30_412_13430)">
<path d="M164.92 160.953C165.163 162.381 166.377 163.572 167.835 163.572C169.292 163.334 170.506 162.143 170.506 160.715C170.263 159.286 169.049 158.096 167.592 158.096C165.891 158.096 164.92 159.524 164.92 160.953Z" fill="white"/>
</g>
<mask id="mask31_412_13430" style="mask-type:luminance" maskUnits="userSpaceOnUse" x="0" y="0" width="461" height="405">
<path d="M461 0H0V405H461V0Z" fill="white"/>
</mask>
<g mask="url(#mask31_412_13430)">
<path d="M272.276 169.525C270.819 175.001 264.504 171.668 257.946 171.43C250.416 171.192 242.887 173.811 243.858 165.239C244.587 159.049 251.388 156.906 261.103 157.382C270.819 157.858 273.976 162.858 272.276 169.525Z" fill="white"/>
</g>
<mask id="mask32_412_13430" style="mask-type:luminance" maskUnits="userSpaceOnUse" x="0" y="0" width="461" height="405">
<path d="M461 0H0V405H461V0Z" fill="white"/>
</mask>
<g mask="url(#mask32_412_13430)">
<path d="M272.521 168.333C270.092 162.38 264.263 160.952 256.733 161.904C248.961 162.857 245.075 165.476 243.86 169.285C243.617 168.095 243.617 166.904 243.617 165.476C244.346 159.285 251.147 157.142 260.862 157.619C270.092 157.857 273.492 162.142 272.521 168.333Z" fill="#D4E4E7"/>
</g>
<mask id="mask33_412_13430" style="mask-type:luminance" maskUnits="userSpaceOnUse" x="0" y="0" width="461" height="405">
<path d="M461 0H0V405H461V0Z" fill="white"/>
</mask>
<g mask="url(#mask33_412_13430)">
<path d="M252.601 166.191C252.844 162.619 255.759 160.238 259.402 160.238C262.802 160.476 265.474 163.334 265.474 166.905C265.231 170.238 262.317 172.857 258.673 172.857C255.03 172.619 252.358 169.524 252.601 166.191Z" fill="black" fill-opacity="0.85"/>
</g>
<mask id="mask34_412_13430" style="mask-type:luminance" maskUnits="userSpaceOnUse" x="0" y="0" width="461" height="405">
<path d="M461 0H0V405H461V0Z" fill="white"/>
</mask>
<g mask="url(#mask34_412_13430)">
<path d="M272.277 169.525C271.062 175.001 264.504 171.906 257.946 171.43C250.174 170.954 242.887 173.811 243.859 165.239C244.588 159.049 251.388 156.906 261.104 157.382C270.819 157.858 273.977 162.858 272.277 169.525Z" stroke="black" stroke-opacity="0.85" stroke-width="1.1653" stroke-miterlimit="10" stroke-linecap="round" stroke-linejoin="round"/>
</g>
<mask id="mask35_412_13430" style="mask-type:luminance" maskUnits="userSpaceOnUse" x="0" y="0" width="461" height="405">
<path d="M461 0H0V405H461V0Z" fill="white"/>
</mask>
<g mask="url(#mask35_412_13430)">
<path d="M257.219 163.572C257.219 165.001 255.762 166.191 254.305 166.191C252.847 166.191 251.633 164.763 251.633 163.334C251.633 161.905 253.09 160.715 254.547 160.715C256.248 160.715 257.462 162.143 257.219 163.572Z" fill="white"/>
</g>
<mask id="mask36_412_13430" style="mask-type:luminance" maskUnits="userSpaceOnUse" x="0" y="0" width="461" height="405">
<path d="M461 0H0V405H461V0Z" fill="white"/>
</mask>
<g mask="url(#mask36_412_13430)">
<path d="M315.511 253.809C309.925 253.094 302.153 253.809 294.866 257.618C294.623 257.618 294.38 257.856 294.38 257.856C290.008 260.237 284.908 263.571 280.779 265.475C273.249 269.047 265.477 272.38 255.275 275.475C254.79 275.475 254.304 275.713 254.061 275.713C250.904 276.428 236.33 279.047 216.414 278.333C212.284 278.094 208.884 278.094 205.484 277.856H205.241C199.654 277.38 194.797 276.904 188.724 275.713C188.239 275.713 187.996 275.475 187.51 275.475C187.267 275.475 187.024 275.475 186.781 275.237C177.309 273.571 169.293 271.666 162.493 269.523C162.007 269.285 161.521 269.285 161.278 269.047C160.792 268.809 160.307 268.809 159.821 268.571C158.849 268.332 157.878 267.856 157.149 267.618C156.906 268.333 156.663 269.047 156.663 269.523C156.906 269.047 156.906 268.333 157.149 267.618C155.935 267.142 154.963 266.904 153.749 266.428C153.749 266.428 153.749 266.428 153.506 266.428C153.506 265.952 153.506 265.714 153.506 265.714C152.534 265.952 150.105 269.047 149.377 270.237C148.162 272.38 150.348 274.523 150.105 275.713C149.862 276.904 140.876 296.19 140.39 310.713C140.39 311.904 140.39 313.094 140.39 314.047C140.39 314.999 140.633 315.713 140.633 316.428C140.633 316.666 140.633 316.666 140.633 316.904C140.633 317.38 140.876 317.856 141.118 318.333C141.118 318.571 140.876 318.571 140.876 318.809C140.876 319.047 140.633 319.047 140.633 319.285C140.633 319.523 140.39 319.523 140.39 319.761C140.39 319.999 140.147 319.999 140.147 320.237C139.904 320.475 139.904 320.713 139.661 321.19C139.175 321.904 138.932 322.618 138.447 323.332C138.447 323.571 138.204 323.809 138.204 324.047C137.961 324.523 137.718 324.761 137.475 325.237C128.245 342.618 123.631 357.38 121.445 370.951C121.202 371.666 121.202 372.618 121.202 373.332C120.23 383.571 121.93 389.761 124.116 394.047C135.532 394.047 290.98 394.047 333.242 394.047C335.671 386.19 338.1 374.999 346.601 366.666C349.273 364.047 355.831 366.428 367.732 363.571C372.59 362.38 362.146 346.666 356.559 331.428C350.244 314.047 353.402 298.809 361.174 279.523C349.03 268.333 330.085 256.428 315.511 253.809Z" fill="#F6D81C"/>
</g>
<mask id="mask37_412_13430" style="mask-type:luminance" maskUnits="userSpaceOnUse" x="0" y="0" width="461" height="405">
<path d="M461 0H0V405H461V0Z" fill="white"/>
</mask>
<g mask="url(#mask37_412_13430)">
<path d="M164.192 310.238C172.45 311.191 180.222 311.667 187.995 312.619C194.31 313.334 196.739 317.619 195.767 321.429C194.31 326.667 189.209 330 182.165 330.953C181.68 330.953 181.437 330.953 180.708 331.191C185.809 335.238 183.38 341.667 188.723 348.334C182.894 347.619 177.793 346.905 172.693 346.191C170.264 342.143 169.292 338.334 169.292 334.524C169.292 332.381 168.807 330.953 164.92 330.953C161.763 335.238 158.848 339.762 158.605 344.524C154.233 344.048 150.347 343.572 146.461 343.334C149.861 330.476 161.763 323.572 164.192 310.238ZM173.907 318.096C172.936 320.238 171.478 322.381 169.535 324.762C172.207 325 174.636 325.238 177.308 325.238C179.737 325.238 181.68 324.048 182.651 322.619C183.623 320.953 183.137 319.524 180.951 319.048C179.008 318.334 176.579 318.334 173.907 318.096Z" fill="black" fill-opacity="0.85"/>
</g>
<mask id="mask38_412_13430" style="mask-type:luminance" maskUnits="userSpaceOnUse" x="0" y="0" width="461" height="405">
<path d="M461 0H0V405H461V0Z" fill="white"/>
</mask>
<g mask="url(#mask38_412_13430)">
<path d="M230.499 326.666C226.856 326.428 223.456 326.428 219.57 326.19C219.812 323.095 218.112 321.19 215.198 320.714C213.255 320.476 211.554 320.952 210.34 323.095C209.854 324.761 211.069 325.714 212.283 326.19C214.712 327.142 217.384 328.095 219.812 329.047C221.27 329.523 222.484 330.238 223.699 331.19C231.471 335.952 227.828 345.952 221.756 349.999C219.812 351.428 217.141 352.142 214.226 352.142C209.611 352.38 204.511 351.666 199.167 349.761C192.366 347.38 187.994 342.38 190.666 336.666C194.552 336.904 198.681 337.38 202.81 337.618C202.81 338.333 202.81 339.047 202.81 339.761C203.296 343.333 207.425 345.476 211.554 344.523C213.497 344.047 214.712 343.095 215.198 341.666C215.683 340.237 214.955 339.047 213.74 338.095C212.526 337.38 211.311 336.904 210.097 336.428C207.425 335.237 204.753 334.285 202.567 333.095C198.195 330.476 197.467 327.142 199.41 323.095C201.353 318.809 204.511 315.237 209.368 314.047C213.983 313.095 218.841 313.095 223.699 315.237C228.799 317.142 231.471 320.952 230.499 326.666Z" fill="black" fill-opacity="0.85"/>
</g>
<mask id="mask39_412_13430" style="mask-type:luminance" maskUnits="userSpaceOnUse" x="0" y="0" width="461" height="405">
<path d="M461 0H0V405H461V0Z" fill="white"/>
</mask>
<g mask="url(#mask39_412_13430)">
<g opacity="0.23">
<mask id="mask40_412_13430" style="mask-type:luminance" maskUnits="userSpaceOnUse" x="131" y="314" width="135" height="34">
<path d="M265.233 314.523H131.402V347.619H265.233V314.523Z" fill="white"/>
</mask>
<g mask="url(#mask40_412_13430)">
<path d="M131.402 338.331C135.531 334.046 140.389 331.664 142.818 330.474C147.919 327.855 154.234 328.093 159.577 329.284C174.15 332.617 200.382 342.855 215.441 345.95C242.888 351.664 267.662 343.569 264.99 339.284C262.804 335.712 220.785 342.617 205.726 336.188C192.367 330.474 170.75 327.855 156.663 324.522C153.262 323.807 142.332 319.998 139.903 314.76C139.903 316.903 140.146 317.617 140.875 319.045C139.418 321.426 136.503 326.188 131.402 338.331Z" fill="#503324"/>
</g>
</g>
</g>
<mask id="mask41_412_13430" style="mask-type:luminance" maskUnits="userSpaceOnUse" x="0" y="0" width="461" height="405">
<path d="M461 0H0V405H461V0Z" fill="white"/>
</mask>
<g mask="url(#mask41_412_13430)">
<path d="M153.261 267.144C153.504 266.43 153.261 266.191 153.018 266.191C152.047 266.43 149.618 269.525 148.889 270.715C147.675 272.858 149.861 275.001 149.618 276.191C149.375 277.382 136.259 305.953 140.874 319.525" stroke="black" stroke-opacity="0.85" stroke-width="1.1653" stroke-miterlimit="10" stroke-linecap="round" stroke-linejoin="round"/>
</g>
<mask id="mask42_412_13430" style="mask-type:luminance" maskUnits="userSpaceOnUse" x="0" y="0" width="461" height="405">
<path d="M461 0H0V405H461V0Z" fill="white"/>
</mask>
<g mask="url(#mask42_412_13430)">
<path d="M150.348 275.475C156.663 280.237 169.536 283.57 182.895 286.189C201.354 289.76 227.829 292.379 257.218 287.379" stroke="black" stroke-opacity="0.85" stroke-width="1.1653" stroke-miterlimit="10" stroke-linecap="round" stroke-linejoin="round"/>
</g>
<mask id="mask43_412_13430" style="mask-type:luminance" maskUnits="userSpaceOnUse" x="0" y="0" width="461" height="405">
<path d="M461 0H0V405H461V0Z" fill="white"/>
</mask>
<g mask="url(#mask43_412_13430)">
<path d="M160.306 270C159.577 271.905 158.605 273.333 158.605 275.476" stroke="black" stroke-opacity="0.85" stroke-width="1.1653" stroke-miterlimit="10" stroke-linecap="round" stroke-linejoin="round"/>
</g>
<mask id="mask44_412_13430" style="mask-type:luminance" maskUnits="userSpaceOnUse" x="0" y="0" width="461" height="405">
<path d="M461 0H0V405H461V0Z" fill="white"/>
</mask>
<g mask="url(#mask44_412_13430)">
<path d="M172.207 273.096C171.236 274.762 170.75 277.143 170.75 279.048" stroke="black" stroke-opacity="0.85" stroke-width="1.1653" stroke-miterlimit="10" stroke-linecap="round" stroke-linejoin="round"/>
</g>
<mask id="mask45_412_13430" style="mask-type:luminance" maskUnits="userSpaceOnUse" x="0" y="0" width="461" height="405">
<path d="M461 0H0V405H461V0Z" fill="white"/>
</mask>
<g mask="url(#mask45_412_13430)">
<path d="M230.985 279.525V280.002V280.716V281.668L230.742 282.144" stroke="black" stroke-opacity="0.85" stroke-width="1.1653" stroke-miterlimit="10" stroke-linecap="round" stroke-linejoin="round"/>
</g>
<mask id="mask46_412_13430" style="mask-type:luminance" maskUnits="userSpaceOnUse" x="0" y="0" width="461" height="405">
<path d="M461 0H0V405H461V0Z" fill="white"/>
</mask>
<g mask="url(#mask46_412_13430)">
<path d="M235.114 279.762V280.714L234.871 281.428V281.905" stroke="black" stroke-opacity="0.85" stroke-width="1.1653" stroke-miterlimit="10" stroke-linecap="round" stroke-linejoin="round"/>
</g>
<mask id="mask47_412_13430" style="mask-type:luminance" maskUnits="userSpaceOnUse" x="0" y="0" width="461" height="405">
<path d="M461 0H0V405H461V0Z" fill="white"/>
</mask>
<g mask="url(#mask47_412_13430)">
<path d="M115.613 303.811C113.185 302.144 110.999 300.716 110.27 299.763C110.027 299.525 109.784 299.287 109.541 298.811C108.57 297.858 107.841 292.858 111.727 290.477C112.213 289.287 112.942 288.097 113.427 286.668C123.872 264.525 138.688 256.906 153.747 259.525" stroke="black" stroke-opacity="0.85" stroke-width="1.1653" stroke-miterlimit="10" stroke-linecap="round" stroke-linejoin="round"/>
</g>
<mask id="mask48_412_13430" style="mask-type:luminance" maskUnits="userSpaceOnUse" x="0" y="0" width="461" height="405">
<path d="M461 0H0V405H461V0Z" fill="white"/>
</mask>
<g mask="url(#mask48_412_13430)">
<path d="M111.484 290.715C116.585 294.048 126.058 299.524 136.016 303.81" stroke="black" stroke-opacity="0.85" stroke-width="1.1653" stroke-miterlimit="10" stroke-linecap="round" stroke-linejoin="round"/>
</g>
<mask id="mask49_412_13430" style="mask-type:luminance" maskUnits="userSpaceOnUse" x="0" y="0" width="461" height="405">
<path d="M461 0H0V405H461V0Z" fill="white"/>
</mask>
<g mask="url(#mask49_412_13430)">
<path d="M119.015 295.238C117.8 295.714 116.829 298.095 116.586 299.286" stroke="black" stroke-opacity="0.85" stroke-width="1.1653" stroke-miterlimit="10" stroke-linecap="round" stroke-linejoin="round"/>
</g>
<mask id="mask50_412_13430" style="mask-type:luminance" maskUnits="userSpaceOnUse" x="0" y="0" width="461" height="405">
<path d="M461 0H0V405H461V0Z" fill="white"/>
</mask>
<g mask="url(#mask50_412_13430)">
<path d="M126.06 299.047C125.331 299.761 124.602 301.428 124.359 302.142" stroke="black" stroke-opacity="0.85" stroke-width="1.1653" stroke-miterlimit="10" stroke-linecap="round" stroke-linejoin="round"/>
</g>
<mask id="mask51_412_13430" style="mask-type:luminance" maskUnits="userSpaceOnUse" x="0" y="0" width="461" height="405">
<path d="M461 0H0V405H461V0Z" fill="white"/>
</mask>
<g mask="url(#mask51_412_13430)">
<path d="M123.873 394.523C121.687 389.761 119.501 382.856 121.201 371.428C123.63 355.952 129.216 339.285 140.875 319.047" stroke="black" stroke-opacity="0.85" stroke-width="1.237" stroke-miterlimit="10" stroke-linecap="round" stroke-linejoin="round"/>
</g>
<mask id="mask52_412_13430" style="mask-type:luminance" maskUnits="userSpaceOnUse" x="0" y="0" width="461" height="405">
<path d="M461 0H0V405H461V0Z" fill="white"/>
</mask>
<g mask="url(#mask52_412_13430)">
<path d="M153.262 266.905C164.435 270.953 182.894 276.191 207.183 278.096C227.099 279.524 246.045 278.096 253.817 275.953C264.747 272.62 272.762 269.286 280.535 265.477C284.907 263.334 290.007 260.001 294.622 257.62C301.909 253.81 320.368 246.429 354.372 273.81" stroke="black" stroke-opacity="0.85" stroke-width="1.1653" stroke-miterlimit="10" stroke-linecap="round" stroke-linejoin="round"/>
</g>
</g>
<mask id="mask53_412_13430" style="mask-type:luminance" maskUnits="userSpaceOnUse" x="0" y="0" width="461" height="405">
<path d="M461 0H0V405H461V0Z" fill="white"/>
</mask>
<g mask="url(#mask53_412_13430)">
<mask id="mask54_412_13430" style="mask-type:luminance" maskUnits="userSpaceOnUse" x="240" y="170" width="51" height="30">
<path d="M240.701 184.287C240.458 192.144 251.145 199.048 264.747 199.525C278.349 200.001 289.765 194.048 290.007 186.191C290.25 178.334 279.563 171.429 265.962 170.953C265.476 170.953 264.747 170.953 264.261 170.953C251.388 170.953 240.944 176.667 240.701 184.287Z" fill="white"/>
</mask>
<g mask="url(#mask54_412_13430)">
<path d="M240.458 168.57L291.95 170.951L290.25 202.618L238.758 199.999L240.458 168.57Z" fill="url(#paint0_radial_412_13430)"/>
</g>
</g>
<mask id="mask55_412_13430" style="mask-type:luminance" maskUnits="userSpaceOnUse" x="0" y="0" width="461" height="405">
<path d="M461 0H0V405H461V0Z" fill="white"/>
</mask>
<g mask="url(#mask55_412_13430)">
<mask id="mask56_412_13430" style="mask-type:luminance" maskUnits="userSpaceOnUse" x="145" y="168" width="39" height="28">
<path d="M145.246 178.81C144.031 185.953 151.561 193.096 162.005 194.763C172.449 196.429 181.922 191.906 183.136 184.763C184.351 177.62 176.821 170.477 166.377 168.81C164.92 168.572 163.462 168.572 162.005 168.572C153.261 168.572 146.217 172.858 145.246 178.81Z" fill="white"/>
</mask>
<g mask="url(#mask56_412_13430)">
<path d="M144.76 161.906L187.266 169.049L183.622 203.097L141.117 195.954L144.76 161.906Z" fill="url(#paint1_radial_412_13430)"/>
</g>
</g>
<mask id="mask57_412_13430" style="mask-type:luminance" maskUnits="userSpaceOnUse" x="0" y="0" width="461" height="405">
<path d="M461 0H0V405H461V0Z" fill="white"/>
</mask>
<g mask="url(#mask57_412_13430)">
<mask id="mask58_412_13430" style="mask-type:luminance" maskUnits="userSpaceOnUse" x="0" y="0" width="461" height="405">
<path d="M461 0H0V405H461V0Z" fill="white"/>
</mask>
<g mask="url(#mask58_412_13430)">
<g opacity="0.23">
<mask id="mask59_412_13430" style="mask-type:luminance" maskUnits="userSpaceOnUse" x="308" y="324" width="61" height="71">
<path d="M368.703 324.047H308.467V394.523H368.703V324.047Z" fill="white"/>
</mask>
<g mask="url(#mask59_412_13430)">
<path d="M367.488 364.047C355.587 366.904 348.786 364.523 346.357 367.142C337.856 375.714 335.913 385.237 332.998 394.761H308.467C317.939 366.666 325.955 341.428 324.254 324.285C329.598 335.476 342.471 338.571 351.458 338.571C352.429 341.904 353.644 345.237 354.615 348.333C360.445 363.333 372.346 362.857 367.488 364.047Z" fill="#503324"/>
</g>
</g>
</g>
<mask id="mask60_412_13430" style="mask-type:luminance" maskUnits="userSpaceOnUse" x="0" y="0" width="461" height="405">
<path d="M461 0H0V405H461V0Z" fill="white"/>
</mask>
<g mask="url(#mask60_412_13430)">
<path d="M360.93 340.953C362.63 343.572 364.816 346.429 367.731 349.286" stroke="black" stroke-opacity="0.85" stroke-width="1.1653" stroke-miterlimit="10" stroke-linecap="round" stroke-linejoin="round"/>
</g>
<mask id="mask61_412_13430" style="mask-type:luminance" maskUnits="userSpaceOnUse" x="0" y="0" width="461" height="405">
<path d="M461 0H0V405H461V0Z" fill="white"/>
</mask>
<g mask="url(#mask61_412_13430)">
<path d="M360.93 353.333C351.457 343.333 345.628 330 341.984 314.523" stroke="black" stroke-opacity="0.85" stroke-width="1.1653" stroke-miterlimit="10" stroke-linecap="round" stroke-linejoin="round"/>
</g>
<mask id="mask62_412_13430" style="mask-type:luminance" maskUnits="userSpaceOnUse" x="0" y="0" width="461" height="405">
<path d="M461 0H0V405H461V0Z" fill="white"/>
</mask>
<g mask="url(#mask62_412_13430)">
<g opacity="0.23">
<mask id="mask63_412_13430" style="mask-type:luminance" maskUnits="userSpaceOnUse" x="242" y="259" width="51" height="26">
<path d="M292.193 259.045H242.158V284.759H292.193V259.045Z" fill="white"/>
</mask>
<g mask="url(#mask63_412_13430)">
<path d="M278.35 284.759C277.621 280.236 275.435 278.807 270.091 278.093C262.319 276.902 252.118 277.616 242.402 277.616C248.475 276.902 252.361 276.188 253.818 275.95C254.304 275.95 254.79 275.712 255.033 275.712C265.234 272.616 273.006 269.283 280.536 265.712C284.179 264.045 288.308 261.426 292.194 259.045C284.179 264.997 279.807 270.474 278.35 284.759Z" fill="#503324"/>
</g>
</g>
</g>
<mask id="mask64_412_13430" style="mask-type:luminance" maskUnits="userSpaceOnUse" x="0" y="0" width="461" height="405">
<path d="M461 0H0V405H461V0Z" fill="white"/>
</mask>
<g mask="url(#mask64_412_13430)">
<path d="M58.2933 334.048C70.1948 371.905 112.214 383.095 114.4 326.429C115.129 305.952 108.085 289.762 99.5842 272.619C81.1247 235.952 73.3523 228.095 58.7791 200C52.9498 202.381 43.963 208.333 37.1621 213.095C45.4203 247.381 45.4203 256.191 47.8491 279.524C51.0067 311.905 53.6785 319.524 58.2933 334.048Z" fill="#CBAA7A"/>
</g>
<mask id="mask65_412_13430" style="mask-type:luminance" maskUnits="userSpaceOnUse" x="0" y="0" width="461" height="405">
<path d="M461 0H0V405H461V0Z" fill="white"/>
</mask>
<g mask="url(#mask65_412_13430)">
<path d="M58.78 200.001C55.1367 205.001 48.3359 211.191 39.8348 212.858C38.8633 213.096 37.8917 213.096 36.9202 213.334C11.417 184.763 8.98813 161.668 15.0603 158.81C18.4607 157.382 25.7474 171.668 37.6489 180.477C48.093 188.334 56.1083 194.287 58.78 200.001Z" fill="#BAB5B0"/>
</g>
<mask id="mask66_412_13430" style="mask-type:luminance" maskUnits="userSpaceOnUse" x="0" y="0" width="461" height="405">
<path d="M461 0H0V405H461V0Z" fill="white"/>
</mask>
<g mask="url(#mask66_412_13430)">
<g opacity="0.43">
<mask id="mask67_412_13430" style="mask-type:luminance" maskUnits="userSpaceOnUse" x="27" y="10" width="406" height="166">
<path d="M432.338 10.9551H27.6875V175.003H432.338V10.9551Z" fill="white"/>
</mask>
<g mask="url(#mask67_412_13430)">
<mask id="mask68_412_13430" style="mask-type:luminance" maskUnits="userSpaceOnUse" x="27" y="10" width="406" height="133">
<path d="M432.338 10.9551H27.6875V142.383H432.338V10.9551Z" fill="white"/>
</mask>
<g mask="url(#mask68_412_13430)">
<path d="M424.322 142.622C421.65 142.622 418.978 141.193 417.521 138.812C372.101 63.3359 307.25 26.6693 219.082 26.6693C151.074 26.6693 85.0085 68.5741 42.5032 138.574C40.3172 142.384 35.4595 143.574 31.5733 141.193C27.6871 139.05 26.4726 134.288 28.9015 130.479C52.9473 91.193 82.8225 60.4788 118.041 39.7645C149.859 20.955 184.835 10.9551 219.082 10.9551C264.016 10.9551 304.336 20.2407 338.583 38.8121C375.259 58.574 406.348 89.5265 431.123 130.717C433.309 134.526 432.094 139.288 428.208 141.431C427.237 142.145 425.779 142.622 424.322 142.622Z" fill="#0093C2"/>
</g>
</g>
<mask id="mask69_412_13430" style="mask-type:luminance" maskUnits="userSpaceOnUse" x="27" y="10" width="406" height="166">
<path d="M432.338 10.9551H27.6875V175.003H432.338V10.9551Z" fill="white"/>
</mask>
<g mask="url(#mask69_412_13430)">
<mask id="mask70_412_13430" style="mask-type:luminance" maskUnits="userSpaceOnUse" x="38" y="25" width="384" height="129">
<path d="M421.165 25.9512H38.375V153.094H421.165V25.9512Z" fill="white"/>
</mask>
<g mask="url(#mask70_412_13430)">
<path d="M46.3889 153.094C45.1744 153.094 43.7171 152.856 42.5027 152.142C38.6165 149.999 37.402 145.237 39.3451 141.666C59.2618 106.428 87.4368 76.9038 120.469 56.4276C152.288 36.6657 186.778 26.1895 220.296 26.1895C308.95 26.1895 374.287 63.8086 420.192 141.428C422.378 145.237 421.164 149.999 417.278 152.142C413.392 154.285 408.534 153.094 406.348 149.285C363.6 76.9038 302.635 41.6656 220.296 41.6656C155.688 41.6656 90.1085 83.8086 53.1897 149.047C51.9752 151.666 49.3035 153.094 46.3889 153.094Z" fill="#F18D8A"/>
</g>
</g>
<mask id="mask71_412_13430" style="mask-type:luminance" maskUnits="userSpaceOnUse" x="27" y="10" width="406" height="166">
<path d="M432.338 10.9551H27.6875V175.003H432.338V10.9551Z" fill="white"/>
</mask>
<g mask="url(#mask71_412_13430)">
<mask id="mask72_412_13430" style="mask-type:luminance" maskUnits="userSpaceOnUse" x="50" y="40" width="360" height="125">
<path d="M409.749 40.9551H50.0332V164.05H409.749V40.9551Z" fill="white"/>
</mask>
<g mask="url(#mask72_412_13430)">
<path d="M58.0471 164.05C56.8327 164.05 55.6182 163.812 54.4038 163.336C50.5176 161.431 48.8174 156.669 50.7605 152.86C84.036 88.0979 155.931 40.9551 221.753 40.9551C264.987 40.9551 301.177 50.4789 332.753 70.0027C362.385 88.336 387.159 115.241 408.776 152.384C410.962 156.193 409.505 160.955 405.862 163.098C401.975 165.241 397.118 163.812 394.932 160.241C354.127 89.5264 298.991 56.6693 221.753 56.6693C161.517 56.6693 95.6946 100.003 65.0908 160.003C63.6335 162.622 60.9617 164.05 58.0471 164.05Z" fill="#F6D81C"/>
</g>
</g>
<mask id="mask73_412_13430" style="mask-type:luminance" maskUnits="userSpaceOnUse" x="27" y="10" width="406" height="166">
<path d="M432.338 10.9551H27.6875V175.003H432.338V10.9551Z" fill="white"/>
</mask>
<g mask="url(#mask73_412_13430)">
<mask id="mask74_412_13430" style="mask-type:luminance" maskUnits="userSpaceOnUse" x="61" y="55" width="337" height="121">
<path d="M397.604 55.959H61.9336V175.007H397.604V55.959Z" fill="white"/>
</mask>
<g mask="url(#mask74_412_13430)">
<path d="M69.7059 175.006C68.7343 175.006 67.5199 174.768 66.5484 174.292C62.4193 172.625 60.719 168.102 62.4193 164.054C74.3207 136.911 97.8808 109.53 126.784 89.2921C157.631 67.6254 191.878 55.7207 222.968 55.7207C319.88 55.7207 366.514 111.911 396.389 160.721C398.575 164.53 397.361 169.292 393.717 171.435C389.831 173.578 384.974 172.387 382.788 168.816C355.098 123.34 311.864 71.4349 222.968 71.4349C161.517 71.4349 97.8808 122.625 76.9925 170.244C75.7781 173.34 72.8634 175.006 69.7059 175.006Z" fill="#EF6D22"/>
</g>
</g>
</g>
</g>
<mask id="mask75_412_13430" style="mask-type:luminance" maskUnits="userSpaceOnUse" x="0" y="0" width="461" height="405">
<path d="M461 0H0V405H461V0Z" fill="white"/>
</mask>
<g mask="url(#mask75_412_13430)">
<path d="M408.779 334.523C386.433 376.189 338.098 376.189 339.556 319.523C340.041 299.046 351.7 284.523 359.472 273.332C378.661 245.475 384.004 205.951 398.334 183.57C403.921 186.427 409.993 190.475 418.494 198.808C417.28 217.38 418.251 243.808 418.737 263.57C419.466 295.951 418.008 317.38 408.779 334.523Z" fill="#CBAA7A"/>
</g>
<mask id="mask76_412_13430" style="mask-type:luminance" maskUnits="userSpaceOnUse" x="0" y="0" width="461" height="405">
<path d="M461 0H0V405H461V0Z" fill="white"/>
</mask>
<g mask="url(#mask76_412_13430)">
<path d="M398.336 183.571C401.493 189.047 407.323 195.713 415.824 198.094C416.795 198.332 417.767 198.57 418.739 198.809C447.156 173.094 452.014 150.237 446.185 146.904C443.027 144.999 434.04 158.57 421.41 166.189C409.995 172.856 401.736 178.094 398.336 183.571Z" fill="#BAB5B0"/>
</g>
<mask id="mask77_412_13430" style="mask-type:luminance" maskUnits="userSpaceOnUse" x="0" y="0" width="461" height="405">
<path d="M461 0H0V405H461V0Z" fill="white"/>
</mask>
<g mask="url(#mask77_412_13430)">
<path d="M113.913 332.619C114.156 330.714 114.156 328.571 114.399 326.429C115.127 305.952 108.326 290 99.5824 272.619C82.5803 239.048 73.3506 228.095 58.7773 200" stroke="black" stroke-opacity="0.85" stroke-width="1.1653" stroke-miterlimit="10" stroke-linecap="round" stroke-linejoin="round"/>
</g>
<mask id="mask78_412_13430" style="mask-type:luminance" maskUnits="userSpaceOnUse" x="0" y="0" width="461" height="405">
<path d="M461 0H0V405H461V0Z" fill="white"/>
</mask>
<g mask="url(#mask78_412_13430)">
<path d="M58.78 200.001C55.1367 205.001 48.3359 211.191 39.8348 212.858C38.8633 213.096 37.8917 213.096 36.9202 213.334C11.417 184.763 8.98813 161.668 15.0603 158.81C18.4607 157.382 25.7474 171.668 37.6489 180.477C48.093 188.334 56.1083 194.287 58.78 200.001Z" stroke="black" stroke-opacity="0.85" stroke-width="1.1653" stroke-miterlimit="10" stroke-linecap="round" stroke-linejoin="round"/>
</g>
<mask id="mask79_412_13430" style="mask-type:luminance" maskUnits="userSpaceOnUse" x="0" y="0" width="461" height="405">
<path d="M461 0H0V405H461V0Z" fill="white"/>
</mask>
<g mask="url(#mask79_412_13430)">
<path d="M418.494 198.808C417.28 217.38 418.251 243.808 418.737 263.57C419.466 295.951 417.765 317.618 408.779 334.523C386.433 376.189 338.098 376.189 339.556 319.523C340.041 299.046 351.7 284.523 359.472 273.332C378.661 245.475 384.004 205.951 398.334 183.57" stroke="black" stroke-opacity="0.85" stroke-width="1.1653" stroke-miterlimit="10" stroke-linecap="round" stroke-linejoin="round"/>
</g>
<mask id="mask80_412_13430" style="mask-type:luminance" maskUnits="userSpaceOnUse" x="0" y="0" width="461" height="405">
<path d="M461 0H0V405H461V0Z" fill="white"/>
</mask>
<g mask="url(#mask80_412_13430)">
<path d="M398.336 183.571C401.493 189.047 407.323 195.713 415.824 198.094C416.795 198.332 417.767 198.57 418.739 198.809C447.156 173.094 452.014 150.237 446.185 146.904C443.027 144.999 434.04 158.57 421.41 166.189C409.995 172.856 401.736 178.094 398.336 183.571Z" stroke="black" stroke-opacity="0.85" stroke-width="1.1653" stroke-miterlimit="10" stroke-linecap="round" stroke-linejoin="round"/>
</g>
<mask id="mask81_412_13430" style="mask-type:luminance" maskUnits="userSpaceOnUse" x="0" y="0" width="461" height="405">
<path d="M461 0H0V405H461V0Z" fill="white"/>
</mask>
<g mask="url(#mask81_412_13430)">
<path d="M209.855 184.762C211.799 193.809 226.858 196.428 229.529 185.476" stroke="black" stroke-opacity="0.85" stroke-width="1.1653" stroke-miterlimit="10" stroke-linecap="round" stroke-linejoin="round"/>
</g>
<mask id="mask82_412_13430" style="mask-type:luminance" maskUnits="userSpaceOnUse" x="0" y="0" width="461" height="405">
<path d="M461 0H0V405H461V0Z" fill="white"/>
</mask>
<g mask="url(#mask82_412_13430)">
<path d="M37.1621 213.096C45.906 247.858 45.6631 259.048 47.8491 279.524C51.4924 310.953 54.1643 321.429 58.5362 334.048C62.9082 346.429 68.7375 360.239 77.4814 365.239C93.0262 374.524 110.271 369.286 121.93 363.572" stroke="black" stroke-opacity="0.85" stroke-width="1.1653" stroke-miterlimit="10" stroke-linecap="round" stroke-linejoin="round"/>
</g>
<mask id="mask83_412_13430" style="mask-type:luminance" maskUnits="userSpaceOnUse" x="0" y="0" width="461" height="405">
<path d="M461 0H0V405H461V0Z" fill="white"/>
</mask>
<g mask="url(#mask83_412_13430)">
<path d="M371.133 363.811C356.074 366.43 350.002 363.811 346.359 366.906C342.715 370.001 335.915 380.239 333 394.525" stroke="black" stroke-opacity="0.85" stroke-width="1.1653" stroke-miterlimit="10" stroke-linecap="round" stroke-linejoin="round"/>
</g>
<mask id="mask84_412_13430" style="mask-type:luminance" maskUnits="userSpaceOnUse" x="0" y="0" width="461" height="405">
<path d="M461 0H0V405H461V0Z" fill="white"/>
</mask>
<g mask="url(#mask84_412_13430)">
<path d="M447.642 149.047C444.484 158.809 422.867 182.38 408.051 194.285" stroke="black" stroke-opacity="0.85" stroke-width="1.1653" stroke-miterlimit="10" stroke-linecap="round" stroke-linejoin="round"/>
</g>
<mask id="mask85_412_13430" style="mask-type:luminance" maskUnits="userSpaceOnUse" x="0" y="0" width="461" height="405">
<path d="M461 0H0V405H461V0Z" fill="white"/>
</mask>
<g mask="url(#mask85_412_13430)">
<path d="M13.6016 160.238C14.816 170.953 28.4176 193.096 47.8486 209.762" stroke="black" stroke-opacity="0.85" stroke-width="1.1653" stroke-miterlimit="10" stroke-linecap="round" stroke-linejoin="round"/>
</g>
<mask id="mask86_412_13430" style="mask-type:luminance" maskUnits="userSpaceOnUse" x="0" y="0" width="461" height="405">
<path d="M461 0H0V405H461V0Z" fill="white"/>
</mask>
<g mask="url(#mask86_412_13430)">
<path d="M233.172 53.3336C232.686 52.6193 232.2 51.9051 231.714 51.4289C230.986 50.9527 230.5 50.4765 229.528 50.2384C228.8 50.0003 228.071 49.7622 227.342 49.7622C227.099 49.7622 227.099 49.7622 226.857 49.7622C225.399 50.0003 224.185 50.4764 223.213 51.1907C223.213 51.1907 222.97 51.1908 222.97 51.4289C220.541 53.8098 217.87 55.0002 214.712 55.2383C214.226 55.2383 213.984 55.2383 213.498 55.2383C210.097 55.2383 207.183 54.0479 204.511 51.6669C201.839 49.286 200.382 46.4288 199.896 42.8574C199.896 42.3812 199.896 42.1431 199.653 41.6669C199.41 37.6193 200.382 34.0479 202.811 31.1908C205.24 28.0955 208.397 26.6669 212.283 26.1907C212.769 26.1907 213.012 26.1907 213.255 26.1907C214.469 26.1907 215.684 26.4288 216.655 26.6669C218.113 27.1431 219.327 27.6193 220.784 28.5716C221.999 29.524 223.456 30.0003 224.913 30.0003C225.156 30.0003 225.156 30.0003 225.399 30.0003C226.371 30.0003 227.099 29.7621 227.828 29.2859C228.557 28.8097 229.285 28.3336 229.771 27.6194C230.257 27.1432 230.5 26.6669 230.743 26.1907C230.743 25.9526 230.986 25.7145 230.986 25.4764C231.229 24.7622 231.228 23.8098 231.228 22.8574C230.986 20.4765 230.014 19.286 229.042 18.3336L228.8 18.0955C223.942 14.5241 218.598 12.8574 213.012 12.8574C212.283 12.8574 211.555 12.8574 211.069 12.8574C203.539 13.3336 197.467 16.6669 192.609 22.3812C190.909 24.286 189.695 26.4289 188.48 28.8098C186.537 33.0955 185.809 37.6192 186.294 42.3811C186.294 43.3335 186.537 44.0479 186.537 45.0003C187.509 51.4288 190.666 56.9049 195.524 61.4288C200.625 65.9526 206.454 68.3336 213.012 68.3336C213.741 68.3336 214.469 68.3336 215.198 68.3336C221.513 67.8574 227.099 65.2384 231.714 60.9527L231.957 60.7145C233.172 59.2859 233.657 57.6193 233.415 55.9526C233.657 55.0002 233.657 54.0479 233.172 53.3336ZM291.222 39.2859C290.979 37.8574 290.493 36.6669 290.25 35.2383C289.521 33.3335 288.55 31.1907 287.335 29.2859C283.206 22.8573 277.62 19.0479 270.333 17.6193C268.633 17.3812 266.69 17.1431 264.99 17.1431C259.646 17.1431 254.546 18.8097 249.931 22.143C247.745 23.5716 246.045 25.2384 244.587 27.1431C241.43 30.7146 239.487 35.0002 238.515 39.7621C238.272 40.4764 238.272 41.4288 238.029 42.1431C237.301 48.5717 238.515 54.7622 242.158 60.4765C246.287 66.905 251.874 70.7145 259.403 72.143C261.104 72.3811 263.047 72.6193 264.747 72.6193C270.09 72.6193 275.191 70.9526 279.806 67.6193C285.392 63.5717 289.279 58.3336 290.979 51.6669C291.222 51.1907 291.222 50.4764 291.465 50.0002C291.707 46.1907 291.707 42.6193 291.222 39.2859ZM272.034 56.905C269.605 58.5717 267.176 59.524 264.504 59.524C263.533 59.524 262.804 59.5241 261.832 59.286C258.189 58.5717 255.274 56.6669 253.088 53.3336C251.145 50.2384 250.417 47.143 250.902 43.5716C250.902 43.0954 250.902 42.8573 251.145 42.3811C251.631 40.2383 252.36 38.5717 253.331 37.1432C254.303 35.7146 255.76 34.286 257.217 33.0955C258.918 31.905 260.618 31.1908 262.318 30.7146C263.047 30.4765 264.018 30.4764 264.99 30.4764C265.961 30.4764 266.69 30.4765 267.662 30.7146C271.305 31.4288 274.22 33.3336 276.406 36.6669C278.591 40.0003 279.32 43.5716 278.349 47.6193C278.349 47.8574 278.349 48.0954 278.106 48.3335C277.134 51.9049 275.191 54.7622 272.034 56.905ZM355.344 53.5716C355.101 52.6193 354.615 51.905 354.129 51.1907C353.644 50.4764 352.915 50.0002 352.186 49.524C351.215 49.0478 350.243 48.8097 349.272 48.8097C348.057 48.8097 346.843 49.286 345.628 49.7622L345.385 50.0002L337.613 55.7146L323.769 65.7146L318.182 69.7621C318.182 69.7621 318.425 66.905 318.425 63.0954C318.668 58.3335 318.911 51.6669 319.397 46.1908C319.639 40.7146 319.882 36.6669 319.882 36.6669C319.882 34.0479 318.668 31.905 316.482 30.9526C315.753 30.4764 314.782 30.2383 313.81 30.2383C313.567 30.2383 313.567 30.2383 313.324 30.2383C312.596 30.2383 311.867 30.2383 311.381 30.4764C310.653 30.7145 309.924 31.1907 309.195 31.6669C308.467 32.143 307.981 32.8574 307.495 33.5717L304.095 39.7621L296.565 53.5716L287.335 70.7145C286.607 72.1431 286.364 74.0478 286.85 75.7145C287.335 77.3811 288.307 78.8097 290.007 79.7621C290.979 80.2383 291.95 80.4764 292.922 80.4764C293.651 80.4764 294.379 80.2383 295.108 80.2383C296.808 79.7621 298.023 78.5717 298.994 77.1431L305.552 65.2384L304.58 83.0955C304.338 85.7145 305.552 88.0954 307.981 89.2859C308.952 89.7621 309.924 90.0002 311.138 90.0002C312.353 90.0002 313.567 89.524 314.782 88.8097C314.782 88.8097 315.025 88.8098 315.025 88.5717L330.084 77.8574L323.526 89.7621C322.554 91.4288 322.554 93.0954 323.04 94.7621C323.526 96.4287 324.74 97.8573 326.197 98.8097C327.169 99.2859 328.141 99.524 329.355 99.524C330.084 99.524 330.812 99.524 331.541 99.2859C333.241 98.8098 334.456 97.6193 335.427 96.1907L344.657 79.2859L352.186 65.4764L355.83 59.0478C356.315 58.3335 356.558 57.3811 356.558 56.6669C355.587 55.2383 355.587 54.2859 355.344 53.5716ZM188.966 64.5241C188.237 62.8574 187.023 61.667 185.566 60.9527C184.594 60.4765 183.865 60.2383 182.894 60.2383C182.165 60.2383 181.194 60.4764 180.465 60.7145L163.463 67.3811L158.119 54.2859L152.29 40.0002L149.861 34.286C149.133 32.6193 147.918 31.4288 146.461 30.7146C145.489 30.2384 144.761 30.0003 143.789 30.0003C143.06 30.0003 142.089 30.2383 141.36 30.4764C139.66 31.1907 138.446 32.3811 137.717 34.0478C136.988 35.7145 136.988 37.3812 137.717 39.0479L140.389 45.2383L146.218 59.524L153.505 77.6193C152.533 76.4289 151.076 75.4765 149.618 75.2384C149.133 75.2384 148.647 75.0002 148.161 75.0002C146.947 75.0002 145.732 75.4764 144.518 76.1907L127.516 87.6192L122.901 81.1908L134.316 73.5717C135.774 72.6193 136.745 71.1908 136.988 69.286C137.231 67.6193 136.988 66.1907 136.017 64.7621C136.017 64.524 135.774 64.524 135.774 64.2859C134.802 62.8574 133.345 61.9049 131.645 61.4288C131.159 61.4288 130.673 61.1907 130.187 61.1907C128.973 61.1907 127.759 61.6669 126.544 62.3812L115.128 70.0003L110.514 63.5717L127.516 52.1431C128.244 51.6669 128.73 51.1907 128.973 50.7145C129.702 50.0002 129.945 49.0479 130.187 47.8574C130.43 46.1908 130.187 44.5241 128.973 43.0955C128.001 41.667 126.544 40.7146 124.844 40.2384C124.358 40.2384 123.872 40.0002 123.387 40.0002C122.172 40.0002 120.958 40.4764 119.743 41.1907L97.3977 56.1908C96.669 56.667 95.9403 57.3812 95.4545 58.0955C94.9687 58.8098 94.7259 59.5241 94.483 60.4765C94.2401 61.4288 94.483 62.1431 94.483 63.0954C94.7259 63.8097 94.9687 64.7621 95.4545 65.4764L99.0978 70.7145L108.085 83.5717L119.743 100.476C120.229 101.191 120.958 101.905 121.686 102.381C122.415 102.857 123.144 103.095 124.115 103.334C124.601 103.334 125.087 103.572 125.573 103.572C126.058 103.572 126.301 103.572 126.787 103.572C127.759 103.334 128.487 103.096 129.216 102.619L151.561 87.6192C153.019 86.6668 153.99 85.2383 154.233 83.3335C154.476 82.3812 154.233 81.1907 153.99 80.2383C154.233 80.4764 154.233 80.4765 154.476 80.7146C154.962 81.4288 155.691 81.905 156.419 82.1431C157.148 82.6193 158.119 82.6192 158.848 82.8573H159.091C159.82 82.8573 160.791 82.6193 161.52 82.3812L184.594 73.3335C186.294 72.6192 187.509 71.4287 188.237 69.7621C189.695 67.8573 189.695 66.1908 188.966 64.5241ZM392.506 82.8573L372.346 64.7621C371.617 64.0479 370.889 63.5717 369.917 63.3336C369.188 63.0955 368.46 63.0954 367.731 63.0954C367.488 63.0954 367.488 63.0954 367.245 63.0954C366.274 63.0954 365.545 63.3335 364.816 63.8097C364.088 64.2859 363.359 64.7622 362.63 65.2384L358.016 70.2383L347.329 81.6668L333.484 96.4288C332.755 97.1431 332.512 97.8574 332.027 98.5717C331.784 99.286 331.541 100.238 331.541 100.953C331.541 101.905 331.784 102.619 332.027 103.334C332.512 104.048 332.998 104.762 333.727 105.476L353.644 123.572C354.858 124.762 356.315 125.238 358.016 125.238C358.259 125.238 358.259 125.238 358.501 125.238C360.202 125 361.902 124.286 363.116 123.095C364.331 121.905 365.059 120.238 364.816 118.572C364.816 116.667 364.088 115.238 362.63 114.048L347.572 100.476L352.915 94.7621L363.116 103.81C364.331 105 365.788 105.476 367.488 105.476C367.731 105.476 367.731 105.476 367.974 105.476C369.188 105.476 370.16 105 371.132 104.286C371.617 104.048 372.103 103.572 372.346 103.095C373.56 101.905 374.289 100.238 374.046 98.5717C374.046 96.6669 373.318 95.2383 371.86 94.0478L361.659 85.0002L367.003 79.2859L376.475 87.8574L382.061 92.8573C383.276 94.0478 384.733 94.524 386.433 94.524C386.676 94.524 386.676 94.524 386.919 94.524C388.619 94.2859 390.32 93.5716 391.534 92.3811C392.748 91.1907 393.477 89.5241 393.234 87.8574C394.449 85.7145 393.72 84.0478 392.506 82.8573ZM113.185 109.524C112.942 109.524 112.942 109.524 113.185 109.524L100.555 90.7146L91.8112 77.6193L89.1394 73.5717C88.6537 73.0955 88.4108 72.3812 87.925 71.905C87.925 71.905 87.9251 71.905 87.6822 71.905C86.4677 70.7145 84.7675 70.2383 83.0673 70.2383C81.1242 70.2383 79.6668 70.9526 78.4524 72.3812C77.238 73.8098 76.7522 75.2384 76.7522 77.1431C76.7522 78.0955 77.238 79.0479 77.7238 80.0003L82.0957 86.6669L88.4108 96.1907C88.1679 95.9526 82.5815 93.3336 77.9667 90.7146C74.3234 88.8098 70.9229 87.1432 70.9229 87.1432C69.9513 86.667 68.9798 86.4287 68.0083 86.4287C67.5225 86.4287 67.0367 86.4288 66.551 86.6669C65.0936 86.905 64.1221 87.6193 63.1505 88.5717C62.179 89.524 61.4503 90.9526 61.4503 92.3811C61.2074 93.8097 61.6932 95.2383 62.4218 96.4288L66.7939 102.857L73.1089 112.619L62.9076 107.381L55.621 103.572H55.3781C54.4066 103.095 53.678 103.095 52.4635 103.095C50.5204 103.095 49.063 103.81 47.8486 105.238C46.6342 106.667 46.1484 108.095 46.1484 110C46.3913 111.667 47.12 113.334 48.3344 114.524C48.8202 115 49.306 115.238 50.0346 115.715L54.6495 118.096L68.9798 125.476L88.8966 135.714H89.1394C90.111 136.191 91.3255 136.429 92.297 136.429V132.619L92.5399 135.953C94.483 135.953 95.9403 135.238 97.1548 133.81C98.1263 132.619 98.8549 131.191 98.8549 129.762C98.8549 128.334 98.612 127.143 97.8834 125.953C97.8834 125.953 97.8834 125.714 97.6405 125.714L87.1964 110L104.198 118.81H104.441C105.413 119.286 106.627 119.524 107.599 119.524H107.842C109.542 119.524 111.242 118.81 112.457 117.381C113.428 116.191 114.157 114.762 114.157 113.334C114.157 112.143 113.914 110.714 113.185 109.524ZM406.107 98.0955C404.893 96.6669 403.193 95.9526 401.492 95.9526H401.25C399.549 95.9526 398.092 96.4288 396.878 97.6192L391.291 102.381L379.147 112.381L372.346 118.096C371.617 118.572 371.132 119.286 370.646 120C370.403 120.476 370.16 120.953 370.16 121.429H369.917C369.674 121.429 369.674 121.429 369.431 121.429C368.46 121.429 367.731 121.667 367.003 121.905C366.031 122.143 365.059 122.619 364.331 123.334C363.602 124.048 362.873 124.762 362.388 125.714C361.902 126.667 361.659 127.619 361.659 128.572C361.659 129.524 361.659 130.476 361.902 131.429C362.145 132.381 362.631 133.333 363.359 134.048C364.088 134.762 364.816 135.476 365.788 135.953C366.76 136.429 367.731 136.667 368.703 136.667C368.946 136.667 368.946 136.667 369.188 136.667C369.917 136.667 370.889 136.429 371.617 136.191C372.589 135.953 373.56 135.476 374.289 134.762C375.018 134.048 375.746 133.334 376.232 132.381C376.718 131.429 376.961 130.476 377.204 129.524V129.286C377.689 129.286 378.175 129.048 378.661 129.048C379.39 128.81 380.361 128.334 381.09 127.857L387.648 122.619L399.792 112.619L405.864 107.619C407.322 106.429 408.05 105 408.293 103.334C407.808 101.191 407.322 99.524 406.107 98.0955Z" fill="white"/>
</g>
<mask id="mask87_412_13430" style="mask-type:luminance" maskUnits="userSpaceOnUse" x="0" y="0" width="461" height="405">
<path d="M461 0H0V405H461V0Z" fill="white"/>
</mask>
<g mask="url(#mask87_412_13430)">
<path d="M53.9202 106.43L83.0667 121.43L65.0931 94.2868C64.6073 93.8106 64.6073 93.0962 64.6073 92.3819C64.6073 91.6676 64.8502 91.1915 65.336 90.4772C65.8217 90.001 66.3076 89.763 67.0362 89.5249C67.7649 89.2868 68.2506 89.5248 68.9793 89.7629L98.1258 104.763L80.1521 77.6201C79.9092 77.1439 79.6663 76.6677 79.6663 76.1915C79.6663 75.2391 79.9092 74.5249 80.395 74.0487C80.8808 73.3344 81.6094 73.0963 82.581 73.0963C83.5525 73.0963 84.2812 73.3344 85.0099 74.0487C85.2527 74.2868 85.4956 74.7629 85.7385 75.001L109.541 110.953C110.027 111.668 110.27 112.382 110.027 113.096C110.027 113.811 109.784 114.525 109.299 115.001C108.813 115.715 108.084 115.953 107.113 115.953C106.384 115.953 105.898 115.715 105.169 115.477L76.5088 100.715L94.2395 127.382C94.7253 128.096 94.9682 128.811 94.7253 129.525C94.7253 130.239 94.4824 130.953 93.9966 131.43C93.5109 132.144 92.7822 132.382 91.8107 132.382C91.3249 132.382 90.5963 132.144 90.1105 131.906L51.2485 111.906C50.7628 111.668 50.5198 111.43 50.2769 111.191C49.5483 110.477 49.3054 109.763 49.0625 109.049C49.0625 108.096 49.3054 107.382 49.7912 106.906C50.277 106.192 51.0056 105.953 51.9772 105.953C52.9487 106.191 53.4345 106.192 53.9202 106.43ZM146.46 79.2867C147.189 78.8105 147.918 78.5725 148.889 78.8106C149.861 79.0487 150.347 79.5248 150.832 80.2391C151.318 80.9534 151.561 81.6677 151.318 82.6201C151.075 83.5725 150.832 84.0486 150.104 84.5248L127.758 99.5248C127.272 99.7629 127.029 100.001 126.544 100.001C126.058 100.001 125.815 100.001 125.329 100.001C124.843 100.001 124.6 99.7629 124.115 99.5248C123.872 99.2867 123.386 99.0487 123.143 98.5725L98.8544 63.8105C98.6115 63.3343 98.3687 63.0962 98.3687 62.62C98.3687 62.1438 98.3687 61.9057 98.3687 61.4296C98.3687 60.9534 98.6115 60.7153 98.8544 60.2391C99.0973 60.001 99.3402 59.5249 99.826 59.2868L122.172 44.2868C122.9 43.8106 123.629 43.5725 124.6 43.8106C125.572 44.0487 126.058 44.5248 126.544 45.2391C127.029 45.9534 127.272 46.6677 127.029 47.6201C126.786 48.5724 126.544 49.0486 125.815 49.5248L105.898 62.8582L114.399 75.001L128.73 65.4772C129.458 65.001 130.187 64.7629 131.158 65.001C132.13 65.2391 132.616 65.7154 133.102 66.4296C133.587 67.1439 133.83 67.8582 133.587 68.8106C133.344 69.763 133.102 70.2391 132.373 70.7153L118.043 80.2391L126.544 92.3819L146.46 79.2867ZM140.874 37.8582C140.631 37.1439 140.631 36.1915 140.874 35.4773C141.117 34.763 141.845 34.0487 142.574 33.8106C143.303 33.5725 144.274 33.5725 145.003 33.8106C145.732 34.2868 146.46 34.7629 146.703 35.7153L161.519 71.9058L181.679 64.0487C182.408 63.8106 183.379 63.8106 184.108 64.0487C184.836 64.5249 185.565 65.001 185.808 65.9534C186.051 66.6677 186.051 67.6201 185.808 68.3344C185.565 69.0487 184.836 69.763 184.108 70.0011L161.034 79.0487C160.548 79.2867 160.305 79.2867 159.819 79.2867C159.333 79.2867 159.09 79.2867 158.605 79.0487C158.119 78.8106 157.876 78.5725 157.633 78.3344C157.39 78.0963 157.147 77.6201 156.904 77.1439L140.874 37.8582ZM227.099 53.0962C227.585 53.0962 227.828 53.0963 228.313 53.3344C228.799 53.5725 229.042 53.5725 229.285 54.0487C229.528 54.2868 229.771 54.5249 230.013 55.0011C230.256 55.4773 230.256 55.7154 230.256 56.1916C230.256 57.144 230.014 57.8582 229.528 58.5725C225.399 62.382 220.784 64.7629 215.197 65.001C208.639 65.4772 203.053 63.5724 197.952 59.0486C193.095 54.7629 190.18 49.0486 189.694 42.3819C189.208 35.7153 190.909 29.763 195.281 24.763C199.41 19.763 204.753 16.9058 211.311 16.4296C216.898 15.9535 221.998 17.62 226.856 20.9534C227.342 21.4296 227.828 22.1439 227.828 23.0963C227.828 23.5725 227.827 24.0487 227.585 24.2868C227.342 24.7629 227.342 25.0011 227.099 25.2392C226.856 25.4773 226.613 25.7154 226.127 25.9535C225.642 26.1915 225.399 26.1915 224.913 26.1915C224.184 26.1915 223.456 25.9534 222.727 25.4772C221.27 24.2868 219.327 23.5725 217.626 23.0963C215.683 22.6201 213.983 22.382 211.797 22.6201C206.939 23.0963 203.053 25.0011 199.895 28.8106C196.738 32.6201 195.524 36.9058 195.766 41.6677C196.252 46.6677 198.195 50.7154 201.839 53.8106C205.482 57.1439 209.611 58.5725 214.469 58.0963C218.598 57.8582 221.998 56.1915 224.913 53.3344C225.642 53.5725 226.37 53.3343 227.099 53.0962ZM287.578 49.2868C286.363 55.9534 282.963 60.9534 277.376 64.7629C272.033 68.5725 265.961 69.7629 259.646 68.5724C253.331 67.3819 248.23 64.0486 244.83 58.3343C241.186 52.8582 240.215 46.6677 241.429 40.2392C242.644 33.5725 246.044 28.5725 251.631 24.763C256.974 20.9535 263.046 19.7629 269.361 20.9534C275.676 22.1438 280.534 25.4773 284.177 31.1916C285.878 34.0487 287.092 36.9058 287.821 39.7629C288.306 42.8582 288.306 45.9534 287.578 49.2868ZM268.147 27.382C265.718 26.9058 263.532 26.9058 261.346 27.382C259.16 27.8582 257.217 28.8106 255.031 30.2391C253.088 31.6677 251.388 33.3343 250.173 35.2391C248.959 37.1438 247.987 39.2867 247.501 41.6677C246.53 46.4296 247.259 50.9535 249.93 55.0011C252.602 59.0487 256.245 61.6677 260.86 62.382C265.475 63.3344 269.847 62.382 273.976 59.5248C277.862 56.6677 280.534 52.8582 281.506 48.0963C282.477 43.3344 281.749 38.8106 279.077 34.763C276.405 30.7154 272.762 28.0962 268.147 27.382ZM290.007 72.1438L310.409 35.001C310.652 34.5248 310.895 34.2867 311.138 34.0486C311.381 33.8105 311.867 33.5724 312.109 33.3343C312.595 33.0962 312.838 33.0963 313.324 33.0963C313.81 33.0963 314.053 33.3344 314.538 33.5725C315.51 34.0487 316.238 35.001 316.238 36.4296L314.052 76.6677L347.085 52.6201C348.3 51.9059 349.271 51.9058 350.243 52.382C350.728 52.6201 350.971 52.8581 351.214 53.0962C351.457 53.3343 351.7 53.8106 351.7 54.0487C351.7 54.5248 351.943 54.7629 351.7 55.2391C351.7 55.7153 351.457 55.9534 351.214 56.4296L330.812 93.5724C330.326 94.2867 329.84 95.001 328.869 95.2391C328.14 95.4772 327.168 95.4772 326.44 95.0011C325.711 94.5249 325.225 94.0487 324.982 93.0963C324.74 92.1439 324.74 91.4297 325.225 90.7154L339.07 65.4772L311.624 85.2391C310.652 85.9534 309.438 85.9534 308.466 85.4772C307.252 84.763 306.766 83.8106 307.009 82.382L308.709 49.5248L294.864 74.763C294.379 75.4773 293.893 76.1916 292.921 76.4297C292.193 76.6678 291.221 76.6677 290.492 76.1915C289.764 75.7153 289.278 75.2391 289.035 74.2867C289.278 73.8106 289.521 73.0962 290.007 72.1438ZM360.93 116.43C361.658 116.906 361.901 117.62 361.901 118.572C361.901 119.525 361.658 120.239 360.93 120.953C360.201 121.668 359.472 121.906 358.744 122.144C357.772 122.144 357.044 121.906 356.558 121.43L336.641 103.334C336.398 103.096 336.155 102.62 335.912 102.382C335.669 101.906 335.669 101.668 335.669 101.191C335.669 100.715 335.669 100.477 335.912 100.001C336.155 99.5248 336.398 99.2867 336.641 98.8105L365.788 67.6201C366.03 67.382 366.516 67.1439 366.759 66.9059C367.245 66.6678 367.488 66.6677 367.973 66.6677C368.459 66.6677 368.702 66.6678 369.188 66.9059C369.674 67.1439 369.917 67.1439 370.159 67.6201L390.076 85.7153C390.805 86.1915 391.048 86.9058 391.048 87.8582C391.048 88.8106 390.805 89.5249 390.076 90.2392C389.348 90.9534 388.619 91.1915 387.89 91.4296C386.919 91.4296 386.19 91.1916 385.704 90.7154L367.973 74.763L357.772 85.4772L370.402 96.9058C371.131 97.382 371.374 98.0963 371.374 99.0487C371.374 100.001 371.131 100.715 370.402 101.43C369.674 102.144 368.945 102.382 368.216 102.62C367.245 102.62 366.516 102.382 366.03 101.906L353.4 90.4772L343.199 101.191L360.93 116.43ZM371.617 132.144C371.131 132.62 370.645 132.858 370.159 133.096C369.674 133.334 368.945 133.334 368.459 133.334C367.973 133.334 367.488 133.096 367.002 132.858C366.516 132.62 366.03 132.382 365.788 131.906C365.302 131.43 365.059 130.953 365.059 130.477C365.059 130.001 364.816 129.525 364.816 128.811C364.816 128.334 365.059 127.858 365.302 127.144C365.545 126.668 366.03 126.191 366.516 125.715C367.002 125.239 367.488 125.001 367.973 124.763C368.459 124.525 369.188 124.525 369.674 124.525C370.159 124.525 370.645 124.763 371.374 125.001C371.86 125.239 372.345 125.477 372.588 125.953C373.074 126.43 373.317 126.906 373.317 127.382C373.56 127.858 373.56 128.334 373.56 129.049C373.56 129.525 373.317 130.001 373.074 130.715C372.588 131.43 372.103 131.668 371.617 132.144ZM399.063 100.239C399.792 99.763 400.52 99.2867 401.492 99.5248C402.464 99.7629 402.949 100.001 403.678 100.477C404.407 100.953 404.406 101.906 404.406 102.62C404.406 103.334 403.921 104.049 403.192 104.763L378.418 125.239C378.175 125.477 377.689 125.715 377.203 125.953C376.717 126.192 376.475 126.191 375.989 126.191C375.503 126.191 375.26 126.192 374.774 125.953C374.289 125.715 374.046 125.477 373.803 125.239C373.56 125.001 373.317 124.525 373.317 124.287C373.317 123.811 373.074 123.572 373.317 123.096C373.317 122.62 373.56 122.382 373.56 121.906C373.803 121.43 374.046 121.191 374.289 120.953L399.063 100.239Z" fill="#090B0F"/>
</g>
<mask id="mask88_412_13430" style="mask-type:luminance" maskUnits="userSpaceOnUse" x="0" y="0" width="461" height="405">
<path d="M461 0H0V405H461V0Z" fill="white"/>
</mask>
<g mask="url(#mask88_412_13430)">
<g opacity="0.32">
<mask id="mask89_412_13430" style="mask-type:luminance" maskUnits="userSpaceOnUse" x="54" y="25" width="346" height="100">
<path d="M399.064 25.9492H54.8926V124.997H399.064V25.9492Z" fill="white"/>
</mask>
<g mask="url(#mask89_412_13430)">
<path d="M91.8102 77.3777L100.554 90.473C89.1384 100.711 78.4514 112.14 68.9788 124.759L54.6484 117.378C57.3202 113.806 59.9919 110.235 62.6637 106.902L72.865 112.14L66.5499 102.378C70.1932 98.092 73.8365 94.0444 77.7227 90.2349C82.5805 92.6159 87.924 95.473 88.1668 95.7111L81.8518 86.1873C85.2522 83.3301 88.4097 80.473 91.8102 77.3777ZM131.887 61.9015C131.401 61.9015 130.915 61.6635 130.429 61.6635C129.215 61.6635 128 62.1397 126.786 62.854L115.37 70.473L110.755 64.0444L127.757 52.6159C128.486 52.1397 128.972 51.6634 129.215 51.1873C126.3 52.8539 123.386 54.5206 120.471 56.4254C113.184 60.9492 106.383 65.7111 99.5826 71.1873L108.569 84.0444C117.313 76.9015 126.543 70.7111 136.016 65.2349C136.016 64.9968 135.773 64.9968 135.773 64.7587C135.044 63.092 133.587 62.1396 131.887 61.9015ZM140.145 45.4731L145.974 59.7588C149.86 57.854 153.989 55.9491 157.876 54.2825L152.046 39.9967C148.16 41.6634 144.031 43.5683 140.145 45.4731ZM188.722 29.0444C186.779 33.3301 186.05 37.854 186.536 42.6159C186.536 43.5683 186.779 44.2825 186.779 45.2349C191.151 44.2825 195.523 43.5682 199.652 42.8539C199.652 42.3777 199.652 42.1396 199.409 41.6634C199.166 37.6158 200.138 34.0445 202.567 31.1873C204.996 28.0921 208.153 26.6634 212.039 26.1873C212.525 26.1873 212.768 26.1873 213.011 26.1873C214.225 26.1873 215.44 26.4254 216.411 26.6635C217.869 27.1397 219.083 27.6158 220.297 28.5682C221.512 29.5206 222.969 29.9969 224.427 29.9969C224.669 29.9969 224.669 29.9969 224.912 29.9969C225.884 29.9969 226.613 29.7587 227.341 29.2825C228.07 28.8063 228.799 28.3302 229.284 27.6159C229.77 27.1397 230.013 26.6634 230.256 26.1873C226.855 25.9492 223.455 25.9492 219.812 25.9492C209.853 25.9492 199.409 27.1397 188.722 29.0444ZM290.006 35.2348C275.676 30.9491 260.374 28.3301 244.1 26.9015C240.943 30.4729 239 34.7588 238.028 39.5207C237.785 40.235 237.785 41.1873 237.542 41.9016C241.914 42.1397 246.286 42.6159 250.658 43.0921C250.658 42.6159 250.658 42.3778 250.901 41.9016C251.387 39.7588 252.116 38.0921 253.087 36.6635C254.059 35.2349 255.516 33.8063 256.973 32.6159C258.674 31.4254 260.374 30.7111 262.074 30.2349C262.803 29.9968 263.774 29.9969 264.746 29.9969C265.717 29.9969 266.446 29.9968 267.418 30.2349C271.061 30.9492 273.976 32.854 276.162 36.1873C278.348 39.5206 279.076 43.092 278.105 47.1396C278.105 47.3777 278.105 47.6159 277.862 47.854C282.234 48.8064 286.363 49.9969 290.492 51.4254C290.735 50.9492 290.735 50.2349 290.978 49.7587C291.706 45.9492 291.706 42.3778 291.221 39.0445C290.978 37.854 290.492 36.6634 290.006 35.2348ZM296.078 53.5682C303.608 56.1873 311.137 59.5206 318.181 63.092C318.424 58.3301 318.667 51.6635 319.153 46.1873C314.052 43.8064 308.951 41.6635 303.851 39.7587L296.078 53.5682ZM337.369 55.7111L323.525 65.7111C330.568 69.5207 337.126 73.8063 343.684 78.5682L351.214 64.7587C346.599 61.6635 341.984 58.5683 337.369 55.7111ZM377.688 87.6158C371.616 81.4253 365.058 75.7111 358.5 70.473L347.813 81.9016C356.314 88.5683 364.33 95.9491 372.102 104.282C372.588 104.044 373.074 103.568 373.316 103.092C374.531 101.901 375.26 100.235 375.017 98.5683C375.017 96.6635 374.288 95.2349 372.831 94.0444L362.629 84.9968L367.973 79.2825L377.688 87.6158ZM391.047 102.378L378.903 112.378C381.575 115.711 384.246 119.044 386.918 122.378L399.063 112.378C396.391 108.806 393.719 105.473 391.047 102.378Z" fill="white"/>
</g>
</g>
</g>
<mask id="mask90_412_13430" style="mask-type:luminance" maskUnits="userSpaceOnUse" x="0" y="0" width="461" height="405">
<path d="M461 0H0V405H461V0Z" fill="white"/>
</mask>
<g mask="url(#mask90_412_13430)">
<g opacity="0.23">
<mask id="mask91_412_13430" style="mask-type:luminance" maskUnits="userSpaceOnUse" x="12" y="158" width="129" height="213">
<path d="M140.631 158.572H12.3867V370.239H140.631V158.572Z" fill="white"/>
</mask>
<g mask="url(#mask91_412_13430)">
<path d="M140.874 319.047C140.874 319.285 140.631 319.285 140.631 319.523C140.631 319.761 140.388 319.761 140.388 319.999C140.388 320.238 140.145 320.238 140.145 320.476C140.145 320.714 139.902 320.714 139.902 320.952C139.66 321.19 139.66 321.428 139.417 321.904C138.931 322.618 138.688 323.333 138.202 324.047C138.202 324.285 137.959 324.523 137.959 324.761C137.716 325.238 137.474 325.476 137.231 325.952C129.944 339.761 125.329 352.142 122.9 363.571C113.185 369.523 96.4256 373.333 82.824 368.333C72.6227 364.523 66.3076 356.19 60.7212 340.952C59.7497 338.809 59.021 336.904 58.2923 334.523C53.6775 319.999 51.0057 312.38 47.6053 280C45.1764 256.666 45.1764 247.857 36.9182 213.571C11.4151 184.999 8.98618 161.904 15.0584 159.047C16.5157 158.333 18.7017 160.714 21.6163 164.047C10.6864 172.857 38.1326 204.285 42.9904 212.142C49.0626 221.666 47.1195 252.857 62.4214 286.904C74.5657 313.809 72.6226 327.142 79.4235 347.857C84.0383 362.619 94.7254 367.619 103.226 365.714C116.342 363.095 119.014 352.857 121.929 345.476C126.786 333.095 136.988 317.618 131.401 312.618C134.802 314.285 137.716 315.952 140.388 317.142C140.388 317.38 140.388 317.38 140.388 317.619C140.388 318.095 140.631 318.571 140.874 319.047Z" fill="#503324"/>
</g>
</g>
</g>
<mask id="mask92_412_13430" style="mask-type:luminance" maskUnits="userSpaceOnUse" x="0" y="0" width="461" height="405">
<path d="M461 0H0V405H461V0Z" fill="white"/>
</mask>
<g mask="url(#mask92_412_13430)">
<g opacity="0.23">
<mask id="mask93_412_13430" style="mask-type:luminance" maskUnits="userSpaceOnUse" x="343" y="146" width="106" height="219">
<path d="M448.128 146.664H343.93V364.045H448.128V146.664Z" fill="white"/>
</mask>
<g mask="url(#mask93_412_13430)">
<path d="M418.496 198.808C417.282 217.38 418.253 243.808 418.739 263.57C419.468 295.951 417.767 317.618 408.781 334.523C391.05 367.856 356.317 374.523 343.93 346.666C362.632 365.713 380.849 338.332 386.192 318.332C392.021 296.665 399.794 283.808 404.894 258.094C409.995 232.38 406.352 203.808 410.724 196.189C412.91 192.38 416.553 189.046 427.726 178.332C437.441 169.046 444.242 156.189 442.542 147.856C443.999 146.904 444.971 146.427 445.699 146.904C451.772 150.237 446.914 173.094 418.496 198.808Z" fill="#503324"/>
</g>
</g>
</g>
</g>
<defs>
<radialGradient id="paint0_radial_412_13430" cx="0" cy="0" r="1" gradientUnits="userSpaceOnUse" gradientTransform="translate(265.354 185.265) rotate(2.76487) scale(23.7653 13.5755)">
<stop stop-color="#F18D8A"/>
<stop offset="1" stop-color="#F18D8A"/>
</radialGradient>
<radialGradient id="paint1_radial_412_13430" cx="0" cy="0" r="1" gradientUnits="userSpaceOnUse" gradientTransform="translate(164.2 181.856) rotate(9.54063) scale(18.5833 12.2942)">
<stop stop-color="#F18D8A"/>
<stop offset="1" stop-color="#F18D8A"/>
</radialGradient>
</defs>
</svg>
