<svg width="200" height="120" viewBox="0 0 200 120" fill="none" xmlns="http://www.w3.org/2000/svg">
<g clip-path="url(#clip0_80_4155)">
<path d="M43.9015 22.4195C42.0822 22.4195 37.2063 31.7345 36.1875 33.6994C28.1096 47.8175 31.0934 64.2644 37.4974 78.3097C39.1712 81.9483 38.3707 83.04 40.0445 86.3875C40.845 87.9158 43.5377 91.5545 43.5377 93.2283C43.5377 93.5921 43.5377 94.3199 43.5377 94.3199C43.5377 94.3199 43.0282 91.6272 42.4461 90.4629C42.2277 90.099 41.5 89.3713 41.8639 89.3713C42.0822 89.3713 42.3733 89.9534 42.4461 90.099C44.1926 94.5382 42.2277 100.215 43.3921 104.872C44.1926 108.074 50.3056 111.931 53.726 112.804C66.5341 116.006 79.4151 112.586 92.2232 112.586C95.4253 112.586 104.668 113.605 107.36 110.912C109.616 108.656 110.344 105.745 112.163 103.198C114.637 99.7779 120.387 95.557 124.316 93.956C128.392 92.2822 133.559 93.301 137.561 94.3199C138.58 94.611 141.709 95.9209 142.728 94.9021C144.402 93.2283 145.202 88.3524 144.766 86.242C143.674 80.6384 144.038 72.3422 142.946 66.8842C142.219 63.1728 140.836 59.6068 139.453 56.0409C133.995 41.8501 126.354 30.3518 114.201 21.4735C111.144 19.2902 106.05 15.3605 102.557 13.6139C99.2095 11.9401 95.4253 12.0129 92.0777 10.2663C87.6385 8.08311 82.8354 5.17216 78.0324 4.00778C76.868 3.71669 78.5418 5.82713 78.3962 6.04545C78.2507 6.33654 75.267 6.33654 74.9031 6.26377C70.9005 5.46326 66.898 5.53603 63.1138 3.86224C62.4588 3.57114 60.2028 1.24239 59.4023 1.46071C57.1463 2.18844 60.4939 8.44698 60.4939 8.44698C60.4939 8.44698 60.2028 7.93756 59.9117 7.71924C58.8201 6.84596 56.3458 6.19099 54.9631 5.8999C51.9794 5.31771 50.6695 7.20983 48.1224 7.71924C47.7585 7.79201 44.7748 8.59252 44.7748 8.6653C44.7748 9.32026 49.5779 10.048 49.5779 10.703C49.5779 11.2851 48.559 11.0668 48.2679 11.0668C46.8852 11.2851 38.8074 14.6327 39.3896 16.3793C39.6807 17.1798 43.9015 17.1798 44.702 17.6892C44.9204 17.8348 45.4298 17.9076 45.4298 17.9076C45.4298 17.9076 42.0822 18.417 40.4812 18.8536C38.4435 19.363 34.2226 24.0205 37.9341 24.0205" fill="#CAA77A"/>
<path d="M43.4649 107.128C43.3194 105.236 39.0257 110.476 40.3356 112.222C40.9178 112.95 41.8639 113.459 42.3005 114.187C42.5916 114.551 41.9367 115.06 41.7911 115.279C39.4624 118.408 37.9341 121.901 36.5514 125.394C35.0232 129.178 34.0771 132.526 33.4949 136.601C33.1311 139.148 35.1687 141.768 34.5865 144.024C33.0583 150.137 28.9102 150.21 27.1636 162.29C26.5087 166.511 24.6165 171.533 24.6165 175.899C24.6165 176.627 24.2527 179.538 24.9804 180.047C34.5138 187.034 48.4863 187.834 61.3672 187.834C63.9871 187.834 66.4614 189.944 69.0085 189.29C72.7927 188.343 76.5769 188.635 80.3612 187.688C80.8706 187.543 83.4904 188.198 83.4904 187.688C83.4904 187.543 80.5795 184.123 80.3612 183.322C78.9785 177.791 81.2344 175.826 83.9998 171.751C85.0187 170.223 83.7087 164.91 83.4904 163.237C82.2533 155.886 83.0538 149.701 81.9622 142.278C81.7439 140.968 81.0889 133.399 82.6899 132.963C84.2182 132.599 82.3988 128.96 83.9271 128.524C89.8945 126.995 96.5897 128.669 102.775 127.577C103.794 127.432 111.654 126.559 112.6 127.505C113.4 128.305 114.201 131.143 114.71 132.381C115.802 135 116.675 137.911 117.912 140.458C119.077 142.787 117.84 150.137 122.497 146.862C145.857 130.779 162.086 139.44 162.086 139.148C162.013 126.995 159.539 111.786 153.062 103.198C150.151 99.3413 146.149 94.1744 140.909 92.8644C137.925 92.1367 134.65 89.2257 131.303 90.1718C124.971 91.9911 116.53 94.7565 112.527 100.215C111.217 101.961 109.252 106.4 107.433 107.637C106.632 108.147 105.541 108.511 104.522 108.656C99.5006 109.675 94.3337 109.457 89.3123 110.476C78.5418 112.659 70.0273 111.713 59.2568 109.602C57.5102 109.238 53.3621 109.748 51.6883 109.457C49.5779 109.093 47.8313 109.093 45.7209 108.584C43.3194 108.001 43.4649 107.346 43.4649 107.128Z" fill="#FFDB1F"/>
<path d="M35.0959 51.0193C36.6242 44.7608 40.4812 37.6289 46.1575 36.6101C52.7799 35.373 58.2379 40.6854 64.642 40.4671C65.8064 40.3943 68.1351 39.7394 68.8629 38.6478C69.5178 37.7017 68.8629 36.319 68.8629 36.319C69.8817 36.6101 70.9005 38.0656 72.1377 38.4295C76.9407 39.8122 81.8894 35.5913 86.2558 34.2814C100.738 29.9149 112.018 31.4432 119.732 45.4157C121.478 48.545 124.098 55.7496 122.351 63.7547C119.732 75.4712 118.349 80.3471 105.686 89.0799C90.6222 99.4865 59.4023 104.653 43.8287 85.0046C36.4058 75.8351 32.185 62.8086 35.0959 51.0193Z" fill="#FFDBAF"/>
<path d="M64.2782 56.4047C59.0385 53.7849 54.7448 67.0297 55.1815 70.8867C56.637 83.9859 75.7764 83.2582 84.582 78.819C97.3902 72.4149 81.7439 51.82 72.5744 55.4587" fill="#9D7B51"/>
<path d="M35.0959 51.0921C32.2577 56.259 35.4598 71.8326 37.643 73.4336C39.3168 74.6708 50.815 66.0107 54.0898 60.4799C54.9631 59.0244 59.4023 49.6366 57.7285 47.9628C56.7825 47.0168 44.4109 48.7633 42.5188 49.1272C39.9718 49.7094 36.2603 48.9089 35.0959 51.0921Z" fill="#9D7B51"/>
<path d="M83.1993 48.6906C83.8542 70.0133 115.074 81.366 118.786 76.0535C121.114 72.6332 125.772 56.6957 119.659 45.9252C119.077 44.9064 112.236 47.1624 111.144 47.3079C101.975 48.7634 82.9082 39.3756 83.1993 48.6906Z" fill="#9D7B51"/>
<path d="M50.4511 97.8857L50.3784 102.179" stroke="#9D7B51" stroke-width="2.98896" stroke-miterlimit="10" stroke-linecap="round" stroke-linejoin="round"/>
<path d="M54.672 100.069V104.435" stroke="#9D7B51" stroke-width="2.98896" stroke-miterlimit="10" stroke-linecap="round" stroke-linejoin="round"/>
<path d="M92.9509 49.5638C92.9509 51.5287 93.3148 52.8386 93.9698 53.7119C95.9346 56.259 100.374 54.8763 104.813 54.0757C109.616 53.2752 110.708 50.2915 111.581 48.4722" fill="white"/>
<path d="M35.8236 48.4722C31.7483 59.0971 48.6318 58.0055 51.7611 49.9276L35.8236 48.4722Z" fill="white"/>
<path opacity="0.23" d="M34.441 23.7292C37.5702 23.7292 40.1901 22.8559 43.2466 22.2009C44.1199 21.9826 45.8664 21.1093 45.8664 21.9098C45.8664 22.1282 45.5026 22.0554 45.357 22.2009C42.7372 23.7292 40.6267 25.9852 39.1713 28.6778C38.6618 29.6238 37.2791 32.1709 37.643 31.516C49.3596 10.1205 135.378 2.11541 130.429 88.9344C130.357 89.7349 129.411 91.0448 130.138 91.2631C131.667 91.7725 134.141 90.3171 136.106 90.972C136.979 91.2631 143.238 94.7562 143.893 94.3196C144.984 93.5919 144.184 89.4438 144.402 88.1339C148.768 58.8788 115.001 19.6539 112.09 18.0528C100.956 11.8671 78.1779 4.95358 77.6685 4.88081C77.5957 4.88081 75.5581 6.11796 74.5393 5.89964C70.8278 5.24468 66.6069 3.86198 62.8955 2.77037C62.3133 2.62483 58.8929 -0.0677968 58.7474 0.150524C58.3107 1.02381 58.0924 5.68132 58.4563 6.33628C58.7474 6.8457 60.5667 6.04519 59.9845 6.04519C55.1815 6.04519 49.1413 7.57344 43.9743 8.66504C43.756 8.73781 43.4649 8.73781 43.4649 8.95613C43.4649 10.4116 50.1601 9.46555 50.1601 10.4844C50.1601 11.2121 40.8451 13.832 39.5351 14.8508C39.1713 15.1419 37.643 16.3063 38.0069 16.6701C39.244 17.9073 42.3005 16.379 43.9743 17.1796" fill="#3F2719"/>
<path opacity="0.23" d="M120.605 94.902C120.096 95.1204 119.513 95.3387 119.077 95.7026C118.276 96.212 120.969 95.4115 121.915 95.4115C124.098 95.4115 164.269 113.969 151.024 170.659C146.949 188.198 129.702 195.548 117.694 195.766C106.851 195.985 96.5897 192.273 92.2232 189.435C92.0777 189.362 92.296 193.51 92.4415 193.583C93.4604 193.947 102.775 199.187 112.673 200.278C115.729 200.642 118.567 199.696 121.624 199.914C129.92 200.497 132.176 199.914 140.036 197.513C142.874 196.64 145.857 193.438 148.259 191.982C153.135 188.998 156.992 184.632 159.612 177.937C161.067 174.08 162.741 170.296 163.323 166.511C164.779 157.124 164.633 148.609 162.377 139.658C161.213 135.146 164.415 143.369 163.469 137.111C158.738 106.255 147.604 82.5305 120.605 94.902Z" fill="#3F2719"/>
<path d="M45.0659 21.4734C41.5728 23.8021 39.4623 27.6591 37.1336 31.0067C25.5626 47.3808 31.6755 68.1941 39.899 84.6409C40.6267 86.0964 41.6455 87.7702 41.8639 89.3712C42.0094 90.1717 41.5 91.5544 41.8639 92.2821C42.0094 92.5732 42.7371 91.4816 42.8099 91.8455C43.0282 93.3737 42.8099 95.1203 42.6644 96.5758C42.5916 97.158 41.9366 98.6862 42.3733 98.2496C42.5188 98.104 42.8827 96.8669 43.4649 97.0124C43.756 97.0852 43.4649 105.236 43.3193 106.036" stroke="#2D1F04" stroke-width="2.02354" stroke-miterlimit="10" stroke-linecap="round" stroke-linejoin="round"/>
<path d="M43.9743 21.9825C42.2277 22.8558 41.1361 22.8558 39.3896 23.3652C38.5163 23.5836 37.7886 23.9474 36.9153 24.1657C36.1148 24.3113 35.2415 24.3841 34.441 24.6024C34.0771 24.6752 33.3494 25.2574 33.3494 24.8935C33.3494 23.7291 42.5916 18.5622 44.411 17.98C44.7021 17.9072 45.0659 17.9072 45.2115 17.6889C45.357 17.325 44.4837 17.325 44.1199 17.2523C42.3733 16.8156 38.2252 18.1983 36.7697 17.1067C36.4059 16.8156 39.5351 14.9235 39.6807 14.7779C41.5728 13.6863 43.5377 12.3036 45.6481 11.7215C46.8853 11.3576 49.5051 12.2309 49.5051 10.9209C49.5051 9.3927 42.5188 9.90212 42.0094 9.3927C41.9367 9.31993 42.2277 9.31993 42.3005 9.24715C43.9015 8.44664 45.6481 7.79168 47.3219 7.42781C50.5239 6.70007 56.1275 5.89957 59.2568 6.99117" stroke="#2D1F04" stroke-width="2.02354" stroke-miterlimit="10" stroke-linecap="round" stroke-linejoin="round"/>
<path d="M59.7662 7.71911C58.8929 5.89976 57.2191 2.91605 58.0924 0.80561C58.1652 0.660062 58.8201 -0.0676736 59.0384 0.00510001C59.6934 0.296195 60.13 1.46057 60.8578 1.82444C63.9143 3.42546 67.2619 4.58984 70.6822 5.31757C72.6471 5.75422 74.6848 5.97254 76.6497 6.40918C77.0863 6.48195 78.0324 6.55473 78.0324 6.55473C78.0324 6.55473 75.3397 4.1532 76.3586 3.64378C76.5041 3.57101 84.2181 6.40918 84.9459 6.70027C90.4767 8.81071 96.0075 10.1206 101.247 12.6677" stroke="#2D1F04" stroke-width="2.02354" stroke-miterlimit="10" stroke-linecap="round" stroke-linejoin="round"/>
<path d="M92.3688 9.17456C130.793 21.9099 144.766 62.6632 144.766 89.8078" stroke="#2D1F04" stroke-width="2.02354" stroke-miterlimit="10" stroke-linecap="round" stroke-linejoin="round"/>
<path d="M43.5377 107.346C73.5204 115.933 104.013 109.82 107.36 108.147" stroke="#2D1F04" stroke-width="2.02354" stroke-miterlimit="10" stroke-linecap="round" stroke-linejoin="round"/>
<path d="M43.5377 107.419C43.9015 105.454 41.4272 108.947 40.9906 109.966C40.3356 111.421 41.7911 112.731 41.7183 113.459C41.6455 114.332 40.2629 116.37 39.899 117.316C37.2064 124.594 30.7295 133.909 34.7321 141.768" stroke="#2D1F04" stroke-width="2.02354" stroke-miterlimit="10" stroke-linecap="round" stroke-linejoin="round"/>
<path d="M144.693 88.9346C144.839 89.7351 144.62 90.8995 144.547 91.9911" stroke="#2D1F04" stroke-width="2.02354" stroke-miterlimit="10" stroke-linecap="round" stroke-linejoin="round"/>
<path d="M149.86 98.6135C151.243 100.578 152.553 102.689 153.79 104.727C157.865 111.64 161.795 127.941 162.886 136.529" stroke="#2D1F04" stroke-width="2.02354" stroke-miterlimit="10" stroke-linecap="round" stroke-linejoin="round"/>
<path d="M106.123 120.518C109.689 123.793 113.764 128.45 115.365 133.181C116.166 135.582 116.675 138.93 117.767 141.186" stroke="#2D1F04" stroke-width="2.02354" stroke-miterlimit="10" stroke-linecap="round" stroke-linejoin="round"/>
<path d="M112.745 128.16C112.382 125.394 112.018 121.901 110.853 119.5" stroke="#2D1F04" stroke-width="2.02354" stroke-miterlimit="10" stroke-linecap="round" stroke-linejoin="round"/>
<path d="M137.852 91.336C118.495 86.8968 106.269 108.147 107.287 108.947" stroke="#2D1F04" stroke-width="2.02354" stroke-miterlimit="10" stroke-linecap="round" stroke-linejoin="round"/>
<path d="M150.588 99.6321C146.949 94.9746 143.965 93.228 138.071 91.4087" stroke="#2D1F04" stroke-width="2.02354" stroke-miterlimit="10" stroke-linecap="round" stroke-linejoin="round"/>
<path d="M144.839 90.2444C144.984 91.2632 144.839 92.2093 144.984 93.2281" stroke="#2D1F04" stroke-width="2.02354" stroke-miterlimit="10" stroke-linecap="round" stroke-linejoin="round"/>
<path d="M81.3071 47.0896L122.424 46.3618" stroke="#2D1F04" stroke-width="5.86978" stroke-miterlimit="10" stroke-linecap="round" stroke-linejoin="round"/>
<path d="M61.9493 47.8901L48.6318 48.1085L26.363 48.4723" stroke="#2D1F04" stroke-width="5.86978" stroke-miterlimit="10" stroke-linecap="round" stroke-linejoin="round"/>
<path d="M91.35 49.9278C94.4065 59.0973 110.344 56.1863 110.635 48.7634" stroke="#2D1F04" stroke-width="2.35561" stroke-miterlimit="10" stroke-linecap="round" stroke-linejoin="round"/>
<path d="M35.2415 51.3104C33.9315 57.86 51.9794 58.3694 51.9794 50.146" stroke="#2D1F04" stroke-width="2.35561" stroke-miterlimit="10" stroke-linecap="round" stroke-linejoin="round"/>
<path d="M61.0761 56.4046C61.0033 54.4397 64.8603 52.6204 69.7361 52.4021C74.612 52.1837 78.6873 53.5664 78.7601 55.5313C78.8329 57.4962 74.9758 59.3156 70.1 59.5339C65.2242 59.825 61.2216 58.3695 61.0761 56.4046Z" fill="#251707"/>
<path d="M102.848 48.4723C102.994 48.3267 103.212 48.2539 103.358 48.1084" stroke="#2D1F04" stroke-width="2.35561" stroke-miterlimit="10" stroke-linecap="round" stroke-linejoin="round"/>
<path d="M69.9545 60.189C69.9545 67.5391 74.1026 58.879 79.9245 61.79" stroke="#2D1F04" stroke-width="2.35561" stroke-miterlimit="10" stroke-linecap="round" stroke-linejoin="round"/>
<path d="M94.0426 117.025C85.5281 120.009 52.4888 119.79 42.0822 112.95" stroke="#2D1F04" stroke-width="2.02354" stroke-miterlimit="10" stroke-linecap="round" stroke-linejoin="round"/>
<path d="M48.1952 108.875C47.7585 110.112 47.3219 111.058 47.3219 112.44" stroke="#2D1F04" stroke-width="2.02354" stroke-miterlimit="10" stroke-linecap="round" stroke-linejoin="round"/>
<path d="M55.8364 110.403C55.2542 111.567 55.1815 113.023 55.1815 114.333" stroke="#2D1F04" stroke-width="2.02354" stroke-miterlimit="10" stroke-linecap="round" stroke-linejoin="round"/>
<path d="M65.0059 111.567L64.4965 114.623" stroke="#2D1F04" stroke-width="2.02354" stroke-miterlimit="10" stroke-linecap="round" stroke-linejoin="round"/>
<path d="M71.4827 112.44V112.95V113.314V113.823V114.114V114.478V114.842" stroke="#2D1F04" stroke-width="2.02354" stroke-miterlimit="10" stroke-linecap="round" stroke-linejoin="round"/>
<path d="M67.9169 112.586V112.95V113.314V113.605V113.969V114.333" stroke="#2D1F04" stroke-width="2.02354" stroke-miterlimit="10" stroke-linecap="round" stroke-linejoin="round"/>
<path d="M93.2421 111.567V111.931V112.295V112.95V113.313" stroke="#2D1F04" stroke-width="2.02354" stroke-miterlimit="10" stroke-linecap="round" stroke-linejoin="round"/>
<path d="M95.7891 111.567V112.076V112.586V112.95" stroke="#2D1F04" stroke-width="2.02354" stroke-miterlimit="10" stroke-linecap="round" stroke-linejoin="round"/>
<path d="M43.6104 50.3646C43.6104 48.7635 44.9203 47.4536 46.5214 47.4536C48.1224 47.4536 49.4323 48.7635 49.4323 50.3646C49.4323 51.9656 48.1224 53.2755 46.5214 53.2755C44.9203 53.2755 43.6104 51.9656 43.6104 50.3646Z" fill="#2D1F04"/>
<path d="M102.339 48.6907C102.339 47.0897 103.649 45.7798 105.25 45.7798C106.851 45.7798 108.161 47.0897 108.161 48.6907C108.161 50.2918 106.851 51.6017 105.25 51.6017C103.649 51.6017 102.339 50.2918 102.339 48.6907Z" fill="#2D1F04"/>
<path d="M98.3362 51.8926C98.1179 51.8926 97.8995 51.8198 97.6812 51.8198L98.3362 51.8926Z" fill="#2D1F04"/>
</g>
<defs>
<clipPath id="clip0_80_4155">
<rect width="200" height="120" fill="white"/>
</clipPath>
</defs>
</svg>
