<svg width="200" height="120" viewBox="0 0 200 120" fill="none" xmlns="http://www.w3.org/2000/svg">
<g clip-path="url(#clip0_58_429)">
<path d="M177.567 9.05898H90.2581L70.0852 0.000274658H22.4386C16.769 0.000274658 12.1777 3.41466 12.1777 7.63087V88.6902C12.1777 92.9064 16.769 96.3208 22.4386 96.3208H112.179H177.567C183.229 96.3208 187.824 92.9064 187.824 88.6902V16.6843C187.824 12.4734 183.229 9.05898 177.567 9.05898Z" fill="#F7971D"/>
<path d="M187.824 66.2727V25.743C187.824 21.5321 183.23 18.1072 177.567 18.1072H87.8235H22.4354C16.7693 18.1072 12.178 21.5321 12.178 25.743V66.2727H187.824Z" fill="#DCE2E9"/>
<g opacity="0.5">
<path d="M177.567 9.05874H90.2581L70.0852 3.05176e-05H22.4386C16.769 3.05176e-05 12.1777 3.41441 12.1777 7.63062V11.2546C12.1777 7.03842 16.769 3.62404 22.4386 3.62404H70.0852L90.2581 12.6775H177.567C183.229 12.6775 187.824 16.0971 187.824 20.3081V16.6841C187.824 12.4731 183.229 9.05874 177.567 9.05874Z" fill="#FFC52F"/>
</g>
<path d="M189.744 23.5428H100.001H10.2608C4.5913 23.5428 0 26.9624 0 31.1733L12.1777 112.233C12.1777 116.449 16.769 119.863 22.4385 119.863H100.001H177.567C183.229 119.863 187.824 116.449 187.824 112.233L199.998 31.1733C199.998 26.9624 195.407 23.5428 189.744 23.5428Z" fill="#FFC52F"/>
<g opacity="0.5">
<path d="M10.2626 27.1664H100.003H189.746C194.605 27.1664 198.657 29.6951 199.718 33.0728L200 31.173C200 26.962 195.409 23.5424 189.746 23.5424H100.003H10.2626C4.59307 23.5424 0.00177002 26.962 0.00177002 31.173L0.287184 33.0728C1.34428 29.6951 5.39294 27.1664 10.2626 27.1664Z" fill="#FFC52F"/>
</g>
</g>
<defs>
<clipPath id="clip0_58_429">
<rect width="200" height="120" fill="white"/>
</clipPath>
</defs>
</svg>
