<svg width="100" height="100" viewBox="0 0 100 100" fill="none" xmlns="http://www.w3.org/2000/svg">
<path d="M85.4887 55.1235C80.5086 45.3781 72.9173 35.347 72.4739 33.3098C70.5591 24.481 68.87 15.2033 56.4319 9.01824C52.9477 7.28294 45.5141 5.45787 45.4407 5.49323C45.0354 5.69723 46.1261 6.6764 46.1261 6.6764C46.1261 6.6764 43.9964 6.48872 42.4923 6.36089C41.0916 6.24393 38.951 5.7489 38.4124 4C37.1776 5.03085 38.3553 6.37448 38.7225 7.11158C37.2592 6.15689 35.4885 6.07257 33.7016 6.53768C32.192 6.93207 31.4739 7.76164 31.5066 7.79428C31.7296 8.01731 34.5556 7.78884 34.5556 8.41714C33.5982 8.34642 32.4803 8.49602 31.1476 9.01824C29.7142 9.58126 29.0179 10.8379 29.0995 10.8977C29.3551 11.0881 30.1956 10.6883 30.9572 10.691C31.9363 10.6937 32.8421 11.0691 32.8149 11.1534C32.7795 11.2595 32.6109 11.2513 32.5021 11.2785C29.7087 11.9585 28.0061 13.4163 27.6579 15.2033C29.3252 13.5904 30.5764 12.9485 32.7523 12.7092C31.3216 13.6611 30.3153 15.1054 29.5183 16.566C26.6162 21.8617 26.2979 26.5726 28.6262 33.7151C28.871 34.4685 28.9009 36.0814 28.6751 37.2537C29.3606 37.1938 29.4911 35.9998 29.7849 36.5791C30.0813 37.1585 29.9181 38.4178 29.6217 39.6146C30.5057 39.7696 30.6308 38.0914 30.8919 38.6843C31.153 39.2746 30.7994 40.5801 30.628 41.0208C31.2536 41.1078 31.4658 40.1939 31.5229 40.7025C31.5474 40.9174 31.561 41.1296 31.561 41.339C27.0786 45.1033 26.094 49.1587 21.3232 56.3366C16.5307 63.5471 17.4337 67.3223 20.0204 69.2399C21.2144 70.1238 22.5581 70.6814 23.9534 71.0132C17.8988 71.016 15.3448 76.3932 16.9659 80.4486C17.363 81.4414 18.2443 82.5838 19.2561 83.106C14.3303 85.5213 9.58407 90.2838 10.0356 90.2838C18.7611 90.2838 25.6152 92.6311 29.9671 90.4552C30.9762 89.952 31.6127 88.8369 31.8058 87.6156C32.7224 87.6347 36.0026 88.1814 39.4052 88.8967C42.321 89.5087 44.1052 89.3727 46.3818 89.1578C43.4008 92.1715 40.3245 95.7617 40.4034 95.8434C40.7053 96.1425 48.5904 96.2405 53.6848 93.7789C55.7682 92.7726 56.9786 92.2259 59.7638 92.4897C66.9579 93.1724 77.533 94.1352 80.8621 91.0509C85.4806 86.7752 83.2149 82.0643 79.5158 80.4922C77.5928 79.6735 75.6372 79.2084 73.7904 78.9717C94.78 81.5203 92.2477 68.3477 85.4887 55.1235Z" fill="#CAA77A"/>
<path d="M29.3522 50.7335C28.3975 56.3393 29.6079 57.3483 29.5508 58.3602C29.4528 60.1281 28.335 61.4391 27.2878 62.8399C26.6894 63.6395 26.1128 64.4664 25.7592 65.4211C25.2669 66.7565 24.9677 69.0086 25.6368 70.4012C25.6042 70.4012 24.5842 70.7602 23.877 70.9996C22.5062 70.6678 21.1843 70.1129 20.012 69.2425C17.4254 67.325 16.5224 63.5498 21.3149 56.3393C26.1073 49.1315 26.9097 45.2284 31.4384 41.4504C31.4629 41.4994 31.5227 41.4613 31.588 41.4015C31.5798 41.7388 31.5363 42.1032 31.4574 42.5031C30.9134 45.223 29.8146 48.0054 29.3522 50.7335Z" fill="#CAA77A"/>
<path opacity="0.23" d="M34.8873 81.4442C34.5935 80.5548 34.4494 77.144 33.6143 76.8502C30.9325 75.9173 26.0231 80.9111 22.1662 80.0706C20.4418 79.6953 18.2142 78.6454 17.6104 76.8693C17.4825 76.4967 17.0881 75.5746 17.1153 75.1285C16.3592 77.0298 16.3211 79.611 17.4091 81.5013C18.2332 82.9293 19.3538 83.0217 19.2532 83.038C16.8651 84.2321 11.1207 88.2603 10.204 90.2105C11.9176 90.2921 14.6212 90.4743 15.3882 90.545C19.0574 90.8768 27.0593 92.5142 30.1818 90.4145C31.2399 89.7018 31.6805 88.7145 31.8002 87.6184C33.3233 87.6048 36.2635 88.1923 39.3996 88.8995C41.3607 89.3428 43.8956 89.5985 46.3762 89.1606C49.0417 86.4624 52.3518 83.4107 57.1416 81.4387C50.3962 83.2937 48.65 85.8885 47.0643 86.3618C44.0507 87.2648 36.6171 86.6664 34.8873 81.4442Z" fill="#3F2719"/>
<path d="M54.6746 93.3139C54.3591 93.4553 54.03 93.6131 53.6764 93.7844C48.5847 96.2459 40.697 96.148 40.3951 95.8461C40.2917 95.7428 46.0498 89.1578 49.2212 86.4624L49.3327 86.6474C50.1569 88.1596 51.7997 91.6846 54.6746 93.3139Z" fill="#B6B1AE"/>
<path d="M41.7904 70.7901C38.8937 71.2417 37.8547 70.801 36.1357 70.5617C36.6062 69.1011 36.5899 66.9741 36.1031 65.6577C37.7432 65.0783 40.0633 66.2561 42.6825 66.2588C44.6817 66.2615 46.1151 65.4945 46.2701 66.3567C46.3272 66.6749 44.8857 70.3033 41.7904 70.7901Z" fill="#B6B1AE"/>
<path d="M59.9785 70.0232C59.0891 71.2091 58.2976 72.7268 58.2432 74.609C56.5487 74.2363 55.4199 74.288 52.8604 72.8546C50.1297 71.3233 50.0399 67.4202 50.2058 67.1401C50.6492 66.3894 51.7262 67.6025 53.6003 68.2988C56.0591 69.2072 58.7001 68.8427 59.9785 70.0232Z" fill="#B6B1AE"/>
<path d="M84.3815 53.0129C81.1747 47.1242 77.2744 41.3499 74.8292 37.5175C74.4973 38.5484 74.4647 38.5484 74.7965 37.5175C74.7965 37.5148 74.7965 37.5148 74.7993 37.5121C75.2072 36.2473 74.9298 35.4857 74.5653 34.9472C73.7059 33.6797 72.6451 32.4068 72.4574 33.3016C72.4574 33.3044 72.4547 33.3098 72.4547 33.3125C70.1808 45.2475 57.196 48.3265 47.5049 48.321C39.0596 48.3183 34.5663 46.2838 31.2779 43.2701L31.2752 43.2674C31.3378 43.0117 31.3921 42.7561 31.4438 42.5031C31.5091 42.1414 31.5417 41.7851 31.5417 41.4288C31.4901 41.4723 31.4438 41.4913 31.4248 41.4505C31.3568 41.5076 31.2888 41.5647 31.2208 41.6219C31.1882 41.6491 31.1582 41.6763 31.1283 41.7035C27.9243 44.5485 26.5616 47.6057 23.9532 52.0827C23.9477 52.0799 23.945 52.0772 23.9396 52.0745C23.6268 51.9059 22.9822 52.5695 22.7238 52.9394C22.5144 53.2386 22.1091 53.9567 22.5225 54.4C23.7247 55.692 26.7629 57.8978 28.8137 60.6449C28.8191 60.6368 28.8246 60.6259 28.83 60.6177C28.8382 60.6041 28.8463 60.5905 28.8545 60.5742C28.8681 60.5525 28.8789 60.5307 28.8898 60.5062C28.9252 60.4464 28.9578 60.3866 28.985 60.324C29.0095 60.2778 29.0313 60.2315 29.053 60.1853C29.0775 60.139 29.0993 60.0901 29.1183 60.0438C29.1428 59.9949 29.1618 59.9486 29.1809 59.8997C29.1999 59.8507 29.2189 59.8045 29.2353 59.7555C29.2489 59.7202 29.2625 59.6875 29.2733 59.6522C29.2978 59.5896 29.3196 59.5243 29.3386 59.4591C29.3604 59.3883 29.3821 59.3176 29.3985 59.2442C29.4066 59.2143 29.4148 59.1871 29.4202 59.1571C29.4393 59.081 29.4556 59.0021 29.4692 58.9232C29.4855 58.8471 29.4964 58.7682 29.5072 58.6866C29.51 58.6676 29.5127 58.6458 29.5154 58.624C29.5236 58.537 29.5317 58.45 29.5372 58.3602C29.548 58.1535 29.5072 57.9495 29.4447 57.7047C29.442 57.6993 29.442 57.6966 29.4393 57.6911C29.4202 57.6177 29.3985 57.5415 29.3767 57.4599C29.3549 57.381 29.3305 57.2967 29.306 57.2097C29.3033 57.1934 29.2978 57.1771 29.2924 57.158C29.2706 57.071 29.2461 56.9758 29.2217 56.8751C29.2081 56.8262 29.1972 56.7718 29.1863 56.7201C29.1863 56.7147 29.1863 56.7092 29.1836 56.7038C29.17 56.6439 29.1591 56.5841 29.1455 56.5188C29.1101 56.3284 29.0748 56.1217 29.0476 55.8878C29.0285 55.7328 29.0122 55.5696 29.0013 55.3928C28.9905 55.2568 28.985 55.1126 28.9796 54.963C28.9769 54.8923 28.9741 54.8216 28.9741 54.7482C28.9687 54.5578 28.9714 54.3538 28.9769 54.1389C28.9769 54.0247 28.9823 53.905 28.9877 53.7826C28.9932 53.701 28.9959 53.6167 29.0013 53.5324C29.0095 53.3909 29.0204 53.2441 29.034 53.0917C29.0557 52.8279 29.0884 52.8279 29.0666 53.0917C29.053 53.2441 29.0449 53.3909 29.034 53.5324C29.0285 53.6167 29.0258 53.701 29.0204 53.7826C29.0149 53.905 29.0122 54.022 29.0095 54.1389C29.0041 54.3538 29.0013 54.5578 29.0068 54.7482C29.0068 54.8216 29.0095 54.8923 29.0122 54.963C29.0177 55.1126 29.0231 55.2568 29.034 55.3928C29.0476 55.5669 29.0612 55.7328 29.0802 55.8878C29.1074 56.1217 29.1428 56.3284 29.1781 56.5188C29.1917 56.5841 29.2026 56.6439 29.2162 56.7038C29.2189 56.7092 29.2189 56.7147 29.2189 56.7201C29.2325 56.7745 29.2434 56.8235 29.2543 56.8751C29.2788 56.9758 29.3033 57.071 29.325 57.158C29.3305 57.1771 29.3359 57.1934 29.3386 57.2097C29.3631 57.2967 29.3876 57.381 29.4093 57.4599C29.4311 57.5415 29.4529 57.6177 29.4719 57.6911C29.4746 57.6966 29.4746 57.6993 29.4773 57.7047C29.5399 57.9495 29.5807 58.1535 29.5698 58.3602C29.5644 58.45 29.5562 58.537 29.548 58.624C29.5453 58.6458 29.5426 58.6676 29.5399 58.6866C29.529 58.7682 29.5181 58.8471 29.5018 58.9232C29.4882 59.0021 29.4719 59.081 29.4529 59.1571C29.4474 59.1871 29.4393 59.2143 29.4311 59.2442C29.4148 59.3176 29.393 59.3883 29.3713 59.4591C29.3522 59.5243 29.3305 59.5896 29.306 59.6522C29.2951 59.6875 29.2842 59.7202 29.2679 59.7555C29.2516 59.8045 29.2325 59.8507 29.2135 59.8997C29.1945 59.9486 29.1754 59.9949 29.1509 60.0438C29.1319 60.0901 29.1101 60.139 29.0857 60.1853C29.0666 60.2315 29.0449 60.2778 29.0177 60.324C28.9905 60.3866 28.9578 60.4464 28.9225 60.5062C28.9116 60.5307 28.9007 60.5525 28.8871 60.5742C28.8789 60.5905 28.8708 60.6041 28.8626 60.6177C28.8572 60.6286 28.8545 60.6368 28.849 60.6449H28.8463C28.8273 60.6857 28.8028 60.7265 28.7783 60.7646C28.7321 60.8462 28.6831 60.9251 28.6314 61.0067C28.5199 61.1862 28.4002 61.363 28.2751 61.5371C28.2153 61.6241 28.1527 61.7112 28.0875 61.7982C27.9651 61.9695 27.8345 62.1382 27.7067 62.3095C27.5734 62.4863 27.4401 62.6631 27.3068 62.8399C29.0693 64.7547 33.171 66.6968 36.103 65.6605C37.7431 65.0811 40.0632 66.2588 42.6825 66.2616C44.6817 66.2643 46.115 65.4973 46.2701 66.3595C46.3272 66.6777 44.8856 70.3061 41.7904 70.7929C38.8937 71.2444 37.8547 70.8038 36.1357 70.5645C35.045 70.4149 30.2307 71.8918 25.528 71.2961C29.0394 71.8347 31.8165 73.2191 33.4185 75.1312C33.4212 75.1339 33.4212 75.1339 33.4239 75.1366C35.9888 78.0252 37.6779 81.4713 43.5556 81.9827C49.3517 82.4886 52.2376 82.1867 55.7789 80.9355C59.2686 79.7061 63.7754 77.7015 73.3767 78.9228C65.9731 77.9409 59.7309 74.9435 58.2431 74.6117C56.5486 74.2391 55.4199 74.2908 52.8604 72.8574C50.1296 71.326 50.0399 67.423 50.2058 67.1428C50.6491 66.3921 51.7262 67.6052 53.6003 68.3015C56.0591 69.2099 58.7001 68.8455 59.9784 70.0259C63.4871 73.2681 72.0413 71.3614 73.5236 68.7911C74.2607 67.5127 73.9071 65.8209 73.0068 63.8463C72.9198 64.0176 72.8164 64.0829 72.7049 64.0775C72.8056 64.0693 72.898 64.0013 72.9742 63.8463V63.8436C75.8981 57.7455 84.2618 55.7736 85.6164 55.42C85.6191 55.42 85.6191 55.42 85.6218 55.4173C86.7642 55.0854 85.3933 53.089 84.3815 53.0129Z" fill="#FFDB1F"/>
<path d="M29.1455 22.849C29.7738 20.295 30.9053 19.2805 33.19 18.8589C35.8746 18.3638 36.7232 14.2976 39.318 14.1915C39.7994 14.1725 40.9227 13.9304 41.1594 13.4789C41.8937 12.0808 40.2047 11.4879 41.0451 11.6457C41.8856 11.8061 47.2656 13.6747 49.0988 13.876C54.3781 14.458 59.3066 15.4671 62.44 21.1436C63.1444 22.4192 64.8417 26.6297 64.1046 29.8881C63.0329 34.6344 62.4753 36.6253 57.3238 40.183C51.204 44.407 34.9199 43.1477 31.1664 36.2418C31.2643 30.8591 27.9732 27.6143 29.1455 22.849Z" fill="#FFDBAF"/>
<path d="M43.8249 29.4366C41.6898 28.3704 39.2663 32.5944 39.1657 35.5727C38.959 41.6817 47.2656 43.1722 51.9248 40.1204C56.7798 36.9409 50.9212 27.5871 47.2112 29.0721" fill="#9D7B51"/>
<path d="M29.1129 21.6795C27.0893 26.0558 29.6868 34.8575 31.4248 36.5792C33.4702 35.9291 35.113 35.0751 36.4213 34.0768C44.8285 27.6769 39.5247 15.4645 38.9508 14.8906C38.5782 14.5179 34.093 15.2034 30.8917 18.9215C30.1736 19.7565 29.5263 20.7846 29.1129 21.6795Z" fill="#9D7B51"/>
<path d="M49.9257 14.6593C46.0987 33.133 61.1779 37.0061 62.6685 34.8465C63.6231 33.4621 65.508 26.9724 63.0084 22.5988C62.7637 22.1717 61.4064 19.5253 58.9123 17.3765C55.7735 14.6702 50.252 12.7091 49.9257 14.6593Z" fill="#9D7B51"/>
<path d="M34.9281 42.3617L34.9172 44.1324" stroke="#9D7B51" stroke-width="1.05261" stroke-miterlimit="10" stroke-linecap="round" stroke-linejoin="round"/>
<path d="M36.6688 43.2673L36.6579 45.038" stroke="#9D7B51" stroke-width="1.05261" stroke-miterlimit="10" stroke-linecap="round" stroke-linejoin="round"/>
<path d="M48.5902 13.7863C59.1326 13.8923 64.3222 24.5027 64.3222 24.5027" stroke="#2D1F04" stroke-width="2.06713" stroke-miterlimit="10" stroke-linecap="round" stroke-linejoin="round"/>
<path d="M39.5573 14.6893C28.5934 15.8616 26.529 28.2835 26.529 28.2835" stroke="#2D1F04" stroke-width="2.06713" stroke-miterlimit="10" stroke-linecap="round" stroke-linejoin="round"/>
<path d="M42.3181 29.6107C42.2773 28.8083 43.8548 28.0794 45.8376 27.9815C47.8205 27.8835 49.4606 28.4574 49.5014 29.2598C49.5422 30.0622 47.9646 30.7911 45.9818 30.889C43.999 30.987 42.3589 30.4131 42.3181 29.6107Z" fill="#251707"/>
<path d="M18.4698 83.5846C17.1289 84.9256 13.4326 86.6255 11.7789 88.1024C11.311 88.5213 10.1496 89.5032 10.2067 90.2104C10.2231 90.4334 10.3917 90.3382 10.5087 90.3246C11.8142 90.1777 13.7807 90.0417 15.0727 90.2593C16.3592 90.4742 21.7093 91.9892 22.547 91.195C22.9142 90.8441 22.7809 90.2376 22.7156 89.8133C22.3512 87.4877 20.8579 85.9537 19.2831 84.3C19.0573 84.0606 18.6874 83.3671 18.4698 83.5846Z" fill="#D2D2D2"/>
<path opacity="0.23" d="M65.0511 61.7057C63.8543 61.8689 63.498 64.9968 57.0273 63.8544C53.2031 63.1799 50.7498 61.4609 48.4433 60.906C46.708 60.4899 46.0008 61.3167 43.2238 61.3494C41.0968 61.3766 38.2626 61.0937 36.1765 60.4926C33.0105 59.5787 30.9162 58.3004 30.5272 59.1952C29.6813 61.1508 35.763 62.4564 41.3606 62.6223C44.6436 62.7175 47.2438 61.6921 48.0951 62.0212C51.8051 63.4573 56.1542 66.0983 60.7101 65.6795C63.2559 65.4456 67.382 61.3847 65.0511 61.7057Z" fill="#3F2719"/>
<path d="M46.1531 35.4014C44.1622 35.4014 41.4695 37.0197 42.5737 38.0805C43.6318 39.095 44.5321 36.5954 46.4224 36.5954C48.3128 36.5954 48.582 38.7795 49.8658 37.833C51.1496 36.8864 49.058 35.4014 46.1531 35.4014Z" fill="#2D1F04"/>
<path d="M70.121 82.6517L70.1074 84.4197" stroke="#9D7B51" stroke-width="1.05261" stroke-miterlimit="10" stroke-linecap="round" stroke-linejoin="round"/>
<path d="M71.8591 83.5575L71.8482 85.3254" stroke="#9D7B51" stroke-width="1.05261" stroke-miterlimit="10" stroke-linecap="round" stroke-linejoin="round"/>
<path d="M80.7368 60.9713L80.726 62.742" stroke="#9D7B51" stroke-width="1.05261" stroke-miterlimit="10" stroke-linecap="round" stroke-linejoin="round"/>
<path d="M82.4748 61.8771L82.464 63.6477" stroke="#9D7B51" stroke-width="1.05261" stroke-miterlimit="10" stroke-linecap="round" stroke-linejoin="round"/>
<path opacity="0.23" d="M80.8484 91.0563C80.6253 91.2603 80.3724 91.4479 80.0895 91.6193C79.0995 92.2177 77.7558 92.6121 76.1891 92.8541C73.4475 93.2812 70.0313 93.2485 66.6613 93.0554C66.6586 93.0581 66.6558 93.0581 66.6558 93.0554C65.693 92.9983 64.7329 92.9303 63.7945 92.8541C63.7918 92.8569 63.7891 92.8569 63.7863 92.8541C63.3185 92.8161 62.8561 92.7753 62.4019 92.7372H62.3937C61.9368 92.6964 61.4907 92.6556 61.0501 92.6148C60.6068 92.574 60.1716 92.5332 59.75 92.4924C58.5614 92.3809 57.6584 92.4162 56.8506 92.574C55.7708 92.7807 54.8623 93.205 53.6683 93.7816C52.1805 94.4997 50.456 95.0029 48.7507 95.3429C45.038 96.0854 41.4205 96.0718 40.5691 95.9059C40.4767 95.8868 40.4196 95.8678 40.3978 95.8461C40.3815 95.8297 40.4848 95.6856 40.6752 95.4381C40.6807 95.4299 40.6861 95.4245 40.6943 95.4163C40.7269 95.3782 40.7623 95.3347 40.7976 95.2885C40.9989 95.0437 41.2682 94.7254 41.5864 94.3528C41.6734 94.2522 41.7659 94.1488 41.8584 94.04C41.9373 93.9503 42.0189 93.8578 42.1005 93.7626H42.1032C45.5711 93.8741 49.5938 92.302 52.7897 90.4035C55.9829 88.505 58.7164 88.2276 62.187 88.8994C65.6604 89.5685 72.743 90.2648 77.0024 88.0209C79.6353 86.6364 79.5482 83.5357 77.6035 81.678C75.8546 80.008 71.2199 79.1811 65.742 79.1811C67.5561 78.8547 70.5317 78.5501 73.8527 78.9826C73.986 79.0016 74.122 79.0207 74.258 79.0397C74.4484 79.0696 74.6388 79.0995 74.8292 79.1322C74.8319 79.1322 74.8319 79.1322 74.8346 79.1322C75.1882 79.1947 75.5418 79.2654 75.9008 79.3443C76.026 79.3742 76.1511 79.4042 76.2762 79.4314C76.4639 79.4776 76.6515 79.5266 76.8392 79.5755C77.2363 79.6843 77.6361 79.804 78.0332 79.9373C78.1312 79.9699 78.2291 80.0053 78.327 80.0379C78.4249 80.0733 78.5228 80.1086 78.6208 80.144C78.7187 80.1821 78.8166 80.2174 78.9145 80.2555C79.1103 80.3317 79.3062 80.4105 79.502 80.4949C83.2011 82.0697 85.4668 86.7779 80.8484 91.0563Z" fill="#3F2719"/>
<path opacity="0.23" d="M85.8639 55.3356C85.8612 55.3356 85.8585 55.3383 85.8557 55.3383C85.853 55.341 85.853 55.341 85.8503 55.341C85.2982 55.4852 83.5819 55.8986 81.542 56.7499C83.6281 56.3501 84.7378 58.2024 86.5683 64.2923C87.5666 67.6105 87.6672 70.0258 87.1123 71.5599C86.3372 73.7032 83.1413 75.1311 79.5075 75.5418C74.8782 76.0668 70.4801 75.705 66.7538 75.0522C63.9604 74.5654 62.5352 74.2852 58.3737 73.064C54.215 71.8427 50.9783 69.1636 50.4397 67.0638C50.2738 67.344 50.3636 71.2471 53.0944 72.7784C55.6538 74.2118 56.7826 74.1601 58.4771 74.5327C59.9649 74.8646 66.2071 77.8619 73.6107 78.8438C73.7086 78.8574 73.8337 78.8737 74.0214 78.8982C94.8586 81.425 92.5141 68.4619 85.8639 55.3356Z" fill="#3F2719"/>
<path opacity="0.23" d="M26.6133 61.8961C27.2144 60.8653 29.3087 58.6567 28.3649 55.7328C28.6451 56.0782 29.1482 56.7337 29.2598 57.0329C29.3713 57.3321 29.6079 58.0039 29.5209 58.5506C29.4311 59.0973 29.1618 60.1907 28.7185 60.8625C28.2751 61.5344 27.7121 62.3095 27.3069 62.8372C27.0784 62.6033 26.869 62.2878 26.6133 61.8961Z" fill="#3F2719"/>
<path opacity="0.23" d="M41.7714 70.7902C38.8746 71.2417 37.8356 70.8011 36.1139 70.5618C34.5772 70.3496 25.6069 73.3878 20.012 69.2399C17.6022 67.4529 16.6529 64.053 20.4146 57.7618C18.7799 61.2461 17.8932 63.781 20.2296 66.0385C21.9296 67.6814 24.3938 68.9897 28.5145 69.0576C32.6324 69.1284 35.4476 68.6089 39.1276 68.5028C42.7233 68.4021 44.8041 67.4692 46.1559 66.1337C46.2021 66.1909 46.232 66.2643 46.2483 66.3568C46.3055 66.675 44.8639 70.3034 41.7714 70.7902Z" fill="#3F2719"/>
<path opacity="0.23" d="M72.4683 33.3017C72.4656 33.3071 72.4629 33.3125 72.4629 33.318C71.7421 37.1014 69.9469 39.9954 67.5181 42.1822C69.2262 28.9199 64.2514 19.1499 58.4635 14.6947C54.5985 11.7191 50.5621 10.487 46.8957 10.2341C46.4958 10.2069 45.0271 10.0246 45.2093 9.53777C44.5457 9.52961 44.3988 10.1987 43.7678 10.2477C43.1286 10.2966 42.4758 9.06994 41.1267 9.46161C41.7306 9.68736 41.2437 10.4217 40.5229 10.7427C39.9327 11.0065 38.8474 10.8542 38.8366 10.264C38.3851 10.7345 38.7822 11.2051 38.4531 11.3111C38.0369 11.4444 36.6606 10.2885 35.8501 11.2024C36.8809 11.2595 36.5845 12.0047 36.269 12.1462C33.6796 13.2967 31.6315 14.8226 29.5209 16.5633C30.3178 15.1054 31.3214 13.6666 32.7494 12.7173C30.5735 12.9567 29.3223 13.5986 27.655 15.2115C28.0031 13.4245 29.7058 11.9666 32.4992 11.2867C32.608 11.2595 32.7766 11.2676 32.812 11.1616C32.8392 11.0772 31.9334 10.7019 30.9543 10.6992C30.1927 10.6964 29.3522 11.0963 29.0966 10.9059C29.015 10.846 29.7113 9.58944 31.1446 9.02642C32.4774 8.5042 33.5953 8.3546 34.5527 8.42532C34.5527 7.79702 31.7267 8.02549 31.5037 7.80246C31.471 7.76982 32.1891 6.94025 33.6986 6.54586C35.4856 6.08075 37.2563 6.16507 38.7196 7.11976C38.3524 6.38266 37.1747 5.03903 38.4095 4.00818C38.9481 5.75708 41.0887 6.25211 42.4894 6.36906C43.9935 6.4969 46.1232 6.68457 46.1232 6.68457C46.1232 6.68457 45.0325 5.70541 45.4378 5.50141C45.5112 5.46605 52.9448 7.29112 56.429 9.02642C68.859 15.2088 70.5535 24.4783 72.4683 33.3017Z" fill="#3F2719"/>
<path opacity="0.23" d="M74.802 37.5094C74.7993 37.5121 74.7993 37.5121 74.7993 37.5148C74.6198 38.0751 73.7793 41.1514 70.5127 44.2575C70.8908 42.3699 70.3577 41.2221 68.7203 40.9637C70.5345 38.9509 71.8618 36.435 72.4574 33.3098C72.4574 33.3071 72.4602 33.3017 72.4602 33.299C72.6478 32.4041 73.7086 33.677 74.5681 34.9445C74.9326 35.4831 75.21 36.2446 74.802 37.5094Z" fill="#3F2719"/>
<path opacity="0.23" d="M85.6245 55.3683C85.6218 55.371 85.6218 55.371 85.6191 55.371C85.0343 55.5233 83.2065 56.0346 80.9789 56.9703C80.9871 55.4444 80.4758 54.6121 79.3388 54.5169C79.2491 54.555 79.0723 54.6339 79.007 54.6638C76.7576 49.534 74.2308 46.4442 71.6034 43.1123C73.9996 40.4087 74.6742 37.9608 74.8319 37.4685C77.2744 41.3009 81.1775 47.078 84.3816 52.9639C85.3934 53.04 86.7642 55.0364 85.6245 55.3683Z" fill="#3F2719"/>
<path opacity="0.23" d="M67.5099 54.275C68.1028 56.6767 70.48 63.2426 71.4211 66.0387C72.4139 68.9952 70.684 71.3887 66.6586 71.6825C69.0467 71.4214 70.548 71.0134 71.6061 70.3633C72.6614 69.7133 73.6406 69.1122 73.782 68.1248C73.9235 67.1375 73.9615 66.4847 73.7086 65.7231C73.4556 64.9616 73.1592 64.1102 73.0476 63.928C72.9361 63.7458 72.8654 64.1701 72.52 64.1211C72.1718 64.0722 71.8291 63.8083 71.636 62.9624C71.4429 62.1165 71.4103 61.7765 71.4891 61.2761C71.568 60.7756 71.4021 60.675 71.0811 60.1636C70.7602 59.6523 68.6332 56.217 67.5099 54.275Z" fill="#3F2719"/>
<path opacity="0.23" d="M50.388 69.3867C50.6192 71.9407 51.9411 73.5482 54.1986 74.609C56.4562 75.6697 57.6176 75.3542 59.9784 76.2572C62.3393 77.1602 63.4654 77.9925 63.7564 78.7813C64.6268 78.6834 68.4646 78.3298 72.335 78.7677C68.8291 78.1204 66.6069 77.5709 64.1916 76.7223C61.7763 75.8764 59.6276 75.1176 58.8116 74.8401C57.9956 74.5627 56.1379 74.3886 54.3509 73.5727C52.564 72.7567 51.2176 71.9897 50.388 69.3867Z" fill="#3F2719"/>
<path opacity="0.23" d="M47.1921 79.2926C45.6608 79.5537 42.8756 80.0786 40.7731 79.4014C37.4712 78.3379 37.4712 75.1284 33.0758 72.0059C31.7893 72.3187 30.6632 72.8083 31.4792 73.4312C29.1645 72.0195 27.1273 71.6088 25.8272 71.258C27.1654 71.3858 27.4238 71.3504 30.2008 71.258C32.9779 71.1655 34.9933 70.4991 36.0024 70.5508C37.0115 70.6052 37.5283 71.1247 40.3951 70.9968C43.2646 70.8717 44.1594 69.7538 45.378 68.2416C44.0588 71.1383 42.0406 71.6986 40.2156 71.8455C38.3905 71.9923 36.5219 71.4892 35.2 71.6333C34.7322 71.685 33.9625 71.7992 33.2227 71.9706C36.016 73.2299 37.6534 76.0042 41.1702 77.8075C42.7097 78.599 44.8258 78.8329 47.1921 79.2926Z" fill="#3F2719"/>
<path opacity="0.23" d="M18.4699 83.5846C16.2912 84.6237 13.4625 86.7914 11.8115 88.2683C11.3437 88.6872 10.2068 89.8649 10.2068 90.2104C10.2068 90.4361 10.3917 90.3382 10.5087 90.3246C11.8142 90.1777 13.7807 90.0417 15.0727 90.2593C16.3592 90.4742 21.7093 91.9892 22.547 91.195C22.9142 90.8441 22.7809 90.2376 22.7156 89.8133C22.3512 87.4877 20.8579 85.9537 19.2831 84.3C19.0574 84.0606 18.6874 83.3671 18.4699 83.5846Z" fill="#3F2719"/>
<path d="M79.9209 54.2749C76.4094 55.6729 73.4039 57.9495 71.6061 61.0175C71.1655 61.7111 71.6278 63.0194 71.8182 63.4519C72.0086 63.8871 72.6179 64.4773 73.0096 63.8435M83.3806 56.0591C84.4522 55.7083 85.2682 55.5097 85.6191 55.4172C85.6218 55.4172 85.6218 55.4172 85.6245 55.4145C86.3344 55.2296 86.1223 54.691 85.7932 54.1987C85.5048 53.7635 84.9228 52.934 84.3706 53.0183M28.8137 60.6422C28.8191 60.634 28.8246 60.6232 28.83 60.615C28.8382 60.6014 28.8463 60.5878 28.8545 60.5715C28.8681 60.5497 28.8789 60.528 28.8898 60.5035C28.9252 60.4436 28.9578 60.3838 28.985 60.3213C29.0095 60.275 29.0313 60.2288 29.053 60.1825C29.0775 60.1363 29.0993 60.0873 29.1183 60.0411C29.1428 59.9921 29.1618 59.9459 29.1809 59.8969C29.1999 59.848 29.2189 59.8017 29.2353 59.7528C29.2489 59.7174 29.2625 59.6848 29.2733 59.6494C29.2978 59.5869 29.3196 59.5216 29.3386 59.4563C29.3604 59.3856 29.3821 59.3149 29.3985 59.2414C29.4066 59.2115 29.4148 59.1843 29.4202 59.1544C29.4393 59.0783 29.4556 58.9994 29.4692 58.9205C29.4855 58.8443 29.4964 58.7655 29.5072 58.6839C29.51 58.6648 29.5127 58.6431 29.5154 58.6213C29.5236 58.5343 29.5317 58.4472 29.5372 58.3575C29.548 58.1508 29.5072 57.9468 29.4447 57.702C29.442 57.6965 29.442 57.6938 29.4393 57.6884C29.4202 57.6149 29.3985 57.5388 29.3767 57.4572C29.3549 57.3783 29.3305 57.294 29.306 57.2069C29.3033 57.1906 29.2978 57.1743 29.2924 57.1553C29.2706 57.0682 29.2461 56.973 29.2217 56.8724C29.2081 56.8234 29.1972 56.769 29.1863 56.7174C29.1863 56.7119 29.1863 56.7065 29.1836 56.701C29.17 56.6412 29.1591 56.5814 29.1455 56.5161C29.1101 56.3257 29.0748 56.119 29.0476 55.8851C29.0285 55.73 29.0122 55.5668 29.0013 55.39C28.9905 55.2541 28.985 55.1099 28.9796 54.9603C28.9769 54.8896 28.9741 54.8189 28.9741 54.7454C28.9687 54.555 28.9714 54.351 28.9769 54.1362C28.9769 54.0219 28.9823 53.9023 28.9877 53.7799C28.9932 53.6983 28.9959 53.6139 29.0013 53.5296C29.0095 53.3882 29.0204 53.2413 29.034 53.089C29.0557 52.8252 30.1029 47.4996 30.5735 45.8812C30.5816 45.8894 29.0884 52.8252 29.0666 53.089C29.053 53.2413 29.0449 53.3882 29.034 53.5296C29.0285 53.6139 29.0258 53.6983 29.0204 53.7799C29.0149 53.9023 29.0122 54.0192 29.0095 54.1362C29.0041 54.351 29.0013 54.555 29.0068 54.7454C29.0068 54.8189 29.0095 54.8896 29.0122 54.9603C29.0177 55.1099 29.0231 55.2541 29.034 55.39C29.0476 55.5641 29.0612 55.73 29.0802 55.8851C29.1074 56.119 29.1428 56.3257 29.1781 56.5161C29.1917 56.5814 29.2026 56.6412 29.2162 56.701C29.2189 56.7065 29.2189 56.7119 29.2189 56.7174C29.2325 56.7718 29.2434 56.8207 29.2543 56.8724C29.2788 56.973 29.3033 57.0682 29.325 57.1553C29.3305 57.1743 29.3359 57.1906 29.3386 57.2069C29.3631 57.294 29.3876 57.3783 29.4093 57.4572C29.4311 57.5388 29.4529 57.6149 29.4719 57.6884C29.4746 57.6938 29.4746 57.6965 29.4773 57.702C29.5399 57.9468 29.5807 58.1508 29.5698 58.3575C29.5644 58.4472 29.5562 58.5343 29.548 58.6213C29.5453 58.6431 29.5426 58.6648 29.5399 58.6839C29.529 58.7655 29.5181 58.8443 29.5018 58.9205C29.4882 58.9994 29.4719 59.0783 29.4529 59.1544C29.4474 59.1843 29.4393 59.2115 29.4311 59.2414C29.4148 59.3149 29.393 59.3856 29.3713 59.4563C29.3522 59.5216 29.3305 59.5869 29.306 59.6494C29.2951 59.6848 29.2842 59.7174 29.2679 59.7528C29.2516 59.8017 29.2325 59.848 29.2135 59.8969C29.1945 59.9459 29.1754 59.9921 29.1509 60.0411C29.1319 60.0873 29.1101 60.1363 29.0857 60.1825C29.0666 60.2288 29.0449 60.275 29.0177 60.3213C28.9905 60.3838 28.9578 60.4436 28.9225 60.5035C28.9116 60.528 28.9007 60.5497 28.8871 60.5715C28.8789 60.5878 28.8708 60.6014 28.8626 60.615C28.8572 60.6259 28.8545 60.634 28.849 60.6422H28.8463C28.8273 60.683 28.8028 60.7238 28.7783 60.7619C28.7321 60.8435 28.6831 60.9224 28.6314 61.004C28.5199 61.1835 28.4002 61.3603 28.2751 61.5343C28.2153 61.6214 28.1527 61.7084 28.0875 61.7954C27.9651 61.9668 27.8345 62.1354 27.7067 62.3068C27.5734 62.4836 27.4401 62.6604 27.3068 62.8372C29.0693 64.752 33.171 66.694 36.103 65.6577C37.7431 65.0784 40.0632 66.2561 42.6825 66.2588C44.6817 66.2615 46.115 65.4945 46.2701 66.3567C46.3272 66.675 44.8856 70.3033 41.7904 70.7902C38.8937 71.2417 37.8547 70.8011 36.1357 70.5617C35.045 70.4121 30.2307 71.889 25.528 71.2934C29.0394 71.8319 31.8165 73.2164 33.4185 75.1285C33.4212 75.1312 33.4212 75.1312 33.4239 75.1339C35.9888 78.0225 37.6779 81.4686 43.5556 81.9799C49.3517 82.4858 52.2376 82.1839 55.7789 80.9328C59.2686 79.7034 63.7754 77.6988 73.3767 78.92C65.9731 77.9381 59.7309 74.9408 58.2431 74.609C56.5486 74.2363 55.4199 74.288 52.8604 72.8546C50.1296 71.3233 50.0399 67.4202 50.2058 67.1401C50.6491 66.3894 51.7262 67.6025 53.6003 68.2988C56.0591 69.2072 58.7001 68.8427 59.9784 70.0232C63.4871 73.2653 72.0413 71.3587 73.5236 68.7883C74.2607 67.51 73.9071 65.8182 73.0068 63.8435M23.9532 52.0799C23.9477 52.0772 23.945 52.0745 23.9396 52.0717C23.6268 51.9031 22.9822 52.5668 22.7238 52.9367C22.5144 53.2359 22.1091 53.9539 22.5225 54.3973" stroke="#2D1F04" stroke-width="0.712618" stroke-miterlimit="10" stroke-linecap="round" stroke-linejoin="round"/>
<path d="M72.7539 59.3556C72.8219 60.1008 73.1701 60.4844 73.5862 60.7101" stroke="#2D1F04" stroke-width="0.712618" stroke-miterlimit="10" stroke-linecap="round" stroke-linejoin="round"/>
<path d="M74.1438 57.8651C74.2308 58.42 74.666 58.9558 75.0468 59.1979" stroke="#2D1F04" stroke-width="0.712618" stroke-miterlimit="10" stroke-linecap="round" stroke-linejoin="round"/>
<path d="M76.0232 56.3502C76.1946 56.9432 76.627 57.3185 77.0432 57.6095" stroke="#2D1F04" stroke-width="0.712618" stroke-miterlimit="10" stroke-linecap="round" stroke-linejoin="round"/>
<path d="M33.6986 45.125C33.3043 45.5194 33.1302 45.9573 33.0268 46.4442" stroke="#2D1F04" stroke-width="0.712618" stroke-miterlimit="10" stroke-linecap="round" stroke-linejoin="round"/>
<path d="M36.6688 46.6699C36.4675 47.0888 36.3288 47.6464 36.2826 48.1305" stroke="#2D1F04" stroke-width="0.712618" stroke-miterlimit="10" stroke-linecap="round" stroke-linejoin="round"/>
<path d="M41.4395 47.8859C41.2437 48.4706 41.2437 48.9575 41.2437 49.3737" stroke="#2D1F04" stroke-width="0.712618" stroke-miterlimit="10" stroke-linecap="round" stroke-linejoin="round"/>
<path d="M43.3951 48.1333C43.3108 48.5386 43.2238 49.2512 43.2755 49.8768" stroke="#2D1F04" stroke-width="0.712618" stroke-miterlimit="10" stroke-linecap="round" stroke-linejoin="round"/>
<path d="M45.3372 48.2693C45.2528 48.6256 45.2012 49.3709 45.2365 49.874" stroke="#2D1F04" stroke-width="0.712618" stroke-miterlimit="10" stroke-linecap="round" stroke-linejoin="round"/>
<path d="M55.1968 47.6519C55.3655 48.019 55.5042 48.5576 55.5259 49.0064" stroke="#2D1F04" stroke-width="0.712618" stroke-miterlimit="10" stroke-linecap="round" stroke-linejoin="round"/>
<path d="M57.3238 47.2004C57.4707 47.5105 57.6339 48.0654 57.6557 48.4815" stroke="#2D1F04" stroke-width="0.712618" stroke-miterlimit="10" stroke-linecap="round" stroke-linejoin="round"/>
<path d="M68.2116 41.5131C68.6468 41.8313 68.9814 42.1278 69.2289 42.4487" stroke="#2D1F04" stroke-width="0.712618" stroke-miterlimit="10" stroke-linecap="round" stroke-linejoin="round"/>
<path d="M69.2289 40.3815C69.5798 40.5827 70.0204 40.8738 70.4066 41.2301" stroke="#2D1F04" stroke-width="0.712618" stroke-miterlimit="10" stroke-linecap="round" stroke-linejoin="round"/>
<path d="M69.9769 39.3562C70.4121 39.5466 70.7221 39.7207 70.9832 39.9301" stroke="#2D1F04" stroke-width="0.712618" stroke-miterlimit="10" stroke-linecap="round" stroke-linejoin="round"/>
<path d="M27.8046 55.0936C28.3268 55.6539 28.8137 56.255 29.2244 56.8725" stroke="#2D1F04" stroke-width="0.712618" stroke-miterlimit="10" stroke-linecap="round" stroke-linejoin="round"/>
<path d="M46.3789 89.1605C43.5964 89.5168 41.2954 89.3074 39.4023 88.8994C36.2091 88.2113 33.4103 87.6346 31.9253 87.6346" stroke="#2D1F04" stroke-width="0.712618" stroke-miterlimit="10" stroke-linecap="round" stroke-linejoin="round"/>
<path d="M33.3994 75.1312C35.967 78.0198 37.6534 81.4686 43.5366 81.9827C49.3327 82.4886 52.2158 82.1867 55.7599 80.9355C59.3012 79.6844 63.887 77.639 73.782 78.9745" stroke="#2D1F04" stroke-width="0.712618" stroke-miterlimit="10" stroke-linecap="round" stroke-linejoin="round"/>
<path d="M61.1426 49.5178C57.5849 50.6302 53.1134 51.351 47.4941 51.351C38.5809 51.351 30.1954 44.9347 30.2552 44.5268C30.3967 43.5421 30.9678 42.9465 31.2915 43.2647C34.5799 46.2784 39.0759 48.3129 47.5185 48.3156C57.2096 48.321 70.1945 45.2421 72.4683 33.3071C72.6533 32.3905 73.7167 33.6689 74.579 34.9418C74.9434 35.4803 75.2209 36.2446 74.8102 37.5148C74.6143 38.1241 73.627 41.7388 69.5526 45.117" stroke="#2D1F04" stroke-width="0.712618" stroke-miterlimit="10" stroke-linecap="round" stroke-linejoin="round"/>
<path d="M31.2888 43.2701C31.3486 43.0144 31.4058 42.756 31.4547 42.5003C31.5608 41.8938 31.5798 41.3036 31.5118 40.7025C31.4547 40.1938 31.2426 41.1077 30.617 41.0207C30.7883 40.5801 31.1419 39.2745 30.8808 38.6843C30.6197 38.0941 30.4946 39.7723 29.6106 39.6145C29.9071 38.4177 30.0703 37.1584 29.7765 36.5791C29.4828 35.9997 29.3522 37.1911 28.6668 37.2536C28.8926 36.0813 28.8626 34.4684 28.6178 33.715C26.2896 26.5725 26.6078 21.8616 29.51 16.5659C30.3096 15.1081 31.316 13.6638 32.744 12.7091" stroke="#2D1F04" stroke-width="0.712618" stroke-miterlimit="10" stroke-linecap="round" stroke-linejoin="round"/>
<path d="M45.9818 30.889C45.805 33.0867 45.8403 34.4304 46.2864 35.8202" stroke="#2D1F04" stroke-width="0.712618" stroke-miterlimit="10" stroke-linecap="round" stroke-linejoin="round"/>
<path d="M40.3951 95.8461C43.4931 95.3185 49.7244 93.8769 52.5667 91.6765" stroke="#2D1F04" stroke-width="0.712618" stroke-miterlimit="10" stroke-linecap="round" stroke-linejoin="round"/>
<path d="M38.7142 7.11155C38.347 6.37717 37.1693 5.03081 38.4041 4.00269C38.9426 5.75159 41.0832 6.24661 42.484 6.36357C43.9881 6.49141 46.1178 6.67636 46.1178 6.67636C46.1178 6.67636 45.0271 5.69719 45.4324 5.4932C45.5031 5.45784 52.9393 7.2829 56.4235 9.01821C68.859 15.206 70.548 24.4836 72.4656 33.3098" stroke="#2D1F04" stroke-width="0.712618" stroke-miterlimit="10" stroke-linecap="round" stroke-linejoin="round"/>
<path d="M74.8156 37.5256C77.3097 41.4369 81.1421 47.0018 84.3815 53.0128" stroke="#2D1F04" stroke-width="0.712618" stroke-miterlimit="10" stroke-linecap="round" stroke-linejoin="round"/>
<path d="M85.6273 55.4146C92.2747 68.5409 94.6193 81.504 73.7793 78.9745C66.1907 78.0524 59.7364 74.9463 58.2214 74.6117C56.5269 74.2364 55.3981 74.2908 52.8387 72.8574C50.1079 71.326 50.0181 67.423 50.1841 67.1428C50.6274 66.3894 51.7045 67.6052 53.5785 68.3015C56.0346 69.2127 58.6783 68.8455 59.9567 70.0259C63.4654 73.2681 72.0195 71.3641 73.5019 68.7911C74.2363 67.5154 73.8854 65.8264 72.9878 63.8544" stroke="#2D1F04" stroke-width="0.712618" stroke-miterlimit="10" stroke-linecap="round" stroke-linejoin="round"/>
<path d="M71.6034 61.0177C70.2325 58.7411 68.9786 56.9868 67.5099 54.275" stroke="#2D1F04" stroke-width="0.712618" stroke-miterlimit="10" stroke-linecap="round" stroke-linejoin="round"/>
<path d="M40.3951 95.8462C43.4903 92.8787 47.0371 90.6946 50.3989 89.3755" stroke="#2D1F04" stroke-width="0.712618" stroke-miterlimit="10" stroke-linecap="round" stroke-linejoin="round"/>
<path d="M49.33 86.6445C50.165 88.1758 51.7126 91.7172 54.6556 93.3192" stroke="#2D1F04" stroke-width="0.712618" stroke-miterlimit="10" stroke-linecap="round" stroke-linejoin="round"/>
<path d="M11.2893 89.623C14.8741 89.944 18.4943 88.2032 22.1009 88.5269" stroke="#2D1F04" stroke-width="0.712618" stroke-miterlimit="10" stroke-linecap="round" stroke-linejoin="round"/>
<path d="M10.6963 89.9439C12.9212 88.0862 17.4553 85.6818 20.4853 85.9511" stroke="#2D1F04" stroke-width="0.712618" stroke-miterlimit="10" stroke-linecap="round" stroke-linejoin="round"/>
<path d="M18.6793 83.707C20.4092 85.3662 22.7156 87.9583 22.4409 90.9991" stroke="#2D1F04" stroke-width="0.712618" stroke-miterlimit="10" stroke-linecap="round" stroke-linejoin="round"/>
<path d="M25.2642 71.2581C29.1754 71.8048 32.2054 73.3986 33.7666 75.6018" stroke="#2D1F04" stroke-width="0.712618" stroke-miterlimit="10" stroke-linecap="round" stroke-linejoin="round"/>
<path d="M26.5289 61.6975C27.3286 63.8381 32.5536 66.9034 36.084 65.6577C37.7241 65.0784 40.0415 66.2588 42.6635 66.2588C44.6626 66.2588 46.096 65.4945 46.2483 66.354C46.3054 66.6749 44.8639 70.3033 41.7713 70.7875C38.8746 71.2417 37.8356 70.7983 36.1139 70.559C34.5772 70.3468 25.6042 73.385 20.0093 69.2371C17.4227 67.3196 16.5197 63.5443 21.3121 56.3338C21.8534 55.5179 22.071 55.1289 22.5225 54.3945" stroke="#2D1F04" stroke-width="0.712618" stroke-miterlimit="10" stroke-linecap="round" stroke-linejoin="round"/>
<path d="M23.9478 52.0772C26.6269 47.4397 27.8889 44.4043 31.4357 41.4478" stroke="#2D1F04" stroke-width="0.712618" stroke-miterlimit="10" stroke-linecap="round" stroke-linejoin="round"/>
<path d="M57.245 81.3897C54.5169 82.7523 52.341 84.0851 49.8876 85.9238C46.9474 88.1296 40.2809 95.7345 40.3924 95.846C40.6943 96.1479 48.582 96.2431 53.6737 93.7816C55.7572 92.7752 56.9703 92.2285 59.7527 92.4924C66.9469 93.1751 77.5219 94.1379 80.8511 91.0535C85.4695 86.7778 83.2038 82.0669 79.5047 80.4921C71.9869 77.2935 63.974 79.4939 63.9033 79.6326" stroke="#2D1F04" stroke-width="0.712618" stroke-miterlimit="10" stroke-linecap="round" stroke-linejoin="round"/>
<path d="M24.2279 81.7324C18.2414 81.6481 9.42069 90.2866 10.0299 90.2866C18.7554 90.2866 25.6096 92.6338 29.9615 90.4579C31.7539 89.5603 32.374 86.7316 31.4166 84.8114" stroke="#2D1F04" stroke-width="0.712618" stroke-miterlimit="10" stroke-linecap="round" stroke-linejoin="round"/>
<path d="M23.9532 71.0132C18.1897 70.9969 15.3365 76.3932 16.9576 80.4486C17.3601 81.455 17.7246 82.4151 18.7527 82.9292" stroke="#2D1F04" stroke-width="0.712618" stroke-miterlimit="10" stroke-linecap="round" stroke-linejoin="round"/>
<path d="M32.744 12.7092C30.568 12.9485 29.3169 13.5904 27.6523 15.2061C28.0004 13.4191 29.7004 11.9585 32.4965 11.2785C32.6052 11.2513 32.7712 11.2595 32.8065 11.1534C32.8337 11.0691 31.928 10.6937 30.9515 10.691C30.19 10.6883 29.3468 11.0881 29.0938 10.8977C29.0122 10.8352 29.7085 9.58128 31.1419 9.01825C32.4747 8.49603 33.5899 8.34644 34.55 8.41715C34.55 7.78885 31.724 8.01733 31.501 7.79429C31.4683 7.76165 32.1837 6.93208 33.6932 6.53769C35.4802 6.07259 37.2536 6.15418 38.7169 7.10887" stroke="#2D1F04" stroke-width="0.712618" stroke-miterlimit="10" stroke-linecap="round" stroke-linejoin="round"/>
<path d="M59.9785 70.0232C59.0891 71.2091 58.2976 72.7268 58.2432 74.609C56.5487 74.2363 55.4199 74.288 52.8604 72.8546C50.1297 71.3233 50.0399 67.4202 50.2058 67.1401C50.6492 66.3894 51.7262 67.6025 53.6003 68.2988C56.0591 69.2072 58.7001 68.8427 59.9785 70.0232Z" fill="#B6B1AE"/>
<path opacity="0.23" d="M58.4553 73.0913C58.3438 73.5292 58.2704 73.9943 58.2513 74.4839C56.6765 74.1629 55.5396 74.1466 53.0944 72.7785C50.3636 71.2472 50.2738 67.3441 50.4397 67.064C50.9783 69.1665 54.215 71.8456 58.3737 73.0668C58.4009 73.075 58.4281 73.0831 58.4553 73.0913Z" fill="#3F2719"/>
<path d="M50.2058 67.14C51.068 69.0929 53.1352 71.6795 58.8905 71.8455" stroke="#2D1F04" stroke-width="0.712618" stroke-miterlimit="10" stroke-linecap="round" stroke-linejoin="round"/>
<path d="M59.9785 70.0232C59.0891 71.2091 58.2976 72.7268 58.2432 74.609C56.5487 74.2363 55.4199 74.288 52.8604 72.8546C50.1297 71.3233 50.0399 67.4202 50.2058 67.1401C50.6492 66.3894 51.7262 67.6025 53.6003 68.2988C56.0591 69.2072 58.7001 68.8427 59.9785 70.0232Z" stroke="#2D1F04" stroke-width="0.712618" stroke-miterlimit="10" stroke-linecap="round" stroke-linejoin="round"/>
<path opacity="0.23" d="M59.1271 24.7339C58.5478 24.2144 57.7753 23.8989 56.9294 23.8989C55.1125 23.8989 53.6411 25.3595 53.6411 27.1628V27.3749C53.6411 28.0223 53.8315 28.6261 54.1579 29.1347C53.4888 28.5336 53.0699 27.6687 53.0699 26.7058V26.4937C53.0699 24.6904 54.5414 23.2271 56.3583 23.2271C57.5197 23.2271 58.5424 23.8282 59.1271 24.7339Z" fill="#3F2719"/>
<path opacity="0.23" d="M38.1865 24.1627C37.6044 23.6432 36.832 23.3277 35.9861 23.3277C34.1719 23.3277 32.7004 24.7883 32.7004 26.5916V26.8065C32.7004 27.4511 32.8881 28.0522 33.2145 28.5581C32.5481 27.9624 32.1292 27.0975 32.1292 26.1347V25.9225C32.1292 24.1192 33.6007 22.6559 35.4149 22.6559C36.579 22.6559 37.6017 23.257 38.1865 24.1627Z" fill="#3F2719"/>
<path d="M56.3583 23.2271C58.1724 23.2271 59.6439 24.6876 59.6439 26.4937V26.7058C59.6439 28.5091 58.1724 29.9697 56.3583 29.9697C54.5441 29.9697 53.0726 28.5091 53.0726 26.7058V26.4937C53.0699 24.6876 54.5414 23.2271 56.3583 23.2271Z" fill="white"/>
<path d="M54.3918 27.277C54.3918 26.7004 54.8405 26.2299 55.3954 26.2299C55.9503 26.2299 56.399 26.6977 56.399 27.277C56.399 27.8536 55.9503 28.3242 55.3954 28.3242C54.8405 28.3242 54.3918 27.8536 54.3918 27.277Z" fill="#2D1F04"/>
<path d="M59.5514 27.4784C59.2196 29.1158 57.5278 29.9698 56.3583 29.9698C55.1125 29.9698 53.6057 29.2327 53.1515 27.4131C54.5414 28.2263 57.2858 28.1801 59.5514 27.4784Z" fill="#9D7B51"/>
<path d="M56.3583 23.2271C58.1724 23.2271 59.6439 24.6876 59.6439 26.4937V26.7058C59.6439 28.5091 58.1724 29.9724 56.3583 29.9724C54.5441 29.9724 53.0726 28.5118 53.0726 26.7058V26.4937C53.0699 24.6876 54.5414 23.2271 56.3583 23.2271Z" stroke="#2D1F04" stroke-width="0.707178" stroke-miterlimit="10" stroke-linecap="round" stroke-linejoin="round"/>
<path d="M59.5514 27.4784C59.2196 29.1158 57.5278 29.9698 56.3583 29.9698C55.1125 29.9698 53.6057 29.2327 53.1515 27.4131C54.5414 28.2263 57.2858 28.1801 59.5514 27.4784Z" stroke="#2D1F04" stroke-width="0.707178" stroke-miterlimit="10" stroke-linecap="round" stroke-linejoin="round"/>
<path d="M35.4176 22.6559C33.6034 22.6559 32.132 24.1165 32.132 25.9225V26.1347C32.132 27.938 33.6034 29.3986 35.4176 29.3986C37.2318 29.3986 38.7033 27.938 38.7033 26.1347V25.9225C38.7033 24.1165 37.2318 22.6559 35.4176 22.6559Z" fill="white"/>
<path d="M37.3841 26.7059C37.3841 26.1292 36.9353 25.6587 36.3805 25.6587C35.8256 25.6587 35.3768 26.1265 35.3768 26.7059C35.3768 27.2825 35.8256 27.753 36.3805 27.753C36.9326 27.753 37.3841 27.2852 37.3841 26.7059Z" fill="#2D1F04"/>
<path d="M32.2244 26.9099C32.5563 28.5473 34.248 29.4013 35.4176 29.4013C36.6633 29.4013 38.1702 28.6642 38.6244 26.8446C37.2318 27.6551 34.4874 27.6089 32.2244 26.9099Z" fill="#9D7B51"/>
<path d="M35.4176 22.6559C33.6034 22.6559 32.132 24.1165 32.132 25.9225V26.1347C32.132 27.938 33.6034 29.4013 35.4176 29.4013C37.2318 29.4013 38.7033 27.9407 38.7033 26.1347V25.9225C38.7033 24.1165 37.2318 22.6559 35.4176 22.6559Z" stroke="#2D1F04" stroke-width="0.707178" stroke-miterlimit="10" stroke-linecap="round" stroke-linejoin="round"/>
<path d="M32.2244 26.9099C32.5563 28.5473 34.248 29.4013 35.4176 29.4013C36.6633 29.4013 38.1702 28.6642 38.6244 26.8446C37.2318 27.6551 34.4874 27.6089 32.2244 26.9099Z" stroke="#2D1F04" stroke-width="0.707178" stroke-miterlimit="10" stroke-linecap="round" stroke-linejoin="round"/>
<rect x="38.2879" y="55.8694" width="16.8868" height="25.1788" transform="rotate(-20.444 38.2879 55.8694)" fill="white" stroke="black" stroke-width="0.543983"/>
<path d="M47.2526 75.9424L47.9531 77.8781L47.4534 78.0582L46.5238 75.4795L46.9836 75.3138L47.1204 75.5835C47.2484 75.3642 47.4256 75.1874 47.652 75.0531C47.7248 75.0099 47.7988 74.9747 47.8737 74.9477C48.1853 74.8354 48.4676 74.8824 48.7207 75.0885C48.9157 74.7208 49.1714 74.4799 49.488 74.3659C49.8011 74.253 50.0633 74.2648 50.2744 74.4014C50.4867 74.5414 50.6724 74.832 50.8316 75.2735L51.3315 76.6603L50.8317 76.8405L50.3381 75.4711C50.182 75.038 49.9845 74.8165 49.7456 74.8066C49.6655 74.8035 49.5787 74.8188 49.4855 74.8524C49.2622 74.9329 49.0862 75.0867 48.9572 75.3139L49.6598 77.2629L49.16 77.443L48.6592 76.0537C48.5523 75.7572 48.4331 75.5649 48.3016 75.4768C48.1746 75.3908 48.0012 75.3874 47.7813 75.4667C47.5631 75.5453 47.3868 75.7039 47.2526 75.9424ZM53.3524 75.977C52.4095 76.3169 51.7721 76.0262 51.44 75.105C51.2971 74.7085 51.3135 74.344 51.4891 74.0116C51.646 73.7103 51.8751 73.5054 52.1766 73.3967C52.5048 73.2784 52.801 73.2959 53.0652 73.4491C53.3106 73.5922 53.4952 73.8353 53.6189 74.1784L53.6891 74.3733L51.985 74.9876C52.1549 75.4591 52.4512 75.6779 52.8738 75.6441C52.9745 75.6361 53.1197 75.5979 53.3096 75.5294C53.5012 75.4603 53.6793 75.367 53.8439 75.2493L53.9962 75.6716C53.8285 75.7809 53.6139 75.8828 53.3524 75.977ZM53.057 74.1862C52.9993 74.0262 52.9065 73.9072 52.7786 73.8291C52.6297 73.7397 52.4645 73.7278 52.2829 73.7932C52.0913 73.8623 51.9575 73.9792 51.8814 74.1441C51.8122 74.297 51.8068 74.4542 51.8651 74.6158L53.057 74.1862ZM54.509 73.3268L55.2096 75.2624L54.7098 75.4426L53.7803 72.8638L54.2401 72.6981L54.3768 72.9678C54.5048 72.7485 54.682 72.5717 54.9084 72.4374C54.9813 72.3942 55.0552 72.3591 55.1302 72.332C55.4417 72.2197 55.724 72.2667 55.9772 72.4728C56.1722 72.1052 56.4279 71.8643 56.7444 71.7502C57.0576 71.6373 57.3198 71.6491 57.5309 71.7857C57.7432 71.9257 57.9289 72.2164 58.088 72.6578L58.5879 74.0446L58.0882 74.2248L57.5946 72.8554C57.4385 72.4223 57.241 72.2008 57.0021 72.1909C56.9219 72.1878 56.8352 72.2031 56.7419 72.2367C56.5187 72.3172 56.3426 72.471 56.2137 72.6982L56.9163 74.6472L56.4165 74.8274L55.9157 73.438C55.8088 73.1415 55.6896 72.9492 55.5581 72.8611C55.4311 72.7751 55.2576 72.7717 55.0378 72.851C54.8195 72.9297 54.6433 73.0882 54.509 73.3268ZM60.6089 73.3613C59.666 73.7012 59.0285 73.4105 58.6965 72.4893C58.5536 72.0928 58.5699 71.7284 58.7456 71.3959C58.9024 71.0946 59.1316 70.8897 59.4331 70.781C59.7613 70.6627 60.0575 70.6802 60.3216 70.8334C60.5671 70.9765 60.7517 71.2196 60.8753 71.5627L60.9456 71.7576L59.2414 72.3719C59.4114 72.8434 59.7077 73.0622 60.1303 73.0285C60.2309 73.0204 60.3762 72.9822 60.5661 72.9137C60.7577 72.8447 60.9358 72.7513 61.1004 72.6336L61.2526 73.0559C61.085 73.1652 60.8704 73.2671 60.6089 73.3613ZM60.3134 71.5705C60.2558 71.4105 60.163 71.2915 60.0351 71.2134C59.8862 71.124 59.7209 71.1121 59.5393 71.1775C59.3478 71.2466 59.2139 71.3635 59.1378 71.5284C59.0687 71.6813 59.0633 71.8385 59.1215 72.0001L60.3134 71.5705Z" fill="black"/>
<path d="M56.3592 60.4065C54.7206 58.9353 52.571 57.5988 52.3407 57.2482C51.3441 55.7279 50.3574 54.1071 47.5749 53.8428C46.7952 53.7682 45.2673 53.9617 45.256 53.9737C45.1946 54.0412 45.4702 54.1464 45.4702 54.1464C45.4702 54.1464 45.0566 54.2648 44.7648 54.3494C44.4933 54.4284 44.0555 54.4899 43.8282 54.2003C43.6706 54.483 43.9887 54.6504 44.1109 54.7623C43.7672 54.6886 43.4285 54.8005 43.1264 55.0168C42.8713 55.1998 42.7963 55.4074 42.8048 55.4112C42.8627 55.437 43.3771 55.1902 43.4224 55.3082C43.2375 55.364 43.0383 55.4728 42.8256 55.667C42.597 55.8762 42.5569 56.1624 42.5765 56.1678C42.6383 56.1851 42.7673 56.0494 42.9105 55.9949C43.0947 55.9248 43.2919 55.93 43.2928 55.9478C43.2939 55.9702 43.2616 55.9809 43.2431 55.9938C42.7675 56.3231 42.5529 56.7198 42.6164 57.0805C42.8132 56.6573 43.0019 56.4465 43.3933 56.2445C43.1933 56.5265 43.1085 56.8704 43.0642 57.2023C42.9011 58.4064 43.1812 59.3142 44.1339 60.4878C44.2342 60.6117 44.3562 60.9125 44.3984 61.149C44.5228 61.0883 44.4612 60.8546 44.5581 60.9422C44.6556 61.0296 44.7158 61.2779 44.7465 61.5241C44.9237 61.4895 44.8261 61.1652 44.918 61.2578C45.0096 61.3498 45.0374 61.6205 45.037 61.7157C45.1608 61.6869 45.1347 61.4999 45.1821 61.5913C45.2022 61.6299 45.2201 61.6688 45.2352 61.7081C44.6648 62.7386 44.7725 63.5714 44.3942 65.2638C44.0143 66.964 44.4563 67.6079 45.0805 67.7815C45.3685 67.8614 45.6611 67.8692 45.9472 67.8308C44.8101 68.2682 44.7183 69.4625 45.3154 70.1073C45.4616 70.2651 45.7096 70.4161 45.9373 70.4412C45.1864 71.2502 44.6385 72.4873 44.7233 72.4547C46.3622 71.8251 47.819 71.7715 48.4795 71.0488C48.6327 70.8815 48.6718 70.6261 48.6199 70.3828C48.7935 70.3202 49.4491 70.1863 50.1398 70.0751C50.7316 69.9797 51.057 69.8255 51.4691 69.6208C51.1266 70.402 50.8078 71.2983 50.8285 71.3079C50.9068 71.3424 52.3949 70.7919 53.1742 69.962C53.493 69.6226 53.6809 69.4326 54.2231 69.2812C55.6236 68.8904 57.6795 68.3083 58.0823 67.4887C58.6413 66.3524 57.8758 65.631 57.0676 65.6026C56.6473 65.5875 56.2464 65.6413 55.8825 65.7301C60.0089 64.6944 58.5829 62.4028 56.3592 60.4065Z" fill="#CAA77A"/>
<path d="M45.4979 63.632C45.723 64.7538 46.0232 64.8561 46.0855 65.0502C46.1946 65.3894 46.0792 65.7163 45.9836 66.0549C45.9289 66.2483 45.8803 66.4452 45.8827 66.6501C45.8866 66.9364 45.9929 67.381 46.219 67.5943C46.2129 67.5967 46.0472 67.7377 45.9317 67.8337C45.6502 67.8703 45.3619 67.8614 45.0789 67.7825C44.4547 67.609 44.0127 66.965 44.3927 65.2648C44.7728 63.5652 44.642 62.7742 45.22 61.7378C45.2281 61.7452 45.2366 61.7338 45.2446 61.7178C45.2674 61.7818 45.2855 61.8534 45.2995 61.9342C45.3936 62.4843 45.3879 63.0862 45.4979 63.632Z" fill="#CAA77A"/>
<path opacity="0.23" d="M48.7533 69.0013C48.634 68.8554 48.3608 68.2251 48.1828 68.2302C47.6117 68.2485 47.0499 69.5407 46.2648 69.6611C45.9138 69.715 45.4196 69.6785 45.1781 69.3884C45.1272 69.3277 44.9866 69.1829 44.9595 69.0972C44.9546 69.5089 45.1337 69.9964 45.4745 70.273C45.7323 70.4818 45.9494 70.4183 45.9317 70.4286C45.5693 70.8252 44.7809 71.9963 44.7495 72.4287C45.0772 72.3204 45.5982 72.1596 45.7474 72.1175C46.4605 71.9151 48.0817 71.6454 48.5167 71.0257C48.664 70.8155 48.6755 70.5982 48.6189 70.3837C48.9041 70.2713 49.4987 70.1695 50.1388 70.0761C50.5391 70.0178 51.0337 69.883 51.4681 69.6218C51.7741 68.9226 52.1757 68.1106 52.9331 67.3946C51.7999 68.2297 51.6591 68.8431 51.3954 69.0464C50.8945 69.4334 49.455 69.8574 48.7533 69.0013Z" fill="#3F2719"/>
<path d="M53.3265 69.8032C53.2774 69.8526 53.227 69.9059 53.1729 69.9636C52.3941 70.7933 50.9055 71.344 50.827 71.3091C50.8001 71.2972 51.4066 69.6448 51.8078 68.9097L51.8421 68.9364C52.106 69.161 52.6689 69.7046 53.3265 69.8032Z" fill="#B6B1AE"/>
<path d="M49.2813 66.502C48.7698 66.7958 48.5428 66.788 48.2027 66.8671C48.1857 66.5588 48.0292 66.1605 47.8427 65.9483C48.109 65.7212 48.6298 65.775 49.122 65.5865C49.4977 65.4428 49.7116 65.1953 49.8029 65.3461C49.8366 65.4017 49.8276 66.1873 49.2813 66.502Z" fill="#B6B1AE"/>
<path d="M52.6423 65.0457C52.5608 65.3326 52.5216 65.6748 52.6472 66.0323C52.302 66.0846 52.0937 66.1757 51.5096 66.0911C50.8862 66.0005 50.5877 65.2739 50.5987 65.2093C50.6278 65.0363 50.9176 65.1864 51.3198 65.182C51.8472 65.1752 52.317 64.9162 52.6423 65.0457Z" fill="#B6B1AE"/>
<path d="M55.9988 60.09C54.9716 59.2153 53.8223 58.412 53.0866 57.8686C53.0986 58.0862 53.0925 58.0885 53.0804 57.871C53.0802 57.8705 53.0802 57.8705 53.0805 57.8697C53.0659 57.6027 52.9589 57.4797 52.8516 57.4048C52.5987 57.2288 52.3076 57.0662 52.3369 57.2478C52.3371 57.2484 52.337 57.2496 52.3372 57.2501C52.7711 59.6559 50.5543 61.1711 48.7336 61.8693C47.1471 62.4781 46.1563 62.4201 45.3212 62.0913L45.3205 62.091C45.3138 62.0385 45.3055 61.9865 45.297 61.9353C45.2832 61.8626 45.2636 61.7933 45.2379 61.7264C45.2313 61.7383 45.224 61.7452 45.2175 61.7389C45.2088 61.7546 45.2002 61.7702 45.1915 61.7858C45.1874 61.7933 45.1837 61.8006 45.18 61.8078C44.7835 62.5734 44.7481 63.246 44.5812 64.2751C44.5799 64.275 44.5792 64.2746 44.578 64.2745C44.5071 64.2654 44.4339 64.4366 44.412 64.5247C44.3943 64.596 44.37 64.7601 44.4796 64.8136C44.7986 64.9695 45.5285 65.1646 46.1119 65.5327C46.1123 65.5308 46.1125 65.5283 46.113 65.5264C46.1135 65.5233 46.1141 65.5201 46.1144 65.5165C46.1154 65.5114 46.1159 65.5065 46.1162 65.5011C46.1185 65.4873 46.1203 65.4738 46.1209 65.46C46.1222 65.4496 46.1229 65.4393 46.1237 65.4291C46.1249 65.4186 46.1255 65.4079 46.1257 65.3978C46.1268 65.3868 46.127 65.3768 46.1271 65.3662C46.1271 65.3556 46.1274 65.3456 46.1269 65.3352C46.1269 65.3276 46.1271 65.3205 46.1266 65.313C46.1267 65.2995 46.1261 65.2857 46.1249 65.2721C46.1239 65.2572 46.1229 65.2424 46.1207 65.2274C46.12 65.2212 46.1196 65.2155 46.1185 65.2095C46.1165 65.1938 46.1139 65.1778 46.1108 65.162C46.1084 65.1465 46.1047 65.1309 46.1009 65.1148C46.1 65.111 46.0989 65.1067 46.0979 65.1025C46.0931 65.0855 46.0884 65.0686 46.0829 65.0513C46.0701 65.0117 46.0477 64.9764 46.0183 64.9349C46.0174 64.9341 46.0172 64.9335 46.0163 64.9327C46.0074 64.9203 45.9978 64.9076 45.9878 64.8938C45.9781 64.8806 45.9674 64.8665 45.9565 64.8519C45.9548 64.849 45.9526 64.8464 45.9502 64.8432C45.9398 64.8284 45.9284 64.8123 45.9165 64.7952C45.9104 64.7869 45.9045 64.7775 45.8987 64.7686C45.8983 64.7676 45.8979 64.7665 45.897 64.7657C45.8901 64.7555 45.8838 64.745 45.8765 64.7337C45.8561 64.7005 45.8346 64.6642 45.8126 64.6223C45.7978 64.5945 45.783 64.565 45.7682 64.5326C45.7563 64.5079 45.7449 64.4812 45.7331 64.4535C45.7275 64.4404 45.7219 64.4273 45.7166 64.4135C45.7018 64.3781 45.6876 64.3396 45.6731 64.2989C45.6649 64.2774 45.6573 64.2545 45.6495 64.2311C45.6446 64.2154 45.639 64.1994 45.634 64.1832C45.6253 64.156 45.6167 64.1276 45.6083 64.098C45.5934 64.0469 45.5995 64.0446 45.6144 64.0957C45.6229 64.1253 45.6319 64.1535 45.6401 64.1808C45.6452 64.197 45.6507 64.2131 45.6556 64.2288C45.6634 64.2522 45.6713 64.2743 45.6793 64.2965C45.6937 64.3373 45.7079 64.3758 45.7227 64.4111C45.728 64.4249 45.7336 64.438 45.7392 64.4511C45.751 64.4788 45.7625 64.5055 45.7743 64.5303C45.7894 64.562 45.804 64.5922 45.8187 64.6199C45.8407 64.6619 45.8623 64.6982 45.8826 64.7314C45.8899 64.7426 45.8963 64.7531 45.9031 64.7634C45.904 64.7642 45.9044 64.7652 45.9048 64.7662C45.9113 64.7755 45.9169 64.7839 45.9227 64.7928C45.9345 64.8099 45.946 64.8261 45.9563 64.8408C45.9587 64.844 45.9609 64.8467 45.9626 64.8496C45.9735 64.8641 45.9842 64.8782 45.994 64.8915C46.0039 64.9052 46.0135 64.9179 46.0224 64.9304C46.0233 64.9312 46.0235 64.9317 46.0244 64.9325C46.0538 64.974 46.0762 65.0094 46.0891 65.049C46.0945 65.0662 46.0993 65.0832 46.104 65.1001C46.1051 65.1044 46.1061 65.1087 46.107 65.1124C46.1108 65.1286 46.1145 65.1442 46.1169 65.1596C46.12 65.1754 46.1227 65.1914 46.1246 65.2071C46.1257 65.2131 46.1262 65.2188 46.1268 65.225C46.129 65.24 46.13 65.2549 46.131 65.2697C46.1322 65.2833 46.1328 65.2972 46.1327 65.3107C46.1332 65.3181 46.1335 65.325 46.133 65.3329C46.1335 65.3432 46.1333 65.3533 46.1332 65.3639C46.1332 65.3744 46.1329 65.3845 46.1319 65.3954C46.1316 65.4055 46.1311 65.4163 46.1298 65.4267C46.1296 65.4368 46.1288 65.447 46.127 65.4577C46.1264 65.4714 46.1246 65.485 46.1223 65.4988C46.122 65.5042 46.1216 65.509 46.1206 65.5141C46.1202 65.5178 46.1197 65.5209 46.1191 65.524C46.1189 65.5265 46.1189 65.5282 46.1185 65.5301L46.118 65.5303C46.1174 65.5394 46.1157 65.5488 46.1139 65.5577C46.1111 65.5764 46.1076 65.5947 46.1037 65.6138C46.0957 65.6555 46.086 65.6974 46.0751 65.7391C46.0701 65.7598 46.0647 65.7806 46.0587 65.8017C46.048 65.8427 46.0357 65.8838 46.024 65.9252C46.0118 65.968 45.9995 66.0109 45.9872 66.0537C46.4564 66.2862 47.367 66.3551 47.8429 65.9489C48.1092 65.7217 48.63 65.7755 49.1222 65.5871C49.4979 65.4433 49.7118 65.1959 49.8031 65.3466C49.8368 65.4023 49.8278 66.1878 49.2815 66.5026C48.77 66.7964 48.543 66.7886 48.2029 66.8676C47.9872 66.9182 47.1895 67.543 46.2632 67.7704C46.9616 67.6182 47.5831 67.6779 48.022 67.9215C48.0227 67.9218 48.0227 67.9218 48.0234 67.9221C48.7136 68.2796 49.2795 68.8051 50.4204 68.477C51.5456 68.1539 52.0659 67.889 52.6408 67.3985C53.2076 66.9158 53.9095 66.2141 55.8011 65.7507C54.3396 66.1005 52.9508 65.9878 52.6474 66.0328C52.3023 66.0851 52.094 66.1762 51.5098 66.0917C50.8864 66.001 50.5879 65.2744 50.5989 65.2098C50.628 65.0368 50.9178 65.187 51.3201 65.1825C51.8474 65.1758 52.3172 64.9168 52.6425 65.0463C53.5355 65.4021 55.0047 64.4268 55.0977 63.8371C55.1439 63.5438 54.9554 63.2515 54.6438 62.9455C54.6399 62.984 54.6252 63.0037 54.6038 63.0107C54.6221 63.0019 54.6346 62.9825 54.6377 62.9479L54.6375 62.9474C54.7468 61.591 56.1755 60.6172 56.4044 60.453C56.4049 60.4528 56.4049 60.4528 56.4052 60.4521C56.5959 60.3074 56.1943 60.0313 55.9988 60.09Z" fill="#FFDB1F"/>
<path d="M43.4473 58.4094C43.381 57.8843 43.5203 57.6121 43.9191 57.3681C44.3876 57.0814 44.2536 56.2564 44.7334 56.0493C44.8224 56.011 45.016 55.8845 45.0278 55.7826C45.0649 55.467 44.7049 55.4775 44.8741 55.4465C45.0436 55.416 46.1889 55.3788 46.5478 55.2844C47.5814 55.0128 48.58 54.8467 49.5781 55.6869C49.8024 55.8757 50.425 56.5441 50.5216 57.2093C50.6628 58.1782 50.7017 58.5924 49.9907 59.6323C49.146 60.8672 45.9964 61.8056 44.7931 60.7792C44.4232 59.7611 43.5709 59.3891 43.4473 58.4094Z" fill="#FFDBAF"/>
<path d="M46.6798 58.5877C46.2019 58.5415 46.0514 59.5098 46.2474 60.0765C46.6493 61.2389 48.3171 60.9195 48.9721 60.0101C49.6547 59.0626 47.8793 57.7284 47.2896 58.275" fill="#9D7B51"/>
<path d="M43.3567 58.1921C43.2924 59.1601 44.4153 60.6259 44.866 60.8239C45.2033 60.5543 45.4503 60.2753 45.624 59.9934C46.7414 58.1847 44.864 56.2735 44.7148 56.2071C44.618 56.164 43.825 56.6163 43.4919 57.5457C43.4173 57.7543 43.3698 57.9942 43.3567 58.1921Z" fill="#9D7B51"/>
<path d="M46.7596 55.3719C47.3737 59.118 50.4855 58.7576 50.6096 58.2444C50.6891 57.9155 50.5749 56.5605 49.7898 55.9193C49.7131 55.8568 49.2672 55.4576 48.6437 55.2339C47.8588 54.952 46.6802 54.982 46.7596 55.3719Z" fill="#9D7B51"/>
<path d="M45.9413 61.6573L46.067 61.9907" stroke="#9D7B51" stroke-width="0.2118" stroke-miterlimit="10" stroke-linecap="round" stroke-linejoin="round"/>
<path d="M46.3336 61.7019L46.4593 62.0352" stroke="#9D7B51" stroke-width="0.2118" stroke-miterlimit="10" stroke-linecap="round" stroke-linejoin="round"/>
<path d="M46.4458 55.3041C48.4336 54.5634 50.174 56.182 50.174 56.182" stroke="#2D1F04" stroke-width="0.415937" stroke-miterlimit="10" stroke-linecap="round" stroke-linejoin="round"/>
<path d="M44.8142 56.1256C42.8394 57.1368 43.3479 59.619 43.3479 59.619" stroke="#2D1F04" stroke-width="0.415937" stroke-miterlimit="10" stroke-linecap="round" stroke-linejoin="round"/>
<path d="M46.4094 58.7292C46.3438 58.5814 46.5875 58.3306 46.9529 58.1692C47.3183 58.0077 47.6678 57.9972 47.7333 58.145C47.7989 58.2928 47.5552 58.5435 47.1898 58.7049C46.8244 58.8664 46.4749 58.8769 46.4094 58.7292Z" fill="#251707"/>
<path d="M45.824 70.5879C45.6689 70.9365 45.0972 71.5225 44.8932 71.9192C44.8355 72.0317 44.6882 72.2999 44.7499 72.4286C44.7691 72.4693 44.7939 72.4393 44.8149 72.4283C45.0495 72.3065 45.4091 72.1391 45.6675 72.0867C45.9246 72.0343 47.0389 71.9328 47.1389 71.7232C47.1826 71.6308 47.1138 71.5265 47.0709 71.4515C46.8347 71.041 46.4435 70.8606 46.0284 70.6636C45.9687 70.6349 45.8492 70.5313 45.824 70.5879Z" fill="#D2D2D2"/>
<path opacity="0.23" d="M52.995 63.1175C52.782 63.2345 52.9408 63.8477 51.6429 64.1C50.8759 64.2492 50.2911 64.1033 49.8178 64.1655C49.4618 64.2126 49.3887 64.4189 48.8694 64.6254C48.4718 64.784 47.9191 64.9353 47.4839 64.9729C46.8232 65.0297 46.3376 64.9407 46.3291 65.1368C46.3113 65.5652 47.5479 65.3716 48.6113 64.9989C49.2348 64.7799 49.6492 64.3997 49.8329 64.4001C50.6334 64.4022 51.6408 64.5845 52.4664 64.1771C52.9277 63.9495 53.4097 62.889 52.995 63.1175Z" fill="#3F2719"/>
<path d="M47.5475 59.54C47.1735 59.6836 46.7845 60.1819 47.0685 60.3015C47.3404 60.4157 47.3292 59.8812 47.6842 59.7448C48.0393 59.6085 48.2475 59.9993 48.4203 59.7289C48.5932 59.4584 48.0932 59.3304 47.5475 59.54Z" fill="#2D1F04"/>
<path d="M55.4586 66.686L55.5836 67.0191" stroke="#9D7B51" stroke-width="0.2118" stroke-miterlimit="10" stroke-linecap="round" stroke-linejoin="round"/>
<path d="M55.8504 66.7309L55.9759 67.0638" stroke="#9D7B51" stroke-width="0.2118" stroke-miterlimit="10" stroke-linecap="round" stroke-linejoin="round"/>
<path d="M55.8884 61.8478L56.0141 62.1812" stroke="#9D7B51" stroke-width="0.2118" stroke-miterlimit="10" stroke-linecap="round" stroke-linejoin="round"/>
<path d="M56.2802 61.8925L56.4059 62.2259" stroke="#9D7B51" stroke-width="0.2118" stroke-miterlimit="10" stroke-linecap="round" stroke-linejoin="round"/>
<path opacity="0.23" d="M58.0799 67.4909C58.0527 67.5453 58.0187 67.5988 57.978 67.6514C57.8352 67.8352 57.6112 68.0063 57.3344 68.1648C56.8503 68.4428 56.2062 68.6831 55.5593 68.89C55.559 68.8907 55.5585 68.8909 55.5583 68.8904C55.3733 68.9491 55.1881 69.0056 55.0063 69.059C55.006 69.0597 55.0055 69.0599 55.0048 69.0596C54.9141 69.0862 54.8243 69.1119 54.7363 69.1375L54.7348 69.1381C54.646 69.1634 54.5592 69.1879 54.4735 69.2121C54.3873 69.2364 54.3026 69.2601 54.2205 69.2829C53.9892 69.3477 53.8221 69.4195 53.6818 69.5074C53.4939 69.6241 53.3538 69.7694 53.1712 69.9638C52.9435 70.206 52.6559 70.425 52.3601 70.6119C51.7163 71.0192 51.0358 71.2777 50.864 71.3079C50.8452 71.311 50.8331 71.3116 50.8275 71.309C50.8232 71.3071 50.8322 71.2726 50.8501 71.2124C50.8506 71.2105 50.8512 71.209 50.8521 71.2069C50.8555 71.1974 50.859 71.1867 50.8623 71.1755C50.8825 71.115 50.9101 71.0358 50.943 70.9428C50.9521 70.9176 50.962 70.8915 50.9715 70.8644C50.9798 70.8419 50.9885 70.8186 50.997 70.7948L50.9975 70.7947C51.6569 70.5654 52.2991 69.9799 52.7624 69.3927C53.2252 68.8057 53.7187 68.5564 54.419 68.4322C55.1197 68.3072 56.5003 67.927 57.1385 67.1982C57.5331 66.7482 57.2931 66.1721 56.7938 65.9635C56.3448 65.7759 55.4145 65.955 54.3856 66.3502C54.7028 66.158 55.2398 65.8861 55.8948 65.7278C55.9212 65.7217 55.9481 65.7155 55.975 65.7093C56.0129 65.7011 56.0509 65.693 56.089 65.6854C56.0895 65.6852 56.0895 65.6852 56.09 65.685C56.1609 65.6713 56.2324 65.659 56.3056 65.648C56.3312 65.6445 56.3569 65.6411 56.3824 65.6372C56.4209 65.6324 56.4597 65.628 56.4985 65.6237C56.581 65.6155 56.6647 65.6091 56.7489 65.6055C56.7696 65.6045 56.7906 65.6041 56.8113 65.6032C56.8323 65.6028 56.8532 65.6023 56.8742 65.6019C56.8953 65.602 56.9162 65.6016 56.9374 65.6017C56.9797 65.6018 57.0221 65.6025 57.065 65.6042C57.8734 65.6332 58.6387 66.3541 58.0799 67.4909Z" fill="#3F2719"/>
<path opacity="0.23" d="M56.4448 60.4195C56.4443 60.4197 56.444 60.4204 56.4435 60.4206C56.4431 60.4213 56.4431 60.4213 56.4426 60.4215C56.3493 60.4884 56.0568 60.6899 55.735 60.997C56.098 60.7714 56.4401 61.0393 57.2233 62.0511C57.6502 62.6023 57.8434 63.0488 57.8499 63.3769C57.8589 63.8355 57.3616 64.3342 56.7087 64.6736C55.877 65.1062 55.0248 65.3555 54.2778 65.5018C53.718 65.6119 53.4301 65.6621 52.5603 65.7329C51.691 65.8036 50.8898 65.5339 50.6371 65.1783C50.6261 65.2429 50.9246 65.9696 51.548 66.0602C52.1322 66.1447 52.3405 66.0536 52.6857 66.0013C52.9891 65.9563 54.3778 66.069 55.8393 65.7192C55.8587 65.7147 55.8834 65.7088 55.9204 65.6998C60.0166 64.6711 58.641 62.4053 56.4448 60.4195Z" fill="#3F2719"/>
<path opacity="0.23" d="M45.7888 65.9266C45.8273 65.6896 46.0614 65.1237 45.6731 64.6425C45.7507 64.6872 45.8925 64.774 45.935 64.8222C45.9776 64.8703 46.0705 64.9795 46.0936 65.0884C46.1161 65.1976 46.1445 65.4224 46.1097 65.5806C46.0748 65.7388 46.025 65.925 45.987 66.0533C45.9272 66.0259 45.8651 65.9817 45.7888 65.9266Z" fill="#3F2719"/>
<path opacity="0.23" d="M49.2777 66.5036C48.7662 66.7974 48.5392 66.7896 48.1986 66.8688C47.8946 66.9398 46.4289 68.1577 45.0787 67.7822C44.4971 67.6205 44.0735 67.0503 44.3262 65.5972C44.2705 66.3696 44.2869 66.9098 44.8886 67.1652C45.3265 67.3512 45.8837 67.4191 46.6626 67.1346C47.4412 66.8508 47.9325 66.5501 48.6161 66.2646C49.2842 65.9863 49.6078 65.6609 49.7653 65.3126C49.7781 65.32 49.789 65.3316 49.7988 65.3478C49.8325 65.4034 49.8235 66.189 49.2777 66.5036Z" fill="#3F2719"/>
<path opacity="0.23" d="M52.3389 57.2473C52.3388 57.2485 52.3387 57.2497 52.3391 57.2507C52.4767 58.0134 52.3483 58.6865 52.0498 59.2725C51.4138 56.6581 49.7745 55.1819 48.3659 54.7627C47.4252 54.4826 46.5781 54.5424 45.8712 54.7594C45.7941 54.7831 45.5051 54.8549 45.5042 54.7503C45.379 54.7966 45.3997 54.9329 45.2847 54.9876C45.1681 55.0429 44.957 54.8596 44.7319 55.0305C44.8616 55.0294 44.8231 55.2024 44.7109 55.3147C44.619 55.4069 44.4042 55.4565 44.3596 55.3465C44.3087 55.4674 44.4173 55.5272 44.3631 55.5708C44.2945 55.6259 43.9526 55.5081 43.8663 55.7382C44.0641 55.6746 44.0622 55.8359 44.0131 55.8853C43.6097 56.2882 43.3351 56.7226 43.0643 57.2018C43.1088 56.8705 43.1935 56.5278 43.3932 56.2465C43.0018 56.4484 42.8131 56.6593 42.6163 57.0825C42.5527 56.7217 42.7674 56.3251 43.243 55.9958C43.2615 55.9828 43.2937 55.9722 43.2927 55.9497C43.2917 55.9319 43.0945 55.9268 42.9104 55.9969C42.7672 56.0513 42.6381 56.1871 42.5764 56.1698C42.5567 56.1644 42.5969 55.8781 42.8255 55.669C43.0381 55.4747 43.2373 55.366 43.4223 55.3102C43.3769 55.1922 42.8626 55.439 42.8046 55.4132C42.7961 55.4094 42.8712 55.2018 43.1262 55.0188C43.4283 54.8025 43.767 54.6906 44.1108 54.7643C43.9886 54.6524 43.6705 54.4849 43.828 54.2022C44.0554 54.4919 44.4932 54.4304 44.7647 54.3513C45.0564 54.2668 45.47 54.1484 45.47 54.1484C45.47 54.1484 45.1945 54.0432 45.2559 53.9756C45.2672 53.9637 46.7951 53.7702 47.5748 53.8447C50.3556 54.1092 51.3427 55.7281 52.3389 57.2473Z" fill="#3F2719"/>
<path opacity="0.23" d="M53.0808 57.8692C53.0805 57.8699 53.0805 57.8699 53.0807 57.8704C53.0874 57.9886 53.1515 58.6271 52.762 59.4462C52.6969 59.0644 52.5139 58.8873 52.1877 58.9569C52.3833 58.4479 52.4511 57.8796 52.3375 57.2496C52.3373 57.2491 52.3374 57.2478 52.3372 57.2473C52.3079 57.0657 52.599 57.2283 52.8519 57.4043C52.9592 57.4792 53.0662 57.6022 53.0808 57.8692Z" fill="#3F2719"/>
<path opacity="0.23" d="M56.4022 60.4429C56.4019 60.4436 56.4019 60.4436 56.4014 60.4438C56.3025 60.5146 55.9961 60.7425 55.6452 61.079C55.5366 60.7918 55.3805 60.6723 55.1601 60.7365C55.146 60.7501 55.1185 60.7777 55.1083 60.788C54.3157 59.9867 53.6182 59.5887 52.8843 59.1524C53.1393 58.4717 53.0894 57.9632 53.0835 57.8594C53.8188 58.403 54.9687 59.2065 55.9952 60.0809C56.1908 60.0222 56.5923 60.2983 56.4022 60.4429Z" fill="#3F2719"/>
<path opacity="0.23" d="M52.9207 61.5444C53.2054 61.9528 54.1256 63.0145 54.5041 63.4718C54.9039 63.9556 54.7517 64.5299 54.0168 64.8756C54.4465 64.6542 54.6991 64.4693 54.8509 64.2708C55.0022 64.0726 55.1428 63.889 55.0981 63.6934C55.0534 63.4977 55.0135 63.3723 54.911 63.2475C54.8086 63.1227 54.6915 62.9842 54.6574 62.958C54.6233 62.9318 54.6406 63.0167 54.5722 63.0324C54.5033 63.0483 54.4199 63.0235 54.3226 62.8785C54.2252 62.7336 54.1946 62.6721 54.1733 62.5724C54.152 62.4727 54.1136 62.4657 54.0164 62.3928C53.9192 62.3199 53.2719 61.8281 52.9207 61.5444Z" fill="#3F2719"/>
<path opacity="0.23" d="M50.795 65.6182C51.0227 66.0812 51.3869 66.2878 51.8875 66.3242C52.3881 66.3605 52.5835 66.2175 53.0921 66.2167C53.6007 66.216 53.8723 66.2911 53.9838 66.4183C54.1403 66.3371 54.8356 65.9938 55.5942 65.7968C54.889 65.9281 54.4319 65.9853 53.917 66.0001C53.4023 66.0155 52.944 66.028 52.7707 66.0348C52.5974 66.0415 52.2359 66.1429 51.8414 66.1185C51.4468 66.0942 51.1386 66.0472 50.795 65.6182Z" fill="#3F2719"/>
<path opacity="0.23" d="M50.9094 67.7095C50.6406 67.869 50.1553 68.1686 49.7115 68.193C49.0145 68.2315 48.783 67.6287 47.7321 67.3593C47.513 67.5108 47.3368 67.6841 47.535 67.7422C46.9984 67.644 46.5861 67.7139 46.3166 67.7418C46.5772 67.6692 46.6232 67.6439 47.1381 67.4262C47.6531 67.2085 47.9836 66.9379 48.1768 66.8748C48.3703 66.8122 48.5048 66.8725 49.0341 66.6417C49.5641 66.4111 49.6515 66.1366 49.7713 65.7646C49.7325 66.4039 49.3938 66.6547 49.0616 66.814C48.7294 66.9733 48.3421 67.0136 48.1042 67.136C48.0201 67.1795 47.8837 67.2565 47.7571 67.342C48.3727 67.377 48.8804 67.78 49.6711 67.865C50.0174 67.9026 50.4317 67.7939 50.9094 67.7095Z" fill="#3F2719"/>
<path opacity="0.23" d="M45.824 70.5879C45.4897 70.9403 45.1148 71.5515 44.9112 71.9481C44.8536 72.0605 44.725 72.3638 44.7499 72.4286C44.7662 72.471 44.7939 72.4393 44.8149 72.4283C45.0495 72.3065 45.4091 72.1391 45.6675 72.0868C45.9246 72.0343 47.0388 71.9329 47.1389 71.7232C47.1826 71.6308 47.1138 71.5265 47.0709 71.4515C46.8346 71.041 46.4435 70.8606 46.0284 70.6636C45.9687 70.6349 45.8492 70.5314 45.824 70.5879Z" fill="#3F2719"/>
<path d="M55.252 60.6488C54.6933 61.1648 54.293 61.8092 54.1767 62.5152C54.1439 62.6773 54.3252 62.8897 54.3921 62.9572C54.4593 63.0252 54.6163 63.0921 54.6442 62.9448M56.0306 60.7344C56.2066 60.5911 56.3455 60.495 56.4047 60.4523C56.4052 60.4521 56.4052 60.4521 56.4056 60.4514C56.5256 60.3654 56.4469 60.2796 56.3495 60.2108C56.264 60.1499 56.0948 60.0361 55.9972 60.0918M46.1117 65.5321C46.1121 65.5302 46.1124 65.5278 46.1128 65.5259C46.1134 65.5227 46.1139 65.5196 46.1143 65.5159C46.1152 65.5109 46.1157 65.506 46.116 65.5006C46.1183 65.4868 46.1201 65.4732 46.1207 65.4595C46.122 65.449 46.1227 65.4388 46.1235 65.4285C46.1248 65.4181 46.1253 65.4073 46.1255 65.3973C46.1266 65.3863 46.1269 65.3762 46.1269 65.3657C46.1269 65.3551 46.1272 65.345 46.1267 65.3347C46.1267 65.327 46.1269 65.3199 46.1264 65.3125C46.1265 65.299 46.1259 65.2852 46.1247 65.2715C46.1237 65.2567 46.1227 65.2418 46.1205 65.2268C46.1199 65.2206 46.1194 65.2149 46.1183 65.2089C46.1164 65.1932 46.1137 65.1773 46.1106 65.1615C46.1082 65.146 46.1045 65.1304 46.1007 65.1143C46.0998 65.1105 46.0988 65.1062 46.0977 65.1019C46.093 65.085 46.0882 65.068 46.0828 65.0508C46.0699 65.0112 46.0475 64.9758 46.0181 64.9343C46.0172 64.9335 46.017 64.933 46.0161 64.9322C46.0072 64.9198 45.9976 64.907 45.9877 64.8933C45.9779 64.88 45.9672 64.866 45.9563 64.8514C45.9546 64.8485 45.9524 64.8458 45.95 64.8426C45.9397 64.8279 45.9282 64.8117 45.9163 64.7946C45.9103 64.7864 45.9043 64.777 45.8985 64.768C45.8981 64.767 45.8977 64.766 45.8968 64.7652C45.89 64.7549 45.8836 64.7445 45.8763 64.7332C45.856 64.7 45.8344 64.6637 45.8124 64.6217C45.7977 64.594 45.7828 64.5645 45.768 64.5321C45.7562 64.5073 45.7447 64.4806 45.7329 64.4529C45.7273 64.4398 45.7217 64.4267 45.7164 64.413C45.7016 64.3776 45.6874 64.3391 45.6729 64.2983C45.6647 64.2769 45.6571 64.254 45.6493 64.2306C45.6444 64.2149 45.6388 64.1988 45.6338 64.1826C45.6251 64.1555 45.6166 64.1271 45.6081 64.0975C45.5932 64.0464 45.4056 62.9705 45.3773 62.6326C45.3794 62.6335 45.5993 64.044 45.6143 64.0951C45.6227 64.1247 45.6318 64.1529 45.6399 64.1803C45.645 64.1965 45.6506 64.2125 45.6554 64.2282C45.6632 64.2516 45.6712 64.2738 45.6791 64.296C45.6936 64.3367 45.7078 64.3752 45.7225 64.4106C45.7278 64.4244 45.7334 64.4375 45.7391 64.4506C45.7509 64.4783 45.7623 64.505 45.7741 64.5297C45.7893 64.5614 45.8038 64.5916 45.8185 64.6194C45.8405 64.6613 45.8621 64.6976 45.8825 64.7308C45.8897 64.7421 45.8961 64.7526 45.903 64.7628C45.9039 64.7636 45.9043 64.7647 45.9046 64.7657C45.9111 64.7749 45.9167 64.7833 45.9225 64.7923C45.9343 64.8094 45.9458 64.8255 45.9562 64.8403C45.9586 64.8435 45.9608 64.8461 45.9625 64.849C45.9733 64.8636 45.984 64.8777 45.9938 64.8909C46.0038 64.9047 46.0133 64.9174 46.0222 64.9298C46.0231 64.9307 46.0233 64.9312 46.0242 64.932C46.0536 64.9735 46.076 65.0088 46.0889 65.0484C46.0943 65.0657 46.0991 65.0826 46.1038 65.0996C46.1049 65.1039 46.106 65.1081 46.1068 65.1119C46.1107 65.128 46.1143 65.1436 46.1167 65.1591C46.1199 65.1749 46.1225 65.1909 46.1244 65.2066C46.1256 65.2126 46.126 65.2183 46.1266 65.2245C46.1288 65.2395 46.1299 65.2543 46.1309 65.2692C46.132 65.2828 46.1326 65.2966 46.1325 65.3102C46.133 65.3176 46.1334 65.3245 46.1328 65.3323C46.1333 65.3427 46.1331 65.3527 46.133 65.3633C46.133 65.3739 46.1327 65.3839 46.1317 65.3949C46.1314 65.405 46.1309 65.4157 46.1296 65.4262C46.1294 65.4362 46.1286 65.4465 46.1269 65.4571C46.1263 65.4709 46.1244 65.4844 46.1221 65.4982C46.1218 65.5036 46.1214 65.5085 46.1204 65.5136C46.12 65.5172 46.1195 65.5204 46.1189 65.5235C46.1187 65.5259 46.1188 65.5277 46.1183 65.5296L46.1178 65.5298C46.1172 65.5388 46.1155 65.5483 46.1137 65.5572C46.1109 65.5758 46.1074 65.5942 46.1036 65.6132C46.0956 65.655 46.0858 65.6968 46.0749 65.7386C46.0699 65.7592 46.0645 65.7801 46.0585 65.8012C46.0479 65.8422 46.0355 65.8833 46.0239 65.9247C46.0116 65.9675 45.9993 66.0103 45.987 66.0532C46.4562 66.2857 47.3668 66.3545 47.8428 65.9483C48.109 65.7212 48.6298 65.775 49.122 65.5865C49.4977 65.4428 49.7116 65.1953 49.8029 65.3461C49.8366 65.4017 49.8276 66.1873 49.2813 66.502C48.7698 66.7958 48.5429 66.788 48.2027 66.8671C47.987 66.9177 47.1893 67.5424 46.263 67.7699C46.9614 67.6177 47.5829 67.6774 48.0218 67.9209C48.0225 67.9212 48.0225 67.9212 48.0232 67.9216C48.7134 68.2791 49.2793 68.8045 50.4202 68.4765C51.5454 68.1533 52.0657 67.8884 52.6406 67.3979C53.2074 66.9152 53.9093 66.2135 55.8009 65.7502C54.3394 66.0999 52.9506 65.9873 52.6472 66.0323C52.3021 66.0846 52.0938 66.1757 51.5096 66.0911C50.8862 66.0005 50.5877 65.2739 50.5987 65.2093C50.6278 65.0363 50.9176 65.1864 51.3199 65.182C51.8473 65.1752 52.3171 64.9162 52.6423 65.0457C53.5353 65.4016 55.0045 64.4263 55.0975 63.8365C55.1437 63.5432 54.9552 63.2509 54.6437 62.945M44.581 64.2745C44.5798 64.2744 44.579 64.2741 44.5778 64.274C44.5069 64.2649 44.4337 64.436 44.4119 64.5242C44.3941 64.5955 44.3698 64.7596 44.4794 64.813" stroke="#2D1F04" stroke-width="0.143389" stroke-miterlimit="10" stroke-linecap="round" stroke-linejoin="round"/>
<path d="M54.2723 62.1202C54.3389 62.2553 54.4319 62.3022 54.5264 62.3146" stroke="#2D1F04" stroke-width="0.143389" stroke-miterlimit="10" stroke-linecap="round" stroke-linejoin="round"/>
<path d="M54.4259 61.74C54.4823 61.8379 54.6027 61.9072 54.6916 61.9252" stroke="#2D1F04" stroke-width="0.143389" stroke-miterlimit="10" stroke-linecap="round" stroke-linejoin="round"/>
<path d="M54.6696 61.3198C54.7446 61.4188 54.8529 61.4581 54.952 61.4828" stroke="#2D1F04" stroke-width="0.143389" stroke-miterlimit="10" stroke-linecap="round" stroke-linejoin="round"/>
<path d="M45.9097 62.2651C45.8641 62.3677 45.863 62.4625 45.8787 62.5614" stroke="#2D1F04" stroke-width="0.143389" stroke-miterlimit="10" stroke-linecap="round" stroke-linejoin="round"/>
<path d="M46.5791 62.3409C46.5715 62.4341 46.5857 62.5488 46.6119 62.6431" stroke="#2D1F04" stroke-width="0.143389" stroke-miterlimit="10" stroke-linecap="round" stroke-linejoin="round"/>
<path d="M47.5629 62.2251C47.5683 62.3491 47.6034 62.4405 47.6335 62.5187" stroke="#2D1F04" stroke-width="0.143389" stroke-miterlimit="10" stroke-linecap="round" stroke-linejoin="round"/>
<path d="M47.9481 62.1306C47.9615 62.2128 47.9966 62.353 48.0514 62.4667" stroke="#2D1F04" stroke-width="0.143389" stroke-miterlimit="10" stroke-linecap="round" stroke-linejoin="round"/>
<path d="M48.3227 62.016C48.3326 62.089 48.3766 62.2327 48.4196 62.3247" stroke="#2D1F04" stroke-width="0.143389" stroke-miterlimit="10" stroke-linecap="round" stroke-linejoin="round"/>
<path d="M50.1301 61.1887C50.1883 61.2455 50.2532 61.3367 50.2897 61.4194" stroke="#2D1F04" stroke-width="0.143389" stroke-miterlimit="10" stroke-linecap="round" stroke-linejoin="round"/>
<path d="M50.4971 60.9503C50.547 60.998 50.6177 61.0904 50.6518 61.167" stroke="#2D1F04" stroke-width="0.143389" stroke-miterlimit="10" stroke-linecap="round" stroke-linejoin="round"/>
<path d="M52.1318 59.0964C52.2365 59.1248 52.3208 59.1564 52.3904 59.1988" stroke="#2D1F04" stroke-width="0.143389" stroke-miterlimit="10" stroke-linecap="round" stroke-linejoin="round"/>
<path d="M52.2413 58.8107C52.3217 58.8232 52.4255 58.846 52.5237 58.8851" stroke="#2D1F04" stroke-width="0.143389" stroke-miterlimit="10" stroke-linecap="round" stroke-linejoin="round"/>
<path d="M52.3078 58.564C52.4033 58.5683 52.4741 58.5787 52.5382 58.5992" stroke="#2D1F04" stroke-width="0.143389" stroke-miterlimit="10" stroke-linecap="round" stroke-linejoin="round"/>
<path d="M45.5218 64.5626C45.6603 64.6302 45.7952 64.708 45.9168 64.7943" stroke="#2D1F04" stroke-width="0.143389" stroke-miterlimit="10" stroke-linecap="round" stroke-linejoin="round"/>
<path d="M51.4686 69.6216C50.9717 69.8893 50.5243 70.016 50.1393 70.0759C49.4899 70.177 48.9226 70.2707 48.6436 70.3778" stroke="#2D1F04" stroke-width="0.143389" stroke-miterlimit="10" stroke-linecap="round" stroke-linejoin="round"/>
<path d="M48.0184 67.923C48.7091 68.2803 49.2747 68.8064 50.4168 68.4785C51.542 68.1554 52.0618 67.8907 52.6372 67.3999C53.2121 66.9094 53.9259 66.1944 55.8809 65.7313" stroke="#2D1F04" stroke-width="0.143389" stroke-miterlimit="10" stroke-linecap="round" stroke-linejoin="round"/>
<path d="M51.3815 61.1102C50.7936 61.5759 50.0057 62.0339 48.9501 62.4393C47.276 63.0824 45.2379 62.4822 45.2197 62.4012C45.1753 62.2061 45.2396 62.053 45.3233 62.0894C46.1584 62.4182 47.1497 62.476 48.7357 61.8674C50.5565 61.1692 52.7733 59.654 52.3393 57.2482C52.3079 57.0626 52.5999 57.226 52.8537 57.4029C52.961 57.4778 53.0683 57.6013 53.0828 57.8695C53.09 57.9981 53.1653 58.7483 52.6437 59.6768" stroke="#2D1F04" stroke-width="0.143389" stroke-miterlimit="10" stroke-linecap="round" stroke-linejoin="round"/>
<path d="M45.3232 62.0906C45.316 62.0383 45.3081 61.9856 45.2988 61.9341C45.275 61.8125 45.236 61.7003 45.1799 61.5923C45.1324 61.5009 45.1585 61.6878 45.0347 61.7166C45.0351 61.6215 45.0074 61.3507 44.9157 61.2587C44.8241 61.1667 44.9217 61.4909 44.7443 61.5251C44.7136 61.2789 44.6534 61.0306 44.5564 60.943C44.4594 60.8553 44.5209 61.0885 44.3966 61.1497C44.3545 60.9132 44.2325 60.6124 44.1321 60.4886C43.1795 59.315 42.8994 58.4071 43.0624 57.203C43.1074 56.8715 43.1923 56.5276 43.3916 56.2453" stroke="#2D1F04" stroke-width="0.143389" stroke-miterlimit="10" stroke-linecap="round" stroke-linejoin="round"/>
<path d="M47.1898 58.7049C47.3152 59.1304 47.4187 59.3803 47.6028 59.6092" stroke="#2D1F04" stroke-width="0.143389" stroke-miterlimit="10" stroke-linecap="round" stroke-linejoin="round"/>
<path d="M50.827 71.3092C51.3708 70.9866 52.4373 70.2662 52.8124 69.6478" stroke="#2D1F04" stroke-width="0.143389" stroke-miterlimit="10" stroke-linecap="round" stroke-linejoin="round"/>
<path d="M44.1092 54.763C43.9872 54.6515 43.6689 54.4836 43.8266 54.2014C44.054 54.491 44.4918 54.4296 44.7633 54.3505C45.0551 54.266 45.4684 54.1471 45.4684 54.1471C45.4684 54.1471 45.1929 54.0418 45.2543 53.9743C45.2651 53.9625 46.7935 53.7688 47.5732 53.8434C50.3554 54.1085 51.342 55.7293 52.339 57.2488" stroke="#2D1F04" stroke-width="0.143389" stroke-miterlimit="10" stroke-linecap="round" stroke-linejoin="round"/>
<path d="M53.0846 57.8711C53.8353 58.4258 54.9566 59.1946 55.9988 60.09" stroke="#2D1F04" stroke-width="0.143389" stroke-miterlimit="10" stroke-linecap="round" stroke-linejoin="round"/>
<path d="M56.406 60.4514C58.6017 62.4373 59.9774 64.7031 55.8804 65.7315C54.3885 66.1058 52.952 65.9881 52.6433 66.0345C52.298 66.0863 52.0899 66.178 51.5057 66.0934C50.8823 66.0028 50.5838 65.2761 50.5948 65.2115C50.6237 65.038 50.9137 65.1887 51.316 65.1842C51.843 65.1782 52.3131 64.9185 52.6384 65.048C53.5314 65.4038 55.0008 64.429 55.0936 63.8388C55.1395 63.5462 54.9517 63.2542 54.6409 62.9486" stroke="#2D1F04" stroke-width="0.143389" stroke-miterlimit="10" stroke-linecap="round" stroke-linejoin="round"/>
<path d="M54.1761 62.5156C53.7544 62.1869 53.3923 61.9478 52.9208 61.5444" stroke="#2D1F04" stroke-width="0.143389" stroke-miterlimit="10" stroke-linecap="round" stroke-linejoin="round"/>
<path d="M50.827 71.309C51.1943 70.5283 51.7029 69.8622 52.2392 69.3719" stroke="#2D1F04" stroke-width="0.143389" stroke-miterlimit="10" stroke-linecap="round" stroke-linejoin="round"/>
<path d="M51.8414 68.9362C52.1087 69.1635 52.6549 69.7171 53.3233 69.8057" stroke="#2D1F04" stroke-width="0.143389" stroke-miterlimit="10" stroke-linecap="round" stroke-linejoin="round"/>
<path d="M44.9109 72.2402C45.6074 72.0418 46.1618 71.4537 46.8626 71.2543" stroke="#2D1F04" stroke-width="0.143389" stroke-miterlimit="10" stroke-linecap="round" stroke-linejoin="round"/>
<path d="M44.8227 72.3431C45.1066 71.8337 45.7848 71.0549 46.3733 70.8869" stroke="#2D1F04" stroke-width="0.143389" stroke-miterlimit="10" stroke-linecap="round" stroke-linejoin="round"/>
<path d="M45.8722 70.5958C46.3168 70.7827 46.9371 71.1031 47.1049 71.6941" stroke="#2D1F04" stroke-width="0.143389" stroke-miterlimit="10" stroke-linecap="round" stroke-linejoin="round"/>
<path d="M46.2109 67.7822C46.985 67.6027 47.6691 67.6835 48.1213 67.9847" stroke="#2D1F04" stroke-width="0.143389" stroke-miterlimit="10" stroke-linecap="round" stroke-linejoin="round"/>
<path d="M45.7587 65.8952C46.0633 66.2396 47.2659 66.4384 47.8392 65.9497C48.1054 65.7225 48.6259 65.777 49.1184 65.5879C49.4939 65.4436 49.708 65.1966 49.7986 65.3471C49.8325 65.4033 49.8235 66.1888 49.2776 66.5029C48.7662 66.7972 48.5391 66.7889 48.1984 66.8681C47.8945 66.9392 46.4282 68.1572 45.078 67.7818C44.4538 67.6082 44.0118 66.9642 44.3918 65.2641C44.4346 65.0718 44.4474 64.983 44.4792 64.8125" stroke="#2D1F04" stroke-width="0.143389" stroke-miterlimit="10" stroke-linecap="round" stroke-linejoin="round"/>
<path d="M44.5797 64.2745C44.7484 63.2102 44.7664 62.5489 45.2193 61.7377" stroke="#2D1F04" stroke-width="0.143389" stroke-miterlimit="10" stroke-linecap="round" stroke-linejoin="round"/>
<path d="M52.9489 67.378C52.5348 67.8308 52.2223 68.2381 51.8941 68.7605C51.501 69.387 50.7975 71.2964 50.8265 71.3093C50.9049 71.3442 52.3934 70.793 53.1722 69.9633C53.4909 69.6239 53.6794 69.4337 54.221 69.2825C55.6216 68.8917 57.6774 68.3096 58.0802 67.4901C58.6392 66.3537 57.8738 65.6323 57.0653 65.6034C55.4225 65.545 54.0761 66.5364 54.0728 66.5676" stroke="#2D1F04" stroke-width="0.143389" stroke-miterlimit="10" stroke-linecap="round" stroke-linejoin="round"/>
<path d="M46.7719 69.8247C45.6414 70.2407 44.6078 72.4997 44.7222 72.4558C46.3612 71.8263 47.818 71.7726 48.4784 71.0499C48.7503 70.752 48.6627 70.176 48.3444 69.8843" stroke="#2D1F04" stroke-width="0.143389" stroke-miterlimit="10" stroke-linecap="round" stroke-linejoin="round"/>
<path d="M45.947 67.831C44.8632 68.2437 44.7166 69.4632 45.3137 70.108C45.4619 70.268 45.5997 70.422 45.8299 70.4444" stroke="#2D1F04" stroke-width="0.143389" stroke-miterlimit="10" stroke-linecap="round" stroke-linejoin="round"/>
<path d="M43.3916 56.2452C43.0002 56.4472 42.8115 56.658 42.6154 57.0816C42.5518 56.7208 42.7658 56.3238 43.2419 55.9943C43.2604 55.9814 43.2921 55.9709 43.2911 55.9485C43.2902 55.9307 43.0929 55.9255 42.9093 55.9955C42.7661 56.0499 42.6366 56.1858 42.5753 56.1683C42.5555 56.1624 42.5958 55.8767 42.8244 55.6675C43.0371 55.4733 43.2357 55.3647 43.4212 55.3087C43.3759 55.1907 42.8615 55.4375 42.8035 55.4117C42.7951 55.4079 42.8696 55.2005 43.1247 55.0175C43.4268 54.8012 43.7658 54.6886 44.1095 54.7623" stroke="#2D1F04" stroke-width="0.143389" stroke-miterlimit="10" stroke-linecap="round" stroke-linejoin="round"/>
<path d="M52.6423 65.0457C52.5608 65.3326 52.5216 65.6748 52.6472 66.0323C52.302 66.0846 52.0937 66.1757 51.5096 66.0911C50.8862 66.0005 50.5877 65.2739 50.5987 65.2093C50.6278 65.0363 50.9176 65.1864 51.3198 65.182C51.8472 65.1752 52.317 64.9162 52.6423 65.0457Z" fill="#B6B1AE"/>
<path opacity="0.23" d="M52.5775 65.7319C52.5882 65.8222 52.608 65.9149 52.6397 66.0082C52.3207 66.0616 52.106 66.1405 51.548 66.06C50.9246 65.9693 50.6261 65.2427 50.6371 65.1781C50.8899 65.5342 51.6912 65.8039 52.5605 65.7332C52.5662 65.7328 52.5719 65.7324 52.5775 65.7319Z" fill="#3F2719"/>
<path d="M50.5986 65.2092C50.9015 65.5138 51.4764 65.8506 52.5694 65.4665" stroke="#2D1F04" stroke-width="0.143389" stroke-miterlimit="10" stroke-linecap="round" stroke-linejoin="round"/>
<path d="M52.6423 65.0457C52.5608 65.3326 52.5216 65.6748 52.6472 66.0323C52.302 66.0846 52.0937 66.1757 51.5096 66.0911C50.8862 66.0005 50.5877 65.2739 50.5987 65.2093C50.6278 65.0363 50.9176 65.1864 51.3198 65.182C51.8472 65.1752 52.317 64.9162 52.6423 65.0457Z" stroke="#2D1F04" stroke-width="0.143389" stroke-miterlimit="10" stroke-linecap="round" stroke-linejoin="round"/>
<path opacity="0.23" d="M49.2148 56.6003C49.0685 56.5445 48.9007 56.541 48.7418 56.602C48.4005 56.7331 48.2295 57.1136 48.3596 57.4523L48.3749 57.4922C48.4216 57.6138 48.5009 57.7134 48.5989 57.7854C48.4299 57.7208 48.2888 57.5886 48.2193 57.4077L48.204 57.3679C48.0739 57.0291 48.2447 56.6481 48.586 56.517C48.8042 56.4332 49.0396 56.4723 49.2148 56.6003Z" fill="#3F2719"/>
<path opacity="0.23" d="M45.2403 58.0038C45.0934 57.9483 44.9256 57.9447 44.7667 58.0058C44.4259 58.1367 44.2549 58.5172 44.385 58.8559L44.4005 58.8963C44.447 59.0173 44.5257 59.1167 44.6235 59.1882C44.4553 59.1244 44.3142 58.9921 44.2448 58.8113L44.2295 58.7714C44.0994 58.4327 44.2702 58.0517 44.6109 57.9208C44.8296 57.8368 45.0651 57.8759 45.2403 58.0038Z" fill="#3F2719"/>
<path d="M48.586 56.5171C48.9268 56.3862 49.3086 56.5544 49.4389 56.8936L49.4542 56.9335C49.5843 57.2722 49.4133 57.6527 49.0725 57.7836C48.7317 57.9145 48.35 57.7463 48.2199 57.4076L48.2046 57.3677C48.0737 57.0287 48.2448 56.6482 48.586 56.5171Z" fill="white"/>
<path d="M48.5088 57.4196C48.4672 57.3113 48.5176 57.1905 48.6218 57.1505C48.726 57.1105 48.8441 57.166 48.8859 57.2748C48.9275 57.3831 48.8771 57.5038 48.7729 57.5439C48.6687 57.5839 48.5504 57.5279 48.5088 57.4196Z" fill="#2D1F04"/>
<path d="M49.4925 57.0852C49.5484 57.4167 49.2922 57.6992 49.0725 57.7835C48.8385 57.8734 48.5023 57.8437 48.2857 57.5347C48.6054 57.5871 49.1176 57.3805 49.4925 57.0852Z" fill="#9D7B51"/>
<path d="M48.586 56.5171C48.9268 56.3862 49.3086 56.5544 49.4389 56.8936L49.4542 56.9335C49.5843 57.2722 49.4135 57.6532 49.0727 57.7841C48.7319 57.915 48.3502 57.7468 48.2199 57.4076L48.2046 57.3677C48.0737 57.0287 48.2448 56.6482 48.586 56.5171Z" stroke="#2D1F04" stroke-width="0.142294" stroke-miterlimit="10" stroke-linecap="round" stroke-linejoin="round"/>
<path d="M49.4925 57.0852C49.5484 57.4167 49.2922 57.6992 49.0725 57.7835C48.8385 57.8734 48.5023 57.8437 48.2857 57.5347C48.6054 57.5871 49.1176 57.3805 49.4925 57.0852Z" stroke="#2D1F04" stroke-width="0.142294" stroke-miterlimit="10" stroke-linecap="round" stroke-linejoin="round"/>
<path d="M44.6115 57.9205C44.2707 58.0514 44.0997 58.4319 44.23 58.7712L44.2453 58.811C44.3754 59.1497 44.7572 59.3179 45.0979 59.187C45.4387 59.0562 45.6097 58.6756 45.4796 58.3369L45.4643 58.2971C45.334 57.9578 44.9522 57.7896 44.6115 57.9205Z" fill="white"/>
<path d="M45.273 58.5394C45.2314 58.4311 45.1132 58.3751 45.009 58.4151C44.9047 58.4552 44.8542 58.5754 44.896 58.6842C44.9376 58.7926 45.0558 58.8486 45.1601 58.8085C45.2638 58.7687 45.3148 58.6482 45.273 58.5394Z" fill="#2D1F04"/>
<path d="M44.3186 58.95C44.499 59.2336 44.8784 59.272 45.0981 59.1876C45.3321 59.0977 45.562 58.8506 45.516 58.476C45.3129 58.7287 44.7941 58.918 44.3186 58.95Z" fill="#9D7B51"/>
<path d="M44.6115 57.9205C44.2707 58.0514 44.0997 58.4319 44.23 58.7712L44.2453 58.811C44.3754 59.1497 44.7574 59.3184 45.0981 59.1876C45.4389 59.0567 45.6099 58.6761 45.4796 58.3369L45.4643 58.2971C45.334 57.9578 44.9522 57.7896 44.6115 57.9205Z" stroke="#2D1F04" stroke-width="0.142294" stroke-miterlimit="10" stroke-linecap="round" stroke-linejoin="round"/>
<path d="M44.3186 58.95C44.499 59.2336 44.8784 59.272 45.0981 59.1876C45.3321 59.0977 45.562 58.8506 45.516 58.476C45.3129 58.7287 44.7941 58.918 44.3186 58.95Z" stroke="#2D1F04" stroke-width="0.142294" stroke-miterlimit="10" stroke-linecap="round" stroke-linejoin="round"/>
<rect x="47.5671" y="63.9521" width="3.36939" height="4.34499" transform="rotate(-41.4562 47.5671 63.9521)" fill="white" stroke="black" stroke-width="0.135996"/>
<path d="M49.2813 66.502C48.7698 66.7958 48.5428 66.788 48.2027 66.8671C48.1857 66.5588 48.0292 66.1605 47.8427 65.9483C48.109 65.7212 48.6298 65.775 49.122 65.5865C49.4977 65.4428 49.7116 65.1953 49.8029 65.3461C49.8366 65.4017 49.8276 66.1873 49.2813 66.502Z" fill="#B6B1AE"/>
<path opacity="0.23" d="M49.2772 66.5036C49.1774 66.5613 49.0884 66.6073 49.0066 66.6445C48.9059 66.6908 48.8176 66.7236 48.7358 66.7485C48.7242 66.7518 48.7122 66.7558 48.7006 66.7591C48.5271 66.8082 48.3808 66.8257 48.2027 66.8671C48.1959 66.7472 48.1683 66.6142 48.1258 66.4839C48.2823 66.4104 48.4428 66.3369 48.6156 66.2647C49.2837 65.9864 49.6073 65.661 49.7648 65.3127C49.7776 65.32 49.7886 65.3317 49.7983 65.3479C49.832 65.4035 49.823 66.1891 49.2772 66.5036Z" fill="#3F2719"/>
<path d="M49.2813 66.502C48.7698 66.7958 48.5428 66.788 48.2027 66.8671C48.1857 66.5588 48.0292 66.1605 47.8427 65.9483C48.109 65.7212 48.6298 65.775 49.122 65.5865C49.4977 65.4428 49.7116 65.1953 49.8029 65.3461C49.8366 65.4017 49.8276 66.1873 49.2813 66.502Z" stroke="#2D1F04" stroke-width="0.143389" stroke-miterlimit="10" stroke-linecap="round" stroke-linejoin="round"/>
<path d="M49.7033 65.3157C49.4548 65.8579 48.8255 66.1319 48.0741 66.3384" stroke="#2D1F04" stroke-width="0.143389" stroke-miterlimit="10" stroke-linecap="round" stroke-linejoin="round"/>
<path d="M41.7904 70.7901C38.8937 71.2417 37.8547 70.801 36.1357 70.5617C36.6062 69.1011 36.5899 66.9741 36.1031 65.6577C37.7432 65.0783 40.0633 66.2561 42.6825 66.2588C44.6817 66.2615 46.1151 65.4945 46.2701 66.3567C46.3272 66.6749 44.8857 70.3033 41.7904 70.7901Z" fill="#B6B1AE"/>
<path opacity="0.23" d="M41.7687 70.7902C41.2029 70.8799 40.7079 70.9343 40.2618 70.9615C39.7124 70.9969 39.2446 70.9914 38.8203 70.9615C38.7604 70.9561 38.6979 70.9534 38.638 70.9479C37.7459 70.8663 37.036 70.6868 36.1357 70.5617C36.3179 69.9932 36.4267 69.3268 36.4621 68.6469C37.3189 68.5843 38.1947 68.5299 39.1249 68.5027C42.7206 68.4021 44.8014 67.4691 46.1532 66.1337C46.1994 66.1908 46.2293 66.2642 46.2456 66.3567C46.3028 66.6749 44.8612 70.3033 41.7687 70.7902Z" fill="#3F2719"/>
<path d="M41.7904 70.7901C38.8937 71.2417 37.8547 70.801 36.1357 70.5617C36.6062 69.1011 36.5899 66.9741 36.1031 65.6577C37.7432 65.0783 40.0633 66.2561 42.6825 66.2588C44.6817 66.2615 46.1151 65.4945 46.2701 66.3567C46.3272 66.6749 44.8857 70.3033 41.7904 70.7901Z" stroke="#2D1F04" stroke-width="0.712618" stroke-miterlimit="10" stroke-linecap="round" stroke-linejoin="round"/>
<path d="M45.8621 66.0386C43.7433 68.1111 40.3353 68.2607 36.4811 67.88" stroke="#2D1F04" stroke-width="0.712618" stroke-miterlimit="10" stroke-linecap="round" stroke-linejoin="round"/>
</svg>
