<svg width="100" height="100" viewBox="0 0 100 100" fill="none" xmlns="http://www.w3.org/2000/svg">
<g clip-path="url(#clip0_58_431)">
<path d="M66.7391 74.6475C67.3357 76.4725 69.4766 77.3148 70.6699 78.7187C73.3372 81.9476 76.0748 84.9659 78.6368 88.3001C79.6546 89.5986 81.0585 92.7924 82.5677 93.5295" fill="#CAA77A"/>
<path d="M31.9232 29.6887C30.3087 29.6887 29.8876 28.0392 28.6943 27.7584C28.5539 27.7233 28.3433 27.7584 28.3082 27.8988C28.0626 28.4603 28.94 32.2859 29.3611 32.2859C29.3962 32.2859 28.589 30.7416 28.4486 30.7065C27.8169 30.5661 26.6587 30.882 25.9919 30.7767C24.2721 30.531 23.6053 31.3031 21.9557 31.619C21.8154 31.6541 20.1658 31.8647 20.1307 31.8647C19.9903 32.1455 20.7274 32.1104 21.0432 32.1104C21.4995 32.1455 23.7106 32.2157 23.8861 32.8825C23.9914 33.2686 22.5875 33.4791 22.3418 33.5142C21.7101 33.6546 16.7965 35.5498 17.1475 36.2167C17.2177 36.3571 20.5519 36.3571 21.1485 36.3571C21.2889 36.3571 21.5346 36.3571 21.5346 36.3571C21.5346 36.3571 20.5519 36.5676 20.0956 36.7431C19.0778 37.1643 18.2706 37.41 17.4985 38.1821C17.1826 38.498 17.0071 38.9191 16.7263 39.235C16.6562 39.3052 16.4105 39.3052 16.4807 39.3754C16.7965 39.6912 21.0081 38.2172 21.3942 38.6032C21.6048 38.8138 20.7976 38.884 20.6221 39.1297C20.3764 39.4456 20.1307 39.7263 19.8499 40.0422C18.8672 41.0249 18.0951 42.1129 17.3932 43.2711C15.3576 46.6755 14.5504 48.9919 13.8835 52.8525C13.7431 53.8001 13.4273 55.0987 13.6378 56.0814C14.0941 58.3276 14.0941 60.5036 14.796 62.6795C15.2523 64.0132 16.2701 67.4878 16.9369 68.7513C18.4812 71.8749 20.2009 73.3489 19.4639 76.9288C18.762 80.4384 17.323 84.0183 16.7614 87.5631C16.235 90.792 17.3932 94.1261 17.0071 97.3901C16.6211 100.97 15.6734 104.48 14.41 107.884C13.7782 109.604 12.5849 109.885 11.8128 111.394C11.6724 111.71 10.9003 112.692 11.2864 113.078C11.4268 113.219 12.0936 113.113 11.9181 112.938C11.9181 112.938 9.14547 113.921 8.79451 113.991C5.81129 114.587 2.96846 115.114 1.5295 117.992C1.31892 118.413 0.336215 119.641 0.195829 120.273C0.0554422 120.94 0.0905396 124.871 1.07325 127.292C1.28383 127.819 4.40743 129.504 4.40743 129.539C4.37233 129.714 2.72279 129.819 2.79298 130.065C3.07375 131.82 5.91658 133.119 6.89929 134.312C7.70651 135.33 7.56612 139.331 7.8118 139.506C9.67192 140.629 17.0422 140.208 18.3057 138.523C18.762 137.892 19.8499 134.171 20.0956 133.961C20.236 133.82 19.885 135.049 20.0254 135.154C20.6221 135.435 22.0259 134.873 22.6928 135.014C24.0615 135.295 26.0972 135.33 27.3957 135.54C28.0626 135.645 27.8169 135.435 28.5188 135.54C31.5371 136.032 32.4496 136.488 35.4679 137.014C35.7838 137.049 39.7848 136.979 40.0656 136.698C40.4868 136.277 42.0661 133.083 42.5224 132.943C42.6277 132.908 43.0137 132.943 42.9084 133.189C42.4873 134.417 44.9791 139.015 45.8917 139.927C46.2777 140.313 47.471 140.805 47.9624 140.98C51.0509 141.998 54.0692 140.594 57.1577 140.98C59.7899 141.296 62.352 142.138 64.914 142.665C66.3179 142.946 67.8972 142.384 69.3011 142.665C73.8988 143.577 79.9003 141.998 83.6907 139.155C85.1999 138.032 88.2884 131.89 83.1994 127.257C113.979 117.992 80.4969 81.2457 73.4425 67.4176C72.2492 65.0661 71.793 62.7497 71.3718 60.293C71.0208 58.117 70.0381 55.59 69.1607 53.5544C67.3357 49.3428 64.6684 45.763 61.7904 42.148C60.0005 39.7614 57.7894 37.9715 55.4379 36.2167C52.1038 33.6897 47.9624 32.1455 43.856 31.0575C42.4873 30.7065 41.1536 30.3906 39.8199 30.1099C39.3637 30.0046 38.8723 29.8993 38.4161 29.8291C36.8016 29.5132 38.2055 30.8118 37.8896 31.1277C37.5738 31.4435 36.4507 30.3555 35.4679 30.2502C34.4852 30.145 34.8011 30.1099 32.1689 29.4079" fill="#CAA77A"/>
<path d="M16.5158 51.589C17.323 48.2899 18.7971 46.9913 21.7452 46.4297C25.2197 45.798 26.3077 40.5335 29.6419 40.3931C30.2737 40.358 31.7126 40.0422 32.0285 39.4806C32.9761 37.6907 30.8001 36.9186 31.8881 37.1291C32.9761 37.3397 39.9252 39.7614 42.2767 40.0071C49.0855 40.7441 55.438 42.0778 59.4741 49.3779C60.3866 51.0274 62.5626 56.4674 61.615 60.679C60.2462 66.8209 59.5092 69.383 52.8759 73.9455C44.9791 79.3855 23.9563 77.771 19.1129 68.8565C19.2533 61.9074 15.0066 57.7309 16.5158 51.589Z" fill="#FFDBAF"/>
<path d="M35.4679 60.0824C32.7304 58.7136 29.5717 64.1536 29.4664 68.0142C29.1857 75.911 39.9252 77.8062 45.9268 73.8754C52.209 69.769 44.6282 57.6958 39.855 59.6261" fill="#9D7B51"/>
<path d="M16.4807 50.0799C13.8835 55.7304 17.2177 67.1017 19.4639 69.3128C22.0961 68.4705 24.237 67.3825 25.9217 66.0839C36.7665 57.8362 29.9227 42.0778 29.1857 41.3408C28.6943 40.8495 19.7798 46.3596 18.797 46.5351C17.3932 46.7808 17.0071 48.9217 16.4807 50.0799Z" fill="#9D7B51"/>
<path d="M43.3296 41.025C38.381 64.8556 57.8596 69.8744 59.7899 67.0667C61.0183 65.2768 63.44 56.9238 60.2462 51.2732C59.9303 50.7117 55.5432 44.4294 54.9466 44.5347C50.1734 45.3068 44.3123 36.2519 43.3296 41.025Z" fill="#9D7B51"/>
<path d="M84.4278 34.7427C84.3225 34.6374 84.2523 34.497 84.147 34.3917L84.4278 34.7427Z" fill="#9D7B51"/>
<path opacity="0.23" d="M15.6032 39.6561C17.2528 39.6561 18.6216 39.1998 20.2009 38.8489C20.6572 38.7436 21.5697 38.2522 21.5697 38.7085C21.5697 38.8138 21.3942 38.7787 21.2889 38.8489C19.9201 39.6561 18.8321 40.8143 18.0249 42.2533C17.7441 42.7446 17.0422 44.0783 17.2177 43.7273C23.4298 32.5315 68.4939 28.3199 65.8967 73.8402C65.8616 74.2614 65.3703 74.9282 65.7563 75.0686C66.5636 75.3494 67.6516 70.9623 68.6694 71.3484C69.1256 71.5238 72.2141 65.8733 72.5651 65.6276C73.1617 65.2416 72.3896 66.4348 72.3545 65.768C71.5824 53.6948 65.1597 44.4292 56.2802 36.708C48.945 30.3204 38.5213 29.8641 38.2406 29.7939C38.2055 29.7939 37.1526 30.4257 36.6261 30.3204C34.6607 30.0045 32.4847 29.2675 30.5193 28.7059C30.2034 28.6358 28.4135 27.2319 28.3433 27.3372C28.1327 27.7934 27.9924 30.2502 28.2029 30.6012C28.3433 30.8468 29.326 30.4608 29.0102 30.4608C26.4832 30.4608 23.3245 31.268 20.6221 31.8295C20.5168 31.8646 20.3413 31.8646 20.3413 31.9699C20.3413 32.7421 23.851 32.2507 23.851 32.7772C23.851 33.1632 18.9725 34.532 18.3057 35.0935C18.0951 35.269 17.323 35.8657 17.4985 36.0411C18.1653 36.708 19.7446 35.8657 20.6221 36.3219" fill="#3F2719"/>
<path d="M21.1836 38.4979C19.3235 39.7263 18.0249 41.5864 17.0071 43.4816C13.2518 50.3255 13.1465 56.2919 15.8489 65.6276C16.4456 67.7334 17.4985 69.6988 18.4461 71.5941C18.8322 72.3662 19.3586 73.2085 19.499 74.0859C19.5692 74.5071 19.3235 75.2441 19.499 75.5951C19.5692 75.7706 19.9552 75.1739 19.9903 75.3494C20.0956 76.1566 19.9903 77.0691 19.9202 77.8413C19.8851 78.122 19.5341 78.9293 19.7447 78.7187C19.8149 78.6485 20.0254 77.9816 20.3062 78.0869C20.4817 78.1571 20.3062 82.4038 20.236 82.825" stroke="#2D1F04" stroke-width="0.919532" stroke-miterlimit="10" stroke-linecap="round" stroke-linejoin="round"/>
<path d="M20.6221 38.7436C19.7096 39.1999 19.148 39.1999 18.2004 39.4807C17.7442 39.621 17.3932 39.7965 16.9018 39.8667C16.4807 39.972 16.0244 40.0071 15.6033 40.1124C15.4278 40.1826 15.0417 40.4634 15.0417 40.2879C15.0417 39.6912 19.8851 36.9888 20.8327 36.6729C20.9731 36.6378 21.1836 36.6378 21.2187 36.4974C21.2889 36.2869 20.8678 36.322 20.6572 36.2518C19.7447 36.0061 17.5687 36.7431 16.7965 36.1816C16.586 36.0412 18.2355 35.0234 18.3057 34.9883C19.3235 34.4267 20.3062 33.6897 21.4293 33.3738C22.0961 33.1984 23.4298 33.6546 23.4298 32.9878C23.4298 32.1805 19.7798 32.4613 19.499 32.1805C19.4639 32.1455 19.6043 32.1104 19.6745 32.1104C20.5168 31.6892 21.4293 31.3733 22.3067 31.1627C23.9563 30.7767 26.9395 30.3906 28.5539 30.9171" stroke="#2D1F04" stroke-width="0.919532" stroke-miterlimit="10" stroke-linecap="round" stroke-linejoin="round"/>
<path d="M28.8698 31.2681C28.3784 30.3204 27.5361 28.7411 27.9924 27.6531C28.0275 27.5829 28.3784 27.1968 28.4837 27.267C28.7996 27.4425 29.0453 28.0041 29.4313 28.2146C31.0107 29.057 32.8006 29.6536 34.5554 30.0748C35.6083 30.3204 36.6612 30.3906 37.679 30.6363C37.9247 30.6714 38.4161 30.7065 38.4161 30.7065C38.4161 30.7065 37.0122 29.443 37.5387 29.1974C37.6439 29.1623 47.3657 31.233 51.7177 33.7599" stroke="#2D1F04" stroke-width="0.919532" stroke-miterlimit="10" stroke-linecap="round" stroke-linejoin="round"/>
<path d="M41.6099 39.8667C57.6139 41.446 61.8957 53.6948 61.8957 53.6948" stroke="#2D1F04" stroke-width="2.66734" stroke-miterlimit="10" stroke-linecap="round" stroke-linejoin="round"/>
<path d="M29.9578 41.0601C15.8138 42.5692 13.1465 58.6084 13.1465 58.6084" stroke="#2D1F04" stroke-width="2.66734" stroke-miterlimit="10" stroke-linecap="round" stroke-linejoin="round"/>
<path d="M33.5376 60.293C33.5025 59.2401 35.503 58.3276 38.0651 58.1872C40.6271 58.0468 42.7329 58.7838 42.8031 59.8367C42.8382 60.8896 40.8377 61.8021 38.2757 61.9425C35.6785 62.0829 33.5727 61.3459 33.5376 60.293Z" fill="#251707"/>
<path d="M48.3835 25.5473C48.3835 25.5122 48.4186 25.5122 48.4537 25.5122C48.4888 25.5122 48.5239 25.5473 48.5239 25.5473C48.5239 25.5824 48.4888 25.5824 48.4537 25.5824C48.4186 25.6175 48.3835 25.5824 48.3835 25.5473Z" fill="#2D1F04"/>
<path d="M37.9598 62.0479C37.6089 67.3474 42.4522 63.9782 42.7681 69.4883" stroke="#2D1F04" stroke-width="1.07045" stroke-miterlimit="10" stroke-linecap="round" stroke-linejoin="round"/>
<path d="M44.2772 29.4782C44.1719 29.3729 44.1017 29.2325 43.9964 29.1272L44.2772 29.4782Z" fill="#9D7B51"/>
<path d="M24.6231 51.3434C26.9746 51.3434 28.8698 53.2386 28.8698 55.555V55.8358C28.8698 58.1521 26.9746 60.0473 24.6231 60.0473C22.2716 60.0473 20.3764 58.1521 20.3764 55.8358V55.555C20.3764 53.2035 22.2716 51.3434 24.6231 51.3434Z" fill="white"/>
<path d="M24.6231 51.3434C26.9746 51.3434 28.8698 53.2386 28.8698 55.555V55.8358C28.8698 58.1521 26.9746 60.0473 24.6231 60.0473C22.2716 60.0473 20.3764 58.1521 20.3764 55.8358V55.555C20.3764 53.2035 22.2716 51.3434 24.6231 51.3434Z" stroke="#2D1F04" stroke-width="0.912513" stroke-miterlimit="10" stroke-linecap="round" stroke-linejoin="round"/>
<path d="M51.6475 52.0804C53.999 52.0804 55.8942 53.9757 55.8942 56.292V56.5728C55.8942 58.8892 53.999 60.7844 51.6475 60.7844C49.296 60.7844 47.4008 58.8892 47.4008 56.5728V56.292C47.4008 53.9406 49.296 52.0804 51.6475 52.0804Z" fill="white"/>
<path d="M51.6475 52.0804C53.999 52.0804 55.8942 53.9757 55.8942 56.292V56.5728C55.8942 58.8892 53.999 60.7844 51.6475 60.7844C49.296 60.7844 47.4008 58.8892 47.4008 56.5728V56.292C47.4008 53.9406 49.296 52.0804 51.6475 52.0804Z" stroke="#2D1F04" stroke-width="0.912513" stroke-miterlimit="10" stroke-linecap="round" stroke-linejoin="round"/>
<path d="M23.7106 55.6251C23.7106 55.0285 24.1668 54.5371 24.7284 54.5371C25.2899 54.5371 25.7462 55.0285 25.7462 55.6251C25.7462 56.2218 25.2899 56.7131 24.7284 56.7131C24.1668 56.678 23.7106 56.1867 23.7106 55.6251Z" fill="#2D1F04"/>
<path d="M50.6999 56.1866C50.6999 55.59 51.1561 55.0986 51.7177 55.0986C52.2792 55.0986 52.7355 55.59 52.7355 56.1866C52.7355 56.7833 52.2792 57.2746 51.7177 57.2746C51.1912 57.2395 50.6999 56.7482 50.6999 56.1866Z" fill="#2D1F04"/>
<path opacity="0.23" d="M66.704 74.3667C102.573 106.199 90.0783 120.975 84.3225 123.116C77.619 125.643 76.1801 124.134 73.0565 124.66C72.2141 124.801 70.5295 124.906 70.5295 124.906C70.5295 124.906 75.057 124.309 76.18 125.853C81.2691 133.083 71.7579 137.014 66.1073 129.679C64.8087 127.994 62.8082 125.292 61.1938 126.345C58.2808 128.24 58.4212 135.365 57.0524 135.4C55.6485 135.435 53.2619 130.1 52.8057 126.626C47.8571 128.416 42.031 132.908 35.0117 140.84C34.8713 141.015 31.4318 145.086 31.8881 145.402C33.0112 146.139 36.6963 143.683 37.7492 143.226C42.1363 141.366 46.9095 139.436 51.5422 140.348C52.9461 140.629 59.2635 141.156 60.7726 141.542C66.5636 142.981 83.3398 143.823 85.1297 136.733C85.7965 134.066 87.6567 132.417 83.0941 127.152C82.6729 126.661 83.3398 127.328 83.3398 126.661C83.3398 126.38 89.0605 124.204 89.6923 123.678C93.6231 120.308 94.2548 116.834 95.2024 112.025C97.3784 101.216 83.7258 83.0005 77.5839 75.3143C75.4079 72.5768 74.5656 69.9796 73.0214 66.9262C72.9512 66.7507 71.8632 66.3296 71.6877 66.3296C70.354 66.3998 67.441 74.5422 66.704 74.3667Z" fill="#3F2719"/>
<path d="M72.4247 65.1714C73.2319 73.3138 115.664 116.588 83.41 126.906" stroke="#2D1F04" stroke-width="0.919532" stroke-miterlimit="10" stroke-linecap="round" stroke-linejoin="round"/>
<path d="M66.0371 92.1256C71.5473 97.6358 77.233 107.884 71.793 115.535C69.5819 118.659 66.8093 121.607 62.9486 122.379C59.7899 123.011 56.7014 120.659 53.8937 123.467C51.7528 125.608 53.4024 130.381 54.6658 132.522C55.0519 133.154 57.2981 135.821 57.2981 135.821C57.2981 135.821 58.5616 127.187 61.7203 125.889" stroke="#2D1F04" stroke-width="0.919532" stroke-miterlimit="10" stroke-linecap="round" stroke-linejoin="round"/>
<path opacity="0.23" d="M2.37183 117.43C2.51222 117.044 1.88048 118.097 1.705 118.448C1.31894 119.255 1.35403 120.449 1.63481 121.291C2.40693 123.572 5.28486 124.941 7.49594 125.432C12.4797 126.52 18.7971 120.063 22.2716 121.291C23.3596 121.677 23.5351 126.064 23.9212 127.222C26.1674 133.961 35.7487 134.733 39.6445 133.575C43.4349 132.452 52.5249 127.643 52.8057 127.293C53.9288 125.889 52.6653 123.572 54.8764 123.397C63.7559 122.765 78.1806 120.203 66.1424 93.0733C65.5458 91.7396 73.1267 101.777 73.3021 103.953C73.8286 111.183 74.6007 114.693 68.88 119.466C67.7569 120.378 66.1424 121.923 64.5631 122.098C61.0534 122.484 60.8428 122.414 53.648 123.397C51.8581 123.642 53.1567 126.169 52.7004 127.468C52.6302 127.679 49.5417 128.731 49.0504 129.118C48.173 129.855 38.9074 137.049 38.6618 137.084C34.4151 137.541 23.3596 134.242 20.3062 135.891C18.5865 136.839 20.3764 137.822 17.8495 138.804C13.322 140.559 3.63531 139.12 -1.06764 138.699C-2.05034 138.594 -5.80568 138.629 -6.29704 137.751C-7.03407 136.383 1.81029 129.574 3.7406 129.293C3.88099 129.258 2.6877 129.469 2.6877 129.293C2.79299 128.205 2.16125 128.03 1.45932 127.187C-0.892153 124.274 1.24874 120.098 2.37183 117.43Z" fill="#3F2719"/>
<path opacity="0.23" d="M28.3433 87.0366C16.972 114.412 5.17955 110.797 2.40692 102.69C1.91556 102.655 2.82807 107.428 2.86317 107.954C3.38962 112.762 11.8128 122.133 22.0961 100.689" fill="#3F2719"/>
<path opacity="0.23" d="M40.7676 68.7161C39.9603 68.3652 39.3637 69.769 38.8723 70.4008C37.9949 71.4888 37.1877 73.0681 37.4334 74.6124C37.644 75.8057 38.5214 77.9115 37.8194 79.0696C36.8367 80.7192 34.8362 81.9827 33.5026 83.2812C31.5371 85.2467 30.2035 88.0193 29.1857 90.5462C28.9049 91.2131 28.2381 93.5646 27.4659 96.1266C26.5885 99.0396 25.5356 102.233 24.7284 103.707C24.1318 104.795 23.1841 106.796 22.026 107.358C21.5697 107.568 19.1831 106.199 19.3235 105.848C20.0254 103.953 21.5346 102.514 22.2716 100.654C23.3947 97.8113 24.4125 95.179 25.7813 92.4415C27.0097 89.9496 28.2381 87.6683 29.677 85.2817C30.0982 84.5447 30.2386 83.6322 30.8001 82.9654C31.7477 81.7721 35.2925 79.6312 35.5733 78.5081C36.0295 76.6831 34.1694 74.5773 34.8713 72.8575C35.5382 71.1729 37.2228 70.4008 38.7671 69.7339C39.118 69.6286 41.1185 68.8916 40.7676 68.7161Z" fill="#3F2719"/>
<path d="M45.8917 31.3031C47.5763 31.8646 49.1556 32.5315 50.6648 33.2685C66.9847 41.3056 72.0387 58.854 72.4247 65.0661" stroke="#2D1F04" stroke-width="0.919532" stroke-miterlimit="10" stroke-linecap="round" stroke-linejoin="round"/>
<path opacity="0.23" d="M62.8433 101.707C61.2991 101.918 60.8428 105.954 52.4898 104.48C47.5412 103.602 46.5585 102.023 43.5402 101.426C39.8901 100.689 38.3108 101.251 34.6256 101.707C27.7818 102.584 27.0447 99.2503 26.6236 101.321C26.2024 103.357 39.0829 101.04 42.0661 102.198C46.8393 104.059 51.3316 107.393 57.2279 106.831C60.5269 106.55 65.8616 101.286 62.8433 101.707Z" fill="#3F2719"/>
<path d="M75.057 68.8571C74.7411 68.8571 74.4603 68.8922 74.1444 68.9975C69.5117 70.4013 63.3698 72.6124 60.3866 76.8591C59.439 78.1928 57.9649 81.7375 56.6663 82.6852C56.0697 83.1063 55.2976 83.352 54.5605 83.5275C50.8754 84.2996 48.0676 84.6857 44.4176 85.4578C36.556 87.1424 29.6419 86.5809 21.7452 84.8611C20.4817 84.5804 17.2177 84.2996 15.9191 84.0539C14.41 83.7731 14.0239 84.8606 12.5147 84.4746C10.7248 83.9832 14.4451 87.4578 10.2335 86.7559C10.0931 85.2467 11.4573 83.0848 12.44 84.4535C12.8611 85.0502 8.68921 87.1775 9.07527 87.7742C9.28585 88.09 8.7945 88.441 8.68921 88.6165C6.96947 91.0732 5.88148 93.8459 4.86368 96.5834C4.19684 98.3383 3.77568 99.9878 3.38962 101.708C5.706 101.672 91.1312 100.9 96.15 100.725C95.4481 92.793 93.6933 84.5102 90.0432 79.2808C87.9023 76.2274 84.9893 72.1913 81.1638 71.1735C79.2686 70.6119 77.1979 68.822 75.057 68.8571Z" fill="#FFDB1F"/>
<path d="M50.1033 90.3709C43.8912 92.7224 19.7096 92.5469 12.1638 87.1771" stroke="#2D1F04" stroke-width="0.919532" stroke-miterlimit="10" stroke-linecap="round" stroke-linejoin="round"/>
<path d="M16.6211 83.9481C16.3052 84.9308 15.9893 85.6679 15.9893 86.7559" stroke="#2D1F04" stroke-width="0.919532" stroke-miterlimit="10" stroke-linecap="round" stroke-linejoin="round"/>
<path d="M22.2014 85.1765C21.7803 86.0539 21.7101 87.2472 21.7101 88.2299" stroke="#2D1F04" stroke-width="0.919532" stroke-miterlimit="10" stroke-linecap="round" stroke-linejoin="round"/>
<path d="M28.9049 86.089L28.5539 88.5107" stroke="#2D1F04" stroke-width="0.919532" stroke-miterlimit="10" stroke-linecap="round" stroke-linejoin="round"/>
<path d="M33.6429 86.7559V87.177V87.4227V87.8439V88.0895V88.3703V88.616" stroke="#2D1F04" stroke-width="0.919532" stroke-miterlimit="10" stroke-linecap="round" stroke-linejoin="round"/>
<path d="M31.0107 86.8962V87.177V87.4227V87.7035V87.9491V88.2299" stroke="#2D1F04" stroke-width="0.919532" stroke-miterlimit="10" stroke-linecap="round" stroke-linejoin="round"/>
<path d="M49.5066 86.089V86.3698V86.6154V87.177V87.4227" stroke="#2D1F04" stroke-width="0.919532" stroke-miterlimit="10" stroke-linecap="round" stroke-linejoin="round"/>
<path d="M51.3667 86.089V86.5101V86.8962V87.177" stroke="#2D1F04" stroke-width="0.919532" stroke-miterlimit="10" stroke-linecap="round" stroke-linejoin="round"/>
<path d="M12.8657 82.1932C33.2994 89.5982 54.0933 84.3418 56.3856 82.8455" stroke="#2D1F04" stroke-width="0.919532" stroke-miterlimit="10" stroke-linecap="round" stroke-linejoin="round"/>
<path d="M6.58341 114.026C0.441496 111.359 0.722269 100.408 2.54729 96.1266C7.46082 84.6149 17.2528 76.9639 28.3082 71.6643C33.8886 68.9969 41.4344 67.558 41.4344 67.6984C41.4344 67.9089 39.2935 68.9969 39.0127 69.1724C37.3281 70.0147 34.8713 71.6994 34.4852 73.6999C34.2396 74.8581 35.2223 76.5076 34.9064 77.9115C34.3799 80.0875 31.9934 81 30.765 82.6144C29.677 84.0534 28.7294 85.7731 27.9222 87.3876C23.6053 95.9161 15.1821 117.781 6.58341 114.026Z" fill="#CAA77A"/>
<path d="M28.7996 72.0503C28.3082 72.4363 30.1333 73.1383 30.6246 73.6998C31.3616 74.5421 31.853 76.2268 32.2391 77.3148C32.5549 78.2273 32.6953 79.2451 32.8708 80.1576C32.9059 80.3331 32.6953 81.2456 32.941 81.2105C33.5025 81.1052 33.7131 80.5437 34.1343 80.2278C37.1877 77.9465 33.7833 73.8753 35.8891 71.8046C36.4507 71.243 41.0483 68.6108 41.0483 68.4704C41.0483 68.0142 38.4512 68.5055 38.2055 68.6108C35.117 69.8041 31.3967 70.0498 28.7996 72.0503Z" fill="#D2D2D2"/>
<path d="M23.9914 78.5082L23.9563 80.7895" stroke="#9D7B51" stroke-width="1.35824" stroke-miterlimit="10" stroke-linecap="round" stroke-linejoin="round"/>
<path d="M26.2375 79.6663L26.2025 81.9475" stroke="#9D7B51" stroke-width="1.35824" stroke-miterlimit="10" stroke-linecap="round" stroke-linejoin="round"/>
<path d="M28.5188 71.9449C28.5188 72.6469 32.8357 74.858 32.8357 81.0701" stroke="#2D1F04" stroke-width="0.919532" stroke-miterlimit="10" stroke-linecap="round" stroke-linejoin="round"/>
<path d="M41.0132 68.4004C39.3637 69.2427 32.4847 73.9457 31.6775 75.5952L41.0132 68.4004Z" fill="#CAA77A"/>
<path d="M41.0132 68.4004C39.3637 69.2427 32.4847 73.9457 31.6775 75.5952" stroke="#2D1F04" stroke-width="0.919532" stroke-miterlimit="10" stroke-linecap="round" stroke-linejoin="round"/>
<path d="M35.0819 75.7004C34.9415 75.6302 32.5549 77.9466 32.5549 77.9466L35.0819 75.7004Z" fill="#CAA77A"/>
<path d="M35.0819 75.7004C34.9415 75.6302 32.5549 77.9466 32.5549 77.9466" stroke="#2D1F04" stroke-width="0.919532" stroke-miterlimit="10" stroke-linecap="round" stroke-linejoin="round"/>
<path d="M7.07477 114.166C0.93286 111.499 1.21363 100.549 3.03866 96.267C7.95219 84.7553 17.7442 77.1042 28.7996 71.8047C34.38 69.1373 41.9257 67.6983 41.9257 67.8387C41.9257 68.0493 39.7848 69.1373 39.5041 69.3128C37.8194 70.1551 35.3627 71.8397 34.9766 73.8403C34.766 74.9984 35.7136 76.648 35.3978 78.0519C34.8713 80.2278 32.4847 81.1404 31.2564 82.7548C30.1684 84.1938 29.2208 85.9135 28.4135 87.5279C24.1317 96.0564 15.7085 117.887 7.07477 114.166Z" stroke="#2D1F04" stroke-width="0.919532" stroke-miterlimit="10" stroke-linecap="round" stroke-linejoin="round"/>
<path d="M87.5163 75.4124C88.5341 76.9215 89.4817 78.6412 90.3942 80.2206C92.7808 84.5726 95.0621 93.3818 96.3256 100.296" stroke="#2D1F04" stroke-width="0.919532" stroke-miterlimit="10" stroke-linecap="round" stroke-linejoin="round"/>
<path d="M55.5432 92.6097C57.8947 94.9612 60.0356 97.3829 61.3693 100.752" stroke="#2D1F04" stroke-width="0.919532" stroke-miterlimit="10" stroke-linecap="round" stroke-linejoin="round"/>
<path d="M60.3515 98.5762C60.0707 96.4353 59.8601 93.6978 58.9476 91.7675" stroke="#2D1F04" stroke-width="0.919532" stroke-miterlimit="10" stroke-linecap="round" stroke-linejoin="round"/>
<path d="M78.7421 69.6915C64.5982 66.1819 55.6485 82.8879 56.4206 83.5196" stroke="#2D1F04" stroke-width="0.919532" stroke-miterlimit="10" stroke-linecap="round" stroke-linejoin="round"/>
<path d="M88.0076 76.2194C85.3403 72.5343 83.1643 71.2006 78.8474 69.7266" stroke="#2D1F04" stroke-width="0.919532" stroke-miterlimit="10" stroke-linecap="round" stroke-linejoin="round"/>
<path d="M83.9557 50.0809C83.2758 50.4494 82.5563 50.521 81.7971 50.2956C81.0741 50.0809 80.5283 49.6336 80.1597 48.9538L78.8252 46.4922L76.3637 47.8267L74.8386 45.0135L77.3001 43.679C77.98 43.3105 78.6815 43.2335 79.4045 43.4482C80.1637 43.6736 80.7276 44.1263 81.0962 44.8061L82.4306 47.2677L87.3537 44.5988L83.7316 37.9174L81.2701 39.2519L79.745 36.4387L82.2065 35.1042C82.8864 34.7356 83.5878 34.6587 84.3109 34.8734C85.0701 35.0988 85.634 35.5514 86.0025 36.2313L90.0059 43.6159C90.3745 44.2958 90.4397 45.0036 90.2015 45.7394C89.9996 46.4859 89.5587 47.0434 88.8788 47.412L83.9557 50.0809ZM71.6312 50.8472L69.9155 47.6824L72.7287 46.1573L74.4444 49.3221L71.6312 50.8472Z" fill="#1F1F1F"/>
<path d="M81.7971 50.2956L82.0817 49.3369L81.7971 50.2956ZM78.8252 46.4922L79.7044 46.0156C79.4411 45.5301 78.8342 45.3499 78.3486 45.6131L78.8252 46.4922ZM76.3637 47.8267L75.4846 48.3033C75.7478 48.7888 76.3548 48.969 76.8403 48.7058L76.3637 47.8267ZM74.8386 45.0135L74.362 44.1343C73.8765 44.3976 73.6963 45.0045 73.9595 45.4901L74.8386 45.0135ZM79.4045 43.4482L79.6891 42.4896L79.4045 43.4482ZM82.4306 47.2677L81.5515 47.7443C81.8147 48.2298 82.4217 48.41 82.9072 48.1468L82.4306 47.2677ZM87.3537 44.5988L87.8303 45.4779C88.3158 45.2147 88.496 44.6077 88.2328 44.1222L87.3537 44.5988ZM83.7316 37.9174L84.6107 37.4408C84.3475 36.9553 83.7406 36.7751 83.255 37.0383L83.7316 37.9174ZM81.2701 39.2519L80.3909 39.7284C80.6542 40.214 81.2611 40.3942 81.7467 40.131L81.2701 39.2519ZM79.745 36.4387L79.2684 35.5595C78.7829 35.8227 78.6026 36.4297 78.8659 36.9152L79.745 36.4387ZM84.3109 34.8734L84.0262 35.832L84.3109 34.8734ZM90.2015 45.7394L89.2501 45.4314C89.2451 45.4469 89.2405 45.4625 89.2363 45.4782L90.2015 45.7394ZM71.6312 50.8472L70.7521 51.3238C71.0153 51.8093 71.6223 51.9896 72.1078 51.7264L71.6312 50.8472ZM69.9155 47.6824L69.4389 46.8033C68.9534 47.0665 68.7732 47.6734 69.0364 48.159L69.9155 47.6824ZM72.7287 46.1573L73.6078 45.6807C73.3446 45.1952 72.7376 45.0149 72.2521 45.2782L72.7287 46.1573ZM74.4444 49.3221L74.921 50.2013C75.4065 49.938 75.5868 49.3311 75.3235 48.8455L74.4444 49.3221ZM83.4791 49.2017C83.0386 49.4405 82.5936 49.4889 82.0817 49.3369L81.5125 51.2542C82.5191 51.5531 83.5131 51.4583 84.4323 50.96L83.4791 49.2017ZM82.0817 49.3369C81.6201 49.1999 81.2846 48.9305 81.0388 48.4772L79.2806 49.4304C79.7719 50.3368 80.5281 50.9619 81.5125 51.2542L82.0817 49.3369ZM81.0388 48.4772L79.7044 46.0156L77.9461 46.9688L79.2806 49.4304L81.0388 48.4772ZM78.3486 45.6131L75.8871 46.9475L76.8403 48.7058L79.3018 47.3713L78.3486 45.6131ZM77.2428 47.3501L75.7177 44.5369L73.9595 45.4901L75.4846 48.3033L77.2428 47.3501ZM75.3152 45.8926L77.7767 44.5581L76.8236 42.7999L74.362 44.1343L75.3152 45.8926ZM77.7767 44.5581C78.23 44.3124 78.6582 44.2698 79.1199 44.4068L79.6891 42.4896C78.7047 42.1973 77.73 42.3085 76.8236 42.7999L77.7767 44.5581ZM79.1199 44.4068C79.6317 44.5588 79.9782 44.8422 80.217 45.2827L81.9753 44.3295C81.4769 43.4103 80.6957 42.7884 79.6891 42.4896L79.1199 44.4068ZM80.217 45.2827L81.5515 47.7443L83.3097 46.7911L81.9753 44.3295L80.217 45.2827ZM82.9072 48.1468L87.8303 45.4779L86.8771 43.7196L81.954 46.3885L82.9072 48.1468ZM88.2328 44.1222L84.6107 37.4408L82.8525 38.394L86.4746 45.0753L88.2328 44.1222ZM83.255 37.0383L80.7935 38.3727L81.7467 40.131L84.2082 38.7965L83.255 37.0383ZM82.1492 38.7753L80.6241 35.9621L78.8659 36.9152L80.3909 39.7284L82.1492 38.7753ZM80.2216 37.3178L82.6831 35.9833L81.7299 34.2251L79.2684 35.5595L80.2216 37.3178ZM82.6831 35.9833C83.1364 35.7376 83.5646 35.6949 84.0262 35.832L84.5955 33.9147C83.6111 33.6225 82.6363 33.7337 81.7299 34.2251L82.6831 35.9833ZM84.0262 35.832C84.5381 35.984 84.8846 36.2674 85.1234 36.7079L86.8817 35.7547C86.3833 34.8355 85.6021 34.2136 84.5955 33.9147L84.0262 35.832ZM85.1234 36.7079L89.1268 44.0925L90.885 43.1394L86.8817 35.7547L85.1234 36.7079ZM89.1268 44.0925C89.3649 44.5318 89.404 44.9561 89.2501 45.4314L91.153 46.0473C91.4754 45.0512 91.384 44.0598 90.885 43.1394L89.1268 44.0925ZM89.2363 45.4782C89.1058 45.9605 88.8415 46.2947 88.4022 46.5328L89.3554 48.2911C90.2758 47.7921 90.8934 47.0112 91.1668 46.0005L89.2363 45.4782ZM88.4022 46.5328L83.4791 49.2017L84.4323 50.96L89.3554 48.2911L88.4022 46.5328ZM72.5103 50.3706L70.7946 47.2058L69.0364 48.159L70.7521 51.3238L72.5103 50.3706ZM70.3921 48.5615L73.2053 47.0364L72.2521 45.2782L69.4389 46.8033L70.3921 48.5615ZM71.8496 46.6339L73.5653 49.7987L75.3235 48.8455L73.6078 45.6807L71.8496 46.6339ZM73.9678 48.443L71.1546 49.9681L72.1078 51.7264L74.921 50.2013L73.9678 48.443Z" fill="#FDFDFF"/>
<path d="M69.4414 28.1428C69.019 28.7906 68.4203 29.196 67.6453 29.3592C66.9072 29.5146 66.2143 29.3811 65.5665 28.9586L63.2212 27.4291L61.6917 29.7745L59.0113 28.0264L60.5408 25.6811C60.9633 25.0334 61.5435 24.6318 62.2816 24.4764C63.0566 24.3132 63.7679 24.4429 64.4157 24.8653L66.761 26.3948L69.82 21.7041L63.4541 17.5526L61.9246 19.8979L59.2442 18.1499L60.7737 15.8046C61.1962 15.1568 61.7764 14.7553 62.5145 14.5999C63.2895 14.4367 64.0008 14.5663 64.6486 14.9888L71.6846 19.5773C72.3324 19.9997 72.7266 20.5912 72.8675 21.3516C73.0452 22.1042 72.9229 22.8044 72.5004 23.4522L69.4414 28.1428ZM58.9677 34.6836L55.9523 32.7171L57.7003 30.0367L60.7157 32.0033L58.9677 34.6836Z" fill="#1F1F1F"/>
<path d="M67.6453 29.3592L67.4393 28.3807L67.6453 29.3592ZM63.2212 27.4291L63.7675 26.5915C63.3049 26.2898 62.6853 26.4203 62.3836 26.8829L63.2212 27.4291ZM61.6917 29.7745L61.1454 30.6121C61.6081 30.9138 62.2276 30.7833 62.5293 30.3207L61.6917 29.7745ZM59.0113 28.0264L58.1737 27.4802C57.872 27.9428 58.0025 28.5624 58.4651 28.8641L59.0113 28.0264ZM62.2816 24.4764L62.0756 23.4978L62.2816 24.4764ZM66.761 26.3948L66.2148 27.2324C66.6774 27.5341 67.2969 27.4037 67.5986 26.9411L66.761 26.3948ZM69.82 21.7041L70.6577 22.2504C70.9593 21.7878 70.8289 21.1682 70.3663 20.8665L69.82 21.7041ZM63.4541 17.5526L64.0004 16.715C63.5378 16.4133 62.9182 16.5437 62.6165 17.0063L63.4541 17.5526ZM61.9246 19.8979L61.3784 20.7356C61.841 21.0372 62.4605 20.9068 62.7622 20.4442L61.9246 19.8979ZM59.2442 18.1499L58.4066 17.6037C58.1049 18.0663 58.2354 18.6859 58.698 18.9875L59.2442 18.1499ZM62.5145 14.5999L62.7205 15.5784L62.5145 14.5999ZM72.8675 21.3516L71.8842 21.5337C71.8872 21.5497 71.8905 21.5656 71.8942 21.5814L72.8675 21.3516ZM58.9677 34.6836L58.4215 35.5213C58.8841 35.8229 59.5037 35.6925 59.8053 35.2299L58.9677 34.6836ZM55.9523 32.7171L55.1147 32.1709C54.813 32.6335 54.9434 33.253 55.406 33.5547L55.9523 32.7171ZM57.7003 30.0367L58.2466 29.1991C57.784 28.8974 57.1644 29.0279 56.8627 29.4905L57.7003 30.0367ZM60.7157 32.0033L61.5534 32.5495C61.855 32.0869 61.7246 31.4673 61.262 31.1656L60.7157 32.0033ZM68.6038 27.5966C68.3301 28.0163 67.9617 28.2707 67.4393 28.3807L67.8513 30.3378C68.8788 30.1214 69.7078 29.5649 70.279 28.6891L68.6038 27.5966ZM67.4393 28.3807C66.968 28.4799 66.5447 28.4027 66.1128 28.121L65.0203 29.7963C65.8839 30.3595 66.8465 30.5493 67.8513 30.3378L67.4393 28.3807ZM66.1128 28.121L63.7675 26.5915L62.675 28.2667L65.0203 29.7963L66.1128 28.121ZM62.3836 26.8829L60.8541 29.2282L62.5293 30.3207L64.0588 27.9754L62.3836 26.8829ZM62.238 28.9368L59.5576 27.1888L58.4651 28.8641L61.1454 30.6121L62.238 28.9368ZM59.8489 28.5727L61.3785 26.2274L59.7032 25.1349L58.1737 27.4802L59.8489 28.5727ZM61.3785 26.2274C61.6601 25.7955 62.0163 25.5542 62.4876 25.4549L62.0756 23.4978C61.0707 23.7094 60.2664 24.2712 59.7032 25.1349L61.3785 26.2274ZM62.4876 25.4549C63.0101 25.3449 63.4497 25.4292 63.8694 25.7029L64.9619 24.0277C64.0861 23.4565 63.1031 23.2815 62.0756 23.4978L62.4876 25.4549ZM63.8694 25.7029L66.2148 27.2324L67.3073 25.5572L64.9619 24.0277L63.8694 25.7029ZM67.5986 26.9411L70.6577 22.2504L68.9824 21.1579L65.9234 25.8486L67.5986 26.9411ZM70.3663 20.8665L64.0004 16.715L62.9079 18.3902L69.2738 22.5418L70.3663 20.8665ZM62.6165 17.0063L61.087 19.3517L62.7622 20.4442L64.2917 18.0989L62.6165 17.0063ZM62.4709 19.0603L59.7905 17.3123L58.698 18.9875L61.3784 20.7356L62.4709 19.0603ZM60.0819 18.6962L61.6114 16.3508L59.9361 15.2583L58.4066 17.6037L60.0819 18.6962ZM61.6114 16.3508C61.893 15.9189 62.2493 15.6776 62.7205 15.5784L62.3085 13.6213C61.3036 13.8329 60.4993 14.3947 59.9361 15.2583L61.6114 16.3508ZM62.7205 15.5784C63.243 15.4684 63.6827 15.5527 64.1023 15.8264L65.1948 14.1511C64.319 13.58 63.336 13.405 62.3085 13.6213L62.7205 15.5784ZM64.1023 15.8264L71.1383 20.4149L72.2309 18.7397L65.1948 14.1511L64.1023 15.8264ZM71.1383 20.4149C71.5569 20.6879 71.7932 21.0424 71.8842 21.5337L73.8508 21.1695C73.6601 20.14 73.1078 19.3116 72.2309 18.7397L71.1383 20.4149ZM71.8942 21.5814C72.0091 22.0677 71.9357 22.4874 71.6628 22.9059L73.338 23.9984C73.91 23.1214 74.0813 22.1407 73.8407 21.1217L71.8942 21.5814ZM71.6628 22.9059L68.6038 27.5966L70.279 28.6891L73.338 23.9984L71.6628 22.9059ZM59.514 33.846L56.4985 31.8795L55.406 33.5547L58.4215 35.5213L59.514 33.846ZM56.7899 33.2634L58.5379 30.583L56.8627 29.4905L55.1147 32.1709L56.7899 33.2634ZM57.1541 30.8744L60.1695 32.8409L61.262 31.1656L58.2466 29.1991L57.1541 30.8744ZM59.8781 31.457L58.1301 34.1374L59.8053 35.2299L61.5534 32.5495L59.8781 31.457Z" fill="#FDFDFF"/>
<path d="M45.7949 16.0624C45.8633 16.8327 45.6433 17.5215 45.135 18.1288C44.6509 18.7072 44.0237 19.0306 43.2534 19.099L40.4644 19.3466L40.7119 22.1356L37.5245 22.4185L37.2769 19.6295C37.2085 18.8592 37.4164 18.1849 37.9005 17.6065C38.4088 16.9991 39.0481 16.6613 39.8184 16.5929L42.6074 16.3453L42.1123 10.7673L34.542 11.4392L34.7896 14.2283L31.6021 14.5112L31.3546 11.7222C31.2862 10.9519 31.4941 10.2775 31.9781 9.69912C32.4864 9.0918 33.1257 8.75395 33.896 8.68558L42.2631 7.94287C43.0334 7.8745 43.709 8.09563 44.2897 8.60628C44.8947 9.08801 45.2314 9.71403 45.2997 10.4843L45.7949 16.0624ZM41.6055 27.6783L38.0196 27.9966L37.7367 24.8091L41.3226 24.4908L41.6055 27.6783Z" fill="#1F1F1F"/>
<path d="M45.135 18.1288L44.3681 17.487L45.135 18.1288ZM40.4644 19.3466L40.376 18.3505C39.8258 18.3993 39.4195 18.8849 39.4683 19.435L40.4644 19.3466ZM40.7119 22.1356L40.8004 23.1317C41.3505 23.0829 41.7569 22.5973 41.708 22.0472L40.7119 22.1356ZM37.5245 22.4185L36.5284 22.507C36.5772 23.0571 37.0628 23.4635 37.6129 23.4146L37.5245 22.4185ZM37.9005 17.6065L37.1336 16.9646L37.9005 17.6065ZM42.6074 16.3453L42.6958 17.3414C43.246 17.2926 43.6523 16.807 43.6035 16.2569L42.6074 16.3453ZM42.1123 10.7673L43.1084 10.6789C43.0595 10.1287 42.574 9.72236 42.0239 9.77119L42.1123 10.7673ZM34.542 11.4392L34.4536 10.4432C33.9035 10.492 33.4971 10.9775 33.546 11.5277L34.542 11.4392ZM34.7896 14.2283L34.878 15.2244C35.4281 15.1755 35.8345 14.69 35.7857 14.1399L34.7896 14.2283ZM31.6021 14.5112L30.6061 14.5996C30.6549 15.1498 31.1404 15.5561 31.6906 15.5073L31.6021 14.5112ZM31.9781 9.69912L32.745 10.3409L31.9781 9.69912ZM44.2897 8.60628L43.6294 9.35726C43.6416 9.368 43.6541 9.37844 43.6668 9.38856L44.2897 8.60628ZM41.6055 27.6783L41.6939 28.6744C42.2441 28.6256 42.6504 28.14 42.6016 27.5899L41.6055 27.6783ZM38.0196 27.9966L37.0235 28.085C37.0724 28.6352 37.5579 29.0415 38.108 28.9927L38.0196 27.9966ZM37.7367 24.8091L37.6483 23.8131C37.0981 23.8619 36.6918 24.3474 36.7406 24.8976L37.7367 24.8091ZM41.3226 24.4908L42.3187 24.4024C42.2698 23.8523 41.7843 23.4459 41.2342 23.4948L41.3226 24.4908ZM44.7988 16.1508C44.8431 16.6499 44.7108 17.0776 44.3681 17.487L45.9019 18.7707C46.5758 17.9654 46.8834 17.0155 46.791 15.974L44.7988 16.1508ZM44.3681 17.487C44.059 17.8564 43.6786 18.0573 43.165 18.1029L43.3418 20.0951C44.3688 20.0039 45.2428 19.5581 45.9019 18.7707L44.3681 17.487ZM43.165 18.1029L40.376 18.3505L40.5528 20.3427L43.3418 20.0951L43.165 18.1029ZM39.4683 19.435L39.7159 22.224L41.708 22.0472L41.4605 19.2582L39.4683 19.435ZM40.6235 21.1395L37.4361 21.4225L37.6129 23.4146L40.8004 23.1317L40.6235 21.1395ZM38.5206 22.3301L38.273 19.5411L36.2808 19.7179L36.5284 22.507L38.5206 22.3301ZM38.273 19.5411C38.2274 19.0275 38.3582 18.6176 38.6673 18.2483L37.1336 16.9646C36.4746 17.7521 36.1897 18.6909 36.2808 19.7179L38.273 19.5411ZM38.6673 18.2483C39.01 17.8388 39.4077 17.6333 39.9068 17.589L39.73 15.5968C38.6884 15.6893 37.8075 16.1594 37.1336 16.9646L38.6673 18.2483ZM39.9068 17.589L42.6958 17.3414L42.519 15.3493L39.73 15.5968L39.9068 17.589ZM43.6035 16.2569L43.1084 10.6789L41.1162 10.8557L41.6113 16.4338L43.6035 16.2569ZM42.0239 9.77119L34.4536 10.4432L34.6305 12.4353L42.2007 11.7634L42.0239 9.77119ZM33.546 11.5277L33.7935 14.3167L35.7857 14.1399L35.5381 11.3508L33.546 11.5277ZM34.7012 13.2322L31.5137 13.5151L31.6906 15.5073L34.878 15.2244L34.7012 13.2322ZM32.5982 14.4228L32.3507 11.6338L30.3585 11.8106L30.6061 14.5996L32.5982 14.4228ZM32.3507 11.6338C32.3051 11.1201 32.4359 10.7103 32.745 10.3409L31.2113 9.0573C30.5522 9.84478 30.2673 10.7836 30.3585 11.8106L32.3507 11.6338ZM32.745 10.3409C33.0877 9.93151 33.4854 9.72596 33.9845 9.68166L33.8076 7.68949C32.7661 7.78194 31.8852 8.25209 31.2113 9.0573L32.745 10.3409ZM33.9845 9.68166L42.3516 8.93896L42.1747 6.94679L33.8076 7.68949L33.9845 9.68166ZM42.3516 8.93896C42.8493 8.89478 43.2542 9.02733 43.6294 9.35726L44.9501 7.8553C44.1638 7.16394 43.2176 6.85421 42.1747 6.94679L42.3516 8.93896ZM43.6668 9.38856C44.0577 9.69981 44.2595 10.0751 44.3037 10.5728L46.2958 10.3959C46.2033 9.35301 45.7317 8.47622 44.9127 7.824L43.6668 9.38856ZM44.3037 10.5728L44.7988 16.1508L46.791 15.974L46.2958 10.3959L44.3037 10.5728ZM41.5171 26.6822L37.9312 27.0005L38.108 28.9927L41.6939 28.6744L41.5171 26.6822ZM39.0157 27.9082L38.7328 24.7207L36.7406 24.8976L37.0235 28.085L39.0157 27.9082ZM37.8251 25.8052L41.411 25.4869L41.2342 23.4948L37.6483 23.8131L37.8251 25.8052ZM40.3265 24.5793L40.6094 27.7667L42.6016 27.5899L42.3187 24.4024L40.3265 24.5793Z" fill="#FDFDFF"/>
</g>
<defs>
<clipPath id="clip0_58_431">
<rect width="100" height="100" fill="white"/>
</clipPath>
</defs>
</svg>
