<svg width="288" height="345" viewBox="0 0 288 345" fill="none" xmlns="http://www.w3.org/2000/svg">
<g clip-path="url(#clip0_250_343)">
<path d="M257.05 178.96C259.13 177.04 254.63 172.95 253.18 171.03C233.22 144.56 220.05 135.64 204.81 136.57C205.21 92 189.07 48.21 144.79 27.54C137.62 24.07 130.03 22.14 122.41 19.37C120.99 18.85 118 18.08 116.94 16.52C115.76 14.79 116.56 12.29 116.49 12.3C110.04 13.39 112.93 19.16 112.93 19.16C112.93 19.16 111.66 19.08 111.04 18.95C108.34 18.35 105.57 16.01 105.77 11.95C106.02 6.55996 111.84 4.35996 110.97 3.91996C110.74 3.80996 100.54 -0.900041 92.6902 5.28996C88.3902 8.68996 86.3402 13.35 87.8102 19.51C78.1502 17.74 79.6202 9.35996 79.4702 9.38996C70.8702 10.92 67.6802 21.01 73.7802 25.05C73.7802 26.08 69.6102 25.86 66.7902 23.86C64.7002 22.38 63.7902 19.03 63.5502 19.18C55.4702 24.2 59.2102 32.88 66.4202 33.68C66.9502 33.74 68.0602 33.8 67.8902 34.31C67.8302 34.49 66.2302 35.64 63.5102 35.69C60.7702 35.73 59.6702 34.35 59.5502 34.71C58.3402 38.41 64.4302 41.64 66.7802 40.47C61.9502 43.69 58.6802 47.51 55.5502 52.93C41.7702 76.83 49.2202 103.69 60.5202 126.29C61.5202 128.28 62.9402 130.57 63.2602 132.82C63.4202 133.93 62.7702 135.83 63.2602 136.82C63.4702 137.24 64.4602 135.72 64.5202 136.19C64.7402 137.98 64.6002 140.01 64.4002 141.85C53.9202 145.73 42.5502 156.01 28.4102 174.75C26.9502 176.68 22.4502 180.78 24.5502 182.69C10.2302 200.66 1.38021 233.57 2.12021 241.18C2.97021 249.86 9.85021 256.82 28.9102 264.85C47.1402 272.54 61.0202 274.82 72.2802 275.53C76.4302 281.74 81.7502 288.18 88.6002 294.92C89.1002 295.41 89.6102 295.89 90.1502 296.35C88.0702 303.6 93.2902 318.98 98.8302 324.38C85.8902 323.97 70.3702 335.93 69.3102 336.89C64.7802 341.02 66.1902 341.31 69.3102 341.31C72.4302 341.31 97.4202 340.04 110.62 339.82C115.98 339.73 122.54 339.42 127.87 339.24C131.1 339.12 146.37 339.03 144.02 333.52C141.23 326.94 137.88 317.93 137.53 312.83C145.95 313.35 154.34 312.81 161.89 311.07C164.11 317.5 168.57 322.79 174.92 324.96C156.67 328.15 149.62 334.54 145.29 339.95C144.75 341.06 158.91 341.53 174.57 342.11C192.75 342.79 214.79 343.76 222.27 342.03C229.74 340.3 223.44 329.26 221.99 324.82C217.13 309.88 212.29 289.12 219.6 274.09C222.68 273.43 226.31 272.58 231.14 272.25C240.3 271.63 250.66 269.91 259.89 266.02C278.96 257.99 285.42 246.41 286.28 237.73C287.02 230.11 273.72 199.02 257.05 178.96ZM44.6402 242.41C44.6402 239.91 52.6202 238.2 57.8502 233.96C58.5602 241.23 59.8702 248.67 62.6102 256.43C60.0502 254.94 44.6402 244.74 44.6402 242.41ZM223.97 253.22C224.93 245.96 225.48 238.23 225.34 231.4C230.85 235.14 239.26 238.21 238.96 240.45C238.55 243.49 233.62 248.8 223.97 253.22Z" fill="#CAA77A"/>
<path d="M194.83 342.82C192.21 342.75 189.53 342.67 186.84 342.57C185.59 342.53 184.34 342.48 183.1 342.44C180.2 342.33 177.33 342.22 174.55 342.12C174.12 342.1 173.7 342.09 173.27 342.07C172.98 342.06 172.69 342.05 172.4 342.04C170.91 341.98 169.44 341.93 168.01 341.87C167.68 341.86 167.35 341.85 167.03 341.84C164.4 341.73 161.88 341.63 159.55 341.52C159.2 341.51 158.86 341.5 158.53 341.48C158.14 341.46 157.75 341.44 157.37 341.42C156.9 341.4 156.43 341.37 155.98 341.35C155.53 341.33 155.08 341.3 154.65 341.28C154.16 341.25 153.68 341.22 153.23 341.19C152.73 341.16 152.25 341.12 151.79 341.09C150.88 341.03 150.05 340.96 149.31 340.89C148.95 340.85 148.61 340.82 148.29 340.78C148.25 340.78 148.22 340.78 148.18 340.77C147.9 340.74 147.63 340.7 147.39 340.67C147.21 340.65 147.03 340.62 146.87 340.59C146.79 340.58 146.71 340.57 146.64 340.55C146.27 340.49 145.96 340.41 145.73 340.34C145.65 340.31 145.59 340.29 145.53 340.26C145.47 340.24 145.42 340.21 145.38 340.18C145.34 340.15 145.31 340.12 145.29 340.1C145.26 340.05 145.25 340 145.28 339.95C145.89 339.19 146.55 338.41 147.29 337.62C147.54 337.36 147.79 337.09 148.06 336.83C148.33 336.56 148.6 336.29 148.89 336.03C149.17 335.77 149.46 335.51 149.76 335.24C151.81 333.48 154.36 331.73 157.68 330.13C158.27 329.85 158.88 329.57 159.52 329.29C159.58 329.27 159.64 329.24 159.71 329.21C160.01 329.08 160.33 328.95 160.65 328.82C161.08 328.65 161.52 328.48 161.97 328.32C162.36 328.17 162.77 328.03 163.18 327.89C163.49 327.78 163.8 327.67 164.13 327.57C164.47 327.46 164.82 327.35 165.17 327.24C165.39 327.17 165.62 327.11 165.85 327.04C166.14 326.95 166.44 326.86 166.75 326.78C167.04 326.7 167.34 326.62 167.65 326.54C168.63 326.27 169.65 326.03 170.71 325.79C171.24 325.67 171.78 325.56 172.34 325.44C173.17 325.27 174.02 325.11 174.9 324.96C182.85 328.14 190.96 333.93 194.83 342.82Z" fill="#B6B1AE"/>
<path d="M112.68 339.77C111.97 339.79 111.28 339.81 110.6 339.82C97.3999 340.04 72.4099 341.31 69.2899 341.31C68.0099 341.31 67.0299 341.26 66.6099 340.92C66.1399 340.51 66.4499 339.72 67.9799 338.16C68.0699 338.06 68.1699 337.96 68.2699 337.87C68.3699 337.77 68.4699 337.66 68.5799 337.56C68.7999 337.34 69.0399 337.12 69.2899 336.89C70.3499 335.93 85.8699 323.97 98.8099 324.38H98.8199C104.18 327.96 109.72 333.18 112.68 339.77Z" fill="#B6B1AE"/>
<path d="M65.35 157.07C64.46 157.77 63.56 160.19 63.14 161.08C62.22 163.05 63.52 164.89 63.42 165.92C63.3 167.13 60.86 171.62 58.46 176.16C56.72 179.45 55.43 182.81 54.51 186.14C53.6 189.43 53.04 192.7 52.76 195.83C44.66 188.6 33.66 185.08 26.77 183.57C20.93 182.28 26.94 177.09 28.67 174.8C42.96 155.87 54.08 145.71 64.66 141.9C64.63 142.19 64.6 142.48 64.57 142.76C64.49 143.54 63.6 145.63 64.15 145.07C64.33 144.89 64.86 143.13 65.63 143.39C66.07 143.54 65.57 155.95 65.35 157.07Z" fill="#FF0F0F"/>
<path d="M255.451 179.71C230.771 191.23 223.801 204.96 215.461 215.09C215.391 215.18 215.311 215.27 215.241 215.35C216.701 220.9 219.001 225.86 223.871 229.94C224.431 230.41 225.051 230.86 225.711 231.31C225.871 238.29 225.511 245.65 224.511 253.05C223.061 253.73 221.491 254.38 219.821 255C212.141 257.86 203.141 248.63 191.161 255.51C184.791 259.17 182.221 266.83 181.971 269.38C181.711 271.94 189.931 263.46 207.501 273.11C211.901 275.52 215.291 274.99 219.921 274.01C219.411 275.08 218.841 276.45 218.461 277.5C208.731 288.85 185.141 295.49 166.911 298.57C134.581 304.06 106.131 301.44 85.5907 291.39C73.0607 278.27 66.2707 266.26 62.5007 254.91C61.7807 252.77 61.1807 250.66 60.6707 248.57C58.3007 239.01 57.7807 229.87 57.3707 220.87C54.1807 219 47.9507 196.1 58.5707 176.02C60.9707 171.48 63.4207 166.99 63.5307 165.78C63.6307 164.75 61.6007 162.96 62.5207 160.99C63.1507 159.66 66.4807 154.77 66.0107 157.47C107.181 169.31 148.501 160.81 153.591 159.68C161.121 158.01 169.181 155.69 177.221 152.97C181.031 146.39 187.011 140.48 196.221 138.01C202.751 136.26 208.681 135.84 214.571 137.27C226.241 140.06 237.781 150.02 253.561 170.94C255.291 173.23 260.881 177.18 255.451 179.71Z" fill="#FF0F0F"/>
<path d="M54.2005 80.09C56.3205 71.45 60.3105 63.96 67.2505 60.28C76.6405 55.3 82.6605 56.25 91.2505 54.41C94.8205 53.64 97.6305 52.2 98.2205 48.57C98.4805 46.96 97.8805 45.22 96.3205 42.99C99.5105 42.99 103.02 44.27 105.64 46.37C110.94 50.63 117.74 51.55 123.97 51.35C145.91 50.66 159.8 53.2 170.41 72.41C172.79 76.72 176.45 86.59 173.96 97.62C170.33 113.68 168.44 120.42 151.01 132.45C130.3 146.74 87.4405 153.85 66.0405 126.82C56.0305 114.15 50.2405 96.22 54.2005 80.09Z" fill="#FFDBAF"/>
<path d="M94.2699 87.45C87.0499 83.84 81.1999 102.09 81.7799 107.33C83.7699 125.28 110.03 124.36 122.2 118.27C139.77 109.49 118.28 81.19 105.72 86.22" fill="#9D7B51"/>
<path d="M54.2301 80.14C50.9101 93.55 54.7701 108.61 57.7401 110.84C60.0401 112.56 72.2201 105.22 80.3701 93.08C88.9301 80.35 89.5401 67.01 87.2901 64.76C86.0201 63.49 66.7501 61.66 64.2001 62.28C60.9601 63.08 56.4901 71 54.2301 80.14Z" fill="#9D7B51"/>
<path d="M121.51 64.18C119.47 101.76 164.08 121.7 169.12 114.39C172.35 109.71 178.57 90.13 171.51 74.61C167.85 66.56 160.25 57.53 156.35 57.49C149.44 57.42 140.39 59.61 133 61.29C126.81 62.7 121.86 61.65 121.51 64.18Z" fill="#9D7B51"/>
<path d="M67.8501 39.48C63.0101 42.71 59.1601 46.83 55.9901 52.19C41.9501 75.93 49.3901 103.6 60.6901 126.2C61.6801 128.19 63.1101 130.48 63.4301 132.73C63.5901 133.85 62.9401 135.75 63.4301 136.73C63.6401 137.15 64.6301 135.63 64.6901 136.1C64.9501 138.17 64.7101 140.57 64.4801 142.62C64.3901 143.4 63.5001 145.49 64.0601 144.94C64.2401 144.76 64.7601 143 65.5301 143.26C65.9801 143.41 65.5401 154.56 65.3201 155.68" stroke="#2D1F04" stroke-width="2.7806" stroke-miterlimit="10" stroke-linecap="round" stroke-linejoin="round"/>
<path d="M213.921 274.84C211.771 274.86 209.681 274.42 207.301 273.11C189.731 263.46 181.511 271.94 181.771 269.38C182.021 266.83 184.591 259.17 190.961 255.51C200.741 249.89 208.541 255.02 215.251 255.53C211.761 259.96 208.421 266.52 213.921 274.84Z" fill="#B6B1AE"/>
<path d="M68.9107 269.71C68.2707 261.78 73.3807 259.68 73.3807 257.96C73.3807 256.53 65.1507 251.95 61.7507 253.22C58.2007 254.54 58.0607 261.34 59.9807 263.38C59.7207 265.68 61.5107 271.06 64.9607 273.23C68.4007 275.41 70.3907 274.14 68.9107 269.71Z" fill="#B6B1AE"/>
<path d="M72.2745 255.698C72.7112 256.203 73.1723 256.736 73.6333 257.268C77.1804 261.266 82.2104 263.594 86.653 265.359C88.9073 266.357 91.3193 267.261 93.8648 268.043C97.5913 269.263 100.961 269.905 105.143 270.123C106.008 270.214 106.849 270.253 107.69 270.318C108.658 270.388 109.626 270.458 110.595 270.503C119.93 270.934 128.577 269.672 135.609 266.827C144.386 263.296 150.663 257.426 154.333 249.366C155.186 247.488 155.874 245.322 156.368 242.942C156.441 243.022 156.61 243.234 156.64 243.133C167.37 206.158 136.805 188.899 136.778 188.949C136.27 188.312 135.701 187.903 135.206 187.547C135.182 187.521 135.157 187.52 135.132 187.493C134.696 186.987 134.258 186.507 133.844 186.053L133.82 186.027C133.146 185.126 132.564 184.435 132.005 183.821C131.956 183.768 131.932 183.741 131.883 183.688L131.859 183.661L131.834 183.634C131.737 183.528 131.639 183.446 131.567 183.341C129.89 181.449 128.768 181.397 128.386 181.379C128.182 181.37 127.951 181.385 127.744 181.426C127.572 181.291 127.399 181.155 127.227 181.019C127.056 180.832 126.763 180.538 126.338 180.339C126.114 180.201 125.889 180.088 125.662 180.027C125.612 179.999 125.562 179.971 125.513 179.943C125.212 179.801 124.91 179.711 124.604 179.697C124.017 179.669 123.42 179.872 122.966 180.286C122.913 180.334 122.886 180.359 122.833 180.407C122.406 180.234 121.927 180.11 121.368 180.033C121.317 180.03 121.24 180.027 121.189 180.025C120.399 179.988 119.666 180.363 119.228 180.982C119.051 180.948 118.898 180.941 118.719 180.933C118.285 180.913 117.925 180.973 117.613 181.086C117.587 181.085 117.562 181.084 117.562 181.084C116.712 181.224 116.021 181.805 115.753 182.611C115.635 182.963 115.593 183.319 115.654 183.654C114.377 184.183 113.192 184.946 112.126 185.894L111.385 185.885C110.746 185.881 110.145 186.16 109.717 186.575C104.72 187.418 100.356 189.465 96.7091 192.62C96.39 192.886 96.0687 193.203 95.7473 193.521C94.0905 195.08 92.495 196.975 90.9062 199.278C87.1415 199.437 82.4218 200.906 78.7704 206.36C78.4479 206.703 78.1716 207.151 77.915 207.727C77.6097 208.249 77.3287 208.799 77.0721 209.375C76.6926 209.843 76.436 210.419 76.3288 211.078C76.301 211.128 76.2986 211.179 76.2719 211.203C76.1118 211.349 75.9262 211.494 75.7661 211.64C74.5179 212.656 72.6501 214.359 70.7724 216.828C69.5088 218.176 68.4144 219.735 67.5158 221.483C65.4089 225.041 64.1414 228.689 63.7155 232.375C63.2897 236.062 63.7055 239.787 64.9666 243.475C66.2688 247.931 68.7121 252.031 72.2745 255.698ZM163.436 242.092C163.41 242.091 163.385 242.09 163.359 242.089C163.41 242.091 163.436 242.092 163.436 242.092ZM162.383 226.708L162.357 226.707L162.383 226.708ZM160.196 223.693C160.196 223.693 160.197 223.668 160.196 223.693C160.197 223.668 160.196 223.693 160.196 223.693ZM160.46 214.657C160.46 214.657 160.486 214.658 160.46 214.657V214.657ZM157.046 224.928C157.096 224.956 157.145 225.009 157.195 225.037C157.141 225.086 157.062 225.133 157.009 225.182C156.989 225.053 156.969 224.95 156.949 224.821C156.972 224.873 156.996 224.9 157.046 224.928ZM155.687 202.884C155.687 202.884 155.686 202.909 155.687 202.884C155.687 202.884 155.662 202.882 155.636 202.881C155.635 202.907 155.662 202.882 155.687 202.884ZM152.503 205.42C152.477 205.419 152.477 205.419 152.452 205.418C152.452 205.418 152.477 205.419 152.503 205.42ZM150.746 201.965C150.72 201.964 150.695 201.963 150.669 201.962C150.618 201.959 150.567 201.957 150.516 201.955C150.592 201.958 150.669 201.962 150.746 201.965ZM145.455 190.884C145.404 190.881 145.328 190.878 145.251 190.874C145.302 190.876 145.379 190.88 145.455 190.884ZM142.545 188.04C142.57 188.041 142.57 188.041 142.545 188.04C142.519 188.039 142.494 188.037 142.494 188.037C142.519 188.039 142.545 188.04 142.545 188.04ZM139.119 190.821C139.094 190.82 139.094 190.82 139.068 190.819L139.043 190.817C139.043 190.817 139.068 190.819 139.119 190.821ZM128.253 183.699C128.278 183.7 128.278 183.7 128.304 183.701C128.304 183.701 128.278 183.7 128.253 183.699ZM124.896 182.215C124.896 182.215 124.922 182.216 124.896 182.215C124.896 182.215 124.871 182.214 124.845 182.213C124.871 182.214 124.871 182.214 124.896 182.215ZM118.586 183.253C118.586 183.253 118.612 183.254 118.586 183.253C118.561 183.251 118.586 183.253 118.586 183.253ZM110.854 268.214C110.803 268.212 110.727 268.209 110.676 268.206C110.625 268.204 110.599 268.203 110.548 268.2C110.65 268.205 110.752 268.21 110.854 268.214ZM92.2041 201.613C92.2806 201.617 92.3572 201.62 92.4082 201.623C92.3061 201.618 92.2041 201.613 92.1276 201.61C92.1786 201.612 92.2041 201.613 92.2041 201.613Z" fill="white"/>
<path d="M164.113 239.057L163.986 239.025C163.986 239.025 163.962 238.999 163.936 238.997C164.713 238.241 165.165 237.291 165.242 236.195C165.26 235.787 165.228 235.376 165.145 234.964C165.585 234.856 166.003 234.645 166.326 234.303C166.834 233.815 167.145 233.165 167.154 232.424C167.183 231.786 166.957 231.162 166.545 230.658C166.579 230.48 166.587 230.302 166.596 230.123C166.579 229.381 166.303 228.704 165.79 228.195C165.4 227.793 164.9 227.54 164.368 227.439C164.996 226.573 165.273 225.564 165.193 224.512C165.181 224.23 165.116 223.972 165.051 223.713C165.47 223.502 165.841 223.213 166.115 222.816C166.499 222.246 166.66 221.538 166.539 220.842C166.417 220.147 166.037 219.516 165.443 219.105C165.097 218.859 164.72 218.714 164.314 218.644C164.04 217.941 163.582 217.332 162.99 216.87L163.12 216.825C163.819 216.627 164.376 216.193 164.738 215.545C165.099 214.923 165.183 214.211 164.986 213.512C164.855 213.02 164.569 212.572 164.201 212.248C164.259 211.535 164.166 210.79 163.916 210.114C163.44 208.788 162.516 207.774 161.241 207.153C160.766 206.927 160.287 206.777 159.779 206.702C159.807 206.652 159.835 206.603 159.837 206.552C159.838 206.526 159.865 206.502 159.866 206.476C160.418 206.144 160.826 205.626 161.007 205.021C161.217 204.34 161.174 203.623 160.845 202.994C160.516 202.366 159.976 201.881 159.296 201.67C159.07 201.583 158.816 201.546 158.586 201.535C158.357 201.525 158.126 201.539 157.893 201.605C157.784 201.191 157.625 200.775 157.387 200.381C157.173 200.039 156.907 199.72 156.638 199.452C156.909 199.106 157.107 198.706 157.178 198.275C157.313 197.566 157.142 196.842 156.71 196.234C156.278 195.626 155.657 195.24 154.945 195.156C154.843 195.151 154.768 195.122 154.665 195.117C154.436 195.107 154.231 195.123 154.024 195.165C154.139 194.889 154.23 194.586 154.244 194.28C154.303 193.567 154.054 192.866 153.593 192.333C153.132 191.801 152.483 191.464 151.769 191.431C151.743 191.43 151.718 191.429 151.718 191.429C151.284 191.408 150.871 191.492 150.506 191.654C150.338 191.416 150.144 191.177 149.924 190.962C149.631 190.668 149.31 190.423 148.936 190.227C148.812 190.144 148.661 190.086 148.536 190.029C148.378 189.587 148.09 189.165 147.721 188.867C147.302 188.515 146.801 188.313 146.266 188.263C146.178 187.952 146.013 187.663 145.819 187.424C145.83 187.195 145.815 186.964 145.775 186.732C145.629 186.01 145.222 185.403 144.628 184.992C144.207 184.692 143.703 184.541 143.193 184.517C142.989 184.508 142.758 184.523 142.552 184.564C141.829 184.71 141.197 185.115 140.786 185.709C140.65 185.908 140.537 186.132 140.45 186.358C140.369 186.457 140.287 186.555 140.206 186.654L138.698 188.859C138.647 188.857 138.622 188.856 138.571 188.853C138.367 188.844 138.162 188.86 137.955 188.901C137.26 189.023 136.653 189.429 136.242 190.024C135.831 190.618 135.671 191.326 135.817 192.023C135.939 192.719 136.344 193.351 136.938 193.762C137.409 194.09 137.911 194.293 138.443 194.394C138.646 194.429 138.849 194.464 139.027 194.472C139.333 194.486 139.666 194.476 139.95 194.412C140.156 194.371 140.39 194.305 140.597 194.238C140.744 194.372 140.865 194.531 141.039 194.641C141.26 194.831 141.508 194.995 141.758 195.109C141.877 195.294 142.049 195.455 142.222 195.591C142.468 195.781 142.742 195.947 143.019 196.037C143.231 196.43 143.495 196.8 143.837 197.148C144.13 197.442 144.451 197.687 144.825 197.884C145.074 198.023 145.3 198.11 145.552 198.198C145.675 198.843 146.005 199.446 146.489 200.031C146.829 200.43 147.276 200.706 147.756 200.831C147.757 201.367 147.937 201.887 148.25 202.31L148.587 202.76C148.828 203.078 149.122 203.347 149.471 203.542C149.576 204.033 149.759 204.501 150.02 204.948C150.424 205.606 150.987 206.143 151.636 206.479C151.557 207.089 151.65 207.835 152.095 208.724C152.422 209.379 152.989 209.839 153.668 210.075C153.819 210.133 153.972 210.14 154.124 210.173C153.713 211.304 153.709 212.505 154.115 213.674C154.296 214.194 154.579 214.692 154.918 215.117C154.822 215.521 154.853 215.957 154.962 216.371C155.16 217.071 155.594 217.627 156.216 217.989C156.316 218.044 156.416 218.1 156.542 218.131C156.015 219.027 155.842 220.016 156.024 221.047C156.167 221.82 156.492 222.525 156.977 223.11C156.638 223.81 156.501 224.545 156.567 225.34C156.672 226.393 157.114 227.334 157.873 228.059C157.767 228.131 157.66 228.228 157.554 228.325C157.044 228.839 156.783 229.517 156.776 230.232C156.78 230.692 156.912 231.158 157.124 231.552C156.87 232.051 156.741 232.633 156.712 233.271C156.695 233.628 156.757 233.963 156.869 234.3C156.696 234.727 156.573 235.181 156.55 235.666C156.531 236.074 156.563 236.484 156.647 236.897C156.729 237.335 156.89 237.726 157.103 238.094C157.245 238.331 157.389 238.542 157.559 238.728C156.64 239.248 155.985 240.164 155.748 241.405C155.715 241.583 155.706 241.761 155.698 241.94C155.641 242.065 155.584 242.19 155.553 242.316C155.401 242.846 155.427 243.384 155.607 243.904C155.208 244.243 154.905 244.715 154.753 245.244C154.694 245.421 154.686 245.599 154.652 245.777C154.515 245.975 154.402 246.2 154.315 246.426C154.228 246.652 154.191 246.905 154.155 247.134C154.047 247.257 153.963 247.406 153.904 247.582C153.676 248.083 153.601 248.616 153.705 249.132C153.547 249.227 153.388 249.348 153.253 249.495C153.074 249.512 152.919 249.53 152.764 249.574C152.351 249.658 151.987 249.794 151.62 249.982C151.28 250.17 150.937 250.385 150.644 250.652C150.35 250.92 150.107 251.215 149.887 251.537C149.696 251.81 149.553 252.135 149.436 252.462C149.319 252.764 149.253 253.093 149.212 253.423C149.171 253.754 149.18 254.112 149.216 254.446C149.251 254.805 149.336 255.167 149.475 255.48C149.612 255.844 149.8 256.185 150.068 256.479C150.334 256.798 150.653 257.094 151.001 257.314L152.689 258.389C153.335 258.802 154.039 259.039 154.804 259.075C155.187 259.092 155.572 259.059 155.959 258.975C157.096 258.72 158.02 258.073 158.654 257.08C159.176 256.286 159.397 255.376 159.312 254.452C159.601 254.286 159.865 254.094 160.131 253.876C160.557 253.513 160.885 253.042 161.113 252.542C161.227 252.291 161.316 252.014 161.38 251.736C161.461 251.637 161.516 251.563 161.572 251.464C161.752 251.421 161.934 251.353 162.091 251.283C162.744 250.981 163.256 250.417 163.492 249.738C163.727 249.058 163.711 248.316 163.384 247.637C163.291 247.428 163.148 247.217 163.002 247.057C163.437 247.051 163.852 246.917 164.22 246.704C164.849 246.35 165.285 245.782 165.469 245.1C165.622 244.571 165.595 244.033 165.415 243.513C165.739 243.145 165.963 242.72 166.037 242.213C166.172 241.503 166.025 240.806 165.619 240.2C165.418 239.577 164.797 239.19 164.113 239.057Z" fill="white"/>
<path d="M138.126 193.51C137.47 192.764 141.93 196.932 143.233 198.04C146.406 200.743 149.378 205.558 151.046 209.29C155.676 219.727 157.74 237.587 152.903 248.226C144.111 267.578 120.36 269.932 102.547 267.115C95.3155 265.964 80.5955 260.376 75.2921 254.559C63.031 241.111 63.5588 226.362 77.7277 213.444C81.6768 209.843 84.0944 209.52 88.5277 206.505C92.4599 203.823 95.0232 197.577 98.9108 194.204C107.591 186.681 118.892 187.715 126.599 189.63C129.126 190.258 132.464 191.587 134.782 192.87C135.652 193.396 139.148 194.631 138.126 193.51Z" fill="#689BD4"/>
<path opacity="0.1395" d="M139.83 215.826C138.613 217.278 134.988 224.932 136.758 224.783C145.047 224.067 142.139 235.563 132.867 239.301C124.168 242.81 123.274 237.81 123.998 235.977C126.053 230.781 109.793 239.155 111.31 244.491C115.22 258.346 73.5184 242.592 84.7823 233.911C90.268 229.691 92.7777 219.072 86.6461 221.779C68.7488 229.643 74.5782 216.877 74.1234 217.316C68.6266 222.327 68.0928 229.459 68.0618 229.023C68.0457 228.818 68.3278 228.243 68.1422 228.388C66.8708 229.352 66.8589 234.591 66.8428 236.047C66.8151 243.841 70.9335 249.859 76.0364 255.59C80.4106 260.495 87.4858 262.816 93.2382 264.998C101.427 268.112 106.632 267.764 115.319 267.833C128.094 267.937 144.248 263.495 150.728 251.602C153.826 245.943 154.293 244.687 155.559 238.304C156.793 232.073 155.301 223.416 153.102 213.474C152.404 210.323 150.872 208.617 149.264 205.808C148.176 203.917 141.264 195.291 137.819 194.058C136.914 193.735 131.69 201.137 136.417 201.176C140.074 201.14 144.294 210.486 139.83 215.826Z" fill="#042B88"/>
<path opacity="0.144" d="M109.657 196.745C107.515 194.985 99.1387 200.349 103.413 205.76C107.035 210.35 112.634 207.541 112.634 207.541C112.634 207.541 111.923 198.588 109.657 196.745Z" fill="#042B88"/>
<path d="M129.082 184.556C128.629 184.969 128.743 183.594 128.796 183.571C129.196 183.206 130.535 184.648 130.727 184.913C132.555 187.4 136.518 190.701 137.142 193.797C137.351 194.804 137.843 195.772 138.027 196.752C138.674 199.9 138.238 203.816 137.33 206.867C137.208 207.296 136.194 211.543 136.316 211.677C136.462 211.837 137.284 211.747 137.51 211.834C138.31 212.229 138.87 212.817 139.617 213.26C140.065 213.511 141.091 213.431 141.595 213.582C145.655 214.792 151.543 219.562 153.521 223.232C155.592 227.085 157.49 231.364 156.364 235.836C156.3 236.115 155.537 239.351 155.407 239.396C155.276 239.467 155.06 238.051 155.014 237.947C154.719 237.141 154.425 236.309 154.155 235.504C153.366 233.219 150.716 229.722 148.82 228.152C144.216 224.361 133.751 224.594 129.186 226.044C127.447 226.603 125.117 231.684 124.836 233.332C124.628 234.524 124.177 235.423 123.842 236.584C123.056 239.231 123.042 237.313 122.171 237.912C121.801 238.176 121.638 239.498 121.514 239.952C121.244 240.834 122.758 242.361 122.894 243.288C123.327 246.094 122.955 248.607 122.519 251.398C122.3 252.82 121.947 256.049 122.47 257.454C122.743 258.182 122.938 258.932 123.239 259.611C123.284 259.741 123.934 260.614 123.653 260.601C121.945 260.522 119.357 258.997 118.231 257.923C115.537 255.37 115.641 255.886 112.081 246.622C111.054 243.968 110.113 242.749 108.247 240.541C104.88 236.526 101.992 235.958 96.5026 234.171C95.2438 233.755 90.1196 231.806 88.8392 232.411C88.0019 232.833 85.5113 233.075 84.8443 233.684C83.4567 234.949 82.5051 236.183 81.0191 237.366C79.8788 238.259 78.8903 239.185 77.4989 239.428C75.7724 239.731 74.8165 238.844 73.0531 238.839C72.6438 238.845 69.788 237.589 69.3753 237.672C69.2976 237.694 72.5513 236.975 74.2076 235.978C74.6808 235.693 75.0532 235.378 75.1462 235.025C75.9923 232.201 76.1206 234.405 77.7009 229.52C79.4299 224.181 84.2194 225.629 86.4596 223.611C87.1267 223.003 87.2488 220.912 87.5926 220.11C88.1349 218.883 89.1053 217.241 90.1181 216.342C91.4523 215.126 93.9016 214.114 94.3737 212.193C95.0633 209.439 87.6475 208.406 86.008 208.484C84.4973 208.542 83.1781 209.989 81.8443 210.643C81.3479 210.876 81.1345 211.071 80.6326 210.869C79.8792 210.578 80.6276 208.21 81.1612 207.724C83.6695 205.437 85.3003 202.777 88.8138 201.968C91.3197 201.394 93.2652 201.33 96.2257 201.978C99.1863 202.626 98.7394 203.449 99.8616 203.501C100.882 203.548 101.505 202.222 102.72 202.483C103.783 202.711 105.24 204.363 106.297 204.181C108.896 203.79 108.468 200.882 108.892 198.908C109.574 195.77 110.637 192.675 112.721 190.164C113.425 189.302 113.704 188.242 114.559 187.438C116 186.124 117.321 185.188 119.926 184.695C120.157 184.655 120.311 184.662 120.139 184.501C119.992 184.366 118.885 183.42 119.404 183.265C120.466 182.956 122.865 184.141 123.1 184.024C123.649 183.768 122.682 182.573 122.708 182.549C122.895 182.379 126.084 184.724 126.164 184.651C126.725 184.14 125.573 182.502 125.818 182.181C125.954 182.009 126.219 182.353 126.366 182.488C126.978 183.078 127.626 183.44 128.185 184.054C128.937 184.932 129.215 184.46 129.082 184.556Z" fill="#CAA77A"/>
<path d="M136.709 211.464C136.09 211.589 137.809 211.439 138.265 211.536C139.532 211.774 141.009 211.893 142.182 212.51C142.481 212.677 143.62 214.007 143.325 214.326C143.001 214.694 141.372 213.443 140.846 213.751C140.216 214.106 139.36 215.498 138.848 216.062C137.473 217.609 136.318 219.932 135.865 221.982C135.74 222.487 136.005 224.493 135.763 224.763C134.982 225.622 133.056 225.251 132.05 225.461C130.321 225.815 128.398 227.056 127.435 228.519C126.83 229.462 126.15 230.351 125.518 231.293C124.996 232.087 124.851 233.001 124.527 233.931C124.204 234.837 124.384 237.58 123.791 238.243C123.602 238.464 122.462 238.258 122.319 238.021C122.035 237.522 122.756 236.866 122.628 236.323C122.4 235.162 121.306 234.498 120.636 233.522C119.916 232.491 118.501 231.046 117.591 230.263C114.693 227.701 111.712 224.726 107.973 223.224C105.639 222.298 103.307 221.322 100.913 220.572C99.7544 220.212 98.6372 219.496 97.3922 219.336C95.1061 219.026 92.7584 218.943 90.4688 218.709C89.757 218.625 88.6473 218.855 87.9956 219.132C87.8135 219.2 87.447 219.388 87.447 219.388C87.447 219.388 88.4915 219.462 88.3499 219.762C88.0352 220.488 86.5557 223.743 85.8558 221.742C85.6058 221.066 86.0516 220.269 86.3605 219.67C86.6426 219.095 86.6548 218.278 87.0864 217.786C88.5148 216.191 89.7073 215.275 91.6246 214.162C92.2022 213.831 93.0686 213.334 93.7133 213.211C93.8165 213.19 94.329 213.162 94.3847 213.063C94.8132 212.086 94.4652 210.766 94.9216 209.739C95.8379 207.609 97.9886 205.868 99.4982 204.174C99.714 203.928 102.128 202.021 102.4 202.212C103.292 202.841 104.4 203.736 105.26 204.491C105.703 204.869 106.191 204.253 106.516 204.421C107.139 204.757 107.697 205.958 108.157 206.516C108.908 207.42 109.896 208.156 110.756 208.911C111.541 209.612 112.629 209.867 113.556 210.267C116.063 211.329 118.403 212.127 121.049 212.939C123.721 213.753 130.14 214.228 132.77 213.174C133.968 212.693 134.306 212.58 135.383 211.94C135.835 211.577 137.303 211.339 136.709 211.464Z" fill="#FFDB1F"/>
<path d="M119.563 205.817C130.318 209.253 134.815 199.339 133.878 194.72C133.774 194.204 133.565 190.974 128.668 189.649C127.86 189.432 126.071 189.426 125.32 189.085C124.569 188.744 123.941 188.51 123.314 187.689C123.274 188.556 123.091 188.65 122.836 188.638C121.609 188.633 119.617 186.393 117.35 186.212C114.753 185.99 111.864 190.432 111.224 192.115C110.034 195.204 108.808 202.38 119.563 205.817Z" fill="#FFDBAF"/>
<path d="M121.768 195.158C123.551 196.39 123.916 199.551 122.243 200.905C120.571 202.259 117.746 200.876 116.555 200.105C113.576 198.204 116.662 194.462 118.002 194.242C118.31 194.205 118.93 194.055 119.178 194.22" fill="#9D7B51"/>
<path d="M121.635 195.279C121.756 194.876 121.067 194.307 120.085 193.981C119.103 193.654 118.205 193.74 118.084 194.144C117.963 194.547 118.652 195.116 119.634 195.442C120.617 195.743 121.514 195.683 121.635 195.279Z" fill="#251707"/>
<path d="M125.858 190.745C120.012 198.885 131.004 203.277 131.271 203.034C133.484 201.066 134.11 196.903 134.059 195.802C134.044 195.571 125.884 190.721 125.858 190.745Z" fill="#9D7B51"/>
<path d="M119.644 188.567C119.848 188.577 117.307 197.124 110.486 194.279C110.11 194.108 110.937 192.255 111.031 191.876C111.94 188.237 113.116 189.339 115.982 189.267C117.109 189.217 119.211 188.547 119.644 188.567Z" fill="#9D7B51"/>
<path d="M156.112 234.649C156.811 235.013 156.215 239.05 155.214 239.157C155.008 239.173 155.047 238.894 155.025 238.816C154.918 237.814 153.563 235.605 153.913 234.675C153.968 234.575 155.887 234.536 156.112 234.649Z" fill="#D2D2D2"/>
<path d="M79.9903 210.379C80.6338 210.281 80.3281 211.366 79.8038 211.648C79.5939 211.766 79.2886 212.289 79.2725 212.084C79.1768 211.389 79.3722 210.478 79.9903 210.379Z" fill="#D2D2D2"/>
<path d="M121.98 255.872C122.325 256.706 123.021 258.246 123.435 259.236C123.505 259.393 123.88 261.225 123.799 261.323C123.528 261.643 122.143 260.659 121.869 260.493C120.099 259.517 118.672 258.888 117.418 257.246C117.25 257.008 116.013 256.133 116.367 255.664C117.044 254.826 119.425 254.757 120.31 254.951C120.766 255.049 121.169 255.17 121.597 255.317C121.722 255.374 121.936 255.716 121.98 255.872Z" fill="#D2D2D2"/>
<path d="M74.36 235.985C75.8695 235.953 78.4364 239.036 77.3464 239.395C76.1276 239.773 72.5364 238.943 71.2973 238.656C70.8672 238.559 70.1122 238.856 70.0047 238.417C69.9608 238.262 70.1452 238.142 70.2531 238.019C71.2451 237.017 72.1711 237.443 73.118 236.311C73.2538 236.139 74.2069 235.978 74.36 235.985Z" fill="#D2D2D2"/>
<path d="M123.824 237.554C123.77 238.727 122.777 238.093 122.139 238.064" stroke="#2D1F04" stroke-width="0.663185" stroke-miterlimit="10" stroke-linecap="round" stroke-linejoin="round"/>
<path d="M100.174 203.387C100.174 203.387 85.4699 195.245 79.0451 212.048C78.9871 212.198 78.8917 212.603 79.0239 212.507C87.4249 206.045 91.7795 209.16 94.2217 211.624" stroke="#2D1F04" stroke-width="0.663185" stroke-miterlimit="10" stroke-linecap="round" stroke-linejoin="round"/>
<path d="M88.2772 219.682C87.756 220.45 87.0791 223.486 84.8267 224.66" stroke="#2D1F04" stroke-width="0.663185" stroke-miterlimit="10" stroke-linecap="round" stroke-linejoin="round"/>
<path d="M154.937 241.291C159.818 229.682 152.055 217.336 141.451 213.958M97.6132 211.244C95.7336 211.54 87.8193 215.213 85.8659 219.877C85.1748 221.558 86.3198 222.224 86.8876 222.659M75.1178 235.1C74.0838 236.458 69.1439 237.712 69.2389 237.87C69.3825 238.081 76.5287 239.971 78.6264 239.377C81.035 238.696 82.8428 234.971 84.9469 233.688C88.7618 231.334 93.3515 233.233 99.5795 235.08M85.037 224.542C81.7236 225.999 79.1982 224.783 77.5206 229.562C76.6074 232.178 76.4614 233.68 74.8254 235.342M120.071 184.881C114.654 185.397 110.265 190.23 108.927 199.267C108.376 202.897 107.18 203.89 106.165 204.277M136.233 211.264C142.242 194.621 133.772 188.734 133.682 188.474M133.707 188.475C132.169 186.922 131.104 184.521 129.019 183.735C129.018 184.297 129.018 184.297 129.019 184.834C127.767 183.728 126.695 182.579 125.222 181.821C126.088 184.111 125.824 183.178 126.171 184.523C124.337 183.825 123.891 182.424 121.782 182.148C122.596 182.774 122.907 183.248 123.427 184.167C121.87 183.558 120.317 182.873 118.617 183.152C119.373 183.954 119.373 183.954 120.102 184.754M122.536 236.651C122.201 237.275 121.7 239.271 121.364 239.894M113.502 237.461C117.182 235.816 121.143 238.606 122.361 242.113C123.149 244.424 122.911 247.915 122.597 250.277C122.405 251.674 122.231 253.225 122.318 254.661C122.408 256.045 122.737 257.773 123.263 259.101C123.31 259.205 124.363 261.298 124.232 261.369C123.627 261.75 122.292 260.768 121.819 260.491C119.825 259.376 117.3 257.598 115.955 255.747C112.782 251.383 112.522 245.39 109.306 241.433C107.153 238.778 102 235.805 99.0753 234.929M132.082 225.334C125.817 226.502 123.861 236.201 123.852 237.504M155.133 240.917C155.242 238.545 152.559 221.373 132.261 225.317" stroke="#2D1F04" stroke-width="0.663185" stroke-miterlimit="10" stroke-linecap="round" stroke-linejoin="round"/>
<path d="M92.9648 201.188C97.691 194.045 102.894 189.864 113.023 188.594" stroke="#2D1F04" stroke-width="0.663185" stroke-miterlimit="10" stroke-linecap="round" stroke-linejoin="round"/>
<path d="M137.361 193.475C140.313 194.864 144.813 198.701 148.576 204.677C152.124 210.31 154.996 217.855 155.262 227.044" stroke="#2D1F04" stroke-width="0.663185" stroke-miterlimit="10" stroke-linecap="round" stroke-linejoin="round"/>
<path d="M155.034 240.273C149.574 272.15 108.061 269.466 96.1092 265.924C71.3491 258.569 62.1606 241.684 69.2182 225.013C72.8893 216.364 79.132 212.358 79.132 212.358" stroke="#2D1F04" stroke-width="0.663185" stroke-miterlimit="10" stroke-linecap="round" stroke-linejoin="round"/>
<path d="M122.693 183.443C122.694 183.417 122.694 183.417 122.695 183.392" stroke="#2D1F04" stroke-width="0.663185" stroke-miterlimit="10" stroke-linecap="round" stroke-linejoin="round"/>
<path d="M122.151 255.496C120.547 254.247 117.536 254.695 116.033 255.7" stroke="#2D1F04" stroke-width="0.663185" stroke-miterlimit="10" stroke-linecap="round" stroke-linejoin="round"/>
<path d="M77.7575 239.363C77.6296 238.258 75.4786 235.577 74.3979 235.731" stroke="#2D1F04" stroke-width="0.663185" stroke-miterlimit="10" stroke-linecap="round" stroke-linejoin="round"/>
<path d="M76.4806 237.131C76.1722 237.168 74.4539 237.293 72.8109 237.447C71.1169 237.599 69.9296 237.851 69.897 238.003" stroke="#2D1F04" stroke-width="0.663185" stroke-miterlimit="10" stroke-linecap="round" stroke-linejoin="round"/>
<path d="M156.241 234.067C155.311 234.816 154.56 234.475 153.518 234.35" stroke="#2D1F04" stroke-width="0.663185" stroke-miterlimit="10" stroke-linecap="round" stroke-linejoin="round"/>
<path d="M155.111 234.73C155.358 236.582 155.748 238.645 155.13 240.406" stroke="#2D1F04" stroke-width="0.663185" stroke-miterlimit="10" stroke-linecap="round" stroke-linejoin="round"/>
<path d="M80.289 209.447C80.1101 210.001 80.3553 210.779 80.6668 211.228" stroke="#2D1F04" stroke-width="0.663185" stroke-miterlimit="10" stroke-linecap="round" stroke-linejoin="round"/>
<path d="M151.002 220.202C150.962 217.746 150.264 214.059 148.886 210.135" stroke="#2D1F04" stroke-width="0.663185" stroke-miterlimit="10" stroke-linecap="round" stroke-linejoin="round"/>
<path d="M149.717 229.216C145.371 250.281 124.236 255.746 122.678 256.262" stroke="#2D1F04" stroke-width="0.707969" stroke-miterlimit="10" stroke-linecap="round" stroke-linejoin="round"/>
<path d="M117.129 257.437C97.8836 261.277 80.5665 249.384 74.5462 242.486C71.2448 238.704 68.3169 232.92 68.2637 227.985" stroke="#2D1F04" stroke-width="0.663185" stroke-miterlimit="10" stroke-linecap="round" stroke-linejoin="round"/>
<path d="M122.488 236.598C122.577 234.659 116.564 229.27 115.009 228.073C113.232 226.713 111.37 225.503 109.456 224.341C104.534 221.327 93.0978 217.144 87.175 219.759" stroke="#2D1F04" stroke-width="0.685577" stroke-miterlimit="10" stroke-linecap="round" stroke-linejoin="round"/>
<path d="M126.016 196.146C123.745 197.166 119.886 197.166 117.39 195.313C116.352 194.549 115.557 193.49 115.189 192.042" stroke="#2D1F04" stroke-width="0.685577" stroke-miterlimit="10" stroke-linecap="round" stroke-linejoin="round"/>
<path d="M127.474 228.24C129.276 227.403 132.678 227.892 133.859 228.33" stroke="#2D1F04" stroke-width="0.685577" stroke-miterlimit="10" stroke-linecap="round" stroke-linejoin="round"/>
<path d="M125.788 230.999C126.754 230.558 128.805 230.423 130.202 231.714" stroke="#2D1F04" stroke-width="0.685577" stroke-miterlimit="10" stroke-linecap="round" stroke-linejoin="round"/>
<path d="M124.966 233.287C126.292 233.348 127.906 233.832 128.582 235.78" stroke="#2D1F04" stroke-width="0.685577" stroke-miterlimit="10" stroke-linecap="round" stroke-linejoin="round"/>
<path d="M136.987 209.33C138.188 208.236 139.594 207.687 141.166 207.402" stroke="#2D1F04" stroke-width="0.685577" stroke-miterlimit="10" stroke-linecap="round" stroke-linejoin="round"/>
<path d="M108.392 201.441C108.452 200.14 107.699 199.288 106.603 198.675" stroke="#2D1F04" stroke-width="0.685577" stroke-miterlimit="10" stroke-linecap="round" stroke-linejoin="round"/>
<path d="M90.1901 214.786C89.4136 212.782 88.0591 211.671 85.9111 211.138" stroke="#2D1F04" stroke-width="0.685577" stroke-miterlimit="10" stroke-linecap="round" stroke-linejoin="round"/>
<path d="M88.7287 215.996C88.7593 215.333 87.2679 214.421 86.7695 214.142" stroke="#2D1F04" stroke-width="0.685577" stroke-miterlimit="10" stroke-linecap="round" stroke-linejoin="round"/>
<path d="M133.738 212.682C133.686 212.705 133.634 212.728 133.582 212.751C132.12 213.4 130.1 213.434 128.534 213.566C122.809 214.12 109.406 210.459 106.723 204.354" stroke="#2D1F04" stroke-width="0.685577" stroke-miterlimit="10" stroke-linecap="round" stroke-linejoin="round"/>
<path d="M106.337 204.439C105.546 204.402 102.454 202.164 102.35 202.21C98.3835 203.969 94.622 207.936 94.4135 212.451" stroke="#2D1F04" stroke-width="0.685577" stroke-miterlimit="10" stroke-linecap="round" stroke-linejoin="round"/>
<path d="M136.235 211.213C136.088 211.078 143.969 211.442 143.067 214.365" stroke="#2D1F04" stroke-width="0.685577" stroke-miterlimit="10" stroke-linecap="round" stroke-linejoin="round"/>
<path d="M141.673 213.56C140.782 213.493 139.581 215.15 139.041 215.764C136.803 218.293 135.814 221.443 135.611 224.73" stroke="#2D1F04" stroke-width="0.685577" stroke-miterlimit="10" stroke-linecap="round" stroke-linejoin="round"/>
<path d="M133.954 195.311C130.713 194.088 127.721 191.905 126.113 190.195" stroke="#2D1F04" stroke-width="1.65939" stroke-miterlimit="10" stroke-linecap="round" stroke-linejoin="round"/>
<path d="M125.02 194.49C126.757 193.957 128.405 194.8 129.576 196.029" stroke="#2D1F04" stroke-width="0.710778" stroke-miterlimit="10" stroke-linecap="round" stroke-linejoin="round"/>
<path d="M117.37 191.325C116.493 190.39 114.627 189.843 113.381 190.246" stroke="#2D1F04" stroke-width="0.710778" stroke-miterlimit="10" stroke-linecap="round" stroke-linejoin="round"/>
<path d="M123.873 260.841C121.011 258.613 118.721 255.057 118.749 255.007" stroke="#2D1F04" stroke-width="0.663185" stroke-miterlimit="10" stroke-linecap="round" stroke-linejoin="round"/>
<path d="M119.515 188.05C115.706 189.178 112.205 188.045 112.053 188.012" stroke="#2D1F04" stroke-width="1.44671" stroke-miterlimit="10" stroke-linecap="round" stroke-linejoin="round"/>
<path d="M102.183 236.273C98.6535 236.315 96.3521 239.659 96.3073 240.628" stroke="#2D1F04" stroke-width="0.663185" stroke-miterlimit="10" stroke-linecap="round" stroke-linejoin="round"/>
<path d="M98.1857 234.811C95.8136 234.701 92.7066 236.117 90.9612 240.151" stroke="#2D1F04" stroke-width="0.663185" stroke-miterlimit="10" stroke-linecap="round" stroke-linejoin="round"/>
<path d="M103.692 203.013C100.925 203.703 98.4162 207.115 96.736 209.184" stroke="#2D1F04" stroke-width="0.707969" stroke-miterlimit="10" stroke-linecap="round" stroke-linejoin="round"/>
<path d="M141.087 211.846C138.724 212.095 136.343 216.074 135.042 217.675" stroke="#2D1F04" stroke-width="0.707969" stroke-miterlimit="10" stroke-linecap="round" stroke-linejoin="round"/>
<path d="M133.851 224.649C133.747 223.571 133.895 222.581 134.122 221.544" stroke="#2D1F04" stroke-width="0.707969" stroke-miterlimit="10" stroke-linecap="round" stroke-linejoin="round"/>
<path d="M112.824 210.055L112.717 210.178L112.606 210.351L112.524 210.475L112.302 210.849" stroke="#2D1F04" stroke-width="0.707969" stroke-miterlimit="10" stroke-linecap="round" stroke-linejoin="round"/>
<path d="M114.121 210.754L113.82 211.174L113.76 211.376L113.678 211.5" stroke="#2D1F04" stroke-width="0.707969" stroke-miterlimit="10" stroke-linecap="round" stroke-linejoin="round"/>
<path d="M99.7773 203.65C99.877 203.706 99.9755 203.787 100.075 203.843" stroke="#2D1F04" stroke-width="0.707969" stroke-miterlimit="10" stroke-linecap="round" stroke-linejoin="round"/>
<path d="M98.4375 204.994L99.2533 205.594" stroke="#2D1F04" stroke-width="0.707969" stroke-miterlimit="10" stroke-linecap="round" stroke-linejoin="round"/>
<path d="M100.883 202.96L101.724 203.561" stroke="#2D1F04" stroke-width="0.707969" stroke-miterlimit="10" stroke-linecap="round" stroke-linejoin="round"/>
<path d="M99.8994 203.784L100.742 204.359" stroke="#2D1F04" stroke-width="0.707969" stroke-miterlimit="10" stroke-linecap="round" stroke-linejoin="round"/>
<path d="M96.3877 207.89L97.2035 208.49" stroke="#2D1F04" stroke-width="0.707969" stroke-miterlimit="10" stroke-linecap="round" stroke-linejoin="round"/>
<path d="M137.654 214.243L138.519 214.897" stroke="#2D1F04" stroke-width="0.707969" stroke-miterlimit="10" stroke-linecap="round" stroke-linejoin="round"/>
<path d="M136.68 215.425L137.646 216.083" stroke="#2D1F04" stroke-width="0.707969" stroke-miterlimit="10" stroke-linecap="round" stroke-linejoin="round"/>
<path d="M93.1847 203.627C92.9689 203.872 92.6707 204.242 92.4537 204.513" stroke="#9D7B51" stroke-width="0.780712" stroke-miterlimit="10" stroke-linecap="round" stroke-linejoin="round"/>
<path d="M95.0334 203.993C94.8176 204.239 94.5193 204.608 94.3023 204.88" stroke="#9D7B51" stroke-width="0.780712" stroke-miterlimit="10" stroke-linecap="round" stroke-linejoin="round"/>
<path d="M118.529 242.6C118.314 242.846 118.015 243.216 117.798 243.487" stroke="#9D7B51" stroke-width="0.780712" stroke-miterlimit="10" stroke-linecap="round" stroke-linejoin="round"/>
<path d="M142.053 216.951C141.837 217.197 141.539 217.566 141.322 217.837" stroke="#9D7B51" stroke-width="0.780712" stroke-miterlimit="10" stroke-linecap="round" stroke-linejoin="round"/>
<path d="M116.862 242.166C116.647 242.411 116.348 242.781 116.131 243.052" stroke="#9D7B51" stroke-width="0.780712" stroke-miterlimit="10" stroke-linecap="round" stroke-linejoin="round"/>
<path d="M131.815 208.964C131.599 209.209 131.301 209.579 131.084 209.85" stroke="#9D7B51" stroke-width="0.780712" stroke-miterlimit="10" stroke-linecap="round" stroke-linejoin="round"/>
<path d="M129.751 208.817C129.535 209.063 129.237 209.432 129.02 209.704" stroke="#9D7B51" stroke-width="0.780712" stroke-miterlimit="10" stroke-linecap="round" stroke-linejoin="round"/>
<path d="M127.208 208.521C126.992 208.767 126.694 209.136 126.477 209.407" stroke="#9D7B51" stroke-width="0.780712" stroke-miterlimit="10" stroke-linecap="round" stroke-linejoin="round"/>
<path opacity="0.23" d="M118.41 185.417C118.359 185.415 144.272 184.413 133.393 212.973C133.392 212.998 136.176 211.389 136.176 211.389C136.176 211.389 141.053 197.658 135.722 190.23C135.146 189.411 134.038 189.053 133.437 188.233C132.427 186.857 131.344 185.401 130.092 184.27C128.915 183.193 129.215 184.996 128.784 184.925C128.505 184.887 126.012 181.858 125.545 182.015C125.156 182.125 126.473 184.614 126.235 184.782C126.183 184.805 126.107 184.776 126.058 184.748C125.18 184.375 124.035 183.709 123.299 183.036C123.054 182.82 123.845 183.956 123.071 184.099C122.324 184.243 118.908 182.373 118.764 183.287C118.814 183.314 121.366 185.043 118.41 185.417Z" fill="#3F2719"/>
<path opacity="0.23" d="M113.294 237.528C113.586 237.286 116.416 235.218 117.505 234.348C122.176 230.602 127.34 223.94 121.688 218.49C117.454 214.409 111.778 212.23 105.989 211.401C103.501 211.03 101.281 212.052 98.898 211.635C97.3516 211.359 97.3888 211.106 97.5548 210.832C98.0552 209.961 100.792 208.809 103.244 209.408C105.393 209.916 107.65 210.864 109.657 211.672C112.818 212.968 122.729 215.854 127.955 215.61C133.871 215.346 136.964 215.898 138.059 216.537C138.458 216.76 150.911 217.744 154.755 226.944C155.352 228.403 156.11 230.253 156.115 231.812C156.125 232.145 156.105 234.802 155.794 234.89C155.379 235.024 154.35 234.056 153.928 234.344C153.689 234.537 154.533 234.525 154.839 234.539C155.043 234.548 155.907 234.103 156.082 234.187C156.432 234.357 155.525 237.945 155.448 238.503C155.444 238.58 155.466 238.658 155.413 238.706C155.361 238.729 154.168 235.786 153.907 235.339C153.481 234.604 153.316 233.753 152.916 232.993C152.163 231.604 150.789 230.365 149.665 229.239C146.05 225.596 142.111 224.545 137.026 224.515C135.212 224.508 132.299 225.038 130.527 225.774C125.602 227.821 124.935 231.752 123.895 237.66C123.654 239.003 122.691 237.706 122.029 238.212C121.632 238.501 121.697 239.322 121.432 239.514C121.3 239.61 120.048 238.504 119.876 238.343C119.064 237.666 117.807 237.199 116.824 236.898C115.765 236.594 112.732 238.064 113.294 237.528Z" fill="#3F2719"/>
<path opacity="0.23" d="M118.973 237.969C120.902 238.262 121.481 240.666 121.483 242.277C121.428 247.335 119.61 248.529 117.016 251.553C113.557 255.611 118.861 258.105 120.798 259.319C121.469 259.733 122.428 260.008 123.18 260.324C123.456 260.439 124.067 261.055 123.977 260.769C123.799 260.199 123.185 259.659 122.96 259.01C122.222 256.727 122.624 252.451 122.658 250.05C122.721 246.475 123.789 244.377 121.721 241.01C121.316 240.352 120.999 239.468 120.356 239.004" fill="#3F2719"/>
<path opacity="0.23" d="M109.313 241.255C108.1 240.406 107.912 237.279 97.7912 232.824C91.9046 230.227 85.4486 229.443 81.0301 236.012C80.2351 237.177 78.6686 238.996 77.2665 239.468C77.1633 239.489 77.0115 239.456 76.9813 239.557C76.9475 239.734 77.8437 239.699 77.8948 239.701C78.5395 239.578 79.2042 239.021 79.7076 238.635C81.798 237.096 83.7298 233.453 86.5127 232.968C91.6668 232.056 97.0731 233.43 101.609 235.94C102.88 236.638 103.937 237.556 105.102 238.351" fill="#3F2719"/>
<path d="M106.802 209.853C108.428 210.618 109.807 211.193 111.083 211.789C112.134 212.272 112.075 213.01 111.625 213.347C110.99 213.804 109.943 213.781 108.55 213.512C108.473 213.509 108.398 213.479 108.272 213.448C109.058 214.123 108.34 214.729 108.543 216.426C107.541 215.996 106.636 215.647 105.708 215.272C105.625 214.297 105.679 213.686 105.879 213.235C105.967 212.984 105.951 212.779 105.192 212.616C104.334 212.934 103.522 213.357 103.118 214.36C102.288 214.066 101.532 213.827 100.749 213.612C102.16 211.3 104.979 211.686 106.802 209.853ZM107.867 211.691C107.474 211.903 107.033 212.036 106.515 212.191C107.019 212.342 107.497 212.518 108.001 212.669C108.455 212.792 108.889 212.812 109.175 212.697C109.487 212.584 109.497 212.38 109.121 212.209C108.797 212.041 108.343 211.892 107.867 211.691Z" fill="#2D1F04"/>
<path d="M117.808 216.163C117.082 215.848 116.429 215.588 115.727 215.3C115.919 215.002 115.729 214.687 115.203 214.458C114.852 214.314 114.497 214.247 114.159 214.384C113.973 214.529 114.146 214.665 114.369 214.803C114.792 215.053 115.24 215.329 115.662 215.604C115.91 215.769 116.132 215.932 116.355 216.096C117.736 217.182 116.633 218.358 114.8 218.759C114.181 218.884 113.517 218.879 112.936 218.724C112.002 218.477 111.131 217.951 110.37 217.277C109.363 216.387 109.114 215.148 109.88 214.596C110.611 214.834 111.365 215.099 112.119 215.389C112.088 215.49 112.034 215.564 112.004 215.665C111.878 216.17 112.486 216.838 113.35 216.954C113.757 216.998 114.092 216.937 114.281 216.716C114.469 216.52 114.376 216.311 114.155 216.122C113.958 215.96 113.735 215.822 113.511 215.684C113.065 215.382 112.591 215.13 112.22 214.857C111.503 214.338 111.518 214.007 112.093 213.727C112.721 213.423 113.629 213.133 114.644 213.282C115.584 213.402 116.437 213.748 117.175 214.37C117.991 214.97 118.165 215.643 117.808 216.163Z" fill="#2D1F04"/>
<path d="M142.786 188.358L140.705 191.354C140.568 191.552 140.408 191.698 140.197 191.842C140.013 191.961 139.804 192.054 139.572 192.094C139.34 192.135 139.136 192.125 138.908 192.089C138.679 192.053 138.479 191.967 138.281 191.83C138.181 191.774 138.133 191.696 138.113 191.592C138.092 191.489 138.122 191.388 138.177 191.314C138.232 191.214 138.311 191.167 138.414 191.146C138.518 191.125 138.618 191.156 138.693 191.21C138.817 191.293 138.916 191.348 139.044 191.354C139.17 191.386 139.298 191.391 139.428 191.346C139.556 191.327 139.661 191.28 139.792 191.21C139.897 191.138 140.004 191.041 140.085 190.942L142.142 187.919C142.198 187.819 142.276 187.772 142.38 187.751C142.483 187.73 142.584 187.76 142.658 187.815C142.732 187.869 142.805 187.949 142.826 188.053C142.872 188.157 142.842 188.258 142.786 188.358ZM143.465 187.494C143.384 187.593 143.304 187.666 143.175 187.685C143.046 187.705 142.945 187.675 142.846 187.619C142.747 187.538 142.674 187.458 142.655 187.329C142.635 187.2 142.665 187.1 142.721 187C142.777 186.9 142.882 186.828 143.011 186.809C143.14 186.789 143.241 186.819 143.34 186.875C143.439 186.956 143.512 187.036 143.531 187.165C143.552 187.268 143.521 187.395 143.465 187.494Z" fill="black"/>
<path d="M143.712 193.768C143.639 193.688 143.592 193.609 143.571 193.506C143.55 193.403 143.58 193.302 143.66 193.229C143.456 193.22 143.254 193.185 143.077 193.125C142.901 193.066 142.727 192.956 142.555 192.82C142.358 192.658 142.187 192.471 142.096 192.237C142.005 192.002 141.912 191.794 141.898 191.537C141.883 191.307 141.895 191.052 141.957 190.824C142.02 190.572 142.131 190.372 142.293 190.175L143.431 188.797C143.485 188.722 143.59 188.676 143.693 188.655C143.796 188.634 143.897 188.665 143.97 188.745C144.044 188.799 144.09 188.904 144.111 189.007C144.132 189.11 144.102 189.211 144.022 189.284L142.884 190.663C142.776 190.786 142.72 190.911 142.661 191.061C142.629 191.213 142.597 191.34 142.616 191.494C142.634 191.648 142.679 191.778 142.75 191.909C142.821 192.04 142.918 192.147 143.041 192.255C143.164 192.363 143.289 192.419 143.441 192.452C143.593 192.485 143.719 192.516 143.873 192.498C144.027 192.479 144.157 192.434 144.288 192.363C144.419 192.293 144.526 192.195 144.634 192.073L145.771 190.694C145.826 190.62 145.93 190.573 146.033 190.553C146.136 190.532 146.237 190.562 146.31 190.642C146.384 190.697 146.431 190.801 146.452 190.904C146.472 191.007 146.442 191.108 146.362 191.181L144.276 193.743C144.221 193.817 144.117 193.863 144.014 193.884C143.887 193.853 143.786 193.823 143.712 193.768Z" fill="black"/>
<path d="M146.205 193.449C146.113 193.24 146.044 193.058 146.05 192.93C146.062 192.675 146.149 192.449 146.311 192.278C146.444 192.156 146.602 192.061 146.757 192.017C146.938 191.975 147.116 191.983 147.294 192.017C147.471 192.05 147.673 192.111 147.847 192.221C148.021 192.331 148.194 192.442 148.316 192.575C148.756 193.004 148.937 193.524 148.906 194.187C148.903 194.263 148.874 194.339 148.794 194.412C148.713 194.485 148.635 194.532 148.533 194.527C148.431 194.523 148.355 194.494 148.257 194.412C148.208 194.359 148.159 194.306 148.163 194.229C148.166 194.153 148.143 194.101 148.147 194.024C148.138 193.666 148.023 193.379 147.779 193.138C147.534 192.897 147.259 192.782 146.952 192.768C146.901 192.765 146.849 192.788 146.796 192.837C146.743 192.886 146.74 192.937 146.763 192.989L147.584 194.586C147.676 194.82 147.744 195.002 147.739 195.104C147.727 195.359 147.64 195.585 147.479 195.757C147.346 195.878 147.188 195.973 147.032 196.017C146.877 196.061 146.673 196.052 146.496 196.018C146.318 195.984 146.117 195.924 145.943 195.814C145.769 195.703 145.595 195.593 145.473 195.46C145.033 195.03 144.853 194.511 144.883 193.848C144.887 193.771 144.941 193.697 144.996 193.623C145.076 193.55 145.155 193.502 145.257 193.507C145.359 193.512 145.434 193.541 145.533 193.622C145.581 193.676 145.629 193.754 145.627 193.805C145.623 193.882 145.646 193.934 145.643 194.011C145.652 194.369 145.766 194.655 146.036 194.898C146.281 195.139 146.556 195.254 146.864 195.243C146.915 195.245 146.967 195.222 146.995 195.172C147.048 195.123 147.05 195.072 147.029 194.995L146.205 193.449Z" fill="black"/>
<path d="M150.244 194.555L150.366 194.689L151.379 193.79C151.459 193.717 151.536 193.695 151.664 193.701C151.766 193.706 151.866 193.761 151.913 193.84C151.986 193.92 152.008 193.998 152.002 194.125C151.997 194.227 151.942 194.327 151.863 194.375L150.85 195.274L151.141 195.619C151.214 195.699 151.236 195.777 151.231 195.879C151.226 195.981 151.172 196.055 151.092 196.128C151.012 196.201 150.908 196.222 150.806 196.217C150.704 196.213 150.63 196.158 150.556 196.103L150.265 195.758L148.881 196.946C148.509 197.261 148.494 197.593 148.809 197.965C148.882 198.045 148.904 198.123 148.899 198.225C148.894 198.327 148.84 198.401 148.76 198.474C148.68 198.547 148.576 198.568 148.474 198.563C148.372 198.559 148.298 198.504 148.224 198.449C147.568 197.704 147.626 197.016 148.372 196.36L149.756 195.172L149.634 195.038C149.561 194.958 149.539 194.881 149.544 194.779C149.548 194.677 149.604 194.577 149.683 194.53C149.763 194.457 149.841 194.435 149.968 194.44C150.096 194.446 150.171 194.475 150.244 194.555Z" fill="black"/>
<path d="M150.281 200.41L154.378 197.481C154.458 197.408 154.561 197.387 154.662 197.418C154.763 197.448 154.838 197.477 154.91 197.582C154.983 197.663 155.004 197.766 154.973 197.867C154.943 197.967 154.914 198.043 154.809 198.115L151.004 200.802L151.1 200.934C151.147 201.013 151.194 201.117 151.164 201.218C151.159 201.32 151.104 201.394 150.999 201.466C150.919 201.539 150.815 201.56 150.715 201.529C150.613 201.525 150.538 201.47 150.467 201.365L150.155 200.916C150.082 200.836 150.061 200.732 150.092 200.632C150.146 200.557 150.175 200.482 150.281 200.41Z" fill="black"/>
<path d="M153.54 204.011C153.586 204.116 153.608 204.193 153.578 204.294C153.548 204.395 153.493 204.469 153.414 204.517C153.335 204.564 153.232 204.585 153.131 204.555C152.652 204.405 152.283 204.107 152.021 203.686C151.736 203.212 151.658 202.698 151.785 202.167C151.912 201.61 152.212 201.215 152.686 200.905C153.16 200.62 153.674 200.541 154.205 200.668C154.762 200.796 155.157 201.096 155.467 201.57C155.752 202.043 155.83 202.558 155.704 203.089C155.64 203.367 155.527 203.592 155.389 203.816C155.227 204.013 155.039 204.208 154.802 204.351C154.698 204.397 154.62 204.419 154.519 204.389C154.418 204.359 154.344 204.304 154.297 204.225L152.799 201.779C152.718 201.877 152.636 202.001 152.579 202.127C152.522 202.252 152.49 202.378 152.485 202.506C152.479 202.633 152.473 202.761 152.518 202.891C152.538 203.019 152.608 203.15 152.68 203.256C152.776 203.388 152.873 203.495 152.971 203.602C153.069 203.683 153.219 203.766 153.345 203.798C153.418 203.878 153.492 203.932 153.54 204.011ZM154.715 203.478C154.796 203.379 154.878 203.255 154.935 203.13C154.992 203.005 155.023 202.879 155.029 202.751C155.035 202.623 155.041 202.496 154.996 202.366C154.976 202.237 154.906 202.106 154.834 202.001C154.762 201.895 154.665 201.788 154.567 201.682C154.47 201.575 154.345 201.518 154.22 201.461C154.095 201.404 153.968 201.373 153.841 201.367C153.713 201.361 153.559 201.38 153.43 201.399L154.715 203.478Z" fill="black"/>
<path d="M157.051 204.352L157.121 204.509L158.324 203.9C158.429 203.854 158.505 203.857 158.606 203.887C158.707 203.918 158.781 203.972 158.827 204.077C158.874 204.181 158.87 204.258 158.84 204.358C158.81 204.459 158.755 204.533 158.651 204.58L157.447 205.189L157.659 205.582C157.705 205.686 157.702 205.763 157.671 205.864C157.641 205.964 157.587 206.039 157.482 206.085C157.378 206.131 157.3 206.153 157.199 206.123C157.098 206.093 157.024 206.038 156.978 205.934L156.766 205.541L155.144 206.36C154.725 206.571 154.608 206.898 154.817 207.342C154.863 207.446 154.86 207.523 154.83 207.624C154.799 207.725 154.745 207.799 154.64 207.845C154.536 207.891 154.458 207.913 154.358 207.883C154.257 207.853 154.183 207.798 154.136 207.694C153.692 206.804 153.901 206.15 154.79 205.705L156.413 204.885L156.344 204.729C156.296 204.65 156.301 204.548 156.331 204.447C156.361 204.346 156.416 204.272 156.52 204.226C156.625 204.179 156.701 204.183 156.802 204.213C156.931 204.194 157.005 204.248 157.051 204.352Z" fill="black"/>
<path d="M158.093 213.883C158.116 213.935 158.114 213.986 158.112 214.037C158.109 214.089 158.107 214.14 158.079 214.189C158.051 214.239 158.025 214.264 157.997 214.313C157.97 214.338 157.917 214.386 157.866 214.384C157.762 214.405 157.66 214.4 157.56 214.37C156.963 214.01 156.577 213.507 156.35 212.883C156.078 212.129 156.113 211.389 156.453 210.664C156.793 209.938 157.352 209.453 158.106 209.181C158.86 208.909 159.599 208.943 160.325 209.283C161.05 209.624 161.536 210.183 161.808 210.937C162.033 211.586 162.028 212.25 161.794 212.904C161.765 212.979 161.684 213.052 161.58 213.099C161.528 213.122 161.477 213.119 161.426 213.117C161.375 213.115 161.324 213.112 161.274 213.084C161.224 213.057 161.2 213.03 161.15 213.002C161.126 212.975 161.103 212.923 161.079 212.871C161.057 212.793 161.062 212.691 161.092 212.59C161.179 212.364 161.216 212.136 161.201 211.905C161.211 211.676 161.145 211.443 161.079 211.21C160.875 210.663 160.51 210.263 159.985 210.009C159.46 209.755 158.924 209.73 158.352 209.933C157.806 210.138 157.38 210.502 157.152 211.028C156.897 211.553 156.873 212.089 157.076 212.661C157.234 213.128 157.549 213.5 157.972 213.75C157.998 213.726 158.046 213.804 158.093 213.883Z" fill="black"/>
<path d="M157.69 215.986C157.586 216.007 157.484 216.002 157.41 215.948C157.311 215.892 157.263 215.813 157.242 215.71C157.221 215.607 157.226 215.505 157.281 215.431C157.336 215.331 157.415 215.283 157.519 215.263L162.36 213.927C162.463 213.906 162.565 213.911 162.639 213.966C162.713 214.02 162.786 214.1 162.807 214.203C162.828 214.307 162.823 214.409 162.769 214.483C162.713 214.582 162.634 214.63 162.531 214.651L157.69 215.986Z" fill="black"/>
<path d="M162.312 219.931C162.393 220.395 162.321 220.852 162.098 221.251L163.876 220.949C163.979 220.929 164.08 220.959 164.154 221.013C164.228 221.068 164.275 221.147 164.296 221.25C164.317 221.353 164.287 221.454 164.232 221.528C164.178 221.602 164.098 221.675 163.996 221.671L160.671 222.258C160.104 222.36 159.624 222.235 159.154 221.907C158.709 221.58 158.423 221.132 158.32 220.591C158.217 220.049 158.343 219.544 158.671 219.073C158.999 218.628 159.421 218.341 159.988 218.239C160.555 218.138 161.035 218.262 161.505 218.591C161.924 218.942 162.211 219.364 162.312 219.931ZM160.527 221.51C160.707 221.493 160.863 221.424 160.995 221.328C161.128 221.231 161.26 221.135 161.344 220.986C161.426 220.862 161.51 220.712 161.543 220.535C161.576 220.383 161.584 220.205 161.567 220.025C161.524 219.844 161.48 219.689 161.384 219.556C161.288 219.424 161.192 219.292 161.042 219.208C160.918 219.126 160.769 219.042 160.591 219.008C160.44 218.976 160.261 218.968 160.081 218.985C159.902 219.002 159.745 219.072 159.613 219.168C159.481 219.264 159.348 219.36 159.265 219.51C159.182 219.634 159.099 219.783 159.065 219.96C159.032 220.112 159.024 220.291 159.041 220.47C159.059 220.65 159.128 220.807 159.224 220.939C159.32 221.071 159.442 221.205 159.566 221.287C159.69 221.369 159.839 221.453 160.017 221.487C160.193 221.546 160.346 221.553 160.527 221.51Z" fill="black"/>
<path d="M161.095 226.93C160.53 226.98 160.052 226.83 159.608 226.478C159.19 226.126 158.93 225.654 158.878 225.115C158.828 224.55 158.978 224.072 159.33 223.628C159.682 223.209 160.154 222.95 160.693 222.898C161.232 222.847 161.737 222.998 162.18 223.35C162.599 223.702 162.858 224.174 162.91 224.713C162.96 225.278 162.811 225.757 162.458 226.2C162.269 226.422 162.082 226.592 161.846 226.709C161.611 226.826 161.377 226.917 161.095 226.93ZM162.19 224.808C162.173 224.628 162.129 224.473 162.034 224.315C161.939 224.157 161.841 224.05 161.719 223.942C161.596 223.835 161.446 223.751 161.294 223.718C161.144 223.66 160.965 223.652 160.785 223.669C160.606 223.687 160.45 223.731 160.294 223.8C160.137 223.869 160.029 223.992 159.921 224.115C159.813 224.238 159.73 224.387 159.697 224.539C159.639 224.69 159.631 224.868 159.648 225.048C159.666 225.228 159.709 225.383 159.804 225.541C159.899 225.699 159.997 225.806 160.119 225.913C160.242 226.021 160.392 226.105 160.544 226.138C160.694 226.196 160.873 226.204 161.053 226.187C161.232 226.169 161.388 226.125 161.519 226.055C161.675 225.985 161.783 225.862 161.891 225.74C161.999 225.617 162.083 225.467 162.141 225.317C162.174 225.139 162.207 224.987 162.19 224.808Z" fill="black"/>
<path d="M159.506 229.796L162.804 229.769C162.906 229.774 163.007 229.804 163.08 229.884C163.153 229.964 163.201 230.043 163.196 230.145C163.191 230.247 163.161 230.348 163.081 230.421C163.001 230.494 162.922 230.541 162.82 230.537L159.522 230.563C159.42 230.558 159.319 230.528 159.246 230.448C159.173 230.368 159.125 230.289 159.13 230.187C159.135 230.085 159.165 229.984 159.245 229.911C159.325 229.838 159.403 229.816 159.506 229.796ZM163.916 230.613C163.788 230.607 163.687 230.577 163.589 230.495C163.49 230.414 163.469 230.311 163.45 230.182C163.456 230.055 163.486 229.954 163.567 229.855C163.648 229.757 163.752 229.736 163.88 229.716C164.009 229.697 164.109 229.753 164.207 229.834C164.306 229.915 164.326 230.018 164.346 230.147C164.34 230.274 164.31 230.375 164.229 230.474C164.148 230.572 164.019 230.592 163.916 230.613Z" fill="black"/>
<path d="M163.171 231.78L163.163 231.958L164.516 231.995C164.618 232 164.719 232.03 164.766 232.109C164.814 232.188 164.861 232.267 164.856 232.369C164.852 232.471 164.821 232.571 164.743 232.619C164.664 232.666 164.585 232.714 164.483 232.709L163.13 232.672L163.109 233.131C163.104 233.233 163.074 233.334 162.995 233.382C162.915 233.455 162.837 233.477 162.735 233.472C162.633 233.467 162.532 233.437 162.459 233.357C162.386 233.277 162.364 233.199 162.369 233.097L162.39 232.638L160.578 232.58C160.093 232.558 159.852 232.802 159.83 233.287C159.825 233.389 159.795 233.49 159.716 233.537C159.636 233.61 159.558 233.632 159.456 233.627C159.354 233.623 159.253 233.592 159.18 233.512C159.107 233.432 159.085 233.355 159.09 233.253C159.111 232.257 159.618 231.794 160.613 231.815L162.425 231.873L162.434 231.694C162.438 231.592 162.467 231.517 162.548 231.444C162.628 231.371 162.705 231.349 162.807 231.354C162.909 231.359 163.01 231.389 163.058 231.468C163.105 231.547 163.176 231.678 163.171 231.78Z" fill="black"/>
<path d="M160.901 234.998C161.014 234.773 161.097 234.623 161.203 234.552C161.39 234.381 161.623 234.315 161.878 234.327C162.056 234.335 162.233 234.395 162.355 234.503C162.478 234.61 162.625 234.745 162.695 234.902C162.79 235.059 162.858 235.241 162.9 235.448C162.941 235.654 162.959 235.834 162.949 236.038C162.921 236.65 162.642 237.148 162.113 237.533C162.06 237.582 161.982 237.604 161.88 237.599C161.778 237.594 161.678 237.538 161.63 237.485C161.557 237.405 161.535 237.327 161.541 237.2C161.544 237.123 161.573 237.048 161.627 236.999C161.68 236.951 161.733 236.902 161.787 236.853C162.052 236.636 162.194 236.335 162.211 235.978C162.227 235.621 162.138 235.336 161.943 235.122C161.92 235.07 161.844 235.067 161.793 235.064C161.716 235.061 161.69 235.085 161.66 235.161L160.996 236.817C160.883 237.042 160.8 237.191 160.694 237.263C160.508 237.433 160.274 237.499 160.019 237.487C159.841 237.479 159.665 237.42 159.542 237.312C159.394 237.203 159.272 237.069 159.202 236.913C159.108 236.755 159.039 236.573 158.998 236.367C158.956 236.16 158.939 235.981 158.948 235.777C158.977 235.164 159.255 234.666 159.759 234.28C159.837 234.233 159.915 234.211 159.992 234.214C160.094 234.219 160.193 234.275 160.242 234.328C160.315 234.408 160.337 234.486 160.331 234.614C160.328 234.69 160.299 234.765 160.245 234.814C160.192 234.863 160.138 234.911 160.111 234.961C159.845 235.179 159.703 235.479 159.687 235.836C159.671 236.168 159.76 236.453 159.954 236.692C160.004 236.72 160.028 236.747 160.105 236.75C160.181 236.754 160.233 236.73 160.262 236.655L160.901 234.998Z" fill="black"/>
<path d="M162.392 240.894L162.358 241.072L163.702 241.313C163.803 241.343 163.878 241.372 163.95 241.477C163.997 241.556 164.018 241.66 164.013 241.762C163.983 241.862 163.954 241.938 163.849 242.01C163.77 242.057 163.667 242.078 163.564 242.073L162.221 241.832L162.149 242.289C162.119 242.39 162.089 242.465 161.984 242.537C161.905 242.584 161.802 242.605 161.7 242.6C161.599 242.57 161.524 242.541 161.452 242.436C161.38 242.33 161.384 242.254 161.388 242.152L161.46 241.695L159.661 241.356C159.18 241.257 158.916 241.449 158.817 241.931C158.787 242.031 158.758 242.107 158.652 242.179C158.573 242.226 158.47 242.247 158.368 242.242C158.267 242.212 158.192 242.183 158.12 242.077C158.048 241.972 158.052 241.895 158.056 241.793C158.229 240.83 158.81 240.422 159.772 240.62L161.571 240.959L161.605 240.781C161.635 240.68 161.664 240.605 161.77 240.533C161.849 240.486 161.952 240.465 162.054 240.47C162.155 240.5 162.23 240.529 162.302 240.635C162.375 240.715 162.397 240.792 162.392 240.894Z" fill="black"/>
<path d="M158.137 243.382C158.036 243.351 157.962 243.297 157.916 243.192C157.868 243.114 157.847 243.01 157.878 242.91C157.908 242.809 157.962 242.735 158.067 242.688C158.146 242.641 158.249 242.62 158.35 242.65L163.195 243.999C163.296 244.029 163.37 244.083 163.416 244.188C163.464 244.267 163.484 244.37 163.454 244.471C163.424 244.571 163.369 244.646 163.265 244.692C163.186 244.739 163.083 244.76 162.982 244.73L161.316 244.27C161.478 244.635 161.485 245.044 161.364 245.448C161.301 245.7 161.19 245.9 161.028 246.097C160.865 246.294 160.679 246.438 160.468 246.582C160.257 246.726 160.024 246.792 159.792 246.832C159.535 246.871 159.305 246.861 159.054 246.772L157.337 246.31C157.236 246.279 157.162 246.225 157.116 246.12C157.068 246.042 157.048 245.938 157.078 245.838C157.108 245.737 157.162 245.663 157.267 245.616C157.346 245.569 157.449 245.548 157.55 245.578L159.266 246.041C159.418 246.073 159.571 246.081 159.7 246.061C159.854 246.042 159.984 245.997 160.115 245.927C160.246 245.856 160.353 245.759 160.435 245.635C160.518 245.511 160.6 245.387 160.633 245.235C160.665 245.083 160.698 244.931 160.654 244.776C160.61 244.62 160.59 244.492 160.52 244.361C160.449 244.23 160.352 244.123 160.228 244.04C160.104 243.958 159.98 243.876 159.828 243.843L158.137 243.382Z" fill="black"/>
<path d="M157.053 246.935L160.145 248.049C160.246 248.08 160.319 248.16 160.366 248.239C160.414 248.317 160.409 248.419 160.379 248.52C160.349 248.621 160.269 248.694 160.19 248.742C160.085 248.788 160.009 248.784 159.908 248.754L156.816 247.64C156.715 247.61 156.642 247.53 156.594 247.451C156.548 247.346 156.552 247.27 156.582 247.169C156.612 247.068 156.692 246.995 156.771 246.948C156.875 246.902 156.953 246.88 157.053 246.935ZM160.911 249.184C160.784 249.152 160.711 249.072 160.666 248.942C160.62 248.838 160.6 248.709 160.656 248.61C160.712 248.51 160.767 248.41 160.897 248.365C161.027 248.32 161.13 248.299 161.23 248.355C161.356 248.386 161.429 248.467 161.475 248.596C161.521 248.701 161.54 248.829 161.485 248.929C161.453 249.056 161.373 249.128 161.243 249.174C161.139 249.22 161.036 249.241 160.911 249.184Z" fill="black"/>
<path d="M159.271 250.361C159.355 250.748 159.311 251.155 159.139 251.556C159.027 251.781 158.89 251.979 158.703 252.149C158.516 252.319 158.306 252.437 158.097 252.53C157.863 252.622 157.631 252.662 157.376 252.65C157.121 252.638 156.893 252.602 156.642 252.488L155.015 251.749C154.915 251.693 154.841 251.638 154.82 251.535C154.774 251.431 154.779 251.329 154.833 251.255C154.889 251.155 154.944 251.081 155.047 251.06C155.15 251.039 155.253 251.019 155.327 251.073L156.955 251.813C157.105 251.871 157.232 251.902 157.385 251.909C157.538 251.916 157.667 251.897 157.823 251.827C157.953 251.782 158.084 251.712 158.191 251.614C158.297 251.517 158.38 251.393 158.463 251.243C158.522 251.093 158.553 250.966 158.56 250.813C158.567 250.66 158.547 250.532 158.478 250.375C158.433 250.245 158.362 250.114 158.239 250.006C158.142 249.9 158.018 249.817 157.869 249.734L156.241 248.994C156.142 248.938 156.068 248.884 156.047 248.78C156 248.676 156.005 248.574 156.06 248.5C156.115 248.4 156.17 248.326 156.273 248.305C156.376 248.284 156.48 248.264 156.554 248.318L159.532 249.683C159.632 249.738 159.681 249.792 159.727 249.896C159.773 250 159.769 250.102 159.714 250.177C159.658 250.276 159.605 250.325 159.501 250.371C159.473 250.421 159.371 250.416 159.271 250.361Z" fill="black"/>
<path d="M153.105 254.932C153.05 254.47 153.146 254.039 153.421 253.618C153.724 253.146 154.146 252.859 154.689 252.731C155.232 252.602 155.738 252.702 156.21 253.005C156.682 253.308 156.969 253.73 157.097 254.273C157.225 254.816 157.125 255.322 156.822 255.794C156.52 256.266 156.097 256.553 155.555 256.681C155.012 256.809 154.505 256.709 154.034 256.406L152.345 255.332C152.196 255.248 152.074 255.115 151.977 255.008C151.881 254.876 151.785 254.743 151.741 254.588C151.671 254.431 151.653 254.277 151.634 254.123C151.616 253.969 151.624 253.79 151.631 253.637C151.638 253.484 151.697 253.308 151.73 253.156C151.788 253.005 151.846 252.855 151.955 252.706C152.066 252.533 152.173 252.41 152.334 252.264C152.467 252.142 152.626 252.022 152.809 251.928C152.992 251.834 153.174 251.766 153.355 251.723C153.562 251.682 153.741 251.664 153.946 251.674C154.022 251.677 154.073 251.68 154.147 251.734C154.247 251.79 154.294 251.869 154.315 251.972C154.336 252.075 154.306 252.176 154.251 252.25C154.223 252.3 154.17 252.349 154.118 252.372C154.066 252.395 153.962 252.416 153.835 252.41C153.681 252.428 153.579 252.424 153.501 252.446C153.114 252.53 152.822 252.747 152.629 253.07C152.409 253.392 152.367 253.748 152.426 254.134C152.516 254.394 152.637 254.553 152.785 254.662L153.105 254.932ZM156.176 255.406C156.259 255.257 156.343 255.107 156.351 254.929C156.359 254.75 156.367 254.597 156.348 254.443C156.33 254.289 156.26 254.132 156.164 254C156.068 253.868 155.946 253.734 155.797 253.651C155.647 253.567 155.497 253.509 155.319 253.475C155.142 253.442 154.988 253.46 154.833 253.478C154.678 253.522 154.523 253.566 154.39 253.662C154.258 253.759 154.125 253.88 154.041 254.03C153.958 254.179 153.874 254.329 153.866 254.507C153.858 254.686 153.85 254.839 153.869 254.993C153.913 255.148 153.957 255.304 154.053 255.436C154.149 255.568 154.271 255.702 154.42 255.785C154.57 255.869 154.72 255.927 154.898 255.961C155.075 255.994 155.229 255.976 155.384 255.958C155.539 255.914 155.694 255.87 155.827 255.774C155.984 255.679 156.092 255.556 156.176 255.406Z" fill="black"/>
<path opacity="0.23" d="M57.5701 227.32C72.5701 230.7 100.02 226.05 100.52 226.18C101.02 226.31 106.07 227.33 118.8 230.65C131.53 233.97 146.34 237.08 154.01 237.08C156.9 237.08 160.51 234.51 164.48 230.06C168.57 225.49 172.05 219.98 175.42 213.89C168.27 224.53 159.54 229.22 157.04 229.89C153.93 230.72 152.95 230.74 148.53 230.4C134.33 229.33 104.65 220.78 101.41 220.31C99.1501 219.99 66.2801 225.67 57.1201 219.08" fill="#3F2719"/>
<path opacity="0.23" d="M219.86 273.82C219.35 274.89 218.78 276.26 218.4 277.31C208.67 288.66 185.08 295.3 166.85 298.38C134.52 303.87 106.07 301.25 85.5304 291.2C83.0304 288.58 80.7604 286 78.6904 283.47C81.5804 284.81 85.3604 286.77 88.3304 288.15C96.7604 292.07 105.47 292.75 107.35 289.75C108.31 288.22 109.64 285.02 108.86 281.28C107.77 276.07 104.41 266.03 107.03 256.34C105.69 267.4 112.46 275.83 112.85 284C112.85 293.02 121.08 294.67 130.21 295.27C137.29 295.74 144.18 295.74 157.23 294.34C170.9 292.89 173.24 288.98 173.41 280.56C173.54 274.38 172.01 263.96 168.86 258.73C165.05 252.4 151.96 248.07 137.83 245.01C147.36 244.84 166.23 246.3 175.26 254.3C178.21 256.92 181.38 259.74 184.4 262.32C182.8 265.14 182.04 267.86 181.91 269.19C181.75 270.8 184.94 268.04 191.71 268.18C194.04 268.22 196.8 268.61 199.98 269.65C202.25 270.38 204.73 271.43 207.44 272.92C211.84 275.33 215.23 274.8 219.86 273.82Z" fill="#3F2719"/>
<path opacity="0.23" d="M224.45 252.86C223 253.54 221.43 254.19 219.76 254.81C215.39 256.44 210.6 254.15 205.08 253.15C205.56 248.98 205.68 244.62 205.37 240.68C204.79 233.36 203.41 222.34 199.2 217.75C194.98 213.15 189.37 206.64 186.19 202.49C197.12 205.04 201.4 208.29 205.66 211.07C206.98 214.56 209.46 219.9 215.18 215.16C216.64 220.71 218.94 225.67 223.81 229.75C224.37 230.22 224.99 230.67 225.65 231.12C225.81 238.1 225.45 245.46 224.45 252.86Z" fill="#3F2719"/>
<path opacity="0.23" d="M255.39 179.52C252.56 180.84 249.95 182.2 247.56 183.57C247.55 183.58 247.54 183.58 247.53 183.58C243.36 185.78 241.08 174.09 228.35 159.38C216.1 145.23 196.82 136.25 185.77 142.86C188.67 140.67 192.1 138.91 196.16 137.82C202.69 136.07 208.62 135.65 214.51 137.08C226.18 139.87 237.72 149.83 253.5 170.75C255.23 173.04 260.82 176.99 255.39 179.52Z" fill="#3F2719"/>
<path opacity="0.23" d="M144.04 335.29C143.99 335.41 143.93 335.53 143.86 335.65C143.72 335.88 143.53 336.09 143.3 336.29C143.07 336.48 142.81 336.67 142.52 336.84C142.37 336.93 142.21 337.01 142.05 337.09C141.58 337.31 141.05 337.52 140.48 337.7C139.27 338.08 137.86 338.35 136.42 338.55C136.18 338.58 135.95 338.61 135.71 338.64C135.48 338.67 135.24 338.7 135.01 338.72C134.77 338.75 134.54 338.77 134.3 338.79C132.66 338.95 131.09 339.03 129.84 339.07C129.68 339.08 129.52 339.08 129.37 339.09C129.26 339.09 129.17 339.1 129.07 339.1C128.94 339.1 128.82 339.11 128.7 339.11C128.34 339.12 128.04 339.13 127.8 339.14C127.51 339.15 127.21 339.16 126.92 339.17C126.62 339.18 126.32 339.19 126.01 339.2C125.23 339.23 124.42 339.26 123.61 339.29C122.98 339.32 122.34 339.34 121.69 339.37C121.23 339.39 120.77 339.4 120.3 339.42C119.23 339.46 118.16 339.5 117.1 339.54C115.57 339.59 114.07 339.64 112.62 339.67C111.92 339.69 111.22 339.71 110.55 339.72C97.3502 339.94 72.3602 341.21 69.2402 341.21C69.0302 341.21 68.8202 341.21 68.6302 341.2C68.4902 341.2 68.3502 341.2 68.2202 341.19C68.1502 341.19 68.0902 341.19 68.0302 341.18C67.9702 341.18 67.9102 341.17 67.8502 341.17C67.6702 341.16 67.5102 341.14 67.3602 341.11C67.3102 341.1 67.2602 341.09 67.2102 341.08C67.1202 341.07 67.0502 341.05 66.9802 341.02C66.9602 341.02 66.9402 341.01 66.9202 341C66.8802 340.99 66.8402 340.98 66.8102 340.96C66.7602 340.94 66.7202 340.92 66.6902 340.9C66.6302 340.88 66.5902 340.85 66.5502 340.82C66.5202 340.79 66.4902 340.76 66.4702 340.73C66.3802 340.59 66.3402 340.44 66.3702 340.24C66.3802 340.2 66.3902 340.16 66.4002 340.12C66.4302 340.03 66.4702 339.93 66.5202 339.82C66.5202 339.8 66.5302 339.78 66.5502 339.76C66.5602 339.72 66.5802 339.69 66.6102 339.65C66.6502 339.58 66.7002 339.51 66.7502 339.43C66.8002 339.35 66.8602 339.26 66.9402 339.16C66.9702 339.13 66.9902 339.09 67.0302 339.05C67.1502 338.91 67.2802 338.75 67.4302 338.59C67.5002 338.5 67.5802 338.42 67.6702 338.33C67.7502 338.24 67.8402 338.15 67.9302 338.06C68.0202 337.96 68.1202 337.86 68.2202 337.77C68.3202 337.67 68.4202 337.56 68.5302 337.46C68.7502 337.24 68.9902 337.02 69.2402 336.79H69.2502C69.2602 336.78 69.2802 336.76 69.3002 336.74C69.3002 336.74 69.3002 336.73 69.3102 336.74C69.3302 336.72 69.3502 336.7 69.3802 336.67C69.4102 336.65 69.4402 336.62 69.4802 336.59C69.4802 336.59 69.4802 336.58 69.4902 336.59C69.5202 336.56 69.5602 336.53 69.5902 336.49C69.8102 336.32 70.0902 336.1 70.4502 335.82C70.4602 335.83 70.4602 335.83 70.4602 335.82C70.5002 335.8 70.5302 335.77 70.5702 335.74C70.6102 335.72 70.6402 335.69 70.6802 335.65C72.7902 334.09 76.9502 331.24 81.9302 328.78C82.0702 328.72 82.2102 328.65 82.3502 328.58C83.3302 328.11 84.3302 327.65 85.3602 327.23C85.5102 327.16 85.6502 327.1 85.8002 327.04C85.8502 327.02 85.8902 327.01 85.9302 326.98C85.9402 326.99 85.9402 326.99 85.9402 326.98C86.5302 326.75 87.1302 326.52 87.7202 326.3C87.7302 326.31 87.7302 326.31 87.7302 326.3C88.6002 325.99 89.4802 325.71 90.3602 325.46C90.6402 325.38 90.9002 325.3 91.1702 325.24C91.9602 325.03 92.7502 324.86 93.5402 324.71C93.6102 324.7 93.6702 324.69 93.7402 324.68C93.7502 324.67 93.7502 324.67 93.7602 324.67C93.7802 324.67 93.8002 324.66 93.8202 324.66C94.0402 324.62 94.2502 324.59 94.4502 324.56C94.5602 324.54 94.6602 324.53 94.7602 324.52C94.8102 324.51 94.8702 324.5 94.9202 324.49C94.9702 324.48 95.0202 324.48 95.0702 324.47C95.2702 324.45 95.4802 324.42 95.6802 324.4C95.7802 324.39 95.8802 324.38 95.9902 324.37C96.3202 324.34 96.6502 324.32 96.9802 324.3C97.3402 324.28 97.7102 324.27 98.0702 324.27C98.3002 324.27 98.5302 324.27 98.7602 324.28H98.7702C98.6302 324.14 98.4802 323.99 98.3302 323.84C97.7602 323.22 97.1902 322.5 96.6302 321.69C92.0302 314.99 88.2802 302.39 90.1602 296.08C100.76 305.45 119.21 311.5 137.47 312.63C137.48 312.66 137.48 312.69 137.48 312.73H137.47C137.75 316.75 139.88 323.19 142.14 328.95C142.57 330.06 143 331.13 143.42 332.15C143.42 332.16 143.43 332.16 143.43 332.16C143.6 332.59 143.78 333.01 143.95 333.42C144.25 334.13 144.26 334.75 144.04 335.29Z" fill="#3F2719"/>
<path opacity="0.23" d="M225.1 339.97C224.93 340.23 224.74 340.47 224.51 340.69C223.96 341.22 223.2 341.62 222.2 341.85C217.41 342.96 206.65 342.96 194.77 342.64C194.6 342.64 194.44 342.63 194.28 342.63C193.18 342.6 192.07 342.57 190.95 342.53C188.75 342.46 186.52 342.38 184.31 342.3C183.76 342.28 183.21 342.26 182.66 342.24C182.06 342.22 181.46 342.2 180.87 342.18C180.09 342.15 179.31 342.12 178.53 342.09C177.18 342.04 175.83 341.99 174.51 341.94H174.5C173.49 341.9 172.48 341.86 171.49 341.83C171.07 341.81 170.65 341.8 170.24 341.78C170.23 341.78 170.23 341.78 170.23 341.78C170.19 341.78 170.16 341.78 170.12 341.77C169.93 341.77 169.73 341.76 169.54 341.75C169.53 341.75 169.53 341.75 169.53 341.75C169.06 341.74 168.6 341.72 168.15 341.7C166.73 341.65 165.34 341.59 163.99 341.54C163.7 341.52 163.41 341.51 163.12 341.5C163.01 341.5 162.91 341.49 162.8 341.49C162.58 341.48 162.37 341.47 162.15 341.46C161.52 341.44 160.9 341.41 160.29 341.38C160.02 341.37 159.75 341.36 159.49 341.34C159.17 341.33 158.86 341.32 158.56 341.3C157.55 341.26 156.59 341.21 155.67 341.16C155.49 341.15 155.31 341.14 155.14 341.13C154.98 341.12 154.84 341.11 154.69 341.1C154.55 341.1 146.71 340.38 146.58 340.37C158.64 335.59 179.72 334.18 189.67 334.8H189.73C194.19 335.08 197.72 335.52 199.58 335.59C206.34 335.84 208.77 334.31 205.93 324.78C203.24 315.72 199.92 300.06 200.16 289.25C207.46 286.16 213.81 282.39 217.93 277.85C213.04 292.42 217.47 310.97 221.92 324.64C223.1 328.23 227.45 336.16 225.1 339.97Z" fill="#3F2719"/>
<path opacity="0.23" d="M174.02 306.6C176.99 304.73 182.96 300.94 184.82 298.39C149.27 314.13 115.66 306.9 95.9199 300.09C114.05 310.3 128.98 312.75 143.03 312.75C157.07 312.75 166.2 309.78 174.02 306.6Z" fill="#3F2719"/>
<path opacity="0.23" d="M169.44 155.27C169.1 161.37 169.54 165.79 170.48 169.96C171.42 164.68 173.98 156.88 177.17 152.78C174.75 153.61 171.44 154.75 169.44 155.27Z" fill="#3F2719"/>
<path opacity="0.23" d="M144.73 27.35C137.56 23.88 129.97 21.95 122.35 19.18C120.93 18.66 117.94 17.89 116.88 16.33C115.7 14.6 116.5 12.1 116.43 12.11C109.98 13.2 112.87 18.97 112.87 18.97C112.87 18.97 111.6 18.89 110.98 18.76C108.28 18.16 105.51 15.82 105.71 11.76C105.96 6.37002 111.78 4.17002 110.91 3.73002C110.68 3.62002 100.48 -1.08998 92.6297 5.10002C88.3297 8.50002 86.2797 13.16 87.7497 19.32C78.0897 17.55 79.5597 9.17002 79.4097 9.20002C70.8097 10.73 67.6197 20.82 73.7197 24.86C73.7197 25.89 69.5497 25.67 66.7297 23.67C64.6397 22.19 63.7297 18.84 63.4897 18.99C55.4097 24.01 59.1497 32.69 66.3597 33.49C66.8897 33.55 67.9997 33.61 67.8297 34.12C67.7697 34.3 66.1697 35.45 63.4497 35.5C60.7097 35.54 59.6097 34.16 59.4897 34.52C58.2797 38.22 64.3697 41.45 66.7197 40.28C62.1097 43.35 58.9297 46.97 55.9297 52C60.3297 46.76 67.8797 41.6 77.9897 38.21C76.7697 37.2 77.7797 34.24 79.7697 33.75C79.2897 35.95 83.3397 36.78 87.9397 35.65C86.6997 34.36 85.4497 30.08 90.9397 28.61C88.3497 32.44 94.3497 35.32 96.9697 34.71C99.8297 34.04 99.6097 32.58 98.5097 31.49C100.64 30.34 102.71 32.89 103.79 33.4C105.93 34.42 108.34 34 114.17 34.89C147.16 39.98 165.03 53.97 173.24 72.22C180.15 87.57 187.75 114.96 184.65 143.73C187.78 141.13 191.56 139.05 196.16 137.81C199.13 137.02 201.98 136.49 204.75 136.31C205.14 91.77 188.99 48.01 144.73 27.35Z" fill="#3F2719"/>
<path opacity="0.23" d="M73.33 257.78C73.33 257.93 73.29 258.09 73.22 258.25C73.17 258.35 73.11 258.46 73.03 258.58C72.95 258.69 72.86 258.81 72.77 258.93C71.47 260.6 68.35 263.23 68.86 269.52C69.19 270.09 69.33 270.73 69.29 271.33C69.63 273.72 68.43 274.58 66.39 273.81L66.95 274.9C64.91 274.68 62.78 274.41 60.57 274.06C54.1 269.89 56.73 264.27 56.35 261.47C56.01 259.01 54.25 257.26 51.85 255.48C51.51 255.23 51.16 254.98 50.79 254.72C40.12 247.17 32.68 240.63 30.71 237.57C37.73 236.59 45.52 231.27 48.97 224.76C52.41 218.25 46.8 207.78 47.6 194.89C48.4 182.17 55.21 171.87 62.61 163.39C62.95 164.5 63.74 165.45 63.68 166.09C63.56 167.3 61.12 171.8 58.72 176.34C48.09 196.42 54.32 219.32 57.52 221.19C57.71 225.44 57.93 229.73 58.36 234.07C53.12 238.23 44.99 240.26 44.99 242.73C44.99 243.85 48.57 246.8 52.57 249.72L52.63 249.55C55.2 251.42 57.88 253.24 59.86 254.54C59.87 254.55 59.88 254.55 59.88 254.55C59.22 257.32 59.54 261.34 63.56 261.85C66.5 262.22 69.84 260.25 73.02 257.17C73.22 257.41 73.33 257.61 73.33 257.78Z" fill="#3F2719"/>
<path opacity="0.23" d="M216.31 219.33C219.24 226.3 229.83 232.35 234.73 233.88C239.63 235.41 241.13 236.33 241.64 237.09C242.15 237.85 239.85 241.05 237.06 243.84C238.64 241.69 239.36 240.72 238.97 239.61C238.58 238.5 236.24 237.2 232.36 235.09C228.48 232.98 219.37 228.73 216.31 219.33Z" fill="#3F2719"/>
<path d="M204.97 136.47C205.43 91.83 189.3 48.15 144.96 27.45C137.79 23.98 130.2 22.05 122.58 19.28C121.16 18.76 118.18 17.99 117.11 16.43C115.93 14.71 116.73 12.21 116.66 12.22C110.21 13.31 113.11 19.07 113.11 19.07C113.11 19.07 111.84 19 111.22 18.86C108.52 18.26 105.75 15.92 105.95 11.86C106.2 6.46996 112.02 4.26996 111.16 3.82996C110.93 3.70996 100.73 -1.00004 92.8801 5.19996C88.5801 8.59996 86.6201 14.38 88.0801 20.53" stroke="#2D1F04" stroke-width="2.7806" stroke-miterlimit="10" stroke-linecap="round" stroke-linejoin="round"/>
<path d="M157.96 78.97C156.18 88.99 130.99 89.77 131.49 76.55C131.69 71.27 137.79 69.26 146.74 69.25C155.69 69.24 158.98 73.18 157.96 78.97Z" fill="white"/>
<path d="M79.5098 81.9301C77.7598 91.9601 55.3398 93.1601 56.0098 79.9701C56.2798 74.7001 61.7298 72.5901 69.6998 72.4301C77.6698 72.2701 80.5198 76.1401 79.5098 81.9301Z" fill="white"/>
<path d="M158.14 76.96C155.04 72.91 149.55 72.29 142.74 73.3C136.84 74.17 133.35 75.88 131.55 78.09C131.49 77.6 131.47 77.09 131.49 76.55C131.69 71.27 137.79 69.25 146.74 69.25C154.62 69.24 158.11 72.29 158.14 76.96Z" fill="#D3E5EA"/>
<path d="M79.6603 80.81C77.2903 75.97 72.5203 75.19 66.4903 76.23C60.1203 77.35 57.1903 79.86 56.3303 83.04C56.0703 82.11 55.9503 81.09 56.0103 79.96C56.2803 74.7 61.7403 72.58 69.7003 72.42C77.1403 72.28 80.1203 75.65 79.6603 80.81Z" fill="#D3E5EA"/>
<path d="M61.7498 253.23C58.2698 241.96 57.6498 231.33 57.1698 220.88C53.9798 219.01 47.7398 196.11 58.3698 176.03C60.7698 171.49 66.2798 154.85 65.8098 157.55" stroke="#2D1F04" stroke-width="2.7806" stroke-miterlimit="10" stroke-linecap="round" stroke-linejoin="round"/>
<path d="M174.07 306.79C149.67 318.99 106.26 312.03 88.7701 294.84C79.7201 285.94 73.4402 277.51 68.9102 269.5" stroke="#2D1F04" stroke-width="2.7806" stroke-miterlimit="10" stroke-linecap="round" stroke-linejoin="round"/>
<path d="M102.08 88.7C100.78 93.55 100.48 104.72 102.39 108.1C107.53 108.06 112.54 106.41 113.56 103.92" stroke="#2D1F04" stroke-width="3.2369" stroke-miterlimit="10" stroke-linecap="round" stroke-linejoin="round"/>
<path d="M89.9301 87.48C89.8001 84.76 95.1301 82.29 101.84 81.96C108.55 81.63 114.1 83.57 114.23 86.28C114.36 89 109.03 91.47 102.32 91.8C95.6101 92.13 90.0601 90.19 89.9301 87.48Z" fill="#251707"/>
<path d="M113.15 65.2501C113.15 65.2501 120.82 64.6001 129.5 62.9601C140.2 60.9401 146.26 56.0501 151 56.2801C155.92 56.5201 169.64 62.6901 169.64 62.6901" stroke="#2D1F04" stroke-width="8.0658" stroke-miterlimit="10" stroke-linecap="round" stroke-linejoin="round"/>
<path d="M89.8504 66.7601C89.8504 66.7601 82.1204 66.6301 74.4404 65.7701C67.5404 65.0001 60.2104 61.7401 56.4804 61.8101C52.3904 61.8901 40.9404 67.7101 40.9404 67.7101" stroke="#2D1F04" stroke-width="8.0658" stroke-miterlimit="10" stroke-linecap="round" stroke-linejoin="round"/>
<path d="M157.96 78.97C156.18 88.99 130.99 89.77 131.49 76.55C131.69 71.27 137.79 69.26 146.74 69.25C155.69 69.24 158.98 73.18 157.96 78.97Z" stroke="#2D1F04" stroke-width="3.2369" stroke-miterlimit="10" stroke-linecap="round" stroke-linejoin="round"/>
<path d="M79.5098 81.9301C77.7598 91.9601 55.3398 93.1601 56.0098 79.9701C56.2798 74.7001 61.7298 72.5901 69.6998 72.4301C77.6698 72.2701 80.5198 76.1401 79.5098 81.9301Z" stroke="#2D1F04" stroke-width="3.2369" stroke-miterlimit="10" stroke-linecap="round" stroke-linejoin="round"/>
<path d="M140.79 77.3401C140.79 75.1201 142.59 73.3201 144.81 73.3201C147.03 73.3201 148.83 75.1201 148.83 77.3401C148.83 79.5601 147.03 81.3601 144.81 81.3601C142.59 81.3501 140.79 79.5601 140.79 77.3401Z" fill="#2D1F04"/>
<path d="M64.6699 80.8901C64.6699 78.6701 66.4699 76.8701 68.6899 76.8701C70.9099 76.8701 72.7099 78.6701 72.7099 80.8901C72.7099 83.1101 70.9099 84.9101 68.6899 84.9101C66.4599 84.9101 64.6699 83.1101 64.6699 80.8901Z" fill="#2D1F04"/>
<path d="M181.76 269.38C188.23 260.34 197.32 256.94 211.52 262.37" stroke="#2D1F04" stroke-width="2.7806" stroke-miterlimit="10" stroke-linecap="round" stroke-linejoin="round"/>
<path d="M72.4802 275.49C61.0802 274.84 47.7202 272.62 29.0802 264.77C10.0202 256.73 3.14023 249.78 2.29023 241.1C1.54023 233.47 10.1902 200.71 24.5802 182.77" stroke="#2D1F04" stroke-width="2.7806" stroke-miterlimit="10" stroke-linecap="round" stroke-linejoin="round"/>
<path d="M58.0203 233.86C52.8103 238.22 44.8203 239.79 44.8203 242.32C44.8203 244.18 54.6503 251.06 59.9103 254.52" stroke="#2D1F04" stroke-width="2.7806" stroke-miterlimit="10" stroke-linecap="round" stroke-linejoin="round"/>
<path d="M64.2498 141.97C53.6698 145.76 42.8698 155.72 28.5798 174.66C26.8498 176.95 20.8098 182.31 26.6798 183.43" stroke="#2D1F04" stroke-width="2.7806" stroke-miterlimit="10" stroke-linecap="round" stroke-linejoin="round"/>
<path d="M54.4105 186.03C51.4305 184 48.2205 182.3 44.8105 181.07" stroke="#2D1F04" stroke-width="2.7806" stroke-miterlimit="10" stroke-linecap="round" stroke-linejoin="round"/>
<path d="M68.9106 269.71C67.8906 261.98 73.4206 259.68 73.3806 257.96C73.3506 256.53 64.0306 252.34 61.7506 253.22C58.2106 254.58 58.0606 261.34 59.9806 263.38C59.7206 265.68 61.5106 271.06 64.9606 273.23C68.4006 275.41 70.2706 272.02 68.9106 269.71Z" stroke="#2D1F04" stroke-width="2.7806" stroke-miterlimit="10" stroke-linecap="round" stroke-linejoin="round"/>
<path d="M59.9805 263.38C62.4505 259.25 67.9805 257.96 73.3805 257.96" stroke="#2D1F04" stroke-width="2.7806" stroke-miterlimit="10" stroke-linecap="round" stroke-linejoin="round"/>
<path d="M225.5 231.33C225.65 238.37 225.3 245.64 224.29 253.1" stroke="#2D1F04" stroke-width="2.7806" stroke-miterlimit="10" stroke-linecap="round" stroke-linejoin="round"/>
<path d="M85.25 291.26C105.84 301.56 134.05 304.11 166.7 298.58C184.93 295.49 208.52 288.85 218.26 277.51" stroke="#2D1F04" stroke-width="2.7806" stroke-miterlimit="10" stroke-linecap="round" stroke-linejoin="round"/>
<path d="M47.2505 182.05C46.1205 183.02 45.2205 184.77 44.8105 186.03" stroke="#2D1F04" stroke-width="2.7806" stroke-miterlimit="10" stroke-linecap="round" stroke-linejoin="round"/>
<path d="M215.25 255.51C211.76 259.94 208.4 266.51 213.91 274.84" stroke="#2D1F04" stroke-width="2.7806" stroke-miterlimit="10" stroke-linecap="round" stroke-linejoin="round"/>
<path d="M215.181 215.16C216.631 220.9 218.651 225.74 223.661 229.93C228.871 234.29 239.461 237.84 239.121 240.36C238.651 243.83 232.251 250.3 219.611 255C211.931 257.86 202.931 248.63 190.951 255.51C184.581 259.17 182.011 266.83 181.761 269.38C181.501 271.93 189.721 263.45 207.291 273.1C214.621 277.12 219.171 272.97 231.301 272.15C240.471 271.53 250.821 269.81 260.061 265.92C279.121 257.88 285.591 246.31 286.441 237.63C287.191 230 274.051 199.1 257.341 179.03" stroke="#2D1F04" stroke-width="2.7806" stroke-miterlimit="10" stroke-linecap="round" stroke-linejoin="round"/>
<path d="M205.421 210.89C208.001 216.16 210.411 220.52 215.251 215.1C217.151 212.97 220.481 208.5 222.381 206.09" stroke="#2D1F04" stroke-width="2.7806" stroke-miterlimit="10" stroke-linecap="round" stroke-linejoin="round"/>
<path d="M185.091 202.38C188.511 203.19 193.921 205.11 198.101 207.01C201.781 208.69 204.391 210.36 205.711 211.26" stroke="#2D1F04" stroke-width="2.7806" stroke-miterlimit="10" stroke-linecap="round" stroke-linejoin="round"/>
<path d="M198.1 207.01C195.79 203.99 193.06 200.03 189.94 197.91" stroke="#2D1F04" stroke-width="2.7806" stroke-miterlimit="10" stroke-linecap="round" stroke-linejoin="round"/>
<path d="M171.48 168.46C171.9 166.18 172.5 163.69 173.37 161.13C174.26 158.45 175.43 155.71 176.95 153.07C177 152.98 177.05 152.9 177.11 152.81C180.92 146.29 186.87 140.46 196.01 138.01C215.46 132.78 229.59 139.45 253.35 170.94C255.08 173.23 261.12 178.58 255.24 179.71" stroke="#2D1F04" stroke-width="2.7806" stroke-miterlimit="10" stroke-linecap="round" stroke-linejoin="round"/>
<path d="M206.391 210.62C210.411 197.89 221.701 182.94 237.121 177.36" stroke="#2D1F04" stroke-width="2.7806" stroke-miterlimit="10" stroke-linecap="round" stroke-linejoin="round"/>
<path d="M210.711 202.47C211.971 203.61 213.091 204.27 214.601 205.09" stroke="#2D1F04" stroke-width="2.7806" stroke-miterlimit="10" stroke-linecap="round" stroke-linejoin="round"/>
<path d="M216.36 194.45L219.62 196.89" stroke="#2D1F04" stroke-width="2.7806" stroke-miterlimit="10" stroke-linecap="round" stroke-linejoin="round"/>
<path d="M222.391 187.56L224.951 190.67" stroke="#2D1F04" stroke-width="2.7806" stroke-miterlimit="10" stroke-linecap="round" stroke-linejoin="round"/>
<path d="M161.881 311.07C164.101 317.5 168.561 322.79 174.911 324.96C156.661 328.15 149.611 334.54 145.281 339.95C144.741 341.06 158.901 341.53 174.561 342.11C192.741 342.79 214.781 343.76 222.261 342.03C229.731 340.3 223.431 329.26 221.981 324.82C217.121 309.88 212.281 289.12 219.591 274.09" stroke="#2D1F04" stroke-width="2.7806" stroke-miterlimit="10" stroke-linecap="round" stroke-linejoin="round"/>
<path d="M90.1399 296.35C88.0599 303.6 93.2799 318.98 98.8199 324.38C85.8799 323.97 70.3599 335.93 69.2999 336.89C64.7699 341.02 66.1799 341.31 69.2999 341.31C72.4199 341.31 97.4099 340.04 110.61 339.82C115.97 339.73 122.53 339.42 127.86 339.24C131.09 339.12 146.36 339.03 144.01 333.52C141.22 326.94 137.87 317.93 137.52 312.83" stroke="#2D1F04" stroke-width="2.7806" stroke-miterlimit="10" stroke-linecap="round" stroke-linejoin="round"/>
<path d="M76.8405 146.01L76.8105 152" stroke="#9D7B51" stroke-width="4.1072" stroke-miterlimit="10" stroke-linecap="round" stroke-linejoin="round"/>
<path d="M246.631 245.22L246.601 251.2" stroke="#9D7B51" stroke-width="4.1072" stroke-miterlimit="10" stroke-linecap="round" stroke-linejoin="round"/>
<path d="M24.1904 248.21L24.1504 254.2" stroke="#9D7B51" stroke-width="4.1072" stroke-miterlimit="10" stroke-linecap="round" stroke-linejoin="round"/>
<path d="M29.4502 252.37L29.4102 258.36" stroke="#9D7B51" stroke-width="4.1072" stroke-miterlimit="10" stroke-linecap="round" stroke-linejoin="round"/>
<path d="M240.49 249.91L240.46 255.9" stroke="#9D7B51" stroke-width="4.1072" stroke-miterlimit="10" stroke-linecap="round" stroke-linejoin="round"/>
<path d="M83.2304 149L83.1904 154.99" stroke="#9D7B51" stroke-width="4.1072" stroke-miterlimit="10" stroke-linecap="round" stroke-linejoin="round"/>
<path d="M102.39 108.1C99.3704 108.55 97.7804 108.55 95.8604 108.36" stroke="#2D1F04" stroke-width="3.2369" stroke-miterlimit="10" stroke-linecap="round" stroke-linejoin="round"/>
<path d="M65.7998 157.47C99.8698 167.26 138.06 164.12 163.28 157.49C168.43 156.14 173.03 154.64 176.95 153.07C177.04 153.04 177.13 153 177.21 152.97" stroke="#2D1F04" stroke-width="2.7806" stroke-miterlimit="10" stroke-linecap="round" stroke-linejoin="round"/>
<path d="M220.66 208.76C228.235 198.853 243.915 185.378 257.472 180" stroke="#2D1F04" stroke-width="2.7806" stroke-miterlimit="10" stroke-linecap="round" stroke-linejoin="round"/>
<path d="M27 177.014C31.283 175.814 40.0457 177.995 45.3755 181.289" stroke="#2D1F04" stroke-width="2.7806" stroke-miterlimit="10" stroke-linecap="round" stroke-linejoin="round"/>
<path d="M162.45 311.75C165.2 317.84 169.39 323.16 175.8 325.35" stroke="#2D1F04" stroke-width="2.7806" stroke-miterlimit="10" stroke-linecap="round" stroke-linejoin="round"/>
<path d="M160.79 81.88C159.5 84.85 157.26 87.54 152.71 89.35" stroke="#2D1F04" stroke-miterlimit="10" stroke-linecap="round" stroke-linejoin="round"/>
<path d="M55.1699 87.74C56.3199 89.59 58.9399 92.34 63.2099 93.1" stroke="#2D1F04" stroke-miterlimit="10" stroke-linecap="round" stroke-linejoin="round"/>
<path d="M66.3805 40.11C64.0205 41.29 58.5105 38.32 59.7305 34.61C59.8505 34.25 60.9405 35.63 63.6905 35.59C66.4105 35.55 68.0105 34.4 68.0705 34.21C68.2405 33.7 67.1305 33.64 66.6005 33.58C59.3905 32.78 55.6505 24.1 63.7405 19.08C63.9805 18.93 64.8905 22.28 66.9705 23.76C69.8005 25.76 73.9705 25.98 73.9705 24.95C67.8705 20.91 71.0605 10.82 79.6505 9.29C79.8005 9.26 77.7805 17.72 87.4405 19.48" stroke="#2D1F04" stroke-width="2.7806" stroke-miterlimit="10" stroke-linecap="round" stroke-linejoin="round"/>
<path d="M98.8301 324.38C104.27 328.01 109.34 332.31 112.21 338.06" stroke="#2D1F04" stroke-width="2.7806" stroke-miterlimit="10" stroke-linecap="round" stroke-linejoin="round"/>
<path d="M174.92 324.96C183.05 328.21 190.95 334.33 194.84 342.11" stroke="#2D1F04" stroke-width="2.7806" stroke-miterlimit="10" stroke-linecap="round" stroke-linejoin="round"/>
<path d="M68.54 340.06C73.53 335.93 95.97 327.6 104.34 329.05" stroke="#2D1F04" stroke-width="2.7806" stroke-miterlimit="10" stroke-linecap="round" stroke-linejoin="round"/>
<path d="M147.46 339.96C155.2 336.01 164.7 333.25 174 332.13C178.07 331.64 182.11 331.47 185.94 331.65" stroke="#2D1F04" stroke-width="2.7806" stroke-miterlimit="10" stroke-linecap="round" stroke-linejoin="round"/>
</g>
<defs>
<clipPath id="clip0_250_343">
<rect width="288" height="345" fill="white"/>
</clipPath>
</defs>
</svg>
