<svg width="100" height="100" viewBox="0 0 100 100" fill="none" xmlns="http://www.w3.org/2000/svg">
<g clip-path="url(#clip0_58_433)">
<path d="M9.06673 6.67788C9.08335 5.96317 9.09997 5.23184 9.11659 4.51713L82.0668 2.72205L91.3081 12.7113C86.2719 20.7061 84.1278 42.2139 84.1278 42.2139C74.0055 52.4192 83.5461 48.8457 83.5461 48.8457C82.1831 60.0483 84.2774 95.0857 84.2774 95.0857L81.8673 97.0138L60.8416 91.695L56.7361 92.1936L26.0037 94.371L13.1223 95.817L10.9449 92.5759C13.0392 90.2489 13.0558 86.692 13.837 82.5201C14.319 75.3564 16.8454 35.4823 13.7871 20.6729C12.8065 16.8833 11.9754 10.0852 9.06673 6.67788Z" fill="#F2E6D2"/>
<path d="M72.1392 51.4616C72.554 51.0846 71.6679 50.2739 71.3851 49.8969C67.4638 44.6936 64.881 42.9592 61.8835 43.1288C61.9589 34.3813 58.7917 25.7846 50.1007 21.7313C48.6868 21.0526 47.1974 20.6756 45.7081 20.1288C45.4253 20.0346 44.8409 19.8838 44.6335 19.5633C44.4073 19.2239 44.5581 18.7338 44.5392 18.7338C43.2761 18.9411 43.8417 20.0723 43.8417 20.0723C43.8417 20.0723 43.5966 20.0534 43.4647 20.0346C42.9368 19.9215 42.3901 19.4502 42.4278 18.6584C42.4843 17.6026 43.6155 17.169 43.4458 17.0747C43.4081 17.0559 41.3909 16.1321 39.8638 17.3387C39.0155 17.9985 38.6196 18.9223 38.9024 20.1288C36.9983 19.7895 37.2999 18.1305 37.2622 18.1493C35.5655 18.451 34.9433 20.4305 36.1499 21.2223C36.1499 21.4297 35.3392 21.3731 34.7737 20.9961C34.3589 20.7133 34.1892 20.0534 34.1327 20.0723C32.5491 21.0526 33.2843 22.7682 34.6983 22.919C34.8114 22.9379 35.0188 22.9379 34.9811 23.051C34.9622 23.0887 34.6606 23.3149 34.1138 23.3149C33.5671 23.3149 33.3597 23.051 33.3409 23.1264C33.0958 23.8616 34.3024 24.4838 34.7548 24.2575C33.8122 24.8985 33.1712 25.6338 32.5491 26.7083C29.8532 31.4026 31.3048 36.6624 33.5294 41.1116C33.7179 41.5075 34.0007 41.96 34.0761 42.3936C34.1138 42.6198 33.9819 42.978 34.0761 43.1854C34.1138 43.2608 34.3024 42.978 34.3212 43.0534C34.3589 43.4116 34.3401 43.8075 34.3024 44.1657C32.2474 44.9198 30.0229 46.937 27.2327 50.6133C26.9499 50.9903 26.0638 51.801 26.4786 52.178C23.6696 55.7034 21.9352 62.1698 22.0671 63.6591C22.2368 65.3559 23.5753 66.7321 27.327 68.2969C30.9089 69.805 33.6237 70.2575 35.8294 70.3895C36.6401 71.6149 37.6958 72.878 39.0343 74.1977C39.1286 74.2919 39.2417 74.3862 39.336 74.4805C38.9212 75.8944 39.9581 78.9296 41.0327 79.9854C38.4876 79.91 35.4524 82.2477 35.245 82.4362C34.3589 83.2468 34.6417 83.3034 35.245 83.3034C35.8483 83.3034 40.7688 83.0583 43.3515 83.0018C44.4073 82.9829 45.6892 82.9264 46.745 82.8887C47.386 82.8698 50.3835 82.851 49.9122 81.7575C49.3655 80.4755 48.7056 78.7034 48.6302 77.7042C50.2892 77.7985 51.9294 77.7042 53.4188 77.3649C53.8524 78.628 54.7384 79.6649 55.9827 80.0985C52.4007 80.7206 51.0245 81.9837 50.1761 83.0395C50.063 83.2657 52.8532 83.3411 55.9261 83.4731C59.4892 83.605 63.8253 83.7936 65.2958 83.4542C66.7663 83.1149 65.522 80.9468 65.2392 80.0796C64.2778 77.1387 63.3351 73.0665 64.7679 70.1255C65.3712 69.9936 66.0876 69.8239 67.0302 69.7673C68.8212 69.6542 70.8573 69.3149 72.6671 68.5419C76.4187 66.9583 77.6819 64.696 77.8515 62.9805C78.0212 61.51 75.4196 55.4018 72.1392 51.4616ZM30.4565 63.9231C30.4565 63.4329 32.0212 63.0936 33.0581 62.2641C33.1901 63.6969 33.454 65.1485 34.0007 66.6755C33.4917 66.3739 30.4565 64.3755 30.4565 63.9231ZM65.654 66.0346C65.8425 64.6018 65.9556 63.0936 65.9179 61.7551C66.9925 62.4903 68.6515 63.0936 68.595 63.5272C68.5196 64.1305 67.5581 65.1673 65.654 66.0346Z" fill="#F2E6D2"/>
<path d="M59.9417 83.6239C59.4327 83.605 58.9048 83.5862 58.377 83.5673C58.1319 83.5673 57.8868 83.5485 57.6417 83.5485C57.0761 83.5296 56.5106 83.5108 55.9638 83.4919C55.8884 83.4919 55.7942 83.4919 55.7188 83.4731C55.6622 83.4731 55.6056 83.4731 55.5491 83.4731C55.2475 83.4542 54.9647 83.4542 54.6819 83.4353C54.6253 83.4353 54.5499 83.4353 54.4934 83.4353C53.9843 83.4165 53.4753 83.3976 53.0229 83.3788C52.9475 83.3788 52.8909 83.3788 52.8155 83.3788C52.7401 83.3788 52.6647 83.3788 52.5893 83.3599C52.495 83.3599 52.4007 83.3411 52.3253 83.3411C52.2499 83.3411 52.1556 83.3222 52.0614 83.3222C51.9671 83.3222 51.8729 83.3034 51.7786 83.3034C51.6843 83.3034 51.5901 83.2845 51.4958 83.2845C51.3261 83.2657 51.1565 83.2657 51.0056 83.2468C50.9302 83.2468 50.8737 83.228 50.7983 83.228H50.7794C50.7229 83.228 50.6663 83.2091 50.6286 83.2091C50.5909 83.2091 50.5532 83.1903 50.5343 83.1903C50.5155 83.1903 50.4966 83.1903 50.4966 83.1903C50.4212 83.1714 50.3647 83.1714 50.327 83.1526C50.3081 83.1526 50.3081 83.1337 50.2893 83.1337C50.2704 83.1337 50.2704 83.1149 50.2516 83.1149L50.2327 83.096C50.2327 83.0772 50.2327 83.0772 50.2327 83.0583C50.3458 82.9075 50.4778 82.7567 50.6286 82.6058C50.6852 82.5493 50.7229 82.4927 50.7794 82.455C50.836 82.3985 50.8925 82.3419 50.9491 82.3042C51.0057 82.2476 51.0622 82.2099 51.1188 82.1534C51.5147 81.814 52.0237 81.4558 52.6647 81.1542C52.7778 81.0976 52.8909 81.0411 53.0229 80.9845C53.0417 80.9845 53.0417 80.9657 53.0606 80.9657C53.1171 80.9468 53.1737 80.9091 53.2491 80.8903C53.3245 80.8526 53.4188 80.8149 53.513 80.796C53.5884 80.7583 53.6638 80.7395 53.7581 80.7206C53.8147 80.7018 53.8712 80.6829 53.9466 80.664C54.022 80.6452 54.0786 80.6263 54.154 80.6075C54.1917 80.5886 54.2483 80.5886 54.286 80.5698C54.3425 80.5509 54.3991 80.5321 54.4556 80.5132C54.5122 80.4944 54.5688 80.4755 54.6253 80.4755C54.8138 80.419 55.0212 80.3813 55.2286 80.3247C55.3417 80.3058 55.436 80.287 55.5491 80.2493C55.7188 80.2116 55.8696 80.1927 56.0581 80.155C57.5852 80.7395 59.1688 81.8894 59.9417 83.6239Z" fill="#B6B1AE"/>
<path d="M43.8228 83.0207C43.6909 83.0207 43.5401 83.0207 43.4081 83.0395C40.8253 83.0772 35.9048 83.3412 35.3015 83.3412C35.0565 83.3412 34.8491 83.3223 34.7737 83.2658C34.6794 83.1904 34.736 83.0395 35.0376 82.719C35.0565 82.7002 35.0753 82.6813 35.0942 82.6625C35.113 82.6436 35.1319 82.6248 35.1507 82.6059C35.1884 82.5682 35.245 82.5117 35.2827 82.474C35.4901 82.2854 38.5442 79.9289 41.0704 80.0231C42.145 80.7018 43.2384 81.7387 43.8228 83.0207Z" fill="#B6B1AE"/>
<path d="M34.472 47.1822C34.3024 47.3142 33.9819 47.8044 33.8876 47.9741C33.6991 48.37 34.1138 48.7093 34.095 48.9167C34.0761 49.1618 33.586 50.029 33.1147 50.9339C32.7753 51.5749 32.5114 52.2347 32.3417 52.8945C32.172 53.5355 32.0589 54.1765 32.0024 54.7986C30.4188 53.3847 28.2507 52.6872 26.8934 52.3855C25.7434 52.1404 26.9311 51.1224 27.2704 50.67C30.0794 46.956 32.2663 44.9577 34.3401 44.2224C34.3401 44.279 34.3212 44.3355 34.3212 44.3921C34.3024 44.5429 34.1327 44.9577 34.2458 44.8445C34.2835 44.8068 34.3778 44.4675 34.5286 44.5241C34.6229 44.5241 34.5286 46.956 34.472 47.1822Z" fill="#4D4342"/>
<path d="M71.8376 51.6125C66.9925 53.8748 65.6351 56.5707 63.995 58.5502C63.9761 58.569 63.9573 58.5879 63.9573 58.6067C64.2401 59.7002 64.6925 60.6617 65.654 61.4723C65.7671 61.5666 65.8802 61.6608 66.0122 61.7363C66.0499 63.1125 65.9745 64.5453 65.786 65.9969C65.5032 66.1289 65.2015 66.2608 64.8622 66.374C63.354 66.9395 61.5819 65.1297 59.2442 66.4682C57.9999 67.1846 57.4909 68.6928 57.4343 69.183C57.3778 69.692 58.9991 68.0141 62.4491 69.9182C63.3163 70.3895 63.9761 70.2953 64.881 70.0879C64.7868 70.2953 64.6737 70.5592 64.5983 70.7666C62.6942 72.9912 58.0565 74.292 54.4745 74.8953C48.1212 75.9699 42.5409 75.4608 38.5065 73.4813C36.0556 70.8985 34.7171 68.542 33.9819 66.3174C33.8499 65.9026 33.7179 65.4879 33.6237 65.0731C33.1524 63.1879 33.0581 61.3969 32.9827 59.6436C32.3606 59.2854 31.1352 54.7797 33.2089 50.8395C33.6802 49.9535 34.1515 49.0674 34.1892 48.8223C34.2081 48.615 33.8122 48.2756 33.9819 47.8797C34.1138 47.6158 34.7548 46.6543 34.6606 47.1822C42.7483 49.501 50.8548 47.842 51.854 47.6158C53.3245 47.2953 54.9081 46.824 56.4917 46.2961C57.2458 45.0141 58.4146 43.8453 60.2245 43.3551C61.5065 43.0158 62.6753 42.9215 63.8253 43.2043C66.1065 43.751 68.3876 45.7117 71.4794 49.8215C71.7999 50.3494 72.8933 51.1223 71.8376 51.6125Z" fill="#4D4342"/>
<path d="M38.6761 53.8937C39.7319 53.9879 40.6745 54.0256 41.5983 54.1199C42.3524 54.1953 42.5409 54.742 42.4843 55.251C42.4089 55.9486 41.9942 56.4011 41.2966 56.6273C41.2589 56.6461 41.2212 56.6461 41.1458 56.665C41.8434 57.1363 41.8245 58.0412 42.2581 58.8707C41.6925 58.833 41.2024 58.7953 40.6745 58.7765C40.4294 58.2486 40.222 57.7207 40.0524 57.2117C39.9581 56.9289 39.8261 56.7215 39.4114 56.7781C39.2794 57.3814 39.1852 58.0035 39.204 58.6822C38.7139 58.6445 38.2614 58.6256 37.7901 58.6068C37.7147 57.0043 38.3557 55.4207 38.6761 53.8937ZM39.9016 54.9494C39.8261 55.2511 39.7507 55.5527 39.6565 55.892C39.977 55.892 40.2598 55.9109 40.5614 55.892C40.8253 55.8732 40.995 55.7035 41.0516 55.4773C41.1081 55.2322 41.0138 55.0437 40.7499 55.006C40.486 54.9494 40.2032 54.9683 39.9016 54.9494ZM45.8966 54.3273C45.3311 54.1011 44.7466 54.0822 44.1434 54.233C43.5024 54.3838 43.0688 54.8552 42.9179 55.4207C42.786 55.9486 42.9745 56.4011 43.5212 56.6838C43.804 56.8347 44.1245 56.9289 44.4261 57.042C44.577 57.0986 44.7278 57.1551 44.8786 57.2306C45.0483 57.3248 45.1425 57.4756 45.1048 57.683C45.0671 57.9092 44.9163 58.0412 44.7089 58.1166C44.2565 58.2674 43.8229 58.0224 43.7286 57.5511C43.7097 57.4568 43.7098 57.3814 43.6909 57.2871C43.2384 57.2871 42.8237 57.2871 42.4089 57.2871C42.2958 58.0601 42.6917 58.701 43.3327 58.9461C43.8229 59.1347 44.3319 59.1912 44.8597 59.1158C45.1802 59.0781 45.5384 58.9461 45.8212 58.7576C46.7073 58.1732 46.9901 56.8347 45.9532 56.2691C45.7835 56.1748 45.6138 56.0994 45.4442 56.0429C45.1237 55.9297 44.822 55.8355 44.5016 55.7224C44.3319 55.6658 44.1999 55.5904 44.2188 55.3453C44.3507 55.0814 44.5581 55.006 44.8032 55.0248C45.1802 55.0625 45.3688 55.2699 45.3688 55.6658C45.8024 55.6658 46.236 55.6658 46.7073 55.647C46.7261 54.9871 46.4811 54.5724 45.8966 54.3273Z" fill="#251707"/>
<path opacity="0.23" d="M49.9876 82.1913C49.9688 82.2102 49.9688 82.229 49.9499 82.2667C49.9311 82.3044 49.8933 82.361 49.8368 82.3987C49.7991 82.4364 49.7425 82.4741 49.686 82.5118C49.6483 82.5307 49.6294 82.5495 49.5917 82.5684C49.4974 82.6061 49.4032 82.6438 49.2901 82.6815C49.045 82.7569 48.7811 82.8134 48.4983 82.8512C48.4606 82.8512 48.404 82.87 48.3663 82.87C48.3286 82.87 48.272 82.8889 48.2343 82.8889C48.1966 82.8889 48.1401 82.9077 48.1024 82.9077C47.7819 82.9454 47.4802 82.9454 47.2352 82.9643C47.1974 82.9643 47.1786 82.9643 47.1409 82.9643C47.122 82.9643 47.1032 82.9643 47.0843 82.9643C47.0655 82.9643 47.0278 82.9643 47.0089 82.9643C46.9335 82.9643 46.877 82.9643 46.8392 82.9643C46.7827 82.9643 46.7261 82.9643 46.6696 82.9643C46.613 82.9643 46.5565 82.9643 46.4999 82.9643C46.3491 82.9643 46.1794 82.9831 46.0286 82.9831C45.8966 82.9831 45.7835 83.002 45.6515 83.002C45.5573 83.002 45.463 83.002 45.3876 83.0208C45.1802 83.0208 44.9729 83.0397 44.7655 83.0397C44.4638 83.0585 44.1622 83.0585 43.8794 83.0585C43.7474 83.0585 43.5966 83.0585 43.4647 83.0774C40.8819 83.1151 35.9614 83.379 35.3581 83.379C35.3204 83.379 35.2827 83.379 35.245 83.379C35.2261 83.379 35.1884 83.379 35.1696 83.379C35.1507 83.379 35.1507 83.379 35.1319 83.379C35.113 83.379 35.113 83.379 35.0942 83.379C35.0565 83.379 35.0188 83.379 34.9999 83.3602C34.9811 83.3602 34.9811 83.3602 34.9622 83.3602C34.9434 83.3602 34.9245 83.3602 34.9245 83.3413C34.9245 83.3413 34.9245 83.3413 34.9056 83.3413H34.8868C34.8679 83.3413 34.8679 83.3413 34.8679 83.3225C34.8491 83.3225 34.8491 83.3036 34.8491 83.3036L34.8302 83.2848C34.8114 83.2659 34.8114 83.2282 34.8114 83.1905V83.1716C34.8114 83.1528 34.8302 83.1339 34.8302 83.1151C34.8302 83.1151 34.8302 83.1151 34.8302 83.0962C34.8302 83.0962 34.8302 83.0774 34.8491 83.0774C34.8491 83.0585 34.8679 83.0585 34.8679 83.0397C34.8868 83.0208 34.8868 83.002 34.9056 82.9831L34.9245 82.9643C34.9434 82.9454 34.9811 82.9077 34.9999 82.87C35.0188 82.8511 35.0376 82.8323 35.0376 82.8134C35.0565 82.7946 35.0753 82.7757 35.0942 82.7569C35.113 82.738 35.1319 82.7192 35.1507 82.7003C35.1696 82.6815 35.1884 82.6626 35.2073 82.6438C35.245 82.6061 35.3016 82.5495 35.3393 82.5118C35.3393 82.5118 35.3393 82.5118 35.3581 82.4929C35.3581 82.4929 35.3581 82.493 35.377 82.4741L35.3958 82.4552L35.4147 82.4364C35.4524 82.3987 35.5089 82.361 35.5843 82.3044L35.6032 82.2856L35.622 82.2667C36.0368 81.9651 36.8475 81.3995 37.8278 80.9094C37.8466 80.8905 37.8843 80.8905 37.9032 80.8716C38.0917 80.7774 38.2991 80.6831 38.4876 80.6077C38.5253 80.5889 38.5442 80.5888 38.5819 80.57C38.6007 80.57 38.6007 80.57 38.6007 80.5511C38.7138 80.5134 38.827 80.4569 38.9589 80.4192C39.1286 80.3626 39.2983 80.3061 39.4679 80.2495C39.5245 80.2307 39.5811 80.2118 39.6188 80.2118C39.7696 80.1741 39.9204 80.1364 40.0901 80.0987C40.1089 80.0987 40.1089 80.0987 40.1278 80.0987C40.1278 80.0987 40.1278 80.0987 40.1466 80.0987C40.1843 80.0987 40.222 80.0798 40.2786 80.0798C40.2974 80.0798 40.3163 80.0798 40.3352 80.0798C40.354 80.0798 40.354 80.0798 40.3729 80.0798C40.3917 80.0798 40.3917 80.0798 40.4106 80.0798C40.4483 80.0798 40.486 80.061 40.5237 80.061C40.5425 80.061 40.5614 80.061 40.5802 80.061C40.6368 80.061 40.7122 80.0421 40.7688 80.0421C40.8442 80.0421 40.9196 80.0421 40.9761 80.0421C41.0138 80.0421 41.0704 80.0421 41.1081 80.0421C41.0893 80.0233 41.0515 79.9856 41.0138 79.9479C40.9007 79.8348 40.7876 79.6839 40.6745 79.5331C39.7696 78.2134 39.0343 75.7438 39.4114 74.4995C41.4852 76.3471 45.1048 77.5348 48.7056 77.7421V77.761C48.7622 78.5528 49.177 79.8159 49.6294 80.947C49.7048 81.1733 49.7991 81.3807 49.8745 81.5692C49.9122 81.6446 49.9499 81.7389 49.9688 81.8143C50.0253 81.9651 50.0253 82.0782 49.9876 82.1913Z" fill="#3F2719"/>
<path opacity="0.23" d="M65.8802 83.0963C65.8425 83.1528 65.8048 83.1905 65.7671 83.2282C65.654 83.3414 65.5032 83.4168 65.3146 83.4545C64.372 83.6807 62.2606 83.6807 59.9229 83.6053C59.8851 83.6053 59.8663 83.6053 59.8286 83.6053C59.6212 83.6053 59.395 83.5864 59.1688 83.5864C58.7351 83.5676 58.3015 83.5487 57.8679 83.5487C57.7548 83.5487 57.6606 83.5487 57.5474 83.5299C57.4343 83.5299 57.3212 83.5299 57.1892 83.511C57.0384 83.511 56.8876 83.4922 56.7368 83.4922C56.4729 83.4733 56.2089 83.4733 55.945 83.4545C55.7376 83.4545 55.5491 83.4356 55.3606 83.4356C55.2851 83.4356 55.1909 83.4356 55.1155 83.4168H55.0966C55.0589 83.4168 55.0212 83.4168 54.9835 83.4168C54.8892 83.4168 54.795 83.4168 54.7196 83.3979C54.4368 83.3791 54.1729 83.3791 53.9089 83.3602C53.8524 83.3602 53.7958 83.3602 53.7392 83.3602C53.7204 83.3602 53.7015 83.3602 53.6827 83.3602C53.645 83.3602 53.6073 83.3602 53.5507 83.3602C53.4188 83.3602 53.3056 83.3413 53.1925 83.3413C53.136 83.3413 53.0794 83.3413 53.0417 83.3413C52.9852 83.3413 52.9097 83.3413 52.8532 83.3413C52.6458 83.3413 52.4573 83.3225 52.2876 83.3225C52.2499 83.3225 52.2122 83.3225 52.1745 83.3225C52.1368 83.3225 52.1179 83.3225 52.0802 83.3225C52.0614 83.3225 50.5155 83.1717 50.4966 83.1717C52.872 82.2291 57.0007 81.9651 58.9614 82.0782H58.9802C59.8474 82.1348 60.545 82.2102 60.922 82.2291C62.2417 82.2856 62.7319 81.984 62.1663 80.0987C61.6384 78.3266 60.9786 75.2537 61.0351 73.1233C62.4679 72.52 63.7122 71.7848 64.5229 70.8799C63.5614 73.7455 64.4286 77.384 65.3146 80.061C65.5032 80.7963 66.3515 82.361 65.8802 83.0963Z" fill="#3F2719"/>
<path opacity="0.23" d="M55.8696 76.5542C56.454 76.1772 57.6228 75.4419 57.981 74.9518C51.0056 78.0436 44.4073 76.6297 40.5425 75.2911C44.1056 77.2895 47.0278 77.7796 49.7802 77.7796C52.5327 77.7608 54.3237 77.1764 55.8696 76.5542Z" fill="#3F2719"/>
<path opacity="0.23" d="M33.0015 61.001C35.9425 61.6608 41.3343 60.7559 41.4286 60.7748C41.5229 60.7936 42.522 61.001 45.0106 61.6608C47.4991 62.3207 50.4212 62.9239 51.9294 62.9239C52.495 62.9239 53.2114 62.4149 53.9843 61.5477C54.795 60.6428 55.4737 59.5682 56.1335 58.3805C54.7384 60.4731 53.0229 61.3969 52.5327 61.5289C51.9294 61.6985 51.722 61.6985 50.8548 61.6231C48.0647 61.4157 42.2393 59.7379 41.5983 59.6436C41.1458 59.5871 34.6983 60.6993 32.9073 59.3985" fill="#3F2719"/>
<path opacity="0.23" d="M38.431 63.7534C36.7532 63.8288 34.6983 64.9788 33.963 66.3739C33.831 65.9592 33.6991 65.5444 33.6048 65.1297C34.8679 64.1682 36.5081 63.6592 38.431 63.7534Z" fill="#3F2719"/>
<path opacity="0.23" d="M64.8622 70.1257C64.7679 70.3331 64.6548 70.597 64.5794 70.8044C62.6753 73.029 58.0376 74.3298 54.4556 74.9331C48.1024 76.0076 42.522 75.4986 38.4876 73.5191C37.9975 73.0101 37.545 72.5011 37.1491 72.0109C37.7147 72.2749 38.4499 72.6519 39.0343 72.9347C40.6934 73.7076 42.3901 73.8396 42.7671 73.2552C42.9557 72.9535 43.2196 72.3314 43.0688 71.5962C42.8614 70.5781 42.2016 68.5986 42.7106 66.6945C42.4466 68.8626 43.7852 70.5216 43.8606 72.124C43.8606 73.8962 45.4819 74.2167 47.2729 74.3298C48.6679 74.424 50.0065 74.424 52.5704 74.1413C55.2474 73.8585 55.7188 73.0855 55.7376 71.4454C55.7565 70.2388 55.4548 68.1839 54.8515 67.1658C54.0974 65.9216 51.5335 65.0732 48.7622 64.4699C50.6286 64.4322 54.3425 64.715 56.1147 66.2986C56.6991 66.8076 57.3212 67.3732 57.9056 67.8634C57.5851 68.4101 57.4343 68.9568 57.4155 69.2208C57.3778 69.5413 58.0188 68.9945 59.3384 69.0134C59.7909 69.0134 60.3376 69.0888 60.9597 69.2962C61.4122 69.447 61.8835 69.6544 62.4302 69.9372C63.2786 70.4085 63.9573 70.3142 64.8622 70.1257Z" fill="#3F2719"/>
<path opacity="0.23" d="M65.7671 66.0157C65.4843 66.1477 65.1827 66.2796 64.8433 66.3927C63.995 66.7132 63.0523 66.2608 61.9589 66.0723C62.0532 65.2616 62.072 64.3944 62.0155 63.6214C61.9023 62.1887 61.6384 60.0206 60.8089 59.1157C59.9794 58.2108 58.886 56.9288 58.2638 56.1182C60.413 56.6272 61.2425 57.2493 62.0909 57.796C62.3548 58.4747 62.845 59.5305 63.9573 58.6067C64.2401 59.7001 64.6925 60.6616 65.654 61.4723C65.7671 61.5665 65.8802 61.6608 66.0122 61.7362C66.031 63.1124 65.9556 64.5641 65.7671 66.0157Z" fill="#3F2719"/>
<path opacity="0.23" d="M71.8376 51.6124C71.2909 51.8763 70.763 52.1403 70.2917 52.4042C69.481 52.8378 69.0286 50.5378 66.5212 47.6534C64.1081 44.8821 60.3376 43.1099 58.1696 44.4108C58.7351 43.9772 59.4138 43.6378 60.2056 43.4304C61.4876 43.0911 62.6565 42.9968 63.8065 43.2796C66.0876 43.8263 68.3687 45.787 71.4605 49.8968C71.7999 50.3493 72.8933 51.1222 71.8376 51.6124Z" fill="#3F2719"/>
<path opacity="0.23" d="M54.9646 46.8619C54.8892 48.0496 54.9835 48.9168 55.172 49.7463C55.3605 48.7094 55.8507 47.1824 56.4917 46.3717C56.0015 46.5225 55.3605 46.7487 54.9646 46.8619Z" fill="#3F2719"/>
<path opacity="0.23" d="M50.1196 21.7501C48.7056 21.0714 47.2163 20.6944 45.7269 20.1476C45.4442 20.0534 44.8597 19.9026 44.6524 19.5821C44.4261 19.2427 44.577 18.7526 44.5581 18.7526C43.295 18.9599 43.8606 20.0911 43.8606 20.0911C43.8606 20.0911 43.6155 20.0722 43.4835 20.0534C42.9556 19.9403 42.4089 19.469 42.4466 18.6772C42.5032 17.6214 43.6343 17.1878 43.4647 17.0935C43.4269 17.0747 41.4097 16.1509 39.8827 17.3575C39.0343 18.0173 38.6384 18.9411 38.9212 20.1476C37.0171 19.8083 37.3188 18.1493 37.2811 18.1681C35.5843 18.4698 34.9622 20.4493 36.1688 21.2411C36.1688 21.4485 35.3581 21.3919 34.7925 21.0149C34.3778 20.7321 34.2081 20.0722 34.1515 20.0911C32.5679 21.0714 33.3032 22.787 34.7171 22.9378C34.8302 22.9567 35.0376 22.9567 34.9999 23.0698C34.9811 23.1075 34.6794 23.3337 34.1327 23.3337C33.586 23.3337 33.3786 23.0698 33.3597 23.1452C33.1147 23.8804 34.3212 24.5026 34.7737 24.2763C33.8688 24.8796 33.2466 25.596 32.6622 26.5763C33.5294 25.5394 34.9999 24.5403 36.9983 23.8616C36.7532 23.6542 36.9606 23.0886 37.3565 22.9944C37.2622 23.428 38.054 23.5976 38.9589 23.3714C38.7138 23.1263 38.4688 22.278 39.5433 21.9952C39.0343 22.7493 40.222 23.3149 40.731 23.1829C41.2966 23.0509 41.2401 22.7681 41.0327 22.5419C41.4474 22.3157 41.8622 22.8247 42.0696 22.919C42.4843 23.1263 42.9556 23.0321 44.1056 23.2206C50.572 24.2198 54.0786 26.9722 55.6999 30.5542C57.0573 33.5706 58.5466 38.9435 57.9433 44.5804C58.5655 44.0714 59.3007 43.6566 60.2056 43.4116C60.7901 43.2607 61.3556 43.1476 61.8835 43.1099C61.9778 34.4001 58.8106 25.8034 50.1196 21.7501Z" fill="#3F2719"/>
<path opacity="0.23" d="M36.0934 66.9774C36.0934 67.0151 36.0934 67.0339 36.0745 67.0717C36.0557 67.0905 36.0557 67.1094 36.0368 67.1282C36.018 67.1471 35.9991 67.1659 35.9802 67.2036C35.7163 67.5241 35.113 68.052 35.2073 69.2774C35.2639 69.3905 35.3016 69.5225 35.2827 69.6356C35.3581 70.1069 35.113 70.2766 34.7171 70.1258L34.8302 70.3331C34.4343 70.2954 34.0196 70.2389 33.586 70.1635C32.3229 69.3528 32.8319 68.2405 32.7565 67.6938C32.6811 67.2036 32.3417 66.8643 31.8704 66.5249C31.795 66.4684 31.7384 66.4307 31.663 66.3741C29.5704 64.8848 28.0999 63.6028 27.7229 62.9995C29.0991 62.811 30.6261 61.7553 31.3048 60.4922C31.9835 59.2102 30.8712 57.1553 31.0409 54.629C31.1917 52.1405 32.5302 50.1045 33.9819 48.4454C34.0573 48.6717 34.2081 48.8413 34.1893 48.9733C34.1704 49.2184 33.6802 50.0856 33.2089 50.9905C31.1163 54.9307 32.3417 59.4176 32.9827 59.7946C33.0204 60.6241 33.0581 61.4725 33.1524 62.3208C32.1155 63.1315 30.5319 63.5274 30.5319 64.0176C30.5319 64.2438 31.2294 64.8094 32.0212 65.3938L32.0401 65.3561C32.5491 65.7143 33.077 66.0725 33.454 66.3364C33.322 66.8831 33.3786 67.6749 34.1704 67.7692C34.7548 67.8446 35.3958 67.4487 36.0179 66.8454C36.0745 66.902 36.0934 66.9397 36.0934 66.9774Z" fill="#3F2719"/>
<path opacity="0.23" d="M24.1597 56.3068C23.7261 57.7018 23.1417 60.36 23.3491 61.3215C23.2171 61.8682 22.1991 62.792 22.2556 64.2248C22.0483 63.81 22.086 63.1314 22.3499 61.774C22.6138 60.4166 23.2548 58.3428 24.1597 56.3068Z" fill="#3F2719"/>
<path opacity="0.23" d="M77.9269 62.9994C77.7761 64.4699 76.8146 66.374 74.1187 67.8822C74.0999 67.901 74.0999 67.901 74.081 67.901C73.9868 67.9576 73.8737 68.0141 73.7794 68.0707C73.7605 68.0707 73.7605 68.0895 73.7417 68.0895C73.5532 68.1838 73.3458 68.2969 73.1384 68.3912C73.0253 68.4477 72.9122 68.4854 72.7991 68.542C70.9892 69.2961 68.9532 69.6354 67.1622 69.7674C65.6917 69.8617 64.7868 70.2199 63.9761 70.2764C63.9007 70.2764 63.8064 70.2953 63.731 70.2953C63.3351 70.2953 62.9392 70.201 62.5056 69.9559C61.2425 69.2584 60.2245 69.051 59.4327 69.0322C59.3384 69.0322 59.2253 69.0322 59.1499 69.0322C58.3015 69.051 57.7737 69.315 57.5663 69.3338C57.5097 69.3338 57.4909 69.2961 57.5097 69.2395C57.5097 69.2018 57.5097 69.1641 57.5286 69.1264C59.3761 67.6936 61.7892 68.5797 62.9015 68.9756C64.1458 69.4281 64.3532 68.6928 65.4466 68.5986C66.54 68.5043 69.4999 68.5986 72.3843 67.4297C75.2687 66.2609 76.0417 63.5084 76.004 62.4715C75.9663 61.4158 73.704 57.5699 72.931 57.0043C72.6294 55.2322 71.7622 53.6486 70.5556 52.3477C70.9704 52.1027 71.4417 51.8764 71.9318 51.6502C71.9318 51.6502 71.9507 51.6502 71.9507 51.6314C72.0827 51.5937 72.1769 51.5559 72.2335 51.4994C75.4573 55.4207 78.0589 61.51 77.9269 62.9994Z" fill="#3F2719"/>
<path opacity="0.23" d="M64.1646 59.4176C64.7491 60.7938 66.8228 61.9815 67.7843 62.2643C68.7458 62.566 69.0474 62.7356 69.1417 62.8865C69.236 63.0373 68.7835 63.6594 68.2368 64.2061C68.5384 63.7914 68.6892 63.6028 68.6138 63.3766C68.5384 63.1504 68.0859 62.9053 67.313 62.4906C66.5589 62.1135 64.7679 61.2651 64.1646 59.4176Z" fill="#3F2719"/>
<path d="M26.4409 65.0543V66.2232" stroke="#9D7B51" stroke-width="0.774308" stroke-miterlimit="10" stroke-linecap="round" stroke-linejoin="round"/>
<path d="M27.4778 65.865V67.0527" stroke="#9D7B51" stroke-width="0.774308" stroke-miterlimit="10" stroke-linecap="round" stroke-linejoin="round"/>
<path d="M70.1032 64.4698V65.6387" stroke="#9D7B51" stroke-width="0.774308" stroke-miterlimit="10" stroke-linecap="round" stroke-linejoin="round"/>
<path d="M68.8966 65.3936V66.5624" stroke="#9D7B51" stroke-width="0.774308" stroke-miterlimit="10" stroke-linecap="round" stroke-linejoin="round"/>
<path d="M36.772 44.9954V46.1831" stroke="#9D7B51" stroke-width="0.774308" stroke-miterlimit="10" stroke-linecap="round" stroke-linejoin="round"/>
<path d="M38.0352 45.5797V46.7674" stroke="#9D7B51" stroke-width="0.774308" stroke-miterlimit="10" stroke-linecap="round" stroke-linejoin="round"/>
<path d="M35.9237 70.4084C33.6802 70.2765 31.0597 69.8429 27.4024 68.297C23.6696 66.7134 22.3122 65.356 22.1425 63.6593C21.9917 62.1699 23.6884 55.7412 26.5163 52.2158" stroke="#2D1F04" stroke-width="0.524211" stroke-miterlimit="10" stroke-linecap="round" stroke-linejoin="round"/>
<path d="M33.077 62.2454C32.0589 63.0937 30.4942 63.4142 30.4942 63.9044C30.4942 64.3945 33.9819 66.6757 34.095 66.6945" stroke="#2D1F04" stroke-width="0.524211" stroke-miterlimit="10" stroke-linecap="round" stroke-linejoin="round"/>
<path d="M34.3024 44.2035C32.2286 44.9387 30.0983 46.8994 27.3081 50.6133C26.9688 51.0658 25.781 52.1215 26.931 52.3289" stroke="#2D1F04" stroke-width="0.524211" stroke-miterlimit="10" stroke-linecap="round" stroke-linejoin="round"/>
<path d="M65.9556 61.7363C65.9933 63.1126 65.9179 64.5453 65.7105 66.0158" stroke="#2D1F04" stroke-width="0.524211" stroke-miterlimit="10" stroke-linecap="round" stroke-linejoin="round"/>
<path d="M38.431 73.5001C42.4655 75.5173 48.0081 76.0263 54.4179 74.9329C57.9999 74.3296 62.6187 73.0288 64.5417 70.8042" stroke="#2D1F04" stroke-width="0.524211" stroke-miterlimit="10" stroke-linecap="round" stroke-linejoin="round"/>
<path d="M55.8696 76.5543C51.081 78.9485 42.5597 77.5911 39.1286 74.2165C33.454 68.6362 33.1335 64.0928 32.9261 59.7002C32.304 59.342 31.0786 54.8362 33.1524 50.8961C33.6237 50.01 34.095 49.1239 34.1327 48.8789C34.1515 48.6715 33.7556 48.3321 33.9253 47.9362C34.0573 47.6723 34.6983 46.7297 34.604 47.2575" stroke="#2D1F04" stroke-width="0.524211" stroke-miterlimit="10" stroke-linecap="round" stroke-linejoin="round"/>
<path d="M34.6228 47.2576C42.7105 49.5765 51.854 48.0871 56.1146 46.5035" stroke="#2D1F04" stroke-width="0.524211" stroke-miterlimit="10" stroke-linecap="round" stroke-linejoin="round"/>
<path d="M48.2343 49.8592C45.9343 50.6698 37.0171 50.5944 34.2269 48.7657" stroke="#2D1F04" stroke-width="0.524211" stroke-miterlimit="10" stroke-linecap="round" stroke-linejoin="round"/>
<path d="M35.8671 47.6534C35.754 47.9928 35.6409 48.2379 35.6409 48.6149" stroke="#2D1F04" stroke-width="0.524211" stroke-miterlimit="10" stroke-linecap="round" stroke-linejoin="round"/>
<path d="M37.9409 48.0682C37.7901 48.3699 37.7523 48.7846 37.7523 49.124" stroke="#2D1F04" stroke-width="0.524211" stroke-miterlimit="10" stroke-linecap="round" stroke-linejoin="round"/>
<path d="M40.2786 48.2943V49.2181" stroke="#2D1F04" stroke-width="0.524211" stroke-miterlimit="10" stroke-linecap="round" stroke-linejoin="round"/>
<path d="M42.145 48.615V48.7658V48.8601V48.992V49.0863V49.1806V49.256" stroke="#2D1F04" stroke-width="0.524211" stroke-miterlimit="10" stroke-linecap="round" stroke-linejoin="round"/>
<path d="M41.1835 48.6715V48.7658V48.86V48.9354V49.0297V49.124" stroke="#2D1F04" stroke-width="0.524211" stroke-miterlimit="10" stroke-linecap="round" stroke-linejoin="round"/>
<path d="M48.0081 48.3885V48.4828V48.5771V48.7656V48.8599" stroke="#2D1F04" stroke-width="0.524211" stroke-miterlimit="10" stroke-linecap="round" stroke-linejoin="round"/>
<path d="M48.6868 48.3885V48.5394V48.6713V48.7656" stroke="#2D1F04" stroke-width="0.524211" stroke-miterlimit="10" stroke-linecap="round" stroke-linejoin="round"/>
<path d="M50.6474 83.0584C52.1745 82.2855 54.022 81.7387 55.8507 81.5125C56.6425 81.4183 57.4343 81.3806 58.1884 81.4183" stroke="#2D1F04" stroke-width="0.524211" stroke-miterlimit="10" stroke-linecap="round" stroke-linejoin="round"/>
<path d="M35.1507 83.0771C36.1311 82.2665 40.5425 80.6263 42.1827 80.9091" stroke="#2D1F04" stroke-width="0.524211" stroke-miterlimit="10" stroke-linecap="round" stroke-linejoin="round"/>
<path d="M56.0204 80.1174C57.6228 80.7584 59.1687 81.965 59.9228 83.492" stroke="#2D1F04" stroke-width="0.524211" stroke-miterlimit="10" stroke-linecap="round" stroke-linejoin="round"/>
<path d="M41.0892 80.0042C42.1638 80.7205 43.1442 81.5689 43.7097 82.6812" stroke="#2D1F04" stroke-width="0.524211" stroke-miterlimit="10" stroke-linecap="round" stroke-linejoin="round"/>
<path d="M61.9212 43.1288C62.0155 34.3624 58.8482 25.8034 50.1384 21.7313C48.7245 21.0526 47.2351 20.6756 45.7458 20.1288C45.463 20.0346 44.8786 19.8838 44.6712 19.5633C44.445 19.2239 44.5958 18.7338 44.5769 18.7338C43.3138 18.9411 43.8794 20.0723 43.8794 20.0723C43.8794 20.0723 43.6343 20.0534 43.5024 20.0346C42.9745 19.9215 42.4278 19.4502 42.4655 18.6584C42.522 17.6026 43.6532 17.169 43.4835 17.0747C43.4458 17.0559 41.4286 16.1321 39.9015 17.3387C39.0532 17.9985 38.6761 19.1485 38.9589 20.3551" stroke="#2D1F04" stroke-width="0.524211" stroke-miterlimit="10" stroke-linecap="round" stroke-linejoin="round"/>
<path d="M34.736 24.2198C34.2646 24.4461 33.1901 23.8617 33.4351 23.1453C33.454 23.0698 33.6802 23.3526 34.2081 23.3338C34.736 23.3338 35.0564 23.1076 35.0753 23.0698C35.113 22.9756 34.8868 22.9567 34.7925 22.9379C33.3786 22.7871 32.6433 21.0715 34.2269 20.0912C34.2835 20.0535 34.4532 20.7133 34.8679 21.0149C35.4146 21.4108 36.2442 21.4485 36.2442 21.2412C35.0376 20.4494 35.6786 18.4699 37.3564 18.1682C37.3942 18.1682 36.9983 19.8272 38.8835 20.1666" stroke="#2D1F04" stroke-width="0.524211" stroke-miterlimit="10" stroke-linecap="round" stroke-linejoin="round"/>
<path d="M35.0187 24.0879C34.0761 24.7289 33.322 25.5395 32.6999 26.5764C29.9474 31.233 31.3991 36.6625 33.6237 41.0928C33.8122 41.4887 34.095 41.9412 34.1515 42.3748C34.1892 42.601 34.0573 42.9592 34.1515 43.1666C34.1892 43.242 34.3966 42.9592 34.3966 43.0346C34.4532 43.4494 34.3966 43.9207 34.3589 44.3166C34.3401 44.4674 34.1704 44.8821 34.2835 44.769C34.3212 44.7313 34.4155 44.392 34.5663 44.4297C34.6605 44.4674 34.5663 46.6543 34.5286 46.8616" stroke="#2D1F04" stroke-width="0.524211" stroke-miterlimit="10" stroke-linecap="round" stroke-linejoin="round"/>
<path d="M63.6745 70.2765C63.2597 70.2765 62.845 70.2011 62.3737 69.9372C58.9237 68.0519 57.3212 69.7109 57.3589 69.2019C57.4155 68.6929 57.9056 67.2036 59.1687 66.4872C61.0917 65.3749 62.6187 66.3929 63.9384 66.4872C63.2597 67.3544 62.5999 68.6552 63.6745 70.2765Z" fill="#B6B1AE"/>
<path d="M63.8819 58.5125C64.1647 59.6436 64.6171 60.6428 65.5974 61.4723C66.6155 62.3207 68.6892 63.0182 68.6327 63.5272C68.5384 64.2059 67.2942 65.469 64.8056 66.3928C63.2974 66.9584 61.5253 65.1485 59.1876 66.4871C57.9433 67.2035 57.4343 68.7117 57.3778 69.2018C57.3212 69.7108 58.9425 68.033 62.3925 69.9371C63.8253 70.7289 64.7302 69.9182 67.1056 69.7485C68.8966 69.6354 70.9327 69.2961 72.7425 68.5231C76.4753 66.9395 77.7573 64.6772 77.9269 62.9617C78.0778 61.4723 75.495 55.4018 72.2146 51.4617" stroke="#2D1F04" stroke-width="0.524211" stroke-miterlimit="10" stroke-linecap="round" stroke-linejoin="round"/>
<path d="M63.9384 58.5503C62.8073 59.4175 62.5245 58.7577 62.0155 57.7208" stroke="#2D1F04" stroke-width="0.524211" stroke-miterlimit="10" stroke-linecap="round" stroke-linejoin="round"/>
<path d="M58.0187 56.0618C58.6974 56.2126 59.7532 56.5896 60.5638 56.9667C61.2802 57.2872 61.7892 57.6265 62.0532 57.7962" stroke="#2D1F04" stroke-width="0.524211" stroke-miterlimit="10" stroke-linecap="round" stroke-linejoin="round"/>
<path d="M60.5827 56.9666C60.1302 56.3822 59.6024 55.5904 58.9802 55.1757" stroke="#2D1F04" stroke-width="0.524211" stroke-miterlimit="10" stroke-linecap="round" stroke-linejoin="round"/>
<path d="M55.3605 49.4067C55.7376 47.3141 56.9441 44.2977 60.1679 43.4305C63.9761 42.4125 66.7663 43.7133 71.4228 49.8969C71.7622 50.3493 72.9499 51.4051 71.7999 51.6125" stroke="#2D1F04" stroke-width="0.524211" stroke-miterlimit="10" stroke-linecap="round" stroke-linejoin="round"/>
<path d="M62.204 57.6832C62.9958 55.1759 65.2015 52.2537 68.2368 51.1603" stroke="#2D1F04" stroke-width="0.524211" stroke-miterlimit="10" stroke-linecap="round" stroke-linejoin="round"/>
<path d="M63.0524 56.0807C63.2974 56.3069 63.5237 56.4389 63.8253 56.5897" stroke="#2D1F04" stroke-width="0.524211" stroke-miterlimit="10" stroke-linecap="round" stroke-linejoin="round"/>
<path d="M64.1646 54.4969L64.8056 54.9871" stroke="#2D1F04" stroke-width="0.524211" stroke-miterlimit="10" stroke-linecap="round" stroke-linejoin="round"/>
<path d="M65.3524 53.1584L65.8425 53.7617" stroke="#2D1F04" stroke-width="0.524211" stroke-miterlimit="10" stroke-linecap="round" stroke-linejoin="round"/>
<path d="M53.4753 77.4028C53.9089 78.6659 54.795 79.7028 56.0392 80.1364C52.4573 80.7585 51.081 82.0216 50.2327 83.0774C50.1196 83.3036 52.9097 83.379 55.9827 83.511C59.5458 83.643 63.8819 83.8315 65.3523 83.4921C66.8228 83.1528 65.5786 80.9848 65.2958 80.1175C64.3343 77.1766 63.3917 73.1044 64.8245 70.1635" stroke="#2D1F04" stroke-width="0.524211" stroke-miterlimit="10" stroke-linecap="round" stroke-linejoin="round"/>
<path d="M39.3925 74.4994C38.9778 75.9133 40.0147 78.9486 41.0893 80.0043C38.5442 79.9289 35.5089 82.2666 35.3015 82.4551C34.4155 83.2658 34.6983 83.3223 35.3015 83.3223C35.9048 83.3223 40.8253 83.0773 43.4081 83.0207C44.4638 83.0018 45.7458 82.9453 46.8015 82.9076C47.4425 82.8887 50.4401 82.8699 49.9688 81.7764C49.422 80.4945 48.7622 78.7223 48.6868 77.7232" stroke="#2D1F04" stroke-width="0.524211" stroke-miterlimit="10" stroke-linecap="round" stroke-linejoin="round"/>
<path d="M57.3778 69.2208C58.6409 67.4487 60.8843 67.1659 62.3925 67.5618" stroke="#2D1F04" stroke-width="0.524211" stroke-miterlimit="10" stroke-linecap="round" stroke-linejoin="round"/>
<path d="M63.9384 66.4872C63.2597 67.3544 62.5999 68.6552 63.6745 70.2765" stroke="#2D1F04" stroke-width="0.524211" stroke-miterlimit="10" stroke-linecap="round" stroke-linejoin="round"/>
<path d="M32.3794 52.8567C31.795 52.4608 31.1729 52.1214 30.4942 51.8763" stroke="#2D1F04" stroke-width="0.524211" stroke-miterlimit="10" stroke-linecap="round" stroke-linejoin="round"/>
<path d="M30.9655 52.0649C30.7393 52.2535 30.5696 52.5928 30.4942 52.8379" stroke="#2D1F04" stroke-width="0.524211" stroke-miterlimit="10" stroke-linecap="round" stroke-linejoin="round"/>
<path d="M31.9834 31.9304C32.1908 29.6304 32.9449 28.6501 34.3023 27.9148C36.1498 26.9345 37.1113 26.5197 39.1096 26.3312C39.826 26.2747 40.6367 26.237 40.7498 25.5206C40.8064 25.2001 40.6932 24.8607 40.3727 24.4271C40.9949 24.4271 41.6924 24.6722 42.2014 25.087C43.2383 25.9165 44.8031 26.4443 46.0285 26.4066C50.3268 26.2747 53.0604 26.7648 55.1342 30.5353C55.6055 31.3837 56.3219 33.3255 55.8318 35.4747C55.1154 38.623 54.7572 39.9427 51.326 42.3181C47.2539 45.1271 38.8457 46.5222 34.6416 41.2058C32.6998 38.755 31.6818 35.3427 31.9834 31.9304Z" fill="#BCAEAD"/>
<path d="M40.2032 33.514C38.7892 32.7976 37.6392 36.3796 37.7523 37.4165C38.1483 40.9419 43.295 40.7533 45.6892 39.5656C49.1392 37.8501 44.9163 32.2886 42.4466 33.2689" fill="#4D4342"/>
<path d="M31.9835 31.9304C31.7007 34.6263 32.436 37.6616 33.0204 38.0952C33.4729 38.4345 36.3007 37.7558 37.7335 34.8337C39.0532 32.1378 38.8647 30.0829 38.4122 29.6493C38.1671 29.4042 34.9999 28.4239 33.2843 28.6313C32.6433 28.7067 32.2474 29.5173 31.9835 31.9304Z" fill="#4D4342"/>
<path d="M45.3687 29.6304C45.086 36.6623 53.9089 40.2254 54.8892 38.7927C55.5302 37.8689 56.7368 34.023 55.3605 30.9877C54.6441 29.4041 53.1548 27.632 52.3819 27.632C51.0245 27.6132 49.3466 28.4992 47.895 28.8197C46.6884 29.0836 45.4253 29.1402 45.3687 29.6304Z" fill="#4D4342"/>
<path d="M39.3548 33.5139C39.336 32.9861 40.3728 32.4959 41.6925 32.4393C43.0122 32.3828 44.1056 32.7598 44.1245 33.2877C44.1433 33.8156 43.1064 34.3057 41.7868 34.3623C40.4671 34.4188 39.3737 34.0418 39.3548 33.5139Z" fill="#251707"/>
<path d="M41.7302 33.7593C41.7302 34.7208 41.8245 35.6445 41.8433 36.3232C41.8811 37.0208 43.9171 38.0199 45.2179 36.097" stroke="#251707" stroke-width="0.524211" stroke-miterlimit="10" stroke-linecap="round" stroke-linejoin="round"/>
<path d="M54.927 29.6306C53.8147 29.0085 53.1171 28.0847 51.6278 28.0659C49.6294 28.0282 46.6696 29.5552 44.5958 29.9323" stroke="#2D1F04" stroke-width="1.5206" stroke-miterlimit="10" stroke-linecap="round" stroke-linejoin="round"/>
<path d="M30.7958 29.6306C32.0401 28.8199 32.9261 28.5183 33.8122 28.5183C35.3958 28.5183 37.7524 29.574 39.6942 29.9134" stroke="#2D1F04" stroke-width="1.5206" stroke-miterlimit="10" stroke-linecap="round" stroke-linejoin="round"/>
<path d="M35.2261 69.2772C35.0942 67.7124 36.1122 67.3165 36.1122 66.9772C36.1122 66.6944 34.4909 65.7895 33.8311 66.0534C33.1335 66.3174 33.1147 67.6559 33.4917 68.0518C33.4352 68.5042 33.7934 69.56 34.472 69.9936C35.1507 70.4272 35.5089 70.1444 35.2261 69.2772Z" fill="#B6B1AE"/>
<path d="M35.2261 69.2773C35.0188 67.7502 36.1122 67.3166 36.1122 66.9773C36.1122 66.6945 34.2835 65.8838 33.8311 66.0535C33.1335 66.3174 33.1147 67.656 33.4917 68.0519C33.4352 68.5043 33.7934 69.5601 34.472 69.9937C35.1507 70.4273 35.4901 69.7297 35.2261 69.2773Z" stroke="#2D1F04" stroke-width="0.524211" stroke-miterlimit="10" stroke-linecap="round" stroke-linejoin="round"/>
<path d="M33.4729 68.0329C33.963 67.2223 35.0376 66.9772 36.1122 66.9772" stroke="#2D1F04" stroke-width="0.524211" stroke-miterlimit="10" stroke-linecap="round" stroke-linejoin="round"/>
<path d="M41.8622 36.3231C41.7491 36.9075 41.0138 37.5485 40.0335 37.1715" stroke="#251707" stroke-width="0.524211" stroke-miterlimit="10" stroke-linecap="round" stroke-linejoin="round"/>
<path d="M47.9327 32.3076C48.1023 33.3257 49.3089 32.8167 50.4966 32.8544C51.8728 32.9109 53.1737 33.4953 53.1171 31.9306C53.0794 30.7617 51.8728 30.2904 50.1196 30.2339C48.3663 30.1773 47.7253 31.0257 47.9327 32.3076Z" fill="white"/>
<path d="M47.9137 32.0625C48.4416 31.0068 49.4973 30.8371 50.8358 31.0822C52.2309 31.3461 52.8719 31.9117 53.0604 32.6092C53.117 32.4018 53.1547 32.1756 53.1358 31.9305C53.0981 30.7617 51.8916 30.2904 50.1383 30.2338C48.4793 30.1961 47.8195 30.9313 47.9137 32.0625Z" fill="#D3E5EA"/>
<path d="M51.6278 31.9116C51.6278 31.2707 51.1188 30.7617 50.4966 30.7428C49.8556 30.7428 49.3466 31.2518 49.3278 31.8739C49.3278 32.5149 49.8368 33.0239 50.4589 33.0428C51.0999 33.0428 51.6089 32.5338 51.6278 31.9116Z" fill="#2D1F04"/>
<path d="M47.9327 32.3076C48.1023 33.3068 49.2901 32.8732 50.4966 32.8544C51.8917 32.8544 53.1737 33.5142 53.1171 31.9306C53.0794 30.7617 51.8728 30.2904 50.1196 30.2339C48.3663 30.1773 47.7253 31.0257 47.9327 32.3076Z" stroke="#2D1F04" stroke-width="0.493934" stroke-miterlimit="10" stroke-linecap="round" stroke-linejoin="round"/>
<path d="M49.7048 31.629C49.9859 31.629 50.2138 31.4011 50.2138 31.12C50.2138 30.8389 49.9859 30.611 49.7048 30.611C49.4237 30.611 49.1958 30.8389 49.1958 31.12C49.1958 31.4011 49.4237 31.629 49.7048 31.629Z" fill="white"/>
<path d="M49.8368 32.2323C49.9409 32.2323 50.0253 32.1479 50.0253 32.0437C50.0253 31.9396 49.9409 31.8552 49.8368 31.8552C49.7327 31.8552 49.6483 31.9396 49.6483 32.0437C49.6483 32.1479 49.7327 32.2323 49.8368 32.2323Z" fill="white"/>
<path d="M37.4699 32.3075C37.2814 33.269 36.1691 32.76 35.0379 32.76C33.7559 32.7788 32.4928 33.3067 32.5871 31.8173C32.6625 30.7239 33.7936 30.3091 35.4527 30.2903C37.1117 30.2903 37.6961 31.1009 37.4699 32.3075Z" fill="white"/>
<path d="M37.5073 32.0811C37.036 31.0631 36.0368 30.8934 34.7925 31.082C33.4729 31.2893 32.8507 31.8172 32.6622 32.4582C32.6056 32.2697 32.5868 32.0434 32.6056 31.8172C32.6811 30.7238 33.8122 30.309 35.4712 30.2902C36.9983 30.2902 37.6204 31.0066 37.5073 32.0811Z" fill="#D3E5EA"/>
<path d="M34.0007 31.8362C34.0007 31.2329 34.5097 30.7616 35.0942 30.7616C35.6975 30.7616 36.1688 31.2706 36.1688 31.855C36.1688 32.4583 35.6597 32.9296 35.0753 32.9296C34.472 32.9296 34.0007 32.4395 34.0007 31.8362Z" fill="#2D1F04"/>
<path d="M37.4696 32.3075C37.2999 33.2501 36.1688 32.7977 35.0376 32.76C33.7368 32.7223 32.4925 33.3255 32.5868 31.8173C32.6622 30.7239 33.7933 30.3091 35.4524 30.2903C37.1114 30.2903 37.6958 31.1009 37.4696 32.3075Z" stroke="#2D1F04" stroke-width="0.493934" stroke-miterlimit="10" stroke-linecap="round" stroke-linejoin="round"/>
<path d="M34.2835 31.8362C34.5438 31.8362 34.7548 31.6252 34.7548 31.3649C34.7548 31.1046 34.5438 30.8936 34.2835 30.8936C34.0232 30.8936 33.8122 31.1046 33.8122 31.3649C33.8122 31.6252 34.0232 31.8362 34.2835 31.8362Z" fill="white"/>
<path d="M34.472 32.364C34.5762 32.364 34.6606 32.2796 34.6606 32.1755C34.6606 32.0713 34.5762 31.9869 34.472 31.9869C34.3679 31.9869 34.2835 32.0713 34.2835 32.1755C34.2835 32.2796 34.3679 32.364 34.472 32.364Z" fill="white"/>
<path d="M24.4247 45.2059L22.9952 45.8208L23.1448 44.2751L22.1143 43.1116L23.6435 42.7626L24.4247 41.4329L25.2225 42.7626L26.735 43.1116L25.7045 44.2751L25.8541 45.8208L24.4247 45.2059Z" fill="#4D4342"/>
<path d="M74.9363 45.2059L73.5069 45.8208L73.6565 44.2751L72.6259 43.1116L74.1551 42.7626L74.9363 41.4329L75.7341 42.7626L77.2466 43.1116L76.2161 44.2751L76.3657 45.8208L74.9363 45.2059Z" fill="#4D4342"/>
<path opacity="0.1" d="M75.8172 85.0466C71.7783 85.6782 72.7922 76.9023 72.7922 76.9023C72.7922 76.9023 68.6369 91.3627 62.138 83.9164C62.138 83.9164 41.5112 93.8725 35.7104 77.2846C35.7104 77.2846 32.7186 90.9471 24.2418 91.2962C15.7484 91.6286 15.7817 79.1628 15.7817 79.1628C15.7817 79.1628 15.1833 89.5676 13.837 82.5368C13.2553 86.9747 12.3743 91.3294 10.9449 92.5926L13.1223 95.8338L26.0037 94.3877L56.7361 92.2104L60.8416 91.7117L81.8673 96.9972L84.2774 95.0692C84.2774 95.0692 82.6817 76.9189 83.1305 65.4503C81.6014 71.1015 78.7592 84.5813 75.8172 85.0466Z" fill="#3F2719"/>
<path opacity="0.1" d="M82.0668 2.72205L9.11659 4.51713L9.06673 6.67788C9.06673 6.67788 12.1749 9.919 13.7705 20.7061C16.3634 8.88849 18.3413 31.4932 18.3413 31.4932C18.3413 31.4932 22.962 20.9222 33.3502 17.2489C57.1517 8.85525 64.2655 15.0882 64.2655 15.0882C64.2655 15.0882 64.6977 9.73617 66.9249 8.20702C69.1521 6.67788 70.5649 11.149 70.5649 11.149C72.6924 10.4176 71.9944 14.5895 71.9944 14.5895C71.9944 14.5895 75.3352 9.61982 80.6041 14.1906C85.8398 18.7448 85.4575 31.7758 85.4575 31.7758C86.488 25.7589 88.3496 17.4318 91.3081 12.728L82.0668 2.72205Z" fill="#3F2719"/>
<path d="M11.4103 94.7865L9.88116 92.5261L10.3133 92.0441C11.7593 90.4318 12.1084 88.1048 12.5572 85.1629C12.6901 84.282 12.8231 83.3844 13.0059 82.437C13.7373 71.4671 15.8648 34.9172 12.9727 20.889C12.7566 20.0413 12.5405 19.0606 12.3245 18.0135C11.5433 14.3236 10.5626 9.71956 8.43512 7.20977L10.0307 6.12939C12.4408 8.95499 13.4547 13.7751 14.2858 17.6645C14.5018 18.695 14.7179 19.6756 14.9174 20.4901L14.934 20.5233C17.8925 34.7676 15.7318 71.6333 15.0005 82.5866L14.9838 82.6863C14.801 83.6171 14.668 84.5313 14.5351 85.4122C14.1029 88.2544 13.3051 91.7282 11.8757 93.6397L13.1223 93.8558L11.4103 94.7865Z" fill="#4D4342"/>
<path d="M83.1305 95.1189C83.0474 93.7394 81.1692 62.259 82.2662 50.0092C80.9365 50.3582 79.5902 50.5244 78.9088 49.4773C78.2273 48.4302 79.1248 46.9675 79.424 46.4855C80.1553 45.3054 81.136 43.743 83.0142 41.8316C83.2801 39.1057 85.4409 19.9083 90.261 12.2626L92.0062 13.1435C87.1362 20.8723 84.9755 42.0643 84.9588 42.2803L84.9256 42.5795L84.7262 42.7956C80.5542 47.0008 80.3215 48.3138 80.3215 48.5631C80.7038 48.7293 82.1 48.4967 83.2801 48.0479L84.5599 47.5659L84.3937 48.9288C83.0474 59.932 85.1084 94.6702 85.1417 95.0192L83.1305 95.1189Z" fill="#4D4342"/>
<path d="M97.1421 17.7642C97.1421 17.7642 81.9172 6.9605 78.9752 7.0436C76.0333 7.12671 73.7894 7.97439 73.7894 7.97439L76.7148 4.89948L71.0137 6.82753C71.0137 6.82753 72.8753 5.14879 71.263 4.78313C69.6508 4.41746 68.3543 6.26241 68.3543 6.26241C68.3543 6.26241 23.9759 2.78859 16.3302 11.4648C16.3302 11.4648 16.513 8.90517 16.7789 6.54497C16.7789 6.54497 12.0918 11.4814 8.01959 10.8997C3.94742 10.318 3.01663 9.85258 3.01663 9.85258C3.01663 9.85258 8.90051 0.710951 11.0613 0.0959691C13.222 -0.519013 53.3787 2.0074 66.5925 2.40631C79.8063 2.80521 85.2248 -0.602119 89.995 3.38695C94.7487 7.37603 97.1421 17.7642 97.1421 17.7642Z" fill="#BCA488"/>
<path opacity="0.15" d="M95.962 13.7587C95.7792 13.2268 95.5797 12.6617 95.3636 12.08C94.998 11.116 94.5658 10.1021 94.0672 9.10479C93.8677 8.70589 93.6683 8.30698 93.4522 7.90807C92.4882 6.14623 91.3413 4.51736 90.0116 3.40374C89.8787 3.2874 89.7457 3.20429 89.6127 3.10456C89.4798 3.00484 89.3634 2.90511 89.2304 2.822C89.3468 3.03808 93.4688 10.5675 88.2166 7.97456C82.8978 5.36504 66.6091 2.40648 52.7138 3.2874C38.8185 4.16832 20.4189 2.80538 33.6992 0.827467C22.1475 0.245728 12.125 -0.203043 11.0612 0.0961374C8.90049 0.711119 2.99998 9.83612 2.99998 9.83612C2.99998 9.83612 3.93077 10.3181 8.00295 10.8833C9.01684 11.0328 10.0806 10.8334 11.0945 10.4511C11.5931 10.2683 12.0917 10.019 12.5738 9.76964C14.934 8.45657 16.7789 6.52852 16.7789 6.52852C16.6626 7.55903 16.5628 8.6394 16.4797 9.52032C16.4631 9.76964 16.4465 10.0023 16.4132 10.2184C16.3966 10.4345 16.38 10.6173 16.3634 10.7835C16.3301 11.1991 16.3135 11.4484 16.3135 11.4484C17.0282 10.6339 18.0754 9.91923 19.3552 9.32087C19.7873 9.12142 20.2527 8.92196 20.7347 8.73913C20.9841 8.6394 21.2334 8.5563 21.4827 8.47319C22.2473 8.20725 23.0783 7.97456 23.9426 7.75848C24.2252 7.692 24.5244 7.60889 24.8235 7.54241C25.4219 7.40944 26.0369 7.27647 26.6851 7.16012C27.6491 6.97729 28.6298 6.81108 29.6603 6.67811C31.0232 6.47865 32.4526 6.32906 33.9153 6.19609C34.6466 6.12961 35.378 6.06313 36.1259 6.01326C39.4668 5.76395 42.9406 5.6476 46.3147 5.59773C47.4449 5.58111 48.5419 5.58111 49.6389 5.58111C50.0046 5.58111 50.3702 5.58111 50.7193 5.58111C51.434 5.58111 52.1487 5.59773 52.8468 5.59773C61.5562 5.7307 68.3211 6.26258 68.3211 6.26258C68.3211 6.26258 69.6175 4.41763 71.2298 4.7833C71.8281 4.91627 71.9445 5.24869 71.8614 5.59773C71.7949 5.83043 71.6453 6.07975 71.4791 6.2792C71.2298 6.595 70.9804 6.8277 70.9804 6.8277L76.6815 4.89965L73.7562 7.97456C73.7562 7.97456 74.072 7.85821 74.6205 7.70862C75.5346 7.4593 77.1136 7.11026 78.942 7.04377C79.4905 7.02715 80.4711 7.39282 81.7177 7.99118C81.9171 8.0909 82.1332 8.20725 82.3493 8.30698C82.7814 8.53967 83.2468 8.78899 83.7289 9.05493C86.3716 10.5342 89.5462 12.5952 92.1391 14.3238C92.6045 14.6396 93.0699 14.9388 93.4855 15.238C95.613 16.684 97.1089 17.7478 97.1089 17.7478C97.1089 17.7478 96.7432 16.0524 95.962 13.7587Z" fill="#3F2719"/>
<path d="M97.1421 17.7642C97.1421 17.7642 81.9172 6.9605 78.9752 7.0436C76.0333 7.12671 73.7894 7.97439 73.7894 7.97439L76.7148 4.89948L71.0137 6.82753C71.0137 6.82753 72.8753 5.14879 71.263 4.78313C69.6508 4.41746 68.3543 6.26241 68.3543 6.26241C68.3543 6.26241 23.9759 2.78859 16.3302 11.4648C16.3302 11.4648 16.513 8.90517 16.7789 6.54497C16.7789 6.54497 12.0918 11.4814 8.01959 10.8997C3.94742 10.318 3.01663 9.85258 3.01663 9.85258C3.01663 9.85258 8.90051 0.710951 11.0613 0.0959691C13.222 -0.519013 53.3787 2.0074 66.5925 2.40631C79.8063 2.80521 85.2248 -0.602119 89.995 3.38695C94.7487 7.37603 97.1421 17.7642 97.1421 17.7642Z" stroke="#2D1F04" stroke-width="0.58174" stroke-miterlimit="10" stroke-linecap="round" stroke-linejoin="round"/>
<path d="M90.6931 95.7173C90.6931 95.7173 85.4242 100.687 83.4463 99.3573C81.4684 98.0276 60.8083 93.7228 54.8413 93.9721C39.9156 94.5871 23.8263 98.4266 17.3773 99.9058C15.9479 100.238 14.3523 99.6731 13.3051 98.4764C11.1444 96.0165 7.63732 91.6617 6.80626 88.6533C6.80626 88.6533 10.7122 94.5871 16.7291 94.1383C22.7459 93.6895 57.9329 89.3182 57.9329 89.3182C57.9329 89.3182 57.052 93.5067 60.7252 89.5509C60.7252 89.5509 60.4759 92.4097 66.177 91.9277C71.878 91.4457 78.3769 91.8113 80.654 93.2241C83.4962 95.0026 86.8204 93.5566 86.8204 93.5566C86.8204 93.5566 86.5877 95.2353 84.5433 96.0996C84.5267 96.1162 86.5212 96.6315 90.6931 95.7173Z" fill="#BCA488"/>
<path opacity="0.15" d="M17.3607 99.906C23.8263 98.4101 39.8989 94.5872 54.8247 93.9722C60.7751 93.7229 81.4518 98.0278 83.4297 99.3575C85.4076 100.687 90.6765 95.7174 90.6765 95.7174C87.3523 97.8117 81.352 98.5763 67.1908 93.7728C53.0296 88.9693 36.8074 93.1578 24.1587 95.7008C12.5738 98.0278 8.61795 92.4098 8.03621 91.4458C9.48225 93.9722 11.7261 96.7147 13.2885 98.4765C14.3522 99.6733 15.9312 100.238 17.3607 99.906Z" fill="#3F2719"/>
<path d="M90.6931 95.7173C90.6931 95.7173 85.4242 100.687 83.4463 99.3573C81.4684 98.0276 60.8083 93.7228 54.8413 93.9721C39.9156 94.5871 23.8263 98.4266 17.3773 99.9058C15.9479 100.238 14.3523 99.6731 13.3051 98.4764C11.1444 96.0165 7.63732 91.6617 6.80626 88.6533C6.80626 88.6533 10.7122 94.5871 16.7291 94.1383C22.7459 93.6895 57.9329 89.3182 57.9329 89.3182C57.9329 89.3182 57.052 93.5067 60.7252 89.5509C60.7252 89.5509 60.4759 92.4097 66.177 91.9277C71.878 91.4457 78.3769 91.8113 80.654 93.2241C83.4962 95.0026 86.8204 93.5566 86.8204 93.5566C86.8204 93.5566 86.5877 95.2353 84.5433 96.0996C84.5267 96.1162 86.5212 96.6315 90.6931 95.7173Z" stroke="#2D1F04" stroke-width="0.58174" stroke-miterlimit="10" stroke-linecap="round" stroke-linejoin="round"/>
<path d="M10.3133 92.0442C11.7593 90.4319 12.1084 88.1049 12.5572 85.163C12.6901 84.2821 12.8231 83.3845 13.0059 82.4371C13.7373 71.4672 15.8648 34.9173 12.9727 20.8891C12.7566 20.0414 12.5405 19.0607 12.3245 18.0136C11.8258 15.6867 11.2607 12.994 10.3798 10.7003" stroke="#2D1F04" stroke-width="0.58174" stroke-miterlimit="10" stroke-linecap="round" stroke-linejoin="round"/>
<path d="M91.5574 13.9081C87.0033 22.1854 84.9755 42.0809 84.9589 42.2804L84.9256 42.5795L84.7262 42.7956C80.5543 47.0008 80.3216 48.3138 80.3216 48.5632C80.7038 48.7294 82.1 48.4967 83.2801 48.0479L84.56 47.5659L84.3937 48.9288C83.1804 58.8849 84.7594 88.271 85.0752 94.0386" stroke="#2D1F04" stroke-width="0.58174" stroke-miterlimit="10" stroke-linecap="round" stroke-linejoin="round"/>
</g>
<defs>
<clipPath id="clip0_58_433">
<rect width="100" height="100" fill="white"/>
</clipPath>
</defs>
</svg>
