<svg width="423" height="416" viewBox="0 0 423 416" fill="none" xmlns="http://www.w3.org/2000/svg">
<g clip-path="url(#clip0_281_1370)">
<path d="M184.3 120.7L189.1 112.8L193.9 116.4C193.1 106.7 195.4 102.2 201.8 88.2C210.3 69.5 232.4 48.3 256.9 45.9L255.9 36C227.4 38.9 202.6 62.4 192.7 84.2C186.6 97.4 183.3 107.7 184.3 120.7Z" fill="#FFDB1F"/>
<path opacity="0.23" d="M184.3 120.7L189.1 112.8L193.5 115.1C192.7 105.4 195.4 102.2 201.8 88.0998C210.3 69.3998 232.4 48.1998 256.9 45.7998L255.9 35.7998C255 35.8998 254.2 35.9998 253.3 36.0998L253.9 41.9998C229.5 44.5998 208 65.9998 198.5 84.1998C193.4 93.8998 190.6 102.8 190.6 111.4L186.2 109.1L184.3 112.2C184.1 114.9 184.1 117.7 184.3 120.7Z" fill="#3F2719"/>
<path d="M184.3 120.7L189.1 112.8L193.5 115.1C192.7 105.4 195.4 102.2 201.8 88.0999C210.3 69.3999 232.4 48.1999 256.9 45.7999L255.9 35.8999C227.4 38.7999 202.6 62.2999 192.7 84.0999C186.6 97.3999 183.3 107.7 184.3 120.7Z" stroke="#2D1F04" stroke-width="2.7806" stroke-miterlimit="10" stroke-linecap="round" stroke-linejoin="round"/>
<path d="M151.7 133.4C170 120.4 176.1 109.5 183.2 96.8999C186.1 91.6999 189.2 86.1999 193.4 80.1999C207.6 59.8999 232.5 45.3999 254 44.8999L253.8 34.8999C229 35.3999 201.4 51.2999 185.2 74.3999C180.7 80.8999 177.4 86.6999 174.5 91.8999C167.7 103.9 162.4 113.4 145.9 125.1L154.7 125.3L151.7 133.4Z" fill="#FFDB1F"/>
<path opacity="0.23" d="M154.7 125.5L151.7 133.4C170 120.4 176.1 109.5 183.2 97.0001C186.1 91.8001 189.2 86.3001 193.4 80.3001C207.6 60.0001 232.5 45.5001 254 45.1001L253.8 35.1001C252.8 35.1001 251.9 35.2001 250.9 35.2001L251 41.4001C229.6 41.8001 204.6 56.3001 190.4 76.6001C186.2 82.7001 183.1 88.1001 180.2 93.3001C173.9 104.5 168.4 114.4 154.3 125.6L154.7 125.5Z" fill="#3F2719"/>
<path d="M151.7 133.4C170 120.4 176.1 109.5 183.2 96.8999C186.1 91.6999 189.2 86.1999 193.4 80.1999C207.6 59.8999 232.5 45.3999 254 44.8999L253.8 34.8999C229 35.3999 201.4 51.2999 185.2 74.3999C180.7 80.8999 177.4 86.6999 174.5 91.8999C167.7 103.9 162.4 113.4 145.9 125.1L154.7 125.3L151.7 133.4Z" stroke="#2D1F04" stroke-width="2.7806" stroke-miterlimit="10" stroke-linecap="round" stroke-linejoin="round"/>
<path d="M381.8 388.6C379.4 386.7 363.4 378.6 348.6 371.9C346.9 371.1 345.3 370.4 343.6 369.6C333.8 364.9 325.1 359.6 327.4 355.1C330.2 349.4 328.3 328.9 310.7 318.9C300.9 318.9 290.7 317.7 281.5 315.7C266.3 322.7 259.9 329.1 252.7 340.7C246.8 350.2 247.7 363.1 242.3 372.9C240.7 375.8 237.3 380.5 233.8 383.4C224.7 391 217.6 398.3 206 414.1C201.7 392.1 200 387.1 199.5 377.2C199.4 375.4 199.5 373.5 199.5 371.7C199.7 360.8 207.8 345.9 208.8 337.8C212.2 311 217.7 298.4 218.9 290.2C219 289.4 219.1 288.5 219.1 287.6C219.3 282.5 217.9 276.4 215.6 270.6C215 269.1 214.4 267.7 213.7 266.3C206.3 250.7 201.1 237.6 199.7 225.8C197.4 207.8 198.1 207 198.8 199.4C199.3 194 199.9 143.8 200.7 132.1C204.5 78.5999 220.2 45.0999 254.3 27.6999C261.4 24.0999 265.5 22.3999 273.2 19.6999C274.6 19.1999 277.6 18.3999 278.7 16.8999C279.9 15.1999 279.1 12.6999 279.1 12.6999C285.5 13.7999 282.7 19.5999 282.7 19.5999C282.7 19.5999 284 19.4999 284.6 19.3999C287.3 18.7999 290.1 16.4999 289.9 12.3999C289.6 6.99986 283.8 4.79986 284.7 4.39986C284.9 4.29986 295.1 -0.400136 303 5.79986C307.1 8.99986 309 14.3999 308 20.0999C317.7 18.2999 316.1 9.89986 316.2 9.89986C324.8 11.3999 328 21.4999 321.9 25.5999C321.9 26.5999 326.1 26.3999 328.9 24.3999C331 22.8999 331.9 19.5999 332.1 19.6999C340.2 24.6999 336.4 33.3999 329.2 34.1999C328.7 34.2999 327.6 34.2999 327.7 34.7999C327.8 34.9999 329.4 36.0999 332.1 36.1999C334.9 36.1999 335.9 34.8999 336.1 35.1999C337.3 38.6999 331.9 41.6999 329.3 40.8999C366.8 55.7999 355.7 107.6 346.1 126.7C345.1 128.7 343.7 131 343.4 133.2C343.2 134.3 343.9 136.2 343.4 137.2C343.2 137.6 342.2 136.1 342.1 136.6C341.8 138.7 342.1 141.1 342.3 143.1C342.4 143.9 343.3 146 342.7 145.4C342.5 145.2 342 143.5 341.2 143.7C340.8 143.9 342.1 155.4 345.2 162.6C344.9 160.2 351.2 167 357 180.4C366 201.2 366.6 214.7 365.8 226C364.8 248.3 366.8 284.2 354.5 301.7C367.6 316.5 369.6 347.3 363.8 352.6C366.2 354.9 368.7 357.3 371 359.8C378.1 367.4 384.1 375.7 385.9 383.7C387.1 389.3 385.1 391.2 381.8 388.6Z" fill="#CAA77A"/>
<path d="M381.6 388.5C379.2 386.6 363.2 378.5 348.4 371.8C346.7 371 345.1 370.3 343.4 369.5C349.7 363.8 361.7 359.3 370.7 359.3C371.2 359.8 371.7 360.4 372.2 361C372.6 361.4 373 361.8 373.3 362.3C374.7 363.9 376.1 365.6 377.3 367.2C377.8 367.9 378.3 368.5 378.7 369.2C382 373.8 384.4 378.6 385.4 383.2C386.9 389.2 384.9 391.1 381.6 388.5Z" fill="#B6B1AE"/>
<path d="M233.9 383.3C225.9 390.1 216.9 399.2 205.9 413.9V413.8C201.2 394.3 200.6 386.5 200 376.9V376.8C213.5 372.6 224.4 374.9 233.9 383.3Z" fill="#B6B1AE"/>
<path d="M370.9 359.3C361.9 359.3 349.9 363.8 343.6 369.5" stroke="#2D1F04" stroke-width="2.7806" stroke-miterlimit="10" stroke-linecap="round" stroke-linejoin="round"/>
<path d="M384.6 389.1C382.2 383.1 366.3 365.1 358.3 362.5" stroke="#2D1F04" stroke-width="2.7806" stroke-miterlimit="10" stroke-linecap="round" stroke-linejoin="round"/>
<path d="M327.9 39.6001C365.5 53.6001 357.4 103.6 346.1 126.2C345.1 128.2 343.7 130.5 343.4 132.7C343.2 133.8 343.9 135.7 343.4 136.7C343.2 137.1 342.2 135.6 342.1 136.1C341.8 138.2 342.1 140.6 342.3 142.6C342.4 143.4 343.3 145.5 342.7 144.9C342.5 144.7 342 143 341.2 143.2C340.8 143.3 341.2 154.5 341.4 155.6" stroke="#2D1F04" stroke-width="2.7806" stroke-miterlimit="10" stroke-linecap="round" stroke-linejoin="round"/>
<path d="M325.4 146.1V152" stroke="#9D7B51" stroke-width="4.1072" stroke-miterlimit="10" stroke-linecap="round" stroke-linejoin="round"/>
<path d="M319 149.1V155" stroke="#9D7B51" stroke-width="4.1072" stroke-miterlimit="10" stroke-linecap="round" stroke-linejoin="round"/>
<path opacity="0.23" d="M332.2 41.8C331.1 41.3 330 40.9 328.8 40.5C329 40.5 329.2 40.6 329.4 40.6C329.5 40.6 329.5 40.6 329.6 40.6C332.3 40.6 336.4 37.9 335.7 34.9C335.7 34.8 335.7 34.7 335.6 34.6C335.5 34.2 334.4 35.6 331.6 35.6C330 35.6 328.7 35.1 328 34.8C327.5 34.6 327.3 34.4 327.3 34.3C327.1 33.8 328.2 33.7 328.8 33.7C335.9 32.9 339.6 24.5 332 19.4C331.9 19.3 331.8 19.2 331.6 19.2C331.4 19 330.5 22.4 328.4 23.9C326.2 25.5 323.1 25.9 321.9 25.6C321.6 25.5 321.4 25.3 321.4 25.1C326.5 21.7 325.1 14.2 319.6 10.9C319.5 10.9 319.5 10.8 319.4 10.8C318.3 10.2 317.1 9.7 315.7 9.5C315.6 9.5 317 17.5 308 19.5C307.8 19.5 307.6 19.6 307.4 19.6C308.9 13.4 306.8 8.8 302.5 5.4C301.9 5 301.4 4.6 300.8 4.3C300.7 4.2 300.6 4.2 300.5 4.1C293 -0.100004 284.4 3.9 284.2 4C283.3 4.4 289.1 6.6 289.4 12C289.6 16.1 286.8 18.4 284.1 19C283.7 19.1 283.2 19.1 282.7 19.2C282.4 19.2 282.2 19.2 282.2 19.2C282.2 19.2 284.2 15.2 281.1 13.2C280.5 12.9 279.9 12.7 279 12.6C278.9 12.6 279.7 15.1 278.6 16.8C277.5 18.4 274.5 19.1 273.1 19.6C265.5 22.4 261.3 24 254.2 27.6C221.8 44.2 206 75.3 201.3 124.4C204.4 124.5 207.6 124.9 210.9 125.3C213.3 125.6 215 127 215.9 128.9C217.2 129.2 218.5 129.5 219.7 129.9C218.5 108.2 219 84.7 225.1 72.4C237.1 48.1 252.2 38.4 280.9 35C286.7 34.3 289.1 34.5 291.3 33.5C292.4 33 294.5 30.4 296.6 31.6C295.5 32.7 295.3 34.1 298.1 34.8C300.7 35.4 306.7 32.5 304.1 28.7C309.6 30.2 308.3 34.4 307.1 35.7C311.7 36.8 315.7 36 315.3 33.8C317.3 34.3 318.3 37.3 317.1 38.3C322.5 40.1 329 42.6 334.6 45.3C335.7 45.2 336.8 45.1 337.7 45C337.8 45 337.9 45 338 45C336.3 43.8 334.3 42.7 332.2 41.8Z" fill="#3F2719"/>
<path d="M329.3 40.1999C331.7 41.3999 337.2 38.3999 336 34.6999C335.9 34.2999 334.8 35.6999 332 35.6999C329.3 35.6999 327.7 34.4999 327.6 34.2999C327.4 33.7999 328.5 33.6999 329.1 33.6999C336.3 32.8999 340 24.1999 332 19.1999C331.8 19.0999 330.9 22.3999 328.8 23.8999C326 25.8999 321.8 26.0999 321.8 25.0999C327.9 21.0999 324.7 10.9999 316.1 9.3999C315.9 9.3999 317.6 17.8999 307.9 19.5999" stroke="#2D1F04" stroke-width="2.7806" stroke-miterlimit="10" stroke-linecap="round" stroke-linejoin="round"/>
<path d="M346.5 80.1C344.4 71.5 340.4 64 333.4 60.3C324 55.3 318 56.3 309.4 54.4C305.8 53.6 303 52.2 302.4 48.6C302.1 47 302.7 45.3 304.3 43C301.1 43 297.6 44.3 295 46.4C289.7 50.7 282.9 51.6 276.7 51.4C254.8 50.7 240.9 53.3 230.3 72.5C227.9 76.8 224.3 86.7 226.7 97.7C230.3 113.8 232.2 120.5 249.6 132.5C270.3 146.8 313.2 153.9 334.6 126.9C344.7 114.2 350.5 96.3 346.5 80.1Z" fill="#FFDBAF"/>
<path d="M306.5 87.5C313.7 83.9 319.6 102.1 319 107.4C317 125.4 290.7 124.4 278.6 118.3C261 109.5 282.5 81.2 295.1 86.2" fill="#9D7B51"/>
<path d="M346.5 80.1998C349.8 93.5998 346 108.7 343 110.9C340.7 112.6 328.5 105.3 320.4 93.0998C311.8 80.3998 310.9 74.5998 313.2 72.3998C323.8 70.7998 332.3 66.0998 336.6 62.2998C339.8 63.0998 344.2 70.9998 346.5 80.1998Z" fill="#9D7B51"/>
<path d="M365.6 226C364.8 243.6 365.9 269.5 360.4 288.3C309.3 310.4 249.4 300.3 218.9 288.5C218.9 288.3 218.9 288.1 218.9 287.8C219 282.7 217.7 276.6 215.4 270.8C214.8 269.3 214.2 267.9 213.5 266.4C206.1 250.8 200.9 237.7 199.5 225.9C197.2 207.9 197.9 207.1 198.6 199.5C199.1 194.2 199.6 146.5 200.4 133.2L240 154C253.7 160.9 309.3 183.6 331 154.3C333.4 151 337.3 146.1 341.8 140.4C341.9 141.3 342 142.2 342 143C342.1 143.8 343 145.9 342.4 145.3C342.2 145.1 341.7 143.4 340.9 143.6C340.4 143.7 341.8 155.3 344.9 162.5C344.6 160.1 350.9 166.9 356.7 180.3C365.9 201.3 366.5 214.8 365.6 226Z" fill="#FF0F0F"/>
<path d="M365.6 226.2C364.8 243.8 365.9 269.7 360.4 288.5C309.2 310.6 249.4 300.5 218.9 288.7C218.9 288.5 218.9 288.3 218.9 288C219.1 282.9 217.7 276.9 215.4 271C214.8 269.5 214.2 268.1 213.5 266.6C206.1 251 200.9 237.9 199.5 226.1C197.2 208.1 197.9 207.3 198.6 199.7C198.7 198.7 198.8 196.2 198.9 192.7C206.5 193 213.9 192.5 218.1 191.8C225.2 190.5 235.2 185.2 235.4 179.4C235.6 173.7 238.8 168.2 244.4 167.6C251.5 166.8 255 169.9 256.9 178.5C258.2 184.2 275.7 187.7 297.3 187.7C319.6 187.7 334 186.2 333.3 181C332.6 175.7 331.8 172.5 333.5 168.2C334.8 164.8 343 162 351.2 169.9C352.9 172.7 354.8 176.3 356.6 180.6C365.8 201.4 366.4 214.9 365.6 226.2Z" fill="#FFDB1F"/>
<path d="M278.5 69.6998C279.6 102.3 236.7 121.8 231.7 114.5C228.5 109.8 222 90.3998 229.1 74.8998C232.8 66.8998 240.6 57.6998 244.5 57.5998C251.4 57.4998 258.1 63.7998 265.2 66.3998C271.8 68.8998 278.1 67.0998 278.5 69.6998Z" fill="#9D7B51"/>
<path d="M298.7 88.7998C300 93.5998 300.3 104.8 298.4 108.2C293.3 108.2 286.6 108.4 286.3 102.5" stroke="#2D1F04" stroke-width="3.2369" stroke-miterlimit="10" stroke-linecap="round" stroke-linejoin="round"/>
<path d="M310.8 87.4999C310.9 84.7999 305.6 82.2999 298.9 81.9999C292.2 81.6999 286.6 83.5999 286.5 86.2999C286.4 88.9999 291.7 91.4999 298.4 91.7999C305.1 92.1999 310.7 90.1999 310.8 87.4999Z" fill="#251707"/>
<path d="M298.3 108.1C301.3 108.6 302.9 108.6 304.8 108.4" stroke="#2D1F04" stroke-width="3.2369" stroke-miterlimit="10" stroke-linecap="round" stroke-linejoin="round"/>
<path d="M354.5 301.3C367.7 279.9 364.8 248 365.8 225.6C366.3 211.9 366.1 200.8 357 180C351.1 166.5 344.8 159.6 345.2 162.3" stroke="#2D1F04" stroke-width="2.7806" stroke-miterlimit="10" stroke-linecap="round" stroke-linejoin="round"/>
<path opacity="0.23" d="M365.8 224.2C349.1 228.2 310.7 222.9 310.1 223.1C309.5 223.3 303.9 224.5 289.8 228.4C275.7 232.3 259.2 236 250.6 236.2C247.4 236.2 243.3 233.4 238.8 228.4C234.2 223.3 230.2 217.1 226.4 210.3C234.5 222.2 244.3 227.4 247.1 228.1C250.6 229 251.7 229 256.6 228.6C272.4 227.2 305.4 217.1 309 216.5C311.5 216.1 356 222.5 366.1 214.9" fill="#3F2719"/>
<path opacity="0.23" d="M364.1 270C363.7 275.4 361.3 286.3 360.4 288.3C336.6 299.2 298.3 305.1 260.5 299.1C247.3 297 231.7 293.6 218.9 288.5C219.1 283.4 218 276.4 215.7 270.5C218.4 269 220.8 268 223.1 267.2C226.6 266 241.5 251.5 244.8 248.5C254.7 239.3 281.4 238.5 292.1 238.5C276.4 242.2 256.2 246.2 252 253.4C248.6 259.3 247 267.7 247.3 274.7C247.6 284.2 249.9 286.6 265.1 288.1C270.7 288.7 282.4 288.6 287.6 288.4C297.8 287.9 306.8 286.9 306.7 276.7C307 267.5 314.8 263.1 313.2 250.7C316.3 261.6 312.3 267.7 311.1 273.6C310.3 277.8 311.8 281.4 312.9 283.1C315 286.5 338.2 284.3 348.2 281.4C356.3 279 361.3 275.5 364.1 270Z" fill="#3F2719"/>
<path opacity="0.32" d="M320.7 248.3C321.3 243.7 324.3 240.2 330.9 240.1C334.8 240 351.1 239.4 354.8 241.3C357.4 242.6 359.2 244.8 359.5 248.4C359.9 253.4 359.6 262.4 354.4 262C340.5 261.1 324.7 260.5 322.5 256.8C320.2 253.2 320.4 250.1 320.7 248.3Z" fill="white"/>
<path opacity="0.32" d="M353.3 265.3C349.4 264.6 332.1 263.8 328.9 263.5C325.7 263.2 321.7 264 320.7 267C319.7 270 319.5 275.2 319.7 277.5C319.9 279.7 324.2 281 329.2 280.4C334.2 279.7 350.8 277.8 353.4 276.5C356 275.2 357.3 274.3 358.5 270.4C359.2 267.8 358.1 266.1 353.3 265.3Z" fill="white"/>
<path opacity="0.32" d="M305.5 250C305.6 255.8 305.3 262.4 296.8 263.6C288.3 264.9 268.3 266 260.9 265.9C253.5 265.8 252.3 262.3 252.2 258.2C252.1 254.2 255.1 249.4 264.5 246.5C274.1 243.5 286.5 243.2 293.1 242.9C296.2 242.7 299.7 242.8 301.9 243.9C304.5 245.2 305.4 247.7 305.5 250Z" fill="white"/>
<path opacity="0.32" d="M297.1 267.5C291.1 267.1 270.7 267.4 264.6 268.6C258.6 269.8 254.1 271 254.1 276.4C254.1 280.5 254.7 283 261.1 283.7C267.6 284.5 290 285.4 295.2 284C300.4 282.5 301.8 280.1 302.1 275.2C302.5 270.3 302.1 267.8 297.1 267.5Z" fill="white"/>
<path opacity="0.32" d="M339.2 185.2C320.6 187.9 316.1 189.2 314.5 195.2C313.6 198.5 313.5 203.2 313.9 207C314.4 210.9 324.7 213.6 339.5 213.8C352.6 214 357.5 212.8 358.3 208C359.3 202.2 358 196.8 355.6 191.2C352 183.1 344.7 184.4 339.2 185.2Z" fill="white"/>
<path opacity="0.32" d="M300.1 198.8C299.8 194.8 297.5 192.5 291.2 191.8C284.9 191 259.7 190.1 251 190.3C242.3 190.5 236.5 191.9 235.6 199.1C234.7 206.3 238.5 217.8 240.4 220.4C242.3 223 255.8 224.4 272.4 220C289 215.6 300.1 212.5 300.3 207.1C300.4 204.8 300.2 200.9 300.1 198.8Z" fill="white"/>
<path d="M198.8 199.2C198.1 206.7 199.1 217 199.7 225.6C200.6 237.5 206.3 250.5 213.7 266.1C217.6 274.2 219.8 283.4 218.8 290.1C217.6 298.3 212 310.9 208.7 337.7C207.7 345.8 199.6 360.7 199.4 371.6C199.2 383.6 200.9 388.1 205.9 414C218.3 396.7 226.7 389.2 233.8 383.3C237.1 380.6 239.2 379.2 242.8 371.7C248.2 360.6 246.6 349.9 252.6 340.4C259.8 329 266.5 322.9 281.4 315.4C288.3 317.3 299.5 318.6 310.6 318.7C328.4 328.4 330.1 349.1 327.3 354.9C324.6 360.3 337 366.6 348.5 371.8C363.3 378.4 379.3 386.6 381.7 388.5C385 391.1 387 389.2 385.7 383.2C383.4 372.6 373.6 361.5 363.7 352.2C370.9 337.5 364.7 315.5 354.5 301.4" stroke="#2D1F04" stroke-width="2.7806" stroke-miterlimit="10" stroke-linecap="round" stroke-linejoin="round"/>
<path d="M307.7 20.7C309.2 14.5 307.2 8.79996 302.9 5.39996C295 -0.800039 284.8 3.89996 284.6 3.99996C283.7 4.39996 289.6 6.59996 289.8 12C290 16.1 287.2 18.4 284.5 19C283.9 19.1 282.6 19.2 282.6 19.2C282.6 19.2 285.5 13.4 279 12.3C278.9 12.3 279.7 14.8 278.6 16.5C277.5 18.1 274.5 18.8 273.1 19.3C265.5 22.1 259.6 24.6 252.6 28.3C223.6 43.7 204.7 70.6 201.3 129.1" stroke="#2D1F04" stroke-width="2.7806" stroke-miterlimit="10" stroke-linecap="round" stroke-linejoin="round"/>
<path d="M200 376.8C213.6 372.6 223.3 373.8 232.9 382.2" stroke="#2D1F04" stroke-width="2.7806" stroke-miterlimit="10" stroke-linecap="round" stroke-linejoin="round"/>
<path d="M206 413.9C210.8 392.2 213.2 384.8 217.7 375" stroke="#2D1F04" stroke-width="2.7806" stroke-miterlimit="10" stroke-linecap="round" stroke-linejoin="round"/>
<path d="M241.6 73.5999C243.1 83.6999 268.2 85.2999 268.1 71.9999C268.1 66.6999 262 64.4999 253.1 64.1999C244.1 63.9999 240.7 67.7999 241.6 73.5999Z" fill="white"/>
<path d="M319.9 79.0999C321.3 89.1999 343.7 91.0999 343.4 77.8999C343.3 72.5999 337.9 70.2999 330 69.8999C322 69.4999 319.1 73.2999 319.9 79.0999Z" fill="white"/>
<path d="M241.5 71.6002C244.7 67.7002 250.2 67.2002 257 68.4002C262.9 69.5002 266.3 71.3002 268 73.5002C268.1 73.0002 268.1 72.5002 268.1 72.0002C268.1 66.7002 262 64.5002 253.1 64.2002C245.2 64.0002 241.6 66.9002 241.5 71.6002Z" fill="#D3E5EA"/>
<path d="M319.8 78.0001C322.3 73.2001 327.1 72.6001 333.1 73.8001C339.4 75.1001 342.3 77.7001 343 80.9001C343.3 80.0001 343.4 79.0001 343.4 77.8001C343.3 72.5001 337.9 70.2001 330 69.8001C322.6 69.5001 319.5 72.8001 319.8 78.0001Z" fill="#D3E5EA"/>
<path d="M241.6 73.5999C243.1 83.6999 268.2 85.2999 268.1 71.9999C268.1 66.6999 262 64.4999 253.1 64.1999C244.1 63.9999 240.7 67.7999 241.6 73.5999Z" stroke="#2D1F04" stroke-width="3.2369" stroke-miterlimit="10" stroke-linecap="round" stroke-linejoin="round"/>
<path d="M319.9 79.0999C321.3 89.1999 343.7 91.0999 343.4 77.8999C343.3 72.5999 337.9 70.2999 330 69.8999C322 69.4999 319.1 73.2999 319.9 79.0999Z" stroke="#2D1F04" stroke-width="3.2369" stroke-miterlimit="10" stroke-linecap="round" stroke-linejoin="round"/>
<path d="M258.8 72.5C258.9 70.3 257.1 68.4 254.9 68.4C252.7 68.3 250.8 70.1 250.8 72.3C250.7 74.5 252.5 76.4 254.7 76.4C256.9 76.5 258.7 74.8 258.8 72.5Z" fill="#2D1F04"/>
<path d="M334.8 78.5C334.9 76.3 333.1 74.4 330.9 74.4C328.7 74.3 326.8 76.1 326.8 78.3C326.7 80.5 328.5 82.4 330.7 82.4C332.8 82.5 334.7 80.7 334.8 78.5Z" fill="#2D1F04"/>
<path d="M284.4 70.8002C284.4 70.8002 276.8 69.6002 268.3 67.4002C257.8 64.6002 252.1 59.3002 247.3 59.2002C242.4 59.1002 228.3 64.3002 228.3 64.3002" stroke="#2D1F04" stroke-width="8.0658" stroke-miterlimit="10" stroke-linecap="round" stroke-linejoin="round"/>
<path d="M410.2 203.7C408.6 215.7 404.4 223.9 382.3 228.2C366.4 231.2 309.5 231.5 290.6 230.3L271.7 223.6C278.8 198.1 335 190.2 342.9 186.3C338 179.8 335.7 174.3 333.4 166.8C328.7 151 331.7 137.2 346.2 126.3C358.2 116.1 386.3 117.3 395.9 140.7C398.4 146.9 399.1 151.4 400.4 157.5C402.1 165.4 405.7 170.7 407.4 176.6C410.4 188 411 197.7 410.2 203.7Z" fill="#CAA77A"/>
<path d="M407.2 176.7C405.5 170.7 402 165.4 400.2 157.6C398.9 151.5 398.2 146.9 395.7 140.8C386.1 117.4 358 116.2 346 126.4C331.6 137.3 328.6 151.2 333.2 166.9C335.3 173.6 337.4 178.8 341.4 184.5C363.4 177.3 384.5 174.6 407.2 176.7Z" fill="#FF0F0F"/>
<path d="M242.9 207.5C245.3 204 247.7 200.5 250 196.9C259.9 197.9 269.9 198.7 279.9 198.8C282.1 202.6 284.3 206.3 286.6 210C284.2 213.8 281.9 217.5 279.5 221.2C269.5 221.2 259.4 220.3 249.3 219.3C247.2 215.4 245.1 211.5 242.9 207.5Z" fill="#866CC7"/>
<path opacity="0.23" d="M286.6 210.1C284.3 213.9 281.9 217.6 279.5 221.3C269.4 221.3 259.4 220.4 249.3 219.4C248.8 218.4 248.2 217.4 247.7 216.5C256.9 217.4 266.1 218.1 275.3 218.2C277.6 214.5 280 210.8 282.4 207C280.8 204.3 279.2 201.7 277.6 199C278.4 199 279.2 199 279.9 199C282.1 202.6 284.4 206.4 286.6 210.1Z" fill="#3F2719"/>
<path d="M255.1 212C254.6 212 254.1 211.9 253.6 211.9C253.7 210.1 253.7 208.2 253.8 206.4C253.2 206.8 252.6 207.2 251.9 207.3C251.9 206.9 251.9 206.4 251.9 206C252.3 205.9 252.7 205.7 253.2 205.4C253.7 205.1 254 204.7 254.2 204.3C254.6 204.3 255 204.4 255.4 204.4C255.3 206.8 255.2 209.4 255.1 212ZM260.6 212.4C260.7 209.8 260.8 207.3 260.9 204.7C261.4 204.7 261.9 204.8 262.4 204.8C262.4 206.2 262.3 207.5 262.3 208.9C262.9 208.3 263.5 207.7 264.1 207.1C264.7 207.1 265.3 207.2 265.9 207.2C265.2 207.8 264.6 208.5 263.9 209.1C264.5 210.3 265.2 211.5 265.8 212.8C265.3 212.8 264.7 212.7 264.2 212.7C263.8 211.8 263.3 211 262.9 210.1C262.7 210.3 262.4 210.5 262.2 210.8C262.2 211.4 262.2 212 262.1 212.6C261.5 212.5 261.1 212.5 260.6 212.4ZM266.1 207.3C266.6 207.3 267.1 207.4 267.7 207.4C268.1 208.7 268.5 210.1 268.9 211.4C269.4 210.1 269.9 208.8 270.3 207.5C270.8 207.5 271.3 207.5 271.8 207.6C271.1 209.4 270.4 211.1 269.7 212.9C269.6 213.2 269.4 213.5 269.3 213.8C269.2 214.1 269 214.4 268.9 214.5C268.8 214.7 268.6 214.8 268.5 214.9C268.3 215 268.2 215.1 267.9 215.1C267.7 215.1 267.4 215.2 267.1 215.1C266.8 215.1 266.5 215 266.3 215C266.3 214.6 266.2 214.2 266.2 213.8C266.4 213.9 266.6 213.9 266.8 213.9C267.1 213.9 267.4 213.8 267.6 213.6C267.8 213.4 267.9 213.2 268 212.9C267.3 211.1 266.7 209.2 266.1 207.3ZM276.2 213.3C276.2 213 276.2 212.7 276.2 212.5C276 212.8 275.7 213 275.4 213.2C275.1 213.4 274.7 213.4 274.3 213.4C273.9 213.4 273.6 213.3 273.3 213.1C273 212.9 272.8 212.7 272.7 212.4C272.6 212.1 272.5 211.7 272.5 211.2C272.5 210 272.6 208.9 272.6 207.7C273.1 207.7 273.6 207.7 274.1 207.7C274.1 208.6 274 209.4 274 210.3C274 211.1 274 211.6 274 211.7C274 211.9 274.1 212 274.3 212.1C274.4 212.2 274.6 212.3 274.8 212.3C275.1 212.3 275.3 212.2 275.5 212.1C275.7 212 275.8 211.8 275.9 211.6C276 211.4 276 210.9 276.1 210.1C276.1 209.3 276.2 208.5 276.2 207.8C276.7 207.8 277.2 207.8 277.7 207.8C277.6 209.7 277.6 211.5 277.5 213.4C277.1 213.3 276.6 213.3 276.2 213.3Z" fill="#2D1F04"/>
<path opacity="0.54" d="M251.5 199.4L251.3 199.8L246.1 207.3L252.3 201.2C259.9 201.5 266.9 201.6 274.7 201.3C266.6 200.8 259.2 200.1 251.5 199.4Z" fill="white"/>
<path d="M242.9 207.5C245.3 204 247.7 200.5 250 196.9C259.9 197.9 269.9 198.7 279.9 198.8C282.1 202.6 284.3 206.3 286.6 210C284.2 213.8 281.9 217.5 279.5 221.2C269.5 221.2 259.4 220.3 249.3 219.3C247.2 215.4 245.1 211.5 242.9 207.5Z" stroke="#2D1F04" stroke-width="2.5" stroke-miterlimit="10" stroke-linecap="round" stroke-linejoin="round"/>
<path d="M300.5 231.2C296.4 231.1 292.9 231 290.1 230.8L271.2 224.1C273.1 217.1 278.8 211.4 286.1 206.8C293.9 210.4 299.3 217.5 300.5 231.2Z" fill="#B6B1AE"/>
<path d="M333.3 166.9C335.6 174.4 337.9 179.9 342.8 186.4C334.9 190.3 278.7 198.1 271.6 223.7L290.5 230.4C309.4 231.6 366.4 231.3 382.2 228.3C404.3 224.1 408.5 215.8 410.1 203.8C410.9 197.6 410.5 189.5 407.9 179.4C406.3 172.9 400.7 160.6 400.2 157.6C399.5 153.5 399 145.2 392.2 134.6C381.5 118.1 355.5 114.4 341.6 130.1" stroke="#2D1F04" stroke-width="2.7806" stroke-miterlimit="10" stroke-linecap="round" stroke-linejoin="round"/>
<path d="M264 264.9C253.8 268.8 193.4 267 183.3 253.4C179.9 248.8 175 240.4 171.1 223.5C168.6 212.8 170 202.2 169.2 197.4C168.3 191.8 166.3 186 165.7 180.4C162 145.1 190 128.1 209.1 128.1C225.2 128.4 234.7 137.6 240.1 152.4C242.5 165.5 229.3 185.3 228.5 189.8C228.3 191.3 229.7 197.8 229.4 204.4C229 213.6 227 223.6 227.4 225.4C228.2 228.4 231.8 233.9 238.2 239.1C244.6 244.3 264.8 235.4 269.6 240.9C272.4 244.1 277 249.3 275.3 254.5C274.2 258.4 270.5 262.4 264 264.9Z" fill="#CAA77A"/>
<path d="M251.1 158.9C255.3 165.6 253.1 170.4 253.6 175.5C254.6 185.7 240.8 188.3 239.1 176.8C237.4 165.3 220.3 157.8 220.3 157.8L239.9 154L251.1 158.9Z" fill="#FFDB1F"/>
<path d="M251.1 158.9C254.9 166.7 253.1 170.4 253.6 175.5C254.8 185.7 240.8 188.3 239.1 176.8C237.4 165.3 220.3 157.8 220.3 157.8" stroke="#2D1F04" stroke-width="2.7806" stroke-miterlimit="10" stroke-linecap="round" stroke-linejoin="round"/>
<path d="M229.5 203.2C229.6 197 228.3 191.3 228.5 189.9C229.3 185.4 242.5 165.6 240.1 152.5C234.7 137.7 225.2 128.4 209.1 128.2C189.9 128.2 162 145.2 165.7 180.5C166.3 186.1 168.2 191.9 169.2 197.5C169.3 197.9 169.3 198.4 169.4 198.8C189 194.6 209.9 197.5 229.5 203.2Z" fill="#FF0F0F"/>
<path opacity="0.23" d="M410.7 203.7C409.1 215.7 404.9 223.9 382.8 228.2C366.9 231.2 310 231.5 291.1 230.3L285 228.1C303.4 214.2 352.4 220.8 367 222.7C382.8 224.7 389.1 219.1 389.2 217.3C389.3 216.1 378.4 216.2 375.4 212.3C371 206.6 372.8 199.4 369.3 184.3C365.8 169.2 357.5 159.2 349.5 152.3C343.4 147.1 340 141.8 337.9 135C340.1 131.9 343 129 346.7 126.2C347.8 125.2 349.1 124.4 350.5 123.7C352.8 122.5 355.4 121.5 358.2 120.9C358.8 120.8 359.3 120.7 359.9 120.6C361.6 120.3 363.4 120.2 365.2 120.2C365.8 120.2 366.4 120.2 367 120.2C367.6 120.2 368.2 120.3 368.8 120.3C379.7 121.3 391 127.5 396.4 140.6C398.9 146.8 399.6 151.3 400.9 157.5C401.3 159.5 401.9 161.3 402.5 163C402.7 163.4 402.8 163.8 403 164.2C404.7 168.7 406.8 172.5 407.9 176.6C410.8 188 411.5 197.7 410.7 203.7Z" fill="#3F2719"/>
<path d="M269.7 240.9C267.2 238.1 260.7 239 254.1 239.9C256.1 248.7 251.7 255 254.4 266.3C259.4 265.8 261.9 265.6 263.9 264.8C270.4 262.3 274.1 258.3 275.3 254.5C277.1 249.3 272.5 244.1 269.7 240.9Z" fill="#B6B1AE"/>
<path opacity="0.23" d="M275.2 255.1C274.9 255.9 274.5 256.6 274 257.4C273.7 257.9 273.3 258.3 272.9 258.8C272.5 259.3 272.1 259.7 271.6 260.2C270.7 261.1 269.5 262 268.3 262.7C267.6 263.1 267 263.5 266.2 263.8C265.5 264.2 264.7 264.5 263.9 264.8C263.4 265 262.8 265.2 262.2 265.3C260.3 265.7 257.6 266.1 254.4 266.3C234 267.7 191.5 264.5 183.2 253.3C179.8 248.7 174.8 240.3 171 223.4C168.7 213.6 169.7 203.9 169.2 198.6C169.2 198.4 169.2 198.2 169.1 198C169.1 197.8 169 197.5 169 197.3C168.9 196.6 168.8 195.9 168.6 195.2C168.5 194.5 168.3 193.8 168.2 193.1C167.9 191.7 167.5 190.3 167.2 188.9C166.5 186.1 165.9 183.2 165.6 180.4C161.9 145.1 189.9 128.1 209 128.1C214 128.2 218.4 129.2 222.3 130.9C224.5 138.3 219.4 148.4 216.1 157.8C210.7 173.3 209.5 187.7 210.7 212.6C211.6 230.4 211.3 235.8 200.7 236.1C194.4 236.2 188.4 235.2 191.6 245.3C193.8 252 197.2 252 206.2 254.3C224.9 259.1 267.4 260.8 274.8 247.6C274.9 247.9 275 248.3 275.2 248.7C275.5 249.6 275.7 250.6 276 251.7C276.3 252.9 276 254.1 275.2 255.1Z" fill="#3F2719"/>
<path d="M209.1 128.1C189.9 128.1 162.6 146.3 165.7 180.4C166.2 185.7 168.3 192.3 169.2 197.4C170.1 202.7 168.6 212.5 171.2 224C174.4 238.4 180.3 249.3 183.3 253.3C193.4 266.9 253.7 268.5 264 264.8C271.7 262 274.4 257.9 275.3 253.3C276.2 248.7 272.2 243.6 269.8 240.8C264.9 235.3 244.7 244.2 238.4 239C232 233.8 228.4 228.4 227.6 225.3C227.2 223.5 229.2 213.5 229.6 204.3C229.9 197.7 228.4 191.2 228.7 189.7C229 187.8 231.4 183.4 234 178" stroke="#2D1F04" stroke-width="2.7806" stroke-miterlimit="10" stroke-linecap="round" stroke-linejoin="round"/>
<path d="M241.6 262.4L234.8 248.2L309 212.9L315.8 227.1L241.6 262.4Z" fill="#2D1F04"/>
<path d="M299.1 226.2L299.9 219L306 223L305.3 230.3L299.1 226.2Z" fill="#D2D2D2"/>
<path d="M290.5 230.3L291.3 223L297.4 227.1L296.7 234.4L290.5 230.3Z" fill="#D2D2D2"/>
<path d="M281.9 234.4L282.7 227.1L288.8 231.2L288.1 238.5L281.9 234.4Z" fill="#D2D2D2"/>
<path d="M273.4 238.5L274.1 231.2L280.2 235.2L279.5 242.6L273.4 238.5Z" fill="#D2D2D2"/>
<path d="M264.8 242.6L265.5 235.3L271.6 239.3L270.9 246.6L264.8 242.6Z" fill="#D2D2D2"/>
<path d="M256.2 246.6L256.9 239.4L263.1 243.4L262.3 250.7L256.2 246.6Z" fill="#D2D2D2"/>
<path d="M247.6 250.7L248.3 243.4L254.5 247.5L253.7 254.8L247.6 250.7Z" fill="#D2D2D2"/>
<path d="M238.1 255.2L238.6 246.3L245.8 251.6L245.4 260.5L238.1 255.2Z" fill="#D2D2D2"/>
<path d="M307.828 230.649L301.071 216.478L234.73 248.112L241.487 262.283L307.828 230.649Z" stroke="#2D1F04" stroke-width="2.7806" stroke-miterlimit="10" stroke-linecap="round" stroke-linejoin="round"/>
<path d="M315.4 228.4L309.1 231.4C308.4 231.7 306.9 229.7 305.4 226.9C304.9 226 304.4 225 303.9 224C303.1 222.3 302.4 220.6 301.9 219.2C301.2 217.2 300.9 215.6 301.4 215.4L307.7 212.4C308.1 212.2 309.1 213.4 310.2 215.3C311 216.6 311.9 218.3 312.7 219.9C313.2 220.9 313.6 221.9 314 222.9C315.2 225.7 315.9 228.1 315.4 228.4Z" fill="#D2D2D2"/>
<path opacity="0.57" d="M312.7 219.8L303.9 224C303.1 222.3 302.4 220.6 301.9 219.2L310.2 215.2C311 216.5 311.9 218.1 312.7 219.8Z" fill="white"/>
<path opacity="0.23" d="M315.4 228.4L309.1 231.4C308.4 231.7 306.9 229.7 305.4 226.9L314 222.8C315.2 225.7 315.9 228.1 315.4 228.4Z" fill="#3F2719"/>
<path d="M315.4 228.4L309.1 231.4C307.3 232.3 299.6 216.2 301.4 215.3L307.7 212.3C309.2 211.5 316.9 227.6 315.4 228.4Z" stroke="#2D1F04" stroke-width="2.7806" stroke-miterlimit="10" stroke-linecap="round" stroke-linejoin="round"/>
<path d="M17.1 346.8C12.7 347.1 -1.70002 339.9 2.69998 339C86.4 322 233.8 247.4 233.8 247.4L241.5 263.5C241.5 263.5 89.3 341.1 17.1 346.8Z" fill="#D2D2D2"/>
<path d="M241.5 263.5C241.5 263.5 240.6 264 238.8 264.9L232.9 252.5C232.9 252.5 88 326.9 4.19999 343.9C2.29999 341.7 1.19999 339.3 2.79999 338.9C86.5 321.9 233.9 247.3 233.9 247.3L241.5 263.5Z" fill="url(#paint0_linear_281_1370)"/>
<path d="M245.1 277.8C242.6 272.5 235.9 266 232.1 258.1C228.4 250.3 227.6 241.1 225.1 235.9C222.5 230.4 228.8 227.4 231.4 232.9C233.9 238.1 240.4 244.5 244.2 252.4C248 260.3 248.9 269.6 251.4 274.8C253.9 279.9 247.6 282.9 245.1 277.8Z" fill="#D2D2D2"/>
<path opacity="0.57" d="M240.7 254C237 246.2 226.3 230 227.4 229.9C228.8 229.8 230.5 230.6 231.5 232.8C234 238 240.5 244.5 244.3 252.3C248.1 260.2 249 269.5 251.5 274.7C252.4 276.5 252.1 278 251.4 279C250.6 280.1 244.4 261.9 240.7 254Z" fill="white"/>
<path opacity="0.23" d="M245.1 277.8C242.6 272.5 235.9 266 232.1 258.1C228.4 250.3 227.6 241.1 225.1 235.9C223.4 232.3 225.5 229.8 227.9 230C227.2 231.1 227 232.7 227.9 234.6C230.4 239.8 231.2 249 234.9 256.8C238.7 264.7 245.4 271.2 247.9 276.5C248.7 278.3 250.1 279.1 251.3 279.1C250 281 246.7 281.1 245.1 277.8Z" fill="#3F2719"/>
<path d="M245.1 277.8C242.6 272.5 235.9 266 232.1 258.1C228.4 250.3 227.6 241.1 225.1 235.9C222.5 230.4 228.8 227.4 231.4 232.9C233.9 238.1 240.4 244.5 244.2 252.4C248 260.3 248.9 269.6 251.4 274.8C253.9 279.9 247.6 282.9 245.1 277.8Z" stroke="#2D1F04" stroke-width="2.7806" stroke-miterlimit="10" stroke-linecap="round" stroke-linejoin="round"/>
<path d="M2.59999 339C5.99999 341.4 13 344.3 15.9 344.1C79.3 339.1 204.5 278.6 233.9 264C234.4 264.9 235 265.7 235.6 266.5C207 280.7 80.8 341.8 17.1 346.8C12.7 347.1 -1.50001 340 2.59999 339Z" fill="url(#paint1_linear_281_1370)"/>
<path d="M236.9 265.8C210.9 278.7 81.9 341.7 17.2 346.8C12.8 347.1 -1.60001 339.9 2.79999 339C77.8 323.8 203.8 262.4 229.3 249.7" stroke="#2D1F04" stroke-width="2.7806" stroke-miterlimit="10" stroke-linecap="round" stroke-linejoin="round"/>
<path opacity="0.23" d="M365.4 229.9C365.4 230.4 365.3 232 365.3 232.3C357.2 232.4 343.9 234 332.6 234.3C322.9 234.6 314.8 233.5 311.9 233.9C305.8 234.6 300.6 238.8 290.6 238.8L307.7 230.9C325.2 231.1 348.7 230.9 365.4 229.9Z" fill="#3F2719"/>
<path d="M297.9 239C296.1 240.9 278.7 245.8 271.7 226.2C270.4 223 273.8 218.7 282.1 219.5C284.2 216.1 286.7 212.8 291.4 213.3C296.1 213.8 293.3 218.2 294.8 223.7C296.3 229.2 301.9 234.9 297.9 239Z" fill="#B6B1AE"/>
<path d="M288 213.6C289 213.3 290.1 213.1 291.4 213.3C296.1 213.8 293.3 218.2 294.8 223.7C296.3 229.2 302 234.9 298 239C296.2 240.9 278.8 245.8 271.8 226.2C271 223.8 272.6 219.4 276.6 214.8" stroke="#2D1F04" stroke-width="2.7806" stroke-miterlimit="10" stroke-linecap="round" stroke-linejoin="round"/>
<path d="M282.1 219.5C283 228.3 285.9 233.2 298 239" stroke="#2D1F04" stroke-width="2.7806" stroke-miterlimit="10" stroke-linecap="round" stroke-linejoin="round"/>
<path d="M251.9 235.4C253.8 233.9 270.1 231.6 275.3 248.8C275.6 249.7 275.8 250.7 276.1 251.8C276.9 255.2 272.9 258.9 264.9 257C262.4 260.1 259.4 263 254.8 261.8C250.2 260.6 253.6 256.6 252.9 251C252.2 245.4 247.3 238.9 251.9 235.4Z" fill="#B6B1AE"/>
<path d="M261.1 260.7C259.4 261.9 257.3 262.5 254.7 261.8C250.1 260.6 253.5 256.6 252.8 251C252.1 245.4 247.2 238.9 251.8 235.4C253.8 233.9 270.4 231.5 275.4 249.4C275.6 250.2 275.7 255.2 272.3 259.5" stroke="#2D1F04" stroke-width="2.7806" stroke-miterlimit="10" stroke-linecap="round" stroke-linejoin="round"/>
<path d="M264.8 257C265.1 248.1 263 242.9 251.8 235.5" stroke="#2D1F04" stroke-width="2.7806" stroke-miterlimit="10" stroke-linecap="round" stroke-linejoin="round"/>
<path d="M286.5 206.4C291.3 208.7 295.3 212.3 297.8 218.1" stroke="#2D1F04" stroke-width="2.7806" stroke-miterlimit="10" stroke-linecap="round" stroke-linejoin="round"/>
<path d="M254.5 261.7C254.6 263.4 254.4 264.8 255.2 266.3" stroke="#2D1F04" stroke-width="2.7806" stroke-miterlimit="10" stroke-linecap="round" stroke-linejoin="round"/>
<path d="M211 125.3C215.8 126 218 130.9 216.3 136.4C214.6 141.9 205.8 172.4 207.3 196.6C208.8 220.8 210 229.4 200.3 230.7C190.6 232 177.3 233.3 172.1 236.5C166.9 239.7 163.2 234.7 162.7 226.7C162.3 218.8 158.5 166.3 169 144.9C179.5 123.5 194.4 122.9 211 125.3Z" fill="#FFDB1F"/>
<path opacity="0.23" d="M172.1 236.4C173.5 235.5 175.6 234.8 178 234.2C174.3 222.4 172.6 210.8 174.3 202.1C173.8 202.2 172.8 202.6 171.8 203C171.4 193.6 174.5 185.6 177.2 176C177.1 176 175.7 176.4 174.4 176.9C174.4 170 176.1 160.7 180.2 153C180.2 153 178.7 153.4 178 153.6C179.9 141.6 184.7 129.9 194.4 124.7C184.6 125.9 175.8 131 169 145C167.6 147.8 165.6 151.4 164.7 155.1C164.3 156.6 164.9 157.8 164.6 159.4C163.4 165.6 161.6 172.7 161.2 179.8C161.1 180.9 162.1 181.7 162.1 182.7C161.7 190.4 160.4 197.2 160.5 204C160.5 205 161.8 206.7 161.9 207.7C162.1 217.1 162.6 224.3 162.8 226.9C163.2 234.6 167 239.6 172.1 236.4Z" fill="#3F2719"/>
<path d="M211 125.3C215.8 126 218 130.9 216.3 136.4C215.7 138.4 214.1 143.8 212.4 151C212.2 152.1 211.1 152.9 210.9 154C209.7 159.4 209.3 165.9 208.5 172.3C208.4 173.4 207.2 174.6 207.1 175.7C206.3 182.7 207 189.8 207.4 196.5C207.5 197.6 206.7 198.8 206.8 199.9C208.2 221.6 209.7 229.4 200.5 230.6C190.8 231.9 177.5 233.2 172.3 236.4C167.1 239.6 163.4 234.6 162.9 226.6C162.8 224 162.3 216.8 162 207.4C162 206.5 160.6 204.7 160.6 203.7C160.5 196.9 161.8 190.1 162.2 182.4C162.3 181.3 161.3 180.5 161.3 179.5C161.7 172.5 163.5 165.3 164.7 159.1C165 157.5 164.4 156.3 164.8 154.8C165.7 151.1 167.8 147.5 169.1 144.7C179.5 123.5 194.4 122.9 211 125.3Z" stroke="#2D1F04" stroke-width="2.7806" stroke-miterlimit="10" stroke-linecap="round" stroke-linejoin="round"/>
<path d="M212.4 151C203.6 149.2 176.5 150.8 164.7 159.3" stroke="#2D1F04" stroke-width="2.7806" stroke-miterlimit="10" stroke-linecap="round" stroke-linejoin="round"/>
<path d="M208.4 172.3C192.4 171.9 174.4 174.6 162 182.5" stroke="#2D1F04" stroke-width="2.7806" stroke-miterlimit="10" stroke-linecap="round" stroke-linejoin="round"/>
<path d="M207.3 196.6C194.8 196.4 174.5 200.2 161.9 207.5" stroke="#2D1F04" stroke-width="2.7806" stroke-miterlimit="10" stroke-linecap="round" stroke-linejoin="round"/>
<path opacity="0.32" d="M207.8 129.1C210.3 129.6 211.5 132.5 210.5 136.7C209.5 140.8 207.2 144 202.5 144.6C197.2 145.2 190.5 145.3 187.9 145C185.3 144.7 184.5 141.9 186.5 137.1C188.5 132.3 193 129.5 196.3 129C199.5 128.6 205.3 128.6 207.8 129.1Z" fill="white"/>
<path opacity="0.32" d="M200.5 155.3C202.8 155.7 204.1 157 203.9 160.6C203.8 164.2 202.9 165.9 200.9 166.3C198.9 166.7 189.2 167.8 185.9 168C182.6 168.2 181.2 167 181.4 163.8C181.7 160.6 182.1 157.9 185.7 156.5C189.2 155.1 197.1 154.7 200.5 155.3Z" fill="white"/>
<path opacity="0.32" d="M200.8 184C201.2 189.5 198.4 191.7 190 192.8C183.6 193.7 179.7 193.4 179.2 187.1C178.9 182.9 180.4 179.9 188.2 178.8C198.8 177.3 200.4 179.9 200.8 184Z" fill="white"/>
<path opacity="0.32" d="M201.5 208.8C201.9 210.8 202 213 201.6 215.6C201 219.4 198.9 220.9 194.3 221.4C189.7 221.9 181.9 223.1 180.1 219.9C178.4 216.9 177.7 212.6 178.9 208.2C179.9 204.6 185.2 204.1 189.8 203.6C194.4 203.1 200.2 203.3 201.5 208.8Z" fill="white"/>
<path d="M351.3 121.9C346.1 124.2 341.5 128 341.6 131.4C341.7 134.8 344.6 138 349.8 144.1C356.6 152 367.2 164.8 371.6 178.6C374.8 188.6 376.6 197.3 377.4 204.6C377.9 208.7 381.6 211.6 385.7 211C395.1 209.6 406 206.7 414.3 208.5C418.5 209.4 421.9 204.8 421.5 200.6C419.5 179.8 413.6 160.1 402.8 141.7C391.9 123.2 371.3 113.1 351.3 121.9Z" fill="#FFDB1F"/>
<path d="M398.3 135.3C384.3 133.3 365.6 137.7 353.2 148.2" stroke="#2D1F04" stroke-width="2.7806" stroke-miterlimit="10" stroke-linecap="round" stroke-linejoin="round"/>
<path d="M419 184.3C408.8 181.4 389.1 182.6 374.3 188.3" stroke="#2D1F04" stroke-width="2.7806" stroke-miterlimit="10" stroke-linecap="round" stroke-linejoin="round"/>
<path d="M410.2 157C395.5 155.4 380.7 157 366.3 165.3" stroke="#2D1F04" stroke-width="2.7806" stroke-miterlimit="10" stroke-linecap="round" stroke-linejoin="round"/>
<path d="M351.3 121.9C346.1 124.2 341.5 128 341.6 131.4C341.7 134.8 344.6 138 349.8 144.1C350.9 145.3 352 146.7 353.2 148.2C354.1 149.3 355.9 149.7 356.8 150.9C360.1 155 362.6 160.5 365.6 165.6C366.3 166.8 368 167.3 368.6 168.6C370.2 171.7 373.5 185.2 374.3 188.3C374.6 189.5 375.7 190.6 376 191.7C377 196.4 376.9 200.8 377.4 204.6C377.9 208.7 381.6 211.6 385.7 211C395.1 209.6 406 206.7 414.3 208.5C418.5 209.4 421.9 204.8 421.5 200.6C421 195.1 420.2 189.6 419.1 184.3C418.8 183 419.8 181.7 419.5 180.5C417.6 172.5 413.9 164.8 410.6 157.1C410.1 156 410.4 154.3 409.9 153.2C408 149.1 402.9 141.2 398.4 135.4C397.6 134.4 398.2 132.9 397.4 132C385.8 119.6 367.6 114.7 351.3 121.9Z" stroke="#2D1F04" stroke-width="2.7806" stroke-miterlimit="10" stroke-linecap="round" stroke-linejoin="round"/>
<path opacity="0.23" d="M414.2 208.5C412.1 208 411 208 409.8 207.9C410.1 201.6 408.9 191.8 406.7 182.7C406.6 182.3 404.5 183.1 404.5 182.7C403.4 173.7 401.3 164.3 398.3 156.5C398 155.7 396.4 157.2 396.2 156.5C392.3 145.1 386.9 136.7 385.6 135.4C385.4 135.1 384 135.7 383.7 135.4C376.4 127.6 367.2 122.7 355.6 120.3C374.2 114.6 392.6 124.6 402.7 141.8C413.5 160.1 419.4 179.9 421.4 200.7C421.9 204.9 418.4 209.4 414.2 208.5Z" fill="#3F2719"/>
<path opacity="0.32" d="M348.4 129.8C346.8 131.1 347 133.6 349.2 136.1C351.4 138.7 354.2 140.1 357.7 138.8C361.6 137.3 366.4 135 368.2 133.8C370 132.6 369.5 130.4 366.3 127.7C363.2 125 358.9 124.7 356.4 125.5C354.1 126.4 350 128.5 348.4 129.8Z" fill="white"/>
<path opacity="0.32" d="M364.5 146.1C362.8 147.3 362.3 148.9 363.9 151.7C365.5 154.5 366.9 155.6 368.7 155.1C370.5 154.6 378.9 151.6 381.7 150.5C384.5 149.4 385.2 147.8 383.6 145.4C382 143 380.6 141 377 141.3C373.6 141.5 367 144.3 364.5 146.1Z" fill="white"/>
<path opacity="0.32" d="M375.1 171.4C376.9 176.4 377.8 177.7 387.7 175.6C393.7 174.3 397.1 172.6 395.3 166.9C394.1 163 391.9 160.9 384.5 162.6C374.6 164.9 373.1 165.9 375.1 171.4Z" fill="white"/>
<path opacity="0.32" d="M382.2 194.5C382.2 196.2 382.5 197.1 383.3 199C384.5 202 386.5 202.7 390.3 202.3C394.1 201.9 400.6 201.3 401.4 198.4C402.2 195.7 402.1 193 400.3 189.7C398.8 187 394.4 187.6 390.7 188C387 188.4 382.1 189.9 382.2 194.5Z" fill="white"/>
<path d="M254.2 171.3C255.4 173 256.3 175.4 257 178.5C258.3 184.2 275.8 187.7 297.4 187.7C319.7 187.7 334.1 186.2 333.4 181C332.7 175.7 331.9 172.5 333.6 168.2" stroke="#2D1F04" stroke-width="2.7806" stroke-miterlimit="10" stroke-linecap="round" stroke-linejoin="round"/>
<path d="M229.5 187.2C232.8 185 235.3 182.3 235.4 179.4C235.5 176.8 236.2 174.2 237.6 172.1" stroke="#2D1F04" stroke-width="2.7806" stroke-miterlimit="10" stroke-linecap="round" stroke-linejoin="round"/>
<path d="M341.7 130.1C331.1 140.4 329.2 152.9 333.4 166.9C335.5 173.6 337.6 178.8 341.6 184.5C348.4 182.4 357 179.9 363.9 178.7" stroke="#2D1F04" stroke-width="2.7806" stroke-miterlimit="10" stroke-linecap="round" stroke-linejoin="round"/>
<path d="M216.2 199.9C220.7 200.8 225.1 202 229.5 203.2C229.6 197 228.3 191.3 228.5 189.9C229.3 185.4 242.5 165.6 240.1 152.5C235.5 139.9 228.9 131.3 216.8 128.9" stroke="#2D1F04" stroke-width="2.7806" stroke-miterlimit="10" stroke-linecap="round" stroke-linejoin="round"/>
<path d="M241.5 154.8C257.7 162.6 277.4 169.1 297.9 169.3C318.4 169.5 328.6 157.3 331 154.4" stroke="#2D1F04" stroke-width="2.7806" stroke-miterlimit="10" stroke-linecap="round" stroke-linejoin="round"/>
<path d="M248.5 173.3C249.5 174 250.1 175.1 250.1 176.3C250.1 178.3 248.5 180 246.4 180C245.6 180 244.9 179.8 244.4 179.4" stroke="#2D1F04" stroke-width="2.7806" stroke-miterlimit="10" stroke-linecap="round" stroke-linejoin="round"/>
<path d="M349 60C335.4 62.8 308.2 62.5 284 58.2C259.7 53.9 242.5 47.9 240.7 36.2C240.4 31.2 254.8 23.3 254.8 28.1C254.3 37.1 274.9 41.1 302 44C316.9 45.6 333.2 46.1 339.6 44.6C342.9 43.9 353.8 59.2 349 60Z" fill="#FFDB1F"/>
<path opacity="0.23" d="M240.7 36.2002C242.5 47.9002 259.7 53.9002 284 58.2002C308.1 62.5002 335.4 62.8002 349 60.0002C350.7 59.7002 350.4 57.7002 349.3 55.2002C334.8 58.9002 310 58.2002 288 54.3002C263.7 50.0002 243.8 41.4002 245 30.7002C245 30.5002 245 30.4002 245 30.2002C242.5 32.1002 240.6 34.4002 240.7 36.2002Z" fill="#3F2719"/>
<path d="M349 60C335.4 62.8 308.2 62.5 284 58.2C259.7 53.9 242.5 47.9 240.7 36.2C240.4 31.2 254.8 23.3 254.8 28.1C254.3 37.1 274.9 41.1 302 44C316.9 45.6 333.2 46.1 339.6 44.6C342.9 43.9 353.8 59.2 349 60Z" stroke="#2D1F04" stroke-width="2.7806" stroke-miterlimit="10" stroke-linecap="round" stroke-linejoin="round"/>
<path opacity="0.23" d="M385.6 389C384.9 390 383.5 389.9 381.8 388.5C379.4 386.6 363.4 378.5 348.6 371.8C346.9 371 345.3 370.3 343.6 369.5C333.8 364.8 325.1 359.5 327.4 355C328.2 353.4 328.6 350.6 328.4 347.2C329 347.4 329.4 347.4 329.3 346.8C325.4 322.8 326 310.6 330.5 303.8C332.3 304.9 334.5 305.5 336.6 305.5C336.8 305.5 337.1 305.5 337.3 305.5C338.3 305.4 339.3 305.2 340.3 304.8C343.7 321.5 345 334 340.8 345.3C338.3 351.9 337.4 356.9 351.4 364.4C363 370.6 376.2 377.6 385.6 389Z" fill="#3F2719"/>
<path d="M267.9 298.3C265.2 306.2 262.9 320.4 261.4 333.1C260.9 337.5 264.1 341.5 268.6 341.9C281.1 343 301.6 341.7 313 340.2C316 339.8 318.6 337.7 319.5 334.7C322.9 323.3 323.3 309.6 321.4 298.3C310.8 300.2 283.2 301.2 267.9 298.3Z" fill="#FFDB1F"/>
<path d="M360.9 287C365.8 296 368.4 303.1 370.2 311.7C371.1 316.3 369 321 364.8 323.1C356.6 327.4 346 330.4 338 332.2C335.4 332.8 332.9 330.9 332.7 328.3C331.7 316.9 328.8 307.9 321.5 298.3C336.3 296.1 347.5 293.1 360.9 287Z" fill="#FFDB1F"/>
<path d="M219.3 284.5C213.8 293.1 208.5 302.6 205.2 316C204.2 320.1 205.7 324.4 209.1 326.9C216.6 332.3 227.7 337.4 240.6 339.7C243.4 340.2 246.2 338.5 246.9 335.8C251.1 320.9 260.6 306.2 267.9 298.3C256.8 297 235.6 294.7 219.3 284.5Z" fill="#FFDB1F"/>
<path d="M219.3 284.5C217.7 286.9 215.3 288.6 213.8 291.3C213.4 292 213.9 293.6 213.5 294.3C211.6 297.9 208.7 301.1 207.1 305.4C206.8 306.2 207.5 307.9 207.2 308.8C206.4 311.1 205.7 313.5 205.1 316.1C204.1 320.2 205.6 324.5 209 327C216.5 332.4 227.6 337.5 240.5 339.8C243.3 340.3 244.8 338.6 245.6 335.9C246.2 333.9 246.8 331.9 247.5 330C247.8 329.1 249.5 328.2 249.8 327.3C251.8 322.4 252.8 317.5 255.4 313.2C255.9 312.4 257.7 311.8 258.2 311.1C261.4 306 264.8 301.7 267.7 298.4C256.8 297 235.6 294.7 219.3 284.5Z" stroke="#2D1F04" stroke-width="2.7806" stroke-miterlimit="10" stroke-linecap="round" stroke-linejoin="round"/>
<path d="M360.9 287C362.5 290 364.7 292.1 365.9 294.8C366.1 295.2 365.4 296.3 365.6 296.7C367.1 300.4 369.5 303.3 370.4 307C370.5 307.4 369.4 308.4 369.5 308.8C369.7 309.8 370 310.8 370.2 311.8C371.1 316.4 369 321.1 364.8 323.2C356.6 327.5 346 330.5 338 332.3C335.4 332.9 333.9 331 333.7 328.4C333.6 327.5 333.5 326.6 333.4 325.7C333.3 324.9 332.2 324.2 332.1 323.5C331.5 319.6 331.4 315.8 330.1 312.3C329.8 311.5 328.7 310.7 328.3 309.9C326.6 306.1 324.4 302.3 321.5 298.5C336.3 296.1 347.5 293.1 360.9 287Z" stroke="#2D1F04" stroke-width="2.7806" stroke-miterlimit="10" stroke-linecap="round" stroke-linejoin="round"/>
<path d="M267.9 298.3C266.8 301.7 265.7 306.3 264.7 311.5C264.5 312.4 265.6 313.7 265.5 314.6C264.7 318.9 262.8 323 262.2 327.5C262.1 328.5 263.1 330 263 330.9C262.9 331.8 262.8 332.7 262.7 333.6C262.2 338 264.3 341.5 268.7 341.9C281.2 343 301.7 341.7 313.1 340.2C316.1 339.8 318.7 337.7 319.6 334.7C320.5 331.8 321.1 328.7 321.6 325.6C321.7 324.7 323.1 323.9 323.2 323C323.7 319 322.6 314.9 322.6 311C322.6 310.1 323.8 309.2 323.7 308.3C323.5 304.9 321.9 301.5 321.4 298.4C310.8 300.2 283.2 301.2 267.9 298.3Z" stroke="#2D1F04" stroke-width="2.7806" stroke-miterlimit="10" stroke-linecap="round" stroke-linejoin="round"/>
<path d="M328.2 309.7C338.2 308.5 356.5 303.1 365.5 296.7" stroke="#2D1F04" stroke-width="2.7806" stroke-miterlimit="10" stroke-linecap="round" stroke-linejoin="round"/>
<path d="M332 323.3C343.4 321.3 362.4 314.3 369.5 308.8" stroke="#2D1F04" stroke-width="2.7806" stroke-miterlimit="10" stroke-linecap="round" stroke-linejoin="round"/>
<path d="M213.5 294.3C223.4 302.6 238.3 307.7 258.4 310.9" stroke="#2D1F04" stroke-width="2.7806" stroke-miterlimit="10" stroke-linecap="round" stroke-linejoin="round"/>
<path d="M207.2 308.8C215.6 317.8 231.3 322.8 249.9 327.1" stroke="#2D1F04" stroke-width="2.7806" stroke-miterlimit="10" stroke-linecap="round" stroke-linejoin="round"/>
<path d="M264.7 311.4C277.4 314.9 307.2 314.3 322.6 310.9" stroke="#2D1F04" stroke-width="2.7806" stroke-miterlimit="10" stroke-linecap="round" stroke-linejoin="round"/>
<path d="M262.1 327.4C274.8 331.2 309 330.2 321.5 325.5" stroke="#2D1F04" stroke-width="2.7806" stroke-miterlimit="10" stroke-linecap="round" stroke-linejoin="round"/>
<path opacity="0.23" d="M319 335.6C317.9 337.8 315.6 339.4 313.1 339.7C301.7 341.2 281.1 342.5 268.7 341.4C264.3 341 261 337 261.6 332.6C263.1 320 265.4 305.7 268.1 297.8C270.7 298.3 273.6 298.7 276.7 299C276 301.9 272.9 304.7 272.1 308.7C271.9 309.8 274 311.8 273.8 313C273.1 317.1 270.5 320.6 270.4 324.3C270.3 325.8 272.4 327.9 272.5 329.2C272.8 333.8 274 337.1 277 337.5C284.6 338.4 310.5 338.9 319 335.6Z" fill="#3F2719"/>
<path opacity="0.23" d="M364.8 322.8C362.6 324 360.2 325 357.7 326C360.2 323 360.6 318.9 359.6 314.3C359.5 313.6 360.7 311.7 360.4 311C359.5 307.7 356.6 305.5 355 302.2C354.6 301.5 355.5 300 355.1 299.3C353.3 296.1 350.3 294 348.6 291.6C352.6 290.2 356.7 288.6 360.9 286.6C365.8 295.7 368.4 302.7 370.2 311.3C371.1 316 368.9 320.7 364.8 322.8Z" fill="#3F2719"/>
<path opacity="0.23" d="M217.4 331.6C214.3 330 211.6 328.3 209.2 326.6C205.8 324.1 204.2 319.8 205.2 315.7C208.5 302.3 213.8 292.8 219.3 284.2C222.8 286.4 226.5 288.2 230.2 289.7C228.7 291.9 225.5 293.7 223.7 297.2C223.3 298 224.2 299.9 223.8 300.7C221.9 304.6 218.6 307.4 217.3 311.6C216.9 312.7 218 315.3 217.7 316.4C216.1 322.1 215.7 327.6 217.4 331.6Z" fill="#3F2719"/>
<path d="M318.3 299.3C280.4 301.5 238.1 297.7 214.5 288.2C212.7 287.5 211.8 285.4 212.5 283.6C213.2 281.8 215.3 280.9 217.1 281.6C250.1 294.8 324.6 296.6 364.6 285.1C366.5 284.6 368.5 285.7 369 287.5C369.5 289.4 368.4 291.4 366.6 291.9C353.2 295.8 336.2 298.2 318.3 299.3Z" fill="#866CC7"/>
<path d="M297.5 303.7C270.9 305.3 242.8 302.4 215.3 295.2C213.4 294.7 212.3 292.8 212.8 290.9C213.3 289 215.2 287.9 217.1 288.4C293.8 308.4 348.7 289.1 363.4 280C365.1 279 367.3 279.5 368.3 281.1C369.3 282.8 368.8 285 367.2 286C358 291.7 338.8 299 312.5 302.3C307.6 302.9 302.6 303.4 297.5 303.7Z" fill="#866CC7"/>
<path d="M337.3 305.5C337.1 305.5 336.9 305.5 336.6 305.5C331.7 305.4 326.3 302.3 325.9 296.8C325.6 293.1 329.2 286.6 333.9 286.1C334.1 286.1 334.3 286.1 334.5 286.1C335 285.6 335.6 285.2 336.3 284.8C340 282.6 344.3 283 347.2 285.9C350.2 288.8 350.8 293.3 348.7 297.1C346.5 301 342.1 305.2 337.3 305.5ZM338.7 294.9C338.8 295.6 339 296.4 339.3 297.4C340.5 296.5 341.7 295.1 342.5 293.6C343.2 292.4 342.8 291.4 342.3 290.9C342.2 290.8 342.2 290.8 342.1 290.7C342.3 291.9 341.9 293.1 341 293.9C340.3 294.6 339.5 294.9 338.7 294.9Z" fill="#866CC7"/>
<path d="M319.8 344.6C316.4 344.4 316.2 343 316.2 341C316.2 314.8 320.5 300.5 330.9 293.4C332.5 292.3 334.7 292.7 335.9 294.3C337 295.9 336.6 298.1 335 299.3C326.8 305 324.4 316.3 329.4 346.9C329.7 348.7 325.3 344.9 319.8 344.6Z" fill="#866CC7"/>
<path d="M351.4 332.9C351.2 308.6 348.6 300.9 339.8 297.7C338 297 337 295 337.7 293.1C338.4 291.3 340.4 290.3 342.3 291C355.4 295.9 359.6 308.7 363 332.3C363.3 334.2 363.2 335.5 360 336.3C354.3 337.8 354.3 341.6 352.9 341.1C351.4 340.5 351.4 335.8 351.4 332.9Z" fill="#866CC7"/>
<path d="M326.2 298.7C323.6 298.9 320.9 299.1 318.3 299.3C280.4 301.5 238.1 297.7 214.5 288.2C212.7 287.5 211.8 285.4 212.5 283.6C213.2 281.8 215.3 280.9 217.1 281.6C241.5 291.3 288.3 294.8 327.3 291.4" stroke="#2D1F04" stroke-width="2.7806" stroke-miterlimit="10" stroke-linecap="round" stroke-linejoin="round"/>
<path d="M349.2 288.6C354.8 287.6 359.9 286.4 364.7 285.1C366.6 284.6 368.6 285.7 369.1 287.5C369.6 289.4 368.5 291.4 366.7 291.9C361.4 293.4 356 294.6 349.7 295.7" stroke="#2D1F04" stroke-width="2.7806" stroke-miterlimit="10" stroke-linecap="round" stroke-linejoin="round"/>
<path d="M348.2 286.8C355.1 284.3 360.3 281.9 363.5 279.9C365.2 278.9 367.4 279.4 368.4 281C369.3 282.5 369 284.4 367.7 285.5" stroke="#2D1F04" stroke-width="2.7806" stroke-miterlimit="10" stroke-linecap="round" stroke-linejoin="round"/>
<path d="M324 300.5C320.3 301.2 316.5 301.8 312.4 302.3C307.5 302.9 302.5 303.4 297.4 303.7C270.8 305.3 242.7 302.4 215.2 295.2C213.3 294.7 212.2 292.8 212.7 290.9C213 289.7 213.9 288.8 214.9 288.5" stroke="#2D1F04" stroke-width="2.7806" stroke-miterlimit="10" stroke-linecap="round" stroke-linejoin="round"/>
<path d="M337.3 305.5C337.1 305.5 336.9 305.5 336.6 305.5C331.7 305.4 326.3 302.3 325.9 296.8C325.6 293.1 329.2 286.6 333.9 286.1C334.1 286.1 334.3 286.1 334.5 286.1C335 285.6 335.6 285.2 336.3 284.8C340 282.6 344.3 283 347.2 285.9C350.2 288.8 350.8 293.3 348.7 297.1C346.5 301 342.1 305.2 337.3 305.5Z" stroke="#2D1F04" stroke-width="2.7806" stroke-miterlimit="10" stroke-linecap="round" stroke-linejoin="round"/>
<path d="M334.5 286.1C338.4 285.9 345.6 289 342.4 296.9" stroke="#2D1F04" stroke-width="2.7806" stroke-miterlimit="10" stroke-linecap="round" stroke-linejoin="round"/>
<path d="M334.9 292.6C330.6 296.3 331.3 305.7 343.8 302.8" stroke="#2D1F04" stroke-width="2.7806" stroke-miterlimit="10" stroke-linecap="round" stroke-linejoin="round"/>
<path d="M330.5 303.8C326.1 310.6 325.4 322.8 329.4 346.8C329.7 348.7 325.4 344.8 319.9 344.6C316.5 344.4 316.3 343 316.3 341C316.3 319.4 319.2 305.9 326.1 297.8" stroke="#2D1F04" stroke-width="2.7806" stroke-miterlimit="10" stroke-linecap="round" stroke-linejoin="round"/>
<path d="M349.5 295.2C357.1 301.8 360.3 313.7 363 332.2C363.3 334.1 363.2 335.4 360 336.2C354.3 337.7 354.3 341.5 352.9 341C351.4 340.4 351.5 335.8 351.4 332.9C351.2 314.9 349.8 306.1 345.5 301.3" stroke="#2D1F04" stroke-width="2.7806" stroke-miterlimit="10" stroke-linecap="round" stroke-linejoin="round"/>
<path d="M309.9 72.8998C309.9 72.8998 317.6 71.7998 325.1 69.9998C331.8 68.3998 338.7 64.2998 342.4 63.8998C346.5 63.4998 358.5 67.7998 358.5 67.7998" stroke="#2D1F04" stroke-width="8.0658" stroke-miterlimit="10" stroke-linecap="round" stroke-linejoin="round"/>
<path opacity="0.23" d="M216.5 357.1C213.6 366 198 375.1 210.5 408.1C209.1 409.9 207.6 411.9 206.1 414C201.8 392 200.1 387 199.6 377.1C199.5 375.3 199.6 373.4 199.6 371.6C199.8 360.7 207.9 345.8 208.9 337.7C209.4 334.1 209.8 330.8 210.4 327.7C213.4 329.8 214.4 330.6 218.3 332.3C218.1 343.3 218.8 350 216.5 357.1Z" fill="#3F2719"/>
<path opacity="0.23" d="M266.4 303.5C264.7 310.4 263.2 319.5 262 328.3C258.6 331.7 255.8 335.6 252.8 340.4C252.5 340.8 252.3 341.3 252 341.7C253.6 330.6 257.9 322.4 259.9 317C261 313.9 259.4 312.7 256.9 313.1C259.1 309.4 261.4 306.1 263.6 303.2C264.6 303.4 265.5 303.5 266.4 303.5Z" fill="#3F2719"/>
<path opacity="0.23" d="M299.2 236.8C299 237.6 298.6 238.3 298 238.9C296.2 240.8 278.8 245.7 271.8 226.1C271.5 225.5 271.5 224.8 271.6 224.1L271.4 224C272 221.8 273 219.7 274.3 217.7C276.3 225.4 284.5 235.7 299.2 236.8Z" fill="#3F2719"/>
<path d="M294 46.2002C296.1 46.5002 298.2 46.7002 300.3 47.0002C302 47.3002 302.5 48.4002 302.5 49.5002C302.5 51.0002 301.7 51.9002 300.3 52.3002C300.2 52.3002 300.1 52.3002 300 52.4002C301.6 53.5002 301.7 55.3002 302.6 57.0002C301.4 56.9002 300.3 56.8002 299.2 56.6002C298.8 55.6002 298.3 54.5002 297.9 53.4002C297.7 52.8002 297.3 52.4002 296.5 52.4002C296.4 53.7002 296.2 54.9002 296.1 56.2002C295.1 56.1002 294.1 56.0002 293.2 55.9002C293.3 52.7002 293.7 49.6002 294 46.2002ZM296.8 48.6002C296.7 49.3002 296.7 49.9002 296.6 50.6002C297.3 50.6002 297.9 50.7002 298.5 50.7002C299.1 50.7002 299.4 50.4002 299.4 49.9002C299.5 49.4002 299.2 49.0002 298.6 48.9002C298 48.6002 297.4 48.6002 296.8 48.6002Z" fill="black"/>
<path d="M311.6 50.8001C310.6 50.8001 309.8 50.7001 308.8 50.7001C308.7 49.9001 308.3 49.4001 307.5 49.3001C307 49.2001 306.5 49.3001 306.3 49.9001C306.3 50.4001 306.6 50.6001 307 50.7001C307.7 51.0001 308.4 51.2001 309.1 51.5001C309.5 51.6001 309.8 51.8001 310.2 52.0001C312.4 53.3001 312 56.0001 310.2 57.1001C309.6 57.4001 308.9 57.6001 308.2 57.7001C307.1 57.8001 306 57.6001 304.9 57.2001C303.5 56.7001 302.7 55.4001 302.8 53.8001C303.7 53.8001 304.6 53.9001 305.6 53.9001C305.6 54.1001 305.7 54.3001 305.7 54.5001C306 55.5001 306.9 56.0001 307.8 55.7001C308.2 55.6001 308.5 55.3001 308.6 54.9001C308.7 54.5001 308.4 54.2001 308.1 54.0001C307.8 53.8001 307.5 53.7001 307.1 53.6001C306.4 53.3001 305.7 53.1001 305.1 52.7001C303.9 52.0001 303.3 51.0001 303.5 50.0001C303.7 48.8001 304.6 47.9001 306 47.7001C307.3 47.5001 308.6 47.6001 309.8 48.1001C311.1 48.5001 311.6 49.4001 311.6 50.8001Z" fill="black"/>
<path d="M238.4 250.6C238.9 251.6 239.3 252.6 239.7 253.5C240 254.3 239.7 254.8 239.2 255.1C238.6 255.5 237.9 255.4 237.4 254.9L237.3 254.8C237.3 255.8 236.5 256.3 236 257.1C235.7 256.5 235.5 256 235.2 255.5C235.5 255 235.9 254.6 236.2 254.1C236.4 253.8 236.5 253.6 236.2 253.2C235.6 253.5 235 253.8 234.4 254C234.2 253.5 234 253.1 233.7 252.6C235.4 252 236.9 251.3 238.4 250.6ZM238.1 252.4C237.8 252.5 237.5 252.7 237.2 252.8C237.4 253.1 237.5 253.4 237.7 253.7C237.9 253.9 238.1 254 238.3 253.9C238.5 253.8 238.6 253.6 238.5 253.3C238.4 253 238.3 252.7 238.1 252.4Z" fill="#6E6E6E"/>
<path d="M241.1 259.5C240.9 259.1 240.6 258.7 240.4 258.3C240.7 258 240.8 257.7 240.7 257.3C240.6 257.1 240.4 256.9 240.1 256.9C239.9 257 239.9 257.2 239.9 257.4C240 257.8 240.1 258.1 240.1 258.5C240.1 258.7 240.2 258.9 240.2 259.1C240.2 260.4 238.9 260.9 238 260.4C237.7 260.2 237.4 260 237.2 259.7C236.9 259.2 236.6 258.7 236.5 258.1C236.4 257.4 236.7 256.7 237.4 256.3C237.6 256.7 237.8 257.1 238.1 257.5C238 257.6 238 257.6 237.9 257.7C237.6 258.1 237.6 258.6 237.9 259C238.1 259.2 238.3 259.2 238.5 259.1C238.7 259 238.8 258.8 238.8 258.6C238.8 258.4 238.8 258.2 238.7 258.1C238.6 257.7 238.6 257.4 238.5 257C238.5 256.3 238.7 255.8 239.3 255.6C239.9 255.4 240.5 255.5 241 256.1C241.4 256.6 241.7 257.2 241.8 257.9C241.9 258.6 241.7 259.1 241.1 259.5Z" fill="#6E6E6E"/>
</g>
<defs>
<linearGradient id="paint0_linear_281_1370" x1="5.03313" y1="346.894" x2="237.127" y2="255.818" gradientUnits="userSpaceOnUse">
<stop stop-color="white" stop-opacity="0"/>
<stop offset="1" stop-color="white" stop-opacity="0.8"/>
</linearGradient>
<linearGradient id="paint1_linear_281_1370" x1="144.951" y1="231.806" x2="92.8802" y2="374.439" gradientUnits="userSpaceOnUse">
<stop stop-color="white" stop-opacity="0"/>
<stop offset="1" stop-color="white" stop-opacity="0.8"/>
</linearGradient>
<clipPath id="clip0_281_1370">
<rect width="423" height="416" fill="white"/>
</clipPath>
</defs>
</svg>
