<svg width="320" height="387" viewBox="0 0 320 387" fill="none" xmlns="http://www.w3.org/2000/svg">
<g clip-path="url(#clip0_281_1167)">
<path d="M179.27 78.5803L219.82 16.0103L241.58 92.7103" fill="#D1A1CF"/>
<path d="M201.46 43.6003L196.52 51.0803C209.82 52.2193 222.524 57.1048 233.16 65.1703L230.32 55.1703C222.592 47.674 212.226 43.5182 201.46 43.6003Z" fill="white"/>
<path d="M191.61 59.6001L186.67 67.2201C186.67 67.2201 214.55 67.7601 240.12 88.4401L235.88 75.7601C217.43 61.6301 191.61 59.6001 191.61 59.6001Z" fill="white"/>
<path d="M212.23 28.7L208.42 35.23C208.42 35.23 217.63 35.12 227.08 44.65L224.81 36.21C219.22 28.33 212.23 28.7 212.23 28.7Z" fill="white"/>
<g style="mix-blend-mode:multiply" opacity="0.23">
<path d="M218.36 88.7401L219.41 14.8901L241.17 91.6001" fill="#3F2719"/>
</g>
<path d="M179.26 78.6601L219.81 16.0801L241.57 92.7801" stroke="#2D1F04" stroke-width="2.62" stroke-linecap="round" stroke-linejoin="round"/>
<path d="M99.64 361.1C99.64 361.1 101.29 371.72 108.77 372.87C121.6 372.05 117.77 365.59 136.63 366.1C155.49 366.61 176.74 358.82 178.06 356.8C180.88 354.38 185.87 372.69 187.92 378.22C192.17 389.67 197.99 382.38 216.09 379.03C232.35 376.03 255.87 382.69 274.09 373.77C292.31 364.85 302.3 361.24 311.75 347.67C315.35 320.89 312.87 290 310.56 275.78C295.2 257.51 218.78 249.52 218.78 249.52L148 272.1L130.12 330.27C130.12 330.27 123.22 336.46 115.56 336.75C107.9 337.04 104.43 332.55 104.43 332.55L99.64 361.1Z" fill="#CAA77A"/>
<g style="mix-blend-mode:multiply" opacity="0.23">
<path d="M99.84 360.89C99.84 360.89 101.49 371.51 108.98 372.66C121.8 371.84 117.98 365.38 136.83 365.89C155.68 366.4 176.94 358.61 178.26 356.59C179 356 201 345 195.86 345C167.51 345 147.55 319.39 147.55 319.39C147.55 319.39 123.42 336.26 115.76 336.56C108.1 336.86 104.63 332.36 104.63 332.36L99.84 360.89Z" fill="#3F2719"/>
</g>
<g style="mix-blend-mode:multiply" opacity="0.23">
<path d="M207.86 370.68C199.71 373.76 195.42 372 195.36 362.78C195.6 363.93 186.71 375.24 186.99 376.15C191.78 391.73 199.16 382.25 215.99 379.15C232.25 376.15 255.76 382.81 273.99 373.89C292.22 364.97 302.21 361.36 311.66 347.79C314.56 326.15 313.5 301.85 311.77 285.79C311.77 285.79 296.11 296.39 289.77 297.52C307.38 378.93 254.65 353 207.86 370.68Z" fill="#3F2719"/>
</g>
<path d="M165.36 215.12C184.82 222.25 247.06 221.12 265.98 212.68C274.31 208.96 293.84 204.19 289.61 184.86C287.85 176.86 279.81 152.47 274.51 137.86C268.12 120.25 252.05 97.13 236.19 88.54C220.33 79.95 216.27 80.54 207.43 78.69C205.38 78.25 197.52 76.76 199.29 72.52C195.15 72.3 193.78 77.89 193.78 77.89C193.78 77.89 184.12 77.73 182.06 69.96C181.21 71.4351 180.723 73.0914 180.639 74.792C180.556 76.4926 180.878 78.1886 181.58 79.74C175.58 75.99 162.07 78.8 162.07 78.8C162.07 78.8 170.07 81.57 169.59 85.18C161.25 82.02 153.16 89.12 153.16 89.12C153.16 89.12 164.65 87.2 166 90.93C153.17 93.36 148.44 101.93 148.44 101.93C151.745 100.323 155.439 99.692 159.09 100.11C159.09 100.11 154.17 105.34 150.26 116.68C141.1 143.29 155.38 172.36 161.32 185.35C165.47 194.42 166 199.35 165.94 201.43C165.92 202.39 160.4 213.3 165.36 215.12Z" fill="#CAA77A"/>
<g style="mix-blend-mode:multiply" opacity="0.23">
<path d="M270.06 209.89C278.39 206.16 293.33 203.89 289.06 184.52C287.3 176.52 279.27 152.13 273.96 137.52C267.58 119.91 251.5 96.7904 235.65 88.2004C219.8 79.6104 215.73 80.2004 206.89 78.3504C204.83 77.9104 196.98 76.4204 198.74 72.1804C194.61 71.9604 193.24 77.5504 193.24 77.5504C193.24 77.5504 183.58 77.3904 181.51 69.6304C180.658 71.1034 180.171 72.7588 180.09 74.4583C180.008 76.1579 180.334 77.8524 181.04 79.4004C175.04 75.6504 161.53 78.4604 161.53 78.4604C161.53 78.4604 169.47 81.2304 169.04 84.8504C160.7 81.6804 152.61 88.7804 152.61 88.7804C152.61 88.7804 164.1 86.8904 165.47 90.6304C152.64 93.0504 147.91 101.63 147.91 101.63C151.215 100.023 154.91 99.3948 158.56 99.8204L149.06 120.61C165.61 82.6104 214.29 89.5104 227.25 96.7704C266.19 118.55 269.09 154.88 270.06 209.89Z" fill="#3F2719"/>
</g>
<path d="M139.6 226.13C98.53 286.31 94.74 333.96 130.6 332.52C130.88 332.52 147.99 289.65 164.74 243.74C167.33 236.54 139.6 226.13 139.6 226.13Z" fill="#CAA77A"/>
<g style="mix-blend-mode:multiply" opacity="0.23">
<path d="M116.3 267.25C100.85 305.06 101.22 334.9 131.16 332.53C131.56 327.13 123.66 326.37 124.04 317.42C109.91 310.51 111.24 295.76 116.3 267.25Z" fill="#3F2719"/>
</g>
<path d="M139.6 226.13C98.21 286.79 94.68 334.72 131.43 332.48" stroke="#2D1F04" stroke-width="2.62" stroke-linecap="round" stroke-linejoin="round"/>
<path d="M151.35 133.93C158.84 116.56 169.35 104.49 203.78 104.48C220.97 104.48 246.71 112.89 253.43 125.06C255.68 129.13 268.3 163.06 242.76 182.26C223.76 196.48 182.34 199.36 160.41 176.37C149.91 165.36 147.62 149.13 151.35 133.93Z" fill="#FFDBAF"/>
<path d="M187.6 141.59C180.8 138.18 174.45 155.22 174.99 160.15C176.87 177.07 198.47 182.46 212.24 172.44C228.45 160.66 207.82 136.22 195.99 140.96" fill="#9D7B51"/>
<path d="M148.43 133.12C145.43 140.12 148.21 151.57 150.87 159.24C151.76 161.8 193.19 150.74 182.38 113.19C181.91 111.57 167.48 112.68 156.69 121.37C153.091 124.619 150.268 128.634 148.43 133.12V133.12Z" fill="#9D7B51"/>
<path d="M208.87 110.35C197.03 166.22 256.79 162.44 256.79 162.44C256.79 162.44 262.93 139.15 253.19 125.51C252.28 124.23 241.19 113.13 234.37 109.77C223.81 104.59 210.92 103.05 208.87 110.35Z" fill="#9D7B51"/>
<path d="M165.19 202.79C165.19 202.79 166.68 198.38 160.74 185.39C154.8 172.4 140.51 143.33 149.68 116.72C153.58 105.38 158.51 100.15 158.51 100.15C154.856 99.7398 151.161 100.382 147.86 102C147.86 102 152.59 93.3902 165.42 91.0002C164.05 87.2702 152.56 89.1602 152.56 89.1602C152.56 89.1602 160.65 82.0002 169 85.1502C169.43 81.5402 161.49 78.7702 161.49 78.7702C161.49 78.7702 175 76.0002 181 79.7102C180.298 78.1592 179.975 76.4638 180.057 74.7636C180.139 73.0633 180.623 71.4067 181.47 69.9302C183.54 77.7002 193.2 77.8602 193.2 77.8602C193.2 77.8602 194.57 72.2702 198.7 72.4902C196.94 76.7302 204.79 78.2202 206.85 78.6602C215.69 80.5502 219.76 79.9302 235.61 88.5102C251.46 97.0902 267.54 120.22 273.92 137.83C280.3 155.44 289.78 187.37 289.78 187.37" stroke="#2D1F04" stroke-width="2.62" stroke-linecap="round" stroke-linejoin="round"/>
<path d="M162.66 193.45C162.66 193.45 136.74 198.16 128.35 235.54C143.82 235.32 156.8 248.6 156.8 248.6C156.8 248.6 144.99 263.6 146.69 295.76C175.16 311.76 269.29 315.85 318.44 283.71C309.69 235 298.87 204 292.7 188.9C294.39 179.61 287.76 177.9 287.76 177.9C287.76 177.9 262.51 202.9 230.57 210.61C204.1 216.98 174.64 209.47 164.1 201.61C164.416 198.808 163.916 195.974 162.66 193.45Z" fill="#FFDB1F"/>
<path d="M173 238.65C178.61 238.8 183.3 238.86 187.73 239.12C191.44 239.33 192.21 241.95 191.44 244.45C190.35 247.88 187.56 250.19 183.68 251.3C183.48 251.36 183.27 251.39 182.91 251.49C185.82 253.74 184.59 258.14 186.91 262.19L178.8 261.66C177.618 259.323 176.879 256.787 176.62 254.18C176.49 252.86 176.1 251.85 173.85 252.18C172.3 255.04 170.98 258.02 171.15 261.31C168.58 261.21 166.22 261.16 163.63 261.14C163.89 252.63 170.61 246.63 173 238.65ZM178.88 243.43C178.125 244.976 177.291 246.481 176.38 247.94C177.99 247.88 179.48 247.94 181.03 247.77C181.669 247.71 182.285 247.497 182.824 247.149C183.364 246.801 183.812 246.328 184.13 245.77C184.75 244.62 184.46 243.7 183.13 243.55C181.7 243.42 180.26 243.39 178.83 243.43H178.88Z" fill="#2D1F04"/>
<path d="M212.15 245.72L205.15 246.09C205.49 244.09 204.61 243.03 202.83 242.99C202.207 242.94 201.583 243.071 201.033 243.367C200.483 243.664 200.031 244.113 199.73 244.66C199.39 245.79 199.97 246.21 200.73 246.45C202.17 246.91 203.68 247.34 205.19 247.84C206.023 248.127 206.829 248.485 207.6 248.91C212.5 251.53 209.83 258.4 205.09 261.43C203.54 262.408 201.803 263.052 199.99 263.32C197.327 263.713 194.608 263.449 192.07 262.55C191.254 262.308 190.499 261.896 189.855 261.34C189.211 260.784 188.693 260.097 188.334 259.325C187.976 258.553 187.785 257.714 187.776 256.864C187.767 256.013 187.939 255.17 188.28 254.39L194.85 254.32C194.85 254.8 194.77 255.23 194.79 255.65C194.85 257.97 197.01 259.16 199.49 258.35C200.035 258.204 200.537 257.93 200.954 257.551C201.372 257.172 201.693 256.698 201.89 256.17C202.071 255.772 202.091 255.32 201.945 254.908C201.8 254.496 201.5 254.156 201.11 253.96C200.424 253.626 199.72 253.332 199 253.08C197.553 252.601 196.14 252.027 194.77 251.36C192.35 250 192.04 247.78 193.22 245.2C193.821 243.766 194.727 242.48 195.875 241.432C197.024 240.383 198.387 239.598 199.87 239.13C202.695 238.291 205.708 238.329 208.51 239.24C211.54 240.24 212.92 242.2 212.15 245.72Z" fill="#2D1F04"/>
<path d="M206.91 107.52C241.75 107.19 254.91 125.92 254.91 125.92" stroke="#2D1F04" stroke-width="7.6" stroke-linecap="round" stroke-linejoin="round"/>
<path d="M184.18 109.12C176.502 109.767 169.077 112.179 162.486 116.169C155.894 120.158 150.314 125.618 146.18 132.12" stroke="#2D1F04" stroke-width="7.6" stroke-linecap="round" stroke-linejoin="round"/>
<path d="M183.08 141.47C182.98 139.18 187.14 137.1 192.38 136.82C197.62 136.54 201.94 138.18 202.05 140.47C202.16 142.76 197.99 144.84 192.76 145.12C187.53 145.4 183.19 143.76 183.08 141.47Z" fill="#251707"/>
<path d="M218.82 133.3C222.82 128.25 232.48 127.42 238.21 133.93" stroke="#2D1F04" stroke-width="2.6" stroke-linecap="round" stroke-linejoin="round"/>
<path d="M158.6 135.06C165.23 128.43 174.81 132.06 176.37 133.14" stroke="#2D1F04" stroke-width="2.6" stroke-linecap="round" stroke-linejoin="round"/>
<g style="mix-blend-mode:multiply" opacity="0.23">
<path d="M273.81 190C273.81 190 284.69 182.06 286.41 179.73C288.29 177.18 293.48 180.84 293.01 186.67C292.54 192.5 294.01 190.82 294.5 194.51C286.35 186.44 273.81 190 273.81 190Z" fill="#3F2719"/>
</g>
<path d="M292.09 187.49C294.28 181.43 288.01 177.49 286.84 178.64C279.84 185.64 253.43 209.96 221.51 212.27C184.6 214.93 164.51 202 164.51 202C155.05 204.11 161.84 213.27 161.84 213.27C161.84 213.27 175 226.13 221.16 223" stroke="#2D1F04" stroke-width="2.62" stroke-linecap="round" stroke-linejoin="round"/>
<path d="M163.54 193.29C145.93 196.13 134.21 216.29 131.43 227.39C135.83 226.84 144.74 228.14 150.75 233.39" stroke="#2D1F04" stroke-width="2.62" stroke-linecap="round" stroke-linejoin="round"/>
<g style="mix-blend-mode:multiply" opacity="0.23">
<path d="M293.43 260.92C293.43 260.92 303.09 285.36 294.09 296.07C302.09 293.07 310.46 291.3 318.44 283.71C316.21 271.4 306.55 229.79 303.92 222.03C304.11 242.92 293.43 260.92 293.43 260.92Z" fill="#3F2719"/>
</g>
<path d="M292.09 187.49C302.55 206.97 311.84 257.61 318.44 283.71C298.3 301.71 207.32 322.18 146.69 295.76C145.26 269.62 149.69 258.27 160.24 243.58C156.24 223.93 161.65 213.76 161.65 213.76" stroke="#2D1F04" stroke-width="2.62" stroke-linecap="round" stroke-linejoin="round"/>
<path d="M165.36 324C173.87 332.54 184.96 370.11 186.5 374.29C188.04 378.47 197.64 357.06 199.05 352.22C200.46 347.38 173.37 326 165.36 324Z" fill="#D2D2D2"/>
<path d="M165.36 324C179.36 345.78 184.96 370.11 186.5 374.29C188.04 378.47 199.02 357.29 199.05 352.22C199.1 343.73 173.84 327.22 165.36 324Z" stroke="#2D1F04" stroke-width="2.62" stroke-linecap="round" stroke-linejoin="round"/>
<path d="M77.29 314.86C87.58 326.06 99.64 362.31 99.64 362.31C99.64 362.31 108.7 357.13 109.8 337.98C99.23 320.89 77.29 314.86 77.29 314.86Z" fill="#D2D2D2"/>
<g style="mix-blend-mode:multiply" opacity="0.23">
<path d="M77.34 314.53C87.64 325.73 99.69 361.98 99.69 361.98C99.69 361.98 108.75 356.8 109.85 337.65C99.28 320.56 77.34 314.53 77.34 314.53Z" fill="#3F2719"/>
</g>
<path d="M77.29 314.86C92.89 337.29 99.64 362.31 99.64 362.31C99.64 362.31 112.19 349.1 109.54 336.38C95.18 319.12 77.29 314.86 77.29 314.86Z" stroke="#2D1F04" stroke-width="2.62" stroke-linecap="round" stroke-linejoin="round"/>
<path d="M195 344.65C195.32 344.65 203.42 348.48 208.54 345.05C222.73 335.57 233.95 310.79 279.18 317.89" stroke="#2D1F04" stroke-width="2.62" stroke-linecap="round" stroke-linejoin="round"/>
<g style="mix-blend-mode:multiply" opacity="0.23">
<path d="M159.87 240.93C164.37 249.85 172.43 246.77 200.37 246.71C224.56 246.34 216.5 256.32 193.88 252.41C181.65 250.18 161.62 246.71 152.66 255.83C155.47 249.72 158 248.45 159.87 240.93Z" fill="#3F2719"/>
</g>
<path d="M311.71 288.39C314.47 308.054 314.47 328.006 311.71 347.67C311.71 347.67 304.85 359.23 282.83 370.02C259.5 381.45 242.9 378.24 224.89 378.33C207.47 378.41 198.55 385.84 193.32 385.33C189.71 384.97 186.5 374.33 186.5 374.33" stroke="#2D1F04" stroke-width="2.62" stroke-linecap="round" stroke-linejoin="round"/>
<path d="M179.4 356C157.69 368.88 133.7 364.58 124.68 367.22C115.66 369.86 113.68 373.5 106.35 372.73C102.61 372.34 99.64 362.27 99.64 362.27" stroke="#2D1F04" stroke-width="2.62" stroke-linecap="round" stroke-linejoin="round"/>
<path d="M107.91 334.49C119.49 340.31 119.73 332.97 127.63 332.49" stroke="#2D1F04" stroke-width="2.62" stroke-linecap="round" stroke-linejoin="round"/>
<path d="M147.38 290C147.38 290 135.92 344.26 178.68 355.82" stroke="#2D1F04" stroke-width="2.62" stroke-linecap="round" stroke-linejoin="round"/>
<path d="M109.91 202.23L134.67 341.29C134.67 341.29 147.56 349.4 156.37 337.35L131.26 197.78C131.26 197.78 125.15 207.64 109.91 202.23Z" fill="#E5E5E5"/>
<path d="M111.88 220.17L111.06 211.16L114.53 220.17L117.13 211.83L120.14 219.91L122.33 212.15L126.6 219.04L127.78 210.51L132.65 217.45L131.66 207.9L133.14 215.72" stroke="#8463AA" stroke-width="2" stroke-linecap="round" stroke-linejoin="round"/>
<path d="M119.52 260.66L118.7 251.65L122.16 260.66L124.77 252.32L127.78 260.39L130.31 252.16L134.23 259.53L135.42 251L140.29 257.93L139.3 248.38L140.77 256.2" stroke="#8463AA" stroke-width="2" stroke-linecap="round" stroke-linejoin="round"/>
<path d="M108.81 201L110.11 209.48C120.77 215.48 131.11 208.06 131.11 208.06L129.92 200.06C129.92 200.06 121.05 206.87 108.81 201Z" fill="#8463AA"/>
<path d="M112.1 219L113.46 227.4C116.761 228.966 120.434 229.577 124.064 229.164C127.694 228.75 131.136 227.329 134 225.06L132.81 217.06C132.81 217.06 124.29 223.16 112.1 219Z" fill="#8463AA"/>
<path d="M116.39 241.91L117.69 250.39C128.35 256.39 139.3 248.39 139.3 248.39L137.62 239.54C134.69 241.946 131.124 243.451 127.356 243.871C123.588 244.292 119.779 243.611 116.39 241.91V241.91Z" fill="#8463AA"/>
<path d="M118.13 258.76L125.42 293.09C136.63 300.93 146.86 290.81 146.86 290.81L141.14 256.81C141.14 256.81 130.68 264 118.13 258.76Z" fill="#8463AA"/>
<path d="M126.4 300.93L128.31 311.65C137.71 321.72 150.57 316.84 150.57 316.84L149.38 308.84C149.38 308.84 135.4 313.07 126.4 300.93Z" fill="#D1A1CF"/>
<path d="M125.35 292.7L125.57 293.92C134.96 303.98 147.82 299.1 147.82 299.1L146.63 291.1C146.63 291.1 138.32 299.6 125.35 292.7Z" fill="#D1A1CF"/>
<path d="M125.35 294.33L133.64 340.68C145.23 349.04 154.85 337.21 154.85 337.21L146.63 292.7C146.63 292.7 138.32 301.23 125.35 294.33Z" fill="#D1A1CF"/>
<path d="M130.68 320.89L132.59 331.61C141.99 341.67 154.85 336.79 154.85 336.79L153.66 328.79C153.66 328.79 139.68 333 130.68 320.89Z" fill="#D1A1CF"/>
<path d="M126 293.23C126 293.23 139.16 299.84 147.37 290" stroke="#2D1F04" stroke-width="2.62" stroke-linecap="round" stroke-linejoin="round"/>
<g style="mix-blend-mode:multiply" opacity="0.23">
<path d="M133.7 341.06C135.7 342.33 144.28 349.44 155.54 336.91L130.44 197.35C128.758 199.696 126.389 201.46 123.66 202.4C123.66 202.4 142.44 310.4 142.77 315.49C126.22 320 133.7 341.06 133.7 341.06Z" fill="#3F2719"/>
</g>
<path d="M108.94 202L133.7 341.06C133.7 341.06 146.59 349.17 155.4 337.12L130.3 197.56C130.3 197.56 124.19 207.41 108.94 202Z" stroke="#2D1F04" stroke-width="2.62" stroke-linecap="round" stroke-linejoin="round"/>
<path d="M126.4 301.54C126.4 301.54 120.76 322.54 128.4 328.54C143.97 335.35 152.68 320.2 154 314.26C155.32 308.32 153.71 306.82 151.93 306.91C141.22 315.66 128.14 314.11 126.4 301.54Z" fill="#D2D2D2"/>
<g style="mix-blend-mode:multiply" opacity="0.23">
<path d="M125 314.53C125 314.53 120.92 321.76 128.6 327.78C144.16 334.6 154.03 319.37 154.03 308.39C147.32 322.23 126.77 327.1 125 314.53Z" fill="#3F2719"/>
</g>
<path d="M126.4 301.29C126.4 301.29 120.76 321.93 128.4 327.96C143.97 334.77 152.68 319.62 154 313.68C155.32 307.74 153.71 306.25 151.93 306.33C141.22 315.08 128.14 313.86 126.4 301.29Z" stroke="#2D1F04" stroke-width="2.62" stroke-linecap="round" stroke-linejoin="round"/>
<path d="M131.88 285.27C131.88 285.27 111.69 272.64 115.75 252.41C125.75 265.04 134.75 273.82 146.16 272.64" fill="#D2D2D2"/>
<path d="M136.28 287.54C136.28 287.54 112.07 278.42 115.75 252.41C123.84 266.32 133.75 272.98 145.23 273.41" stroke="#2D1F04" stroke-width="2.62" stroke-linecap="round" stroke-linejoin="round"/>
<path d="M141.14 280.84C131.14 280.97 120.72 271.9 115.56 254.04" stroke="#2D1F04" stroke-width="2.62" stroke-linecap="round" stroke-linejoin="round"/>
<path d="M238.24 245.72C217.88 293 204.16 294 149.88 273.43C141.46 271.53 134.32 274.54 131.88 285.27C143.22 296.42 196.88 328.73 222.39 323.45C247.9 318.17 275.23 294.16 285.58 265.54C285.58 265.54 292.58 255.02 269.84 240.99C249.53 228.44 238.24 245.72 238.24 245.72Z" fill="#CAA77A"/>
<path d="M250.04 267.25L246.65 273.3" stroke="#9D7B51" stroke-width="3.87" stroke-linecap="round" stroke-linejoin="round"/>
<path d="M256.35 267.52L253.21 273.3" stroke="#9D7B51" stroke-width="3.87" stroke-linecap="round" stroke-linejoin="round"/>
<path d="M182.09 197.35L182.51 202.32" stroke="#9D7B51" stroke-width="3.87" stroke-linecap="round" stroke-linejoin="round"/>
<path d="M175.94 195.3L176.37 200.27" stroke="#9D7B51" stroke-width="3.87" stroke-linecap="round" stroke-linejoin="round"/>
<path d="M263.19 342.61L256.57 344.68" stroke="#9D7B51" stroke-width="3.87" stroke-linecap="round" stroke-linejoin="round"/>
<path d="M268.86 353.57L262.24 355.64" stroke="#9D7B51" stroke-width="3.87" stroke-linecap="round" stroke-linejoin="round"/>
<path d="M261.31 349.58L255.06 351.63" stroke="#9D7B51" stroke-width="3.87" stroke-linecap="round" stroke-linejoin="round"/>
<path d="M236.76 245.15C236.76 245.15 233.34 241.08 234 238.53C236.5 228.78 245.08 206.59 255.64 198.16C264.88 190.79 279.64 186.6 290.39 191.89C301.62 197.41 309.91 215.34 299.45 247.89C297.24 254.78 291.11 263.89 291.11 263.89C290.649 264.64 289.967 265.229 289.157 265.576C288.348 265.923 287.452 266.012 286.59 265.83C280.022 260.805 273.059 256.317 265.77 252.41C259.7 249.27 251.6 245.79 236.76 245.15Z" fill="#FFDB1F"/>
<path d="M235.26 234.2C235.26 234.2 253.26 232.76 268.41 242.92" stroke="#2D1F04" stroke-width="2.62" stroke-linecap="round" stroke-linejoin="round"/>
<path d="M243 240.05C242.913 238.419 243.317 236.799 244.16 235.4" stroke="#2D1F04" stroke-width="2.62" stroke-linecap="round" stroke-linejoin="round"/>
<path d="M248.1 241C247.813 239.437 248.104 237.823 248.92 236.46" stroke="#2D1F04" stroke-width="2.62" stroke-linecap="round" stroke-linejoin="round"/>
<path d="M260.28 245.27C260.048 243.226 260.544 241.165 261.68 239.45" stroke="#2D1F04" stroke-width="2.62" stroke-linecap="round" stroke-linejoin="round"/>
<g style="mix-blend-mode:multiply" opacity="0.23">
<path d="M282.44 255.47C243.44 334.35 186.5 317.47 134.69 278.4C133.69 279.68 131.27 282.45 131.88 286.1C143.22 297.25 196.88 329.1 222.39 323.81C247.9 318.52 275.23 294.53 285.58 265.91C285.58 265.91 290.81 267.25 296.15 256.91C296.8 255.66 315.75 214.42 292.79 192.78C287.48 190.1 276.01 188.25 269.08 191.11C302.76 201.71 282.44 255.47 282.44 255.47Z" fill="#3F2719"/>
</g>
<path d="M237.49 245.27C221.74 282.02 214.32 299.51 148.81 273.38C145.005 273.033 141.197 274.011 138.03 276.149C134.863 278.286 132.532 281.452 131.43 285.11C142.77 296.26 196.85 328.73 222.43 323.45C248.01 318.17 275.27 294.16 285.62 265.54" stroke="#2D1F04" stroke-width="2.62" stroke-linecap="round" stroke-linejoin="round"/>
<path d="M237.77 245.27C237.77 245.27 233.34 241.08 234 238.53C236.5 228.78 245.08 206.59 255.64 198.16C264.88 190.79 279.64 186.6 290.39 191.89C301.62 197.41 309.91 215.34 299.45 247.89C297.24 254.78 294.28 260.71 291.11 263.89C290.06 264.96 288.8 265.57 285.58 265.06" stroke="#2D1F04" stroke-width="2.62" stroke-linecap="round" stroke-linejoin="round"/>
<path d="M125 316.53C125 316.53 135.63 333.73 154 308.39" stroke="#2D1F04" stroke-width="2.62" stroke-linecap="round" stroke-linejoin="round"/>
<path d="M79 316.07C79 316.07 105.75 331.24 107.6 349.07" stroke="#2D1F04" stroke-width="2.62" stroke-linecap="round" stroke-linejoin="round"/>
<path d="M167.22 325.21C167.22 325.21 192.84 344.51 194.7 362.31" stroke="#2D1F04" stroke-width="2.62" stroke-linecap="round" stroke-linejoin="round"/>
<path d="M168.22 204.33C168.22 204.33 166.15 207.85 167.51 211.33" stroke="#2D1F04" stroke-width="2.62" stroke-linecap="round" stroke-linejoin="round"/>
<path d="M174.21 206.87C174.21 206.87 173.02 210.44 174.21 213.35" stroke="#2D1F04" stroke-width="2.62" stroke-linecap="round" stroke-linejoin="round"/>
<path d="M186.9 210.66C186.273 212.867 186.273 215.204 186.9 217.41" stroke="#2D1F04" stroke-width="2.62" stroke-linecap="round" stroke-linejoin="round"/>
<path d="M212.05 212.72C211.741 213.397 211.581 214.132 211.581 214.875C211.581 215.619 211.741 216.354 212.05 217.03" stroke="#2D1F04" stroke-width="2.62" stroke-linecap="round" stroke-linejoin="round"/>
<path d="M217.5 212.72C217.191 213.397 217.031 214.132 217.031 214.875C217.031 215.619 217.191 216.354 217.5 217.03" stroke="#2D1F04" stroke-width="2.62" stroke-linecap="round" stroke-linejoin="round"/>
<path d="M225 28.3701L219.27 24.1501C219.107 24.0291 218.918 23.9495 218.717 23.9181C218.517 23.8868 218.312 23.9046 218.12 23.9701L211.4 26.3001C211.179 26.3782 210.94 26.3925 210.711 26.3414C210.482 26.2902 210.272 26.1757 210.106 26.0109C209.939 25.8461 209.821 25.6376 209.767 25.4094C209.713 25.1811 209.725 24.9423 209.8 24.7201L212.05 18.0001C212.112 17.8071 212.127 17.6022 212.093 17.4023C212.06 17.2023 211.98 17.0131 211.86 16.8501L207.56 11.1701C207.421 10.9844 207.336 10.7636 207.315 10.5324C207.294 10.3012 207.338 10.0688 207.442 9.86112C207.546 9.65349 207.705 9.47887 207.903 9.35682C208.1 9.23478 208.328 9.17014 208.56 9.17014H215.68C215.878 9.16636 216.072 9.11538 216.246 9.02145C216.419 8.92751 216.568 8.79334 216.68 8.63014L220.75 2.80014C220.883 2.60772 221.067 2.45636 221.281 2.36324C221.495 2.27013 221.732 2.23899 221.963 2.27335C222.194 2.30772 222.411 2.40622 222.589 2.55767C222.767 2.70911 222.899 2.90744 222.97 3.13014L225.13 9.92014C225.19 10.1144 225.298 10.2909 225.443 10.4339C225.587 10.5769 225.765 10.682 225.96 10.7401L232.77 12.8101C232.992 12.8788 233.191 13.0081 233.344 13.1837C233.497 13.3592 233.598 13.5739 233.635 13.8035C233.672 14.0332 233.645 14.2688 233.556 14.4838C233.467 14.6987 233.319 14.8845 233.13 15.0201L227.35 19.1701C227.19 19.2833 227.059 19.4331 226.969 19.6071C226.878 19.781 226.831 19.9741 226.83 20.1701L226.96 27.2801C226.972 27.5133 226.918 27.745 226.804 27.9491C226.691 28.1531 226.523 28.3214 226.319 28.4349C226.115 28.5483 225.883 28.6024 225.65 28.5909C225.417 28.5795 225.192 28.503 225 28.3701V28.3701Z" fill="#FFDB1F" stroke="#2D1F04" stroke-width="2.62" stroke-linecap="round" stroke-linejoin="round"/>
<path d="M108.81 201C108.81 201 116.81 191.61 130.1 197.23C123.3 206.21 108.81 201 108.81 201Z" fill="#472D07" stroke="#2D1F04" stroke-width="2.62" stroke-linecap="round" stroke-linejoin="round"/>
<path d="M189.71 150.26C186.16 156.32 180.49 151.43 180.29 151.26C175.43 164.93 186.15 170.66 192.91 171.74C199.91 172.86 209.44 170.4 213.2 162.12C214.67 158.87 214.67 151.63 210.88 149.12C210.67 148.98 207.5 154.51 206.51 154.96C201.15 157.39 191.54 155.46 189.71 150.26Z" fill="#251707"/>
<path d="M188.84 167.23C188.84 167.23 193.11 170.93 201.32 169C203.226 168.548 205.018 167.705 206.581 166.524C208.144 165.343 209.444 163.85 210.4 162.14C210.4 162.14 207.3 159.29 201.21 159.98C198.745 160.215 196.36 160.985 194.223 162.237C192.087 163.49 190.249 165.194 188.84 167.23Z" fill="#FF8A8A"/>
<path d="M190.11 144.67C187.31 155.44 204.85 158.36 210.4 150.19" stroke="#251707" stroke-width="2.6" stroke-linecap="round" stroke-linejoin="round"/>
<path d="M202.27 158.25C202.27 158.25 197.01 160.04 198.27 164.95" stroke="#251707" stroke-width="2" stroke-miterlimit="10" stroke-linecap="round"/>
<path d="M43.22 179.52C44.6558 179.416 45.9973 178.766 46.9697 177.705C47.9421 176.643 48.4717 175.25 48.45 173.81C48.45 171.09 46.4 168.3 44.56 166.48C43.5148 165.4 42.1775 164.647 40.7116 164.314C39.2456 163.981 37.7144 164.082 36.3049 164.605C34.8954 165.128 33.6687 166.05 32.7746 167.258C31.8805 168.467 31.3577 169.909 31.27 171.41C30.65 177.69 36.02 184.41 41.57 186.72C50.02 190.26 58.9 185.95 66.66 182.66C71.6327 180.407 76.9515 179.014 82.39 178.54C84.97 178.37 87.82 178.23 90.19 179.42C92.91 180.79 93.78 183.92 94.72 186.59C95.1635 187.663 95.8084 188.641 96.62 189.47C96.81 189.67 97.92 190.83 97.62 189.88C95.4 183.59 91.49 175.12 83.93 174.43C73.52 173.43 64.75 178.74 55.32 182.03C50.6 183.68 45.43 184.7 40.53 183.23C38.6 182.65 35.79 181.57 34.83 179.64C33.87 177.71 34.13 174.39 35.08 172.37C35.8609 170.702 37.2397 169.388 38.9435 168.688C40.6473 167.988 42.5518 167.953 44.28 168.59C46.28 169.3 45.54 171.43 44.55 172.98C44.1139 173.72 43.4948 174.335 42.7522 174.766C42.0095 175.196 41.1685 175.429 40.31 175.44C40.66 175.44 41.92 179.56 43.25 179.52H43.22Z" fill="#8DDDEB" stroke="#2D1F04" stroke-width="2.62" stroke-linecap="round" stroke-linejoin="round"/>
<path d="M147 78.2402C138.003 75.9554 128.592 75.8355 119.54 77.8902C115.668 78.631 111.979 80.1223 108.68 82.2802C105.34 84.6602 101.58 88.0402 99.86 91.8502C95.68 101.1 108.95 103.74 114.86 105.57C119 106.86 123.65 108.57 126.78 111.7C128 112.93 129.41 115.06 128.42 116.85C127.59 118.37 125.42 119.59 124.17 120.75C118.9 125.51 108.98 135.56 115.72 143.01C116.42 143.78 123.93 136.74 123.01 135.72C120.29 132.72 120.3 127.6 122.76 124.35C124.147 122.957 125.617 121.648 127.16 120.43C129.064 118.722 130.854 116.891 132.52 114.95C135.33 111.66 137.67 108.06 134.06 104.41C130.73 101.04 125.63 99.3102 121.2 98.0002C116.77 96.6902 111.69 96.0602 108.56 92.5202C107.14 91.0002 106 88.0002 108.32 86.4602C118 82.0002 129.42 83.0002 139.7 85.5202C140.95 85.8402 143.15 83.2202 143.92 82.4502C144.17 82.2002 147.4 78.3402 146.99 78.2402H147Z" fill="#8DDDEB" stroke="#2D1F04" stroke-width="2.62" stroke-linecap="round" stroke-linejoin="round"/>
<path d="M22.28 137.67C23.18 144.21 28.94 146.67 34.83 147.67C41.14 148.74 46.61 144.95 50.55 140.28C51.55 139.04 51.29 138.71 49.88 139.46C48.02 140.46 48.12 141.13 46.33 141.67C45.7687 141.772 45.2003 141.828 44.63 141.84C43.5048 141.85 42.3817 141.739 41.28 141.51C39.3128 141.16 37.3955 140.572 35.57 139.76C33.9674 139.032 32.5797 137.904 31.5409 136.483C30.502 135.062 29.8473 133.398 29.64 131.65C29.57 131.18 25.75 133.86 25.49 134.07C24.7 134.71 22.12 136.42 22.28 137.65V137.67Z" fill="#FDF392" stroke="#2D1F04" stroke-width="2.62" stroke-linecap="round" stroke-linejoin="round"/>
<path d="M115.86 61.3799C121.29 65.1199 127.01 62.5499 131.71 58.8799C136.71 54.9399 137.66 48.3399 136.86 42.2799C136.65 40.6799 136.2 40.6799 135.8 42.2199C135.28 44.2199 135.8 44.6499 135.04 46.3299C134.747 46.8148 134.413 47.2732 134.04 47.6999C133.288 48.5611 132.439 49.3328 131.51 49.9999C129.928 51.2093 128.201 52.217 126.37 52.9999C124.751 53.6964 122.98 53.963 121.228 53.7737C119.476 53.5845 117.803 52.9459 116.37 51.9199C115.97 51.6399 115.37 56.2799 115.37 56.6099C115.32 57.6099 114.84 60.6799 115.86 61.3899V61.3799Z" fill="#FDF392" stroke="#2D1F04" stroke-width="2.62" stroke-linecap="round" stroke-linejoin="round"/>
<path d="M25.91 73.8899C23.1 79.0699 24.69 85.6199 30.41 87.9999C31.91 88.6199 33.48 88.9999 34.96 89.7399C36.4921 90.5275 37.9779 91.4023 39.41 92.3599C40.6875 93.0568 41.8236 93.986 42.76 95.0999C43.1166 95.5598 43.3845 96.082 43.55 96.6399C43.6897 97.1097 43.7305 97.6034 43.67 98.0899C43.41 98.9099 42.15 100.09 42.93 100.18C43.87 100.29 45.93 97.8199 46.41 97.2699C48.41 95.1599 49.95 92.5999 47.96 89.8999C46.15 87.4499 42.49 85.6499 39.82 84.3899C36.76 82.9499 33.63 82.5199 31.49 79.6399C30.4584 78.2431 29.8464 76.5812 29.726 74.8489C29.6055 73.1166 29.9816 71.386 30.81 69.8599C31.53 68.5399 29.55 70.0399 29.32 70.2299C27.9692 71.2472 26.8139 72.5007 25.91 73.9299V73.8899Z" fill="#DBA7E8" stroke="#2D1F04" stroke-width="2.62" stroke-linecap="round" stroke-linejoin="round"/>
<path d="M64.86 41.7702C69.5563 43.0154 73.9457 45.2145 77.7548 48.2305C81.5639 51.2465 84.711 55.0146 87 59.3002C92 68.6702 91.3 79.1102 89.32 89.2002C87.34 99.2902 84.12 109.2 84.8 119.54C85.37 128.22 89.58 139.76 99.86 140.1C101.52 140.16 103.6 136.99 104.51 135.85C104.8 135.48 108.01 130.39 107.62 130.37C96.79 130.01 92.75 117.37 92.62 108.37C92.46 98.0402 95.82 88.0502 97.62 77.9702C99.34 68.3402 99.48 58.3902 94.77 49.5402C92.4773 45.2617 89.3284 41.5009 85.5195 38.492C81.7105 35.483 77.323 33.2903 72.63 32.0502C71.23 31.6802 68.69 35.4002 67.98 36.3002C67.71 36.6402 64.21 41.6002 64.86 41.7702V41.7702Z" fill="#DBA7E8" stroke="#2D1F04" stroke-width="2.62" stroke-linecap="round" stroke-linejoin="round"/>
<path d="M63.46 101.71L63.87 97.9802C63.9013 97.818 63.9724 97.6661 64.0767 97.5381C64.1811 97.4101 64.3155 97.3099 64.4681 97.2465C64.6206 97.1831 64.7865 97.1585 64.9508 97.1748C65.1152 97.1912 65.273 97.248 65.41 97.3402L68.33 99.6902C68.4684 99.8081 68.6392 99.8813 68.82 99.9002L72.55 100.3C72.7122 100.332 72.8641 100.403 72.9921 100.507C73.1201 100.611 73.2203 100.746 73.2837 100.898C73.3471 101.051 73.3717 101.217 73.3554 101.381C73.339 101.545 73.2822 101.703 73.19 101.84L70.83 104.76C70.7189 104.905 70.6497 105.078 70.63 105.26L70.22 109C70.1887 109.162 70.1176 109.314 70.0133 109.442C69.9089 109.57 69.7745 109.671 69.6219 109.734C69.4694 109.797 69.3035 109.822 69.1392 109.806C68.9748 109.789 68.8171 109.732 68.68 109.64L65.76 107.29C65.6216 107.172 65.4508 107.099 65.27 107.08L61.54 106.68C61.3787 106.648 61.2279 106.576 61.1011 106.471C60.9743 106.366 60.8753 106.231 60.813 106.079C60.7507 105.926 60.7269 105.761 60.7439 105.597C60.7608 105.434 60.8178 105.277 60.91 105.14L63.26 102.22C63.3728 102.072 63.4421 101.895 63.46 101.71V101.71Z" fill="#FDF392" stroke="#2D1F04" stroke-width="2.62" stroke-linecap="round" stroke-linejoin="round"/>
<path d="M79 202.55L79.41 198.82C79.4276 198.651 79.4905 198.49 79.5921 198.355C79.6937 198.219 79.8302 198.113 79.987 198.048C80.1438 197.984 80.3152 197.963 80.483 197.988C80.6508 198.013 80.8087 198.083 80.94 198.19L83.86 200.54C84.0041 200.655 84.1772 200.727 84.36 200.75L88.09 201.15C88.2513 201.183 88.4021 201.255 88.5289 201.359C88.6557 201.464 88.7547 201.599 88.817 201.751C88.8793 201.904 88.9031 202.069 88.8861 202.233C88.8692 202.397 88.8122 202.554 88.72 202.69L86.37 205.61C86.2521 205.748 86.1789 205.919 86.16 206.1L85.76 209.83C85.7287 209.992 85.6576 210.144 85.5533 210.272C85.4489 210.4 85.3144 210.5 85.1619 210.564C85.0094 210.627 84.8435 210.652 84.6792 210.635C84.5148 210.619 84.357 210.562 84.22 210.47L81.3 208.12C81.1616 208.002 80.9908 207.929 80.81 207.91L77.08 207.5C76.9104 207.484 76.7484 207.422 76.6113 207.321C76.4741 207.22 76.3669 207.084 76.3012 206.927C76.2355 206.77 76.2137 206.598 76.2381 206.429C76.2626 206.261 76.3323 206.102 76.44 205.97L78.8 203.05C78.9111 202.905 78.9803 202.732 79 202.55V202.55Z" fill="#FDF392" stroke="#2D1F04" stroke-width="2.62" stroke-linecap="round" stroke-linejoin="round"/>
<path d="M57.19 156.35V151.15C57.1924 150.918 57.2565 150.69 57.3757 150.491C57.495 150.292 57.6651 150.128 57.8686 150.016C58.0721 149.904 58.3018 149.848 58.534 149.854C58.7661 149.86 58.9926 149.928 59.19 150.05L63.56 152.85C63.7708 152.988 64.0178 153.061 64.27 153.06H69.46C69.6931 153.061 69.9218 153.123 70.1226 153.242C70.3233 153.361 70.4887 153.53 70.6019 153.734C70.715 153.938 70.7717 154.168 70.7661 154.401C70.7605 154.635 70.6928 154.862 70.57 155.06L67.76 159.43C67.6306 159.644 67.5615 159.89 67.56 160.14V165.33C67.5594 165.563 67.4965 165.792 67.378 165.993C67.2595 166.193 67.0895 166.359 66.8857 166.472C66.6819 166.585 66.4516 166.642 66.2185 166.636C65.9855 166.63 65.7581 166.563 65.56 166.44L61.19 163.64C60.9828 163.502 60.739 163.429 60.49 163.43H55.29C55.0577 163.428 54.8303 163.363 54.631 163.244C54.4316 163.125 54.2676 162.955 54.1557 162.751C54.0437 162.548 53.9879 162.318 53.9939 162.086C54 161.854 54.0676 161.627 54.19 161.43L56.99 157.06C57.1233 156.847 57.1927 156.601 57.19 156.35V156.35Z" fill="#DBA7E8" stroke="#2D1F04" stroke-width="2.62" stroke-linecap="round" stroke-linejoin="round"/>
<path d="M112.82 162.66V158.76C112.824 158.585 112.875 158.413 112.966 158.264C113.057 158.114 113.186 157.991 113.34 157.907C113.495 157.822 113.668 157.78 113.843 157.784C114.019 157.789 114.19 157.839 114.34 157.93L117.63 160.04C117.789 160.139 117.973 160.191 118.16 160.19H122.06C122.234 160.195 122.404 160.246 122.552 160.337C122.7 160.428 122.823 160.556 122.906 160.708C122.99 160.861 123.033 161.032 123.03 161.206C123.027 161.38 122.979 161.551 122.89 161.7L120.79 164.99C120.684 165.146 120.628 165.331 120.63 165.52V169.43C120.626 169.606 120.575 169.777 120.484 169.927C120.393 170.077 120.264 170.2 120.11 170.284C119.956 170.368 119.782 170.41 119.607 170.406C119.431 170.402 119.26 170.351 119.11 170.26L115.82 168.15C115.662 168.048 115.478 167.993 115.29 167.99H111.39C111.215 167.986 111.043 167.936 110.893 167.844C110.744 167.753 110.62 167.624 110.536 167.47C110.452 167.316 110.41 167.142 110.414 166.967C110.418 166.791 110.469 166.62 110.56 166.47L112.67 163.19C112.769 163.031 112.821 162.847 112.82 162.66Z" fill="#DBA7E8" stroke="#2D1F04" stroke-width="2.62" stroke-linecap="round" stroke-linejoin="round"/>
<path d="M8.19 104.64L10.88 99.7702C11.0017 99.5492 11.1806 99.3649 11.3978 99.2366C11.615 99.1082 11.8627 99.0405 12.115 99.0405C12.3673 99.0405 12.615 99.1082 12.8322 99.2366C13.0494 99.3649 13.2283 99.5492 13.35 99.7702L16 104.67C16.1266 104.905 16.3174 105.099 16.55 105.23L21.42 107.92C21.641 108.042 21.8253 108.221 21.9536 108.438C22.082 108.655 22.1497 108.903 22.1497 109.155C22.1497 109.407 22.082 109.655 21.9536 109.872C21.8253 110.09 21.641 110.268 21.42 110.39L16.52 113C16.2823 113.128 16.0875 113.322 15.96 113.56L13.27 118.43C13.1483 118.651 12.9694 118.835 12.7522 118.964C12.535 119.092 12.2873 119.16 12.035 119.16C11.7827 119.16 11.535 119.092 11.3178 118.964C11.1006 118.835 10.9217 118.651 10.8 118.43L8.15 113.53C8.02041 113.297 7.8304 113.104 7.6 112.97L2.73 110.28C2.50874 110.16 2.32402 109.982 2.1953 109.766C2.06659 109.549 1.99866 109.302 1.99866 109.05C1.99866 108.798 2.06659 108.551 2.1953 108.335C2.32402 108.118 2.50874 107.94 2.73 107.82L7.62 105.17C7.85725 105.052 8.05524 104.868 8.19 104.64V104.64Z" fill="#8DDDEB" stroke="#2D1F04" stroke-width="2.62" stroke-linecap="round" stroke-linejoin="round"/>
<path d="M68.32 67.6703L72.88 64.4803C73.0874 64.337 73.3294 64.252 73.5809 64.2341C73.8323 64.2161 74.0839 64.2659 74.3096 64.3782C74.5352 64.4905 74.7267 64.6613 74.8639 64.8727C75.0012 65.0841 75.0792 65.3284 75.09 65.5803L75.31 71.1303C75.3202 71.4006 75.4107 71.6617 75.57 71.8803L78.76 76.4403C78.9032 76.6477 78.9883 76.8897 79.0062 77.1411C79.0242 77.3925 78.9744 77.6442 78.8621 77.8698C78.7498 78.0955 78.579 78.2869 78.3676 78.4242C78.1562 78.5614 77.9118 78.6395 77.66 78.6503L72.1 78.8803C71.8315 78.8915 71.5715 78.9781 71.35 79.1303L66.8 82.3203C66.5932 82.4658 66.3511 82.553 66.099 82.5728C65.8469 82.5926 65.5941 82.5443 65.3672 82.4328C65.1402 82.3214 64.9473 82.1509 64.8089 81.9394C64.6704 81.7278 64.5913 81.4829 64.58 81.2303L64.36 75.6703C64.3498 75.4 64.2593 75.1389 64.1 74.9203L60.91 70.3603C60.7671 70.1536 60.6821 69.9124 60.6637 69.6618C60.6453 69.4112 60.6942 69.1602 60.8053 68.9348C60.9165 68.7095 61.0858 68.5179 61.2959 68.38C61.5059 68.242 61.749 68.1627 62 68.1503L67.56 67.9203C67.8328 67.9156 68.0977 67.8285 68.32 67.6703Z" fill="#8DDDEB" stroke="#2D1F04" stroke-width="2.62" stroke-linecap="round" stroke-linejoin="round"/>
<path d="M120.24 17.5901L123.38 15.3901C123.525 15.3009 123.69 15.2502 123.86 15.2427C124.03 15.2352 124.199 15.2712 124.351 15.3473C124.504 15.4234 124.634 15.537 124.73 15.6775C124.826 15.818 124.884 15.9807 124.9 16.1501L125.06 19.9701C125.059 20.1572 125.119 20.3396 125.23 20.4901L127.43 23.6301C127.519 23.775 127.57 23.9403 127.577 24.1103C127.585 24.2802 127.549 24.4493 127.473 24.6015C127.397 24.7537 127.283 24.884 127.143 24.98C127.002 25.076 126.839 25.1345 126.67 25.1501L122.85 25.3101C122.663 25.3094 122.481 25.369 122.33 25.4801L119.19 27.6801C119.045 27.7693 118.88 27.82 118.71 27.8275C118.54 27.835 118.371 27.799 118.219 27.7229C118.066 27.6468 117.936 27.5332 117.84 27.3927C117.744 27.2522 117.686 27.0895 117.67 26.9201L117.51 23.1001C117.511 22.913 117.451 22.7307 117.34 22.5801L115.14 19.4401C115.051 19.2952 115 19.1299 114.993 18.96C114.985 18.79 115.021 18.6209 115.097 18.4687C115.173 18.3165 115.287 18.1862 115.427 18.0902C115.568 17.9943 115.731 17.9357 115.9 17.9201L119.72 17.7601C119.907 17.7608 120.089 17.7012 120.24 17.5901Z" fill="#8DDDEB" stroke="#2D1F04" stroke-width="2.62" stroke-linecap="round" stroke-linejoin="round"/>
<path d="M50.13 223.27L53.26 221.08C53.4044 220.989 53.5698 220.936 53.7405 220.927C53.9111 220.918 54.0813 220.952 54.2347 221.027C54.3881 221.103 54.5197 221.216 54.617 221.356C54.7142 221.497 54.7738 221.66 54.79 221.83L54.94 225.66C54.952 225.843 55.0143 226.02 55.12 226.17L57.31 229.31C57.399 229.454 57.4499 229.619 57.4579 229.788C57.4659 229.957 57.4307 230.126 57.3558 230.278C57.2808 230.43 57.1684 230.56 57.0292 230.657C56.89 230.753 56.7286 230.813 56.56 230.83L52.73 230.99C52.5477 230.999 52.3713 231.058 52.22 231.16L49.08 233.36C48.9358 233.449 48.7714 233.5 48.6021 233.508C48.4329 233.516 48.2644 233.481 48.1124 233.406C47.9605 233.331 47.83 233.219 47.7334 233.079C47.6368 232.94 47.5771 232.779 47.56 232.61L47.4 228.78C47.388 228.595 47.3296 228.416 47.23 228.26L45 225.13C44.9087 224.986 44.8559 224.82 44.8466 224.65C44.8374 224.479 44.872 224.309 44.9472 224.155C45.0224 224.002 45.1357 223.87 45.2763 223.773C45.4168 223.676 45.5799 223.616 45.75 223.6L49.58 223.45C49.7771 223.446 49.9684 223.383 50.13 223.27V223.27Z" fill="#8DDDEB" stroke="#2D1F04" stroke-width="2.62" stroke-linecap="round" stroke-linejoin="round"/>
<path d="M127.31 144.73L129.93 139.98C130.048 139.765 130.222 139.586 130.433 139.462C130.644 139.337 130.885 139.271 131.13 139.271C131.375 139.271 131.616 139.337 131.827 139.462C132.038 139.586 132.212 139.765 132.33 139.98L134.91 144.75C135.037 144.979 135.228 145.167 135.46 145.29L140.2 147.91C140.414 148.03 140.593 148.205 140.717 148.416C140.842 148.628 140.907 148.869 140.907 149.115C140.907 149.361 140.842 149.602 140.717 149.814C140.593 150.025 140.414 150.2 140.2 150.32L135.43 152.9C135.199 153.021 135.011 153.209 134.89 153.44L132.27 158.18C132.15 158.394 131.975 158.573 131.764 158.698C131.552 158.822 131.311 158.887 131.065 158.887C130.819 158.887 130.578 158.822 130.366 158.698C130.155 158.573 129.98 158.394 129.86 158.18L127.29 153.42C127.163 153.188 126.972 152.997 126.74 152.87L122 150.25C121.785 150.132 121.606 149.958 121.481 149.747C121.357 149.536 121.291 149.295 121.291 149.05C121.291 148.805 121.357 148.564 121.481 148.353C121.606 148.142 121.785 147.968 122 147.85L126.77 145.27C126.997 145.144 127.184 144.957 127.31 144.73V144.73Z" fill="#FDF392" stroke="#2D1F04" stroke-width="2.62" stroke-linecap="round" stroke-linejoin="round"/>
<path d="M28.15 38.3702L30.28 34.5202C30.3739 34.3446 30.5138 34.1978 30.6846 34.0954C30.8554 33.993 31.0509 33.939 31.25 33.939C31.4492 33.939 31.6446 33.993 31.8154 34.0954C31.9863 34.1978 32.1261 34.3446 32.22 34.5202L34.32 38.3802C34.4172 38.5658 34.5667 38.7188 34.75 38.8202L38.6 41.0002C38.7753 41.0956 38.9217 41.2365 39.0237 41.4081C39.1256 41.5797 39.1795 41.7756 39.1795 41.9752C39.1795 42.1748 39.1256 42.3707 39.0237 42.5423C38.9217 42.7139 38.7753 42.8548 38.6 42.9502L34.73 45.0002C34.5403 45.0964 34.3862 45.2505 34.29 45.4402L32.16 49.2802C32.0646 49.4555 31.9237 49.6019 31.7521 49.7039C31.5805 49.8059 31.3846 49.8597 31.185 49.8597C30.9854 49.8597 30.7895 49.8059 30.6179 49.7039C30.4463 49.6019 30.3054 49.4555 30.21 49.2802L28.12 45.4202C28.0239 45.2305 27.8697 45.0764 27.68 44.9802L23.84 42.8502C23.6644 42.7563 23.5176 42.6165 23.4152 42.4456C23.3128 42.2748 23.2588 42.0794 23.2588 41.8802C23.2588 41.6811 23.3128 41.4856 23.4152 41.3148C23.5176 41.144 23.6644 41.0041 23.84 40.9102L27.7 38.8202C27.889 38.7151 28.0449 38.5592 28.15 38.3702V38.3702Z" fill="#FDF392" stroke="#2D1F04" stroke-width="2.62" stroke-linecap="round" stroke-linejoin="round"/>
<path d="M60.87 128C66.6 127.57 72.56 127.61 75.93 130.71C79.7 134.19 78.4 140.56 78.25 146.2C78.13 150.67 78.64 155.33 82.45 157.2C86.45 159.15 93 157.09 97.18 158.84C102.1 160.91 98.28 166.06 97.64 171.08C97.03 175.82 98.96 179.08 102.71 180.72C106.84 182.57 112.02 182.89 115.39 185.67C118.45 188.21 121.45 193.38 119.39 198.78C119.12 199.52 117.83 202.42 118.39 202.78C118.95 203.14 119.74 200.59 119.82 200.38C123.7 189.97 122.71 181.11 114.71 177.32C110.06 175.12 103.15 175.27 100.71 170.66C99.33 168.03 100.26 165.15 101.38 161.59C102.04 159.51 102.72 157.2 102.38 155.45C101.25 150.33 93.54 151.85 88.49 151.45C81.61 150.94 80.38 145.64 80.68 139.34C80.95 133.79 81.88 127.64 78.26 124.25C74.86 121.07 68.83 120.99 63 121.42C62.39 121.47 59.86 128.08 60.8 128.01L60.87 128Z" fill="#8DDDEB" stroke="#2D1F04" stroke-width="2.62" stroke-linecap="round" stroke-linejoin="round"/>
</g>
<defs>
<clipPath id="clip0_281_1167">
<rect width="320" height="387" fill="white"/>
</clipPath>
</defs>
</svg>
