<svg width="345" height="379" viewBox="0 0 345 379" fill="none" xmlns="http://www.w3.org/2000/svg">
<g clip-path="url(#clip0_202_1781)">
<mask id="path-1-inside-1_202_1781" fill="white">
<path d="M84.8 124.9C60.4 177.1 46.4 136 45.8 136C35.4 152.1 23 187.8 23.9 201.5C42.8 195.3 43.8 228.5 31.2 234.8C6.60002 247 11.2 218 8.50001 218.3C5.80001 218.6 -27 336.8 69.2 339.3C77.7 339.5 117.2 333.5 125.4 335.6C140.3 339.3 128.9 334.3 144.2 331.7C149.3 330.8 154.8 337 159.2 318.9C163.6 300.7 154.5 324.4 164.3 327.5C192.1 336.1 302.1 335.1 308.2 330.5C317.2 323.7 340.3 311.2 344.6 275.3C346.4 260 327.1 215.9 326.4 225.6C325.4 239.7 302.7 249.2 295.8 222.6C287.3 189.8 320.5 195.2 320.9 194.2C335.6 161.8 303.8 124.8 301.7 124.8C301.1 124.8 283.4 155 279.1 121.1C276.6 101.5 265.6 80.5002 254.4 64.5002C252.5 61.7002 238.8 44.8002 236 44.8002C234.3 44.8002 238.8 71.3002 225.5 70.5002C204.9 69.2002 181.7 18.5002 138.9 0.900158C138.6 0.800158 150.8 30.1002 124.9 53.8002C121.7 56.7002 92.4 108.7 92.4 115.9"/>
</mask>
<path d="M84.8 124.9C60.4 177.1 46.4 136 45.8 136C35.4 152.1 23 187.8 23.9 201.5C42.8 195.3 43.8 228.5 31.2 234.8C6.60002 247 11.2 218 8.50001 218.3C5.80001 218.6 -27 336.8 69.2 339.3C77.7 339.5 117.2 333.5 125.4 335.6C140.3 339.3 128.9 334.3 144.2 331.7C149.3 330.8 154.8 337 159.2 318.9C163.6 300.7 154.5 324.4 164.3 327.5C192.1 336.1 302.1 335.1 308.2 330.5C317.2 323.7 340.3 311.2 344.6 275.3C346.4 260 327.1 215.9 326.4 225.6C325.4 239.7 302.7 249.2 295.8 222.6C287.3 189.8 320.5 195.2 320.9 194.2C335.6 161.8 303.8 124.8 301.7 124.8C301.1 124.8 283.4 155 279.1 121.1C276.6 101.5 265.6 80.5002 254.4 64.5002C252.5 61.7002 238.8 44.8002 236 44.8002C234.3 44.8002 238.8 71.3002 225.5 70.5002C204.9 69.2002 181.7 18.5002 138.9 0.900158C138.6 0.800158 150.8 30.1002 124.9 53.8002C121.7 56.7002 92.4 108.7 92.4 115.9" fill="#FF6900"/>
<path d="M45.8 136V133H44.1664L43.28 134.372L45.8 136ZM23.9 201.5L20.9065 201.697L21.16 205.556L24.8351 204.351L23.9 201.5ZM31.2 234.8L32.5329 237.488L32.5417 237.483L31.2 234.8ZM69.2 339.3L69.1221 342.299L69.1294 342.299L69.2 339.3ZM125.4 335.6L124.656 338.506L124.666 338.509L124.677 338.512L125.4 335.6ZM144.2 331.7L144.703 334.658L144.712 334.656L144.721 334.655L144.2 331.7ZM159.2 318.9L162.115 319.609L162.116 319.605L159.2 318.9ZM164.3 327.5L163.395 330.36L163.404 330.363L163.413 330.366L164.3 327.5ZM308.2 330.5L310.006 332.895L310.009 332.894L308.2 330.5ZM344.6 275.3L347.579 275.657L347.579 275.651L344.6 275.3ZM326.4 225.6L323.408 225.384L323.408 225.388L326.4 225.6ZM295.8 222.6L292.896 223.353L292.896 223.353L295.8 222.6ZM320.9 194.2L318.168 192.961L318.14 193.023L318.115 193.086L320.9 194.2ZM279.1 121.1L282.076 120.723L282.076 120.721L279.1 121.1ZM254.4 64.5002L251.918 66.1847L251.93 66.2027L251.942 66.2205L254.4 64.5002ZM225.5 70.5002L225.311 73.4942L225.32 73.4948L225.5 70.5002ZM138.9 0.900158L140.041 -1.87441L139.946 -1.91344L139.849 -1.94589L138.9 0.900158ZM124.9 53.8002L126.915 56.0231L126.92 56.0183L126.925 56.0134L124.9 53.8002ZM82.0823 123.63C76.0445 136.547 70.8562 143.204 66.7222 146.238C64.7052 147.718 63.034 148.265 61.6876 148.359C60.3492 148.452 59.088 148.114 57.8528 147.414C55.2554 145.944 53.0177 143.017 51.3047 140.091C50.4772 138.677 49.8272 137.362 49.3545 136.372C49.1346 135.911 48.9108 135.431 48.7621 135.127C48.6887 134.978 48.5881 134.777 48.4809 134.595C48.4349 134.517 48.3252 134.333 48.1653 134.137C48.0896 134.044 47.9216 133.846 47.6667 133.646C47.4829 133.502 46.815 133 45.8 133V139C44.7944 139 44.1376 138.503 43.9663 138.369C43.7241 138.179 43.5704 137.996 43.5106 137.923C43.3825 137.765 43.3111 137.64 43.31 137.638C43.2924 137.608 43.3075 137.632 43.3756 137.771C43.5098 138.044 43.6721 138.396 43.94 138.957C44.4431 140.011 45.176 141.498 46.1266 143.122C47.9699 146.271 50.8696 150.356 54.8972 152.636C56.9745 153.812 59.3977 154.533 62.1038 154.344C64.802 154.157 67.5354 153.083 70.2716 151.075C75.6439 147.133 81.3555 139.354 87.5178 126.171L82.0823 123.63ZM43.28 134.372C37.8904 142.716 32.0965 155.926 27.7713 168.687C25.6005 175.092 23.7758 181.453 22.5479 187.114C21.3329 192.715 20.6534 197.845 20.9065 201.697L26.8936 201.303C26.6966 198.305 27.2296 193.835 28.4115 188.386C29.5805 182.997 31.337 176.858 33.4538 170.613C37.7035 158.075 43.3097 145.384 48.32 137.628L43.28 134.372ZM24.8351 204.351C28.6831 203.088 31.1166 203.91 32.7601 205.414C34.5958 207.095 35.9161 210.072 36.3856 213.834C36.8486 217.543 36.4267 221.619 35.2052 225.065C33.9672 228.558 32.0587 231.017 29.8584 232.117L32.5417 237.483C36.6413 235.434 39.3328 231.38 40.8605 227.07C42.4046 222.713 42.914 217.694 42.3394 213.091C41.7715 208.541 40.0855 203.986 36.8118 200.989C33.3459 197.816 28.5669 196.812 22.9649 198.65L24.8351 204.351ZM29.8671 232.113C24.0177 235.013 20.5673 235.119 18.5825 234.474C16.7 233.862 15.3862 232.32 14.4251 229.904C13.4507 227.454 13.0385 224.598 12.7 222.069C12.5448 220.91 12.3844 219.648 12.1561 218.712C12.0484 218.271 11.858 217.595 11.4734 216.98C11.0692 216.333 9.99105 215.116 8.16872 215.319L8.83131 221.282C7.34648 221.447 6.54883 220.421 6.38587 220.16C6.24255 219.931 6.25413 219.835 6.32712 220.135C6.46011 220.68 6.57554 221.539 6.75311 222.865C7.08026 225.309 7.56181 228.883 8.84998 232.122C10.1513 235.393 12.4688 238.795 16.727 240.18C20.8828 241.531 26.0824 240.687 32.5329 237.488L29.8671 232.113ZM8.16872 215.319C6.96995 215.452 6.27572 216.225 6.14103 216.372C5.88683 216.649 5.703 216.935 5.58522 217.133C5.33894 217.547 5.1121 218.04 4.90756 218.535C4.4874 219.551 4.01003 220.946 3.51087 222.631C2.50721 226.019 1.35527 230.784 0.362026 236.465C-1.62183 247.812 -3.00467 262.999 -1.21728 278.323C0.568256 293.631 5.55006 309.335 16.533 321.401C27.5876 333.545 44.4047 341.657 69.1221 342.299L69.2779 336.301C45.8953 335.693 30.7375 328.092 20.9701 317.362C11.1312 306.553 6.44427 292.219 4.74231 277.628C3.0422 263.052 4.35311 248.476 6.27238 237.498C7.2307 232.017 8.33267 227.478 9.26376 224.335C9.73199 222.754 10.1422 221.577 10.4522 220.827C10.6127 220.439 10.7116 220.251 10.7419 220.2C10.7624 220.166 10.7046 220.273 10.563 220.427C10.5409 220.452 9.94571 221.158 8.83131 221.282L8.16872 215.319ZM69.1294 342.299C71.4789 342.355 75.7462 341.992 80.7119 341.496C85.6855 341 91.8303 340.319 97.715 339.722C103.689 339.117 109.6 338.576 114.513 338.316C116.971 338.186 119.14 338.129 120.92 338.164C122.755 338.2 123.982 338.334 124.656 338.506L126.144 332.694C124.768 332.342 122.967 332.203 121.039 332.165C119.056 332.126 116.728 332.191 114.196 332.325C109.131 332.593 103.099 333.146 97.11 333.753C91.0323 334.369 85.1957 335.019 80.1162 335.526C75.0288 336.034 71.1712 336.346 69.2706 336.301L69.1294 342.299ZM124.677 338.512C128.351 339.424 130.77 339.903 132.446 339.917C133.349 339.925 134.279 339.806 135.162 339.381C136.067 338.946 136.625 338.33 136.957 337.931C137.533 337.237 137.658 336.965 138.428 336.51C139.301 335.995 141.056 335.277 144.703 334.658L143.697 328.743C139.694 329.423 137.136 330.305 135.378 331.343C133.517 332.442 132.692 333.675 132.343 334.095C132.213 334.252 132.315 334.093 132.562 333.974C132.789 333.865 132.86 333.921 132.498 333.917C131.642 333.91 129.899 333.626 126.123 332.689L124.677 338.512ZM144.721 334.655C145.432 334.529 146.183 334.642 147.684 334.84C148.977 335.011 150.892 335.246 152.882 334.606C157.145 333.233 159.92 328.639 162.115 319.609L156.285 318.191C154.08 327.262 151.905 328.617 151.043 328.895C150.47 329.079 149.779 329.065 148.469 328.892C147.367 328.746 145.518 328.421 143.679 328.746L144.721 334.655ZM162.116 319.605C162.675 317.295 163.029 315.608 163.235 314.437C163.337 313.855 163.409 313.366 163.449 312.973C163.469 312.78 163.485 312.57 163.488 312.363C163.49 312.248 163.5 311.807 163.363 311.318C163.323 311.177 163.091 310.296 162.211 309.661C161.669 309.271 160.973 309.044 160.224 309.099C159.543 309.149 159.04 309.415 158.754 309.608C158.234 309.958 157.958 310.382 157.881 310.499C157.765 310.679 157.684 310.841 157.637 310.944C157.466 311.313 157.344 311.73 157.262 312.041C157.076 312.749 156.886 313.727 156.748 314.844C156.476 317.039 156.357 320.137 157.077 323.017C157.803 325.917 159.554 329.145 163.395 330.36L165.205 324.64C164.146 324.305 163.36 323.409 162.898 321.561C162.431 319.694 162.474 317.424 162.702 315.581C162.814 314.68 162.959 313.972 163.064 313.57C163.128 313.328 163.142 313.334 163.08 313.467C163.06 313.511 163.006 313.625 162.913 313.769C162.86 313.849 162.605 314.248 162.106 314.585C161.829 314.771 161.336 315.034 160.663 315.083C159.923 315.137 159.235 314.913 158.701 314.528C157.836 313.904 157.617 313.047 157.587 312.942C157.515 312.687 157.499 312.49 157.494 312.426C157.488 312.342 157.489 312.285 157.489 312.271C157.489 312.243 157.49 312.267 157.48 312.366C157.461 312.559 157.415 312.891 157.326 313.397C157.149 314.401 156.825 315.956 156.284 318.195L162.116 319.605ZM163.413 330.366C170.728 332.629 183.13 334.193 197.437 335.236C211.837 336.286 228.451 336.825 244.364 336.95C260.276 337.075 275.529 336.787 287.208 336.177C293.041 335.873 298.027 335.485 301.774 335.022C303.642 334.791 305.258 334.534 306.542 334.246C307.183 334.102 307.789 333.939 308.326 333.75C308.818 333.577 309.45 333.315 310.006 332.895L306.394 328.105C306.569 327.973 306.617 327.991 306.333 328.091C306.094 328.175 305.733 328.278 305.226 328.392C304.215 328.619 302.815 328.848 301.038 329.067C297.493 329.506 292.667 329.884 286.895 330.185C275.365 330.788 260.236 331.075 244.411 330.95C228.586 330.826 212.107 330.29 197.873 329.252C183.545 328.207 171.772 326.671 165.187 324.634L163.413 330.366ZM310.009 332.894C318.81 326.244 343.103 313.021 347.579 275.657L341.621 274.943C337.497 309.379 315.59 321.157 306.392 328.107L310.009 332.894ZM347.579 275.651C348.099 271.237 347.099 265.151 345.521 258.973C343.915 252.687 341.604 245.917 339.223 239.961C336.855 234.039 334.356 228.766 332.337 225.533C331.827 224.717 331.312 223.972 330.803 223.358C330.349 222.812 329.687 222.102 328.841 221.662C328.39 221.427 327.672 221.156 326.791 221.234C325.816 221.32 325.019 221.799 324.477 222.422C323.604 223.425 323.457 224.708 323.408 225.384L329.392 225.816C329.431 225.279 329.517 225.771 329.003 226.361C328.639 226.779 328.053 227.146 327.318 227.211C326.677 227.267 326.228 227.066 326.073 226.985C325.817 226.852 325.853 226.789 326.185 227.189C326.461 227.522 326.818 228.023 327.248 228.711C328.988 231.497 331.332 236.387 333.652 242.189C335.958 247.958 338.179 254.476 339.707 260.458C341.263 266.549 342.001 271.713 341.621 274.95L347.579 275.651ZM323.408 225.388C323.012 230.962 318.23 235.741 312.949 236.385C310.427 236.692 307.749 236.06 305.287 233.982C302.781 231.866 300.324 228.092 298.704 221.847L292.896 223.353C294.726 230.408 297.694 235.422 301.416 238.566C305.183 241.746 309.536 242.845 313.676 242.341C321.72 241.36 328.788 234.338 329.392 225.812L323.408 225.388ZM298.704 221.848C296.685 214.056 297.268 209.014 298.798 205.734C300.309 202.498 302.962 200.509 306.113 199.266C309.31 198.005 312.852 197.584 315.759 197.444C317.208 197.373 318.425 197.375 319.397 197.362C319.847 197.356 320.331 197.347 320.724 197.312C320.905 197.296 321.219 197.262 321.553 197.172C321.715 197.128 322.02 197.035 322.356 196.842C322.661 196.666 323.325 196.215 323.685 195.314L318.115 193.086C318.462 192.216 319.098 191.794 319.359 191.643C319.651 191.475 319.896 191.405 319.985 191.381C320.169 191.331 320.275 191.328 320.193 191.335C320.061 191.347 319.799 191.356 319.319 191.363C318.432 191.374 317.056 191.374 315.469 191.451C312.305 191.604 308.003 192.07 303.912 193.684C299.775 195.316 295.698 198.19 293.361 203.197C291.044 208.162 290.665 214.744 292.896 223.353L298.704 221.848ZM323.632 195.44C331.521 178.052 326.837 159.68 320.305 146.053C317.016 139.191 313.189 133.378 310.034 129.263C308.458 127.207 307.026 125.543 305.885 124.366C305.321 123.784 304.786 123.276 304.31 122.891C304.078 122.703 303.799 122.495 303.497 122.318C303.335 122.223 302.633 121.8 301.7 121.8V127.8C301.225 127.8 300.881 127.68 300.752 127.631C300.597 127.572 300.497 127.514 300.466 127.496C300.407 127.462 300.424 127.465 300.536 127.556C300.75 127.729 301.099 128.048 301.577 128.541C302.519 129.514 303.801 130.994 305.272 132.913C308.211 136.747 311.809 142.209 314.895 148.647C321.113 161.62 324.979 177.948 318.168 192.961L323.632 195.44ZM301.7 121.8C300.973 121.8 300.449 122.063 300.26 122.164C300.024 122.292 299.852 122.425 299.761 122.499C299.578 122.649 299.442 122.794 299.379 122.863C299.239 123.017 299.108 123.183 299.016 123.303C298.82 123.558 298.567 123.908 298.303 124.273C297.752 125.033 297.027 126.036 296.163 127.134C294.387 129.391 292.231 131.781 290.139 133.156C289.104 133.837 288.293 134.128 287.711 134.181C287.244 134.223 286.819 134.132 286.306 133.696C285.704 133.183 284.892 132.102 284.094 129.949C283.304 127.818 282.597 124.825 282.076 120.723L276.124 121.478C276.678 125.85 277.465 129.329 278.468 132.035C279.463 134.719 280.745 136.841 282.416 138.264C284.177 139.763 286.206 140.342 288.254 140.156C290.187 139.98 291.952 139.145 293.436 138.169C296.382 136.232 299.032 133.19 300.878 130.844C301.825 129.641 302.614 128.549 303.163 127.791C303.449 127.396 303.642 127.13 303.773 126.959C303.844 126.867 303.848 126.867 303.81 126.908C303.798 126.922 303.706 127.024 303.558 127.145C303.485 127.205 303.328 127.327 303.106 127.447C302.93 127.541 302.418 127.8 301.7 127.8V121.8ZM282.076 120.721C279.486 100.416 268.171 78.9411 256.858 62.7798L251.942 66.2205C263.029 82.0592 273.714 102.585 276.124 121.48L282.076 120.721ZM256.882 62.8157C255.824 61.2563 251.824 56.2178 247.793 51.622C245.765 49.3096 243.662 47.0323 241.859 45.3132C240.964 44.46 240.08 43.6837 239.275 43.1012C238.874 42.8111 238.429 42.5225 237.965 42.2954C237.554 42.0948 236.849 41.8002 236 41.8002V47.8002C235.501 47.8002 235.231 47.6375 235.33 47.6859C235.374 47.7077 235.513 47.785 235.758 47.9624C236.246 48.3151 236.906 48.881 237.719 49.6559C239.331 51.1931 241.298 53.3157 243.282 55.5783C247.276 60.1325 251.076 64.944 251.918 66.1847L256.882 62.8157ZM236 41.8002C234.823 41.8002 233.996 42.4238 233.553 42.956C233.163 43.4239 232.982 43.9055 232.898 44.1616C232.723 44.6946 232.655 45.2613 232.619 45.6661C232.54 46.5349 232.525 47.7008 232.513 48.8979C232.487 51.4062 232.473 54.5298 232.12 57.6076C231.759 60.7448 231.082 63.442 229.965 65.2378C229.431 66.0957 228.85 66.662 228.23 67.0103C227.629 67.348 226.828 67.5746 225.68 67.5056L225.32 73.4948C227.497 73.6257 229.465 73.1992 231.17 72.2408C232.856 71.293 234.119 69.9203 235.06 68.4063C236.893 65.4583 237.691 61.6805 238.08 58.2927C238.477 54.8455 238.488 51.3941 238.512 48.9586C238.525 47.6839 238.542 46.7857 238.594 46.2084C238.623 45.8902 238.646 45.8883 238.598 46.0335C238.578 46.0958 238.469 46.4286 238.163 46.7963C237.803 47.2282 237.071 47.8002 236 47.8002V41.8002ZM225.689 67.5061C221.642 67.2507 216.996 64.4889 211.313 59.3304C205.708 54.2426 199.676 47.3885 192.741 39.7902C179.034 24.7723 162.133 7.2101 140.041 -1.87441L137.759 3.67473C158.467 12.1902 174.566 28.778 188.309 43.8351C195.099 51.2743 201.404 58.439 207.281 63.773C213.079 69.0365 219.058 73.0996 225.311 73.4942L225.689 67.5061ZM139.849 -1.94589C139.277 -2.13645 138.273 -2.25775 137.287 -1.63123C136.421 -1.08023 136.121 -0.287487 136.023 0.0366807C135.838 0.648804 135.905 1.16901 135.909 1.20535C135.934 1.46541 135.99 1.67843 135.999 1.7131C136.035 1.85356 136.082 2.00685 136.112 2.10491C136.192 2.36223 136.278 2.62859 136.404 3.04367C136.643 3.83173 136.973 4.98697 137.301 6.44813C137.959 9.37691 138.607 13.5219 138.501 18.3595C138.29 27.9748 135.112 40.3888 122.875 51.5869L126.925 56.0134C140.588 43.5115 144.26 29.4255 144.499 18.4908C144.618 13.0534 143.891 8.41091 143.155 5.13344C142.786 3.49147 142.415 2.1889 142.145 1.30118C142.017 0.878367 141.897 0.502347 141.844 0.329876C141.807 0.213045 141.806 0.204592 141.815 0.238594C141.819 0.253115 141.828 0.288953 141.838 0.338503C141.846 0.377429 141.867 0.485149 141.881 0.628392C141.883 0.652069 141.95 1.16314 141.767 1.76968C141.67 2.09106 141.372 2.8819 140.507 3.43189C139.523 4.0574 138.521 3.93599 137.951 3.74621L139.849 -1.94589ZM122.885 51.5772C122.421 51.9982 121.952 52.6171 121.573 53.1429C121.142 53.7423 120.632 54.4998 120.065 55.3774C118.928 57.1368 117.499 59.471 115.891 62.1849C112.672 67.6179 108.69 74.6487 104.812 81.8089C100.936 88.9644 97.1448 96.2844 94.3146 102.288C92.9015 105.286 91.7085 107.996 90.8623 110.214C90.4397 111.322 90.0883 112.347 89.8388 113.247C89.6038 114.095 89.4 115.035 89.4 115.9H95.4C95.4 115.911 95.4005 115.83 95.437 115.626C95.4719 115.432 95.5306 115.175 95.6209 114.849C95.8021 114.195 96.0834 113.362 96.4682 112.353C97.2369 110.338 98.358 107.782 99.7417 104.847C102.505 98.9846 106.239 91.7734 110.088 84.6664C113.935 77.5641 117.878 70.6012 121.053 65.2435C122.642 62.5622 124.027 60.3018 125.104 58.6342C125.645 57.7984 126.093 57.1343 126.442 56.6499C126.844 56.0918 126.979 55.9646 126.915 56.0231L122.885 51.5772Z" fill="#303032" mask="url(#path-1-inside-1_202_1781)"/>
<path d="M256.6 334.3C317.7 322.3 290.6 274.8 289.9 274.8C289.4 274.8 263.4 304 256.9 274.9C254.9 266 273.5 235.4 277.1 226.4C284.6 207.7 285.4 201.8 277 184.1C276.2 182.3 260.8 158.7 260.3 158.7C260 158.7 260.3 185.8 244.4 188C241.7 188.4 241.9 178.5 241.9 176.3C241.9 164.7 241.9 151.9 240.6 140.3C239.5 130.4 238.7 120.1 235.2 110.6C228.6 92.9004 205.2 75.2004 189.2 66.3004C184.9 63.9004 176.7 55.4004 171.6 55.4004C170.3 55.4004 171 56.0004 170.8 56.7004C168.9 63.4004 164.8 69.6004 161.2 75.5004C147.3 98.1004 130.8 119.5 116 141.6C101.2 163.8 86.3 187.2 75 211.4C70.8 220.4 82.4 262.7 73 265.7C45.2 274.9 39.9 248.2 39.7 248.3C36.7 249.3 21.9 339.1 77 339.1C77.5 339 251.3 335.3 256.6 334.3Z" fill="#FCA500"/>
<path d="M251.8 60.4999C253.8 62.0999 270.5 58.0999 272.7 61.5999C275.2 65.4999 271 74.5999 270.6 78.8999C269.3 93.3999 257.4 146.7 255.3 159.2C254.8 161.9 253.5 164.4 253.4 167.2C253.4 167.5 253.5 170.3 253.1 170.3C251.9 170.4 248.8 164.5 248.3 163.4C247.8 162.1 242.8 157.4 242.9 156.8C243.7 153.2 244.9 149.8 245.1 146C246.3 124.2 245.4 102.3 249 80.5999C249.4 78.2999 251.3 60.0999 251.8 60.4999Z" fill="#8F3F1D"/>
<path d="M178 270.4C179.4 270.9 177.5 268.8 177.4 270.5C177.2 272.9 178.1 293.6 177.6 294C177.5 294.1 154 294 151.2 293.7C141.1 292.7 130.7 292.9 120.6 293C111.6 293.1 81.7 295.2 75.9 293.1C75.1 292.8 72.5 264.7 73.4 263.3C73.5 263.2 75.9 263.5 76.2 263.6C84.3 264.4 91.4 263.3 99.5 262.6C110.2 261.7 120.3 264.3 130.9 264.3C147.3 264.4 162.6 264.6 178 270.4Z" fill="#8F3F1D"/>
<path d="M78.6 294.2C77.1 305.7 82.4 316.7 84.6 327.8C86.1 335.2 86.7 342.7 88.4 350C90 357 89 367.7 92.7 373.9C93.5 375.2 99.2 374.9 100.2 373.9C101.9 372.2 100.7 362 101 359.7C102.9 344.6 103.5 312.5 99.7 297.6C98.4 292.5 103.7 296.7 100.4 292.4C99.6 291.3 78.8 292.7 78.6 294.2Z" fill="#8F3F1D"/>
<path d="M158.3 294.4C157.4 294.7 159.7 306.5 160 307.8C160.4 309.7 160.8 311.6 161.2 313.5C164.3 329.7 164.4 346.6 168.1 362.6C168.4 363.9 170 376.5 170.6 377.1C171.4 377.9 175.8 375.9 176.8 375.9C177.5 375.9 179 376.2 179.6 375.6C181.2 374 179.9 369.8 179.7 367.8C179.3 360.7 179.3 353.4 178.7 346.4C177.5 333.5 178.8 320.5 178.8 307.6C178.8 305.6 180.1 295.8 179.2 294.6C178.7 293.8 176.1 294.4 175.2 294.3C170.4 293.5 162.9 292.7 158.3 294.4Z" fill="#8F3F1D"/>
<path d="M216.7 286.1C216.6 283.7 224.4 283.5 226.2 283C227.4 282.7 229.7 281.2 229.7 282.4C229.7 287.4 228.9 293.1 228.1 298.3C227.6 301.2 227.3 305.3 227.7 308.2C228.1 311.5 227.4 314.8 227.1 318C226.6 324.6 227 331.1 226.2 337.6C225.7 341.9 226.1 346.4 226.1 350.8C226.1 351.4 226.7 354.9 226 355C225 355.2 220.5 355.5 219.7 355C218.1 353.9 219 339.7 219 337.4C219 334.8 218.2 332.3 217.8 329.8C216.5 320.8 217.9 311.4 216.6 302.4C215.8 297.4 216.9 291.2 216.7 286.1Z" fill="#8F3F1D"/>
<path d="M208.8 76.1C211.3 73.9 224.5 76 227.7 76.1C231.7 76.2 235.6 76.1 239.6 75.8C241.6 75.7 248 75.1 249.5 76.2C251.1 77.3 248.3 82.8 248 83.9C247.8 84.8 248.2 89.4 247.6 89.6C245.2 90.3 240.7 89.5 238.2 89.4C233.5 89.1 228.4 89.3 223.7 89.7C222.2 89.8 217 90.4 215.7 89.4C213.5 87.8 212.5 83.7 211.5 81.3C211.1 80.2 208.4 76.5 208.8 76.1Z" fill="#8F3F1D"/>
<path d="M221.7 111C225.2 108.3 236.2 111 241.2 110.9C242.3 110.9 245.5 109.9 246.5 110.9C248.2 112.8 245.9 127.8 245.3 130C245.1 130.9 245.3 134.6 244.6 135.1C243.1 136 239.7 135 238 135.2C236.9 135.3 226.4 134.5 225.6 133.7C223.7 131.6 224.1 125.6 223.4 122.9C222.7 119.8 219 113.1 221.7 111Z" fill="#8F3F1D"/>
<path d="M274.9 61.7002C275.6 59.2002 278.4 65.4002 278.9 67.4002C280.3 72.8002 275.9 83.0002 274.8 88.5002C271.6 104.5 268.3 120.4 266 136.5C264.7 145.4 263.5 154.8 261.3 163.4C261 164.5 259.2 178.5 256.9 175.4C252.5 169.6 258.1 150.4 258.9 143.8C261.3 124.8 266.7 105.9 269.7 87.0002C272 73.8002 272.6 70.0002 274.9 61.7002Z" fill="#632E17"/>
<path d="M228.9 281.1C232.7 279.1 236.8 279.9 240.4 277.3C240.6 277.2 240.7 276.9 240.9 277C241.7 277.2 240.8 280.9 240.7 281.4C239.6 285.8 239.9 290.4 239.1 294.9C236.8 307.6 236.6 321.2 236.2 334.1C236.2 335.2 234.5 349.7 234.4 349.9C233.7 350.5 232.4 351.2 231.5 351.8C230.6 352.4 229.2 352.2 228.2 352.8C228 352.9 227.1 353.7 226.9 353.6C226.5 353.4 226.9 352.4 226.9 352.1C227.1 348.5 226.9 344.9 226.9 341.3C227 327.7 225.6 313.6 227.7 300.2C228.3 296.3 226.1 282.6 228.9 281.1Z" fill="#632E17"/>
<path d="M179.5 294.9C179.9 293.9 184.3 293.6 185.8 293.4C187.2 293.2 191.9 291.2 193.2 291.8C193.2 291.8 192.3 296.7 192.3 296.9C191.3 302.2 190.5 307.3 190.1 312.7C189.4 321.3 190.8 330.2 189.8 338.7C189.1 345.4 187.5 352 186.8 358.6C186.6 360.8 188.8 369.2 187.6 370C186.9 370.5 182.6 374.9 181.7 375.1C179.9 375.6 180 369.1 180 368C180 360.4 178.4 352.2 179.6 344.8C180.2 341.4 178.7 337.7 178.7 334.2C178.7 325.3 179 315.8 179.8 306.9C179.8 304 178.5 297.5 179.5 294.9Z" fill="#632E17"/>
<path d="M176.4 271.6C176.3 271.6 178.2 293.1 177.7 293.9C177.3 294.6 184.2 292.6 185.2 292.5C193.9 291.5 201.9 287.2 210.5 285.9C210.8 285.9 211 285.9 211.3 285.8C216 284.6 220.4 283.2 225.1 281.8C225.3 281.7 226.9 281.4 227 281.3C227.1 281 221.9 280.2 221.4 280.2C218 279.6 214.6 278.3 211.4 277.1C206.7 275.3 202.3 273.2 197.7 271.2C195 270 192.9 266.2 189.6 266.3C186.1 266.4 183 270.1 179.6 270.4C178.4 270.3 176.9 271.7 176.4 271.6Z" fill="#632E17"/>
<path d="M231.2 42.0002C230.9 41.7002 230.7 41.4002 230.4 41.2002Z" fill="#9D7B51"/>
<path d="M251.2 60.1001L243 164.8L251.2 60.1001Z" stroke="#2D1F04" stroke-width="2.62" stroke-miterlimit="10" stroke-linecap="round" stroke-linejoin="round"/>
<path d="M191 75.8003L219.8 75.7003L249.4 75.3003" stroke="#2D1F04" stroke-width="2.62" stroke-miterlimit="10" stroke-linecap="round" stroke-linejoin="round"/>
<path d="M199.7 89.4004L248.4 89.6004" stroke="#2D1F04" stroke-width="2.62" stroke-miterlimit="10" stroke-linecap="round" stroke-linejoin="round"/>
<path d="M208.4 110.6L247 110.7" stroke="#2D1F04" stroke-width="2.62" stroke-miterlimit="10" stroke-linecap="round" stroke-linejoin="round"/>
<path d="M211.9 134.5H245.2" stroke="#2D1F04" stroke-width="2.62" stroke-miterlimit="10" stroke-linecap="round" stroke-linejoin="round"/>
<path d="M275.1 61.1001L279.2 66.6001L276.3 80.8001L273.4 94.6001L257.7 175.5L255.7 185.9" stroke="#2D1F04" stroke-width="2.62" stroke-miterlimit="10" stroke-linecap="round" stroke-linejoin="round"/>
<path d="M100.6 374.1L105.8 369.5L106.9 325.7L102.4 319.2" fill="#632E17"/>
<path d="M100.6 374.1L105.8 369.5L106.9 325.7L102.4 319.2" stroke="#2D1F04" stroke-width="2.62" stroke-miterlimit="10" stroke-linecap="round" stroke-linejoin="round"/>
<path opacity="0.23" d="M210.9 207.6C218 204.9 224.3 199.8 231.6 197.2C237.7 195 243.5 196.1 249.5 194.7" fill="#3F2719"/>
<path opacity="0.23" d="M210.4 206.4C217.8 200.3 238.1 191.9 248.4 192.9Z" fill="#3F2719"/>
<path opacity="0.23" d="M213.1 206C218.8 203.8 222.3 197 228 194.4C235.8 191 244.2 188.8 252 185.8" stroke="#3F2719" stroke-width="2.62" stroke-miterlimit="10" stroke-linecap="round" stroke-linejoin="round"/>
<path opacity="0.23" d="M210.8 208.2C211.1 205.3 231.8 194.6 235.7 193.5C238.5 192.7 246.5 191.2 246.2 191.2" stroke="#3F2719" stroke-width="2.62" stroke-miterlimit="10" stroke-linecap="round" stroke-linejoin="round"/>
<path opacity="0.23" d="M206.1 208.9C210.9 204.9 217.1 203.1 222.7 200.7C226.8 199 230.4 197.7 234.8 197.1C251.1 195 257.2 204.2 248 219.5C240.6 231.7 205.7 250 196.1 231.4C191.9 223.3 200.7 215.1 207 211.8C219.8 205.3 235.1 204.9 242.2 219.2C249.8 234.4 240.7 248.3 226.8 255.1C221 258 213.5 256.8 207.3 256.2" stroke="#3F2719" stroke-width="2.62" stroke-miterlimit="10" stroke-linecap="round" stroke-linejoin="round"/>
<path d="M95.8 52C93.4 52 87.3 64.1 85.9 66.6C75.6 84.9 79.4 106.2 87.6 124.4C89.7 129.1 88.7 130.5 90.9 134.9C91.9 136.9 95.4 141.6 95.4 143.7C95.4 144.2 95.4 145.1 95.4 145.1C95.4 145.1 94.8 141.6 94 140.1C93.8 139.6 92.8 138.7 93.3 138.7C93.6 138.7 93.9 139.5 94 139.7C96.3 145.5 93.7 152.8 95.2 158.8C96.2 163 104.1 168 108.4 169.1C124.8 173.2 141.3 168.9 157.7 168.9C161.8 168.9 173.6 170.2 177 166.8C179.9 163.9 180.8 160.1 183.1 156.8C186.3 152.3 194.5 155.1 199.6 153.1C204.8 151 210.5 144.1 215.6 145.4C216.9 145.7 220.9 147.4 222.2 146.1C224.3 143.9 225.3 137.6 224.8 134.9C223.4 127.6 223.8 116.9 222.4 109.8C221.4 105 219.7 100.4 217.9 95.7C210.9 77.4 201.2 62.4 185.6 51C181.7 48.1 175.2 43.1 170.8 40.8C166.5 38.6 161.7 38.7 157.4 36.5C151.7 33.6 145.6 29.9001 139.5 28.4001C138 28.0001 140.1 30.7 140 31C139.8 31.4 136 31.3001 135.5 31.2001C130.4 30.2001 125.3 30.3 120.4 28.1C119.6 27.7 116.6 24.7 115.7 25C112.8 26 117.1 34.1 117.1 34.1C117.1 34.1 116.7 33.4 116.4 33.1C115 32 111.8 31.1001 110 30.7001C106.2 29.9001 104.5 32.4 101.3 33.1C100.9 33.2 97.1 34.2 97.1 34.3C97.1 35.1 103.2 36.1001 103.2 36.9001C103.2 37.6001 101.9 37.3001 101.5 37.4001C99.7 37.7001 89.4 42 90.2 44.3C90.5 45.3 96 45.3 97 46C97.3 46.2 97.9 46.2001 97.9 46.2001C97.9 46.2001 93.6 46.9001 91.5 47.4001C88.9 48.1001 84.2 53.1 88.8 53.1" fill="#CAA77A"/>
<path d="M70.1 183C70.3 182.4 70.5 180.8 71 181.2C82.2 190.9 94.5 191.3 94.5 191.4C95.5 194.7 95.4 197.2 97.3 199.1C97.9 199.7 99.8 199.8 100.1 200.9C100.4 201.9 96.4 207.4 95.9 209.3C94.6 214.3 95 220.1 96.3 225.1C99.4 237.7 111.1 236.7 118.7 244.4C120.9 246.6 121.5 251.2 122.2 253.9C122.3 254.4 121.9 258.5 122.6 258.5C124.5 258.5 126.2 251.1 127.5 249.7C134.8 242.4 138.5 232.6 149.9 229.7C160.7 227 172.5 232.5 182.9 234.6C189.5 235.9 197.1 240.7 204.6 238.8C214.2 236.4 214.4 230.5 214.4 221.3C214.4 218.8 213.4 212.4 213.6 212.4C242.3 213.1 260.6 192.6 259.7 193.6C258 195.3 263.1 205 263.6 207.3C265.3 215.8 265 223.5 262.9 231.8C262 235.5 263.8 240 262.9 243.7C258.7 260.6 243.4 285.1 222.3 279.9C215 278.1 209.5 274.3 201.9 272.8C200.2 272.5 195.4 270 194 268.9C188.9 265.1 176.9 267.7 172.4 272.1C164.7 279.8 159 287.7 153.5 297C151.8 299.8 149.4 303.1 148.6 306.5C148.4 307.3 149.1 309.1 148.2 309.7C147.3 310.3 126.1 309.2 125.8 309C122.5 306.8 126.7 281 121.9 281C120.9 281 121.9 287.8 121.9 288.4C121.9 291.4 123 309.4 121.9 310.5C121.1 311.3 116.8 310.4 115.6 310.9C112.6 312.1 103.6 315.4 100.9 312.7C98.5 310.3 97.2 305.5 96.3 302.2C94.9 296.7 89.6 293.2 88.2 287.8C86.5 281.1 83.9 274.8 82.2 268.2C81.1 264 79.8 255.8 81.8 251.7C81.9 251.5 82.5 250.6 82.2 250.3C80.2 248.3 77.6 257 66.8 253.8C53 249.8 56 233.6 56.9 229.1C59.4 216.5 62.9 201 68.6 189.7C69.3 187.7 70 183.4 70.1 183Z" fill="#CAA77A"/>
<path d="M110.4 253.8C110.9 252.9 121 247.7 121.4 250.3C122.1 254.7 121 259.5 121 264C121 264.6 121.2 270.4 121.4 270.3C122.3 269.8 125.7 251.6 128.4 250.7C131 249.8 139.8 254.3 142.4 255.6C142.6 255.7 143.7 256.1 143.5 256.7C141 261.7 134.3 267.1 131.6 272.5C131.2 273.3 126.3 281.4 126 281.3C125.7 281.1 118.7 266.8 117.2 264.8C115.8 262.8 109.5 255.7 110.4 253.8Z" fill="#B6B1AE"/>
<path d="M125.7 310.8C125.8 310.5 146.2 311.1 146.7 311.7C146.8 311.8 145.8 313.9 145.6 314.2C143.1 319.1 140.9 324.4 137.5 328.9C134.5 332.9 133.3 337.6 131.2 341.9C131 342.3 130.9 343.1 130.1 342.6C125.4 339.4 127.2 330 126.2 325.1C125.5 320.8 124.5 315.1 125.7 310.8Z" fill="#B6B1AE"/>
<path d="M102.4 316.1C102.8 315.4 120.2 310.1 121.5 312.8C123.2 316.2 122.9 338.4 120.8 341.5C119.9 342.8 115.8 338.3 115.2 337.6C112 334.4 105.2 322.8 102.9 318.3C102.7 317.9 102.2 316.4 102.4 316.1Z" fill="#B6B1AE"/>
<path d="M67.9 178.1C65.7 173.7 68.3 167.9 68.9 165.7C71.3 156.3 80.1 149.7 88.9 147.5C90.7 147 94.1 147.6 95.2 149.3C96 150.5 92.2 150.2 96.4 152.8C100.6 155.4 101.6 155.3 106.9 156.6C112.2 157.9 114.9 158.3 119.5 159.5C129.6 162.1 148.2 162.9 157.6 161C173.1 157.9 180.4 157.1 195.6 153.3C202.3 151.6 209 141.5 216.6 143.4C218.1 143.8 226.1 143.9 229.4 145.5C232.7 147.1 236.1 150.5 241.5 154.5C245.1 157.2 247.4 163.1 250.3 166.1C252.8 168.6 252.3 170.4 254.3 173.1C256.7 176.3 262.7 187.5 260.4 192C259.2 194.4 242.8 214.7 212 211.6C211.4 211.5 212.2 210.9 211.4 211.3C210.7 211.7 212.4 213.3 212.5 213.4C213.9 215.3 214.8 218.4 214.3 220.8C212.8 226.7 212.4 233.8 206.5 236.2C194.4 241 171 228.3 156.8 230.3C147.7 231.6 140.9 234.8 133.7 240.6C130.5 243.1 128.9 250.3 126.1 253.1C125.9 253.3 125.6 253.5 125.4 253.5C124.7 253.3 124.1 250.5 124 250C123.3 247.3 119.7 244.5 117.8 242.6C113 237.8 103.2 235.9 99.1 230.4C95.7 225.9 97.5 206.6 99.9 200.5C96.8 198.8 96.2 195.5 94.9 192C85 191.5 69.3 181 67.9 178.1Z" fill="#FFDB1F"/>
<path d="M212.4 204.1C233.9 203.7 242.7 199.5 251.2 190.5" stroke="#2D1F04" stroke-width="2.62" stroke-miterlimit="10" stroke-linecap="round" stroke-linejoin="round"/>
<path d="M68.7 170.7C72.5 175.9 80.8 180.5 87.3 181.6" stroke="#2D1F04" stroke-width="2.62" stroke-miterlimit="10" stroke-linecap="round" stroke-linejoin="round"/>
<path opacity="0.23" d="M99.9 202C116.7 198.6 143.3 197.2 160.4 200.1C165.6 201 185.7 211.2 187.9 206.6C191.4 199.5 175.5 199.4 172.4 198.4C156.2 193 135 192.6 118.2 195.4C115.4 195.8 97.7 202.4 99.9 202Z" fill="#3F2719"/>
<path opacity="0.23" d="M212.2 214C215.8 231.8 189.1 235 183.6 233.6C179.7 232.6 176.6 231.4 172.4 231.4C171.8 231.4 170.7 230.8 170.7 231.4C170.7 231.7 171.2 231.8 171.6 231.8C176.6 233 181.7 233.4 186.7 234.4C192.6 235.6 196.2 239.7 204.2 237.7C209.3 236.5 221 223 212.2 214Z" fill="#3F2719"/>
<path opacity="0.23" d="M152.7 231.7C129.1 242.3 104.4 238.7 96.6 225.5C100.2 232.8 111.9 241.4 117.7 245.7C121.1 248.3 122.5 252.9 123.3 256.9C123.6 258.3 122.7 262.5 123.3 261.2C128 251.9 129.7 242.2 140.2 235.9C142.3 234.6 154.7 230.8 152.7 231.7Z" fill="#3F2719"/>
<path opacity="0.23" d="M173.9 259.2C174.9 258.5 169.8 260.4 168.5 261.1C165.3 263.1 162.6 266.3 160.3 269.3C156.1 275 143.3 301 133.6 298.6C128.2 297.3 125 294.1 123.7 288.7C123.5 287.8 123.1 281 121.5 281C120.9 281 120.8 288.4 120.6 289.2C119.8 293.4 117.4 294.6 114.6 297.4C110.2 301.8 103.1 299.5 98.2 298.3C97.5 298.1 92.3 294.3 92.2 294.4C91.7 294.9 97.6 304.8 98.2 306C104.4 318.4 109 331 118.9 340.9C123.4 345.4 122.7 333.8 122.3 331.4C121.6 327.2 118.5 299 123.2 297.8C124.7 297.4 123.9 305.1 124.1 306.6C125.4 315.5 125.3 325.7 127.5 334.4C127.8 335.4 129.4 345.4 131.8 342.6C134.5 339.4 139.9 323.9 143.7 316.4C150.3 303.5 158.2 294.5 164.5 281.9C167.8 275.3 175 269.9 182.1 268.1C184.6 267.5 186.8 267.2 189.4 267.2C189.7 267.2 190.3 267.5 190.3 267.2C190.5 265.4 171.8 260.8 173.9 259.2Z" fill="#3F2719"/>
<path opacity="0.23" d="M210.4 235.3C258.4 259.4 260 153.6 212.9 144.1C212.2 144 214.3 143.7 215.1 143.7C219.8 143.7 223.6 144.1 228 146.3C239.7 152.2 247.3 163.8 255.1 174.3C257.9 178 261 187 259.8 191.5C259.4 193.1 257.2 193.7 257.6 195.4C259.1 201.6 262.9 207.1 263.6 213.9C264 218.2 262.8 223 263.6 227.2C264.2 230.2 265.5 233.4 264.9 236.7C263.2 245.4 257.8 252.3 254.6 260.4C250.7 270.1 244.2 278.1 233.9 280.6C229.5 281.7 223.9 278.7 219.7 278C197.8 274.4 179 260.5 157.7 255.2C145.4 252.1 138.4 262 131 269.4C130.2 270.2 124.7 281.6 124.1 281C119.9 276.8 121.5 261.7 123.3 257.3C125 253.1 132.1 242.8 134.6 242.2C128.6 258.2 187.1 247.2 179.9 233.7C187.5 232.7 204.4 241.7 210.4 235.3Z" fill="#3F2719"/>
<path opacity="0.2255" d="M60.9 213.4C63.3 206 58.1 223.3 57.9 224.6C57.4 228.3 57.6 232.1 57 235.8C51.5 268.5 83.8 250.2 96 246.2C102.9 243.9 113 259.7 116.1 265.8C116.5 266.6 120.6 273 120.9 273C121.9 273 128.3 256 125.1 259.1C121.9 262.2 122.5 245.2 116.1 241.4C109.8 237.6 97.6 229.8 97.2 230.2C69.1 255.7 55 232 60.9 213.4Z" fill="#3F2719"/>
<path d="M84.6 89.0001C86.6 80.9001 91.5 71.7001 98.7 70.3001C107.2 68.7001 115.1 64.6001 123.3 64.0001C129.3 63.5001 128.7 58.6001 128.7 58.6001C128.7 58.6001 133.4 61.9001 137.8 64.5001C143.3 67.8001 147.9 67.8001 153.5 66.1001C172 60.4001 183 63.6001 192.9 81.7001C194.7 85.1001 205.5 116.3 193 136.7C190.4 140.9 186.8 144.7 182 147.7C161.9 160 118.4 163.9 98.5 138.4C89 126.6 80.9 104.2 84.6 89.0001Z" fill="#FFDBAF"/>
<path d="M125.2 102.4C118.5 99.0001 109.7 118.6 110.2 123.6C111.7 141.7 139.5 146.3 152.8 135.3C167 123.6 147.5 96.5001 135.9 101.3" fill="#9D7B51"/>
<path d="M82.6 91.9001C79 98.6001 89 125.7 91.8 127.8C93.9 129.4 126.9 105.7 112.7 68.7001C112.1 67.1001 93.6 76.1001 91.2 76.6001C87.9 77.2001 84.1 89.1001 82.6 91.9001Z" fill="#9D7B51"/>
<path d="M156.2 68.3003C133.7 120.7 192.6 133.4 197.5 124.2C201.8 116.1 200.4 96.3003 192.5 82.3003C191.7 80.9003 181.9 69.0003 180.5 69.2003C169 71.2003 159.7 68.4003 156.2 68.3003Z" fill="#9D7B51"/>
<path d="M67.7 209.2V214.8" stroke="#9D7B51" stroke-width="3.87" stroke-miterlimit="10" stroke-linecap="round" stroke-linejoin="round"/>
<path d="M73.2 205.8V211.5" stroke="#9D7B51" stroke-width="3.87" stroke-miterlimit="10" stroke-linecap="round" stroke-linejoin="round"/>
<path d="M249.9 246.2V251.9" stroke="#9D7B51" stroke-width="3.87" stroke-miterlimit="10" stroke-linecap="round" stroke-linejoin="round"/>
<path d="M242.6 242.4V248.1" stroke="#9D7B51" stroke-width="3.87" stroke-miterlimit="10" stroke-linecap="round" stroke-linejoin="round"/>
<path d="M208.8 131.9V137.5" stroke="#9D7B51" stroke-width="3.87" stroke-miterlimit="10" stroke-linecap="round" stroke-linejoin="round"/>
<path d="M214.7 128.4L214.6 134" stroke="#9D7B51" stroke-width="3.87" stroke-miterlimit="10" stroke-linecap="round" stroke-linejoin="round"/>
<path d="M150.2 279L150.1 284.6" stroke="#9D7B51" stroke-width="3.87" stroke-miterlimit="10" stroke-linecap="round" stroke-linejoin="round"/>
<path d="M143.7 282.8V288.4" stroke="#9D7B51" stroke-width="3.87" stroke-miterlimit="10" stroke-linecap="round" stroke-linejoin="round"/>
<path d="M89.3 267.9V273.5" stroke="#9D7B51" stroke-width="3.87" stroke-miterlimit="10" stroke-linecap="round" stroke-linejoin="round"/>
<path opacity="0.23" d="M83.9 54.4C87.9 54.4 91.1 52.6 95 51.7C96.1 51.4 98.3 50.2 98.3 51.4C98.3 51.6 97.8 51.6 97.6 51.7C94.3 53.7 91.6 56.6 89.7 60.1C89 61.3 87.3 64.6 87.7 63.8C96.9 47 140.8 36.6 172.6 56C174.1 56.9 175.5 57.8 176.9 58.9C195.5 72.3 208.8 97 206.4 138.3C206.3 139.3 204.6 146.9 205.5 147.2C207.5 147.9 215.3 142.1 217.7 143.1C218.8 143.5 222.7 145.9 223.5 145.3C224.9 144.3 224 139 224.2 137.3C229.3 95.6 186.6 48.6 182.8 46.5C168.6 38.5 139.5 29.6 138.8 29.4C138.7 29.4 136.1 31 134.8 30.7C130 29.9 124.7 28.1 119.9 26.7C119.2 26.5 114.8 23 114.6 23.3C114.1 24.4 113.7 30.5 114.3 31.3C114.7 31.9 117 31 116.3 31C110.2 31 102.4 33 95.8 34.4C95.6 34.4 95.1 34.5 95.1 34.7C95.1 36.6 103.7 35.4 103.7 36.7C103.7 37.7 91.8 41.1 90.1 42.4C89.6 42.8 87.7 44.3 88.1 44.7C89.7 46.3 93.6 44.3 95.7 45.4" fill="#3F2719"/>
<path d="M97.3 50.8003C92.8 53.8003 90.1 58.8003 87.1 63.1003C72.3 84.3003 80.1 111.2 90.6 132.5C91.5 134.4 92.8 136.5 93.1 138.6C93.2 139.7 92.6 141.4 93.1 142.4C93.3 142.8 94.2 141.4 94.3 141.8C94.5 143.8 94.3 146 94.1 147.9C94 148.6 93.2 150.6 93.7 150.1C93.9 149.9 94.4 148.3 95.1 148.5C95.5 148.6 95.7 151.9 95.5 153" stroke="#2D1F04" stroke-width="2.62" stroke-miterlimit="10" stroke-linecap="round" stroke-linejoin="round"/>
<path d="M95.9 51.4001C93.7 52.5001 92.3 52.5001 90 53.2001C88.9 53.5001 88 53.9001 86.9 54.2001C85.8 54.4001 84.8 54.5001 83.8 54.8001C83.3 54.9001 82.4 55.7001 82.4 55.2001C82.4 53.7001 94.2 47.0001 96.5 46.3001C96.8 46.2001 97.4 46.2001 97.5 45.9001C97.7 45.4001 96.6 45.4001 96.1 45.3001C93.9 44.7001 88.5 46.5001 86.7 45.1001C86.2 44.7001 90.2 42.3001 90.4 42.1001C92.9 40.7001 95.3 38.9001 98 38.1001C99.6 37.6001 102.9 38.8001 102.9 37.1001C102.9 35.1001 94 35.8001 93.3 35.1001C93.2 35.0001 93.6 35.0001 93.7 34.9001C95.7 33.9001 98 33.0001 100.2 32.5001C104.3 31.5001 111.5 30.6001 115.5 31.9001" stroke="#2D1F04" stroke-width="2.62" stroke-miterlimit="10" stroke-linecap="round" stroke-linejoin="round"/>
<path d="M153.7 66.1999C193.5 63.2999 199.2 95.3999 199.2 95.3999" stroke="#2D1F04" stroke-width="7.6" stroke-miterlimit="10" stroke-linecap="round" stroke-linejoin="round"/>
<path opacity="0.948" d="M115.8 68.1001C105.5 68.5001 98 72.0001 92.5 76.5001C81.2 85.8001 78.7 99.6001 78.7 99.6001" stroke="#2D1F04" stroke-width="7.6" stroke-miterlimit="10" stroke-linecap="round" stroke-linejoin="round"/>
<path d="M120.5 103.6C120.4 101 125.3 98.7003 131.6 98.4003C137.8 98.1003 143 99.9003 143.1 102.5C143.2 105.1 138.3 107.4 132 107.7C125.8 108 120.6 106.2 120.5 103.6Z" fill="#251707"/>
<path d="M116 160.5V161V161.5V161.9V162.4V162.9" stroke="#2D1F04" stroke-width="2.62" stroke-miterlimit="10" stroke-linecap="round" stroke-linejoin="round"/>
<path d="M80.8 180.7L80.7 181.1L80.5 181.6L80.3 182L80.1 182.4L79.9 182.9" stroke="#2D1F04" stroke-width="2.62" stroke-miterlimit="10" stroke-linecap="round" stroke-linejoin="round"/>
<path d="M222.7 204.9L222.8 205.4L222.9 205.9L223.1 206.3L223.2 206.8L223.3 207.2" stroke="#2D1F04" stroke-width="2.62" stroke-miterlimit="10" stroke-linecap="round" stroke-linejoin="round"/>
<path d="M228.8 203.4L229 203.8L229.1 204.3L229.2 204.7L229.3 205.2L229.5 205.7" stroke="#2D1F04" stroke-width="2.62" stroke-miterlimit="10" stroke-linecap="round" stroke-linejoin="round"/>
<path d="M176.9 158.4V158.9V159.4V159.8V160.3V160.8" stroke="#2D1F04" stroke-width="2.62" stroke-miterlimit="10" stroke-linecap="round" stroke-linejoin="round"/>
<path d="M167.8 160.1V160.6V161.1V161.5V162V162.5" stroke="#2D1F04" stroke-width="2.62" stroke-miterlimit="10" stroke-linecap="round" stroke-linejoin="round"/>
<path d="M123.9 161.5V161.9V162.4V162.9V163.4V163.8" stroke="#2D1F04" stroke-width="2.62" stroke-miterlimit="10" stroke-linecap="round" stroke-linejoin="round"/>
<path d="M128.2 161.8V162.3V162.8V163.3V163.7V164.2" stroke="#2D1F04" stroke-width="2.62" stroke-miterlimit="10" stroke-linecap="round" stroke-linejoin="round"/>
<path d="M165.4 90.1C165.1 90.1 164.8 90 164.5 90Z" fill="#2D1F04"/>
<path d="M100.8 86.5C107 86.5 112 91.5 112 97.7V98.4C112 104.6 107 109.6 100.8 109.6C94.6 109.6 89.6 104.6 89.6 98.4V97.7C89.6 91.5 94.6 86.5 100.8 86.5Z" fill="white"/>
<path d="M100.8 86.5C107 86.5 112 91.5 112 97.7V98.4C112 104.6 107 109.6 100.8 109.6C94.6 109.6 89.6 104.6 89.6 98.4V97.7C89.6 91.5 94.6 86.5 100.8 86.5Z" stroke="#2D1F04" stroke-width="2.6" stroke-miterlimit="10" stroke-linecap="round" stroke-linejoin="round"/>
<path d="M174.3 85.2002C180.5 85.2002 185.5 90.2002 185.5 96.4002V97.1002C185.5 103.3 180.5 108.3 174.3 108.3C168.1 108.3 163.1 103.3 163.1 97.1002V96.4002C163 90.2002 168.1 85.2002 174.3 85.2002Z" fill="white"/>
<path d="M174.3 85.2002C180.5 85.2002 185.5 90.2002 185.5 96.4002V97.1002C185.5 103.3 180.5 108.3 174.3 108.3C168.1 108.3 163.1 103.3 163.1 97.1002V96.4002C163 90.2002 168.1 85.2002 174.3 85.2002Z" stroke="#2D1F04" stroke-width="2.6" stroke-miterlimit="10" stroke-linecap="round" stroke-linejoin="round"/>
<path d="M127.5 112C128 116.8 136.1 115.5 136.1 111.7" stroke="#2D1F04" stroke-width="2.6" stroke-miterlimit="10" stroke-linecap="round" stroke-linejoin="round"/>
<path d="M93.5 147.8C86.6 147.8 72.4 151.6 67.7 173.8C66.3 180.6 70.3 180.6 70.3 180.6" stroke="#2D1F04" stroke-width="2.62" stroke-miterlimit="10" stroke-linecap="round" stroke-linejoin="round"/>
<path d="M95.4 151.4C146.9 176.1 203.8 148.1 203.8 148.1" stroke="#2D1F04" stroke-width="2.62" stroke-miterlimit="10" stroke-linecap="round" stroke-linejoin="round"/>
<path d="M123 287.1C119.9 280.9 120.9 264.1 126.7 252.1C145.3 213.1 193.4 239.3 202.4 238.3C218.6 236.5 213.9 213.2 213.9 213.2" stroke="#2D1F04" stroke-width="2.62" stroke-miterlimit="10" stroke-linecap="round" stroke-linejoin="round"/>
<path d="M203.4 179C206.1 187.1 210.3 195.4 211.5 203.8C212.1 208.2 208.4 211.7 213.8 213.5" stroke="#2D1F04" stroke-width="2.62" stroke-miterlimit="10" stroke-linecap="round" stroke-linejoin="round"/>
<path d="M96.2 152.7C97.3 157.3 94 159.5 98.8 161.8C115.8 170 150 174.1 176.6 165.9" stroke="#2D1F04" stroke-width="2.62" stroke-miterlimit="10" stroke-linecap="round" stroke-linejoin="round"/>
<path d="M99.6 200.8C83.6 253.7 130 225 122 264.3" stroke="#2D1F04" stroke-width="2.62" stroke-miterlimit="10" stroke-linecap="round" stroke-linejoin="round"/>
<path d="M82.5 250.9C76.5 268.9 109.1 336.6 119.7 343.1C124.9 346.3 121.2 318 121.2 278.7" stroke="#2D1F04" stroke-width="2.62" stroke-miterlimit="10" stroke-linecap="round" stroke-linejoin="round"/>
<path d="M227.8 354.7L235.1 349.5L241.1 276.6" stroke="#2D1F04" stroke-width="2.62" stroke-miterlimit="10" stroke-linecap="round" stroke-linejoin="round"/>
<path d="M181.1 375.7L186.9 371C186.9 371 192.6 290 192 291.4" stroke="#2D1F04" stroke-width="2.62" stroke-miterlimit="10" stroke-linecap="round" stroke-linejoin="round"/>
<path d="M97.5 169C97.5 177.1 89.6 195.7 99.8 200.8" stroke="#2D1F04" stroke-width="2.62" stroke-miterlimit="10" stroke-linecap="round" stroke-linejoin="round"/>
<path d="M129.1 249.5C136.7 251.2 139 252.5 144.4 256.9" stroke="#2D1F04" stroke-width="2.62" stroke-miterlimit="10" stroke-linecap="round" stroke-linejoin="round"/>
<path d="M135.4 252.3C127.7 261.7 125.1 271.4 122.5 282.9" stroke="#2D1F04" stroke-width="2.62" stroke-miterlimit="10" stroke-linecap="round" stroke-linejoin="round"/>
<path d="M110.4 254.1C112.6 250.9 117.3 249.4 121.1 249.1" stroke="#2D1F04" stroke-width="2.62" stroke-miterlimit="10" stroke-linecap="round" stroke-linejoin="round"/>
<path d="M115.6 250.4C120.2 257.7 119.7 267 121.7 275" stroke="#2D1F04" stroke-width="2.62" stroke-miterlimit="10" stroke-linecap="round" stroke-linejoin="round"/>
<path d="M127.4 310.5C133.6 310.5 140 309.9 146.1 311.2" stroke="#2D1F04" stroke-width="2.62" stroke-miterlimit="10" stroke-linecap="round" stroke-linejoin="round"/>
<path d="M135.3 311.2C134.9 312.5 127.2 338.3 129.2 340.3" stroke="#2D1F04" stroke-width="2.62" stroke-miterlimit="10" stroke-linecap="round" stroke-linejoin="round"/>
<path d="M102.9 314.5C108.7 313.6 115.6 309.5 121.6 311.4" stroke="#2D1F04" stroke-width="2.62" stroke-miterlimit="10" stroke-linecap="round" stroke-linejoin="round"/>
<path d="M111.3 312.4C112.4 319.2 115.5 337.6 120.9 342.8" stroke="#2D1F04" stroke-width="2.62" stroke-miterlimit="10" stroke-linecap="round" stroke-linejoin="round"/>
<path d="M124.1 201.8H124.7C133 201.8 139.7 203.3 139.7 205.3C139.7 207.2 133 208.8 124.7 208.8H124.1C115.8 208.8 109.1 207.3 109.1 205.3C109.1 203.3 115.8 201.8 124.1 201.8Z" fill="#FCBC3D"/>
<path d="M155.7 34.9004C157.9 36.7004 223.4 60.3004 219.9 142.7C219.9 143.3 224.8 144.3 224.8 143.1C224.8 135.9 223.1 117.6 222.1 112.2C216.8 84.0004 199.6 50.8004 155.7 34.9004Z" fill="#FCBC3D"/>
<path d="M225.4 144.2C273.4 180.7 272.1 281.1 220.4 278.7C228.2 281.4 230.3 279.7 231.1 279.6C266.9 272.4 267.6 221.2 258.6 194.3C258 192.6 262.4 192.7 261.5 189.9C260.1 185.2 253.9 171.5 251.8 167.2C243.1 148.7 228.6 144.9 225.4 144.2Z" fill="#FCBC3D"/>
<path d="M183.4 263.6C183.4 263.6 157.5 265.4 135 334C135 334.1 134.9 334.2 134.9 334.3C134 337.1 133.1 340 132.2 342.9C169.4 257.1 188.5 266.8 188.5 266.8L183.4 263.6Z" fill="#FCBC3D"/>
<path d="M66.3 193C61.9 216.7 58 226 59.9 239.2C60.7 245 62.9 253.1 68.7 255C69.2 255.2 70.2 255.3 70.2 255.3C70.2 255.3 67.9 255 67 254.4C63.2 252.1 58.2 246.6 57.3 242.1C54.6 229.2 59 210.2 66.3 193Z" fill="#FCBC3D"/>
<path d="M267.8 62C268.5 71.7 253.3 162.5 252 167.3C251.1 170.8 251.1 170.6 253.9 169.2C254.2 169.1 254.1 163.7 254.2 163C255 156.6 274.1 63 273.8 62.3C273.7 61.6 267.8 61.3 267.8 62Z" fill="#FCBC3D"/>
<path d="M175.1 294.9L178.6 375.8L179.2 295.1L178.9 271.2L173.1 273.3L175.1 294.9Z" fill="#FCBC3D"/>
<path d="M224.1 283L225.5 357.8L228.2 282.4L228.1 281.5L224.1 283.4V283Z" fill="#FCBC3D"/>
<path d="M75.3 264.1L77.1 293.1L81.4 294L93.5 373.5L78.1 295.4L74.1 293.5L72.4 263.6" fill="#FCBC3D"/>
<path d="M123.3 288.9C123.3 285.7 134.7 249.3 161.7 254.7C182.6 258.9 218.4 290.4 238.7 277.7C242.5 275.3 277.3 252.6 259.6 194.4" stroke="#2D1F04" stroke-width="2.62" stroke-miterlimit="10" stroke-linecap="round" stroke-linejoin="round"/>
<path d="M197.7 156C200.6 147.2 211 144.2 216.9 143.5C235 141.4 252.9 163.2 260.8 188.2C262 192 258.2 195 258.5 195.2" stroke="#2D1F04" stroke-width="2.62" stroke-miterlimit="10" stroke-linecap="round" stroke-linejoin="round"/>
<path d="M157.8 34.9004C206.9 51.4004 225.2 102.6 224.8 142.9" stroke="#2D1F04" stroke-width="2.62" stroke-miterlimit="10" stroke-linecap="round" stroke-linejoin="round"/>
<path d="M116.1 32.9002C114.9 30.6002 112.9 26.7002 113.9 24.0002C114 23.9002 114.9 22.9002 115.1 23.0002C115.9 23.4002 116.5 24.8002 117.5 25.4002C121.4 27.5002 125.7 29.0002 130 30.0002C132.5 30.6002 135.1 30.8002 137.6 31.4002C138.2 31.5002 139.4 31.6002 139.4 31.6002C139.4 31.6002 136 28.5002 137.2 27.8002C137.4 27.7002 147.3 31.4002 148.2 31.8002C155.2 34.6002 162.4 36.2002 169 39.5002" stroke="#2D1F04" stroke-width="2.62" stroke-miterlimit="10" stroke-linecap="round" stroke-linejoin="round"/>
<path d="M69.8 181.6C67.3 190.3 40.7 254.5 70.7 255.6C83.1 256 101.5 224.6 120.9 276.8" stroke="#2D1F04" stroke-width="2.62" stroke-miterlimit="10" stroke-linecap="round" stroke-linejoin="round"/>
<path d="M252.7 60.4004L274.6 61.0004C274.6 61.0004 261.4 127 254.2 172.1" stroke="#2D1F04" stroke-width="2.62" stroke-miterlimit="10" stroke-linecap="round" stroke-linejoin="round"/>
<path d="M156.6 294.2L179.7 294.1L228.3 281.8L226.9 355.5H219.3L216.6 285.6" stroke="#2D1F04" stroke-width="2.62" stroke-miterlimit="10" stroke-linecap="round" stroke-linejoin="round"/>
<path d="M189.3 267.3C160.4 267.3 147.5 315.3 130.8 343.1C128.5 346.9 124.4 323.4 124.4 285.5" stroke="#2D1F04" stroke-width="2.62" stroke-miterlimit="10" stroke-linecap="round" stroke-linejoin="round"/>
<path d="M157.9 295.8L170.3 376.7L180.3 376.5L178.7 294.7" stroke="#2D1F04" stroke-width="2.62" stroke-miterlimit="10" stroke-linecap="round" stroke-linejoin="round"/>
<path d="M91.1 293.9L77.9 293.6L91.6 374.1L100.1 374.4L100.3 368.1L101.9 315.9" stroke="#2D1F04" stroke-width="2.62" stroke-miterlimit="10" stroke-linecap="round" stroke-linejoin="round"/>
<path d="M81.4 262.5L72.5 263.1L74.6 293.9L79.5 293.6" stroke="#2D1F04" stroke-width="2.62" stroke-miterlimit="10" stroke-linecap="round" stroke-linejoin="round"/>
<path d="M120.2 188.8C127.5 189 134.1 189 140.6 189.3C145.9 189.5 147.4 192.9 147.1 196.1C146.7 200.5 144 203.5 139.1 205.1C138.8 205.2 138.6 205.2 138.1 205.4C143.1 208.2 143.2 213.8 146.5 218.9C142.6 218.9 139.1 218.8 135.5 218.8C133.6 215.5 132.1 212.3 130.7 209.2C130 207.5 129 206.2 126.1 206.7C125.3 210.5 124.8 214.4 125.1 218.8C121.7 218.8 118.6 218.7 115.2 218.7C114.4 208.6 118.4 198.5 120.2 188.8ZM129 195C128.6 197 128.1 198.8 127.5 201C129.7 200.9 131.7 200.9 133.8 200.7C135.6 200.5 136.8 199.4 137.2 198C137.6 196.5 136.8 195.3 135 195.1C133.1 194.9 131.1 195 129 195Z" fill="#2D1F04"/>
<path d="M176.4 197.4C173.1 197.6 170.2 197.7 167.1 197.9C167 195.4 165.6 194.1 163 194C161.3 194 159.9 194.4 159.1 196.2C159 197.6 159.9 198.1 161.1 198.4C163.3 199 165.5 199.5 167.7 200.1C168.9 200.4 170.1 200.9 171.3 201.4C178.7 204.6 177 213.1 171.1 217C169.1 218.3 166.7 219.2 164.5 219.6C160.9 220.2 157.3 220 153.8 219C149.2 217.7 146.3 213.7 147 208.8C149.9 208.7 152.9 208.5 156 208.4C156.1 209 156.2 209.5 156.3 210.1C157.1 213 160.2 214.4 163.3 213.3C164.7 212.8 165.8 211.9 166 210.5C166.2 209.2 165.5 208.3 164.3 207.8C163.3 207.4 162.2 207.1 161.2 206.8C159 206.1 156.8 205.6 154.8 204.8C150.9 203.2 149.4 200.4 150.2 197.1C151.1 193.4 154 190.4 158.4 189.2C162.5 188.1 166.6 188.1 170.6 189.3C174.7 190.5 176.5 193.1 176.4 197.4Z" fill="#2D1F04"/>
<path d="M174.3 99.0004C175.57 99.0004 176.6 97.9706 176.6 96.7004C176.6 95.4301 175.57 94.4004 174.3 94.4004C173.03 94.4004 172 95.4301 172 96.7004C172 97.9706 173.03 99.0004 174.3 99.0004Z" fill="#2D1F04"/>
<path d="M100.8 99.9003C102.07 99.9003 103.1 98.8705 103.1 97.6003C103.1 96.33 102.07 95.3003 100.8 95.3003C99.5298 95.3003 98.5 96.33 98.5 97.6003C98.5 98.8705 99.5298 99.9003 100.8 99.9003Z" fill="#2D1F04"/>
</g>
<defs>
<clipPath id="clip0_202_1781">
<rect width="345" height="379" fill="white"/>
</clipPath>
</defs>
</svg>
