<svg xmlns="http://www.w3.org/2000/svg" viewBox="0 0 336.44 402.58"><defs><style>.cls-1{isolation:isolate;}.cls-2,.cls-3,.cls-5{fill:#fff;}.cls-2,.cls-3{stroke:#fff;stroke-width:20px;}.cls-13,.cls-15,.cls-18,.cls-2,.cls-20,.cls-21,.cls-22,.cls-24,.cls-25,.cls-26,.cls-27,.cls-28,.cls-7{stroke-linecap:round;}.cls-13,.cls-15,.cls-18,.cls-2,.cls-20,.cls-21,.cls-22,.cls-24,.cls-26,.cls-27,.cls-28,.cls-7{stroke-linejoin:round;}.cls-25,.cls-3{stroke-miterlimit:10;}.cls-4{fill:#d1a1cf;}.cls-6{fill:#3f2719;mix-blend-mode:multiply;opacity:0.23;}.cls-13,.cls-15,.cls-18,.cls-20,.cls-24,.cls-25,.cls-7{fill:none;}.cls-13,.cls-15,.cls-21,.cls-22,.cls-26,.cls-27,.cls-28,.cls-7{stroke:#2d1f04;}.cls-21,.cls-22,.cls-7{stroke-width:2.62px;}.cls-8{fill:#caa77a;}.cls-9{fill:#ffdbaf;}.cls-10{fill:#9d7b51;}.cls-11,.cls-21{fill:#ffdb1f;}.cls-12{fill:#2d1f04;}.cls-13{stroke-width:7.6px;}.cls-14{fill:#251707;}.cls-15,.cls-24{stroke-width:2.6px;}.cls-16{fill:#d2d2d2;}.cls-17{fill:#e5e5e5;}.cls-18{stroke:#8463aa;}.cls-18,.cls-25{stroke-width:2px;}.cls-19{fill:#8463aa;}.cls-20{stroke:#9d7b51;stroke-width:3.87px;}.cls-22{fill:#472d07;}.cls-23{fill:#ff8a8a;}.cls-24,.cls-25{stroke:#251707;}.cls-26{fill:#8dddeb;}.cls-26,.cls-27,.cls-28{stroke-width:2.62px;}.cls-27{fill:#fdf392;}.cls-28{fill:#dba7e8;}</style></defs><g class="cls-1"><g id="Layer_2" data-name="Layer 2"><g id="Layer_2-2" data-name="Layer 2"><g id="sloth_congrats"><g id="outline"><path class="cls-2" d="M326.44,291.43a581.28,581.28,0,0,0-14.22-61.31c.32-13.14-3.55-22.07-9-27.17-.79-2.09-1.53-4-2.22-5.68a17.69,17.69,0,0,1,.05-2.85,8.59,8.59,0,0,0-.32-3.18,7.45,7.45,0,0,0-4.93-5.6h0c-3.15-10.85-9.06-28.5-13.25-40.08-5.7-15.71-19.11-35.8-33.19-46l-18.44-65L233,36.1a1.25,1.25,0,0,0,2-1L234.87,28a1.26,1.26,0,0,1,.52-1l5.78-4.15a1.25,1.25,0,0,0-.36-2.22L234,18.47a1.23,1.23,0,0,1-.83-.81L231,10.87a1.25,1.25,0,0,0-2.22-.33l-4.07,5.83a1.24,1.24,0,0,1-1,.54l-7.12-.05a1.26,1.26,0,0,0-1,2l4.3,5.68a1.28,1.28,0,0,1,.19,1.15l-2.25,6.75A1.25,1.25,0,0,0,219.4,34l2.25-.78L210,51.31l-.49,0-4.94,7.48.55,0L191.18,80.27a9.39,9.39,0,0,1-1.12-2.61c-.2-.28-.34-.37-.51-.34a10.91,10.91,0,0,0-1.24,7.38l-1,1.55c-6.55-2.42-17.74-.09-17.74-.09l.51.34a24.44,24.44,0,0,1,4.4,2.14c1.53,1.07,2.78,2.41,2.6,3.9-8.34-3.16-16.43,3.94-16.43,3.94l.51.34s8.24-1.35,11.59.5a2.37,2.37,0,0,1,.76,1c-12.83,2.43-17.56,11-17.56,11l.5.34a19.33,19.33,0,0,1,9.9-1.88c-8.36,11.39-10.7,30.49-11,37.35s1.39,15.56,3.55,21.8a.42.42,0,0,0,.17.18,171.75,171.75,0,0,0,10.29,26c3.61,7.54,1.33,8.06,1.33,8.06s-16.93,3.09-27.86,24l-3.54-19.68-22.45,3.25,8.88,49.36a3.31,3.31,0,0,0-1.94,2c-2.2,4.82-.48,9.89.93,14-.13.28-.26.57-.38.85h0l0,.1c-8.3,18.92-11.57,35-9.7,46.45,1.41,11.15,7.51,18.19,19.61,18.81-4.23,2.21-8.08,3.84-10.41,3.93a15.31,15.31,0,0,1-7.76-1.62c-11.07-15-30.66-20.39-30.66-20.39-.24.08,0,.33,0,.33C95.58,333.79,107.64,370,107.64,370s3.11,9.64,9.13,10.56c12.83-.82,9-7.28,27.86-6.77s39.9-7.21,41.4-9.27c0,0,.05,0,.06-.05,1.45-1.16,3.46,3.05,5.35,8.18C193,377.4,195,383.82,195,383.88c4.79,15.58,12.17,6.1,29,3,16.26-3,39.77,3.66,58-5.26s28.22-12.54,37.67-26.1c0,0,2-43.21.47-59.19A37.42,37.42,0,0,0,326.44,291.43Z"/><path class="cls-3" d="M98.19,187.15c2.72,1.37,3.59,4.5,4.53,7.17a9.08,9.08,0,0,0,1.9,2.88c.19.2,1.3,1.36,1,.41-2.22-6.29-6.13-14.76-13.69-15.45-10.41-1-19.18,4.31-28.61,7.6-4.72,1.65-9.89,2.67-14.79,1.19-1.93-.57-4.74-1.65-5.7-3.58-1-2.08-.7-5.25.25-7.27a7.34,7.34,0,0,1,9.2-3.78c2,.71,1.26,2.84.27,4.39a5,5,0,0,1-4.24,2.45c.35,0,1.61,4.13,2.94,4.09a5.64,5.64,0,0,0,5.23-5.71c0-2.72-2.05-5.51-3.89-7.33a7.74,7.74,0,0,0-13.29,4.93c-.62,6.28,4.75,13,10.3,15.31,8.45,3.54,17.33-.77,25.09-4.06a48,48,0,0,1,15.73-4.12C93,186.1,95.82,186,98.19,187.15Z"/><path class="cls-3" d="M122.83,113.3c4.14,1.29,8.79,3,11.92,6.13,1.22,1.23,2.63,3.36,1.64,5.15-.83,1.52-3,2.73-4.25,3.89-5.27,4.77-15.19,14.82-8.45,22.27.7.77,8.21-6.27,7.29-7.29-2.72-3-2.71-8.12-.25-11.38a49.36,49.36,0,0,1,4.4-3.91,59,59,0,0,0,5.36-5.48c2.81-3.29,5.15-6.89,1.54-10.54-3.33-3.37-8.43-5.1-12.86-6.41s-9.51-1.94-12.64-5.49c-1.39-1.56-2.56-4.47-.21-6,9.66-4.43,21.1-3.5,31.38-.94,1.25.31,3.45-2.3,4.22-3.07.25-.25,3.48-4.11,3.07-4.22a58.74,58.74,0,0,0-27.46-.34A30.21,30.21,0,0,0,116.67,90c-3.34,2.38-7.1,5.76-8.82,9.57C103.67,108.83,116.94,111.47,122.83,113.3Z"/><path class="cls-3" d="M58.55,148c1-1.23.74-1.56-.67-.82-1.86,1-1.76,1.68-3.55,2.22a10.76,10.76,0,0,1-1.7.17,15.12,15.12,0,0,1-3.35-.34,24.17,24.17,0,0,1-5.71-1.74,10.23,10.23,0,0,1-5.93-8.11c-.07-.48-3.89,2.21-4.15,2.42-.79.64-3.37,2.35-3.21,3.58.9,6.54,6.66,9,12.55,10C49.14,156.49,54.61,152.7,58.55,148Z"/><path class="cls-3" d="M124.39,59.63c-.4-.27-1,4.37-1,4.7-.05,1-.53,4.07.49,4.78,5.43,3.74,11.15,1.17,15.85-2.51,5-3.94,5.95-10.53,5.15-16.59-.21-1.61-.66-1.6-1.06-.06-.52,2,0,2.43-.76,4.11a9.74,9.74,0,0,1-1,1.37,14.9,14.9,0,0,1-2.51,2.25,24,24,0,0,1-5.14,3A10.2,10.2,0,0,1,124.39,59.63Z"/><path class="cls-3" d="M39.49,87.33a9.14,9.14,0,0,1-.68-9.79c.72-1.31-1.26.19-1.49.38a13.68,13.68,0,0,0-3.41,3.7c-2.81,5.18-1.22,11.73,4.5,14.07,1.5.62,3.07,1,4.55,1.74A47.07,47.07,0,0,1,47.41,100a11.89,11.89,0,0,1,3.35,2.75,4.74,4.74,0,0,1,.79,1.53,3.6,3.6,0,0,1,.12,1.46c-.26.82-1.52,2-.74,2.09.94.11,3-2.37,3.48-2.91,2-2.11,3.54-4.67,1.55-7.37-1.81-2.45-5.47-4.25-8.14-5.51C44.76,90.64,41.63,90.21,39.49,87.33Z"/><path class="cls-3" d="M95,67c5,9.37,4.3,19.81,2.32,29.9s-5.2,20-4.52,30.34c.57,8.68,4.78,20.21,15.06,20.56,1.66,0,3.74-3.11,4.65-4.25.29-.37,3.5-5.46,3.11-5.48-10.83-.36-14.87-13-15-22-.16-10.33,3.2-20.31,5-30.39,1.72-9.63,1.86-19.58-2.85-28.43A35.41,35.41,0,0,0,80.63,39.77c-1.4-.36-3.94,3.36-4.65,4.25-.27.34-3.77,5.31-3.12,5.48A35.38,35.38,0,0,1,95,67Z"/><path class="cls-3" d="M76.82,107.63a.9.9,0,0,1-.49-.21l-2.92-2.35a1,1,0,0,0-1.54.63l-.41,3.73a1,1,0,0,1-.2.5l-2.35,2.92a.94.94,0,0,0,.63,1.53l3.73.41a1,1,0,0,1,.49.2l2.92,2.36a1,1,0,0,0,1.54-.64l.41-3.73a1,1,0,0,1,.2-.49l2.36-2.92a1,1,0,0,0-.64-1.54Z"/><path class="cls-3" d="M89.34,215.84l2.92,2.36a1,1,0,0,0,1.54-.64l.4-3.73a.9.9,0,0,1,.21-.49l2.35-2.92a1,1,0,0,0-.63-1.54l-3.73-.4a1,1,0,0,1-.5-.21L89,205.92a.94.94,0,0,0-1.53.63L87,210.28a1,1,0,0,1-.2.49l-2.36,2.93a.94.94,0,0,0,.64,1.53l3.73.41A1,1,0,0,1,89.34,215.84Z"/><path class="cls-3" d="M63.28,171.18h5.2a1.32,1.32,0,0,1,.7.2l4.37,2.81a1.32,1.32,0,0,0,2-1.11v-5.19a1.36,1.36,0,0,1,.2-.71l2.81-4.37a1.31,1.31,0,0,0-1.11-2H72.29a1.28,1.28,0,0,1-.71-.21l-4.37-2.8a1.31,1.31,0,0,0-2,1.1v5.2a1.25,1.25,0,0,1-.21.7l-2.8,4.37A1.32,1.32,0,0,0,63.28,171.18Z"/><path class="cls-3" d="M126.16,167.92a1,1,0,0,1-.53-.15l-3.29-2.11a1,1,0,0,0-1.52.83v3.9a1,1,0,0,1-.15.53l-2.11,3.29a1,1,0,0,0,.83,1.52h3.9a1,1,0,0,1,.53.16l3.29,2.1a1,1,0,0,0,1.52-.83v-3.9a.92.92,0,0,1,.16-.53l2.1-3.29a1,1,0,0,0-.83-1.52Z"/><path class="cls-3" d="M29.42,115.65,24.55,113a1.41,1.41,0,0,1-.55-.56l-2.65-4.89a1.41,1.41,0,0,0-2.47,0l-2.69,4.87a1.44,1.44,0,0,1-.56.56l-4.89,2.64a1.41,1.41,0,0,0,0,2.47l4.87,2.69a1.48,1.48,0,0,1,.55.56l2.65,4.9a1.41,1.41,0,0,0,2.47,0L24,121.33a1.37,1.37,0,0,1,.56-.56l4.89-2.65A1.41,1.41,0,0,0,29.42,115.65Z"/><path class="cls-3" d="M72.1,82.65a1.36,1.36,0,0,1,.26.75L72.58,89a1.41,1.41,0,0,0,2.22,1.09l4.55-3.19a1.43,1.43,0,0,1,.75-.25l5.56-.23a1.41,1.41,0,0,0,1.1-2.21l-3.19-4.56a1.36,1.36,0,0,1-.26-.75l-.22-5.56a1.4,1.4,0,0,0-2.21-1.09L76.32,75.4a1.43,1.43,0,0,1-.75.25L70,75.88a1.41,1.41,0,0,0-1.1,2.21Z"/><path class="cls-3" d="M125.34,30.31a.87.87,0,0,1,.17.51l.16,3.83a1,1,0,0,0,1.52.75l3.14-2.19a1,1,0,0,1,.52-.18l3.82-.15a1,1,0,0,0,.76-1.52l-2.2-3.14a.87.87,0,0,1-.17-.52l-.16-3.82a1,1,0,0,0-1.52-.76l-3.14,2.2a1,1,0,0,1-.52.17l-3.82.16a1,1,0,0,0-.76,1.52Z"/><path class="cls-3" d="M63.12,233.9a1,1,0,0,1-.18-.51l-.15-3.83a1,1,0,0,0-1.53-.75L58.13,231a1,1,0,0,1-.52.18l-3.83.15a1,1,0,0,0-.75,1.53l2.2,3.13a1,1,0,0,1,.17.52l.16,3.83a1,1,0,0,0,1.52.75l3.14-2.2a1,1,0,0,1,.51-.17l3.83-.16a1,1,0,0,0,.75-1.52Z"/><path class="cls-3" d="M135.28,161.14l2.57,4.77a1.38,1.38,0,0,0,2.41,0l2.62-4.74a1.36,1.36,0,0,1,.54-.55l4.77-2.58a1.37,1.37,0,0,0,0-2.4L143.46,153a1.36,1.36,0,0,1-.55-.54l-2.58-4.77a1.37,1.37,0,0,0-2.4,0l-2.62,4.74a1.36,1.36,0,0,1-.54.55L130,155.57a1.38,1.38,0,0,0,0,2.41l4.74,2.62A1.36,1.36,0,0,1,135.28,161.14Z"/><path class="cls-3" d="M31.84,50.57l3.84,2.13a1,1,0,0,1,.44.44L38.21,57a1.11,1.11,0,0,0,1.95,0l2.13-3.85a1.07,1.07,0,0,1,.44-.43l3.86-2.1a1.1,1.1,0,0,0,0-1.94l-3.85-2.13a1.07,1.07,0,0,1-.43-.44l-2.1-3.86a1.1,1.1,0,0,0-1.94,0l-2.13,3.84a1,1,0,0,1-.44.44l-3.86,2.09A1.11,1.11,0,0,0,31.84,50.57Z"/><path class="cls-3" d="M138.1,205a21,21,0,0,0-8.73-1.78c1.89-8.24.13-15-6.58-18.17-4.65-2.2-11.56-2-14-6.66-1.38-2.63-.45-5.52.67-9.07.66-2.08,1.34-4.39,1-6.14-1.13-5.12-8.84-3.6-13.89-4-6.88-.51-8.11-5.82-7.81-12.12C89,141.54,90,135.39,86.33,132c-3.4-3.18-9.43-3.27-15.26-2.83-.61.05-3.14,6.66-2.2,6.58,5.73-.43,11.69-.38,15.06,2.72,3.77,3.47,2.47,9.85,2.32,15.49-.12,4.47.39,9.12,4.2,11,4,2,10.55-.11,14.73,1.64,4.92,2.07,1.1,7.22.46,12.24-.61,4.74,1.32,8,5.07,9.64,4.13,1.84,9.31,2.17,12.68,4.95a12.85,12.85,0,0,1,4.69,9.89,18,18,0,0,0-11.27,5.48S132.93,211.56,138.1,205Z"/></g><g id="sloth"><polyline class="cls-4" points="187.27 86.58 227.82 24.01 249.58 100.71"/><path class="cls-5" d="M209.46,51.6l-4.94,7.48a70.61,70.61,0,0,1,36.64,14.09l-2.84-10A41,41,0,0,0,209.46,51.6Z"/><path class="cls-5" d="M199.61,67.6l-4.94,7.62s27.88.54,53.45,21.22l-4.24-12.68C225.43,69.63,199.61,67.6,199.61,67.6Z"/><path class="cls-5" d="M220.23,36.7l-3.81,6.53s9.21-.11,18.66,9.42l-2.27-8.44C227.22,36.33,220.23,36.7,220.23,36.7Z"/><polyline class="cls-6" points="226.36 96.74 227.41 22.89 249.17 99.6"/><polyline class="cls-7" points="187.26 86.66 227.81 24.08 249.57 100.78"/><path class="cls-8" d="M107.64,369.1s1.65,10.62,9.13,11.77c12.83-.82,9-7.28,27.86-6.77s40.11-7.28,41.43-9.3c2.82-2.42,7.81,15.89,9.86,21.42,4.25,11.45,10.07,4.16,28.17.81,16.26-3,39.78,3.66,58-5.26s28.21-12.53,37.66-26.1c3.6-26.78,1.12-57.67-1.19-71.89-15.36-18.27-91.78-26.26-91.78-26.26L156,280.1l-17.88,58.17s-6.9,6.19-14.56,6.48-11.13-4.2-11.13-4.2Z"/><path class="cls-6" d="M107.84,368.89s1.65,10.62,9.14,11.77c12.82-.82,9-7.28,27.85-6.77s40.11-7.28,41.43-9.3C187,364,209,353,203.86,353c-28.35,0-48.31-25.61-48.31-25.61s-24.13,16.87-31.79,17.17-11.13-4.2-11.13-4.2Z"/><path class="cls-6" d="M215.86,378.68c-8.15,3.08-12.44,1.32-12.5-7.9.24,1.15-8.65,12.46-8.37,13.37,4.79,15.58,12.17,6.1,29,3,16.26-3,39.77,3.66,58-5.26s28.22-12.53,37.67-26.1c2.9-21.64,1.84-45.94.11-62,0,0-15.66,10.6-22,11.73C315.38,386.93,262.65,361,215.86,378.68Z"/><path class="cls-8" d="M173.36,223.12c19.46,7.13,81.7,6,100.62-2.44,8.33-3.72,27.86-8.49,23.63-27.82-1.76-8-9.8-32.39-15.1-47-6.39-17.61-22.46-40.73-38.32-49.32s-19.92-8-28.76-9.85c-2.05-.44-9.91-1.93-8.14-6.17-4.14-.22-5.51,5.37-5.51,5.37s-9.66-.16-11.72-7.93a10.73,10.73,0,0,0-.48,9.78c-6-3.75-19.51-.94-19.51-.94s8,2.77,7.52,6.38c-8.34-3.16-16.43,3.94-16.43,3.94S172.65,95.2,174,98.93c-12.83,2.43-17.56,11-17.56,11a19.33,19.33,0,0,1,10.65-1.82s-4.92,5.23-8.83,16.57c-9.16,26.61,5.12,55.68,11.06,68.67,4.15,9.07,4.68,14,4.62,16.08C173.92,210.39,168.4,221.3,173.36,223.12Z"/><path class="cls-6" d="M278.06,217.89c8.33-3.73,23.27-6,19-25.37-1.76-8-9.79-32.39-15.1-47-6.38-17.61-22.46-40.73-38.31-49.32s-19.92-8-28.76-9.85c-2.06-.44-9.91-1.93-8.15-6.17-4.13-.22-5.5,5.37-5.5,5.37s-9.66-.16-11.73-7.92a10.67,10.67,0,0,0-.47,9.77c-6-3.75-19.51-.94-19.51-.94s7.94,2.77,7.51,6.39c-8.34-3.17-16.43,3.93-16.43,3.93s11.49-1.89,12.86,1.85c-12.83,2.42-17.56,11-17.56,11a19.25,19.25,0,0,1,10.65-1.81l-9.5,20.79c16.55-38,65.23-31.1,78.19-23.84C274.19,126.55,277.09,162.88,278.06,217.89Z"/><path class="cls-8" d="M147.6,234.13c-41.07,60.18-44.86,107.83-9,106.39.28,0,17.39-42.87,34.14-88.78C175.33,244.54,147.6,234.13,147.6,234.13Z"/><path class="cls-6" d="M124.3,275.25c-15.45,37.81-15.08,67.65,14.86,65.28.4-5.4-7.5-6.16-7.12-15.11C117.91,318.51,119.24,303.76,124.3,275.25Z"/><path class="cls-7" d="M147.6,234.13c-41.39,60.66-44.92,108.59-8.17,106.35"/><path class="cls-9" d="M159.35,141.93c7.49-17.37,18-29.44,52.43-29.45,17.19,0,42.93,8.41,49.65,20.58,2.25,4.07,14.87,38-10.67,57.2-19,14.22-60.42,17.1-82.35-5.89C157.91,173.36,155.62,157.13,159.35,141.93Z"/><path class="cls-10" d="M195.6,149.59c-6.8-3.41-13.15,13.63-12.61,18.56,1.88,16.92,23.48,22.31,37.25,12.29,16.21-11.78-4.42-36.22-16.25-31.48"/><path class="cls-10" d="M156.43,141.12c-3,7-.22,18.45,2.44,26.12.89,2.56,42.32-8.5,31.51-46.05-.47-1.62-14.9-.51-25.69,8.18A32.36,32.36,0,0,0,156.43,141.12Z"/><path class="cls-10" d="M216.87,118.35c-11.84,55.87,47.92,52.09,47.92,52.09s6.14-23.29-3.6-36.93c-.91-1.28-12-12.38-18.82-15.74C231.81,112.59,218.92,111.05,216.87,118.35Z"/><path class="cls-7" d="M173.19,210.79s1.49-4.41-4.45-17.4-20.23-42.06-11.06-68.67c3.9-11.34,8.83-16.57,8.83-16.57A19.3,19.3,0,0,0,155.86,110s4.73-8.61,17.56-11c-1.37-3.73-12.86-1.84-12.86-1.84S168.65,90,177,93.15c.43-3.61-7.51-6.38-7.51-6.38S183,84,189,87.71a10.75,10.75,0,0,1,.47-9.78c2.07,7.77,11.73,7.93,11.73,7.93s1.37-5.59,5.5-5.37c-1.76,4.24,6.09,5.73,8.15,6.17,8.84,1.89,12.91,1.27,28.76,9.85s31.93,31.71,38.31,49.32,15.86,49.54,15.86,49.54"/><path class="cls-11" d="M170.66,201.45s-25.92,4.71-34.31,42.09c15.47-.22,28.45,13.06,28.45,13.06s-11.81,15-10.11,47.16c28.47,16,122.6,20.09,171.75-12.05C317.69,243,306.87,212,300.7,196.9c1.69-9.29-4.94-11-4.94-11s-25.25,25-57.19,32.71c-26.47,6.37-55.93-1.14-66.47-9A14.64,14.64,0,0,0,170.66,201.45Z"/><g id="Layer_2-3" data-name="Layer 2"><g id="Layer_2-2-2" data-name="Layer 2-2"><path class="cls-12" d="M181,246.65c5.61.15,10.3.21,14.73.47,3.71.21,4.48,2.83,3.71,5.33-1.09,3.43-3.88,5.74-7.76,6.85-.2.06-.41.09-.77.19,2.91,2.25,1.68,6.65,4,10.7l-8.11-.53a21.22,21.22,0,0,1-2.18-7.48c-.13-1.32-.52-2.33-2.77-2-1.55,2.86-2.87,5.84-2.7,9.13-2.57-.1-4.93-.15-7.52-.17C171.89,260.63,178.61,254.63,181,246.65Zm5.88,4.78a49.63,49.63,0,0,1-2.5,4.51c1.61-.06,3.1,0,4.65-.17a4,4,0,0,0,3.1-2c.62-1.15.33-2.07-1-2.22C189.7,251.42,188.26,251.39,186.83,251.43Z"/><path class="cls-12" d="M220.15,253.72l-7,.37c.34-2-.54-3.06-2.32-3.1a3.24,3.24,0,0,0-3.1,1.67c-.34,1.13.24,1.55,1,1.79,1.44.46,2.95.89,4.46,1.39a15.25,15.25,0,0,1,2.41,1.07c4.9,2.62,2.23,9.49-2.51,12.52a13.18,13.18,0,0,1-5.1,1.89,16.51,16.51,0,0,1-7.92-.77,6,6,0,0,1-3.79-8.16l6.57-.07c0,.48-.08.91-.06,1.33.06,2.32,2.22,3.51,4.7,2.7a3.54,3.54,0,0,0,2.4-2.18,1.69,1.69,0,0,0-.78-2.21,19.54,19.54,0,0,0-2.11-.88,34.38,34.38,0,0,1-4.23-1.72c-2.42-1.36-2.73-3.58-1.55-6.16a10.7,10.7,0,0,1,6.65-6.07,14.55,14.55,0,0,1,8.64.11C219.54,248.24,220.92,250.2,220.15,253.72Z"/></g></g><path class="cls-13" d="M214.91,115.52c34.84-.33,48,18.4,48,18.4"/><path class="cls-13" d="M192.18,117.12a50,50,0,0,0-38,23"/><path class="cls-14" d="M191.08,149.47c-.1-2.29,4.06-4.37,9.3-4.65s9.56,1.36,9.67,3.65-4.06,4.37-9.29,4.65S191.19,151.76,191.08,149.47Z"/><path class="cls-15" d="M226.82,141.3c4-5.05,13.66-5.88,19.39.63"/><path class="cls-15" d="M166.6,143.06c6.63-6.63,16.21-3,17.77-1.92"/><path class="cls-6" d="M281.81,198s10.88-7.94,12.6-10.27c1.88-2.55,7.07,1.11,6.6,6.94s1,4.15,1.49,7.84C294.35,194.44,281.81,198,281.81,198Z"/><path class="cls-7" d="M300.09,195.49c2.19-6.06-4.08-10-5.25-8.85-7,7-33.41,31.32-65.33,33.63-36.91,2.66-57-10.27-57-10.27-9.46,2.11-2.67,11.27-2.67,11.27S183,234.13,229.16,231"/><path class="cls-7" d="M171.54,201.29c-17.61,2.84-29.33,23-32.11,34.1,4.4-.55,13.31.75,19.32,6"/><path class="cls-6" d="M301.43,268.92s9.66,24.44.66,35.15c8-3,16.37-4.77,24.35-12.36-2.23-12.31-11.89-53.92-14.52-61.68C312.11,250.92,301.43,268.92,301.43,268.92Z"/><path class="cls-7" d="M300.09,195.49c10.46,19.48,19.75,70.12,26.35,96.22-20.14,18-111.12,38.47-171.75,12.05-1.43-26.14,3-37.49,13.55-52.18-4-19.65,1.41-29.82,1.41-29.82"/><path class="cls-16" d="M173.36,332c8.51,8.54,19.6,46.11,21.14,50.29s11.14-17.23,12.55-22.07S181.37,334,173.36,332Z"/><path class="cls-7" d="M173.36,332c14,21.78,19.6,46.11,21.14,50.29s12.52-17,12.55-22.07C207.1,351.73,181.84,335.22,173.36,332Z"/><path class="cls-16" d="M85.29,322.86c10.29,11.2,22.35,47.45,22.35,47.45s9.06-5.18,10.16-24.33C107.23,328.89,85.29,322.86,85.29,322.86Z"/><path class="cls-6" d="M85.34,322.53c10.3,11.2,22.35,47.45,22.35,47.45s9.06-5.18,10.16-24.33C107.28,328.56,85.34,322.53,85.34,322.53Z"/><path class="cls-7" d="M85.29,322.86c15.6,22.43,22.35,47.45,22.35,47.45s12.55-13.21,9.9-25.93C103.18,327.12,85.29,322.86,85.29,322.86Z"/><path class="cls-7" d="M203,352.65c.32,0,8.42,3.83,13.54.4,14.19-9.48,25.41-34.26,70.64-27.16"/><path class="cls-6" d="M167.87,248.93c4.5,8.92,12.56,5.84,40.5,5.78,24.19-.37,16.13,9.61-6.49,5.7-12.23-2.23-32.26-5.7-41.22,3.42C163.47,257.72,166,256.45,167.87,248.93Z"/><path class="cls-7" d="M319.71,296.39a213.26,213.26,0,0,1,0,59.28s-6.86,11.56-28.88,22.35c-23.33,11.43-39.93,8.22-57.94,8.31-17.42.08-26.34,7.51-31.57,7-3.61-.36-6.82-11-6.82-11"/><path class="cls-7" d="M187.4,364c-21.71,12.88-45.7,8.58-54.72,11.22s-11,6.28-18.33,5.51c-3.74-.39-6.71-10.46-6.71-10.46"/><path class="cls-7" d="M115.91,342.49c11.58,5.82,11.82-1.52,19.72-2"/><path class="cls-7" d="M155.38,298s-11.46,54.26,31.3,65.82"/><path class="cls-17" d="M117.91,210.23l24.76,139.06s12.89,8.11,21.7-3.94L139.26,205.78S133.15,215.64,117.91,210.23Z"/><polyline class="cls-18" points="119.88 228.17 119.06 219.16 122.53 228.17 125.13 219.83 128.14 227.91 130.33 220.15 134.6 227.04 135.78 218.51 140.65 225.45 139.66 215.9 141.14 223.72"/><polyline class="cls-18" points="127.52 268.66 126.7 259.65 130.16 268.66 132.77 260.32 135.78 268.39 138.31 260.16 142.23 267.53 143.42 259 148.29 265.93 147.3 256.38 148.77 264.2"/><path class="cls-19" d="M116.81,209l1.3,8.48c10.66,6,21-1.42,21-1.42l-1.19-8S129.05,214.87,116.81,209Z"/><path class="cls-19" d="M120.1,227l1.36,8.4A19.57,19.57,0,0,0,142,233.06l-1.19-8S132.29,231.16,120.1,227Z"/><path class="cls-19" d="M124.39,249.91l1.3,8.48c10.66,6,21.61-2,21.61-2l-1.68-8.85A19.6,19.6,0,0,1,124.39,249.91Z"/><path class="cls-19" d="M126.13,266.76l7.29,34.33c11.21,7.84,21.44-2.28,21.44-2.28l-5.72-34S138.68,272,126.13,266.76Z"/><path class="cls-4" d="M134.4,308.93l1.91,10.72c9.4,10.07,22.26,5.19,22.26,5.19l-1.19-8S143.4,321.07,134.4,308.93Z"/><path class="cls-4" d="M133.35,300.7l.22,1.22c9.39,10.06,22.25,5.18,22.25,5.18l-1.19-8S146.32,307.6,133.35,300.7Z"/><path class="cls-4" d="M133.35,302.33l8.29,46.35c11.59,8.36,21.21-3.47,21.21-3.47l-8.22-44.51S146.32,309.23,133.35,302.33Z"/><path class="cls-4" d="M138.68,328.89l1.91,10.72c9.4,10.06,22.26,5.18,22.26,5.18l-1.19-8S147.68,341,138.68,328.89Z"/><path class="cls-7" d="M134,301.23s13.16,6.61,21.37-3.23"/><path class="cls-6" d="M141.7,349.06c2,1.27,10.58,8.38,21.84-4.15l-25.1-139.56a13.92,13.92,0,0,1-6.78,5.05s18.78,108,19.11,113.09C134.22,328,141.7,349.06,141.7,349.06Z"/><path class="cls-7" d="M116.94,210,141.7,349.06s12.89,8.11,21.7-3.94L138.3,205.56S132.19,215.41,116.94,210Z"/><path class="cls-16" d="M134.4,309.54s-5.64,21,2,27c15.57,6.81,24.28-8.34,25.6-14.28s-.29-7.44-2.07-7.35C149.22,323.66,136.14,322.11,134.4,309.54Z"/><path class="cls-6" d="M133,322.53s-4.08,7.23,3.6,13.25c15.56,6.82,25.43-8.41,25.43-19.39C155.32,330.23,134.77,335.1,133,322.53Z"/><path class="cls-7" d="M134.4,309.29s-5.64,20.64,2,26.67c15.57,6.81,24.28-8.34,25.6-14.28s-.29-7.43-2.07-7.35C149.22,323.08,136.14,321.86,134.4,309.29Z"/><g id="left_paw"><path class="cls-16" d="M139.88,293.27s-20.19-12.63-16.13-32.86c10,12.63,19,21.41,30.41,20.23"/><path class="cls-7" d="M144.28,295.54s-24.21-9.12-20.53-35.13c8.09,13.91,18,20.57,29.48,21"/><path class="cls-7" d="M149.14,288.84c-10,.13-20.42-8.94-25.58-26.8"/><path class="cls-8" d="M246.24,253.72C225.88,301,212.16,302,157.88,281.43c-8.42-1.9-15.56,1.11-18,11.84,11.34,11.15,65,43.46,90.51,38.18s52.84-29.29,63.19-57.91c0,0,7-10.52-15.74-24.55C257.53,236.44,246.24,253.72,246.24,253.72Z"/><line class="cls-20" x1="258.04" y1="275.25" x2="254.65" y2="281.3"/><line class="cls-20" x1="264.35" y1="275.52" x2="261.21" y2="281.3"/><line class="cls-20" x1="190.09" y1="205.35" x2="190.51" y2="210.32"/><line class="cls-20" x1="183.94" y1="203.3" x2="184.37" y2="208.27"/><line class="cls-20" x1="271.19" y1="350.61" x2="264.57" y2="352.68"/><line class="cls-20" x1="276.86" y1="361.57" x2="270.24" y2="363.64"/><line class="cls-20" x1="269.31" y1="357.58" x2="263.06" y2="359.63"/><path class="cls-11" d="M244.76,253.15s-3.42-4.07-2.76-6.62c2.5-9.75,11.08-31.94,21.64-40.37,9.24-7.37,24-11.56,34.75-6.27,11.23,5.52,19.52,23.45,9.06,56-2.21,6.89-8.34,16-8.34,16a4.27,4.27,0,0,1-4.52,1.94,154,154,0,0,0-20.82-13.42C267.7,257.27,259.6,253.79,244.76,253.15Z"/><path class="cls-7" d="M243.26,242.2s18-1.44,33.15,8.72"/><path class="cls-7" d="M251,248.05a8.17,8.17,0,0,1,1.16-4.65"/><path class="cls-7" d="M256.1,249a6.54,6.54,0,0,1,.82-4.54"/><path class="cls-7" d="M268.28,253.27a8.75,8.75,0,0,1,1.4-5.82"/><path class="cls-6" d="M290.44,263.47c-39,78.88-95.94,62-147.75,22.93-1,1.28-3.42,4.05-2.81,7.7,11.34,11.15,65,43,90.51,37.71s52.84-29.28,63.19-57.9c0,0,5.23,1.34,10.57-9,.65-1.25,19.6-42.49-3.36-64.13-5.31-2.68-16.78-4.53-23.71-1.67C310.76,209.71,290.44,263.47,290.44,263.47Z"/><path class="cls-7" d="M245.49,253.27c-15.75,36.75-23.17,54.24-88.68,28.11a16.58,16.58,0,0,0-17.38,11.73c11.34,11.15,65.42,43.62,91,38.34s52.84-29.29,63.19-57.91"/><path class="cls-7" d="M245.77,253.27s-4.43-4.19-3.77-6.74c2.5-9.75,11.08-31.94,21.64-40.37,9.24-7.37,24-11.56,34.75-6.27,11.23,5.52,19.52,23.45,9.06,56-2.21,6.89-5.17,12.82-8.34,16-1.05,1.07-2.31,1.68-5.53,1.17"/></g><path class="cls-7" d="M133,324.53s10.63,17.2,29-8.14"/><path class="cls-7" d="M87,324.07s26.75,15.17,28.6,33"/><path class="cls-7" d="M175.22,333.21s25.62,19.3,27.48,37.1"/><path class="cls-7" d="M176.22,212.33s-2.07,3.52-.71,7"/><path class="cls-7" d="M182.21,214.87s-1.19,3.57,0,6.48"/><path class="cls-7" d="M194.9,218.66a12.35,12.35,0,0,0,0,6.75"/><path class="cls-7" d="M220.05,220.72a5.19,5.19,0,0,0,0,4.31"/><path class="cls-7" d="M225.5,220.72a5.19,5.19,0,0,0,0,4.31"/><path class="cls-21" d="M233,36.37l-5.73-4.22a1.25,1.25,0,0,0-1.15-.18L219.4,34.3a1.25,1.25,0,0,1-1.6-1.58L220.05,26a1.28,1.28,0,0,0-.19-1.15l-4.3-5.68a1.25,1.25,0,0,1,1-2l7.12,0a1.24,1.24,0,0,0,1-.54l4.07-5.83a1.25,1.25,0,0,1,2.22.33l2.16,6.79a1.24,1.24,0,0,0,.83.82l6.81,2.07a1.25,1.25,0,0,1,.36,2.21l-5.78,4.15a1.23,1.23,0,0,0-.52,1l.13,7.11A1.25,1.25,0,0,1,233,36.37Z"/><path class="cls-22" d="M116.81,209s8-9.39,21.29-3.77C131.3,214.21,116.81,209,116.81,209Z"/><path class="cls-14" d="M197.71,158.26c-3.55,6.06-9.22,1.17-9.42,1-4.86,13.67,5.86,19.4,12.62,20.48,7,1.12,16.53-1.34,20.29-9.62,1.47-3.25,1.47-10.49-2.32-13-.21-.14-3.38,5.39-4.37,5.84C209.15,165.39,199.54,163.46,197.71,158.26Z"/><path class="cls-23" d="M196.84,175.23s4.27,3.7,12.48,1.77a14.14,14.14,0,0,0,9.08-6.86s-3.1-2.85-9.19-2.16A17,17,0,0,0,196.84,175.23Z"/><path class="cls-24" d="M198.11,152.67c-2.8,10.77,14.74,13.69,20.29,5.52"/><path class="cls-25" d="M210.27,166.25s-5.26,1.79-4,6.7"/></g><g id="Confetti"><path class="cls-26" d="M51.22,187.52a5.64,5.64,0,0,0,5.23-5.71c0-2.72-2.05-5.51-3.89-7.33a7.74,7.74,0,0,0-13.29,4.93c-.62,6.28,4.75,13,10.3,15.31,8.45,3.54,17.33-.77,25.09-4.06a48.28,48.28,0,0,1,15.73-4.12c2.58-.17,5.43-.31,7.8.88,2.72,1.37,3.59,4.5,4.53,7.17a9.08,9.08,0,0,0,1.9,2.88c.19.2,1.3,1.36,1,.41-2.22-6.29-6.13-14.76-13.69-15.45-10.41-1-19.18,4.31-28.61,7.6-4.72,1.65-9.89,2.67-14.79,1.2-1.93-.58-4.74-1.66-5.7-3.59s-.7-5.25.25-7.27a7.35,7.35,0,0,1,9.2-3.78c2,.71,1.26,2.84.27,4.39a5,5,0,0,1-4.24,2.46c.35,0,1.61,4.12,2.94,4.08Z"/><path class="cls-26" d="M155,86.24a58.74,58.74,0,0,0-27.46-.35,30.21,30.21,0,0,0-10.86,4.39c-3.34,2.38-7.1,5.76-8.82,9.57-4.18,9.25,9.09,11.89,15,13.72,4.14,1.29,8.79,3,11.92,6.13,1.22,1.23,2.63,3.36,1.64,5.15-.83,1.52-3,2.74-4.25,3.9-5.27,4.76-15.19,14.81-8.45,22.26.7.77,8.21-6.27,7.29-7.29-2.72-3-2.71-8.12-.25-11.37a49.34,49.34,0,0,1,4.4-3.92,59,59,0,0,0,5.36-5.48c2.81-3.29,5.15-6.89,1.54-10.54-3.33-3.37-8.43-5.1-12.86-6.41s-9.51-1.94-12.64-5.48C115.14,99,114,96,116.32,94.46,126,90,137.42,91,147.7,93.52c1.25.32,3.45-2.3,4.22-3.07.25-.25,3.48-4.11,3.07-4.21Z"/><path class="cls-27" d="M30.28,145.67c.9,6.54,6.66,9,12.55,10,6.31,1.07,11.78-2.72,15.72-7.39,1-1.24.74-1.57-.67-.82-1.86,1-1.76,1.67-3.55,2.21a10.76,10.76,0,0,1-1.7.17,15.73,15.73,0,0,1-3.35-.33,24.67,24.67,0,0,1-5.71-1.75,10.23,10.23,0,0,1-5.93-8.11c-.07-.47-3.89,2.21-4.15,2.42-.79.64-3.37,2.35-3.21,3.58Z"/><path class="cls-27" d="M123.86,69.38c5.43,3.74,11.15,1.17,15.85-2.5,5-3.94,5.95-10.54,5.15-16.6-.21-1.6-.66-1.6-1.06-.06-.52,2,0,2.43-.76,4.11a9.74,9.74,0,0,1-1,1.37A14.9,14.9,0,0,1,139.51,58a24,24,0,0,1-5.14,3,10.23,10.23,0,0,1-10-1.08c-.4-.28-1,4.36-1,4.69-.05,1-.53,4.07.49,4.78Z"/><path class="cls-28" d="M33.91,81.89C31.1,87.07,32.69,93.62,38.41,96c1.5.62,3.07,1,4.55,1.74a45.11,45.11,0,0,1,4.45,2.62,11.69,11.69,0,0,1,3.35,2.74,4.69,4.69,0,0,1,.79,1.54,3.55,3.55,0,0,1,.12,1.45c-.26.82-1.52,2-.74,2.09.94.11,3-2.36,3.48-2.91,2-2.11,3.54-4.67,1.55-7.37-1.81-2.45-5.47-4.25-8.14-5.51-3.06-1.44-6.19-1.87-8.33-4.75a9.13,9.13,0,0,1-.68-9.78c.72-1.32-1.26.18-1.49.37a14,14,0,0,0-3.41,3.7Z"/><path class="cls-28" d="M72.86,49.77A35.38,35.38,0,0,1,95,67.3c5,9.37,4.3,19.81,2.32,29.9s-5.2,20-4.52,30.34c.57,8.68,4.78,20.22,15.06,20.56,1.66.06,3.74-3.11,4.65-4.25.29-.37,3.5-5.46,3.11-5.48-10.83-.36-14.87-13-15-22-.16-10.33,3.2-20.32,5-30.4,1.72-9.63,1.86-19.58-2.85-28.43A35.37,35.37,0,0,0,80.63,40.05c-1.4-.37-3.94,3.35-4.65,4.25-.27.34-3.77,5.3-3.12,5.47Z"/><path class="cls-27" d="M71.46,109.71l.41-3.73a1,1,0,0,1,1.54-.64l2.92,2.35a.9.9,0,0,0,.49.21l3.73.4a1,1,0,0,1,.64,1.54l-2.36,2.92a1,1,0,0,0-.2.5L78.22,117a1,1,0,0,1-1.54.64l-2.92-2.35a.9.9,0,0,0-.49-.21l-3.73-.4a1,1,0,0,1-.63-1.54l2.35-2.92A1,1,0,0,0,71.46,109.71Z"/><path class="cls-27" d="M87,210.55l.41-3.73a.94.94,0,0,1,1.53-.63l2.92,2.35a1,1,0,0,0,.5.21l3.73.4a1,1,0,0,1,.63,1.54l-2.35,2.92a.9.9,0,0,0-.21.49l-.4,3.73a1,1,0,0,1-1.54.64l-2.92-2.35a.9.9,0,0,0-.49-.21l-3.73-.41a.94.94,0,0,1-.64-1.53l2.36-2.92A1,1,0,0,0,87,210.55Z"/><path class="cls-28" d="M65.19,164.35v-5.2a1.31,1.31,0,0,1,2-1.1l4.37,2.8a1.28,1.28,0,0,0,.71.21h5.19a1.31,1.31,0,0,1,1.11,2l-2.81,4.37a1.39,1.39,0,0,0-.2.71v5.19a1.31,1.31,0,0,1-2,1.11l-4.37-2.8a1.25,1.25,0,0,0-.7-.21h-5.2a1.31,1.31,0,0,1-1.1-2l2.8-4.37A1.31,1.31,0,0,0,65.19,164.35Z"/><path class="cls-28" d="M120.82,170.66v-3.9a1,1,0,0,1,1.52-.83l3.29,2.11a1,1,0,0,0,.53.15h3.9a1,1,0,0,1,.83,1.51l-2.1,3.29a.92.92,0,0,0-.16.53v3.91a1,1,0,0,1-1.52.83l-3.29-2.11a1,1,0,0,0-.53-.16h-3.9a1,1,0,0,1-.83-1.52l2.11-3.28A1,1,0,0,0,120.82,170.66Z"/><path class="cls-26" d="M16.19,112.64l2.69-4.87a1.41,1.41,0,0,1,2.47,0L24,112.67a1.41,1.41,0,0,0,.55.56l4.87,2.69a1.41,1.41,0,0,1,0,2.47L24.52,121a1.37,1.37,0,0,0-.56.56l-2.69,4.87a1.41,1.41,0,0,1-2.47,0l-2.65-4.9a1.48,1.48,0,0,0-.55-.56l-4.87-2.69a1.4,1.4,0,0,1,0-2.46l4.89-2.65A1.37,1.37,0,0,0,16.19,112.64Z"/><path class="cls-26" d="M76.32,75.67l4.56-3.19a1.41,1.41,0,0,1,2.21,1.1l.22,5.55a1.36,1.36,0,0,0,.26.75l3.19,4.56a1.41,1.41,0,0,1-1.1,2.21l-5.56.23a1.43,1.43,0,0,0-.75.25L74.8,90.32a1.41,1.41,0,0,1-2.22-1.09l-.22-5.56a1.36,1.36,0,0,0-.26-.75l-3.19-4.56A1.41,1.41,0,0,1,70,76.15l5.56-.23A1.35,1.35,0,0,0,76.32,75.67Z"/><path class="cls-26" d="M128.24,25.59l3.14-2.2a1,1,0,0,1,1.52.76l.16,3.82a.87.87,0,0,0,.17.52l2.2,3.14a1,1,0,0,1-.76,1.52l-3.82.16a.87.87,0,0,0-.52.17l-3.14,2.2a1,1,0,0,1-1.52-.76l-.16-3.82a.87.87,0,0,0-.17-.52l-2.2-3.14a1,1,0,0,1,.76-1.52l3.82-.16A.87.87,0,0,0,128.24,25.59Z"/><path class="cls-26" d="M58.13,231.27l3.13-2.19a1,1,0,0,1,1.53.75l.15,3.83a1,1,0,0,0,.18.51l2.19,3.14a1,1,0,0,1-.75,1.52l-3.83.16a1,1,0,0,0-.51.17l-3.14,2.2a1,1,0,0,1-1.52-.75l-.16-3.83a1.1,1.1,0,0,0-.17-.52L53,233.13a1,1,0,0,1,.75-1.53l3.83-.15A1,1,0,0,0,58.13,231.27Z"/><path class="cls-27" d="M135.31,152.73l2.62-4.75a1.37,1.37,0,0,1,2.4,0l2.58,4.77a1.36,1.36,0,0,0,.55.54l4.74,2.62a1.38,1.38,0,0,1,0,2.41l-4.77,2.58a1.28,1.28,0,0,0-.54.54l-2.62,4.74a1.38,1.38,0,0,1-2.41,0l-2.57-4.76a1.39,1.39,0,0,0-.55-.55L130,158.25a1.37,1.37,0,0,1,0-2.4l4.77-2.58A1.4,1.4,0,0,0,135.31,152.73Z"/><path class="cls-27" d="M36.15,46.37l2.13-3.85a1.1,1.1,0,0,1,1.94,0l2.1,3.86a1.07,1.07,0,0,0,.43.44L46.6,49a1.11,1.11,0,0,1,0,1.95L42.73,53a1,1,0,0,0-.44.44l-2.13,3.84a1.11,1.11,0,0,1-1.95,0l-2.09-3.86a1,1,0,0,0-.44-.44l-3.84-2.13a1.1,1.1,0,0,1,0-1.94l3.86-2.09A1.16,1.16,0,0,0,36.15,46.37Z"/><path class="cls-26" d="M68.87,136c5.73-.43,11.69-.39,15.06,2.71,3.77,3.48,2.47,9.85,2.32,15.49-.12,4.47.39,9.13,4.2,11,4,1.95,10.55-.11,14.73,1.64,4.92,2.07,1.1,7.22.46,12.24-.61,4.74,1.32,8,5.07,9.64,4.13,1.85,9.31,2.17,12.68,4.95,3.06,2.54,6.06,7.71,4,13.11-.27.74-1.56,3.64-1,4s1.35-2.19,1.43-2.4c3.88-10.41,2.89-19.27-5.11-23.06-4.65-2.2-11.56-2.05-14-6.66-1.38-2.63-.45-5.51.67-9.07.66-2.08,1.34-4.39,1-6.14-1.13-5.12-8.84-3.6-13.89-4-6.88-.51-8.11-5.81-7.81-12.11.27-5.55,1.2-11.7-2.42-15.09-3.4-3.18-9.43-3.26-15.26-2.83-.61.05-3.14,6.66-2.2,6.59Z"/></g></g></g></g></g></svg>