<svg width="20" height="30" viewBox="0 0 20 30" fill="none" xmlns="http://www.w3.org/2000/svg">
<g clip-path="url(#clip0_96_1454)">
<path d="M20.0692 16.6001C20.0692 16.6001 20.6682 18.3674 18.2721 20.2631C16.7932 21.4332 13.6716 23.0535 11.735 18.972C9.63094 20.2407 7.70551 18.5832 7.70551 18.5832C7.70551 18.5832 5.68148 18.3674 5.15501 18.3674C1.89759 21.1932 2.63614 26.1324 4.37926 28.5099C9.9472 30.3181 17.5455 30.7726 18.2721 29.8998C26.0455 31.8726 22.696 17.3833 22.696 17.3833L20.0692 16.6001Z" fill="#CAA77A"/>
<path d="M10.7788 11.5046C10.7788 11.5046 11.0597 18.4492 11.735 18.972C12.4103 19.4947 7.81156 20.2556 7.6125 18.2911C7.67389 15.7406 10.7788 11.5046 10.7788 11.5046Z" fill="#B6B1AE"/>
<path d="M19.9632 16.842C19.9632 16.842 20.5213 18.4902 17.9652 20.5179C15.4091 22.5457 12.3749 21.0407 11.8261 19.2585C11.2773 17.4763 10.2914 13.0823 10.8439 11.7317C11.3964 10.3811 7.4953 14.7082 7.71109 18.5832L5.13269 18.1219C5.13269 18.1219 0.422359 22.5178 4.38856 28.5099C4.38856 28.5099 12.347 30.7137 19.9632 29.6999" stroke="#2D1F04" stroke-linecap="round" stroke-linejoin="round"/>
<path d="M7.7018 18.3674C7.7018 18.3674 7.7018 20.3226 11.8243 19.2585" stroke="#2D1F04" stroke-width="2.43702" stroke-linecap="round" stroke-linejoin="round"/>
<g style="mix-blend-mode:multiply" opacity="0.23">
<path d="M9.86974 27.3999C9.86974 27.3999 16.861 28.0419 20.5593 27.4979C22.6872 27.1849 20.0933 29.0978 20.1865 29.6858C13.8408 30.8098 5.40001 28.5559 5.40001 28.5559L9.86974 27.3999Z" fill="#3F2719"/>
</g>
<path d="M11.2978 20.1502C11.2903 20.1502 11.2829 20.1502 11.2736 20.1502C11.1192 20.1372 11.0057 20.0014 11.0187 19.8488L11.1099 18.7606C11.4075 16.4724 12.2298 13.7414 12.7191 12.2848C12.4437 12.1583 12.1573 11.9257 11.9396 11.6374C11.7945 11.4439 11.6903 11.243 11.6308 11.0402C11.1527 11.0049 10.7397 10.8412 10.4104 10.6124C10.0997 10.8914 9.65513 11.1258 9.02262 11.1872C8.86449 11.2021 8.71567 11.2095 8.57614 11.2058C8.47197 11.4625 8.33058 11.7453 8.13897 12.0597C8.02549 12.2476 7.8655 12.3927 7.67203 12.4894L9.77605 19.6163C9.81884 19.7633 9.73512 19.9195 9.58816 19.9623C9.44119 20.0051 9.28492 19.9214 9.24214 19.7744L7.12881 12.6215C7.08044 12.6234 7.02836 12.6234 6.97813 12.6196C6.37538 12.5862 5.76706 12.2327 5.56428 11.7955C5.43964 11.5276 5.46941 11.2504 5.64614 11.0179C5.78752 10.83 5.99774 10.711 6.23772 10.6775C6.48142 10.6458 6.73257 10.711 6.92418 10.8579C7.34275 11.1816 7.45437 11.6951 7.47483 11.8178L7.51018 11.9388C7.56785 11.896 7.61994 11.842 7.66273 11.7713C7.77248 11.5909 7.89713 11.3658 8.00316 11.1277C7.71853 11.0477 7.49158 10.91 7.32601 10.711C7.05998 10.3928 7.00603 9.93334 7.18276 9.51105C7.2609 9.32687 7.45623 9.08875 7.75574 9.02922C7.99572 8.98085 8.24129 9.06643 8.44592 9.26734C8.70264 9.52035 8.90356 9.9445 8.75287 10.6458C8.8217 10.644 8.89426 10.6384 8.96867 10.631C9.42445 10.5863 9.75373 10.4319 9.98999 10.2384C9.83 10.058 9.71094 9.86637 9.63466 9.67848C9.45049 9.22084 9.50816 8.77436 9.79093 8.48415C10.0235 8.24417 10.2448 8.2144 10.3881 8.23115C10.6764 8.26463 10.8532 8.49345 10.9332 8.62739C11.0857 8.88226 11.1415 9.32873 11.0541 9.6022C11.0076 9.74731 10.9239 9.96124 10.775 10.1845C10.9983 10.3277 11.268 10.4338 11.5768 10.4691C11.588 10.3705 11.6103 10.2738 11.642 10.177C11.8931 9.44966 12.3135 9.26362 12.5423 9.21898C12.7991 9.16689 13.0595 9.23758 13.2028 9.39943C13.3739 9.59104 13.4651 9.99287 13.2939 10.3575C13.1693 10.6272 12.8791 10.9342 12.2168 11.0198C12.267 11.1332 12.3303 11.2281 12.3824 11.297C12.5479 11.5165 12.7433 11.6653 12.8977 11.749C12.9479 11.6076 12.9888 11.4941 13.0204 11.4086C13.3237 10.6105 13.9246 10.2608 14.3617 10.3296C14.6278 10.3705 14.9217 10.5845 14.9496 11.0644C14.9645 11.3286 14.877 11.5741 14.6966 11.7769C14.2929 12.229 13.5562 12.3462 13.2697 12.3759C12.7935 13.7842 11.9563 16.5338 11.6587 18.8164L11.5675 19.8916C11.562 20.0405 11.441 20.1502 11.2978 20.1502ZM6.36236 11.2263C6.34562 11.2263 6.32888 11.2281 6.31213 11.23C6.22098 11.243 6.14284 11.2858 6.09262 11.3528C6.04053 11.4216 6.03495 11.4811 6.07215 11.5593C6.17261 11.7732 6.54839 12.0188 6.96324 12.0578L6.93348 11.9574C6.92976 11.9425 6.92604 11.9295 6.92418 11.9146C6.92418 11.9127 6.86465 11.5165 6.58188 11.2988C6.52049 11.2523 6.44236 11.2263 6.36236 11.2263ZM14.252 10.8821C14.0622 10.8821 13.733 11.1202 13.5469 11.6095C13.5283 11.6579 13.5079 11.7155 13.4837 11.7825C13.7795 11.7211 14.1125 11.6002 14.2873 11.4067C14.371 11.3137 14.4064 11.217 14.3989 11.0998C14.3915 10.9677 14.3524 10.8951 14.2836 10.8858C14.2724 10.884 14.2631 10.8821 14.252 10.8821ZM7.88782 9.5743C7.88038 9.5743 7.87294 9.5743 7.8655 9.57616C7.79481 9.59104 7.72412 9.66545 7.69807 9.72684C7.60133 9.95566 7.62366 10.1956 7.75574 10.3519C7.85248 10.4673 7.99944 10.551 8.19292 10.5975C8.28593 10.2329 8.27849 9.88497 8.05525 9.66545C7.992 9.60406 7.93619 9.5743 7.88782 9.5743ZM12.7154 9.76405C12.6893 9.76405 12.6558 9.76777 12.6186 9.78079C12.44 9.83846 12.2819 10.0468 12.1721 10.3649C12.1591 10.4003 12.1498 10.4356 12.1442 10.471C12.4754 10.43 12.6986 10.3166 12.7879 10.138C12.8735 9.97055 12.814 9.80498 12.7916 9.77521C12.786 9.77335 12.7581 9.76405 12.7154 9.76405ZM10.3193 8.78738C10.3025 8.78738 10.256 8.80599 10.189 8.87482C10.0104 9.05899 10.1016 9.35292 10.15 9.47198C10.1965 9.58546 10.2653 9.7008 10.3527 9.81242C10.4327 9.67848 10.4848 9.54825 10.5202 9.43849C10.5592 9.31385 10.5239 9.03666 10.4513 8.9176C10.4011 8.83389 10.3453 8.7911 10.3211 8.78924C10.3211 8.78738 10.3211 8.78738 10.3193 8.78738Z" fill="#303032"/>
<path d="M10.2225 3.958C13.6083 3.958 16.3616 6.71127 16.3616 10.0971C16.3616 11.4569 15.8667 12.8206 14.9291 14.0391C13.9692 15.2873 13.4874 16.5654 13.6065 17.5439C13.7627 18.8145 13.2623 19.1401 13.0949 19.2126H10.2225H7.35019C7.18276 19.1401 6.68234 18.8164 6.83861 17.5439C6.95767 16.5654 6.47584 15.2873 5.51592 14.0391C4.57832 12.8206 4.08347 11.4569 4.08347 10.0971C4.08347 6.71127 6.83675 3.958 10.2225 3.958ZM10.2225 3.3999C6.52421 3.3999 3.52538 6.39874 3.52538 10.0971C3.52538 11.7267 4.1523 13.1815 5.07316 14.3795C5.91961 15.4808 6.38655 16.6379 6.28423 17.4769C6.03681 19.5028 7.2609 19.7707 7.2609 19.7707H10.2225H13.1842C13.1842 19.7707 14.4082 19.5028 14.1608 17.4769C14.0585 16.6379 14.5254 15.4808 15.3719 14.3795C16.2928 13.1815 16.9197 11.7267 16.9197 10.0971C16.9197 6.39874 13.9208 3.3999 10.2225 3.3999Z" fill="#1F1F1F"/>
<path d="M7.24602 22.7473V23.4914L8.5129 25.3927C8.65056 25.5992 8.8831 25.7238 9.13238 25.7238H11.3127C11.562 25.7238 11.7945 25.5992 11.9322 25.3927L13.199 23.4914V22.7473H7.24602Z" fill="url(#paint0_radial_96_1454)"/>
<path d="M13.199 18.7476H7.24602V23.4914H13.199V18.7476Z" fill="url(#paint1_linear_96_1454)"/>
<g opacity="0.2">
<path d="M12.6409 19.3057V22.7472V23.3221L11.4671 25.0819C11.4317 25.134 11.3741 25.1657 11.3127 25.1657H9.13238C9.06913 25.1657 9.01146 25.134 8.97798 25.0819L7.80411 23.3221V22.7472V19.3057H12.6409ZM13.199 18.7476H7.24602V22.7472V23.4914L8.5129 25.3926C8.65056 25.5991 8.8831 25.7238 9.13238 25.7238H11.3127C11.562 25.7238 11.7945 25.5991 11.9322 25.3926L13.199 23.4914V22.7472V18.7476Z" fill="#424242"/>
</g>
<path d="M13.16 20.5147L7.41531 21.6756C7.20881 21.7184 7.00418 21.5826 6.96139 21.3742L6.93906 21.2589C6.89628 21.0524 7.03208 20.8477 7.24044 20.805L12.9851 19.6441C13.1916 19.6013 13.3962 19.7371 13.439 19.9455L13.4613 20.0608C13.5023 20.2692 13.3683 20.4738 13.16 20.5147Z" fill="#BBDEFB"/>
<path d="M13.16 22.3231L7.41531 23.4839C7.20881 23.5267 7.00418 23.3909 6.96139 23.1826L6.93906 23.0672C6.89628 22.8607 7.03208 22.6561 7.24044 22.6133L12.9851 21.4525C13.1916 21.4097 13.3962 21.5455 13.439 21.7538L13.4613 21.8692C13.5023 22.0775 13.3683 22.2822 13.16 22.3231Z" fill="#90CAF9"/>
<path d="M14.0362 24.4786C13.0186 25.924 7.6125 28.1508 5.7466 28.3462C5.00247 27.3844 4.00348 22.2387 6.64513 19.8892C7.91945 21.5616 11.9284 23.7121 14.0362 24.4786Z" fill="#B6B1AE"/>
<path d="M5.15501 18.3674C5.15501 18.3674 10.7155 24.0507 13.6343 24.1735C16.5532 24.2963 5.78566 29.1275 4.37926 28.5099" stroke="#2D1F04" stroke-linecap="round" stroke-linejoin="round"/>
<path d="M5.12711 23.8052C5.55498 24.0507 9.25702 25.9241 14.1329 24.4507" stroke="#2D1F04" stroke-linecap="round" stroke-linejoin="round"/>
<path d="M6.41445 19.8892C6.41445 19.8892 3.58863 24.0191 5.78194 28.4169" stroke="#2D1F04" stroke-linecap="round" stroke-linejoin="round"/>
</g>
<defs>
<radialGradient id="paint0_radial_96_1454" cx="0" cy="0" r="1" gradientUnits="userSpaceOnUse" gradientTransform="translate(10.2461 23.4449) rotate(90) scale(2.49209 4.41822)">
<stop stop-color="#1E88E5"/>
<stop offset="0.9869" stop-color="#0D47A1"/>
</radialGradient>
<linearGradient id="paint1_linear_96_1454" x1="10.2225" y1="18.8871" x2="10.2225" y2="23.744" gradientUnits="userSpaceOnUse">
<stop stop-color="#90CAF9"/>
<stop offset="0.1981" stop-color="#88C6F9"/>
<stop offset="0.5085" stop-color="#72BCF7"/>
<stop offset="0.8905" stop-color="#4DAAF6"/>
<stop offset="0.9957" stop-color="#42A5F5"/>
</linearGradient>
<clipPath id="clip0_96_1454">
<rect width="20" height="30" fill="white"/>
</clipPath>
</defs>
</svg>
