<svg width="20" height="30" viewBox="0 0 20 30" fill="none" xmlns="http://www.w3.org/2000/svg">
<g clip-path="url(#clip0_96_1446)">
<path d="M20.0692 16.6001C20.0692 16.6001 20.6682 18.3674 18.2721 20.2631C16.7932 21.4332 13.6716 23.0535 11.735 18.972C9.63094 20.2407 7.70551 18.5832 7.70551 18.5832C7.70551 18.5832 5.68148 18.3674 5.15501 18.3674C1.89759 21.1932 2.63614 26.1324 4.37926 28.5099C9.9472 30.3181 17.5455 30.7726 18.2721 29.8998C26.0455 31.8726 22.696 17.3833 22.696 17.3833L20.0692 16.6001Z" fill="#CAA77A"/>
<path d="M10.7788 11.5046C10.7788 11.5046 11.0597 18.4492 11.735 18.972C12.4103 19.4947 7.81156 20.2556 7.6125 18.2911C7.67389 15.7406 10.7788 11.5046 10.7788 11.5046Z" fill="#B6B1AE"/>
<path d="M19.9632 16.842C19.9632 16.842 20.5213 18.4902 17.9652 20.5179C15.4091 22.5457 12.3749 21.0407 11.8261 19.2585C11.2773 17.4763 10.2914 13.0823 10.8439 11.7317C11.3964 10.3811 7.4953 14.7082 7.71109 18.5832L5.13269 18.1219C5.13269 18.1219 0.422359 22.5178 4.38856 28.5099C4.38856 28.5099 12.347 30.7137 19.9632 29.6999" stroke="#2D1F04" stroke-linecap="round" stroke-linejoin="round"/>
<path d="M7.7018 18.3674C7.7018 18.3674 7.7018 20.3226 11.8243 19.2585" stroke="#2D1F04" stroke-width="2.43702" stroke-linecap="round" stroke-linejoin="round"/>
<g style="mix-blend-mode:multiply" opacity="0.23">
<path d="M9.86974 27.3999C9.86974 27.3999 16.861 28.0419 20.5593 27.4979C22.6872 27.1849 20.0933 29.0978 20.1865 29.6858C13.8408 30.8098 5.40001 28.5559 5.40001 28.5559L9.86974 27.3999Z" fill="#3F2719"/>
</g>
<path d="M7.24602 22.7473V23.4914L8.5129 25.3927C8.65056 25.5992 8.8831 25.7238 9.13238 25.7238H11.3127C11.562 25.7238 11.7945 25.5992 11.9322 25.3927L13.199 23.4914V22.7473H7.24602Z" fill="url(#paint0_radial_96_1446)"/>
<path d="M13.199 18.7476H7.24602V23.4914H13.199V18.7476Z" fill="url(#paint1_linear_96_1446)"/>
<g opacity="0.2">
<path d="M12.6409 19.3057V22.7472V23.3221L11.4671 25.0819C11.4317 25.134 11.3741 25.1657 11.3127 25.1657H9.13238C9.06913 25.1657 9.01146 25.134 8.97798 25.0819L7.80411 23.3221V22.7472V19.3057H12.6409ZM13.199 18.7476H7.24602V22.7472V23.4914L8.5129 25.3926C8.65056 25.5991 8.8831 25.7238 9.13238 25.7238H11.3127C11.562 25.7238 11.7945 25.5991 11.9322 25.3926L13.199 23.4914V22.7472V18.7476Z" fill="#424242"/>
</g>
<path d="M13.16 20.5147L7.41531 21.6756C7.20881 21.7184 7.00418 21.5826 6.96139 21.3742L6.93906 21.2589C6.89628 21.0524 7.03208 20.8477 7.24044 20.805L12.9851 19.6441C13.1916 19.6013 13.3962 19.7371 13.439 19.9455L13.4613 20.0608C13.5023 20.2692 13.3683 20.4738 13.16 20.5147Z" fill="#BBDEFB"/>
<path d="M13.16 22.3231L7.41531 23.4839C7.20881 23.5267 7.00418 23.3909 6.96139 23.1826L6.93906 23.0672C6.89628 22.8607 7.03208 22.6561 7.24044 22.6133L12.9851 21.4525C13.1916 21.4097 13.3962 21.5455 13.439 21.7538L13.4613 21.8692C13.5023 22.0775 13.3683 22.2822 13.16 22.3231Z" fill="#90CAF9"/>
<path d="M16.9197 10.0971C16.9197 6.39874 13.9208 3.3999 10.2225 3.3999C6.52421 3.3999 3.52538 6.39874 3.52538 10.0971C3.52538 11.7267 4.1523 13.1815 5.07316 14.3795C5.91961 15.4808 6.38655 16.6379 6.28423 17.4769C6.03681 19.5028 7.2609 19.7707 7.2609 19.7707H10.2225H13.1842C13.1842 19.7707 14.4082 19.5028 14.1608 17.4769C14.0585 16.6379 14.5254 15.4808 15.3719 14.3795C16.2928 13.1815 16.9197 11.7267 16.9197 10.0971Z" fill="url(#paint2_radial_96_1446)"/>
<path d="M11.2978 20.1502C11.2903 20.1502 11.2829 20.1502 11.2736 20.1502C11.1192 20.1372 11.0057 20.0014 11.0187 19.8488L11.1099 18.7606C11.4075 16.4724 12.2298 13.7414 12.7191 12.2848C12.4437 12.1583 12.1573 11.9257 11.9396 11.6374C11.7945 11.4439 11.6903 11.243 11.6308 11.0402C11.1527 11.0049 10.7397 10.8412 10.4104 10.6124C10.0997 10.8914 9.65513 11.1258 9.02262 11.1872C8.86449 11.2021 8.71567 11.2095 8.57614 11.2058C8.47197 11.4625 8.33058 11.7453 8.13897 12.0597C8.02549 12.2476 7.8655 12.3927 7.67203 12.4894L9.77605 19.6163C9.81884 19.7633 9.73512 19.9195 9.58816 19.9623C9.44119 20.0051 9.28492 19.9214 9.24214 19.7744L7.12881 12.6215C7.08044 12.6234 7.02836 12.6234 6.97813 12.6196C6.37538 12.5862 5.76706 12.2327 5.56428 11.7955C5.43964 11.5276 5.46941 11.2504 5.64614 11.0179C5.78752 10.83 5.99774 10.711 6.23772 10.6775C6.48142 10.6458 6.73257 10.711 6.92418 10.8579C7.34275 11.1816 7.45437 11.6951 7.47483 11.8178L7.51018 11.9388C7.56785 11.896 7.61994 11.842 7.66273 11.7713C7.77248 11.5909 7.89713 11.3658 8.00316 11.1277C7.71853 11.0477 7.49158 10.91 7.32601 10.711C7.05998 10.3928 7.00603 9.93334 7.18276 9.51105C7.2609 9.32687 7.45623 9.08875 7.75574 9.02922C7.99572 8.98085 8.24129 9.06643 8.44592 9.26734C8.70264 9.52035 8.90356 9.9445 8.75287 10.6458C8.8217 10.644 8.89426 10.6384 8.96867 10.631C9.42445 10.5863 9.75373 10.4319 9.98999 10.2384C9.83 10.058 9.71094 9.86637 9.63466 9.67848C9.45049 9.22084 9.50816 8.77436 9.79093 8.48415C10.0235 8.24417 10.2448 8.2144 10.3881 8.23115C10.6764 8.26463 10.8532 8.49345 10.9332 8.62739C11.0857 8.88226 11.1415 9.32873 11.0541 9.6022C11.0076 9.74731 10.9239 9.96124 10.775 10.1845C10.9983 10.3277 11.268 10.4338 11.5768 10.4691C11.588 10.3705 11.6103 10.2738 11.642 10.177C11.8931 9.44966 12.3135 9.26362 12.5423 9.21898C12.7991 9.16689 13.0595 9.23758 13.2028 9.39943C13.3739 9.59104 13.4651 9.99287 13.2939 10.3575C13.1693 10.6272 12.8791 10.9342 12.2168 11.0198C12.267 11.1332 12.3303 11.2281 12.3824 11.297C12.5479 11.5165 12.7433 11.6653 12.8977 11.749C12.9479 11.6076 12.9888 11.4941 13.0204 11.4086C13.3237 10.6105 13.9246 10.2608 14.3617 10.3296C14.6278 10.3705 14.9217 10.5845 14.9496 11.0644C14.9645 11.3286 14.877 11.5741 14.6966 11.7769C14.2929 12.229 13.5562 12.3462 13.2697 12.3759C12.7935 13.7842 11.9563 16.5338 11.6587 18.8164L11.5675 19.8916C11.562 20.0405 11.441 20.1502 11.2978 20.1502ZM6.36236 11.2263C6.34562 11.2263 6.32888 11.2281 6.31213 11.23C6.22098 11.243 6.14284 11.2858 6.09262 11.3528C6.04053 11.4216 6.03495 11.4811 6.07215 11.5593C6.17261 11.7732 6.54839 12.0188 6.96324 12.0578L6.93348 11.9574C6.92976 11.9425 6.92604 11.9295 6.92418 11.9146C6.92418 11.9127 6.86465 11.5165 6.58188 11.2988C6.52049 11.2523 6.44236 11.2263 6.36236 11.2263ZM14.252 10.8821C14.0622 10.8821 13.733 11.1202 13.5469 11.6095C13.5283 11.6579 13.5079 11.7155 13.4837 11.7825C13.7795 11.7211 14.1125 11.6002 14.2873 11.4067C14.371 11.3137 14.4064 11.217 14.3989 11.0998C14.3915 10.9677 14.3524 10.8951 14.2836 10.8858C14.2724 10.884 14.2631 10.8821 14.252 10.8821ZM7.88782 9.5743C7.88038 9.5743 7.87294 9.5743 7.8655 9.57616C7.79481 9.59104 7.72412 9.66545 7.69807 9.72684C7.60133 9.95566 7.62366 10.1956 7.75574 10.3519C7.85248 10.4673 7.99944 10.551 8.19292 10.5975C8.28593 10.2329 8.27849 9.88497 8.05525 9.66545C7.992 9.60406 7.93619 9.5743 7.88782 9.5743ZM12.7154 9.76405C12.6893 9.76405 12.6558 9.76777 12.6186 9.78079C12.44 9.83846 12.2819 10.0468 12.1721 10.3649C12.1591 10.4003 12.1498 10.4356 12.1442 10.471C12.4754 10.43 12.6986 10.3166 12.7879 10.138C12.8735 9.97055 12.814 9.80498 12.7916 9.77521C12.786 9.77335 12.7581 9.76405 12.7154 9.76405ZM10.3193 8.78738C10.3025 8.78738 10.256 8.80599 10.189 8.87482C10.0104 9.05899 10.1016 9.35292 10.15 9.47198C10.1965 9.58546 10.2653 9.7008 10.3527 9.81242C10.4327 9.67848 10.4848 9.54825 10.5202 9.43849C10.5592 9.31385 10.5239 9.03666 10.4513 8.9176C10.4011 8.83389 10.3453 8.7911 10.3211 8.78924C10.3211 8.78738 10.3211 8.78738 10.3193 8.78738Z" fill="#FFD54F"/>
<path d="M11.2978 20.1502C11.2903 20.1502 11.2829 20.1502 11.2736 20.1502C11.1192 20.1372 11.0057 20.0014 11.0187 19.8488L11.1099 18.7606C11.4075 16.4724 12.2298 13.7414 12.7191 12.2848C12.4437 12.1583 12.1573 11.9257 11.9396 11.6374C11.7945 11.4439 11.6903 11.243 11.6308 11.0402C11.1527 11.0049 10.7397 10.8412 10.4104 10.6124C10.0997 10.8914 9.65513 11.1258 9.02262 11.1872C8.86449 11.2021 8.71567 11.2095 8.57614 11.2058C8.47197 11.4625 8.33058 11.7453 8.13897 12.0597C8.02549 12.2476 7.8655 12.3927 7.67203 12.4894L9.77605 19.6163C9.81884 19.7633 9.73512 19.9195 9.58816 19.9623C9.44119 20.0051 9.28492 19.9214 9.24214 19.7744L7.12881 12.6215C7.08044 12.6234 7.02836 12.6234 6.97813 12.6196C6.37538 12.5862 5.76706 12.2327 5.56428 11.7955C5.43964 11.5276 5.46941 11.2504 5.64614 11.0179C5.78752 10.83 5.99774 10.711 6.23772 10.6775C6.48142 10.6458 6.73257 10.711 6.92418 10.8579C7.34275 11.1816 7.45437 11.6951 7.47483 11.8178L7.51018 11.9388C7.56785 11.896 7.61994 11.842 7.66273 11.7713C7.77248 11.5909 7.89713 11.3658 8.00316 11.1277C7.71853 11.0477 7.49158 10.91 7.32601 10.711C7.05998 10.3928 7.00603 9.93334 7.18276 9.51105C7.2609 9.32687 7.45623 9.08875 7.75574 9.02922C7.99572 8.98085 8.24129 9.06643 8.44592 9.26734C8.70264 9.52035 8.90356 9.9445 8.75287 10.6458C8.8217 10.644 8.89426 10.6384 8.96867 10.631C9.42445 10.5863 9.75373 10.4319 9.98999 10.2384C9.83 10.058 9.71094 9.86637 9.63466 9.67848C9.45049 9.22084 9.50816 8.77436 9.79093 8.48415C10.0235 8.24417 10.2448 8.2144 10.3881 8.23115C10.6764 8.26463 10.8532 8.49345 10.9332 8.62739C11.0857 8.88226 11.1415 9.32873 11.0541 9.6022C11.0076 9.74731 10.9239 9.96124 10.775 10.1845C10.9983 10.3277 11.268 10.4338 11.5768 10.4691C11.588 10.3705 11.6103 10.2738 11.642 10.177C11.8931 9.44966 12.3135 9.26362 12.5423 9.21898C12.7991 9.16689 13.0595 9.23758 13.2028 9.39943C13.3739 9.59104 13.4651 9.99287 13.2939 10.3575C13.1693 10.6272 12.8791 10.9342 12.2168 11.0198C12.267 11.1332 12.3303 11.2281 12.3824 11.297C12.5479 11.5165 12.7433 11.6653 12.8977 11.749C12.9479 11.6076 12.9888 11.4941 13.0204 11.4086C13.3237 10.6105 13.9246 10.2608 14.3617 10.3296C14.6278 10.3705 14.9217 10.5845 14.9496 11.0644C14.9645 11.3286 14.877 11.5741 14.6966 11.7769C14.2929 12.229 13.5562 12.3462 13.2697 12.3759C12.7935 13.7842 11.9563 16.5338 11.6587 18.8164L11.5675 19.8916C11.562 20.0405 11.441 20.1502 11.2978 20.1502ZM6.36236 11.2263C6.34562 11.2263 6.32888 11.2281 6.31213 11.23C6.22098 11.243 6.14284 11.2858 6.09262 11.3528C6.04053 11.4216 6.03495 11.4811 6.07215 11.5593C6.17261 11.7732 6.54839 12.0188 6.96324 12.0578L6.93348 11.9574C6.92976 11.9425 6.92604 11.9295 6.92418 11.9146C6.92418 11.9127 6.86465 11.5165 6.58188 11.2988C6.52049 11.2523 6.44236 11.2263 6.36236 11.2263ZM14.252 10.8821C14.0622 10.8821 13.733 11.1202 13.5469 11.6095C13.5283 11.6579 13.5079 11.7155 13.4837 11.7825C13.7795 11.7211 14.1125 11.6002 14.2873 11.4067C14.371 11.3137 14.4064 11.217 14.3989 11.0998C14.3915 10.9677 14.3524 10.8951 14.2836 10.8858C14.2724 10.884 14.2631 10.8821 14.252 10.8821ZM7.88782 9.5743C7.88038 9.5743 7.87294 9.5743 7.8655 9.57616C7.79481 9.59104 7.72412 9.66545 7.69807 9.72684C7.60133 9.95566 7.62366 10.1956 7.75574 10.3519C7.85248 10.4673 7.99944 10.551 8.19292 10.5975C8.28593 10.2329 8.27849 9.88497 8.05525 9.66545C7.992 9.60406 7.93619 9.5743 7.88782 9.5743ZM12.7154 9.76405C12.6893 9.76405 12.6558 9.76777 12.6186 9.78079C12.44 9.83846 12.2819 10.0468 12.1721 10.3649C12.1591 10.4003 12.1498 10.4356 12.1442 10.471C12.4754 10.43 12.6986 10.3166 12.7879 10.138C12.8735 9.97055 12.814 9.80498 12.7916 9.77521C12.786 9.77335 12.7581 9.76405 12.7154 9.76405ZM10.3193 8.78738C10.3025 8.78738 10.256 8.80599 10.189 8.87482C10.0104 9.05899 10.1016 9.35292 10.15 9.47198C10.1965 9.58546 10.2653 9.7008 10.3527 9.81242C10.4327 9.67848 10.4848 9.54825 10.5202 9.43849C10.5592 9.31385 10.5239 9.03666 10.4513 8.9176C10.4011 8.83389 10.3453 8.7911 10.3211 8.78924C10.3211 8.78738 10.3211 8.78738 10.3193 8.78738Z" fill="#FDD835"/>
<g opacity="0.2">
<path d="M10.3211 8.22924C10.3453 8.22924 10.3658 8.2311 10.3881 8.23296C10.6765 8.26645 10.8532 8.49527 10.9332 8.62921C11.0857 8.88407 11.1415 9.33055 11.0541 9.60402C11.0076 9.74912 10.9239 9.96306 10.775 10.1863C10.9983 10.3295 11.268 10.4356 11.5768 10.4709C11.588 10.3723 11.6103 10.2756 11.642 10.1789C11.8931 9.45147 12.3135 9.26544 12.5424 9.22079C12.5982 9.20963 12.654 9.20405 12.7098 9.20405C12.907 9.20405 13.0911 9.27474 13.2028 9.40124C13.3739 9.59286 13.4651 9.99469 13.2939 10.3593C13.1693 10.6291 12.8791 10.936 12.2168 11.0216C12.267 11.1351 12.3303 11.2299 12.3824 11.2988C12.5479 11.5183 12.7433 11.6671 12.8977 11.7508C12.9479 11.6094 12.9888 11.496 13.0205 11.4104C13.2976 10.6774 13.8278 10.3221 14.252 10.3221C14.2892 10.3221 14.3264 10.324 14.3617 10.3295C14.6278 10.3705 14.9217 10.5844 14.9496 11.0644C14.9645 11.3285 14.8771 11.5741 14.6966 11.7769C14.2929 12.2289 13.5562 12.3461 13.2697 12.3759C12.7935 13.7842 11.9564 16.5337 11.6587 18.8163L11.5675 19.8916C11.5545 20.0367 11.4336 20.1465 11.2904 20.1465C11.2829 20.1465 11.2755 20.1465 11.2662 20.1465C11.1118 20.1334 10.9983 19.9976 11.0113 19.8451L11.1025 18.7568C11.4001 16.4686 12.2224 13.7377 12.7116 12.281C12.4363 12.1545 12.1498 11.922 11.9322 11.6336C11.7871 11.4402 11.6829 11.2392 11.6234 11.0365C11.1527 11.0048 10.7397 10.8411 10.4104 10.6123C10.0998 10.8914 9.65514 11.1258 9.02263 11.1872C8.8924 11.2002 8.76962 11.2058 8.65242 11.2058C8.62638 11.2058 8.60219 11.2058 8.57615 11.2058C8.47197 11.4625 8.33059 11.7452 8.13897 12.0596C8.02549 12.2475 7.86551 12.3926 7.67203 12.4894L9.77606 19.6163C9.81884 19.7632 9.73513 19.9195 9.58816 19.9623C9.56212 19.9697 9.53607 19.9734 9.50817 19.9734C9.38725 19.9734 9.27563 19.8953 9.24028 19.7725L7.12882 12.6215C7.10836 12.6215 7.08789 12.6233 7.06743 12.6233C7.03766 12.6233 7.0079 12.6233 6.97627 12.6215C6.37353 12.588 5.76521 12.2345 5.56243 11.7973C5.43779 11.5294 5.46755 11.2523 5.64428 11.0197C5.78567 10.8318 5.99589 10.7128 6.23587 10.6793C6.27679 10.6737 6.31772 10.6718 6.35865 10.6718C6.56142 10.6718 6.76234 10.7388 6.92232 10.8616C7.3409 11.1853 7.45252 11.6987 7.47298 11.8215L7.50833 11.9424C7.566 11.8997 7.61808 11.8457 7.66087 11.775C7.77063 11.5946 7.89527 11.3695 8.00131 11.1313C7.71668 11.0513 7.48972 10.9137 7.32415 10.7146C7.05813 10.3965 7.00418 9.93702 7.18091 9.51472C7.25904 9.33055 7.45438 9.09243 7.75389 9.0329C7.79854 9.0236 7.84132 9.01988 7.88597 9.01988C8.08316 9.01988 8.27664 9.10731 8.44407 9.27102C8.70079 9.52402 8.90171 9.94818 8.75102 10.6495C8.81985 10.6477 8.8924 10.6421 8.96682 10.6346C9.4226 10.59 9.75187 10.4356 9.98813 10.2421C9.82815 10.0617 9.70908 9.87004 9.63281 9.68215C9.44864 9.22451 9.50631 8.77804 9.78908 8.48783C9.98813 8.27947 10.1797 8.22924 10.3211 8.22924ZM10.3546 9.81237C10.4346 9.67843 10.4867 9.54821 10.522 9.43845C10.5611 9.31381 10.5258 9.03662 10.4532 8.91756C10.403 8.83385 10.3472 8.79106 10.323 8.7892H10.3211C10.3044 8.7892 10.2579 8.8078 10.1909 8.87663C10.0123 9.0608 10.1035 9.35474 10.1518 9.4738C10.1965 9.58356 10.2653 9.70076 10.3546 9.81237ZM8.19292 10.5974C8.28594 10.2328 8.2785 9.88493 8.05526 9.66541C7.99387 9.60402 7.93806 9.57425 7.88783 9.57425C7.88039 9.57425 7.87295 9.57425 7.86551 9.57611C7.79482 9.591 7.72412 9.66541 7.69808 9.7268C7.60134 9.95562 7.62367 10.1956 7.75575 10.3519C7.85249 10.4672 7.99945 10.5509 8.19292 10.5974ZM12.1424 10.4709C12.4735 10.43 12.6968 10.3165 12.7861 10.1379C12.8716 9.9705 12.8121 9.80493 12.7898 9.77517C12.7879 9.77517 12.76 9.76587 12.7172 9.76587C12.6912 9.76587 12.6577 9.76959 12.6205 9.78261C12.4419 9.84028 12.2838 10.0486 12.174 10.3667C12.1573 10.4002 12.148 10.4356 12.1424 10.4709ZM13.4818 11.7843C13.7776 11.7229 14.1106 11.602 14.2855 11.4085C14.3692 11.3155 14.4045 11.2188 14.3971 11.1016C14.3897 10.9695 14.3506 10.8969 14.2818 10.8876C14.2724 10.8858 14.2613 10.8858 14.252 10.8858C14.0622 10.8858 13.733 11.1239 13.5469 11.6132C13.5283 11.6597 13.5079 11.7173 13.4818 11.7843ZM6.96325 12.0596L6.93349 11.9592C6.92977 11.9443 6.92605 11.9313 6.92419 11.9164C6.92419 11.9145 6.86466 11.5183 6.58189 11.3006C6.5205 11.2523 6.44236 11.2281 6.36051 11.2281C6.34377 11.2281 6.32702 11.2299 6.31028 11.2318C6.21912 11.2448 6.14099 11.2876 6.09076 11.3546C6.03867 11.4234 6.03309 11.4829 6.0703 11.5611C6.17076 11.775 6.5484 12.0206 6.96325 12.0596ZM10.3211 7.85718C10.1202 7.85718 9.81884 7.92043 9.52305 8.22552C9.13425 8.62549 9.04681 9.22079 9.28865 9.81796C9.33144 9.92399 9.38539 10.03 9.44864 10.1323C9.36493 10.1696 9.27377 10.1975 9.17703 10.2198C9.18633 9.61704 8.94263 9.23195 8.70823 9.00127C8.47011 8.76687 8.18548 8.64223 7.88783 8.64223C7.819 8.64223 7.75017 8.64967 7.6832 8.6627C7.2423 8.75199 6.95953 9.08313 6.84047 9.36404C6.70281 9.69145 6.6749 10.0375 6.74745 10.3537C6.62281 10.3147 6.49259 10.2961 6.36051 10.2961C6.30284 10.2961 6.24517 10.2998 6.18936 10.3072C5.85078 10.3519 5.55313 10.5249 5.35035 10.7909C5.08991 11.1351 5.04526 11.5574 5.22757 11.9499C5.475 12.4838 6.14471 12.9042 6.84791 12.9805L8.88496 19.8767C8.96682 20.152 9.22354 20.3436 9.51003 20.3436C9.57142 20.3436 9.63467 20.3343 9.6942 20.3176C9.86163 20.2692 9.99929 20.1576 10.0811 20.0051C10.1649 19.8525 10.1835 19.6758 10.1332 19.5102L8.10735 12.6494C8.24501 12.5396 8.36407 12.4038 8.45709 12.2513C8.59847 12.0169 8.72125 11.7899 8.82171 11.5741C8.89799 11.5704 8.97798 11.5648 9.05797 11.5574C9.59002 11.5053 10.0532 11.3416 10.4383 11.0662C10.7248 11.2244 11.0355 11.3304 11.361 11.3825C11.4336 11.5462 11.5266 11.7062 11.6438 11.8606C11.8187 12.0931 12.0382 12.2996 12.2707 12.4559C11.8503 13.7432 11.0429 16.4016 10.7416 18.7121L10.7397 18.7196V18.7289L10.6485 19.8172C10.6188 20.1744 10.8848 20.4906 11.242 20.5204C11.2643 20.5222 11.2811 20.5222 11.2978 20.5222C11.6327 20.5222 11.9173 20.2599 11.947 19.9269L12.0363 18.8591C12.3377 16.5486 13.2009 13.7897 13.5562 12.7163C13.9599 12.6475 14.585 12.4708 14.9794 12.028C15.2268 11.7508 15.3477 11.4104 15.3254 11.0458C15.2845 10.3444 14.8138 10.0263 14.4231 9.96492C14.3692 9.95748 14.3134 9.9519 14.2576 9.9519C14.0994 9.9519 13.9283 9.98724 13.7553 10.0617C13.785 9.69703 13.6641 9.3566 13.4837 9.15382C13.3014 8.95105 13.0205 8.83385 12.7116 8.83385C12.6316 8.83385 12.5498 8.84129 12.4698 8.85803C12.1666 8.91942 11.6141 9.15382 11.2997 10.0319C11.2959 10.03 11.2904 10.0282 11.2866 10.0282C11.3424 9.90911 11.3797 9.80121 11.4076 9.7175C11.5248 9.34357 11.4559 8.78362 11.2513 8.43946C11.1359 8.24785 10.8774 7.91671 10.4309 7.86462C10.3937 7.85904 10.3565 7.85718 10.3211 7.85718Z" fill="#FFFF8D"/>
</g>
<g opacity="0.2">
<path d="M10.2225 3.958C13.6083 3.958 16.3616 6.71127 16.3616 10.0971C16.3616 11.4569 15.8667 12.8206 14.9291 14.0391C13.9692 15.2873 13.4874 16.5654 13.6065 17.5439C13.7627 18.8145 13.2623 19.1401 13.0949 19.2126H10.2225H7.35019C7.18276 19.1401 6.68234 18.8164 6.83861 17.5439C6.95767 16.5654 6.47584 15.2873 5.51592 14.0391C4.57832 12.8206 4.08347 11.4569 4.08347 10.0971C4.08347 6.71127 6.83675 3.958 10.2225 3.958ZM10.2225 3.3999C6.52421 3.3999 3.52538 6.39874 3.52538 10.0971C3.52538 11.7267 4.1523 13.1815 5.07316 14.3795C5.91961 15.4808 6.38655 16.6379 6.28423 17.4769C6.03681 19.5028 7.2609 19.7707 7.2609 19.7707H10.2225H13.1842C13.1842 19.7707 14.4082 19.5028 14.1608 17.4769C14.0585 16.6379 14.5254 15.4808 15.3719 14.3795C16.2928 13.1815 16.9197 11.7267 16.9197 10.0971C16.9197 6.39874 13.9208 3.3999 10.2225 3.3999Z" fill="#424242"/>
</g>
<path d="M14.0362 24.4786C13.0186 25.924 7.6125 28.1508 5.7466 28.3462C5.00247 27.3844 4.00348 22.2387 6.64513 19.8892C7.91945 21.5616 11.9284 23.7121 14.0362 24.4786Z" fill="#B6B1AE"/>
<path d="M5.15501 18.3674C5.15501 18.3674 10.7155 24.0507 13.6343 24.1735C16.5532 24.2963 5.78566 29.1275 4.37926 28.5099" stroke="#2D1F04" stroke-linecap="round" stroke-linejoin="round"/>
<path d="M5.12711 23.8052C5.55498 24.0507 9.25702 25.9241 14.1329 24.4507" stroke="#2D1F04" stroke-linecap="round" stroke-linejoin="round"/>
<path d="M6.41445 19.8892C6.41445 19.8892 3.58863 24.0191 5.78194 28.4169" stroke="#2D1F04" stroke-linecap="round" stroke-linejoin="round"/>
<line x1="10.0612" y1="0.897541" x2="10.0612" y2="2.5317" stroke="#FFF497" stroke-width="0.700355" stroke-linecap="round"/>
<line x1="14.0984" y1="1.70929" x2="13.4408" y2="3.2053" stroke="#FFF497" stroke-width="0.700355" stroke-linecap="round"/>
<line x1="17.1901" y1="3.61039" x2="16.0549" y2="4.7859" stroke="#FFF497" stroke-width="0.700355" stroke-linecap="round"/>
<line x1="19.2852" y1="6.12153" x2="17.7244" y2="6.60549" stroke="#FFF497" stroke-width="0.700355" stroke-linecap="round"/>
<line x1="0.350178" y1="-0.350178" x2="1.98434" y2="-0.350178" transform="matrix(0.312338 0.949971 0.949971 -0.312338 7 1)" stroke="#FFF497" stroke-width="0.700355" stroke-linecap="round"/>
<line x1="3.66948" y1="3.12536" x2="4.80114" y2="4.30428" stroke="#FFF497" stroke-width="0.700355" stroke-linecap="round"/>
<line x1="1.25513" y1="5.64695" x2="2.85364" y2="5.98642" stroke="#FFF497" stroke-width="0.700355" stroke-linecap="round"/>
</g>
<defs>
<radialGradient id="paint0_radial_96_1446" cx="0" cy="0" r="1" gradientUnits="userSpaceOnUse" gradientTransform="translate(10.2461 23.4449) rotate(90) scale(2.49209 4.41822)">
<stop stop-color="#1E88E5"/>
<stop offset="0.9869" stop-color="#0D47A1"/>
</radialGradient>
<linearGradient id="paint1_linear_96_1446" x1="10.2225" y1="18.8871" x2="10.2225" y2="23.744" gradientUnits="userSpaceOnUse">
<stop stop-color="#90CAF9"/>
<stop offset="0.1981" stop-color="#88C6F9"/>
<stop offset="0.5085" stop-color="#72BCF7"/>
<stop offset="0.8905" stop-color="#4DAAF6"/>
<stop offset="0.9957" stop-color="#42A5F5"/>
</linearGradient>
<radialGradient id="paint2_radial_96_1446" cx="0" cy="0" r="1" gradientUnits="userSpaceOnUse" gradientTransform="translate(10.2923 3.60919) scale(16.9529)">
<stop stop-color="#FFF59D"/>
<stop offset="0.1485" stop-color="#FFF599"/>
<stop offset="0.3111" stop-color="#FFF38B"/>
<stop offset="0.4772" stop-color="#FFF176"/>
<stop offset="0.7791" stop-color="#FFED51"/>
<stop offset="0.9957" stop-color="#FFEB3B"/>
</radialGradient>
<clipPath id="clip0_96_1446">
<rect width="20" height="30" fill="white"/>
</clipPath>
</defs>
</svg>
