<svg width="240" height="167" viewBox="0 0 240 167" fill="none" xmlns="http://www.w3.org/2000/svg">
<path d="M54.0871 133.28C52.2441 130.524 60.2574 146.345 62.7416 147.823C67.0287 150.42 90.5078 155.734 90.9085 155.374C91.2691 155.054 82.8551 144.427 80.4911 142.549C76.2841 139.233 81.2925 131.842 80.1305 127.407" fill="#FFDB1F"/>
<path d="M87.9449 67.1998C85.7813 59.6089 82.3355 45.9852 79.7713 38.5541C78.1686 33.8797 76.005 29.1653 74.6427 24.3711C73.9616 15.9012 67.1903 12.9048 66.6294 12.3455C66.6294 12.3455 66.5492 17.6991 69.434 22.733C68.9132 22.5732 65.1469 11.9859 57.8147 9.58879C45.5943 5.63353 45.0734 0.759364 44.8731 0.799316C44.6327 0.839268 43.5108 7.47133 45.5943 9.62874C41.3472 7.27156 34.4157 7.27156 30.1686 11.0271C37.0601 11.7862 39.5442 15.8213 41.0668 16.9799C39.4641 18.0586 39.7846 18.5381 38.3823 19.8565C32.6527 25.2101 22.3556 32.2417 22.8765 41.151C23.4374 50.7395 33.6544 63.9237 28.5659 78.3065" fill="#CAA77A"/>
<path d="M87.9449 67.1998C85.7813 59.6089 82.3355 45.9852 79.7713 38.5541C78.1686 33.8797 76.005 29.1653 74.6427 24.3711C73.9616 15.9012 67.1903 12.9048 66.6294 12.3455C66.6294 12.3455 66.5492 17.6991 69.434 22.733C68.9132 22.5732 65.1469 11.9859 57.8147 9.58879C45.5943 5.63353 45.0734 0.759364 44.8731 0.799316C44.6327 0.839268 43.5108 7.47133 45.5943 9.62874C41.3472 7.27157 34.4157 7.23161 30.1686 11.0271C37.0601 11.7862 39.5442 15.8213 41.0668 16.9799C39.4641 18.0586 39.7846 18.5381 38.3823 19.8565C32.6527 25.2101 22.3556 32.2417 22.8765 41.151C23.4374 50.7395 33.6544 63.9237 28.5659 78.3065" stroke="#2D1F04" stroke-width="1.04675" stroke-miterlimit="10" stroke-linecap="round" stroke-linejoin="round"/>
<path d="M93.7133 52.5773C99.8435 55.8534 100.404 52.897 102.728 48.5422C95.5163 49.6209 90.0672 46.5845 88.8652 46.9441" fill="#FFE980"/>
<path d="M93.7133 52.5773C99.8435 55.8534 100.404 52.897 102.728 48.5422C95.5163 49.6209 90.0672 46.5845 88.8652 46.9441" stroke="#2D1F04" stroke-width="1.04675" stroke-miterlimit="10" stroke-linecap="round" stroke-linejoin="round"/>
<path d="M79.9316 35.7576C95.8382 35.358 82.6161 49.1016 86.1019 51.5786C87.5443 52.6174 98.162 53.9358 98.162 53.9358C98.162 53.9358 92.3523 52.9769 92.3123 49.621C92.2722 45.9853 93.6345 39.1135 89.5877 37.076" fill="#FFDB1F"/>
<path d="M79.9316 35.7576C95.8382 35.358 82.6161 49.1016 86.1019 51.5786C87.5443 52.6174 98.162 53.9358 98.162 53.9358C98.162 53.9358 92.3523 52.9769 92.3123 49.621C92.2722 45.9853 93.6345 39.1135 89.5877 37.076" stroke="#2D1F04" stroke-width="1.04675" stroke-miterlimit="10" stroke-linecap="round" stroke-linejoin="round"/>
<path d="M85.8592 67.1598C86.8208 67.7591 91.4285 67.9588 92.4302 68.0787C95.4752 68.4782 98.2398 69.3971 100.924 70.9153C104.17 72.7531 106.333 76.2289 109.258 78.5462C116.51 84.3392 121.799 92.4095 128.891 98.5222C132.377 101.519 135.662 104.395 139.789 106.553C148.5 111.106 182 116 229.5 118C229.66 118.28 220 122.5 219 124.891C218 127.281 213.5 137.5 213.5 142C213 145 213.742 154.442 212.5 156C212.5 160 211.061 161.203 210.5 164C185.5 172 149.605 155.318 142.994 154C141.031 153.6 119 142 112.784 136.5C109.178 135.301 109.5 132.721 105.5 131.363C104.659 131.443 103.101 132.202 102.5 132.721C100 137 100.5 139.5 96.557 141.511C95.956 142.869 93.552 142.989 92.3901 143.588C91.3884 144.068 89.7857 144.667 88.6238 144.387C88.2231 144.307 87.542 144.267 86.7407 144.307C85.2181 144.347 83.3751 144.467 82.734 144.267C78.8876 142.989 77.8859 136.677 79.7691 133.56C81.6522 130.404 79.7691 132.042 79.7691 131.283C79.7691 130.005 79.8893 128.806 79.8893 127.527C79.8893 127.288 79.8893 125.77 79.8893 125.77C80.4502 125.77 82.0128 128.047 82.734 128.446C84.6572 129.605 87.1413 130.604 89.345 130.844C89.4652 130.844 91.749 131.683 91.9093 131.363C92.0295 131.123 91.5887 131.003 91.5086 130.963C90.3066 130.244 85.6989 128.726 86.8208 127.248C87.9827 125.69 93.2716 124.012 94.9944 123.293C97.0378 122.494 104.17 121.495 101.726 121.694C99.3216 121.854 112.584 118.418 113.265 112.505C113.585 109.789 113.265 107.871 112.784 105.434C110.821 95.5658 102.287 88.0947 97.3183 79.8246C95.3951 76.5885 92.7507 73.3923 90.3066 70.5557C89.946 70.1962 85.4185 66.8801 85.8592 67.1598Z" fill="white"/>
<path d="M40.5046 34.1994C41.8668 34.9185 51.1223 35.9972 46.8752 32.9209C44.4712 31.163 37.0188 32.3616 40.5046 34.1994Z" fill="#2D1F04"/>
<path d="M40.5046 34.1994C41.8668 34.9185 51.1223 35.9972 46.8752 32.9209C44.4712 31.163 37.0188 32.3616 40.5046 34.1994Z" stroke="#2D1F04" stroke-width="1.04675" stroke-miterlimit="10" stroke-linecap="round" stroke-linejoin="round"/>
<path d="M42.4675 35.1182C42.9884 36.8761 41.3056 38.1146 41.7463 39.6727C42.2672 41.3107 44.4308 41.2308 45.6728 41.6304C48.758 42.5493 53.8465 42.1897 56.0501 39.5529C56.8114 38.634 57.172 37.4354 57.9333 36.5564C58.2939 36.117 59.2955 36.8761 59.6561 37.0758" stroke="#2D1F04" stroke-width="1.04675" stroke-miterlimit="10" stroke-linecap="round" stroke-linejoin="round"/>
<path d="M19.509 125.37C20.711 128.007 30.928 142.629 28.9647 145.027C27.0015 147.424 19.2285 151.659 19.2285 152.338C19.2686 153.616 47.6359 149.062 49.2385 147.344C51.1217 145.306 45.0716 136.677 44.6709 134.559" fill="#FFDB1F"/>
<path d="M31.3691 29.9246C32.6112 27.6473 36.3374 28.0069 37.0186 30.4839" stroke="#2D1F04" stroke-width="1.04675" stroke-miterlimit="10" stroke-linecap="round" stroke-linejoin="round"/>
<path d="M56.4102 32.9207C58.4936 30.1641 62.7407 31.4026 63.5821 34.359" stroke="#2D1F04" stroke-width="1.04675" stroke-miterlimit="10" stroke-linecap="round" stroke-linejoin="round"/>
<path d="M12.2962 104.076C12.5366 104.955 12.5366 104.995 13.338 105.354C15.0608 106.153 15.3413 106.952 16.9039 107.991C21.2712 110.868 29.7654 110.628 34.6535 111.587C45.6318 113.704 63.742 113.784 74.7203 112.226C76.1226 112.026 86.2996 106.353 86.4198 106.832C86.7002 107.831 88.2628 108.95 87.5016 109.629C83.1343 113.624 76.1627 117.739 70.0325 119.537C54.6068 124.052 42.5066 126.249 26.7603 122.614C22.9941 121.735 14.7804 117.18 12.176 113.904C11.3346 112.825 12.0158 103.117 12.2962 104.076Z" fill="#F31010"/>
<path d="M28.8448 76.6286C25.5593 84.4992 20.551 89.1736 18.9483 92.6494C17.3456 96.1252 11.0952 101.039 11.0551 103.756C10.975 107.592 21.753 111.507 26.2004 112.785C46.354 118.698 78.2471 114.743 86.9015 107.112C88.384 105.794 84.2171 104.555 83.5359 103.037C81.0117 97.5635 76.6845 93.0889 74.9216 87.176C73.7196 83.1008 72.3573 80.3841 73.1987 76.0293C73.4391 74.7508 74.3206 72.2339 75.202 71.3949C75.763 70.8755 77.0852 69.2774 76.364 69.4372C64.7046 72.3937 53.1653 79.8647 41.0251 80.424C36.7379 80.6238 33.9333 76.7085 29.4859 76.1492" fill="#FFDB1F"/>
<path d="M106.574 32.1218C106.574 32.1218 104.25 41.8702 102.608 42.869C100.925 43.8678 107.736 41.7503 108.818 39.9125C109.86 38.1146 106.574 32.1218 106.574 32.1218Z" fill="white"/>
<path d="M106.574 32.1218C106.574 32.1218 104.25 41.8702 102.608 42.869C100.925 43.8678 107.736 41.7503 108.818 39.9125C109.86 38.1146 106.574 32.1218 106.574 32.1218Z" stroke="#2D1F04" stroke-width="1.04675" stroke-miterlimit="10" stroke-linecap="round" stroke-linejoin="round"/>
<path d="M27.9222 139.873C26.2394 139.154 29.4047 144.028 28.6835 145.426C28.5232 145.746 21.0708 150.34 19.7085 152.298C18.9873 153.337 21.3112 152.617 24.3162 152.418C27.0808 152.218 30.7269 151.499 33.4514 151.179C38.9005 150.58 42.9873 148.942 48.2761 148.063C52.1225 147.424 48.3963 140.872 47.635 140.872C47.0741 140.872 45.832 141.83 45.1108 141.91C39.2611 142.789 33.6517 142.27 27.9222 139.873Z" fill="#F31010"/>
<path d="M93.2313 71.4746C93.9926 72.1138 98.3999 78.1866 104.931 88.0947C106.213 90.0524 109.338 97.6433 110.42 99.6009C113.144 104.675 113.425 108.47 113.625 110.827C114.026 115.861 109.418 118.059 107.134 119.217C105.171 120.176 102.246 121.095 99.1612 122.174C95.2346 123.532 91.0677 125.25 88.1428 127.847C86.9007 128.966 91.9892 130.244 92.47 131.163C87.0209 131.163 81.8924 129.965 78.647 125.13C77.5652 123.532 74.9208 120.136 75.8022 118.099C77.0042 115.262 87.9024 109.869 87.6219 108.67C86.9809 106.153 84.2563 103.596 82.7739 101.559C78.2864 95.2861 71.6353 83.9796 73.0777 76.0292C73.3982 74.2313 74.0794 71.8342 75.4817 70.5557C77.6854 68.5581 83.6153 65.8414 87.7421 67.3196C89.1044 67.799 92.3498 70.4359 92.3498 70.4359" fill="#FFDB1F"/>
<path d="M22.5946 76.5886C21.5529 76.6685 23.8768 76.4288 24.1572 76.3489C26.0003 76.0293 29.0053 75.3501 28.4444 78.1068C26.3609 88.5343 20.5913 89.7728 15.5429 98.1627C14.3008 100.24 11.0153 104.235 11.4961 106.673C11.5763 107.072 11.1756 112.146 10.9352 112.266C10.6948 112.386 6.76824 108.311 6.04704 107.991C-0.363645 104.795 -1.44545 100.44 3.24236 94.2474C6.56791 89.8127 11.2958 84.3792 15.7031 81.0632C17.2257 79.9046 19.1889 78.5063 20.9118 77.6673C21.5128 77.3876 23.1155 76.5486 22.5946 76.5886Z" fill="#FFDB1F"/>
<path d="M56.6118 137.516C57.2128 140.951 61.9807 147.064 63.8639 149.861C64.3046 150.54 85.7003 154.415 87.0225 154.775C88.3447 155.135 91.3096 156.253 91.1093 155.174C90.7086 153.097 81.7337 144.268 79.9707 142.19C79.0892 141.111 79.4899 138.075 79.4498 138.035C79.2094 137.795 79.1694 137.635 79.0492 137.955C78.7286 138.794 77.8472 139.473 77.2061 140.112C75.8038 141.511 72.5984 140.552 70.4348 141.151C68.3113 141.751 63.8639 141.591 61.3397 140.592C59.9373 140.033 59.4565 140.312 58.1343 139.873C56.8923 139.433 56.3714 136.197 56.6118 137.516Z" fill="#F31010"/>
<path d="M19.3488 125.21C20.5508 127.847 30.7679 142.47 28.8046 144.867C26.8413 147.264 19.0684 151.499 19.0684 152.178C19.1084 153.456 47.4757 148.902 49.0784 147.184C50.9615 145.146 44.9114 136.517 44.5108 134.399" stroke="#2D1F04" stroke-width="1.04675" stroke-miterlimit="10" stroke-linecap="round" stroke-linejoin="round"/>
<path d="M11.8965 113.904C15.3422 124.851 21.232 127.887 28.404 131.443C33.813 134.16 38.9015 133.92 44.8314 134.919C52.5242 136.197 62.9015 135.119 69.6728 131.723C71.8764 130.604 73.8397 131.003 75.9232 129.565C77.2053 128.686 80.7713 127.288 81.813 126.249C81.8531 126.209 80.1302 126.609 80.0901 126.449C79.8497 125.65 79.4491 125.85 79.0484 125.41C77.6861 123.852 75.6427 120.696 75.8831 118.658C76.2037 115.981 80.5709 116.061 81.3723 113.984C81.4123 113.904 78.7279 115.222 78.5275 115.342C77.2454 116.101 75.803 116.621 74.4007 117.14C71.8765 118.019 69.2721 118.578 66.788 119.577C65.1052 120.256 61.7796 120.975 59.9766 121.335C55.2487 122.294 46.7546 124.052 42.0668 123.492C29.5259 121.974 31.7295 121.695 21.5125 118.179C19.5893 117.54 12.9382 113.225 12.177 111.707" fill="#F31010"/>
<path d="M54.4082 134.879C54.4082 134.879 61.3798 147.623 63.864 149.142C68.1511 151.739 90.8289 155.614 91.2296 155.254C91.5902 154.935 84.3381 145.067 80.0509 142.07C77.3665 140.192 81.3731 131.723 80.2112 127.288" stroke="#2D1F04" stroke-width="1.04675" stroke-miterlimit="10" stroke-linecap="round" stroke-linejoin="round"/>
<path d="M28.8842 75.9092C28.5636 77.6271 24.8775 81.7821 23.0344 85.4577C21.1914 89.1333 21.5119 90.6515 21.5119 90.6515C21.5119 90.6515 14.8207 96.7242 12.0161 104.795C10.1329 110.228 13.0578 124.531 27.6421 130.843C54.3666 142.39 82.5736 127.487 86.9009 123.572" stroke="#2D1F04" stroke-width="1.04675" stroke-miterlimit="10" stroke-linecap="round" stroke-linejoin="round"/>
<path d="M86.0608 34.7188C90.7887 35.6777 97.8405 42.7492 104.532 40.7116C111.223 38.714 106.254 31.7623 106.575 32.082C108.138 33.6401 112.425 43.1487 108.458 45.4659C102.248 49.0616 85.6602 34.8387 85.6602 34.8387" fill="#F31010"/>
<path d="M86.0608 34.7188C90.7887 35.6777 97.8405 42.7492 104.532 40.7116C111.223 38.714 106.254 31.7623 106.575 32.082C108.138 33.6401 112.425 43.1487 108.458 45.4659C102.248 49.0616 85.6602 34.8387 85.6602 34.8387" stroke="#2D1F04" stroke-width="1.04675" stroke-miterlimit="10" stroke-linecap="round" stroke-linejoin="round"/>
<path d="M85.5399 111.107C84.6985 111.547 83.8571 111.986 83.0558 112.466C79.5299 114.583 75.7236 115.782 75.964 119.457C76.2845 124.971 84.2177 130.164 84.418 130.244C85.5399 130.644 90.8688 131.483 92.1509 131.043C92.3513 130.963 88.5049 129.405 87.984 128.526C87.0624 126.928 94.0741 124.571 95.3963 123.732C96.0775 123.293 96.7987 123.013 97.5199 122.693C97.8404 122.533 98.8821 122.494 98.5616 122.254C97.4798 121.535 95.1559 122.214 93.6735 121.734C92.4314 121.335 90.0675 120.696 89.3463 119.737C87.1426 116.82 85.8204 114.863 85.5399 111.107Z" fill="#F31010"/>
<path d="M27.1221 72.5136C26.7214 71.6746 24.7181 67.3997 25.8399 66.321C26.0403 66.1212 28.6446 69.7569 28.7247 69.8368C30.4877 71.9542 32.4509 73.7121 35.1755 74.0717C36.8182 74.3114 37.4593 72.3937 38.461 71.5547C40.6246 69.8368 41.0653 71.8743 41.506 71.7145C42.1872 71.4748 42.1471 69.7968 43.269 69.4772C44.9518 68.9978 44.3908 72.5136 46.274 72.993C49.3591 73.7521 58.2139 71.2751 61.0987 69.7968C70.5144 65.0825 77.7264 61.0873 87.663 63.7241C95.8767 65.9215 105.853 70.476 115.83 78.6662C123.403 82.1021 125.807 84.8987 129.092 86.337C130.054 86.337 132.778 87.5356 134.661 87.2959C140.471 86.4569 142.434 84.9387 143.636 85.6179C144.838 86.2971 142.715 85.3782 143.356 85.6179C147.042 87.0162 186.909 91.0913 190.515 97.2839C191.396 102.877 197.126 103.676 200.732 107.072C202.454 107.911 237.513 117.54 239.196 118.259C240.157 118.658 165.486 114.454 150.047 109.869C131.216 104.276 121.84 93.1688 109.339 79.1057C105.332 74.5911 102.047 70.6358 89.2256 67.5595C78.0469 64.8827 59.1354 78.7861 43.0686 80.6638C38.9818 81.1432 33.8533 76.7085 29.8065 76.309C28.9251 76.2291 20.0703 76.3889 20.0703 75.6698C20.0703 74.1516 25.88 67.7992 26.4409 70.1164C26.481 70.2363 24.678 66.2011 25.9601 65.3222C27.4426 64.3234 31.5695 70.8356 32.1304 71.7545C33.0519 73.2727 34.4543 73.792 35.9368 74.5112" fill="#F31010"/>
<path d="M41.6276 71.3149C39.0232 67.5195 33.9748 76.7085 36.2987 77.1479" stroke="#2D1F04" stroke-width="1.04675" stroke-miterlimit="10" stroke-linecap="round" stroke-linejoin="round"/>
<path d="M36.0961 74.0716C32.6904 75.3102 27.3615 63.6441 26.0794 65.6817C24.7973 67.7192 27.5218 71.3149 27.2413 72.913" stroke="#2D1F04" stroke-width="1.04675" stroke-miterlimit="10" stroke-linecap="round" stroke-linejoin="round"/>
<path d="M25.9591 70.0364C25.0376 70.4359 18.7872 74.511 20.7505 75.7895C22.2329 76.7483 26.9207 75.7495 28.5635 75.8294C32.0092 75.9493 33.0109 78.3065 36.3364 78.9457" stroke="#2D1F04" stroke-width="1.04675" stroke-miterlimit="10" stroke-linecap="round" stroke-linejoin="round"/>
<path d="M45.9922 73.1926C50.1191 73.9916 54.887 72.1538 58.6934 70.5158C65.3044 67.7191 71.8353 62.8849 79.1675 62.845C106.574 62.845 127.208 93.8878 153.852 96.0851" stroke="#2D1F04" stroke-width="1.04675" stroke-miterlimit="10" stroke-linecap="round" stroke-linejoin="round"/>
<path d="M229.98 118.658C207.142 123.253 216.758 157.212 209.746 164.603C200.13 170.196 140.23 161.807 106.374 131.643C97.3587 130.045 106.694 145.826 82.7344 144.308" stroke="#2D1F04" stroke-width="1.04675" stroke-miterlimit="10" stroke-linecap="round" stroke-linejoin="round"/>
<path d="M12.1367 105.434C19.3087 114.064 60.4573 123.332 86.3404 107.152" stroke="#2D1F04" stroke-width="1.04675" stroke-miterlimit="10" stroke-linecap="round" stroke-linejoin="round"/>
<path d="M39.1428 33.6001C36.6186 34.7587 32.5719 39.3132 32.6921 41.0711C33.3331 51.4187 47.637 56.5326 55.0894 49.3013C65.1862 39.5529 43.9108 31.3628 39.1428 33.6001Z" stroke="#2D1F04" stroke-width="1.04675" stroke-miterlimit="10" stroke-linecap="round" stroke-linejoin="round"/>
<path d="M80.17 38.9136C79.0481 37.0359 76.8444 35.4777 78.5673 34.399C84.4571 30.7234 92.6708 39.9923 92.1099 39.7926C87.1817 37.715 84.8578 38.594 79.7693 38.9136" fill="#FFE980"/>
<path d="M80.17 38.9136C79.0481 37.0358 76.8444 35.4777 78.5673 34.399C84.4571 30.7234 92.6708 40.0322 92.1099 39.7925C87.1817 37.715 84.8578 38.5939 79.7693 38.9136" stroke="#2D1F04" stroke-width="1.04675" stroke-miterlimit="10" stroke-linecap="round" stroke-linejoin="round"/>
<path d="M74.5221 32.4814C77.9278 39.2333 75.1231 47.5833 71.0363 52.4974C61.821 63.684 39.8644 61.4866 34.255 55.2141C25.3201 45.306 23.9979 30.8034 34.3351 27.767C38.9028 26.4086 52.9662 25.6496 57.5739 26.4885C64.866 27.767 66.7492 31.6424 71.7175 35.3579" fill="#FFDBAF"/>
<path d="M85.7792 110.388C84.4169 117.979 92.1097 123.253 99.2416 122.214" stroke="#2D1F04" stroke-width="1.04675" stroke-miterlimit="10" stroke-linecap="round" stroke-linejoin="round"/>
<path d="M46.6755 28.7657C45.2732 27.2076 32.4518 31.1629 33.8942 40.8313C35.1363 49.2612 46.355 50.6595 50.9226 48.9016C62.3016 44.5069 60.4184 27.727 45.9944 30.8432" fill="#9D7B51"/>
<path d="M42.4671 32.1218C38.0197 30.9632 31.1683 34.479 26.3202 32.4414C25.6791 32.1618 25.9596 32.0819 25.9997 32.6412C26.0397 33.0407 26.0798 31.962 26.0798 31.8821C27.9229 28.1266 30.9279 22.0139 35.3753 21.095C42.3069 19.6568 65.5456 22.2137 71.0748 27.8869C71.7559 28.606 72.397 29.2453 72.998 29.8845C75.7225 32.801 77.5256 34.9584 78.4471 36.5565C79.8094 38.8737 80.7309 42.5094 82.2134 46.6245C82.3336 46.9041 79.0882 43.708 78.8077 43.3883C77.205 41.7103 74.0397 39.8725 71.6758 39.513C65.8661 38.634 63.5423 39.6328 56.0097 36.4367C53.8461 35.5178 45.2317 30.8434 42.3469 31.962" fill="#FFDB1F"/>
<path d="M42.4671 32.1218C38.0197 30.9632 31.1683 34.479 26.3202 32.4414C25.6791 32.1618 25.9596 32.0819 25.9997 32.6412C26.0397 33.0407 26.0798 31.962 26.0798 31.8821C27.9229 28.1266 30.9279 22.0139 35.3753 21.095C42.3069 19.6568 65.5456 22.2137 71.0748 27.8869C71.7559 28.606 72.397 29.2453 72.998 29.8845C75.7226 32.801 77.5256 34.9584 78.4471 36.5565C79.8094 38.8737 80.7309 42.5094 82.2134 46.6245C82.3336 46.9041 79.0882 43.708 78.8077 43.3883C77.205 41.7103 74.0397 39.8725 71.6758 39.513C65.8661 38.634 63.5423 39.6328 56.0097 36.4367C53.8461 35.5178 45.2317 30.8434 42.3469 31.962" stroke="#2D1F04" stroke-width="1.04675" stroke-miterlimit="10" stroke-linecap="round" stroke-linejoin="round"/>
<path d="M28.1649 140.472C27.9646 140.312 38.4621 145.266 47.5172 140.672" stroke="#2D1F04" stroke-width="1.04675" stroke-miterlimit="10" stroke-linecap="round" stroke-linejoin="round"/>
<path d="M57.2129 139.513C62.702 141.83 75.0426 143.388 79.0092 138.115" stroke="#2D1F04" stroke-width="1.04675" stroke-miterlimit="10" stroke-linecap="round" stroke-linejoin="round"/>
<path d="M54.4467 128.327C54.167 128.207 54.2469 128.127 54.2469 128.447L54.4467 128.327Z" fill="black"/>
<path d="M40.9038 31.962C41.2644 34.3991 49.9589 35.9972 49.0774 32.6812C48.3562 30.0843 40.423 28.2465 40.9038 31.962Z" fill="#2D1F04"/>
<path d="M45.7933 73.0328C46.1539 72.7531 43.4694 69.6768 43.229 69.7966C42.5078 70.1162 35.6964 77.7471 36.4577 78.8258C37.1789 79.9045 43.1889 81.5426 43.5896 80.7036C44.3509 79.1055 42.7482 78.5461 42.2273 77.5074C40.7048 74.4311 44.4711 74.1115 45.7933 73.0328Z" stroke="#2D1F04" stroke-width="1.04675" stroke-miterlimit="10" stroke-linecap="round" stroke-linejoin="round"/>
<path d="M32.2109 29.2854C33.9338 26.6086 36.8186 27.8871 37.1391 29.8048" stroke="#2D1F04" stroke-width="1.04675" stroke-miterlimit="10" stroke-linecap="round" stroke-linejoin="round"/>
<path d="M130.015 87.0959C139.391 88.2146 143.237 85.6576 143.237 85.6576C143.237 85.6576 190.877 92.0101 191.117 97.883C191.518 108.75 237.261 115.662 239.398 118.059C240.359 119.138 164.473 115.662 143.237 108.071C136.666 104.315 127.892 98.9217 122.563 93.4483C112.787 83.4203 103.171 68.4383 87.8251 67C78.169 66.0811 68.3526 72.3136 59.9787 76.0691C51.805 79.7048 46.5162 79.3052 44.2324 79.9445" stroke="#2D1F04" stroke-width="1.04675" stroke-miterlimit="10" stroke-linecap="round" stroke-linejoin="round"/>
<path d="M57.1328 32.8009C59.0961 30.0842 63.0226 30.9632 63.9442 33.8797" stroke="#2D1F04" stroke-width="1.04675" stroke-miterlimit="10" stroke-linecap="round" stroke-linejoin="round"/>
<path d="M30.248 22.6931C33.2531 18.7778 39.824 18.2983 45.1128 19.7766" stroke="#2D1F04" stroke-width="3.95626" stroke-miterlimit="10" stroke-linecap="round" stroke-linejoin="round"/>
<path d="M56.9316 21.0151C66.3473 21.4946 70.6745 24.8106 72.6779 30.284" stroke="#2D1F04" stroke-width="3.95626" stroke-miterlimit="10" stroke-linecap="round" stroke-linejoin="round"/>
<path d="M22.6737 76.3088C19.268 79.7048 3.80223 89.493 1.11776 98.682C-1.60678 107.871 10.253 109.829 11.8557 113.025" stroke="#2D1F04" stroke-width="1.04675" stroke-miterlimit="10" stroke-linecap="round" stroke-linejoin="round"/>
<path d="M11.375 111.027C13.6989 114.982 23.7156 119.817 33.6521 121.774C37.6187 122.533 41.7055 123.013 45.8324 123.133C56.8909 123.372 68.5102 120.935 80.1296 114.183" stroke="#2D1F04" stroke-width="1.04675" stroke-miterlimit="10" stroke-linecap="round" stroke-linejoin="round"/>
<path d="M87.3833 109.589C87.3833 109.589 86.3015 112.146 90.9893 114.503" stroke="#2D1F04" stroke-width="1.04675" stroke-miterlimit="10" stroke-linecap="round" stroke-linejoin="round"/>
<path d="M69.1914 57.1719L69.2314 61.0872" stroke="#AA8963" stroke-width="1.4161" stroke-miterlimit="10" stroke-linecap="round" stroke-linejoin="round"/>
<path d="M71.5566 55.2942L71.5966 59.2095" stroke="#AA8963" stroke-width="1.4161" stroke-miterlimit="10" stroke-linecap="round" stroke-linejoin="round"/>
<path d="M44.7119 2.15771C44.7119 2.15771 42.3078 11.8261 52.3245 14.2632C62.3412 16.7003 67.5098 17.7391 70.2745 24.3312" stroke="#2D1F04" stroke-width="1.04675" stroke-miterlimit="10" stroke-linecap="round" stroke-linejoin="round"/>
<path d="M40.3848 16.3806C40.3848 16.3806 41.9474 18.4581 48.8789 17.4593C55.8105 16.4605 60.3781 15.7014 63.944 17.6191" stroke="#2D1F04" stroke-width="1.04675" stroke-miterlimit="10" stroke-linecap="round" stroke-linejoin="round"/>
<path d="M87.7832 109.309C88.4643 110.907 90.4276 112.226 93.673 111.906" stroke="#2D1F04" stroke-width="1.04675" stroke-miterlimit="10" stroke-linecap="round" stroke-linejoin="round"/>
<path opacity="0.2307" d="M77.1259 116.98C80.4915 108.83 74.4013 97.7633 66.2277 98.6822C60.0975 99.3614 48.6785 97.0442 53.7269 96.9243C58.6951 96.8044 67.2294 95.8855 70.1142 92.13C74.2411 86.8164 71.0758 74.631 66.0274 73.8319C65.1058 73.6721 74.5616 69.7169 76.2845 68.8379C78.0474 67.959 68.5115 75.8296 76.9656 92.6095C81.3729 101.399 88.2644 109.15 88.2644 109.15C88.2644 109.15 77.4063 113.864 75.4431 119.058C73.4397 124.252 82.8955 126.928 80.7719 127.807C78.1676 128.886 56.8921 134.359 59.7369 133.68C73.2795 130.564 75.1225 121.775 77.1259 116.98Z" fill="#3F2719"/>
<path opacity="0.2307" d="M104.131 88.0947C94.1945 68.8777 86.4216 64.3631 81.253 67.5992C91.5902 67.3995 111.103 96.9241 96.9992 103.516C84.1779 109.509 74.1211 84.3791 74.1211 84.3791C74.1211 84.3791 83.2964 103.316 90.5084 112.545C91.7104 114.104 84.4183 115.422 78.849 124.371C76.7655 127.727 87.0226 130.684 87.0226 130.684L91.4299 131.003L88.2647 127.847C88.2647 127.847 86.5017 127.887 92.9525 125.05C99.4032 122.214 106.175 119.537 109.74 117.739C116.912 114.144 111.744 100.76 104.131 88.0947Z" fill="#3F2719"/>
<path opacity="0.2307" d="M23.5971 84.1794C23.5971 84.1794 17.1464 94.0876 29.2866 95.2861C33.093 95.6457 32.3317 96.2849 31.931 96.7644C31.33 97.4835 29.9677 96.0053 26.3217 95.5259C22.6756 95.0864 17.3066 94.9266 17.3066 94.9266C17.3066 94.9266 19.5904 93.728 21.1931 91.0512C22.7157 88.3744 23.5971 84.1794 23.5971 84.1794Z" fill="#3F2719"/>
<path opacity="0.2307" d="M36.7773 19.537C62.2999 12.5453 65.8658 15.7016 71.3149 34.519C76.764 53.3365 71.6755 64.643 71.6755 64.643C71.6755 64.643 82.0127 61.7264 86.4201 64.1236C90.7874 66.5207 75.0812 27.8071 75.0812 27.8071L71.355 25.0104C71.2748 25.0104 45.2715 20.8154 36.7773 19.537Z" fill="#3F2719"/>
<path opacity="0.2307" d="M30.8887 11.4266C30.8887 11.4266 33.5731 9.66869 38.8219 11.8261C44.0306 13.9835 45.0723 16.061 50.8019 15.9412C56.5314 15.8213 58.2142 15.7414 58.2142 15.7414L43.2292 17.8189C43.2292 17.8189 33.4129 10.9472 30.8887 11.4266Z" fill="#3F2719"/>
<path opacity="0.2307" d="M44.4702 1.91797C44.4702 1.91797 44.1096 11.0271 48.4369 12.745C52.7641 14.423 61.9794 16.7003 64.7841 18.2584C67.5888 19.8165 62.6205 16.4606 55.4886 12.5852C48.3167 8.74979 45.0312 8.58998 44.4702 1.91797Z" fill="#3F2719"/>
<path opacity="0.2307" d="M67.1503 13.4641C67.1503 13.4641 71.798 16.9399 73.1202 21.8541C74.4825 26.7282 74.8431 27.5672 74.8431 27.5672L70.2354 24.8505C70.2354 24.8105 66.99 16.8201 67.1503 13.4641Z" fill="#3F2719"/>
<path opacity="0.2307" d="M22.7532 128.487C22.7532 128.487 31.2474 133.041 40.7031 136.677C45.992 138.714 46.1522 143.948 46.7933 146.265C47.1138 147.384 22.032 150.66 19.5078 152.618C19.5078 152.618 28.8033 152.498 37.0571 150.9C45.3108 149.302 50.0788 149.022 49.8384 146.265C49.598 143.509 46.032 135.478 45.4711 135.518C43.9485 135.638 22.7532 128.487 22.7532 128.487Z" fill="#3F2719"/>
<path opacity="0.2307" d="M63.2617 133.4C63.3017 133.52 63.3416 133.6 63.3816 133.72L63.2617 133.4Z" fill="#3F2719"/>
<path opacity="0.2307" d="M54.8887 134.759C54.8887 134.759 64.9855 135.438 76.084 132.521C80.6917 131.323 75.8837 143.868 76.9254 144.267C81.7334 146.185 91.7902 155.614 90.4279 152.737C89.0656 149.861 79.2493 142.15 78.8486 139.074C78.4479 135.997 80.3311 127.927 80.3311 127.927C80.3311 127.927 83.1358 127.048 76.7651 128.766C70.4346 130.484 54.8887 134.759 54.8887 134.759Z" fill="#3F2719"/>
<path opacity="0.2307" d="M1.67946 103.237C1.67946 103.237 6.88814 113.984 16.5442 95.9255C10.1736 106.193 12.1369 112.546 12.1369 112.546C12.1369 112.546 1.19866 106.952 1.67946 103.237Z" fill="#3F2719"/>
<path opacity="0.2307" d="M19.3086 79.425C19.3086 79.425 24.4371 78.0667 29.8862 79.0255C35.3754 79.9844 38.14 80.344 38.14 80.344C38.14 80.344 41.9864 85.298 46.1934 83.5801C50.4004 81.8621 47.9563 80.344 47.9563 80.344C47.9563 80.344 48.4772 83.8198 56.0899 79.6648C80.6508 66.2808 89.2251 67.5593 89.0648 67.5593C85.9797 66.8801 82.2936 65.1222 64.2635 74.5109C52.8846 80.4638 44.5907 79.9045 44.5907 79.9045C44.5907 79.9045 43.9096 81.8222 41.7059 81.103C39.5022 80.3839 36.6174 78.7459 36.6174 78.7459C36.6174 78.7459 34.8545 78.8258 32.4505 77.4674C30.0064 76.0691 28.9647 75.9492 26.4405 75.9892C23.9563 76.0291 22.6341 76.3487 22.6341 76.3487L19.3086 79.425Z" fill="#3F2719"/>
<path opacity="0.2307" d="M129.613 87.0958C129.613 87.0958 138.948 87.6551 143.195 86.0171C147.443 84.3391 187.309 94.2872 187.309 94.2872C187.309 94.2872 191.476 97.4034 191.917 100.679C192.358 103.956 145.239 94.2872 145.239 94.2872L129.613 87.0958Z" fill="#545454"/>
<path opacity="0.2307" d="M93.8731 124.611C93.8731 124.611 94.3139 129.405 95.9165 134.119C97.3589 138.314 97.5192 142.789 93.3923 143.229C89.2254 143.668 84.217 144.227 84.217 144.227C84.217 144.227 81.2922 144.227 79.9299 141.311C78.1269 137.435 80.4908 128.127 80.4908 128.127L92.591 131.043C92.591 131.043 86.4207 128.486 87.8631 127.647C89.3055 126.768 93.8731 124.611 93.8731 124.611Z" fill="#969696"/>
<path opacity="0.2307" d="M106.975 119.258C106.975 119.258 105.252 130.684 106.975 132.642C107.416 133.121 135.823 153.017 142.034 153.017C259.429 192.17 184.504 136.237 230.581 118.259C91.349 116.061 133.219 77.3078 87.9434 66.9602C97.3591 76.1093 126.808 111.467 106.975 119.258Z" fill="#969696"/>
<path d="M81.0111 67.5595C81.0111 67.5595 69.1914 70.476 73.6789 84.0197C78.2065 97.5635 88.0228 109.07 88.0228 109.07C88.0228 109.07 76.5637 115.063 75.6823 119.817C74.6806 125.131 83.6956 129.765 83.6956 129.765C83.6956 129.765 87.7424 131.683 91.8692 131.403C94.3935 131.243 85.3784 128.686 88.704 126.968C92.0295 125.25 103.408 120.736 103.408 120.736C103.408 120.736 114.507 116.541 113.585 109.509C112.664 102.438 93.9126 60.1284 81.0111 67.5595Z" stroke="#2D1F04" stroke-width="1.04675" stroke-miterlimit="10" stroke-linecap="round" stroke-linejoin="round"/>
<path d="M46.7949 80.7437V80.9035V81.1032V81.4228L46.8349 82.6614L46.7949 81.5826" stroke="#2D1F04" stroke-width="1.04675" stroke-miterlimit="10" stroke-linecap="round" stroke-linejoin="round"/>
<path d="M63.3418 76.0691L63.4219 76.2289L63.5021 76.3887L63.6223 76.7083L63.7024 76.8681" stroke="#2D1F04" stroke-width="1.04675" stroke-miterlimit="10" stroke-linecap="round" stroke-linejoin="round"/>
<path d="M75.082 133.001V134V134.2V134.519V134.719" stroke="#2D1F04" stroke-width="1.04675" stroke-miterlimit="10" stroke-linecap="round" stroke-linejoin="round"/>
<path d="M28.8457 134.959V135.997V136.157V136.477V136.677" stroke="#2D1F04" stroke-width="1.04675" stroke-miterlimit="10" stroke-linecap="round" stroke-linejoin="round"/>
<path d="M48.2782 80.7437V80.9834V81.263L48.2383 82.5415L48.2782 81.4228" stroke="#2D1F04" stroke-width="1.04675" stroke-miterlimit="10" stroke-linecap="round" stroke-linejoin="round"/>
<path d="M64.7051 75.5098L64.8249 75.7495L64.9048 75.9492L64.9847 76.109" stroke="#2D1F04" stroke-width="1.04675" stroke-miterlimit="10" stroke-linecap="round" stroke-linejoin="round"/>
<path d="M76.6044 132.841L76.5645 134.12V134.359V134.519" stroke="#2D1F04" stroke-width="1.04675" stroke-miterlimit="10" stroke-linecap="round" stroke-linejoin="round"/>
<path d="M76.6044 132.841L76.5645 134.12V134.359V134.519" stroke="#2D1F04" stroke-width="1.04675" stroke-miterlimit="10" stroke-linecap="round" stroke-linejoin="round"/>
<path d="M30.3681 134.799L30.3281 136.077V136.317V136.517" stroke="#2D1F04" stroke-width="1.04675" stroke-miterlimit="10" stroke-linecap="round" stroke-linejoin="round"/>
<path d="M76.7652 69.5569C76.7652 69.5569 72.1976 71.7942 64.8253 76.3488C57.453 80.9033 50.4413 83.62 42.1074 82.6612C36.0573 81.942 30.8086 78.3863 30.8086 78.3863" stroke="#2D1F04" stroke-width="1.04675" stroke-miterlimit="10" stroke-linecap="round" stroke-linejoin="round"/>
<path d="M29.647 111.147C28.4851 111.027 27.4433 111.826 28.0844 113.584C29.5669 117.54 35.0961 124.411 36.6186 124.531C39.3031 124.731 51.2831 113.225 47.9976 112.905C39.4233 112.026 34.7755 111.627 29.647 111.147Z" fill="#312109"/>
<path d="M29.647 111.147C28.4851 111.027 27.4433 111.826 28.0844 113.584C29.5669 117.54 35.0961 124.411 36.6186 124.531C39.3031 124.731 51.2831 113.225 47.9976 112.905C39.4233 112.026 34.7755 111.627 29.647 111.147Z" stroke="#312109" stroke-width="1.04675" stroke-miterlimit="10" stroke-linecap="round" stroke-linejoin="round"/>
<path d="M29.007 111.507C25.2007 110.907 33.2941 123.772 35.5379 123.892C38.2224 124.092 50.3626 113.784 47.0771 113.464C38.5028 112.585 34.416 112.346 29.007 111.507Z" fill="#B6B1AE"/>
<path d="M29.007 111.507C25.2007 110.907 33.2941 123.772 35.5379 123.892C38.2224 124.092 50.3626 113.784 47.0771 113.464C38.5028 112.585 34.416 112.346 29.007 111.507Z" stroke="#312109" stroke-width="1.04675" stroke-miterlimit="10" stroke-linecap="round" stroke-linejoin="round"/>
<path d="M31.6094 119.697L33.212 111.667" stroke="#312109" stroke-width="1.04675" stroke-miterlimit="10" stroke-linecap="round" stroke-linejoin="round"/>
<path d="M41.3047 121.175L42.9074 113.145" stroke="#312109" stroke-width="1.04675" stroke-miterlimit="10" stroke-linecap="round" stroke-linejoin="round"/>
<path d="M34.655 113.784L40.8653 114.423L40.0239 119.377C40.0239 119.377 37.099 121.734 36.1374 121.734C35.3361 121.774 33.6934 118.898 33.6934 118.858C33.7735 118.019 34.655 113.784 34.655 113.784Z" fill="#F31010"/>
<path d="M40.8242 114.703L34.8542 114.144L33.8125 118.978L36.0162 121.615" stroke="#FF8080" stroke-width="0.770797" stroke-miterlimit="10" stroke-linecap="round" stroke-linejoin="round"/>
<path d="M40.8666 114.623L40.0653 119.377C40.0653 119.377 36.9401 121.535 36.0586 121.854" stroke="#B30000" stroke-width="0.770797" stroke-miterlimit="10" stroke-linecap="round" stroke-linejoin="round"/>
<path d="M38.5002 34.3191C38.3399 34.0395 39.8224 36.2368 41.4251 38.1545C42.4668 39.393 43.5085 40.5517 44.1496 40.8713C45.7923 41.6703 53.365 42.5093 58.7339 38.6739C62.0595 36.3167 60.3767 35.1581 60.3767 35.1581C60.3767 35.1581 41.385 38.7139 38.5002 34.3191Z" fill="white"/>
<path d="M59.2965 38.9536C56.6521 40.4318 53.607 41.0711 50.9225 41.3507C48.2381 41.6304 45.9543 41.5505 44.7523 41.5505C42.3883 41.5505 38.6621 35.0383 38.6621 35.0383C38.6621 35.0383 53.9676 38.4742 60.779 34.7986C61.6204 35.8773 60.6988 37.8749 59.2965 38.9536Z" stroke="#2D1F04" stroke-width="1.04675" stroke-miterlimit="10" stroke-linecap="round" stroke-linejoin="round"/>
<path d="M37.0993 110.109C34.6552 114.663 36.8188 114.384 39.2629 115.422C36.1778 114.344 35.2162 114.823 32.9324 118.139C35.096 114.503 33.5734 113.465 30.4883 112.426C34.1744 113.784 35.0158 113.744 37.0993 110.109Z" fill="white"/>
<path opacity="0.2289" d="M42.4268 76.5486C43.8692 76.9881 48.1163 76.5486 51.6021 75.1103C52.8441 74.5909 56.0495 72.2737 57.4117 73.8318C58.4936 75.0703 55.0077 76.8282 54.2865 77.028C52.3633 77.5074 49.8792 78.1866 47.8759 78.1067C46.153 78.0268 43.2281 77.6672 42.7072 77.2278C42.587 77.1079 42.2665 76.5086 42.4268 76.5486Z" fill="#312109"/>
<path opacity="0.2327" d="M35.4967 75.5897C35.4967 75.5897 35.0961 76.3488 32.692 74.7108C30.288 73.0728 29.2463 71.6744 29.2463 72.913C29.2062 74.1515 34.8156 76.8682 35.4967 76.5486" fill="#312109"/>
<path opacity="0.2327" d="M39.5036 70.5557C41.4268 70.8354 43.7907 69.477 40.946 72.9529C38.3416 76.149 43.951 72.4734 44.4318 71.5545C44.9126 70.6356 47.4368 72.7531 42.0278 75.7895C40.946 76.3888 45.1129 80.2641 43.1096 80.9832C41.6271 81.5026 36.0177 80.1443 36.3783 78.7459C36.779 77.3476 35.7773 76.5086 35.7773 76.5086C35.7773 76.5086 37.5803 70.2761 39.5036 70.5557Z" fill="#3F2719"/>
<path d="M31.8108 89.1733C34.976 89.2532 37.8609 89.2932 40.6655 89.4131C42.9493 89.5329 43.5904 90.9712 43.5103 92.3695C43.35 94.2872 42.148 95.5657 40.0645 96.2449C39.9443 96.2848 39.8241 96.2848 39.6238 96.3647C41.8275 97.5633 41.8275 100 43.2699 102.198C41.5871 102.158 40.0645 102.158 38.5019 102.158C37.7006 100.72 37.0194 99.3611 36.4585 98.0028C36.138 97.2836 35.6972 96.7243 34.4552 96.9241C34.0946 98.5621 33.8942 100.28 34.0545 102.158C32.572 102.158 31.2098 102.118 29.7674 102.118C29.2866 97.7631 31.0495 93.4083 31.8108 89.1733ZM35.6572 91.8901C35.4568 92.7291 35.2565 93.5281 35.0161 94.487C35.9376 94.447 36.8592 94.447 37.7406 94.3671C38.542 94.2872 39.0629 93.8078 39.1831 93.2085C39.3433 92.5693 39.0228 92.0499 38.2215 91.97C37.4201 91.8501 36.5787 91.8901 35.6572 91.8901Z" fill="#2D1F04"/>
<path d="M56.2113 92.9288C54.809 93.0087 53.4868 93.0886 52.1645 93.1285C52.1245 92.0498 51.5235 91.4905 50.4016 91.4505C49.6804 91.4505 49.0393 91.6503 48.6787 92.3694C48.5986 93.0087 49.0393 93.2084 49.5602 93.3283C50.4817 93.568 51.4433 93.7678 52.405 94.0474C52.9258 94.2072 53.4467 94.3671 53.9676 94.6068C57.1729 96.0051 56.4517 99.6407 53.8874 101.359C53.046 101.918 52.0043 102.318 51.0427 102.477C49.4801 102.757 47.9175 102.677 46.435 102.238C44.4717 101.678 43.1896 99.9604 43.4701 97.8429C44.7522 97.8029 45.9943 97.723 47.3565 97.6831C47.3966 97.9228 47.4367 98.1625 47.5168 98.4022C47.8373 99.6407 49.1996 100.24 50.5619 99.7606C51.1629 99.5608 51.6437 99.1613 51.7238 98.562C51.804 98.0027 51.4834 97.6032 51.0026 97.4034C50.5619 97.2037 50.0811 97.0838 49.6403 96.9639C48.6787 96.6843 47.7171 96.4446 46.8357 96.085C45.1529 95.4058 44.5118 94.2072 44.8323 92.769C45.233 91.1709 46.5151 89.8525 48.3983 89.373C50.2013 88.8936 51.9642 88.8936 53.6871 89.413C55.45 89.9324 56.2514 91.051 56.2113 92.9288Z" fill="#2D1F04"/>
<path d="M162.432 120.117C162.134 120.039 161.832 119.959 161.527 119.875C161.226 119.793 160.918 119.711 160.604 119.629L160.072 119.491C159.749 120.732 159.432 121.976 159.124 123.224C158.815 124.473 158.532 125.728 158.276 126.99L155.527 126.277C155.805 125.377 156.08 124.485 156.354 123.602C156.469 123.228 156.589 122.835 156.713 122.425C156.837 122.014 156.961 121.605 157.085 121.199C157.208 120.792 157.324 120.397 157.433 120.012C157.547 119.625 157.652 119.265 157.747 118.933C157.281 118.825 156.82 118.72 156.364 118.619C155.913 118.519 155.457 118.42 154.997 118.322L155.468 116.516C156.098 116.706 156.724 116.885 157.347 117.056C157.973 117.227 158.604 117.395 159.241 117.56C159.853 117.719 160.46 117.872 161.063 118.02C161.665 118.168 162.267 118.307 162.87 118.437L162.432 120.117ZM167.208 127.696C167.295 127.461 167.387 127.201 167.483 126.916C167.578 126.631 167.672 126.34 167.763 126.041C167.854 125.742 167.939 125.448 168.019 125.159C168.104 124.867 168.177 124.6 168.241 124.359C168.361 123.896 168.475 123.411 168.581 122.906C168.688 122.396 168.776 121.903 168.845 121.426C168.785 121.407 168.714 121.384 168.63 121.358C168.547 121.332 168.459 121.307 168.366 121.283C168.278 121.256 168.192 121.231 168.108 121.209C168.023 121.187 167.951 121.169 167.89 121.153C167.709 121.106 167.515 121.06 167.307 121.014C167.104 120.97 166.894 120.931 166.68 120.897C166.466 120.858 166.253 120.827 166.04 120.802C165.832 120.774 165.633 120.754 165.442 120.743C165.419 120.832 165.387 120.946 165.346 121.086C165.311 121.223 165.273 121.366 165.234 121.515C165.197 121.66 165.158 121.8 165.118 121.936C165.083 122.069 165.055 122.178 165.033 122.262C164.836 123.015 164.661 123.787 164.506 124.576C164.356 125.367 164.235 126.142 164.145 126.901C164.241 126.943 164.35 126.987 164.472 127.031C164.598 127.077 164.726 127.121 164.857 127.163C164.989 127.202 165.119 127.24 165.246 127.277C165.374 127.315 165.489 127.347 165.589 127.373C165.702 127.402 165.827 127.432 165.965 127.464C166.103 127.495 166.243 127.527 166.386 127.56C166.529 127.589 166.67 127.615 166.81 127.638C166.954 127.662 167.087 127.682 167.208 127.696ZM170.925 125.52C170.752 126.18 170.481 126.766 170.111 127.276C169.742 127.786 169.299 128.198 168.782 128.511C168.267 128.82 167.692 129.021 167.057 129.114C166.427 129.205 165.764 129.159 165.067 128.978C164.765 128.9 164.46 128.782 164.153 128.625C163.844 128.472 163.553 128.276 163.28 128.037C163.008 127.795 162.762 127.51 162.542 127.182C162.327 126.855 162.16 126.48 162.042 126.059C161.924 125.637 161.864 125.165 161.863 124.645C161.865 124.125 161.947 123.553 162.11 122.929C162.27 122.317 162.48 121.8 162.741 121.377C163.006 120.956 163.298 120.612 163.617 120.347C163.937 120.077 164.275 119.875 164.633 119.74C164.995 119.606 165.353 119.518 165.708 119.477C166.063 119.436 166.404 119.432 166.731 119.465C167.058 119.499 167.352 119.549 167.614 119.617C168.021 119.723 168.403 119.863 168.762 120.038C169.126 120.209 169.454 120.419 169.746 120.667C170.039 120.911 170.293 121.194 170.505 121.516C170.718 121.837 170.879 122.2 170.989 122.602C171.099 123.005 171.151 123.448 171.145 123.933C171.143 124.418 171.07 124.947 170.925 125.52ZM130.656 136.805C130.743 136.57 130.834 136.31 130.93 136.025C131.026 135.741 131.119 135.449 131.21 135.15C131.301 134.851 131.387 134.557 131.466 134.268C131.551 133.977 131.625 133.71 131.688 133.468C131.809 133.005 131.922 132.521 132.029 132.015C132.136 131.506 132.224 131.012 132.292 130.536C132.233 130.516 132.161 130.493 132.078 130.467C131.994 130.441 131.906 130.416 131.814 130.392C131.726 130.365 131.64 130.341 131.555 130.319C131.471 130.297 131.398 130.278 131.338 130.262C131.156 130.215 130.962 130.169 130.755 130.124C130.551 130.08 130.342 130.04 130.127 130.006C129.914 129.968 129.7 129.936 129.487 129.911C129.28 129.883 129.081 129.863 128.89 129.853C128.867 129.941 128.835 130.055 128.794 130.195C128.758 130.332 128.721 130.475 128.682 130.624C128.644 130.769 128.605 130.91 128.566 131.045C128.531 131.178 128.502 131.287 128.48 131.372C128.284 132.125 128.108 132.896 127.954 133.686C127.803 134.476 127.683 135.251 127.592 136.01C127.689 136.053 127.798 136.096 127.919 136.14C128.045 136.186 128.173 136.23 128.304 136.273C128.436 136.311 128.566 136.349 128.694 136.387C128.822 136.424 128.936 136.456 129.037 136.482C129.15 136.511 129.275 136.542 129.413 136.573C129.551 136.605 129.691 136.637 129.833 136.669C129.976 136.698 130.118 136.724 130.258 136.747C130.402 136.772 130.535 136.791 130.656 136.805ZM134.372 134.629C134.2 135.29 133.929 135.875 133.559 136.385C133.189 136.895 132.746 137.307 132.23 137.62C131.715 137.93 131.14 138.131 130.505 138.224C129.875 138.314 129.211 138.269 128.514 138.088C128.212 138.009 127.908 137.892 127.6 137.734C127.292 137.581 127.001 137.385 126.728 137.147C126.456 136.904 126.21 136.619 125.99 136.291C125.774 135.964 125.607 135.59 125.489 135.168C125.372 134.746 125.312 134.275 125.31 133.754C125.312 133.234 125.395 132.663 125.558 132.038C125.718 131.426 125.928 130.909 126.189 130.487C126.454 130.065 126.745 129.722 127.064 129.456C127.384 129.187 127.723 128.984 128.081 128.849C128.443 128.715 128.801 128.628 129.156 128.587C129.511 128.545 129.851 128.542 130.178 128.575C130.505 128.608 130.799 128.659 131.061 128.727C131.468 128.832 131.851 128.972 132.21 129.147C132.573 129.319 132.901 129.529 133.194 129.777C133.487 130.02 133.74 130.303 133.953 130.625C134.166 130.947 134.327 131.309 134.437 131.712C134.547 132.114 134.599 132.558 134.593 133.042C134.591 133.527 134.517 134.056 134.372 134.629ZM143.197 135.153C143.115 135.467 142.988 135.745 142.817 135.989C142.647 136.229 142.438 136.437 142.19 136.613C141.943 136.785 141.661 136.927 141.343 137.038C141.026 137.149 140.68 137.23 140.306 137.279L142.115 141.276L139.237 140.858L138.282 137.321C138.151 137.313 138.017 137.301 137.878 137.287C137.74 137.273 137.6 137.258 137.458 137.242C137.382 137.665 137.307 138.108 137.234 138.571C137.164 139.034 137.091 139.529 137.014 140.055L134.104 139.513C134.454 138.499 134.785 137.486 135.097 136.475C135.413 135.461 135.707 134.434 135.978 133.395C136.049 133.125 136.111 132.879 136.164 132.657C136.222 132.435 136.274 132.219 136.321 132.007C136.372 131.797 136.42 131.579 136.466 131.355C136.511 131.13 136.562 130.879 136.617 130.601C137.144 130.578 137.667 130.6 138.187 130.666C138.712 130.734 139.244 130.837 139.783 130.977C140.053 131.047 140.341 131.141 140.645 131.259C140.95 131.377 141.246 131.52 141.533 131.689C141.824 131.86 142.093 132.056 142.34 132.28C142.592 132.504 142.798 132.759 142.96 133.046C143.125 133.335 143.234 133.653 143.284 134.001C143.335 134.35 143.306 134.734 143.197 135.153ZM138.647 132.043C138.475 132.704 138.312 133.343 138.159 133.961C138.012 134.576 137.871 135.213 137.738 135.871L137.986 135.935C138.341 136.027 138.7 136.109 139.064 136.182C139.427 136.255 139.778 136.305 140.115 136.332C140.228 136.13 140.333 135.892 140.429 135.621C140.531 135.346 140.622 135.058 140.7 134.756C140.751 134.563 140.795 134.368 140.834 134.172C140.873 133.971 140.906 133.778 140.933 133.591C140.962 133.401 140.979 133.218 140.986 133.044C140.997 132.87 141 132.712 140.994 132.569C140.94 132.546 140.875 132.523 140.799 132.499C140.728 132.476 140.646 132.452 140.553 132.428C140.368 132.38 140.165 132.334 139.944 132.29C139.727 132.246 139.521 132.206 139.324 132.167C139.099 132.126 138.873 132.085 138.647 132.043ZM149.73 135.262C149.216 135.103 148.704 134.957 148.192 134.824L148.156 134.814C148.112 134.984 148.048 135.221 147.964 135.526C147.885 135.828 147.796 136.168 147.698 136.546C147.6 136.921 147.494 137.317 147.381 137.735C147.268 138.152 147.159 138.559 147.056 138.953C146.953 139.348 146.855 139.716 146.762 140.057C146.674 140.395 146.6 140.677 146.541 140.903L147.864 141.246L147.467 142.768L142.464 141.47L142.861 139.948L143.937 140.227C144 140.019 144.074 139.768 144.16 139.472C144.25 139.177 144.346 138.858 144.448 138.515C144.551 138.172 144.657 137.813 144.768 137.437C144.883 137.063 144.994 136.689 145.099 136.317C145.21 135.942 145.316 135.578 145.417 135.226C145.517 134.873 145.606 134.548 145.684 134.25C145.489 134.208 145.295 134.168 145.102 134.131C144.911 134.09 144.717 134.051 144.52 134.013C144.578 133.843 144.63 133.684 144.677 133.537C144.729 133.387 144.774 133.238 144.813 133.089C144.843 132.972 144.87 132.854 144.892 132.735C144.92 132.614 144.942 132.48 144.959 132.333C145.243 132.429 145.568 132.528 145.932 132.631C146.298 132.731 146.674 132.83 147.061 132.931C147.447 133.031 147.823 133.126 148.186 133.216C148.554 133.307 148.884 133.387 149.176 133.454C149.516 133.534 149.839 133.609 150.143 133.679L149.73 135.262ZM158.863 140.857C158.687 141.447 158.467 141.951 158.204 142.369C157.94 142.786 157.652 143.133 157.339 143.408C157.03 143.685 156.702 143.903 156.355 144.063C156.013 144.219 155.674 144.333 155.337 144.404C155 144.476 154.678 144.515 154.371 144.521C154.063 144.532 153.787 144.525 153.544 144.5C153.3 144.48 153.099 144.451 152.941 144.415C152.781 144.382 152.686 144.361 152.653 144.353C152.09 144.207 151.602 144.022 151.191 143.799C150.785 143.578 150.442 143.325 150.163 143.042C149.884 142.759 149.666 142.451 149.508 142.118C149.355 141.781 149.249 141.427 149.192 141.055C149.139 140.68 149.131 140.291 149.167 139.888C149.208 139.486 149.282 139.077 149.39 138.663C149.571 137.97 149.84 137.367 150.198 136.854C150.557 136.336 150.992 135.922 151.503 135.612C152.019 135.299 152.605 135.096 153.261 135.004C153.918 134.912 154.634 134.944 155.411 135.098C155.774 135.192 156.121 135.31 156.454 135.453C156.792 135.592 157.101 135.76 157.381 135.957C157.665 136.152 157.919 136.374 158.142 136.626C158.364 136.877 158.546 137.161 158.687 137.477C158.829 137.789 158.925 138.138 158.975 138.525C159.025 138.908 159.019 139.328 158.956 139.784C158.704 139.728 158.461 139.679 158.226 139.64C157.996 139.598 157.767 139.562 157.538 139.532C157.31 139.499 157.077 139.469 156.839 139.441C156.605 139.415 156.356 139.387 156.093 139.357C156.162 139.225 156.225 139.074 156.282 138.904C156.345 138.731 156.4 138.551 156.449 138.366C156.505 138.149 156.552 137.929 156.589 137.706C156.63 137.48 156.656 137.266 156.666 137.062C156.465 136.975 156.227 136.89 155.953 136.806C155.678 136.721 155.391 136.641 155.093 136.563C154.759 136.477 154.431 136.398 154.11 136.327C153.788 136.257 153.503 136.206 153.252 136.176C152.995 136.685 152.756 137.236 152.537 137.828C152.318 138.421 152.125 139.035 151.959 139.671C151.84 140.13 151.735 140.589 151.645 141.047C151.56 141.507 151.491 141.962 151.437 142.412C151.551 142.454 151.679 142.499 151.822 142.544C151.966 142.586 152.121 142.628 152.286 142.671C152.516 142.731 152.759 142.787 153.016 142.841C153.273 142.895 153.527 142.944 153.778 142.987C154.034 143.028 154.283 143.062 154.525 143.091C154.772 143.116 154.998 143.132 155.203 143.138C155.244 143.028 155.288 142.904 155.332 142.765C155.381 142.627 155.425 142.484 155.464 142.335C155.5 142.198 155.531 142.064 155.556 141.933C155.587 141.799 155.606 141.677 155.613 141.567C155.314 141.494 155.023 141.429 154.741 141.373C154.622 141.351 154.497 141.327 154.366 141.302C154.239 141.278 154.114 141.256 153.99 141.236C153.867 141.213 153.749 141.193 153.637 141.177C153.529 141.162 153.432 141.15 153.344 141.14C153.529 140.775 153.676 140.385 153.784 139.971C153.802 139.902 153.82 139.836 153.837 139.771C153.854 139.703 153.868 139.633 153.878 139.563C154.631 139.81 155.404 140.036 156.197 140.242C156.624 140.353 157.057 140.459 157.495 140.56C157.933 140.661 158.389 140.76 158.863 140.857ZM165.404 139.33C164.89 139.171 164.378 139.025 163.866 138.892L163.83 138.882C163.786 139.052 163.722 139.289 163.638 139.594C163.559 139.896 163.47 140.236 163.371 140.614C163.274 140.989 163.168 141.385 163.055 141.803C162.941 142.22 162.833 142.627 162.73 143.021C162.627 143.416 162.529 143.784 162.436 144.125C162.347 144.463 162.274 144.745 162.215 144.971L163.538 145.314L163.141 146.836L158.138 145.538L158.535 144.016L159.611 144.295C159.673 144.087 159.748 143.836 159.834 143.54C159.923 143.245 160.02 142.926 160.122 142.583C160.225 142.24 160.331 141.881 160.442 141.505C160.557 141.131 160.667 140.757 160.773 140.385C160.884 140.01 160.99 139.646 161.09 139.294C161.191 138.941 161.28 138.616 161.358 138.318C161.162 138.276 160.968 138.237 160.776 138.199C160.585 138.158 160.391 138.119 160.194 138.081C160.251 137.911 160.303 137.752 160.35 137.605C160.402 137.455 160.448 137.306 160.487 137.157C160.517 137.04 160.544 136.922 160.566 136.804C160.594 136.682 160.616 136.548 160.632 136.402C160.917 136.497 161.242 136.596 161.606 136.699C161.972 136.799 162.348 136.898 162.735 136.999C163.121 137.099 163.496 137.194 163.86 137.284C164.228 137.375 164.558 137.455 164.85 137.522C165.19 137.602 165.512 137.677 165.817 137.747L165.404 139.33ZM175.742 140.085C175.29 141.257 174.86 142.41 174.453 143.542C174.279 144.026 174.101 144.528 173.918 145.048C173.734 145.568 173.557 146.083 173.385 146.593C173.213 147.103 173.052 147.598 172.9 148.079C172.75 148.556 172.623 148.994 172.519 149.393C172.208 149.347 171.916 149.294 171.643 149.237C171.374 149.18 171.103 149.116 170.829 149.044C170.688 149.008 170.542 148.968 170.39 148.924C170.238 148.88 170.08 148.833 169.917 148.782L168.328 140.856C168.259 141.135 168.182 141.448 168.095 141.795C168.013 142.144 167.927 142.508 167.836 142.889C167.746 143.265 167.654 143.65 167.56 144.043C167.471 144.436 167.382 144.816 167.296 145.18C167.089 146.038 166.881 146.919 166.67 147.823C166.425 147.759 166.17 147.698 165.906 147.638C165.678 147.587 165.424 147.532 165.143 147.472C164.865 147.417 164.585 147.368 164.304 147.325C164.437 146.93 164.58 146.481 164.732 145.979C164.886 145.473 165.042 144.941 165.2 144.385C165.363 143.825 165.525 143.256 165.684 142.679C165.844 142.101 165.994 141.54 166.136 140.997C166.283 140.433 166.414 139.906 166.53 139.415C166.649 138.926 166.747 138.509 166.824 138.163C167.144 138.272 167.452 138.371 167.747 138.461C168.043 138.546 168.34 138.628 168.638 138.705C168.94 138.783 169.243 138.858 169.547 138.928C169.856 138.996 170.181 139.06 170.522 139.123C170.57 139.682 170.643 140.225 170.742 140.754C170.84 141.282 170.946 141.809 171.059 142.332C171.176 142.853 171.293 143.378 171.409 143.907C171.526 144.431 171.63 144.97 171.723 145.523C171.792 145.257 171.87 144.968 171.956 144.655C172.046 144.343 172.138 144.021 172.234 143.688C172.329 143.356 172.425 143.022 172.521 142.686C172.617 142.35 172.713 142.026 172.807 141.715C173.018 140.988 173.239 140.248 173.47 139.495C173.687 139.573 173.878 139.639 174.044 139.695C174.215 139.748 174.385 139.797 174.554 139.841C174.723 139.885 174.9 139.926 175.083 139.965C175.267 140 175.487 140.04 175.742 140.085ZM181.777 151.989C181.489 151.871 181.237 151.767 181.02 151.676C180.805 151.591 180.602 151.512 180.41 151.441C180.221 151.375 180.035 151.313 179.852 151.257C179.668 151.201 179.468 151.145 179.25 151.088C179.447 150.765 179.629 150.43 179.797 150.082C179.969 149.736 180.128 149.375 180.273 149C180.034 148.929 179.787 148.859 179.535 148.789C179.282 148.719 179.031 148.651 178.781 148.587C178.269 148.454 177.775 148.338 177.297 148.24C177.223 148.608 177.156 148.978 177.098 149.349C177.041 149.717 176.993 150.088 176.956 150.461C176.665 150.407 176.404 150.358 176.175 150.316C175.945 150.273 175.742 150.236 175.565 150.203C175.388 150.174 175.235 150.149 175.107 150.129C174.978 150.113 174.868 150.099 174.776 150.088C174.563 150.063 174.417 150.053 174.339 150.059C174.355 149.783 174.382 149.496 174.422 149.197C174.465 148.898 174.514 148.604 174.569 148.312C174.628 148.018 174.69 147.733 174.753 147.457C174.816 147.182 174.879 146.927 174.94 146.693C175.067 146.206 175.213 145.721 175.377 145.24C175.546 144.759 175.742 144.304 175.965 143.877C176.193 143.45 176.452 143.066 176.743 142.724C177.036 142.379 177.373 142.101 177.755 141.89C178.138 141.676 178.568 141.542 179.046 141.49C179.525 141.434 180.063 141.483 180.659 141.638C181.272 141.797 181.809 142.037 182.271 142.359C182.734 142.678 183.098 143.079 183.363 143.565C183.631 144.052 183.788 144.623 183.831 145.28C183.88 145.933 183.796 146.674 183.58 147.504C183.524 147.717 183.449 147.982 183.353 148.297C183.262 148.613 183.145 148.965 183 149.353C182.856 149.741 182.682 150.16 182.478 150.61C182.28 151.058 182.046 151.517 181.777 151.989ZM178.758 146.943C179.109 147.034 179.459 147.118 179.808 147.196C180.163 147.271 180.502 147.331 180.826 147.376C180.858 147.286 180.886 147.194 180.911 147.101C180.936 147.005 180.962 146.906 180.988 146.805C181.148 146.193 181.273 145.596 181.365 145.014C181.461 144.432 181.52 143.884 181.543 143.37C181.452 143.338 181.351 143.305 181.239 143.272C181.132 143.24 181.015 143.207 180.89 143.175C180.725 143.132 180.553 143.092 180.374 143.054C180.199 143.013 180.026 142.976 179.854 142.945C179.686 142.91 179.524 142.881 179.367 142.857C179.21 142.833 179.072 142.817 178.954 142.808C178.698 143.425 178.464 144.052 178.25 144.689C178.042 145.323 177.851 145.972 177.677 146.636C177.847 146.693 178.022 146.747 178.203 146.798C178.388 146.847 178.573 146.895 178.758 146.943ZM189.908 153.932C189.366 153.752 188.817 153.58 188.263 153.415C187.708 153.249 187.149 153.093 186.585 152.947C186.105 152.822 185.624 152.706 185.14 152.598C184.657 152.489 184.164 152.394 183.661 152.31C183.882 151.594 184.094 150.881 184.296 150.173C184.499 149.46 184.695 148.742 184.885 148.017C185.096 147.207 185.298 146.4 185.491 145.594C185.685 144.785 185.869 143.983 186.041 143.19L188.712 143.883C188.447 144.833 188.188 145.757 187.937 146.655C187.828 147.039 187.718 147.436 187.607 147.846C187.495 148.256 187.384 148.659 187.272 149.055C187.163 149.453 187.06 149.835 186.96 150.2C186.865 150.562 186.78 150.891 186.703 151.185L190.403 152.035L189.908 153.932Z" fill="black"/>
</svg>
