<svg width="240" height="167" viewBox="0 0 240 167" fill="none" xmlns="http://www.w3.org/2000/svg">
<path d="M54.091 133.28C52.248 130.524 60.2613 146.345 62.7455 147.823C67.0326 150.42 90.5117 155.734 90.9124 155.374C91.273 155.054 82.859 144.427 80.495 142.549C76.288 139.233 81.2964 131.842 80.1344 127.407" fill="#FFDB1F"/>
<path d="M87.9468 67.1995C85.7832 59.6086 82.3375 45.985 79.7732 38.5539C78.1706 33.8795 76.007 29.1651 74.6447 24.3708C73.9635 15.901 67.1923 12.9046 66.6313 12.3452C66.6313 12.3452 66.5512 17.6988 69.436 22.7328C68.9151 22.573 65.1489 11.9857 57.8166 9.58855C45.5963 5.63328 45.0754 0.75912 44.8751 0.799072C44.6347 0.839024 43.5128 7.47108 45.5963 9.6285C41.3492 7.27132 34.4176 7.27132 30.1706 11.0268C37.062 11.7859 39.5462 15.8211 41.0687 16.9797C39.466 18.0584 39.7866 18.5378 38.3842 19.8562C32.6547 25.2098 22.3575 32.2414 22.8784 41.1507C23.4393 50.7393 33.6564 63.9235 28.5679 78.3063" fill="#CAA77A"/>
<path d="M87.9468 67.1995C85.7832 59.6086 82.3375 45.985 79.7732 38.5539C78.1706 33.8795 76.007 29.1651 74.6447 24.3708C73.9635 15.901 67.1923 12.9046 66.6313 12.3452C66.6313 12.3452 66.5512 17.6988 69.436 22.7328C68.9151 22.573 65.1489 11.9857 57.8166 9.58855C45.5963 5.63328 45.0754 0.75912 44.8751 0.799072C44.6347 0.839024 43.5128 7.47108 45.5963 9.6285C41.3492 7.27132 34.4176 7.23137 30.1706 11.0268C37.062 11.7859 39.5462 15.8211 41.0687 16.9797C39.466 18.0584 39.7866 18.5378 38.3842 19.8562C32.6547 25.2098 22.3575 32.2414 22.8784 41.1507C23.4393 50.7393 33.6564 63.9235 28.5679 78.3062" stroke="#2D1F04" stroke-width="1.04675" stroke-miterlimit="10" stroke-linecap="round" stroke-linejoin="round"/>
<path d="M85.8631 67.1595C86.8247 67.7588 91.4324 67.9586 92.4341 68.0784C95.4791 68.478 98.2437 69.3969 100.928 70.915C104.174 72.7528 106.337 76.2287 109.262 78.5459C116.514 84.339 121.803 92.4093 128.895 98.522C132.381 101.518 135.666 104.395 139.793 106.552C140.795 107.072 143.399 107.751 143.96 108.83C165 115 229.821 118.38 229.5 118.5C222 121.304 217 124 213.5 141C213 158 211.242 162.942 210 164.5C208.157 166.817 187 169 151 157C138.5 152.833 125.5 145 119 141.511C117.037 141.111 112.843 136.099 111 135.5C108 133 109 132.5 106 131.363C105.159 131.443 102.659 131.523 102 133.5C100.5 138 99.5 139 96.5609 141.511C95.9599 142.869 93.5559 142.989 92.394 143.588C91.3923 144.067 89.7897 144.667 88.6277 144.387C88.227 144.307 87.5459 144.267 86.7446 144.307C85.222 144.347 83.379 144.467 82.7379 144.267C78.8915 142.989 77.8898 136.676 79.773 133.56C81.6561 130.404 79.773 132.042 79.773 131.283C79.773 130.004 79.8932 128.806 79.8932 127.527C79.8932 127.288 79.8932 125.769 79.8932 125.769C80.4541 125.769 82.0167 128.047 82.7379 128.446C84.6611 129.605 87.1452 130.604 89.3489 130.843C89.4691 130.843 91.7529 131.682 91.9132 131.363C92.0334 131.123 91.5927 131.003 91.5125 130.963C90.3105 130.244 85.7028 128.726 86.8247 127.248C87.9866 125.689 93.2755 124.011 94.9983 123.292C97.0417 122.493 104.174 121.494 101.73 121.694C99.3255 121.854 112.588 118.418 113.269 112.505C113.589 109.788 113.269 107.871 112.788 105.434C110.825 95.5655 102.29 88.0945 97.3222 79.8244C95.399 76.5883 92.7546 73.3921 90.3105 70.5555C89.9499 70.1959 85.4224 66.8799 85.8631 67.1595Z" fill="white"/>
<path d="M40.5085 34.1991C41.8708 34.9183 51.1262 35.997 46.8791 32.9207C44.4751 31.1628 37.0227 32.3613 40.5085 34.1991Z" fill="#2D1F04"/>
<path d="M40.5085 34.1991C41.8708 34.9183 51.1262 35.997 46.8791 32.9207C44.4751 31.1628 37.0227 32.3613 40.5085 34.1991Z" stroke="#2D1F04" stroke-width="1.04675" stroke-miterlimit="10" stroke-linecap="round" stroke-linejoin="round"/>
<path d="M42.4714 35.1179C42.9923 36.8758 41.3095 38.1143 41.7502 39.6725C42.2711 41.3105 44.4347 41.2306 45.6768 41.6301C48.7619 42.549 53.8504 42.1895 56.054 39.5526C56.8153 38.6337 57.1759 37.4351 57.9372 36.5562C58.2978 36.1167 59.2995 36.8758 59.6601 37.0756" stroke="#2D1F04" stroke-width="1.04675" stroke-miterlimit="10" stroke-linecap="round" stroke-linejoin="round"/>
<path d="M19.5129 125.37C20.7149 128.007 30.9319 142.629 28.9686 145.026C27.0054 147.423 19.2324 151.658 19.2324 152.338C19.2725 153.616 47.6398 149.062 49.2424 147.344C51.1256 145.306 45.0755 136.676 44.6748 134.559" fill="#FFDB1F"/>
<path d="M56.4141 32.9207C58.4975 30.1641 62.7446 31.4026 63.586 34.359" stroke="#2D1F04" stroke-width="1.04675" stroke-miterlimit="10" stroke-linecap="round" stroke-linejoin="round"/>
<path d="M12.3021 104.076C12.5425 104.954 12.5425 104.994 13.3438 105.354C15.0667 106.153 15.3472 106.952 16.9098 107.991C21.2771 110.867 29.7712 110.628 34.6594 111.587C45.6377 113.704 63.7478 113.784 74.7261 112.226C76.1285 112.026 86.3054 106.353 86.4256 106.832C86.7061 107.831 88.2687 108.95 87.5074 109.629C83.1402 113.624 76.1685 117.739 70.0383 119.537C54.6126 124.052 42.5125 126.249 26.7662 122.613C22.9999 121.734 14.7862 117.18 12.1819 113.904C11.3405 112.825 12.0216 103.117 12.3021 104.076Z" fill="#F31010"/>
<path d="M28.8487 76.6283C25.5632 84.4989 20.5549 89.1733 18.9522 92.6492C17.3495 96.125 11.0991 101.039 11.059 103.756C10.9789 107.591 21.7569 111.507 26.2043 112.785C46.3579 118.698 78.251 114.743 86.9054 107.112C88.3879 105.793 84.221 104.555 83.5398 103.037C81.0156 97.5633 76.6884 93.0886 74.9255 87.1757C73.7235 83.1006 72.3612 80.3838 73.2026 76.0291C73.443 74.7506 74.3245 72.2336 75.2059 71.3946C75.7669 70.8752 77.0891 69.2772 76.3679 69.437C64.7085 72.3934 53.1692 79.8645 41.029 80.4238C36.7418 80.6236 33.9372 76.7083 29.4898 76.1489" fill="#CAA77A"/>
<path d="M56.4941 91.1308C56.4941 90.4517 57.015 89.8923 57.6561 89.8923C58.2971 89.8923 58.818 90.4517 58.818 91.1308C58.818 91.81 58.2971 92.3694 57.6561 92.3694C57.0551 92.3694 56.4941 91.81 56.4941 91.1308Z" fill="#2D1F04"/>
<path d="M28.8496 90.7314C28.8496 90.0522 29.3705 89.4929 30.0115 89.4929C30.6526 89.4929 31.1735 90.0522 31.1735 90.7314C31.1735 91.4106 30.6526 91.97 30.0115 91.97C29.4105 91.97 28.8496 91.4106 28.8496 90.7314Z" fill="#2D1F04"/>
<path d="M27.9281 139.873C26.2452 139.153 29.4105 144.028 28.6893 145.426C28.5291 145.745 21.0766 150.34 19.7144 152.298C18.9932 153.336 21.317 152.617 24.322 152.417C27.0866 152.218 30.7327 151.499 33.4573 151.179C38.9063 150.58 42.9932 148.942 48.282 148.063C52.1284 147.423 48.4022 140.871 47.6409 140.871C47.08 140.871 45.8379 141.83 45.1167 141.91C39.2669 142.789 33.6576 142.27 27.9281 139.873Z" fill="#F31010"/>
<path d="M93.2352 71.4744C93.9965 72.1136 98.4038 78.1863 104.935 88.0945C106.217 90.0521 109.342 97.643 110.424 99.6007C113.148 104.675 113.429 108.47 113.629 110.827C114.03 115.861 109.422 118.059 107.138 119.217C105.175 120.176 102.25 121.095 99.1651 122.174C95.2385 123.532 91.0716 125.25 88.1467 127.847C86.9046 128.966 91.9931 130.244 92.4739 131.163C87.0248 131.163 81.8963 129.964 78.6509 125.13C77.5691 123.532 74.9247 120.136 75.8062 118.099C77.0082 115.262 87.9063 109.868 87.6258 108.67C86.9848 106.153 84.2602 103.596 82.7778 101.558C78.2903 95.2859 71.6392 83.9794 73.0816 76.0289C73.4021 74.2311 74.0833 71.8339 75.4856 70.5555C77.6893 68.5579 83.6192 65.8411 87.7461 67.3193C89.1083 67.7988 92.3537 70.4356 92.3537 70.4356" fill="#CAA77A"/>
<path d="M22.5985 76.5883C21.5568 76.6682 23.8807 76.4285 24.1611 76.3486C26.0042 76.029 29.0092 75.3498 28.4483 78.1065C26.3648 88.534 20.5952 89.7725 15.5468 98.1625C14.3047 100.24 11.0192 104.235 11.5 106.672C11.5802 107.072 11.1795 112.146 10.9391 112.266C10.6987 112.385 6.77215 108.31 6.05095 107.991C-0.359739 104.795 -1.44154 100.44 3.24627 94.2472C6.57181 89.8125 11.2997 84.379 15.707 81.063C17.2296 79.9044 19.1928 78.506 20.9157 77.667C21.5167 77.3874 23.1194 76.5484 22.5985 76.5883Z" fill="#CAA77A"/>
<path d="M56.6157 137.515C57.2167 140.951 61.9846 147.064 63.8678 149.861C64.3085 150.54 85.7042 154.415 87.0264 154.775C88.3486 155.134 91.3135 156.253 91.1132 155.174C90.7125 153.097 81.7376 144.267 79.9746 142.19C79.0932 141.111 79.4938 138.075 79.4538 138.035C79.2134 137.795 79.1733 137.635 79.0531 137.955C78.7325 138.794 77.8511 139.473 77.21 140.112C75.8077 141.511 72.6023 140.552 70.4387 141.151C68.3152 141.75 63.8678 141.59 61.3436 140.592C59.9412 140.032 59.4604 140.312 58.1382 139.873C56.8962 139.433 56.3753 136.197 56.6157 137.515Z" fill="#F31010"/>
<path d="M19.3527 125.21C20.5547 127.847 30.7718 142.47 28.8085 144.867C26.8452 147.264 19.0723 151.499 19.0723 152.178C19.1123 153.456 47.4796 148.902 49.0823 147.184C50.9654 145.146 44.9153 136.517 44.5147 134.399" stroke="#2D1F04" stroke-width="1.04675" stroke-miterlimit="10" stroke-linecap="round" stroke-linejoin="round"/>
<path d="M11.9004 113.904C15.3461 124.851 21.236 127.887 28.4079 131.443C33.8169 134.159 38.9054 133.92 44.8353 134.919C52.5281 136.197 62.9054 135.118 69.6767 131.722C71.8804 130.604 73.8436 131.003 75.9271 129.565C77.2092 128.686 80.7752 127.288 81.8169 126.249C81.857 126.209 80.1341 126.608 80.094 126.449C79.8536 125.65 79.453 125.849 79.0523 125.41C77.69 123.852 75.6466 120.696 75.887 118.658C76.2076 115.981 80.5749 116.061 81.3762 113.984C81.4163 113.904 78.7318 115.222 78.5314 115.342C77.2493 116.101 75.8069 116.62 74.4046 117.14C71.8804 118.019 69.276 118.578 66.7919 119.577C65.1091 120.256 61.7835 120.975 59.9805 121.335C55.2526 122.294 46.7585 124.052 42.0707 123.492C29.5298 121.974 31.7334 121.694 21.5164 118.179C19.5932 117.539 12.9421 113.224 12.1809 111.706" fill="#F31010"/>
<path d="M54.4121 134.879C54.4121 134.879 61.3837 147.623 63.8679 149.141C68.155 151.738 90.8328 155.614 91.2335 155.254C91.5941 154.934 84.342 145.066 80.0548 142.07C77.3704 140.192 81.377 131.722 80.2151 127.288" stroke="#2D1F04" stroke-width="1.04675" stroke-miterlimit="10" stroke-linecap="round" stroke-linejoin="round"/>
<path d="M28.8881 75.9092C28.5675 77.6271 24.8814 81.7821 23.0383 85.4577C21.1953 89.1333 21.5158 90.6515 21.5158 90.6515C21.5158 90.6515 14.8246 96.7242 12.02 104.795C10.1368 110.228 13.0617 124.531 27.646 130.843C54.3706 142.39 82.5776 127.487 86.9048 123.572" stroke="#2D1F04" stroke-width="1.04675" stroke-miterlimit="10" stroke-linecap="round" stroke-linejoin="round"/>
<path d="M85.5438 111.107C84.7024 111.546 83.861 111.986 83.0597 112.465C79.5338 114.583 75.7275 115.781 75.9679 119.457C76.2884 124.97 84.2216 130.164 84.4219 130.244C85.5438 130.644 90.8727 131.483 92.1548 131.043C92.3552 130.963 88.5088 129.405 87.9879 128.526C87.0664 126.928 94.078 124.571 95.4002 123.732C96.0814 123.292 96.8026 123.013 97.5238 122.693C97.8443 122.533 98.8861 122.493 98.5655 122.254C97.4837 121.534 95.1598 122.214 93.6774 121.734C92.4353 121.335 90.0714 120.695 89.3502 119.737C87.1465 116.82 85.8243 114.862 85.5438 111.107Z" fill="#F31010"/>
<path d="M27.126 72.5131C26.7253 71.6741 24.722 67.3992 25.8438 66.3205C26.0442 66.1207 28.6485 69.7564 28.7286 69.8363C30.4916 71.9538 32.4549 73.7116 35.1794 74.0712C36.8221 74.3109 37.4632 72.3932 38.4649 71.5542C40.6285 69.8363 41.0692 71.8738 41.5099 71.714C42.1911 71.4743 42.151 69.7963 43.2729 69.4767C44.9557 68.9973 44.3948 72.5131 46.2779 72.9925C49.363 73.7516 58.2178 71.2746 61.1026 69.7963C70.5183 65.082 77.7303 61.0868 87.6669 63.7236C95.8806 65.921 105.857 70.4755 115.834 78.6657C123.407 82.1016 125.811 84.8982 129.096 86.3365C130.058 86.3365 132.782 87.5351 134.665 87.2954C140.475 86.4564 142.438 84.9382 143.64 85.6174C144.842 86.2966 142.719 85.3777 143.36 85.6174C147.046 87.0157 186.912 91.0908 190.518 97.2834C191.4 102.877 197.129 103.676 200.735 107.072C202.458 107.911 237.517 117.539 239.2 118.258C240.161 118.658 165.49 114.454 150.051 109.868C131.22 104.275 121.844 93.1683 109.343 79.1052C105.336 74.5906 102.051 70.6353 89.2295 67.559C78.0508 64.8822 59.1393 78.7856 43.0725 80.6633C38.9857 81.1427 33.8572 76.7081 29.8104 76.3085C28.929 76.2286 20.0742 76.3884 20.0742 75.6693C20.0742 74.1511 25.8839 67.7987 26.4448 70.116C26.4849 70.2358 24.6819 66.2006 25.964 65.3217C27.4465 64.3229 31.5734 70.8351 32.1343 71.754C33.0559 73.2722 34.4582 73.7915 35.9407 74.5107" fill="#F31010"/>
<path d="M41.6295 71.3147C39.0252 67.5192 33.9768 76.7082 36.3007 77.1477" stroke="#2D1F04" stroke-width="1.04675" stroke-miterlimit="10" stroke-linecap="round" stroke-linejoin="round"/>
<path d="M36.1 74.0714C32.6943 75.3099 27.3655 63.6439 26.0833 65.6814C24.8012 67.719 27.5257 71.3147 27.2453 72.9128" stroke="#2D1F04" stroke-width="1.04675" stroke-miterlimit="10" stroke-linecap="round" stroke-linejoin="round"/>
<path d="M25.965 70.0361C25.0435 70.4357 18.793 74.5108 20.7563 75.7892C22.2388 76.7481 26.9266 75.7493 28.5693 75.8292C32.0151 75.9491 33.0168 78.3062 36.3423 78.9455" stroke="#2D1F04" stroke-width="1.04675" stroke-miterlimit="10" stroke-linecap="round" stroke-linejoin="round"/>
<path d="M45.998 73.1926C50.1249 73.9916 54.8929 72.1538 58.6992 70.5158C65.3102 67.7191 71.8411 62.8849 79.1733 62.845C106.579 62.845 127.214 93.8878 153.858 96.0851" stroke="#2D1F04" stroke-width="1.04675" stroke-miterlimit="10" stroke-linecap="round" stroke-linejoin="round"/>
<path d="M229.984 118.658C207.146 123.252 216.762 157.212 209.75 164.603C200.134 170.196 140.234 161.806 106.378 131.642C97.3627 130.044 106.698 145.826 82.7383 144.307" stroke="#2D1F04" stroke-width="1.04675" stroke-miterlimit="10" stroke-linecap="round" stroke-linejoin="round"/>
<path d="M12.1406 105.434C19.3126 114.064 60.4612 123.332 86.3443 107.152" stroke="#2D1F04" stroke-width="1.04675" stroke-miterlimit="10" stroke-linecap="round" stroke-linejoin="round"/>
<path d="M39.1467 33.5998C36.6225 34.7584 32.5758 39.313 32.696 41.0709C33.337 51.4185 47.6409 56.5324 55.0933 49.301C65.1901 39.5527 43.9147 31.3625 39.1467 33.5998Z" stroke="#2D1F04" stroke-width="1.04675" stroke-miterlimit="10" stroke-linecap="round" stroke-linejoin="round"/>
<path d="M74.5241 32.4811C77.9298 39.233 75.1251 47.583 71.0383 52.4972C61.8229 63.6838 39.8663 61.4864 34.257 55.2139C25.3221 45.3058 23.9999 30.8031 34.3371 27.7668C38.9047 26.4084 52.9682 25.6493 57.5758 26.4883C64.868 27.7668 66.7511 31.6421 71.7194 35.3577" fill="#FFDBAF"/>
<path d="M85.7831 110.388C84.4208 117.979 92.1136 123.252 99.2455 122.214" stroke="#2D1F04" stroke-width="1.04675" stroke-miterlimit="10" stroke-linecap="round" stroke-linejoin="round"/>
<path d="M46.6794 28.7655C45.2771 27.2074 32.4557 31.1626 33.8981 40.831C35.1402 49.2609 46.3589 50.6593 50.9265 48.9014C62.3055 44.5066 60.4223 27.7267 45.9983 30.843" fill="#9D7B51"/>
<path d="M28.1688 140.472C27.9685 140.312 38.466 145.266 47.5211 140.672" stroke="#2D1F04" stroke-width="1.04675" stroke-miterlimit="10" stroke-linecap="round" stroke-linejoin="round"/>
<path d="M57.2148 139.513C62.704 141.83 75.0446 143.388 79.0112 138.115" stroke="#2D1F04" stroke-width="1.04675" stroke-miterlimit="10" stroke-linecap="round" stroke-linejoin="round"/>
<path d="M54.4506 128.326C54.1709 128.207 54.2508 128.127 54.2508 128.446L54.4506 128.326Z" fill="black"/>
<path d="M40.9097 31.9618C41.2703 34.3989 49.9647 35.997 49.0833 32.6809C48.3621 30.084 40.4289 28.2462 40.9097 31.9618Z" fill="#2D1F04"/>
<path d="M45.7972 73.0325C46.1578 72.7528 43.4733 69.6765 43.2329 69.7964C42.5117 70.116 35.7003 77.7469 36.4616 78.8256C37.1828 79.9043 43.1928 81.5423 43.5935 80.7033C44.3548 79.1052 42.7521 78.5459 42.2312 77.5071C40.7087 74.4308 44.475 74.1112 45.7972 73.0325Z" stroke="#2D1F04" stroke-width="1.04675" stroke-miterlimit="10" stroke-linecap="round" stroke-linejoin="round"/>
<path d="M130.017 87.0957C139.393 88.2144 143.239 85.6574 143.239 85.6574C143.239 85.6574 190.879 92.0098 191.119 97.8828C191.52 108.75 237.263 115.661 239.399 118.059C240.361 119.137 164.475 115.661 143.239 108.071C136.668 104.315 127.894 98.9215 122.565 93.4481C112.789 83.4201 103.173 68.438 87.827 66.9997C78.1709 66.0808 68.3546 72.3134 59.9806 76.0689C51.807 79.7045 46.5182 79.305 44.2344 79.9442" stroke="#2D1F04" stroke-width="1.04675" stroke-miterlimit="10" stroke-linecap="round" stroke-linejoin="round"/>
<path d="M30.252 22.6928C33.257 18.7775 39.8279 18.2981 45.1167 19.7763" stroke="#2D1F04" stroke-width="3.95626" stroke-miterlimit="10" stroke-linecap="round" stroke-linejoin="round"/>
<path d="M56.9355 21.0149C66.3512 21.4943 70.6784 24.8103 72.6818 30.2838" stroke="#2D1F04" stroke-width="3.95626" stroke-miterlimit="10" stroke-linecap="round" stroke-linejoin="round"/>
<path d="M22.6776 76.3086C19.2719 79.7045 3.80614 89.4928 1.12167 98.6818C-1.60287 107.871 10.2569 109.828 11.8596 113.025" stroke="#2D1F04" stroke-width="1.04675" stroke-miterlimit="10" stroke-linecap="round" stroke-linejoin="round"/>
<path d="M11.3809 111.027C13.7047 114.982 23.7214 119.817 33.658 121.774C37.6246 122.533 41.7114 123.013 45.8383 123.133C56.8967 123.372 68.5161 120.935 80.1355 114.183" stroke="#2D1F04" stroke-width="1.04675" stroke-miterlimit="10" stroke-linecap="round" stroke-linejoin="round"/>
<path d="M87.3872 109.589C87.3872 109.589 86.3054 112.146 90.9932 114.503" stroke="#2D1F04" stroke-width="1.04675" stroke-miterlimit="10" stroke-linecap="round" stroke-linejoin="round"/>
<path d="M69.1953 57.1716L69.2353 61.0869" stroke="#AA8963" stroke-width="1.4161" stroke-miterlimit="10" stroke-linecap="round" stroke-linejoin="round"/>
<path d="M71.5605 55.2939L71.6005 59.2093" stroke="#AA8963" stroke-width="1.4161" stroke-miterlimit="10" stroke-linecap="round" stroke-linejoin="round"/>
<path d="M44.7158 2.15747C44.7158 2.15747 42.3118 11.8259 52.3284 14.263C62.3451 16.7001 67.5138 17.7388 70.2784 24.3309" stroke="#2D1F04" stroke-width="1.04675" stroke-miterlimit="10" stroke-linecap="round" stroke-linejoin="round"/>
<path d="M40.3887 16.3804C40.3887 16.3804 41.9513 18.4579 48.8828 17.4591C55.8144 16.4603 60.382 15.7012 63.9479 17.6189" stroke="#2D1F04" stroke-width="1.04675" stroke-miterlimit="10" stroke-linecap="round" stroke-linejoin="round"/>
<path d="M87.7871 109.309C88.4682 110.907 90.4315 112.226 93.6769 111.906" stroke="#2D1F04" stroke-width="1.04675" stroke-miterlimit="10" stroke-linecap="round" stroke-linejoin="round"/>
<path opacity="0.2307" d="M77.1298 116.98C80.4954 108.83 74.4052 97.763 66.2316 98.6819C60.1014 99.3611 48.6824 97.0439 53.7308 96.9241C58.6991 96.8042 67.2333 95.8853 70.1181 92.1298C74.245 86.8162 71.0797 74.6307 66.0313 73.8317C65.1097 73.6719 74.5655 69.7166 76.2884 68.8377C78.0513 67.9587 68.5154 75.8293 76.9695 92.6092C81.3769 101.399 88.2683 109.149 88.2683 109.149C88.2683 109.149 77.4102 113.864 75.447 119.058C73.4436 124.251 82.8994 126.928 80.7758 127.807C78.1715 128.886 56.896 134.359 59.7408 133.68C73.2834 130.564 75.1264 121.774 77.1298 116.98Z" fill="#3F2719"/>
<path opacity="0.2307" d="M104.135 88.0947C94.1985 68.8777 86.4255 64.3631 81.2569 67.5992C91.5941 67.3995 111.107 96.9241 97.0031 103.516C84.1818 109.509 74.125 84.3791 74.125 84.3791C74.125 84.3791 83.3003 103.316 90.5123 112.545C91.7143 114.104 84.4222 115.422 78.8529 124.371C76.7694 127.727 87.0265 130.684 87.0265 130.684L91.4338 131.003L88.2686 127.847C88.2686 127.847 86.5056 127.887 92.9564 125.05C99.4071 122.214 106.178 119.537 109.744 117.739C116.916 114.144 111.748 100.76 104.135 88.0947Z" fill="#3F2719"/>
<path opacity="0.2307" d="M23.5991 84.1792C23.5991 84.1792 17.1483 94.0873 29.2886 95.2859C33.0949 95.6455 32.3336 96.2847 31.933 96.7641C31.332 97.4833 29.9697 96.005 26.3236 95.5256C22.6775 95.0861 17.3086 94.9263 17.3086 94.9263C17.3086 94.9263 19.5924 93.7278 21.1951 91.051C22.7176 88.3742 23.5991 84.1792 23.5991 84.1792Z" fill="#3F2719"/>
<path opacity="0.2307" d="M36.7812 19.5367C62.3038 12.5451 65.8697 15.7013 71.3188 34.5188C76.7679 53.3362 71.6794 64.6427 71.6794 64.6427C71.6794 64.6427 82.0166 61.7262 86.424 64.1233C90.7913 66.5205 75.0851 27.8068 75.0851 27.8068L71.3589 25.0102C71.2787 25.0102 45.2754 20.8152 36.7812 19.5367Z" fill="#3F2719"/>
<path opacity="0.2307" d="M30.8926 11.4263C30.8926 11.4263 33.5771 9.66845 38.8258 11.8259C44.0345 13.9833 45.0762 16.0608 50.8058 15.9409C56.5353 15.8211 58.2181 15.7412 58.2181 15.7412L43.2331 17.8187C43.2331 17.8187 33.4168 10.9469 30.8926 11.4263Z" fill="#3F2719"/>
<path opacity="0.2307" d="M44.4742 1.91772C44.4742 1.91772 44.1136 11.0268 48.4408 12.7448C52.768 14.4227 61.9833 16.7 64.788 18.2582C67.5927 19.8163 62.6244 16.4603 55.4925 12.5849C48.3206 8.74954 45.0351 8.58973 44.4742 1.91772Z" fill="#3F2719"/>
<path opacity="0.2307" d="M67.1522 13.4639C67.1522 13.4639 71.8 16.9397 73.1222 21.8538C74.4844 26.728 74.8451 27.567 74.8451 27.567L70.2374 24.8502C70.2374 24.8103 66.992 16.8198 67.1522 13.4639Z" fill="#3F2719"/>
<path opacity="0.2307" d="M22.7591 128.486C22.7591 128.486 31.2532 133.041 40.709 136.676C45.9978 138.714 46.1581 143.948 46.7992 146.265C47.1197 147.383 22.0379 150.66 19.5137 152.617C19.5137 152.617 28.8092 152.497 37.0629 150.899C45.3167 149.301 50.0846 149.021 49.8442 146.265C49.6038 143.508 46.0379 135.478 45.4769 135.518C43.9544 135.638 22.7591 128.486 22.7591 128.486Z" fill="#3F2719"/>
<path opacity="0.2307" d="M63.2656 133.4C63.3056 133.52 63.3455 133.6 63.3855 133.72L63.2656 133.4Z" fill="#3F2719"/>
<path opacity="0.2307" d="M54.8926 134.759C54.8926 134.759 64.9894 135.438 76.0879 132.521C80.6956 131.323 75.8876 143.868 76.9293 144.267C81.7373 146.185 91.7941 155.614 90.4318 152.737C89.0695 149.861 79.2532 142.15 78.8525 139.074C78.4518 135.997 80.335 127.927 80.335 127.927C80.335 127.927 83.1397 127.048 76.769 128.766C70.4385 130.484 54.8926 134.759 54.8926 134.759Z" fill="#3F2719"/>
<path opacity="0.2307" d="M1.68337 103.236C1.68337 103.236 6.89205 113.983 16.5481 95.925C10.1775 106.193 12.1408 112.545 12.1408 112.545C12.1408 112.545 1.20257 106.952 1.68337 103.236Z" fill="#3F2719"/>
<path opacity="0.2307" d="M19.3125 79.425C19.3125 79.425 24.441 78.0667 29.8901 79.0255C35.3793 79.9844 38.1439 80.344 38.1439 80.344C38.1439 80.344 41.9903 85.298 46.1973 83.5801C50.4043 81.8621 47.9602 80.344 47.9602 80.344C47.9602 80.344 48.4811 83.8198 56.0938 79.6648C80.6547 66.2808 89.229 67.5593 89.0688 67.5593C85.9836 66.8801 82.2975 65.1222 64.2674 74.5109C52.8885 80.4638 44.5946 79.9045 44.5946 79.9045C44.5946 79.9045 43.9135 81.8222 41.7098 81.103C39.5062 80.3839 36.6213 78.7459 36.6213 78.7459C36.6213 78.7459 34.8584 78.8258 32.4544 77.4674C30.0103 76.0691 28.9686 75.9492 26.4444 75.9892C23.9602 76.0291 22.638 76.3487 22.638 76.3487L19.3125 79.425Z" fill="#3F2719"/>
<path opacity="0.2307" d="M129.617 87.0958C129.617 87.0958 138.952 87.6551 143.199 86.0171C147.446 84.3391 187.313 94.2872 187.313 94.2872C187.313 94.2872 191.48 97.4034 191.921 100.68C192.362 103.956 145.243 94.2872 145.243 94.2872L129.617 87.0958Z" fill="#545454"/>
<path opacity="0.2307" d="M93.877 124.611C93.877 124.611 94.3178 129.405 95.9204 134.119C97.3628 138.314 97.5231 142.789 93.3962 143.229C89.2293 143.668 84.2209 144.227 84.2209 144.227C84.2209 144.227 81.2961 144.227 79.9338 141.311C78.1308 137.435 80.4947 128.127 80.4947 128.127L92.5949 131.043C92.5949 131.043 86.4246 128.486 87.867 127.647C89.3094 126.768 93.877 124.611 93.877 124.611Z" fill="#969696"/>
<path opacity="0.2307" d="M106.979 119.257C106.979 119.257 105.256 130.684 106.979 132.641C107.42 133.121 135.827 153.017 142.037 153.017C259.433 192.17 184.508 136.237 230.585 118.259C91.3529 116.061 133.223 77.3076 87.9473 66.96C97.363 76.109 126.812 111.467 106.979 119.257Z" fill="#969696"/>
<path d="M81.0151 67.5592C81.0151 67.5592 69.1954 70.4757 73.6828 84.0195C78.2104 97.5633 88.0267 109.07 88.0267 109.07C88.0267 109.07 76.5676 115.062 75.6862 119.817C74.6845 125.13 83.6995 129.765 83.6995 129.765C83.6995 129.765 87.7463 131.682 91.8731 131.403C94.3974 131.243 85.3823 128.686 88.7079 126.968C92.0334 125.25 103.412 120.736 103.412 120.736C103.412 120.736 114.511 116.541 113.589 109.509C112.668 102.437 93.9166 60.1281 81.0151 67.5592Z" stroke="#2D1F04" stroke-width="1.04675" stroke-miterlimit="10" stroke-linecap="round" stroke-linejoin="round"/>
<path d="M75.0859 133.001V134V134.199V134.519V134.719" stroke="#2D1F04" stroke-width="1.04675" stroke-miterlimit="10" stroke-linecap="round" stroke-linejoin="round"/>
<path d="M28.8496 134.958V135.997V136.157V136.477V136.676" stroke="#2D1F04" stroke-width="1.04675" stroke-miterlimit="10" stroke-linecap="round" stroke-linejoin="round"/>
<path d="M76.6083 132.841L76.5684 134.12V134.359V134.519" stroke="#2D1F04" stroke-width="1.04675" stroke-miterlimit="10" stroke-linecap="round" stroke-linejoin="round"/>
<path d="M76.6083 132.841L76.5684 134.12V134.359V134.519" stroke="#2D1F04" stroke-width="1.04675" stroke-miterlimit="10" stroke-linecap="round" stroke-linejoin="round"/>
<path d="M30.372 134.799L30.332 136.077V136.317V136.517" stroke="#2D1F04" stroke-width="1.04675" stroke-miterlimit="10" stroke-linecap="round" stroke-linejoin="round"/>
<path d="M29.6509 111.147C28.489 111.027 27.4472 111.826 28.0883 113.584C29.5708 117.539 35.1 124.411 36.6225 124.531C39.307 124.731 51.287 113.224 48.0015 112.905C39.4272 112.026 34.7794 111.626 29.6509 111.147Z" fill="#312109"/>
<path d="M29.6509 111.147C28.489 111.027 27.4472 111.826 28.0883 113.584C29.5708 117.539 35.1 124.411 36.6225 124.531C39.307 124.731 51.287 113.224 48.0015 112.905C39.4272 112.026 34.7794 111.626 29.6509 111.147Z" stroke="#312109" stroke-width="1.04675" stroke-miterlimit="10" stroke-linecap="round" stroke-linejoin="round"/>
<path d="M29.009 111.507C25.2026 110.907 33.2961 123.772 35.5398 123.892C38.2243 124.092 50.3646 113.784 47.0791 113.464C38.5048 112.585 34.418 112.346 29.009 111.507Z" fill="#B6B1AE"/>
<path d="M29.009 111.507C25.2026 110.907 33.2961 123.772 35.5398 123.892C38.2243 124.092 50.3646 113.784 47.0791 113.464C38.5048 112.585 34.418 112.346 29.009 111.507Z" stroke="#312109" stroke-width="1.04675" stroke-miterlimit="10" stroke-linecap="round" stroke-linejoin="round"/>
<path d="M31.6133 119.697L33.216 111.666" stroke="#312109" stroke-width="1.04675" stroke-miterlimit="10" stroke-linecap="round" stroke-linejoin="round"/>
<path d="M41.3105 121.175L42.9132 113.145" stroke="#312109" stroke-width="1.04675" stroke-miterlimit="10" stroke-linecap="round" stroke-linejoin="round"/>
<path d="M34.6589 113.784L40.8692 114.423L40.0278 119.377C40.0278 119.377 37.1029 121.734 36.1413 121.734C35.34 121.774 33.6973 118.898 33.6973 118.858C33.7774 118.019 34.6589 113.784 34.6589 113.784Z" fill="#F31010"/>
<path d="M40.83 114.703L34.8601 114.143L33.8184 118.978L36.022 121.614" stroke="#FF8080" stroke-width="0.770797" stroke-miterlimit="10" stroke-linecap="round" stroke-linejoin="round"/>
<path d="M40.8686 114.623L40.0672 119.377C40.0672 119.377 36.942 121.535 36.0605 121.854" stroke="#B30000" stroke-width="0.770797" stroke-miterlimit="10" stroke-linecap="round" stroke-linejoin="round"/>
<path d="M37.1032 110.108C34.6591 114.663 36.8227 114.383 39.2668 115.422C36.1817 114.343 35.2201 114.823 32.9363 118.139C35.0999 114.503 33.5773 113.464 30.4922 112.425C34.1783 113.784 35.0197 113.744 37.1032 110.108Z" fill="white"/>
<path opacity="0.2289" d="M42.4307 76.5483C43.8731 76.9878 48.1202 76.5483 51.606 75.1101C52.848 74.5907 56.0534 72.2735 57.4157 73.8316C58.4975 75.0701 55.0116 76.828 54.2904 77.0278C52.3672 77.5072 49.8831 78.1864 47.8798 78.1065C46.1569 78.0266 43.232 77.667 42.7111 77.2275C42.5909 77.1077 42.2704 76.5084 42.4307 76.5483Z" fill="#312109"/>
<path opacity="0.2327" d="M35.5006 75.5895C35.5006 75.5895 35.1 76.3486 32.696 74.7106C30.2919 73.0725 29.2502 71.6742 29.2502 72.9127C29.2101 74.1512 34.8195 76.868 35.5006 76.5484" fill="#312109"/>
<path opacity="0.2327" d="M39.5055 70.5555C41.4287 70.8352 43.7927 69.4768 40.9479 72.9526C38.3436 76.1488 43.9529 72.4732 44.4337 71.5543C44.9145 70.6354 47.4387 72.7529 42.0297 75.7892C40.9479 76.3885 45.1149 80.2639 43.1115 80.983C41.629 81.5024 36.0197 80.144 36.3803 78.7457C36.781 77.3474 35.7793 76.5084 35.7793 76.5084C35.7793 76.5084 37.5823 70.2758 39.5055 70.5555Z" fill="#3F2719"/>
<path d="M62.5453 23.9712C65.2298 23.9712 67.3934 26.1286 67.3934 28.7654V29.0851C67.3934 31.7219 65.2298 33.8793 62.5453 33.8793C59.8609 33.8793 57.6973 31.7219 57.6973 29.0851V28.7654C57.6973 26.0887 59.8609 23.9712 62.5453 23.9712Z" fill="white"/>
<path d="M62.5453 23.9712C65.2298 23.9712 67.3934 26.1286 67.3934 28.7654V29.0851C67.3934 31.7219 65.2298 33.8793 62.5453 33.8793C59.8609 33.8793 57.6973 31.7219 57.6973 29.0851V28.7654C57.6973 26.0887 59.8609 23.9712 62.5453 23.9712Z" stroke="#2D1F04" stroke-width="1.03876" stroke-miterlimit="10" stroke-linecap="round" stroke-linejoin="round"/>
<path d="M61.4629 28.6457C61.4629 27.9666 61.9838 27.4072 62.6248 27.4072C63.2659 27.4072 63.7868 27.9666 63.7868 28.6457C63.7868 29.3249 63.2659 29.8843 62.6248 29.8843C62.0238 29.8443 61.4629 29.285 61.4629 28.6457Z" fill="#2D1F04"/>
<path d="M37.7036 21.5742C40.388 21.5742 42.5516 23.7316 42.5516 26.3685V26.6881C42.5516 29.3249 40.388 31.4824 37.7036 31.4824C35.0191 31.4824 32.8555 29.3249 32.8555 26.6881V26.3685C32.8555 23.6917 35.0191 21.5742 37.7036 21.5742Z" fill="white"/>
<path d="M37.7036 21.5742C40.388 21.5742 42.5516 23.7316 42.5516 26.3685V26.6881C42.5516 29.3249 40.388 31.4824 37.7036 31.4824C35.0191 31.4824 32.8555 29.3249 32.8555 26.6881V26.3685C32.8555 23.6917 35.0191 21.5742 37.7036 21.5742Z" stroke="#2D1F04" stroke-width="1.03876" stroke-miterlimit="10" stroke-linecap="round" stroke-linejoin="round"/>
<path d="M36.623 26.2485C36.623 25.5693 37.1439 25.01 37.785 25.01C38.426 25.01 38.9469 25.5693 38.9469 26.2485C38.9469 26.9277 38.426 27.487 37.785 27.487C37.184 27.4471 36.623 26.8878 36.623 26.2485Z" fill="#2D1F04"/>
<path d="M159.277 120.026C158.979 119.949 158.677 119.868 158.372 119.785C158.071 119.702 157.763 119.62 157.449 119.539L156.917 119.401C156.594 120.641 156.277 121.885 155.969 123.134C155.66 124.382 155.378 125.637 155.121 126.899L152.372 126.186C152.65 125.286 152.926 124.395 153.199 123.511C153.314 123.137 153.434 122.745 153.558 122.334C153.683 121.923 153.806 121.515 153.93 121.108C154.053 120.702 154.169 120.306 154.278 119.922C154.392 119.534 154.497 119.174 154.592 118.842C154.126 118.734 153.665 118.63 153.21 118.529C152.758 118.429 152.302 118.33 151.842 118.232L152.313 116.426C152.943 116.615 153.57 116.795 154.192 116.965C154.818 117.136 155.45 117.304 156.086 117.469C156.698 117.628 157.306 117.782 157.908 117.929C158.51 118.077 159.113 118.216 159.715 118.347L159.277 120.026ZM164.053 127.605C164.14 127.37 164.232 127.11 164.328 126.825C164.424 126.541 164.517 126.249 164.608 125.95C164.699 125.651 164.784 125.357 164.864 125.068C164.949 124.776 165.023 124.51 165.086 124.268C165.207 123.805 165.32 123.321 165.426 122.815C165.533 122.306 165.621 121.812 165.69 121.336C165.63 121.316 165.559 121.293 165.475 121.267C165.392 121.241 165.304 121.216 165.211 121.192C165.124 121.165 165.038 121.141 164.953 121.119C164.868 121.097 164.796 121.078 164.735 121.062C164.554 121.015 164.36 120.969 164.152 120.924C163.949 120.88 163.74 120.84 163.525 120.806C163.311 120.768 163.098 120.736 162.885 120.711C162.677 120.683 162.478 120.663 162.287 120.653C162.264 120.741 162.232 120.855 162.192 120.995C162.156 121.132 162.119 121.275 162.08 121.424C162.042 121.569 162.003 121.71 161.963 121.845C161.929 121.978 161.9 122.087 161.878 122.172C161.681 122.925 161.506 123.696 161.351 124.486C161.201 125.276 161.08 126.051 160.99 126.81C161.086 126.853 161.195 126.896 161.317 126.94C161.443 126.986 161.571 127.03 161.702 127.073C161.834 127.111 161.964 127.149 162.092 127.187C162.219 127.224 162.334 127.256 162.434 127.282C162.547 127.311 162.673 127.342 162.811 127.373C162.949 127.405 163.089 127.437 163.231 127.469C163.374 127.498 163.515 127.524 163.655 127.547C163.8 127.572 163.932 127.591 164.053 127.605ZM167.77 125.429C167.597 126.09 167.326 126.675 166.957 127.185C166.587 127.695 166.144 128.107 165.628 128.42C165.113 128.729 164.537 128.931 163.902 129.024C163.272 129.114 162.609 129.069 161.912 128.888C161.61 128.809 161.305 128.692 160.998 128.534C160.689 128.381 160.399 128.185 160.125 127.947C159.853 127.704 159.607 127.419 159.387 127.091C159.172 126.764 159.005 126.39 158.887 125.968C158.769 125.546 158.709 125.075 158.708 124.554C158.71 124.034 158.793 123.463 158.956 122.838C159.115 122.226 159.326 121.709 159.586 121.287C159.851 120.865 160.143 120.522 160.462 120.256C160.782 119.987 161.121 119.784 161.478 119.649C161.84 119.515 162.199 119.428 162.553 119.387C162.908 119.345 163.249 119.341 163.576 119.375C163.903 119.408 164.197 119.458 164.459 119.526C164.866 119.632 165.248 119.772 165.607 119.947C165.971 120.119 166.299 120.329 166.591 120.576C166.885 120.82 167.138 121.103 167.35 121.425C167.563 121.747 167.725 122.109 167.835 122.512C167.945 122.914 167.997 123.358 167.991 123.842C167.989 124.327 167.915 124.856 167.77 125.429ZM134.488 134.439C134.226 134.372 133.978 134.311 133.742 134.259C133.507 134.202 133.272 134.149 133.035 134.101C132.798 134.052 132.554 134.006 132.303 133.963C132.052 133.919 131.784 133.875 131.499 133.831C131.593 133.636 131.679 133.422 131.757 133.189C131.839 132.956 131.912 132.715 131.978 132.466C132.018 132.313 132.054 132.159 132.085 132.004C132.121 131.849 132.147 131.701 132.163 131.559C131.894 131.403 131.581 131.26 131.224 131.128C130.867 130.993 130.504 130.877 130.134 130.781C129.872 130.713 129.615 130.657 129.364 130.614C129.114 130.566 128.882 130.532 128.669 130.511C128.46 130.981 128.268 131.469 128.093 131.973C127.923 132.475 127.77 132.99 127.632 133.518C127.485 134.081 127.359 134.646 127.254 135.213C127.149 135.779 127.064 136.344 126.999 136.907C127.134 136.998 127.291 137.088 127.47 137.178C127.649 137.267 127.837 137.353 128.036 137.434C128.234 137.516 128.435 137.592 128.641 137.662C128.85 137.734 129.053 137.795 129.251 137.846C129.388 137.882 129.519 137.914 129.645 137.942C129.776 137.967 129.9 137.985 130.019 137.994C130.138 137.767 130.252 137.511 130.361 137.225C130.475 136.936 130.571 136.643 130.649 136.345C130.711 136.108 130.759 135.873 130.794 135.641C131.108 135.757 131.408 135.861 131.693 135.952C131.984 136.04 132.283 136.124 132.589 136.204C132.984 136.306 133.42 136.407 133.898 136.505C133.706 136.924 133.49 137.283 133.249 137.581C133.008 137.88 132.751 138.129 132.479 138.329C132.212 138.531 131.933 138.691 131.644 138.809C131.359 138.929 131.074 139.016 130.789 139.071C130.508 139.127 130.233 139.159 129.964 139.166C129.695 139.174 129.446 139.167 129.215 139.146C128.988 139.126 128.782 139.096 128.599 139.057C128.419 139.023 128.274 138.992 128.165 138.964C127.521 138.797 126.976 138.586 126.53 138.333C126.088 138.081 125.727 137.8 125.447 137.491C125.166 137.182 124.953 136.851 124.808 136.5C124.668 136.149 124.578 135.793 124.539 135.43C124.502 135.064 124.504 134.699 124.547 134.336C124.591 133.973 124.655 133.627 124.741 133.296C124.938 132.543 125.21 131.889 125.557 131.335C125.904 130.78 126.333 130.337 126.846 130.005C127.362 129.675 127.963 129.465 128.648 129.377C129.335 129.284 130.116 129.325 130.99 129.501C131.546 129.645 132.054 129.865 132.515 130.161C132.975 130.457 133.363 130.815 133.679 131.237C133.999 131.66 134.232 132.142 134.379 132.683C134.526 133.224 134.562 133.809 134.488 134.439ZM140.258 141.774C139.715 141.594 139.167 141.422 138.612 141.256C138.058 141.091 137.498 140.935 136.934 140.788C136.455 140.664 135.973 140.548 135.49 140.439C135.006 140.331 134.513 140.235 134.01 140.152C134.231 139.436 134.443 138.723 134.645 138.014C134.849 137.302 135.045 136.583 135.234 135.858C135.445 135.049 135.647 134.242 135.841 133.436C136.035 132.627 136.218 131.825 136.391 131.031L139.062 131.725C138.796 132.675 138.538 133.599 138.286 134.497C138.177 134.881 138.067 135.278 137.956 135.688C137.845 136.097 137.733 136.501 137.621 136.897C137.513 137.295 137.409 137.676 137.309 138.042C137.215 138.404 137.129 138.732 137.052 139.026L140.753 139.877L140.258 141.774ZM147.809 139.438C147.553 139.35 147.295 139.268 147.035 139.192C146.776 139.112 146.516 139.038 146.254 138.97C146 138.904 145.745 138.844 145.488 138.791C145.232 138.733 144.971 138.68 144.704 138.632L144.439 139.647C144.376 139.889 144.317 140.123 144.262 140.349C144.208 140.572 144.16 140.781 144.118 140.976C144.382 141.036 144.661 141.104 144.955 141.18C145.253 141.258 145.553 141.336 145.855 141.414C146.157 141.492 146.447 141.57 146.723 141.646C147.001 141.718 147.249 141.782 147.467 141.839C147.715 141.908 147.953 141.971 148.178 142.03C148.159 142.085 148.139 142.147 148.117 142.214C148.098 142.269 148.076 142.337 148.051 142.416C148.03 142.497 148.007 142.585 147.982 142.682C147.949 142.807 147.916 142.942 147.882 143.088C147.853 143.235 147.824 143.387 147.796 143.543C147.641 143.494 147.481 143.448 147.316 143.405C147.155 143.364 146.998 143.323 146.844 143.283C145.882 143.033 144.923 142.8 143.969 142.582C143.018 142.37 142.055 142.171 141.08 141.987C141.111 141.866 141.157 141.697 141.218 141.481C141.279 141.265 141.349 141.012 141.429 140.723C141.514 140.431 141.605 140.113 141.704 139.769C141.807 139.422 141.912 139.06 142.019 138.684C142.126 138.307 142.235 137.923 142.346 137.53C142.461 137.139 142.571 136.752 142.675 136.371C142.784 135.986 142.886 135.617 142.983 135.264C143.08 134.907 143.169 134.575 143.249 134.269C143.326 133.975 143.392 133.715 143.446 133.488C143.506 133.259 143.55 133.066 143.578 132.91C143.993 133.017 144.407 133.129 144.82 133.245C145.233 133.357 145.652 133.467 146.075 133.577C146.711 133.742 147.352 133.898 147.998 134.044C148.644 134.19 149.312 134.316 150.003 134.422C149.947 134.554 149.898 134.683 149.856 134.81C149.82 134.934 149.787 135.052 149.757 135.165C149.729 135.274 149.705 135.375 149.684 135.468C149.665 135.558 149.651 135.636 149.643 135.703C149.632 135.777 149.622 135.846 149.615 135.908C149.137 135.81 148.667 135.709 148.203 135.606C148.004 135.563 147.796 135.518 147.581 135.471C147.37 135.42 147.157 135.371 146.941 135.324C146.731 135.274 146.524 135.224 146.322 135.176C146.124 135.129 145.94 135.083 145.771 135.039C145.712 135.231 145.647 135.437 145.576 135.66C145.518 135.851 145.448 136.076 145.368 136.335C145.292 136.594 145.21 136.874 145.123 137.174C145.617 137.293 146.116 137.406 146.622 137.511C147.132 137.618 147.669 137.721 148.232 137.82C148.18 137.969 148.127 138.121 148.074 138.275C148.026 138.426 147.981 138.584 147.938 138.749C147.909 138.858 147.882 138.969 147.857 139.083C147.836 139.198 147.82 139.316 147.809 139.438ZM156.199 146.079C155.911 145.961 155.659 145.857 155.442 145.766C155.227 145.68 155.024 145.602 154.832 145.53C154.643 145.464 154.457 145.403 154.274 145.347C154.09 145.291 153.89 145.234 153.673 145.178C153.869 144.855 154.051 144.519 154.219 144.172C154.391 143.825 154.55 143.464 154.695 143.089C154.456 143.019 154.209 142.948 153.957 142.878C153.704 142.808 153.453 142.741 153.203 142.676C152.691 142.543 152.197 142.428 151.719 142.33C151.645 142.697 151.578 143.067 151.52 143.439C151.463 143.807 151.415 144.177 151.378 144.55C151.087 144.496 150.827 144.448 150.597 144.405C150.367 144.363 150.164 144.325 149.988 144.292C149.81 144.264 149.657 144.239 149.529 144.219C149.4 144.202 149.29 144.189 149.198 144.178C148.985 144.153 148.839 144.143 148.761 144.148C148.777 143.873 148.804 143.585 148.844 143.286C148.887 142.988 148.936 142.693 148.991 142.402C149.05 142.108 149.112 141.823 149.175 141.547C149.239 141.271 149.301 141.016 149.362 140.783C149.489 140.296 149.635 139.811 149.799 139.329C149.968 138.848 150.164 138.394 150.387 137.966C150.615 137.539 150.874 137.155 151.166 136.814C151.458 136.468 151.795 136.19 152.177 135.98C152.56 135.765 152.99 135.632 153.468 135.58C153.947 135.524 154.485 135.573 155.081 135.728C155.694 135.887 156.231 136.127 156.693 136.449C157.156 136.767 157.52 137.169 157.785 137.655C158.053 138.141 158.21 138.713 158.253 139.369C158.302 140.023 158.218 140.764 158.002 141.593C157.946 141.807 157.871 142.071 157.776 142.386C157.684 142.702 157.567 143.054 157.422 143.442C157.278 143.831 157.104 144.25 156.901 144.7C156.702 145.147 156.468 145.607 156.199 146.079ZM153.181 141.032C153.531 141.123 153.881 141.208 154.231 141.285C154.585 141.36 154.924 141.42 155.248 141.466C155.28 141.375 155.308 141.284 155.333 141.191C155.358 141.094 155.384 140.996 155.41 140.895C155.57 140.283 155.695 139.686 155.787 139.103C155.883 138.522 155.942 137.974 155.965 137.46C155.874 137.428 155.773 137.395 155.661 137.362C155.554 137.329 155.437 137.297 155.312 137.265C155.147 137.222 154.975 137.181 154.796 137.143C154.621 137.102 154.448 137.066 154.276 137.034C154.109 136.999 153.946 136.97 153.789 136.946C153.632 136.923 153.494 136.906 153.376 136.897C153.12 137.515 152.886 138.142 152.672 138.778C152.464 139.412 152.273 140.061 152.099 140.726C152.269 140.783 152.444 140.837 152.625 140.888C152.81 140.936 152.995 140.984 153.181 141.032ZM169.451 139.18C168.999 140.352 168.569 141.505 168.162 142.637C167.988 143.121 167.81 143.623 167.627 144.143C167.444 144.663 167.266 145.178 167.094 145.688C166.922 146.198 166.761 146.694 166.61 147.175C166.459 147.652 166.332 148.09 166.228 148.488C165.917 148.442 165.626 148.39 165.353 148.332C165.084 148.275 164.812 148.211 164.538 148.14C164.397 148.103 164.251 148.063 164.099 148.019C163.947 147.976 163.789 147.928 163.626 147.877L162.037 139.951C161.968 140.23 161.891 140.543 161.805 140.891C161.722 141.239 161.636 141.604 161.545 141.984C161.455 142.361 161.364 142.745 161.27 143.138C161.18 143.532 161.092 143.911 161.005 144.276C160.798 145.133 160.59 146.014 160.38 146.919C160.134 146.855 159.879 146.793 159.615 146.733C159.387 146.683 159.133 146.627 158.852 146.567C158.574 146.512 158.294 146.463 158.013 146.42C158.146 146.025 158.289 145.576 158.442 145.074C158.595 144.568 158.751 144.037 158.909 143.48C159.073 142.921 159.234 142.352 159.393 141.774C159.553 141.196 159.703 140.636 159.845 140.092C159.993 139.528 160.124 139.001 160.239 138.511C160.358 138.022 160.456 137.604 160.533 137.259C160.853 137.368 161.161 137.467 161.456 137.556C161.752 137.642 162.049 137.723 162.347 137.8C162.649 137.879 162.952 137.953 163.256 138.024C163.566 138.091 163.891 138.156 164.231 138.219C164.279 138.777 164.352 139.321 164.451 139.849C164.549 140.378 164.655 140.904 164.768 141.428C164.886 141.948 165.002 142.473 165.118 143.002C165.235 143.527 165.339 144.065 165.432 144.618C165.501 144.353 165.579 144.063 165.665 143.75C165.755 143.438 165.847 143.116 165.943 142.784C166.038 142.452 166.134 142.118 166.23 141.781C166.327 141.445 166.422 141.122 166.516 140.811C166.727 140.083 166.949 139.343 167.179 138.59C167.396 138.668 167.587 138.735 167.753 138.791C167.924 138.844 168.094 138.892 168.263 138.936C168.433 138.98 168.609 139.021 168.792 139.06C168.977 139.095 169.196 139.135 169.451 139.18ZM174.794 146.442C174.538 146.354 174.28 146.272 174.02 146.196C173.761 146.116 173.501 146.042 173.239 145.974C172.985 145.908 172.73 145.848 172.473 145.794C172.217 145.737 171.956 145.684 171.689 145.636L171.424 146.651C171.361 146.892 171.302 147.126 171.247 147.353C171.193 147.575 171.145 147.784 171.103 147.98C171.367 148.04 171.646 148.108 171.94 148.184C172.238 148.262 172.538 148.339 172.84 148.418C173.142 148.496 173.432 148.574 173.709 148.65C173.986 148.722 174.234 148.786 174.452 148.843C174.7 148.911 174.938 148.975 175.163 149.034C175.144 149.089 175.124 149.15 175.102 149.218C175.083 149.273 175.062 149.341 175.036 149.42C175.015 149.501 174.992 149.589 174.967 149.686C174.935 149.811 174.901 149.946 174.868 150.092C174.838 150.239 174.809 150.391 174.781 150.547C174.626 150.498 174.466 150.452 174.301 150.409C174.14 150.367 173.983 150.327 173.83 150.287C172.867 150.037 171.908 149.803 170.954 149.586C170.003 149.373 169.04 149.175 168.065 148.991C168.096 148.87 168.142 148.701 168.203 148.485C168.264 148.268 168.334 148.016 168.414 147.727C168.499 147.435 168.59 147.117 168.689 146.773C168.792 146.426 168.897 146.064 169.004 145.687C169.111 145.311 169.22 144.926 169.331 144.534C169.446 144.142 169.556 143.756 169.66 143.374C169.769 142.99 169.871 142.621 169.968 142.268C170.065 141.91 170.154 141.579 170.234 141.273C170.311 140.979 170.377 140.719 170.431 140.492C170.491 140.262 170.535 140.07 170.563 139.913C170.978 140.021 171.392 140.133 171.805 140.249C172.219 140.36 172.637 140.471 173.06 140.581C173.696 140.746 174.337 140.902 174.983 141.048C175.629 141.194 176.297 141.32 176.988 141.426C176.932 141.558 176.883 141.687 176.841 141.814C176.805 141.938 176.772 142.056 176.742 142.169C176.714 142.277 176.69 142.379 176.669 142.472C176.65 142.562 176.636 142.64 176.628 142.706C176.617 142.781 176.608 142.85 176.6 142.912C176.122 142.814 175.652 142.713 175.188 142.61C174.989 142.567 174.781 142.522 174.566 142.474C174.355 142.424 174.142 142.375 173.926 142.328C173.716 142.277 173.509 142.228 173.307 142.18C173.109 142.133 172.925 142.087 172.756 142.043C172.697 142.234 172.632 142.441 172.561 142.664C172.503 142.855 172.433 143.08 172.353 143.338C172.277 143.598 172.195 143.878 172.108 144.178C172.602 144.297 173.101 144.41 173.607 144.515C174.117 144.622 174.654 144.724 175.217 144.823C175.165 144.973 175.112 145.125 175.059 145.279C175.011 145.43 174.966 145.588 174.923 145.753C174.894 145.862 174.867 145.973 174.842 146.087C174.821 146.202 174.805 146.32 174.794 146.442ZM181.65 150.704C181.841 150.302 182.015 149.875 182.172 149.421C182.334 148.964 182.478 148.494 182.604 148.011C182.738 147.5 182.85 146.987 182.941 146.473C183.033 145.956 183.102 145.453 183.148 144.966C182.939 144.843 182.708 144.723 182.455 144.606C182.236 144.502 181.979 144.392 181.682 144.276C181.39 144.162 181.066 144.058 180.712 143.966C180.643 143.949 180.573 143.93 180.5 143.911C180.428 143.893 180.354 143.878 180.28 143.867C180.262 143.936 180.231 144.052 180.188 144.217C180.145 144.383 180.092 144.586 180.029 144.827C179.971 145.066 179.902 145.336 179.824 145.638C179.75 145.937 179.672 146.253 179.59 146.584C179.508 146.915 179.425 147.255 179.343 147.603C179.261 147.952 179.181 148.297 179.105 148.638C179.029 148.979 178.956 149.309 178.886 149.626C178.821 149.94 178.765 150.231 178.717 150.498C179.091 150.578 179.453 150.633 179.802 150.663C180.155 150.695 180.469 150.714 180.742 150.72C181.063 150.726 181.366 150.721 181.65 150.704ZM180.015 142.238C180.49 142.361 180.971 142.512 181.458 142.69C181.949 142.869 182.414 143.082 182.852 143.329C183.295 143.577 183.7 143.865 184.066 144.192C184.432 144.519 184.729 144.891 184.956 145.306C185.187 145.723 185.333 146.191 185.395 146.711C185.459 147.226 185.408 147.799 185.243 148.432C185.083 149.044 184.861 149.566 184.576 150C184.29 150.433 183.962 150.795 183.589 151.085C183.222 151.372 182.82 151.593 182.384 151.746C181.948 151.9 181.499 152 181.035 152.047C180.575 152.096 180.11 152.096 179.641 152.047C179.171 152.002 178.719 151.923 178.283 151.811C177.861 151.701 177.491 151.594 177.174 151.49C176.855 151.391 176.586 151.301 176.366 151.223C176.11 151.13 175.89 151.043 175.705 150.961C175.96 150.184 176.207 149.408 176.449 148.632C176.69 147.856 176.914 147.072 177.121 146.278C177.223 145.888 177.314 145.514 177.395 145.156C177.479 144.8 177.558 144.446 177.633 144.096C177.707 143.745 177.778 143.392 177.845 143.035C177.917 142.676 177.993 142.295 178.072 141.895C178.423 141.917 178.762 141.962 179.088 142.029C179.416 142.093 179.725 142.162 180.015 142.238Z" fill="black"/>
<path d="M42.7803 40.0478C42.6201 39.7681 40.1762 40.0478 37.1711 41.0466C36.0373 43.7633 38.3331 44.3226 38.9742 44.6423C40.6169 45.4413 45.3849 39.6802 57.0043 45.2415C61.8123 45.2415 57.6569 38.7136 57.6569 38.7136C57.6569 38.7136 48.3899 38.7136 42.7803 40.0478Z" fill="white"/>
<path d="M58.807 45.2416C56.1626 46.7198 50.4733 42.2294 47.7889 42.509C45.1044 42.7887 40.5766 45.2416 39.3746 45.2416C37.0107 45.2416 37.5718 40.8468 37.5718 40.8468C37.5718 40.8468 49.9925 38.354 58.0578 38.354C58.8992 39.4327 60.2093 44.1628 58.807 45.2416Z" stroke="#2D1F04" stroke-width="1.04675" stroke-miterlimit="10" stroke-linecap="round" stroke-linejoin="round"/>
</svg>
