<svg width="32" height="32" viewBox="0 0 32 32" fill="none" xmlns="http://www.w3.org/2000/svg">
<path d="M18 29C17.7961 28.9995 17.5972 28.9367 17.43 28.82L7.43 21.82C7.29753 21.7281 7.18925 21.6055 7.11438 21.4627C7.03951 21.32 7.00027 21.1612 7 21V11C7.00027 10.8388 7.03951 10.68 7.11438 10.5372C7.18925 10.3944 7.29753 10.2719 7.43 10.18L17.43 3.17997C17.5758 3.08133 17.745 3.02291 17.9206 3.01062C18.0962 2.99833 18.2719 3.0326 18.43 3.10997C18.5987 3.19028 18.7414 3.31622 18.8422 3.47352C18.9429 3.63082 18.9976 3.81319 19 3.99997V28C19.0004 28.1836 18.9502 28.3638 18.8549 28.5208C18.7597 28.6778 18.623 28.8055 18.46 28.89C18.3177 28.9629 18.1599 29.0006 18 29ZM9 20.48L17 26.08V5.91997L9 11.52V20.48Z" fill="#1F1F1F"/>
<path d="M8 22H4C3.20435 22 2.44129 21.6839 1.87868 21.1213C1.31607 20.5587 1 19.7956 1 19V13C1 12.2044 1.31607 11.4413 1.87868 10.8787C2.44129 10.3161 3.20435 10 4 10H8C8.26522 10 8.51957 10.1054 8.70711 10.2929C8.89464 10.4804 9 10.7348 9 11V21C9 21.2652 8.89464 21.5196 8.70711 21.7071C8.51957 21.8946 8.26522 22 8 22ZM4 12C3.73478 12 3.48043 12.1054 3.29289 12.2929C3.10536 12.4804 3 12.7348 3 13V19C3 19.2652 3.10536 19.5196 3.29289 19.7071C3.48043 19.8946 3.73478 20 4 20H7V12H4Z" fill="#1F1F1F"/>
<path d="M22.2232 11.0489L20.809 12.4631L29.2943 20.9484L30.7085 19.5342L22.2232 11.0489Z" fill="#1F1F1F"/>
<path d="M29.2943 11.0489L20.809 19.5342L22.2232 20.9484L30.7085 12.4631L29.2943 11.0489Z" fill="#1F1F1F"/>
</svg>
