<svg width="202" height="24" viewBox="0 0 202 24" xmlns="http://www.w3.org/2000/svg"><title>imaguru</title><path d="M46.872 0c.708.093 1.427.137 2.124.288 3.703.802 6.065 3.404 6.62 7.307.125.875.184 1.767.188 2.651.02 4.145.009 8.29.009 12.435v.426h-4.99c-.007-.154-.019-.308-.019-.463 0-4.023-.003-8.047.001-12.07.001-1.07-.09-2.122-.48-3.127-.687-1.765-1.978-2.696-3.819-2.717-.558-.007-1.127-.02-1.674.076-1.268.224-2.112 1.042-2.647 2.219-.48 1.056-.624 2.185-.624 3.338-.002 4.078-.001 8.155-.001 12.233v.51h-5.161V10.393c0-1.058-.126-2.095-.538-3.074-.69-1.634-1.88-2.54-3.626-2.584-.61-.016-1.233-.03-1.83.077-1.383.25-2.234 1.189-2.746 2.487-.359.908-.496 1.863-.496 2.84l-.005 12.475v.497h-4.97c-.013-.084-.036-.16-.036-.236.006-4.602-.027-9.205.04-13.806.032-2.221.638-4.305 2.039-6.06C25.575 1.323 27.365.48 29.418.165c.474-.072.954-.111 1.431-.166h1.642c.178.024.359.04.536.074.904.172 1.825.284 2.707.54 1.23.357 2.29 1.065 3.197 2.008.061-.046.107-.073.142-.11C40.218 1.32 41.613.614 43.19.288 43.862.149 44.55.093 45.23 0h1.642zm44.382.889h26.575v4.91H96.391v13.252h16.297v-3.925h-9.216v-4.132h14.361V24H91.254V.889zM176.307 24h-6.152l-3.342-6.502h-9.057V24h-5.37V.915c.125-.008.263-.024.402-.024 4.794-.002 9.588-.004 14.382 0 1.355.002 2.687.172 3.958.694 2.925 1.2 4.55 3.448 4.811 6.701.191 2.379-.332 4.58-1.911 6.394-.492.564-1.095 1.023-1.685 1.566L176.307 24zm-18.605-11.6V5.368c.147-.011.284-.03.42-.03 2.947-.002 5.893-.007 8.84 0 1.997.006 3.103 1.131 3.142 3.265a6.09 6.09 0 0 1-.269 1.93c-.38 1.187-1.238 1.87-2.403 1.886-3.194.046-6.39.018-9.584.019-.037 0-.074-.018-.146-.036zm29.589 5.857h9.91V0H202v23.111h-19.491V.001h4.782v18.256zM140.23.89h5.04c.01.122.024.226.024.33 0 4.368.01 8.737-.007 13.106-.006 1.709-.3 3.37-1.026 4.926-1.106 2.369-2.952 3.824-5.436 4.387a14.103 14.103 0 0 1-6.432-.02c-3.561-.848-5.606-3.234-6.309-6.835-.188-.967-.255-1.973-.262-2.962-.027-4.18-.012-8.362-.01-12.542 0-.12.01-.239.016-.384h5.051v.469c0 4.033.003 8.066-.002 12.099-.001 1.056.091 2.094.489 3.08.694 1.723 1.925 2.683 3.783 2.71.579.008 1.167.027 1.735-.064 1.22-.196 2.072-.942 2.629-2.044.557-1.102.717-2.294.717-3.516V.889zM68.365 24h-5.461L70.922.889h5.798l8.333 23.09H79.59l-1.274-3.882h-8.733L68.364 24zM73.53 6.225l2.662 8.886h-5.316l2.577-8.889.077.003zM14.175 19.598V24H0v-4.384h4.527V5.302H0V.889h14.169v4.377h-4.2v14.332h4.206z" fill="#151515" fill-rule="evenodd"/></svg>