<svg width="123" height="44" viewBox="0 0 123 44" xmlns="http://www.w3.org/2000/svg"><title>epam</title><path d="M23.343 15.264h6.837V7.998c0-2.028-1.012-3.042-3.038-3.042h-.76c-2.026 0-3.04 1.014-3.04 3.042v7.266zm-.016 4.637l.016 7.992c0 2.027 1.013 3.041 3.039 3.041h.886c2.027 0 3.04-1.014 3.04-3.041v-3.928h4.685v3.738c0 5.132-2.596 7.73-7.725 7.73h-1.013c-5.129 0-7.724-2.598-7.724-7.13V8.79c0-5.734 2.595-8.332 7.724-8.332h1.013c5.13 0 7.725 2.598 7.725 7.731l-.016 11.713h-11.65zM38.12.837h4.812v2.218C44.071 1.851 46.034.457 48.82.457c4.116 0 6.142 2.725 6.142 6.78v21.416c0 4.055-2.026 6.78-6.142 6.78-2.785 0-4.748-1.33-5.888-2.471V44H38.12V.837zm4.812 28.26c1.33 1.14 2.85 1.774 4.432 1.774 1.773 0 2.786-.823 2.786-2.788V7.808c0-1.965-1.013-2.789-2.786-2.789-1.583 0-3.102.634-4.432 1.775v22.303zm26.363-.247V17.556l-4.273 1.656c-1.734.698-2.29 1.585-2.29 3.55v5.2c0 1.649.804 2.473 2.29 2.473 1.424 0 2.725-.507 4.273-1.585zm-11.27-6.15c0-4.249 1.362-5.96 4.954-7.228l6.316-2.22V7.546c0-2.03-.991-3.107-2.972-3.107h-.767c-1.982 0-2.973 1.078-2.973 3.107v4.849H58V7.736C58 2.6 60.539 0 65.555 0h.89C71.461 0 74 2.6 74 7.736V34.62h-4.706v-2.156C67.994 33.732 66.26 35 63.535 35c-3.777 0-5.511-2.22-5.511-6.023V22.7zM93.418 35h-4.837V7.116c0-1.731-.826-2.5-2.29-2.5-1.337 0-2.736.512-4.455 1.73V35H77V.385h4.836v2.243C83.236 1.282 85.082 0 87.755 0c2.481 0 4.136 1.026 5.027 2.82C94.5 1.347 96.536 0 99.336 0 103.091 0 105 2.308 105 6.09V35h-4.837V7.116c0-1.731-.827-2.5-2.29-2.5-1.337 0-2.737.512-4.455 1.73V35zM12 4v6.285L4.14 18 12 25.577V32L0 20.381v-4.624L12 4zm111 11.757v4.624L111 32v-6.423L118.86 18 111 10.285V4l12 11.757z" fill="#151515" fill-rule="evenodd"/></svg>