<svg version="1" xmlns="http://www.w3.org/2000/svg" width="3521.333" height="1565.333" viewBox="0 0 2641.000000 1174.000000"><path d="M0 367v367l98.3.1c88.8.1 97.3.3 88.4 1.5-44.8 6.5-89.5 29.2-122.7 62.4C28.4 833.7 6.2 880.8.9 931.9-.6 946 .3 974.8 2.5 988c7.7 46.1 27.8 86 59.9 118.9 35.6 36.4 79.7 58.5 130.6 65.2 13.7 1.8 43 1.6 57.5-.5 72.2-10.4 134-54.7 166.5-119.6 10.8-21.5 18.5-46.6 21.1-68 1.3-11.4 2.8-16.2 2.9-9.5 0 5.8 2.7 21.5 5.6 32.9 20.2 80.2 85 143.2 165.6 161 17.5 3.8 28.7 5 48.3 4.9 20.9 0 35.7-1.8 55-6.8 77.5-19.9 138.3-81.1 158-159 1.9-7.2 3.9-17.8 4.6-23.5 1.3-11.4 2.8-16.2 2.9-9.5 0 5.8 2.7 21.5 5.6 32.9 20.2 80.2 85 143.2 165.6 161 17.5 3.8 28.7 5 48.3 4.9 20.9 0 35.7-1.8 55-6.8 77.5-19.9 138.3-81.1 158-159 1.9-7.2 3.9-17.8 4.6-23.5 1.3-11.4 2.8-16.2 2.9-9.5 0 5.8 2.7 21.5 5.6 32.9 20.2 80.2 85 143.2 165.6 161 17.5 3.8 28.7 5 48.3 4.9 20.9 0 35.7-1.8 55-6.8 77.5-19.9 138.3-81.1 158-159 1.9-7.2 3.9-17.8 4.6-23.5 1.3-11.4 2.8-16.2 2.9-9.5 0 5.8 2.7 21.5 5.5 32.5 9.7 38.3 28.3 71.6 55.9 99.9 35.6 36.4 79.7 58.5 130.6 65.2 13.7 1.8 43 1.6 57.5-.5 72.2-10.4 134-54.7 166.5-119.6 10.8-21.5 18.5-46.6 21.1-68 1.3-11.4 2.8-16.2 2.9-9.5 0 2.2.7 8.3 1.5 13.5 14.4 89.2 82 161.1 169.7 180.4 17.5 3.8 28.7 5 48.3 4.9 20.9 0 35.7-1.8 55-6.8 77.5-19.9 138.4-81.2 158-159 9.9-39.1 8.6-83.1-3.6-121.2-21.1-65.9-72.7-118.6-138.1-141.1-12.4-4.3-28.8-8.2-43.3-10.3-13.1-2-45.2-1.7-59.9.5-94.6 13.8-169.7 87.1-185.6 180.9-1.1 6.6-2 13.8-2 16-.1 6.4-1.6 2.5-2.4-6-1-10.1-4.9-28.1-8.6-39.8-16.3-50.5-49.4-92.7-95-121-25.1-15.5-54.6-26-86.5-30.6-13.1-2-45.2-1.7-59.9.5-94.6 13.8-169.7 87.1-185.6 180.9-1.1 6.6-2 13.8-2 16-.1 6.9-1.6 2.1-2.9-9.3-1.5-12.9-6.6-33.2-11.6-46.5-28.2-75.2-94-128.6-173.5-140.9-6.4-1.1-7.5-1.4-4.2-1.5l4.2-.1V367h958V0H0v367zM1254 93c4.7 1.1 13.2 4.4 19 7.2 9.4 4.6 11.6 6.3 20.5 15.2 11.1 11.2 15.2 17.5 20.1 30.6 12.4 33 6.4 71.8-15.1 97-10.7 12.6-27.2 22.7-44.1 27.1-17.2 4.4-39.7 3.5-56.9-2.2-13.7-4.6-22.6-10.1-33-20.4-9.7-9.7-14.7-17.4-19.5-29.8-4.9-12.4-6.3-20.6-6.3-36.2 0-20 3.8-34.6 13-50.5 5.3-9.1 19.9-23.4 29.3-28.7 8.7-4.9 22.7-9.8 32-11.2 10-1.5 31.1-.6 41 1.9zm1031.8-.1c12.6 3.2 26.8 10.3 36 18.1l2.4 2-5.6 8.9c-5.9 9.3-9.3 11.9-13.8 10.6-1.3-.4-5.4-2.5-9.1-4.7-12.8-7.4-26.3-10.5-42.1-9.5-33 1.9-53.6 26.2-53.6 63.2 0 20.3 6.1 36.9 17.9 48.5 12.1 11.9 25.9 16.6 45.6 15.6 11.4-.5 14.9-1.2 24.8-4.8l5.7-2V206h-12.3c-16.9 0-16.7.1-16.7-14.1V181h59v72.8l-4.8 3.1c-17.9 11.4-42.1 17.1-68.2 15.8-14.6-.7-24.7-3.3-37.5-9.7-16.6-8.2-29.3-20.9-37.5-37.5-7.9-16-9.4-22.7-9.4-44 0-15.7.3-19.1 2.2-26.4 9.6-35.1 35-57.7 71.6-63.7 11.5-1.9 34.7-1.1 45.4 1.5zM285 105.5V119h-53v151h-34V119h-54V92h141v13.5zm117 25V169h84V92h33v179h-33v-79h-84v79h-34V92h34v38.5zM730 105v13h-79v50h62v26h-62v50h79v27H617V92h113v13zm283.9-10.1c12.9 3.3 20.6 7.4 28.2 15 6.9 6.9 10 12.9 12 23.5 3.3 17.5-2.9 36.8-15.5 48.2-5.8 5.3-18.2 12.4-21.5 12.4-.9 0 .3 1.7 3.1 4.2 2.9 2.6 13.7 17.6 27.7 38.3l23.1 34-16.6.3c-14.6.2-17.1 0-20.2-1.6-2.9-1.5-7.4-7.6-23.9-32.8-12.6-19.3-21.4-31.7-23.4-33.2-2.8-1.9-4.5-2.2-12.5-2.2H965v70h-34V91.8l37.3.5c34.2.4 37.9.6 45.6 2.6zm427.1 72.6V243h72v28h-105V92h33v75.5zm190 0V243h72v28h-105V92h33v75.5zm194 14V271h-34V92h34v89.5zM1954.3 96c1.9 1.9 23.7 29.5 48.6 61.2 24.9 31.8 45.5 57.9 45.9 58.2.4.2.6-27.4.4-61.5L2049 92h29v179h-10.1c-6.9 0-11.1-.5-13.2-1.5-2.3-1.1-17.2-19.4-50.7-62.1l-47.5-60.5-.3 62-.2 62.1h-29V91.8l12 .4 12 .3 3.3 3.5zM227 444.4c9.5 1.7 21 6.2 28.2 11 8.7 5.7 8.6 5.4 3.8 14.8-2.4 4.6-5 9.1-5.8 10-2.5 2.9-8 2.2-14.7-1.8-12.4-7.5-24-9.9-35.8-7.4-16.8 3.4-24.5 22.1-13.9 33.3 4.3 4.6 9.7 7.2 27.2 13.2 9.1 3.1 20.1 7.4 24.5 9.5 22.1 10.6 30.4 30.9 23.8 57.5-9.4 37.9-57.5 53.1-100.1 31.6-8-4-18.2-11.5-18.2-13.3 0-1.9 10.1-17.8 12-18.8 3.6-1.9 7.6-1 13.9 3 17.7 11.4 30.9 14.4 45.5 10.3 7.4-2.1 14.5-8.5 16.4-14.9 1.7-5.7 1.5-14-.4-18-3.6-7.6-11-11.8-31.4-17.9-36.4-10.7-49-24-49-51.3.1-21.1 10-36.6 29.6-45.9 12.7-6 28.3-7.8 44.4-4.9zm232.1 1.4c9.4 2.5 21.3 8.4 29.7 14.7 3.4 2.6 6.2 4.9 6.2 5.2 0 .9-9.1 13.5-11.8 16.5-3.6 3.9-7.2 3.6-15-1.3-3.5-2.2-9.4-5.2-13.1-6.7-5.9-2.3-8-2.6-19.6-2.6-10.2-.1-14.2.3-18.5 1.8-18.5 6.3-30.7 18.6-36.6 37-3.5 10.9-4.4 28.5-2 40.7 3.1 15.9 12.9 31.4 24.4 38.8 7.3 4.6 15.6 7.2 25.7 7.8 16.3 1 28.4-2.5 40.4-11.6 3-2.2 6.5-4.1 7.7-4.1 1.5 0 4.7 2.7 9.8 8.1 8.8 9.3 8.8 8.9-.1 16.8-7.7 6.7-21 13.6-31.9 16.3-12.9 3.3-37.2 3.2-49.3 0-23.9-6.5-41.5-20.8-52.2-42.7-7.7-15.8-9.4-24.3-9.3-46.5 0-17.2.2-19.1 2.8-27.4 7.3-23.9 21.3-41.6 41.6-52.4 8.2-4.4 21.2-8.7 30.5-10.2 9.7-1.5 31.8-.5 40.6 1.8zm227.9.2c4.7 1.1 13.2 4.4 19 7.2 9.4 4.6 11.6 6.3 20.5 15.2 11.1 11.2 15.2 17.5 20.1 30.6 12.4 33 6.4 71.8-15.1 97-10.7 12.6-27.2 22.7-44.1 27.1-17.2 4.4-39.7 3.5-56.9-2.2-13.7-4.6-22.6-10.1-33-20.4-9.7-9.7-14.7-17.4-19.5-29.8-4.9-12.4-6.3-20.6-6.3-36.2 0-20 3.8-34.6 13-50.5 5.3-9.1 19.9-23.4 29.3-28.7 8.7-4.9 22.7-9.8 32-11.2 10-1.5 31.1-.6 41 1.9zm642-1.6c9.5 1.7 21 6.2 28.2 11 8.7 5.7 8.6 5.4 3.8 14.8-2.4 4.6-5 9.1-5.8 10-2.5 2.9-8 2.2-14.7-1.8-12.4-7.5-24-9.9-35.8-7.4-16.8 3.4-24.5 22.1-13.9 33.3 4.3 4.6 9.7 7.2 27.2 13.2 9.1 3.1 20.1 7.4 24.5 9.5 22.1 10.6 30.4 30.9 23.8 57.5-9.4 37.9-57.5 53.1-100.1 31.6-8-4-18.2-11.5-18.2-13.3 0-1.9 10.1-17.8 12-18.8 3.6-1.9 7.6-1 13.9 3 17.7 11.4 30.9 14.4 45.5 10.3 7.4-2.1 14.5-8.5 16.4-14.9 1.7-5.7 1.5-14-.4-18-3.6-7.6-11-11.8-31.4-17.9-36.4-10.7-49-24-49-51.3.1-21.1 10-36.6 29.6-45.9 12.7-6 28.3-7.8 44.4-4.9zm-403.5 3.1c29.2 7.3 44.4 26 44.5 54.6 0 23.4-10.7 41.4-30 50.7-13.5 6.4-18.7 7.3-42.7 7.9l-21.3.5V624h-34V444.8l38.3.5c32 .3 39.3.7 45.2 2.2zM1170 458v13h-79v50h62v26h-62v50h79v27h-113V445h113v13zM626.7 735.6c-5.3.8-14.9 2.8-21.2 4.4-84.2 21.7-148.1 91-162.5 176.3-1.1 6.6-2 13.8-2 16-.1 6.9-1.6 2.1-2.9-9.3-1.5-12.9-6.6-33.2-11.6-46.5-28.2-75.2-94-128.6-173.5-140.9-7.2-1.2 21.3-1.4 187.5-1.4 172.8 0 194.8.2 186.2 1.4zm440 0c-5.3.8-14.9 2.8-21.2 4.4-84.2 21.7-148.1 91-162.5 176.3-1.1 6.6-2 13.8-2 16-.1 6.9-1.6 2.1-2.9-9.3-1.5-12.9-6.6-33.2-11.6-46.5-28.2-75.2-94-128.6-173.5-140.9-7.2-1.2 21.3-1.4 187.5-1.4 172.8 0 194.8.2 186.2 1.4zm440 0c-5.3.8-14.9 2.8-21.2 4.4-84.2 21.7-148.1 91-162.5 176.3-1.1 6.6-2 13.8-2 16-.1 6.9-1.6 2.1-2.9-9.3-1.5-12.9-6.6-33.2-11.6-46.5-28.2-75.2-94-128.6-173.5-140.9-7.2-1.2 21.3-1.4 187.5-1.4 172.8 0 194.8.2 186.2 1.4zM691.1 844.8c9.4 2.5 21.3 8.4 29.7 14.7 3.4 2.6 6.2 4.9 6.2 5.2 0 .9-9.1 13.5-11.8 16.5-3.6 3.9-7.2 3.6-15-1.3-3.5-2.2-9.4-5.2-13.1-6.7-5.9-2.3-8-2.6-19.6-2.6-10.2-.1-14.2.3-18.5 1.8-18.5 6.3-30.7 18.6-36.6 37-3.5 10.9-4.4 28.5-2 40.7 3.1 15.9 12.9 31.4 24.4 38.8 7.3 4.6 15.6 7.2 25.7 7.8 16.3 1 28.4-2.5 40.4-11.6 3-2.2 6.5-4.1 7.7-4.1 1.5 0 4.7 2.7 9.8 8.1 8.8 9.3 8.8 8.9-.1 16.8-7.7 6.7-21 13.6-31.9 16.3-12.9 3.3-37.2 3.2-49.3 0-23.9-6.5-41.5-20.8-52.2-42.7-7.7-15.8-9.4-24.3-9.3-46.5 0-17.2.2-19.1 2.8-27.4 7.3-23.9 21.3-41.6 41.6-52.4 8.2-4.4 21.2-8.7 30.5-10.2 9.7-1.5 31.8-.5 40.6 1.8zM236 852.4c9.5 1.7 21 6.2 28.2 11 8.7 5.7 8.6 5.4 3.8 14.8-2.4 4.6-5 9.1-5.8 10-2.5 2.9-8 2.2-14.7-1.8-12.4-7.5-24-9.9-35.8-7.4-16.8 3.4-24.5 22.1-13.9 33.3 4.3 4.6 9.7 7.2 27.2 13.2 9.1 3.1 20.1 7.4 24.5 9.5 22.1 10.6 30.4 30.9 23.8 57.5-9.4 37.9-57.5 53.1-100.1 31.6-8-4-18.2-11.5-18.2-13.3 0-1.9 10.1-17.8 12-18.8 3.6-1.9 7.6-1 13.9 3 17.7 11.4 30.9 14.4 45.5 10.3 7.4-2.1 14.5-8.5 16.4-14.9 1.7-5.7 1.5-14-.4-18-3.6-7.6-11-11.8-31.4-17.9-36.4-10.7-49-24-49-51.3.1-21.1 10-36.6 29.6-45.9 12.7-6 28.3-7.8 44.4-4.9zm1335 1.6c4.7 1.1 13.2 4.4 19 7.2 9.4 4.6 11.6 6.3 20.5 15.2 11.1 11.2 15.2 17.5 20.1 30.6 12.4 33 6.4 71.8-15.1 97-10.7 12.6-27.2 22.7-44.1 27.1-17.2 4.4-39.7 3.5-56.9-2.2-13.7-4.6-22.6-10.1-33-20.4-9.7-9.7-14.7-17.4-19.5-29.8-4.9-12.4-6.3-20.6-6.3-36.2 0-20 3.8-34.6 13-50.5 5.3-9.1 19.9-23.4 29.3-28.7 8.7-4.9 22.7-9.8 32-11.2 10-1.5 31.1-.6 41 1.9zm445 0c4.7 1.1 13.2 4.4 19 7.2 9.4 4.6 11.6 6.3 20.5 15.2 11.1 11.2 15.2 17.5 20.1 30.6 12.4 33 6.4 71.8-15.1 97-10.7 12.6-27.2 22.7-44.1 27.1-17.2 4.4-39.7 3.5-56.9-2.2-13.7-4.6-22.6-10.1-33-20.4-9.7-9.7-14.7-17.4-19.5-29.8-4.9-12.4-6.3-20.6-6.3-36.2 0-20 3.8-34.6 13-50.5 5.3-9.1 19.9-23.4 29.3-28.7 8.7-4.9 22.7-9.8 32-11.2 10-1.5 31.1-.6 41 1.9zm-952 37.5V930h84v-77h33v179h-33v-79h-84v79h-34V853h34v38.5zm1355 37v75.5h72v28h-105V853h33v75.5z"/><path d="M1215 119.6c-20.2 4.3-34.3 18.8-40.1 40.9-2.7 10.5-2.9 29.6-.4 40.5 6.3 27.7 26.7 44 55 44 27.1 0 47.2-15.8 54.1-42.5 2.5-9.6 2.5-32.3.1-41.5-7.4-27.6-27.1-43.1-54.7-42.9-4.1 0-10.4.7-14 1.5zm-250 28.3V178h10.8c19.8-.1 31-3 38-9.9 5.5-5.6 7.5-10.6 8-20.3.4-8 .2-9.3-2.3-14.3-3-6.3-7-9.7-14.7-12.7-4.4-1.8-8.1-2.2-22.5-2.6l-17.3-.4v30.1zM648 472.6c-20.2 4.3-34.3 18.8-40.1 40.9-2.7 10.5-2.9 29.6-.4 40.5 6.3 27.7 26.7 44 55 44 27.1 0 47.2-15.8 54.1-42.5 2.5-9.6 2.5-32.3.1-41.5-7.4-27.6-27.1-43.1-54.7-42.9-4.1 0-10.4.7-14 1.5zM876 503v32h15.8c17.8 0 24.9-1.3 32.2-6 7.2-4.7 11.6-12.6 12.6-22.8 1.8-17.1-7.9-30.8-24.2-34.1-3.2-.6-12.6-1.1-21.1-1.1H876v32zm656 377.6c-20.2 4.3-34.3 18.8-40.1 40.9-2.7 10.5-2.9 29.6-.4 40.5 6.3 27.7 26.7 44 55 44 27.1 0 47.2-15.8 54.1-42.5 2.5-9.6 2.5-32.3.1-41.5-7.4-27.6-27.1-43.1-54.7-42.9-4.1 0-10.4.7-14 1.5zm445 0c-20.2 4.3-34.3 18.8-40.1 40.9-2.7 10.5-2.9 29.6-.4 40.5 6.3 27.7 26.7 44 55 44 27.1 0 47.2-15.8 54.1-42.5 2.5-9.6 2.5-32.3.1-41.5-7.4-27.6-27.1-43.1-54.7-42.9-4.1 0-10.4.7-14 1.5z"/></svg>