<svg width="250" height="250" viewBox="0 0 250 250" fill="none" xmlns="http://www.w3.org/2000/svg">
<rect x="2.5" y="2.5" width="245" height="245" fill="#DCDBE1"/>
<path d="M33.5237 221V211.13H37.4297C38.4937 211.13 39.3057 211.387 39.8657 211.9C40.435 212.413 40.7197 213.146 40.7197 214.098C40.7197 215.041 40.435 215.773 39.8657 216.296C39.3057 216.809 38.4937 217.066 37.4297 217.066H34.6717V221H33.5237ZM34.6717 216.1H37.2897C38.8203 216.1 39.5857 215.433 39.5857 214.098C39.5857 212.754 38.8203 212.082 37.2897 212.082H34.6717V216.1ZM44.555 221.126C42.9217 221.126 42.105 220.225 42.105 218.424V214.196H43.239V218.41C43.239 219.017 43.3603 219.465 43.603 219.754C43.855 220.043 44.247 220.188 44.779 220.188C45.3577 220.188 45.829 219.997 46.193 219.614C46.557 219.222 46.739 218.704 46.739 218.06V214.196H47.873V221H46.767V219.852C46.5523 220.263 46.249 220.58 45.857 220.804C45.4743 221.019 45.0403 221.126 44.555 221.126ZM52.2907 221.126C51.7587 221.126 51.2547 221.051 50.7787 220.902C50.3027 220.753 49.9107 220.543 49.6027 220.272L49.9667 219.474C50.3027 219.745 50.6713 219.945 51.0727 220.076C51.4833 220.197 51.8987 220.258 52.3187 220.258C52.8507 220.258 53.252 220.16 53.5227 219.964C53.7933 219.768 53.9287 219.502 53.9287 219.166C53.9287 218.905 53.84 218.699 53.6627 218.55C53.4853 218.391 53.2053 218.27 52.8227 218.186L51.5487 217.906C50.3913 217.654 49.8127 217.057 49.8127 216.114C49.8127 215.498 50.0553 215.003 50.5407 214.63C51.0353 214.257 51.6793 214.07 52.4727 214.07C52.9393 214.07 53.3827 214.145 53.8027 214.294C54.232 214.434 54.5867 214.644 54.8667 214.924L54.4887 215.722C54.218 215.47 53.9007 215.279 53.5367 215.148C53.182 215.008 52.8273 214.938 52.4727 214.938C51.95 214.938 51.5533 215.041 51.2827 215.246C51.012 215.451 50.8767 215.722 50.8767 216.058C50.8767 216.581 51.222 216.917 51.9127 217.066L53.1867 217.332C53.784 217.463 54.2367 217.673 54.5447 217.962C54.8527 218.242 55.0067 218.625 55.0067 219.11C55.0067 219.735 54.7593 220.23 54.2647 220.594C53.77 220.949 53.112 221.126 52.2907 221.126ZM56.7349 221V211.13H57.8689V215.316C58.0929 214.905 58.4056 214.597 58.8069 214.392C59.2176 214.177 59.6749 214.07 60.1789 214.07C61.7936 214.07 62.6009 214.966 62.6009 216.758V221H61.4669V216.828C61.4669 216.193 61.3409 215.731 61.0889 215.442C60.8462 215.143 60.4542 214.994 59.9129 214.994C59.2876 214.994 58.7882 215.19 58.4149 215.582C58.0509 215.965 57.8689 216.478 57.8689 217.122V221H56.7349ZM68.6516 221V215.078H67.3076V214.196H68.6516V213.958C68.6516 213.053 68.8756 212.367 69.3236 211.9C69.781 211.433 70.481 211.172 71.4236 211.116L71.9696 211.088L72.0676 211.956L71.4236 211.998C70.845 212.045 70.425 212.217 70.1636 212.516C69.9116 212.815 69.7856 213.249 69.7856 213.818V214.196H71.7456V215.078H69.7856V221H68.6516ZM75.5863 221.126C74.9237 221.126 74.3497 220.981 73.8643 220.692C73.379 220.403 73.001 219.997 72.7303 219.474C72.469 218.942 72.3383 218.317 72.3383 217.598C72.3383 216.879 72.469 216.259 72.7303 215.736C73.001 215.204 73.379 214.793 73.8643 214.504C74.3497 214.215 74.9237 214.07 75.5863 214.07C76.2397 214.07 76.809 214.215 77.2943 214.504C77.789 214.793 78.167 215.204 78.4283 215.736C78.699 216.259 78.8343 216.879 78.8343 217.598C78.8343 218.317 78.699 218.942 78.4283 219.474C78.167 219.997 77.789 220.403 77.2943 220.692C76.809 220.981 76.2397 221.126 75.5863 221.126ZM75.5863 220.216C76.221 220.216 76.7297 219.992 77.1123 219.544C77.495 219.087 77.6863 218.438 77.6863 217.598C77.6863 216.749 77.495 216.1 77.1123 215.652C76.7297 215.204 76.221 214.98 75.5863 214.98C74.9423 214.98 74.429 215.204 74.0463 215.652C73.673 216.1 73.4863 216.749 73.4863 217.598C73.4863 218.438 73.673 219.087 74.0463 219.544C74.429 219.992 74.9423 220.216 75.5863 220.216ZM80.5376 221V214.196H81.6436V215.414C82.0076 214.593 82.7543 214.14 83.8836 214.056L84.2896 214.014L84.3736 214.994L83.6596 215.078C83.0156 215.134 82.5256 215.339 82.1896 215.694C81.8536 216.039 81.6856 216.515 81.6856 217.122V221H80.5376ZM92.0349 221.126C91.3536 221.126 90.7656 220.981 90.2709 220.692C89.7762 220.393 89.3936 219.978 89.1229 219.446C88.8616 218.905 88.7309 218.275 88.7309 217.556C88.7309 216.473 89.0249 215.624 89.6129 215.008C90.2009 214.383 91.0082 214.07 92.0349 214.07C92.4549 214.07 92.8702 214.145 93.2809 214.294C93.6916 214.443 94.0322 214.653 94.3029 214.924L93.9109 215.75C93.6402 215.489 93.3416 215.297 93.0149 215.176C92.6976 215.055 92.3942 214.994 92.1049 214.994C91.3956 214.994 90.8496 215.218 90.4669 215.666C90.0842 216.105 89.8929 216.739 89.8929 217.57C89.8929 218.382 90.0842 219.026 90.4669 219.502C90.8496 219.969 91.3956 220.202 92.1049 220.202C92.3942 220.202 92.6976 220.141 93.0149 220.02C93.3416 219.899 93.6402 219.703 93.9109 219.432L94.3029 220.258C94.0322 220.529 93.6869 220.743 93.2669 220.902C92.8562 221.051 92.4456 221.126 92.0349 221.126ZM95.6314 221V211.13H96.7654V215.316C96.9894 214.905 97.302 214.597 97.7034 214.392C98.114 214.177 98.5714 214.07 99.0754 214.07C100.69 214.07 101.497 214.966 101.497 216.758V221H100.363V216.828C100.363 216.193 100.237 215.731 99.9854 215.442C99.7427 215.143 99.3507 214.994 98.8094 214.994C98.184 214.994 97.6847 215.19 97.3114 215.582C96.9474 215.965 96.7654 216.478 96.7654 217.122V221H95.6314ZM106.416 221.126C105.754 221.126 105.18 220.981 104.694 220.692C104.209 220.403 103.831 219.997 103.56 219.474C103.299 218.942 103.168 218.317 103.168 217.598C103.168 216.879 103.299 216.259 103.56 215.736C103.831 215.204 104.209 214.793 104.694 214.504C105.18 214.215 105.754 214.07 106.416 214.07C107.07 214.07 107.639 214.215 108.124 214.504C108.619 214.793 108.997 215.204 109.258 215.736C109.529 216.259 109.664 216.879 109.664 217.598C109.664 218.317 109.529 218.942 109.258 219.474C108.997 219.997 108.619 220.403 108.124 220.692C107.639 220.981 107.07 221.126 106.416 221.126ZM106.416 220.216C107.051 220.216 107.56 219.992 107.942 219.544C108.325 219.087 108.516 218.438 108.516 217.598C108.516 216.749 108.325 216.1 107.942 215.652C107.56 215.204 107.051 214.98 106.416 214.98C105.772 214.98 105.259 215.204 104.876 215.652C104.503 216.1 104.316 216.749 104.316 217.598C104.316 218.438 104.503 219.087 104.876 219.544C105.259 219.992 105.772 220.216 106.416 220.216ZM111.228 212.502V211.228H112.628V212.502H111.228ZM111.368 221V214.196H112.502V221H111.368ZM116.918 221.126C116.386 221.126 115.882 221.051 115.406 220.902C114.93 220.753 114.538 220.543 114.23 220.272L114.594 219.474C114.93 219.745 115.298 219.945 115.7 220.076C116.11 220.197 116.526 220.258 116.946 220.258C117.478 220.258 117.879 220.16 118.15 219.964C118.42 219.768 118.556 219.502 118.556 219.166C118.556 218.905 118.467 218.699 118.29 218.55C118.112 218.391 117.832 218.27 117.45 218.186L116.176 217.906C115.018 217.654 114.44 217.057 114.44 216.114C114.44 215.498 114.682 215.003 115.168 214.63C115.662 214.257 116.306 214.07 117.1 214.07C117.566 214.07 118.01 214.145 118.43 214.294C118.859 214.434 119.214 214.644 119.494 214.924L119.116 215.722C118.845 215.47 118.528 215.279 118.164 215.148C117.809 215.008 117.454 214.938 117.1 214.938C116.577 214.938 116.18 215.041 115.91 215.246C115.639 215.451 115.504 215.722 115.504 216.058C115.504 216.581 115.849 216.917 116.54 217.066L117.814 217.332C118.411 217.463 118.864 217.673 119.172 217.962C119.48 218.242 119.634 218.625 119.634 219.11C119.634 219.735 119.386 220.23 118.892 220.594C118.397 220.949 117.739 221.126 116.918 221.126ZM124.428 221.126C123.355 221.126 122.505 220.813 121.88 220.188C121.255 219.553 120.942 218.695 120.942 217.612C120.942 216.912 121.082 216.296 121.362 215.764C121.642 215.223 122.025 214.807 122.51 214.518C123.005 214.219 123.574 214.07 124.218 214.07C125.142 214.07 125.865 214.369 126.388 214.966C126.911 215.554 127.172 216.366 127.172 217.402V217.836H122.048C122.085 218.611 122.309 219.203 122.72 219.614C123.131 220.015 123.7 220.216 124.428 220.216C124.839 220.216 125.231 220.155 125.604 220.034C125.977 219.903 126.332 219.693 126.668 219.404L127.06 220.202C126.752 220.491 126.36 220.72 125.884 220.888C125.408 221.047 124.923 221.126 124.428 221.126ZM124.246 214.91C123.602 214.91 123.093 215.111 122.72 215.512C122.347 215.913 122.127 216.441 122.062 217.094H126.192C126.164 216.403 125.982 215.867 125.646 215.484C125.319 215.101 124.853 214.91 124.246 214.91ZM135.237 221.126C134.574 221.126 134 220.981 133.515 220.692C133.029 220.403 132.651 219.997 132.381 219.474C132.119 218.942 131.989 218.317 131.989 217.598C131.989 216.879 132.119 216.259 132.381 215.736C132.651 215.204 133.029 214.793 133.515 214.504C134 214.215 134.574 214.07 135.237 214.07C135.89 214.07 136.459 214.215 136.945 214.504C137.439 214.793 137.817 215.204 138.079 215.736C138.349 216.259 138.485 216.879 138.485 217.598C138.485 218.317 138.349 218.942 138.079 219.474C137.817 219.997 137.439 220.403 136.945 220.692C136.459 220.981 135.89 221.126 135.237 221.126ZM135.237 220.216C135.871 220.216 136.38 219.992 136.763 219.544C137.145 219.087 137.337 218.438 137.337 217.598C137.337 216.749 137.145 216.1 136.763 215.652C136.38 215.204 135.871 214.98 135.237 214.98C134.593 214.98 134.079 215.204 133.697 215.652C133.323 216.1 133.137 216.749 133.137 217.598C133.137 218.438 133.323 219.087 133.697 219.544C134.079 219.992 134.593 220.216 135.237 220.216ZM140.188 221V214.196H141.294V215.414C141.658 214.593 142.405 214.14 143.534 214.056L143.94 214.014L144.024 214.994L143.31 215.078C142.666 215.134 142.176 215.339 141.84 215.694C141.504 216.039 141.336 216.515 141.336 217.122V221H140.188ZM151.391 221.126C150.785 221.126 150.253 220.981 149.795 220.692C149.347 220.403 148.997 219.997 148.745 219.474C148.503 218.942 148.381 218.317 148.381 217.598C148.381 216.87 148.503 216.245 148.745 215.722C148.997 215.19 149.347 214.784 149.795 214.504C150.253 214.215 150.785 214.07 151.391 214.07C151.923 214.07 152.39 214.187 152.791 214.42C153.202 214.653 153.505 214.975 153.701 215.386V211.13H154.835V221H153.729V219.754C153.533 220.183 153.23 220.519 152.819 220.762C152.409 221.005 151.933 221.126 151.391 221.126ZM151.629 220.216C152.264 220.216 152.773 219.992 153.155 219.544C153.538 219.087 153.729 218.438 153.729 217.598C153.729 216.749 153.538 216.1 153.155 215.652C152.773 215.204 152.264 214.98 151.629 214.98C150.985 214.98 150.472 215.204 150.089 215.652C149.716 216.1 149.529 216.749 149.529 217.598C149.529 218.438 149.716 219.087 150.089 219.544C150.472 219.992 150.985 220.216 151.629 220.216ZM156.963 221V214.196H158.069V215.414C158.433 214.593 159.18 214.14 160.309 214.056L160.715 214.014L160.799 214.994L160.085 215.078C159.441 215.134 158.951 215.339 158.615 215.694C158.279 216.039 158.111 216.515 158.111 217.122V221H156.963ZM164.727 221.126C164.064 221.126 163.49 220.981 163.005 220.692C162.52 220.403 162.142 219.997 161.871 219.474C161.61 218.942 161.479 218.317 161.479 217.598C161.479 216.879 161.61 216.259 161.871 215.736C162.142 215.204 162.52 214.793 163.005 214.504C163.49 214.215 164.064 214.07 164.727 214.07C165.38 214.07 165.95 214.215 166.435 214.504C166.93 214.793 167.308 215.204 167.569 215.736C167.84 216.259 167.975 216.879 167.975 217.598C167.975 218.317 167.84 218.942 167.569 219.474C167.308 219.997 166.93 220.403 166.435 220.692C165.95 220.981 165.38 221.126 164.727 221.126ZM164.727 220.216C165.362 220.216 165.87 219.992 166.253 219.544C166.636 219.087 166.827 218.438 166.827 217.598C166.827 216.749 166.636 216.1 166.253 215.652C165.87 215.204 165.362 214.98 164.727 214.98C164.083 214.98 163.57 215.204 163.187 215.652C162.814 216.1 162.627 216.749 162.627 217.598C162.627 218.438 162.814 219.087 163.187 219.544C163.57 219.992 164.083 220.216 164.727 220.216ZM169.678 223.52V214.196H170.784V215.414C170.99 214.994 171.293 214.667 171.694 214.434C172.105 214.191 172.581 214.07 173.122 214.07C173.729 214.07 174.256 214.215 174.704 214.504C175.162 214.784 175.512 215.19 175.754 215.722C176.006 216.245 176.132 216.87 176.132 217.598C176.132 218.317 176.006 218.942 175.754 219.474C175.512 219.997 175.162 220.403 174.704 220.692C174.256 220.981 173.729 221.126 173.122 221.126C172.6 221.126 172.133 221.009 171.722 220.776C171.312 220.543 171.008 220.221 170.812 219.81V223.52H169.678ZM172.884 220.216C173.519 220.216 174.028 219.992 174.41 219.544C174.793 219.087 174.984 218.438 174.984 217.598C174.984 216.749 174.793 216.1 174.41 215.652C174.028 215.204 173.519 214.98 172.884 214.98C172.25 214.98 171.741 215.204 171.358 215.652C170.976 216.1 170.784 216.749 170.784 217.598C170.784 218.438 170.976 219.087 171.358 219.544C171.741 219.992 172.25 220.216 172.884 220.216ZM181.296 212.502V211.228H182.696V212.502H181.296ZM181.436 221V214.196H182.57V221H181.436ZM184.718 221V214.196H185.824V215.344C186.029 214.933 186.314 214.621 186.678 214.406C187.042 214.182 187.467 214.07 187.952 214.07C189.016 214.07 189.697 214.532 189.996 215.456C190.201 215.027 190.505 214.691 190.906 214.448C191.307 214.196 191.769 214.07 192.292 214.07C193.804 214.07 194.56 214.966 194.56 216.758V221H193.426V216.814C193.426 216.189 193.314 215.731 193.09 215.442C192.875 215.143 192.516 214.994 192.012 214.994C191.461 214.994 191.023 215.19 190.696 215.582C190.369 215.974 190.206 216.497 190.206 217.15V221H189.072V216.814C189.072 216.189 188.96 215.731 188.736 215.442C188.521 215.143 188.162 214.994 187.658 214.994C187.098 214.994 186.655 215.19 186.328 215.582C186.011 215.974 185.852 216.497 185.852 217.15V221H184.718ZM198.822 221.126C198.356 221.126 197.936 221.037 197.562 220.86C197.198 220.673 196.909 220.421 196.694 220.104C196.48 219.787 196.372 219.432 196.372 219.04C196.372 218.545 196.498 218.153 196.75 217.864C197.012 217.575 197.436 217.369 198.024 217.248C198.622 217.117 199.434 217.052 200.46 217.052H200.908V216.618C200.908 216.039 200.787 215.624 200.544 215.372C200.311 215.111 199.933 214.98 199.41 214.98C199 214.98 198.603 215.041 198.22 215.162C197.838 215.274 197.446 215.461 197.044 215.722L196.652 214.896C197.007 214.644 197.436 214.443 197.94 214.294C198.454 214.145 198.944 214.07 199.41 214.07C200.288 214.07 200.936 214.285 201.356 214.714C201.786 215.143 202 215.811 202 216.716V221H200.936V219.824C200.759 220.225 200.484 220.543 200.11 220.776C199.746 221.009 199.317 221.126 198.822 221.126ZM199.004 220.272C199.564 220.272 200.022 220.081 200.376 219.698C200.731 219.306 200.908 218.811 200.908 218.214V217.794H200.474C199.718 217.794 199.121 217.831 198.682 217.906C198.253 217.971 197.95 218.093 197.772 218.27C197.604 218.438 197.52 218.671 197.52 218.97C197.52 219.353 197.651 219.665 197.912 219.908C198.183 220.151 198.547 220.272 199.004 220.272ZM207.114 223.646C206.526 223.646 205.971 223.567 205.448 223.408C204.935 223.259 204.477 223.03 204.076 222.722L204.454 221.896C204.874 222.195 205.289 222.409 205.7 222.54C206.12 222.671 206.573 222.736 207.058 222.736C208.402 222.736 209.074 222.045 209.074 220.664V219.46C208.878 219.889 208.57 220.23 208.15 220.482C207.739 220.725 207.268 220.846 206.736 220.846C206.111 220.846 205.569 220.701 205.112 220.412C204.655 220.123 204.3 219.726 204.048 219.222C203.805 218.709 203.684 218.116 203.684 217.444C203.684 216.772 203.805 216.184 204.048 215.68C204.3 215.167 204.655 214.77 205.112 214.49C205.569 214.21 206.111 214.07 206.736 214.07C207.268 214.07 207.739 214.191 208.15 214.434C208.57 214.677 208.878 215.008 209.074 215.428V214.196H210.18V220.51C210.18 221.555 209.919 222.339 209.396 222.862C208.883 223.385 208.122 223.646 207.114 223.646ZM206.946 219.922C207.599 219.922 208.117 219.698 208.5 219.25C208.883 218.802 209.074 218.2 209.074 217.444C209.074 216.688 208.883 216.091 208.5 215.652C208.117 215.204 207.599 214.98 206.946 214.98C206.302 214.98 205.789 215.204 205.406 215.652C205.023 216.091 204.832 216.688 204.832 217.444C204.832 218.2 205.023 218.802 205.406 219.25C205.789 219.698 206.302 219.922 206.946 219.922ZM215.373 221.126C214.3 221.126 213.45 220.813 212.825 220.188C212.2 219.553 211.887 218.695 211.887 217.612C211.887 216.912 212.027 216.296 212.307 215.764C212.587 215.223 212.97 214.807 213.455 214.518C213.95 214.219 214.519 214.07 215.163 214.07C216.087 214.07 216.81 214.369 217.333 214.966C217.856 215.554 218.117 216.366 218.117 217.402V217.836H212.993C213.03 218.611 213.254 219.203 213.665 219.614C214.076 220.015 214.645 220.216 215.373 220.216C215.784 220.216 216.176 220.155 216.549 220.034C216.922 219.903 217.277 219.693 217.613 219.404L218.005 220.202C217.697 220.491 217.305 220.72 216.829 220.888C216.353 221.047 215.868 221.126 215.373 221.126ZM215.191 214.91C214.547 214.91 214.038 215.111 213.665 215.512C213.292 215.913 213.072 216.441 213.007 217.094H217.137C217.109 216.403 216.927 215.867 216.591 215.484C216.264 215.101 215.798 214.91 215.191 214.91Z" fill="#303032"/>
<g clip-path="url(#clip0_177_431)">
<path d="M202.191 83.5852H191.233V127.415H202.191V83.5852Z" fill="#303032"/>
<path d="M185.845 28.7239H180.361V39.6809H185.845C188.856 39.6809 191.318 42.1337 191.318 45.154V50.638H202.276V45.154C202.276 36.093 194.907 28.7239 185.845 28.7239Z" fill="#303032"/>
<path d="M147.415 28.8096H103.591V39.7666H147.415V28.8096Z" fill="#303032"/>
<path d="M48.7238 45.1547L48.8095 50.7244H59.7665L59.6808 45.1547C59.6808 42.1343 62.1336 39.6816 65.1594 39.6816H70.6324V28.7239H65.1594C56.0929 28.7239 48.7238 36.093 48.7238 45.1547Z" fill="#303032"/>
<path d="M59.7666 83.5852H48.8095V127.415H59.7666V83.5852Z" fill="#303032"/>
<path d="M59.6809 165.846V160.362H48.7238V165.846C48.7238 174.907 56.093 182.276 65.1601 182.276H70.6331V171.319H65.1601C62.1336 171.319 59.6809 168.856 59.6809 165.846Z" fill="#303032"/>
<path d="M147.415 171.234H103.591V182.191H147.415V171.234Z" fill="#303032"/>
<path d="M191.319 165.846C191.319 168.856 188.855 171.319 185.847 171.319H180.363V182.276H185.847C194.907 182.276 202.276 174.907 202.276 165.846V160.362H191.319V165.846Z" fill="#303032"/>
<path d="M136.543 61.5422H114.629L114.543 116.586H92.6336L125.5 149.447L158.372 116.586L136.532 116.639L136.543 61.5422Z" fill="#303032"/>
</g>
<rect x="2.5" y="2.5" width="245" height="245" stroke="#303032" stroke-width="5" stroke-linejoin="round" stroke-dasharray="10 10"/>
<defs>
<clipPath id="clip0_177_431">
<rect width="155" height="155" fill="white" transform="translate(48 28)"/>
</clipPath>
</defs>
</svg>
