<svg width="250" height="250" viewBox="0 0 250 250" fill="none" xmlns="http://www.w3.org/2000/svg">
<rect x="2.5" y="2.5" width="245" height="245" fill="#DCDBE1"/>
<path d="M49.1028 212V202.13H50.2508V206.498H56.1728V202.13H57.3208V212H56.1728V207.492H50.2508V212H49.1028ZM61.8112 212.126C61.3445 212.126 60.9245 212.037 60.5512 211.86C60.1872 211.673 59.8978 211.421 59.6832 211.104C59.4685 210.787 59.3612 210.432 59.3612 210.04C59.3612 209.545 59.4872 209.153 59.7392 208.864C60.0005 208.575 60.4252 208.369 61.0132 208.248C61.6105 208.117 62.4225 208.052 63.4492 208.052H63.8972V207.618C63.8972 207.039 63.7758 206.624 63.5332 206.372C63.2998 206.111 62.9218 205.98 62.3992 205.98C61.9885 205.98 61.5918 206.041 61.2092 206.162C60.8265 206.274 60.4345 206.461 60.0332 206.722L59.6412 205.896C59.9958 205.644 60.4252 205.443 60.9292 205.294C61.4425 205.145 61.9325 205.07 62.3992 205.07C63.2765 205.07 63.9252 205.285 64.3452 205.714C64.7745 206.143 64.9892 206.811 64.9892 207.716V212H63.9252V210.824C63.7478 211.225 63.4725 211.543 63.0992 211.776C62.7352 212.009 62.3058 212.126 61.8112 212.126ZM61.9932 211.272C62.5532 211.272 63.0105 211.081 63.3652 210.698C63.7198 210.306 63.8972 209.811 63.8972 209.214V208.794H63.4632C62.7072 208.794 62.1098 208.831 61.6712 208.906C61.2418 208.971 60.9385 209.093 60.7612 209.27C60.5932 209.438 60.5092 209.671 60.5092 209.97C60.5092 210.353 60.6398 210.665 60.9012 210.908C61.1718 211.151 61.5358 211.272 61.9932 211.272ZM66.096 212L67.496 209.648C67.7387 209.237 67.958 208.925 68.154 208.71C68.3594 208.495 68.588 208.341 68.84 208.248L66.446 205.196H67.692L69.932 208.038H71.01V205.196H72.144V208.038H73.236L75.462 205.196H76.708L74.314 208.248C74.566 208.341 74.79 208.495 74.986 208.71C75.1914 208.925 75.4154 209.237 75.658 209.648L77.058 212H75.84L74.608 209.942C74.3747 209.541 74.146 209.275 73.922 209.144C73.7074 209.013 73.4087 208.948 73.026 208.948H72.144V212H71.01V208.948H70.128C69.7454 208.948 69.4467 209.013 69.232 209.144C69.0174 209.275 68.7887 209.541 68.546 209.942L67.314 212H66.096ZM78.1942 212V205.196H79.1322L81.6942 209.746L84.2562 205.196H85.1802V212H84.1722V207.044L81.9742 210.908H81.4002L79.2022 207.044V212H78.1942ZM87.4227 212V205.196H88.4587V210.46L92.3927 205.196H93.3587V212H92.3227V206.736L88.3887 212H87.4227ZM98.4522 213.82V211.09H99.1662C99.4929 210.614 99.7262 210.068 99.8662 209.452C100.006 208.827 100.076 208.075 100.076 207.198V205.196H104.892V211.09H105.97V213.82H104.99V212H99.4182V213.82H98.4522ZM100.258 211.09H103.814V206.092H101.084V207.394C101.084 208.094 101.014 208.771 100.874 209.424C100.734 210.077 100.529 210.633 100.258 211.09ZM107.101 212.154L106.681 211.258C107.101 211.081 107.433 210.833 107.675 210.516C107.918 210.189 108.086 209.741 108.179 209.172C108.282 208.603 108.333 207.856 108.333 206.932V205.196H113.275V212H112.141V206.106H109.397V206.974C109.397 208.038 109.318 208.915 109.159 209.606C109.01 210.297 108.767 210.843 108.431 211.244C108.095 211.645 107.652 211.949 107.101 212.154ZM114.958 212L116.008 210.18C116.288 209.685 116.648 209.363 117.086 209.214C116.508 209.13 116.06 208.92 115.742 208.584C115.425 208.239 115.266 207.791 115.266 207.24C115.266 206.615 115.472 206.12 115.882 205.756C116.302 205.383 116.928 205.196 117.758 205.196H120.824V212H119.746V209.41H118.752C118.379 209.41 118.062 209.503 117.8 209.69C117.548 209.877 117.343 210.105 117.184 210.376L116.26 212H114.958ZM117.968 208.584H119.746V205.994H117.968C117.418 205.994 117.012 206.111 116.75 206.344C116.489 206.568 116.358 206.881 116.358 207.282C116.358 207.693 116.489 208.015 116.75 208.248C117.012 208.472 117.418 208.584 117.968 208.584ZM126.661 212V205.196H129.979C130.782 205.196 131.374 205.35 131.757 205.658C132.14 205.957 132.331 206.4 132.331 206.988C132.331 207.343 132.228 207.651 132.023 207.912C131.827 208.173 131.556 208.365 131.211 208.486C131.631 208.589 131.958 208.785 132.191 209.074C132.434 209.363 132.555 209.713 132.555 210.124C132.555 210.703 132.34 211.16 131.911 211.496C131.482 211.832 130.875 212 130.091 212H126.661ZM127.739 208.15H129.923C130.352 208.15 130.684 208.057 130.917 207.87C131.15 207.674 131.267 207.399 131.267 207.044C131.267 206.699 131.15 206.433 130.917 206.246C130.684 206.059 130.352 205.966 129.923 205.966H127.739V208.15ZM127.739 211.23H130.049C130.516 211.23 130.87 211.132 131.113 210.936C131.356 210.74 131.477 210.451 131.477 210.068C131.477 209.695 131.356 209.41 131.113 209.214C130.87 209.018 130.516 208.92 130.049 208.92H127.739V211.23ZM134.317 212V205.196H135.451V207.618H137.509C138.377 207.618 139.035 207.809 139.483 208.192C139.931 208.565 140.155 209.097 140.155 209.788C140.155 210.469 139.922 211.011 139.455 211.412C138.998 211.804 138.349 212 137.509 212H134.317ZM141.163 212V205.196H142.297V212H141.163ZM135.451 211.188H137.397C137.92 211.188 138.326 211.076 138.615 210.852C138.914 210.628 139.063 210.278 139.063 209.802C139.063 209.335 138.919 208.99 138.629 208.766C138.34 208.542 137.929 208.43 137.397 208.43H135.451V211.188ZM147.414 212.126C146.406 212.126 145.608 211.795 145.02 211.132C144.432 210.469 144.138 209.508 144.138 208.248V207.198C144.138 205.845 144.408 204.818 144.95 204.118C145.491 203.409 146.312 202.905 147.414 202.606L149.836 201.92L150.214 202.858L147.498 203.586C146.742 203.791 146.172 204.16 145.79 204.692C145.416 205.215 145.23 205.859 145.23 206.624V206.652C145.444 206.195 145.762 205.835 146.182 205.574C146.602 205.303 147.096 205.168 147.666 205.168C148.254 205.168 148.772 205.308 149.22 205.588C149.668 205.868 150.013 206.269 150.256 206.792C150.508 207.305 150.634 207.912 150.634 208.612C150.634 209.321 150.498 209.942 150.228 210.474C149.966 210.997 149.593 211.403 149.108 211.692C148.632 211.981 148.067 212.126 147.414 212.126ZM147.372 211.216C148.034 211.216 148.552 210.997 148.926 210.558C149.299 210.11 149.486 209.471 149.486 208.64C149.486 207.828 149.299 207.198 148.926 206.75C148.552 206.302 148.039 206.078 147.386 206.078C146.732 206.078 146.219 206.297 145.846 206.736C145.472 207.175 145.286 207.777 145.286 208.542C145.286 209.419 145.468 210.087 145.832 210.544C146.196 210.992 146.709 211.216 147.372 211.216ZM155.316 212.126C154.653 212.126 154.079 211.981 153.594 211.692C153.108 211.403 152.73 210.997 152.46 210.474C152.198 209.942 152.068 209.317 152.068 208.598C152.068 207.879 152.198 207.259 152.46 206.736C152.73 206.204 153.108 205.793 153.594 205.504C154.079 205.215 154.653 205.07 155.316 205.07C155.969 205.07 156.538 205.215 157.024 205.504C157.518 205.793 157.896 206.204 158.158 206.736C158.428 207.259 158.564 207.879 158.564 208.598C158.564 209.317 158.428 209.942 158.158 210.474C157.896 210.997 157.518 211.403 157.024 211.692C156.538 211.981 155.969 212.126 155.316 212.126ZM155.316 211.216C155.95 211.216 156.459 210.992 156.842 210.544C157.224 210.087 157.416 209.438 157.416 208.598C157.416 207.749 157.224 207.1 156.842 206.652C156.459 206.204 155.95 205.98 155.316 205.98C154.672 205.98 154.158 206.204 153.776 206.652C153.402 207.1 153.216 207.749 153.216 208.598C153.216 209.438 153.402 210.087 153.776 210.544C154.158 210.992 154.672 211.216 155.316 211.216ZM160.417 214.52V205.196H161.523V206.414C161.729 205.994 162.032 205.667 162.433 205.434C162.844 205.191 163.32 205.07 163.861 205.07C164.468 205.07 164.995 205.215 165.443 205.504C165.901 205.784 166.251 206.19 166.493 206.722C166.745 207.245 166.871 207.87 166.871 208.598C166.871 209.317 166.745 209.942 166.493 210.474C166.251 210.997 165.901 211.403 165.443 211.692C164.995 211.981 164.468 212.126 163.861 212.126C163.339 212.126 162.872 212.009 162.461 211.776C162.051 211.543 161.747 211.221 161.551 210.81V214.52H160.417ZM163.623 211.216C164.258 211.216 164.767 210.992 165.149 210.544C165.532 210.087 165.723 209.438 165.723 208.598C165.723 207.749 165.532 207.1 165.149 206.652C164.767 206.204 164.258 205.98 163.623 205.98C162.989 205.98 162.48 206.204 162.097 206.652C161.715 207.1 161.523 207.749 161.523 208.598C161.523 209.438 161.715 210.087 162.097 210.544C162.48 210.992 162.989 211.216 163.623 211.216ZM170.858 212.126C170.391 212.126 169.971 212.037 169.598 211.86C169.234 211.673 168.945 211.421 168.73 211.104C168.515 210.787 168.408 210.432 168.408 210.04C168.408 209.545 168.534 209.153 168.786 208.864C169.047 208.575 169.472 208.369 170.06 208.248C170.657 208.117 171.469 208.052 172.496 208.052H172.944V207.618C172.944 207.039 172.823 206.624 172.58 206.372C172.347 206.111 171.969 205.98 171.446 205.98C171.035 205.98 170.639 206.041 170.256 206.162C169.873 206.274 169.481 206.461 169.08 206.722L168.688 205.896C169.043 205.644 169.472 205.443 169.976 205.294C170.489 205.145 170.979 205.07 171.446 205.07C172.323 205.07 172.972 205.285 173.392 205.714C173.821 206.143 174.036 206.811 174.036 207.716V212H172.972V210.824C172.795 211.225 172.519 211.543 172.146 211.776C171.782 212.009 171.353 212.126 170.858 212.126ZM171.04 211.272C171.6 211.272 172.057 211.081 172.412 210.698C172.767 210.306 172.944 209.811 172.944 209.214V208.794H172.51C171.754 208.794 171.157 208.831 170.718 208.906C170.289 208.971 169.985 209.093 169.808 209.27C169.64 209.438 169.556 209.671 169.556 209.97C169.556 210.353 169.687 210.665 169.948 210.908C170.219 211.151 170.583 211.272 171.04 211.272ZM179.845 212V205.196H180.881V210.46L184.815 205.196H185.781V212H184.745V206.736L180.811 212H179.845ZM187.642 212.154L187.222 211.258C187.642 211.081 187.974 210.833 188.216 210.516C188.459 210.189 188.627 209.741 188.72 209.172C188.823 208.603 188.874 207.856 188.874 206.932V205.196H193.816V212H192.682V206.106H189.938V206.974C189.938 208.038 189.859 208.915 189.7 209.606C189.551 210.297 189.308 210.843 188.972 211.244C188.636 211.645 188.193 211.949 187.642 212.154ZM196.059 212V205.196H197.095V210.46L201.029 205.196H201.995V212H200.959V206.736L197.025 212H196.059ZM43.5839 231V224.196H49.5199V231H48.3859V225.106H44.7179V231H43.5839ZM54.8396 231.126C53.7663 231.126 52.917 230.813 52.2916 230.188C51.6663 229.553 51.3536 228.695 51.3536 227.612C51.3536 226.912 51.4936 226.296 51.7736 225.764C52.0536 225.223 52.4363 224.807 52.9216 224.518C53.4163 224.219 53.9856 224.07 54.6296 224.07C55.5536 224.07 56.277 224.369 56.7996 224.966C57.3223 225.554 57.5836 226.366 57.5836 227.402V227.836H52.4596C52.497 228.611 52.721 229.203 53.1316 229.614C53.5423 230.015 54.1116 230.216 54.8396 230.216C55.2503 230.216 55.6423 230.155 56.0156 230.034C56.389 229.903 56.7436 229.693 57.0796 229.404L57.4716 230.202C57.1636 230.491 56.7716 230.72 56.2956 230.888C55.8196 231.047 55.3343 231.126 54.8396 231.126ZM54.6576 224.91C54.0136 224.91 53.505 225.111 53.1316 225.512C52.7583 225.913 52.539 226.441 52.4736 227.094H56.6036C56.5756 226.403 56.3936 225.867 56.0576 225.484C55.731 225.101 55.2643 224.91 54.6576 224.91ZM59.3615 233.52V224.196H60.4675V225.414C60.6729 224.994 60.9762 224.667 61.3775 224.434C61.7882 224.191 62.2642 224.07 62.8055 224.07C63.4122 224.07 63.9395 224.215 64.3875 224.504C64.8449 224.784 65.1949 225.19 65.4375 225.722C65.6895 226.245 65.8155 226.87 65.8155 227.598C65.8155 228.317 65.6895 228.942 65.4375 229.474C65.1949 229.997 64.8449 230.403 64.3875 230.692C63.9395 230.981 63.4122 231.126 62.8055 231.126C62.2829 231.126 61.8162 231.009 61.4055 230.776C60.9949 230.543 60.6915 230.221 60.4955 229.81V233.52H59.3615ZM62.5675 230.216C63.2022 230.216 63.7109 229.992 64.0935 229.544C64.4762 229.087 64.6675 228.438 64.6675 227.598C64.6675 226.749 64.4762 226.1 64.0935 225.652C63.7109 225.204 63.2022 224.98 62.5675 224.98C61.9329 224.98 61.4242 225.204 61.0415 225.652C60.6589 226.1 60.4675 226.749 60.4675 227.598C60.4675 228.438 60.6589 229.087 61.0415 229.544C61.4242 229.992 61.9329 230.216 62.5675 230.216ZM70.7264 231.126C69.653 231.126 68.8037 230.813 68.1784 230.188C67.553 229.553 67.2404 228.695 67.2404 227.612C67.2404 226.912 67.3804 226.296 67.6604 225.764C67.9404 225.223 68.323 224.807 68.8084 224.518C69.303 224.219 69.8724 224.07 70.5164 224.07C71.4404 224.07 72.1637 224.369 72.6864 224.966C73.209 225.554 73.4704 226.366 73.4704 227.402V227.836H68.3464C68.3837 228.611 68.6077 229.203 69.0184 229.614C69.429 230.015 69.9984 230.216 70.7264 230.216C71.137 230.216 71.529 230.155 71.9024 230.034C72.2757 229.903 72.6304 229.693 72.9664 229.404L73.3584 230.202C73.0504 230.491 72.6584 230.72 72.1824 230.888C71.7064 231.047 71.221 231.126 70.7264 231.126ZM70.5444 224.91C69.9004 224.91 69.3917 225.111 69.0184 225.512C68.645 225.913 68.4257 226.441 68.3604 227.094H72.4904C72.4624 226.403 72.2804 225.867 71.9444 225.484C71.6177 225.101 71.151 224.91 70.5444 224.91ZM76.6483 231V225.106H74.1843V224.196H80.2603V225.106H77.7823V231H76.6483ZM83.611 231.126C83.1443 231.126 82.7243 231.037 82.351 230.86C81.987 230.673 81.6976 230.421 81.483 230.104C81.2683 229.787 81.161 229.432 81.161 229.04C81.161 228.545 81.287 228.153 81.539 227.864C81.8003 227.575 82.225 227.369 82.813 227.248C83.4103 227.117 84.2223 227.052 85.249 227.052H85.697V226.618C85.697 226.039 85.5756 225.624 85.333 225.372C85.0996 225.111 84.7216 224.98 84.199 224.98C83.7883 224.98 83.3916 225.041 83.009 225.162C82.6263 225.274 82.2343 225.461 81.833 225.722L81.441 224.896C81.7956 224.644 82.225 224.443 82.729 224.294C83.2423 224.145 83.7323 224.07 84.199 224.07C85.0763 224.07 85.725 224.285 86.145 224.714C86.5743 225.143 86.789 225.811 86.789 226.716V231H85.725V229.824C85.5476 230.225 85.2723 230.543 84.899 230.776C84.535 231.009 84.1056 231.126 83.611 231.126ZM83.793 230.272C84.353 230.272 84.8103 230.081 85.165 229.698C85.5196 229.306 85.697 228.811 85.697 228.214V227.794H85.263C84.507 227.794 83.9096 227.831 83.471 227.906C83.0416 227.971 82.7383 228.093 82.561 228.27C82.393 228.438 82.309 228.671 82.309 228.97C82.309 229.353 82.4396 229.665 82.701 229.908C82.9716 230.151 83.3356 230.272 83.793 230.272ZM98.0458 232.82V231H89.0018V224.196H90.0938V230.09H92.9358V224.196H94.0138V230.09H96.8558V224.196H97.9478V230.09H99.0258V232.82H98.0458ZM100.541 231V224.196H101.577V229.46L105.511 224.196H106.477V231H105.441V225.736L101.507 231H100.541ZM112.312 231V224.196H113.446V227.038H114.72L116.946 224.196H118.192L115.826 227.262C116.069 227.355 116.288 227.509 116.484 227.724C116.68 227.939 116.9 228.247 117.142 228.648L118.542 231H117.324L116.092 228.942C115.859 228.541 115.635 228.275 115.42 228.144C115.206 228.013 114.902 227.948 114.51 227.948H113.446V231H112.312ZM121.838 231.126C121.371 231.126 120.951 231.037 120.578 230.86C120.214 230.673 119.924 230.421 119.71 230.104C119.495 229.787 119.388 229.432 119.388 229.04C119.388 228.545 119.514 228.153 119.766 227.864C120.027 227.575 120.452 227.369 121.04 227.248C121.637 227.117 122.449 227.052 123.476 227.052H123.924V226.618C123.924 226.039 123.802 225.624 123.56 225.372C123.326 225.111 122.948 224.98 122.426 224.98C122.015 224.98 121.618 225.041 121.236 225.162C120.853 225.274 120.461 225.461 120.06 225.722L119.668 224.896C120.022 224.644 120.452 224.443 120.956 224.294C121.469 224.145 121.959 224.07 122.426 224.07C123.303 224.07 123.952 224.285 124.372 224.714C124.801 225.143 125.016 225.811 125.016 226.716V231H123.952V229.824C123.774 230.225 123.499 230.543 123.126 230.776C122.762 231.009 122.332 231.126 121.838 231.126ZM122.02 230.272C122.58 230.272 123.037 230.081 123.392 229.698C123.746 229.306 123.924 228.811 123.924 228.214V227.794H123.49C122.734 227.794 122.136 227.831 121.698 227.906C121.268 227.971 120.965 228.093 120.788 228.27C120.62 228.438 120.536 228.671 120.536 228.97C120.536 229.353 120.666 229.665 120.928 229.908C121.198 230.151 121.562 230.272 122.02 230.272ZM127.242 233.52V224.196H128.348V225.414C128.554 224.994 128.857 224.667 129.258 224.434C129.669 224.191 130.145 224.07 130.686 224.07C131.293 224.07 131.82 224.215 132.268 224.504C132.726 224.784 133.076 225.19 133.318 225.722C133.57 226.245 133.696 226.87 133.696 227.598C133.696 228.317 133.57 228.942 133.318 229.474C133.076 229.997 132.726 230.403 132.268 230.692C131.82 230.981 131.293 231.126 130.686 231.126C130.164 231.126 129.697 231.009 129.286 230.776C128.876 230.543 128.572 230.221 128.376 229.81V233.52H127.242ZM130.448 230.216C131.083 230.216 131.592 229.992 131.974 229.544C132.357 229.087 132.548 228.438 132.548 227.598C132.548 226.749 132.357 226.1 131.974 225.652C131.592 225.204 131.083 224.98 130.448 224.98C129.814 224.98 129.305 225.204 128.922 225.652C128.54 226.1 128.348 226.749 128.348 227.598C128.348 228.438 128.54 229.087 128.922 229.544C129.305 229.992 129.814 230.216 130.448 230.216ZM136.941 231V225.106H134.477V224.196H140.553V225.106H138.075V231H136.941ZM141.748 231V224.196H142.784V229.46L146.718 224.196H147.684V231H146.648V225.736L142.714 231H141.748ZM149.924 231V224.196H151.058V227.024H154.768V224.196H155.902V231H154.768V227.948H151.058V231H149.924ZM158.141 231V224.196H159.275V227.038H160.549L162.775 224.196H164.021L161.655 227.262C161.897 227.355 162.117 227.509 162.313 227.724C162.509 227.939 162.728 228.247 162.971 228.648L164.371 231H163.153L161.921 228.942C161.687 228.541 161.463 228.275 161.249 228.144C161.034 228.013 160.731 227.948 160.339 227.948H159.275V231H158.141ZM166.308 233.52L167.47 230.888L164.6 224.196H165.832L168.086 229.712L170.354 224.196H171.544L167.498 233.52H166.308ZM179.345 231.126C178.664 231.126 178.076 230.981 177.581 230.692C177.086 230.393 176.704 229.978 176.433 229.446C176.172 228.905 176.041 228.275 176.041 227.556C176.041 226.473 176.335 225.624 176.923 225.008C177.511 224.383 178.318 224.07 179.345 224.07C179.765 224.07 180.18 224.145 180.591 224.294C181.002 224.443 181.342 224.653 181.613 224.924L181.221 225.75C180.95 225.489 180.652 225.297 180.325 225.176C180.008 225.055 179.704 224.994 179.415 224.994C178.706 224.994 178.16 225.218 177.777 225.666C177.394 226.105 177.203 226.739 177.203 227.57C177.203 228.382 177.394 229.026 177.777 229.502C178.16 229.969 178.706 230.202 179.415 230.202C179.704 230.202 180.008 230.141 180.325 230.02C180.652 229.899 180.95 229.703 181.221 229.432L181.613 230.258C181.342 230.529 180.997 230.743 180.577 230.902C180.166 231.051 179.756 231.126 179.345 231.126ZM188.748 231.126C187.815 231.126 187.064 230.841 186.494 230.272C185.925 229.693 185.603 228.919 185.528 227.948H184.17V231H183.064V224.196H184.17V227.024H185.542C185.654 226.109 185.99 225.391 186.55 224.868C187.12 224.336 187.852 224.07 188.748 224.07C189.411 224.07 189.985 224.215 190.47 224.504C190.956 224.793 191.329 225.204 191.59 225.736C191.861 226.259 191.996 226.879 191.996 227.598C191.996 228.317 191.861 228.942 191.59 229.474C191.329 229.997 190.956 230.403 190.47 230.692C189.985 230.981 189.411 231.126 188.748 231.126ZM188.748 230.216C189.392 230.216 189.901 229.992 190.274 229.544C190.657 229.087 190.848 228.438 190.848 227.598C190.848 226.749 190.657 226.1 190.274 225.652C189.901 225.204 189.392 224.98 188.748 224.98C188.114 224.98 187.605 225.204 187.222 225.652C186.84 226.1 186.648 226.749 186.648 227.598C186.648 228.438 186.84 229.087 187.222 229.544C187.605 229.992 188.114 230.216 188.748 230.216ZM193.082 232.82V230.09H193.796C194.123 229.614 194.356 229.068 194.496 228.452C194.636 227.827 194.706 227.075 194.706 226.198V224.196H199.522V230.09H200.6V232.82H199.62V231H194.048V232.82H193.082ZM194.888 230.09H198.444V225.092H195.714V226.394C195.714 227.094 195.644 227.771 195.504 228.424C195.364 229.077 195.159 229.633 194.888 230.09ZM204.265 231.126C203.799 231.126 203.379 231.037 203.005 230.86C202.641 230.673 202.352 230.421 202.137 230.104C201.923 229.787 201.815 229.432 201.815 229.04C201.815 228.545 201.941 228.153 202.193 227.864C202.455 227.575 202.879 227.369 203.467 227.248C204.065 227.117 204.877 227.052 205.903 227.052H206.351V226.618C206.351 226.039 206.23 225.624 205.987 225.372C205.754 225.111 205.376 224.98 204.853 224.98C204.443 224.98 204.046 225.041 203.663 225.162C203.281 225.274 202.889 225.461 202.487 225.722L202.095 224.896C202.45 224.644 202.879 224.443 203.383 224.294C203.897 224.145 204.387 224.07 204.853 224.07C205.731 224.07 206.379 224.285 206.799 224.714C207.229 225.143 207.443 225.811 207.443 226.716V231H206.379V229.824C206.202 230.225 205.927 230.543 205.553 230.776C205.189 231.009 204.76 231.126 204.265 231.126ZM204.447 230.272C205.007 230.272 205.465 230.081 205.819 229.698C206.174 229.306 206.351 228.811 206.351 228.214V227.794H205.917C205.161 227.794 204.564 227.831 204.125 227.906C203.696 227.971 203.393 228.093 203.215 228.27C203.047 228.438 202.963 228.671 202.963 228.97C202.963 229.353 203.094 229.665 203.355 229.908C203.626 230.151 203.99 230.272 204.447 230.272Z" fill="#303032"/>
<g clip-path="url(#clip0_177_417)">
<path d="M202.191 83.5852H191.233V127.415H202.191V83.5852Z" fill="#303032"/>
<path d="M185.845 28.7239H180.361V39.6809H185.845C188.855 39.6809 191.318 42.1337 191.318 45.154V50.638H202.276V45.154C202.276 36.093 194.907 28.7239 185.845 28.7239Z" fill="#303032"/>
<path d="M147.415 28.8096H103.591V39.7666H147.415V28.8096Z" fill="#303032"/>
<path d="M48.7238 45.1547L48.8095 50.7244H59.7665L59.6808 45.1547C59.6808 42.1343 62.1336 39.6816 65.1594 39.6816H70.6324V28.7239H65.1594C56.0929 28.7239 48.7238 36.093 48.7238 45.1547Z" fill="#303032"/>
<path d="M59.7665 83.5852H48.8095V127.415H59.7665V83.5852Z" fill="#303032"/>
<path d="M59.6809 165.846V160.362H48.7238V165.846C48.7238 174.907 56.093 182.276 65.1601 182.276H70.6331V171.319H65.1601C62.1336 171.319 59.6809 168.856 59.6809 165.846Z" fill="#303032"/>
<path d="M147.415 171.234H103.591V182.191H147.415V171.234Z" fill="#303032"/>
<path d="M191.319 165.846C191.319 168.856 188.855 171.319 185.847 171.319H180.363V182.276H185.847C194.907 182.276 202.276 174.907 202.276 165.846V160.362H191.319V165.846Z" fill="#303032"/>
<path d="M136.543 61.5422H114.629L114.543 116.586H92.6336L125.5 149.447L158.372 116.586L136.532 116.639L136.543 61.5422Z" fill="#303032"/>
</g>
<rect x="2.5" y="2.5" width="245" height="245" stroke="#303032" stroke-width="5" stroke-linejoin="round" stroke-dasharray="10 10"/>
<defs>
<clipPath id="clip0_177_417">
<rect width="155" height="155" fill="white" transform="translate(48 28)"/>
</clipPath>
</defs>
</svg>
