<?xml version="1.0" standalone="no"?><!DOCTYPE svg PUBLIC "-//W3C//DTD SVG 1.1//EN" "http://www.w3.org/Graphics/SVG/1.1/DTD/svg11.dtd"><svg t="1583683284189" class="icon" viewBox="0 0 1024 1024" version="1.1" xmlns="http://www.w3.org/2000/svg" p-id="2169" xmlns:xlink="http://www.w3.org/1999/xlink" width="200" height="200"><defs><style type="text/css"></style></defs><path d="M158.192691 292.571429c0 37.421927 85.049834 85.049834 139.481728 108.863787 6.803987 27.215947 30.61794 108.863787 71.44186 139.481728 10.20598 6.803987 17.009967 13.607973 23.813954 20.41196 30.61794 23.813953 61.23588 51.0299 119.069767 51.0299 51.0299 0 88.451827-27.215947 125.873754-54.431894 6.803987-6.803987 13.607973-10.20598 20.41196-17.009966 40.82392-30.61794 61.23588-108.863787 64.637874-136.079735 54.431894-23.813953 136.079734-61.23588 136.079734-102.0598 0-10.20598 30.61794-40.82392 47.627907-57.833887 40.82392-44.225914 64.637874-68.039867 54.431894-91.853821 0-6.803987-6.803987-17.009967-27.215947-17.009967-37.421927 0-88.451827 20.41196-125.873754 37.421927-13.607973 6.803987-34.019934 13.607973-44.225914 17.009967-6.803987-34.019934-47.627907-88.451827-78.245847-105.461794-17.009967-34.019934-81.647841-85.049834-119.069767-85.049834-23.813953 0-44.225914 6.803987-54.431894 13.607973-10.20598-6.803987-34.019934-13.607973-61.23588-13.607973-37.421927 0-105.461794 51.0299-119.069768 88.451827-30.61794 13.607973-61.23588 68.039867-68.039867 102.059801-10.20598-3.401993-27.215947-10.20598-40.82392-13.607974C182.006645 156.491694 130.976744 132.677741 90.152824 136.079734c-20.41196 3.401993-27.215947 10.20598-30.61794 20.41196-6.803987 20.41196 13.607973 44.225914 54.431893 81.647841 13.607973 17.009967 44.225914 47.627907 44.225914 54.431894z m255.149502 47.627907h-34.019934c-10.20598 0-17.009967-6.803987-17.009967-17.009967s6.803987-17.009967 17.009967-17.009967h34.019934c10.20598 0 17.009967 6.803987 17.009966 17.009967s-6.803987 17.009967-17.009966 17.009967z m231.335548 0h-34.019934c-10.20598 0-17.009967-6.803987-17.009966-17.009967s6.803987-17.009967 17.009966-17.009967h34.019934c10.20598 0 17.009967 6.803987 17.009967 17.009967s-6.803987 17.009967-17.009967 17.009967z m-17.009967-159.893688l17.009967-51.0299c3.401993-10.20598 13.607973-13.607973 20.41196-10.205981 10.20598 3.401993 13.607973 13.607973 10.20598 20.411961l-17.009967 51.0299c0 10.20598-6.803987 13.607973-13.607973 13.607973h-6.803987c-6.803987-3.401993-13.607973-13.607973-10.20598-23.813953z m-64.637874 61.23588c64.637874-64.637874 129.275748 3.401993 159.893688 34.019934 6.803987 6.803987 6.803987 17.009967 0 23.813953 0 6.803987-6.803987 6.803987-10.20598 6.803987s-10.20598 0-13.607973-3.401993c-54.431894-54.431894-81.647841-64.637874-112.265781-34.019934-6.803987 6.803987-17.009967 6.803987-23.813954 0s-6.803987-20.41196 0-27.215947z m-64.637873-156.491694c0-10.20598 6.803987-17.009967 17.009966-17.009967s17.009967 6.803987 17.009967 17.009967v136.079734c0 10.20598-6.803987 17.009967-17.009967 17.009967s-17.009967-6.803987-17.009966-17.009967v-136.079734z m-139.481728 17.009967c10.20598-3.401993 17.009967 3.401993 20.41196 13.607973l17.009967 68.039867c3.401993 10.20598-3.401993 17.009967-13.607974 20.41196h-3.401993c-6.803987 0-13.607973-6.803987-17.009967-13.607973l-17.009966-68.039867c0-6.803987 3.401993-17.009967 13.607973-20.41196zM301.076412 275.561462c30.61794-30.61794 98.657807-98.657807 159.893688-34.019934 6.803987 6.803987 6.803987 17.009967 0 23.813954s-17.009967 6.803987-23.813954 0c-30.61794-30.61794-57.833887-20.41196-112.265781 34.019933-3.401993 6.803987-10.20598 6.803987-13.607973 6.803987s-10.20598 0-13.607973-3.401993c-3.401993-6.803987-3.401993-20.41196 3.401993-27.215947zM440.55814 898.126246c-61.23588-85.049834-163.295681-217.727575-200.717608-238.139535l-40.823921-20.41196c-6.803987-3.401993-13.607973-3.401993-20.41196 0l-57.833887 44.225913-6.803987 6.803987-95.255814 306.179402c0 6.803987 0 10.20598 3.401994 13.607974 6.803987 6.803987 10.20598 10.20598 17.009967 10.20598h248.345515c-20.41196-47.627907-68.039867-163.295681-91.853821-214.325582-3.401993-6.803987 0-17.009967 6.803987-23.813953 6.803987-3.401993 17.009967 0 23.813953 6.803986C253.448505 850.498339 307.880399 983.17608 321.488372 1020.598007h142.883721v-105.461794c-10.20598-3.401993-17.009967-10.20598-23.813953-17.009967zM1001.887043 996.784053l-102.0598-306.179402c0-3.401993-3.401993-6.803987-6.803987-6.803987l-57.833887-44.225913c-6.803987-3.401993-13.607973-3.401993-20.41196 0l-40.823921 20.41196c-37.421927 17.009967-173.501661 156.491694-255.149501 241.541528-6.803987 6.803987-13.607973 10.20598-20.41196 13.607974V1020.598007h200.717608c10.20598-40.82392 37.421927-170.099668 68.039867-227.933555 3.401993-10.20598 13.607973-13.607973 23.813953-6.803987 6.803987 3.401993 13.607973 13.607973 6.803987 23.813954-23.813953 51.0299-51.0299 166.697674-61.235881 214.325581H988.27907c6.803987 0 10.20598-3.401993 13.607973-6.803987v-20.41196z" fill="#2c2c2c" p-id="2170"></path><path d="M760.345515 629.368771c71.44186-30.61794 105.461794-64.637874 102.059801-102.059801 0-34.019934-34.019934-68.039867-91.853821-88.451827h-13.607973l-10.20598 10.20598c-10.20598 40.82392-34.019934 91.853821-71.441861 119.069767-6.803987 3.401993-13.607973 10.20598-20.41196 13.607974-30.61794 30.61794-74.843854 64.637874-139.481728 64.637874-71.44186 0-108.863787-30.61794-142.883721-57.833888-6.803987-6.803987-13.607973-13.607973-23.813953-17.009966-37.421927-27.215947-61.23588-81.647841-74.843854-122.471761 0-3.401993-3.401993-6.803987-10.20598-10.20598-3.401993-3.401993-10.20598-3.401993-13.607973 0-44.225914 17.009967-91.853821 51.0299-95.255814 95.255814 0 37.421927 30.61794 68.039867 95.255814 95.255814 40.82392 17.009967 149.687708 159.893688 214.325581 248.345515 3.401993 3.401993 6.803987 6.803987 13.607973 6.803986 3.401993 0 10.20598-3.401993 13.607974-6.803986 61.23588-61.23588 224.531561-227.933555 268.757475-248.345515z" fill="#2c2c2c" p-id="2171"></path></svg>