<?xml version="1.0" encoding="utf-8"?>
<!-- Generator: Adobe Illustrator 26.0.3, SVG Export Plug-In . SVG Version: 6.00 Build 0)  -->
<!DOCTYPE svg PUBLIC "-//W3C//DTD SVG 1.1//EN" "http://www.w3.org/Graphics/SVG/1.1/DTD/svg11.dtd" [
	<!ENTITY ns_extend "http://ns.adobe.com/Extensibility/1.0/">
	<!ENTITY ns_ai "http://ns.adobe.com/AdobeIllustrator/10.0/">
	<!ENTITY ns_graphs "http://ns.adobe.com/Graphs/1.0/">
	<!ENTITY ns_vars "http://ns.adobe.com/Variables/1.0/">
	<!ENTITY ns_imrep "http://ns.adobe.com/ImageReplacement/1.0/">
	<!ENTITY ns_sfw "http://ns.adobe.com/SaveForWeb/1.0/">
	<!ENTITY ns_custom "http://ns.adobe.com/GenericCustomNamespace/1.0/">
	<!ENTITY ns_adobe_xpath "http://ns.adobe.com/XPath/1.0/">
]>
<svg version="1.1" id="Слой_1" xmlns:x="&ns_extend;" xmlns:i="&ns_ai;" xmlns:graph="&ns_graphs;"
	 xmlns="http://www.w3.org/2000/svg" xmlns:xlink="http://www.w3.org/1999/xlink" x="0px" y="0px" width="589.8px" height="625.1px"
	 viewBox="0 0 589.8 625.1" style="enable-background:new 0 0 589.8 625.1;" xml:space="preserve">
<style type="text/css">
	.st0{fill:#FFFFFF;}
	.st1{fill:#F2E6D2;}
	.st2{fill:#4D4342;}
	.st3{clip-path:url(#SVGID_00000062166942025018458500000008157183796353990843_);}
	.st4{fill:#B6B1AE;}
	.st5{fill:#251707;}
	.st6{opacity:0.23;fill:#3F2719;}
	.st7{fill:none;stroke:#9D7B51;stroke-width:4.1072;stroke-linecap:round;stroke-linejoin:round;stroke-miterlimit:10;}
	.st8{fill:none;stroke:#2D1F04;stroke-width:2.7806;stroke-linecap:round;stroke-linejoin:round;stroke-miterlimit:10;}
	.st9{fill:#BCAEAD;}
	.st10{fill:none;stroke:#251707;stroke-width:2.7806;stroke-linecap:round;stroke-linejoin:round;stroke-miterlimit:10;}
	.st11{fill:none;stroke:#2D1F04;stroke-width:8.0658;stroke-linecap:round;stroke-linejoin:round;stroke-miterlimit:10;}
	.st12{fill:#D3E5EA;}
	.st13{fill:#2D1F04;}
	.st14{fill:none;stroke:#2D1F04;stroke-width:2.62;stroke-linecap:round;stroke-linejoin:round;stroke-miterlimit:10;}
	.st15{opacity:0.1;fill:#3F2719;}
	.st16{fill:#BCA488;}
	.st17{opacity:0.15;fill:#3F2719;}
	.st18{fill:none;stroke:#2D1F04;stroke-width:3.5;stroke-linecap:round;stroke-linejoin:round;stroke-miterlimit:10;}
</style>
<metadata>
	<sfw  xmlns="&ns_sfw;">
		<slices></slices>
		<sliceSourceBounds  bottomLeftOrigin="true" height="625.1" width="589.8" x="581.2" y="-558"></sliceSourceBounds>
	</sfw>
</metadata>
<path class="st0" d="M93.1,625.1c-10.6,0-20.9-4.8-28.3-13.2c-16-18.3-36.2-44.2-41.6-63.7c-1.5-5.6,1.2-11.4,6.5-13.8
	c1.5-0.7,3.2-1.1,4.9-1.1c4,0,7.6,2,9.8,5.3c0,0,2.9,4.2,8,9.4c2.4-6.8,3.7-15.5,5.3-25.7c0.8-5.2,1.6-10.5,2.6-16.1
	c4.4-65.8,17-283.4,0-366.3c-1.3-5.2-2.6-11.1-3.9-17.4c-2.3-10.6-4.7-22.4-8.1-33.3c-0.8,0-1.5,0.1-2.2,0.1c-1.9,0-3.9-0.1-5.7-0.4
	c-23.9-3.4-31.6-6.4-33.8-7.5c-2.9-1.5-5.1-4.2-6-7.4c-0.9-3.2-0.3-6.6,1.5-9.4c1.8-2.7,11.1-17,21.5-31C42.8,7.8,51.2,2.7,57,1
	c2.2-0.6,5.6-1,15.2-1c27.1,0,92.1,3.3,181,7.9c57.1,3,111,5.7,141.5,6.7c4.2,0.1,8.5,0.2,12.7,0.2c23.9,0,43.6-2.1,59.4-3.7
	c11.9-1.3,22.1-2.3,31.7-2.3c12.5,0,28.9,1.7,44.2,14.5c30.7,25.8,45.3,86,46.8,92.8c1.1,4.7-0.9,9.7-4.9,12.4c-1.9,1.3-4.2,2-6.5,2
	c-2.5,0-4.8-0.8-6.8-2.2c-3.4-2.4-11.3-8-22.1-15.3c-22.3,52.8-32.5,153.3-32.7,154.4l-0.2,1.8c-0.3,2.7-1.5,5.2-3.3,7.1l-1.2,1.3
	c-3.2,3.2-6,6.2-8.4,8.8c2.3,0.2,4.5,1.1,6.3,2.5c3.2,2.5,4.9,6.6,4.4,10.6l-1,8.2c-6.5,53.2,0.7,203.6,3.4,255.4
	c2.4,0.1,4.7,0.9,6.6,2.4c3.3,2.5,5.1,6.7,4.5,10.9c0,0.2-0.1,0.8-0.3,1.6c2.9-0.4,6-1,9.5-1.8c0.8-0.2,1.7-0.3,2.5-0.3
	c4.4,0,8.3,2.4,10.4,6.3c2.5,4.7,1.5,10.4-2.3,14.1c-8.4,7.9-29.9,26.4-46.8,26.4c-4.3,0-8.1-1.1-11.4-3.3
	c-11.2-6.4-122.7-30.5-162.3-30.5c-1,0-1.9,0-2.8,0.1c-85.2,3.5-178.6,25.1-218.5,34.3l-4.8,1.1C98.3,624.8,95.7,625.1,93.1,625.1z"
	/>
<g>
	<path class="st1" d="M47.5,51.9c0.1-4.3,0.2-8.7,0.3-13l438.9-10.8l55.6,60.1c-30.3,48.1-43.2,177.5-43.2,177.5
		c-60.9,61.4-3.5,39.9-3.5,39.9c-8.2,67.4,4.4,278.2,4.4,278.2l-14.5,11.6L359,563.4l-24.7,3l-184.9,13.1l-77.5,8.7l-13.1-19.5
		c12.6-14,12.7-35.4,17.4-60.5c2.9-43.1,18.1-283-0.3-372.1C70,113.3,65,72.4,47.5,51.9z"/>
	<g>
		<g>
			<path class="st2" d="M142.4,137.3c-2.8-0.2-4.1-2.9-3.7-7.9l1.4-10l2-1.1l-2.8-9.5c-0.8-2.7-2.7-4.4-5.7-5.2
				c1.7-3.4,2.3-6.5,1.8-9.3l-2.5-8.3l-5.2-2.9l-1.3-9.9c-0.4-5,0.8-7.7,3.6-7.9h14.9c2.8,0.2,4,2.9,3.6,7.9l-1.1,9.9l-3.6,1.6
				l6.1,20.7l6-20.5l-3.5-1.9l-1.1-9.9c-0.4-5,0.8-7.7,3.6-7.9h14.9c2.8,0.2,4,2.9,3.6,7.9l-1.1,9.9l-3.5,1.9l6,20.5l6.1-20.7
				l-3.6-1.6l-1.1-9.9c-0.4-5,0.8-7.7,3.6-7.9h14.9c2.8,0.2,4,2.9,3.6,7.9l-1.3,9.9l-5.2,2.9l-2.5,8.3c-0.5,2.8,0.1,5.9,1.8,9.3
				c-3,0.8-4.9,2.5-5.7,5.2l-2.8,9.5l2,1.1l1.4,10c0.4,5-0.8,7.7-3.7,7.9h-14.9c-2.8-0.2-4.1-2.9-3.7-7.9l1.4-10l2-1.1l-4.7-17
				l-4.7,17l2,1.1l1.4,10c0.4,5-0.8,7.7-3.7,7.9H142.4z"/>
			<path class="st2" d="M231.8,106.4h-9.5l-1.5,11.3l3.4,1.6l1.3,10c0.4,5-0.8,7.7-3.6,7.9h-14.8c-2.8-0.2-4-2.9-3.5-7.9l1.3-10
				l3.4-1.6l1.3-10.4c-0.2-3-1.4-5.7-3.4-8.3c2.5-1,4.2-2.9,5.2-5.7l1.1-8.5l-3.6-1.7l-1.2-9.9c-0.4-5,0.8-7.7,3.6-7.9h31.4
				c2.8,0.2,4,2.9,3.6,7.9l-1.2,9.9l-3.6,1.7l1.1,8.5c1,2.8,2.8,4.7,5.2,5.7c-2.1,2.5-3.2,5.3-3.4,8.3l1.3,10.4l3.4,1.6l1.3,10
				c0.4,5-0.7,7.7-3.5,7.9h-14.8c-2.8-0.2-4-2.9-3.6-7.9l1.3-10l3.4-1.6L231.8,106.4z M226.8,84l-1.7,0.9l-1.5,10.9h6.9L229,84.9
				l-1.6-0.9H226.8z"/>
			<path class="st2" d="M260.4,137.3c-2.8-0.2-4.1-2.9-3.7-7.9l1.4-10l3.4-1.4v-8.8c-0.3-3.1-1.8-5.7-4.4-7.9c2.6-2,4.1-4.6,4.4-7.7
				v-8.8l-3.4-1.6l-1.3-9.9c-0.4-5,0.8-7.7,3.6-7.9h11.7v-0.1v0.1c1.4,0.2,2.5,0.8,3.3,2l11,34.6V84.7l-3.4-1.4l-1.3-10
				c-0.4-5,0.8-7.7,3.6-7.9H300c2.8,0.2,4.1,2.9,3.7,7.9l-1.4,10l-3.4,1.4v8.8c0.3,3.1,1.8,5.7,4.4,7.9c-2.6,2-4.1,4.6-4.4,7.7v8.8
				l3.4,1.6l1.3,9.9c0.4,5-0.8,7.7-3.6,7.9h-11.7c-1.4-0.2-2.5-0.8-3.3-2l-11-34.6v17.2l3.4,1.4l1.3,10c0.4,5-0.8,7.7-3.6,7.9H260.4
				z"/>
			<path class="st2" d="M323.1,137.3c-2.8-0.2-4-2.9-3.6-7.9l1.4-10l3.4-1.6v-8.6c-0.3-3.1-1.8-5.7-4.4-7.9c2.6-2,4.1-4.6,4.4-7.7
				v-10c-0.9,0.6-1.6,1.8-2.1,3.5c-0.5,1.8-0.8,3.4-0.8,4.9c-0.2,1.4-0.7,2.2-1.5,2.3h-5.6c-0.8-0.1-1.3-0.9-1.5-2.3l-2.1-18.7
				c-0.4-5,0.8-7.7,3.6-7.9h3.8c2.1,0.2,3.2,1.6,3.4,4.2c0.7-2.7,1.9-4.2,3.7-4.2h11.1c1.7,0.1,3,1.5,3.7,4.2c0.1-2.6,1.2-4,3.4-4.2
				h3.8c2.8,0.2,4,2.9,3.6,7.9l-2.1,18.7c-0.2,1.4-0.7,2.2-1.5,2.3h-5.6c-0.8-0.1-1.3-0.9-1.5-2.3c-0.1-1.5-0.3-3.1-0.8-4.9
				c-0.5-1.8-1.3-3-2.3-3.6v10.1c0.3,3.1,1.8,5.7,4.4,7.7c-2.6,2.2-4.1,4.8-4.4,7.9v8.6l3.4,1.6l1.3,10c0.4,5-0.8,7.7-3.6,7.9H323.1
				z"/>
			<path class="st2" d="M361.3,137.3c-2.8-0.2-4-2.9-3.6-7.9l1.4-10l3.4-1.6v-8.6c-0.3-3.1-1.8-5.7-4.4-7.9c2.6-2,4.1-4.6,4.4-7.7
				v-8.8l-3.5-1.6l-1.2-9.9c-0.4-5,0.8-7.7,3.6-7.9h25.5c1.7,0.1,3,1.5,3.7,4.2c0.1-2.6,1.2-4,3.4-4.2h7.2c2.8,0.2,4,2.9,3.6,7.9
				l-2.1,18.7c-0.2,1.4-0.7,2.2-1.5,2.3h-9c-0.8-0.1-1.3-0.9-1.5-2.3c-0.1-1.5-0.4-3.2-0.9-5.2c-0.5-2-1.6-3.2-3-3.5h-11.6V96h11.6
				c1.3,0.2,2,0.8,2.1,1.6v7.2c-0.1,0.8-0.8,1.4-2.1,1.6h-11.6v13.1h11.6c1.5-0.4,2.5-1.5,3-3.5c0.5-2,0.8-3.8,0.9-5.2
				c0.2-1.4,0.7-2.2,1.5-2.3h9c0.8,0.1,1.3,0.9,1.5,2.3l2.1,18.7c0.4,5-0.8,7.7-3.6,7.9H394c-2.1-0.2-3.2-1.6-3.4-4.2
				c-0.7,2.8-1.9,4.2-3.7,4.2H361.3z"/>
			<path class="st2" d="M415.5,137.3c-2.8-0.2-4-2.9-3.6-7.9l1.4-10l3.4-1.6v-8.6c-0.3-3.1-1.8-5.7-4.4-7.9c2.6-2.2,4.1-4.8,4.4-7.9
				v-8.6l-3.5-1.6l-1.2-9.9c-0.4-5,0.8-7.7,3.6-7.9l22.6-0.2c4.5,0.2,8.2,2,11.1,5.6c2.9,3.5,4.3,11.1,4.1,22.6
				c0.3,3.1,1.8,5.7,4.4,7.9c-2.6,2.2-4.1,4.8-4.4,7.9c0.2,11.5-1.2,19.1-4.1,22.6c-2.9,3.5-6.6,5.4-11.1,5.6H415.5z M428.8,82.9
				v10.3c0.3,3.2,1.7,5.8,4.3,8c-2.5,2.2-3.9,4.8-4.3,7.9v10.4h8.5c1.5-0.4,2.5-1.6,3.1-3.6c0.6-2.1,0.9-4.3,0.9-6.8
				c-0.3-3.1-1.7-5.7-4.3-7.9c2.5-2.2,3.9-4.8,4.3-8c0-2.4-0.3-4.6-0.9-6.7c-0.6-2.1-1.6-3.3-3.1-3.6H428.8z"/>
		</g>
		<g>
			<defs>
				<rect id="SVGID_1_" x="126" y="147.6" width="331.9" height="279.6"/>
			</defs>
			<clipPath id="SVGID_00000155117946873514084760000012410452121883480234_">
				<use xlink:href="#SVGID_1_"  style="overflow:visible;"/>
			</clipPath>
			<g style="clip-path:url(#SVGID_00000155117946873514084760000012410452121883480234_);">
				<path class="st2" d="M366.7,232.9c-4.6,8.1-22.8,15.8-41,17.7c-42.9,4.4-79.2,8.3-122.6,2.3c-21.6-3-30.2-14.7-34.5-20.6
					c14.3,8,33.7,14,75.2,9.2s60.6-9.4,84.8-12.7C352.7,225.5,364.3,227.4,366.7,232.9z"/>
				<path class="st1" d="M420,361.7c2.2-2-2.5-6.3-4-8.3c-20.8-27.6-34.5-36.8-50.4-35.9c0.4-46.4-16.4-92-62.5-113.5
					c-7.5-3.6-15.4-5.6-23.3-8.5c-1.5-0.5-4.6-1.3-5.7-3c-1.2-1.8-0.4-4.4-0.5-4.4c-6.7,1.1-3.7,7.1-3.7,7.1s-1.3-0.1-2-0.2
					c-2.8-0.6-5.7-3.1-5.5-7.3c0.3-5.6,6.3-7.9,5.4-8.4c-0.2-0.1-10.9-5-19,1.4c-4.5,3.5-6.6,8.4-5.1,14.8
					c-10.1-1.8-8.5-10.6-8.7-10.5c-9,1.6-12.3,12.1-5.9,16.3c0,1.1-4.3,0.8-7.3-1.2c-2.2-1.5-3.1-5-3.4-4.9
					c-8.4,5.2-4.5,14.3,3,15.1c0.6,0.1,1.7,0.1,1.5,0.7c-0.1,0.2-1.7,1.4-4.6,1.4c-2.9,0-4-1.4-4.1-1c-1.3,3.9,5.1,7.2,7.5,6
					c-5,3.4-8.4,7.3-11.7,13c-14.3,24.9-6.6,52.8,5.2,76.4c1,2.1,2.5,4.5,2.9,6.8c0.2,1.2-0.5,3.1,0,4.2c0.2,0.4,1.2-1.1,1.3-0.7
					c0.2,1.9,0.1,4-0.1,5.9c-10.9,4-22.7,14.7-37.5,34.2c-1.5,2-6.2,6.3-4,8.3c-14.9,18.7-24.1,53-23.4,60.9c0.9,9,8,16.3,27.9,24.6
					c19,8,33.4,10.4,45.1,11.1c4.3,6.5,9.9,13.2,17,20.2c0.5,0.5,1.1,1,1.6,1.5c-2.2,7.5,3.3,23.6,9,29.2c-13.5-0.4-29.6,12-30.7,13
					c-4.7,4.3-3.2,4.6,0,4.6s29.3-1.3,43-1.6c5.6-0.1,12.4-0.4,18-0.6c3.4-0.1,19.3-0.2,16.8-6c-2.9-6.8-6.4-16.2-6.8-21.5
					c8.8,0.5,17.5,0,25.4-1.8c2.3,6.7,7,12.2,13.6,14.5c-19,3.3-26.3,10-30.8,15.6c-0.6,1.2,14.2,1.6,30.5,2.3
					c18.9,0.7,41.9,1.7,49.7-0.1c7.8-1.8,1.2-13.3-0.3-17.9c-5.1-15.6-10.1-37.2-2.5-52.8c3.2-0.7,7-1.6,12-1.9
					c9.5-0.6,20.3-2.4,29.9-6.5c19.9-8.4,26.6-20.4,27.5-29.5C451.2,415,437.4,382.6,420,361.7z M198.9,427.8
					c0-2.6,8.3-4.4,13.8-8.8c0.7,7.6,2.1,15.3,5,23.4C215,440.8,198.9,430.2,198.9,427.8z M385.6,439c1-7.6,1.6-15.6,1.4-22.7
					c5.7,3.9,14.5,7.1,14.2,9.4C400.8,428.9,395.7,434.4,385.6,439z"/>
				<g>
					<path class="st4" d="M355.3,532.3c-2.7-0.1-5.5-0.2-8.3-0.3c-1.3,0-2.6-0.1-3.9-0.1c-3-0.1-6-0.2-8.9-0.3c-0.4,0-0.9,0-1.3-0.1
						c-0.3,0-0.6,0-0.9,0c-1.6-0.1-3.1-0.1-4.6-0.2c-0.3,0-0.7,0-1,0c-2.7-0.1-5.4-0.2-7.8-0.3c-0.4,0-0.7,0-1.1,0
						c-0.4,0-0.8,0-1.2-0.1c-0.5,0-1-0.1-1.4-0.1s-0.9-0.1-1.4-0.1c-0.5,0-1-0.1-1.5-0.1c-0.5,0-1-0.1-1.5-0.1
						c-0.9-0.1-1.8-0.1-2.6-0.2c-0.4,0-0.7-0.1-1.1-0.1c0,0-0.1,0-0.1,0c-0.3,0-0.6-0.1-0.8-0.1c-0.2,0-0.4-0.1-0.5-0.1
						c-0.1,0-0.2,0-0.2,0c-0.4-0.1-0.7-0.1-0.9-0.2c-0.1,0-0.1-0.1-0.2-0.1c-0.1,0-0.1-0.1-0.2-0.1c0,0-0.1-0.1-0.1-0.1
						c0-0.1,0-0.1,0-0.2c0.6-0.8,1.3-1.6,2.1-2.4c0.3-0.3,0.5-0.6,0.8-0.8c0.3-0.3,0.6-0.6,0.9-0.8c0.3-0.3,0.6-0.5,0.9-0.8
						c2.1-1.8,4.8-3.7,8.2-5.3c0.6-0.3,1.2-0.6,1.9-0.9c0.1,0,0.1-0.1,0.2-0.1c0.3-0.1,0.6-0.3,1-0.4c0.4-0.2,0.9-0.4,1.4-0.5
						c0.4-0.2,0.8-0.3,1.3-0.4c0.3-0.1,0.6-0.2,1-0.3c0.4-0.1,0.7-0.2,1.1-0.3c0.2-0.1,0.5-0.1,0.7-0.2c0.3-0.1,0.6-0.2,0.9-0.3
						c0.3-0.1,0.6-0.2,0.9-0.2c1-0.3,2.1-0.5,3.2-0.8c0.6-0.1,1.1-0.2,1.7-0.4c0.9-0.2,1.7-0.3,2.7-0.5
						C342.8,517,351.2,523.1,355.3,532.3z"/>
					<path class="st4" d="M269.8,529.1c-0.7,0-1.5,0-2.2,0.1c-13.7,0.2-39.8,1.6-43,1.6c-1.3,0-2.4-0.1-2.8-0.4
						c-0.5-0.4-0.2-1.2,1.4-2.9c0.1-0.1,0.2-0.2,0.3-0.3c0.1-0.1,0.2-0.2,0.3-0.3c0.2-0.2,0.5-0.5,0.7-0.7c1.1-1,17.3-13.5,30.7-13
						h0C260.9,516.8,266.7,522.3,269.8,529.1z"/>
				</g>
				<g>
					<path class="st2" d="M220.2,339c-0.9,0.7-2.6,3.3-3.1,4.2c-1,2.1,1.2,3.9,1.1,5c-0.1,1.3-2.7,5.9-5.2,10.7
						c-1.8,3.4-3.2,6.9-4.1,10.4c-0.9,3.4-1.5,6.8-1.8,10.1c-8.4-7.5-19.9-11.2-27.1-12.8c-6.1-1.3,0.2-6.7,2-9.1
						c14.9-19.7,26.5-30.3,37.5-34.2c0,0.3-0.1,0.6-0.1,0.9c-0.1,0.8-1,3-0.4,2.4c0.2-0.2,0.7-2,1.5-1.7
						C221,324.9,220.5,337.8,220.2,339z"/>
					<path class="st2" d="M418.4,362.5c-25.7,12-32.9,26.3-41.6,36.8c-0.1,0.1-0.2,0.2-0.2,0.3c1.5,5.8,3.9,10.9,9,15.2
						c0.6,0.5,1.2,1,1.9,1.4c0.2,7.3-0.2,14.9-1.2,22.6c-1.5,0.7-3.1,1.4-4.9,2c-8,3-17.4-6.6-29.8,0.5c-6.6,3.8-9.3,11.8-9.6,14.4
						c-0.3,2.7,8.3-6.2,26.6,3.9c4.6,2.5,8.1,2,12.9,0.9c-0.5,1.1-1.1,2.5-1.5,3.6c-10.1,11.8-34.7,18.7-53.7,21.9
						c-33.7,5.7-63.3,3-84.7-7.5c-13-13.7-20.1-26.2-24-38c-0.7-2.2-1.4-4.4-1.9-6.6c-2.5-10-3-19.5-3.4-28.8
						c-3.3-1.9-9.8-25.8,1.2-46.7c2.5-4.7,5-9.4,5.2-10.7c0.1-1.1-2-2.9-1.1-5c0.7-1.4,4.1-6.5,3.6-3.7c42.9,12.3,85.9,3.5,91.2,2.3
						c7.8-1.7,16.2-4.2,24.6-7c4-6.8,10.2-13,19.8-15.6c6.8-1.8,13-2.3,19.1-0.8c12.1,2.9,24.2,13.3,40.6,35.1
						C418.2,355.8,424,359.9,418.4,362.5z"/>
				</g>
				<g>
					<path class="st5" d="M242.5,374.6c5.6,0.5,10.6,0.7,15.5,1.2c4,0.4,5,3.3,4.7,6c-0.4,3.7-2.6,6.1-6.3,7.3
						c-0.2,0.1-0.4,0.1-0.8,0.2c3.7,2.5,3.6,7.3,5.9,11.7c-3-0.2-5.6-0.4-8.4-0.5c-1.3-2.8-2.4-5.6-3.3-8.3
						c-0.5-1.5-1.2-2.6-3.4-2.3c-0.7,3.2-1.2,6.5-1.1,10.1c-2.6-0.2-5-0.3-7.5-0.4C237.4,391.1,240.8,382.7,242.5,374.6z M249,380.2
						c-0.4,1.6-0.8,3.2-1.3,5c1.7,0,3.2,0.1,4.8,0c1.4-0.1,2.3-1,2.6-2.2c0.3-1.3-0.2-2.3-1.6-2.5
						C252.1,380.2,250.6,380.3,249,380.2z M280.8,376.9c-3-1.2-6.1-1.3-9.3-0.5c-3.4,0.8-5.7,3.3-6.5,6.3c-0.7,2.8,0.3,5.2,3.2,6.7
						c1.5,0.8,3.2,1.3,4.8,1.9c0.8,0.3,1.6,0.6,2.4,1c0.9,0.5,1.4,1.3,1.2,2.4c-0.2,1.2-1,1.9-2.1,2.3c-2.4,0.8-4.7-0.5-5.2-3
						c-0.1-0.5-0.1-0.9-0.2-1.4c-2.4,0-4.6,0-6.8,0c-0.6,4.1,1.5,7.5,4.9,8.8c2.6,1,5.3,1.3,8.1,0.9c1.7-0.2,3.6-0.9,5.1-1.9
						c4.7-3.1,6.2-10.2,0.7-13.2c-0.9-0.5-1.8-0.9-2.7-1.2c-1.7-0.6-3.3-1.1-5-1.7c-0.9-0.3-1.6-0.7-1.5-2c0.7-1.4,1.8-1.8,3.1-1.7
						c2,0.2,3,1.3,3,3.4c2.3,0,4.6,0,7.1-0.1C285.2,380.4,283.9,378.2,280.8,376.9z"/>
				</g>
				<g>
					<path class="st6" d="M302.5,524.7c-0.1,0.1-0.1,0.2-0.2,0.4c-0.1,0.2-0.3,0.5-0.6,0.7c-0.2,0.2-0.5,0.4-0.8,0.6
						c-0.2,0.1-0.3,0.2-0.5,0.3c-0.5,0.2-1,0.4-1.6,0.6c-1.3,0.4-2.7,0.7-4.2,0.9c-0.2,0-0.5,0.1-0.7,0.1c-0.2,0-0.5,0.1-0.7,0.1
						c-0.2,0-0.5,0.1-0.7,0.1c-1.7,0.2-3.3,0.2-4.6,0.3c-0.2,0-0.3,0-0.5,0c-0.1,0-0.2,0-0.3,0c-0.1,0-0.3,0-0.4,0
						c-0.4,0-0.7,0-0.9,0c-0.3,0-0.6,0-0.9,0c-0.3,0-0.6,0-0.9,0c-0.8,0-1.7,0.1-2.5,0.1c-0.7,0-1.3,0.1-2,0.1c-0.5,0-1,0-1.4,0.1
						c-1.1,0-2.2,0.1-3.3,0.1c-1.6,0.1-3.2,0.1-4.7,0.1c-0.7,0-1.5,0-2.2,0.1c-13.7,0.2-39.8,1.6-43,1.6c-0.2,0-0.4,0-0.6,0
						c-0.1,0-0.3,0-0.4,0c-0.1,0-0.1,0-0.2,0c-0.1,0-0.1,0-0.2,0c-0.2,0-0.4,0-0.5-0.1c-0.1,0-0.1,0-0.2,0c-0.1,0-0.2,0-0.2-0.1
						c0,0,0,0-0.1,0c0,0-0.1,0-0.1,0c-0.1,0-0.1,0-0.1-0.1c-0.1,0-0.1-0.1-0.1-0.1c0,0-0.1-0.1-0.1-0.1c-0.1-0.1-0.1-0.3-0.1-0.5
						c0,0,0-0.1,0-0.1c0-0.1,0.1-0.2,0.1-0.3c0,0,0,0,0-0.1c0,0,0-0.1,0.1-0.1c0-0.1,0.1-0.1,0.1-0.2c0.1-0.1,0.1-0.2,0.2-0.3
						c0,0,0.1-0.1,0.1-0.1c0.1-0.1,0.3-0.3,0.4-0.5c0.1-0.1,0.2-0.2,0.2-0.3c0.1-0.1,0.2-0.2,0.3-0.3c0.1-0.1,0.2-0.2,0.3-0.3
						c0.1-0.1,0.2-0.2,0.3-0.3c0.2-0.2,0.5-0.5,0.7-0.7h0c0,0,0,0,0.1-0.1c0,0,0,0,0,0c0,0,0,0,0.1-0.1c0,0,0.1-0.1,0.1-0.1
						c0,0,0,0,0,0c0,0,0.1-0.1,0.1-0.1c0.2-0.2,0.5-0.4,0.9-0.7c0,0,0,0,0,0c0,0,0.1-0.1,0.1-0.1c0,0,0.1-0.1,0.1-0.1
						c2.2-1.6,6.5-4.6,11.7-7.2c0.1-0.1,0.3-0.1,0.4-0.2c1-0.5,2.1-1,3.1-1.4c0.2-0.1,0.3-0.1,0.5-0.2c0.1,0,0.1,0,0.1-0.1
						c0,0,0,0,0,0c0.6-0.2,1.2-0.5,1.9-0.7c0,0,0,0,0,0c0.9-0.3,1.8-0.6,2.7-0.9c0.3-0.1,0.6-0.2,0.8-0.2c0.8-0.2,1.6-0.4,2.5-0.6
						c0.1,0,0.1,0,0.2,0c0,0,0,0,0,0c0,0,0,0,0.1,0c0.2,0,0.4-0.1,0.7-0.1c0.1,0,0.2,0,0.3,0c0.1,0,0.1,0,0.2,0c0.1,0,0.1,0,0.2,0
						c0.2,0,0.4-0.1,0.6-0.1c0.1,0,0.2,0,0.3,0c0.3,0,0.7-0.1,1-0.1c0.4,0,0.8,0,1.1,0c0.2,0,0.5,0,0.7,0h0
						c-0.1-0.1-0.3-0.3-0.5-0.5c-0.6-0.6-1.2-1.4-1.8-2.2c-4.8-7-8.7-20.1-6.7-26.7c11,9.8,30.2,16.1,49.3,17.2c0,0,0,0.1,0,0.1h0
						c0.3,4.2,2.5,10.9,4.9,16.9c0.4,1.2,0.9,2.3,1.3,3.3c0,0,0,0,0,0c0.2,0.4,0.4,0.9,0.5,1.3C302.7,523.5,302.7,524.1,302.5,524.7
						z"/>
					<path class="st6" d="M386.8,529.5c-0.2,0.3-0.4,0.5-0.6,0.7c-0.6,0.6-1.4,1-2.4,1.2c-5,1.2-16.2,1.2-28.6,0.8
						c-0.2,0-0.3,0-0.5,0c-1.1,0-2.3-0.1-3.5-0.1c-2.3-0.1-4.6-0.2-6.9-0.2c-0.6,0-1.1,0-1.7-0.1c-0.6,0-1.2,0-1.9-0.1
						c-0.8,0-1.6-0.1-2.4-0.1c-1.4-0.1-2.8-0.1-4.2-0.2h0c-1.1,0-2.1-0.1-3.1-0.1c-0.4,0-0.9,0-1.3-0.1c0,0,0,0,0,0c0,0-0.1,0-0.1,0
						c-0.2,0-0.4,0-0.6,0c0,0,0,0,0,0c-0.5,0-1,0-1.4-0.1c-1.5-0.1-2.9-0.1-4.3-0.2c-0.3,0-0.6,0-0.9,0c-0.1,0-0.2,0-0.3,0
						c-0.2,0-0.4,0-0.7,0c-0.7,0-1.3-0.1-1.9-0.1c-0.3,0-0.6,0-0.8,0c-0.3,0-0.7,0-1,0c-1.1,0-2.1-0.1-3-0.1c-0.2,0-0.4,0-0.6,0
						c-0.2,0-0.3,0-0.5,0c-0.1,0-8.3-0.8-8.4-0.8c12.6-5,34.5-6.4,44.9-5.8h0.1c4.6,0.3,8.3,0.7,10.3,0.8c7,0.3,9.6-1.3,6.6-11.3
						c-2.8-9.4-6.3-25.7-6-37c7.6-3.2,14.2-7.1,18.5-11.9c-5.1,15.2-0.5,34.5,4.2,48.7C384.8,517.3,389.3,525.6,386.8,529.5z"/>
				</g>
				<path class="st6" d="M333.7,494.8c3.1-2,9.3-5.9,11.2-8.5c-37,16.4-72,8.9-92.5,1.8c18.9,10.6,34.4,13.2,49,13.2
					C316,501.2,325.5,498.1,333.7,494.8z"/>
				<g>
					<path class="st6" d="M212.4,412.3c15.6,3.5,44.2-1.3,44.7-1.2c0.5,0.1,5.8,1.2,19,4.7c13.2,3.5,28.7,6.7,36.7,6.7
						c3,0,6.8-2.7,10.9-7.3c4.3-4.8,7.9-10.5,11.4-16.8c-7.4,11.1-16.5,16-19.1,16.7c-3.2,0.9-4.3,0.9-8.9,0.5
						c-14.8-1.1-45.7-10-49.1-10.5c-2.4-0.3-36.6,5.6-46.1-1.3"/>
					<path class="st6" d="M241.2,426.9c-8.9,0.4-19.8,6.5-23.7,13.9c-0.7-2.2-1.4-4.4-1.9-6.6C222.3,429.1,231,426.4,241.2,426.9z"
						/>
					<path class="st6" d="M381.4,460.7c-0.5,1.1-1.1,2.5-1.5,3.6c-10.1,11.8-34.7,18.7-53.7,21.9c-33.7,5.7-63.3,3-84.7-7.5
						c-2.6-2.7-5-5.4-7.1-8c3,1.4,6.9,3.4,10,4.9c8.8,4.1,17.8,4.8,19.8,1.7c1-1.6,2.4-4.9,1.6-8.8c-1.1-5.4-4.6-15.9-1.9-26
						c-1.4,11.5,5.7,20.3,6.1,28.8c0,9.4,8.6,11.1,18.1,11.7c7.4,0.5,14.5,0.5,28.1-1c14.2-1.5,16.7-5.6,16.8-14.3
						c0.1-6.4-1.5-17.3-4.7-22.7c-4-6.6-17.6-11.1-32.3-14.3c9.9-0.2,29.6,1.3,39,9.7c3.1,2.7,6.4,5.7,9.5,8.3
						c-1.7,2.9-2.5,5.8-2.6,7.2c-0.2,1.7,3.2-1.2,10.2-1.1c2.4,0,5.3,0.4,8.6,1.5c2.4,0.8,4.9,1.9,7.8,3.4
						C373,462.2,376.6,461.7,381.4,460.7z"/>
					<path class="st6" d="M386.2,438.9c-1.5,0.7-3.1,1.4-4.9,2c-4.5,1.7-9.5-0.7-15.3-1.7c0.5-4.3,0.6-8.9,0.3-13
						c-0.6-7.6-2-19.1-6.4-23.9c-4.4-4.8-10.2-11.6-13.5-15.9c11.4,2.7,15.8,6,20.3,8.9c1.4,3.6,4,9.2,9.9,4.3
						c1.5,5.8,3.9,10.9,9,15.2c0.6,0.5,1.2,1,1.9,1.4C387.6,423.5,387.2,431.2,386.2,438.9z"/>
					<path class="st6" d="M418.4,362.5c-2.9,1.4-5.7,2.8-8.2,4.2c0,0,0,0,0,0c-4.3,2.3-6.7-9.9-20-25.2
						c-12.8-14.7-32.8-24.1-44.3-17.2c3-2.3,6.6-4.1,10.8-5.2c6.8-1.8,13-2.3,19.1-0.8c12.1,2.9,24.2,13.3,40.6,35.1
						C418.2,355.8,424,359.9,418.4,362.5z"/>
					<path class="st6" d="M328.9,337.3c-0.4,6.3,0.1,10.9,1.1,15.3c1-5.5,3.6-13.6,7-17.9C334.4,335.5,331,336.7,328.9,337.3z"/>
				</g>
				<path class="st6" d="M303.2,204.1c-7.5-3.6-15.4-5.6-23.3-8.5c-1.5-0.5-4.6-1.3-5.7-3c-1.2-1.8-0.4-4.4-0.5-4.4
					c-6.7,1.1-3.7,7.1-3.7,7.1s-1.3-0.1-2-0.2c-2.8-0.6-5.7-3.1-5.5-7.3c0.3-5.6,6.3-7.9,5.4-8.4c-0.2-0.1-10.9-5-19,1.4
					c-4.5,3.5-6.6,8.4-5.1,14.8c-10.1-1.8-8.5-10.6-8.7-10.5c-9,1.6-12.3,12.1-5.9,16.3c0,1.1-4.3,0.8-7.3-1.2
					c-2.2-1.5-3.1-5-3.4-4.9c-8.4,5.2-4.5,14.3,3,15.1c0.6,0.1,1.7,0.1,1.5,0.7c-0.1,0.2-1.7,1.4-4.6,1.4c-2.9,0-4-1.4-4.1-1
					c-1.3,3.9,5.1,7.2,7.5,6c-4.8,3.2-8.1,7-11.2,12.2c4.6-5.5,12.4-10.8,23-14.4c-1.3-1.1-0.2-4.1,1.9-4.6c-0.5,2.3,3.7,3.2,8.5,2
					c-1.3-1.3-2.6-5.8,3.1-7.3c-2.7,4,3.6,7,6.3,6.3c3-0.7,2.7-2.2,1.6-3.4c2.2-1.2,4.4,1.5,5.5,2c2.2,1.1,4.7,0.6,10.8,1.6
					c34.3,5.3,52.9,19.9,61.5,38.9c7.2,16,15.1,44.5,11.9,74.4c3.3-2.7,7.2-4.9,12-6.2c3.1-0.8,6.1-1.4,8.9-1.6
					C366.1,271.2,349.3,225.6,303.2,204.1z"/>
				<g>
					<path class="st6" d="M228.8,444c0,0.2,0,0.3-0.1,0.5c-0.1,0.1-0.1,0.2-0.2,0.3c-0.1,0.1-0.2,0.2-0.3,0.4
						c-1.4,1.7-4.6,4.5-4.1,11c0.3,0.6,0.5,1.3,0.4,1.9c0.4,2.5-0.9,3.4-3,2.6l0.6,1.1c-2.1-0.2-4.3-0.5-6.6-0.9
						c-6.7-4.3-4-10.2-4.4-13.1c-0.4-2.6-2.2-4.4-4.7-6.2c-0.4-0.3-0.7-0.5-1.1-0.8c-11.1-7.9-18.9-14.7-20.9-17.9
						c7.3-1,15.4-6.6,19-13.3c3.6-6.8-2.3-17.7-1.4-31.1c0.8-13.2,7.9-24,15.6-32.8c0.4,1.2,1.2,2.1,1.1,2.8
						c-0.1,1.3-2.7,5.9-5.2,10.7c-11.1,20.9-4.6,44.7-1.2,46.7c0.2,4.4,0.4,8.9,0.9,13.4c-5.5,4.3-13.9,6.4-13.9,9
						c0,1.2,3.7,4.2,7.9,7.3l0.1-0.2c2.7,1.9,5.5,3.8,7.5,5.2c0,0,0,0,0,0c-0.7,2.9-0.4,7.1,3.8,7.6c3.1,0.4,6.5-1.7,9.8-4.9
						C228.7,443.6,228.8,443.8,228.8,444z"/>
					<path class="st6" d="M165.5,387.4c-2.3,7.4-5.4,21.5-4.3,26.6c-0.7,2.9-6.1,7.8-5.8,15.4c-1.1-2.2-0.9-5.8,0.5-13
						S160.7,398.2,165.5,387.4z"/>
				</g>
				<g>
					<path class="st6" d="M450.7,422.9c-0.8,7.8-5.9,17.9-20.2,25.9c-0.1,0.1-0.1,0.1-0.2,0.1c-0.5,0.3-1.1,0.6-1.6,0.9
						c-0.1,0-0.1,0.1-0.2,0.1c-1,0.5-2.1,1.1-3.2,1.6c-0.6,0.3-1.2,0.5-1.8,0.8c-9.6,4-20.4,5.8-29.9,6.5
						c-7.8,0.5-12.6,2.4-16.9,2.7c-0.4,0-0.9,0.1-1.3,0.1c-2.1,0-4.2-0.5-6.5-1.8c-6.7-3.7-12.1-4.8-16.3-4.9c-0.5,0-1.1,0-1.5,0
						c-4.5,0.1-7.3,1.5-8.4,1.6c-0.3,0-0.4-0.2-0.3-0.5c0-0.2,0-0.4,0.1-0.6c9.8-7.6,22.6-2.9,28.5-0.8c6.6,2.4,7.7-1.5,13.5-2
						c5.8-0.5,21.5,0,36.8-6.2c15.3-6.2,19.4-20.8,19.2-26.3c-0.2-5.6-12.2-26-16.3-29c-1.6-9.4-6.2-17.8-12.6-24.7
						c2.2-1.3,4.7-2.5,7.3-3.7c0,0,0.1,0,0.1-0.1c0,0,0,0,0,0c0.7-0.2,1.2-0.4,1.5-0.7C437.6,382.7,451.4,415,450.7,422.9z"/>
					<path class="st6" d="M377.7,403.9c3.1,7.3,14.1,13.6,19.2,15.1c5.1,1.6,6.7,2.5,7.2,3.3c0.5,0.8-1.9,4.1-4.8,7
						c1.6-2.2,2.4-3.2,2-4.4s-2.8-2.5-6.9-4.7C390.4,418.2,380.9,413.7,377.7,403.9z"/>
				</g>
				<g>
					<line class="st7" x1="177.6" y1="433.8" x2="177.6" y2="440"/>
					<line class="st7" x1="183.1" y1="438.1" x2="183.1" y2="444.4"/>
				</g>
				<g>
					<line class="st7" x1="409.2" y1="430.7" x2="409.2" y2="436.9"/>
					<line class="st7" x1="402.8" y1="435.6" x2="402.8" y2="441.8"/>
				</g>
				<g>
					<line class="st7" x1="232.4" y1="327.4" x2="232.4" y2="333.7"/>
					<line class="st7" x1="239.1" y1="330.5" x2="239.1" y2="336.8"/>
				</g>
				<g>
					<path class="st8" d="M227.9,462.2c-11.9-0.7-25.8-3-45.2-11.2c-19.8-8.4-27-15.6-27.9-24.6c-0.8-7.9,8.2-42,23.2-60.7"/>
					<path class="st8" d="M212.8,418.9c-5.4,4.5-13.7,6.2-13.7,8.8c0,2.6,18.5,14.7,19.1,14.8"/>
					<path class="st8" d="M219.3,323.2c-11,3.9-22.3,14.3-37.1,34c-1.8,2.4-8.1,8-2,9.1"/>
					<path class="st8" d="M387.2,416.2c0.2,7.3-0.2,14.9-1.3,22.7"/>
					<path class="st8" d="M241.2,478.6c21.4,10.7,50.8,13.4,84.8,7.6c19-3.2,43.5-10.1,53.7-21.9"/>
					<path class="st8" d="M333.7,494.8c-25.4,12.7-70.6,5.5-88.8-12.4c-30.1-29.6-31.8-53.7-32.9-77c-3.3-1.9-9.8-25.8,1.2-46.7
						c2.5-4.7,5-9.4,5.2-10.7c0.1-1.1-2-2.9-1.1-5c0.7-1.4,4.1-6.4,3.6-3.6"/>
					<path class="st8" d="M221,339.4c42.9,12.3,91.4,4.4,114-4"/>
					<path class="st8" d="M293.2,353.2c-12.2,4.3-59.5,3.9-74.3-5.8"/>
					<g>
						<path class="st8" d="M227.6,341.5c-0.6,1.8-1.2,3.1-1.2,5.1"/>
						<path class="st8" d="M238.6,343.7c-0.8,1.6-1,3.8-1,5.6"/>
						<line class="st8" x1="251" y1="344.9" x2="251" y2="349.8"/>
						<polyline class="st8" points="260.9,346.6 260.9,347.4 260.9,347.9 260.9,348.6 260.9,349.1 260.9,349.6 260.9,350 						"/>
						<polyline class="st8" points="255.8,346.9 255.8,347.4 255.8,347.9 255.8,348.3 255.8,348.8 255.8,349.3 						"/>
						<polyline class="st8" points="292,345.4 292,345.9 292,346.4 292,347.4 292,347.9 						"/>
						<polyline class="st8" points="295.6,345.4 295.6,346.2 295.6,346.9 295.6,347.4 						"/>
					</g>
					<path class="st8" d="M306,529.3c8.1-4.1,17.9-7,27.6-8.2c4.2-0.5,8.4-0.7,12.4-0.5"/>
					<path class="st8" d="M223.8,529.4c5.2-4.3,28.6-13,37.3-11.5"/>
					<path class="st8" d="M334.5,513.7c8.5,3.4,16.7,9.8,20.7,17.9"/>
					<path class="st8" d="M255.3,513.1c5.7,3.8,10.9,8.3,13.9,14.2"/>
					<path class="st8" d="M365.8,317.5c0.5-46.5-16.3-91.9-62.5-113.5c-7.5-3.6-15.4-5.6-23.3-8.5c-1.5-0.5-4.6-1.3-5.7-3
						c-1.2-1.8-0.4-4.4-0.5-4.4c-6.7,1.1-3.7,7.1-3.7,7.1s-1.3-0.1-2-0.2c-2.8-0.6-5.7-3.1-5.5-7.3c0.3-5.6,6.3-7.9,5.4-8.4
						c-0.2-0.1-10.9-5-19,1.4c-4.5,3.5-6.5,9.6-5,16"/>
					<path class="st8" d="M221.6,217.2c-2.5,1.2-8.2-1.9-6.9-5.7c0.1-0.4,1.3,1.1,4.1,1c2.8,0,4.5-1.2,4.6-1.4
						c0.2-0.5-1-0.6-1.5-0.7c-7.5-0.8-11.4-9.9-3-15.1c0.3-0.2,1.2,3.3,3.4,4.9c2.9,2.1,7.3,2.3,7.3,1.2c-6.4-4.2-3-14.7,5.9-16.3
						c0.2,0-1.9,8.8,8.1,10.6"/>
					<path class="st8" d="M223.1,216.5c-5,3.4-9,7.7-12.3,13.2c-14.6,24.7-6.9,53.5,4.9,77c1,2.1,2.5,4.5,2.8,6.8
						c0.2,1.2-0.5,3.1,0,4.2c0.2,0.4,1.3-1.1,1.3-0.7c0.3,2.2,0,4.7-0.2,6.8c-0.1,0.8-1,3-0.4,2.4c0.2-0.2,0.7-2,1.5-1.8
						c0.5,0.2,0,11.8-0.2,12.9"/>
					<g>
						<path class="st4" d="M375.1,461.5c-2.2,0-4.4-0.4-6.9-1.8c-18.3-10-26.8-1.2-26.6-3.9c0.3-2.7,2.9-10.6,9.6-14.4
							c10.2-5.9,18.3-0.5,25.3,0C372.9,446,369.4,452.9,375.1,461.5z"/>
						<path class="st8" d="M376.2,399.1c1.5,6,3.9,11.3,9.1,15.7c5.4,4.5,16.4,8.2,16.1,10.9c-0.5,3.6-7.1,10.3-20.3,15.2
							c-8,3-17.4-6.6-29.8,0.5c-6.6,3.8-9.3,11.8-9.6,14.4c-0.3,2.7,8.3-6.2,26.6,3.9c7.6,4.2,12.4-0.1,25-1
							c9.5-0.6,20.3-2.4,29.9-6.5c19.8-8.4,26.6-20.4,27.5-29.5c0.8-7.9-12.9-40.1-30.3-61"/>
						<path class="st8" d="M376.5,399.3c-6,4.6-7.5,1.1-10.2-4.4"/>
						<path class="st8" d="M345.1,386.1c3.6,0.8,9.2,2.8,13.5,4.8c3.8,1.7,6.5,3.5,7.9,4.4"/>
						<path class="st8" d="M358.7,390.9c-2.4-3.1-5.2-7.3-8.5-9.5"/>
						<path class="st8" d="M331,350.8c2-11.1,8.4-27.1,25.5-31.7c20.2-5.4,35,1.5,59.7,34.3c1.8,2.4,8.1,8,2,9.1"/>
						<path class="st8" d="M367.3,394.7c4.2-13.3,15.9-28.8,32-34.6"/>
						<path class="st8" d="M371.8,386.2c1.3,1.2,2.5,1.9,4.1,2.7"/>
						<line class="st8" x1="377.7" y1="377.8" x2="381.1" y2="380.4"/>
						<line class="st8" x1="384" y1="370.7" x2="386.6" y2="373.9"/>
					</g>
					<g>
						<path class="st8" d="M321,499.3c2.3,6.7,7,12.2,13.6,14.5c-19,3.3-26.3,10-30.8,15.6c-0.6,1.2,14.2,1.6,30.5,2.3
							c18.9,0.7,41.9,1.7,49.7-0.1c7.8-1.8,1.2-13.3-0.3-17.9c-5.1-15.6-10.1-37.2-2.5-52.8"/>
						<path class="st8" d="M246.3,483.9c-2.2,7.5,3.3,23.6,9,29.2c-13.5-0.4-29.6,12-30.7,13c-4.7,4.3-3.2,4.6,0,4.6
							s29.3-1.3,43-1.6c5.6-0.1,12.4-0.4,18-0.6c3.4-0.1,19.3-0.2,16.8-6c-2.9-6.8-6.4-16.2-6.8-21.5"/>
					</g>
					<g>
						<path class="st8" d="M341.7,455.9c6.7-9.4,18.6-10.9,26.6-8.8"/>
						<path class="st8" d="M376.5,441.4c-3.6,4.6-7.1,11.5-1.4,20.1"/>
					</g>
					<g>
						<path class="st8" d="M209.1,369.1c-3.1-2.1-6.4-3.9-10-5.2"/>
						<path class="st8" d="M201.6,364.9c-1.2,1-2.1,2.8-2.5,4.1"/>
					</g>
				</g>
				<g>
					<path class="st9" d="M207,258.1c1.1-12.2,5.1-17.4,12.3-21.3c9.8-5.2,14.9-7.4,25.5-8.4c3.8-0.3,8.1-0.5,8.7-4.3
						c0.3-1.7-0.3-3.5-2-5.8c3.3,0,7,1.3,9.7,3.5c5.5,4.4,13.8,7.2,20.3,7c22.8-0.7,37.3,1.9,48.3,21.9c2.5,4.5,6.3,14.8,3.7,26.2
						c-3.8,16.7-5.7,23.7-23.9,36.3c-21.6,14.9-66.2,22.3-88.5-5.9C210.8,294.3,205.4,276.2,207,258.1z"/>
					<path class="st2" d="M250.6,266.5c-7.5-3.8-13.6,15.2-13,20.7c2.1,18.7,29.4,17.7,42.1,11.4c18.3-9.1-4.1-38.6-17.2-33.4"/>
					<path class="st2" d="M207,258.1c-1.5,14.3,2.4,30.4,5.5,32.7c2.4,1.8,17.4-1.8,25-17.3c7-14.3,6-25.2,3.6-27.5
						c-1.3-1.3-18.1-6.5-27.2-5.4C210.5,241,208.4,245.3,207,258.1z"/>
					<path class="st2" d="M278,245.9c-1.5,37.3,45.3,56.2,50.5,48.6c3.4-4.9,9.8-25.3,2.5-41.4c-3.8-8.4-11.7-17.8-15.8-17.8
						c-7.2-0.1-16.1,4.6-23.8,6.3C285,243,278.3,243.3,278,245.9z"/>
				</g>
				<g>
					<path class="st5" d="M246.1,266.5c-0.1-2.8,5.4-5.4,12.4-5.7c7-0.3,12.8,1.7,12.9,4.5c0.1,2.8-5.4,5.4-12.4,5.7
						C252,271.3,246.2,269.3,246.1,266.5z"/>
					<path class="st10" d="M258.7,267.8c0,5.1,0.5,10,0.6,13.6c0.2,3.7,11,9,17.9-1.2"/>
				</g>
				<g>
					<path class="st11" d="M328.7,245.9c-5.9-3.3-9.6-8.2-17.5-8.3c-10.6-0.2-26.3,7.9-37.3,9.9"/>
					<path class="st11" d="M200.7,245.9c6.6-4.3,11.3-5.9,16-5.9c8.4,0,20.9,5.6,31.2,7.4"/>
				</g>
				<path class="st4" d="M224.2,456.2c-0.7-8.3,4.7-10.4,4.7-12.2c0-1.5-8.6-6.3-12.1-4.9c-3.7,1.4-3.8,8.5-1.8,10.6
					c-0.3,2.4,1.6,8,5.2,10.3S225.7,460.8,224.2,456.2z"/>
				<g>
					<path class="st8" d="M224.2,456.2c-1.1-8.1,4.7-10.4,4.7-12.2c0-1.5-9.7-5.8-12.1-4.9c-3.7,1.4-3.8,8.5-1.8,10.6
						c-0.3,2.4,1.6,8,5.2,10.3S225.6,458.6,224.2,456.2z"/>
					<path class="st8" d="M214.9,449.6c2.6-4.3,8.3-5.6,14-5.6"/>
				</g>
				<path class="st10" d="M259.4,281.4c-0.6,3.1-4.5,6.5-9.7,4.5"/>
				<g>
					<g>
						<path class="st0" d="M291.6,260.1c0.9,5.4,7.3,2.7,13.6,2.9c7.3,0.3,14.2,3.4,13.9-4.9c-0.2-6.2-6.6-8.7-15.9-9
							S290.5,253.3,291.6,260.1z"/>
						<path class="st12" d="M291.5,258.8c2.8-5.6,8.4-6.5,15.5-5.2c7.4,1.4,10.8,4.4,11.8,8.1c0.3-1.1,0.5-2.3,0.4-3.6
							c-0.2-6.2-6.6-8.7-15.9-9C294.5,248.9,291,252.8,291.5,258.8z"/>
						<path class="st13" d="M311.2,258c0-3.4-2.7-6.1-6-6.2c-3.4,0-6.1,2.7-6.2,6c0,3.4,2.7,6.1,6,6.2
							C308.4,264,311.1,261.3,311.2,258z"/>
						<path class="st14" d="M291.6,260.1c0.9,5.3,7.2,3,13.6,2.9c7.4,0,14.2,3.5,13.9-4.9c-0.2-6.2-6.6-8.7-15.9-9
							S290.5,253.3,291.6,260.1z"/>
					</g>
					<circle class="st0" cx="301" cy="253.8" r="2.7"/>
					<circle class="st0" cx="301.7" cy="258.7" r="1"/>
				</g>
				<g>
					<g>
						<path class="st0" d="M236.1,260.1c-1,5.1-6.9,2.4-12.9,2.4c-6.8,0.1-13.5,2.9-13-5c0.4-5.8,6.4-8,15.2-8.1
							C234.2,249.4,237.3,253.7,236.1,260.1z"/>
						<path class="st12" d="M236.3,258.9c-2.5-5.4-7.8-6.3-14.4-5.3c-7,1.1-10.3,3.9-11.3,7.3c-0.3-1-0.4-2.2-0.3-3.4
							c0.4-5.8,6.4-8,15.2-8.1C233.6,249.4,236.9,253.2,236.3,258.9z"/>
						<path class="st13" d="M217.7,257.6c0-3.2,2.7-5.7,5.8-5.7c3.2,0,5.7,2.7,5.7,5.8c0,3.2-2.7,5.7-5.8,5.7
							C220.2,263.4,217.7,260.8,217.7,257.6z"/>
						<path class="st14" d="M236.1,260.1c-0.9,5-6.9,2.6-12.9,2.4c-6.9-0.2-13.5,3-13-5c0.4-5.8,6.4-8,15.2-8.1
							C234.2,249.4,237.3,253.7,236.1,260.1z"/>
					</g>
					<circle class="st0" cx="219.2" cy="255.1" r="2.5"/>
					<circle class="st0" cx="220.2" cy="259.4" r="1"/>
				</g>
				<g>
					<path class="st1" d="M366.7,232.9c-2.3-5.6-14-7.4-38.1-4.1c-24.1,3.3-43.4,7.9-84.8,12.7s-60.9-1.2-75.2-9.2
						c10.9-2.4,27-8.9,37.5-14l0,0c12.9-2.5,21.6-4.4,45.5-4.9c23.8-0.5,60.4,1,81.9,1.4c7.7,1.5,14.1,3.2,20,5.1
						C360.3,222.1,370.1,226.4,366.7,232.9z"/>
					<path class="st2" d="M333.9,214.9c-0.1,0-0.2,0-0.3,0c-21.4-0.4-58.1-1.9-81.9-1.4c-23.9,0.5-32.6,2.5-45.5,4.9l0,0
						c0.9-4.7,1.9-9.8,2.9-14.6c0.6-0.4,1.2-0.7,1.9-1.1c7.6-4.3,22.9-10.3,37.5-11.7c24.6-2.3,51.3,6.1,81.1,14.3
						c0.4,0.1,0.9,0.2,1.3,0.4C331.9,209,332.8,211.9,333.9,214.9z"/>
					<path class="st1" d="M329.5,205.3c-29.7-8.2-56.5-16.6-81.1-14.3c-14.6,1.4-29.9,7.4-37.5,11.7c0.8-8.7,4-13.9,5.4-19.2
						c1.5-5.3,2-10.3,3.1-12.5c1.2-2.2,8.5-7.3,16.5-12.3c4.6-2.8,7.9-4.4,10.8-4.6c2.2-0.2,4,0.3,6.3,0.9c4.8,1.1,9.8,0.8,14.8-0.4
						c5-1.3,7.1,0,15.5,2.7c8.4,2.7,18.4,5.7,27,9.1c8.6,3.3,9.7,6.4,12,14.5C324.9,189,327.6,198.6,329.5,205.3z"/>
					<path class="st6" d="M366.7,232.9c-2.1-5.2-12.2-7.1-32.6-4.8c-5-4.9-9.3-7.4-12.4-8.8c-3.7-1.7-7.3-1.7-9.8-1.5
						s-4.1,0.2-4.3-1.2c-0.2-1.4-13.3-2.7-19.4-2.9c16.6,0.4,33.4,0.9,45.5,1.2c7.7,1.5,14.1,3.2,20,5.1
						C360.3,222.1,370.1,226.4,366.7,232.9z"/>
					<path class="st6" d="M261.4,239.3c-5.4,0.7-11.3,1.5-17.6,2.2c-41.4,4.8-60.9-1.2-75.2-9.2c10.9-2.4,27-8.9,37.5-13.9
						c-9.9,6-20.8,12-19.7,15.4C187.2,235.9,201.7,244.5,261.4,239.3z"/>
					<path class="st6" d="M329.5,205.3c-5.8-1.6-11.6-3.2-17.2-4.8c-1-11.8-5.6-27.5-8.6-30.1c-3.8-3.2-18.8-8.2-25-10.2
						c-6.1-2-10.1-3.1-14,0c-3.3,2.7-8.7,4.5-11.5,0.9c-3.4-4.4-9.4-2.5-13.2-0.8c-3.8,1.8-15.8,10-17.4,12c-1.6,2-1.9,9.4-3,12.7
						c-1.1,3.2-5.5,4.5-6.6,7.5c1.1-3.4,2.4-6.2,3.2-9.1c1.5-5.3,2-10.3,3.1-12.5c1.2-2.2,8.5-7.3,16.5-12.3
						c4.6-2.8,7.9-4.4,10.8-4.6c2.2-0.2,4,0.3,6.3,0.9c4.8,1.1,9.8,0.8,14.8-0.4c5-1.2,7.1,0,15.5,2.7c8.4,2.7,18.4,5.8,27,9.1
						s9.7,6.4,12,14.5C324.9,189,327.6,198.6,329.5,205.3z"/>
					<path class="st6" d="M333.9,214.9c-0.1,0-0.2,0-0.3,0c-21.4-0.4-58.1-1.9-81.9-1.4c-23.9,0.5-32.6,2.5-45.5,4.9l0,0
						c0.2-0.9,0.4-1.8,0.6-2.8c29.9-8.5,57.9-5.7,74.1-5.5c17.3,0.2,23.2,1.3,23.9,0c0.7-1.3-0.1-8.6-1.1-11.8
						c8.4,2.2,17,4.7,25.8,7.1c0.4,0.1,0.9,0.2,1.3,0.4C332,209,332.8,211.9,333.9,214.9z"/>
					<path class="st8" d="M203.1,253c-22.7-3.9-30.7-15.4-34.5-20.6c14.3,8,33.7,14,75.2,9.2s60.6-9.4,84.8-12.7
						c24.1-3.3,35.8-1.5,38.1,4.1c-2.7,4.8-8.7,8.9-18,12.2"/>
					<path class="st8" d="M366.7,232.9c-2.3-5.6-14-7.4-38.1-4.1c-24.1,3.3-43.4,7.9-84.8,12.7s-60.9-1.2-75.2-9.2
						c10.9-2.4,27-8.9,37.5-14l0,0c12.9-2.5,21.6-4.4,45.5-4.9c23.8-0.5,60.4,1,81.9,1.4c7.7,1.5,14.1,3.2,20,5.1
						C360.3,222.1,370.1,226.4,366.7,232.9z"/>
					<path class="st8" d="M333.9,214.9c-0.1,0-0.2,0-0.3,0c-21.4-0.4-58.1-1.9-81.9-1.4c-23.9,0.5-32.6,2.5-45.5,4.9l0,0
						c0.9-4.7,1.9-9.8,2.9-14.6c0.6-0.4,1.2-0.7,1.9-1.1c7.6-4.3,22.9-10.3,37.5-11.7c24.6-2.3,51.3,6.1,81.1,14.3
						c0.4,0.1,0.9,0.2,1.3,0.4C331.9,209,332.8,211.9,333.9,214.9z"/>
					<path class="st8" d="M329.5,205.3c-29.7-8.2-56.5-16.6-81.1-14.3c-14.6,1.4-29.9,7.4-37.5,11.7c0.8-8.7,4-13.9,5.4-19.2
						c1.5-5.3,2-10.3,3.1-12.5c1.2-2.2,8.5-7.3,16.5-12.3c4.6-2.8,7.9-4.4,10.8-4.6c2.2-0.2,4,0.3,6.3,0.9c4.8,1.1,9.8,0.8,14.8-0.4
						c5-1.3,7.1,0,15.5,2.7c8.4,2.7,18.4,5.7,27,9.1c8.6,3.3,9.7,6.4,12,14.5C324.9,189,327.6,198.6,329.5,205.3z"/>
					<path class="st9" d="M306.6,197.4c1.7,4.2,3.1,11.3,3.1,17.8c4.8,0.2,14.6,0.5,18.3,0.6c0.1-3.8-1-9.9-2.8-13.2
						C321.8,201.5,314,199.3,306.6,197.4z"/>
					<path class="st6" d="M328,215.7c-3.7-0.1-13.5-0.4-18.3-0.6c0-2.3-0.2-4.7-0.5-7c0.2,1.5,1.8,2.6,4.9,3c3,0.3,7.8,0.8,8.6-0.5
						c0.8-1.3-0.3-5-0.9-6.3c-0.6-1.3-1.8-3.1-3.8-3.8c0,0,0,0,0,0c3.1,0.9,5.7,1.6,7.3,2.1C327,205.8,328.1,211.9,328,215.7z"/>
					<path class="st8" d="M306.6,197.4c1.7,4.2,3.1,11.3,3.1,17.8c4.8,0.2,14.6,0.5,18.3,0.6c0.1-3.8-1-9.9-2.8-13.2
						C321.8,201.5,314,199.3,306.6,197.4z"/>
				</g>
			</g>
		</g>
		<g>
			<path class="st2" d="M144.7,474.3c2.1-0.1,3.6,0.7,4.6,2.4l15.7,37.3l15.7-37.3c1-1.6,2.5-2.4,4.6-2.4h11.6
				c2.8,0.2,4,2.8,3.5,7.7l-1.2,9.7l-3.5,1.6v8.6c0.3,3,1.8,5.6,4.3,7.5c-2.6,2.1-4,4.7-4.3,7.7v8.4l3.4,1.6l1.4,9.8
				c0.4,4.9-0.8,7.5-3.5,7.7h-14.7c-2.8-0.2-4-2.8-3.5-7.7l1.3-9.8l3.4-1.6v-28.4l-12.1,28.4l3.3,1.6l1.5,9.8
				c0.3,4.9-0.9,7.5-3.5,7.7h-15.1c-2.7-0.2-3.9-2.8-3.5-7.7l1.5-9.8l3.3-1.6l-12.1-28.4v28.4l3.4,1.6l1.3,9.8
				c0.4,4.9-0.8,7.5-3.5,7.7H133c-2.7-0.2-3.9-2.8-3.5-7.7l1.4-9.8l3.4-1.6v-8.4c-0.3-3-1.8-5.6-4.3-7.7c2.6-2,4-4.5,4.3-7.5v-8.6
				l-3.5-1.6l-1.2-9.7c-0.4-4.9,0.8-7.5,3.5-7.7H144.7z"/>
			<path class="st2" d="M210.9,544.6c-2.7-0.2-3.9-2.8-3.5-7.7l1.4-9.8l3.4-1.6v-8.4c-0.3-3-1.8-5.6-4.3-7.7c2.6-2,4-4.5,4.3-7.5
				v-8.6l-3.5-1.6l-1.2-9.7c-0.4-4.9,0.8-7.5,3.5-7.7h25.1c1.7,0.1,2.9,1.4,3.6,4.1c0.1-2.5,1.2-3.9,3.3-4.1h7.1
				c2.8,0.2,4,2.8,3.5,7.7l-2.1,18.3c-0.2,1.4-0.7,2.2-1.4,2.3h-8.9c-0.8-0.1-1.2-0.9-1.4-2.3c-0.1-1.5-0.3-3.2-0.9-5.1
				c-0.5-2-1.5-3.1-3-3.5h-11.4v12.6h11.4c1.3,0.2,2,0.8,2.1,1.6v7c-0.1,0.8-0.8,1.3-2.1,1.6h-11.4v12.8h11.4c1.4-0.4,2.4-1.5,3-3.5
				c0.5-2,0.8-3.7,0.9-5.1c0.2-1.4,0.7-2.2,1.4-2.3h8.9c0.8,0.1,1.2,0.9,1.4,2.3l2.1,18.3c0.4,4.9-0.8,7.5-3.5,7.7H243
				c-2.1-0.2-3.2-1.6-3.3-4.1c-0.7,2.7-1.9,4.1-3.6,4.1H210.9z"/>
			<path class="st2" d="M264.3,544.6c-2.8-0.2-4-2.8-3.6-7.7l1.4-9.8l3.4-1.4v-8.6c-0.3-3-1.8-5.6-4.3-7.7c2.6-2,4-4.5,4.3-7.5v-8.6
				l-3.4-1.6l-1.3-9.7c-0.4-4.9,0.8-7.5,3.5-7.7h11.5v-0.1v0.1c1.4,0.2,2.5,0.8,3.2,1.9l10.9,33.9v-16.9l-3.4-1.4l-1.3-9.8
				c-0.4-4.9,0.8-7.5,3.5-7.7h14.5c2.8,0.2,4,2.8,3.6,7.7l-1.4,9.8l-3.4,1.4v8.6c0.3,3,1.8,5.6,4.3,7.7c-2.6,2-4,4.5-4.3,7.5v8.6
				l3.4,1.6l1.3,9.7c0.4,4.9-0.8,7.5-3.5,7.7h-11.5c-1.4-0.2-2.5-0.8-3.2-1.9l-10.9-33.9v16.9l3.4,1.4l1.3,9.8
				c0.4,4.9-0.8,7.5-3.5,7.7H264.3z"/>
			<path class="st2" d="M326,544.6c-2.7-0.2-3.9-2.8-3.5-7.7l1.4-9.8l3.4-1.6v-8.4c-0.3-3-1.8-5.6-4.3-7.7c2.6-2,4-4.5,4.3-7.5V492
				c-0.9,0.6-1.6,1.7-2.1,3.5c-0.5,1.7-0.8,3.3-0.8,4.8c-0.2,1.4-0.7,2.2-1.4,2.3h-5.5c-0.8-0.1-1.2-0.9-1.4-2.3l-2.1-18.3
				c-0.4-4.9,0.8-7.5,3.5-7.7h3.7c2.1,0.2,3.2,1.6,3.3,4.1c0.7-2.7,1.9-4.1,3.6-4.1h10.9c1.7,0.1,2.9,1.4,3.6,4.1
				c0.1-2.5,1.2-3.9,3.3-4.1h3.7c2.8,0.2,4,2.8,3.5,7.7l-2.1,18.3c-0.2,1.4-0.7,2.2-1.4,2.3h-5.5c-0.8-0.1-1.2-0.9-1.4-2.3
				c-0.1-1.5-0.3-3.1-0.8-4.8c-0.5-1.8-1.2-2.9-2.3-3.5v9.9c0.3,3,1.8,5.6,4.3,7.5c-2.6,2.1-4,4.7-4.3,7.7v8.4l3.4,1.6l1.3,9.8
				c0.4,4.9-0.8,7.5-3.5,7.7H326z"/>
			<path class="st2" d="M377.6,544.6c-4.4-0.2-8-2-10.9-5.4c-2.9-3.5-4.2-10.8-4.1-22.1c-0.3-3-1.8-5.6-4.3-7.7
				c2.6-2.1,4-4.7,4.3-7.7c-0.2-11.2,1.2-18.5,4.1-21.9c2.9-3.5,6.5-5.3,10.9-5.4h6.1c4.4,0.2,8,2,10.9,5.4
				c2.9,3.5,4.2,10.8,4.1,21.9c0.3,3,1.8,5.6,4.3,7.7c-2.6,2.1-4,4.7-4.3,7.7c0.2,11.3-1.2,18.7-4.1,22.1c-2.9,3.5-6.5,5.3-10.9,5.4
				H377.6z M378.4,491.6c-1.4,0.4-2.5,1.5-3,3.5c-0.6,2-0.8,4.1-0.8,6.5c0.3,3.1,1.7,5.7,4.2,7.8c-2.5,2.1-3.9,4.7-4.2,7.7
				c0,2.4,0.3,4.6,0.8,6.6c0.6,2,1.6,3.2,3,3.6h4.5c1.4-0.4,2.5-1.5,3-3.6c0.6-2,0.8-4.2,0.8-6.6c-0.3-3-1.7-5.6-4.2-7.7
				c2.5-2.1,3.9-4.7,4.2-7.8c0-2.3-0.3-4.5-0.8-6.5c-0.6-2-1.6-3.1-3-3.5H378.4z"/>
			<path class="st2" d="M411.6,544.6c-2.7-0.2-3.9-2.8-3.5-7.7l1.4-9.8l3.4-1.6v-8.4c-0.3-3-1.8-5.6-4.3-7.7c2.6-2.1,4-4.7,4.3-7.7
				v-8.4l-3.4-1.6l-1.3-9.7c-0.4-4.9,0.8-7.5,3.5-7.7h22.8c5.2,0.2,8.8,2.1,10.9,5.8c2,3.7,3,7.5,2.9,11.4v6.3
				c0.1,3.9-0.6,7.2-2.2,10c-1.6,2.8-3.5,4.8-5.7,5.7c2,1.7,4.7,2.5,8.2,2.3c-0.6,3.1-0.4,6.1,0.5,9l0.5,0.7l3.4,1.6l1.3,9.8
				c0.4,4.9-0.8,7.5-3.5,7.7H436c-2.8-0.2-4-2.8-3.5-7.7l1.3-9.8l3.4-1.6l-7.7-10.5H425v10.5l3.4,1.6l1.3,9.8
				c0.4,4.9-0.8,7.5-3.5,7.7H411.6z M433.1,491.5h-8v12.3h8.2c1.9-0.4,3.1-1.9,3.5-4.6C436.5,494.6,435.3,492,433.1,491.5z"/>
		</g>
		<g>
			<g>
				<path class="st2" d="M248.8,457l-122.5-6.9l122.5-6.9c6.6,3.6,14.6,5.8,23.7,6.9C263.9,451,255.8,453.1,248.8,457z"/>
				<path class="st2" d="M335.2,457l122.5-6.9l-122.5-6.9c-6.6,3.6-14.6,5.8-23.7,6.9C320.1,451,328.1,453.1,335.2,457z"/>
			</g>
			<circle class="st2" cx="292" cy="450.1" r="6.9"/>
		</g>
		<polygon class="st2" points="139.9,283.7 131.3,287.4 132.2,278.1 126,271.1 135.2,269 139.9,261 144.7,269 153.8,271.1 
			147.6,278.1 148.5,287.4 		"/>
		<polygon class="st2" points="443.8,283.7 435.2,287.4 436.1,278.1 429.9,271.1 439.1,269 443.8,261 448.6,269 457.7,271.1 
			451.5,278.1 452.4,287.4 		"/>
	</g>
	<path class="st15" d="M449.1,523.4c-24.3,3.8-18.2-49-18.2-49s-25,87-64.1,42.2c0,0-124.1,59.9-159-39.9c0,0-18,82.2-69,84.3
		C87.7,563,87.9,488,87.9,488s-3.6,62.6-11.7,20.3c-3.5,26.7-8.8,52.9-17.4,60.5l13.1,19.5l77.5-8.7l184.9-13.1l24.7-3l126.5,31.8
		l14.5-11.6c0,0-9.6-109.2-6.9-178.2C483.9,439.5,466.8,520.6,449.1,523.4z"/>
	<path class="st15" d="M486.7,28.1L47.8,38.9l-0.3,13c0,0,18.7,19.5,28.3,84.4c15.6-71.1,27.5,64.9,27.5,64.9s27.8-63.6,90.3-85.7
		c143.2-50.5,186-13,186-13s2.6-32.2,16-41.4c13.4-9.2,21.9,17.7,21.9,17.7c12.8-4.4,8.6,20.7,8.6,20.7s20.1-29.9,51.8-2.4
		c31.5,27.4,29.2,105.8,29.2,105.8c6.2-36.2,17.4-86.3,35.2-114.6L486.7,28.1z"/>
	<g>
		<g>
			<path class="st2" d="M61.6,582l-9.2-13.6l2.6-2.9c8.7-9.7,10.8-23.7,13.5-41.4c0.8-5.3,1.6-10.7,2.7-16.4
				c4.4-66,17.2-285.9-0.2-370.3c-1.3-5.1-2.6-11-3.9-17.3c-4.7-22.2-10.6-49.9-23.4-65l9.6-6.5c14.5,17,20.6,46,25.6,69.4
				c1.3,6.2,2.6,12.1,3.8,17l0.1,0.2c17.8,85.7,4.8,307.5,0.4,373.4l-0.1,0.6c-1.1,5.6-1.9,11.1-2.7,16.4c-2.6,17.1-7.4,38-16,49.5
				l7.5,1.3L61.6,582z"/>
		</g>
		<g>
			<path class="st2" d="M493.1,584c-0.5-8.3-11.8-197.7-5.2-271.4c-8,2.1-16.1,3.1-20.2-3.2c-4.1-6.3,1.3-15.1,3.1-18
				c4.4-7.1,10.3-16.5,21.6-28C494,247,507,131.5,536,85.5l10.5,5.3c-29.3,46.5-42.3,174-42.4,175.3l-0.2,1.8l-1.2,1.3
				c-25.1,25.3-26.5,33.2-26.5,34.7c2.3,1,10.7-0.4,17.8-3.1l7.7-2.9l-1,8.2c-8.1,66.2,4.3,275.2,4.5,277.3L493.1,584z"/>
		</g>
	</g>
	<g>
		<path class="st16" d="M577.4,118.6c0,0-91.6-65-109.3-64.5c-17.7,0.5-31.2,5.6-31.2,5.6l17.6-18.5l-34.3,11.6
			c0,0,11.2-10.1,1.5-12.3c-9.7-2.2-17.5,8.9-17.5,8.9s-267-20.9-313,31.3c0,0,1.1-15.4,2.7-29.6c0,0-28.2,29.7-52.7,26.2
			c-24.5-3.5-30.1-6.3-30.1-6.3S46.5,16,59.5,12.3c13-3.7,254.6,11.5,334.1,13.9c79.5,2.4,112.1-18.1,140.8,5.9
			C563,56.1,577.4,118.6,577.4,118.6z"/>
		<path class="st17" d="M570.3,94.5c-1.1-3.2-2.3-6.6-3.6-10.1c-2.2-5.8-4.8-11.9-7.8-17.9c-1.2-2.4-2.4-4.8-3.7-7.2
			c-5.8-10.6-12.7-20.4-20.7-27.1c-0.8-0.7-1.6-1.2-2.4-1.8c-0.8-0.6-1.5-1.2-2.3-1.7c0.7,1.3,25.5,46.6-6.1,31
			c-32-15.7-130-33.5-213.6-28.2c-83.6,5.3-194.3-2.9-114.4-14.8c-69.5-3.5-129.8-6.2-136.2-4.4c-13,3.7-48.5,58.6-48.5,58.6
			s5.6,2.9,30.1,6.3c6.1,0.9,12.5-0.3,18.6-2.6c3-1.1,6-2.6,8.9-4.1C82.8,62.6,93.9,51,93.9,51c-0.7,6.2-1.3,12.7-1.8,18
			c-0.1,1.5-0.2,2.9-0.4,4.2c-0.1,1.3-0.2,2.4-0.3,3.4c-0.2,2.5-0.3,4-0.3,4c4.3-4.9,10.6-9.2,18.3-12.8c2.6-1.2,5.4-2.4,8.3-3.5
			c1.5-0.6,3-1.1,4.5-1.6c4.6-1.6,9.6-3,14.8-4.3c1.7-0.4,3.5-0.9,5.3-1.3c3.6-0.8,7.3-1.6,11.2-2.3c5.8-1.1,11.7-2.1,17.9-2.9
			c8.2-1.2,16.8-2.1,25.6-2.9c4.4-0.4,8.8-0.8,13.3-1.1c20.1-1.5,41-2.2,61.3-2.5c6.8-0.1,13.4-0.1,20-0.1c2.2,0,4.4,0,6.5,0
			c4.3,0,8.6,0.1,12.8,0.1c52.4,0.8,93.1,4,93.1,4s7.8-11.1,17.5-8.9c3.6,0.8,4.3,2.8,3.8,4.9c-0.4,1.4-1.3,2.9-2.3,4.1
			c-1.5,1.9-3,3.3-3,3.3l34.3-11.6l-17.6,18.5c0,0,1.9-0.7,5.2-1.6c5.5-1.5,15-3.6,26-4c3.3-0.1,9.2,2.1,16.7,5.7
			c1.2,0.6,2.5,1.3,3.8,1.9c2.6,1.4,5.4,2.9,8.3,4.5c15.9,8.9,35,21.3,50.6,31.7c2.8,1.9,5.6,3.7,8.1,5.5
			c12.8,8.7,21.8,15.1,21.8,15.1S575,108.3,570.3,94.5z"/>
		<path class="st18" d="M577.4,118.6c0,0-91.6-65-109.3-64.5c-17.7,0.5-31.2,5.6-31.2,5.6l17.6-18.5l-34.3,11.6
			c0,0,11.2-10.1,1.5-12.3c-9.7-2.2-17.5,8.9-17.5,8.9s-267-20.9-313,31.3c0,0,1.1-15.4,2.7-29.6c0,0-28.2,29.7-52.7,26.2
			c-24.5-3.5-30.1-6.3-30.1-6.3S46.5,16,59.5,12.3c13-3.7,254.6,11.5,334.1,13.9c79.5,2.4,112.1-18.1,140.8,5.9
			C563,56.1,577.4,118.6,577.4,118.6z"/>
	</g>
	<g>
		<path class="st16" d="M538.6,587.6c0,0-31.7,29.9-43.6,21.9c-11.9-8-136.2-33.9-172.1-32.4c-89.8,3.7-186.6,26.8-225.4,35.7
			c-8.6,2-18.2-1.4-24.5-8.6c-13-14.8-34.1-41-39.1-59.1c0,0,23.5,35.7,59.7,33c36.2-2.7,247.9-29,247.9-29s-5.3,25.2,16.8,1.4
			c0,0-1.5,17.2,32.8,14.3c34.3-2.9,73.4-0.7,87.1,7.8c17.1,10.7,37.1,2,37.1,2s-1.4,10.1-13.7,15.3
			C501.5,590,513.5,593.1,538.6,587.6z"/>
		<path class="st17" d="M97.4,612.8c38.9-9,135.6-32,225.4-35.7c35.8-1.5,160.2,24.4,172.1,32.4c11.9,8,43.6-21.9,43.6-21.9
			c-20,12.6-56.1,17.2-141.3-11.7c-85.2-28.9-182.8-3.7-258.9,11.6c-69.7,14-93.5-19.8-97-25.6c8.7,15.2,22.2,31.7,31.6,42.3
			C79.3,611.4,88.8,614.8,97.4,612.8z"/>
		<path class="st18" d="M538.6,587.6c0,0-31.7,29.9-43.6,21.9c-11.9-8-136.2-33.9-172.1-32.4c-89.8,3.7-186.6,26.8-225.4,35.7
			c-8.6,2-18.2-1.4-24.5-8.6c-13-14.8-34.1-41-39.1-59.1c0,0,23.5,35.7,59.7,33c36.2-2.7,247.9-29,247.9-29s-5.3,25.2,16.8,1.4
			c0,0-1.5,17.2,32.8,14.3c34.3-2.9,73.4-0.7,87.1,7.8c17.1,10.7,37.1,2,37.1,2s-1.4,10.1-13.7,15.3
			C501.5,590,513.5,593.1,538.6,587.6z"/>
	</g>
	<path class="st18" d="M55,565.5c8.7-9.7,10.8-23.7,13.5-41.4c0.8-5.3,1.6-10.7,2.7-16.4c4.4-66,17.2-285.9-0.2-370.3
		c-1.3-5.1-2.6-11-3.9-17.3c-3-14-6.4-30.2-11.7-44"/>
	<path class="st18" d="M543.8,95.4c-27.4,49.8-39.6,169.5-39.7,170.7l-0.2,1.8l-1.2,1.3c-25.1,25.3-26.5,33.2-26.5,34.7
		c2.3,1,10.7-0.4,17.8-3.1l7.7-2.9l-1,8.2c-7.3,59.9,2.2,236.7,4.1,271.4"/>
</g>
</svg>
