<svg width="285" height="302" viewBox="0 0 285 302" fill="none" xmlns="http://www.w3.org/2000/svg">
<g clip-path="url(#clip0_53_212)">
<path d="M280.88 269.589C277.665 251.009 272.305 236.449 265.159 226.087C264.712 225.461 264.176 224.747 263.73 224.032C261.854 220.816 260.335 218.315 258.817 215.993C258.281 215.189 257.655 214.563 256.941 213.938C254.618 211.169 252.385 208.847 249.884 206.881C249.884 205.184 249.973 203.398 249.973 201.7C250.241 199.11 250.42 195.537 249.884 192.5C249.795 192.232 249.795 191.964 249.705 191.606C249.437 185.443 248.901 179.19 248.097 173.116V172.49C247.74 164.987 247.383 157.216 246.132 150.873C244.524 142.209 241.666 134.169 238.897 126.398L238.807 126.13C228.892 98.4384 215.761 76.7319 198.699 59.6704C195.305 56.008 191.732 52.5243 188.07 49.2192C185.032 46.2714 181.995 43.5916 179.048 41.2691C176.636 39.3039 173.599 37.3387 169.847 35.2842C166.274 32.9617 162.611 30.8178 158.86 28.8526C158.592 28.674 158.324 28.4953 158.056 28.406C156.894 27.7807 155.733 27.2447 154.304 26.6194C151.178 25.1009 147.872 23.6717 144.567 22.3318C144.121 22.1531 143.763 21.8851 143.317 21.7065C134.116 16.7935 119.02 12.1485 110.623 9.82597C107.318 8.57539 105.978 8.12876 104.281 8.12876C102.852 8.12876 101.422 8.48607 100.082 9.20068C98.5639 10.0046 97.4026 11.1659 96.5094 12.5058C95.7948 12.4165 95.0801 12.3271 94.4548 12.2378C88.6486 11.0765 84.8969 9.73664 83.1103 8.12876C82.3957 7.50347 81.0558 6.43154 79.9839 5.71693C78.8226 4.37702 76.8574 2.41183 73.999 1.33991C73.8203 1.25058 73.6417 1.16125 73.463 1.07192C72.2124 0.357308 70.7832 0 69.2646 0C65.3342 0 62.9224 2.50116 62.0291 3.3051C60.2426 5.09164 59.7066 6.34222 59.3493 7.32481C58.8134 8.84337 58.4561 10.5406 58.3667 12.2378C54.4364 12.4165 51.5779 13.7564 49.3447 14.9176C47.4688 15.2749 45.593 15.6322 43.8958 16.0789C40.0547 17.0615 36.1243 18.58 32.4619 20.4559C28.6208 21.8851 27.2809 25.0116 26.9236 26.3515C26.3877 28.2273 26.477 30.2819 27.2809 32.0684C23.0826 34.5696 20.9387 36.6241 19.5988 38.3213C19.3308 38.5893 19.1522 38.7679 18.8842 39.0359C15.4005 42.341 15.4005 46.45 16.4724 49.1299C16.651 49.6658 17.0083 50.2018 17.3656 50.8271C12.006 54.7575 9.41554 57.7052 9.41554 62.0823C9.41554 65.0301 10.8448 67.6205 12.9886 69.2284H9.41554C4.68121 69.2284 0.840149 73.0695 0.840149 77.8038C0.840149 82.5382 4.68121 86.3792 9.41554 86.3792H10.0408C-0.67841 113.981 2.80534 148.104 20.3134 188.212C20.8494 190.892 21.4747 193.929 23.4399 198.217C24.2438 199.914 25.2264 202.772 25.8517 205.184C25.8517 205.541 25.941 205.899 25.941 206.256C26.0304 207.417 26.1197 208.4 26.477 209.383C26.745 210.633 27.2809 211.884 27.9956 212.866C27.9956 212.956 27.9956 213.134 27.9956 213.224C27.9062 213.938 27.9062 214.563 27.8169 215.189C27.7276 215.367 27.6383 215.725 27.5489 215.993C26.9236 218.047 25.8517 221.799 28.6208 225.372C28.7995 225.64 28.9782 225.819 29.1568 225.997L28.9782 233.769C27.1916 235.645 25.941 237.788 25.0478 239.486C21.4747 246.453 22.5466 251.188 23.9758 253.957L19.1522 267.356L18.7949 268.338C16.1151 274.77 12.9886 282.095 11.2914 289.777C10.7554 291.921 11.1128 294.154 12.1847 295.94C12.542 296.655 12.8993 297.459 13.4353 298.084C15.0431 300.139 17.5443 301.3 20.1348 301.3C20.2241 301.3 20.2241 301.3 20.3134 301.3C22.1 301.3 45.2357 301.032 74.4456 300.764C129.203 300.228 211.384 299.424 251.581 298.978C252.385 299.245 253.189 299.335 254.082 299.335C254.172 299.335 254.261 299.335 254.44 299.335C260.692 299.067 268.285 298.799 273.02 298.62C273.913 298.62 274.538 298.62 274.985 298.531C275.163 298.531 275.342 298.531 275.521 298.531H276.503C279.004 298.442 281.327 297.28 282.935 295.315C284.543 293.35 285.168 290.849 284.721 288.348C283.649 281.827 282.31 275.484 280.88 269.589ZM18.3482 62.3503C18.2589 62.3503 18.2589 62.3503 18.2589 62.3503H18.3482ZM16.2937 95.0439C17.0083 92.8108 17.8123 90.4883 18.7056 88.3444C17.723 90.4883 16.919 92.7214 16.2937 95.0439ZM21.2067 61.725C21.1174 61.725 21.0281 61.725 21.0281 61.725C21.1174 61.725 21.2067 61.725 21.2067 61.725C21.296 61.725 21.296 61.725 21.2067 61.725ZM24.8691 45.2888C25.3157 44.8422 25.8517 44.3955 26.2983 44.0382C25.8517 44.3955 25.3157 44.8422 24.8691 45.2888ZM26.209 46.2714C26.209 46.2714 26.209 46.2714 26.2983 46.2714C26.2983 46.2714 26.2983 46.2714 26.209 46.2714ZM32.3726 64.5834C31.3007 66.102 30.3181 67.6205 29.3355 69.2284C30.3181 67.7099 31.3007 66.102 32.3726 64.5834C32.6406 64.0475 32.9085 63.6008 33.1765 63.0649C32.9085 63.6008 32.6406 64.0475 32.3726 64.5834ZM34.8737 256.726C34.5164 257.262 34.0698 257.887 33.7125 258.423C34.0698 257.887 34.5164 257.351 34.8737 256.726C34.9631 256.636 35.1417 256.458 35.231 256.279C35.1417 256.458 34.9631 256.636 34.8737 256.726ZM34.6058 203.934C34.6951 204.202 34.6951 204.47 34.7844 204.738C34.6951 204.47 34.6951 204.202 34.6058 203.934ZM35.1417 207.864C35.1417 207.864 35.231 207.864 35.1417 207.864C35.231 207.864 35.1417 207.864 35.1417 207.864ZM36.571 216.439C36.6603 215.903 36.6603 215.367 36.7496 214.831C36.6603 215.367 36.571 215.903 36.571 216.439ZM37.5535 238.324C37.5535 238.324 37.6429 238.324 37.5535 238.324C37.6429 238.324 37.6429 238.324 37.7322 238.324C37.7322 238.324 37.6429 238.324 37.5535 238.324ZM38.0895 238.503C38.0002 238.414 37.9109 238.324 37.8215 238.324C37.9109 238.414 38.0002 238.414 38.0895 238.503C38.1788 237.342 38.2682 236.181 38.4468 234.93C38.2682 236.181 38.0895 237.431 38.0895 238.503ZM28.7102 53.4175C28.4422 53.5962 28.1742 53.6855 27.9062 53.8642C28.1742 53.7749 28.4422 53.5962 28.7102 53.4175L38.8041 46.0927L28.7102 53.4175ZM48.0048 32.247C48.0048 32.247 48.0941 32.247 48.1835 32.247C48.1835 32.247 48.0941 32.247 48.0048 32.247ZM52.2032 23.225C49.8807 23.5823 47.8262 24.029 46.0396 24.4756C47.8262 24.029 49.97 23.5823 52.2032 23.225C52.4712 23.0464 52.7391 22.957 53.0071 22.7784C52.8285 22.957 52.4712 23.1357 52.2032 23.225ZM58.992 20.9025H59.0814C59.0814 20.9025 59.0814 20.9025 59.1707 20.9025C59.1707 20.9025 59.0814 20.9025 58.992 20.9025ZM69.2646 8.66472C69.354 8.66472 69.354 8.66472 69.354 8.66472H69.2646ZM77.2147 14.5603C77.1254 14.471 76.7681 14.203 76.4108 13.935C76.8574 14.203 77.1254 14.3816 77.2147 14.5603C78.1973 15.4536 79.2693 16.1682 80.4305 16.7935C79.2693 16.1682 78.1973 15.3642 77.2147 14.5603ZM82.3957 17.6867C83.6463 18.2227 85.0755 18.7587 86.5048 19.116C84.9862 18.7587 83.6463 18.312 82.3957 17.6867ZM177.708 51.5417C179.137 52.7923 180.655 54.1322 182.085 55.5614C180.566 54.1322 179.137 52.7923 177.708 51.5417ZM230.5 129.078C228.445 123.271 226.123 117.554 223.711 112.195C226.212 117.554 228.445 123.182 230.5 129.078C231.215 131.043 231.84 132.919 232.554 134.884C231.929 132.919 231.215 130.953 230.5 129.078ZM239.433 173.92C239.343 171.954 239.254 170.079 239.165 168.203C239.254 170.079 239.343 172.044 239.433 173.92C239.611 175.528 239.79 177.046 239.969 178.654C239.79 177.046 239.611 175.528 239.433 173.92ZM241.04 211.258C240.772 211.08 240.505 210.812 240.237 210.633C240.505 210.901 240.772 211.08 241.04 211.258C241.487 211.616 242.023 211.884 242.47 212.241C242.023 211.973 241.576 211.616 241.04 211.258Z" fill="white"/>
<path d="M38.1788 56.008C34.5164 56.008 24.8691 76.1066 22.6359 80.2157C6.46771 110.587 12.3633 145.96 25.2264 176.242C28.5315 184.014 27.0129 186.425 30.4074 193.661C31.9259 197.055 34.0698 203.219 34.0698 206.792C34.0698 207.596 35.0524 205.363 35.0524 205.363C35.0524 205.363 35.0524 208.221 33.8911 205.631C33.5338 204.827 33.2658 200.003 34.0698 200.003C34.5164 200.003 36.1243 215.367 36.2136 215.725C39.7867 225.283 37.1069 232.429 36.9282 237.967C36.7496 243.505 50.8632 248.597 57.6521 250.384C83.2889 257.262 109.194 250.026 134.831 250.026C141.262 250.026 159.753 252.17 165.112 246.453C169.668 241.54 171.097 235.287 174.76 229.749C179.673 222.335 191.196 213.313 199.146 209.918C207.364 206.345 217.637 208.579 225.766 210.722C227.82 211.258 234.073 214.117 236.127 211.884C239.522 208.311 241.04 197.77 240.147 193.214C237.914 181.066 238.629 163.29 236.485 151.588C234.966 143.548 232.197 135.866 229.428 128.184C218.53 97.7237 203.166 72.8908 178.78 53.8642C172.705 49.1298 162.433 40.6438 155.465 36.892C148.766 33.319 144.657 31.8897 137.868 28.2273C128.935 23.493 113.124 18.6693 103.566 16.0789C101.154 15.4536 107.229 20.0986 106.961 20.5452C106.693 21.1705 100.797 21.0812 99.9038 20.9025C91.9537 19.2053 83.9142 19.384 76.2321 15.7215C74.9815 15.0963 71.3191 6.87817 67.6567 8.39673C64.4409 10.2726 71.4978 25.9048 71.4978 25.9048C71.4978 25.9048 70.8725 24.7436 70.4259 24.2969C68.282 22.4211 63.2797 20.9025 60.4212 20.3665C54.4363 19.116 51.8458 23.225 46.7542 24.2969C46.0396 24.4756 37.0176 26.7088 37.0176 26.7981C37.0176 28.138 49.702 29.2099 49.702 30.6392C49.702 31.8897 47.5581 31.3538 47.1115 31.4431C44.253 31.8897 23.9758 40.5545 25.1371 44.3062C25.673 46.0034 38.3575 44.6635 40.0547 45.7354C40.5013 46.0034 41.5732 46.0927 41.5732 46.0927C41.5732 46.0927 32.2832 51.2737 29.0674 52.167C24.9584 53.2389 17.0976 62.0823 20.9387 60.8317" fill="#CAA77A"/>
<path d="M216.029 201.79C215.225 201.79 214.421 201.879 213.528 202.147C200.843 206.077 183.961 212.062 175.832 223.675C173.241 227.337 169.222 237.074 165.648 239.575C164.041 240.736 161.897 241.451 159.842 241.808C149.748 243.952 142.066 245.024 132.062 247.168C110.444 251.813 91.5071 250.205 69.8899 245.56C66.4062 244.845 57.4735 244.041 53.9004 243.416C49.702 242.701 46.1289 242.612 41.9306 241.451C37.0176 240.111 37.3749 238.771 37.2856 238.324C36.9283 234.215 28.3529 245.471 31.0327 249.222C32.1939 250.83 34.0698 251.991 35.0524 253.51C35.5884 254.403 34.2484 255.386 33.9805 255.833C29.3355 262.532 26.2983 270.125 23.4399 277.628C21.6533 282.452 20.4028 287.008 19.4202 291.653C25.7624 291.563 260.067 289.419 273.823 288.884C271.948 267.177 267.124 244.399 257.119 230.017C251.313 221.62 243.274 210.633 232.822 207.775C227.552 206.613 221.835 201.611 216.029 201.79Z" fill="#FFDB1F"/>
<path d="M20.5814 117.644C23.7078 104.066 28.7995 79.769 40.0547 77.5358C46.5756 76.2853 51.4885 76.7319 58.724 74.856C66.3168 72.8015 65.3342 74.7667 79.4479 74.4094C93.5616 74.0521 87.13 63.6902 87.666 63.5115C88.2019 63.3328 97.492 63.6902 124.29 75.8386C152.071 88.4337 174.581 75.5706 190.035 105.674C193.518 112.463 198.878 127.916 195.216 145.156C189.945 170.347 187.176 180.887 161.718 199.735C131.526 222.156 68.9966 233.233 37.8215 190.892C23.2612 170.972 14.7751 142.923 20.5814 117.644Z" fill="#FFDBAF"/>
<path d="M89.4525 126.398C78.9119 120.77 69.5326 152.571 70.4258 160.789C73.3736 188.927 96.7773 192.41 114.553 182.942C140.19 169.185 118.126 116.661 99.8144 124.522" fill="#9D7B51"/>
<path d="M15.1324 109.604C12.3633 121.842 21.3853 162.307 25.7623 165.791C29.0674 168.471 51.4885 164.54 67.746 143.906C83.1996 124.343 83.021 82.1808 79.8052 78.6077C77.9293 76.6426 36.4816 76.4639 32.7298 77.2678C27.3702 78.4291 18.8842 92.7214 15.1324 109.604Z" fill="#9D7B51"/>
<path d="M117.948 75.5707C104.906 174.545 180.834 182.852 188.248 171.419C192.982 164.094 210.491 109.962 172.973 72.8015C171.544 71.3723 117.948 75.2134 117.948 75.5707Z" fill="#9D7B51"/>
<path d="M51.3098 218.405L51.2205 227.784" stroke="#9D7B51" stroke-width="3.45696" stroke-miterlimit="10" stroke-linecap="round" stroke-linejoin="round"/>
<path d="M59.8852 223.228L59.7959 232.608" stroke="#9D7B51" stroke-width="3.45696" stroke-miterlimit="10" stroke-linecap="round" stroke-linejoin="round"/>
<path opacity="0.23" d="M19.2415 58.7772C25.4943 58.7772 30.7646 56.9013 36.8389 55.4721C38.5361 55.0254 39.6973 51.899 39.6973 53.7749C39.6973 54.2215 39.1614 54.2215 38.8934 54.4895C33.7124 57.8839 31.5686 63.6008 28.6208 69.4071C27.5489 71.3723 24.7797 76.9106 25.4943 75.5706C49.2553 29.4779 221.567 12.2378 211.652 199.199C211.562 200.896 209.687 203.666 211.116 204.202C214.242 205.273 219.155 202.058 223.086 203.666C224.783 204.38 237.289 211.884 238.629 210.901C240.862 209.293 239.79 200.361 239.701 197.502C236.753 115.857 197.806 67.4419 172.616 47.1647C157.341 34.9269 106.961 18.4014 105.978 18.1334C105.799 18.0441 105.621 21.7958 103.566 21.4385C96.0627 20.0986 82.9316 19.6519 76.4107 13.667C75.5175 12.8631 68.3713 7.5928 68.1033 8.12876C67.2994 9.9153 66.7634 20.0093 67.5674 21.5278C68.1927 22.5997 71.8551 20.9918 70.6938 20.9918C61.0465 20.9918 48.898 24.2969 38.5361 26.5301C38.1788 26.6194 37.4642 26.7088 37.4642 27.0661C37.4642 30.2819 50.9525 28.138 50.9525 30.3712C50.9525 31.2645 47.1115 31.8897 42.1092 33.4976C38.1788 34.7482 33.5338 36.7134 29.6927 39.8398C28.8888 40.4651 25.8517 42.9663 26.5663 43.7702C29.0674 46.45 35.231 43.145 38.5361 44.8422" fill="#3F2719"/>
<path opacity="0.23" d="M218.173 202.862C210.044 202.683 201.022 204.827 190.839 209.829C189.767 210.365 189.767 213.045 188.784 213.67C187.176 214.831 192.625 213.134 194.501 213.134C197.627 213.134 239.165 233.769 253.189 289.866C261.318 289.598 271.858 289.152 275.253 289.062C266.856 241.54 250.241 203.666 218.173 202.862Z" fill="#3F2719"/>
<path d="M40.5013 54.0428C33.4444 59.1345 29.2461 67.2632 24.5117 74.4987C1.28671 109.783 13.5245 154.536 30.05 189.909C31.4792 193.036 33.5338 196.609 34.0697 200.093C34.3377 201.879 33.3551 204.827 34.0697 206.345C34.3377 206.971 35.8563 204.648 35.9456 205.363C36.3029 208.579 35.9456 212.33 35.6776 215.546C35.5883 216.797 34.2484 220.012 35.0523 219.208C35.3203 218.94 36.1242 216.171 37.1962 216.529C37.8215 216.797 37.1962 236.627 36.8389 238.414" stroke="#2D1F04" stroke-width="2.34037" stroke-miterlimit="10" stroke-linecap="round" stroke-linejoin="round"/>
<path d="M38.3575 55.0254C34.963 56.9013 32.6405 56.9013 29.1568 57.9732C27.3702 58.5092 26.0303 59.2238 24.2438 59.5811C22.6359 59.9384 20.9387 60.1171 19.3308 60.5637C18.6162 60.7424 17.187 61.9929 17.187 61.189C17.187 58.6878 35.767 47.6113 39.2507 46.3607C39.7867 46.1821 40.5906 46.2714 40.7693 45.7354C41.0373 44.9315 39.34 44.9315 38.6254 44.7528C35.1417 43.7702 21.2067 46.986 23.8865 44.3955C38.5361 30.6392 49.434 34.0336 49.434 31.2645C49.434 27.9594 35.499 29.1206 34.4271 27.9594C34.2484 27.7807 34.8737 27.7807 35.0524 27.602C38.2681 25.9048 41.7519 24.4756 45.1463 23.6717C51.4885 22.0638 62.8331 20.4559 69.0859 22.6891" stroke="#2D1F04" stroke-width="2.34037" stroke-miterlimit="10" stroke-linecap="round" stroke-linejoin="round"/>
<path d="M69.9792 24.3863C68.1926 20.4559 64.8875 14.1137 66.5847 9.558C66.6741 9.29002 68.1033 7.68213 68.4606 7.95011C69.7112 8.66473 77.4826 21.7065 103.745 21.7958C104.638 21.7958 106.514 22.1531 106.514 22.1531C106.514 22.1531 101.154 16.9721 103.119 15.9002C103.477 15.7216 118.93 21.8851 120.27 22.5104C131.257 27.1554 142.423 29.9246 152.875 35.2842" stroke="#2D1F04" stroke-width="2.34037" stroke-miterlimit="10" stroke-linecap="round" stroke-linejoin="round"/>
<path d="M135.456 27.602C212.456 55.1148 242.648 141.137 240.147 209.115" stroke="#2D1F04" stroke-width="2.34037" stroke-miterlimit="10" stroke-linecap="round" stroke-linejoin="round"/>
<path d="M37.5535 238.86C97.5813 257.44 158.681 244.22 165.47 240.558" stroke="#2D1F04" stroke-width="2.34037" stroke-miterlimit="10" stroke-linecap="round" stroke-linejoin="round"/>
<path d="M37.5535 238.95C38.2681 234.751 33.3552 242.255 32.4619 244.399C31.122 247.525 34.0698 250.294 33.9804 251.902C33.8018 253.778 31.122 258.066 30.318 260.299C27.0129 269.678 21.564 280.04 18.9735 291.027" stroke="#2D1F04" stroke-width="2.34037" stroke-miterlimit="10" stroke-linecap="round" stroke-linejoin="round"/>
<path d="M250.598 220.102C253.457 224.3 256.047 228.945 258.459 233.322C265.069 245.292 271.322 269.41 274.717 288.348" stroke="#2D1F04" stroke-width="2.34037" stroke-miterlimit="10" stroke-linecap="round" stroke-linejoin="round"/>
<path d="M162.969 267.266C169.489 273.698 175.296 280.308 178.958 289.598" stroke="#2D1F04" stroke-width="2.34037" stroke-miterlimit="10" stroke-linecap="round" stroke-linejoin="round"/>
<path d="M176.189 283.613C175.385 277.718 174.76 270.214 172.348 264.944" stroke="#2D1F04" stroke-width="2.34037" stroke-miterlimit="10" stroke-linecap="round" stroke-linejoin="round"/>
<path d="M226.569 204.291C187.712 194.733 163.237 240.468 165.38 242.255" stroke="#2D1F04" stroke-width="2.34037" stroke-miterlimit="10" stroke-linecap="round" stroke-linejoin="round"/>
<path d="M252.028 222.335C244.703 212.241 238.718 208.579 226.927 204.559" stroke="#2D1F04" stroke-width="2.34037" stroke-miterlimit="10" stroke-linecap="round" stroke-linejoin="round"/>
<path d="M113.481 76.5532L186.104 74.3201" stroke="#2D1F04" stroke-width="9.51333" stroke-miterlimit="10" stroke-linecap="round" stroke-linejoin="round"/>
<path d="M79.5372 76.3746L14.0605 77.8932" stroke="#2D1F04" stroke-width="9.51333" stroke-miterlimit="10" stroke-linecap="round" stroke-linejoin="round"/>
<path d="M81.8597 129.524C81.6811 125.236 85.9688 121.127 95.5268 120.591C105.085 120.056 112.946 123.093 113.124 127.38C113.303 131.668 105.71 135.509 96.152 136.045C86.6834 136.492 82.0384 133.723 81.8597 129.524Z" fill="#251707"/>
<path d="M138.672 259.674C121.61 266.105 55.3296 265.569 34.6057 250.92" stroke="#2D1F04" stroke-width="2.34037" stroke-miterlimit="10" stroke-linecap="round" stroke-linejoin="round"/>
<path d="M46.8435 242.166C46.0396 244.845 45.1463 246.9 45.1463 249.848" stroke="#2D1F04" stroke-width="2.34037" stroke-miterlimit="10" stroke-linecap="round" stroke-linejoin="round"/>
<path d="M62.2078 245.471C61.0465 247.882 60.8679 251.188 60.8679 253.867" stroke="#2D1F04" stroke-width="2.34037" stroke-miterlimit="10" stroke-linecap="round" stroke-linejoin="round"/>
<path d="M80.5198 247.972L79.5372 254.582" stroke="#2D1F04" stroke-width="2.34037" stroke-miterlimit="10" stroke-linecap="round" stroke-linejoin="round"/>
<path d="M93.4722 249.848V250.92V251.634V252.706V253.51V254.225V254.939" stroke="#2D1F04" stroke-width="2.34037" stroke-miterlimit="10" stroke-linecap="round" stroke-linejoin="round"/>
<path d="M86.326 250.205V250.92V251.634V252.349V253.153V253.867" stroke="#2D1F04" stroke-width="2.34037" stroke-miterlimit="10" stroke-linecap="round" stroke-linejoin="round"/>
<path d="M137.064 247.972V248.686V249.49V250.92V251.634" stroke="#2D1F04" stroke-width="2.34037" stroke-miterlimit="10" stroke-linecap="round" stroke-linejoin="round"/>
<path d="M142.155 247.972V249.133V250.205V250.92" stroke="#2D1F04" stroke-width="2.34037" stroke-miterlimit="10" stroke-linecap="round" stroke-linejoin="round"/>
<path d="M147.336 119.43C146.89 119.341 146.443 119.341 145.996 119.252L147.336 119.43Z" fill="#2D1F04"/>
<path d="M85.7901 152.124C90.1671 143.281 94.5441 141.226 98.8318 145.335C100.529 146.943 102.226 149.444 103.923 152.839" stroke="#2D1F04" stroke-width="2.72447" stroke-miterlimit="10" stroke-linecap="round" stroke-linejoin="round"/>
<path opacity="0.8258" d="M156.18 82.9848H156.537C174.045 82.9848 188.159 99.2423 188.159 119.341C188.159 139.439 173.956 155.697 156.537 155.697H156.18C138.672 155.697 124.558 139.439 124.558 119.341C124.469 99.2423 138.672 82.9848 156.18 82.9848Z" fill="#B2B2B2"/>
<path d="M156.18 83.1635H156.537C173.42 83.1635 187.176 96.9198 187.176 113.803C187.176 130.685 173.42 144.442 156.537 144.442H156.18C139.297 144.442 125.541 130.685 125.541 113.803C125.541 96.8305 139.208 83.1635 156.18 83.1635Z" fill="white"/>
<path d="M156.18 83.1635H156.537C173.42 83.1635 187.176 96.9198 187.176 113.803C187.176 130.685 173.42 144.442 156.537 144.442H156.18C139.297 144.442 125.541 130.685 125.541 113.803C125.541 96.9198 139.208 83.1635 156.18 83.1635Z" stroke="#2D1F04" stroke-width="2.49222" stroke-miterlimit="10" stroke-linecap="round" stroke-linejoin="round"/>
<path d="M155.733 113.088C157.558 113.088 159.038 111.088 159.038 108.622C159.038 106.155 157.558 104.155 155.733 104.155C153.908 104.155 152.428 106.155 152.428 108.622C152.428 111.088 153.908 113.088 155.733 113.088Z" fill="#2D1F04"/>
<path opacity="0.8258" d="M43.4491 83.8781H43.8064C59.8853 83.8781 72.927 100.136 72.927 120.234C72.927 140.333 59.8853 156.59 43.8064 156.59H43.4491C27.3702 156.59 14.3285 140.333 14.3285 120.234C14.3285 100.136 27.3702 83.8781 43.4491 83.8781Z" fill="#B2B2B2"/>
<path d="M43.4491 84.0567H43.8064C59.3493 84.0567 72.0337 97.8131 72.0337 114.696C72.0337 131.579 59.4386 145.335 43.8064 145.335H43.4491C27.9062 145.335 15.2217 131.579 15.2217 114.696C15.2217 97.8131 27.9062 84.0567 43.4491 84.0567Z" fill="white"/>
<path d="M43.4491 84.0567H43.8064C59.3493 84.0567 72.0337 97.8131 72.0337 114.696C72.0337 131.579 59.3493 145.335 43.8064 145.335H43.4491C27.9062 145.335 15.2217 131.579 15.2217 114.696C15.2217 97.8131 27.9062 84.0567 43.4491 84.0567Z" stroke="#2D1F04" stroke-width="2.49222" stroke-miterlimit="10" stroke-linecap="round" stroke-linejoin="round"/>
<path d="M43.0918 113.981C44.8185 113.981 46.2182 111.982 46.2182 109.515C46.2182 107.048 44.8185 105.049 43.0918 105.049C41.3651 105.049 39.9653 107.048 39.9653 109.515C39.9653 111.982 41.3651 113.981 43.0918 113.981Z" fill="#2D1F04"/>
<path d="M151.624 59.8491H44.8784V98.5277H151.624V59.8491Z" fill="#D6D1C7" stroke="black" stroke-width="1.33991" stroke-miterlimit="10"/>
<path d="M151.624 50.1125H44.8784V59.8491H151.624V50.1125Z" fill="#004CA3" stroke="black" stroke-width="1.33991" stroke-miterlimit="10"/>
<path d="M84.6914 82.2481V75.9506H85.5489L88.9344 80.3455V75.9506H89.9974V82.2481H89.1488L85.7543 77.8354V82.2481H84.6914ZM93.2582 82.3375C92.8056 82.3375 92.4126 82.2452 92.0791 82.0606C91.7456 81.8759 91.4866 81.6139 91.302 81.2745C91.1174 80.9291 91.0251 80.5241 91.0251 80.0596C91.0251 79.5951 91.1174 79.1932 91.302 78.8537C91.4866 78.5143 91.7456 78.2522 92.0791 78.0676C92.4126 77.883 92.8056 77.7907 93.2582 77.7907C93.7108 77.7907 94.1039 77.883 94.4374 78.0676C94.7708 78.2522 95.0299 78.5143 95.2145 78.8537C95.3991 79.1932 95.4914 79.5951 95.4914 80.0596C95.4914 80.5241 95.3991 80.9291 95.2145 81.2745C95.0299 81.6139 94.7708 81.8759 94.4374 82.0606C94.1039 82.2452 93.7108 82.3375 93.2582 82.3375ZM93.2582 81.4889C93.5917 81.4889 93.8597 81.3698 94.0622 81.1316C94.2647 80.8874 94.3659 80.5301 94.3659 80.0596C94.3659 79.5832 94.2647 79.2289 94.0622 78.9966C93.8597 78.7584 93.5917 78.6393 93.2582 78.6393C92.9247 78.6393 92.6568 78.7584 92.4543 78.9966C92.2518 79.2289 92.1506 79.5832 92.1506 80.0596C92.1506 80.5301 92.2518 80.8874 92.4543 81.1316C92.6568 81.3698 92.9247 81.4889 93.2582 81.4889ZM98.3703 82.3375C97.215 82.3375 96.6374 81.7658 96.6374 80.6224V78.7197H95.7977V77.88H96.6374V76.5759H97.754V77.88H99.076V78.7197H97.754V80.5599C97.754 80.8457 97.8165 81.0601 97.9416 81.203C98.0666 81.3459 98.2691 81.4174 98.549 81.4174C98.6324 81.4174 98.7187 81.4085 98.808 81.3906C98.8974 81.3668 98.9897 81.343 99.0849 81.3191L99.2547 82.1409C99.1475 82.2005 99.0105 82.2481 98.8438 82.2839C98.683 82.3196 98.5252 82.3375 98.3703 82.3375ZM102.313 82.2481V75.9506H106.43V76.8617H103.456V78.6393H106.243V79.5505H103.456V82.2481H102.313ZM109.056 82.3375C108.604 82.3375 108.211 82.2452 107.877 82.0606C107.544 81.8759 107.285 81.6139 107.1 81.2745C106.915 80.9291 106.823 80.5241 106.823 80.0596C106.823 79.5951 106.915 79.1932 107.1 78.8537C107.285 78.5143 107.544 78.2522 107.877 78.0676C108.211 77.883 108.604 77.7907 109.056 77.7907C109.509 77.7907 109.902 77.883 110.235 78.0676C110.569 78.2522 110.828 78.5143 111.012 78.8537C111.197 79.1932 111.289 79.5951 111.289 80.0596C111.289 80.5241 111.197 80.9291 111.012 81.2745C110.828 81.6139 110.569 81.8759 110.235 82.0606C109.902 82.2452 109.509 82.3375 109.056 82.3375ZM109.056 81.4889C109.39 81.4889 109.658 81.3698 109.86 81.1316C110.063 80.8874 110.164 80.5301 110.164 80.0596C110.164 79.5832 110.063 79.2289 109.86 78.9966C109.658 78.7584 109.39 78.6393 109.056 78.6393C108.723 78.6393 108.455 78.7584 108.252 78.9966C108.05 79.2289 107.949 79.5832 107.949 80.0596C107.949 80.5301 108.05 80.8874 108.252 81.1316C108.455 81.3698 108.723 81.4889 109.056 81.4889ZM113.792 82.3375C112.72 82.3375 112.184 81.736 112.184 80.5331V77.88H113.301V80.5509C113.301 80.8606 113.363 81.0899 113.488 81.2387C113.613 81.3876 113.813 81.4621 114.087 81.4621C114.385 81.4621 114.629 81.3608 114.819 81.1583C115.01 80.9499 115.105 80.676 115.105 80.3365V77.88H116.222V82.2481H115.132V81.5961C114.84 82.0903 114.394 82.3375 113.792 82.3375ZM117.384 82.2481V77.88H118.474V78.5589C118.623 78.3088 118.822 78.1183 119.072 77.9872C119.328 77.8562 119.614 77.7907 119.93 77.7907C120.96 77.7907 121.475 78.3892 121.475 79.5862V82.2481H120.359V79.6398C120.359 79.3003 120.293 79.0532 120.162 78.8984C120.037 78.7435 119.84 78.6661 119.572 78.6661C119.245 78.6661 118.983 78.7703 118.786 78.9788C118.596 79.1812 118.501 79.4522 118.501 79.7916V82.2481H117.384ZM124.289 82.3375C123.907 82.3375 123.571 82.2452 123.279 82.0606C122.993 81.8759 122.77 81.6139 122.609 81.2745C122.448 80.9291 122.368 80.5241 122.368 80.0596C122.368 79.5892 122.448 79.1872 122.609 78.8537C122.77 78.5143 122.993 78.2522 123.279 78.0676C123.571 77.883 123.907 77.7907 124.289 77.7907C124.598 77.7907 124.878 77.8592 125.128 77.9962C125.378 78.1331 125.566 78.3148 125.691 78.5411V75.9506H126.808V82.2481H125.718V81.5246C125.599 81.7747 125.411 81.9742 125.155 82.1231C124.899 82.266 124.61 82.3375 124.289 82.3375ZM124.601 81.4889C124.935 81.4889 125.203 81.3698 125.405 81.1316C125.608 80.8874 125.709 80.5301 125.709 80.0596C125.709 79.5832 125.608 79.2289 125.405 78.9966C125.203 78.7584 124.935 78.6393 124.601 78.6393C124.268 78.6393 124 78.7584 123.797 78.9966C123.595 79.2289 123.494 79.5832 123.494 80.0596C123.494 80.5301 123.595 80.8874 123.797 81.1316C124 81.3698 124.268 81.4889 124.601 81.4889Z" fill="black"/>
<path d="M145.371 57.6159C146.851 57.6159 148.051 56.4161 148.051 54.9361C148.051 53.4561 146.851 52.2563 145.371 52.2563C143.891 52.2563 142.691 53.4561 142.691 54.9361C142.691 56.4161 143.891 57.6159 145.371 57.6159Z" fill="#FF0000"/>
<path d="M142.959 52.435L148.587 58.0626" stroke="black" stroke-width="0.589826" stroke-miterlimit="10"/>
<path d="M142.602 57.7946L148.23 52.0777" stroke="black" stroke-width="0.589826" stroke-miterlimit="10"/>
<path d="M72.1231 87.0045C76.4151 87.0045 79.8945 83.5251 79.8945 79.2331C79.8945 74.941 76.4151 71.4616 72.1231 71.4616C67.831 71.4616 64.3516 74.941 64.3516 79.2331C64.3516 83.5251 67.831 87.0045 72.1231 87.0045Z" fill="#FF0000"/>
<path d="M68.1927 75.2133L76.3214 83.3421" stroke="white" stroke-width="1.36206" stroke-miterlimit="10" stroke-linecap="round"/>
<path d="M68.1927 83.3421L76.3214 75.2133" stroke="white" stroke-width="1.36206" stroke-miterlimit="10" stroke-linecap="round"/>
<path d="M53.0902 58.0231V56.8092H50.4774V56.3107L53.2027 52.3553H53.7575V56.2464H54.6016V56.8092H53.7575V58.0231H53.0902ZM53.0902 56.2464V53.4407L51.1607 56.2464H53.0902ZM57.2917 58.0955C56.6432 58.0955 56.1501 57.8463 55.8124 57.3478C55.4748 56.8494 55.3059 56.1285 55.3059 55.1852C55.3059 54.2366 55.4748 53.5157 55.8124 53.0226C56.1501 52.5295 56.6432 52.283 57.2917 52.283C57.9455 52.283 58.4386 52.5295 58.7709 53.0226C59.1086 53.5103 59.2774 54.2285 59.2774 55.1772C59.2774 56.1258 59.1059 56.8494 58.7629 57.3478C58.4252 57.8463 57.9348 58.0955 57.2917 58.0955ZM57.2917 57.5247C57.7419 57.5247 58.0742 57.3344 58.2886 56.9539C58.5083 56.5734 58.6182 55.9811 58.6182 55.1772C58.6182 54.3732 58.511 53.7864 58.2966 53.4165C58.0822 53.0414 57.7472 52.8538 57.2917 52.8538C56.8415 52.8538 56.5065 53.0414 56.2867 53.4165C56.0724 53.7917 55.9652 54.3786 55.9652 55.1772C55.9652 55.9811 56.0724 56.5734 56.2867 56.9539C56.5065 57.3344 56.8415 57.5247 57.2917 57.5247ZM62.7312 58.0231V56.8092H60.1184V56.3107L62.8438 52.3553H63.3985V56.2464H64.2426V56.8092H63.3985V58.0231H62.7312ZM62.7312 56.2464V53.4407L60.8018 56.2464H62.7312Z" fill="white"/>
</g>
<defs>
<clipPath id="clip0_53_212">
<rect width="283.971" height="301.3" fill="white" transform="translate(0.929443)"/>
</clipPath>
</defs>
</svg>
