<svg width="30" height="30" viewBox="0 0 30 30" fill="none" xmlns="http://www.w3.org/2000/svg">
<g clip-path="url(#clip0_112_382)">
<path d="M2.52816 0.848022C1.6378 0.848022 0.921021 1.5648 0.921021 2.45516V27.4965C0.921021 28.3869 1.6378 29.1037 2.52816 29.1037H15.1345H27.5695C28.4599 29.1037 29.1767 28.3869 29.1767 27.4965V2.45516C29.1767 1.5648 28.4599 0.848022 27.5695 0.848022H15.1345H2.52816Z" fill="#00247D"/>
<path d="M0.921021 5.58923V8.04888L12.9187 14.9758L0.921021 21.9027V24.3623L15.0488 16.2056L29.1767 24.3623V21.9027L17.1789 14.9758L29.1767 8.04888V5.58923L15.0488 13.746L0.921021 5.58923Z" fill="#CF142B"/>
<path d="M12.6191 0.848022V12.5461H0.921021V17.4055H12.6191V29.1037H15.1345H17.4786V17.4055H29.1767V12.5461H17.4786V0.848022H15.1345H12.6191Z" fill="#CF142B"/>
<path d="M12.1466 0.848022V11.5249L0.921021 5.04371V6.13489L11.2072 12.0736H8.83704L0.921021 7.50328V8.59454L6.94701 12.0736H0.921021V13.0186H8.58375H10.4737H11.4564C12.0996 13.0186 12.4937 12.9917 13.0916 12.9917V12.0704V0.848022H12.1466ZM17.0061 0.848022V12.0704V13.0226C17.5828 13.0226 18.1205 13.0186 18.6413 13.0186H19.624H21.5139H29.1767V12.0736H23.1507L29.1767 8.59454V7.50328L21.2606 12.0736H18.8905L29.1767 6.13489V5.04371L17.9511 11.5249V0.848022H17.0061ZM13.0916 16.9445C12.5468 16.9445 11.9771 16.9331 11.4562 16.9331H10.4736H8.5836H0.921021V17.878H6.94694L0.921021 21.3571V22.4483L8.83696 17.878H11.2072L0.921021 23.8167V24.9079L12.1466 18.4267V29.1037H13.0916V17.8812V16.9445ZM17.0061 16.9445V17.8812V29.1037H17.9511V18.4267L29.1767 24.9079V23.8167L18.8905 17.878H21.2607L29.1767 22.4483V21.3571L23.1507 17.878H29.1767V16.9331H21.5141H19.6241H18.6415C18.044 16.9331 17.0061 16.9445 17.0061 16.9445Z" fill="white"/>
</g>
<rect x="0.5" y="0.5" width="29" height="29" rx="2.5" stroke="#1F1F1F"/>
<defs>
<clipPath id="clip0_112_382">
<rect width="30" height="30" rx="3" fill="white"/>
</clipPath>
</defs>
</svg>
